<svg xmlns="http://www.w3.org/2000/svg" width="43" height="41" viewBox="0 0 43 41">
  <g id="Group_634" data-name="Group 634" transform="translate(0 -0.437)">
    <line id="Line_46" data-name="Line 46" y1="5" transform="translate(33 0.437)" fill="none" stroke="#10283c" stroke-miterlimit="10" stroke-width="2"/>
    <line id="Line_47" data-name="Line 47" y1="3.723" x2="2.154" transform="translate(36.311 1.733)" fill="none" stroke="#10283c" stroke-miterlimit="10" stroke-width="2"/>
    <line id="Line_48" data-name="Line 48" y1="2.154" x2="3.723" transform="translate(38.738 5.728)" fill="none" stroke="#10283c" stroke-miterlimit="10" stroke-width="2"/>
    <line id="Line_49" data-name="Line 49" x2="3" transform="translate(40 11.437)" fill="none" stroke="#10283c" stroke-miterlimit="10" stroke-width="2"/>
    <path id="Path_1186" data-name="Path 1186" d="M34.842,17.953V13H3.476A2.437,2.437,0,0,0,1,15.476" transform="translate(0 -2.278)" fill="none" stroke="#10283c" stroke-miterlimit="10" stroke-width="2"/>
    <path id="Path_1187" data-name="Path 1187" d="M20.541,4.91,8.87,16.54h5.885L18.792,12.5a2.19,2.19,0,0,0,3.5,0l4.02,4.045h5.852Z" transform="translate(-1.374 -0.866)" fill="#ff8921"/>
    <path id="Path_1188" data-name="Path 1188" d="M32.163,16.54,20.541,4.91,8.87,16.54" transform="translate(-1.374 -0.866)" fill="none" stroke="#10283c" stroke-miterlimit="10" stroke-width="2"/>
    <path id="Path_1189" data-name="Path 1189" d="M27.554,18.145,23.534,14.1a2.186,2.186,0,0,1-3.5,0L15.99,18.145" transform="translate(-2.617 -2.471)" fill="none" stroke="#10283c" stroke-miterlimit="10" stroke-width="2"/>
    <path id="Path_1190" data-name="Path 1190" d="M38.969,43.239H3.476A2.437,2.437,0,0,1,1,40.763V16a2.437,2.437,0,0,0,2.476,2.476H38.969V43.239Z" transform="translate(0 -2.802)" fill="none" stroke="#10283c" stroke-miterlimit="10" stroke-width="2"/>
    <path id="Path_1191" data-name="Path 1191" d="M32,33.064a2.064,2.064,0,1,1,2.064,2.064A2.064,2.064,0,0,1,32,33.064Z" transform="translate(-5.412 -5.421)" fill="none" stroke="#10283c" stroke-miterlimit="10" stroke-width="2"/>
    <path id="Path_1192" data-name="Path 1192" d="M44.508,28H32.54a4.54,4.54,0,1,0,0,9.08H44.508a1.656,1.656,0,0,0,1.651-1.651V29.651A1.656,1.656,0,0,0,44.508,28ZM33.365,34.6a2.064,2.064,0,1,1,2.064-2.064A2.064,2.064,0,0,1,33.365,34.6Z" transform="translate(-4.714 -4.897)" fill="#ff8921" stroke="#10283c" stroke-miterlimit="10" stroke-width="2"/>
  </g>
</svg>
