<svg xmlns="http://www.w3.org/2000/svg" width="43.409" height="42.5" viewBox="0 0 43.409 42.5">
  <g id="Group_632" data-name="Group 632" transform="translate(0 0.091)">
    <path id="Path_1179" data-name="Path 1179" d="M12.02,29a16.117,16.117,0,0,1,.7-4" transform="translate(-2.402 -4.796)" fill="none" stroke="#10283c" stroke-miterlimit="10" stroke-width="2"/>
    <path id="Path_1180" data-name="Path 1180" d="M13,37a16.169,16.169,0,0,1-.9-4" transform="translate(-2.418 -6.394)" fill="none" stroke="#10283c" stroke-miterlimit="10" stroke-width="2"/>
    <path id="Path_1181" data-name="Path 1181" d="M14.08,19.7a16.4,16.4,0,1,1,.416,15.2" transform="translate(-2.814 -1.898)" fill="none" stroke="#10283c" stroke-miterlimit="10" stroke-width="2"/>
    <path id="Path_1182" data-name="Path 1182" d="M21.94,19.151A12.2,12.2,0,1,1,21.988,36.8" transform="translate(-4.384 -2.947)" fill="none" stroke="#10283c" stroke-miterlimit="10" stroke-width="2"/>
    <ellipse id="Ellipse_3" data-name="Ellipse 3" cx="8.5" cy="9" rx="8.5" ry="9" transform="translate(17 15.909)" fill="#ff8921"/>
    <path id="Path_1183" data-name="Path 1183" d="M30,7.4V5h4V7.4" transform="translate(-5.995 -0.799)" fill="none" stroke="#10283c" stroke-miterlimit="10" stroke-width="2"/>
    <rect id="Rectangle_931" data-name="Rectangle 931" width="8" height="3" transform="translate(22 0.909)" fill="#ff8921" stroke="#10283c" stroke-miterlimit="10" stroke-width="2"/>
    <line id="Line_32" data-name="Line 32" x2="11" transform="translate(4 17.909)" fill="none" stroke="#10283c" stroke-miterlimit="10" stroke-width="2"/>
    <line id="Line_33" data-name="Line 33" x2="13" transform="translate(0 23.909)" fill="none" stroke="#10283c" stroke-miterlimit="10" stroke-width="2"/>
    <line id="Line_34" data-name="Line 34" x2="11" transform="translate(3 30.909)" fill="none" stroke="#10283c" stroke-miterlimit="10" stroke-width="2"/>
    <line id="Line_35" data-name="Line 35" y1="5.273" x2="4.969" transform="translate(27.838 17.804)" fill="none" stroke="#10283c" stroke-miterlimit="10" stroke-width="2"/>
    <circle id="Ellipse_4" data-name="Ellipse 4" cx="2.2" cy="2.2" r="2.2" transform="translate(23.805 22.805)" fill="#ff8921" stroke="#10283c" stroke-miterlimit="10" stroke-width="2"/>
    <line id="Line_36" data-name="Line 36" x1="2.945" y2="2.945" transform="translate(11.651 9.106)" fill="none" stroke="#10283c" stroke-miterlimit="10" stroke-width="2"/>
    <line id="Line_37" data-name="Line 37" x2="2.08" y2="2.08" transform="translate(13.123 10.578)" fill="none" stroke="#10283c" stroke-miterlimit="10" stroke-width="2"/>
  </g>
</svg>
