<?xml version="1.0" encoding="iso-8859-1"?>
<!-- Generator: Adobe Illustrator 19.0.0, SVG Export Plug-In . SVG Version: 6.00 Build 0)  -->
<svg version="1.1" id="Capa_1" xmlns="http://www.w3.org/2000/svg" xmlns:xlink="http://www.w3.org/1999/xlink" x="0px" y="0px"
	 viewBox="0 0 512 512" style="enable-background:new 0 0 512 512;" xml:space="preserve">
<circle style="fill:#B9EAFF;" cx="256" cy="256" r="256"/>
<path style="fill:#35CCFF;" d="M302.505,507.774c117.621-21.588,207.112-123.559,209.432-246.866L422.7,171.672l-43.323,73.177
	L268.27,133.74l-84.772,255.027L302.505,507.774z"/>
<rect x="193.06" y="171.67" style="fill:#175D76;" width="229.64" height="216.45"/>
<polygon style="fill:#00263F;" points="422.701,171.672 307.88,171.703 307.88,388.157 422.701,388.126 "/>
<rect x="208.62" y="197.59" style="fill:#35CCFF;" width="119.3" height="142.05"/>
<g>
	<polygon style="fill:#00BAFF;" points="327.922,197.587 307.841,196.889 307.841,338.939 327.922,339.637 	"/>
	<rect x="342.44" y="186.34" style="fill:#00BAFF;" width="67.41" height="187.05"/>
</g>
<path style="fill:#AE4E32;" d="M393.996,267.873L393.996,267.873c15.854,0,28.705-12.852,28.705-28.705v-67.497H365.29v67.497
	C365.29,255.022,378.142,267.873,393.996,267.873z"/>
<path style="fill:#843421;" d="M336.585,267.873L336.585,267.873c15.854,0,28.705-12.852,28.705-28.705v-67.497h-57.41v67.497
	C307.88,255.022,320.732,267.873,336.585,267.873z"/>
<path style="fill:#FF6838;" d="M279.174,267.873L279.174,267.873c15.854,0,28.705-12.852,28.705-28.705v-67.497h-57.411v67.497
	C250.469,255.022,263.321,267.873,279.174,267.873z"/>
<path style="fill:#AE4E32;" d="M221.763,267.873L221.763,267.873c15.854,0,28.705-12.852,28.705-28.705v-67.497h-57.411v67.497
	C193.058,255.022,205.91,267.873,221.763,267.873z"/>
<path style="fill:#FFB344;" d="M183.498,92.105c-59.163,0-107.123,47.961-107.123,107.123c0,87.207,107.123,189.538,107.123,189.538
	s107.123-91.519,107.123-189.538C290.621,140.066,242.661,92.105,183.498,92.105z M183.498,272.849
	c-40.66,0-73.621-32.961-73.621-73.621s32.961-73.621,73.621-73.621s73.621,32.961,73.621,73.621
	C257.119,239.888,224.158,272.849,183.498,272.849z"/>
<path style="fill:#FF9451;" d="M183.498,388.767c0,0,107.123-91.519,107.123-189.538c0-59.163-47.961-107.123-107.123-107.123
	c-0.254,0-0.506,0.008-0.76,0.01v33.512c0.254-0.003,0.505-0.019,0.76-0.019c40.66,0,73.621,32.961,73.621,73.621
	c0,40.659-32.961,73.621-73.621,73.621c-0.255,0-0.506-0.017-0.76-0.019L183.498,388.767z"/>
<circle style="fill:#FFFFFF;" cx="183.5" cy="199.23" r="80"/>
<path style="fill:#E0E0E0;" d="M183.498,119.229c-0.255,0-0.506,0.017-0.76,0.019V279.21c0.254,0.002,0.505,0.019,0.76,0.019
	c44.183,0,80-35.817,80-80S227.681,119.229,183.498,119.229z"/>
<circle style="fill:#0074A3;" cx="155.82" cy="171.55" r="18.216"/>
<circle style="fill:#005C83;" cx="211.18" cy="226.91" r="18.216"/>
<rect x="175.534" y="142.287" transform="matrix(-0.7071 -0.7071 0.7071 -0.7071 172.3652 469.8598)" style="fill:#0074A3;" width="15.92" height="113.889"/>
<polygon style="fill:#005C83;" points="218.135,153.335 182.738,188.732 182.738,211.246 229.391,164.592 "/>
<g>
</g>
<g>
</g>
<g>
</g>
<g>
</g>
<g>
</g>
<g>
</g>
<g>
</g>
<g>
</g>
<g>
</g>
<g>
</g>
<g>
</g>
<g>
</g>
<g>
</g>
<g>
</g>
<g>
</g>
</svg>
