<svg xmlns="http://www.w3.org/2000/svg" width="58" height="42" viewBox="0 0 58 42">
  <g id="Group_631" data-name="Group 631" transform="translate(0 0.091)">
    <rect id="Rectangle_926" data-name="Rectangle 926" width="24" height="35" transform="translate(15 5.909)" fill="none" stroke="#10283c" stroke-miterlimit="10" stroke-width="2"/>
    <rect id="Rectangle_927" data-name="Rectangle 927" width="18" height="5" transform="translate(18 0.909)" fill="#e9eaeb" stroke="#10283c" stroke-miterlimit="10" stroke-width="2"/>
    <rect id="Rectangle_928" data-name="Rectangle 928" width="6" height="7" transform="translate(25 33.909)" fill="#e9eaeb" stroke="#10283c" stroke-miterlimit="10" stroke-width="2"/>
    <path id="Path_1176" data-name="Path 1176" d="M22,19.525V15h4.525v4.525" transform="translate(-2.091 -1.331)" fill="none" stroke="#10283c" stroke-miterlimit="10" stroke-width="2"/>
    <path id="Path_1177" data-name="Path 1177" d="M22,27.525V23h4.525v4.525" transform="translate(-2.091 -2.091)" fill="none" stroke="#10283c" stroke-miterlimit="10" stroke-width="2"/>
    <rect id="Rectangle_929" data-name="Rectangle 929" width="9" height="23" transform="translate(6 17.909)" fill="none" stroke="#10283c" stroke-miterlimit="10" stroke-width="2"/>
    <rect id="Rectangle_930" data-name="Rectangle 930" width="6" height="4" transform="translate(9 13.909)" fill="#e9eaeb" stroke="#10283c" stroke-miterlimit="10" stroke-width="2"/>
    <path id="Path_1178" data-name="Path 1178" d="M42.031,13a9.893,9.893,0,0,0-9.891,9.891c0,8.534,8.434,9.692,9.14,18.361a.753.753,0,0,0,1.5,0c.706-8.678,9.14-9.828,9.14-18.361A9.887,9.887,0,0,0,42.031,13Z" transform="translate(-3.055 -1.141)" fill="#ff8921" stroke="#10283c" stroke-miterlimit="10" stroke-width="2"/>
    <circle id="Ellipse_2" data-name="Ellipse 2" cx="4" cy="4" r="4" transform="translate(35 17.909)" fill="#fff" stroke="#10283c" stroke-miterlimit="10" stroke-width="2"/>
    <line id="Line_28" data-name="Line 28" x2="45" transform="translate(4 40.909)" fill="none" stroke="#10283c" stroke-miterlimit="10" stroke-width="2"/>
    <line id="Line_29" data-name="Line 29" x1="2" transform="translate(0 40.909)" fill="none" stroke="#10283c" stroke-miterlimit="10" stroke-width="2"/>
    <line id="Line_30" data-name="Line 30" x2="3" transform="translate(51 40.909)" fill="none" stroke="#10283c" stroke-miterlimit="10" stroke-width="2"/>
    <line id="Line_31" data-name="Line 31" x2="2" transform="translate(56 40.909)" fill="none" stroke="#10283c" stroke-miterlimit="10" stroke-width="2"/>
  </g>
</svg>
