<svg xmlns="http://www.w3.org/2000/svg" width="42" height="42" viewBox="0 0 42 42">
  <g id="Group_633" data-name="Group 633" transform="translate(0 0.091)">
    <rect id="Rectangle_932" data-name="Rectangle 932" width="7" height="40" transform="translate(3 0.909)" fill="none"/>
    <rect id="Rectangle_933" data-name="Rectangle 933" width="26" height="40" transform="translate(36 40.909) rotate(180)" fill="none"/>
    <rect id="Rectangle_934" data-name="Rectangle 934" width="33" height="40" transform="translate(3 0.909)" fill="none" stroke="#10283c" stroke-miterlimit="10" stroke-width="2"/>
    <path id="Path_1184" data-name="Path 1184" d="M33.569,32.184V28.815C33.569,26.668,28.4,25,26.784,25S20,26.66,20,28.815v3.368Z" transform="translate(-4.037 -4.844)" fill="#ff8921" stroke="#10283c" stroke-miterlimit="10" stroke-width="2"/>
    <path id="Path_1185" data-name="Path 1185" d="M27.592,23.542a3.631,3.631,0,0,0,3.592-3.759V18.529a3.6,3.6,0,1,0-7.184,0v1.253A3.631,3.631,0,0,0,27.592,23.542Z" transform="translate(-4.844 -2.779)" fill="none" stroke="#10283c" stroke-miterlimit="10" stroke-width="2"/>
    <line id="Line_38" data-name="Line 38" x2="6" transform="translate(0 6.909)" fill="none" stroke="#10283c" stroke-miterlimit="10" stroke-width="2"/>
    <line id="Line_39" data-name="Line 39" x2="6" transform="translate(0 10.909)" fill="none" stroke="#10283c" stroke-miterlimit="10" stroke-width="2"/>
    <line id="Line_40" data-name="Line 40" x2="6" transform="translate(0 15.909)" fill="none" stroke="#10283c" stroke-miterlimit="10" stroke-width="2"/>
    <line id="Line_41" data-name="Line 41" x2="6" transform="translate(0 20.909)" fill="none" stroke="#10283c" stroke-miterlimit="10" stroke-width="2"/>
    <line id="Line_42" data-name="Line 42" x2="6" transform="translate(0 25.909)" fill="none" stroke="#10283c" stroke-miterlimit="10" stroke-width="2"/>
    <line id="Line_43" data-name="Line 43" x2="6" transform="translate(0 30.909)" fill="none" stroke="#10283c" stroke-miterlimit="10" stroke-width="2"/>
    <line id="Line_44" data-name="Line 44" x2="6" transform="translate(0 34.909)" fill="none" stroke="#10283c" stroke-miterlimit="10" stroke-width="2"/>
    <rect id="Rectangle_935" data-name="Rectangle 935" width="5" height="7" transform="translate(36 22.909)" fill="none" stroke="#10283c" stroke-miterlimit="10" stroke-width="2"/>
    <rect id="Rectangle_936" data-name="Rectangle 936" width="5" height="6" transform="translate(36 13.909)" fill="none" stroke="#10283c" stroke-miterlimit="10" stroke-width="2"/>
    <rect id="Rectangle_937" data-name="Rectangle 937" width="5" height="7" transform="translate(36 3.909)" fill="none" stroke="#10283c" stroke-miterlimit="10" stroke-width="2"/>
    <rect id="Rectangle_938" data-name="Rectangle 938" width="33" height="40" transform="translate(3 0.909)" fill="none" stroke="#10283c" stroke-miterlimit="10" stroke-width="2"/>
    <line id="Line_45" data-name="Line 45" y2="40" transform="translate(10 0.909)" fill="none" stroke="#10283c" stroke-miterlimit="10" stroke-width="2"/>
  </g>
</svg>
