<svg xmlns="http://www.w3.org/2000/svg" width="8" height="16" viewBox="0 0 8 16">
  <g id="Vector_Smart_Object17" data-name="Vector Smart Object17" transform="translate(-399 -3878)">
    <g id="Vector_Smart_Object17-2" data-name="Vector Smart Object17" transform="translate(147 3814)">
      <path id="Path_255" data-name="Path 255" d="M257.333,69.333V67.746c0-.717.159-1.079,1.271-1.079H260V64h-2.329c-2.854,0-3.8,1.308-3.8,3.554v1.779H252V72h1.875v8h3.458V72h2.35L260,69.333Z"/>
    </g>
    <path id="Color_Overlay" data-name="Color Overlay" d="M400.875,3894v-8H399v-2.667h1.875v-1.78c0-2.246.942-3.553,3.8-3.553H407v2.667h-1.4c-1.112,0-1.271.362-1.271,1.079v1.587H407l-.317,2.667h-2.35v8Z" fill="#e1e6eb"/>
  </g>
</svg>
