<svg xmlns="http://www.w3.org/2000/svg" width="17" height="16.001" viewBox="0 0 17 16.001">
  <g id="Vector_Smart_Object18" data-name="Vector Smart Object18" transform="translate(-419 -3878)">
    <g id="Vector_Smart_Object18-2" data-name="Vector Smart Object18" transform="translate(173.138 3846.735)">
      <g id="Group_191" data-name="Group 191">
        <path id="Path_257" data-name="Path 257" d="M250.116,47.265H245.9V36.6l4.219-.027ZM248,35.055a1.909,1.909,0,1,1,2.136-1.894A2.026,2.026,0,0,1,248,35.055Zm11.466,12.2V40.787a1.914,1.914,0,0,0-1.857-1.73,2.027,2.027,0,0,0-1.969,1.645v6.551h-3.432l.056-10.681h3.319l-.027,1.343a3.336,3.336,0,0,1,3.3-1.755c2.606,0,3.787,1.505,4.007,4.319v6.774Z"/>
      </g>
    </g>
    <path id="Color_Overlay" data-name="Color Overlay" d="M419.035,3894v-10.666l4.219-.027V3894Zm13.567-.013v-6.466a1.914,1.914,0,0,0-1.857-1.73,2.027,2.027,0,0,0-1.969,1.644v6.552h-3.431l.056-10.681h3.319l-.026,1.343a3.336,3.336,0,0,1,3.3-1.755c2.606,0,3.787,1.5,4.007,4.32v6.773ZM419,3879.9a2.152,2.152,0,1,1,2.137,1.893A2.028,2.028,0,0,1,419,3879.9Z" fill="#e1e6eb"/>
  </g>
</svg>
