<svg xmlns="http://www.w3.org/2000/svg" width="115" height="84" viewBox="0 0 115 84">
  <g id="logo" transform="translate(-367.119 -137.992)">
    <path id="Path_641" data-name="Path 641" d="M376.073,220.981c-2.289-2.669,1.93-10.224,10.5-20.086-4.967,6.133-7.138,10.779-5.536,12.875,3.264,4.271,22.042-3.384,43.831-17.637-23.952,18.456-44.942,29.34-48.793,24.847" fill="#e85300"/>
    <path id="Path_642" data-name="Path 642" d="M367.119,180.041c0-7.931,25.743-14.362,57.5-14.362s57.5,6.43,57.5,14.362S456.376,194.4,424.62,194.4s-57.5-6.429-57.5-14.361" fill="#00406d"/>
    <path id="Path_643" data-name="Path 643" d="M472.709,139c2.288,2.669-1.932,10.224-10.5,20.087,4.968-6.133,7.138-10.78,5.536-12.875-3.264-4.271-22.043,3.384-43.83,17.636,23.952-18.456,44.94-29.34,48.794-24.847" fill="#0066b1"/>
    <g id="Group_268" data-name="Group 268">
      <path id="Path_644" data-name="Path 644" d="M412.129,188l-2.566-4.614h-3.721V188h-3.652V171.855h7.026a7.38,7.38,0,0,1,4.9,1.465,5.123,5.123,0,0,1,1.733,4.141,6.235,6.235,0,0,1-.774,3.195,4.97,4.97,0,0,1-2.254,2.019L416.267,188Zm-6.287-7.659h3.374a3.5,3.5,0,0,0,2.346-.7,2.571,2.571,0,0,0,.82-2.065,2.473,2.473,0,0,0-.82-2.019,3.585,3.585,0,0,0-2.346-.681h-3.374Z" fill="#fff"/>
      <path id="Path_645" data-name="Path 645" d="M430.2,172.882a7.455,7.455,0,0,1,3.016,2.86,8.123,8.123,0,0,1,1.075,4.187,8,8,0,0,1-1.1,4.187,7.578,7.578,0,0,1-3.063,2.861A9.538,9.538,0,0,1,425.651,188h-6.726V171.855h6.865A9.3,9.3,0,0,1,430.2,172.882ZM428.3,184.3a4.4,4.4,0,0,0,1.675-1.765,5.42,5.42,0,0,0,.6-2.584,5.311,5.311,0,0,0-.636-2.607,4.563,4.563,0,0,0-1.733-1.788,4.875,4.875,0,0,0-2.485-.635h-3.143v10.013h3.305A4.662,4.662,0,0,0,428.3,184.3Z" fill="#fff"/>
      <path id="Path_646" data-name="Path 646" d="M434.642,171.855h13.521v3.091h-4.946V188h-3.652V174.946h-4.923Z" fill="#fff"/>
    </g>
    <g id="Group_269" data-name="Group 269">
      <path id="Path_647" data-name="Path 647" d="M432.248,199.169a1.55,1.55,0,0,0-1.531-.988,1.24,1.24,0,0,0-1.411,1.2c0,.3.105.824,1.081,1.213l1.005.4c1.845.749,2.356,1.8,2.356,2.936a3.081,3.081,0,0,1-3.226,3.205,2.931,2.931,0,0,1-2.356-1,3.229,3.229,0,0,1-.84-1.947l1.515-.33a2.154,2.154,0,0,0,.42,1.273,1.579,1.579,0,0,0,1.305.6,1.606,1.606,0,0,0,1.651-1.677c0-1.018-.78-1.438-1.441-1.707l-.96-.4a2.819,2.819,0,0,1-2.041-2.531,2.7,2.7,0,0,1,2.926-2.636,2.954,2.954,0,0,1,2.011.674,3.4,3.4,0,0,1,.765,1Z" fill="#0a1e2e"/>
      <path id="Path_648" data-name="Path 648" d="M437.261,205.954l-2.7-5.317h1.771l1.8,3.684,1.831-3.684h1.651l-5.027,9.735h-1.651Z" fill="#0a1e2e"/>
      <path id="Path_649" data-name="Path 649" d="M445.245,202.3a1.058,1.058,0,0,0-.9-.539.624.624,0,0,0-.45.165.474.474,0,0,0-.135.329.4.4,0,0,0,.21.359c.09.06.18.09.495.255l.751.374a3.044,3.044,0,0,1,.885.584,1.556,1.556,0,0,1,.465,1.169,2.092,2.092,0,0,1-.555,1.438,2.26,2.26,0,0,1-1.771.7,2.178,2.178,0,0,1-1.366-.4,2.458,2.458,0,0,1-.81-1.153l1.2-.569a1.666,1.666,0,0,0,.345.6.9.9,0,0,0,.645.239.888.888,0,0,0,.6-.21.743.743,0,0,0,.21-.494.68.68,0,0,0-.195-.479,1.93,1.93,0,0,0-.63-.389l-.541-.255a3.113,3.113,0,0,1-.87-.539,1.372,1.372,0,0,1-.45-1.063,1.967,1.967,0,0,1,.526-1.348,2.037,2.037,0,0,1,1.545-.6,1.98,1.98,0,0,1,1.17.329,2.162,2.162,0,0,1,.72.779Z" fill="#0a1e2e"/>
      <path id="Path_650" data-name="Path 650" d="M449.4,201.984v4.958h-1.47v-4.958h-.615v-1.347h.615V198.33h1.47v2.307h1.126v1.347Z" fill="#0a1e2e"/>
      <path id="Path_651" data-name="Path 651" d="M457.176,205.5a3.314,3.314,0,0,1-1.065,1.153,3.483,3.483,0,0,1-1.861.479,2.8,2.8,0,0,1-2.131-.809,3.382,3.382,0,0,1-.93-2.411,3.691,3.691,0,0,1,1.006-2.591,2.88,2.88,0,0,1,2.115-.853,2.72,2.72,0,0,1,2.026.824,3.78,3.78,0,0,1,.886,2.666v.18h-4.532a2.087,2.087,0,0,0,.54,1.273,1.5,1.5,0,0,0,1.126.4,1.553,1.553,0,0,0,1.006-.314,2.284,2.284,0,0,0,.585-.689Zm-1.456-2.561a1.524,1.524,0,0,0-.45-.854,1.536,1.536,0,0,0-2.026.045,1.649,1.649,0,0,0-.45.809Z" fill="#0a1e2e"/>
      <path id="Path_652" data-name="Path 652" d="M458.752,200.637h1.471v.584a1.949,1.949,0,0,1,1.561-.749,1.855,1.855,0,0,1,1.636.929,2.239,2.239,0,0,1,1.876-.929,2.024,2.024,0,0,1,1.8.988,3.1,3.1,0,0,1,.33,1.588v3.894h-1.47v-3.475a2.912,2.912,0,0,0-.135-1.123.832.832,0,0,0-.84-.554,1.085,1.085,0,0,0-.87.464,2.552,2.552,0,0,0-.285,1.438v3.25h-1.47v-3.475a2.912,2.912,0,0,0-.135-1.123.832.832,0,0,0-.84-.554,1.086,1.086,0,0,0-.871.464,2.555,2.555,0,0,0-.285,1.438v3.25h-1.471Z" fill="#0a1e2e"/>
      <path id="Path_653" data-name="Path 653" d="M472.048,202.3a1.058,1.058,0,0,0-.9-.539.624.624,0,0,0-.45.165.474.474,0,0,0-.135.329.4.4,0,0,0,.21.359c.09.06.18.09.495.255l.751.374a3.039,3.039,0,0,1,.885.584,1.556,1.556,0,0,1,.465,1.169,2.092,2.092,0,0,1-.555,1.438,2.259,2.259,0,0,1-1.771.7,2.178,2.178,0,0,1-1.366-.4,2.458,2.458,0,0,1-.81-1.153l1.2-.569a1.666,1.666,0,0,0,.345.6.9.9,0,0,0,.645.239.888.888,0,0,0,.6-.21.743.743,0,0,0,.21-.494.68.68,0,0,0-.195-.479,1.931,1.931,0,0,0-.63-.389l-.541-.255a3.114,3.114,0,0,1-.87-.539,1.372,1.372,0,0,1-.45-1.063,1.967,1.967,0,0,1,.525-1.348,2.038,2.038,0,0,1,1.546-.6,1.98,1.98,0,0,1,1.17.329,2.163,2.163,0,0,1,.72.779Z" fill="#0a1e2e"/>
    </g>
  </g>
</svg>
