<svg xmlns="http://www.w3.org/2000/svg" width="17.001" height="12" viewBox="0 0 17.001 12">
  <g id="Vector_Smart_Object19" data-name="Vector Smart Object19" transform="translate(-449 -3882)">
    <g id="Vector_Smart_Object19-2" data-name="Vector Smart Object19" transform="translate(202.42 3737.421)">
      <path id="Path_259" data-name="Path 259" d="M253.325,152.792V148l4.593,2.406Zm10.085-5.624a3.694,3.694,0,0,0-.676-1.694,2.429,2.429,0,0,0-1.7-.722c-2.379-.173-5.948-.173-5.948-.173h-.008s-3.568,0-5.948.173a2.429,2.429,0,0,0-1.7.722,3.7,3.7,0,0,0-.676,1.694,25.843,25.843,0,0,0-.17,2.761v1.295a25.843,25.843,0,0,0,.17,2.761,3.7,3.7,0,0,0,.676,1.694,2.882,2.882,0,0,0,1.874.729c1.36.131,5.78.171,5.78.171s3.572,0,5.952-.178a2.429,2.429,0,0,0,1.7-.722,3.694,3.694,0,0,0,.676-1.694,25.841,25.841,0,0,0,.17-2.761v-1.295A25.841,25.841,0,0,0,263.409,147.168Z" fill-rule="evenodd"/>
    </g>
    <path id="Color_Overlay" data-name="Color Overlay" d="M451.719,3893.829a2.885,2.885,0,0,1-1.873-.729,3.7,3.7,0,0,1-.676-1.695,25.891,25.891,0,0,1-.17-2.761v-1.295a25.891,25.891,0,0,1,.17-2.761,3.7,3.7,0,0,1,.676-1.695,2.426,2.426,0,0,1,1.7-.722c2.38-.172,5.948-.172,5.948-.172h.008s3.568,0,5.948.172a2.427,2.427,0,0,1,1.7.722,3.7,3.7,0,0,1,.676,1.695,25.891,25.891,0,0,1,.17,2.761v1.295a25.891,25.891,0,0,1-.17,2.761,3.7,3.7,0,0,1-.676,1.695,2.425,2.425,0,0,1-1.7.721c-2.38.174-5.952.179-5.952.179S453.08,3893.96,451.719,3893.829Zm4.025-3.616,4.593-2.388-4.594-2.406Z" fill="#e1e6eb"/>
  </g>
</svg>
