<svg height="512pt" viewBox="0 0 512 512" width="512pt" xmlns="http://www.w3.org/2000/svg"><path d="m427.609375 259.191406c0 95.335938-77.285156 172.621094-172.621094 172.621094-17.242187 0-33.898437-2.527344-49.609375-7.234375-12.375-3.707031-24.167968-8.761719-35.203125-15-9.53125-5.386719-18.5-11.65625-26.792969-18.691406-37.328124-31.664063-61.015624-78.914063-61.015624-131.695313 0-95.335937 77.285156-172.621094 172.621093-172.621094 95.335938 0 172.621094 77.285157 172.621094 172.621094zm0 0" fill="#ffed28"/><path d="m254.789062 76.460938c-100.757812 0-182.730468 81.972656-182.730468 182.730468 0 26.644532 6.777344 54.242188 19.605468 79.816406 12.011719 23.949219 28.960938 45.605469 49.019532 62.621094 4.261718 3.609375 10.640625 3.089844 14.25-1.171875 3.613281-4.257812 3.089844-10.636719-1.167969-14.25-37.929687-32.171875-61.488281-80.84375-61.488281-127.015625 0-89.609375 72.902344-162.511718 162.511718-162.511718 89.609376 0 162.511719 72.902343 162.511719 162.511718s-72.902343 162.511719-162.511719 162.511719c-10.390624 0-25.671874-1.996094-35.472656-3.851563-5.484375-1.035156-10.773437 2.566407-11.816406 8.050782-1.035156 5.488281 2.570312 10.777344 8.054688 11.816406 11.058593 2.09375 27.476562 4.203125 39.234374 4.203125 100.757813 0 182.730469-81.972656 182.730469-182.730469 0-100.757812-81.972656-182.730468-182.730469-182.730468zm0 0"/><path d="m179.773438 295.542969c2.386718 0 4.4375-.464844 6.152343-1.398438 1.714844-.929687 2.574219-2.253906 2.574219-3.972656v-71.164063c0-1.714843-.859375-3.019531-2.574219-3.917968-1.714843-.894532-3.765625-1.339844-6.152343-1.339844-2.386719 0-4.441407.445312-6.15625 1.339844-1.714844.898437-2.570313 2.203125-2.570313 3.917968v38.042969l-18.128906-34.574219c-2.011719-3.875-3.820313-6.300781-5.425781-7.273437-1.605469-.96875-4.085938-1.453125-7.441407-1.453125-2.386719 0-4.4375.46875-6.152343 1.398438-1.71875.933593-2.574219 2.257812-2.574219 3.972656v71.050781c0 1.71875.855469 3.042969 2.574219 3.972656 1.714843.933594 3.765624 1.398438 6.152343 1.398438s4.4375-.464844 6.15625-1.398438c1.714844-.929687 2.570313-2.253906 2.570313-3.972656v-38.042969l21.261718 38.714844c1.714844 3.132812 4.960938 4.699219 9.734376 4.699219zm0 0"/><path d="m259.214844 228.96875c1.640625 0 2.929687-.746094 3.859375-2.238281.933593-1.492188 1.398437-3.320313 1.398437-5.484375 0-2.011719-.445312-3.765625-1.339844-5.257813-.894531-1.492187-2.203124-2.238281-3.917968-2.238281h-39.832032c-2.089843 0-3.882812.46875-5.375 1.398438-1.492187.933593-2.234374 2.257812-2.234374 3.972656v71.050781c0 1.71875.742187 3.042969 2.234374 3.972656 1.492188.933594 3.285157 1.398438 5.375 1.398438h39.832032c1.714844 0 3.019531-.742188 3.917968-2.238281.894532-1.488282 1.339844-3.242188 1.339844-5.257813 0-2.164063-.464844-3.988281-1.398437-5.480469-.933594-1.492187-2.21875-2.238281-3.859375-2.238281h-29.988282v-19.023437h16.785157c1.714843 0 3.019531-.671876 3.917969-2.011719.894531-1.34375 1.34375-2.871094 1.34375-4.589844 0-1.863281-.46875-3.46875-1.398438-4.8125-.9375-1.339844-2.222656-2.011719-3.863281-2.011719h-16.78125v-18.910156zm0 0"/><path d="m304.195312 294.703125c2.164063 1.007813 4.625 1.511719 7.386719 1.511719 2.757813 0 5.21875-.503906 7.382813-1.511719 2.164062-1.003906 3.46875-2.441406 3.917968-4.304687l5.816407-26.519532 5.820312 26.519532c.445313 1.863281 1.75 3.300781 3.914063 4.304687 2.164062 1.007813 4.625 1.511719 7.386718 1.511719 2.757813 0 5.203126-.503906 7.328126-1.511719 2.125-1.003906 3.523437-2.441406 4.195312-4.304687l22.265625-68.257813c.152344-.445313.226563-.929687.226563-1.453125 0-1.789062-1.214844-3.394531-3.636719-4.8125-2.425781-1.414062-4.980469-2.125-7.664063-2.125-3.132812 0-5 1.082031-5.597656 3.246094l-17.007812 57.398437-8.839844-37.816406c-.296875-1.417969-1.269532-2.539063-2.910156-3.359375-1.640626-.820312-3.46875-1.230469-5.480469-1.230469-2.015625 0-3.84375.410157-5.484375 1.230469-1.640625.824219-2.609375 1.941406-2.910156 3.359375l-8.835938 37.816406-17.007812-57.398437c-.597657-2.164063-2.464844-3.246094-5.597657-3.246094-2.683593 0-5.242187.710938-7.664062 2.128906-2.425781 1.414063-3.636719 3.019532-3.636719 4.808594 0 .523438.074219 1.007812.222656 1.453125l22.269532 68.257813c.59375 1.863281 1.976562 3.300781 4.140624 4.304687zm0 0"/><path d="m258.289062 55.265625c5.582032 0 10.109376-4.527344 10.109376-10.109375v-35.046875c0-5.582031-4.527344-10.109375-10.109376-10.109375-5.585937 0-10.109374 4.527344-10.109374 10.109375v35.046875c0 5.585938 4.523437 10.109375 10.109374 10.109375zm0 0"/><path d="m258.289062 456.734375c-5.585937 0-10.109374 4.527344-10.109374 10.109375v35.046875c0 5.582031 4.523437 10.109375 10.109374 10.109375 5.582032 0 10.109376-4.527344 10.109376-10.109375v-35.046875c0-5.585938-4.527344-10.109375-10.109376-10.109375zm0 0"/><path d="m45.15625 245.890625h-35.046875c-5.582031 0-10.109375 4.527344-10.109375 10.109375s4.527344 10.109375 10.109375 10.109375h35.046875c5.585938 0 10.109375-4.527344 10.109375-10.109375s-4.523437-10.109375-10.109375-10.109375zm0 0"/><path d="m501.890625 245.890625h-35.046875c-5.585938 0-10.109375 4.527344-10.109375 10.109375s4.523437 10.109375 10.109375 10.109375h35.046875c5.582031 0 10.109375-4.527344 10.109375-10.109375s-4.527344-10.109375-10.109375-10.109375zm0 0"/><path d="m98.15625 401.132812-24.78125 24.78125c-3.949219 3.949219-3.949219 10.347657 0 14.296876 1.972656 1.976562 4.5625 2.960937 7.148438 2.960937 2.585937 0 5.175781-.984375 7.148437-2.960937l24.78125-24.78125c3.949219-3.949219 3.949219-10.347657 0-14.296876-3.949219-3.949218-10.347656-3.949218-14.296875 0zm0 0"/><path d="m403.480469 120.210938c2.589843 0 5.175781-.988282 7.152343-2.960938l24.78125-24.78125c3.945313-3.949219 3.945313-10.347656 0-14.296875-3.949218-3.949219-10.351562-3.949219-14.300781 0l-24.78125 24.78125c-3.949219 3.945313-3.949219 10.347656 0 14.296875 1.976563 1.976562 4.5625 2.960938 7.148438 2.960938zm0 0"/><path d="m99.324219 119.917969c1.972656 1.972656 4.5625 2.960937 7.148437 2.960937 2.585938 0 5.175782-.988281 7.148438-2.960937 3.949218-3.949219 3.949218-10.351563 0-14.300781l-24.78125-24.78125c-3.949219-3.945313-10.347656-3.945313-14.296875 0-3.949219 3.949218-3.949219 10.351562 0 14.300781zm0 0"/><path d="m411.800781 403.796875c-3.949219-3.949219-10.351562-3.949219-14.300781 0-3.945312 3.945313-3.945312 10.347656 0 14.296875l24.78125 24.78125c1.976562 1.976562 4.5625 2.960938 7.152344 2.960938 2.585937 0 5.171875-.984376 7.148437-2.960938 3.945313-3.945312 3.945313-10.347656 0-14.296875zm0 0"/><path d="m177.410156 405.734375-.511718.117187c-5.433594 1.285157-8.800782 6.730469-7.519532 12.164063 1.101563 4.652344 5.25 7.789063 9.832032 7.789063.769531 0 1.550781-.089844 2.332031-.273438l.511719-.121094c5.433593-1.28125 8.796874-6.726562 7.515624-12.160156s-6.726562-8.804688-12.160156-7.515625zm0 0"/></svg>