<svg height="511pt" viewBox="0 0 511 511.99995" width="511pt" xmlns="http://www.w3.org/2000/svg"><path d="m374.507812 117.992188h-344.007812c-11.046875 0-20 8.953124-20 20v344.007812c0 11.042969 8.953125 20 20 20h344.007812c11.046876 0 20-8.957031 20-20v-344.007812c0-11.046876-8.953124-20-20-20zm0 0" fill="#fff"/><path d="m142.167969 165.992188h204.339843v240.003906h-204.339843zm0 0" fill="#ade5ff"/><path d="m250.042969 246.246094-159.75 159.75h69l125.253906-125.25zm0 0" fill="#fff"/><path d="m284.546875 280.746094-125.253906 125.25h187.214843v-63.289063zm0 0" fill="#36d28f"/><path d="m155.242188 309.257812-96.742188 96.738282h65.667969l63.90625-63.90625zm0 0" fill="#fff"/><path d="m124.167969 405.996094h127.8125l-63.90625-63.90625zm0 0" fill="#b2f0bf"/><path d="m339.824219 40.777344-133.738281 77.214844h178.316406zm0 0" fill="#72d8ff"/><path d="m499.824219 317.910156-105.550781-182.824218c.136718.953124.234374 1.917968.234374 2.90625v263.820312l97.996094-56.578125c9.566406-5.527344 12.84375-17.757813 7.320313-27.324219zm0 0" fill="#72d8ff"/><path d="m168.171875 230.992188c0 12.152343-9.851563 22-22.003906 22-12.148438 0-22-9.847657-22-22 0-12.148438 9.851562-22 22-22 12.152343 0 22.003906 9.851562 22.003906 22zm0 0" fill="#ffb954"/><path d="m374.507812 107.992188h-219.101562l150.097656-86.660157c4.769532-2.757812 10.902344-1.113281 13.660156 3.660157l33.867188 58.664062c2.761719 4.78125 8.878906 6.421875 13.660156 3.65625 4.78125-2.757812 6.421875-8.875 3.660156-13.660156l-33.867187-58.660156c-8.273437-14.324219-26.65625-19.25-40.980469-10.980469l-179.886718 103.855469c-.066407.039062-.125.085937-.191407.125h-84.925781c-16.542969 0-30 13.457031-30 30v344.007812c0 16.542969 13.457031 30 30 30h344.007812c16.542969 0 30-13.457031 30-30v-344.007812c0-16.542969-13.457031-30-30-30zm10 374.007812c0 5.511719-4.488281 10-10 10h-344.007812c-5.511719 0-10-4.488281-10-10v-344.007812c0-5.515626 4.488281-10 10-10h344.007812c5.511719 0 10 4.484374 10 10zm0 0"/><path d="m440.738281 225.574219c2.628907 0 5.207031-1.070313 7.070313-2.929688 1.859375-1.859375 2.929687-4.441406 2.929687-7.070312 0-2.628907-1.070312-5.210938-2.929687-7.070313-1.863282-1.859375-4.441406-2.929687-7.070313-2.929687-2.632812 0-5.210937 1.070312-7.070312 2.929687s-2.929688 4.441406-2.929688 7.070313c0 2.628906 1.066407 5.210937 2.929688 7.070312 1.859375 1.859375 4.441406 2.929688 7.070312 2.929688zm0 0"/><path d="m508.488281 312.910156-41.378906-71.664062c-2.761719-4.78125-8.875-6.421875-13.660156-3.660156-4.78125 2.761718-6.421875 8.878906-3.660157 13.660156l41.378907 71.664062c2.753906 4.777344 1.113281 10.90625-3.660157 13.660156l-64.3125 37.132813c-4.785156 2.757813-6.421874 8.875-3.660156 13.660156 1.851563 3.207031 5.210938 5 8.667969 5 1.699219 0 3.417969-.433593 4.992187-1.339843l64.3125-37.132813c14.324219-8.269531 19.25-26.652344 10.980469-40.980469zm0 0"/><path d="m256.503906 175.992188c2.628906 0 5.210938-1.070313 7.070313-2.929688s2.929687-4.441406 2.929687-7.070312c0-2.628907-1.070312-5.210938-2.929687-7.070313s-4.441407-2.929687-7.070313-2.929687-5.210937 1.070312-7.070312 2.929687-2.929688 4.441406-2.929688 7.070313c0 2.628906 1.070313 5.210937 2.929688 7.070312 1.863281 1.859375 4.441406 2.929688 7.070312 2.929688zm0 0"/><path d="m346.507812 155.992188h-39.003906c-5.519531 0-10 4.476562-10 10 0 5.523437 4.480469 10 10 10h29.003906v142.574218l-79.394531-79.390625c-1.875-1.875-4.417969-2.929687-7.070312-2.929687-2.652344 0-5.195313 1.054687-7.070313 2.929687l-52.976562 52.976563c-3.90625 3.90625-3.90625 10.238281 0 14.140625 3.902344 3.90625 10.234375 3.90625 14.140625 0l45.90625-45.90625 86.390625 86.390625c.023437.023437.050781.042968.074218.066406v49.152344h-253.863281l72.597657-72.597656 53.929687 53.929687c3.90625 3.90625 10.234375 3.90625 14.144531 0 3.902344-3.90625 3.902344-10.238281 0-14.144531l-61.003906-61c-1.875-1.875-4.417969-2.929688-7.070312-2.929688-2.652344 0-5.195313 1.054688-7.070313 2.929688l-79.671875 79.671875v-205.863281h134.003906c5.523438 0 10-4.476563 10-10 0-5.523438-4.476562-10-10-10h-144.003906c-5.519531 0-10 4.476562-10 10v240.003906c0 5.523437 4.480469 10 10 10h288.007812c5.519532 0 10-4.476563 10-10v-240.003906c0-5.523438-4.480468-10-10-10zm0 0"/><path d="m114.167969 230.992188c0 17.644531 14.355469 32 32 32 17.648437 0 32.003906-14.355469 32.003906-32 0-17.644532-14.355469-32-32.003906-32-17.644531 0-32 14.355468-32 32zm44 0c0 6.617187-5.382813 12-12 12-6.617188 0-12-5.382813-12-12 0-6.617188 5.382812-12 12-12 6.617187 0 12 5.382812 12 12zm0 0"/></svg>