<svg height="480pt" viewBox="-24 0 480 480" width="480pt" xmlns="http://www.w3.org/2000/svg"><path d="m424 88v256c0 17.671875-14.328125 32-32 32h-256v-336c0-17.671875 14.328125-32 32-32h176zm0 0" fill="#e6e7e8"/><path d="m424 88v256c0 17.671875-14.328125 32-32 32h-256v-36.320312c113.785156-62.535157 207.179688-156.484376 269.039062-270.640626zm0 0" fill="#d8d7da"/><path d="m360 88h64l-80-80v64c0 8.835938 7.164062 16 16 16zm0 0" fill="#bcbec0"/><path d="m264 264h128v64h-128zm0 0" fill="#bcbec0"/><path d="m240 152v192c-.027344 8.824219-7.175781 15.972656-16 16h-88v-224h88c8.824219.027344 15.972656 7.175781 16 16zm0 0" fill="#d1d3d4"/><path d="m88 120h120c8.835938 0 16 7.164062 16 16v192c0 8.835938-7.164062 16-16 16h-120c-8.835938 0-16-7.164062-16-16v-192c0-8.835938 7.164062-16 16-16zm0 0" fill="#00ccb3"/><path d="m168 120h24v224h-24zm0 0" fill="#787680"/><path d="m64 384c17.671875 0 32-14.328125 32-32 0 17.671875-14.328125 32-32 32zm0 0" fill="#bddbff"/><path d="m168 344v32c0 17.671875-14.328125 32-32 32v16h-112v-162.71875c-.007812-8.492188 3.359375-16.636719 9.359375-22.640625l38.640625-38.640625v72h12.160156l34.078125-34.078125c3.144531-3.121094 8.21875-3.121094 11.363281 0l5.597657 5.597656c6.03125 5.992188 9.417969 14.140625 9.417969 22.640625s-3.386719 16.648438-9.417969 22.640625l-39.199219 39.199219v16zm0 0" fill="#ffdaaa"/><path d="m8 424v48h152v-48zm0 0" fill="#3d9ae2"/><path d="m96 344h72v16h-72zm0 0" fill="#ffc477"/><path d="m429.65625 82.34375-80-80c-1.5-1.5-3.535156-2.34375-5.65625-2.34375h-176c-22.082031.0273438-39.972656 17.917969-40 40v72h-40c-13.253906 0-24 10.746094-24 24v60.6875l-36.28125 36.289062c-7.523438 7.484376-11.746094 17.667969-11.71875 28.28125v154.742188h-8c-4.417969 0-8 3.582031-8 8v48c0 4.417969 3.582031 8 8 8h152c4.417969 0 8-3.582031 8-8v-48c0-4.417969-3.582031-8-8-8h-16v-.800781c15.675781-3.246094 27.914062-15.515625 31.121094-31.199219h216.878906c22.082031-.027344 39.972656-17.917969 40-40v-256c0-2.121094-.84375-4.15625-2.34375-5.65625zm-77.65625-55.03125 52.6875 52.6875h-44.6875c-4.417969 0-8-3.582031-8-8zm-200 404.6875v32h-136v-32zm8-56c0 13.253906-10.746094 24-24 24-4.417969 0-8 3.582031-8 8v8h-96v-154.742188c.015625-6.363281 2.542969-12.460937 7.03125-16.96875l24.96875-24.976562v60.6875h20.160156c2.121094 0 4.15625-.84375 5.65625-2.34375l34.128906-34.070312 5.597657 5.597656c5.550781 5.613281 8.050781 13.558594 6.714843 21.335937-.894531 4.800781-3.222656 9.21875-6.683593 12.664063l-39.199219 39.199218c-1.5 1.484376-2.355469 3.503907-2.375 5.617188v24c0 13.253906-10.746094 24-24 24v16c22.082031-.027344 39.972656-17.917969 40-40h56zm0-40h-56v-4.6875l36.855469-36.855469c5.707031-5.710937 9.5625-13.007812 11.074219-20.9375v-.128906c2.28125-12.941406-1.855469-26.1875-11.097657-35.535156l-5.601562-5.597657c-6.261719-6.257812-16.40625-6.257812-22.671875 0l-31.71875 31.742188h-.839844v-128c0-4.417969 3.582031-8 8-8h72zm256 8c0 13.253906-10.746094 24-24 24h-216v-16h32c13.253906 0 24-10.746094 24-24v-192c0-13.253906-10.746094-24-24-24h-64v-72c0-13.253906 10.746094-24 24-24h168v56c0 13.253906 10.746094 24 24 24h56zm-240-8v-208h8v208zm24 0v-208h8c4.417969 0 8 3.582031 8 8v192c0 4.417969-3.582031 8-8 8zm0 0"/><path d="m176 48h16v16h-16zm0 0"/><path d="m208 48h32v16h-32zm0 0"/><path d="m176 80h64v16h-64zm0 0"/><path d="m256 168h144v16h-144zm0 0"/><path d="m256 208h16v16h-16zm0 0"/><path d="m288 208h112v16h-112zm0 0"/><path d="m368 128h32v16h-32zm0 0"/><path d="m256 128h96v16h-96zm0 0"/><path d="m392 256h-128c-4.417969 0-8 3.582031-8 8v64c0 4.417969 3.582031 8 8 8h128c4.417969 0 8-3.582031 8-8v-64c0-4.417969-3.582031-8-8-8zm-8 64h-112v-48h112zm0 0"/></svg>