<svg xmlns="http://www.w3.org/2000/svg" width="12" height="12" viewBox="0 0 12 12">
    <path fill="#999" d="M1.08 5.426c.508-.509 1.36-.481 1.903.062l.082.088c.21.246.324.542.342.837.337.016.676.158.942.423l.081.089c.25.294.366.66.342 1.011.283.046.56.182.785.407l.082.088c.23.27.346.601.345.925.257.039.51.162.714.366.488.488.513 1.253.055 1.71l-.195.196c-.457.457-1.223.432-1.71-.056-.22-.22-.346-.496-.376-.776-.337-.014-.678-.156-.944-.422l-.082-.089c-.223-.262-.338-.58-.344-.895-.318-.028-.635-.169-.886-.42l-.082-.088c-.236-.277-.352-.618-.345-.95-.3-.037-.597-.175-.835-.414L.872 7.43C.41 6.886.41 6.096.892 5.614zm5.088 4.826c-.125-.124-.3-.165-.45-.119-.029.041-.062.079-.098.115l-.188.187c-.051.052-.106.098-.164.138-.058.154-.02.339.11.469.175.175.45.184.614.02l.196-.195c.164-.165.155-.44-.02-.615zM11.625 0c.184 0 .337.142.369.328L12 .4v4.002c0 .22-.168.4-.375.4-.184 0-.337-.142-.369-.328l-.006-.072V.8H7.593C7.19.8 6.8.94 6.478 1.193l-.117.1L4.086 3.41c-.105.112-.153.27-.13.427.024.156.117.29.25.362.134.07.29.068.42-.005l.062-.042 2.587-2.07.013-.01.021-.014-.034.024c.025-.02.052-.037.08-.05l.023-.008c.014-.006.029-.01.043-.013l.04-.007.03-.002.038.001.04.006.028.006.036.013.043.02.02.013.017.012.024.019.018.017.01.01 3.469 3.702c.509.543.509 1.423 0 1.966-.233.248-.53.383-.835.404.035.395-.09.804-.374 1.107-.338.36-.815.481-1.246.364-.045.265-.164.52-.357.726-.147.156-.384.156-.53 0-.131-.139-.146-.354-.044-.51l.043-.056c.196-.21.214-.537.053-.768l-.053-.067-.002-.002-.852-.909c-.147-.156-.147-.41 0-.566.13-.139.332-.154.478-.046l.052.046 1.145 1.222c.216.23.567.23.782 0 .197-.21.215-.537.054-.768l-.053-.066L8.36 6.686c-.147-.157-.147-.41 0-.566.13-.14.332-.155.478-.047l.052.047 1.037 1.105.07.063c.217.16.515.137.706-.068.197-.21.215-.537.054-.768l-.053-.066-3.239-3.457-2.327 1.863c-.367.293-.858.34-1.268.121-.348-.185-.591-.538-.654-.949-.056-.369.04-.744.275-1.043l.083-.097L5.868.69c.435-.404.98-.644 1.553-.684L7.593 0h4.032zM4.967 8.82c-.16-.123-.364-.158-.54-.1l-.016.021-.291.291c-.06.06-.125.112-.193.158-.097.207-.051.47.13.653l.061.053c.169.13.386.162.568.09.031-.044.067-.085.106-.125l.195-.195c.054-.053.112-.1.173-.14.095-.207.05-.47-.132-.652zM3.758 7.315c-.17-.133-.392-.163-.576-.088-.038.06-.084.115-.136.167l-.188.187c-.07.071-.148.132-.231.182-.112.211-.07.489.118.678l.06.053c.166.128.38.16.56.094.029-.042.063-.08.1-.118l.188-.188c.08-.08.17-.147.264-.2.137-.215.102-.514-.098-.714zM2.393 5.966c-.23-.179-.55-.172-.748.026l-.188.188c-.215.216-.204.577.027.808l.06.053c.161.125.368.159.545.1l.064-.075.291-.291c.048-.048.099-.09.152-.13.081-.202.032-.452-.142-.626zM4.163 0c.129 0 .257.009.385.026.205.029.35.23.324.448-.027.22-.214.374-.42.346L4.308.805 4.162.8H.75v3.602c0 .22-.168.4-.375.4-.184 0-.337-.142-.369-.328L0 4.402V.4C0 .204.133.04.308.006L.375 0h3.788z"/>
</svg>
