<svg xmlns="http://www.w3.org/2000/svg" width="12" height="12" viewBox="0 0 12 12">
    <path fill="#999" d="M7.875 0c1.81 0 3.289 1.426 3.371 3.216l.004.159V5.29c.464.474.75 1.125.75 1.846l-.004.143c-.08 1.384-1.228 2.471-2.62 2.471h-.75c-.208 0-.376-.168-.376-.375v-4.5c0-.207.168-.375.375-.375h.75c.403 0 .785.09 1.126.253V3.375C10.5 1.974 9.4.829 8.018.754L7.875.75h-3.75C2.724.75 1.58 1.848 1.504 3.231l-.004.144v1.378c.341-.162.722-.253 1.125-.253h.75c.207 0 .375.168.375.375v4.5c0 .207-.168.375-.375.375h-.75c-.127 0-.252-.01-.374-.027l-.001.402c0 .585.446 1.065 1.017 1.12l.108.005h3.75c.207 0 .375.168.375.375 0 .184-.133.337-.307.369L7.125 12h-3.75c-.994 0-1.808-.773-1.871-1.752l-.004-.123v-.628C.66 9.097.061 8.26.004 7.268L0 7.125c0-.716.286-1.364.75-1.838V3.375C.75 1.565 2.176.087 3.966.004L4.126 0h3.75zM3 5.25h-.375c-.994 0-1.808.774-1.871 1.742l-.004.122.003.122C.81 8.224 1.63 9 2.625 9H3V5.25zm6.375 0H9V9h.375c.995 0 1.815-.776 1.871-1.754l.004-.121c0-1.036-.84-1.875-1.875-1.875z"/>
</svg>
