<svg xmlns="http://www.w3.org/2000/svg" width="13" height="13" viewBox="0 0 13 13">
    <path fill="#fff" d="M10.25 0c.245 0 .45.177.492.41l.008.09V8c0 .276-.224.5-.5.5-.245 0-.45-.177-.492-.41L9.75 8V1H1v9.25c0 .513.386.936.883.993L2 11.25c.513 0 .936-.386.993-.883L3 10.25V9.5c0-.245.177-.45.41-.492L3.5 9h8.25c.245 0 .45.177.492.41l.008.09v.375c0 1.257-.976 2.286-2.212 2.37l-.163.005H2c-1.055 0-1.918-.816-1.995-1.85L0 10.25V.5C0 .255.177.05.41.008L.5 0h9.75zm.993 10H4v.25c0 .352-.09.682-.25.969l-.019.031h6.144c.67 0 1.228-.48 1.35-1.114l.018-.136zM8 6.75c.276 0 .5.224.5.5 0 .245-.177.45-.41.492L8 7.75H2.75c-.276 0-.5-.224-.5-.5 0-.245.177-.45.41-.492l.09-.008H8zM8 4.5c.276 0 .5.224.5.5 0 .245-.177.45-.41.492L8 5.5H2.75c-.276 0-.5-.224-.5-.5 0-.245.177-.45.41-.492l.09-.008H8zm0-2.25c.276 0 .5.224.5.5 0 .245-.177.45-.41.492L8 3.25H2.75c-.276 0-.5-.224-.5-.5 0-.245.177-.45.41-.492l.09-.008H8z"/>
</svg>
