<svg xmlns="http://www.w3.org/2000/svg" width="11" height="12" viewBox="0 0 11 12">
    <path fill="#999" d="M3 2c.245 0 .45.177.492.41l.008.09v9c0 .276-.224.5-.5.5-.245 0-.45-.177-.492-.41L2.5 11.5v-9c0-.276.224-.5.5-.5zm2.5 3c.245 0 .45.177.492.41L6 5.5v6c0 .276-.224.5-.5.5-.245 0-.45-.177-.492-.41L5 11.5v-6c0-.276.224-.5.5-.5zm5 0c.245 0 .45.177.492.41L11 5.5v6c0 .276-.224.5-.5.5-.245 0-.45-.177-.492-.41L10 11.5v-6c0-.276.224-.5.5-.5zM8 2c.245 0 .45.177.492.41l.008.09v9c0 .276-.224.5-.5.5-.245 0-.45-.177-.492-.41L7.5 11.5v-9c0-.276.224-.5.5-.5zM.5 0c.245 0 .45.163.492.379L1 .462v11.076C1 11.793.776 12 .5 12c-.245 0-.45-.163-.492-.379L0 11.538V.462C0 .207.224 0 .5 0z"/>
</svg>
