<svg xmlns="http://www.w3.org/2000/svg" width="14" height="8" viewBox="0 0 14 8">
    <path fill="#999" d="M12.625.875h.012c.02 0 .041.002.062.005l-.074-.005c.036 0 .071.004.105.011l.046.012.04.015c.014.005.027.012.04.019.013.006.025.013.036.02l.035.025c.014.01.027.02.04.033l.012.011.011.013c.012.012.023.025.033.039l-.044-.052c.026.027.05.056.069.087l.02.035.02.041.014.04c.005.015.009.03.012.046l.003.015.003.018.005.052v4.52c0 .276-.224.5-.5.5-.245 0-.45-.177-.492-.41l-.008-.09V2.581L7.729 6.979c-.174.173-.443.192-.638.057l-.07-.057-2.646-2.647-2.646 2.647c-.174.173-.443.192-.638.057l-.07-.057C.848 6.805.83 6.536.964 6.34l.057-.07 3-3c.174-.173.443-.192.638-.057l.07.057 2.646 2.647 4.042-4.043H8.125c-.245 0-.45-.177-.492-.41l-.008-.09c0-.245.177-.45.41-.492l.09-.008h4.5z"/>
</svg>
