<?xml version="1.0" standalone="no"?>
<!DOCTYPE svg PUBLIC "-//W3C//DTD SVG 1.1//EN" "http://www.w3.org/Graphics/SVG/1.1/DTD/svg11.dtd" >
<svg xmlns="http://www.w3.org/2000/svg" xmlns:xlink="http://www.w3.org/1999/xlink" version="1.1">
<metadata>
Created by FontForge 20160405 at Fri Mar 30 04:10:24 2018
 By Apache
2010 Albert-Jan Pool published by FSI FontShop International GmbH
</metadata>
<defs>
<font id="DINRoundOTLight" horiz-adv-x="1028" >
  <font-face 
    font-family="DINRoundOT Light"
    font-weight="350"
    font-stretch="normal"
    units-per-em="2000"
    panose-1="2 11 5 4 2 1 1 1 1 2"
    ascent="1600"
    descent="-400"
    x-height="964"
    cap-height="1432"
    bbox="-201.592 -472 2198 2000"
    underline-thickness="80"
    underline-position="-282"
    stemh="92"
    stemv="104"
    unicode-range="U+000D-FB02"
  />
<missing-glyph horiz-adv-x="1134" 
d="M876 0h-618c-16 0 -34 0 -49 15s-15 33 -15 49v1296c0 16 0 34 15 49s33 15 49 15h618c16 0 34 0 49 -15s15 -33 15 -49v-1296c0 -16 0 -34 -15 -49s-33 -15 -49 -15zM832 96v1232h-530v-1232h530z" />
    <glyph glyph-name=".notdef" horiz-adv-x="1134" 
d="M876 0h-618c-16 0 -34 0 -49 15s-15 33 -15 49v1296c0 16 0 34 15 49s33 15 49 15h618c16 0 34 0 49 -15s15 -33 15 -49v-1296c0 -16 0 -34 -15 -49s-33 -15 -49 -15zM832 96v1232h-530v-1232h530z" />
    <glyph glyph-name=".null" horiz-adv-x="0" 
 />
    <glyph glyph-name=".null" horiz-adv-x="0" 
 />
    <glyph glyph-name="CR" unicode="&#xd;" horiz-adv-x="510" 
 />
    <glyph glyph-name="space" unicode=" " horiz-adv-x="510" 
 />
    <glyph glyph-name="exclam" unicode="!" horiz-adv-x="608" 
d="M280 451v906c0 31 3 41 12 55c9 13 23 20 42 20s33 -7 42 -20c9 -14 12 -24 12 -55v-906c0 -31 -3 -41 -12 -55c-9 -13 -23 -20 -42 -20s-33 7 -42 20c-9 14 -12 24 -12 55zM334 -6c-44 0 -80 36 -80 80s36 80 80 80s80 -36 80 -80s-36 -80 -80 -80z" />
    <glyph glyph-name="quotedbl" unicode="&#x22;" horiz-adv-x="743" 
d="M164 1148v218c0 27 3 38 11 50s24 20 41 20s33 -8 41 -20s11 -23 11 -50v-218c0 -27 -3 -38 -11 -50s-24 -20 -41 -20s-33 8 -41 20s-11 23 -11 50zM475 1148v218c0 27 3 38 11 50s24 20 41 20s33 -8 41 -20s11 -23 11 -50v-218c0 -27 -3 -38 -11 -50s-24 -20 -41 -20
s-33 8 -41 20s-11 23 -11 50z" />
    <glyph glyph-name="numbersign" unicode="#" horiz-adv-x="1278" 
d="M1093 522c0 -15 -6 -27 -18 -36c-10 -7 -22 -10 -46 -10h-172l-85 -425c-5 -25 -11 -37 -22 -47c-9 -8 -20 -12 -33 -12c-12 0 -25 5 -34 14c-15 15 -18 30 -11 65l81 405h-323l-85 -425c-5 -25 -11 -37 -22 -47c-9 -8 -20 -12 -33 -12c-12 0 -25 5 -34 14
c-15 15 -18 30 -11 65l81 405h-135c-24 0 -36 3 -46 10c-12 9 -18 21 -18 36s6 27 18 36c10 7 22 10 46 10h153l62 306h-156c-24 0 -36 3 -46 10c-12 9 -18 21 -18 36s6 27 18 36c10 7 22 10 46 10h174l81 407c5 25 11 37 22 47c9 8 20 12 33 12c12 0 25 -5 34 -14
c15 -15 18 -30 11 -65l-77 -387h323l81 407c5 25 11 37 22 47c9 8 20 12 33 12c12 0 25 -5 34 -14c15 -15 18 -30 11 -65l-77 -387h133c24 0 36 -3 46 -10c12 -9 18 -21 18 -36s-6 -27 -18 -36c-10 -7 -22 -10 -46 -10h-151l-62 -306h154c24 0 36 -3 46 -10
c12 -9 18 -21 18 -36zM771 568l62 306h-323l-62 -306h323z" />
    <glyph glyph-name="dollar" unicode="$" horiz-adv-x="1174" 
d="M529 -172v161c-144 6 -258 41 -375 138c-21 17 -38 36 -38 58c0 14 4 27 15 38c10 10 23 15 36 15c20 0 37 -14 57 -30c102 -84 184 -116 305 -123v590l-31 5c-113 18 -182 45 -254 105c-75 63 -112 151 -112 261c0 224 151 372 397 388v122c0 24 3 36 10 46
c9 12 21 18 36 18s27 -6 36 -18c7 -10 10 -22 10 -46v-121c125 -6 210 -39 311 -110c22 -16 40 -34 40 -56c0 -13 -3 -22 -11 -31c-10 -12 -21 -17 -37 -17s-35 11 -57 27c-89 63 -151 87 -246 93v-580l57 -9c134 -21 196 -44 256 -94c78 -64 122 -162 122 -276
c0 -228 -166 -378 -435 -393v-161c0 -24 -3 -36 -10 -46c-9 -12 -21 -18 -36 -18s-27 6 -36 18c-7 10 -10 22 -10 46zM664 654l-43 7v-576c201 12 327 118 327 293c0 84 -26 155 -78 200s-91 57 -206 76zM312 862c58 -48 108 -69 211 -86l6 -1v566
c-183 -13 -291 -123 -291 -291c0 -82 24 -146 74 -188z" />
    <glyph glyph-name="percent" unicode="%" horiz-adv-x="1656" 
d="M461 65l665 1330c8 17 16 28 26 33c5 3 11 4 16 4c6 0 13 -2 19 -5c11 -6 19 -14 21 -27c2 -11 -1 -24 -10 -41l-665 -1330c-8 -17 -16 -28 -26 -33c-5 -3 -11 -4 -16 -4c-6 0 -13 2 -19 5c-11 6 -19 14 -21 27c-2 11 1 24 10 41zM576 958v206c0 120 -48 196 -174 196
s-176 -76 -176 -196v-206c0 -120 50 -194 176 -194s174 74 174 194zM664 1168v-214c0 -160 -106 -266 -262 -266s-264 106 -264 266v214c0 160 108 268 264 268s262 -108 262 -268zM1430 258v206c0 120 -48 196 -174 196s-176 -76 -176 -196v-206c0 -120 50 -194 176 -194
s174 74 174 194zM1518 468v-214c0 -160 -106 -266 -262 -266s-264 106 -264 266v214c0 160 108 268 264 268s262 -108 262 -268z" />
    <glyph glyph-name="ampersand" unicode="&#x26;" horiz-adv-x="1454" 
d="M1160 32l-112 136c-54 -54 -204 -180 -438 -180c-262 0 -442 164 -442 406c0 218 148 322 326 442c-74 90 -158 192 -158 316c0 160 130 284 290 284s290 -126 290 -286c0 -118 -74 -194 -164 -256l-106 -72l408 -494c58 86 74 158 82 292c2 34 6 49 14 61s22 19 40 19
c16 0 30 -5 40 -19c8 -11 12 -27 12 -56c0 -62 -10 -131 -30 -199c-18 -62 -47 -123 -92 -178l124 -148c21 -25 28 -40 28 -58c0 -13 -7 -28 -20 -38c-10 -8 -22 -12 -32 -12c-20 0 -36 11 -60 40zM584 894l34 22c114 74 192 134 192 234c0 110 -80 190 -184 190
s-182 -78 -182 -184c0 -72 28 -130 140 -262zM988 242l-432 522c-150 -100 -280 -190 -280 -364c0 -186 134 -316 332 -316c114 0 236 30 380 158z" />
    <glyph glyph-name="quotesingle" unicode="'" horiz-adv-x="432" 
d="M164 1148v218c0 27 3 38 11 50s24 20 41 20s33 -8 41 -20s11 -23 11 -50v-218c0 -27 -3 -38 -11 -50s-24 -20 -41 -20s-33 8 -41 20s-11 23 -11 50z" />
    <glyph glyph-name="parenleft" unicode="(" horiz-adv-x="568" 
d="M200 158v1108c0 64 6 124 38 186c23 45 53 83 90 120c19 19 33 30 52 30c13 0 25 -5 34 -14c10 -10 14 -22 14 -34c0 -18 -10 -32 -30 -52c-23 -23 -51 -58 -66 -90c-22 -46 -28 -96 -28 -158v-1084c0 -62 6 -112 28 -158c15 -32 43 -67 66 -90c20 -20 30 -34 30 -52
c0 -12 -4 -24 -14 -34c-9 -9 -21 -14 -34 -14c-19 0 -33 11 -52 30c-37 37 -67 75 -90 120c-32 62 -38 122 -38 186z" />
    <glyph glyph-name="parenright" unicode=")" horiz-adv-x="568" 
d="M368 1266v-1108c0 -64 -6 -124 -38 -186c-23 -45 -53 -83 -90 -120c-19 -19 -33 -30 -52 -30c-13 0 -25 5 -34 14c-10 10 -14 22 -14 34c0 18 10 32 30 52c23 23 51 58 66 90c22 46 28 96 28 158v1084c0 62 -6 112 -28 158c-15 32 -43 67 -66 90c-20 20 -30 34 -30 52
c0 12 4 24 14 34c9 9 21 14 34 14c19 0 33 -11 52 -30c37 -37 67 -75 90 -120c32 -62 38 -122 38 -186z" />
    <glyph glyph-name="asterisk" unicode="*" horiz-adv-x="952" 
d="M198 969l198 119l-198 119c-16 10 -26 19 -30 29c-5 13 -4 24 3 35s15 17 29 19c11 1 23 -3 40 -13l196 -118v229c0 19 2 32 9 41c8 11 18 15 31 15s23 -4 31 -15c7 -9 9 -22 9 -41v-229l196 118c17 10 29 14 40 13c14 -2 22 -8 29 -19s8 -22 3 -35
c-4 -10 -14 -19 -30 -29l-199 -119l199 -119c16 -10 26 -19 30 -29c5 -13 4 -24 -3 -35s-15 -17 -29 -19c-11 -1 -23 3 -40 13l-196 117v-228c0 -19 -2 -32 -9 -41c-8 -11 -18 -15 -31 -15s-23 4 -31 15c-7 9 -9 22 -9 41v228l-196 -117c-17 -10 -29 -14 -40 -13
c-14 2 -22 8 -29 19s-8 22 -3 35c4 10 14 19 30 29z" />
    <glyph glyph-name="plus" unicode="+" 
d="M866 481h-306v-306c0 -24 -3 -36 -10 -46c-9 -12 -21 -18 -36 -18s-27 6 -36 18c-7 10 -10 22 -10 46v306h-306c-24 0 -36 3 -46 10c-12 9 -18 21 -18 36s6 27 18 36c10 7 22 10 46 10h306v306c0 24 3 36 10 46c9 12 21 18 36 18s27 -6 36 -18c7 -10 10 -22 10 -46v-306
h306c24 0 36 -3 46 -10c12 -9 18 -21 18 -36s-6 -27 -18 -36c-10 -7 -22 -10 -46 -10z" />
    <glyph glyph-name="comma" unicode="," horiz-adv-x="449" 
d="M277 92l-88 -264c-8 -24 -13 -34 -24 -43c-9 -7 -20 -10 -31 -10c-24 0 -44 15 -50 35c-4 14 -2 27 6 51l88 264c8 24 13 34 24 43c9 7 20 10 31 10c24 0 44 -15 50 -35c4 -14 2 -27 -6 -51z" />
    <glyph glyph-name="hyphen" unicode="-" horiz-adv-x="852" 
d="M632 481h-412c-24 0 -36 3 -46 10c-12 9 -18 21 -18 36s6 27 18 36c10 7 22 10 46 10h412c24 0 36 -3 46 -10c12 -9 18 -21 18 -36s-6 -27 -18 -36c-10 -7 -22 -10 -46 -10z" />
    <glyph glyph-name="period" unicode="." horiz-adv-x="528" 
d="M264 -6c-51 0 -92 41 -92 92s41 92 92 92s92 -41 92 -92s-41 -92 -92 -92z" />
    <glyph glyph-name="slash" unicode="/" horiz-adv-x="676" 
d="M23 -72l534 1600c11 33 26 52 54 52c23 0 40 -13 47 -32c5 -14 3 -28 -5 -52l-534 -1600c-11 -33 -26 -52 -54 -52c-23 0 -40 13 -47 32c-5 14 -3 28 5 52z" />
    <glyph glyph-name="zero" unicode="0" 
d="M888 1056v-688c0 -222 -154 -380 -374 -380s-374 158 -374 380v688c0 222 154 380 374 380s374 -158 374 -380zM784 367v690c0 162 -94 287 -270 287s-270 -125 -270 -287v-690c0 -162 94 -287 270 -287s270 125 270 287z" />
    <glyph glyph-name="one" unicode="1" 
d="M524 62v1220l-181 -181c-20 -20 -30 -26 -42 -28c-16 -2 -30 3 -41 14s-15 24 -13 40c2 12 8 22 28 42l233 233c21 21 38 30 61 30c17 0 31 -6 42 -17c14 -14 17 -33 17 -63v-1290c0 -27 -3 -38 -11 -50s-24 -20 -41 -20s-33 8 -41 20s-11 23 -11 50z" />
    <glyph glyph-name="two" unicode="2" 
d="M842 0h-618c-42 0 -64 0 -80 16c-7 8 -12 19 -12 32c0 17 12 37 35 68l536 707c60 80 92 156 92 259c0 156 -97 262 -269 262c-120 0 -239 -56 -270 -211c-6 -30 -9 -47 -20 -63c-8 -12 -20 -20 -40 -20c-16 0 -30 6 -38 18s-10 24 -10 37c0 49 28 153 102 227
c65 65 158 104 276 104c227 0 373 -134 373 -354c0 -121 -38 -209 -113 -308l-518 -682h574c24 0 36 -3 46 -10c12 -9 18 -21 18 -36s-6 -27 -18 -36c-10 -7 -22 -10 -46 -10z" />
    <glyph glyph-name="three" unicode="3" 
d="M664 736c144 -42 232 -157 232 -354c0 -238 -190 -394 -413 -394c-150 0 -234 38 -303 107c-53 53 -89 129 -89 209c0 24 4 43 16 55c9 9 20 14 35 14c13 0 24 -4 32 -12c10 -10 16 -22 20 -52c22 -163 127 -229 289 -229c170 0 309 117 309 302c0 191 -100 302 -300 302
c-24 0 -36 3 -46 10c-12 9 -18 21 -18 36s6 27 18 36c10 7 22 10 46 10c187 0 274 113 274 287c0 176 -117 281 -276 281c-144 0 -237 -61 -266 -206c-7 -35 -13 -47 -23 -57c-8 -8 -20 -13 -34 -13c-15 0 -27 6 -36 17c-8 10 -12 22 -12 42c0 73 43 156 97 210
c69 69 155 99 274 99c219 0 380 -142 380 -373c0 -150 -62 -267 -206 -327z" />
    <glyph glyph-name="four" unicode="4" 
d="M69 278c0 10 3 22 12 40l534 1068c12 24 19 33 31 40c7 4 15 6 24 6c22 0 45 -18 45 -45c0 -12 -4 -24 -14 -44l-510 -1019h459v390c0 27 3 38 11 50s24 20 41 20s33 -8 41 -20s11 -23 11 -50v-390h132c24 0 36 -3 46 -10c12 -9 18 -21 18 -36s-6 -27 -18 -36
c-10 -7 -22 -10 -46 -10h-132v-170c0 -27 -3 -38 -11 -50s-24 -20 -41 -20s-33 8 -41 20s-11 23 -11 50v170h-519c-20 0 -31 2 -41 8c-13 8 -21 23 -21 38z" />
    <glyph glyph-name="five" unicode="5" 
d="M814 1332h-538v-498c68 72 144 105 270 105c102 0 184 -30 240 -86c100 -100 118 -251 118 -385c0 -136 -10 -276 -112 -378c-66 -66 -156 -102 -274 -102c-119 0 -207 29 -276 98c-54 54 -95 138 -95 211c0 20 4 32 12 42c9 11 22 17 37 17c14 0 26 -5 34 -13
c10 -10 16 -22 23 -57c29 -145 121 -206 265 -206c78 0 150 25 196 71c84 84 86 211 86 317c0 175 -32 379 -266 379c-107 0 -187 -29 -246 -119c-7 -11 -15 -21 -24 -29c-8 -7 -21 -10 -32 -10c-8 0 -24 3 -34 13c-11 11 -14 27 -14 47v613c0 13 0 34 14 48s32 14 48 14
h568c24 0 36 -3 46 -10c12 -9 18 -21 18 -36s-6 -27 -18 -36c-10 -7 -22 -10 -46 -10z" />
    <glyph glyph-name="six" unicode="6" 
d="M221 686l349 700c12 24 19 33 31 40c7 4 15 6 24 6c22 0 45 -18 45 -45c0 -12 -4 -24 -14 -44l-286 -573c45 19 98 30 158 30c236 0 370 -176 370 -398c0 -228 -136 -414 -378 -414s-380 168 -380 400c0 92 23 180 81 298zM518 80c168 0 276 124 276 314
c0 170 -94 314 -276 314c-168 0 -274 -122 -274 -314c0 -190 106 -314 274 -314z" />
    <glyph glyph-name="seven" unicode="7" 
d="M911 1316l-477 -1273c-10 -27 -17 -37 -27 -44c-8 -5 -15 -7 -23 -7c-23 0 -44 13 -49 34c-3 12 -2 24 8 51l470 1255h-539v-160c0 -27 -3 -38 -11 -50s-24 -20 -41 -20s-33 8 -41 20s-11 23 -11 50v190c0 13 0 34 14 48s32 14 48 14h614c38 0 53 -2 67 -15
c9 -9 14 -18 14 -34c0 -15 -7 -35 -16 -59z" />
    <glyph glyph-name="eight" unicode="8" 
d="M696 741c136 -72 226 -190 226 -355c0 -226 -176 -398 -408 -398s-408 172 -408 398c0 165 92 283 228 355c-126 68 -198 177 -198 322c0 212 154 373 378 373s378 -161 378 -373c0 -145 -70 -254 -196 -322zM514 782c158 0 274 114 274 281c0 161 -112 281 -274 281
s-274 -119 -274 -281s112 -281 274 -281zM818 386c0 176 -132 306 -304 306s-304 -130 -304 -306s132 -306 304 -306s304 130 304 306z" />
    <glyph glyph-name="nine" unicode="9" 
d="M807 738l-349 -700c-12 -24 -19 -33 -31 -40c-7 -4 -15 -6 -24 -6c-22 0 -45 18 -45 45c0 12 4 24 14 44l286 573c-45 -19 -98 -30 -158 -30c-236 0 -370 176 -370 398c0 228 136 414 378 414s380 -168 380 -400c0 -92 -23 -180 -81 -298zM510 1344
c-168 0 -276 -124 -276 -314c0 -170 94 -314 276 -314c168 0 274 122 274 314c0 190 -106 314 -274 314z" />
    <glyph glyph-name="colon" unicode=":" horiz-adv-x="584" 
d="M320 -6c-51 0 -92 41 -92 92s41 92 92 92s92 -41 92 -92s-41 -92 -92 -92zM320 594c-51 0 -92 41 -92 92s41 92 92 92s92 -41 92 -92s-41 -92 -92 -92z" />
    <glyph glyph-name="semicolon" unicode=";" horiz-adv-x="584" 
d="M396 92l-88 -264c-8 -24 -13 -34 -24 -43c-9 -7 -20 -10 -31 -10c-24 0 -44 15 -50 35c-4 14 -2 27 6 51l88 264c8 24 13 34 24 43c9 7 20 10 31 10c24 0 44 -15 50 -35c4 -14 2 -27 -6 -51zM350 594c-51 0 -92 41 -92 92s41 92 92 92s92 -41 92 -92s-41 -92 -92 -92z
" />
    <glyph glyph-name="less" unicode="&#x3c;" 
d="M193 527c0 46 36 65 86 90l460 232c20 10 32 14 44 14c27 0 45 -23 45 -45c0 -9 -2 -17 -6 -24c-7 -12 -16 -19 -40 -31l-469 -236l469 -236c24 -12 33 -19 40 -31c4 -7 6 -15 6 -24c0 -22 -18 -45 -45 -45c-12 0 -24 4 -44 14l-460 232c-50 25 -86 44 -86 90z" />
    <glyph glyph-name="equal" unicode="=" 
d="M866 634h-704c-24 0 -36 3 -46 10c-12 9 -18 21 -18 36s6 27 18 36c10 7 22 10 46 10h704c24 0 36 -3 46 -10c12 -9 18 -21 18 -36s-6 -27 -18 -36c-10 -7 -22 -10 -46 -10zM866 326h-704c-24 0 -36 3 -46 10c-12 9 -18 21 -18 36s6 27 18 36c10 7 22 10 46 10h704
c24 0 36 -3 46 -10c12 -9 18 -21 18 -36s-6 -27 -18 -36c-10 -7 -22 -10 -46 -10z" />
    <glyph glyph-name="greater" unicode="&#x3e;" 
d="M835 527c0 -46 -36 -65 -86 -90l-460 -232c-20 -10 -32 -14 -44 -14c-27 0 -45 23 -45 45c0 9 2 17 6 24c7 12 16 19 40 31l469 236l-469 236c-24 12 -33 19 -40 31c-4 7 -6 15 -6 24c0 22 18 45 45 45c12 0 24 -4 44 -14l460 -232c50 -25 86 -44 86 -90z" />
    <glyph glyph-name="question" unicode="?" horiz-adv-x="976" 
d="M532 -6c-44 0 -80 36 -80 80s36 80 80 80s80 -36 80 -80s-36 -80 -80 -80zM878 1084c0 -92 -37 -162 -88 -238l-168 -248c-33 -48 -38 -98 -38 -154c0 -27 -3 -38 -11 -50s-24 -20 -41 -20s-33 8 -41 20s-11 23 -11 50c0 91 6 132 58 208l168 248c40 60 68 108 68 184
c0 148 -110 262 -256 262c-65 0 -131 -20 -180 -68c-44 -42 -67 -100 -75 -160c-2 -17 -5 -35 -13 -48c-8 -12 -20 -20 -44 -20c-12 0 -28 6 -36 18s-10 24 -10 38c0 81 41 170 97 228c63 64 153 102 261 102c204 0 360 -152 360 -352z" />
    <glyph glyph-name="at" unicode="@" horiz-adv-x="1394" 
d="M1242 1014v-952c0 -27 -3 -38 -11 -50s-24 -20 -41 -20s-33 8 -41 20s-11 23 -11 50v62c-84 -112 -178 -136 -286 -136c-100 0 -186 34 -236 84c-98 98 -126 258 -126 410s28 312 126 410c50 50 136 84 236 84c108 0 202 -24 286 -136v170c0 118 -20 176 -82 238
c-58 58 -126 84 -226 84h-266c-100 0 -168 -26 -226 -84c-62 -62 -82 -120 -82 -238v-696c0 -134 24 -162 80 -218c18 -18 32 -32 32 -52c0 -15 -4 -27 -15 -38s-23 -15 -38 -15c-20 0 -35 13 -53 31c-72 72 -110 134 -110 292v700c0 126 40 230 110 302
c68 70 164 108 282 108h306c116 0 214 -38 282 -108c70 -72 110 -176 110 -302zM866 78c236 0 272 204 272 404s-36 404 -272 404s-272 -204 -272 -404s36 -404 272 -404z" />
    <glyph glyph-name="A" unicode="A" horiz-adv-x="1204" 
d="M61 85l478 1280c9 24 14 35 21 45c9 13 23 22 42 22s33 -9 42 -22c7 -10 12 -21 21 -45l478 -1280c11 -28 17 -56 -4 -77c-10 -10 -25 -16 -41 -16c-9 0 -18 3 -26 8c-13 9 -19 19 -30 47l-113 299h-654l-113 -299c-11 -28 -17 -38 -30 -47c-8 -5 -17 -8 -26 -8
c-16 0 -31 6 -41 16c-21 21 -15 49 -4 77zM895 442l-293 807l-293 -807h586z" />
    <glyph glyph-name="B" unicode="B" horiz-adv-x="1342" 
d="M760 0h-476c-16 0 -34 0 -49 15s-15 33 -15 49v1295c0 17 0 35 15 50s33 15 50 15h459c236 0 412 -136 412 -372c0 -148 -84 -274 -222 -320c154 -52 244 -180 244 -344c0 -254 -166 -388 -418 -388zM328 776h404c172 0 316 80 316 276s-144 276 -316 276h-404v-552z
M328 96h420c194 0 322 110 322 292s-128 292 -322 292h-420v-584z" />
    <glyph glyph-name="C" unicode="C" horiz-adv-x="1288" 
d="M164 712c0 346 10 456 142 588c84 84 204 136 346 136c190 0 311 -82 391 -186c49 -64 81 -151 81 -193c0 -17 -4 -29 -14 -39s-23 -14 -35 -14c-16 0 -26 5 -35 14c-11 11 -19 29 -26 51c-52 167 -182 271 -362 271c-104 0 -196 -36 -270 -110
c-102 -102 -110 -218 -110 -518s8 -416 110 -518c74 -74 166 -110 270 -110c180 0 310 104 362 271c7 22 15 40 26 51c9 9 19 14 35 14c12 0 25 -4 35 -14s14 -22 14 -39c0 -42 -32 -129 -81 -193c-80 -104 -201 -186 -391 -186c-142 0 -262 52 -346 136
c-132 132 -142 242 -142 588z" />
    <glyph glyph-name="D" unicode="D" horiz-adv-x="1356" 
d="M698 0h-414c-16 0 -34 0 -49 15s-15 33 -15 49v1296c0 16 0 34 15 49s33 15 49 15h414c150 0 270 -44 356 -130c136 -136 138 -370 138 -582s-2 -446 -138 -582c-86 -86 -206 -130 -356 -130zM328 96h344c114 0 224 24 306 110c106 112 106 318 106 506s0 394 -106 506
c-82 86 -192 110 -306 110h-344v-1232z" />
    <glyph glyph-name="E" unicode="E" horiz-adv-x="1196" 
d="M1023 0h-739c-16 0 -34 0 -49 15s-15 33 -15 49v1296c0 16 0 34 15 49s33 15 49 15h739c28 0 40 -3 50 -10c13 -10 19 -22 19 -38s-6 -28 -19 -38c-10 -7 -22 -10 -50 -10h-695v-562h583c28 0 40 -3 50 -10c13 -10 19 -22 19 -38s-6 -28 -19 -38c-10 -7 -22 -10 -50 -10
h-583v-574h695c28 0 40 -3 50 -10c13 -10 19 -22 19 -38s-6 -28 -19 -38c-10 -7 -22 -10 -50 -10z" />
    <glyph glyph-name="F" unicode="F" horiz-adv-x="1152" 
d="M220 67v1293c0 16 0 34 15 49s33 15 49 15h739c28 0 40 -3 50 -10c13 -10 19 -22 19 -38s-6 -28 -19 -38c-10 -7 -22 -10 -50 -10h-695v-586h583c28 0 40 -3 50 -10c13 -10 19 -22 19 -38s-6 -28 -19 -38c-10 -7 -22 -10 -50 -10h-583v-579c0 -31 -3 -41 -12 -55
c-9 -13 -23 -20 -42 -20s-33 7 -42 20c-9 14 -12 24 -12 55z" />
    <glyph glyph-name="G" unicode="G" horiz-adv-x="1306" 
d="M164 712c0 346 10 456 142 588c84 84 204 136 346 136c190 0 311 -82 391 -186c49 -64 81 -151 81 -193c0 -17 -4 -29 -14 -39s-23 -14 -35 -14c-16 0 -26 5 -35 14c-11 11 -19 29 -26 51c-52 167 -182 271 -362 271c-104 0 -196 -36 -270 -110
c-102 -102 -110 -218 -110 -518s8 -416 110 -518c74 -74 166 -110 270 -110s196 36 270 110c92 92 110 198 110 438h-319c-28 0 -40 3 -50 10c-13 10 -19 22 -19 38s6 28 19 38c10 7 22 10 50 10h365c16 0 34 0 48 -14s14 -36 14 -48v-34c-2 -284 -21 -387 -142 -508
c-84 -84 -204 -136 -346 -136s-262 52 -346 136c-132 132 -142 242 -142 588z" />
    <glyph glyph-name="H" unicode="H" horiz-adv-x="1398" 
d="M1178 67c0 -31 -3 -41 -12 -55c-9 -13 -23 -20 -42 -20s-33 7 -42 20c-9 14 -12 24 -12 55v603h-742v-603c0 -31 -3 -41 -12 -55c-9 -13 -23 -20 -42 -20s-33 7 -42 20c-9 14 -12 24 -12 55v1290c0 31 3 41 12 55c9 13 23 20 42 20s33 -7 42 -20c9 -14 12 -24 12 -55
v-591h742v591c0 31 3 41 12 55c9 13 23 20 42 20s33 -7 42 -20c9 -14 12 -24 12 -55v-1290z" />
    <glyph glyph-name="I" unicode="I" horiz-adv-x="548" 
d="M220 67v1290c0 31 3 41 12 55c9 13 23 20 42 20s33 -7 42 -20c9 -14 12 -24 12 -55v-1290c0 -31 -3 -41 -12 -55c-9 -13 -23 -20 -42 -20s-33 7 -42 20c-9 14 -12 24 -12 55z" />
    <glyph glyph-name="J" unicode="J" horiz-adv-x="978" 
d="M670 442v915c0 31 3 41 12 55c9 13 23 20 42 20s33 -7 42 -20c9 -14 12 -24 12 -55v-937c0 -260 -166 -432 -424 -432c-108 0 -188 26 -270 84c-17 12 -32 29 -32 51c0 14 3 24 12 35c10 12 22 18 37 18c16 0 28 -7 59 -30c61 -45 116 -62 194 -62c206 0 316 128 316 358
z" />
    <glyph glyph-name="K" unicode="K" horiz-adv-x="1304" 
d="M1103 38l-436 768l-339 -409v-330c0 -31 -3 -41 -12 -55c-9 -13 -23 -20 -42 -20s-33 7 -42 20c-9 14 -12 24 -12 55v1290c0 31 3 41 12 55c9 13 23 20 42 20s33 -7 42 -20c9 -14 12 -24 12 -55v-810l700 852c11 14 27 33 51 33c12 0 24 -4 34 -13c13 -11 20 -25 19 -41
c-1 -14 -7 -25 -24 -46l-364 -443l453 -797c12 -21 17 -35 17 -49c0 -17 -8 -33 -26 -43c-9 -5 -19 -8 -27 -8c-31 0 -46 25 -58 46z" />
    <glyph glyph-name="L" unicode="L" horiz-adv-x="1144" 
d="M1023 0h-739c-16 0 -34 0 -49 15s-15 33 -15 49v1293c0 31 3 41 12 55c9 13 23 20 42 20s33 -7 42 -20c9 -14 12 -24 12 -55v-1261h695c28 0 40 -3 50 -10c13 -10 19 -22 19 -38s-6 -28 -19 -38c-10 -7 -22 -10 -50 -10z" />
    <glyph glyph-name="M" unicode="M" horiz-adv-x="1636" 
d="M220 67v1291c0 31 7 46 19 58c10 10 24 16 39 16c12 0 24 -2 36 -10c10 -6 21 -22 32 -46l472 -1050l472 1050c11 24 22 40 32 46c12 8 24 10 36 10c15 0 29 -6 39 -16c12 -12 19 -27 19 -58v-1291c0 -31 -3 -41 -12 -55c-9 -13 -23 -20 -42 -20s-33 7 -42 20
c-9 14 -12 24 -12 55v1097l-412 -904c-19 -41 -37 -66 -78 -66s-59 25 -78 66l-412 904v-1097c0 -31 -3 -41 -12 -55c-9 -13 -23 -20 -42 -20s-33 7 -42 20c-9 14 -12 24 -12 55z" />
    <glyph glyph-name="N" unicode="N" horiz-adv-x="1478" 
d="M1258 67c0 -30 -7 -46 -19 -58c-10 -10 -26 -17 -42 -17c-27 0 -45 16 -60 38l-809 1196v-1159c0 -31 -3 -41 -12 -55c-9 -13 -23 -20 -42 -20s-33 7 -42 20c-9 14 -12 24 -12 55v1290c0 30 7 46 19 58c10 10 26 17 42 17c27 0 45 -16 60 -38l809 -1196v1159
c0 31 3 41 12 55c9 13 23 20 42 20s33 -7 42 -20c9 -14 12 -24 12 -55v-1290z" />
    <glyph glyph-name="O" unicode="O" horiz-adv-x="1304" 
d="M998 124c-84 -84 -204 -136 -346 -136s-262 52 -346 136c-132 132 -142 242 -142 588s10 456 142 588c84 84 204 136 346 136s262 -52 346 -136c132 -132 142 -242 142 -588s-10 -456 -142 -588zM922 194c102 102 110 218 110 518s-8 416 -110 518
c-74 74 -166 110 -270 110s-196 -36 -270 -110c-102 -102 -110 -218 -110 -518s8 -416 110 -518c74 -74 166 -110 270 -110s196 36 270 110z" />
    <glyph glyph-name="P" unicode="P" horiz-adv-x="1262" 
d="M220 67v1293c0 16 0 34 15 49s33 15 49 15h458c246 0 430 -150 430 -410s-184 -410 -430 -410h-414v-537c0 -31 -3 -41 -12 -55c-9 -13 -23 -20 -42 -20s-33 7 -42 20c-9 14 -12 24 -12 55zM328 700h402c196 0 334 100 334 314s-138 314 -334 314h-402v-628z" />
    <glyph glyph-name="Q" unicode="Q" horiz-adv-x="1304" 
d="M306 124c-132 132 -142 242 -142 588s10 456 142 588c84 84 204 136 346 136s262 -52 346 -136c132 -132 142 -242 142 -588c0 -307 -8 -429 -102 -544l124 -124c19 -19 25 -29 28 -43s-3 -31 -15 -43s-29 -18 -43 -15s-24 9 -43 28l-124 123
c-81 -66 -189 -106 -313 -106c-142 0 -262 52 -346 136zM892 167l-156 157c-19 19 -25 29 -28 43s3 31 15 43s29 18 43 15s24 -9 43 -28l154 -154c63 93 69 215 69 469c0 300 -8 416 -110 518c-74 74 -166 110 -270 110s-196 -36 -270 -110c-102 -102 -110 -218 -110 -518
s8 -416 110 -518c74 -74 166 -110 270 -110c90 0 172 27 240 83z" />
    <glyph glyph-name="R" unicode="R" horiz-adv-x="1314" 
d="M1071 38l-354 618h-389v-589c0 -31 -3 -41 -12 -55c-9 -13 -23 -20 -42 -20s-33 7 -42 20c-9 14 -12 24 -12 55v1293c0 16 0 34 15 49s33 15 49 15h478c232 0 408 -134 408 -382c0 -214 -128 -350 -328 -384l323 -566c12 -21 17 -35 17 -49c0 -17 -8 -33 -26 -43
c-9 -5 -19 -8 -27 -8c-31 0 -46 25 -58 46zM328 752h420c184 0 314 90 314 288s-130 288 -314 288h-420v-576z" />
    <glyph glyph-name="S" unicode="S" horiz-adv-x="1174" 
d="M664 654l-166 26c-113 18 -182 45 -254 105c-75 63 -112 151 -112 261c0 238 170 390 442 390c152 0 245 -31 358 -111c22 -16 40 -34 40 -56c0 -13 -3 -22 -11 -31c-10 -12 -21 -17 -37 -17s-35 11 -57 27c-104 74 -171 95 -299 95c-206 0 -330 -113 -330 -293
c0 -82 24 -146 74 -188c58 -48 109 -70 212 -86l154 -24c134 -21 196 -44 256 -94c78 -64 122 -162 122 -276c0 -240 -184 -394 -480 -394c-166 0 -292 32 -422 139c-21 17 -38 36 -38 58c0 14 4 27 15 38c10 10 23 15 36 15c20 0 37 -14 57 -30c116 -96 207 -124 358 -124
c224 0 366 108 366 294c0 84 -26 155 -78 200s-91 58 -206 76z" />
    <glyph glyph-name="T" unicode="T" horiz-adv-x="1078" 
d="M484 67v1261h-363c-28 0 -40 3 -50 10c-13 10 -19 22 -19 38s6 28 19 38c10 7 22 10 50 10h836c28 0 40 -3 50 -10c13 -10 19 -22 19 -38s-6 -28 -19 -38c-10 -7 -22 -10 -50 -10h-365v-1261c0 -31 -3 -41 -12 -55c-9 -13 -23 -20 -42 -20s-33 7 -42 20
c-9 14 -12 24 -12 55z" />
    <glyph glyph-name="U" unicode="U" horiz-adv-x="1376" 
d="M1068 476v881c0 31 3 41 12 55c9 13 23 20 42 20s33 -7 42 -20c9 -14 12 -24 12 -55v-895c0 -278 -202 -474 -488 -474s-488 196 -488 474v895c0 31 3 41 12 55c9 13 23 20 42 20s33 -7 42 -20c9 -14 12 -24 12 -55v-881c0 -236 152 -392 380 -392s380 156 380 392z" />
    <glyph glyph-name="V" unicode="V" horiz-adv-x="1068" 
d="M473 56l-429 1290c-8 24 -10 37 -6 51c6 20 26 35 50 35c11 0 22 -3 31 -10c11 -9 16 -19 24 -43l391 -1194l391 1194c8 24 13 34 24 43c9 7 20 10 31 10c24 0 44 -15 50 -35c4 -14 2 -27 -6 -51l-429 -1290c-6 -18 -15 -39 -24 -48c-13 -13 -23 -16 -37 -16
s-24 3 -37 16c-9 9 -18 30 -24 48z" />
    <glyph glyph-name="W" unicode="W" horiz-adv-x="1704" 
d="M1174 58l-322 1186l-322 -1186c-5 -18 -13 -37 -24 -48c-13 -13 -28 -18 -44 -18s-30 4 -44 18c-11 11 -19 28 -24 48l-322 1290c-7 28 -7 39 -2 53c7 20 28 31 47 31c12 0 24 -4 32 -11c11 -10 16 -20 23 -48l295 -1189l317 1182c5 20 12 37 24 48s25 16 44 16
s32 -5 44 -16s19 -28 24 -48l317 -1182l295 1189c7 28 12 38 23 48c8 7 20 11 32 11c19 0 40 -11 47 -31c5 -14 5 -25 -2 -53l-322 -1290c-5 -20 -13 -37 -24 -48c-14 -14 -28 -18 -44 -18s-31 5 -44 18c-11 11 -19 30 -24 48z" />
    <glyph glyph-name="X" unicode="X" horiz-adv-x="1076" 
d="M107 92l365 638l-344 602c-12 21 -17 35 -17 49c0 17 8 33 26 43c9 5 19 8 27 8c31 0 46 -25 58 -46l316 -565l320 571c12 21 23 40 54 40c8 0 18 -3 27 -8c18 -10 26 -26 26 -43c0 -14 -5 -28 -17 -49l-345 -602l366 -638c12 -21 17 -35 17 -49c0 -17 -8 -33 -26 -43
c-9 -5 -19 -8 -27 -8c-31 0 -46 25 -58 46l-337 597l-337 -597c-12 -21 -27 -46 -58 -46c-8 0 -18 3 -27 8c-18 10 -26 26 -26 43c0 14 5 28 17 49z" />
    <glyph glyph-name="Y" unicode="Y" horiz-adv-x="988" 
d="M440 67v518l-377 754c-12 24 -16 37 -14 51s12 28 28 36c8 4 17 6 24 6c8 0 14 -1 21 -5c13 -8 21 -18 33 -42l339 -678l339 678c12 24 20 34 33 42c7 4 13 5 21 5c7 0 16 -2 24 -6c16 -8 26 -22 28 -36s-2 -27 -14 -51l-377 -754v-518c0 -31 -3 -41 -12 -55
c-9 -13 -23 -20 -42 -20s-33 7 -42 20c-9 14 -12 24 -12 55z" />
    <glyph glyph-name="Z" unicode="Z" horiz-adv-x="1088" 
d="M915 0h-753c-26 0 -39 5 -48 14s-14 22 -14 34c0 16 7 31 20 54l732 1226h-651c-28 0 -40 3 -50 10c-13 10 -19 22 -19 38s6 28 19 38c10 7 22 10 50 10h721c26 0 39 -5 48 -14s14 -22 14 -34c0 -16 -7 -31 -20 -54l-732 -1226h683c28 0 40 -3 50 -10
c13 -10 19 -22 19 -38s-6 -28 -19 -38c-10 -7 -22 -10 -50 -10z" />
    <glyph glyph-name="bracketleft" unicode="[" horiz-adv-x="586" 
d="M434 -148h-178c-16 0 -34 0 -48 14s-14 34 -14 48v1596c0 14 0 34 14 48s32 14 48 14h178c24 0 36 -3 46 -10c12 -9 18 -21 18 -36s-6 -27 -18 -36c-10 -7 -22 -10 -46 -10h-136v-1536h136c24 0 36 -3 46 -10c12 -9 18 -21 18 -36s-6 -27 -18 -36c-10 -7 -22 -10 -46 -10
z" />
    <glyph glyph-name="backslash" unicode="\" horiz-adv-x="676" 
d="M555 -104l-530 1600c-8 24 -10 38 -5 52c7 19 24 32 47 32c28 0 43 -19 54 -52l530 -1600c8 -24 10 -38 5 -52c-7 -19 -24 -32 -47 -32c-28 0 -43 19 -54 52z" />
    <glyph glyph-name="bracketright" unicode="]" horiz-adv-x="586" 
d="M330 -148h-178c-24 0 -36 3 -46 10c-12 9 -18 21 -18 36s6 27 18 36c10 7 22 10 46 10h136v1536h-136c-24 0 -36 3 -46 10c-12 9 -18 21 -18 36s6 27 18 36c10 7 22 10 46 10h178c16 0 34 0 48 -14s14 -34 14 -48v-1596c0 -14 0 -34 -14 -48s-32 -14 -48 -14z" />
    <glyph glyph-name="asciicircum" unicode="^" 
d="M851 842c0 -26 -23 -45 -46 -45c-7 0 -15 2 -22 6c-11 6 -20 16 -32 40l-237 472l-237 -472c-12 -24 -21 -34 -32 -40c-7 -4 -15 -6 -22 -6c-23 0 -46 19 -46 45c0 12 4 24 14 44l233 460c25 50 44 86 90 86s65 -36 90 -86l233 -460c10 -20 14 -32 14 -44z" />
    <glyph glyph-name="underscore" unicode="_" 
d="M918 -322h-808c-19 0 -32 2 -41 9c-11 8 -15 18 -15 31s4 23 15 31c9 7 22 9 41 9h808c19 0 32 -2 41 -9c11 -8 15 -18 15 -31s-4 -23 -15 -31c-9 -7 -22 -9 -41 -9z" />
    <glyph glyph-name="grave" unicode="`" horiz-adv-x="1000" 
d="M474 1213l-108 173c-12 19 -18 32 -18 45c0 18 8 32 25 43c9 6 18 8 27 8c11 0 20 -3 29 -10s18 -19 25 -31l108 -173c12 -19 18 -32 18 -45c0 -18 -8 -32 -25 -43c-9 -6 -18 -8 -27 -8c-11 0 -20 3 -29 10s-16 17 -25 31z" />
    <glyph glyph-name="a" unicode="a" horiz-adv-x="1048" 
d="M760 62v34c-82 -82 -161 -108 -294 -108c-143 0 -223 24 -285 88c-44 46 -71 114 -71 190c0 175 130 278 333 278h317v92c0 162 -74 250 -262 250c-116 0 -174 -31 -243 -100c-22 -22 -39 -26 -53 -26c-12 0 -24 4 -32 12s-14 16 -14 34c0 28 30 63 92 105
c68 46 144 65 250 65c242 0 366 -112 366 -316v-598c0 -27 -3 -38 -11 -50s-24 -20 -41 -20s-33 8 -41 20s-11 23 -11 50zM760 336v123h-310c-156 0 -236 -67 -236 -193c0 -127 82 -188 252 -188c88 0 172 8 240 74c36 34 54 94 54 184z" />
    <glyph glyph-name="b" unicode="b" horiz-adv-x="1084" 
d="M194 62v1300c0 27 3 38 11 50s24 20 41 20s33 -8 41 -20s11 -23 11 -50v-522c84 112 178 136 286 136c100 0 186 -34 236 -84c98 -98 126 -248 126 -410s-28 -312 -126 -410c-50 -50 -136 -84 -236 -84c-108 0 -202 24 -286 136v-62c0 -27 -3 -38 -11 -50
s-24 -20 -41 -20s-33 8 -41 20s-11 23 -11 50zM570 80c236 0 272 202 272 402s-36 402 -272 402s-272 -202 -272 -402s36 -402 272 -402z" />
    <glyph glyph-name="c" unicode="c" horiz-adv-x="983" 
d="M813 79c-69 -60 -146 -91 -252 -91c-266 0 -423 188 -423 494s157 494 423 494c106 0 183 -31 252 -91c37 -32 51 -49 51 -74c0 -12 -7 -25 -16 -33s-20 -12 -32 -12c-19 0 -32 11 -63 38c-68 60 -120 80 -192 80c-108 0 -195 -42 -253 -126c-48 -70 -66 -146 -66 -276
s18 -206 66 -276c58 -84 145 -126 253 -126c72 0 124 20 192 80c31 27 44 38 63 38c12 0 23 -4 32 -12s16 -21 16 -33c0 -25 -14 -42 -51 -74z" />
    <glyph glyph-name="d" unicode="d" horiz-adv-x="1084" 
d="M890 62c0 -27 -3 -38 -11 -50s-24 -20 -41 -20s-33 8 -41 20s-11 23 -11 50v62c-84 -112 -178 -136 -286 -136c-100 0 -186 34 -236 84c-98 98 -126 248 -126 410s28 312 126 410c50 50 136 84 236 84c108 0 202 -24 286 -136v522c0 27 3 38 11 50s24 20 41 20
s33 -8 41 -20s11 -23 11 -50v-1300zM514 80c236 0 272 202 272 402s-36 402 -272 402s-272 -202 -272 -402s36 -402 272 -402z" />
    <glyph glyph-name="e" unicode="e" horiz-adv-x="1046" 
d="M850 460h-608c0 -244 110 -380 314 -380c81 0 160 22 222 76c28 25 39 34 58 34c24 0 46 -23 46 -46c0 -43 -70 -86 -102 -104c-54 -31 -134 -52 -230 -52c-266 0 -412 172 -412 494c0 318 148 494 388 494c239 0 386 -176 386 -454c0 -13 0 -34 -14 -48s-32 -14 -48 -14
zM242 546h568c-4 80 -10 117 -34 177c-40 100 -136 161 -250 161s-210 -62 -250 -161c-24 -60 -30 -97 -34 -177z" />
    <glyph glyph-name="f" unicode="f" horiz-adv-x="608" 
d="M222 62v818h-81c-22 0 -33 2 -43 9c-11 8 -16 18 -16 33s5 25 16 33c10 7 21 9 43 9h81v208c0 146 80 252 232 252h30c27 0 40 -3 50 -10c12 -9 18 -21 18 -36s-6 -27 -18 -36c-10 -7 -22 -10 -46 -10h-16c-100 0 -146 -60 -146 -160v-208h167c22 0 33 -2 43 -9
c11 -8 16 -18 16 -33s-5 -25 -16 -33c-10 -7 -21 -9 -43 -9h-167v-818c0 -27 -3 -38 -11 -50s-24 -20 -41 -20s-33 8 -41 20s-11 23 -11 50z" />
    <glyph glyph-name="g" unicode="g" horiz-adv-x="1084" 
d="M786 -48v172c-84 -112 -178 -136 -286 -136c-100 0 -186 34 -236 84c-98 98 -126 248 -126 410s28 312 126 410c50 50 136 84 236 84c108 0 202 -24 286 -136v62c0 27 3 38 11 50s24 20 41 20s33 -8 41 -20s11 -23 11 -50v-956c0 -242 -146 -418 -396 -418
c-85 0 -144 12 -204 44c-29 16 -104 60 -104 100c0 32 26 50 46 50c22 0 38 -18 64 -40c54 -47 119 -64 198 -64c202 0 292 144 292 334zM514 80c236 0 272 202 272 402s-36 402 -272 402s-272 -202 -272 -402s36 -402 272 -402z" />
    <glyph glyph-name="h" unicode="h" horiz-adv-x="1122" 
d="M836 62v534c0 186 -92 288 -266 288s-272 -104 -272 -288v-534c0 -27 -3 -38 -11 -50s-24 -20 -41 -20s-33 8 -41 20s-11 23 -11 50v1300c0 27 3 38 11 50s24 20 41 20s33 -8 41 -20s11 -23 11 -50v-512c72 84 168 126 284 126c108 0 196 -32 258 -92
c65 -62 100 -154 100 -268v-554c0 -27 -3 -38 -11 -50s-24 -20 -41 -20s-33 8 -41 20s-11 23 -11 50z" />
    <glyph glyph-name="i" unicode="i" horiz-adv-x="492" 
d="M194 62v840c0 27 3 38 11 50s24 20 41 20s33 -8 41 -20s11 -23 11 -50v-840c0 -27 -3 -38 -11 -50s-24 -20 -41 -20s-33 8 -41 20s-11 23 -11 50zM246 1288c-41 0 -74 33 -74 74s33 74 74 74s74 -33 74 -74s-33 -74 -74 -74z" />
    <glyph glyph-name="j" unicode="j" horiz-adv-x="492" 
d="M66 -460h-30c-27 0 -40 3 -50 10c-12 9 -18 21 -18 36s6 27 18 36c10 7 22 10 46 10h16c100 0 146 60 146 160v1110c0 27 3 38 11 50s24 20 41 20s33 -8 41 -20s11 -23 11 -50v-1110c0 -146 -80 -252 -232 -252zM246 1288c-41 0 -74 33 -74 74s33 74 74 74s74 -33 74 -74
s-33 -74 -74 -74z" />
    <glyph glyph-name="k" unicode="k" horiz-adv-x="1019" 
d="M829 33l-314 496l-217 -246v-221c0 -27 -3 -38 -11 -50s-24 -20 -41 -20s-33 8 -41 20s-11 23 -11 50v1300c0 27 3 38 11 50s24 20 41 20s33 -8 41 -20s11 -23 11 -50v-941l460 523c23 26 34 32 52 32c10 0 21 -4 29 -11c9 -8 16 -19 16 -33c0 -13 -2 -25 -25 -51
l-243 -276l330 -517c12 -19 18 -32 18 -45c0 -18 -8 -32 -25 -43c-9 -6 -18 -8 -27 -8c-22 0 -36 13 -54 41z" />
    <glyph glyph-name="l" unicode="l" horiz-adv-x="574" 
d="M452 0h-30c-152 0 -232 106 -232 252v1110c0 27 3 38 11 50s24 20 41 20s33 -8 41 -20s11 -23 11 -50v-1110c0 -100 46 -160 146 -160h16c24 0 36 -3 46 -10c12 -9 18 -21 18 -36s-6 -27 -18 -36c-10 -7 -23 -10 -50 -10z" />
    <glyph glyph-name="m" unicode="m" horiz-adv-x="1762" 
d="M1476 62v534c0 186 -95 288 -267 288c-166 0 -270 -106 -270 -270v-552c0 -27 -3 -38 -11 -50s-24 -20 -41 -20s-33 8 -41 20s-11 23 -11 50v534c0 186 -94 288 -266 288s-271 -106 -271 -288v-534c0 -27 -3 -38 -11 -50s-24 -20 -41 -20s-33 8 -41 20s-11 23 -11 50v840
c0 27 3 38 11 50s24 20 41 20s33 -8 41 -20s11 -23 11 -50v-52c70 82 169 126 285 126c142 0 252 -62 310 -176c72 114 186 176 328 176c106 0 197 -34 257 -92c64 -62 102 -154 102 -268v-554c0 -27 -3 -38 -11 -50s-24 -20 -41 -20s-33 8 -41 20s-11 23 -11 50z" />
    <glyph glyph-name="n" unicode="n" horiz-adv-x="1122" 
d="M836 62v534c0 186 -92 288 -266 288s-272 -104 -272 -288v-534c0 -27 -3 -38 -11 -50s-24 -20 -41 -20s-33 8 -41 20s-11 23 -11 50v840c0 27 3 38 11 50s24 20 41 20s33 -8 41 -20s11 -23 11 -50v-52c72 84 168 126 284 126c108 0 196 -32 258 -92
c65 -62 100 -154 100 -268v-554c0 -27 -3 -38 -11 -50s-24 -20 -41 -20s-33 8 -41 20s-11 23 -11 50z" />
    <glyph glyph-name="o" unicode="o" horiz-adv-x="1056" 
d="M726 161c76 76 88 206 88 321s-12 245 -88 321c-54 54 -118 81 -198 81s-144 -27 -198 -81c-76 -76 -88 -206 -88 -321s12 -245 88 -321c54 -54 118 -81 198 -81s144 27 198 81zM796 94c-68 -68 -160 -106 -268 -106s-200 38 -268 106c-105 105 -122 250 -122 388
s17 283 122 388c68 68 160 106 268 106s200 -38 268 -106c105 -105 122 -250 122 -388s-17 -283 -122 -388z" />
    <glyph glyph-name="p" unicode="p" horiz-adv-x="1084" 
d="M194 -398v1300c0 27 3 38 11 50s24 20 41 20s33 -8 41 -20s11 -23 11 -50v-62c84 112 178 136 286 136c100 0 186 -34 236 -84c98 -98 126 -248 126 -410s-28 -312 -126 -410c-50 -50 -136 -84 -236 -84c-108 0 -202 24 -286 136v-522c0 -27 -3 -38 -11 -50
s-24 -20 -41 -20s-33 8 -41 20s-11 23 -11 50zM570 80c236 0 272 202 272 402s-36 402 -272 402s-272 -202 -272 -402s36 -402 272 -402z" />
    <glyph glyph-name="q" unicode="q" horiz-adv-x="1084" 
d="M890 902v-1300c0 -27 -3 -38 -11 -50s-24 -20 -41 -20s-33 8 -41 20s-11 23 -11 50v522c-84 -112 -178 -136 -286 -136c-100 0 -186 34 -236 84c-98 98 -126 248 -126 410s28 312 126 410c50 50 136 84 236 84c108 0 202 -24 286 -136v62c0 27 3 38 11 50s24 20 41 20
s33 -8 41 -20s11 -23 11 -50zM514 884c-236 0 -272 -202 -272 -402s36 -402 272 -402s272 202 272 402s-36 402 -272 402z" />
    <glyph glyph-name="r" unicode="r" horiz-adv-x="818" 
d="M194 62v840c0 27 3 38 11 50s24 20 41 20s33 -8 41 -20s11 -23 11 -50v-66c56 90 168 140 280 140c66 0 120 -12 176 -46c26 -16 50 -34 50 -62c0 -12 -6 -26 -14 -34c-10 -10 -22 -16 -36 -16s-26 6 -62 28c-39 24 -84 38 -132 38c-172 0 -262 -136 -262 -292v-530
c0 -27 -3 -38 -11 -50s-24 -20 -41 -20s-33 8 -41 20s-11 23 -11 50z" />
    <glyph glyph-name="s" unicode="s" horiz-adv-x="988" 
d="M592 435l-160 14c-193 17 -290 103 -290 253c0 166 136 274 346 274c112 0 202 -25 278 -66c22 -12 30 -20 36 -30s6 -16 6 -24c0 -6 -4 -16 -10 -24c-10 -12 -22 -18 -36 -18s-25 5 -48 18c-66 36 -139 54 -226 54c-158 0 -246 -66 -246 -184c0 -100 61 -149 196 -161
l156 -14c160 -14 282 -65 282 -253c0 -176 -150 -286 -386 -286c-146 0 -250 33 -338 94c-25 17 -42 35 -42 56c0 12 4 24 16 36c8 8 20 12 32 12c16 0 30 -7 58 -28c72 -54 156 -78 270 -78c188 0 290 64 290 194c0 100 -59 150 -184 161z" />
    <glyph glyph-name="t" unicode="t" horiz-adv-x="650" 
d="M478 0h-30c-152 0 -232 106 -232 252v628h-81c-22 0 -33 2 -43 9c-11 8 -16 18 -16 33s5 25 16 33c10 7 21 9 43 9h81v246c0 27 3 38 11 50s24 20 41 20s33 -8 41 -20s11 -23 11 -50v-246h167c22 0 33 -2 43 -9c11 -8 16 -18 16 -33s-5 -25 -16 -33c-10 -7 -21 -9 -43 -9
h-167v-628c0 -100 46 -160 146 -160h16c24 0 36 -3 46 -10c12 -9 18 -21 18 -36s-6 -27 -18 -36c-10 -7 -23 -10 -50 -10z" />
    <glyph glyph-name="u" unicode="u" horiz-adv-x="1122" 
d="M824 62v52c-72 -84 -168 -126 -284 -126c-108 0 -196 32 -258 92c-65 62 -100 154 -100 268v554c0 27 3 38 11 50s24 20 41 20s33 -8 41 -20s11 -23 11 -50v-534c0 -186 92 -288 266 -288s272 104 272 288v534c0 27 3 38 11 50s24 20 41 20s33 -8 41 -20s11 -23 11 -50
v-840c0 -27 -3 -38 -11 -50s-24 -20 -41 -20s-33 8 -41 20s-11 23 -11 50z" />
    <glyph glyph-name="v" unicode="v" horiz-adv-x="860" 
d="M357 62l-287 826c-8 24 -10 38 -5 52c7 19 24 32 47 32c28 0 43 -19 54 -52l264 -793l264 793c11 33 26 52 54 52c23 0 40 -13 47 -32c5 -14 3 -28 -5 -52l-287 -826c-9 -27 -18 -45 -34 -57c-11 -9 -24 -13 -39 -13s-28 4 -39 13c-16 12 -25 30 -34 57z" />
    <glyph glyph-name="w" unicode="w" horiz-adv-x="1424" 
d="M325 87l-242 802c-7 25 -8 38 -3 52c6 17 26 31 48 31c13 0 24 -4 34 -14c7 -7 13 -20 19 -41l227 -790l221 750c11 38 21 65 40 80c11 9 26 15 43 15s32 -6 43 -15c19 -15 29 -42 40 -80l221 -750l227 790c6 21 12 34 19 41c10 10 21 14 34 14c22 0 42 -14 48 -31
c5 -14 4 -27 -3 -52l-242 -802c-11 -38 -21 -65 -40 -80c-11 -9 -26 -15 -43 -15s-32 6 -43 15c-19 15 -29 42 -40 80l-221 735l-221 -735c-11 -38 -21 -65 -40 -80c-11 -9 -26 -15 -43 -15s-32 6 -43 15c-19 15 -29 42 -40 80z" />
    <glyph glyph-name="x" unicode="x" horiz-adv-x="864" 
d="M114 88l249 394l-248 394c-12 19 -18 32 -18 45c0 18 8 32 25 43c9 6 18 8 27 8c22 0 37 -13 54 -41l229 -377l229 377c17 28 32 41 54 41c9 0 18 -2 27 -8c17 -11 25 -25 25 -43c0 -13 -6 -26 -18 -45l-248 -394l249 -394c12 -19 18 -32 18 -45c0 -18 -8 -32 -25 -43
c-9 -6 -18 -8 -27 -8c-22 0 -37 13 -54 41l-230 376l-230 -376c-17 -28 -32 -41 -54 -41c-9 0 -18 2 -27 8c-17 11 -25 25 -25 43c0 13 6 26 18 45z" />
    <glyph glyph-name="y" unicode="y" horiz-adv-x="860" 
d="M310 -214l71 214l-311 888c-8 24 -10 38 -5 52c7 19 24 32 47 32c28 0 43 -19 54 -52l264 -793l264 793c11 33 26 52 54 52c23 0 40 -13 47 -32c5 -14 3 -28 -5 -52l-399 -1150c-15 -44 -36 -85 -66 -113c-49 -45 -106 -61 -170 -61c-27 0 -39 4 -48 10
c-12 8 -18 18 -18 36c0 14 6 28 18 36c8 6 20 10 42 10c80 0 128 31 161 130z" />
    <glyph glyph-name="z" unicode="z" horiz-adv-x="898" 
d="M734 0h-564c-20 0 -40 2 -52 12c-11 9 -18 22 -18 38c0 18 7 33 21 52l547 770h-478c-24 0 -36 3 -46 10c-12 9 -18 21 -18 36s6 27 18 36c10 7 22 10 46 10h534c20 0 40 -2 52 -12c11 -9 18 -22 18 -38c0 -18 -7 -33 -21 -52l-547 -770h508c24 0 36 -3 46 -10
c12 -9 18 -21 18 -36s-6 -27 -18 -36c-10 -7 -22 -10 -46 -10z" />
    <glyph glyph-name="braceleft" unicode="{" horiz-adv-x="632" 
d="M474 -144h-4c-71 0 -122 14 -160 52s-52 82 -52 190v412c0 56 -12 96 -36 120c-20 20 -48 34 -74 36c-16 1 -30 4 -40 14c-8 8 -12 18 -12 32s4 24 12 32c10 10 24 13 40 14c26 2 54 16 74 36c24 24 36 64 36 120v414c0 108 14 152 52 190s89 52 160 52h4
c20 0 36 -2 48 -8s20 -20 20 -36s-6 -28 -18 -36c-10 -7 -34 -10 -50 -10c-50 0 -66 -6 -84 -24c-21 -21 -28 -56 -28 -130v-414c0 -104 -38 -158 -122 -200c84 -42 122 -96 122 -200v-412c0 -74 7 -109 28 -130c18 -18 34 -24 84 -24c16 0 40 -3 50 -10
c12 -8 18 -20 18 -36s-8 -30 -20 -36s-28 -8 -48 -8z" />
    <glyph glyph-name="bar" unicode="|" horiz-adv-x="634" 
d="M266 -86v1596c0 27 3 38 11 50s24 20 41 20s33 -8 41 -20s11 -23 11 -50v-1596c0 -27 -3 -38 -11 -50s-24 -20 -41 -20s-33 8 -41 20s-11 23 -11 50z" />
    <glyph glyph-name="braceright" unicode="}" horiz-adv-x="632" 
d="M162 -144h-4c-20 0 -36 2 -48 8s-20 20 -20 36s6 28 18 36c10 7 34 10 50 10c50 0 66 6 84 24c21 21 28 56 28 130v412c0 104 38 158 122 200c-84 42 -122 96 -122 200v414c0 74 -7 109 -28 130c-18 18 -34 24 -84 24c-16 0 -40 3 -50 10c-12 8 -18 20 -18 36s8 30 20 36
s28 8 48 8h4c71 0 122 -14 160 -52s52 -82 52 -190v-414c0 -56 12 -96 36 -120c20 -20 48 -34 74 -36c16 -1 30 -4 40 -14c8 -8 12 -18 12 -32s-4 -24 -12 -32c-10 -10 -24 -13 -40 -14c-26 -2 -54 -16 -74 -36c-24 -24 -36 -64 -36 -120v-412c0 -108 -14 -152 -52 -190
s-89 -52 -160 -52z" />
    <glyph glyph-name="asciitilde" unicode="~" 
d="M884 518c-71 -71 -128 -88 -194 -88s-132 32 -204 62c-56 24 -100 46 -152 46s-82 -12 -134 -62c-17 -17 -30 -24 -46 -24c-10 0 -20 4 -28 12s-12 18 -12 28c0 16 6 30 30 54c71 71 128 88 194 88s132 -32 204 -62c56 -24 100 -46 152 -46s82 12 134 62
c17 17 30 24 46 24c10 0 20 -4 28 -12s12 -18 12 -28c0 -16 -6 -30 -30 -54z" />
    <glyph glyph-name="uni00A0" unicode="&#xa0;" horiz-adv-x="510" 
 />
    <glyph glyph-name="exclamdown" unicode="&#xa1;" horiz-adv-x="608" 
d="M222 -393v906c0 31 3 41 12 55c9 13 23 20 42 20s33 -7 42 -20c9 -14 12 -24 12 -55v-906c0 -31 -3 -41 -12 -55c-9 -13 -23 -20 -42 -20s-33 7 -42 20c-9 14 -12 24 -12 55zM276 970c44 0 80 -36 80 -80s-36 -80 -80 -80s-80 36 -80 80s36 80 80 80z" />
    <glyph glyph-name="cent" unicode="&#xa2;" horiz-adv-x="983" 
d="M813 329c-63 -55 -132 -85 -224 -90v-183c0 -24 -3 -36 -10 -46c-9 -12 -21 -18 -36 -18s-27 6 -36 18c-7 10 -10 22 -10 46v186c-227 28 -359 209 -359 490c0 280 132 462 359 490v146c0 24 3 36 10 46c9 12 21 18 36 18s27 -6 36 -18c7 -10 10 -22 10 -46v-143
c92 -5 161 -36 224 -90c37 -32 51 -49 51 -74c0 -12 -7 -25 -16 -33s-20 -12 -32 -12c-19 0 -32 11 -63 38c-59 52 -106 74 -164 79v-802c58 5 105 27 164 79c31 27 44 38 63 38c12 0 23 -4 32 -12s16 -21 16 -33c0 -25 -14 -42 -51 -74zM308 456c46 -67 110 -107 189 -121
v793c-79 -14 -143 -54 -189 -120c-48 -70 -66 -146 -66 -276s18 -206 66 -276z" />
    <glyph glyph-name="sterling" unicode="&#xa3;" horiz-adv-x="1074" 
d="M906 0h-614c-16 0 -34 0 -49 15s-15 33 -15 49v616h-80c-19 0 -32 2 -41 9c-11 8 -15 18 -15 31s4 23 15 31c9 7 22 9 41 9h80v244c0 260 166 432 424 432c96 0 195 -25 264 -82c24 -20 34 -34 34 -54c0 -11 -4 -22 -12 -32s-22 -18 -36 -18c-20 0 -38 14 -53 26
c-54 42 -113 64 -197 64c-204 0 -316 -130 -316 -358v-222h268c19 0 32 -2 41 -9c11 -8 15 -18 15 -31s-4 -23 -15 -31c-9 -7 -22 -9 -41 -9h-268v-584h570c24 0 38 -2 48 -10c12 -10 18 -22 18 -38s-6 -28 -18 -38c-10 -8 -24 -10 -48 -10z" />
    <glyph glyph-name="currency" unicode="&#xa4;" horiz-adv-x="1314" 
d="M1038 80l-109 109c-74 -62 -169 -93 -273 -93s-199 31 -273 93l-109 -109c-20 -20 -30 -26 -42 -28c-16 -2 -30 3 -41 14s-15 24 -13 40c2 12 8 22 28 42l109 109c-60 74 -93 170 -93 273s33 199 93 273l-109 109c-20 20 -26 30 -28 42c-2 16 2 29 13 40s25 16 41 14
c12 -2 22 -8 42 -28l109 -109c74 62 169 93 273 93s199 -31 273 -93l109 109c20 20 30 26 42 28c16 2 30 -3 41 -14s15 -24 13 -40c-2 -12 -8 -22 -28 -42l-109 -109c60 -74 93 -170 93 -273s-33 -199 -93 -273l109 -109c20 -20 26 -30 28 -42c2 -16 -2 -29 -13 -40
s-25 -16 -41 -14c-12 2 -22 8 -42 28zM994 530c0 188 -150 338 -338 338s-338 -150 -338 -338s150 -338 338 -338s338 150 338 338z" />
    <glyph glyph-name="yen" unicode="&#xa5;" horiz-adv-x="988" 
d="M808 404h-260v-337c0 -31 -3 -41 -12 -55c-9 -13 -23 -20 -42 -20s-33 7 -42 20c-9 14 -12 24 -12 55v337h-262c-19 0 -32 2 -41 9c-11 8 -15 18 -15 31s4 23 15 31c9 7 22 9 41 9h262v101l-54 107h-208c-19 0 -32 2 -41 9c-11 8 -15 18 -15 31s4 23 15 31c9 7 22 9 41 9
h168l-283 567c-12 24 -16 37 -14 51s12 28 28 36c8 4 17 6 24 6c8 0 14 -1 21 -5c13 -8 21 -18 33 -42l339 -678l339 678c12 24 20 34 33 42c7 4 13 5 21 5c7 0 16 -2 24 -6c16 -8 26 -22 28 -36s-2 -27 -14 -51l-284 -567h167c19 0 32 -2 41 -9c11 -8 15 -18 15 -31
s-4 -23 -15 -31c-9 -7 -22 -9 -41 -9h-207l-53 -107v-101h260c19 0 32 -2 41 -9c11 -8 15 -18 15 -31s-4 -23 -15 -31c-9 -7 -22 -9 -41 -9z" />
    <glyph glyph-name="brokenbar" unicode="&#xa6;" horiz-adv-x="656" 
d="M266 -86v576c0 27 3 38 11 50s24 20 41 20s33 -8 41 -20s11 -23 11 -50v-576c0 -27 -3 -38 -11 -50s-24 -20 -41 -20s-33 8 -41 20s-11 23 -11 50zM266 934v576c0 27 3 38 11 50s24 20 41 20s33 -8 41 -20s11 -23 11 -50v-576c0 -27 -3 -38 -11 -50s-24 -20 -41 -20
s-33 8 -41 20s-11 23 -11 50z" />
    <glyph glyph-name="section" unicode="&#xa7;" horiz-adv-x="1132" 
d="M628 86l-166 46c-170 47 -268 190 -268 362c0 170 102 286 220 340c-124 54 -198 136 -198 282c0 200 158 320 350 320c154 0 268 -58 320 -160c19 -37 32 -78 32 -116c0 -20 -6 -34 -14 -44s-22 -16 -38 -16c-18 0 -30 6 -40 20c-6 8 -10 18 -14 44
c-20 127 -102 178 -246 178c-148 0 -244 -74 -244 -226c0 -122 78 -185 182 -214l166 -46c170 -47 268 -190 268 -362c0 -170 -102 -286 -220 -340c124 -42 206 -150 206 -292c0 -194 -148 -334 -358 -334c-161 0 -279 62 -331 164c-19 37 -31 77 -31 115c0 21 5 36 16 47
c8 8 20 14 36 14c15 0 26 -5 35 -14c12 -12 16 -30 19 -50c20 -127 112 -180 256 -180c152 0 250 84 250 238c0 106 -74 192 -188 224zM566 210c78 0 144 28 194 82c54 58 70 118 70 202s-16 144 -70 202c-50 54 -116 82 -194 82s-144 -28 -194 -82
c-54 -58 -70 -118 -70 -202s16 -144 70 -202c50 -54 116 -82 194 -82z" />
    <glyph glyph-name="dieresis" unicode="&#xa8;" horiz-adv-x="1000" 
d="M320 1200c-41 0 -74 33 -74 74s33 74 74 74s74 -33 74 -74s-33 -74 -74 -74zM736 1200c-41 0 -74 33 -74 74s33 74 74 74s74 -33 74 -74s-33 -74 -74 -74z" />
    <glyph glyph-name="copyright" unicode="&#xa9;" horiz-adv-x="1788" 
d="M1618 712c0 -400 -324 -724 -724 -724s-724 324 -724 724s324 724 724 724s724 -324 724 -724zM1534 712c0 351 -289 648 -640 648s-640 -297 -640 -648s289 -648 640 -648s640 297 640 648zM677 712c0 -153 52 -287 230 -287c51 0 87 10 137 54c23 20 36 28 50 28
c9 0 18 -4 25 -11c6 -6 9 -14 9 -23c0 -18 -10 -31 -36 -55c-49 -43 -108 -64 -185 -64c-217 0 -310 161 -310 358s93 358 310 358c77 0 136 -21 185 -64c26 -24 36 -37 36 -55c0 -9 -3 -17 -9 -23c-7 -7 -16 -11 -25 -11c-14 0 -27 8 -50 28c-50 44 -86 54 -137 54
c-178 0 -230 -134 -230 -287z" />
    <glyph glyph-name="ordfeminine" unicode="&#xaa;" horiz-adv-x="896" 
d="M714 707c0 -23 -3 -35 -9 -43c-9 -12 -21 -18 -35 -18s-26 6 -35 18c-6 8 -9 20 -9 43v21c-65 -64 -124 -84 -228 -84c-112 0 -175 18 -225 70c-36 36 -57 92 -57 150c0 140 102 222 268 222h242v84c0 120 -58 182 -210 182c-90 0 -141 -29 -194 -91
c-12 -14 -25 -18 -37 -18c-10 0 -19 3 -27 11c-7 7 -11 14 -11 30c0 24 23 54 74 92s113 54 195 54c200 0 298 -92 298 -252v-471zM626 922v94h-232c-130 0 -190 -52 -190 -150s58 -144 194 -144c88 0 144 14 189 59c30 30 39 74 39 141z" />
    <glyph glyph-name="guillemotleft" unicode="&#xab;" horiz-adv-x="1097" 
d="M427 153l-344 344l344 344c20 20 30 26 42 28c16 2 30 -3 41 -14s15 -24 13 -40c-2 -12 -8 -22 -28 -42l-276 -276l276 -276c20 -20 26 -30 28 -42c2 -16 -2 -29 -13 -40s-25 -16 -41 -14c-12 2 -22 8 -42 28zM844 153l-344 344l344 344c20 20 30 26 42 28
c16 2 30 -3 41 -14s15 -24 13 -40c-2 -12 -8 -22 -28 -42l-276 -276l276 -276c20 -20 26 -30 28 -42c2 -16 -2 -29 -13 -40s-25 -16 -41 -14c-12 2 -22 8 -42 28z" />
    <glyph glyph-name="logicalnot" unicode="&#xac;" 
d="M920 510v-240c0 -24 -3 -36 -10 -46c-9 -12 -21 -18 -36 -18s-27 6 -36 18c-7 10 -10 22 -10 46v210h-666c-24 0 -36 3 -46 10c-12 9 -18 21 -18 36s6 27 18 36c10 7 22 10 46 10h696c16 0 34 0 48 -14s14 -32 14 -48z" />
    <glyph glyph-name="uni00AD" unicode="&#xad;" horiz-adv-x="852" 
d="M632 482h-412c-24 0 -36 3 -46 10c-12 9 -18 21 -18 36s6 27 18 36c10 7 22 10 46 10h412c24 0 36 -3 46 -10c12 -9 18 -21 18 -36s-6 -27 -18 -36c-10 -7 -22 -10 -46 -10z" />
    <glyph glyph-name="registered" unicode="&#xae;" horiz-adv-x="1788" 
d="M1137 858c0 -106 -65 -170 -158 -195l136 -231c11 -18 14 -28 14 -39c0 -12 -9 -24 -19 -30c-7 -4 -14 -6 -21 -6c-16 0 -27 9 -42 35l-155 264h-115v-243c0 -19 -2 -32 -9 -41c-8 -11 -18 -15 -31 -15s-23 4 -31 15c-7 9 -9 22 -9 41v600c0 14 0 27 11 39
c12 11 26 11 39 11h174c115 0 216 -81 216 -205zM1057 858c0 82 -62 132 -146 132h-134v-263h134c84 0 146 49 146 131zM1534 712c0 351 -289 648 -640 648s-640 -297 -640 -648s289 -648 640 -648s640 297 640 648zM1618 712c0 -400 -324 -724 -724 -724s-724 324 -724 724
s324 724 724 724s724 -324 724 -724z" />
    <glyph glyph-name="macron" unicode="&#xaf;" horiz-adv-x="1000" 
d="M757 1220h-458c-24 0 -36 3 -46 10c-12 9 -18 21 -18 36s6 27 18 36c10 7 22 10 46 10h458c24 0 36 -3 46 -10c12 -9 18 -21 18 -36s-6 -27 -18 -36c-10 -7 -22 -10 -46 -10z" />
    <glyph glyph-name="degree" unicode="&#xb0;" horiz-adv-x="916" 
d="M458 810c-174 0 -314 140 -314 314s140 314 314 314s314 -140 314 -314s-140 -314 -314 -314zM458 894c128 0 224 98 224 230s-96 230 -224 230s-224 -98 -224 -230s96 -230 224 -230z" />
    <glyph glyph-name="plusminus" unicode="&#xb1;" 
d="M866 0h-704c-24 0 -36 3 -46 10c-12 9 -18 21 -18 36s6 27 18 36c10 7 22 10 46 10h704c24 0 36 -3 46 -10c12 -9 18 -21 18 -36s-6 -27 -18 -36c-10 -7 -22 -10 -46 -10zM866 542h-306v-306c0 -24 -3 -36 -10 -46c-9 -12 -21 -18 -36 -18s-27 6 -36 18
c-7 10 -10 22 -10 46v306h-306c-24 0 -36 3 -46 10c-12 9 -18 21 -18 36s6 27 18 36c10 7 22 10 46 10h306v306c0 24 3 36 10 46c9 12 21 18 36 18s27 -6 36 -18c7 -10 10 -22 10 -46v-306h306c24 0 36 -3 46 -10c12 -9 18 -21 18 -36s-6 -27 -18 -36
c-10 -7 -22 -10 -46 -10z" />
    <glyph glyph-name="twosuperior" unicode="&#xb2;" horiz-adv-x="626" 
d="M512 570h-367c-27 0 -41 0 -55 14c-6 7 -10 18 -10 26c0 15 8 26 25 49l316 421c30 40 45 76 45 121c0 92 -54 151 -147 151c-63 0 -127 -34 -141 -109c-3 -14 -6 -32 -14 -44c-7 -10 -17 -17 -34 -17c-15 0 -26 6 -33 16c-7 8 -8 18 -8 29c0 29 13 67 26 93
c35 69 107 112 204 112c141 0 235 -91 235 -231c0 -63 -20 -112 -62 -167l-293 -384h313c19 0 32 -2 41 -9c11 -8 15 -18 15 -31s-4 -23 -15 -31c-9 -7 -22 -9 -41 -9z" />
    <glyph glyph-name="threesuperior" unicode="&#xb3;" horiz-adv-x="626" 
d="M548 1200c0 -92 -38 -154 -114 -188c86 -32 130 -100 130 -206c0 -158 -110 -244 -250 -244c-98 0 -173 40 -211 94c-19 26 -33 67 -33 102c0 19 4 35 13 44c8 8 17 12 28 12s21 -3 30 -12c8 -8 12 -15 15 -38c11 -83 76 -122 158 -122c90 0 162 62 162 164
c0 100 -54 162 -168 162c-11 0 -23 3 -30 10c-9 9 -12 17 -12 29s3 20 12 29c7 7 17 10 30 10c100 0 152 58 152 152c0 100 -70 154 -148 154c-69 0 -115 -24 -136 -78c-5 -13 -8 -27 -12 -50c-5 -28 -24 -36 -42 -36c-28 0 -42 22 -42 52s14 69 29 92
c46 71 106 100 203 100c142 0 236 -90 236 -232z" />
    <glyph glyph-name="acute" unicode="&#xb4;" horiz-adv-x="1000" 
d="M690 1391l-108 -173c-9 -14 -16 -24 -25 -31s-18 -10 -29 -10c-9 0 -18 2 -27 8c-17 11 -25 25 -25 43c0 13 6 26 18 45l108 173c7 12 16 24 25 31s18 10 29 10c9 0 18 -2 27 -8c17 -11 25 -25 25 -43c0 -13 -6 -26 -18 -45z" />
    <glyph glyph-name="mu" unicode="&#xb5;" horiz-adv-x="1134" 
d="M836 62v52c-72 -84 -168 -126 -284 -126c-105 0 -193 31 -254 88v-474c0 -30 -5 -41 -12 -52c-8 -12 -24 -18 -40 -18s-30 6 -40 18c-8 10 -12 22 -12 52v1300c0 27 3 38 11 50s24 20 41 20s33 -8 41 -20s11 -23 11 -50v-534c0 -186 92 -288 266 -288s272 104 272 288
v534c0 27 3 38 11 50s24 20 41 20s33 -8 41 -20s11 -23 11 -50v-840c0 -27 -3 -38 -11 -50s-24 -20 -41 -20s-33 8 -41 20s-11 23 -11 50z" />
    <glyph glyph-name="paragraph" unicode="&#xb6;" horiz-adv-x="1158" 
d="M836 -398v1726h-244v-1726c0 -27 -3 -38 -11 -50s-24 -20 -41 -20s-33 8 -41 20s-11 23 -11 50v1062c-254 0 -398 192 -398 380c0 196 148 380 422 380h366c16 0 34 0 48 -14s14 -32 14 -48v-1760c0 -27 -3 -38 -11 -50s-24 -20 -41 -20s-33 8 -41 20s-11 23 -11 50z" />
    <glyph glyph-name="periodcentered" unicode="&#xb7;" horiz-adv-x="598" 
d="M299 436c-51 0 -92 41 -92 92s41 92 92 92s92 -41 92 -92s-41 -92 -92 -92z" />
    <glyph glyph-name="cedilla" unicode="&#xb8;" horiz-adv-x="1056" 
d="M551 -228l-108 -173c-9 -14 -16 -24 -25 -31s-18 -10 -29 -10c-9 0 -18 2 -27 8c-17 11 -25 25 -25 43c0 13 6 26 18 45l108 173c7 12 16 24 25 31s18 10 29 10c9 0 18 -2 27 -8c17 -11 25 -25 25 -43c0 -13 -6 -26 -18 -45z" />
    <glyph glyph-name="onesuperior" unicode="&#xb9;" horiz-adv-x="626" 
d="M304 623v687l-95 -94c-14 -14 -23 -21 -35 -23s-24 3 -33 12s-14 21 -12 33s9 21 23 35l128 128c18 18 39 31 62 31c13 0 27 -2 37 -14s13 -27 13 -45v-750c0 -23 -3 -35 -9 -43c-9 -12 -21 -18 -35 -18s-26 6 -35 18c-6 8 -9 20 -9 43z" />
    <glyph glyph-name="ordmasculine" unicode="&#xba;" horiz-adv-x="908" 
d="M764 1038c0 -110 -14 -226 -96 -308c-54 -54 -127 -84 -214 -84s-160 30 -214 84c-82 82 -96 198 -96 308s14 226 96 308c54 54 127 84 214 84s160 -30 214 -84c82 -82 96 -198 96 -308zM676 1038c0 86 -4 188 -66 250c-40 40 -94 64 -156 64s-116 -24 -156 -64
c-62 -62 -66 -164 -66 -250s4 -188 66 -250c40 -40 94 -64 156 -64s116 24 156 64c62 62 66 164 66 250z" />
    <glyph glyph-name="guillemotright" unicode="&#xbb;" horiz-adv-x="1097" 
d="M253 842l344 -344l-344 -344c-20 -20 -30 -26 -42 -28c-16 -2 -30 3 -41 14s-15 24 -13 40c2 12 8 22 28 42l276 276l-276 276c-20 20 -26 30 -28 42c-2 16 2 29 13 40s25 16 41 14c12 -2 22 -8 42 -28zM670 842l344 -344l-344 -344c-20 -20 -30 -26 -42 -28
c-16 -2 -30 3 -41 14s-15 24 -13 40c2 12 8 22 28 42l276 276l-276 276c-20 20 -26 30 -28 42c-2 16 2 29 13 40s25 16 41 14c12 -2 22 -8 42 -28z" />
    <glyph glyph-name="onequarter" unicode="&#xbc;" horiz-adv-x="1606" 
d="M435 65l665 1330c8 17 16 28 26 33c5 3 11 4 16 4c6 0 13 -2 19 -5c11 -6 19 -14 21 -27c2 -11 -1 -24 -10 -41l-665 -1330c-8 -17 -16 -28 -26 -33c-5 -3 -11 -4 -16 -4c-6 0 -13 2 -19 5c-11 6 -19 14 -21 27c-2 11 1 24 10 41zM304 623v687l-95 -94
c-14 -14 -23 -21 -35 -23s-24 3 -33 12s-14 21 -12 33s9 21 23 35l128 128c18 18 39 31 62 31c13 0 27 -2 37 -14s13 -27 13 -45v-750c0 -23 -3 -35 -9 -43c-9 -12 -21 -18 -35 -18s-26 6 -35 18c-6 8 -9 20 -9 43zM1029 209l306 614c11 22 23 39 45 39c19 0 41 -15 41 -37
c0 -12 -4 -23 -12 -39l-286 -572h248v192c0 19 2 32 9 41c8 11 18 15 31 15s23 -4 31 -15c7 -9 9 -22 9 -41v-192h60c19 0 32 -2 41 -9c11 -8 15 -18 15 -31s-4 -23 -15 -31c-9 -7 -22 -9 -41 -9h-60v-86c0 -19 -2 -32 -9 -41c-8 -11 -18 -15 -31 -15s-23 4 -31 15
c-7 9 -9 22 -9 41v86h-300c-16 0 -26 2 -35 7c-11 7 -18 20 -18 33c0 8 3 18 11 35z" />
    <glyph glyph-name="onehalf" unicode="&#xbd;" horiz-adv-x="1606" 
d="M435 65l665 1330c8 17 16 28 26 33c5 3 11 4 16 4c6 0 13 -2 19 -5c11 -6 19 -14 21 -27c2 -11 -1 -24 -10 -41l-665 -1330c-8 -17 -16 -28 -26 -33c-5 -3 -11 -4 -16 -4c-6 0 -13 2 -19 5c-11 6 -19 14 -21 27c-2 11 1 24 10 41zM304 623v687l-95 -94
c-14 -14 -23 -21 -35 -23s-24 3 -33 12s-14 21 -12 33s9 21 23 35l128 128c18 18 39 31 62 31c13 0 27 -2 37 -14s13 -27 13 -45v-750c0 -23 -3 -35 -9 -43c-9 -12 -21 -18 -35 -18s-26 6 -35 18c-6 8 -9 20 -9 43zM1497 0h-367c-27 0 -41 0 -55 14c-6 7 -10 18 -10 26
c0 15 8 26 25 49l316 421c30 40 45 76 45 121c0 92 -54 151 -147 151c-63 0 -127 -34 -141 -109c-3 -14 -6 -32 -14 -44c-7 -10 -17 -17 -34 -17c-15 0 -26 6 -33 16c-7 8 -8 18 -8 29c0 29 13 67 26 93c35 69 107 112 204 112c141 0 235 -91 235 -231
c0 -63 -20 -112 -62 -167l-293 -384h313c19 0 32 -2 41 -9c11 -8 15 -18 15 -31s-4 -23 -15 -31c-9 -7 -22 -9 -41 -9z" />
    <glyph glyph-name="threequarters" unicode="&#xbe;" horiz-adv-x="1606" 
d="M435 65l665 1330c8 17 16 28 26 33c5 3 11 4 16 4c6 0 13 -2 19 -5c11 -6 19 -14 21 -27c2 -11 -1 -24 -10 -41l-665 -1330c-8 -17 -16 -28 -26 -33c-5 -3 -11 -4 -16 -4c-6 0 -13 2 -19 5c-11 6 -19 14 -21 27c-2 11 1 24 10 41zM548 1200c0 -92 -38 -154 -114 -188
c86 -32 130 -100 130 -206c0 -158 -110 -244 -250 -244c-98 0 -173 40 -211 94c-19 26 -33 67 -33 102c0 19 4 35 13 44c8 8 17 12 28 12s21 -3 30 -12c8 -8 12 -15 15 -38c11 -83 76 -122 158 -122c90 0 162 62 162 164c0 100 -54 162 -168 162c-11 0 -23 3 -30 10
c-9 9 -12 17 -12 29s3 20 12 29c7 7 17 10 30 10c100 0 152 58 152 152c0 100 -70 154 -148 154c-69 0 -115 -24 -136 -78c-5 -13 -8 -27 -12 -50c-5 -28 -24 -36 -42 -36c-28 0 -42 22 -42 52s14 69 29 92c46 71 106 100 203 100c142 0 236 -90 236 -232zM1029 209l306 614
c11 22 23 39 45 39c19 0 41 -15 41 -37c0 -12 -4 -23 -12 -39l-286 -572h248v192c0 19 2 32 9 41c8 11 18 15 31 15s23 -4 31 -15c7 -9 9 -22 9 -41v-192h60c19 0 32 -2 41 -9c11 -8 15 -18 15 -31s-4 -23 -15 -31c-9 -7 -22 -9 -41 -9h-60v-86c0 -19 -2 -32 -9 -41
c-8 -11 -18 -15 -31 -15s-23 4 -31 15c-7 9 -9 22 -9 41v86h-300c-16 0 -26 2 -35 7c-11 7 -18 20 -18 33c0 8 3 18 11 35z" />
    <glyph glyph-name="questiondown" unicode="&#xbf;" horiz-adv-x="976" 
d="M444 970c44 0 80 -36 80 -80s-36 -80 -80 -80s-80 36 -80 80s36 80 80 80zM98 -120c0 92 37 162 88 238l168 248c33 48 38 98 38 154c0 27 3 38 11 50s24 20 41 20s33 -8 41 -20s11 -23 11 -50c0 -91 -6 -132 -58 -208l-168 -248c-40 -60 -68 -108 -68 -184
c0 -148 110 -262 256 -262c65 0 131 20 180 68c44 42 67 100 75 160c2 17 5 35 13 48c8 12 20 20 44 20c12 0 28 -6 36 -18s10 -24 10 -38c0 -81 -41 -170 -97 -228c-63 -64 -153 -102 -261 -102c-204 0 -360 152 -360 352z" />
    <glyph glyph-name="Agrave" unicode="&#xc0;" horiz-adv-x="1204" 
d="M61 85l478 1280c9 24 14 35 21 45c9 13 23 22 42 22s33 -9 42 -22c7 -10 12 -21 21 -45l478 -1280c11 -28 17 -56 -4 -77c-10 -10 -25 -16 -41 -16c-9 0 -18 3 -26 8c-13 9 -19 19 -30 47l-113 299h-654l-113 -299c-11 -28 -17 -38 -30 -47c-8 -5 -17 -8 -26 -8
c-16 0 -31 6 -41 16c-21 21 -15 49 -4 77zM895 442l-293 807l-293 -807h586zM546 1563l-86 138c-10 15 -15 26 -15 36c0 15 7 26 20 35c7 4 15 6 22 6c9 0 16 -2 23 -8s14 -15 20 -25l86 -138c10 -15 15 -26 15 -36c0 -15 -7 -26 -20 -35c-7 -4 -15 -6 -22 -6
c-9 0 -16 2 -23 8s-13 14 -20 25z" />
    <glyph glyph-name="Aacute" unicode="&#xc1;" horiz-adv-x="1204" 
d="M61 85l478 1280c9 24 14 35 21 45c9 13 23 22 42 22s33 -9 42 -22c7 -10 12 -21 21 -45l478 -1280c11 -28 17 -56 -4 -77c-10 -10 -25 -16 -41 -16c-9 0 -18 3 -26 8c-13 9 -19 19 -30 47l-113 299h-654l-113 -299c-11 -28 -17 -38 -30 -47c-8 -5 -17 -8 -26 -8
c-16 0 -31 6 -41 16c-21 21 -15 49 -4 77zM895 442l-293 807l-293 -807h586zM744 1701l-86 -138c-7 -11 -13 -19 -20 -25s-14 -8 -23 -8c-7 0 -15 2 -22 6c-13 9 -20 20 -20 35c0 10 5 21 15 36l86 138c6 10 13 19 20 25s14 8 23 8c7 0 15 -2 22 -6c13 -9 20 -20 20 -35
c0 -10 -5 -21 -15 -36z" />
    <glyph glyph-name="Acircumflex" unicode="&#xc2;" horiz-adv-x="1204" 
d="M61 85l478 1280c9 24 14 35 21 45c9 13 23 22 42 22s33 -9 42 -22c7 -10 12 -21 21 -45l478 -1280c11 -28 17 -56 -4 -77c-10 -10 -25 -16 -41 -16c-9 0 -18 3 -26 8c-13 9 -19 19 -30 47l-113 299h-654l-113 -299c-11 -28 -17 -38 -30 -47c-8 -5 -17 -8 -26 -8
c-16 0 -31 6 -41 16c-21 21 -15 49 -4 77zM895 442l-293 807l-293 -807h586zM736 1540l-134 134l-134 -134c-13 -13 -22 -18 -32 -20c-12 -1 -22 3 -30 11s-12 18 -10 30c1 10 6 18 20 32l151 151c9 9 19 19 35 19s26 -10 35 -19l151 -151c14 -14 19 -22 20 -32
c2 -12 -2 -22 -10 -30s-18 -12 -30 -11c-10 2 -19 7 -32 20z" />
    <glyph glyph-name="Atilde" unicode="&#xc3;" horiz-adv-x="1204" 
d="M61 85l478 1280c9 24 14 35 21 45c9 13 23 22 42 22s33 -9 42 -22c7 -10 12 -21 21 -45l478 -1280c11 -28 17 -56 -4 -77c-10 -10 -25 -16 -41 -16c-9 0 -18 3 -26 8c-13 9 -19 19 -30 47l-113 299h-654l-113 -299c-11 -28 -17 -38 -30 -47c-8 -5 -17 -8 -26 -8
c-16 0 -31 6 -41 16c-21 21 -15 49 -4 77zM895 442l-293 807l-293 -807h586zM594 1567c-25 19 -46 35 -72 35c-17 0 -30 -2 -56 -31c-11 -12 -20 -20 -30 -20c-7 0 -13 4 -17 8c-4 6 -8 13 -8 24c0 10 4 23 19 40c42 47 70 49 92 49c37 0 58 -14 88 -37
c25 -19 46 -35 72 -35c17 0 30 2 56 31c11 12 20 20 30 20c7 0 13 -4 17 -8c4 -6 8 -13 8 -24c0 -10 -4 -23 -19 -40c-42 -47 -70 -49 -92 -49c-37 0 -58 14 -88 37z" />
    <glyph glyph-name="Adieresis" unicode="&#xc4;" horiz-adv-x="1204" 
d="M61 85l478 1280c9 24 14 35 21 45c9 13 23 22 42 22s33 -9 42 -22c7 -10 12 -21 21 -45l478 -1280c11 -28 17 -56 -4 -77c-10 -10 -25 -16 -41 -16c-9 0 -18 3 -26 8c-13 9 -19 19 -30 47l-113 299h-654l-113 -299c-11 -28 -17 -38 -30 -47c-8 -5 -17 -8 -26 -8
c-16 0 -31 6 -41 16c-21 21 -15 49 -4 77zM895 442l-293 807l-293 -807h586zM394 1580c-41 0 -74 33 -74 74s33 74 74 74s74 -33 74 -74s-33 -74 -74 -74zM810 1580c-41 0 -74 33 -74 74s33 74 74 74s74 -33 74 -74s-33 -74 -74 -74z" />
    <glyph glyph-name="Aring" unicode="&#xc5;" horiz-adv-x="1204" 
d="M61 85l478 1280c9 24 14 35 21 45c9 13 23 22 42 22s33 -9 42 -22c7 -10 12 -21 21 -45l478 -1280c11 -28 17 -56 -4 -77c-10 -10 -25 -16 -41 -16c-9 0 -18 3 -26 8c-13 9 -19 19 -30 47l-113 299h-654l-113 -299c-11 -28 -17 -38 -30 -47c-8 -5 -17 -8 -26 -8
c-16 0 -31 6 -41 16c-21 21 -15 49 -4 77zM895 442l-293 807l-293 -807h586zM748 1720c0 81 -65 146 -146 146s-146 -65 -146 -146s65 -146 146 -146s146 65 146 146zM602 1492c-126 0 -228 102 -228 228s102 228 228 228s228 -102 228 -228s-102 -228 -228 -228z" />
    <glyph glyph-name="AE" unicode="&#xc6;" horiz-adv-x="1769" 
d="M65 85l638 1277c13 26 24 40 34 48c12 10 28 14 42 14h817c28 0 40 -3 50 -10c13 -10 19 -22 19 -38s-6 -28 -19 -38c-10 -7 -22 -10 -50 -10h-695v-562h583c28 0 40 -3 50 -10c13 -10 19 -22 19 -38s-6 -28 -19 -38c-10 -7 -22 -10 -50 -10h-583v-574h695
c28 0 40 -3 50 -10c13 -10 19 -22 19 -38s-6 -28 -19 -38c-10 -7 -22 -10 -50 -10h-739c-16 0 -34 0 -49 15s-15 33 -15 49v282h-485l-151 -307c-12 -24 -20 -34 -33 -42c-7 -4 -13 -5 -21 -5c-7 0 -16 2 -24 6c-16 8 -26 22 -28 36s2 27 14 51zM356 442h437v886z" />
    <glyph glyph-name="Ccedilla" unicode="&#xc7;" horiz-adv-x="1288" 
d="M164 712c0 346 10 456 142 588c84 84 204 136 346 136c190 0 311 -82 391 -186c49 -64 81 -151 81 -193c0 -17 -4 -29 -14 -39s-23 -14 -35 -14c-16 0 -26 5 -35 14c-11 11 -19 29 -26 51c-52 167 -182 271 -362 271c-104 0 -196 -36 -270 -110
c-102 -102 -110 -218 -110 -518s8 -416 110 -518c74 -74 166 -110 270 -110c180 0 310 104 362 271c7 22 15 40 26 51c9 9 19 14 35 14c12 0 25 -4 35 -14s14 -22 14 -39c0 -42 -32 -129 -81 -193c-80 -104 -201 -186 -391 -186c-142 0 -262 52 -346 136
c-132 132 -142 242 -142 588zM699 -228l-108 -173c-9 -14 -16 -24 -25 -31s-18 -10 -29 -10c-9 0 -18 2 -27 8c-17 11 -25 25 -25 43c0 13 6 26 18 45l108 173c7 12 16 24 25 31s18 10 29 10c9 0 18 -2 27 -8c17 -11 25 -25 25 -43c0 -13 -6 -26 -18 -45z" />
    <glyph glyph-name="Egrave" unicode="&#xc8;" horiz-adv-x="1196" 
d="M1023 0h-739c-16 0 -34 0 -49 15s-15 33 -15 49v1296c0 16 0 34 15 49s33 15 49 15h739c28 0 40 -3 50 -10c13 -10 19 -22 19 -38s-6 -28 -19 -38c-10 -7 -22 -10 -50 -10h-695v-562h583c28 0 40 -3 50 -10c13 -10 19 -22 19 -38s-6 -28 -19 -38c-10 -7 -22 -10 -50 -10
h-583v-574h695c28 0 40 -3 50 -10c13 -10 19 -22 19 -38s-6 -28 -19 -38c-10 -7 -22 -10 -50 -10zM630 1563l-86 138c-10 15 -15 26 -15 36c0 15 7 26 20 35c7 4 15 6 22 6c9 0 16 -2 23 -8s14 -15 20 -25l86 -138c10 -15 15 -26 15 -36c0 -15 -7 -26 -20 -35
c-7 -4 -15 -6 -22 -6c-9 0 -16 2 -23 8s-13 14 -20 25z" />
    <glyph glyph-name="Eacute" unicode="&#xc9;" horiz-adv-x="1196" 
d="M1023 0h-739c-16 0 -34 0 -49 15s-15 33 -15 49v1296c0 16 0 34 15 49s33 15 49 15h739c28 0 40 -3 50 -10c13 -10 19 -22 19 -38s-6 -28 -19 -38c-10 -7 -22 -10 -50 -10h-695v-562h583c28 0 40 -3 50 -10c13 -10 19 -22 19 -38s-6 -28 -19 -38c-10 -7 -22 -10 -50 -10
h-583v-574h695c28 0 40 -3 50 -10c13 -10 19 -22 19 -38s-6 -28 -19 -38c-10 -7 -22 -10 -50 -10zM768 1701l-86 -138c-7 -11 -13 -19 -20 -25s-14 -8 -23 -8c-7 0 -15 2 -22 6c-13 9 -20 20 -20 35c0 10 5 21 15 36l86 138c6 10 13 19 20 25s14 8 23 8c7 0 15 -2 22 -6
c13 -9 20 -20 20 -35c0 -10 -5 -21 -15 -36z" />
    <glyph glyph-name="Ecircumflex" unicode="&#xca;" horiz-adv-x="1196" 
d="M1023 0h-739c-16 0 -34 0 -49 15s-15 33 -15 49v1296c0 16 0 34 15 49s33 15 49 15h739c28 0 40 -3 50 -10c13 -10 19 -22 19 -38s-6 -28 -19 -38c-10 -7 -22 -10 -50 -10h-695v-562h583c28 0 40 -3 50 -10c13 -10 19 -22 19 -38s-6 -28 -19 -38c-10 -7 -22 -10 -50 -10
h-583v-574h695c28 0 40 -3 50 -10c13 -10 19 -22 19 -38s-6 -28 -19 -38c-10 -7 -22 -10 -50 -10zM760 1540l-134 134l-134 -134c-13 -13 -22 -18 -32 -20c-12 -1 -22 3 -30 11s-12 18 -10 30c1 10 6 18 20 32l151 151c9 9 19 19 35 19s26 -10 35 -19l151 -151
c14 -14 19 -22 20 -32c2 -12 -2 -22 -10 -30s-18 -12 -30 -11c-10 2 -19 7 -32 20z" />
    <glyph glyph-name="Edieresis" unicode="&#xcb;" horiz-adv-x="1196" 
d="M1023 0h-739c-16 0 -34 0 -49 15s-15 33 -15 49v1296c0 16 0 34 15 49s33 15 49 15h739c28 0 40 -3 50 -10c13 -10 19 -22 19 -38s-6 -28 -19 -38c-10 -7 -22 -10 -50 -10h-695v-562h583c28 0 40 -3 50 -10c13 -10 19 -22 19 -38s-6 -28 -19 -38c-10 -7 -22 -10 -50 -10
h-583v-574h695c28 0 40 -3 50 -10c13 -10 19 -22 19 -38s-6 -28 -19 -38c-10 -7 -22 -10 -50 -10zM418 1580c-41 0 -74 33 -74 74s33 74 74 74s74 -33 74 -74s-33 -74 -74 -74zM834 1580c-41 0 -74 33 -74 74s33 74 74 74s74 -33 74 -74s-33 -74 -74 -74z" />
    <glyph glyph-name="Igrave" unicode="&#xcc;" horiz-adv-x="548" 
d="M220 67v1290c0 31 3 41 12 55c9 13 23 20 42 20s33 -7 42 -20c9 -14 12 -24 12 -55v-1290c0 -31 -3 -41 -12 -55c-9 -13 -23 -20 -42 -20s-33 7 -42 20c-9 14 -12 24 -12 55zM218 1563l-86 138c-10 15 -15 26 -15 36c0 15 7 26 20 35c7 4 15 6 22 6c9 0 16 -2 23 -8
s14 -15 20 -25l86 -138c10 -15 15 -26 15 -36c0 -15 -7 -26 -20 -35c-7 -4 -15 -6 -22 -6c-9 0 -16 2 -23 8s-13 14 -20 25z" />
    <glyph glyph-name="Iacute" unicode="&#xcd;" horiz-adv-x="548" 
d="M220 67v1290c0 31 3 41 12 55c9 13 23 20 42 20s33 -7 42 -20c9 -14 12 -24 12 -55v-1290c0 -31 -3 -41 -12 -55c-9 -13 -23 -20 -42 -20s-33 7 -42 20c-9 14 -12 24 -12 55zM416 1701l-86 -138c-7 -11 -13 -19 -20 -25s-14 -8 -23 -8c-7 0 -15 2 -22 6
c-13 9 -20 20 -20 35c0 10 5 21 15 36l86 138c6 10 13 19 20 25s14 8 23 8c7 0 15 -2 22 -6c13 -9 20 -20 20 -35c0 -10 -5 -21 -15 -36z" />
    <glyph glyph-name="Icircumflex" unicode="&#xce;" horiz-adv-x="548" 
d="M220 67v1290c0 31 3 41 12 55c9 13 23 20 42 20s33 -7 42 -20c9 -14 12 -24 12 -55v-1290c0 -31 -3 -41 -12 -55c-9 -13 -23 -20 -42 -20s-33 7 -42 20c-9 14 -12 24 -12 55zM441 1576l-167 167l-167 -167c-17 -17 -28 -23 -40 -25c-15 -2 -28 3 -38 13s-15 23 -13 38
c2 12 8 23 25 40l189 189c11 11 24 24 44 24s33 -13 44 -24l189 -189c17 -17 23 -28 25 -40c2 -15 -3 -28 -13 -38s-23 -15 -38 -13c-12 2 -23 8 -40 25z" />
    <glyph glyph-name="Idieresis" unicode="&#xcf;" horiz-adv-x="548" 
d="M91 1580c-41 0 -74 33 -74 74s33 74 74 74s74 -33 74 -74s-33 -74 -74 -74zM457 1580c-41 0 -74 33 -74 74s33 74 74 74s74 -33 74 -74s-33 -74 -74 -74zM220 67v1290c0 31 3 41 12 55c9 13 23 20 42 20s33 -7 42 -20c9 -14 12 -24 12 -55v-1290c0 -31 -3 -41 -12 -55
c-9 -13 -23 -20 -42 -20s-33 7 -42 20c-9 14 -12 24 -12 55z" />
    <glyph glyph-name="Eth" unicode="&#xd0;" horiz-adv-x="1378" 
d="M720 0h-414c-16 0 -34 0 -49 15s-15 33 -15 49v608h-106c-24 0 -36 3 -46 10c-12 9 -18 21 -18 36s6 27 18 36c10 7 22 10 46 10h106v596c0 16 0 34 15 49s33 15 49 15h414c150 0 270 -44 356 -130c136 -136 138 -370 138 -582s-2 -446 -138 -582
c-86 -86 -206 -130 -356 -130zM350 96h344c114 0 224 24 306 110c106 112 106 318 106 506s0 394 -106 506c-82 86 -192 110 -306 110h-344v-564h300c24 0 36 -3 46 -10c12 -9 18 -21 18 -36s-6 -27 -18 -36c-10 -7 -22 -10 -46 -10h-300v-576z" />
    <glyph glyph-name="Ntilde" unicode="&#xd1;" horiz-adv-x="1478" 
d="M1258 67c0 -30 -7 -46 -19 -58c-10 -10 -26 -17 -42 -17c-27 0 -45 16 -60 38l-809 1196v-1159c0 -31 -3 -41 -12 -55c-9 -13 -23 -20 -42 -20s-33 7 -42 20c-9 14 -12 24 -12 55v1290c0 30 7 46 19 58c10 10 26 17 42 17c27 0 45 -16 60 -38l809 -1196v1159
c0 31 3 41 12 55c9 13 23 20 42 20s33 -7 42 -20c9 -14 12 -24 12 -55v-1290zM726 1623c-38 23 -72 43 -112 43c-26 0 -47 -2 -88 -38c-17 -15 -31 -26 -46 -26c-11 0 -21 5 -27 11c-7 7 -13 16 -13 29s6 29 30 50c66 59 110 62 144 62c58 0 90 -18 138 -47
c38 -23 72 -43 112 -43c26 0 47 2 88 38c17 15 31 26 46 26c11 0 21 -5 27 -11c7 -7 13 -16 13 -29s-6 -29 -30 -50c-66 -59 -110 -62 -144 -62c-58 0 -90 18 -138 47z" />
    <glyph glyph-name="Ograve" unicode="&#xd2;" horiz-adv-x="1304" 
d="M998 124c-84 -84 -204 -136 -346 -136s-262 52 -346 136c-132 132 -142 242 -142 588s10 456 142 588c84 84 204 136 346 136s262 -52 346 -136c132 -132 142 -242 142 -588s-10 -456 -142 -588zM922 194c102 102 110 218 110 518s-8 416 -110 518
c-74 74 -166 110 -270 110s-196 -36 -270 -110c-102 -102 -110 -218 -110 -518s8 -416 110 -518c74 -74 166 -110 270 -110s196 36 270 110zM596 1563l-86 138c-10 15 -15 26 -15 36c0 15 7 26 20 35c7 4 15 6 22 6c9 0 16 -2 23 -8s14 -15 20 -25l86 -138
c10 -15 15 -26 15 -36c0 -15 -7 -26 -20 -35c-7 -4 -15 -6 -22 -6c-9 0 -16 2 -23 8s-13 14 -20 25z" />
    <glyph glyph-name="Oacute" unicode="&#xd3;" horiz-adv-x="1304" 
d="M998 124c-84 -84 -204 -136 -346 -136s-262 52 -346 136c-132 132 -142 242 -142 588s10 456 142 588c84 84 204 136 346 136s262 -52 346 -136c132 -132 142 -242 142 -588s-10 -456 -142 -588zM922 194c102 102 110 218 110 518s-8 416 -110 518
c-74 74 -166 110 -270 110s-196 -36 -270 -110c-102 -102 -110 -218 -110 -518s8 -416 110 -518c74 -74 166 -110 270 -110s196 36 270 110zM794 1701l-86 -138c-7 -11 -13 -19 -20 -25s-14 -8 -23 -8c-7 0 -15 2 -22 6c-13 9 -20 20 -20 35c0 10 5 21 15 36l86 138
c6 10 13 19 20 25s14 8 23 8c7 0 15 -2 22 -6c13 -9 20 -20 20 -35c0 -10 -5 -21 -15 -36z" />
    <glyph glyph-name="Ocircumflex" unicode="&#xd4;" horiz-adv-x="1304" 
d="M998 124c-84 -84 -204 -136 -346 -136s-262 52 -346 136c-132 132 -142 242 -142 588s10 456 142 588c84 84 204 136 346 136s262 -52 346 -136c132 -132 142 -242 142 -588s-10 -456 -142 -588zM922 194c102 102 110 218 110 518s-8 416 -110 518
c-74 74 -166 110 -270 110s-196 -36 -270 -110c-102 -102 -110 -218 -110 -518s8 -416 110 -518c74 -74 166 -110 270 -110s196 36 270 110zM786 1540l-134 134l-134 -134c-13 -13 -22 -18 -32 -20c-12 -1 -22 3 -30 11s-12 18 -10 30c1 10 6 18 20 32l151 151
c9 9 19 19 35 19s26 -10 35 -19l151 -151c14 -14 19 -22 20 -32c2 -12 -2 -22 -10 -30s-18 -12 -30 -11c-10 2 -19 7 -32 20z" />
    <glyph glyph-name="Otilde" unicode="&#xd5;" horiz-adv-x="1304" 
d="M998 124c-84 -84 -204 -136 -346 -136s-262 52 -346 136c-132 132 -142 242 -142 588s10 456 142 588c84 84 204 136 346 136s262 -52 346 -136c132 -132 142 -242 142 -588s-10 -456 -142 -588zM922 194c102 102 110 218 110 518s-8 416 -110 518
c-74 74 -166 110 -270 110s-196 -36 -270 -110c-102 -102 -110 -218 -110 -518s8 -416 110 -518c74 -74 166 -110 270 -110s196 36 270 110zM654 1567c-25 19 -46 35 -72 35c-17 0 -30 -2 -56 -31c-11 -12 -20 -20 -30 -20c-7 0 -13 4 -17 8c-4 6 -8 13 -8 24
c0 10 4 23 19 40c42 47 70 49 92 49c37 0 58 -14 88 -37c25 -19 46 -35 72 -35c17 0 30 2 56 31c11 12 20 20 30 20c7 0 13 -4 17 -8c4 -6 8 -13 8 -24c0 -10 -4 -23 -19 -40c-42 -47 -70 -49 -92 -49c-37 0 -58 14 -88 37z" />
    <glyph glyph-name="Odieresis" unicode="&#xd6;" horiz-adv-x="1304" 
d="M998 124c-84 -84 -204 -136 -346 -136s-262 52 -346 136c-132 132 -142 242 -142 588s10 456 142 588c84 84 204 136 346 136s262 -52 346 -136c132 -132 142 -242 142 -588s-10 -456 -142 -588zM922 194c102 102 110 218 110 518s-8 416 -110 518
c-74 74 -166 110 -270 110s-196 -36 -270 -110c-102 -102 -110 -218 -110 -518s8 -416 110 -518c74 -74 166 -110 270 -110s196 36 270 110zM444 1580c-41 0 -74 33 -74 74s33 74 74 74s74 -33 74 -74s-33 -74 -74 -74zM860 1580c-41 0 -74 33 -74 74s33 74 74 74
s74 -33 74 -74s-33 -74 -74 -74z" />
    <glyph glyph-name="multiply" unicode="&#xd7;" 
d="M860 235c2 -16 -2 -29 -13 -40s-25 -16 -41 -14c-12 2 -22 8 -42 28l-250 250l-250 -250c-20 -20 -30 -26 -42 -28c-16 -2 -29 2 -40 13s-16 25 -14 41c2 12 8 22 28 42l250 250l-250 250c-20 20 -26 30 -28 42c-2 16 2 29 13 40s25 16 41 14c12 -2 22 -8 42 -28
l250 -250l250 250c20 20 30 26 42 28c16 2 29 -2 40 -13s16 -25 14 -41c-2 -12 -8 -22 -28 -42l-250 -250l250 -250c20 -20 26 -30 28 -42z" />
    <glyph glyph-name="Oslash" unicode="&#xd8;" horiz-adv-x="1304" 
d="M652 -12c-99 0 -187 25 -260 69l-54 -107c-12 -24 -21 -34 -32 -40c-15 -8 -28 -7 -42 0s-22 18 -25 34c-2 12 1 25 13 49l62 124c-140 137 -150 249 -150 595s10 456 142 588c84 84 204 136 346 136c99 0 187 -25 260 -69l54 107c12 24 21 34 32 40c15 8 28 7 42 0
s22 -18 25 -34c2 -12 -1 -25 -13 -49l-62 -124c140 -137 150 -249 150 -595s-10 -456 -142 -588c-84 -84 -204 -136 -346 -136zM362 216l506 1059c-63 44 -136 65 -216 65c-104 0 -196 -36 -270 -110c-102 -102 -110 -218 -110 -518c0 -279 7 -398 90 -496zM652 84
c104 0 196 36 270 110c102 102 110 218 110 518c0 279 -7 398 -90 496l-506 -1059c63 -44 136 -65 216 -65z" />
    <glyph glyph-name="Ugrave" unicode="&#xd9;" horiz-adv-x="1376" 
d="M1068 476v881c0 31 3 41 12 55c9 13 23 20 42 20s33 -7 42 -20c9 -14 12 -24 12 -55v-895c0 -278 -202 -474 -488 -474s-488 196 -488 474v895c0 31 3 41 12 55c9 13 23 20 42 20s33 -7 42 -20c9 -14 12 -24 12 -55v-881c0 -236 152 -392 380 -392s380 156 380 392z
M631 1563l-86 138c-10 15 -15 26 -15 36c0 15 7 26 20 35c7 4 15 6 22 6c9 0 16 -2 23 -8s14 -15 20 -25l86 -138c10 -15 15 -26 15 -36c0 -15 -7 -26 -20 -35c-7 -4 -15 -6 -22 -6c-9 0 -16 2 -23 8s-13 14 -20 25z" />
    <glyph glyph-name="Uacute" unicode="&#xda;" horiz-adv-x="1376" 
d="M1068 476v881c0 31 3 41 12 55c9 13 23 20 42 20s33 -7 42 -20c9 -14 12 -24 12 -55v-895c0 -278 -202 -474 -488 -474s-488 196 -488 474v895c0 31 3 41 12 55c9 13 23 20 42 20s33 -7 42 -20c9 -14 12 -24 12 -55v-881c0 -236 152 -392 380 -392s380 156 380 392z
M829 1701l-86 -138c-7 -11 -13 -19 -20 -25s-14 -8 -23 -8c-7 0 -15 2 -22 6c-13 9 -20 20 -20 35c0 10 5 21 15 36l86 138c6 10 13 19 20 25s14 8 23 8c7 0 15 -2 22 -6c13 -9 20 -20 20 -35c0 -10 -5 -21 -15 -36z" />
    <glyph glyph-name="Ucircumflex" unicode="&#xdb;" horiz-adv-x="1376" 
d="M1068 476v881c0 31 3 41 12 55c9 13 23 20 42 20s33 -7 42 -20c9 -14 12 -24 12 -55v-895c0 -278 -202 -474 -488 -474s-488 196 -488 474v895c0 31 3 41 12 55c9 13 23 20 42 20s33 -7 42 -20c9 -14 12 -24 12 -55v-881c0 -236 152 -392 380 -392s380 156 380 392z
M854 1576l-167 167l-167 -167c-17 -17 -28 -23 -40 -25c-15 -2 -28 3 -38 13s-15 23 -13 38c2 12 8 23 25 40l189 189c11 11 24 24 44 24s33 -13 44 -24l189 -189c17 -17 23 -28 25 -40c2 -15 -3 -28 -13 -38s-23 -15 -38 -13c-12 2 -23 8 -40 25z" />
    <glyph glyph-name="Udieresis" unicode="&#xdc;" horiz-adv-x="1376" 
d="M1068 476v881c0 31 3 41 12 55c9 13 23 20 42 20s33 -7 42 -20c9 -14 12 -24 12 -55v-895c0 -278 -202 -474 -488 -474s-488 196 -488 474v895c0 31 3 41 12 55c9 13 23 20 42 20s33 -7 42 -20c9 -14 12 -24 12 -55v-881c0 -236 152 -392 380 -392s380 156 380 392z
M479 1580c-41 0 -74 33 -74 74s33 74 74 74s74 -33 74 -74s-33 -74 -74 -74zM895 1580c-41 0 -74 33 -74 74s33 74 74 74s74 -33 74 -74s-33 -74 -74 -74z" />
    <glyph glyph-name="Yacute" unicode="&#xdd;" horiz-adv-x="988" 
d="M440 67v518l-377 754c-12 24 -16 37 -14 51s12 28 28 36c8 4 17 6 24 6c8 0 14 -1 21 -5c13 -8 21 -18 33 -42l339 -678l339 678c12 24 20 34 33 42c7 4 13 5 21 5c7 0 16 -2 24 -6c16 -8 26 -22 28 -36s-2 -27 -14 -51l-377 -754v-518c0 -31 -3 -41 -12 -55
c-9 -13 -23 -20 -42 -20s-33 7 -42 20c-9 14 -12 24 -12 55zM636 1701l-86 -138c-7 -11 -13 -19 -20 -25s-14 -8 -23 -8c-7 0 -15 2 -22 6c-13 9 -20 20 -20 35c0 10 5 21 15 36l86 138c6 10 13 19 20 25s14 8 23 8c7 0 15 -2 22 -6c13 -9 20 -20 20 -35
c0 -10 -5 -21 -15 -36z" />
    <glyph glyph-name="Thorn" unicode="&#xde;" horiz-adv-x="1292" 
d="M742 308h-414v-241c0 -31 -3 -41 -12 -55c-9 -13 -23 -20 -42 -20s-33 7 -42 20c-9 14 -12 24 -12 55v1290c0 31 3 41 12 55c9 13 23 20 42 20s33 -7 42 -20c9 -14 12 -24 12 -55v-229h414c246 0 430 -148 430 -410c0 -260 -184 -410 -430 -410zM328 404h402
c198 0 334 100 334 314s-136 314 -334 314h-402v-628z" />
    <glyph glyph-name="germandbls" unicode="&#xdf;" horiz-adv-x="1100" 
d="M670 818h-45c-25 0 -36 4 -44 10c-12 9 -17 20 -17 34s5 25 17 34c8 6 19 10 44 10h25c118 0 196 83 196 206c0 66 -27 129 -70 170c-46 43 -114 64 -208 64c-192 0 -270 -122 -270 -298v-986c0 -27 -3 -38 -11 -50s-24 -20 -41 -20s-33 8 -41 20s-11 23 -11 50v986
c0 240 144 388 386 388c198 0 368 -100 368 -324c0 -106 -40 -186 -126 -244c104 -56 128 -118 128 -248v-352c0 -86 -30 -156 -78 -200c-54 -48 -106 -68 -190 -68h-50c-27 0 -40 3 -50 10c-12 9 -18 21 -18 36s6 27 18 36c10 7 22 10 46 10h39c54 0 102 17 132 47
c34 32 47 74 47 138v357c0 64 -12 105 -46 137c-30 30 -76 47 -130 47z" />
    <glyph glyph-name="agrave" unicode="&#xe0;" horiz-adv-x="1048" 
d="M760 62v34c-82 -82 -161 -108 -294 -108c-143 0 -223 24 -285 88c-44 46 -71 114 -71 190c0 175 130 278 333 278h317v92c0 162 -74 250 -262 250c-116 0 -174 -31 -243 -100c-22 -22 -39 -26 -53 -26c-12 0 -24 4 -32 12s-14 16 -14 34c0 28 30 63 92 105
c68 46 144 65 250 65c242 0 366 -112 366 -316v-598c0 -27 -3 -38 -11 -50s-24 -20 -41 -20s-33 8 -41 20s-11 23 -11 50zM760 336v123h-310c-156 0 -236 -67 -236 -193c0 -127 82 -188 252 -188c88 0 172 8 240 74c36 34 54 94 54 184zM442 1143l-86 138
c-10 15 -15 26 -15 36c0 15 7 26 20 35c7 4 15 6 22 6c9 0 16 -2 23 -8s14 -15 20 -25l86 -138c10 -15 15 -26 15 -36c0 -15 -7 -26 -20 -35c-7 -4 -15 -6 -22 -6c-9 0 -16 2 -23 8s-13 14 -20 25z" />
    <glyph glyph-name="aacute" unicode="&#xe1;" horiz-adv-x="1048" 
d="M760 62v34c-82 -82 -161 -108 -294 -108c-143 0 -223 24 -285 88c-44 46 -71 114 -71 190c0 175 130 278 333 278h317v92c0 162 -74 250 -262 250c-116 0 -174 -31 -243 -100c-22 -22 -39 -26 -53 -26c-12 0 -24 4 -32 12s-14 16 -14 34c0 28 30 63 92 105
c68 46 144 65 250 65c242 0 366 -112 366 -316v-598c0 -27 -3 -38 -11 -50s-24 -20 -41 -20s-33 8 -41 20s-11 23 -11 50zM760 336v123h-310c-156 0 -236 -67 -236 -193c0 -127 82 -188 252 -188c88 0 172 8 240 74c36 34 54 94 54 184zM640 1281l-86 -138
c-7 -11 -13 -19 -20 -25s-14 -8 -23 -8c-7 0 -15 2 -22 6c-13 9 -20 20 -20 35c0 10 5 21 15 36l86 138c6 10 13 19 20 25s14 8 23 8c7 0 15 -2 22 -6c13 -9 20 -20 20 -35c0 -10 -5 -21 -15 -36z" />
    <glyph glyph-name="acircumflex" unicode="&#xe2;" horiz-adv-x="1048" 
d="M760 62v34c-82 -82 -161 -108 -294 -108c-143 0 -223 24 -285 88c-44 46 -71 114 -71 190c0 175 130 278 333 278h317v92c0 162 -74 250 -262 250c-116 0 -174 -31 -243 -100c-22 -22 -39 -26 -53 -26c-12 0 -24 4 -32 12s-14 16 -14 34c0 28 30 63 92 105
c68 46 144 65 250 65c242 0 366 -112 366 -316v-598c0 -27 -3 -38 -11 -50s-24 -20 -41 -20s-33 8 -41 20s-11 23 -11 50zM760 336v123h-310c-156 0 -236 -67 -236 -193c0 -127 82 -188 252 -188c88 0 172 8 240 74c36 34 54 94 54 184zM632 1120l-134 134l-134 -134
c-13 -13 -22 -18 -32 -20c-12 -1 -22 3 -30 11s-12 18 -10 30c1 10 6 18 20 32l151 151c9 9 19 19 35 19s26 -10 35 -19l151 -151c14 -14 19 -22 20 -32c2 -12 -2 -22 -10 -30s-18 -12 -30 -11c-10 2 -19 7 -32 20z" />
    <glyph glyph-name="atilde" unicode="&#xe3;" horiz-adv-x="1048" 
d="M760 62v34c-82 -82 -161 -108 -294 -108c-143 0 -223 24 -285 88c-44 46 -71 114 -71 190c0 175 130 278 333 278h317v92c0 162 -74 250 -262 250c-116 0 -174 -31 -243 -100c-22 -22 -39 -26 -53 -26c-12 0 -24 4 -32 12s-14 16 -14 34c0 28 30 63 92 105
c68 46 144 65 250 65c242 0 366 -112 366 -316v-598c0 -27 -3 -38 -11 -50s-24 -20 -41 -20s-33 8 -41 20s-11 23 -11 50zM760 336v123h-310c-156 0 -236 -67 -236 -193c0 -127 82 -188 252 -188c88 0 172 8 240 74c36 34 54 94 54 184zM504 1147c-25 19 -46 35 -72 35
c-17 0 -30 -2 -56 -31c-11 -12 -20 -20 -30 -20c-7 0 -13 4 -17 8c-4 6 -8 13 -8 24c0 10 4 23 19 40c42 47 70 49 92 49c37 0 58 -14 88 -37c25 -19 46 -35 72 -35c17 0 30 2 56 31c11 12 20 20 30 20c7 0 13 -4 17 -8c4 -6 8 -13 8 -24c0 -10 -4 -23 -19 -40
c-42 -47 -70 -49 -92 -49c-37 0 -58 14 -88 37z" />
    <glyph glyph-name="adieresis" unicode="&#xe4;" horiz-adv-x="1048" 
d="M760 62v34c-82 -82 -161 -108 -294 -108c-143 0 -223 24 -285 88c-44 46 -71 114 -71 190c0 175 130 278 333 278h317v92c0 162 -74 250 -262 250c-116 0 -174 -31 -243 -100c-22 -22 -39 -26 -53 -26c-12 0 -24 4 -32 12s-14 16 -14 34c0 28 30 63 92 105
c68 46 144 65 250 65c242 0 366 -112 366 -316v-598c0 -27 -3 -38 -11 -50s-24 -20 -41 -20s-33 8 -41 20s-11 23 -11 50zM760 336v123h-310c-156 0 -236 -67 -236 -193c0 -127 82 -188 252 -188c88 0 172 8 240 74c36 34 54 94 54 184zM290 1200c-41 0 -74 33 -74 74
s33 74 74 74s74 -33 74 -74s-33 -74 -74 -74zM706 1200c-41 0 -74 33 -74 74s33 74 74 74s74 -33 74 -74s-33 -74 -74 -74z" />
    <glyph glyph-name="aring" unicode="&#xe5;" horiz-adv-x="1048" 
d="M760 62v34c-82 -82 -161 -108 -294 -108c-143 0 -223 24 -285 88c-44 46 -71 114 -71 190c0 175 130 278 333 278h317v92c0 162 -74 250 -262 250c-116 0 -174 -31 -243 -100c-22 -22 -39 -26 -53 -26c-12 0 -24 4 -32 12s-14 16 -14 34c0 28 30 63 92 105
c68 46 144 65 250 65c242 0 366 -112 366 -316v-598c0 -27 -3 -38 -11 -50s-24 -20 -41 -20s-33 8 -41 20s-11 23 -11 50zM760 336v123h-310c-156 0 -236 -67 -236 -193c0 -127 82 -188 252 -188c88 0 172 8 240 74c36 34 54 94 54 184zM644 1354c0 81 -65 146 -146 146
s-146 -65 -146 -146s65 -146 146 -146s146 65 146 146zM498 1126c-126 0 -228 102 -228 228s102 228 228 228s228 -102 228 -228s-102 -228 -228 -228z" />
    <glyph glyph-name="ae" unicode="&#xe6;" horiz-adv-x="1667" 
d="M1471 459h-608c0 -244 110 -379 314 -379c81 0 160 22 222 76c28 25 39 34 58 34c24 0 46 -23 46 -46c0 -43 -70 -86 -102 -104c-54 -31 -134 -52 -230 -52c-167 0 -280 60 -347 180c-80 -130 -180 -180 -358 -180c-143 0 -223 24 -285 88c-44 46 -71 114 -71 190
c0 175 130 278 333 278h317v92c0 162 -74 250 -262 250c-116 0 -174 -31 -243 -100c-22 -22 -39 -26 -53 -26c-12 0 -24 4 -32 12s-14 16 -14 34c0 28 30 63 92 105c68 46 144 65 250 65c174 0 287 -59 337 -168c66 110 174 168 312 168c239 0 386 -177 386 -455
c0 -13 0 -34 -14 -48s-32 -14 -48 -14zM760 336v123h-310c-156 0 -236 -67 -236 -193c0 -127 82 -188 252 -188c88 0 172 8 240 74c36 34 54 94 54 184zM863 544h568c-4 80 -10 119 -34 179c-40 100 -136 161 -250 161s-210 -62 -250 -161c-24 -60 -30 -99 -34 -179z" />
    <glyph glyph-name="ccedilla" unicode="&#xe7;" horiz-adv-x="983" 
d="M813 79c-69 -60 -146 -91 -252 -91c-266 0 -423 188 -423 494s157 494 423 494c106 0 183 -31 252 -91c37 -32 51 -49 51 -74c0 -12 -7 -25 -16 -33s-20 -12 -32 -12c-19 0 -32 11 -63 38c-68 60 -120 80 -192 80c-108 0 -195 -42 -253 -126c-48 -70 -66 -146 -66 -276
s18 -206 66 -276c58 -84 145 -126 253 -126c72 0 124 20 192 80c31 27 44 38 63 38c12 0 23 -4 32 -12s16 -21 16 -33c0 -25 -14 -42 -51 -74zM586 -228l-108 -173c-9 -14 -16 -24 -25 -31s-18 -10 -29 -10c-9 0 -18 2 -27 8c-17 11 -25 25 -25 43c0 13 6 26 18 45l108 173
c7 12 16 24 25 31s18 10 29 10c9 0 18 -2 27 -8c17 -11 25 -25 25 -43c0 -13 -6 -26 -18 -45z" />
    <glyph glyph-name="egrave" unicode="&#xe8;" horiz-adv-x="1046" 
d="M850 460h-608c0 -244 110 -380 314 -380c81 0 160 22 222 76c28 25 39 34 58 34c24 0 46 -23 46 -46c0 -43 -70 -86 -102 -104c-54 -31 -134 -52 -230 -52c-266 0 -412 172 -412 494c0 318 148 494 388 494c239 0 386 -176 386 -454c0 -13 0 -34 -14 -48s-32 -14 -48 -14
zM242 546h568c-4 80 -10 117 -34 177c-40 100 -136 161 -250 161s-210 -62 -250 -161c-24 -60 -30 -97 -34 -177zM490 1143l-86 138c-10 15 -15 26 -15 36c0 15 7 26 20 35c7 4 15 6 22 6c9 0 16 -2 23 -8s14 -15 20 -25l86 -138c10 -15 15 -26 15 -36c0 -15 -7 -26 -20 -35
c-7 -4 -15 -6 -22 -6c-9 0 -16 2 -23 8s-13 14 -20 25z" />
    <glyph glyph-name="eacute" unicode="&#xe9;" horiz-adv-x="1046" 
d="M850 460h-608c0 -244 110 -380 314 -380c81 0 160 22 222 76c28 25 39 34 58 34c24 0 46 -23 46 -46c0 -43 -70 -86 -102 -104c-54 -31 -134 -52 -230 -52c-266 0 -412 172 -412 494c0 318 148 494 388 494c239 0 386 -176 386 -454c0 -13 0 -34 -14 -48s-32 -14 -48 -14
zM242 546h568c-4 80 -10 117 -34 177c-40 100 -136 161 -250 161s-210 -62 -250 -161c-24 -60 -30 -97 -34 -177zM668 1281l-86 -138c-7 -11 -13 -19 -20 -25s-14 -8 -23 -8c-7 0 -15 2 -22 6c-13 9 -20 20 -20 35c0 10 5 21 15 36l86 138c6 10 13 19 20 25s14 8 23 8
c7 0 15 -2 22 -6c13 -9 20 -20 20 -35c0 -10 -5 -21 -15 -36z" />
    <glyph glyph-name="ecircumflex" unicode="&#xea;" horiz-adv-x="1046" 
d="M850 460h-608c0 -244 110 -380 314 -380c81 0 160 22 222 76c28 25 39 34 58 34c24 0 46 -23 46 -46c0 -43 -70 -86 -102 -104c-54 -31 -134 -52 -230 -52c-266 0 -412 172 -412 494c0 318 148 494 388 494c239 0 386 -176 386 -454c0 -13 0 -34 -14 -48s-32 -14 -48 -14
zM242 546h568c-4 80 -10 117 -34 177c-40 100 -136 161 -250 161s-210 -62 -250 -161c-24 -60 -30 -97 -34 -177zM660 1120l-134 134l-134 -134c-13 -13 -22 -18 -32 -20c-12 -1 -22 3 -30 11s-12 18 -10 30c1 10 6 18 20 32l151 151c9 9 19 19 35 19s26 -10 35 -19
l151 -151c14 -14 19 -22 20 -32c2 -12 -2 -22 -10 -30s-18 -12 -30 -11c-10 2 -19 7 -32 20z" />
    <glyph glyph-name="edieresis" unicode="&#xeb;" horiz-adv-x="1046" 
d="M850 460h-608c0 -244 110 -380 314 -380c81 0 160 22 222 76c28 25 39 34 58 34c24 0 46 -23 46 -46c0 -43 -70 -86 -102 -104c-54 -31 -134 -52 -230 -52c-266 0 -412 172 -412 494c0 318 148 494 388 494c239 0 386 -176 386 -454c0 -13 0 -34 -14 -48s-32 -14 -48 -14
zM242 546h568c-4 80 -10 117 -34 177c-40 100 -136 161 -250 161s-210 -62 -250 -161c-24 -60 -30 -97 -34 -177zM318 1200c-41 0 -74 33 -74 74s33 74 74 74s74 -33 74 -74s-33 -74 -74 -74zM734 1200c-41 0 -74 33 -74 74s33 74 74 74s74 -33 74 -74s-33 -74 -74 -74z" />
    <glyph glyph-name="igrave" unicode="&#xec;" horiz-adv-x="492" 
d="M194 62v840c0 27 3 38 11 50s24 20 41 20s33 -8 41 -20s11 -23 11 -50v-840c0 -27 -3 -38 -11 -50s-24 -20 -41 -20s-33 8 -41 20s-11 23 -11 50zM190 1143l-86 138c-10 15 -15 26 -15 36c0 15 7 26 20 35c7 4 15 6 22 6c9 0 16 -2 23 -8s14 -15 20 -25l86 -138
c10 -15 15 -26 15 -36c0 -15 -7 -26 -20 -35c-7 -4 -15 -6 -22 -6c-9 0 -16 2 -23 8s-13 14 -20 25z" />
    <glyph glyph-name="iacute" unicode="&#xed;" horiz-adv-x="492" 
d="M194 62v840c0 27 3 38 11 50s24 20 41 20s33 -8 41 -20s11 -23 11 -50v-840c0 -27 -3 -38 -11 -50s-24 -20 -41 -20s-33 8 -41 20s-11 23 -11 50zM388 1281l-86 -138c-7 -11 -13 -19 -20 -25s-14 -8 -23 -8c-7 0 -15 2 -22 6c-13 9 -20 20 -20 35c0 10 5 21 15 36l86 138
c6 10 13 19 20 25s14 8 23 8c7 0 15 -2 22 -6c13 -9 20 -20 20 -35c0 -10 -5 -21 -15 -36z" />
    <glyph glyph-name="icircumflex" unicode="&#xee;" horiz-adv-x="492" 
d="M194 62v840c0 27 3 38 11 50s24 20 41 20s33 -8 41 -20s11 -23 11 -50v-840c0 -27 -3 -38 -11 -50s-24 -20 -41 -20s-33 8 -41 20s-11 23 -11 50zM413 1196l-167 167l-167 -167c-17 -17 -28 -23 -40 -25c-15 -2 -28 3 -38 13s-15 23 -13 38c2 12 8 23 25 40l189 189
c11 11 24 24 44 24s33 -13 44 -24l189 -189c17 -17 23 -28 25 -40c2 -15 -3 -28 -13 -38s-23 -15 -38 -13c-12 2 -23 8 -40 25z" />
    <glyph glyph-name="idieresis" unicode="&#xef;" horiz-adv-x="492" 
d="M63 1200c-41 0 -74 33 -74 74s33 74 74 74s74 -33 74 -74s-33 -74 -74 -74zM429 1200c-41 0 -74 33 -74 74s33 74 74 74s74 -33 74 -74s-33 -74 -74 -74zM194 62v840c0 27 3 38 11 50s24 20 41 20s33 -8 41 -20s11 -23 11 -50v-840c0 -27 -3 -38 -11 -50s-24 -20 -41 -20
s-33 8 -41 20s-11 23 -11 50z" />
    <glyph glyph-name="eth" unicode="&#xf0;" horiz-adv-x="1052" 
d="M533 1228l-57 115c-10 20 -14 32 -14 44c0 27 23 45 45 45c9 0 17 -2 24 -6c12 -7 19 -16 31 -40l79 -158h115c19 0 32 -2 41 -9c11 -8 15 -18 15 -31s-4 -23 -15 -31c-9 -7 -22 -9 -41 -9h-75l150 -300c69 -138 85 -222 85 -366c0 -138 -20 -286 -122 -388
c-68 -68 -160 -106 -268 -106s-200 38 -268 106c-102 102 -122 250 -122 388s20 286 122 388c68 68 160 106 268 106c50 0 110 -10 150 -34l-103 206h-193c-19 0 -32 2 -41 9c-11 8 -15 18 -15 31s4 23 15 31c9 7 22 9 41 9h153zM726 160c80 80 86 210 86 322
s-6 242 -86 322c-52 52 -122 82 -200 82s-148 -30 -200 -82c-80 -80 -86 -210 -86 -322s6 -242 86 -322c52 -52 122 -82 200 -82s148 30 200 82z" />
    <glyph glyph-name="ntilde" unicode="&#xf1;" horiz-adv-x="1122" 
d="M836 62v534c0 186 -92 288 -266 288s-272 -104 -272 -288v-534c0 -27 -3 -38 -11 -50s-24 -20 -41 -20s-33 8 -41 20s-11 23 -11 50v840c0 27 3 38 11 50s24 20 41 20s33 -8 41 -20s11 -23 11 -50v-52c72 84 168 126 284 126c108 0 196 -32 258 -92
c65 -62 100 -154 100 -268v-554c0 -27 -3 -38 -11 -50s-24 -20 -41 -20s-33 8 -41 20s-11 23 -11 50zM562 1257c-38 23 -72 43 -112 43c-26 0 -47 -2 -88 -38c-17 -15 -31 -26 -46 -26c-11 0 -21 5 -27 11c-7 7 -13 16 -13 29s6 29 30 50c66 59 110 62 144 62
c58 0 90 -18 138 -47c38 -23 72 -43 112 -43c26 0 47 2 88 38c17 15 31 26 46 26c11 0 21 -5 27 -11c7 -7 13 -16 13 -29s-6 -29 -30 -50c-66 -59 -110 -62 -144 -62c-58 0 -90 18 -138 47z" />
    <glyph glyph-name="ograve" unicode="&#xf2;" horiz-adv-x="1056" 
d="M726 161c76 76 88 206 88 321s-12 245 -88 321c-54 54 -118 81 -198 81s-144 -27 -198 -81c-76 -76 -88 -206 -88 -321s12 -245 88 -321c54 -54 118 -81 198 -81s144 27 198 81zM796 94c-68 -68 -160 -106 -268 -106s-200 38 -268 106c-105 105 -122 250 -122 388
s17 283 122 388c68 68 160 106 268 106s200 -38 268 -106c105 -105 122 -250 122 -388s-17 -283 -122 -388zM472 1143l-86 138c-10 15 -15 26 -15 36c0 15 7 26 20 35c7 4 15 6 22 6c9 0 16 -2 23 -8s14 -15 20 -25l86 -138c10 -15 15 -26 15 -36c0 -15 -7 -26 -20 -35
c-7 -4 -15 -6 -22 -6c-9 0 -16 2 -23 8s-13 14 -20 25z" />
    <glyph glyph-name="oacute" unicode="&#xf3;" horiz-adv-x="1056" 
d="M726 161c76 76 88 206 88 321s-12 245 -88 321c-54 54 -118 81 -198 81s-144 -27 -198 -81c-76 -76 -88 -206 -88 -321s12 -245 88 -321c54 -54 118 -81 198 -81s144 27 198 81zM796 94c-68 -68 -160 -106 -268 -106s-200 38 -268 106c-105 105 -122 250 -122 388
s17 283 122 388c68 68 160 106 268 106s200 -38 268 -106c105 -105 122 -250 122 -388s-17 -283 -122 -388zM670 1281l-86 -138c-7 -11 -13 -19 -20 -25s-14 -8 -23 -8c-7 0 -15 2 -22 6c-13 9 -20 20 -20 35c0 10 5 21 15 36l86 138c6 10 13 19 20 25s14 8 23 8
c7 0 15 -2 22 -6c13 -9 20 -20 20 -35c0 -10 -5 -21 -15 -36z" />
    <glyph glyph-name="ocircumflex" unicode="&#xf4;" horiz-adv-x="1056" 
d="M726 161c76 76 88 206 88 321s-12 245 -88 321c-54 54 -118 81 -198 81s-144 -27 -198 -81c-76 -76 -88 -206 -88 -321s12 -245 88 -321c54 -54 118 -81 198 -81s144 27 198 81zM796 94c-68 -68 -160 -106 -268 -106s-200 38 -268 106c-105 105 -122 250 -122 388
s17 283 122 388c68 68 160 106 268 106s200 -38 268 -106c105 -105 122 -250 122 -388s-17 -283 -122 -388zM662 1120l-134 134l-134 -134c-13 -13 -22 -18 -32 -20c-12 -1 -22 3 -30 11s-12 18 -10 30c1 10 6 18 20 32l151 151c9 9 19 19 35 19s26 -10 35 -19l151 -151
c14 -14 19 -22 20 -32c2 -12 -2 -22 -10 -30s-18 -12 -30 -11c-10 2 -19 7 -32 20z" />
    <glyph glyph-name="otilde" unicode="&#xf5;" horiz-adv-x="1056" 
d="M726 161c76 76 88 206 88 321s-12 245 -88 321c-54 54 -118 81 -198 81s-144 -27 -198 -81c-76 -76 -88 -206 -88 -321s12 -245 88 -321c54 -54 118 -81 198 -81s144 27 198 81zM796 94c-68 -68 -160 -106 -268 -106s-200 38 -268 106c-105 105 -122 250 -122 388
s17 283 122 388c68 68 160 106 268 106s200 -38 268 -106c105 -105 122 -250 122 -388s-17 -283 -122 -388zM524 1147c-25 19 -46 35 -72 35c-17 0 -30 -2 -56 -31c-11 -12 -20 -20 -30 -20c-7 0 -13 4 -17 8c-4 6 -8 13 -8 24c0 10 4 23 19 40c42 47 70 49 92 49
c37 0 58 -14 88 -37c25 -19 46 -35 72 -35c17 0 30 2 56 31c11 12 20 20 30 20c7 0 13 -4 17 -8c4 -6 8 -13 8 -24c0 -10 -4 -23 -19 -40c-42 -47 -70 -49 -92 -49c-37 0 -58 14 -88 37z" />
    <glyph glyph-name="odieresis" unicode="&#xf6;" horiz-adv-x="1056" 
d="M726 161c76 76 88 206 88 321s-12 245 -88 321c-54 54 -118 81 -198 81s-144 -27 -198 -81c-76 -76 -88 -206 -88 -321s12 -245 88 -321c54 -54 118 -81 198 -81s144 27 198 81zM796 94c-68 -68 -160 -106 -268 -106s-200 38 -268 106c-105 105 -122 250 -122 388
s17 283 122 388c68 68 160 106 268 106s200 -38 268 -106c105 -105 122 -250 122 -388s-17 -283 -122 -388zM320 1200c-41 0 -74 33 -74 74s33 74 74 74s74 -33 74 -74s-33 -74 -74 -74zM736 1200c-41 0 -74 33 -74 74s33 74 74 74s74 -33 74 -74s-33 -74 -74 -74z" />
    <glyph glyph-name="divide" unicode="&#xf7;" 
d="M866 481h-704c-24 0 -36 3 -46 10c-12 9 -18 21 -18 36s6 27 18 36c10 7 22 10 46 10h704c24 0 36 -3 46 -10c12 -9 18 -21 18 -36s-6 -27 -18 -36c-10 -7 -22 -10 -46 -10zM514 96c-50 0 -92 42 -92 92s42 92 92 92s92 -42 92 -92s-42 -92 -92 -92zM514 774
c-50 0 -92 42 -92 92s42 92 92 92s92 -42 92 -92s-42 -92 -92 -92z" />
    <glyph glyph-name="oslash" unicode="&#xf8;" horiz-adv-x="1056" 
d="M737 917l63 107c14 24 24 36 44 36c7 0 15 -2 22 -6c10 -6 20 -18 20 -34c0 -10 -3 -18 -14 -36l-71 -119c98 -102 117 -247 117 -383c0 -138 -20 -286 -122 -388c-68 -68 -160 -106 -268 -106c-81 0 -152 21 -211 59l-65 -109c-14 -24 -24 -36 -44 -36c-7 0 -15 2 -22 6
c-10 6 -20 18 -20 34c0 10 3 18 14 36l73 123c-96 101 -115 246 -115 381c0 138 20 286 122 388c68 68 160 106 268 106c79 0 150 -21 209 -59zM305 187l383 650c-46 31 -101 49 -160 49c-78 0 -148 -30 -200 -82c-80 -80 -86 -210 -86 -322c0 -100 5 -215 63 -295zM749 780
l-385 -651c47 -33 103 -51 164 -51c78 0 148 30 200 82c80 80 86 210 86 322c0 101 -5 217 -65 298z" />
    <glyph glyph-name="ugrave" unicode="&#xf9;" horiz-adv-x="1122" 
d="M824 62v52c-72 -84 -168 -126 -284 -126c-108 0 -196 32 -258 92c-65 62 -100 154 -100 268v554c0 27 3 38 11 50s24 20 41 20s33 -8 41 -20s11 -23 11 -50v-534c0 -186 92 -288 266 -288s272 104 272 288v534c0 27 3 38 11 50s24 20 41 20s33 -8 41 -20s11 -23 11 -50
v-840c0 -27 -3 -38 -11 -50s-24 -20 -41 -20s-33 8 -41 20s-11 23 -11 50zM499 1143l-86 138c-10 15 -15 26 -15 36c0 15 7 26 20 35c7 4 15 6 22 6c9 0 16 -2 23 -8s14 -15 20 -25l86 -138c10 -15 15 -26 15 -36c0 -15 -7 -26 -20 -35c-7 -4 -15 -6 -22 -6
c-9 0 -16 2 -23 8s-13 14 -20 25z" />
    <glyph glyph-name="uacute" unicode="&#xfa;" horiz-adv-x="1122" 
d="M824 62v52c-72 -84 -168 -126 -284 -126c-108 0 -196 32 -258 92c-65 62 -100 154 -100 268v554c0 27 3 38 11 50s24 20 41 20s33 -8 41 -20s11 -23 11 -50v-534c0 -186 92 -288 266 -288s272 104 272 288v534c0 27 3 38 11 50s24 20 41 20s33 -8 41 -20s11 -23 11 -50
v-840c0 -27 -3 -38 -11 -50s-24 -20 -41 -20s-33 8 -41 20s-11 23 -11 50zM697 1281l-86 -138c-7 -11 -13 -19 -20 -25s-14 -8 -23 -8c-7 0 -15 2 -22 6c-13 9 -20 20 -20 35c0 10 5 21 15 36l86 138c6 10 13 19 20 25s14 8 23 8c7 0 15 -2 22 -6c13 -9 20 -20 20 -35
c0 -10 -5 -21 -15 -36z" />
    <glyph glyph-name="ucircumflex" unicode="&#xfb;" horiz-adv-x="1122" 
d="M824 62v52c-72 -84 -168 -126 -284 -126c-108 0 -196 32 -258 92c-65 62 -100 154 -100 268v554c0 27 3 38 11 50s24 20 41 20s33 -8 41 -20s11 -23 11 -50v-534c0 -186 92 -288 266 -288s272 104 272 288v534c0 27 3 38 11 50s24 20 41 20s33 -8 41 -20s11 -23 11 -50
v-840c0 -27 -3 -38 -11 -50s-24 -20 -41 -20s-33 8 -41 20s-11 23 -11 50zM722 1196l-167 167l-167 -167c-17 -17 -28 -23 -40 -25c-15 -2 -28 3 -38 13s-15 23 -13 38c2 12 8 23 25 40l189 189c11 11 24 24 44 24s33 -13 44 -24l189 -189c17 -17 23 -28 25 -40
c2 -15 -3 -28 -13 -38s-23 -15 -38 -13c-12 2 -23 8 -40 25z" />
    <glyph glyph-name="udieresis" unicode="&#xfc;" horiz-adv-x="1122" 
d="M824 62v52c-72 -84 -168 -126 -284 -126c-108 0 -196 32 -258 92c-65 62 -100 154 -100 268v554c0 27 3 38 11 50s24 20 41 20s33 -8 41 -20s11 -23 11 -50v-534c0 -186 92 -288 266 -288s272 104 272 288v534c0 27 3 38 11 50s24 20 41 20s33 -8 41 -20s11 -23 11 -50
v-840c0 -27 -3 -38 -11 -50s-24 -20 -41 -20s-33 8 -41 20s-11 23 -11 50zM347 1200c-41 0 -74 33 -74 74s33 74 74 74s74 -33 74 -74s-33 -74 -74 -74zM763 1200c-41 0 -74 33 -74 74s33 74 74 74s74 -33 74 -74s-33 -74 -74 -74z" />
    <glyph glyph-name="yacute" unicode="&#xfd;" horiz-adv-x="860" 
d="M310 -214l71 214l-311 888c-8 24 -10 38 -5 52c7 19 24 32 47 32c28 0 43 -19 54 -52l264 -793l264 793c11 33 26 52 54 52c23 0 40 -13 47 -32c5 -14 3 -28 -5 -52l-399 -1150c-15 -44 -36 -85 -66 -113c-49 -45 -106 -61 -170 -61c-27 0 -39 4 -48 10
c-12 8 -18 18 -18 36c0 14 6 28 18 36c8 6 20 10 42 10c80 0 128 31 161 130zM572 1281l-86 -138c-7 -11 -13 -19 -20 -25s-14 -8 -23 -8c-7 0 -15 2 -22 6c-13 9 -20 20 -20 35c0 10 5 21 15 36l86 138c6 10 13 19 20 25s14 8 23 8c7 0 15 -2 22 -6c13 -9 20 -20 20 -35
c0 -10 -5 -21 -15 -36z" />
    <glyph glyph-name="thorn" unicode="&#xfe;" horiz-adv-x="1084" 
d="M194 -398v1760c0 27 3 38 11 50s24 20 41 20s33 -8 41 -20s11 -23 11 -50v-522c84 112 178 136 286 136c100 0 186 -34 236 -84c98 -98 126 -258 126 -410s-28 -312 -126 -410c-50 -50 -136 -84 -236 -84c-108 0 -202 24 -286 136v-522c0 -27 -3 -38 -11 -50
s-24 -20 -41 -20s-33 8 -41 20s-11 23 -11 50zM570 80c236 0 272 202 272 402s-36 402 -272 402s-272 -202 -272 -402s36 -402 272 -402z" />
    <glyph glyph-name="ydieresis" unicode="&#xff;" horiz-adv-x="860" 
d="M310 -214l71 214l-311 888c-8 24 -10 38 -5 52c7 19 24 32 47 32c28 0 43 -19 54 -52l264 -793l264 793c11 33 26 52 54 52c23 0 40 -13 47 -32c5 -14 3 -28 -5 -52l-399 -1150c-15 -44 -36 -85 -66 -113c-49 -45 -106 -61 -170 -61c-27 0 -39 4 -48 10
c-12 8 -18 18 -18 36c0 14 6 28 18 36c8 6 20 10 42 10c80 0 128 31 161 130zM222 1200c-41 0 -74 33 -74 74s33 74 74 74s74 -33 74 -74s-33 -74 -74 -74zM638 1200c-41 0 -74 33 -74 74s33 74 74 74s74 -33 74 -74s-33 -74 -74 -74z" />
    <glyph glyph-name="dotlessi" unicode="&#x131;" horiz-adv-x="492" 
d="M194 62v840c0 27 3 38 11 50s24 20 41 20s33 -8 41 -20s11 -23 11 -50v-840c0 -27 -3 -38 -11 -50s-24 -20 -41 -20s-33 8 -41 20s-11 23 -11 50z" />
    <glyph glyph-name="IJ" unicode="&#x132;" horiz-adv-x="1544" 
d="M220 67v1290c0 31 3 41 12 55c9 13 23 20 42 20s33 -7 42 -20c9 -14 12 -24 12 -55v-1290c0 -31 -3 -41 -12 -55c-9 -13 -23 -20 -42 -20s-33 7 -42 20c-9 14 -12 24 -12 55zM1236 442v915c0 31 3 41 12 55c9 13 23 20 42 20s33 -7 42 -20c9 -14 12 -24 12 -55v-937
c0 -260 -166 -432 -424 -432c-108 0 -188 26 -270 84c-17 12 -32 29 -32 51c0 14 3 24 12 35c10 12 22 18 37 18c16 0 28 -7 59 -30c61 -45 116 -62 194 -62c206 0 316 128 316 358z" />
    <glyph glyph-name="ij" unicode="&#x133;" horiz-adv-x="983" 
d="M194 62v840c0 27 3 38 11 50s24 20 41 20s33 -8 41 -20s11 -23 11 -50v-840c0 -27 -3 -38 -11 -50s-24 -20 -41 -20s-33 8 -41 20s-11 23 -11 50zM246 1288c-41 0 -74 33 -74 74s33 74 74 74s74 -33 74 -74s-33 -74 -74 -74zM557 -460h-30c-27 0 -40 3 -50 10
c-12 9 -18 21 -18 36s6 27 18 36c10 7 22 10 46 10h16c100 0 146 60 146 160v1110c0 27 3 38 11 50s24 20 41 20s33 -8 41 -20s11 -23 11 -50v-1110c0 -146 -80 -252 -232 -252zM737 1288c-41 0 -74 33 -74 74s33 74 74 74s74 -33 74 -74s-33 -74 -74 -74z" />
    <glyph glyph-name="Lslash" unicode="&#x141;" horiz-adv-x="1166" 
d="M1045 0h-739c-16 0 -34 0 -49 15s-15 33 -15 49v547l-87 -43c-16 -8 -28 -12 -38 -12c-12 0 -23 5 -31 13c-9 9 -14 22 -14 34c0 22 18 36 42 48l128 64v642c0 31 3 41 12 55c9 13 23 20 42 20s33 -7 42 -20c9 -14 12 -24 12 -55v-588l266 133c16 8 28 12 38 12
c12 0 23 -5 31 -13c9 -9 14 -22 14 -34c0 -22 -18 -36 -42 -48l-307 -154v-569h695c28 0 40 -3 50 -10c13 -10 19 -22 19 -38s-6 -28 -19 -38c-10 -7 -22 -10 -50 -10z" />
    <glyph glyph-name="lslash" unicode="&#x142;" horiz-adv-x="600" 
d="M478 0h-30c-152 0 -232 106 -232 252v466l-78 -39c-14 -7 -25 -11 -34 -11c-15 0 -26 6 -34 22c-3 6 -5 13 -5 20c0 8 3 15 8 21c5 7 17 14 29 20l114 57v554c0 27 3 38 11 50s24 20 41 20s33 -8 41 -20s11 -23 11 -50v-502l136 68c14 7 25 11 34 11c15 0 26 -6 34 -22
c3 -6 5 -13 5 -20c0 -8 -3 -15 -8 -21c-5 -7 -17 -14 -29 -20l-172 -86v-518c0 -100 46 -160 146 -160h16c24 0 36 -3 46 -10c12 -9 18 -21 18 -36s-6 -27 -18 -36c-10 -7 -23 -10 -50 -10z" />
    <glyph glyph-name="OE" unicode="&#x152;" horiz-adv-x="2008" 
d="M1835 0h-739c-16 0 -34 0 -49 15s-15 33 -15 49v96c-103 -120 -234 -172 -380 -172c-142 0 -262 52 -346 136c-132 132 -142 242 -142 588s10 456 142 588c84 84 204 136 346 136s278 -52 380 -173v97c0 16 0 34 15 49s33 15 49 15h739c28 0 40 -3 50 -10
c13 -10 19 -22 19 -38s-6 -28 -19 -38c-10 -7 -22 -10 -50 -10h-695v-562h583c28 0 40 -3 50 -10c13 -10 19 -22 19 -38s-6 -28 -19 -38c-10 -7 -22 -10 -50 -10h-583v-574h695c28 0 40 -3 50 -10c13 -10 19 -22 19 -38s-6 -28 -19 -38c-10 -7 -22 -10 -50 -10zM922 194
c102 102 110 218 110 518s-8 416 -110 518c-74 74 -166 110 -270 110s-196 -36 -270 -110c-102 -102 -110 -218 -110 -518s8 -416 110 -518c74 -74 166 -110 270 -110s196 36 270 110z" />
    <glyph glyph-name="oe" unicode="&#x153;" horiz-adv-x="1722" 
d="M1526 460h-608c0 -244 110 -380 314 -380c81 0 160 22 222 76c26 23 38 34 58 34c24 0 46 -23 46 -46c0 -43 -70 -86 -102 -104c-54 -31 -134 -52 -230 -52c-172 0 -294 71 -358 209c-63 -134 -190 -209 -340 -209c-108 0 -200 38 -268 106c-105 105 -122 250 -122 388
s17 283 122 388c68 68 160 106 268 106c150 0 275 -74 340 -209c63 136 179 209 334 209c239 0 386 -176 386 -454c0 -13 0 -34 -14 -48s-32 -14 -48 -14zM726 161c76 76 88 206 88 321s-12 245 -88 321c-54 54 -118 81 -198 81s-144 -27 -198 -81
c-76 -76 -88 -206 -88 -321s12 -245 88 -321c54 -54 118 -81 198 -81s144 27 198 81zM918 546h568c-4 80 -10 117 -34 177c-40 100 -136 161 -250 161s-210 -62 -250 -161c-24 -60 -30 -97 -34 -177z" />
    <glyph glyph-name="Scaron" unicode="&#x160;" horiz-adv-x="1174" 
d="M664 654l-166 26c-113 18 -182 45 -254 105c-75 63 -112 151 -112 261c0 238 170 390 442 390c152 0 245 -31 358 -111c22 -16 40 -34 40 -56c0 -13 -3 -22 -11 -31c-10 -12 -21 -17 -37 -17s-35 11 -57 27c-104 74 -171 95 -299 95c-206 0 -330 -113 -330 -293
c0 -82 24 -146 74 -188c58 -48 109 -70 212 -86l154 -24c134 -21 196 -44 256 -94c78 -64 122 -162 122 -276c0 -240 -184 -394 -480 -394c-166 0 -292 32 -422 139c-21 17 -38 36 -38 58c0 14 4 27 15 38c10 10 23 15 36 15c20 0 37 -14 57 -30c116 -96 207 -124 358 -124
c224 0 366 108 366 294c0 84 -26 155 -78 200s-91 58 -206 76zM816 1762l-189 -189c-11 -11 -24 -24 -44 -24s-33 13 -44 24l-189 189c-17 17 -23 28 -25 40c-2 15 3 28 13 38s23 15 38 13c12 -2 23 -8 40 -25l167 -167l167 167c17 17 28 23 40 25c15 2 28 -3 38 -13
s15 -23 13 -38c-2 -12 -8 -23 -25 -40z" />
    <glyph glyph-name="scaron" unicode="&#x161;" horiz-adv-x="988" 
d="M592 435l-160 14c-193 17 -290 103 -290 253c0 166 136 274 346 274c112 0 202 -25 278 -66c22 -12 30 -20 36 -30s6 -16 6 -24c0 -6 -4 -16 -10 -24c-10 -12 -22 -18 -36 -18s-25 5 -48 18c-66 36 -139 54 -226 54c-158 0 -246 -66 -246 -184c0 -100 61 -149 196 -161
l156 -14c160 -14 282 -65 282 -253c0 -176 -150 -286 -386 -286c-146 0 -250 33 -338 94c-25 17 -42 35 -42 56c0 12 4 24 16 36c8 8 20 12 32 12c16 0 30 -7 58 -28c72 -54 156 -78 270 -78c188 0 290 64 290 194c0 100 -59 150 -184 161zM736 1382l-189 -189
c-11 -11 -24 -24 -44 -24s-33 13 -44 24l-189 189c-17 17 -23 28 -25 40c-2 15 3 28 13 38s23 15 38 13c12 -2 23 -8 40 -25l167 -167l167 167c17 17 28 23 40 25c15 2 28 -3 38 -13s15 -23 13 -38c-2 -12 -8 -23 -25 -40z" />
    <glyph glyph-name="Ydieresis" unicode="&#x178;" horiz-adv-x="988" 
d="M440 67v518l-377 754c-12 24 -16 37 -14 51s12 28 28 36c8 4 17 6 24 6c8 0 14 -1 21 -5c13 -8 21 -18 33 -42l339 -678l339 678c12 24 20 34 33 42c7 4 13 5 21 5c7 0 16 -2 24 -6c16 -8 26 -22 28 -36s-2 -27 -14 -51l-377 -754v-518c0 -31 -3 -41 -12 -55
c-9 -13 -23 -20 -42 -20s-33 7 -42 20c-9 14 -12 24 -12 55zM286 1580c-41 0 -74 33 -74 74s33 74 74 74s74 -33 74 -74s-33 -74 -74 -74zM702 1580c-41 0 -74 33 -74 74s33 74 74 74s74 -33 74 -74s-33 -74 -74 -74z" />
    <glyph glyph-name="Zcaron" unicode="&#x17d;" horiz-adv-x="1088" 
d="M915 0h-753c-26 0 -39 5 -48 14s-14 22 -14 34c0 16 7 31 20 54l732 1226h-651c-28 0 -40 3 -50 10c-13 10 -19 22 -19 38s6 28 19 38c10 7 22 10 50 10h721c26 0 39 -5 48 -14s14 -22 14 -34c0 -16 -7 -31 -20 -54l-732 -1226h683c28 0 40 -3 50 -10
c13 -10 19 -22 19 -38s-6 -28 -19 -38c-10 -7 -22 -10 -50 -10zM777 1762l-189 -189c-11 -11 -24 -24 -44 -24s-33 13 -44 24l-189 189c-17 17 -23 28 -25 40c-2 15 3 28 13 38s23 15 38 13c12 -2 23 -8 40 -25l167 -167l167 167c17 17 28 23 40 25c15 2 28 -3 38 -13
s15 -23 13 -38c-2 -12 -8 -23 -25 -40z" />
    <glyph glyph-name="zcaron" unicode="&#x17e;" horiz-adv-x="898" 
d="M734 0h-564c-20 0 -40 2 -52 12c-11 9 -18 22 -18 38c0 18 7 33 21 52l547 770h-478c-24 0 -36 3 -46 10c-12 9 -18 21 -18 36s6 27 18 36c10 7 22 10 46 10h534c20 0 40 -2 52 -12c11 -9 18 -22 18 -38c0 -18 -7 -33 -21 -52l-547 -770h508c24 0 36 -3 46 -10
c12 -9 18 -21 18 -36s-6 -27 -18 -36c-10 -7 -22 -10 -46 -10zM705 1382l-189 -189c-11 -11 -24 -24 -44 -24s-33 13 -44 24l-189 189c-17 17 -23 28 -25 40c-2 15 3 28 13 38s23 15 38 13c12 -2 23 -8 40 -25l167 -167l167 167c17 17 28 23 40 25c15 2 28 -3 38 -13
s15 -23 13 -38c-2 -12 -8 -23 -25 -40z" />
    <glyph glyph-name="longs" unicode="&#x17f;" horiz-adv-x="492" 
d="M194 62v1110c0 146 80 252 232 252h30c27 0 40 -3 50 -10c12 -9 18 -21 18 -36s-6 -27 -18 -36c-10 -7 -22 -10 -46 -10h-16c-100 0 -146 -60 -146 -160v-1110c0 -27 -3 -38 -11 -50s-24 -20 -41 -20s-33 8 -41 20s-11 23 -11 50z" />
    <glyph glyph-name="florin" unicode="&#x192;" horiz-adv-x="788" 
d="M57 -389l213 1069h-159c-22 0 -33 2 -43 9c-11 8 -16 18 -16 33s5 25 16 33c10 7 21 9 43 9h176l82 408c32 160 124 252 276 252h28c30 0 40 -4 50 -10c11 -7 18 -20 18 -36s-6 -30 -18 -38c-9 -6 -18 -8 -44 -8h-32c-90 0 -155 -61 -178 -177l-78 -391h170
c22 0 33 -2 43 -9c11 -8 16 -18 16 -33s-5 -25 -16 -33c-10 -7 -21 -9 -43 -9h-187l-217 -1089c-5 -25 -11 -37 -22 -47c-9 -8 -20 -12 -33 -12c-12 0 -25 5 -34 14c-15 15 -18 30 -11 65z" />
    <glyph glyph-name="uni02BB" unicode="&#x2bb;" horiz-adv-x="464" 
d="M318 1350l-73 -219c-8 -24 -13 -34 -24 -43c-9 -7 -20 -10 -31 -10c-24 0 -44 15 -50 35c-4 14 -2 27 6 51l73 219c8 24 13 34 24 43c9 7 20 10 31 10c24 0 44 -15 50 -35c4 -14 2 -27 -6 -51z" />
    <glyph glyph-name="afii57929" unicode="&#x2bc;" horiz-adv-x="464" 
d="M146 1164l73 219c8 24 13 34 24 43c9 7 20 10 31 10c24 0 44 -15 50 -35c4 -14 2 -27 -6 -51l-73 -219c-8 -24 -13 -34 -24 -43c-9 -7 -20 -10 -31 -10c-24 0 -44 15 -50 35c-4 14 -2 27 6 51z" />
    <glyph glyph-name="circumflex" unicode="&#x2c6;" horiz-adv-x="1000" 
d="M695 1196l-167 167l-167 -167c-17 -17 -28 -23 -40 -25c-15 -2 -28 3 -38 13s-15 23 -13 38c2 12 8 23 25 40l189 189c11 11 24 24 44 24s33 -13 44 -24l189 -189c17 -17 23 -28 25 -40c2 -15 -3 -28 -13 -38s-23 -15 -38 -13c-12 2 -23 8 -40 25z" />
    <glyph glyph-name="caron" unicode="&#x2c7;" horiz-adv-x="1000" 
d="M761 1382l-189 -189c-11 -11 -24 -24 -44 -24s-33 13 -44 24l-189 189c-17 17 -23 28 -25 40c-2 15 3 28 13 38s23 15 38 13c12 -2 23 -8 40 -25l167 -167l167 167c17 17 28 23 40 25c15 2 28 -3 38 -13s15 -23 13 -38c-2 -12 -8 -23 -25 -40z" />
    <glyph glyph-name="breve" unicode="&#x2d8;" horiz-adv-x="1000" 
d="M767 1284c-64 -64 -143 -110 -239 -110s-175 46 -239 110c-17 17 -23 28 -25 40c-2 15 3 28 13 38s23 15 38 13c12 -2 23 -8 40 -25c47 -47 98 -86 173 -86s126 39 173 86c17 17 28 23 40 25c15 2 28 -3 38 -13s15 -23 13 -38c-2 -12 -8 -23 -25 -40z" />
    <glyph glyph-name="dotaccent" unicode="&#x2d9;" horiz-adv-x="1000" 
d="M528 1216c-41 0 -74 33 -74 74s33 74 74 74s74 -33 74 -74s-33 -74 -74 -74z" />
    <glyph glyph-name="ring" unicode="&#x2da;" horiz-adv-x="1000" 
d="M674 1354c0 81 -65 146 -146 146s-146 -65 -146 -146s65 -146 146 -146s146 65 146 146zM528 1126c-126 0 -228 102 -228 228s102 228 228 228s228 -102 228 -228s-102 -228 -228 -228z" />
    <glyph glyph-name="ogonek" unicode="&#x2db;" horiz-adv-x="1056" 
d="M551 -228l-108 -173c-17 -28 -32 -41 -54 -41c-9 0 -18 2 -27 8c-17 11 -25 25 -25 43c0 13 6 26 18 45l108 173c17 28 32 41 54 41c9 0 18 -2 27 -8c17 -11 25 -25 25 -43c0 -13 -6 -26 -18 -45z" />
    <glyph glyph-name="tilde" unicode="&#x2dc;" horiz-adv-x="1000" 
d="M515 1257c-38 23 -72 43 -112 43c-26 0 -47 -2 -88 -38c-17 -15 -31 -26 -46 -26c-11 0 -21 5 -27 11c-7 7 -13 16 -13 29s6 29 30 50c66 59 110 62 144 62c58 0 90 -18 138 -47c38 -23 72 -43 112 -43c26 0 47 2 88 38c17 15 31 26 46 26c11 0 21 -5 27 -11
c7 -7 13 -16 13 -29s-6 -29 -30 -50c-66 -59 -110 -62 -144 -62c-58 0 -90 18 -138 47z" />
    <glyph glyph-name="hungarumlaut" unicode="&#x2dd;" horiz-adv-x="1000" 
d="M558 1391l-108 -173c-9 -14 -16 -24 -25 -31s-18 -10 -29 -10c-9 0 -18 2 -27 8c-17 11 -25 25 -25 43c0 13 6 26 18 45l108 173c7 12 16 24 25 31s18 10 29 10c9 0 18 -2 27 -8c17 -11 25 -25 25 -43c0 -13 -6 -26 -18 -45zM858 1391l-108 -173c-9 -14 -16 -24 -25 -31
s-18 -10 -29 -10c-9 0 -18 2 -27 8c-17 11 -25 25 -25 43c0 13 6 26 18 45l108 173c7 12 16 24 25 31s18 10 29 10c9 0 18 -2 27 -8c17 -11 25 -25 25 -43c0 -13 -6 -26 -18 -45z" />
    <glyph glyph-name="uni0394" unicode="&#x394;" horiz-adv-x="1196" 
d="M1065 0h-934c-38 0 -53 2 -67 15c-9 9 -14 18 -14 34c0 15 7 35 16 59l469 1257c9 24 14 35 21 45c9 13 23 22 42 22s33 -9 42 -22c7 -10 12 -21 21 -45l469 -1257c9 -24 16 -44 16 -59c0 -16 -5 -25 -14 -34c-14 -13 -29 -15 -67 -15zM176 96h844l-422 1153z" />
    <glyph glyph-name="uni03A9" unicode="&#x3a9;" horiz-adv-x="1376" 
d="M1184 48c0 -16 -6 -28 -19 -38c-10 -7 -22 -10 -50 -10h-242c-28 0 -40 3 -50 10c-13 10 -19 22 -19 38c0 29 18 43 44 58c71 41 122 90 166 162c50 82 54 230 54 444c0 300 -8 416 -110 518c-74 74 -166 110 -270 110s-196 -36 -270 -110c-102 -102 -110 -218 -110 -518
c0 -214 4 -362 54 -444c44 -72 95 -121 166 -162c26 -15 44 -29 44 -58c0 -16 -6 -28 -19 -38c-10 -7 -22 -10 -50 -10h-242c-28 0 -40 3 -50 10c-13 10 -19 22 -19 38s6 28 19 38c10 7 22 10 50 10h131c-61 48 -102 90 -130 142c-56 102 -62 246 -62 474
c0 346 10 456 142 588c84 84 204 136 346 136s262 -52 346 -136c132 -132 142 -242 142 -588c0 -228 -6 -372 -62 -474c-28 -52 -69 -94 -130 -142h131c28 0 40 -3 50 -10c13 -10 19 -22 19 -38z" />
    <glyph glyph-name="uni03BC" unicode="&#x3bc;" horiz-adv-x="1134" 
d="M836 62v52c-72 -84 -168 -126 -284 -126c-105 0 -193 31 -254 88v-474c0 -30 -5 -41 -12 -52c-8 -12 -24 -18 -40 -18s-30 6 -40 18c-8 10 -12 22 -12 52v1300c0 27 3 38 11 50s24 20 41 20s33 -8 41 -20s11 -23 11 -50v-534c0 -186 92 -288 266 -288s272 104 272 288
v534c0 27 3 38 11 50s24 20 41 20s33 -8 41 -20s11 -23 11 -50v-840c0 -27 -3 -38 -11 -50s-24 -20 -41 -20s-33 8 -41 20s-11 23 -11 50z" />
    <glyph glyph-name="pi" unicode="&#x3c0;" horiz-adv-x="1134" 
d="M836 62v810h-538v-810c0 -27 -3 -38 -11 -50s-24 -20 -41 -20s-33 8 -41 20s-11 23 -11 50v840c0 16 0 34 14 48s32 14 48 14h622c16 0 34 0 48 -14s14 -32 14 -48v-840c0 -27 -3 -38 -11 -50s-24 -20 -41 -20s-33 8 -41 20s-11 23 -11 50z" />
    <glyph glyph-name="uni2007" unicode="&#x2007;" 
 />
    <glyph glyph-name="uni2008" unicode="&#x2008;" horiz-adv-x="528" 
 />
    <glyph glyph-name="uni200B" unicode="&#x200b;" horiz-adv-x="0" 
 />
    <glyph glyph-name="endash" unicode="&#x2013;" 
d="M866 481h-704c-24 0 -36 3 -46 10c-12 9 -18 21 -18 36s6 27 18 36c10 7 22 10 46 10h704c24 0 36 -3 46 -10c12 -9 18 -21 18 -36s-6 -27 -18 -36c-10 -7 -22 -10 -46 -10z" />
    <glyph glyph-name="emdash" unicode="&#x2014;" horiz-adv-x="1746" 
d="M1584 482h-1422c-24 0 -36 3 -46 10c-12 9 -18 21 -18 36s6 27 18 36c10 7 22 10 46 10h1422c24 0 36 -3 46 -10c12 -9 18 -21 18 -36s-6 -27 -18 -36c-10 -7 -22 -10 -46 -10z" />
    <glyph glyph-name="quoteleft" unicode="&#x2018;" horiz-adv-x="464" 
d="M318 1350l-73 -219c-8 -24 -13 -34 -24 -43c-9 -7 -20 -10 -31 -10c-24 0 -44 15 -50 35c-4 14 -2 27 6 51l73 219c8 24 13 34 24 43c9 7 20 10 31 10c24 0 44 -15 50 -35c4 -14 2 -27 -6 -51z" />
    <glyph glyph-name="quoteright" unicode="&#x2019;" horiz-adv-x="464" 
d="M146 1164l73 219c8 24 13 34 24 43c9 7 20 10 31 10c24 0 44 -15 50 -35c4 -14 2 -27 -6 -51l-73 -219c-8 -24 -13 -34 -24 -43c-9 -7 -20 -10 -31 -10c-24 0 -44 15 -50 35c-4 14 -2 27 6 51z" />
    <glyph glyph-name="quotesinglbase" unicode="&#x201a;" horiz-adv-x="464" 
d="M146 -139l73 219c8 24 13 34 24 43c9 7 20 10 31 10c24 0 44 -15 50 -35c4 -14 2 -27 -6 -51l-73 -219c-8 -24 -13 -34 -24 -43c-9 -7 -20 -10 -31 -10c-24 0 -44 15 -50 35c-4 14 -2 27 6 51z" />
    <glyph glyph-name="quotedblleft" unicode="&#x201c;" horiz-adv-x="774" 
d="M318 1350l-73 -219c-8 -24 -13 -34 -24 -43c-9 -7 -20 -10 -31 -10c-24 0 -44 15 -50 35c-4 14 -2 27 6 51l73 219c8 24 13 34 24 43c9 7 20 10 31 10c24 0 44 -15 50 -35c4 -14 2 -27 -6 -51zM628 1350l-73 -219c-8 -24 -13 -34 -24 -43c-9 -7 -20 -10 -31 -10
c-24 0 -44 15 -50 35c-4 14 -2 27 6 51l73 219c8 24 13 34 24 43c9 7 20 10 31 10c24 0 44 -15 50 -35c4 -14 2 -27 -6 -51z" />
    <glyph glyph-name="quotedblright" unicode="&#x201d;" horiz-adv-x="774" 
d="M146 1164l73 219c8 24 13 34 24 43c9 7 20 10 31 10c24 0 44 -15 50 -35c4 -14 2 -27 -6 -51l-73 -219c-8 -24 -13 -34 -24 -43c-9 -7 -20 -10 -31 -10c-24 0 -44 15 -50 35c-4 14 -2 27 6 51zM456 1164l73 219c8 24 13 34 24 43c9 7 20 10 31 10c24 0 44 -15 50 -35
c4 -14 2 -27 -6 -51l-73 -219c-8 -24 -13 -34 -24 -43c-9 -7 -20 -10 -31 -10c-24 0 -44 15 -50 35c-4 14 -2 27 6 51z" />
    <glyph glyph-name="quotedblbase" unicode="&#x201e;" horiz-adv-x="774" 
d="M146 -139l73 219c8 24 13 34 24 43c9 7 20 10 31 10c24 0 44 -15 50 -35c4 -14 2 -27 -6 -51l-73 -219c-8 -24 -13 -34 -24 -43c-9 -7 -20 -10 -31 -10c-24 0 -44 15 -50 35c-4 14 -2 27 6 51zM456 -139l73 219c8 24 13 34 24 43c9 7 20 10 31 10c24 0 44 -15 50 -35
c4 -14 2 -27 -6 -51l-73 -219c-8 -24 -13 -34 -24 -43c-9 -7 -20 -10 -31 -10c-24 0 -44 15 -50 35c-4 14 -2 27 6 51z" />
    <glyph glyph-name="dagger" unicode="&#x2020;" horiz-adv-x="1228" 
d="M562 62v856h-347c-24 0 -36 3 -46 10c-12 9 -18 21 -18 36s6 27 18 36c10 7 22 10 46 10h347v352c0 27 3 38 11 50s24 20 41 20s33 -8 41 -20s11 -23 11 -50v-352h347c24 0 36 -3 46 -10c12 -9 18 -21 18 -36s-6 -27 -18 -36c-10 -7 -22 -10 -46 -10h-347v-856
c0 -27 -3 -38 -11 -50s-24 -20 -41 -20s-33 8 -41 20s-11 23 -11 50z" />
    <glyph glyph-name="daggerdbl" unicode="&#x2021;" horiz-adv-x="1228" 
d="M151 0c0 15 6 27 18 36c10 7 22 10 46 10h347v872h-347c-24 0 -36 3 -46 10c-12 9 -18 21 -18 36s6 27 18 36c10 7 22 10 46 10h347v352c0 27 3 38 11 50s24 20 41 20s33 -8 41 -20s11 -23 11 -50v-352h347c24 0 36 -3 46 -10c12 -9 18 -21 18 -36s-6 -27 -18 -36
c-10 -7 -22 -10 -46 -10h-347v-872h347c24 0 36 -3 46 -10c12 -9 18 -21 18 -36s-6 -27 -18 -36c-10 -7 -22 -10 -46 -10h-347v-352c0 -27 -3 -38 -11 -50s-24 -20 -41 -20s-33 8 -41 20s-11 23 -11 50v352h-347c-24 0 -36 3 -46 10c-12 9 -18 21 -18 36z" />
    <glyph glyph-name="bullet" unicode="&#x2022;" 
d="M514 202c-179 0 -325 146 -325 325s146 325 325 325s325 -146 325 -325s-146 -325 -325 -325z" />
    <glyph glyph-name="ellipsis" unicode="&#x2026;" horiz-adv-x="1448" 
d="M264 -6c-51 0 -92 41 -92 92s41 92 92 92s92 -41 92 -92s-41 -92 -92 -92zM724 -6c-51 0 -92 41 -92 92s41 92 92 92s92 -41 92 -92s-41 -92 -92 -92zM1184 -6c-51 0 -92 41 -92 92s41 92 92 92s92 -41 92 -92s-41 -92 -92 -92z" />
    <glyph glyph-name="perthousand" unicode="&#x2030;" horiz-adv-x="2336" 
d="M461 65l665 1330c8 17 16 28 26 33c5 3 11 4 16 4c6 0 13 -2 19 -5c11 -6 19 -14 21 -27c2 -11 -1 -24 -10 -41l-665 -1330c-8 -17 -16 -28 -26 -33c-5 -3 -11 -4 -16 -4c-6 0 -13 2 -19 5c-11 6 -19 14 -21 27c-2 11 1 24 10 41zM576 958v206c0 120 -48 196 -174 196
s-176 -76 -176 -196v-206c0 -120 50 -194 176 -194s174 74 174 194zM664 1168v-214c0 -160 -106 -266 -262 -266s-264 106 -264 266v214c0 160 108 268 264 268s262 -108 262 -268zM1430 258v206c0 120 -48 196 -174 196s-176 -76 -176 -196v-206c0 -120 50 -194 176 -194
s174 74 174 194zM1518 468v-214c0 -160 -106 -266 -262 -266s-264 106 -264 266v214c0 160 108 268 264 268s262 -108 262 -268zM2110 258v206c0 120 -48 196 -174 196s-176 -76 -176 -196v-206c0 -120 50 -194 176 -194s174 74 174 194zM2198 468v-214
c0 -160 -106 -266 -262 -266s-264 106 -264 266v214c0 160 108 268 264 268s262 -108 262 -268z" />
    <glyph glyph-name="guilsinglleft" unicode="&#x2039;" horiz-adv-x="680" 
d="M427 153l-344 344l344 344c20 20 30 26 42 28c16 2 30 -3 41 -14s15 -24 13 -40c-2 -12 -8 -22 -28 -42l-276 -276l276 -276c20 -20 26 -30 28 -42c2 -16 -2 -29 -13 -40s-25 -16 -41 -14c-12 2 -22 8 -42 28z" />
    <glyph glyph-name="guilsinglright" unicode="&#x203a;" horiz-adv-x="680" 
d="M253 842l344 -344l-344 -344c-20 -20 -30 -26 -42 -28c-16 -2 -30 3 -41 14s-15 24 -13 40c2 12 8 22 28 42l276 276l-276 276c-20 20 -26 30 -28 42c-2 16 2 29 13 40s25 16 41 14c12 -2 22 -8 42 -28z" />
    <glyph glyph-name="fraction" unicode="&#x2044;" horiz-adv-x="354" 
d="M-191 65l665 1330c8 17 16 28 26 33c5 3 11 4 16 4c6 0 13 -2 19 -5c11 -6 19 -14 21 -27c2 -11 -1 -24 -10 -41l-665 -1330c-8 -17 -16 -28 -26 -33c-5 -3 -11 -4 -16 -4c-6 0 -13 2 -19 5c-11 6 -19 14 -21 27c-2 11 1 24 10 41z" />
    <glyph glyph-name="uni2070" unicode="&#x2070;" horiz-adv-x="626" 
d="M548 1196v-398c0 -142 -100 -236 -234 -236c-136 0 -234 94 -234 236v398c0 142 98 236 234 236c134 0 234 -94 234 -236zM460 802v390c0 91 -53 160 -146 160s-146 -67 -146 -160v-390c0 -93 53 -160 146 -160s146 69 146 160z" />
    <glyph glyph-name="uni2074" unicode="&#x2074;" horiz-adv-x="626" 
d="M50 779l306 614c11 22 23 39 45 39c19 0 41 -15 41 -37c0 -12 -4 -23 -12 -39l-286 -572h248v192c0 19 2 32 9 41c8 11 18 15 31 15s23 -4 31 -15c7 -9 9 -22 9 -41v-192h60c19 0 32 -2 41 -9c11 -8 15 -18 15 -31s-4 -23 -15 -31c-9 -7 -22 -9 -41 -9h-60v-86
c0 -19 -2 -32 -9 -41c-8 -11 -18 -15 -31 -15s-23 4 -31 15c-7 9 -9 22 -9 41v86h-300c-16 0 -26 2 -35 7c-11 7 -18 20 -18 33c0 8 3 18 11 35z" />
    <glyph glyph-name="uni2075" unicode="&#x2075;" horiz-adv-x="626" 
d="M488 1344h-304v-250c39 28 85 40 152 40c64 0 114 -18 148 -52c62 -64 72 -150 72 -230c0 -86 -8 -166 -68 -226c-40 -40 -98 -64 -172 -64c-80 0 -146 22 -192 84c-20 27 -33 73 -33 101c0 12 2 20 6 28c7 11 19 18 34 18c23 0 34 -9 38 -21c3 -7 5 -16 9 -32
c16 -61 58 -98 138 -98c42 0 80 12 106 38c44 44 46 110 46 172c0 104 -24 206 -144 206c-59 0 -103 -15 -137 -64c-5 -7 -9 -15 -17 -21c-7 -6 -17 -8 -26 -8c-6 0 -19 2 -28 10c-10 9 -12 22 -12 37v359c0 14 0 29 12 41s27 12 41 12h331c19 0 32 -2 41 -9
c11 -8 15 -18 15 -31s-4 -23 -15 -31c-9 -7 -22 -9 -41 -9z" />
    <glyph glyph-name="uni2076" unicode="&#x2076;" horiz-adv-x="626" 
d="M130 1000l195 393c11 22 23 39 45 39c19 0 41 -15 41 -37c0 -12 -4 -23 -12 -39l-157 -314c26 12 56 16 88 16c132 0 222 -102 222 -242c0 -146 -90 -254 -236 -254s-238 100 -238 248c0 58 13 111 52 190zM314 642c90 0 150 66 150 170c0 94 -52 172 -150 172
c-90 0 -148 -66 -148 -172c0 -104 58 -170 148 -170z" />
    <glyph glyph-name="uni2077" unicode="&#x2077;" horiz-adv-x="626" 
d="M208 631l266 713h-304v-94c0 -19 -2 -32 -9 -41c-8 -11 -18 -15 -31 -15s-23 4 -31 15c-7 9 -9 22 -9 41v121c0 14 0 29 12 41s27 12 41 12h357c33 0 49 -3 59 -10c9 -7 12 -16 12 -28c0 -13 -3 -27 -14 -56l-271 -727c-7 -18 -14 -29 -23 -35c-6 -4 -12 -6 -19 -6
c-16 0 -36 8 -42 27c-3 11 -1 24 6 42z" />
    <glyph glyph-name="uni2078" unicode="&#x2078;" horiz-adv-x="626" 
d="M438 1014c72 -40 128 -108 128 -208c0 -146 -110 -244 -252 -244s-252 98 -252 244c0 100 56 168 128 208c-68 38 -112 100 -112 188c0 132 100 230 236 230s236 -98 236 -230c0 -88 -42 -150 -112 -188zM314 1050c88 0 148 64 148 152s-58 150 -148 150
s-148 -62 -148 -150s60 -152 148 -152zM478 806c0 94 -70 166 -164 166s-164 -72 -164 -166s70 -164 164 -164s164 70 164 164z" />
    <glyph glyph-name="uni2079" unicode="&#x2079;" horiz-adv-x="626" 
d="M496 994l-195 -393c-11 -22 -23 -39 -45 -39c-19 0 -41 15 -41 37c0 12 4 23 12 39l157 314c-26 -12 -56 -16 -88 -16c-132 0 -222 102 -222 242c0 146 90 254 236 254s238 -100 238 -248c0 -58 -13 -111 -52 -190zM312 1352c-90 0 -150 -66 -150 -170
c0 -94 52 -172 150 -172c90 0 148 66 148 172c0 104 -58 170 -148 170z" />
    <glyph glyph-name="uni2080" unicode="&#x2080;" horiz-adv-x="626" 
d="M548 326v-398c0 -142 -100 -236 -234 -236c-136 0 -234 94 -234 236v398c0 142 98 236 234 236c134 0 234 -94 234 -236zM460 -68v390c0 91 -53 160 -146 160s-146 -67 -146 -160v-390c0 -93 53 -160 146 -160s146 69 146 160z" />
    <glyph glyph-name="uni2081" unicode="&#x2081;" horiz-adv-x="626" 
d="M304 -247v687l-95 -94c-14 -14 -23 -21 -35 -23s-24 3 -33 12s-14 21 -12 33s9 21 23 35l128 128c18 18 39 31 62 31c13 0 27 -2 37 -14s13 -27 13 -45v-750c0 -23 -3 -35 -9 -43c-9 -12 -21 -18 -35 -18s-26 6 -35 18c-6 8 -9 20 -9 43z" />
    <glyph glyph-name="uni2082" unicode="&#x2082;" horiz-adv-x="626" 
d="M512 -300h-367c-27 0 -41 0 -55 14c-6 7 -10 18 -10 26c0 15 8 26 25 49l316 421c30 40 45 76 45 121c0 92 -54 151 -147 151c-63 0 -127 -34 -141 -109c-3 -14 -6 -32 -14 -44c-7 -10 -17 -17 -34 -17c-15 0 -26 6 -33 16c-7 8 -8 18 -8 29c0 29 13 67 26 93
c35 69 107 112 204 112c141 0 235 -91 235 -231c0 -63 -20 -112 -62 -167l-293 -384h313c19 0 32 -2 41 -9c11 -8 15 -18 15 -31s-4 -23 -15 -31c-9 -7 -22 -9 -41 -9z" />
    <glyph glyph-name="uni2083" unicode="&#x2083;" horiz-adv-x="626" 
d="M548 330c0 -92 -38 -154 -114 -188c86 -32 130 -100 130 -206c0 -158 -110 -244 -250 -244c-98 0 -173 40 -211 94c-19 26 -33 67 -33 102c0 19 4 35 13 44c8 8 17 12 28 12s21 -3 30 -12c8 -8 12 -15 15 -38c11 -83 76 -122 158 -122c90 0 162 62 162 164
c0 100 -54 162 -168 162c-11 0 -23 3 -30 10c-9 9 -12 17 -12 29s3 20 12 29c7 7 17 10 30 10c100 0 152 58 152 152c0 100 -70 154 -148 154c-69 0 -115 -24 -136 -78c-5 -13 -8 -27 -12 -50c-5 -28 -24 -36 -42 -36c-28 0 -42 22 -42 52s14 69 29 92
c46 71 106 100 203 100c142 0 236 -90 236 -232z" />
    <glyph glyph-name="uni2084" unicode="&#x2084;" horiz-adv-x="626" 
d="M50 -91l306 614c11 22 23 39 45 39c19 0 41 -15 41 -37c0 -12 -4 -23 -12 -39l-286 -572h248v192c0 19 2 32 9 41c8 11 18 15 31 15s23 -4 31 -15c7 -9 9 -22 9 -41v-192h60c19 0 32 -2 41 -9c11 -8 15 -18 15 -31s-4 -23 -15 -31c-9 -7 -22 -9 -41 -9h-60v-86
c0 -19 -2 -32 -9 -41c-8 -11 -18 -15 -31 -15s-23 4 -31 15c-7 9 -9 22 -9 41v86h-300c-16 0 -26 2 -35 7c-11 7 -18 20 -18 33c0 8 3 18 11 35z" />
    <glyph glyph-name="uni2085" unicode="&#x2085;" horiz-adv-x="626" 
d="M488 474h-304v-250c39 28 85 40 152 40c64 0 114 -18 148 -52c62 -64 72 -150 72 -230c0 -86 -8 -166 -68 -226c-40 -40 -98 -64 -172 -64c-80 0 -146 22 -192 84c-20 27 -33 73 -33 101c0 12 2 20 6 28c7 11 19 18 34 18c23 0 34 -9 38 -21c3 -7 5 -16 9 -32
c16 -61 58 -98 138 -98c42 0 80 12 106 38c44 44 46 110 46 172c0 104 -24 206 -144 206c-59 0 -103 -15 -137 -64c-5 -7 -9 -15 -17 -21c-7 -6 -17 -8 -26 -8c-6 0 -19 2 -28 10c-10 9 -12 22 -12 37v359c0 14 0 29 12 41s27 12 41 12h331c19 0 32 -2 41 -9
c11 -8 15 -18 15 -31s-4 -23 -15 -31c-9 -7 -22 -9 -41 -9z" />
    <glyph glyph-name="uni2086" unicode="&#x2086;" horiz-adv-x="626" 
d="M130 130l195 393c11 22 23 39 45 39c19 0 41 -15 41 -37c0 -12 -4 -23 -12 -39l-157 -314c26 12 56 16 88 16c132 0 222 -102 222 -242c0 -146 -90 -254 -236 -254s-238 100 -238 248c0 58 13 111 52 190zM314 -228c90 0 150 66 150 170c0 94 -52 172 -150 172
c-90 0 -148 -66 -148 -172c0 -104 58 -170 148 -170z" />
    <glyph glyph-name="uni2087" unicode="&#x2087;" horiz-adv-x="626" 
d="M208 -239l266 713h-304v-94c0 -19 -2 -32 -9 -41c-8 -11 -18 -15 -31 -15s-23 4 -31 15c-7 9 -9 22 -9 41v121c0 14 0 29 12 41s27 12 41 12h357c33 0 49 -3 59 -10c9 -7 12 -16 12 -28c0 -13 -3 -27 -14 -56l-271 -727c-7 -18 -14 -29 -23 -35c-6 -4 -12 -6 -19 -6
c-16 0 -36 8 -42 27c-3 11 -1 24 6 42z" />
    <glyph glyph-name="uni2088" unicode="&#x2088;" horiz-adv-x="626" 
d="M438 144c72 -40 128 -108 128 -208c0 -146 -110 -244 -252 -244s-252 98 -252 244c0 100 56 168 128 208c-68 38 -112 100 -112 188c0 132 100 230 236 230s236 -98 236 -230c0 -88 -42 -150 -112 -188zM314 180c88 0 148 64 148 152s-58 150 -148 150
s-148 -62 -148 -150s60 -152 148 -152zM478 -64c0 94 -70 166 -164 166s-164 -72 -164 -166s70 -164 164 -164s164 70 164 164z" />
    <glyph glyph-name="uni2089" unicode="&#x2089;" horiz-adv-x="626" 
d="M496 124l-195 -393c-11 -22 -23 -39 -45 -39c-19 0 -41 15 -41 37c0 12 4 23 12 39l157 314c-26 -12 -56 -16 -88 -16c-132 0 -222 102 -222 242c0 146 90 254 236 254s238 -100 238 -248c0 -58 -13 -111 -52 -190zM312 482c-90 0 -150 -66 -150 -170
c0 -94 52 -172 150 -172c90 0 148 66 148 172c0 104 -58 170 -148 170z" />
    <glyph glyph-name="Euro" unicode="&#x20ac;" horiz-adv-x="1398" 
d="M824 822h-442v-208h442c19 0 32 -2 41 -9c11 -8 15 -18 15 -31s-4 -23 -15 -31c-9 -7 -22 -9 -41 -9h-440c6 -174 29 -261 108 -340c74 -74 166 -110 270 -110c180 0 310 104 362 271c7 22 15 40 26 51c9 9 19 14 35 14c12 0 25 -4 35 -14s14 -22 14 -39
c0 -42 -32 -129 -81 -193c-80 -104 -201 -186 -391 -186c-142 0 -262 52 -346 136c-106 106 -134 198 -140 410h-82c-19 0 -32 2 -41 9c-11 8 -15 18 -15 31s4 23 15 31c9 7 22 9 41 9h80v208h-80c-19 0 -32 2 -41 9c-11 8 -15 18 -15 31s4 23 15 31c9 7 22 9 41 9h82
c8 203 36 294 140 398c84 84 204 136 346 136c190 0 311 -82 391 -186c49 -64 81 -151 81 -193c0 -17 -4 -29 -14 -39s-23 -14 -35 -14c-16 0 -26 5 -35 14c-11 11 -19 29 -26 51c-52 167 -182 271 -362 271c-104 0 -196 -36 -270 -110c-77 -77 -101 -162 -108 -328h440
c19 0 32 -2 41 -9c11 -8 15 -18 15 -31s-4 -23 -15 -31c-9 -7 -22 -9 -41 -9z" />
    <glyph glyph-name="uni20B4" unicode="&#x20b4;" horiz-adv-x="1302" 
d="M752 680l-166 -26c-76 -12 -119 -22 -155 -40h723c19 0 32 -2 41 -9c11 -8 15 -18 15 -31s-4 -23 -15 -31c-9 -7 -22 -9 -41 -9h-812c-27 -42 -40 -96 -40 -156c0 -186 142 -294 366 -294c151 0 242 28 358 124c20 16 37 30 57 30c13 0 26 -5 36 -15
c11 -11 15 -24 15 -38c0 -22 -17 -41 -38 -58c-130 -107 -256 -139 -422 -139c-296 0 -480 154 -480 394c0 55 10 106 29 152h-75c-19 0 -32 2 -41 9c-11 8 -15 18 -15 31s4 23 15 31c9 7 22 9 41 9h124c13 16 28 30 44 44c60 50 122 73 256 94l154 24c68 10 113 24 153 46
h-731c-19 0 -32 2 -41 9c-11 8 -15 18 -15 31s4 23 15 31c9 7 22 9 41 9h826c25 39 38 89 38 148c0 180 -124 293 -330 293c-128 0 -195 -21 -299 -95c-22 -16 -41 -27 -57 -27s-27 5 -37 17c-8 9 -11 18 -11 31c0 22 18 40 40 56c113 80 206 111 358 111
c272 0 442 -152 442 -390c0 -54 -9 -102 -26 -144h62c19 0 32 -2 41 -9c11 -8 15 -18 15 -31s-4 -23 -15 -31c-9 -7 -22 -9 -41 -9h-111c-11 -13 -24 -26 -37 -37c-72 -60 -141 -87 -254 -105z" />
    <glyph glyph-name="afii61352" unicode="&#x2116;" horiz-adv-x="1990" 
d="M1146 1362v-1296c0 -30 -7 -45 -19 -57c-11 -11 -25 -17 -40 -17c-25 0 -43 14 -59 41l-704 1197v-1168c0 -27 -3 -38 -11 -50s-24 -20 -41 -20s-33 8 -41 20s-11 23 -11 50v1296c0 30 7 45 19 57c11 11 25 17 40 17c25 0 43 -14 59 -41l704 -1197v1168c0 27 3 38 11 50
s24 20 41 20s33 -8 41 -20s11 -23 11 -50zM1812 568h-412c-24 0 -36 3 -46 10c-12 9 -18 21 -18 36s6 27 18 36c10 7 22 10 46 10h412c24 0 36 -3 46 -10c12 -9 18 -21 18 -36s-6 -27 -18 -36c-10 -7 -22 -10 -46 -10zM1872 1088c0 -102 -12 -208 -82 -278
c-46 -46 -106 -70 -182 -70s-136 24 -182 70c-70 70 -82 176 -82 278s12 208 82 278c46 46 106 70 182 70s136 -24 182 -70c70 -70 82 -176 82 -278zM1778 1088c0 76 -5 168 -51 214c-30 30 -71 48 -119 48s-89 -18 -119 -48c-46 -46 -51 -138 -51 -214s5 -168 51 -214
c30 -30 71 -48 119 -48s89 18 119 48c46 46 51 138 51 214z" />
    <glyph glyph-name="trademark" unicode="&#x2122;" horiz-adv-x="1618" 
d="M1418 623v603l-202 -400c-15 -29 -35 -46 -64 -46s-49 17 -64 46l-202 400v-603c0 -23 -3 -35 -9 -43c-9 -12 -21 -18 -35 -18s-26 6 -35 18c-6 8 -9 20 -9 43v719c0 41 3 56 14 68c7 8 18 14 38 14c14 0 26 -4 36 -14c9 -9 20 -26 36 -58l230 -468l230 468
c16 32 27 49 36 58c10 10 22 14 36 14c20 0 31 -6 38 -14c11 -12 14 -27 14 -68v-719c0 -23 -3 -35 -9 -43c-9 -12 -21 -18 -35 -18s-26 6 -35 18c-6 8 -9 20 -9 43zM308 623v721h-196c-19 0 -32 2 -41 9c-11 8 -15 18 -15 31s4 23 15 31c9 7 22 9 41 9h480
c19 0 32 -2 41 -9c11 -8 15 -18 15 -31s-4 -23 -15 -31c-9 -7 -22 -9 -41 -9h-196v-721c0 -23 -3 -35 -9 -43c-9 -12 -21 -18 -35 -18s-26 6 -35 18c-6 8 -9 20 -9 43z" />
    <glyph glyph-name="Omega" unicode="&#x2126;" horiz-adv-x="1376" 
d="M1184 48c0 -16 -6 -28 -19 -38c-10 -7 -22 -10 -50 -10h-242c-28 0 -40 3 -50 10c-13 10 -19 22 -19 38c0 29 18 43 44 58c71 41 122 90 166 162c50 82 54 230 54 444c0 300 -8 416 -110 518c-74 74 -166 110 -270 110s-196 -36 -270 -110c-102 -102 -110 -218 -110 -518
c0 -214 4 -362 54 -444c44 -72 95 -121 166 -162c26 -15 44 -29 44 -58c0 -16 -6 -28 -19 -38c-10 -7 -22 -10 -50 -10h-242c-28 0 -40 3 -50 10c-13 10 -19 22 -19 38s6 28 19 38c10 7 22 10 50 10h131c-61 48 -102 90 -130 142c-56 102 -62 246 -62 474
c0 346 10 456 142 588c84 84 204 136 346 136s262 -52 346 -136c132 -132 142 -242 142 -588c0 -228 -6 -372 -62 -474c-28 -52 -69 -94 -130 -142h131c28 0 40 -3 50 -10c13 -10 19 -22 19 -38z" />
    <glyph glyph-name="uni2150" unicode="&#x2150;" horiz-adv-x="1606" 
d="M304 623v687l-95 -94c-14 -14 -23 -21 -35 -23s-24 3 -33 12s-14 21 -12 33s9 21 23 35l128 128c18 18 39 31 62 31c13 0 27 -2 37 -14s13 -27 13 -45v-750c0 -23 -3 -35 -9 -43c-9 -12 -21 -18 -35 -18s-26 6 -35 18c-6 8 -9 20 -9 43zM435 65l665 1330
c8 17 16 28 26 33c5 3 11 4 16 4c6 0 13 -2 19 -5c11 -6 19 -14 21 -27c2 -11 -1 -24 -10 -41l-665 -1330c-8 -17 -16 -28 -26 -33c-5 -3 -11 -4 -16 -4c-6 0 -13 2 -19 5c-11 6 -19 14 -21 27c-2 11 1 24 10 41zM1188 61l266 713h-304v-94c0 -19 -2 -32 -9 -41
c-8 -11 -18 -15 -31 -15s-23 4 -31 15c-7 9 -9 22 -9 41v121c0 14 0 29 12 41s27 12 41 12h357c33 0 49 -3 59 -10c9 -7 12 -16 12 -28c0 -13 -3 -27 -14 -56l-271 -727c-7 -18 -14 -29 -23 -35c-6 -4 -12 -6 -19 -6c-16 0 -36 8 -42 27c-3 11 -1 24 6 42z" />
    <glyph glyph-name="uni2151" unicode="&#x2151;" horiz-adv-x="1606" 
d="M304 623v687l-95 -94c-14 -14 -23 -21 -35 -23s-24 3 -33 12s-14 21 -12 33s9 21 23 35l128 128c18 18 39 31 62 31c13 0 27 -2 37 -14s13 -27 13 -45v-750c0 -23 -3 -35 -9 -43c-9 -12 -21 -18 -35 -18s-26 6 -35 18c-6 8 -9 20 -9 43zM435 65l665 1330
c8 17 16 28 26 33c5 3 11 4 16 4c6 0 13 -2 19 -5c11 -6 19 -14 21 -27c2 -11 -1 -24 -10 -41l-665 -1330c-8 -17 -16 -28 -26 -33c-5 -3 -11 -4 -16 -4c-6 0 -13 2 -19 5c-11 6 -19 14 -21 27c-2 11 1 24 10 41zM1476 424l-195 -393c-11 -22 -23 -39 -45 -39
c-19 0 -41 15 -41 37c0 12 4 23 12 39l157 314c-26 -12 -56 -16 -88 -16c-132 0 -222 102 -222 242c0 146 90 254 236 254s238 -100 238 -248c0 -58 -13 -111 -52 -190zM1292 782c-90 0 -150 -66 -150 -170c0 -94 52 -172 150 -172c90 0 148 66 148 172
c0 104 -58 170 -148 170z" />
    <glyph glyph-name="uni2152" unicode="&#x2152;" horiz-adv-x="2232" 
d="M304 623v687l-95 -94c-14 -14 -23 -21 -35 -23s-24 3 -33 12s-14 21 -12 33s9 21 23 35l128 128c18 18 39 31 62 31c13 0 27 -2 37 -14s13 -27 13 -45v-750c0 -23 -3 -35 -9 -43c-9 -12 -21 -18 -35 -18s-26 6 -35 18c-6 8 -9 20 -9 43zM435 65l665 1330
c8 17 16 28 26 33c5 3 11 4 16 4c6 0 13 -2 19 -5c11 -6 19 -14 21 -27c2 -11 -1 -24 -10 -41l-665 -1330c-8 -17 -16 -28 -26 -33c-5 -3 -11 -4 -16 -4c-6 0 -13 2 -19 5c-11 6 -19 14 -21 27c-2 11 1 24 10 41zM1284 53v687l-95 -94c-14 -14 -23 -21 -35 -23s-24 3 -33 12
s-14 21 -12 33s9 21 23 35l128 128c18 18 39 31 62 31c13 0 27 -2 37 -14s13 -27 13 -45v-750c0 -23 -3 -35 -9 -43c-9 -12 -21 -18 -35 -18s-26 6 -35 18c-6 8 -9 20 -9 43zM2154 626v-398c0 -142 -100 -236 -234 -236c-136 0 -234 94 -234 236v398c0 142 98 236 234 236
c134 0 234 -94 234 -236zM2066 232v390c0 91 -53 160 -146 160s-146 -67 -146 -160v-390c0 -93 53 -160 146 -160s146 69 146 160z" />
    <glyph glyph-name="onethird" unicode="&#x2153;" horiz-adv-x="1606" 
d="M434 65l665 1330c8 17 16 28 26 33c5 3 11 4 16 4c6 0 13 -2 19 -5c11 -6 19 -14 21 -27c2 -11 -1 -24 -10 -41l-665 -1330c-8 -17 -16 -28 -26 -33c-5 -3 -11 -4 -16 -4c-6 0 -13 2 -19 5c-11 6 -19 14 -21 27c-2 11 1 24 10 41zM304 623v687l-95 -94
c-14 -14 -23 -21 -35 -23s-24 3 -33 12s-14 21 -12 33s9 21 23 35l128 128c18 18 39 31 62 31c13 0 27 -2 37 -14s13 -27 13 -45v-750c0 -23 -3 -35 -9 -43c-9 -12 -21 -18 -35 -18s-26 6 -35 18c-6 8 -9 20 -9 43zM1528 630c0 -92 -38 -154 -114 -188
c86 -32 130 -100 130 -206c0 -158 -110 -244 -250 -244c-98 0 -173 40 -211 94c-19 26 -33 67 -33 102c0 19 4 35 13 44c8 8 17 12 28 12s21 -3 30 -12c8 -8 12 -15 15 -38c11 -83 76 -122 158 -122c90 0 162 62 162 164c0 100 -54 162 -168 162c-11 0 -23 3 -30 10
c-9 9 -12 17 -12 29s3 20 12 29c7 7 17 10 30 10c100 0 152 58 152 152c0 100 -70 154 -148 154c-69 0 -115 -24 -136 -78c-5 -13 -8 -27 -12 -50c-5 -28 -24 -36 -42 -36c-28 0 -42 22 -42 52s14 69 29 92c46 71 106 100 203 100c142 0 236 -90 236 -232z" />
    <glyph glyph-name="twothirds" unicode="&#x2154;" horiz-adv-x="1606" 
d="M1528 630c0 -92 -38 -154 -114 -188c86 -32 130 -100 130 -206c0 -158 -110 -244 -250 -244c-98 0 -173 40 -211 94c-19 26 -33 67 -33 102c0 19 4 35 13 44c8 8 17 12 28 12s21 -3 30 -12c8 -8 12 -15 15 -38c11 -83 76 -122 158 -122c90 0 162 62 162 164
c0 100 -54 162 -168 162c-11 0 -23 3 -30 10c-9 9 -12 17 -12 29s3 20 12 29c7 7 17 10 30 10c100 0 152 58 152 152c0 100 -70 154 -148 154c-69 0 -115 -24 -136 -78c-5 -13 -8 -27 -12 -50c-5 -28 -24 -36 -42 -36c-28 0 -42 22 -42 52s14 69 29 92
c46 71 106 100 203 100c142 0 236 -90 236 -232zM434 65l665 1330c8 17 16 28 26 33c5 3 11 4 16 4c6 0 13 -2 19 -5c11 -6 19 -14 21 -27c2 -11 -1 -24 -10 -41l-665 -1330c-8 -17 -16 -28 -26 -33c-5 -3 -11 -4 -16 -4c-6 0 -13 2 -19 5c-11 6 -19 14 -21 27
c-2 11 1 24 10 41zM512 570h-367c-27 0 -41 0 -55 14c-6 7 -10 18 -10 26c0 15 8 26 25 49l316 421c30 40 45 76 45 121c0 92 -54 151 -147 151c-63 0 -127 -34 -141 -109c-3 -14 -6 -32 -14 -44c-7 -10 -17 -17 -34 -17c-15 0 -26 6 -33 16c-7 8 -8 18 -8 29
c0 29 13 67 26 93c35 69 107 112 204 112c141 0 235 -91 235 -231c0 -63 -20 -112 -62 -167l-293 -384h313c19 0 32 -2 41 -9c11 -8 15 -18 15 -31s-4 -23 -15 -31c-9 -7 -22 -9 -41 -9z" />
    <glyph glyph-name="uni2155" unicode="&#x2155;" horiz-adv-x="1606" 
d="M304 623v687l-95 -94c-14 -14 -23 -21 -35 -23s-24 3 -33 12s-14 21 -12 33s9 21 23 35l128 128c18 18 39 31 62 31c13 0 27 -2 37 -14s13 -27 13 -45v-750c0 -23 -3 -35 -9 -43c-9 -12 -21 -18 -35 -18s-26 6 -35 18c-6 8 -9 20 -9 43zM434 65l665 1330
c8 17 16 28 26 33c5 3 11 4 16 4c6 0 13 -2 19 -5c11 -6 19 -14 21 -27c2 -11 -1 -24 -10 -41l-665 -1330c-8 -17 -16 -28 -26 -33c-5 -3 -11 -4 -16 -4c-6 0 -13 2 -19 5c-11 6 -19 14 -21 27c-2 11 1 24 10 41zM1468 774h-304v-250c39 28 85 40 152 40
c64 0 114 -18 148 -52c62 -64 72 -150 72 -230c0 -86 -8 -166 -68 -226c-40 -40 -98 -64 -172 -64c-80 0 -146 22 -192 84c-20 27 -33 73 -33 101c0 12 2 20 6 28c7 11 19 18 34 18c23 0 34 -9 38 -21c3 -7 5 -16 9 -32c16 -61 58 -98 138 -98c42 0 80 12 106 38
c44 44 46 110 46 172c0 104 -24 206 -144 206c-59 0 -103 -15 -137 -64c-5 -7 -9 -15 -17 -21c-7 -6 -17 -8 -26 -8c-6 0 -19 2 -28 10c-10 9 -12 22 -12 37v359c0 14 0 29 12 41s27 12 41 12h331c19 0 32 -2 41 -9c11 -8 15 -18 15 -31s-4 -23 -15 -31c-9 -7 -22 -9 -41 -9
z" />
    <glyph glyph-name="uni2156" unicode="&#x2156;" horiz-adv-x="1606" 
d="M434 65l665 1330c8 17 16 28 26 33c5 3 11 4 16 4c6 0 13 -2 19 -5c11 -6 19 -14 21 -27c2 -11 -1 -24 -10 -41l-665 -1330c-8 -17 -16 -28 -26 -33c-5 -3 -11 -4 -16 -4c-6 0 -13 2 -19 5c-11 6 -19 14 -21 27c-2 11 1 24 10 41zM512 570h-367c-27 0 -41 0 -55 14
c-6 7 -10 18 -10 26c0 15 8 26 25 49l316 421c30 40 45 76 45 121c0 92 -54 151 -147 151c-63 0 -127 -34 -141 -109c-3 -14 -6 -32 -14 -44c-7 -10 -17 -17 -34 -17c-15 0 -26 6 -33 16c-7 8 -8 18 -8 29c0 29 13 67 26 93c35 69 107 112 204 112c141 0 235 -91 235 -231
c0 -63 -20 -112 -62 -167l-293 -384h313c19 0 32 -2 41 -9c11 -8 15 -18 15 -31s-4 -23 -15 -31c-9 -7 -22 -9 -41 -9zM1468 774h-304v-250c39 28 85 40 152 40c64 0 114 -18 148 -52c62 -64 72 -150 72 -230c0 -86 -8 -166 -68 -226c-40 -40 -98 -64 -172 -64
c-80 0 -146 22 -192 84c-20 27 -33 73 -33 101c0 12 2 20 6 28c7 11 19 18 34 18c23 0 34 -9 38 -21c3 -7 5 -16 9 -32c16 -61 58 -98 138 -98c42 0 80 12 106 38c44 44 46 110 46 172c0 104 -24 206 -144 206c-59 0 -103 -15 -137 -64c-5 -7 -9 -15 -17 -21
c-7 -6 -17 -8 -26 -8c-6 0 -19 2 -28 10c-10 9 -12 22 -12 37v359c0 14 0 29 12 41s27 12 41 12h331c19 0 32 -2 41 -9c11 -8 15 -18 15 -31s-4 -23 -15 -31c-9 -7 -22 -9 -41 -9z" />
    <glyph glyph-name="uni2157" unicode="&#x2157;" horiz-adv-x="1606" 
d="M434 65l665 1330c8 17 16 28 26 33c5 3 11 4 16 4c6 0 13 -2 19 -5c11 -6 19 -14 21 -27c2 -11 -1 -24 -10 -41l-665 -1330c-8 -17 -16 -28 -26 -33c-5 -3 -11 -4 -16 -4c-6 0 -13 2 -19 5c-11 6 -19 14 -21 27c-2 11 1 24 10 41zM548 1200c0 -92 -38 -154 -114 -188
c86 -32 130 -100 130 -206c0 -158 -110 -244 -250 -244c-98 0 -173 40 -211 94c-19 26 -33 67 -33 102c0 19 4 35 13 44c8 8 17 12 28 12s21 -3 30 -12c8 -8 12 -15 15 -38c11 -83 76 -122 158 -122c90 0 162 62 162 164c0 100 -54 162 -168 162c-11 0 -23 3 -30 10
c-9 9 -12 17 -12 29s3 20 12 29c7 7 17 10 30 10c100 0 152 58 152 152c0 100 -70 154 -148 154c-69 0 -115 -24 -136 -78c-5 -13 -8 -27 -12 -50c-5 -28 -24 -36 -42 -36c-28 0 -42 22 -42 52s14 69 29 92c46 71 106 100 203 100c142 0 236 -90 236 -232zM1468 774h-304
v-250c39 28 85 40 152 40c64 0 114 -18 148 -52c62 -64 72 -150 72 -230c0 -86 -8 -166 -68 -226c-40 -40 -98 -64 -172 -64c-80 0 -146 22 -192 84c-20 27 -33 73 -33 101c0 12 2 20 6 28c7 11 19 18 34 18c23 0 34 -9 38 -21c3 -7 5 -16 9 -32c16 -61 58 -98 138 -98
c42 0 80 12 106 38c44 44 46 110 46 172c0 104 -24 206 -144 206c-59 0 -103 -15 -137 -64c-5 -7 -9 -15 -17 -21c-7 -6 -17 -8 -26 -8c-6 0 -19 2 -28 10c-10 9 -12 22 -12 37v359c0 14 0 29 12 41s27 12 41 12h331c19 0 32 -2 41 -9c11 -8 15 -18 15 -31s-4 -23 -15 -31
c-9 -7 -22 -9 -41 -9z" />
    <glyph glyph-name="uni2158" unicode="&#x2158;" horiz-adv-x="1606" 
d="M434 65l665 1330c8 17 16 28 26 33c5 3 11 4 16 4c6 0 13 -2 19 -5c11 -6 19 -14 21 -27c2 -11 -1 -24 -10 -41l-665 -1330c-8 -17 -16 -28 -26 -33c-5 -3 -11 -4 -16 -4c-6 0 -13 2 -19 5c-11 6 -19 14 -21 27c-2 11 1 24 10 41zM1468 774h-304v-250c39 28 85 40 152 40
c64 0 114 -18 148 -52c62 -64 72 -150 72 -230c0 -86 -8 -166 -68 -226c-40 -40 -98 -64 -172 -64c-80 0 -146 22 -192 84c-20 27 -33 73 -33 101c0 12 2 20 6 28c7 11 19 18 34 18c23 0 34 -9 38 -21c3 -7 5 -16 9 -32c16 -61 58 -98 138 -98c42 0 80 12 106 38
c44 44 46 110 46 172c0 104 -24 206 -144 206c-59 0 -103 -15 -137 -64c-5 -7 -9 -15 -17 -21c-7 -6 -17 -8 -26 -8c-6 0 -19 2 -28 10c-10 9 -12 22 -12 37v359c0 14 0 29 12 41s27 12 41 12h331c19 0 32 -2 41 -9c11 -8 15 -18 15 -31s-4 -23 -15 -31c-9 -7 -22 -9 -41 -9
zM50 779l306 614c11 22 23 39 45 39c19 0 41 -15 41 -37c0 -12 -4 -23 -12 -39l-286 -572h248v192c0 19 2 32 9 41c8 11 18 15 31 15s23 -4 31 -15c7 -9 9 -22 9 -41v-192h60c19 0 32 -2 41 -9c11 -8 15 -18 15 -31s-4 -23 -15 -31c-9 -7 -22 -9 -41 -9h-60v-86
c0 -19 -2 -32 -9 -41c-8 -11 -18 -15 -31 -15s-23 4 -31 15c-7 9 -9 22 -9 41v86h-300c-16 0 -26 2 -35 7c-11 7 -18 20 -18 33c0 8 3 18 11 35z" />
    <glyph glyph-name="uni2159" unicode="&#x2159;" horiz-adv-x="1606" 
d="M304 623v687l-95 -94c-14 -14 -23 -21 -35 -23s-24 3 -33 12s-14 21 -12 33s9 21 23 35l128 128c18 18 39 31 62 31c13 0 27 -2 37 -14s13 -27 13 -45v-750c0 -23 -3 -35 -9 -43c-9 -12 -21 -18 -35 -18s-26 6 -35 18c-6 8 -9 20 -9 43zM434 65l665 1330
c8 17 16 28 26 33c5 3 11 4 16 4c6 0 13 -2 19 -5c11 -6 19 -14 21 -27c2 -11 -1 -24 -10 -41l-665 -1330c-8 -17 -16 -28 -26 -33c-5 -3 -11 -4 -16 -4c-6 0 -13 2 -19 5c-11 6 -19 14 -21 27c-2 11 1 24 10 41zM1110 430l195 393c11 22 23 39 45 39c19 0 41 -15 41 -37
c0 -12 -4 -23 -12 -39l-157 -314c26 12 56 16 88 16c132 0 222 -102 222 -242c0 -146 -90 -254 -236 -254s-238 100 -238 248c0 58 13 111 52 190zM1294 72c90 0 150 66 150 170c0 94 -52 172 -150 172c-90 0 -148 -66 -148 -172c0 -104 58 -170 148 -170z" />
    <glyph glyph-name="uni215A" unicode="&#x215a;" horiz-adv-x="1606" 
d="M434 65l665 1330c8 17 16 28 26 33c5 3 11 4 16 4c6 0 13 -2 19 -5c11 -6 19 -14 21 -27c2 -11 -1 -24 -10 -41l-665 -1330c-8 -17 -16 -28 -26 -33c-5 -3 -11 -4 -16 -4c-6 0 -13 2 -19 5c-11 6 -19 14 -21 27c-2 11 1 24 10 41zM488 1344h-304v-250c39 28 85 40 152 40
c64 0 114 -18 148 -52c62 -64 72 -150 72 -230c0 -86 -8 -166 -68 -226c-40 -40 -98 -64 -172 -64c-80 0 -146 22 -192 84c-20 27 -33 73 -33 101c0 12 2 20 6 28c7 11 19 18 34 18c23 0 34 -9 38 -21c3 -7 5 -16 9 -32c16 -61 58 -98 138 -98c42 0 80 12 106 38
c44 44 46 110 46 172c0 104 -24 206 -144 206c-59 0 -103 -15 -137 -64c-5 -7 -9 -15 -17 -21c-7 -6 -17 -8 -26 -8c-6 0 -19 2 -28 10c-10 9 -12 22 -12 37v359c0 14 0 29 12 41s27 12 41 12h331c19 0 32 -2 41 -9c11 -8 15 -18 15 -31s-4 -23 -15 -31c-9 -7 -22 -9 -41 -9
zM1110 430l195 393c11 22 23 39 45 39c19 0 41 -15 41 -37c0 -12 -4 -23 -12 -39l-157 -314c26 12 56 16 88 16c132 0 222 -102 222 -242c0 -146 -90 -254 -236 -254s-238 100 -238 248c0 58 13 111 52 190zM1294 72c90 0 150 66 150 170c0 94 -52 172 -150 172
c-90 0 -148 -66 -148 -172c0 -104 58 -170 148 -170z" />
    <glyph glyph-name="oneeighth" unicode="&#x215b;" horiz-adv-x="1606" 
d="M304 623v687l-95 -94c-14 -14 -23 -21 -35 -23s-24 3 -33 12s-14 21 -12 33s9 21 23 35l128 128c18 18 39 31 62 31c13 0 27 -2 37 -14s13 -27 13 -45v-750c0 -23 -3 -35 -9 -43c-9 -12 -21 -18 -35 -18s-26 6 -35 18c-6 8 -9 20 -9 43zM434 65l665 1330
c8 17 16 28 26 33c5 3 11 4 16 4c6 0 13 -2 19 -5c11 -6 19 -14 21 -27c2 -11 -1 -24 -10 -41l-665 -1330c-8 -17 -16 -28 -26 -33c-5 -3 -11 -4 -16 -4c-6 0 -13 2 -19 5c-11 6 -19 14 -21 27c-2 11 1 24 10 41zM1418 444c72 -40 128 -108 128 -208
c0 -146 -110 -244 -252 -244s-252 98 -252 244c0 100 56 168 128 208c-68 38 -112 100 -112 188c0 132 100 230 236 230s236 -98 236 -230c0 -88 -42 -150 -112 -188zM1294 480c88 0 148 64 148 152s-58 150 -148 150s-148 -62 -148 -150s60 -152 148 -152zM1458 236
c0 94 -70 166 -164 166s-164 -72 -164 -166s70 -164 164 -164s164 70 164 164z" />
    <glyph glyph-name="threeeighths" unicode="&#x215c;" horiz-adv-x="1606" 
d="M434 65l665 1330c8 17 16 28 26 33c5 3 11 4 16 4c6 0 13 -2 19 -5c11 -6 19 -14 21 -27c2 -11 -1 -24 -10 -41l-665 -1330c-8 -17 -16 -28 -26 -33c-5 -3 -11 -4 -16 -4c-6 0 -13 2 -19 5c-11 6 -19 14 -21 27c-2 11 1 24 10 41zM1418 444c72 -40 128 -108 128 -208
c0 -146 -110 -244 -252 -244s-252 98 -252 244c0 100 56 168 128 208c-68 38 -112 100 -112 188c0 132 100 230 236 230s236 -98 236 -230c0 -88 -42 -150 -112 -188zM1294 480c88 0 148 64 148 152s-58 150 -148 150s-148 -62 -148 -150s60 -152 148 -152zM1458 236
c0 94 -70 166 -164 166s-164 -72 -164 -166s70 -164 164 -164s164 70 164 164zM548 1200c0 -92 -38 -154 -114 -188c86 -32 130 -100 130 -206c0 -158 -110 -244 -250 -244c-98 0 -173 40 -211 94c-19 26 -33 67 -33 102c0 19 4 35 13 44c8 8 17 12 28 12s21 -3 30 -12
c8 -8 12 -15 15 -38c11 -83 76 -122 158 -122c90 0 162 62 162 164c0 100 -54 162 -168 162c-11 0 -23 3 -30 10c-9 9 -12 17 -12 29s3 20 12 29c7 7 17 10 30 10c100 0 152 58 152 152c0 100 -70 154 -148 154c-69 0 -115 -24 -136 -78c-5 -13 -8 -27 -12 -50
c-5 -28 -24 -36 -42 -36c-28 0 -42 22 -42 52s14 69 29 92c46 71 106 100 203 100c142 0 236 -90 236 -232z" />
    <glyph glyph-name="fiveeighths" unicode="&#x215d;" horiz-adv-x="1606" 
d="M434 65l665 1330c8 17 16 28 26 33c5 3 11 4 16 4c6 0 13 -2 19 -5c11 -6 19 -14 21 -27c2 -11 -1 -24 -10 -41l-665 -1330c-8 -17 -16 -28 -26 -33c-5 -3 -11 -4 -16 -4c-6 0 -13 2 -19 5c-11 6 -19 14 -21 27c-2 11 1 24 10 41zM1418 444c72 -40 128 -108 128 -208
c0 -146 -110 -244 -252 -244s-252 98 -252 244c0 100 56 168 128 208c-68 38 -112 100 -112 188c0 132 100 230 236 230s236 -98 236 -230c0 -88 -42 -150 -112 -188zM1294 480c88 0 148 64 148 152s-58 150 -148 150s-148 -62 -148 -150s60 -152 148 -152zM1458 236
c0 94 -70 166 -164 166s-164 -72 -164 -166s70 -164 164 -164s164 70 164 164zM488 1344h-304v-250c39 28 85 40 152 40c64 0 114 -18 148 -52c62 -64 72 -150 72 -230c0 -86 -8 -166 -68 -226c-40 -40 -98 -64 -172 -64c-80 0 -146 22 -192 84c-20 27 -33 73 -33 101
c0 12 2 20 6 28c7 11 19 18 34 18c23 0 34 -9 38 -21c3 -7 5 -16 9 -32c16 -61 58 -98 138 -98c42 0 80 12 106 38c44 44 46 110 46 172c0 104 -24 206 -144 206c-59 0 -103 -15 -137 -64c-5 -7 -9 -15 -17 -21c-7 -6 -17 -8 -26 -8c-6 0 -19 2 -28 10c-10 9 -12 22 -12 37
v359c0 14 0 29 12 41s27 12 41 12h331c19 0 32 -2 41 -9c11 -8 15 -18 15 -31s-4 -23 -15 -31c-9 -7 -22 -9 -41 -9z" />
    <glyph glyph-name="seveneighths" unicode="&#x215e;" horiz-adv-x="1606" 
d="M434 65l665 1330c8 17 16 28 26 33c5 3 11 4 16 4c6 0 13 -2 19 -5c11 -6 19 -14 21 -27c2 -11 -1 -24 -10 -41l-665 -1330c-8 -17 -16 -28 -26 -33c-5 -3 -11 -4 -16 -4c-6 0 -13 2 -19 5c-11 6 -19 14 -21 27c-2 11 1 24 10 41zM1418 444c72 -40 128 -108 128 -208
c0 -146 -110 -244 -252 -244s-252 98 -252 244c0 100 56 168 128 208c-68 38 -112 100 -112 188c0 132 100 230 236 230s236 -98 236 -230c0 -88 -42 -150 -112 -188zM1294 480c88 0 148 64 148 152s-58 150 -148 150s-148 -62 -148 -150s60 -152 148 -152zM1458 236
c0 94 -70 166 -164 166s-164 -72 -164 -166s70 -164 164 -164s164 70 164 164zM208 631l266 713h-304v-94c0 -19 -2 -32 -9 -41c-8 -11 -18 -15 -31 -15s-23 4 -31 15c-7 9 -9 22 -9 41v121c0 14 0 29 12 41s27 12 41 12h357c33 0 49 -3 59 -10c9 -7 12 -16 12 -28
c0 -13 -3 -27 -14 -56l-271 -727c-7 -18 -14 -29 -23 -35c-6 -4 -12 -6 -19 -6c-16 0 -36 8 -42 27c-3 11 -1 24 6 42z" />
    <glyph glyph-name="uni215F" unicode="&#x215f;" horiz-adv-x="980" 
d="M304 623v687l-95 -94c-14 -14 -23 -21 -35 -23s-24 3 -33 12s-14 21 -12 33s9 21 23 35l128 128c18 18 39 31 62 31c13 0 27 -2 37 -14s13 -27 13 -45v-750c0 -23 -3 -35 -9 -43c-9 -12 -21 -18 -35 -18s-26 6 -35 18c-6 8 -9 20 -9 43zM434 65l665 1330
c8 17 16 28 26 33c5 3 11 4 16 4c6 0 13 -2 19 -5c11 -6 19 -14 21 -27c2 -11 -1 -24 -10 -41l-665 -1330c-8 -17 -16 -28 -26 -33c-5 -3 -11 -4 -16 -4c-6 0 -13 2 -19 5c-11 6 -19 14 -21 27c-2 11 1 24 10 41z" />
    <glyph glyph-name="uni2189" unicode="&#x2189;" horiz-adv-x="1606" 
d="M548 1196v-398c0 -142 -100 -236 -234 -236c-136 0 -234 94 -234 236v398c0 142 98 236 234 236c134 0 234 -94 234 -236zM460 802v390c0 91 -53 160 -146 160s-146 -67 -146 -160v-390c0 -93 53 -160 146 -160s146 69 146 160zM435 65l665 1330c8 17 16 28 26 33
c5 3 11 4 16 4c6 0 13 -2 19 -5c11 -6 19 -14 21 -27c2 -11 -1 -24 -10 -41l-665 -1330c-8 -17 -16 -28 -26 -33c-5 -3 -11 -4 -16 -4c-6 0 -13 2 -19 5c-11 6 -19 14 -21 27c-2 11 1 24 10 41zM1528 630c0 -92 -38 -154 -114 -188c86 -32 130 -100 130 -206
c0 -158 -110 -244 -250 -244c-98 0 -173 40 -211 94c-19 26 -33 67 -33 102c0 19 4 35 13 44c8 8 17 12 28 12s21 -3 30 -12c8 -8 12 -15 15 -38c11 -83 76 -122 158 -122c90 0 162 62 162 164c0 100 -54 162 -168 162c-11 0 -23 3 -30 10c-9 9 -12 17 -12 29s3 20 12 29
c7 7 17 10 30 10c100 0 152 58 152 152c0 100 -70 154 -148 154c-69 0 -115 -24 -136 -78c-5 -13 -8 -27 -12 -50c-5 -28 -24 -36 -42 -36c-28 0 -42 22 -42 52s14 69 29 92c46 71 106 100 203 100c142 0 236 -90 236 -232z" />
    <glyph glyph-name="arrowleft" unicode="&#x2190;" horiz-adv-x="2054" 
d="M1886 480h-1586l672 -672c20 -20 26 -30 28 -42c2 -16 -2 -29 -13 -40s-25 -16 -41 -14c-12 2 -22 8 -42 28l-787 787l787 787c20 20 30 26 42 28c16 2 30 -3 41 -14s15 -24 13 -40c-2 -12 -8 -22 -28 -42l-674 -674h1588c24 0 36 -3 46 -10c12 -9 18 -21 18 -36
s-6 -27 -18 -36c-10 -7 -22 -10 -46 -10z" />
    <glyph glyph-name="arrowup" unicode="&#x2191;" horiz-adv-x="2054" 
d="M982 -330v1586l-672 -672c-20 -20 -30 -26 -42 -28c-16 -2 -29 2 -40 13s-16 25 -14 41c2 12 8 22 28 42l787 787l787 -787c20 -20 26 -30 28 -42c2 -16 -3 -30 -14 -41s-24 -15 -40 -13c-12 2 -22 8 -42 28l-674 674v-1588c0 -24 -3 -36 -10 -46c-9 -12 -21 -18 -36 -18
s-27 6 -36 18c-7 10 -10 22 -10 46z" />
    <glyph glyph-name="arrowright" unicode="&#x2192;" horiz-adv-x="2054" 
d="M1758 480h-1586c-24 0 -36 3 -46 10c-12 9 -18 21 -18 36s6 27 18 36c10 7 22 10 46 10h1588l-674 674c-20 20 -26 30 -28 42c-2 16 2 29 13 40s25 16 41 14c12 -2 22 -8 42 -28l787 -787l-787 -787c-20 -20 -30 -26 -42 -28c-16 -2 -30 3 -41 14s-15 24 -13 40
c2 12 8 22 28 42z" />
    <glyph glyph-name="arrowdown" unicode="&#x2193;" horiz-adv-x="2054" 
d="M981 -202v1586c0 24 3 36 10 46c9 12 21 18 36 18s27 -6 36 -18c7 -10 10 -22 10 -46v-1588l674 674c20 20 30 26 42 28c16 2 29 -2 40 -13s16 -25 14 -41c-2 -12 -8 -22 -28 -42l-787 -787l-787 787c-20 20 -26 30 -28 42c-2 16 3 30 14 41s24 15 40 13
c12 -2 22 -8 42 -28z" />
    <glyph glyph-name="uni2196" unicode="&#x2196;" horiz-adv-x="2054" 
d="M1599 -112l-1121 1122v-951c0 -28 -3 -39 -10 -49c-10 -13 -22 -19 -38 -19c-15 0 -29 6 -39 19c-7 10 -9 21 -9 49v1113h1113c28 0 39 -2 49 -9c13 -10 19 -24 19 -39c0 -16 -6 -28 -19 -38c-10 -7 -21 -10 -49 -10h-954l1123 -1123c17 -17 24 -27 26 -39
c2 -15 -2 -28 -13 -38c-11 -11 -23 -15 -38 -13c-12 2 -23 8 -40 25z" />
    <glyph glyph-name="uni2197" unicode="&#x2197;" horiz-adv-x="2054" 
d="M1576 1010l-1121 -1122c-17 -17 -28 -23 -40 -25c-15 -2 -27 2 -38 13c-11 10 -15 23 -13 38c2 12 9 22 26 39l1123 1123h-954c-28 0 -39 3 -49 10c-13 10 -19 22 -19 38c0 15 6 29 19 39c10 7 21 9 49 9h1113v-1113c0 -28 -2 -39 -9 -49c-10 -13 -24 -19 -39 -19
c-16 0 -28 6 -38 19c-7 10 -10 21 -10 49v951z" />
    <glyph glyph-name="uni2198" unicode="&#x2198;" horiz-adv-x="2054" 
d="M455 1130l1121 -1122v951c0 28 3 39 10 49c10 13 22 19 38 19c15 0 29 -6 39 -19c7 -10 9 -21 9 -49v-1113h-1113c-28 0 -39 2 -49 9c-13 10 -19 24 -19 39c0 16 6 28 19 38c10 7 21 10 49 10h954l-1123 1123c-17 17 -24 27 -26 39c-2 15 2 28 13 38c11 11 23 15 38 13
c12 -2 23 -8 40 -25z" />
    <glyph glyph-name="uni2199" unicode="&#x2199;" horiz-adv-x="2054" 
d="M478 8l1121 1122c17 17 28 23 40 25c15 2 27 -2 38 -13c11 -10 15 -23 13 -38c-2 -12 -9 -22 -26 -39l-1123 -1123h954c28 0 39 -3 49 -10c13 -10 19 -22 19 -38c0 -15 -6 -29 -19 -39c-10 -7 -21 -9 -49 -9h-1113v1113c0 28 2 39 9 49c10 13 24 19 39 19
c16 0 28 -6 38 -19c7 -10 10 -21 10 -49v-951z" />
    <glyph glyph-name="partialdiff" unicode="&#x2202;" horiz-adv-x="1080" 
d="M886 482c0 -138 -18 -286 -116 -388c-66 -68 -154 -106 -258 -106s-192 38 -258 106c-98 102 -116 250 -116 388c0 152 18 296 116 394c58 58 140 100 244 100c108 0 200 -24 284 -136v172c0 190 -88 334 -290 334c-79 0 -144 -17 -198 -64c-26 -22 -42 -40 -64 -40
c-20 0 -46 18 -46 50c0 40 75 84 104 100c60 32 119 44 204 44c252 0 394 -170 394 -418v-536zM782 482c0 121 -15 254 -85 324c-52 52 -109 78 -185 78s-133 -26 -185 -78c-70 -70 -85 -203 -85 -324s15 -254 85 -324c52 -52 109 -78 185 -78s133 26 185 78
c70 70 85 203 85 324z" />
    <glyph glyph-name="Delta" unicode="&#x2206;" horiz-adv-x="1196" 
d="M1065 0h-934c-38 0 -53 2 -67 15c-9 9 -14 18 -14 34c0 15 7 35 16 59l469 1257c9 24 14 35 21 45c9 13 23 22 42 22s33 -9 42 -22c7 -10 12 -21 21 -45l469 -1257c9 -24 16 -44 16 -59c0 -16 -5 -25 -14 -34c-14 -13 -29 -15 -67 -15zM176 96h844l-422 1153z" />
    <glyph glyph-name="product" unicode="&#x220f;" horiz-adv-x="1398" 
d="M1070 -393v1817h-742v-1817c0 -31 -3 -41 -12 -55c-9 -13 -23 -20 -42 -20s-33 7 -42 20c-9 14 -12 24 -12 55v1851c0 13 0 34 14 48s32 14 48 14h834c16 0 34 0 48 -14s14 -35 14 -48v-1851c0 -31 -3 -41 -12 -55c-9 -13 -23 -20 -42 -20s-33 7 -42 20
c-9 14 -12 24 -12 55z" />
    <glyph glyph-name="summation" unicode="&#x2211;" horiz-adv-x="1034" 
d="M657 484l-423 -848h679c28 0 40 -3 50 -10c13 -10 19 -22 19 -38s-6 -28 -19 -38c-10 -7 -22 -10 -50 -10h-751c-20 0 -31 2 -41 8c-13 8 -21 23 -21 38c0 10 3 22 12 40l452 904l-452 904c-9 18 -12 30 -12 40c0 15 8 30 21 38c10 6 21 8 41 8h751c28 0 40 -3 50 -10
c13 -10 19 -22 19 -38s-6 -28 -19 -38c-10 -7 -22 -10 -50 -10h-679l423 -848c9 -18 12 -33 12 -46s-3 -28 -12 -46z" />
    <glyph glyph-name="minus" unicode="&#x2212;" 
d="M866 481h-704c-24 0 -36 3 -46 10c-12 9 -18 21 -18 36s6 27 18 36c10 7 22 10 46 10h704c24 0 36 -3 46 -10c12 -9 18 -21 18 -36s-6 -27 -18 -36c-10 -7 -22 -10 -46 -10z" />
    <glyph glyph-name="uni2219" unicode="&#x2219;" 
d="M514 208c-179 0 -325 146 -325 325s146 325 325 325s325 -146 325 -325s-146 -325 -325 -325z" />
    <glyph glyph-name="radical" unicode="&#x221a;" horiz-adv-x="1105" 
d="M1053 1376c0 -16 -5 -29 -18 -38c-10 -7 -22 -10 -50 -10h-118l-423 -1272c-6 -18 -15 -39 -24 -48c-13 -13 -23 -16 -37 -16s-24 3 -37 16c-9 9 -18 30 -24 48l-278 830c-8 24 -10 37 -6 51c6 20 26 35 50 35c11 0 22 -3 31 -10c11 -9 16 -19 24 -43l240 -734l387 1181
c7 23 14 37 25 46s24 12 40 12h150c28 0 40 -3 50 -10c13 -9 18 -22 18 -38z" />
    <glyph glyph-name="infinity" unicode="&#x221e;" horiz-adv-x="1584" 
d="M792 448c-124 -154 -218 -218 -352 -218c-172 0 -296 128 -296 298s124 300 296 300c130 0 228 -66 352 -220c124 154 214 220 354 220c172 0 294 -130 294 -300s-122 -296 -294 -296c-138 0 -230 62 -354 216zM732 528c-104 126 -178 210 -286 210
c-122 0 -206 -88 -206 -210s84 -204 206 -204c108 0 182 78 286 204zM852 528c104 -126 178 -204 286 -204c122 0 206 82 206 204s-84 206 -206 206c-108 0 -182 -80 -286 -206z" />
    <glyph glyph-name="integral" unicode="&#x222b;" horiz-adv-x="836" 
d="M238 -460h-34c-24 0 -36 3 -46 10c-12 9 -18 21 -18 36s6 27 18 36c10 7 22 10 46 10h14c102 0 148 60 148 160v1380c0 146 80 252 232 252h34c23 0 36 -3 46 -10c12 -9 18 -21 18 -36s-6 -27 -18 -36c-10 -7 -23 -10 -46 -10h-14c-102 0 -148 -60 -148 -160v-1380
c0 -146 -80 -252 -232 -252z" />
    <glyph glyph-name="approxequal" unicode="&#x2248;" 
d="M884 673c-71 -71 -128 -88 -194 -88s-132 32 -204 62c-56 24 -100 46 -152 46s-82 -12 -134 -62c-17 -17 -30 -24 -46 -24c-10 0 -20 4 -28 12s-12 18 -12 28c0 16 6 30 30 54c71 71 128 88 194 88s132 -32 204 -62c56 -24 100 -46 152 -46s82 12 134 62
c17 17 30 24 46 24c10 0 20 -4 28 -12s12 -18 12 -28c0 -16 -6 -30 -30 -54zM884 353c-71 -71 -128 -88 -194 -88s-132 32 -204 62c-56 24 -100 46 -152 46s-82 -12 -134 -62c-17 -17 -30 -24 -46 -24c-10 0 -20 4 -28 12s-12 18 -12 28c0 16 6 30 30 54
c71 71 128 88 194 88s132 -32 204 -62c56 -24 100 -46 152 -46s82 12 134 62c17 17 30 24 46 24c10 0 20 -4 28 -12s12 -18 12 -28c0 -16 -6 -30 -30 -54z" />
    <glyph glyph-name="notequal" unicode="&#x2260;" 
d="M866 324h-426l-105 -175c-10 -16 -19 -26 -29 -30c-13 -5 -24 -4 -35 3s-17 15 -19 29c-1 11 3 23 13 40l80 133h-183c-24 0 -36 3 -46 10c-12 9 -18 21 -18 36s6 27 18 36c10 7 22 10 46 10h238l130 216h-368c-24 0 -36 3 -46 10c-12 9 -18 21 -18 36s6 27 18 36
c10 7 22 10 46 10h423l109 181c10 16 19 26 29 30c13 5 24 4 35 -3s17 -15 19 -29c1 -11 -3 -23 -13 -40l-84 -139h186c24 0 36 -3 46 -10c12 -9 18 -21 18 -36s-6 -27 -18 -36c-10 -7 -22 -10 -46 -10h-241l-130 -216h371c24 0 36 -3 46 -10c12 -9 18 -21 18 -36
s-6 -27 -18 -36c-10 -7 -22 -10 -46 -10z" />
    <glyph glyph-name="lessequal" unicode="&#x2264;" 
d="M739 62l-500 250c-24 12 -34 21 -40 32c-4 7 -6 15 -6 22c0 23 19 46 45 46c12 0 24 -4 44 -14l500 -250c24 -12 34 -21 40 -32c4 -7 6 -15 6 -22c0 -23 -19 -46 -45 -46c-12 0 -24 4 -44 14zM193 677c0 46 36 65 86 90l460 232c20 10 32 14 44 14c27 0 45 -23 45 -45
c0 -9 -2 -17 -6 -24c-7 -12 -16 -19 -40 -31l-469 -236l469 -236c24 -12 33 -19 40 -31c4 -7 6 -15 6 -24c0 -22 -18 -45 -45 -45c-12 0 -24 4 -44 14l-460 232c-50 25 -86 44 -86 90z" />
    <glyph glyph-name="greaterequal" unicode="&#x2265;" 
d="M788 312l-500 -250c-20 -10 -32 -14 -44 -14c-26 0 -45 23 -45 46c0 7 2 15 6 22c6 11 16 20 40 32l500 250c20 10 32 14 44 14c26 0 45 -23 45 -46c0 -7 -2 -15 -6 -22c-6 -11 -16 -20 -40 -32zM835 677c0 -46 -36 -65 -86 -90l-460 -232c-20 -10 -32 -14 -44 -14
c-27 0 -45 23 -45 45c0 9 2 17 6 24c7 12 16 19 40 31l469 236l-469 236c-24 12 -33 19 -40 31c-4 7 -6 15 -6 24c0 22 18 45 45 45c12 0 24 -4 44 -14l460 -232c50 -25 86 -44 86 -90z" />
    <glyph glyph-name="dotmath" unicode="&#x22c5;" 
d="M514 435c-51 0 -92 41 -92 92s41 92 92 92s92 -41 92 -92s-41 -92 -92 -92z" />
    <glyph glyph-name="lozenge" unicode="&#x25ca;" horiz-adv-x="988" 
d="M494 -8c-46 0 -65 36 -90 86l-294 588c-9 18 -12 33 -12 46s3 28 12 46l294 588c25 50 44 86 90 86s65 -36 90 -86l294 -588c9 -18 12 -33 12 -46s-3 -28 -12 -46l-294 -588c-25 -50 -44 -86 -90 -86zM795 712l-301 603l-301 -603l301 -603z" />
    <glyph glyph-name="fi" unicode="&#xfb01;" horiz-adv-x="1095" 
d="M222 62v818h-81c-22 0 -33 2 -43 9c-11 8 -16 18 -16 33s5 25 16 33c10 7 21 9 43 9h81v208c0 146 80 252 232 252h30c27 0 40 -3 50 -10c12 -9 18 -21 18 -36s-6 -27 -18 -36c-10 -7 -22 -10 -46 -10h-16c-100 0 -146 -60 -146 -160v-208h167c22 0 33 -2 43 -9
c11 -8 16 -18 16 -33s-5 -25 -16 -33c-10 -7 -21 -9 -43 -9h-167v-818c0 -27 -3 -38 -11 -50s-24 -20 -41 -20s-33 8 -41 20s-11 23 -11 50zM797 62v840c0 27 3 38 11 50s24 20 41 20s33 -8 41 -20s11 -23 11 -50v-840c0 -27 -3 -38 -11 -50s-24 -20 -41 -20s-33 8 -41 20
s-11 23 -11 50zM849 1288c-41 0 -74 33 -74 74s33 74 74 74s74 -33 74 -74s-33 -74 -74 -74z" />
    <glyph glyph-name="fl" unicode="&#xfb02;" horiz-adv-x="1173" 
d="M222 62v818h-81c-22 0 -33 2 -43 9c-11 8 -16 18 -16 33s5 25 16 33c10 7 21 9 43 9h81v208c0 146 80 252 232 252h30c27 0 40 -3 50 -10c12 -9 18 -21 18 -36s-6 -27 -18 -36c-10 -7 -22 -10 -46 -10h-16c-100 0 -146 -60 -146 -160v-208h167c22 0 33 -2 43 -9
c11 -8 16 -18 16 -33s-5 -25 -16 -33c-10 -7 -21 -9 -43 -9h-167v-818c0 -27 -3 -38 -11 -50s-24 -20 -41 -20s-33 8 -41 20s-11 23 -11 50zM1051 0h-30c-152 0 -232 106 -232 252v1110c0 27 3 38 11 50s24 20 41 20s33 -8 41 -20s11 -23 11 -50v-1110
c0 -100 46 -160 146 -160h16c24 0 36 -3 46 -10c12 -9 18 -21 18 -36s-6 -27 -18 -36c-10 -7 -23 -10 -50 -10z" />
    <glyph glyph-name="zero.numr" horiz-adv-x="626" 
d="M548 1196v-398c0 -142 -100 -236 -234 -236c-136 0 -234 94 -234 236v398c0 142 98 236 234 236c134 0 234 -94 234 -236zM460 802v390c0 91 -53 160 -146 160s-146 -67 -146 -160v-390c0 -93 53 -160 146 -160s146 69 146 160z" />
    <glyph glyph-name="one.numr" horiz-adv-x="626" 
d="M304 623v687l-95 -94c-14 -14 -23 -21 -35 -23s-24 3 -33 12s-14 21 -12 33s9 21 23 35l128 128c18 18 39 31 62 31c13 0 27 -2 37 -14s13 -27 13 -45v-750c0 -23 -3 -35 -9 -43c-9 -12 -21 -18 -35 -18s-26 6 -35 18c-6 8 -9 20 -9 43z" />
    <glyph glyph-name="two.numr" horiz-adv-x="626" 
d="M512 570h-367c-27 0 -41 0 -55 14c-6 7 -10 18 -10 26c0 15 8 26 25 49l316 421c30 40 45 76 45 121c0 92 -54 151 -147 151c-63 0 -127 -34 -141 -109c-3 -14 -6 -32 -14 -44c-7 -10 -17 -17 -34 -17c-15 0 -26 6 -33 16c-7 8 -8 18 -8 29c0 29 13 67 26 93
c35 69 107 112 204 112c141 0 235 -91 235 -231c0 -63 -20 -112 -62 -167l-293 -384h313c19 0 32 -2 41 -9c11 -8 15 -18 15 -31s-4 -23 -15 -31c-9 -7 -22 -9 -41 -9z" />
    <glyph glyph-name="three.numr" horiz-adv-x="626" 
d="M548 1200c0 -92 -38 -154 -114 -188c86 -32 130 -100 130 -206c0 -158 -110 -244 -250 -244c-98 0 -173 40 -211 94c-19 26 -33 67 -33 102c0 19 4 35 13 44c8 8 17 12 28 12s21 -3 30 -12c8 -8 12 -15 15 -38c11 -83 76 -122 158 -122c90 0 162 62 162 164
c0 100 -54 162 -168 162c-11 0 -23 3 -30 10c-9 9 -12 17 -12 29s3 20 12 29c7 7 17 10 30 10c100 0 152 58 152 152c0 100 -70 154 -148 154c-69 0 -115 -24 -136 -78c-5 -13 -8 -27 -12 -50c-5 -28 -24 -36 -42 -36c-28 0 -42 22 -42 52s14 69 29 92
c46 71 106 100 203 100c142 0 236 -90 236 -232z" />
    <glyph glyph-name="four.numr" horiz-adv-x="626" 
d="M50 779l306 614c11 22 23 39 45 39c19 0 41 -15 41 -37c0 -12 -4 -23 -12 -39l-286 -572h248v192c0 19 2 32 9 41c8 11 18 15 31 15s23 -4 31 -15c7 -9 9 -22 9 -41v-192h60c19 0 32 -2 41 -9c11 -8 15 -18 15 -31s-4 -23 -15 -31c-9 -7 -22 -9 -41 -9h-60v-86
c0 -19 -2 -32 -9 -41c-8 -11 -18 -15 -31 -15s-23 4 -31 15c-7 9 -9 22 -9 41v86h-300c-16 0 -26 2 -35 7c-11 7 -18 20 -18 33c0 8 3 18 11 35z" />
    <glyph glyph-name="five.numr" horiz-adv-x="626" 
d="M488 1344h-304v-250c39 28 85 40 152 40c64 0 114 -18 148 -52c62 -64 72 -150 72 -230c0 -86 -8 -166 -68 -226c-40 -40 -98 -64 -172 -64c-80 0 -146 22 -192 84c-20 27 -33 73 -33 101c0 12 2 20 6 28c7 11 19 18 34 18c23 0 34 -9 38 -21c3 -7 5 -16 9 -32
c16 -61 58 -98 138 -98c42 0 80 12 106 38c44 44 46 110 46 172c0 104 -24 206 -144 206c-59 0 -103 -15 -137 -64c-5 -7 -9 -15 -17 -21c-7 -6 -17 -8 -26 -8c-6 0 -19 2 -28 10c-10 9 -12 22 -12 37v359c0 14 0 29 12 41s27 12 41 12h331c19 0 32 -2 41 -9
c11 -8 15 -18 15 -31s-4 -23 -15 -31c-9 -7 -22 -9 -41 -9z" />
    <glyph glyph-name="six.numr" horiz-adv-x="626" 
d="M130 1000l195 393c11 22 23 39 45 39c19 0 41 -15 41 -37c0 -12 -4 -23 -12 -39l-157 -314c26 12 56 16 88 16c132 0 222 -102 222 -242c0 -146 -90 -254 -236 -254s-238 100 -238 248c0 58 13 111 52 190zM314 642c90 0 150 66 150 170c0 94 -52 172 -150 172
c-90 0 -148 -66 -148 -172c0 -104 58 -170 148 -170z" />
    <glyph glyph-name="seven.numr" horiz-adv-x="626" 
d="M208 631l266 713h-304v-94c0 -19 -2 -32 -9 -41c-8 -11 -18 -15 -31 -15s-23 4 -31 15c-7 9 -9 22 -9 41v121c0 14 0 29 12 41s27 12 41 12h357c33 0 49 -3 59 -10c9 -7 12 -16 12 -28c0 -13 -3 -27 -14 -56l-271 -727c-7 -18 -14 -29 -23 -35c-6 -4 -12 -6 -19 -6
c-16 0 -36 8 -42 27c-3 11 -1 24 6 42z" />
    <glyph glyph-name="eight.numr" horiz-adv-x="626" 
d="M438 1014c72 -40 128 -108 128 -208c0 -146 -110 -244 -252 -244s-252 98 -252 244c0 100 56 168 128 208c-68 38 -112 100 -112 188c0 132 100 230 236 230s236 -98 236 -230c0 -88 -42 -150 -112 -188zM314 1050c88 0 148 64 148 152s-58 150 -148 150
s-148 -62 -148 -150s60 -152 148 -152zM478 806c0 94 -70 166 -164 166s-164 -72 -164 -166s70 -164 164 -164s164 70 164 164z" />
    <glyph glyph-name="nine.numr" horiz-adv-x="626" 
d="M496 994l-195 -393c-11 -22 -23 -39 -45 -39c-19 0 -41 15 -41 37c0 12 4 23 12 39l157 314c-26 -12 -56 -16 -88 -16c-132 0 -222 102 -222 242c0 146 90 254 236 254s238 -100 238 -248c0 -58 -13 -111 -52 -190zM312 1352c-90 0 -150 -66 -150 -170
c0 -94 52 -172 150 -172c90 0 148 66 148 172c0 104 -58 170 -148 170z" />
    <glyph glyph-name="zero.dnom" horiz-adv-x="626" 
d="M548 626v-398c0 -142 -100 -236 -234 -236c-136 0 -234 94 -234 236v398c0 142 98 236 234 236c134 0 234 -94 234 -236zM460 232v390c0 91 -53 160 -146 160s-146 -67 -146 -160v-390c0 -93 53 -160 146 -160s146 69 146 160z" />
    <glyph glyph-name="one.dnom" horiz-adv-x="626" 
d="M304 53v687l-95 -94c-14 -14 -23 -21 -35 -23s-24 3 -33 12s-14 21 -12 33s9 21 23 35l128 128c18 18 39 31 62 31c13 0 27 -2 37 -14s13 -27 13 -45v-750c0 -23 -3 -35 -9 -43c-9 -12 -21 -18 -35 -18s-26 6 -35 18c-6 8 -9 20 -9 43z" />
    <glyph glyph-name="two.dnom" horiz-adv-x="626" 
d="M512 0h-367c-27 0 -41 0 -55 14c-6 7 -10 18 -10 26c0 15 8 26 25 49l316 421c30 40 45 76 45 121c0 92 -54 151 -147 151c-63 0 -127 -34 -141 -109c-3 -14 -6 -32 -14 -44c-7 -10 -17 -17 -34 -17c-15 0 -26 6 -33 16c-7 8 -8 18 -8 29c0 29 13 67 26 93
c35 69 107 112 204 112c141 0 235 -91 235 -231c0 -63 -20 -112 -62 -167l-293 -384h313c19 0 32 -2 41 -9c11 -8 15 -18 15 -31s-4 -23 -15 -31c-9 -7 -22 -9 -41 -9z" />
    <glyph glyph-name="three.dnom" horiz-adv-x="626" 
d="M548 630c0 -92 -38 -154 -114 -188c86 -32 130 -100 130 -206c0 -158 -110 -244 -250 -244c-98 0 -173 40 -211 94c-19 26 -33 67 -33 102c0 19 4 35 13 44c8 8 17 12 28 12s21 -3 30 -12c8 -8 12 -15 15 -38c11 -83 76 -122 158 -122c90 0 162 62 162 164
c0 100 -54 162 -168 162c-11 0 -23 3 -30 10c-9 9 -12 17 -12 29s3 20 12 29c7 7 17 10 30 10c100 0 152 58 152 152c0 100 -70 154 -148 154c-69 0 -115 -24 -136 -78c-5 -13 -8 -27 -12 -50c-5 -28 -24 -36 -42 -36c-28 0 -42 22 -42 52s14 69 29 92
c46 71 106 100 203 100c142 0 236 -90 236 -232z" />
    <glyph glyph-name="four.dnom" horiz-adv-x="626" 
d="M50 209l306 614c11 22 23 39 45 39c19 0 41 -15 41 -37c0 -12 -4 -23 -12 -39l-286 -572h248v192c0 19 2 32 9 41c8 11 18 15 31 15s23 -4 31 -15c7 -9 9 -22 9 -41v-192h60c19 0 32 -2 41 -9c11 -8 15 -18 15 -31s-4 -23 -15 -31c-9 -7 -22 -9 -41 -9h-60v-86
c0 -19 -2 -32 -9 -41c-8 -11 -18 -15 -31 -15s-23 4 -31 15c-7 9 -9 22 -9 41v86h-300c-16 0 -26 2 -35 7c-11 7 -18 20 -18 33c0 8 3 18 11 35z" />
    <glyph glyph-name="five.dnom" horiz-adv-x="626" 
d="M488 774h-304v-250c39 28 85 40 152 40c64 0 114 -18 148 -52c62 -64 72 -150 72 -230c0 -86 -8 -166 -68 -226c-40 -40 -98 -64 -172 -64c-80 0 -146 22 -192 84c-20 27 -33 73 -33 101c0 12 2 20 6 28c7 11 19 18 34 18c23 0 34 -9 38 -21c3 -7 5 -16 9 -32
c16 -61 58 -98 138 -98c42 0 80 12 106 38c44 44 46 110 46 172c0 104 -24 206 -144 206c-59 0 -103 -15 -137 -64c-5 -7 -9 -15 -17 -21c-7 -6 -17 -8 -26 -8c-6 0 -19 2 -28 10c-10 9 -12 22 -12 37v359c0 14 0 29 12 41s27 12 41 12h331c19 0 32 -2 41 -9
c11 -8 15 -18 15 -31s-4 -23 -15 -31c-9 -7 -22 -9 -41 -9z" />
    <glyph glyph-name="six.dnom" horiz-adv-x="626" 
d="M130 430l195 393c11 22 23 39 45 39c19 0 41 -15 41 -37c0 -12 -4 -23 -12 -39l-157 -314c26 12 56 16 88 16c132 0 222 -102 222 -242c0 -146 -90 -254 -236 -254s-238 100 -238 248c0 58 13 111 52 190zM314 72c90 0 150 66 150 170c0 94 -52 172 -150 172
c-90 0 -148 -66 -148 -172c0 -104 58 -170 148 -170z" />
    <glyph glyph-name="seven.dnom" horiz-adv-x="626" 
d="M208 61l266 713h-304v-94c0 -19 -2 -32 -9 -41c-8 -11 -18 -15 -31 -15s-23 4 -31 15c-7 9 -9 22 -9 41v121c0 14 0 29 12 41s27 12 41 12h357c33 0 49 -3 59 -10c9 -7 12 -16 12 -28c0 -13 -3 -27 -14 -56l-271 -727c-7 -18 -14 -29 -23 -35c-6 -4 -12 -6 -19 -6
c-16 0 -36 8 -42 27c-3 11 -1 24 6 42z" />
    <glyph glyph-name="eight.dnom" horiz-adv-x="626" 
d="M438 444c72 -40 128 -108 128 -208c0 -146 -110 -244 -252 -244s-252 98 -252 244c0 100 56 168 128 208c-68 38 -112 100 -112 188c0 132 100 230 236 230s236 -98 236 -230c0 -88 -42 -150 -112 -188zM314 480c88 0 148 64 148 152s-58 150 -148 150
s-148 -62 -148 -150s60 -152 148 -152zM478 236c0 94 -70 166 -164 166s-164 -72 -164 -166s70 -164 164 -164s164 70 164 164z" />
    <glyph glyph-name="nine.dnom" horiz-adv-x="626" 
d="M496 424l-195 -393c-11 -22 -23 -39 -45 -39c-19 0 -41 15 -41 37c0 12 4 23 12 39l157 314c-26 -12 -56 -16 -88 -16c-132 0 -222 102 -222 242c0 146 90 254 236 254s238 -100 238 -248c0 -58 -13 -111 -52 -190zM312 782c-90 0 -150 -66 -150 -170
c0 -94 52 -172 150 -172c90 0 148 66 148 172c0 104 -58 170 -148 170z" />
    <glyph glyph-name="space.frac" horiz-adv-x="102" 
 />
    <glyph glyph-name="zero.osf" 
d="M888 826v-458c0 -222 -154 -380 -374 -380s-374 158 -374 380v458c0 222 154 380 374 380s374 -158 374 -380zM786 378v438c0 168 -94 300 -272 300s-272 -132 -272 -300v-438c0 -168 94 -300 272 -300s272 132 272 300z" />
    <glyph glyph-name="one.osf" horiz-adv-x="700" 
d="M358 62v1010l-186 -170c-14 -13 -29 -22 -44 -22c-12 0 -28 7 -36 16c-7 7 -12 18 -12 32c0 16 10 32 26 46l230 202c21 19 44 34 70 34c14 0 29 -3 40 -16c12 -14 16 -30 16 -50v-1082c0 -27 -3 -38 -11 -50s-24 -20 -41 -20s-33 8 -41 20s-11 23 -11 50z" />
    <glyph glyph-name="two.osf" horiz-adv-x="982" 
d="M816 0h-649c-42 0 -64 0 -80 16c-7 8 -12 19 -12 32c0 17 8 45 34 71l487 487c84 84 134 178 134 286c0 146 -114 262 -272 262c-120 0 -238 -58 -268 -208c-4 -21 -8 -50 -20 -68c-8 -12 -20 -20 -40 -20c-16 0 -30 6 -38 18s-10 24 -10 38c0 44 22 108 44 148
c60 110 173 184 332 184c228 0 374 -160 374 -354c0 -140 -66 -248 -160 -342l-458 -458h602c24 0 36 -3 46 -10c12 -9 18 -21 18 -36s-6 -27 -18 -36c-10 -7 -22 -10 -46 -10z" />
    <glyph glyph-name="three.osf" horiz-adv-x="1018" 
d="M660 504c144 -42 232 -157 232 -354c0 -238 -190 -394 -413 -394c-150 0 -234 38 -303 107c-53 53 -89 129 -89 209c0 24 4 43 16 55c9 9 20 14 35 14c13 0 24 -4 32 -12c10 -10 16 -22 20 -52c22 -163 127 -229 289 -229c170 0 309 117 309 302c0 191 -100 302 -300 302
c-24 0 -36 3 -46 10c-12 9 -18 21 -18 36s6 27 18 36c10 7 22 10 46 10c187 0 274 113 274 287c0 176 -117 281 -276 281c-144 0 -237 -61 -266 -206c-7 -35 -13 -47 -23 -57c-8 -8 -20 -13 -34 -13c-15 0 -27 6 -36 17c-8 10 -12 22 -12 42c0 73 43 156 97 210
c69 69 155 99 274 99c219 0 380 -142 380 -373c0 -150 -62 -267 -206 -327z" />
    <glyph glyph-name="four.osf" horiz-adv-x="1027" 
d="M64 144l534 1068c12 24 19 33 31 40c7 4 15 6 24 6c22 0 45 -18 45 -45c0 -12 -4 -24 -14 -44l-510 -1019h499v390c0 27 3 38 11 50s24 20 41 20s33 -8 41 -20s11 -23 11 -50v-390h134c24 0 36 -3 46 -10c12 -9 18 -21 18 -36s-6 -27 -18 -36c-10 -7 -22 -10 -46 -10
h-134v-242c0 -27 -3 -38 -11 -50s-24 -20 -41 -20s-33 8 -41 20s-11 23 -11 50v242h-559c-20 0 -31 2 -41 8c-13 8 -21 23 -21 38c0 10 3 22 12 40z" />
    <glyph glyph-name="five.osf" horiz-adv-x="1010" 
d="M786 1102h-538v-498c68 72 144 105 270 105c102 0 184 -30 240 -86c100 -100 118 -251 118 -385c0 -136 -10 -276 -112 -378c-66 -66 -156 -102 -274 -102c-119 0 -207 29 -276 98c-54 54 -95 138 -95 211c0 20 4 32 12 42c9 11 22 17 37 17c14 0 26 -5 34 -13
c10 -10 16 -22 23 -57c29 -145 121 -206 265 -206c78 0 150 25 196 71c84 84 86 211 86 317c0 175 -32 379 -266 379c-107 0 -187 -29 -246 -119c-7 -11 -15 -21 -24 -29c-8 -7 -21 -10 -32 -10c-8 0 -24 3 -34 13c-11 11 -14 27 -14 47v613c0 13 0 34 14 48s32 14 48 14
h568c24 0 36 -3 46 -10c12 -9 18 -21 18 -36s-6 -27 -18 -36c-10 -7 -22 -10 -46 -10z" />
    <glyph glyph-name="six.osf" horiz-adv-x="1038" 
d="M110 422c0 91 23 189 77 297l349 698c12 24 19 33 31 40c7 4 15 6 24 6c22 0 45 -18 45 -45c0 -12 -4 -24 -14 -44l-272 -544c50 24 98 40 178 40c254 0 400 -190 400 -432c0 -248 -148 -450 -408 -450s-410 180 -410 434zM518 74c188 0 308 142 308 354
c0 188 -104 356 -308 356c-188 0 -306 -142 -306 -356c0 -212 118 -354 306 -354z" />
    <glyph glyph-name="seven.osf" horiz-adv-x="966" 
d="M238 -212c-12 -24 -19 -33 -31 -40c-7 -4 -15 -6 -24 -6c-22 0 -45 18 -45 45c0 12 4 24 14 44l636 1271h-596v-160c0 -27 -3 -38 -11 -50s-24 -20 -41 -20s-33 8 -41 20s-11 23 -11 50v190c0 13 0 34 14 48s32 14 48 14h698c20 0 31 -2 41 -8c13 -8 21 -23 21 -38
c0 -10 -3 -22 -12 -40z" />
    <glyph glyph-name="eight.osf" horiz-adv-x="1052" 
d="M708 740c136 -72 224 -192 224 -356c0 -228 -176 -396 -406 -396s-406 168 -406 396c0 164 90 284 226 356c-126 68 -196 178 -196 324c0 210 154 372 376 372s376 -162 376 -372c0 -146 -68 -256 -194 -324zM800 1064c0 164 -112 282 -274 282s-274 -118 -274 -282
c0 -166 112 -282 274 -282s274 116 274 282zM830 384c0 174 -132 308 -304 308s-304 -134 -304 -308s132 -306 304 -306s304 132 304 306z" />
    <glyph glyph-name="nine.osf" horiz-adv-x="1038" 
d="M851 475l-348 -696c-12 -24 -20 -34 -28 -40c-6 -4 -14 -8 -24 -8c-12 0 -18 2 -28 8c-11 7 -18 22 -18 32c0 14 5 28 16 50l273 546c-52 -26 -101 -43 -184 -43c-254 0 -400 190 -400 432c0 248 148 450 408 450s410 -180 410 -434c0 -91 -23 -189 -77 -297zM520 410
c188 0 306 142 306 356c0 212 -118 354 -306 354s-308 -142 -308 -354c0 -188 104 -356 308 -356z" />
    <glyph glyph-name="zero.lf" 
d="M888 1056v-688c0 -222 -154 -380 -374 -380s-374 158 -374 380v688c0 222 154 380 374 380s374 -158 374 -380zM784 367v690c0 162 -94 287 -270 287s-270 -125 -270 -287v-690c0 -162 94 -287 270 -287s270 125 270 287z" />
    <glyph glyph-name="one.lf" horiz-adv-x="700" 
d="M384 62v1220l-181 -181c-20 -20 -30 -26 -42 -28c-16 -2 -30 3 -41 14s-15 24 -13 40c2 12 8 22 28 42l233 233c21 21 38 30 61 30c17 0 31 -6 42 -17c14 -14 17 -33 17 -63v-1290c0 -27 -3 -38 -11 -50s-24 -20 -41 -20s-33 8 -41 20s-11 23 -11 50z" />
    <glyph glyph-name="two.lf" horiz-adv-x="944" 
d="M779 0h-618c-42 0 -64 0 -80 16c-7 8 -12 19 -12 32c0 17 12 37 35 68l536 707c60 80 92 156 92 259c0 156 -97 262 -269 262c-120 0 -239 -56 -270 -211c-6 -30 -9 -47 -20 -63c-8 -12 -20 -20 -40 -20c-16 0 -30 6 -38 18s-10 24 -10 37c0 49 28 153 102 227
c65 65 158 104 276 104c227 0 373 -134 373 -354c0 -121 -38 -209 -113 -308l-518 -682h574c24 0 36 -3 46 -10c12 -9 18 -21 18 -36s-6 -27 -18 -36c-10 -7 -22 -10 -46 -10z" />
    <glyph glyph-name="three.lf" horiz-adv-x="1010" 
d="M660 736c144 -42 232 -157 232 -354c0 -238 -190 -394 -413 -394c-150 0 -234 38 -303 107c-53 53 -89 129 -89 209c0 24 4 43 16 55c9 9 20 14 35 14c13 0 24 -4 32 -12c10 -10 16 -22 20 -52c22 -163 127 -229 289 -229c170 0 309 117 309 302c0 191 -100 302 -300 302
c-24 0 -36 3 -46 10c-12 9 -18 21 -18 36s6 27 18 36c10 7 22 10 46 10c187 0 274 113 274 287c0 176 -117 281 -276 281c-144 0 -237 -61 -266 -206c-7 -35 -13 -47 -23 -57c-8 -8 -20 -13 -34 -13c-15 0 -27 6 -36 17c-8 10 -12 22 -12 42c0 73 43 156 97 210
c69 69 155 99 274 99c219 0 380 -142 380 -373c0 -150 -62 -267 -206 -327z" />
    <glyph glyph-name="four.lf" horiz-adv-x="1003" 
d="M52 278c0 10 3 22 12 40l534 1068c12 24 19 33 31 40c7 4 15 6 24 6c22 0 45 -18 45 -45c0 -12 -4 -24 -14 -44l-510 -1019h459v390c0 27 3 38 11 50s24 20 41 20s33 -8 41 -20s11 -23 11 -50v-390h132c24 0 36 -3 46 -10c12 -9 18 -21 18 -36s-6 -27 -18 -36
c-10 -7 -22 -10 -46 -10h-132v-170c0 -27 -3 -38 -11 -50s-24 -20 -41 -20s-33 8 -41 20s-11 23 -11 50v170h-519c-20 0 -31 2 -41 8c-13 8 -21 23 -21 38z" />
    <glyph glyph-name="five.lf" horiz-adv-x="1010" 
d="M786 1332h-538v-498c68 72 144 105 270 105c102 0 184 -30 240 -86c100 -100 118 -251 118 -385c0 -136 -10 -276 -112 -378c-66 -66 -156 -102 -274 -102c-119 0 -207 29 -276 98c-54 54 -95 138 -95 211c0 20 4 32 12 42c9 11 22 17 37 17c14 0 26 -5 34 -13
c10 -10 16 -22 23 -57c29 -145 121 -206 265 -206c78 0 150 25 196 71c84 84 86 211 86 317c0 175 -32 379 -266 379c-107 0 -187 -29 -246 -119c-7 -11 -15 -21 -24 -29c-8 -7 -21 -10 -32 -10c-8 0 -24 3 -34 13c-11 11 -14 27 -14 47v613c0 13 0 34 14 48s32 14 48 14
h568c24 0 36 -3 46 -10c12 -9 18 -21 18 -36s-6 -27 -18 -36c-10 -7 -22 -10 -46 -10z" />
    <glyph glyph-name="six.lf" horiz-adv-x="954" 
d="M179 686l349 700c12 24 19 33 31 40c7 4 15 6 24 6c22 0 45 -18 45 -45c0 -12 -4 -24 -14 -44l-286 -573c45 19 98 30 158 30c236 0 370 -176 370 -398c0 -228 -136 -414 -378 -414s-380 168 -380 400c0 92 23 180 81 298zM476 80c168 0 276 124 276 314
c0 170 -94 314 -276 314c-168 0 -274 -122 -274 -314c0 -190 106 -314 274 -314z" />
    <glyph glyph-name="seven.lf" horiz-adv-x="896" 
d="M819 1316l-477 -1273c-10 -27 -17 -37 -27 -44c-8 -5 -15 -7 -23 -7c-23 0 -44 13 -49 34c-3 12 -2 24 8 51l470 1255h-539v-160c0 -27 -3 -38 -11 -50s-24 -20 -41 -20s-33 8 -41 20s-11 23 -11 50v190c0 13 0 34 14 48s32 14 48 14h614c38 0 53 -2 67 -15
c9 -9 14 -18 14 -34c0 -15 -7 -35 -16 -59z" />
    <glyph glyph-name="eight.lf" horiz-adv-x="1064" 
d="M714 741c136 -72 226 -190 226 -355c0 -226 -176 -398 -408 -398s-408 172 -408 398c0 165 92 283 228 355c-126 68 -198 177 -198 322c0 212 154 373 378 373s378 -161 378 -373c0 -145 -70 -254 -196 -322zM532 782c158 0 274 114 274 281c0 161 -112 281 -274 281
s-274 -119 -274 -281s112 -281 274 -281zM836 386c0 176 -132 306 -304 306s-304 -130 -304 -306s132 -306 304 -306s304 130 304 306z" />
    <glyph glyph-name="nine.lf" horiz-adv-x="954" 
d="M775 738l-349 -700c-12 -24 -19 -33 -31 -40c-7 -4 -15 -6 -24 -6c-22 0 -45 18 -45 45c0 12 4 24 14 44l286 573c-45 -19 -98 -30 -158 -30c-236 0 -370 176 -370 398c0 228 136 414 378 414s380 -168 380 -400c0 -92 -23 -180 -81 -298zM478 1344
c-168 0 -276 -124 -276 -314c0 -170 94 -314 276 -314c168 0 274 122 274 314c0 190 -106 314 -274 314z" />
    <glyph glyph-name="zero.tosf" 
d="M888 826v-458c0 -222 -154 -380 -374 -380s-374 158 -374 380v458c0 222 154 380 374 380s374 -158 374 -380zM786 378v438c0 168 -94 300 -272 300s-272 -132 -272 -300v-438c0 -168 94 -300 272 -300s272 132 272 300z" />
    <glyph glyph-name="one.tosf" 
d="M524 62v1010l-186 -170c-14 -13 -29 -22 -44 -22c-12 0 -28 7 -36 16c-7 7 -12 18 -12 32c0 16 10 32 26 46l230 202c21 19 44 34 70 34c14 0 29 -3 40 -16c12 -14 16 -30 16 -50v-1082c0 -27 -3 -38 -11 -50s-24 -20 -41 -20s-33 8 -41 20s-11 23 -11 50z" />
    <glyph glyph-name="two.tosf" 
d="M864 0h-649c-42 0 -64 0 -80 16c-7 8 -12 19 -12 32c0 17 8 45 34 71l487 487c84 84 134 178 134 286c0 146 -114 262 -272 262c-120 0 -238 -58 -268 -208c-4 -21 -8 -50 -20 -68c-8 -12 -20 -20 -40 -20c-16 0 -30 6 -38 18s-10 24 -10 38c0 44 22 108 44 148
c60 110 173 184 332 184c228 0 374 -160 374 -354c0 -140 -66 -248 -160 -342l-458 -458h602c24 0 36 -3 46 -10c12 -9 18 -21 18 -36s-6 -27 -18 -36c-10 -7 -22 -10 -46 -10z" />
    <glyph glyph-name="three.tosf" 
d="M664 504c144 -42 232 -157 232 -354c0 -238 -190 -394 -413 -394c-150 0 -234 38 -303 107c-53 53 -89 129 -89 209c0 24 4 43 16 55c9 9 20 14 35 14c13 0 24 -4 32 -12c10 -10 16 -22 20 -52c22 -163 127 -229 289 -229c170 0 309 117 309 302c0 191 -100 302 -300 302
c-24 0 -36 3 -46 10c-12 9 -18 21 -18 36s6 27 18 36c10 7 22 10 46 10c187 0 274 113 274 287c0 176 -117 281 -276 281c-144 0 -237 -61 -266 -206c-7 -35 -13 -47 -23 -57c-8 -8 -20 -13 -34 -13c-15 0 -27 6 -36 17c-8 10 -12 22 -12 42c0 73 43 156 97 210
c69 69 155 99 274 99c219 0 380 -142 380 -373c0 -150 -62 -267 -206 -327z" />
    <glyph glyph-name="four.tosf" 
d="M774 -184c0 -27 -3 -38 -11 -50s-24 -20 -41 -20s-33 8 -41 20s-11 23 -11 50v242h-559c-20 0 -31 2 -41 8c-13 8 -21 23 -21 38c0 10 3 22 12 40l534 1068c12 24 21 34 32 40c7 4 15 6 22 6c23 0 46 -19 46 -45c0 -12 -4 -24 -14 -44l-510 -1019h499v390
c0 27 3 38 11 50s24 20 41 20s33 -8 41 -20s11 -23 11 -50v-390h134c24 0 36 -3 46 -10c12 -9 18 -21 18 -36s-6 -27 -18 -36c-10 -7 -22 -10 -46 -10h-134v-242z" />
    <glyph glyph-name="five.tosf" 
d="M804 1102h-538v-498c68 72 144 105 270 105c102 0 184 -30 240 -86c100 -100 118 -251 118 -385c0 -136 -10 -276 -112 -378c-66 -66 -156 -102 -274 -102c-119 0 -207 29 -276 98c-54 54 -95 138 -95 211c0 20 4 32 12 42c9 11 22 17 37 17c14 0 26 -5 34 -13
c10 -10 16 -22 23 -57c29 -145 121 -206 265 -206c78 0 150 25 196 71c84 84 86 211 86 317c0 175 -32 379 -266 379c-107 0 -187 -29 -246 -119c-7 -11 -15 -21 -24 -29c-8 -7 -21 -10 -32 -10c-8 0 -24 3 -34 13c-11 11 -14 27 -14 47v613c0 13 0 34 14 48s32 14 48 14
h568c24 0 36 -3 46 -10c12 -9 18 -21 18 -36s-6 -27 -18 -36c-10 -7 -22 -10 -46 -10z" />
    <glyph glyph-name="six.tosf" 
d="M110 422c0 91 23 189 77 297l349 698c12 24 19 33 31 40c7 4 15 6 24 6c22 0 45 -18 45 -45c0 -12 -4 -24 -14 -44l-272 -544c50 24 98 40 178 40c254 0 400 -190 400 -432c0 -248 -148 -450 -408 -450s-410 180 -410 434zM518 74c188 0 308 142 308 354
c0 188 -104 356 -308 356c-188 0 -306 -142 -306 -356c0 -212 118 -354 306 -354z" />
    <glyph glyph-name="seven.tosf" 
d="M280 -212c-12 -24 -19 -33 -31 -40c-7 -4 -15 -6 -24 -6c-22 0 -45 18 -45 45c0 12 4 24 14 44l636 1271h-596v-160c0 -27 -3 -38 -11 -50s-24 -20 -41 -20s-33 8 -41 20s-11 23 -11 50v190c0 13 0 34 14 48s32 14 48 14h698c20 0 31 -2 41 -8c13 -8 21 -23 21 -38
c0 -10 -3 -22 -12 -40z" />
    <glyph glyph-name="eight.tosf" 
d="M696 740c136 -72 224 -192 224 -356c0 -228 -176 -396 -406 -396s-406 168 -406 396c0 164 90 284 226 356c-126 68 -196 178 -196 324c0 210 154 372 376 372s376 -162 376 -372c0 -146 -68 -256 -194 -324zM788 1064c0 164 -112 282 -274 282s-274 -118 -274 -282
c0 -166 112 -282 274 -282s274 116 274 282zM818 384c0 174 -132 308 -304 308s-304 -134 -304 -308s132 -306 304 -306s304 132 304 306z" />
    <glyph glyph-name="nine.tosf" 
d="M841 475l-348 -696c-12 -24 -20 -34 -28 -40c-6 -4 -14 -8 -24 -8c-12 0 -18 2 -28 8c-11 7 -18 22 -18 32c0 14 5 28 16 50l273 546c-52 -26 -101 -43 -184 -43c-254 0 -400 190 -400 432c0 248 148 450 408 450s410 -180 410 -434c0 -91 -23 -189 -77 -297zM510 410
c188 0 306 142 306 356c0 212 -118 354 -306 354s-308 -142 -308 -354c0 -188 104 -356 308 -356z" />
    <glyph glyph-name="uni2007.tosf" 
 />
    <glyph glyph-name="hyphen.case" horiz-adv-x="852" 
d="M632 672h-412c-24 0 -36 3 -46 10c-12 9 -18 21 -18 36s6 27 18 36c10 7 22 10 46 10h412c24 0 36 -3 46 -10c12 -9 18 -21 18 -36s-6 -27 -18 -36c-10 -7 -22 -10 -46 -10z" />
    <glyph glyph-name="exclamdown.case" horiz-adv-x="608" 
d="M222 69v906c0 31 3 41 12 55c9 13 23 20 42 20s33 -7 42 -20c9 -14 12 -24 12 -55v-906c0 -31 -3 -41 -12 -55c-9 -13 -23 -20 -42 -20s-33 7 -42 20c-9 14 -12 24 -12 55zM276 1432c44 0 80 -36 80 -80s-36 -80 -80 -80s-80 36 -80 80s36 80 80 80z" />
    <glyph glyph-name="guillemotleft.case" horiz-adv-x="1097" 
d="M427 374l-344 344l344 344c20 20 30 26 42 28c16 2 30 -3 41 -14s15 -24 13 -40c-2 -12 -8 -22 -28 -42l-276 -276l276 -276c20 -20 26 -30 28 -42c2 -16 -2 -29 -13 -40s-25 -16 -41 -14c-12 2 -22 8 -42 28zM844 374l-344 344l344 344c20 20 30 26 42 28
c16 2 30 -3 41 -14s15 -24 13 -40c-2 -12 -8 -22 -28 -42l-276 -276l276 -276c20 -20 26 -30 28 -42c2 -16 -2 -29 -13 -40s-25 -16 -41 -14c-12 2 -22 8 -42 28z" />
    <glyph glyph-name="uni00AD.case" horiz-adv-x="852" 
d="M632 672h-412c-24 0 -36 3 -46 10c-12 9 -18 21 -18 36s6 27 18 36c10 7 22 10 46 10h412c24 0 36 -3 46 -10c12 -9 18 -21 18 -36s-6 -27 -18 -36c-10 -7 -22 -10 -46 -10z" />
    <glyph glyph-name="periodcentered.case" horiz-adv-x="598" 
d="M299 627c-51 0 -92 41 -92 92s41 92 92 92s92 -41 92 -92s-41 -92 -92 -92z" />
    <glyph glyph-name="guillemotright.case" horiz-adv-x="1097" 
d="M253 1062l344 -344l-344 -344c-20 -20 -30 -26 -42 -28c-16 -2 -30 3 -41 14s-15 24 -13 40c2 12 8 22 28 42l276 276l-276 276c-20 20 -26 30 -28 42c-2 16 2 29 13 40s25 16 41 14c12 -2 22 -8 42 -28zM670 1062l344 -344l-344 -344c-20 -20 -30 -26 -42 -28
c-16 -2 -30 3 -41 14s-15 24 -13 40c2 12 8 22 28 42l276 276l-276 276c-20 20 -26 30 -28 42c-2 16 2 29 13 40s25 16 41 14c12 -2 22 -8 42 -28z" />
    <glyph glyph-name="questiondown.case" horiz-adv-x="976" 
d="M446 1436c44 0 80 -36 80 -80s-36 -80 -80 -80s-80 36 -80 80s36 80 80 80zM100 346c0 92 37 162 88 238l168 248c33 48 38 98 38 154c0 27 3 38 11 50s24 20 41 20s33 -8 41 -20s11 -23 11 -50c0 -91 -6 -132 -58 -208l-168 -248c-40 -60 -68 -108 -68 -184
c0 -148 110 -262 256 -262c65 0 131 20 180 68c44 42 67 100 75 160c2 17 5 35 13 48c8 12 20 20 44 20c12 0 28 -6 36 -18s10 -24 10 -38c0 -81 -41 -170 -97 -228c-63 -64 -153 -102 -261 -102c-204 0 -360 152 -360 352z" />
    <glyph glyph-name="endash.case" 
d="M866 672h-704c-24 0 -36 3 -46 10c-12 9 -18 21 -18 36s6 27 18 36c10 7 22 10 46 10h704c24 0 36 -3 46 -10c12 -9 18 -21 18 -36s-6 -27 -18 -36c-10 -7 -22 -10 -46 -10z" />
    <glyph glyph-name="emdash.case" horiz-adv-x="1746" 
d="M1584 673h-1422c-24 0 -36 3 -46 10c-12 9 -18 21 -18 36s6 27 18 36c10 7 22 10 46 10h1422c24 0 36 -3 46 -10c12 -9 18 -21 18 -36s-6 -27 -18 -36c-10 -7 -22 -10 -46 -10z" />
    <glyph glyph-name="bullet.case" 
d="M514 393c-179 0 -325 146 -325 325s146 325 325 325s325 -146 325 -325s-146 -325 -325 -325z" />
    <glyph glyph-name="guilsinglleft.case" horiz-adv-x="680" 
d="M427 374l-344 344l344 344c20 20 30 26 42 28c16 2 30 -3 41 -14s15 -24 13 -40c-2 -12 -8 -22 -28 -42l-276 -276l276 -276c20 -20 26 -30 28 -42c2 -16 -2 -29 -13 -40s-25 -16 -41 -14c-12 2 -22 8 -42 28z" />
    <glyph glyph-name="guilsinglright.case" horiz-adv-x="680" 
d="M597 718l-344 -344c-20 -20 -30 -26 -42 -28c-16 -2 -30 3 -41 14s-15 24 -13 40c2 12 8 22 28 42l276 276l-276 276c-20 20 -26 30 -28 42c-2 16 2 29 13 40s25 16 41 14c12 -2 22 -8 42 -28z" />
    <glyph glyph-name="at.ss01" horiz-adv-x="1884" 
d="M1058 -394h-42c-498 0 -856 370 -856 868c0 484 382 866 858 866c436 0 732 -284 732 -708c0 -318 -242 -588 -576 -588h-34c-14 0 -32 3 -44 15c-11 11 -13 26 -13 37c0 9 1 18 3 27l6 30c-35 -43 -107 -123 -240 -123c-159 0 -284 86 -284 294c0 52 8 121 16 161
c28 153 84 282 168 356c77 67 160 93 242 93c123 0 194 -60 227 -138l14 71c5 25 11 37 22 47c9 8 20 12 33 12c12 0 25 -5 34 -14c15 -15 18 -30 11 -65l-144 -719c263 8 457 250 457 504c0 362 -268 610 -630 610c-414 0 -752 -342 -752 -768c0 -438 302 -776 766 -776h26
c24 0 36 -3 46 -10c12 -9 18 -21 18 -36s-6 -27 -18 -36c-10 -7 -22 -10 -46 -10zM688 482c-10 -56 -16 -116 -16 -158c0 -150 94 -202 184 -202c66 0 131 28 177 74c56 56 96 132 125 286c10 56 16 116 16 158c0 150 -94 202 -184 202c-66 0 -131 -28 -177 -74
c-56 -56 -96 -132 -125 -286z" />
    <glyph glyph-name="a.ss01" horiz-adv-x="1084" 
d="M890 902v-840c0 -27 -3 -38 -11 -50s-24 -20 -41 -20s-33 8 -41 20s-11 23 -11 50v62c-84 -112 -178 -136 -286 -136c-100 0 -186 34 -236 84c-98 98 -126 258 -126 410s28 312 126 410c50 50 136 84 236 84c108 0 202 -24 286 -136v62c0 27 3 38 11 50s24 20 41 20
s33 -8 41 -20s11 -23 11 -50zM514 78c236 0 272 204 272 404s-36 404 -272 404s-272 -204 -272 -404s36 -404 272 -404z" />
    <glyph glyph-name="cedilla.ss01" horiz-adv-x="1056" 
d="M640 -266c0 -100 -73 -188 -200 -188c-22 0 -30 3 -36 8c-8 6 -14 18 -14 30s6 24 14 30c6 4 14 8 36 8c76 0 116 57 116 112s-40 112 -116 112c-22 0 -30 4 -36 8c-8 6 -14 18 -14 30s6 24 14 30c6 5 14 8 36 8c127 0 200 -88 200 -188z" />
    <glyph glyph-name="Ccedilla.ss01" horiz-adv-x="1288" 
d="M164 712c0 346 10 456 142 588c84 84 204 136 346 136c190 0 311 -82 391 -186c49 -64 81 -151 81 -193c0 -17 -4 -29 -14 -39s-23 -14 -35 -14c-16 0 -26 5 -35 14c-11 11 -19 29 -26 51c-52 167 -182 271 -362 271c-104 0 -196 -36 -270 -110
c-102 -102 -110 -218 -110 -518s8 -416 110 -518c74 -74 166 -110 270 -110c180 0 310 104 362 271c7 22 15 40 26 51c9 9 19 14 35 14c12 0 25 -4 35 -14s14 -22 14 -39c0 -42 -32 -129 -81 -193c-80 -104 -201 -186 -391 -186c-142 0 -262 52 -346 136
c-132 132 -142 242 -142 588zM788 -266c0 -100 -73 -188 -200 -188c-22 0 -30 3 -36 8c-8 6 -14 18 -14 30s6 24 14 30c6 4 14 8 36 8c76 0 116 57 116 112s-40 112 -116 112c-22 0 -30 4 -36 8c-8 6 -14 18 -14 30s6 24 14 30c6 5 14 8 36 8c127 0 200 -88 200 -188z" />
    <glyph glyph-name="agrave.ss01" horiz-adv-x="1084" 
d="M890 902v-840c0 -27 -3 -38 -11 -50s-24 -20 -41 -20s-33 8 -41 20s-11 23 -11 50v62c-84 -112 -178 -136 -286 -136c-100 0 -186 34 -236 84c-98 98 -126 258 -126 410s28 312 126 410c50 50 136 84 236 84c108 0 202 -24 286 -136v62c0 27 3 38 11 50s24 20 41 20
s33 -8 41 -20s11 -23 11 -50zM514 78c236 0 272 204 272 404s-36 404 -272 404s-272 -204 -272 -404s36 -404 272 -404zM474 1213l-108 173c-12 19 -18 32 -18 45c0 18 8 32 25 43c9 6 18 8 27 8c11 0 20 -3 29 -10s18 -19 25 -31l108 -173c12 -19 18 -32 18 -45
c0 -18 -8 -32 -25 -43c-9 -6 -18 -8 -27 -8c-11 0 -20 3 -29 10s-16 17 -25 31z" />
    <glyph glyph-name="aacute.ss01" horiz-adv-x="1084" 
d="M890 902v-840c0 -27 -3 -38 -11 -50s-24 -20 -41 -20s-33 8 -41 20s-11 23 -11 50v62c-84 -112 -178 -136 -286 -136c-100 0 -186 34 -236 84c-98 98 -126 258 -126 410s28 312 126 410c50 50 136 84 236 84c108 0 202 -24 286 -136v62c0 27 3 38 11 50s24 20 41 20
s33 -8 41 -20s11 -23 11 -50zM514 78c236 0 272 204 272 404s-36 404 -272 404s-272 -204 -272 -404s36 -404 272 -404zM690 1391l-108 -173c-9 -14 -16 -24 -25 -31s-18 -10 -29 -10c-9 0 -18 2 -27 8c-17 11 -25 25 -25 43c0 13 6 26 18 45l108 173c7 12 16 24 25 31
s18 10 29 10c9 0 18 -2 27 -8c17 -11 25 -25 25 -43c0 -13 -6 -26 -18 -45z" />
    <glyph glyph-name="acircumflex.ss01" horiz-adv-x="1084" 
d="M890 902v-840c0 -27 -3 -38 -11 -50s-24 -20 -41 -20s-33 8 -41 20s-11 23 -11 50v62c-84 -112 -178 -136 -286 -136c-100 0 -186 34 -236 84c-98 98 -126 258 -126 410s28 312 126 410c50 50 136 84 236 84c108 0 202 -24 286 -136v62c0 27 3 38 11 50s24 20 41 20
s33 -8 41 -20s11 -23 11 -50zM514 78c236 0 272 204 272 404s-36 404 -272 404s-272 -204 -272 -404s36 -404 272 -404zM695 1196l-167 167l-167 -167c-17 -17 -28 -23 -40 -25c-15 -2 -28 3 -38 13s-15 23 -13 38c2 12 8 23 25 40l189 189c11 11 24 24 44 24s33 -13 44 -24
l189 -189c17 -17 23 -28 25 -40c2 -15 -3 -28 -13 -38s-23 -15 -38 -13c-12 2 -23 8 -40 25z" />
    <glyph glyph-name="atilde.ss01" horiz-adv-x="1084" 
d="M890 902v-840c0 -27 -3 -38 -11 -50s-24 -20 -41 -20s-33 8 -41 20s-11 23 -11 50v62c-84 -112 -178 -136 -286 -136c-100 0 -186 34 -236 84c-98 98 -126 258 -126 410s28 312 126 410c50 50 136 84 236 84c108 0 202 -24 286 -136v62c0 27 3 38 11 50s24 20 41 20
s33 -8 41 -20s11 -23 11 -50zM514 78c236 0 272 204 272 404s-36 404 -272 404s-272 -204 -272 -404s36 -404 272 -404zM515 1257c-38 23 -72 43 -112 43c-26 0 -47 -2 -88 -38c-17 -15 -31 -26 -46 -26c-11 0 -21 5 -27 11c-7 7 -13 16 -13 29s6 29 30 50
c66 59 110 62 144 62c58 0 90 -18 138 -47c38 -23 72 -43 112 -43c26 0 47 2 88 38c17 15 31 26 46 26c11 0 21 -5 27 -11c7 -7 13 -16 13 -29s-6 -29 -30 -50c-66 -59 -110 -62 -144 -62c-58 0 -90 18 -138 47z" />
    <glyph glyph-name="adieresis.ss01" horiz-adv-x="1084" 
d="M890 902v-840c0 -27 -3 -38 -11 -50s-24 -20 -41 -20s-33 8 -41 20s-11 23 -11 50v62c-84 -112 -178 -136 -286 -136c-100 0 -186 34 -236 84c-98 98 -126 258 -126 410s28 312 126 410c50 50 136 84 236 84c108 0 202 -24 286 -136v62c0 27 3 38 11 50s24 20 41 20
s33 -8 41 -20s11 -23 11 -50zM514 78c236 0 272 204 272 404s-36 404 -272 404s-272 -204 -272 -404s36 -404 272 -404zM320 1200c-41 0 -74 33 -74 74s33 74 74 74s74 -33 74 -74s-33 -74 -74 -74zM736 1200c-41 0 -74 33 -74 74s33 74 74 74s74 -33 74 -74
s-33 -74 -74 -74z" />
    <glyph glyph-name="aring.ss01" horiz-adv-x="1084" 
d="M890 902v-840c0 -27 -3 -38 -11 -50s-24 -20 -41 -20s-33 8 -41 20s-11 23 -11 50v62c-84 -112 -178 -136 -286 -136c-100 0 -186 34 -236 84c-98 98 -126 258 -126 410s28 312 126 410c50 50 136 84 236 84c108 0 202 -24 286 -136v62c0 27 3 38 11 50s24 20 41 20
s33 -8 41 -20s11 -23 11 -50zM514 78c236 0 272 204 272 404s-36 404 -272 404s-272 -204 -272 -404s36 -404 272 -404zM674 1354c0 81 -65 146 -146 146s-146 -65 -146 -146s65 -146 146 -146s146 65 146 146zM528 1126c-126 0 -228 102 -228 228s102 228 228 228
s228 -102 228 -228s-102 -228 -228 -228z" />
    <glyph glyph-name="ae.ss01" horiz-adv-x="1694" 
d="M1498 460h-608c0 -244 110 -380 314 -380c81 0 160 22 222 76c28 25 39 34 58 34c24 0 46 -23 46 -46c0 -43 -70 -86 -102 -104c-54 -31 -134 -52 -230 -52c-135 0 -238 44 -308 129v-55c0 -27 -3 -38 -11 -50s-24 -20 -41 -20s-33 8 -41 20s-11 23 -11 50v62
c-84 -112 -178 -136 -286 -136c-100 0 -186 34 -236 84c-98 98 -126 258 -126 410s28 312 126 410c50 50 136 84 236 84c108 0 202 -24 286 -136v62c0 27 3 38 11 50s24 20 41 20s33 -8 41 -20s11 -23 11 -50v-54c67 84 164 128 284 128c239 0 386 -176 386 -454
c0 -13 0 -34 -14 -48s-32 -14 -48 -14zM890 546h568c-4 80 -10 117 -34 177c-40 100 -136 161 -250 161s-210 -62 -250 -161c-24 -60 -30 -97 -34 -177zM514 78c236 0 272 204 272 404s-36 404 -272 404s-272 -204 -272 -404s36 -404 272 -404z" />
    <glyph glyph-name="ccedilla.ss01" horiz-adv-x="983" 
d="M813 79c-69 -60 -146 -91 -252 -91c-266 0 -423 188 -423 494s157 494 423 494c106 0 183 -31 252 -91c37 -32 51 -49 51 -74c0 -12 -7 -25 -16 -33s-20 -12 -32 -12c-19 0 -32 11 -63 38c-68 60 -120 80 -192 80c-108 0 -195 -42 -253 -126c-48 -70 -66 -146 -66 -276
s18 -206 66 -276c58 -84 145 -126 253 -126c72 0 124 20 192 80c31 27 44 38 63 38c12 0 23 -4 32 -12s16 -21 16 -33c0 -25 -14 -42 -51 -74zM675 -266c0 -100 -73 -188 -200 -188c-22 0 -30 3 -36 8c-8 6 -14 18 -14 30s6 24 14 30c6 4 14 8 36 8c76 0 116 57 116 112
s-40 112 -116 112c-22 0 -30 4 -36 8c-8 6 -14 18 -14 30s6 24 14 30c6 5 14 8 36 8c127 0 200 -88 200 -188z" />
    <glyph glyph-name="ogonek.ss01" horiz-adv-x="1056" 
d="M573 -446c-6 -5 -14 -8 -36 -8c-127 0 -200 88 -200 188s73 188 200 188c22 0 30 -3 36 -8c8 -6 14 -18 14 -30s-6 -24 -14 -30c-6 -4 -14 -8 -36 -8c-76 0 -116 -57 -116 -112s40 -112 116 -112c22 0 30 -4 36 -8c8 -6 14 -18 14 -30s-6 -24 -14 -30z" />
    <glyph glyph-name="Abreve" unicode="&#x102;" horiz-adv-x="1204" 
d="M793 1608c-51 -51 -114 -88 -191 -88s-140 37 -191 88c-14 14 -19 23 -20 32c-2 12 2 23 10 31s19 12 31 10c9 -2 18 -6 32 -20c37 -38 78 -69 138 -69s101 31 138 69c14 14 23 18 32 20c12 2 23 -2 31 -10s12 -19 10 -31c-1 -9 -6 -18 -20 -32zM61 85l478 1280
c9 24 14 35 21 45c9 13 23 22 42 22s33 -9 42 -22c7 -10 12 -21 21 -45l478 -1280c11 -28 17 -56 -4 -77c-10 -10 -25 -16 -41 -16c-9 0 -18 3 -26 8c-13 9 -19 19 -30 47l-113 299h-654l-113 -299c-11 -28 -17 -38 -30 -47c-8 -5 -17 -8 -26 -8c-16 0 -31 6 -41 16
c-21 21 -15 49 -4 77zM895 442l-293 807l-293 -807h586z" />
    <glyph glyph-name="abreve" unicode="&#x103;" horiz-adv-x="1048" 
d="M715 1188c-51 -51 -114 -88 -191 -88s-140 37 -191 88c-14 14 -19 23 -20 32c-2 12 2 23 10 31s19 12 31 10c9 -2 18 -6 32 -20c37 -38 78 -69 138 -69s101 31 138 69c14 14 23 18 32 20c12 2 23 -2 31 -10s12 -19 10 -31c-1 -9 -6 -18 -20 -32zM760 62v34
c-82 -82 -161 -108 -294 -108c-143 0 -223 24 -285 88c-44 46 -71 114 -71 190c0 175 130 278 333 278h317v92c0 162 -74 250 -262 250c-116 0 -174 -31 -243 -100c-22 -22 -39 -26 -53 -26c-12 0 -24 4 -32 12s-14 16 -14 34c0 28 30 63 92 105c68 46 144 65 250 65
c242 0 366 -112 366 -316v-598c0 -27 -3 -38 -11 -50s-24 -20 -41 -20s-33 8 -41 20s-11 23 -11 50zM760 336v123h-310c-156 0 -236 -67 -236 -193c0 -127 82 -188 252 -188c88 0 172 8 240 74c36 34 54 94 54 184z" />
    <glyph glyph-name="dcroat" unicode="&#x111;" horiz-adv-x="1084" 
d="M890 62c0 -27 -3 -38 -11 -50s-24 -20 -41 -20s-33 8 -41 20s-11 23 -11 50v62c-84 -112 -178 -136 -286 -136c-100 0 -186 34 -236 84c-98 98 -126 248 -126 410s28 312 126 410c50 50 136 84 236 84c108 0 202 -24 286 -136v372h-144c-22 0 -33 2 -43 9
c-11 8 -16 18 -16 33s5 25 16 33c10 7 21 9 43 9h144v66c0 27 3 38 11 50s24 20 41 20s33 -8 41 -20s11 -23 11 -50v-66h104c22 0 33 -2 43 -9c11 -8 16 -18 16 -33s-5 -25 -16 -33c-10 -7 -21 -9 -43 -9h-104v-1150zM514 80c236 0 272 202 272 402s-36 402 -272 402
s-272 -202 -272 -402s36 -402 272 -402z" />
    <glyph glyph-name="Dcroat" unicode="&#x110;" horiz-adv-x="1378" 
d="M720 0h-414c-16 0 -34 0 -49 15s-15 33 -15 49v608h-106c-24 0 -36 3 -46 10c-12 9 -18 21 -18 36s6 27 18 36c10 7 22 10 46 10h106v596c0 16 0 34 15 49s33 15 49 15h414c150 0 270 -44 356 -130c136 -136 138 -370 138 -582s-2 -446 -138 -582
c-86 -86 -206 -130 -356 -130zM350 96h344c114 0 224 24 306 110c106 112 106 318 106 506s0 394 -106 506c-82 86 -192 110 -306 110h-344v-564h300c24 0 36 -3 46 -10c12 -9 18 -21 18 -36s-6 -27 -18 -36c-10 -7 -22 -10 -46 -10h-300v-576z" />
    <glyph glyph-name="Itilde" unicode="&#x128;" horiz-adv-x="548" 
d="M281 1567c-25 19 -46 35 -72 35c-17 0 -30 -2 -56 -31c-11 -12 -20 -20 -30 -20c-7 0 -13 4 -17 8c-4 6 -8 13 -8 24c0 10 4 23 19 40c42 47 70 49 92 49c37 0 58 -14 88 -37c25 -19 46 -35 72 -35c17 0 30 2 56 31c11 12 20 20 30 20c7 0 13 -4 17 -8c4 -6 8 -13 8 -24
c0 -10 -4 -23 -19 -40c-42 -47 -70 -49 -92 -49c-37 0 -58 14 -88 37zM220 67v1290c0 31 3 41 12 55c9 13 23 20 42 20s33 -7 42 -20c9 -14 12 -24 12 -55v-1290c0 -31 -3 -41 -12 -55c-9 -13 -23 -20 -42 -20s-33 7 -42 20c-9 14 -12 24 -12 55z" />
    <glyph glyph-name="itilde" unicode="&#x129;" horiz-adv-x="492" 
d="M244 1147c-25 19 -46 35 -72 35c-17 0 -30 -2 -56 -31c-11 -12 -20 -20 -30 -20c-7 0 -13 4 -17 8c-4 6 -8 13 -8 24c0 10 4 23 19 40c42 47 70 49 92 49c37 0 58 -14 88 -37c25 -19 46 -35 72 -35c17 0 30 2 56 31c11 12 20 20 30 20c7 0 13 -4 17 -8c4 -6 8 -13 8 -24
c0 -10 -4 -23 -19 -40c-42 -47 -70 -49 -92 -49c-37 0 -58 14 -88 37zM194 62v840c0 27 3 38 11 50s24 20 41 20s33 -8 41 -20s11 -23 11 -50v-840c0 -27 -3 -38 -11 -50s-24 -20 -41 -20s-33 8 -41 20s-11 23 -11 50z" />
    <glyph glyph-name="Utilde" unicode="&#x168;" horiz-adv-x="1376" 
d="M694 1567c-25 19 -46 35 -72 35c-17 0 -30 -2 -56 -31c-11 -12 -20 -20 -30 -20c-7 0 -13 4 -17 8c-4 6 -8 13 -8 24c0 10 4 23 19 40c42 47 70 49 92 49c37 0 58 -14 88 -37c25 -19 46 -35 72 -35c17 0 30 2 56 31c11 12 20 20 30 20c7 0 13 -4 17 -8c4 -6 8 -13 8 -24
c0 -10 -4 -23 -19 -40c-42 -47 -70 -49 -92 -49c-37 0 -58 14 -88 37zM1068 476v881c0 31 3 41 12 55c9 13 23 20 42 20s33 -7 42 -20c9 -14 12 -24 12 -55v-895c0 -278 -202 -474 -488 -474s-488 196 -488 474v895c0 31 3 41 12 55c9 13 23 20 42 20s33 -7 42 -20
c9 -14 12 -24 12 -55v-881c0 -236 152 -392 380 -392s380 156 380 392z" />
    <glyph glyph-name="utilde" unicode="&#x169;" horiz-adv-x="1122" 
d="M564 1147c-25 19 -46 35 -72 35c-17 0 -30 -2 -56 -31c-11 -12 -20 -20 -30 -20c-7 0 -13 4 -17 8c-4 6 -8 13 -8 24c0 10 4 23 19 40c42 47 70 49 92 49c37 0 58 -14 88 -37c25 -19 46 -35 72 -35c17 0 30 2 56 31c11 12 20 20 30 20c7 0 13 -4 17 -8c4 -6 8 -13 8 -24
c0 -10 -4 -23 -19 -40c-42 -47 -70 -49 -92 -49c-37 0 -58 14 -88 37zM824 62v52c-72 -84 -168 -126 -284 -126c-108 0 -196 32 -258 92c-65 62 -100 154 -100 268v554c0 27 3 38 11 50s24 20 41 20s33 -8 41 -20s11 -23 11 -50v-534c0 -186 92 -288 266 -288
s272 104 272 288v534c0 27 3 38 11 50s24 20 41 20s33 -8 41 -20s11 -23 11 -50v-840c0 -27 -3 -38 -11 -50s-24 -20 -41 -20s-33 8 -41 20s-11 23 -11 50z" />
    <glyph glyph-name="Ohorn" unicode="&#x1a0;" horiz-adv-x="1304" 
d="M1101 1500l-109 -195c2 -2 4 -3 6 -5c132 -132 142 -242 142 -588s-10 -456 -142 -588c-84 -84 -204 -136 -346 -136s-262 52 -346 136c-132 132 -142 242 -142 588s10 456 142 588c84 84 204 136 346 136c100 0 190 -26 263 -71l102 181c11 20 17 28 28 34
c9 5 20 6 29 4c22 -4 39 -21 41 -40c1 -12 -3 -24 -14 -44zM922 194c102 102 110 218 110 518s-8 416 -110 518c-74 74 -166 110 -270 110s-196 -36 -270 -110c-102 -102 -110 -218 -110 -518s8 -416 110 -518c74 -74 166 -110 270 -110s196 36 270 110z" />
    <glyph glyph-name="ohorn" unicode="&#x1a1;" horiz-adv-x="1056" 
d="M937 1045l-115 -205c82 -101 96 -233 96 -358c0 -138 -17 -283 -122 -388c-68 -68 -160 -106 -268 -106s-200 38 -268 106c-105 105 -122 250 -122 388s17 283 122 388c68 68 160 106 268 106c85 0 161 -24 223 -68l102 183c11 20 17 28 28 34c9 5 20 6 29 4
c22 -4 39 -21 41 -40c1 -12 -3 -24 -14 -44zM726 161c76 76 88 206 88 321s-12 245 -88 321c-54 54 -118 81 -198 81s-144 -27 -198 -81c-76 -76 -88 -206 -88 -321s12 -245 88 -321c54 -54 118 -81 198 -81s144 27 198 81z" />
    <glyph glyph-name="Uhorn" unicode="&#x1af;" horiz-adv-x="1376" 
d="M1289 1510l-113 -202v-846c0 -278 -202 -474 -488 -474s-488 196 -488 474v895c0 31 3 41 12 55c9 13 23 20 42 20s33 -7 42 -20c9 -14 12 -24 12 -55v-881c0 -236 152 -392 380 -392s380 156 380 392v881c0 31 3 41 12 55c9 13 23 20 42 20c4 0 9 0 13 -1l70 125
c11 20 17 28 28 34c9 5 20 6 29 4c22 -4 39 -21 41 -40c1 -12 -3 -24 -14 -44z" />
    <glyph glyph-name="uhorn" unicode="&#x1b0;" horiz-adv-x="1122" 
d="M1046 1047l-118 -211v-774c0 -27 -3 -38 -11 -50s-24 -20 -41 -20s-33 8 -41 20s-11 23 -11 50v52c-72 -84 -168 -126 -284 -126c-108 0 -196 32 -258 92c-65 62 -100 154 -100 268v554c0 27 3 38 11 50s24 20 41 20s33 -8 41 -20s11 -23 11 -50v-534
c0 -186 92 -288 266 -288s272 104 272 288v534c0 27 3 38 11 50s24 20 41 20c6 0 11 -1 17 -3l69 124c11 20 17 28 28 34c9 5 20 6 29 4c22 -4 39 -21 41 -40c1 -12 -3 -24 -14 -44z" />
    <glyph glyph-name="uni1EA0" unicode="&#x1ea0;" horiz-adv-x="1204" 
d="M601 -271c-33 0 -59 26 -59 59s26 59 59 59s59 -26 59 -59s-26 -59 -59 -59zM61 85l478 1280c9 24 14 35 21 45c9 13 23 22 42 22s33 -9 42 -22c7 -10 12 -21 21 -45l478 -1280c11 -28 17 -56 -4 -77c-10 -10 -25 -16 -41 -16c-9 0 -18 3 -26 8c-13 9 -19 19 -30 47
l-113 299h-654l-113 -299c-11 -28 -17 -38 -30 -47c-8 -5 -17 -8 -26 -8c-16 0 -31 6 -41 16c-21 21 -15 49 -4 77zM895 442l-293 807l-293 -807h586z" />
    <glyph glyph-name="uni1EA1" unicode="&#x1ea1;" horiz-adv-x="1048" 
d="M485 -271c-33 0 -59 26 -59 59s26 59 59 59s59 -26 59 -59s-26 -59 -59 -59zM760 62v34c-82 -82 -161 -108 -294 -108c-143 0 -223 24 -285 88c-44 46 -71 114 -71 190c0 175 130 278 333 278h317v92c0 162 -74 250 -262 250c-116 0 -174 -31 -243 -100
c-22 -22 -39 -26 -53 -26c-12 0 -24 4 -32 12s-14 16 -14 34c0 28 30 63 92 105c68 46 144 65 250 65c242 0 366 -112 366 -316v-598c0 -27 -3 -38 -11 -50s-24 -20 -41 -20s-33 8 -41 20s-11 23 -11 50zM760 336v123h-310c-156 0 -236 -67 -236 -193
c0 -127 82 -188 252 -188c88 0 172 8 240 74c36 34 54 94 54 184z" />
    <glyph glyph-name="uni1EA2" unicode="&#x1ea2;" horiz-adv-x="1204" 
d="M604 1520c-25 2 -31 21 -31 35c0 25 3 40 20 63l48 69c11 14 18 28 18 46c0 35 -25 61 -60 61c-31 0 -49 -22 -61 -53c-3 -10 -16 -30 -30 -30c-20 0 -27 17 -27 31c0 68 60 104 119 104s118 -35 118 -113c0 -31 -12 -53 -28 -76c-2 -3 -37 -49 -46 -66
c-4 -8 -10 -25 -11 -36c-2 -11 -4 -20 -9 -26c-6 -7 -12 -9 -20 -9zM61 85l478 1280c9 24 14 35 21 45c9 13 23 22 42 22s33 -9 42 -22c7 -10 12 -21 21 -45l478 -1280c11 -28 17 -56 -4 -77c-10 -10 -25 -16 -41 -16c-9 0 -18 3 -26 8c-13 9 -19 19 -30 47l-113 299h-654
l-113 -299c-11 -28 -17 -38 -30 -47c-8 -5 -17 -8 -26 -8c-16 0 -31 6 -41 16c-21 21 -15 49 -4 77zM895 442l-293 807l-293 -807h586z" />
    <glyph glyph-name="uni1EA3" unicode="&#x1ea3;" horiz-adv-x="1048" 
d="M521 1100c-25 2 -31 21 -31 35c0 25 3 40 20 63l48 69c11 14 18 28 18 46c0 35 -25 61 -60 61c-31 0 -49 -22 -61 -53c-3 -10 -16 -30 -30 -30c-20 0 -27 17 -27 31c0 68 60 104 119 104s118 -35 118 -113c0 -31 -12 -53 -28 -76c-2 -3 -37 -49 -46 -66
c-4 -8 -10 -25 -11 -36c-2 -11 -4 -20 -9 -26c-6 -7 -12 -9 -20 -9zM760 62v34c-82 -82 -161 -108 -294 -108c-143 0 -223 24 -285 88c-44 46 -71 114 -71 190c0 175 130 278 333 278h317v92c0 162 -74 250 -262 250c-116 0 -174 -31 -243 -100c-22 -22 -39 -26 -53 -26
c-12 0 -24 4 -32 12s-14 16 -14 34c0 28 30 63 92 105c68 46 144 65 250 65c242 0 366 -112 366 -316v-598c0 -27 -3 -38 -11 -50s-24 -20 -41 -20s-33 8 -41 20s-11 23 -11 50zM760 336v123h-310c-156 0 -236 -67 -236 -193c0 -127 82 -188 252 -188c88 0 172 8 240 74
c36 34 54 94 54 184z" />
    <glyph glyph-name="uni1EA4" unicode="&#x1ea4;" horiz-adv-x="1204" 
d="M911 1841l-86 -138c-7 -11 -13 -19 -20 -25s-14 -8 -23 -8c-7 0 -15 2 -22 6c-13 9 -20 20 -20 35c0 10 5 21 15 36l86 138c6 10 13 19 20 25s14 8 23 8c7 0 15 -2 22 -6c13 -9 20 -20 20 -35c0 -10 -5 -21 -15 -36zM61 85l478 1280c9 24 14 35 21 45c9 13 23 22 42 22
s33 -9 42 -22c7 -10 12 -21 21 -45l478 -1280c11 -28 17 -56 -4 -77c-10 -10 -25 -16 -41 -16c-9 0 -18 3 -26 8c-13 9 -19 19 -30 47l-113 299h-654l-113 -299c-11 -28 -17 -38 -30 -47c-8 -5 -17 -8 -26 -8c-16 0 -31 6 -41 16c-21 21 -15 49 -4 77zM895 442l-293 807
l-293 -807h586zM736 1540l-134 134l-134 -134c-13 -13 -22 -18 -32 -20c-12 -1 -22 3 -30 11s-12 18 -10 30c1 10 6 18 20 32l151 151c9 9 19 19 35 19s26 -10 35 -19l151 -151c14 -14 19 -22 20 -32c2 -12 -2 -22 -10 -30s-18 -12 -30 -11c-10 2 -19 7 -32 20z" />
    <glyph glyph-name="uni1EA5" unicode="&#x1ea5;" horiz-adv-x="1048" 
d="M807 1421l-86 -138c-7 -11 -13 -19 -20 -25s-14 -8 -23 -8c-7 0 -15 2 -22 6c-13 9 -20 20 -20 35c0 10 5 21 15 36l86 138c6 10 13 19 20 25s14 8 23 8c7 0 15 -2 22 -6c13 -9 20 -20 20 -35c0 -10 -5 -21 -15 -36zM760 62v34c-82 -82 -161 -108 -294 -108
c-143 0 -223 24 -285 88c-44 46 -71 114 -71 190c0 175 130 278 333 278h317v92c0 162 -74 250 -262 250c-116 0 -174 -31 -243 -100c-22 -22 -39 -26 -53 -26c-12 0 -24 4 -32 12s-14 16 -14 34c0 28 30 63 92 105c68 46 144 65 250 65c242 0 366 -112 366 -316v-598
c0 -27 -3 -38 -11 -50s-24 -20 -41 -20s-33 8 -41 20s-11 23 -11 50zM760 336v123h-310c-156 0 -236 -67 -236 -193c0 -127 82 -188 252 -188c88 0 172 8 240 74c36 34 54 94 54 184zM632 1120l-134 134l-134 -134c-13 -13 -22 -18 -32 -20c-12 -1 -22 3 -30 11
s-12 18 -10 30c1 10 6 18 20 32l151 151c9 9 19 19 35 19s26 -10 35 -19l151 -151c14 -14 19 -22 20 -32c2 -12 -2 -22 -10 -30s-18 -12 -30 -11c-10 2 -19 7 -32 20z" />
    <glyph glyph-name="uni1EA6" unicode="&#x1ea6;" horiz-adv-x="1204" 
d="M746 1703l-86 138c-10 15 -15 26 -15 36c0 15 7 26 20 35c7 4 15 6 22 6c9 0 16 -2 23 -8s14 -15 20 -25l86 -138c10 -15 15 -26 15 -36c0 -15 -7 -26 -20 -35c-7 -4 -15 -6 -22 -6c-9 0 -16 2 -23 8s-13 14 -20 25zM61 85l478 1280c9 24 14 35 21 45c9 13 23 22 42 22
s33 -9 42 -22c7 -10 12 -21 21 -45l478 -1280c11 -28 17 -56 -4 -77c-10 -10 -25 -16 -41 -16c-9 0 -18 3 -26 8c-13 9 -19 19 -30 47l-113 299h-654l-113 -299c-11 -28 -17 -38 -30 -47c-8 -5 -17 -8 -26 -8c-16 0 -31 6 -41 16c-21 21 -15 49 -4 77zM895 442l-293 807
l-293 -807h586zM736 1540l-134 134l-134 -134c-13 -13 -22 -18 -32 -20c-12 -1 -22 3 -30 11s-12 18 -10 30c1 10 6 18 20 32l151 151c9 9 19 19 35 19s26 -10 35 -19l151 -151c14 -14 19 -22 20 -32c2 -12 -2 -22 -10 -30s-18 -12 -30 -11c-10 2 -19 7 -32 20z" />
    <glyph glyph-name="uni1EA7" unicode="&#x1ea7;" horiz-adv-x="1048" 
d="M642 1283l-86 138c-10 15 -15 26 -15 36c0 15 7 26 20 35c7 4 15 6 22 6c9 0 16 -2 23 -8s14 -15 20 -25l86 -138c10 -15 15 -26 15 -36c0 -15 -7 -26 -20 -35c-7 -4 -15 -6 -22 -6c-9 0 -16 2 -23 8s-13 14 -20 25zM760 62v34c-82 -82 -161 -108 -294 -108
c-143 0 -223 24 -285 88c-44 46 -71 114 -71 190c0 175 130 278 333 278h317v92c0 162 -74 250 -262 250c-116 0 -174 -31 -243 -100c-22 -22 -39 -26 -53 -26c-12 0 -24 4 -32 12s-14 16 -14 34c0 28 30 63 92 105c68 46 144 65 250 65c242 0 366 -112 366 -316v-598
c0 -27 -3 -38 -11 -50s-24 -20 -41 -20s-33 8 -41 20s-11 23 -11 50zM760 336v123h-310c-156 0 -236 -67 -236 -193c0 -127 82 -188 252 -188c88 0 172 8 240 74c36 34 54 94 54 184zM632 1120l-134 134l-134 -134c-13 -13 -22 -18 -32 -20c-12 -1 -22 3 -30 11
s-12 18 -10 30c1 10 6 18 20 32l151 151c9 9 19 19 35 19s26 -10 35 -19l151 -151c14 -14 19 -22 20 -32c2 -12 -2 -22 -10 -30s-18 -12 -30 -11c-10 2 -19 7 -32 20z" />
    <glyph glyph-name="uni1EA8" unicode="&#x1ea8;" horiz-adv-x="1204" 
d="M805 1658c-25 2 -31 21 -31 35c0 25 3 40 20 63l48 69c11 14 18 28 18 46c0 35 -25 61 -60 61c-31 0 -49 -22 -61 -53c-3 -10 -16 -30 -30 -30c-20 0 -27 17 -27 31c0 68 60 104 119 104s118 -35 118 -113c0 -31 -12 -53 -28 -76c-2 -3 -37 -49 -46 -66
c-4 -8 -10 -25 -11 -36c-2 -11 -4 -20 -9 -26c-6 -7 -12 -9 -20 -9zM61 85l478 1280c9 24 14 35 21 45c9 13 23 22 42 22s33 -9 42 -22c7 -10 12 -21 21 -45l478 -1280c11 -28 17 -56 -4 -77c-10 -10 -25 -16 -41 -16c-9 0 -18 3 -26 8c-13 9 -19 19 -30 47l-113 299h-654
l-113 -299c-11 -28 -17 -38 -30 -47c-8 -5 -17 -8 -26 -8c-16 0 -31 6 -41 16c-21 21 -15 49 -4 77zM895 442l-293 807l-293 -807h586zM736 1540l-134 134l-134 -134c-13 -13 -22 -18 -32 -20c-12 -1 -22 3 -30 11s-12 18 -10 30c1 10 6 18 20 32l151 151c9 9 19 19 35 19
s26 -10 35 -19l151 -151c14 -14 19 -22 20 -32c2 -12 -2 -22 -10 -30s-18 -12 -30 -11c-10 2 -19 7 -32 20z" />
    <glyph glyph-name="uni1EA9" unicode="&#x1ea9;" horiz-adv-x="1048" 
d="M701 1238c-25 2 -31 21 -31 35c0 25 3 40 20 63l48 69c11 14 18 28 18 46c0 35 -25 61 -60 61c-31 0 -49 -22 -61 -53c-3 -10 -16 -30 -30 -30c-20 0 -27 17 -27 31c0 68 60 104 119 104s118 -35 118 -113c0 -31 -12 -53 -28 -76c-2 -3 -37 -49 -46 -66
c-4 -8 -10 -25 -11 -36c-2 -11 -4 -20 -9 -26c-6 -7 -12 -9 -20 -9zM760 62v34c-82 -82 -161 -108 -294 -108c-143 0 -223 24 -285 88c-44 46 -71 114 -71 190c0 175 130 278 333 278h317v92c0 162 -74 250 -262 250c-116 0 -174 -31 -243 -100c-22 -22 -39 -26 -53 -26
c-12 0 -24 4 -32 12s-14 16 -14 34c0 28 30 63 92 105c68 46 144 65 250 65c242 0 366 -112 366 -316v-598c0 -27 -3 -38 -11 -50s-24 -20 -41 -20s-33 8 -41 20s-11 23 -11 50zM760 336v123h-310c-156 0 -236 -67 -236 -193c0 -127 82 -188 252 -188c88 0 172 8 240 74
c36 34 54 94 54 184zM632 1120l-134 134l-134 -134c-13 -13 -22 -18 -32 -20c-12 -1 -22 3 -30 11s-12 18 -10 30c1 10 6 18 20 32l151 151c9 9 19 19 35 19s26 -10 35 -19l151 -151c14 -14 19 -22 20 -32c2 -12 -2 -22 -10 -30s-18 -12 -30 -11c-10 2 -19 7 -32 20z" />
    <glyph glyph-name="uni1EAA" unicode="&#x1eaa;" horiz-adv-x="1204" 
d="M594 1815c-25 19 -46 35 -72 35c-17 0 -30 -2 -56 -31c-11 -12 -20 -20 -30 -20c-7 0 -13 4 -17 8c-4 6 -8 13 -8 24c0 10 4 23 19 40c42 47 70 49 92 49c37 0 58 -14 88 -37c25 -19 46 -35 72 -35c17 0 30 2 56 31c11 12 20 20 30 20c7 0 13 -4 17 -8c4 -6 8 -13 8 -24
c0 -10 -4 -23 -19 -40c-42 -47 -70 -49 -92 -49c-37 0 -58 14 -88 37zM61 85l478 1280c9 24 14 35 21 45c9 13 23 22 42 22s33 -9 42 -22c7 -10 12 -21 21 -45l478 -1280c11 -28 17 -56 -4 -77c-10 -10 -25 -16 -41 -16c-9 0 -18 3 -26 8c-13 9 -19 19 -30 47l-113 299h-654
l-113 -299c-11 -28 -17 -38 -30 -47c-8 -5 -17 -8 -26 -8c-16 0 -31 6 -41 16c-21 21 -15 49 -4 77zM895 442l-293 807l-293 -807h586zM736 1540l-134 134l-134 -134c-13 -13 -22 -18 -32 -20c-12 -1 -22 3 -30 11s-12 18 -10 30c1 10 6 18 20 32l151 151c9 9 19 19 35 19
s26 -10 35 -19l151 -151c14 -14 19 -22 20 -32c2 -12 -2 -22 -10 -30s-18 -12 -30 -11c-10 2 -19 7 -32 20z" />
    </font>
</defs>
</svg>
