<?xml version="1.0" encoding="UTF-8"?>
<svg width="28px" height="28px" viewBox="0 0 28 28" version="1.1" xmlns="http://www.w3.org/2000/svg" xmlns:xlink="http://www.w3.org/1999/xlink">
    <!-- Generator: Sketch 54 (76480) - https://sketchapp.com -->
    <title>Add Friend</title>
    <desc>Created with Sketch.</desc>
    <g id="Icons" stroke="none" stroke-width="1" fill="none" fill-rule="evenodd">
        <g id="Add-Friend" transform="translate(-0.234284, 0.003742)" stroke="#000000">
            <path d="M13.7157388,15.0199912 C11.1073944,13.8788406 10.6726369,12.7376899 10.6726369,11.1617818 C10.6726369,7.03183638 16.7588405,7.14055086 16.7588405,11.1617818 C16.7588405,12.846304 16.269776,13.9874547 13.7157388,15.0199912 Z" id="Stroke-1"></path>
            <path d="M26.3771504,8.19332454 L26.3771504,2.33333333 C26.3771504,1.59695367 25.7801966,1 25.043817,1 L2.33333333,1 C1.59695367,1 1,1.59695367 1,2.33333333 L1,24.98951 C1,25.7258898 1.59695367,26.3228434 2.33333333,26.3228434 L7.57526822,26.3228434 C7.57526822,18.9417711 7.57526822,18.6711329 13.0647896,15.4063185" id="Stroke-3"></path>
            <g id="Group" transform="translate(17.507936, 17.507936)">
                <path d="M4.91884058,9.76452726 L4.91884058,-2.66453526e-15" id="Stroke-5"></path>
                <path d="M9.76452726,4.91870256 L3.55271368e-15,4.91870256" id="Stroke-7"></path>
            </g>
        </g>
    </g>
</svg>