<?xml version="1.0" encoding="UTF-8"?>
<svg width="18px" height="19px" viewBox="0 0 18 19" version="1.1" xmlns="http://www.w3.org/2000/svg" xmlns:xlink="http://www.w3.org/1999/xlink">
    <!-- Generator: Sketch 54 (76480) - https://sketchapp.com -->
    <title>Bold Italic</title>
    <desc>Created with Sketch.</desc>
    <g id="Icons" stroke="none" stroke-width="1" fill="none" fill-rule="evenodd">
        <g id="Bold-Italic" transform="translate(0.765716, 0.003742)" fill="#000000" fill-rule="nonzero">
            <path d="M0,18.6133333 L3.73333334,-1.42108547e-14 L11.68,-1.42108547e-14 C14.3733333,-1.42108547e-14 16.32,1.22666667 16.32,3.81333334 C16.32,6.26666666 15.12,8.29333334 12.6933333,8.96 L12.6666667,9.09333334 C14.6133333,9.62666666 15.44,10.96 15.44,12.6933333 C15.44,16.2133333 13.28,18.6133333 9.01333334,18.6133333 L0,18.6133333 Z M4.56,15.3066667 L9.01333334,15.3066667 C10.24,15.3066667 10.9866667,14.7733333 11.2266667,13.5733333 C11.4133333,12.64 11.4666667,12.2933333 11.4666667,12.0533333 C11.4666667,11.3333333 11.0133333,10.8533333 10,10.8533333 L5.44,10.8533333 L4.56,15.3066667 Z M6.08,7.68 L9.84,7.68 C11.0666667,7.68 11.8133333,7.22666666 12.0533333,6.02666666 C12.24,5.09333334 12.2933333,4.8 12.2933333,4.56 C12.2933333,3.81333334 11.84,3.30666666 10.8533333,3.30666666 L6.96,3.30666666 L6.08,7.68 Z" id="B"></path>
        </g>
    </g>
</svg>