<?xml version="1.0" encoding="UTF-8"?>
<svg width="15px" height="19px" viewBox="0 0 15 19" version="1.1" xmlns="http://www.w3.org/2000/svg" xmlns:xlink="http://www.w3.org/1999/xlink">
    <!-- Generator: Sketch 54 (76480) - https://sketchapp.com -->
    <title>Bold</title>
    <desc>Created with Sketch.</desc>
    <g id="Icons" stroke="none" stroke-width="1" fill="none" fill-rule="evenodd">
        <g id="Bold" transform="translate(-1.234284, 0.003742)" fill="#000000" fill-rule="nonzero">
            <path d="M1.33333333,18.6133333 L1.33333333,-1.42108547e-14 L10.3733333,-1.42108547e-14 C13.44,-1.42108547e-14 15.28,1.89333333 15.28,4.77333334 C15.28,7.62666666 13.7066667,8.69333334 11.8133333,8.77333334 L11.8133333,8.93333334 C13.5733333,8.93333334 16,10.1066667 16,13.3066667 C16,16.24 13.9466667,18.6133333 11.2,18.6133333 L1.33333333,18.6133333 Z M5.38666666,10.9333333 L5.38666666,15.2 L10.0533333,15.2 C11.12,15.2 11.7866667,14.5866667 11.7866667,13.52 L11.7866667,12.6133333 C11.7866667,11.5466667 11.12,10.9333333 10.0533333,10.9333333 L5.38666666,10.9333333 Z M5.38666666,3.41333334 L5.38666666,7.62666666 L9.41333334,7.62666666 C10.48,7.62666666 11.12,6.98666666 11.12,5.92 L11.12,5.12 C11.12,4.05333334 10.48,3.41333334 9.41333334,3.41333334 L5.38666666,3.41333334 Z" id="B"></path>
        </g>
    </g>
</svg>