<?xml version="1.0" encoding="UTF-8"?>
<svg width="24px" height="30px" viewBox="0 0 24 30" version="1.1" xmlns="http://www.w3.org/2000/svg" xmlns:xlink="http://www.w3.org/1999/xlink">
    <!-- Generator: Sketch 54 (76480) - https://sketchapp.com -->
    <title>Coins</title>
    <desc>Created with Sketch.</desc>
    <g id="Icons" stroke="none" stroke-width="1" fill="none" fill-rule="evenodd">
        <g id="Coins" transform="translate(-0.234284, -0.996258)" stroke="#111111">
            <ellipse id="Oval" cx="12.3333333" cy="7" rx="11" ry="5"></ellipse>
            <path d="M1.33333333,12 L1.33333333,13 C1.33333333,15.762 6.25733334,18 12.3333333,18 C18.4093333,18 23.3333334,15.762 23.3333333,13 L23.3333333,12" id="Path"></path>
            <path d="M1.33333333,18 L1.33333333,19 C1.33333333,21.762 6.25733334,24 12.3333333,24 C18.4093333,24 23.3333334,21.762 23.3333333,19 L23.3333333,18" id="Path"></path>
            <path d="M1.33333333,24 L1.33333333,25 C1.33333333,27.762 6.25733334,30 12.3333333,30 C18.4093333,30 23.3333334,27.762 23.3333333,25 L23.3333333,24" id="Path"></path>
        </g>
    </g>
</svg>