<?xml version="1.0" encoding="UTF-8"?>
<svg width="31px" height="31px" viewBox="0 0 31 31" version="1.1" xmlns="http://www.w3.org/2000/svg" xmlns:xlink="http://www.w3.org/1999/xlink">
    <!-- Generator: Sketch 54 (76480) - https://sketchapp.com -->
    <title>Cover Photo</title>
    <desc>Created with Sketch.</desc>
    <g id="Icons" stroke="none" stroke-width="1" fill="none" fill-rule="evenodd">
        <g id="Cover-Photo" transform="translate(-1.234284, -0.996258)" stroke="#111111">
            <path d="M30.1888888,6.72222222 L2.81111112,6.72222222 C2.27109936,6.72222222 1.83333333,7.15998824 1.83333333,7.7 L1.83333333,30.1888888 C1.83333333,30.7289006 2.27109936,31.1666666 2.81111112,31.1666666 L30.1888888,31.1666666 C30.7289006,31.1666666 31.1666666,30.7289006 31.1666666,30.1888888 L31.1666666,7.7 C31.1666666,7.15998824 30.7289006,6.72222222 30.1888888,6.72222222 Z M6.72222222,14.0555555 C6.72222222,12.7055262 7.81663728,11.6111111 9.16666666,11.6111111 C10.5166961,11.6111111 11.6111111,12.7055262 11.6111111,14.0555555 C11.6111111,15.4055849 10.5166961,16.5 9.16666666,16.5 C8.51835968,16.5 7.89660568,16.2424611 7.43818342,15.7840388 C6.97976118,15.3256165 6.72222222,14.7038625 6.72222222,14.0555555 Z M27.1401778,24.7837334 C26.969935,25.101712 26.6384618,25.3001448 26.2777778,25.3 L9.65555554,25.3 C9.24229744,25.2999232 8.87371134,25.0400434 8.73482878,24.6508214 C8.59594622,24.2615992 8.71676042,23.8270912 9.03662222,23.5654222 L19.7921778,14.7654222 C20.0066312,14.5926222 20.2831457,14.5165011 20.5558222,14.5552 C20.8286332,14.5959814 21.0715268,14.7500981 21.2246222,14.9795555 L27.0912888,23.7795554 C27.2916016,24.0796266 27.3103942,24.465623 27.1401778,24.7837334 Z" id="Shape"></path>
            <path d="M8.5,1.83333333 L24.5,1.83333333" id="Line-5"></path>
        </g>
    </g>
</svg>