<?xml version="1.0" encoding="UTF-8"?>
<svg width="28px" height="28px" viewBox="0 0 28 28" version="1.1" xmlns="http://www.w3.org/2000/svg" xmlns:xlink="http://www.w3.org/1999/xlink">
    <!-- Generator: Sketch 54 (76480) - https://sketchapp.com -->
    <title>Download</title>
    <desc>Created with Sketch.</desc>
    <g id="Icons" stroke="none" stroke-width="1" fill="none" fill-rule="evenodd">
        <g id="Download" transform="translate(-2.234284, -2.996258)" stroke="#000000">
            <g id="Stroke-2" transform="translate(15.666666, 16.166666) rotate(180.000000) translate(-15.666666, -16.166666) translate(1.666666, 2.166666)">
                <path d="M16.0377316,19.7636369 L16.0377316,13.563662 L20.2452438,13.563662 L12.9118421,6.10422288 L5.57855426,13.563662 L9.78606642,13.563662 L9.78606642,19.7636369 C9.78606642,23.6710274 13.1723423,26.6666666 17.6007332,26.6666666 L24.367023,26.6666666 C25.6246656,26.6666666 26.6441234,25.647095 26.6441234,24.3895662 L26.6441234,2.27710034 C26.6441234,1.01945782 25.6246656,0 24.367023,0 L2.27710034,0 C1.01957168,0 5.32907052e-15,1.01945782 5.32907052e-15,2.27710034 L5.32907052e-15,24.3669092 C5.32907052e-15,25.6245518 1.01957168,26.6440094 2.27710034,26.6440094 L8.1379012,26.6440094" id="Stroke-1"></path>
            </g>
        </g>
    </g>
</svg>