<?xml version="1.0" encoding="UTF-8"?>
<svg width="28px" height="28px" viewBox="0 0 28 28" version="1.1" xmlns="http://www.w3.org/2000/svg" xmlns:xlink="http://www.w3.org/1999/xlink">
    <!-- Generator: Sketch 54 (76480) - https://sketchapp.com -->
    <title>Duplicate</title>
    <desc>Created with Sketch.</desc>
    <g id="Icons" stroke="none" stroke-width="1" fill="none" fill-rule="evenodd">
        <g id="Duplicate" transform="translate(-0.234284, -0.996258)" stroke="#000000">
            <g id="Group-2" transform="translate(1.000000, 1.500000)">
                <path d="M1.33333333,21.8503896 L20.516883,21.8503896 C21.2532628,21.8503896 21.8502164,21.253436 21.8502164,20.5170562 L21.8502164,1.33333333 C21.8502164,0.596953666 21.2532628,-4.63205486e-14 20.516883,-4.61852778e-14 L1.33333333,-4.61852778e-14 C0.596953666,-4.60500072e-14 -1.86653734e-15,0.596953666 -1.77635684e-15,1.33333333 L-1.77635684e-15,20.5170562 C-1.68617634e-15,21.253436 0.596953666,21.8503896 1.33333333,21.8503896 Z" id="Stroke-1"></path>
                <polyline id="Stroke-3" points="26.5694718 4.71925542 26.5694718 26.569645 4.71925542 26.569645"></polyline>
            </g>
            <g id="Group" transform="translate(7.000000, 7.500000)">
                <path d="M4.87584318,-8.8817842e-15 L4.87584318,9.75172974" id="Stroke-5"></path>
                <path d="M1.9095836e-14,4.87584318 L9.75172974,4.87584318" id="Stroke-6"></path>
            </g>
        </g>
    </g>
</svg>