<?xml version="1.0" encoding="UTF-8"?>
<svg width="28px" height="31px" viewBox="0 0 28 31" version="1.1" xmlns="http://www.w3.org/2000/svg" xmlns:xlink="http://www.w3.org/1999/xlink">
    <!-- Generator: Sketch 54 (76480) - https://sketchapp.com -->
    <title>Email Header</title>
    <desc>Created with Sketch.</desc>
    <g id="Icons" stroke="none" stroke-width="1" fill="none" fill-rule="evenodd">
        <g id="Email-Header" transform="translate(-1.234284, -0.996258)" fill="#000000" fill-rule="nonzero">
            <path d="M20.1444445,31.3088888 L12.7844445,31.3088888 C5.85111112,31.3088888 1.83333333,26.8644444 1.83333333,19.86 C1.83333333,18.7933333 1.94,17.4422222 2.22444445,15.9488889 C3.89555556,7.73555554 9.90444446,1.83333333 18.0466667,1.83333333 C24.5888888,1.83333333 29.2111112,6.02888888 29.2111112,12.7133333 C29.2111112,13.4955555 29.14,14.5622222 28.8911112,15.7355555 C27.8955556,20.5711112 25.3355556,24.3755556 21.2822222,24.3755556 C18.9711111,24.3755556 17.7622222,23.2733334 17.7622222,21.2822222 L17.7622222,20.8555556 L17.62,20.8555556 C16.9088889,22.7755556 15.2022222,24.3755556 13.0333333,24.3755556 C10.3666667,24.3755556 8.41111112,22.4911112 8.41111112,18.8288889 C8.41111112,18.1533333 8.48222222,17.3355555 8.69555554,16.3044445 C9.65555554,11.6111111 12.18,9.08666666 15.4155555,9.08666666 C17.5133333,9.08666666 18.6866667,10.1177778 19.1133333,11.8955555 L19.2555555,11.8955555 L19.7533333,9.40666666 L22.8466666,9.40666666 L20.82,19.5044445 C20.7488888,19.86 20.6777778,20.2866667 20.6777778,20.6777778 C20.6777778,21.46 21.0333334,21.8866666 21.8866666,21.8866666 C23.7711112,21.8866666 25.2644444,19.7533333 26.0466666,15.9844445 L26.3666666,14.4555555 C26.4733334,13.9577778 26.5088888,13.4955555 26.5088888,12.3933333 C26.5088888,7.48666666 23.0955556,4.32222222 17.7622222,4.32222222 C11.4688889,4.32222222 6.52666666,8.76666666 5.21111112,15.4155555 L4.85555554,17.2288889 C4.67777778,18.1888889 4.57111112,19.1133333 4.57111112,19.86 C4.57111112,25.3711112 7.66444446,28.7844446 13.1044445,28.7844446 L20.6422222,28.7844446 L20.1444445,31.3088888 Z M14.1711111,21.7088888 C16.1266667,21.7088888 17.62,20.0733333 17.9755555,18.3311111 L18.7577778,14.42 C19.0066667,13.1044445 17.8688889,11.7888889 15.9488889,11.7888889 C13.9577778,11.7888889 12.6422222,13.1755555 12.2511111,15.1666667 L11.6466667,18.1533333 C11.5755555,18.5088889 11.54,18.7577778 11.54,19.0422222 C11.54,20.7133334 12.5,21.7088888 14.1711111,21.7088888 Z" id="@"></path>
        </g>
    </g>
</svg>