<?xml version="1.0" encoding="UTF-8"?>
<svg width="29px" height="29px" viewBox="0 0 29 29" version="1.1" xmlns="http://www.w3.org/2000/svg" xmlns:xlink="http://www.w3.org/1999/xlink">
    <!-- Generator: Sketch 54 (76480) - https://sketchapp.com -->
    <title>Eyedropper</title>
    <desc>Created with Sketch.</desc>
    <g id="Icons" stroke="none" stroke-width="1" fill="none" fill-rule="evenodd">
        <g id="Eyedropper" transform="translate(-1.234284, -0.996258)" stroke="#000000">
            <path d="M25.7505549,11.0833333 L11.8428883,24.991 C11.3565622,25.4771794 11.0833346,26.1366682 11.0833346,26.8243334 C11.0833346,27.5119986 11.3565622,28.1714874 11.8428883,28.6576666 L11.8428883,28.6576666 C12.3290677,29.1439928 12.9885565,29.4172204 13.6762217,29.4172204 C14.3638869,29.4172204 15.0233757,29.1439928 15.509555,28.6576666 L29.4172217,14.75" id="Path" transform="translate(20.250278, 20.250277) scale(-1, 1) translate(-20.250278, -20.250277) "></path>
            <path d="M3.74999866,3.75 L16.583332,16.5833333" id="Path" transform="translate(10.166665, 10.166667) scale(-1, 1) translate(-10.166665, -10.166667) "></path>
            <path d="M1.91583604,7.41666666 L6.27733605,3.05516666 C7.00660499,2.32567739 7.99583813,1.91583604 9.02733601,1.91583604 C10.0588339,1.91583604 11.0480671,2.32567739 11.777336,3.05516666 L11.777336,3.05516666 C12.5068253,3.78443562 12.9166667,4.77366882 12.9166667,5.80516666 C12.9166667,6.83666452 12.5068253,7.82589774 11.777336,8.55516666 L7.41583605,12.9166667" id="Path" transform="translate(7.416251, 7.416251) scale(-1, 1) translate(-7.416251, -7.416251) "></path>
        </g>
    </g>
</svg>