<?xml version="1.0" encoding="UTF-8"?>
<svg width="28px" height="28px" viewBox="0 0 28 28" version="1.1" xmlns="http://www.w3.org/2000/svg" xmlns:xlink="http://www.w3.org/1999/xlink">
    <!-- Generator: Sketch 54 (76480) - https://sketchapp.com -->
    <title>FB Avatar</title>
    <desc>Created with Sketch.</desc>
    <g id="Icons" stroke="none" stroke-width="1" fill="none" fill-rule="evenodd">
        <g id="FB-Avatar" transform="translate(-0.234284, -0.996258)" stroke="#111111">
            <path d="M3.66666666,28.1666666 L7.90961614,28.1666666 C7.90961614,20.0976147 7.90961614,20.0976147 14.3618217,16.2640012 C20.9854896,20.0976147 20.9854896,20.0976147 20.9854896,28.1666666 L25,28.1666666 C26.4727594,28.1666666 27.6666666,26.9727594 27.6666666,25.5 L27.6666666,4.16666666 C27.6666666,2.69390733 26.4727594,1.5 25,1.5 L3.66666666,1.5 C2.19390733,1.5 1,2.69390733 1,4.16666666 L1,25.5 C1,26.9727594 2.19390733,28.1666666 3.66666666,28.1666666 Z M14.3618217,16.2640012 C11.6210854,15.0622615 11.1642072,13.8605219 11.1642072,12.2009258 C11.1642072,7.85182368 17.5594361,7.96655462 17.5594361,12.2009258 C17.5594361,13.9747192 17.0455813,15.1764588 14.3618217,16.2640012 Z" id="Stroke-1"></path>
        </g>
    </g>
</svg>