<?xml version="1.0" encoding="UTF-8"?>
<svg width="28px" height="28px" viewBox="0 0 28 28" version="1.1" xmlns="http://www.w3.org/2000/svg" xmlns:xlink="http://www.w3.org/1999/xlink">
    <!-- Generator: Sketch 54 (76480) - https://sketchapp.com -->
    <title>FB App</title>
    <desc>Created with Sketch.</desc>
    <g id="Icons" stroke="none" stroke-width="1" fill="none" fill-rule="evenodd">
        <g id="FB-App" transform="translate(-0.234284, -0.996258)" stroke="#111111">
            <path d="M10.4623656,2.36021505 L1.86021505,2.36021505 C1.3851314,2.36021505 1,2.74534645 1,3.22043011 L1,11.8225806 C1,12.2976643 1.3851314,12.6827957 1.86021505,12.6827957 L10.4623656,12.6827957 C10.9374493,12.6827957 11.3225806,12.2976643 11.3225806,11.8225806 L11.3225806,3.22043011 C11.3225806,2.74534645 10.9374493,2.36021505 10.4623656,2.36021505 Z" id="Path"></path>
            <path d="M27.448172,6.99419354 L22.1724732,1.71849462 C22.0327238,1.5784501 21.8430056,1.49974904 21.6451612,1.49974904 C21.447317,1.49974904 21.2575988,1.5784501 21.1178494,1.71849462 L15.8421505,6.99419354 C15.702106,7.13394296 15.623405,7.32366106 15.623405,7.52150538 C15.623405,7.71934968 15.702106,7.90906778 15.8421505,8.0488172 L21.1178494,13.3245161 C21.2575988,13.4645607 21.447317,13.5432617 21.6451612,13.5432617 C21.8430056,13.5432617 22.0327238,13.4645607 22.1724732,13.3245161 L27.448172,8.0488172 C27.5882166,7.90906778 27.6669176,7.71934968 27.6669176,7.52150538 C27.6669176,7.32366106 27.5882166,7.13394296 27.448172,6.99419354 L27.448172,6.99419354 Z" id="Path"></path>
            <path d="M25.9462366,17.844086 L17.344086,17.844086 C16.8690024,17.844086 16.483871,18.2292174 16.483871,18.7043011 L16.483871,27.3064516 C16.483871,27.7815352 16.8690024,28.1666666 17.344086,28.1666666 L25.9462366,28.1666666 C26.4213202,28.1666666 26.8064516,27.7815352 26.8064516,27.3064516 L26.8064516,18.7043011 C26.8064516,18.2292174 26.4213202,17.844086 25.9462366,17.844086 Z" id="Path"></path>
            <path d="M10.4623656,17.844086 L1.86021505,17.844086 C1.3851314,17.844086 1,18.2292174 1,18.7043011 L1,27.3064516 C1,27.7815352 1.3851314,28.1666666 1.86021505,28.1666666 L10.4623656,28.1666666 C10.9374493,28.1666666 11.3225806,27.7815352 11.3225806,27.3064516 L11.3225806,18.7043011 C11.3225806,18.2292174 10.9374493,17.844086 10.4623656,17.844086 Z" id="Path"></path>
        </g>
    </g>
</svg>