<?xml version="1.0" encoding="UTF-8"?>
<svg width="27px" height="27px" viewBox="0 0 27 27" version="1.1" xmlns="http://www.w3.org/2000/svg" xmlns:xlink="http://www.w3.org/1999/xlink">
    <!-- Generator: Sketch 54 (76480) - https://sketchapp.com -->
    <title>Gift</title>
    <desc>Created with Sketch.</desc>
    <g id="Icons" stroke="none" stroke-width="1" fill="none" fill-rule="evenodd">
        <g id="Gift" transform="translate(-1.234284, -0.996258)" stroke="#111111">
            <path d="M5.16666666,5.66666666 C5.16666666,3.825 6.535,2.33333333 8.22166666,2.33333333 C12.7416667,2.33333333 14.3333333,9 14.3333333,9 C14.3333333,9 9.91,9 8.22166666,9 C6.53333334,9 5.16666666,7.50833334 5.16666666,5.66666666 Z" id="color_22_"></path>
            <path d="M23.5,5.66666666 C23.5,3.825 22.1316666,2.33333333 20.445,2.33333333 C15.925,2.33333333 14.3333333,9 14.3333333,9 C14.3333333,9 18.7566667,9 20.445,9 C22.1333334,9 23.5,7.50833334 23.5,5.66666666 Z" id="color_39_"></path>
            <polyline id="Path" points="23.5 17.3333333 23.5 27.3333334 5.16666666 27.3333334 5.16666666 17.3333333"></polyline>
            <rect id="Rectangle" x="1.83333333" y="9" width="25" height="5"></rect>
        </g>
    </g>
</svg>