<?xml version="1.0" encoding="UTF-8"?>
<svg width="11px" height="29px" viewBox="0 0 11 29" version="1.1" xmlns="http://www.w3.org/2000/svg" xmlns:xlink="http://www.w3.org/1999/xlink">
    <!-- Generator: Sketch 54 (76480) - https://sketchapp.com -->
    <title>Info</title>
    <desc>Created with Sketch.</desc>
    <defs>
        <polygon id="path-1" points="1.00004889 1.00024444 10.9068444 1.00024444 10.9068444 29.8520222 1.00004889 29.8520222"></polygon>
    </defs>
    <g id="Icons" stroke="none" stroke-width="1" fill="none" fill-rule="evenodd">
        <g id="Info" transform="translate(-0.234284, -0.996258)">
            <mask id="mask-2" fill="white">
                <use xlink:href="#path-1"></use>
            </mask>
            <g id="path-1"></g>
            <path d="M6.0292489,4.025 C6.0292489,3.79815556 6.0292489,3.53366666 6.1426711,3.15526666 C6.48293778,1.86948889 7.50373778,1.00024444 8.9410711,1.00024444 C10.22636,1.00024444 10.9068933,1.75606667 10.9068933,2.70157777 C10.9068933,2.92842223 10.9068933,3.1929111 10.79396,3.5713111 C10.4532044,4.8570889 9.43240444,5.72682222 7.99556,5.72682222 C6.70978222,5.72682222 6.0292489,4.9705111 6.0292489,4.025 M1.00004889,27.3186 C1.00004889,26.751489 1.18924889,25.994689 1.30267111,25.465711 L4.51662666,12.5707778 L1.15111556,12.5707778 L1.52902667,10.9828667 L9.12978222,9.35682222 L4.66769334,27.0917556 L5.34822666,27.393889 L9.43240444,23.0075778 L10.4908489,23.8020222 L7.99556,26.9783334 C6.18031556,29.284911 4.89453778,29.8520222 3.68453778,29.8520222 C1.79400444,29.8520222 1.00004889,28.603889 1.00004889,27.3186" id="Fill-1" fill="#000000" fill-rule="nonzero" mask="url(#mask-2)"></path>
        </g>
    </g>
</svg>