<?xml version="1.0" encoding="UTF-8"?>
<svg width="28px" height="28px" viewBox="0 0 28 28" version="1.1" xmlns="http://www.w3.org/2000/svg" xmlns:xlink="http://www.w3.org/1999/xlink">
    <!-- Generator: Sketch 54 (76480) - https://sketchapp.com -->
    <title>Instagram</title>
    <desc>Created with Sketch.</desc>
    <g id="Icons" stroke="none" stroke-width="1" fill="none" fill-rule="evenodd">
        <g id="Instagram" transform="translate(-0.234284, -0.996258)" fill="#111111" fill-rule="nonzero">
            <circle id="Oval" cx="21.2416666" cy="7.98666666" r="2.66666666"></circle>
            <path d="M14.3333333,21.5 C10.6566667,21.5 7.66666666,18.51 7.66666666,14.8333333 C7.66666666,11.1566667 10.6566667,8.16666666 14.3333333,8.16666666 C18.01,8.16666666 21,11.1566667 21,14.8333333 C21,18.51 18.01,21.5 14.3333333,21.5 Z M14.3333333,11.5 C12.495,11.5 11,12.995 11,14.8333333 C11,16.6716667 12.495,18.1666667 14.3333333,18.1666667 C16.1716667,18.1666667 17.6666667,16.6716667 17.6666667,14.8333333 C17.6666667,12.995 16.1716667,11.5 14.3333333,11.5 Z" id="Shape"></path>
            <path d="M21,28.1666666 L7.66666666,28.1666666 C4.24,28.1666666 1,24.9266666 1,21.5 L1,8.16666666 C1,4.74 4.24,1.5 7.66666666,1.5 L21,1.5 C24.4266666,1.5 27.6666666,4.74 27.6666666,8.16666666 L27.6666666,21.5 C27.6666666,24.9266666 24.4266666,28.1666666 21,28.1666666 Z M7.66666666,4.83333334 C6.10833334,4.83333334 4.33333334,6.60833334 4.33333334,8.16666666 L4.33333334,21.5 C4.33333334,23.0883334 6.07833334,24.8333334 7.66666666,24.8333334 L21,24.8333334 C22.5583334,24.8333334 24.3333334,23.0583334 24.3333334,21.5 L24.3333334,8.16666666 C24.3333334,6.60833334 22.5583334,4.83333334 21,4.83333334 L7.66666666,4.83333334 Z" id="Shape"></path>
        </g>
    </g>
</svg>