<?xml version="1.0" encoding="UTF-8"?>
<svg width="26px" height="26px" viewBox="0 0 26 26" version="1.1" xmlns="http://www.w3.org/2000/svg" xmlns:xlink="http://www.w3.org/1999/xlink">
    <!-- Generator: Sketch 54 (76480) - https://sketchapp.com -->
    <title>Inviter</title>
    <desc>Created with Sketch.</desc>
    <g id="Icons" stroke="none" stroke-width="1" fill="none" fill-rule="evenodd">
        <g id="Inviter" transform="translate(-0.234284, -0.996258)" stroke="#000000">
            <path d="M13.1102274,14.8523726 C10.6260899,13.7655625 10.2120352,12.6787523 10.2120352,11.1778874 C10.2120352,7.24460608 16.0084196,7.34814368 16.0084196,11.1778874 C16.0084196,12.7821943 15.5426438,13.8690045 13.1102274,14.8523726 Z" id="Stroke-1"></path>
            <path d="M25.1687146,8.35078528 L25.1687146,4.16666666 C25.1687146,2.69390733 23.9748074,1.5 22.502048,1.5 L3.66666666,1.5 C2.19390733,1.5 1,2.69390733 1,4.16666666 L1,22.950327 C1,24.4230864 2.19390733,25.6169936 3.66666666,25.6169936 L7.26216022,25.6169936 C7.26216022,18.587401 7.26216022,18.3296505 12.4902758,15.2203034" id="Stroke-3"></path>
            <path d="M21.4064544,26.521394 L21.4064544,17.2218443" id="Stroke-5"></path>
            <path d="M26.021394,21.906323 L16.7218443,21.906323" id="Stroke-7"></path>
        </g>
    </g>
</svg>