<?xml version="1.0" encoding="UTF-8"?>
<svg width="33px" height="31px" viewBox="0 0 33 31" version="1.1" xmlns="http://www.w3.org/2000/svg" xmlns:xlink="http://www.w3.org/1999/xlink">
    <!-- Generator: Sketch 54 (76480) - https://sketchapp.com -->
    <title>Language</title>
    <desc>Created with Sketch.</desc>
    <g id="Icons" stroke="none" stroke-width="1" fill="none" fill-rule="evenodd">
        <g id="Language" transform="translate(0.765716, -0.996258)">
            <path d="M17.2619048,8.81746032 L17.2619048,4.30990476 C17.2619048,2.94213214 16.153106,1.83333333 14.7853333,1.83333333 L2.97657142,1.83333333 C1.6087988,1.83333333 0.5,2.94213214 0.5,4.30990476 L0.5,14.7218413 C0.5,16.0896139 1.6087988,17.1984127 2.97657142,17.1984127 L3.2936508,17.1984127 L3.2936508,19.9920635 L7.48412698,17.1984127 L10.2777778,17.1984127" id="Path" stroke="#111111" stroke-linecap="square"></path>
            <path d="M28.836,13.0079365 L16.8624127,13.0079365 C15.4951166,13.0557348 14.4243038,14.2008923 14.468254,15.5683175 L14.468254,25.812635 C14.4243038,27.18006 15.4951166,28.3252176 16.8624127,28.3730158 L24.2460318,28.3730158 L28.436508,31.1666666 L28.436508,28.3730158 L28.836,28.3730158 C30.203296,28.3252176 31.274109,27.18006 31.2301586,25.812635 L31.2301586,15.5683175 C31.274109,14.2008923 30.203296,13.0557348 28.836,13.0079365 Z" id="Path" stroke="#111111" stroke-linecap="square"></path>
            <path d="M13.4723175,7.57847618 C13.0420952,7.53936506 12.6607619,7.51980952 12.0754921,7.51980952 C11.9368047,8.17551222 11.7132946,8.81035586 11.4106032,9.40831746 C11.1210618,9.98234296 10.7560482,10.5150655 10.3252698,10.9923175 C11.3573833,11.5964311 12.4951168,11.9984303 13.6776508,12.1768254 C13.2588845,12.7196327 12.9318862,13.3273871 12.7096508,13.9759365 C11.377234,13.5999309 10.1194389,12.9974934 8.9913016,12.1949841 C7.80656512,13.0143861 6.48971706,13.6239068 5.0983492,13.9968889 C4.88834878,13.3691534 4.57020346,12.7829719 4.1582857,12.2648254 C5.3816551,12.0429717 6.55683786,11.6090145 7.63079366,10.9825397 C7.1369436,10.442316 6.71444674,9.84096216 6.3736508,9.19320634 C6.09079192,8.65959382 5.86466664,8.0977919 5.69898414,7.51701586 C5.12209522,7.51701586 4.78825398,7.53657144 4.30215872,7.57568254 L4.30215872,5.8073016 C4.77346328,5.85795426 5.24734174,5.88080864 5.72133334,5.87574602 L7.8752381,5.87574602 L7.8752381,5.28907936 C7.8772259,5.08549704 7.85755976,4.88228048 7.81657144,4.68285714 L9.7833016,4.68285714 C9.74395342,4.87922534 9.72430048,5.07903018 9.72463494,5.2793016 L9.72463494,5.87574602 L12.0531429,5.87574602 C12.5271386,5.88103024 13.0010301,5.85817522 13.4723175,5.8073016 L13.4723175,7.57847618 Z M7.57212698,7.51980952 C7.82491586,8.41272462 8.29581096,9.22875078 8.9424127,9.8944127 C9.5376575,9.21458816 9.9572956,8.39929128 10.1646349,7.51980952 L7.57212698,7.51980952 Z" id="Shape" fill="#111111" fill-rule="nonzero"></path>
            <path d="M24.7614604,24.812508 L24.3186666,23.1363174 L21.403492,23.1363174 L20.9495238,24.812508 L18.2857778,24.812508 L21.2135238,15.8015873 L24.4485714,15.8015873 L27.412635,24.812508 L24.7614604,24.812508 Z M23.8158096,21.1416508 L23.4288888,19.6693968 C23.3357672,19.3416085 23.2263492,18.9179048 23.100635,18.3982857 C22.9749206,17.8786667 22.8901798,17.5061799 22.8464126,17.2808254 C22.8086984,17.4889524 22.7360634,17.8395555 22.628508,18.3116825 C22.5209524,18.7838095 22.2793016,19.7336508 21.9063492,21.1416508 L23.8158096,21.1416508 Z" id="Shape" fill="#111111" fill-rule="nonzero"></path>
        </g>
    </g>
</svg>