<?xml version="1.0" encoding="UTF-8"?>
<svg width="27px" height="27px" viewBox="0 0 27 27" version="1.1" xmlns="http://www.w3.org/2000/svg" xmlns:xlink="http://www.w3.org/1999/xlink">
    <!-- Generator: Sketch 54 (76480) - https://sketchapp.com -->
    <title>Lesson Plan</title>
    <desc>Created with Sketch.</desc>
    <g id="Icons" stroke="none" stroke-width="1" fill="none" fill-rule="evenodd">
        <g id="Lesson-Plan" transform="translate(-1.234284, -0.996258)" stroke="#111111">
            <polyline id="Path" points="21.8333334 5.66666666 21.8333334 15.6666667 17.6666667 12.3333333 13.5 15.6666667 13.5 5.66666666"></polyline>
            <path d="M1.83333333,24.8333333 L1.83333333,5.66666666 C1.83333333,3.825 3.325,2.33333333 5.16666666,2.33333333 L23.5,2.33333333 C25.3416666,2.33333333 26.8333334,3.825 26.8333334,5.66666666 L26.8333333,24.8333333" id="Path"></path>
            <path d="M4.33333333,22.3333334 L24.3333333,22.3333334 C25.7133334,22.3333334 26.8333334,23.4533334 26.8333333,24.8333334 L26.8333333,24.8333334 C26.8333334,26.2133334 25.7133334,27.3333334 24.3333333,27.3333334 L4.33333333,27.3333334 C2.95333333,27.3333334 1.83333333,26.2133334 1.83333333,24.8333334 L1.83333333,24.8333334 C1.83333333,23.4533334 2.95333333,22.3333334 4.33333333,22.3333334 Z" id="Path"></path>
        </g>
    </g>
</svg>