<?xml version="1.0" encoding="UTF-8"?>
<svg width="27px" height="26px" viewBox="0 0 27 26" version="1.1" xmlns="http://www.w3.org/2000/svg" xmlns:xlink="http://www.w3.org/1999/xlink">
    <!-- Generator: Sketch 54 (76480) - https://sketchapp.com -->
    <title>LinkedIn</title>
    <desc>Created with Sketch.</desc>
    <g id="Icons" stroke="none" stroke-width="1" fill="none" fill-rule="evenodd">
        <g id="LinkedIn" transform="translate(-0.234284, -0.996258)" fill="#111111" fill-rule="nonzero">
            <path d="M25,1.5 L2.09803922,1.5 C1.47058823,1.5 1,1.97058823 1,2.59803922 L1,25.6568628 C1,26.127451 1.47058823,26.5980392 2.09803922,26.5980392 L25.1568628,26.5980392 C25.7843138,26.5980392 26.254902,26.127451 26.254902,25.5 L26.254902,2.59803922 C26.0980392,1.97058823 25.627451,1.5 25,1.5 Z M8.37254902,22.8333334 L4.7647059,22.8333334 L4.7647059,10.9117647 L8.52941176,10.9117647 L8.52941176,22.8333334 L8.37254902,22.8333334 Z M6.64705882,9.34313726 C5.39215686,9.34313726 4.4509804,8.24509802 4.4509804,7.14705882 C4.4509804,5.89215686 5.39215686,4.9509804 6.64705882,4.9509804 C7.90196078,4.9509804 8.84313726,5.89215686 8.84313726,7.14705882 C8.6862745,8.24509802 7.74509802,9.34313726 6.64705882,9.34313726 Z M22.3333334,22.8333334 L18.5686274,22.8333334 L18.5686274,17.0294118 C18.5686274,15.6176471 18.5686274,13.8921569 16.6862745,13.8921569 C14.8039216,13.8921569 14.4901961,15.4607843 14.4901961,17.0294118 L14.4901961,22.990196 L10.7254902,22.990196 L10.7254902,10.9117647 L14.3333333,10.9117647 L14.3333333,12.4803922 L14.3333333,12.4803922 C14.8039216,11.5392157 16.0588235,10.5980392 17.7843137,10.5980392 C21.5490196,10.5980392 22.1764706,13.1078431 22.1764706,16.245098 L22.1764706,22.8333334 L22.3333334,22.8333334 Z" id="Shape"></path>
        </g>
    </g>
</svg>