<?xml version="1.0" encoding="UTF-8"?>
<svg width="28px" height="30px" viewBox="0 0 28 30" version="1.1" xmlns="http://www.w3.org/2000/svg" xmlns:xlink="http://www.w3.org/1999/xlink">
    <!-- Generator: Sketch 54 (76480) - https://sketchapp.com -->
    <title>Membership</title>
    <desc>Created with Sketch.</desc>
    <g id="Icons" stroke="none" stroke-width="1" fill="none" fill-rule="evenodd">
        <g id="Membership" transform="translate(-0.234284, 0.003742)" stroke="#111111">
            <path d="M10.8001333,4.21515744 C10.8001333,5.8818241 11.2534667,7.0818241 14.0001333,8.2818241 C16.6801333,7.18849078 17.1868,5.98849078 17.1868,4.21515744 C17.1868,-0.011509216 10.8001333,-0.131509216 10.8001333,4.21515744 Z" id="Stroke-1"></path>
            <path d="M10.1998667,10.6682241 C11.1065333,10.0015574 12.3465333,9.2682241 13.9998667,8.28155744 C15.6798667,9.25489078 16.9332,9.9882241 17.8798667,10.6682241" id="Stroke-3"></path>
            <path d="M7.45506666,17.8726241 C4.71373334,16.6712908 4.25773334,15.4686241 4.25773334,13.8086241 C4.25773334,9.45929078 10.6524,9.57395744 10.6524,13.8086241 C10.6524,15.5832908 10.1390667,16.7859574 7.45506666,17.8726241 Z" id="Stroke-5"></path>
            <path d="M20.5305333,17.8726241 C17.7905333,16.6712908 17.3332,15.4686241 17.3332,13.8086241 C17.3332,9.45929078 23.7278666,9.57395744 23.7278666,13.8086241 C23.7278666,15.5832908 23.2145334,16.7859574 20.5305333,17.8726241 Z" id="Stroke-7"></path>
            <path d="M1,29.775024 C1,21.7083574 1,21.7083574 7.45333334,17.8683574 C12.6533333,20.8816908 13.7733333,21.5350242 14.0133333,25.5883574 L14.1466667,25.5883574 C14.3733333,21.5350242 15.4666667,20.8816908 20.5333333,17.8683574 C27.16,21.7083574 27.16,21.7083574 27.16,29.775024" id="Stroke-9"></path>
        </g>
    </g>
</svg>