<?xml version="1.0" encoding="UTF-8"?>
<svg width="30px" height="26px" viewBox="0 0 30 26" version="1.1" xmlns="http://www.w3.org/2000/svg" xmlns:xlink="http://www.w3.org/1999/xlink">
    <!-- Generator: Sketch 54 (76480) - https://sketchapp.com -->
    <title>Mind Map</title>
    <desc>Created with Sketch.</desc>
    <g id="Icons" stroke="none" stroke-width="1" fill="none" fill-rule="evenodd">
        <g id="Mind-Map" transform="translate(-1.234284, -1.996258)" stroke="#111111">
            <path d="M13.4142857,5.30952382 C13.3979725,3.92777882 12.39514,2.75573575 11.0325455,2.52590618 C9.66995106,2.2960766 8.33815978,3.07433739 7.86952382,4.3742857 C5.45601672,4.287864 3.25159574,5.73655744 2.37333059,7.98625422 C1.49506543,10.235951 2.13488689,12.7950159 3.96857144,14.3666667 C2.72143576,15.0407404 1.95616347,16.3558188 1.98626812,17.773146 C2.01637278,19.1904732 2.83679538,20.4718707 4.11142856,21.092381 C3.5733761,22.878923 4.13051182,24.8150262 5.5358356,26.0423396 C6.94115936,27.2696532 8.93463974,27.5610834 10.6324885,26.7874278 C12.3303372,26.0137722 13.418396,24.3181828 13.4142857,22.452381 L13.4142857,5.30952382 Z" id="Path"></path>
            <path d="M19.1285714,5.30952382 C19.1448847,3.92777882 20.1477171,2.75573575 21.5103116,2.52590618 C22.872906,2.2960766 24.2046974,3.07433739 24.6733334,4.3742857 C27.0868404,4.287864 29.2912614,5.73655744 30.1695266,7.98625422 C31.0477918,10.235951 30.4079702,12.7950159 28.5742856,14.3666667 C29.8214214,15.0407404 30.5866936,16.3558188 30.556589,17.773146 C30.5264842,19.1904732 29.7060618,20.4718707 28.4314286,21.092381 C28.969481,22.878923 28.4123454,24.8150262 27.0070216,26.0423396 C25.6016978,27.2696532 23.6082174,27.5610834 21.9103686,26.7874278 C20.2125199,26.0137722 19.1244611,24.3181828 19.1285714,22.452381 L19.1285714,5.30952382 Z" id="Path"></path>
        </g>
    </g>
</svg>