<?xml version="1.0" encoding="UTF-8"?>
<svg width="34px" height="33px" viewBox="0 0 34 33" version="1.1" xmlns="http://www.w3.org/2000/svg" xmlns:xlink="http://www.w3.org/1999/xlink">
    <!-- Generator: Sketch 54 (76480) - https://sketchapp.com -->
    <title>My Design</title>
    <desc>Created with Sketch.</desc>
    <g id="Icons" stroke="none" stroke-width="1" fill="none" fill-rule="evenodd">
        <g id="My-Design" transform="translate(0.765716, 0.003742)" stroke="#000000">
            <path d="M14.7889864,3.65983808 L1.83335612,3.65983808 C1.09697645,3.65983808 0.50002278,4.25679174 0.50002278,4.99317142 L0.50002278,31.0331408 C0.50002278,31.7695204 1.09697645,32.3664742 1.83335612,32.3664742 L27.8700626,32.3664742 C28.6064422,32.3664742 29.203396,31.7695204 29.203396,31.0331408 C29.203396,31.0324334 29.2033954,31.031726 29.2033942,31.0310186 L29.1827394,18.0535912" id="Stroke-1"></path>
            <path d="M0.5,8.61302858 L14.7894192,8.53300318" id="Stroke-4"></path>
            <g id="Group" transform="translate(17.833334, 0.500000)">
                <path d="M14.8667352,1.19482844 L6.45283076,10.9016254 C6.33095598,10.391346 6.06670414,9.91979308 5.67374338,9.52683234 C5.2773656,9.13159358 4.80239568,8.8662027 4.30008934,8.73293776 L13.6719068,2.66453526e-14 L14.8667352,1.19482844 Z" id="Stroke-6" fill="#000000" fill-rule="nonzero"></path>
                <path d="M5.3365717,14.1820161 L0.664325494,18.8542623 C0.883016686,18.6014005 1.55845355,17.3188679 0.411463802,14.5191649 C-0.9041004,11.3151112 1.35570859,9.52685512 1.35570859,9.52685512 C2.1575763,8.72498742 3.28406374,8.46073556 4.30006656,8.73296054 C4.8023729,8.86622548 5.27734282,9.13161636 5.67372062,9.52685512 C6.06668134,9.91981586 6.3309332,10.3913687 6.45280798,10.9016482 C6.70566968,11.9449874 6.36738174,13.151206 5.3365717,14.1820161 Z" id="Stroke-8" stroke-linejoin="round"></path>
            </g>
        </g>
    </g>
</svg>