<?xml version="1.0" encoding="UTF-8"?>
<svg width="26px" height="28px" viewBox="0 0 26 28" version="1.1" xmlns="http://www.w3.org/2000/svg" xmlns:xlink="http://www.w3.org/1999/xlink">
    <!-- Generator: Sketch 54 (76480) - https://sketchapp.com -->
    <title>Notif</title>
    <desc>Created with Sketch.</desc>
    <g id="Icons" stroke="none" stroke-width="1" fill="none" fill-rule="evenodd">
        <g id="Notif" transform="translate(-0.234284, -0.996258)" stroke="#000000">
            <path d="M25.3972678,25.4540984 L1.5,25.4540984 C1.5,23.9019672 2.38721311,22.5579234 3.68360656,21.9021858 L3.68360656,14.2101639 C3.68360656,9.46480874 7.0715847,5.51071038 11.5587978,4.63005464 L11.5587978,3.39071039 C11.5587978,2.34568306 12.404918,1.5 13.4497268,1.5 C14.4923497,1.5 15.3404372,2.34568306 15.3404372,3.39071039 L15.3404372,4.63005464 C19.8278688,5.51071038 23.2136612,9.46480874 23.2136612,14.2101639 L23.2136612,21.9021858 C23.5918034,22.0921312 23.9349726,22.34153 24.2322404,22.6385792 C24.9513662,23.3601094 25.3972678,24.3546448 25.3972678,25.4540984 Z" id="Stroke-1"></path>
            <path d="M11.5588852,26.166 L15.340306,26.166 C15.340306,27.208623 14.4922186,28.0564918 13.4495956,28.0564918 C12.9271913,28.0564918 12.4550601,27.8446886 12.1118907,27.501519 C11.7709071,27.1605354 11.5588852,26.6884044 11.5588852,26.166 Z" id="Stroke-3"></path>
        </g>
    </g>
</svg>