<?xml version="1.0" encoding="UTF-8"?>
<svg width="28px" height="28px" viewBox="0 0 28 28" version="1.1" xmlns="http://www.w3.org/2000/svg" xmlns:xlink="http://www.w3.org/1999/xlink">
    <!-- Generator: Sketch 54 (76480) - https://sketchapp.com -->
    <title>Pinterest</title>
    <desc>Created with Sketch.</desc>
    <g id="Icons" stroke="none" stroke-width="1" fill="none" fill-rule="evenodd">
        <g id="Pinterest" transform="translate(-0.234284, -0.996258)" fill="#111111" fill-rule="nonzero">
            <path d="M14.3333333,1.5 C7,1.5 1,7.5 1,14.8333333 C1,20.5 4.5,25.3333334 9.5,27.1666666 C9.33333334,26.1666666 9.33333334,24.5 9.5,23.3333334 C9.66666666,22.3333334 11,16.6666667 11,16.6666667 C11,16.6666667 10.6666667,16 10.6666667,14.8333333 C10.6666667,13 11.8333333,11.5 13.1666667,11.5 C14.3333333,11.5 14.8333333,12.3333333 14.8333333,13.3333333 C14.8333333,14.5 14.1666667,16.1666667 13.6666667,17.8333333 C13.3333333,19.1666667 14.3333333,20.1666667 15.6666667,20.1666667 C18,20.1666667 19.8333333,17.6666667 19.8333333,14 C19.8333333,10.8333333 17.5,8.5 14.3333333,8.5 C10.5,8.5 8.33333334,11.3333333 8.33333334,14.3333333 C8.33333334,15.5 8.83333334,16.6666667 9.33333334,17.3333333 C9.33333334,17.6666667 9.33333334,17.8333333 9.33333334,18 C9.16666666,18.5 9,19.3333333 9,19.5 C9,19.6666667 8.83333334,19.8333333 8.5,19.6666667 C6.83333334,18.8333333 5.83333334,16.5 5.83333334,14.5 C5.83333334,10.3333333 8.83333334,6.5 14.6666667,6.5 C19.3333333,6.5 22.8333334,9.83333334 22.8333334,14.1666667 C22.8333334,18.8333333 20,22.5 15.8333333,22.5 C14.5,22.5 13.1666667,21.8333334 12.8333333,21 C12.8333333,21 12.1666667,23.5 12,24.1666666 C11.6666667,25.3333334 10.8333333,26.8333334 10.3333333,27.6666666 C11.6666667,28 13,28.1666666 14.3333333,28.1666666 C21.6666666,28.1666666 27.6666666,22.1666666 27.6666666,14.8333333 C27.6666666,7.5 21.6666666,1.5 14.3333333,1.5 Z" id="Path"></path>
        </g>
    </g>
</svg>