<?xml version="1.0" encoding="UTF-8"?>
<svg width="38px" height="20px" viewBox="0 0 38 20" version="1.1" xmlns="http://www.w3.org/2000/svg" xmlns:xlink="http://www.w3.org/1999/xlink">
    <!-- Generator: Sketch 54 (76480) - https://sketchapp.com -->
    <title>Regular</title>
    <desc>Created with Sketch.</desc>
    <g id="Icons" stroke="none" stroke-width="1" fill="none" fill-rule="evenodd">
        <g id="Regular" transform="translate(-1.234284, 0.003742)" fill="#000000" fill-rule="nonzero">
            <path d="M19.1212121,19.3454547 L16.9030303,19.3454547 C14.830303,19.3454547 13.7393939,18.0363637 13.4848485,16.1818182 L13.3030303,16.1818182 C12.5757576,18.5454547 10.5393939,19.7818183 7.77575756,19.7818183 C3.8848485,19.7818183 1.66666667,17.5636363 1.66666667,14.1454545 C1.66666667,10.4 4.46666666,8.47272726 9.73939394,8.47272726 L13.1575758,8.47272726 L13.1575758,6.87272726 C13.1575758,4.58181816 11.9212121,3.23636364 9.26666666,3.23636364 C7.04848484,3.23636364 5.7030303,4.32727274 4.75757576,5.81818184 L2.3939394,3.67272726 C3.63030304,1.56363637 5.84848484,0 9.52121214,0 C14.3939394,0 17.1212121,2.4 17.1212121,6.61818184 L17.1212121,16.1090909 L19.1212121,16.1090909 L19.1212121,19.3454547 Z M8.9030303,16.7636363 C11.3393939,16.7636363 13.1575758,15.6 13.1575758,13.7454545 L13.1575758,11.0181818 L9.8121212,11.0181818 C7.04848484,11.0181818 5.7030303,11.9272727 5.7030303,13.5636364 L5.7030303,14.2181818 C5.7030303,15.8909091 6.93939394,16.7636363 8.9030303,16.7636363 Z M30.430303,19.7818183 C25.0484848,19.7818183 21.739394,15.9272727 21.739394,9.8909091 C21.739394,3.85454546 25.0484848,0 30.430303,0 C35.9939394,0 38.830303,4.18181816 38.830303,9.41818184 L38.830303,10.9090909 L25.8484848,10.9090909 L25.8484848,11.5272727 C25.8484848,14.4363636 27.630303,16.5090909 30.830303,16.5090909 C33.1575756,16.5090909 34.721212,15.4181818 35.8121214,13.6727273 L38.139394,15.9636364 C36.721212,18.2545453 33.9575756,19.7818183 30.430303,19.7818183 Z M30.430303,3.0909091 C27.7030304,3.0909091 25.8484848,5.12727274 25.8484848,8.03636364 L25.8484848,8.2909091 L34.648485,8.2909091 L34.648485,7.92727274 C34.648485,5.01818184 33.048485,3.0909091 30.430303,3.0909091 Z" id="ae"></path>
        </g>
    </g>
</svg>