<?xml version="1.0" encoding="UTF-8"?>
<svg width="25px" height="31px" viewBox="0 0 25 31" version="1.1" xmlns="http://www.w3.org/2000/svg" xmlns:xlink="http://www.w3.org/1999/xlink">
    <!-- Generator: Sketch 54 (76480) - https://sketchapp.com -->
    <title>Remove</title>
    <desc>Created with Sketch.</desc>
    <g id="Icons" stroke="none" stroke-width="1" fill="none" fill-rule="evenodd">
        <g id="Remove" transform="translate(-0.234284, 0.003742)" stroke="#000000">
            <path d="M4.8016425,30.1930434 L21.2760387,30.1930434 C22.0124182,30.1930434 22.609372,29.5960898 22.609372,28.8597102 L22.609372,9.15594202 L3.46830917,9.15594202 L3.46830917,28.8597102 C3.46830917,29.5960898 4.06526284,30.1930434 4.8016425,30.1930434 Z" id="Stroke-1"></path>
            <polygon id="Stroke-3" points="9.18830918 4.82608696 16.8872464 4.82608696 16.8872464 1 9.18830918 1"></polygon>
            <path d="M1.5,9.15594202 L24.5755556,9.15594202 L24.5755556,6.41236714 C24.5755556,5.67598748 23.9786018,5.07903382 23.2422222,5.07903382 L2.83333333,5.07903382 C2.09695367,5.07903382 1.5,5.67598748 1.5,6.41236714 L1.5,9.15594202 Z" id="Stroke-4"></path>
            <path d="M8.16666666,13.8079227 L8.16666666,24.4745894" id="Stroke-6"></path>
            <path d="M12.9771768,13.8079227 L12.9771768,24.4745894" id="Stroke-7"></path>
            <path d="M17.7666667,13.8079227 L17.7666667,24.4745894" id="Stroke-8"></path>
        </g>
    </g>
</svg>