<?xml version="1.0" encoding="UTF-8"?>
<svg width="26px" height="25px" viewBox="0 0 26 25" version="1.1" xmlns="http://www.w3.org/2000/svg" xmlns:xlink="http://www.w3.org/1999/xlink">
    <!-- Generator: Sketch 54 (76480) - https://sketchapp.com -->
    <title>Resize</title>
    <desc>Created with Sketch.</desc>
    <g id="Icons" stroke="none" stroke-width="1" fill="none" fill-rule="evenodd">
        <g id="Resize" transform="translate(-0.234284, -0.996258)" stroke="#000000">
            <g id="Group-2" transform="translate(17.029412, 1.500000)">
                <polyline id="Stroke-1" points="8.23897058 7.89973234 8.23897058 2.64705882e-05 0.339264706 2.64705882e-05"></polyline>
                <path d="M8.23897058,0 L8.8817842e-16,8.23897058" id="Stroke-3"></path>
            </g>
            <g id="Group-4" transform="translate(1.500000, 17.029412)">
                <polyline id="Stroke-5" points="-1.33226763e-15 0.33915 -1.33226763e-15 8.23885588 7.89970588 8.23885588"></polyline>
                <path d="M4.4408921e-16,8.23888234 L8.23888234,-5.32907052e-15" id="Stroke-7"></path>
            </g>
            <g id="Group" transform="translate(1.500000, 1.500000)">
                <polyline id="Stroke-9" points="-1.33226763e-15 7.89973234 -1.33226763e-15 2.64705882e-05 7.89970588 2.64705882e-05"></polyline>
                <path d="M4.4408921e-16,0 L8.23888234,8.23897058" id="Stroke-11"></path>
            </g>
            <g id="Group-3" transform="translate(17.029412, 17.029412)">
                <polyline id="Stroke-13" points="8.23897058 0.33915 8.23897058 8.23885588 0.339264706 8.23885588"></polyline>
                <path d="M8.23897058,8.23888234 L8.8817842e-16,-5.32907052e-15" id="Stroke-15"></path>
            </g>
        </g>
    </g>
</svg>