<?xml version="1.0" encoding="UTF-8"?>
<svg width="28px" height="28px" viewBox="0 0 28 28" version="1.1" xmlns="http://www.w3.org/2000/svg" xmlns:xlink="http://www.w3.org/1999/xlink">
    <!-- Generator: Sketch 54 (76480) - https://sketchapp.com -->
    <title>Save</title>
    <desc>Created with Sketch.</desc>
    <g id="Icons" stroke="none" stroke-width="1" fill="none" fill-rule="evenodd">
        <g id="Save" transform="translate(-0.234284, -0.996258)" stroke="#000000">
            <path d="M27.0869566,9.28723186 L27.0869566,26.2538986 C27.0869566,26.9902782 26.4900028,27.5872318 25.7536232,27.5872318 L2.33333333,27.5872318 C1.59695367,27.5872318 1,26.9902782 1,26.2538986 L1,2.83360869 C1,2.09722903 1.59695367,1.50027536 2.33333333,1.50027536 L19.3013044,1.50027536 L27.0869566,9.28723186 Z" id="Stroke-1"></path>
            <polygon id="Stroke-3" points="7.2624348 5.5 15.2624348 5.5 15.2624348 1.5 7.2624348 1.5"></polygon>
            <path d="M13.9816377,21.0074637 L13.9816377,21.0074637 C11.4538116,21.0074637 9.4046812,18.9583333 9.4046812,16.4305072 C9.4046812,13.9028261 11.4538116,11.8535507 13.9816377,11.8535507 C16.5093188,11.8535507 18.5585943,13.9028261 18.5585943,16.4305072 C18.5585943,18.9583333 16.5093188,21.0074637 13.9816377,21.0074637 Z" id="Stroke-5"></path>
        </g>
    </g>
</svg>