<?xml version="1.0" encoding="UTF-8"?>
<svg width="27px" height="31px" viewBox="0 0 27 31" version="1.1" xmlns="http://www.w3.org/2000/svg" xmlns:xlink="http://www.w3.org/1999/xlink">
    <!-- Generator: Sketch 54 (76480) - https://sketchapp.com -->
    <title>Settings</title>
    <desc>Created with Sketch.</desc>
    <g id="Icons" stroke="none" stroke-width="1" fill="none" fill-rule="evenodd">
        <g id="Settings" transform="translate(-0.234284, 0.003742)" stroke="#000000">
            <g id="Group-3" transform="translate(0.999988, 0.616900)">
                <path d="M-1.88737914e-15,3.7671579 L2.53157894,3.7671579" id="Stroke-1"></path>
                <path d="M12.2934971,3.7671579 L25.3131462,3.7671579" id="Stroke-3"></path>
                <path d="M7.46008186,-1.77635684e-14 L7.46008186,-1.77635684e-14 C5.38405848,-1.77635684e-14 3.7011345,1.68292397 3.7011345,3.75894738 C3.7011345,5.83497076 5.38405848,7.51789474 7.46008186,7.51789474 C9.53610526,7.51789474 11.2190292,5.83497076 11.2190292,3.75894738 C11.2190292,1.68292397 9.53610526,-1.77635684e-14 7.46008186,-1.77635684e-14 Z" id="Stroke-5"></path>
            </g>
            <g id="Group-2" transform="translate(1.064116, 22.257322)">
                <path d="M3.19744231e-14,3.76709942 L2.6025497,3.76709942" id="Stroke-7"></path>
                <path d="M10.1204444,3.76709942 L25.248959,3.76709942" id="Stroke-9"></path>
                <path d="M6.36149708,-1.95399252e-14 L6.36149708,-1.95399252e-14 C4.28547368,-1.95399252e-14 2.6025497,1.68292397 2.6025497,3.75894738 C2.6025497,5.83497076 4.28547368,7.51789474 6.36149708,7.51789474 C8.43752046,7.51789474 10.1204444,5.83497076 10.1204444,3.75894738 C10.1204444,1.68292397 8.43752046,-1.95399252e-14 6.36149708,-1.95399252e-14 Z" id="Stroke-11"></path>
            </g>
            <path d="M0.999988,15.2042684 L15.6666664,15.2042684" id="Stroke-13"></path>
            <path d="M23.184561,15.1666661 L26.3131694,15.2042684" id="Stroke-15"></path>
            <path d="M19.4256137,11.4371105 L19.4256137,11.4371105 C17.3495904,11.4371105 15.6666664,13.1200345 15.6666664,15.1960579 C15.6666664,17.2720813 17.3495904,18.9550052 19.4256137,18.9550052 C21.501637,18.9550052 23.184561,17.2720813 23.184561,15.1960579 C23.184561,13.1200345 21.501637,11.4371105 19.4256137,11.4371105 Z" id="Stroke-17"></path>
        </g>
    </g>
</svg>