<?xml version="1.0" encoding="UTF-8"?>
<svg width="28px" height="28px" viewBox="0 0 28 28" version="1.1" xmlns="http://www.w3.org/2000/svg" xmlns:xlink="http://www.w3.org/1999/xlink">
    <!-- Generator: Sketch 54 (76480) - https://sketchapp.com -->
    <title>Shortcuts</title>
    <desc>Created with Sketch.</desc>
    <g id="Icons" stroke="none" stroke-width="1" fill="none" fill-rule="evenodd">
        <g id="Shortcuts" transform="translate(-0.234284, 0.003742)" stroke="#000000">
            <polygon id="Stroke-1" points="8.41866666 19.8012699 19.5470476 19.8012699 19.5470476 8.6728889 8.41866666 8.6728889"></polygon>
            <g id="Group-10" transform="translate(1.000000, 1.061206)">
                <path d="M7.41879366,7.61158094 L3.7095873,7.61158094 C1.6608254,7.61158094 0.000126984127,5.95088254 0.000126984127,3.9023746 C0.000126984127,1.85361269 1.6608254,0.192914285 3.7095873,0.192914285 C5.75809524,0.192914285 7.41879366,1.85361269 7.41879366,3.9023746 L7.41879366,7.61158094 Z" id="Stroke-2"></path>
                <path d="M18.5471492,7.61158094 L22.2563556,7.61158094 C24.3051174,7.61158094 25.9658158,5.95088254 25.9658158,3.9023746 C25.9658158,1.85361269 24.3051174,0.192914285 22.2563556,0.192914285 C20.2078476,0.192914285 18.5471492,1.85361269 18.5471492,3.9023746 L18.5471492,7.61158094 Z" id="Stroke-4"></path>
                <path d="M7.41879366,18.7399111 L3.7095873,18.7399111 C1.6608254,18.7399111 0.000126984127,20.4006094 0.000126984127,22.4491174 C0.000126984127,24.4978794 1.6608254,26.1588318 3.7095873,26.1588318 C5.75809524,26.1588318 7.41879366,24.4978794 7.41879366,22.4491174 L7.41879366,18.7399111 Z" id="Stroke-6"></path>
                <path d="M18.5471492,18.7399111 L22.2563556,18.7399111 C24.3051174,18.7399111 25.9658158,20.4006094 25.9658158,22.4491174 C25.9658158,24.4978794 24.3051174,26.1588318 22.2563556,26.1588318 C20.2078476,26.1588318 18.5471492,24.4978794 18.5471492,22.4491174 L18.5471492,18.7399111 Z" id="Stroke-8"></path>
            </g>
        </g>
    </g>
</svg>