<?xml version="1.0" encoding="UTF-8"?>
<svg width="29px" height="27px" viewBox="0 0 29 27" version="1.1" xmlns="http://www.w3.org/2000/svg" xmlns:xlink="http://www.w3.org/1999/xlink">
    <!-- Generator: Sketch 54 (76480) - https://sketchapp.com -->
    <title>Snapchat</title>
    <desc>Created with Sketch.</desc>
    <g id="Icons" stroke="none" stroke-width="1" fill="none" fill-rule="evenodd">
        <g id="Snapchat" transform="translate(-0.234284, -0.996258)" fill="#020202" fill-rule="nonzero">
            <path d="M7.75799134,5.94405798 C7.06233918,7.50231886 7.33712178,10.2942029 7.44842614,12.2466667 C6.69712178,12.6628986 5.7324841,11.9324638 5.18639714,11.9324638 C4.6182812,11.9324638 3.94002032,12.3057971 3.83335366,12.8623189 C3.75683192,13.2634783 3.93654206,13.8478261 5.22581744,14.3568116 C5.72436816,14.553913 6.91045512,14.7857971 7.1852377,15.4327536 C7.57132466,16.3417391 5.20262902,20.5376811 1.48320873,21.1498551 C1.19219424,21.1973913 0.984658008,21.4571014 1.00088989,21.7515942 C1.06581743,22.882029 3.60031018,23.3249276 4.72378846,23.4988406 C4.83857104,23.654203 4.93132466,24.3104348 5.07857104,24.810145 C5.144658,25.033913 5.3150928,25.3017392 5.75335366,25.3017392 C6.32494786,25.3017392 7.2745131,24.8611594 8.92784642,25.1347826 C10.548716,25.4049276 12.0721942,27.7028986 14.9974116,27.7028986 C17.7162522,27.7028986 19.3382812,25.3944928 20.8988609,25.1347826 C21.8020494,24.9852174 22.5777014,25.0327536 23.4449478,25.202029 C24.0420494,25.3191304 24.5777014,25.384058 24.7481362,24.7973914 C24.8977014,24.2907246 24.9892956,23.6472464 25.1017594,23.4953624 C26.214803,23.3226086 28.7608898,22.8808696 28.8246582,21.7504348 C28.8408898,21.455942 28.6333536,21.1973913 28.3423392,21.1486957 C24.6855276,20.5457971 22.2449478,16.3626087 22.6403102,15.4315942 C22.9139334,14.7857971 24.0919044,14.5562319 24.5997304,14.3556522 C25.5434986,13.9834783 26.016542,13.5255073 26.0061072,12.9956522 C25.9933536,12.3173913 25.1771218,11.9127536 24.576542,11.9127536 C23.9655276,11.9127536 23.0878464,12.6362319 22.3771218,12.2443478 C22.4884262,10.2756522 22.7620494,7.49652174 22.0675566,5.9394203 C20.7516145,2.99101449 17.8240783,1.5 14.8977015,1.5 C11.9898754,1.5 9.08436816,2.97014493 7.75799134,5.94405798 Z" id="Path"></path>
        </g>
    </g>
</svg>