<?xml version="1.0" encoding="UTF-8"?>
<svg width="36px" height="17px" viewBox="0 0 36 17" version="1.1" xmlns="http://www.w3.org/2000/svg" xmlns:xlink="http://www.w3.org/1999/xlink">
    <!-- Generator: Sketch 54 (76480) - https://sketchapp.com -->
    <title>Soundcloud</title>
    <desc>Created with Sketch.</desc>
    <g id="Icons" stroke="none" stroke-width="1" fill="none" fill-rule="evenodd">
        <g id="Soundcloud" transform="translate(-1.234284, 0.003742)" fill="#111111" fill-rule="nonzero">
            <path d="M2.26890756,9.1764706 C2.26890756,9.1764706 2.26890756,8.9579832 2.26890756,9.1764706 C2.05042016,8.9579832 2.05042016,9.1764706 2.05042016,9.1764706 C2.05042016,9.1764706 1.61344538,12.4537815 1.61344538,12.4537815 L2.05042016,15.7310924 C2.05042016,15.7310924 2.05042016,15.9495798 2.26890756,15.9495798 C2.26890756,15.9495798 2.48739498,15.9495798 2.48739498,15.7310924 L2.92436974,12.4537815 L2.26890756,9.1764706 Z" id="Path"></path>
            <path d="M6.63865546,6.11764706 C6.42016807,6.11764706 6.20168068,6.33613446 6.20168068,6.55462186 L5.98319328,12.4537815 L6.20168068,16.3865546 C6.20168068,16.605042 6.42016806,16.605042 6.42016806,16.605042 C6.63865546,16.605042 6.63865546,16.3865546 6.63865546,16.3865546 L6.63865546,16.3865546 L6.85714286,12.4537815 L6.85714286,6.55462186 C6.85714286,6.33613446 6.63865546,6.11764706 6.63865546,6.11764706 Z" id="Path"></path>
            <path d="M15.3781513,16.605042 C15.5966387,16.605042 15.8151261,16.3865546 15.8151261,16.1680672 L15.8151261,16.1680672 L15.8151261,16.1680672 L16.0336135,12.4537815 L15.8151261,3.27731092 C15.8151261,3.05882354 15.5966387,2.84033614 15.3781513,2.84033614 C15.1596639,2.84033614 14.9411765,3.05882354 14.9411765,3.27731092 L14.7226891,12.4537815 C14.7226891,12.4537815 14.9411765,16.1680672 14.9411765,16.1680672 C14.9411765,16.3865546 15.1596639,16.605042 15.3781513,16.605042 Z" id="Path"></path>
            <path d="M11.0084034,16.605042 C11.2268907,16.605042 11.4453781,16.3865546 11.4453781,16.1680672 L11.4453781,16.1680672 L11.6638655,12.4537815 L11.4453781,4.36974788 C11.4453781,4.15126052 11.2268907,3.93277312 11.0084034,3.93277312 C10.789916,3.93277312 10.5714286,4.15126052 10.5714286,4.36974788 L10.3529412,12.4537815 L10.5714286,16.1680672 C10.5714286,16.3865546 10.789916,16.605042 11.0084034,16.605042 Z" id="Path"></path>
            <path d="M32.2016806,7.64705882 C31.5462186,7.64705882 31.1092438,7.86554622 30.4537814,8.0840336 C30.0168068,3.93277312 26.7394958,0.87394958 22.5882352,0.87394958 C21.4957984,0.87394958 20.6218488,1.09243697 19.7478992,1.31092437 C19.3109244,1.52941177 19.3109244,1.74789916 19.3109244,1.96638655 L19.3109244,16.1680672 C19.3109244,16.3865546 19.5294118,16.605042 19.7478992,16.605042 C19.7478992,16.605042 31.9831932,16.605042 31.9831932,16.605042 C34.3865546,16.605042 36.3529412,14.6386555 36.3529412,12.2352941 C36.3529412,9.83193278 34.605042,7.64705882 32.2016806,7.64705882 Z" id="Path"></path>
        </g>
    </g>
</svg>