<?xml version="1.0" encoding="UTF-8"?>
<svg width="32px" height="26px" viewBox="0 0 32 26" version="1.1" xmlns="http://www.w3.org/2000/svg" xmlns:xlink="http://www.w3.org/1999/xlink">
    <!-- Generator: Sketch 54 (76480) - https://sketchapp.com -->
    <title>Support</title>
    <desc>Created with Sketch.</desc>
    <g id="Icons" stroke="none" stroke-width="1" fill="none" fill-rule="evenodd">
        <g id="Support" transform="translate(-0.234284, -0.996258)" stroke="#000000">
            <path d="M25.3457254,2.83333333 L25.3457254,17.1286595 C25.3457254,17.8650392 24.7487718,18.4619928 24.0123922,18.4619928 L17.2461176,18.4619928 L9.18980386,26.8333334 L9.18980386,18.4619928 L2.33333333,18.4619928 C1.59695367,18.4619928 1,17.8650392 1,17.1286595 L1,2.83333333 C1,2.09695367 1.59695367,1.5 2.33333333,1.5 L24.0123922,1.5 C24.7487718,1.5 25.3457254,2.09695367 25.3457254,2.83333333 Z" id="Stroke-3"></path>
            <path d="M7.74642134,9.65551134 L18.5851651,9.65551134" id="Stroke-7"></path>
            <path d="M31.5701124,9.65551134 L31.5701124,23.631151 C31.5701124,24.3675306 30.9731588,24.9644842 30.236779,24.9644842 L18.5851651,24.9644842" id="Path-2"></path>
        </g>
    </g>
</svg>