<?xml version="1.0" encoding="UTF-8"?>
<svg width="28px" height="30px" viewBox="0 0 28 30" version="1.1" xmlns="http://www.w3.org/2000/svg" xmlns:xlink="http://www.w3.org/1999/xlink">
    <!-- Generator: Sketch 54 (76480) - https://sketchapp.com -->
    <title>Team</title>
    <desc>Created with Sketch.</desc>
    <g id="Icons" stroke="none" stroke-width="1" fill="none" fill-rule="evenodd">
        <g id="Team" transform="translate(-1.234284, -0.996258)" stroke="#000000">
            <path d="M11.8004,5.21533346 C11.8004,6.88200012 12.2537333,8.08200012 15.0004,9.28200012 C17.6804,8.18866678 18.1870667,6.98866678 18.1870667,5.21533346 C18.1870667,0.988666783 11.8004,0.868666783 11.8004,5.21533346 Z" id="Stroke-1"></path>
            <path d="M11.2001333,11.6684001 C12.1068,11.0017335 13.3468,10.2684001 15.0001333,9.28173346 C16.6801333,10.2550668 17.9334667,10.9884001 18.8801333,11.6684001" id="Stroke-3"></path>
            <path d="M8.45533334,18.8728001 C5.714,17.6714668 5.258,16.4688001 5.258,14.8088001 C5.258,10.4594668 11.6526667,10.5741335 11.6526667,14.8088001 C11.6526667,16.5834668 11.1393333,17.7861335 8.45533334,18.8728001 Z" id="Stroke-5"></path>
            <path d="M21.5308,18.8728001 C18.7908,17.6714668 18.3334667,16.4688001 18.3334667,14.8088001 C18.3334667,10.4594668 24.7281334,10.5741335 24.7281334,14.8088001 C24.7281334,16.5834668 24.2148,17.7861335 21.5308,18.8728001 Z" id="Stroke-7"></path>
            <path d="M2.00026667,30.7752002 C2.00026667,22.7085334 2.00026667,22.7085334 8.4536,18.8685335 C13.6536,21.8818668 14.7736,22.5352002 15.0136,26.5885334 L15.1469333,26.5885334 C15.3736,22.5352002 16.4669333,21.8818668 21.5336,18.8685335 C28.1602666,22.7085334 28.1602666,22.7085334 28.1602666,30.7752002" id="Stroke-9"></path>
        </g>
    </g>
</svg>