<?xml version="1.0" encoding="UTF-8"?>
<svg width="37px" height="23px" viewBox="0 0 37 23" version="1.1" xmlns="http://www.w3.org/2000/svg" xmlns:xlink="http://www.w3.org/1999/xlink">
    <!-- Generator: Sketch 54 (76480) - https://sketchapp.com -->
    <title>Text</title>
    <desc>Created with Sketch.</desc>
    <g id="Icons" stroke="none" stroke-width="1" fill="none" fill-rule="evenodd">
        <g id="Text" transform="translate(-0.234284, -0.996258)" fill="#000000" fill-rule="nonzero">
            <path d="M8.20835088,1.5 L0.666666666,23.2547368 L3.72035088,23.2547368 L5.80835088,17.1151579 L14.2866667,17.1151579 L16.3430877,23.2547368 L19.5224561,23.2547368 L12.0110877,1.5 L8.20835088,1.5 Z M9.9540351,4.27452632 L10.1094035,4.27452632 L13.537614,14.4347368 L6.52582456,14.4347368 L9.9540351,4.27452632 Z" id="Fill-1"></path>
            <path d="M31.5540982,18.5170737 L31.5540982,16.0242316 L28.4682034,16.0242316 C25.8193614,16.0242316 24.635151,16.8339157 24.635151,18.3301263 L24.635151,18.9534948 C24.635151,20.4497052 25.7877824,21.2909684 27.5953614,21.2909684 C29.8709404,21.2909684 31.5540982,20.1377052 31.5540982,18.5170737 L31.5540982,18.5170737 Z M34.608414,23.2545474 C32.8317824,23.2545474 31.9898878,22.1328632 31.771993,20.5741263 L31.6166246,20.5741263 C30.9623088,22.5692842 29.2475718,23.6284422 26.9410456,23.6284422 C23.5753614,23.6284422 21.6117824,21.7583368 21.6117824,18.7974948 C21.6117824,15.6812843 23.8867298,13.9981263 28.4997824,13.9981263 L31.5540982,13.9981263 L31.5540982,12.5328632 C31.5540982,10.3829684 30.400835,9.16717894 27.9698878,9.16717894 C26.0682034,9.16717894 24.8536772,10.1025474 24.0117824,11.4737053 L22.2660982,9.88402106 C23.232414,8.13896842 25.1334666,6.73623158 28.1252562,6.73623158 C32.1458878,6.73623158 34.452414,8.79328422 34.452414,12.2840211 L34.452414,20.7926527 L36.259993,20.7926527 L36.259993,23.2545474 L34.608414,23.2545474 Z" id="Fill-2"></path>
        </g>
    </g>
</svg>