<?xml version="1.0" encoding="UTF-8"?>
<svg width="28px" height="28px" viewBox="0 0 28 28" version="1.1" xmlns="http://www.w3.org/2000/svg" xmlns:xlink="http://www.w3.org/1999/xlink">
    <!-- Generator: Sketch 54 (76480) - https://sketchapp.com -->
    <title>Transaction</title>
    <desc>Created with Sketch.</desc>
    <g id="Icons" stroke="none" stroke-width="1" fill="none" fill-rule="evenodd">
        <g id="Transaction" transform="translate(-0.234284, -0.996258)" stroke="#111111">
            <path d="M16.7575758,1.5 L16.7575758,1.5 C18.3698112,1.48396317 19.9206853,2.11733845 21.0607644,3.25741747 C22.2008434,4.39749648 22.8342186,5.94837062 22.8181818,7.56060606 L22.8181818,7.56060606" id="Path"></path>
            <path d="M5.84848486,22.1060606 L5.84848486,22.1060606 C5.83244802,23.718296 6.4658233,25.2691702 7.60590232,26.4092492 C8.74598134,27.5493282 10.2968555,28.1827034 11.9090909,28.1666666 L11.9090909,28.1666666" id="Path"></path>
            <path d="M10.6969697,17.2575758 L2.21212121,17.2575758 C1.54268515,17.2575758 1,16.7148906 1,16.0454545 L1,2.71212121 C1,2.04268515 1.54268515,1.5 2.21212121,1.5 L10.6969697,1.5 C11.3664058,1.5 11.9090909,2.04268515 11.9090909,2.71212121 L11.9090909,16.0454545 C11.9090909,16.7148906 11.3664058,17.2575758 10.6969697,17.2575758 Z" id="Path"></path>
            <path d="M1,12.4090909 L11.9090909,12.4090909" id="Path"></path>
            <path d="M26.4545454,28.1666666 L17.969697,28.1666666 C17.3002609,28.1666666 16.7575758,27.6239816 16.7575758,26.9545454 L16.7575758,13.6212121 C16.7575758,12.9517761 17.3002609,12.4090909 17.969697,12.4090909 L26.4545454,12.4090909 C27.1239816,12.4090909 27.6666666,12.9517761 27.6666666,13.6212121 L27.6666666,26.9545454 C27.6666666,27.6239816 27.1239816,28.1666666 26.4545454,28.1666666 Z" id="Path"></path>
            <path d="M16.7575758,23.3181818 L27.6666666,23.3181818" id="Path"></path>
        </g>
    </g>
</svg>