<?xml version="1.0" encoding="UTF-8"?>
<svg width="28px" height="26px" viewBox="0 0 28 26" version="1.1" xmlns="http://www.w3.org/2000/svg" xmlns:xlink="http://www.w3.org/1999/xlink">
    <!-- Generator: Sketch 54 (76480) - https://sketchapp.com -->
    <title>Transparency</title>
    <desc>Created with Sketch.</desc>
    <g id="Icons" stroke="none" stroke-width="1" fill="none" fill-rule="evenodd">
        <g id="Transparency" transform="translate(-0.234284, -0.996258)" stroke="#111111">
            <path d="M19.5621622,20.8405405 C17.9981982,24.136036 14.6396396,26.4136936 10.7495495,26.4136936 C5.36576576,26.4136936 1,22.0477478 1,16.6621622 C1,11.8801802 4.44504504,7.90180182 8.98738738,7.07297296 C8.38558558,8.33963962 8.04864864,9.75585586 8.04864864,11.2495495 C8.04864864,16.6351351 12.4144144,21.0010811 17.8,21.0010811 C18.4018018,21.0010811 18.990991,20.9468469 19.5621622,20.8405405 Z" id="Stroke-1"></path>
            <path d="M20.5009008,16.6621802 C20.5009008,18.1576757 20.163964,19.5756937 19.5621622,20.8405587 C18.990991,20.9468648 18.4018018,21.0010992 17.8,21.0010992 C12.4144144,21.0010992 8.04864864,16.6351531 8.04864864,11.2495676 C8.04864864,9.75587386 8.38558558,8.33965766 8.98738738,7.07299098 C9.55855856,6.9666847 10.1477478,6.91263064 10.7495495,6.91263064 C16.1351351,6.91263064 20.5009008,11.2783964 20.5009008,16.6621802 Z" id="Stroke-3"></path>
            <path d="M27.5495674,11.2495495 C27.5495674,16.0333333 24.1045224,20.0117117 19.5621802,20.8405405 C20.1639819,19.5756757 20.5009189,18.1576577 20.5009189,16.6621622 C20.5009189,11.2783784 16.1351531,6.91261262 10.7495676,6.91261262 C10.1477658,6.91261262 9.55857658,6.96666666 8.98740542,7.07297296 C10.5513694,3.77927928 13.9099279,1.5 17.800018,1.5 C23.1838018,1.5 27.5495674,5.86576576 27.5495674,11.2495495 Z" id="Stroke-5"></path>
        </g>
    </g>
</svg>