<?xml version="1.0" encoding="UTF-8"?>
<svg width="31px" height="26px" viewBox="0 0 31 26" version="1.1" xmlns="http://www.w3.org/2000/svg" xmlns:xlink="http://www.w3.org/1999/xlink">
    <!-- Generator: Sketch 54 (76480) - https://sketchapp.com -->
    <title>Twitter</title>
    <desc>Created with Sketch.</desc>
    <g id="Icons" stroke="none" stroke-width="1" fill="none" fill-rule="evenodd">
        <g id="Twitter" transform="translate(-0.234284, -1.996258)" fill="#111111" fill-rule="nonzero">
            <path d="M30.9761904,5.30952382 C29.8333334,5.88095238 28.6904762,6.07142856 27.357143,6.26190478 C28.6904762,5.5 29.642857,4.35714286 30.0238096,2.83333333 C28.8809522,3.5952381 27.547619,3.97619048 26.0238096,4.35714286 C24.8809524,3.21428571 23.1666666,2.45238095 21.452381,2.45238095 C18.2142857,2.45238095 15.3571429,5.30952382 15.3571429,8.73809522 C15.3571429,9.30952382 15.3571429,9.69047618 15.547619,10.0714286 C10.4047619,9.88095238 5.64285714,7.4047619 2.5952381,3.5952381 C2.02380952,4.54761904 1.83333333,5.5 1.83333333,6.83333334 C1.83333333,8.92857144 2.97619048,10.8333333 4.69047618,11.9761905 C3.73809522,11.9761905 2.78571428,11.5952381 1.83333333,11.2142857 C1.83333333,11.2142857 1.83333333,11.2142857 1.83333333,11.2142857 C1.83333333,14.2619048 3.92857144,16.7380952 6.7857143,17.3095238 C6.2142857,17.5 5.64285714,17.5 5.07142856,17.5 C4.69047618,17.5 4.30952382,17.5 3.92857144,17.3095238 C4.69047618,19.7857143 6.97619048,21.6904762 9.83333334,21.6904762 C7.73809522,23.4047618 5.07142856,24.3571428 2.02380952,24.3571428 C1.45238095,24.3571428 1.07142857,24.3571428 0.5,24.3571428 C3.35714286,26.0714286 6.5952381,27.2142858 10.0238095,27.2142858 C21.452381,27.2142858 27.7380952,17.6904762 27.7380952,9.5 C27.7380952,9.30952382 27.7380952,8.92857144 27.7380952,8.73809522 C29.0714286,7.7857143 30.2142856,6.64285714 30.9761904,5.30952382 Z" id="Path"></path>
        </g>
    </g>
</svg>