<?xml version="1.0" encoding="UTF-8"?>
<svg width="28px" height="28px" viewBox="0 0 28 28" version="1.1" xmlns="http://www.w3.org/2000/svg" xmlns:xlink="http://www.w3.org/1999/xlink">
    <!-- Generator: Sketch 54 (76480) - https://sketchapp.com -->
    <title>User</title>
    <desc>Created with Sketch.</desc>
    <g id="Icons" stroke="none" stroke-width="1" fill="none" fill-rule="evenodd">
        <g id="User" transform="translate(-0.234284, -0.996258)" stroke="#000000">
            <path d="M2.33333333,28.1666666 L7.90961614,28.1666666 C7.90961614,20.0976147 7.90961614,20.0976147 14.3618216,16.2640012 C20.9854896,20.0976147 20.9854896,20.0976147 20.9854896,28.1666666 L26.3333334,28.1666666 C27.069713,28.1666666 27.6666666,27.569713 27.6666666,26.8333334 L27.6666666,2.83333333 C27.6666666,2.09695367 27.069713,1.5 26.3333334,1.5 L2.33333333,1.5 C1.59695367,1.5 1,2.09695367 1,2.83333333 L1,26.8333334 C1,27.569713 1.59695367,28.1666666 2.33333333,28.1666666 Z M14.3618216,16.2640012 C11.6210853,15.0622615 11.1642072,13.8605219 11.1642072,12.2009259 C11.1642072,7.8518237 17.5594361,7.9665546 17.5594361,12.2009259 C17.5594361,13.9747192 17.0455813,15.1764588 14.3618216,16.2640012 Z" id="Stroke-1"></path>
        </g>
    </g>
</svg>