<?xml version="1.0" encoding="UTF-8"?>
<svg width="34px" height="34px" viewBox="0 0 34 34" version="1.1" xmlns="http://www.w3.org/2000/svg" xmlns:xlink="http://www.w3.org/1999/xlink">
    <!-- Generator: Sketch 54 (76480) - https://sketchapp.com -->
    <title>Wedding Invitation</title>
    <desc>Created with Sketch.</desc>
    <g id="Icons" stroke="none" stroke-width="1" fill="none" fill-rule="evenodd">
        <g id="Wedding-Invitation" transform="translate(0.765716, 0.003742)" stroke="#111111">
            <circle id="Oval" cx="16.5" cy="16.5" r="2.9090909"></circle>
            <path d="M32.5,16.5 C32.5,14.6288145 29.4310254,13.0374691 26.3566254,12.4172655 C28.091971,9.80487272 29.1369018,6.5094109 27.8137454,5.1862691 C26.490589,3.86312728 23.195229,4.90804362 20.582749,6.6433891 C19.9625309,3.56897454 18.3711855,0.5 16.5,0.5 C14.6288145,0.5 13.0374691,3.56897454 12.4172655,6.64337454 C9.8047709,4.9080291 6.5094109,3.86309818 5.18625454,5.18625454 C3.86309818,6.5094109 4.9080291,9.80485818 6.64337454,12.4172655 C3.56897454,13.0374691 0.5,14.6288145 0.5,16.5 C0.5,18.3711855 3.56897454,19.9625309 6.64328728,20.5827346 C4.90794182,23.1952146 3.86318546,26.490589 5.18625454,27.8136438 C6.5094109,29.1368 9.8047709,28.091971 12.4172509,26.356611 C13.0374691,29.4310254 14.6288145,32.5 16.5,32.5 C18.3711855,32.5 19.9625309,29.4310254 20.5827346,26.3566254 C23.1952146,28.091971 26.490589,29.1368146 27.813731,27.8136582 C29.1368,26.490589 28.0920582,23.195229 26.3566982,20.582749 C29.4310254,19.9625309 32.5,18.3711855 32.5,16.5 Z" id="Path"></path>
        </g>
    </g>
</svg>