<?xml version="1.0" encoding="UTF-8"?>
<svg width="33px" height="25px" viewBox="0 0 33 25" version="1.1" xmlns="http://www.w3.org/2000/svg" xmlns:xlink="http://www.w3.org/1999/xlink">
    <!-- Generator: Sketch 54 (76480) - https://sketchapp.com -->
    <title>Youtube</title>
    <desc>Created with Sketch.</desc>
    <g id="Icons" stroke="none" stroke-width="1" fill="none" fill-rule="evenodd">
        <g id="Youtube" transform="translate(-0.234284, -0.996258)" fill="#111111" fill-rule="nonzero">
            <path d="M32.1,7.1 C31.7,4.5 30.5,2.7 27.7,2.3 C23.3,1.5 16.5,1.5 16.5,1.5 C16.5,1.5 9.7,1.5 5.3,2.3 C2.5,2.7 1.1,4.5 0.9,7.1 C0.5,9.7 0.5,13.5 0.5,13.5 C0.5,13.5 0.5,17.3 0.9,19.9 C1.3,22.5 2.5,24.3 5.3,24.7 C9.7,25.5 16.5,25.5 16.5,25.5 C16.5,25.5 23.3,25.5 27.7,24.7 C30.5,24.1 31.7,22.5 32.1,19.9 C32.5,17.3 32.5,13.5 32.5,13.5 C32.5,13.5 32.5,9.7 32.1,7.1 Z M12.5,19.5 L12.5,7.5 L22.5,13.5 L12.5,19.5 Z" id="Shape"></path>
        </g>
    </g>
</svg>