<svg width="18" height="18" viewBox="0 0 18 18" fill="none" xmlns="http://www.w3.org/2000/svg">
<path d="M17.2355 7.35444H16.5596V7.31999H8.99961V10.68H13.7476C13.0536 12.6356 11.1931 14.04 8.99961 14.04C6.21547 14.04 3.95961 11.7841 3.95961 8.99999C3.95961 6.21585 6.21547 3.95999 8.99961 3.95999C10.2842 3.95999 11.454 4.44398 12.3432 5.2364L14.7188 2.86077C13.2193 1.46296 11.2128 0.599991 8.99961 0.599991C4.35992 0.599991 0.599609 4.3603 0.599609 8.99999C0.599609 13.6397 4.35992 17.4 8.99961 17.4C13.6393 17.4 17.3996 13.6397 17.3996 8.99999C17.3996 8.43726 17.3422 7.88765 17.2355 7.35444Z" fill="#FFC107"/>
<path d="M1.56738 5.09038L4.32855 7.11491C5.07504 5.26593 6.88301 3.95999 8.99941 3.95999C10.284 3.95999 11.4538 4.44398 12.343 5.2364L14.7186 2.86077C13.2191 1.46296 11.2126 0.599991 8.99941 0.599991C5.7723 0.599991 2.97504 2.42109 1.56738 5.09038Z" fill="#FF3D00"/>
<path d="M8.99848 17.4C11.1674 17.4 13.1394 16.5699 14.6307 15.2196L12.0303 13.0196C11.1871 13.6578 10.1387 14.04 8.99848 14.04C6.81316 14.04 4.95926 12.6471 4.26035 10.703L1.52051 12.8128C2.91012 15.533 5.73363 17.4 8.99848 17.4Z" fill="#4CAF50"/>
<path d="M17.2359 7.35455H16.56V7.3201H9V10.6801H13.748C13.4149 11.6202 12.8095 12.429 12.0302 13.0196C12.0319 13.0196 12.0319 13.0196 12.0319 13.0196L14.6323 15.2197C14.4485 15.3854 17.4 13.2001 17.4 9.0001C17.4 8.43736 17.3426 7.88776 17.2359 7.35455Z" fill="#1976D2"/>
</svg>
