<svg width="18" height="18" viewBox="0 0 18 18" fill="none" xmlns="http://www.w3.org/2000/svg">
<path d="M17.0733 7H15.3893C15.1187 7 14.8957 6.851 14.792 6.601C14.6883 6.351 14.741 6.08767 14.932 5.89633L16.1227 4.706C16.2977 4.531 16.394 4.298 16.394 4.05067C16.394 3.803 16.2977 3.57033 16.1227 3.395L14.605 1.87733C14.255 1.52733 13.6447 1.52667 13.294 1.87733L12.1037 3.06767C11.9453 3.226 11.7713 3.259 11.653 3.259C11.4863 3.259 11.3207 3.19367 11.1983 3.07933C11.108 2.99467 11 2.84467 11 2.61067V0.926667C11 0.415667 10.5843 0 10.0733 0H7.92667C7.41567 0 7 0.415667 7 0.926667V2.61067C7 3.01667 6.66767 3.259 6.34633 3.259C6.22833 3.259 6.05433 3.22567 5.896 3.06767L4.70567 1.87733C4.355 1.52667 3.74467 1.52733 3.39467 1.87733L1.877 3.395C1.702 3.57 1.60567 3.803 1.60567 4.05067C1.60567 4.298 1.702 4.53067 1.877 4.706L3.06767 5.89633C3.25867 6.08767 3.311 6.351 3.20767 6.601C3.10433 6.851 2.88133 7 2.61067 7H0.926667C0.415667 7 0 7.41567 0 7.92667V10.0727C0 10.584 0.415667 11 0.926667 11H2.61067C2.88133 11 3.10433 11.149 3.208 11.399C3.31167 11.649 3.259 11.9123 3.068 12.1037L1.87733 13.294C1.70233 13.469 1.606 13.702 1.606 13.9493C1.606 14.197 1.70233 14.4297 1.87733 14.605L3.395 16.1227C3.74533 16.473 4.35533 16.4737 4.706 16.1227L5.89633 14.9323C6.05467 14.774 6.22867 14.741 6.347 14.741C6.668 14.741 7.00033 14.9837 7.00033 15.3893V17.073C7 17.584 7.41567 18 7.92667 18H10.073C10.584 18 10.9997 17.584 10.9997 17.073V15.3893C10.9997 14.9833 11.332 14.741 11.653 14.741C11.771 14.741 11.9453 14.7743 12.1037 14.9323L13.294 16.1227C13.6447 16.4733 14.255 16.4727 14.605 16.1227L16.1227 14.605C16.2977 14.43 16.394 14.197 16.394 13.9493C16.394 13.702 16.2977 13.4693 16.1227 13.294L14.932 12.1037C14.741 11.9123 14.6887 11.649 14.792 11.399C14.8953 11.149 15.1187 11 15.3893 11H17.0733C17.5843 11 18 10.584 18 10.073V7.92667C18 7.41567 17.5843 7 17.0733 7ZM11.3333 9C11.3333 10.2863 10.2863 11.3333 9 11.3333C7.71367 11.3333 6.66667 10.2863 6.66667 9C6.66667 7.71367 7.71367 6.66667 9 6.66667C10.2863 6.66667 11.3333 7.71367 11.3333 9Z" fill="#535461"/>
</svg>
