<svg width="16" height="17" viewBox="0 0 16 17" fill="none" xmlns="http://www.w3.org/2000/svg">
<g clip-path="url(#clip0)">
<path d="M13.8705 1.5078H2.12936C1.07111 1.5078 0.207031 2.37056 0.207031 3.43441V10.8976C0.207031 11.9582 1.06787 12.8242 2.12936 12.8242H7.56303V14.6633H4.85429C4.61157 14.6633 4.41739 14.8579 4.41739 15.1011C4.41739 15.3444 4.61157 15.539 4.85429 15.539H11.1456C11.3883 15.539 11.5825 15.3444 11.5825 15.1011C11.5825 14.8579 11.3883 14.6633 11.1456 14.6633H8.43682V12.8242H13.8705C14.9287 12.8242 15.7928 11.9615 15.7928 10.8976V3.43441C15.7928 2.37056 14.932 1.5078 13.8705 1.5078ZM2.12936 2.38353H13.8737C14.4498 2.38353 14.9223 2.85383 14.9223 3.43441V9.67158H1.08082V3.43441C1.08082 2.85383 1.55008 2.38353 2.12936 2.38353ZM13.8705 11.9485H2.12936C1.55331 11.9485 1.08082 11.4782 1.08082 10.8976V10.5473H14.919V10.8976C14.919 11.4749 14.4498 11.9485 13.8705 11.9485Z" fill="white" stroke="white" stroke-width="0.5"/>
</g>
<defs>
<clipPath id="clip0">
<rect width="16" height="16.0356" fill="white" transform="translate(0 0.505569)"/>
</clipPath>
</defs>
</svg>
