<svg width="32" height="32" viewBox="0 0 32 32" fill="none" xmlns="http://www.w3.org/2000/svg">
<path d="M30.2337 0H1.76625C1.29781 0 0.848559 0.186087 0.517323 0.517323C0.186087 0.848559 0 1.29781 0 1.76625L0 30.2337C0 30.7022 0.186087 31.1514 0.517323 31.4827C0.848559 31.8139 1.29781 32 1.76625 32H17.0938V19.625H12.9375V14.7812H17.0938V11.2188C17.0938 7.08563 19.6181 4.835 23.305 4.835C25.0706 4.835 26.5888 4.96688 27.0312 5.0225V9.34375H24.4806C22.4806 9.34375 22.0938 10.2962 22.0938 11.695V14.7812H26.89L26.265 19.625H22.0938V32H30.2337C30.7022 32 31.1514 31.8139 31.4827 31.4827C31.8139 31.1514 32 30.7022 32 30.2337V1.76625C32 1.29781 31.8139 0.848559 31.4827 0.517323C31.1514 0.186087 30.7022 0 30.2337 0V0Z" fill="white"/>
</svg>
