<svg width="16" height="16" viewBox="0 0 16 16" fill="none" xmlns="http://www.w3.org/2000/svg">
<g clip-path="url(#clip0)">
<path d="M15.8583 13.4962L8.90735 1.4549C8.50445 0.757181 7.49554 0.757181 7.09264 1.4549L0.141683 13.4962C-0.261223 14.1939 0.243229 15.0685 1.04904 15.0685H14.9509C15.7568 15.0685 16.2612 14.1939 15.8583 13.4962ZM8.00982 5.16295C8.45531 5.16295 8.81563 5.53309 8.80253 5.97858L8.6715 10.5514C8.66168 10.9117 8.36687 11.1967 8.00655 11.1967C7.64622 11.1967 7.35141 10.9085 7.34159 10.5514L7.21384 5.97858C7.20401 5.53309 7.56106 5.16295 8.00982 5.16295ZM7.99999 13.434C7.54468 13.434 7.17453 13.0638 7.17453 12.6085C7.17453 12.1532 7.54468 11.7831 7.99999 11.7831C8.45531 11.7831 8.82546 12.1532 8.82546 12.6085C8.82546 13.0638 8.45531 13.434 7.99999 13.434Z" fill="#BF4A03"/>
</g>
<defs>
<clipPath id="clip0">
<rect width="16" height="16" fill="white"/>
</clipPath>
</defs>
</svg>
