<svg width="17" height="18" viewBox="0 0 17 18" fill="none" xmlns="http://www.w3.org/2000/svg">
    <path fill-rule="evenodd" clip-rule="evenodd" d="M15.5695 3.55919C16.1552 2.9734 16.1552 2.02365 15.5694 1.43787C14.9837 0.852085 14.0339 0.852092 13.4481 1.43788L8.00737 6.87871L2.56661 1.43788C1.98083 0.852092 1.03108 0.852086 0.445294 1.43787C-0.140496 2.02365 -0.140503 2.9734 0.44528 3.55919L5.88604 9.00002L0.445192 14.4409C-0.14059 15.0267 -0.140584 15.9765 0.445206 16.5623C1.031 17.148 1.98074 17.148 2.56653 16.5622L8.00728 11.1214L13.448 16.5622C14.0338 17.148 14.9836 17.148 15.5694 16.5623C16.1551 15.9765 16.1552 15.0267 15.5694 14.4409L10.1286 9.0001L15.5695 3.55919Z" fill="#fff" />
</svg>
