<svg width="16" height="16" viewBox="0 0 16 16" fill="none" xmlns="http://www.w3.org/2000/svg">
<path d="M12.9498 10.0502C12.1873 9.28784 11.2799 8.72343 10.2897 8.38177C11.3502 7.65139 12.0469 6.42905 12.0469 5.04688C12.0469 2.81543 10.2314 1 8 1C5.76856 1 3.95312 2.81543 3.95312 5.04688C3.95312 6.42905 4.64982 7.65139 5.71029 8.38177C4.72017 8.72343 3.81269 9.28784 3.05026 10.0502C1.72814 11.3724 1 13.1302 1 15H2.09375C2.09375 11.7433 4.74328 9.09375 8 9.09375C11.2567 9.09375 13.9062 11.7433 13.9062 15H15C15 13.1302 14.2719 11.3724 12.9498 10.0502ZM8 8C6.37165 8 5.04688 6.67525 5.04688 5.04688C5.04688 3.4185 6.37165 2.09375 8 2.09375C9.62835 2.09375 10.9531 3.4185 10.9531 5.04688C10.9531 6.67525 9.62835 8 8 8Z" fill="white" stroke="white" stroke-width="0.5"/>
</svg>
