<svg width="140" height="44" viewBox="0 0 140 44" fill="none" xmlns="http://www.w3.org/2000/svg">
<path d="M30.8241 17.1399L35.312 14.4553C37.3223 17.7936 38.0321 21.8764 37.0235 25.8796L31.9422 24.6183C32.6016 21.9979 32.1386 19.3259 30.8241 17.1399ZM14.5072 9.29139C11.4798 11.1016 9.06122 13.9538 7.887 17.5533C7.77618 17.8942 7.69481 18.2364 7.60923 18.5786L12.6905 19.8399C12.7466 19.615 12.7999 19.3901 12.8728 19.1652C13.6416 16.8103 15.2227 14.9442 17.2035 13.7597C19.5842 12.335 22.5429 11.8964 25.3852 12.8155L27.0041 7.85131C22.6636 6.44754 18.1449 7.1166 14.5072 9.29139ZM19.2518 31.6231C16.8865 30.8577 15.0122 29.2835 13.8212 27.3099L9.33338 29.9945C11.1529 33.0101 14.0162 35.4182 17.6328 36.5873C21.9691 37.9896 26.4822 37.322 30.1171 35.1542L27.4207 30.6859C25.0414 32.105 22.0884 32.5408 19.2518 31.6231ZM8.99668 10.8544C11.8684 7.52306 15.7361 5.54662 19.7905 4.95578L19.0596 0C17.4659 0.234659 15.8736 0.632742 14.3066 1.22637C14.287 1.23336 14.2673 1.23755 14.2477 1.24593C12.7634 1.81302 11.3774 2.52119 10.0909 3.34529C7.77197 4.83147 5.80372 6.71014 4.21566 8.84581L8.24053 11.8265C8.48463 11.4997 8.72452 11.1687 8.99668 10.8544ZM39.212 17.3955L44 16.0057C43.8723 15.5741 43.7629 15.1397 43.6086 14.7123C43.2046 13.5907 42.7332 12.4816 42.1356 11.4047C41.5379 10.3278 40.8463 9.34027 40.1098 8.40164C39.1096 7.13057 37.9957 5.98521 36.7808 4.98092C36.0695 4.39288 35.319 3.86489 34.5488 3.37183L31.8538 7.54681C35.5673 9.92413 38.0672 13.4733 39.212 17.3955ZM4.96199 24.8152L0 25.5401C0.0911873 26.1533 0.204821 26.7665 0.349318 27.3783C0.538707 28.1828 0.770182 28.9832 1.05356 29.7794C1.1195 29.9637 1.16439 30.1509 1.23594 30.3339C2.629 33.9488 4.85818 36.9993 7.61765 39.3543L10.8864 35.5634C7.54049 32.7028 5.55541 28.8519 4.96199 24.8152ZM41.9308 33.506L37.593 31.0155C37.391 31.3633 37.1946 31.7139 36.9659 32.0519C34.4997 35.6975 30.8816 38.1098 26.9185 39.1643L28.2218 44C29.8014 43.5768 31.3614 42.9915 32.8709 42.2037C36.813 40.1449 39.8699 37.0831 41.9308 33.506ZM29.4086 24.5889C28.1334 28.4999 23.9149 30.6412 19.9855 29.3715C16.0574 28.1018 13.9068 23.9017 15.182 19.9893C16.4572 16.0769 20.6757 13.9371 24.6052 15.2068C28.5346 16.4764 30.6852 20.6779 29.4086 24.5889ZM24.4059 22.9701C24.7847 21.8107 24.1464 20.5648 22.982 20.1877C21.8176 19.8105 20.5663 20.4461 20.1875 21.6054C19.8087 22.7647 20.447 24.0107 21.6114 24.3878C22.7758 24.7649 24.0272 24.1308 24.4059 22.9701Z" fill="white"/>
<path d="M72.5102 18.2309C72.7334 18.2309 72.9162 18.2945 73.0586 18.4218C73.201 18.5527 73.2722 18.7291 73.2722 18.9509C73.2722 18.9691 73.2472 19.0727 73.1972 19.2618L69.289 30.3018C69.2043 30.4473 69.0927 30.5636 68.9542 30.6509C68.8195 30.7382 68.6771 30.7745 68.527 30.76C68.373 30.76 68.2364 30.72 68.1171 30.64C67.9978 30.56 67.9054 30.4473 67.84 30.3018L64.5091 22.9109L61.5419 30.3018C61.4726 30.4327 61.3745 30.5418 61.2475 30.6291C61.1205 30.7164 60.9896 30.76 60.8549 30.76C60.6856 30.7745 60.5278 30.7382 60.3816 30.6509C60.2392 30.5636 60.1429 30.4473 60.0929 30.3018L56.0808 19.2618C56.0269 19.1673 56 19.0636 56 18.9509C56 18.7436 56.077 18.5727 56.2309 18.4382C56.3849 18.3 56.5715 18.2309 56.7909 18.2309C56.941 18.2309 57.0795 18.2745 57.2065 18.3618C57.3335 18.4527 57.424 18.5691 57.4778 18.7109L60.8549 28.2891L63.8741 21.1109C63.9934 20.8091 64.232 20.6582 64.5899 20.6582C64.9286 20.6582 65.1653 20.8091 65.3 21.1109L68.475 28.24L71.8002 18.7109C71.9041 18.3909 72.1407 18.2309 72.5102 18.2309ZM85.0603 18.4982C85.2796 18.4982 85.4624 18.5691 85.6087 18.7109C85.7511 18.8564 85.8223 19.0327 85.8223 19.24V30.04C85.8223 30.2473 85.7511 30.42 85.6087 30.5582C85.4624 30.6927 85.2796 30.76 85.0603 30.76C84.8409 30.76 84.6581 30.6927 84.5119 30.5582C84.3695 30.42 84.2983 30.2473 84.2983 30.04V28.4309C83.8749 29.1509 83.2399 29.76 82.3932 30.2582C81.5466 30.7527 80.6229 31 79.6223 31C78.4908 31 77.471 30.72 76.5627 30.16C75.6583 29.6 74.9482 28.8327 74.4325 27.8582C73.913 26.88 73.6532 25.7836 73.6532 24.5691C73.6532 23.3509 73.9168 22.2582 74.4441 21.2909C74.9675 20.3236 75.6833 19.5673 76.5916 19.0218C77.496 18.48 78.4985 18.2091 79.5992 18.2091C80.6152 18.2091 81.5466 18.44 82.3932 18.9018C83.2399 19.3673 83.8749 19.9764 84.2983 20.7291V19.24C84.2983 19.0327 84.3695 18.8564 84.5119 18.7109C84.6581 18.5691 84.8409 18.4982 85.0603 18.4982ZM79.7782 29.6582C80.6595 29.6582 81.4503 29.4382 82.1508 28.9982C82.8551 28.5582 83.4054 27.9491 83.8018 27.1709C84.202 26.3964 84.4022 25.5291 84.4022 24.5691C84.4022 23.6418 84.202 22.7927 83.8018 22.0218C83.4054 21.2545 82.8551 20.6509 82.1508 20.2109C81.4503 19.7709 80.6595 19.5509 79.7782 19.5509C78.8968 19.5509 78.104 19.7673 77.3998 20.2C76.6993 20.6327 76.149 21.2291 75.7487 21.9891C75.3523 22.7491 75.1541 23.6091 75.1541 24.5691C75.1541 25.5291 75.3485 26.3964 75.7372 27.1709C76.1259 27.9491 76.6724 28.5582 77.3767 28.9982C78.081 29.4382 78.8815 29.6582 79.7782 29.6582ZM98.5744 13C98.7938 13 98.9746 13.0673 99.117 13.2018C99.2633 13.34 99.3364 13.5127 99.3364 13.72V30.04C99.3364 30.2473 99.2633 30.42 99.117 30.5582C98.9746 30.6927 98.7938 30.76 98.5744 30.76C98.355 30.76 98.1722 30.6927 98.026 30.5582C97.8836 30.42 97.8124 30.2473 97.8124 30.04V28.36C97.389 29.0945 96.7579 29.7182 95.9189 30.2309C95.0799 30.7436 94.1524 31 93.1364 31C92.0203 31 91.0082 30.7236 90.0999 30.1709C89.1955 29.6182 88.4816 28.8545 87.9582 27.88C87.431 26.9055 87.1673 25.8091 87.1673 24.5909C87.1673 23.3909 87.431 22.3036 87.9582 21.3291C88.4816 20.3509 89.1955 19.5873 90.0999 19.0382C91.0082 18.4855 92.0126 18.2091 93.1133 18.2091C94.1101 18.2091 95.0318 18.4455 95.8785 18.9182C96.7252 19.3873 97.3698 19.9982 97.8124 20.7509V13.72C97.8124 13.5127 97.8836 13.34 98.026 13.2018C98.1722 13.0673 98.355 13 98.5744 13ZM93.2923 29.6582C94.1697 29.6582 94.9606 29.4418 95.6649 29.0091C96.3692 28.5764 96.9195 27.9727 97.3159 27.1982C97.7123 26.42 97.9105 25.5509 97.9105 24.5909C97.9105 23.6491 97.7123 22.7927 97.3159 22.0218C96.9195 21.2545 96.3692 20.6509 95.6649 20.2109C94.9606 19.7709 94.1697 19.5509 93.2923 19.5509C92.411 19.5509 91.6182 19.7709 90.9139 20.2109C90.2135 20.6509 89.6631 21.2545 89.2629 22.0218C88.8665 22.7927 88.6683 23.6491 88.6683 24.5909C88.6683 25.5509 88.8665 26.4145 89.2629 27.1818C89.6631 27.9527 90.2135 28.5582 90.9139 28.9982C91.6182 29.4382 92.411 29.6582 93.2923 29.6582ZM112.089 13C112.308 13 112.489 13.0673 112.631 13.2018C112.777 13.34 112.851 13.5127 112.851 13.72V30.04C112.851 30.2473 112.777 30.42 112.631 30.5582C112.489 30.6927 112.308 30.76 112.089 30.76C111.865 30.76 111.682 30.6927 111.54 30.5582C111.398 30.42 111.327 30.2473 111.327 30.04V28.36C110.903 29.0945 110.272 29.7182 109.433 30.2309C108.594 30.7436 107.667 31 106.651 31C105.534 31 104.522 30.7236 103.614 30.1709C102.71 29.6182 101.994 28.8545 101.467 27.88C100.943 26.9055 100.681 25.8091 100.681 24.5909C100.681 23.3909 100.943 22.3036 101.467 21.3291C101.994 20.3509 102.71 19.5873 103.614 19.0382C104.522 18.4855 105.527 18.2091 106.627 18.2091C107.624 18.2091 108.546 18.4455 109.393 18.9182C110.239 19.3873 110.884 19.9982 111.327 20.7509V13.72C111.327 13.5127 111.398 13.34 111.54 13.2018C111.682 13.0673 111.865 13 112.089 13ZM106.801 29.6582C107.682 29.6582 108.475 29.4418 109.179 29.0091C109.879 28.5764 110.43 27.9727 110.83 27.1982C111.226 26.42 111.425 25.5509 111.425 24.5909C111.425 23.6491 111.226 22.7927 110.83 22.0218C110.43 21.2545 109.879 20.6509 109.179 20.2109C108.475 19.7709 107.682 19.5509 106.801 19.5509C105.923 19.5509 105.132 19.7709 104.428 20.2109C103.724 20.6509 103.173 21.2545 102.777 22.0218C102.381 22.7927 102.182 23.6491 102.182 24.5909C102.182 25.5509 102.381 26.4145 102.777 27.1818C103.173 27.9527 103.724 28.5582 104.428 28.9982C105.132 29.4382 105.923 29.6582 106.801 29.6582ZM116.736 30.04C116.736 30.2473 116.662 30.42 116.516 30.5582C116.374 30.6927 116.193 30.76 115.974 30.76C115.754 30.76 115.571 30.6927 115.425 30.5582C115.283 30.42 115.212 30.2473 115.212 30.04V13.72C115.212 13.5127 115.283 13.34 115.425 13.2018C115.571 13.0673 115.754 13 115.974 13C116.193 13 116.374 13.0673 116.516 13.2018C116.662 13.34 116.736 13.5127 116.736 13.72V30.04ZM129.84 23.92C129.84 24.1127 129.765 24.2764 129.615 24.4109C129.461 24.5491 129.282 24.6182 129.078 24.6182H119.478C119.478 25.5782 119.686 26.4382 120.101 27.1982C120.517 27.9582 121.109 28.5582 121.879 28.9982C122.649 29.4382 123.559 29.6582 124.61 29.6582C125.422 29.6582 126.149 29.4982 126.792 29.1782C127.435 28.8582 127.952 28.4491 128.345 27.9509C128.529 27.8091 128.706 27.7382 128.876 27.7382C129.045 27.7382 129.197 27.8018 129.332 27.9291C129.467 28.0564 129.534 28.2 129.534 28.36C129.534 28.5345 129.449 28.7018 129.28 28.8618C128.741 29.4873 128.06 30 127.236 30.4C126.417 30.8 125.549 31 124.633 31C123.328 31 122.177 30.7364 121.181 30.2091C120.18 29.6818 119.401 28.9418 118.843 27.9891C118.285 27.0364 118.006 25.9364 118.006 24.6891C118.006 23.3764 118.281 22.2273 118.831 21.2418C119.381 20.26 120.113 19.5091 121.025 18.9891C121.941 18.4691 122.914 18.2091 123.946 18.2091C124.962 18.2091 125.914 18.4327 126.803 18.88C127.692 19.3273 128.418 19.9836 128.98 20.8491C129.538 21.7109 129.824 22.7345 129.84 23.92ZM123.946 19.6C122.964 19.6 122.054 19.92 121.215 20.56C120.38 21.2 119.843 22.12 119.605 23.32H128.264V23.1291C128.179 22.4091 127.925 21.78 127.502 21.2418C127.079 20.7073 126.549 20.3 125.914 20.02C125.279 19.74 124.623 19.6 123.946 19.6ZM130.475 28.8182C130.34 28.6073 130.273 28.4309 130.273 28.2891C130.273 28.0818 130.383 27.9218 130.602 27.8091C130.706 27.7109 130.842 27.6618 131.012 27.6618C131.212 27.6618 131.397 27.7418 131.566 27.9018C132.567 29.1527 133.896 29.7782 135.555 29.7782C136.367 29.7782 137.075 29.5982 137.679 29.2382C138.28 28.8782 138.58 28.3527 138.58 27.6618C138.58 26.9927 138.301 26.4891 137.743 26.1509C137.181 25.8164 136.402 25.5291 135.405 25.2891C134 24.9509 132.899 24.5145 132.103 23.98C131.306 23.4455 130.908 22.6582 130.908 21.6182C130.908 20.96 131.102 20.3709 131.491 19.8509C131.88 19.3309 132.409 18.9273 133.078 18.64C133.748 18.3527 134.506 18.2091 135.353 18.2091C136.08 18.2091 136.813 18.34 137.552 18.6018C138.287 18.8673 138.917 19.2873 139.44 19.8618C139.594 19.9745 139.671 20.1345 139.671 20.3418C139.671 20.5345 139.586 20.7036 139.417 20.8491C139.298 20.9436 139.146 20.9909 138.961 20.9909C138.792 20.9909 138.64 20.9273 138.505 20.8C138.097 20.3673 137.614 20.04 137.056 19.8182C136.498 19.5927 135.896 19.48 135.249 19.48C134.456 19.48 133.775 19.6564 133.205 20.0091C132.64 20.3618 132.357 20.8891 132.357 21.5909C132.391 22.2309 132.699 22.72 133.28 23.0582C133.865 23.3927 134.726 23.6964 135.861 23.9691C136.742 24.1764 137.47 24.4073 138.043 24.6618C138.62 24.92 139.092 25.28 139.457 25.7418C139.819 26.2073 140 26.8236 140 27.5909C140 28.6309 139.559 29.46 138.678 30.0782C137.801 30.6927 136.71 31 135.405 31C133.338 31 131.695 30.2727 130.475 28.8182Z" fill="white"/>
</svg>
