<?xml version="1.0"?>
<svg xmlns="http://www.w3.org/2000/svg" xmlns:xlink="http://www.w3.org/1999/xlink" xmlns:svgjs="http://svgjs.com/svgjs" version="1.1" width="512" height="512" x="0" y="0" viewBox="0 0 512 512" style="enable-background:new 0 0 512 512" xml:space="preserve" class=""><g><g xmlns="http://www.w3.org/2000/svg"><path d="m304.816 0c-12.581 0-24.89 4.366-34.66 12.293l-.942.765-4.614-3.209c-9.265-6.443-20.126-9.849-31.41-9.849h-120.963c-39.501 0-71.638 32.136-71.638 71.637v160.396c0 13.763 11.197 24.96 24.96 24.96h11.923c11.595 36.002 37.635 65.581 71.27 81.865-34.814 6.585-61.233 37.214-61.233 73.914v83.1c0 8.893 7.234 16.128 16.127 16.128h139.646c4.143 0 7.5-3.357 7.5-7.5s-3.357-7.5-7.5-7.5h-139.646c-.621 0-1.127-.506-1.127-1.128v-83.1c0-33.218 27.024-60.242 60.241-60.242h11.276v10.271c0 19.007 15.463 34.47 34.47 34.47s34.47-15.463 34.47-34.47v-10.271h11.325c33.218 0 60.242 27.024 60.242 60.242v83.1c0 .622-.506 1.128-1.128 1.128h-40.137c-4.143 0-7.5 3.357-7.5 7.5s3.357 7.5 7.5 7.5h40.137c8.893 0 16.128-7.235 16.128-16.128v-83.1c0-36.7-26.419-67.329-61.234-73.914 33.634-16.284 59.675-45.863 71.27-81.865h11.923c13.763 0 24.96-11.197 24.96-24.96v-4.241c0-4.142-3.357-7.5-7.5-7.5s-7.5 3.358-7.5 7.5v4.241c0 5.492-4.468 9.96-9.96 9.96h-8.014c1.758-8.767 2.687-17.831 2.687-27.107v-78.724c0-5.875-4.603-10.743-10.478-11.082-35.043-2.028-62.502-8.848-82.607-35.54-3.356-4.456-9.679-5.559-14.393-2.512-40.715 26.31-89.104 38.098-156.898 38.223-6.018.011-10.913 4.909-10.913 10.919v41.63c0 4.142 3.357 7.5 7.5 7.5s7.5-3.358 7.5-7.5v-37.57c66.977-.581 115.949-12.539 157.68-38.526 23.844 29.284 55.953 35.971 87.609 38.122v75.06c0 67.626-55.019 122.645-122.645 122.645s-122.644-55.019-122.644-122.645v-7.098c0-4.142-3.357-7.5-7.5-7.5s-7.5 3.358-7.5 7.5v7.098c0 9.277.928 18.34 2.687 27.107h-8.014c-5.492 0-9.96-4.468-9.96-9.96v-160.396c0-31.23 25.407-56.637 56.638-56.637h120.963c8.207 0 16.106 2.477 22.844 7.163l7.338 5.104c3.849 2.677 9.079 2.484 12.717-.471l3.519-2.854c7.105-5.767 16.057-8.942 25.208-8.942 31.229 0 56.637 25.407 56.637 56.637v126.168c0 4.142 3.357 7.5 7.5 7.5s7.5-3.358 7.5-7.5v-126.168c-.001-39.501-32.136-71.637-71.637-71.637zm-115.789 351.144c6.371.907 12.877 1.387 19.494 1.387 6.6 0 13.09-.477 19.445-1.38v11.65c0 10.735-8.734 19.47-19.47 19.47s-19.47-8.734-19.47-19.47v-11.657z" fill="#ffffff" data-original="#000000" style=""/><path d="m208.128 246.007c-17.471-1.978-34.921 4.655-46.697 17.732-2.771 3.078-2.523 7.82.555 10.592s7.82 2.524 10.592-.555c8.544-9.486 21.206-14.302 33.865-12.864 12.663 1.432 23.93 8.945 30.138 20.1 2.015 3.62 6.582 4.919 10.201 2.906 3.619-2.015 4.92-6.582 2.906-10.201-8.559-15.376-24.095-25.735-41.56-27.71z" fill="#ffffff" data-original="#000000" style=""/><path d="m167.689 191.847-23.273-11.384c-3.721-1.818-8.211-.278-10.032 3.442-1.82 3.721-.279 8.213 3.442 10.033l8.147 3.985c-.134.56-.212 1.142-.212 1.743v5.289c0 4.142 3.357 7.5 7.5 7.5 4.076 0 7.385-3.253 7.49-7.303l.348.17c1.061.519 2.184.764 3.289.764 2.774 0 5.441-1.546 6.743-4.206 1.82-3.721.279-8.213-3.442-10.033z" fill="#ffffff" data-original="#000000" style=""/><path d="m282.658 183.905c-1.82-3.721-6.312-5.262-10.032-3.442l-23.273 11.384c-3.722 1.82-5.263 6.312-3.442 10.033 1.302 2.661 3.968 4.206 6.743 4.206 1.105 0 2.229-.246 3.289-.764l.348-.17c.105 4.05 3.414 7.303 7.49 7.303 4.143 0 7.5-3.358 7.5-7.5v-5.289c0-.601-.078-1.183-.212-1.743l8.147-3.985c3.722-1.82 5.263-6.313 3.442-10.033z" fill="#ffffff" data-original="#000000" style=""/><path d="m470.895 49.963c-1.509-3.857-5.855-5.763-9.717-4.253-16.766 6.556-25.072 25.53-18.518 42.295 1.74 4.452 4.361 8.377 7.792 11.667 2.98 2.859 7.728 2.776 10.604-.221 2.868-2.989 2.769-7.737-.221-10.604-1.848-1.772-3.262-3.893-4.204-6.304-3.544-9.063.946-19.32 10.01-22.864 3.857-1.508 5.762-5.858 4.254-9.716z" fill="#ffffff" data-original="#000000" style=""/><path d="m419.476 74.719c-7.987-3.498-16.861-3.676-24.983-.499-3.857 1.508-5.762 5.858-4.254 9.716 1.509 3.857 5.857 5.763 9.717 4.253 4.391-1.716 9.187-1.619 13.505.27 4.318 1.891 7.642 5.35 9.359 9.742.942 2.409 1.341 4.927 1.186 7.483-.263 4.308 3.158 7.956 7.493 7.956 3.934 0 7.237-3.065 7.479-7.045.289-4.745-.448-9.408-2.188-13.857-3.177-8.122-9.325-14.521-17.314-18.019z" fill="#ffffff" data-original="#000000" style=""/><path d="m434.487 40.843c4.197 1.837 8.637 2.759 13.085 2.758 4.018 0 8.043-.752 11.898-2.259 3.857-1.508 5.762-5.858 4.254-9.716-1.509-3.858-5.855-5.764-9.717-4.254-4.39 1.716-9.186 1.622-13.505-.27-4.318-1.891-7.642-5.35-9.358-9.74-.943-2.412-1.342-4.93-1.187-7.484.252-4.134-2.896-7.69-7.03-7.942-4.129-.247-7.691 2.896-7.942 7.031-.288 4.742.448 9.404 2.188 13.857 3.177 8.122 9.325 14.521 17.314 18.019z" fill="#ffffff" data-original="#000000" style=""/><path d="m392.785 69.852c16.766-6.555 25.073-25.529 18.518-42.296-1.74-4.452-4.362-8.377-7.792-11.667-2.987-2.867-7.736-2.769-10.604.221-2.868 2.989-2.769 7.737.221 10.604 1.848 1.772 3.262 3.893 4.204 6.304 3.544 9.064-.946 19.32-10.01 22.864-3.857 1.508-5.762 5.858-4.254 9.716 1.158 2.961 3.989 4.771 6.987 4.771.909 0 1.833-.166 2.73-.517z" fill="#ffffff" data-original="#000000" style=""/></g></g></svg>
