<?xml version="1.0"?>
<svg xmlns="http://www.w3.org/2000/svg" xmlns:xlink="http://www.w3.org/1999/xlink" xmlns:svgjs="http://svgjs.com/svgjs" version="1.1" width="512" height="512" x="0" y="0" viewBox="0 0 512.025 512.025" style="enable-background:new 0 0 512 512" xml:space="preserve"><g><g xmlns="http://www.w3.org/2000/svg"><path d="m165.019 116.321c-6.676-3.777-13.995-6.422-21.568-7.748-4.191-.393-7.706-2.437-11.488.218-3.789 2.66-3.048 6.631-4.109 10.73-1.017 5.809-1.261 11.641-.756 17.43h-3.094c-4.142 0-7.5 3.358-7.5 7.5v5.975c0 37.131 30.208 67.339 67.339 67.339h11.949c37.131 0 67.339-30.208 67.339-67.339v-5.975c0-4.142-3.357-7.5-7.5-7.5h-3.094c.505-5.79.261-11.622-.755-17.431-1.055-4.075-.327-8.076-4.11-10.73-3.779-2.653-7.305-.611-11.487-.218-7.567 1.325-14.879 3.966-21.55 7.737-3.73-7.095-8.542-13.668-14.372-19.497l-5.142-5.142c-2.928-2.929-7.677-2.929-10.606 0l-5.143 5.143c-5.894 5.895-10.677 12.485-14.353 19.508zm-22.635 7.316c6.06 1.24 11.723 3.502 16.92 6.723-1.193 3.968-2.074 8.009-2.643 12.088-4.606-1.99-9.417-3.453-14.357-4.367-.645-4.785-.621-9.621.08-14.444zm-10.858 28.338c8.684.253 17.077 2.63 24.548 6.938.981 14.986 6.114 29.746 15.434 42.375-22.443-5.445-39.283-25.386-39.982-49.313zm76.618 49.309c9.127-12.331 14.466-26.943 15.46-42.396 7.46-4.292 15.838-6.66 24.505-6.913-.699 23.921-17.53 43.859-39.965 49.309zm29.107-77.647c.701 4.822.725 9.658.079 14.444-4.927.912-9.726 2.368-14.32 4.35-.571-4.118-1.444-8.164-2.631-12.103 5.184-3.204 10.831-5.454 16.872-6.691zm-47.433-16.055c25.159 25.329 25.416 66.49 0 92.077-25.258-25.434-25.257-66.644 0-92.077z" fill="#ffffff" data-original="#000000" style=""/><path d="m131.527 360.051c.263-8.905 2.789-17.597 7.346-25.23 2.124-3.557.961-8.161-2.595-10.284-3.559-2.125-8.162-.961-10.284 2.595-6.208 10.399-9.49 22.318-9.49 34.468v5.975c0 4.143 3.358 7.5 7.5 7.5h3.094c-.505 5.789-.261 11.621.756 17.43 1.054 4.075.326 8.076 4.109 10.73 3.948 2.77 7.669.47 11.487.218 7.574-1.326 14.893-3.971 21.568-7.748 3.676 7.024 8.459 13.614 14.353 19.509 4.069 3.502 5.697 7.338 10.445 7.338s6.364-3.826 10.445-7.338c5.83-5.83 10.642-12.403 14.372-19.498 6.671 3.771 13.983 6.412 21.549 7.737 3.881.256 7.548 2.547 11.488-.218 3.79-2.659 3.048-6.627 4.11-10.729 1.017-5.809 1.26-11.641.755-17.431h3.094c4.143 0 7.5-3.357 7.5-7.5v-5.975c0-37.131-30.208-67.34-67.339-67.34-4.179 0-7.77 0-11.949 0-11.898 0-23.61 3.163-33.871 9.146-3.578 2.086-4.787 6.679-2.701 10.257 1.394 2.39 3.905 3.723 6.486 3.723 1.283 0 2.583-.329 3.771-1.022 4.373-2.55 9.087-4.436 13.978-5.623-9.319 12.628-14.452 27.388-15.433 42.372-7.543 4.351-15.975 6.688-24.544 6.938zm10.857 28.337c-.701-4.823-.725-9.658-.08-14.443 4.94-.914 9.752-2.377 14.357-4.367.568 4.078 1.449 8.119 2.642 12.087-5.196 3.22-10.859 5.482-16.919 6.723zm94.867 0c-6.041-1.236-11.688-3.487-16.871-6.692 1.187-3.939 2.06-7.984 2.631-12.102 4.594 1.982 9.393 3.439 14.32 4.351.645 4.785.622 9.62-.08 14.443zm10.858-28.337c-8.498-.247-16.921-2.55-24.505-6.914-.994-15.453-6.334-30.065-15.46-42.396 22.434 5.449 39.266 25.387 39.965 49.31zm-58.292-47.685c25.253 25.424 25.339 66.568 0 92.077-25.257-25.433-25.257-66.643 0-92.077z" fill="#ffffff" data-original="#000000" style=""/><path d="m506.553 27.281c-7.111-7.111-18.448-7.314-25.812-.469l-29.565 27.49-.087-.087c-2.93-2.929-7.678-2.929-10.607 0-2.828 2.828-2.917 7.349-.283 10.293l-60.565 56.315v-104.658c0-8.906-7.245-16.152-16.151-16.152h-284.018c-4.142 0-7.5 3.358-7.5 7.5s3.358 7.5 7.5 7.5h284.019c.635 0 1.151.517 1.151 1.152v118.607l-16.446 15.292-1.182-1.182c-2.93-2.929-7.678-2.929-10.607 0s-2.929 7.678 0 10.606l.797.797-25.962 24.14c-13.144-1.335-26.762 3.015-36.811 13.064-17.632 17.632-24.368 37.107-26.53 52.913-.001.001-.002.002-.003.003-3.587 3.185-5.752 5.107-10.786 5.107-5.032 0-7.197-1.923-10.784-5.108-4.226-3.753-10.013-8.893-20.745-8.893s-16.519 5.14-20.745 8.892c-3.587 3.186-5.752 5.108-10.785 5.108-5.032 0-7.197-1.923-10.784-5.108-4.226-3.753-10.013-8.893-20.745-8.893s-16.519 5.14-20.745 8.893c-3.586 3.186-5.751 5.108-10.783 5.108-5.031 0-7.196-1.922-10.782-5.107-4.225-3.753-10.012-8.893-20.743-8.893-4.142 0-7.5 3.358-7.5 7.5s3.358 7.5 7.5 7.5c5.031 0 7.196 1.922 10.782 5.108 4.225 3.753 10.012 8.893 20.743 8.893s16.519-5.14 20.744-8.893c3.586-3.186 5.751-5.108 10.784-5.108s7.197 1.922 10.784 5.108c4.226 3.753 10.013 8.893 20.745 8.893s16.52-5.14 20.746-8.893c3.586-3.186 5.751-5.108 10.784-5.108s7.198 1.922 10.784 5.108c4.226 3.753 10.013 8.893 20.745 8.893 3.974 0 7.267-.707 10.057-1.785.433 7.638 1.656 12.574 1.812 13.178 1.389 5.365 7.867 7.375 12.061 3.883 18.155-15.127 42.911-12.631 42.025-12.631 16.279-.006 31.037-8.059 39.747-21.844 5.61-8.88 7.903-19.023 6.851-28.982l14.977-16.107v289.636c0 .636-.517 1.152-1.151 1.152h-347.332c-.635 0-1.152-.517-1.152-1.152v-479.695c0-.635.517-1.152 1.152-1.152h33.326c4.142 0 7.5-3.358 7.5-7.5s-3.358-7.5-7.5-7.5h-33.326c-8.906-.001-16.152 7.245-16.152 16.152v479.695c0 8.906 7.246 16.152 16.152 16.152h347.332c8.906 0 16.151-7.246 16.151-16.152v-296.23c.005 0 .009.001.014.001 1.919 0 3.839-.732 5.304-2.197 2.929-2.929 2.929-7.678 0-10.606l-1.183-1.183 49.429-53.158c2.821-3.033 2.648-7.779-.385-10.6s-7.778-2.646-10.6.386l-49.058 52.759-14.354-14.354 91.995-85.54 7.899 7.899-16.05 17.261c-2.821 3.033-2.648 7.779.385 10.6 3.033 2.82 7.779 2.648 10.6-.386l15.693-16.877c1.42 1.27 3.203 1.914 4.99 1.914 1.919 0 3.839-.732 5.304-2.197 2.929-2.929 2.929-7.678 0-10.606l-.087-.087 27.491-29.565c6.848-7.364 6.642-18.702-.469-25.813zm-237.017 202.605c7.099.104 13.845 2.922 18.944 8.021 5.458 5.457 8.276 12.736 8.03 20.236-12.358.356-24.254 3.482-34.386 8.933-.398-9.129.601-22.866 7.412-37.19zm60.59 13.415c-4.366 6.911-10.984 11.695-18.596 13.747-.038-11.045-4.377-21.681-12.443-29.747-5.841-5.841-13.079-9.75-20.894-11.455 2.028-2.616 4.295-5.208 6.838-7.751h-.001c14.411-14.41 38.533-10.273 46.408 4.873 5.045 9.71 4.555 21.049-1.312 30.333zm32.809-57.277-18.347 19.731c-3.5-6.635-8.275-11.855-16.719-16.315l19.941-18.542zm133.103-143.146-27.119 29.166-7.128-7.128 29.166-27.12c1.423-1.324 3.615-1.284 4.99.091s1.415 3.568.091 4.991z" fill="#ffffff" data-original="#000000" style=""/><path d="m197.318 61.546v-14.745c0-4.142-3.358-7.5-7.5-7.5s-7.5 3.358-7.5 7.5v14.745c0 4.142 3.358 7.5 7.5 7.5s7.5-3.358 7.5-7.5z" fill="#ffffff" data-original="#000000" style=""/><path d="m119.466 72.835c-2.929-2.93-7.678-2.929-10.606 0-2.929 2.929-2.929 7.678 0 10.606l10.426 10.426c2.928 2.929 7.677 2.929 10.606 0s2.929-7.678 0-10.606z" fill="#ffffff" data-original="#000000" style=""/><path d="m260.349 93.868 10.427-10.426c2.93-2.929 2.93-7.678.001-10.607-2.93-2.928-7.679-2.929-10.606 0l-10.427 10.426c-2.929 2.929-2.929 7.678 0 10.607 2.928 2.928 7.676 2.929 10.605 0z" fill="#ffffff" data-original="#000000" style=""/><path d="m182.318 450.479v14.745c0 4.143 3.358 7.5 7.5 7.5s7.5-3.357 7.5-7.5v-14.745c0-4.143-3.358-7.5-7.5-7.5s-7.5 3.357-7.5 7.5z" fill="#ffffff" data-original="#000000" style=""/><path d="m108.859 439.19c2.929 2.928 7.678 2.929 10.606-.001l10.426-10.427c2.929-2.929 2.929-7.678 0-10.606s-7.678-2.929-10.606.001l-10.426 10.427c-2.929 2.929-2.928 7.678 0 10.606z" fill="#ffffff" data-original="#000000" style=""/><path d="m249.743 418.156c-2.929 2.93-2.929 7.678 0 10.607l10.426 10.427c2.931 2.929 7.678 2.928 10.607 0 2.929-2.93 2.929-7.678 0-10.607l-10.427-10.427c-2.929-2.927-7.677-2.927-10.606 0z" fill="#ffffff" data-original="#000000" style=""/></g></g></svg>
