<?xml version="1.0"?>
<svg xmlns="http://www.w3.org/2000/svg" xmlns:xlink="http://www.w3.org/1999/xlink" xmlns:svgjs="http://svgjs.com/svgjs" version="1.1" width="512" height="512" x="0" y="0" viewBox="0 0 46.161 46.161" style="enable-background:new 0 0 512 512" xml:space="preserve" class=""><g>
<g xmlns="http://www.w3.org/2000/svg">
	<g>
		<path style="" d="M31.251,22.654c-0.093-0.258-0.127-0.51-0.135-0.76c-1.351-0.215-2.558-0.695-3.269-1.779    c-0.313,0.105-0.635,0.195-0.961,0.27c0.195,0.491,0.377,0.904,0.531,1.186c0.365,0.67,0.309,1.017,0.088,1.188    c-0.562,0.438-2-0.535-2.922-1.271c-0.302-0.242-0.749-0.556-1.222-0.833h-0.209c-0.387,0.414-0.814,0.79-1.284,1.109    c0.068,0.073,0.136,0.146,0.215,0.224c2.667,2.667,3.75,4.167,0.583,6.75c-4.93,3.364-6.103,5.957-6.363,7.226h12.469    c-0.17-2.398,0.25-5.02,0.81-5.643C32.501,27.07,32.418,25.904,31.251,22.654z" fill="#cf8a95" data-original="#030104" class=""/>
		<path style="" d="M17.618,7.904c3.678,0,6.75,2.632,7.437,6.111c0.094,0.477,0.146,0.968,0.146,1.472    c0,0.016-0.002,0.031-0.002,0.047c-0.01,1.521-0.469,2.935-1.252,4.12h0.632c0.669,0,1.32-0.073,1.95-0.207    c0.307-0.065,0.607-0.146,0.902-0.24c-0.157-0.488-0.252-1.05-0.252-1.719c0-0.447,0.049-0.838,0.121-1.202    c0.6-3.024,3.528-3.345,6.24-3.377c0.237-0.823,0.371-1.689,0.371-2.588c0-5.155-4.179-9.333-9.333-9.333h-6.822    c-4.796,0-8.743,3.619-9.269,8.274c1.227-0.854,2.714-1.358,4.318-1.358H17.618z" fill="#cf8a95" data-original="#030104" class=""/>
		<path style="" d="M40.868,36.962H28.887H16.25H1.534c-1.657,0-2.03,0.928-0.834,2.075l4.235,4.06    c1.196,1.146,3.509,2.076,5.166,2.076h22.2c1.657,0,3.971-0.93,5.166-2.076l4.235-4.06C42.898,37.891,42.525,36.962,40.868,36.962    z" fill="#cf8a95" data-original="#030104" class=""/>
		<path style="" d="M12.806,22.07h4.812c1.343,0,2.59-0.404,3.632-1.094c0.152-0.101,0.297-0.21,0.44-0.322    c0.199-0.157,0.391-0.322,0.571-0.5c0.006-0.006,0.013-0.013,0.02-0.019c0.152-0.153,0.297-0.314,0.434-0.481    c0.928-1.135,1.486-2.586,1.486-4.167c0-3.636-2.947-6.583-6.583-6.583h-4.812c-1.679,0-3.207,0.634-4.37,1.669    c-0.167,0.148-0.325,0.305-0.476,0.469c-0.16,0.174-0.31,0.356-0.451,0.547c-0.805,1.092-1.287,2.437-1.287,3.898    C6.223,19.123,9.17,22.07,12.806,22.07z" fill="#cf8a95" data-original="#030104" class=""/>
		<path style="" d="M39.881,13.905c-0.102,0-0.203,0-0.306,0h-4.812c-0.103,0-0.203,0-0.306,0    c-0.067,0-0.133,0-0.198,0c-0.18,0-0.357,0.001-0.533,0.002c-0.18,0-0.358,0.002-0.533,0.005    c-2.824,0.056-4.928,0.471-5.006,3.411c-0.002,0.056-0.008,0.106-0.008,0.164c0,0.53,0.069,0.974,0.188,1.359    c0.051,0.166,0.111,0.321,0.184,0.463c0.078,0.155,0.168,0.297,0.268,0.426c0.541,0.695,1.396,1.031,2.459,1.189    c0.931,0.139,2.014,0.147,3.181,0.147c0.101,0,0.203,0,0.306,0h4.812c0.103,0,0.203,0,0.306,0c3.493,0,6.278-0.05,6.278-3.583    C46.159,13.954,43.375,13.905,39.881,13.905z" fill="#cf8a95" data-original="#030104" class=""/>
	</g>
</g>
<g xmlns="http://www.w3.org/2000/svg">
</g>
<g xmlns="http://www.w3.org/2000/svg">
</g>
<g xmlns="http://www.w3.org/2000/svg">
</g>
<g xmlns="http://www.w3.org/2000/svg">
</g>
<g xmlns="http://www.w3.org/2000/svg">
</g>
<g xmlns="http://www.w3.org/2000/svg">
</g>
<g xmlns="http://www.w3.org/2000/svg">
</g>
<g xmlns="http://www.w3.org/2000/svg">
</g>
<g xmlns="http://www.w3.org/2000/svg">
</g>
<g xmlns="http://www.w3.org/2000/svg">
</g>
<g xmlns="http://www.w3.org/2000/svg">
</g>
<g xmlns="http://www.w3.org/2000/svg">
</g>
<g xmlns="http://www.w3.org/2000/svg">
</g>
<g xmlns="http://www.w3.org/2000/svg">
</g>
<g xmlns="http://www.w3.org/2000/svg">
</g>
</g></svg>
