<?xml version="1.0"?>
<svg xmlns="http://www.w3.org/2000/svg" xmlns:xlink="http://www.w3.org/1999/xlink" xmlns:svgjs="http://svgjs.com/svgjs" version="1.1" width="512" height="512" x="0" y="0" viewBox="0 0 64 64" style="enable-background:new 0 0 512 512" xml:space="preserve" class=""><g><g xmlns="http://www.w3.org/2000/svg"><path d="m27 20.816v2.184h2v-2.184c1.161-.414 2-1.514 2-2.816h-2c0 .551-.449 1-1 1s-1-.449-1-1h-2c0 1.302.839 2.402 2 2.816z" fill="#ffffff" data-original="#000000" style="" class=""/><path d="m35 20.816v2.184h2v-2.184c1.161-.414 2-1.514 2-2.816h-2c0 .551-.449 1-1 1s-1-.449-1-1h-2c0 1.302.839 2.402 2 2.816z" fill="#ffffff" data-original="#000000" style="" class=""/><path d="m28.211 27.342-.105.211 1.789.895.105-.212c.381-.762 1.147-1.236 2-1.236s1.619.474 2 1.236l.105.211 1.789-.895-.105-.211c-.722-1.444-2.174-2.341-3.789-2.341s-3.067.897-3.789 2.342z" fill="#ffffff" data-original="#000000" style="" class=""/><path d="m48.193 41.248c-1.023-1.228-2.289-2.233-3.698-2.971 1.209-.724 2.091-1.93 2.358-3.362.014-.003.029-.001.043-.004 2.344-.436 4.047-2.554 4.049-5.036.009-10.126-4.118-19.457-6.579-24.117-1.55-2.935-4.582-4.758-7.912-4.758h-1.068c-2.425 0-4.656.973-6.296 2.604-.975-.395-1.999-.604-3.055-.604-3.022 0-5.776 1.646-7.188 4.295-2.671 5.017-5.853 13.005-5.847 22.575.002 2.483 1.703 4.604 4.045 5.041.016.003.031.002.047.004.269 1.443 1.162 2.656 2.385 3.377-1.398.736-2.654 1.736-3.671 2.956-1.809 2.172-2.806 4.925-2.806 7.752v4c0 5.514 4.486 10 10 10h8 .015 9.985c5.514 0 10-4.486 10-10v-4c0-2.827-.997-5.58-2.807-7.752zm-1.536 1.28c1.511 1.813 2.343 4.112 2.343 6.472v2h-4v-6h-2v7c0 1.354-.907 2.487-2.141 2.859.083-.274.141-.558.141-.859v-14.886l.084.019c2.171.482 4.15 1.688 5.573 3.395zm-17.657 12.472v-5c0-1.654 1.346-3 3-3s3 1.346 3 3v5h-3.92-.08zm1-12c0-1.103.897-2 2-2s2 .897 2 2-.897 2-2 2-2-.897-2-2zm4.793 2.855c.743-.727 1.207-1.736 1.207-2.855 0-2.206-1.794-4-4-4s-4 1.794-4 4c0 1.119.464 2.128 1.207 2.855-1.331.899-2.207 2.422-2.207 4.145v5h-1c-.551 0-1-.449-1-1v-16c0-.551.449-1 1-1h12c.551 0 1 .449 1 1v16c0 .551-.449 1-1 1h-1v-5c0-1.723-.876-3.246-2.207-4.145zm-9.019-31.442c.709.957 1.838 1.587 3.119 1.587.878 0 1.758-.208 2.557-.607l2.201-1.139c.698 1.051 1.889 1.746 3.242 1.746.878 0 1.758-.208 2.544-.601.341-.171.724-.155 1.05.047.326.201.513.536.513.919v5.635c0 4.962-4.038 9-9 9s-9-4.038-9-9v-2.5c0-1.878.897-3.673 2.41-4.808zm6.226 18.587c.757 0 1.496-.077 2.21-.223l.371 2.223h-5.238l.374-2.242c.737.157 1.5.242 2.283.242zm-17-3.131c-.007-9.64 3.513-17.691 5.612-21.633 1.064-1.996 3.141-3.236 5.423-3.236.602 0 1.188.091 1.741.253-.267.435-.509.889-.704 1.375l1.857.743c1.062-2.655 3.596-4.371 6.456-4.371h1.068c2.587 0 4.941 1.415 6.144 3.692 2.374 4.497 6.356 13.487 6.348 23.182-.001 1.496-1.039 2.816-2.415 3.072-.913.168-1.802-.056-2.5-.637-.689-.573-1.084-1.414-1.084-2.309h-2c0 1.491.658 2.893 1.806 3.847.602.501 1.31.83 2.057 1.004-.371 1.238-1.507 2.149-2.864 2.149h-1.13c-.414-1.161-1.514-2-2.816-2h-1.37c-.01-.042-.035-.078-.042-.121l-.449-2.694c2.785-1.136 4.997-3.381 6.097-6.185h.765c2.206 0 4-1.794 4-4s-1.794-4-4-4v-1.635c0-1.075-.546-2.055-1.46-2.62-.916-.565-2.036-.616-2.997-.135-.51.255-1.08.39-1.65.39-1.044 0-1.893-.849-1.893-1.893 0-.493.278-.937.663-1.054.454-.139.777.029.931.142.258.191.406.484.406.805h2c0-.948-.456-1.85-1.218-2.414-.775-.573-1.761-.735-2.706-.446-1.222.376-2.076 1.595-2.076 2.967 0 .076.018.146.022.221l-2.479 1.283c-.51.255-1.08.39-1.65.39-1.044-.001-1.893-.85-1.893-1.894 0-.493.278-.937.663-1.054.454-.139.778.029.931.142.258.191.406.484.406.805h2c0-.948-.456-1.85-1.218-2.414-.775-.573-1.761-.735-2.706-.446-1.222.376-2.076 1.595-2.076 2.967 0 .12.025.232.035.349l-.835.644c-1.597 1.199-2.669 2.965-3.043 4.9h-.157c-2.206 0-4 1.794-4 4s1.794 4 4 4h.764c1.09 2.78 3.273 5.014 6.025 6.159l-.443 2.659c-.01.063-.031.122-.048.183h-1.298c-1.302 0-2.402.839-2.816 2h-1.184c-1.357 0-2.493-.911-2.862-2.149.746-.174 1.453-.502 2.055-1.002 1.148-.955 1.807-2.358 1.807-3.85h-2c0 .895-.396 1.737-1.085 2.31-.699.581-1.589.806-2.502.635-1.374-.257-2.412-1.579-2.413-3.076zm28-7.869v-2c1.103 0 2 .897 2 2s-.897 2-2 2h-.191c.12-.65.191-1.316.191-2zm-21.809 2h-.191c-1.103 0-2-.897-2-2s.897-2 2-2v2c0 .684.071 1.35.191 2zm-3.848 18.528c1.423-1.707 3.402-2.913 5.572-3.396l.085-.019v14.887c0 .301.058.585.141.859-1.234-.372-2.141-1.505-2.141-2.859v-7h-2v6h-4v-2c0-2.36.832-4.659 2.343-6.472zm-2.343 10.472h4.101c.465 2.279 2.484 4 4.899 4h2 1.556c-.344.591-.556 1.268-.556 2s.212 1.409.556 2h-4.556c-4.411 0-8-3.589-8-8zm26 8h-9.985-.015c-1.103 0-2-.897-2-2s.897-2 2-2h.08 6.92 2c2.414 0 4.434-1.721 4.899-4h4.101c0 4.411-3.589 8-8 8z" fill="#ffffff" data-original="#000000" style="" class=""/></g></g></svg>
