<?xml version="1.0"?>
<svg xmlns="http://www.w3.org/2000/svg" xmlns:xlink="http://www.w3.org/1999/xlink" xmlns:svgjs="http://svgjs.com/svgjs" version="1.1" width="512" height="512" x="0" y="0" viewBox="0 0 512 512" style="enable-background:new 0 0 512 512" xml:space="preserve"><g><path xmlns="http://www.w3.org/2000/svg" d="m217.480469 214.699219h48.226562c67.492188 0 122.398438-54.90625 122.398438-122.398438v-31.613281h-31.613281c-52.664063 0-97.664063 33.433594-114.894532 80.191406-17.230468-46.757812-62.234375-80.191406-114.898437-80.191406h-31.613281v31.613281c0 67.492188 54.90625 122.398438 122.394531 122.398438zm139.011719-139.011719h16.613281v16.613281c0 59.21875-48.175781 107.398438-107.398438 107.398438h-16.609375v-16.613281c0-59.21875 48.175782-107.398438 107.394532-107.398438zm-246.40625 0h16.613281c59.21875 0 107.394531 48.179688 107.394531 107.398438v16.613281h-16.613281c-59.21875 0-107.394531-48.179688-107.394531-107.398438zm0 0" fill="#ffffff" data-original="#000000" style=""/><path xmlns="http://www.w3.org/2000/svg" d="m170.421875 35.371094c16.183594 6.703125 20.835937 8.363281 28.882813 13.101562-3.183594 5.609375-5.921876 11.480469-8.203126 17.597656l14.054688 5.242188c5.386719-14.449219 13.695312-27.351562 24.691406-38.351562l11.75-11.746094 11.746094 11.746094c10.996094 11 19.304688 23.898437 24.691406 38.351562l14.054688-5.242188c-2.277344-6.117187-5.019532-11.988281-8.199219-17.597656 8.042969-4.734375 12.664063-6.382812 28.878906-13.101562 6.863281 16.574218 6.800781 16.371094 7.648438 18.617187l14.035156-5.300781c-.964844-2.554688-.316406-.933594-13.566406-32.914062-31.25 12.941406-35.507813 14.34375-45.207031 20.128906-6.839844-9.175782-10.628907-12.449219-34.082032-35.902344-23.40625 23.40625-27.253906 26.738281-34.085937 35.902344-9.699219-5.785156-13.957031-7.1875-45.207031-20.128906-13.195313 31.851562-12.609376 30.378906-13.566407 32.917968l14.035157 5.292969c.820312-2.171875.65625-1.734375 7.648437-18.613281zm0 0" fill="#ffffff" data-original="#000000" style=""/><path xmlns="http://www.w3.org/2000/svg" d="m477.09375 199.171875h-48.066406l-97.65625 97.660156h-27.425782v-34.996093l-19.316406-19.316407h-170.003906l-114.625 114.625 96.488281 96.488281 34.675781-34.675781h195.953126l184.882812-184.878906zm-156.1875 204.785156h-189.742188l-30.867187-30.871093-10.609375 10.609374 27.761719 27.761719-20.960938 20.964844-75.273437-75.277344 99.625-99.625h157.574218l10.53125 10.53125v31.6875l-10.53125 10.53125h-90.425781v15h96.640625l13.4375-13.4375h39.515625l97.660157-97.660156h35.640624l19.902344 19.902344zm0 0" fill="#ffffff" data-original="#000000" style=""/><path xmlns="http://www.w3.org/2000/svg" d="m311.144531 260.253906 10.605469 10.605469 64.164062-64.160156h25.410157v-15h-31.625zm0 0" fill="#ffffff" data-original="#000000" style=""/><path xmlns="http://www.w3.org/2000/svg" d="m318.960938 391.757812-10.609376-10.605468 71.863282-71.863282 10.605468 10.609376zm78.933593-78.933593-10.609375-10.605469 10.605469-10.605469 10.609375 10.605469zm17.679688-17.679688-10.609375-10.605469 10.605468-10.605468 10.609376 10.605468zm0 0" fill="#ffffff" data-original="#000000" style=""/><path xmlns="http://www.w3.org/2000/svg" d="m303.523438 182.058594-5.839844-13.820313c15.488281-6.546875 28.472656-17.527343 37.550781-31.761719l12.648437 8.066407c-10.71875 16.804687-26.058593 29.777343-44.359374 37.515625zm49.667968-46.957032-13.46875-6.609374c2.019532-4.109376 3.699219-8.410157 5-12.785157l14.378906 4.269531c-1.535156 5.175782-3.523437 10.265626-5.910156 15.125zm8.410156-25.679687-14.769531-2.625c.796875-4.488281 1.222657-9.089844 1.269531-13.675781l15 .144531c-.054687 5.417969-.558593 10.851563-1.5 16.15625zm0 0" fill="#ffffff" data-original="#000000" style=""/><path xmlns="http://www.w3.org/2000/svg" d="m255.308594 82.003906c-3.980469-11.585937-10.394532-21.941406-19.066406-30.78125l10.707031-10.503906c10.25 10.449219 17.832031 22.699219 22.546875 36.410156zm0 0" fill="#ffffff" data-original="#000000" style=""/></g></svg>
