<?xml version="1.0"?>
<svg xmlns="http://www.w3.org/2000/svg" xmlns:xlink="http://www.w3.org/1999/xlink" xmlns:svgjs="http://svgjs.com/svgjs" version="1.1" width="512" height="512" x="0" y="0" viewBox="0 0 512 512" style="enable-background:new 0 0 512 512" xml:space="preserve"><g>
<g xmlns="http://www.w3.org/2000/svg">
	<g>
		<path d="M385.782,219.44h-4.839v-94.498C380.943,56.049,324.894,0,256.001,0c-68.894,0-124.943,56.049-124.943,124.942v94.498    h-4.839c-19.169,0-34.764,15.596-34.764,34.764v188.981c0,37.944,30.87,68.815,68.815,68.815h191.462    c37.944,0,68.814-30.871,68.814-68.815V254.204C420.546,235.036,404.951,219.44,385.782,219.44z M161.012,124.942L161.012,124.942    c0-52.377,42.611-94.987,94.988-94.987c52.376,0,94.987,42.611,94.987,94.987v94.498h-14.683v-95.038    c0-44.28-36.024-80.304-80.304-80.304s-80.304,36.024-80.304,80.304v95.038h-14.684V124.942z M306.349,124.402v95.038H205.652    v-95.038c0-27.763,22.586-50.349,50.349-50.349S306.349,96.64,306.349,124.402z M351.731,482.045H160.27    c-21.427,0-38.86-17.432-38.86-38.86V254.204c0-2.652,2.157-4.809,4.809-4.809h259.562c2.652,0,4.809,2.158,4.809,4.809v188.981    h0.001C390.59,464.612,373.158,482.045,351.731,482.045z" fill="#ffffff" data-original="#000000" style=""/>
	</g>
</g>
<g xmlns="http://www.w3.org/2000/svg">
	<g>
		<path d="M277.093,365.008l22.045-22.046c5.852-5.849,5.852-15.333,0.002-21.181c-5.848-5.849-15.332-5.849-21.181,0    l-22.045,22.046l-21.384-21.384c-5.847-5.849-15.331-5.849-21.181,0c-5.849,5.848-5.849,15.332,0,21.181l21.384,21.384    l-20.237,20.238c-5.849,5.849-5.849,15.332,0,21.181c2.925,2.925,6.758,4.387,10.59,4.387s7.667-1.462,10.59-4.387l20.237-20.238    l20.899,20.899c2.925,2.925,6.758,4.387,10.59,4.387s7.667-1.463,10.59-4.387c5.849-5.848,5.849-15.332,0-21.181L277.093,365.008z    " fill="#ffffff" data-original="#000000" style=""/>
	</g>
</g>
<g xmlns="http://www.w3.org/2000/svg">
</g>
<g xmlns="http://www.w3.org/2000/svg">
</g>
<g xmlns="http://www.w3.org/2000/svg">
</g>
<g xmlns="http://www.w3.org/2000/svg">
</g>
<g xmlns="http://www.w3.org/2000/svg">
</g>
<g xmlns="http://www.w3.org/2000/svg">
</g>
<g xmlns="http://www.w3.org/2000/svg">
</g>
<g xmlns="http://www.w3.org/2000/svg">
</g>
<g xmlns="http://www.w3.org/2000/svg">
</g>
<g xmlns="http://www.w3.org/2000/svg">
</g>
<g xmlns="http://www.w3.org/2000/svg">
</g>
<g xmlns="http://www.w3.org/2000/svg">
</g>
<g xmlns="http://www.w3.org/2000/svg">
</g>
<g xmlns="http://www.w3.org/2000/svg">
</g>
<g xmlns="http://www.w3.org/2000/svg">
</g>
</g></svg>
