<?xml version="1.0" encoding="UTF-8" standalone="no"?>
<svg
   xmlns:dc="http://purl.org/dc/elements/1.1/"
   xmlns:cc="http://creativecommons.org/ns#"
   xmlns:rdf="http://www.w3.org/1999/02/22-rdf-syntax-ns#"
   xmlns:svg="http://www.w3.org/2000/svg"
   xmlns="http://www.w3.org/2000/svg"
   xmlns:xlink="http://www.w3.org/1999/xlink"
   xmlns:sodipodi="http://sodipodi.sourceforge.net/DTD/sodipodi-0.dtd"
   xmlns:inkscape="http://www.inkscape.org/namespaces/inkscape"
   width="244.94096mm"
   height="73.474037mm"
   viewBox="0 0 244.94097 73.474037"
   version="1.1"
   id="svg8098"
   inkscape:version="1.0.1 (0767f8302a, 2020-10-17)"
   sodipodi:docname="logo_simple.svg"
   inkscape:export-filename="/home/skate/InTouch/side_logo.png"
   inkscape:export-xdpi="314.20001"
   inkscape:export-ydpi="314.20001">
  <defs
     id="defs8092">
    <linearGradient
       inkscape:collect="always"
       xlink:href="#linearGradient959"
       id="linearGradient3540-4-2-8-3-3-7"
       gradientUnits="userSpaceOnUse"
       gradientTransform="matrix(0.03530407,0,0,0.03530407,-2.8069006,53.183323)"
       x1="217.91016"
       y1="-1487.5371"
       x2="217.91016"
       y2="-1023.9703" />
    <linearGradient
       inkscape:collect="always"
       id="linearGradient959">
      <stop
         style="stop-color:#f7cad0;stop-opacity:1;"
         offset="0"
         id="stop955" />
      <stop
         style="stop-color:#b76e79;stop-opacity:1"
         offset="1"
         id="stop957" />
    </linearGradient>
  </defs>
  <sodipodi:namedview
     id="base"
     pagecolor="#ffffff"
     bordercolor="#666666"
     borderopacity="1.0"
     inkscape:pageopacity="0.0"
     inkscape:pageshadow="2"
     inkscape:zoom="0.6860553"
     inkscape:cx="578.27358"
     inkscape:cy="363.70637"
     inkscape:document-units="mm"
     inkscape:current-layer="g8691"
     inkscape:document-rotation="0"
     showgrid="false"
     fit-margin-top="2"
     fit-margin-left="2"
     fit-margin-right="2"
     fit-margin-bottom="2"
     lock-margins="true"
     inkscape:window-width="1848"
     inkscape:window-height="1016"
     inkscape:window-x="72"
     inkscape:window-y="27"
     inkscape:window-maximized="1" />
  <metadata
     id="metadata8095">
    <rdf:RDF>
      <cc:Work
         rdf:about="">
        <dc:format>image/svg+xml</dc:format>
        <dc:type
           rdf:resource="http://purl.org/dc/dcmitype/StillImage" />
        <dc:title></dc:title>
      </cc:Work>
    </rdf:RDF>
  </metadata>
  <g
     inkscape:label="Layer 1"
     inkscape:groupmode="layer"
     id="layer1"
     transform="translate(1.4708333,1.4708333)">
    <g
       id="g8691"
       transform="matrix(4.2888991,0,0,4.2888991,-1.7902309,-2.3324778)">
      <g
         id="g3551-9-7-8-6-6-3"
         style="fill:#f7cad0;fill-opacity:1;stroke:none;stroke-opacity:1"
         transform="matrix(2.324791,0,0,2.324791,-4241.8465,-1431.1633)">
        <g
           aria-label="InTouch"
           id="text1208-5-0-6-6-9-2-6-3-2-4-8-6-3-8-3-7-4-4-3-3-5"
           style="font-size:7.64802px;line-height:1.25;font-family:sans-serif;letter-spacing:0px;fill:#f7cad0;fill-opacity:1;stroke:none;stroke-width:0.0972489;stroke-opacity:1">
          <path
             d="m 1830.9763,617.5639 q -0.2523,0.0765 -0.4894,0.14532 -0.2371,0.0688 -0.4436,0.20649 -0.1683,0.11472 -0.2753,0.29063 -0.069,0.12237 -0.077,0.26003 -0.01,0.13002 0.038,0.25239 0.054,0.11472 0.153,0.20649 0.099,0.0841 0.2371,0.12237 0.061,0.008 0.13,0.0382 0.031,0.008 0.031,0.0459 -0.015,0.0306 -0.031,0.0306 -0.038,0.0153 -0.1071,0.0153 -0.2447,-0.008 -0.4665,-0.16826 -0.2218,-0.16826 -0.2983,-0.3977 -0.069,-0.19885 -0.015,-0.37475 0.053,-0.1759 0.2065,-0.32122 0.1606,-0.15296 0.3442,-0.26003 0.1835,-0.10707 0.4053,-0.16061 0.153,-0.0382 0.2906,-0.0841 0.1377,-0.0535 0.2754,-0.11472 0.046,-0.0153 0.092,-0.0306 0.046,-0.0153 0.084,-0.0306 0.092,-0.0229 0.1759,-0.0918 0.1223,-0.10707 0.26,-0.0994 0.1377,0.008 0.283,0.0918 0.061,0.0382 0.069,0.0765 0.015,0.0382 0,0.10707 -0.13,0.41299 -0.1606,0.82598 -0.023,0.413 -0.023,0.83364 0,0.39005 0.023,0.7648 0.023,0.37475 0.015,0.75715 0,0.2065 0.01,0.413 0.01,0.20649 -0.023,0.41299 -0.015,0.13002 -0.038,0.25238 -0.023,0.11473 -0.077,0.23709 -0.053,0.13002 -0.1453,0.1912 -0.092,0.0688 -0.2142,0.10708 -0.1682,0.0382 -0.3365,0.0153 -0.1606,-0.0153 -0.3212,-0.0612 -0.038,-0.008 -0.076,-0.0459 -0.053,-0.0382 -0.046,-0.0841 0.01,-0.0535 0.069,-0.0688 0.046,-0.0153 0.053,-0.0306 0.015,-0.023 0.031,-0.0612 0.084,-0.23709 0.1147,-0.48182 0.031,-0.24474 0.038,-0.49712 0.015,-0.61949 0.031,-1.23133 0.023,-0.61185 0.069,-1.23134 0.015,-0.1912 0.038,-0.3824 0.031,-0.1912 0.099,-0.39005 z"
             style="font-style:normal;font-variant:normal;font-weight:normal;font-stretch:normal;font-size:7.64802px;font-family:'Hello Valentica';-inkscape-font-specification:'Hello Valentica';fill:#f7cad0;fill-opacity:1;stroke:none;stroke-width:0.0972489;stroke-opacity:1"
             id="path1586" />
          <path
             d="m 1834.3339,621.76267 q 0.1224,-0.0994 0.1989,-0.21415 0.084,-0.11472 0.1453,-0.24473 0.283,-0.55066 0.4589,-1.14721 0.015,-0.0382 0.023,-0.0765 0.015,-0.0459 0.031,-0.0918 0.023,-0.0459 0.077,-0.0382 0.061,0.0153 0.061,0.0688 0,0.16061 -0.038,0.33651 -0.053,0.22944 -0.1147,0.45888 -0.061,0.2218 -0.1529,0.43594 -0.061,0.14531 -0.1224,0.28298 -0.053,0.13001 -0.1377,0.26003 -0.038,0.0612 -0.084,0.11472 -0.038,0.0459 -0.084,0.0918 -0.1453,0.15296 -0.3518,0.0918 -0.3901,-0.0918 -0.5354,-0.45888 -0.099,-0.26768 -0.1071,-0.52771 -0.01,-0.2218 0.01,-0.44359 0.015,-0.22944 0.031,-0.45123 0.01,-0.1912 0.015,-0.3824 0.015,-0.1912 0,-0.3824 0,-0.0153 0,-0.0382 0,-0.0229 -0.015,-0.0459 -0.038,0.008 -0.061,0.0306 -0.023,0.0229 -0.053,0.0459 -0.061,0.0535 -0.1,0.12237 -0.038,0.0612 -0.077,0.13001 -0.1912,0.3824 -0.3135,0.7801 -0.1147,0.3977 -0.1759,0.81834 -0.015,0.11472 -0.038,0.22944 -0.023,0.11472 -0.038,0.22944 0,0.0382 -0.01,0.0688 0,0.0306 0.01,0.0688 0.01,0.14531 -0.1377,0.15296 -0.1453,0.008 -0.2676,-0.0688 -0.1148,-0.0765 -0.176,-0.20649 -0.061,-0.13002 -0.092,-0.26768 -0.023,-0.13767 -0.038,-0.27533 -0.046,-0.32122 -0.053,-0.64244 0,-0.32121 0.023,-0.64243 0.015,-0.19885 0.023,-0.3824 0.015,-0.1912 0.031,-0.39005 0.01,-0.10707 0.038,-0.13766 0.038,-0.0382 0.1453,-0.0382 0.2448,0 0.4436,0.1606 0.099,0.0765 0.077,0.19885 -0.061,0.32887 -0.084,0.65773 -0.015,0.32887 -0.023,0.65773 0,0.0306 0,0.0612 0,0.0306 0.015,0.0688 0.038,-0.12237 0.061,-0.22944 0.031,-0.11472 0.061,-0.22944 0.061,-0.2065 0.13,-0.413 0.076,-0.20649 0.1606,-0.40534 0.053,-0.14531 0.1759,-0.28298 0.1836,-0.21414 0.4665,-0.13766 0.4207,0.12237 0.5354,0.5583 0.069,0.26768 0.061,0.50477 -0.015,0.24474 -0.023,0.48948 -0.01,0.24473 -0.023,0.48947 -0.023,0.28298 0.01,0.54301 0,0.0153 0,0.0382 0.01,0.0153 0.015,0.0459 z"
             style="font-style:normal;font-variant:normal;font-weight:normal;font-stretch:normal;font-size:7.64802px;font-family:'Hello Valentica';-inkscape-font-specification:'Hello Valentica';fill:#f7cad0;fill-opacity:1;stroke:none;stroke-width:0.0972489;stroke-opacity:1"
             id="path1588" />
          <path
             d="m 1836.0668,619.41473 q 0,-0.2218 0.01,-0.6042 0.01,-0.3824 0.046,-0.79539 0.01,-0.0535 0.01,-0.10707 0.01,-0.0535 0.015,-0.10708 0.01,-0.0765 -0.061,-0.0688 -0.069,0.008 -0.1377,0.0153 -0.061,0.008 -0.13,0.0229 -0.107,0.0229 -0.2141,0.0535 -0.099,0.0306 -0.1989,0.0918 -0.1912,0.10708 -0.2982,0.28298 -0.1071,0.16826 -0.1759,0.3671 -0.084,0.25239 -0.015,0.48948 0.038,0.1759 0.1606,0.28297 0.13,0.10708 0.3135,0.12237 0.153,0.0153 0.2295,0.13002 0.046,0.10707 -0.054,0.0994 -0.13,-0.008 -0.2523,-0.0229 -0.1224,-0.0229 -0.2371,-0.11472 -0.2754,-0.23709 -0.3977,-0.52771 -0.1224,-0.29063 -0.1071,-0.64244 0,-0.15296 0.053,-0.29062 0.054,-0.13767 0.1301,-0.26768 0.4053,-0.65773 1.2007,-0.74951 0.2524,-0.0382 0.4971,-0.008 0.2524,0.023 0.4971,0.0612 0.2371,0.0382 0.4666,0.0841 0.2371,0.0382 0.4741,0.0535 0.2754,0.023 0.5278,-0.0459 0.076,-0.0229 0.1376,-0.0612 0.069,-0.0382 0.13,-0.0765 0.023,-0.0153 0.046,-0.0306 0.031,-0.0153 0.061,0.0153 0.061,0.0459 0.038,0.12237 -0.038,0.17591 -0.153,0.28298 -0.3595,0.31357 -0.826,0.39005 -0.1453,0.0229 -0.283,0.0229 -0.1376,-0.008 -0.2829,-0.0153 -0.069,-0.008 -0.084,0.008 -0.01,0.008 -0.01,0.0765 -0.01,0.45124 -0.031,0.90247 -0.023,0.44358 -0.046,0.89482 -0.015,0.45888 -0.023,0.91776 -0.01,0.45888 0.023,0.91776 0.01,0.16061 -0.069,0.30592 -0.069,0.11472 -0.1912,0.13767 -0.1683,0.0382 -0.3136,-0.023 -0.1453,-0.0612 -0.2447,-0.1912 -0.069,-0.0918 -0.1,-0.18355 -0.023,-0.0994 -0.038,-0.2065 -0.053,-0.44358 -0.069,-0.91011 -0.01,-0.46653 -0.023,-1.10131 z"
             style="font-style:normal;font-variant:normal;font-weight:normal;font-stretch:normal;font-size:7.64802px;font-family:'Hello Valentica';-inkscape-font-specification:'Hello Valentica';fill:#f7cad0;fill-opacity:1;stroke:none;stroke-width:0.0972489;stroke-opacity:1"
             id="path1590" />
          <path
             d="m 1839.5112,621.02081 q 0.2065,-0.0994 0.3365,-0.26003 0.1606,-0.21415 0.2294,-0.48948 0.015,-0.0382 0.023,-0.0765 0.01,-0.0459 0.023,-0.0918 0.01,-0.0306 0.015,-0.0459 0.01,-0.0229 0.046,-0.0153 0.038,0.008 0.069,0.0229 0.031,0.0153 0.031,0.0535 0,0.0306 0,0.0612 0.01,0.0229 0,0.0535 -0.046,0.27533 -0.1759,0.50477 -0.1223,0.22944 -0.3441,0.3977 -0.1148,0.0918 -0.2601,0.0918 -0.061,0 -0.099,0.0765 -0.038,0.10707 -0.084,0.20649 -0.038,0.0994 -0.1147,0.18356 -0.2448,0.32886 -0.6501,0.26768 -0.2754,-0.0382 -0.4895,-0.17591 -0.2141,-0.13766 -0.3518,-0.39005 -0.2677,-0.49712 -0.2524,-1.04778 0.01,-0.29062 0.084,-0.5583 0.077,-0.27533 0.2524,-0.51242 0.1071,-0.15296 0.2524,-0.22944 0.153,-0.0765 0.3518,-0.0535 0.1071,0.0153 0.2065,0.0153 0.1071,0 0.2065,0.0306 0.2753,0.0994 0.4589,0.27533 0.1912,0.16826 0.2524,0.46653 0.046,0.2065 0.046,0.41299 0,0.18356 -0.015,0.36711 -0.015,0.18355 -0.046,0.35946 -0.01,0.0229 -0.015,0.0459 0,0.023 0.015,0.0535 z m -0.3671,-0.80304 q 0,-0.29828 -0.069,-0.55066 -0.084,-0.30592 -0.3518,-0.43594 -0.023,-0.0153 -0.053,-0.0229 -0.023,-0.008 -0.046,0.0229 -0.038,0.0382 -0.077,0.0765 -0.038,0.0382 -0.069,0.0765 -0.099,0.13002 -0.1606,0.26768 -0.054,0.13767 -0.092,0.29063 -0.1912,0.72656 0.1147,1.45312 0.031,0.0612 0.061,0.11472 0.031,0.0459 0.069,0.0994 0.038,0.0535 0.061,0.0612 0.031,0.008 0.092,-0.0229 0.084,-0.0382 0.1377,-0.0994 0.061,-0.0612 0.099,-0.13766 0.038,-0.0688 0.061,-0.13767 0.031,-0.0765 0.061,-0.15296 0.023,-0.0841 -0.023,-0.13766 -0.092,-0.0918 -0.099,-0.1912 -0.023,-0.15296 0.053,-0.25239 0.031,-0.0459 0.076,-0.0535 0.046,-0.008 0.092,0.008 0.031,0.008 0.031,-0.008 0.01,-0.023 0.015,-0.0459 0.01,-0.0612 0.01,-0.12237 0.01,-0.0612 0.01,-0.0994 z"
             style="font-style:normal;font-variant:normal;font-weight:normal;font-stretch:normal;font-size:7.64802px;font-family:'Hello Valentica';-inkscape-font-specification:'Hello Valentica';fill:#f7cad0;fill-opacity:1;stroke:none;stroke-width:0.0972489;stroke-opacity:1"
             id="path1592" />
          <path
             d="m 1840.8578,621.63265 q 0.1683,-0.27533 0.2983,-0.55066 0.1453,-0.32886 0.26,-0.66537 0.1224,-0.33652 0.2295,-0.68068 0.038,-0.12237 0.046,-0.24473 0.01,-0.12237 0.031,-0.24474 0.023,-0.10707 0.061,-0.14531 0.038,-0.0459 0.1453,-0.0612 0.2677,-0.0535 0.5201,0.0765 0.084,0.0459 0.099,0.0994 0.023,0.0459 0.01,0.13766 -0.069,0.34416 -0.1147,0.68832 -0.046,0.33652 -0.054,0.68068 -0.015,0.21414 0,0.42829 0.023,0.20649 0.084,0.41299 0.015,0.0382 0.023,0.0765 0.01,0.0306 0.038,0.0612 0.054,-0.0153 0.084,-0.0459 0.031,-0.0382 0.061,-0.0765 0.3365,-0.47417 0.5124,-1.04013 0.038,-0.13001 0.069,-0.26003 0.038,-0.13001 0.1071,-0.25238 0.01,-0.0153 0.01,-0.023 0,-0.008 0.01,-0.0229 0.031,-0.0612 0.092,-0.0535 0.038,0.0153 0.038,0.0382 0,0.023 0,0.0459 0.015,0.10707 -0.01,0.2065 -0.023,0.0918 -0.053,0.1912 -0.092,0.29827 -0.1759,0.59654 -0.084,0.29828 -0.2218,0.58125 -0.015,0.0306 -0.031,0.0612 -0.015,0.0229 -0.031,0.0535 -0.1147,0.19885 -0.2447,0.26004 -0.13,0.0612 -0.3671,0.0229 -0.4818,-0.0841 -0.6195,-0.55831 -0.046,-0.13766 -0.069,-0.28297 -0.023,-0.14531 -0.031,-0.29828 -0.01,-0.0612 -0.01,-0.12236 0,-0.0612 -0.01,-0.13002 -0.038,0.0306 -0.046,0.0612 0,0.023 -0.015,0.0535 -0.084,0.24474 -0.1683,0.48947 -0.076,0.24474 -0.1759,0.48948 -0.015,0.0306 -0.031,0.0612 -0.01,0.0306 -0.023,0.0612 -0.092,0.22179 -0.3442,0.22179 -0.4206,0 -0.6195,-0.35946 -0.076,-0.13002 -0.1223,-0.27533 -0.038,-0.14531 -0.061,-0.29827 -0.061,-0.40535 -0.054,-0.80304 0.01,-0.3977 0.1,-0.7954 0.015,-0.0612 0.031,-0.11472 0.023,-0.0612 0.038,-0.12237 0.077,-0.20649 0.283,-0.22944 0.3059,-0.0612 0.5736,0.0841 0.1453,0.0841 0.069,0.22944 -0.1071,0.19885 -0.1682,0.413 -0.061,0.20649 -0.1,0.42829 -0.038,0.16825 -0.061,0.32886 -0.023,0.16061 -0.031,0.33651 0,0.1912 0.015,0.3824 0.023,0.18356 0.092,0.36711 0,0.008 0.031,0.0306 z"
             style="font-style:normal;font-variant:normal;font-weight:normal;font-stretch:normal;font-size:7.64802px;font-family:'Hello Valentica';-inkscape-font-specification:'Hello Valentica';fill:#f7cad0;fill-opacity:1;stroke:none;stroke-width:0.0972489;stroke-opacity:1"
             id="path1594" />
          <path
             d="m 1843.2274,620.63841 q 0.01,-0.32887 0.069,-0.61949 0.069,-0.29063 0.2218,-0.55066 0.1071,-0.19885 0.2753,-0.31357 0.1683,-0.12237 0.3977,-0.15296 0.3213,-0.0382 0.6119,0.13767 0.1377,0.0841 0.1988,0.21414 0.069,0.13002 0.084,0.28298 0.023,0.29062 -0.1224,0.56595 -0.031,0.0688 -0.084,0.10707 -0.046,0.0306 -0.084,0.0153 -0.031,-0.0229 -0.031,-0.0765 0,-0.0841 0,-0.17591 0.01,-0.0918 0,-0.1759 -0.015,-0.13002 -0.046,-0.25238 -0.023,-0.13002 -0.1,-0.23709 -0.092,-0.13002 -0.1376,-0.12237 -0.038,0 -0.13,0.12237 -0.1454,0.18355 -0.2142,0.43593 -0.061,0.24474 -0.099,0.49713 -0.038,0.24473 -0.038,0.49712 0,0.25238 0.069,0.50477 0.069,0.24473 0.2524,0.39769 0.069,0.0688 0.1529,0.0229 0.1377,-0.0535 0.2524,-0.16061 0.3289,-0.32122 0.5583,-0.68832 0.2295,-0.36711 0.3442,-0.81069 0.015,-0.0382 0.015,-0.0612 0.01,-0.0306 0.023,-0.0612 0.023,-0.0688 0.084,-0.0612 0.061,0.008 0.061,0.0841 -0.01,0.0306 -0.01,0.0535 0,0.0229 -0.01,0.0535 -0.13,0.44359 -0.3288,0.85658 -0.1912,0.40535 -0.4972,0.76481 -0.4053,0.47417 -1.0401,0.1759 -0.2447,-0.11472 -0.3977,-0.31357 -0.1453,-0.19885 -0.2294,-0.44358 -0.046,-0.13767 -0.069,-0.26769 -0.015,-0.13766 -0.01,-0.24473 z"
             style="font-style:normal;font-variant:normal;font-weight:normal;font-stretch:normal;font-size:7.64802px;font-family:'Hello Valentica';-inkscape-font-specification:'Hello Valentica';fill:#f7cad0;fill-opacity:1;stroke:none;stroke-width:0.0972489;stroke-opacity:1"
             id="path1596" />
          <path
             d="m 1847.2795,619.36119 q -0.061,0.0382 -0.1147,0.0918 -0.046,0.0535 -0.084,0.11472 -0.13,0.18355 -0.2218,0.37475 -0.084,0.1912 -0.1606,0.3977 -0.084,0.24473 -0.1453,0.49712 -0.061,0.24473 -0.13,0.49712 -0.038,0.12237 -0.069,0.24473 -0.031,0.12237 -0.069,0.24474 -0.038,0.13002 -0.1606,0.13767 -0.1759,0.0229 -0.3136,-0.0612 -0.1377,-0.0918 -0.1759,-0.26768 -0.038,-0.14531 -0.061,-0.29062 -0.015,-0.15296 -0.031,-0.30592 -0.015,-0.26769 -0.031,-0.53537 -0.01,-0.26768 0,-0.53536 0.015,-0.34416 0.046,-0.66538 0.038,-0.32886 0.084,-0.66537 0.015,-0.0688 0.023,-0.13767 0.01,-0.0688 0.015,-0.13766 0.038,-0.23709 0.099,-0.41299 0.038,-0.10708 0.069,-0.2065 0.03,-0.10707 0.069,-0.21415 0.1224,-0.39769 0.3824,-0.68067 0.2218,-0.23709 0.4742,-0.22179 0.26,0.008 0.4588,0.15296 0.1377,0.0994 0.1836,0.24473 0.053,0.13767 0.038,0.29063 -0.053,0.62714 -0.2906,1.17015 -0.2371,0.53536 -0.6883,0.97894 -0.084,0.0765 -0.1147,0.16061 -0.031,0.0765 -0.038,0.18355 -0.015,0.19885 -0.015,0.40535 0,0.19885 -0.015,0.3977 v 0.18355 q 0.038,0 0.038,-0.023 0,-0.0229 0.01,-0.0382 0.046,-0.15296 0.092,-0.29827 0.046,-0.14531 0.099,-0.29827 0.077,-0.22179 0.1759,-0.42829 0.1,-0.21414 0.2371,-0.41299 0.077,-0.11472 0.1759,-0.1912 0.092,-0.0765 0.2295,-0.0612 0.3365,0.0612 0.4971,0.35181 0.099,0.2065 0.1071,0.3977 0.023,0.18355 0.015,0.3671 -0.01,0.17591 -0.023,0.35181 -0.015,0.26768 -0.015,0.52772 0,0.26003 0.023,0.52771 0.01,0.0153 0.01,0.0306 0,0.0153 0.015,0.0306 0.076,-0.0382 0.13,-0.0918 0.054,-0.0535 0.099,-0.11472 0.1683,-0.2218 0.2907,-0.46653 0.13,-0.24474 0.2065,-0.52007 0.031,-0.10707 0.061,-0.20649 0.031,-0.0994 0.076,-0.19885 0.061,-0.12237 0.1224,-0.0994 0.053,0.023 0.046,0.0688 0,0.0382 0,0.0765 -0.015,0.15297 -0.054,0.30593 -0.038,0.14531 -0.092,0.29827 -0.092,0.26768 -0.1989,0.52006 -0.107,0.25239 -0.2524,0.49713 -0.015,0.0382 -0.038,0.0688 -0.023,0.0229 -0.046,0.0535 -0.1377,0.19885 -0.3824,0.17591 -0.6195,-0.0535 -0.7342,-0.65008 -0.038,-0.18356 -0.023,-0.36711 0.023,-0.18355 0.038,-0.3671 0.023,-0.28298 0.038,-0.55831 0.023,-0.28298 0.031,-0.5736 0,-0.0306 0,-0.0535 0,-0.0306 -0.015,-0.0612 z m -0.9483,0.0382 q 0.038,-0.008 0.046,-0.0153 0.015,-0.0153 0.031,-0.0306 0.3135,-0.3671 0.4894,-0.7801 0.1836,-0.41299 0.2448,-0.88717 0.015,-0.15296 0.015,-0.29827 0,-0.15296 -0.054,-0.30592 -0.015,-0.0306 -0.031,-0.0535 -0.01,-0.0306 -0.023,-0.0612 -0.038,-0.0459 -0.076,-0.0153 -0.038,0.0306 -0.069,0.0612 -0.031,0.0306 -0.054,0.0688 -0.2218,0.34416 -0.3135,0.71891 -0.061,0.26768 -0.1071,0.55066 -0.038,0.27533 -0.069,0.55831 -0.015,0.12236 -0.015,0.24473 0,0.11472 -0.015,0.24474 z"
             style="font-style:normal;font-variant:normal;font-weight:normal;font-stretch:normal;font-size:7.64802px;font-family:'Hello Valentica';-inkscape-font-specification:'Hello Valentica';fill:#f7cad0;fill-opacity:1;stroke:none;stroke-width:0.0972489;stroke-opacity:1"
             id="path1598" />
        </g>
      </g>
      <path
         id="path914-6-9-7-1-2-9-6-3-0-35-6-0-0-0-0-5-2-3-2-0-0-4"
         style="fill:url(#linearGradient3540-4-2-8-3-3-7);fill-opacity:1;stroke:none;stroke-width:0.0798976;paint-order:markers stroke fill;stop-color:#000000"
         d="m 4.8860114,0.66722299 a 2.3875391,2.3875391 0 0 0 -2.372498,2.38750001 2.3875391,2.3875391 0 0 0 1.888497,2.33477 c -0.781699,-0.0816 -1.7275,-0.45296 -1.7275,-0.45296 0,0 -2.72240002,0.25318 -2.01700002,5.09489 0.70540102,4.84171 5.31640002,4.27095 5.31640002,4.27095 0,0 -1.345798,-0.19106 -2.4961,-1.31183 -1.150398,-1.12076 -0.963599,-1.85463 -0.963599,-1.85463 0,0 1.3953,-0.26359 2.270101,0.13377 0.874899,0.39738 1.851,2.07737 2.460099,2.5123 0.609099,0.43493 1.103799,0.13639 1.103799,0.13639 0,0 -1.561299,1.51238 -3.789997,1.42326 -2.228702,-0.0891 -4.00300102,-3.18797 -4.00300102,-3.18797 0,0 0.1094,4.71213 5.39770102,4.71213 5.2881996,0 4.2366996,-6.03224 4.2366996,-6.03224 0,0 -2.0241026,0.86005 -4.2860006,-0.76433 -2.261799,-1.62441 -1.7214,-3.56386 -1.7214,-3.56386 0,0 0.349098,0.29507 1.265699,0.42599 0.916602,0.13093 2.1232,0.12213 2.7357,0.62071 0.612599,0.4986 0.561601,1.1507 0.561601,1.1507 0,0 -0.430501,0.0409 -1.1372,-0.0877 -0.706702,-0.12856 -2.027202,-0.88771 -2.027202,-0.88771 0,0 0.552203,1.05197 1.927902,1.7259 1.375601,0.67394 2.7473006,0.23886 2.7473006,0.23886 0,0 0.103801,-1.92477 -1.1282026,-3.40278 -1.061497,-1.27335 -2.1705,-1.57237 -2.457898,-1.63095 a 2.3875391,2.3875391 0 0 0 0.618699,-1.60365 2.3875391,2.3875391 0 0 0 -2.387498,-2.38750001 2.3875391,2.3875391 0 0 0 -0.01499,0 z" />
    </g>
  </g>
</svg>
