<?xml version="1.0"?>
<svg xmlns="http://www.w3.org/2000/svg" xmlns:xlink="http://www.w3.org/1999/xlink" xmlns:svgjs="http://svgjs.com/svgjs" version="1.1" width="512" height="512" x="0" y="0" viewBox="0 0 480.004 480.004" style="enable-background:new 0 0 512 512" xml:space="preserve" class=""><g>
<g xmlns="http://www.w3.org/2000/svg">
	<g>
		<path d="M271.634,216.202c5.392-6.917,8.335-15.428,8.368-24.198c0-22.091-17.909-40-40-40c-22.091,0-40,17.909-40,40    c0.033,8.77,2.976,17.281,8.368,24.198c-27.25,2.06-48.323,24.748-48.368,52.076v59.727c-0.003,4.416,3.575,7.997,7.991,8    c0.003,0,0.006,0,0.009,0h24v104c-0.003,4.416,3.575,7.997,7.991,8c0.003,0,0.006,0,0.009,0h80c4.416,0.003,7.997-3.575,8-7.991    c0-0.003,0-0.006,0-0.009v-104h24c4.416,0.003,7.997-3.575,8-7.991c0-0.003,0-0.006,0-0.009v-59.727    C319.957,240.95,298.884,218.261,271.634,216.202z M240.002,168.004c13.255,0,24,10.745,24,24s-10.745,24-24,24s-24-10.745-24-24    C216.016,178.755,226.753,168.018,240.002,168.004z M304.002,320.004h-16v-64h-16v176h-24v-96h-16v96h-24v-176h-16v64h-16v-51.727    c0.023-20.024,16.25-36.25,36.273-36.273h55.453c20.024,0.023,36.25,16.25,36.273,36.273V320.004z" fill="#ffffff" data-original="#000000" style=""/>
	</g>
</g>
<g xmlns="http://www.w3.org/2000/svg">
	<g>
		<path d="M245.104,1.84c-2.959-2.453-7.245-2.453-10.203,0l-232,192l10.203,12.328l90.898-75.227v341.063    c-0.003,4.416,3.575,7.997,7.991,8c0.003,0,0.006,0,0.009,0h256c4.416,0.003,7.997-3.575,8-7.991c0-0.003,0-0.006,0-0.009V130.94    l90.898,75.228l10.203-12.328L245.104,1.84z M240.002,18.387l113.119,93.617H126.883L240.002,18.387z M360.002,464.004h-240v-336    h240V464.004z" fill="#ffffff" data-original="#000000" style=""/>
	</g>
</g>
<g xmlns="http://www.w3.org/2000/svg">
</g>
<g xmlns="http://www.w3.org/2000/svg">
</g>
<g xmlns="http://www.w3.org/2000/svg">
</g>
<g xmlns="http://www.w3.org/2000/svg">
</g>
<g xmlns="http://www.w3.org/2000/svg">
</g>
<g xmlns="http://www.w3.org/2000/svg">
</g>
<g xmlns="http://www.w3.org/2000/svg">
</g>
<g xmlns="http://www.w3.org/2000/svg">
</g>
<g xmlns="http://www.w3.org/2000/svg">
</g>
<g xmlns="http://www.w3.org/2000/svg">
</g>
<g xmlns="http://www.w3.org/2000/svg">
</g>
<g xmlns="http://www.w3.org/2000/svg">
</g>
<g xmlns="http://www.w3.org/2000/svg">
</g>
<g xmlns="http://www.w3.org/2000/svg">
</g>
<g xmlns="http://www.w3.org/2000/svg">
</g>
</g></svg>
