<?xml version="1.0" encoding="UTF-8" standalone="no"?>
<svg
   xmlns:dc="http://purl.org/dc/elements/1.1/"
   xmlns:cc="http://creativecommons.org/ns#"
   xmlns:rdf="http://www.w3.org/1999/02/22-rdf-syntax-ns#"
   xmlns:svg="http://www.w3.org/2000/svg"
   xmlns="http://www.w3.org/2000/svg"
   xmlns:xlink="http://www.w3.org/1999/xlink"
   xmlns:sodipodi="http://sodipodi.sourceforge.net/DTD/sodipodi-0.dtd"
   xmlns:inkscape="http://www.inkscape.org/namespaces/inkscape"
   width="201.2mm"
   height="70.674042mm"
   viewBox="0 0 201.2 70.674042"
   version="1.1"
   id="svg8098"
   inkscape:version="1.0.1 (0767f8302a, 2020-10-17)"
   sodipodi:docname="side_logo_lighter.svg"
   inkscape:export-filename="/home/skate/InTouch/side_logo.png"
   inkscape:export-xdpi="314.20001"
   inkscape:export-ydpi="314.20001">
  <defs
     id="defs8092">
    <linearGradient
       inkscape:collect="always"
       xlink:href="#linearGradient959"
       id="linearGradient3540-4-2-8-3-3-7"
       gradientUnits="userSpaceOnUse"
       gradientTransform="matrix(0.03530407,0,0,0.03530407,-2.8069006,53.183323)"
       x1="217.91016"
       y1="-1487.5371"
       x2="217.91016"
       y2="-1023.9703" />
    <linearGradient
       inkscape:collect="always"
       id="linearGradient959">
      <stop
         style="stop-color:#f7cad0;stop-opacity:1;"
         offset="0"
         id="stop955" />
      <stop
         style="stop-color:#b76e79;stop-opacity:1"
         offset="1"
         id="stop957" />
    </linearGradient>
  </defs>
  <sodipodi:namedview
     id="base"
     pagecolor="#ffffff"
     bordercolor="#666666"
     borderopacity="1.0"
     inkscape:pageopacity="0.0"
     inkscape:pageshadow="2"
     inkscape:zoom="1.3740468"
     inkscape:cx="409.19387"
     inkscape:cy="126.78851"
     inkscape:document-units="mm"
     inkscape:current-layer="g3551-9-7-8-6-6-3"
     inkscape:document-rotation="0"
     showgrid="false"
     fit-margin-top="0.6"
     fit-margin-left="1"
     fit-margin-right="0.6"
     fit-margin-bottom="0.6"
     lock-margins="true"
     inkscape:window-width="1848"
     inkscape:window-height="1016"
     inkscape:window-x="72"
     inkscape:window-y="27"
     inkscape:window-maximized="1" />
  <metadata
     id="metadata8095">
    <rdf:RDF>
      <cc:Work
         rdf:about="">
        <dc:format>image/svg+xml</dc:format>
        <dc:type
           rdf:resource="http://purl.org/dc/dcmitype/StillImage" />
        <dc:title></dc:title>
      </cc:Work>
    </rdf:RDF>
  </metadata>
  <g
     inkscape:label="Layer 1"
     inkscape:groupmode="layer"
     id="layer1"
     transform="translate(0.07083328,0.07083329)">
    <g
       id="g8691"
       transform="matrix(4.2888991,0,0,4.2888991,-1.7902309,-2.3324778)">
      <g
         id="g3551-9-7-8-6-6-3"
         style="fill:#f7cad0;fill-opacity:1;stroke:none;stroke-opacity:1"
         transform="matrix(1.7934631,0,0,1.7934631,-3268.9565,-1104.5478)">
        <g
           aria-label="InTouch"
           id="text1208-5-0-6-6-9-2-6-3-2-4-8-6-3-8-3-7-4-4-3-3-5"
           style="font-size:7.64802px;line-height:1.25;font-family:sans-serif;letter-spacing:0px;fill:#f7cad0;fill-opacity:1;stroke:none;stroke-width:0.0972489;stroke-opacity:1">
          <path
             d="m 1830.9763,617.5639 q -0.2523,0.0765 -0.4894,0.14532 -0.2371,0.0688 -0.4436,0.20649 -0.1683,0.11472 -0.2753,0.29063 -0.069,0.12237 -0.077,0.26003 -0.01,0.13002 0.038,0.25239 0.054,0.11472 0.153,0.20649 0.099,0.0841 0.2371,0.12237 0.061,0.008 0.13,0.0382 0.031,0.008 0.031,0.0459 -0.015,0.0306 -0.031,0.0306 -0.038,0.0153 -0.1071,0.0153 -0.2447,-0.008 -0.4665,-0.16826 -0.2218,-0.16826 -0.2983,-0.3977 -0.069,-0.19885 -0.015,-0.37475 0.053,-0.1759 0.2065,-0.32122 0.1606,-0.15296 0.3442,-0.26003 0.1835,-0.10707 0.4053,-0.16061 0.153,-0.0382 0.2906,-0.0841 0.1377,-0.0535 0.2754,-0.11472 0.046,-0.0153 0.092,-0.0306 0.046,-0.0153 0.084,-0.0306 0.092,-0.0229 0.1759,-0.0918 0.1223,-0.10707 0.26,-0.0994 0.1377,0.008 0.283,0.0918 0.061,0.0382 0.069,0.0765 0.015,0.0382 0,0.10707 -0.13,0.41299 -0.1606,0.82598 -0.023,0.413 -0.023,0.83364 0,0.39005 0.023,0.7648 0.023,0.37475 0.015,0.75715 0,0.2065 0.01,0.413 0.01,0.20649 -0.023,0.41299 -0.015,0.13002 -0.038,0.25238 -0.023,0.11473 -0.077,0.23709 -0.053,0.13002 -0.1453,0.1912 -0.092,0.0688 -0.2142,0.10708 -0.1682,0.0382 -0.3365,0.0153 -0.1606,-0.0153 -0.3212,-0.0612 -0.038,-0.008 -0.076,-0.0459 -0.053,-0.0382 -0.046,-0.0841 0.01,-0.0535 0.069,-0.0688 0.046,-0.0153 0.053,-0.0306 0.015,-0.023 0.031,-0.0612 0.084,-0.23709 0.1147,-0.48182 0.031,-0.24474 0.038,-0.49712 0.015,-0.61949 0.031,-1.23133 0.023,-0.61185 0.069,-1.23134 0.015,-0.1912 0.038,-0.3824 0.031,-0.1912 0.099,-0.39005 z"
             style="font-style:normal;font-variant:normal;font-weight:normal;font-stretch:normal;font-size:7.64802px;font-family:'Hello Valentica';-inkscape-font-specification:'Hello Valentica';fill:#f7cad0;fill-opacity:1;stroke:none;stroke-width:0.0972489;stroke-opacity:1"
             id="path1586" />
          <path
             d="m 1834.3339,621.76267 q 0.1224,-0.0994 0.1989,-0.21415 0.084,-0.11472 0.1453,-0.24473 0.283,-0.55066 0.4589,-1.14721 0.015,-0.0382 0.023,-0.0765 0.015,-0.0459 0.031,-0.0918 0.023,-0.0459 0.077,-0.0382 0.061,0.0153 0.061,0.0688 0,0.16061 -0.038,0.33651 -0.053,0.22944 -0.1147,0.45888 -0.061,0.2218 -0.1529,0.43594 -0.061,0.14531 -0.1224,0.28298 -0.053,0.13001 -0.1377,0.26003 -0.038,0.0612 -0.084,0.11472 -0.038,0.0459 -0.084,0.0918 -0.1453,0.15296 -0.3518,0.0918 -0.3901,-0.0918 -0.5354,-0.45888 -0.099,-0.26768 -0.1071,-0.52771 -0.01,-0.2218 0.01,-0.44359 0.015,-0.22944 0.031,-0.45123 0.01,-0.1912 0.015,-0.3824 0.015,-0.1912 0,-0.3824 0,-0.0153 0,-0.0382 0,-0.0229 -0.015,-0.0459 -0.038,0.008 -0.061,0.0306 -0.023,0.0229 -0.053,0.0459 -0.061,0.0535 -0.1,0.12237 -0.038,0.0612 -0.077,0.13001 -0.1912,0.3824 -0.3135,0.7801 -0.1147,0.3977 -0.1759,0.81834 -0.015,0.11472 -0.038,0.22944 -0.023,0.11472 -0.038,0.22944 0,0.0382 -0.01,0.0688 0,0.0306 0.01,0.0688 0.01,0.14531 -0.1377,0.15296 -0.1453,0.008 -0.2676,-0.0688 -0.1148,-0.0765 -0.176,-0.20649 -0.061,-0.13002 -0.092,-0.26768 -0.023,-0.13767 -0.038,-0.27533 -0.046,-0.32122 -0.053,-0.64244 0,-0.32121 0.023,-0.64243 0.015,-0.19885 0.023,-0.3824 0.015,-0.1912 0.031,-0.39005 0.01,-0.10707 0.038,-0.13766 0.038,-0.0382 0.1453,-0.0382 0.2448,0 0.4436,0.1606 0.099,0.0765 0.077,0.19885 -0.061,0.32887 -0.084,0.65773 -0.015,0.32887 -0.023,0.65773 0,0.0306 0,0.0612 0,0.0306 0.015,0.0688 0.038,-0.12237 0.061,-0.22944 0.031,-0.11472 0.061,-0.22944 0.061,-0.2065 0.13,-0.413 0.076,-0.20649 0.1606,-0.40534 0.053,-0.14531 0.1759,-0.28298 0.1836,-0.21414 0.4665,-0.13766 0.4207,0.12237 0.5354,0.5583 0.069,0.26768 0.061,0.50477 -0.015,0.24474 -0.023,0.48948 -0.01,0.24473 -0.023,0.48947 -0.023,0.28298 0.01,0.54301 0,0.0153 0,0.0382 0.01,0.0153 0.015,0.0459 z"
             style="font-style:normal;font-variant:normal;font-weight:normal;font-stretch:normal;font-size:7.64802px;font-family:'Hello Valentica';-inkscape-font-specification:'Hello Valentica';fill:#f7cad0;fill-opacity:1;stroke:none;stroke-width:0.0972489;stroke-opacity:1"
             id="path1588" />
          <path
             d="m 1836.0668,619.41473 q 0,-0.2218 0.01,-0.6042 0.01,-0.3824 0.046,-0.79539 0.01,-0.0535 0.01,-0.10707 0.01,-0.0535 0.015,-0.10708 0.01,-0.0765 -0.061,-0.0688 -0.069,0.008 -0.1377,0.0153 -0.061,0.008 -0.13,0.0229 -0.107,0.0229 -0.2141,0.0535 -0.099,0.0306 -0.1989,0.0918 -0.1912,0.10708 -0.2982,0.28298 -0.1071,0.16826 -0.1759,0.3671 -0.084,0.25239 -0.015,0.48948 0.038,0.1759 0.1606,0.28297 0.13,0.10708 0.3135,0.12237 0.153,0.0153 0.2295,0.13002 0.046,0.10707 -0.054,0.0994 -0.13,-0.008 -0.2523,-0.0229 -0.1224,-0.0229 -0.2371,-0.11472 -0.2754,-0.23709 -0.3977,-0.52771 -0.1224,-0.29063 -0.1071,-0.64244 0,-0.15296 0.053,-0.29062 0.054,-0.13767 0.1301,-0.26768 0.4053,-0.65773 1.2007,-0.74951 0.2524,-0.0382 0.4971,-0.008 0.2524,0.023 0.4971,0.0612 0.2371,0.0382 0.4666,0.0841 0.2371,0.0382 0.4741,0.0535 0.2754,0.023 0.5278,-0.0459 0.076,-0.0229 0.1376,-0.0612 0.069,-0.0382 0.13,-0.0765 0.023,-0.0153 0.046,-0.0306 0.031,-0.0153 0.061,0.0153 0.061,0.0459 0.038,0.12237 -0.038,0.17591 -0.153,0.28298 -0.3595,0.31357 -0.826,0.39005 -0.1453,0.0229 -0.283,0.0229 -0.1376,-0.008 -0.2829,-0.0153 -0.069,-0.008 -0.084,0.008 -0.01,0.008 -0.01,0.0765 -0.01,0.45124 -0.031,0.90247 -0.023,0.44358 -0.046,0.89482 -0.015,0.45888 -0.023,0.91776 -0.01,0.45888 0.023,0.91776 0.01,0.16061 -0.069,0.30592 -0.069,0.11472 -0.1912,0.13767 -0.1683,0.0382 -0.3136,-0.023 -0.1453,-0.0612 -0.2447,-0.1912 -0.069,-0.0918 -0.1,-0.18355 -0.023,-0.0994 -0.038,-0.2065 -0.053,-0.44358 -0.069,-0.91011 -0.01,-0.46653 -0.023,-1.10131 z"
             style="font-style:normal;font-variant:normal;font-weight:normal;font-stretch:normal;font-size:7.64802px;font-family:'Hello Valentica';-inkscape-font-specification:'Hello Valentica';fill:#f7cad0;fill-opacity:1;stroke:none;stroke-width:0.0972489;stroke-opacity:1"
             id="path1590" />
          <path
             d="m 1839.5112,621.02081 q 0.2065,-0.0994 0.3365,-0.26003 0.1606,-0.21415 0.2294,-0.48948 0.015,-0.0382 0.023,-0.0765 0.01,-0.0459 0.023,-0.0918 0.01,-0.0306 0.015,-0.0459 0.01,-0.0229 0.046,-0.0153 0.038,0.008 0.069,0.0229 0.031,0.0153 0.031,0.0535 0,0.0306 0,0.0612 0.01,0.0229 0,0.0535 -0.046,0.27533 -0.1759,0.50477 -0.1223,0.22944 -0.3441,0.3977 -0.1148,0.0918 -0.2601,0.0918 -0.061,0 -0.099,0.0765 -0.038,0.10707 -0.084,0.20649 -0.038,0.0994 -0.1147,0.18356 -0.2448,0.32886 -0.6501,0.26768 -0.2754,-0.0382 -0.4895,-0.17591 -0.2141,-0.13766 -0.3518,-0.39005 -0.2677,-0.49712 -0.2524,-1.04778 0.01,-0.29062 0.084,-0.5583 0.077,-0.27533 0.2524,-0.51242 0.1071,-0.15296 0.2524,-0.22944 0.153,-0.0765 0.3518,-0.0535 0.1071,0.0153 0.2065,0.0153 0.1071,0 0.2065,0.0306 0.2753,0.0994 0.4589,0.27533 0.1912,0.16826 0.2524,0.46653 0.046,0.2065 0.046,0.41299 0,0.18356 -0.015,0.36711 -0.015,0.18355 -0.046,0.35946 -0.01,0.0229 -0.015,0.0459 0,0.023 0.015,0.0535 z m -0.3671,-0.80304 q 0,-0.29828 -0.069,-0.55066 -0.084,-0.30592 -0.3518,-0.43594 -0.023,-0.0153 -0.053,-0.0229 -0.023,-0.008 -0.046,0.0229 -0.038,0.0382 -0.077,0.0765 -0.038,0.0382 -0.069,0.0765 -0.099,0.13002 -0.1606,0.26768 -0.054,0.13767 -0.092,0.29063 -0.1912,0.72656 0.1147,1.45312 0.031,0.0612 0.061,0.11472 0.031,0.0459 0.069,0.0994 0.038,0.0535 0.061,0.0612 0.031,0.008 0.092,-0.0229 0.084,-0.0382 0.1377,-0.0994 0.061,-0.0612 0.099,-0.13766 0.038,-0.0688 0.061,-0.13767 0.031,-0.0765 0.061,-0.15296 0.023,-0.0841 -0.023,-0.13766 -0.092,-0.0918 -0.099,-0.1912 -0.023,-0.15296 0.053,-0.25239 0.031,-0.0459 0.076,-0.0535 0.046,-0.008 0.092,0.008 0.031,0.008 0.031,-0.008 0.01,-0.023 0.015,-0.0459 0.01,-0.0612 0.01,-0.12237 0.01,-0.0612 0.01,-0.0994 z"
             style="font-style:normal;font-variant:normal;font-weight:normal;font-stretch:normal;font-size:7.64802px;font-family:'Hello Valentica';-inkscape-font-specification:'Hello Valentica';fill:#f7cad0;fill-opacity:1;stroke:none;stroke-width:0.0972489;stroke-opacity:1"
             id="path1592" />
          <path
             d="m 1840.8578,621.63265 q 0.1683,-0.27533 0.2983,-0.55066 0.1453,-0.32886 0.26,-0.66537 0.1224,-0.33652 0.2295,-0.68068 0.038,-0.12237 0.046,-0.24473 0.01,-0.12237 0.031,-0.24474 0.023,-0.10707 0.061,-0.14531 0.038,-0.0459 0.1453,-0.0612 0.2677,-0.0535 0.5201,0.0765 0.084,0.0459 0.099,0.0994 0.023,0.0459 0.01,0.13766 -0.069,0.34416 -0.1147,0.68832 -0.046,0.33652 -0.054,0.68068 -0.015,0.21414 0,0.42829 0.023,0.20649 0.084,0.41299 0.015,0.0382 0.023,0.0765 0.01,0.0306 0.038,0.0612 0.054,-0.0153 0.084,-0.0459 0.031,-0.0382 0.061,-0.0765 0.3365,-0.47417 0.5124,-1.04013 0.038,-0.13001 0.069,-0.26003 0.038,-0.13001 0.1071,-0.25238 0.01,-0.0153 0.01,-0.023 0,-0.008 0.01,-0.0229 0.031,-0.0612 0.092,-0.0535 0.038,0.0153 0.038,0.0382 0,0.023 0,0.0459 0.015,0.10707 -0.01,0.2065 -0.023,0.0918 -0.053,0.1912 -0.092,0.29827 -0.1759,0.59654 -0.084,0.29828 -0.2218,0.58125 -0.015,0.0306 -0.031,0.0612 -0.015,0.0229 -0.031,0.0535 -0.1147,0.19885 -0.2447,0.26004 -0.13,0.0612 -0.3671,0.0229 -0.4818,-0.0841 -0.6195,-0.55831 -0.046,-0.13766 -0.069,-0.28297 -0.023,-0.14531 -0.031,-0.29828 -0.01,-0.0612 -0.01,-0.12236 0,-0.0612 -0.01,-0.13002 -0.038,0.0306 -0.046,0.0612 0,0.023 -0.015,0.0535 -0.084,0.24474 -0.1683,0.48947 -0.076,0.24474 -0.1759,0.48948 -0.015,0.0306 -0.031,0.0612 -0.01,0.0306 -0.023,0.0612 -0.092,0.22179 -0.3442,0.22179 -0.4206,0 -0.6195,-0.35946 -0.076,-0.13002 -0.1223,-0.27533 -0.038,-0.14531 -0.061,-0.29827 -0.061,-0.40535 -0.054,-0.80304 0.01,-0.3977 0.1,-0.7954 0.015,-0.0612 0.031,-0.11472 0.023,-0.0612 0.038,-0.12237 0.077,-0.20649 0.283,-0.22944 0.3059,-0.0612 0.5736,0.0841 0.1453,0.0841 0.069,0.22944 -0.1071,0.19885 -0.1682,0.413 -0.061,0.20649 -0.1,0.42829 -0.038,0.16825 -0.061,0.32886 -0.023,0.16061 -0.031,0.33651 0,0.1912 0.015,0.3824 0.023,0.18356 0.092,0.36711 0,0.008 0.031,0.0306 z"
             style="font-style:normal;font-variant:normal;font-weight:normal;font-stretch:normal;font-size:7.64802px;font-family:'Hello Valentica';-inkscape-font-specification:'Hello Valentica';fill:#f7cad0;fill-opacity:1;stroke:none;stroke-width:0.0972489;stroke-opacity:1"
             id="path1594" />
          <path
             d="m 1843.2274,620.63841 q 0.01,-0.32887 0.069,-0.61949 0.069,-0.29063 0.2218,-0.55066 0.1071,-0.19885 0.2753,-0.31357 0.1683,-0.12237 0.3977,-0.15296 0.3213,-0.0382 0.6119,0.13767 0.1377,0.0841 0.1988,0.21414 0.069,0.13002 0.084,0.28298 0.023,0.29062 -0.1224,0.56595 -0.031,0.0688 -0.084,0.10707 -0.046,0.0306 -0.084,0.0153 -0.031,-0.0229 -0.031,-0.0765 0,-0.0841 0,-0.17591 0.01,-0.0918 0,-0.1759 -0.015,-0.13002 -0.046,-0.25238 -0.023,-0.13002 -0.1,-0.23709 -0.092,-0.13002 -0.1376,-0.12237 -0.038,0 -0.13,0.12237 -0.1454,0.18355 -0.2142,0.43593 -0.061,0.24474 -0.099,0.49713 -0.038,0.24473 -0.038,0.49712 0,0.25238 0.069,0.50477 0.069,0.24473 0.2524,0.39769 0.069,0.0688 0.1529,0.0229 0.1377,-0.0535 0.2524,-0.16061 0.3289,-0.32122 0.5583,-0.68832 0.2295,-0.36711 0.3442,-0.81069 0.015,-0.0382 0.015,-0.0612 0.01,-0.0306 0.023,-0.0612 0.023,-0.0688 0.084,-0.0612 0.061,0.008 0.061,0.0841 -0.01,0.0306 -0.01,0.0535 0,0.0229 -0.01,0.0535 -0.13,0.44359 -0.3288,0.85658 -0.1912,0.40535 -0.4972,0.76481 -0.4053,0.47417 -1.0401,0.1759 -0.2447,-0.11472 -0.3977,-0.31357 -0.1453,-0.19885 -0.2294,-0.44358 -0.046,-0.13767 -0.069,-0.26769 -0.015,-0.13766 -0.01,-0.24473 z"
             style="font-style:normal;font-variant:normal;font-weight:normal;font-stretch:normal;font-size:7.64802px;font-family:'Hello Valentica';-inkscape-font-specification:'Hello Valentica';fill:#f7cad0;fill-opacity:1;stroke:none;stroke-width:0.0972489;stroke-opacity:1"
             id="path1596" />
          <path
             d="m 1847.2795,619.36119 q -0.061,0.0382 -0.1147,0.0918 -0.046,0.0535 -0.084,0.11472 -0.13,0.18355 -0.2218,0.37475 -0.084,0.1912 -0.1606,0.3977 -0.084,0.24473 -0.1453,0.49712 -0.061,0.24473 -0.13,0.49712 -0.038,0.12237 -0.069,0.24473 -0.031,0.12237 -0.069,0.24474 -0.038,0.13002 -0.1606,0.13767 -0.1759,0.0229 -0.3136,-0.0612 -0.1377,-0.0918 -0.1759,-0.26768 -0.038,-0.14531 -0.061,-0.29062 -0.015,-0.15296 -0.031,-0.30592 -0.015,-0.26769 -0.031,-0.53537 -0.01,-0.26768 0,-0.53536 0.015,-0.34416 0.046,-0.66538 0.038,-0.32886 0.084,-0.66537 0.015,-0.0688 0.023,-0.13767 0.01,-0.0688 0.015,-0.13766 0.038,-0.23709 0.099,-0.41299 0.038,-0.10708 0.069,-0.2065 0.03,-0.10707 0.069,-0.21415 0.1224,-0.39769 0.3824,-0.68067 0.2218,-0.23709 0.4742,-0.22179 0.26,0.008 0.4588,0.15296 0.1377,0.0994 0.1836,0.24473 0.053,0.13767 0.038,0.29063 -0.053,0.62714 -0.2906,1.17015 -0.2371,0.53536 -0.6883,0.97894 -0.084,0.0765 -0.1147,0.16061 -0.031,0.0765 -0.038,0.18355 -0.015,0.19885 -0.015,0.40535 0,0.19885 -0.015,0.3977 v 0.18355 q 0.038,0 0.038,-0.023 0,-0.0229 0.01,-0.0382 0.046,-0.15296 0.092,-0.29827 0.046,-0.14531 0.099,-0.29827 0.077,-0.22179 0.1759,-0.42829 0.1,-0.21414 0.2371,-0.41299 0.077,-0.11472 0.1759,-0.1912 0.092,-0.0765 0.2295,-0.0612 0.3365,0.0612 0.4971,0.35181 0.099,0.2065 0.1071,0.3977 0.023,0.18355 0.015,0.3671 -0.01,0.17591 -0.023,0.35181 -0.015,0.26768 -0.015,0.52772 0,0.26003 0.023,0.52771 0.01,0.0153 0.01,0.0306 0,0.0153 0.015,0.0306 0.076,-0.0382 0.13,-0.0918 0.054,-0.0535 0.099,-0.11472 0.1683,-0.2218 0.2907,-0.46653 0.13,-0.24474 0.2065,-0.52007 0.031,-0.10707 0.061,-0.20649 0.031,-0.0994 0.076,-0.19885 0.061,-0.12237 0.1224,-0.0994 0.053,0.023 0.046,0.0688 0,0.0382 0,0.0765 -0.015,0.15297 -0.054,0.30593 -0.038,0.14531 -0.092,0.29827 -0.092,0.26768 -0.1989,0.52006 -0.107,0.25239 -0.2524,0.49713 -0.015,0.0382 -0.038,0.0688 -0.023,0.0229 -0.046,0.0535 -0.1377,0.19885 -0.3824,0.17591 -0.6195,-0.0535 -0.7342,-0.65008 -0.038,-0.18356 -0.023,-0.36711 0.023,-0.18355 0.038,-0.3671 0.023,-0.28298 0.038,-0.55831 0.023,-0.28298 0.031,-0.5736 0,-0.0306 0,-0.0535 0,-0.0306 -0.015,-0.0612 z m -0.9483,0.0382 q 0.038,-0.008 0.046,-0.0153 0.015,-0.0153 0.031,-0.0306 0.3135,-0.3671 0.4894,-0.7801 0.1836,-0.41299 0.2448,-0.88717 0.015,-0.15296 0.015,-0.29827 0,-0.15296 -0.054,-0.30592 -0.015,-0.0306 -0.031,-0.0535 -0.01,-0.0306 -0.023,-0.0612 -0.038,-0.0459 -0.076,-0.0153 -0.038,0.0306 -0.069,0.0612 -0.031,0.0306 -0.054,0.0688 -0.2218,0.34416 -0.3135,0.71891 -0.061,0.26768 -0.1071,0.55066 -0.038,0.27533 -0.069,0.55831 -0.015,0.12236 -0.015,0.24473 0,0.11472 -0.015,0.24474 z"
             style="font-style:normal;font-variant:normal;font-weight:normal;font-stretch:normal;font-size:7.64802px;font-family:'Hello Valentica';-inkscape-font-specification:'Hello Valentica';fill:#f7cad0;fill-opacity:1;stroke:none;stroke-width:0.0972489;stroke-opacity:1"
             id="path1598" />
        </g>
        <g
           aria-label="Counselling Services"
           id="text1208-0-8-0-0-3-4-75-9-0-8-6-0-55-3-8-6-8-25-2-0-0-1"
           style="font-size:1.76389px;line-height:1.25;font-family:sans-serif;letter-spacing:0px;fill:#e4afb6;fill-opacity:1;stroke:none;stroke-width:0.0972489;stroke-opacity:1">
          <path
             d="m 1830.7606,624.60248 q -0.1782,0 -0.3246,-0.0829 -0.1464,-0.0847 -0.2311,-0.2293 -0.083,-0.14464 -0.083,-0.32279 0,-0.17816 0.083,-0.32279 0.083,-0.14464 0.2276,-0.22755 0.1464,-0.0847 0.3245,-0.0847 0.2823,0 0.4675,0.18873 l -0.088,0.0882 q -0.074,-0.0741 -0.1658,-0.11289 -0.09,-0.0388 -0.2099,-0.0388 -0.1394,0 -0.254,0.067 -0.1129,0.067 -0.1782,0.18345 -0.064,0.11641 -0.064,0.25752 0,0.14641 0.065,0.26282 0.065,0.11642 0.1781,0.18345 0.1147,0.0653 0.2523,0.0653 0.2257,0 0.3792,-0.15698 l 0.088,0.0864 q -0.086,0.0935 -0.2064,0.14463 -0.1199,0.0512 -0.261,0.0512 z"
             style="font-style:normal;font-variant:normal;font-weight:normal;font-stretch:normal;font-size:1.76389px;font-family:Eastman;-inkscape-font-specification:Eastman;fill:#e4afb6;fill-opacity:1;stroke:none;stroke-width:0.0972489;stroke-opacity:1"
             id="path1601" />
          <path
             d="m 1831.8747,624.60248 q -0.1446,0 -0.2593,-0.0635 -0.1128,-0.0635 -0.1781,-0.17639 -0.063,-0.11289 -0.063,-0.25577 0,-0.14111 0.063,-0.25223 0.065,-0.11289 0.1799,-0.17639 0.1147,-0.0635 0.2575,-0.0635 0.1447,0 0.2593,0.0635 0.1147,0.0635 0.1782,0.17462 0.065,0.11113 0.065,0.25224 0,0.14288 -0.065,0.25576 -0.063,0.11289 -0.1782,0.17816 -0.1146,0.0635 -0.2593,0.0635 z m 0,-0.12171 q 0.1058,0 0.1887,-0.0476 0.085,-0.0476 0.1323,-0.13229 0.048,-0.0847 0.048,-0.19403 0,-0.10936 -0.048,-0.19402 -0.048,-0.0847 -0.1323,-0.13053 -0.085,-0.0476 -0.1905,-0.0476 -0.1058,0 -0.1905,0.0476 -0.083,0.0459 -0.1305,0.13053 -0.048,0.0847 -0.048,0.19402 0,0.10937 0.048,0.19403 0.048,0.0847 0.1323,0.13229 0.085,0.0476 0.1905,0.0476 z"
             style="font-style:normal;font-variant:normal;font-weight:normal;font-stretch:normal;font-size:1.76389px;font-family:Eastman;-inkscape-font-specification:Eastman;fill:#e4afb6;fill-opacity:1;stroke:none;stroke-width:0.0972489;stroke-opacity:1"
             id="path1603" />
          <path
             d="m 1833.349,623.63057 h 0.1305 v 0.95427 h -0.1305 v -0.1711 q -0.056,0.0847 -0.1517,0.13582 -0.093,0.0512 -0.2135,0.0512 -0.1728,0 -0.2769,-0.10936 -0.1041,-0.10936 -0.1041,-0.29809 v -0.56269 h 0.1323 v 0.54505 q 0,0.14287 0.072,0.22401 0.074,0.0794 0.2064,0.0794 0.092,0 0.1676,-0.0459 0.078,-0.0459 0.1217,-0.127 0.046,-0.0811 0.046,-0.18168 z"
             style="font-style:normal;font-variant:normal;font-weight:normal;font-stretch:normal;font-size:1.76389px;font-family:Eastman;-inkscape-font-specification:Eastman;fill:#e4afb6;fill-opacity:1;stroke:none;stroke-width:0.0972489;stroke-opacity:1"
             id="path1605" />
          <path
             d="m 1834.2702,623.6147 q 0.1729,0 0.277,0.10936 0.104,0.10936 0.104,0.2981 v 0.56268 h -0.1323 v -0.54504 q 0,-0.14288 -0.074,-0.22225 -0.072,-0.0811 -0.2047,-0.0811 -0.092,0 -0.1693,0.0459 -0.076,0.0459 -0.1217,0.127 -0.044,0.0811 -0.044,0.18168 v 0.49389 h -0.1305 v -0.95427 h 0.1305 v 0.1711 q 0.057,-0.0847 0.1499,-0.13582 0.095,-0.0512 0.2152,-0.0512 z"
             style="font-style:normal;font-variant:normal;font-weight:normal;font-stretch:normal;font-size:1.76389px;font-family:Eastman;-inkscape-font-specification:Eastman;fill:#e4afb6;fill-opacity:1;stroke:none;stroke-width:0.0972489;stroke-opacity:1"
             id="path1607" />
          <path
             d="m 1835.2444,624.60071 q -0.1093,0 -0.2169,-0.0353 -0.1059,-0.0353 -0.1817,-0.09 l 0.056,-0.10936 q 0.079,0.0547 0.1694,0.0847 0.09,0.0282 0.1799,0.0282 0.1182,0 0.1834,-0.0388 0.067,-0.0406 0.067,-0.11642 0,-0.067 -0.06,-0.1023 -0.058,-0.0353 -0.2099,-0.0635 -0.1341,-0.0247 -0.2117,-0.06 -0.078,-0.0371 -0.1111,-0.0882 -0.032,-0.0512 -0.032,-0.12524 0,-0.12523 0.093,-0.19579 0.093,-0.0723 0.2593,-0.0723 0.097,0 0.2011,0.0282 0.1041,0.0265 0.1676,0.0723 l -0.055,0.11113 q -0.062,-0.0423 -0.1482,-0.0653 -0.086,-0.0247 -0.1746,-0.0247 -0.099,0 -0.1552,0.0353 -0.055,0.0353 -0.055,0.10054 0,0.06 0.055,0.0952 0.055,0.0353 0.2028,0.0635 0.1394,0.0282 0.2187,0.067 0.079,0.0388 0.1129,0.0917 0.034,0.0529 0.034,0.12877 0,0.13229 -0.1058,0.20637 -0.1041,0.0741 -0.284,0.0741 z"
             style="font-style:normal;font-variant:normal;font-weight:normal;font-stretch:normal;font-size:1.76389px;font-family:Eastman;-inkscape-font-specification:Eastman;fill:#e4afb6;fill-opacity:1;stroke:none;stroke-width:0.0972489;stroke-opacity:1"
             id="path1609" />
          <path
             d="m 1835.9348,624.15798 q 0.012,0.14464 0.1146,0.23459 0.1041,0.0882 0.2593,0.0882 0.1782,0 0.2823,-0.11642 l 0.086,0.0776 q -0.071,0.0759 -0.1658,0.11818 -0.093,0.0406 -0.2099,0.0406 -0.1447,0 -0.2593,-0.0635 -0.1129,-0.0635 -0.1782,-0.17462 -0.063,-0.11289 -0.063,-0.25577 0,-0.14111 0.06,-0.25223 0.062,-0.11289 0.1729,-0.17639 0.1111,-0.0635 0.254,-0.0635 0.1287,0 0.2293,0.0582 0.1005,0.0582 0.157,0.16404 0.056,0.10583 0.056,0.24165 0,0.0317 -0.01,0.0794 z m 0.3528,-0.42334 q -0.1447,0 -0.2399,0.0847 -0.094,0.0847 -0.1111,0.22401 h 0.6649 q -0.014,-0.14816 -0.099,-0.22754 -0.083,-0.0811 -0.2152,-0.0811 z"
             style="font-style:normal;font-variant:normal;font-weight:normal;font-stretch:normal;font-size:1.76389px;font-family:Eastman;-inkscape-font-specification:Eastman;fill:#e4afb6;fill-opacity:1;stroke:none;stroke-width:0.0972489;stroke-opacity:1"
             id="path1611" />
          <path
             d="m 1837.0852,624.58484 h -0.1305 v -1.30175 h 0.1305 z"
             style="font-style:normal;font-variant:normal;font-weight:normal;font-stretch:normal;font-size:1.76389px;font-family:Eastman;-inkscape-font-specification:Eastman;fill:#e4afb6;fill-opacity:1;stroke:none;stroke-width:0.0972489;stroke-opacity:1"
             id="path1613" />
          <path
             d="m 1837.533,624.58484 h -0.1305 v -1.30175 h 0.1305 z"
             style="font-style:normal;font-variant:normal;font-weight:normal;font-stretch:normal;font-size:1.76389px;font-family:Eastman;-inkscape-font-specification:Eastman;fill:#e4afb6;fill-opacity:1;stroke:none;stroke-width:0.0972489;stroke-opacity:1"
             id="path1615" />
          <path
             d="m 1837.9703,624.58484 h -0.1305 v -0.95427 h 0.1305 z m 0.01,-1.08832 h -0.1393 v -0.19403 h 0.1393 z"
             style="font-style:normal;font-variant:normal;font-weight:normal;font-stretch:normal;font-size:1.76389px;font-family:Eastman;-inkscape-font-specification:Eastman;fill:#e4afb6;fill-opacity:1;stroke:none;stroke-width:0.0972489;stroke-opacity:1"
             id="path1617" />
          <path
             d="m 1838.7626,623.6147 q 0.1729,0 0.277,0.10936 0.104,0.10936 0.104,0.2981 v 0.56268 h -0.1323 v -0.54504 q 0,-0.14288 -0.074,-0.22225 -0.072,-0.0811 -0.2046,-0.0811 -0.092,0 -0.1694,0.0459 -0.076,0.0459 -0.1217,0.127 -0.044,0.0811 -0.044,0.18168 v 0.49389 h -0.1305 v -0.95427 h 0.1305 v 0.1711 q 0.056,-0.0847 0.1499,-0.13582 0.095,-0.0512 0.2152,-0.0512 z"
             style="font-style:normal;font-variant:normal;font-weight:normal;font-stretch:normal;font-size:1.76389px;font-family:Eastman;-inkscape-font-specification:Eastman;fill:#e4afb6;fill-opacity:1;stroke:none;stroke-width:0.0972489;stroke-opacity:1"
             id="path1619" />
          <path
             d="m 1839.9326,624.36964 q 0.1817,0 0.2787,0.0653 0.097,0.0635 0.097,0.17286 0,0.13406 -0.134,0.21343 -0.1323,0.0811 -0.3722,0.0811 -0.2029,0 -0.3175,-0.0653 -0.1147,-0.0653 -0.1147,-0.17992 0,-0.0582 0.041,-0.10584 0.041,-0.0476 0.1058,-0.0811 -0.046,-0.0229 -0.072,-0.06 -0.025,-0.0388 -0.025,-0.0847 0,-0.0582 0.032,-0.10054 0.032,-0.0423 0.085,-0.0635 -0.055,-0.0406 -0.085,-0.10055 -0.028,-0.0617 -0.028,-0.13582 0,-0.14287 0.1058,-0.22754 0.1058,-0.0847 0.2875,-0.0847 0.1094,0 0.1817,0.0335 l 0.2469,-0.0617 0.03,0.10936 -0.1605,0.0265 q 0.048,0.0335 0.072,0.0864 0.026,0.0529 0.026,0.11818 0,0.14641 -0.1059,0.23107 -0.1058,0.0847 -0.2875,0.0847 -0.1111,0 -0.201,-0.0335 -0.037,0.0159 -0.053,0.0353 -0.016,0.0194 -0.016,0.0459 0,0.0388 0.03,0.06 0.03,0.0212 0.079,0.0212 z m -0.1146,-0.64029 q -0.1253,0 -0.1958,0.0512 -0.069,0.0512 -0.069,0.14287 0,0.0953 0.069,0.14817 0.071,0.0529 0.1958,0.0529 0.1252,0 0.194,-0.0512 0.071,-0.0529 0.071,-0.14817 0,-0.0935 -0.071,-0.14463 -0.069,-0.0512 -0.194,-0.0512 z m -0.01,1.05304 q 0.1763,0 0.2716,-0.0423 0.095,-0.0406 0.095,-0.12524 0,-0.0635 -0.071,-0.0935 -0.071,-0.03 -0.2082,-0.03 h -0.2734 -0.01 q -0.1129,0.0653 -0.1129,0.14641 0,0.0741 0.079,0.10936 0.079,0.0353 0.2258,0.0353 z"
             style="font-style:normal;font-variant:normal;font-weight:normal;font-stretch:normal;font-size:1.76389px;font-family:Eastman;-inkscape-font-specification:Eastman;fill:#e4afb6;fill-opacity:1;stroke:none;stroke-width:0.0972489;stroke-opacity:1"
             id="path1621" />
          <path
             d="m 1841.4551,624.60248 q -0.1412,0 -0.2682,-0.0494 -0.127,-0.0494 -0.2204,-0.13406 l 0.065,-0.10407 q 0.092,0.0758 0.2029,0.11818 0.1111,0.0423 0.2293,0.0423 0.1446,0 0.224,-0.0582 0.081,-0.06 0.081,-0.15346 0,-0.067 -0.035,-0.10936 -0.035,-0.0423 -0.1058,-0.0688 -0.069,-0.0282 -0.1905,-0.0547 -0.2222,-0.0494 -0.3281,-0.13053 -0.1058,-0.0811 -0.1058,-0.22931 0,-0.10407 0.058,-0.17991 0.058,-0.0776 0.1588,-0.11818 0.1005,-0.0406 0.2275,-0.0406 0.2311,0 0.4198,0.13934 l -0.074,0.10055 q -0.074,-0.0529 -0.1676,-0.0829 -0.092,-0.0317 -0.1869,-0.0317 -0.1358,0 -0.2152,0.0582 -0.078,0.0582 -0.078,0.15699 0,0.0635 0.034,0.10583 0.034,0.0423 0.1041,0.0723 0.07,0.03 0.1922,0.0582 0.157,0.0335 0.2487,0.0741 0.094,0.0406 0.1394,0.10584 0.048,0.0653 0.048,0.16757 0,0.10406 -0.058,0.18344 -0.058,0.0776 -0.1623,0.11994 -0.1023,0.0423 -0.2363,0.0423 z"
             style="font-style:normal;font-variant:normal;font-weight:normal;font-stretch:normal;font-size:1.76389px;font-family:Eastman;-inkscape-font-specification:Eastman;fill:#e4afb6;fill-opacity:1;stroke:none;stroke-width:0.0972489;stroke-opacity:1"
             id="path1623" />
          <path
             d="m 1842.229,624.15798 q 0.012,0.14464 0.1146,0.23459 0.1041,0.0882 0.2593,0.0882 0.1782,0 0.2823,-0.11642 l 0.086,0.0776 q -0.071,0.0759 -0.1658,0.11818 -0.094,0.0406 -0.2099,0.0406 -0.1447,0 -0.2593,-0.0635 -0.1129,-0.0635 -0.1782,-0.17462 -0.063,-0.11289 -0.063,-0.25577 0,-0.14111 0.06,-0.25223 0.062,-0.11289 0.1729,-0.17639 0.1111,-0.0635 0.254,-0.0635 0.1287,0 0.2293,0.0582 0.1005,0.0582 0.157,0.16404 0.056,0.10583 0.056,0.24165 0,0.0317 -0.01,0.0794 z m 0.3528,-0.42334 q -0.1447,0 -0.2399,0.0847 -0.093,0.0847 -0.1111,0.22401 h 0.6649 q -0.014,-0.14816 -0.099,-0.22754 -0.083,-0.0811 -0.2152,-0.0811 z"
             style="font-style:normal;font-variant:normal;font-weight:normal;font-stretch:normal;font-size:1.76389px;font-family:Eastman;-inkscape-font-specification:Eastman;fill:#e4afb6;fill-opacity:1;stroke:none;stroke-width:0.0972489;stroke-opacity:1"
             id="path1625" />
          <path
             d="m 1843.6704,623.61999 q 0.042,0 0.09,0.009 l -0.01,0.13582 q -0.042,-0.0123 -0.088,-0.0123 -0.092,0 -0.1605,0.0529 -0.067,0.0529 -0.1023,0.14464 -0.035,0.09 -0.035,0.19932 v 0.43568 h -0.1305 v -0.95427 h 0.1305 v 0.17992 q 0.048,-0.0917 0.127,-0.14111 0.079,-0.0494 0.1746,-0.0494 z"
             style="font-style:normal;font-variant:normal;font-weight:normal;font-stretch:normal;font-size:1.76389px;font-family:Eastman;-inkscape-font-specification:Eastman;fill:#e4afb6;fill-opacity:1;stroke:none;stroke-width:0.0972489;stroke-opacity:1"
             id="path1627" />
          <path
             d="m 1844.3975,624.58484 h -0.1411 l -0.4163,-0.95427 h 0.1446 l 0.3422,0.80257 0.3422,-0.80257 h 0.1447 z"
             style="font-style:normal;font-variant:normal;font-weight:normal;font-stretch:normal;font-size:1.76389px;font-family:Eastman;-inkscape-font-specification:Eastman;fill:#e4afb6;fill-opacity:1;stroke:none;stroke-width:0.0972489;stroke-opacity:1"
             id="path1629" />
          <path
             d="m 1845.1223,624.58484 h -0.1305 v -0.95427 h 0.1305 z m 0.01,-1.08832 h -0.1393 v -0.19403 h 0.1393 z"
             style="font-style:normal;font-variant:normal;font-weight:normal;font-stretch:normal;font-size:1.76389px;font-family:Eastman;-inkscape-font-specification:Eastman;fill:#e4afb6;fill-opacity:1;stroke:none;stroke-width:0.0972489;stroke-opacity:1"
             id="path1631" />
          <path
             d="m 1845.8653,624.60248 q -0.1411,0 -0.2558,-0.0635 -0.1146,-0.0635 -0.1799,-0.17463 -0.065,-0.11289 -0.065,-0.25576 0,-0.14288 0.065,-0.254 0.065,-0.11289 0.1799,-0.17639 0.1147,-0.0635 0.2558,-0.0635 0.1058,0 0.1993,0.0388 0.095,0.0371 0.1658,0.11289 l -0.095,0.0811 q -0.056,-0.06 -0.1234,-0.0864 -0.067,-0.0265 -0.1482,-0.0265 -0.1041,0 -0.1887,0.0459 -0.083,0.0459 -0.1306,0.13052 -0.048,0.0847 -0.048,0.19579 0,0.11289 0.048,0.19756 0.048,0.0847 0.1323,0.13053 0.085,0.0459 0.1905,0.0459 0.081,0 0.1464,-0.0265 0.065,-0.0282 0.1235,-0.0882 l 0.093,0.0794 q -0.071,0.0776 -0.1658,0.11818 -0.093,0.0388 -0.1993,0.0388 z"
             style="font-style:normal;font-variant:normal;font-weight:normal;font-stretch:normal;font-size:1.76389px;font-family:Eastman;-inkscape-font-specification:Eastman;fill:#e4afb6;fill-opacity:1;stroke:none;stroke-width:0.0972489;stroke-opacity:1"
             id="path1633" />
          <path
             d="m 1846.5147,624.15798 q 0.012,0.14464 0.1146,0.23459 0.1041,0.0882 0.2593,0.0882 0.1782,0 0.2823,-0.11642 l 0.086,0.0776 q -0.071,0.0759 -0.1658,0.11818 -0.093,0.0406 -0.2099,0.0406 -0.1447,0 -0.2593,-0.0635 -0.1129,-0.0635 -0.1782,-0.17462 -0.063,-0.11289 -0.063,-0.25577 0,-0.14111 0.06,-0.25223 0.062,-0.11289 0.1729,-0.17639 0.1111,-0.0635 0.254,-0.0635 0.1287,0 0.2293,0.0582 0.1005,0.0582 0.157,0.16404 0.056,0.10583 0.056,0.24165 0,0.0317 -0.01,0.0794 z m 0.3528,-0.42334 q -0.1447,0 -0.2399,0.0847 -0.093,0.0847 -0.1111,0.22401 h 0.6649 q -0.014,-0.14816 -0.099,-0.22754 -0.083,-0.0811 -0.2152,-0.0811 z"
             style="font-style:normal;font-variant:normal;font-weight:normal;font-stretch:normal;font-size:1.76389px;font-family:Eastman;-inkscape-font-specification:Eastman;fill:#e4afb6;fill-opacity:1;stroke:none;stroke-width:0.0972489;stroke-opacity:1"
             id="path1635" />
          <path
             d="m 1847.8363,624.60071 q -0.1094,0 -0.217,-0.0353 -0.1058,-0.0353 -0.1817,-0.09 l 0.056,-0.10936 q 0.079,0.0547 0.1693,0.0847 0.09,0.0282 0.1799,0.0282 0.1182,0 0.1835,-0.0388 0.067,-0.0406 0.067,-0.11642 0,-0.067 -0.06,-0.1023 -0.058,-0.0353 -0.2099,-0.0635 -0.134,-0.0247 -0.2117,-0.06 -0.078,-0.0371 -0.1111,-0.0882 -0.032,-0.0512 -0.032,-0.12524 0,-0.12523 0.093,-0.19579 0.093,-0.0723 0.2592,-0.0723 0.097,0 0.2011,0.0282 0.1041,0.0265 0.1676,0.0723 l -0.055,0.11113 q -0.062,-0.0423 -0.1481,-0.0653 -0.087,-0.0247 -0.1747,-0.0247 -0.099,0 -0.1552,0.0353 -0.055,0.0353 -0.055,0.10054 0,0.06 0.055,0.0952 0.055,0.0353 0.2029,0.0635 0.1393,0.0282 0.2187,0.067 0.079,0.0388 0.1129,0.0917 0.034,0.0529 0.034,0.12877 0,0.13229 -0.1059,0.20637 -0.104,0.0741 -0.2839,0.0741 z"
             style="font-style:normal;font-variant:normal;font-weight:normal;font-stretch:normal;font-size:1.76389px;font-family:Eastman;-inkscape-font-specification:Eastman;fill:#e4afb6;fill-opacity:1;stroke:none;stroke-width:0.0972489;stroke-opacity:1"
             id="path1637" />
        </g>
      </g>
      <path
         id="path914-6-9-7-1-2-9-6-3-0-35-6-0-0-0-0-5-2-3-2-0-0-4"
         style="fill:url(#linearGradient3540-4-2-8-3-3-7);fill-opacity:1;stroke:none;stroke-width:0.0798976;paint-order:markers stroke fill;stop-color:#000000"
         d="m 4.8860114,0.66722299 a 2.3875391,2.3875391 0 0 0 -2.372498,2.38750001 2.3875391,2.3875391 0 0 0 1.888497,2.33477 c -0.781699,-0.0816 -1.7275,-0.45296 -1.7275,-0.45296 0,0 -2.72240002,0.25318 -2.01700002,5.09489 0.70540102,4.84171 5.31640002,4.27095 5.31640002,4.27095 0,0 -1.345798,-0.19106 -2.4961,-1.31183 -1.150398,-1.12076 -0.963599,-1.85463 -0.963599,-1.85463 0,0 1.3953,-0.26359 2.270101,0.13377 0.874899,0.39738 1.851,2.07737 2.460099,2.5123 0.609099,0.43493 1.103799,0.13639 1.103799,0.13639 0,0 -1.561299,1.51238 -3.789997,1.42326 -2.228702,-0.0891 -4.00300102,-3.18797 -4.00300102,-3.18797 0,0 0.1094,4.71213 5.39770102,4.71213 5.2881996,0 4.2366996,-6.03224 4.2366996,-6.03224 0,0 -2.0241026,0.86005 -4.2860006,-0.76433 -2.261799,-1.62441 -1.7214,-3.56386 -1.7214,-3.56386 0,0 0.349098,0.29507 1.265699,0.42599 0.916602,0.13093 2.1232,0.12213 2.7357,0.62071 0.612599,0.4986 0.561601,1.1507 0.561601,1.1507 0,0 -0.430501,0.0409 -1.1372,-0.0877 -0.706702,-0.12856 -2.027202,-0.88771 -2.027202,-0.88771 0,0 0.552203,1.05197 1.927902,1.7259 1.375601,0.67394 2.7473006,0.23886 2.7473006,0.23886 0,0 0.103801,-1.92477 -1.1282026,-3.40278 -1.061497,-1.27335 -2.1705,-1.57237 -2.457898,-1.63095 a 2.3875391,2.3875391 0 0 0 0.618699,-1.60365 2.3875391,2.3875391 0 0 0 -2.387498,-2.38750001 2.3875391,2.3875391 0 0 0 -0.01499,0 z" />
    </g>
  </g>
</svg>
