<?xml version="1.0"?>
<svg xmlns="http://www.w3.org/2000/svg" xmlns:xlink="http://www.w3.org/1999/xlink" xmlns:svgjs="http://svgjs.com/svgjs" version="1.1" width="512" height="512" x="0" y="0" viewBox="0 0 512 512" style="enable-background:new 0 0 512 512" xml:space="preserve"><g><g xmlns="http://www.w3.org/2000/svg" id="outline"><path d="M220,184H162.052A82.145,82.145,0,0,0,80,266.052V280a8,8,0,0,0,8,8h8.805A40.068,40.068,0,0,0,136,320h32a39.881,39.881,0,0,0,29.008-12.5L208,310.246V312a24.027,24.027,0,0,0,24,24,8,8,0,0,0,7.155-4.422l10.511-21.02A60.307,60.307,0,0,0,256,283.725V273.47A51.963,51.963,0,0,0,220,184ZM168,304H136a24.042,24.042,0,0,1-22.629-16h77.258A24.042,24.042,0,0,1,168,304Zm67.355-.6-7.667,15.334A8,8,0,0,1,224,312v-8a8,8,0,0,0-6.06-7.761l-12.186-3.046A39.631,39.631,0,0,0,207.2,288H220a51.72,51.72,0,0,0,19.992-4A44.224,44.224,0,0,1,235.355,303.4ZM240,265.917V264a23.942,23.942,0,0,0-7.813-17.7A8.01,8.01,0,0,1,240,240a8,8,0,0,0,0-16,24.037,24.037,0,0,0-22.638,16.041c-.451-.025-.905-.041-1.362-.041a8,8,0,0,0,0,16,8.009,8.009,0,0,1,8,8v7.772c-1.314.146-72,.228-72,.228a32.036,32.036,0,0,0-32-32,8,8,0,0,0,0,16,16.019,16.019,0,0,1,16,16H96v-5.948a66.118,66.118,0,0,1,64-66v6.65l-2.53,7.589A14.179,14.179,0,0,1,144,224a8,8,0,0,0,0,16,30.153,30.153,0,0,0,22.674-10.25,43.034,43.034,0,0,0,22.8,17.84,8,8,0,0,0,5.06-15.18A27.062,27.062,0,0,1,176,206.7V200h44a35.989,35.989,0,0,1,20,65.917Z" fill="#ffffff" data-original="#000000" style=""/><path d="M183.026,136.034Q181.517,136,180,136c-72.785,0-132,59.215-132,132v26.357L24.647,348.849a8,8,0,0,0,3.775,10.306L56.53,373.209l7.519,67.675A8,8,0,0,0,72,448h58.234l14.177,42.53a8,8,0,0,0,11,4.708l136-64a8,8,0,0,0,4.286-9.435l-9.844-34.458a65.779,65.779,0,0,1,.6-38.246l14.6-45.634a127.87,127.87,0,0,0-17.859-114.172A125.531,125.531,0,0,0,183.026,136.034ZM285.812,298.588l-14.6,45.634a81.742,81.742,0,0,0-.746,47.518l7.976,27.917-121.7,57.27-11.589-34.766,44.5-44.5A8,8,0,0,0,192,392V352H176v36.687L132.686,432H79.16l-7.209-64.884a8,8,0,0,0-4.373-6.271L42.325,348.218S64,297.083,64,296V268A116.132,116.132,0,0,1,180,152q1.337,0,2.664.03h0a109.666,109.666,0,0,1,87.5,46.55A112,112,0,0,1,285.812,298.588Z" fill="#ffffff" data-original="#000000" style=""/><path d="M392,16a96.015,96.015,0,0,0-80.439,148.417L304.308,189.8a8,8,0,0,0,8.684,10.136l32.327-4.041A96,96,0,1,0,392,16Zm0,176a79.878,79.878,0,0,1-40.913-11.244,8.019,8.019,0,0,0-5.09-1.068l-22.98,2.873,4.959-17.355a8,8,0,0,0-1.177-6.841A80,80,0,1,1,392,192Z" fill="#ffffff" data-original="#000000" style=""/><path d="M432,96h-9.871L438.86,68.116A8,8,0,0,0,432,56H376a8,8,0,0,0-7.919,6.868l-8,56A8,8,0,0,0,368,128h6.556l-6.447,38.685a8,8,0,0,0,13.912,6.583l56-64A8,8,0,0,0,432,96Zm-30.961,11.941A8,8,0,0,0,408,112h6.37l-25.85,29.543,3.371-20.228A8,8,0,0,0,384,112h-6.776l5.714-40h34.933L401.14,99.884A8,8,0,0,0,401.039,107.941Z" fill="#ffffff" data-original="#000000" style=""/><path d="M271.879,52.283,260.948,73.114,232.6,80.241a8,8,0,0,0-5.59,5.087L216.459,115.1a8,8,0,1,0,15.082,5.343l9.115-25.73,27.664-6.954a8.006,8.006,0,0,0,5.134-4.042l12.593-24a8,8,0,0,0-14.168-7.434Z" fill="#ffffff" data-original="#000000" style=""/><path d="M361.931,322.261l.231-29.233a8,8,0,0,0-3.517-6.69l-26.163-17.694a8,8,0,1,0-8.964,13.253l22.611,15.292-.226,28.524a8.006,8.006,0,0,0,2.621,5.985l20.062,18.224a8,8,0,1,0,10.758-11.844Z" fill="#ffffff" data-original="#000000" style=""/><path d="M413.977,240.26l-26.161,6.84-20.757-20.757a8,8,0,0,0-6.942-2.239l-30.6,4.979a8,8,0,0,0,2.57,15.793l26.553-4.321,21.1,21.1a8,8,0,0,0,7.68,2.083l30.6-8a8,8,0,0,0-4.046-15.48Z" fill="#ffffff" data-original="#000000" style=""/><path d="M154.366,97.3l17.48,22.944a8,8,0,0,0,12.728-9.7L169.465,90.721l5.472-20.674a8,8,0,0,0-1.371-6.895l-17.48-22.944a8,8,0,0,0-12.727,9.7l15.109,19.832L153,90.409A8,8,0,0,0,154.366,97.3Z" fill="#ffffff" data-original="#000000" style=""/></g></g></svg>
