<?xml version="1.0"?>
<svg xmlns="http://www.w3.org/2000/svg" xmlns:xlink="http://www.w3.org/1999/xlink" xmlns:svgjs="http://svgjs.com/svgjs" version="1.1" width="512" height="512" x="0" y="0" viewBox="0 0 512 512" style="enable-background:new 0 0 512 512" xml:space="preserve"><g><g xmlns="http://www.w3.org/2000/svg"><g><path d="m486 303.799c0-29.416-14.255-56.127-37.938-72.411 10.752-13.554 16.738-30.455 16.738-47.989 0-27.058-14.346-52.13-37.169-66.013.777-3.93 1.169-7.939 1.169-11.987 0-33.966-27.634-61.6-61.601-61.6-4.234 0-8.397.421-12.467 1.258-4.608-25.585-27.039-45.057-53.932-45.057-18.491 0-34.87 9.204-44.8 23.272-9.93-14.068-26.309-23.272-44.8-23.272-26.896 0-49.327 19.476-53.934 45.065-1.744-.359-3.506-.642-5.282-.849-5.466-.631-10.45 3.291-11.089 8.776s3.29 10.451 8.776 11.09c4.306.501 8.485 1.672 12.424 3.476.04.019.076.042.116.06 7.853 3.619 14.29 9.491 18.615 16.981 1.853 3.208 5.214 5.001 8.67 5.001 1.696 0 3.416-.433 4.991-1.342 4.782-2.762 6.421-8.878 3.659-13.661-5.285-9.152-12.703-16.666-21.668-22.027 1.155-18.151 16.283-32.57 34.722-32.57 19.188 0 34.8 15.611 34.8 34.8v106.825h-27.5c-5.522 0-10 4.477-10 10 0 15.163-12.337 27.5-27.5 27.5-5.522 0-10 4.477-10 10 0 33.059 5.402 61.345 16.056 84.073 12.728 27.152 32.539 45.472 58.944 54.564v95.638c0 26.798-21.802 48.6-48.6 48.6-18.481 0-34.993-10.508-43.174-26.286 5.592-.249 11.145-1.095 16.555-2.545 5.334-1.43 8.5-6.913 7.07-12.248s-6.908-8.502-12.248-7.071c-7.808 2.091-16.072 2.504-24.052 1.196-.023-.004-.046-.004-.07-.008-27.484-4.497-47.485-27.818-47.864-55.638 6.652 1.586 13.468 2.398 20.382 2.398 7.686 0 15.348-1.009 22.775-2.998 5.334-1.429 8.501-6.913 7.071-12.247-1.428-5.334-6.903-8.502-12.247-7.072-5.739 1.538-11.661 2.317-17.6 2.317-8.775 0-17.35-1.667-25.486-4.957-.066-.027-.133-.044-.2-.069-25.709-10.495-42.312-35.188-42.312-62.973 0-26.138 14.569-49.513 38.033-61.053.056-.026.114-.044.17-.071 3.903-1.903 8.007-3.437 12.196-4.559 5.335-1.429 8.502-6.912 7.072-12.247-1.428-5.334-6.907-8.5-12.246-7.073-3.109.833-6.173 1.86-9.18 3.032-9.496-10.472-14.845-24.167-14.845-38.428 0-18.795 9.347-36.295 24.451-46.888 5.367 9.165 13.04 16.861 22.349 22.235 1.575.909 3.294 1.341 4.99 1.341 3.456 0 6.818-1.794 8.67-5.002 2.762-4.783 1.123-10.899-3.66-13.661-8.62-4.977-15.178-12.892-18.465-22.287-.016-.045-.037-.086-.053-.13-.977-2.824-1.652-5.762-2-8.735-.641-5.486-5.613-9.411-11.093-8.772-5.485.641-9.413 5.607-8.772 11.093.188 1.606.439 3.206.753 4.792-22.823 13.884-37.17 38.956-37.17 66.014 0 17.534 5.986 34.435 16.738 47.989-23.683 16.283-37.938 42.994-37.938 72.41 0 33.411 18.548 63.369 47.871 78.34-.18 2.15-.271 4.308-.271 6.461 0 18.437 6.605 36.285 18.6 50.257 10.396 12.109 24.264 20.68 39.575 24.571 8.69 28.51 35.288 48.572 65.625 48.572 24.786 0 46.544-13.213 58.6-32.966 12.056 19.753 33.813 32.966 58.6 32.966 30.337 0 56.936-20.062 65.625-48.572 15.312-3.891 29.18-12.462 39.575-24.571 11.994-13.972 18.6-31.82 18.6-50.257 0-2.153-.091-4.311-.271-6.461 29.323-14.971 47.871-44.929 47.871-78.34zm-294.856-85.764c18.113-3.956 32.397-18.276 36.298-36.41h57.117c3.9 18.134 18.185 32.454 36.298 36.41-1.457 44.737-14.596 96.871-64.857 111.945-50.261-15.074-63.4-67.208-64.856-111.945zm232.541 148.739c-.066.025-.133.042-.199.069-8.137 3.289-16.711 4.957-25.486 4.957-5.939 0-11.861-.78-17.601-2.317-5.338-1.426-10.818 1.738-12.247 7.072-1.43 5.334 1.737 10.818 7.071 12.247 7.428 1.989 15.091 2.998 22.776 2.998 6.914 0 13.729-.811 20.382-2.398-.379 27.819-20.379 51.14-47.861 55.637-.025.004-.049.004-.074.008-7.974 1.308-16.242.896-24.05-1.196-5.338-1.431-10.818 1.736-12.248 7.071s1.736 10.818 7.07 12.248c5.409 1.45 10.963 2.296 16.555 2.545-8.18 15.777-24.693 26.285-43.173 26.285-26.798 0-48.6-21.802-48.6-48.6v-95.638c26.406-9.092 46.216-27.412 58.944-54.564 10.654-22.728 16.056-51.014 16.056-84.073 0-5.523-4.478-10-10-10-15.163 0-27.5-12.336-27.5-27.5 0-5.523-4.478-10-10-10h-27.5v-106.825c0-19.188 15.611-34.8 34.8-34.8 18.439 0 33.567 14.419 34.721 32.572-8.967 5.361-16.385 12.876-21.668 22.027-2.762 4.783-1.123 10.899 3.66 13.661 1.575.909 3.294 1.341 4.99 1.341 3.456 0 6.818-1.794 8.67-5.002 4.324-7.49 10.761-13.361 18.615-16.981.035-.016.066-.036.101-.053 5.446-2.497 11.269-3.766 17.31-3.766 22.938 0 41.601 18.662 41.601 41.6 0 4.658-.768 9.231-2.276 13.595-.018.049-.041.094-.059.144-3.286 9.395-9.845 17.31-18.466 22.287-4.783 2.762-6.422 8.877-3.66 13.661 1.852 3.208 5.213 5.002 8.67 5.002 1.696 0 3.415-.433 4.99-1.341 9.309-5.375 16.983-13.07 22.35-22.235 15.104 10.593 24.451 28.093 24.451 46.888 0 14.261-5.349 27.956-14.845 38.43-3.008-1.172-6.072-2.199-9.18-3.032-5.331-1.428-10.817 1.738-12.246 7.073-1.43 5.334 1.737 10.818 7.072 12.247 4.189 1.122 8.293 2.656 12.196 4.559.056.027.114.045.17.071 23.464 11.538 38.033 34.913 38.033 61.051 0 27.785-16.603 52.478-42.315 62.975z" fill="#ffffff" data-original="#000000" style=""/><path d="m137.596 225.796c0 13.958-9.416 26.231-22.899 29.844-5.334 1.43-8.5 6.913-7.07 12.248 1.197 4.468 5.237 7.414 9.653 7.414.856 0 1.728-.111 2.595-.343 22.21-5.952 37.722-26.168 37.722-49.162 0-8.921-2.357-17.721-6.818-25.447-2.76-4.783-8.873-6.423-13.66-3.661-4.782 2.761-6.422 8.877-3.66 13.66 2.705 4.689 4.137 10.031 4.137 15.447z" fill="#ffffff" data-original="#000000" style=""/><path d="m189.199 396.083c.867.232 1.737.343 2.594.343 4.416 0 8.457-2.947 9.653-7.415 1.151-4.295 1.734-8.728 1.734-13.173 0-28.064-22.832-50.896-50.896-50.896-5.522 0-10 4.477-10 10s4.478 10 10 10c17.036 0 30.896 13.86 30.896 30.896 0 2.699-.354 5.389-1.053 7.997-1.429 5.335 1.737 10.819 7.072 12.248z" fill="#ffffff" data-original="#000000" style=""/><path d="m227.46 132.466c3.905-3.905 3.905-10.237 0-14.142-3.906-3.905-10.238-3.905-14.143 0-5.835 5.835-13.594 9.049-21.847 9.049-8.252 0-16.011-3.214-21.847-9.049-3.906-3.905-10.238-3.905-14.143 0s-3.905 10.237 0 14.142c9.613 9.613 22.395 14.907 35.989 14.907 13.597.001 26.379-5.293 35.991-14.907z" fill="#ffffff" data-original="#000000" style=""/><path d="m397.304 255.64c-13.483-3.613-22.9-15.885-22.9-29.844 0-5.416 1.432-10.757 4.14-15.447 2.762-4.783 1.123-10.898-3.659-13.661-4.784-2.761-10.899-1.122-13.661 3.66-4.461 7.726-6.819 16.526-6.819 25.448 0 22.994 15.513 43.21 37.723 49.162.867.232 1.738.343 2.595.343 4.415 0 8.456-2.946 9.653-7.414 1.428-5.334-1.738-10.818-7.072-12.247z" fill="#ffffff" data-original="#000000" style=""/><path d="m359.716 324.942c-28.064 0-50.896 22.832-50.896 50.896 0 4.445.583 8.877 1.734 13.173 1.196 4.468 5.237 7.415 9.653 7.415.855 0 1.728-.111 2.594-.343 5.335-1.429 8.501-6.913 7.071-12.248-.698-2.608-1.053-5.298-1.053-7.997 0-17.036 13.86-30.896 30.896-30.896 5.522 0 10-4.477 10-10s-4.477-10-9.999-10z" fill="#ffffff" data-original="#000000" style=""/><path d="m356.518 118.324c-3.906-3.905-10.238-3.905-14.143 0-5.835 5.835-13.593 9.049-21.846 9.049s-16.012-3.214-21.847-9.049c-3.904-3.905-10.234-3.905-14.143 0-3.905 3.905-3.905 10.237 0 14.142 9.612 9.613 22.394 14.907 35.989 14.907s26.376-5.294 35.988-14.907c3.907-3.905 3.907-10.237.002-14.142z" fill="#ffffff" data-original="#000000" style=""/><path d="m108.313 78.913c5.522 0 10-4.477 10-10s-4.478-10-10-10h-.008c-5.522 0-9.996 4.477-9.996 10s4.482 10 10.004 10z" fill="#ffffff" data-original="#000000" style=""/><path d="m287.081 232.922c-3.905-3.905-10.237-3.905-14.143 0l-24.942 24.942-8.935-8.935c-3.905-3.905-10.235-3.905-14.143 0-3.905 3.905-3.905 10.237 0 14.142l16.006 16.006c1.875 1.875 4.419 2.929 7.071 2.929s5.195-1.054 7.071-2.929l32.014-32.013c3.906-3.905 3.906-10.237.001-14.142z" fill="#ffffff" data-original="#000000" style=""/></g></g></g></svg>
