<?xml version="1.0" standalone="no"?>
<!DOCTYPE svg PUBLIC "-//W3C//DTD SVG 20010904//EN"
 "http://www.w3.org/TR/2001/REC-SVG-20010904/DTD/svg10.dtd">
<svg version="1.0" xmlns="http://www.w3.org/2000/svg"
 width="16.000000pt" height="16.000000pt" viewBox="0 0 16.000000 16.000000"
 preserveAspectRatio="xMidYMid meet">
<metadata>
Created by potrace 1.11, written by Peter Selinger 2001-2013
</metadata>
<g transform="translate(0.000000,16.000000) scale(0.006154,-0.006154)"
fill="#000000" stroke="none">
<path d="M261 2189 c-90 -19 -149 -116 -127 -205 14 -54 164 -189 462 -416
161 -122 294 -229 294 -237 0 -31 -184 -188 -536 -454 -187 -142 -214 -171
-214 -234 1 -50 38 -113 112 -190 82 -85 141 -118 193 -109 21 4 173 112 446
316 228 171 440 330 471 355 104 82 145 169 118 251 -21 63 -166 202 -390 373
-113 86 -314 241 -447 344 -134 102 -251 190 -260 195 -28 14 -85 20 -122 11z"/>
<path d="M2069 2187 c-14 -7 -167 -120 -338 -251 l-312 -239 58 -59 c56 -58
324 -268 340 -268 4 0 134 96 288 213 294 224 324 254 325 325 0 18 -9 49 -19
70 -25 47 -177 198 -214 211 -37 14 -95 13 -128 -2z"/>
<path d="M1557 1072 l-138 -106 53 -54 c48 -49 641 -504 721 -552 66 -41 146
-14 191 63 81 139 41 194 -388 526 -154 119 -284 219 -290 222 -6 4 -73 -41
-149 -99z"/>
</g>
</svg>
