<?xml version="1.0" encoding="utf-8"?>
<!-- Generator: Adobe Illustrator 15.0.0, SVG Export Plug-In . SVG Version: 6.00 Build 0)  -->
<!DOCTYPE svg PUBLIC "-//W3C//DTD SVG 1.1//EN" "http://www.w3.org/Graphics/SVG/1.1/DTD/svg11.dtd">
<svg version="1.1" id="Layer_1" xmlns="http://www.w3.org/2000/svg" xmlns:xlink="http://www.w3.org/1999/xlink" x="0px" y="0px"
	 width="300px" height="89.995px" viewBox="0 0 300 89.995" enable-background="new 0 0 300 89.995" xml:space="preserve">
<path fill="#AFD136" d="M137.119,78.514c0,3.211-2.753,5.815-6.15,5.815H12.248c-3.397,0-6.15-2.604-6.15-5.815V12.486
	c0-3.213,2.753-5.817,6.15-5.817h118.721c3.397,0,6.15,2.604,6.15,5.817V78.514L137.119,78.514z"/>
<path fill="#353535" d="M55.008,44.17c1.954,0,3.906,0,3.906-2.232v-9.563c0-2.231-1.952-2.231-3.906-2.231H29.624V44.17H55.008z
	 M19.86,24.724h33.197c7.812,0,15.621,0,15.621,8.607v7.65c0,8.607-7.809,8.607-15.621,8.607H29.624v17.213H19.86V24.724z"/>
<path fill="#353535" d="M77.792,33.331c0-8.606,7.81-8.606,15.622-8.606h29.944v5.419H91.461c-1.954,0-3.905,0-3.905,2.231V59.15
	c0,2.231,1.952,2.231,3.905,2.231h31.896v5.42H93.414c-7.812,0-15.622,0-15.622-8.606V33.331z"/>
<path fill="#353535" d="M178.696,44.169c1.782,0,3.563,0,3.563-2.231v-9.563c0-2.231-1.78-2.231-3.563-2.231h-23.151v14.025H178.696
	L178.696,44.169z M146.639,24.724h30.277c7.124,0,14.248,0,14.248,8.607v7.65c0,8.607-7.124,8.607-14.248,8.607h-21.371v17.213
	h-8.906V24.724z"/>
<path fill="#353535" d="M231.535,42.895c1.781,0,3.562,0,3.562-2.232v-8.288c0-2.231-1.78-2.231-3.562-2.231h-23.154v12.75H231.535z
	 M199.479,24.724h30.276c7.124,0,14.246,0,14.246,8.607v6.375c0,8.608-7.122,8.608-14.246,8.608h-0.593l17.215,18.487h-10.686
	l-17.217-18.487h-10.094v18.487h-8.902V24.724L199.479,24.724z"/>
<path fill="#333132" d="M264.781,61.382h19.59c1.781,0,3.563,0,3.563-2.231V32.375c0-2.231-1.781-2.231-3.563-2.231h-19.59
	c-1.781,0-3.563,0-3.563,2.231V59.15C261.219,61.382,263,61.382,264.781,61.382 M252.313,33.331c0-8.607,7.124-8.607,14.249-8.607
	h16.027c7.124,0,14.25,0,14.25,8.607v24.864c0,8.606-7.125,8.606-14.25,8.606h-16.027c-7.124,0-14.249,0-14.249-8.606V33.331z"/>
</svg>
