<?xml version="1.0" standalone="no"?>
<!DOCTYPE svg PUBLIC "-//W3C//DTD SVG 20010904//EN"
 "http://www.w3.org/TR/2001/REC-SVG-20010904/DTD/svg10.dtd">
<svg version="1.0" xmlns="http://www.w3.org/2000/svg"
 width="260.000000pt" height="260.000000pt" viewBox="0 0 260.000000 260.000000"
 preserveAspectRatio="xMidYMid meet">
<metadata>
Created by potrace 1.11, written by Peter Selinger 2001-2013
</metadata>
<g transform="translate(0.000000,260.000000) scale(0.100000,-0.100000)"
fill="#000000" stroke="none">
<path d="M865 2385 c-82 -119 -157 -224 -165 -234 -8 -11 -58 -81 -110 -155
-52 -75 -131 -187 -175 -249 -44 -62 -116 -163 -160 -226 -44 -63 -97 -138
-117 -167 -21 -30 -38 -58 -38 -63 0 -4 53 -89 118 -187 65 -99 160 -243 211
-321 l93 -142 318 0 c277 0 320 2 332 16 7 9 139 198 294 422 155 223 286 406
292 406 11 0 102 -120 102 -135 0 -12 -281 -433 -292 -438 -5 -2 -8 -10 -8
-18 0 -8 -4 -14 -10 -14 -5 0 -10 -4 -10 -10 0 -10 -55 -94 -77 -118 -7 -7
-13 -17 -13 -22 0 -5 -6 -15 -12 -22 -22 -23 -98 -138 -98 -148 0 -6 -4 -10
-8 -10 -5 0 -19 -19 -32 -42 -13 -24 -31 -47 -39 -53 -10 -6 -133 -10 -306
-10 -159 0 -292 -4 -294 -9 -1 -4 61 -104 140 -222 l142 -214 341 2 340 3 73
110 c39 61 77 116 83 123 6 6 8 12 5 12 -3 0 3 10 15 22 11 12 20 27 20 34 0
7 4 14 8 16 4 2 90 129 192 283 101 154 246 374 322 489 76 115 138 211 138
214 0 3 7 13 16 23 14 16 -2 40 -218 328 l-233 311 -311 0 -312 0 -113 -167
c-62 -93 -154 -228 -204 -301 -49 -73 -94 -140 -100 -150 -5 -9 -13 -19 -16
-22 -3 -3 -34 -48 -69 -100 -34 -52 -67 -98 -73 -102 -11 -7 -57 51 -57 71 0
6 -4 11 -8 11 -5 0 -15 12 -23 28 -8 15 -19 33 -26 40 -10 10 2 33 60 115 40
56 98 140 130 187 32 47 81 117 109 155 27 39 61 88 75 110 23 35 47 68 83
112 6 7 10 14 10 17 0 3 27 43 59 88 l59 83 316 -1 c174 0 316 2 316 4 0 2
-29 45 -64 96 -131 188 -209 302 -225 328 l-16 28 -315 0 -315 -1 -150 -214z"/>
</g>
</svg>
