<?xml version="1.0" encoding="UTF-8"?>
<svg width="139px" height="28px" viewBox="0 0 139 28" version="1.1" xmlns="http://www.w3.org/2000/svg" xmlns:xlink="http://www.w3.org/1999/xlink">
    <!-- Generator: Sketch 48.1 (47250) - http://www.bohemiancoding.com/sketch -->
    <title>HEDIN BIL LOGO</title>
    <desc>Created with Sketch.</desc>
    <defs>
        <polygon id="path-1" points="0.188652388 0.198175288 9.80371516 0.198175288 9.80371516 10.1089615 0.188652388 10.1089615"></polygon>
    </defs>
    <g stroke="none" stroke-width="1" fill="none" fill-rule="evenodd" transform="translate(-64.000000, -14.000000)">
        <g>
            <g transform="translate(64.000000, 14.000000)">
                <path d="M18.406892,2.38187537 L15.6803353,11.4290862 C21.8674755,11.9338045 22.7445958,17.9976091 22.7445958,17.9976091 L13.697385,17.9976091 L12.0862378,23.4507225 L23.8091144,23.4507225 C23.8091144,23.4507225 24.0994921,24.748142 24.1485869,27.1687543 L33.2790193,27.1687543 C33.4430678,4.12474022 18.406892,2.38187537 18.406892,2.38187537" fill="#FFFFFF"></path>
                <polygon fill="#FFFFFF" points="5.14651045 11.3052117 0.000538845194 27.1688142 9.23634547 27.1688142 14.3176557 11.3052117"></polygon>
                <g transform="translate(5.987169, 0.401080)">
                    <mask id="mask-2" fill="white">
                        <use xlink:href="#path-1"></use>
                    </mask>
                    <g></g>
                    <path d="M9.14228705,7.45169019 C7.79936509,9.87469742 4.85128316,10.8116893 2.56298723,9.54360698 C0.274092589,8.2749259 -0.492863738,5.27834791 0.85005823,2.85534068 C2.19357891,0.431734744 5.14106213,-0.505257177 7.42995677,0.763423897 C9.71825269,2.03210497 10.485209,5.02808425 9.14228705,7.45169019" fill="#FFFFFF" mask="url(#mask-2)"></path>
                </g>
                <polygon fill="#FFFFFF" points="53.9931267 11.3322138 56.7472243 11.3322138 56.7472243 27.1401356 53.9931267 27.1401356 53.9931267 19.7645424 43.3473418 19.7645424 43.3473418 27.1401356 40.5932441 27.1401356 40.5932441 11.3322138 43.3473418 11.3322138 43.3473418 17.8708009 53.9931267 17.8708009"></polygon>
                <g transform="translate(58.858859, 10.419610)" fill="#FFFFFF">
                    <path d="M10.9751191,10.0494429 C10.8332232,8.26586532 9.86809157,6.61520288 6.83020211,6.61520288 C4.53053056,6.61520288 2.71402354,8.26586532 2.71402354,10.0494429 L10.9751191,10.0494429 Z M13.3592097,13.1094849 C13.2747906,13.6603044 12.5928521,15.2894131 10.719467,16.2575383 C10.0381272,16.6107812 9.07299555,17.0508381 6.68830621,17.0508381 C2.51524954,17.0508381 0.0449436806,14.6068758 0.0449436806,11.282201 C0.0449436806,7.71564451 2.25959743,4.87533162 7.17087202,4.87533162 C11.4576849,4.87533162 13.5585824,7.51746922 13.5585824,11.5905402 L2.71402354,11.5905402 C2.71402354,13.9901974 4.16112225,15.3768257 7.02897612,15.3768257 C9.38492705,15.3768257 10.7763451,13.9686436 10.8613629,13.1094849 L13.3592097,13.1094849 Z"></path>
                    <path d="M21.138398,15.3771251 C22.7285901,15.3771251 25.1976985,14.5622714 25.1976985,11.5022294 C25.1976985,9.63123917 24.8007492,6.61490352 21.1958749,6.61490352 C17.3335523,6.61490352 17.1347782,9.45521641 17.1347782,10.9298561 C17.1347782,13.4618298 18.4130388,15.3771251 21.138398,15.3771251 Z M27.723685,16.7200471 L25.3677341,16.7200471 L25.3677341,15.1352435 L25.3126521,15.1352435 C24.2331656,16.6984933 22.5292174,17.0505388 21.0809212,17.0505388 C16.0283494,17.0505388 14.5525123,13.3738184 14.5525123,10.6215169 C14.5525123,7.38545215 16.7947071,4.87563098 20.7402513,4.87563098 C23.4386683,4.87563098 24.5726381,6.17424789 25.1695588,6.83523133 L25.2264369,6.68136109 L25.2264369,0.91272393 L27.723685,0.91272393 L27.723685,16.7200471 Z"></path>
                    <path d="M30.1092724,16.7201668 L32.6071193,16.7201668 L32.6071193,5.20564372 L30.1092724,5.20564372 L30.1092724,16.7201668 Z M30.1092724,3.11492437 L32.6071193,3.11492437 L32.6071193,0.912843674 L30.1092724,0.912843674 L30.1092724,3.11492437 Z"></path>
                    <path d="M47.257422,16.7201069 L44.7595752,16.7201069 L44.7595752,9.63129905 C44.7595752,7.62739364 44.0225547,6.61436467 41.5803886,6.61436467 C40.1602321,6.61436467 37.6623853,7.31965316 37.6623853,10.4461527 L37.6623853,16.7201069 L35.1645384,16.7201069 L35.1645384,5.20618257 L37.5192919,5.20618257 L37.5192919,6.83469249 L37.5773675,6.83469249 C38.1162127,6.2180141 39.5082294,4.87628956 42.0617569,4.87628956 C44.3614285,4.87628956 47.257422,5.60253314 47.257422,8.88230423 L47.257422,16.7201069 Z"></path>
                    <path d="M57.0806897,14.8930026 L62.9570959,14.8930026 C65.824351,14.8930026 67.2720484,13.7704085 67.2720484,12.0095821 C67.2720484,9.7853489 64.7460619,9.34469327 62.5032685,9.34469327 L57.0806897,9.34469327 L57.0806897,14.8930026 Z M57.0806897,7.60542073 L62.0482436,7.60542073 C64.6879864,7.60542073 66.3063181,6.98874234 66.3063181,5.05189323 C66.3063181,3.57665483 65.1424125,2.73964863 62.0775808,2.73964863 L57.0806897,2.73964863 L57.0806897,7.60542073 Z M54.3259933,0.9123647 L63.2983645,0.9123647 C67.1014141,0.9123647 69.0610145,2.73964863 69.0610145,4.89802299 C69.0610145,5.93200704 68.57785,7.38509292 66.3356552,8.19994659 C67.6695965,8.61844969 70.0255474,9.34469327 70.0255474,12.0526897 C70.0255474,14.5846634 67.6139158,16.7202865 63.0995905,16.7202865 L54.3259933,16.7202865 L54.3259933,0.9123647 Z"></path>
                    <path d="M71.8883352,16.7201668 L74.3873795,16.7201668 L74.3873795,5.20564372 L71.8883352,5.20564372 L71.8883352,16.7201668 Z M71.8883352,3.11492437 L74.3873795,3.11492437 L74.3873795,0.912843674 L71.8883352,0.912843674 L71.8883352,3.11492437 Z"></path>
                    <polygon points="77.0265235 16.7201668 79.5255678 16.7201668 79.5255678 0.912244957 77.0265235 0.912244957"></polygon>
                </g>
            </g>
        </g>
    </g>
</svg>