<?xml version="1.0" standalone="no"?>
<!DOCTYPE svg PUBLIC "-//W3C//DTD SVG 20010904//EN"
 "http://www.w3.org/TR/2001/REC-SVG-20010904/DTD/svg10.dtd">
<svg version="1.0" xmlns="http://www.w3.org/2000/svg"
 width="478.000000pt" height="478.000000pt" viewBox="0 0 478.000000 478.000000"
 preserveAspectRatio="xMidYMid meet">
<metadata>
Created by potrace 1.11, written by Peter Selinger 2001-2013
</metadata>
<g transform="translate(0.000000,478.000000) scale(0.100000,-0.100000)"
fill="#000000" stroke="none">
<path d="M675 4570 c-240 -49 -445 -257 -509 -518 -14 -56 -16 -195 -16 -1127
0 -1194 -5 -1117 76 -1281 51 -105 126 -194 218 -257 66 -46 88 -58 181 -90
59 -21 78 -22 846 -27 l786 -5 50 -45 c27 -25 117 -109 199 -187 82 -78 289
-270 459 -426 274 -251 312 -283 323 -268 10 13 13 111 11 463 0 246 2 452 6
457 4 8 116 11 341 11 194 0 365 5 406 11 269 42 483 254 544 539 21 96 21
2114 0 2210 -52 244 -214 435 -443 523 l-58 22 -1690 1 c-929 1 -1708 -2
-1730 -6z m2398 -726 c55 -28 97 -75 112 -128 23 -77 22 -1012 -1 -1079 -19
-56 -63 -103 -119 -128 -38 -17 -86 -19 -808 -19 -824 0 -799 -1 -864 50 -15
12 -37 38 -50 58 l-22 37 -1 543 0 542 24 38 c27 43 49 63 91 85 27 14 119 16
818 17 705 0 791 -2 820 -16z m375 -373 c47 -24 86 -62 106 -105 14 -30 16
-99 16 -556 0 -492 -1 -523 -19 -563 -20 -43 -44 -69 -96 -103 -29 -18 -56
-19 -825 -19 l-795 0 -40 26 c-71 47 -105 104 -105 178 0 49 11 53 115 49 65
-3 71 -5 83 -31 l13 -27 732 2 732 3 3 477 2 477 -22 12 c-13 7 -26 17 -30 23
-9 13 -10 138 -2 160 9 23 85 21 132 -3z"/>
<path d="M1528 3659 c-17 -9 -18 -43 -18 -478 0 -379 3 -471 13 -480 20 -16
1444 -16 1463 0 12 9 14 92 14 471 0 297 -4 466 -10 479 -10 19 -29 19 -728
19 -468 -1 -723 -4 -734 -11z m1225 -94 c20 -8 48 -31 63 -51 22 -29 27 -46
27 -93 0 -89 -49 -142 -140 -149 -45 -4 -59 0 -93 22 -44 29 -80 90 -80 133 0
43 41 105 85 130 47 26 89 29 138 8z m-711 -115 c14 -10 107 -100 207 -200
101 -99 188 -180 195 -180 6 0 45 34 86 75 51 51 82 75 98 75 16 0 50 -26 108
-83 l84 -83 0 -77 c0 -130 62 -117 -556 -117 -350 0 -542 4 -555 10 -17 10
-19 23 -19 158 l0 148 148 147 c82 81 155 147 164 147 8 0 26 -9 40 -20z"/>
</g>
</svg>
