<?xml version="1.0" encoding="utf-8"?>
<!-- Generator: Adobe Illustrator 15.0.0, SVG Export Plug-In . SVG Version: 6.00 Build 0)  -->
<!DOCTYPE svg PUBLIC "-//W3C//DTD SVG 1.1//EN" "http://www.w3.org/Graphics/SVG/1.1/DTD/svg11.dtd">
<svg xmlns="http://www.w3.org/2000/svg" xmlns:xlink="http://www.w3.org/1999/xlink" version="1.1" id="Layer_1" x="0px" y="0px" width="26px" height="26px" viewBox="0 0 26 26" enable-background="new 0 0 26 26" xml:space="preserve">

<path fill="none" stroke="#bbbaba" stroke-width="2" stroke-linecap="round" stroke-linejoin="round" stroke-miterlimit="10" d="  M13,2c0,0,2,1,2,2s-2,12-7,12S1,4.992,1,4s2-2,2-2"/>
<circle fill="#bbbaba" cx="12" cy="2" r="1.813"/>
<path fill="#bbbaba" d="M10.063,16.106c0,1.131-0.923,3.175-2.063,3.175s-2.063-2.044-2.063-3.175c0-1.13,0.923-0.917,2.063-0.917  S10.063,14.977,10.063,16.106z"/>
<circle fill="#bbbaba" cx="4" cy="2" r="1.813"/>
<path fill="none" stroke="#bbbaba" stroke-width="2" stroke-linecap="round" stroke-linejoin="round" stroke-miterlimit="10" d="  M8,17c0,0-0.7,8,7,8c6.889,0,7-6,7-6"/>
<circle fill="none" stroke="#bbbaba" stroke-width="2" stroke-linecap="round" stroke-linejoin="round" stroke-miterlimit="10" cx="22" cy="16" r="3"/>
<circle fill="#bbbaba" cx="22" cy="16" r="1"/>
</svg>