<?xml version="1.0" encoding="utf-8"?>
<!-- Generator: Adobe Illustrator 15.0.0, SVG Export Plug-In . SVG Version: 6.00 Build 0)  -->
<!DOCTYPE svg PUBLIC "-//W3C//DTD SVG 1.1//EN" "http://www.w3.org/Graphics/SVG/1.1/DTD/svg11.dtd">
<svg xmlns="http://www.w3.org/2000/svg" xmlns:xlink="http://www.w3.org/1999/xlink" version="1.1" id="Layer_1" x="0px" y="0px" width="26px" height="26px" viewBox="0 0 26 26" enable-background="new 0 0 26 26" xml:space="preserve">

<g>
	<path fill="#bbbaba" d="M21.125,2C22.71,2,24,3.29,24,4.875v16.25C24,22.71,22.71,24,21.125,24H4.875C3.29,24,2,22.71,2,21.125   V4.875C2,3.29,3.29,2,4.875,2H21.125 M21.125,0H4.875C2.182,0,0,2.182,0,4.875v16.25C0,23.818,2.182,26,4.875,26h16.25   C23.818,26,26,23.818,26,21.125V4.875C26,2.182,23.818,0,21.125,0L21.125,0z"/>
</g>
<g>
	<path fill="#bbbaba" d="M13,8v3v2h2h3h-3h-2v2v3v-3v-2v-2V8 M15,6h-4v5H6v4h5v5h4v-5h5v-4h-5V6L15,6z"/>
</g>
</svg>