<?xml version="1.0" encoding="utf-8"?>
<!-- Generator: Adobe Illustrator 21.0.2, SVG Export Plug-In . SVG Version: 6.00 Build 0)  -->
<svg version="1.1" id="Layer_1" xmlns="http://www.w3.org/2000/svg" xmlns:xlink="http://www.w3.org/1999/xlink" x="0px" y="0px"
	 viewBox="0 0 26 26" style="enable-background:new 0 0 26 26;" xml:space="preserve">
<style type="text/css">
	.st0{fill:#FFFFFF;}
</style>
<path class="st0" d="M6,0C5.4,0,5,0.4,5,1v13H2c-0.6,0-1,0.4-1,1c0,0.3,0.1,0.6,0.3,0.7l11,10c0.4,0.3,1,0.3,1.3,0l11-10
	c0.4-0.4,0.4-1,0.1-1.4C24.6,14.1,24.3,14,24,14h-3V1c0-0.6-0.4-1-1-1H6z M7,2h12v13c0,0.6,0.4,1,1,1h1.4L13,23.6L4.6,16H6
	c0.6,0,1-0.4,1-1V2z M12.2,5C12.1,5,12,5.1,12,5.2v1.3c-1.2,0.4-2,1.4-2,2.7c0,1.6,1.3,2.9,3,2.9c0.6,0,1,0.4,1,0.9s-0.4,0.9-1,0.9
	s-1-0.4-1-0.9h-1.8c-0.1,0-0.2,0.1-0.2,0.2c0.1,1.1,0.9,2.1,2,2.5v1.1c0,0.1,0.1,0.2,0.2,0.2h1.6c0.1,0,0.2-0.1,0.2-0.2v-1.3
	c1.2-0.4,2-1.4,2-2.7c0-1.5-1.3-2.8-3-2.8c-0.6,0-1-0.4-1-0.9s0.4-0.9,1-0.9s1,0.4,1,0.9h1.8C15.9,9.1,16,9,16,8.9
	c-0.1-1.1-0.9-2.1-2-2.5V5.2C14,5.1,13.9,5,13.8,5H12.2z"/>
</svg>
