<svg width="12" height="12" viewBox="0 0 12 12" fill="none" xmlns="http://www.w3.org/2000/svg">
<mask id="path-1-inside-1" fill="white">
<path d="M12 7.00487V4.99513L10.4101 4.73014C10.3152 4.39974 10.1832 4.0816 10.016 3.77998L10.9532 2.46791L9.53209 1.0468L8.22002 1.984C7.91838 1.8168 7.60026 1.68482 7.26986 1.58988L7.00487 0H4.99513L4.73014 1.58988C4.39974 1.68485 4.0816 1.81682 3.77998 1.984L2.46791 1.0468L1.0468 2.46791L1.984 3.77998C1.8168 4.08162 1.68482 4.39974 1.58988 4.73014L0 4.99513V7.00487L1.58988 7.26986C1.68485 7.60026 1.81682 7.9184 1.984 8.22002L1.0468 9.53209L2.46791 10.9532L3.77998 10.016C4.08162 10.1832 4.39974 10.3152 4.73014 10.4101L4.99513 12H7.00487L7.26984 10.4101C7.60024 10.3152 7.91838 10.1832 8.22 10.016L9.53207 10.9532L10.9532 9.53207L10.016 8.22C10.1832 7.91835 10.3152 7.60024 10.4101 7.26984L12 7.00487ZM10.0312 9.45579L9.45576 10.0312L8.25191 9.17132C8.13393 9.23475 7.66233 9.60104 6.87972 9.78231L6.64998 9.83551L6.40689 11.2941H5.59311L5.35 9.83551C5.21605 9.79515 4.6328 9.72332 3.94814 9.29617L3.74807 9.17132L2.54421 10.0312L1.96875 9.45579L2.82866 8.25193C2.76414 8.13198 2.39885 7.66195 2.21767 6.87974L2.16447 6.65L0.705882 6.40689V5.59311L2.16449 5.35C2.20482 5.21605 2.27668 4.6328 2.70384 3.94814L2.82868 3.74807L1.96878 2.54421L2.54424 1.96875L3.74809 2.82866C3.86805 2.76414 4.33807 2.39885 5.12028 2.21767L5.35002 2.16447L5.59311 0.705882H6.40689L6.64998 2.16449C6.78386 2.2048 7.36722 2.27668 8.05184 2.70384L8.25191 2.82868L9.45576 1.96878L10.0312 2.54424L9.17132 3.74809C9.23581 3.86805 9.60113 4.33807 9.78231 5.12028L9.83551 5.35002L11.2941 5.59311V6.40689L9.83551 6.65C9.79518 6.78395 9.72332 7.3672 9.29617 8.05186L9.17132 8.25193L10.0312 9.45579Z"/>
</mask>
<path d="M12 7.00487V4.99513L10.4101 4.73014C10.3152 4.39974 10.1832 4.0816 10.016 3.77998L10.9532 2.46791L9.53209 1.0468L8.22002 1.984C7.91838 1.8168 7.60026 1.68482 7.26986 1.58988L7.00487 0H4.99513L4.73014 1.58988C4.39974 1.68485 4.0816 1.81682 3.77998 1.984L2.46791 1.0468L1.0468 2.46791L1.984 3.77998C1.8168 4.08162 1.68482 4.39974 1.58988 4.73014L0 4.99513V7.00487L1.58988 7.26986C1.68485 7.60026 1.81682 7.9184 1.984 8.22002L1.0468 9.53209L2.46791 10.9532L3.77998 10.016C4.08162 10.1832 4.39974 10.3152 4.73014 10.4101L4.99513 12H7.00487L7.26984 10.4101C7.60024 10.3152 7.91838 10.1832 8.22 10.016L9.53207 10.9532L10.9532 9.53207L10.016 8.22C10.1832 7.91835 10.3152 7.60024 10.4101 7.26984L12 7.00487ZM10.0312 9.45579L9.45576 10.0312L8.25191 9.17132C8.13393 9.23475 7.66233 9.60104 6.87972 9.78231L6.64998 9.83551L6.40689 11.2941H5.59311L5.35 9.83551C5.21605 9.79515 4.6328 9.72332 3.94814 9.29617L3.74807 9.17132L2.54421 10.0312L1.96875 9.45579L2.82866 8.25193C2.76414 8.13198 2.39885 7.66195 2.21767 6.87974L2.16447 6.65L0.705882 6.40689V5.59311L2.16449 5.35C2.20482 5.21605 2.27668 4.6328 2.70384 3.94814L2.82868 3.74807L1.96878 2.54421L2.54424 1.96875L3.74809 2.82866C3.86805 2.76414 4.33807 2.39885 5.12028 2.21767L5.35002 2.16447L5.59311 0.705882H6.40689L6.64998 2.16449C6.78386 2.2048 7.36722 2.27668 8.05184 2.70384L8.25191 2.82868L9.45576 1.96878L10.0312 2.54424L9.17132 3.74809C9.23581 3.86805 9.60113 4.33807 9.78231 5.12028L9.83551 5.35002L11.2941 5.59311V6.40689L9.83551 6.65C9.79518 6.78395 9.72332 7.3672 9.29617 8.05186L9.17132 8.25193L10.0312 9.45579Z" fill="white"/>
<path d="M12 7.00487L12.1644 7.99127L13 7.85201V7.00487H12ZM12 4.99513H13V4.14801L12.1644 4.00874L12 4.99513ZM10.4101 4.73014L9.44903 5.00638L9.62333 5.6128L10.2457 5.71653L10.4101 4.73014ZM10.016 3.77998L9.20227 3.19874L8.83528 3.71251L9.14136 4.26475L10.016 3.77998ZM10.9532 2.46791L11.7669 3.04915L12.2593 2.35981L11.6603 1.7608L10.9532 2.46791ZM9.53209 1.0468L10.2392 0.339693L9.64019 -0.259318L8.95085 0.233068L9.53209 1.0468ZM8.22002 1.984L7.73523 2.85863L8.28747 3.16473L8.80126 2.79773L8.22002 1.984ZM7.26986 1.58988L6.28347 1.75429L6.38721 2.37672L6.99368 2.55099L7.26986 1.58988ZM7.00487 0L7.99126 -0.164404L7.85199 -1H7.00487V0ZM4.99513 0V-1H4.14801L4.00874 -0.164404L4.99513 0ZM4.73014 1.58988L5.00638 2.55097L5.6128 2.37667L5.71653 1.75429L4.73014 1.58988ZM3.77998 1.984L3.19874 2.79773L3.71251 3.16472L4.26475 2.85864L3.77998 1.984ZM2.46791 1.0468L3.04915 0.233068L2.35981 -0.259318L1.7608 0.339693L2.46791 1.0468ZM1.0468 2.46791L0.339693 1.7608L-0.259318 2.35981L0.233068 3.04915L1.0468 2.46791ZM1.984 3.77998L2.85863 4.26477L3.16473 3.71253L2.79773 3.19874L1.984 3.77998ZM1.58988 4.73014L1.75429 5.71653L2.37672 5.61279L2.55099 5.00632L1.58988 4.73014ZM0 4.99513L-0.164404 4.00874L-1 4.14801V4.99513H0ZM0 7.00487H-1V7.85199L-0.164404 7.99126L0 7.00487ZM1.58988 7.26986L2.55097 6.99362L2.37667 6.3872L1.75429 6.28347L1.58988 7.26986ZM1.984 8.22002L2.79773 8.80126L3.16472 8.28749L2.85864 7.73525L1.984 8.22002ZM1.0468 9.53209L0.233068 8.95085L-0.259318 9.64019L0.339693 10.2392L1.0468 9.53209ZM2.46791 10.9532L1.7608 11.6603L2.35981 12.2593L3.04915 11.7669L2.46791 10.9532ZM3.77998 10.016L4.26477 9.14137L3.71253 8.83527L3.19874 9.20227L3.77998 10.016ZM4.73014 10.4101L5.71653 10.2457L5.6128 9.62335L5.00638 9.44905L4.73014 10.4101ZM4.99513 12L4.00874 12.1644L4.14801 13H4.99513V12ZM7.00487 12V13H7.85201L7.99127 12.1644L7.00487 12ZM7.26984 10.4101L6.9936 9.44903L6.38717 9.62333L6.28344 10.2457L7.26984 10.4101ZM8.22 10.016L8.80124 9.20224L8.28739 8.83521L7.73512 9.14139L8.22 10.016ZM9.53207 10.9532L8.95083 11.7669L9.64017 12.2593L10.2392 11.6603L9.53207 10.9532ZM10.9532 9.53207L11.6603 10.2392L12.2593 9.64017L11.7669 8.95083L10.9532 9.53207ZM10.016 8.22L9.14135 7.7352L8.83525 8.28745L9.20224 8.80124L10.016 8.22ZM10.4101 7.26984L10.2457 6.28344L9.62326 6.38717L9.44899 6.99366L10.4101 7.26984ZM10.0312 9.45579L10.7383 10.1629L11.3374 9.5639L10.845 8.87455L10.0312 9.45579ZM9.45576 10.0312L8.87452 10.845L9.56385 11.3373L10.1629 10.7383L9.45576 10.0312ZM8.25191 9.17132L8.83315 8.35759L8.3266 7.99576L7.77833 8.29057L8.25191 9.17132ZM6.87972 9.78231L7.10531 10.7565L7.10537 10.7565L6.87972 9.78231ZM6.64998 9.83551L6.42438 8.86129L5.77342 9.01203L5.66358 9.67112L6.64998 9.83551ZM6.40689 11.2941V12.2941H7.25403L7.39329 11.4585L6.40689 11.2941ZM5.59311 11.2941L4.60671 11.4585L4.74598 12.2941H5.59311V11.2941ZM5.35 9.83551L6.33639 9.6711L6.23412 9.05745L5.63844 8.87801L5.35 9.83551ZM3.94814 9.29617L3.41874 10.1445L3.41882 10.1446L3.94814 9.29617ZM3.74807 9.17132L4.27747 8.32294L3.71057 7.96919L3.16683 8.35759L3.74807 9.17132ZM2.54421 10.0312L1.83712 10.7383L2.43613 11.3373L3.12545 10.845L2.54421 10.0312ZM1.96875 9.45579L1.15502 8.87455L0.662624 9.5639L1.26166 10.1629L1.96875 9.45579ZM2.82866 8.25193L3.64239 8.83317L4.00426 8.32655L3.70935 7.77824L2.82866 8.25193ZM2.21767 6.87974L1.24345 7.10534L1.24346 7.10539L2.21767 6.87974ZM2.16447 6.65L3.13869 6.4244L2.98796 5.77346L2.32887 5.66361L2.16447 6.65ZM0.705882 6.40689H-0.294118V7.25402L0.541478 7.39329L0.705882 6.40689ZM0.705882 5.59311L0.541481 4.60671L-0.294118 4.74598V5.59311H0.705882ZM2.16449 5.35L2.3289 6.33639L2.94266 6.2341L3.12204 5.63829L2.16449 5.35ZM2.70384 3.94814L1.85546 3.41874L1.85541 3.41882L2.70384 3.94814ZM2.82868 3.74807L3.67706 4.27747L4.03081 3.71057L3.64241 3.16683L2.82868 3.74807ZM1.96878 2.54421L1.26167 1.8371L0.662658 2.43612L1.15505 3.12545L1.96878 2.54421ZM2.54424 1.96875L3.12548 1.15502L2.43614 0.662635L1.83713 1.26165L2.54424 1.96875ZM3.74809 2.82866L3.16685 3.64239L3.67347 4.00426L4.22178 3.70935L3.74809 2.82866ZM5.12028 2.21767L4.89469 1.24345L4.89464 1.24346L5.12028 2.21767ZM5.35002 2.16447L5.57562 3.13869L6.22658 2.98795L6.33642 2.32886L5.35002 2.16447ZM5.59311 0.705882V-0.294118H4.74597L4.60671 0.541494L5.59311 0.705882ZM6.40689 0.705882L7.39329 0.541496L7.25403 -0.294118H6.40689V0.705882ZM6.64998 2.16449L5.66358 2.32888L5.76587 2.94266L6.3617 3.12204L6.64998 2.16449ZM8.05184 2.70384L8.58123 1.85546L8.58118 1.85543L8.05184 2.70384ZM8.25191 2.82868L7.72251 3.67706L8.2894 4.03081L8.83315 3.64241L8.25191 2.82868ZM9.45576 1.96878L10.1629 1.26167L9.56386 0.662658L8.87452 1.15505L9.45576 1.96878ZM10.0312 2.54424L10.845 3.12548L11.3373 2.43614L10.7383 1.83713L10.0312 2.54424ZM9.17132 3.74809L8.35759 3.16685L7.99577 3.67339L8.29055 4.22165L9.17132 3.74809ZM9.78231 5.12028L10.7565 4.89469L10.7565 4.89464L9.78231 5.12028ZM9.83551 5.35002L8.86129 5.57562L9.01203 6.22658L9.67112 6.33642L9.83551 5.35002ZM11.2941 5.59311H12.2941V4.74597L11.4585 4.60671L11.2941 5.59311ZM11.2941 6.40689L11.4585 7.39329L12.2941 7.25402V6.40689H11.2941ZM9.83551 6.65L9.6711 5.66361L9.05734 5.7659L8.87796 6.36171L9.83551 6.65ZM9.29617 8.05186L10.1445 8.58126L10.1446 8.58118L9.29617 8.05186ZM9.17132 8.25193L8.32294 7.72253L7.96919 8.28943L8.35759 8.83317L9.17132 8.25193ZM13 7.00487V4.99513H11V7.00487H13ZM12.1644 4.00874L10.5745 3.74375L10.2457 5.71653L11.8356 5.98152L12.1644 4.00874ZM11.3712 4.4539C11.2553 4.05068 11.0943 3.66261 10.8906 3.2952L9.14136 4.26475C9.27208 4.50059 9.37499 4.7488 9.44903 5.00638L11.3712 4.4539ZM10.8297 4.36122L11.7669 3.04915L10.1395 1.88667L9.20227 3.19874L10.8297 4.36122ZM11.6603 1.7608L10.2392 0.339693L8.82499 1.75391L10.2461 3.17501L11.6603 1.7608ZM8.95085 0.233068L7.63878 1.17027L8.80126 2.79773L10.1133 1.86053L8.95085 0.233068ZM8.70482 1.10937C8.3374 0.905714 7.94932 0.74466 7.54604 0.628775L6.99368 2.55099C7.2512 2.62499 7.49936 2.72789 7.73523 2.85863L8.70482 1.10937ZM8.25625 1.42548L7.99126 -0.164404L6.01848 0.164404L6.28347 1.75429L8.25625 1.42548ZM7.00487 -1H4.99513V1H7.00487V-1ZM4.00874 -0.164404L3.74375 1.42548L5.71653 1.75429L5.98152 0.164404L4.00874 -0.164404ZM4.4539 0.628794C4.05068 0.744688 3.66261 0.905725 3.2952 1.10936L4.26475 2.85864C4.50059 2.72792 4.7488 2.62501 5.00638 2.55097L4.4539 0.628794ZM4.36122 1.17027L3.04915 0.233068L1.88667 1.86053L3.19874 2.79773L4.36122 1.17027ZM1.7608 0.339693L0.339693 1.7608L1.75391 3.17501L3.17501 1.75391L1.7608 0.339693ZM0.233068 3.04915L1.17027 4.36122L2.79773 3.19874L1.86053 1.88667L0.233068 3.04915ZM1.10937 3.29518C0.905714 3.6626 0.74466 4.05068 0.628775 4.45397L2.55099 5.00632C2.62499 4.7488 2.72789 4.50064 2.85863 4.26477L1.10937 3.29518ZM1.42548 3.74375L-0.164404 4.00874L0.164404 5.98152L1.75429 5.71653L1.42548 3.74375ZM-1 4.99513V7.00487H1V4.99513H-1ZM-0.164404 7.99126L1.42548 8.25625L1.75429 6.28347L0.164404 6.01848L-0.164404 7.99126ZM0.628794 7.5461C0.744688 7.94932 0.905724 8.33739 1.10936 8.7048L2.85864 7.73525C2.72792 7.49941 2.62501 7.2512 2.55097 6.99362L0.628794 7.5461ZM1.17027 7.63878L0.233068 8.95085L1.86053 10.1133L2.79773 8.80126L1.17027 7.63878ZM0.339693 10.2392L1.7608 11.6603L3.17501 10.2461L1.75391 8.82499L0.339693 10.2392ZM3.04915 11.7669L4.36122 10.8297L3.19874 9.20227L1.88667 10.1395L3.04915 11.7669ZM3.29518 10.8906C3.6626 11.0943 4.05066 11.2553 4.4539 11.3712L5.00638 9.44905C4.74882 9.37502 4.50064 9.27211 4.26477 9.14137L3.29518 10.8906ZM3.74375 10.5745L4.00874 12.1644L5.98152 11.8356L5.71653 10.2457L3.74375 10.5745ZM4.99513 13H7.00487V11H4.99513V13ZM7.99127 12.1644L8.25623 10.5745L6.28344 10.2457L6.01848 11.8356L7.99127 12.1644ZM7.54607 11.3712C7.94926 11.2553 8.33737 11.0943 8.70488 10.8906L7.73512 9.14139C7.49938 9.27209 7.25121 9.37498 6.9936 9.44903L7.54607 11.3712ZM7.63876 10.8297L8.95083 11.7669L10.1133 10.1394L8.80124 9.20224L7.63876 10.8297ZM10.2392 11.6603L11.6603 10.2392L10.2461 8.82496L8.82496 10.2461L10.2392 11.6603ZM11.7669 8.95083L10.8297 7.63876L9.20224 8.80124L10.1394 10.1133L11.7669 8.95083ZM10.8906 8.7048C11.0943 8.33737 11.2553 7.9493 11.3712 7.54601L9.44899 6.99366C9.37499 7.25117 9.27209 7.49933 9.14135 7.7352L10.8906 8.7048ZM10.5745 8.25623L12.1644 7.99127L11.8356 6.01847L10.2457 6.28344L10.5745 8.25623ZM9.32413 8.74867L8.74867 9.3241L10.1629 10.7383L10.7383 10.1629L9.32413 8.74867ZM10.037 9.21749L8.83315 8.35759L7.67066 9.98505L8.87452 10.845L10.037 9.21749ZM7.77833 8.29057C7.51724 8.43095 7.26324 8.667 6.65407 8.8081L7.10537 10.7565C8.06141 10.5351 8.75061 10.0386 8.72548 10.0521L7.77833 8.29057ZM6.65412 8.80808L6.42438 8.86129L6.87557 10.8097L7.10531 10.7565L6.65412 8.80808ZM5.66358 9.67112L5.4205 11.1297L7.39329 11.4585L7.63637 9.99989L5.66358 9.67112ZM6.40689 10.2941H5.59311V12.2941H6.40689V10.2941ZM6.5795 11.1297L6.33639 9.6711L4.36361 9.99991L4.60671 11.4585L6.5795 11.1297ZM5.63844 8.87801C5.34953 8.79098 5.01139 8.78086 4.47746 8.44774L3.41882 10.1446C4.25421 10.6658 5.08256 10.7993 5.06156 10.793L5.63844 8.87801ZM4.47754 8.44779L4.27747 8.32294L3.21867 10.0197L3.41874 10.1445L4.47754 8.44779ZM3.16683 8.35759L1.96297 9.21749L3.12545 10.845L4.32931 9.98505L3.16683 8.35759ZM3.2513 9.3241L2.67585 8.74867L1.26166 10.1629L1.83712 10.7383L3.2513 9.3241ZM2.78248 10.037L3.64239 8.83317L2.01493 7.67069L1.15502 8.87455L2.78248 10.037ZM3.70935 7.77824C3.56806 7.51555 3.33287 7.2628 3.19188 6.65409L1.24346 7.10539C1.46483 8.06111 1.96022 8.7484 1.94797 8.72562L3.70935 7.77824ZM3.19189 6.65415L3.13869 6.4244L1.19025 6.8756L1.24345 7.10534L3.19189 6.65415ZM2.32887 5.66361L0.870287 5.4205L0.541478 7.39329L2.00007 7.63639L2.32887 5.66361ZM1.70588 6.40689V5.59311H-0.294118V6.40689H1.70588ZM0.870284 6.5795L2.3289 6.33639L2.00009 4.36361L0.541481 4.60671L0.870284 6.5795ZM3.12204 5.63829C3.20892 5.3497 3.21919 5.01131 3.55226 4.47746L1.85541 3.41882C1.33417 4.25429 1.20072 5.0824 1.20695 5.06171L3.12204 5.63829ZM3.55221 4.47754L3.67706 4.27747L1.98031 3.21867L1.85546 3.41874L3.55221 4.47754ZM3.64241 3.16683L2.78251 1.96297L1.15505 3.12545L2.01495 4.32931L3.64241 3.16683ZM2.67588 3.25132L3.25134 2.67586L1.83713 1.26165L1.26167 1.8371L2.67588 3.25132ZM1.96299 2.78248L3.16685 3.64239L4.32934 2.01493L3.12548 1.15502L1.96299 2.78248ZM4.22178 3.70935C4.48447 3.56806 4.73723 3.33287 5.34593 3.19188L4.89464 1.24346C3.93891 1.46483 3.25162 1.96022 3.27441 1.94797L4.22178 3.70935ZM5.34588 3.19189L5.57562 3.13869L5.12443 1.19025L4.89469 1.24345L5.34588 3.19189ZM6.33642 2.32886L6.5795 0.870271L4.60671 0.541494L4.36363 2.00008L6.33642 2.32886ZM5.59311 1.70588H6.40689V-0.294118H5.59311V1.70588ZM5.4205 0.870268L5.66358 2.32888L7.63637 2.00011L7.39329 0.541496L5.4205 0.870268ZM6.3617 3.12204C6.65023 3.20891 6.98871 3.2192 7.52249 3.55224L8.58118 1.85543C7.74574 1.33417 6.91749 1.20069 6.93825 1.20695L6.3617 3.12204ZM7.52244 3.55221L7.72251 3.67706L8.7813 1.98031L8.58123 1.85546L7.52244 3.55221ZM8.83315 3.64241L10.037 2.78251L8.87452 1.15505L7.67066 2.01495L8.83315 3.64241ZM8.74866 2.67588L9.32412 3.25134L10.7383 1.83713L10.1629 1.26167L8.74866 2.67588ZM9.21749 1.96299L8.35759 3.16685L9.98505 4.32934L10.845 3.12548L9.21749 1.96299ZM8.29055 4.22165C8.43195 4.48463 8.66709 4.73714 8.8081 5.34593L10.7565 4.89464C10.5352 3.939 10.0397 3.25146 10.0521 3.27454L8.29055 4.22165ZM8.80808 5.34588L8.86129 5.57562L10.8097 5.12443L10.7565 4.89469L8.80808 5.34588ZM9.67112 6.33642L11.1297 6.5795L11.4585 4.60671L9.99989 4.36363L9.67112 6.33642ZM10.2941 5.59311V6.40689H12.2941V5.59311H10.2941ZM11.1297 5.4205L9.6711 5.66361L9.99991 7.63639L11.4585 7.39329L11.1297 5.4205ZM8.87796 6.36171C8.79108 6.65031 8.78081 6.98869 8.44774 7.52254L10.1446 8.58118C10.6658 7.74571 10.7993 6.9176 10.793 6.93829L8.87796 6.36171ZM8.44779 7.52246L8.32294 7.72253L10.0197 8.78133L10.1445 8.58126L8.44779 7.52246ZM8.35759 8.83317L9.21749 10.037L10.845 8.87455L9.98505 7.67069L8.35759 8.83317Z" fill="#6891C2" mask="url(#path-1-inside-1)"/>
<mask id="path-3-inside-2" fill="white">
<path d="M6 3C4.34579 3 3 4.34579 3 6C3 7.65421 4.34579 9 6 9C7.65421 9 9 7.65421 9 6C9 4.34579 7.65421 3 6 3ZM4.97002 8.04948C5.08075 7.58325 5.50038 7.23529 6 7.23529C6.49962 7.23529 6.91925 7.58325 7.02998 8.04948C6.38341 8.37574 5.61687 8.37591 4.97002 8.04948ZM5.47059 6C5.47059 5.70807 5.70807 5.47059 6 5.47059C6.29193 5.47059 6.52941 5.70807 6.52941 6C6.52941 6.29193 6.29193 6.52941 6 6.52941C5.70807 6.52941 5.47059 6.29193 5.47059 6ZM7.62835 7.61433C7.48729 7.27769 7.24464 6.99402 6.93913 6.80115C7.12355 6.58527 7.23529 6.30553 7.23529 6C7.23529 5.31885 6.68115 4.76471 6 4.76471C5.31885 4.76471 4.76471 5.31885 4.76471 6C4.76471 6.30551 4.87642 6.58527 5.06087 6.80115C4.75536 6.99402 4.51271 7.27769 4.37165 7.61433C3.96035 7.19948 3.70588 6.62892 3.70588 6C3.70588 4.73501 4.73501 3.70588 6 3.70588C7.26499 3.70588 8.29412 4.73501 8.29412 6C8.29412 6.62892 8.03965 7.19948 7.62835 7.61433Z"/>
</mask>
<path d="M6 3C4.34579 3 3 4.34579 3 6C3 7.65421 4.34579 9 6 9C7.65421 9 9 7.65421 9 6C9 4.34579 7.65421 3 6 3ZM4.97002 8.04948C5.08075 7.58325 5.50038 7.23529 6 7.23529C6.49962 7.23529 6.91925 7.58325 7.02998 8.04948C6.38341 8.37574 5.61687 8.37591 4.97002 8.04948ZM5.47059 6C5.47059 5.70807 5.70807 5.47059 6 5.47059C6.29193 5.47059 6.52941 5.70807 6.52941 6C6.52941 6.29193 6.29193 6.52941 6 6.52941C5.70807 6.52941 5.47059 6.29193 5.47059 6ZM7.62835 7.61433C7.48729 7.27769 7.24464 6.99402 6.93913 6.80115C7.12355 6.58527 7.23529 6.30553 7.23529 6C7.23529 5.31885 6.68115 4.76471 6 4.76471C5.31885 4.76471 4.76471 5.31885 4.76471 6C4.76471 6.30551 4.87642 6.58527 5.06087 6.80115C4.75536 6.99402 4.51271 7.27769 4.37165 7.61433C3.96035 7.19948 3.70588 6.62892 3.70588 6C3.70588 4.73501 4.73501 3.70588 6 3.70588C7.26499 3.70588 8.29412 4.73501 8.29412 6C8.29412 6.62892 8.03965 7.19948 7.62835 7.61433Z" fill="white"/>
<path d="M4.97002 8.04948L3.99709 7.81841L3.81465 8.58656L4.5195 8.94225L4.97002 8.04948ZM7.02998 8.04948L7.48047 8.94226L8.18535 8.58658L8.00291 7.81841L7.02998 8.04948ZM7.62835 7.61433L6.70605 8.0008L7.28457 9.38142L8.33849 8.31839L7.62835 7.61433ZM6.93913 6.80115L6.1788 6.15162L5.4284 7.03002L6.4053 7.64674L6.93913 6.80115ZM5.06087 6.80115L5.5947 7.64674L6.57166 7.02998L5.82116 6.15157L5.06087 6.80115ZM4.37165 7.61433L3.66151 8.31839L4.71543 9.38142L5.29395 8.0008L4.37165 7.61433ZM6 2C3.7935 2 2 3.7935 2 6H4C4 4.89807 4.89807 4 6 4V2ZM2 6C2 8.2065 3.7935 10 6 10V8C4.89807 8 4 7.10193 4 6H2ZM6 10C8.2065 10 10 8.2065 10 6H8C8 7.10193 7.10193 8 6 8V10ZM10 6C10 3.7935 8.2065 2 6 2V4C7.10193 4 8 4.89807 8 6H10ZM5.94296 8.28055C5.94547 8.26998 5.95239 8.25762 5.96468 8.24777C5.97543 8.23915 5.98643 8.23529 6 8.23529V6.23529C5.02532 6.23529 4.21212 6.91301 3.99709 7.81841L5.94296 8.28055ZM6 8.23529C6.01357 8.23529 6.02457 8.23915 6.03532 8.24777C6.04761 8.25762 6.05453 8.26998 6.05704 8.28055L8.00291 7.81841C7.78788 6.91301 6.97468 6.23529 6 6.23529V8.23529ZM6.57948 7.15671C6.21614 7.34004 5.78397 7.34012 5.42055 7.15672L4.5195 8.94225C5.44977 9.4117 6.55068 9.41144 7.48047 8.94226L6.57948 7.15671ZM6.47059 6C6.47059 6.26036 6.26036 6.47059 6 6.47059V4.47059C5.15579 4.47059 4.47059 5.15579 4.47059 6H6.47059ZM6 6.47059C5.73964 6.47059 5.52941 6.26036 5.52941 6H7.52941C7.52941 5.15579 6.84421 4.47059 6 4.47059V6.47059ZM5.52941 6C5.52941 5.73964 5.73964 5.52941 6 5.52941V7.52941C6.84421 7.52941 7.52941 6.84421 7.52941 6H5.52941ZM6 5.52941C6.26036 5.52941 6.47059 5.73964 6.47059 6H4.47059C4.47059 6.84421 5.15579 7.52941 6 7.52941V5.52941ZM8.55066 7.22786C8.32919 6.69934 7.9496 6.25647 7.47296 5.95556L6.4053 7.64674C6.53967 7.73158 6.6454 7.85605 6.70605 8.0008L8.55066 7.22786ZM7.69946 7.45069C8.0317 7.06178 8.23529 6.55404 8.23529 6H6.23529C6.23529 6.05702 6.21541 6.10876 6.1788 6.15162L7.69946 7.45069ZM8.23529 6C8.23529 4.76656 7.23344 3.76471 6 3.76471V5.76471C6.12887 5.76471 6.23529 5.87113 6.23529 6H8.23529ZM6 3.76471C4.76656 3.76471 3.76471 4.76656 3.76471 6H5.76471C5.76471 5.87113 5.87113 5.76471 6 5.76471V3.76471ZM3.76471 6C3.76471 6.55396 3.96824 7.06176 4.30058 7.45074L5.82116 6.15157C5.78461 6.10879 5.76471 6.05706 5.76471 6H3.76471ZM4.52704 5.95556C4.0504 6.25647 3.67081 6.69934 3.44934 7.22786L5.29395 8.0008C5.3546 7.85605 5.46033 7.73158 5.5947 7.64674L4.52704 5.95556ZM5.08179 6.91027C4.84789 6.67435 4.70588 6.35365 4.70588 6H2.70588C2.70588 6.90418 3.07282 7.72462 3.66151 8.31839L5.08179 6.91027ZM4.70588 6C4.70588 5.2873 5.2873 4.70588 6 4.70588V2.70588C4.18273 2.70588 2.70588 4.18273 2.70588 6H4.70588ZM6 4.70588C6.7127 4.70588 7.29412 5.2873 7.29412 6H9.29412C9.29412 4.18273 7.81727 2.70588 6 2.70588V4.70588ZM7.29412 6C7.29412 6.35365 7.15211 6.67435 6.91821 6.91027L8.33849 8.31839C8.92718 7.72462 9.29412 6.90418 9.29412 6H7.29412Z" fill="#6891C2" mask="url(#path-3-inside-2)"/>
</svg>
