<svg width="12" height="12" viewBox="0 0 12 12" fill="none" xmlns="http://www.w3.org/2000/svg">
<path d="M12 7.00487V4.99513L10.4101 4.73014C10.3152 4.39974 10.1832 4.0816 10.016 3.77998L10.9532 2.46791L9.53209 1.0468L8.22002 1.984C7.91838 1.8168 7.60026 1.68482 7.26986 1.58988L7.00487 0H4.99513L4.73014 1.58988C4.39974 1.68485 4.0816 1.81682 3.77998 1.984L2.46791 1.0468L1.0468 2.46791L1.984 3.77998C1.8168 4.08162 1.68482 4.39974 1.58988 4.73014L0 4.99513V7.00487L1.58988 7.26986C1.68485 7.60026 1.81682 7.9184 1.984 8.22002L1.0468 9.53209L2.46791 10.9532L3.77998 10.016C4.08162 10.1832 4.39974 10.3152 4.73014 10.4101L4.99513 12H7.00487L7.26984 10.4101C7.60024 10.3152 7.91838 10.1832 8.22 10.016L9.53207 10.9532L10.9532 9.53207L10.016 8.22C10.1832 7.91835 10.3152 7.60024 10.4101 7.26984L12 7.00487ZM10.0312 9.45579L9.45576 10.0312L8.25191 9.17132C8.13393 9.23475 7.66233 9.60104 6.87972 9.78231L6.64998 9.83551L6.40689 11.2941H5.59311L5.35 9.83551C5.21605 9.79515 4.6328 9.72332 3.94814 9.29617L3.74807 9.17132L2.54421 10.0312L1.96875 9.45579L2.82866 8.25193C2.76414 8.13198 2.39885 7.66195 2.21767 6.87974L2.16447 6.65L0.705882 6.40689V5.59311L2.16449 5.35C2.20482 5.21605 2.27668 4.6328 2.70384 3.94814L2.82868 3.74807L1.96878 2.54421L2.54424 1.96875L3.74809 2.82866C3.86805 2.76414 4.33807 2.39885 5.12028 2.21767L5.35002 2.16447L5.59311 0.705882H6.40689L6.64998 2.16449C6.78386 2.2048 7.36722 2.27668 8.05184 2.70384L8.25191 2.82868L9.45576 1.96878L10.0312 2.54424L9.17132 3.74809C9.23581 3.86805 9.60113 4.33807 9.78231 5.12028L9.83551 5.35002L11.2941 5.59311V6.40689L9.83551 6.65C9.79518 6.78395 9.72332 7.3672 9.29617 8.05186L9.17132 8.25193L10.0312 9.45579Z" fill="white"/>
<path d="M6 3C4.34579 3 3 4.34579 3 6C3 7.65421 4.34579 9 6 9C7.65421 9 9 7.65421 9 6C9 4.34579 7.65421 3 6 3ZM4.97002 8.04948C5.08075 7.58325 5.50038 7.23529 6 7.23529C6.49962 7.23529 6.91925 7.58325 7.02998 8.04948C6.38341 8.37574 5.61687 8.37591 4.97002 8.04948ZM5.47059 6C5.47059 5.70807 5.70807 5.47059 6 5.47059C6.29193 5.47059 6.52941 5.70807 6.52941 6C6.52941 6.29193 6.29193 6.52941 6 6.52941C5.70807 6.52941 5.47059 6.29193 5.47059 6ZM7.62835 7.61433C7.48729 7.27769 7.24464 6.99402 6.93913 6.80115C7.12355 6.58527 7.23529 6.30553 7.23529 6C7.23529 5.31885 6.68115 4.76471 6 4.76471C5.31885 4.76471 4.76471 5.31885 4.76471 6C4.76471 6.30551 4.87642 6.58527 5.06087 6.80115C4.75536 6.99402 4.51271 7.27769 4.37165 7.61433C3.96035 7.19948 3.70588 6.62892 3.70588 6C3.70588 4.73501 4.73501 3.70588 6 3.70588C7.26499 3.70588 8.29412 4.73501 8.29412 6C8.29412 6.62892 8.03965 7.19948 7.62835 7.61433Z" fill="white"/>
</svg>
