<svg xmlns="http://www.w3.org/2000/svg" width="12" height="12" viewBox="0 0 12 12">
    <path fill="#999" d="M7.125 0c.207 0 .375.168.375.375 0 .184-.133.337-.308.369L7.125.75h-6c-.184 0-.337.133-.369.308l-.006.067v9.75c0 .184.133.337.308.369l.067.006h9.75c.184 0 .337-.133.369-.308l.006-.067v-6c0-.207.168-.375.375-.375.184 0 .337.133.369.308l.006.067v6c0 .585-.446 1.065-1.017 1.12l-.108.005h-9.75C.54 12 .06 11.554.005 10.983L0 10.875v-9.75C0 .54.446.06 1.017.005L1.125 0h6zM3.028 5.681c.909-.908 2.382-.908 3.29 0 .91.91.91 2.382.001 3.29-.36.362-1.026.604-1.94.783-.433.085-.894.149-1.356.195-.092.01-.177.017-.255.024l-.363.026c-.228.013-.417-.176-.404-.404.006-.126.022-.342.05-.618l.038-.346c.042-.345.094-.685.157-1.01.18-.914.421-1.58.782-1.94zm2.747.544c-.609-.608-1.595-.608-2.203.001-.217.216-.42.775-.57 1.543-.08.407-.141.845-.186 1.285l-.014.143.144-.013c.44-.045.878-.105 1.285-.185.768-.15 1.327-.354 1.544-.571.608-.608.608-1.594 0-2.203zM11.557.444c.552.552.59 1.426.104 2.028l-.086.097-3.32 3.32c-.147.148-.386.148-.533 0-.13-.13-.145-.332-.043-.479l.043-.052 3.315-3.315c.287-.3.281-.774-.012-1.067-.271-.271-.696-.296-.991-.078l-.071.06-3.32 3.32c-.148.147-.386.147-.533 0-.13-.13-.145-.334-.043-.48l.043-.052L9.437.42c.596-.57 1.537-.559 2.12.024z"/>
</svg>
