<svg xmlns="http://www.w3.org/2000/svg" width="12" height="13" viewBox="0 0 12 13">
    <path fill="#6891c2" d="M5.75 2.962c.69 0 1.25.56 1.25 1.25 0 .513-.308.953-.749 1.146l-.001 5.854H8c.277 0 .5.224.5.5 0 .246-.176.45-.41.492l-.09.008H3.5c-.276 0-.5-.223-.5-.5 0-.245.177-.45.41-.491l.09-.008 1.75-.001V5.359c-.404-.177-.697-.561-.743-1.019L4.5 4.213c0-.69.56-1.25 1.25-1.25zM9.816.147c1.079 1.079 1.685 2.541 1.685 4.067 0 1.525-.606 2.987-1.685 4.066-.195.195-.511.195-.707 0-.195-.196-.195-.512 0-.708.891-.89 1.392-2.099 1.392-3.358 0-1.26-.5-2.469-1.392-3.36-.195-.195-.195-.511 0-.707.196-.195.512-.195.707 0zm-7.425 0c.196.196.196.512 0 .708C1.501 1.744 1 2.953 1 4.213c0 1.26.5 2.468 1.391 3.358.196.196.196.512 0 .708-.195.195-.511.195-.707 0C.606 7.2 0 5.738 0 4.213 0 2.687.606 1.225 1.684.146c.196-.195.512-.195.707 0zm5.834 1.592c1.366 1.367 1.366 3.582 0 4.949-.195.195-.512.195-.707 0-.195-.195-.195-.512 0-.707.976-.976.976-2.559 0-3.535-.195-.195-.195-.512 0-.707.195-.195.512-.195.707 0zm-4.242 0c.195.195.195.512 0 .707-.976.976-.976 2.559 0 3.535.195.195.195.512 0 .707-.195.195-.512.195-.707 0-1.367-1.367-1.367-3.582 0-4.949.195-.195.512-.195.707 0zM5.75 3.962c-.138 0-.25.112-.25.25 0 .139.112.25.25.25s.25-.111.25-.25c0-.138-.112-.25-.25-.25z"/>
</svg>
