<svg width="12" height="12" viewBox="0 0 12 12" fill="none" xmlns="http://www.w3.org/2000/svg">
<g clip-path="url(#clip0)">
<path d="M11.7674 2.41163C11.7666 2.41163 11.7658 2.41163 11.7651 2.41163H10.9765V2.14181C10.9808 2.03501 10.9117 1.93904 10.8091 1.9092C10.2616 1.76575 9.69793 1.69381 9.132 1.69521C8.20159 1.69521 6.9339 1.90455 5.99651 2.85822C5.0661 1.89525 3.78911 1.69521 2.86102 1.69521C2.2951 1.69381 1.73138 1.76575 1.18395 1.9092C1.08131 1.93904 1.01223 2.03501 1.01648 2.14181V2.4093H0.232603C0.104148 2.4093 0 2.51345 0 2.6419V10.0712C0 10.1997 0.104148 10.3038 0.232603 10.3038C0.272553 10.3037 0.311805 10.2933 0.346579 10.2736C0.369839 10.262 2.69587 8.98963 5.94301 9.8084H5.9779H5.99884C6.01739 9.81064 6.03611 9.81064 6.05466 9.8084C9.31111 8.98266 11.6371 10.2527 11.6511 10.2736C11.7231 10.3152 11.8117 10.3152 11.8837 10.2736C11.9552 10.2323 11.9995 10.1562 12 10.0736V2.64423C12 2.51577 11.8959 2.41163 11.7674 2.41163ZM0.465206 9.7014V2.87683H1.02113V8.71051C1.01967 8.83897 1.12263 8.94428 1.25109 8.94573C1.26365 8.94588 1.27621 8.945 1.28862 8.94311C1.76982 8.86964 2.25564 8.83077 2.74239 8.82681C3.41665 8.81512 4.08809 8.91654 4.72882 9.12687C3.28189 8.95189 1.81422 9.14967 0.465206 9.7014ZM2.74239 8.36393C2.31932 8.36489 1.89673 8.39208 1.47703 8.44534V2.32556C1.92991 2.22467 2.39238 2.17318 2.85637 2.17205C3.7263 2.17205 4.92654 2.37208 5.75926 3.3118L5.76623 9.10594C5.28242 8.7896 4.33805 8.36393 2.74239 8.36393ZM6.23144 3.3118C7.06416 2.38139 8.26439 2.17205 9.13433 2.17205C9.59828 2.17341 10.0608 2.22488 10.5137 2.32556V8.44534C10.0963 8.39158 9.67606 8.36361 9.25528 8.36161C7.66893 8.36161 6.72223 8.78727 6.23144 9.10361V3.3118V3.3118ZM11.5325 9.7014C10.1806 9.14815 8.70954 8.95035 7.25955 9.12687C7.9033 8.91578 8.57794 8.81434 9.25528 8.82681C9.74509 8.82955 10.234 8.86763 10.7184 8.94079C10.8454 8.96007 10.964 8.87272 10.9832 8.74572C10.9851 8.73331 10.986 8.72075 10.9859 8.70819V2.87683H11.5418L11.5325 9.7014Z" fill="#6891C2"/>
</g>
<defs>
<clipPath id="clip0">
<rect width="12" height="12" fill="white"/>
</clipPath>
</defs>
</svg>
