<svg xmlns="http://www.w3.org/2000/svg" width="14" height="14" viewBox="0 0 14 14">
    <path fill="#6891c2" d="M12.625 12.125c.276 0 .5.224.5.5 0 .245-.177.45-.41.492l-.09.008H1.375c-.276 0-.5-.224-.5-.5 0-.245.177-.45.41-.492l.09-.008h11.25zM7.095.884l.09.027 5.626 2.25c.162.065.277.21.307.378l.007.086v2.25c0 .245-.177.45-.41.492l-.09.008h-1.75v4.75c0 .276-.224.5-.5.5-.245 0-.45-.177-.492-.41l-.008-.09v-4.75h-1.25v4.75c0 .276-.224.5-.5.5-.245 0-.45-.177-.492-.41l-.008-.09v-4.75h-1.25v4.75c0 .276-.224.5-.5.5-.245 0-.45-.177-.492-.41l-.008-.09v-4.75h-1.25v4.75c0 .276-.224.5-.5.5-.245 0-.45-.177-.492-.41l-.008-.09v-4.75h-1.75c-.245 0-.45-.177-.492-.41l-.008-.09v-2.25c0-.175.091-.335.237-.425l.077-.04L6.814.91c.09-.035.187-.044.28-.026zM7 1.913l-5.125 2.05v1.412h10.25V3.963L7 1.913zM7 3.25c.414 0 .75.336.75.75s-.336.75-.75.75-.75-.336-.75-.75.336-.75.75-.75z"/>
</svg>
