<svg xmlns="http://www.w3.org/2000/svg" width="16" height="16" viewBox="0 0 16 16">
  <path fill="#6891c2" fill-rule="evenodd" d="M12 6c1.654 0 3-1.346 3-3s-1.346-3-3-3-3 1.346-3 3c0 .224.029.44.075.65L5.856 5.661C5.344 5.254 4.704 5 4 5 2.346 5 1 6.346 1 8s1.346 3 3 3c.704 0 1.344-.254 1.856-.661l3.219 2.012C9.029 12.56 9 12.776 9 13c0 1.654 1.346 3 3 3s3-1.346 3-3-1.346-3-3-3c-.704 0-1.343.254-1.856.661L6.925 8.649C6.971 8.44 7 8.223 7 8c0-.224-.029-.44-.075-.649l3.22-2.012C10.657 5.746 11.296 6 12 6zm0-4c.551 0 1 .448 1 1s-.449 1-1 1c-.551 0-1-.448-1-1s.449-1 1-1zM4 9c-.551 0-1-.448-1-1s.449-1 1-1c.551 0 1 .448 1 1s-.449 1-1 1zm8 3c.551 0 1 .448 1 1s-.449 1-1 1c-.551 0-1-.448-1-1s.449-1 1-1z" />
</svg>
