<?xml version="1.0" encoding="UTF-8"?>
<svg width="40px" height="40px" viewBox="0 0 40 40" version="1.1" xmlns="http://www.w3.org/2000/svg" xmlns:xlink="http://www.w3.org/1999/xlink">
    <title>mark</title>
    <g id="Page-1" stroke="none" stroke-width="1" fill="none" fill-rule="evenodd">
        <g id="Artboard" transform="translate(-442.000000, -406.000000)">
            <g id="logo_recruit_net_alternative" transform="translate(421.000000, 380.000000)">
                <g id="mark" transform="translate(21.000000, 26.000000)">
                    <path d="M20,0 C21.6219422,0 23.1987902,0.193070766 24.7088154,0.557483506 C22.3342159,1.77496897 20.3431777,4.5300832 18.282359,8.99923155 L18.0826919,9.43708648 L16.9991701,12.3184461 C16.3102068,14.3031402 15.7492713,16.4463846 15.3316341,18.5839642 L15.1817671,19.3849703 L13.1229577,14.7567577 L8.75170453,16.7023082 C12.697927,21.7425641 15.7154504,27.6439391 17.4767937,34.2173617 C17.885369,35.7421857 18.2173251,37.2694891 18.4750218,38.7951845 L18.629899,39.7762084 L18.7115451,39.9588404 L18.7115451,39.9588404 C8.26630429,39.295039 0,30.6128689 0,20 C0,8.954305 8.954305,0 20,0 Z" id="shape" fill="#6598CB"></path>
                    <path d="M31.5517947,3.67146734 C36.6636367,7.29447242 40,13.2576115 40,20 C40,29.6373689 33.1834794,37.6826541 24.1087593,39.5775343 L23.5432322,38.2763121 L19.896752,29.6053503 C19.5705755,28.8189893 19.2921306,28.0022121 19.0658046,27.1575518 C16.4286382,17.3155128 21.812506,7.21390191 31.2103177,3.79320343 L31.5517947,3.67146734 Z" id="shape" fill="#B9B9B9"></path>
                    <path d="M24.7079082,0.557264577 C27.205175,1.1598031 29.5196979,2.23096174 31.5531992,3.67246286 C21.9438465,6.96963257 16.3967582,17.196535 19.0658046,27.1575518 C19.2915054,27.9998788 19.5690375,28.8144765 19.89405,29.5988328 L19.8993285,29.6151981 L23.5432322,38.2763121 L24.1059905,39.5781123 C22.7807411,39.8546391 21.407346,40 20,40 C19.5671739,40 19.1375591,39.986251 18.7115684,39.9591658 L18.629899,39.7762084 L18.6207476,39.710376 C18.3470427,37.8805097 17.9670841,36.0471505 17.4767937,34.2173617 C15.7155505,27.6443125 12.6982698,21.7432346 8.75237705,16.7031672 L13.1229577,14.7567577 L15.1817671,19.3849703 C15.6110379,16.984673 16.2240864,14.551227 16.9991701,12.3184461 L18.0826919,9.43708648 C18.1922554,9.19418133 18.3015815,8.95611365 18.4107377,8.7228571 L18.7377642,8.03749458 L19.0641766,7.38084103 L19.39038,6.75273852 C21.0399531,3.64871136 22.697053,1.63358774 24.5974074,0.615505266 L24.7079082,0.557264577 Z" id="letter" fill="#FFFFFF" fill-rule="nonzero"></path>
                </g>
            </g>
        </g>
    </g>
</svg>