<svg width="12" height="12" viewBox="0 0 12 12" fill="none" xmlns="http://www.w3.org/2000/svg">
<path d="M8.10124 5.6437C8.1004 5.6437 8.0996 5.6437 8.09877 5.6437H7.09383V4.6363C7.09518 4.43312 6.93157 4.26729 6.72839 4.26593C6.72756 4.26593 6.72673 4.26593 6.72592 4.26593H5.27407C5.07089 4.26593 4.90617 4.43065 4.90617 4.63383V5.64123H3.90122C3.69805 5.63988 3.53221 5.80346 3.53085 6.00664C3.53085 6.0083 3.53085 6.00994 3.53085 6.0116V7.46098C3.53085 7.66416 3.69558 7.82888 3.89876 7.82888H4.90617V8.83382C4.90481 9.037 5.06842 9.20283 5.2716 9.20419C5.27243 9.20419 5.27327 9.20419 5.27407 9.20419H6.72346C6.92663 9.20419 7.09136 9.03947 7.09136 8.83629V7.82888H8.09877C8.30195 7.83024 8.46778 7.66663 8.46914 7.46345C8.46914 7.46262 8.46914 7.46178 8.46914 7.46098V6.0116C8.46914 5.80843 8.30445 5.6437 8.10124 5.6437ZM7.97531 7.33506H6.84691C6.71055 7.33506 6.6 7.44561 6.6 7.58197V8.71036H5.39999V7.58197C5.39999 7.44561 5.28944 7.33506 5.15308 7.33506H4.02468V6.13753H5.15308C5.28944 6.13753 5.39999 6.02697 5.39999 5.89062V4.75976H6.59753V5.88815C6.59753 6.02451 6.70808 6.13506 6.84444 6.13506H7.97531V7.33506Z" fill="white"/>
<path d="M10.2963 2.419H8.26172V1.54987C8.27453 1.15326 7.96339 0.821349 7.56678 0.808541C7.54656 0.807892 7.52635 0.808078 7.50616 0.809127H4.49382C4.09753 0.788479 3.75953 1.09298 3.73885 1.48925C3.7378 1.50944 3.73759 1.52965 3.73827 1.54987V2.41407H1.7037C0.918517 2.41407 0 2.86098 0 4.11777V9.48814C0 10.7449 0.918517 11.1918 1.7037 11.1918H10.2963C11.0815 11.1918 12 10.7449 12 9.48814V4.12271C12 2.86592 11.0839 2.419 10.2963 2.419ZM4.23209 1.54987C4.23209 1.47826 4.23209 1.28567 4.49629 1.28567H7.50616C7.77036 1.28567 7.77036 1.47579 7.77036 1.54987V2.41407H4.23209V1.54987ZM11.5062 9.48814C11.5062 10.5795 10.6617 10.698 10.2963 10.698H1.7037C1.34074 10.698 0.493827 10.5795 0.493827 9.48814V4.12271C0.493827 3.03135 1.33827 2.91283 1.7037 2.91283H10.2963C10.6592 2.91283 11.5062 3.03135 11.5062 4.12271V9.48814V9.48814Z" fill="white"/>
</svg>
