<svg xmlns="http://www.w3.org/2000/svg" width="13" height="13" viewBox="0 0 13 13">
    <path fill="#999" d="M2.75 6.75c1.519 0 2.75 1.231 2.75 2.75s-1.231 2.75-2.75 2.75S0 11.019 0 9.5s1.231-2.75 2.75-2.75zm6.75 0c1.519 0 2.75 1.231 2.75 2.75s-1.231 2.75-2.75 2.75-2.75-1.231-2.75-2.75S7.981 6.75 9.5 6.75zm-6.75 1C1.784 7.75 1 8.534 1 9.5s.784 1.75 1.75 1.75S4.5 10.466 4.5 9.5s-.784-1.75-1.75-1.75zm6.75 0c-.966 0-1.75.784-1.75 1.75s.784 1.75 1.75 1.75 1.75-.784 1.75-1.75-.784-1.75-1.75-1.75zM2.75 0C4.269 0 5.5 1.231 5.5 2.75S4.269 5.5 2.75 5.5 0 4.269 0 2.75 1.231 0 2.75 0zM9.5 0c1.519 0 2.75 1.231 2.75 2.75S11.019 5.5 9.5 5.5 6.75 4.269 6.75 2.75 7.981 0 9.5 0zM2.75 1C1.784 1 1 1.784 1 2.75S1.784 4.5 2.75 4.5 4.5 3.716 4.5 2.75 3.716 1 2.75 1zM9.5 1c-.966 0-1.75.784-1.75 1.75S8.534 4.5 9.5 4.5s1.75-.784 1.75-1.75S10.466 1 9.5 1z"/>
</svg>
