<svg xmlns="http://www.w3.org/2000/svg" width="12" height="12" viewBox="0 0 12 12">
    <defs>
        <filter id="prefix__a">
            <feColorMatrix in="SourceGraphic" values="0 0 0 0 0.600000 0 0 0 0 0.600000 0 0 0 0 0.600000 0 0 0 1.000000 0"/>
        </filter>
    </defs>
    <g fill="none" fill-rule="evenodd" filter="url(#prefix__a)" transform="translate(-18 -301)">
        <path fill="#999" fill-rule="nonzero" d="M29.5 308c.276 0 .5.224.5.5v4c0 .276-.224.5-.5.5h-4c-.276 0-.5-.224-.5-.5v-4c0-.276.224-.5.5-.5zm-.5 1h-3v3h3v-3zm-8.5-2c.245 0 .45.177.492.41l.008.09v2c0 .245.177.45.41.492l.09.008h2c.276 0 .5.224.5.5 0 .245-.177.45-.41.492l-.09.008h-2c-.78 0-1.42-.595-1.493-1.356L20 309.5v-2c0-.276.224-.5.5-.5zm6-4c.78 0 1.42.595 1.493 1.356l.007.144v2c0 .276-.224.5-.5.5-.245 0-.45-.177-.492-.41L27 306.5v-2c0-.245-.177-.45-.41-.492L26.5 304h-2c-.276 0-.5-.224-.5-.5 0-.245.177-.45.41-.492l.09-.008h2zm-4-2c.276 0 .5.224.5.5v4c0 .276-.224.5-.5.5h-4c-.276 0-.5-.224-.5-.5v-4c0-.276.224-.5.5-.5zm-.5 1h-3v3h3v-3z"/>
    </g>
</svg>
