<svg xmlns="http://www.w3.org/2000/svg" width="12" height="12" viewBox="0 0 12 12">
    <path fill="#6891c2" d="M8.061.029c.176.075.274.28.24.48l-.019.074-3.846 11.142c-.076.221-.299.331-.497.246-.176-.075-.274-.28-.24-.48l.019-.074L7.564.275c.076-.221.299-.331.497-.246zM2.668 3.105c.12.124.133.316.04.455l-.04.05L.836 5.5l1.832 1.89c.12.124.133.317.04.456l-.04.05c-.12.123-.307.137-.442.04l-.048-.04L.101 5.752c-.12-.124-.133-.317-.04-.456l.04-.05 2.077-2.142c.135-.14.355-.14.49 0zm7.106-.042l.048.042 2.077 2.142c.12.124.133.317.04.456l-.04.05-2.077 2.142c-.135.14-.355.14-.49 0-.12-.124-.133-.316-.04-.455l.04-.05 1.832-1.89-1.832-1.89c-.12-.124-.133-.317-.04-.456l.04-.05c.12-.123.307-.137.442-.04z"/>
</svg>
