<svg width="12" height="12" viewBox="0 0 12 12" fill="none" xmlns="http://www.w3.org/2000/svg">
<path d="M9.53906 2H2.46094C1.10394 2 0 3.10394 0 4.46094V8.22687C0 9.58377 1.10394 10.6878 2.46094 10.6878H9.53906C10.8961 10.6878 12 9.58377 12 8.22687V4.46094C12 3.10394 10.8961 2 9.53906 2ZM11.2969 8.22687C11.2969 9.19604 10.5083 9.98468 9.53906 9.98468H2.46094C1.49167 9.98468 0.703125 9.19604 0.703125 8.22687V4.46094C0.703125 3.49167 1.49167 2.70312 2.46094 2.70312H9.53906C10.5083 2.70312 11.2969 3.49167 11.2969 4.46094V8.22687Z" fill="white"/>
<path d="M9.37045 4.7496H4.75061C4.55643 4.7496 4.39905 4.90698 4.39905 5.10117C4.39905 5.29535 4.55643 5.45273 4.75061 5.45273H9.37045C9.56464 5.45273 9.72202 5.29535 9.72202 5.10117C9.72202 4.90698 9.56464 4.7496 9.37045 4.7496Z" fill="white"/>
<path d="M2.62958 5.45273H3.7012C3.89539 5.45273 4.05276 5.29535 4.05276 5.10117C4.05276 4.90698 3.89539 4.7496 3.7012 4.7496H2.62958C2.43539 4.7496 2.27802 4.90698 2.27802 5.10117C2.27802 5.29535 2.43539 5.45273 2.62958 5.45273Z" fill="white"/>
<path d="M2.62958 6.69547H7.24942C7.4436 6.69547 7.60098 6.53799 7.60098 6.3439C7.60098 6.14972 7.4436 5.99234 7.24942 5.99234H2.62958C2.43539 5.99234 2.27802 6.14972 2.27802 6.3439C2.27802 6.53799 2.43539 6.69547 2.62958 6.69547V6.69547Z" fill="white"/>
<path d="M9.37045 5.99234H8.29883C8.10464 5.99234 7.94727 6.14972 7.94727 6.3439C7.94727 6.53799 8.10464 6.69547 8.29883 6.69547H9.37045C9.56464 6.69547 9.72202 6.53799 9.72202 6.3439C9.72202 6.14972 9.56464 5.99234 9.37045 5.99234V5.99234Z" fill="white"/>
<path d="M9.37045 7.23499H4.75061C4.55643 7.23499 4.39905 7.39246 4.39905 7.58655C4.39905 7.78073 4.55643 7.93811 4.75061 7.93811H9.37045C9.56464 7.93811 9.72202 7.78073 9.72202 7.58655C9.72202 7.39246 9.56464 7.23499 9.37045 7.23499Z" fill="white"/>
<path d="M3.7012 7.23499H2.62958C2.43539 7.23499 2.27802 7.39246 2.27802 7.58655C2.27802 7.78073 2.43539 7.93811 2.62958 7.93811H3.7012C3.89539 7.93811 4.05276 7.78073 4.05276 7.58655C4.05276 7.39246 3.89539 7.23499 3.7012 7.23499Z" fill="white"/>
</svg>
