<svg width="12" height="12" viewBox="0 0 12 12" fill="none" xmlns="http://www.w3.org/2000/svg">
<mask id="path-1-inside-1" fill="white">
<path d="M9.53906 2H2.46094C1.10394 2 0 3.10394 0 4.46094V8.22687C0 9.58377 1.10394 10.6878 2.46094 10.6878H9.53906C10.8961 10.6878 12 9.58377 12 8.22687V4.46094C12 3.10394 10.8961 2 9.53906 2ZM11.2969 8.22687C11.2969 9.19604 10.5083 9.98468 9.53906 9.98468H2.46094C1.49167 9.98468 0.703125 9.19604 0.703125 8.22687V4.46094C0.703125 3.49167 1.49167 2.70312 2.46094 2.70312H9.53906C10.5083 2.70312 11.2969 3.49167 11.2969 4.46094V8.22687Z"/>
</mask>
<path d="M9.53906 2H2.46094C1.10394 2 0 3.10394 0 4.46094V8.22687C0 9.58377 1.10394 10.6878 2.46094 10.6878H9.53906C10.8961 10.6878 12 9.58377 12 8.22687V4.46094C12 3.10394 10.8961 2 9.53906 2ZM11.2969 8.22687C11.2969 9.19604 10.5083 9.98468 9.53906 9.98468H2.46094C1.49167 9.98468 0.703125 9.19604 0.703125 8.22687V4.46094C0.703125 3.49167 1.49167 2.70312 2.46094 2.70312H9.53906C10.5083 2.70312 11.2969 3.49167 11.2969 4.46094V8.22687Z" fill="white"/>
<path d="M9.53906 1H2.46094V3H9.53906V1ZM2.46094 1C0.551658 1 -1 2.55166 -1 4.46094H1C1 3.65623 1.65623 3 2.46094 3V1ZM-1 4.46094V8.22687H1V4.46094H-1ZM-1 8.22687C-1 10.136 0.551634 11.6878 2.46094 11.6878V9.68781C1.65625 9.68781 1 9.03151 1 8.22687H-1ZM2.46094 11.6878H9.53906V9.68781H2.46094V11.6878ZM9.53906 11.6878C11.4484 11.6878 13 10.136 13 8.22687H11C11 9.03151 10.3437 9.68781 9.53906 9.68781V11.6878ZM13 8.22687V4.46094H11V8.22687H13ZM13 4.46094C13 2.55166 11.4483 1 9.53906 1V3C10.3438 3 11 3.65623 11 4.46094H13ZM10.2969 8.22687C10.2969 8.64379 9.95601 8.98468 9.53906 8.98468V10.9847C11.0606 10.9847 12.2969 9.7483 12.2969 8.22687H10.2969ZM9.53906 8.98468H2.46094V10.9847H9.53906V8.98468ZM2.46094 8.98468C2.04399 8.98468 1.70312 8.64379 1.70312 8.22687H-0.296875C-0.296875 9.7483 0.93935 10.9847 2.46094 10.9847V8.98468ZM1.70312 8.22687V4.46094H-0.296875V8.22687H1.70312ZM1.70312 4.46094C1.70312 4.04395 2.04395 3.70312 2.46094 3.70312V1.70312C0.939384 1.70312 -0.296875 2.93938 -0.296875 4.46094H1.70312ZM2.46094 3.70312H9.53906V1.70312H2.46094V3.70312ZM9.53906 3.70312C9.95605 3.70312 10.2969 4.04395 10.2969 4.46094H12.2969C12.2969 2.93938 11.0606 1.70312 9.53906 1.70312V3.70312ZM10.2969 4.46094V8.22687H12.2969V4.46094H10.2969Z" fill="#6891C2" mask="url(#path-1-inside-1)"/>
<mask id="path-3-inside-2" fill="white">
<path d="M9.37045 4.7496H4.75061C4.55643 4.7496 4.39905 4.90698 4.39905 5.10117C4.39905 5.29535 4.55643 5.45273 4.75061 5.45273H9.37045C9.56464 5.45273 9.72202 5.29535 9.72202 5.10117C9.72202 4.90698 9.56464 4.7496 9.37045 4.7496Z"/>
</mask>
<path d="M9.37045 4.7496H4.75061C4.55643 4.7496 4.39905 4.90698 4.39905 5.10117C4.39905 5.29535 4.55643 5.45273 4.75061 5.45273H9.37045C9.56464 5.45273 9.72202 5.29535 9.72202 5.10117C9.72202 4.90698 9.56464 4.7496 9.37045 4.7496Z" fill="white"/>
<path d="M9.37045 3.7496H4.75061V5.7496H9.37045V3.7496ZM4.75061 3.7496C4.00414 3.7496 3.39905 4.3547 3.39905 5.10117H5.39905C5.39905 5.45927 5.10871 5.7496 4.75061 5.7496V3.7496ZM3.39905 5.10117C3.39905 5.84763 4.00414 6.45273 4.75061 6.45273V4.45273C5.10871 4.45273 5.39905 4.74306 5.39905 5.10117H3.39905ZM4.75061 6.45273H9.37045V4.45273H4.75061V6.45273ZM9.37045 6.45273C10.1169 6.45273 10.722 5.84763 10.722 5.10117H8.72202C8.72202 4.74306 9.01235 4.45273 9.37045 4.45273V6.45273ZM10.722 5.10117C10.722 4.3547 10.1169 3.7496 9.37045 3.7496V5.7496C9.01235 5.7496 8.72202 5.45927 8.72202 5.10117H10.722Z" fill="#6891C2" mask="url(#path-3-inside-2)"/>
<mask id="path-5-inside-3" fill="white">
<path d="M2.62958 5.45273H3.7012C3.89539 5.45273 4.05276 5.29535 4.05276 5.10117C4.05276 4.90698 3.89539 4.7496 3.7012 4.7496H2.62958C2.43539 4.7496 2.27802 4.90698 2.27802 5.10117C2.27802 5.29535 2.43539 5.45273 2.62958 5.45273Z"/>
</mask>
<path d="M2.62958 5.45273H3.7012C3.89539 5.45273 4.05276 5.29535 4.05276 5.10117C4.05276 4.90698 3.89539 4.7496 3.7012 4.7496H2.62958C2.43539 4.7496 2.27802 4.90698 2.27802 5.10117C2.27802 5.29535 2.43539 5.45273 2.62958 5.45273Z" fill="white"/>
<path d="M2.62958 6.45273H3.7012V4.45273H2.62958V6.45273ZM3.7012 6.45273C4.44767 6.45273 5.05276 5.84763 5.05276 5.10117H3.05276C3.05276 4.74306 3.3431 4.45273 3.7012 4.45273V6.45273ZM5.05276 5.10117C5.05276 4.3547 4.44767 3.7496 3.7012 3.7496V5.7496C3.3431 5.7496 3.05276 5.45927 3.05276 5.10117H5.05276ZM3.7012 3.7496H2.62958V5.7496H3.7012V3.7496ZM2.62958 3.7496C1.88311 3.7496 1.27802 4.3547 1.27802 5.10117H3.27802C3.27802 5.45927 2.98768 5.7496 2.62958 5.7496V3.7496ZM1.27802 5.10117C1.27802 5.84763 1.88311 6.45273 2.62958 6.45273V4.45273C2.98768 4.45273 3.27802 4.74306 3.27802 5.10117H1.27802Z" fill="#6891C2" mask="url(#path-5-inside-3)"/>
<mask id="path-7-inside-4" fill="white">
<path d="M2.62958 6.69547H7.24942C7.4436 6.69547 7.60098 6.53799 7.60098 6.3439C7.60098 6.14972 7.4436 5.99234 7.24942 5.99234H2.62958C2.43539 5.99234 2.27802 6.14972 2.27802 6.3439C2.27802 6.53799 2.43539 6.69547 2.62958 6.69547V6.69547Z"/>
</mask>
<path d="M2.62958 6.69547H7.24942C7.4436 6.69547 7.60098 6.53799 7.60098 6.3439C7.60098 6.14972 7.4436 5.99234 7.24942 5.99234H2.62958C2.43539 5.99234 2.27802 6.14972 2.27802 6.3439C2.27802 6.53799 2.43539 6.69547 2.62958 6.69547V6.69547Z" fill="white"/>
<path d="M2.62958 7.69547H7.24942V5.69547H2.62958V7.69547ZM7.24942 7.69547C7.99606 7.69547 8.60098 7.09011 8.60098 6.3439H6.60098C6.60098 5.98588 6.89115 5.69547 7.24942 5.69547V7.69547ZM8.60098 6.3439C8.60098 5.59743 7.99589 4.99234 7.24942 4.99234V6.99234C6.89132 6.99234 6.60098 6.702 6.60098 6.3439H8.60098ZM7.24942 4.99234H2.62958V6.99234H7.24942V4.99234ZM2.62958 4.99234C1.88311 4.99234 1.27802 5.59743 1.27802 6.3439H3.27802C3.27802 6.702 2.98768 6.99234 2.62958 6.99234V4.99234ZM1.27802 6.3439C1.27802 7.09011 1.88294 7.69547 2.62958 7.69547V5.69547C2.98785 5.69547 3.27802 5.98588 3.27802 6.3439H1.27802Z" fill="#6891C2" mask="url(#path-7-inside-4)"/>
<mask id="path-9-inside-5" fill="white">
<path d="M9.37045 5.99234H8.29883C8.10464 5.99234 7.94727 6.14972 7.94727 6.3439C7.94727 6.53799 8.10464 6.69547 8.29883 6.69547H9.37045C9.56464 6.69547 9.72202 6.53799 9.72202 6.3439C9.72202 6.14972 9.56464 5.99234 9.37045 5.99234V5.99234Z"/>
</mask>
<path d="M9.37045 5.99234H8.29883C8.10464 5.99234 7.94727 6.14972 7.94727 6.3439C7.94727 6.53799 8.10464 6.69547 8.29883 6.69547H9.37045C9.56464 6.69547 9.72202 6.53799 9.72202 6.3439C9.72202 6.14972 9.56464 5.99234 9.37045 5.99234V5.99234Z" fill="white"/>
<path d="M9.37045 4.99234H8.29883V6.99234H9.37045V4.99234ZM8.29883 4.99234C7.55236 4.99234 6.94727 5.59743 6.94727 6.3439H8.94727C8.94727 6.702 8.65693 6.99234 8.29883 6.99234V4.99234ZM6.94727 6.3439C6.94727 7.09011 7.55219 7.69547 8.29883 7.69547V5.69547C8.6571 5.69547 8.94727 5.98588 8.94727 6.3439H6.94727ZM8.29883 7.69547H9.37045V5.69547H8.29883V7.69547ZM9.37045 7.69547C10.1171 7.69547 10.722 7.09011 10.722 6.3439H8.72202C8.72202 5.98588 9.01218 5.69547 9.37045 5.69547V7.69547ZM10.722 6.3439C10.722 5.59743 10.1169 4.99234 9.37045 4.99234V6.99234C9.01235 6.99234 8.72202 6.702 8.72202 6.3439H10.722Z" fill="#6891C2" mask="url(#path-9-inside-5)"/>
<mask id="path-11-inside-6" fill="white">
<path d="M9.37045 7.23499H4.75061C4.55643 7.23499 4.39905 7.39246 4.39905 7.58655C4.39905 7.78073 4.55643 7.93811 4.75061 7.93811H9.37045C9.56464 7.93811 9.72202 7.78073 9.72202 7.58655C9.72202 7.39246 9.56464 7.23499 9.37045 7.23499Z"/>
</mask>
<path d="M9.37045 7.23499H4.75061C4.55643 7.23499 4.39905 7.39246 4.39905 7.58655C4.39905 7.78073 4.55643 7.93811 4.75061 7.93811H9.37045C9.56464 7.93811 9.72202 7.78073 9.72202 7.58655C9.72202 7.39246 9.56464 7.23499 9.37045 7.23499Z" fill="white"/>
<path d="M9.37045 6.23499H4.75061V8.23499H9.37045V6.23499ZM4.75061 6.23499C4.00397 6.23499 3.39905 6.84034 3.39905 7.58655H5.39905C5.39905 7.94457 5.10888 8.23499 4.75061 8.23499V6.23499ZM3.39905 7.58655C3.39905 8.33302 4.00414 8.93811 4.75061 8.93811V6.93811C5.10871 6.93811 5.39905 7.22845 5.39905 7.58655H3.39905ZM4.75061 8.93811H9.37045V6.93811H4.75061V8.93811ZM9.37045 8.93811C10.1169 8.93811 10.722 8.33302 10.722 7.58655H8.72202C8.72202 7.22845 9.01235 6.93811 9.37045 6.93811V8.93811ZM10.722 7.58655C10.722 6.84034 10.1171 6.23499 9.37045 6.23499V8.23499C9.01218 8.23499 8.72202 7.94457 8.72202 7.58655H10.722Z" fill="#6891C2" mask="url(#path-11-inside-6)"/>
<mask id="path-13-inside-7" fill="white">
<path d="M3.7012 7.23499H2.62958C2.43539 7.23499 2.27802 7.39246 2.27802 7.58655C2.27802 7.78073 2.43539 7.93811 2.62958 7.93811H3.7012C3.89539 7.93811 4.05276 7.78073 4.05276 7.58655C4.05276 7.39246 3.89539 7.23499 3.7012 7.23499Z"/>
</mask>
<path d="M3.7012 7.23499H2.62958C2.43539 7.23499 2.27802 7.39246 2.27802 7.58655C2.27802 7.78073 2.43539 7.93811 2.62958 7.93811H3.7012C3.89539 7.93811 4.05276 7.78073 4.05276 7.58655C4.05276 7.39246 3.89539 7.23499 3.7012 7.23499Z" fill="white"/>
<path d="M3.7012 6.23499H2.62958V8.23499H3.7012V6.23499ZM2.62958 6.23499C1.88294 6.23499 1.27802 6.84034 1.27802 7.58655H3.27802C3.27802 7.94457 2.98785 8.23499 2.62958 8.23499V6.23499ZM1.27802 7.58655C1.27802 8.33302 1.88311 8.93811 2.62958 8.93811V6.93811C2.98768 6.93811 3.27802 7.22845 3.27802 7.58655H1.27802ZM2.62958 8.93811H3.7012V6.93811H2.62958V8.93811ZM3.7012 8.93811C4.44767 8.93811 5.05276 8.33302 5.05276 7.58655H3.05276C3.05276 7.22845 3.3431 6.93811 3.7012 6.93811V8.93811ZM5.05276 7.58655C5.05276 6.84034 4.44784 6.23499 3.7012 6.23499V8.23499C3.34293 8.23499 3.05276 7.94457 3.05276 7.58655H5.05276Z" fill="#6891C2" mask="url(#path-13-inside-7)"/>
</svg>
