<svg xmlns="http://www.w3.org/2000/svg" width="10" height="14" viewBox="0 0 10 14">
    <path fill="#999" d="M7.026 7.244L5.437 8.515c-.156.126-.37.144-.542.054l-.082-.054-1.59-1.271-1.461.973 2.322 2.533h2.081l2.321-2.532-1.46-.974zm2.723.896l-.001.023v.001l-.001.013-.008.053c-.004.02-.01.04-.016.059l-.008.02c-.013.032-.03.064-.049.093l-.037.045-.01.016-4.125 4.5c-.177.192-.465.213-.667.064l-.07-.064-4.126-4.5-.011-.016-.036-.045c-.02-.03-.036-.06-.049-.093l-.007-.02c-.007-.02-.013-.04-.017-.06l-.002-.011-.004-.025C.502 8.173.5 8.153.5 8.133V1.375c0-.276.224-.5.5-.5.245 0 .45.177.492.41l.008.09v5.814l1.25-.833V2.125c0-.276.224-.5.5-.5.245 0 .45.177.492.41l.008.09v4.259l1.375 1.1 1.375-1.1V2.125c0-.276.224-.5.5-.5.245 0 .45.177.492.41l.008.09v4.232l1.25.833V1.375c0-.245.177-.45.41-.492l.09-.008c.245 0 .45.177.492.41l.008.09v6.758h-.001v.007z"/>
</svg>
