<svg id="Group_15" data-name="Group 15" xmlns="http://www.w3.org/2000/svg" xmlns:xlink="http://www.w3.org/1999/xlink" width="25.5" height="31.166" viewBox="0 0 25.5 31.166">
  <defs>
    <clipPath id="clip-path">
      <path id="Combined_Shape" data-name="Combined Shape" d="M4.25,31.166A4.254,4.254,0,0,1,0,26.917V4.25A4.254,4.254,0,0,1,4.25,0H15.583A1.41,1.41,0,0,1,16.4.256l0,0,.012.009a1.4,1.4,0,0,1,.173.147l8.5,8.5a1.4,1.4,0,0,1,.146.173l.01.013,0,0a1.41,1.41,0,0,1,.256.778q0,.018,0,.035v17a4.254,4.254,0,0,1-4.25,4.25ZM2.833,4.25V26.917A1.417,1.417,0,0,0,4.25,28.333h17a1.417,1.417,0,0,0,1.417-1.417V11.333H15.583a1.417,1.417,0,0,1-1.417-1.417V2.833H4.25A1.417,1.417,0,0,0,2.833,4.25ZM17,8.5h3.664L17,4.836ZM7.084,24.083a1.417,1.417,0,1,1,0-2.833H18.416a1.417,1.417,0,1,1,0,2.833Zm0-5.667a1.417,1.417,0,1,1,0-2.833H18.416a1.417,1.417,0,1,1,0,2.833Zm0-5.666a1.417,1.417,0,1,1,0-2.833H9.917a1.417,1.417,0,1,1,0,2.833Z" transform="translate(0 0)"/>
    </clipPath>
  </defs>
  <path id="Combined_Shape-2" data-name="Combined Shape" d="M4.25,31.166A4.254,4.254,0,0,1,0,26.917V4.25A4.254,4.254,0,0,1,4.25,0H15.583A1.41,1.41,0,0,1,16.4.256l0,0,.012.009a1.4,1.4,0,0,1,.173.147l8.5,8.5a1.4,1.4,0,0,1,.146.173l.01.013,0,0a1.41,1.41,0,0,1,.256.778q0,.018,0,.035v17a4.254,4.254,0,0,1-4.25,4.25ZM2.833,4.25V26.917A1.417,1.417,0,0,0,4.25,28.333h17a1.417,1.417,0,0,0,1.417-1.417V11.333H15.583a1.417,1.417,0,0,1-1.417-1.417V2.833H4.25A1.417,1.417,0,0,0,2.833,4.25ZM17,8.5h3.664L17,4.836ZM7.084,24.083a1.417,1.417,0,1,1,0-2.833H18.416a1.417,1.417,0,1,1,0,2.833Zm0-5.667a1.417,1.417,0,1,1,0-2.833H18.416a1.417,1.417,0,1,1,0,2.833Zm0-5.666a1.417,1.417,0,1,1,0-2.833H9.917a1.417,1.417,0,1,1,0,2.833Z" transform="translate(0 0)"/>
  <g id="Mask_Group_15" data-name="Mask Group 15" clip-path="url(#clip-path)">
    <g id="_Color" data-name="🎨Color" transform="translate(-4.25 -1.417)">
      <rect id="Rectangle" width="34" height="34" fill="#818181"/>
    </g>
  </g>
</svg>
