<svg width="33" height="27" viewBox="0 0 33 27" fill="none" xmlns="http://www.w3.org/2000/svg">
<path d="M18.2967 5.78261H8.04884L6.94932 0.426086C6.89778 0.191304 6.7088 0.0173913 6.47687 0C6.47687 0 6.47687 0 6.46828 0C6.46828 0 6.46828 0 6.45969 0H6.4511C6.4511 0 6.4511 0 6.44251 0C6.44251 0 6.44251 0 6.43392 0H0.532579C0.240519 0 0 0.243477 0 0.539129C0 0.834781 0.240519 1.07826 0.532579 1.07826H6.00442L9.69813 19.087C9.19132 19.2 8.72746 19.4435 8.35809 19.8261C7.80833 20.3739 7.49908 21.1565 7.51626 21.9565C7.51626 23.5739 8.78758 24.887 10.3424 24.887H10.9179C11.1584 26.0957 12.1892 27 13.4262 27C14.6632 27 15.694 26.087 15.9345 24.887H24.0606C24.3012 26.0957 25.332 27 26.5689 27C27.9863 27 29.1287 25.8087 29.1287 24.3478C29.1287 22.887 27.9777 21.6957 26.5689 21.6957C25.332 21.6957 24.3012 22.6087 24.0606 23.8087H15.9345C15.694 22.6 14.6632 21.6957 13.4262 21.6957C12.1892 21.6957 11.1584 22.6087 10.9179 23.8087H10.3424C9.37171 23.8087 8.58142 22.9826 8.58142 21.9478C8.56424 20.9565 9.32017 20.0696 10.3338 20.1043C10.3596 20.1043 9.86993 20.087 10.3338 20.1043C10.3767 20.1043 9.86993 20.087 10.3338 20.1043C10.3767 20.1043 10.4283 20.1043 10.4712 20.087H28.39C28.6219 20.087 28.8281 19.9304 28.8968 19.713L32.9771 6.48696C33.0801 6.14783 32.8224 5.79131 32.4703 5.79131H21.7671L18.2967 5.78261ZM21.0455 6.86087H31.7229L27.9777 19.0087H10.7719L8.27219 6.86087H19.0183H21.0455ZM26.5603 22.7652C27.385 22.7652 28.0636 23.4696 28.0636 24.3391C28.0636 25.2087 27.3936 25.913 26.5603 25.913C25.7271 25.913 25.0571 25.2087 25.0571 24.3391C25.0657 23.4696 25.7357 22.7652 26.5603 22.7652ZM13.409 22.7652C14.2165 22.7652 14.8693 23.4348 14.9037 24.2696C14.8951 24.313 14.8951 24.3652 14.9037 24.4087C14.8693 25.2435 14.2079 25.913 13.409 25.913C12.5844 25.913 11.9058 25.2087 11.9058 24.3391C11.9144 23.4696 12.5844 22.7652 13.409 22.7652Z" fill="#707070"/>
</svg>
