<svg width="10" height="22" viewBox="0 0 10 22" fill="none" xmlns="http://www.w3.org/2000/svg">
<path d="M9.02902 19.6258L8.73468 20.8824C7.85166 21.2464 7.1463 21.5234 6.62106 21.7139C6.09525 21.905 5.48429 22 4.78818 22C3.71919 22 2.88771 21.7265 2.29469 21.1833C1.70166 20.6379 1.40506 19.9468 1.40506 19.1085C1.40506 18.7839 1.42658 18.4501 1.47132 18.11C1.51645 17.7694 1.58819 17.3859 1.68637 16.9573L2.78991 12.8782C2.88809 12.4876 2.97154 12.1175 3.03837 11.7675C3.10615 11.4197 3.13881 11.0997 3.13881 10.8116C3.13881 10.2907 3.03554 9.92629 2.82994 9.72143C2.62433 9.51716 2.232 9.41345 1.64955 9.41345C1.36427 9.41345 1.07107 9.46116 0.772195 9.55344C0.472002 9.64611 0.215422 9.73563 0 9.81883L0.295096 8.56126C1.01801 8.25387 1.70903 7.99064 2.37002 7.77218C3.03101 7.55312 3.65556 7.44349 4.24632 7.44349C5.30795 7.44349 6.12715 7.71145 6.70243 8.24736C7.27771 8.78367 7.56525 9.47891 7.56525 10.3356C7.56525 10.5129 7.54637 10.8252 7.50578 11.2716C7.46613 11.719 7.39231 12.1289 7.28469 12.5018L6.18587 16.5645C6.09581 16.8908 6.01482 17.2639 5.94439 17.6837C5.87171 18.1007 5.83697 18.4193 5.83697 18.6331C5.83697 19.1725 5.95213 19.5409 6.18304 19.7366C6.41564 19.9324 6.81628 20.0298 7.38532 20.0298C7.65247 20.0298 7.95644 19.9804 8.29421 19.8831C8.63103 19.7859 8.87666 19.7006 9.02902 19.6258ZM9.30769 2.56917C9.30769 3.27702 9.05224 3.88155 8.53889 4.37863C8.02687 4.87747 7.40987 5.1271 6.68808 5.1271C5.96403 5.1271 5.34552 4.87747 4.82764 4.37863C4.3107 3.88136 4.05167 3.27702 4.05167 2.56917C4.05167 1.8627 4.3107 1.25718 4.82764 0.753793C5.34457 0.251199 5.96422 0 6.68808 0C7.40968 0 8.02687 0.25179 8.53889 0.753793C9.05262 1.25718 9.30769 1.86289 9.30769 2.56917Z" fill="#333333"/>
</svg>
