<svg xmlns="http://www.w3.org/2000/svg" xmlns:xlink="http://www.w3.org/1999/xlink" width="20" height="9" viewBox="0 0 20 9">
  <defs>
    <style>
      .cls-1 {
        fill: #2193d4;
        fill-rule: evenodd;
        filter: url(#filter);
      }
    </style>
    <filter id="filter" x="404" y="10062" width="20" height="9" filterUnits="userSpaceOnUse">
      <feFlood result="flood" flood-color="#128eb4"/>
      <feComposite result="composite" operator="in" in2="SourceGraphic"/>
      <feBlend result="blend" in2="SourceGraphic"/>
    </filter>
  </defs>
  <path id="Shape_1_copy_8" data-name="Shape 1 copy 8" class="cls-1" d="M423.821,10066.1l-3.856-3.9a0.521,0.521,0,0,0-.858,0,0.537,0.537,0,0,0,0,.8l2.908,3h-17a0.625,0.625,0,1,0,0,1h17l-2.908,3a0.537,0.537,0,0,0,0,.8,0.556,0.556,0,0,0,.854,0l3.855-3.9A0.534,0.534,0,0,0,423.821,10066.1Z" transform="translate(-404 -10062)"/>
</svg>
