<svg width="20" height="22" viewBox="0 0 20 22" fill="none" xmlns="http://www.w3.org/2000/svg">
<path d="M12.6606 3.6355C12.6606 3.95399 12.7021 4.26306 12.78 4.55765L6.12986 8.38851C5.48026 7.69924 4.57625 7.27119 3.57789 7.27119C1.60477 7.27119 0 8.94346 0 11C0 13.0565 1.60477 14.7288 3.57789 14.7288C4.57596 14.7288 5.47973 14.301 6.12927 13.6121L12.7798 17.4432C12.702 17.7375 12.6606 18.0463 12.6606 18.3645C12.6606 20.3694 14.3063 22 16.3303 22C18.3542 22 20 20.3694 20 18.3645C20 16.3594 18.3542 14.7288 16.3303 14.7288C15.2925 14.7288 14.3541 15.1575 13.686 15.8457L7.02334 12.0076C7.10976 11.687 7.15596 11.349 7.15596 11C7.15596 10.6512 7.1098 10.3135 7.02352 9.99315L13.6866 6.15486C14.3546 6.84264 15.2927 7.27119 16.3303 7.27119C18.3542 7.27119 20 5.64056 20 3.6355C20 1.63063 18.3542 0 16.3303 0C14.3063 0 12.6606 1.63063 12.6606 3.6355Z" fill="#333333"/>
</svg>
