<svg width="24" height="27" viewBox="0 0 24 27" fill="none" xmlns="http://www.w3.org/2000/svg">
<path d="M20.4864 15.1258C19.4294 14.0951 18.1614 13.2588 16.786 12.6727C18.3734 11.351 19.3846 9.3899 19.3846 7.2C19.3846 3.22999 16.0718 0 12 0C7.92823 0 4.61542 3.22999 4.61542 7.2C4.61542 9.38959 5.62641 11.3505 7.21342 12.6722C2.86805 14.5141 0 18.7263 0 23.4V26.55C0 26.7986 0.206665 27 0.461521 27C0.716377 27 0.923042 26.7985 0.923042 26.55V23.4C0.923042 18.9054 3.79709 14.8751 8.09211 13.2979C9.22717 13.992 10.5642 14.4 12 14.4C13.4366 14.4 14.7743 13.9916 15.9099 13.2967C17.3754 13.8382 18.7293 14.6854 19.8338 15.7621C21.9251 17.8012 23.077 20.5137 23.077 23.4V26.55C23.077 26.7986 23.2836 27 23.5385 27C23.7933 27 24 26.7985 24 26.55V23.4C24.0001 20.2733 22.7522 17.3349 20.4864 15.1258ZM12 13.5C8.43707 13.5 5.53847 10.6739 5.53847 7.2C5.53847 3.72611 8.43707 0.900019 12 0.900019C15.563 0.900019 18.4616 3.72617 18.4616 7.20005C18.4616 10.6739 15.563 13.5 12 13.5Z" fill="#707070"/>
</svg>
