<svg width="31" height="22" viewBox="0 0 31 22" fill="none" xmlns="http://www.w3.org/2000/svg">
<path d="M30.3141 3.14343L30.3529 3.39707C29.9783 2.06543 28.9669 1.0379 27.6817 0.6639L27.6546 0.657429C25.2379 1.77411e-05 15.5131 1.78847e-05 15.5131 1.78847e-05C15.5131 1.78847e-05 5.81281 -0.0129234 3.37159 0.657429C2.06185 1.0379 1.0492 2.06543 0.68108 3.3699L0.674622 3.39707C-0.228242 8.12189 -0.234701 13.7992 0.714663 18.8579L0.674622 18.6017C1.0492 19.9333 2.06056 20.9608 3.34576 21.3348L3.37288 21.3413C5.78698 22 15.5144 22 15.5144 22C15.5144 22 25.2134 22 27.6559 21.3413C28.9669 20.9608 29.9796 19.9333 30.3477 18.6288L30.3542 18.6017C30.7649 16.4042 31 13.8755 31 11.2925C31 11.198 31 11.1022 30.9987 11.0065C31 10.9185 31 10.8137 31 10.7088C31 8.12448 30.7649 5.59578 30.3141 3.14343V3.14343ZM12.4106 15.7248V6.28684L20.504 11.0129L12.4106 15.7248Z" fill="#333333"/>
</svg>
