<svg width="138" height="166" viewBox="0 0 138 166" fill="none" xmlns="http://www.w3.org/2000/svg">
<g clip-path="url(#clip0)" filter="url(#filter0_d)">
<path d="M62.7835 71.4145H28.9766V24.1123H62.7835" fill="#F8BD07"/>
<path d="M45.88 54.9609C50.8231 54.9609 54.8302 50.8169 54.8302 45.7051C54.8302 40.5932 50.8231 36.4492 45.88 36.4492C40.9369 36.4492 36.9297 40.5932 36.9297 45.7051C36.9297 50.8169 40.9369 54.9609 45.88 54.9609Z" fill="#AB2C94"/>
<path d="M60.7972 59.0732H30.9668V71.4144H60.7972V59.0732Z" fill="#AB2C94"/>
<path d="M66.7602 20H25V75.5269H66.7602V20ZM62.7797 71.4146H28.9766V24.1124H62.7797V71.4146Z" fill="#AB2C94"/>
<path d="M108.641 71.4145H74.834V24.1123H108.641" fill="#F8BD07"/>
<path d="M91.7374 54.9609C96.6805 54.9609 100.688 50.8169 100.688 45.7051C100.688 40.5932 96.6805 36.4492 91.7374 36.4492C86.7943 36.4492 82.7871 40.5932 82.7871 45.7051C82.7871 50.8169 86.7943 54.9609 91.7374 54.9609Z" fill="#AB2C94"/>
<path d="M106.655 59.0732H76.8242V71.4144H106.655V59.0732Z" fill="#AB2C94"/>
<path d="M112.633 20H70.8574V75.5269H112.633V20ZM108.641 71.4146H74.8535V24.1124H108.66L108.641 71.4146Z" fill="#AB2C94"/>
<path d="M62.7835 131.888H28.9766V84.5859H62.7835" fill="#F8BD07"/>
<path d="M45.88 115.434C50.8231 115.434 54.8302 111.29 54.8302 106.178C54.8302 101.066 50.8231 96.9219 45.88 96.9219C40.9369 96.9219 36.9297 101.066 36.9297 106.178C36.9297 111.29 40.9369 115.434 45.88 115.434Z" fill="#AB2C94"/>
<path d="M60.7972 119.546H30.9668V131.887H60.7972V119.546Z" fill="#AB2C94"/>
<path d="M66.7602 80.4736H25V136.001H66.7602V80.4736ZM62.7797 131.888H28.9766V84.586H62.7797V131.888Z" fill="#AB2C94"/>
<path d="M108.525 131.766H73.7129V83.0625H108.525" fill="#F8BD07"/>
<path d="M91.7374 115.434C96.6805 115.434 100.688 111.29 100.688 106.178C100.688 101.066 96.6805 96.9219 91.7374 96.9219C86.7943 96.9219 82.7871 101.066 82.7871 106.178C82.7871 111.29 86.7943 115.434 91.7374 115.434Z" fill="#AB2C94"/>
<path d="M106.655 119.546H76.8242V131.887H106.655V119.546Z" fill="#AB2C94"/>
<path d="M112.633 80.4736H70.8574V136.001H112.633V80.4736ZM108.641 131.888H74.8535V84.586H108.66L108.641 131.888Z" fill="#AB2C94"/>
</g>
<defs>
<filter id="filter0_d" x="0" y="0" width="137.618" height="166" filterUnits="userSpaceOnUse" color-interpolation-filters="sRGB">
<feFlood flood-opacity="0" result="BackgroundImageFix"/>
<feColorMatrix in="SourceAlpha" type="matrix" values="0 0 0 0 0 0 0 0 0 0 0 0 0 0 0 0 0 0 127 0"/>
<feOffset dy="5"/>
<feGaussianBlur stdDeviation="12.5"/>
<feColorMatrix type="matrix" values="0 0 0 0 0 0 0 0 0 0 0 0 0 0 0 0 0 0 0.15 0"/>
<feBlend mode="normal" in2="BackgroundImageFix" result="effect1_dropShadow"/>
<feBlend mode="normal" in="SourceGraphic" in2="effect1_dropShadow" result="shape"/>
</filter>
<clipPath id="clip0">
<rect width="87.6177" height="116" fill="white" transform="translate(25 20)"/>
</clipPath>
</defs>
</svg>
