<svg width="146" height="143" viewBox="0 0 146 143" fill="none" xmlns="http://www.w3.org/2000/svg">
<path d="M86.8963 22V32.6899H76.9399V22H37.118V32.6899H27.1654V22H17.209V121.763H27.1654V111.073H37.118V121.763H96.8452V22H86.8963ZM37.118 103.949H27.1654V93.259H37.118V103.949ZM37.118 86.119H27.1654V75.4453H37.118V86.119ZM37.118 68.289H27.1654V57.6275H37.118V68.289ZM37.118 50.459H27.1654V39.83H37.118V50.459Z" fill="#AB2C94"/>
<path d="M127.225 116.101L107.037 56.4842V32.8027H110.354V25.6748H73.8235V32.8027H77.1411V56.4842L56.9414 116.101L63.8747 128.999H120.288L127.225 116.101ZM119.929 115.416L116.472 121.876H67.7093L64.237 115.416L71.71 93.3719H112.472L119.929 115.416ZM100.379 32.8027V36.3647H93.7439V43.4764H100.379V47.0424H93.7439V54.1784H100.379V57.7404L110.056 86.244H74.1255L83.7875 57.7404V32.8027H100.379Z" fill="#AB2C94"/>
<path d="M119.929 115.417L116.457 121.877H67.7086L64.2363 115.417L71.7093 93.373H112.456L119.929 115.417Z" fill="#F7BD06"/>
<path d="M100.379 32.8037V36.3657H93.7434V43.4895H100.379V47.0555H93.7434V54.1794H100.379V57.7413L110.041 86.2449H74.125L83.787 57.7413V32.8037H100.379Z" fill="white"/>
</svg>
