<svg width="132" height="166" viewBox="0 0 132 166" fill="none" xmlns="http://www.w3.org/2000/svg">
<g clip-path="url(#clip0)" filter="url(#filter0_d)">
<path d="M106.806 20H38.6343L25 34.5V136H93.1716L106.806 121.5V20ZM31.8172 37.5047L38.6343 30.2547V116.373L31.8172 123.623V37.5047ZM90.3463 128.75H36.6384L43.4556 121.5H97.1635L90.3463 128.75ZM99.9888 114.25H45.4515V27.25H99.9888V114.25Z" fill="#AB2C94"/>
<path d="M99.9885 27.25H45.4512V114.25H99.9885V27.25Z" fill="#F7BD06"/>
<path d="M31.8164 37.5049L38.6336 30.2549V116.373L31.8164 123.623V37.5049Z" fill="#F7BD06"/>
<path d="M90.3466 128.75H36.6387L43.4558 121.5H97.1637L90.3466 128.75Z" fill="#F7BD06"/>
<path d="M95.7164 27.25L45.4512 80.7067V89.7893L99.9885 31.8256V27.25H95.7164ZM72.3411 27.25L45.4512 55.8472V64.9661L80.9307 27.25H72.3411ZM45.4512 27.25V40.1389L57.5706 27.25H45.4512ZM45.9284 114.25L99.9885 56.6528V47.5178L45.4512 105.554V114.25H45.9284ZM69.2166 114.25L99.9885 81.4558V72.3369L60.6004 114.25H69.2166ZM92.4972 114.25L99.9885 106.267V97.1481L83.9151 114.25H92.4972Z" fill="#AB2C94"/>
</g>
<defs>
<filter id="filter0_d" x="0" y="0" width="131.806" height="166" filterUnits="userSpaceOnUse" color-interpolation-filters="sRGB">
<feFlood flood-opacity="0" result="BackgroundImageFix"/>
<feColorMatrix in="SourceAlpha" type="matrix" values="0 0 0 0 0 0 0 0 0 0 0 0 0 0 0 0 0 0 127 0"/>
<feOffset dy="5"/>
<feGaussianBlur stdDeviation="12.5"/>
<feColorMatrix type="matrix" values="0 0 0 0 0 0 0 0 0 0 0 0 0 0 0 0 0 0 0.15 0"/>
<feBlend mode="normal" in2="BackgroundImageFix" result="effect1_dropShadow"/>
<feBlend mode="normal" in="SourceGraphic" in2="effect1_dropShadow" result="shape"/>
</filter>
<clipPath id="clip0">
<rect width="81.806" height="116" fill="white" transform="translate(25 20)"/>
</clipPath>
</defs>
</svg>
