<svg width="146" height="143" viewBox="0 0 146 143" fill="none" xmlns="http://www.w3.org/2000/svg">
<g clip-path="url(#clip0)">
<path d="M90.835 66.6006H52.5273V90.3006H90.835V66.6006Z" fill="white"/>
<path d="M6.55859 35V114H136.805V35H6.55859ZM32.8164 90.3H21.456C19.231 86.7736 18.0466 82.657 18.0466 78.45C18.0466 74.243 19.231 70.1264 21.456 66.6H32.8164C31.1859 68.0827 29.8801 69.9062 28.9856 71.9493C28.0912 73.9924 27.6286 76.2084 27.6286 78.45C27.6286 80.6916 28.0912 82.9076 28.9856 84.9507C29.8801 86.9938 31.1859 88.8173 32.8164 90.3ZM41.0355 82.4C40.0195 82.4 39.0451 81.9838 38.3267 81.2431C37.6083 80.5023 37.2047 79.4976 37.2047 78.45C37.2047 77.4024 37.6083 76.3977 38.3267 75.6569C39.0451 74.9162 40.0195 74.5 41.0355 74.5V82.4ZM90.8355 90.3H52.5278V66.6H90.8355V90.3ZM102.328 82.4V74.5C103.344 74.5 104.318 74.9162 105.037 75.6569C105.755 76.3977 106.159 77.4024 106.159 78.45C106.159 79.4976 105.755 80.5023 105.037 81.2431C104.318 81.9838 103.344 82.4 102.328 82.4ZM121.907 90.3H110.547C112.177 88.8173 113.483 86.9938 114.378 84.9507C115.272 82.9076 115.735 80.6916 115.735 78.45C115.735 76.2084 115.272 73.9924 114.378 71.9493C113.483 69.9062 112.177 68.0827 110.547 66.6H121.907C124.132 70.1264 125.317 74.243 125.317 78.45C125.317 82.657 124.132 86.7736 121.907 90.3ZM125.312 58.7H18.0509V46.85H125.312V58.7Z" fill="#AB2C94"/>
<path d="M32.8167 90.3006H21.4563C19.2313 86.7742 18.0469 82.6576 18.0469 78.4506C18.0469 74.2435 19.2313 70.127 21.4563 66.6006H32.8167C31.1862 68.0833 29.8803 69.9068 28.9859 71.9499C28.0914 73.993 27.6288 76.209 27.6288 78.4506C27.6288 80.6922 28.0914 82.9082 28.9859 84.9513C29.8803 86.9944 31.1862 88.8179 32.8167 90.3006Z" fill="#F7BD06"/>
<path d="M41.0358 82.4C40.0199 82.4 39.0455 81.9838 38.3271 81.2431C37.6087 80.5023 37.2051 79.4976 37.2051 78.45C37.2051 77.4024 37.6087 76.3977 38.3271 75.6569C39.0455 74.9162 40.0199 74.5 41.0358 74.5V82.4Z" fill="#F7BD06"/>
<path d="M90.835 90.3006H90.2774H53.0849H52.5273V66.6006H90.2774H90.835V90.3006Z" fill="#F7BD06"/>
<path d="M102.328 82.4V74.5C103.344 74.5 104.318 74.9162 105.037 75.6569C105.755 76.3977 106.159 77.4024 106.159 78.45C106.159 79.4976 105.755 80.5023 105.037 81.2431C104.318 81.9838 103.344 82.4 102.328 82.4Z" fill="#F7BD06"/>
<path d="M121.907 90.3006H110.547C112.177 88.8179 113.483 86.9944 114.378 84.9513C115.272 82.9082 115.735 80.6922 115.735 78.4506C115.735 76.209 115.272 73.993 114.378 71.9499C113.483 69.9068 112.177 68.0833 110.547 66.6006H121.907C124.132 70.127 125.317 74.2435 125.317 78.4506C125.317 82.6576 124.132 86.7742 121.907 90.3006Z" fill="#F7BD06"/>
<path d="M125.312 46.8506H18.0508V58.7006H125.312V46.8506Z" fill="#F7BD06"/>
</g>
<defs>
<clipPath id="clip0">
<rect width="146" height="143" fill="white"/>
</clipPath>
</defs>
</svg>
