<svg width="24" height="28" viewBox="0 0 24 28" fill="none" xmlns="http://www.w3.org/2000/svg">
<g clip-path="url(#clip0)" filter="url(#filter0_d)">
<path d="M5.98164 5.00015C5.66365 5.00511 5.36064 5.13609 5.13916 5.36432C4.91767 5.59254 4.79583 5.89934 4.80039 6.21733V7.41733H3.60039C2.93799 7.41733 2.40039 7.95493 2.40039 8.61733C2.40039 9.27973 2.93799 9.81733 3.60039 9.81733H4.80039V19.8173C4.80039 20.9082 5.70952 21.8173 6.80039 21.8173H16.8004V23.0173C16.8004 23.6797 17.338 24.2173 18.0004 24.2173C18.6628 24.2173 19.2004 23.6797 19.2004 23.0173V21.8173H20.4004C20.5594 21.8196 20.7173 21.7902 20.8648 21.7309C21.0124 21.6716 21.1467 21.5836 21.26 21.4719C21.3732 21.3603 21.4631 21.2272 21.5245 21.0805C21.5859 20.9338 21.6175 20.7764 21.6175 20.6173C21.6175 20.4583 21.5859 20.3009 21.5245 20.1542C21.4631 20.0074 21.3732 19.8744 21.26 19.7627C21.1467 19.6511 21.0124 19.5631 20.8648 19.5038C20.7173 19.4445 20.5594 19.4151 20.4004 19.4173H8.33164L16.8004 10.9486V17.8173H19.2004V8.54858L21.366 6.38296C21.4816 6.27059 21.5606 6.12592 21.5925 5.9679C21.6245 5.80988 21.608 5.6459 21.5452 5.49743C21.4823 5.34896 21.3761 5.22294 21.2404 5.13587C21.1047 5.04881 20.9459 5.00477 20.7848 5.00952C20.5769 5.01571 20.3797 5.10258 20.2348 5.25171L18.0691 7.41733H8.80039V9.81733H15.6691L7.20039 18.2861V6.21733C7.2027 6.05672 7.17273 5.89728 7.11228 5.74846C7.05183 5.59964 6.96212 5.46447 6.84846 5.35096C6.73481 5.23745 6.59952 5.14792 6.45063 5.08765C6.30173 5.02739 6.14225 4.99764 5.98164 5.00015Z" fill="black"/>
</g>
<defs>
<filter id="filter0_d" x="-2" y="0" width="28" height="28" filterUnits="userSpaceOnUse" color-interpolation-filters="sRGB">
<feFlood flood-opacity="0" result="BackgroundImageFix"/>
<feColorMatrix in="SourceAlpha" type="matrix" values="0 0 0 0 0 0 0 0 0 0 0 0 0 0 0 0 0 0 127 0"/>
<feOffset dy="2"/>
<feGaussianBlur stdDeviation="1"/>
<feColorMatrix type="matrix" values="0 0 0 0 0 0 0 0 0 0 0 0 0 0 0 0 0 0 0.15 0"/>
<feBlend mode="normal" in2="BackgroundImageFix" result="effect1_dropShadow"/>
<feBlend mode="normal" in="SourceGraphic" in2="effect1_dropShadow" result="shape"/>
</filter>
<clipPath id="clip0">
<rect width="24" height="24" fill="white"/>
</clipPath>
</defs>
</svg>
