<svg width="30" height="30" viewBox="0 0 30 30" fill="none" xmlns="http://www.w3.org/2000/svg">
<path d="M25.0001 29H5.0001C4.55198 29 4.13948 28.7606 3.91635 28.3725C3.69385 27.9844 3.6951 27.5069 3.92073 27.12L13.9207 9.62C14.1445 9.23625 14.5557 9 15.0001 9C15.4445 9 15.8557 9.23625 16.0801 9.62L26.0801 27.12C26.3057 27.5069 26.307 27.9844 26.0845 28.3725C25.862 28.7606 25.4476 29 25.0001 29Z" fill="#FFC107"/>
<path d="M13.75 23.0887C13.75 22.9206 13.7794 22.7669 13.8394 22.6225C13.8981 22.48 13.9825 22.3563 14.0912 22.2525C14.1981 22.1475 14.33 22.0656 14.4813 22.0069C14.6338 21.9494 14.805 21.9188 14.9962 21.9188C15.1875 21.9188 15.36 21.9494 15.5138 22.0069C15.67 22.0656 15.8019 22.1475 15.9088 22.2525C16.0181 22.3563 16.1025 22.48 16.1606 22.6225C16.2206 22.7669 16.25 22.9206 16.25 23.0887C16.25 23.2575 16.2206 23.4113 16.1606 23.5513C16.1019 23.6919 16.0175 23.8131 15.9088 23.9188C15.8019 24.0225 15.67 24.1037 15.5138 24.1637C15.36 24.2212 15.1875 24.25 14.9962 24.25C14.8044 24.25 14.6338 24.2212 14.4813 24.1631C14.33 24.1031 14.1981 24.0219 14.0912 23.9181C13.9819 23.8125 13.8975 23.6912 13.8394 23.5506C13.7794 23.4106 13.75 23.2569 13.75 23.0887ZM15.925 20.5H14.0669L13.8038 13H16.1875L15.925 20.5Z" fill="#5D4037"/>
<rect x="0.5" y="0.5" width="29" height="29" stroke="white"/>
</svg>
