<svg width="24" height="24" viewBox="0 0 24 24" fill="none" xmlns="http://www.w3.org/2000/svg">
<path d="M16 17H3C1.9 17 1 16.1 1 15V5C1 3.9 1.9 3 3 3H16C17.1 3 18 3.9 18 5V15C18 16.1 17.1 17 16 17ZM3 5V15H16V5H3Z" fill="black"/>
<path d="M20 21H5V19H20V7H22V19C22 20.1 21.1 21 20 21Z" fill="black"/>
<path d="M2.6998 14.6996L1.2998 13.2996L7.4998 7.09961L11.0998 10.9996L9.5998 12.3996L7.39981 9.99961L2.6998 14.6996Z" fill="black"/>
<path d="M10.4 13.9996L9 12.5996L13.5 8.09961L17.7 12.1996L16.2 13.6996L13.5 10.8996L10.4 13.9996Z" fill="black"/>
<path opacity="0.3" d="M16.9 12.9L13.5 9.5L10.9 12.1L7.4 8.5L2 14V16H17L16.9 12.9Z" fill="black"/>
<path d="M11 8C11.5523 8 12 7.55228 12 7C12 6.44772 11.5523 6 11 6C10.4477 6 10 6.44772 10 7C10 7.55228 10.4477 8 11 8Z" fill="black"/>
<rect x="0.5" y="0.5" width="23" height="23" stroke="white"/>
</svg>
