<svg width="14" height="17" viewBox="0 0 14 17" fill="none" xmlns="http://www.w3.org/2000/svg">
<path d="M7.00039 0.200195C3.35539 0.200195 0.400391 3.15519 0.400391 6.80019C0.400391 11.1406 4.69209 13.2189 5.22969 13.7025C5.77869 14.1963 6.23145 15.3027 6.41445 15.9303C6.50325 16.2351 6.75319 16.3889 7.00039 16.3955C7.24819 16.3883 7.49753 16.2345 7.58633 15.9303C7.76933 15.3027 8.22209 14.1969 8.77109 13.7025C9.30869 13.2189 13.6004 11.1406 13.6004 6.80019C13.6004 3.15519 10.6454 0.200195 7.00039 0.200195ZM5.78984 3.80019H8.21094C8.44794 3.80019 8.66278 3.93984 8.75938 4.15644L8.86719 4.40019H9.8457C10.2627 4.40019 10.6004 4.73788 10.6004 5.15488V8.44551C10.6004 8.86251 10.2627 9.20019 9.8457 9.20019H4.15508C3.73868 9.20019 3.40039 8.86251 3.40039 8.44551V5.15488C3.40039 4.73848 3.73808 4.40019 4.15508 4.40019H5.13359L5.24141 4.15644C5.33801 3.93984 5.55284 3.80019 5.78984 3.80019ZM7.00039 5.60019C6.68213 5.60019 6.37691 5.72662 6.15186 5.95167C5.92682 6.17671 5.80039 6.48193 5.80039 6.80019C5.80039 7.11845 5.92682 7.42368 6.15186 7.64872C6.37691 7.87377 6.68213 8.00019 7.00039 8.00019C7.31865 8.00019 7.62388 7.87377 7.84892 7.64872C8.07396 7.42368 8.20039 7.11845 8.20039 6.80019C8.20039 6.48193 8.07396 6.17671 7.84892 5.95167C7.62388 5.72662 7.31865 5.60019 7.00039 5.60019ZM9.10039 5.60019C9.02083 5.60019 8.94452 5.6318 8.88826 5.68806C8.832 5.74432 8.80039 5.82063 8.80039 5.90019C8.80039 5.97976 8.832 6.05607 8.88826 6.11233C8.94452 6.16859 9.02083 6.20019 9.10039 6.20019C9.17996 6.20019 9.25626 6.16859 9.31252 6.11233C9.36878 6.05607 9.40039 5.97976 9.40039 5.90019C9.40039 5.82063 9.36878 5.74432 9.31252 5.68806C9.25626 5.6318 9.17996 5.60019 9.10039 5.60019Z" fill="#AB2C95"/>
</svg>
