<svg width="36" height="36" viewBox="0 0 36 36" fill="none" xmlns="http://www.w3.org/2000/svg">
<g clip-path="url(#clip0)">
<path d="M15.2311 -0.043335C14.0736 -0.043335 12.9378 0.183829 12.1157 0.995126C11.2936 1.80643 11.034 2.95847 11.034 4.15378H5.53876C4.77614 4.15378 4.15415 4.77578 4.15415 5.5384H2.76953V8.30763H33.2311V5.5384H31.8465C31.8465 4.77578 31.2245 4.15378 30.4618 4.15378H24.9666C24.9666 2.95847 24.707 1.80643 23.8849 0.995126C23.0628 0.183829 21.927 -0.043335 20.7695 -0.043335H15.2311ZM15.2311 2.81243H20.7695C21.5267 2.81243 21.7647 2.99092 21.8513 3.07205C21.9378 3.15318 22.1109 3.38034 22.1109 4.15378H13.8897C13.8897 3.38034 14.0628 3.15318 14.1493 3.07205C14.2359 2.99092 14.4739 2.81243 15.2311 2.81243ZM5.53876 9.69224V31.8461C5.53876 34.1339 7.40475 35.9999 9.69261 35.9999H26.308C28.5959 35.9999 30.4618 34.1339 30.4618 31.8461V9.69224H5.53876ZM11.0772 13.8461H13.8465V30.4615H11.0772V13.8461ZM16.6157 13.8461H19.3849V30.4615H16.6157V13.8461ZM22.1541 13.8461H24.9234V30.4615H22.1541V13.8461Z" fill="#5D5D5A"/>
</g>
<defs>
<clipPath id="clip0">
<rect width="36" height="36" fill="white"/>
</clipPath>
</defs>
</svg>
