<svg width="42" height="42" viewBox="0 0 42 42" fill="none" xmlns="http://www.w3.org/2000/svg">
<path d="M24.499 3.49951C11.549 3.49951 6.99902 12.5995 6.99902 20.9995C6.99902 24.1495 4.54766 24.4995 3.84766 24.4995H0.525391L2.44971 27.2988C2.60884 27.458 5.27826 31.0747 12.3311 33.311C12.2784 33.579 12.2509 33.8514 12.249 34.1245C12.249 35.2848 12.71 36.3976 13.5304 37.2181C14.3509 38.0386 15.4637 38.4995 16.624 38.4995C17.6589 38.4982 18.6599 38.13 19.449 37.4604C20.2381 36.7908 20.7643 35.8632 20.9341 34.8423C22.0666 34.9303 23.2408 34.9995 24.499 34.9995C24.5997 34.9995 25.3151 34.978 26.3071 34.8115C26.4705 35.8392 26.9949 36.775 27.7861 37.4509C28.5772 38.1268 29.5834 38.4986 30.624 38.4995C31.7843 38.4995 32.8971 38.0386 33.7176 37.2181C34.5381 36.3976 34.999 35.2848 34.999 34.1245C34.998 33.2562 34.7386 32.4079 34.2539 31.6875C37.3684 29.536 40.249 25.7901 40.249 19.2495C40.249 7.17451 29.924 3.67451 24.499 3.49951ZM24.499 6.99951C25.024 6.99951 36.749 7.52451 36.749 19.2495C36.749 24.1871 34.7437 27.7847 30.6069 29.7495C29.5644 29.7556 28.5584 30.1338 27.77 30.8159C25.8715 31.495 24.3247 31.4995 24.3247 31.4995C22.8482 31.4995 21.3716 31.3701 19.895 31.2261C19.4852 30.7627 18.9817 30.3915 18.4179 30.137C17.8541 29.8824 17.2426 29.7504 16.624 29.7495C15.8649 29.7511 15.1193 29.9502 14.4604 30.3272C11.1462 29.3185 8.78363 28.0818 7.34766 27.1245C9.09766 26.0745 10.499 24.1495 10.499 20.9995C10.499 16.7995 11.899 6.99951 24.499 6.99951ZM19.249 15.7495C18.7849 15.7495 18.3398 15.9339 18.0116 16.2621C17.6834 16.5903 17.499 17.0354 17.499 17.4995C17.499 17.9636 17.6834 18.4088 18.0116 18.7369C18.3398 19.0651 18.7849 19.2495 19.249 19.2495C19.7132 19.2495 20.1583 19.0651 20.4865 18.7369C20.8146 18.4088 20.999 17.9636 20.999 17.4995C20.999 17.0354 20.8146 16.5903 20.4865 16.2621C20.1583 15.9339 19.7132 15.7495 19.249 15.7495ZM27.999 15.7495C27.5349 15.7495 27.0898 15.9339 26.7616 16.2621C26.4334 16.5903 26.249 17.0354 26.249 17.4995C26.249 17.9636 26.4334 18.4088 26.7616 18.7369C27.0898 19.0651 27.5349 19.2495 27.999 19.2495C28.4632 19.2495 28.9083 19.0651 29.2365 18.7369C29.5646 18.4088 29.749 17.9636 29.749 17.4995C29.749 17.0354 29.5646 16.5903 29.2365 16.2621C28.9083 15.9339 28.4632 15.7495 27.999 15.7495ZM20.999 20.8252L17.499 20.9995C17.674 23.0995 19.249 26.2495 23.624 26.2495C27.999 26.2495 29.749 23.0988 29.749 21.1738L26.249 20.9995C26.249 21.1745 26.074 22.7495 23.624 22.7495C21.349 22.7495 20.999 21.3502 20.999 20.8252Z" fill="white"/>
</svg>
