<svg width="15" height="15" viewBox="0 0 15 15" fill="none" xmlns="http://www.w3.org/2000/svg">
<path d="M11.7088 14.1C11.7042 14.1 11.6995 14.1 11.6948 14.1C9.4401 14.0261 6.79869 11.8406 4.97877 10.0195C3.15651 8.1984 0.970959 5.55582 0.900646 3.31168C0.874865 2.52418 2.80729 1.12379 2.82721 1.10973C3.32877 0.760508 3.88541 0.884727 4.11393 1.20113C4.26862 1.41559 5.73346 3.63512 5.89283 3.88707C6.05807 4.1484 6.03346 4.53746 5.82721 4.9277C5.71354 5.14449 5.33619 5.80777 5.15924 6.11715C5.35026 6.38902 5.85533 7.05582 6.8983 8.09879C7.94244 9.14176 8.60807 9.64801 8.88111 9.83902C9.19049 9.66207 9.85377 9.28473 10.0706 9.17105C10.4549 8.96715 10.8417 8.94137 11.1053 9.10309C11.3749 9.26832 13.5885 10.7402 13.7924 10.882C13.9635 11.0027 14.0737 11.2089 14.096 11.4492C14.1171 11.6918 14.0421 11.9484 13.8862 12.1722C13.8733 12.191 12.4893 14.1 11.7088 14.1Z" fill="#AB2C95"/>
</svg>
