<svg width="55" height="55" viewBox="0 0 55 55" fill="none" xmlns="http://www.w3.org/2000/svg">
<path d="M24.7892 0.92609C11.9739 1.28992 1.28992 11.9739 0.92609 24.7892C0.532756 38.669 11.7086 50.0831 25.4998 50.0831V47.0967C25.4998 44.8006 27.0893 42.7888 29.3362 42.3192C29.7025 42.243 30.0648 42.1535 30.4213 42.0552C36.1492 40.4744 40.4745 36.1444 42.0552 30.4165C42.1535 30.06 42.243 29.6977 42.3192 29.3314C42.7863 27.0869 44.803 25.4998 47.0967 25.4998H50.0832C50.0832 11.7086 38.669 0.532756 24.7892 0.92609ZM25.4998 10.7498C26.8568 10.7498 27.9582 11.8512 27.9582 13.2082V25.4998C27.9582 26.1513 27.7001 26.7758 27.2379 27.2379L19.1427 35.3332C18.184 36.2919 16.6252 36.2919 15.6665 35.3332C14.7077 34.3744 14.7077 32.8157 15.6665 31.8569L23.0415 24.4819V13.2082C23.0415 11.8512 24.1428 10.7498 25.4998 10.7498ZM48.8396 30.4165C48.0972 30.4165 47.4884 31.0064 47.4712 31.7513C47.4515 32.6117 47.3996 33.6943 47.2791 34.3777C47.1488 35.1176 46.8924 36.0075 46.6982 36.6343C46.5457 37.126 46.6848 37.6629 47.0487 38.0268L48.6811 39.7985C48.6787 39.7985 47.6248 42.7081 45.1665 45.1665C42.7082 47.6248 39.6785 48.8012 39.6785 48.8012L38.0268 47.0438C37.6629 46.68 37.126 46.5457 36.6343 46.6981C36.0099 46.8923 35.1176 47.1488 34.3777 47.2791C33.6943 47.3996 32.6117 47.449 31.7513 47.4712C31.0089 47.4908 30.4165 48.0972 30.4165 48.8396V53.6314C30.4165 54.2312 30.8655 54.9998 31.7849 54.9998C37.9848 54.9998 43.9034 52.4855 48.2202 48.2154C52.4879 43.901 54.9998 37.9824 54.9998 31.7849C54.9998 30.8655 54.2313 30.4165 53.6314 30.4165H48.8396Z" fill="#F8BD07"/>
</svg>
