<svg width="27" height="28" viewBox="0 0 27 28" fill="none" xmlns="http://www.w3.org/2000/svg">
<path d="M4.88477 0.661133L0.337891 0.68457L0.350911 3.35124L3.11133 3.33822L7.50456 13.8773L5.9082 16.432C5.37487 17.2853 5.34729 18.3632 5.83529 19.2419C6.32329 20.1205 7.24923 20.6663 8.25456 20.6663H24.3327V17.9997H8.25456L8.16862 17.8434L9.73633 15.333H19.6947C20.664 15.333 21.5561 14.8059 22.0254 13.9606L26.8301 5.31478C27.0607 4.90145 27.0545 4.39726 26.8145 3.98926C26.5745 3.58259 26.1354 3.33301 25.6634 3.33301H5.99935L4.88477 0.661133ZM7.10872 5.99968H23.3978L19.6947 12.6663H9.88737L7.10872 5.99968ZM8.33268 21.9997C7.62544 21.9997 6.94716 22.2806 6.44706 22.7807C5.94697 23.2808 5.66602 23.9591 5.66602 24.6663C5.66602 25.3736 5.94697 26.0519 6.44706 26.552C6.94716 27.0521 7.62544 27.333 8.33268 27.333C9.03993 27.333 9.7182 27.0521 10.2183 26.552C10.7184 26.0519 10.9994 25.3736 10.9994 24.6663C10.9994 23.9591 10.7184 23.2808 10.2183 22.7807C9.7182 22.2806 9.03993 21.9997 8.33268 21.9997ZM21.666 21.9997C20.9588 21.9997 20.2805 22.2806 19.7804 22.7807C19.2803 23.2808 18.9994 23.9591 18.9994 24.6663C18.9994 25.3736 19.2803 26.0519 19.7804 26.552C20.2805 27.0521 20.9588 27.333 21.666 27.333C22.3733 27.333 23.0515 27.0521 23.5516 26.552C24.0517 26.0519 24.3327 25.3736 24.3327 24.6663C24.3327 23.9591 24.0517 23.2808 23.5516 22.7807C23.0515 22.2806 22.3733 21.9997 21.666 21.9997Z" fill="#AB2C95"/>
</svg>
