<svg width="32" height="32" viewBox="0 0 32 32" fill="none" xmlns="http://www.w3.org/2000/svg">
<path d="M23.2188 0.25C20.8091 0.25 18.6199 1.25488 17.0664 2.875H4.1875C2.02905 2.875 0.25 4.65405 0.25 6.8125V27.8125C0.25 29.9709 2.02905 31.75 4.1875 31.75H25.1875C27.3459 31.75 29.125 29.9709 29.125 27.8125V15.4258C30.4785 13.4775 31.75 11.478 31.75 8.78125C31.75 4.08496 27.915 0.25 23.2188 0.25ZM23.2188 2.875C26.4949 2.875 29.125 5.50513 29.125 8.78125C29.125 10.8013 28.115 12.3342 26.6641 14.4004C25.5054 16.0513 24.2288 18.179 23.2188 20.7988C22.2087 18.179 20.9321 16.0513 19.7734 14.4004C18.3225 12.3342 17.3125 10.8013 17.3125 8.78125C17.3125 5.50513 19.9426 2.875 23.2188 2.875ZM4.1875 5.5H15.3438C14.9182 6.51001 14.6875 7.62256 14.6875 8.78125C14.6875 10.7705 15.3848 12.3701 16.2871 13.8672L2.875 27.2383V6.8125C2.875 6.06909 3.44409 5.5 4.1875 5.5ZM8.125 6.8125C5.95117 6.8125 4.1875 8.57617 4.1875 10.75C4.1875 12.9238 5.95117 14.6875 8.125 14.6875C10.2988 14.6875 12.0625 12.9238 12.0625 10.75H8.125V12.0625H10.3809C9.92456 12.8418 9.09399 13.375 8.125 13.375C6.6792 13.375 5.5 12.1958 5.5 10.75C5.5 9.3042 6.6792 8.125 8.125 8.125C8.8479 8.125 9.4939 8.42749 9.9707 8.9043L10.9141 7.96094C10.2014 7.24829 9.21191 6.8125 8.125 6.8125ZM23.2188 6.8125C22.1318 6.8125 21.25 7.69434 21.25 8.78125C21.25 9.86816 22.1318 10.75 23.2188 10.75C24.3057 10.75 25.1875 9.86816 25.1875 8.78125C25.1875 7.69434 24.3057 6.8125 23.2188 6.8125ZM17.7637 16.082C19.1838 18.1072 20.6399 20.24 21.4551 23.3828C21.4705 23.4392 21.5166 23.6187 21.5371 23.7109L15.8359 18.0098L17.7637 16.082ZM26.5 19.5273V27.8125C26.5 28.3457 26.2078 28.7969 25.7617 29.002L26.2949 28.4688L22.9727 25.1465C23.0598 25.1567 23.147 25.1875 23.2188 25.1875C23.511 25.1875 23.9263 25.1003 24.2441 24.8594C24.562 24.6184 24.7004 24.3313 24.7773 24.1211C24.9363 23.7007 24.9465 23.511 24.9824 23.3828C25.3669 21.896 25.895 20.6553 26.5 19.5273ZM13.9902 19.8965L23.2188 29.125H4.76172L13.9902 19.8965Z" fill="white"/>
</svg>
