<svg width="75" height="31" viewBox="0 0 75 31" fill="none" xmlns="http://www.w3.org/2000/svg">
<path d="M37.5524 30.1394C38.4148 30.1299 39.2383 29.8725 39.8479 29.4246L73.0479 5.02455C73.9168 4.41455 74.2669 3.50431 73.9622 2.6465C73.6574 1.79345 72.7496 1.12627 71.5889 0.902283C70.4217 0.678297 69.1832 0.935643 68.3532 1.57424L37.5005 24.2491L6.64786 1.57424C5.81787 0.935648 4.57935 0.678303 3.41216 0.902289C2.25145 1.12627 1.34365 1.79346 1.03888 2.64651C0.734113 3.50432 1.08427 4.41456 1.95318 5.02455L35.1532 29.4246C35.7886 29.8916 36.6511 30.1489 37.5524 30.1394Z" fill="#232526"/>
</svg>
