<svg width="31" height="31" viewBox="0 0 31 31" fill="none" xmlns="http://www.w3.org/2000/svg">
<mask id="path-1-outside-1" maskUnits="userSpaceOnUse" x="0.613281" y="0.386719" width="30" height="30" fill="black">
<rect fill="white" x="0.613281" y="0.386719" width="30" height="30"/>
<path d="M1.38747 15.4996C1.38747 7.71802 7.71878 1.38672 15.5004 1.38672C23.282 1.38672 29.6133 7.71802 29.6133 15.4996C29.6133 19.6098 27.8458 23.3146 25.0325 25.896L25.0458 25.9078L24.5881 26.2937C24.5583 26.3188 24.526 26.3394 24.4962 26.364C24.2529 26.5657 24.001 26.7571 23.7444 26.9424C23.6612 27.0024 23.5781 27.0625 23.4934 27.121C23.2194 27.3098 22.9381 27.4889 22.6507 27.6588C22.5881 27.6957 22.525 27.7317 22.4619 27.7676C22.1473 27.9467 21.826 28.1155 21.4971 28.2705C21.473 28.2818 21.4483 28.2921 21.4242 28.3034C20.3521 28.8017 19.2077 29.1676 18.0109 29.3836C17.9796 29.3893 17.9483 29.3949 17.9165 29.4006C17.545 29.4647 17.1693 29.516 16.789 29.5504C16.7428 29.5545 16.6966 29.5571 16.6499 29.5612C16.2712 29.5925 15.8884 29.6125 15.5004 29.6125C15.116 29.6125 14.7367 29.5925 14.3601 29.5622C14.3123 29.5581 14.2646 29.5556 14.2169 29.5515C13.8397 29.5171 13.4671 29.4673 13.0991 29.4042C13.0673 29.3985 13.035 29.3929 13.0032 29.3867C11.8244 29.1753 10.6963 28.8176 9.63814 28.3321C9.59913 28.3141 9.55961 28.2972 9.52061 28.2787C9.20397 28.1299 8.89451 27.9693 8.59121 27.7984C8.51577 27.7558 8.44085 27.7127 8.36592 27.6685C8.08982 27.5059 7.81834 27.336 7.55456 27.1553C7.45962 27.0907 7.36673 27.0224 7.27281 26.9547C7.04752 26.7925 6.82633 26.6252 6.6113 26.4502C6.56358 26.4117 6.51226 26.3784 6.46556 26.3388L5.99598 25.9468L6.00984 25.935C3.17186 23.3526 1.38747 19.6309 1.38747 15.4996ZM28.5869 15.4996C28.5869 8.28357 22.7164 2.41311 15.5004 2.41311C8.28432 2.41311 2.41387 8.28357 2.41387 15.4996C2.41387 19.3881 4.12025 22.884 6.82171 25.2827C6.97259 25.1785 7.1245 25.0851 7.28 25.0071L11.6252 22.8347C12.0153 22.6397 12.2575 22.2476 12.2575 21.8119V20.2944C12.1569 20.1702 12.0507 20.0296 11.9408 19.8751C11.3784 19.0807 10.9273 18.197 10.5983 17.246C9.94811 16.9371 9.52831 16.2894 9.52831 15.5581V13.7388C9.52831 13.2939 9.69151 12.8623 9.98351 12.5231V10.128C9.95683 9.86165 9.8624 8.35849 10.9499 7.11861C11.8957 6.03884 13.4266 5.49229 15.5004 5.49229C17.5742 5.49229 19.1051 6.03885 20.0509 7.1181C21.1384 8.35798 21.0439 9.86113 21.0172 10.1275V12.5226C21.3087 12.8618 21.4724 13.2934 21.4724 13.7383V15.5576C21.4724 16.1226 21.2189 16.6497 20.7848 17.0053C20.3691 18.6337 19.5136 19.8664 19.1974 20.2842V21.7693C19.1974 22.1881 19.4258 22.573 19.7938 22.7742L23.8516 24.9876C23.9809 25.0579 24.1092 25.14 24.2375 25.2319C26.9057 22.8342 28.5869 19.3599 28.5869 15.4996ZM7.82347 26.0879C8.00309 26.2182 8.18579 26.3445 8.37105 26.4651C8.45624 26.5205 8.54092 26.5759 8.62765 26.6298C8.86988 26.7797 9.11621 26.9223 9.36768 27.0558C9.42311 27.085 9.47904 27.1127 9.53498 27.1415C10.1128 27.4376 10.7107 27.6921 11.325 27.899C11.3466 27.9061 11.3681 27.9138 11.3902 27.921C11.712 28.0278 12.0378 28.1227 12.3673 28.2043L12.3704 28.2048C12.7029 28.2869 13.0396 28.3552 13.3783 28.4111C13.3875 28.4127 13.3968 28.4147 13.406 28.4163C13.7247 28.4681 14.046 28.5056 14.3683 28.5338C14.4252 28.5389 14.4822 28.5425 14.5397 28.5466C14.8584 28.5707 15.1786 28.5861 15.5004 28.5861C15.8257 28.5861 16.1501 28.5702 16.4729 28.5461C16.5288 28.542 16.5848 28.5384 16.6402 28.5333C16.9656 28.5045 17.2894 28.466 17.6101 28.4137C17.6245 28.4111 17.6389 28.4086 17.6532 28.406C18.3317 28.2926 18.9994 28.1258 19.6496 27.9077C19.6696 27.901 19.6901 27.8938 19.7101 27.8872C20.0329 27.7773 20.3521 27.6557 20.6657 27.5212C20.6678 27.5202 20.6703 27.5192 20.6724 27.5182C20.969 27.3904 21.26 27.2487 21.5474 27.0994C21.5848 27.0799 21.6228 27.0614 21.6598 27.0414C21.922 26.9013 22.1786 26.7499 22.4316 26.5919C22.5065 26.5446 22.5809 26.4969 22.6549 26.4487C22.8878 26.2962 23.1178 26.1377 23.3415 25.9699C23.3646 25.9524 23.3867 25.9339 23.4098 25.9165C23.3933 25.9072 23.3769 25.898 23.3605 25.8888L19.3027 23.6754C18.6047 23.2946 18.1711 22.5643 18.1711 21.7693L18.1716 19.9208L18.2896 19.7781C18.3009 19.7653 19.4104 18.4156 19.8297 16.5881L19.8764 16.3849L20.0514 16.2715C20.2983 16.1119 20.4461 15.845 20.4461 15.5571V13.7378C20.4461 13.4992 20.345 13.277 20.1602 13.1102L19.9908 12.9572V10.0987L19.9955 10.0315C19.997 10.0192 20.1484 8.78496 19.279 7.79398C18.537 6.94823 17.2653 6.51868 15.5004 6.51868C13.7422 6.51868 12.4746 6.94464 11.7304 7.78423C10.8621 8.76494 11.0043 10.0223 11.0053 10.0325L11.0099 12.9583L10.8406 13.1112C10.6563 13.2775 10.5547 13.5002 10.5547 13.7388V15.5581C10.5547 15.924 10.8036 16.2561 11.1608 16.3664L11.4158 16.4449L11.498 16.699C11.8007 17.6397 12.2318 18.5085 12.7789 19.2814C12.9134 19.4713 13.0442 19.6396 13.1566 19.7684L13.2839 19.9136V21.8119C13.2839 22.6392 12.8241 23.3833 12.084 23.7528L7.73879 25.9252C7.71108 25.9391 7.68388 25.9534 7.65668 25.9678C7.7116 26.0094 7.76805 26.0479 7.82347 26.0879Z"/>
</mask>
<path d="M1.38747 15.4996C1.38747 7.71802 7.71878 1.38672 15.5004 1.38672C23.282 1.38672 29.6133 7.71802 29.6133 15.4996C29.6133 19.6098 27.8458 23.3146 25.0325 25.896L25.0458 25.9078L24.5881 26.2937C24.5583 26.3188 24.526 26.3394 24.4962 26.364C24.2529 26.5657 24.001 26.7571 23.7444 26.9424C23.6612 27.0024 23.5781 27.0625 23.4934 27.121C23.2194 27.3098 22.9381 27.4889 22.6507 27.6588C22.5881 27.6957 22.525 27.7317 22.4619 27.7676C22.1473 27.9467 21.826 28.1155 21.4971 28.2705C21.473 28.2818 21.4483 28.2921 21.4242 28.3034C20.3521 28.8017 19.2077 29.1676 18.0109 29.3836C17.9796 29.3893 17.9483 29.3949 17.9165 29.4006C17.545 29.4647 17.1693 29.516 16.789 29.5504C16.7428 29.5545 16.6966 29.5571 16.6499 29.5612C16.2712 29.5925 15.8884 29.6125 15.5004 29.6125C15.116 29.6125 14.7367 29.5925 14.3601 29.5622C14.3123 29.5581 14.2646 29.5556 14.2169 29.5515C13.8397 29.5171 13.4671 29.4673 13.0991 29.4042C13.0673 29.3985 13.035 29.3929 13.0032 29.3867C11.8244 29.1753 10.6963 28.8176 9.63814 28.3321C9.59913 28.3141 9.55961 28.2972 9.52061 28.2787C9.20397 28.1299 8.89451 27.9693 8.59121 27.7984C8.51577 27.7558 8.44085 27.7127 8.36592 27.6685C8.08982 27.5059 7.81834 27.336 7.55456 27.1553C7.45962 27.0907 7.36673 27.0224 7.27281 26.9547C7.04752 26.7925 6.82633 26.6252 6.6113 26.4502C6.56358 26.4117 6.51226 26.3784 6.46556 26.3388L5.99598 25.9468L6.00984 25.935C3.17186 23.3526 1.38747 19.6309 1.38747 15.4996ZM28.5869 15.4996C28.5869 8.28357 22.7164 2.41311 15.5004 2.41311C8.28432 2.41311 2.41387 8.28357 2.41387 15.4996C2.41387 19.3881 4.12025 22.884 6.82171 25.2827C6.97259 25.1785 7.1245 25.0851 7.28 25.0071L11.6252 22.8347C12.0153 22.6397 12.2575 22.2476 12.2575 21.8119V20.2944C12.1569 20.1702 12.0507 20.0296 11.9408 19.8751C11.3784 19.0807 10.9273 18.197 10.5983 17.246C9.94811 16.9371 9.52831 16.2894 9.52831 15.5581V13.7388C9.52831 13.2939 9.69151 12.8623 9.98351 12.5231V10.128C9.95683 9.86165 9.8624 8.35849 10.9499 7.11861C11.8957 6.03884 13.4266 5.49229 15.5004 5.49229C17.5742 5.49229 19.1051 6.03885 20.0509 7.1181C21.1384 8.35798 21.0439 9.86113 21.0172 10.1275V12.5226C21.3087 12.8618 21.4724 13.2934 21.4724 13.7383V15.5576C21.4724 16.1226 21.2189 16.6497 20.7848 17.0053C20.3691 18.6337 19.5136 19.8664 19.1974 20.2842V21.7693C19.1974 22.1881 19.4258 22.573 19.7938 22.7742L23.8516 24.9876C23.9809 25.0579 24.1092 25.14 24.2375 25.2319C26.9057 22.8342 28.5869 19.3599 28.5869 15.4996ZM7.82347 26.0879C8.00309 26.2182 8.18579 26.3445 8.37105 26.4651C8.45624 26.5205 8.54092 26.5759 8.62765 26.6298C8.86988 26.7797 9.11621 26.9223 9.36768 27.0558C9.42311 27.085 9.47904 27.1127 9.53498 27.1415C10.1128 27.4376 10.7107 27.6921 11.325 27.899C11.3466 27.9061 11.3681 27.9138 11.3902 27.921C11.712 28.0278 12.0378 28.1227 12.3673 28.2043L12.3704 28.2048C12.7029 28.2869 13.0396 28.3552 13.3783 28.4111C13.3875 28.4127 13.3968 28.4147 13.406 28.4163C13.7247 28.4681 14.046 28.5056 14.3683 28.5338C14.4252 28.5389 14.4822 28.5425 14.5397 28.5466C14.8584 28.5707 15.1786 28.5861 15.5004 28.5861C15.8257 28.5861 16.1501 28.5702 16.4729 28.5461C16.5288 28.542 16.5848 28.5384 16.6402 28.5333C16.9656 28.5045 17.2894 28.466 17.6101 28.4137C17.6245 28.4111 17.6389 28.4086 17.6532 28.406C18.3317 28.2926 18.9994 28.1258 19.6496 27.9077C19.6696 27.901 19.6901 27.8938 19.7101 27.8872C20.0329 27.7773 20.3521 27.6557 20.6657 27.5212C20.6678 27.5202 20.6703 27.5192 20.6724 27.5182C20.969 27.3904 21.26 27.2487 21.5474 27.0994C21.5848 27.0799 21.6228 27.0614 21.6598 27.0414C21.922 26.9013 22.1786 26.7499 22.4316 26.5919C22.5065 26.5446 22.5809 26.4969 22.6549 26.4487C22.8878 26.2962 23.1178 26.1377 23.3415 25.9699C23.3646 25.9524 23.3867 25.9339 23.4098 25.9165C23.3933 25.9072 23.3769 25.898 23.3605 25.8888L19.3027 23.6754C18.6047 23.2946 18.1711 22.5643 18.1711 21.7693L18.1716 19.9208L18.2896 19.7781C18.3009 19.7653 19.4104 18.4156 19.8297 16.5881L19.8764 16.3849L20.0514 16.2715C20.2983 16.1119 20.4461 15.845 20.4461 15.5571V13.7378C20.4461 13.4992 20.345 13.277 20.1602 13.1102L19.9908 12.9572V10.0987L19.9955 10.0315C19.997 10.0192 20.1484 8.78496 19.279 7.79398C18.537 6.94823 17.2653 6.51868 15.5004 6.51868C13.7422 6.51868 12.4746 6.94464 11.7304 7.78423C10.8621 8.76494 11.0043 10.0223 11.0053 10.0325L11.0099 12.9583L10.8406 13.1112C10.6563 13.2775 10.5547 13.5002 10.5547 13.7388V15.5581C10.5547 15.924 10.8036 16.2561 11.1608 16.3664L11.4158 16.4449L11.498 16.699C11.8007 17.6397 12.2318 18.5085 12.7789 19.2814C12.9134 19.4713 13.0442 19.6396 13.1566 19.7684L13.2839 19.9136V21.8119C13.2839 22.6392 12.8241 23.3833 12.084 23.7528L7.73879 25.9252C7.71108 25.9391 7.68388 25.9534 7.65668 25.9678C7.7116 26.0094 7.76805 26.0479 7.82347 26.0879Z" fill="#AB2C95"/>
<path d="M1.38747 15.4996C1.38747 7.71802 7.71878 1.38672 15.5004 1.38672C23.282 1.38672 29.6133 7.71802 29.6133 15.4996C29.6133 19.6098 27.8458 23.3146 25.0325 25.896L25.0458 25.9078L24.5881 26.2937C24.5583 26.3188 24.526 26.3394 24.4962 26.364C24.2529 26.5657 24.001 26.7571 23.7444 26.9424C23.6612 27.0024 23.5781 27.0625 23.4934 27.121C23.2194 27.3098 22.9381 27.4889 22.6507 27.6588C22.5881 27.6957 22.525 27.7317 22.4619 27.7676C22.1473 27.9467 21.826 28.1155 21.4971 28.2705C21.473 28.2818 21.4483 28.2921 21.4242 28.3034C20.3521 28.8017 19.2077 29.1676 18.0109 29.3836C17.9796 29.3893 17.9483 29.3949 17.9165 29.4006C17.545 29.4647 17.1693 29.516 16.789 29.5504C16.7428 29.5545 16.6966 29.5571 16.6499 29.5612C16.2712 29.5925 15.8884 29.6125 15.5004 29.6125C15.116 29.6125 14.7367 29.5925 14.3601 29.5622C14.3123 29.5581 14.2646 29.5556 14.2169 29.5515C13.8397 29.5171 13.4671 29.4673 13.0991 29.4042C13.0673 29.3985 13.035 29.3929 13.0032 29.3867C11.8244 29.1753 10.6963 28.8176 9.63814 28.3321C9.59913 28.3141 9.55961 28.2972 9.52061 28.2787C9.20397 28.1299 8.89451 27.9693 8.59121 27.7984C8.51577 27.7558 8.44085 27.7127 8.36592 27.6685C8.08982 27.5059 7.81834 27.336 7.55456 27.1553C7.45962 27.0907 7.36673 27.0224 7.27281 26.9547C7.04752 26.7925 6.82633 26.6252 6.6113 26.4502C6.56358 26.4117 6.51226 26.3784 6.46556 26.3388L5.99598 25.9468L6.00984 25.935C3.17186 23.3526 1.38747 19.6309 1.38747 15.4996ZM28.5869 15.4996C28.5869 8.28357 22.7164 2.41311 15.5004 2.41311C8.28432 2.41311 2.41387 8.28357 2.41387 15.4996C2.41387 19.3881 4.12025 22.884 6.82171 25.2827C6.97259 25.1785 7.1245 25.0851 7.28 25.0071L11.6252 22.8347C12.0153 22.6397 12.2575 22.2476 12.2575 21.8119V20.2944C12.1569 20.1702 12.0507 20.0296 11.9408 19.8751C11.3784 19.0807 10.9273 18.197 10.5983 17.246C9.94811 16.9371 9.52831 16.2894 9.52831 15.5581V13.7388C9.52831 13.2939 9.69151 12.8623 9.98351 12.5231V10.128C9.95683 9.86165 9.8624 8.35849 10.9499 7.11861C11.8957 6.03884 13.4266 5.49229 15.5004 5.49229C17.5742 5.49229 19.1051 6.03885 20.0509 7.1181C21.1384 8.35798 21.0439 9.86113 21.0172 10.1275V12.5226C21.3087 12.8618 21.4724 13.2934 21.4724 13.7383V15.5576C21.4724 16.1226 21.2189 16.6497 20.7848 17.0053C20.3691 18.6337 19.5136 19.8664 19.1974 20.2842V21.7693C19.1974 22.1881 19.4258 22.573 19.7938 22.7742L23.8516 24.9876C23.9809 25.0579 24.1092 25.14 24.2375 25.2319C26.9057 22.8342 28.5869 19.3599 28.5869 15.4996ZM7.82347 26.0879C8.00309 26.2182 8.18579 26.3445 8.37105 26.4651C8.45624 26.5205 8.54092 26.5759 8.62765 26.6298C8.86988 26.7797 9.11621 26.9223 9.36768 27.0558C9.42311 27.085 9.47904 27.1127 9.53498 27.1415C10.1128 27.4376 10.7107 27.6921 11.325 27.899C11.3466 27.9061 11.3681 27.9138 11.3902 27.921C11.712 28.0278 12.0378 28.1227 12.3673 28.2043L12.3704 28.2048C12.7029 28.2869 13.0396 28.3552 13.3783 28.4111C13.3875 28.4127 13.3968 28.4147 13.406 28.4163C13.7247 28.4681 14.046 28.5056 14.3683 28.5338C14.4252 28.5389 14.4822 28.5425 14.5397 28.5466C14.8584 28.5707 15.1786 28.5861 15.5004 28.5861C15.8257 28.5861 16.1501 28.5702 16.4729 28.5461C16.5288 28.542 16.5848 28.5384 16.6402 28.5333C16.9656 28.5045 17.2894 28.466 17.6101 28.4137C17.6245 28.4111 17.6389 28.4086 17.6532 28.406C18.3317 28.2926 18.9994 28.1258 19.6496 27.9077C19.6696 27.901 19.6901 27.8938 19.7101 27.8872C20.0329 27.7773 20.3521 27.6557 20.6657 27.5212C20.6678 27.5202 20.6703 27.5192 20.6724 27.5182C20.969 27.3904 21.26 27.2487 21.5474 27.0994C21.5848 27.0799 21.6228 27.0614 21.6598 27.0414C21.922 26.9013 22.1786 26.7499 22.4316 26.5919C22.5065 26.5446 22.5809 26.4969 22.6549 26.4487C22.8878 26.2962 23.1178 26.1377 23.3415 25.9699C23.3646 25.9524 23.3867 25.9339 23.4098 25.9165C23.3933 25.9072 23.3769 25.898 23.3605 25.8888L19.3027 23.6754C18.6047 23.2946 18.1711 22.5643 18.1711 21.7693L18.1716 19.9208L18.2896 19.7781C18.3009 19.7653 19.4104 18.4156 19.8297 16.5881L19.8764 16.3849L20.0514 16.2715C20.2983 16.1119 20.4461 15.845 20.4461 15.5571V13.7378C20.4461 13.4992 20.345 13.277 20.1602 13.1102L19.9908 12.9572V10.0987L19.9955 10.0315C19.997 10.0192 20.1484 8.78496 19.279 7.79398C18.537 6.94823 17.2653 6.51868 15.5004 6.51868C13.7422 6.51868 12.4746 6.94464 11.7304 7.78423C10.8621 8.76494 11.0043 10.0223 11.0053 10.0325L11.0099 12.9583L10.8406 13.1112C10.6563 13.2775 10.5547 13.5002 10.5547 13.7388V15.5581C10.5547 15.924 10.8036 16.2561 11.1608 16.3664L11.4158 16.4449L11.498 16.699C11.8007 17.6397 12.2318 18.5085 12.7789 19.2814C12.9134 19.4713 13.0442 19.6396 13.1566 19.7684L13.2839 19.9136V21.8119C13.2839 22.6392 12.8241 23.3833 12.084 23.7528L7.73879 25.9252C7.71108 25.9391 7.68388 25.9534 7.65668 25.9678C7.7116 26.0094 7.76805 26.0479 7.82347 26.0879Z" stroke="#AB2C95" mask="url(#path-1-outside-1)"/>
</svg>
