<svg width="20" height="20" viewBox="0 0 20 20" fill="none" xmlns="http://www.w3.org/2000/svg">
<path d="M4.37827 6.42871H0.486328L0.486328 19.9997H4.37827L4.37827 6.42871Z" fill="white"/>
<path d="M15.0262 6.31055C12.8099 6.31055 11.4045 7.61998 11.1342 8.5723V6.42959H6.75586C6.80991 7.56046 6.75586 20.0001 6.75586 20.0001H11.1342V12.6197C11.1342 12.203 11.1343 11.7864 11.2424 11.4888C11.5667 10.6555 12.1613 9.82222 13.3505 9.82222C14.864 9.82222 15.5667 11.0721 15.5667 12.9173V19.9406H19.9991V12.4411C19.9451 8.21518 17.7829 6.31055 15.0262 6.31055Z" fill="white"/>
<path d="M2.37839 0C0.918931 0 0 1.012 0 2.38119C0 3.69084 0.918928 4.70284 2.32433 4.70284H2.37839C3.83785 4.70284 4.75676 3.69084 4.75676 2.32166C4.70271 1.012 3.83785 0 2.37839 0Z" fill="white"/>
</svg>
