<svg width="42" height="42" viewBox="0 0 42 42" fill="none" xmlns="http://www.w3.org/2000/svg">
<path d="M9.94501 2.51004C9.29861 2.45754 8.58001 2.64458 7.9172 3.11051C7.33314 3.51739 6.07314 4.51817 4.89517 5.6502C4.30782 6.21458 3.74673 6.80192 3.31361 7.37942C2.8772 7.95692 2.49657 8.4852 2.51954 9.25301C2.54251 9.94208 2.61142 11.9797 4.07814 15.1035C5.54486 18.2239 8.3897 22.506 13.9383 28.0579C19.4902 33.6097 23.7722 36.4546 26.8927 37.9213C30.0131 39.388 32.0541 39.4569 32.7431 39.4799C33.5077 39.5029 34.036 39.1222 34.6135 38.6858C35.191 38.2494 35.7783 37.6916 36.3427 37.1043C37.4714 35.9263 38.4722 34.6663 38.8791 34.0822C39.8077 32.7599 39.6535 31.198 38.6199 30.4729C37.9702 30.0168 31.995 26.0399 31.096 25.4886C30.1838 24.9308 29.1338 25.1835 28.1953 25.6789C27.457 26.0694 25.4588 27.2146 24.8878 27.5427C24.458 27.2704 22.8272 26.1843 19.3195 22.6766C15.8086 19.169 14.7258 17.5382 14.4535 17.1083C14.7816 16.5374 15.9235 14.549 16.3172 13.7975C16.8094 12.8624 17.085 11.8025 16.4977 10.8838C16.2516 10.4933 15.1327 8.79036 14.0039 7.08083C12.8719 5.37129 11.7989 3.75036 11.52 3.36317V3.35989C11.1558 2.85786 10.5881 2.56254 9.94501 2.51004ZM9.79079 4.22614C10.0205 4.25567 10.1583 4.34754 10.1583 4.34754C10.2928 4.53458 11.4708 6.29989 12.5995 8.00614C13.7283 9.71567 14.88 11.4679 15.0802 11.7861C15.113 11.8354 15.1589 12.3932 14.8308 13.0133V13.0166C14.46 13.7221 12.7308 16.7441 12.7308 16.7441L12.4913 17.1674L12.7374 17.5874C12.7374 17.5874 14.0269 19.7629 18.1285 23.8644C22.2333 27.966 24.4088 29.2588 24.4088 29.2588L24.8288 29.5049L25.252 29.2654C25.252 29.2654 28.2675 27.5394 28.9795 27.1654C29.5997 26.8405 30.1575 26.8832 30.2231 26.9225C30.8039 27.2802 37.2581 31.5688 37.6552 31.8477C37.6683 31.8575 38.0194 32.3891 37.5075 33.1175H37.5042C37.1958 33.5605 36.1852 34.8435 35.1319 35.9394C34.6036 36.4874 34.0622 36.9993 33.6028 37.3438C33.1435 37.6883 32.7333 37.7966 32.7989 37.7999C32.0836 37.7769 30.5053 37.7605 27.608 36.3988C24.7106 35.0404 20.5763 32.3202 15.1261 26.8668C9.67923 21.4199 6.95907 17.2855 5.59736 14.3849C4.23892 11.4875 4.22251 9.90926 4.19954 9.19723C4.20282 9.26286 4.31111 8.84942 4.65564 8.39004C5.00017 7.93067 5.50876 7.38598 6.05673 6.8577C7.15595 5.80442 8.43564 4.79379 8.87861 4.48536V4.48864C9.24283 4.2327 9.56111 4.19989 9.79079 4.22614Z" fill="#F8BD07" stroke="#F8BD07" stroke-width="2" stroke-linejoin="round"/>
</svg>
