<svg width="54" height="54" viewBox="0 0 54 54" fill="none" xmlns="http://www.w3.org/2000/svg">
<path d="M27 4.5C14.6002 4.5 4.5 14.6002 4.5 27C4.5 39.3998 14.6002 49.5 27 49.5C39.3998 49.5 49.5 39.3998 49.5 27C49.5 14.6002 39.3998 4.5 27 4.5ZM27 9C36.9678 9 45 17.0322 45 27C45 36.0326 38.397 43.4543 29.7422 44.7715V32.3657H34.9805L35.8022 27.0439H29.7422V24.1348C29.7422 21.923 30.4627 19.96 32.5327 19.96H35.855V15.3149C35.27 15.2362 34.0354 15.0645 31.7022 15.0645C26.8287 15.0645 23.9722 17.6385 23.9722 23.502V27.0439H18.9624V32.3657H23.9722V44.7275C15.4582 43.2919 9 35.933 9 27C9 17.0322 17.0322 9 27 9Z" fill="#F8BD07"/>
</svg>
