<svg width="26" height="28" viewBox="0 0 26 28" fill="none" xmlns="http://www.w3.org/2000/svg">
<path d="M10.4406 -0.0341797C9.5024 -0.0341797 8.58176 0.142503 7.9154 0.773512C7.24903 1.40452 7.0386 2.30056 7.0386 3.23024H2.58445C1.96631 3.23024 1.46215 3.71402 1.46215 4.30717H0.339844V6.46101H25.0305V4.30717H23.9082C23.9082 3.71402 23.4041 3.23024 22.7859 3.23024H18.3318C18.3318 2.30056 18.1213 1.40452 17.455 0.773512C16.7886 0.142503 15.868 -0.0341797 14.9298 -0.0341797H10.4406ZM10.4406 2.18697H14.9298C15.5436 2.18697 15.7365 2.3258 15.8066 2.3889C15.8767 2.452 16.017 2.62868 16.017 3.23024H9.35335C9.35335 2.62868 9.49364 2.452 9.56378 2.3889C9.63392 2.3258 9.82682 2.18697 10.4406 2.18697ZM2.58445 7.53793V24.7687C2.58445 26.5481 4.09693 27.9995 5.95136 27.9995H19.419C21.2734 27.9995 22.7859 26.5481 22.7859 24.7687V7.53793H2.58445ZM7.07367 10.7687H9.31828V23.6918H7.07367V10.7687ZM11.5629 10.7687H13.8075V23.6918H11.5629V10.7687ZM16.0521 10.7687H18.2967V23.6918H16.0521V10.7687Z" fill="#5D5D5A"/>
</svg>
