<svg width="43" height="40" viewBox="0 0 43 40" fill="none" xmlns="http://www.w3.org/2000/svg">
<path d="M11.0876 11.1663H10.5876V11.6663V28.333V28.833H11.0876H33.6673H34.1673V28.333V11.6663V11.1663H33.6673H11.0876ZM33.6673 31.1663H11.0876C9.43347 31.1663 8.11377 29.871 8.11377 28.333V11.6663C8.11377 10.1284 9.43347 8.83301 11.0876 8.83301H33.6673C35.3214 8.83301 36.6411 10.1284 36.6411 11.6663V28.333C36.6411 29.871 35.3214 31.1663 33.6673 31.1663Z" fill="#717171" stroke="#717171"/>
<path d="M10.5664 27.8327L8.13477 25.4993L18.9035 15.166L25.1564 21.666L22.551 23.9993L18.7298 19.9993L10.5664 27.8327Z" fill="#717171"/>
<path d="M23.9404 26.6663L21.5088 24.333L29.3248 16.833L36.6198 23.6663L34.0145 26.1663L29.3248 21.4997L23.9404 26.6663Z" fill="#717171"/>
<path opacity="0.3" d="M35.2304 24.8333L29.3249 19.1667L24.809 23.5L18.7298 17.5L9.35059 26.6667V30H35.4041L35.2304 24.8333Z" fill="#717171"/>
<path d="M24.9825 16.6663C25.9418 16.6663 26.7194 15.9201 26.7194 14.9997C26.7194 14.0792 25.9418 13.333 24.9825 13.333C24.0232 13.333 23.2456 14.0792 23.2456 14.9997C23.2456 15.9201 24.0232 16.6663 24.9825 16.6663Z" fill="#717171"/>
<rect x="6.37695" y="8.83301" width="32.0011" height="22.3333" rx="1.5" stroke="white"/>
<rect x="4.63965" y="7.16699" width="35.4749" height="25.6667" rx="2.5" stroke="#717171"/>
</svg>
