<svg width="34" height="31" viewBox="0 0 34 31" fill="none" xmlns="http://www.w3.org/2000/svg">
<g clip-path="url(#clip0)">
<path d="M8.89786 6.4582C8.46982 6.46461 8.06193 6.6338 7.76379 6.92858C7.46565 7.22337 7.30164 7.61966 7.30778 8.0304V9.5804H5.69246C4.80081 9.5804 4.07715 10.2748 4.07715 11.1304C4.07715 11.986 4.80081 12.6804 5.69246 12.6804H7.30778V25.5971C7.30778 27.0061 8.53155 28.1804 9.99998 28.1804H23.4609V29.7304C23.4609 30.586 24.1846 31.2804 25.0763 31.2804C25.9679 31.2804 26.6916 30.586 26.6916 29.7304V28.1804H28.3069C28.5209 28.1833 28.7335 28.1454 28.9321 28.0688C29.1307 27.9922 29.3115 27.8785 29.4639 27.7342C29.6164 27.59 29.7374 27.4182 29.8201 27.2287C29.9027 27.0392 29.9452 26.8358 29.9452 26.6304C29.9452 26.425 29.9027 26.2216 29.8201 26.0321C29.7374 25.8426 29.6164 25.6708 29.4639 25.5266C29.3115 25.3823 29.1307 25.2686 28.9321 25.192C28.7335 25.1154 28.5209 25.0775 28.3069 25.0804H12.0612L23.4609 14.1416V23.0137H26.6916V11.0416L29.6067 8.24433C29.7623 8.09919 29.8686 7.91232 29.9116 7.70821C29.9547 7.50411 29.9324 7.29229 29.8479 7.10052C29.7633 6.90875 29.6203 6.74597 29.4377 6.63351C29.255 6.52105 29.0412 6.46417 28.8243 6.47031C28.5445 6.47831 28.279 6.5905 28.0839 6.78313L25.1688 9.5804H12.6922V12.6804H21.9382L10.5384 23.6192V8.0304C10.5415 7.82294 10.5012 7.617 10.4198 7.42477C10.3384 7.23255 10.2177 7.05795 10.0647 6.91133C9.91169 6.76472 9.72959 6.64907 9.52916 6.57123C9.32873 6.49339 9.11405 6.45495 8.89786 6.4582Z" fill="#717171"/>
</g>
<defs>
<clipPath id="clip0">
<rect width="32.3063" height="31" fill="white" transform="translate(0.846191)"/>
</clipPath>
</defs>
</svg>
