<svg width="38" height="35" viewBox="0 0 38 35" fill="none" xmlns="http://www.w3.org/2000/svg">
<path d="M25.1498 24.7917H5.3926C3.72084 24.7917 2.35303 23.4792 2.35303 21.875V7.29167C2.35303 5.6875 3.72084 4.375 5.3926 4.375H25.1498C26.8216 4.375 28.1894 5.6875 28.1894 7.29167V21.875C28.1894 23.4792 26.8216 24.7917 25.1498 24.7917ZM5.3926 7.29167V21.875H25.1498V7.29167H5.3926Z" fill="#717171"/>
<path d="M31.2289 30.6247H8.43213V27.708H31.2289V10.208H34.2685V27.708C34.2685 29.3122 32.9007 30.6247 31.2289 30.6247Z" fill="#717171"/>
<path d="M4.9363 21.4368L2.80859 19.3952L12.2313 10.3535L17.7025 16.041L15.4228 18.0827L12.0793 14.5827L4.9363 21.4368Z" fill="#717171"/>
<path d="M16.6389 20.4167L14.5112 18.375L21.3503 11.8125L27.7334 17.7917L25.4537 19.9792L21.3503 15.8958L16.6389 20.4167Z" fill="#717171"/>
<path opacity="0.3" d="M26.5174 18.8122L21.3501 13.8538L17.3987 17.6455L12.0794 12.3955L3.87256 20.4163V23.333H26.6694L26.5174 18.8122Z" fill="#717171"/>
<path d="M17.5505 11.6667C18.3899 11.6667 19.0703 11.0137 19.0703 10.2083C19.0703 9.40292 18.3899 8.75 17.5505 8.75C16.7112 8.75 16.0308 9.40292 16.0308 10.2083C16.0308 11.0137 16.7112 11.6667 17.5505 11.6667Z" fill="#717171"/>
</svg>
