<svg width="30" height="28" viewBox="0 0 30 28" fill="none" xmlns="http://www.w3.org/2000/svg">
<g clip-path="url(#clip0)">
<path d="M9.85812 25.0717C5.88236 23.2517 3.03732 19.5533 2.59962 15.1667H0.775879C1.39595 22.3533 7.65747 28 15.305 28C15.5847 28 15.84 27.9767 16.1075 27.965L11.4752 23.5083L9.85812 25.0717ZM15.4266 0C15.147 0 14.8917 0.0233333 14.6242 0.0466667L19.2565 4.49167L20.8735 2.94C24.8493 4.74833 27.6943 8.44667 28.132 12.8333H29.9558C29.3357 5.64667 23.0742 0 15.4266 0ZM20.2291 16.3333H22.6608V9.33333C22.6608 8.03833 21.5666 7 20.2291 7H12.9342V9.33333H20.2291V16.3333ZM10.5025 18.6667V4.66667H8.07085V7H5.6392V9.33333H8.07085V18.6667C8.07085 19.95 9.15294 21 10.5025 21H20.2291V23.3333H22.6608V21H25.0925V18.6667H10.5025Z" fill="#717171"/>
</g>
<defs>
<clipPath id="clip0">
<rect width="29.1799" height="28" fill="white" transform="translate(0.775879)"/>
</clipPath>
</defs>
</svg>
