<svg width="31" height="31" viewBox="0 0 31 31" fill="none" xmlns="http://www.w3.org/2000/svg">
<path d="M13.3165 2.29718C13.8913 0.405852 16.569 0.40585 17.1437 2.29717L19.2086 9.09215C19.4646 9.93469 20.2416 10.5106 21.1222 10.5106H28.0745C29.9794 10.5106 30.8058 12.9214 29.3015 14.0901L23.4516 18.6345C22.7971 19.1429 22.524 20.0024 22.765 20.7954L24.9443 27.967C25.5115 29.8335 23.3443 31.3247 21.8038 30.128L16.4571 25.9744C15.7352 25.4137 14.725 25.4137 14.0032 25.9744L8.65649 30.128C7.11599 31.3247 4.94876 29.8335 5.51593 27.967L7.69526 20.7954C7.93624 20.0024 7.66314 19.1429 7.00862 18.6345L1.15877 14.0901C-0.345548 12.9214 0.480828 10.5106 2.38573 10.5106H9.33807C10.2187 10.5106 10.9956 9.93469 11.2517 9.09215L13.3165 2.29718Z" fill="#C4C4C4"/>
</svg>
