<svg width="42" height="42" viewBox="0 0 42 42" fill="none" xmlns="http://www.w3.org/2000/svg">
<mask id="mask0" mask-type="alpha" maskUnits="userSpaceOnUse" x="5" y="4" width="32" height="31">
<path d="M18.6698 5.98632C19.2612 4.12859 21.8899 4.12859 22.4813 5.98632L24.7515 13.1173C25.0156 13.9472 25.7864 14.5106 26.6572 14.5106H34.0892C36.0167 14.5106 36.8287 16.969 35.2804 18.1172L29.1981 22.6274C28.5114 23.1366 28.2243 24.026 28.4836 24.8406L30.7902 32.086C31.3791 33.9358 29.2525 35.4555 27.6932 34.2992L21.7668 29.9047C21.0593 29.38 20.0918 29.38 19.3843 29.9047L13.4579 34.2992C11.8985 35.4555 9.77199 33.9358 10.3609 32.086L12.6675 24.8406C12.9268 24.026 12.6397 23.1366 11.953 22.6274L5.87063 18.1171C4.32233 16.969 5.13437 14.5106 7.06191 14.5106H14.4938C15.3647 14.5106 16.1354 13.9472 16.3996 13.1173L18.6698 5.98632Z" fill="#C4C4C4"/>
</mask>
<g mask="url(#mask0)">
<rect x="1.87109" y="-1" width="18.705" height="40" fill="#C4C4C4"/>
</g>
</svg>
