<svg width="31" height="31" viewBox="0 0 31 31" fill="none" xmlns="http://www.w3.org/2000/svg">
<path d="M13.6329 2.29718C14.2077 0.405852 16.8854 0.40585 17.4601 2.29717L19.525 9.09215C19.781 9.93469 20.558 10.5106 21.4386 10.5106H28.3909C30.2958 10.5106 31.1222 12.9214 29.6179 14.0901L23.768 18.6345C23.1135 19.1429 22.8404 20.0024 23.0814 20.7954L25.2607 27.967C25.8279 29.8335 23.6607 31.3247 22.1202 30.128L16.7735 25.9744C16.0516 25.4137 15.0414 25.4137 14.3196 25.9744L8.9729 30.128C7.4324 31.3247 5.26516 29.8335 5.83234 27.967L8.01167 20.7954C8.25264 20.0024 7.97955 19.1429 7.32503 18.6345L1.47518 14.0901C-0.0291419 12.9214 0.797235 10.5106 2.70213 10.5106H9.65448C10.5351 10.5106 11.312 9.93469 11.5681 9.09215L13.6329 2.29718Z" fill="#F8BD07"/>
</svg>
