<svg width="131" height="107" viewBox="0 0 131 107" fill="none" xmlns="http://www.w3.org/2000/svg">
<path d="M23.0456 31.1486H121.293V35.8231H131V20.3135H12.1298V90.7443H0V107H81.1196V90.7443H23.0456V31.1486ZM131 41.9567H87.3315V107H131V41.9567ZM120.084 90.7173H98.2473V52.8188H120.084V90.7173Z" fill="#AB2C94"/>
<path d="M87.3308 31.1486V20.3135H33.9552V31.1486H23.0449V90.7443H81.1244V107H87.3308V90.7443H121.292V41.9837H130.999V35.8231H121.292V31.1486H87.3308Z" fill="#F7BD06"/>
<path d="M60.6489 0L81.1193 20.3192V35.6667L66.1095 20.7407V50.5494H55.1828V20.7407L40.1621 35.6667V20.3192L60.6489 0Z" fill="#AB2C94"/>
<path d="M60.6489 0L81.1193 20.3192V35.6667L66.1095 20.7407V50.5494H55.1828V20.7407L40.1621 35.6667V20.3192L60.6489 0Z" fill="#AB2C94"/>
<path d="M87.332 41.9844V107H131.001V41.9844H87.332ZM121.408 90.745H96.9412V52.8195H121.408V90.745Z" fill="#AB2C94"/>
<path d="M111.591 97.3701H106.74V102.185H111.591V97.3701Z" fill="#F7BD06"/>
</svg>
