<svg width="163" height="166" viewBox="0 0 163 166" fill="none" xmlns="http://www.w3.org/2000/svg">
<path d="M113.223 115.045L149.409 151.208L162.907 137.718L113.277 88.1201L113.223 115.045Z" fill="#AB2C94"/>
<path d="M82.5324 77.8808C93.8496 77.8808 103.024 68.7123 103.024 57.4023C103.024 46.0924 93.8496 36.9238 82.5324 36.9238C71.2153 36.9238 62.041 46.0924 62.041 57.4023C62.041 68.7123 71.2153 77.8808 82.5324 77.8808Z" fill="#AB2C94"/>
<path d="M26.9493 27.3719L10.4199 36.9092L45.5115 97.6512L62.0409 88.114L26.9493 27.3719Z" fill="#AB2C94"/>
<path d="M113.224 159.795V115.044L124.533 126.346L137.907 112.733L113.27 88.1198H62.0417L51.7572 70.3252L35.1855 79.7887L51.7494 108.598V159.795H51.796H113.224Z" fill="#F7BD06"/>
<path d="M40.9829 36.9238V6.20605H0V36.9238H10.8123H31.3038H40.9829Z" fill="#F7BD06"/>
</svg>
