<svg width="140" height="95" viewBox="0 0 140 95" fill="none" xmlns="http://www.w3.org/2000/svg">
<path d="M70.0389 0C54.9216 0.000933146 40.1549 4.53274 27.6623 13.0051C15.1698 21.4775 5.53047 33.4977 0 47.5C5.52129 61.5005 15.1531 73.5206 27.6395 81.993C40.1259 90.4655 54.8877 94.9971 70 94.9971C85.1123 94.9971 99.8741 90.4655 112.361 81.993C124.847 73.5206 134.479 61.5005 140 47.5C134.474 33.51 124.847 21.4983 112.37 13.0269C99.8927 4.55553 85.143 0.0164793 70.0389 0V0ZM70.0389 36.9901C67.9503 36.9901 65.9086 37.6064 64.1719 38.7613C62.4353 39.9161 61.0817 41.5576 60.2825 43.478C59.4832 45.3985 59.274 47.5117 59.6815 49.5504C60.089 51.5891 61.0948 53.4618 62.5716 54.9317C64.0485 56.4015 65.9302 57.4025 67.9787 57.808C70.0272 58.2135 72.1505 58.0054 74.0802 57.2099C76.0098 56.4144 77.6591 55.0674 78.8195 53.339C79.9799 51.6107 80.5992 49.5787 80.5992 47.5C80.6013 46.1192 80.3295 44.7517 79.7995 43.4756C79.2696 42.1996 78.4918 41.0401 77.5107 40.0638C76.5297 39.0875 75.3648 38.3134 74.0826 37.7859C72.8004 37.2585 71.4263 36.988 70.0389 36.9901Z" fill="#AB2C94"/>
<path d="M70.039 14.2588C59.4576 14.258 49.1213 17.4287 40.3765 23.3579C31.6317 29.2871 24.8838 37.6998 21.0117 47.5003C24.8742 57.2998 31.6143 65.7136 40.3529 71.6442C49.0915 77.5747 59.423 80.7469 70 80.7469C80.577 80.7469 90.9086 77.5747 99.6472 71.6442C108.386 65.7136 115.126 57.2998 118.988 47.5003C115.121 37.7121 108.385 29.3078 99.6557 23.3797C90.9263 17.4515 80.607 14.2736 70.039 14.2588Z" fill="#F7BD06"/>
<path d="M69.9997 64.9804C79.7002 64.9804 87.5639 57.1541 87.5639 47.5C87.5639 37.8458 79.7002 30.0195 69.9997 30.0195C60.2993 30.0195 52.4355 37.8458 52.4355 47.5C52.4355 57.1541 60.2993 64.9804 69.9997 64.9804Z" fill="#AB2C94"/>
<path d="M70 57.9554C75.8022 57.9554 80.5058 53.2742 80.5058 47.4997C80.5058 41.7251 75.8022 37.0439 70 37.0439C64.1978 37.0439 59.4941 41.7251 59.4941 47.4997C59.4941 53.2742 64.1978 57.9554 70 57.9554Z" fill="#F7BD06"/>
</svg>
