<?xml version="1.0" encoding="UTF-8"?>
<svg width="100px" height="132px" viewBox="0 0 100 132" version="1.1" xmlns="http://www.w3.org/2000/svg" xmlns:xlink="http://www.w3.org/1999/xlink">
    <!-- Generator: Sketch 55.2 (78181) - https://sketchapp.com -->
    <title>cta-clip-pink-purple</title>
    <desc>Created with Sketch.</desc>
    <g id="cta-clip-pink-purple" stroke="none" stroke-width="1" fill="none" fill-rule="evenodd">
        <polygon id="Fill-16-path-Copy" fill="#C3C6FF" transform="translate(50.000000, 99.000000) scale(-1, 1) translate(-50.000000, -99.000000) " points="99.9965006 84.2230059 100 84.2129264 47.567927 66.0014064 47.567927 66 0.00139995567 66 0.00139995567 113.785198 0 113.789183 52.4299731 131.99789 52.4299731 131.999297 52.4344063 131.999297 52.4362729 132 52.4365062 131.999297 99.9965006 131.999297"></polygon>
        <polygon id="Fill-16-path-Copy-2" fill="#858AE3" points="99.9965006 18.2230059 100 18.2129264 47.567927 0.00140643975 47.567927 0 0.00139995567 0 0.00139995567 47.7851983 0 47.7891833 52.4299731 65.9978904 52.4299731 65.9992968 52.4344063 65.9992968 52.4362729 66 52.4365062 65.9992968 99.9965006 65.9992968"></polygon>
    </g>
</svg>