<?xml version="1.0" encoding="UTF-8"?>
<svg width="64px" height="64px" viewBox="0 0 64 64" version="1.1" xmlns="http://www.w3.org/2000/svg" xmlns:xlink="http://www.w3.org/1999/xlink">
    <!-- Generator: Sketch 54.1 (76490) - https://sketchapp.com -->
    <title>digital-wallets</title>
    <desc>Created with Sketch.</desc>
    <defs>
        <linearGradient x1="50%" y1="0%" x2="50%" y2="100%" id="linearGradient-1">
            <stop stop-color="#F7F5FF" offset="0%"></stop>
            <stop stop-color="#FFEFEA" offset="100%"></stop>
        </linearGradient>
    </defs>
    <g id="digital-wallets" stroke="none" stroke-width="1" fill="none" fill-rule="evenodd">
        <polygon id="Rectangle-Copy-210" fill="url(#linearGradient-1)" transform="translate(32.000000, 32.000000) scale(-1, 1) translate(-32.000000, -32.000000) " points="0 0 64 0 64 64 0 60"></polygon>
        <g id="wallet-43" transform="translate(17.000000, 18.000000)" stroke="#000645" stroke-linecap="square" stroke-width="2">
            <path d="M27,14 L27,6 L21,6 L8,6 L3,6 C1.343,6 0,4.657 0,3 L0,24 C0,26.209 1.791,28 4,28 L27,28 L27,20" id="Path"></path>
            <path d="M30,20 L23,20 C21.343,20 20,18.657 20,17 L20,17 C20,15.343 21.343,14 23,14 L30,14 L30,20 Z" id="Path"></path>
            <path d="M21,2 L21,0 L3,0 C1.343,0 0,1.343 0,3 L0,3 C0,4.657 1.343,6 3,6" id="Path"></path>
        </g>
    </g>
</svg>