<?xml version="1.0" encoding="UTF-8"?>
<svg width="64px" height="64px" viewBox="0 0 64 64" version="1.1" xmlns="http://www.w3.org/2000/svg" xmlns:xlink="http://www.w3.org/1999/xlink">
    <!-- Generator: Sketch 54.1 (76490) - https://sketchapp.com -->
    <title>instore-payments</title>
    <desc>Created with Sketch.</desc>
    <defs>
        <linearGradient x1="50%" y1="0.166279561%" x2="50%" y2="100%" id="linearGradient-1">
            <stop stop-color="#E9F9FF" offset="0%"></stop>
            <stop stop-color="#F7F5FF" offset="100%"></stop>
        </linearGradient>
    </defs>
    <g id="instore-payments" stroke="none" stroke-width="1" fill="none" fill-rule="evenodd">
        <polygon id="Rectangle-Copy-210" fill="url(#linearGradient-1)" transform="translate(32.000000, 32.000000) scale(-1, 1) translate(-32.000000, -32.000000) " points="0 0 64 0 64 64 0 60"></polygon>
        <g id="cash-register" transform="translate(17.000000, 17.000000)" stroke="#000645" stroke-linecap="square" stroke-width="2">
            <rect id="Rectangle" x="15" y="0" width="8" height="4"></rect>
            <path d="M19,4 L19,8" id="Path"></path>
            <rect id="Rectangle" x="11" y="12" width="8" height="4"></rect>
            <polyline id="Path" points="3 24 3 18 7 12 7 8 23 8 23 12 27 18 27 24"></polyline>
            <polygon id="Path" points="30 30 0 30 0 30 0 24 30 24"></polygon>
        </g>
    </g>
</svg>