<?xml version="1.0" encoding="UTF-8"?>
<svg width="32px" height="32px" viewBox="0 0 32 32" version="1.1" xmlns="http://www.w3.org/2000/svg" xmlns:xlink="http://www.w3.org/1999/xlink">
    <!-- Generator: Sketch 55.2 (78181) - https://sketchapp.com -->
    <title>lifering</title>
    <desc>Created with Sketch.</desc>
    <g id="lifering" stroke="none" stroke-width="1" fill="none" fill-rule="evenodd">
        <g transform="translate(1.000000, 1.000000)" stroke="#000645" stroke-width="2">
            <path d="M12,28.678 C6.676,27.516 2.485,23.324 1.322,18" id="Path"></path>
            <path d="M28.678,18 C27.515,23.324 23.324,27.516 18,28.678" id="Path"></path>
            <path d="M18,1.322 C23.324,2.484 27.515,6.676 28.678,12" id="Path"></path>
            <path d="M1.322,12 C2.485,6.676 6.676,2.484 12,1.322" id="Path"></path>
            <polyline id="Path" points="12 8.674 12 0 18 0 18 8.674"></polyline>
            <polyline id="Path" points="21.326 12 30 12 30 18 21.326 18"></polyline>
            <polyline id="Path" points="18 21.326 18 30 12 30 12 21.326"></polyline>
            <polyline id="Path" points="8.674 18 0 18 0 12 8.674 12"></polyline>
            <circle id="Oval" stroke-linecap="square" cx="15" cy="15" r="7"></circle>
        </g>
    </g>
</svg>