<?xml version="1.0" encoding="UTF-8"?>
<svg width="20px" height="20px" viewBox="0 0 20 20" version="1.1" xmlns="http://www.w3.org/2000/svg" xmlns:xlink="http://www.w3.org/1999/xlink">
    <!-- Generator: Sketch 54.1 (76490) - https://sketchapp.com -->
    <title>logo-linkedin</title>
    <desc>Created with Sketch.</desc>
    <g id="logo-linkedin" stroke="none" stroke-width="1" fill="none" fill-rule="evenodd">
        <g fill="#A8AABC" fill-rule="nonzero" id="Shape">
            <path d="M19.1666667,0 L0.833333333,0 C0.333333333,0 0,0.333333333 0,0.833333333 L0,19.1666667 C0,19.6666667 0.333333333,20 0.833333333,20 L19.1666667,20 C19.6666667,20 20,19.6666667 20,19.1666667 L20,0.833333333 C20,0.333333333 19.6666667,0 19.1666667,0 Z M5.91666667,17.0833333 L3,17.0833333 L3,7.5 L6,7.5 L6,17.0833333 L5.91666667,17.0833333 Z M4.41666667,6.16666667 C3.5,6.16666667 2.66666667,5.41666667 2.66666667,4.41666667 C2.66666667,3.5 3.41666667,2.66666667 4.41666667,2.66666667 C5.33333333,2.66666667 6.16666667,3.41666667 6.16666667,4.41666667 C6.16666667,5.41666667 5.41666667,6.16666667 4.41666667,6.16666667 Z M17.0833333,17.0833333 L14.0833333,17.0833333 L14.0833333,12.4166667 C14.0833333,11.3333333 14.0833333,9.91666667 12.5833333,9.91666667 C11,9.91666667 10.8333333,11.0833333 10.8333333,12.3333333 L10.8333333,17.0833333 L7.83333333,17.0833333 L7.83333333,7.5 L10.6666667,7.5 L10.6666667,8.83333333 L10.6666667,8.83333333 C11.0833333,8.08333333 12,7.33333333 13.5,7.33333333 C16.5,7.33333333 17.0833333,9.33333333 17.0833333,11.9166667 L17.0833333,17.0833333 Z"></path>
        </g>
    </g>
</svg>