<?xml version="1.0" encoding="UTF-8"?>
<svg width="20px" height="16px" viewBox="0 0 20 16" version="1.1" xmlns="http://www.w3.org/2000/svg" xmlns:xlink="http://www.w3.org/1999/xlink">
    <!-- Generator: Sketch 54.1 (76490) - https://sketchapp.com -->
    <title>logo-twitter</title>
    <desc>Created with Sketch.</desc>
    <g id="logo-twitter" stroke="none" stroke-width="1" fill="none" fill-rule="evenodd">
        <g fill="#A8AABC" fill-rule="nonzero" id="Path">
            <path d="M20,1.89690722 C19.25,2.22680412 18.5,2.4742268 17.6666667,2.55670103 C18.5,2.06185567 19.1666667,1.2371134 19.5,0.329896907 C18.6666667,0.824742268 17.8333333,1.15463918 16.9166667,1.31958763 C16.1666667,0.494845361 15.0833333,0 13.9166667,0 C11.6666667,0 9.83333333,1.81443299 9.83333333,4.04123711 C9.83333333,4.37113402 9.83333333,4.70103093 9.91666667,4.94845361 C6.41666667,4.78350515 3.41666667,3.13402062 1.41666667,0.659793814 C1,1.31958763 0.833333333,1.97938144 0.833333333,2.72164948 C0.833333333,4.12371134 1.58333333,5.36082474 2.66666667,6.10309278 C2,6.10309278 1.33333333,5.93814433 0.833333333,5.60824742 C0.833333333,5.60824742 0.833333333,5.60824742 0.833333333,5.69072165 C0.833333333,7.67010309 2.25,9.31958763 4.08333333,9.64948454 C3.75,9.73195876 3.41666667,9.81443299 3,9.81443299 C2.75,9.81443299 2.5,9.81443299 2.25,9.73195876 C2.75,11.3814433 4.25,12.5360825 6.08333333,12.5360825 C4.66666667,13.6082474 2.91666667,14.2680412 1,14.2680412 C0.666666667,14.2680412 0.333333333,14.2680412 0,14.185567 C1.83333333,15.3402062 4,16 6.25,16 C13.8333333,16 17.9166667,9.81443299 17.9166667,4.45360825 C17.9166667,4.28865979 17.9166667,4.12371134 17.9166667,3.95876289 C18.75,3.3814433 19.4166667,2.63917526 20,1.89690722 Z"></path>
        </g>
    </g>
</svg>