<?xml version="1.0" encoding="UTF-8"?>
<svg width="20px" height="20px" viewBox="0 0 20 20" version="1.1" xmlns="http://www.w3.org/2000/svg" xmlns:xlink="http://www.w3.org/1999/xlink">
    <!-- Generator: Sketch 54.1 (76490) - https://sketchapp.com -->
    <title>logo-facebook</title>
    <desc>Created with Sketch.</desc>
    <g id="logo-facebook" stroke="none" stroke-width="1" fill="none" fill-rule="evenodd">
        <g fill="#A8AABC" fill-rule="nonzero" id="Path">
            <path d="M18.3333333,0 L1.66666667,0 C0.745833333,0 0,0.745833333 0,1.66666667 L0,18.3333333 C0,19.2541667 0.745833333,20 1.66666667,20 L10.8333333,20 L10.8333333,12.5 L8.33333333,12.5 L8.33333333,9.16666667 L10.8333333,9.16666667 L10.8333333,7.01083333 C10.8333333,4.4275 12.4108333,3.02083333 14.7158333,3.02083333 C15.82,3.02083333 16.7683333,3.10333333 17.045,3.14 L17.045,5.84 L15.4466667,5.84083333 C14.1933333,5.84083333 13.9508333,6.43666667 13.9508333,7.31 L13.9508333,9.16666667 L17.6508333,9.16666667 L16.8175,12.5 L13.9508333,12.5 L13.9508333,20 L18.3333333,20 C19.2541667,20 20,19.2541667 20,18.3333333 L20,1.66666667 C20,0.745833333 19.2541667,0 18.3333333,0 Z"></path>
        </g>
    </g>
</svg>