<?xml version="1.0" encoding="UTF-8"?>
<svg width="64px" height="64px" viewBox="0 0 64 64" version="1.1" xmlns="http://www.w3.org/2000/svg" xmlns:xlink="http://www.w3.org/1999/xlink">
    <!-- Generator: Sketch 54.1 (76490) - https://sketchapp.com -->
    <title>marketplace-payments</title>
    <desc>Created with Sketch.</desc>
    <defs>
        <linearGradient x1="50%" y1="0.166279561%" x2="50%" y2="100%" id="linearGradient-1">
            <stop stop-color="#EBFFFD" offset="0%"></stop>
            <stop stop-color="#EBFAFF" offset="100%"></stop>
        </linearGradient>
    </defs>
    <g id="marketplace-payments" stroke="none" stroke-width="1" fill="none" fill-rule="evenodd">
        <polygon id="Rectangle-Copy-210" fill="url(#linearGradient-1)" transform="translate(32.000000, 32.000000) scale(-1, 1) translate(-32.000000, -32.000000) " points="0 0 64 0 64 64 0 60"></polygon>
        <g id="configuration" transform="translate(17.000000, 17.000000)" stroke="#000645" stroke-width="2">
            <path d="M15,10.4 L12.734,8.331 C13.4266706,5.99503011 12.7519638,3.4679141 10.987123,1.78806744 C9.22228222,0.10822077 6.66496625,-0.441032847 4.366,0.366 L8,4 L4,8 L0.366,4.366 C-0.438630193,6.66476666 0.111496349,9.22052172 1.79066518,10.9846504 C3.46983401,12.748779 5.99534795,13.4242807 8.331,12.734 L10.2,14.779" id="Path"></path>
            <path d="M17.642,22.943 L23.484,29.343 C23.8522565,29.7466556 24.3696283,29.9820706 24.915884,29.994537 C25.4621397,30.0070034 25.9897124,29.7954358 26.376,29.409 L29.414,26.371 C29.8004358,25.9847124 30.0120034,25.4571397 29.999537,24.910884 C29.9870706,24.3646283 29.7516556,23.8472565 29.348,23.479 L22.6,17.325" id="Path" stroke-linecap="square"></path>
            <path d="M29.634,4.366 L26,8 L22,4 L25.634,0.366 C23.3352333,-0.438630193 20.7794783,0.111496349 19.0153496,1.79066518 C17.251221,3.46983401 16.5757193,5.99534795 17.266,8.331 L0.652,23.484 C0.248344353,23.8522565 0.0129293921,24.3696283 0.00046297571,24.915884 C-0.0120034406,25.4621397 0.199564238,25.9897124 0.586,26.376 L3.624,29.414 C4.01028759,29.8004358 4.53786029,30.0120034 5.08411599,29.999537 C5.63037169,29.9870706 6.14774354,29.7516556 6.516,29.348 L21.669,12.734 C24.0049699,13.4266706 26.5320859,12.7519638 28.2119326,10.987123 C29.8917792,9.22228222 30.4410328,6.66496625 29.634,4.366 Z" id="Path" stroke-linecap="square"></path>
        </g>
    </g>
</svg>