<?xml version="1.0" encoding="UTF-8"?>
<svg width="32px" height="32px" viewBox="0 0 32 32" version="1.1" xmlns="http://www.w3.org/2000/svg" xmlns:xlink="http://www.w3.org/1999/xlink">
    <!-- Generator: Sketch 55.2 (78181) - https://sketchapp.com -->
    <title>money-time</title>
    <desc>Created with Sketch.</desc>
    <g id="money-time" stroke="none" stroke-width="1" fill="none" fill-rule="evenodd">
        <g transform="translate(1.000000, 1.000000)" stroke="#000645" stroke-width="2">
            <polyline id="Path" stroke-linecap="square" points="13 7 13 13 7 13"></polyline>
            <path d="M18,19 L18,23 C18,24.657 20.686,26 24,26 C27.314,26 30,24.657 30,23 L30,19" id="Path"></path>
            <path d="M18,23 L18,27 C18,28.657 20.686,30 24,30 C27.314,30 30,28.657 30,27 L30,23" id="Path"></path>
            <ellipse id="Oval" stroke-linecap="square" cx="24" cy="19" rx="6" ry="3"></ellipse>
            <path d="M14,25.962 C13.67,25.987 13.336,26 13,26 C5.82,26 0,20.18 0,13 C0,5.82 5.82,0 13,0 C19.843,0 25.452,5.288 25.962,12" id="Path" stroke-linecap="square"></path>
        </g>
    </g>
</svg>