<?xml version="1.0" encoding="UTF-8"?>
<svg width="64px" height="64px" viewBox="0 0 64 64" version="1.1" xmlns="http://www.w3.org/2000/svg" xmlns:xlink="http://www.w3.org/1999/xlink">
    <!-- Generator: Sketch 54.1 (76490) - https://sketchapp.com -->
    <title>outbound-payments</title>
    <desc>Created with Sketch.</desc>
    <defs>
        <linearGradient x1="50%" y1="0%" x2="50%" y2="100%" id="linearGradient-1">
            <stop stop-color="#F7F5FF" offset="0%"></stop>
            <stop stop-color="#FFEFEA" offset="100%"></stop>
        </linearGradient>
    </defs>
    <g id="outbound-payments" stroke="none" stroke-width="1" fill="none" fill-rule="evenodd">
        <polygon id="Rectangle-Copy-210" fill="url(#linearGradient-1)" transform="translate(32.000000, 32.000000) scale(-1, 1) translate(-32.000000, -32.000000) " points="0 0 64 0 64 64 0 60"></polygon>
        <g id="sync-devices" transform="translate(17.000000, 17.000000)" stroke="#000645" stroke-linecap="square" stroke-width="2">
            <path d="M18,0 L18,0 C22.4128075,0.0131792044 25.9868208,3.58719254 26,8 L26,8" id="Path"></path>
            <path d="M4,22 L4,22 C4.0131792,26.4128075 7.58719254,29.9868208 12,30 L12,30" id="Path"></path>
            <path d="M11,18 L2,18 C0.896798134,17.9967052 0.00329480111,17.1032019 -8.8817842e-16,16 L-8.8817842e-16,2 C0.00329480111,0.896798134 0.896798134,0.00329480111 2,0 L11,0 C12.1032019,0.00329480111 12.9967052,0.896798134 13,2 L13,16 C12.9967052,17.1032019 12.1032019,17.9967052 11,18 Z" id="Path"></path>
            <path d="M28,30 L19,30 C17.8967981,29.9967052 17.0032948,29.1032019 17,28 L17,14 C17.0032948,12.8967981 17.8967981,12.0032948 19,12 L28,12 C29.1032019,12.0032948 29.9967052,12.8967981 30,14 L30,28 C29.9967052,29.1032019 29.1032019,29.9967052 28,30 L28,30 Z" id="Path"></path>
            <path d="M0,13 L13,13" id="Path"></path>
            <path d="M17,25 L30,25" id="Path"></path>
        </g>
    </g>
</svg>