<?xml version="1.0" encoding="UTF-8"?>
<svg width="64px" height="64px" viewBox="0 0 64 64" version="1.1" xmlns="http://www.w3.org/2000/svg" xmlns:xlink="http://www.w3.org/1999/xlink">
    <!-- Generator: Sketch 54.1 (76490) - https://sketchapp.com -->
    <title>secure-onboarding</title>
    <desc>Created with Sketch.</desc>
    <defs>
        <linearGradient x1="50%" y1="0%" x2="50%" y2="100%" id="linearGradient-1">
            <stop stop-color="#F7F5FF" offset="0%"></stop>
            <stop stop-color="#FFEFEA" offset="100%"></stop>
        </linearGradient>
    </defs>
    <g id="secure-onboarding" stroke="none" stroke-width="1" fill="none" fill-rule="evenodd">
        <polygon id="Rectangle-Copy-210" fill="url(#linearGradient-1)" transform="translate(32.000000, 32.000000) scale(-1, 1) translate(-32.000000, -32.000000) " points="0 0 64 0 64 64 0 60"></polygon>
        <g id="pin-2" transform="translate(18.000000, 18.000000)" stroke="#000645" stroke-width="2">
            <path d="M17,25 L22,25" id="Path"></path>
            <path d="M3,6 L3,11" id="Path"></path>
            <path d="M6,14 L11,14" id="Path"></path>
            <path d="M14,17 L14,22" id="Path"></path>
            <circle id="Oval" stroke-linecap="square" cx="3" cy="3" r="3"></circle>
            <circle id="Oval" stroke-linecap="square" cx="3" cy="14" r="3"></circle>
            <circle id="Oval" stroke-linecap="square" cx="14" cy="14" r="3"></circle>
            <circle id="Oval" stroke-linecap="square" cx="14" cy="25" r="3"></circle>
            <circle id="Oval" stroke-linecap="square" cx="25" cy="25" r="3"></circle>
            <circle id="Oval" stroke-linecap="square" cx="14" cy="3" r="3"></circle>
            <circle id="Oval" stroke-linecap="square" cx="25" cy="3" r="3"></circle>
            <circle id="Oval" stroke-linecap="square" cx="25" cy="14" r="3"></circle>
            <circle id="Oval" stroke-linecap="square" cx="3" cy="25" r="3"></circle>
        </g>
    </g>
</svg>