<svg width="17" height="17" viewBox="0 0 17 17" fill="none" xmlns="http://www.w3.org/2000/svg">
<path d="M15.8988 1.10146C14.4355 -0.365525 12.0557 -0.365525 10.5924 1.10146L0.86319 10.827C0.787124 10.9031 0.740036 11.0009 0.725547 11.1059L0.00473378 16.445C-0.0169993 16.5971 0.0373334 16.7493 0.142377 16.8543C0.232931 16.9449 0.359707 16.9992 0.486483 16.9992C0.508216 16.9992 0.529949 16.9992 0.551683 16.9956L3.76818 16.5609C4.03622 16.5247 4.22457 16.2784 4.18835 16.0103C4.15213 15.7423 3.90582 15.5539 3.63778 15.5902L2.52568 15.7401C1.78757 15.8396 1.15732 15.2091 1.25712 14.4711C1.3822 13.5461 2.51254 13.1646 3.17257 13.8246L5.48147 16.1335C5.57202 16.224 5.6988 16.2784 5.82557 16.2784C5.95235 16.2784 6.07912 16.2277 6.16968 16.1335L15.8988 6.40795C16.6088 5.698 17 4.75623 17 3.75289C17 2.74955 16.6088 1.80778 15.8988 1.10146ZM9.96391 3.11358C10.415 2.66247 11.1464 2.66247 11.5975 3.11358C12.0486 3.56468 12.0486 4.29607 11.5975 4.74718L4.35316 11.9915C3.90205 12.4426 3.17066 12.4426 2.71956 11.9915C2.26845 11.5404 2.26845 10.809 2.71956 10.3579L9.96391 3.11358ZM6.62789 14.2989C6.18678 14.74 5.47161 14.74 5.0305 14.2989C4.5894 13.8578 4.5894 13.1426 5.03051 12.7015L12.3111 5.4209C12.7522 4.9798 13.4674 4.9798 13.9085 5.4209C14.3496 5.86201 14.3496 6.57718 13.9085 7.01828L6.62789 14.2989ZM16.022 3.75289C16.022 4.78006 14.7596 4.89204 14.0333 4.16572L12.8345 2.96686C12.1082 2.2406 12.2203 0.978303 13.2474 0.978303C13.99 0.978303 14.6854 1.26808 15.2106 1.78967C15.7358 2.31126 16.022 3.01034 16.022 3.75289Z" fill="#506E91"/>
</svg>
