<svg width="20" height="20" viewBox="0 0 20 20" fill="none" xmlns="http://www.w3.org/2000/svg">
<g clip-path="url(#clip0)">
<circle cx="13.6562" cy="6.48089" r="1.5" transform="rotate(45 13.6562 6.48089)" stroke="#D94C53"/>
<path d="M8.66067 9.35532L3.65731 14.3587C3.38472 14.6313 3.19672 14.9768 3.11593 15.3538L2.77181 16.9595C2.70276 17.2817 2.80176 17.617 3.03478 17.85V17.85C3.41417 18.2294 4.02927 18.2294 4.40866 17.85L10.8098 11.4488" stroke="#D94C53" stroke-linecap="round" stroke-linejoin="round"/>
<path d="M8.69127 9.32286C7.76307 7.53382 8.09138 5.32793 9.59241 3.8269C11.4474 1.97191 14.4549 1.97191 16.3099 3.8269C18.1649 5.68189 18.1649 8.68942 16.3099 10.5444C14.8089 12.0454 12.6247 12.3955 10.8357 11.4673" stroke="#D94C53" stroke-linecap="round" stroke-linejoin="round"/>
</g>
<defs>
<clipPath id="clip0">
<rect width="20" height="20" fill="white"/>
</clipPath>
</defs>
</svg>
