<svg width="18" height="20" viewBox="0 0 18 20" fill="none" xmlns="http://www.w3.org/2000/svg">
<path d="M2.20357 5.95419V17.4942C2.20357 18.1762 2.45368 18.8168 2.8906 19.2764C3.3255 19.7373 3.93074 19.9989 4.56415 20H13.4261C14.0597 19.9989 14.6649 19.7373 15.0996 19.2764C15.5366 18.8168 15.7867 18.1762 15.7867 17.4942V5.95419C16.6552 5.72366 17.218 4.8846 17.1018 3.99339C16.9854 3.10236 16.2263 2.43583 15.3276 2.43565H12.9295V1.85017C12.9323 1.35782 12.7376 0.885049 12.3891 0.537238C12.0405 0.18961 11.567 -0.00396362 11.0747 6.15416e-05H6.91558C6.42323 -0.00396362 5.94972 0.18961 5.60118 0.537238C5.25264 0.885049 5.05796 1.35782 5.06071 1.85017V2.43565H2.66263C1.76392 2.43583 1.00481 3.10236 0.888443 3.99339C0.772263 4.8846 1.33505 5.72366 2.20357 5.95419ZM13.4261 19.0632H4.56415C3.76332 19.0632 3.14034 18.3753 3.14034 17.4942V5.99536H14.8499V17.4942C14.8499 18.3753 14.2269 19.0632 13.4261 19.0632ZM5.99747 1.85017C5.99436 1.60628 6.09024 1.37154 6.26332 1.19938C6.43622 1.02721 6.6715 0.932619 6.91558 0.936827H11.0747C11.3187 0.932619 11.554 1.02721 11.7269 1.19938C11.9 1.37136 11.9959 1.60628 11.9928 1.85017V2.43565H5.99747V1.85017ZM2.66263 3.37242H15.3276C15.7933 3.37242 16.1707 3.74987 16.1707 4.21551C16.1707 4.68114 15.7933 5.05859 15.3276 5.05859H2.66263C2.19699 5.05859 1.81954 4.68114 1.81954 4.21551C1.81954 3.74987 2.19699 3.37242 2.66263 3.37242Z" fill="#506E91"/>
</svg>
