<svg width="20" height="19" viewBox="0 0 20 19" fill="none" xmlns="http://www.w3.org/2000/svg">
<path d="M19.6845 12.2496L16.8199 13.9195C16.8121 13.9239 16.8039 13.9255 16.796 13.9296C16.7706 13.9431 16.7443 13.9525 16.7169 13.9625C16.6903 13.9723 16.6642 13.9823 16.6366 13.9883C16.6115 13.9939 16.5857 13.9958 16.5594 13.9983C16.5399 14.0002 16.5201 14.0059 16.5007 14.0059C16.4894 14.0059 16.479 14.0021 16.468 14.0015C16.4583 14.0012 16.4483 14.0037 16.4379 14.0027C16.4219 14.0012 16.4081 13.9946 16.3927 13.9917C16.3619 13.9864 16.3324 13.9801 16.3029 13.9701C16.2784 13.9622 16.2552 13.9525 16.2317 13.9415C16.2047 13.929 16.1789 13.9145 16.1538 13.8982C16.1318 13.8838 16.1108 13.8684 16.091 13.8514C16.0691 13.8326 16.049 13.8122 16.0289 13.7902C16.0101 13.7689 15.9928 13.7469 15.9768 13.723C15.9696 13.7114 15.9586 13.703 15.9517 13.6904C15.9463 13.6816 15.9467 13.6709 15.9419 13.6618C15.9325 13.6436 15.9193 13.6279 15.9112 13.6085L14.7714 10.7869C14.6402 10.4617 14.7972 10.0919 15.1227 9.96042C15.4476 9.83016 15.8176 9.98679 15.9492 10.3114L16.5346 11.76C16.9251 10.4539 16.8799 9.11166 16.8789 9.07462C16.8789 4.77116 13.3781 1.27001 9.0743 1.27001C4.77116 1.27001 1.27001 4.77116 1.27001 9.07462C1.27001 13.3778 4.77116 16.8792 9.0743 16.8792C9.42492 16.8792 9.70931 17.1636 9.70931 17.5139C9.70931 17.8645 9.42492 18.1489 9.0743 18.1489C4.07055 18.1489 0 14.0784 0 9.07462C0 4.07087 4.07055 0 9.0743 0C14.0781 0 18.1489 4.07118 18.1486 9.04919C18.1517 9.12798 18.1976 10.4463 17.8225 11.8654L19.0454 11.1526C19.3483 10.9755 19.7372 11.0785 19.9136 11.3814C20.09 11.6843 19.9877 12.0732 19.6845 12.2496Z" fill="#506E91"/>
</svg>
