<svg width="20" height="19" viewBox="0 0 20 19" fill="none" xmlns="http://www.w3.org/2000/svg">
<path d="M0.315521 12.2496L3.1801 13.9195C3.18795 13.9239 3.19611 13.9255 3.20395 13.9296C3.22938 13.9431 3.25575 13.9525 3.28306 13.9625C3.30974 13.9723 3.33579 13.9823 3.36341 13.9883C3.38852 13.9939 3.41426 13.9958 3.44063 13.9983C3.46009 14.0002 3.47987 14.0059 3.49933 14.0059C3.51063 14.0059 3.52099 14.0021 3.53197 14.0015C3.5417 14.0012 3.55175 14.0037 3.56211 14.0027C3.57811 14.0012 3.59193 13.9946 3.60731 13.9917C3.63807 13.9864 3.66757 13.9801 3.69708 13.9701C3.72156 13.9622 3.74479 13.9525 3.76833 13.9415C3.79533 13.929 3.82107 13.9145 3.84618 13.8982C3.86815 13.8838 3.88918 13.8684 3.90896 13.8514C3.93093 13.8326 3.95102 13.8122 3.97111 13.7902C3.98994 13.7689 4.0072 13.7469 4.02321 13.723C4.03043 13.7114 4.04142 13.703 4.04832 13.6904C4.05366 13.6816 4.05335 13.6709 4.05805 13.6618C4.06747 13.6436 4.08066 13.6279 4.08882 13.6085L5.22856 10.7869C5.35977 10.4617 5.20282 10.0919 4.87731 9.96042C4.55243 9.83016 4.18236 9.98679 4.05084 10.3114L3.46543 11.76C3.07495 10.4539 3.12015 9.11166 3.12109 9.07462C3.12109 4.77116 6.62192 1.27001 10.9257 1.27001C15.2288 1.27001 18.73 4.77116 18.73 9.07462C18.73 13.3778 15.2288 16.8792 10.9257 16.8792C10.5751 16.8792 10.2907 17.1636 10.2907 17.5139C10.2907 17.8645 10.5751 18.1489 10.9257 18.1489C15.9294 18.1489 20 14.0784 20 9.07462C20 4.07087 15.9294 0 10.9257 0C5.92195 0 1.85108 4.07118 1.85139 9.04919C1.84826 9.12798 1.80243 10.4463 2.17753 11.8654L0.954605 11.1526C0.6517 10.9755 0.262787 11.0785 0.0863802 11.3814C-0.0900271 11.6843 0.0123016 12.0732 0.315521 12.2496Z" fill="#506E91"/>
</svg>
