<svg width="6" height="8" viewBox="0 0 6 8" fill="none" xmlns="http://www.w3.org/2000/svg">
<path d="M3.73448 3.99831L0.708076 6.99122C0.624744 7.07343 0.578901 7.18335 0.578901 7.30055C0.578901 7.41782 0.624744 7.52767 0.708076 7.61002L0.973266 7.87213C1.05647 7.9546 1.16769 8 1.28621 8C1.40473 8 1.51581 7.9546 1.59908 7.87213L5.2025 4.30881C5.28609 4.22621 5.33187 4.11584 5.33154 3.9985C5.33187 3.88065 5.28616 3.77041 5.2025 3.68774L1.60244 0.12787C1.51917 0.0453984 1.40808 1.37648e-07 1.2895 1.27396e-07C1.17098 1.1715e-07 1.05989 0.0453983 0.976555 0.12787L0.711431 0.389984C0.538912 0.560586 0.538912 0.838309 0.711431 1.00885L3.73448 3.99831Z" fill="white"/>
</svg>
