<svg width="52" height="52" viewBox="0 0 52 52" fill="none" xmlns="http://www.w3.org/2000/svg">
<path d="M18.1331 17.5819C18.3558 17.8056 18.6936 17.8688 18.9822 17.7406L26.0001 14.6215L33.018 17.7405C33.1174 17.7848 33.2227 17.8062 33.3271 17.8061C33.5258 17.8061 33.7212 17.7284 33.8671 17.5818C34.09 17.3579 34.1515 17.0198 34.0219 16.7318L26.6947 0.449109C26.5717 0.175805 26.2998 0 26.0001 0C25.7004 0 25.4285 0.175805 25.3055 0.449109L17.9783 16.7319C17.8486 17.0199 17.9102 17.358 18.1331 17.5819ZM26.7618 13.2929V4.31062L31.8143 15.5386L26.7618 13.2929ZM25.2384 4.31062V13.2929L20.1859 15.5385L25.2384 4.31062Z" fill="#33475B"/>
<path d="M27.6808 18.6728V22.9007L24.167 18.2157C23.9703 17.9534 23.6277 17.8465 23.3167 17.9502C23.0056 18.0539 22.7959 18.3449 22.7959 18.6728V25.1859C22.7959 25.6066 23.1369 25.9476 23.5576 25.9476C23.9783 25.9476 24.3193 25.6066 24.3193 25.1859V20.9579L27.8331 25.6429C27.9798 25.8384 28.2074 25.9476 28.4426 25.9476C28.5229 25.9476 28.6042 25.9349 28.6834 25.9085C28.9945 25.8048 29.2042 25.5137 29.2042 25.1859V18.6728C29.2042 18.2521 28.8632 17.9111 28.4425 17.9111C28.0218 17.9111 27.6808 18.2521 27.6808 18.6728Z" fill="#33475B"/>
<path d="M31.7466 5.56711C39.781 7.822 45.7638 14.608 46.9886 22.8553C47.0447 23.2335 47.3698 23.5052 47.741 23.5052C47.7782 23.5052 47.816 23.5024 47.8539 23.4967C48.27 23.435 48.5573 23.0475 48.4954 22.6314C47.1826 13.7911 40.7699 6.51723 32.1582 4.10034C31.7534 3.9869 31.3327 4.22293 31.2189 4.62796C31.1053 5.03289 31.3415 5.45336 31.7466 5.56711Z" fill="#33475B"/>
<path d="M5.64657 26.7617C6.06724 26.7617 6.40829 26.4207 6.40829 26C6.40829 25.5793 6.06724 25.2383 5.64657 25.2383H4.79456C5.12627 15.9638 11.4894 7.91153 20.4981 5.50003C20.9044 5.39126 21.1456 4.97364 21.0369 4.56718C20.9282 4.16073 20.5103 3.91952 20.1041 4.02829C10.4304 6.61803 3.60293 15.2752 3.27041 25.2383H0.761719C0.341047 25.2383 0 25.5793 0 26C0 26.4207 0.341047 26.7617 0.761719 26.7617H5.64657Z" fill="#33475B"/>
<path d="M51.2383 25.2383H46.3535C45.9328 25.2383 45.5917 25.5793 45.5917 26C45.5917 26.4207 45.9328 26.7617 46.3535 26.7617H47.2049C46.8112 37.8579 37.858 46.8113 26.7618 47.2048V46.3534C26.7618 45.9328 26.4207 45.5917 26 45.5917C25.5794 45.5917 25.2383 45.9328 25.2383 46.3534V47.205C20.393 47.0313 15.7467 45.2057 12.0813 42.0178C8.26164 38.6958 5.75081 34.124 5.01133 29.1447C4.94958 28.7286 4.56181 28.4409 4.14602 28.5031C3.72992 28.5649 3.4427 28.9523 3.50445 29.3684C4.29724 34.7066 6.98814 39.6072 11.0815 43.1673C15.0242 46.5964 20.0254 48.5549 25.2383 48.7293V51.2383C25.2383 51.659 25.5794 52 26 52C26.4207 52 26.7618 51.659 26.7618 51.2383V48.7295C32.5511 48.5402 37.9665 46.1976 42.0821 42.082C46.1977 37.9665 48.5402 32.5511 48.7295 26.7617H51.2383C51.659 26.7617 52 26.4207 52 26C52 25.5793 51.659 25.2383 51.2383 25.2383Z" fill="#33475B"/>
</svg>
