<svg width="20" height="20" viewBox="0 0 20 20" fill="none" xmlns="http://www.w3.org/2000/svg">
<path fill-rule="evenodd" clip-rule="evenodd" d="M13 8C13 10.7614 10.7614 13 8 13C5.23858 13 3 10.7614 3 8C3 5.23858 5.23858 3 8 3C10.7614 3 13 5.23858 13 8ZM11.8556 12.5974C10.8129 13.4728 9.46803 14 8 14C4.68629 14 2 11.3137 2 8C2 4.68629 4.68629 2 8 2C11.3137 2 14 4.68629 14 8C14 9.48566 13.46 10.8452 12.5657 11.8931L17.8693 17.1254C18.0659 17.3193 18.0681 17.6359 17.8741 17.8325C17.6802 18.0291 17.3636 18.0312 17.167 17.8373L11.8556 12.5974Z" fill="#506E91"/>
</svg>
