<svg width="20" height="20" viewBox="0 0 20 20" fill="none" xmlns="http://www.w3.org/2000/svg">
<path d="M19.948 9.74533L19.8053 9.52932L17.1386 6.86265C16.8786 6.60263 16.4547 6.60263 16.196 6.86265C15.936 7.12267 15.936 7.54533 16.196 7.80531L17.724 9.33332H10.6667V2.27601L12.1947 3.80403C12.4533 4.06404 12.8773 4.06404 13.1373 3.80403C13.396 3.54401 13.396 3.12134 13.1373 2.86137L10.4707 0.194657L10.464 0.190671L10.2546 0.0520203L10 0H9.99732L9.74531 0.0520203L9.53597 0.190671L9.52796 0.194657L6.8613 2.86133C6.60128 3.12134 6.60128 3.54401 6.8613 3.80398C7.12131 4.06396 7.54398 4.064 7.80395 3.80398L9.3333 2.27597V9.33332H2.27601L3.80402 7.80531C4.06404 7.54529 4.06404 7.12263 3.80402 6.86265C3.544 6.60268 3.12134 6.60263 2.86136 6.86265L0.194656 9.52932L0.190671 9.53599L0.0520202 9.74533L0 10V10.0027L0.0520202 10.2547L0.190671 10.4627L0.194656 10.4707L2.86132 13.1374C3.12134 13.3974 3.544 13.3974 3.80398 13.1374C4.06399 12.8787 4.06399 12.4547 3.80398 12.1947L2.27601 10.6667H9.33335V17.724L7.80534 16.196C7.54532 15.9373 7.12266 15.9373 6.86268 16.196C6.60266 16.456 6.60266 16.88 6.86268 17.1387L9.52934 19.8053L9.74535 19.9493L9.99736 20H10L10.2547 19.948L10.4707 19.8053L13.1374 17.1386C13.396 16.8786 13.396 16.4546 13.1374 16.196C12.8773 15.936 12.4534 15.936 12.1947 16.196L10.6667 17.724V10.6667H17.724L16.196 12.1947C15.9374 12.4534 15.9374 12.8774 16.196 13.1373C16.456 13.396 16.88 13.396 17.1387 13.1373L19.8053 10.4707L19.9493 10.2547L20 10.0027V9.99998L19.948 9.74533Z" fill="#506E91"/>
</svg>
