<svg width="6" height="8" viewBox="0 0 6 8" fill="none" xmlns="http://www.w3.org/2000/svg">
<path d="M2.59041 4.00169L5.75132 1.00878C5.83836 0.926569 5.88624 0.81665 5.88624 0.699447C5.88624 0.582179 5.83836 0.472325 5.75132 0.389984L5.47435 0.12787C5.38745 0.0453984 5.27128 0 5.1475 0C5.02371 0 4.90768 0.0453984 4.82072 0.12787L1.05714 3.69119C0.969833 3.77379 0.922022 3.88416 0.922365 4.0015C0.922022 4.11935 0.969764 4.22959 1.05714 4.31226L4.81721 7.87213C4.90418 7.9546 5.02021 8 5.14406 8C5.26785 8 5.38387 7.9546 5.47091 7.87213L5.74782 7.61002C5.928 7.43941 5.928 7.16169 5.74782 6.99115L2.59041 4.00169Z" fill="#ED805D"/>
</svg>
