<svg width="20" height="20" viewBox="0 0 20 20" fill="none" xmlns="http://www.w3.org/2000/svg">
<g clip-path="url(#clip0)">
<circle cx="13.6563" cy="6.48089" r="1.5" transform="rotate(45 13.6563 6.48089)" stroke="#506E91"/>
<path d="M8.66024 9.35529L3.65688 14.3586C3.38429 14.6312 3.19629 14.9768 3.1155 15.3538L2.77139 16.9594C2.70233 17.2817 2.80133 17.6169 3.03436 17.8499V17.8499C3.41374 18.2293 4.02885 18.2293 4.40823 17.8499L10.8094 11.4488" stroke="#506E91" stroke-linecap="round" stroke-linejoin="round"/>
<path d="M8.69133 9.32283C7.76313 7.53379 8.09144 5.3279 9.59248 3.82687C11.4475 1.97188 14.455 1.97188 16.31 3.82687C18.165 5.68186 18.165 8.68939 16.31 10.5444C14.809 12.0454 12.6248 12.3954 10.8357 11.4672" stroke="#506E91" stroke-linecap="round" stroke-linejoin="round"/>
</g>
<defs>
<clipPath id="clip0">
<rect width="20" height="20" fill="white"/>
</clipPath>
</defs>
</svg>
