<svg width="18" height="18" viewBox="0 0 18 18" fill="none" xmlns="http://www.w3.org/2000/svg">
<path d="M9.00003 9.72693C8.01506 9.72693 7.21375 10.5282 7.21375 11.5132C7.21375 12.0017 7.41677 12.474 7.77125 12.8102V14.423C7.77125 15.1005 8.3225 15.6518 9.00006 15.6518C9.67763 15.6518 10.2289 15.1005 10.2289 14.423V12.8102C10.5832 12.4742 10.7863 12.0018 10.7863 11.5132C10.7863 10.5282 9.98492 9.72693 9.00003 9.72693ZM9.63206 12.1838C9.46152 12.3445 9.36372 12.5691 9.36372 12.8001V14.423C9.36372 14.6235 9.20059 14.7867 9.00003 14.7867C8.7995 14.7867 8.63634 14.6235 8.63634 14.423V12.8001C8.63634 12.5692 8.53853 12.3446 8.3681 12.1839C8.18152 12.008 8.0788 11.7699 8.0788 11.5132C8.0788 11.0053 8.49206 10.5921 8.99996 10.5921C9.50786 10.5921 9.92112 11.0053 9.92112 11.5132C9.92119 11.7699 9.81846 12.008 9.63206 12.1838Z" fill="#33475B"/>
<path d="M14.2375 7.37845H12.94V3.94003C12.94 1.76748 11.1725 0 9.00002 0C6.8275 0 5.06002 1.76748 5.06002 3.94003V7.37845H3.76244C3.0469 7.37845 2.46478 7.96061 2.46478 8.67611V16.7023C2.46478 17.4178 3.0469 18 3.76244 18H14.2375C14.9531 18 15.5352 17.4178 15.5352 16.7023V8.67614C15.5352 7.96061 14.9531 7.37845 14.2375 7.37845ZM5.92508 3.94003C5.92508 2.24455 7.30447 0.865125 8.99999 0.865125C10.6955 0.865125 12.0749 2.24455 12.0749 3.94003V7.37845H5.92508V3.94003ZM14.6701 16.7023C14.6701 16.9408 14.476 17.1349 14.2375 17.1349H3.76244C3.52394 17.1349 3.32987 16.9409 3.32987 16.7023V8.67614C3.32987 8.43764 3.52394 8.24358 3.76244 8.24358H14.2375C14.476 8.24358 14.6701 8.4376 14.6701 8.67614V16.7023Z" fill="#33475B"/>
</svg>
