<svg width="16" height="16" viewBox="0 0 16 16" fill="none" xmlns="http://www.w3.org/2000/svg">
<circle cx="8.00001" cy="8.0001" r="1.9" stroke="#506E91"/>
<path d="M9.15613 4.26272L9.16941 4.26656L9.1829 4.26965C10.08 4.47583 11.0205 5.06687 11.8714 5.77162C12.7138 6.46933 13.4254 7.24203 13.8645 7.75517C13.9953 7.90805 13.9945 8.12232 13.8629 8.27418C13.423 8.78171 12.7116 9.54466 11.8697 10.2352C11.0197 10.9325 10.0792 11.5203 9.18067 11.7312L9.16832 11.7341L9.15613 11.7376C8.79045 11.8432 8.40239 11.9001 7.99965 11.9001C7.5969 11.9001 7.20884 11.8432 6.84317 11.7376L6.83058 11.7339L6.81782 11.731C5.91148 11.5199 4.97013 10.9315 4.12284 10.2343C3.28344 9.54361 2.57743 8.78068 2.14203 8.2738C2.01234 8.12282 2.01168 7.91 2.14151 7.75757C2.57937 7.24348 3.29091 6.46726 4.13278 5.76771C4.98347 5.06082 5.92195 4.4707 6.81406 4.27019L6.82872 4.26689L6.84317 4.26272C7.20884 4.15709 7.5969 4.10015 7.99965 4.10015C8.40239 4.10015 8.79045 4.15709 9.15613 4.26272Z" stroke="#506E91"/>
</svg>
