<svg width="15" height="16" viewBox="0 0 15 16" fill="none" xmlns="http://www.w3.org/2000/svg">
    <g clip-path="url(#clip0)">
        <path d="M7.34783 0C3.29635 0 0 3.3699 0 7.51229C0 11.6547 3.29635 15.0246 7.34783 15.0246C11.3993 15.0246 14.6957 11.6547 14.6957 7.51229C14.6957 3.3699 11.3993 0 7.34783 0ZM7.34783 14.1C3.79487 14.1 0.904348 11.1448 0.904348 7.51229C0.904348 3.87981 3.79487 0.92459 7.34783 0.92459C10.9008 0.92459 13.7913 3.87981 13.7913 7.51229C13.7913 11.1448 10.9008 14.1 7.34783 14.1Z" fill="#ED805D" />
        <path d="M7.46488 5.29003C7.88255 5.29003 8.22114 4.94386 8.22114 4.51684C8.22114 4.08982 7.88255 3.74365 7.46488 3.74365C7.04721 3.74365 6.70862 4.08982 6.70862 4.51684C6.70862 4.94386 7.04721 5.29003 7.46488 5.29003Z" fill="#ED805D" />
        <path d="M7.26577 6.55127C7.01617 6.55127 6.8136 6.75838 6.8136 7.01356V10.9431C6.8136 11.1983 7.01617 11.4054 7.26577 11.4054C7.51537 11.4054 7.71795 11.1983 7.71795 10.9431V7.01356C7.71795 6.75815 7.51537 6.55127 7.26577 6.55127Z" fill="#ED805D" />
    </g>
    <defs>
        <clipPath id="clip0">
            <rect width="14.6957" height="15.0246" fill="white" />
        </clipPath>
    </defs>
</svg>
