<svg id="Icon_Circle" data-name="Icon Circle" xmlns="http://www.w3.org/2000/svg" xmlns:xlink="http://www.w3.org/1999/xlink" width="48" height="48" viewBox="0 0 48 48">
  <defs>
    <clipPath id="clip-path">
      <circle id="Oval" cx="24" cy="24" r="24" fill="#5488ff"/>
    </clipPath>
  </defs>
  <g id="Oval-2" data-name="Oval" opacity="0.15">
    <circle id="Oval-3" data-name="Oval" cx="24" cy="24" r="24" fill="#5488ff"/>
  </g>
  <g id="Element_Icon_Check" data-name="Element/Icon/Check" transform="translate(15 15)">
    <rect id="Element_Icon_Energy_background" data-name="Element/Icon/Energy background" width="19" height="19" fill="none"/>
    <path id="_Icon_color" data-name="🎨 Icon color" d="M4.785,16.625a.756.756,0,0,1-.729-.955l1.252-4.587H.755A.756.756,0,0,1,.1,9.949L5.642.377A.759.759,0,0,1,6.3,0h4.535a.756.756,0,0,1,.637,1.162L8.681,5.541h4.165a.756.756,0,0,1,.578,1.243L5.363,16.356A.754.754,0,0,1,4.785,16.625ZM6.733,1.511h0L2.065,9.572H6.3a.755.755,0,0,1,.729.954l-.608,2.233,4.8-5.706H7.3a.755.755,0,0,1-.638-1.161L9.455,1.511H6.733Z" transform="translate(2.376 1.188)" fill="#2e5bff"/>
  </g>
</svg>
