<svg id="Icon_Circle" data-name="Icon Circle" xmlns="http://www.w3.org/2000/svg" xmlns:xlink="http://www.w3.org/1999/xlink" width="48" height="48" viewBox="0 0 48 48">
  <defs>
    <clipPath id="clip-path">
      <circle id="Oval" cx="24" cy="24" r="24" fill="#ad86ff"/>
    </clipPath>
  </defs>
  <g id="Oval-2" data-name="Oval" opacity="0.15">
    <circle id="Oval-3" data-name="Oval" cx="24" cy="24" r="24" fill="#ad86ff"/>
  </g>
  <g id="My_Templates" data-name="My Templates" transform="translate(17 14)">
    <path id="Shape" d="M16.1,19.693H.519A.52.52,0,0,1,0,19.174V.519A.52.52,0,0,1,.519,0H16.1a.52.52,0,0,1,.519.519V19.174A.52.52,0,0,1,16.1,19.693ZM1.039,5.013V18.654H15.576V5.013Z" transform="translate(0.033)" fill="#8655f1"/>
    <path id="Path" d="M.26,2.285H10.644a.26.26,0,0,0,.26-.26V.26a.26.26,0,0,0-.26-.26H.26A.26.26,0,0,0,0,.26V2.025A.26.26,0,0,0,.26,2.285Z" transform="translate(2.889 6.835)" fill="#8655f1"/>
    <path id="Path-2" data-name="Path" d="M.26,5.452H4.984a.26.26,0,0,0,.26-.26V.26A.26.26,0,0,0,4.984,0H.26A.26.26,0,0,0,0,.26V5.192A.26.26,0,0,0,.26,5.452Z" transform="translate(2.889 11.3)" fill="#8655f1"/>
    <path id="Path-3" data-name="Path" d="M3.894,0H.26A.26.26,0,0,0,0,.26V1.765a.26.26,0,0,0,.26.26H3.894a.26.26,0,0,0,.26-.26V.26A.26.26,0,0,0,3.894,0Z" transform="translate(9.639 11.3)" fill="#8655f1"/>
    <path id="Path-4" data-name="Path" d="M3.894,0H.26A.26.26,0,0,0,0,.26V1.765a.26.26,0,0,0,.26.26H3.894a.26.26,0,0,0,.26-.26V.26A.26.26,0,0,0,3.894,0Z" transform="translate(9.639 14.659)" fill="#8655f1"/>
  </g>
</svg>
