<svg xmlns="http://www.w3.org/2000/svg" width="19" height="13" viewBox="0 0 19 13">
  <g id="Icon" transform="translate(19 0)">
    <path id="Shape" d="M-9.855,13a2.367,2.367,0,0,0,2.034-1.144c.008-.012.827-1.413,1.489-6.241l-.023.038a.446.446,0,0,0-.215-.485.454.454,0,0,0-.222-.058.48.48,0,0,0-.316.12l.023-.039c-3.9,2.929-4.765,4.319-4.8,4.377a2.225,2.225,0,0,0-.238,1.722,2.281,2.281,0,0,0,1.1,1.4A2.394,2.394,0,0,0-9.855,13ZM-7.429,6.62a17.609,17.609,0,0,1-1.2,4.778,1.423,1.423,0,0,1-1.222.688,1.434,1.434,0,0,1-.7-.184,1.368,1.368,0,0,1-.656-.833,1.325,1.325,0,0,1,.137-1.036A18.01,18.01,0,0,1-7.429,6.62Zm-11.077,4.54s.161,0,4.029-.016a.459.459,0,0,0,.453-.464.459.459,0,0,0-.453-.464h-3.595l-.009-.146v-.008c-.007-.1-.014-.205-.014-.31A8.72,8.72,0,0,1-9.5.929,8.721,8.721,0,0,1-.9,9.751c0,.105-.007.209-.014.31,0,.051-.007.1-.01.154H-4.523a.459.459,0,0,0-.453.464.459.459,0,0,0,.453.464l4.029.015a.46.46,0,0,0,.452-.465.017.017,0,0,0,0-.007.026.026,0,0,0,0-.015.02.02,0,0,1,0-.006c.03-.338.045-.638.045-.915A9.639,9.639,0,0,0-9.5,0,9.638,9.638,0,0,0-19,9.751c0,.289.015.588.045.915a.024.024,0,0,1,0,.007.02.02,0,0,0,0,.006l0,.008a.02.02,0,0,0,0,.008.459.459,0,0,0,.453.464Z" fill="#7c7c7c"/>
  </g>
</svg>
