<?xml version="1.0" encoding="UTF-8"?>
<svg width="15px" height="15px" viewBox="0 0 15 15" version="1.1" xmlns="http://www.w3.org/2000/svg" xmlns:xlink="http://www.w3.org/1999/xlink">
    <!-- Generator: Sketch 63.1 (92452) - https://sketch.com -->
    <title>configuration</title>
    <desc>Created with Sketch.</desc>
    <g id="Page-1" stroke="none" stroke-width="1" fill="none" fill-rule="evenodd">
        <g id="2-All-Cars" transform="translate(-1245.000000, -208.000000)" fill="#A2A2A2">
            <g id="Filter" transform="translate(1004.000000, 190.000000)">
                <g transform="translate(179.000000, 0.000000)" id="configuration">
                    <g transform="translate(62.000000, 18.000000)">
                        <path d="M7.51476669,3.38709688 C6.71311911,3.38709688 6.06315374,4.03706225 6.06315374,4.83870983 C6.06315374,5.64035741 6.71311911,6.29032278 7.51476669,6.29032278 C8.31653246,6.29032278 8.96637964,5.64035741 8.96637964,4.83870983 C8.96567085,4.0372985 8.31617807,3.38792382 7.51476669,3.38709688 L7.51476669,3.38709688 Z M7.51476654,5.80645153 C6.98033489,5.80645153 6.5470247,5.37314134 6.5470247,4.83870968 C6.5470247,4.30427803 6.98033489,3.87096784 7.51476654,3.87096784 C8.04931633,3.87096784 8.48250839,4.30427803 8.48250839,4.83870968 C8.48250839,5.37314134 8.04931633,5.80645153 7.51476654,5.80645153 L7.51476654,5.80645153 Z" id="Shape"></path>
                        <path d="M8.24057302,2.53087208 L8.24057302,0.241935477 C8.24057302,0.108327549 8.13236343,0 7.9986376,0 L7.03089547,0 C6.89728759,0 6.78896005,0.108327549 6.78896005,0.241935477 L6.78896005,2.53087208 C5.78128932,2.8479398 5.09576607,3.78224999 5.09576607,4.83870953 C5.09576607,5.89516908 5.78128932,6.82947949 6.78896005,7.14654744 L6.78896005,14.7580647 C6.78896005,14.8916727 6.89728759,15 7.03089547,15 L7.9986376,15 C8.13236343,15 8.24057302,14.8916727 8.24057302,14.7580647 L8.24057302,7.14654744 C9.24836184,6.82947949 9.9338851,5.89516908 9.9338851,4.83870953 C9.9338851,3.78224999 9.24836184,2.8479398 8.24057302,2.53087208 Z M7.27283096,0.483870953 L7.75670195,0.483870953 L7.75670195,2.4316406 C7.59592353,2.41522019 7.43372753,2.41522019 7.27283096,2.4316406 L7.27283096,0.483870953 Z M7.75670195,14.5161285 L7.27283096,14.5161285 L7.27283096,7.24577856 C7.43372753,7.26219899 7.59592353,7.26219899 7.75670195,7.24577856 L7.75670195,14.5161285 Z M7.51476634,6.77419376 C6.44590303,6.77419376 5.57928264,5.90769141 5.57928264,4.83870983 C5.57928264,3.76972826 6.44590303,2.9032259 7.51476634,2.9032259 C8.58374778,2.9032259 9.45025003,3.76972826 9.45025003,4.83870983 C9.4490687,5.90710074 8.58327525,6.77301244 7.51476634,6.77419376 Z" id="Shape"></path>
                        <path d="M12.5954118,7.74193525 C11.7937642,7.74193525 11.1437988,8.39190062 11.1437988,9.1935482 C11.1437988,9.99519578 11.7937642,10.6451612 12.5954118,10.6451612 C13.3971775,10.6451612 14.0470247,9.99519578 14.0470247,9.1935482 C14.0463159,8.39213687 13.3968232,7.74276219 12.5954118,7.74193525 Z M12.5954116,10.1612899 C12.06098,10.1612899 11.6276698,9.72797971 11.6276698,9.19354805 C11.6276698,8.6591164 12.06098,8.22580621 12.5954116,8.22580621 C13.1299614,8.22580621 13.5631535,8.6591164 13.5631535,9.19354805 C13.5631535,9.72797971 13.1299614,10.1612899 12.5954116,10.1612899 Z" id="Shape"></path>
                        <path d="M15.0147667,9.19354856 C15.0134672,8.13744307 14.3282984,7.20384166 13.3212183,6.88571066 L13.3212183,0.241935477 C13.3212183,0.108327549 13.2130089,0 13.0792829,0 L12.111541,0 C11.9779331,0 11.8696056,0.108327549 11.8696056,0.241935477 L11.8696056,6.88571066 C10.8619349,7.20277861 10.1764116,8.13708901 10.1764116,9.19354856 C10.1764116,10.2500081 10.8619349,11.1843181 11.8696056,11.5013865 L11.8696056,14.7580647 C11.8696056,14.8916727 11.9779331,15 12.111541,15 L13.0792829,15 C13.2130089,15 13.3212183,14.8916727 13.3212183,14.7580647 L13.3212183,11.5013865 C14.3282984,11.183255 15.0134672,10.2496532 15.0147667,9.19354856 L15.0147667,9.19354856 Z M12.3534765,0.483870953 L12.8373475,0.483870953 L12.8373475,6.78647944 C12.6765691,6.77005914 12.5143731,6.77005914 12.3534765,6.78647944 L12.3534765,0.483870953 Z M12.8373475,14.5161285 L12.3534765,14.5161285 L12.3534765,11.6006174 C12.5143731,11.6170378 12.6765691,11.6170378 12.8373475,11.6006174 L12.8373475,14.5161285 Z M12.5954119,11.1290321 C11.5265486,11.1290321 10.6599282,10.2625299 10.6599282,9.19354844 C10.6599282,8.124567 11.5265486,7.25806475 12.5954119,7.25806475 C13.6643933,7.25806475 14.5308956,8.124567 14.5308956,9.19354844 C14.5297143,10.2619392 13.6639208,11.1278508 12.5954119,11.1290321 Z" id="Shape"></path>
                        <path d="M2.43412143,9.67741966 C1.63247385,9.67741966 0.982508481,10.327385 0.982508481,11.1290326 C0.982508481,11.9306802 1.63247385,12.5806456 2.43412143,12.5806456 C3.2358872,12.5806456 3.88573438,11.9306802 3.88573438,11.1290326 C3.88502558,10.3276213 3.2355328,9.6782466 2.43412143,9.67741966 Z M2.43412128,12.0967743 C1.89968963,12.0967743 1.46637943,11.6634641 1.46637943,11.1290325 C1.46637943,10.5946008 1.89968963,10.1612906 2.43412128,10.1612906 C2.96867107,10.1612906 3.40186313,10.5946008 3.40186313,11.1290325 C3.40186313,11.6634641 2.96867107,12.0967743 2.43412128,12.0967743 Z" id="Shape"></path>
                        <path d="M3.15992792,8.82119447 L3.15992792,0.241935477 C3.15992792,0.108327549 3.05171833,0 2.9179925,0 L1.95025037,0 C1.81664249,0 1.70831495,0.108327549 1.70831495,0.241935477 L1.70831495,8.82119447 C0.700644222,9.13826197 0.0151209673,10.0725728 0.0151209673,11.1290324 C0.0151209673,12.1854919 0.700644222,13.1198019 1.70831495,13.4368703 L1.70831495,14.7580647 C1.70831495,14.8916727 1.81664249,15 1.95025037,15 L2.9179925,15 C3.05171833,15 3.15992792,14.8916727 3.15992792,14.7580647 L3.15992792,13.4368703 C4.16771674,13.1198019 4.85324,12.1854919 4.85324,11.1290324 C4.85324,10.0725728 4.16771674,9.13826197 3.15992792,8.82119447 Z M2.19218586,0.483870953 L2.67605685,0.483870953 L2.67605685,8.72196338 C2.51527843,8.70554289 2.35308243,8.70554289 2.19218586,8.72196338 L2.19218586,0.483870953 Z M2.67605685,14.5161295 L2.19218586,14.5161295 L2.19218586,13.5361013 C2.35308243,13.5525218 2.51527843,13.5525218 2.67605685,13.5361013 L2.67605685,14.5161295 Z M2.43412124,13.0645161 C1.36525793,13.0645161 0.498637541,12.1980137 0.498637541,11.1290321 C0.498637541,10.0600506 1.36525793,9.1935482 2.43412124,9.1935482 C3.50310268,9.1935482 4.36960493,10.0600506 4.36960493,11.1290321 C4.3684236,12.197423 3.50263015,13.0633347 2.43412124,13.0645161 Z" id="Shape"></path>
                    </g>
                </g>
            </g>
        </g>
    </g>
</svg>