<?xml version="1.0" encoding="UTF-8"?>
<svg width="14px" height="18px" viewBox="0 0 14 18" version="1.1" xmlns="http://www.w3.org/2000/svg" xmlns:xlink="http://www.w3.org/1999/xlink">
    <!-- Generator: Sketch 63.1 (92452) - https://sketch.com -->
    <title>Shape</title>
    <desc>Created with Sketch.</desc>
    <g id="Page-1" stroke="none" stroke-width="1" fill="none" fill-rule="evenodd">
        <g id="11-AUCTION-Seller---Counter-Bid-Made" transform="translate(-384.000000, -794.000000)" fill="#919191" fill-rule="nonzero">
            <g id="Car's-Details" transform="translate(160.000000, 182.000000)">
                <g id="Location" transform="translate(224.000000, 612.000000)">
                    <g id="pin">
                        <path d="M6.5390625,0 C2.94451172,0 0.0201445312,2.92436719 0.0201445312,6.51888281 C0.0201445312,10.9797891 5.8539375,17.5286602 6.10231641,17.8052695 C6.33561328,18.0651094 6.74293359,18.0646523 6.97580859,17.8052695 C7.2241875,17.5286602 13.0579805,10.9797891 13.0579805,6.51888281 C13.0579805,2.92436719 10.1335781,0 6.5390625,0 Z M6.5390625,9.79871484 C4.73055469,9.79871484 3.25926562,8.32739062 3.25926562,6.51888281 C3.25926562,4.710375 4.73058984,3.23908594 6.5390625,3.23908594 C8.34753516,3.23908594 9.81882422,4.71041016 9.81882422,6.51891797 C9.81882422,8.32742578 8.34753516,9.79871484 6.5390625,9.79871484 Z" id="Shape"></path>
                    </g>
                </g>
            </g>
        </g>
    </g>
</svg>