<?xml version="1.0" encoding="UTF-8"?>
<svg width="40px" height="40px" viewBox="0 0 40 40" version="1.1" xmlns="http://www.w3.org/2000/svg" xmlns:xlink="http://www.w3.org/1999/xlink">
    <!-- Generator: Sketch 63.1 (92452) - https://sketch.com -->
    <title>Icon</title>
    <desc>Created with Sketch.</desc>
    <g id="Page-1" stroke="none" stroke-width="1" fill="none" fill-rule="evenodd">
        <g id="Pricing-Page" transform="translate(-554.000000, -1326.000000)" fill-rule="nonzero">
            <g id="How-do-auctions-work?" transform="translate(163.000000, 1191.000000)">
                <g id="#2" transform="translate(293.000000, 105.000000)">
                    <g id="Icon" transform="translate(98.000000, 30.000000)">
                        <path d="M35.1612903,23.8709677 L34.8387097,23.8709677 L34.8387097,22.5806452 C34.8387097,21.5135484 33.9703226,20.6451613 32.9032258,20.6451613 C31.836129,20.6451613 30.9677419,21.5135484 30.9677419,22.5806452 L17.4193548,22.5806452 L17.4193548,21.2903226 L17.4025806,21.2903226 C18.6464516,20.3593548 19.5483871,18.9954839 19.8696774,17.4193548 L20,17.4193548 C21.4232258,17.4193548 22.5806452,16.2619355 22.5806452,14.8387097 C22.5806452,14.1896774 22.3322581,13.6032258 21.9354839,13.1496774 L21.9354839,10.9677419 C21.9354839,6.34322581 18.1729032,2.58064516 13.5483871,2.58064516 C8.92387097,2.58064516 5.16129032,6.34322581 5.16129032,10.9677419 L5.16129032,13.1496774 C4.76451613,13.6032258 4.51612903,14.1896774 4.51612903,14.8387097 C4.51612903,16.2619355 5.67354839,17.4193548 7.09677419,17.4193548 L7.22709677,17.4193548 C7.5483871,18.9954839 8.45032258,20.3593548 9.69419355,21.2903226 L9.67741935,21.2903226 L9.67741935,22.5806452 L6.4516129,22.5806452 C2.89419355,22.5806452 0,25.4748387 0,29.0322581 L0,39.3548387 C0,39.7116129 0.288387097,40 0.64516129,40 L22.5806452,40 C22.9374194,40 23.2258065,39.7116129 23.2258065,39.3548387 L23.2258065,29.6774194 L31.6129032,29.6774194 L35.1612903,29.6774194 C36.7619355,29.6774194 38.0645161,28.3748387 38.0645161,26.7741935 C38.0645161,25.1735484 36.7619355,23.8709677 35.1612903,23.8709677 Z M10.02,23.8709677 L12.5309677,26.883871 L10.0541935,28.1219355 L8.63677419,23.8709677 L10.02,23.8709677 Z M13.4632258,30.9677419 L13.6341935,30.9677419 L14.74,38.7096774 L12.3574194,38.7096774 L13.4632258,30.9677419 Z M13.7948387,29.6774194 L13.3019355,29.6774194 L12.6077419,28.2883871 L13.5483871,27.8180645 L14.4890323,28.2883871 L13.7948387,29.6774194 Z M14.5658065,26.883871 L17.0767742,23.8709677 L18.46,23.8709677 L17.0425806,28.1225806 L14.5658065,26.883871 Z M20,16.1290323 L20,13.5483871 C20.7116129,13.5483871 21.2903226,14.1270968 21.2903226,14.8387097 C21.2903226,15.5503226 20.7116129,16.1290323 20,16.1290323 Z M5.80645161,14.8387097 C5.80645161,14.1270968 6.38516129,13.5483871 7.09677419,13.5483871 L7.09677419,16.1290323 C6.38516129,16.1290323 5.80645161,15.5503226 5.80645161,14.8387097 Z M7.09677419,12.2580645 C6.87290323,12.2580645 6.65935484,12.2954839 6.4516129,12.3496774 L6.4516129,10.9677419 C6.4516129,7.05483871 9.63548387,3.87096774 13.5483871,3.87096774 C17.4612903,3.87096774 20.6451613,7.05483871 20.6451613,10.9677419 L20.6451613,12.3496774 C20.4374194,12.2954839 20.223871,12.2580645 20,12.2580645 C20,11.9012903 19.7116129,11.6129032 19.3548387,11.6129032 C18.3451613,11.6129032 17.38,11.1303226 16.7741935,10.3219355 L16,9.28967742 C15.7567742,8.96580645 15.2109677,8.96580645 14.9677419,9.28967742 L14.1935484,10.3225806 C13.5877419,11.1303226 12.6225806,11.6129032 11.6129032,11.6129032 L7.74193548,11.6129032 C7.38516129,11.6129032 7.09677419,11.9012903 7.09677419,12.2580645 Z M8.38709677,16.1290323 L8.38709677,12.9032258 L11.6129032,12.9032258 C13.0264516,12.9032258 14.3774194,12.2277419 15.2258065,11.0967742 L15.483871,10.7522581 L15.7419355,11.096129 C16.46,12.0535484 17.5374194,12.6851613 18.7096774,12.856129 L18.7096774,16.1290323 C18.7096774,18.9748387 16.3941935,21.2903226 13.5483871,21.2903226 C10.7025806,21.2903226 8.38709677,18.9748387 8.38709677,16.1290323 Z M13.5483871,22.5806452 C14.4658065,22.5806452 15.3380645,22.3851613 16.1290323,22.0380645 L16.1290323,22.9922581 L13.5483871,26.0890323 L10.9677419,22.9922581 L10.9677419,22.0380645 C11.7587097,22.3851613 12.6309677,22.5806452 13.5483871,22.5806452 Z M1.29032258,29.0322581 C1.29032258,26.1864516 3.60580645,23.8709677 6.4516129,23.8709677 L7.27741935,23.8709677 L9.06580645,29.236129 C9.12451613,29.4129032 9.25806452,29.556129 9.43032258,29.6277419 C9.50967742,29.6612903 9.59354839,29.6774194 9.67741935,29.6774194 C9.77612903,29.6774194 9.87548387,29.6548387 9.96580645,29.6096774 L11.4529032,28.8658065 L12.2354839,30.4309677 L11.0529032,38.7096774 L5.16129032,38.7096774 L5.16129032,29.6774194 L3.87096774,29.6774194 L3.87096774,38.7096774 L1.29032258,38.7096774 L1.29032258,29.0322581 Z M30.9677419,28.3870968 L23.2258065,28.3870968 L23.2258065,26.4516129 L21.9354839,26.4516129 L21.9354839,38.7096774 L16.043871,38.7096774 L14.8612903,30.4309677 L15.643871,28.8658065 L17.1309677,29.6096774 C17.2212903,29.6548387 17.3206452,29.6774194 17.4193548,29.6774194 C17.5032258,29.6774194 17.5870968,29.6612903 17.6664516,29.6283871 C17.8393548,29.5567742 17.9729032,29.4135484 18.0309677,29.2367742 L19.8193548,23.8709677 L30.9677419,23.8709677 L30.9677419,24.516129 L30.9677419,28.3870968 Z M35.1612903,28.3870968 L32.2580645,28.3870968 L32.2580645,24.516129 L32.2580645,23.2258065 L32.2580645,22.5806452 C32.2580645,22.2245161 32.5470968,21.9354839 32.9032258,21.9354839 C33.2593548,21.9354839 33.5483871,22.2245161 33.5483871,22.5806452 L33.5483871,24.516129 C33.5483871,24.8729032 33.8367742,25.1612903 34.1935484,25.1612903 L35.1612903,25.1612903 C36.0509677,25.1612903 36.7741935,25.8845161 36.7741935,26.7741935 C36.7741935,27.663871 36.0509677,28.3870968 35.1612903,28.3870968 Z" id="Shape" fill="#454545"></path>
                        <path d="M31.6129032,16.7741935 C36.2374194,16.7741935 40,13.0116129 40,8.38709677 C40,3.76258065 36.2374194,0 31.6129032,0 C26.9883871,0 23.2258065,3.76258065 23.2258065,8.38709677 C23.2258065,13.0116129 26.9883871,16.7741935 31.6129032,16.7741935 Z M31.6129032,1.29032258 C35.5258065,1.29032258 38.7096774,4.47419355 38.7096774,8.38709677 C38.7096774,12.3 35.5258065,15.483871 31.6129032,15.483871 C27.7,15.483871 24.516129,12.3 24.516129,8.38709677 C24.516129,4.47419355 27.7,1.29032258 31.6129032,1.29032258 Z" id="Shape" fill="#49BE65"></path>
                        <path d="M30.3225806,11.6129032 C30.4877419,11.6129032 30.6529032,11.5496774 30.7787097,11.423871 L35.94,6.26258065 L35.0277419,5.35032258 L30.3225806,10.0554839 L28.1980645,7.93096774 L27.2858065,8.84322581 L29.8664516,11.423871 C29.9922581,11.5496774 30.1574194,11.6129032 30.3225806,11.6129032 Z" id="Path" fill="#49BE65"></path>
                    </g>
                </g>
            </g>
        </g>
    </g>
</svg>