<?xml version="1.0" encoding="UTF-8"?>
<svg width="18px" height="20px" viewBox="0 0 18 20" version="1.1" xmlns="http://www.w3.org/2000/svg" xmlns:xlink="http://www.w3.org/1999/xlink">
    <!-- Generator: Sketch 63.1 (92452) - https://sketch.com -->
    <title>Share</title>
    <desc>Created with Sketch.</desc>
    <g id="Page-1" stroke="none" stroke-width="1" fill="none" fill-rule="evenodd" opacity="0.965750558">
        <g id="11-AUCTION-Seller---Counter-Bid-Made" transform="translate(-666.000000, -794.000000)" fill="#C3C3C3" fill-rule="nonzero">
            <g id="Car's-Details" transform="translate(160.000000, 182.000000)">
                <g id="Share" transform="translate(506.000000, 612.000000)">
                    <path d="M17.4375,3.23429972 C17.4375,4.70996894 16.2413358,5.90625 14.765625,5.90625 C13.2899142,5.90625 12.09375,4.70996894 12.09375,3.23429972 C12.09375,1.75878106 13.2899142,0.5625 14.765625,0.5625 C16.2413358,0.5625 17.4375,1.75878106 17.4375,3.23429972 L17.4375,3.23429972 Z" id="Path"></path>
                    <path d="M14.765625,6.46875 C12.9817957,6.46875 11.53125,5.01808938 11.53125,3.23430096 C11.53125,1.45066062 12.9817957,0 14.765625,0 C16.5494543,0 18,1.45066062 18,3.23430096 C18,5.01808938 16.5494543,6.46875 14.765625,6.46875 Z M14.765625,1.21288137 C13.6505836,1.21288137 12.7441591,2.12017349 12.7441591,3.23430096 C12.7441591,4.34857651 13.6505836,5.25586863 14.765625,5.25586863 C15.8806664,5.25586863 16.7870909,4.34857651 16.7870909,3.23430096 C16.7870909,2.12017349 15.8806664,1.21288137 14.765625,1.21288137 Z" id="Shape"></path>
                    <path d="M17.4375,16.4532003 C17.4375,17.9287189 16.2413358,19.125 14.765625,19.125 C13.2899142,19.125 12.09375,17.9287189 12.09375,16.4532003 C12.09375,14.9775311 13.2899142,13.78125 14.765625,13.78125 C16.2413358,13.78125 17.4375,14.9775311 17.4375,16.4532003 L17.4375,16.4532003 Z" id="Path"></path>
                    <path d="M14.765625,19.6875 C12.9817957,19.6875 11.53125,18.2368394 11.53125,16.453199 C11.53125,14.6694106 12.9817957,13.21875 14.765625,13.21875 C16.5494543,13.21875 18,14.6694106 18,16.453199 C18,18.2368394 16.5494543,19.6875 14.765625,19.6875 Z M14.765625,14.4316314 C13.6505836,14.4316314 12.7441591,15.3389235 12.7441591,16.453199 C12.7441591,17.5673265 13.6505836,18.4746186 14.765625,18.4746186 C15.8806664,18.4746186 16.7870909,17.5673265 16.7870909,16.453199 C16.7870909,15.3389235 15.8806664,14.4316314 14.765625,14.4316314 L14.765625,14.4316314 Z" id="Shape"></path>
                    <path d="M5.90625,9.984375 C5.90625,11.4600858 4.70996894,12.65625 3.23429972,12.65625 C1.75878106,12.65625 0.5625,11.4600858 0.5625,9.984375 C0.5625,8.50866421 1.75878106,7.3125 3.23429972,7.3125 C4.70996894,7.3125 5.90625,8.50866421 5.90625,9.984375 Z" id="Path"></path>
                    <path d="M3.23430096,13.21875 C1.45066062,13.21875 0,11.7682043 0,9.984375 C0,8.20054574 1.45066062,6.75 3.23430096,6.75 C5.01808938,6.75 6.46875,8.20054574 6.46875,9.984375 C6.46875,11.7682043 5.01808938,13.21875 3.23430096,13.21875 Z M3.23430096,7.96290914 C2.11928513,7.96290914 1.21288137,8.87007394 1.21288137,9.984375 C1.21288137,11.0986761 2.11928513,12.0058409 3.23430096,12.0058409 C4.34946483,12.0058409 5.25586863,11.0986761 5.25586863,9.984375 C5.25586863,8.87007394 4.34946483,7.96290914 3.23430096,7.96290914 Z" id="Shape"></path>
                    <path d="M5.32371047,9.5625 C5.03727615,9.5625 4.75912896,9.41580809 4.60769998,9.15342382 C4.38304264,8.76540959 4.52136287,8.27045414 4.91553026,8.04841389 L12.5510167,3.76334847 C12.9451841,3.54056662 13.4479886,3.67672756 13.67355,4.06622504 C13.8982074,4.45423927 13.7598871,4.94919472 13.3657197,5.17123497 L5.73008258,9.45630039 C5.60170696,9.52838558 5.46188,9.5625 5.32371047,9.5625 Z" id="Path"></path>
                    <path d="M12.957646,16.03125 C12.8193247,16.03125 12.6794966,15.9971347 12.5511199,15.9250475 L4.91542039,11.6398666 C4.52124978,11.4187103 4.38307912,10.9237415 4.60773826,10.5348269 C4.8314934,10.1460606 5.33505538,10.0091543 5.73013007,10.2319422 L13.3658296,14.5171231 C13.7600002,14.7382794 13.8981709,15.2332482 13.6735117,15.6221628 C13.5213281,15.8845541 13.2431787,16.03125 12.957646,16.03125 L12.957646,16.03125 Z" id="Path"></path>
                </g>
            </g>
        </g>
    </g>
</svg>