<?xml version="1.0" encoding="UTF-8"?>
<svg width="15px" height="15px" viewBox="0 0 15 15" version="1.1" xmlns="http://www.w3.org/2000/svg" xmlns:xlink="http://www.w3.org/1999/xlink">
    <!-- Generator: Sketch 63.1 (92452) - https://sketch.com -->
    <title>Icon</title>
    <desc>Created with Sketch.</desc>
    <g id="Page-1" stroke="none" stroke-width="1" fill="none" fill-rule="evenodd">
        <g id="1-Homepage" transform="translate(-188.000000, -1385.000000)" fill="#7C7C7C">
            <g id="Available-Cars" transform="translate(165.000000, 966.000000)">
                <g id="1" transform="translate(0.000000, 81.000000)">
                    <g id="Details" transform="translate(23.000000, 336.000000)">
                        <g id="Seller">
                            <g id="Icon" transform="translate(0.000000, 2.000000)">
                                <path d="M7.5,15 C3.35785724,15 0,11.6421425 0,7.5 C0,3.35785724 3.35785724,0 7.5,0 C11.6421425,0 15,3.35785724 15,7.5 C15,11.6421425 11.6421425,15 7.5,15 Z M11.6546428,12.8571426 C11.5985712,12.7746428 11.5278571,12.6721425 11.4710713,12.5921424 C11.3721429,12.4514281 11.2732145,12.3107139 11.1846427,12.1714283 C11.1803569,12.1649995 10.6910715,11.5085713 8.92857124,11.4285712 C8.31535702,11.4285712 7.86964307,10.9685714 7.86857125,10.3335711 L7.85714286,9.99999986 C7.85714286,9.95178562 7.85142866,10.0528566 7.85714286,9.99999986 L7.85714286,9.64285669 L8.21428549,9.28571418 C8.47535707,9.16464274 8.80714266,8.96107151 9.06964266,8.76285676 L9.11785699,8.72964257 C9.32535715,8.59785686 9.61535732,8.32035706 9.642857,8.21428561 L9.65571432,8.07821418 C9.78892841,7.39142821 10.0000001,6.14214279 10.0000001,5.71428561 C10.0000001,4.0321427 9.1821426,3.21428561 7.50000023,3.21428561 C5.79464296,3.21428561 5.00000008,4.00857134 5.00000008,5.71428561 C5.00000008,6.15357109 5.21107143,7.39678535 5.34392853,8.07714249 L5.35642862,8.20285704 C5.37892856,8.31464258 5.64178579,8.57928538 5.87392853,8.72499979 L5.90892867,8.74714269 C6.19035706,8.94392841 6.52678578,9.16321404 6.78571422,9.28571418 L7.1428571,9.64285669 L7.1428571,9.99999986 C7.14785709,10.0492851 7.1428571,9.94785718 7.1428571,9.99999986 L7.13107135,10.3335711 C7.13107135,10.9674997 6.68607136,11.4278565 6.10142863,11.4278565 C6.10107152,11.4278565 6.10071441,11.4278565 6.10035706,11.4278565 C4.33035715,11.4996427 3.81714289,12.1696426 3.81642859,12.1696426 C3.72642859,12.3110709 3.62785718,12.4514281 3.52821432,12.5924994 C3.47214289,12.6724995 3.4014286,12.7746428 3.34500003,12.8571426 C4.49392857,13.7492855 5.93249993,14.2857139 7.49964287,14.2857139 C9.06678581,14.2857139 10.5057144,13.7492855 11.6546428,12.8571426 Z M7.49999988,0.714285731 C3.75249987,0.714285731 0.714285731,3.75250009 0.714285731,7.49999982 C0.714285731,9.42357152 1.51785716,11.1560718 2.8035714,12.3907145 C2.94000003,12.1889286 3.08571426,11.9875005 3.21428573,11.7857146 C3.21428573,11.7857146 3.81071421,10.8060716 6.07142867,10.7142857 C6.30178568,10.7142857 6.41678581,10.5635715 6.41678581,10.3335717 L6.41714295,10.3335717 C6.41678581,10.1475001 6.41678581,10.0000005 6.41678581,10.0000005 C6.41678581,9.9535717 6.4092855,9.9117857 6.40714267,9.86678571 C6.14857134,9.74464308 5.84857117,9.57607164 5.50035692,9.33321451 C5.50035692,9.33321451 4.6432142,8.80607129 4.6432142,8.21428573 C4.6432142,8.21428573 4.2860715,6.38714302 4.2860715,5.71428573 C4.2860715,4.05571446 4.99535696,2.49999999 7.50035742,2.49999999 C9.97178567,2.49999999 10.7146429,4.05571446 10.7146429,5.71428573 C10.7146429,6.37071432 10.3574998,8.21428573 10.3574998,8.21428573 C10.3574998,8.78964293 9.50035671,9.33321451 9.50035671,9.33321451 C9.15928523,9.59071414 8.85714303,9.76250026 8.59214241,9.88535765 C8.59035712,9.924286 8.58392863,9.96000037 8.58392863,10.0000005 C8.58392863,10.0000005 8.58357109,10.1475001 8.58357109,10.3335717 L8.58392863,10.3335717 C8.58321435,10.5635715 8.69821449,10.7142857 8.92857149,10.7142857 C11.2228567,10.817143 11.7857139,11.7857146 11.7857139,11.7857146 C11.9142853,11.9875005 12.0596426,12.1889286 12.196071,12.3907145 C13.4817857,11.1560718 14.285714,9.42357152 14.285714,7.49999982 C14.285714,3.75250009 11.2474997,0.714285731 7.49999988,0.714285731 Z" id="Shape"></path>
                            </g>
                        </g>
                    </g>
                </g>
            </g>
        </g>
    </g>
</svg>