<svg id="Illustration" xmlns="http://www.w3.org/2000/svg" width="71" height="75" viewBox="0 0 71 75">
  <path id="Fill_3" data-name="Fill 3" d="M31.319.249.287,29.451a.925.925,0,0,0-.02,1.321L5.225,35.73a.92.92,0,0,0,1.321-.02l29.2-31.029A.922.922,0,0,0,35.73,3.4L32.6.269a.922.922,0,0,0-1.281-.02" transform="translate(0 28)" fill="#454545"/>
  <path id="Fill_4" data-name="Fill 4" d="M41.753.286A1.035,1.035,0,0,0,41.037,0H9.964a1.041,1.041,0,0,0-.716.286.969.969,0,0,0-.3.692V4.32H5.4V7.66H0V11H51V7.66H45.6V4.32H42.05V.978a.957.957,0,0,0-.3-.692" transform="translate(20 64)" fill="#454545"/>
  <path id="Fill_5" data-name="Fill 5" d="M0,12.837,18.164,31,30.6,18.56a3.818,3.818,0,0,1,.4-.325L12.766,0a3.778,3.778,0,0,1-.324.4L0,12.837" transform="translate(27 6)" fill="#454545"/>
  <path id="Fill_6" data-name="Fill 6" d="M13.948.777a3.768,3.768,0,0,0-.392.321L1.28,13.38l-.174.173A3.776,3.776,0,0,0,6.444,18.9L18.894,6.438A3.767,3.767,0,0,0,13.948.777" transform="translate(44 24)" fill="#fcb017"/>
  <path id="Fill_7" data-name="Fill 7" d="M13.561,1.106,1.106,13.556A3.776,3.776,0,0,0,6.446,18.9l.172-.175L18.9,6.443a3.729,3.729,0,0,0,.32-.391,3.767,3.767,0,0,0-5.661-4.946" transform="translate(20)" fill="#fcb017"/>
</svg>
