<svg id="Podium" xmlns="http://www.w3.org/2000/svg" width="492" height="141" viewBox="0 0 492 141">
  <path id="Fill_53" data-name="Fill 53" d="M0,120H194V0H0Z" transform="translate(150)" fill="#eca945"/>
  <path id="Fill_54" data-name="Fill 54" d="M0,85H119V0H0Z" transform="translate(31 35)" fill="#e67d34"/>
  <path id="Fill_55" data-name="Fill 55" d="M0,55H118V0H0Z" transform="translate(344 65)" fill="#e67d34"/>
  <path id="Fill_56" data-name="Fill 56" d="M0,11H459V0H0Z" transform="translate(17 120)" fill="#5b3a20"/>
  <path id="Fill_57" data-name="Fill 57" d="M0,11H492V0H0Z" transform="translate(0 130)" fill="#482d1c"/>
  <path id="Fill_58" data-name="Fill 58" d="M0,85H22V0H0Z" transform="translate(126 35)" fill="#bc5e2e"/>
  <path id="Fill_59" data-name="Fill 59" d="M0,55H22V0H0Z" transform="translate(344 65)" fill="#bc5e2e"/>
  <path id="Fill_60" data-name="Fill 60" d="M17.851,0h3.87V58.937q0,4.172.542,5.369a3.652,3.652,0,0,0,1.779,1.808,12.891,12.891,0,0,0,4.9.609H34V71H0V66.723H5.622a12.168,12.168,0,0,0,4.876-.635,4.315,4.315,0,0,0,1.885-2.035,13.325,13.325,0,0,0,.669-5.115V10.485H0V6.108Q10.68,4.632,17.851,0" transform="translate(229 25)" fill="#fffffe"/>
  <path id="Fill_61" data-name="Fill 61" d="M3.194,13.487l-2.384.3a26.427,26.427,0,0,1-.2-2.845A10.311,10.311,0,0,1,2.188,5.469,10.806,10.806,0,0,1,6.576,1.445,13.907,13.907,0,0,1,13.028,0,13.339,13.339,0,0,1,19.2,1.361a9.839,9.839,0,0,1,4.068,3.727A10.353,10.353,0,0,1,24.681,10.5a12.2,12.2,0,0,1-.922,4.77A15.646,15.646,0,0,1,20.8,19.692a48.674,48.674,0,0,1-6.17,5.1q-5.851,4.365-8.973,6.327H18.437a6.643,6.643,0,0,0,2.949-.417,3.368,3.368,0,0,0,1.3-2.5l.222-1.4H25L23.328,36H21.755l-.27-1.2H0V32.739L3.938,29.77q4.479-3.307,6.571-5.076a51.614,51.614,0,0,0,5.968-5.7,15.969,15.969,0,0,0,2.756-4.268,10.728,10.728,0,0,0,.752-3.984,7.627,7.627,0,0,0-2.229-5.664,7.879,7.879,0,0,0-5.8-2.208,9.316,9.316,0,0,0-4.567,1.1A8.137,8.137,0,0,0,4.229,7.063a8.383,8.383,0,0,0-1.157,4.29q0,.861.122,2.134" transform="translate(71 61)" fill="#fffffe"/>
  <path id="Fill_62" data-name="Fill 62" d="M3.832,8.8l-2.14-.331A9.846,9.846,0,0,1,2.942,4.5,8.656,8.656,0,0,1,6.53,1.187,11.531,11.531,0,0,1,11.857,0a12.2,12.2,0,0,1,5.215,1.053,7.99,7.99,0,0,1,3.4,2.791A6.691,6.691,0,0,1,21.618,7.6a5.878,5.878,0,0,1-.867,3.169,8.18,8.18,0,0,1-2.579,2.5,12.3,12.3,0,0,1-3.135,1.352,10.9,10.9,0,0,1,3.381.954,8.457,8.457,0,0,1,3.359,3A7.615,7.615,0,0,1,23,22.768a8.314,8.314,0,0,1-3.232,6.447A12.346,12.346,0,0,1,11.41,32,13.448,13.448,0,0,1,2.9,29.315Q0,27.033,0,24.727a2.092,2.092,0,0,1,.59-1.52,1.973,1.973,0,0,1,1.482-.61,2.193,2.193,0,0,1,1.672.752,6.3,6.3,0,0,1,.87,2.012,6.29,6.29,0,0,0,2.34,3.4,6.892,6.892,0,0,0,4.1,1.173,7.967,7.967,0,0,0,3.911-.952,6.987,6.987,0,0,0,2.73-2.7,7.566,7.566,0,0,0,1-3.83,6.25,6.25,0,0,0-.725-3.022,6.518,6.518,0,0,0-2.062-2.268,6.413,6.413,0,0,0-2.619-1.02,16.278,16.278,0,0,0-2.863-.286H8.356V13.7H9.675a15.117,15.117,0,0,0,3.754-.455,5.007,5.007,0,0,0,2.859-1.873A5.2,5.2,0,0,0,17.361,8.16a5.129,5.129,0,0,0-2.947-4.768,7.345,7.345,0,0,0-3.348-.731,7.679,7.679,0,0,0-3.406.754A6.648,6.648,0,0,0,5.171,5.433,8.206,8.206,0,0,0,3.832,8.8" transform="translate(396 77)" fill="#fffffe"/>
</svg>
