<?xml version="1.0" encoding="UTF-8"?>
<svg width="14px" height="16px" viewBox="0 0 14 16" version="1.1" xmlns="http://www.w3.org/2000/svg" xmlns:xlink="http://www.w3.org/1999/xlink">
    <!-- Generator: Sketch 63.1 (92452) - https://sketch.com -->
    <title>Gear</title>
    <desc>Created with Sketch.</desc>
    <g id="Page-1" stroke="none" stroke-width="1" fill="none" fill-rule="evenodd">
        <g id="1-Homepage" transform="translate(-399.000000, -1384.000000)" fill="#7E7E7E">
            <g id="Available-Cars" transform="translate(165.000000, 966.000000)">
                <g id="1" transform="translate(0.000000, 81.000000)">
                    <g id="Details" transform="translate(23.000000, 336.000000)">
                        <g id="Transmission" transform="translate(211.000000, 0.000000)">
                            <g id="Gear" transform="translate(0.000000, 1.000000)">
                                <path d="M13.2150621,11.1846561 C13.0424687,11.1846561 12.9025622,11.3245621 12.9025622,11.4971561 L12.9025622,14.0474062 C12.9025622,14.7794371 12.3069999,15.375 11.5749689,15.375 L1.96959376,15.375 C1.23756248,15.375 0.641999988,14.7794371 0.641999988,14.0474062 L0.641999988,6.30478144 C0.641999988,5.57256269 1.23756248,4.97687483 1.96959376,4.97687483 L5.5309998,4.97687483 L5.76590625,9.16593742 L4.12518733,9.16593742 L4.12518733,7.42287493 C4.12518733,6.90565634 3.70440608,6.4848752 3.18715621,6.4848752 C2.93668741,6.4848752 2.70115625,6.58246899 2.52428124,6.7593751 C2.34687493,6.9362812 2.24915629,7.17193747 2.24915629,7.42287493 L2.24915629,12.9311876 C2.24915629,13.4484062 2.66993754,13.8692188 3.18715621,13.8692188 C3.69853104,13.8692188 4.12518733,13.4425936 4.12518733,12.9311876 L4.12518733,11.0419683 L5.82365604,11.0419683 L5.82365604,12.9311876 C5.82365604,13.4484062 6.24443729,13.8692188 6.76168737,13.8692188 C7.27299959,13.8692188 7.69971869,13.4424686 7.69971869,12.9311876 L7.69971869,11.0419683 L9.39818781,11.0419683 L9.39818781,12.9311876 C9.39818781,13.4484062 9.81896866,13.8692188 10.3362183,13.8692188 C10.8475314,13.8692188 11.2742191,13.4424686 11.2742191,12.9311876 L11.2742191,7.42287493 C11.2742191,6.90565634 10.8534374,6.4848752 10.3362183,6.4848752 C10.0852808,6.4848752 9.84962466,6.58256245 9.67331235,6.7593751 C9.49590645,6.9362812 9.39818781,7.17193747 9.39818781,7.42287493 L9.39818781,9.16593742 L7.75996852,9.16593742 L8.00499996,4.97687483 L11.5765626,4.97693729 C12.3077496,4.97774982 12.902625,5.57343769 12.902625,6.30478144 L12.902625,8.74762535 C12.902625,8.92021847 13.0425315,9.06012535 13.2151249,9.06012535 C13.3877184,9.06012535 13.5276249,8.92021847 13.5276249,8.74762535 L13.5276249,6.30478144 C13.5276249,5.22918749 12.6526877,4.35315609 11.5769371,4.35193729 L8.04153141,4.35187483 L8.08531213,3.60340619 C8.31503087,3.34540629 8.45496877,3.00581241 8.45496877,2.6340313 L8.45496877,1.45962501 C8.45490595,0.654781222 7.80012461,0 6.99528119,0 L6.54928129,0 C5.74446887,0 5.08965612,0.654781222 5.08965612,1.45962501 L5.08965612,2.6340313 C5.08965612,3.00268745 5.22734362,3.33962488 5.45359354,3.59681249 L5.49593762,4.35187483 L1.96959376,4.35187483 C0.892937469,4.35187483 0.0170000009,5.2279377 0.0170000009,6.30478144 L0.0170000009,14.0474062 C0.0170000009,15.1240625 0.892937469,16 1.96959376,16 L11.5749689,16 C12.6516561,16 13.5276249,15.1240625 13.5276249,14.0474062 L13.5276249,11.4971561 C13.5276249,11.3245621 13.3876564,11.1846561 13.2150621,11.1846561 Z M6.18875013,4.04846875 C6.45115636,4.115125 6.73493761,4.096 7.00381261,4.0935625 C7.14956259,4.09225 7.29531258,4.0701875 7.43443755,4.026375 L7.1167188,9.45834386 C7.1030001,9.67246885 7.0916251,9.88675015 7.0791251,10.1009377 C7.07628133,10.1499064 7.0728438,10.2070002 7.06306255,10.2547192 C7.03381255,10.3972189 6.91265634,10.4995003 6.76162509,10.4995003 C6.67518759,10.4995003 6.59128136,10.4627504 6.5324376,10.399469 C6.46568759,10.3276879 6.45290638,10.2456254 6.44715637,10.1518751 L6.40856262,9.4609691 C6.40850011,9.46000036 6.40831261,9.45909414 6.40828137,9.45815667 L6.27643763,7.10728138 L6.13846888,4.64684379 C6.13846888,4.64681252 6.13846888,4.64681252 6.13846888,4.64681252 L6.10356263,4.0243125 C6.13168763,4.03334375 6.16015638,4.0411875 6.18875013,4.04846875 L6.18875013,4.04846875 Z M3.81268759,10.4169689 C3.64009387,10.4169689 3.50018759,10.5568753 3.50018759,10.729469 L3.50018759,12.9311874 C3.50018759,13.1017501 3.3576876,13.2442188 3.18715631,13.2442188 C3.01456254,13.2442188 2.87415628,13.1037812 2.87415628,12.9311874 L2.87415628,7.42287519 C2.87415628,7.3391877 2.90662503,7.26071894 2.96590629,7.2016252 C3.02509379,7.1424377 3.1036563,7.1098752 3.18718755,7.1098752 C3.35978135,7.1098752 3.50021883,7.25028145 3.50021883,7.42287519 L3.50021883,9.47843756 C3.50021883,9.65103135 3.64012511,9.79093771 3.81271884,9.79093771 L5.80100035,9.79093771 C5.8061253,9.8825939 5.81128166,9.9742501 5.81640661,10.0658752 C5.82300029,10.18325 5.82325041,10.3024066 5.85231284,10.4169375 L3.81268759,10.4169375 L3.81268759,10.4169689 Z M7.07468728,12.9311875 C7.07468728,13.1016563 6.93215605,13.2442188 6.76165609,13.2442188 C6.58906236,13.2442188 6.44862489,13.1037814 6.44862489,12.9311875 L6.44862489,11.0708437 C6.64934361,11.142125 6.87393733,11.142125 7.07465605,11.0708437 L7.07465605,12.9311875 L7.07468728,12.9311875 Z M9.7106248,9.79093771 C9.88321857,9.79093771 10.0231249,9.65103135 10.0231249,9.47843756 L10.0231249,7.42287519 C10.0231249,7.3391877 10.0555936,7.26071894 10.1151561,7.2013127 C10.1739686,7.14234395 10.2524374,7.1098752 10.3361249,7.1098752 C10.5087187,7.1098752 10.6491249,7.25028145 10.6491249,7.42287519 L10.6491249,12.9311874 C10.6491249,13.1016565 10.506625,13.2442188 10.3361249,13.2442188 C10.1635311,13.2442188 10.0230937,13.1037812 10.0230937,12.9311874 L10.0230937,10.729469 C10.0230937,10.5568753 9.88318733,10.4169689 9.71059356,10.4169689 L7.67099981,10.4169689 C7.69893731,10.3068125 7.69981231,10.192875 7.70640606,10.0800313 C7.71203106,9.98368769 7.71768731,9.88731261 7.72331231,9.79096897 L9.7106248,9.79096897 L9.7106248,9.79093771 Z M5.71468741,1.45962498 C5.71468741,0.999406252 6.08909366,0.625 6.54928122,0.625 L6.9952812,0.625 C7.45549997,0.625 7.82990627,0.999406252 7.82990627,1.45962498 L7.82990627,2.63403119 C7.82990627,2.97912503 7.61937496,3.27599998 7.31996873,3.40290625 C7.15109371,3.47796863 6.96946873,3.46865617 6.78962498,3.46865617 C6.61128119,3.46865617 6.43221869,3.47993735 6.26146869,3.41746876 C5.94265616,3.29996871 5.71465616,2.993125 5.71465616,2.63403119 L5.71465616,1.45962498 L5.71468741,1.45962498 Z" id="Shape"></path>
                                <path d="M2.91043738,5.99187484 C3.00556236,6.13331239 3.20168733,6.17315612 3.34387479,6.07843735 C3.48587479,5.98384358 3.52396849,5.7866873 3.43012478,5.64499979 C3.3359998,5.50290602 3.13834357,5.46496851 2.99699986,5.55874978 C2.85512489,5.65287479 2.8161874,5.85043733 2.91043738,5.99187484 Z" id="Path"></path>
                                <path d="M3.28981259,14.242812 C3.02737506,14.1334683 2.76496882,14.4195621 2.89134382,14.6717809 C2.95078132,14.7904059 3.08484381,14.8605622 3.21628131,14.8404997 C3.3485938,14.8202809 3.45471883,14.7165309 3.47803131,14.5848746 C3.50318759,14.4429683 3.42331255,14.2975308 3.28981259,14.242812 L3.28981259,14.242812 Z" id="Path"></path>
                                <path d="M10.6620004,5.64500002 C10.5674379,5.50321874 10.3705629,5.46474998 10.2288753,5.55875 C10.0871878,5.65278128 10.0477503,5.85084381 10.1423128,5.9921876 C10.2370003,6.13371893 10.4341566,6.17265639 10.5757504,6.07843763 C10.7183755,5.98353137 10.7550942,5.78715632 10.6620004,5.64500002 Z" id="Path"></path>
                                <path d="M10.521687,14.2428129 C10.2594684,14.1335629 9.99643727,14.4194691 10.1232185,14.6717191 C10.1828434,14.7903441 10.3164996,14.8606254 10.4481558,14.8405004 C10.5804369,14.8202816 10.6865307,14.7165629 10.7099056,14.5849379 C10.7351244,14.4430316 10.6551869,14.2975316 10.521687,14.2428129 L10.521687,14.2428129 Z" id="Path"></path>
                                <path d="M7.03199974,14.358125 C6.87843728,14.123625 6.50478112,14.2104687 6.46337488,14.4855625 C6.42093739,14.7674063 6.76503104,14.9530938 6.97821849,14.7664688 C7.0947497,14.6644375 7.11774971,14.4868125 7.03199974,14.358125 L7.03199974,14.358125 Z" id="Path"></path>
                                <path d="M13.5394998,10.0915625 C13.4877186,9.81587488 13.1076563,9.75343736 12.9654377,9.99193745 C12.8971252,10.1065 12.909719,10.2553126 12.9967814,10.3565313 C13.0822501,10.4558751 13.2244375,10.4909689 13.3464374,10.4435626 C13.4855624,10.3895313 13.5692498,10.2382813 13.5394998,10.0915625 Z" id="Path"></path>
                            </g>
                        </g>
                    </g>
                </g>
            </g>
        </g>
    </g>
</svg>