<?xml version="1.0" encoding="UTF-8"?>
<svg width="16px" height="16px" viewBox="0 0 16 16" version="1.1" xmlns="http://www.w3.org/2000/svg" xmlns:xlink="http://www.w3.org/1999/xlink">
    <!-- Generator: Sketch 63.1 (92452) - https://sketch.com -->
    <title>Left</title>
    <desc>Created with Sketch.</desc>
    <g id="Page-1" stroke="none" stroke-width="1" fill="none" fill-rule="evenodd">
        <g id="1-Homepage" transform="translate(-119.000000, -3797.000000)" fill="#FCB017">
            <g id="Testimonials" transform="translate(119.000000, 3449.000000)">
                <path d="M8.70710681,348.292893 L15.7071069,355.292893 C15.7355733,355.32136 15.7623313,355.351534 15.7872142,355.38325 L15.7071065,355.292893 C15.7425006,355.328287 15.7746869,355.365675 15.8036653,355.404693 C15.82151,355.428869 15.8382814,355.453725 15.8539327,355.47934 C15.861393,355.491387 15.8685011,355.503606 15.8753288,355.515938 C15.8862062,355.535706 15.8966234,355.556109 15.9063463,355.576901 C15.914321,355.593902 15.9218036,355.611204 15.9287745,355.628664 C15.9366843,355.648421 15.9438776,355.668202 15.9504534,355.688264 C15.9552714,355.703149 15.9599023,355.718537 15.9641549,355.734007 C15.9701664,355.755564 15.9753602,355.777254 15.9798349,355.799206 C15.9832979,355.816625 15.986372,355.834051 15.9889823,355.851533 C15.9920328,355.871475 15.9944666,355.892114 15.9962623,355.912935 C15.9978437,355.931735 15.9989054,355.949734 15.9994831,355.967745 C15.9998183,355.977789 16,355.988873 16,356 L15.9994507,356.033247 C15.9988774,356.050591 15.9978552,356.067923 15.9963842,356.085224 L16,356 C16,356.05062 15.9962388,356.100362 15.9889807,356.148961 C15.986372,356.165949 15.9832979,356.183375 15.97976,356.200726 C15.9753602,356.222746 15.9701664,356.244436 15.9642791,356.26584 C15.9599023,356.281463 15.9552714,356.296851 15.950262,356.312143 C15.9438776,356.331798 15.9366843,356.351579 15.9288961,356.371059 C15.9218036,356.388796 15.914321,356.406098 15.9063266,356.423222 C15.8966234,356.443891 15.8862062,356.464294 15.8751243,356.484277 C15.8685011,356.496394 15.861393,356.508613 15.8540045,356.520709 C15.8382814,356.546275 15.82151,356.571131 15.8036866,356.595159 C15.7982464,356.602603 15.7927154,356.609842 15.7870722,356.617022 C15.784929,356.619663 15.782628,356.622562 15.7803114,356.625449 L15.7071065,356.707107 L15.7071065,356.707107 L8.70710681,363.707107 C8.31658255,364.097631 7.68341754,364.097631 7.29289323,363.707107 C6.90236892,363.316583 6.90236892,362.683417 7.29289323,362.292893 L12.585,357 L1,357 C0.447715253,357 0,356.552285 0,356 C0,355.447715 0.447715253,355 1,355 L12.585,355 L7.29289323,349.707107 C6.90236892,349.316582 6.90236892,348.683417 7.29289323,348.292893 C7.68341754,347.902369 8.31658255,347.902369 8.70710681,348.292893 Z" id="Left" transform="translate(8.000000, 356.000000) scale(-1, 1) translate(-8.000000, -356.000000) "></path>
            </g>
        </g>
    </g>
</svg>