<?xml version="1.0" encoding="UTF-8"?>
<svg width="40px" height="40px" viewBox="0 0 40 40" version="1.1" xmlns="http://www.w3.org/2000/svg" xmlns:xlink="http://www.w3.org/1999/xlink">
    <!-- Generator: Sketch 63.1 (92452) - https://sketch.com -->
    <title>Icon</title>
    <desc>Created with Sketch.</desc>
    <g id="Page-1" stroke="none" stroke-width="1" fill="none" fill-rule="evenodd">
        <g id="Pricing-Page" transform="translate(-262.000000, -1806.000000)" fill-rule="nonzero">
            <g id="How-do-auctions-work?-Copy" transform="translate(164.000000, 1671.000000)">
                <g id="#1" transform="translate(0.000000, 105.000000)">
                    <g id="Icon" transform="translate(98.000000, 30.000000)">
                        <path d="M29.6642969,29.8270313 L1.171875,29.8270313 L1.171875,9.96007813 L5.7865625,9.96007813 C6.11015625,9.96007813 6.3725,9.69773438 6.3725,9.37414063 C6.3725,9.05054688 6.11015625,8.78820313 5.7865625,8.78820313 L0.5859375,8.78820313 C0.26234375,8.78820313 0,9.05054688 0,9.37414063 L0,30.4129688 C0,30.7365625 0.26234375,30.9989063 0.5859375,30.9989063 L5.68226563,30.9989063 L7.86523438,35.7060156 C7.99953125,35.995625 8.35328125,36.125625 8.64328125,35.9910156 L10.780625,34.9998437 L17.2601562,39.6229688 C17.5201562,39.8084375 17.8922656,39.7458594 18.0775,39.4863281 L24.1332812,30.9988281 L29.6644531,30.9988281 C29.9880469,30.9988281 30.2503906,30.7364844 30.2503906,30.4128906 C30.2503906,30.089375 29.9878906,29.8270313 29.6642969,29.8270313 Z M6.97398438,30.9989063 L16.6226563,30.9989063 L8.68171875,34.6814844 L6.97398438,30.9989063 Z M17.46375,38.32875 L12.0034375,34.4328125 L19.4082813,30.9989063 L22.6935156,30.9989063 L17.46375,38.32875 Z" id="Shape" fill="#454545"></path>
                        <path d="M39.3575,8.78820313 L34.2611719,8.78820313 L32.0782813,4.08101563 C31.9441406,3.79179688 31.59,3.6615625 31.3002344,3.79601563 L29.1628906,4.7871875 L22.6834375,0.1640625 C22.4234375,-0.02125 22.0513281,0.04109375 21.8660938,0.30078125 L15.8103125,8.78828125 L8.1303125,8.78828125 C7.80671875,8.78828125 7.544375,9.050625 7.544375,9.37421875 C7.544375,9.6978125 7.80671875,9.96015625 8.1303125,9.96015625 L16.1110938,9.96015625 C16.11125,9.96015625 16.1114063,9.96023438 16.1115625,9.96023438 C16.1117969,9.96023438 16.1120313,9.96015625 16.1121875,9.96015625 L33.8852344,9.96015625 C33.8859375,9.96015625 33.8866406,9.9603125 33.8874219,9.9603125 C33.8883594,9.9603125 33.8892969,9.96015625 33.8902344,9.96015625 L38.7714844,9.96015625 L38.7714844,29.8271094 L32.0079688,29.8271094 C31.6842969,29.8271094 31.4220312,30.0894531 31.4220312,30.4130469 C31.4220312,30.7366406 31.6842969,30.9989844 32.0079688,30.9989844 L39.3574219,30.9989844 C39.6810938,30.9989844 39.9433594,30.7366406 39.9433594,30.4130469 L39.9433594,9.37414063 C39.9433594,9.05054688 39.6811719,8.78820313 39.3575,8.78820313 Z M32.9694531,8.78820313 L23.3207031,8.78820313 L31.2617188,5.105625 L32.9694531,8.78820313 Z M22.4797656,1.45835938 L27.9400781,5.35429688 L20.5352344,8.78828125 L17.25,8.78828125 L22.4797656,1.45835938 Z" id="Shape" fill="#454545"></path>
                        <path d="M19.9717187,25.4929687 C23.0553125,25.4929687 25.5639062,22.9842969 25.5639062,19.9007813 C25.5639062,16.8172656 23.0553125,14.3085938 19.9717188,14.3085938 C16.8882031,14.3085938 14.3795312,16.8171875 14.3795312,19.9007813 C14.3795312,22.9842969 16.8882031,25.4929687 19.9717187,25.4929687 Z M19.9717187,15.4804687 C22.4090625,15.4804687 24.3920312,17.4633594 24.3920312,19.9007812 C24.3920312,22.338125 22.4090625,24.3210937 19.9717187,24.3210937 C17.534375,24.3210937 15.5514062,22.338125 15.5514062,19.9007812 C15.5514062,17.4634375 17.534375,15.4804687 19.9717187,15.4804687 Z" id="Shape" fill="#49BE65"></path>
                        <path d="M15.0114063,28.1273438 L32.8604688,28.1273438 C33.1841406,28.1273438 33.4464063,27.865 33.4464063,27.5414063 C33.4464063,26.0663281 34.9339063,24.6185938 36.449375,24.6185938 C36.7730469,24.6185938 37.0353125,24.35625 37.0353125,24.0326563 L37.0353125,15.7539063 C37.0353125,15.4303125 36.7730469,15.1679688 36.449375,15.1679688 C34.9339063,15.1679688 33.4464063,13.7202344 33.4464063,12.2451563 C33.4464063,11.9215625 33.1841406,11.6592188 32.8604688,11.6592188 L6.76421875,11.6592188 C6.440625,11.6592188 6.17828125,11.9215625 6.17828125,12.2451563 C6.17828125,13.8105469 4.92398438,15.1835938 3.4940625,15.1835938 C3.17046875,15.1835938 2.908125,15.4459375 2.908125,15.7695312 L2.908125,24.016875 C2.908125,24.3404688 3.17046875,24.6028125 3.4940625,24.6028125 C4.92398438,24.6028125 6.17828125,25.9759375 6.17828125,27.54125 C6.17828125,27.8648438 6.440625,28.1273438 6.76421875,28.1273438 L12.6676563,28.1273438 C12.99125,28.1273438 13.2535938,27.8648438 13.2535938,27.54125 C13.2535938,27.2176563 12.99125,26.9553125 12.6676563,26.9553125 L7.3065625,26.9553125 C7.18484375,26.133125 6.8121875,25.3370313 6.24335938,24.7070313 C5.64296875,24.0420313 4.89023438,23.6185156 4.07992188,23.4803906 L4.07992188,16.3058594 C4.89015625,16.1677344 5.64289063,15.7442187 6.24335938,15.0792187 C6.8121875,14.4492969 7.18484375,13.653125 7.3065625,12.8309375 L32.3261719,12.8309375 C32.6217188,14.5150781 34.1454688,16.0064063 35.8634375,16.2909375 L35.8634375,23.4952344 C34.1454688,23.7796875 32.6217188,25.2710938 32.3261719,26.9552344 L15.0114063,26.9552344 C14.6878125,26.9552344 14.4254688,27.2175781 14.4254688,27.5411719 C14.4254688,27.865 14.6878125,28.1273438 15.0114063,28.1273438 Z" id="Path" fill="#49BE65"></path>
                    </g>
                </g>
            </g>
        </g>
    </g>
</svg>