<?xml version="1.0" encoding="UTF-8"?>
<svg width="16px" height="16px" viewBox="0 0 16 16" version="1.1" xmlns="http://www.w3.org/2000/svg" xmlns:xlink="http://www.w3.org/1999/xlink">
    <!-- Generator: Sketch 63.1 (92452) - https://sketch.com -->
    <title>Right</title>
    <desc>Created with Sketch.</desc>
    <g id="Page-1" stroke="none" stroke-width="1" fill="none" fill-rule="evenodd">
        <g id="1-Homepage" transform="translate(-1305.000000, -3797.000000)" fill="#FCB017">
            <g id="Testimonials" transform="translate(119.000000, 3449.000000)">
                <path d="M1194.70711,348.292893 L1201.70711,355.292893 C1201.73557,355.32136 1201.76233,355.351534 1201.78721,355.38325 L1201.70711,355.292893 C1201.7425,355.328287 1201.77469,355.365675 1201.80367,355.404693 C1201.82151,355.428869 1201.83828,355.453725 1201.85393,355.47934 C1201.86139,355.491387 1201.8685,355.503606 1201.87533,355.515938 C1201.88621,355.535706 1201.89662,355.556109 1201.90635,355.576901 C1201.91432,355.593902 1201.9218,355.611204 1201.92877,355.628664 C1201.93668,355.648421 1201.94388,355.668202 1201.95045,355.688264 C1201.95527,355.703149 1201.9599,355.718537 1201.96415,355.734007 C1201.97017,355.755564 1201.97536,355.777254 1201.97983,355.799206 C1201.9833,355.816625 1201.98637,355.834051 1201.98898,355.851533 C1201.99203,355.871475 1201.99447,355.892114 1201.99626,355.912935 C1201.99784,355.931735 1201.99891,355.949734 1201.99948,355.967745 C1201.99982,355.977789 1202,355.988873 1202,356 L1201.99945,356.033247 C1201.99888,356.050591 1201.99786,356.067923 1201.99638,356.085224 L1202,356 C1202,356.05062 1201.99624,356.100362 1201.98898,356.148961 C1201.98637,356.165949 1201.9833,356.183375 1201.97976,356.200726 C1201.97536,356.222746 1201.97017,356.244436 1201.96428,356.26584 C1201.9599,356.281463 1201.95527,356.296851 1201.95026,356.312143 C1201.94388,356.331798 1201.93668,356.351579 1201.9289,356.371059 C1201.9218,356.388796 1201.91432,356.406098 1201.90633,356.423222 C1201.89662,356.443891 1201.88621,356.464294 1201.87512,356.484277 C1201.8685,356.496394 1201.86139,356.508613 1201.854,356.520709 C1201.83828,356.546275 1201.82151,356.571131 1201.80369,356.595159 C1201.79825,356.602603 1201.79272,356.609842 1201.78707,356.617022 C1201.78493,356.619663 1201.78263,356.622562 1201.78031,356.625449 L1201.70711,356.707107 L1201.70711,356.707107 L1194.70711,363.707107 C1194.31658,364.097631 1193.68342,364.097631 1193.29289,363.707107 C1192.90237,363.316583 1192.90237,362.683417 1193.29289,362.292893 L1198.585,357 L1187,357 C1186.44772,357 1186,356.552285 1186,356 C1186,355.447715 1186.44772,355 1187,355 L1198.585,355 L1193.29289,349.707107 C1192.90237,349.316582 1192.90237,348.683417 1193.29289,348.292893 C1193.68342,347.902369 1194.31658,347.902369 1194.70711,348.292893 Z" id="Right"></path>
            </g>
        </g>
    </g>
</svg>