<svg id="Checkmark" xmlns="http://www.w3.org/2000/svg" width="80" height="80" viewBox="0 0 80 80">
  <path id="Path" d="M30.339,1.019a3.173,3.173,0,0,0-4.66,0L11.533,15.949,5.625,9.715a3.173,3.173,0,0,0-4.66,0,3.616,3.616,0,0,0,0,4.918l8.238,8.7a3.172,3.172,0,0,0,4.66,0L30.339,5.937A3.616,3.616,0,0,0,30.339,1.019Z" transform="translate(26.087 27.826)" fill="#49be65"/>
  <path id="Path-2" data-name="Path" d="M76.667,36.667A3.335,3.335,0,0,0,73.333,40a33.331,33.331,0,1,1-9.678-23.487,3.333,3.333,0,0,0,4.73-4.7A40,40,0,1,0,80,40,3.335,3.335,0,0,0,76.667,36.667Z" fill="#49be65"/>
</svg>
