<?xml version="1.0" encoding="UTF-8"?>
<svg width="19px" height="15px" viewBox="0 0 19 15" version="1.1" xmlns="http://www.w3.org/2000/svg" xmlns:xlink="http://www.w3.org/1999/xlink">
    <!-- Generator: Sketch 63.1 (92452) - https://sketch.com -->
    <title>money</title>
    <desc>Created with Sketch.</desc>
    <g id="Page-1" stroke="none" stroke-width="1" fill="none" fill-rule="evenodd">
        <g id="1-Homepage" transform="translate(-188.000000, -1417.000000)" fill="#7C7C7C">
            <g id="Available-Cars" transform="translate(165.000000, 966.000000)">
                <g id="1" transform="translate(0.000000, 81.000000)">
                    <g id="Details" transform="translate(23.000000, 336.000000)">
                        <g id="Mortgage" transform="translate(0.000000, 30.000000)">
                            <g id="money" transform="translate(0.000000, 4.000000)">
                                <path d="M17.2111993,0.00979071949 L1.5874539,0.00979071949 C0.711108189,0.0108451155 0.0010543882,0.720898961 2.84217094e-14,1.59724455 L2.84217094e-14,9.83621905 C0.00090375963,10.7125649 0.711108189,11.4227688 1.5874539,11.4236724 L9.09076773,11.4236724 L9.09076773,13.3262377 C9.09076773,14.4182808 11.0457509,14.9897578 12.9766335,14.9897578 C13.9519401,14.9897578 14.8766366,14.85088 15.5803641,14.5990328 C16.6364074,14.2212607 16.8811755,13.7094313 16.900607,13.3468729 C16.9009084,13.3399442 16.9012087,13.3331664 16.9012087,13.3262377 L16.9012087,11.4236724 L17.2111993,11.4236724 C18.0873933,11.4227688 18.7975983,10.7125649 18.7986526,9.83636995 L18.7986526,1.59724455 C18.7975983,0.720898961 18.0873933,0.0108451155 17.2111993,0.00979071949 L17.2111993,0.00979071949 Z M9.86197567,10.5111764 C10.6133012,10.9306715 11.8134941,11.1463688 13.0046492,11.1463688 C14.1867671,11.1463688 15.3774704,10.9339853 16.1300011,10.5208165 L16.1300011,11.3528779 L16.1087628,11.3528779 C16.1087628,11.4248773 15.9692825,11.6630181 15.3321317,11.8976943 C14.7053746,12.1283036 13.8651794,12.2554324 12.9660889,12.2554324 C10.9576337,12.2554324 9.86197567,11.6592523 9.86197567,11.3531791 L9.86197567,10.5111764 Z M16.1300011,9.40934286 L16.1300011,9.53662233 C15.9867552,9.83079596 14.9281513,10.3750098 13.0046492,10.3750098 C10.9312741,10.3750098 9.86197567,9.7426794 9.86197567,9.47275661 C9.86197567,9.20283382 10.9312741,8.57020217 13.0046492,8.57020217 C14.9283019,8.57020217 15.9869057,9.11456666 16.1300011,9.40874033 L16.1300011,9.40934286 Z M14.3220284,7.88921909 C13.8855129,7.828667 13.4453819,7.79854161 13.0046485,7.79914422 C11.594633,7.79914422 10.1721155,8.10145165 9.4964044,8.68633478 L4.86975785,8.69702941 C4.66596008,7.77805663 3.86402421,7.1395504 2.74110293,7.00699904 L2.74110293,4.4267652 C3.3095677,4.35988708 3.80196605,4.16211434 4.18018938,3.84609975 C4.52527504,3.56156607 4.76688,3.17144323 4.86795053,2.73583108 L13.9528427,2.73583108 C14.1384146,3.5428884 14.818042,4.28367004 16.057699,4.42706651 L16.057699,7.00714969 C15.3202308,7.0948141 14.7103438,7.40465314 14.3220284,7.88921909 Z M12.9766329,14.2185491 C12.0852245,14.2185491 11.2519581,14.0924747 10.6304727,13.8636729 C10.0705935,13.6576156 9.86197567,13.4245962 9.86197567,13.3262371 L9.86197567,12.4054567 C10.0231462,12.4940252 10.1910948,12.5697903 10.3641648,12.6321498 C11.0590054,12.8865581 11.982949,13.0266408 12.9660889,13.0266408 C13.9537477,13.0266408 14.8886872,12.8827924 15.5985905,12.6214553 C15.7819028,12.5550289 15.9596424,12.4736906 16.1300011,12.3784946 L16.1300011,13.31253 C16.0971643,13.6243271 14.9709293,14.2185491 12.9766329,14.2185491 Z M18.0274433,9.83621902 C18.0268406,10.2868938 17.6617222,10.6520127 17.211198,10.6524646 L16.901208,10.6524646 L16.901208,9.64703199 C16.9126557,9.58964325 16.9185298,9.53120012 16.9185298,9.472757 C16.9185298,8.81948938 16.2227865,8.3514925 15.2500399,8.07931021 C15.5600289,7.87581365 15.9725954,7.76073492 16.4494793,7.75305296 C16.6599046,7.74958855 16.8287568,7.57802484 16.8287568,7.36744884 L16.8287568,4.06601474 C16.8287568,3.85543874 16.6599046,3.68387502 16.4494793,3.68041061 C15.4075945,3.66369106 14.7101942,3.13438914 14.6725369,2.3321518 C14.6628973,2.12639585 14.4932911,1.96447224 14.2873854,1.96447224 L4.53295682,1.96447224 C4.32705027,1.96447224 4.15744492,2.12639585 4.14780482,2.33200118 C4.11029868,3.13408789 3.40416112,3.6633898 2.34917249,3.68041061 C2.13859657,3.6837244 1.96974411,3.85543874 1.96974411,4.06601474 L1.96974411,7.36744884 C1.96974411,7.57802484 2.13859657,7.74958855 2.34917249,7.75305296 C3.42133253,7.77037502 4.11044936,8.28672305 4.14780482,9.10101052 C4.15714355,9.30676647 4.32689985,9.46899133 4.53295682,9.46899133 L4.53386066,9.46899133 L9.09106831,9.45829684 C9.09106831,9.4631169 9.09076694,9.46793695 9.09076694,9.472757 C9.09076694,9.484054 9.09121899,9.49520036 9.09167104,9.50634673 C9.09136968,9.51252243 9.09076694,9.51869812 9.09076694,9.52502443 L9.09076694,10.6524646 L1.58745379,10.6524646 C1.13692961,10.6518621 0.771810733,10.2868938 0.771208227,9.83621902 L0.771208227,1.59724456 C0.771660116,1.14672036 1.13677899,0.781601453 1.58745379,0.780998946 L17.211198,0.780998946 C17.6617222,0.781601453 18.0268406,1.14672036 18.0274433,1.59724456 L18.0274433,9.83621902 Z" id="Shape"></path>
                                <path d="M9.39925075,3.39768434 C8.11847268,3.39768434 7.08020353,4.43595348 7.08020353,5.71673155 C7.08020353,6.99750948 8.11847268,8.03577876 9.39925075,8.03577876 C10.6800287,8.03577876 11.718298,6.99750948 11.718298,5.71673155 C11.7169422,4.43655608 10.6794263,3.39919062 9.39925075,3.39768434 L9.39925075,3.39768434 Z M9.39925081,7.26457065 C8.54444479,7.26457065 7.85141176,6.57153757 7.85141176,5.71673161 C7.85141176,4.86177499 8.54444479,4.16889256 9.39925081,4.16889256 C10.2542073,4.16889256 10.9472404,4.86192564 10.9470899,5.71673161 C10.9461861,6.57123644 10.2537555,7.26366689 9.39925081,7.26457065 L9.39925081,7.26457065 Z" id="Shape"></path>
                            </g>
                        </g>
                    </g>
                </g>
            </g>
        </g>
    </g>
</svg>