<svg xmlns="http://www.w3.org/2000/svg" width="23.693" height="23.831" viewBox="0 0 23.693 23.831">
  <g id="paypal_copy" data-name="paypal copy" transform="translate(-0.04 0)">
    <path id="Path" d="M.007,20.091a.826.826,0,0,0,.826.822H6.2s1.239.082,1.529-1.479l1.033-4.4a1.757,1.757,0,0,1,1.694-1.274c1.4,0,10.989.37,13.1-6.368A9.3,9.3,0,0,0,21.325,0a6.508,6.508,0,0,1,.413,5.341C19.631,12.12,10.046,11.75,8.683,11.75a1.916,1.916,0,0,0-1.818,1.233l-1.033,4.4a1.653,1.653,0,0,1-1.611,1.479H1.081C-.158,18.858.007,17.79.007,17.79v2.3Z" transform="translate(0.044 2.918)" fill="#00ade5"/>
    <path id="Path-2" data-name="Path" d="M5.92,20.338l1.033-4.4a1.74,1.74,0,0,1,1.694-1.233c1.4,0,10.989.37,13.1-6.368C22.569,5.835,23.106,0,13.4,0H6.416A1.806,1.806,0,0,0,4.6,1.439L.012,20.585a.989.989,0,0,0,1.074,1.191h3.14A1.681,1.681,0,0,0,5.92,20.338" transform="translate(0.04 0)" fill="#004398"/>
    <path id="Path-3" data-name="Path" d="M.072,5.2l.909-3.9A1.758,1.758,0,0,1,2.22.062,11.181,11.181,0,0,1,5.236.185a2.445,2.445,0,0,1,2.148,3C6.847,7.046.65,6.512.65,6.512A.991.991,0,0,1,.072,5.2" transform="translate(8.532 4.006)" fill="#fff"/>
  </g>
</svg>
