<?xml version="1.0" encoding="UTF-8"?>
<svg width="30px" height="30px" viewBox="0 0 30 30" version="1.1" xmlns="http://www.w3.org/2000/svg" xmlns:xlink="http://www.w3.org/1999/xlink">
    <!-- Generator: Sketch 63.1 (92452) - https://sketch.com -->
    <title>Watchlist</title>
    <desc>Created with Sketch.</desc>
    <g id="Page-1" stroke="none" stroke-width="1" fill="none" fill-rule="evenodd">
        <g id="1-Homepage" transform="translate(-478.000000, -1053.000000)" fill="#FFFFFF">
            <g id="Available-Cars" transform="translate(165.000000, 966.000000)">
                <g id="1" transform="translate(0.000000, 81.000000)">
                    <g id="Watchlist" transform="translate(313.000000, 6.000000)">
                        <circle id="Oval" opacity="0.5" cx="15" cy="15" r="15"></circle>
                        <g id="star" transform="translate(7.000000, 8.000000)">
                            <path d="M15.5686687,5.6671587 C15.4658921,5.35108598 15.1855468,5.12731014 14.8551833,5.09741815 L10.3491809,4.68833349 L8.56838358,0.519126331 C8.43690413,0.212819175 8.13774339,0.0151248174 7.80475889,0.0151248174 C7.47177486,0.0151248174 7.17249409,0.212819175 7.04184922,0.519126331 L5.26105194,4.68833349 L0.754334977,5.09741815 C0.423971037,5.12790574 0.144221615,5.35168158 0.0408489009,5.6671587 C-0.0619283503,5.98323141 0.0329887491,6.32991119 0.282845847,6.5490422 L3.68902429,9.53577544 L2.68471332,13.959127 C2.6112329,14.2843699 2.73747141,14.6206883 3.00733619,14.8157629 C3.15239133,14.9211597 3.32281335,14.9737992 3.49383107,14.9737992 C3.64079167,14.9737992 3.78787159,14.9347371 3.91923124,14.8561357 L7.80475889,12.5328696 L11.6895725,14.8561357 C11.9745614,15.0264379 12.3329123,15.0108366 12.6021821,14.8157629 C12.8720464,14.6206883 12.9982849,14.2843699 12.9248047,13.959127 L11.920494,9.53577544 L15.3266717,6.5490422 C15.5764096,6.32991119 15.6714472,5.98394603 15.5686687,5.6671587 Z" id="Path"></path>
                        </g>
                    </g>
                </g>
            </g>
        </g>
    </g>
</svg>