<?xml version="1.0" encoding="UTF-8"?>
<svg width="41px" height="41px" viewBox="0 0 41 41" version="1.1" xmlns="http://www.w3.org/2000/svg" xmlns:xlink="http://www.w3.org/1999/xlink">
    <!-- Generator: Sketch 63.1 (92452) - https://sketch.com -->
    <title>Icon</title>
    <desc>Created with Sketch.</desc>
    <g id="Page-1" stroke="none" stroke-width="1" fill="none" fill-rule="evenodd">
        <g id="Pricing-Page" transform="translate(-1140.000000, -1325.000000)">
            <g id="How-do-auctions-work?" transform="translate(163.000000, 1191.000000)">
                <g id="#4" transform="translate(879.000000, 105.000000)">
                    <g id="Icon" transform="translate(98.000000, 30.000000)">
                        <path d="M10.1540972,31.0542361 L6.57777778,27.4779861 C5.87701389,26.77875 4.948125,26.3935417 3.95854167,26.3935417 L1.48145833,26.3935417 C1.07256944,26.3935417 0.740694444,26.7254167 0.740694444,27.1343056 C0.740694444,27.5431944 1.07256944,27.875 1.48145833,27.875 L3.95847222,27.875 C4.54215278,27.875 5.11548611,28.1120139 5.52881944,28.5253472 L7.84138889,30.8379167 L1.48145833,30.8379167 C1.07256944,30.8379167 0.740694444,31.1697917 0.740694444,31.5786806 C0.740694444,31.9875694 1.07256944,32.3194444 1.48145833,32.3194444 L9.62958333,32.3194444 C9.92881944,32.3194444 10.1984722,32.1386806 10.3140278,31.8616667 C10.4295833,31.5846528 10.3659028,31.2661111 10.1540972,31.0542361 Z" id="Path" fill="#454545" fill-rule="nonzero"></path>
                        <path d="M9.62965278,34.5416667 C9.22076389,34.5416667 8.88888889,34.8735417 8.88888889,35.2824306 L8.88888889,37.5046528 C8.88888889,37.9135417 8.55555556,38.2454167 8.148125,38.2454167 L3.70368056,38.2454167 C3.29625,38.2454167 2.96291667,37.9135417 2.96291667,37.5046528 L2.96291667,34.5416667 C2.96291667,34.1327778 2.63104167,33.8009028 2.22215278,33.8009028 C1.81326389,33.8009028 1.48145833,34.1327778 1.48145833,34.5416667 L1.48145833,37.5046528 C1.48145833,38.7298611 2.47847222,39.726875 3.70368056,39.726875 L8.148125,39.726875 C9.37333333,39.726875 10.3703472,38.7298611 10.3703472,37.5046528 L10.3703472,35.2824306 C10.3703472,34.8735417 10.0385417,34.5416667 9.62965278,34.5416667 Z" id="Path" fill="#454545" fill-rule="nonzero"></path>
                        <path d="M32.1940972,22.0335417 C30.1526389,20.9654167 25.5704167,20.4676389 17.7777778,20.4676389 C9.98513889,20.4676389 5.40298611,20.9654167 3.36145833,22.0335417 C1.03555556,23.2483333 0,25.2779861 0,28.6157639 C0,31.8246528 0.734791667,34.6157639 0.765902778,34.7327778 C0.851805556,35.0572222 1.14513889,35.2824306 1.48145833,35.2824306 L7.97333333,35.2824306 L10.7792361,36.6854167 C10.8829167,36.7372917 10.9970139,36.7639583 11.1111111,36.7639583 L24.4444444,36.7639583 C24.5585417,36.7639583 24.6725694,36.7372917 24.7747917,36.6854167 L27.5822222,35.2824306 L34.0740972,35.2824306 C34.4104167,35.2824306 34.70375,35.0572222 34.7896528,34.7327778 C34.8207639,34.6157639 35.5555556,31.8246528 35.5555556,28.6157639 C35.5555556,25.2779861 34.52,23.2483333 32.1940972,22.0335417 Z M33.4888889,33.8009028 L27.4088889,33.8009028 C27.2933333,33.8009028 27.1792361,33.8275694 27.0770139,33.8794444 L24.2695833,35.2824306 L11.2859028,35.2824306 L8.48,33.8794444 C8.37631944,33.8275694 8.26222222,33.8009028 8.148125,33.8009028 L2.068125,33.8009028 C1.86222222,32.8572222 1.48145833,30.8186806 1.48145833,28.6156944 C1.48145833,25.8260417 2.22513889,24.2986806 4.04590278,23.3460417 C5.82069444,22.4186111 10.44,21.9490278 17.7777778,21.9490278 C25.1155556,21.9490278 29.7347917,22.4186806 31.5096528,23.3460417 C33.3304167,24.2986111 34.0740972,25.8260417 34.0740972,28.6156944 C34.0740972,30.8186806 33.6933333,32.8572222 33.4888889,33.8009028 Z" id="Shape" fill="#454545" fill-rule="nonzero"></path>
                        <path d="M34.0740972,30.8379861 L27.7140972,30.8379861 L30.0252083,28.5254167 C30.44,28.1120833 31.011875,27.8750694 31.5970833,27.8750694 L34.0740972,27.8750694 C34.4829861,27.8750694 34.8148611,27.5431944 34.8148611,27.1343056 C34.8148611,26.7254167 34.4829861,26.3935417 34.0740972,26.3935417 L31.5970833,26.3935417 C30.6074306,26.3935417 29.6785417,26.77875 28.9778472,27.4779861 L25.4015278,31.0543056 C25.1911806,31.2661806 25.1274306,31.5846528 25.2415278,31.8617361 C25.355625,32.1388194 25.6267361,32.3195139 25.9259722,32.3195139 L34.0740972,32.3195139 C34.4829861,32.3195139 34.8148611,31.9876389 34.8148611,31.57875 C34.8148611,31.1697917 34.4829861,30.8379861 34.0740972,30.8379861 Z" id="Path" fill="#454545" fill-rule="nonzero"></path>
                        <path d="M26.5970139,26.8202083 C26.4740278,26.5594444 26.2133333,26.3935417 25.9259028,26.3935417 L9.62965278,26.3935417 C9.34222222,26.3935417 9.08152778,26.5594444 8.95854167,26.8202083 C8.83708333,27.0794444 8.87555556,27.3876389 9.06076389,27.6083333 L12.7644444,32.0527778 C12.9052083,32.2216667 13.1140972,32.3194444 13.3333333,32.3194444 L22.2222222,32.3194444 C22.4414583,32.3194444 22.6503472,32.2216667 22.7911111,32.0527778 L26.4947917,27.6083333 C26.68,27.3875694 26.7185417,27.0794444 26.5970139,26.8202083 Z M21.8740972,30.8379861 L13.68,30.8379861 L11.2103472,27.875 L24.3436806,27.875 L21.8740972,30.8379861 Z" id="Shape" fill="#454545" fill-rule="nonzero"></path>
                        <path d="M32.531875,22.395 C31.6888889,20.4572222 28.8681944,14.0705556 27.8874306,13.2364583 C26.6652083,12.1979167 23.1644444,11.5786806 18.5185417,11.5786806 L17.0370833,11.5786806 C12.3911806,11.5786806 8.89041667,12.1979167 7.66819444,13.235 C6.68743056,14.0690972 3.86520833,20.4557639 3.02375,22.3935417 C2.86229167,22.7698611 3.03409722,23.2054167 3.40895833,23.3683333 C3.78229167,23.5313194 4.22083333,23.3609028 4.38375,22.9846528 C6.05631944,19.1343056 8.10229167,14.8557639 8.62819444,14.3654167 C9.19854167,13.8809722 11.611875,13.0602083 17.0370833,13.0602083 L18.5185417,13.0602083 C23.94375,13.0602083 26.3570833,13.8809722 26.9244444,14.3624306 C27.4533333,14.8557639 29.4992361,19.1327778 31.171875,22.9846528 C31.2933333,23.2646528 31.5674306,23.4305556 31.851875,23.4305556 C31.9496528,23.4305556 32.051875,23.4113194 32.1466667,23.3697917 C32.5214583,23.206875 32.6933333,22.7697917 32.531875,22.395 Z" id="Path" fill="#454545" fill-rule="nonzero"></path>
                        <path d="M33.3333333,33.8009028 C32.9244444,33.8009028 32.5925694,34.1327778 32.5925694,34.5416667 L32.5925694,37.5046528 C32.5925694,37.9135417 32.2592361,38.2454167 31.8518056,38.2454167 L27.4073611,38.2454167 C26.9999306,38.2454167 26.6665972,37.9135417 26.6665972,37.5046528 L26.6665972,35.2824306 C26.6665972,34.8735417 26.3347222,34.5416667 25.9258333,34.5416667 C25.5169444,34.5416667 25.1850694,34.8735417 25.1850694,35.2824306 L25.1850694,37.5046528 C25.1850694,38.7298611 26.1820833,39.726875 27.4072917,39.726875 L31.8517361,39.726875 C33.0769444,39.726875 34.0739584,38.7298611 34.0739584,37.5046528 L34.0739584,34.5416667 C34.0740972,34.1327778 33.7422222,33.8009028 33.3333333,33.8009028 Z" id="Path" fill="#454545" fill-rule="nonzero"></path>
                        <g id="Check-Copy" transform="translate(20.444444, 0.000000)">
                            <ellipse id="Oval" stroke="#49BE65" fill="#FFFFFF" cx="9.54040876" cy="9.49187784" rx="9.54040876" ry="9.49187784"></ellipse>
                            <path d="M13.3925738,6.8107055 L8.91038176,11.4148441 L6.64228459,9.08513914 C6.42627533,8.86326248 6.10226145,8.86326248 5.88625219,9.08513914 C5.67024294,9.3070158 5.67024294,9.6398308 5.88625219,9.86170746 L8.53236557,12.5797625 C8.64037019,12.6907008 8.74837482,12.746236 8.91038176,12.746236 C9.0723887,12.746236 9.18039333,12.6907008 9.28839796,12.5797625 L14.1486062,7.58740573 C14.3646154,7.36552906 14.3646154,7.03271407 14.1486062,6.81083741 C13.9325969,6.58882884 13.6085831,6.58882884 13.3925738,6.8107055 Z" id="Shape" fill="#49BE65" fill-rule="nonzero"></path>
                        </g>
                    </g>
                </g>
            </g>
        </g>
    </g>
</svg>