<svg id="Watchlist" xmlns="http://www.w3.org/2000/svg" width="30" height="30" viewBox="0 0 30 30">
  <circle id="Oval" cx="15" cy="15" r="15" fill="#fff" opacity="0.5"/>
  <g id="star" transform="translate(7 8)">
    <path id="Path" d="M15.569,5.652a.829.829,0,0,0-.713-.57l-4.506-.409L8.568.5A.83.83,0,0,0,7.042.5L5.261,4.673.754,5.082A.831.831,0,0,0,.283,6.534L3.689,9.521l-1,4.423a.83.83,0,0,0,1.235.9L7.8,12.518l3.885,2.323a.83.83,0,0,0,1.235-.9l-1-4.423,3.406-2.987A.831.831,0,0,0,15.569,5.652Z" transform="translate(0 0.015)" fill="#f35fbe"/>
  </g>
</svg>
