<?xml version="1.0" encoding="UTF-8"?>
<svg width="40px" height="40px" viewBox="0 0 40 40" version="1.1" xmlns="http://www.w3.org/2000/svg" xmlns:xlink="http://www.w3.org/1999/xlink">
    <!-- Generator: Sketch 63.1 (92452) - https://sketch.com -->
    <title>Icon</title>
    <desc>Created with Sketch.</desc>
    <g id="Page-1" stroke="none" stroke-width="1" fill="none" fill-rule="evenodd">
        <g id="Pricing-Page" transform="translate(-261.000000, -1326.000000)" fill-rule="nonzero">
            <g id="How-do-auctions-work?" transform="translate(163.000000, 1191.000000)">
                <g id="#1" transform="translate(0.000000, 105.000000)">
                    <g id="Icon" transform="translate(98.000000, 30.000000)">
                        <path d="M9.20125,13.6207031 C8.8965625,13.3160156 8.40125,13.3160156 8.09664062,13.6207031 C7.79117187,13.9261719 7.79117187,14.4207031 8.09664062,14.7253906 C8.40132812,15.0308594 8.89664062,15.0308594 9.20125,14.7253906 C9.50664062,14.4207031 9.50664062,13.9261719 9.20125,13.6207031 Z" id="Path" fill="#454545"></path>
                        <path d="M19.7811719,34.9779688 C20.125625,34.5114063 20.3117969,33.9492969 20.3117969,33.3582813 C20.3117969,31.850625 19.0852344,30.6239844 17.5775,30.6239844 L4.29671875,30.6239844 C3.56601562,30.6239844 2.879375,30.9083594 2.36320313,31.4246875 C1.84679687,31.9409375 1.56242187,32.6275781 1.56242187,33.3582813 C1.56242187,33.9636719 1.76054687,34.5235156 2.09484375,34.9770313 C0.850859375,35.6310937 0,36.9357813 0,38.4361719 L0,39.2174219 C0,39.6489063 0.34984375,39.9986719 0.78125,39.9986719 L21.0929688,39.9986719 C21.524375,39.9986719 21.8742188,39.6489063 21.8742188,39.2174219 L21.8742188,38.4361719 C21.8742188,36.9364844 21.0242188,35.6323438 19.7811719,34.9779688 Z M3.46796875,32.529375 C3.68914062,32.308125 3.98351562,32.1863281 4.29671875,32.1863281 L17.5775,32.1863281 C18.2236719,32.1863281 18.7492969,32.7120312 18.7492969,33.358125 C18.7492969,33.6714062 18.6274219,33.9657031 18.4061719,34.1869531 C18.185,34.4082031 17.890625,34.53 17.5774219,34.53 L4.29671875,34.53 C3.65054687,34.53 3.12492187,34.0042969 3.12492187,33.3582031 C3.12492187,33.045 3.24671875,32.750625 3.46796875,32.529375 Z M1.56242188,38.4361719 C1.56242188,37.1439063 2.61382813,36.0925 3.90609375,36.0925 L4.29671875,36.0925 L17.5775,36.0925 L17.968125,36.0925 C19.2603906,36.0925 20.3117969,37.1439063 20.3117969,38.4361719 L1.56242188,38.4361719 Z" id="Shape" fill="#49BE65"></path>
                        <path d="M39.2728906,32.8221875 C39.0075781,32.4110156 38.6910156,32.0474219 38.331875,31.7414844 L34.6814844,28.5576563 C34.6530469,28.5148438 34.6200781,28.4742188 34.5823437,28.4364844 C34.5189063,28.373125 34.4470312,28.3236719 34.370625,28.2866406 L32.1630469,26.36125 L21.9450781,17.4478906 C22.3633594,17.010625 22.5936719,16.4388281 22.5936719,15.8307813 C22.5936719,15.204375 22.3498438,14.6157031 21.9066406,14.1725781 C21.7133594,13.9795313 21.4936719,13.8277344 21.2589063,13.7165625 L22.2042188,12.77125 C22.4684375,12.8414844 22.7399219,12.8774219 23.0116406,12.8774219 C23.8117187,12.8773438 24.611875,12.5728125 25.2209375,11.96375 C25.8114063,11.3733594 26.1365625,10.5885938 26.1365625,9.75398438 C26.1365625,8.919375 25.8114063,8.13460938 25.2210156,7.54421875 L18.5922656,0.915625 C18.001875,0.325234375 17.2170313,7.8125e-05 16.3821875,7.8125e-05 C15.5477344,7.8125e-05 14.763125,0.325234375 14.1728125,0.915625 C13.356875,1.7315625 13.0882813,2.89007813 13.3653125,3.93242188 L3.93367187,13.3639844 C3.67304687,13.2946875 3.401875,13.258125 3.12484375,13.258125 C2.28984375,13.258125 1.50539062,13.5830469 0.91546875,14.1728906 C-0.30296875,15.3913281 -0.30296875,17.3739063 0.91546875,18.5924219 L7.54414062,25.2211719 C8.1534375,25.8303906 8.95367187,26.135 9.75390625,26.135 C10.5542188,26.135 11.3544531,25.8303906 11.96375,25.2211719 C12.7796875,24.4051563 13.0482813,23.2467188 12.77125,22.204375 L13.7146094,21.2609375 C13.8279688,21.4976562 13.9817969,21.7160938 14.1728906,21.9071094 C14.6155469,22.3497656 15.2040625,22.5935938 15.8303125,22.5935938 C16.4377344,22.5935938 17.0092969,22.3636719 17.4471875,21.9458594 L28.3304688,34.4500781 C28.3604688,34.4969531 28.3954688,34.5415625 28.4364063,34.5825 C28.4503906,34.5964844 28.4652344,34.6092188 28.48,34.621875 L31.7230469,38.3479687 C31.8036719,38.443125 31.8898438,38.5367188 31.9792969,38.6261719 C32.87,39.5165625 34.0464844,39.9997656 35.2816406,39.9997656 C35.499375,39.9997656 35.7191406,39.9847656 35.9392188,39.9542969 C37.4102344,39.7507031 38.6815625,38.8707031 39.4270313,37.5396094 C40.2436719,36.0807813 40.1828906,34.2286719 39.2728906,32.8221875 Z M15.2777344,2.02046875 C15.5729687,1.72523438 15.9653125,1.56257813 16.3822656,1.56257813 C16.7997656,1.56257813 17.1923437,1.72523438 17.4875,2.02046875 L24.11625,8.64914062 C24.4114844,8.944375 24.5740625,9.33679687 24.5740625,9.7540625 C24.5740625,10.1713281 24.4114844,10.56375 24.1161719,10.8589844 C23.5071875,11.468125 22.5160937,11.468125 21.9071094,10.8589844 L15.278125,4.23 C15.2779687,4.22984375 15.2778906,4.22976563 15.2777344,4.22960937 C14.6685937,3.62054688 14.6685937,2.62953125 15.2777344,2.02046875 Z M10.8589063,24.1163281 C10.2496875,24.7255469 9.25820312,24.725625 8.64898437,24.1163281 L2.0203125,17.4876563 C1.41101562,16.8783594 1.41101562,15.8871094 2.0203125,15.2777344 C2.315,14.9829687 2.70734375,14.820625 3.12484375,14.820625 C3.54226562,14.820625 3.934375,14.9828906 4.22898437,15.2774219 L10.8588281,21.9072656 C11.4680469,22.51625 11.4680469,23.5073438 10.8589063,24.1163281 Z M14.148125,18.6178906 L11.9636719,20.8024219 L5.33429687,14.1730469 L14.1728125,5.334375 L20.8021094,11.96375 L18.6136719,14.1522656 C18.6065625,14.1589844 18.5996094,14.1655469 18.5921094,14.1729687 L14.1750781,18.5900781 C14.1659375,18.5990625 14.1571094,18.6084375 14.148125,18.6178906 Z M16.9376562,20.2476563 C16.9360937,20.2492188 16.9346094,20.2507031 16.9330469,20.2522656 L16.3828906,20.8024219 C16.2353125,20.9499219 16.0391406,21.0311719 15.8302344,21.0311719 C15.6214062,21.0311719 15.4251562,20.9499219 15.2776562,20.8023438 C15.1299219,20.6546875 15.0485937,20.4582813 15.0485937,20.2492969 C15.0485937,20.0447656 15.1266406,19.8523438 15.2682812,19.7071875 L19.7058594,15.2696094 C20.01,14.9738281 20.5017187,14.9775 20.8022656,15.2777344 C20.9499219,15.4253906 21.03125,15.6217969 21.03125,15.8307813 C21.03125,16.0396094 20.9501562,16.2354688 20.8021875,16.3830469 L20.2552344,16.93 C20.2514844,16.9336719 20.2477344,16.9374219 20.2440625,16.9411719 L16.9376562,20.2476563 Z M18.5554687,20.8394531 L20.83875,18.5561719 L30.5060937,26.9885938 L26.9784375,30.5163281 L18.5554687,20.8394531 Z M28.0066406,31.6977344 L31.68625,28.0180469 L32.8664844,29.0475 L29.0348438,32.8792188 L28.0066406,31.6977344 Z M38.0638281,36.7763281 C37.5596094,37.6765625 36.7071875,38.2707031 35.7250781,38.4066406 C34.7452344,38.5422656 33.7825,38.2195313 33.0839063,37.52125 C33.0238281,37.46125 32.9663281,37.3986719 32.9127344,37.3352344 C32.9102344,37.3322656 32.9077344,37.3292969 32.9051563,37.3264063 L30.0629688,34.060625 L34.0466406,30.076875 L37.3083594,32.9219531 C37.3107813,32.9241406 37.3132813,32.92625 37.3158594,32.9284375 C37.56,33.1360156 37.7766406,33.3853125 37.9604688,33.6701562 C38.55125,34.5830469 38.5926563,35.8314844 38.0638281,36.7763281 Z" id="Shape" fill="#454545"></path>
                        <path d="M14.7253125,8.0965625 C14.4201562,7.79148437 13.925625,7.79148437 13.6204688,8.0965625 L10.3057813,11.41125 C10.0007031,11.7163281 10.0007031,12.2110156 10.3057813,12.5160156 C10.4583594,12.6685937 10.6582812,12.7448437 10.8582031,12.7448437 C11.058125,12.7448437 11.2580469,12.6685156 11.410625,12.5160156 L14.7253125,9.20132812 C15.0303906,8.89632812 15.0303906,8.40171875 14.7253125,8.0965625 Z" id="Path" fill="#454545"></path>
                    </g>
                </g>
            </g>
        </g>
    </g>
</svg>