<?xml version="1.0" encoding="UTF-8"?>
<svg width="40px" height="36px" viewBox="0 0 40 36" version="1.1" xmlns="http://www.w3.org/2000/svg" xmlns:xlink="http://www.w3.org/1999/xlink">
    <!-- Generator: Sketch 63.1 (92452) - https://sketch.com -->
    <title>Icon</title>
    <desc>Created with Sketch.</desc>
    <g id="Page-1" stroke="none" stroke-width="1" fill="none" fill-rule="evenodd">
        <g id="Pricing-Page" transform="translate(-847.000000, -1328.000000)" fill-rule="nonzero">
            <g id="How-do-auctions-work?" transform="translate(163.000000, 1191.000000)">
                <g id="#3" transform="translate(586.000000, 105.000000)">
                    <g id="Icon" transform="translate(98.000000, 32.000000)">
                        <path d="M20,7.8125 C19.5687866,7.8125 19.21875,8.16253664 19.21875,8.59375 C19.21875,9.02496336 19.5687866,9.375 20,9.375 C20.4312134,9.375 20.78125,9.02496336 20.78125,8.59375 C20.78125,8.16253664 20.4312134,7.8125 20,7.8125 Z" id="Path" fill="#454545"></path>
                        <path d="M7.03125,21.875 C7.46246336,21.875 7.8125,21.5249634 7.8125,21.09375 C7.8125,20.6625366 7.46246336,20.3125 7.03125,20.3125 C6.60003664,20.3125 6.25,20.6625366 6.25,21.09375 C6.25,21.5249634 6.60003664,21.875 7.03125,21.875 Z" id="Path" fill="#49BE65"></path>
                        <path d="M35.6887817,18.2519531 C35.5987548,18.3447266 35.5331421,18.458252 35.4977417,18.5821533 C35.0497437,20.1580811 35.237732,21.8212891 35.9741211,23.2321167 C34.6377563,22.9019165 33.4112548,22.1826172 32.4679566,21.1514282 C32.2485352,20.9121704 31.9039917,20.8328247 31.602478,20.953064 C30.3826905,21.4382934 28.6425781,21.774292 26.9998169,21.8554688 C26.7715454,18.901062 25.2978516,16.1242676 22.7783203,14.0625 L32.96875,14.0625 C33.4002686,14.0625 33.75,13.7127686 33.75,13.28125 C33.75,12.8497314 33.4002686,12.5 32.96875,12.5 L20.3781128,12.5 C18.6047363,11.59729 16.6134644,11.0708618 14.5639038,10.9603882 C15.0128173,5.71319578 20.0827027,1.5625 26.25,1.5625 C32.8564453,1.5625 38.4375,6.21337891 38.4375,11.71875 C38.4375,14.1061402 37.4612427,16.4263916 35.6887817,18.2519531 Z M26.25,0 C19.2166138,0 13.4439087,4.84924313 12.9974366,10.9573364 C6.29913328,11.293335 0,16.123352 0,22.65625 C0,25.3863525 1.08032227,28.0316162 3.046875,30.1275634 C3.43597414,31.7315673 2.96356203,33.4317016 1.79138187,34.6038819 C1.56799312,34.8272705 1.50115969,35.1632691 1.6220093,35.4553223 C1.74285891,35.7470703 2.02758789,35.9375 2.34375,35.9375 C4.57183836,35.9375 6.71905516,35.0637817 8.31451414,33.5241699 C9.86877438,34.0539551 11.8966675,34.375 13.75,34.375 C20.7824707,34.375 26.5545655,29.5269775 27.0022583,23.420105 C28.6380005,23.3474731 30.3393555,23.0453491 31.6854859,22.5866699 C33.2809448,24.1262817 35.4281616,25 37.65625,25 C37.9724121,25 38.2571411,24.8095703 38.3779907,24.5178223 C38.4988403,24.2257691 38.4320069,23.8897705 38.2086181,23.6663819 C37.036438,22.4942016 36.5640259,20.7940673 36.953125,19.1900634 C38.9196777,17.0941162 40,14.4488525 40,11.71875 C40,4.93072508 33.2156372,0 26.25,0 Z M13.75,32.8125 C11.906128,32.8125 9.80499266,32.4505616 8.39752195,31.890564 C8.09600828,31.7703247 7.75146484,31.8493652 7.53204344,32.0889282 C6.58874516,33.1201172 5.36224367,33.8391113 4.02587891,34.1696167 C4.76226805,32.7587891 4.95025633,31.0955811 4.50225828,29.5196533 C4.46685789,29.3954468 4.40124516,29.2819214 4.31121828,29.1894531 C2.53875734,27.3638916 1.5625,25.0436402 1.5625,22.65625 C1.5625,17.1508789 7.14355469,12.5 13.75,12.5 C19.9884033,12.5 25.46875,16.8380737 25.46875,22.65625 C25.46875,28.2565308 20.211792,32.8125 13.75,32.8125 Z" id="Shape" fill="#454545"></path>
                        <path d="M20,20.3125 L10.15625,20.3125 C9.72473141,20.3125 9.375,20.6622314 9.375,21.09375 C9.375,21.5252686 9.72473141,21.875 10.15625,21.875 L20,21.875 C20.4315186,21.875 20.78125,21.5252686 20.78125,21.09375 C20.78125,20.6622314 20.4315186,20.3125 20,20.3125 Z" id="Path" fill="#49BE65"></path>
                        <path d="M20,25 L7.03125,25 C6.59973141,25 6.25,25.3497314 6.25,25.78125 C6.25,26.2127686 6.59973141,26.5625 7.03125,26.5625 L20,26.5625 C20.4315186,26.5625 20.78125,26.2127686 20.78125,25.78125 C20.78125,25.3497314 20.4315186,25 20,25 Z" id="Path" fill="#49BE65"></path>
                        <path d="M32.96875,7.8125 L23.125,7.8125 C22.6934814,7.8125 22.34375,8.16223141 22.34375,8.59375 C22.34375,9.02526859 22.6934814,9.375 23.125,9.375 L32.96875,9.375 C33.4002686,9.375 33.75,9.02526859 33.75,8.59375 C33.75,8.16223141 33.4002686,7.8125 32.96875,7.8125 Z" id="Path" fill="#454545"></path>
                    </g>
                </g>
            </g>
        </g>
    </g>
</svg>