<svg id="car" xmlns="http://www.w3.org/2000/svg" width="75" height="72.5" viewBox="0 0 75 72.5">
  <path id="Shape" d="M0,6.25A6.25,6.25,0,1,1,6.25,12.5,6.257,6.257,0,0,1,0,6.25Z" transform="translate(8.75 60)" fill="#454545"/>
  <circle id="Oval" cx="1.25" cy="1.25" r="1.25" transform="translate(56.25 65)" fill="#454545"/>
  <path id="Path" d="M0,0H2.5V12.5H0Z" transform="translate(30 35)" fill="#454545"/>
  <path id="Path-2" data-name="Path" d="M0,1.25V7.27A3.745,3.745,0,0,0,2.5,3.75V0H1.25A1.251,1.251,0,0,0,0,1.25Z" transform="translate(1.25 50)" fill="#454545"/>
  <circle id="Oval-2" data-name="Oval" cx="1.25" cy="1.25" r="1.25" transform="translate(13.75 65)" fill="#454545"/>
  <path id="Path-3" data-name="Path" d="M6.375,4,0,12.5H17.5V0H14.375A10.05,10.05,0,0,0,6.375,4Z" transform="translate(10 35)" fill="#454545"/>
  <path id="Path-4" data-name="Path" d="M0,0V12.5H24.3L13.634,2.652A9.967,9.967,0,0,0,6.851,0Z" transform="translate(35 35)" fill="#454545"/>
  <path id="Path-5" data-name="Path" d="M1.25,0H0V2.5A2.5,2.5,0,0,0,2.5,5H5V3.75A3.755,3.755,0,0,0,1.25,0Z" transform="translate(68.75 50)" fill="#454545"/>
  <path id="Shape-2" data-name="Shape" d="M64.9,15a8.738,8.738,0,0,0-17.3,0H22.4A8.738,8.738,0,0,0,5.1,15H0V9.874A6.263,6.263,0,0,0,5,3.75V0H65V2.5a5,5,0,0,0,5,5h2.5V15Z" transform="translate(1.25 50)" fill="#454545"/>
  <path id="Shape-3" data-name="Shape" d="M0,6.25A6.25,6.25,0,1,1,6.25,12.5,6.257,6.257,0,0,1,0,6.25Z" transform="translate(51.25 60)" fill="#454545"/>
  <path id="Shape-4" data-name="Shape" d="M0,13.75A13.75,13.75,0,1,1,13.75,27.5,13.766,13.766,0,0,1,0,13.75Z" transform="translate(23.75)" fill="#fcb017"/>
  <path id="Path-6" data-name="Path" d="M5,8.75h6.25V12.5L17.5,6.25,11.25,0V3.75H0V25H5Z" transform="translate(0 7.5)" fill="#454545"/>
  <path id="Path-7" data-name="Path" d="M6.25,3.75V0L0,6.25,6.25,12.5V8.75H12.5V25h5V3.75Z" transform="translate(57.5 7.5)" fill="#454545"/>
</svg>
