<svg id="credit-card_copy" data-name="credit-card copy" xmlns="http://www.w3.org/2000/svg" width="32.492" height="20.781" viewBox="0 0 32.492 20.781">
  <path id="Shape" d="M29.107,20.781H3.385A3.322,3.322,0,0,1,0,17.534V3.247A3.322,3.322,0,0,1,3.385,0H29.107a3.322,3.322,0,0,1,3.385,3.247V17.534A3.322,3.322,0,0,1,29.107,20.781ZM3.385,1.3A1.993,1.993,0,0,0,1.354,3.247V17.534a1.993,1.993,0,0,0,2.031,1.948H29.107a1.993,1.993,0,0,0,2.031-1.948V3.247A1.993,1.993,0,0,0,29.107,1.3Z" fill="#fcb017"/>
  <path id="Shape-2" data-name="Shape" d="M31.815,4.948H.677A.651.651,0,0,1,0,4.329V.618A.65.65,0,0,1,.677,0H31.815a.65.65,0,0,1,.677.618V4.329A.651.651,0,0,1,31.815,4.948ZM1.354,1.237V3.711H31.137V1.237Z" transform="translate(0 3.464)" fill="#fcb017"/>
  <path id="Path" d="M9.143,0H.7C.315,0,0,.222,0,.495S.315.99.7.99H9.143c.388,0,.7-.222.7-.495S9.531,0,9.143,0Z" transform="translate(3.481 12.7)" fill="#fcb017"/>
  <path id="Path-2" data-name="Path" d="M9.143,0H.7C.315,0,0,.222,0,.495S.315.99.7.99H9.143c.388,0,.7-.222.7-.495S9.531,0,9.143,0Z" transform="translate(3.481 15.009)" fill="#fcb017"/>
  <path id="Shape-3" data-name="Shape" d="M3.077,4.948H1.846A1.853,1.853,0,0,1,0,3.092V1.856A1.853,1.853,0,0,1,1.846,0H3.077A1.853,1.853,0,0,1,4.923,1.856V3.092A1.853,1.853,0,0,1,3.077,4.948ZM1.846,1.237a.618.618,0,0,0-.616.619V3.092a.618.618,0,0,0,.616.618H3.077a.617.617,0,0,0,.615-.618V1.856a.618.618,0,0,0-.615-.619Z" transform="translate(22.048 10.391)" fill="#fcb017"/>
</svg>
