<svg xmlns="http://www.w3.org/2000/svg" width="17" height="17" viewBox="0 0 17 17">
  <path id="Shape" d="M15.937,17H1.063A1.064,1.064,0,0,1,0,15.937V1.063A1.064,1.064,0,0,1,1.063,0H2.125V3.188h4.25V0h4.251V3.188h4.25V0h1.062A1.064,1.064,0,0,1,17,1.063V15.937A1.064,1.064,0,0,1,15.937,17ZM2.125,5.313v9.563h12.75V5.313ZM12.75,12.75H10.625V10.625H12.75v2.124Zm-3.188,0H7.438V10.625H9.563v2.124Zm-3.188,0H4.25V10.625H6.375v2.124ZM12.75,9.563H10.625V7.438H12.75V9.561Zm-3.188,0H7.438V7.438H9.563V9.561Zm-3.188,0H4.25V7.438H6.375V9.561Zm7.438-7.438H11.687V0h2.125V2.124Zm-8.5,0H3.188V0H5.313V2.124Z" transform="translate(0 0)" fill="#b1bfcd"/>
</svg>
