<?xml version="1.0" encoding="UTF-8"?>
<svg width="23px" height="20px" viewBox="0 0 23 20" version="1.1" xmlns="http://www.w3.org/2000/svg" xmlns:xlink="http://www.w3.org/1999/xlink">
    <!-- Generator: Sketch 63.1 (92452) - https://sketch.com -->
    <title>Camera Icon</title>
    <desc>Created with Sketch.</desc>
    <g id="Page-1" stroke="none" stroke-width="1" fill="none" fill-rule="evenodd">
        <g id="1-My-Account" transform="translate(-272.000000, -374.000000)" fill="#D4D5D6" fill-rule="nonzero">
            <g id="My-Details" transform="translate(165.000000, 280.000000)">
                <g id="Camera-Icon" transform="translate(107.000000, 94.000000)">
                    <path d="M13.4013176,8.23868242 C14.5728941,9.41025897 14.5728941,11.309741 13.4013176,12.4813176 C12.229741,13.6528941 10.330259,13.6528941 9.15868242,12.4813176 C7.98710586,11.309741 7.98710586,9.41025897 9.15868242,8.23868242 C10.330259,7.06710586 12.229741,7.06710586 13.4013176,8.23868242" id="Path"></path>
                    <path d="M20.1249058,2.85714954 L18.1384403,2.85714954 L16.7002105,0 L6.29837693,0 L4.8615126,2.85855334 L2.87787232,2.86206283 C1.29645045,2.86487043 0.00908781958,4.14555511 0.00772229228,5.71780858 L0,17.1421486 C0,18.7179115 1.28943446,20 2.87509417,20 L20.1249058,20 C21.7105655,20 23,18.7186134 23,17.1428505 L23,5.71425229 C23,4.13853612 21.7105184,2.85714954 20.1249058,2.85714954 Z M11.4996233,16.4285514 C8.32901019,16.4285514 5.74943495,13.8650763 5.74943495,10.7142523 C5.74943495,7.56342826 8.32901019,4.99995321 11.4996233,4.99995321 C14.6702364,4.99995321 17.2498117,7.56342826 17.2498117,10.7142523 C17.2498117,13.8650763 14.6702364,16.4285514 11.4996233,16.4285514 Z" id="Shape"></path>
                </g>
            </g>
        </g>
    </g>
</svg>