<svg xmlns="http://www.w3.org/2000/svg" width="549.777" height="271.445" viewBox="0 0 549.777 271.445">
  <g id="Group_790" data-name="Group 790" transform="translate(-0.144 -0.061)">
    <path id="Fill_382" data-name="Fill 382" d="M0,139.939l144.119,6.93,369.71-6.752c7.672-.787,17.536-2.662,23.512-5.48a21.777,21.777,0,0,0,12.4-19.149,118.552,118.552,0,0,0-7.908-45.529l-6.39-10.808a33.221,33.221,0,0,0-27.608-16.3l-28.361-.842C429.17,15.591,363.491.976,280.041,0a67.087,67.087,0,0,0-28.62,6.023L164.441,45.71,68.825,52.4C40.208,54.091,0,77.792,0,106.459v33.48" transform="translate(0.144 85.933)" fill="#de9d19"/>
    <path id="Fill_384" data-name="Fill 384" d="M18.289,38.511l95.616-6.694L183.645,0V29.044H458.612A33.212,33.212,0,0,1,484.9,45.26l6.39,10.808A118.546,118.546,0,0,1,499.2,101.6a21.777,21.777,0,0,1-12.4,19.149c-5.976,2.818-15.84,4.693-23.512,5.48l-369.71,6.752-87.314-4.2L0,65.358c0-6.742,11.444-26.43,18.174-26.841l.115-.006" transform="translate(50.68 99.826)" fill="#fcb017"/>
    <path id="Fill_385" data-name="Fill 385" d="M4.333,56.632C14.073,22.886,45.464,0,80.589,0a80.3,80.3,0,0,1,59.352,26.071c12.213,13.386,24.5,29.414,36.021,42.687l.793.067,190.225.214V83.046L172.525,86.6l-51.271.937L.693,81.736,0,81.7A123.838,123.838,0,0,1,4.333,56.632" transform="translate(32.709 141.111)" fill="#ffcf6e"/>
    <path id="Fill_386" data-name="Fill 386" d="M4.333,56.632C14.073,22.884,45.464,0,80.589,0h0a80.3,80.3,0,0,1,59.353,26.071c12.211,13.386,24.5,29.414,36.021,42.687l.792.067,198.476.222c.028-1.1.086-2.2.2-3.281l0-.036h0c2.447-24.036,24.752-42.858,51.911-42.858,16.581,0,31.348,7.019,40.9,17.955l19.546-6.415,35.63-9.47a116.082,116.082,0,0,1,3.458,31.21,21.78,21.78,0,0,1-12.4,19.149c-5.976,2.818-15.84,4.693-23.512,5.48L172.525,86.6l-51.271.937L.693,81.736,0,81.7A123.829,123.829,0,0,1,4.333,56.632" transform="translate(23.009 145.269)" fill="#de9d19"/>
    <path id="Fill_387" data-name="Fill 387" d="M0,52.92,1.582,40.349C4.423,16.872,26.386-.517,51.378.012c40.321.853,48.9,30.46,50.132,51.1L0,52.92" transform="translate(399.618 175.22)" fill="#000206"/>
    <path id="Fill_388" data-name="Fill 388" d="M0,41.716A41.716,41.716,0,1,0,41.717,0,41.718,41.718,0,0,0,0,41.716" transform="translate(409.425 184.165)" fill="#282928"/>
    <path id="Fill_389" data-name="Fill 389" d="M31.058,62.118A31.067,31.067,0,0,1,18.969,2.441,31.067,31.067,0,0,1,43.148,59.677,30.866,30.866,0,0,1,31.058,62.118Zm8.4-18.626a14.859,14.859,0,0,1-5.551,2.294V56.4a25.381,25.381,0,0,0,13.053-5.41Zm-16.8,0h0l-7.5,7.5A25.394,25.394,0,0,0,28.207,56.4V45.786a14.856,14.856,0,0,1-5.549-2.294Zm23.128-9.582a14.848,14.848,0,0,1-2.294,5.55l7.5,7.5A25.392,25.392,0,0,0,56.4,33.909H45.786Zm-40.072,0a25.368,25.368,0,0,0,5.41,13.053l7.5-7.5a14.822,14.822,0,0,1-2.294-5.55H5.714Zm45.28-18.755-7.5,7.5a14.856,14.856,0,0,1,2.294,5.549H56.4A25.392,25.392,0,0,0,50.994,15.154Zm-39.87,0a25.368,25.368,0,0,0-5.41,13.053H16.332a14.829,14.829,0,0,1,2.294-5.549ZM33.909,5.713V16.332a14.859,14.859,0,0,1,5.551,2.292l7.5-7.5A25.367,25.367,0,0,0,33.909,5.713Zm-5.7,0a25.379,25.379,0,0,0-13.053,5.411l7.5,7.5a14.855,14.855,0,0,1,5.549-2.292V5.713Z" transform="translate(420.033 194.822)" fill="#b1b3af"/>
    <path id="Fill_390" data-name="Fill 390" d="M20.406,10.2A10.2,10.2,0,1,1,10.2,0a10.2,10.2,0,0,1,10.2,10.2" transform="translate(440.889 215.678)" fill="#565a57"/>
    <path id="Fill_391" data-name="Fill 391" d="M7.817,3.909A3.909,3.909,0,1,1,3.909,0,3.908,3.908,0,0,1,7.817,3.909" transform="translate(447.182 221.972)" fill="#b1b3af"/>
    <path id="Fill_392" data-name="Fill 392" d="M42.193,0A41.717,41.717,0,0,0,0,41.236l5.411.063a36.3,36.3,0,0,1,72.6.836l5.411.063A41.717,41.717,0,0,0,42.193,0" transform="translate(409.428 184.132)" fill="#4c4f4e"/>
    <path id="Fill_393" data-name="Fill 393" d="M72.6,36.723h0l-5.294-.061c0-.11,0-.216,0-.326A31.061,31.061,0,0,0,12.194,16.69L10.178,11.1A36.2,36.2,0,0,1,36.293,0l.281,0h.147A36.276,36.276,0,0,1,72.6,36.722ZM.337,35.89h0l-.335,0c0-.214.008-.418.014-.643l.318.637,0,.008Zm61.26-2.4H50.979a14.856,14.856,0,0,0-2.294-5.55l7.5-7.5A25.391,25.391,0,0,1,61.6,33.484Zm-40.071,0H18.249L14.485,23.044a25.733,25.733,0,0,1,1.832-2.612l7.5,7.5a14.841,14.841,0,0,0-2.293,5.549ZM44.654,23.9h0A14.844,14.844,0,0,0,39.1,21.611V10.991A25.381,25.381,0,0,1,52.155,16.4l-7.5,7.5Zm-16.8,0h0l-7.5-7.5A25.393,25.393,0,0,1,33.4,10.991v10.62a14.838,14.838,0,0,0-5.55,2.292Z" transform="translate(414.839 189.544)" fill="#252726"/>
    <path id="Fill_394" data-name="Fill 394" d="M55.116,31.384h0l-20.854-.241v-.085a10.2,10.2,0,0,0-20.406-.15L7,30.83l-.945-2.623H9.332a14.829,14.829,0,0,1,2.294-5.549l-7.5-7.5a25.742,25.742,0,0,0-1.832,2.612L0,11.411a31.078,31.078,0,0,1,52.677,7.558,30.861,30.861,0,0,1,2.441,12.089c0,.109,0,.215,0,.325ZM43.994,15.154l-7.5,7.5a14.856,14.856,0,0,1,2.294,5.549H49.4A25.392,25.392,0,0,0,43.994,15.154ZM26.908,5.713V16.332a14.861,14.861,0,0,1,5.552,2.292l7.5-7.5A25.373,25.373,0,0,0,26.908,5.713Zm-5.7,0A25.379,25.379,0,0,0,8.154,11.124l7.5,7.5a14.857,14.857,0,0,1,5.55-2.292V5.713Z" transform="translate(427.033 194.822)" fill="#6f7470"/>
    <path id="Fill_395" data-name="Fill 395" transform="translate(410.18 184.133)" fill="#0b0e0f"/>
    <path id="Fill_396" data-name="Fill 396" d="M20.406,10.286l-6.295-.072V10.2a3.908,3.908,0,0,0-7.816-.077L0,10.052a10.2,10.2,0,0,1,20.406.15v.084" transform="translate(440.889 215.678)" fill="#404341"/>
    <path id="Fill_397" data-name="Fill 397" d="M7.816,3.921,0,3.832a3.908,3.908,0,0,1,7.816.077v.013" transform="translate(447.184 221.972)" fill="#6f7470"/>
    <path id="Fill_398" data-name="Fill 398" d="M83.426,42.2h0l-5.41-.062A36.347,36.347,0,0,0,42.132,5.414h-.145l-.283,0a36,36,0,0,0-26.115,11.1l-2.015-5.587A41.585,41.585,0,0,1,41.7,0H41.7c.162,0,.327,0,.49,0A41.681,41.681,0,0,1,83.429,41.723c0,.156,0,.314,0,.471ZM5.411,41.3h0L0,41.235a42.1,42.1,0,0,1,.751-7.453c.108-.565.236-1.158.378-1.762,1.34,2.71,2.785,5.615,4.3,8.635-.007.25-.012.453-.014.642Z" transform="translate(409.428 184.133)" fill="#3a3d3c"/>
    <path id="Fill_399" data-name="Fill 399" d="M0,62.649l2.9-22.3C5.745,16.872,27.708-.517,52.7.012c60.577,1.282,49.877,67.605,49.877,67.605L0,62.649" transform="translate(40.953 165.185)" fill="#000206"/>
    <path id="Fill_400" data-name="Fill 400" d="M0,41.715A41.716,41.716,0,1,0,41.716,0,41.716,41.716,0,0,0,0,41.715" transform="translate(52.083 174.13)" fill="#282928"/>
    <path id="Fill_401" data-name="Fill 401" d="M31.059,62.12A31.068,31.068,0,0,1,18.97,2.441,31.068,31.068,0,0,1,43.149,59.679,30.865,30.865,0,0,1,31.059,62.12Zm8.4-18.626a14.85,14.85,0,0,1-5.55,2.292V56.4A25.385,25.385,0,0,0,46.964,51Zm-16.8,0h0l-7.5,7.5A25.378,25.378,0,0,0,28.209,56.4V45.786a14.852,14.852,0,0,1-5.55-2.292Zm23.127-9.582a14.854,14.854,0,0,1-2.293,5.549l7.5,7.5A25.392,25.392,0,0,0,56.4,33.911H45.786Zm-40.072,0a25.391,25.391,0,0,0,5.41,13.053l7.5-7.5a14.856,14.856,0,0,1-2.293-5.549H5.714ZM50.995,15.156l-7.5,7.5a14.858,14.858,0,0,1,2.293,5.55H56.4A25.392,25.392,0,0,0,50.995,15.156Zm-39.871,0a25.392,25.392,0,0,0-5.41,13.053H16.333a14.858,14.858,0,0,1,2.293-5.55ZM33.91,5.714v10.62a14.854,14.854,0,0,1,5.55,2.292l7.5-7.5A25.394,25.394,0,0,0,33.91,5.714Zm-5.7,0a25.387,25.387,0,0,0-13.053,5.411l7.5,7.5a14.854,14.854,0,0,1,5.55-2.292V5.714Z" transform="translate(62.689 184.786)" fill="#b1b3af"/>
    <path id="Fill_402" data-name="Fill 402" d="M20.406,10.2A10.2,10.2,0,1,1,10.2,0a10.2,10.2,0,0,1,10.2,10.2" transform="translate(83.545 205.642)" fill="#565a57"/>
    <path id="Fill_403" data-name="Fill 403" d="M7.818,3.909A3.909,3.909,0,1,1,3.909,0,3.908,3.908,0,0,1,7.818,3.909" transform="translate(89.839 211.937)" fill="#b1b3af"/>
    <path id="Fill_404" data-name="Fill 404" d="M42.193,0A41.717,41.717,0,0,0,0,41.236l5.411.063a36.3,36.3,0,0,1,72.6.836l5.411.063A41.716,41.716,0,0,0,42.193,0" transform="translate(52.086 174.098)" fill="#4c4f4e"/>
    <path id="Fill_405" data-name="Fill 405" d="M72.6,36.723h0l-5.295-.061c0-.11,0-.215,0-.326a31.291,31.291,0,0,0-.562-5.911c1.186-2.4,2.357-4.78,3.479-7.071A36.1,36.1,0,0,1,72.6,36.722Zm-67.41-.776h0L0,35.887A36.275,36.275,0,0,1,36.293,0c.139,0,.283,0,.427,0A36.161,36.161,0,0,1,56.408,6.071l-1.861,5.163a30.819,30.819,0,0,0-18.3-5.959A31.171,31.171,0,0,0,5.194,35.946Zm16.331-2.462H10.906a25.392,25.392,0,0,1,5.41-13.054l7.5,7.5a14.855,14.855,0,0,0-2.293,5.549ZM44.653,23.9h0a14.84,14.84,0,0,0-5.55-2.292V10.991A25.387,25.387,0,0,1,52.155,16.4l-7.5,7.5Zm-16.8,0h0l-7.5-7.5A25.393,25.393,0,0,1,33.4,10.991v10.62A14.837,14.837,0,0,0,27.85,23.9Z" transform="translate(57.497 179.51)" fill="#252726"/>
    <path id="Fill_406" data-name="Fill 406" d="M62.114,31.385h0l-3.632-.041c1.078-2.166,2.083-4.192,3.073-6.2a31.235,31.235,0,0,1,.563,5.912c0,.109,0,.215,0,.324Zm-41.26-.475h0L0,30.67A31.062,31.062,0,0,1,49.353,5.959L41.05,28.99a10.2,10.2,0,0,0-20.2,1.919ZM11.121,15.156A25.383,25.383,0,0,0,5.712,28.209H16.331a14.858,14.858,0,0,1,2.293-5.55ZM33.908,5.714v10.62a14.845,14.845,0,0,1,5.55,2.292l7.5-7.5A25.394,25.394,0,0,0,33.908,5.714Zm-5.7,0a25.388,25.388,0,0,0-13.053,5.411l7.5,7.5a14.857,14.857,0,0,1,5.55-2.292V5.714Z" transform="translate(62.691 184.786)" fill="#6f7470"/>
    <path id="Fill_407" data-name="Fill 407" d="M0,41.237H0A41.716,41.716,0,0,1,41.7,0,41.716,41.716,0,0,0,0,41.237H0" transform="translate(52.085 174.097)" fill="#0b0e0f"/>
    <path id="Fill_408" data-name="Fill 408" d="M1.6.088,0,.069H0L1.6.088" transform="translate(52.085 215.265)" fill="#252726"/>
    <path id="Fill_409" data-name="Fill 409" d="M19.422,10.277l-5.311-.061V10.2a3.909,3.909,0,0,0-7.817-.077L0,10.053a10.2,10.2,0,0,1,20.195-1.92l-.773,2.144" transform="translate(83.546 205.642)" fill="#404341"/>
    <path id="Fill_410" data-name="Fill 410" d="M7.817,3.921,0,3.832a3.909,3.909,0,0,1,7.817.077v.013" transform="translate(89.84 211.937)" fill="#6f7470"/>
    <path id="Fill_411" data-name="Fill 411" d="M83.426,42.2h0l-5.41-.063A36.113,36.113,0,0,0,75.64,28.766c1.06-2.162,2.148-4.392,3.084-6.314a41.511,41.511,0,0,1,4.705,19.273c0,.155,0,.315,0,.472ZM5.412,41.3h0L1.6,41.255,0,41.237A41.681,41.681,0,0,1,41.7,0l.327,0h.163A41.63,41.63,0,0,1,63.7,6.26L61.82,11.483A36.165,36.165,0,0,0,42.131,5.415c-.143,0-.281,0-.427,0A36.427,36.427,0,0,0,5.412,41.3Z" transform="translate(52.086 174.097)" fill="#3a3d3c"/>
    <path id="Fill_412" data-name="Fill 412" d="M215.592,0,0,13.967,228.453,8.3A33.8,33.8,0,0,0,215.592,0" transform="translate(302.572 130.725)" fill="#f3f4f1"/>
    <path id="Fill_413" data-name="Fill 413" d="M9.759,18.938l8.331-.859a.56.56,0,0,0,.44-.812C14.7,9.875,10.106,3.032,6.64,0H1.079A1.077,1.077,0,0,0,.137,1.6L9.759,18.938" transform="translate(523.08 137.763)" fill="#ae353e"/>
    <path id="Fill_414" data-name="Fill 414" d="M0,0A322.771,322.771,0,0,1,36.707,8.511a.924.924,0,0,1,.441.191l16.786,13.43a.9.9,0,0,1,.341.707v6.3a.907.907,0,0,1-.884.906L14.9,31.437,0,0" transform="translate(365.757 100.1)" fill="#5d6b7f"/>
    <path id="Fill_415" data-name="Fill 415" d="M0,0A212.059,212.059,0,0,1,26.97,6.4a.746.746,0,0,1,.36.156l13.7,10.962a.743.743,0,0,1,.279.577v5.146a.739.739,0,0,1-.721.739L11.9,25.117,0,0" transform="translate(368.752 106.42)" fill="#83aace"/>
    <path id="Fill_416" data-name="Fill 416" d="M.452,42.987C15.225,30.255,38.541,15.164,64.488,3.833A46.7,46.7,0,0,1,86.928.156c19.615,1.577,59.5,5.112,78.829,8.495l14.2,31.67L.931,44.677a.907.907,0,0,1-.479-1.69" transform="translate(196.188 91.246)" fill="#5d6b7f"/>
    <path id="Fill_417" data-name="Fill 417" d="M.5,35.43C12.833,24.8,32.292,12.655,53.948,3.2A38.952,38.952,0,0,1,72.675.13c16.37,1.316,49.984,4.267,66.113,7.09l11.53,25.71L.372,36.577c-.49-.28-.545-.753.131-1.147" transform="translate(225.832 98.637)" fill="#83aace"/>
    <path id="Fill_418" data-name="Fill 418" d="M2.887,5.774h16.4a2.887,2.887,0,0,0,0-5.774H2.887a2.887,2.887,0,0,0,0,5.774" transform="translate(350.737 140.65)" fill="#494e51"/>
    <path id="Fill_419" data-name="Fill 419" d="M5.968,17.1a6.963,6.963,0,0,0,2.957-1.347L23.514,0C12.472,5.728,5.321,11.509,0,18.26L5.968,17.1" transform="translate(10.855 148.777)" fill="#f0a74c"/>
    <path id="Fill_420" data-name="Fill 420" d="M43.648,50.167,0,26.121,14.391,0,59.447,24.823A3.434,3.434,0,0,1,60.8,29.49L50.5,48.183a5.044,5.044,0,0,1-6.853,1.984" transform="translate(192.689 131.082)" fill="#a10f36"/>
    <path id="Fill_421" data-name="Fill 421" d="M18.864,0,5.979,3.247A8.46,8.46,0,0,0,.333,13.5l4.14,12.626L18.864,0" transform="translate(188.216 131.082)" fill="#a10f36"/>
    <path id="Fill_422" data-name="Fill 422" d="M43.648,50.167,0,26.121,14.389,0,59.447,24.823A3.437,3.437,0,0,1,60.8,29.49L50.5,48.183a5.044,5.044,0,0,1-6.853,1.984" transform="translate(191.805 126.563)" fill="#e81f54"/>
    <path id="Fill_423" data-name="Fill 423" d="M18.863,0,5.979,3.247A8.459,8.459,0,0,0,.334,13.5l4.14,12.626L18.863,0" transform="translate(187.331 126.563)" fill="#e81f54"/>
    <path id="Fill_424" data-name="Fill 424" d="M3.99,3.153A2.127,2.127,0,1,1,3.152.264,2.127,2.127,0,0,1,3.99,3.153" transform="translate(190.515 133.994)" fill="#df4f4d"/>
    <path id="Fill_425" data-name="Fill 425" d="M39.5,37.763,0,16,8.817,0l39.5,21.759-8.817,16" transform="translate(198.749 133.904)" fill="#3bb95a"/>
    <path id="Fill_426" data-name="Fill 426" d="M4.256,8.029a1.276,1.276,0,0,0,.111-1.02,3.522,3.522,0,0,0-.828-1.25A4.272,4.272,0,0,1,2.377,3.935a2.287,2.287,0,0,1,.261-1.709,2.354,2.354,0,0,1,1.3-1.159,2.483,2.483,0,0,1,1.773.1L6.362,0l.8.44L6.511,1.618a2.353,2.353,0,0,1,.984,1.526,3.094,3.094,0,0,1-.452,2L6.059,4.6a2.135,2.135,0,0,0,.3-1.4,1.344,1.344,0,0,0-.723-.98,1.534,1.534,0,0,0-1.156-.207,1.4,1.4,0,0,0-.843.734,1.279,1.279,0,0,0-.125,1.067,3.75,3.75,0,0,0,.848,1.236,5.715,5.715,0,0,1,.953,1.286,2.34,2.34,0,0,1,.266,1.113,2.453,2.453,0,0,1-.329,1.109A2.268,2.268,0,0,1,3.907,9.72a2.74,2.74,0,0,1-1.882-.186l-.563,1.023-.793-.437L1.231,9.1A2.632,2.632,0,0,1,.063,7.529a2.725,2.725,0,0,1,.36-1.989l.99.545a1.8,1.8,0,0,0-.241,1.361,1.678,1.678,0,0,0,.887,1.011,1.887,1.887,0,0,0,1.288.271,1.3,1.3,0,0,0,.909-.7" transform="translate(212.575 144.153)" fill="#fff"/>
    <path id="Fill_427" data-name="Fill 427" d="M4.256,8.027a1.273,1.273,0,0,0,.111-1.019,3.512,3.512,0,0,0-.828-1.252A4.263,4.263,0,0,1,2.377,3.934a2.287,2.287,0,0,1,.261-1.709,2.345,2.345,0,0,1,1.3-1.158,2.475,2.475,0,0,1,1.773.1L6.362,0l.8.438L6.511,1.616a2.353,2.353,0,0,1,.984,1.526,3.09,3.09,0,0,1-.452,2L6.059,4.6a2.135,2.135,0,0,0,.3-1.4,1.346,1.346,0,0,0-.723-.98,1.534,1.534,0,0,0-1.156-.207,1.4,1.4,0,0,0-.843.734,1.28,1.28,0,0,0-.125,1.067,3.75,3.75,0,0,0,.848,1.236A5.654,5.654,0,0,1,5.314,6.34,2.322,2.322,0,0,1,5.58,7.453a2.453,2.453,0,0,1-.329,1.109A2.26,2.26,0,0,1,3.907,9.718a2.753,2.753,0,0,1-1.884-.185L1.46,10.556l-.792-.437L1.231,9.1A2.633,2.633,0,0,1,.063,7.528a2.725,2.725,0,0,1,.36-1.989l.989.545a1.8,1.8,0,0,0-.239,1.361,1.684,1.684,0,0,0,.887,1.012,1.894,1.894,0,0,0,1.288.269,1.3,1.3,0,0,0,.909-.7" transform="translate(218.731 147.546)" fill="#fff"/>
    <path id="Fill_428" data-name="Fill 428" d="M4.257,8.029a1.277,1.277,0,0,0,.111-1.02A3.512,3.512,0,0,0,3.54,5.757,4.263,4.263,0,0,1,2.377,3.934a2.287,2.287,0,0,1,.261-1.709,2.345,2.345,0,0,1,1.3-1.158,2.475,2.475,0,0,1,1.773.1L6.363,0l.8.44L6.511,1.616A2.361,2.361,0,0,1,7.5,3.142a3.1,3.1,0,0,1-.452,2L6.058,4.6a2.13,2.13,0,0,0,.305-1.4,1.348,1.348,0,0,0-.723-.98,1.528,1.528,0,0,0-1.156-.208,1.4,1.4,0,0,0-.843.734,1.283,1.283,0,0,0-.125,1.069,3.747,3.747,0,0,0,.848,1.235A5.654,5.654,0,0,1,5.314,6.34,2.34,2.34,0,0,1,5.58,7.453a2.447,2.447,0,0,1-.329,1.109A2.259,2.259,0,0,1,3.906,9.718a2.748,2.748,0,0,1-1.882-.185L1.46,10.556l-.792-.437L1.232,9.1A2.642,2.642,0,0,1,.062,7.528a2.741,2.741,0,0,1,.36-1.989l.99.546a1.794,1.794,0,0,0-.239,1.36A1.684,1.684,0,0,0,2.06,8.457a1.9,1.9,0,0,0,1.288.271,1.306,1.306,0,0,0,.909-.7" transform="translate(224.886 150.936)" fill="#fff"/>
    <path id="Fill_429" data-name="Fill 429" d="M26.391,11.13,0,11.365C4.945,7.118,9.575,3.286,13.791,0l12.67.369A2.809,2.809,0,0,1,29.251,3.2L29.217,8.34a2.807,2.807,0,0,1-2.826,2.79" transform="translate(191.373 125.043)" fill="#de9d19"/>
    <path id="Fill_430" data-name="Fill 430" d="M18.091.022.067,11.358a.145.145,0,0,0-.045.2l6.007,9.551a.144.144,0,0,0,.2.045L24.252,9.818a.144.144,0,0,0,.045-.2L18.292.068a.146.146,0,0,0-.2-.046" transform="translate(244.158 44.409)" fill="#53b78f"/>
    <path id="Fill_431" data-name="Fill 431" d="M3.707.939a2.008,2.008,0,1,0-.631,2.768A2.007,2.007,0,0,0,3.707.939" transform="translate(254.31 52.989)" fill="#167c5c"/>
    <path id="Fill_432" data-name="Fill 432" d="M1.455.1,0,1.014a1.935,1.935,0,0,0,.255.654,1.94,1.94,0,0,0,2.674.609A1.923,1.923,0,0,0,3.355,1.9L2.349.3A.648.648,0,0,0,1.455.1" transform="translate(260.368 44.6)" fill="#167c5c"/>
    <path id="Fill_433" data-name="Fill 433" d="M17.476.1.3,10.9a.649.649,0,0,0-.2.894l.36.573L18.729.876,18.369.3a.648.648,0,0,0-.893-.2" transform="translate(244.348 44.6)" fill="#167c5c"/>
    <path id="Fill_434" data-name="Fill 434" d="M.3.915,1.758,0a1.941,1.941,0,0,1,.479.514,1.941,1.941,0,0,1-.609,2.674,1.916,1.916,0,0,1-.523.22L.1,1.809A.649.649,0,0,1,.3.915" transform="translate(244.348 54.585)" fill="#167c5c"/>
    <path id="Fill_435" data-name="Fill 435" d="M.3,10.9,17.476.1a.648.648,0,0,1,.893.2l.36.573L.459,12.366.1,11.793A.649.649,0,0,1,.3,10.9" transform="translate(244.348 44.6)" fill="#167c5c"/>
    <path id="Fill_436" data-name="Fill 436" d="M6.465,10.128,6.992,9.8.832,0,.3.332a.649.649,0,0,0-.2.894l5.47,8.7a.649.649,0,0,0,.9.2" transform="translate(244.348 55.167)" fill="#167c5c"/>
    <path id="Fill_437" data-name="Fill 437" d="M6.689,9.9l-.529.332L0,.432.529.1a.648.648,0,0,1,.893.2L6.893,9a.648.648,0,0,1-.2.894" transform="translate(261.295 44.6)" fill="#167c5c"/>
    <path id="Fill_438" data-name="Fill 438" d="M2.232,2.493.776,3.408A1.928,1.928,0,0,1,.908.22,1.892,1.892,0,0,1,1.429,0L2.435,1.6a.648.648,0,0,1-.2.894" transform="translate(265.752 52.002)" fill="#167c5c"/>
    <path id="Fill_439" data-name="Fill 439" d="M18.426,1.467,1.255,12.266a.649.649,0,0,1-.9-.2L0,11.49,18.27,0l.36.573a.648.648,0,0,1-.2.894" transform="translate(249.558 53.029)" fill="#167c5c"/>
    <path id="Fill_440" data-name="Fill 440" d="M1.9,2.476l1.454-.915A1.919,1.919,0,0,0,0,.673l1.006,1.6a.649.649,0,0,0,.9.2" transform="translate(248.911 62.819)" fill="#167c5c"/>
    <path id="Fill_441" data-name="Fill 441" d="M1.255,12.266l17.171-10.8a.648.648,0,0,0,.2-.894L18.27,0,0,11.49l.36.573a.649.649,0,0,0,.9.2" transform="translate(249.558 53.029)" fill="#167c5c"/>
    <path id="Fill_442" data-name="Fill 442" d="M21.834.764.556,0A.145.145,0,0,0,.405.14L0,11.415a.146.146,0,0,0,.139.15l21.28.764a.144.144,0,0,0,.149-.139L21.973.914a.145.145,0,0,0-.139-.15" transform="translate(247.678 52.246)" fill="#24ad83"/>
    <path id="Fill_443" data-name="Fill 443" d="M4.015,2.08A2.008,2.008,0,1,0,1.937,4.014,2.007,2.007,0,0,0,4.015,2.08" transform="translate(256.657 56.403)" fill="#167c5c"/>
    <path id="Fill_444" data-name="Fill 444" d="M1.876.062.158,0A1.952,1.952,0,0,0,0,.685,1.939,1.939,0,0,0,1.87,2.692a1.919,1.919,0,0,0,.562-.071L2.5.733A.649.649,0,0,0,1.876.062" transform="translate(267.134 52.93)" fill="#167c5c"/>
    <path id="Fill_445" data-name="Fill 445" d="M20.969.729.7,0A.648.648,0,0,0,.025.625L0,1.3l21.568.775.025-.677a.649.649,0,0,0-.624-.671" transform="translate(248.041 52.264)" fill="#167c5c"/>
    <path id="Fill_446" data-name="Fill 446" d="M.74,0,2.457.062a1.93,1.93,0,0,1,.106.694A1.939,1.939,0,0,1,.555,2.625,1.926,1.926,0,0,1,0,2.513L.069.625A.648.648,0,0,1,.74,0" transform="translate(247.998 52.264)" fill="#167c5c"/>
    <path id="Fill_447" data-name="Fill 447" d="M.7,0,20.967.729a.649.649,0,0,1,.626.671l-.025.677L0,1.3.025.625A.648.648,0,0,1,.7,0" transform="translate(248.041 52.264)" fill="#167c5c"/>
    <path id="Fill_448" data-name="Fill 448" d="M.625,11.565l.623.023L1.664.023,1.041,0A.648.648,0,0,0,.37.625L0,10.894a.648.648,0,0,0,.624.671" transform="translate(247.697 52.264)" fill="#167c5c"/>
    <path id="Fill_449" data-name="Fill 449" d="M.623,11.587,0,11.565.415,0l.623.022a.649.649,0,0,1,.626.671L1.294,10.962a.648.648,0,0,1-.671.625" transform="translate(267.971 52.97)" fill="#167c5c"/>
    <path id="Fill_450" data-name="Fill 450" d="M1.825,2.625.109,2.564A1.917,1.917,0,0,1,2.564.113L2.5,2a.648.648,0,0,1-.671.625" transform="translate(266.769 61.931)" fill="#167c5c"/>
    <path id="Fill_451" data-name="Fill 451" d="M20.9,2.076.625,1.348A.648.648,0,0,1,0,.676L.024,0,21.592.775l-.023.676a.648.648,0,0,1-.671.625" transform="translate(247.697 62.481)" fill="#167c5c"/>
    <path id="Fill_452" data-name="Fill 452" d="M.625,2.632l1.717.062A1.887,1.887,0,0,0,2.5,2.009,1.939,1.939,0,0,0,.629,0,1.914,1.914,0,0,0,.068.073L0,1.96a.648.648,0,0,0,.624.671" transform="translate(247.697 61.197)" fill="#167c5c"/>
    <path id="Fill_453" data-name="Fill 453" d="M.625,1.348,20.9,2.076a.648.648,0,0,0,.671-.625l.023-.676L.024,0,0,.676a.648.648,0,0,0,.624.671" transform="translate(247.697 62.481)" fill="#167c5c"/>
    <path id="Fill_454" data-name="Fill 454" d="M9.867,1.113q7.6,5.271,15.023,10.8L28.6,14.674l3.66,2.747a3.875,3.875,0,0,0,2.7.846A4.131,4.131,0,0,0,36.4,17.91c.117-.051.219-.126.341-.173l.191-.135.1-.064a1.405,1.405,0,0,0,.15-.1l1.865-1.38c2.5-1.82,4.995-3.652,7.515-5.451Q54.085,5.172,61.816,0L69.8,10.018q-6.743,6.351-13.68,12.45c-2.3,2.044-4.633,4.054-6.954,6.076l-1.752,1.5-.308.25-.361.285-.731.562c-.535.357-1.067.721-1.627,1.042A20.4,20.4,0,0,1,22.3,31.108L18.5,28.374l-3.74-2.721Q7.287,20.208,0,14.5L9.867,1.113" transform="translate(175.143 64.146)" fill="#f1ae87"/>
    <path id="Fill_455" data-name="Fill 455" d="M2.726,1.936C2.48,1.778,2.238,1.615,2,1.444L0,0,2,1.441q.357.256.726.494" transform="translate(195.44 93.813)" fill="#7da1a0"/>
    <path id="Fill_456" data-name="Fill 456" d="M3.153,15.152c-.142-.089-.286-.178-.427-.269q-.368-.239-.726-.494L0,12.947C2.242,9.134,5.6,4.356,7.794,0,6.4,4.472,3.6,13.693,3.153,15.152" transform="translate(195.44 80.866)" fill="#e5936c"/>
    <path id="Fill_457" data-name="Fill 457" d="M29.528,21.909,3.017,0C2.426,2.189-2.574,17.126,1.736,24.132c2.2,3.574,8.485,9.18,18.055,14.814,2.683-4.829,7.736-11.6,9.737-17.037" transform="translate(175.05 55.914)" fill="#e77e4e"/>
    <path id="Fill_458" data-name="Fill 458" d="M30.124,5.879S19.587,92.154,11.238,128.116H0L2.569,1.926S7.706,0,8.991,0,30.124,5.879,30.124,5.879" transform="translate(150.068 131.085)" fill="#51b2d9"/>
    <path id="Fill_459" data-name="Fill 459" d="M2.788,12.673A13.645,13.645,0,0,1,0,4.01,16.138,16.138,0,0,1,.347.665C1.673.559,2.738.491,3.485.46L.385.493C.415.355.448.219.482.084L4.387,0c0,.006-.019.155-.053.437H4.316c-.2,0-.482.008-.831.023L4.333.451l0-.013C4.168,1.79,3.621,6.207,2.788,12.673" transform="translate(175.804 136.963)" fill="#4994c4"/>
    <path id="Fill_460" data-name="Fill 460" d="M3.589,28.093A33.309,33.309,0,0,1,2.393.654c.19-.474.6-.751.9-.623q4.337,1.817,8.651,3.686a.627.627,0,0,1,.3.818,22.727,22.727,0,0,0,.764,18.719.623.623,0,0,1-.233.834q-4.136,2.239-8.245,4.527c-.285.161-.715-.07-.944-.523" transform="translate(117.121 139.5)" fill="#24ad83"/>
    <path id="Fill_461" data-name="Fill 461" d="M2.034,4.672C1.033,4.823.062,3.828,0,2.435S.824-.05,1.837,0A2.188,2.188,0,0,1,3.674,2.253a2.221,2.221,0,0,1-1.64,2.419" transform="translate(120.604 151.407)" fill="#167c5c"/>
    <path id="Fill_462" data-name="Fill 462" d="M1.013,2.707Q.464,1.625,0,.514A1.231,1.231,0,0,1,.509.1C1.42-.275,2.569.465,3.2,1.7a3.827,3.827,0,0,1,.268.69q-.756.418-1.512.839c-.285.161-.715-.07-.944-.523" transform="translate(119.697 164.885)" fill="#167c5c"/>
    <path id="Fill_463" data-name="Fill 463" d="M3.589,28.093A33.31,33.31,0,0,1,2.392.654c.19-.474.6-.751.9-.623l.571.239A32.1,32.1,0,0,0,5.074,28.315l-.541.3c-.285.161-.715-.07-.944-.523" transform="translate(117.121 139.5)" fill="#167c5c"/>
    <path id="Fill_464" data-name="Fill 464" d="M.821.654Q.368,1.788,0,2.943A1.219,1.219,0,0,0,.549,3.3c.945.268,2.031-.59,2.56-1.887A4.045,4.045,0,0,0,3.319.7q-.8-.336-1.594-.67c-.3-.128-.713.149-.9.623" transform="translate(118.692 139.5)" fill="#167c5c"/>
    <path id="Fill_465" data-name="Fill 465" d="M2.392.654a33.31,33.31,0,0,0,1.2,27.439c.228.452.659.684.944.523l.541-.3A32.1,32.1,0,0,1,3.866.271L3.3.031c-.3-.128-.713.149-.9.623" transform="translate(117.121 139.5)" fill="#167c5c"/>
    <path id="Fill_466" data-name="Fill 466" d="M10.173,4.536c-.075.188-.149.376-.219.563Q4.99,3.257,0,1.48.153,1.065.318.654c.189-.474.6-.751.9-.623Q5.559,1.848,9.872,3.718a.627.627,0,0,1,.3.818" transform="translate(119.195 139.5)" fill="#167c5c"/>
    <path id="Fill_467" data-name="Fill 467" d="M9.808.538C9.718.36,9.631.18,9.546,0Q4.758,2.26,0,4.586q.188.4.386.79c.228.452.659.684.944.523Q5.44,3.611,9.575,1.372A.623.623,0,0,0,9.808.538" transform="translate(120.324 162.216)" fill="#167c5c"/>
    <path id="Fill_468" data-name="Fill 468" d="M2.337,1.5Q1.966.759,1.651,0a1.727,1.727,0,0,0-.632.124A1.8,1.8,0,0,0,.234,2.668a2.1,2.1,0,0,0,.35.488C1.09,2.879,1.6,2.605,2.1,2.33A.623.623,0,0,0,2.337,1.5" transform="translate(127.795 161.259)" fill="#167c5c"/>
    <path id="Fill_469" data-name="Fill 469" d="M3.632,19.783A22.727,22.727,0,0,1,2.868,1.064a.627.627,0,0,0-.3-.818C2.378.163,2.189.081,2,0a23.934,23.934,0,0,0,.854,20.913l.545-.3a.623.623,0,0,0,.233-.834" transform="translate(126.5 142.972)" fill="#167c5c"/>
    <path id="Fill_470" data-name="Fill 470" d="M2.362,1.5q-.312.775-.565,1.563A1.729,1.729,0,0,1,1.155,3,1.8,1.8,0,0,1,.163.521,2.16,2.16,0,0,1,.475,0q.793.34,1.587.685a.627.627,0,0,1,.3.818" transform="translate(127.007 142.532)" fill="#167c5c"/>
    <path id="Fill_471" data-name="Fill 471" d="M2.868,1.064a22.727,22.727,0,0,0,.764,18.719.623.623,0,0,1-.233.834l-.545.3A23.934,23.934,0,0,1,2,0c.189.081.379.163.568.246a.627.627,0,0,1,.3.818" transform="translate(126.5 142.972)" fill="#167c5c"/>
    <path id="Fill_472" data-name="Fill 472" d="M71.495,5.85S31.758,91.71,11.238,127.5H0L45.276,1.917S51.066,0,52.35,0,71.495,5.85,71.495,5.85" transform="translate(87.364 131.701)" fill="#51b2d9"/>
    <path id="Fill_473" data-name="Fill 473" d="M0,4.783H0L1.724,0,0,4.783" transform="translate(129.359 137.935)" fill="#7e3b43"/>
    <path id="Fill_474" data-name="Fill 474" d="M0,.549H0L.2,0,0,.549" transform="translate(129.16 142.718)" fill="#8b575f"/>
    <path id="Fill_475" data-name="Fill 475" d="M0,6.49,2.339,0,0,6.49" transform="translate(126.821 143.268)" fill="#126958"/>
    <path id="Fill_476" data-name="Fill 476" d="M0,2.455C.577,1.216.939.437,1.055.185L18.428,0c-.013.056-.025.114-.038.172C14.181.507,7.373,1.231,0,2.455" transform="translate(157.762 137.456)" fill="#4994c4"/>
    <path id="Fill_477" data-name="Fill 477" d="M0,.2C.013.147.025.089.038.033L3.137,0C2.391.031,1.325.1,0,.2" transform="translate(176.152 137.423)" fill="#467cb2"/>
    <path id="Fill_478" data-name="Fill 478" d="M0,12.118v0L1.667,7.492A6.612,6.612,0,0,0,4.032,9.716,27.143,27.143,0,0,0,0,12.116ZM14.3,5.907v0a11.31,11.31,0,0,0,1.593-4.468A10.6,10.6,0,0,0,15.98.169L32,0c-.113.248-.468,1.012-1.054,2.271A150.2,150.2,0,0,0,14.3,5.906Z" transform="translate(126.821 137.641)" fill="#4994c4"/>
    <path id="Fill_479" data-name="Fill 479" d="M.078.079v0" transform="translate(180.06 137.322)" fill="#4994c4"/>
    <path id="Fill_480" data-name="Fill 480" d="M0,.09C.349.074.629.067.831.067H.85v0l0,.013L0,.09" transform="translate(179.289 137.333)" fill="#467cb2"/>
    <path id="Fill_481" data-name="Fill 481" d="M2.966,10.335A6.123,6.123,0,0,1,0,9.593,62.845,62.845,0,0,1,10.266,5.785,8.956,8.956,0,0,1,2.966,10.335ZM7.67.093v0L11.948,0V.047Z" transform="translate(130.853 137.763)" fill="#4994c4"/>
    <path id="Fill_482" data-name="Fill 482" d="M2.364,9.546A6.548,6.548,0,0,1,0,7.321L2.594.125h.013l0,.077L9.847.049,14.313,0a10.676,10.676,0,0,1-.088,1.267,11.258,11.258,0,0,1-1.594,4.47A63,63,0,0,0,2.364,9.546" transform="translate(128.489 137.81)" fill="#467cb2"/>
    <path id="Fill_483" data-name="Fill 483" d="M37.865,0h-18.3A18.447,18.447,0,0,0,1.194,18.054L0,85.364l49.1-1.048L52.06,14.822A14.16,14.16,0,0,0,37.865,0" transform="translate(131.094 52.648)" fill="#e77e4e"/>
    <path id="Fill_484" data-name="Fill 484" d="M.876.739,0,.164.008,0c.28.244.571.49.868.739" transform="translate(182.353 86.093)" fill="#e9b395"/>
    <path id="Fill_485" data-name="Fill 485" d="M1.92,4.929.868,4.24C.571,3.991.28,3.746,0,3.5L.149,0c.98,2.7,1.743,4.819,1.771,4.929" transform="translate(182.361 82.591)" fill="#e36941"/>
    <path id="Fill_486" data-name="Fill 486" d="M4.283,19.085a5.068,5.068,0,0,1-1.1-.194L1.773,13.828a.143.143,0,0,0-.139-.106.155.155,0,0,0-.039.005L0,14.172c.088-1.239.2-2.827.315-4.491L2.679,6.7a.146.146,0,0,0-.025-.2l-.394-.312h0l-.53-.42L.638,4.9C.818,2.2.947.086.92,0l0,0S3.446,6.915,5.243,11.874l-.149,3.5-.008.164-.34-.222s-.233,3.125-.156,3.594c.022.128-.108.174-.308.174" transform="translate(177.266 70.717)" fill="#e36941"/>
    <path id="Fill_487" data-name="Fill 487" d="M.057,2.377h0L.1,0,.057,2.377" transform="translate(131.243 123.97)" fill="#ae9181"/>
    <path id="Fill_488" data-name="Fill 488" d="M.011,7.636.146,0,.011,7.636" transform="translate(131.155 126.347)" fill="#b2ad93"/>
    <path id="Fill_489" data-name="Fill 489" d="M0,46.258H0l0-.076v-.036L.248,32.216,3.3,30.781l2.384.091a.145.145,0,0,0,.15-.139l.019-.492v-.011l.025-.661L40.655,13.213a.5.5,0,0,0,.239-.662l-.049-.1,4.029.906a.131.131,0,0,0,.032,0,.147.147,0,0,0,.142-.114l.24-1.076,1.626-7.231,3.946-1.1-.179,4.2c-.483.117-.807.192-.842.2-.008.028-1.644,6.369-1.864,7.246-.2.818-2.871,1.238-2.9,1.242h-.066c-.559,0-5.821.16-18.153,5.693-10.766,4.833-16.64,10.936-17.685,14.84a3.609,3.609,0,0,0,.4,3.172c1.39,1.925,4.694,3.005,7.22,3.572a38.009,38.009,0,0,0,5.2.777,2.313,2.313,0,0,1-.051,1L0,46.258ZM50.882,3.318l-.039-.141-.052-.186L49.955,0c.376.232.753.476,1.04.663l-.112,2.655Z" transform="translate(131.094 91.754)" fill="#e36941"/>
    <path id="Fill_490" data-name="Fill 490" d="M.392,0,21.68.462a.144.144,0,0,1,.141.147l-.244,11.28a.145.145,0,0,1-.147.142L.142,11.57A.144.144,0,0,1,0,11.422L.244.142A.146.146,0,0,1,.392,0" transform="translate(99.209 103.013)" fill="#24ad83"/>
    <path id="Fill_491" data-name="Fill 491" d="M0,1.964a2.008,2.008,0,1,1,1.964,2.05A2.006,2.006,0,0,1,0,1.964" transform="translate(108.112 107.022)" fill="#167c5c"/>
    <path id="Fill_492" data-name="Fill 492" d="M.7,0,2.421.038a1.93,1.93,0,0,1,.117.693,1.939,1.939,0,0,1-1.981,1.9A1.929,1.929,0,0,1,0,2.524L.041.634A.649.649,0,0,1,.7,0" transform="translate(99.401 103.024)" fill="#167c5c"/>
    <path id="Fill_493" data-name="Fill 493" d="M.677,0,20.958.44a.647.647,0,0,1,.634.662l-.014.678L0,1.311.015.634A.649.649,0,0,1,.677,0" transform="translate(99.427 103.024)" fill="#167c5c"/>
    <path id="Fill_494" data-name="Fill 494" d="M1.865.038.148,0A1.923,1.923,0,0,0,0,.687,1.94,1.94,0,0,0,1.9,2.668a1.894,1.894,0,0,0,.56-.08L2.5.7A.647.647,0,0,0,1.865.038" transform="translate(118.52 103.427)" fill="#167c5c"/>
    <path id="Fill_495" data-name="Fill 495" d="M20.958.44.677,0A.649.649,0,0,0,.015.634L0,1.311l21.577.468.014-.678A.647.647,0,0,0,20.958.44" transform="translate(99.427 103.024)" fill="#167c5c"/>
    <path id="Fill_496" data-name="Fill 496" d="M.624,11.584,0,11.57.251,0,.874.014a.647.647,0,0,1,.634.662L1.286,10.95a.648.648,0,0,1-.662.634" transform="translate(119.511 103.45)" fill="#167c5c"/>
    <path id="Fill_497" data-name="Fill 497" d="M.634,11.57l.624.014L1.508.014.885,0A.649.649,0,0,0,.223.634L0,10.908a.648.648,0,0,0,.634.662" transform="translate(99.22 103.024)" fill="#167c5c"/>
    <path id="Fill_498" data-name="Fill 498" d="M.634,2.631l1.717.038A1.923,1.923,0,0,0,2.5,1.981,1.94,1.94,0,0,0,.6,0,1.9,1.9,0,0,0,.041.08L0,1.969a.648.648,0,0,0,.634.662" transform="translate(99.22 111.963)" fill="#167c5c"/>
    <path id="Fill_499" data-name="Fill 499" d="M.634,1.339l20.281.44a.648.648,0,0,0,.662-.634l.014-.678L.015,0,0,.678a.648.648,0,0,0,.634.662" transform="translate(99.22 113.255)" fill="#167c5c"/>
    <path id="Fill_500" data-name="Fill 500" d="M1.835,2.628.118,2.59A1.928,1.928,0,0,1,1.981,0a1.984,1.984,0,0,1,.557.1L2.5,1.994a.648.648,0,0,1-.662.634" transform="translate(118.299 112.406)" fill="#167c5c"/>
    <path id="Fill_501" data-name="Fill 501" d="M20.915,1.779.634,1.339A.648.648,0,0,1,0,.678L.015,0,21.591.468l-.014.678a.648.648,0,0,1-.662.634" transform="translate(99.22 113.255)" fill="#167c5c"/>
    <path id="Fill_502" data-name="Fill 502" d="M20.614.005.106,5.726a.145.145,0,0,0-.1.178L3.036,16.772a.146.146,0,0,0,.178.1l20.509-5.722a.144.144,0,0,0,.1-.178L20.793.106a.145.145,0,0,0-.178-.1" transform="translate(158.246 84.439)" fill="#53b78f"/>
    <path id="Fill_503" data-name="Fill 503" d="M3.942,1.469A2.008,2.008,0,1,0,2.548,3.943,2.006,2.006,0,0,0,3.942,1.469" transform="translate(168.152 90.87)" fill="#167c5c"/>
    <path id="Fill_504" data-name="Fill 504" d="M1.664.024.01.486a1.915,1.915,0,0,0,.058.7A1.939,1.939,0,0,0,2.457,2.532a1.876,1.876,0,0,0,.513-.238L2.463.474a.649.649,0,0,0-.8-.45" transform="translate(176.712 84.556)" fill="#167c5c"/>
    <path id="Fill_505" data-name="Fill 505" d="M20.013.024.474,5.475a.648.648,0,0,0-.451.8l.182.652,20.789-5.8L20.813.474a.649.649,0,0,0-.8-.45" transform="translate(158.362 84.556)" fill="#167c5c"/>
    <path id="Fill_506" data-name="Fill 506" d="M.474.462,2.128,0a1.9,1.9,0,0,1,.313.627A1.938,1.938,0,0,1,1.094,3.017a1.877,1.877,0,0,1-.563.063L.024,1.26a.648.648,0,0,1,.451-.8" transform="translate(158.362 89.569)" fill="#167c5c"/>
    <path id="Fill_507" data-name="Fill 507" d="M.474,5.475,20.013.024a.649.649,0,0,1,.8.45l.182.653L.205,6.926.024,6.273a.648.648,0,0,1,.451-.8" transform="translate(158.362 84.556)" fill="#167c5c"/>
    <path id="Fill_508" data-name="Fill 508" d="M3.584,11.315l.6-.167L1.076,0l-.6.167a.648.648,0,0,0-.451.8l2.76,9.9a.648.648,0,0,0,.8.451" transform="translate(158.362 89.862)" fill="#167c5c"/>
    <path id="Fill_509" data-name="Fill 509" d="M3.71,11.171l-.6.167L0,.192.6.024a.649.649,0,0,1,.8.45l2.76,9.9a.648.648,0,0,1-.451.8" transform="translate(177.774 84.556)" fill="#167c5c"/>
    <path id="Fill_510" data-name="Fill 510" d="M2.039,2.62.385,3.081a1.913,1.913,0,0,1-.313-.629A1.938,1.938,0,0,1,1.419.063,1.929,1.929,0,0,1,1.982,0l.507,1.82a.648.648,0,0,1-.451.8" transform="translate(179.446 93.107)" fill="#167c5c"/>
    <path id="Fill_511" data-name="Fill 511" d="M20.52,1.45.981,6.9a.648.648,0,0,1-.8-.451L0,5.8,20.789,0l.182.651a.648.648,0,0,1-.451.8" transform="translate(160.965 94.276)" fill="#167c5c"/>
    <path id="Fill_512" data-name="Fill 512" d="M1.307,2.58,2.96,2.119a1.907,1.907,0,0,0-.058-.7A1.938,1.938,0,0,0,.513.072,1.973,1.973,0,0,0,0,.31L.507,2.13a.648.648,0,0,0,.8.451" transform="translate(160.639 98.596)" fill="#167c5c"/>
    <path id="Fill_513" data-name="Fill 513" d="M.981,6.9,20.52,1.45a.648.648,0,0,0,.451-.8L20.789,0,0,5.8l.182.651a.648.648,0,0,0,.8.451" transform="translate(160.965 94.276)" fill="#167c5c"/>
    <path id="Fill_514" data-name="Fill 514" d="M13.252.055.031,16.746a.145.145,0,0,0,.023.2L8.9,23.955a.146.146,0,0,0,.2-.023L22.324,7.24a.146.146,0,0,0-.025-.2L13.455.031a.145.145,0,0,0-.2.023" transform="translate(157.621 70.174)" fill="#53b78f"/>
    <path id="Fill_515" data-name="Fill 515" d="M3.255.434a2.008,2.008,0,1,0,.327,2.82A2.009,2.009,0,0,0,3.255.434" transform="translate(166.79 80.159)" fill="#167c5c"/>
    <path id="Fill_516" data-name="Fill 516" d="M1.066.246,0,1.592a1.926,1.926,0,0,0,.458.532,1.939,1.939,0,0,0,2.724-.316,1.916,1.916,0,0,0,.275-.5L1.976.14a.649.649,0,0,0-.911.106" transform="translate(169.494 70.378)" fill="#167c5c"/>
    <path id="Fill_517" data-name="Fill 517" d="M12.735.246.14,16.147a.649.649,0,0,0,.1.911l.53.421L14.177.561,13.645.14a.649.649,0,0,0-.911.106" transform="translate(157.825 70.378)" fill="#167c5c"/>
    <path id="Fill_518" data-name="Fill 518" d="M.14,1.346,1.206,0A1.935,1.935,0,0,1,1.83.325a1.939,1.939,0,0,1,.316,2.724,1.932,1.932,0,0,1-.419.382L.245,2.257a.649.649,0,0,1-.1-.911" transform="translate(157.825 85.178)" fill="#167c5c"/>
    <path id="Fill_519" data-name="Fill 519" d="M.14,16.147,12.735.246A.649.649,0,0,1,13.645.14l.532.42L.775,17.478l-.53-.421a.649.649,0,0,1-.1-.911" transform="translate(157.825 70.378)" fill="#167c5c"/>
    <path id="Fill_520" data-name="Fill 520" d="M9.211,7.673,9.6,7.185.527,0,.14.488a.649.649,0,0,0,.1.911L8.3,7.78a.648.648,0,0,0,.911-.106" transform="translate(157.825 86.036)" fill="#167c5c"/>
    <path id="Fill_521" data-name="Fill 521" d="M9.459,7.431l-.388.489L0,.735.386.246A.649.649,0,0,1,1.3.14L9.352,6.52a.648.648,0,0,1,.106.911" transform="translate(170.173 70.378)" fill="#167c5c"/>
    <path id="Fill_522" data-name="Fill 522" d="M2.425,2.084,1.358,3.43A1.917,1.917,0,0,1,.839,0l1.48,1.173a.648.648,0,0,1,.106.911" transform="translate(177.206 75.725)" fill="#167c5c"/>
    <path id="Fill_523" data-name="Fill 523" d="M14.037,1.331l-12.6,15.9a.648.648,0,0,1-.911.106L0,16.917,13.4,0l.53.42a.648.648,0,0,1,.106.911" transform="translate(165.595 76.478)" fill="#167c5c"/>
    <path id="Fill_524" data-name="Fill 524" d="M2.391,2.3,3.458.951A1.92,1.92,0,0,0,3,.419,1.941,1.941,0,0,0,.274.735,1.924,1.924,0,0,0,0,1.23L1.48,2.4A.648.648,0,0,0,2.391,2.3" transform="translate(164.645 91.413)" fill="#167c5c"/>
    <path id="Fill_525" data-name="Fill 525" d="M1.441,17.232l12.6-15.9A.648.648,0,0,0,13.931.42L13.4,0,0,16.917l.53.421a.648.648,0,0,0,.911-.106" transform="translate(165.595 76.478)" fill="#167c5c"/>
    <path id="Fill_526" data-name="Fill 526" d="M9.6.08.015,19.1a.147.147,0,0,0,.064.194l10.077,5.078a.147.147,0,0,0,.194-.064L19.93,5.287a.144.144,0,0,0-.064-.194L9.791.016A.144.144,0,0,0,9.6.08" transform="translate(151.846 71.461)" fill="#53b78f"/>
    <path id="Fill_527" data-name="Fill 527" d="M2.911.215a2.008,2.008,0,1,0,.889,2.7,2.007,2.007,0,0,0-.889-2.7" transform="translate(159.812 81.644)" fill="#167c5c"/>
    <path id="Fill_528" data-name="Fill 528" d="M.773.357,0,1.891a1.908,1.908,0,0,0,.557.428,1.939,1.939,0,0,0,2.6-.859A1.912,1.912,0,0,0,3.331.92L1.643.07a.648.648,0,0,0-.87.287" transform="translate(160.444 71.634)" fill="#167c5c"/>
    <path id="Fill_529" data-name="Fill 529" d="M9.2.357.069,18.472a.65.65,0,0,0,.288.872l.6.3L10.673.374l-.606-.3A.648.648,0,0,0,9.2.357" transform="translate(152.019 71.634)" fill="#167c5c"/>
    <path id="Fill_530" data-name="Fill 530" d="M.069,1.533.842,0a1.926,1.926,0,0,1,.676.192,1.939,1.939,0,0,1,.859,2.6,1.9,1.9,0,0,1-.333.458L.357,2.4a.65.65,0,0,1-.288-.872" transform="translate(152.019 88.573)" fill="#167c5c"/>
    <path id="Fill_531" data-name="Fill 531" d="M.069,18.472,9.2.357a.648.648,0,0,1,.87-.287l.606.3L.961,19.647l-.6-.3a.65.65,0,0,1-.288-.872" transform="translate(152.019 71.634)" fill="#167c5c"/>
    <path id="Fill_532" data-name="Fill 532" d="M10.4,5.764l.28-.557L.351,0,.069.557a.65.65,0,0,0,.288.872L9.533,6.052a.648.648,0,0,0,.872-.288" transform="translate(152.019 89.549)" fill="#167c5c"/>
    <path id="Fill_533" data-name="Fill 533" d="M10.615,5.564l-.282.557L0,.914.28.357A.648.648,0,0,1,1.15.07l9.177,4.624a.65.65,0,0,1,.288.871" transform="translate(160.936 71.634)" fill="#167c5c"/>
    <path id="Fill_534" data-name="Fill 534" d="M2.516,1.721,1.742,3.255a1.917,1.917,0,0,1-.674-.192A1.939,1.939,0,0,1,.208.458,1.907,1.907,0,0,1,.541,0L2.228.85a.65.65,0,0,1,.288.871" transform="translate(169.035 75.477)" fill="#167c5c"/>
    <path id="Fill_535" data-name="Fill 535" d="M10.6,1.175,1.476,19.291a.648.648,0,0,1-.872.288L0,19.274,9.712,0l.6.3a.65.65,0,0,1,.288.871" transform="translate(160.947 76.023)" fill="#167c5c"/>
    <path id="Fill_536" data-name="Fill 536" d="M2.558,2.17,3.331.637A1.919,1.919,0,0,0,2.774.208a1.939,1.939,0,0,0-2.6.859A1.916,1.916,0,0,0,0,1.607l1.687.851a.648.648,0,0,0,.872-.288" transform="translate(159.865 93.144)" fill="#167c5c"/>
    <path id="Fill_537" data-name="Fill 537" d="M1.476,19.291,10.6,1.175A.65.65,0,0,0,10.316.3l-.6-.3L0,19.274l.6.305a.648.648,0,0,0,.872-.288" transform="translate(160.947 76.023)" fill="#167c5c"/>
    <path id="Fill_538" data-name="Fill 538" d="M20.149.008.1,7.167a.145.145,0,0,0-.088.185L3.8,17.977a.146.146,0,0,0,.186.088l20.052-7.159a.144.144,0,0,0,.089-.185L20.336.1a.147.147,0,0,0-.186-.088" transform="translate(154.265 80.741)" fill="#53b78f"/>
    <path id="Fill_539" data-name="Fill 539" d="M3.9,1.334A2.008,2.008,0,1,0,2.683,3.9,2.006,2.006,0,0,0,3.9,1.334" transform="translate(164.326 87.769)" fill="#167c5c"/>
    <path id="Fill_540" data-name="Fill 540" d="M1.618.038,0,.615a1.949,1.949,0,0,0,.108.694A1.939,1.939,0,0,0,2.587,2.484a1.928,1.928,0,0,0,.5-.274L2.448.431A.649.649,0,0,0,1.618.038" transform="translate(172.322 80.881)" fill="#167c5c"/>
    <path id="Fill_541" data-name="Fill 541" d="M19.534.038.431,6.858a.647.647,0,0,0-.393.828l.227.637L20.591,1.068,20.364.431a.649.649,0,0,0-.829-.393" transform="translate(154.406 80.881)" fill="#167c5c"/>
    <path id="Fill_542" data-name="Fill 542" d="M.431.577,2.049,0A1.924,1.924,0,0,1,2.4.6,1.94,1.94,0,0,1,1.23,3.083a1.939,1.939,0,0,1-.557.1L.038,1.405A.647.647,0,0,1,.431.577" transform="translate(154.406 87.161)" fill="#167c5c"/>
    <path id="Fill_543" data-name="Fill 543" d="M.431,6.858l19.1-6.82a.649.649,0,0,1,.829.393l.227.637L.265,8.322.038,7.685a.647.647,0,0,1,.393-.828" transform="translate(154.406 80.881)" fill="#167c5c"/>
    <path id="Fill_544" data-name="Fill 544" d="M4.321,11.108l.587-.21L1.018,0,.431.21a.647.647,0,0,0-.393.828l3.453,9.678a.65.65,0,0,0,.829.393" transform="translate(154.406 87.529)" fill="#167c5c"/>
    <path id="Fill_545" data-name="Fill 545" d="M4.477,10.937l-.587.21L0,.248.587.038a.649.649,0,0,1,.829.393l3.453,9.677a.648.648,0,0,1-.393.829" transform="translate(173.354 80.881)" fill="#167c5c"/>
    <path id="Fill_546" data-name="Fill 546" d="M2.086,2.608.469,3.186A1.931,1.931,0,0,1,1.287.1,1.939,1.939,0,0,1,1.844,0l.635,1.779a.648.648,0,0,1-.393.829" transform="translate(175.744 89.21)" fill="#167c5c"/>
    <path id="Fill_547" data-name="Fill 547" d="M20.16,1.466,1.056,8.285a.65.65,0,0,1-.829-.393L0,7.254,20.326,0l.227.637a.648.648,0,0,1-.393.829" transform="translate(157.671 90.352)" fill="#167c5c"/>
    <path id="Fill_548" data-name="Fill 548" d="M1.465,2.561l1.618-.577a1.953,1.953,0,0,0-.108-.695A1.939,1.939,0,0,0,.5.113,1.913,1.913,0,0,0,0,.389L.635,2.168a.65.65,0,0,0,.829.393" transform="translate(157.262 96.076)" fill="#167c5c"/>
    <path id="Fill_549" data-name="Fill 549" d="M1.056,8.285l19.1-6.819a.648.648,0,0,0,.393-.829L20.326,0,0,7.254l.227.638a.65.65,0,0,0,.829.393" transform="translate(157.671 90.352)" fill="#167c5c"/>
    <path id="Fill_550" data-name="Fill 550" d="M23.426,4.676,2.653,0a.145.145,0,0,0-.174.11L0,11.121a.144.144,0,0,0,.11.172l20.773,4.672a.146.146,0,0,0,.174-.11L23.535,4.848a.144.144,0,0,0-.11-.172" transform="translate(155.082 89.145)" fill="#53b78f"/>
    <path id="Fill_551" data-name="Fill 551" d="M3.967,2.448a2.008,2.008,0,1,0-2.4,1.518,2.007,2.007,0,0,0,2.4-1.518" transform="translate(164.843 95.122)" fill="#167c5c"/>
    <path id="Fill_552" data-name="Fill 552" d="M2,.377.328,0a1.91,1.91,0,0,0-.28.645A1.937,1.937,0,0,0,1.514,2.962,1.922,1.922,0,0,0,2.079,3l.415-1.845A.648.648,0,0,0,2,.377" transform="translate(176.013 93.333)" fill="#167c5c"/>
    <path id="Fill_553" data-name="Fill 553" d="M20.715,4.466.923.016a.648.648,0,0,0-.775.49L0,1.166,21.056,5.9l.149-.66a.648.648,0,0,0-.49-.775" transform="translate(157.302 89.243)" fill="#167c5c"/>
    <path id="Fill_554" data-name="Fill 554" d="M1.191.016,2.867.393a1.9,1.9,0,0,1-.023.7A1.94,1.94,0,0,1,.526,2.562,1.941,1.941,0,0,1,0,2.349L.415.506a.649.649,0,0,1,.776-.49" transform="translate(157.036 89.243)" fill="#167c5c"/>
    <path id="Fill_555" data-name="Fill 555" d="M.923.016l19.792,4.45a.648.648,0,0,1,.49.775l-.149.66L0,1.166.149.506A.648.648,0,0,1,.923.016" transform="translate(157.302 89.243)" fill="#167c5c"/>
    <path id="Fill_556" data-name="Fill 556" d="M.507,11.306l.609.138L3.654.152,3.045.016a.648.648,0,0,0-.775.49L.016,10.531a.648.648,0,0,0,.491.775" transform="translate(155.18 89.243)" fill="#167c5c"/>
    <path id="Fill_557" data-name="Fill 557" d="M.609,11.427,0,11.289,2.54,0l.609.136a.648.648,0,0,1,.49.775L1.383,10.936a.648.648,0,0,1-.775.491" transform="translate(174.869 93.574)" fill="#167c5c"/>
    <path id="Fill_558" data-name="Fill 558" d="M1.7,2.593.022,2.216A1.926,1.926,0,0,1,2.361.048a1.918,1.918,0,0,1,.526.211L2.472,2.1a.648.648,0,0,1-.775.491" transform="translate(173.78 102.407)" fill="#167c5c"/>
    <path id="Fill_559" data-name="Fill 559" d="M20.3,5.886.507,1.435A.648.648,0,0,1,.016.66L.164,0,21.221,4.735l-.149.66a.648.648,0,0,1-.775.491" transform="translate(155.18 99.114)" fill="#167c5c"/>
    <path id="Fill_560" data-name="Fill 560" d="M.507,2.625,2.183,3A1.929,1.929,0,0,0,1,.04,1.928,1.928,0,0,0,.43.007L.016,1.85a.648.648,0,0,0,.491.775" transform="translate(155.18 97.924)" fill="#167c5c"/>
    <path id="Fill_561" data-name="Fill 561" d="M.507,1.435,20.3,5.886a.648.648,0,0,0,.775-.491l.149-.66L.164,0,.016.66a.648.648,0,0,0,.491.775" transform="translate(155.18 99.114)" fill="#167c5c"/>
    <path id="Fill_562" data-name="Fill 562" d="M.062,12.174,17.549.026a.143.143,0,0,1,.2.036l6.437,9.266a.144.144,0,0,1-.036.2L6.665,21.679a.145.145,0,0,1-.2-.036L.026,12.376a.145.145,0,0,1,.036-.2" transform="translate(105.394 106.058)" fill="#53b78f"/>
    <path id="Fill_563" data-name="Fill 563" d="M.359,3.153a2.008,2.008,0,1,1,2.794.5,2.008,2.008,0,0,1-2.794-.5" transform="translate(115.493 114.902)" fill="#167c5c"/>
    <path id="Fill_564" data-name="Fill 564" d="M.278.981,1.689,0a1.929,1.929,0,0,1,.5.491,1.939,1.939,0,0,1-.486,2.7,1.909,1.909,0,0,1-.511.244L.116,1.882a.647.647,0,0,1,.162-.9" transform="translate(105.591 116.965)" fill="#167c5c"/>
    <path id="Fill_565" data-name="Fill 565" d="M.278,11.691,16.937.116a.649.649,0,0,1,.9.161l.386.557L.5,13.149l-.386-.557a.647.647,0,0,1,.162-.9" transform="translate(105.591 106.255)" fill="#167c5c"/>
    <path id="Fill_566" data-name="Fill 566" d="M1.41.116,0,1.1a1.909,1.909,0,0,0,.285.642,1.939,1.939,0,0,0,2.7.487,1.911,1.911,0,0,0,.407-.394L2.313.277a.649.649,0,0,0-.9-.161" transform="translate(121.119 106.255)" fill="#167c5c"/>
    <path id="Fill_567" data-name="Fill 567" d="M16.937.116.278,11.691a.647.647,0,0,0-.162.9l.386.557L18.227.835,17.84.277a.649.649,0,0,0-.9-.161" transform="translate(105.591 106.255)" fill="#167c5c"/>
    <path id="Fill_568" data-name="Fill 568" d="M7.115,9.619,6.6,9.976,0,.471.512.116a.649.649,0,0,1,.9.161l5.863,8.44a.648.648,0,0,1-.163.9" transform="translate(122.017 106.255)" fill="#167c5c"/>
    <path id="Fill_569" data-name="Fill 569" d="M6.881,9.859,7.393,9.5.791,0,.278.357a.647.647,0,0,0-.162.9L5.979,9.7a.648.648,0,0,0,.9.163" transform="translate(105.591 117.589)" fill="#167c5c"/>
    <path id="Fill_570" data-name="Fill 570" d="M1.98,2.455l1.411-.98A1.928,1.928,0,0,0,.407.347,1.911,1.911,0,0,0,0,.742L1.078,2.292a.648.648,0,0,0,.9.163" transform="translate(110.492 124.993)" fill="#167c5c"/>
    <path id="Fill_571" data-name="Fill 571" d="M1.289,13.033,17.948,1.458a.648.648,0,0,0,.163-.9L17.724,0,0,12.314l.386.555a.647.647,0,0,0,.9.163" transform="translate(111.184 114.416)" fill="#167c5c"/>
    <path id="Fill_572" data-name="Fill 572" d="M2.26,2.453.849,3.435A1.928,1.928,0,0,1,.833.244,1.918,1.918,0,0,1,1.345,0L2.423,1.552a.648.648,0,0,1-.163.9" transform="translate(126.872 113.42)" fill="#167c5c"/>
    <path id="Fill_573" data-name="Fill 573" d="M17.948,1.458,1.289,13.033a.648.648,0,0,1-.9-.163L0,12.314,17.724,0l.386.557a.648.648,0,0,1-.163.9" transform="translate(111.184 114.416)" fill="#167c5c"/>
    <path id="Fill_574" data-name="Fill 574" d="M2.692,0,23.449,4.751a.144.144,0,0,1,.108.174l-2.515,11a.145.145,0,0,1-.174.108L.112,11.285A.145.145,0,0,1,0,11.111l2.515-11A.145.145,0,0,1,2.692,0" transform="translate(103.933 96.584)" fill="#53b78f"/>
    <path id="Fill_575" data-name="Fill 575" d="M.051,1.561a2.008,2.008,0,1,1,1.51,2.4,2.008,2.008,0,0,1-1.51-2.4" transform="translate(113.706 102.593)" fill="#167c5c"/>
    <path id="Fill_576" data-name="Fill 576" d="M1.2.016,2.872.4a1.921,1.921,0,0,1-.025.7A1.938,1.938,0,0,1,.524,2.559,1.922,1.922,0,0,1,0,2.345L.421.5A.648.648,0,0,1,1.2.016" transform="translate(105.919 96.683)" fill="#167c5c"/>
    <path id="Fill_577" data-name="Fill 577" d="M.927.016,20.7,4.539a.65.65,0,0,1,.488.776l-.152.66L0,1.163.151.5A.648.648,0,0,1,.927.016" transform="translate(106.189 96.683)" fill="#167c5c"/>
    <path id="Fill_578" data-name="Fill 578" d="M2.007.383.333,0A1.927,1.927,0,0,0,1.508,2.967,1.87,1.87,0,0,0,2.073,3L2.5,1.159A.65.65,0,0,0,2.007.383" transform="translate(124.884 100.839)" fill="#167c5c"/>
    <path id="Fill_579" data-name="Fill 579" d="M20.7,4.539.927.016A.648.648,0,0,0,.151.5L0,1.163,21.039,5.975l.152-.66a.65.65,0,0,0-.488-.776" transform="translate(106.189 96.683)" fill="#167c5c"/>
    <path id="Fill_580" data-name="Fill 580" d="M.607,11.421,0,11.282,2.579,0l.609.139a.65.65,0,0,1,.488.776L1.385,10.933a.651.651,0,0,1-.778.488" transform="translate(123.704 101.083)" fill="#167c5c"/>
    <path id="Fill_581" data-name="Fill 581" d="M.5,11.3l.608.139L3.692.156,3.084.016A.648.648,0,0,0,2.307.5L.016,10.52A.648.648,0,0,0,.5,11.3" transform="translate(104.033 96.683)" fill="#167c5c"/>
    <path id="Fill_582" data-name="Fill 582" d="M.5,2.624l1.675.383a1.92,1.92,0,0,0,.283-.643A1.938,1.938,0,0,0,1,.042,1.924,1.924,0,0,0,.438.006L.016,1.848A.648.648,0,0,0,.5,2.624" transform="translate(104.033 105.356)" fill="#167c5c"/>
    <path id="Fill_583" data-name="Fill 583" d="M.5,1.436,20.278,5.96a.65.65,0,0,0,.778-.488l.15-.66L.167,0,.016.66A.648.648,0,0,0,.5,1.436" transform="translate(104.033 106.544)" fill="#167c5c"/>
    <path id="Fill_584" data-name="Fill 584" d="M1.695,2.593.021,2.21A1.928,1.928,0,0,1,2.369.049a1.955,1.955,0,0,1,.524.214L2.472,2.1a.65.65,0,0,1-.778.488" transform="translate(122.616 109.91)" fill="#167c5c"/>
    <path id="Fill_585" data-name="Fill 585" d="M20.278,5.96.5,1.436A.648.648,0,0,1,.016.66L.167,0,21.206,4.812l-.15.66a.65.65,0,0,1-.778.488" transform="translate(104.033 106.544)" fill="#167c5c"/>
    <path id="Fill_586" data-name="Fill 586" d="M.071,10.9,18.373.02a.145.145,0,0,1,.2.05l5.764,9.7a.144.144,0,0,1-.05.2L5.985,20.848a.145.145,0,0,1-.2-.05L.02,11.1a.145.145,0,0,1,.05-.2" transform="translate(105.374 101.55)" fill="#53b78f"/>
    <path id="Fill_587" data-name="Fill 587" d="M.282,3.034a2.008,2.008,0,1,1,2.752.7,2.007,2.007,0,0,1-2.752-.7" transform="translate(115.545 109.977)" fill="#167c5c"/>
    <path id="Fill_588" data-name="Fill 588" d="M.317.878,1.794,0A1.91,1.91,0,0,1,2.26.524a1.939,1.939,0,0,1-.676,2.658,1.885,1.885,0,0,1-.527.207L.091,1.767A.648.648,0,0,1,.317.878" transform="translate(105.561 111.317)" fill="#167c5c"/>
    <path id="Fill_589" data-name="Fill 589" d="M.317,10.459,17.753.091a.648.648,0,0,1,.889.227L18.988.9.437,11.928l-.346-.581a.648.648,0,0,1,.226-.889" transform="translate(105.561 101.736)" fill="#167c5c"/>
    <path id="Fill_590" data-name="Fill 590" d="M1.477.091,0,.969a1.919,1.919,0,0,0,.239.662A1.94,1.94,0,0,0,2.9,2.307a1.963,1.963,0,0,0,.433-.365L2.366.318A.648.648,0,0,0,1.477.091" transform="translate(121.837 101.736)" fill="#167c5c"/>
    <path id="Fill_591" data-name="Fill 591" d="M17.753.091.317,10.459a.648.648,0,0,0-.226.889l.346.581L18.988.9,18.642.318a.648.648,0,0,0-.889-.227" transform="translate(105.561 101.736)" fill="#167c5c"/>
    <path id="Fill_592" data-name="Fill 592" d="M6.451,10.038l-.537.319L0,.41.537.091a.648.648,0,0,1,.889.227L6.677,9.151a.648.648,0,0,1-.225.887" transform="translate(122.778 101.736)" fill="#167c5c"/>
    <path id="Fill_593" data-name="Fill 593" d="M6.231,10.266l.536-.319L.853,0,.317.319a.648.648,0,0,0-.226.889l5.251,8.831a.648.648,0,0,0,.889.227" transform="translate(105.561 111.876)" fill="#167c5c"/>
    <path id="Fill_594" data-name="Fill 594" d="M1.854,2.488,3.331,1.61A1.927,1.927,0,0,0,.434.272,1.954,1.954,0,0,0,0,.637L.965,2.261a.648.648,0,0,0,.889.227" transform="translate(109.938 119.655)" fill="#167c5c"/>
    <path id="Fill_595" data-name="Fill 595" d="M1.234,11.837,18.672,1.469A.648.648,0,0,0,18.9.582L18.551,0,0,11.028l.346.582a.648.648,0,0,0,.889.227" transform="translate(110.557 110.305)" fill="#167c5c"/>
    <path id="Fill_596" data-name="Fill 596" d="M2.216,2.511.739,3.389A1.925,1.925,0,0,1,.949.207,1.867,1.867,0,0,1,1.476,0l.965,1.624a.648.648,0,0,1-.225.887" transform="translate(127.013 109.263)" fill="#167c5c"/>
    <path id="Fill_597" data-name="Fill 597" d="M18.672,1.469,1.234,11.837a.648.648,0,0,1-.889-.227L0,11.028,18.551,0,18.9.582a.648.648,0,0,1-.225.887" transform="translate(110.557 110.305)" fill="#167c5c"/>
    <path id="Fill_598" data-name="Fill 598" d="M.138,17.208A33.306,33.306,0,0,1,21.579.043c.495-.127.961.041,1.036.36q1.094,4.574,2.133,9.16a.629.629,0,0,1-.483.726A22.718,22.718,0,0,0,9.606,21.955a.626.626,0,0,1-.812.305Q4.545,20.244.273,18.278c-.3-.136-.365-.618-.135-1.07" transform="translate(91.43 132.516)" fill="#53b78f"/>
    <path id="Fill_599" data-name="Fill 599" d="M.409,3.585C-.3,2.865-.074,1.493,1.015.623s2.49-.8,3.046.044A2.188,2.188,0,0,1,3.328,3.48a2.22,2.22,0,0,1-2.919.1" transform="translate(101.591 140.898)" fill="#167c5c"/>
    <path id="Fill_600" data-name="Fill 600" d="M.138,2.114Q.687,1.032,1.31,0a1.247,1.247,0,0,1,.639.166c.836.515.916,1.879.293,3.12a4.008,4.008,0,0,1-.4.623Q1.058,3.545.273,3.184c-.3-.136-.365-.618-.135-1.07" transform="translate(91.43 147.61)" fill="#167c5c"/>
    <path id="Fill_601" data-name="Fill 601" d="M.138,17.208A33.306,33.306,0,0,1,21.579.043c.495-.127.961.041,1.036.36l.144.6A32.092,32.092,0,0,0,.836,18.538c-.188-.088-.375-.174-.563-.26-.3-.136-.365-.618-.135-1.07" transform="translate(91.43 132.516)" fill="#167c5c"/>
    <path id="Fill_602" data-name="Fill 602" d="M2.361.043Q1.178.345.029.731a1.211,1.211,0,0,0,.034.654c.342.922,1.676,1.291,3.034.953a4.029,4.029,0,0,0,.7-.252Q3.6,1.243,3.4.4C3.322.083,2.856-.084,2.361.043" transform="translate(110.647 132.516)" fill="#167c5c"/>
    <path id="Fill_603" data-name="Fill 603" d="M21.579.043A33.3,33.3,0,0,0,.138,17.208c-.23.452-.163.934.135,1.07.188.086.375.172.563.26A32.092,32.092,0,0,1,22.758,1.006L22.614.4c-.074-.319-.541-.487-1.036-.36" transform="translate(91.43 132.516)" fill="#167c5c"/>
    <path id="Fill_604" data-name="Fill 604" d="M3.54,10.288c-.2.05-.391.1-.585.156Q1.512,5.349,0,.273.425.153.855.043c.495-.127.961.041,1.036.36q1.094,4.574,2.133,9.16a.629.629,0,0,1-.483.726" transform="translate(112.154 132.516)" fill="#167c5c"/>
    <path id="Fill_605" data-name="Fill 605" d="M9.606,5.527c.091-.177.184-.354.28-.529Q5.233,2.468.547,0C.407.258.271.516.138.779c-.23.452-.163.934.135,1.07Q4.545,3.814,8.793,5.832a.626.626,0,0,0,.812-.305" transform="translate(91.43 148.944)" fill="#167c5c"/>
    <path id="Fill_606" data-name="Fill 606" d="M2.375,2.112q.376-.735.8-1.435A1.713,1.713,0,0,0,2.7.239a1.8,1.8,0,0,0-2.517.868A2.116,2.116,0,0,0,0,1.677q.782.368,1.563.74a.626.626,0,0,0,.812-.305" transform="translate(98.66 152.359)" fill="#167c5c"/>
    <path id="Fill_607" data-name="Fill 607" d="M1.372,13A22.718,22.718,0,0,1,16.03,1.33.629.629,0,0,0,16.513.6c-.046-.2-.091-.4-.137-.6A23.933,23.933,0,0,0,0,13.036l.56.266A.626.626,0,0,0,1.372,13" transform="translate(99.663 141.474)" fill="#167c5c"/>
    <path id="Fill_608" data-name="Fill 608" d="M2.009,2.413q-.809.2-1.6.466a1.729,1.729,0,0,1-.324-.557A1.8,1.8,0,0,1,1.5.058,2.221,2.221,0,0,1,2.109,0q.193.843.384,1.685a.629.629,0,0,1-.483.726" transform="translate(113.684 140.392)" fill="#167c5c"/>
    <path id="Fill_609" data-name="Fill 609" d="M16.03,1.33A22.718,22.718,0,0,0,1.372,13,.626.626,0,0,1,.56,13.3L0,13.036A23.933,23.933,0,0,1,16.376,0c.046.2.091.4.137.6a.629.629,0,0,1-.483.726" transform="translate(99.663 141.474)" fill="#167c5c"/>
    <path id="Fill_610" data-name="Fill 610" d="M.016,19.06,9.665.08a.146.146,0,0,1,.2-.064L19.917,5.129a.144.144,0,0,1,.064.194L10.331,24.3a.145.145,0,0,1-.194.063L.079,19.255a.146.146,0,0,1-.064-.2" transform="translate(112.887 104.88)" fill="#53b78f"/>
    <path id="Fill_611" data-name="Fill 611" d="M1.1,3.8a2.008,2.008,0,1,1,2.7-.881A2.009,2.009,0,0,1,1.1,3.8" transform="translate(120.877 115.064)" fill="#167c5c"/>
    <path id="Fill_612" data-name="Fill 612" d="M.071,1.53.849,0a1.9,1.9,0,0,1,.675.194A1.94,1.94,0,0,1,2.374,2.8a1.935,1.935,0,0,1-.335.457L.355,2.4A.648.648,0,0,1,.071,1.53" transform="translate(113.061 121.961)" fill="#167c5c"/>
    <path id="Fill_613" data-name="Fill 613" d="M.071,18.437,9.264.355a.648.648,0,0,1,.872-.285l.6.307L.958,19.616l-.6-.307a.648.648,0,0,1-.284-.872" transform="translate(113.061 105.054)" fill="#167c5c"/>
    <path id="Fill_614" data-name="Fill 614" d="M.779.355,0,1.886a1.917,1.917,0,0,0,.555.43,1.936,1.936,0,0,0,2.607-.85,1.9,1.9,0,0,0,.172-.54L1.651.071A.648.648,0,0,0,.779.355" transform="translate(121.546 105.054)" fill="#167c5c"/>
    <path id="Fill_615" data-name="Fill 615" d="M9.264.355.071,18.437a.648.648,0,0,0,.284.872l.6.307L10.738.377l-.6-.307a.648.648,0,0,0-.872.285" transform="translate(113.061 105.054)" fill="#167c5c"/>
    <path id="Fill_616" data-name="Fill 616" d="M10.6,5.6l-.283.557L0,.911.283.355A.648.648,0,0,1,1.155.071l9.16,4.657A.649.649,0,0,1,10.6,5.6" transform="translate(122.042 105.054)" fill="#167c5c"/>
    <path id="Fill_617" data-name="Fill 617" d="M10.386,5.8l.283-.557L.353,0,.071.555a.648.648,0,0,0,.284.872l9.16,4.657a.647.647,0,0,0,.872-.283" transform="translate(113.061 122.936)" fill="#167c5c"/>
    <path id="Fill_618" data-name="Fill 618" d="M2.557,2.173,3.334.641a1.916,1.916,0,0,0-.554-.43,1.941,1.941,0,0,0-2.608.85A1.92,1.92,0,0,0,0,1.6l1.685.856a.647.647,0,0,0,.872-.283" transform="translate(120.89 126.563)" fill="#167c5c"/>
    <path id="Fill_619" data-name="Fill 619" d="M1.476,19.262,10.668,1.178a.649.649,0,0,0-.283-.872L9.781,0,0,19.238l.6.307a.647.647,0,0,0,.872-.283" transform="translate(121.972 109.474)" fill="#167c5c"/>
    <path id="Fill_620" data-name="Fill 620" d="M2.514,1.727,1.736,3.259a1.929,1.929,0,0,1-.676-.194A1.941,1.941,0,0,1,.211.457,1.934,1.934,0,0,1,.546,0L2.231.856a.649.649,0,0,1,.283.872" transform="translate(130.126 108.925)" fill="#167c5c"/>
    <path id="Fill_621" data-name="Fill 621" d="M10.668,1.178,1.476,19.262a.647.647,0,0,1-.872.283L0,19.238,9.781,0l.6.307a.649.649,0,0,1,.283.872" transform="translate(121.972 109.474)" fill="#167c5c"/>
    <path id="Fill_622" data-name="Fill 622" d="M61.135,30.231,14.482,52.173a.5.5,0,0,1-.662-.238L.047,22.65a.5.5,0,0,1,.238-.66L46.94.047a.5.5,0,0,1,.66.238L61.375,29.569a.5.5,0,0,1-.239.662" transform="translate(110.613 74.735)" fill="#855843"/>
    <path id="Fill_623" data-name="Fill 623" d="M44.8.212,1.279,20.684a2.225,2.225,0,0,0-1.067,2.96L7.075,38.237a5.06,5.06,0,0,0,5.4.7L51.724,20.479a5.068,5.068,0,0,0,2.906-4.608L47.765,1.278A2.225,2.225,0,0,0,44.8.212" transform="translate(111.184 75.306)" fill="#000105"/>
    <path id="Fill_624" data-name="Fill 624" d="M.025,17.612,12.082.062a.147.147,0,0,1,.2-.038l9.3,6.389a.146.146,0,0,1,.038.2L9.563,24.165a.143.143,0,0,1-.2.038l-9.3-6.389a.145.145,0,0,1-.037-.2" transform="translate(113.753 97.13)" fill="#24ad83"/>
    <path id="Fill_625" data-name="Fill 625" d="M.871,3.663a2.008,2.008,0,1,1,2.791-.518,2.006,2.006,0,0,1-2.791.518" transform="translate(122.568 107.237)" fill="#167c5c"/>
    <path id="Fill_626" data-name="Fill 626" d="M.114,1.416,1.087,0A1.947,1.947,0,0,1,1.73.282a1.941,1.941,0,0,1,.5,2.7,1.909,1.909,0,0,1-.392.408L.281,2.317a.648.648,0,0,1-.167-.9" transform="translate(113.95 112.912)" fill="#167c5c"/>
    <path id="Fill_627" data-name="Fill 627" d="M.114,17,11.6.282a.647.647,0,0,1,.9-.167L13.06.5.839,18.286.281,17.9A.648.648,0,0,1,.114,17" transform="translate(113.95 97.327)" fill="#167c5c"/>
    <path id="Fill_628" data-name="Fill 628" d="M.973.282,0,1.7a1.9,1.9,0,0,0,.494.5,1.94,1.94,0,0,0,2.7-.5,1.894,1.894,0,0,0,.241-.513L1.875.114a.647.647,0,0,0-.9.167" transform="translate(124.577 97.327)" fill="#167c5c"/>
    <path id="Fill_629" data-name="Fill 629" d="M11.6.282.114,17a.648.648,0,0,0,.167.9l.558.383L13.06.5,12.5.114a.647.647,0,0,0-.9.167" transform="translate(113.95 97.327)" fill="#167c5c"/>
    <path id="Fill_630" data-name="Fill 630" d="M9.892,6.833l-.354.515L0,.8.354.282a.647.647,0,0,1,.9-.167l8.47,5.818a.65.65,0,0,1,.167.9" transform="translate(125.197 97.327)" fill="#167c5c"/>
    <path id="Fill_631" data-name="Fill 631" d="M9.652,7.066l.354-.515L.467,0,.114.513a.648.648,0,0,0,.167.9l8.47,5.819a.649.649,0,0,0,.9-.167" transform="translate(113.95 113.815)" fill="#167c5c"/>
    <path id="Fill_632" data-name="Fill 632" d="M2.46,2.257,3.431.841a1.915,1.915,0,0,0-.493-.5,1.94,1.94,0,0,0-2.7.5A2.042,2.042,0,0,0,0,1.354l1.558,1.07a.649.649,0,0,0,.9-.167" transform="translate(121.142 118.624)" fill="#167c5c"/>
    <path id="Fill_633" data-name="Fill 633" d="M1.46,18.005,12.947,1.285a.65.65,0,0,0-.167-.9L12.22,0,0,17.789l.559.383a.65.65,0,0,0,.9-.167" transform="translate(122.142 102.876)" fill="#167c5c"/>
    <path id="Fill_634" data-name="Fill 634" d="M2.458,1.972,1.485,3.388a1.909,1.909,0,0,1-.643-.282,1.938,1.938,0,0,1-.5-2.7A1.958,1.958,0,0,1,.734,0L2.291,1.07a.65.65,0,0,1,.167.9" transform="translate(132.631 102.189)" fill="#167c5c"/>
    <path id="Fill_635" data-name="Fill 635" d="M12.947,1.285,1.46,18.005a.65.65,0,0,1-.9.167L0,17.789,12.22,0l.559.383a.65.65,0,0,1,.167.9" transform="translate(122.142 102.876)" fill="#167c5c"/>
    <path id="Fill_636" data-name="Fill 636" d="M0,21.416.806.139A.145.145,0,0,1,.956,0L12.23.427a.145.145,0,0,1,.139.15l-.806,21.277a.145.145,0,0,1-.15.139L.138,21.567A.144.144,0,0,1,0,21.416" transform="translate(125.365 100.632)" fill="#24ad83"/>
    <path id="Fill_637" data-name="Fill 637" d="M1.932,4.013A2.007,2.007,0,1,1,4.015,2.083,2.009,2.009,0,0,1,1.932,4.013" transform="translate(129.542 109.621)" fill="#167c5c"/>
    <path id="Fill_638" data-name="Fill 638" d="M0,1.824.065.107A1.971,1.971,0,0,1,.759,0,1.941,1.941,0,0,1,2.625,2.013a1.981,1.981,0,0,1-.113.555L.623,2.5A.648.648,0,0,1,0,1.824" transform="translate(125.384 119.721)" fill="#167c5c"/>
    <path id="Fill_639" data-name="Fill 639" d="M0,20.894.769.623A.647.647,0,0,1,1.44,0l.678.025L1.3,21.592l-.676-.025A.648.648,0,0,1,0,20.894" transform="translate(125.384 100.65)" fill="#167c5c"/>
    <path id="Fill_640" data-name="Fill 640" d="M.066.623,0,2.34a1.919,1.919,0,0,0,.684.16A1.942,1.942,0,0,0,2.7.634a1.908,1.908,0,0,0-.07-.562L.737,0A.647.647,0,0,0,.066.623" transform="translate(126.087 100.65)" fill="#167c5c"/>
    <path id="Fill_641" data-name="Fill 641" d="M.769.623,0,20.894a.648.648,0,0,0,.623.673l.676.025L2.118.026,1.44,0A.647.647,0,0,0,.769.623" transform="translate(125.384 100.65)" fill="#167c5c"/>
    <path id="Fill_642" data-name="Fill 642" d="M11.588,1.061l-.023.624L0,1.248.025.623A.647.647,0,0,1,.7,0L10.966.39a.647.647,0,0,1,.623.671" transform="translate(126.128 100.65)" fill="#167c5c"/>
    <path id="Fill_643" data-name="Fill 643" d="M11.564,1.061l.023-.623L.024,0,0,.623A.648.648,0,0,0,.623,1.3l10.268.39a.65.65,0,0,0,.673-.624" transform="translate(125.384 120.922)" fill="#167c5c"/>
    <path id="Fill_644" data-name="Fill 644" d="M2.632,1.876,2.7.159A1.96,1.96,0,0,0,2.012,0,1.939,1.939,0,0,0,0,1.867a1.908,1.908,0,0,0,.07.562L1.959,2.5a.65.65,0,0,0,.673-.624" transform="translate(134.316 120.107)" fill="#167c5c"/>
    <path id="Fill_645" data-name="Fill 645" d="M1.349,20.969,2.117.7A.647.647,0,0,0,1.494.027L.817,0,0,21.567l.676.027a.65.65,0,0,0,.673-.624" transform="translate(135.599 101.014)" fill="#167c5c"/>
    <path id="Fill_646" data-name="Fill 646" d="M2.625.743,2.56,2.46a1.894,1.894,0,0,1-.693.106A1.939,1.939,0,0,1,0,.555,1.916,1.916,0,0,1,.114,0L2,.072a.647.647,0,0,1,.623.671" transform="translate(135.09 100.968)" fill="#167c5c"/>
    <path id="Fill_647" data-name="Fill 647" d="M2.117.7,1.349,20.969a.65.65,0,0,1-.673.624L0,21.567.817,0l.678.027A.647.647,0,0,1,2.117.7" transform="translate(135.599 101.014)" fill="#167c5c"/>
    <path id="Fill_648" data-name="Fill 648" d="M55.877,18.426,9.435,40.268a1.091,1.091,0,0,1-1.451-.523L0,22.77,48.414,0,56.4,16.976a1.09,1.09,0,0,1-.523,1.45" transform="translate(109.99 74.308)" fill="#754e3c"/>
    <path id="Fill_649" data-name="Fill 649" d="M8.724,7.167,3.476,9.634a.2.2,0,0,1-.264-.094L.018,2.751a.2.2,0,0,1,.1-.264L5.362.019a.2.2,0,0,1,.264.1L8.818,6.9a.2.2,0,0,1-.094.264" transform="translate(138.206 98.887)" fill="#f9d364"/>
    <path id="Fill_650" data-name="Fill 650" d="M4.509.085l-4,1.879A.892.892,0,0,0,.084,3.149l1.5,3.184L7.19,3.7,5.692.511A.888.888,0,0,0,4.509.085" transform="translate(138.434 99.115)" fill="#d5b95a"/>
    <path id="Fill_651" data-name="Fill 651" d="M1.485,1.743l-.637.3a.053.053,0,0,1-.072-.025L0,.377A.055.055,0,0,1,.031.305L.668,0A.057.057,0,0,1,.742.031l.77,1.638a.055.055,0,0,1-.027.074" transform="translate(141.61 105.038)" fill="#dcb74a"/>
    <path id="Fill_652" data-name="Fill 652" d="M1.485,1.743l-.637.3a.055.055,0,0,1-.072-.027L0,.378A.056.056,0,0,1,.031.3l.637-.3A.055.055,0,0,1,.742.031l.77,1.64a.054.054,0,0,1-.027.072" transform="translate(143.839 103.99)" fill="#dcb74a"/>
    <path id="Fill_653" data-name="Fill 653" d="M25.619,7.438,23.192,8.58,21.268,4.489a3.148,3.148,0,0,0-4.184-1.507L4.489,8.9a3.148,3.148,0,0,0-1.507,4.184l1.923,4.09L2.478,18.322.554,14.231A5.835,5.835,0,0,1,3.347,6.477L15.941.554A5.836,5.836,0,0,1,23.7,3.347l1.923,4.091" transform="translate(120.919 74.503)" fill="#754e3c"/>
    <path id="Fill_654" data-name="Fill 654" d="M14.88,3.483,1.724,9.67a.162.162,0,0,1-.216-.078L.015,6.42A.164.164,0,0,1,.093,6.2L13.248.016a.163.163,0,0,1,.217.078l1.493,3.172a.164.164,0,0,1-.078.217" transform="translate(123.473 74.272)" fill="#432f26"/>
    <path id="Fill_655" data-name="Fill 655" d="M.041,11.177c-.028,0-.042-.006-.041-.019.017-.446.268-2.352.354-3l.033-.008.146-.041L1.7,7.769,11.01,5.032Q18.79,2.706,26.538.252L27.4,0C26.741.4,1.211,11.177.041,11.177" transform="translate(137.658 107.007)" fill="#60392c"/>
    <path id="Fill_656" data-name="Fill 656" transform="translate(134.197 99.785)" fill="#543428"/>
    <path id="Fill_657" data-name="Fill 657" d="M2.042,3.425a1.994,1.994,0,0,0-.873-.887L0,.053C.443.031.9.014,1.366,0L3.633.51A26.724,26.724,0,0,1,2.042,3.425" transform="translate(166.605 92.808)" fill="#139567"/>
    <path id="Fill_658" data-name="Fill 658" d="M.609,1.294,0,0A1.994,1.994,0,0,1,.873.887c-.088.138-.177.274-.264.407" transform="translate(167.774 95.346)" fill="#0e4c37"/>
    <path id="Fill_659" data-name="Fill 659" d="M2.267.532,0,.022C.524.008,1.061,0,1.605,0c.3,0,.6,0,.906.008-.081.178-.163.354-.244.524" transform="translate(167.971 92.786)" fill="#0e4c37"/>
    <path id="Fill_660" data-name="Fill 660" d="M1.258,6.921,0,1.934A5.063,5.063,0,0,0,1.189.063c.354-.023.72-.044,1.1-.063L4.062,3.779a14.075,14.075,0,0,1-2.8,3.142" transform="translate(164.321 92.862)" fill="#60392c"/>
    <path id="Fill_661" data-name="Fill 661" d="M1.277,1.871,1.044.945,0,1.138,2.413,0l.053,0A5.063,5.063,0,0,1,1.277,1.871" transform="translate(163.044 92.924)" fill="#000105"/>
    <path id="Fill_662" data-name="Fill 662" d="M0,10.673l.023-.124L.473,8.166Q1.254,4.087,1.978,0c.293,3.746.566,7.3.566,7.3l22.4-2.81s2.067-.313,4.949-.5L27.483,5.121Q18.451,6.8,9.465,8.67L0,10.673" transform="translate(135.561 88.94)" fill="#543428"/>
    <path id="Fill_663" data-name="Fill 663" d="M21.975,2.753c-.862,6.411-1.887,12.8-3.011,19.163q-.843,4.774-1.748,9.54l-.449,2.383-.227,1.169c.036-.045-.028-.081-.011-.141a.982.982,0,0,0-.138-.344c-.03-.117-.15-.174-.2-.239a1.164,1.164,0,0,0-.224-.114,1.028,1.028,0,0,0-.277-.031c-.1.02-.2.011-.268.069a.019.019,0,0,1-.019.008.015.015,0,0,0-.016.008l-.013.02v.014l.149-.033,1.186-.255,9.495-2.009q9.506-1.967,19.061-3.741L48.4,40.638q-9.248,2.988-18.553,5.75l-9.312,2.737-1.166.338-.146.041-.3.07-.609.131c-.408.077-.811.169-1.23.211a15.264,15.264,0,0,1-5.081-.244A14.786,14.786,0,0,1,7.3,47.753a15.152,15.152,0,0,1-3.81-3.336A15.21,15.21,0,0,1,.008,34.862a17.244,17.244,0,0,1,.166-2.557l.173-1.222.353-2.4q.69-4.8,1.461-9.589C3.177,12.71,4.292,6.342,5.571,0l16.4,2.753" transform="translate(118.817 65.651)" fill="#f1ae87"/>
    <path id="Fill_664" data-name="Fill 664" d="M0,4.1.682,0Q.363,2.04.055,4.081L0,4.1" transform="translate(119.997 86.628)" fill="#6f8d87"/>
    <path id="Fill_665" data-name="Fill 665" d="M.051.081v0l.055,0-.055,0" transform="translate(137.997 85.97)" fill="#6b4231"/>
    <path id="Fill_666" data-name="Fill 666" d="M0,4.66Q.307,2.618.629.579L18,0V0C15.269.211.994,4.369,0,4.66" transform="translate(120.052 86.049)" fill="#e5936c"/>
    <path id="Fill_667" data-name="Fill 667" d="M.011.08l.135,0L.011.08" transform="translate(138.091 85.966)" fill="#6b4231"/>
    <path id="Fill_668" data-name="Fill 668" d="M19.82,32.743l1.225-15.549L31.255,0c-2.249.3-19.506,1.911-24.3,8.593C4.509,12,1.5,22.674,0,33.68c5.6-.156,14.035-.681,19.82-.937" transform="translate(119.688 52.637)" fill="#e77e4e"/>
    <path id="Fill_669" data-name="Fill 669" d="M.016.236C.031.17.045.092.06,0L.14,0,.016.236" transform="translate(139.333 85.381)" fill="#74402e"/>
    <path id="Fill_670" data-name="Fill 670" d="M0,14.067v0c.29-2.442.589-5.558.589-5.716A.262.262,0,0,0,.583,8.3a3.118,3.118,0,0,1,1.9,1.658l.32.681L1.3,13.453,0,14.066ZM4.3,7.806h0A5.822,5.822,0,0,0,.651,5.558L.765,4.1l.18.336L4.379,0,2.07,4.619l4.619-1.3L4.305,7.8Z" transform="translate(139.706 69.036)" fill="#e36941"/>
    <path id="Fill_671" data-name="Fill 671" d="M0,2.816.139,1.049C.156.907.174.762.192.613L1.5,0,0,2.816" transform="translate(139.514 82.49)" fill="#74402e"/>
    <path id="Fill_672" data-name="Fill 672" d="M2.32,5.079,2,4.4A3.137,3.137,0,0,0,.1,2.74c-.013-.093-.05-.295-.1-.573L.171,0A5.847,5.847,0,0,1,3.824,2.249l-1.5,2.83" transform="translate(140.187 74.594)" fill="#74402e"/>
    <path id="Fill_673" data-name="Fill 673" d="M.582,15.342h0c.07-.39.159-1.028.259-1.846L.7,15.263l-.04.075-.073,0ZM1.369,6.71C1.031,4.952.01.049,0,0L1.655,3.1,1.371,6.71Z" transform="translate(138.816 70.043)" fill="#e36941"/>
    <path id="Fill_674" data-name="Fill 674" d="M2.245,0A18.252,18.252,0,0,0,0,.144c.618.865,5.4,7.2,12.842,7.2,7.989,0,6.827-6.981,6.827-6.981V0H2.245" transform="translate(148.417 52.648)" fill="#fffffe"/>
    <path id="Fill_675" data-name="Fill 675" d="M15.837,7.917a7.918,7.918,0,1,0-7.919,7.917,7.918,7.918,0,0,0,7.919-7.917" transform="translate(160.295 91.81)" fill="#f1ae87"/>
    <path id="Fill_676" data-name="Fill 676" d="M15.835,7.918a7.917,7.917,0,1,0-7.917,7.918,7.917,7.917,0,0,0,7.917-7.918" transform="translate(236.204 59.113)" fill="#f1ae87"/>
    <path id="Fill_677" data-name="Fill 677" d="M11.715.065.024,17.86a.146.146,0,0,0,.041.2l9.431,6.2a.145.145,0,0,0,.2-.042L21.387,6.42a.145.145,0,0,0-.042-.2L11.916.024a.145.145,0,0,0-.2.041" transform="translate(239.557 42.859)" fill="#24ad83"/>
    <path id="Fill_678" data-name="Fill 678" d="M3.11.33a2.008,2.008,0,1,0,.576,2.78A2.008,2.008,0,0,0,3.11.33" transform="translate(248.255 52.992)" fill="#167c5c"/>
    <path id="Fill_679" data-name="Fill 679" d="M.942.292,0,1.728a1.911,1.911,0,0,0,.5.489,1.939,1.939,0,0,0,2.685-.556,1.871,1.871,0,0,0,.23-.517L1.84.106a.649.649,0,0,0-.9.186" transform="translate(250.054 43.053)" fill="#167c5c"/>
    <path id="Fill_680" data-name="Fill 680" d="M11.245.292.107,17.246a.648.648,0,0,0,.185.9l.566.372L12.709.478,12.143.106a.649.649,0,0,0-.9.186" transform="translate(239.751 43.053)" fill="#167c5c"/>
    <path id="Fill_681" data-name="Fill 681" d="M.107,1.436,1.051,0A1.918,1.918,0,0,1,1.7.268a1.941,1.941,0,0,1,.557,2.686,1.939,1.939,0,0,1-.383.417L.292,2.333a.648.648,0,0,1-.185-.9" transform="translate(239.751 58.863)" fill="#167c5c"/>
    <path id="Fill_682" data-name="Fill 682" d="M.107,17.246,11.245.292a.649.649,0,0,1,.9-.186l.566.372L.858,18.515l-.566-.372a.648.648,0,0,1-.185-.9" transform="translate(239.751 43.053)" fill="#167c5c"/>
    <path id="Fill_683" data-name="Fill 683" d="M9.777,6.876l.343-.521L.45,0,.107.521a.648.648,0,0,0,.185.9L8.88,7.061a.647.647,0,0,0,.9-.186" transform="translate(239.751 59.778)" fill="#167c5c"/>
    <path id="Fill_684" data-name="Fill 684" d="M10.013,6.647l-.343.521L0,.814.341.292a.649.649,0,0,1,.9-.186L9.828,5.749a.648.648,0,0,1,.185.9" transform="translate(250.654 43.053)" fill="#167c5c"/>
    <path id="Fill_685" data-name="Fill 685" d="M2.467,1.935,1.524,3.371A1.929,1.929,0,0,1,.319.417,1.943,1.943,0,0,1,.7,0l1.58,1.038a.648.648,0,0,1,.185.9" transform="translate(258.2 47.765)" fill="#167c5c"/>
    <path id="Fill_686" data-name="Fill 686" d="M12.6,1.269,1.463,18.223a.647.647,0,0,1-.9.186L0,18.037,11.851,0l.566.372a.648.648,0,0,1,.185.9" transform="translate(248.065 48.43)" fill="#167c5c"/>
    <path id="Fill_687" data-name="Fill 687" d="M2.475,2.244,3.419.808a1.913,1.913,0,0,0-.5-.489A1.939,1.939,0,0,0,.23.875,1.872,1.872,0,0,0,0,1.392L1.579,2.43a.647.647,0,0,0,.9-.186" transform="translate(247.052 64.41)" fill="#167c5c"/>
    <path id="Fill_688" data-name="Fill 688" d="M1.463,18.223,12.6,1.269a.648.648,0,0,0-.185-.9L11.851,0,0,18.037l.566.372a.647.647,0,0,0,.9-.186" transform="translate(248.065 48.43)" fill="#167c5c"/>
    <path id="Fill_689" data-name="Fill 689" d="M22.938,3.266,1.9,0a.145.145,0,0,0-.166.121L0,11.272a.144.144,0,0,0,.12.165L21.163,14.7a.144.144,0,0,0,.164-.121L23.058,3.432a.145.145,0,0,0-.12-.165" transform="translate(244.884 58.314)" fill="#24ad83"/>
    <path id="Fill_690" data-name="Fill 690" d="M3.992,2.316A2.008,2.008,0,1,0,1.7,3.992,2.007,2.007,0,0,0,3.992,2.316" transform="translate(254.405 63.658)" fill="#167c5c"/>
    <path id="Fill_691" data-name="Fill 691" d="M1.957.263.26,0A1.917,1.917,0,0,0,2.208,2.87L2.5,1a.649.649,0,0,0-.541-.74" transform="translate(265.366 61.24)" fill="#167c5c"/>
    <path id="Fill_692" data-name="Fill 692" d="M20.891,3.118.845.008A.648.648,0,0,0,.1.549L0,1.218,21.327,4.527l.1-.669a.649.649,0,0,0-.541-.74" transform="translate(246.433 58.385)" fill="#167c5c"/>
    <path id="Fill_693" data-name="Fill 693" d="M1.03.008l1.7.263a1.951,1.951,0,0,1,.023.7A1.939,1.939,0,0,1,.538,2.592,1.909,1.909,0,0,1,0,2.416L.289.549A.648.648,0,0,1,1.03.008" transform="translate(246.248 58.385)" fill="#167c5c"/>
    <path id="Fill_694" data-name="Fill 694" d="M.845.008l20.046,3.11a.649.649,0,0,1,.541.74l-.1.669L0,1.218.1.549A.648.648,0,0,1,.845.008" transform="translate(246.433 58.385)" fill="#167c5c"/>
    <path id="Fill_695" data-name="Fill 695" d="M.549,11.443l.616.1L2.94.1l-.616-.1a.648.648,0,0,0-.74.541L.008,10.7a.649.649,0,0,0,.541.74" transform="translate(244.954 58.385)" fill="#167c5c"/>
    <path id="Fill_696" data-name="Fill 696" d="M.616,11.531,0,11.435,1.774,0l.616.1a.649.649,0,0,1,.541.74L1.357,10.99a.648.648,0,0,1-.74.541" transform="translate(264.933 61.407)" fill="#167c5c"/>
    <path id="Fill_697" data-name="Fill 697" d="M1.744,2.608l-1.7-.263a1.915,1.915,0,0,1-.025-.7A1.939,1.939,0,0,1,2.235.023,1.931,1.931,0,0,1,2.774.2L2.484,2.067a.648.648,0,0,1-.74.541" transform="translate(263.805 70.33)" fill="#167c5c"/>
    <path id="Fill_698" data-name="Fill 698" d="M20.595,4.519.549,1.409A.649.649,0,0,1,.008.669L.111,0,21.438,3.309l-.1.669a.648.648,0,0,1-.74.541" transform="translate(244.954 68.419)" fill="#167c5c"/>
    <path id="Fill_699" data-name="Fill 699" d="M.549,2.631l1.7.263a1.928,1.928,0,0,0,.236-.661A1.94,1.94,0,0,0,.864.019,1.922,1.922,0,0,0,.3.024L.008,1.89a.649.649,0,0,0,.541.74" transform="translate(244.954 67.197)" fill="#167c5c"/>
    <path id="Fill_700" data-name="Fill 700" d="M.549,1.409l20.046,3.11a.648.648,0,0,0,.74-.541l.1-.669L.111,0l-.1.669a.649.649,0,0,0,.541.74" transform="translate(244.954 68.419)" fill="#167c5c"/>
    <path id="Fill_701" data-name="Fill 701" d="M19.21.015.082,9.367a.145.145,0,0,0-.067.194L4.97,19.7a.145.145,0,0,0,.194.066l19.129-9.352a.143.143,0,0,0,.066-.194L19.4.081A.144.144,0,0,0,19.21.015" transform="translate(241.576 49.654)" fill="#53b78f"/>
    <path id="Fill_702" data-name="Fill 702" d="M3.812,1.126a2.008,2.008,0,1,0-.922,2.686,2.008,2.008,0,0,0,.922-2.686" transform="translate(251.754 57.535)" fill="#167c5c"/>
    <path id="Fill_703" data-name="Fill 703" d="M1.543.066,0,.82A1.9,1.9,0,0,0,.185,1.5a1.94,1.94,0,0,0,2.594.891,1.925,1.925,0,0,0,.462-.328L2.411.364a.65.65,0,0,0-.868-.3" transform="translate(258.789 49.824)" fill="#167c5c"/>
    <path id="Fill_704" data-name="Fill 704" d="M18.587.066.364,8.976a.649.649,0,0,0-.3.867l.3.608L19.753.972l-.3-.608a.65.65,0,0,0-.868-.3" transform="translate(241.745 49.824)" fill="#167c5c"/>
    <path id="Fill_705" data-name="Fill 705" d="M.364.755,1.907,0a1.928,1.928,0,0,1,.421.562,1.939,1.939,0,0,1-.89,2.594A1.907,1.907,0,0,1,.9,3.319l-.831-1.7a.649.649,0,0,1,.3-.867" transform="translate(241.745 58.045)" fill="#167c5c"/>
    <path id="Fill_706" data-name="Fill 706" d="M.364,8.976,18.587.066a.65.65,0,0,1,.868.3l.3.608L.363,10.451l-.3-.608a.649.649,0,0,1,.3-.867" transform="translate(241.745 49.824)" fill="#167c5c"/>
    <path id="Fill_707" data-name="Fill 707" d="M5.447,10.67l.56-.274L.925,0,.364.274a.649.649,0,0,0-.3.867L4.58,10.373a.647.647,0,0,0,.867.3" transform="translate(241.745 58.526)" fill="#167c5c"/>
    <path id="Fill_708" data-name="Fill 708" d="M5.644,10.462l-.56.274L0,.34.56.066a.65.65,0,0,1,.868.3L5.941,9.6a.65.65,0,0,1-.3.867" transform="translate(259.772 49.824)" fill="#167c5c"/>
    <path id="Fill_709" data-name="Fill 709" d="M2.163,2.565.619,3.319A1.918,1.918,0,0,1,1.631,0L2.46,1.7a.65.65,0,0,1-.3.867" transform="translate(263.253 57.721)" fill="#167c5c"/>
    <path id="Fill_710" data-name="Fill 710" d="M19.388,1.475,1.164,10.385a.647.647,0,0,1-.867-.3L0,9.479,19.388,0l.3.608a.65.65,0,0,1-.3.867" transform="translate(246.028 58.811)" fill="#167c5c"/>
    <path id="Fill_711" data-name="Fill 711" d="M1.7,2.52l1.543-.754A1.925,1.925,0,0,0,.463.2,1.938,1.938,0,0,0,0,.525l.831,1.7a.647.647,0,0,0,.867.3" transform="translate(245.494 66.675)" fill="#167c5c"/>
    <path id="Fill_712" data-name="Fill 712" d="M1.164,10.385l18.224-8.91a.65.65,0,0,0,.3-.867L19.388,0,0,9.479l.3.608a.647.647,0,0,0,.867.3" transform="translate(246.028 58.811)" fill="#167c5c"/>
    <path id="Fill_713" data-name="Fill 713" d="M1.317.412A3.831,3.831,0,0,1,0,.176C.011.135.03.112.056.112l.016,0a3.877,3.877,0,0,0,.94.108A6.326,6.326,0,0,0,2.594,0V.215a4.16,4.16,0,0,1-1,.186q-.138.01-.277.01" transform="translate(208.501 82.011)" fill="#7da1a0"/>
    <path id="Fill_714" data-name="Fill 714" d="M0,.487V.271A6.554,6.554,0,0,0,.821,0L.756.155C.646.2.551.269.444.316A4.09,4.09,0,0,1,0,.487" transform="translate(211.095 81.74)" fill="#5b8289"/>
    <path id="Fill_715" data-name="Fill 715" d="M1.239,4.927S-.127.853.01.292A3.831,3.831,0,0,0,1.327.528q.138,0,.277-.01a4.159,4.159,0,0,0,1-.186A4.09,4.09,0,0,0,3.048.161C3.155.114,3.25.047,3.36,0L1.239,4.927" transform="translate(208.491 81.895)" fill="#e5936c"/>
    <path id="Fill_716" data-name="Fill 716" d="M1.081,0C.933.372-.548,4.168.219,5.414H19.863s1.485-2.347.1-3.5S12.292.288,12.292.288A17.155,17.155,0,0,1,5.921,1.343C1.943,1.343,1.081,0,1.081,0" transform="translate(149.124 257.705)" fill="#000105"/>
    <path id="Fill_717" data-name="Fill 717" d="M15.707,0c.149.372,1.629,4.168.862,5.414-1.581,0-15.88.1-15.88.1S-.8,3.164.594,2.014A12.018,12.018,0,0,1,4.053.208a20.126,20.126,0,0,0,6.815,1.134C14.844,1.343,15.707,0,15.707,0" transform="translate(83.774 257.705)" fill="#000105"/>
    <path id="Fill_718" data-name="Fill 718" d="M1.224,18.617,0,17.918,10.232,0l1.224.7L1.224,18.617" transform="translate(194.093 77.239)" fill="#fffffe"/>
    <path id="Fill_719" data-name="Fill 719" d="M.051,2.147,0,.739,20.62,0l.052,1.408L.051,2.147" transform="translate(118.625 84.508)" fill="#fffffe"/>
    <path id="Fill_720" data-name="Fill 720" d="M1.186,0,0,15.03a11.93,11.93,0,0,0,9.953,5.537c6.791,0,5.8-5.933,5.8-5.933V2.5L1.186,0" transform="translate(150.943 37.607)" fill="#f1ae87"/>
    <path id="Fill_721" data-name="Fill 721" d="M10.848,1.941,0,.075V0L10.848,1.932v.009" transform="translate(154.41 37.924)" fill="#97ada9"/>
    <path id="Fill_722" data-name="Fill 722" d="M1.44.256,0,.009V0L1.44.256" transform="translate(165.258 39.856)" fill="#5f9c99"/>
    <path id="Fill_723" data-name="Fill 723" d="M.227.133,0,.094.038.024.227.058V.133" transform="translate(154.183 37.866)" fill="#b3c4b5"/>
    <path id="Fill_724" data-name="Fill 724" d="M14.956,13.525A19.9,19.9,0,0,1,0,4.551L2.441,0l.227.039L13.516,1.9l1.44.247V13.525" transform="translate(151.742 37.96)" fill="#ed9871"/>
    <path id="Fill_725" data-name="Fill 725" d="M3.223,5.154S-.232,27.343.012,28.316c.2.813,10.742,5.607,17.27,5.484a3.846,3.846,0,0,0,3.727-3.373L24.378,3.686c.11-.877-13.033-8.67-21.155,1.468" transform="translate(151.759 14.15)" fill="#f1ae87"/>
    <path id="Fill_726" data-name="Fill 726" d="M.777,18.928c.95-.678,7.985-4.841,18.5-.726C25.221,14.766,28.033,7.214,22.6,2.875A14.061,14.061,0,0,0,2.614,5.938C-1.873,13.079.777,18.928.777,18.928" transform="translate(156.302 7.213)" fill="#130d0b"/>
    <path id="Fill_727" data-name="Fill 727" d="M5.2,21.972s6.519-3.022,7.941-14.311S3.327.473,2.334,1.959s-4.583,12.751-.225,19.5c2.311.849,3.1.514,3.1.514" transform="translate(148.31 11.982)" fill="#130d0b"/>
    <path id="Fill_728" data-name="Fill 728" d="M6.937,4.352A4.794,4.794,0,0,0,3.143.025C1.231-.216-.168,1.331.016,3.48A4.794,4.794,0,0,0,3.811,7.807C5.723,8.047,7.122,6.5,6.937,4.352" transform="translate(148.51 29.996)" fill="#f1ae87"/>
    <path id="Fill_729" data-name="Fill 729" d="M.034,2.638,0,1.228,50.321,0l.034,1.41L.034,2.638" transform="translate(130.62 135.904)" fill="#fffffe"/>
    <path id="Fill_730" data-name="Fill 730" d="M.074.41l0-.4L.083,0,.074.41" transform="translate(152.174 151.681)" fill="#8b575f"/>
    <path id="Fill_731" data-name="Fill 731" d="M0,11.156.014,9.939l.009-.41L4.292.491,13.61,0,6.744,2.208S1.1,9.931,0,11.156" transform="translate(152.233 142.152)" fill="#4994c4"/>
    <path id="Fill_732" data-name="Fill 732" d="M.351,2.449A.35.35,0,0,1,0,2.1C0,1.914.022,1.308.064.336A.371.371,0,0,1,.429,0,.35.35,0,0,1,.764.366C.723,1.322.7,1.917.7,2.1a.35.35,0,0,1-.351.349" transform="translate(150.921 255.108)" fill="#3ba0ce"/>
    <path id="Fill_733" data-name="Fill 733" d="M.351,101.112H.334A.351.351,0,0,1,0,100.746l.165-3.469a.354.354,0,0,1,.341-.333H.531a.354.354,0,0,1,.335.366L.7,100.779A.348.348,0,0,1,.351,101.112Zm.331-6.934H.665a.35.35,0,0,1-.333-.365L.5,90.347a.347.347,0,0,1,.33-.334l.037,0a.35.35,0,0,1,.334.366l-.169,3.464A.351.351,0,0,1,.682,94.179Zm.34-6.926h0l-.017,0a.351.351,0,0,1-.334-.366l.173-3.462a.332.332,0,0,1,.32-.336.335.335,0,0,1,.048,0,.351.351,0,0,1,.332.366l-.171,3.462A.35.35,0,0,1,1.023,87.252Zm.344-6.925H1.349a.351.351,0,0,1-.333-.368L1.19,76.5a.343.343,0,0,1,.328-.335l.039,0a.352.352,0,0,1,.332.368l-.172,3.462A.352.352,0,0,1,1.366,80.327ZM1.712,73.4H1.695a.353.353,0,0,1-.333-.368l.176-3.461a.345.345,0,0,1,.333-.333l.034,0a.351.351,0,0,1,.332.367l-.174,3.461A.352.352,0,0,1,1.712,73.4Zm.349-6.924H2.042a.344.344,0,0,1-.241-.114.35.35,0,0,1-.091-.255l.174-3.46a.35.35,0,0,1,.338-.334l.031,0a.352.352,0,0,1,.332.368L2.41,66.148A.35.35,0,0,1,2.061,66.48Zm.349-6.921H2.391a.352.352,0,0,1-.332-.368l.175-3.46a.35.35,0,0,1,.34-.333H2.6a.351.351,0,0,1,.331.368l-.175,3.46A.35.35,0,0,1,2.41,59.559Zm.349-6.917h0l-.018,0a.348.348,0,0,1-.331-.367l.175-3.466a.342.342,0,0,1,.325-.335.291.291,0,0,1,.042,0,.352.352,0,0,1,.332.368L3.11,52.309A.35.35,0,0,1,2.76,52.642Zm.352-6.927H3.092a.352.352,0,0,1-.332-.368l.175-3.46a.352.352,0,0,1,.332-.334l.036,0a.352.352,0,0,1,.333.366L3.46,45.382A.349.349,0,0,1,3.111,45.715Zm.352-6.92h0l-.019,0a.349.349,0,0,1-.331-.368l.175-3.46a.353.353,0,0,1,.334-.334l.034,0A.351.351,0,0,1,3.989,35l-.176,3.46A.351.351,0,0,1,3.463,38.795Zm.352-6.923H3.8a.35.35,0,0,1-.333-.367l.176-3.461a.348.348,0,0,1,.336-.334l.032,0a.35.35,0,0,1,.331.368l-.175,3.46A.351.351,0,0,1,3.815,31.872Zm.354-6.922h0l-.019,0a.351.351,0,0,1-.331-.368L4,21.119a.339.339,0,0,1,.328-.335l.041,0a.349.349,0,0,1,.331.368l-.176,3.461A.351.351,0,0,1,4.169,24.95Zm.354-6.925H4.5a.351.351,0,0,1-.245-.118.342.342,0,0,1-.087-.25l.176-3.463a.346.346,0,0,1,.324-.335.291.291,0,0,1,.044,0,.35.35,0,0,1,.331.367l-.176,3.461A.35.35,0,0,1,4.523,18.025ZM4.876,11.1H4.857a.35.35,0,0,1-.244-.116.343.343,0,0,1-.088-.25L4.7,7.267a.352.352,0,0,1,.339-.334H5.07A.35.35,0,0,1,5.4,7.3l-.176,3.464A.35.35,0,0,1,4.876,11.1ZM5.23,4.172h0l-.017,0A.35.35,0,0,1,4.879,3.8L5.058.335A.34.34,0,0,1,5.382,0a.311.311,0,0,1,.043,0,.35.35,0,0,1,.332.368L5.58,3.839A.35.35,0,0,1,5.23,4.172Z" transform="translate(151.141 151.243)" fill="#3ba0ce"/>
    <path id="Fill_734" data-name="Fill 734" d="M.351,2.451l-.017,0A.35.35,0,0,1,0,2.082L.091.334A.342.342,0,0,1,.459,0,.349.349,0,0,1,.791.37L.7,2.118a.351.351,0,0,1-.35.333" transform="translate(156.365 146.224)" fill="#3ba0ce"/>
    <path id="Fill_735" data-name="Fill 735" d="M0,6.883S2.654.512,4.677.137,9.1.137,9.1,1.486,4.6,9.355,4.3,9.355,0,6.883,0,6.883" transform="translate(237.695 55.524)" fill="#f1ae87"/>
    <path id="Fill_736" data-name="Fill 736" d="M0,0C.172,2.694,3.361,5.213,5.711,5.433S8.784,3.5,9.457.889L0,0" transform="translate(163.002 38.728)" fill="#fffffe"/>
    <path id="Fill_737" data-name="Fill 737" d="M0,24.389A33.31,33.31,0,0,1,13.108.251c.407-.308.9-.335,1.094-.069Q16.984,3.973,19.721,7.8a.628.628,0,0,1-.164.856,22.717,22.717,0,0,0-8.985,16.439.628.628,0,0,1-.631.6q-4.7-.211-9.4-.366c-.327-.009-.576-.429-.54-.934" transform="translate(67.576 148.792)" fill="#24ad83"/>
    <path id="Fill_738" data-name="Fill 738" d="M.943,4.341C.007,3.954-.313,2.6.353,1.377S2.337-.33,3.178.235a2.189,2.189,0,0,1,.415,2.878A2.219,2.219,0,0,1,.943,4.341" transform="translate(74.218 159.963)" fill="#167c5c"/>
    <path id="Fill_739" data-name="Fill 739" d="M0,2.509Q.091,1.3.265.107A1.257,1.257,0,0,1,.917.01C1.888.162,2.491,1.388,2.4,2.773a4.018,4.018,0,0,1-.126.729Q1.408,3.472.543,3.443C.216,3.433-.033,3.014,0,2.509" transform="translate(67.576 170.672)" fill="#167c5c"/>
    <path id="Fill_740" data-name="Fill 740" d="M0,24.389A33.309,33.309,0,0,1,13.108.251c.407-.308.9-.335,1.094-.069l.366.5A32.1,32.1,0,0,0,1.163,25.343l-.619-.02c-.327-.009-.576-.429-.54-.934" transform="translate(67.576 148.792)" fill="#167c5c"/>
    <path id="Fill_741" data-name="Fill 741" d="M1.883.251Q.91.988,0,1.789a1.22,1.22,0,0,0,.286.591c.672.715,2.046.54,3.166-.3A3.977,3.977,0,0,0,4,1.577L2.977.182C2.785-.084,2.29-.057,1.883.251" transform="translate(78.801 148.792)" fill="#167c5c"/>
    <path id="Fill_742" data-name="Fill 742" d="M13.108.251A33.309,33.309,0,0,0,0,24.389c-.037.505.212.925.54.934l.619.02A32.1,32.1,0,0,1,14.569.682L14.2.182c-.192-.266-.688-.239-1.094.069" transform="translate(67.576 148.792)" fill="#167c5c"/>
    <path id="Fill_743" data-name="Fill 743" d="M7.147,8.654q-.242.183-.479.371Q3.362,4.887,0,.8.345.519.7.251c.407-.308.9-.335,1.094-.069Q4.575,3.973,7.311,7.8a.628.628,0,0,1-.164.856" transform="translate(79.985 148.792)" fill="#167c5c"/>
    <path id="Fill_744" data-name="Fill 744" d="M10.572,1.58q.022-.3.052-.6Q5.355.456.078,0,.035.437,0,.876c-.036.505.212.925.54.934q4.7.155,9.4.366a.628.628,0,0,0,.631-.6" transform="translate(67.576 172.304)" fill="#167c5c"/>
    <path id="Fill_745" data-name="Fill 745" d="M2.412,1.875q.061-.824.182-1.635A1.733,1.733,0,0,0,1.988.021,1.8,1.8,0,0,0,0,1.8a2.14,2.14,0,0,0,.049.6q.864.038,1.728.077a.628.628,0,0,0,.631-.6" transform="translate(75.736 172.009)" fill="#167c5c"/>
    <path id="Fill_746" data-name="Fill 746" d="M1.25,17.8A22.716,22.716,0,0,1,10.234,1.36.628.628,0,0,0,10.4.5L10.038,0A23.93,23.93,0,0,0,0,18.367l.619.028a.628.628,0,0,0,.631-.6" transform="translate(76.898 156.086)" fill="#167c5c"/>
    <path id="Fill_747" data-name="Fill 747" d="M2.21,2.261q-.667.5-1.29,1.048a1.7,1.7,0,0,1-.515-.388A1.8,1.8,0,0,1,.832.286,2.205,2.205,0,0,1,1.366,0q.5.7,1.008,1.405a.628.628,0,0,1-.164.856" transform="translate(84.922 155.184)" fill="#167c5c"/>
    <path id="Fill_748" data-name="Fill 748" d="M10.234,1.36A22.716,22.716,0,0,0,1.25,17.8a.628.628,0,0,1-.631.6L0,18.367A23.93,23.93,0,0,1,10.038,0L10.4.5a.628.628,0,0,1-.164.856" transform="translate(76.898 156.086)" fill="#167c5c"/>
    <path id="Fill_749" data-name="Fill 749" d="M71.717,0c-5.264,5.065-10.761,10-16.29,14.766-2.762,2.393-5.567,4.723-8.363,6.988-1.4,1.135-2.807,2.231-4.2,3.274-.692.52-1.382,1.027-2.039,1.492-.33.234-.651.454-.947.653l-.732.479c-.07.048-.119.078-.016.05.017,0,0,.005.044-.01l.1-.032.1-.027.053-.012c.017,0,.027,0,.084-.02a4.2,4.2,0,0,1,.566-.106,6.36,6.36,0,0,1,.764-.055,4.544,4.544,0,0,1,.474.02l.139.016.111.017c.055.009.116.023.136.028a.52.52,0,0,1,.064.02c.047.02-.017.016-.106,0a8.263,8.263,0,0,1-.828-.234c-.332-.109-.692-.238-1.062-.377-1.493-.566-3.111-1.272-4.716-2-3.211-1.5-6.473-3.115-9.692-4.812-6.448-3.378-12.876-6.987-19.09-10.8L0,19.718c6.444,3.789,12.765,7.628,19.2,11.456,3.23,1.9,6.448,3.822,9.817,5.666,1.685.937,3.384,1.86,5.275,2.766.477.227.969.452,1.5.679s1.091.454,1.784.687c.352.116.732.235,1.23.352.119.03.255.059.4.088.133.028.31.058.477.083l.283.038.311.033c.253.019.474.034.82.031a8.316,8.316,0,0,0,1.108-.084c.3-.047.607-.106.9-.178l.169-.044.135-.038.269-.08.269-.086.2-.07c.537-.192.908-.354,1.253-.509.681-.305,1.188-.568,1.7-.836s.972-.521,1.424-.775c.908-.512,1.763-1.016,2.6-1.522,1.679-1.012,3.289-2.034,4.9-3.042,3.211-2.025,6.339-4.089,9.482-6.127,6.27-4.106,12.458-8.194,18.8-12.258L71.717,0" transform="translate(283.514 51.968)" fill="#18202f"/>
    <path id="Fill_750" data-name="Fill 750" d="M0,6.2S11.114,97.2,19.919,135.126H31.772L29.063,2.033S23.645,0,22.289,0,0,6.2,0,6.2" transform="translate(351.133 132.146)" fill="#18202f"/>
    <path id="Fill_751" data-name="Fill 751" d="M0,6.171S41.911,96.728,63.553,134.477H75.406L27.653,2.023S21.546,0,20.193,0,0,6.171,0,6.171" transform="translate(373.634 132.795)" fill="#18202f"/>
    <path id="Fill_752" data-name="Fill 752" d="M3.763,0a16.485,16.485,0,0,1,.864,5.336,14.4,14.4,0,0,1-2.94,9.136C.621,6.2,0,1.106,0,1.106S1.522.656,3.763,0" transform="translate(351.133 137.24)" fill="#010814"/>
    <path id="Fill_753" data-name="Fill 753" d="M15.1,14.167A6.6,6.6,0,0,1,9.474,17.3c-4.5,0-8.7-4.261-9.381-9.515A8.951,8.951,0,0,1,2.382.169,5.226,5.226,0,0,1,3.258,0c1.353,0,7.461,2.023,7.461,2.023L15.1,14.167" transform="translate(390.569 132.795)" fill="#010814"/>
    <path id="Fill_754" data-name="Fill 754" d="M14.353,11.767c-1.164-1.294-7.112-9.44-7.112-9.44L0,0,9.828.516l4.506,9.542.019,1.709" transform="translate(366.267 143.82)" fill="#010814"/>
    <path id="Fill_755" data-name="Fill 755" d="M14.985,0h19.3A19.457,19.457,0,0,1,53.662,19.041L47.3,52.581,54.92,90.034,3.137,88.928.014,15.633A14.933,14.933,0,0,1,14.985,0" transform="translate(347.996 49.419)" fill="#18202f"/>
    <path id="Fill_756" data-name="Fill 756" d="M0,1.087A9.687,9.687,0,0,1,.264,0C.305.321.349.673.4,1.061L0,1.087" transform="translate(351.128 140.459)" fill="#762a31"/>
    <path id="Fill_757" data-name="Fill 757" d="M.228.232A1.34,1.34,0,0,1,.007.1C0,.1,0,.07,0,.027L.4,0A.192.192,0,0,1,.4.03C.342.094.284.161.228.232" transform="translate(351.126 141.52)" fill="#501c22"/>
    <path id="Fill_758" data-name="Fill 758" d="M.214.308C.133.268.061.233,0,.2.056.131.114.064.175,0,.188.1.2.2.214.308" transform="translate(351.354 141.549)" fill="#292e33"/>
    <path id="Fill_759" data-name="Fill 759" d="M26.5,9.658h-.018L24.7,5.9l-2.449-.128c-.866-1.6-1.872-3.307-2.779-3.775a.61.61,0,0,0-.292-.07c-.743,0-1.8,1.183-3.137,3.517l-1.17-.061,1.021.328c-1.068,1.9-1.917,3.839-1.925,3.858l-.344-.15c-3.836-1.681-6.964-3.062-9.3-4.1.025-.377.039-.772.039-1.175A16.872,16.872,0,0,0,3.86,0L22.64.4l-.4.13c.02.043,1.644,3.55,4.254,9.126Z" transform="translate(351.393 138.436)" fill="#09101c"/>
    <path id="Fill_760" data-name="Fill 760" d="M4.254,9.257C1.568,3.517,0,.13,0,.13L.4,0,16.935.354a11.1,11.1,0,0,0,.094,1.386,11.885,11.885,0,0,0,1.66,4.683A78.465,78.465,0,0,1,4.254,9.257" transform="translate(373.634 138.836)" fill="#09101c"/>
    <path id="Fill_761" data-name="Fill 761" d="M4.328,5.386C2.489,4.564.909,3.849.175,3.492.11,2.971.052,2.5,0,2.094.153,1.546.366.829.618,0L3.86.07a16.906,16.906,0,0,1,.507,4.14q0,.6-.039,1.175" transform="translate(351.393 138.365)" fill="#00050d"/>
    <path id="Fill_762" data-name="Fill 762" d="M1.754,6.07A11.885,11.885,0,0,1,.094,1.386,11.1,11.1,0,0,1,0,0L11.965.255C11.185,2.574,6.774,4.575,1.754,6.07" transform="translate(390.569 139.19)" fill="#00050d"/>
    <path id="Fill_763" data-name="Fill 763" d="M10.523,4.318a1.816,1.816,0,0,1-.928-.132,13.4,13.4,0,0,1-1.631-2.7C7.775,1.129,7.58.76,7.379.388L9.828.517,11.6,4.273C11.2,4.3,10.836,4.318,10.523,4.318ZM1.021.327h0L0,0,1.17.061,1.1.194,1.021.326Z" transform="translate(366.267 143.82)" fill="#00050d"/>
    <path id="Fill_764" data-name="Fill 764" d="M50.523,16.942h0l-11.965-.256-16.536-.354-18.78-.4L0,15.862C1.624,10.523,5,.261,5.029.158L26.871.311c-.513-.29-.509-.3-.508-.31h0c.059,0,.682.309.688.312l-.181,0c.541.307,1.534.848,3.126,1.7,5.694,3.055,20.486,14.346,20.634,14.459a2.272,2.272,0,0,1-.108.469Z" transform="translate(352.011 122.504)" fill="#09101c"/>
    <path id="Fill_765" data-name="Fill 765" d="M52.137,16.264c-3.073.512-26.377,5.633-27.4,4.865s-3.2-5.5-4.995-6.273-5.5,6.273-5.5,6.273S.246,16.061.007,15.842,5.914.131,5.914.131L27.937.259S25.119-.894,30.882,1.667s21.255,14.6,21.255,14.6" transform="translate(351.126 122.505)" fill="#18202f"/>
    <path id="Fill_766" data-name="Fill 766" d="M0,8.351A8.351,8.351,0,1,1,8.351,16.7,8.352,8.352,0,0,1,0,8.351" transform="translate(275.355 56.238)" fill="#f1ae87"/>
    <path id="Fill_767" data-name="Fill 767" d="M0,15.337c2.723,1.908,5.461,3.951,8.144,5.984,2.683,2.05,5.353,4.115,7.961,6.231,1.3,1.056,2.607,2.112,3.891,3.18s2.544,2.151,3.791,3.233,2.475,2.164,3.636,3.259,2.3,2.2,3.2,3.164c.219.236.419.462.566.631.075.086.135.155.167.186s.044.036-.006-.088l-.052-.128-.081-.219-.05-.152-.066-.213c-.031-.12-.1-.379-.133-.6-.027-.149-.05-.321-.064-.482l-.02-.319a4.064,4.064,0,0,1,.009-.485,2.213,2.213,0,0,1,.022-.228l.027-.15c.011-.056.033-.122.031-.1,0,0,.016-.008.006.036a2.275,2.275,0,0,1-.044.268,19.331,19.331,0,0,1-.565,1.876c-.243.7-.515,1.436-.8,2.178-.568,1.488-1.224,3-1.889,4.511s-1.352,3.037-2.07,4.55S24.159,54.486,23.419,56,21.9,59.01,21.138,60.512c-1.554,2.99-3.147,6-4.819,8.892l10.6,5.94c3.3-6.077,6.674-12.016,10.024-18.1,1.682-3.042,3.334-6.093,4.963-9.334.408-.814.812-1.645,1.211-2.521s.795-1.79,1.194-2.921c.1-.3.2-.6.3-.962.049-.161.1-.377.152-.587.047-.186.1-.463.147-.729l.033-.2.033-.268c.02-.182.038-.363.05-.546.013-.241.016-.537.008-.8l-.008-.2-.006-.111-.014-.163c-.02-.213-.052-.44-.086-.64a8.979,8.979,0,0,0-.211-.909c-.034-.12-.078-.264-.111-.365l-.106-.3-.1-.271-.1-.244-.188-.416c-.241-.5-.446-.865-.642-1.2s-.374-.612-.548-.873c-.346-.526-.667-.973-.983-1.4-1.25-1.681-2.424-3.07-3.618-4.454-1.192-1.368-2.364-2.7-3.549-4.011s-2.371-2.6-3.561-3.87l-3.561-3.818L13.341,0,0,15.337" transform="translate(382.894 55.614)" fill="#18202f"/>
    <path id="Fill_768" data-name="Fill 768" d="M7.866,16.688a8.351,8.351,0,1,1,8.822-7.853,8.35,8.35,0,0,1-8.822,7.853" transform="translate(394.099 122.472)" fill="#f1ae87"/>
    <path id="Fill_769" data-name="Fill 769" d="M1.141,0C.983.394-.577,4.4.231,5.71H20.949s1.566-2.475.1-3.688S12.964.3,12.964.3a18.084,18.084,0,0,1-6.72,1.113C2.05,1.416,1.141,0,1.141,0" transform="translate(435.548 265.693)" fill="#000105"/>
    <path id="Fill_770" data-name="Fill 770" d="M16.565,0c.158.394,1.718,4.4.909,5.71-1.666,0-16.747.1-16.747.1s-1.566-2.477-.1-3.69A12.666,12.666,0,0,1,4.274.221a21.24,21.24,0,0,0,7.188,1.2c4.193,0,5.1-1.416,5.1-1.416" transform="translate(366.623 265.693)" fill="#000105"/>
    <path id="Fill_771" data-name="Fill 771" d="M16.817,0l-.182,15.835A12.474,12.474,0,0,1,5.695,20.793C-1.439,20.162.151,14.021.151,14.021L1.279,1.278,16.817,0" transform="translate(365.107 33.539)" fill="#f1ae87"/>
    <path id="Fill_772" data-name="Fill 772" d="M.012,7.749A16.587,16.587,0,0,1,1.855,2.917a4.248,4.248,0,0,0,2.571,1.69,21.9,21.9,0,0,0,5.311.9c1.851-.009,3.676-.5,5.53-.552A4.49,4.49,0,0,0,19.718.711c1-.39,1.795-.711,1.795-.711l-.217,2.4s-7.2,42.13-7.531,42.567S9.14,57.784,9.14,57.784,3.177,28.815,2.958,26.959-.207,8.841.012,7.749" transform="translate(360.771 48.963)" fill="#fffffe"/>
    <path id="Fill_773" data-name="Fill 773" d="M5.009.209l.626,41.84L2.807,49.027,0,41.318,1.774,0,5.009.209" transform="translate(367.104 57.72)" fill="#a02629"/>
    <path id="Fill_774" data-name="Fill 774" d="M3.048,0A5.145,5.145,0,0,0,4.106.106,5.189,5.189,0,0,0,4.945.034,3.927,3.927,0,1,1,3.048,0" transform="translate(366.984 52.375)" fill="#a02629"/>
    <path id="Fill_775" data-name="Fill 775" d="M12.308,4.587C11.795,3.87,10.736-.95,10.246.167,8.495,4.156,0,5.613,0,5.613L2.77,12.69l9.539-8.1" transform="translate(371.219 46.755)" fill="#cbccc7"/>
    <path id="Fill_776" data-name="Fill 776" d="M9.969,5.128,5.047,10.974S-.389,2.667.022,2.359,4.123,0,4.123,0,5.868,5.025,9.969,5.128" transform="translate(361.25 47.24)" fill="#cbccc7"/>
    <path id="Fill_777" data-name="Fill 777" d="M0,9.892.837.43,5.711,0V.029L.837.43,0,9.892" transform="translate(365.549 34.386)" fill="#97ada9"/>
    <path id="Fill_778" data-name="Fill 778" d="M0,.774H0V.744L8.44,0l.032.077L0,.774Z" transform="translate(371.26 33.642)" fill="#4f7c79"/>
    <path id="Fill_779" data-name="Fill 779" d="M0,13.047,1.058,1.1,5.932.7,14.4,0l2.131,4.985v.038A20.994,20.994,0,0,1,0,13.047" transform="translate(365.328 33.719)" fill="#ed9871"/>
    <path id="Fill_780" data-name="Fill 780" d="M22.089,6.465S23.657,30.1,23.311,31.1c-.289.835-11.807,4.892-18.655,4.156a4.056,4.056,0,0,1-3.6-3.89L0,2.956c-.034-.931,14.5-7.9,22.089,3.509" transform="translate(358.537 7.58)" fill="#f1ae87"/>
    <path id="Fill_781" data-name="Fill 781" d="M25.057,20.971c-.934-.8-7.939-5.828-19.365-2.481C-.237,14.326-2.488,6.13,3.622,2.077S27.74-.129,32.632,7.9c4.051,7.92-7.575,13.072-7.575,13.072" transform="translate(352.731 0.061)" fill="#130d0b"/>
    <path id="Fill_782" data-name="Fill 782" d="M7.024,23.385S.459,19.6.013,7.611,11,.972,11.9,2.626s3.629,13.822-1.576,20.506c-2.507.677-3.3.252-3.3.252" transform="translate(373.782 6.188)" fill="#130d0b"/>
    <path id="Fill_783" data-name="Fill 783" d="M.069,4.2A5.057,5.057,0,0,1,4.459,0c2.029-.075,3.356,1.68,2.964,3.92A5.057,5.057,0,0,1,3.032,8.116C1,8.191-.324,6.436.069,4.2" transform="translate(378.671 25.61)" fill="#f1ae87"/>
    <path id="Fill_784" data-name="Fill 784" d="M10.017,0C9.586,2.814,6,5.164,3.511,5.178S.463,2.864,0,.055L10.017,0" transform="translate(360.379 33.706)" fill="#fffffe"/>
    <path id="Fill_785" data-name="Fill 785" d="M16.608,3.622,11.776,0S7.711,20.117,7.356,20.829,0,60.189,0,60.189L14.885,31.421,11.149,24.3l8.008-2.313L16.608,3.622" transform="translate(370.01 46.656)" fill="#15110e"/>
    <path id="Fill_786" data-name="Fill 786" d="M6.249,2.832,11.709,0s-.135,20.122.149,20.865,4.466,39.042,4.466,39.042l-13-29.244,4.42-6.715L0,20.857,6.249,2.832" transform="translate(353.588 46.84)" fill="#15110e"/>
    <path id="Fill_787" data-name="Fill 787" d="M1.414,30.924C1.5,31.352.414,0,.414,0s-1.421,19.069,1,30.924" transform="translate(369.453 106.437)" fill="#15110e"/>
    <path id="Fill_788" data-name="Fill 788" d="M.2,7.447,4.024,0,0,5.133.2,7.447" transform="translate(348.603 75.305)" fill="#15110e"/>
    <path id="Fill_789" data-name="Fill 789" d="M2.054,23.454,0,0,5.7,4.585,2.054,23.454" transform="translate(393.249 78.606)" fill="#15110e"/>
  </g>
</svg>
