<?xml version="1.0" encoding="UTF-8"?>
<svg width="520px" height="294px" viewBox="0 0 520 294" version="1.1" xmlns="http://www.w3.org/2000/svg" xmlns:xlink="http://www.w3.org/1999/xlink">
    <!-- Generator: Sketch 63.1 (92452) - https://sketch.com -->
    <title>Illustration</title>
    <desc>Created with Sketch.</desc>
    <defs>
        <path d="M23.7829574,59.6742019 C15.5546097,58.4640029 8.15834771,58.0164009 3.1950436,57.9462009 C3.19260887,57.9438016 3.18956526,57.9414024 3.18713053,57.9390032 L3.21330444,57.9402011 C2.26191307,57.1608027 1.26365221,56.326801 0.224000007,55.4436033 L33.5628711,4.45800009 L46.0009585,4.45800009 C46.3369571,4.6236001 46.6309588,4.83060011 46.9663491,4.9962001 C47.0083494,5.03760009 47.0923498,5.07900009 47.1763503,5.12040014 C47.7637421,5.45100009 48.3511306,5.78220017 48.9805226,6.15420012 C50.7433062,7.18860021 53.1354785,8.63640036 55.9890452,10.4154005 L23.7829574,59.6742019 M37.7214785,0.67980003 C37.2600871,0.507600023 36.7993044,0.351000013 36.3415652,0.208800005 L36.3488695,0.197400004 C36.8066087,0.348000015 37.2637392,0.498600032 37.7214785,0.67980003" id="path-1"></path>
        <linearGradient x1="83.8307205%" y1="-10.0476153%" x2="20.9823792%" y2="109.349525%" id="linearGradient-3">
            <stop stop-color="#393B3C" offset="0%"></stop>
            <stop stop-color="#191B1D" offset="100%"></stop>
        </linearGradient>
        <path d="M32.959929,60.5209695 C24.6005916,53.3444996 12.3430412,48.9686447 0.454540819,46.3605989 L30.1923463,0.50175488 C38.2452462,5.82071579 48.207213,12.829735 58.5009085,21.1592247 L32.959929,60.5209695" id="path-4"></path>
        <linearGradient x1="80.6631951%" y1="-5.49023524%" x2="17.1232118%" y2="112.441206%" id="linearGradient-6">
            <stop stop-color="#393B3C" offset="0%"></stop>
            <stop stop-color="#191B1D" offset="100%"></stop>
        </linearGradient>
        <path d="M21.4041672,0.80399999 C15.003389,0.528999999 7.42805577,0.390999995 0.398444447,0.322499995 C0.392333335,0.321999995 0.385611113,0.321999995 0.379500002,0.321999995 L0.381333335,0.319499995 C7.41766673,0.387999997 15.0015554,0.525999993 21.4060007,0.801999986 L21.4041672,0.80399999" id="path-7"></path>
        <linearGradient x1="107.922804%" y1="46.6022599%" x2="-112.496006%" y2="55.9589023%" id="linearGradient-9">
            <stop stop-color="#E2E3DE" offset="0%"></stop>
            <stop stop-color="#DDDDD7" offset="100%"></stop>
        </linearGradient>
        <path d="M20.2333527,50.7269991 L0.0114431819,49.9410003 L0.0114431819,49.320598 L31.6921917,0.386400014 C31.6982167,0.386400014 31.7048414,0.386400014 31.7108632,0.387000014 C38.6388078,0.469200012 46.1045799,0.634800002 52.4127837,0.964800016 L20.2333527,50.7269991" id="path-10"></path>
        <linearGradient x1="103.136563%" y1="-61.7123289%" x2="15.9707382%" y2="120.299184%" id="linearGradient-12">
            <stop stop-color="#393B3C" offset="0%"></stop>
            <stop stop-color="#191B1D" offset="100%"></stop>
        </linearGradient>
        <path d="M14.9951996,2.46419993 C10.7675995,1.61400001 5.71379998,0.931200021 0.320399993,0.386400013 C0.314399992,0.385800013 0.308399993,0.385200013 0.302399993,0.384600013 L0.303599993,0.382800013 C5.70360001,0.928799997 10.7639993,1.61220001 14.9951996,2.46419993" id="path-13"></path>
        <linearGradient x1="151.694703%" y1="26.3249094%" x2="-158.005965%" y2="122.046892%" id="linearGradient-15">
            <stop stop-color="#E2E3DE" offset="0%"></stop>
            <stop stop-color="#DDDDD7" offset="100%"></stop>
        </linearGradient>
        <path d="M33.0291061,51.5362343 L31.4628437,51.4945145 L6.47616644,50.494421 L0.20931372,50.2440957 L31.9986842,0.38576743 C32.0034707,0.388186035 32.0094521,0.388790686 32.0154298,0.389395337 C37.3912057,0.938418623 42.428489,1.62651166 46.6422752,2.4833023 C51.3739617,3.44651177 55.0644584,4.62255816 57.0266262,6.05497688 C58.1395775,6.88879086 59.253128,7.72260485 60.4073423,8.59813944 L33.0291061,51.5362343" id="path-16"></path>
        <linearGradient x1="89.7098124%" y1="-19.548264%" x2="14.3668219%" y2="121.674268%" id="linearGradient-18">
            <stop stop-color="#393B3C" offset="0%"></stop>
            <stop stop-color="#191B1D" offset="100%"></stop>
        </linearGradient>
    </defs>
    <g id="Page-1" stroke="none" stroke-width="1" fill="none" fill-rule="evenodd">
        <g id="1-Homepage" transform="translate(-755.000000, -2443.000000)">
            <g id="Buyers" transform="translate(165.000000, 2404.000000)">
                <g id="Illustration" transform="translate(590.000000, 39.000000)">
                    <path d="M328,147.67415 C323.683136,148.541982 319.160385,149 314.501795,149 C284.399048,149 260,129.754696 260,106.005121 C260,82.2549455 284.399048,63 314.501795,63 C319.160385,63 323.683136,63.4580206 328,64.3258491 C304.42206,69.0639516 286.987356,85.9305614 286.987356,106.005121 C286.987356,126.079083 304.42206,142.93605 328,147.67415" id="Fill-3" fill="#E81F54"></path>
                    <path d="M262.825261,99 L260.174739,99 C249.03229,99 240,108.276526 240,119.718903 L240,125 L283,125 L283,119.718903 C283,108.276526 273.967112,99 262.825261,99" id="Fill-4" fill="#BA1641"></path>
                    <path d="M396,106.005121 C396,129.754363 371.591293,149 341.488547,149 C336.829953,149 332.316866,148.541382 328,147.673566 C351.568277,142.935533 369.002982,126.078801 369.002982,106.005121 C369.002982,85.9308433 351.568277,69.0644694 328,64.3264333 C332.316866,63.4586168 336.829953,63 341.488547,63 C371.591293,63 396,82.2552787 396,106.005121" id="Fill-5" fill="#A10F36"></path>
                    <path d="M189,149.67416 C184.683095,150.541382 180.160912,151 175.501673,151 C145.398661,151 121,131.75423 121,108.004824 C121,84.2554133 145.398661,65 175.501673,65 C180.160912,65 184.683095,65.4580174 189,66.3258398 C165.421854,71.0639093 147.986993,87.9310022 147.986993,108.004824 C147.986993,128.078637 165.421854,144.936091 189,149.67416" id="Fill-6" fill="#E81F54"></path>
                    <path d="M257,108.004824 C257,131.75423 232.591508,151 202.48903,151 C197.829875,151 193.317432,150.541382 189,149.67416 C212.568672,144.936091 230.003225,128.078637 230.003225,108.004824 C230.003225,87.9310022 212.568672,71.0639093 189,66.3258398 C193.317432,65.4580174 197.829875,65 202.48903,65 C232.591508,65 257,84.2554133 257,108.004824" id="Fill-7" fill="#A10F36"></path>
                    <path d="M504,262.438065 L504,262.479355 C504,279.890093 489.890093,294 472.479355,294 C455.109908,294 441,279.890093 441,262.479355 L441,262.438065 C441.04129,245.068618 455.109908,231 472.479355,231 C489.890093,231 503.958709,245.068618 504,262.438065" id="Fill-8" fill="#141718"></path>
                    <path d="M287,262.479355 L287,262.644515 C286.917418,279.972671 272.848205,294 255.479355,294 C238.151198,294 224.081982,279.972671 224,262.644515 L224,262.479355 C224,245.110506 238.109908,231 255.479355,231 C272.889492,231 287,245.110506 287,262.479355" id="Fill-9" fill="#141718"></path>
                    <path d="M398,262.438065 L398,262.479355 C398,279.890093 383.890093,294 366.479355,294 C349.109908,294 335,279.890093 335,262.479355 L335,262.438065 C335.04129,245.069216 349.109908,231 366.479355,231 C383.890093,231 397.958709,245.069216 398,262.438065" id="Fill-10" fill="#141718"></path>
                    <path d="M178,262.479355 L178,262.644515 C177.917418,279.972671 163.848802,294 146.479355,294 C129.151198,294 115.082581,279.972671 115,262.644515 L115,262.479355 C115,245.110506 129.109908,231 146.479355,231 C163.890093,231 178,245.110506 178,262.479355" id="Fill-11" fill="#141718"></path>
                    <path d="M520,266.731023 L520,273.269585 C520,275.323259 518.545359,277 516.763713,277 L514,277 L514,263 L516.763713,263 C517.890823,263 518.908755,263.671183 519.491034,264.71869 C519.818038,265.305367 520,265.97655 520,266.731023" id="Fill-12" fill="#8ABDDC"></path>
                    <path d="M444.657689,169 L449.875732,169 C452.153727,169 454,170.900388 454,173.244531 L454,181 L433,181 C433,174.372226 438.219249,169 444.657689,169" id="Fill-13" fill="#DCDBD6"></path>
                    <path d="M511.159894,294 L474.292267,294 C482.499767,293.491431 489.865118,289.753229 495.211955,284 L511.159894,284 C513.833615,284 516,286.238574 516,289 C516,291.761426 513.833615,294 511.159894,294 M470.44458,294 L107.840104,294 C105.167588,294 103,291.761426 103,289 C103,286.238574 105.167588,284 107.840104,284 L124.327836,284 C130.075008,290.118976 138.117203,293.921759 147.01357,293.921759 C155.931575,293.921759 163.983391,290.118976 169.735975,284 L228.002962,284 C233.74954,290.107799 241.786928,293.921759 250.660446,293.921759 C251.360733,293.921759 252.056212,293.898162 252.745088,293.85159 C253.434555,293.898162 254.129431,293.921759 254.830922,293.921759 C263.74832,293.921759 271.800743,290.118976 277.55272,284 L342.904953,284 C348.653327,290.119598 356.694318,293.921759 365.585281,293.921759 C374.497268,293.921759 382.548487,290.119598 388.302271,284 L446.575861,284 C452.324235,290.107799 460.370044,293.921759 469.273622,293.921759 C469.33074,293.921759 469.387224,293.921759 469.44373,293.921138 C469.775558,293.952807 470.109773,293.978887 470.44458,294" id="Fill-14" fill="#A2807B"></path>
                    <path d="M474.892134,294 L471.009844,294 C470.672016,293.978887 470.334795,293.952807 470,293.921138 C478.915135,293.873323 486.94476,290.068678 492.696324,284 L496,284 C490.605067,289.753229 483.173463,293.491431 474.892134,294" id="Fill-15" fill="#141718"></path>
                    <path d="M255.102011,294 C254.395081,294 253.694815,293.978595 253,293.93635 C261.133632,293.442921 268.435547,290.104957 273.772959,285 L278,285 C272.203417,290.550507 264.088563,294 255.102011,294" id="Fill-16" fill="#141718"></path>
                    <path d="M365.981423,294 C356.972432,294 348.824689,290.55107 343,285 L389,285 C383.169829,290.55107 375.011733,294 365.981423,294" id="Fill-17" fill="#141718"></path>
                    <path d="M146.981427,294 C137.969103,294 129.822084,290.550507 124,285 L170,285 C164.172437,290.550507 156.015673,294 146.981427,294" id="Fill-18" fill="#141718"></path>
                    <path d="M514,240.125206 L514,276.925949 L498.138416,276.925949 C492.865057,287.038133 482.276813,294 470.027554,294 C457.778294,294 447.1491,287.038133 441.875146,276.925949 L435.065444,276.925949 L310.24931,276.967422 L310.24931,276.925949 L279.148864,276.925949 C273.875519,287.038133 263.245716,294 250.996452,294 C238.788745,294 228.158944,287.038133 222.885601,276.925949 L202,276.925949 L202,232.002635 C202,224.54306 203.453843,218.492464 210.927226,218.492464 C210.927226,218.492464 210.802559,213.601967 211.051892,206.556549 L211.051892,206.432724 C211.051892,206.3077 211.051892,206.142392 211.093448,206.018567 C211.135004,204.318676 211.218115,202.537039 211.342782,200.630372 L211.342782,200.216215 C211.467448,198.433973 211.592115,196.569384 211.757735,194.70419 C211.757735,194.372989 211.79929,194.041184 211.79929,193.709983 C211.840846,193.54408 211.840846,193.419656 211.882402,193.253753 C212.131736,190.311401 212.463578,187.286098 212.920689,184.260795 C213.543421,179.660631 214.415487,175.143412 215.536282,171.123297 C215.827172,170.170569 216.159617,169.092806 216.616126,167.891223 C220.43623,157.116022 230.608918,136.975188 239.868589,126.531191 C240.408208,125.868186 240.989988,125.28813 241.529609,124.708075 C239.079633,123.589441 236.214708,122.056051 236.297819,121.144193 C236.380929,120.107908 214.996662,116.792277 218.23559,116.585501 C230.816696,115.798069 258.428882,115.839544 286.207896,116.50255 C316.270049,117.248507 346.498437,118.698945 358.000298,120.605613 C358.3737,120.646488 358.747697,120.729438 359.121099,120.770914 C359.411988,120.853865 359.702281,120.89534 359.951607,120.936815 C360.449662,121.019767 360.948331,121.102717 361.446405,121.185668 C362.484694,121.392444 363.522368,121.599821 364.436003,121.807198 C364.975622,121.931625 365.557399,122.097527 366.138563,122.262828 C366.636637,122.428729 367.135306,122.594631 367.633362,122.802008 C367.965814,122.884959 368.256108,123.008784 368.587946,123.133211 C369.501563,123.506489 370.415179,123.879168 371.328814,124.293922 C371.619702,124.418348 371.868433,124.542173 372.117758,124.6666 C373.072937,125.122229 374.027503,125.619934 375.024247,126.158513 L375.1489,126.241464 C375.35668,126.324415 375.522916,126.448841 375.688538,126.531191 C376.020971,126.697093 376.31186,126.90447 376.643699,127.070372 C376.685262,127.111847 376.768371,127.153322 376.851479,127.194798 C377.432662,127.526 378.013844,127.857804 378.636571,128.230482 C380.380695,129.266767 382.747565,130.717205 385.570927,132.499447 C387.896234,133.949885 390.595537,135.648575 393.501431,137.596719 C401.557183,142.942842 411.5227,149.987656 421.820055,158.359683 C425.764832,161.508811 429.792104,164.907393 433.736881,168.429799 C441.169906,175.060461 444.864744,178.541994 446.650431,180.323637 C448.477664,180.406583 450.387409,180.572486 452.463985,180.779867 L452.505549,180.779867 C453.21079,180.862813 453.834131,180.904291 454.539967,181.028116 C454.623075,181.028116 454.747133,181.069589 454.83026,181.069589 C454.954914,181.069589 455.079586,181.069589 455.204257,181.111067 C455.868548,181.194019 456.574384,181.27697 457.28022,181.359921 C457.529564,181.401394 457.737344,181.442867 457.944511,181.483746 C458.567238,181.567297 459.189984,181.650249 459.85487,181.774073 C460.145145,181.815547 460.436034,181.857025 460.726328,181.898498 C461.266561,182.022928 461.847724,182.105874 462.429502,182.230303 C462.802904,182.271177 463.176306,182.354728 463.550303,182.437679 C464.048359,182.520031 464.547028,182.602982 465.086052,182.727407 C465.501613,182.810358 465.958718,182.934783 466.415229,183.017734 C466.872334,183.100086 467.2873,183.22511 467.743811,183.307462 C468.241866,183.431886 468.782099,183.556316 469.280154,183.68074 C469.654151,183.805165 470.027554,183.887516 470.443114,183.971067 C470.982733,184.136371 471.564511,184.302273 472.14508,184.468171 C472.477532,184.551122 472.768421,184.633474 473.100259,184.716425 C473.722987,184.882328 474.304764,185.089704 474.92751,185.29708 C475.217785,185.380031 475.508674,185.462383 475.799563,185.545334 C476.42229,185.75271 477.045036,186.001564 477.667764,186.20834 C477.958652,186.291287 478.207383,186.374238 478.456708,186.457189 C479.120999,186.706043 479.74434,186.954897 480.408017,187.244625 C480.615798,187.327571 480.823578,187.410523 481.072308,187.493474 C481.737194,187.741729 482.359921,188.032056 483.024212,188.322383 C483.231993,188.446208 483.439178,188.529759 483.64694,188.612111 C484.270281,188.902438 484.934572,189.233638 485.557299,189.523971 C485.764484,189.648395 485.930701,189.731347 486.138482,189.814298 C486.761209,190.145499 487.4255,190.518777 488.048227,190.849983 C488.214444,190.932929 488.38068,191.015881 488.546896,191.14031 C489.169624,191.513589 489.833915,191.886268 490.456642,192.301019 C490.581314,192.383371 490.705986,192.466323 490.872203,192.549269 C491.49493,192.963426 492.076113,193.378178 492.657277,193.833808 C492.823512,193.916759 492.948165,193.999711 493.072837,194.082662 C493.65402,194.538892 494.235202,194.994517 494.774821,195.450148 C494.900088,195.574572 495.06571,195.657523 495.190363,195.740475 C495.729982,196.237578 496.228652,196.693808 496.726726,197.190912 C496.851398,197.315341 497.017001,197.439766 497.141673,197.522118 C497.640342,198.01982 498.096852,198.516924 498.553958,199.055506 C498.678035,199.17993 498.802688,199.30436 498.92736,199.428784 C499.383871,199.967366 499.799431,200.465069 500.214378,201.003651 C500.33905,201.168949 500.463722,201.335451 500.588376,201.500754 C501.003341,201.997858 501.335775,202.578512 501.709177,203.117094 C501.833849,203.282996 501.958502,203.448294 502.083174,203.656275 C502.415627,204.194851 502.705902,204.816384 503.037759,205.396439 C503.120867,205.562342 503.245539,205.769113 503.328648,205.976499 C503.619536,206.51567 503.868267,207.136609 504.117592,207.717263 C504.2007,207.924034 504.325372,208.172894 504.408481,208.421743 C504.657211,209.001792 504.823446,209.62393 505.031208,210.203385 C505.114335,210.493707 505.197443,210.742567 505.280552,210.990811 C505.446174,211.612949 505.570846,212.234482 505.737062,212.897488 C505.778607,213.146337 505.861734,213.436064 505.902684,213.726386 C506.027951,214.389392 506.110465,215.052399 506.193573,215.756888 L506.318226,216.62727 C506.401353,217.622071 506.442898,218.616289 506.442898,219.652574 L506.899409,219.652574 C514.041545,219.652574 514,228.811429 514,240.125206" id="Fill-19" fill="#141718"></path>
                    <g id="Group-22" transform="translate(330.000000, 122.000000)">
                        <mask id="mask-2" fill="white">
                            <use xlink:href="#path-1"></use>
                        </mask>
                        <g id="Clip-21"></g>
                        <path d="M23.7829574,59.6742019 C15.5546097,58.4640029 8.15834771,58.0164009 3.1950436,57.9462009 C3.19260887,57.9438016 3.18956526,57.9414024 3.18713053,57.9390032 L3.21330444,57.9402011 C2.26191307,57.1608027 1.26365221,56.326801 0.224000007,55.4436033 L33.5628711,4.45800009 L46.0009585,4.45800009 C46.3369571,4.6236001 46.6309588,4.83060011 46.9663491,4.9962001 C47.0083494,5.03760009 47.0923498,5.07900009 47.1763503,5.12040014 C47.7637421,5.45100009 48.3511306,5.78220017 48.9805226,6.15420012 C50.7433062,7.18860021 53.1354785,8.63640036 55.9890452,10.4154005 L23.7829574,59.6742019 M37.7214785,0.67980003 C37.2600871,0.507600023 36.7993044,0.351000013 36.3415652,0.208800005 L36.3488695,0.197400004 C36.8066087,0.348000015 37.2637392,0.498600032 37.7214785,0.67980003" id="Fill-20" fill="url(#linearGradient-3)" mask="url(#mask-2)"></path>
                    </g>
                    <g id="Group-25" transform="translate(363.000000, 137.000000)">
                        <mask id="mask-5" fill="white">
                            <use xlink:href="#path-4"></use>
                        </mask>
                        <g id="Clip-24"></g>
                        <path d="M32.959929,60.5209695 C24.6005916,53.3444996 12.3430412,48.9686447 0.454540819,46.3605989 L30.1923463,0.50175488 C38.2452462,5.82071579 48.207213,12.829735 58.5009085,21.1592247 L32.959929,60.5209695" id="Fill-23" fill="url(#linearGradient-6)" mask="url(#mask-5)"></path>
                    </g>
                    <path d="M240.543064,127 C241.081839,126.313548 241.661455,125.712979 242.200236,125.112411 C239.756217,123.954216 236.898962,122.3666 236.981848,121.422494 C237.064741,120.349561 161.871483,116.924766 165.101138,116.702587 C227.095273,112.433261 336.327556,117.088444 358.358529,120.864867 C358.731526,120.907187 359.103918,120.993072 359.476914,121.036014 C359.766427,121.121898 360.056544,121.164841 360.305208,121.207783 C360.801932,121.293667 361.29867,121.379551 361.795998,121.465436 C362.830912,121.679524 363.866417,121.894236 364.777591,122.108946 C365.812505,122.3666 366.88945,122.709515 367.966408,123.138937 C368.29736,123.224821 368.587464,123.353025 368.918417,123.481852 C369.829603,123.868331 370.740776,124.254189 371.651949,124.683611 C371.941462,124.812438 372.190126,124.940642 372.43879,125.069468 C373.390812,125.54121 374.343425,126.056516 375.337491,126.614142 L375.461219,126.700027 C375.668444,126.785911 375.834228,126.914738 376,127 L240.543064,127" id="Fill-26" fill="#DCDBD6"></path>
                    <path d="M513.957061,240.126691 L513.957061,277 L414.185702,277 L402.425557,219.613678 L329,180 L446.556233,180.207184 C448.384861,180.290298 450.29607,180.456527 452.373618,180.664313 L452.415807,180.664313 C453.204757,180.747428 453.952731,180.82994 454.742287,180.954612 C454.867045,180.954612 454.991803,180.954612 455.116571,180.996169 C455.781359,181.079283 456.487739,181.162398 457.19412,181.245512 C457.443647,181.28707 457.65158,181.328627 457.858918,181.370184 C458.482719,181.453299 459.105924,181.536413 459.770722,181.660482 C460.061831,181.70204 460.352334,181.743597 460.642847,181.785154 C461.183483,181.909826 461.765095,181.99294 462.346718,182.117612 C462.721002,182.159169 463.094681,182.242284 463.468965,182.325398 C463.967412,182.40791 464.466455,182.491025 465.006495,182.615697 C465.421756,182.698811 465.879216,182.823483 466.336081,182.906597 C466.793541,182.989712 467.208802,183.114383 467.665667,183.196895 C468.164709,183.321567 468.704739,183.446239 469.203186,183.570911 C469.57747,183.695582 469.951149,183.778697 470.367027,183.861811 C470.907056,184.027438 471.488679,184.193667 472.07029,184.359896 C472.402993,184.442408 472.694102,184.525522 473.026198,184.609239 C473.649403,184.774866 474.231621,184.982652 474.854826,185.190438 C475.14534,185.27295 475.436449,185.356065 475.727558,185.439179 C476.350763,185.646965 476.973968,185.896309 477.597173,186.103493 C477.888282,186.186607 478.137202,186.269722 478.386729,186.352836 C479.051516,186.602179 479.674721,186.850921 480.33952,187.141821 C480.547453,187.224936 480.755387,187.30805 481.004913,187.391164 C481.669712,187.639906 482.292917,187.930806 482.957704,188.221707 C483.165637,188.345776 483.373582,188.428891 483.580909,188.512005 C484.20472,188.802906 484.869508,189.134761 485.492724,189.425662 C485.700051,189.550333 485.866402,189.633448 486.074336,189.716562 C486.697541,190.048418 487.362339,190.422433 487.985544,190.754289 C488.151895,190.837403 488.318235,190.920518 488.484586,191.045189 C489.107791,191.419204 489.77259,191.792617 490.395795,192.208189 C490.520553,192.290702 490.645311,192.373816 490.811662,192.45693 C491.434867,192.871901 492.016489,193.287473 492.598112,193.744001 C492.764452,193.827115 492.889221,193.910229 493.013979,193.993343 C493.595602,194.449871 494.177214,194.907 494.717243,195.363528 C494.842607,195.488199 495.008363,195.571315 495.133121,195.654429 C495.67315,196.152514 496.171597,196.609643 496.67064,197.107728 C496.795398,197.232399 496.961154,197.35707 497.085912,197.439583 C497.584954,197.938269 498.041819,198.436354 498.499268,198.975996 C498.623431,199.100667 498.7482,199.22534 498.872957,199.350011 C499.164067,199.682469 499.412987,199.972767 499.662514,200.305225 C499.828854,200.513011 499.995205,200.720195 500.16095,200.927981 C500.285719,201.09421 500.410477,201.260439 500.535234,201.426066 C500.950506,201.92415 501.283208,202.505952 501.656887,203.045593 C501.781655,203.211822 501.906413,203.377449 502.031171,203.585234 C502.363874,204.125479 502.654376,204.748234 502.986472,205.329434 C503.069648,205.495662 503.194406,205.703449 503.277581,205.910632 C503.56869,206.450878 503.817622,207.073634 504.067137,207.654831 C504.150313,207.862618 504.275071,208.111359 504.358247,208.360702 C504.607167,208.941902 504.773518,209.565259 504.981452,210.145858 C505.064627,210.436756 505.147803,210.686102 505.230978,210.934843 C505.396723,211.5582 505.521492,212.180956 505.687832,212.845271 C505.729425,213.094613 505.812601,213.384912 505.854183,213.675813 C505.978941,214.340125 506.061521,215.00444 506.144697,215.71031 L506.269455,216.582411 C506.35263,217.579182 506.394213,218.533793 506.394213,219.572123 L506.394213,219.613678 L506.851078,219.613678 C514.996144,219.613678 513.957061,228.790597 513.957061,240.126691" id="Fill-27" fill="#FFCF6E"></path>
                    <path d="M520,267.363003 L520,268 L418,268 L418,263 L516.318812,263 C517.60087,263 518.758737,263.784871 519.421063,265.009811 C519.793024,265.695862 520,266.480734 520,267.363003" id="Fill-28" fill="#F3F4F1"></path>
                    <polyline id="Fill-29" fill="#FFCF6E" points="512.256687 225 411 225 411 263 513 263 513 230.937481 512.256687 225"></polyline>
                    <path d="M520,266.966239 L520,273.355032 C520,275.361665 518.342427,277 516.312224,277 L415,277 L415,265 L519.420026,265 C519.79265,265.573239 520,266.229048 520,266.966239" id="Fill-30" fill="#DCDBD6"></path>
                    <path d="M421.764163,263 L419,263 L419,277 L421.764163,277 C423.551252,277 425,275.329311 425,273.268449 L425,266.731551 C425,264.670689 423.551252,263 421.764163,263" id="Fill-31" fill="#B8B8B3"></path>
                    <path d="M317.611566,168.297066 C289.294786,142.894397 259,126 259,126 L303.357883,180.581109 L331.382469,181.70271 C331.382469,181.70271 336.439319,185.187249 317.611566,168.297066" id="Fill-32" fill="#141718"></path>
                    <path d="M418,240.207235 L418,277 L94,277 L94,232.086422 C94,224.628469 95.4511942,218.57918 102.873153,218.57918 C102.873153,218.57918 106.605483,203.455936 111.912295,185.100724 C119.293357,159.329025 129.783695,127.218365 137.454635,121.458735 L137.620022,121.376402 C137.993495,121.086137 138.324872,120.920272 138.698345,120.795872 C152.795915,115.533839 224.114326,115.782638 253.221799,121.29347 C254.258626,121.500201 255.253353,121.707533 256.207178,121.914865 C274.492945,126.099972 306.046956,156.553175 326.074386,174.245531 C328.603319,176.440846 330.925344,178.4715 332.998399,180.211889 C347.427946,180.418622 382.672172,183.8994 398.429026,200.472157 C403.279964,205.568926 406.306854,211.866419 406.306854,219.697573 L406.306854,219.739038 L406.76331,219.739038 C418.041482,219.739038 418,228.895914 418,240.207235" id="Fill-33" fill="#FCB017"></path>
                    <path d="M499,219 L408.764483,219 C402.819899,219 398,214.221738 398,208.327186 L398,200 L499,200 L499,219" id="Fill-34" fill="#DE9D19"></path>
                    <path d="M432,210.482369 L432,219 L406.004709,219 C406.004709,211.260425 402.929077,205.036574 398,200 L421.214207,200 C427.155254,200 432,204.66774 432,210.482369" id="Fill-35" fill="#FFFFFE"></path>
                    <path d="M406,219 L403.674444,219 C395.575411,219 389,212.28437 389,204.012629 L389,200 L398.382479,200 C403.073137,205.036574 406,211.260425 406,219" id="Fill-36" fill="#DCDBD6"></path>
                    <path d="M505,219 L487,219 L487,210.482369 C487,204.708721 491.600976,200 497.332293,200 L498.462049,200 C498.62361,200.204908 498.78517,200.409222 498.946146,200.614129 C499.067317,200.778056 499.188488,200.941982 499.309658,201.105314 C499.712976,201.596499 500.036098,202.170241 500.399024,202.702407 C500.520195,202.866333 500.641366,203.029665 500.762537,203.234573 C501.085658,203.767333 501.367805,204.381463 501.690342,204.954611 C501.771122,205.118537 501.892293,205.323445 501.973073,205.527759 C502.255805,206.060519 502.497561,206.674648 502.739902,207.247796 C502.820683,207.452704 502.941854,207.697999 503.022634,207.943889 C503.26439,208.517036 503.425951,209.13176 503.627902,209.704313 C503.708683,209.991185 503.789463,210.237074 503.870244,210.482369 C504.031219,211.097093 504.15239,211.711222 504.313951,212.366333 C504.354342,212.612223 504.435121,212.8985 504.475512,213.18537 C504.596683,213.840481 504.676879,214.495593 504.757658,215.191684 L504.87883,216.051704 C504.95961,217.034667 505,217.976055 505,219" id="Fill-37" fill="#FFFFFE"></path>
                    <path d="M306.210179,156.223819 C288.759429,140.750193 269.154615,123.936062 256.187568,120.961778 C255.254872,120.743178 255.083484,119.916352 254.035912,119.720636 C253.788154,119.674266 253.274006,119.780254 252.758033,119.885639 C252.242075,119.991627 251.724906,120.097615 251.471137,120.051848 C229.914916,116.167633 188.168171,115.078849 161.271309,116.77345 C150.694057,117.441897 142.453674,118.651724 138.689786,120.472788 C138.344606,120.64562 137.9874,120.841337 137.619371,121.060539 C137.562243,121.106307 137.504513,121.141234 137.446783,121.17556 C127.203884,127.733559 113.254824,154.680371 108.57026,167.784925 C108.143898,168.983312 107.787894,170.066678 107.523298,171.000695 C106.383127,175.057138 105.520181,179.586917 104.875527,184.196786 C102.504981,200.839286 102.896464,218.496509 102.896464,218.496509 C95.4384441,218.496509 94,224.547447 94,232.015978 L94,277 L327.970865,277 L327.970865,262.36223 L195.568457,262.36223 L171.859989,190.98543 L166.185597,173.639551 L333,180.024717 C326.013446,174.211043 316.485551,165.33516 306.210179,156.223819" id="Fill-38" fill="#DBE3DD"></path>
                    <path d="M103.012896,218 C103.012896,218 102.977678,215.915187 103.02364,212.49662 C102.991407,215.502046 103.023043,217.48417 103.0314,217.925969 C103.019462,217.974925 103.012896,218 103.012896,218 M103.639648,197.093364 C103.723216,195.876029 103.816333,194.637201 103.919001,193.385239 C104.20671,190.298021 104.535606,187.128413 104.988062,184 L105,184.000597 C104.999403,184.005373 104.998209,184.010149 104.997612,184.014329 C104.369666,188.420376 103.936908,192.896873 103.639648,197.093364" id="Fill-39" fill="#D2A39B"></path>
                    <path d="M331.787612,277 L328.184651,277 L328.184651,262.382782 L195.729428,262.382782 L172.013306,191 L172.018118,191 L302.629454,204.205427 C316.772977,205.659378 328.925817,214.795064 334.234907,227.95833 L340,242.243079 L331.787612,277 M103,218.490778 L103,218.490778 C103,218.490778 103.006618,218.465481 103.018649,218.416092 C103.019251,218.449219 103.019853,218.473913 103.019853,218.489573 C103.007219,218.490175 103,218.490778 103,218.490778" id="Fill-40" fill="#DE9D19"></path>
                    <path d="M328,277 L182.811858,277 C182.811858,277 181.785793,269.344028 181.578411,265.268569 C181.122784,254.607049 179.174642,242.957417 176.647042,240.488019 C174.160319,237.977422 155.732591,224.330058 145.486952,221.221818 C138.606834,219.135128 126.734034,218.655697 117.287247,218.655697 C109.53314,218.655697 103.414007,218.978702 103.023296,218.999597 C103.023296,218.984076 103.022695,218.959594 103.022094,218.926758 C103.013679,218.484939 102.981821,216.502734 103.01428,213.497186 C103.038324,211.719172 103.084608,209.58054 103.169362,207.186371 L103.169362,207.022182 C103.259526,204.312173 103.414608,201.278563 103.634608,198.093302 C103.933953,193.896639 104.369746,189.41996 105.002096,185.013732 C105.002697,185.009553 105.0039,185.004776 105.004501,185 L144.07318,187.304612 L171.959111,191.749648 L195.655422,262.5102 L328,262.5102 L328,277" id="Fill-41" fill="#BABAB5"></path>
                    <path d="M403,256.475061 C403,256.392109 402.986128,256.312185 402.985525,256.229232 L402.985525,255.520806 L402.944512,255.520806 C402.35465,236.071218 383.775168,219 361.262669,219 C338.748959,219 320.642939,236.073035 320.055488,255.523834 L320,255.523834 L320,277 L324.855815,277 L324.855815,269.631174 L330.246608,269.631174 L330.246608,256.475061 C330.246608,241.493393 344.267014,229.30546 361.499698,229.30546 C378.732986,229.30546 392.752791,241.493393 392.752791,256.475061 L392.752791,269.631174 L396.969282,269.631174 L396.969282,277 L402.985525,277 L402.985525,269.631174 L403,269.631174 L403,256.475061" id="Fill-42" fill="#FFCF6E"></path>
                    <path d="M360.500301,223 C338.720195,223 321,240.751091 321,262.569913 L321,277 L330.752952,277 L330.752952,262.569913 C330.752952,246.138284 344.097225,232.769685 360.500301,232.769685 C376.902773,232.769685 390.247047,246.138284 390.247047,262.569913 L390.247047,277 L400,277 L400,262.569913 C400,240.751091 382.280406,223 360.500301,223" id="Fill-43" fill="#BC830E"></path>
                    <polygon id="Fill-44" fill="#B8B8B3" points="397 277 418 277 418 263 397 263"></polygon>
                    <path d="M185,255.96821 C185,255.882962 184.986717,255.801368 184.98551,255.71612 L184.98551,254.990298 L184.943849,254.990298 C184.34731,235.060639 165.784024,219 143.0003,219 C120.215371,219 101.650877,235.062466 101.056152,254.993344 L101,254.993344 L101,277 L105.914788,277 L105.914788,269.449501 L111.370564,269.449501 L111.370564,255.96821 C111.370564,240.616953 125.559447,228.127578 143.0003,228.127578 C160.441159,228.127578 174.630041,240.616953 174.630041,255.96821 L174.630041,269.449501 L178.896968,269.449501 L178.896968,277 L184.98551,277 L184.98551,269.449501 L185,269.449501 L185,255.96821" id="Fill-45" fill="#F3F4F1"></path>
                    <path d="M143.500301,223 C121.719981,223 104,240.750891 104,262.570074 L104,277 L113.753265,277 L113.753265,262.570074 C113.753265,246.138628 127.097743,232.77018 143.500301,232.77018 C159.902862,232.77018 173.247338,246.138628 173.247338,262.570074 L173.247338,277 L183,277 L183,262.570074 C183,240.750891 165.280623,223 143.500301,223" id="Fill-46" fill="#DCDBD6"></path>
                    <polyline id="Fill-47" fill="#FCB017" points="188 238 195.772304 262 313 262 299.782938 247.351803 188 238"></polyline>
                    <path d="M361.0003,227 C341.669967,227 326,242.605161 326,261.855548 L326,277 L396,277 L396,261.855548 C396,242.605161 380.330032,227 361.0003,227" id="Fill-48" fill="#141718"></path>
                    <path d="M393,262.438065 L393,262.479355 C393,279.890093 378.889627,294 361.479056,294 C344.109774,294 330,279.890093 330,262.479355 L330,262.438065 C330.04129,245.069216 344.109774,231 361.479056,231 C378.889627,231 392.958709,245.069216 393,262.438065" id="Fill-49" fill="#4B5257"></path>
                    <path d="M393,262 L393,262.041863 C393,279.694254 378.889627,294 361.479056,294 C344.109774,294 330,279.694254 330,262.041863 L330,262 L393,262" id="Fill-50" fill="#141718"></path>
                    <path d="M362.000301,234 C345.983496,234 333,246.983963 333,263 C333,279.016039 345.983496,292 362.000301,292 C378.016502,292 391,279.016039 391,263 C391,246.983963 378.016502,234 362.000301,234" id="Fill-51" fill="#141718"></path>
                    <path d="M362,239 C348.744826,239 338,249.520841 338,262.4997 C338,275.478559 348.744826,286 362,286 C375.255174,286 386,275.478559 386,262.4997 C386,249.520841 375.255174,239 362,239" id="Fill-52" fill="#596067"></path>
                    <path d="M378.205633,250.279418 C376.980779,248.581932 375.488302,247.085306 373.799731,245.850934 C372.123677,244.621329 370.250334,243.6504 368.233349,242.989406 C366.290271,242.355232 364.216659,242.004768 362.059009,242 L362.001788,242 C359.866786,242 357.809864,242.333179 355.880495,242.95424 C353.85874,243.602122 351.977053,244.564706 350.29623,245.781198 C348.598719,247.006631 347.102071,248.490143 345.86768,250.179285 C344.633885,251.855314 343.658173,253.732205 342.997169,255.749758 C342.354046,257.700556 342.003576,259.783672 342,261.949635 L342,261.997914 C342,264.155533 342.340933,266.22971 342.970943,268.172163 C343.627775,270.193889 344.594546,272.075545 345.819997,273.756344 C347.04962,275.449061 348.537327,276.937344 350.231262,278.171119 C351.911489,279.396553 353.788408,280.363905 355.805394,281.020131 C357.748472,281.654305 359.823275,281.995232 361.98033,282 L362.001788,282 C364.1505,282 366.220533,281.663243 368.158843,281.033244 C370.180599,280.38119 372.057518,279.414434 373.738341,278.193173 C375.43168,276.968336 376.924154,275.475883 378.157353,273.786742 C379.387574,272.110712 380.359113,270.233225 381.015348,268.2115 C381.654298,266.264278 381.995828,264.185931 382,262.024736 L382,261.997914 C382,259.858175 381.663239,257.79294 381.041574,255.858831 C380.389509,253.837106 379.42691,251.959619 378.205633,250.279418" id="Fill-53" fill="#383B41"></path>
                    <path d="M361,247 C352.163395,247 345,254.163992 345,263 C345,271.836605 352.163395,279 361,279 C369.836008,279 377,271.836605 377,263 C377,254.163992 369.836008,247 361,247" id="Fill-54" fill="#292D2F"></path>
                    <polygon id="Fill-55" fill="#596067" points="360 284 363 284 363 241 360 241"></polygon>
                    <polygon id="Fill-56" fill="#596067" points="340 264 383 264 383 261 340 261"></polygon>
                    <polyline id="Fill-57" fill="#596067" points="345 248.156208 375.843792 279 378 276.843792 347.156819 246 345 248.156208"></polyline>
                    <polyline id="Fill-58" fill="#596067" points="345 276.843792 347.156819 279 378 248.156208 375.843792 246 345 276.843792"></polyline>
                    <path d="M361,255 C356.581836,255 353,258.582307 353,263.000303 C353,267.418906 356.581836,271 361,271 C365.418771,271 369,267.418906 369,263.000303 C369,258.582307 365.418771,255 361,255" id="Fill-59" fill="#596067"></path>
                    <path d="M177,262.128689 C177,242.727657 161.554127,227 142.5,227 C123.446479,227 108,242.727657 108,262.128689 L108,277 L177,277 L177,262.128689" id="Fill-60" fill="#141718"></path>
                    <path d="M175,262.479355 L175,262.644515 C174.918019,279.972671 160.848802,294 143.479953,294 C126.151797,294 112.082581,279.972671 112,262.644515 L112,262.479355 C112,245.109908 126.110506,231 143.479953,231 C160.890093,231 175,245.109908 175,262.479355" id="Fill-61" fill="#4B5257"></path>
                    <path d="M175,263 C174.918019,280.131704 160.848802,294 143.479953,294 C126.151797,294 112.082581,280.131704 112,263 L175,263" id="Fill-62" fill="#141718"></path>
                    <path d="M142.999699,234 C126.983496,234 114,246.983963 114,263 C114,279.016039 126.983496,292 142.999699,292 C159.016502,292 172,279.016039 172,263 C172,246.983963 159.016502,234 142.999699,234" id="Fill-63" fill="#141718"></path>
                    <path d="M143.000612,239 C129.744826,239 119,249.520841 119,262.4997 C119,275.478559 129.744826,286 143.000612,286 C156.255174,286 167,275.478559 167,262.4997 C167,249.520841 156.255174,239 143.000612,239" id="Fill-64" fill="#596067"></path>
                    <path d="M159.205745,250.279418 C157.98033,248.581932 156.487902,247.085306 154.799381,245.850934 C153.123377,244.621329 151.250685,243.6504 149.233759,242.989406 C147.290738,242.355232 145.216594,242.004768 143.059006,242 L143.001788,242 C140.86685,242 138.809989,242.333179 136.880677,242.95424 C134.858386,243.602122 132.977351,244.564706 131.297175,245.781198 C129.599118,247.006631 128.103111,248.490143 126.868757,250.179285 C125.634402,251.855314 124.65872,253.732205 123.997735,255.749758 C123.355227,257.700556 123.004768,259.783672 123,261.949635 L123,261.997914 C123,264.155533 123.342115,266.22971 123.972106,268.172163 C124.627727,270.193889 125.595065,272.075545 126.820479,273.756344 C128.050066,275.449061 129.537728,276.937344 131.231613,278.171119 C132.911193,279.396553 134.788652,280.363905 136.805579,281.020131 C138.7486,281.654305 140.82334,281.995232 142.980332,282 L143.001788,282 C145.151031,282 147.220407,281.663243 149.158659,281.033244 C151.180952,280.38119 153.057814,279.414434 154.73799,278.193173 C156.431876,276.968336 157.923708,275.475883 159.157467,273.786742 C160.387054,272.110712 161.358564,270.233225 162.014781,268.2115 C162.653714,266.264278 162.995232,264.185931 163,262.024736 L163,261.997914 C163,259.858175 162.662654,257.79294 162.041603,255.858831 C161.388963,253.837106 160.426391,251.959619 159.205745,250.279418" id="Fill-65" fill="#383B41"></path>
                    <path d="M143.000597,247 C134.163992,247 127,254.163992 127,263 C127,271.836605 134.163992,279 143.000597,279 C151.836605,279 159,271.836605 159,263 C159,254.163992 151.836605,247 143.000597,247" id="Fill-66" fill="#292D2F"></path>
                    <polygon id="Fill-67" fill="#596067" points="142 284 145 284 145 241 142 241"></polygon>
                    <polygon id="Fill-68" fill="#596067" points="122 264 165 264 165 261 122 261"></polygon>
                    <polyline id="Fill-69" fill="#596067" points="126 248.156208 156.844402 279 159 276.843792 128.156208 246 126 248.156208"></polyline>
                    <polyline id="Fill-70" fill="#596067" points="126 276.843792 128.156208 279 159 248.156208 156.844402 246 126 276.843792"></polyline>
                    <path d="M143.000303,255 C138.5817,255 135,258.582307 135,263.000303 C135,267.418906 138.5817,271 143.000303,271 C147.4183,271 151,267.418906 151,263.000303 C151,258.582307 147.4183,255 143.000303,255" id="Fill-71" fill="#596067"></path>
                    <path d="M143,258 C140.238725,258 138,260.238725 138,263.000601 C138,265.761876 140.238725,268 143,268 C145.761275,268 148,265.761876 148,263.000601 C148,260.238725 145.761275,258 143,258" id="Fill-72" fill="#292D2F"></path>
                    <path d="M361.000601,258 C358.238725,258 356,260.238725 356,263.000601 C356,265.761876 358.238725,268 361.000601,268 C363.761275,268 366,265.761876 366,263.000601 C366,260.238725 363.761275,258 361.000601,258" id="Fill-73" fill="#292D2F"></path>
                    <path d="M314,179 L282.371413,177.803345 L240.559026,176.195036 L232.858737,175.906045 L231.285535,175.864762 L206.197745,174.875125 L199.905532,174.627417 L196.634831,174.503564 L193.985604,174.420995 L191.046357,174.297739 L170.884736,173.513928 L166,173.348789 L181.027694,124.094415 C181.358547,124.052532 186.699031,123.969963 193.985604,124.011248 L196.634831,124.052532 C198.498058,124.052532 200.443544,124.052532 202.471895,124.094415 C209.385584,124.176386 216.837284,124.341525 223.130096,124.671802 C225.407037,124.795058 227.518252,124.91951 229.422909,125.08405 C230.209512,125.166619 231.036945,125.207306 231.823544,125.290473 C243.291121,126.445247 253.226921,128.21929 256.952764,130.900398 C258.070826,131.725493 259.188279,132.550588 260.347167,133.416967 C284.772648,151.691703 314,179 314,179" id="Fill-74" fill="#141718"></path>
                    <g id="Group-77" transform="translate(202.000000, 124.000000)">
                        <mask id="mask-8" fill="white">
                            <use xlink:href="#path-7"></use>
                        </mask>
                        <g id="Clip-76"></g>
                        <path d="M21.4041672,0.80399999 C15.003389,0.528999999 7.42805577,0.390999995 0.398444447,0.322499995 C0.392333335,0.321999995 0.385611113,0.321999995 0.379500002,0.321999995 L0.381333335,0.319499995 C7.41766673,0.387999997 15.0015554,0.525999993 21.4060007,0.801999986 L21.4041672,0.80399999" id="Fill-75" fill="url(#linearGradient-9)" mask="url(#mask-8)"></path>
                    </g>
                    <g id="Group-80" transform="translate(171.000000, 124.000000)">
                        <mask id="mask-11" fill="white">
                            <use xlink:href="#path-10"></use>
                        </mask>
                        <g id="Clip-79"></g>
                        <path d="M20.2333527,50.7269991 L0.0114431819,49.9410003 L0.0114431819,49.320598 L31.6921917,0.386400014 C31.6982167,0.386400014 31.7048414,0.386400014 31.7108632,0.387000014 C38.6388078,0.469200012 46.1045799,0.634800002 52.4127837,0.964800016 L20.2333527,50.7269991" id="Fill-78" fill="url(#linearGradient-12)" mask="url(#mask-11)"></path>
                    </g>
                    <g id="Group-83" transform="translate(232.000000, 125.000000)">
                        <mask id="mask-14" fill="white">
                            <use xlink:href="#path-13"></use>
                        </mask>
                        <g id="Clip-82"></g>
                        <path d="M14.9951996,2.46419993 C10.7675995,1.61400001 5.71379998,0.931200021 0.320399993,0.386400013 C0.314399992,0.385800013 0.308399993,0.385200013 0.302399993,0.384600013 L0.303599993,0.382800013 C5.70360001,0.928799997 10.7639993,1.61220001 14.9951996,2.46419993" id="Fill-81" fill="url(#linearGradient-15)" mask="url(#mask-14)"></path>
                    </g>
                    <g id="Group-86" transform="translate(200.000000, 125.000000)">
                        <mask id="mask-17" fill="white">
                            <use xlink:href="#path-16"></use>
                        </mask>
                        <g id="Clip-85"></g>
                        <path d="M33.0291061,51.5362343 L31.4628437,51.4945145 L6.47616644,50.494421 L0.20931372,50.2440957 L31.9986842,0.38576743 C32.0034707,0.388186035 32.0094521,0.388790686 32.0154298,0.389395337 C37.3912057,0.938418623 42.428489,1.62651166 46.6422752,2.4833023 C51.3739617,3.44651177 55.0644584,4.62255816 57.0266262,6.05497688 C58.1395775,6.88879086 59.253128,7.72260485 60.4073423,8.59813944 L33.0291061,51.5362343" id="Fill-84" fill="url(#linearGradient-18)" mask="url(#mask-17)"></path>
                    </g>
                    <polygon id="Fill-87" fill="#BC830E" points="312 262 315 262 315 179 312 179"></polygon>
                    <polygon id="Fill-88" fill="#FCB017" points="309 262 312 262 312 179 309 179"></polygon>
                    <path d="M198.511789,267 L311.487012,267 C314.531695,267 317,264.761372 317,262 L193,262 C193,264.761372 195.467706,267 198.511789,267" id="Fill-89" fill="#141718"></path>
                    <polyline id="Fill-90" fill="#596067" points="198 124.040882 198 174 195 173.918234 195 124 198 124.040882"></polyline>
                    <path d="M141,206.206917 C141,206.639128 141.021634,207.071337 141.103842,207.485893 C141.208302,208.316225 141.437001,209.112467 141.790557,209.874008 C142.102701,210.634333 142.539701,211.360569 143.079926,212.035669 C145.368771,215.02766 149.403765,217 154,217 L154,185 L141,185 L141,206.206917" id="Fill-91" fill="#DCDBD6"></path>
                    <path d="M144,204.230611 C144,204.581805 144.014894,204.933 144.072086,205.270239 C144.144172,205.944718 144.302641,206.591288 144.547495,207.209947 C144.763156,207.828025 145.065797,208.418195 145.439928,208.9665 C147.024624,211.398113 149.818098,213 153,213 L153,187 L144,187 L144,204.230611" id="Fill-92" fill="#141718"></path>
                    <polygon id="Fill-93" fill="#745E5B" points="144 190 156 190 156 188 144 188"></polygon>
                    <polygon id="Fill-94" fill="#745E5B" points="144 194 156 194 156 192 144 192"></polygon>
                    <polygon id="Fill-95" fill="#745E5B" points="144 197 156 197 156 195 144 195"></polygon>
                    <polygon id="Fill-96" fill="#745E5B" points="144 202 156 202 156 200 144 200"></polygon>
                    <path d="M144,204.806807 C144,205.209877 144.015008,205.612946 144.072636,206 L156,206 L156,204 L144,204 L144,204.806807" id="Fill-97" fill="#745E5B"></path>
                    <path d="M144.942583,209 L156,209 L156,207 L144,207 C144.22778,207.70374 144.547428,208.375703 144.942583,209" id="Fill-98" fill="#745E5B"></path>
                    <path d="M138.213892,121.281109 C138.156442,121.326813 138.098382,121.361692 138.040325,121.39597 C127.739323,127.944822 113.711138,154.854051 109,167.94033 L140.355375,170 L162,117 C151.362746,117.667514 143.075014,118.875654 139.290378,120.694178 C138.943243,120.86677 138.584013,121.062213 138.213892,121.281109" id="Fill-99" fill="#141718"></path>
                    <path d="M131.858512,126 L157.272014,126 L161,117 C161,117 128.147345,119.541391 128.003776,121.090963 C127.860207,122.641123 131.858512,126 131.858512,126" id="Fill-100" fill="#DCDBD6"></path>
                    <path d="M292.342311,167 L287.124268,167 C284.846273,167 283,168.901008 283,171.245151 L283,179 L304,179 C304,172.372847 298.780752,167 292.342311,167" id="Fill-101" fill="#DCDBD6"></path>
                    <path d="M114.714892,193 L103.741947,193 C103.359518,197.623693 103.134526,202.038569 103,205.848851 L103,206 L114.714892,206 C118.18906,206 121,203.095396 121,199.50607 C121,197.716567 120.291537,196.089746 119.156001,194.905444 C118.020463,193.731462 116.446689,193 114.714892,193" id="Fill-102" fill="#AE353E"></path>
                    <path d="M104,205.848851 L104,206 L109,206 L109,193 L104.75,193 C104.36342,197.623693 104.135986,202.038569 104,205.848851" id="Fill-103" fill="#90262D"></path>
                    <path d="M476.559451,207 L444.440549,207 C439.779288,207 436,210.954926 436,215.834203 L436,220 L485,220 L485,215.834203 C485,210.954926 481.220711,207 476.559451,207" id="Fill-104" fill="#141718"></path>
                    <path d="M473.912834,210 L443.087166,210 C439.173081,210 436,212.994911 436,216.68922 L436,219 L481,219 L481,216.68922 C481,212.994911 477.82692,210 473.912834,210" id="Fill-105" fill="#292D2F"></path>
                    <path d="M506,251.479709 L506,263 L436,263 L436,251.479709 C436,250.98617 436.041282,250.533213 436.082564,250.039673 C436.165128,249.4226 436.288376,248.80493 436.454103,248.229035 C436.659915,247.570784 436.907607,246.912532 437.278547,246.295459 C437.567521,245.637208 437.938461,245.019538 438.433846,244.484821 C440.496154,241.76946 443.795727,240 447.508718,240 L494.449998,240 C500.843932,240 506,245.143072 506,251.479709" id="Fill-106" fill="#141718"></path>
                    <path d="M502,246 C502,246.545155 501.624464,247 501.082623,247 L437,247 C437.292085,246.272907 437.667017,245.590639 438.167733,245 L501.082623,245 C501.624464,245 502,245.454845 502,246" id="Fill-107" fill="#745E5B"></path>
                    <path d="M502,249 C502,249.545155 501.625646,250 501.08552,250 L436,250 C436.083189,249.318392 436.207371,248.636124 436.374353,248 L501.08552,248 C501.625646,248 502,248.454845 502,249" id="Fill-108" fill="#745E5B"></path>
                    <path d="M502,253 C502,253.545155 501.626118,254 501.086669,254 L436,254 L436,252 L501.086669,252 C501.626118,252 502,252.454845 502,253" id="Fill-109" fill="#745E5B"></path>
                    <path d="M502,257 C502,257.545155 501.626118,258 501.086669,258 L436,258 L436,256 L501.086669,256 C501.626118,256 502,256.454845 502,257" id="Fill-110" fill="#745E5B"></path>
                    <path d="M502,260 C502,260.545814 501.626118,261 501.086669,261 L436,261 L436,259 L501.086669,259 C501.626118,259 502,259.454186 502,260" id="Fill-111" fill="#745E5B"></path>
                    <path d="M494.921313,251 L460.078687,251 C459.483003,251 459,251.499135 459,252.115342 L459,261.884658 C459,262.500236 459.483003,263 460.078687,263 L494.921313,263 C495.516997,263 496,262.500236 496,261.884658 L496,252.115342 C496,251.499135 495.516997,251 494.921313,251" id="Fill-112" fill="#FFFFFE"></path>
                    <polygon id="Fill-113" fill="#B8B8B3" points="321 277 326 277 326 262 321 262"></polygon>
                    <polygon id="Fill-114" fill="#F3F4F1" points="320 277 322 277 322 262 320 262"></polygon>
                    <polygon id="Fill-115" fill="#F3F4F1" points="401 277 403 277 403 263 401 263"></polygon>
                    <path d="M206,191.668057 L206,195.331943 C206,196.804891 204.760492,198 203.232225,198 L189.767176,198 C188.238909,198 187,196.804891 187,195.331943 L187,191.668057 C187,190.194532 188.238909,189 189.767176,189 L203.232225,189 C204.760492,189 206,190.194532 206,191.668057" id="Fill-116" fill="#BC830E"></path>
                    <path d="M206,193 L206,195.035682 C206,196.672186 204.760492,198 203.232225,198 L189.767176,198 C188.238909,198 187,196.672186 187,195.035682 L187,193 L206,193" id="Fill-117" fill="#FFCF6E"></path>
                    <polyline id="Fill-118" fill="#E81F54" points="236 115 208 115.002405 208.24564 277 236 277 236 115"></polyline>
                    <polyline id="Fill-119" fill="#BA1641" points="299 115 276 115.000602 276.202052 162 287.500297 149.031055 299 162 299 115"></polyline>
                    <polyline id="Fill-120" fill="#E81F54" points="283 115 255 115.000607 255.245049 173 268.999705 156.995608 283 173 283 115"></polyline>
                    <path d="M51,94.4832084 L45.2607116,94.9246278 C31.2732368,95.9989934 19.0683367,85.4614516 18,71.3870746 L49.0657552,69 L51,94.4832084" id="Fill-178" fill="#3B3D55"></path>
                    <path d="M44.3690252,92.4875004 L37.6086734,93 L35.0751125,60.0418465 C34.0049479,46.1234861 44.4959131,33.9786618 58.5074082,32.9156106 L70.2648553,32.0237892 C74.7310552,31.684897 78.6280581,35.0066346 78.9686209,39.443149 L79.8861617,51.3721536 C81.5081686,72.4684868 65.6065261,90.8762769 44.3690252,92.4875004" id="Fill-179" fill="#3B3D55"></path>
                    <path d="M80.838811,146 L60.4501172,147.540898 L65.6981549,216.231585 L35.4041964,216.353786 L33,223.679163 L70.9805217,226.96661 C75.8190262,227.385668 80.0853913,223.8109 80.4328905,219.015338 C80.7593145,214.502919 81.0544176,209.814056 81.2929102,204.992863 C82.2251979,186.527119 82.3890101,166.091289 80.838811,146" id="Fill-180" fill="#D1807D"></path>
                    <path d="M36.9747227,227.356091 C37.3654901,232.274473 33.1793264,236.592596 27.6245374,237 L26,216.101851 L36.0721324,216 L36.9747227,227.356091" id="Fill-181" fill="#020202"></path>
                    <path d="M73.8175417,13 L69,0.583993044 C69,0.583993044 81.794868,-3.55447674 80.960937,10.2022031 L73.8175417,13" id="Fill-182" fill="#EC9998"></path>
                    <polyline id="Fill-183" fill="#3BB95A" points="66 79.3721935 82.3666077 45.3864059 73.8944235 12.8235536 81.280762 10 93 47.2110702 77.0995479 85 66 79.3721935"></polyline>
                    <path d="M83,146.416237 L49.3072076,149 C49.3072076,149 52.7310567,120.389678 35.0060099,83.111284 L35,78.1869819 L47.6983528,72.9379744 L62.7850447,71 L77.6668015,76.28522 L83,146.416237" id="Fill-184" fill="#3BB95A"></path>
                    <path d="M61.9762688,71.8021756 C61.9762688,71.8021756 62.6193466,74.5186197 57.210247,74.948718 C51.8017325,75.3782079 47.3060482,72.9688028 47.3060482,72.9688028 L46,55.1660176 L60.6702213,54 L61.9762688,71.8021756" id="Fill-185" fill="#EC9998"></path>
                    <path d="M62,69.9153805 L61.3752375,62 L47,63.0624466 C47,63.0624466 48.7495885,70.8939333 62,69.9153805" id="Fill-186" fill="#CC6A68"></path>
                    <path d="M53.3192845,209.264486 C54.1204413,211.930125 54.9198057,214.683494 55.6743621,217.570868 C57.8203388,225.753455 61.9462067,239.564768 61.9462067,239.564768 L48.6031539,265.149716 L52.6035605,273 L74,240.750964 L66.8821914,147 L49.5070691,148.334621 C40.3191579,173.160014 47.0193609,188.329984 53.3192845,209.264486" id="Fill-187" fill="#EC9998"></path>
                    <path d="M54.7581122,277.028596 C57.4403945,282.239111 55.6341878,288.494326 50.7225732,291 L41,272.116212 L48.564694,265 L54.7581122,277.028596" id="Fill-188" fill="#020202"></path>
                    <path d="M53.3285012,209 L60.630035,208.020514 L75.0195828,206.086585 L82.7403815,205.049275 C84.1040343,186.549353 84.5831072,166.094041 83.0430164,146 L49.5120626,148.552145 C40.3139719,173.181146 47.0215983,188.231108 53.3285012,209" id="Fill-189" fill="#3B3D55"></path>
                    <path d="M42,49.3006105 L46.1947541,49 L47,58.8827195 L45.4668019,58.9926269 C43.996959,59.0977814 42.7140142,58.0658432 42.6012418,56.6869559 L42,49.3006105" id="Fill-190" fill="#EC9A99"></path>
                    <path d="M42.0560544,41.4086403 L42.7901999,50.9737544 L45.4735442,50.7696738 L46.4895383,64.002171 C46.4895383,64.002171 56.0102978,72.5244813 63.9580607,67.3116591 C67.438861,65.0286269 69.3198792,60.4032183 68.9552414,55.6494253 L67.7121872,39.4598879 C67.4991254,36.6808884 66.6961927,34.1223182 65.4665297,31.9585863 C62.9451111,27.4900219 58.6175482,24.674687 53.9387411,25.0301616 L53.4669642,25.0664963 C46.5144969,25.5945608 41.4040894,32.9135835 42.0560544,41.4086403" id="Fill-191" fill="#EC9998"></path>
                    <path d="M64.0929856,56 C64.6741455,55.9531274 65.2110265,55.6062691 65.5658108,55.0478981 C65.9549112,54.4344513 66.0910687,53.6417167 65.9394137,52.8718324 L65.7667261,52 L64.6818943,52.2718617 L64.8540283,53.1436942 C64.9331768,53.5462135 64.8645446,53.9569356 64.6663967,54.2698112 C64.499244,54.5322983 64.2629057,54.6893218 64,54.7104146 L64.0929856,56" id="Fill-192" fill="#CC6A68"></path>
                    <path d="M71,41.1715665 C71,41.1715665 49.5382088,40.9099478 36.0365195,69 L34.0524264,43.3216521 C33.2900625,33.4505006 40.9319546,24.8242934 51.1207384,24.0550736 C61.3101298,23.2858539 70.1883526,30.66471 70.9507166,40.5358628 L71,41.1715665" id="Fill-193" fill="#3B3D55"></path>
                    <path d="M56,59.8382523 L66,59 C66,59 65.3643439,63.6983847 61.9240776,63.9864933 C58.4844056,64.2752537 56,59.8382523 56,59.8382523" id="Fill-194" fill="#FFFFFE"></path>
                    <path d="M10,29.529799 L7.57542312,16 C7.57542312,16 -5.32565355,19.3987989 2.54392684,31 L10,29.529799" id="Fill-195" fill="#EC9998"></path>
                    <polyline id="Fill-196" fill="#3BB95A" points="52 81.4637546 20.6811962 61.064841 10.5653447 29 3 30.4293193 12.8818653 68.127468 45.8128374 92 52 81.4637546"></polyline>
                </g>
            </g>
        </g>
    </g>
</svg>