<svg xmlns="http://www.w3.org/2000/svg" width="14.957" height="14.807" viewBox="0 0 14.957 14.807">
  <g id="Users_Copy" data-name="Users Copy" transform="translate(0.476 0.469)">
    <path id="Path" d="M3.125,7.315A3.423,3.423,0,0,0,6.25,3.658C6.25.856,4.851,0,3.125,0S0,.856,0,3.658A3.423,3.423,0,0,0,3.125,7.315Z" transform="translate(3.878 0.031)" fill="none" stroke="#bfc5d2" stroke-miterlimit="10" stroke-width="1"/>
    <path id="Path-2" data-name="Path" d="M13.869,5.222,12.293,1.671a.791.791,0,0,0-.356-.379L9.49.018a.158.158,0,0,0-.168.014,3.876,3.876,0,0,1-2.353.8,3.876,3.876,0,0,1-2.353-.8A.158.158,0,0,0,4.448.018L2,1.291a.791.791,0,0,0-.356.379L.068,5.222a.788.788,0,0,0,.72,1.108h12.36a.788.788,0,0,0,.721-1.108Z" transform="translate(0.034 7.508)" fill="none" stroke="#bfc5d2" stroke-miterlimit="10" stroke-width="1"/>
  </g>
</svg>
