<svg id="Icon" xmlns="http://www.w3.org/2000/svg" xmlns:xlink="http://www.w3.org/1999/xlink" width="24" height="24" viewBox="0 0 24 24">
  <defs>
    <clipPath id="clip-path">
      <path id="Mail" d="M18.182,16H1.818A1.8,1.8,0,0,1,0,14.222V1.778A1.8,1.8,0,0,1,1.818,0H18.182A1.8,1.8,0,0,1,20,1.778V14.222A1.8,1.8,0,0,1,18.182,16ZM1.524,2.132V14.527H18.476V2.132L10,8.977ZM2.857,1.49l7.19,5.587,7.1-5.587Z" transform="translate(2 4)" fill="#bfc5d2"/>
    </clipPath>
  </defs>
  <rect id="icon-Chat_background" data-name="icon-Chat background" width="24" height="24" fill="none"/>
  <g id="Group_1" data-name="Group 1">
    <path id="Mail-2" data-name="Mail" d="M18.182,16H1.818A1.8,1.8,0,0,1,0,14.222V1.778A1.8,1.8,0,0,1,1.818,0H18.182A1.8,1.8,0,0,1,20,1.778V14.222A1.8,1.8,0,0,1,18.182,16ZM1.524,2.132V14.527H18.476V2.132L10,8.977ZM2.857,1.49l7.19,5.587,7.1-5.587Z" transform="translate(2 4)" fill="#bfc5d2"/>
  </g>
</svg>
