<svg xmlns="http://www.w3.org/2000/svg" width="19.997" height="19.997" viewBox="0 0 19.997 19.997">
  <g id="Logout" transform="translate(19.997 0) rotate(90)">
    <path id="Shape" d="M10,20A10,10,0,1,1,20,10,10.009,10.009,0,0,1,10,20ZM10,.888A9.11,9.11,0,1,0,19.108,10,9.121,9.121,0,0,0,10,.888Z" transform="translate(0)" fill="#bfc5d2"/>
    <path id="Path" d="M8.09,7.116H15.52a7.747,7.747,0,1,0-.006,1.441H8.09l.571.572a.72.72,0,0,1-1.019,1.019l-1.8-1.8h0l-.509-.509.509-.509h0L7.522,5.646A.72.72,0,1,1,8.541,6.665Z" transform="translate(2.222 2.222)" fill="#bfc5d2"/>
  </g>
</svg>
