<svg xmlns="http://www.w3.org/2000/svg" xmlns:xlink="http://www.w3.org/1999/xlink" width="19.4" height="19.4" viewBox="0 0 19.4 19.4">
  <defs>
    <clipPath id="clip-path">
      <path id="Combined_Shape" data-name="Combined Shape" d="M18.6,19.4H11.8a.8.8,0,0,1-.8-.8V11.8a.8.8,0,0,1,.8-.8h6.8a.8.8,0,0,1,.8.8v6.8A.8.8,0,0,1,18.6,19.4ZM12.45,12.45v5.5h5.5v-5.5ZM7.6,19.4H.8a.8.8,0,0,1-.8-.8V11.8A.8.8,0,0,1,.8,11H7.6a.8.8,0,0,1,.8.8v6.8A.8.8,0,0,1,7.6,19.4ZM1.45,12.45v5.5h5.5v-5.5ZM18.6,8.4H11.8a.8.8,0,0,1-.8-.8V.8a.8.8,0,0,1,.8-.8h6.8a.8.8,0,0,1,.8.8V7.6A.8.8,0,0,1,18.6,8.4ZM12.45,1.45v5.5h5.5V1.45ZM7.6,8.4H.8A.8.8,0,0,1,0,7.6V.8A.8.8,0,0,1,.8,0H7.6a.8.8,0,0,1,.8.8V7.6A.8.8,0,0,1,7.6,8.4ZM1.45,1.45v5.5h5.5V1.45Z" transform="translate(2.3 2.3)" fill="#bfc5d2"/>
    </clipPath>
  </defs>
  <g id="Group_2" data-name="Group 2" transform="translate(-2.3 -2.3)">
    <path id="Combined_Shape-2" data-name="Combined Shape" d="M18.6,19.4H11.8a.8.8,0,0,1-.8-.8V11.8a.8.8,0,0,1,.8-.8h6.8a.8.8,0,0,1,.8.8v6.8A.8.8,0,0,1,18.6,19.4ZM12.45,12.45v5.5h5.5v-5.5ZM7.6,19.4H.8a.8.8,0,0,1-.8-.8V11.8A.8.8,0,0,1,.8,11H7.6a.8.8,0,0,1,.8.8v6.8A.8.8,0,0,1,7.6,19.4ZM1.45,12.45v5.5h5.5v-5.5ZM18.6,8.4H11.8a.8.8,0,0,1-.8-.8V.8a.8.8,0,0,1,.8-.8h6.8a.8.8,0,0,1,.8.8V7.6A.8.8,0,0,1,18.6,8.4ZM12.45,1.45v5.5h5.5V1.45ZM7.6,8.4H.8A.8.8,0,0,1,0,7.6V.8A.8.8,0,0,1,.8,0H7.6a.8.8,0,0,1,.8.8V7.6A.8.8,0,0,1,7.6,8.4ZM1.45,1.45v5.5h5.5V1.45Z" transform="translate(2.3 2.3)" fill="#bfc5d2"/>
  </g>
</svg>
