<?xml version="1.0" encoding="UTF-8"?>
<svg width="20px" height="20px" viewBox="0 0 20 20" version="1.1" xmlns="http://www.w3.org/2000/svg" xmlns:xlink="http://www.w3.org/1999/xlink">
    <!-- Generator: Sketch 63.1 (92452) - https://sketch.com -->
    <title>plus</title>
    <desc>Created with Sketch.</desc>
    <g id="Page-1" stroke="none" stroke-width="1" fill="none" fill-rule="evenodd">
        <g id="1-Homepage" transform="translate(-466.000000, -1472.000000)" fill="#FCB017">
            <g id="Available-Cars" transform="translate(165.000000, 966.000000)">
                <g id="1" transform="translate(0.000000, 81.000000)">
                    <g id="plus" transform="translate(301.000000, 425.000000)">
                        <path d="M17.0710754,2.92892456 C15.1823425,1.04019165 12.671051,0 10,0 C7.32894897,0 4.81765747,1.04019165 2.92892456,2.92892456 C1.04019165,4.81765747 -2.84217094e-14,7.32894897 -2.84217094e-14,10 C-2.84217094e-14,12.671051 1.04019165,15.1823425 2.92892456,17.0710754 C4.81765747,18.9598083 7.32894897,20 10,20 C12.671051,20 15.1823425,18.9598083 17.0710754,17.0710754 C18.9598083,15.1823425 20,12.671051 20,10 C20,7.32894897 18.9598083,4.81765747 17.0710754,2.92892456 Z M10,18.4375 C5.34759514,18.4375 1.5625,14.6524049 1.5625,10 C1.5625,5.34759514 5.34759514,1.5625 10,1.5625 C14.6524049,1.5625 18.4375,5.34759514 18.4375,10 C18.4375,14.6524049 14.6524049,18.4375 10,18.4375 Z M10.7812498,9.21798704 L14.296875,9.21798704 L14.296875,10.7804868 L10.7812498,10.7804868 L10.7812498,14.2961121 L9.21874998,14.2961121 L9.21874998,10.7804868 L5.703125,10.7804868 L5.703125,9.21798704 L9.21874998,9.21798704 L9.21874998,5.70236206 L10.7812498,5.70236206 L10.7812498,9.21798704 Z" id="Shape"></path>
                    </g>
                </g>
            </g>
        </g>
    </g>
</svg>