<svg width="16" height="16" viewBox="0 0 16 16" fill="none" xmlns="http://www.w3.org/2000/svg">
<path opacity="0.5" fill-rule="evenodd" clip-rule="evenodd" d="M9.08445 7.99925L15.7745 1.30919C16.0742 1.00951 16.0742 0.523687 15.7745 0.22401C15.4748 -0.075667 14.989 -0.075667 14.6893 0.22401L7.99927 6.91407L1.3092 0.225033C1.00953 -0.0746442 0.523703 -0.0746442 0.224025 0.225033C-0.0756517 0.52471 -0.0756517 1.01054 0.224025 1.31021L6.91409 8.00027L0.225048 14.6893C-0.0746289 14.989 -0.0746289 15.4748 0.225048 15.7745C0.375398 15.9238 0.570751 15.9995 0.767126 15.9995C0.963502 15.9995 1.15988 15.9248 1.3092 15.7745L7.99927 9.08443L14.6893 15.7745C14.8397 15.9238 15.035 15.9995 15.2314 15.9995C15.4278 15.9995 15.6242 15.9248 15.7735 15.7745C16.0732 15.4748 16.0732 14.989 15.7735 14.6893L9.08445 7.99925Z" fill="#21201E"/>
</svg>
