<svg width="14" height="13" viewBox="0 0 14 13" fill="none" xmlns="http://www.w3.org/2000/svg">
<path fill-rule="evenodd" clip-rule="evenodd" d="M12.459 0.923468C11.2374 -0.305509 9.25549 -0.306097 8.03214 0.911399C8.03043 0.913137 8.02852 0.914557 8.0269 0.916295C8.02556 0.917519 8.02441 0.919062 8.02316 0.92031L1.46573 7.47458C1.38771 7.55262 1.33826 7.65473 1.32556 7.76442L0.835761 11.9877C0.799505 12.3 1.06421 12.5672 1.3789 12.5304L5.5785 12.0408C5.6878 12.0281 5.78954 11.9789 5.86749 11.9013L5.87647 11.8923C5.87808 11.8907 5.87982 11.8894 5.88144 11.8878C5.88288 11.8864 5.88411 11.8846 5.88565 11.8832L12.4483 5.34231C13.668 4.12701 13.6728 2.14469 12.459 0.923468ZM8.37325 1.95496L9.54783 3.12935L3.6808 8.99531L2.50538 7.81997L8.37325 1.95496ZM1.87979 11.4863L2.18197 8.88143C2.44484 9.1443 4.22435 10.9235 4.48357 11.1827L1.87979 11.4863ZM5.53546 10.8496L4.37341 9.68763L10.2404 3.82177L11.4118 4.9929L5.53546 10.8496ZM12.0647 4.26099L9.10565 1.30242C9.91951 0.795119 11.0307 0.87556 11.7643 1.61369C12.4787 2.3324 12.578 3.43486 12.0647 4.26099Z" fill="#211E26"/>
</svg>
