<svg width="128" height="24" viewBox="0 0 128 24" fill="none" xmlns="http://www.w3.org/2000/svg">
<path d="M40.3828 5.625C41.2786 5.625 42.0651 5.79688 42.7422 6.14062C43.4193 6.47917 43.9401 6.95052 44.3047 7.55469C44.6693 8.15365 44.8516 8.83333 44.8516 9.59375C44.8516 10.3229 44.6693 10.9688 44.3047 11.5312C43.9401 12.0938 43.4193 12.5312 42.7422 12.8438C42.0703 13.1562 41.2839 13.3125 40.3828 13.3125H38.7109V17H35.7969V5.625H40.3828ZM40.3828 10.9453C40.8932 10.9453 41.2734 10.8255 41.5234 10.5859C41.7734 10.3411 41.8984 10.0156 41.8984 9.60938C41.8984 9.14062 41.7708 8.7526 41.5156 8.44531C41.2604 8.13802 40.8828 7.98438 40.3828 7.98438H38.7109V10.9453H40.3828ZM55.5703 16.875V17H52.4453L50.5312 13.1562H49.1797V17H46.2656V5.625H50.8516C51.737 5.625 52.5052 5.75781 53.1562 6.02344C53.8073 6.28385 54.3099 6.67188 54.6641 7.1875C55.0234 7.70312 55.2031 8.32812 55.2031 9.0625C55.2031 9.9375 55.0365 10.6276 54.7031 11.1328C54.375 11.6328 53.8906 12.0417 53.25 12.3594L55.5703 16.875ZM49.1797 10.7891H50.8516C51.3255 10.7891 51.6823 10.6719 51.9219 10.4375C52.1667 10.1979 52.2891 9.84896 52.2891 9.39062C52.2891 8.94271 52.1641 8.59635 51.9141 8.35156C51.6641 8.10677 51.3099 7.98438 50.8516 7.98438H49.1797V10.7891ZM66.5703 11.5234C66.5703 12.6641 66.3568 13.6615 65.9297 14.5156C65.5026 15.3646 64.9089 16.0182 64.1484 16.4766C63.388 16.9297 62.5208 17.1562 61.5469 17.1562C60.5573 17.1562 59.6797 16.9297 58.9141 16.4766C58.1536 16.0182 57.5599 15.3646 57.1328 14.5156C56.7109 13.6615 56.5 12.6641 56.5 11.5234V11.1094C56.5 9.96875 56.7109 8.97396 57.1328 8.125C57.5599 7.27083 58.1536 6.61458 58.9141 6.15625C59.6745 5.69792 60.5469 5.46875 61.5312 5.46875C62.5052 5.46875 63.3724 5.69792 64.1328 6.15625C64.8984 6.61458 65.4948 7.27083 65.9219 8.125C66.3542 8.97396 66.5703 9.96875 66.5703 11.1094V11.5234ZM63.5938 11.0938C63.5938 10.0417 63.4141 9.23958 63.0547 8.6875C62.7005 8.13021 62.1927 7.85156 61.5312 7.85156C60.1615 7.85156 59.4766 8.93229 59.4766 11.0938V11.5234C59.4766 12.5755 59.6484 13.3828 59.9922 13.9453C60.3411 14.5026 60.8594 14.7812 61.5469 14.7812C62.2031 14.7812 62.7083 14.4974 63.0625 13.9297C63.4167 13.362 63.5938 12.5599 63.5938 11.5234V11.0938ZM75.2656 5.625V13.3516C75.2656 14.0964 75.0911 14.7578 74.7422 15.3359C74.3932 15.9141 73.9167 16.362 73.3125 16.6797C72.7083 16.9974 72.0391 17.1562 71.3047 17.1562C70.513 17.1562 69.8203 17.0234 69.2266 16.7578C68.6328 16.4922 68.1693 16.0859 67.8359 15.5391C67.5026 14.987 67.3359 14.2995 67.3359 13.4766H70.2578C70.2578 13.8307 70.2943 14.1042 70.3672 14.2969C70.4453 14.4896 70.5573 14.6224 70.7031 14.6953C70.8542 14.7682 71.0547 14.8047 71.3047 14.8047C71.6432 14.8047 71.9036 14.6771 72.0859 14.4219C72.2682 14.1615 72.3594 13.8047 72.3594 13.3516V5.625H75.2656ZM79.7891 7.98438V10.0391H84.0156V12.3047H79.7891V14.6484H84.7969V17H78.7188H76.875V5.625H79.7891H84.8281V7.98438H79.7891ZM95.1328 13.0781C95.1068 13.8906 94.8932 14.6068 94.4922 15.2266C94.0911 15.8411 93.5365 16.3177 92.8281 16.6562C92.1198 16.9896 91.3021 17.1562 90.375 17.1562C89.3542 17.1562 88.4766 16.9323 87.7422 16.4844C87.013 16.0365 86.4557 15.3932 86.0703 14.5547C85.6901 13.7109 85.5 12.7109 85.5 11.5547V11.0781C85.5 9.93229 85.6979 8.9375 86.0938 8.09375C86.4948 7.24479 87.0573 6.59375 87.7812 6.14062C88.5104 5.6875 89.3542 5.46094 90.3125 5.46094C91.2917 5.46094 92.1328 5.63802 92.8359 5.99219C93.5391 6.34635 94.0833 6.83854 94.4688 7.46875C94.8594 8.09375 95.0885 8.8151 95.1562 9.63281H92.25C92.2448 9.01823 92.0938 8.57031 91.7969 8.28906C91.5 8.0026 91.0052 7.85938 90.3125 7.85938C89.8802 7.85938 89.5312 7.96094 89.2656 8.16406C89 8.36198 88.7995 8.69531 88.6641 9.16406C88.5339 9.6276 88.4688 10.2604 88.4688 11.0625V11.5547C88.4688 12.388 88.5286 13.0339 88.6484 13.4922C88.7734 13.9505 88.9714 14.276 89.2422 14.4688C89.513 14.6562 89.8906 14.75 90.375 14.75C90.974 14.75 91.4323 14.6172 91.75 14.3516C92.0677 14.0859 92.2292 13.6615 92.2344 13.0781H95.1328ZM105.125 7.98438H101.734V17H98.8125V7.98438H95.5078V5.625H101.734H105.125V7.98438ZM115.273 12.9766C115.273 13.862 115.091 14.6198 114.727 15.25C114.362 15.875 113.841 16.349 113.164 16.6719C112.487 16.9948 111.688 17.1562 110.766 17.1562C109.854 17.1562 109.055 16.9948 108.367 16.6719C107.685 16.3438 107.154 15.8672 106.773 15.2422C106.398 14.612 106.211 13.8568 106.211 12.9766V5.625H109.141V12.9766C109.141 13.6172 109.276 14.0833 109.547 14.375C109.818 14.6615 110.224 14.8047 110.766 14.8047C111.307 14.8047 111.708 14.6615 111.969 14.375C112.229 14.0833 112.359 13.6172 112.359 12.9766V5.625H115.273V12.9766ZM120.836 12.4141C120.065 12.1536 119.401 11.8724 118.844 11.5703C118.286 11.263 117.828 10.8724 117.469 10.3984C117.115 9.92448 116.938 9.35417 116.938 8.6875C116.938 8.03125 117.128 7.46094 117.508 6.97656C117.893 6.49219 118.424 6.11979 119.102 5.85938C119.779 5.59896 120.542 5.46875 121.391 5.46875C122.219 5.46875 122.956 5.60938 123.602 5.89062C124.247 6.17188 124.753 6.58073 125.117 7.11719C125.487 7.64844 125.672 8.28385 125.672 9.02344H122.766C122.766 8.63802 122.641 8.33333 122.391 8.10938C122.146 7.88021 121.789 7.76562 121.32 7.76562C121.008 7.76562 120.74 7.8099 120.516 7.89844C120.292 7.98698 120.122 8.10417 120.008 8.25C119.893 8.39062 119.836 8.54688 119.836 8.71875C119.836 9.00521 120 9.25 120.328 9.45312C120.661 9.65625 121.169 9.86979 121.852 10.0938C123.107 10.5 124.055 11.0052 124.695 11.6094C125.341 12.2135 125.664 12.9844 125.664 13.9219C125.664 14.6094 125.49 15.1953 125.141 15.6797C124.792 16.1641 124.299 16.5312 123.664 16.7812C123.029 17.0312 122.281 17.1562 121.422 17.1562C120.583 17.1562 119.797 17.0182 119.062 16.7422C118.333 16.4609 117.74 16.0234 117.281 15.4297C116.823 14.8359 116.594 14.0911 116.594 13.1953H119.523C119.523 13.6172 119.591 13.9505 119.727 14.1953C119.867 14.4401 120.076 14.6146 120.352 14.7188C120.628 14.8177 120.984 14.8672 121.422 14.8672C121.875 14.8672 122.208 14.7786 122.422 14.6016C122.641 14.4193 122.75 14.1979 122.75 13.9375C122.75 13.7135 122.703 13.526 122.609 13.375C122.516 13.2188 122.331 13.0651 122.055 12.9141C121.784 12.763 121.378 12.5964 120.836 12.4141Z" fill="white"/>
<path fill-rule="evenodd" clip-rule="evenodd" d="M8.90432 2.93727C9.43391 2.41039 10.2904 2.41309 10.8173 2.93997C11.3442 3.46685 11.3442 4.32337 10.8173 4.85025L5.4134 10.2542C5.14861 10.5162 4.80276 10.6486 4.45691 10.6486C4.11106 10.6486 3.76521 10.5162 3.50312 10.2515L0.801167 7.5495C0.274286 7.02262 0.274286 6.1661 0.801167 5.63922C1.32805 5.11234 2.18457 5.11234 2.71145 5.63922L4.45691 7.38739L8.90432 2.93727ZM8.90432 13.7451C9.43391 13.2182 10.2904 13.2209 10.8173 13.7478C11.3442 14.2747 11.3442 15.1312 10.8173 15.6581L5.4134 21.062C5.14861 21.3241 4.80276 21.4565 4.45691 21.4565C4.11106 21.4565 3.76521 21.3241 3.50312 21.062L0.801167 18.36C0.274286 17.8331 0.274286 16.9766 0.801167 16.4497C1.32805 15.9229 2.18457 15.9229 2.71145 16.4497L4.45691 18.1952L8.90432 13.7451ZM20.6686 5.24474H15.2647C14.519 5.24474 13.9137 5.84997 13.9137 6.59571C13.9137 7.34145 14.519 7.94669 15.2647 7.94669H20.6686C21.4144 7.94669 22.0196 7.34145 22.0196 6.59571C22.0196 5.84997 21.4144 5.24474 20.6686 5.24474ZM15.2647 16.0525H20.6686C21.4144 16.0525 22.0196 16.6578 22.0196 17.4035C22.0196 18.1493 21.4144 18.7545 20.6686 18.7545H15.2647C14.519 18.7545 13.9137 18.1493 13.9137 17.4035C13.9137 16.6578 14.519 16.0525 15.2647 16.0525Z" fill="#FFC200"/>
</svg>
