<?xml version="1.0" encoding="utf-8"?>
<!-- Generator: Adobe Illustrator 17.0.0, SVG Export Plug-In . SVG Version: 6.00 Build 0)  -->
<!DOCTYPE svg PUBLIC "-//W3C//DTD SVG 1.1//EN" "http://www.w3.org/Graphics/SVG/1.1/DTD/svg11.dtd">
<svg version="1.1" id="Layer_1" xmlns="http://www.w3.org/2000/svg" xmlns:xlink="http://www.w3.org/1999/xlink" x="0px" y="0px"
	 width="150px" height="32.147px" viewBox="25.135 5.387 150 32.147" enable-background="new 25.135 5.387 150 32.147"
	 xml:space="preserve">
<g>
	<path fill="#FFFFFF" d="M38.819,20.595c0,1.19-0.314,2.268-0.7,3.204c-0.38,0.921-1.001,1.652-1.73,2.175
		c-0.726,0.521-1.645,0.794-2.667,0.814c-0.667,0-1.399-0.147-2.144-0.437c-0.731-0.284-1.392-0.783-1.95-1.485
		c-0.554-0.696-0.888-1.634-0.986-2.788l-0.004-0.015c-0.02-0.144-0.031-0.367-0.031-0.662c0-1.477,0.425-2.68,1.264-3.575
		c0.838-0.894,1.893-1.416,3.136-1.552c1.656,0.003,3.222,0.469,4.576,1.386l0.487,0.302v-3.83l-0.169-0.085
		c-1.15-0.762-2.897-1.147-5.156-1.147c-0.831,0.017-1.71,0.216-2.591,0.594c-0.879,0.376-1.709,0.935-2.46,1.664
		c-0.752,0.73-1.375,1.668-1.848,2.788c-0.471,1.119-0.712,2.427-0.712,3.889v0.018c0.055,0.869,0.241,1.771,0.552,2.682
		c0.313,0.917,0.801,1.81,1.45,2.654c0.656,0.854,1.529,1.758,2.595,2.302c1.066,0.545,2.341,1.067,3.791,1.067h0.007
		c1.934,0,3.572-0.679,4.868-1.633c1.287-0.947,2.096-2.185,2.681-3.488c0.582-1.295,0.736-2.583,0.736-3.634V5.839H38.82
		L38.819,20.595L38.819,20.595z"/>
	<path fill="#FFFFFF" d="M56.546,21.909c-0.319,1.601-0.866,2.813-1.625,3.603c-0.743,0.774-1.9,1.182-3.433,1.213
		c-1.01,0-1.893-0.237-2.626-0.705c-0.736-0.47-1.308-1.095-1.701-1.858c-0.398-0.771-0.62-1.592-0.661-2.424
		c0-1.023,0.201-1.97,0.596-2.813c0.391-0.834,0.96-1.502,1.693-1.986c0.728-0.482,1.592-0.727,2.568-0.727
		c1.001,0,1.736,0.125,2.186,0.372c0.369,0.203,0.729,0.464,1.072,0.778l-7.889,4.36l1.542,2.876l11.314-6.283l-0.129-0.247
		c-0.921-1.763-2.037-3.089-3.319-3.94c-1.289-0.857-2.896-1.291-4.776-1.291c-0.963,0-1.954,0.181-2.946,0.539
		c-0.994,0.358-1.923,0.915-2.762,1.656c-0.843,0.744-1.526,1.702-2.033,2.845c-0.506,1.142-0.762,2.475-0.762,3.959
		c0,1.476,0.392,2.872,1.166,4.15c0.771,1.275,1.819,2.496,3.113,3.246c1.297,0.75,2.693,1.326,4.149,1.326h0.001h0.001
		c1.386,0,2.643-0.47,3.737-0.962c1.092-0.491,2.023-1.244,2.765-2.043c0.739-0.795,1.303-1.693,1.675-2.574
		c0.374-0.883,0.572-1.766,0.589-2.575l0.005-0.267l-3.461-0.485L56.546,21.909z"/>
	<path fill="#FFFFFF" d="M68.648,19.885c-0.565-0.136-1.111-0.267-1.638-0.395c-0.514-0.125-1.011-0.277-1.478-0.455
		c-0.448-0.169-0.817-0.376-1.098-0.615c-0.246-0.209-0.38-0.441-0.409-0.709c0.003-0.351,0.124-0.743,0.37-0.941
		c0.264-0.212,0.661-0.446,1.178-0.446h7.7V13.33h-7.129c-1.534,0-2.88,0.272-4.001,0.934c-1.169,0.691-1.762,1.867-1.762,3.568
		c0.034,1.265,0.451,2.255,1.238,2.974c0.756,0.692,1.944,1.308,3.542,1.849c0.076,0.022,0.646,0.186,1.709,0.5
		c1.052,0.312,1.814,0.562,2.266,0.75c0.43,0.179,0.788,0.4,1.063,0.66c0.243,0.229,0.361,0.491,0.363,0.8
		c-0.023,0.428-0.162,0.702-0.424,0.837c-0.309,0.159-0.694,0.442-1.145,0.491c-0.102-0.04-0.194,0.119-0.281,0.119H60.54v2.996
		h8.106c3.438,0,5.376-1.535,5.376-4.48v-0.02c0-1.329-0.389-2.446-1.273-3.321C71.888,21.132,70.551,20.427,68.648,19.885z"/>
	<rect x="76.269" y="13.329" fill="#FFFFFF" width="3.745" height="16.478"/>
	<path fill="#FFFFFF" d="M78.127,7.79c-0.536,0-0.91,0.192-1.306,0.573c-0.393,0.378-0.552,0.849-0.552,1.397v0.019
		c0,0.635,0.118,1.156,0.545,1.547c0.419,0.385,0.87,0.58,1.436,0.58c0.537,0,0.977-0.188,1.353-0.559
		c0.379-0.372,0.558-0.876,0.558-1.496c0-0.589-0.211-1.085-0.615-1.477C79.145,7.987,78.663,7.79,78.127,7.79z"/>
	<path fill="#FFFFFF" d="M98.574,17.538c-0.429-0.934-1.022-1.763-1.763-2.464c-0.741-0.701-1.605-1.251-2.569-1.635
		c-0.963-0.383-2.012-0.586-3.122-0.603c-0.933,0-1.897,0.157-2.866,0.466c-0.975,0.311-1.905,0.82-2.766,1.513
		c-0.867,0.698-1.58,1.625-2.12,2.756s-0.814,2.487-0.814,4.027c0,1.488,0.356,2.887,1.058,4.161
		c0.703,1.275,1.698,2.311,2.959,3.081c1.258,0.769,2.673,1.193,4.216,1.261c1.346,0,2.671-0.357,4.154-1.063l0.053-0.078v-3.752
		l-0.32,0.252c-1.432,0.84-2.631,1.265-3.672,1.265c-1.007,0-1.86-0.227-2.59-0.676c-0.734-0.45-1.294-1.041-1.691-1.758
		c-0.399-0.719-0.616-1.458-0.658-2.197c-0.001-0.205-0.022-0.386-0.069-0.541c0.026-1.242,0.282-2.273,0.759-3.066
		c0.479-0.797,1.108-1.38,1.869-1.734c0.776-0.361,1.64-0.544,2.566-0.544c0.795,0,1.55,0.219,2.245,0.65
		c0.697,0.432,1.234,1.07,1.662,1.894c0.431,0.831,0.649,1.815,0.649,2.917v7.809c0,0.881-0.187,1.67-0.619,2.344
		c-0.434,0.676-1.029,1.208-1.803,1.58c-0.783,0.376-1.667,0.567-2.639,0.567c-0.735,0-1.431-0.06-2.076-0.178
		c-0.653-0.12-1.488-0.327-2.484-0.617l-0.277-0.081l-0.88,3.211l0.252,0.064c1.81,0.633,3.685,0.929,5.572,0.929h0.001h0.001
		c1.798,0,3.304-0.354,4.476-1.051c1.169-0.696,2.056-1.535,2.635-2.517c0.57-0.968,1.037-1.895,1.225-2.769
		c0.186-0.863,0.363-1.582,0.363-2.149v-8.217l-0.084-0.018C99.337,19.493,99.002,18.47,98.574,17.538z"/>
	<path fill="#FFFFFF" d="M110.814,13.489c-1.097-0.479-2.13-0.723-3.081-0.723h-0.001c-1.307,0-2.528,0.374-3.628,0.992
		c-1.104,0.619-2.136,1.464-2.765,2.508c-0.63,1.046-1.103,2.202-1.103,3.433v10.109h3.745V19.764c0-0.996,0.414-1.831,1.122-2.551
		c0.706-0.718,1.581-1.068,2.595-1.068c1.069,0.031,1.994,0.416,2.677,1.18c0.679,0.76,1.097,1.671,1.097,2.708v9.774h3.745v-9.84
		c0-1.652-0.575-3.042-1.371-4.127C113.055,14.764,111.922,13.971,110.814,13.489z"/>
	<path fill="#FFFFFF" d="M146.638,13.859c-1.32-0.652-2.712-0.996-4.145-1.024c-1.385,0-2.753,0.367-4.066,1.091
		c-1.313,0.724-2.395,1.739-3.216,3.018c-0.815,1.269-1.243,2.702-1.276,4.263l-0.078,0.065l0.003,0.138
		c0.028,1.165,0.257,2.279,0.682,3.309c0.425,1.033,1.054,1.969,1.868,2.783c0.814,0.814,1.798,1.311,2.923,1.767
		c1.124,0.455,2.39,0.539,3.763,0.539h0.005h0.005c1.67,0,3.142-0.403,4.376-1.302c1.226-0.894,2.163-1.944,2.785-3.268
		c0.618-1.317,0.932-2.618,0.932-3.937c0-1.75-0.431-3.269-1.282-4.549C149.069,15.475,147.965,14.514,146.638,13.859z
		 M147.522,21.068c0,1.35-0.214,2.463-0.638,3.308c-0.416,0.828-0.985,1.432-1.692,1.793c-0.723,0.369-1.562,0.556-2.495,0.556
		c-1.797,0-3.11-0.546-3.902-1.624c-0.812-1.104-1.224-2.417-1.225-3.893c0.025-0.804,0.222-1.595,0.583-2.351
		c0.356-0.745,0.912-1.375,1.65-1.871c0.735-0.493,1.665-0.753,2.766-0.774c1.404,0.001,2.577,0.448,3.487,1.329
		C146.967,18.423,147.46,19.614,147.522,21.068z"/>
	<rect x="152.666" y="5.839" fill="#FFFFFF" width="3.745" height="23.968"/>
	<path fill="#FFFFFF" d="M171.391,5.839v14.756c0,1.19-0.184,2.269-0.57,3.204c-0.38,0.921-0.936,1.653-1.665,2.175
		c-0.726,0.521-1.613,0.795-2.635,0.815c-0.668,0-1.383-0.147-2.129-0.437c-0.732-0.284-1.384-0.783-1.941-1.485
		c-0.554-0.696-0.884-1.634-0.982-2.788l-0.001-0.015c-0.02-0.144-0.03-0.367-0.03-0.662c0-1.478,0.425-2.68,1.264-3.574
		c0.838-0.894,1.893-1.416,3.137-1.552c1.656,0.003,3.093,0.469,4.447,1.386l0.357,0.302v-3.83l-0.039-0.085
		c-1.151-0.762-2.832-1.147-5.091-1.147c-0.832,0.017-1.678,0.216-2.559,0.594c-0.879,0.377-1.693,0.936-2.443,1.664
		c-0.753,0.73-1.368,1.668-1.84,2.788c-0.472,1.12-0.709,2.428-0.709,3.889l0.002,0.018c0.056,0.87,0.243,1.772,0.554,2.682
		c0.313,0.917,0.801,1.81,1.45,2.653c0.656,0.854,1.529,1.758,2.595,2.302c1.066,0.545,2.342,1.067,3.791,1.067h0.007
		c1.934,0,3.572-0.679,4.868-1.633c1.287-0.946,2.34-2.185,2.926-3.487c0.582-1.295,0.98-2.583,0.98-3.635V5.839H171.391z"/>
</g>
<g>
	<g>
		<polygon fill="#F15B23" points="119.71,17.337 119.71,10.27 115.965,5.386 115.965,12.454 		"/>
	</g>
	<path fill="#2C97DD" d="M133.192,21.585V21.56c0-1.461-0.266-2.773-0.737-3.893c-0.473-1.12-1.106-2.06-1.858-2.79
		c-0.75-0.727-1.582-1.288-2.461-1.664c-0.881-0.377-1.752-0.577-2.589-0.594c-2.253,0-3.893,0.386-5.044,1.147l-0.043,0.085v3.83
		l0.359-0.302c1.354-0.917,2.836-1.383,4.492-1.386c1.243,0.136,2.276,0.658,3.114,1.552c0.838,0.894,1.159,2.097,1.159,3.575
		c0,0.295-0.137,0.518-0.137,0.661v0.03c0,0.028,0.18-0.244,0.178-0.244h3.489C133.124,21.568,133.192,21.688,133.192,21.585z"/>
	<path fill="#02BC9B" d="M124.741,26.508c-1.028-0.02-1.995-0.294-2.72-0.814c-0.73-0.523-1.354-1.255-1.734-2.175
		c-0.208-0.506-0.352-1.055-0.455-1.64c-0.088-0.497-0.121-1.019-0.121-1.565v-1.691l-3.745-4.883v7.781
		c0,0.118,0.058,0.237,0.067,0.359c0.068,0.961,0.426,2.028,0.942,3.178c0.586,1.302,1.729,2.441,3.016,3.388
		c1.274,0.937,2.716,1.417,4.963,1.434v-3.371C124.953,26.506,124.761,26.508,124.741,26.508z"/>
	<path fill="#EFCD06" d="M124.747,29.807h0.003c1.45,0,2.726-0.288,3.791-0.833c1.066-0.544,1.938-1.234,2.595-2.087
		c0.649-0.844,1.137-1.883,1.45-2.799c0.275-0.804,0.452-1.771,0.527-2.52h-3.489c-0.106,1.498-0.432,2.183-0.972,2.863
		c-0.557,0.7-1.055,1.278-1.787,1.562c-0.724,0.282-1.912,0.505-1.912,0.513v3.371c0,0-0.243-0.07-0.21-0.07H124.747z"/>
</g>
</svg>
