<svg xmlns="http://www.w3.org/2000/svg" width="25.437" height="30" viewBox="0 0 25.437 30">
  <path id="logo" d="M2.685,25.331A18.3,18.3,0,0,1,0,16.262,10.6,10.6,0,0,1,2.064,9.519a6.33,6.33,0,0,1,5.186-2.6,12.308,12.308,0,0,1,3.232.54A11.873,11.873,0,0,0,13,8a9.243,9.243,0,0,0,2.612-.613,10.426,10.426,0,0,1,3.158-.613,6.736,6.736,0,0,1,3.89,1.172,9.343,9.343,0,0,1,1.9,1.8,11.757,11.757,0,0,0-2.082,2.128,6.368,6.368,0,0,0-1.186,3.731,6.805,6.805,0,0,0,1.259,4.02A5.543,5.543,0,0,0,25.437,21.9a17.313,17.313,0,0,1-2.246,4.507q-2.356,3.534-4.694,3.534a8.533,8.533,0,0,1-2.556-.577,8.174,8.174,0,0,0-2.758-.577,7.121,7.121,0,0,0-2.593.595A6.671,6.671,0,0,1,8.181,30Q5.405,30,2.685,25.331ZM13.9,2.668A7.3,7.3,0,0,1,18.461,0a1.61,1.61,0,0,1,.046.2,1.637,1.637,0,0,0,.046.2c0,.048,0,.108.008.18s.01.132.01.18a6.807,6.807,0,0,1-.529,2.453,7.4,7.4,0,0,1-1.7,2.488A5.193,5.193,0,0,1,14.37,7a10.308,10.308,0,0,1-1.9.306A8.152,8.152,0,0,1,13.9,2.668Z" fill="#fff"/>
</svg>
