<svg xmlns="http://www.w3.org/2000/svg" width="70.521" height="62.5" viewBox="0 0 70.521 62.5"><path d="M52.782,60a4.059,4.059,0,0,1-2.313-.737l-11.288-7.95-5.729,6.433a3.812,3.812,0,0,1-4.166,1.077,3.927,3.927,0,0,1-2.565-3.5L25.969,40.8v-.326a.683.683,0,0,1,.014-.17.188.188,0,0,1,.007-.043A.187.187,0,0,0,26,40.218l.021-.085.021-.085a.2.2,0,0,0,.013-.041.194.194,0,0,1,.015-.044.5.5,0,0,1,.028-.08.524.524,0,0,0,.028-.076.2.2,0,0,1,.028-.085.432.432,0,0,0,.035-.071.43.43,0,0,1,.035-.071c.006-.014.013-.031.02-.048s.014-.037.021-.051a.626.626,0,0,0,.034-.063.6.6,0,0,1,.036-.065.238.238,0,0,0,.035-.049.238.238,0,0,1,.035-.049.048.048,0,0,1,.014-.029.3.3,0,0,1,.029-.044.323.323,0,0,0,.027-.041.4.4,0,0,1,.069-.1l.056-.057.056-.057a.126.126,0,0,0,.041-.039.142.142,0,0,1,.015-.017l28.6-29.021L6.822,31.348l12.807,3.939A2.556,2.556,0,0,1,21.3,38.462a2.511,2.511,0,0,1-2.392,1.811,2.457,2.457,0,0,1-.73-.111l-15.3-4.7a4.041,4.041,0,0,1-2.87-3.7,4.091,4.091,0,0,1,2.425-4.024L64.489.217A2.509,2.509,0,0,1,65.509,0a2.447,2.447,0,0,1,1.572.571,2.584,2.584,0,0,1,.864,2.508L56.755,56.727A4.077,4.077,0,0,1,52.782,60Zm8.348-48.873L32.38,40.3,52.156,54.233Zm-29.866,34.6h0l.335,6.532,3.443-3.868-3.777-2.664Z" transform="translate(1.253 1.25)" fill="#0076cf" stroke="#fff" stroke-miterlimit="10" stroke-width="2.5"/></svg>