<svg xmlns="http://www.w3.org/2000/svg" width="62.011" height="62.108" viewBox="0 0 62.011 62.108"><g transform="translate(1 1.116)"><ellipse cx="3.743" cy="3.75" rx="3.743" ry="3.75" transform="translate(36.83 11.664)" fill="#0076cf"/><path d="M59.237,19.438A34.2,34.2,0,0,0,51.879,7.845,33.327,33.327,0,0,0,40.394.618a9.391,9.391,0,0,0-9.976,2.119L21.232,11.9a9.392,9.392,0,0,0-1.953,10.4c.482,1.087,1.006,2.149,1.567,3.176L.685,45.671A2.346,2.346,0,0,0,0,47.328V57.641a2.341,2.341,0,0,0,2.339,2.344H12.632a2.341,2.341,0,0,0,2.339-2.344V53.422h4.211a2.341,2.341,0,0,0,2.339-2.344V46.86h4.211a2.344,2.344,0,0,0,0-4.687h-6.55a2.341,2.341,0,0,0-2.339,2.344v4.219H12.632a2.341,2.341,0,0,0-2.339,2.344V55.3H4.678v-7L25.422,27.516a2.347,2.347,0,0,0,.346-2.873,37.956,37.956,0,0,1-2.213-4.252,4.672,4.672,0,0,1,.978-5.17l9.186-9.16A4.712,4.712,0,0,1,38.724,5a28.63,28.63,0,0,1,9.855,6.17,29.5,29.5,0,0,1,6.3,9.984,4.661,4.661,0,0,1-1.049,5l-9.3,9.271a4.7,4.7,0,0,1-5.148,1.005,30.34,30.34,0,0,1-4.211-2.152,2.343,2.343,0,0,0-2.447,4,35.034,35.034,0,0,0,4.861,2.485,9.362,9.362,0,0,0,10.245-2.011l9.3-9.271A9.352,9.352,0,0,0,59.237,19.438Z" transform="translate(0 0.008)" fill="#0076cf" stroke="#fff" stroke-miterlimit="10" stroke-width="2"/></g></svg>