<svg xmlns="http://www.w3.org/2000/svg" width="57.185" height="61.496" viewBox="0 0 57.185 61.496"><path d="M11.4,60A11.42,11.42,0,0,1,0,48.595V11.4A11.42,11.42,0,0,1,11.4,0H27.077a2.1,2.1,0,1,1,0,4.2H11.4a7.213,7.213,0,0,0-7.2,7.2V48.595a7.213,7.213,0,0,0,7.2,7.2H26.82a2.1,2.1,0,1,1,0,4.2ZM40.034,43.537a2.108,2.108,0,0,1,0-2.976L48.5,32.1H14.6a2.1,2.1,0,1,1,0-4.2H48.484l-8.523-8.523A2.1,2.1,0,0,1,42.936,16.4L55.049,28.5a1.8,1.8,0,0,1,.147.159l.024.024a1.349,1.349,0,0,1,.1.135c.013.013.013.024.024.037a.959.959,0,0,1,.086.147.045.045,0,0,1,.012.024c.024.049.049.111.074.159.012.013.012.013.012.024a.942.942,0,0,1,.062.172c.012,0,.012.013.012.024.013.061.024.111.037.172a.106.106,0,0,1,.013.061.641.641,0,0,1,.024.147,1.86,1.86,0,0,1,0,.417c-.013.049-.013.1-.024.147a.108.108,0,0,0-.013.061.83.83,0,0,1-.037.171c-.012,0-.012.013-.012.025-.025.061-.037.122-.062.171-.012.013-.012.013-.012.024-.024.061-.049.111-.074.159a.045.045,0,0,0-.012.024c-.025.049-.061.1-.086.148-.012.012-.012.024-.024.037a.906.906,0,0,1-.1.134l-.024.024c-.049.049-.1.1-.159.172L43,43.537a2.1,2.1,0,0,1-2.964,0Z" transform="translate(0.75 0.75)" fill="#0076cf" stroke="#fff" stroke-miterlimit="10" stroke-width="1.5"/></svg>