<svg xmlns="http://www.w3.org/2000/svg" xmlns:xlink="http://www.w3.org/1999/xlink" width="153.007" height="89.754" viewBox="0 0 153.007 89.754"><defs><clipPath id="a"><path d="M81.629,89.754H23.79c-13.118,0-17.471-6.4-20.813-11.264C-1.466,70.42-2.261,59.063,10.023,47.9,34.6,25.553,61.187,0,61.187,0S37.66,60.151,87.754,89.754Zm45.334,0-4.116-2.429c-.116-.067-.221-.147-.337-.218h26.347c1.33.9,2.7,1.794,4.15,2.647Zm-33.653,0-4.116-2.429c-.452-.268-.873-.553-1.314-.825H116.4c1.588,1.119,3.243,2.212,5.014,3.254ZM82.386,82.768a64.429,64.429,0,0,1-5.667-4.834h29.7a64.99,64.99,0,0,0,5.159,4.834Zm31.727-1.543c-1.066-.876-2.043-1.777-3.011-2.683h27.526c.882.906,1.794,1.8,2.763,2.683ZM73.139,74.2a57.543,57.543,0,0,1-3.78-4.834h30.3c1.065,1.633,2.207,3.249,3.48,4.834Zm32.51-1.543c-.717-.884-1.412-1.779-2.062-2.684h28.049c.607.9,1.263,1.8,1.932,2.684ZM66.942,65.641q-1.373-2.348-2.528-4.837H95.02c.717,1.625,1.514,3.241,2.4,4.837ZM99.9,64.1c-.486-.89-.927-1.786-1.356-2.684H126.9c.408.9.828,1.794,1.286,2.684ZM62.837,57.074q-.9-2.356-1.61-4.83H91.955c.446,1.61.98,3.226,1.57,4.83Zm33.238-1.539c-.313-.89-.579-1.788-.851-2.684h28.51c.26.9.526,1.791.828,2.684Zm-35.8-7.021c-.359-1.582-.661-3.19-.91-4.837h30.8c.238,1.6.514,3.215.868,4.837Zm33.47-1.543c-.181-.9-.354-1.794-.5-2.684h28.609c.139.89.311,1.788.481,2.684ZM58.9,39.947q-.234-2.372-.325-4.83H89.4q.081,2.385.314,4.83Zm33.641-1.539c-.071-.9-.139-1.8-.181-2.684H121.02c.04.89.087,1.783.161,2.684ZM58.511,31.386c0-.135-.005-.276,0-.412,1.738-1.5,3.438-2.975,5.119-4.422H89.5c-.093,1.571-.144,3.187-.156,4.834ZM92.3,29.844c.006-.255,0-.52.012-.774.746-.647,1.478-1.274,2.212-1.91H121.06q-.077,1.326-.1,2.684ZM67.968,22.821q2.92-2.51,5.645-4.831H90.4c-.232,1.543-.436,3.158-.6,4.831Zm33.393-1.54q1.6-1.369,3.134-2.684h17.419q-.19,1.309-.353,2.684ZM77.982,14.26c2.042-1.737,3.947-3.359,5.689-4.837h8.388c-.353,1.475-.7,3.093-1.029,4.837Zm33.41-1.543c1.1-.941,2.147-1.825,3.162-2.684h8.955c-.2.851-.392,1.751-.579,2.684ZM88.078,5.7C92.308,2.124,94.845,0,94.845,0s-.823,2.1-1.825,5.7ZM121.5,4.155C124.614,1.534,126.438,0,126.438,0s-.584,1.508-1.378,4.155Z" transform="translate(0 0.014)" fill="#2172ba"/></clipPath><pattern id="b" width="1" height="1" patternTransform="matrix(-1, 0, 0, 1, 358.675, 0)" viewBox="0 0 179.337 119.412"><image preserveAspectRatio="none" width="179.337" height="119.412" xlink:href="logo-image.png"/></pattern></defs><g transform="translate(0 -0.015)"><path d="M81.629,89.754H23.79c-13.118,0-17.471-6.4-20.813-11.264C-1.466,70.42-2.261,59.063,10.023,47.9,34.6,25.553,61.187,0,61.187,0S37.66,60.151,87.754,89.754Zm45.334,0-4.116-2.429c-.116-.067-.221-.147-.337-.218h26.347c1.33.9,2.7,1.794,4.15,2.647Zm-33.653,0-4.116-2.429c-.452-.268-.873-.553-1.314-.825H116.4c1.588,1.119,3.243,2.212,5.014,3.254ZM82.386,82.768a64.429,64.429,0,0,1-5.667-4.834h29.7a64.99,64.99,0,0,0,5.159,4.834Zm31.727-1.543c-1.066-.876-2.043-1.777-3.011-2.683h27.526c.882.906,1.794,1.8,2.763,2.683ZM73.139,74.2a57.543,57.543,0,0,1-3.78-4.834h30.3c1.065,1.633,2.207,3.249,3.48,4.834Zm32.51-1.543c-.717-.884-1.412-1.779-2.062-2.684h28.049c.607.9,1.263,1.8,1.932,2.684ZM66.942,65.641q-1.373-2.348-2.528-4.837H95.02c.717,1.625,1.514,3.241,2.4,4.837ZM99.9,64.1c-.486-.89-.927-1.786-1.356-2.684H126.9c.408.9.828,1.794,1.286,2.684ZM62.837,57.074q-.9-2.356-1.61-4.83H91.955c.446,1.61.98,3.226,1.57,4.83Zm33.238-1.539c-.313-.89-.579-1.788-.851-2.684h28.51c.26.9.526,1.791.828,2.684Zm-35.8-7.021c-.359-1.582-.661-3.19-.91-4.837h30.8c.238,1.6.514,3.215.868,4.837Zm33.47-1.543c-.181-.9-.354-1.794-.5-2.684h28.609c.139.89.311,1.788.481,2.684ZM58.9,39.947q-.234-2.372-.325-4.83H89.4q.081,2.385.314,4.83Zm33.641-1.539c-.071-.9-.139-1.8-.181-2.684H121.02c.04.89.087,1.783.161,2.684ZM58.511,31.386c0-.135-.005-.276,0-.412,1.738-1.5,3.438-2.975,5.119-4.422H89.5c-.093,1.571-.144,3.187-.156,4.834ZM92.3,29.844c.006-.255,0-.52.012-.774.746-.647,1.478-1.274,2.212-1.91H121.06q-.077,1.326-.1,2.684ZM67.968,22.821q2.92-2.51,5.645-4.831H90.4c-.232,1.543-.436,3.158-.6,4.831Zm33.393-1.54q1.6-1.369,3.134-2.684h17.419q-.19,1.309-.353,2.684ZM77.982,14.26c2.042-1.737,3.947-3.359,5.689-4.837h8.388c-.353,1.475-.7,3.093-1.029,4.837Zm33.41-1.543c1.1-.941,2.147-1.825,3.162-2.684h8.955c-.2.851-.392,1.751-.579,2.684ZM88.078,5.7C92.308,2.124,94.845,0,94.845,0s-.823,2.1-1.825,5.7ZM121.5,4.155C124.614,1.534,126.438,0,126.438,0s-.584,1.508-1.378,4.155Z" transform="translate(0 0.014)" fill="#2172ba"/><g clip-path="url(#a)"><rect width="179.337" height="119.412" transform="translate(-26.244)" opacity="0.25" fill="url(#b)"/></g></g></svg>