<svg xmlns="http://www.w3.org/2000/svg" xmlns:xlink="http://www.w3.org/1999/xlink" width="135.694" height="19.623" viewBox="0 0 135.694 19.623">
  <defs>
    <clipPath id="clip-path">
      <path id="Clip_8" data-name="Clip 8" d="M0,0H18V18.689H0Z" transform="translate(0.342 0.61)" fill="none"/>
    </clipPath>
    <clipPath id="clip-path-2">
      <path id="Clip_53" data-name="Clip 53" d="M0,0H6.668V.579H0Z" transform="translate(0.226 0.039)" fill="none"/>
    </clipPath>
    <clipPath id="clip-path-3">
      <path id="Clip_58" data-name="Clip 58" d="M0,0H19.186V19.623H0Z" transform="translate(0 0.142)" fill="none"/>
    </clipPath>
  </defs>
  <g id="logo" transform="translate(0 -0.618)">
    <path id="Fill_1" data-name="Fill 1" d="M18.088,3.522,15.584,6a7.406,7.406,0,0,0-5.543-2.52A6.314,6.314,0,0,0,5.42,5.311,5.991,5.991,0,0,0,3.557,9.757a6.159,6.159,0,0,0,1.932,4.582,6.575,6.575,0,0,0,4.771,1.884,5.838,5.838,0,0,0,3.106-.776,5.43,5.43,0,0,0,2.041-2.428H10V9.682h9.4l.024.783a9.124,9.124,0,0,1-1.272,4.652,8.827,8.827,0,0,1-3.29,3.351,9.341,9.341,0,0,1-4.737,1.156,10.522,10.522,0,0,1-5.188-1.262,9.217,9.217,0,0,1-3.608-3.6A10.037,10.037,0,0,1,0,9.719,9.367,9.367,0,0,1,2.453,3.266,9.657,9.657,0,0,1,10.02,0a11.657,11.657,0,0,1,4.563.9,10.512,10.512,0,0,1,3.505,2.623" transform="translate(36.439 0.618)" fill="#2072ba"/>
    <path id="Fill_3" data-name="Fill 3" d="M0,0H3.553V15.3H13.932V18.69H0Z" transform="translate(59.072 1.086)" fill="#2072ba"/>
    <path id="Fill_5" data-name="Fill 5" d="M0,0H3.5L6.2,11.932,9.538,0H12.5l3.382,11.932L18.553,0h3.5L17.845,18.69H14.432L10.988,6.608,7.609,18.69H4.233Z" transform="translate(96.847 1.086)" fill="#2072ba"/>
    <g id="Group_9" data-name="Group 9" transform="translate(117.353 0.476)">
      <path id="Clip_8-2" data-name="Clip 8" d="M0,0H18V18.689H0Z" transform="translate(0.342 0.61)" fill="none"/>
      <g id="Group_9-2" data-name="Group 9" clip-path="url(#clip-path)">
        <path id="Fill_7" data-name="Fill 7" d="M3.7,18.69H0L7.206,0h3.607L18,18.688H14.3l-1.461-3.85H5.216L3.7,18.689ZM9.032,4.959,6.525,11.371h5Z" transform="translate(0.342 0.61)" fill="#2072ba"/>
      </g>
    </g>
    <path id="Fill_10" data-name="Fill 10" d="M14.312,0V9.336c0,3.314-2.407,6.005-5.369,6.005S3.577,12.65,3.577,9.336V0H0V9.336c0,5.284,4.012,9.579,8.944,9.579s8.946-4.3,8.946-9.579V0Z" transform="translate(75.295 1.086)" fill="#2072ba"/>
    <path id="Fill_12" data-name="Fill 12" d="M0,1.056H4.774C4.81.691,4.854.337,4.9,0H1.234Q.638.507,0,1.056" transform="translate(14.86 4.551)" fill="#2072ba"/>
    <path id="Fill_14" data-name="Fill 14" d="M1.244,0,0,1.057H2.853C2.925.676,3,.322,3.078,0Z" transform="translate(17.05 2.678)" fill="#2072ba"/>
    <path id="Fill_16" data-name="Fill 16" d="M1.479,0S.925.464,0,1.245H1.08C1.3.459,1.479,0,1.479,0" transform="translate(19.257 0.618)" fill="#2072ba"/>
    <path id="Fill_18" data-name="Fill 18" d="M0,.967c0,.03,0,.061,0,.09H6.742c0-.36.014-.713.034-1.057H1.12C.752.316.38.638,0,.967" transform="translate(12.792 6.423)" fill="#2072ba"/>
    <path id="Fill_20" data-name="Fill 20" d="M.071,1.056H6.807Q6.757.522,6.739,0H0Q.019.537.071,1.056" transform="translate(12.807 8.295)" fill="#2072ba"/>
    <path id="Fill_22" data-name="Fill 22" d="M.352,1.056H7.062C6.932.705,6.816.352,6.718,0H0Q.156.54.352,1.056" transform="translate(13.386 12.04)" fill="#2072ba"/>
    <path id="Fill_24" data-name="Fill 24" d="M1.239,1.057H7.622A14.275,14.275,0,0,1,6.494,0H0A14.073,14.073,0,0,0,1.239,1.057" transform="translate(16.773 17.657)" fill="#2072ba"/>
    <path id="Fill_26" data-name="Fill 26" d="M.826,1.057H7.385C7.107.71,6.857.357,6.624,0H0A12.583,12.583,0,0,0,.826,1.057" transform="translate(15.164 15.784)" fill="#2072ba"/>
    <path id="Fill_28" data-name="Fill 28" d="M.2,1.057H6.924C6.847.7,6.787.35,6.735,0H0C.054.36.12.712.2,1.057" transform="translate(12.978 10.167)" fill="#2072ba"/>
    <path id="Fill_30" data-name="Fill 30" d="M.553,1.057H7.215Q6.926.534,6.692,0H0Q.252.544.553,1.057" transform="translate(14.083 13.912)" fill="#2072ba"/>
    <path id="Fill_32" data-name="Fill 32" d="M.287.18l.9.531H7.331C6.944.484,6.582.245,6.235,0H0C.1.059.188.122.287.18" transform="translate(19.214 19.529)" fill="#2072ba"/>
    <path id="Fill_34" data-name="Fill 34" d="M0,.587H4.416c.024-.2.049-.4.077-.587H.685L0,.587" transform="translate(22.161 4.684)" fill="#2072ba"/>
    <path id="Fill_36" data-name="Fill 36" d="M.451.587h6.1C6.409.393,6.265.2,6.133,0H0C.142.2.294.393.451.587" transform="translate(22.647 15.917)" fill="#2072ba"/>
    <path id="Fill_38" data-name="Fill 38" d="M.186.587H6.414C6.348.392,6.29.2,6.233,0H0C.059.2.117.392.186.587" transform="translate(20.819 12.173)" fill="#2072ba"/>
    <path id="Fill_40" data-name="Fill 40" d="M0,.418C0,.473,0,.531,0,.587H6.266Q6.273.29,6.289,0H.486L0,.418" transform="translate(20.179 6.556)" fill="#2072ba"/>
    <path id="Fill_42" data-name="Fill 42" d="M.11.587H6.36C6.323.391,6.285.195,6.255,0H0C.033.195.07.391.11.587" transform="translate(20.385 10.301)" fill="#2072ba"/>
    <path id="Fill_44" data-name="Fill 44" d="M.691,0C.469.188.241.381,0,.587H2.522c.041-.2.083-.4.127-.587Z" transform="translate(24.354 2.811)" fill="#2072ba"/>
    <path id="Fill_46" data-name="Fill 46" d="M.04.587H6.3C6.285.39,6.274.195,6.265,0H0C.009.194.024.39.04.587" transform="translate(20.194 8.428)" fill="#2072ba"/>
    <path id="Fill_48" data-name="Fill 48" d="M1.08,0,0,.909H.778C.952.33,1.08,0,1.08,0" transform="translate(26.564 0.618)" fill="#2072ba"/>
    <path id="Fill_50" data-name="Fill 50" d="M.3.587H6.48C6.38.392,6.288.2,6.2,0H0C.094.2.19.392.3.587" transform="translate(21.545 14.045)" fill="#2072ba"/>
    <g id="Group_54" data-name="Group 54" transform="translate(26.559 19.623)">
      <path id="Clip_53-2" data-name="Clip 53" d="M0,0H6.668V.579H0Z" transform="translate(0.226 0.039)" fill="none"/>
      <g id="Group_54-2" data-name="Group 54" clip-path="url(#clip-path-2)">
        <path id="Fill_52" data-name="Fill 52" d="M.073.048l.9.531H6.668C6.351.392,6.051.2,5.76,0H0C.025.015.048.033.073.048" transform="translate(0.226 0.039)" fill="#2072ba"/>
      </g>
    </g>
    <path id="Fill_55" data-name="Fill 55" d="M.658.587H6.622C6.411.394,6.211.2,6.018,0H0C.212.2.426.4.658.587" transform="translate(24.29 17.79)" fill="#2072ba"/>
    <g id="Group_59" data-name="Group 59" transform="translate(0 0.476)">
      <path id="Clip_58-2" data-name="Clip 58" d="M0,0H19.186V19.623H0Z" transform="translate(0 0.142)" fill="none"/>
      <g id="Group_59-2" data-name="Group 59" clip-path="url(#clip-path-3)">
        <path id="Fill_57" data-name="Fill 57" d="M13.378,0S7.565,5.587,2.191,10.472C-.494,12.913-.321,15.4.651,17.161A4.784,4.784,0,0,0,5.2,19.623H19.186C8.234,13.151,13.378,0,13.378,0" transform="translate(0 0.142)" fill="#2072ba"/>
      </g>
    </g>
  </g>
</svg>
