<svg xmlns="http://www.w3.org/2000/svg" width="868" height="10" viewBox="0 0 868 10"><rect width="10" height="10" fill="#c2c7ce"/><rect width="10" height="10" transform="translate(385)" fill="#c2c7ce"/><rect width="10" height="10" transform="translate(66)" fill="#ccd1d8"/><rect width="10" height="10" transform="translate(451)" fill="#ccd1d8"/><rect width="10" height="10" transform="translate(253)" fill="#ccd1d8"/><rect width="10" height="10" transform="translate(638)" fill="#ccd1d8"/><rect width="10" height="10" transform="translate(803)" fill="#ccd1d8"/><rect width="10" height="10" transform="translate(132)" fill="#c5cbd2"/><rect width="10" height="10" transform="translate(517)" fill="#c5cbd2"/><rect width="10" height="10" transform="translate(319)" fill="#c5cbd2"/><rect width="10" height="10" transform="translate(704)" fill="#c5cbd2"/><rect width="10" height="10" transform="translate(33)" fill="#caced6"/><rect width="10" height="10" transform="translate(418)" fill="#caced6"/><rect width="10" height="10" transform="translate(220)" fill="#caced6"/><rect width="10" height="10" transform="translate(605)" fill="#caced6"/><rect width="10" height="10" transform="translate(770)" fill="#caced6"/><rect width="10" height="10" transform="translate(99)" fill="#c1c7cf"/><rect width="10" height="10" transform="translate(484)" fill="#c1c7cf"/><rect width="10" height="10" transform="translate(286)" fill="#c1c7cf"/><rect width="10" height="10" transform="translate(671)" fill="#c1c7cf"/><rect width="10" height="10" transform="translate(836)" fill="#c1c7cf"/><rect width="10" height="10" transform="translate(165)" fill="#c7ccd4"/><rect width="10" height="10" transform="translate(550)" fill="#c7ccd4"/><rect width="10" height="10" transform="translate(352)" fill="#c7ccd4"/><rect width="10" height="10" transform="translate(11)" fill="#c9cfd6"/><rect width="10" height="10" transform="translate(396)" fill="#c9cfd6"/><rect width="10" height="10" transform="translate(198)" fill="#c9cfd6"/><rect width="10" height="10" transform="translate(583)" fill="#c9cfd6"/><rect width="10" height="10" transform="translate(748)" fill="#c9cfd6"/><rect width="10" height="10" transform="translate(77)" fill="#c8cfd5"/><rect width="10" height="10" transform="translate(462)" fill="#c8cfd5"/><rect width="10" height="10" transform="translate(264)" fill="#c8cfd5"/><rect width="10" height="10" transform="translate(649)" fill="#c8cfd5"/><rect width="10" height="10" transform="translate(814)" fill="#c8cfd5"/><rect width="10" height="10" transform="translate(143)" fill="#d1d7dd"/><rect width="10" height="10" transform="translate(528)" fill="#d1d7dd"/><rect width="10" height="10" transform="translate(330)" fill="#d1d7dd"/><rect width="10" height="10" transform="translate(715)" fill="#d1d7dd"/><rect width="10" height="10" transform="translate(44)" fill="#ced4da"/><rect width="10" height="10" transform="translate(429)" fill="#ced4da"/><rect width="10" height="10" transform="translate(231)" fill="#ced4da"/><rect width="10" height="10" transform="translate(616)" fill="#ced4da"/><rect width="10" height="10" transform="translate(781)" fill="#ced4da"/><rect width="10" height="10" transform="translate(110)" fill="#c7ced5"/><rect width="10" height="10" transform="translate(495)" fill="#c7ced5"/><rect width="10" height="10" transform="translate(297)" fill="#c7ced5"/><rect width="10" height="10" transform="translate(682)" fill="#c7ced5"/><rect width="10" height="10" transform="translate(847)" fill="#c7ced5"/><rect width="10" height="10" transform="translate(176)" fill="#d3d9e0"/><rect width="10" height="10" transform="translate(561)" fill="#d3d9e0"/><rect width="10" height="10" transform="translate(363)" fill="#d3d9e0"/><rect width="10" height="10" transform="translate(22)" fill="#c4c9d1"/><rect width="10" height="10" transform="translate(407)" fill="#c4c9d1"/><rect width="10" height="10" transform="translate(209)" fill="#c4c9d1"/><rect width="10" height="10" transform="translate(594)" fill="#c4c9d1"/><rect width="10" height="10" transform="translate(759)" fill="#c4c9d1"/><rect width="10" height="10" transform="translate(88)" fill="#ced4da"/><rect width="10" height="10" transform="translate(473)" fill="#ced4da"/><rect width="10" height="10" transform="translate(275)" fill="#ced4da"/><rect width="10" height="10" transform="translate(660)" fill="#ced4da"/><rect width="10" height="10" transform="translate(825)" fill="#ced4da"/><rect width="10" height="10" transform="translate(154)" fill="#cdd3d9"/><rect width="10" height="10" transform="translate(539)" fill="#cdd3d9"/><rect width="10" height="10" transform="translate(341)" fill="#cdd3d9"/><rect width="10" height="10" transform="translate(726)" fill="#cdd3d9"/><rect width="10" height="10" transform="translate(55)" fill="#c7cdd4"/><rect width="10" height="10" transform="translate(440)" fill="#c7cdd4"/><rect width="10" height="10" transform="translate(242)" fill="#c7cdd4"/><rect width="10" height="10" transform="translate(627)" fill="#c7cdd4"/><rect width="10" height="10" transform="translate(792)" fill="#c7cdd4"/><rect width="10" height="10" transform="translate(121)" fill="#d0d7dd"/><rect width="10" height="10" transform="translate(506)" fill="#d0d7dd"/><rect width="10" height="10" transform="translate(308)" fill="#d0d7dd"/><rect width="10" height="10" transform="translate(693)" fill="#d0d7dd"/><rect width="10" height="10" transform="translate(858)" fill="#d0d7dd"/><rect width="10" height="10" transform="translate(187)" fill="#c4c9d1"/><rect width="10" height="10" transform="translate(572)" fill="#c4c9d1"/><rect width="10" height="10" transform="translate(737)" fill="#c4c9d1"/><rect width="10" height="10" transform="translate(374)" fill="#c4c9d1"/></svg>