<svg width="13" height="14" viewBox="0 0 13 14" fill="none" xmlns="http://www.w3.org/2000/svg">
<path fill-rule="evenodd" clip-rule="evenodd" d="M3.9613 3.94622C4.11402 3.79308 4.31399 3.71674 4.51369 3.71674C4.71376 3.71674 4.91346 3.79308 5.06609 3.94622L6.04408 4.92685V0.783325C6.04408 0.350726 6.39383 0 6.82523 0C7.2569 0 7.60674 0.350726 7.60674 0.783325V4.97987L8.63751 3.94622C8.79013 3.79308 8.98983 3.71674 9.1899 3.71674C9.38951 3.71674 9.58958 3.79308 9.7422 3.94622C9.93004 4.13421 10.0012 4.39459 9.95808 4.63836L9.95772 4.63873C9.9545 4.65643 9.94907 4.6733 9.94448 4.69064C9.93795 4.71765 9.93078 4.74467 9.92075 4.77057C9.91432 4.78818 9.90705 4.80552 9.89915 4.82276C9.88701 4.85014 9.87258 4.87614 9.85713 4.90242C9.84895 4.91606 9.84141 4.9298 9.8324 4.94308C9.80546 4.98162 9.7764 5.01905 9.74193 5.05363L7.40989 7.39217C7.25727 7.54522 7.0572 7.62119 6.8575 7.62119H6.84637C6.6464 7.62119 6.4467 7.54522 6.29407 7.39217L3.96167 5.05363C3.92756 5.01905 3.8985 4.98199 3.87193 4.94308C3.86255 4.9298 3.85502 4.9157 3.84674 4.90205C3.83129 4.87614 3.81732 4.85014 3.80509 4.82313C3.79718 4.80552 3.78964 4.78782 3.78321 4.77021C3.77383 4.7443 3.76666 4.71839 3.75985 4.69202C3.75553 4.67404 3.74947 4.65643 3.74625 4.63799C3.70239 4.39459 3.77346 4.13421 3.9613 3.94622ZM12.8324 11.6142C12.8324 12.6716 11.7984 13.5 10.4781 13.5H3.18668C1.86675 13.5 0.832397 12.6716 0.832397 11.6142V6.5242C0.832397 5.63061 1.57226 4.90242 2.59797 4.69783C2.64257 5.139 2.83537 5.54818 3.1522 5.86581L3.4546 6.16905H3.18668C2.65222 6.16905 2.35883 6.43588 2.35883 6.5242V11.6142C2.35883 11.7028 2.65222 11.9697 3.18668 11.9697H10.4785C11.0129 11.9697 11.3063 11.7025 11.3063 11.6142V6.5242C11.3063 6.43588 11.0126 6.16905 10.4785 6.16905H10.249L10.5514 5.86581C10.8664 5.54993 11.0585 5.1437 11.1041 4.70576C12.1105 4.9204 12.8324 5.64176 12.8324 6.52448V11.6142Z" fill="#2A2C30"/>
</svg>
