<svg id="Capa_1" enable-background="new 0 0 511.999 511.999" height="512" viewBox="0 0 511.999 511.999" width="512" xmlns="http://www.w3.org/2000/svg"><g><g><path d="m343.164 511.999h-304.322c13.021-86.472 51.581-117.697 59.369-123.198h185.585c7.788 5.501 46.347 36.725 59.368 123.198z" fill="#6bbef6"/><path d="m134.751 388.801c-4.718 5.501-28.082 36.726-35.984 123.198h-59.925c13.021-86.472 51.581-117.697 59.369-123.198z" fill="#528ecb"/><ellipse cx="191.003" cy="394.185" fill="#f1b986" rx="74.425" ry="49.269"/><path d="m360.587 219.723-228.4.978-113.417.477c-8.646-78.942-33.741-181.462 58.457-199.733 22.136-4.39 42.07-6.995 59.986-8.218 120.009-8.145 149.861 46.044 149.861 46.044s21.72-19.078 45.335-17.134c8.536.697 17.329 4.158 25.425 12.254 42.707 42.706 2.753 165.332 2.753 165.332z" fill="#617881"/><path d="m332.41 42.137c-28.055 19.274-46.411 76.949-54.911 109.822-8.316-33.485 1.847-70.345 9.576-92.688 0 0 21.72-19.078 45.335-17.134z" fill="#475959"/><path d="m119.542 135.62 12.645 85.081-113.417.477c-8.646-78.942-33.741-181.462 58.457-199.733 22.136-4.39 42.07-6.995 59.986-8.218 0 .012-.012.012-.012.012-46.166 28.397-31.907 78.978-17.659 122.381z" fill="#475959"/><path d="m345.474 283.504h.216c18.576 0 33.627-15.064 33.627-33.627 0-18.576-15.051-33.64-33.627-33.64-.242 0-.483 0-.725.013h-307.924c-.242-.013-.483-.013-.725-.013-18.576 0-33.627 15.064-33.627 33.64 0 18.563 15.051 33.627 33.627 33.627h.216" fill="#f1b986"/><path d="m345.801 257.757c0 17.708-.452 35.429-1.357 53.138-2.262 44.271-37.692 79.517-81.987 81.608-30.965 1.467-61.943 1.969-92.908 1.529h-.012c-16.669-.232-33.326-.746-49.994-1.529-44.283-2.091-79.712-37.337-81.987-81.608-1.614-31.552-1.785-63.092-.526-94.645h.012c17.268-6.396 27.541-26.281 33.644-48.392 6.262-22.686 27.994-35.087 48.857-32.237 8.133 1.113 16.143 4.549 23.041 10.591 13.856 12.132 31.137 18.198 48.417 18.198s34.573-6.066 48.429-18.198c8.585-7.521 18.87-10.994 28.996-10.994 18.895 0 37.227 12.107 42.901 32.641 6.09 22.111 16.363 41.996 33.644 48.392.561 13.843.83 27.674.83 41.506z" fill="#f1d0a5"/><path d="m169.536 394.031c-16.669-.232-33.326-.746-49.994-1.529-44.283-2.091-79.712-37.337-81.987-81.608-1.614-31.552-1.785-63.092-.526-94.645h.012c17.268-6.396 27.541-26.281 33.644-48.392 6.262-22.686 27.994-35.087 48.857-32.237-15.837 141.411 0 256.858 49.994 258.411z" fill="#f1b986"/><path d="m222.473 325.593c-2.891 0-5.664-1.63-6.986-4.416-4.464-9.407-14.075-15.486-24.484-15.486s-20.02 6.079-24.484 15.485c-1.829 3.856-6.437 5.497-10.293 3.668-3.855-1.829-5.498-6.438-3.668-10.293 7.009-14.77 22.099-24.313 38.445-24.313 16.345 0 31.435 9.543 38.445 24.313 1.829 3.855.187 8.463-3.668 10.293-1.069.509-2.197.749-3.307.749z" fill="#da4a54"/><g fill="#475959"><path d="m119.401 217.289c-7.685 0-13.937 9.32-13.937 20.776 0 11.455 6.252 20.775 13.937 20.775s13.936-9.32 13.936-20.775c.001-11.456-6.251-20.776-13.936-20.776z"/><path d="m262.606 217.289c-7.685 0-13.936 9.32-13.936 20.776 0 11.455 6.252 20.775 13.936 20.775s13.936-9.32 13.936-20.775c0-11.456-6.252-20.776-13.936-20.776z"/></g></g><circle cx="412.819" cy="96.496" fill="#da4a54" r="96.491"/><path d="m428.956 191.632c-5.244.886-10.642 1.349-16.143 1.349-53.291 0-96.486-43.195-96.486-96.486s43.196-96.495 96.486-96.495c5.501 0 10.899.464 16.143 1.35-45.616 7.675-80.353 47.357-80.353 95.146 0 47.79 34.737 87.461 80.353 95.136z" fill="#c32430"/><path d="m461.464 104.222h-97.291c-4.268 0-7.726-3.459-7.726-7.726s3.459-7.726 7.726-7.726h97.291c4.268 0 7.726 3.459 7.726 7.726.001 4.267-3.458 7.726-7.726 7.726z" fill="#fff"/></g></svg>