<svg width="20" height="20" viewBox="0 0 20 20" fill="none" xmlns="http://www.w3.org/2000/svg">
<path fill-rule="evenodd" clip-rule="evenodd" d="M9.84175 19.8588C15.2772 19.8588 19.6835 15.4525 19.6835 10.017C19.6835 4.58157 15.2772 0.175262 9.84175 0.175262C4.4063 0.175262 0 4.58157 0 10.017C0 15.4525 4.4063 19.8588 9.84175 19.8588Z" fill="#007AB9"/>
<path fill-rule="evenodd" clip-rule="evenodd" d="M6.08001 4.38052C5.27527 4.38052 4.74878 4.90877 4.74878 5.6028C4.74878 6.2821 5.26001 6.82561 6.04913 6.82561H6.06439C6.88492 6.82561 7.3951 6.2821 7.3951 5.6028C7.37948 4.90877 6.88492 4.38052 6.08001 4.38052ZM15.7221 10.8089V14.8665H13.3697V11.0809C13.3697 10.1303 13.03 9.48123 12.1783 9.48123C11.5283 9.48123 11.1421 9.91824 10.9716 10.3414C10.9097 10.4926 10.8937 10.7026 10.8937 10.9147V14.8663H8.54106C8.54106 14.8663 8.57264 8.45473 8.54106 7.79105H10.8939V8.79368C10.8916 8.79738 10.889 8.80105 10.8864 8.80467C10.8834 8.80878 10.8805 8.81283 10.8783 8.81684H10.8939V8.79368C11.2065 8.31263 11.764 7.62491 13.014 7.62491C14.5618 7.62491 15.7221 8.63614 15.7221 10.8089ZM7.24036 14.8665H4.8886V7.79105H7.24036V14.8665Z" fill="#F1F2F2"/>
</svg>
