<svg width="20" height="20" viewBox="0 0 20 20" fill="none" xmlns="http://www.w3.org/2000/svg">
<path fill-rule="evenodd" clip-rule="evenodd" d="M5.94768 0H14.0173C17.2968 0 19.965 2.66812 19.965 5.94768V14.0173C19.965 17.2969 17.2969 19.965 14.0173 19.965H5.94768C2.66812 19.965 0 17.2969 0 14.0173V5.94768C0 2.66812 2.66812 0 5.94768 0ZM14.0173 17.9565C16.1929 17.9565 17.9565 16.1929 17.9565 14.0173V5.94768C17.9565 3.7721 16.1929 2.00848 14.0173 2.00848H5.94768C3.77214 2.00848 2.00848 3.7721 2.00848 5.94768V14.0173C2.00848 16.1929 3.77214 17.9565 5.94768 17.9565H14.0173Z" fill="url(#paint0_linear)"/>
<path fill-rule="evenodd" clip-rule="evenodd" d="M4.81885 9.98247C4.81885 7.13526 7.13526 4.81885 9.98251 4.81885C12.8298 4.81885 15.1462 7.13522 15.1462 9.98247C15.1462 12.8297 12.8298 15.1461 9.98251 15.1461C7.13526 15.1461 4.81885 12.8297 4.81885 9.98247ZM6.82733 9.98251C6.82733 11.7251 8.23993 13.1377 9.98251 13.1377C11.725 13.1377 13.1377 11.725 13.1377 9.98251C13.1377 8.23993 11.7251 6.82733 9.98251 6.82733C8.23997 6.82733 6.82733 8.23993 6.82733 9.98251Z" fill="url(#paint1_linear)"/>
<path fill-rule="evenodd" clip-rule="evenodd" d="M15.1563 6.09494C15.8396 6.09494 16.3936 5.54097 16.3936 4.85762C16.3936 4.17427 15.8396 3.6203 15.1563 3.6203C14.4729 3.6203 13.9189 4.17427 13.9189 4.85762C13.9189 5.54097 14.4729 6.09494 15.1563 6.09494Z" fill="url(#paint2_linear)"/>
<defs>
<linearGradient id="paint0_linear" x1="19.8584" y1="19.9069" x2="19.8584" y2="0.155072" gradientUnits="userSpaceOnUse">
<stop stop-color="#E09B3D"/>
<stop offset="0.3" stop-color="#C74C4D"/>
<stop offset="0.6" stop-color="#C21975"/>
<stop offset="1" stop-color="#7024C4"/>
</linearGradient>
<linearGradient id="paint1_linear" x1="19.8584" y1="19.9069" x2="19.8584" y2="0.155079" gradientUnits="userSpaceOnUse">
<stop stop-color="#E09B3D"/>
<stop offset="0.3" stop-color="#C74C4D"/>
<stop offset="0.6" stop-color="#C21975"/>
<stop offset="1" stop-color="#7024C4"/>
</linearGradient>
<linearGradient id="paint2_linear" x1="25.0322" y1="19.9069" x2="25.0322" y2="0.155083" gradientUnits="userSpaceOnUse">
<stop stop-color="#E09B3D"/>
<stop offset="0.3" stop-color="#C74C4D"/>
<stop offset="0.6" stop-color="#C21975"/>
<stop offset="1" stop-color="#7024C4"/>
</linearGradient>
</defs>
</svg>
