<svg width="20" height="20" viewBox="0 0 20 20" fill="none" xmlns="http://www.w3.org/2000/svg">
<path fill-rule="evenodd" clip-rule="evenodd" d="M9.92909 19.8577C15.4126 19.8577 19.8579 15.4124 19.8579 9.92885C19.8579 4.4453 15.4126 0 9.92909 0C4.44554 0 0.000244141 4.4453 0.000244141 9.92885C0.000244141 15.4124 4.44554 19.8577 9.92909 19.8577Z" fill="#55ACEE"/>
<path fill-rule="evenodd" clip-rule="evenodd" d="M16.0109 7.13556C15.5854 7.32424 15.1277 7.45185 14.6477 7.50884C15.1378 7.21521 15.5139 6.75061 15.6914 6.1961C15.2329 6.46813 14.7247 6.66548 14.1844 6.77185C13.7514 6.31079 13.1346 6.02264 12.4516 6.02264C11.1412 6.02264 10.0783 7.08548 10.0783 8.39592C10.0783 8.58194 10.0994 8.763 10.1401 8.9368C8.16772 8.83787 6.41887 7.89309 5.24825 6.4568C5.044 6.80725 4.92683 7.21521 4.92683 7.65008C4.92683 8.47326 5.34612 9.19999 5.98258 9.62548C5.59373 9.61326 5.22754 9.50654 4.90772 9.32831C4.90754 9.3384 4.90754 9.34848 4.90754 9.3584C4.90754 10.5083 5.72595 11.4674 6.81143 11.6853C6.6125 11.7398 6.40241 11.7687 6.1863 11.7687C6.03303 11.7687 5.88453 11.754 5.73975 11.7264C6.0417 12.669 6.91798 13.3552 7.95674 13.3745C7.14435 14.0111 6.12117 14.3904 5.00896 14.3904C4.81781 14.3904 4.62842 14.3793 4.44312 14.3572C5.49285 15.0308 6.74064 15.4235 8.08081 15.4235C12.4461 15.4235 14.8334 11.8072 14.8334 8.67079C14.8334 8.56795 14.8311 8.46548 14.8265 8.36388C15.2905 8.02937 15.6928 7.61149 16.0109 7.13556Z" fill="#F1F2F2"/>
</svg>
