<svg width="15" height="15" viewBox="0 0 15 15" fill="none" xmlns="http://www.w3.org/2000/svg">
<path fill-rule="evenodd" clip-rule="evenodd" d="M1.7071 0.292894C1.31657 -0.0976306 0.68341 -0.0976306 0.292886 0.292894C-0.0976387 0.683418 -0.0976387 1.31658 0.292886 1.70711L5.87884 7.29306L0.292886 12.879C-0.0976387 13.2695 -0.0976387 13.9027 0.292886 14.2932C0.68341 14.6838 1.31657 14.6838 1.7071 14.2932L7.29305 8.70727L12.879 14.2932C13.2695 14.6837 13.9027 14.6837 14.2932 14.2932C14.6837 13.9027 14.6837 13.2695 14.2932 12.879L8.70726 7.29306L14.2932 1.70712C14.6837 1.3166 14.6837 0.683434 14.2932 0.29291C13.9027 -0.0976149 13.2695 -0.0976148 12.879 0.29291L7.29305 5.87885L1.7071 0.292894Z" fill="#262626"/>
</svg>
