<svg width="7" height="8" viewBox="0 0 7 8" fill="none" xmlns="http://www.w3.org/2000/svg">
<circle cx="3.5" cy="4" r="3.2" stroke="#8C8C8C" stroke-width="0.6"/>
<path d="M2.33325 3.15315H2.99125C3.00582 2.85643 3.19035 2.66474 3.46957 2.66474C3.74636 2.66474 3.93089 2.84592 3.93089 3.09538C3.93089 3.34484 3.8362 3.4735 3.52298 3.67569C3.18792 3.88839 3.05438 4.12471 3.08594 4.53697L3.0908 4.68927H3.73422V4.5501C3.73422 4.29277 3.82406 4.1641 4.14699 3.96191C4.48934 3.74397 4.66659 3.46825 4.66659 3.07175C4.66659 2.47305 4.20769 2.05554 3.51327 2.05554C2.76787 2.05554 2.34539 2.50719 2.33325 3.15315ZM3.42101 5.94443C3.64196 5.94443 3.8192 5.76325 3.8192 5.53217C3.8192 5.3011 3.64196 5.11991 3.42101 5.11991C3.20249 5.11991 3.02524 5.3011 3.02524 5.53217C3.02524 5.76325 3.20249 5.94443 3.42101 5.94443Z" fill="#8C8C8C"/>
</svg>
