<svg width="30" height="27" viewBox="0 0 30 27" fill="none" xmlns="http://www.w3.org/2000/svg">
<path d="M21.1458 0C18.6083 0 16.1729 1.18125 14.5833 3.04792C12.9938 1.18125 10.5583 0 8.02083 0C3.52917 0 0 3.52917 0 8.02083C0 13.5333 4.95833 18.025 12.4688 24.85L14.5833 26.7604L16.6979 24.8354C24.2083 18.025 29.1667 13.5333 29.1667 8.02083C29.1667 3.52917 25.6375 0 21.1458 0ZM14.7292 22.6771L14.5833 22.8229L14.4375 22.6771C7.49583 16.3917 2.91667 12.2354 2.91667 8.02083C2.91667 5.10417 5.10417 2.91667 8.02083 2.91667C10.2667 2.91667 12.4542 4.36042 13.2271 6.35833H15.9542C16.7125 4.36042 18.9 2.91667 21.1458 2.91667C24.0625 2.91667 26.25 5.10417 26.25 8.02083C26.25 12.2354 21.6708 16.3917 14.7292 22.6771Z" fill="#5ABBE0" fill-opacity="0.9"/>
</svg>
