<svg width="21" height="21" viewBox="0 0 21 21" fill="none" xmlns="http://www.w3.org/2000/svg">
<path d="M10.5 20.1027C5.08418 20.1027 0.691406 15.7099 0.691406 10.2941C0.691406 4.87831 5.08418 0.485535 10.5 0.485535C15.9158 0.485535 20.3086 4.87831 20.3086 10.2941C20.3086 15.7099 15.9158 20.1027 10.5 20.1027ZM13.2422 13.7509C13.2422 13.4793 13.113 13.2262 12.8941 13.068L9.06035 10.2941L12.8941 7.52294C13.113 7.36473 13.2422 7.10897 13.2422 6.84003V5.6034C13.2422 5.43202 13.0471 5.33182 12.9073 5.43202L6.421 10.1254C6.39404 10.1448 6.37209 10.1703 6.35696 10.1999C6.34182 10.2295 6.33392 10.2622 6.33392 10.2954C6.33392 10.3287 6.34182 10.3614 6.35696 10.391C6.37209 10.4205 6.39404 10.4461 6.421 10.4655L12.9073 15.1589C13.0471 15.2591 13.2422 15.1589 13.2422 14.9875V13.7509Z" fill="#E6F7FF"/>
</svg>
