<svg width="21" height="21" viewBox="0 0 21 21" fill="none" xmlns="http://www.w3.org/2000/svg">
<path d="M10.3715 20.1027C4.95567 20.1027 0.562897 15.7099 0.562897 10.2941C0.562897 4.87831 4.95567 0.485535 10.3715 0.485535C15.7873 0.485535 20.1801 4.87831 20.1801 10.2941C20.1801 15.7099 15.7873 20.1027 10.3715 20.1027ZM14.4505 10.1254L7.96417 5.43202C7.82442 5.33182 7.6293 5.43202 7.6293 5.6034V6.84003C7.6293 7.10897 7.7585 7.36473 7.97735 7.52294L11.8111 10.2941L7.97735 13.068C7.7585 13.2262 7.6293 13.4793 7.6293 13.7509V14.9875C7.6293 15.1589 7.82442 15.2591 7.96417 15.1589L14.4505 10.4655C14.5665 10.3811 14.5665 10.2098 14.4505 10.1254Z" fill="#E6F7FF"/>
</svg>
