<svg width="19" height="20" viewBox="0 0 19 20" fill="none" xmlns="http://www.w3.org/2000/svg">
<path fill-rule="evenodd" clip-rule="evenodd" d="M0 5.26316V19C0 19.5523 0.447715 20 1 20H17.4615C18.0138 20 18.4615 19.5523 18.4615 19V1C18.4615 0.447716 18.0138 0 17.4615 0H5.12821L0 5.26316ZM4.22821 3.50298L3.39008 4.36316H4.12821C4.18343 4.36316 4.22821 4.31839 4.22821 4.26316V3.50298ZM1.8 6.16316V8.21336L5.18844 11.5056L9.91683 1.8H6.02821V4.26316C6.02821 5.3125 5.17755 6.16316 4.12821 6.16316H1.8ZM11.9191 1.8L11.6946 2.26072L16.6615 7.0259V1.8H11.9191ZM16.6615 9.52032L10.8665 3.96063L3.92933 18.2H16.6615V9.52032ZM1.92708 18.2L4.35857 13.209L1.8 10.7231V18.2H1.92708Z" fill="black"/>
<path d="M11.6236 8.77194C10.1125 8.77194 8.88885 10.1156 8.88885 11.7718C8.88885 12.4351 9.08737 13.0462 9.4196 13.5428L11.184 16.8948C11.1947 16.9183 11.2061 16.9412 11.2197 16.9624L11.2233 16.9692L11.2242 16.9687C11.2679 17.0352 11.3247 17.09 11.3906 17.1288C11.4564 17.1676 11.5294 17.1894 11.6041 17.1926C11.6787 17.1958 11.7531 17.1802 11.8214 17.1471C11.8898 17.114 11.9504 17.0643 11.9985 17.0016L12.0031 17.0043L12.0201 16.9722C12.0466 16.9341 12.0686 16.8924 12.0854 16.8482L13.8155 13.5612C14.1683 13.0448 14.359 12.4169 14.3589 11.7716C14.3583 10.1156 13.1346 8.77194 11.6236 8.77194V8.77194ZM11.5965 13.2926C10.852 13.2926 10.2489 12.6314 10.2489 11.8147C10.2489 11.5224 10.3279 11.2366 10.4759 10.9935C10.624 10.7504 10.8344 10.5609 11.0806 10.4489C11.3269 10.337 11.5978 10.3077 11.8593 10.3647C12.1207 10.4217 12.3608 10.5625 12.5493 10.7692C12.7378 10.9759 12.8661 11.2393 12.9182 11.526C12.9702 11.8128 12.9435 12.11 12.8415 12.3801C12.7395 12.6502 12.5668 12.881 12.3452 13.0435C12.1236 13.2059 11.863 13.2926 11.5965 13.2926V13.2926Z" fill="black"/>
</svg>
