<svg width="20" height="20" viewBox="0 0 20 20" fill="none" xmlns="http://www.w3.org/2000/svg">
<path d="M9.95789 0C4.45823 0 0 4.45823 0 9.95789C0 15.4576 4.45823 19.9158 9.95789 19.9158C15.4576 19.9158 19.9158 15.4576 19.9158 9.95789C19.9158 4.45823 15.4576 0 9.95789 0ZM7.52028 14.0852H5.50381V7.59601H7.52028V14.0852ZM6.4996 6.79937C5.86271 6.79937 5.45091 6.34816 5.45091 5.7901C5.45091 5.22063 5.87516 4.7829 6.52553 4.7829C7.17591 4.7829 7.57422 5.22063 7.58667 5.7901C7.58667 6.34816 7.17591 6.79937 6.4996 6.79937ZM14.885 14.0852H12.8685V10.489C12.8685 9.6519 12.576 9.08347 11.8468 9.08347C11.2898 9.08347 10.9589 9.4683 10.8126 9.83861C10.7587 9.97034 10.7452 10.1571 10.7452 10.3427V14.0842H8.72768V9.66538C8.72768 8.85526 8.70175 8.17792 8.67478 7.59497H10.4267L10.5191 8.49636H10.5595C10.8251 8.07315 11.4754 7.44871 12.5635 7.44871C13.8902 7.44871 14.885 8.33766 14.885 10.2483V14.0852Z" fill="#FAFAFA"/>
</svg>
