<svg width="126" height="34" viewBox="0 0 126 34" fill="none" xmlns="http://www.w3.org/2000/svg">
<g clip-path="url(#clip0)">
<path d="M34.4412 22.4716H43.9024V27.064H29V2.36967H34.4412V22.4716Z" fill="white"/>
<path d="M56.2059 27.064C56.0028 26.7014 55.8404 26.1374 55.7186 25.4123C54.7441 26.7417 53.4041 27.3863 51.6986 27.3863C50.115 27.3863 48.775 26.8626 47.6786 25.8152C46.5823 24.7678 46.0138 23.4384 46.0138 21.8673C46.0138 19.8934 46.7041 18.3626 48.0441 17.3555C49.3841 16.3483 51.3332 15.8246 53.8913 15.8246H55.5156V14.8578C55.5156 13.1659 54.8659 12.3199 53.5259 12.3199C52.2671 12.3199 51.658 13.0047 51.658 14.3341H46.4199C46.4199 12.5616 47.1102 11.1114 48.4908 10.0237C49.8714 8.93602 51.6174 8.37204 53.7695 8.37204C55.9216 8.37204 57.5865 8.93602 58.8453 10.1043C60.104 11.2322 60.7131 12.8033 60.7537 14.8175V22.955C60.7943 24.6469 60.9974 25.936 61.4846 26.8223V27.064H56.2059ZM52.9168 23.3175C53.5665 23.3175 54.0944 23.1564 54.541 22.8744C54.9877 22.5521 55.2719 22.2299 55.475 21.827V18.8863H53.9725C52.1453 18.8863 51.252 19.7725 51.252 21.5853C51.252 22.109 51.4144 22.5119 51.7392 22.8341C52.0235 23.1564 52.4295 23.3175 52.9168 23.3175Z" fill="white"/>
<path d="M69.1592 8.69432L69.3217 10.8294C70.4586 9.17773 72.0829 8.33176 74.1131 8.33176C75.8592 8.33176 77.1586 8.89574 78.0113 10.064C78.864 11.1919 79.3107 12.9242 79.3513 15.2204V27.064H74.1131V15.4621C74.1131 14.5355 73.9507 13.8507 73.5853 13.4076C73.2604 12.9645 72.6107 12.763 71.7174 12.763C70.7023 12.763 69.9307 13.2062 69.4435 14.0924V27.064H64.2053V8.69432H69.1592Z" fill="white"/>
<path d="M82.3967 17.718C82.3967 14.8175 82.9652 12.5213 84.1022 10.8294C85.2391 9.13744 86.8634 8.33175 88.8937 8.33175C90.3961 8.33175 91.6549 8.9763 92.67 10.2654V1H97.9082V27.064H93.1979L92.9542 25.09C91.8985 26.6209 90.5179 27.3863 88.8531 27.3863C86.8634 27.3863 85.2797 26.5403 84.1022 24.8886C83.0058 23.1967 82.3967 20.8199 82.3967 17.718ZM87.6349 18.0806C87.6349 21.3436 88.4876 22.955 90.2337 22.955C91.3706 22.955 92.2233 22.4313 92.7106 21.3436V14.3744C92.2233 13.2867 91.4112 12.763 90.2743 12.763C88.65 12.763 87.7973 14.173 87.6755 17.0332L87.6349 18.0806Z" fill="white"/>
<path d="M107.207 27.064H101.969V1H107.207V27.064Z" fill="white"/>
<path d="M117.927 19.0474L120.729 8.69431H126.332L119.51 30.1256L119.226 30.891C118.252 33.2678 116.546 34.436 114.069 34.436C113.379 34.436 112.689 34.3152 111.917 34.1137V30.045H112.608C113.338 30.045 113.907 29.9242 114.272 29.6825C114.678 29.4408 114.963 29.0379 115.125 28.4336L115.531 27.2251L109.724 8.69431H115.287L117.927 19.0474Z" fill="white"/>
<path d="M17.7424 15.2281L13.7872 9.63158L11.56 12.7965C12.52 13.8772 13.096 15.2667 13.096 16.8105C13.096 19.2421 12.2512 19.8982 7.6816 26.5368C7.528 26.7684 7.2208 26.8842 6.952 26.8456V27H25V5L17.7424 15.2281Z" fill="white"/>
<path d="M11.56 12.7965C10.4464 11.5614 8.8336 10.7895 7.0672 10.7895C3.7264 10.7895 1 13.4912 1 16.8105C1 19.2421 1.8448 19.8982 6.4144 26.5368C6.5296 26.7298 6.7216 26.807 6.952 26.8456C7.2208 26.8842 7.4896 26.7684 7.6816 26.5368C12.2512 19.9368 13.096 19.2421 13.096 16.8105C13.096 15.2667 12.52 13.8772 11.56 12.7965ZM7.0672 19.3193C7.0288 19.3193 6.9904 19.3193 6.9904 19.3193C5.6464 19.2807 4.5712 18.1614 4.5712 16.8105C4.5712 15.4211 5.6848 14.3018 7.1056 14.3018C8.1424 14.3018 9.064 14.9579 9.448 15.8456C9.5632 16.1544 9.64 16.4632 9.64 16.8105C9.5632 18.2 8.4496 19.3193 7.0672 19.3193Z" fill="#019BD6"/>
</g>
<defs>
<clipPath id="clip0">
<rect width="126" height="34" fill="white"/>
</clipPath>
</defs>
</svg>
