<svg width="24" height="18" viewBox="0 0 24 18" fill="none" xmlns="http://www.w3.org/2000/svg">
<path d="M3.37646 7.78672V2.55332C3.37646 1.6841 4.08825 0.995972 4.94605 0.995972H19.0358C19.9118 0.995972 20.6054 1.70221 20.6054 2.55332V7.78672" stroke="#BFBFBF" stroke-width="1.4" stroke-miterlimit="10" stroke-linecap="round" stroke-linejoin="round"/>
<path d="M6.49756 8.14886V6.50097C6.49756 5.70419 7.15459 5.05228 7.95763 5.05228H10.385C11.1881 5.05228 11.8451 5.70419 11.8451 6.50097V8.14886" stroke="#BFBFBF" stroke-width="1.4" stroke-miterlimit="10" stroke-linecap="round" stroke-linejoin="round"/>
<path d="M12.2283 8.14886V6.50097C12.2283 5.70419 12.8853 5.05228 13.6883 5.05228H16.1157C16.9188 5.05228 17.5758 5.70419 17.5758 6.50097V8.14886" stroke="#BFBFBF" stroke-width="1.4" stroke-miterlimit="10" stroke-linecap="round" stroke-linejoin="round"/>
<path d="M21.4267 8.51105H2.57349C1.69744 8.51105 1.00391 9.21728 1.00391 10.0684V17.004H4.56284V14.9396H19.4191V17.004H22.9963V10.0684C22.9963 9.21728 22.2845 8.51105 21.4267 8.51105Z" stroke="#BFBFBF" stroke-width="1.4" stroke-miterlimit="10" stroke-linecap="round" stroke-linejoin="round"/>
</svg>
