<svg width="24" height="25" viewBox="0 0 24 25" fill="none" xmlns="http://www.w3.org/2000/svg">
<g clip-path="url(#clip0)">
<path d="M1 14.1793H23" stroke="#BFBFBF" stroke-width="1.4" stroke-miterlimit="10" stroke-linecap="round" stroke-linejoin="round"/>
<path d="M15.7636 21.6908H8.2363C5.2363 21.6908 2.81812 19.2541 2.81812 16.2312V14.1793H21.1818V16.2312C21.1818 19.2541 18.7636 21.6908 15.7636 21.6908Z" stroke="#BFBFBF" stroke-width="1.4" stroke-miterlimit="10" stroke-linecap="round" stroke-linejoin="round"/>
<path d="M8 21.6908V23.1564" stroke="#BFBFBF" stroke-width="1.4" stroke-miterlimit="10" stroke-linecap="round" stroke-linejoin="round"/>
<path d="M16 21.6908V23.1564" stroke="#BFBFBF" stroke-width="1.4" stroke-miterlimit="10" stroke-linecap="round" stroke-linejoin="round"/>
<path d="M15.9453 3.82818C15.9453 2.36253 17.1271 1.17169 18.5817 1.17169C20.0362 1.17169 21.218 2.36253 21.218 3.82818V13.9961" stroke="#BFBFBF" stroke-width="1.4" stroke-miterlimit="10" stroke-linecap="round" stroke-linejoin="round"/>
<path d="M18.1271 8.49994H13.9453V6.94269C13.9453 5.77017 14.8726 4.83582 16.0362 4.83582C17.1999 4.83582 18.1271 5.77017 18.1271 6.94269V8.49994Z" stroke="#BFBFBF" stroke-width="1.4" stroke-miterlimit="10" stroke-linecap="round" stroke-linejoin="round"/>
</g>
<defs>
<clipPath id="clip0">
<rect y="0.164062" width="24" height="24" fill="white"/>
</clipPath>
</defs>
</svg>
