<svg width="24" height="10" viewBox="0 0 24 10" fill="none" xmlns="http://www.w3.org/2000/svg">
<g clip-path="url(#clip0)">
<path d="M3.6879 9.25551H0.1V1.66592H3.55414C4.36457 1.66592 4.97583 1.82995 5.38201 2.12735C5.78348 2.42132 5.99554 2.85347 5.99554 3.42058C5.99554 4.26576 5.63158 4.79095 5.06358 5.0267L4.76891 5.14901L5.08067 5.21678C5.93833 5.40322 6.56879 6.05008 6.56879 7.0323C6.56879 7.75249 6.34722 8.30105 5.88922 8.67264C5.42725 9.04746 4.70875 9.25551 3.6879 9.25551ZM1.77261 4.72861V4.82861H1.87261H3.38217C3.70081 4.82861 3.95742 4.75763 4.13536 4.60424C4.31594 4.44857 4.39936 4.22214 4.39936 3.9477C4.39936 3.67159 4.31018 3.44634 4.13356 3.29166C3.95899 3.13879 3.71257 3.06679 3.42038 3.06679H1.87261H1.77261V3.16679V4.72861ZM1.87261 6.07329H1.77261V6.17329V7.71559V7.81559H1.87261H3.70556C4.05256 7.8255 4.33543 7.75511 4.53402 7.60502C4.73651 7.45199 4.83885 7.22545 4.83885 6.9542C4.83885 6.68071 4.73 6.45441 4.51834 6.29995C4.31101 6.14864 4.01495 6.07329 3.64968 6.07329H1.87261Z" fill="#BFBFBF" stroke="white" stroke-width="0.2"/>
<path d="M7.45669 6.97384V3.46212H9.11019V6.4272C9.11019 6.94998 9.18655 7.32694 9.35712 7.57473C9.53391 7.83156 9.79928 7.93284 10.1274 7.93284C10.6638 7.93284 11.0332 7.65696 11.2928 7.35089L11.3166 7.3229V7.2862V3.46212H12.9701V9.25562H11.4312V8.8285V8.58337L11.2597 8.75855C10.8785 9.14802 10.3318 9.41164 9.55483 9.4118C8.86466 9.40215 8.34663 9.21677 7.99916 8.83445C7.65005 8.45033 7.45669 7.84959 7.45669 6.97384Z" fill="#BFBFBF" stroke="white" stroke-width="0.2"/>
<path d="M15.1718 2.53969V2.53963L15.1684 2.53975C14.6569 2.55717 14.2208 2.11998 14.2208 1.56594C14.2208 1.03345 14.6558 0.592188 15.1718 0.592188C15.6878 0.592188 16.1228 1.03345 16.1228 1.56594C16.1228 2.11676 15.689 2.53969 15.1718 2.53969ZM14.3546 3.46204H16.0081V9.25553H14.3546V3.46204Z" fill="#BFBFBF" stroke="white" stroke-width="0.2"/>
<path d="M17.4503 1.13876H19.1038V9.23594H17.4503V1.13876Z" fill="#BFBFBF" stroke="white" stroke-width="0.2"/>
<path d="M20.7559 4.98236V4.88236H20.6559H19.9916V3.46197H20.6559H20.7559V3.36197V1.13876H22.3903V3.36197V3.46197H22.4903H23.8999V4.88236H22.4903H22.3903V4.98236V7.16891C22.3903 7.44558 22.4276 7.66728 22.5516 7.8181C22.6802 7.97454 22.8803 8.0303 23.14 8.0303C23.3134 8.0303 23.6041 8.00016 23.8999 7.88687V9.24223C23.6179 9.32304 23.251 9.37259 22.5859 9.37258L22.5843 9.37261C21.9569 9.38218 21.506 9.24764 21.2107 8.95934C20.9155 8.67116 20.7559 8.20993 20.7559 7.52032V4.98236Z" fill="#BFBFBF" stroke="white" stroke-width="0.2"/>
</g>
<defs>
<clipPath id="clip0">
<rect y="0.492188" width="24" height="9" fill="white"/>
</clipPath>
</defs>
</svg>
