<svg width="21" height="20" viewBox="0 0 21 20" fill="none" xmlns="http://www.w3.org/2000/svg">
<path d="M10.7894 0C5.28978 0 0.831543 4.45823 0.831543 9.95789C0.831543 15.4576 5.28978 19.9158 10.7894 19.9158C16.2891 19.9158 20.7473 15.4576 20.7473 9.95789C20.7473 4.45823 16.2891 0 10.7894 0ZM14.84 8.15717C14.8442 8.24223 14.8452 8.32729 14.8452 8.41027C14.8452 11.0035 12.8733 13.9919 9.26567 13.9919C8.19965 13.9937 7.15581 13.6875 6.25963 13.1102C6.41211 13.1289 6.56874 13.1361 6.72745 13.1361C7.64648 13.1361 8.49186 12.8239 9.16298 12.297C8.754 12.2889 8.35771 12.1535 8.02935 11.9096C7.70099 11.6656 7.45691 11.3253 7.33114 10.936C7.62485 10.9919 7.92742 10.9802 8.21594 10.9018C7.77204 10.8121 7.37284 10.5715 7.08604 10.221C6.79924 9.87051 6.6425 9.43159 6.64239 8.9787V8.95484C6.9069 9.1011 7.20978 9.19031 7.53134 9.20068C7.11518 8.92365 6.82058 8.4981 6.70778 8.01105C6.59499 7.52401 6.67252 7.01228 6.92453 6.58051C7.41719 7.18628 8.03158 7.68184 8.72791 8.0351C9.42425 8.38836 10.187 8.59144 10.9668 8.63121C10.8677 8.2104 10.9103 7.76862 11.0882 7.37455C11.266 6.98049 11.5691 6.65622 11.9502 6.45216C12.3314 6.2481 12.7693 6.17568 13.1958 6.24616C13.6224 6.31665 14.0137 6.52608 14.3089 6.8419C14.7479 6.75506 15.1688 6.59405 15.5537 6.36579C15.4074 6.82026 15.1011 7.20617 14.6917 7.45182C15.0805 7.40499 15.4602 7.30046 15.8182 7.14168C15.5552 7.53573 15.224 7.87964 14.84 8.15717Z" fill="#FAFAFA"/>
</svg>
