<svg xmlns="http://www.w3.org/2000/svg" viewBox="0 0 182.77 69.39" fill="#fff"><path d="M53.52 50.71h-9.6c-2.47 0-3.53-1.57-3.53-3.92v-6h4.24v6.07h8.17V41.3L41.17 31.11a4.06 4.06 0 0 1-1-2.94V23.6c0-2 .65-3.92 3.53-3.92h9.7c2.81 0 3.66 2 3.66 3.92v5.81h-4.25v-5.88h-8.37v4.58l11 9.54A4.38 4.38 0 0 1 57 41.24v5.55c0 2.09-.71 3.92-3.53 3.92"/><path d="M53.51 50.94h-9.6c-2.43 0-3.76-1.47-3.76-4.15v-6.24h4.69v6.07h7.71v-5.21L41 31.28a4.26 4.26 0 0 1-1-3.11V23.6c0-2.75 1.27-4.15 3.76-4.15h9.64c2.47 0 3.88 1.51 3.88 4.15v6h-4.7v-5.84h-7.92V28l11 9.47a4.63 4.63 0 0 1 1.65 3.78v5.54c-.04 2.75-1.31 4.15-3.8 4.15zM40.61 41v5.78c0 1.69.57 3.69 3.3 3.69h9.6c2.25 0 3.3-1.18 3.3-3.69v-5.54a4.18 4.18 0 0 0-1.49-3.42l-11.11-9.61V23.3H53v5.88h3.78V23.6c0-1.38-.45-3.69-3.43-3.69h-9.63c-2.22 0-3.3 1.21-3.3 3.69v4.57a3.9 3.9 0 0 0 .9 2.76L53 41.2v5.88h-8.61V41zm34.89 9.71h-10c-2.83 0-3.92-1.44-3.92-3.92V23.6c0-2.42 1.11-3.92 3.92-3.92h10c2.87 0 3.92 1.57 3.92 3.92v23.19c0 2.55-1.17 3.92-3.92 3.92m-.33-27.18h-9.34v23.32h9.34zM84.73 10H89v40.71h-4.27zm13.84 41.1c-3.33 0-4.38-2-4.38-4V19.68h4.24v27.17h9.34V19.68H112l.08 31.41z"/><path d="M98.57 51.44c-4.26 0-4.72-3-4.72-4.33V19.34h4.93v27.17h8.66V19.34h4.92l.08 32.09zM94.53 20v27.12c0 1.36.52 3.64 4 3.64h13.18L111.67 20h-3.55v27.2h-10V20zm-5.21 31h-4.93V9.63h4.93zm-4.25-.69h3.56v-40h-3.56zM75.5 51h-10c-2.83 0-4.26-1.43-4.26-4.26V23.6c0-2.79 1.47-4.26 4.26-4.26h10c2.79 0 4.26 1.47 4.26 4.26v23.19A4.29 4.29 0 0 1 78.7 50a4.36 4.36 0 0 1-3.2 1.05zm-10-31c-2.44 0-3.58 1.14-3.58 3.58v23.21c0 2.48 1.1 3.58 3.58 3.58h10a3.1 3.1 0 0 0 3.58-3.58V23.6c0-2.44-1.14-3.58-3.58-3.58zm10 27.17h-10v-24h10zm-9.34-.69h8.66V23.87h-8.65z"/><path d="M76.72 69.39a34.7 34.7 0 1 1 34.7-34.7 34.73 34.73 0 0 1-34.7 34.7zm0-68A33.33 33.33 0 1 0 110 34.7 33.36 33.36 0 0 0 76.72 1.37zM32.71 50.71h-9.4c-2.55 0-3.92-1.18-3.92-3.92V23.6c0-2.42 1.06-3.92 3.92-3.92h9.39c3.14 0 3.92 1.83 3.92 3.92v11.17l-.71.71H23.63v11.36h8.75v-5h4.24v4.9c0 2.15-.78 3.92-3.92 3.92m-.32-27.18h-8.75v8.22h8.75zm90.13 27.18c-3.13 0-4-1.83-4-3.85V23.53h-3.79v-3.85h3.79V10h4.24v9.67h5.42v3.85h-5.42v23.33h5.42v3.86zM11.77 29.09v-5.23H4.58v26.85H.34l.15-31.47h11.22c3.46 0 4.38 1.77 4.38 4v5.81zm120.15-9.41h4.31v31h-4.31zm23.43 31h-10c-2.83 0-3.92-1.44-3.92-3.92V23.6c0-2.42 1.11-3.92 3.92-3.92h10c2.88 0 3.92 1.57 3.92 3.92v23.19c0 2.55-1.18 3.92-3.92 3.92M155 23.53h-9.35v23.32H155zm23.16 27.18V23.86h-9.34v26.85h-4.24l.07-31.33 13.35-.09c3.26 0 4.38 1.57 4.38 4v27.42zm-41.73-35.2a.5.5 0 0 1-.51.49h-3.67a.5.5 0 0 1-.51-.49v-5a.5.5 0 0 1 .51-.49h3.67a.5.5 0 0 1 .51.49z"/><path d="M182.77 51.06h-4.94V24.2h-8.66v26.85h-4.93l.07-32 13.69-.11c3.18 0 4.72 1.42 4.72 4.33zm-4.25-.69h3.57v-27.1c0-2.52-1.24-3.64-4-3.64l-13 .09-.07 30.65h3.55V23.51h10zm-173.59.69H0L.15 18.9h11.56c3.17 0 4.72 1.42 4.72 4.33v6.16h-5V24.2h-6.5zm-4.24-.69h3.55V23.52h7.87v5.23h3.64v-5.48c0-2.52-1.24-3.64-4-3.64H.87zm154.65.68h-10c-2.83 0-4.26-1.43-4.26-4.26V23.6c0-2.79 1.47-4.26 4.26-4.26h10c2.79 0 4.26 1.47 4.26 4.26v23.19c0 2.83-1.43 4.26-4.26 4.26zm-10-31c-2.44 0-3.58 1.14-3.58 3.58v23.16c0 2.48 1.1 3.58 3.58 3.58h10c2.44 0 3.58-1.14 3.58-3.58V23.6c0-2.44-1.14-3.58-3.58-3.58zm-8.77 31h-5V19.34h5zm-4.31-.69h3.63V20h-3.63zm-9.75.69c-2.83 0-4.39-1.49-4.39-4.2v-23h-3.79v-4.51h3.79V9.67H123v9.67h5.42v4.54H123v22.63h5.42V51zM115 23.19h3.79v23.66c0 2.33 1.25 3.51 3.71 3.51h5.28v-3.17h-5.42v-24h5.42V20h-5.42v-9.65h-3.56V20H115zM32.71 51.05h-9.4c-2.83 0-4.26-1.43-4.26-4.26V23.6c0-2.83 1.43-4.26 4.26-4.26h9.4c2.83 0 4.26 1.43 4.26 4.26v11.31l-.91.91H24V46.5h8v-5h5v5.24a4.29 4.29 0 0 1-1 3.19 4.38 4.38 0 0 1-3.29 1.12zm-9.4-31c-2.44 0-3.58 1.14-3.58 3.58v23.16c0 2.44 1.14 3.58 3.58 3.58h9.4a3.74 3.74 0 0 0 2.73-.87 3.66 3.66 0 0 0 .84-2.71v-4.56h-3.56v5h-9.43v-12.1h12.49l.51-.51v-11c0-2.44-1.14-3.58-3.58-3.58zm132 27.17h-10v-24h10zm-9.31-.71h8.66V23.87H146zM32.72 32h-9.43v-8.81h9.44zM24 31.36h8v-7.49h-8zm108.27-15a.85.85 0 0 1-.84-.82v-5a.86.86 0 0 1 .86-.83h3.66a.85.85 0 0 1 .85.82v5a.86.86 0 0 1-.86.82h-3.68zm0-6a.16.16 0 0 0-.17.16v5a.18.18 0 0 0 .16.15h3.68a.15.15 0 0 0 .17-.15v-5a.16.16 0 0 0-.16-.15h-3.69z"/></svg>