<?xml version="1.0" encoding="utf-8"?>
<!-- Generator: Adobe Illustrator 24.0.0, SVG Export Plug-In . SVG Version: 6.00 Build 0)  -->
<svg version="1.1" id="Layer_1" xmlns="http://www.w3.org/2000/svg" xmlns:xlink="http://www.w3.org/1999/xlink" x="0px" y="0px"
	 viewBox="0 0 70 70" style="enable-background:new 0 0 70 70;" xml:space="preserve">
<style type="text/css">
	.st0{fill:#FFFFFF;}
</style>
<title>icon/baithi</title>
<desc>Created with Sketch.</desc>
<g id="Page-1">
	<g id="Home-Option2" transform="translate(-1199.000000, -3284.000000)">
		<g id="Giúp-bạn-học-tốt-tiếng-anh" transform="translate(-330.000000, 2868.000000)">
			<g id="Group-12" transform="translate(1160.000000, 295.000000)">
				<g>
					<g id="Group">
						<g id="Group-10" transform="translate(369.000000, 121.000000)">
							<g id="icon_x2F_baithi">
								<path id="Shape" class="st0" d="M64.2,11.7h-7V8.2C57.2,7.5,56.6,7,56,7h-2.1L35.4,0.1c-0.3-0.1-0.6-0.1-0.8,0l-18.7,7
									c-0.5,0.2-0.8,0.6-0.8,1.1c0,0.5,0.3,0.9,0.8,1.1l1.6,0.6v1.8H5.8c-3.2,0-5.8,2.6-5.8,5.8v32.7C0,53.4,2.6,56,5.8,56h23
									l-1.8,7h-1.4c-1.9,0-3.5,1.6-3.5,3.5s1.6,3.5,3.5,3.5h18.7c1.9,0,3.5-1.6,3.5-3.5S46.3,63,44.3,63h-1.4l-1.8-7h23
									c3.2,0,5.8-2.6,5.8-5.8V17.5C70,14.3,67.4,11.7,64.2,11.7z M52.5,9.9l1.4-0.5h1v2.3h-2.3V9.9z M35,2.4L47.2,7H35v2.3h12.2
									L35,13.9L19.8,8.2V8.2h-0.2L35,2.4z M34.6,16.3c0.3,0.1,0.6,0.1,0.8,0l14.8-5.5V18c-3.6,1.9-9.2,3-15.2,3s-11.6-1.1-15.2-3
									v-7.2L34.6,16.3z M5.8,14h11.7v4.6c0,0.4,0.2,0.8,0.6,1c3.9,2.3,10.2,3.7,16.9,3.7s13-1.4,16.9-3.7c0.4-0.2,0.6-0.6,0.6-1
									V14h2.3v3.7c-1.3,0.5-2.3,1.7-2.3,3.1c-0.1,1.4,0.7,2.7,2,3.3l-2,7c-0.1,0.4,0,0.7,0.2,1s0.6,0.5,0.9,0.5h4.7
									c0.4,0,0.7-0.2,0.9-0.5c0.2-0.3,0.3-0.7,0.2-1l-2-7c1.3-0.6,2.1-1.9,2-3.3c-0.1-1.4-1-2.7-2.3-3.1V14h7
									c1.9,0,3.5,1.6,3.5,3.5v26.8H2.3V17.5C2.3,15.6,3.9,14,5.8,14L5.8,14z M56,19.8c0.6,0,1.2,0.5,1.2,1.2s-0.5,1.2-1.2,1.2
									s-1.2-0.5-1.2-1.2S55.4,19.8,56,19.8z M56,27.6l0.8,2.8h-1.6L56,27.6z M45.5,66.5c0,0.6-0.5,1.2-1.2,1.2H25.7
									c-0.6,0-1.2-0.5-1.2-1.2s0.5-1.2,1.2-1.2h18.7C45,65.3,45.5,65.9,45.5,66.5z M40.5,63h-11l1.8-7h7.5L40.5,63z M64.2,53.7
									H5.8c-1.9,0-3.5-1.6-3.5-3.5v-3.5h65.3v3.5C67.7,52.1,66.1,53.7,64.2,53.7z"/>
							</g>
						</g>
					</g>
				</g>
			</g>
		</g>
	</g>
</g>
</svg>
