<?xml version="1.0" encoding="utf-8"?>
<!-- Generator: Adobe Illustrator 24.0.0, SVG Export Plug-In . SVG Version: 6.00 Build 0)  -->
<svg version="1.1" id="Layer_1" xmlns="http://www.w3.org/2000/svg" xmlns:xlink="http://www.w3.org/1999/xlink" x="0px" y="0px"
	 viewBox="0 0 1900 269" style="enable-background:new 0 0 1900 269;" xml:space="preserve">
<style type="text/css">
	.st0{fill-rule:evenodd;clip-rule:evenodd;fill:#062643;}
	.st1{filter:url(#Adobe_OpacityMaskFilter);}
	.st2{fill-rule:evenodd;clip-rule:evenodd;fill:#FFFFFF;}
	.st3{opacity:0.1;mask:url(#mask-2_1_);}
	.st4{fill-rule:evenodd;clip-rule:evenodd;fill:#CCCCCC;}
	.st5{filter:url(#Adobe_OpacityMaskFilter_1_);}
	.st6{opacity:0.1;mask:url(#mask-2_2_);}
	.st7{filter:url(#Adobe_OpacityMaskFilter_2_);}
	.st8{opacity:0.1;mask:url(#mask-2_3_);}
</style>
<title>background-footer</title>
<desc>Created with Sketch.</desc>
<g id="Page-1">
	<g id="Home-Option2" transform="translate(0.000000, -4610.000000)">
		<g id="FOOTER" transform="translate(0.000000, 4610.000000)">
			<g id="background-footer">
				<g id="Mask">
					<rect id="path-1_1_" y="0" class="st0" width="1900" height="269"/>
				</g>
				<defs>
					<filter id="Adobe_OpacityMaskFilter" filterUnits="userSpaceOnUse" x="23.5" y="11.5" width="702" height="243">
						<feColorMatrix  type="matrix" values="1 0 0 0 0  0 1 0 0 0  0 0 1 0 0  0 0 0 1 0"/>
					</filter>
				</defs>
				<mask maskUnits="userSpaceOnUse" x="23.5" y="11.5" width="702" height="243" id="mask-2_1_">
					<g class="st1">
						<rect id="path-1_2_" y="0" class="st2" width="1900" height="269"/>
					</g>
				</mask>
				<g id="Group-29" class="st3">
					
						<g transform="translate(374.500000, 160.500000) rotate(90.000000) translate(-374.500000, -160.500000) translate(56.500000, -190.500000)">
						<path id="Fill-106" class="st4" d="M206.5,1.8c-2,0-3.7,1.7-3.7,3.7c0,2,1.7,3.7,3.7,3.7c2,0,3.7-1.7,3.7-3.7
							C210.2,3.5,208.5,1.8,206.5,1.8 M206.5,11c-3,0-5.5-2.5-5.5-5.5c0-3,2.5-5.5,5.5-5.5c3,0,5.5,2.5,5.5,5.5
							C212,8.5,209.5,11,206.5,11"/>
						<path id="Fill-110" class="st4" d="M406.5,242.8c-2,0-3.7,1.7-3.7,3.7c0,2,1.7,3.7,3.7,3.7c2,0,3.7-1.7,3.7-3.7
							C410.2,244.5,408.5,242.8,406.5,242.8 M406.5,252c-3,0-5.5-2.5-5.5-5.5c0-3,2.5-5.5,5.5-5.5c3,0,5.5,2.5,5.5,5.5
							C412,249.5,409.5,252,406.5,252"/>
						<path id="Fill-112" class="st4" d="M399.5,103.8c-2,0-3.7,1.7-3.7,3.7c0,2,1.7,3.7,3.7,3.7c2,0,3.7-1.7,3.7-3.7
							C403.2,105.5,401.5,103.8,399.5,103.8 M399.5,113c-3,0-5.5-2.5-5.5-5.5c0-3,2.5-5.5,5.5-5.5c3,0,5.5,2.5,5.5,5.5
							C405,110.5,402.5,113,399.5,113"/>
						<path id="Fill-114" class="st4" d="M183.5,111.8c-2,0-3.7,1.7-3.7,3.7c0,2,1.7,3.7,3.7,3.7c2,0,3.7-1.7,3.7-3.7
							C187.2,113.5,185.5,111.8,183.5,111.8 M183.5,121c-3,0-5.5-2.5-5.5-5.5c0-3,2.5-5.5,5.5-5.5c3,0,5.5,2.5,5.5,5.5
							C189,118.5,186.5,121,183.5,121"/>
						<path id="Fill-116" class="st4" d="M225.5,122.8c-2,0-3.7,1.7-3.7,3.7c0,2,1.7,3.7,3.7,3.7c2,0,3.7-1.7,3.7-3.7
							C229.2,124.5,227.5,122.8,225.5,122.8 M225.5,132c-3,0-5.5-2.5-5.5-5.5c0-3,2.5-5.5,5.5-5.5c3,0,5.5,2.5,5.5,5.5
							C231,129.5,228.5,132,225.5,132"/>
						<path id="Fill-118" class="st4" d="M277.5,246.8c-2,0-3.7,1.7-3.7,3.7c0,2,1.7,3.7,3.7,3.7c2,0,3.7-1.7,3.7-3.7
							C281.2,248.5,279.5,246.8,277.5,246.8 M277.5,256c-3,0-5.5-2.5-5.5-5.5c0-3,2.5-5.5,5.5-5.5c3,0,5.5,2.5,5.5,5.5
							C283,253.5,280.5,256,277.5,256"/>
						<path id="Fill-120" class="st4" d="M320.5,287.8c-2,0-3.7,1.7-3.7,3.7c0,2,1.7,3.7,3.7,3.7c2,0,3.7-1.7,3.7-3.7
							C324.2,289.5,322.5,287.8,320.5,287.8 M320.5,297c-3,0-5.5-2.5-5.5-5.5c0-3,2.5-5.5,5.5-5.5c3,0,5.5,2.5,5.5,5.5
							C326,294.5,323.5,297,320.5,297"/>
						<path id="Fill-122" class="st4" d="M209.5,363.8c-2,0-3.7,1.7-3.7,3.7c0,2,1.7,3.7,3.7,3.7c2,0,3.7-1.7,3.7-3.7
							C213.2,365.5,211.5,363.8,209.5,363.8 M209.5,373c-3,0-5.5-2.5-5.5-5.5c0-3,2.5-5.5,5.5-5.5c3,0,5.5,2.5,5.5,5.5
							C215,370.5,212.5,373,209.5,373"/>
						<path id="Fill-124" class="st4" d="M181.5,503.8c-2,0-3.7,1.7-3.7,3.7c0,2,1.7,3.7,3.7,3.7c2,0,3.7-1.7,3.7-3.7
							C185.2,505.5,183.5,503.8,181.5,503.8 M181.5,513c-3,0-5.5-2.5-5.5-5.5c0-3,2.5-5.5,5.5-5.5c3,0,5.5,2.5,5.5,5.5
							C187,510.5,184.5,513,181.5,513"/>
						<path id="Fill-126" class="st4" d="M347.5,421.8c-2,0-3.7,1.7-3.7,3.7c0,2,1.7,3.7,3.7,3.7c2,0,3.7-1.7,3.7-3.7
							C351.2,423.5,349.5,421.8,347.5,421.8 M347.5,431c-3,0-5.5-2.5-5.5-5.5c0-3,2.5-5.5,5.5-5.5c3,0,5.5,2.5,5.5,5.5
							C353,428.5,350.5,431,347.5,431"/>
						<path id="Fill-128" class="st4" d="M257.5,382.8c-2,0-3.7,1.7-3.7,3.7c0,2,1.7,3.7,3.7,3.7c2,0,3.7-1.7,3.7-3.7
							C261.2,384.5,259.5,382.8,257.5,382.8 M257.5,392c-3,0-5.5-2.5-5.5-5.5c0-3,2.5-5.5,5.5-5.5c3,0,5.5,2.5,5.5,5.5
							C263,389.5,260.5,392,257.5,392"/>
						<path id="Fill-133" class="st4" d="M328.5,606.8c-2,0-3.7,1.7-3.7,3.7c0,2,1.7,3.7,3.7,3.7c2,0,3.7-1.7,3.7-3.7
							C332.2,608.5,330.5,606.8,328.5,606.8 M328.5,616c-3,0-5.5-2.5-5.5-5.5c0-3,2.5-5.5,5.5-5.5c3,0,5.5,2.5,5.5,5.5
							C334,613.5,331.5,616,328.5,616"/>
						<path id="Fill-135" class="st4" d="M332.5,489.8c-2,0-3.7,1.7-3.7,3.7c0,2,1.7,3.7,3.7,3.7c2,0,3.7-1.7,3.7-3.7
							C336.2,491.5,334.5,489.8,332.5,489.8 M332.5,499c-3,0-5.5-2.5-5.5-5.5c0-3,2.5-5.5,5.5-5.5c3,0,5.5,2.5,5.5,5.5
							C338,496.5,335.5,499,332.5,499"/>
						<path id="Fill-137" class="st4" d="M303.5,692.8c-2,0-3.7,1.7-3.7,3.7c0,2,1.7,3.7,3.7,3.7c2,0,3.7-1.7,3.7-3.7
							C307.2,694.5,305.5,692.8,303.5,692.8 M303.5,702c-3,0-5.5-2.5-5.5-5.5c0-3,2.5-5.5,5.5-5.5c3,0,5.5,2.5,5.5,5.5
							C309,699.5,306.5,702,303.5,702"/>
						<path id="Fill-139" class="st4" d="M192.5,605.8c-2,0-3.7,1.7-3.7,3.7c0,2,1.7,3.7,3.7,3.7c2,0,3.7-1.7,3.7-3.7
							C196.2,607.5,194.5,605.8,192.5,605.8 M192.5,615c-3,0-5.5-2.5-5.5-5.5c0-3,2.5-5.5,5.5-5.5c3,0,5.5,2.5,5.5,5.5
							C198,612.5,195.5,615,192.5,615"/>
						<path id="Fill-141" class="st4" d="M382.5,606.8c-2,0-3.7,1.7-3.7,3.7c0,2,1.7,3.7,3.7,3.7c2,0,3.7-1.7,3.7-3.7
							C386.2,608.5,384.5,606.8,382.5,606.8 M382.5,616c-3,0-5.5-2.5-5.5-5.5c0-3,2.5-5.5,5.5-5.5c3,0,5.5,2.5,5.5,5.5
							C388,613.5,385.5,616,382.5,616"/>
						<path id="Fill-145" class="st4" d="M293.5,449.8c-2,0-3.7,1.7-3.7,3.7c0,2,1.7,3.7,3.7,3.7c2,0,3.7-1.7,3.7-3.7
							C297.2,451.5,295.5,449.8,293.5,449.8 M293.5,459c-3,0-5.5-2.5-5.5-5.5c0-3,2.5-5.5,5.5-5.5c3,0,5.5,2.5,5.5,5.5
							C299,456.5,296.5,459,293.5,459"/>
						<path id="Fill-147" class="st4" d="M404.5,511.8c-2,0-3.7,1.7-3.7,3.7c0,2,1.7,3.7,3.7,3.7c2,0,3.7-1.7,3.7-3.7
							C408.2,513.5,406.5,511.8,404.5,511.8 M404.5,521c-3,0-5.5-2.5-5.5-5.5c0-3,2.5-5.5,5.5-5.5c3,0,5.5,2.5,5.5,5.5
							C410,518.5,407.5,521,404.5,521"/>
						<path id="Fill-149" class="st4" d="M380.5,36.8c-2,0-3.7,1.7-3.7,3.7c0,2,1.7,3.7,3.7,3.7c2,0,3.7-1.7,3.7-3.7
							C384.2,38.5,382.5,36.8,380.5,36.8 M380.5,46c-3,0-5.5-2.5-5.5-5.5c0-3,2.5-5.5,5.5-5.5c3,0,5.5,2.5,5.5,5.5
							C386,43.5,383.5,46,380.5,46"/>
						<path id="Fill-151" class="st4" d="M269.5,505.9c-0.1,0-0.6,0-0.7,0.6l-0.5,1.9c-0.2,0.9-1,1.6-1.9,1.9l-1.9,0.5
							c-0.5,0.1-0.6,0.6-0.6,0.7s0,0.6,0.6,0.7l1.9,0.5c0.9,0.2,1.6,1,1.9,1.9l0.5,1.9c0.1,0.5,0.6,0.6,0.7,0.6s0.6,0,0.7-0.6
							l0.5-1.9c0.2-0.9,1-1.6,1.9-1.9l1.9-0.5c0.5-0.1,0.6-0.6,0.6-0.7s0-0.6-0.6-0.7l-1.9-0.5c-0.9-0.2-1.6-1-1.9-1.9l-0.5-1.9
							C270.1,505.9,269.6,505.9,269.5,505.9 M269.5,519c-1.2,0-2.2-0.8-2.6-2l-0.5-1.9c-0.1-0.3-0.3-0.5-0.5-0.5l-1.9-0.5
							c-1.2-0.3-2-1.3-2-2.6c0-1.2,0.8-2.2,2-2.6l1.9-0.5c0.3-0.1,0.5-0.3,0.5-0.5l0.5-1.9c0.3-1.2,1.3-2,2.6-2s2.2,0.8,2.6,2
							l0.5,1.9c0.1,0.3,0.3,0.5,0.5,0.5l1.9,0.5c1.2,0.3,2,1.3,2,2.6c0,1.2-0.8,2.2-2,2.6l-1.9,0.5c-0.3,0.1-0.5,0.3-0.5,0.5
							l-0.5,1.9C271.7,518.2,270.7,519,269.5,519"/>
						<path id="Fill-153" class="st4" d="M256.5,274.9c-0.1,0-0.6,0-0.7,0.6l-0.5,1.9c-0.2,0.9-1,1.6-1.9,1.9l-1.9,0.5
							c-0.5,0.1-0.6,0.6-0.6,0.7s0,0.6,0.6,0.7l1.9,0.5c0.9,0.2,1.6,1,1.9,1.9l0.5,1.9c0.1,0.5,0.6,0.6,0.7,0.6s0.6,0,0.7-0.6
							l0.5-1.9c0.2-0.9,1-1.6,1.9-1.9l1.9-0.5c0.5-0.1,0.6-0.6,0.6-0.7s0-0.6-0.6-0.7l-1.9-0.5c-0.9-0.2-1.6-1-1.9-1.9l-0.5-1.9
							C257.1,274.9,256.6,274.9,256.5,274.9 M256.5,288c-1.2,0-2.2-0.8-2.6-2l-0.5-1.9c-0.1-0.3-0.3-0.5-0.5-0.5l-1.9-0.5
							c-1.2-0.3-2-1.3-2-2.6c0-1.2,0.8-2.2,2-2.6l1.9-0.5c0.3-0.1,0.5-0.3,0.5-0.5l0.5-1.9c0.3-1.2,1.3-2,2.6-2s2.2,0.8,2.6,2
							l0.5,1.9c0.1,0.3,0.3,0.5,0.5,0.5l1.9,0.5c1.2,0.3,2,1.3,2,2.6c0,1.2-0.8,2.2-2,2.6l-1.9,0.5c-0.3,0.1-0.5,0.3-0.5,0.5
							l-0.5,1.9C258.7,287.2,257.7,288,256.5,288"/>
						<path id="Fill-155" class="st4" d="M378.5,152.9c-0.1,0-0.6,0-0.7,0.6l-0.5,1.9c-0.2,0.9-1,1.6-1.9,1.9l-1.9,0.5
							c-0.5,0.1-0.6,0.6-0.6,0.7s0,0.6,0.6,0.7l1.9,0.5c0.9,0.2,1.6,1,1.9,1.9l0.5,1.9c0.1,0.5,0.6,0.6,0.7,0.6s0.6,0,0.7-0.6
							l0.5-1.9c0.2-0.9,1-1.6,1.9-1.9l1.9-0.5c0.5-0.1,0.6-0.6,0.6-0.7s0-0.6-0.6-0.7l-1.9-0.5c-0.9-0.2-1.6-1-1.9-1.9l-0.5-1.9
							C379.1,152.9,378.6,152.9,378.5,152.9 M378.5,166c-1.2,0-2.2-0.8-2.6-2l-0.5-1.9c-0.1-0.3-0.3-0.5-0.5-0.5l-1.9-0.5
							c-1.2-0.3-2-1.3-2-2.6c0-1.2,0.8-2.2,2-2.6l1.9-0.5c0.3-0.1,0.5-0.3,0.5-0.5l0.5-1.9c0.3-1.2,1.3-2,2.6-2s2.2,0.8,2.6,2
							l0.5,1.9c0.1,0.3,0.3,0.5,0.5,0.5l1.9,0.5c1.2,0.3,2,1.3,2,2.6c0,1.2-0.8,2.2-2,2.6l-1.9,0.5c-0.3,0.1-0.5,0.3-0.5,0.5
							l-0.5,1.9C380.7,165.2,379.7,166,378.5,166"/>
						<path id="Fill-157" class="st4" d="M226.5,545.9c-0.1,0-0.6,0-0.7,0.6l-0.5,1.9c-0.2,0.9-1,1.6-1.9,1.9l-1.9,0.5
							c-0.5,0.1-0.6,0.6-0.6,0.7c0,0.1,0,0.6,0.6,0.7l1.9,0.5c0.9,0.2,1.6,1,1.9,1.9l0.5,1.9c0.1,0.5,0.6,0.6,0.7,0.6s0.6,0,0.7-0.6
							l0.5-1.9c0.2-0.9,1-1.6,1.9-1.9l1.9-0.5c0.5-0.1,0.6-0.6,0.6-0.7c0-0.1,0-0.6-0.6-0.7l-1.9-0.5c-0.9-0.2-1.6-1-1.9-1.9
							l-0.5-1.9C227.1,545.9,226.6,545.9,226.5,545.9 M226.5,559c-1.2,0-2.2-0.8-2.6-2l-0.5-1.9c-0.1-0.3-0.3-0.5-0.5-0.5l-1.9-0.5
							c-1.2-0.3-2-1.3-2-2.6c0-1.2,0.8-2.2,2-2.6l1.9-0.5c0.3-0.1,0.5-0.3,0.5-0.5l0.5-1.9c0.3-1.2,1.3-2,2.6-2s2.2,0.8,2.6,2
							l0.5,1.9c0.1,0.3,0.3,0.5,0.5,0.5l1.9,0.5c1.2,0.3,2,1.3,2,2.6c0,1.2-0.8,2.2-2,2.6l-1.9,0.5c-0.3,0.1-0.5,0.3-0.5,0.5
							l-0.5,1.9C228.7,558.2,227.7,559,226.5,559"/>
						<path id="Fill-159" class="st4" d="M228.5,452.9c-0.1,0-0.6,0-0.7,0.6l-0.5,1.9c-0.2,0.9-1,1.6-1.9,1.9l-1.9,0.5
							c-0.5,0.1-0.6,0.6-0.6,0.7s0,0.6,0.6,0.7l1.9,0.5c0.9,0.2,1.6,1,1.9,1.9l0.5,1.9c0.1,0.5,0.6,0.6,0.7,0.6s0.6,0,0.7-0.6
							l0.5-1.9c0.2-0.9,1-1.6,1.9-1.9l1.9-0.5c0.5-0.1,0.6-0.6,0.6-0.7s0-0.6-0.6-0.7l-1.9-0.5c-0.9-0.2-1.6-1-1.9-1.9l-0.5-1.9
							C229.1,452.9,228.6,452.9,228.5,452.9 M228.5,466c-1.2,0-2.2-0.8-2.6-2l-0.5-1.9c-0.1-0.3-0.3-0.5-0.5-0.5l-1.9-0.5
							c-1.2-0.3-2-1.3-2-2.6c0-1.2,0.8-2.2,2-2.6l1.9-0.5c0.3-0.1,0.5-0.3,0.5-0.5l0.5-1.9c0.3-1.2,1.3-2,2.6-2s2.2,0.8,2.6,2
							l0.5,1.9c0.1,0.3,0.3,0.5,0.5,0.5l1.9,0.5c1.2,0.3,2,1.3,2,2.6c0,1.2-0.8,2.2-2,2.6l-1.9,0.5c-0.3,0.1-0.5,0.3-0.5,0.5
							l-0.5,1.9C230.7,465.2,229.7,466,228.5,466"/>
						<path id="Fill-161" class="st4" d="M259.5,641.9c-0.1,0-0.6,0-0.7,0.6l-0.5,1.9c-0.2,0.9-1,1.6-1.9,1.9l-1.9,0.5
							c-0.5,0.1-0.6,0.6-0.6,0.7c0,0.1,0,0.6,0.6,0.7l1.9,0.5c0.9,0.2,1.6,1,1.9,1.9l0.5,1.9c0.1,0.5,0.6,0.6,0.7,0.6s0.6,0,0.7-0.6
							l0.5-1.9c0.2-0.9,1-1.6,1.9-1.9l1.9-0.5c0.5-0.1,0.6-0.6,0.6-0.7c0-0.1,0-0.6-0.6-0.7l-1.9-0.5c-0.9-0.2-1.6-1-1.9-1.9
							l-0.5-1.9C260.1,641.9,259.6,641.9,259.5,641.9 M259.5,655c-1.2,0-2.2-0.8-2.6-2l-0.5-1.9c-0.1-0.3-0.3-0.5-0.5-0.5l-1.9-0.5
							c-1.2-0.3-2-1.3-2-2.6c0-1.2,0.8-2.2,2-2.6l1.9-0.5c0.3-0.1,0.5-0.3,0.5-0.5l0.5-1.9c0.3-1.2,1.3-2,2.6-2s2.2,0.8,2.6,2
							l0.5,1.9c0.1,0.3,0.3,0.5,0.5,0.5l1.9,0.5c1.2,0.3,2,1.3,2,2.6c0,1.2-0.8,2.2-2,2.6l-1.9,0.5c-0.3,0.1-0.5,0.3-0.5,0.5
							l-0.5,1.9C261.7,654.2,260.7,655,259.5,655"/>
						<path id="Fill-171" class="st4" d="M401.5,398.9c-0.1,0-0.6,0-0.7,0.6l-0.5,1.9c-0.2,0.9-1,1.6-1.9,1.9l-1.9,0.5
							c-0.5,0.1-0.6,0.6-0.6,0.7s0,0.6,0.6,0.7l1.9,0.5c0.9,0.2,1.6,1,1.9,1.9l0.5,1.9c0.1,0.5,0.6,0.6,0.7,0.6s0.6,0,0.7-0.6
							l0.5-1.9c0.2-0.9,1-1.6,1.9-1.9l1.9-0.5c0.5-0.1,0.6-0.6,0.6-0.7s0-0.6-0.6-0.7l-1.9-0.5c-0.9-0.2-1.6-1-1.9-1.9l-0.5-1.9
							C402.1,398.9,401.6,398.9,401.5,398.9 M401.5,412c-1.2,0-2.2-0.8-2.6-2l-0.5-1.9c-0.1-0.3-0.3-0.5-0.5-0.5l-1.9-0.5
							c-1.2-0.3-2-1.3-2-2.6c0-1.2,0.8-2.2,2-2.6l1.9-0.5c0.3-0.1,0.5-0.3,0.5-0.5l0.5-1.9c0.3-1.2,1.3-2,2.6-2s2.2,0.8,2.6,2
							l0.5,1.9c0.1,0.3,0.3,0.5,0.5,0.5l1.9,0.5c1.2,0.3,2,1.3,2,2.6c0,1.2-0.8,2.2-2,2.6l-1.9,0.5c-0.3,0.1-0.5,0.3-0.5,0.5
							l-0.5,1.9C403.7,411.2,402.7,412,401.5,412"/>
						<path id="Fill-159_1_" class="st4" d="M367.1,541.5c0-0.1,0-0.6-0.6-0.7l-1.9-0.5c-0.9-0.2-1.6-1-1.9-1.9l-0.5-1.9
							c-0.1-0.5-0.6-0.6-0.7-0.6c-0.1,0-0.6,0-0.7,0.6l-0.5,1.9c-0.2,0.9-1,1.6-1.9,1.9l-1.9,0.5c-0.5,0.1-0.6,0.6-0.6,0.7
							s0,0.6,0.6,0.7l1.9,0.5c0.9,0.2,1.6,1,1.9,1.9l0.5,1.9c0.1,0.5,0.6,0.6,0.7,0.6c0.1,0,0.6,0,0.7-0.6l0.5-1.9
							c0.2-0.9,1-1.6,1.9-1.9l1.9-0.5C367.1,542.1,367.1,541.6,367.1,541.5 M354,541.5c0-1.2,0.8-2.2,2-2.6l1.9-0.5
							c0.3-0.1,0.5-0.3,0.5-0.5l0.5-1.9c0.3-1.2,1.3-2,2.6-2c1.2,0,2.2,0.8,2.6,2l0.5,1.9c0.1,0.3,0.3,0.5,0.5,0.5l1.9,0.5
							c1.2,0.3,2,1.3,2,2.6s-0.8,2.2-2,2.6l-1.9,0.5c-0.3,0.1-0.5,0.3-0.5,0.5l-0.5,1.9c-0.3,1.2-1.3,2-2.6,2c-1.2,0-2.2-0.8-2.6-2
							l-0.5-1.9c-0.1-0.3-0.3-0.5-0.5-0.5l-1.9-0.5C354.8,543.7,354,542.7,354,541.5"/>
						<path id="Fill-173" class="st4" d="M305.5,553.9c-0.1,0-0.6,0-0.7,0.6l-0.5,1.9c-0.2,0.9-1,1.6-1.9,1.9l-1.9,0.5
							c-0.5,0.1-0.6,0.6-0.6,0.7c0,0.1,0,0.6,0.6,0.7l1.9,0.5c0.9,0.2,1.6,1,1.9,1.9l0.5,1.9c0.1,0.5,0.6,0.6,0.7,0.6s0.6,0,0.7-0.6
							l0.5-1.9c0.2-0.9,1-1.6,1.9-1.9l1.9-0.5c0.5-0.1,0.6-0.6,0.6-0.7c0-0.1,0-0.6-0.6-0.7l-1.9-0.5c-0.9-0.2-1.6-1-1.9-1.9
							l-0.5-1.9C306.1,553.9,305.6,553.9,305.5,553.9 M305.5,567c-1.2,0-2.2-0.8-2.6-2l-0.5-1.9c-0.1-0.3-0.3-0.5-0.5-0.5l-1.9-0.5
							c-1.2-0.3-2-1.3-2-2.6c0-1.2,0.8-2.2,2-2.6l1.9-0.5c0.3-0.1,0.5-0.3,0.5-0.5l0.5-1.9c0.3-1.2,1.3-2,2.6-2s2.2,0.8,2.6,2
							l0.5,1.9c0.1,0.3,0.3,0.5,0.5,0.5l1.9,0.5c1.2,0.3,2,1.3,2,2.6c0,1.2-0.8,2.2-2,2.6l-1.9,0.5c-0.3,0.1-0.5,0.3-0.5,0.5
							l-0.5,1.9C307.7,566.2,306.7,567,305.5,567"/>
						<path id="Fill-161_1_" class="st4" d="M363.5,666.9c-0.1,0-0.6,0-0.7,0.6l-0.5,1.9c-0.2,0.9-1,1.6-1.9,1.9l-1.9,0.5
							c-0.5,0.1-0.6,0.6-0.6,0.7c0,0.1,0,0.6,0.6,0.7l1.9,0.5c0.9,0.2,1.6,1,1.9,1.9l0.5,1.9c0.1,0.5,0.6,0.6,0.7,0.6s0.6,0,0.7-0.6
							l0.5-1.9c0.2-0.9,1-1.6,1.9-1.9l1.9-0.5c0.5-0.1,0.6-0.6,0.6-0.7c0-0.1,0-0.6-0.6-0.7l-1.9-0.5c-0.9-0.2-1.6-1-1.9-1.9
							l-0.5-1.9C364.1,666.9,363.6,666.9,363.5,666.9 M363.5,680c-1.2,0-2.2-0.8-2.6-2l-0.5-1.9c-0.1-0.3-0.3-0.5-0.5-0.5l-1.9-0.5
							c-1.2-0.3-2-1.3-2-2.6c0-1.2,0.8-2.2,2-2.6l1.9-0.5c0.3-0.1,0.5-0.3,0.5-0.5l0.5-1.9c0.3-1.2,1.3-2,2.6-2s2.2,0.8,2.6,2
							l0.5,1.9c0.1,0.3,0.3,0.5,0.5,0.5l1.9,0.5c1.2,0.3,2,1.3,2,2.6c0,1.2-0.8,2.2-2,2.6l-1.9,0.5c-0.3,0.1-0.5,0.3-0.5,0.5
							l-0.5,1.9C365.7,679.2,364.7,680,363.5,680"/>
						<path id="Fill-175" class="st4" d="M264.5,71.9c-0.1,0-0.6,0-0.7,0.6l-0.5,1.9c-0.2,0.9-1,1.6-1.9,1.9l-1.9,0.5
							c-0.5,0.1-0.6,0.6-0.6,0.7s0,0.6,0.6,0.7l1.9,0.5c0.9,0.2,1.6,1,1.9,1.9l0.5,1.9c0.1,0.5,0.6,0.6,0.7,0.6s0.6,0,0.7-0.6
							l0.5-1.9c0.2-0.9,1-1.6,1.9-1.9l1.9-0.5c0.5-0.1,0.6-0.6,0.6-0.7s0-0.6-0.6-0.7l-1.9-0.5c-0.9-0.2-1.6-1-1.9-1.9l-0.5-1.9
							C265.1,71.9,264.6,71.9,264.5,71.9 M264.5,85c-1.2,0-2.2-0.8-2.6-2l-0.5-1.9c-0.1-0.3-0.3-0.5-0.5-0.5l-1.9-0.5
							c-1.2-0.3-2-1.3-2-2.6c0-1.2,0.8-2.2,2-2.6l1.9-0.5c0.3-0.1,0.5-0.3,0.5-0.5l0.5-1.9c0.3-1.2,1.3-2,2.6-2s2.2,0.8,2.6,2
							l0.5,1.9c0.1,0.3,0.3,0.5,0.5,0.5l1.9,0.5c1.2,0.3,2,1.3,2,2.6c0,1.2-0.8,2.2-2,2.6l-1.9,0.5c-0.3,0.1-0.5,0.3-0.5,0.5
							l-0.5,1.9C266.7,84.2,265.7,85,264.5,85"/>
						<path id="Fill-179" class="st4" d="M176.5,210.9c-0.1,0-0.6,0-0.7,0.6l-0.5,1.9c-0.2,0.9-1,1.6-1.9,1.9l-1.9,0.5
							c-0.5,0.1-0.6,0.6-0.6,0.7s0,0.6,0.6,0.7l1.9,0.5c0.9,0.2,1.6,1,1.9,1.9l0.5,1.9c0.1,0.5,0.6,0.6,0.7,0.6s0.6,0,0.7-0.6
							l0.5-1.9c0.2-0.9,1-1.6,1.9-1.9l1.9-0.5c0.5-0.1,0.6-0.6,0.6-0.7s0-0.6-0.6-0.7l-1.9-0.5c-0.9-0.2-1.6-1-1.9-1.9l-0.5-1.9
							C177.1,210.9,176.6,210.9,176.5,210.9 M176.5,224c-1.2,0-2.2-0.8-2.6-2l-0.5-1.9c-0.1-0.3-0.3-0.5-0.5-0.5l-1.9-0.5
							c-1.2-0.3-2-1.3-2-2.6c0-1.2,0.8-2.2,2-2.6l1.9-0.5c0.3-0.1,0.5-0.3,0.5-0.5l0.5-1.9c0.3-1.2,1.3-2,2.6-2s2.2,0.8,2.6,2
							l0.5,1.9c0.1,0.3,0.3,0.5,0.5,0.5l1.9,0.5c1.2,0.3,2,1.3,2,2.6c0,1.2-0.8,2.2-2,2.6l-1.9,0.5c-0.3,0.1-0.5,0.3-0.5,0.5
							l-0.5,1.9C178.7,223.2,177.7,224,176.5,224"/>
					</g>
				</g>
				<defs>
					<filter id="Adobe_OpacityMaskFilter_1_" filterUnits="userSpaceOnUse" x="735.5" y="11.5" width="720" height="256">
						<feColorMatrix  type="matrix" values="1 0 0 0 0  0 1 0 0 0  0 0 1 0 0  0 0 0 1 0"/>
					</filter>
				</defs>
				<mask maskUnits="userSpaceOnUse" x="735.5" y="11.5" width="720" height="256" id="mask-2_2_">
					<g class="st5">
						<rect id="path-1_3_" y="0" class="st2" width="1900" height="269"/>
					</g>
				</mask>
				<g id="Group-29_1_" class="st6">
					
						<g transform="translate(1095.500000, 160.500000) rotate(90.000000) translate(-1095.500000, -160.500000) translate(777.500000, -199.500000)">
						<path id="Fill-106_1_" class="st4" d="M206.5,1.8c-2,0-3.7,1.7-3.7,3.7c0,2,1.7,3.7,3.7,3.7c2,0,3.7-1.7,3.7-3.7
							C210.2,3.5,208.5,1.8,206.5,1.8 M206.5,11c-3,0-5.5-2.5-5.5-5.5c0-3,2.5-5.5,5.5-5.5c3,0,5.5,2.5,5.5,5.5
							C212,8.5,209.5,11,206.5,11"/>
						<path id="Fill-110_1_" class="st4" d="M406.5,242.8c-2,0-3.7,1.7-3.7,3.7c0,2,1.7,3.7,3.7,3.7c2,0,3.7-1.7,3.7-3.7
							C410.2,244.5,408.5,242.8,406.5,242.8 M406.5,252c-3,0-5.5-2.5-5.5-5.5c0-3,2.5-5.5,5.5-5.5c3,0,5.5,2.5,5.5,5.5
							C412,249.5,409.5,252,406.5,252"/>
						<path id="Fill-112_1_" class="st4" d="M419.5,13.8c-2,0-3.7,1.7-3.7,3.7c0,2,1.7,3.7,3.7,3.7c2,0,3.7-1.7,3.7-3.7
							C423.2,15.5,421.5,13.8,419.5,13.8 M419.5,23c-3,0-5.5-2.5-5.5-5.5c0-3,2.5-5.5,5.5-5.5c3,0,5.5,2.5,5.5,5.5
							C425,20.5,422.5,23,419.5,23"/>
						<path id="Fill-114_1_" class="st4" d="M183.5,111.8c-2,0-3.7,1.7-3.7,3.7c0,2,1.7,3.7,3.7,3.7c2,0,3.7-1.7,3.7-3.7
							C187.2,113.5,185.5,111.8,183.5,111.8 M183.5,121c-3,0-5.5-2.5-5.5-5.5c0-3,2.5-5.5,5.5-5.5c3,0,5.5,2.5,5.5,5.5
							C189,118.5,186.5,121,183.5,121"/>
						<path id="Fill-116_1_" class="st4" d="M225.5,122.8c-2,0-3.7,1.7-3.7,3.7c0,2,1.7,3.7,3.7,3.7c2,0,3.7-1.7,3.7-3.7
							C229.2,124.5,227.5,122.8,225.5,122.8 M225.5,132c-3,0-5.5-2.5-5.5-5.5c0-3,2.5-5.5,5.5-5.5c3,0,5.5,2.5,5.5,5.5
							C231,129.5,228.5,132,225.5,132"/>
						<path id="Fill-118_1_" class="st4" d="M277.5,246.8c-2,0-3.7,1.7-3.7,3.7c0,2,1.7,3.7,3.7,3.7c2,0,3.7-1.7,3.7-3.7
							C281.2,248.5,279.5,246.8,277.5,246.8 M277.5,256c-3,0-5.5-2.5-5.5-5.5c0-3,2.5-5.5,5.5-5.5c3,0,5.5,2.5,5.5,5.5
							C283,253.5,280.5,256,277.5,256"/>
						<path id="Fill-120_1_" class="st4" d="M320.5,287.8c-2,0-3.7,1.7-3.7,3.7c0,2,1.7,3.7,3.7,3.7c2,0,3.7-1.7,3.7-3.7
							C324.2,289.5,322.5,287.8,320.5,287.8 M320.5,297c-3,0-5.5-2.5-5.5-5.5c0-3,2.5-5.5,5.5-5.5c3,0,5.5,2.5,5.5,5.5
							C326,294.5,323.5,297,320.5,297"/>
						<path id="Fill-122_1_" class="st4" d="M209.5,363.8c-2,0-3.7,1.7-3.7,3.7c0,2,1.7,3.7,3.7,3.7c2,0,3.7-1.7,3.7-3.7
							C213.2,365.5,211.5,363.8,209.5,363.8 M209.5,373c-3,0-5.5-2.5-5.5-5.5c0-3,2.5-5.5,5.5-5.5c3,0,5.5,2.5,5.5,5.5
							C215,370.5,212.5,373,209.5,373"/>
						<path id="Fill-124_1_" class="st4" d="M181.5,503.8c-2,0-3.7,1.7-3.7,3.7c0,2,1.7,3.7,3.7,3.7c2,0,3.7-1.7,3.7-3.7
							C185.2,505.5,183.5,503.8,181.5,503.8 M181.5,513c-3,0-5.5-2.5-5.5-5.5c0-3,2.5-5.5,5.5-5.5c3,0,5.5,2.5,5.5,5.5
							C187,510.5,184.5,513,181.5,513"/>
						<path id="Fill-126_1_" class="st4" d="M347.5,421.8c-2,0-3.7,1.7-3.7,3.7c0,2,1.7,3.7,3.7,3.7c2,0,3.7-1.7,3.7-3.7
							C351.2,423.5,349.5,421.8,347.5,421.8 M347.5,431c-3,0-5.5-2.5-5.5-5.5c0-3,2.5-5.5,5.5-5.5c3,0,5.5,2.5,5.5,5.5
							C353,428.5,350.5,431,347.5,431"/>
						<path id="Fill-128_1_" class="st4" d="M257.5,382.8c-2,0-3.7,1.7-3.7,3.7c0,2,1.7,3.7,3.7,3.7c2,0,3.7-1.7,3.7-3.7
							C261.2,384.5,259.5,382.8,257.5,382.8 M257.5,392c-3,0-5.5-2.5-5.5-5.5c0-3,2.5-5.5,5.5-5.5c3,0,5.5,2.5,5.5,5.5
							C263,389.5,260.5,392,257.5,392"/>
						<path id="Fill-133_1_" class="st4" d="M328.5,606.8c-2,0-3.7,1.7-3.7,3.7c0,2,1.7,3.7,3.7,3.7c2,0,3.7-1.7,3.7-3.7
							C332.2,608.5,330.5,606.8,328.5,606.8 M328.5,616c-3,0-5.5-2.5-5.5-5.5c0-3,2.5-5.5,5.5-5.5c3,0,5.5,2.5,5.5,5.5
							C334,613.5,331.5,616,328.5,616"/>
						<path id="Fill-135_1_" class="st4" d="M332.5,489.8c-2,0-3.7,1.7-3.7,3.7c0,2,1.7,3.7,3.7,3.7c2,0,3.7-1.7,3.7-3.7
							C336.2,491.5,334.5,489.8,332.5,489.8 M332.5,499c-3,0-5.5-2.5-5.5-5.5c0-3,2.5-5.5,5.5-5.5c3,0,5.5,2.5,5.5,5.5
							C338,496.5,335.5,499,332.5,499"/>
						<path id="Fill-137_1_" class="st4" d="M403.5,662.8c-2,0-3.7,1.7-3.7,3.7c0,2,1.7,3.7,3.7,3.7c2,0,3.7-1.7,3.7-3.7
							C407.2,664.5,405.5,662.8,403.5,662.8 M403.5,672c-3,0-5.5-2.5-5.5-5.5c0-3,2.5-5.5,5.5-5.5c3,0,5.5,2.5,5.5,5.5
							C409,669.5,406.5,672,403.5,672"/>
						<path id="Fill-139_1_" class="st4" d="M192.5,605.8c-2,0-3.7,1.7-3.7,3.7c0,2,1.7,3.7,3.7,3.7c2,0,3.7-1.7,3.7-3.7
							C196.2,607.5,194.5,605.8,192.5,605.8 M192.5,615c-3,0-5.5-2.5-5.5-5.5c0-3,2.5-5.5,5.5-5.5c3,0,5.5,2.5,5.5,5.5
							C198,612.5,195.5,615,192.5,615"/>
						<path id="Fill-141_1_" class="st4" d="M382.5,606.8c-2,0-3.7,1.7-3.7,3.7c0,2,1.7,3.7,3.7,3.7c2,0,3.7-1.7,3.7-3.7
							C386.2,608.5,384.5,606.8,382.5,606.8 M382.5,616c-3,0-5.5-2.5-5.5-5.5c0-3,2.5-5.5,5.5-5.5c3,0,5.5,2.5,5.5,5.5
							C388,613.5,385.5,616,382.5,616"/>
						<path id="Fill-145_1_" class="st4" d="M293.5,449.8c-2,0-3.7,1.7-3.7,3.7c0,2,1.7,3.7,3.7,3.7c2,0,3.7-1.7,3.7-3.7
							C297.2,451.5,295.5,449.8,293.5,449.8 M293.5,459c-3,0-5.5-2.5-5.5-5.5c0-3,2.5-5.5,5.5-5.5c3,0,5.5,2.5,5.5,5.5
							C299,456.5,296.5,459,293.5,459"/>
						<path id="Fill-147_1_" class="st4" d="M404.5,511.8c-2,0-3.7,1.7-3.7,3.7c0,2,1.7,3.7,3.7,3.7c2,0,3.7-1.7,3.7-3.7
							C408.2,513.5,406.5,511.8,404.5,511.8 M404.5,521c-3,0-5.5-2.5-5.5-5.5c0-3,2.5-5.5,5.5-5.5c3,0,5.5,2.5,5.5,5.5
							C410,518.5,407.5,521,404.5,521"/>
						<path id="Fill-149_1_" class="st4" d="M371.5,36.8c-2,0-3.7,1.7-3.7,3.7c0,2,1.7,3.7,3.7,3.7c2,0,3.7-1.7,3.7-3.7
							C375.2,38.5,373.5,36.8,371.5,36.8 M371.5,46c-3,0-5.5-2.5-5.5-5.5c0-3,2.5-5.5,5.5-5.5c3,0,5.5,2.5,5.5,5.5
							C377,43.5,374.5,46,371.5,46"/>
						<path id="Fill-151_1_" class="st4" d="M269.5,505.9c-0.1,0-0.6,0-0.7,0.6l-0.5,1.9c-0.2,0.9-1,1.6-1.9,1.9l-1.9,0.5
							c-0.5,0.1-0.6,0.6-0.6,0.7s0,0.6,0.6,0.7l1.9,0.5c0.9,0.2,1.6,1,1.9,1.9l0.5,1.9c0.1,0.5,0.6,0.6,0.7,0.6s0.6,0,0.7-0.6
							l0.5-1.9c0.2-0.9,1-1.6,1.9-1.9l1.9-0.5c0.5-0.1,0.6-0.6,0.6-0.7s0-0.6-0.6-0.7l-1.9-0.5c-0.9-0.2-1.6-1-1.9-1.9l-0.5-1.9
							C270.1,505.9,269.6,505.9,269.5,505.9 M269.5,519c-1.2,0-2.2-0.8-2.6-2l-0.5-1.9c-0.1-0.3-0.3-0.5-0.5-0.5l-1.9-0.5
							c-1.2-0.3-2-1.3-2-2.6c0-1.2,0.8-2.2,2-2.6l1.9-0.5c0.3-0.1,0.5-0.3,0.5-0.5l0.5-1.9c0.3-1.2,1.3-2,2.6-2s2.2,0.8,2.6,2
							l0.5,1.9c0.1,0.3,0.3,0.5,0.5,0.5l1.9,0.5c1.2,0.3,2,1.3,2,2.6c0,1.2-0.8,2.2-2,2.6l-1.9,0.5c-0.3,0.1-0.5,0.3-0.5,0.5
							l-0.5,1.9C271.7,518.2,270.7,519,269.5,519"/>
						<path id="Fill-153_1_" class="st4" d="M256.5,274.9c-0.1,0-0.6,0-0.7,0.6l-0.5,1.9c-0.2,0.9-1,1.6-1.9,1.9l-1.9,0.5
							c-0.5,0.1-0.6,0.6-0.6,0.7s0,0.6,0.6,0.7l1.9,0.5c0.9,0.2,1.6,1,1.9,1.9l0.5,1.9c0.1,0.5,0.6,0.6,0.7,0.6s0.6,0,0.7-0.6
							l0.5-1.9c0.2-0.9,1-1.6,1.9-1.9l1.9-0.5c0.5-0.1,0.6-0.6,0.6-0.7s0-0.6-0.6-0.7l-1.9-0.5c-0.9-0.2-1.6-1-1.9-1.9l-0.5-1.9
							C257.1,274.9,256.6,274.9,256.5,274.9 M256.5,288c-1.2,0-2.2-0.8-2.6-2l-0.5-1.9c-0.1-0.3-0.3-0.5-0.5-0.5l-1.9-0.5
							c-1.2-0.3-2-1.3-2-2.6c0-1.2,0.8-2.2,2-2.6l1.9-0.5c0.3-0.1,0.5-0.3,0.5-0.5l0.5-1.9c0.3-1.2,1.3-2,2.6-2s2.2,0.8,2.6,2
							l0.5,1.9c0.1,0.3,0.3,0.5,0.5,0.5l1.9,0.5c1.2,0.3,2,1.3,2,2.6c0,1.2-0.8,2.2-2,2.6l-1.9,0.5c-0.3,0.1-0.5,0.3-0.5,0.5
							l-0.5,1.9C258.7,287.2,257.7,288,256.5,288"/>
						<path id="Fill-155_1_" class="st4" d="M338.5,152.9c-0.1,0-0.6,0-0.7,0.6l-0.5,1.9c-0.2,0.9-1,1.6-1.9,1.9l-1.9,0.5
							c-0.5,0.1-0.6,0.6-0.6,0.7s0,0.6,0.6,0.7l1.9,0.5c0.9,0.2,1.6,1,1.9,1.9l0.5,1.9c0.1,0.5,0.6,0.6,0.7,0.6s0.6,0,0.7-0.6
							l0.5-1.9c0.2-0.9,1-1.6,1.9-1.9l1.9-0.5c0.5-0.1,0.6-0.6,0.6-0.7s0-0.6-0.6-0.7l-1.9-0.5c-0.9-0.2-1.6-1-1.9-1.9l-0.5-1.9
							C339.1,152.9,338.6,152.9,338.5,152.9 M338.5,166c-1.2,0-2.2-0.8-2.6-2l-0.5-1.9c-0.1-0.3-0.3-0.5-0.5-0.5l-1.9-0.5
							c-1.2-0.3-2-1.3-2-2.6c0-1.2,0.8-2.2,2-2.6l1.9-0.5c0.3-0.1,0.5-0.3,0.5-0.5l0.5-1.9c0.3-1.2,1.3-2,2.6-2s2.2,0.8,2.6,2
							l0.5,1.9c0.1,0.3,0.3,0.5,0.5,0.5l1.9,0.5c1.2,0.3,2,1.3,2,2.6c0,1.2-0.8,2.2-2,2.6l-1.9,0.5c-0.3,0.1-0.5,0.3-0.5,0.5
							l-0.5,1.9C340.7,165.2,339.7,166,338.5,166"/>
						<path id="Fill-157_1_" class="st4" d="M226.5,545.9c-0.1,0-0.6,0-0.7,0.6l-0.5,1.9c-0.2,0.9-1,1.6-1.9,1.9l-1.9,0.5
							c-0.5,0.1-0.6,0.6-0.6,0.7c0,0.1,0,0.6,0.6,0.7l1.9,0.5c0.9,0.2,1.6,1,1.9,1.9l0.5,1.9c0.1,0.5,0.6,0.6,0.7,0.6s0.6,0,0.7-0.6
							l0.5-1.9c0.2-0.9,1-1.6,1.9-1.9l1.9-0.5c0.5-0.1,0.6-0.6,0.6-0.7c0-0.1,0-0.6-0.6-0.7l-1.9-0.5c-0.9-0.2-1.6-1-1.9-1.9
							l-0.5-1.9C227.1,545.9,226.6,545.9,226.5,545.9 M226.5,559c-1.2,0-2.2-0.8-2.6-2l-0.5-1.9c-0.1-0.3-0.3-0.5-0.5-0.5l-1.9-0.5
							c-1.2-0.3-2-1.3-2-2.6c0-1.2,0.8-2.2,2-2.6l1.9-0.5c0.3-0.1,0.5-0.3,0.5-0.5l0.5-1.9c0.3-1.2,1.3-2,2.6-2s2.2,0.8,2.6,2
							l0.5,1.9c0.1,0.3,0.3,0.5,0.5,0.5l1.9,0.5c1.2,0.3,2,1.3,2,2.6c0,1.2-0.8,2.2-2,2.6l-1.9,0.5c-0.3,0.1-0.5,0.3-0.5,0.5
							l-0.5,1.9C228.7,558.2,227.7,559,226.5,559"/>
						<path id="Fill-159_2_" class="st4" d="M228.5,452.9c-0.1,0-0.6,0-0.7,0.6l-0.5,1.9c-0.2,0.9-1,1.6-1.9,1.9l-1.9,0.5
							c-0.5,0.1-0.6,0.6-0.6,0.7s0,0.6,0.6,0.7l1.9,0.5c0.9,0.2,1.6,1,1.9,1.9l0.5,1.9c0.1,0.5,0.6,0.6,0.7,0.6s0.6,0,0.7-0.6
							l0.5-1.9c0.2-0.9,1-1.6,1.9-1.9l1.9-0.5c0.5-0.1,0.6-0.6,0.6-0.7s0-0.6-0.6-0.7l-1.9-0.5c-0.9-0.2-1.6-1-1.9-1.9l-0.5-1.9
							C229.1,452.9,228.6,452.9,228.5,452.9 M228.5,466c-1.2,0-2.2-0.8-2.6-2l-0.5-1.9c-0.1-0.3-0.3-0.5-0.5-0.5l-1.9-0.5
							c-1.2-0.3-2-1.3-2-2.6c0-1.2,0.8-2.2,2-2.6l1.9-0.5c0.3-0.1,0.5-0.3,0.5-0.5l0.5-1.9c0.3-1.2,1.3-2,2.6-2s2.2,0.8,2.6,2
							l0.5,1.9c0.1,0.3,0.3,0.5,0.5,0.5l1.9,0.5c1.2,0.3,2,1.3,2,2.6c0,1.2-0.8,2.2-2,2.6l-1.9,0.5c-0.3,0.1-0.5,0.3-0.5,0.5
							l-0.5,1.9C230.7,465.2,229.7,466,228.5,466"/>
						<path id="Fill-161_2_" class="st4" d="M259.5,641.9c-0.1,0-0.6,0-0.7,0.6l-0.5,1.9c-0.2,0.9-1,1.6-1.9,1.9l-1.9,0.5
							c-0.5,0.1-0.6,0.6-0.6,0.7c0,0.1,0,0.6,0.6,0.7l1.9,0.5c0.9,0.2,1.6,1,1.9,1.9l0.5,1.9c0.1,0.5,0.6,0.6,0.7,0.6s0.6,0,0.7-0.6
							l0.5-1.9c0.2-0.9,1-1.6,1.9-1.9l1.9-0.5c0.5-0.1,0.6-0.6,0.6-0.7c0-0.1,0-0.6-0.6-0.7l-1.9-0.5c-0.9-0.2-1.6-1-1.9-1.9
							l-0.5-1.9C260.1,641.9,259.6,641.9,259.5,641.9 M259.5,655c-1.2,0-2.2-0.8-2.6-2l-0.5-1.9c-0.1-0.3-0.3-0.5-0.5-0.5l-1.9-0.5
							c-1.2-0.3-2-1.3-2-2.6c0-1.2,0.8-2.2,2-2.6l1.9-0.5c0.3-0.1,0.5-0.3,0.5-0.5l0.5-1.9c0.3-1.2,1.3-2,2.6-2s2.2,0.8,2.6,2
							l0.5,1.9c0.1,0.3,0.3,0.5,0.5,0.5l1.9,0.5c1.2,0.3,2,1.3,2,2.6c0,1.2-0.8,2.2-2,2.6l-1.9,0.5c-0.3,0.1-0.5,0.3-0.5,0.5
							l-0.5,1.9C261.7,654.2,260.7,655,259.5,655"/>
						<path id="Fill-171_1_" class="st4" d="M401.5,398.9c-0.1,0-0.6,0-0.7,0.6l-0.5,1.9c-0.2,0.9-1,1.6-1.9,1.9l-1.9,0.5
							c-0.5,0.1-0.6,0.6-0.6,0.7s0,0.6,0.6,0.7l1.9,0.5c0.9,0.2,1.6,1,1.9,1.9l0.5,1.9c0.1,0.5,0.6,0.6,0.7,0.6s0.6,0,0.7-0.6
							l0.5-1.9c0.2-0.9,1-1.6,1.9-1.9l1.9-0.5c0.5-0.1,0.6-0.6,0.6-0.7s0-0.6-0.6-0.7l-1.9-0.5c-0.9-0.2-1.6-1-1.9-1.9l-0.5-1.9
							C402.1,398.9,401.6,398.9,401.5,398.9 M401.5,412c-1.2,0-2.2-0.8-2.6-2l-0.5-1.9c-0.1-0.3-0.3-0.5-0.5-0.5l-1.9-0.5
							c-1.2-0.3-2-1.3-2-2.6c0-1.2,0.8-2.2,2-2.6l1.9-0.5c0.3-0.1,0.5-0.3,0.5-0.5l0.5-1.9c0.3-1.2,1.3-2,2.6-2s2.2,0.8,2.6,2
							l0.5,1.9c0.1,0.3,0.3,0.5,0.5,0.5l1.9,0.5c1.2,0.3,2,1.3,2,2.6c0,1.2-0.8,2.2-2,2.6l-1.9,0.5c-0.3,0.1-0.5,0.3-0.5,0.5
							l-0.5,1.9C403.7,411.2,402.7,412,401.5,412"/>
						<path id="Fill-159_3_" class="st4" d="M367.1,541.5c0-0.1,0-0.6-0.6-0.7l-1.9-0.5c-0.9-0.2-1.6-1-1.9-1.9l-0.5-1.9
							c-0.1-0.5-0.6-0.6-0.7-0.6c-0.1,0-0.6,0-0.7,0.6l-0.5,1.9c-0.2,0.9-1,1.6-1.9,1.9l-1.9,0.5c-0.5,0.1-0.6,0.6-0.6,0.7
							s0,0.6,0.6,0.7l1.9,0.5c0.9,0.2,1.6,1,1.9,1.9l0.5,1.9c0.1,0.5,0.6,0.6,0.7,0.6c0.1,0,0.6,0,0.7-0.6l0.5-1.9
							c0.2-0.9,1-1.6,1.9-1.9l1.9-0.5C367.1,542.1,367.1,541.6,367.1,541.5 M354,541.5c0-1.2,0.8-2.2,2-2.6l1.9-0.5
							c0.3-0.1,0.5-0.3,0.5-0.5l0.5-1.9c0.3-1.2,1.3-2,2.6-2c1.2,0,2.2,0.8,2.6,2l0.5,1.9c0.1,0.3,0.3,0.5,0.5,0.5l1.9,0.5
							c1.2,0.3,2,1.3,2,2.6s-0.8,2.2-2,2.6l-1.9,0.5c-0.3,0.1-0.5,0.3-0.5,0.5l-0.5,1.9c-0.3,1.2-1.3,2-2.6,2c-1.2,0-2.2-0.8-2.6-2
							l-0.5-1.9c-0.1-0.3-0.3-0.5-0.5-0.5l-1.9-0.5C354.8,543.7,354,542.7,354,541.5"/>
						<path id="Fill-173_1_" class="st4" d="M305.5,553.9c-0.1,0-0.6,0-0.7,0.6l-0.5,1.9c-0.2,0.9-1,1.6-1.9,1.9l-1.9,0.5
							c-0.5,0.1-0.6,0.6-0.6,0.7c0,0.1,0,0.6,0.6,0.7l1.9,0.5c0.9,0.2,1.6,1,1.9,1.9l0.5,1.9c0.1,0.5,0.6,0.6,0.7,0.6s0.6,0,0.7-0.6
							l0.5-1.9c0.2-0.9,1-1.6,1.9-1.9l1.9-0.5c0.5-0.1,0.6-0.6,0.6-0.7c0-0.1,0-0.6-0.6-0.7l-1.9-0.5c-0.9-0.2-1.6-1-1.9-1.9
							l-0.5-1.9C306.1,553.9,305.6,553.9,305.5,553.9 M305.5,567c-1.2,0-2.2-0.8-2.6-2l-0.5-1.9c-0.1-0.3-0.3-0.5-0.5-0.5l-1.9-0.5
							c-1.2-0.3-2-1.3-2-2.6c0-1.2,0.8-2.2,2-2.6l1.9-0.5c0.3-0.1,0.5-0.3,0.5-0.5l0.5-1.9c0.3-1.2,1.3-2,2.6-2s2.2,0.8,2.6,2
							l0.5,1.9c0.1,0.3,0.3,0.5,0.5,0.5l1.9,0.5c1.2,0.3,2,1.3,2,2.6c0,1.2-0.8,2.2-2,2.6l-1.9,0.5c-0.3,0.1-0.5,0.3-0.5,0.5
							l-0.5,1.9C307.7,566.2,306.7,567,305.5,567"/>
						<path id="Fill-161_3_" class="st4" d="M393.5,706.9c-0.1,0-0.6,0-0.7,0.6l-0.5,1.9c-0.2,0.9-1,1.6-1.9,1.9l-1.9,0.5
							c-0.5,0.1-0.6,0.6-0.6,0.7c0,0.1,0,0.6,0.6,0.7l1.9,0.5c0.9,0.2,1.6,1,1.9,1.9l0.5,1.9c0.1,0.5,0.6,0.6,0.7,0.6s0.6,0,0.7-0.6
							l0.5-1.9c0.2-0.9,1-1.6,1.9-1.9l1.9-0.5c0.5-0.1,0.6-0.6,0.6-0.7c0-0.1,0-0.6-0.6-0.7l-1.9-0.5c-0.9-0.2-1.6-1-1.9-1.9
							l-0.5-1.9C394.1,706.9,393.6,706.9,393.5,706.9 M393.5,720c-1.2,0-2.2-0.8-2.6-2l-0.5-1.9c-0.1-0.3-0.3-0.5-0.5-0.5l-1.9-0.5
							c-1.2-0.3-2-1.3-2-2.6c0-1.2,0.8-2.2,2-2.6l1.9-0.5c0.3-0.1,0.5-0.3,0.5-0.5l0.5-1.9c0.3-1.2,1.3-2,2.6-2s2.2,0.8,2.6,2
							l0.5,1.9c0.1,0.3,0.3,0.5,0.5,0.5l1.9,0.5c1.2,0.3,2,1.3,2,2.6c0,1.2-0.8,2.2-2,2.6l-1.9,0.5c-0.3,0.1-0.5,0.3-0.5,0.5
							l-0.5,1.9C395.7,719.2,394.7,720,393.5,720"/>
						<path id="Fill-175_1_" class="st4" d="M264.5,71.9c-0.1,0-0.6,0-0.7,0.6l-0.5,1.9c-0.2,0.9-1,1.6-1.9,1.9l-1.9,0.5
							c-0.5,0.1-0.6,0.6-0.6,0.7s0,0.6,0.6,0.7l1.9,0.5c0.9,0.2,1.6,1,1.9,1.9l0.5,1.9c0.1,0.5,0.6,0.6,0.7,0.6s0.6,0,0.7-0.6
							l0.5-1.9c0.2-0.9,1-1.6,1.9-1.9l1.9-0.5c0.5-0.1,0.6-0.6,0.6-0.7s0-0.6-0.6-0.7l-1.9-0.5c-0.9-0.2-1.6-1-1.9-1.9l-0.5-1.9
							C265.1,71.9,264.6,71.9,264.5,71.9 M264.5,85c-1.2,0-2.2-0.8-2.6-2l-0.5-1.9c-0.1-0.3-0.3-0.5-0.5-0.5l-1.9-0.5
							c-1.2-0.3-2-1.3-2-2.6c0-1.2,0.8-2.2,2-2.6l1.9-0.5c0.3-0.1,0.5-0.3,0.5-0.5l0.5-1.9c0.3-1.2,1.3-2,2.6-2s2.2,0.8,2.6,2
							l0.5,1.9c0.1,0.3,0.3,0.5,0.5,0.5l1.9,0.5c1.2,0.3,2,1.3,2,2.6c0,1.2-0.8,2.2-2,2.6l-1.9,0.5c-0.3,0.1-0.5,0.3-0.5,0.5
							l-0.5,1.9C266.7,84.2,265.7,85,264.5,85"/>
						<path id="Fill-179_1_" class="st4" d="M176.5,210.9c-0.1,0-0.6,0-0.7,0.6l-0.5,1.9c-0.2,0.9-1,1.6-1.9,1.9l-1.9,0.5
							c-0.5,0.1-0.6,0.6-0.6,0.7s0,0.6,0.6,0.7l1.9,0.5c0.9,0.2,1.6,1,1.9,1.9l0.5,1.9c0.1,0.5,0.6,0.6,0.7,0.6s0.6,0,0.7-0.6
							l0.5-1.9c0.2-0.9,1-1.6,1.9-1.9l1.9-0.5c0.5-0.1,0.6-0.6,0.6-0.7s0-0.6-0.6-0.7l-1.9-0.5c-0.9-0.2-1.6-1-1.9-1.9l-0.5-1.9
							C177.1,210.9,176.6,210.9,176.5,210.9 M176.5,224c-1.2,0-2.2-0.8-2.6-2l-0.5-1.9c-0.1-0.3-0.3-0.5-0.5-0.5l-1.9-0.5
							c-1.2-0.3-2-1.3-2-2.6c0-1.2,0.8-2.2,2-2.6l1.9-0.5c0.3-0.1,0.5-0.3,0.5-0.5l0.5-1.9c0.3-1.2,1.3-2,2.6-2s2.2,0.8,2.6,2
							l0.5,1.9c0.1,0.3,0.3,0.5,0.5,0.5l1.9,0.5c1.2,0.3,2,1.3,2,2.6c0,1.2-0.8,2.2-2,2.6l-1.9,0.5c-0.3,0.1-0.5,0.3-0.5,0.5
							l-0.5,1.9C178.7,223.2,177.7,224,176.5,224"/>
					</g>
				</g>
				<defs>
					<filter id="Adobe_OpacityMaskFilter_2_" filterUnits="userSpaceOnUse" x="1543.5" y="18.5" width="340" height="234">
						<feColorMatrix  type="matrix" values="1 0 0 0 0  0 1 0 0 0  0 0 1 0 0  0 0 0 1 0"/>
					</filter>
				</defs>
				<mask maskUnits="userSpaceOnUse" x="1543.5" y="18.5" width="340" height="234" id="mask-2_3_">
					<g class="st7">
						<rect id="path-1_4_" y="0" class="st2" width="1900" height="269"/>
					</g>
				</mask>
				<g id="Group-29_2_" class="st8">
					
						<g transform="translate(1894.500000, 160.500000) rotate(90.000000) translate(-1894.500000, -160.500000) translate(1576.500000, -190.500000)">
						<path id="Fill-122_2_" class="st4" d="M209.5,363.8c-2,0-3.7,1.7-3.7,3.7c0,2,1.7,3.7,3.7,3.7c2,0,3.7-1.7,3.7-3.7
							C213.2,365.5,211.5,363.8,209.5,363.8 M209.5,373c-3,0-5.5-2.5-5.5-5.5c0-3,2.5-5.5,5.5-5.5c3,0,5.5,2.5,5.5,5.5
							C215,370.5,212.5,373,209.5,373"/>
						<path id="Fill-124_2_" class="st4" d="M181.5,503.8c-2,0-3.7,1.7-3.7,3.7c0,2,1.7,3.7,3.7,3.7c2,0,3.7-1.7,3.7-3.7
							C185.2,505.5,183.5,503.8,181.5,503.8 M181.5,513c-3,0-5.5-2.5-5.5-5.5c0-3,2.5-5.5,5.5-5.5c3,0,5.5,2.5,5.5,5.5
							C187,510.5,184.5,513,181.5,513"/>
						<path id="Fill-126_2_" class="st4" d="M347.5,421.8c-2,0-3.7,1.7-3.7,3.7c0,2,1.7,3.7,3.7,3.7c2,0,3.7-1.7,3.7-3.7
							C351.2,423.5,349.5,421.8,347.5,421.8 M347.5,431c-3,0-5.5-2.5-5.5-5.5c0-3,2.5-5.5,5.5-5.5c3,0,5.5,2.5,5.5,5.5
							C353,428.5,350.5,431,347.5,431"/>
						<path id="Fill-128_2_" class="st4" d="M257.5,382.8c-2,0-3.7,1.7-3.7,3.7c0,2,1.7,3.7,3.7,3.7c2,0,3.7-1.7,3.7-3.7
							C261.2,384.5,259.5,382.8,257.5,382.8 M257.5,392c-3,0-5.5-2.5-5.5-5.5c0-3,2.5-5.5,5.5-5.5c3,0,5.5,2.5,5.5,5.5
							C263,389.5,260.5,392,257.5,392"/>
						<path id="Fill-133_2_" class="st4" d="M328.5,606.8c-2,0-3.7,1.7-3.7,3.7c0,2,1.7,3.7,3.7,3.7c2,0,3.7-1.7,3.7-3.7
							C332.2,608.5,330.5,606.8,328.5,606.8 M328.5,616c-3,0-5.5-2.5-5.5-5.5c0-3,2.5-5.5,5.5-5.5c3,0,5.5,2.5,5.5,5.5
							C334,613.5,331.5,616,328.5,616"/>
						<path id="Fill-135_2_" class="st4" d="M332.5,489.8c-2,0-3.7,1.7-3.7,3.7c0,2,1.7,3.7,3.7,3.7c2,0,3.7-1.7,3.7-3.7
							C336.2,491.5,334.5,489.8,332.5,489.8 M332.5,499c-3,0-5.5-2.5-5.5-5.5c0-3,2.5-5.5,5.5-5.5c3,0,5.5,2.5,5.5,5.5
							C338,496.5,335.5,499,332.5,499"/>
						<path id="Fill-137_2_" class="st4" d="M303.5,692.8c-2,0-3.7,1.7-3.7,3.7c0,2,1.7,3.7,3.7,3.7c2,0,3.7-1.7,3.7-3.7
							C307.2,694.5,305.5,692.8,303.5,692.8 M303.5,702c-3,0-5.5-2.5-5.5-5.5c0-3,2.5-5.5,5.5-5.5c3,0,5.5,2.5,5.5,5.5
							C309,699.5,306.5,702,303.5,702"/>
						<path id="Fill-139_2_" class="st4" d="M192.5,605.8c-2,0-3.7,1.7-3.7,3.7c0,2,1.7,3.7,3.7,3.7c2,0,3.7-1.7,3.7-3.7
							C196.2,607.5,194.5,605.8,192.5,605.8 M192.5,615c-3,0-5.5-2.5-5.5-5.5c0-3,2.5-5.5,5.5-5.5c3,0,5.5,2.5,5.5,5.5
							C198,612.5,195.5,615,192.5,615"/>
						<path id="Fill-141_2_" class="st4" d="M382.5,606.8c-2,0-3.7,1.7-3.7,3.7c0,2,1.7,3.7,3.7,3.7c2,0,3.7-1.7,3.7-3.7
							C386.2,608.5,384.5,606.8,382.5,606.8 M382.5,616c-3,0-5.5-2.5-5.5-5.5c0-3,2.5-5.5,5.5-5.5c3,0,5.5,2.5,5.5,5.5
							C388,613.5,385.5,616,382.5,616"/>
						<path id="Fill-145_2_" class="st4" d="M293.5,449.8c-2,0-3.7,1.7-3.7,3.7c0,2,1.7,3.7,3.7,3.7c2,0,3.7-1.7,3.7-3.7
							C297.2,451.5,295.5,449.8,293.5,449.8 M293.5,459c-3,0-5.5-2.5-5.5-5.5c0-3,2.5-5.5,5.5-5.5c3,0,5.5,2.5,5.5,5.5
							C299,456.5,296.5,459,293.5,459"/>
						<path id="Fill-147_2_" class="st4" d="M404.5,511.8c-2,0-3.7,1.7-3.7,3.7c0,2,1.7,3.7,3.7,3.7c2,0,3.7-1.7,3.7-3.7
							C408.2,513.5,406.5,511.8,404.5,511.8 M404.5,521c-3,0-5.5-2.5-5.5-5.5c0-3,2.5-5.5,5.5-5.5c3,0,5.5,2.5,5.5,5.5
							C410,518.5,407.5,521,404.5,521"/>
						<path id="Fill-151_2_" class="st4" d="M269.5,505.9c-0.1,0-0.6,0-0.7,0.6l-0.5,1.9c-0.2,0.9-1,1.6-1.9,1.9l-1.9,0.5
							c-0.5,0.1-0.6,0.6-0.6,0.7s0,0.6,0.6,0.7l1.9,0.5c0.9,0.2,1.6,1,1.9,1.9l0.5,1.9c0.1,0.5,0.6,0.6,0.7,0.6s0.6,0,0.7-0.6
							l0.5-1.9c0.2-0.9,1-1.6,1.9-1.9l1.9-0.5c0.5-0.1,0.6-0.6,0.6-0.7s0-0.6-0.6-0.7l-1.9-0.5c-0.9-0.2-1.6-1-1.9-1.9l-0.5-1.9
							C270.1,505.9,269.6,505.9,269.5,505.9 M269.5,519c-1.2,0-2.2-0.8-2.6-2l-0.5-1.9c-0.1-0.3-0.3-0.5-0.5-0.5l-1.9-0.5
							c-1.2-0.3-2-1.3-2-2.6c0-1.2,0.8-2.2,2-2.6l1.9-0.5c0.3-0.1,0.5-0.3,0.5-0.5l0.5-1.9c0.3-1.2,1.3-2,2.6-2s2.2,0.8,2.6,2
							l0.5,1.9c0.1,0.3,0.3,0.5,0.5,0.5l1.9,0.5c1.2,0.3,2,1.3,2,2.6c0,1.2-0.8,2.2-2,2.6l-1.9,0.5c-0.3,0.1-0.5,0.3-0.5,0.5
							l-0.5,1.9C271.7,518.2,270.7,519,269.5,519"/>
						<path id="Fill-157_2_" class="st4" d="M226.5,545.9c-0.1,0-0.6,0-0.7,0.6l-0.5,1.9c-0.2,0.9-1,1.6-1.9,1.9l-1.9,0.5
							c-0.5,0.1-0.6,0.6-0.6,0.7c0,0.1,0,0.6,0.6,0.7l1.9,0.5c0.9,0.2,1.6,1,1.9,1.9l0.5,1.9c0.1,0.5,0.6,0.6,0.7,0.6s0.6,0,0.7-0.6
							l0.5-1.9c0.2-0.9,1-1.6,1.9-1.9l1.9-0.5c0.5-0.1,0.6-0.6,0.6-0.7c0-0.1,0-0.6-0.6-0.7l-1.9-0.5c-0.9-0.2-1.6-1-1.9-1.9
							l-0.5-1.9C227.1,545.9,226.6,545.9,226.5,545.9 M226.5,559c-1.2,0-2.2-0.8-2.6-2l-0.5-1.9c-0.1-0.3-0.3-0.5-0.5-0.5l-1.9-0.5
							c-1.2-0.3-2-1.3-2-2.6c0-1.2,0.8-2.2,2-2.6l1.9-0.5c0.3-0.1,0.5-0.3,0.5-0.5l0.5-1.9c0.3-1.2,1.3-2,2.6-2s2.2,0.8,2.6,2
							l0.5,1.9c0.1,0.3,0.3,0.5,0.5,0.5l1.9,0.5c1.2,0.3,2,1.3,2,2.6c0,1.2-0.8,2.2-2,2.6l-1.9,0.5c-0.3,0.1-0.5,0.3-0.5,0.5
							l-0.5,1.9C228.7,558.2,227.7,559,226.5,559"/>
						<path id="Fill-159_4_" class="st4" d="M228.5,452.9c-0.1,0-0.6,0-0.7,0.6l-0.5,1.9c-0.2,0.9-1,1.6-1.9,1.9l-1.9,0.5
							c-0.5,0.1-0.6,0.6-0.6,0.7s0,0.6,0.6,0.7l1.9,0.5c0.9,0.2,1.6,1,1.9,1.9l0.5,1.9c0.1,0.5,0.6,0.6,0.7,0.6s0.6,0,0.7-0.6
							l0.5-1.9c0.2-0.9,1-1.6,1.9-1.9l1.9-0.5c0.5-0.1,0.6-0.6,0.6-0.7s0-0.6-0.6-0.7l-1.9-0.5c-0.9-0.2-1.6-1-1.9-1.9l-0.5-1.9
							C229.1,452.9,228.6,452.9,228.5,452.9 M228.5,466c-1.2,0-2.2-0.8-2.6-2l-0.5-1.9c-0.1-0.3-0.3-0.5-0.5-0.5l-1.9-0.5
							c-1.2-0.3-2-1.3-2-2.6c0-1.2,0.8-2.2,2-2.6l1.9-0.5c0.3-0.1,0.5-0.3,0.5-0.5l0.5-1.9c0.3-1.2,1.3-2,2.6-2s2.2,0.8,2.6,2
							l0.5,1.9c0.1,0.3,0.3,0.5,0.5,0.5l1.9,0.5c1.2,0.3,2,1.3,2,2.6c0,1.2-0.8,2.2-2,2.6l-1.9,0.5c-0.3,0.1-0.5,0.3-0.5,0.5
							l-0.5,1.9C230.7,465.2,229.7,466,228.5,466"/>
						<path id="Fill-161_4_" class="st4" d="M259.5,641.9c-0.1,0-0.6,0-0.7,0.6l-0.5,1.9c-0.2,0.9-1,1.6-1.9,1.9l-1.9,0.5
							c-0.5,0.1-0.6,0.6-0.6,0.7c0,0.1,0,0.6,0.6,0.7l1.9,0.5c0.9,0.2,1.6,1,1.9,1.9l0.5,1.9c0.1,0.5,0.6,0.6,0.7,0.6s0.6,0,0.7-0.6
							l0.5-1.9c0.2-0.9,1-1.6,1.9-1.9l1.9-0.5c0.5-0.1,0.6-0.6,0.6-0.7c0-0.1,0-0.6-0.6-0.7l-1.9-0.5c-0.9-0.2-1.6-1-1.9-1.9
							l-0.5-1.9C260.1,641.9,259.6,641.9,259.5,641.9 M259.5,655c-1.2,0-2.2-0.8-2.6-2l-0.5-1.9c-0.1-0.3-0.3-0.5-0.5-0.5l-1.9-0.5
							c-1.2-0.3-2-1.3-2-2.6c0-1.2,0.8-2.2,2-2.6l1.9-0.5c0.3-0.1,0.5-0.3,0.5-0.5l0.5-1.9c0.3-1.2,1.3-2,2.6-2s2.2,0.8,2.6,2
							l0.5,1.9c0.1,0.3,0.3,0.5,0.5,0.5l1.9,0.5c1.2,0.3,2,1.3,2,2.6c0,1.2-0.8,2.2-2,2.6l-1.9,0.5c-0.3,0.1-0.5,0.3-0.5,0.5
							l-0.5,1.9C261.7,654.2,260.7,655,259.5,655"/>
						<path id="Fill-171_2_" class="st4" d="M401.5,398.9c-0.1,0-0.6,0-0.7,0.6l-0.5,1.9c-0.2,0.9-1,1.6-1.9,1.9l-1.9,0.5
							c-0.5,0.1-0.6,0.6-0.6,0.7s0,0.6,0.6,0.7l1.9,0.5c0.9,0.2,1.6,1,1.9,1.9l0.5,1.9c0.1,0.5,0.6,0.6,0.7,0.6s0.6,0,0.7-0.6
							l0.5-1.9c0.2-0.9,1-1.6,1.9-1.9l1.9-0.5c0.5-0.1,0.6-0.6,0.6-0.7s0-0.6-0.6-0.7l-1.9-0.5c-0.9-0.2-1.6-1-1.9-1.9l-0.5-1.9
							C402.1,398.9,401.6,398.9,401.5,398.9 M401.5,412c-1.2,0-2.2-0.8-2.6-2l-0.5-1.9c-0.1-0.3-0.3-0.5-0.5-0.5l-1.9-0.5
							c-1.2-0.3-2-1.3-2-2.6c0-1.2,0.8-2.2,2-2.6l1.9-0.5c0.3-0.1,0.5-0.3,0.5-0.5l0.5-1.9c0.3-1.2,1.3-2,2.6-2s2.2,0.8,2.6,2
							l0.5,1.9c0.1,0.3,0.3,0.5,0.5,0.5l1.9,0.5c1.2,0.3,2,1.3,2,2.6c0,1.2-0.8,2.2-2,2.6l-1.9,0.5c-0.3,0.1-0.5,0.3-0.5,0.5
							l-0.5,1.9C403.7,411.2,402.7,412,401.5,412"/>
						<path id="Fill-159_5_" class="st4" d="M367.1,541.5c0-0.1,0-0.6-0.6-0.7l-1.9-0.5c-0.9-0.2-1.6-1-1.9-1.9l-0.5-1.9
							c-0.1-0.5-0.6-0.6-0.7-0.6c-0.1,0-0.6,0-0.7,0.6l-0.5,1.9c-0.2,0.9-1,1.6-1.9,1.9l-1.9,0.5c-0.5,0.1-0.6,0.6-0.6,0.7
							s0,0.6,0.6,0.7l1.9,0.5c0.9,0.2,1.6,1,1.9,1.9l0.5,1.9c0.1,0.5,0.6,0.6,0.7,0.6c0.1,0,0.6,0,0.7-0.6l0.5-1.9
							c0.2-0.9,1-1.6,1.9-1.9l1.9-0.5C367.1,542.1,367.1,541.6,367.1,541.5 M354,541.5c0-1.2,0.8-2.2,2-2.6l1.9-0.5
							c0.3-0.1,0.5-0.3,0.5-0.5l0.5-1.9c0.3-1.2,1.3-2,2.6-2c1.2,0,2.2,0.8,2.6,2l0.5,1.9c0.1,0.3,0.3,0.5,0.5,0.5l1.9,0.5
							c1.2,0.3,2,1.3,2,2.6s-0.8,2.2-2,2.6l-1.9,0.5c-0.3,0.1-0.5,0.3-0.5,0.5l-0.5,1.9c-0.3,1.2-1.3,2-2.6,2c-1.2,0-2.2-0.8-2.6-2
							l-0.5-1.9c-0.1-0.3-0.3-0.5-0.5-0.5l-1.9-0.5C354.8,543.7,354,542.7,354,541.5"/>
						<path id="Fill-173_2_" class="st4" d="M305.5,553.9c-0.1,0-0.6,0-0.7,0.6l-0.5,1.9c-0.2,0.9-1,1.6-1.9,1.9l-1.9,0.5
							c-0.5,0.1-0.6,0.6-0.6,0.7c0,0.1,0,0.6,0.6,0.7l1.9,0.5c0.9,0.2,1.6,1,1.9,1.9l0.5,1.9c0.1,0.5,0.6,0.6,0.7,0.6s0.6,0,0.7-0.6
							l0.5-1.9c0.2-0.9,1-1.6,1.9-1.9l1.9-0.5c0.5-0.1,0.6-0.6,0.6-0.7c0-0.1,0-0.6-0.6-0.7l-1.9-0.5c-0.9-0.2-1.6-1-1.9-1.9
							l-0.5-1.9C306.1,553.9,305.6,553.9,305.5,553.9 M305.5,567c-1.2,0-2.2-0.8-2.6-2l-0.5-1.9c-0.1-0.3-0.3-0.5-0.5-0.5l-1.9-0.5
							c-1.2-0.3-2-1.3-2-2.6c0-1.2,0.8-2.2,2-2.6l1.9-0.5c0.3-0.1,0.5-0.3,0.5-0.5l0.5-1.9c0.3-1.2,1.3-2,2.6-2s2.2,0.8,2.6,2
							l0.5,1.9c0.1,0.3,0.3,0.5,0.5,0.5l1.9,0.5c1.2,0.3,2,1.3,2,2.6c0,1.2-0.8,2.2-2,2.6l-1.9,0.5c-0.3,0.1-0.5,0.3-0.5,0.5
							l-0.5,1.9C307.7,566.2,306.7,567,305.5,567"/>
						<path id="Fill-161_5_" class="st4" d="M363.5,666.9c-0.1,0-0.6,0-0.7,0.6l-0.5,1.9c-0.2,0.9-1,1.6-1.9,1.9l-1.9,0.5
							c-0.5,0.1-0.6,0.6-0.6,0.7c0,0.1,0,0.6,0.6,0.7l1.9,0.5c0.9,0.2,1.6,1,1.9,1.9l0.5,1.9c0.1,0.5,0.6,0.6,0.7,0.6s0.6,0,0.7-0.6
							l0.5-1.9c0.2-0.9,1-1.6,1.9-1.9l1.9-0.5c0.5-0.1,0.6-0.6,0.6-0.7c0-0.1,0-0.6-0.6-0.7l-1.9-0.5c-0.9-0.2-1.6-1-1.9-1.9
							l-0.5-1.9C364.1,666.9,363.6,666.9,363.5,666.9 M363.5,680c-1.2,0-2.2-0.8-2.6-2l-0.5-1.9c-0.1-0.3-0.3-0.5-0.5-0.5l-1.9-0.5
							c-1.2-0.3-2-1.3-2-2.6c0-1.2,0.8-2.2,2-2.6l1.9-0.5c0.3-0.1,0.5-0.3,0.5-0.5l0.5-1.9c0.3-1.2,1.3-2,2.6-2s2.2,0.8,2.6,2
							l0.5,1.9c0.1,0.3,0.3,0.5,0.5,0.5l1.9,0.5c1.2,0.3,2,1.3,2,2.6c0,1.2-0.8,2.2-2,2.6l-1.9,0.5c-0.3,0.1-0.5,0.3-0.5,0.5
							l-0.5,1.9C365.7,679.2,364.7,680,363.5,680"/>
					</g>
				</g>
			</g>
		</g>
	</g>
</g>
</svg>
