<?xml version="1.0" encoding="utf-8"?>
<!-- Generator: Adobe Illustrator 24.0.0, SVG Export Plug-In . SVG Version: 6.00 Build 0)  -->
<svg version="1.1" id="Layer_1" xmlns="http://www.w3.org/2000/svg" xmlns:xlink="http://www.w3.org/1999/xlink" x="0px" y="0px"
	 viewBox="0 0 17 17" style="enable-background:new 0 0 17 17;" xml:space="preserve">
<style type="text/css">
	.st0{fill:#594FA4;}
	.st1{fill:#69648D;}
	.st2{fill:none;}
</style>
<title>calendar</title>
<desc>Created with Sketch.</desc>
<g id="Page-1">
	<g id="Home-Option2--hover" transform="translate(-614.000000, -1293.000000)">
		<g id="Group-42" transform="translate(321.000000, 1022.000000)">
			<g id="Group-33" transform="translate(293.000000, 269.000000)">
				<g id="calendar" transform="translate(0.000000, 2.000000)">
					<path id="Shape" class="st0" d="M12.2,6.8c-2.7,0-4.8,2.2-4.8,4.8s2.2,4.8,4.8,4.8s4.8-2.2,4.8-4.8C17,9,14.8,6.8,12.2,6.8z
						 M12.2,15.9c-2.3,0-4.2-1.9-4.2-4.2s1.9-4.3,4.2-4.3s4.2,1.9,4.2,4.3C16.4,14,14.5,15.9,12.2,15.9z"/>
					<path id="Shape_1_" class="st1" d="M12.5,10.8V9.1h-0.6v1.8c-0.2,0.1-0.4,0.3-0.5,0.5h-1.2v0.6h1.2c0.1,0.4,0.5,0.6,0.9,0.6
						c0.4,0,0.7-0.4,0.7-0.7C13.1,11.3,12.8,10.9,12.5,10.8z M12.2,11.9c-0.2,0-0.3-0.1-0.3-0.3c0-0.2,0.1-0.3,0.3-0.3
						s0.3,0.1,0.3,0.3C12.5,11.8,12.3,11.9,12.2,11.9z"/>
					<polygon id="Shape_2_" class="st1" points="8.5,11.3 9.1,11.3 9.1,11.9 8.5,11.9 					"/>
					<polygon id="Shape_3_" class="st1" points="11.9,14.7 12.5,14.7 12.5,15.3 11.9,15.3 					"/>
					<polygon id="Shape_4_" class="st1" points="15.3,11.3 15.9,11.3 15.9,11.9 15.3,11.9 					"/>
					<polygon id="Shape_5_" class="st1" points="11.9,7.9 12.5,7.9 12.5,8.5 11.9,8.5 					"/>
					<rect id="Rectangle-7" y="1.7" class="st2" width="13.6" height="1.7"/>
					<path id="Shape_6_" class="st0" d="M0.6,12.2V4h13v2.5h0.6v-4c0-0.8-0.6-1.4-1.4-1.4h-2V0.8c0-0.5-0.4-0.9-0.8-0.9
						C9.4,0,9.1,0.4,9.1,0.8v0.3h-4V0.8C5.1,0.4,4.7,0,4.2,0S3.4,0.4,3.4,0.8v0.3h-2C0.6,1.1,0,1.8,0,2.5v9.6c0,0.8,0.6,1.4,1.4,1.4
						h5.7V13H1.4C0.9,13,0.6,12.7,0.6,12.2z M9.6,0.8c0-0.2,0.1-0.3,0.3-0.3c0.2,0,0.3,0.1,0.3,0.3V2c0,0.2-0.1,0.3-0.3,0.3
						C9.8,2.3,9.6,2.1,9.6,2V0.8z M4,0.8c0-0.2,0.1-0.3,0.3-0.3s0.3,0.1,0.3,0.3V2c0,0.2-0.1,0.3-0.3,0.3S4,2.1,4,2V0.8z M1.4,1.7h2
						V2c0,0.5,0.4,0.9,0.8,0.9S5.1,2.5,5.1,2V1.7h4V2c0,0.5,0.4,0.9,0.9,0.9c0.5,0,0.8-0.4,0.8-0.9V1.7h2c0.5,0,0.9,0.4,0.9,0.9v0.9
						h-13V2.5C0.6,2.1,0.9,1.7,1.4,1.7z"/>
					<path id="Shape_7_" class="st0" d="M4,6.2c0-0.3-0.3-0.6-0.6-0.6H2.3C2,5.7,1.7,5.9,1.7,6.2v1.1c0,0.3,0.3,0.6,0.6,0.6h1.1
						C3.7,7.9,4,7.7,4,7.4V6.2z M2.3,7.4V6.2h1.1v1.1H2.3z"/>
					<path id="Shape_8_" class="st0" d="M6.8,6.2c0-0.3-0.3-0.6-0.6-0.6H5.1c-0.3,0-0.6,0.3-0.6,0.6v1.1c0,0.3,0.3,0.6,0.6,0.6h1.1
						c0.3,0,0.6-0.3,0.6-0.6V6.2z M5.1,7.4V6.2h1.1v1.1H5.1z"/>
					<path id="Shape_9_" class="st0" d="M9.6,7.1V6.2c0-0.3-0.3-0.6-0.6-0.6H7.9c-0.3,0-0.6,0.3-0.6,0.6v1.1c0,0.3,0.3,0.6,0.6,0.6
						h0.6V7.4H7.9V6.2h1.1v0.9H9.6z"/>
					<path id="Shape_10_" class="st0" d="M3.4,9.1H2.3C2,9.1,1.7,9.3,1.7,9.6v1.1c0,0.3,0.3,0.6,0.6,0.6h1.1c0.3,0,0.6-0.3,0.6-0.6
						V9.6C4,9.3,3.7,9.1,3.4,9.1z M2.3,10.8V9.6h1.1v1.1H2.3z"/>
					<path id="Shape_11_" class="st0" d="M6.2,9.1H5.1c-0.3,0-0.6,0.3-0.6,0.6v1.1c0,0.3,0.3,0.6,0.6,0.6h1.1c0.3,0,0.6-0.3,0.6-0.6
						V9.6C6.8,9.3,6.5,9.1,6.2,9.1z M5.1,10.8V9.6h1.1v1.1H5.1z"/>
					<path id="Shape_12_" class="st0" d="M12.5,6.5V6.2c0-0.3-0.3-0.6-0.6-0.6h-1.1c-0.3,0-0.6,0.3-0.6,0.6v0.3h0.6V6.2h1.1v0.3
						H12.5z"/>
				</g>
			</g>
		</g>
	</g>
</g>
</svg>
