<?xml version="1.0" encoding="UTF-8"?>
<svg width="17px" height="17px" viewBox="0 0 17 17" version="1.1" xmlns="http://www.w3.org/2000/svg" xmlns:xlink="http://www.w3.org/1999/xlink">
    <!-- Generator: sketchtool 60.1 (101010) - https://sketch.com -->
    <title>DA61FD26-B8DF-439B-99AF-41D7F820B026</title>
    <desc>Created with sketchtool.</desc>
    <g id="Page-1" stroke="none" stroke-width="1" fill="none" fill-rule="evenodd">
        <g id="Home-Option2--hover" transform="translate(-614.000000, -1293.000000)">
            <g id="Group-42" transform="translate(321.000000, 1022.000000)">
                <g id="Group-33" transform="translate(293.000000, 269.000000)">
                    <g id="calendar" transform="translate(0.000000, 2.000000)">
                        <path d="M12.1833333,6.8 C9.52320964,6.8 7.36666667,8.95654297 7.36666667,11.6166667 C7.36666667,14.2767904 9.52320964,16.4333333 12.1833333,16.4333333 C14.843457,16.4333333 17,14.2767904 17,11.6166667 C16.9970947,8.95778808 14.8422119,6.80290526 12.1833333,6.8 Z M12.1833333,15.8666667 C9.83614907,15.8666667 7.93333333,13.9638509 7.93333333,11.6166667 C7.93333333,9.2694824 9.83614907,7.36666667 12.1833333,7.36666667 C14.5305176,7.36666667 16.4333333,9.2694824 16.4333333,11.6166667 C16.4307047,13.9627442 14.5294108,15.8640381 12.1833333,15.8666667 Z" id="Shape" fill="#2D8FDC" fill-rule="nonzero"></path>
                        <path d="M12.4666667,10.8188232 L12.4666667,9.06666667 L11.9,9.06666667 L11.9,10.8188232 C11.6599691,10.9044596 11.4711263,11.0933024 11.3854899,11.3333333 L10.2,11.3333333 L10.2,11.9 L11.3854899,11.9 C11.5165039,12.2729818 11.8879639,12.505957 12.2808675,12.4615479 C12.6737711,12.4170003 12.983667,12.1071045 13.0282145,11.7142008 C13.0726237,11.3212972 12.8396484,10.9498372 12.4666667,10.8188232 Z M12.1833333,11.9 C12.0268636,11.9 11.9,11.7731364 11.9,11.6166667 C11.9,11.4601969 12.0268636,11.3333333 12.1833333,11.3333333 C12.3398031,11.3333333 12.4666667,11.4601969 12.4666667,11.6166667 C12.4666667,11.7731364 12.3398031,11.9 12.1833333,11.9 Z" id="Shape" fill="#69648D" fill-rule="nonzero"></path>
                        <polygon id="Shape" fill="#69648D" fill-rule="nonzero" points="8.5 11.3333333 9.06666667 11.3333333 9.06666667 11.9 8.5 11.9"></polygon>
                        <polygon id="Shape" fill="#69648D" fill-rule="nonzero" points="11.9 14.7333333 12.4666667 14.7333333 12.4666667 15.3 11.9 15.3"></polygon>
                        <polygon id="Shape" fill="#69648D" fill-rule="nonzero" points="15.3 11.3333333 15.8666667 11.3333333 15.8666667 11.9 15.3 11.9"></polygon>
                        <polygon id="Shape" fill="#69648D" fill-rule="nonzero" points="11.9 7.93333333 12.4666667 7.93333333 12.4666667 8.5 11.9 8.5"></polygon>
                        <rect id="Rectangle-7" x="0" y="1.7" width="13.6" height="1.7"></rect>
                        <path d="M0.566666667,12.1833333 L0.566666667,3.96666667 L13.6,3.96666667 L13.6,6.51666667 L14.1666667,6.51666667 L14.1666667,2.55 C14.1656982,1.76792807 13.5320719,1.13430177 12.75,1.13333333 L10.7666667,1.13333333 L10.7666667,0.85 C10.7666667,0.380590829 10.3860758,0 9.91666667,0 C9.4472575,0 9.06666667,0.380590829 9.06666667,0.85 L9.06666667,1.13333333 L5.1,1.13333333 L5.1,0.85 C5.1,0.380590829 4.71940917,0 4.25,0 C3.78059083,0 3.4,0.380590829 3.4,0.85 L3.4,1.13333333 L1.41666667,1.13333333 C0.634594735,1.13430177 0.00096842625,1.76792807 0,2.55 L0,12.1833333 C0.00096842625,12.9654053 0.634594735,13.5990316 1.41666667,13.6 L7.08333333,13.6 L7.08333333,13.0333333 L1.41666667,13.0333333 C0.947257496,13.0333333 0.566666667,12.6527425 0.566666667,12.1833333 Z M9.63333333,0.85 C9.63333333,0.693530265 9.76019693,0.566666667 9.91666667,0.566666667 C10.0731364,0.566666667 10.2,0.693530265 10.2,0.85 L10.2,1.98333333 C10.2,2.13980307 10.0731364,2.26666667 9.91666667,2.26666667 C9.76019693,2.26666667 9.63333333,2.13980307 9.63333333,1.98333333 L9.63333333,0.85 Z M3.96666667,0.85 C3.96666667,0.693530265 4.09353026,0.566666667 4.25,0.566666667 C4.40646974,0.566666667 4.53333333,0.693530265 4.53333333,0.85 L4.53333333,1.98333333 C4.53333333,2.13980307 4.40646974,2.26666667 4.25,2.26666667 C4.09353026,2.26666667 3.96666667,2.13980307 3.96666667,1.98333333 L3.96666667,0.85 Z M1.41666667,1.7 L3.4,1.7 L3.4,1.98333333 C3.4,2.4527425 3.78059083,2.83333333 4.25,2.83333333 C4.71940917,2.83333333 5.1,2.4527425 5.1,1.98333333 L5.1,1.7 L9.06666667,1.7 L9.06666667,1.98333333 C9.06666667,2.4527425 9.4472575,2.83333333 9.91666667,2.83333333 C10.3860758,2.83333333 10.7666667,2.4527425 10.7666667,1.98333333 L10.7666667,1.7 L12.75,1.7 C13.2194092,1.7 13.6,2.08059083 13.6,2.55 L13.6,3.4 L0.566666667,3.4 L0.566666667,2.55 C0.566666667,2.08059083 0.947257496,1.7 1.41666667,1.7 Z" id="Shape" fill="#2D8FDC" fill-rule="nonzero"></path>
                        <path d="M3.96666667,6.23333333 C3.96666667,5.92039386 3.71293947,5.66666667 3.4,5.66666667 L2.26666667,5.66666667 C1.9537272,5.66666667 1.7,5.92039386 1.7,6.23333333 L1.7,7.36666667 C1.7,7.67960614 1.9537272,7.93333333 2.26666667,7.93333333 L3.4,7.93333333 C3.71293947,7.93333333 3.96666667,7.67960614 3.96666667,7.36666667 L3.96666667,6.23333333 Z M2.26666667,7.36666667 L2.26666667,6.23333333 L3.4,6.23333333 L3.4,7.36666667 L2.26666667,7.36666667 Z" id="Shape" fill="#2D8FDC" fill-rule="nonzero"></path>
                        <path d="M6.8,6.23333333 C6.8,5.92039386 6.5462728,5.66666667 6.23333333,5.66666667 L5.1,5.66666667 C4.78706053,5.66666667 4.53333333,5.92039386 4.53333333,6.23333333 L4.53333333,7.36666667 C4.53333333,7.67960614 4.78706053,7.93333333 5.1,7.93333333 L6.23333333,7.93333333 C6.5462728,7.93333333 6.8,7.67960614 6.8,7.36666667 L6.8,6.23333333 Z M5.1,7.36666667 L5.1,6.23333333 L6.23333333,6.23333333 L6.23333333,7.36666667 L5.1,7.36666667 Z" id="Shape" fill="#2D8FDC" fill-rule="nonzero"></path>
                        <path d="M9.63333333,7.08333333 L9.63333333,6.23333333 C9.63333333,5.92039386 9.37960614,5.66666667 9.06666667,5.66666667 L7.93333333,5.66666667 C7.62039386,5.66666667 7.36666667,5.92039386 7.36666667,6.23333333 L7.36666667,7.36666667 C7.36666667,7.67960614 7.62039386,7.93333333 7.93333333,7.93333333 L8.5,7.93333333 L8.5,7.36666667 L7.93333333,7.36666667 L7.93333333,6.23333333 L9.06666667,6.23333333 L9.06666667,7.08333333 L9.63333333,7.08333333 Z" id="Shape" fill="#2D8FDC" fill-rule="nonzero"></path>
                        <path d="M3.4,9.06666667 L2.26666667,9.06666667 C1.9537272,9.06666667 1.7,9.32039386 1.7,9.63333333 L1.7,10.7666667 C1.7,11.0796061 1.9537272,11.3333333 2.26666667,11.3333333 L3.4,11.3333333 C3.71293947,11.3333333 3.96666667,11.0796061 3.96666667,10.7666667 L3.96666667,9.63333333 C3.96666667,9.32039386 3.71293947,9.06666667 3.4,9.06666667 Z M2.26666667,10.7666667 L2.26666667,9.63333333 L3.4,9.63333333 L3.4,10.7666667 L2.26666667,10.7666667 Z" id="Shape" fill="#2D8FDC" fill-rule="nonzero"></path>
                        <path d="M6.23333333,9.06666667 L5.1,9.06666667 C4.78706053,9.06666667 4.53333333,9.32039386 4.53333333,9.63333333 L4.53333333,10.7666667 C4.53333333,11.0796061 4.78706053,11.3333333 5.1,11.3333333 L6.23333333,11.3333333 C6.5462728,11.3333333 6.8,11.0796061 6.8,10.7666667 L6.8,9.63333333 C6.8,9.32039386 6.5462728,9.06666667 6.23333333,9.06666667 Z M5.1,10.7666667 L5.1,9.63333333 L6.23333333,9.63333333 L6.23333333,10.7666667 L5.1,10.7666667 Z" id="Shape" fill="#2D8FDC" fill-rule="nonzero"></path>
                        <path d="M12.4666667,6.51666667 L12.4666667,6.23333333 C12.4666667,5.92039386 12.2129395,5.66666667 11.9,5.66666667 L10.7666667,5.66666667 C10.4537272,5.66666667 10.2,5.92039386 10.2,6.23333333 L10.2,6.51666667 L10.7666667,6.51666667 L10.7666667,6.23333333 L11.9,6.23333333 L11.9,6.51666667 L12.4666667,6.51666667 Z" id="Shape" fill="#2D8FDC" fill-rule="nonzero"></path>
                    </g>
                </g>
            </g>
        </g>
    </g>
</svg>
