<?xml version="1.0" encoding="utf-8"?>
<!-- Generator: Adobe Illustrator 24.0.0, SVG Export Plug-In . SVG Version: 6.00 Build 0)  -->
<svg version="1.1" id="Layer_1" xmlns="http://www.w3.org/2000/svg" xmlns:xlink="http://www.w3.org/1999/xlink" x="0px" y="0px"
	 viewBox="0 0 70 70" style="enable-background:new 0 0 70 70;" xml:space="preserve">
<style type="text/css">
	.st0{fill:#FFFFFF;}
</style>
<title>icon/cauhoichatluong</title>
<desc>Created with Sketch.</desc>
<g id="Page-1">
	<g id="Home-Option2" transform="translate(-1200.000000, -3163.000000)">
		<g id="Giúp-bạn-học-tốt-tiếng-anh" transform="translate(-330.000000, 2868.000000)">
			<g id="Group-12" transform="translate(1160.000000, 295.000000)">
				<g>
					<g id="Group">
						<g id="Group-5" transform="translate(370.000000, 0.000000)">
							<g id="icon_x2F_cauhoichatluong">
								<path id="Shape" class="st0" d="M47.3,43.6c-0.8,0-1.4,0.6-1.4,1.4v9.4c0,3.8-3.1,6.8-6.8,6.8H24.3c-0.8,0-1.4,0.6-1.4,1.4
									l0,2.7l-3.3-3.3c-0.2-0.5-0.7-0.8-1.3-0.8H9.6c-3.8,0-6.8-3.1-6.8-6.8V33.4c0-3.8,3.1-6.8,6.8-6.8h13.8
									c0.8,0,1.4-0.6,1.4-1.4s-0.6-1.4-1.4-1.4H9.6c-5.3,0-9.6,4.3-9.6,9.6v21.1C0,59.7,4.3,64,9.6,64h8.2l5.6,5.6
									c0.3,0.3,0.6,0.4,1,0.4c0.2,0,0.4,0,0.5-0.1c0.5-0.2,0.8-0.7,0.8-1.3l0-4.6h13.4c5.3,0,9.6-4.3,9.6-9.6V45
									C48.7,44.2,48.1,43.6,47.3,43.6z"/>
								<path id="Shape_1_" class="st0" d="M50.1,0h-3.5c-11,0-19.9,8.9-19.9,19.9s8.9,19.9,19.9,19.9h3.5c1.7,0,3.4-0.2,5-0.6
									l5.1,5.1c0.3,0.3,0.6,0.4,1,0.4c0.2,0,0.4,0,0.5-0.1c0.5-0.2,0.8-0.7,0.8-1.3v-7.9c2.2-1.8,4-4,5.2-6.4
									c1.4-2.8,2.2-5.8,2.2-9C70,8.9,61.1,0,50.1,0z M60.4,33.6c-0.3,0.3-0.5,0.7-0.5,1.1v5.3l-3.3-3.3c-0.3-0.3-0.6-0.4-1-0.4
									c-0.1,0-0.3,0-0.4,0.1c-1.6,0.5-3.3,0.8-5,0.8h-3.5c-9.4,0-17.1-7.7-17.1-17.1S37.2,2.7,46.7,2.7h3.5
									c9.4,0,17.1,7.7,17.1,17.1C67.3,25.3,64.8,30.3,60.4,33.6z"/>
								<path id="Shape_2_" class="st0" d="M54.6,15c-0.2-2.9-2.5-5.2-5.4-5.4c-1.6-0.1-3.2,0.4-4.4,1.5c-1.2,1.1-1.8,2.6-1.8,4.2
									c0,0.8,0.6,1.4,1.4,1.4c0.8,0,1.4-0.6,1.4-1.4c0-0.9,0.3-1.6,1-2.2c0.6-0.6,1.4-0.9,2.3-0.8c1.5,0.1,2.7,1.3,2.8,2.8
									c0.1,1.5-0.9,2.9-2.4,3.2c-1.2,0.3-2,1.3-2,2.5v3.3c0,0.8,0.6,1.4,1.4,1.4c0.8,0,1.4-0.6,1.4-1.4V21
									C52.9,20.3,54.8,17.8,54.6,15z"/>
								<path id="Shape_3_" class="st0" d="M49.7,28.6c-0.3-0.3-0.6-0.4-1-0.4s-0.7,0.1-1,0.4c-0.3,0.3-0.4,0.6-0.4,1
									c0,0.4,0.1,0.7,0.4,1c0.3,0.3,0.6,0.4,1,0.4s0.7-0.1,1-0.4c0.3-0.3,0.4-0.6,0.4-1C50.1,29.2,50,28.9,49.7,28.6z"/>
								<path id="Shape_4_" class="st0" d="M37.6,42.4H8.8c-0.8,0-1.4,0.6-1.4,1.4s0.6,1.4,1.4,1.4h28.8c0.8,0,1.4-0.6,1.4-1.4
									S38.4,42.4,37.6,42.4z"/>
								<path id="Shape_5_" class="st0" d="M38.6,50.4c-0.3-0.3-0.6-0.4-1-0.4s-0.7,0.1-1,0.4c-0.3,0.3-0.4,0.6-0.4,1s0.1,0.7,0.4,1
									c0.3,0.3,0.6,0.4,1,0.4s0.7-0.1,1-0.4c0.3-0.3,0.4-0.6,0.4-1C39,51,38.8,50.7,38.6,50.4z"/>
								<path id="Shape_6_" class="st0" d="M32.2,50H8.8c-0.8,0-1.4,0.6-1.4,1.4s0.6,1.4,1.4,1.4h23.5c0.8,0,1.4-0.6,1.4-1.4
									S33,50,32.2,50z"/>
								<path id="Shape_7_" class="st0" d="M28.7,34.7h-20c-0.8,0-1.4,0.6-1.4,1.4s0.6,1.4,1.4,1.4h20c0.8,0,1.4-0.6,1.4-1.4
									S29.5,34.7,28.7,34.7z"/>
							</g>
						</g>
					</g>
				</g>
			</g>
		</g>
	</g>
</g>
</svg>
