<?xml version="1.0" encoding="utf-8"?>
<!-- Generator: Adobe Illustrator 24.0.0, SVG Export Plug-In . SVG Version: 6.00 Build 0)  -->
<svg version="1.1" id="Layer_1" xmlns="http://www.w3.org/2000/svg" xmlns:xlink="http://www.w3.org/1999/xlink" x="0px" y="0px"
	 viewBox="0 0 8 17" style="enable-background:new 0 0 8 17;" xml:space="preserve">
<style type="text/css">
	.st0{fill:#2D8FDC;}
</style>
<title>coin</title>
<desc>Created with Sketch.</desc>
<g id="Page-1">
	<g id="Home-Option2" transform="translate(-273.000000, -1363.000000)">
		<g id="KHOÁ-ĐANG-HỌC" transform="translate(90.000000, 944.000000)">
			<g id="Group-2" transform="translate(0.000000, 111.000000)">
				<g id="Lớp-1">
					<g id="Group-4">
						<g transform="translate(0.000000, 292.000000)">
							<g id="coin" transform="translate(183.000000, 15.000000)">
								<g transform="translate(0.000000, 1.000000)">
									<path id="Path" class="st0" d="M4.8,7.7H3.2C2.3,7.7,1.5,7,1.5,6.1c0-0.9,0.7-1.7,1.7-1.7h3.2c0.4,0,0.8-0.3,0.8-0.8
										c0-0.4-0.3-0.8-0.8-0.8H4.8V1.2c0-0.4-0.3-0.8-0.8-0.8c-0.4,0-0.8,0.3-0.8,0.8v1.7H3.2C1.4,2.9,0,4.3,0,6.1
										s1.4,3.2,3.2,3.2h1.6c0.9,0,1.7,0.7,1.7,1.7s-0.7,1.7-1.7,1.7H1.6c-0.4,0-0.8,0.3-0.8,0.8s0.3,0.8,0.8,0.8h1.7v1.7
										c0,0.4,0.3,0.8,0.8,0.8c0.4,0,0.8-0.3,0.8-0.8v-1.7h0.1c1.8,0,3.2-1.4,3.2-3.2S6.6,7.7,4.8,7.7z"/>
								</g>
							</g>
						</g>
					</g>
				</g>
			</g>
		</g>
	</g>
</g>
</svg>
