<?xml version="1.0" encoding="utf-8"?>
<!-- Generator: Adobe Illustrator 24.0.0, SVG Export Plug-In . SVG Version: 6.00 Build 0)  -->
<svg version="1.1" id="Layer_1" xmlns="http://www.w3.org/2000/svg" xmlns:xlink="http://www.w3.org/1999/xlink" x="0px" y="0px"
	 viewBox="0 0 65 65" style="enable-background:new 0 0 65 65;" xml:space="preserve">
<style type="text/css">
	.st0{fill:#FFFFFF;}
</style>
<title>icon/dethi</title>
<desc>Created with Sketch.</desc>
<g id="Page-1">
	<g id="Home-Option2" transform="translate(-830.000000, -3289.000000)">
		<g id="Giúp-bạn-học-tốt-tiếng-anh" transform="translate(-330.000000, 2868.000000)">
			<g id="Group-12" transform="translate(1160.000000, 295.000000)">
				<g>
					<g id="Group">
						<g id="Group-13" transform="translate(0.000000, 126.000000)">
							<g id="icon_x2F_dethi">
								<path id="Shape" class="st0" d="M64.8,31.4L55.4,2.2C55,0.9,53.7,0,52.3,0H16c-2.8,0-5.3,1.8-6.2,4.5L0.6,32.8
									c-0.3,1.1-0.5,2.2-0.5,3.3V40c0,0.1,0,0.3,0.1,0.4c0.3,1.6,1.1,3,2.5,3.9c-1.6,1.1-2.5,2.9-2.5,4.9c0,1.9,0.9,3.8,2.5,4.9
									c-2.1,1.5-3,4.2-2.3,6.7s3.1,4.2,5.7,4.2h55.7c1.8,0,3.2-1.5,3.2-3.2V32.4c0,0,0,0,0-0.1C65,32.1,64.9,31.7,64.8,31.4z
									 M61.8,43.2c-0.5,0-2.2-1.6-2.2-3.8s1.6-3.7,2.2-3.8c0.4,0,0.7-0.1,1.1-0.2v7.8H61.8z M53.4,2.9l9.4,29.2
									c0.1,0.3,0,0.7-0.2,1c-0.2,0.3-0.5,0.4-0.9,0.4H10.2c0,0,0-0.1,0-0.1l6.9-28.3c0.4-1.7,1.6-2.9,2.9-2.9h32.4
									C52.8,2.2,53.2,2.5,53.4,2.9z M11.8,5.2c0.6-1.8,2.2-3,4.1-3h0.1c-0.5,0.7-0.9,1.5-1.1,2.4L8.1,32.9C8,33.1,8,33.3,7.9,33.5
									H6.1c-1.3,0-2.6,0.5-3.7,1.3c0.1-0.5,0.2-0.9,0.3-1.3L11.8,5.2z M2.3,39.5c0-2.1,1.7-3.8,3.8-3.8h52.5
									C57,38,57,41,58.6,43.2H6.1C4,43.2,2.3,41.6,2.3,39.5z M2.3,49.2c0-2.1,1.7-3.8,3.8-3.8h52.5c-1.6,2.3-1.6,5.3,0,7.6H6.1
									C4,53,2.3,51.3,2.3,49.2z M2.3,58.9c0-2.1,1.7-3.8,3.8-3.8h52.5c-1.6,2.3-1.6,5.3,0,7.6H6.1C4,62.7,2.3,61,2.3,58.9z
									 M62.8,61.6c0,0.6-0.5,1.1-1.1,1.1c-0.5,0-2.2-1.6-2.2-3.8c0-2.2,1.6-3.7,2.2-3.8h1.1V61.6z M61.8,53
									c-0.5,0-2.2-1.6-2.2-3.8s1.6-3.7,2.2-3.8h1.1V53H61.8z"/>
								<path id="Shape_1_" class="st0" d="M21.8,14.1h29c0.3,0,0.6-0.2,0.8-0.4c0.2-0.3,0.3-0.6,0.2-0.9l-1.8-7.6
									C50,4.7,49.5,4.3,49,4.3H22.8c-0.5,0-1,0.4-1.1,0.9l-1,7.6c0,0.3,0.1,0.6,0.3,0.9C21.2,13.9,21.5,14.1,21.8,14.1z M23.7,6.5
									h24.4l1.3,5.4H23L23.7,6.5z"/>
								<path id="Shape_2_" class="st0" d="M19.6,17.3c0,0.6,0.5,1.1,1.1,1.1H52c0.6,0,1.1-0.5,1.1-1.1c0-0.6-0.5-1.1-1.1-1.1H20.7
									C20.1,16.2,19.6,16.7,19.6,17.3z"/>
								<path id="Shape_3_" class="st0" d="M46.6,20.5H26.1c-0.6,0-1.1,0.5-1.1,1.1c0,0.6,0.5,1.1,1.1,1.1h20.5
									c0.6,0,1.1-0.5,1.1-1.1C47.7,21,47.2,20.5,46.6,20.5z"/>
							</g>
						</g>
					</g>
				</g>
			</g>
		</g>
	</g>
</g>
</svg>
