<?xml version="1.0" encoding="utf-8"?>
<!-- Generator: Adobe Illustrator 24.0.0, SVG Export Plug-In . SVG Version: 6.00 Build 0)  -->
<svg version="1.1" id="Layer_1" xmlns="http://www.w3.org/2000/svg" xmlns:xlink="http://www.w3.org/1999/xlink" x="0px" y="0px"
	 viewBox="0 0 17 13" style="enable-background:new 0 0 17 13;" xml:space="preserve">
<style type="text/css">
	.st0{fill:#FFFFFF;}
</style>
<title>icon/email</title>
<desc>Created with Sketch.</desc>
<g id="Page-1">
	<g id="Home-Option2" transform="translate(-671.000000, -4801.000000)">
		<g id="FOOTER" transform="translate(0.000000, 4610.000000)">
			<g id="Group-25-Copy" transform="translate(671.000000, 36.000000)">
				<g id="icon_x2F_email" transform="translate(0.000000, 155.000000)">
					<path id="Path" class="st0" d="M0.4,1C2.7,3,6.8,6.5,8,7.6c0.2,0.1,0.3,0.2,0.5,0.2c0.2,0,0.4-0.1,0.5-0.2
						C10.2,6.5,14.3,3,16.6,1c0.1-0.1,0.2-0.3,0-0.5C16.4,0.2,16,0,15.6,0H1.4C1,0,0.6,0.2,0.3,0.5C0.2,0.7,0.2,0.9,0.4,1z"/>
					<path id="Path_1_" class="st0" d="M16.8,2.1c-0.1-0.1-0.3,0-0.4,0.1c-1.5,1.3-3.5,3-5,4.3c-0.1,0.1-0.1,0.2-0.1,0.3
						c0,0.1,0.1,0.2,0.1,0.3c1.4,1.1,3.5,2.7,5.1,3.8c0.1,0,0.1,0.1,0.2,0.1c0.1,0,0.1,0,0.2,0c0.1-0.1,0.2-0.2,0.2-0.3V2.4
						C17,2.3,16.9,2.2,16.8,2.1z"/>
					<path id="Path_2_" class="st0" d="M0.6,10.8C2.1,9.7,4.2,8.1,5.6,7c0.1-0.1,0.1-0.2,0.1-0.3c0-0.1,0-0.2-0.1-0.3
						c-1.5-1.3-3.5-3-5.1-4.3C0.5,2.1,0.3,2,0.2,2.1C0.1,2.2,0,2.3,0,2.4v8.1c0,0.1,0.1,0.3,0.2,0.3c0.1,0,0.1,0,0.2,0
						C0.4,10.8,0.5,10.8,0.6,10.8z"/>
					<path id="Path_3_" class="st0" d="M16.5,11.7c-1.5-1.1-4.2-3-5.8-4.4c-0.1-0.1-0.3-0.1-0.5,0C9.9,7.7,9.7,7.9,9.5,8.1
						c-0.6,0.5-1.4,0.5-2,0C7.3,7.9,7,7.7,6.7,7.4c-0.1-0.1-0.3-0.1-0.5,0c-1.6,1.3-4.4,3.3-5.8,4.4c-0.1,0.1-0.1,0.2-0.1,0.3
						c0,0.1,0,0.2,0.1,0.3c0.3,0.3,0.6,0.5,1,0.5h14.1c0.4,0,0.8-0.2,1-0.5c0.1-0.1,0.1-0.2,0.1-0.3C16.7,11.9,16.6,11.8,16.5,11.7z
						"/>
				</g>
			</g>
		</g>
	</g>
</g>
</svg>
