<?xml version="1.0" encoding="utf-8"?>
<!-- Generator: Adobe Illustrator 24.0.0, SVG Export Plug-In . SVG Version: 6.00 Build 0)  -->
<svg version="1.1" id="Layer_1" xmlns="http://www.w3.org/2000/svg" xmlns:xlink="http://www.w3.org/1999/xlink" x="0px" y="0px"
	 viewBox="0 0 24 24" style="enable-background:new 0 0 24 24;" xml:space="preserve">
<style type="text/css">
	.st0{fill:#FFFFFF;}
</style>
<title>icon/facebook</title>
<desc>Created with Sketch.</desc>
<g id="Page-1">
	<g id="Home-Option2" transform="translate(-1250.000000, -4838.000000)">
		<g id="FOOTER" transform="translate(0.000000, 4610.000000)">
			<g id="Group-25-Copy" transform="translate(1250.000000, 36.000000)">
				<g id="Group-23" transform="translate(0.000000, 104.000000)">
					<g id="Soical-icon" transform="translate(0.000000, 88.000000)">
						<g id="facebook">
							<path id="icon_x2F_facebook" class="st0" d="M24,12c0-6.6-5.4-12-12-12S0,5.4,0,12s5.4,12,12,12c0.1,0,0.1,0,0.2,0v-9.3H9.6
								v-3h2.6V9.4c0-2.6,1.6-4,3.9-4c1.1,0,2,0.1,2.3,0.1v2.7h-1.6c-1.2,0-1.5,0.6-1.5,1.5v1.9h3l-0.4,3h-2.6v8.9
								C20.3,22.1,24,17.5,24,12z"/>
						</g>
					</g>
				</g>
			</g>
		</g>
	</g>
</g>
</svg>
