<?xml version="1.0" encoding="utf-8"?>
<!-- Generator: Adobe Illustrator 24.0.0, SVG Export Plug-In . SVG Version: 6.00 Build 0)  -->
<svg version="1.1" id="Layer_1" xmlns="http://www.w3.org/2000/svg" xmlns:xlink="http://www.w3.org/1999/xlink" x="0px" y="0px"
	 viewBox="0 0 17 16" style="enable-background:new 0 0 17 16;" xml:space="preserve">
<style type="text/css">
	.st0{fill:#FFFFFF;}
</style>
<title>icon/fax</title>
<desc>Created with Sketch.</desc>
<g id="Page-1">
	<g id="Home-Option2" transform="translate(-671.000000, -4766.000000)">
		<g id="FOOTER" transform="translate(0.000000, 4610.000000)">
			<g id="Group-25-Copy" transform="translate(671.000000, 36.000000)">
				<g id="icon_x2F_fax" transform="translate(0.000000, 120.000000)">
					<path id="Path" class="st0" d="M12.8,3.1l-2.1,0l0,0c-0.1,0-0.2,0.1-0.2,0.2s0.1,0.2,0.2,0.2l2.1,0l0,0c0.1,0,0.2-0.1,0.2-0.2
						C12.9,3.1,12.8,3.1,12.8,3.1z"/>
					<path id="Path_1_" class="st0" d="M14.8,2l-4.1,0l0,0c-0.1,0-0.2,0.1-0.2,0.2s0.1,0.2,0.2,0.2l4.1,0l0,0c0.1,0,0.2-0.1,0.2-0.2
						C15,2.1,14.9,2,14.8,2z"/>
					<path id="Path_2_" class="st0" d="M14.8,1l-4.1,0l0,0c-0.1,0-0.2,0.1-0.2,0.2c0,0.1,0.1,0.2,0.2,0.2l4.1,0l0,0
						c0.1,0,0.2-0.1,0.2-0.2C15,1.1,14.9,1,14.8,1z"/>
					<path id="Shape" class="st0" d="M15.6,2.6c0-0.9,0-1.7,0-2.6c-1.9,0-3.9,0-5.8,0c0,0.9,0,1.7,0,2.6c-0.8,0-1.5,0-2.3,0
						c0.2,0.5,0.3,0.9,0.3,1.5c0,3,0,5.9,0,8.9c0,0.5-0.1,1-0.3,1.5c2.7,0,5.4,0,8.1,0c0.8,0,1.4-0.6,1.4-1.4c0-3,0-6,0-9
						C17,3.3,16.4,2.6,15.6,2.6z M10.2,0.4h5.1v3.6h-5.1V0.4z M10.6,11.4c-0.6,0-0.7-0.1-0.7-0.7c0-0.6,0.1-0.7,0.7-0.7
						s0.7,0.1,0.7,0.7C11.3,11.3,11.2,11.4,10.6,11.4z M10.6,9.2c-0.6,0-0.7-0.1-0.7-0.7s0.1-0.7,0.7-0.7s0.7,0.1,0.7,0.7
						S11.2,9.2,10.6,9.2z M10.6,7.1C9.9,7.1,9.8,7,9.8,6.4s0.1-0.7,0.7-0.7s0.7,0.1,0.7,0.7S11.2,7.1,10.6,7.1z M12.8,11.4
						c-0.6,0-0.7-0.1-0.7-0.7c0-0.6,0.1-0.7,0.7-0.7s0.7,0.1,0.7,0.7C13.5,11.3,13.4,11.4,12.8,11.4z M12.8,9.2
						c-0.6,0-0.7-0.1-0.7-0.7s0.1-0.7,0.7-0.7s0.7,0.1,0.7,0.7C13.5,9.2,13.4,9.2,12.8,9.2z M12.8,7.1C12.1,7.1,12,7,12,6.4
						s0.1-0.7,0.7-0.7s0.7,0.1,0.7,0.7S13.4,7.1,12.8,7.1z M14.9,11.4c-0.6,0-0.7-0.1-0.7-0.7c0-0.6,0.1-0.7,0.7-0.7
						s0.7,0.1,0.7,0.7C15.7,11.3,15.6,11.4,14.9,11.4z M14.9,9.2c-0.6,0-0.7-0.1-0.7-0.7s0.1-0.7,0.7-0.7s0.7,0.1,0.7,0.7
						C15.7,9.2,15.6,9.2,14.9,9.2z M14.9,7.1c-0.6,0-0.7-0.1-0.7-0.7s0.1-0.7,0.7-0.7s0.7,0.1,0.7,0.7S15.6,7.1,14.9,7.1z"/>
					<path id="Path_3_" class="st0" d="M4.2,1.2c-1.6,0-2.9,1.3-2.9,2.9c0,3,0,5.9,0,8.9c0,1.6,1.3,2.9,2.9,2.9s2.9-1.3,2.9-2.9
						c0-3,0-5.9,0-8.9C7.2,2.5,5.9,1.2,4.2,1.2z"/>
					<path id="Path_4_" class="st0" d="M0.9,2.7C0.4,2.9,0,3.4,0,4c0,3,0,6,0,9c0,0.6,0.4,1.1,0.9,1.3c-0.2-0.4-0.3-0.9-0.3-1.4
						c0-3,0-5.9,0-8.9C0.6,3.6,0.7,3.2,0.9,2.7z"/>
				</g>
			</g>
		</g>
	</g>
</g>
</svg>
