<?xml version="1.0" encoding="UTF-8"?>
<svg width="1900px" height="269px" viewBox="0 0 1900 269" version="1.1" xmlns="http://www.w3.org/2000/svg" xmlns:xlink="http://www.w3.org/1999/xlink">
    <!-- Generator: sketchtool 60.1 (101010) - https://sketch.com -->
    <title>27C6D3A3-457A-4DB9-B1B9-B65675BA7187</title>
    <desc>Created with sketchtool.</desc>
    <defs>
        <rect id="path-1" x="0" y="0" width="1900" height="269"></rect>
    </defs>
    <g id="Page-1" stroke="none" stroke-width="1" fill="none" fill-rule="evenodd">
        <g id="Home-Option2" transform="translate(0.000000, -4610.000000)">
            <g id="FOOTER" transform="translate(0.000000, 4610.000000)">
                <g id="background-footer">
                    <mask id="mask-2" fill="white">
                        <use xlink:href="#path-1"></use>
                    </mask>
                    <use id="Mask" fill="#062643" xlink:href="#path-1"></use>
                    <g id="Group-29" opacity="0.1" mask="url(#mask-2)" fill="#CCCCCC">
                        <g transform="translate(374.500000, 160.500000) rotate(90.000000) translate(-374.500000, -160.500000) translate(56.500000, -190.500000)">
                            <path d="M206.500901,1.80298312 C204.461728,1.80298312 202.802983,3.46172759 202.802983,5.50090149 C202.802983,7.53827241 204.461728,9.19701688 206.500901,9.19701688 C208.538272,9.19701688 210.197017,7.53827241 210.197017,5.50090149 C210.197017,3.46172759 208.538272,1.80298312 206.500901,1.80298312 M206.500901,11 C203.466481,11 201,8.53171611 201,5.50090149 C201,2.4664809 203.466481,0 206.500901,0 C209.533519,0 212,2.4664809 212,5.50090149 C212,8.53171611 209.533519,11 206.500901,11" id="Fill-106"></path>
                            <path d="M406.500901,242.802983 C404.461728,242.802983 402.802983,244.461728 402.802983,246.500901 C402.802983,248.538272 404.461728,250.197017 406.500901,250.197017 C408.538272,250.197017 410.197017,248.538272 410.197017,246.500901 C410.197017,244.461728 408.538272,242.802983 406.500901,242.802983 M406.500901,252 C403.466481,252 401,249.531716 401,246.500901 C401,243.466481 403.466481,241 406.500901,241 C409.533519,241 412,243.466481 412,246.500901 C412,249.531716 409.533519,252 406.500901,252" id="Fill-110"></path>
                            <path d="M399.500901,103.802983 C397.461728,103.802983 395.802983,105.461728 395.802983,107.500901 C395.802983,109.538272 397.461728,111.197017 399.500901,111.197017 C401.538272,111.197017 403.197017,109.538272 403.197017,107.500901 C403.197017,105.461728 401.538272,103.802983 399.500901,103.802983 M399.500901,113 C396.466481,113 394,110.531716 394,107.500901 C394,104.466481 396.466481,102 399.500901,102 C402.533519,102 405,104.466481 405,107.500901 C405,110.531716 402.533519,113 399.500901,113" id="Fill-112"></path>
                            <path d="M183.500901,111.802983 C181.461728,111.802983 179.802983,113.461728 179.802983,115.500901 C179.802983,117.538272 181.461728,119.197017 183.500901,119.197017 C185.538272,119.197017 187.197017,117.538272 187.197017,115.500901 C187.197017,113.461728 185.538272,111.802983 183.500901,111.802983 M183.500901,121 C180.466481,121 178,118.531716 178,115.500901 C178,112.466481 180.466481,110 183.500901,110 C186.533519,110 189,112.466481 189,115.500901 C189,118.531716 186.533519,121 183.500901,121" id="Fill-114"></path>
                            <path d="M225.500901,122.802983 C223.461728,122.802983 221.802983,124.461728 221.802983,126.500901 C221.802983,128.538272 223.461728,130.197017 225.500901,130.197017 C227.538272,130.197017 229.197017,128.538272 229.197017,126.500901 C229.197017,124.461728 227.538272,122.802983 225.500901,122.802983 M225.500901,132 C222.466481,132 220,129.531716 220,126.500901 C220,123.466481 222.466481,121 225.500901,121 C228.533519,121 231,123.466481 231,126.500901 C231,129.531716 228.533519,132 225.500901,132" id="Fill-116"></path>
                            <path d="M277.500901,246.802983 C275.461728,246.802983 273.802983,248.461728 273.802983,250.500901 C273.802983,252.538272 275.461728,254.197017 277.500901,254.197017 C279.538272,254.197017 281.197017,252.538272 281.197017,250.500901 C281.197017,248.461728 279.538272,246.802983 277.500901,246.802983 M277.500901,256 C274.466481,256 272,253.531716 272,250.500901 C272,247.466481 274.466481,245 277.500901,245 C280.533519,245 283,247.466481 283,250.500901 C283,253.531716 280.533519,256 277.500901,256" id="Fill-118"></path>
                            <path d="M320.500901,287.802983 C318.461728,287.802983 316.802983,289.461728 316.802983,291.500901 C316.802983,293.538272 318.461728,295.197017 320.500901,295.197017 C322.538272,295.197017 324.197017,293.538272 324.197017,291.500901 C324.197017,289.461728 322.538272,287.802983 320.500901,287.802983 M320.500901,297 C317.466481,297 315,294.531716 315,291.500901 C315,288.466481 317.466481,286 320.500901,286 C323.533519,286 326,288.466481 326,291.500901 C326,294.531716 323.533519,297 320.500901,297" id="Fill-120"></path>
                            <path d="M209.500901,363.802983 C207.461728,363.802983 205.802983,365.461728 205.802983,367.500901 C205.802983,369.538272 207.461728,371.197017 209.500901,371.197017 C211.538272,371.197017 213.197017,369.538272 213.197017,367.500901 C213.197017,365.461728 211.538272,363.802983 209.500901,363.802983 M209.500901,373 C206.466481,373 204,370.531716 204,367.500901 C204,364.466481 206.466481,362 209.500901,362 C212.533519,362 215,364.466481 215,367.500901 C215,370.531716 212.533519,373 209.500901,373" id="Fill-122"></path>
                            <path d="M181.500901,503.802983 C179.461728,503.802983 177.802983,505.461728 177.802983,507.500901 C177.802983,509.538272 179.461728,511.197017 181.500901,511.197017 C183.538272,511.197017 185.197017,509.538272 185.197017,507.500901 C185.197017,505.461728 183.538272,503.802983 181.500901,503.802983 M181.500901,513 C178.466481,513 176,510.531716 176,507.500901 C176,504.466481 178.466481,502 181.500901,502 C184.533519,502 187,504.466481 187,507.500901 C187,510.531716 184.533519,513 181.500901,513" id="Fill-124"></path>
                            <path d="M347.500901,421.802983 C345.461728,421.802983 343.802983,423.461728 343.802983,425.500901 C343.802983,427.538272 345.461728,429.197017 347.500901,429.197017 C349.538272,429.197017 351.197017,427.538272 351.197017,425.500901 C351.197017,423.461728 349.538272,421.802983 347.500901,421.802983 M347.500901,431 C344.466481,431 342,428.531716 342,425.500901 C342,422.466481 344.466481,420 347.500901,420 C350.533519,420 353,422.466481 353,425.500901 C353,428.531716 350.533519,431 347.500901,431" id="Fill-126"></path>
                            <path d="M257.500901,382.802983 C255.461728,382.802983 253.802983,384.461728 253.802983,386.500901 C253.802983,388.538272 255.461728,390.197017 257.500901,390.197017 C259.538272,390.197017 261.197017,388.538272 261.197017,386.500901 C261.197017,384.461728 259.538272,382.802983 257.500901,382.802983 M257.500901,392 C254.466481,392 252,389.531716 252,386.500901 C252,383.466481 254.466481,381 257.500901,381 C260.533519,381 263,383.466481 263,386.500901 C263,389.531716 260.533519,392 257.500901,392" id="Fill-128"></path>
                            <path d="M328.500901,606.802983 C326.461728,606.802983 324.802983,608.461728 324.802983,610.500901 C324.802983,612.538272 326.461728,614.197017 328.500901,614.197017 C330.538272,614.197017 332.197017,612.538272 332.197017,610.500901 C332.197017,608.461728 330.538272,606.802983 328.500901,606.802983 M328.500901,616 C325.466481,616 323,613.531716 323,610.500901 C323,607.466481 325.466481,605 328.500901,605 C331.533519,605 334,607.466481 334,610.500901 C334,613.531716 331.533519,616 328.500901,616" id="Fill-133"></path>
                            <path d="M332.500901,489.802983 C330.461728,489.802983 328.802983,491.461728 328.802983,493.500901 C328.802983,495.538272 330.461728,497.197017 332.500901,497.197017 C334.538272,497.197017 336.197017,495.538272 336.197017,493.500901 C336.197017,491.461728 334.538272,489.802983 332.500901,489.802983 M332.500901,499 C329.466481,499 327,496.531716 327,493.500901 C327,490.466481 329.466481,488 332.500901,488 C335.533519,488 338,490.466481 338,493.500901 C338,496.531716 335.533519,499 332.500901,499" id="Fill-135"></path>
                            <path d="M303.500901,692.802983 C301.461728,692.802983 299.802983,694.461728 299.802983,696.500901 C299.802983,698.538272 301.461728,700.197017 303.500901,700.197017 C305.538272,700.197017 307.197017,698.538272 307.197017,696.500901 C307.197017,694.461728 305.538272,692.802983 303.500901,692.802983 M303.500901,702 C300.466481,702 298,699.531716 298,696.500901 C298,693.466481 300.466481,691 303.500901,691 C306.533519,691 309,693.466481 309,696.500901 C309,699.531716 306.533519,702 303.500901,702" id="Fill-137"></path>
                            <path d="M192.500901,605.802983 C190.461728,605.802983 188.802983,607.461728 188.802983,609.500901 C188.802983,611.538272 190.461728,613.197017 192.500901,613.197017 C194.538272,613.197017 196.197017,611.538272 196.197017,609.500901 C196.197017,607.461728 194.538272,605.802983 192.500901,605.802983 M192.500901,615 C189.466481,615 187,612.531716 187,609.500901 C187,606.466481 189.466481,604 192.500901,604 C195.533519,604 198,606.466481 198,609.500901 C198,612.531716 195.533519,615 192.500901,615" id="Fill-139"></path>
                            <path d="M382.500901,606.802983 C380.461728,606.802983 378.802983,608.461728 378.802983,610.500901 C378.802983,612.538272 380.461728,614.197017 382.500901,614.197017 C384.538272,614.197017 386.197017,612.538272 386.197017,610.500901 C386.197017,608.461728 384.538272,606.802983 382.500901,606.802983 M382.500901,616 C379.466481,616 377,613.531716 377,610.500901 C377,607.466481 379.466481,605 382.500901,605 C385.533519,605 388,607.466481 388,610.500901 C388,613.531716 385.533519,616 382.500901,616" id="Fill-141"></path>
                            <path d="M293.500901,449.802983 C291.461728,449.802983 289.802983,451.461728 289.802983,453.500901 C289.802983,455.538272 291.461728,457.197017 293.500901,457.197017 C295.538272,457.197017 297.197017,455.538272 297.197017,453.500901 C297.197017,451.461728 295.538272,449.802983 293.500901,449.802983 M293.500901,459 C290.466481,459 288,456.531716 288,453.500901 C288,450.466481 290.466481,448 293.500901,448 C296.533519,448 299,450.466481 299,453.500901 C299,456.531716 296.533519,459 293.500901,459" id="Fill-145"></path>
                            <path d="M404.500901,511.802983 C402.461728,511.802983 400.802983,513.461728 400.802983,515.500901 C400.802983,517.538272 402.461728,519.197017 404.500901,519.197017 C406.538272,519.197017 408.197017,517.538272 408.197017,515.500901 C408.197017,513.461728 406.538272,511.802983 404.500901,511.802983 M404.500901,521 C401.466481,521 399,518.531716 399,515.500901 C399,512.466481 401.466481,510 404.500901,510 C407.533519,510 410,512.466481 410,515.500901 C410,518.531716 407.533519,521 404.500901,521" id="Fill-147"></path>
                            <path d="M380.500901,36.8029831 C378.461728,36.8029831 376.802983,38.4617276 376.802983,40.5009015 C376.802983,42.5382724 378.461728,44.1970169 380.500901,44.1970169 C382.538272,44.1970169 384.197017,42.5382724 384.197017,40.5009015 C384.197017,38.4617276 382.538272,36.8029831 380.500901,36.8029831 M380.500901,46 C377.466481,46 375,43.5317161 375,40.5009015 C375,37.4664809 377.466481,35 380.500901,35 C383.533519,35 386,37.4664809 386,40.5009015 C386,43.5317161 383.533519,46 380.500901,46" id="Fill-149"></path>
                            <path d="M269.5,505.891313 C269.363843,505.891313 268.906203,505.93103 268.764372,506.454924 L268.248109,508.374606 C268.002269,509.284327 267.285552,510.001135 266.379728,510.247005 L264.456505,510.763334 C263.932678,510.905182 263.891074,511.364771 263.891074,511.500946 C263.891074,511.63712 263.932678,512.092926 264.456505,512.234775 L266.377837,512.752995 C267.285552,512.998865 268.002269,513.715673 268.248109,514.621611 L268.764372,516.545076 C268.906203,517.067079 269.363843,517.108687 269.5,517.108687 C269.636157,517.108687 270.093797,517.067079 270.237519,516.545076 L270.753782,514.623503 C270.997731,513.715673 271.716339,512.998865 272.622163,512.752995 L274.543495,512.234775 C275.067322,512.094818 275.108926,511.63712 275.108926,511.500946 C275.108926,511.364771 275.067322,510.905182 274.543495,510.763334 L272.624054,510.247005 C271.716339,510.001135 270.997731,509.284327 270.753782,508.376497 L270.237519,506.454924 C270.093797,505.93103 269.636157,505.891313 269.5,505.891313 M269.5,519 C268.284039,519 267.255295,518.211323 266.939486,517.036818 L266.423222,515.115244 C266.351362,514.854243 266.147126,514.649981 265.884266,514.578111 L263.964826,514.059892 C262.790469,513.745934 262.001891,512.71706 262,511.502837 C262,510.284832 262.786687,509.254066 263.964826,508.938217 L265.886157,508.421889 C266.147126,508.350019 266.351362,508.143866 266.423222,507.882865 L266.939486,505.963182 C267.255295,504.788677 268.284039,504 269.5,504 C270.715961,504 271.744705,504.788677 272.060514,505.963182 L272.578669,507.884756 C272.65053,508.143866 272.854766,508.350019 273.117625,508.421889 L275.037065,508.938217 C276.211422,509.254066 277,510.284832 277,511.502837 C277,512.71706 276.209531,513.745934 275.037065,514.059892 L273.115734,514.578111 C272.854766,514.649981 272.65053,514.854243 272.578669,515.117135 L272.060514,517.036818 C271.744705,518.211323 270.715961,519 269.5,519" id="Fill-151"></path>
                            <path d="M256.5,274.891313 C256.363843,274.891313 255.906203,274.93103 255.764372,275.454924 L255.248109,277.374606 C255.002269,278.284327 254.285552,279.001135 253.379728,279.247005 L251.456505,279.763334 C250.932678,279.905182 250.891074,280.364771 250.891074,280.500946 C250.891074,280.63712 250.932678,281.092926 251.456505,281.234775 L253.377837,281.752995 C254.285552,281.998865 255.002269,282.715673 255.248109,283.621611 L255.764372,285.545076 C255.906203,286.067079 256.363843,286.108687 256.5,286.108687 C256.636157,286.108687 257.093797,286.067079 257.237519,285.545076 L257.753782,283.623503 C257.999622,282.715673 258.716339,281.998865 259.622163,281.752995 L261.545386,281.234775 C262.067322,281.094818 262.108926,280.63712 262.108926,280.500946 C262.108926,280.364771 262.067322,279.905182 261.545386,279.763334 L259.624054,279.247005 C258.716339,279.001135 257.999622,278.284327 257.753782,277.376497 L257.237519,275.454924 C257.093797,274.93103 256.636157,274.891313 256.5,274.891313 M256.5,288 C255.284039,288 254.255295,287.211323 253.939486,286.036818 L253.423222,284.115244 C253.351362,283.854243 253.147126,283.649981 252.884266,283.578111 L250.964826,283.059892 C249.790469,282.745934 249.001891,281.71706 249,280.502837 C249,279.284832 249.788578,278.254066 250.964826,277.938217 L252.886157,277.421889 C253.147126,277.350019 253.351362,277.143866 253.423222,276.882865 L253.939486,274.963182 C254.255295,273.788677 255.284039,273 256.5,273 C257.715961,273 258.744705,273.788677 259.060514,274.963182 L259.578669,276.884756 C259.65053,277.143866 259.854766,277.350019 260.117625,277.421889 L262.037065,277.938217 C263.211422,278.254066 264,279.284832 264,280.502837 C264,281.71706 263.209531,282.745934 262.037065,283.059892 L260.115734,283.578111 C259.854766,283.649981 259.65053,283.854243 259.578669,284.117135 L259.060514,286.036818 C258.744705,287.211323 257.715961,288 256.5,288" id="Fill-153"></path>
                            <path d="M378.5,152.891313 C378.363843,152.891313 377.906203,152.93103 377.764372,153.454924 L377.248109,155.374606 C377.002269,156.284327 376.285552,157.001135 375.379728,157.247005 L373.456505,157.763334 C372.932678,157.905182 372.891074,158.364771 372.891074,158.500946 C372.891074,158.63712 372.932678,159.092926 373.456505,159.234775 L375.377837,159.752995 C376.285552,159.998865 377.002269,160.715673 377.248109,161.621611 L377.764372,163.545076 C377.906203,164.067079 378.363843,164.108687 378.5,164.108687 C378.636157,164.108687 379.093797,164.067079 379.237519,163.545076 L379.753782,161.623503 C379.999622,160.715673 380.716339,159.998865 381.622163,159.752995 L383.545386,159.234775 C384.067322,159.094818 384.108926,158.63712 384.108926,158.500946 C384.108926,158.364771 384.067322,157.905182 383.545386,157.763334 L381.624054,157.247005 C380.716339,157.001135 379.999622,156.284327 379.753782,155.376497 L379.237519,153.454924 C379.093797,152.93103 378.636157,152.891313 378.5,152.891313 M378.5,166 C377.284039,166 376.255295,165.211323 375.939486,164.036818 L375.423222,162.115244 C375.351362,161.854243 375.147126,161.649981 374.884266,161.578111 L372.964826,161.059892 C371.790469,160.745934 371.001891,159.71706 371,158.502837 C371,157.284832 371.788578,156.254066 372.964826,155.938217 L374.886157,155.421889 C375.147126,155.350019 375.351362,155.143866 375.423222,154.882865 L375.939486,152.963182 C376.255295,151.788677 377.284039,151 378.5,151 C379.715961,151 380.744705,151.788677 381.060514,152.963182 L381.578669,154.884756 C381.65053,155.143866 381.854766,155.350019 382.117625,155.421889 L384.037065,155.938217 C385.211422,156.254066 386,157.284832 386,158.502837 C386,159.71706 385.209531,160.745934 384.037065,161.059892 L382.115734,161.578111 C381.854766,161.649981 381.65053,161.854243 381.578669,162.117135 L381.060514,164.036818 C380.744705,165.211323 379.715961,166 378.5,166" id="Fill-155"></path>
                            <path d="M226.5,545.891313 C226.363843,545.891313 225.906203,545.93103 225.764372,546.454924 L225.248109,548.374606 C225.002269,549.284327 224.285552,550.001135 223.379728,550.247005 L221.456505,550.763334 C220.932678,550.905182 220.891074,551.364771 220.891074,551.500946 C220.891074,551.63712 220.932678,552.092926 221.456505,552.234775 L223.377837,552.752995 C224.285552,552.998865 225.002269,553.715673 225.248109,554.621611 L225.764372,556.545076 C225.906203,557.067079 226.363843,557.108687 226.5,557.108687 C226.636157,557.108687 227.093797,557.067079 227.237519,556.545076 L227.753782,554.623503 C227.999622,553.715673 228.716339,552.998865 229.622163,552.752995 L231.545386,552.234775 C232.067322,552.094818 232.108926,551.63712 232.108926,551.500946 C232.108926,551.364771 232.067322,550.905182 231.545386,550.763334 L229.624054,550.247005 C228.716339,550.001135 227.999622,549.284327 227.753782,548.376497 L227.237519,546.454924 C227.093797,545.93103 226.636157,545.891313 226.5,545.891313 M226.5,559 C225.284039,559 224.255295,558.211323 223.939486,557.036818 L223.423222,555.115244 C223.351362,554.854243 223.147126,554.649981 222.884266,554.578111 L220.964826,554.059892 C219.790469,553.745934 219.001891,552.71706 219,551.502837 C219,550.284832 219.788578,549.254066 220.964826,548.938217 L222.886157,548.421889 C223.147126,548.350019 223.351362,548.143866 223.423222,547.882865 L223.939486,545.963182 C224.255295,544.788677 225.284039,544 226.5,544 C227.715961,544 228.744705,544.788677 229.060514,545.963182 L229.578669,547.884756 C229.65053,548.143866 229.854766,548.350019 230.117625,548.421889 L232.037065,548.938217 C233.211422,549.254066 234,550.284832 234,551.502837 C234,552.71706 233.209531,553.745934 232.037065,554.059892 L230.115734,554.578111 C229.854766,554.649981 229.65053,554.854243 229.578669,555.117135 L229.060514,557.036818 C228.744705,558.211323 227.715961,559 226.5,559" id="Fill-157"></path>
                            <path d="M228.5,452.891313 C228.363843,452.891313 227.906203,452.93103 227.764372,453.454924 L227.248109,455.374606 C227.002269,456.284327 226.285552,457.001135 225.379728,457.247005 L223.456505,457.763334 C222.932678,457.905182 222.891074,458.364771 222.891074,458.500946 C222.891074,458.63712 222.932678,459.092926 223.456505,459.234775 L225.377837,459.752995 C226.285552,459.998865 227.002269,460.715673 227.248109,461.621611 L227.764372,463.545076 C227.906203,464.067079 228.363843,464.108687 228.5,464.108687 C228.636157,464.108687 229.093797,464.067079 229.237519,463.545076 L229.753782,461.623503 C229.999622,460.715673 230.716339,459.998865 231.622163,459.752995 L233.545386,459.234775 C234.067322,459.094818 234.108926,458.63712 234.108926,458.500946 C234.108926,458.364771 234.067322,457.905182 233.545386,457.763334 L231.624054,457.247005 C230.716339,457.001135 229.999622,456.284327 229.753782,455.376497 L229.237519,453.454924 C229.093797,452.93103 228.636157,452.891313 228.5,452.891313 M228.5,466 C227.284039,466 226.255295,465.211323 225.939486,464.036818 L225.423222,462.115244 C225.351362,461.854243 225.147126,461.649981 224.884266,461.578111 L222.964826,461.059892 C221.790469,460.745934 221.001891,459.71706 221,458.502837 C221,457.284832 221.788578,456.254066 222.964826,455.938217 L224.886157,455.421889 C225.147126,455.350019 225.351362,455.143866 225.423222,454.882865 L225.939486,452.963182 C226.255295,451.788677 227.284039,451 228.5,451 C229.715961,451 230.744705,451.788677 231.060514,452.963182 L231.578669,454.884756 C231.65053,455.143866 231.854766,455.350019 232.117625,455.421889 L234.037065,455.938217 C235.211422,456.254066 236,457.284832 236,458.502837 C236,459.71706 235.209531,460.745934 234.037065,461.059892 L232.115734,461.578111 C231.854766,461.649981 231.65053,461.854243 231.578669,462.117135 L231.060514,464.036818 C230.744705,465.211323 229.715961,466 228.5,466" id="Fill-159"></path>
                            <path d="M259.5,641.891313 C259.363843,641.891313 258.906203,641.93103 258.764372,642.454924 L258.248109,644.374606 C258.002269,645.284327 257.285552,646.001135 256.379728,646.247005 L254.456505,646.763334 C253.932678,646.905182 253.891074,647.364771 253.891074,647.500946 C253.891074,647.63712 253.932678,648.092926 254.456505,648.234775 L256.377837,648.752995 C257.285552,648.998865 258.002269,649.715673 258.248109,650.621611 L258.764372,652.545076 C258.906203,653.067079 259.363843,653.108687 259.5,653.108687 C259.636157,653.108687 260.093797,653.067079 260.237519,652.545076 L260.753782,650.623503 C260.999622,649.715673 261.716339,648.998865 262.622163,648.752995 L264.545386,648.234775 C265.067322,648.094818 265.108926,647.63712 265.108926,647.500946 C265.108926,647.364771 265.067322,646.905182 264.545386,646.763334 L262.624054,646.247005 C261.716339,646.001135 260.999622,645.284327 260.753782,644.376497 L260.237519,642.454924 C260.093797,641.93103 259.636157,641.891313 259.5,641.891313 M259.5,655 C258.284039,655 257.255295,654.211323 256.939486,653.036818 L256.423222,651.115244 C256.351362,650.854243 256.147126,650.649981 255.884266,650.578111 L253.964826,650.059892 C252.790469,649.745934 252.001891,648.71706 252,647.502837 C252,646.284832 252.788578,645.254066 253.964826,644.938217 L255.886157,644.421889 C256.147126,644.350019 256.351362,644.143866 256.423222,643.882865 L256.939486,641.963182 C257.255295,640.788677 258.284039,640 259.5,640 C260.715961,640 261.744705,640.788677 262.060514,641.963182 L262.578669,643.884756 C262.65053,644.143866 262.854766,644.350019 263.117625,644.421889 L265.037065,644.938217 C266.211422,645.254066 267,646.284832 267,647.502837 C267,648.71706 266.209531,649.745934 265.037065,650.059892 L263.115734,650.578111 C262.854766,650.649981 262.65053,650.854243 262.578669,651.117135 L262.060514,653.036818 C261.744705,654.211323 260.715961,655 259.5,655" id="Fill-161"></path>
                            <path d="M401.5,398.891313 C401.363843,398.891313 400.906203,398.93103 400.764372,399.454924 L400.248109,401.374606 C400.002269,402.284327 399.285552,403.001135 398.379728,403.247005 L396.456505,403.763334 C395.932678,403.905182 395.891074,404.364771 395.891074,404.500946 C395.891074,404.63712 395.932678,405.092926 396.456505,405.234775 L398.377837,405.752995 C399.285552,405.998865 400.002269,406.715673 400.248109,407.621611 L400.764372,409.545076 C400.906203,410.067079 401.363843,410.108687 401.5,410.108687 C401.636157,410.108687 402.093797,410.067079 402.237519,409.545076 L402.753782,407.623503 C402.999622,406.715673 403.716339,405.998865 404.622163,405.752995 L406.545386,405.234775 C407.067322,405.094818 407.108926,404.63712 407.108926,404.500946 C407.108926,404.364771 407.067322,403.905182 406.545386,403.763334 L404.624054,403.247005 C403.716339,403.001135 402.999622,402.284327 402.753782,401.376497 L402.237519,399.454924 C402.093797,398.93103 401.636157,398.891313 401.5,398.891313 M401.5,412 C400.284039,412 399.255295,411.211323 398.939486,410.036818 L398.423222,408.115244 C398.351362,407.854243 398.147126,407.649981 397.884266,407.578111 L395.964826,407.059892 C394.790469,406.745934 394.001891,405.71706 394,404.502837 C394,403.284832 394.788578,402.254066 395.964826,401.938217 L397.886157,401.421889 C398.147126,401.350019 398.351362,401.143866 398.423222,400.882865 L398.939486,398.963182 C399.255295,397.788677 400.284039,397 401.5,397 C402.715961,397 403.744705,397.788677 404.060514,398.963182 L404.578669,400.884756 C404.65053,401.143866 404.854766,401.350019 405.117625,401.421889 L407.037065,401.938217 C408.211422,402.254066 409,403.284832 409,404.502837 C409,405.71706 408.209531,406.745934 407.037065,407.059892 L405.115734,407.578111 C404.854766,407.649981 404.65053,407.854243 404.578669,408.117135 L404.060514,410.036818 C403.744705,411.211323 402.715961,412 401.5,412" id="Fill-171"></path>
                            <path d="M361.5,535.891313 C361.363843,535.891313 360.906203,535.93103 360.764372,536.454924 L360.248109,538.374606 C360.002269,539.284327 359.285552,540.001135 358.379728,540.247005 L356.456505,540.763334 C355.932678,540.905182 355.891074,541.364771 355.891074,541.500946 C355.891074,541.63712 355.932678,542.092926 356.456505,542.234775 L358.377837,542.752995 C359.285552,542.998865 360.002269,543.715673 360.248109,544.621611 L360.764372,546.545076 C360.906203,547.067079 361.363843,547.108687 361.5,547.108687 C361.636157,547.108687 362.093797,547.067079 362.237519,546.545076 L362.753782,544.623503 C362.999622,543.715673 363.716339,542.998865 364.622163,542.752995 L366.545386,542.234775 C367.067322,542.094818 367.108926,541.63712 367.108926,541.500946 C367.108926,541.364771 367.067322,540.905182 366.545386,540.763334 L364.624054,540.247005 C363.716339,540.001135 362.999622,539.284327 362.753782,538.376497 L362.237519,536.454924 C362.093797,535.93103 361.636157,535.891313 361.5,535.891313 M361.5,549 C360.284039,549 359.255295,548.211323 358.939486,547.036818 L358.423222,545.115244 C358.351362,544.854243 358.147126,544.649981 357.884266,544.578111 L355.964826,544.059892 C354.790469,543.745934 354.001891,542.71706 354,541.502837 C354,540.284832 354.788578,539.254066 355.964826,538.938217 L357.886157,538.421889 C358.147126,538.350019 358.351362,538.143866 358.423222,537.882865 L358.939486,535.963182 C359.255295,534.788677 360.284039,534 361.5,534 C362.715961,534 363.744705,534.788677 364.060514,535.963182 L364.578669,537.884756 C364.65053,538.143866 364.854766,538.350019 365.117625,538.421889 L367.037065,538.938217 C368.211422,539.254066 369,540.284832 369,541.502837 C369,542.71706 368.209531,543.745934 367.037065,544.059892 L365.115734,544.578111 C364.854766,544.649981 364.65053,544.854243 364.578669,545.117135 L364.060514,547.036818 C363.744705,548.211323 362.715961,549 361.5,549" id="Fill-159" transform="translate(361.500000, 541.500000) rotate(90.000000) translate(-361.500000, -541.500000) "></path>
                            <path d="M305.5,553.891313 C305.363843,553.891313 304.906203,553.93103 304.764372,554.454924 L304.248109,556.374606 C304.002269,557.284327 303.285552,558.001135 302.379728,558.247005 L300.456505,558.763334 C299.932678,558.905182 299.891074,559.364771 299.891074,559.500946 C299.891074,559.63712 299.932678,560.092926 300.456505,560.234775 L302.377837,560.752995 C303.285552,560.998865 304.002269,561.715673 304.248109,562.621611 L304.764372,564.545076 C304.906203,565.067079 305.363843,565.108687 305.5,565.108687 C305.636157,565.108687 306.093797,565.067079 306.237519,564.545076 L306.753782,562.623503 C306.999622,561.715673 307.716339,560.998865 308.622163,560.752995 L310.545386,560.234775 C311.067322,560.094818 311.108926,559.63712 311.108926,559.500946 C311.108926,559.364771 311.067322,558.905182 310.545386,558.763334 L308.624054,558.247005 C307.716339,558.001135 306.999622,557.284327 306.753782,556.376497 L306.237519,554.454924 C306.093797,553.93103 305.636157,553.891313 305.5,553.891313 M305.5,567 C304.284039,567 303.255295,566.211323 302.939486,565.036818 L302.423222,563.115244 C302.351362,562.854243 302.147126,562.649981 301.884266,562.578111 L299.964826,562.059892 C298.790469,561.745934 298.001891,560.71706 298,559.502837 C298,558.284832 298.788578,557.254066 299.964826,556.938217 L301.886157,556.421889 C302.147126,556.350019 302.351362,556.143866 302.423222,555.882865 L302.939486,553.963182 C303.255295,552.788677 304.284039,552 305.5,552 C306.715961,552 307.744705,552.788677 308.060514,553.963182 L308.578669,555.884756 C308.65053,556.143866 308.854766,556.350019 309.117625,556.421889 L311.037065,556.938217 C312.211422,557.254066 313,558.284832 313,559.502837 C313,560.71706 312.209531,561.745934 311.037065,562.059892 L309.115734,562.578111 C308.854766,562.649981 308.65053,562.854243 308.578669,563.117135 L308.060514,565.036818 C307.744705,566.211323 306.715961,567 305.5,567" id="Fill-173"></path>
                            <path d="M363.5,666.891313 C363.363843,666.891313 362.906203,666.93103 362.764372,667.454924 L362.248109,669.374606 C362.002269,670.284327 361.285552,671.001135 360.379728,671.247005 L358.456505,671.763334 C357.932678,671.905182 357.891074,672.364771 357.891074,672.500946 C357.891074,672.63712 357.932678,673.092926 358.456505,673.234775 L360.377837,673.752995 C361.285552,673.998865 362.002269,674.715673 362.248109,675.621611 L362.764372,677.545076 C362.906203,678.067079 363.363843,678.108687 363.5,678.108687 C363.636157,678.108687 364.093797,678.067079 364.237519,677.545076 L364.753782,675.623503 C364.999622,674.715673 365.716339,673.998865 366.622163,673.752995 L368.545386,673.234775 C369.067322,673.094818 369.108926,672.63712 369.108926,672.500946 C369.108926,672.364771 369.067322,671.905182 368.545386,671.763334 L366.624054,671.247005 C365.716339,671.001135 364.999622,670.284327 364.753782,669.376497 L364.237519,667.454924 C364.093797,666.93103 363.636157,666.891313 363.5,666.891313 M363.5,680 C362.284039,680 361.255295,679.211323 360.939486,678.036818 L360.423222,676.115244 C360.351362,675.854243 360.147126,675.649981 359.884266,675.578111 L357.964826,675.059892 C356.790469,674.745934 356.001891,673.71706 356,672.502837 C356,671.284832 356.788578,670.254066 357.964826,669.938217 L359.886157,669.421889 C360.147126,669.350019 360.351362,669.143866 360.423222,668.882865 L360.939486,666.963182 C361.255295,665.788677 362.284039,665 363.5,665 C364.715961,665 365.744705,665.788677 366.060514,666.963182 L366.578669,668.884756 C366.65053,669.143866 366.854766,669.350019 367.117625,669.421889 L369.037065,669.938217 C370.211422,670.254066 371,671.284832 371,672.502837 C371,673.71706 370.209531,674.745934 369.037065,675.059892 L367.115734,675.578111 C366.854766,675.649981 366.65053,675.854243 366.578669,676.117135 L366.060514,678.036818 C365.744705,679.211323 364.715961,680 363.5,680" id="Fill-161"></path>
                            <path d="M264.5,71.8913126 C264.363843,71.8913126 263.906203,71.9310301 263.764372,72.4549237 L263.248109,74.374606 C263.002269,75.2843273 262.285552,76.0011348 261.379728,76.2470054 L259.456505,76.7633338 C258.932678,76.9051822 258.891074,77.3647712 258.891074,77.5009457 C258.891074,77.6371202 258.932678,78.0929265 259.456505,78.2347749 L261.377837,78.7529946 C262.285552,78.9988652 263.002269,79.7156727 263.248109,80.6216114 L263.764372,82.5450763 C263.906203,83.0670786 264.363843,83.1086874 264.5,83.1086874 C264.636157,83.1086874 265.093797,83.0670786 265.237519,82.5450763 L265.753782,80.6235027 C265.999622,79.7156727 266.716339,78.9988652 267.622163,78.7529946 L269.545386,78.2347749 C270.067322,78.0948178 270.108926,77.6371202 270.108926,77.5009457 C270.108926,77.3647712 270.067322,76.9051822 269.545386,76.7633338 L267.624054,76.2470054 C266.716339,76.0011348 265.999622,75.2843273 265.753782,74.3764973 L265.237519,72.4549237 C265.093797,71.9310301 264.636157,71.8913126 264.5,71.8913126 M264.5,85 C263.284039,85 262.255295,84.2113227 261.939486,83.0368176 L261.423222,81.115244 C261.351362,80.8542428 261.147126,80.6499811 260.884266,80.5781112 L258.964826,80.0598916 C257.790469,79.7459337 257.001891,78.7170596 257,77.502837 C257,76.2848317 257.788578,75.2540663 258.964826,74.9382171 L260.886157,74.4218888 C261.147126,74.3500189 261.351362,74.1438658 261.423222,73.8828647 L261.939486,71.9631824 C262.255295,70.7886773 263.284039,70 264.5,70 C265.715961,70 266.744705,70.7886773 267.060514,71.9631824 L267.578669,73.884756 C267.65053,74.1438658 267.854766,74.3500189 268.117625,74.4218888 L270.037065,74.9382171 C271.211422,75.2540663 272,76.2848317 272,77.502837 C272,78.7170596 271.209531,79.7459337 270.037065,80.0598916 L268.115734,80.5781112 C267.854766,80.6499811 267.65053,80.8542428 267.578669,81.1171353 L267.060514,83.0368176 C266.744705,84.2113227 265.715961,85 264.5,85" id="Fill-175"></path>
                            <path d="M176.5,210.891313 C176.363843,210.891313 175.906203,210.93103 175.764372,211.454924 L175.248109,213.374606 C175.002269,214.284327 174.285552,215.001135 173.379728,215.247005 L171.456505,215.763334 C170.932678,215.905182 170.891074,216.364771 170.891074,216.500946 C170.891074,216.63712 170.932678,217.092926 171.456505,217.234775 L173.377837,217.752995 C174.285552,217.998865 175.002269,218.715673 175.248109,219.621611 L175.764372,221.545076 C175.906203,222.067079 176.363843,222.108687 176.5,222.108687 C176.636157,222.108687 177.093797,222.067079 177.237519,221.545076 L177.753782,219.623503 C177.997731,218.715673 178.716339,217.998865 179.622163,217.752995 L181.543495,217.234775 C182.067322,217.094818 182.108926,216.63712 182.108926,216.500946 C182.108926,216.364771 182.067322,215.905182 181.543495,215.763334 L179.624054,215.247005 C178.716339,215.001135 177.997731,214.284327 177.753782,213.376497 L177.237519,211.454924 C177.093797,210.93103 176.636157,210.891313 176.5,210.891313 M176.5,224 C175.284039,224 174.255295,223.211323 173.939486,222.036818 L173.423222,220.115244 C173.351362,219.854243 173.147126,219.649981 172.884266,219.578111 L170.964826,219.059892 C169.790469,218.745934 169.001891,217.71706 169,216.502837 C169,215.284832 169.786687,214.254066 170.964826,213.938217 L172.886157,213.421889 C173.147126,213.350019 173.351362,213.143866 173.423222,212.882865 L173.939486,210.963182 C174.255295,209.788677 175.284039,209 176.5,209 C177.715961,209 178.744705,209.788677 179.060514,210.963182 L179.578669,212.884756 C179.65053,213.143866 179.854766,213.350019 180.117625,213.421889 L182.037065,213.938217 C183.211422,214.254066 184,215.284832 184,216.502837 C184,217.71706 183.209531,218.745934 182.037065,219.059892 L180.115734,219.578111 C179.854766,219.649981 179.65053,219.854243 179.578669,220.117135 L179.060514,222.036818 C178.744705,223.211323 177.715961,224 176.5,224" id="Fill-179"></path>
                        </g>
                    </g>
                    <g id="Group-29" opacity="0.1" mask="url(#mask-2)" fill="#CCCCCC">
                        <g transform="translate(1095.500000, 160.500000) rotate(90.000000) translate(-1095.500000, -160.500000) translate(777.500000, -199.500000)">
                            <path d="M206.500901,1.80298312 C204.461728,1.80298312 202.802983,3.46172759 202.802983,5.50090149 C202.802983,7.53827241 204.461728,9.19701688 206.500901,9.19701688 C208.538272,9.19701688 210.197017,7.53827241 210.197017,5.50090149 C210.197017,3.46172759 208.538272,1.80298312 206.500901,1.80298312 M206.500901,11 C203.466481,11 201,8.53171611 201,5.50090149 C201,2.4664809 203.466481,0 206.500901,0 C209.533519,0 212,2.4664809 212,5.50090149 C212,8.53171611 209.533519,11 206.500901,11" id="Fill-106"></path>
                            <path d="M406.500901,242.802983 C404.461728,242.802983 402.802983,244.461728 402.802983,246.500901 C402.802983,248.538272 404.461728,250.197017 406.500901,250.197017 C408.538272,250.197017 410.197017,248.538272 410.197017,246.500901 C410.197017,244.461728 408.538272,242.802983 406.500901,242.802983 M406.500901,252 C403.466481,252 401,249.531716 401,246.500901 C401,243.466481 403.466481,241 406.500901,241 C409.533519,241 412,243.466481 412,246.500901 C412,249.531716 409.533519,252 406.500901,252" id="Fill-110"></path>
                            <path d="M419.500901,13.8029831 C417.461728,13.8029831 415.802983,15.4617276 415.802983,17.5009015 C415.802983,19.5382724 417.461728,21.1970169 419.500901,21.1970169 C421.538272,21.1970169 423.197017,19.5382724 423.197017,17.5009015 C423.197017,15.4617276 421.538272,13.8029831 419.500901,13.8029831 M419.500901,23 C416.466481,23 414,20.5317161 414,17.5009015 C414,14.4664809 416.466481,12 419.500901,12 C422.533519,12 425,14.4664809 425,17.5009015 C425,20.5317161 422.533519,23 419.500901,23" id="Fill-112"></path>
                            <path d="M183.500901,111.802983 C181.461728,111.802983 179.802983,113.461728 179.802983,115.500901 C179.802983,117.538272 181.461728,119.197017 183.500901,119.197017 C185.538272,119.197017 187.197017,117.538272 187.197017,115.500901 C187.197017,113.461728 185.538272,111.802983 183.500901,111.802983 M183.500901,121 C180.466481,121 178,118.531716 178,115.500901 C178,112.466481 180.466481,110 183.500901,110 C186.533519,110 189,112.466481 189,115.500901 C189,118.531716 186.533519,121 183.500901,121" id="Fill-114"></path>
                            <path d="M225.500901,122.802983 C223.461728,122.802983 221.802983,124.461728 221.802983,126.500901 C221.802983,128.538272 223.461728,130.197017 225.500901,130.197017 C227.538272,130.197017 229.197017,128.538272 229.197017,126.500901 C229.197017,124.461728 227.538272,122.802983 225.500901,122.802983 M225.500901,132 C222.466481,132 220,129.531716 220,126.500901 C220,123.466481 222.466481,121 225.500901,121 C228.533519,121 231,123.466481 231,126.500901 C231,129.531716 228.533519,132 225.500901,132" id="Fill-116"></path>
                            <path d="M277.500901,246.802983 C275.461728,246.802983 273.802983,248.461728 273.802983,250.500901 C273.802983,252.538272 275.461728,254.197017 277.500901,254.197017 C279.538272,254.197017 281.197017,252.538272 281.197017,250.500901 C281.197017,248.461728 279.538272,246.802983 277.500901,246.802983 M277.500901,256 C274.466481,256 272,253.531716 272,250.500901 C272,247.466481 274.466481,245 277.500901,245 C280.533519,245 283,247.466481 283,250.500901 C283,253.531716 280.533519,256 277.500901,256" id="Fill-118"></path>
                            <path d="M320.500901,287.802983 C318.461728,287.802983 316.802983,289.461728 316.802983,291.500901 C316.802983,293.538272 318.461728,295.197017 320.500901,295.197017 C322.538272,295.197017 324.197017,293.538272 324.197017,291.500901 C324.197017,289.461728 322.538272,287.802983 320.500901,287.802983 M320.500901,297 C317.466481,297 315,294.531716 315,291.500901 C315,288.466481 317.466481,286 320.500901,286 C323.533519,286 326,288.466481 326,291.500901 C326,294.531716 323.533519,297 320.500901,297" id="Fill-120"></path>
                            <path d="M209.500901,363.802983 C207.461728,363.802983 205.802983,365.461728 205.802983,367.500901 C205.802983,369.538272 207.461728,371.197017 209.500901,371.197017 C211.538272,371.197017 213.197017,369.538272 213.197017,367.500901 C213.197017,365.461728 211.538272,363.802983 209.500901,363.802983 M209.500901,373 C206.466481,373 204,370.531716 204,367.500901 C204,364.466481 206.466481,362 209.500901,362 C212.533519,362 215,364.466481 215,367.500901 C215,370.531716 212.533519,373 209.500901,373" id="Fill-122"></path>
                            <path d="M181.500901,503.802983 C179.461728,503.802983 177.802983,505.461728 177.802983,507.500901 C177.802983,509.538272 179.461728,511.197017 181.500901,511.197017 C183.538272,511.197017 185.197017,509.538272 185.197017,507.500901 C185.197017,505.461728 183.538272,503.802983 181.500901,503.802983 M181.500901,513 C178.466481,513 176,510.531716 176,507.500901 C176,504.466481 178.466481,502 181.500901,502 C184.533519,502 187,504.466481 187,507.500901 C187,510.531716 184.533519,513 181.500901,513" id="Fill-124"></path>
                            <path d="M347.500901,421.802983 C345.461728,421.802983 343.802983,423.461728 343.802983,425.500901 C343.802983,427.538272 345.461728,429.197017 347.500901,429.197017 C349.538272,429.197017 351.197017,427.538272 351.197017,425.500901 C351.197017,423.461728 349.538272,421.802983 347.500901,421.802983 M347.500901,431 C344.466481,431 342,428.531716 342,425.500901 C342,422.466481 344.466481,420 347.500901,420 C350.533519,420 353,422.466481 353,425.500901 C353,428.531716 350.533519,431 347.500901,431" id="Fill-126"></path>
                            <path d="M257.500901,382.802983 C255.461728,382.802983 253.802983,384.461728 253.802983,386.500901 C253.802983,388.538272 255.461728,390.197017 257.500901,390.197017 C259.538272,390.197017 261.197017,388.538272 261.197017,386.500901 C261.197017,384.461728 259.538272,382.802983 257.500901,382.802983 M257.500901,392 C254.466481,392 252,389.531716 252,386.500901 C252,383.466481 254.466481,381 257.500901,381 C260.533519,381 263,383.466481 263,386.500901 C263,389.531716 260.533519,392 257.500901,392" id="Fill-128"></path>
                            <path d="M328.500901,606.802983 C326.461728,606.802983 324.802983,608.461728 324.802983,610.500901 C324.802983,612.538272 326.461728,614.197017 328.500901,614.197017 C330.538272,614.197017 332.197017,612.538272 332.197017,610.500901 C332.197017,608.461728 330.538272,606.802983 328.500901,606.802983 M328.500901,616 C325.466481,616 323,613.531716 323,610.500901 C323,607.466481 325.466481,605 328.500901,605 C331.533519,605 334,607.466481 334,610.500901 C334,613.531716 331.533519,616 328.500901,616" id="Fill-133"></path>
                            <path d="M332.500901,489.802983 C330.461728,489.802983 328.802983,491.461728 328.802983,493.500901 C328.802983,495.538272 330.461728,497.197017 332.500901,497.197017 C334.538272,497.197017 336.197017,495.538272 336.197017,493.500901 C336.197017,491.461728 334.538272,489.802983 332.500901,489.802983 M332.500901,499 C329.466481,499 327,496.531716 327,493.500901 C327,490.466481 329.466481,488 332.500901,488 C335.533519,488 338,490.466481 338,493.500901 C338,496.531716 335.533519,499 332.500901,499" id="Fill-135"></path>
                            <path d="M403.500901,662.802983 C401.461728,662.802983 399.802983,664.461728 399.802983,666.500901 C399.802983,668.538272 401.461728,670.197017 403.500901,670.197017 C405.538272,670.197017 407.197017,668.538272 407.197017,666.500901 C407.197017,664.461728 405.538272,662.802983 403.500901,662.802983 M403.500901,672 C400.466481,672 398,669.531716 398,666.500901 C398,663.466481 400.466481,661 403.500901,661 C406.533519,661 409,663.466481 409,666.500901 C409,669.531716 406.533519,672 403.500901,672" id="Fill-137"></path>
                            <path d="M192.500901,605.802983 C190.461728,605.802983 188.802983,607.461728 188.802983,609.500901 C188.802983,611.538272 190.461728,613.197017 192.500901,613.197017 C194.538272,613.197017 196.197017,611.538272 196.197017,609.500901 C196.197017,607.461728 194.538272,605.802983 192.500901,605.802983 M192.500901,615 C189.466481,615 187,612.531716 187,609.500901 C187,606.466481 189.466481,604 192.500901,604 C195.533519,604 198,606.466481 198,609.500901 C198,612.531716 195.533519,615 192.500901,615" id="Fill-139"></path>
                            <path d="M382.500901,606.802983 C380.461728,606.802983 378.802983,608.461728 378.802983,610.500901 C378.802983,612.538272 380.461728,614.197017 382.500901,614.197017 C384.538272,614.197017 386.197017,612.538272 386.197017,610.500901 C386.197017,608.461728 384.538272,606.802983 382.500901,606.802983 M382.500901,616 C379.466481,616 377,613.531716 377,610.500901 C377,607.466481 379.466481,605 382.500901,605 C385.533519,605 388,607.466481 388,610.500901 C388,613.531716 385.533519,616 382.500901,616" id="Fill-141"></path>
                            <path d="M293.500901,449.802983 C291.461728,449.802983 289.802983,451.461728 289.802983,453.500901 C289.802983,455.538272 291.461728,457.197017 293.500901,457.197017 C295.538272,457.197017 297.197017,455.538272 297.197017,453.500901 C297.197017,451.461728 295.538272,449.802983 293.500901,449.802983 M293.500901,459 C290.466481,459 288,456.531716 288,453.500901 C288,450.466481 290.466481,448 293.500901,448 C296.533519,448 299,450.466481 299,453.500901 C299,456.531716 296.533519,459 293.500901,459" id="Fill-145"></path>
                            <path d="M404.500901,511.802983 C402.461728,511.802983 400.802983,513.461728 400.802983,515.500901 C400.802983,517.538272 402.461728,519.197017 404.500901,519.197017 C406.538272,519.197017 408.197017,517.538272 408.197017,515.500901 C408.197017,513.461728 406.538272,511.802983 404.500901,511.802983 M404.500901,521 C401.466481,521 399,518.531716 399,515.500901 C399,512.466481 401.466481,510 404.500901,510 C407.533519,510 410,512.466481 410,515.500901 C410,518.531716 407.533519,521 404.500901,521" id="Fill-147"></path>
                            <path d="M371.500901,36.8029831 C369.461728,36.8029831 367.802983,38.4617276 367.802983,40.5009015 C367.802983,42.5382724 369.461728,44.1970169 371.500901,44.1970169 C373.538272,44.1970169 375.197017,42.5382724 375.197017,40.5009015 C375.197017,38.4617276 373.538272,36.8029831 371.500901,36.8029831 M371.500901,46 C368.466481,46 366,43.5317161 366,40.5009015 C366,37.4664809 368.466481,35 371.500901,35 C374.533519,35 377,37.4664809 377,40.5009015 C377,43.5317161 374.533519,46 371.500901,46" id="Fill-149"></path>
                            <path d="M269.5,505.891313 C269.363843,505.891313 268.906203,505.93103 268.764372,506.454924 L268.248109,508.374606 C268.002269,509.284327 267.285552,510.001135 266.379728,510.247005 L264.456505,510.763334 C263.932678,510.905182 263.891074,511.364771 263.891074,511.500946 C263.891074,511.63712 263.932678,512.092926 264.456505,512.234775 L266.377837,512.752995 C267.285552,512.998865 268.002269,513.715673 268.248109,514.621611 L268.764372,516.545076 C268.906203,517.067079 269.363843,517.108687 269.5,517.108687 C269.636157,517.108687 270.093797,517.067079 270.237519,516.545076 L270.753782,514.623503 C270.997731,513.715673 271.716339,512.998865 272.622163,512.752995 L274.543495,512.234775 C275.067322,512.094818 275.108926,511.63712 275.108926,511.500946 C275.108926,511.364771 275.067322,510.905182 274.543495,510.763334 L272.624054,510.247005 C271.716339,510.001135 270.997731,509.284327 270.753782,508.376497 L270.237519,506.454924 C270.093797,505.93103 269.636157,505.891313 269.5,505.891313 M269.5,519 C268.284039,519 267.255295,518.211323 266.939486,517.036818 L266.423222,515.115244 C266.351362,514.854243 266.147126,514.649981 265.884266,514.578111 L263.964826,514.059892 C262.790469,513.745934 262.001891,512.71706 262,511.502837 C262,510.284832 262.786687,509.254066 263.964826,508.938217 L265.886157,508.421889 C266.147126,508.350019 266.351362,508.143866 266.423222,507.882865 L266.939486,505.963182 C267.255295,504.788677 268.284039,504 269.5,504 C270.715961,504 271.744705,504.788677 272.060514,505.963182 L272.578669,507.884756 C272.65053,508.143866 272.854766,508.350019 273.117625,508.421889 L275.037065,508.938217 C276.211422,509.254066 277,510.284832 277,511.502837 C277,512.71706 276.209531,513.745934 275.037065,514.059892 L273.115734,514.578111 C272.854766,514.649981 272.65053,514.854243 272.578669,515.117135 L272.060514,517.036818 C271.744705,518.211323 270.715961,519 269.5,519" id="Fill-151"></path>
                            <path d="M256.5,274.891313 C256.363843,274.891313 255.906203,274.93103 255.764372,275.454924 L255.248109,277.374606 C255.002269,278.284327 254.285552,279.001135 253.379728,279.247005 L251.456505,279.763334 C250.932678,279.905182 250.891074,280.364771 250.891074,280.500946 C250.891074,280.63712 250.932678,281.092926 251.456505,281.234775 L253.377837,281.752995 C254.285552,281.998865 255.002269,282.715673 255.248109,283.621611 L255.764372,285.545076 C255.906203,286.067079 256.363843,286.108687 256.5,286.108687 C256.636157,286.108687 257.093797,286.067079 257.237519,285.545076 L257.753782,283.623503 C257.999622,282.715673 258.716339,281.998865 259.622163,281.752995 L261.545386,281.234775 C262.067322,281.094818 262.108926,280.63712 262.108926,280.500946 C262.108926,280.364771 262.067322,279.905182 261.545386,279.763334 L259.624054,279.247005 C258.716339,279.001135 257.999622,278.284327 257.753782,277.376497 L257.237519,275.454924 C257.093797,274.93103 256.636157,274.891313 256.5,274.891313 M256.5,288 C255.284039,288 254.255295,287.211323 253.939486,286.036818 L253.423222,284.115244 C253.351362,283.854243 253.147126,283.649981 252.884266,283.578111 L250.964826,283.059892 C249.790469,282.745934 249.001891,281.71706 249,280.502837 C249,279.284832 249.788578,278.254066 250.964826,277.938217 L252.886157,277.421889 C253.147126,277.350019 253.351362,277.143866 253.423222,276.882865 L253.939486,274.963182 C254.255295,273.788677 255.284039,273 256.5,273 C257.715961,273 258.744705,273.788677 259.060514,274.963182 L259.578669,276.884756 C259.65053,277.143866 259.854766,277.350019 260.117625,277.421889 L262.037065,277.938217 C263.211422,278.254066 264,279.284832 264,280.502837 C264,281.71706 263.209531,282.745934 262.037065,283.059892 L260.115734,283.578111 C259.854766,283.649981 259.65053,283.854243 259.578669,284.117135 L259.060514,286.036818 C258.744705,287.211323 257.715961,288 256.5,288" id="Fill-153"></path>
                            <path d="M338.5,152.891313 C338.363843,152.891313 337.906203,152.93103 337.764372,153.454924 L337.248109,155.374606 C337.002269,156.284327 336.285552,157.001135 335.379728,157.247005 L333.456505,157.763334 C332.932678,157.905182 332.891074,158.364771 332.891074,158.500946 C332.891074,158.63712 332.932678,159.092926 333.456505,159.234775 L335.377837,159.752995 C336.285552,159.998865 337.002269,160.715673 337.248109,161.621611 L337.764372,163.545076 C337.906203,164.067079 338.363843,164.108687 338.5,164.108687 C338.636157,164.108687 339.093797,164.067079 339.237519,163.545076 L339.753782,161.623503 C339.999622,160.715673 340.716339,159.998865 341.622163,159.752995 L343.545386,159.234775 C344.067322,159.094818 344.108926,158.63712 344.108926,158.500946 C344.108926,158.364771 344.067322,157.905182 343.545386,157.763334 L341.624054,157.247005 C340.716339,157.001135 339.999622,156.284327 339.753782,155.376497 L339.237519,153.454924 C339.093797,152.93103 338.636157,152.891313 338.5,152.891313 M338.5,166 C337.284039,166 336.255295,165.211323 335.939486,164.036818 L335.423222,162.115244 C335.351362,161.854243 335.147126,161.649981 334.884266,161.578111 L332.964826,161.059892 C331.790469,160.745934 331.001891,159.71706 331,158.502837 C331,157.284832 331.788578,156.254066 332.964826,155.938217 L334.886157,155.421889 C335.147126,155.350019 335.351362,155.143866 335.423222,154.882865 L335.939486,152.963182 C336.255295,151.788677 337.284039,151 338.5,151 C339.715961,151 340.744705,151.788677 341.060514,152.963182 L341.578669,154.884756 C341.65053,155.143866 341.854766,155.350019 342.117625,155.421889 L344.037065,155.938217 C345.211422,156.254066 346,157.284832 346,158.502837 C346,159.71706 345.209531,160.745934 344.037065,161.059892 L342.115734,161.578111 C341.854766,161.649981 341.65053,161.854243 341.578669,162.117135 L341.060514,164.036818 C340.744705,165.211323 339.715961,166 338.5,166" id="Fill-155"></path>
                            <path d="M226.5,545.891313 C226.363843,545.891313 225.906203,545.93103 225.764372,546.454924 L225.248109,548.374606 C225.002269,549.284327 224.285552,550.001135 223.379728,550.247005 L221.456505,550.763334 C220.932678,550.905182 220.891074,551.364771 220.891074,551.500946 C220.891074,551.63712 220.932678,552.092926 221.456505,552.234775 L223.377837,552.752995 C224.285552,552.998865 225.002269,553.715673 225.248109,554.621611 L225.764372,556.545076 C225.906203,557.067079 226.363843,557.108687 226.5,557.108687 C226.636157,557.108687 227.093797,557.067079 227.237519,556.545076 L227.753782,554.623503 C227.999622,553.715673 228.716339,552.998865 229.622163,552.752995 L231.545386,552.234775 C232.067322,552.094818 232.108926,551.63712 232.108926,551.500946 C232.108926,551.364771 232.067322,550.905182 231.545386,550.763334 L229.624054,550.247005 C228.716339,550.001135 227.999622,549.284327 227.753782,548.376497 L227.237519,546.454924 C227.093797,545.93103 226.636157,545.891313 226.5,545.891313 M226.5,559 C225.284039,559 224.255295,558.211323 223.939486,557.036818 L223.423222,555.115244 C223.351362,554.854243 223.147126,554.649981 222.884266,554.578111 L220.964826,554.059892 C219.790469,553.745934 219.001891,552.71706 219,551.502837 C219,550.284832 219.788578,549.254066 220.964826,548.938217 L222.886157,548.421889 C223.147126,548.350019 223.351362,548.143866 223.423222,547.882865 L223.939486,545.963182 C224.255295,544.788677 225.284039,544 226.5,544 C227.715961,544 228.744705,544.788677 229.060514,545.963182 L229.578669,547.884756 C229.65053,548.143866 229.854766,548.350019 230.117625,548.421889 L232.037065,548.938217 C233.211422,549.254066 234,550.284832 234,551.502837 C234,552.71706 233.209531,553.745934 232.037065,554.059892 L230.115734,554.578111 C229.854766,554.649981 229.65053,554.854243 229.578669,555.117135 L229.060514,557.036818 C228.744705,558.211323 227.715961,559 226.5,559" id="Fill-157"></path>
                            <path d="M228.5,452.891313 C228.363843,452.891313 227.906203,452.93103 227.764372,453.454924 L227.248109,455.374606 C227.002269,456.284327 226.285552,457.001135 225.379728,457.247005 L223.456505,457.763334 C222.932678,457.905182 222.891074,458.364771 222.891074,458.500946 C222.891074,458.63712 222.932678,459.092926 223.456505,459.234775 L225.377837,459.752995 C226.285552,459.998865 227.002269,460.715673 227.248109,461.621611 L227.764372,463.545076 C227.906203,464.067079 228.363843,464.108687 228.5,464.108687 C228.636157,464.108687 229.093797,464.067079 229.237519,463.545076 L229.753782,461.623503 C229.999622,460.715673 230.716339,459.998865 231.622163,459.752995 L233.545386,459.234775 C234.067322,459.094818 234.108926,458.63712 234.108926,458.500946 C234.108926,458.364771 234.067322,457.905182 233.545386,457.763334 L231.624054,457.247005 C230.716339,457.001135 229.999622,456.284327 229.753782,455.376497 L229.237519,453.454924 C229.093797,452.93103 228.636157,452.891313 228.5,452.891313 M228.5,466 C227.284039,466 226.255295,465.211323 225.939486,464.036818 L225.423222,462.115244 C225.351362,461.854243 225.147126,461.649981 224.884266,461.578111 L222.964826,461.059892 C221.790469,460.745934 221.001891,459.71706 221,458.502837 C221,457.284832 221.788578,456.254066 222.964826,455.938217 L224.886157,455.421889 C225.147126,455.350019 225.351362,455.143866 225.423222,454.882865 L225.939486,452.963182 C226.255295,451.788677 227.284039,451 228.5,451 C229.715961,451 230.744705,451.788677 231.060514,452.963182 L231.578669,454.884756 C231.65053,455.143866 231.854766,455.350019 232.117625,455.421889 L234.037065,455.938217 C235.211422,456.254066 236,457.284832 236,458.502837 C236,459.71706 235.209531,460.745934 234.037065,461.059892 L232.115734,461.578111 C231.854766,461.649981 231.65053,461.854243 231.578669,462.117135 L231.060514,464.036818 C230.744705,465.211323 229.715961,466 228.5,466" id="Fill-159"></path>
                            <path d="M259.5,641.891313 C259.363843,641.891313 258.906203,641.93103 258.764372,642.454924 L258.248109,644.374606 C258.002269,645.284327 257.285552,646.001135 256.379728,646.247005 L254.456505,646.763334 C253.932678,646.905182 253.891074,647.364771 253.891074,647.500946 C253.891074,647.63712 253.932678,648.092926 254.456505,648.234775 L256.377837,648.752995 C257.285552,648.998865 258.002269,649.715673 258.248109,650.621611 L258.764372,652.545076 C258.906203,653.067079 259.363843,653.108687 259.5,653.108687 C259.636157,653.108687 260.093797,653.067079 260.237519,652.545076 L260.753782,650.623503 C260.999622,649.715673 261.716339,648.998865 262.622163,648.752995 L264.545386,648.234775 C265.067322,648.094818 265.108926,647.63712 265.108926,647.500946 C265.108926,647.364771 265.067322,646.905182 264.545386,646.763334 L262.624054,646.247005 C261.716339,646.001135 260.999622,645.284327 260.753782,644.376497 L260.237519,642.454924 C260.093797,641.93103 259.636157,641.891313 259.5,641.891313 M259.5,655 C258.284039,655 257.255295,654.211323 256.939486,653.036818 L256.423222,651.115244 C256.351362,650.854243 256.147126,650.649981 255.884266,650.578111 L253.964826,650.059892 C252.790469,649.745934 252.001891,648.71706 252,647.502837 C252,646.284832 252.788578,645.254066 253.964826,644.938217 L255.886157,644.421889 C256.147126,644.350019 256.351362,644.143866 256.423222,643.882865 L256.939486,641.963182 C257.255295,640.788677 258.284039,640 259.5,640 C260.715961,640 261.744705,640.788677 262.060514,641.963182 L262.578669,643.884756 C262.65053,644.143866 262.854766,644.350019 263.117625,644.421889 L265.037065,644.938217 C266.211422,645.254066 267,646.284832 267,647.502837 C267,648.71706 266.209531,649.745934 265.037065,650.059892 L263.115734,650.578111 C262.854766,650.649981 262.65053,650.854243 262.578669,651.117135 L262.060514,653.036818 C261.744705,654.211323 260.715961,655 259.5,655" id="Fill-161"></path>
                            <path d="M401.5,398.891313 C401.363843,398.891313 400.906203,398.93103 400.764372,399.454924 L400.248109,401.374606 C400.002269,402.284327 399.285552,403.001135 398.379728,403.247005 L396.456505,403.763334 C395.932678,403.905182 395.891074,404.364771 395.891074,404.500946 C395.891074,404.63712 395.932678,405.092926 396.456505,405.234775 L398.377837,405.752995 C399.285552,405.998865 400.002269,406.715673 400.248109,407.621611 L400.764372,409.545076 C400.906203,410.067079 401.363843,410.108687 401.5,410.108687 C401.636157,410.108687 402.093797,410.067079 402.237519,409.545076 L402.753782,407.623503 C402.999622,406.715673 403.716339,405.998865 404.622163,405.752995 L406.545386,405.234775 C407.067322,405.094818 407.108926,404.63712 407.108926,404.500946 C407.108926,404.364771 407.067322,403.905182 406.545386,403.763334 L404.624054,403.247005 C403.716339,403.001135 402.999622,402.284327 402.753782,401.376497 L402.237519,399.454924 C402.093797,398.93103 401.636157,398.891313 401.5,398.891313 M401.5,412 C400.284039,412 399.255295,411.211323 398.939486,410.036818 L398.423222,408.115244 C398.351362,407.854243 398.147126,407.649981 397.884266,407.578111 L395.964826,407.059892 C394.790469,406.745934 394.001891,405.71706 394,404.502837 C394,403.284832 394.788578,402.254066 395.964826,401.938217 L397.886157,401.421889 C398.147126,401.350019 398.351362,401.143866 398.423222,400.882865 L398.939486,398.963182 C399.255295,397.788677 400.284039,397 401.5,397 C402.715961,397 403.744705,397.788677 404.060514,398.963182 L404.578669,400.884756 C404.65053,401.143866 404.854766,401.350019 405.117625,401.421889 L407.037065,401.938217 C408.211422,402.254066 409,403.284832 409,404.502837 C409,405.71706 408.209531,406.745934 407.037065,407.059892 L405.115734,407.578111 C404.854766,407.649981 404.65053,407.854243 404.578669,408.117135 L404.060514,410.036818 C403.744705,411.211323 402.715961,412 401.5,412" id="Fill-171"></path>
                            <path d="M361.5,535.891313 C361.363843,535.891313 360.906203,535.93103 360.764372,536.454924 L360.248109,538.374606 C360.002269,539.284327 359.285552,540.001135 358.379728,540.247005 L356.456505,540.763334 C355.932678,540.905182 355.891074,541.364771 355.891074,541.500946 C355.891074,541.63712 355.932678,542.092926 356.456505,542.234775 L358.377837,542.752995 C359.285552,542.998865 360.002269,543.715673 360.248109,544.621611 L360.764372,546.545076 C360.906203,547.067079 361.363843,547.108687 361.5,547.108687 C361.636157,547.108687 362.093797,547.067079 362.237519,546.545076 L362.753782,544.623503 C362.999622,543.715673 363.716339,542.998865 364.622163,542.752995 L366.545386,542.234775 C367.067322,542.094818 367.108926,541.63712 367.108926,541.500946 C367.108926,541.364771 367.067322,540.905182 366.545386,540.763334 L364.624054,540.247005 C363.716339,540.001135 362.999622,539.284327 362.753782,538.376497 L362.237519,536.454924 C362.093797,535.93103 361.636157,535.891313 361.5,535.891313 M361.5,549 C360.284039,549 359.255295,548.211323 358.939486,547.036818 L358.423222,545.115244 C358.351362,544.854243 358.147126,544.649981 357.884266,544.578111 L355.964826,544.059892 C354.790469,543.745934 354.001891,542.71706 354,541.502837 C354,540.284832 354.788578,539.254066 355.964826,538.938217 L357.886157,538.421889 C358.147126,538.350019 358.351362,538.143866 358.423222,537.882865 L358.939486,535.963182 C359.255295,534.788677 360.284039,534 361.5,534 C362.715961,534 363.744705,534.788677 364.060514,535.963182 L364.578669,537.884756 C364.65053,538.143866 364.854766,538.350019 365.117625,538.421889 L367.037065,538.938217 C368.211422,539.254066 369,540.284832 369,541.502837 C369,542.71706 368.209531,543.745934 367.037065,544.059892 L365.115734,544.578111 C364.854766,544.649981 364.65053,544.854243 364.578669,545.117135 L364.060514,547.036818 C363.744705,548.211323 362.715961,549 361.5,549" id="Fill-159" transform="translate(361.500000, 541.500000) rotate(90.000000) translate(-361.500000, -541.500000) "></path>
                            <path d="M305.5,553.891313 C305.363843,553.891313 304.906203,553.93103 304.764372,554.454924 L304.248109,556.374606 C304.002269,557.284327 303.285552,558.001135 302.379728,558.247005 L300.456505,558.763334 C299.932678,558.905182 299.891074,559.364771 299.891074,559.500946 C299.891074,559.63712 299.932678,560.092926 300.456505,560.234775 L302.377837,560.752995 C303.285552,560.998865 304.002269,561.715673 304.248109,562.621611 L304.764372,564.545076 C304.906203,565.067079 305.363843,565.108687 305.5,565.108687 C305.636157,565.108687 306.093797,565.067079 306.237519,564.545076 L306.753782,562.623503 C306.999622,561.715673 307.716339,560.998865 308.622163,560.752995 L310.545386,560.234775 C311.067322,560.094818 311.108926,559.63712 311.108926,559.500946 C311.108926,559.364771 311.067322,558.905182 310.545386,558.763334 L308.624054,558.247005 C307.716339,558.001135 306.999622,557.284327 306.753782,556.376497 L306.237519,554.454924 C306.093797,553.93103 305.636157,553.891313 305.5,553.891313 M305.5,567 C304.284039,567 303.255295,566.211323 302.939486,565.036818 L302.423222,563.115244 C302.351362,562.854243 302.147126,562.649981 301.884266,562.578111 L299.964826,562.059892 C298.790469,561.745934 298.001891,560.71706 298,559.502837 C298,558.284832 298.788578,557.254066 299.964826,556.938217 L301.886157,556.421889 C302.147126,556.350019 302.351362,556.143866 302.423222,555.882865 L302.939486,553.963182 C303.255295,552.788677 304.284039,552 305.5,552 C306.715961,552 307.744705,552.788677 308.060514,553.963182 L308.578669,555.884756 C308.65053,556.143866 308.854766,556.350019 309.117625,556.421889 L311.037065,556.938217 C312.211422,557.254066 313,558.284832 313,559.502837 C313,560.71706 312.209531,561.745934 311.037065,562.059892 L309.115734,562.578111 C308.854766,562.649981 308.65053,562.854243 308.578669,563.117135 L308.060514,565.036818 C307.744705,566.211323 306.715961,567 305.5,567" id="Fill-173"></path>
                            <path d="M393.5,706.891313 C393.363843,706.891313 392.906203,706.93103 392.764372,707.454924 L392.248109,709.374606 C392.002269,710.284327 391.285552,711.001135 390.379728,711.247005 L388.456505,711.763334 C387.932678,711.905182 387.891074,712.364771 387.891074,712.500946 C387.891074,712.63712 387.932678,713.092926 388.456505,713.234775 L390.377837,713.752995 C391.285552,713.998865 392.002269,714.715673 392.248109,715.621611 L392.764372,717.545076 C392.906203,718.067079 393.363843,718.108687 393.5,718.108687 C393.636157,718.108687 394.093797,718.067079 394.237519,717.545076 L394.753782,715.623503 C394.999622,714.715673 395.716339,713.998865 396.622163,713.752995 L398.545386,713.234775 C399.067322,713.094818 399.108926,712.63712 399.108926,712.500946 C399.108926,712.364771 399.067322,711.905182 398.545386,711.763334 L396.624054,711.247005 C395.716339,711.001135 394.999622,710.284327 394.753782,709.376497 L394.237519,707.454924 C394.093797,706.93103 393.636157,706.891313 393.5,706.891313 M393.5,720 C392.284039,720 391.255295,719.211323 390.939486,718.036818 L390.423222,716.115244 C390.351362,715.854243 390.147126,715.649981 389.884266,715.578111 L387.964826,715.059892 C386.790469,714.745934 386.001891,713.71706 386,712.502837 C386,711.284832 386.788578,710.254066 387.964826,709.938217 L389.886157,709.421889 C390.147126,709.350019 390.351362,709.143866 390.423222,708.882865 L390.939486,706.963182 C391.255295,705.788677 392.284039,705 393.5,705 C394.715961,705 395.744705,705.788677 396.060514,706.963182 L396.578669,708.884756 C396.65053,709.143866 396.854766,709.350019 397.117625,709.421889 L399.037065,709.938217 C400.211422,710.254066 401,711.284832 401,712.502837 C401,713.71706 400.209531,714.745934 399.037065,715.059892 L397.115734,715.578111 C396.854766,715.649981 396.65053,715.854243 396.578669,716.117135 L396.060514,718.036818 C395.744705,719.211323 394.715961,720 393.5,720" id="Fill-161"></path>
                            <path d="M264.5,71.8913126 C264.363843,71.8913126 263.906203,71.9310301 263.764372,72.4549237 L263.248109,74.374606 C263.002269,75.2843273 262.285552,76.0011348 261.379728,76.2470054 L259.456505,76.7633338 C258.932678,76.9051822 258.891074,77.3647712 258.891074,77.5009457 C258.891074,77.6371202 258.932678,78.0929265 259.456505,78.2347749 L261.377837,78.7529946 C262.285552,78.9988652 263.002269,79.7156727 263.248109,80.6216114 L263.764372,82.5450763 C263.906203,83.0670786 264.363843,83.1086874 264.5,83.1086874 C264.636157,83.1086874 265.093797,83.0670786 265.237519,82.5450763 L265.753782,80.6235027 C265.999622,79.7156727 266.716339,78.9988652 267.622163,78.7529946 L269.545386,78.2347749 C270.067322,78.0948178 270.108926,77.6371202 270.108926,77.5009457 C270.108926,77.3647712 270.067322,76.9051822 269.545386,76.7633338 L267.624054,76.2470054 C266.716339,76.0011348 265.999622,75.2843273 265.753782,74.3764973 L265.237519,72.4549237 C265.093797,71.9310301 264.636157,71.8913126 264.5,71.8913126 M264.5,85 C263.284039,85 262.255295,84.2113227 261.939486,83.0368176 L261.423222,81.115244 C261.351362,80.8542428 261.147126,80.6499811 260.884266,80.5781112 L258.964826,80.0598916 C257.790469,79.7459337 257.001891,78.7170596 257,77.502837 C257,76.2848317 257.788578,75.2540663 258.964826,74.9382171 L260.886157,74.4218888 C261.147126,74.3500189 261.351362,74.1438658 261.423222,73.8828647 L261.939486,71.9631824 C262.255295,70.7886773 263.284039,70 264.5,70 C265.715961,70 266.744705,70.7886773 267.060514,71.9631824 L267.578669,73.884756 C267.65053,74.1438658 267.854766,74.3500189 268.117625,74.4218888 L270.037065,74.9382171 C271.211422,75.2540663 272,76.2848317 272,77.502837 C272,78.7170596 271.209531,79.7459337 270.037065,80.0598916 L268.115734,80.5781112 C267.854766,80.6499811 267.65053,80.8542428 267.578669,81.1171353 L267.060514,83.0368176 C266.744705,84.2113227 265.715961,85 264.5,85" id="Fill-175"></path>
                            <path d="M176.5,210.891313 C176.363843,210.891313 175.906203,210.93103 175.764372,211.454924 L175.248109,213.374606 C175.002269,214.284327 174.285552,215.001135 173.379728,215.247005 L171.456505,215.763334 C170.932678,215.905182 170.891074,216.364771 170.891074,216.500946 C170.891074,216.63712 170.932678,217.092926 171.456505,217.234775 L173.377837,217.752995 C174.285552,217.998865 175.002269,218.715673 175.248109,219.621611 L175.764372,221.545076 C175.906203,222.067079 176.363843,222.108687 176.5,222.108687 C176.636157,222.108687 177.093797,222.067079 177.237519,221.545076 L177.753782,219.623503 C177.997731,218.715673 178.716339,217.998865 179.622163,217.752995 L181.543495,217.234775 C182.067322,217.094818 182.108926,216.63712 182.108926,216.500946 C182.108926,216.364771 182.067322,215.905182 181.543495,215.763334 L179.624054,215.247005 C178.716339,215.001135 177.997731,214.284327 177.753782,213.376497 L177.237519,211.454924 C177.093797,210.93103 176.636157,210.891313 176.5,210.891313 M176.5,224 C175.284039,224 174.255295,223.211323 173.939486,222.036818 L173.423222,220.115244 C173.351362,219.854243 173.147126,219.649981 172.884266,219.578111 L170.964826,219.059892 C169.790469,218.745934 169.001891,217.71706 169,216.502837 C169,215.284832 169.786687,214.254066 170.964826,213.938217 L172.886157,213.421889 C173.147126,213.350019 173.351362,213.143866 173.423222,212.882865 L173.939486,210.963182 C174.255295,209.788677 175.284039,209 176.5,209 C177.715961,209 178.744705,209.788677 179.060514,210.963182 L179.578669,212.884756 C179.65053,213.143866 179.854766,213.350019 180.117625,213.421889 L182.037065,213.938217 C183.211422,214.254066 184,215.284832 184,216.502837 C184,217.71706 183.209531,218.745934 182.037065,219.059892 L180.115734,219.578111 C179.854766,219.649981 179.65053,219.854243 179.578669,220.117135 L179.060514,222.036818 C178.744705,223.211323 177.715961,224 176.5,224" id="Fill-179"></path>
                        </g>
                    </g>
                    <g id="Group-29" opacity="0.1" mask="url(#mask-2)" fill="#CCCCCC">
                        <g transform="translate(1894.500000, 160.500000) rotate(90.000000) translate(-1894.500000, -160.500000) translate(1576.500000, -190.500000)">
                            <path d="M209.500901,363.802983 C207.461728,363.802983 205.802983,365.461728 205.802983,367.500901 C205.802983,369.538272 207.461728,371.197017 209.500901,371.197017 C211.538272,371.197017 213.197017,369.538272 213.197017,367.500901 C213.197017,365.461728 211.538272,363.802983 209.500901,363.802983 M209.500901,373 C206.466481,373 204,370.531716 204,367.500901 C204,364.466481 206.466481,362 209.500901,362 C212.533519,362 215,364.466481 215,367.500901 C215,370.531716 212.533519,373 209.500901,373" id="Fill-122"></path>
                            <path d="M181.500901,503.802983 C179.461728,503.802983 177.802983,505.461728 177.802983,507.500901 C177.802983,509.538272 179.461728,511.197017 181.500901,511.197017 C183.538272,511.197017 185.197017,509.538272 185.197017,507.500901 C185.197017,505.461728 183.538272,503.802983 181.500901,503.802983 M181.500901,513 C178.466481,513 176,510.531716 176,507.500901 C176,504.466481 178.466481,502 181.500901,502 C184.533519,502 187,504.466481 187,507.500901 C187,510.531716 184.533519,513 181.500901,513" id="Fill-124"></path>
                            <path d="M347.500901,421.802983 C345.461728,421.802983 343.802983,423.461728 343.802983,425.500901 C343.802983,427.538272 345.461728,429.197017 347.500901,429.197017 C349.538272,429.197017 351.197017,427.538272 351.197017,425.500901 C351.197017,423.461728 349.538272,421.802983 347.500901,421.802983 M347.500901,431 C344.466481,431 342,428.531716 342,425.500901 C342,422.466481 344.466481,420 347.500901,420 C350.533519,420 353,422.466481 353,425.500901 C353,428.531716 350.533519,431 347.500901,431" id="Fill-126"></path>
                            <path d="M257.500901,382.802983 C255.461728,382.802983 253.802983,384.461728 253.802983,386.500901 C253.802983,388.538272 255.461728,390.197017 257.500901,390.197017 C259.538272,390.197017 261.197017,388.538272 261.197017,386.500901 C261.197017,384.461728 259.538272,382.802983 257.500901,382.802983 M257.500901,392 C254.466481,392 252,389.531716 252,386.500901 C252,383.466481 254.466481,381 257.500901,381 C260.533519,381 263,383.466481 263,386.500901 C263,389.531716 260.533519,392 257.500901,392" id="Fill-128"></path>
                            <path d="M328.500901,606.802983 C326.461728,606.802983 324.802983,608.461728 324.802983,610.500901 C324.802983,612.538272 326.461728,614.197017 328.500901,614.197017 C330.538272,614.197017 332.197017,612.538272 332.197017,610.500901 C332.197017,608.461728 330.538272,606.802983 328.500901,606.802983 M328.500901,616 C325.466481,616 323,613.531716 323,610.500901 C323,607.466481 325.466481,605 328.500901,605 C331.533519,605 334,607.466481 334,610.500901 C334,613.531716 331.533519,616 328.500901,616" id="Fill-133"></path>
                            <path d="M332.500901,489.802983 C330.461728,489.802983 328.802983,491.461728 328.802983,493.500901 C328.802983,495.538272 330.461728,497.197017 332.500901,497.197017 C334.538272,497.197017 336.197017,495.538272 336.197017,493.500901 C336.197017,491.461728 334.538272,489.802983 332.500901,489.802983 M332.500901,499 C329.466481,499 327,496.531716 327,493.500901 C327,490.466481 329.466481,488 332.500901,488 C335.533519,488 338,490.466481 338,493.500901 C338,496.531716 335.533519,499 332.500901,499" id="Fill-135"></path>
                            <path d="M303.500901,692.802983 C301.461728,692.802983 299.802983,694.461728 299.802983,696.500901 C299.802983,698.538272 301.461728,700.197017 303.500901,700.197017 C305.538272,700.197017 307.197017,698.538272 307.197017,696.500901 C307.197017,694.461728 305.538272,692.802983 303.500901,692.802983 M303.500901,702 C300.466481,702 298,699.531716 298,696.500901 C298,693.466481 300.466481,691 303.500901,691 C306.533519,691 309,693.466481 309,696.500901 C309,699.531716 306.533519,702 303.500901,702" id="Fill-137"></path>
                            <path d="M192.500901,605.802983 C190.461728,605.802983 188.802983,607.461728 188.802983,609.500901 C188.802983,611.538272 190.461728,613.197017 192.500901,613.197017 C194.538272,613.197017 196.197017,611.538272 196.197017,609.500901 C196.197017,607.461728 194.538272,605.802983 192.500901,605.802983 M192.500901,615 C189.466481,615 187,612.531716 187,609.500901 C187,606.466481 189.466481,604 192.500901,604 C195.533519,604 198,606.466481 198,609.500901 C198,612.531716 195.533519,615 192.500901,615" id="Fill-139"></path>
                            <path d="M382.500901,606.802983 C380.461728,606.802983 378.802983,608.461728 378.802983,610.500901 C378.802983,612.538272 380.461728,614.197017 382.500901,614.197017 C384.538272,614.197017 386.197017,612.538272 386.197017,610.500901 C386.197017,608.461728 384.538272,606.802983 382.500901,606.802983 M382.500901,616 C379.466481,616 377,613.531716 377,610.500901 C377,607.466481 379.466481,605 382.500901,605 C385.533519,605 388,607.466481 388,610.500901 C388,613.531716 385.533519,616 382.500901,616" id="Fill-141"></path>
                            <path d="M293.500901,449.802983 C291.461728,449.802983 289.802983,451.461728 289.802983,453.500901 C289.802983,455.538272 291.461728,457.197017 293.500901,457.197017 C295.538272,457.197017 297.197017,455.538272 297.197017,453.500901 C297.197017,451.461728 295.538272,449.802983 293.500901,449.802983 M293.500901,459 C290.466481,459 288,456.531716 288,453.500901 C288,450.466481 290.466481,448 293.500901,448 C296.533519,448 299,450.466481 299,453.500901 C299,456.531716 296.533519,459 293.500901,459" id="Fill-145"></path>
                            <path d="M404.500901,511.802983 C402.461728,511.802983 400.802983,513.461728 400.802983,515.500901 C400.802983,517.538272 402.461728,519.197017 404.500901,519.197017 C406.538272,519.197017 408.197017,517.538272 408.197017,515.500901 C408.197017,513.461728 406.538272,511.802983 404.500901,511.802983 M404.500901,521 C401.466481,521 399,518.531716 399,515.500901 C399,512.466481 401.466481,510 404.500901,510 C407.533519,510 410,512.466481 410,515.500901 C410,518.531716 407.533519,521 404.500901,521" id="Fill-147"></path>
                            <path d="M269.5,505.891313 C269.363843,505.891313 268.906203,505.93103 268.764372,506.454924 L268.248109,508.374606 C268.002269,509.284327 267.285552,510.001135 266.379728,510.247005 L264.456505,510.763334 C263.932678,510.905182 263.891074,511.364771 263.891074,511.500946 C263.891074,511.63712 263.932678,512.092926 264.456505,512.234775 L266.377837,512.752995 C267.285552,512.998865 268.002269,513.715673 268.248109,514.621611 L268.764372,516.545076 C268.906203,517.067079 269.363843,517.108687 269.5,517.108687 C269.636157,517.108687 270.093797,517.067079 270.237519,516.545076 L270.753782,514.623503 C270.997731,513.715673 271.716339,512.998865 272.622163,512.752995 L274.543495,512.234775 C275.067322,512.094818 275.108926,511.63712 275.108926,511.500946 C275.108926,511.364771 275.067322,510.905182 274.543495,510.763334 L272.624054,510.247005 C271.716339,510.001135 270.997731,509.284327 270.753782,508.376497 L270.237519,506.454924 C270.093797,505.93103 269.636157,505.891313 269.5,505.891313 M269.5,519 C268.284039,519 267.255295,518.211323 266.939486,517.036818 L266.423222,515.115244 C266.351362,514.854243 266.147126,514.649981 265.884266,514.578111 L263.964826,514.059892 C262.790469,513.745934 262.001891,512.71706 262,511.502837 C262,510.284832 262.786687,509.254066 263.964826,508.938217 L265.886157,508.421889 C266.147126,508.350019 266.351362,508.143866 266.423222,507.882865 L266.939486,505.963182 C267.255295,504.788677 268.284039,504 269.5,504 C270.715961,504 271.744705,504.788677 272.060514,505.963182 L272.578669,507.884756 C272.65053,508.143866 272.854766,508.350019 273.117625,508.421889 L275.037065,508.938217 C276.211422,509.254066 277,510.284832 277,511.502837 C277,512.71706 276.209531,513.745934 275.037065,514.059892 L273.115734,514.578111 C272.854766,514.649981 272.65053,514.854243 272.578669,515.117135 L272.060514,517.036818 C271.744705,518.211323 270.715961,519 269.5,519" id="Fill-151"></path>
                            <path d="M226.5,545.891313 C226.363843,545.891313 225.906203,545.93103 225.764372,546.454924 L225.248109,548.374606 C225.002269,549.284327 224.285552,550.001135 223.379728,550.247005 L221.456505,550.763334 C220.932678,550.905182 220.891074,551.364771 220.891074,551.500946 C220.891074,551.63712 220.932678,552.092926 221.456505,552.234775 L223.377837,552.752995 C224.285552,552.998865 225.002269,553.715673 225.248109,554.621611 L225.764372,556.545076 C225.906203,557.067079 226.363843,557.108687 226.5,557.108687 C226.636157,557.108687 227.093797,557.067079 227.237519,556.545076 L227.753782,554.623503 C227.999622,553.715673 228.716339,552.998865 229.622163,552.752995 L231.545386,552.234775 C232.067322,552.094818 232.108926,551.63712 232.108926,551.500946 C232.108926,551.364771 232.067322,550.905182 231.545386,550.763334 L229.624054,550.247005 C228.716339,550.001135 227.999622,549.284327 227.753782,548.376497 L227.237519,546.454924 C227.093797,545.93103 226.636157,545.891313 226.5,545.891313 M226.5,559 C225.284039,559 224.255295,558.211323 223.939486,557.036818 L223.423222,555.115244 C223.351362,554.854243 223.147126,554.649981 222.884266,554.578111 L220.964826,554.059892 C219.790469,553.745934 219.001891,552.71706 219,551.502837 C219,550.284832 219.788578,549.254066 220.964826,548.938217 L222.886157,548.421889 C223.147126,548.350019 223.351362,548.143866 223.423222,547.882865 L223.939486,545.963182 C224.255295,544.788677 225.284039,544 226.5,544 C227.715961,544 228.744705,544.788677 229.060514,545.963182 L229.578669,547.884756 C229.65053,548.143866 229.854766,548.350019 230.117625,548.421889 L232.037065,548.938217 C233.211422,549.254066 234,550.284832 234,551.502837 C234,552.71706 233.209531,553.745934 232.037065,554.059892 L230.115734,554.578111 C229.854766,554.649981 229.65053,554.854243 229.578669,555.117135 L229.060514,557.036818 C228.744705,558.211323 227.715961,559 226.5,559" id="Fill-157"></path>
                            <path d="M228.5,452.891313 C228.363843,452.891313 227.906203,452.93103 227.764372,453.454924 L227.248109,455.374606 C227.002269,456.284327 226.285552,457.001135 225.379728,457.247005 L223.456505,457.763334 C222.932678,457.905182 222.891074,458.364771 222.891074,458.500946 C222.891074,458.63712 222.932678,459.092926 223.456505,459.234775 L225.377837,459.752995 C226.285552,459.998865 227.002269,460.715673 227.248109,461.621611 L227.764372,463.545076 C227.906203,464.067079 228.363843,464.108687 228.5,464.108687 C228.636157,464.108687 229.093797,464.067079 229.237519,463.545076 L229.753782,461.623503 C229.999622,460.715673 230.716339,459.998865 231.622163,459.752995 L233.545386,459.234775 C234.067322,459.094818 234.108926,458.63712 234.108926,458.500946 C234.108926,458.364771 234.067322,457.905182 233.545386,457.763334 L231.624054,457.247005 C230.716339,457.001135 229.999622,456.284327 229.753782,455.376497 L229.237519,453.454924 C229.093797,452.93103 228.636157,452.891313 228.5,452.891313 M228.5,466 C227.284039,466 226.255295,465.211323 225.939486,464.036818 L225.423222,462.115244 C225.351362,461.854243 225.147126,461.649981 224.884266,461.578111 L222.964826,461.059892 C221.790469,460.745934 221.001891,459.71706 221,458.502837 C221,457.284832 221.788578,456.254066 222.964826,455.938217 L224.886157,455.421889 C225.147126,455.350019 225.351362,455.143866 225.423222,454.882865 L225.939486,452.963182 C226.255295,451.788677 227.284039,451 228.5,451 C229.715961,451 230.744705,451.788677 231.060514,452.963182 L231.578669,454.884756 C231.65053,455.143866 231.854766,455.350019 232.117625,455.421889 L234.037065,455.938217 C235.211422,456.254066 236,457.284832 236,458.502837 C236,459.71706 235.209531,460.745934 234.037065,461.059892 L232.115734,461.578111 C231.854766,461.649981 231.65053,461.854243 231.578669,462.117135 L231.060514,464.036818 C230.744705,465.211323 229.715961,466 228.5,466" id="Fill-159"></path>
                            <path d="M259.5,641.891313 C259.363843,641.891313 258.906203,641.93103 258.764372,642.454924 L258.248109,644.374606 C258.002269,645.284327 257.285552,646.001135 256.379728,646.247005 L254.456505,646.763334 C253.932678,646.905182 253.891074,647.364771 253.891074,647.500946 C253.891074,647.63712 253.932678,648.092926 254.456505,648.234775 L256.377837,648.752995 C257.285552,648.998865 258.002269,649.715673 258.248109,650.621611 L258.764372,652.545076 C258.906203,653.067079 259.363843,653.108687 259.5,653.108687 C259.636157,653.108687 260.093797,653.067079 260.237519,652.545076 L260.753782,650.623503 C260.999622,649.715673 261.716339,648.998865 262.622163,648.752995 L264.545386,648.234775 C265.067322,648.094818 265.108926,647.63712 265.108926,647.500946 C265.108926,647.364771 265.067322,646.905182 264.545386,646.763334 L262.624054,646.247005 C261.716339,646.001135 260.999622,645.284327 260.753782,644.376497 L260.237519,642.454924 C260.093797,641.93103 259.636157,641.891313 259.5,641.891313 M259.5,655 C258.284039,655 257.255295,654.211323 256.939486,653.036818 L256.423222,651.115244 C256.351362,650.854243 256.147126,650.649981 255.884266,650.578111 L253.964826,650.059892 C252.790469,649.745934 252.001891,648.71706 252,647.502837 C252,646.284832 252.788578,645.254066 253.964826,644.938217 L255.886157,644.421889 C256.147126,644.350019 256.351362,644.143866 256.423222,643.882865 L256.939486,641.963182 C257.255295,640.788677 258.284039,640 259.5,640 C260.715961,640 261.744705,640.788677 262.060514,641.963182 L262.578669,643.884756 C262.65053,644.143866 262.854766,644.350019 263.117625,644.421889 L265.037065,644.938217 C266.211422,645.254066 267,646.284832 267,647.502837 C267,648.71706 266.209531,649.745934 265.037065,650.059892 L263.115734,650.578111 C262.854766,650.649981 262.65053,650.854243 262.578669,651.117135 L262.060514,653.036818 C261.744705,654.211323 260.715961,655 259.5,655" id="Fill-161"></path>
                            <path d="M401.5,398.891313 C401.363843,398.891313 400.906203,398.93103 400.764372,399.454924 L400.248109,401.374606 C400.002269,402.284327 399.285552,403.001135 398.379728,403.247005 L396.456505,403.763334 C395.932678,403.905182 395.891074,404.364771 395.891074,404.500946 C395.891074,404.63712 395.932678,405.092926 396.456505,405.234775 L398.377837,405.752995 C399.285552,405.998865 400.002269,406.715673 400.248109,407.621611 L400.764372,409.545076 C400.906203,410.067079 401.363843,410.108687 401.5,410.108687 C401.636157,410.108687 402.093797,410.067079 402.237519,409.545076 L402.753782,407.623503 C402.999622,406.715673 403.716339,405.998865 404.622163,405.752995 L406.545386,405.234775 C407.067322,405.094818 407.108926,404.63712 407.108926,404.500946 C407.108926,404.364771 407.067322,403.905182 406.545386,403.763334 L404.624054,403.247005 C403.716339,403.001135 402.999622,402.284327 402.753782,401.376497 L402.237519,399.454924 C402.093797,398.93103 401.636157,398.891313 401.5,398.891313 M401.5,412 C400.284039,412 399.255295,411.211323 398.939486,410.036818 L398.423222,408.115244 C398.351362,407.854243 398.147126,407.649981 397.884266,407.578111 L395.964826,407.059892 C394.790469,406.745934 394.001891,405.71706 394,404.502837 C394,403.284832 394.788578,402.254066 395.964826,401.938217 L397.886157,401.421889 C398.147126,401.350019 398.351362,401.143866 398.423222,400.882865 L398.939486,398.963182 C399.255295,397.788677 400.284039,397 401.5,397 C402.715961,397 403.744705,397.788677 404.060514,398.963182 L404.578669,400.884756 C404.65053,401.143866 404.854766,401.350019 405.117625,401.421889 L407.037065,401.938217 C408.211422,402.254066 409,403.284832 409,404.502837 C409,405.71706 408.209531,406.745934 407.037065,407.059892 L405.115734,407.578111 C404.854766,407.649981 404.65053,407.854243 404.578669,408.117135 L404.060514,410.036818 C403.744705,411.211323 402.715961,412 401.5,412" id="Fill-171"></path>
                            <path d="M361.5,535.891313 C361.363843,535.891313 360.906203,535.93103 360.764372,536.454924 L360.248109,538.374606 C360.002269,539.284327 359.285552,540.001135 358.379728,540.247005 L356.456505,540.763334 C355.932678,540.905182 355.891074,541.364771 355.891074,541.500946 C355.891074,541.63712 355.932678,542.092926 356.456505,542.234775 L358.377837,542.752995 C359.285552,542.998865 360.002269,543.715673 360.248109,544.621611 L360.764372,546.545076 C360.906203,547.067079 361.363843,547.108687 361.5,547.108687 C361.636157,547.108687 362.093797,547.067079 362.237519,546.545076 L362.753782,544.623503 C362.999622,543.715673 363.716339,542.998865 364.622163,542.752995 L366.545386,542.234775 C367.067322,542.094818 367.108926,541.63712 367.108926,541.500946 C367.108926,541.364771 367.067322,540.905182 366.545386,540.763334 L364.624054,540.247005 C363.716339,540.001135 362.999622,539.284327 362.753782,538.376497 L362.237519,536.454924 C362.093797,535.93103 361.636157,535.891313 361.5,535.891313 M361.5,549 C360.284039,549 359.255295,548.211323 358.939486,547.036818 L358.423222,545.115244 C358.351362,544.854243 358.147126,544.649981 357.884266,544.578111 L355.964826,544.059892 C354.790469,543.745934 354.001891,542.71706 354,541.502837 C354,540.284832 354.788578,539.254066 355.964826,538.938217 L357.886157,538.421889 C358.147126,538.350019 358.351362,538.143866 358.423222,537.882865 L358.939486,535.963182 C359.255295,534.788677 360.284039,534 361.5,534 C362.715961,534 363.744705,534.788677 364.060514,535.963182 L364.578669,537.884756 C364.65053,538.143866 364.854766,538.350019 365.117625,538.421889 L367.037065,538.938217 C368.211422,539.254066 369,540.284832 369,541.502837 C369,542.71706 368.209531,543.745934 367.037065,544.059892 L365.115734,544.578111 C364.854766,544.649981 364.65053,544.854243 364.578669,545.117135 L364.060514,547.036818 C363.744705,548.211323 362.715961,549 361.5,549" id="Fill-159" transform="translate(361.500000, 541.500000) rotate(90.000000) translate(-361.500000, -541.500000) "></path>
                            <path d="M305.5,553.891313 C305.363843,553.891313 304.906203,553.93103 304.764372,554.454924 L304.248109,556.374606 C304.002269,557.284327 303.285552,558.001135 302.379728,558.247005 L300.456505,558.763334 C299.932678,558.905182 299.891074,559.364771 299.891074,559.500946 C299.891074,559.63712 299.932678,560.092926 300.456505,560.234775 L302.377837,560.752995 C303.285552,560.998865 304.002269,561.715673 304.248109,562.621611 L304.764372,564.545076 C304.906203,565.067079 305.363843,565.108687 305.5,565.108687 C305.636157,565.108687 306.093797,565.067079 306.237519,564.545076 L306.753782,562.623503 C306.999622,561.715673 307.716339,560.998865 308.622163,560.752995 L310.545386,560.234775 C311.067322,560.094818 311.108926,559.63712 311.108926,559.500946 C311.108926,559.364771 311.067322,558.905182 310.545386,558.763334 L308.624054,558.247005 C307.716339,558.001135 306.999622,557.284327 306.753782,556.376497 L306.237519,554.454924 C306.093797,553.93103 305.636157,553.891313 305.5,553.891313 M305.5,567 C304.284039,567 303.255295,566.211323 302.939486,565.036818 L302.423222,563.115244 C302.351362,562.854243 302.147126,562.649981 301.884266,562.578111 L299.964826,562.059892 C298.790469,561.745934 298.001891,560.71706 298,559.502837 C298,558.284832 298.788578,557.254066 299.964826,556.938217 L301.886157,556.421889 C302.147126,556.350019 302.351362,556.143866 302.423222,555.882865 L302.939486,553.963182 C303.255295,552.788677 304.284039,552 305.5,552 C306.715961,552 307.744705,552.788677 308.060514,553.963182 L308.578669,555.884756 C308.65053,556.143866 308.854766,556.350019 309.117625,556.421889 L311.037065,556.938217 C312.211422,557.254066 313,558.284832 313,559.502837 C313,560.71706 312.209531,561.745934 311.037065,562.059892 L309.115734,562.578111 C308.854766,562.649981 308.65053,562.854243 308.578669,563.117135 L308.060514,565.036818 C307.744705,566.211323 306.715961,567 305.5,567" id="Fill-173"></path>
                            <path d="M363.5,666.891313 C363.363843,666.891313 362.906203,666.93103 362.764372,667.454924 L362.248109,669.374606 C362.002269,670.284327 361.285552,671.001135 360.379728,671.247005 L358.456505,671.763334 C357.932678,671.905182 357.891074,672.364771 357.891074,672.500946 C357.891074,672.63712 357.932678,673.092926 358.456505,673.234775 L360.377837,673.752995 C361.285552,673.998865 362.002269,674.715673 362.248109,675.621611 L362.764372,677.545076 C362.906203,678.067079 363.363843,678.108687 363.5,678.108687 C363.636157,678.108687 364.093797,678.067079 364.237519,677.545076 L364.753782,675.623503 C364.999622,674.715673 365.716339,673.998865 366.622163,673.752995 L368.545386,673.234775 C369.067322,673.094818 369.108926,672.63712 369.108926,672.500946 C369.108926,672.364771 369.067322,671.905182 368.545386,671.763334 L366.624054,671.247005 C365.716339,671.001135 364.999622,670.284327 364.753782,669.376497 L364.237519,667.454924 C364.093797,666.93103 363.636157,666.891313 363.5,666.891313 M363.5,680 C362.284039,680 361.255295,679.211323 360.939486,678.036818 L360.423222,676.115244 C360.351362,675.854243 360.147126,675.649981 359.884266,675.578111 L357.964826,675.059892 C356.790469,674.745934 356.001891,673.71706 356,672.502837 C356,671.284832 356.788578,670.254066 357.964826,669.938217 L359.886157,669.421889 C360.147126,669.350019 360.351362,669.143866 360.423222,668.882865 L360.939486,666.963182 C361.255295,665.788677 362.284039,665 363.5,665 C364.715961,665 365.744705,665.788677 366.060514,666.963182 L366.578669,668.884756 C366.65053,669.143866 366.854766,669.350019 367.117625,669.421889 L369.037065,669.938217 C370.211422,670.254066 371,671.284832 371,672.502837 C371,673.71706 370.209531,674.745934 369.037065,675.059892 L367.115734,675.578111 C366.854766,675.649981 366.65053,675.854243 366.578669,676.117135 L366.060514,678.036818 C365.744705,679.211323 364.715961,680 363.5,680" id="Fill-161"></path>
                        </g>
                    </g>
                </g>
            </g>
        </g>
    </g>
</svg>