<?xml version="1.0" encoding="utf-8"?>
<!-- Generator: Adobe Illustrator 24.0.0, SVG Export Plug-In . SVG Version: 6.00 Build 0)  -->
<svg version="1.1" id="Layer_1" xmlns="http://www.w3.org/2000/svg" xmlns:xlink="http://www.w3.org/1999/xlink" x="0px" y="0px"
	 viewBox="0 0 84 80" style="enable-background:new 0 0 84 80;" xml:space="preserve">
<style type="text/css">
	.st0{fill:#2D8FDC;}
</style>
<title>icon/hoctap</title>
<desc>Created with Sketch.</desc>
<g id="Page-1">
	<g id="Home-Option2" transform="translate(-528.000000, -641.000000)">
		<g id="box-hoctap" transform="translate(380.000000, 598.000000)">
			<g id="icon_x2F_hoctap" transform="translate(148.000000, 43.000000)">
				<path id="Shape" class="st0" d="M62.1,20H49.3c-1.5,0-3,0.3-4.3,0.9c-1.9,0.8-4,0.8-5.9,0c-1.4-0.6-2.9-0.9-4.4-0.9H21.9
					c-2.1,0-3.8,1.7-3.9,3.8v24c0,2.1,1.8,3.7,3.9,3.7h12.8c1,0,2,0.2,3,0.6c2.8,1.2,5.9,1.2,8.7,0c0.9-0.4,1.9-0.6,3-0.6h12.9
					c2.1,0,3.9-1.7,3.9-3.7v-24C66,21.7,64.3,20,62.1,20z M35,48.9H20.6c-0.2,0-0.4-0.1-0.4-0.3V22.7c0-0.2,0.2-0.3,0.4-0.3H35
					c1.2,0,2.3,0.2,3.3,0.7c0.9,0.4,1.9,0.7,2.9,0.8v26.5c-0.5-0.1-0.9-0.2-1.4-0.5C38.3,49.2,36.6,48.9,35,48.9z M63.8,48.6
					c0,0.2-0.2,0.3-0.4,0.3H48.9c-1.7,0-3.3,0.3-4.8,1c-0.4,0.2-0.9,0.3-1.3,0.5V23.8c1-0.2,2-0.4,2.9-0.8c1-0.4,2.1-0.7,3.3-0.7
					h14.4c0.2,0,0.4,0.2,0.4,0.3V48.6z"/>
				<path id="Shape_1_" class="st0" d="M79.8,0H4.2C1.9,0,0,1.9,0,4.2v53.3c0,2.3,1.9,4.2,4.2,4.2h28v9.8H28c-0.8,0-1.4,0.6-1.4,1.4
					v5.6c0,0.8,0.6,1.4,1.4,1.4h28c0.8,0,1.4-0.6,1.4-1.4V73c0-0.8-0.6-1.4-1.4-1.4h-4.2v-9.8h28c2.3,0,4.2-1.9,4.2-4.2V4.2
					C84,1.9,82.1,0,79.8,0z M54.6,74.4v2.8H29.4v-2.8h4.2c0.8,0,1.4-0.6,1.4-1.4V61.8h14V73c0,0.8,0.6,1.4,1.4,1.4H54.6z M81.2,57.5
					c0,0.8-0.6,1.4-1.4,1.4H4.2c-0.8,0-1.4-0.6-1.4-1.4V14h78.4V57.5z M81.2,11.2H2.8v-7c0-0.8,0.6-1.4,1.4-1.4h75.6
					c0.8,0,1.4,0.6,1.4,1.4V11.2z"/>
			</g>
		</g>
	</g>
</g>
</svg>
