<?xml version="1.0" encoding="UTF-8"?>
<svg width="19px" height="19px" viewBox="0 0 19 19" version="1.1" xmlns="http://www.w3.org/2000/svg" xmlns:xlink="http://www.w3.org/1999/xlink">
    <!-- Generator: sketchtool 60.1 (101010) - https://sketch.com -->
    <title>D64AE4D9-AF24-4D7E-B0AF-3C06358E9ACD</title>
    <desc>Created with sketchtool.</desc>
    <g id="Page-1" stroke="none" stroke-width="1" fill="none" fill-rule="evenodd">
        <g id="Thi-option2" transform="translate(-1448.000000, -414.000000)" fill="#FFFFFF" fill-rule="nonzero" stroke="#FFFFFF" stroke-width="0.5">
            <g id="row-vaothi" transform="translate(380.000000, 370.000000)">
                <g id="button/vaothi" transform="translate(978.000000, 31.000000)">
                    <g id="Group" transform="translate(31.000000, 14.000000)">
                        <g id="login-(1)" transform="translate(59.500000, 0.000000)">
                            <path d="M10.5000499,9.4375 L1.00004162,9.4375 C0.586042467,9.4375 0.250045785,9.18550109 0.250045785,8.875 C0.250045785,8.56449891 0.586042467,8.3125 1.00004162,8.3125 L10.5000499,8.3125 C10.9140491,8.3125 11.2500458,8.56449891 11.2500458,8.875 C11.2500458,9.18550109 10.9140491,9.4375 10.5000499,9.4375 Z" id="Path"></path>
                            <path d="M7.87504579,12.25 C7.73098753,12.25 7.58706663,12.1952057 7.47747803,12.0850678 C7.25775146,11.8652039 7.25775146,11.5089722 7.47747803,11.2892456 L9.89254763,8.87431336 L7.47747803,6.46006776 C7.25775146,6.24020387 7.25775146,5.88397217 7.47747803,5.66424561 C7.69720459,5.44451904 8.0534363,5.44451904 8.27330018,5.66424561 L11.0858002,8.47674561 C11.3055267,8.69647217 11.3055267,9.05270387 11.0858002,9.27256776 L8.27330018,12.0850678 C8.1630249,12.1952057 8.01896668,12.25 7.87504579,12.25 L7.87504579,12.25 Z" id="Path"></path>
                            <path d="M8.71666978,17.7391304 C5.08271767,17.7391304 1.87451766,15.5314465 0.541849272,12.1141356 C0.420498208,11.8045313 0.57211394,11.4529968 0.879585297,11.3304543 C1.18617947,11.2095359 1.53517336,11.3602779 1.65652442,11.6723921 C2.80716625,14.6227129 5.57864869,16.529651 8.71666978,16.529651 C12.8990409,16.529651 16.3022798,13.092999 16.3022798,8.86956522 C16.3022798,4.64613145 12.8990409,1.20947945 8.71666978,1.20947945 C5.57864869,1.20947945 2.80716625,3.11641752 1.65652442,6.06673832 C1.53429614,6.37885251 1.18617947,6.52959454 0.879585297,6.40867611 C0.57211394,6.28613366 0.420498208,5.93459914 0.541849272,5.62499485 C1.87451766,2.2076839 5.08271767,0 8.71666978,0 C13.5594538,0 17.5,3.97923465 17.5,8.86956522 C17.5,13.7598958 13.5594538,17.7391304 8.71666978,17.7391304 Z" id="Path"></path>
                        </g>
                    </g>
                </g>
            </g>
        </g>
    </g>
</svg>