<?xml version="1.0" encoding="utf-8"?>
<!-- Generator: Adobe Illustrator 24.0.0, SVG Export Plug-In . SVG Version: 6.00 Build 0)  -->
<svg version="1.1" id="Layer_1" xmlns="http://www.w3.org/2000/svg" xmlns:xlink="http://www.w3.org/1999/xlink" x="0px" y="0px"
	 viewBox="0 0 14 14" style="enable-background:new 0 0 14 14;" xml:space="preserve">
<style type="text/css">
	.st0{fill:#2D8FDC;}
</style>
<title>online</title>
<desc>Created with Sketch.</desc>
<g id="Symbols">
	<g id="row-noplephi" transform="translate(-98.000000, -63.000000)">
		<g id="Row1">
			<g id="Group" transform="translate(98.000000, 28.000000)">
				<g id="môn-thi" transform="translate(0.000000, 33.500000)">
					<g id="online" transform="translate(0.000000, 1.500000)">
						<path id="Shape" class="st0" d="M13.6,0H0.4C0.2,0,0,0.2,0,0.4v9.9c0,0.2,0.2,0.4,0.4,0.4h4.2v0.9c-0.9,0.2-1.6,1-1.6,2
							C3,13.8,3.2,14,3.4,14h7.2c0.2,0,0.4-0.2,0.4-0.4c0-1-0.7-1.8-1.6-2v-0.9h4.2c0.2,0,0.4-0.2,0.4-0.4V0.4C14,0.2,13.8,0,13.6,0
							z M12.8,1.2v6.5H1.2V1.2H12.8z M10.1,13.2H3.9C4,12.7,4.5,12.4,5,12.4H9C9.5,12.4,10,12.7,10.1,13.2z M8.6,11.5H5.4v-0.8h3.1
							V11.5z M1.2,9.5v-1h11.6v1H1.2z"/>
						<path id="Path" class="st0" d="M6,3.4h5.9c0.2,0,0.4-0.2,0.4-0.4c0-0.2-0.2-0.4-0.4-0.4H6C5.8,2.6,5.6,2.8,5.6,3
							C5.6,3.2,5.8,3.4,6,3.4z"/>
						<path id="Path_1_" class="st0" d="M2.4,3.8c0.1,0.1,0.2,0.1,0.3,0.1s0.2,0,0.3-0.1l1.2-1.2c0.2-0.2,0.2-0.4,0-0.6
							C4,1.8,3.8,1.8,3.6,2l-1,1L2.4,2.6c-0.2-0.2-0.4-0.2-0.6,0C1.6,2.8,1.6,3,1.8,3.2L2.4,3.8z"/>
						<path id="Path_2_" class="st0" d="M6,6.3h5.9c0.2,0,0.4-0.2,0.4-0.4s-0.2-0.4-0.4-0.4H6c-0.2,0-0.4,0.2-0.4,0.4S5.8,6.3,6,6.3
							z"/>
						<path id="Path_3_" class="st0" d="M2.4,6.7c0.1,0.1,0.2,0.1,0.3,0.1s0.2,0,0.3-0.1l1.2-1.2c0.2-0.2,0.2-0.4,0-0.6
							C4,4.8,3.8,4.8,3.6,4.9l-1,1L2.4,5.6c-0.2-0.2-0.4-0.2-0.6,0S1.6,6,1.8,6.2L2.4,6.7z"/>
					</g>
				</g>
			</g>
		</g>
	</g>
</g>
</svg>
