<?xml version="1.0" encoding="utf-8"?>
<!-- Generator: Adobe Illustrator 24.0.0, SVG Export Plug-In . SVG Version: 6.00 Build 0)  -->
<svg version="1.1" id="Layer_1" xmlns="http://www.w3.org/2000/svg" xmlns:xlink="http://www.w3.org/1999/xlink" x="0px" y="0px"
	 viewBox="0 0 15 15" style="enable-background:new 0 0 15 15;" xml:space="preserve">
<style type="text/css">
	.st0{fill:#2D8FDC;}
</style>
<title>clock-circular-outline</title>
<desc>Created with Sketch.</desc>
<g id="Symbols">
	<g id="row-daketthuc" transform="translate(-186.000000, -62.000000)">
		<g id="Row1">
			<g id="Group" transform="translate(98.000000, 28.000000)">
				<g id="Bắt-đầu" transform="translate(88.000000, 33.500000)">
					<g id="clock-circular-outline" transform="translate(0.000000, 0.500000)">
						<path id="Shape" class="st0" d="M7.4,0C3.3,0,0,3.3,0,7.4s3.3,7.4,7.4,7.4s7.4-3.3,7.4-7.4S11.5,0,7.4,0z M7.4,13.3
							c-3.2,0-5.9-2.6-5.9-5.9s2.6-5.9,5.9-5.9s5.9,2.6,5.9,5.9S10.7,13.3,7.4,13.3z"/>
						<path id="Path" class="st0" d="M11.3,7.2H8v-4c0-0.3-0.3-0.6-0.6-0.6S6.7,2.9,6.7,3.2v4.6c0,0.3,0.3,0.6,0.6,0.6h4
							c0.3,0,0.6-0.3,0.6-0.6S11.6,7.2,11.3,7.2z"/>
					</g>
				</g>
			</g>
		</g>
	</g>
</g>
</svg>
