<?xml version="1.0" encoding="UTF-8"?>
<svg width="20px" height="18px" viewBox="0 0 20 18" version="1.1" xmlns="http://www.w3.org/2000/svg" xmlns:xlink="http://www.w3.org/1999/xlink">
    <!-- Generator: sketchtool 60.1 (101010) - https://sketch.com -->
    <title>4E01E721-B84F-4539-B7B5-6B2F77F8ABD2</title>
    <desc>Created with sketchtool.</desc>
    <g id="Page-1" stroke="none" stroke-width="1" fill="none" fill-rule="evenodd">
        <g id="Thi-option2" transform="translate(-1460.000000, -811.000000)" fill="#FFFFFF" fill-rule="nonzero">
            <g id="row-vaothi-row-daketthuc" transform="translate(380.000000, 766.000000)">
                <g id="Xem-lịch-sử" transform="translate(978.000000, 31.000000)">
                    <g id="vaothi">
                        <g id="Group-2">
                            <g id="Group" transform="translate(18.000000, 14.000000)">
                                <g id="clock" transform="translate(84.000000, -0.000000)">
                                    <polygon id="Path" points="10.4762054 4.76191964 10.4762054 9.52379464 14.5523661 11.9428571 15.2380804 10.7857143 11.9047768 8.80950893 11.9047768 4.76191964"></polygon>
                                    <path d="M11.4237946,0 C6.68571429,0 2.85714286,3.83808036 2.85714286,8.57142857 L0,8.57142857 L3.70950893,12.2809375 L3.77616071,12.4190179 L7.6190625,8.57142857 L4.76191964,8.57142857 C4.76191964,4.89049107 7.74763393,1.90477679 11.4285714,1.90477679 C15.1095089,1.90477679 18.0952232,4.89049107 18.0952232,8.57142857 C18.0952232,12.2523661 15.1095089,15.2380804 11.4285714,15.2380804 C9.58571429,15.2380804 7.92379464,14.4857143 6.7190625,13.2809375 L5.37142857,14.6285714 C6.9190625,16.1809375 9.05714286,17.1428571 11.4237946,17.1428571 C16.1619196,17.1428571 20,13.3047768 20,8.57142857 C20,3.83808036 16.1619196,0 11.4237946,0 Z" id="Path"></path>
                                </g>
                            </g>
                        </g>
                    </g>
                </g>
            </g>
        </g>
    </g>
</svg>