<?xml version="1.0" encoding="UTF-8"?>
<svg width="16px" height="21px" viewBox="0 0 16 21" version="1.1" xmlns="http://www.w3.org/2000/svg" xmlns:xlink="http://www.w3.org/1999/xlink">
    <!-- Generator: sketchtool 60.1 (101010) - https://sketch.com -->
    <title>4F75F738-B33A-460D-8DD9-CFEBEF0774FE</title>
    <desc>Created with sketchtool.</desc>
    <g id="Page-1" stroke="none" stroke-width="1" fill="none" fill-rule="evenodd">
        <g id="Thi-option2" transform="translate(-1008.000000, -662.000000)" fill="#C0C0C0" fill-rule="nonzero">
            <g id="lock" transform="translate(1008.000000, 662.000000)">
                <path d="M13.6470588,7.37254902 L12.2338431,7.37254902 L12.2338431,4.14784314 C12.2338431,1.86070588 10.3338824,0 7.99854902,0 C5.66321569,0 3.7632549,1.86070588 3.7632549,4.14784314 L3.7632549,7.37254902 L2.35294118,7.37254902 C1.05552941,7.37254902 0,8.42807843 0,9.7254902 L0,17.7254902 C0,19.022902 1.05552941,20.0784314 2.35294118,20.0784314 L13.6470588,20.0784314 C14.9444706,20.0784314 16,19.022902 16,17.7254902 L16,9.7254902 C16,8.42807843 14.9444706,7.37254902 13.6470588,7.37254902 Z M5.33188235,4.14784314 C5.33188235,2.72564706 6.52815686,1.56862745 7.99854902,1.56862745 C9.46894118,1.56862745 10.6652157,2.72564706 10.6652157,4.14784314 L10.6652157,7.37254902 L5.33188235,7.37254902 L5.33188235,4.14784314 Z M14.4313725,17.7254902 C14.4313725,18.1579608 14.0795294,18.5098039 13.6470588,18.5098039 L2.35294118,18.5098039 C1.92047059,18.5098039 1.56862745,18.1579608 1.56862745,17.7254902 L1.56862745,9.7254902 C1.56862745,9.29301961 1.92047059,8.94117647 2.35294118,8.94117647 L13.6470588,8.94117647 C14.0795294,8.94117647 14.4313725,9.29301961 14.4313725,9.7254902 L14.4313725,17.7254902 Z" id="Shape"></path>
                <path d="M8,11.2156863 C7.19862745,11.2156863 6.54901961,11.8652941 6.54901961,12.6666667 C6.54901961,13.1783529 6.81411765,13.6278431 7.21423529,13.8861961 L7.21423529,15.6078431 C7.21423529,16.0409804 7.56537255,16.3921569 7.99854902,16.3921569 C8.43168627,16.3921569 8.78286275,16.0409804 8.78286275,15.6078431 L8.78286275,13.8880392 C9.18458824,13.63 9.45098039,13.1796078 9.45098039,12.6666667 C9.45098039,11.8652941 8.80137255,11.2156863 8,11.2156863 Z" id="Path"></path>
            </g>
        </g>
    </g>
</svg>