<?xml version="1.0" encoding="UTF-8"?>
<svg width="17px" height="17px" viewBox="0 0 17 17" version="1.1" xmlns="http://www.w3.org/2000/svg" xmlns:xlink="http://www.w3.org/1999/xlink">
    <!-- Generator: sketchtool 60.1 (101010) - https://sketch.com -->
    <title>A6E40083-9028-4A9E-B544-194C232C1FA4</title>
    <desc>Created with sketchtool.</desc>
    <g id="Page-1" stroke="none" stroke-width="1" fill="none" fill-rule="evenodd">
        <g id="Thi-option2" transform="translate(-1456.000000, -679.000000)" fill="#FFFFFF" fill-rule="nonzero">
            <g id="row-vaothi-row-noplephi" transform="translate(380.000000, 634.000000)">
                <g id="vaothi" transform="translate(978.000000, 31.000000)">
                    <g id="Group" transform="translate(24.000000, 13.000000)">
                        <g id="Group-4" transform="translate(74.000000, 1.000000)">
                            <path d="M8.49106344,-1.0658141e-14 C3.80907855,-1.0658141e-14 -1.56319402e-13,3.80912991 -1.56319402e-13,8.4911148 C-1.56319402e-13,13.1730997 3.80912991,16.982281 8.49106344,16.982281 C13.172997,16.982281 16.9821782,13.1732024 16.9821782,8.49121752 C16.9821782,3.80923263 13.1730997,-1.0658141e-14 8.49106344,-1.0658141e-14 Z M8.49106344,15.4426254 C4.658,15.4426254 1.53960423,12.3241782 1.53960423,8.49116616 C1.53960423,4.65805136 4.65805136,1.53965559 8.49106344,1.53965559 C12.3240755,1.53965559 15.4425227,4.65810272 15.4425227,8.49116616 C15.4425227,12.3241782 12.3241269,15.4426254 8.49106344,15.4426254 Z" id="Shape"></path>
                            <path d="M10.7804139,8.97271299 C10.6151903,8.64971299 10.4096495,8.39830816 10.1638429,8.21916616 C9.91777946,8.04002417 9.64901511,7.87500604 9.35754985,7.72380363 C9.06582779,7.57280665 8.7971148,7.4498006 8.5512568,7.35488822 C8.30524471,7.25997583 8.09970393,7.14590634 7.9346858,7.01232024 C7.76946224,6.87893958 7.68703021,6.73138369 7.68703021,6.56965257 C7.68703021,6.39410574 7.77480363,6.24475227 7.95050453,6.1216435 C8.12605136,5.99879154 8.38957704,5.93721148 8.74097885,5.93721148 C9.07122054,5.93721148 9.37336858,6.00408157 9.64742296,6.13746224 C9.92147734,6.27099698 10.1006193,6.33766163 10.1849517,6.33766163 C10.3886949,6.33766163 10.548577,6.23771601 10.6645468,6.03777341 C10.7804653,5.83783082 10.8384502,5.64518127 10.8384502,5.45931118 C10.8384502,5.26399094 10.7593565,5.09748338 10.6012719,4.95983988 C10.443136,4.82235045 10.2392387,4.72286707 9.98999094,4.66128701 C9.7404864,4.59970695 9.5156858,4.55805438 9.31543505,4.53627795 C9.29704834,4.53427492 9.27917523,4.53283686 9.2609426,4.53103927 L9.2609426,3.7467281 C9.2609426,3.32157402 8.91626888,2.9769003 8.4911148,2.9769003 C8.06596073,2.9769003 7.72128701,3.32157402 7.72128701,3.7467281 L7.72128701,4.63771299 C7.39720846,4.72995468 7.10106949,4.86954985 6.83322961,5.05701208 C6.30622961,5.42592749 6.04275529,5.98271601 6.04275529,6.72758308 C6.04275529,7.18437462 6.15687613,7.57783988 6.38532326,7.90808157 C6.61356495,8.23842598 6.89290937,8.49301511 7.22320242,8.67220846 C7.55344411,8.85135045 7.88193958,9.01313293 8.20868882,9.1570423 C8.53538671,9.3011571 8.81288218,9.46109063 9.04138066,9.63663746 C9.26962236,9.81233837 9.38389728,10.0160816 9.38389728,10.2479184 C9.38389728,10.4797553 9.28205136,10.6536586 9.0782568,10.7696284 C8.87435952,10.8855468 8.63553776,10.9434804 8.36153474,10.9434804 C8.14361631,10.9434804 7.93627795,10.9010574 7.73967372,10.8157492 C7.54286405,10.7305952 7.39001813,10.6362477 7.28118731,10.5324502 C7.17220242,10.428858 7.05274018,10.3345106 6.92285196,10.2491511 C6.79275831,10.163997 6.67519637,10.1213686 6.56975529,10.1213686 C6.38008459,10.1213686 6.21306344,10.2198761 6.06910272,10.4165317 C5.92498792,10.61329 5.85303323,10.8100997 5.85303323,11.0067039 C5.85303323,11.3581571 6.10597885,11.6743263 6.61187009,11.9552628 C6.94375529,12.1396949 7.31374924,12.2632145 7.72123565,12.3265921 L7.72123565,13.1404864 C7.72123565,13.5656405 8.06590937,13.9103142 8.49106344,13.9103142 C8.91621752,13.9103142 9.26089124,13.5656405 9.26089124,13.1404864 L9.26089124,12.2803172 C9.66211178,12.1836073 10.0090453,12.0143776 10.3008187,11.7714471 C10.7856526,11.3678127 11.0280695,10.8037825 11.0280695,10.0790997 C11.0280695,9.66483384 10.945432,9.29591843 10.7804139,8.97271299 Z" id="Path"></path>
                        </g>
                    </g>
                </g>
            </g>
        </g>
    </g>
</svg>