<?xml version="1.0" encoding="utf-8"?>
<!-- Generator: Adobe Illustrator 24.0.0, SVG Export Plug-In . SVG Version: 6.00 Build 0)  -->
<svg version="1.1" id="Layer_1" xmlns="http://www.w3.org/2000/svg" xmlns:xlink="http://www.w3.org/1999/xlink" x="0px" y="0px"
	 viewBox="0 0 24 24" style="enable-background:new 0 0 24 24;" xml:space="preserve">
<style type="text/css">
	.st0{fill:#FFFFFF;}
</style>
<title>icon/instagram</title>
<desc>Created with Sketch.</desc>
<g id="Page-1">
	<g id="Home-Option2" transform="translate(-1445.000000, -4838.000000)">
		<g id="FOOTER" transform="translate(0.000000, 4610.000000)">
			<g id="Group-25-Copy" transform="translate(1250.000000, 36.000000)">
				<g id="Group-23" transform="translate(0.000000, 104.000000)">
					<g id="Soical-icon" transform="translate(0.000000, 88.000000)">
						<g id="facebook">
							<g id="icon_x2F_instagram" transform="translate(195.000000, 0.000000)">
								<path id="Path" class="st0" d="M14.3,12c0,1.3-1,2.3-2.3,2.3s-2.3-1-2.3-2.3s1-2.3,2.3-2.3S14.3,10.7,14.3,12z"/>
								<path id="Shape" class="st0" d="M17.4,7.9c-0.1-0.3-0.3-0.6-0.5-0.8c-0.2-0.2-0.5-0.4-0.8-0.5c-0.2-0.1-0.6-0.2-1.3-0.2
									c-0.7,0-0.9,0-2.8,0c-1.8,0-2.1,0-2.8,0c-0.7,0-1,0.1-1.3,0.2C7.6,6.7,7.4,6.9,7.1,7.1C6.9,7.4,6.7,7.6,6.6,7.9
									C6.5,8.2,6.4,8.5,6.4,9.2c0,0.7,0,0.9,0,2.8c0,1.8,0,2.1,0,2.8c0,0.7,0.1,1,0.2,1.3c0.1,0.3,0.3,0.6,0.5,0.8
									c0.2,0.2,0.5,0.4,0.8,0.5c0.2,0.1,0.6,0.2,1.3,0.2c0.7,0,0.9,0,2.8,0c1.8,0,2.1,0,2.8,0c0.7,0,1-0.1,1.3-0.2
									c0.6-0.2,1.1-0.7,1.3-1.3c0.1-0.2,0.2-0.6,0.2-1.3c0-0.7,0-0.9,0-2.8c0-1.8,0-2.1,0-2.8C17.6,8.5,17.5,8.2,17.4,7.9
									L17.4,7.9z M12,15.5c-2,0-3.5-1.6-3.5-3.5S10,8.5,12,8.5c2,0,3.5,1.6,3.5,3.5S14,15.5,12,15.5z M15.7,9.1
									c-0.5,0-0.8-0.4-0.8-0.8c0-0.5,0.4-0.8,0.8-0.8s0.8,0.4,0.8,0.8C16.5,8.8,16.1,9.1,15.7,9.1z"/>
								<path id="Shape_1_" class="st0" d="M12,0C5.4,0,0,5.4,0,12s5.4,12,12,12s12-5.4,12-12S18.6,0,12,0z M18.8,14.8
									c0,0.7-0.1,1.2-0.3,1.7c-0.4,0.9-1.1,1.7-2,2c-0.4,0.2-0.9,0.3-1.7,0.3c-0.7,0-1,0-2.8,0c-1.9,0-2.1,0-2.8,0
									c-0.7,0-1.2-0.1-1.7-0.3c-0.5-0.2-0.9-0.4-1.2-0.8c-0.4-0.3-0.6-0.8-0.8-1.2c-0.2-0.4-0.3-0.9-0.3-1.7c0-0.7,0-1,0-2.8
									s0-2.1,0-2.8c0-0.7,0.1-1.2,0.3-1.7C5.6,7,5.9,6.6,6.3,6.3C6.6,5.9,7,5.6,7.5,5.5c0.4-0.2,0.9-0.3,1.7-0.3c0.7,0,1,0,2.8,0
									s2.1,0,2.8,0c0.7,0,1.2,0.1,1.7,0.3c0.5,0.2,0.9,0.4,1.2,0.8c0.4,0.3,0.6,0.8,0.8,1.2c0.2,0.4,0.3,0.9,0.3,1.7
									c0,0.7,0,1,0,2.8S18.9,14.1,18.8,14.8L18.8,14.8z"/>
							</g>
						</g>
					</g>
				</g>
			</g>
		</g>
	</g>
</g>
</svg>
