<?xml version="1.0" encoding="utf-8"?>
<!-- Generator: Adobe Illustrator 24.0.0, SVG Export Plug-In . SVG Version: 6.00 Build 0)  -->
<svg version="1.1" id="Layer_1" xmlns="http://www.w3.org/2000/svg" xmlns:xlink="http://www.w3.org/1999/xlink" x="0px" y="0px"
	 viewBox="0 0 84 80" style="enable-background:new 0 0 84 80;" xml:space="preserve">
<style type="text/css">
	.st0{fill:#2D8FDC;}
</style>
<title>icon/kiemtra</title>
<desc>Created with Sketch.</desc>
<g id="Page-1">
	<g id="Home-Option2" transform="translate(-1290.000000, -641.000000)">
		<g id="box-hoctap" transform="translate(1190.000000, 641.000000)">
			<g id="icon_x2F_kiemtra" transform="translate(100.000000, 0.000000)">
				<path id="Shape" class="st0" d="M79.8,0H4.2C1.9,0,0,1.9,0,4.2v53.3c0,2.3,1.9,4.2,4.2,4.2h28v9.8H28c-0.8,0-1.4,0.6-1.4,1.4
					v5.6c0,0.8,0.6,1.4,1.4,1.4h28c0.8,0,1.4-0.6,1.4-1.4V73c0-0.8-0.6-1.4-1.4-1.4h-4.2v-9.8h28c2.3,0,4.2-1.9,4.2-4.2V4.2
					C84,1.9,82.1,0,79.8,0z M54.6,74.4v2.8H29.4v-2.8h4.2c0.8,0,1.4-0.6,1.4-1.4V61.8h14V73c0,0.8,0.6,1.4,1.4,1.4H54.6z M81.2,57.5
					c0,0.8-0.6,1.4-1.4,1.4H4.2c-0.8,0-1.4-0.6-1.4-1.4V14h78.4V57.5z M81.2,11.2H2.8v-7c0-0.8,0.6-1.4,1.4-1.4h75.6
					c0.8,0,1.4,0.6,1.4,1.4V11.2z"/>
				<rect id="Rectangle" x="70" y="5" class="st0" width="3" height="3"/>
				<rect id="Rectangle_1_" x="76" y="5" class="st0" width="3" height="3"/>
				<path id="Shape_1_" class="st0" d="M70.9,30.8c-0.1-0.3-0.4-0.5-0.7-0.7l-27-11c-0.3-0.1-0.6-0.1-0.9,0l-27,11
					c-0.5,0.2-0.8,0.6-0.8,1.1v6.5c-1.2,0.7-1.6,2.1-0.9,3.3c0.1,0.2,0.2,0.3,0.3,0.4l-0.4,1.2c-0.8,2.5-2.4,4.6-4.6,6l1.4,2
					c1.7-1.1,3.2-2.7,4.2-4.4c0,1.9-0.8,3.7-2.1,5l1.7,1.7c1.8-1.8,2.8-4.2,2.8-6.8V42c1.2-0.7,1.6-2.2,0.9-3.3
					c-0.2-0.4-0.5-0.7-0.9-0.9v-4.6l9.8,4v7.7c0,0.3,0.1,0.6,0.3,0.8c8,8.6,21.4,9.2,30,1.2c0.4-0.4,0.8-0.8,1.2-1.2
					c0.2-0.2,0.3-0.5,0.3-0.8v-7.7l11.5-4.7C70.9,32.2,71.2,31.4,70.9,30.8z M56,44.2c-7.2,7.5-19.2,7.7-26.6,0.4
					c-0.1-0.1-0.3-0.3-0.4-0.4V38l13,5.4c0.3,0.1,0.6,0.1,0.9,0L56,38V44.2z M42.5,41L19,31.5L42.5,22L66,31.5L42.5,41z"/>
			</g>
		</g>
	</g>
</g>
</svg>
