<?xml version="1.0" encoding="utf-8"?>
<!-- Generator: Adobe Illustrator 24.0.0, SVG Export Plug-In . SVG Version: 6.00 Build 0)  -->
<svg version="1.1" id="Layer_1" xmlns="http://www.w3.org/2000/svg" xmlns:xlink="http://www.w3.org/1999/xlink" x="0px" y="0px"
	 viewBox="0 0 24 24" style="enable-background:new 0 0 24 24;" xml:space="preserve">
<style type="text/css">
	.st0{fill:#FFFFFF;}
</style>
<title>icon/linkedin</title>
<desc>Created with Sketch.</desc>
<g id="Page-1">
	<g id="Home-Option2" transform="translate(-1367.000000, -4838.000000)">
		<g id="FOOTER" transform="translate(0.000000, 4610.000000)">
			<g id="Group-25-Copy" transform="translate(1250.000000, 36.000000)">
				<g id="Group-23" transform="translate(0.000000, 104.000000)">
					<g id="Soical-icon" transform="translate(0.000000, 88.000000)">
						<g id="facebook">
							<g id="twitter" transform="translate(78.000000, 0.000000)">
								<g id="icon_x2F_linkedin" transform="translate(39.000000, 0.000000)">
									<path id="Shape" class="st0" d="M12,0C5.4,0,0,5.4,0,12s5.4,12,12,12s12-5.4,12-12S18.6,0,12,0z M8.5,18.1H5.6V9.3h2.9
										V18.1z M7.1,8.1L7.1,8.1c-1,0-1.6-0.7-1.6-1.5c0-0.9,0.7-1.5,1.7-1.5s1.6,0.7,1.6,1.5C8.7,7.5,8.1,8.1,7.1,8.1z M19.1,18.1
										h-2.9v-4.7c0-1.2-0.4-2-1.5-2c-0.8,0-1.3,0.5-1.5,1.1c-0.1,0.2-0.1,0.5-0.1,0.7v4.9h-2.9c0,0,0-8,0-8.8h2.9v1.2
										c0.4-0.6,1.1-1.5,2.6-1.5c1.9,0,3.4,1.3,3.4,4V18.1z"/>
								</g>
							</g>
						</g>
					</g>
				</g>
			</g>
		</g>
	</g>
</g>
</svg>
