<?xml version="1.0" encoding="utf-8"?>
<!-- Generator: Adobe Illustrator 24.0.0, SVG Export Plug-In . SVG Version: 6.00 Build 0)  -->
<svg version="1.1" id="Layer_1" xmlns="http://www.w3.org/2000/svg" xmlns:xlink="http://www.w3.org/1999/xlink" x="0px" y="0px"
	 viewBox="0 0 18 14" style="enable-background:new 0 0 18 14;" xml:space="preserve">
<style type="text/css">
	.st0{fill:#4B93D2;}
</style>
<title>list</title>
<desc>Created with Sketch.</desc>
<g id="Page-1">
	<g id="Home-Option2--hover" transform="translate(-481.000000, -1294.000000)">
		<g id="Group-42" transform="translate(321.000000, 1022.000000)">
			<g id="Group-33" transform="translate(160.000000, 269.000000)">
				<g id="list" transform="translate(0.000000, 3.000000)">
					<path id="Path" class="st0" d="M16.9,13.2H5c-0.5,0-0.9-0.4-0.9-0.9s0.4-0.9,0.9-0.9h11.9c0.5,0,0.9,0.4,0.9,0.9
						S17.3,13.2,16.9,13.2z"/>
					<path id="Path_1_" class="st0" d="M16.9,7.7H5c-0.5,0-0.9-0.4-0.9-0.9S4.5,5.9,5,5.9h11.9c0.5,0,0.9,0.4,0.9,0.9
						C17.7,7.3,17.3,7.7,16.9,7.7z"/>
					<path id="Path_2_" class="st0" d="M16.9,2.1H5c-0.5,0-0.9-0.4-0.9-0.9S4.5,0.4,5,0.4h11.9c0.5,0,0.9,0.4,0.9,0.9
						S17.3,2.1,16.9,2.1z"/>
					<circle id="Oval" class="st0" cx="1.2" cy="1.3" r="1.2"/>
					<circle id="Oval_1_" class="st0" cx="1.2" cy="6.8" r="1.2"/>
					<circle id="Oval_2_" class="st0" cx="1.2" cy="12.3" r="1.2"/>
				</g>
			</g>
		</g>
	</g>
</g>
</svg>
