<?xml version="1.0" encoding="utf-8"?>
<!-- Generator: Adobe Illustrator 24.0.0, SVG Export Plug-In . SVG Version: 6.00 Build 0)  -->
<svg version="1.1" id="Layer_1" xmlns="http://www.w3.org/2000/svg" xmlns:xlink="http://www.w3.org/1999/xlink" x="0px" y="0px"
	 viewBox="0 0 80 68" style="enable-background:new 0 0 80 68;" xml:space="preserve">
<style type="text/css">
	.st0{fill:#FFFFFF;}
</style>
<title>icon/luottruycap</title>
<desc>Created with Sketch.</desc>
<g id="Page-1">
	<g id="Home-Option2" transform="translate(-831.000000, -3167.000000)">
		<g id="Giúp-bạn-học-tốt-tiếng-anh" transform="translate(-330.000000, 2868.000000)">
			<g id="Group-12" transform="translate(1160.000000, 295.000000)">
				<g>
					<g id="Group" transform="translate(1.000000, 4.000000)">
						<g id="Group-4">
							<g id="icon_x2F_luottruycap">
								<path id="Shape" class="st0" d="M25.5,18c0,3.9,1.5,8.5,4.1,12.1c2.9,4.2,6.6,6.5,10.4,6.5c3.8,0,7.5-2.3,10.4-6.5
									C53,26.5,54.5,22,54.5,18C54.5,10,48,3.5,40,3.5S25.5,10,25.5,18z M40,6c6.6,0,12,5.4,12,12c0,3.4-1.4,7.5-3.7,10.7
									c-2.4,3.4-5.4,5.4-8.3,5.4c-2.9,0-5.9-2-8.3-5.4C29.4,25.5,28,21.4,28,18C28,11.4,33.4,6,40,6z"/>
								<path id="Shape_1_" class="st0" d="M50.8,33.8c-0.5-0.2-1.1-0.1-1.4,0.2c-2.8,2.8-6.1,4.3-9.4,4.3c-3.3,0-6.6-1.5-9.4-4.3
									c-0.4-0.4-1-0.5-1.4-0.2c-4.2,2-7.8,5.2-10.4,9.1c-2.6,4.1-4,8.8-4,13.6v0c0,0.4,0.2,0.7,0.4,0.9c6.8,6.2,15.6,9.6,24.8,9.6
									s18-3.4,24.8-9.6c0.3-0.2,0.4-0.6,0.4-0.9v0c0-4.9-1.4-9.6-4-13.6C58.7,39,55.1,35.8,50.8,33.8z M40,64.6
									c-8.4,0-16.4-3-22.7-8.5c0.1-4.2,1.3-8.2,3.6-11.7c2.1-3.3,5.1-6,8.6-7.8c3.2,2.9,6.8,4.4,10.5,4.4c3.7,0,7.4-1.5,10.5-4.4
									c3.5,1.8,6.4,4.5,8.6,7.8c2.3,3.5,3.5,7.6,3.6,11.7C56.4,61.6,48.4,64.6,40,64.6z"/>
								<path id="Shape_2_" class="st0" d="M76.5,34.6c-2.2-3.5-5.4-6.2-9.1-8c-0.5-0.2-1.1-0.1-1.4,0.2c-2.4,2.4-5.2,3.7-8,3.7
									c-1.5,0-3.1-0.4-4.5-1.1c-0.6-0.3-1.4-0.1-1.7,0.6c-0.3,0.6-0.1,1.4,0.6,1.7c1.8,0.9,3.7,1.4,5.6,1.4c3.2,0,6.4-1.3,9.1-3.8
									c2.9,1.6,5.4,3.9,7.3,6.7c1.9,3,3,6.4,3.1,10c-3.1,2.7-6.8,4.8-10.7,6c-0.7,0.2-1,0.9-0.8,1.6c0.2,0.5,0.7,0.9,1.2,0.9
									c0.1,0,0.2,0,0.4-0.1c4.5-1.4,8.6-3.8,12.1-6.9c0.3-0.2,0.4-0.6,0.4-0.9C80,42.3,78.8,38.1,76.5,34.6z"/>
								<path id="Shape_3_" class="st0" d="M21.9,29c1.3,0,2.7-0.3,4-1c0.6-0.3,0.9-1.1,0.6-1.7c-0.3-0.6-1.1-0.9-1.7-0.6
									c-0.9,0.5-1.9,0.7-2.8,0.7c-2.4,0-5-1.7-7.1-4.6c-1.9-2.7-3.1-6.2-3.1-9.1c0-5.6,4.6-10.2,10.2-10.2c2.6,0,5.2,1,7.1,2.9
									c0.5,0.5,1.3,0.5,1.8,0c0.5-0.5,0.5-1.3,0-1.8c-2.4-2.3-5.5-3.6-8.8-3.6c-7,0-12.7,5.7-12.7,12.7c0,3.4,1.3,7.4,3.6,10.6
									C15.4,27,18.6,29,21.9,29z"/>
								<path id="Shape_4_" class="st0" d="M10.3,50.8c-2.8-1.2-5.4-2.9-7.7-4.9c0.1-3.5,1.2-7,3.1-10c1.8-2.8,4.3-5.1,7.2-6.6
									c2.7,2.5,5.9,3.8,9.1,3.8c1.9,0,3.9-0.5,5.7-1.4c0.6-0.3,0.9-1.1,0.6-1.7c-0.3-0.6-1.1-0.9-1.7-0.6c-1.5,0.7-3,1.1-4.5,1.1
									c-2.8,0-5.6-1.3-8-3.7c-0.4-0.4-1-0.5-1.4-0.2c-3.7,1.8-6.8,4.5-9,7.9C1.2,38.1,0,42.2,0,46.4v0c0,0.4,0.2,0.7,0.4,0.9
									C3,49.8,6,51.7,9.3,53.1c0.2,0.1,0.3,0.1,0.5,0.1c0.5,0,1-0.3,1.2-0.8C11.2,51.8,10.9,51.1,10.3,50.8z"/>
								<path id="Shape_5_" class="st0" d="M11.7,52.6c-0.4,1.1,0.8,2.2,1.8,1.6c0.5-0.3,0.8-1,0.5-1.6
									C13.7,51.6,12.2,51.6,11.7,52.6z"/>
								<path id="Shape_6_" class="st0" d="M14.1,52.7C14.2,52.9,14,52.4,14.1,52.7L14.1,52.7z"/>
								<path id="Shape_7_" class="st0" d="M51,5.5c1.9-1.8,4.4-2.9,7.1-2.9c5.6,0,10.2,4.6,10.2,10.2c0,2.9-1.2,6.4-3.1,9.1
									c-2,2.9-4.6,4.6-7.1,4.6c-0.9,0-1.9-0.2-2.8-0.7c-0.6-0.3-1.4-0.1-1.7,0.6c-0.3,0.6-0.1,1.4,0.6,1.7c1.3,0.6,2.6,1,4,1
									c3.3,0,6.6-2,9.1-5.6c2.2-3.2,3.6-7.1,3.6-10.6c0-7-5.7-12.7-12.7-12.7c-3.3,0-6.4,1.3-8.8,3.6c-0.5,0.5-0.5,1.3,0,1.8
									C49.7,5.9,50.5,5.9,51,5.5z"/>
							</g>
						</g>
					</g>
				</g>
			</g>
		</g>
	</g>
</g>
</svg>
