<?xml version="1.0" encoding="utf-8"?>
<!-- Generator: Adobe Illustrator 24.0.0, SVG Export Plug-In . SVG Version: 6.00 Build 0)  -->
<svg version="1.1" id="Layer_1" xmlns="http://www.w3.org/2000/svg" xmlns:xlink="http://www.w3.org/1999/xlink" x="0px" y="0px"
	 viewBox="0 0 112 80" style="enable-background:new 0 0 112 80;" xml:space="preserve">
<style type="text/css">
	.st0{fill:#2D8FDC;}
</style>
<title>icon/uyenthi</title>
<desc>Created with Sketch.</desc>
<g id="Page-1">
	<g id="Home-Option2" transform="translate(-896.000000, -641.000000)">
		<g id="box-hoctap" transform="translate(810.000000, 641.000000)">
			<g id="icon_x2F_uyenthi" transform="translate(86.000000, 0.000000)">
				<path id="Shape" class="st0" d="M104.6,24.3H65.8c-1.7-6-5.1-11.5-9.9-15.7c-7.2-6.4-16.5-9.4-26.2-8.3
					C14.2,1.9,1.8,14.4,0.2,30c-0.9,8.5,1.5,16.9,6.5,23.6c4.9,6.5,11.9,10.9,19.7,12.6l8.3,8.3c0.7,0.7,1.6,1.1,2.6,1.1
					c0.5,0,0.9-0.1,1.4-0.3c1.4-0.6,2.2-1.9,2.2-3.3v-5.8c1.4-0.3,2.7-0.7,4-1.1v0.2c0,4.1,3.3,7.3,7.4,7.3h12.4l6.6,6.6
					c0.6,0.6,1.4,0.9,2.2,0.9c0.4,0,0.8-0.1,1.2-0.2c1.2-0.5,1.9-1.6,1.9-2.8v-4.4h28.2c4.1,0,7.4-3.3,7.4-7.3V31.6
					C112,27.5,108.7,24.3,104.6,24.3z M38.9,62.9c-0.8,0.1-1.4,0.9-1.4,1.7v7.2c0,0,0,0.1-0.1,0.1c-0.1,0-0.1,0-0.1,0l-8.6-8.6
					c-0.2-0.2-0.6-0.4-0.9-0.5C20.4,61.4,14,57.4,9.5,51.5c-4.6-6-6.6-13.5-5.9-21.1c0.7-6.7,3.7-13.1,8.6-17.9
					c4.8-4.9,11.2-8,17.9-8.7c1.2-0.1,2.3-0.2,3.5-0.2c7.4,0,14.4,2.7,20,7.6c6.4,5.7,10,13.8,10,22.3C63.6,48,53.2,60.4,38.9,62.9z
					 M108.5,65.2c0,2.1-1.7,3.8-3.9,3.8H74.7c-1,0-1.8,0.8-1.8,1.7v5.1l-6.4-6.3c-0.3-0.3-0.8-0.5-1.2-0.5H52.3
					c-2.1,0-3.9-1.7-3.9-3.8v-1.7c11.2-5.5,18.7-17,18.7-30c0-1.9-0.2-3.8-0.5-5.7h38c2.1,0,3.9,1.7,3.9,3.8V65.2L108.5,65.2z"/>
				<path id="Path" class="st0" d="M98.5,37.5c-0.7-0.6-1.8-0.6-2.5,0L78.3,54L70,46.3c-0.7-0.6-1.8-0.6-2.5,0
					c-0.7,0.6-0.7,1.7,0,2.3l9.5,8.8c0.3,0.3,0.8,0.5,1.3,0.5s0.9-0.2,1.3-0.5l19-17.7C99.2,39.2,99.2,38.1,98.5,37.5z"/>
				<path id="Path_1_" class="st0" d="M34,46C34,46,34,46,34,46c-1.1,0-2,0.9-2,2c0,0,0,0,0,0s0,0,0,0c0,1.1,0.9,2,2,2c0,0,0,0,0,0
					c1.1,0,2-0.9,2-2c0,0,0,0,0,0s0,0,0,0C36,46.9,35.1,46,34,46z"/>
				<path id="Path_2_" class="st0" d="M41.7,21.2c-2.1-2-4.9-3.2-7.7-3.2c-6.1,0-11,4.8-11,10.7c0,0.9,0.8,1.7,1.7,1.7
					c1,0,1.7-0.8,1.7-1.7c0-4,3.4-7.3,7.5-7.3c2,0,3.8,0.8,5.3,2.2c1.4,1.4,2.2,3.2,2.2,5.1c0,3.2-2.2,6.1-5.4,7
					c-2.3,0.7-3.9,2.7-3.9,5.1v0.5c0,0.9,0.8,1.7,1.7,1.7c1,0,1.7-0.8,1.7-1.7v-0.5c0-0.8,0.6-1.6,1.4-1.8c4.6-1.3,7.8-5.6,7.8-10.2
					C45,25.9,43.8,23.2,41.7,21.2z"/>
			</g>
		</g>
	</g>
</g>
</svg>
