<?xml version="1.0" encoding="utf-8"?>
<!-- Generator: Adobe Illustrator 24.0.0, SVG Export Plug-In . SVG Version: 6.00 Build 0)  -->
<svg version="1.1" id="Layer_1" xmlns="http://www.w3.org/2000/svg" xmlns:xlink="http://www.w3.org/1999/xlink" x="0px" y="0px"
	 viewBox="0 0 12 16" style="enable-background:new 0 0 12 16;" xml:space="preserve">
<style type="text/css">
	.st0{fill:#FFFFFF;}
</style>
<title>icon/map</title>
<desc>Created with Sketch.</desc>
<g id="Page-1">
	<g id="Home-Option2" transform="translate(-671.000000, -4681.000000)">
		<g id="FOOTER" transform="translate(0.000000, 4610.000000)">
			<g id="Group-25-Copy" transform="translate(671.000000, 36.000000)">
				<g id="icon_x2F_map" transform="translate(0.000000, 35.000000)">
					<path id="Shape" class="st0" d="M6,0C2.7,0,0,2.7,0,6c0,3.1,5,8.5,5.5,9.1L6,15.6l0.5-0.5C7,14.5,12,9.1,12,6C12,2.7,9.3,0,6,0
						z M6,8.5C4.6,8.5,3.5,7.4,3.5,6c0-1.4,1.1-2.5,2.5-2.5c1.4,0,2.5,1.1,2.5,2.5C8.5,7.4,7.4,8.5,6,8.5z"/>
				</g>
			</g>
		</g>
	</g>
</g>
</svg>
