<?xml version="1.0" encoding="utf-8"?>
<!-- Generator: Adobe Illustrator 24.0.0, SVG Export Plug-In . SVG Version: 6.00 Build 0)  -->
<svg version="1.1" id="Layer_1" xmlns="http://www.w3.org/2000/svg" xmlns:xlink="http://www.w3.org/1999/xlink" x="0px" y="0px"
	 viewBox="0 0 24 24" style="enable-background:new 0 0 24 24;" xml:space="preserve">
<style type="text/css">
	.st0{fill:#FFFFFF;}
</style>
<title>icon/pinterest</title>
<desc>Created with Sketch.</desc>
<g id="Page-1">
	<g id="Home-Option2" transform="translate(-1406.000000, -4838.000000)">
		<g id="FOOTER" transform="translate(0.000000, 4610.000000)">
			<g id="Group-25-Copy" transform="translate(1250.000000, 36.000000)">
				<g id="Group-23" transform="translate(0.000000, 104.000000)">
					<g id="Soical-icon" transform="translate(0.000000, 88.000000)">
						<g id="facebook">
							<g id="icon_x2F_pinterest" transform="translate(156.000000, 0.000000)">
								<path id="Shape" class="st0" d="M12,0C5.4,0,0,5.4,0,12s5.4,12,12,12s12-5.4,12-12S18.6,0,12,0z M13.3,15.9
									c-1.1,0-2.1-0.6-2.5-1.3c0,0-0.6,2.4-0.7,2.8c-0.4,1.6-1.8,3.2-1.9,3.4C8.2,20.9,8,20.9,8,20.8c0-0.2-0.4-2.2,0-3.9
									c0.2-0.8,1.3-5.6,1.3-5.6S9,10.6,9,9.7C9,8.2,9.9,7,11,7c0.9,0,1.4,0.7,1.4,1.5c0,0.9-0.6,2.3-0.9,3.6c-0.3,1.1,0.5,2,1.6,2
									c1.9,0,3.3-2.5,3.3-5.5c0-2.2-1.5-3.9-4.3-3.9c-3.1,0-5,2.3-5,4.9c0,0.9,0.3,1.5,0.7,2C7.9,11.9,8,12,7.9,12.3
									c0,0.2-0.2,0.6-0.2,0.8c-0.1,0.3-0.3,0.4-0.5,0.3c-1.4-0.6-2.1-2.2-2.1-3.9C5.1,6.5,7.5,3,12.4,3c3.9,0,6.5,2.8,6.5,5.9
									C18.9,12.9,16.6,15.9,13.3,15.9z"/>
							</g>
						</g>
					</g>
				</g>
			</g>
		</g>
	</g>
</g>
</svg>
