<?xml version="1.0" encoding="utf-8"?>
<!-- Generator: Adobe Illustrator 24.0.0, SVG Export Plug-In . SVG Version: 6.00 Build 0)  -->
<svg version="1.1" id="Layer_1" xmlns="http://www.w3.org/2000/svg" xmlns:xlink="http://www.w3.org/1999/xlink" x="0px" y="0px"
	 viewBox="0 0 24 22" style="enable-background:new 0 0 24 22;" xml:space="preserve">
<style type="text/css">
	.st0{fill:#AAAAAA;}
</style>
<title>Shape</title>
<desc>Created with Sketch.</desc>
<g id="Page-1">
	<g id="Home-Option2--hover" transform="translate(-343.000000, -1410.000000)">
		<g id="Group-42" transform="translate(321.000000, 1022.000000)">
			<g id="heart" transform="translate(22.000000, 388.000000)">
				<g id="Group-39" transform="translate(-0.000005, 0.025475)">
					<path id="Shape" class="st0" d="M22,2C20.8,0.7,19.1,0,17.4,0S13.9,0.7,12.7,2L12,2.6L11.3,2c-1.3-1.3-2.9-2-4.7-2
						C4.9,0,3.2,0.7,1.9,1.9C0.7,3.2,0,4.9,0,6.6c0,1.8,0.7,3.4,2,4.7l9.5,9.5c0.1,0.1,0.3,0.2,0.5,0.2s0.4-0.1,0.5-0.2l9.6-9.5
						c1.3-1.3,1.9-2.9,1.9-4.7C24,4.9,23.3,3.2,22,2z M21.1,10.4L12,19.4l-9.1-9.1c-1-1-1.5-2.3-1.5-3.7s0.5-2.7,1.5-3.7
						c1-1,2.3-1.5,3.7-1.5c1.4,0,2.7,0.5,3.7,1.5l1.1,1.1c0.3,0.3,0.7,0.3,1,0l1.1-1.1c1-1,2.3-1.5,3.7-1.5c1.4,0,2.7,0.5,3.7,1.5
						c1,1,1.5,2.3,1.5,3.7C22.6,8.1,22.1,9.4,21.1,10.4z"/>
				</g>
			</g>
		</g>
	</g>
</g>
</svg>
