<?xml version="1.0" encoding="utf-8"?>
<!-- Generator: Adobe Illustrator 24.0.0, SVG Export Plug-In . SVG Version: 6.00 Build 0)  -->
<svg version="1.1" id="Layer_1" xmlns="http://www.w3.org/2000/svg" xmlns:xlink="http://www.w3.org/1999/xlink" x="0px" y="0px"
	 viewBox="0 0 14 14" style="enable-background:new 0 0 14 14;" xml:space="preserve">
<style type="text/css">
	.st0{fill:#FFFFFF;}
</style>
<title>icon/telephone</title>
<desc>Created with Sketch.</desc>
<g id="Page-1">
	<g id="Home-Option2" transform="translate(-671.000000, -4733.000000)">
		<g id="FOOTER" transform="translate(0.000000, 4610.000000)">
			<g id="Group-25-Copy" transform="translate(671.000000, 36.000000)">
				<g id="icon_x2F_telephone" transform="translate(0.000000, 87.000000)">
					<path id="Path" class="st0" d="M13.6,10.3l-1.7-1.7c-0.5-0.5-1.3-0.5-1.7,0L9.9,8.9l3.5,3.5l0.3-0.3
						C14.1,11.6,14.1,10.8,13.6,10.3z"/>
					<path id="Path_1_" class="st0" d="M9.3,9.4C8.9,9.7,8.4,9.7,8,9.4L4.6,5.9C4.3,5.6,4.3,5.1,4.5,4.7L1.1,1.2
						c-1.5,1.7-1.4,4.4,0.2,6l5.4,5.4c1.6,1.6,4.2,1.8,6,0.2L9.3,9.4z"/>
					<path id="Path_2_" class="st0" d="M5.4,2.1L3.7,0.3c-0.5-0.5-1.3-0.5-1.7,0L1.6,0.6l3.5,3.5l0.3-0.3C5.9,3.3,5.9,2.6,5.4,2.1z"
						/>
				</g>
			</g>
		</g>
	</g>
</g>
</svg>
