<?xml version="1.0" encoding="utf-8"?>
<!-- Generator: Adobe Illustrator 24.0.0, SVG Export Plug-In . SVG Version: 6.00 Build 0)  -->
<svg version="1.1" id="Layer_1" xmlns="http://www.w3.org/2000/svg" xmlns:xlink="http://www.w3.org/1999/xlink" x="0px" y="0px"
	 viewBox="0 0 12 19" style="enable-background:new 0 0 12 19;" xml:space="preserve">
<style type="text/css">
	.st0{fill:#27A08E;}
</style>
<title>idea</title>
<desc>Created with Sketch.</desc>
<g id="Page-1">
	<g id="Home-Option2--hover" transform="translate(-343.000000, -1290.000000)">
		<g id="Group-42" transform="translate(321.000000, 1022.000000)">
			<g id="Group-33" transform="translate(22.000000, 268.000000)">
				<g id="idea">
					<path id="Shape" class="st0" d="M0.3,18.1h11.4c0.1,0,0.2,0,0.2-0.1c0.1-0.1,0.1-0.1,0.1-0.2v-2.1c0-1.4-1.1-2.5-2.5-2.5H8
						v-0.7h0.4c0.2,0,0.3-0.1,0.3-0.3v-1.6c0-0.2-0.1-0.3-0.3-0.3H7.9c0-0.6,0.2-1.2,0.7-1.7c0,0,0,0,0,0c0.6-0.7,1-1.5,1-2.4
						c0-0.9-0.4-1.8-1-2.4c-1.4-1.4-3.7-1.4-5.1,0C2.8,4.5,2.4,5.3,2.4,6.2c0,0.9,0.3,1.8,1,2.4C3.8,9.1,4.1,9.7,4,10.4H3.6
						c-0.2,0-0.3,0.1-0.3,0.3v1.6c0,0.2,0.1,0.3,0.3,0.3H4v0.7H2.5c-1.4,0-2.5,1.1-2.5,2.5v2.1c0,0.1,0,0.2,0.1,0.2
						C0.1,18.1,0.2,18.1,0.3,18.1z M11.4,15.7v1.8H6.2v-2.7l1.6-1h1.7C10.5,13.8,11.4,14.7,11.4,15.7L11.4,15.7z M3.8,8.2
						C3.2,7.7,3,7,3,6.2c0-1.5,1.4-2.8,3-2.8c0.8,0,1.6,0.3,2.2,0.9C8.7,4.8,9,5.5,9,6.3c0,0.7-0.3,1.4-0.8,2
						c-0.6,0.6-0.9,1.3-0.9,2.1h-1V7.8C6.8,7.7,7.1,7.2,7,6.7C7,6.2,6.6,5.8,6,5.7c-0.5,0-1,0.4-1.1,0.9c-0.1,0.5,0.2,1,0.7,1.2v2.5
						h-1C4.7,9.6,4.3,8.8,3.8,8.2z M6,7.3c-0.3,0-0.5-0.2-0.5-0.5c0-0.3,0.2-0.5,0.5-0.5c0.3,0,0.5,0.2,0.5,0.5
						C6.4,7.1,6.2,7.3,6,7.3z M3.9,11h4.2v1H3.9V11z M7.4,12.5v0.8l-1.5,0.9l-1.4-0.9v-0.8H7.4z M0.6,15.7c0-1.1,0.8-1.9,1.9-1.9
						h1.7l1.5,1v2.7h-5V15.7z"/>
					<path id="Path" class="st0" d="M5.9,1.9c0.2,0,0.3-0.1,0.3-0.3V0.3C6.2,0.1,6.1,0,5.9,0S5.6,0.1,5.6,0.3v1.3
						C5.6,1.8,5.7,1.9,5.9,1.9z"/>
					<path id="Path_1_" class="st0" d="M9.3,3.3c0.1,0,0.1,0,0.2-0.1l1-0.9c0.1-0.1,0.1-0.3,0-0.4c-0.1-0.1-0.3-0.1-0.4,0l-1,0.9
						C9,2.9,9,3,9,3.1C9,3.2,9.2,3.3,9.3,3.3L9.3,3.3z"/>
					<path id="Path_2_" class="st0" d="M2.4,3.1c0.1,0.1,0.3,0.1,0.4,0C3,3,3,2.8,2.9,2.7l-1-0.9c-0.1-0.1-0.3-0.1-0.4,0
						c-0.1,0.1-0.1,0.3,0,0.4L2.4,3.1z"/>
				</g>
			</g>
		</g>
	</g>
</g>
</svg>
