<?xml version="1.0" encoding="utf-8"?>
<!-- Generator: Adobe Illustrator 24.0.0, SVG Export Plug-In . SVG Version: 6.00 Build 0)  -->
<svg version="1.1" id="Layer_1" xmlns="http://www.w3.org/2000/svg" xmlns:xlink="http://www.w3.org/1999/xlink" x="0px" y="0px"
	 viewBox="0 0 24 24" style="enable-background:new 0 0 24 24;" xml:space="preserve">
<style type="text/css">
	.st0{fill:#FFFFFF;}
</style>
<title>icon/twiter</title>
<desc>Created with Sketch.</desc>
<g id="Page-1">
	<g id="Home-Option2" transform="translate(-1328.000000, -4838.000000)">
		<g id="FOOTER" transform="translate(0.000000, 4610.000000)">
			<g id="Group-25-Copy" transform="translate(1250.000000, 36.000000)">
				<g id="Group-23" transform="translate(0.000000, 104.000000)">
					<g id="Soical-icon" transform="translate(0.000000, 88.000000)">
						<g id="facebook">
							<g id="twitter" transform="translate(78.000000, 0.000000)">
								<path id="icon_x2F_twiter" class="st0" d="M12,0C5.4,0,0,5.4,0,12s5.4,12,12,12s12-5.4,12-12S18.6,0,12,0z M17.5,9.4
									c0,0.1,0,0.2,0,0.4c0,3.6-2.8,7.8-7.8,7.8h0h0c-1.6,0-3-0.5-4.2-1.2c0.2,0,0.4,0,0.7,0c1.3,0,2.5-0.4,3.4-1.2
									c-1.2,0-2.2-0.8-2.6-1.9c0.2,0,0.3,0,0.5,0c0.3,0,0.5,0,0.7-0.1C6.9,13,6,11.8,6,10.5c0,0,0,0,0,0c0.4,0.2,0.8,0.3,1.2,0.3
									C6.5,10.3,6,9.5,6,8.5c0-0.5,0.1-1,0.4-1.4C7.7,8.8,9.8,9.9,12,10C12,9.8,12,9.6,12,9.4c0-1.5,1.2-2.8,2.8-2.8
									c0.8,0,1.5,0.3,2,0.9c0.6-0.1,1.2-0.4,1.7-0.7c-0.2,0.6-0.6,1.2-1.2,1.5c0.6-0.1,1.1-0.2,1.6-0.4C18.5,8.5,18,9,17.5,9.4z"
									/>
							</g>
						</g>
					</g>
				</g>
			</g>
		</g>
	</g>
</g>
</svg>
