<?xml version="1.0" encoding="utf-8"?>
<!-- Generator: Adobe Illustrator 24.0.0, SVG Export Plug-In . SVG Version: 6.00 Build 0)  -->
<svg version="1.1" id="Layer_1" xmlns="http://www.w3.org/2000/svg" xmlns:xlink="http://www.w3.org/1999/xlink" x="0px" y="0px"
	 viewBox="0 0 24 24" style="enable-background:new 0 0 24 24;" xml:space="preserve">
<style type="text/css">
	.st0{fill:#FFFFFF;}
</style>
<title>icon/youtube</title>
<desc>Created with Sketch.</desc>
<g id="Page-1">
	<g id="Home-Option2" transform="translate(-1289.000000, -4838.000000)">
		<g id="FOOTER" transform="translate(0.000000, 4610.000000)">
			<g id="Group-25-Copy" transform="translate(1250.000000, 36.000000)">
				<g id="Group-23" transform="translate(0.000000, 104.000000)">
					<g id="Soical-icon" transform="translate(0.000000, 88.000000)">
						<g id="facebook">
							<g id="icon_x2F_youtube" transform="translate(39.000000, 0.000000)">
								<polygon id="Path" class="st0" points="10.5,14.2 14.4,12 10.5,9.8 								"/>
								<path id="Shape" class="st0" d="M12,0C5.4,0,0,5.4,0,12s5.4,12,12,12s12-5.4,12-12S18.6,0,12,0z M19.5,12c0,0,0,2.4-0.3,3.6
									c-0.2,0.6-0.7,1.1-1.3,1.3c-1.2,0.3-5.9,0.3-5.9,0.3s-4.7,0-5.9-0.3c-0.6-0.2-1.1-0.7-1.3-1.3C4.5,14.4,4.5,12,4.5,12
									s0-2.4,0.3-3.6C5,7.8,5.5,7.2,6.1,7.1C7.3,6.7,12,6.7,12,6.7s4.7,0,5.9,0.3c0.6,0.2,1.1,0.7,1.3,1.3
									C19.5,9.6,19.5,12,19.5,12L19.5,12z"/>
							</g>
						</g>
					</g>
				</g>
			</g>
		</g>
	</g>
</g>
</svg>
