<?xml version="1.0" standalone="no"?>
<!DOCTYPE svg PUBLIC "-//W3C//DTD SVG 1.1//EN" "http://www.w3.org/Graphics/SVG/1.1/DTD/svg11.dtd" >
<svg>
<metadata>
Created by FontForge 20120731 at Wed Apr  3 03:41:13 2019
 By Apache
PORSCHE NEXT is a design by TYPE TAILORS BVBA for Dr. Ing. h.c. F. Porsche AG. Type Directors: Hendrik Weber, Fred Smeijers, Corina Cotorobai. Lead font development: Thomas Thiemich. Produced by TYPE TAILORS BVBA.
</metadata>
<defs>
<font id="PorscheNext-Regular" horiz-adv-x="318" >
  <font-face 
    font-family="Porsche Next"
    font-weight="400"
    font-stretch="normal"
    units-per-em="1000"
    panose-1="2 11 5 4 2 1 1 1 1 2"
    ascent="800"
    descent="-200"
    x-height="504"
    cap-height="712"
    bbox="-274 -313 1009 1022"
    underline-thickness="50"
    underline-position="-75"
    stemh="66"
    stemv="80"
    unicode-range="U+000D-FEFF"
  />
<missing-glyph horiz-adv-x="728" 
d="M12 0v712h704v-712h-704zM190 234l52 -52l124 128l124 -128l52 52l-124 128l124 129l-52 51l-124 -127l-124 127l-52 -51l124 -129z" />
    <glyph glyph-name="f_b" unicode="fb" horiz-adv-x="783" 
d="M342 0v639h-79c-71 0 -96 -28 -96 -99v-36h94v-70h-94v-434h-80v434h-64v70h64v33c0 116 53 175 173 175h162v-270c24 47 66 70 125 70c140 0 191 -79 191 -260s-59 -260 -195 -260c-60 0 -101 21 -124 70v-62h-77zM539 58c87 0 119 48 119 194c0 143 -32 187 -119 187
c-82 0 -117 -39 -117 -187c0 -146 32 -194 117 -194z" />
    <glyph glyph-name="f_f" unicode="ff" horiz-adv-x="584" 
d="M23 434v70h64v50c0 101 52 158 157 158h63v-73h-60c-57 0 -80 -26 -80 -83v-52h191v50c0 101 52 158 156 158h64v-73h-60c-57 0 -80 -26 -80 -83v-52h129v-70h-129v-434h-80v434h-191v-434h-80v434h-64z" />
    <glyph glyph-name="f_f_b" unicode="ffb" horiz-adv-x="1054" 
d="M87 0v434h-64v70h64v50c0 101 52 158 157 158h63v-73h-60c-57 0 -80 -26 -80 -83v-52h191v33c0 116 53 175 173 175h162v-271c23 47 65 71 125 71c140 0 191 -79 191 -260s-59 -260 -195 -260c-60 0 -100 21 -124 69v-61h-77v639h-79c-71 0 -96 -28 -96 -99v-36h94v-70
h-94v-434h-80v434h-191v-434h-80zM811 58c85 0 118 48 118 194c0 143 -33 187 -118 187s-118 -43 -118 -187c0 -148 34 -194 118 -194z" />
    <glyph glyph-name="f_f_h" unicode="ffh" horiz-adv-x="1041" 
d="M87 0v434h-64v70h64v50c0 101 52 158 157 158h63v-73h-60c-57 0 -80 -26 -80 -83v-52h191v33c0 116 53 175 173 175h162v-267c20 45 64 67 125 67c108 0 159 -66 159 -174v-338h-80v317c0 89 -29 122 -100 122c-72 0 -104 -30 -104 -121v-318h-80v639h-79
c-71 0 -96 -28 -96 -99v-36h94v-70h-94v-434h-80v434h-191v-434h-80z" />
    <glyph glyph-name="f_f_i" unicode="ffi" horiz-adv-x="761" 
d="M87 0v434h-64v70h64v50c0 101 52 158 157 158h63v-73h-60c-57 0 -80 -26 -80 -83v-52h191v50c0 103 52 158 157 158h38v-73h-35c-57 0 -80 -26 -80 -83v-52h255v-504h-80v434h-175v-434h-80v434h-191v-434h-80zM613 618v94h80v-94h-80z" />
    <glyph glyph-name="f_f_j" unicode="ffj" horiz-adv-x="761" 
d="M87 0v434h-64v70h64v50c0 101 52 158 157 158h63v-73h-60c-57 0 -80 -26 -80 -83v-52h191v50c0 103 52 158 157 158h38v-73h-35c-57 0 -80 -26 -80 -83v-52h255v-576c0 -88 -38 -136 -129 -136h-41v66h26c45 0 64 17 64 65v511h-175v-434h-80v434h-191v-434h-80zM613 618
v94h80v-94h-80z" />
    <glyph glyph-name="f_f_k" unicode="ffk" horiz-adv-x="999" 
d="M87 0v434h-64v70h64v50c0 101 52 158 157 158h63v-73h-60c-57 0 -80 -26 -80 -83v-52h191v33c0 116 53 175 173 175h162v-458l205 250h91l-177 -213l177 -291h-90l-140 233l-66 -78v-155h-80v639h-79c-71 0 -96 -28 -96 -99v-36h94v-70h-94v-434h-80v434h-191v-434h-80z
" />
    <glyph glyph-name="f_f_l" unicode="ffl" horiz-adv-x="761" 
d="M87 0v434h-64v70h64v50c0 101 52 158 157 158h63v-73h-60c-57 0 -80 -26 -80 -83v-52h191v33c0 116 53 175 173 175h162v-712h-80v639h-79c-71 0 -96 -28 -96 -99v-36h94v-70h-94v-434h-80v434h-191v-434h-80z" />
    <glyph glyph-name="f_f_t" unicode="fft" horiz-adv-x="860" 
d="M87 0v434h-64v70h64v50c0 101 52 158 157 158h63v-73h-60c-57 0 -80 -26 -80 -83v-52h191v50c0 103 52 158 157 158h38v-73h-35c-57 0 -80 -26 -80 -83v-52h177v120h78v-120h147v-70h-147v-276c0 -68 21 -92 85 -92h62v-66h-76c-101 0 -151 52 -151 155v279h-175v-434
h-80v434h-191v-434h-80z" />
    <glyph glyph-name="f_h" unicode="fh" horiz-adv-x="770" 
d="M342 0v639h-79c-71 0 -96 -28 -96 -99v-36h94v-70h-94v-434h-80v434h-64v70h64v33c0 116 53 175 173 175h162v-265c21 43 63 65 125 65c108 0 159 -66 159 -174v-338h-80v317c0 89 -29 122 -100 122c-68 0 -104 -27 -104 -122v-317h-80z" />
    <glyph glyph-name="f_i" unicode="fi" horiz-adv-x="490" 
d="M342 0v434h-175v-434h-80v434h-64v70h64v50c0 103 52 158 157 158h38v-73h-35c-57 0 -80 -26 -80 -83v-52h255v-504h-80zM342 618v94h80v-94h-80z" />
    <glyph glyph-name="f_j" unicode="fj" horiz-adv-x="490" 
d="M342 -77v511h-175v-434h-80v434h-64v70h64v50c0 103 52 158 157 158h38v-73h-35c-57 0 -80 -26 -80 -83v-52h255v-576c0 -88 -38 -136 -129 -136h-41v66h26c45 0 64 17 64 65zM342 618v94h80v-94h-80z" />
    <glyph glyph-name="f_k" unicode="fk" horiz-adv-x="728" 
d="M342 0v639h-79c-71 0 -96 -28 -96 -99v-36h94v-70h-94v-434h-80v434h-64v70h64v33c0 116 53 175 173 175h162v-457l205 249h91l-177 -212l177 -292h-90l-139 233l-67 -78v-155h-80z" />
    <glyph glyph-name="f_l" unicode="fl" horiz-adv-x="490" 
d="M23 434v70h64v33c0 116 53 175 173 175h162v-712h-80v639h-79c-71 0 -96 -28 -96 -99v-36h94v-70h-94v-434h-80v434h-64z" />
    <glyph glyph-name="f_t" unicode="ft" horiz-adv-x="589" 
d="M342 155v279h-175v-434h-80v434h-64v70h64v50c0 103 52 158 157 158h38v-73h-35c-57 0 -80 -26 -80 -83v-52h177v120h78v-120h147v-70h-147v-276c0 -68 21 -92 85 -92h62v-66h-76c-101 0 -151 52 -151 155z" />
    <glyph glyph-name=".notdef" horiz-adv-x="728" 
d="M12 0v712h704v-712h-704zM190 234l52 -52l124 128l124 -128l52 52l-124 128l124 129l-52 51l-124 -127l-124 127l-52 -51l124 -129z" />
    <glyph glyph-name=".null" horiz-adv-x="0" 
 />
    <glyph glyph-name=".null" horiz-adv-x="0" 
 />
    <glyph glyph-name="uni000D" unicode="&#xd;" horiz-adv-x="214" 
 />
    <glyph glyph-name="space" unicode=" " horiz-adv-x="214" 
 />
    <glyph glyph-name="exclam" unicode="!" horiz-adv-x="226" 
d="M91 214l-18 498h80l-18 -498h-44zM71 0v102h84v-102h-84z" />
    <glyph glyph-name="quotedbl" unicode="&#x22;" horiz-adv-x="327" 
d="M220 487l-24 139v86h82v-86l-25 -139h-33zM73 487l-24 139v86h81v-86l-24 -139h-33z" />
    <glyph glyph-name="numbersign" unicode="#" horiz-adv-x="676" 
d="M105 474v67h111l47 171h70l-47 -171h202l47 171h70l-47 -171h91v-67h-109l-63 -236h94v-67h-112l-46 -171h-70l46 171h-202l-46 -171h-70l46 171h-90v67h108l63 236h-93zM268 474l-63 -236h202l63 236h-202z" />
    <glyph glyph-name="dollar" unicode="$" horiz-adv-x="560" 
d="M46 216h79c7 -116 53 -162 158 -162c97 0 148 38 148 126c0 85 -47 110 -128 132l-56 15c-106 29 -184 71 -184 203c0 108 60 180 183 192v94h80v-94c134 -13 178 -98 186 -234h-79c-8 120 -52 160 -149 160c-88 0 -139 -38 -139 -118c0 -86 54 -109 130 -130l56 -15
c117 -32 183 -80 183 -205c0 -107 -65 -177 -188 -190v-94h-80v93c-133 11 -193 83 -200 227z" />
    <glyph glyph-name="percent" unicode="%" horiz-adv-x="721" 
d="M173 348c-104 0 -139 50 -139 188c0 125 31 184 139 184c109 0 140 -58 140 -184c0 -136 -37 -188 -140 -188zM173 400c56 0 70 24 70 136c0 100 -18 125 -70 125s-69 -25 -69 -125c0 -112 14 -136 69 -136zM103 0l456 712h60l-456 -712h-60zM547 -8
c-104 0 -139 50 -139 188c0 125 31 184 139 184c109 0 140 -58 140 -184c0 -136 -37 -188 -140 -188zM547 44c56 0 70 24 70 136c0 100 -18 125 -70 125s-69 -25 -69 -125c0 -112 14 -136 69 -136z" />
    <glyph glyph-name="ampersand" unicode="&#x26;" horiz-adv-x="612" 
d="M41 184c0 91 47 143 127 204c-53 58 -86 101 -86 169c0 100 49 167 188 167c155 0 191 -70 196 -236h-78c-5 125 -28 160 -120 160c-77 0 -104 -27 -104 -87c0 -52 41 -97 86 -148l185 -212v165h73v-122c0 -47 -5 -83 -14 -112l116 -132h-99l-54 61
c-39 -45 -104 -73 -192 -73c-164 0 -224 71 -224 196zM265 54c73 0 120 17 147 58l-200 226c-69 -59 -89 -84 -89 -154c0 -87 37 -130 142 -130z" />
    <glyph glyph-name="quotesingle" unicode="'" horiz-adv-x="179" 
d="M73 487l-24 139v86h81v-86l-24 -139h-33z" />
    <glyph glyph-name="parenleft" unicode="(" horiz-adv-x="313" 
d="M139 312c0 -352 32 -394 118 -394h20v-66h-21c-130 0 -192 42 -192 460s64 460 192 460h21v-66h-20c-86 0 -118 -42 -118 -394z" />
    <glyph glyph-name="parenright" unicode=")" horiz-adv-x="313" 
d="M174 312c0 352 -32 394 -118 394h-20v66h21c128 0 192 -42 192 -460s-62 -460 -192 -460h-21v66h20c86 0 118 42 118 394z" />
    <glyph glyph-name="asterisk" unicode="*" horiz-adv-x="410" 
d="M33 569l18 51l66 -21l65 -27l-5 71v69h55v-69l-6 -71l66 28l66 21l17 -53l-66 -21l-70 -17l47 -54l40 -56l-45 -32l-40 56l-37 61l-37 -61l-41 -56l-44 33l41 55l45 54l-69 17z" />
    <glyph glyph-name="plus" unicode="+" horiz-adv-x="560" 
d="M56 257v66h191v197h66v-197h191v-66h-191v-197h-66v197h-191z" />
    <glyph glyph-name="comma" unicode="," horiz-adv-x="206" 
d="M61 102h84v-75l-44 -155h-40v230z" />
    <glyph glyph-name="hyphen" unicode="-" horiz-adv-x="414" 
d="M61 258v67h292v-67h-292z" />
    <glyph glyph-name="period" unicode="." horiz-adv-x="206" 
d="M61 0v102h84v-102h-84z" />
    <glyph glyph-name="slash" unicode="/" horiz-adv-x="452" 
d="M36 0l312 712h68l-312 -712h-68z" />
    <glyph glyph-name="zero" unicode="0" horiz-adv-x="560" 
d="M280 -12c-173 0 -236 87 -236 376c0 255 55 360 236 360s236 -101 236 -360c0 -284 -63 -376 -236 -376zM280 54c124 0 151 68 151 310c0 220 -34 284 -151 284c-119 0 -151 -64 -151 -284c0 -242 27 -310 151 -310z" />
    <glyph glyph-name="one" unicode="1" horiz-adv-x="560" 
d="M307 0v626l-197 -74v76l211 84h69v-712h-83z" />
    <glyph glyph-name="two" unicode="2" horiz-adv-x="560" 
d="M74 0v66c0 110 59 168 138 221l77 51c63 42 127 85 127 182c0 91 -50 128 -138 128c-92 0 -136 -39 -144 -160h-78c5 148 63 236 222 236c151 0 221 -75 221 -204c0 -124 -75 -181 -145 -227l-77 -51c-90 -61 -123 -96 -123 -163v-13h338v-66h-418z" />
    <glyph glyph-name="three" unicode="3" horiz-adv-x="560" 
d="M48 216h78c8 -116 51 -162 156 -162c97 0 146 40 146 136c0 88 -41 135 -146 135h-72v73h67c91 0 135 45 135 124c0 88 -52 126 -140 126c-89 0 -137 -40 -145 -160h-79c8 145 68 236 224 236c151 0 222 -75 222 -202c0 -64 -31 -125 -94 -154c68 -23 110 -75 110 -178
c0 -125 -79 -202 -228 -202c-159 0 -227 73 -234 228z" />
    <glyph glyph-name="four" unicode="4" horiz-adv-x="560" 
d="M26 164v62l287 486h116v-478h101v-70h-101v-164h-80v164h-323zM113 234h236v404z" />
    <glyph glyph-name="five" unicode="5" horiz-adv-x="560" 
d="M64 288v32l34 392h382v-76h-316l-21 -239c31 35 81 55 145 55c151 0 224 -73 224 -228c0 -167 -84 -236 -232 -236c-146 0 -222 68 -228 204h79c5 -92 46 -138 149 -138c113 0 150 55 150 167c0 109 -39 162 -150 162c-87 0 -125 -34 -142 -95h-74z" />
    <glyph glyph-name="six" unicode="6" horiz-adv-x="560" 
d="M48 224c0 88 24 146 67 212l180 276h89l-184 -279c27 13 56 19 89 19c149 0 224 -73 224 -228c0 -167 -84 -236 -232 -236c-151 0 -233 69 -233 236zM131 220c0 -111 37 -166 150 -166c112 0 149 55 149 166s-38 163 -149 163s-150 -52 -150 -163z" />
    <glyph glyph-name="seven" unicode="7" horiz-adv-x="560" 
d="M54 636v76h452v-60l-290 -652h-85l287 636h-364z" />
    <glyph glyph-name="eight" unicode="8" horiz-adv-x="560" 
d="M48 190c0 84 33 143 108 171c-53 27 -92 75 -92 163c0 124 69 200 216 200c149 0 216 -76 216 -200c0 -88 -38 -136 -93 -163c75 -28 109 -87 109 -171c0 -140 -80 -202 -232 -202s-232 62 -232 202zM130 191c0 -96 47 -137 150 -137s150 41 150 137
c0 89 -47 131 -150 131s-150 -42 -150 -131zM280 391c97 0 134 49 134 130c0 89 -45 127 -134 127s-134 -38 -134 -127c0 -81 37 -130 134 -130z" />
    <glyph glyph-name="nine" unicode="9" horiz-adv-x="560" 
d="M272 257c-148 0 -222 80 -222 235c0 165 83 232 230 232c146 0 229 -66 229 -231c0 -90 -24 -148 -66 -214l-177 -279h-89l177 273c-25 -11 -53 -16 -82 -16zM280 326c107 0 147 55 147 166c0 100 -38 156 -147 156c-110 0 -147 -56 -147 -156c0 -111 40 -166 147 -166z
" />
    <glyph glyph-name="colon" unicode=":" horiz-adv-x="206" 
d="M61 370v102h84v-102h-84zM61 0v102h84v-102h-84z" />
    <glyph glyph-name="semicolon" unicode=";" horiz-adv-x="206" 
d="M61 370v102h84v-102h-84zM61 102h84v-75l-44 -155h-40v230z" />
    <glyph glyph-name="less" unicode="&#x3c;" horiz-adv-x="560" 
d="M56 257v66l448 181v-66l-365 -148l365 -148v-66z" />
    <glyph glyph-name="equal" unicode="=" horiz-adv-x="560" 
d="M56 361v66h448v-66h-448zM56 153v66h448v-66h-448z" />
    <glyph glyph-name="greater" unicode="&#x3e;" horiz-adv-x="560" 
d="M56 438v66l448 -181v-66l-448 -181v66l365 148z" />
    <glyph glyph-name="question" unicode="?" horiz-adv-x="387" 
d="M125 214v45c0 128 153 157 153 268c0 77 -40 109 -131 109h-121v76h124c145 0 208 -70 208 -171c0 -164 -164 -178 -164 -290v-37h-69zM119 0v102h84v-102h-84z" />
    <glyph glyph-name="at" unicode="@" horiz-adv-x="848" 
d="M233 285c0 165 59 236 180 236c53 0 90 -19 113 -63v55h73v-319c0 -59 17 -84 52 -84c49 0 73 27 73 215c0 267 -87 326 -299 326s-301 -60 -301 -359c0 -291 89 -368 340 -368h53v-67h-53c-324 0 -417 132 -417 435c0 340 122 432 378 432c257 0 373 -90 373 -399
c0 -220 -63 -276 -147 -276c-63 0 -103 23 -119 84c-19 -56 -61 -84 -126 -84c-121 0 -173 69 -173 236zM310 285c0 -134 29 -175 106 -175s106 41 106 175c0 139 -34 169 -106 169c-77 0 -106 -37 -106 -169z" />
    <glyph glyph-name="A" unicode="A" horiz-adv-x="564" 
d="M14 0l223 712h90l223 -712h-85l-52 172h-271l-52 -172h-76zM277 615l-113 -373h227z" />
    <glyph glyph-name="B" unicode="B" horiz-adv-x="577" 
d="M81 0v712h237c131 0 191 -67 191 -188c0 -80 -33 -128 -77 -149c69 -29 100 -92 100 -176c0 -133 -65 -199 -195 -199h-256zM333 330h-169v-264h167c76 0 118 36 118 133s-43 131 -116 131zM315 636h-151v-235h154c85 0 109 40 109 120s-28 115 -112 115z" />
    <glyph glyph-name="C" unicode="C" horiz-adv-x="591" 
d="M312 -12c-200 0 -262 98 -262 373c0 264 63 363 262 363c182 0 228 -88 236 -273h-79c-8 148 -40 197 -157 197c-140 0 -177 -64 -177 -287c0 -245 37 -307 177 -307c118 0 148 56 159 205h78c-8 -195 -77 -271 -237 -271z" />
    <glyph glyph-name="D" unicode="D" horiz-adv-x="615" 
d="M81 0v712h222c199 0 262 -95 262 -351c0 -262 -62 -361 -262 -361h-222zM303 636h-139v-570h139c140 0 177 63 177 295c0 211 -37 275 -177 275z" />
    <glyph glyph-name="E" unicode="E" horiz-adv-x="510" 
d="M81 0v712h381v-76h-298v-235h274v-70h-274v-265h298v-66h-381z" />
    <glyph glyph-name="F" unicode="F" horiz-adv-x="484" 
d="M81 0v712h370v-76h-287v-235h263v-70h-263v-331h-83z" />
    <glyph glyph-name="G" unicode="G" horiz-adv-x="599" 
d="M312 296v70h240v-98c0 -191 -75 -280 -240 -280c-200 0 -262 98 -262 373c0 264 63 363 262 363c169 0 222 -80 235 -236h-78c-11 114 -50 160 -157 160c-140 0 -177 -64 -177 -287c0 -245 37 -307 177 -307c120 0 161 61 161 214v28h-161z" />
    <glyph glyph-name="H" unicode="H" horiz-adv-x="637" 
d="M81 0v712h83v-311h309v311h83v-712h-83v330h-309v-330h-83z" />
    <glyph glyph-name="I" unicode="I" horiz-adv-x="245" 
d="M81 0v712h83v-712h-83z" />
    <glyph glyph-name="J" unicode="J" horiz-adv-x="385" 
d="M18 66h80c91 0 128 37 128 124v522h83v-520c0 -131 -63 -192 -211 -192h-80v66z" />
    <glyph glyph-name="K" unicode="K" horiz-adv-x="567" 
d="M81 0v712h83v-387l303 387h93l-244 -311l242 -401h-92l-204 338l-98 -125v-213h-83z" />
    <glyph glyph-name="L" unicode="L" horiz-adv-x="479" 
d="M81 0v712h83v-646h298v-66h-381z" />
    <glyph glyph-name="M" unicode="M" horiz-adv-x="778" 
d="M148 0h-80l28 712h88l209 -576l205 576h83l30 -712h-80l-21 529l-193 -529h-54l-195 536z" />
    <glyph glyph-name="N" unicode="N" horiz-adv-x="637" 
d="M81 0v712h73l319 -542v542h83v-712h-73l-319 542v-542h-83z" />
    <glyph glyph-name="O" unicode="O" horiz-adv-x="623" 
d="M312 -12c-200 0 -262 98 -262 373c0 264 63 363 262 363c197 0 261 -99 261 -363c0 -275 -61 -373 -261 -373zM312 54c140 0 176 62 176 307c0 223 -36 287 -176 287s-177 -64 -177 -287c0 -245 37 -307 177 -307z" />
    <glyph glyph-name="P" unicode="P" horiz-adv-x="542" 
d="M81 0v712h224c143 0 203 -58 203 -218c0 -163 -75 -211 -205 -211h-139v-283h-83zM305 636h-141v-284h139c89 0 122 27 122 142c0 112 -33 142 -120 142z" />
    <glyph glyph-name="Q" unicode="Q" horiz-adv-x="623" 
d="M312 -12c-200 0 -262 98 -262 373c0 264 63 363 262 363c197 0 261 -98 261 -363c0 -113 -9 -192 -40 -253l98 -108h-91l-46 50c-43 -39 -99 -62 -182 -62zM323 239v102l150 -167c11 47 15 106 15 187c0 223 -37 287 -176 287c-140 0 -177 -64 -177 -287
c0 -245 37 -307 177 -307c64 0 106 13 133 50z" />
    <glyph glyph-name="R" unicode="R" horiz-adv-x="558" 
d="M81 0v712h224c143 0 203 -58 203 -218c0 -135 -52 -187 -145 -200l165 -294h-93l-156 283h-115v-283h-83zM305 636h-141v-284h139c89 0 122 27 122 142c0 112 -33 142 -120 142z" />
    <glyph glyph-name="S" unicode="S" horiz-adv-x="544" 
d="M41 216h78c8 -116 48 -162 152 -162c97 0 146 38 146 126c0 83 -49 111 -129 132l-56 15c-105 28 -181 70 -181 203c0 119 71 194 219 194c168 0 217 -87 225 -236h-79c-8 120 -49 160 -146 160c-88 0 -137 -38 -137 -118c0 -86 52 -110 128 -130l56 -15
c117 -31 183 -81 183 -205c0 -117 -74 -192 -229 -192c-159 0 -223 73 -230 228z" />
    <glyph glyph-name="T" unicode="T" horiz-adv-x="525" 
d="M19 636v76h487v-76h-202v-636h-82v636h-203z" />
    <glyph glyph-name="U" unicode="U" horiz-adv-x="625" 
d="M76 235v477h83v-477c0 -133 43 -181 154 -181c109 0 153 48 153 181v477h83v-477c0 -167 -65 -247 -236 -247c-172 0 -237 80 -237 247z" />
    <glyph glyph-name="V" unicode="V" horiz-adv-x="564" 
d="M237 0l-223 712h85l187 -616l188 616h76l-223 -712h-90z" />
    <glyph glyph-name="W" unicode="W" horiz-adv-x="888" 
d="M200 0l-184 712h86l149 -602l167 602h63l165 -604l150 604h76l-184 -712h-88l-152 554l-157 -554h-91z" />
    <glyph glyph-name="X" unicode="X" horiz-adv-x="519" 
d="M9 0l201 363l-193 349h91l156 -284l157 284h81l-193 -349l201 -363h-91l-165 299l-164 -299h-81z" />
    <glyph glyph-name="Y" unicode="Y" horiz-adv-x="544" 
d="M230 0v296l-218 416h93l172 -334l173 334h82l-219 -416v-296h-83z" />
    <glyph glyph-name="Z" unicode="Z" horiz-adv-x="489" 
d="M30 636v76h431v-50l-331 -596h323v-66h-415v50l325 586h-333z" />
    <glyph glyph-name="bracketleft" unicode="[" horiz-adv-x="309" 
d="M80 -148v920h193v-66h-121v-788h121v-66h-193z" />
    <glyph glyph-name="backslash" unicode="\" horiz-adv-x="452" 
d="M104 712l312 -712h-68l-312 712h68z" />
    <glyph glyph-name="bracketright" unicode="]" horiz-adv-x="309" 
d="M229 772v-920h-193v66h121v788h-121v66h193z" />
    <glyph glyph-name="asciicircum" unicode="^" horiz-adv-x="560" 
d="M123 469l126 243h60l127 -243h-67l-90 173l-90 -173h-66z" />
    <glyph glyph-name="underscore" unicode="_" horiz-adv-x="578" 
d="M36 -12h506v-72h-506v72z" />
    <glyph glyph-name="grave" unicode="`" horiz-adv-x="468" 
d="M211 568l-103 156h88l80 -156h-65z" />
    <glyph glyph-name="a" unicode="a" horiz-adv-x="454" 
d="M38 125c0 106 73 144 197 165l75 12v32c0 72 -17 108 -90 108c-71 0 -96 -24 -97 -97h-73c3 108 46 167 177 167c121 0 163 -69 163 -168v-344h-77v62c-19 -39 -60 -70 -127 -70c-95 0 -148 50 -148 133zM310 166v73l-69 -10c-97 -13 -123 -45 -123 -95
c0 -51 28 -77 85 -77c67 0 107 41 107 109z" />
    <glyph glyph-name="b" unicode="b" horiz-adv-x="509" 
d="M68 0v712h80v-272c24 48 66 72 125 72c140 0 191 -79 191 -260s-59 -260 -195 -260c-60 0 -101 22 -124 71v-63h-77zM266 58c87 0 119 48 119 194c0 143 -32 187 -119 187c-82 0 -118 -39 -118 -187c0 -146 33 -194 118 -194z" />
    <glyph glyph-name="c" unicode="c" horiz-adv-x="461" 
d="M241 -8c-142 0 -197 73 -197 261c0 181 57 259 197 259c123 0 172 -67 182 -195h-76c-11 94 -38 122 -109 122c-83 0 -114 -43 -114 -186c0 -153 32 -195 114 -195c71 0 102 33 109 133h76c-9 -144 -70 -199 -182 -199z" />
    <glyph glyph-name="d" unicode="d" horiz-adv-x="508" 
d="M229 -8c-134 0 -185 79 -185 260s62 260 195 260c57 0 98 -21 121 -64v264h80v-712h-77v72c-25 -53 -69 -80 -134 -80zM243 58c85 0 117 48 117 194c0 148 -35 187 -117 187c-87 0 -119 -44 -119 -187c0 -146 32 -194 119 -194z" />
    <glyph glyph-name="e" unicode="e" horiz-adv-x="468" 
d="M243 -8c-141 0 -199 74 -199 261c0 182 61 259 198 259s183 -83 183 -248v-19h-301c1 -154 36 -187 119 -187c69 0 98 24 107 91h72c-10 -100 -60 -157 -179 -157zM239 439c-69 0 -105 -29 -113 -132h222c-6 103 -36 132 -109 132z" />
    <glyph glyph-name="f" unicode="f" horiz-adv-x="312" 
d="M23 434v70h64v50c0 101 52 158 157 158h63v-73h-60c-57 0 -80 -26 -80 -83v-52h128v-70h-128v-434h-80v434h-64z" />
    <glyph glyph-name="g" unicode="g" horiz-adv-x="508" 
d="M64 -50h76c4 -72 28 -100 108 -100c76 0 112 26 112 111v105c-25 -49 -69 -74 -131 -74c-134 0 -185 79 -185 260s62 260 195 260c60 0 100 -21 124 -70v62h77v-543c0 -119 -60 -177 -189 -177c-140 0 -179 64 -187 166zM242 58c80 0 118 42 118 194
c0 143 -33 187 -118 187s-118 -44 -118 -187c0 -146 33 -194 118 -194z" />
    <glyph glyph-name="h" unicode="h" horiz-adv-x="496" 
d="M68 0v712h80v-266c21 44 65 66 125 66c108 0 159 -66 159 -174v-338h-80v317c0 89 -28 122 -99 122c-69 0 -105 -27 -105 -121v-318h-80z" />
    <glyph glyph-name="i" unicode="i" horiz-adv-x="216" 
d="M68 618v94h80v-94h-80zM68 0v504h80v-504h-80z" />
    <glyph glyph-name="j" unicode="j" horiz-adv-x="216" 
d="M68 618v94h80v-94h-80zM68 -77v581h80v-576c0 -88 -37 -136 -128 -136h-42v66h27c44 0 63 17 63 65z" />
    <glyph glyph-name="k" unicode="k" horiz-adv-x="454" 
d="M68 0v712h80v-458l206 250h90l-177 -212l177 -292h-89l-140 233l-67 -78v-155h-80z" />
    <glyph glyph-name="l" unicode="l" horiz-adv-x="216" 
d="M68 0v712h80v-712h-80z" />
    <glyph glyph-name="m" unicode="m" horiz-adv-x="780" 
d="M68 0v504h77v-65c20 49 63 73 128 73c72 0 119 -30 142 -83c23 56 74 83 142 83c108 0 159 -66 159 -174v-338h-80v317c0 89 -28 122 -99 122c-69 0 -105 -27 -105 -122v-317h-80v317c0 89 -28 122 -99 122c-69 0 -105 -27 -105 -122v-317h-80z" />
    <glyph glyph-name="n" unicode="n" horiz-adv-x="496" 
d="M68 0v504h77v-65c20 49 64 73 128 73c108 0 159 -66 159 -174v-338h-80v317c0 89 -28 122 -99 122c-69 0 -105 -27 -105 -122v-317h-80z" />
    <glyph glyph-name="o" unicode="o" horiz-adv-x="484" 
d="M242 -8c-144 0 -198 79 -198 260s55 260 198 260c144 0 198 -79 198 -260s-57 -260 -198 -260zM242 58c85 0 118 48 118 194c0 143 -33 187 -118 187s-118 -44 -118 -187c0 -146 33 -194 118 -194z" />
    <glyph glyph-name="p" unicode="p" horiz-adv-x="509" 
d="M68 -208v712h77v-71c24 53 67 79 128 79c140 0 191 -79 191 -260s-59 -260 -195 -260c-57 0 -98 22 -121 65v-265h-80zM266 58c87 0 119 48 119 194c0 143 -32 187 -119 187c-82 0 -118 -39 -118 -187c0 -146 33 -194 118 -194z" />
    <glyph glyph-name="q" unicode="q" horiz-adv-x="508" 
d="M360 -208v274c-25 -49 -69 -74 -131 -74c-134 0 -185 79 -185 260s62 260 195 260c60 0 100 -21 124 -70v62h77v-712h-80zM243 58c85 0 117 48 117 194c0 148 -35 187 -117 187c-87 0 -119 -44 -119 -187c0 -146 32 -194 119 -194z" />
    <glyph glyph-name="r" unicode="r" horiz-adv-x="310" 
d="M64 0v354c0 96 51 150 151 150h79v-70h-76c-49 0 -74 -25 -74 -74v-360h-80z" />
    <glyph glyph-name="s" unicode="s" horiz-adv-x="429" 
d="M40 143h73c7 -67 37 -87 102 -87c72 0 95 23 95 74c0 52 -17 65 -92 83l-54 13c-73 18 -119 57 -119 144c0 96 61 142 169 142s167 -41 168 -158h-73c-4 71 -32 88 -95 88c-71 0 -92 -24 -92 -72c0 -43 18 -64 82 -80l53 -13c95 -23 131 -67 131 -147
c0 -83 -49 -138 -176 -138c-128 0 -164 63 -172 151z" />
    <glyph glyph-name="t" unicode="t" horiz-adv-x="334" 
d="M22 434v70h67v120h77v-120h148v-70h-148v-276c0 -68 22 -92 85 -92h63v-66h-77c-101 0 -151 52 -151 155v279h-64z" />
    <glyph glyph-name="u" unicode="u" horiz-adv-x="496" 
d="M64 166v338h80v-318c0 -89 27 -128 99 -128s105 36 105 128v318h80v-504h-77v64c-20 -49 -64 -72 -128 -72c-108 0 -159 66 -159 174z" />
    <glyph glyph-name="v" unicode="v" horiz-adv-x="440" 
d="M183 0l-170 504h84l128 -394l128 394h74l-170 -504h-74z" />
    <glyph glyph-name="w" unicode="w" horiz-adv-x="694" 
d="M165 0l-152 504h85l109 -385l116 385h59l115 -385l109 385h75l-152 -504h-73l-109 360l-109 -360h-73z" />
    <glyph glyph-name="x" unicode="x" horiz-adv-x="436" 
d="M18 0l154 250l-154 254h89l114 -190l116 190h81l-155 -249l156 -255h-89l-116 191l-116 -191h-80z" />
    <glyph glyph-name="y" unicode="y" horiz-adv-x="440" 
d="M39 -142h39c43 0 71 20 91 80l18 57l-172 509h84l128 -394l128 394h74l-193 -571c-31 -92 -61 -141 -157 -141h-40v66z" />
    <glyph glyph-name="z" unicode="z" horiz-adv-x="401" 
d="M34 434v70h334v-46l-234 -392h229v-66h-325v46l231 388h-235z" />
    <glyph glyph-name="braceleft" unicode="{" horiz-adv-x="369" 
d="M128 422v203c0 108 60 147 149 147h56v-66h-56c-58 0 -78 -21 -78 -86v-182c0 -81 -20 -113 -74 -125v-2c54 -12 74 -44 74 -125v-182c0 -65 20 -86 78 -86h56v-66h-56c-89 0 -149 39 -149 147v203c0 63 -24 80 -68 80h-32v60h32c44 0 68 17 68 80z" />
    <glyph glyph-name="bar" unicode="|" horiz-adv-x="306" 
d="M119 -208v992h67v-992h-67z" />
    <glyph glyph-name="braceright" unicode="}" horiz-adv-x="369" 
d="M241 625v-203c0 -63 24 -80 68 -80h32v-60h-32c-44 0 -68 -17 -68 -80v-203c0 -108 -60 -147 -149 -147h-56v66h56c58 0 78 21 78 86v182c0 81 20 113 74 125v2c-54 12 -74 44 -74 125v182c0 65 -20 86 -78 86h-56v66h56c89 0 149 -39 149 -147z" />
    <glyph glyph-name="asciitilde" unicode="~" horiz-adv-x="560" 
d="M56 257v66c18 19 52 56 116 56c99 0 134 -80 216 -80c64 0 98 37 116 56v-66c-18 -19 -52 -56 -116 -56c-92 0 -125 80 -216 80c-64 0 -98 -37 -116 -56z" />
    <glyph glyph-name="uni00A0" unicode="&#xa0;" horiz-adv-x="214" 
 />
    <glyph glyph-name="exclamdown" unicode="&#xa1;" horiz-adv-x="226" 
d="M71 610v102h84v-102h-84zM73 0l18 498h44l18 -498h-80z" />
    <glyph glyph-name="cent" unicode="&#xa2;" horiz-adv-x="560" 
d="M246 0v98c-123 13 -174 88 -174 259c0 164 53 241 174 256v99h80v-98c105 -13 153 -78 161 -193h-77c-11 93 -46 122 -126 122c-93 0 -132 -43 -132 -186c0 -153 40 -195 132 -195c81 0 119 33 126 133h76c-8 -128 -63 -186 -160 -197v-98h-80z" />
    <glyph glyph-name="sterling" unicode="&#xa3;" horiz-adv-x="560" 
d="M37 299v70h62v151c0 129 67 204 211 204c157 0 204 -91 212 -236h-78c-8 120 -44 160 -134 160c-88 0 -128 -37 -128 -128v-151h194v-70h-194v-233h338v-66h-421v299h-62z" />
    <glyph glyph-name="currency" unicode="&#xa4;" horiz-adv-x="560" 
d="M143 189l-38 38l49 49c-17 25 -26 54 -26 88c0 33 9 63 26 88l-49 49l38 38l49 -49c24 16 55 26 88 26s63 -10 88 -26l49 49l38 -38l-49 -49c16 -25 26 -55 26 -88c0 -35 -10 -64 -26 -88l49 -49l-38 -38l-49 49c-25 -17 -55 -26 -88 -26c-34 0 -63 9 -88 26zM280 268
c53 0 94 40 94 96s-41 95 -94 95c-55 0 -94 -39 -94 -95s39 -96 94 -96z" />
    <glyph glyph-name="yen" unicode="&#xa5;" horiz-adv-x="560" 
d="M59 283v69h145l-182 360h92l170 -339l172 339h82l-185 -360h148v-69h-181v-74h181v-69h-181v-140h-83v140h-178v69h178v74h-178z" />
    <glyph glyph-name="brokenbar" unicode="&#xa6;" horiz-adv-x="306" 
d="M119 404v380h68v-380h-68zM119 187h68v-395h-68v395z" />
    <glyph glyph-name="section" unicode="&#xa7;" horiz-adv-x="551" 
d="M328 322l-116 40c-84 29 -148 72 -148 179c0 113 77 183 214 183c168 0 217 -87 225 -236h-79c-8 120 -49 160 -146 160c-88 0 -131 -38 -131 -102c0 -74 48 -94 114 -117l108 -38c92 -32 143 -67 143 -143c0 -43 -23 -77 -35 -93l-61 27c8 13 16 31 16 52
c0 44 -36 65 -104 88zM47 20h79c9 -120 50 -167 146 -167c89 0 131 42 131 106c0 74 -48 94 -112 115l-108 37c-93 32 -143 68 -143 143c0 43 23 77 35 93l61 -26c-9 -13 -16 -32 -16 -53c0 -44 35 -64 103 -87l117 -41c83 -30 146 -68 146 -176c0 -109 -77 -180 -214 -180
c-164 0 -217 87 -225 236z" />
    <glyph glyph-name="dieresis" unicode="&#xa8;" horiz-adv-x="468" 
d="M278 597v94h80v-94h-80zM110 597v94h80v-94h-80z" />
    <glyph glyph-name="copyright" unicode="&#xa9;" horiz-adv-x="700" 
d="M350 -12c-233 0 -308 101 -308 368s74 368 308 368s308 -101 308 -368s-75 -368 -308 -368zM350 32c204 0 261 91 261 324s-57 320 -261 320s-261 -87 -261 -320s57 -324 261 -324zM354 152c-125 0 -155 58 -155 212c0 166 35 208 155 208c117 0 131 -54 136 -163h-69
c-2 74 -14 95 -67 95c-64 0 -82 -19 -82 -140c0 -133 18 -151 82 -151c53 0 65 21 67 97h69c-5 -102 -27 -158 -136 -158z" />
    <glyph glyph-name="ordfeminine" unicode="&#xaa;" horiz-adv-x="384" 
d="M60 245v51h259v-51h-259zM59 445c0 73 48 100 140 116l50 9v18c0 48 -10 74 -57 74s-62 -18 -62 -67h-63c3 77 35 125 130 125s121 -58 121 -126v-238h-65v43c-13 -28 -42 -51 -90 -51c-67 0 -104 36 -104 97zM126 451c0 -33 18 -50 54 -50c39 0 69 22 69 67v52l-42 -7
c-63 -11 -81 -29 -81 -62z" />
    <glyph glyph-name="guillemotleft" unicode="&#xab;" horiz-adv-x="396" 
d="M282 64l-95 192l95 192h67l-84 -192l84 -192h-67zM132 64l-95 192l95 192h66l-84 -192l84 -192h-66z" />
    <glyph glyph-name="logicalnot" unicode="&#xac;" horiz-adv-x="560" 
d="M56 257v66h448v-263h-66v197h-382z" />
    <glyph glyph-name="uni00AD" unicode="&#xad;" horiz-adv-x="414" 
d="M61 258v67h292v-67h-292z" />
    <glyph glyph-name="registered" unicode="&#xae;" horiz-adv-x="430" 
d="M215 364c-141 0 -186 60 -186 221c0 160 45 220 186 220c142 0 187 -60 187 -220c0 -161 -45 -221 -187 -221zM215 395c121 0 155 50 155 190c0 139 -34 187 -155 187c-120 0 -154 -48 -154 -187c0 -140 34 -190 154 -190zM131 465v247h91c52 0 81 -25 81 -81
c0 -41 -13 -65 -41 -74l50 -92h-58l-41 79h-31v-79h-51zM217 667h-35v-76h37c23 0 33 12 33 38c0 25 -11 38 -35 38z" />
    <glyph glyph-name="macron" unicode="&#xaf;" horiz-adv-x="468" 
d="M103 617v58h262v-58h-262z" />
    <glyph glyph-name="degree" unicode="&#xb0;" horiz-adv-x="340" 
d="M171 487c-68 0 -119 53 -119 117s51 116 119 116c67 0 117 -52 117 -116s-50 -117 -117 -117zM171 540c35 0 61 27 61 64s-26 64 -61 64c-37 0 -63 -27 -63 -64s26 -64 63 -64z" />
    <glyph glyph-name="plusminus" unicode="&#xb1;" horiz-adv-x="560" 
d="M56 373v66h191v181h66v-181h191v-66h-191v-181h-66v181h-191zM56 0v66h448v-66h-448z" />
    <glyph glyph-name="twosuperior" unicode="&#xb2;" 
d="M31 516v39c0 59 37 89 85 114l44 23c36 19 60 35 60 76c0 39 -21 53 -61 53c-45 0 -62 -16 -69 -71h-65c5 84 43 130 134 130s131 -39 131 -110c0 -63 -44 -96 -84 -117l-47 -25c-43 -23 -56 -33 -59 -60h185v-52h-254z" />
    <glyph glyph-name="threesuperior" unicode="&#xb3;" 
d="M20 632h67c3 -56 24 -72 72 -72c43 0 65 17 65 52s-15 53 -63 53h-36v54h36c47 0 59 22 59 53c0 33 -21 49 -63 49c-40 0 -64 -15 -67 -70h-66c4 83 44 129 133 129c93 0 132 -38 132 -105c0 -32 -16 -62 -45 -78c32 -13 50 -38 50 -85c0 -65 -46 -104 -135 -104
c-92 0 -132 35 -139 124z" />
    <glyph glyph-name="acute" unicode="&#xb4;" horiz-adv-x="468" 
d="M192 568l80 156h88l-103 -156h-65z" />
    <glyph glyph-name="mu" unicode="&#xb5;" horiz-adv-x="516" 
d="M68 -208v712h80v-319c0 -91 28 -127 100 -127c69 0 104 33 104 128v318h80v-373c0 -48 11 -65 55 -65h15v-66h-30c-63 0 -94 23 -109 66c-23 -51 -67 -74 -122 -74c-47 0 -78 13 -98 37v-237h-75z" />
    <glyph glyph-name="paragraph" unicode="&#xb6;" horiz-adv-x="523" 
d="M275 228h-24c-161 0 -216 62 -216 252c0 169 67 232 212 232h111v-712h-83v228zM400 0v712h42v-712h-42z" />
    <glyph glyph-name="periodcentered" unicode="&#xb7;" horiz-adv-x="207" 
d="M61 240v102h85v-102h-85z" />
    <glyph glyph-name="cedilla" unicode="&#xb8;" horiz-adv-x="468" 
d="M195 -78l22 78h31v-37c76 -4 108 -36 108 -88s-37 -91 -120 -91h-70v46h57c44 0 67 9 67 48c0 35 -23 44 -67 44h-28z" />
    <glyph glyph-name="onesuperior" unicode="&#xb9;" 
d="M153 516v289l-91 -30v59l109 38h52v-356h-70z" />
    <glyph glyph-name="ordmasculine" unicode="&#xba;" horiz-adv-x="404" 
d="M68 245v51h270v-51h-270zM202 348c-107 0 -144 56 -144 187s37 185 144 185s144 -56 144 -185c0 -132 -37 -187 -144 -187zM202 403c56 0 76 31 76 132c0 99 -20 124 -76 124s-76 -25 -76 -124c0 -101 20 -132 76 -132z" />
    <glyph glyph-name="guillemotright" unicode="&#xbb;" horiz-adv-x="396" 
d="M198 64l84 192l-84 192h66l95 -192l-95 -192h-66zM47 64l84 192l-84 192h67l94 -192l-94 -192h-67z" />
    <glyph glyph-name="onequarter" unicode="&#xbc;" horiz-adv-x="692" 
d="M130 356v289l-91 -30v59l109 38h52v-356h-70zM78 0l456 712h60l-456 -712h-60zM363 77v44l151 235h87v-225h50v-54h-50v-77h-67v77h-171zM429 131h105v163z" />
    <glyph glyph-name="onehalf" unicode="&#xbd;" horiz-adv-x="692" 
d="M132 356v289l-91 -30v59l109 38h52v-356h-70zM60 0l456 712h60l-456 -712h-60zM386 0v39c0 59 37 89 85 114l44 23c36 19 60 35 60 76c0 39 -21 53 -61 53c-45 0 -62 -16 -69 -71h-65c5 84 43 130 134 130s131 -39 131 -110c0 -63 -44 -96 -84 -117l-47 -25
c-43 -23 -56 -33 -59 -60h185v-52h-254z" />
    <glyph glyph-name="threequarters" unicode="&#xbe;" horiz-adv-x="692" 
d="M21 472h67c3 -56 24 -72 72 -72c43 0 65 17 65 52s-15 53 -63 53h-36v54h36c47 0 59 22 59 53c0 33 -21 49 -63 49c-40 0 -64 -15 -67 -70h-66c4 83 44 129 133 129c93 0 132 -38 132 -105c0 -32 -16 -62 -45 -78c32 -13 50 -38 50 -85c0 -65 -46 -104 -135 -104
c-92 0 -132 35 -139 124zM110 0l456 712h60l-456 -712h-60zM387 77v44l151 235h87v-225h50v-54h-50v-77h-67v77h-171zM453 131h105v163z" />
    <glyph glyph-name="questiondown" unicode="&#xbf;" horiz-adv-x="386" 
d="M184 610v102h83v-102h-83zM29 171c0 164 163 178 163 290v37h69v-45c0 -128 -153 -157 -153 -268c0 -77 41 -119 132 -119h120v-66h-123c-147 0 -208 70 -208 171z" />
    <glyph glyph-name="Agrave" unicode="&#xc0;" horiz-adv-x="564" 
d="M14 0l223 712h90l223 -712h-85l-52 172h-271l-52 -172h-76zM277 615l-113 -373h227zM259 776l-103 156h88l80 -156h-65z" />
    <glyph glyph-name="Aacute" unicode="&#xc1;" horiz-adv-x="564" 
d="M14 0l223 712h90l223 -712h-85l-52 172h-271l-52 -172h-76zM277 615l-113 -373h227zM240 776l80 156h88l-103 -156h-65z" />
    <glyph glyph-name="Acircumflex" unicode="&#xc2;" horiz-adv-x="564" 
d="M14 0l223 712h90l223 -712h-85l-52 172h-271l-52 -172h-76zM277 615l-113 -373h227zM142 776l104 156h71l105 -156h-70l-70 110l-70 -110h-70z" />
    <glyph glyph-name="Atilde" unicode="&#xc3;" horiz-adv-x="564" 
d="M14 0l223 712h90l223 -712h-85l-52 172h-271l-52 -172h-76zM277 615l-113 -373h227zM155 792v51c0 51 23 70 63 70c51 0 81 -64 112 -64c11 0 17 8 17 25v39h56v-51c0 -51 -24 -70 -63 -70c-50 0 -84 63 -113 63c-11 0 -17 -8 -17 -25v-38h-55z" />
    <glyph glyph-name="Adieresis" unicode="&#xc4;" horiz-adv-x="564" 
d="M14 0l223 712h90l223 -712h-85l-52 172h-271l-52 -172h-76zM277 615l-113 -373h227zM326 805v94h80v-94h-80zM158 805v94h80v-94h-80z" />
    <glyph glyph-name="Aring" unicode="&#xc5;" horiz-adv-x="564" 
d="M14 0l223 712h90l223 -712h-85l-52 172h-271l-52 -172h-76zM277 615l-113 -373h227zM282 769c-64 0 -93 37 -93 94c0 59 29 94 93 94s93 -35 93 -94c0 -57 -29 -94 -93 -94zM282 807c43 0 51 24 51 56s-8 56 -51 56s-51 -24 -51 -56s8 -56 51 -56z" />
    <glyph glyph-name="AE" unicode="&#xc6;" horiz-adv-x="814" 
d="M7 0l266 712h492v-79h-295v-237h274v-69h-274v-255h295v-72h-378v172h-237l-63 -172h-80zM320 633l-144 -391h211v391h-67z" />
    <glyph glyph-name="Ccedilla" unicode="&#xc7;" horiz-adv-x="591" 
d="M273 -78l18 66c-183 7 -241 107 -241 373c0 264 63 363 262 363c182 0 228 -88 236 -273h-79c-8 148 -40 197 -157 197c-140 0 -177 -64 -177 -287c0 -245 37 -307 177 -307c118 0 148 56 159 205h78c-8 -190 -73 -266 -223 -271v-25c76 -4 108 -36 108 -88
s-37 -91 -120 -91h-70v46h57c44 0 67 9 67 48c0 35 -23 44 -67 44h-28z" />
    <glyph glyph-name="Egrave" unicode="&#xc8;" horiz-adv-x="510" 
d="M81 0v712h381v-76h-298v-235h274v-70h-274v-265h298v-66h-381zM249 776l-103 156h88l80 -156h-65z" />
    <glyph glyph-name="Eacute" unicode="&#xc9;" horiz-adv-x="510" 
d="M81 0v712h381v-76h-298v-235h274v-70h-274v-265h298v-66h-381zM230 776l80 156h88l-103 -156h-65z" />
    <glyph glyph-name="Ecircumflex" unicode="&#xca;" horiz-adv-x="510" 
d="M81 0v712h381v-76h-298v-235h274v-70h-274v-265h298v-66h-381zM132 776l104 156h71l105 -156h-70l-70 110l-70 -110h-70z" />
    <glyph glyph-name="Edieresis" unicode="&#xcb;" horiz-adv-x="510" 
d="M81 0v712h381v-76h-298v-235h274v-70h-274v-265h298v-66h-381zM316 805v94h80v-94h-80zM148 805v94h80v-94h-80z" />
    <glyph glyph-name="Igrave" unicode="&#xcc;" horiz-adv-x="245" 
d="M81 0v712h83v-712h-83zM100 776l-103 156h88l80 -156h-65z" />
    <glyph glyph-name="Iacute" unicode="&#xcd;" horiz-adv-x="245" 
d="M81 0v712h83v-712h-83zM81 776l80 156h88l-103 -156h-65z" />
    <glyph glyph-name="Icircumflex" unicode="&#xce;" horiz-adv-x="245" 
d="M81 0v712h83v-712h-83zM-17 776l104 156h71l105 -156h-70l-70 110l-70 -110h-70z" />
    <glyph glyph-name="Idieresis" unicode="&#xcf;" horiz-adv-x="245" 
d="M81 0v712h83v-712h-83zM167 805v94h80v-94h-80zM-1 805v94h80v-94h-80z" />
    <glyph glyph-name="Eth" unicode="&#xd0;" horiz-adv-x="635" 
d="M33 334v63h60v315h230c199 0 262 -95 262 -351c0 -262 -62 -361 -262 -361h-230v334h-60zM323 636h-147v-239h147v-63h-147v-268h147c140 0 177 63 177 295c0 211 -37 275 -177 275z" />
    <glyph glyph-name="Ntilde" unicode="&#xd1;" horiz-adv-x="637" 
d="M81 0v712h73l319 -542v542h83v-712h-73l-319 542v-542h-83zM191 792v51c0 51 23 70 63 70c51 0 81 -64 112 -64c11 0 17 8 17 25v39h56v-51c0 -51 -24 -70 -63 -70c-50 0 -84 63 -113 63c-11 0 -17 -8 -17 -25v-38h-55z" />
    <glyph glyph-name="Ograve" unicode="&#xd2;" horiz-adv-x="623" 
d="M312 -12c-200 0 -262 98 -262 373c0 264 63 363 262 363c197 0 261 -99 261 -363c0 -275 -61 -373 -261 -373zM312 54c140 0 176 62 176 307c0 223 -36 287 -176 287s-177 -64 -177 -287c0 -245 37 -307 177 -307zM289 776l-103 156h88l80 -156h-65z" />
    <glyph glyph-name="Oacute" unicode="&#xd3;" horiz-adv-x="623" 
d="M312 -12c-200 0 -262 98 -262 373c0 264 63 363 262 363c197 0 261 -99 261 -363c0 -275 -61 -373 -261 -373zM312 54c140 0 176 62 176 307c0 223 -36 287 -176 287s-177 -64 -177 -287c0 -245 37 -307 177 -307zM270 776l80 156h88l-103 -156h-65z" />
    <glyph glyph-name="Ocircumflex" unicode="&#xd4;" horiz-adv-x="623" 
d="M312 -12c-200 0 -262 98 -262 373c0 264 63 363 262 363c197 0 261 -99 261 -363c0 -275 -61 -373 -261 -373zM312 54c140 0 176 62 176 307c0 223 -36 287 -176 287s-177 -64 -177 -287c0 -245 37 -307 177 -307zM172 776l104 156h71l105 -156h-70l-70 110l-70 -110h-70
z" />
    <glyph glyph-name="Otilde" unicode="&#xd5;" horiz-adv-x="623" 
d="M312 -12c-200 0 -262 98 -262 373c0 264 63 363 262 363c197 0 261 -99 261 -363c0 -275 -61 -373 -261 -373zM312 54c140 0 176 62 176 307c0 223 -36 287 -176 287s-177 -64 -177 -287c0 -245 37 -307 177 -307zM185 792v51c0 51 23 70 63 70c51 0 81 -64 112 -64
c11 0 17 8 17 25v39h56v-51c0 -51 -24 -70 -63 -70c-50 0 -84 63 -113 63c-11 0 -17 -8 -17 -25v-38h-55z" />
    <glyph glyph-name="Odieresis" unicode="&#xd6;" horiz-adv-x="623" 
d="M312 -12c-200 0 -262 98 -262 373c0 264 63 363 262 363c197 0 261 -99 261 -363c0 -275 -61 -373 -261 -373zM312 54c140 0 176 62 176 307c0 223 -36 287 -176 287s-177 -64 -177 -287c0 -245 37 -307 177 -307zM356 805v94h80v-94h-80zM188 805v94h80v-94h-80z" />
    <glyph glyph-name="multiply" unicode="&#xd7;" horiz-adv-x="560" 
d="M142 105l-47 47l138 138l-136 136l47 47l136 -136l138 138l47 -47l-138 -138l136 -136l-47 -47l-136 136z" />
    <glyph glyph-name="Oslash" unicode="&#xd8;" horiz-adv-x="637" 
d="M44 0v85l40 46c-20 56 -27 131 -27 230c0 264 63 363 262 363c103 0 168 -27 208 -88l67 76v-85l-40 -46c19 -56 26 -128 26 -220c0 -275 -61 -373 -261 -373c-103 0 -168 25 -209 88zM319 54c140 0 176 62 176 307c0 57 -3 105 -9 143l-320 -365c25 -64 70 -85 153 -85z
M142 361c0 -64 1 -114 8 -155l319 363c-25 59 -70 79 -150 79c-140 0 -177 -64 -177 -287z" />
    <glyph glyph-name="Ugrave" unicode="&#xd9;" horiz-adv-x="625" 
d="M76 235v477h83v-477c0 -133 43 -181 154 -181c109 0 153 48 153 181v477h83v-477c0 -167 -65 -247 -236 -247c-172 0 -237 80 -237 247zM290 776l-103 156h88l80 -156h-65z" />
    <glyph glyph-name="Uacute" unicode="&#xda;" horiz-adv-x="625" 
d="M76 235v477h83v-477c0 -133 43 -181 154 -181c109 0 153 48 153 181v477h83v-477c0 -167 -65 -247 -236 -247c-172 0 -237 80 -237 247zM271 776l80 156h88l-103 -156h-65z" />
    <glyph glyph-name="Ucircumflex" unicode="&#xdb;" horiz-adv-x="625" 
d="M76 235v477h83v-477c0 -133 43 -181 154 -181c109 0 153 48 153 181v477h83v-477c0 -167 -65 -247 -236 -247c-172 0 -237 80 -237 247zM173 776l104 156h71l105 -156h-70l-70 110l-70 -110h-70z" />
    <glyph glyph-name="Udieresis" unicode="&#xdc;" horiz-adv-x="625" 
d="M76 235v477h83v-477c0 -133 43 -181 154 -181c109 0 153 48 153 181v477h83v-477c0 -167 -65 -247 -236 -247c-172 0 -237 80 -237 247zM357 805v94h80v-94h-80zM189 805v94h80v-94h-80z" />
    <glyph glyph-name="Yacute" unicode="&#xdd;" horiz-adv-x="544" 
d="M230 0v296l-218 416h93l172 -334l173 334h82l-219 -416v-296h-83zM230 776l80 156h88l-103 -156h-65z" />
    <glyph glyph-name="Thorn" unicode="&#xde;" horiz-adv-x="539" 
d="M81 0v712h83v-142h142c136 0 198 -57 198 -212c0 -156 -78 -204 -199 -204h-141v-154h-83zM306 494h-142v-270h141c81 0 117 25 117 134c0 108 -36 136 -116 136z" />
    <glyph glyph-name="germandbls" unicode="&#xdf;" horiz-adv-x="541" 
d="M249 0v66h42c87 0 128 28 128 137s-35 138 -126 138h-36v69h25c81 0 105 35 105 122c0 89 -29 119 -112 119c-85 0 -108 -30 -108 -105v-546h-80v434h-64v70h64v42c0 109 45 178 188 178s192 -64 192 -192c0 -73 -24 -122 -72 -147c80 -27 104 -92 104 -181
c0 -137 -63 -204 -208 -204h-42z" />
    <glyph glyph-name="agrave" unicode="&#xe0;" horiz-adv-x="454" 
d="M38 125c0 106 73 144 197 165l75 12v32c0 72 -17 108 -90 108c-71 0 -96 -24 -97 -97h-73c3 108 46 167 177 167c121 0 163 -69 163 -168v-344h-77v62c-19 -39 -60 -70 -127 -70c-95 0 -148 50 -148 133zM310 166v73l-69 -10c-97 -13 -123 -45 -123 -95
c0 -51 28 -77 85 -77c67 0 107 41 107 109zM197 568l-103 156h88l80 -156h-65z" />
    <glyph glyph-name="aacute" unicode="&#xe1;" horiz-adv-x="454" 
d="M38 125c0 106 73 144 197 165l75 12v32c0 72 -17 108 -90 108c-71 0 -96 -24 -97 -97h-73c3 108 46 167 177 167c121 0 163 -69 163 -168v-344h-77v62c-19 -39 -60 -70 -127 -70c-95 0 -148 50 -148 133zM310 166v73l-69 -10c-97 -13 -123 -45 -123 -95
c0 -51 28 -77 85 -77c67 0 107 41 107 109zM178 568l80 156h88l-103 -156h-65z" />
    <glyph glyph-name="acircumflex" unicode="&#xe2;" horiz-adv-x="454" 
d="M38 125c0 106 73 144 197 165l75 12v32c0 72 -17 108 -90 108c-71 0 -96 -24 -97 -97h-73c3 108 46 167 177 167c121 0 163 -69 163 -168v-344h-77v62c-19 -39 -60 -70 -127 -70c-95 0 -148 50 -148 133zM310 166v73l-69 -10c-97 -13 -123 -45 -123 -95
c0 -51 28 -77 85 -77c67 0 107 41 107 109zM80 568l104 156h71l105 -156h-70l-70 110l-70 -110h-70z" />
    <glyph glyph-name="atilde" unicode="&#xe3;" horiz-adv-x="454" 
d="M38 125c0 106 73 144 197 165l75 12v32c0 72 -17 108 -90 108c-71 0 -96 -24 -97 -97h-73c3 108 46 167 177 167c121 0 163 -69 163 -168v-344h-77v62c-19 -39 -60 -70 -127 -70c-95 0 -148 50 -148 133zM310 166v73l-69 -10c-97 -13 -123 -45 -123 -95
c0 -51 28 -77 85 -77c67 0 107 41 107 109zM93 584v51c0 51 23 70 63 70c51 0 81 -64 112 -64c11 0 17 8 17 25v39h56v-51c0 -51 -24 -70 -63 -70c-50 0 -84 63 -113 63c-11 0 -17 -8 -17 -25v-38h-55z" />
    <glyph glyph-name="adieresis" unicode="&#xe4;" horiz-adv-x="454" 
d="M38 125c0 106 73 144 197 165l75 12v32c0 72 -17 108 -90 108c-71 0 -96 -24 -97 -97h-73c3 108 46 167 177 167c121 0 163 -69 163 -168v-344h-77v62c-19 -39 -60 -70 -127 -70c-95 0 -148 50 -148 133zM310 166v73l-69 -10c-97 -13 -123 -45 -123 -95
c0 -51 28 -77 85 -77c67 0 107 41 107 109zM264 597v94h80v-94h-80zM96 597v94h80v-94h-80z" />
    <glyph glyph-name="aring" unicode="&#xe5;" horiz-adv-x="454" 
d="M38 125c0 106 73 144 197 165l75 12v32c0 72 -17 108 -90 108c-71 0 -96 -24 -97 -97h-73c3 108 46 167 177 167c121 0 163 -69 163 -168v-344h-77v62c-19 -39 -60 -70 -127 -70c-95 0 -148 50 -148 133zM310 166v73l-69 -10c-97 -13 -123 -45 -123 -95
c0 -51 28 -77 85 -77c67 0 107 41 107 109zM220 561c-64 0 -93 37 -93 94c0 59 29 94 93 94s93 -35 93 -94c0 -57 -29 -94 -93 -94zM220 599c43 0 51 24 51 56s-8 56 -51 56s-51 -24 -51 -56s8 -56 51 -56z" />
    <glyph glyph-name="ae" unicode="&#xe6;" horiz-adv-x="734" 
d="M38 123c0 104 74 143 197 164l75 12v35c0 72 -17 108 -90 108c-71 0 -95 -24 -97 -97h-73c3 108 46 167 177 167c68 0 109 -22 132 -59c32 40 81 59 149 59c137 0 183 -83 183 -248v-19h-301c1 -154 36 -187 119 -187c69 0 98 24 107 91h72c-10 -100 -60 -157 -179 -157
c-86 0 -141 27 -171 90c-18 -53 -73 -90 -153 -90c-93 0 -147 48 -147 131zM201 57c67 0 109 39 109 109v70l-69 -11c-97 -15 -123 -44 -123 -94s29 -74 83 -74zM505 439c-69 0 -105 -29 -113 -132h222c-6 103 -36 132 -109 132z" />
    <glyph glyph-name="ccedilla" unicode="&#xe7;" horiz-adv-x="461" 
d="M199 -78l20 71c-126 7 -175 82 -175 260c0 181 57 259 197 259c123 0 172 -67 182 -195h-76c-11 94 -38 122 -109 122c-83 0 -114 -43 -114 -186c0 -153 32 -195 114 -195c71 0 102 33 109 133h76c-9 -140 -66 -195 -171 -199v-29c76 -4 108 -36 108 -88
s-37 -91 -120 -91h-70v46h57c44 0 67 9 67 48c0 35 -23 44 -67 44h-28z" />
    <glyph glyph-name="egrave" unicode="&#xe8;" horiz-adv-x="468" 
d="M243 -8c-141 0 -199 74 -199 261c0 182 61 259 198 259s183 -83 183 -248v-19h-301c1 -154 36 -187 119 -187c69 0 98 24 107 91h72c-10 -100 -60 -157 -179 -157zM239 439c-69 0 -105 -29 -113 -132h222c-6 103 -36 132 -109 132zM216 568l-103 156h88l80 -156h-65z" />
    <glyph glyph-name="eacute" unicode="&#xe9;" horiz-adv-x="468" 
d="M243 -8c-141 0 -199 74 -199 261c0 182 61 259 198 259s183 -83 183 -248v-19h-301c1 -154 36 -187 119 -187c69 0 98 24 107 91h72c-10 -100 -60 -157 -179 -157zM239 439c-69 0 -105 -29 -113 -132h222c-6 103 -36 132 -109 132zM197 568l80 156h88l-103 -156h-65z" />
    <glyph glyph-name="ecircumflex" unicode="&#xea;" horiz-adv-x="468" 
d="M243 -8c-141 0 -199 74 -199 261c0 182 61 259 198 259s183 -83 183 -248v-19h-301c1 -154 36 -187 119 -187c69 0 98 24 107 91h72c-10 -100 -60 -157 -179 -157zM239 439c-69 0 -105 -29 -113 -132h222c-6 103 -36 132 -109 132zM99 568l104 156h71l105 -156h-70
l-70 110l-70 -110h-70z" />
    <glyph glyph-name="edieresis" unicode="&#xeb;" horiz-adv-x="468" 
d="M243 -8c-141 0 -199 74 -199 261c0 182 61 259 198 259s183 -83 183 -248v-19h-301c1 -154 36 -187 119 -187c69 0 98 24 107 91h72c-10 -100 -60 -157 -179 -157zM239 439c-69 0 -105 -29 -113 -132h222c-6 103 -36 132 -109 132zM283 597v94h80v-94h-80zM115 597v94h80
v-94h-80z" />
    <glyph glyph-name="igrave" unicode="&#xec;" horiz-adv-x="216" 
d="M68 0v504h80v-504h-80zM85 568l-103 156h88l80 -156h-65z" />
    <glyph glyph-name="iacute" unicode="&#xed;" horiz-adv-x="216" 
d="M68 0v504h80v-504h-80zM66 568l80 156h88l-103 -156h-65z" />
    <glyph glyph-name="icircumflex" unicode="&#xee;" horiz-adv-x="216" 
d="M68 0v504h80v-504h-80zM-32 568l104 156h71l105 -156h-70l-70 110l-70 -110h-70z" />
    <glyph glyph-name="idieresis" unicode="&#xef;" horiz-adv-x="216" 
d="M68 0v504h80v-504h-80zM152 597v94h80v-94h-80zM-16 597v94h80v-94h-80z" />
    <glyph glyph-name="eth" unicode="&#xf0;" horiz-adv-x="486" 
d="M116 520v52l122 50l-58 90h84l40 -62l151 62v-53l-124 -51c68 -104 110 -220 110 -361c0 -177 -63 -255 -196 -255c-140 0 -200 69 -200 250c0 180 59 254 195 254c33 0 61 -6 85 -25c-15 33 -35 69 -60 110zM125 236c0 -144 33 -178 118 -178s118 41 118 178
c0 143 -33 187 -118 187s-118 -40 -118 -187z" />
    <glyph glyph-name="ntilde" unicode="&#xf1;" horiz-adv-x="496" 
d="M68 0v504h77v-65c20 49 64 73 128 73c108 0 159 -66 159 -174v-338h-80v317c0 89 -28 122 -99 122c-69 0 -105 -27 -105 -122v-317h-80zM123 584v51c0 51 23 70 63 70c51 0 81 -64 112 -64c11 0 17 8 17 25v39h56v-51c0 -51 -24 -70 -63 -70c-50 0 -84 63 -113 63
c-11 0 -17 -8 -17 -25v-38h-55z" />
    <glyph glyph-name="ograve" unicode="&#xf2;" horiz-adv-x="484" 
d="M242 -8c-144 0 -198 79 -198 260s55 260 198 260c144 0 198 -79 198 -260s-57 -260 -198 -260zM242 58c85 0 118 48 118 194c0 143 -33 187 -118 187s-118 -44 -118 -187c0 -146 33 -194 118 -194zM219 568l-103 156h88l80 -156h-65z" />
    <glyph glyph-name="oacute" unicode="&#xf3;" horiz-adv-x="484" 
d="M242 -8c-144 0 -198 79 -198 260s55 260 198 260c144 0 198 -79 198 -260s-57 -260 -198 -260zM242 58c85 0 118 48 118 194c0 143 -33 187 -118 187s-118 -44 -118 -187c0 -146 33 -194 118 -194zM200 568l80 156h88l-103 -156h-65z" />
    <glyph glyph-name="ocircumflex" unicode="&#xf4;" horiz-adv-x="484" 
d="M242 -8c-144 0 -198 79 -198 260s55 260 198 260c144 0 198 -79 198 -260s-57 -260 -198 -260zM242 58c85 0 118 48 118 194c0 143 -33 187 -118 187s-118 -44 -118 -187c0 -146 33 -194 118 -194zM102 568l104 156h71l105 -156h-70l-70 110l-70 -110h-70z" />
    <glyph glyph-name="otilde" unicode="&#xf5;" horiz-adv-x="484" 
d="M242 -8c-144 0 -198 79 -198 260s55 260 198 260c144 0 198 -79 198 -260s-57 -260 -198 -260zM242 58c85 0 118 48 118 194c0 143 -33 187 -118 187s-118 -44 -118 -187c0 -146 33 -194 118 -194zM115 584v51c0 51 23 70 63 70c51 0 81 -64 112 -64c11 0 17 8 17 25v39
h56v-51c0 -51 -24 -70 -63 -70c-50 0 -84 63 -113 63c-11 0 -17 -8 -17 -25v-38h-55z" />
    <glyph glyph-name="odieresis" unicode="&#xf6;" horiz-adv-x="484" 
d="M242 -8c-144 0 -198 79 -198 260s55 260 198 260c144 0 198 -79 198 -260s-57 -260 -198 -260zM242 58c85 0 118 48 118 194c0 143 -33 187 -118 187s-118 -44 -118 -187c0 -146 33 -194 118 -194zM286 597v94h80v-94h-80zM118 597v94h80v-94h-80z" />
    <glyph glyph-name="divide" unicode="&#xf7;" horiz-adv-x="560" 
d="M247 473v107h66v-107h-66zM56 257v66h448v-66h-448zM247 0v107h66v-107h-66z" />
    <glyph glyph-name="oslash" unicode="&#xf8;" horiz-adv-x="494" 
d="M39 0v71l30 31c-13 37 -20 87 -20 150c0 181 55 260 198 260c72 0 123 -22 154 -65l55 57v-71l-31 -32c13 -40 20 -90 20 -149c0 -181 -55 -260 -198 -260c-72 0 -124 21 -155 64zM247 58c85 0 118 48 118 194c0 32 -2 58 -5 81l-212 -219c19 -41 50 -56 99 -56zM129 252
c0 -32 1 -60 5 -83l210 219c-19 37 -49 51 -97 51c-85 0 -118 -44 -118 -187z" />
    <glyph glyph-name="ugrave" unicode="&#xf9;" horiz-adv-x="496" 
d="M64 166v338h80v-318c0 -89 27 -128 99 -128s105 36 105 128v318h80v-504h-77v64c-20 -49 -64 -72 -128 -72c-108 0 -159 66 -159 174zM228 568l-103 156h88l80 -156h-65z" />
    <glyph glyph-name="uacute" unicode="&#xfa;" horiz-adv-x="496" 
d="M64 166v338h80v-318c0 -89 27 -128 99 -128s105 36 105 128v318h80v-504h-77v64c-20 -49 -64 -72 -128 -72c-108 0 -159 66 -159 174zM209 568l80 156h88l-103 -156h-65z" />
    <glyph glyph-name="ucircumflex" unicode="&#xfb;" horiz-adv-x="496" 
d="M64 166v338h80v-318c0 -89 27 -128 99 -128s105 36 105 128v318h80v-504h-77v64c-20 -49 -64 -72 -128 -72c-108 0 -159 66 -159 174zM111 568l104 156h71l105 -156h-70l-70 110l-70 -110h-70z" />
    <glyph glyph-name="udieresis" unicode="&#xfc;" horiz-adv-x="496" 
d="M64 166v338h80v-318c0 -89 27 -128 99 -128s105 36 105 128v318h80v-504h-77v64c-20 -49 -64 -72 -128 -72c-108 0 -159 66 -159 174zM295 597v94h80v-94h-80zM127 597v94h80v-94h-80z" />
    <glyph glyph-name="yacute" unicode="&#xfd;" horiz-adv-x="440" 
d="M39 -142h39c43 0 71 20 91 80l18 57l-172 509h84l128 -394l128 394h74l-193 -571c-31 -92 -61 -141 -157 -141h-40v66zM180 568l80 156h88l-103 -156h-65z" />
    <glyph glyph-name="thorn" unicode="&#xfe;" horiz-adv-x="509" 
d="M68 -208v920h80v-272c24 48 66 72 125 72c140 0 191 -79 191 -260s-59 -260 -195 -260c-57 0 -98 22 -121 65v-265h-80zM266 58c87 0 119 48 119 194c0 143 -32 187 -119 187c-82 0 -118 -39 -118 -187c0 -146 33 -194 118 -194z" />
    <glyph glyph-name="ydieresis" unicode="&#xff;" horiz-adv-x="440" 
d="M39 -142h39c43 0 71 20 91 80l18 57l-172 509h84l128 -394l128 394h74l-193 -571c-31 -92 -61 -141 -157 -141h-40v66zM266 597v94h80v-94h-80zM98 597v94h80v-94h-80z" />
    <glyph glyph-name="Amacron" unicode="&#x100;" horiz-adv-x="564" 
d="M14 0l223 712h90l223 -712h-85l-52 172h-271l-52 -172h-76zM277 615l-113 -373h227zM151 825v58h262v-58h-262z" />
    <glyph glyph-name="amacron" unicode="&#x101;" horiz-adv-x="454" 
d="M38 125c0 106 73 144 197 165l75 12v32c0 72 -17 108 -90 108c-71 0 -96 -24 -97 -97h-73c3 108 46 167 177 167c121 0 163 -69 163 -168v-344h-77v62c-19 -39 -60 -70 -127 -70c-95 0 -148 50 -148 133zM310 166v73l-69 -10c-97 -13 -123 -45 -123 -95
c0 -51 28 -77 85 -77c67 0 107 41 107 109zM89 617v58h262v-58h-262z" />
    <glyph glyph-name="Abreve" unicode="&#x102;" horiz-adv-x="564" 
d="M14 0l223 712h90l223 -712h-85l-52 172h-271l-52 -172h-76zM277 615l-113 -373h227zM282 769c-76 0 -125 46 -128 145h49c3 -67 28 -93 79 -93s76 26 79 93h48c-3 -100 -51 -145 -127 -145z" />
    <glyph glyph-name="abreve" unicode="&#x103;" horiz-adv-x="454" 
d="M38 125c0 106 73 144 197 165l75 12v32c0 72 -17 108 -90 108c-71 0 -96 -24 -97 -97h-73c3 108 46 167 177 167c121 0 163 -69 163 -168v-344h-77v62c-19 -39 -60 -70 -127 -70c-95 0 -148 50 -148 133zM310 166v73l-69 -10c-97 -13 -123 -45 -123 -95
c0 -51 28 -77 85 -77c67 0 107 41 107 109zM220 561c-76 0 -125 46 -128 145h49c3 -67 28 -93 79 -93s76 26 79 93h48c-3 -100 -51 -145 -127 -145z" />
    <glyph glyph-name="Aogonek" unicode="&#x104;" horiz-adv-x="564" 
d="M14 0l223 712h90l223 -712c-41 -44 -72 -76 -72 -113c0 -35 18 -52 55 -52h38v-51h-40c-73 0 -109 29 -109 86c0 49 45 86 89 130h-46l-53 172h-270l-52 -172h-76zM277 615l-114 -375h229z" />
    <glyph glyph-name="aogonek" unicode="&#x105;" horiz-adv-x="454" 
d="M38 125c0 106 73 144 197 165l75 12v32c0 72 -17 108 -90 108c-71 0 -96 -24 -97 -97h-73c3 108 46 167 177 167c121 0 163 -69 163 -168v-344c-43 -44 -73 -76 -73 -113c0 -35 19 -52 56 -52h38v-51h-40c-73 0 -110 29 -110 86c0 49 45 85 90 130h-38v62
c-19 -39 -60 -70 -127 -70c-95 0 -148 50 -148 133zM203 57c64 0 107 39 107 113v69l-69 -10c-97 -13 -123 -45 -123 -95c0 -51 28 -77 85 -77z" />
    <glyph glyph-name="Cacute" unicode="&#x106;" horiz-adv-x="591" 
d="M312 -12c-200 0 -262 98 -262 373c0 264 63 363 262 363c182 0 228 -88 236 -273h-79c-8 148 -40 197 -157 197c-140 0 -177 -64 -177 -287c0 -245 37 -307 177 -307c118 0 148 56 159 205h78c-8 -195 -77 -271 -237 -271zM270 776l80 156h88l-103 -156h-65z" />
    <glyph glyph-name="cacute" unicode="&#x107;" horiz-adv-x="461" 
d="M241 -8c-142 0 -197 73 -197 261c0 181 57 259 197 259c123 0 172 -67 182 -195h-76c-11 94 -38 122 -109 122c-83 0 -114 -43 -114 -186c0 -153 32 -195 114 -195c71 0 102 33 109 133h76c-9 -144 -70 -199 -182 -199zM196 568l80 156h88l-103 -156h-65z" />
    <glyph glyph-name="Ccircumflex" unicode="&#x108;" horiz-adv-x="591" 
d="M312 -12c-200 0 -262 98 -262 373c0 264 63 363 262 363c182 0 228 -88 236 -273h-79c-8 148 -40 197 -157 197c-140 0 -177 -64 -177 -287c0 -245 37 -307 177 -307c118 0 148 56 159 205h78c-8 -195 -77 -271 -237 -271zM172 776l104 156h71l105 -156h-70l-70 110
l-70 -110h-70z" />
    <glyph glyph-name="ccircumflex" unicode="&#x109;" horiz-adv-x="461" 
d="M241 -8c-142 0 -197 73 -197 261c0 181 57 259 197 259c123 0 172 -67 182 -195h-76c-11 94 -38 122 -109 122c-83 0 -114 -43 -114 -186c0 -153 32 -195 114 -195c71 0 102 33 109 133h76c-9 -144 -70 -199 -182 -199zM98 568l104 156h71l105 -156h-70l-70 110l-70 -110
h-70z" />
    <glyph glyph-name="Cdotaccent" unicode="&#x10a;" horiz-adv-x="591" 
d="M312 -12c-200 0 -262 98 -262 373c0 264 63 363 262 363c182 0 228 -88 236 -273h-79c-8 148 -40 197 -157 197c-140 0 -177 -64 -177 -287c0 -245 37 -307 177 -307c118 0 148 56 159 205h78c-8 -195 -77 -271 -237 -271zM272 805v94h80v-94h-80z" />
    <glyph glyph-name="cdotaccent" unicode="&#x10b;" horiz-adv-x="461" 
d="M241 -8c-142 0 -197 73 -197 261c0 181 57 259 197 259c123 0 172 -67 182 -195h-76c-11 94 -38 122 -109 122c-83 0 -114 -43 -114 -186c0 -153 32 -195 114 -195c71 0 102 33 109 133h76c-9 -144 -70 -199 -182 -199zM198 597v94h80v-94h-80z" />
    <glyph glyph-name="Ccaron" unicode="&#x10c;" horiz-adv-x="591" 
d="M312 -12c-200 0 -262 98 -262 373c0 264 63 363 262 363c182 0 228 -88 236 -273h-79c-8 148 -40 197 -157 197c-140 0 -177 -64 -177 -287c0 -245 37 -307 177 -307c118 0 148 56 159 205h78c-8 -195 -77 -271 -237 -271zM276 776l-104 156h70l70 -111l70 111h70
l-105 -156h-71z" />
    <glyph glyph-name="ccaron" unicode="&#x10d;" horiz-adv-x="461" 
d="M241 -8c-142 0 -197 73 -197 261c0 181 57 259 197 259c123 0 172 -67 182 -195h-76c-11 94 -38 122 -109 122c-83 0 -114 -43 -114 -186c0 -153 32 -195 114 -195c71 0 102 33 109 133h76c-9 -144 -70 -199 -182 -199zM202 568l-104 156h70l70 -111l70 111h70l-105 -156
h-71z" />
    <glyph glyph-name="Dcaron" unicode="&#x10e;" horiz-adv-x="615" 
d="M81 0v712h222c199 0 262 -95 262 -351c0 -262 -62 -361 -262 -361h-222zM303 636h-139v-570h139c140 0 177 63 177 295c0 211 -37 275 -177 275zM261 776l-104 156h70l70 -111l70 111h70l-105 -156h-71z" />
    <glyph glyph-name="dcaron" unicode="&#x10f;" horiz-adv-x="512" 
d="M229 -8c-134 0 -185 79 -185 260s62 260 195 260c57 0 98 -21 121 -64v264h80v-712h-77v72c-25 -53 -69 -80 -134 -80zM243 58c85 0 117 48 117 194c0 148 -35 187 -117 187c-87 0 -119 -44 -119 -187c0 -146 32 -194 119 -194zM480 560v152h80v-52l-45 -100h-35z" />
    <glyph glyph-name="Dcroat" unicode="&#x110;" horiz-adv-x="635" 
d="M33 334v63h60v315h230c199 0 262 -95 262 -351c0 -262 -62 -361 -262 -361h-230v334h-60zM323 636h-147v-239h147v-63h-147v-268h147c140 0 177 63 177 295c0 211 -37 275 -177 275z" />
    <glyph glyph-name="dcroat" unicode="&#x111;" horiz-adv-x="508" 
d="M239 581v58h121v73h80v-73h61v-58h-61v-581h-77v72c-25 -53 -69 -80 -134 -80c-134 0 -185 79 -185 260s62 260 195 260c57 0 98 -21 121 -64v133h-121zM242 58c85 0 118 48 118 194c0 143 -33 187 -118 187s-118 -44 -118 -187c0 -146 33 -194 118 -194z" />
    <glyph glyph-name="Emacron" unicode="&#x112;" horiz-adv-x="510" 
d="M81 0v712h381v-76h-298v-235h274v-70h-274v-265h298v-66h-381zM141 825v58h262v-58h-262z" />
    <glyph glyph-name="emacron" unicode="&#x113;" horiz-adv-x="468" 
d="M243 -8c-141 0 -199 74 -199 261c0 182 61 259 198 259s183 -83 183 -248v-19h-301c1 -154 36 -187 119 -187c69 0 98 24 107 91h72c-10 -100 -60 -157 -179 -157zM239 439c-69 0 -105 -29 -113 -132h222c-6 103 -36 132 -109 132zM108 617v58h262v-58h-262z" />
    <glyph glyph-name="Ebreve" unicode="&#x114;" horiz-adv-x="510" 
d="M81 0v712h381v-76h-298v-235h274v-70h-274v-265h298v-66h-381zM272 769c-76 0 -125 46 -128 145h49c3 -67 28 -93 79 -93s76 26 79 93h48c-3 -100 -51 -145 -127 -145z" />
    <glyph glyph-name="ebreve" unicode="&#x115;" horiz-adv-x="468" 
d="M243 -8c-141 0 -199 74 -199 261c0 182 61 259 198 259s183 -83 183 -248v-19h-301c1 -154 36 -187 119 -187c69 0 98 24 107 91h72c-10 -100 -60 -157 -179 -157zM239 439c-69 0 -105 -29 -113 -132h222c-6 103 -36 132 -109 132zM239 561c-76 0 -125 46 -128 145h49
c3 -67 28 -93 79 -93s76 26 79 93h48c-3 -100 -51 -145 -127 -145z" />
    <glyph glyph-name="Edotaccent" unicode="&#x116;" horiz-adv-x="510" 
d="M81 0v712h381v-76h-298v-235h274v-70h-274v-265h298v-66h-381zM232 805v94h80v-94h-80z" />
    <glyph glyph-name="edotaccent" unicode="&#x117;" horiz-adv-x="468" 
d="M243 -8c-141 0 -199 74 -199 261c0 182 61 259 198 259s183 -83 183 -248v-19h-301c1 -154 36 -187 119 -187c69 0 98 24 107 91h72c-10 -100 -60 -157 -179 -157zM239 439c-69 0 -105 -29 -113 -132h222c-6 103 -36 132 -109 132zM199 597v94h80v-94h-80z" />
    <glyph glyph-name="Eogonek" unicode="&#x118;" horiz-adv-x="510" 
d="M81 0v712h381v-76h-298v-235h274v-70h-274v-265h298v-66h-21c-41 -44 -72 -76 -72 -113c0 -35 18 -52 55 -52h38v-51h-40c-73 0 -109 29 -109 86c0 49 45 86 89 130h-321z" />
    <glyph glyph-name="eogonek" unicode="&#x119;" horiz-adv-x="468" 
d="M243 -8c-141 0 -199 74 -199 261c0 182 61 259 198 259s183 -83 183 -248v-19h-301c1 -154 36 -187 119 -187c69 0 98 24 107 91h72c-5 -52 -19 -84 -51 -119l-26 -30c-39 -45 -72 -76 -72 -113c0 -34 20 -52 56 -52h37v-51h-40c-73 0 -109 30 -109 86c0 48 41 87 86 128
c-16 -4 -39 -6 -60 -6zM239 439c-69 0 -105 -29 -113 -132h222c-6 103 -36 132 -109 132z" />
    <glyph glyph-name="Ecaron" unicode="&#x11a;" horiz-adv-x="510" 
d="M81 0v712h381v-76h-298v-235h274v-70h-274v-265h298v-66h-381zM236 776l-104 156h70l70 -111l70 111h70l-105 -156h-71z" />
    <glyph glyph-name="ecaron" unicode="&#x11b;" horiz-adv-x="468" 
d="M243 -8c-141 0 -199 74 -199 261c0 182 61 259 198 259s183 -83 183 -248v-19h-301c1 -154 36 -187 119 -187c69 0 98 24 107 91h72c-10 -100 -60 -157 -179 -157zM239 439c-69 0 -105 -29 -113 -132h222c-6 103 -36 132 -109 132zM203 568l-104 156h70l70 -111l70 111
h70l-105 -156h-71z" />
    <glyph glyph-name="Gcircumflex" unicode="&#x11c;" horiz-adv-x="599" 
d="M312 296v70h240v-98c0 -191 -75 -280 -240 -280c-200 0 -262 98 -262 373c0 264 63 363 262 363c169 0 222 -80 235 -236h-78c-11 114 -50 160 -157 160c-140 0 -177 -64 -177 -287c0 -245 37 -307 177 -307c120 0 161 61 161 214v28h-161zM172 776l104 156h71l105 -156
h-70l-70 110l-70 -110h-70z" />
    <glyph glyph-name="gcircumflex" unicode="&#x11d;" horiz-adv-x="508" 
d="M64 -50h76c4 -72 28 -100 108 -100c76 0 112 26 112 111v105c-25 -49 -69 -74 -131 -74c-134 0 -185 79 -185 260s62 260 195 260c60 0 100 -21 124 -70v62h77v-543c0 -119 -60 -177 -189 -177c-140 0 -179 64 -187 166zM242 58c80 0 118 42 118 194
c0 143 -33 187 -118 187s-118 -44 -118 -187c0 -146 33 -194 118 -194zM102 568l104 156h71l105 -156h-70l-70 110l-70 -110h-70z" />
    <glyph glyph-name="Gbreve" unicode="&#x11e;" horiz-adv-x="599" 
d="M312 296v70h240v-98c0 -191 -75 -280 -240 -280c-200 0 -262 98 -262 373c0 264 63 363 262 363c169 0 222 -80 235 -236h-78c-11 114 -50 160 -157 160c-140 0 -177 -64 -177 -287c0 -245 37 -307 177 -307c120 0 161 61 161 214v28h-161zM312 769
c-76 0 -125 46 -128 145h49c3 -67 28 -93 79 -93s76 26 79 93h48c-3 -100 -51 -145 -127 -145z" />
    <glyph glyph-name="gbreve" unicode="&#x11f;" horiz-adv-x="508" 
d="M64 -50h76c4 -72 28 -100 108 -100c76 0 112 26 112 111v105c-25 -49 -69 -74 -131 -74c-134 0 -185 79 -185 260s62 260 195 260c60 0 100 -21 124 -70v62h77v-543c0 -119 -60 -177 -189 -177c-140 0 -179 64 -187 166zM242 58c80 0 118 42 118 194
c0 143 -33 187 -118 187s-118 -44 -118 -187c0 -146 33 -194 118 -194zM242 561c-76 0 -125 46 -128 145h49c3 -67 28 -93 79 -93s76 26 79 93h48c-3 -100 -51 -145 -127 -145z" />
    <glyph glyph-name="Gdotaccent" unicode="&#x120;" horiz-adv-x="599" 
d="M312 296v70h240v-98c0 -191 -75 -280 -240 -280c-200 0 -262 98 -262 373c0 264 63 363 262 363c169 0 222 -80 235 -236h-78c-11 114 -50 160 -157 160c-140 0 -177 -64 -177 -287c0 -245 37 -307 177 -307c120 0 161 61 161 214v28h-161zM272 805v94h80v-94h-80z" />
    <glyph glyph-name="gdotaccent" unicode="&#x121;" horiz-adv-x="508" 
d="M64 -50h76c4 -72 28 -100 108 -100c76 0 112 26 112 111v105c-25 -49 -69 -74 -131 -74c-134 0 -185 79 -185 260s62 260 195 260c60 0 100 -21 124 -70v62h77v-543c0 -119 -60 -177 -189 -177c-140 0 -179 64 -187 166zM242 58c80 0 118 42 118 194
c0 143 -33 187 -118 187s-118 -44 -118 -187c0 -146 33 -194 118 -194zM202 597v94h80v-94h-80z" />
    <glyph glyph-name="uni0122" unicode="&#x122;" horiz-adv-x="599" 
d="M312 296v70h240v-98c0 -191 -75 -280 -240 -280c-200 0 -262 98 -262 373c0 264 63 363 262 363c169 0 222 -80 235 -236h-78c-11 114 -50 160 -157 160c-140 0 -177 -64 -177 -287c0 -245 37 -307 177 -307c120 0 161 61 161 214v28h-161zM274 -56h80v-52l-45 -100h-35
v152z" />
    <glyph glyph-name="uni0123" unicode="&#x123;" horiz-adv-x="508" 
d="M64 -50h76c4 -72 28 -100 108 -100c76 0 112 26 112 111v105c-25 -49 -69 -74 -131 -74c-134 0 -185 79 -185 260s62 260 195 260c60 0 100 -21 124 -70v62h77v-543c0 -119 -60 -177 -189 -177c-140 0 -179 64 -187 166zM242 58c80 0 118 42 118 194
c0 143 -33 187 -118 187s-118 -44 -118 -187c0 -146 33 -194 118 -194zM207 560v52l43 100h36v-152h-79z" />
    <glyph glyph-name="Hcircumflex" unicode="&#x124;" horiz-adv-x="637" 
d="M81 0v712h83v-311h309v311h83v-712h-83v330h-309v-330h-83zM178 776l104 156h71l105 -156h-70l-70 110l-70 -110h-70z" />
    <glyph glyph-name="hcircumflex" unicode="&#x125;" horiz-adv-x="496" 
d="M68 0v712h80v-266c21 44 65 66 125 66c108 0 159 -66 159 -174v-338h-80v317c0 89 -28 122 -99 122c-69 0 -105 -27 -105 -121v-318h-80zM-32 776l104 156h71l105 -156h-70l-70 110l-70 -110h-70z" />
    <glyph glyph-name="Hbar" unicode="&#x126;" horiz-adv-x="642" 
d="M24 525v63h60v124h82v-124h309v124h83v-124h60v-63h-60v-525h-83v330h-309v-330h-82v525h-60zM166 525v-124h309v124h-309z" />
    <glyph glyph-name="hbar" unicode="&#x127;" horiz-adv-x="496" 
d="M7 581v58h61v73h80v-73h121v-58h-121v-135c21 44 65 66 125 66c108 0 159 -66 159 -174v-338h-80v317c0 89 -28 122 -99 122c-69 0 -105 -29 -105 -121v-318h-80v581h-61z" />
    <glyph glyph-name="Itilde" unicode="&#x128;" horiz-adv-x="245" 
d="M81 0v712h83v-712h-83zM-4 792v51c0 51 23 70 63 70c51 0 81 -64 112 -64c11 0 17 8 17 25v39h56v-51c0 -51 -24 -70 -63 -70c-50 0 -84 63 -113 63c-11 0 -17 -8 -17 -25v-38h-55z" />
    <glyph glyph-name="itilde" unicode="&#x129;" horiz-adv-x="216" 
d="M68 0v504h80v-504h-80zM-19 584v51c0 51 23 70 63 70c51 0 81 -64 112 -64c11 0 17 8 17 25v39h56v-51c0 -51 -24 -70 -63 -70c-50 0 -84 63 -113 63c-11 0 -17 -8 -17 -25v-38h-55z" />
    <glyph glyph-name="Imacron" unicode="&#x12a;" horiz-adv-x="245" 
d="M81 0v712h83v-712h-83zM-8 825v58h262v-58h-262z" />
    <glyph glyph-name="imacron" unicode="&#x12b;" horiz-adv-x="216" 
d="M68 0v504h80v-504h-80zM-23 617v58h262v-58h-262z" />
    <glyph glyph-name="Ibreve" unicode="&#x12c;" horiz-adv-x="245" 
d="M81 0v712h83v-712h-83zM123 769c-76 0 -125 46 -128 145h49c3 -67 28 -93 79 -93s76 26 79 93h48c-3 -100 -51 -145 -127 -145z" />
    <glyph glyph-name="ibreve" unicode="&#x12d;" horiz-adv-x="216" 
d="M68 0v504h80v-504h-80zM108 561c-76 0 -125 46 -128 145h49c3 -67 28 -93 79 -93s76 26 79 93h48c-3 -100 -51 -145 -127 -145z" />
    <glyph glyph-name="Iogonek" unicode="&#x12e;" horiz-adv-x="245" 
d="M81 0v712h83v-712c-42 -44 -73 -76 -73 -113c0 -35 18 -52 55 -52h38v-51h-40c-73 0 -109 29 -109 86c0 49 45 86 89 130h-43z" />
    <glyph glyph-name="iogonek" unicode="&#x12f;" horiz-adv-x="216" 
d="M68 0v504h80v-504c-41 -44 -72 -76 -72 -113c0 -35 18 -52 55 -52h38v-51h-40c-73 0 -109 29 -109 86c0 49 45 86 89 130h-41zM68 618v94h80v-94h-80z" />
    <glyph glyph-name="Idotaccent" unicode="&#x130;" horiz-adv-x="245" 
d="M81 0v712h83v-712h-83zM83 805v94h80v-94h-80z" />
    <glyph glyph-name="dotlessi" unicode="&#x131;" horiz-adv-x="216" 
d="M68 0v504h80v-504h-80z" />
    <glyph glyph-name="IJ" unicode="&#x132;" horiz-adv-x="615" 
d="M81 0v712h83v-712h-83zM248 66h80c91 0 128 37 128 124v522h83v-520c0 -131 -63 -192 -211 -192h-80v66z" />
    <glyph glyph-name="ij" unicode="&#x133;" horiz-adv-x="418" 
d="M68 618v94h80v-94h-80zM68 0v504h80v-504h-80zM270 618v94h80v-94h-80zM270 -77v581h80v-576c0 -88 -37 -136 -128 -136h-42v66h27c44 0 63 17 63 65z" />
    <glyph glyph-name="Jcircumflex" unicode="&#x134;" horiz-adv-x="385" 
d="M18 66h80c91 0 128 37 128 124v522h83v-520c0 -131 -63 -192 -211 -192h-80v66zM129 776l104 156h71l105 -156h-70l-70 110l-70 -110h-70z" />
    <glyph glyph-name="jcircumflex" unicode="&#x135;" horiz-adv-x="216" 
d="M68 -77v581h80v-576c0 -88 -37 -136 -128 -136h-42v66h27c44 0 63 17 63 65zM-32 568l104 156h71l105 -156h-70l-70 110l-70 -110h-70z" />
    <glyph glyph-name="uni0136" unicode="&#x136;" horiz-adv-x="567" 
d="M81 0v712h83v-387l303 387h93l-244 -311l242 -401h-92l-204 338l-98 -125v-213h-83zM270 -56h80v-52l-45 -100h-35v152z" />
    <glyph glyph-name="uni0137" unicode="&#x137;" horiz-adv-x="454" 
d="M68 0v712h80v-458l206 250h90l-177 -212l177 -292h-89l-140 233l-67 -78v-155h-80zM210 -56h80v-52l-45 -100h-35v152z" />
    <glyph glyph-name="Lacute" unicode="&#x139;" horiz-adv-x="479" 
d="M81 0v712h83v-646h298v-66h-381zM81 776l80 156h88l-103 -156h-65z" />
    <glyph glyph-name="lacute" unicode="&#x13a;" horiz-adv-x="216" 
d="M68 0v712h80v-712h-80zM66 776l80 156h88l-103 -156h-65z" />
    <glyph glyph-name="uni013B" unicode="&#x13b;" horiz-adv-x="479" 
d="M81 0v712h83v-646h298v-66h-381zM215 -56h80v-52l-45 -100h-35v152z" />
    <glyph glyph-name="uni013C" unicode="&#x13c;" horiz-adv-x="216" 
d="M68 0v712h80v-712h-80zM70 -56h80v-52l-45 -100h-35v152z" />
    <glyph glyph-name="Lcaron" unicode="&#x13d;" horiz-adv-x="480" 
d="M81 0v712h83v-646h298v-66h-381zM293 560v152h80v-52l-45 -100h-35z" />
    <glyph glyph-name="lcaron" unicode="&#x13e;" horiz-adv-x="220" 
d="M68 0v712h80v-712h-80zM188 560v152h80v-52l-45 -100h-35z" />
    <glyph glyph-name="Ldot" unicode="&#x13f;" horiz-adv-x="480" 
d="M81 0v712h83v-646h298v-66h-381zM296 327v94h80v-94h-80z" />
    <glyph glyph-name="ldot" unicode="&#x140;" horiz-adv-x="250" 
d="M68 0v712h80v-712h-80zM193 327v94h80v-94h-80z" />
    <glyph glyph-name="Lslash" unicode="&#x141;" horiz-adv-x="490" 
d="M19 198v75l73 56v383h83v-319l183 142v-75l-183 -142v-252h298v-66h-381v254z" />
    <glyph glyph-name="lslash" unicode="&#x142;" horiz-adv-x="270" 
d="M22 256v66l75 57v333h80v-271l74 57v-66l-74 -57v-375h-80v313z" />
    <glyph glyph-name="Nacute" unicode="&#x143;" horiz-adv-x="637" 
d="M81 0v712h73l319 -542v542h83v-712h-73l-319 542v-542h-83zM276 776l80 156h88l-103 -156h-65z" />
    <glyph glyph-name="nacute" unicode="&#x144;" horiz-adv-x="496" 
d="M68 0v504h77v-65c20 49 64 73 128 73c108 0 159 -66 159 -174v-338h-80v317c0 89 -28 122 -99 122c-69 0 -105 -27 -105 -122v-317h-80zM208 568l80 156h88l-103 -156h-65z" />
    <glyph glyph-name="uni0145" unicode="&#x145;" horiz-adv-x="637" 
d="M81 0v712h73l319 -542v542h83v-712h-73l-319 542v-542h-83zM280 -56h80v-52l-45 -100h-35v152z" />
    <glyph glyph-name="uni0146" unicode="&#x146;" horiz-adv-x="496" 
d="M68 0v504h77v-65c20 49 64 73 128 73c108 0 159 -66 159 -174v-338h-80v317c0 89 -28 122 -99 122c-69 0 -105 -27 -105 -122v-317h-80zM212 -56h80v-52l-45 -100h-35v152z" />
    <glyph glyph-name="Ncaron" unicode="&#x147;" horiz-adv-x="637" 
d="M81 0v712h73l319 -542v542h83v-712h-73l-319 542v-542h-83zM282 776l-104 156h70l70 -111l70 111h70l-105 -156h-71z" />
    <glyph glyph-name="ncaron" unicode="&#x148;" horiz-adv-x="496" 
d="M68 0v504h77v-65c20 49 64 73 128 73c108 0 159 -66 159 -174v-338h-80v317c0 89 -28 122 -99 122c-69 0 -105 -27 -105 -122v-317h-80zM214 568l-104 156h70l70 -111l70 111h70l-105 -156h-71z" />
    <glyph glyph-name="napostrophe" unicode="&#x149;" horiz-adv-x="496" 
d="M68 0v504h77v-65c20 49 64 73 128 73c108 0 159 -66 159 -174v-338h-80v317c0 89 -28 122 -99 122c-69 0 -105 -27 -105 -122v-317h-80zM69 560v152h80v-52l-45 -100h-35z" />
    <glyph glyph-name="Eng" unicode="&#x14a;" horiz-adv-x="637" 
d="M81 0v712h73l319 -542v542h83v-729c0 -131 -55 -191 -198 -191h-51v66h51c84 0 115 34 115 122v37l-309 525v-542h-83z" />
    <glyph glyph-name="eng" unicode="&#x14b;" horiz-adv-x="496" 
d="M262 -142h27c44 0 63 17 63 65v394c0 89 -28 122 -99 122c-72 0 -105 -33 -105 -122v-317h-80v504h77v-65c20 49 64 73 128 73c108 0 159 -66 159 -174v-410c0 -88 -37 -136 -128 -136h-42v66z" />
    <glyph glyph-name="Omacron" unicode="&#x14c;" horiz-adv-x="623" 
d="M312 -12c-200 0 -262 98 -262 373c0 264 63 363 262 363c197 0 261 -99 261 -363c0 -275 -61 -373 -261 -373zM312 54c140 0 176 62 176 307c0 223 -36 287 -176 287s-177 -64 -177 -287c0 -245 37 -307 177 -307zM181 825v58h262v-58h-262z" />
    <glyph glyph-name="omacron" unicode="&#x14d;" horiz-adv-x="484" 
d="M242 -8c-144 0 -198 79 -198 260s55 260 198 260c144 0 198 -79 198 -260s-57 -260 -198 -260zM242 58c85 0 118 48 118 194c0 143 -33 187 -118 187s-118 -44 -118 -187c0 -146 33 -194 118 -194zM111 617v58h262v-58h-262z" />
    <glyph glyph-name="Obreve" unicode="&#x14e;" horiz-adv-x="623" 
d="M312 -12c-200 0 -262 98 -262 373c0 264 63 363 262 363c197 0 261 -99 261 -363c0 -275 -61 -373 -261 -373zM312 54c140 0 176 62 176 307c0 223 -36 287 -176 287s-177 -64 -177 -287c0 -245 37 -307 177 -307zM312 769c-76 0 -125 46 -128 145h49
c3 -67 28 -93 79 -93s76 26 79 93h48c-3 -100 -51 -145 -127 -145z" />
    <glyph glyph-name="obreve" unicode="&#x14f;" horiz-adv-x="484" 
d="M242 -8c-144 0 -198 79 -198 260s55 260 198 260c144 0 198 -79 198 -260s-57 -260 -198 -260zM242 58c85 0 118 48 118 194c0 143 -33 187 -118 187s-118 -44 -118 -187c0 -146 33 -194 118 -194zM242 561c-76 0 -125 46 -128 145h49c3 -67 28 -93 79 -93s76 26 79 93
h48c-3 -100 -51 -145 -127 -145z" />
    <glyph glyph-name="Ohungarumlaut" unicode="&#x150;" horiz-adv-x="623" 
d="M312 -12c-200 0 -262 98 -262 373c0 264 63 363 262 363c197 0 261 -99 261 -363c0 -275 -61 -373 -261 -373zM312 54c140 0 176 62 176 307c0 223 -36 287 -176 287s-177 -64 -177 -287c0 -245 37 -307 177 -307zM345 776l80 156h88l-103 -156h-65zM195 776l80 156h88
l-103 -156h-65z" />
    <glyph glyph-name="ohungarumlaut" unicode="&#x151;" horiz-adv-x="484" 
d="M242 -8c-144 0 -198 79 -198 260s55 260 198 260c144 0 198 -79 198 -260s-57 -260 -198 -260zM242 58c85 0 118 48 118 194c0 143 -33 187 -118 187s-118 -44 -118 -187c0 -146 33 -194 118 -194zM275 568l80 156h88l-103 -156h-65zM125 568l80 156h88l-103 -156h-65z
" />
    <glyph glyph-name="OE" unicode="&#x152;" horiz-adv-x="888" 
d="M840 0h-528c-200 0 -262 99 -262 361c0 256 63 351 262 351h528v-76h-298v-235h274v-70h-274v-265h298v-66zM136 361c0 -232 36 -295 176 -295h148v570h-148c-140 0 -176 -64 -176 -275z" />
    <glyph glyph-name="oe" unicode="&#x153;" horiz-adv-x="784" 
d="M559 -8c-78 0 -131 25 -161 85c-29 -58 -79 -85 -156 -85c-144 0 -198 79 -198 260s55 260 198 260c78 0 129 -28 157 -86c31 59 83 86 159 86c138 0 183 -83 183 -248v-19h-301c1 -154 36 -187 119 -187c69 0 98 24 107 91h72c-10 -100 -60 -157 -179 -157zM242 58
c86 0 118 48 118 194c0 143 -32 187 -118 187s-118 -44 -118 -187c0 -146 32 -194 118 -194zM555 439c-69 0 -105 -29 -113 -132h222c-6 103 -36 132 -109 132z" />
    <glyph glyph-name="Racute" unicode="&#x154;" horiz-adv-x="558" 
d="M81 0v712h224c143 0 203 -58 203 -218c0 -135 -52 -187 -145 -200l165 -294h-93l-156 283h-115v-283h-83zM305 636h-141v-284h139c89 0 122 27 122 142c0 112 -33 142 -120 142zM228 776l80 156h88l-103 -156h-65z" />
    <glyph glyph-name="racute" unicode="&#x155;" horiz-adv-x="310" 
d="M64 0v354c0 96 51 150 151 150h79v-70h-76c-49 0 -74 -25 -74 -74v-360h-80zM145 568l80 156h88l-103 -156h-65z" />
    <glyph glyph-name="uni0156" unicode="&#x156;" horiz-adv-x="558" 
d="M81 0v712h224c143 0 203 -58 203 -218c0 -135 -52 -187 -145 -200l165 -294h-93l-156 283h-115v-283h-83zM305 636h-141v-284h139c89 0 122 27 122 142c0 112 -33 142 -120 142zM253 -56h80v-52l-45 -100h-35v152z" />
    <glyph glyph-name="uni0157" unicode="&#x157;" horiz-adv-x="310" 
d="M64 0v354c0 96 51 150 151 150h79v-70h-76c-49 0 -74 -25 -74 -74v-360h-80zM66 -56h80v-52l-45 -100h-35v152z" />
    <glyph glyph-name="Rcaron" unicode="&#x158;" horiz-adv-x="558" 
d="M81 0v712h224c143 0 203 -58 203 -218c0 -135 -52 -187 -145 -200l165 -294h-93l-156 283h-115v-283h-83zM305 636h-141v-284h139c89 0 122 27 122 142c0 112 -33 142 -120 142zM234 776l-104 156h70l70 -111l70 111h70l-105 -156h-71z" />
    <glyph glyph-name="rcaron" unicode="&#x159;" horiz-adv-x="310" 
d="M64 0v354c0 96 51 150 151 150h79v-70h-76c-49 0 -74 -25 -74 -74v-360h-80zM151 568l-104 156h70l70 -111l70 111h70l-105 -156h-71z" />
    <glyph glyph-name="Sacute" unicode="&#x15a;" horiz-adv-x="544" 
d="M41 216h78c8 -116 48 -162 152 -162c97 0 146 38 146 126c0 83 -49 111 -129 132l-56 15c-105 28 -181 70 -181 203c0 119 71 194 219 194c168 0 217 -87 225 -236h-79c-8 120 -49 160 -146 160c-88 0 -137 -38 -137 -118c0 -86 52 -110 128 -130l56 -15
c117 -31 183 -81 183 -205c0 -117 -74 -192 -229 -192c-159 0 -223 73 -230 228zM228 776l80 156h88l-103 -156h-65z" />
    <glyph glyph-name="sacute" unicode="&#x15b;" horiz-adv-x="429" 
d="M40 143h73c7 -67 37 -87 102 -87c72 0 95 23 95 74c0 52 -17 65 -92 83l-54 13c-73 18 -119 57 -119 144c0 96 61 142 169 142s167 -41 168 -158h-73c-4 71 -32 88 -95 88c-71 0 -92 -24 -92 -72c0 -43 18 -64 82 -80l53 -13c95 -23 131 -67 131 -147
c0 -83 -49 -138 -176 -138c-128 0 -164 63 -172 151zM172 568l80 156h88l-103 -156h-65z" />
    <glyph glyph-name="Scircumflex" unicode="&#x15c;" horiz-adv-x="544" 
d="M41 216h78c8 -116 48 -162 152 -162c97 0 146 38 146 126c0 83 -49 111 -129 132l-56 15c-105 28 -181 70 -181 203c0 119 71 194 219 194c168 0 217 -87 225 -236h-79c-8 120 -49 160 -146 160c-88 0 -137 -38 -137 -118c0 -86 52 -110 128 -130l56 -15
c117 -31 183 -81 183 -205c0 -117 -74 -192 -229 -192c-159 0 -223 73 -230 228zM130 776l104 156h71l105 -156h-70l-70 110l-70 -110h-70z" />
    <glyph glyph-name="scircumflex" unicode="&#x15d;" horiz-adv-x="429" 
d="M40 143h73c7 -67 37 -87 102 -87c72 0 95 23 95 74c0 52 -17 65 -92 83l-54 13c-73 18 -119 57 -119 144c0 96 61 142 169 142s167 -41 168 -158h-73c-4 71 -32 88 -95 88c-71 0 -92 -24 -92 -72c0 -43 18 -64 82 -80l53 -13c95 -23 131 -67 131 -147
c0 -83 -49 -138 -176 -138c-128 0 -164 63 -172 151zM74 568l104 156h71l105 -156h-70l-70 110l-70 -110h-70z" />
    <glyph glyph-name="uni015E" unicode="&#x15e;" horiz-adv-x="544" 
d="M233 -78l18 67c-144 6 -204 78 -210 227h78c8 -116 48 -162 152 -162c97 0 146 38 146 126c0 83 -49 111 -129 132l-56 15c-105 28 -181 70 -181 203c0 119 71 194 219 194c168 0 217 -87 225 -236h-79c-8 120 -49 160 -146 160c-88 0 -137 -38 -137 -118
c0 -86 52 -110 128 -130l56 -15c117 -31 183 -81 183 -205c0 -113 -70 -187 -214 -192v-25c76 -4 108 -36 108 -88s-37 -91 -120 -91h-70v46h57c44 0 67 9 67 48c0 35 -23 44 -67 44h-28z" />
    <glyph glyph-name="uni015F" unicode="&#x15f;" horiz-adv-x="429" 
d="M181 -78l20 70c-119 4 -153 65 -161 151h73c7 -67 37 -87 102 -87c72 0 95 23 95 74c0 52 -17 65 -92 83l-54 13c-73 18 -119 57 -119 144c0 96 61 142 169 142s167 -41 168 -158h-73c-4 71 -32 88 -95 88c-71 0 -92 -24 -92 -72c0 -43 18 -64 82 -80l53 -13
c95 -23 131 -67 131 -147c0 -78 -43 -131 -154 -137v-30c76 -4 108 -36 108 -88s-37 -91 -120 -91h-70v46h57c44 0 67 9 67 48c0 35 -23 44 -67 44h-28z" />
    <glyph glyph-name="Scaron" unicode="&#x160;" horiz-adv-x="544" 
d="M41 216h78c8 -116 48 -162 152 -162c97 0 146 38 146 126c0 83 -49 111 -129 132l-56 15c-105 28 -181 70 -181 203c0 119 71 194 219 194c168 0 217 -87 225 -236h-79c-8 120 -49 160 -146 160c-88 0 -137 -38 -137 -118c0 -86 52 -110 128 -130l56 -15
c117 -31 183 -81 183 -205c0 -117 -74 -192 -229 -192c-159 0 -223 73 -230 228zM234 776l-104 156h70l70 -111l70 111h70l-105 -156h-71z" />
    <glyph glyph-name="scaron" unicode="&#x161;" horiz-adv-x="429" 
d="M40 143h73c7 -67 37 -87 102 -87c72 0 95 23 95 74c0 52 -17 65 -92 83l-54 13c-73 18 -119 57 -119 144c0 96 61 142 169 142s167 -41 168 -158h-73c-4 71 -32 88 -95 88c-71 0 -92 -24 -92 -72c0 -43 18 -64 82 -80l53 -13c95 -23 131 -67 131 -147
c0 -83 -49 -138 -176 -138c-128 0 -164 63 -172 151zM178 568l-104 156h70l70 -111l70 111h70l-105 -156h-71z" />
    <glyph glyph-name="uni0162" unicode="&#x162;" horiz-adv-x="525" 
d="M224 -78l22 78h-24v636h-203v76h487v-76h-202v-636h-27v-37c76 -4 108 -36 108 -88s-37 -91 -120 -91h-70v46h57c44 0 67 9 67 48c0 35 -23 44 -67 44h-28z" />
    <glyph glyph-name="uni0163" unicode="&#x163;" horiz-adv-x="334" 
d="M156 -78l21 86c-61 18 -91 67 -91 147v279h-64v70h67v120h77v-120h148v-70h-148v-276c0 -68 22 -92 85 -92h63v-66h-77c-11 0 -19 0 -28 1v-38c76 -4 108 -36 108 -88s-37 -91 -120 -91h-70v46h57c44 0 67 9 67 48c0 35 -23 44 -67 44h-28z" />
    <glyph glyph-name="Tcaron" unicode="&#x164;" horiz-adv-x="525" 
d="M19 636v76h487v-76h-202v-636h-82v636h-203zM227 776l-104 156h70l70 -111l70 111h70l-105 -156h-71z" />
    <glyph glyph-name="tcaron" unicode="&#x165;" horiz-adv-x="334" 
d="M22 434v70h67v120h77v-120h148v-70h-148v-276c0 -68 22 -92 85 -92h63v-66h-77c-101 0 -151 52 -151 155v279h-64zM218 560v152h80v-52l-45 -100h-35z" />
    <glyph glyph-name="Tbar" unicode="&#x166;" horiz-adv-x="551" 
d="M32 636v76h487v-76h-203v-239h155v-63h-155v-334h-82v334h-154v63h154v239h-202z" />
    <glyph glyph-name="tbar" unicode="&#x167;" horiz-adv-x="341" 
d="M26 434v70h67v120h77v-120h147v-70h-147v-142h147v-58h-147v-76c0 -68 22 -92 85 -92h62v-66h-76c-101 0 -151 52 -151 155v79h-64v58h64v142h-64z" />
    <glyph glyph-name="Utilde" unicode="&#x168;" horiz-adv-x="625" 
d="M76 235v477h83v-477c0 -133 43 -181 154 -181c109 0 153 48 153 181v477h83v-477c0 -167 -65 -247 -236 -247c-172 0 -237 80 -237 247zM186 792v51c0 51 23 70 63 70c51 0 81 -64 112 -64c11 0 17 8 17 25v39h56v-51c0 -51 -24 -70 -63 -70c-50 0 -84 63 -113 63
c-11 0 -17 -8 -17 -25v-38h-55z" />
    <glyph glyph-name="utilde" unicode="&#x169;" horiz-adv-x="496" 
d="M64 166v338h80v-318c0 -89 27 -128 99 -128s105 36 105 128v318h80v-504h-77v64c-20 -49 -64 -72 -128 -72c-108 0 -159 66 -159 174zM124 584v51c0 51 23 70 63 70c51 0 81 -64 112 -64c11 0 17 8 17 25v39h56v-51c0 -51 -24 -70 -63 -70c-50 0 -84 63 -113 63
c-11 0 -17 -8 -17 -25v-38h-55z" />
    <glyph glyph-name="Umacron" unicode="&#x16a;" horiz-adv-x="625" 
d="M76 235v477h83v-477c0 -133 43 -181 154 -181c109 0 153 48 153 181v477h83v-477c0 -167 -65 -247 -236 -247c-172 0 -237 80 -237 247zM182 825v58h262v-58h-262z" />
    <glyph glyph-name="umacron" unicode="&#x16b;" horiz-adv-x="496" 
d="M64 166v338h80v-318c0 -89 27 -128 99 -128s105 36 105 128v318h80v-504h-77v64c-20 -49 -64 -72 -128 -72c-108 0 -159 66 -159 174zM120 617v58h262v-58h-262z" />
    <glyph glyph-name="Ubreve" unicode="&#x16c;" horiz-adv-x="625" 
d="M76 235v477h83v-477c0 -133 43 -181 154 -181c109 0 153 48 153 181v477h83v-477c0 -167 -65 -247 -236 -247c-172 0 -237 80 -237 247zM313 769c-76 0 -125 46 -128 145h49c3 -67 28 -93 79 -93s76 26 79 93h48c-3 -100 -51 -145 -127 -145z" />
    <glyph glyph-name="ubreve" unicode="&#x16d;" horiz-adv-x="496" 
d="M64 166v338h80v-318c0 -89 27 -128 99 -128s105 36 105 128v318h80v-504h-77v64c-20 -49 -64 -72 -128 -72c-108 0 -159 66 -159 174zM251 561c-76 0 -125 46 -128 145h49c3 -67 28 -93 79 -93s76 26 79 93h48c-3 -100 -51 -145 -127 -145z" />
    <glyph glyph-name="Uring" unicode="&#x16e;" horiz-adv-x="625" 
d="M76 235v477h83v-477c0 -133 43 -181 154 -181c109 0 153 48 153 181v477h83v-477c0 -167 -65 -247 -236 -247c-172 0 -237 80 -237 247zM313 769c-64 0 -93 37 -93 94c0 59 29 94 93 94s93 -35 93 -94c0 -57 -29 -94 -93 -94zM313 807c43 0 51 24 51 56s-8 56 -51 56
s-51 -24 -51 -56s8 -56 51 -56z" />
    <glyph glyph-name="uring" unicode="&#x16f;" horiz-adv-x="496" 
d="M64 166v338h80v-318c0 -89 27 -128 99 -128s105 36 105 128v318h80v-504h-77v64c-20 -49 -64 -72 -128 -72c-108 0 -159 66 -159 174zM251 561c-64 0 -93 37 -93 94c0 59 29 94 93 94s93 -35 93 -94c0 -57 -29 -94 -93 -94zM251 599c43 0 51 24 51 56s-8 56 -51 56
s-51 -24 -51 -56s8 -56 51 -56z" />
    <glyph glyph-name="Uhungarumlaut" unicode="&#x170;" horiz-adv-x="625" 
d="M76 235v477h83v-477c0 -133 43 -181 154 -181c109 0 153 48 153 181v477h83v-477c0 -167 -65 -247 -236 -247c-172 0 -237 80 -237 247zM346 776l80 156h88l-103 -156h-65zM196 776l80 156h88l-103 -156h-65z" />
    <glyph glyph-name="uhungarumlaut" unicode="&#x171;" horiz-adv-x="496" 
d="M64 166v338h80v-318c0 -89 27 -128 99 -128s105 36 105 128v318h80v-504h-77v64c-20 -49 -64 -72 -128 -72c-108 0 -159 66 -159 174zM284 568l80 156h88l-103 -156h-65zM134 568l80 156h88l-103 -156h-65z" />
    <glyph glyph-name="Uogonek" unicode="&#x172;" horiz-adv-x="625" 
d="M275 -130c0 45 37 80 80 120c-15 -1 -27 -2 -42 -2c-172 0 -237 80 -237 247v477h83v-477c0 -133 43 -181 154 -181c109 0 153 48 153 181v477h83v-477c0 -136 -43 -213 -148 -238c-41 -43 -70 -74 -70 -110c0 -35 19 -52 56 -52h38v-51h-40c-73 0 -110 29 -110 86z" />
    <glyph glyph-name="uogonek" unicode="&#x173;" horiz-adv-x="496" 
d="M64 166v338h80v-318c0 -89 27 -128 99 -128s105 36 105 128v318h80v-504c-43 -44 -73 -76 -73 -113c0 -35 19 -52 56 -52h38v-51h-40c-73 0 -110 29 -110 86c0 49 45 85 90 130h-38v64c-20 -49 -64 -72 -128 -72c-108 0 -159 66 -159 174z" />
    <glyph glyph-name="Wcircumflex" unicode="&#x174;" horiz-adv-x="888" 
d="M200 0l-184 712h86l149 -602l167 602h63l165 -604l150 604h76l-184 -712h-88l-152 554l-157 -554h-91zM308 776l104 156h71l105 -156h-70l-70 110l-70 -110h-70z" />
    <glyph glyph-name="wcircumflex" unicode="&#x175;" horiz-adv-x="694" 
d="M165 0l-152 504h85l109 -385l116 385h59l115 -385l109 385h75l-152 -504h-73l-109 360l-109 -360h-73zM210 568l104 156h71l105 -156h-70l-70 110l-70 -110h-70z" />
    <glyph glyph-name="Ycircumflex" unicode="&#x176;" horiz-adv-x="544" 
d="M230 0v296l-218 416h93l172 -334l173 334h82l-219 -416v-296h-83zM132 776l104 156h71l105 -156h-70l-70 110l-70 -110h-70z" />
    <glyph glyph-name="ycircumflex" unicode="&#x177;" horiz-adv-x="440" 
d="M39 -142h39c43 0 71 20 91 80l18 57l-172 509h84l128 -394l128 394h74l-193 -571c-31 -92 -61 -141 -157 -141h-40v66zM82 568l104 156h71l105 -156h-70l-70 110l-70 -110h-70z" />
    <glyph glyph-name="Ydieresis" unicode="&#x178;" horiz-adv-x="544" 
d="M230 0v296l-218 416h93l172 -334l173 334h82l-219 -416v-296h-83zM316 805v94h80v-94h-80zM148 805v94h80v-94h-80z" />
    <glyph glyph-name="Zacute" unicode="&#x179;" horiz-adv-x="489" 
d="M30 636v76h431v-50l-331 -596h323v-66h-415v50l325 586h-333zM204 776l80 156h88l-103 -156h-65z" />
    <glyph glyph-name="zacute" unicode="&#x17a;" horiz-adv-x="401" 
d="M34 434v70h334v-46l-234 -392h229v-66h-325v46l231 388h-235zM159 568l80 156h88l-103 -156h-65z" />
    <glyph glyph-name="Zdotaccent" unicode="&#x17b;" horiz-adv-x="489" 
d="M30 636v76h431v-50l-331 -596h323v-66h-415v50l325 586h-333zM206 805v94h80v-94h-80z" />
    <glyph glyph-name="zdotaccent" unicode="&#x17c;" horiz-adv-x="401" 
d="M34 434v70h334v-46l-234 -392h229v-66h-325v46l231 388h-235zM161 597v94h80v-94h-80z" />
    <glyph glyph-name="Zcaron" unicode="&#x17d;" horiz-adv-x="489" 
d="M30 636v76h431v-50l-331 -596h323v-66h-415v50l325 586h-333zM210 776l-104 156h70l70 -111l70 111h70l-105 -156h-71z" />
    <glyph glyph-name="zcaron" unicode="&#x17e;" horiz-adv-x="401" 
d="M34 434v70h334v-46l-234 -392h229v-66h-325v46l231 388h-235zM165 568l-104 156h70l70 -111l70 111h70l-105 -156h-71z" />
    <glyph glyph-name="longs" unicode="&#x17f;" horiz-adv-x="255" 
d="M23 434v70h64v50c0 101 52 158 157 158h63v-73h-60c-57 0 -80 -26 -80 -83v-556h-80v434h-64z" />
    <glyph glyph-name="uni018F" unicode="&#x18f;" horiz-adv-x="608" 
d="M298 -12c-185 0 -253 89 -253 348v35h428c-3 212 -40 277 -179 277c-109 0 -155 -42 -166 -165h-79c13 161 74 241 245 241c200 0 264 -104 264 -368c0 -274 -64 -368 -260 -368zM298 54c127 0 169 48 174 248h-343c5 -202 48 -248 169 -248z" />
    <glyph glyph-name="florin" unicode="&#x192;" horiz-adv-x="560" 
d="M83 331v70h144v127c0 123 59 184 177 184h85v-73h-74c-78 0 -106 -26 -106 -114v-124h169v-70h-169v-355c0 -123 -59 -184 -177 -184h-85v66h74c77 0 106 32 106 121v352h-144z" />
    <glyph glyph-name="AEacute" unicode="&#x1fc;" horiz-adv-x="814" 
d="M7 0l266 712h492v-79h-295v-237h274v-69h-274v-255h295v-72h-378v172h-237l-63 -172h-80zM320 633l-144 -391h211v391h-67zM388 776l80 156h88l-103 -156h-65z" />
    <glyph glyph-name="aeacute" unicode="&#x1fd;" horiz-adv-x="734" 
d="M38 123c0 104 74 143 197 164l75 12v35c0 72 -17 108 -90 108c-71 0 -95 -24 -97 -97h-73c3 108 46 167 177 167c68 0 109 -22 132 -59c32 40 81 59 149 59c137 0 183 -83 183 -248v-19h-301c1 -154 36 -187 119 -187c69 0 98 24 107 91h72c-10 -100 -60 -157 -179 -157
c-86 0 -141 27 -171 90c-18 -53 -73 -90 -153 -90c-93 0 -147 48 -147 131zM201 57c67 0 109 39 109 109v70l-69 -11c-97 -15 -123 -44 -123 -94s29 -74 83 -74zM505 439c-69 0 -105 -29 -113 -132h222c-6 103 -36 132 -109 132zM313 568l80 156h88l-103 -156h-65z" />
    <glyph glyph-name="Oslashacute" unicode="&#x1fe;" horiz-adv-x="637" 
d="M44 0v85l40 46c-20 56 -27 131 -27 230c0 264 63 363 262 363c103 0 168 -27 208 -88l67 76v-85l-40 -46c19 -56 26 -128 26 -220c0 -275 -61 -373 -261 -373c-103 0 -168 25 -209 88zM319 54c140 0 176 62 176 307c0 57 -3 105 -9 143l-320 -365c25 -64 70 -85 153 -85z
M142 361c0 -64 1 -114 8 -155l319 363c-25 59 -70 79 -150 79c-140 0 -177 -64 -177 -287zM277 773l80 156h88l-103 -156h-65z" />
    <glyph glyph-name="oslashacute" unicode="&#x1ff;" horiz-adv-x="494" 
d="M39 0v71l30 31c-13 37 -20 87 -20 150c0 181 55 260 198 260c72 0 123 -22 154 -65l55 57v-71l-31 -32c13 -40 20 -90 20 -149c0 -181 -55 -260 -198 -260c-72 0 -124 21 -155 64zM247 58c85 0 118 48 118 194c0 32 -2 58 -5 81l-212 -219c19 -41 50 -56 99 -56zM129 252
c0 -32 1 -60 5 -83l210 219c-19 37 -49 51 -97 51c-85 0 -118 -44 -118 -187zM205 568l80 156h88l-103 -156h-65z" />
    <glyph glyph-name="uni0218" unicode="&#x218;" horiz-adv-x="544" 
d="M41 216h78c8 -116 48 -162 152 -162c97 0 146 38 146 126c0 83 -49 111 -129 132l-56 15c-105 28 -181 70 -181 203c0 119 71 194 219 194c168 0 217 -87 225 -236h-79c-8 120 -49 160 -146 160c-88 0 -137 -38 -137 -118c0 -86 52 -110 128 -130l56 -15
c117 -31 183 -81 183 -205c0 -117 -74 -192 -229 -192c-159 0 -223 73 -230 228zM230 -56h80v-52l-45 -100h-35v152z" />
    <glyph glyph-name="uni0219" unicode="&#x219;" horiz-adv-x="429" 
d="M40 143h73c7 -67 37 -87 102 -87c72 0 95 23 95 74c0 52 -17 65 -92 83l-54 13c-73 18 -119 57 -119 144c0 96 61 142 169 142s167 -41 168 -158h-73c-4 71 -32 88 -95 88c-71 0 -92 -24 -92 -72c0 -43 18 -64 82 -80l53 -13c95 -23 131 -67 131 -147
c0 -83 -49 -138 -176 -138c-128 0 -164 63 -172 151zM174 -56h80v-52l-45 -100h-35v152z" />
    <glyph glyph-name="uni021A" unicode="&#x21a;" horiz-adv-x="525" 
d="M19 636v76h487v-76h-202v-636h-82v636h-203zM225 -56h80v-52l-45 -100h-35v152z" />
    <glyph glyph-name="uni021B" unicode="&#x21b;" horiz-adv-x="334" 
d="M22 434v70h67v120h77v-120h148v-70h-148v-276c0 -68 22 -92 85 -92h63v-66h-77c-101 0 -151 52 -151 155v279h-64zM157 -56h80v-52l-45 -100h-35v152z" />
    <glyph glyph-name="dotlessj" unicode="&#x237;" horiz-adv-x="216" 
d="M68 -77v581h80v-576c0 -88 -37 -136 -128 -136h-42v66h27c44 0 63 17 63 65z" />
    <glyph glyph-name="uni0259" unicode="&#x259;" horiz-adv-x="468" 
d="M225 -8c-137 0 -183 83 -183 250v17h301c-1 147 -37 180 -119 180c-66 0 -94 -26 -103 -90h-72c10 104 59 163 175 163c141 0 199 -74 199 -261c0 -183 -61 -259 -198 -259zM228 58c70 0 105 28 113 139h-222c5 -108 35 -139 109 -139z" />
    <glyph glyph-name="circumflex" unicode="&#x2c6;" horiz-adv-x="468" 
d="M94 568l104 156h71l105 -156h-70l-70 110l-70 -110h-70z" />
    <glyph glyph-name="caron" unicode="&#x2c7;" horiz-adv-x="468" 
d="M198 568l-104 156h70l70 -111l70 111h70l-105 -156h-71z" />
    <glyph glyph-name="uni02C9" unicode="&#x2c9;" horiz-adv-x="468" 
d="M103 617v58h262v-58h-262z" />
    <glyph glyph-name="breve" unicode="&#x2d8;" horiz-adv-x="468" 
d="M234 561c-76 0 -125 46 -128 145h49c3 -67 28 -93 79 -93s76 26 79 93h48c-3 -100 -51 -145 -127 -145z" />
    <glyph glyph-name="dotaccent" unicode="&#x2d9;" horiz-adv-x="468" 
d="M194 597v94h80v-94h-80z" />
    <glyph glyph-name="ring" unicode="&#x2da;" horiz-adv-x="468" 
d="M234 561c-64 0 -93 37 -93 94c0 59 29 94 93 94s93 -35 93 -94c0 -57 -29 -94 -93 -94zM234 599c43 0 51 24 51 56s-8 56 -51 56s-51 -24 -51 -56s8 -56 51 -56z" />
    <glyph glyph-name="ogonek" unicode="&#x2db;" horiz-adv-x="468" 
d="M145 -130c0 49 45 85 90 130h39c-43 -44 -73 -76 -73 -113c0 -35 19 -52 56 -52h38v-51h-40c-73 0 -110 29 -110 86z" />
    <glyph glyph-name="tilde" unicode="&#x2dc;" horiz-adv-x="468" 
d="M107 584v51c0 51 23 70 63 70c51 0 81 -64 112 -64c11 0 17 8 17 25v39h56v-51c0 -51 -24 -70 -63 -70c-50 0 -84 63 -113 63c-11 0 -17 -8 -17 -25v-38h-55z" />
    <glyph glyph-name="hungarumlaut" unicode="&#x2dd;" horiz-adv-x="468" 
d="M267 568l80 156h88l-103 -156h-65zM117 568l80 156h88l-103 -156h-65z" />
    <glyph glyph-name="uni0326" unicode="&#x326;" horiz-adv-x="0" 
d="M-274 -56h80v-52l-45 -100h-35v152z" />
    <glyph glyph-name="uni037E" unicode="&#x37e;" horiz-adv-x="206" 
d="M61 370v102h84v-102h-84zM61 102h84v-75l-44 -155h-40v230z" />
    <glyph glyph-name="tonos" unicode="&#x384;" horiz-adv-x="470" 
d="M199 568l34 156h84l-57 -156h-61z" />
    <glyph glyph-name="dieresistonos" unicode="&#x385;" horiz-adv-x="473" 
d="M181 568l32 156h81l-54 -156h-59zM307 597v94h74v-94h-74zM89 597v94h74v-94h-74z" />
    <glyph glyph-name="Alphatonos" unicode="&#x386;" horiz-adv-x="564" 
d="M14 0l223 712h90l223 -712h-85l-52 172h-271l-52 -172h-76zM277 615l-113 -373h227zM49 556l34 156h84l-57 -156h-61z" />
    <glyph glyph-name="uni0387" unicode="&#x387;" horiz-adv-x="192" 
d="M54 370v102h84v-102h-84z" />
    <glyph glyph-name="Epsilontonos" unicode="&#x388;" horiz-adv-x="510" 
d="M81 0v712h381v-76h-298v-235h274v-70h-274v-265h298v-66h-381zM-76 556l34 156h84l-57 -156h-61z" />
    <glyph glyph-name="Etatonos" unicode="&#x389;" horiz-adv-x="637" 
d="M81 0v712h83v-311h309v311h83v-712h-83v330h-309v-330h-83zM-76 556l34 156h84l-57 -156h-61z" />
    <glyph glyph-name="Iotatonos" unicode="&#x38a;" horiz-adv-x="245" 
d="M81 0v712h83v-712h-83zM-76 556l34 156h84l-57 -156h-61z" />
    <glyph glyph-name="Omicrontonos" unicode="&#x38c;" horiz-adv-x="623" 
d="M312 -12c-200 0 -262 98 -262 373c0 264 63 363 262 363c197 0 261 -99 261 -363c0 -275 -61 -373 -261 -373zM312 54c140 0 176 62 176 307c0 223 -36 287 -176 287s-177 -64 -177 -287c0 -245 37 -307 177 -307zM-54 556l34 156h84l-57 -156h-61z" />
    <glyph glyph-name="Upsilontonos" unicode="&#x38e;" horiz-adv-x="544" 
d="M230 0v296l-218 416h93l172 -334l173 334h82l-219 -416v-296h-83zM-127 556l34 156h84l-57 -156h-61z" />
    <glyph glyph-name="Omegatonos" unicode="&#x38f;" horiz-adv-x="633" 
d="M60 0v66h149v33c-100 32 -158 105 -158 300c0 211 68 325 266 325c197 0 265 -111 265 -325c0 -195 -58 -268 -158 -300v-33h149v-66h-218v146c89 16 142 59 142 251c0 187 -41 251 -180 251c-140 0 -181 -68 -181 -251c0 -191 53 -235 142 -251v-146h-218zM-52 556
l34 156h84l-57 -156h-61z" />
    <glyph glyph-name="iotadieresistonos" unicode="&#x390;" horiz-adv-x="229" 
d="M65 123v381h80v-373c0 -48 11 -65 55 -65h15v-66h-30c-91 0 -120 47 -120 123zM61 568l32 156h81l-54 -156h-59zM187 597v94h74v-94h-74zM-31 597v94h74v-94h-74z" />
    <glyph glyph-name="Alpha" unicode="&#x391;" horiz-adv-x="564" 
d="M14 0l223 712h90l223 -712h-85l-52 172h-271l-52 -172h-76zM277 615l-113 -373h227z" />
    <glyph glyph-name="Beta" unicode="&#x392;" horiz-adv-x="577" 
d="M81 0v712h237c131 0 191 -67 191 -188c0 -80 -33 -128 -77 -149c69 -29 100 -92 100 -176c0 -133 -65 -199 -195 -199h-256zM333 330h-169v-264h167c76 0 118 36 118 133s-43 131 -116 131zM315 636h-151v-235h154c85 0 109 40 109 120s-28 115 -112 115z" />
    <glyph glyph-name="Gamma" unicode="&#x393;" horiz-adv-x="470" 
d="M81 0v712h370v-76h-287v-636h-83z" />
    <glyph glyph-name="uni0394" unicode="&#x394;" horiz-adv-x="564" 
d="M14 0l223 712h90l223 -712h-536zM277 615l-167 -549h335z" />
    <glyph glyph-name="Epsilon" unicode="&#x395;" horiz-adv-x="510" 
d="M81 0v712h381v-76h-298v-235h274v-70h-274v-265h298v-66h-381z" />
    <glyph glyph-name="Zeta" unicode="&#x396;" horiz-adv-x="489" 
d="M30 636v76h431v-50l-331 -596h323v-66h-415v50l325 586h-333z" />
    <glyph glyph-name="Eta" unicode="&#x397;" horiz-adv-x="637" 
d="M81 0v712h83v-311h309v311h83v-712h-83v330h-309v-330h-83z" />
    <glyph glyph-name="Theta" unicode="&#x398;" horiz-adv-x="623" 
d="M312 -12c-200 0 -262 98 -262 373c0 264 63 363 262 363c197 0 261 -99 261 -363c0 -275 -61 -373 -261 -373zM312 54c140 0 176 62 176 307c0 223 -36 287 -176 287s-177 -64 -177 -287c0 -245 37 -307 177 -307zM199 330v69h225v-69h-225z" />
    <glyph glyph-name="Iota" unicode="&#x399;" horiz-adv-x="245" 
d="M81 0v712h83v-712h-83z" />
    <glyph glyph-name="Kappa" unicode="&#x39a;" horiz-adv-x="566" 
d="M192 362l275 350h90l-273 -346l278 -366h-96zM81 0v712h83v-712h-83z" />
    <glyph glyph-name="Lambda" unicode="&#x39b;" horiz-adv-x="564" 
d="M14 0l223 712h90l223 -712h-85l-188 615l-187 -615h-76z" />
    <glyph glyph-name="Mu" unicode="&#x39c;" horiz-adv-x="778" 
d="M148 0h-80l28 712h88l209 -576l205 576h83l30 -712h-80l-21 529l-193 -529h-54l-195 536z" />
    <glyph glyph-name="Nu" unicode="&#x39d;" horiz-adv-x="637" 
d="M81 0v712h73l319 -542v542h83v-712h-73l-319 542v-542h-83z" />
    <glyph glyph-name="Xi" unicode="&#x39e;" horiz-adv-x="506" 
d="M42 636v76h422v-76h-422zM74 331v70h358v-70h-358zM42 0v66h422v-66h-422z" />
    <glyph glyph-name="Omicron" unicode="&#x39f;" horiz-adv-x="623" 
d="M312 -12c-200 0 -262 98 -262 373c0 264 63 363 262 363c197 0 261 -99 261 -363c0 -275 -61 -373 -261 -373zM312 54c140 0 176 62 176 307c0 223 -36 287 -176 287s-177 -64 -177 -287c0 -245 37 -307 177 -307z" />
    <glyph glyph-name="Pi" unicode="&#x3a0;" horiz-adv-x="633" 
d="M81 0v712h471v-712h-83v636h-305v-636h-83z" />
    <glyph glyph-name="Rho" unicode="&#x3a1;" horiz-adv-x="542" 
d="M81 0v712h224c143 0 203 -58 203 -218c0 -163 -75 -211 -205 -211h-139v-283h-83zM305 636h-141v-284h139c89 0 122 27 122 142c0 112 -33 142 -120 142z" />
    <glyph glyph-name="Sigma" unicode="&#x3a3;" horiz-adv-x="504" 
d="M31 0v56l255 307l-256 293v56h439v-76h-321l222 -256v-36l-235 -278h334v-66h-438z" />
    <glyph glyph-name="Tau" unicode="&#x3a4;" horiz-adv-x="525" 
d="M19 636v76h487v-76h-202v-636h-82v636h-203z" />
    <glyph glyph-name="Upsilon" unicode="&#x3a5;" horiz-adv-x="544" 
d="M230 0v296l-218 416h93l172 -334l173 334h82l-219 -416v-296h-83z" />
    <glyph glyph-name="Phi" unicode="&#x3a6;" horiz-adv-x="724" 
d="M322 -24v92c-194 5 -286 81 -286 284c0 215 97 292 286 297v87h81v-87c192 -5 285 -80 285 -297c0 -200 -93 -279 -285 -284v-92h-81zM118 352c0 -180 72 -215 204 -218v439c-137 -3 -204 -41 -204 -221zM605 352c0 179 -68 218 -202 221v-439c132 3 202 38 202 218z" />
    <glyph glyph-name="Chi" unicode="&#x3a7;" horiz-adv-x="519" 
d="M9 0l201 363l-193 349h91l156 -284l157 284h81l-193 -349l201 -363h-91l-165 299l-164 -299h-81z" />
    <glyph glyph-name="Psi" unicode="&#x3a8;" horiz-adv-x="708" 
d="M313 0v206c-163 3 -261 70 -261 243v263h83v-263c0 -131 58 -171 178 -174v437h83v-437c119 1 177 47 177 174v263h83v-263c0 -172 -99 -240 -260 -243v-206h-83z" />
    <glyph glyph-name="uni03A9" unicode="&#x3a9;" horiz-adv-x="633" 
d="M60 0v66h149v33c-100 32 -158 105 -158 300c0 211 68 325 266 325c197 0 265 -111 265 -325c0 -195 -58 -268 -158 -300v-33h149v-66h-218v146c89 16 142 59 142 251c0 187 -41 251 -180 251c-140 0 -181 -68 -181 -251c0 -191 53 -235 142 -251v-146h-218z" />
    <glyph glyph-name="Iotadieresis" unicode="&#x3aa;" horiz-adv-x="245" 
d="M81 0v712h83v-712h-83zM167 805v94h80v-94h-80zM-1 805v94h80v-94h-80z" />
    <glyph glyph-name="Upsilondieresis" unicode="&#x3ab;" horiz-adv-x="544" 
d="M230 0v296l-218 416h93l172 -334l173 334h82l-219 -416v-296h-83zM316 805v94h80v-94h-80zM148 805v94h80v-94h-80z" />
    <glyph glyph-name="alphatonos" unicode="&#x3ac;" horiz-adv-x="523" 
d="M232 -8c-135 0 -188 79 -188 260s62 260 195 260c60 0 103 -22 126 -74v66h75v-373c0 -48 11 -65 55 -65h14v-66h-29c-64 0 -96 23 -108 70c-23 -52 -70 -78 -140 -78zM242 58c85 0 118 48 118 194c0 143 -33 187 -118 187s-118 -44 -118 -187c0 -146 33 -194 118 -194z
M206 568l34 156h84l-57 -156h-61z" />
    <glyph glyph-name="epsilontonos" unicode="&#x3ad;" horiz-adv-x="453" 
d="M44 140c0 57 24 96 73 117c-43 19 -66 55 -66 108c0 92 58 147 181 147c120 0 170 -52 179 -165h-76c-8 68 -32 92 -103 92c-75 0 -101 -28 -101 -80c0 -45 30 -72 86 -72h69v-67h-70c-61 0 -92 -29 -92 -80s29 -82 105 -82c79 0 106 31 110 100h77
c-11 -109 -58 -166 -190 -166c-129 0 -182 57 -182 148zM196 568l34 156h84l-57 -156h-61z" />
    <glyph glyph-name="etatonos" unicode="&#x3ae;" horiz-adv-x="512" 
d="M84 0v370c0 47 -11 64 -55 64h-14v70h29c64 0 97 -22 110 -69c20 51 65 77 135 77c108 0 159 -66 159 -174v-546h-80v525c0 89 -28 122 -99 122s-105 -32 -105 -121v-318h-80zM232 568l34 156h84l-57 -156h-61z" />
    <glyph glyph-name="iotatonos" unicode="&#x3af;" horiz-adv-x="229" 
d="M65 123v381h80v-373c0 -48 11 -65 55 -65h15v-66h-30c-91 0 -120 47 -120 123zM69 568l34 156h84l-57 -156h-61z" />
    <glyph glyph-name="upsilondieresistonos" unicode="&#x3b0;" horiz-adv-x="502" 
d="M89 171v199c0 47 -10 64 -55 64h-14v70h29c92 0 120 -40 120 -128v-201c0 -76 22 -117 91 -117c80 0 106 55 106 213c0 95 -11 161 -23 233h80c12 -72 22 -138 22 -233c0 -176 -35 -279 -186 -279c-130 0 -170 71 -170 179zM196 568l32 156h81l-54 -156h-59zM322 597v94
h74v-94h-74zM104 597v94h74v-94h-74z" />
    <glyph glyph-name="alpha" unicode="&#x3b1;" horiz-adv-x="523" 
d="M232 -8c-135 0 -188 79 -188 260s62 260 195 260c60 0 103 -22 126 -74v66h75v-373c0 -48 11 -65 55 -65h14v-66h-29c-64 0 -96 23 -108 70c-23 -52 -70 -78 -140 -78zM242 58c85 0 118 48 118 194c0 143 -33 187 -118 187s-118 -44 -118 -187c0 -146 33 -194 118 -194z
" />
    <glyph glyph-name="beta" unicode="&#x3b2;" horiz-adv-x="520" 
d="M68 -208v736c0 123 60 196 196 196c137 0 192 -65 192 -192c0 -73 -27 -123 -80 -149c80 -27 102 -96 102 -187c0 -135 -64 -204 -197 -204c-64 0 -108 21 -133 70v-270h-80zM148 529v-277c0 -146 39 -194 127 -194c84 0 124 33 124 138c0 112 -33 145 -125 145h-39v69
h33c84 0 108 37 108 122c0 88 -35 119 -112 119s-116 -41 -116 -122z" />
    <glyph glyph-name="gamma" unicode="&#x3b3;" horiz-adv-x="480" 
d="M179 91l-85 284c-13 45 -27 59 -62 59h-11v70h31c72 0 96 -28 114 -91l91 -319l133 410h76l-176 -522v-190h-80v127c0 70 -12 102 -31 172z" />
    <glyph glyph-name="delta" unicode="&#x3b4;" horiz-adv-x="481" 
d="M240 -8c-144 0 -198 85 -198 242c0 133 49 183 129 236c-69 40 -94 66 -94 120c0 102 79 128 180 128c73 0 106 -8 139 -16v-73c-33 9 -66 17 -139 17c-68 0 -104 -8 -104 -48c0 -31 18 -42 55 -63l80 -43c106 -57 150 -100 150 -258c0 -157 -55 -242 -198 -242zM358 228
c0 126 -27 154 -120 205l-16 -10c-69 -43 -100 -79 -100 -195c0 -121 31 -170 118 -170s118 49 118 170z" />
    <glyph glyph-name="epsilon" unicode="&#x3b5;" horiz-adv-x="453" 
d="M44 140c0 57 24 96 73 117c-43 19 -66 55 -66 108c0 92 58 147 181 147c120 0 170 -52 179 -165h-76c-8 68 -32 92 -103 92c-75 0 -101 -28 -101 -80c0 -45 30 -72 86 -72h69v-67h-70c-61 0 -92 -29 -92 -80s29 -82 105 -82c79 0 106 31 110 100h77
c-11 -109 -58 -166 -190 -166c-129 0 -182 57 -182 148z" />
    <glyph glyph-name="zeta" unicode="&#x3b6;" horiz-adv-x="409" 
d="M62 640v72h334v-53c-120 -109 -274 -284 -274 -441v-14c0 -81 44 -111 116 -127l38 -9c81 -19 121 -47 121 -128c0 -32 -6 -64 -15 -100h-75c8 31 14 60 14 89c0 39 -20 61 -78 73l-39 8c-107 24 -162 80 -162 189v20c0 160 136 320 239 421h-219z" />
    <glyph glyph-name="eta" unicode="&#x3b7;" horiz-adv-x="512" 
d="M84 0v370c0 47 -11 64 -55 64h-14v70h29c64 0 97 -22 110 -69c20 51 65 77 135 77c108 0 159 -66 159 -174v-546h-80v525c0 89 -28 122 -99 122s-105 -32 -105 -121v-318h-80z" />
    <glyph glyph-name="theta" unicode="&#x3b8;" horiz-adv-x="536" 
d="M268 -11c-152 0 -214 75 -214 375c0 285 66 359 214 359s214 -74 214 -359c0 -300 -62 -375 -214 -375zM268 56c94 0 130 44 133 271h-268c3 -227 42 -271 135 -271zM268 650c-93 0 -132 -41 -135 -253h269c-5 211 -43 253 -134 253z" />
    <glyph glyph-name="iota" unicode="&#x3b9;" horiz-adv-x="229" 
d="M65 123v381h80v-373c0 -48 11 -65 55 -65h15v-66h-30c-91 0 -120 47 -120 123z" />
    <glyph glyph-name="kappa" unicode="&#x3ba;" horiz-adv-x="467" 
d="M68 0v504h80v-251l146 177c43 53 66 74 138 74h9v-70h-9c-33 0 -54 -10 -83 -45l-85 -102l180 -287h-89l-143 229l-64 -74v-155h-80z" />
    <glyph glyph-name="lambda" unicode="&#x3bb;" horiz-adv-x="444" 
d="M14 0l169 514l-15 49c-19 61 -41 77 -89 77h-41v72h46c95 0 131 -48 159 -135l186 -577h-81l-128 402l-128 -402h-78z" />
    <glyph glyph-name="uni03BC" unicode="&#x3bc;" horiz-adv-x="516" 
d="M68 -208v712h80v-319c0 -91 28 -127 100 -127c69 0 104 33 104 128v318h80v-373c0 -48 11 -65 55 -65h15v-66h-30c-63 0 -94 23 -109 66c-23 -51 -67 -74 -122 -74c-47 0 -78 13 -98 37v-237h-75z" />
    <glyph glyph-name="nu" unicode="&#x3bd;" horiz-adv-x="476" 
d="M212 0l-117 376c-14 43 -28 58 -63 58h-11v70h31c72 0 96 -28 114 -91l93 -317l127 408h76l-164 -504h-86z" />
    <glyph glyph-name="xi" unicode="&#x3be;" horiz-adv-x="448" 
d="M42 207c0 87 37 143 104 168c-55 24 -87 74 -87 154c0 124 57 195 194 195c124 0 178 -63 185 -178h-80c-7 76 -36 105 -105 105c-76 0 -114 -35 -114 -119c0 -81 41 -122 122 -122h69v-69h-57c-101 0 -151 -44 -151 -131c0 -106 64 -119 133 -134l38 -8
c83 -17 124 -48 124 -128c0 -32 -7 -64 -15 -100h-76c8 31 15 60 15 89c0 39 -22 62 -82 73l-38 7c-103 19 -179 58 -179 198z" />
    <glyph glyph-name="omicron" unicode="&#x3bf;" horiz-adv-x="484" 
d="M242 -8c-144 0 -198 79 -198 260s55 260 198 260c144 0 198 -79 198 -260s-57 -260 -198 -260zM242 58c85 0 118 48 118 194c0 143 -33 187 -118 187s-118 -44 -118 -187c0 -146 33 -194 118 -194z" />
    <glyph glyph-name="pi" unicode="&#x3c0;" horiz-adv-x="545" 
d="M22 434v70h493v-70h-92v-303c0 -47 8 -65 55 -65h17v-66h-32c-91 0 -120 44 -120 120v314h-150l-34 -434h-80l37 434h-94z" />
    <glyph glyph-name="rho" unicode="&#x3c1;" horiz-adv-x="501" 
d="M261 -8c-56 0 -97 19 -121 64v-264h-79v463c0 183 62 257 195 257c141 0 201 -79 201 -260s-60 -260 -196 -260zM259 58c85 0 118 48 118 194c0 143 -33 187 -118 187c-87 0 -119 -44 -119 -187c0 -146 32 -194 119 -194z" />
    <glyph glyph-name="sigma1" unicode="&#x3c2;" horiz-adv-x="450" 
d="M248 2l-38 8c-109 24 -166 78 -166 243c0 181 57 259 196 259c124 0 171 -67 182 -195h-76c-11 93 -40 122 -109 122c-80 0 -113 -43 -113 -186c0 -136 44 -160 119 -176l38 -9c82 -18 124 -47 124 -128c0 -32 -6 -64 -14 -100h-76c8 31 14 60 14 89c0 39 -20 60 -81 73z
" />
    <glyph glyph-name="sigma" unicode="&#x3c3;" horiz-adv-x="516" 
d="M242 -8c-144 0 -198 79 -198 259s55 253 198 253h252v-70h-105c36 -35 51 -96 51 -183c0 -180 -55 -259 -198 -259zM242 58c85 0 118 49 118 193c0 142 -33 183 -118 183s-118 -40 -118 -183c0 -144 33 -193 118 -193z" />
    <glyph glyph-name="tau" unicode="&#x3c4;" horiz-adv-x="413" 
d="M16 434v70h375v-70h-154v-293c0 -56 23 -75 74 -75h31v-66h-46c-97 0 -139 48 -139 144v290h-141z" />
    <glyph glyph-name="upsilon" unicode="&#x3c5;" horiz-adv-x="502" 
d="M89 171v199c0 47 -10 64 -55 64h-14v70h29c92 0 120 -40 120 -128v-201c0 -76 22 -117 91 -117c80 0 106 55 106 213c0 95 -11 161 -23 233h80c12 -72 22 -138 22 -233c0 -176 -35 -279 -186 -279c-130 0 -170 71 -170 179z" />
    <glyph glyph-name="phi" unicode="&#x3c6;" horiz-adv-x="661" 
d="M43 249c0 191 75 255 178 255h20v-70h-12c-65 0 -106 -46 -106 -185c0 -134 35 -189 166 -192v261c0 123 39 194 162 194c126 0 166 -102 166 -242c0 -189 -72 -275 -248 -280v-198h-80v198c-178 5 -246 87 -246 259zM369 318v-261c127 5 168 59 168 213
c0 102 -15 169 -86 169c-60 0 -82 -38 -82 -121z" />
    <glyph glyph-name="chi" unicode="&#x3c7;" horiz-adv-x="457" 
d="M92 -208h-77l174 358l-101 242c-14 33 -26 42 -58 42h-12v70h31c72 0 90 -32 115 -94l76 -190l134 284h77l-174 -360l101 -240c14 -33 26 -45 58 -45h12v-67h-29c-73 0 -91 32 -117 94l-77 187z" />
    <glyph glyph-name="psi" unicode="&#x3c8;" horiz-adv-x="655" 
d="M61 224v280h80v-280c0 -123 50 -162 149 -167v627h80v-627c96 8 150 50 150 215c0 84 -10 160 -22 232h80c12 -72 21 -147 21 -232c0 -200 -74 -271 -229 -282v-198h-80v198c-156 9 -229 75 -229 234z" />
    <glyph glyph-name="omega" unicode="&#x3c9;" horiz-adv-x="670" 
d="M214 -8c-131 0 -168 82 -168 259c0 199 56 253 160 253h29v-70h-18c-65 0 -91 -37 -91 -189c0 -126 12 -187 88 -187c63 0 82 52 82 120v124h78v-124c0 -68 19 -120 82 -120c76 0 88 61 88 187c0 152 -25 189 -92 189h-17v70h29c103 0 160 -57 160 -256
c0 -177 -37 -256 -168 -256c-61 0 -98 29 -121 70c-23 -41 -61 -70 -121 -70z" />
    <glyph glyph-name="iotadieresis" unicode="&#x3ca;" horiz-adv-x="229" 
d="M65 123v381h80v-373c0 -48 11 -65 55 -65h15v-66h-30c-91 0 -120 47 -120 123zM149 597v94h80v-94h-80zM-19 597v94h80v-94h-80z" />
    <glyph glyph-name="upsilondieresis" unicode="&#x3cb;" horiz-adv-x="502" 
d="M89 171v199c0 47 -10 64 -55 64h-14v70h29c92 0 120 -40 120 -128v-201c0 -76 22 -117 91 -117c80 0 106 55 106 213c0 95 -11 161 -23 233h80c12 -72 22 -138 22 -233c0 -176 -35 -279 -186 -279c-130 0 -170 71 -170 179zM301 597v94h80v-94h-80zM133 597v94h80v-94
h-80z" />
    <glyph glyph-name="omicrontonos" unicode="&#x3cc;" horiz-adv-x="484" 
d="M242 -8c-144 0 -198 79 -198 260s55 260 198 260c144 0 198 -79 198 -260s-57 -260 -198 -260zM242 58c85 0 118 48 118 194c0 143 -33 187 -118 187s-118 -44 -118 -187c0 -146 33 -194 118 -194zM206 568l34 156h84l-57 -156h-61z" />
    <glyph glyph-name="upsilontonos" unicode="&#x3cd;" horiz-adv-x="502" 
d="M89 171v199c0 47 -10 64 -55 64h-14v70h29c92 0 120 -40 120 -128v-201c0 -76 22 -117 91 -117c80 0 106 55 106 213c0 95 -11 161 -23 233h80c12 -72 22 -138 22 -233c0 -176 -35 -279 -186 -279c-130 0 -170 71 -170 179zM221 568l34 156h84l-57 -156h-61z" />
    <glyph glyph-name="omegatonos" unicode="&#x3ce;" horiz-adv-x="670" 
d="M214 -8c-131 0 -168 82 -168 259c0 199 56 253 160 253h29v-70h-18c-65 0 -91 -37 -91 -189c0 -126 12 -187 88 -187c63 0 82 52 82 120v124h78v-124c0 -68 19 -120 82 -120c76 0 88 61 88 187c0 152 -25 189 -92 189h-17v70h29c103 0 160 -57 160 -256
c0 -177 -37 -256 -168 -256c-61 0 -98 29 -121 70c-23 -41 -61 -70 -121 -70zM300 568l34 156h84l-57 -156h-61z" />
    <glyph glyph-name="uni0400" unicode="&#x400;" horiz-adv-x="510" 
d="M81 0v712h381v-76h-298v-235h274v-70h-274v-265h298v-66h-381zM249 776l-103 156h88l80 -156h-65z" />
    <glyph glyph-name="uni0401" unicode="&#x401;" horiz-adv-x="510" 
d="M81 0v712h381v-76h-298v-235h274v-70h-274v-265h298v-66h-381zM316 805v94h80v-94h-80zM148 805v94h80v-94h-80z" />
    <glyph glyph-name="uni0402" unicode="&#x402;" horiz-adv-x="660" 
d="M19 636v76h489v-76h-244v-239c47 7 91 11 138 11c131 0 222 -32 222 -204c0 -158 -69 -204 -197 -204h-44v66h42c83 0 116 27 116 135c0 118 -50 136 -146 136c-43 0 -87 -3 -131 -10v-327h-83v636h-162z" />
    <glyph glyph-name="uni0403" unicode="&#x403;" horiz-adv-x="470" 
d="M81 0v712h370v-76h-287v-636h-83zM224 776l80 156h88l-103 -156h-65z" />
    <glyph glyph-name="uni0404" unicode="&#x404;" horiz-adv-x="579" 
d="M308 -12c-200 0 -258 98 -258 373c0 264 59 363 258 363c172 0 218 -77 231 -232h-79c-13 113 -42 156 -152 156c-130 0 -170 -58 -173 -247h241v-71h-241c3 -219 40 -276 173 -276c110 0 140 50 153 158h79c-16 -157 -81 -224 -232 -224z" />
    <glyph glyph-name="uni0405" unicode="&#x405;" horiz-adv-x="544" 
d="M41 216h78c8 -116 48 -162 152 -162c97 0 146 38 146 126c0 83 -49 111 -129 132l-56 15c-105 28 -181 70 -181 203c0 119 71 194 219 194c168 0 217 -87 225 -236h-79c-8 120 -49 160 -146 160c-88 0 -137 -38 -137 -118c0 -86 52 -110 128 -130l56 -15
c117 -31 183 -81 183 -205c0 -117 -74 -192 -229 -192c-159 0 -223 73 -230 228z" />
    <glyph glyph-name="uni0406" unicode="&#x406;" horiz-adv-x="245" 
d="M81 0v712h83v-712h-83z" />
    <glyph glyph-name="uni0407" unicode="&#x407;" horiz-adv-x="245" 
d="M81 0v712h83v-712h-83zM146 797v94h69v-94h-69zM31 797v94h69v-94h-69z" />
    <glyph glyph-name="uni0408" unicode="&#x408;" horiz-adv-x="385" 
d="M18 66h80c91 0 128 37 128 124v522h83v-520c0 -131 -63 -192 -211 -192h-80v66z" />
    <glyph glyph-name="uni0409" unicode="&#x409;" horiz-adv-x="930" 
d="M13 -5v71h29c70 0 77 26 80 110l16 536h405v-311h158c136 0 195 -53 195 -203c0 -153 -73 -198 -197 -198h-239v636h-246l-13 -476c-3 -105 -26 -165 -137 -165h-51zM699 330h-156v-264h155c84 0 115 25 115 132c0 104 -30 132 -114 132z" />
    <glyph glyph-name="uni040A" unicode="&#x40a;" horiz-adv-x="932" 
d="M81 0v712h83v-311h299v311h82v-311h158c137 0 195 -53 195 -203c0 -153 -73 -198 -196 -198h-239v330h-299v-330h-83zM701 330h-156v-264h155c84 0 115 25 115 132c0 104 -30 132 -114 132z" />
    <glyph glyph-name="uni040B" unicode="&#x40b;" horiz-adv-x="658" 
d="M19 636v76h489v-76h-244v-231c44 7 86 11 141 11c115 0 202 -35 202 -190v-226h-83v214c0 110 -43 132 -137 132c-41 0 -80 -3 -123 -10v-336h-83v636h-162z" />
    <glyph glyph-name="uni040C" unicode="&#x40c;" horiz-adv-x="561" 
d="M81 0v712h83v-311h67l231 311h92l-256 -345l255 -367h-94l-231 330h-64v-330h-83zM268 776l80 156h88l-103 -156h-65z" />
    <glyph glyph-name="uni040D" unicode="&#x40d;" horiz-adv-x="641" 
d="M81 0v712h82v-568l318 568h79v-712h-82v568l-318 -568h-79zM297 776l-103 156h88l80 -156h-65z" />
    <glyph glyph-name="uni040E" unicode="&#x40e;" horiz-adv-x="542" 
d="M89 -5v71h37c49 0 78 11 107 82l12 31l-235 533h84l190 -437l174 437h79l-238 -580c-35 -85 -70 -137 -170 -137h-40zM271 769c-85 0 -143 35 -143 128v8h64v-8c0 -58 35 -74 79 -74s78 15 78 74v8h65v-8c0 -93 -59 -128 -143 -128z" />
    <glyph glyph-name="uni040F" unicode="&#x40f;" horiz-adv-x="633" 
d="M81 0v712h83v-646h306v646h82v-712h-195v-160h-75v160h-201z" />
    <glyph glyph-name="uni0410" unicode="&#x410;" horiz-adv-x="564" 
d="M14 0l223 712h90l223 -712h-85l-52 172h-271l-52 -172h-76zM277 615l-113 -373h227z" />
    <glyph glyph-name="uni0411" unicode="&#x411;" horiz-adv-x="552" 
d="M81 0v712h396v-76h-313v-232h156c137 0 195 -55 195 -204c0 -153 -73 -200 -196 -200h-238zM319 334h-155v-268h154c83 0 115 27 115 134c0 104 -32 134 -114 134z" />
    <glyph glyph-name="uni0412" unicode="&#x412;" horiz-adv-x="577" 
d="M81 0v712h237c131 0 191 -67 191 -188c0 -80 -33 -128 -77 -149c69 -29 100 -92 100 -176c0 -133 -65 -199 -195 -199h-256zM333 330h-169v-264h167c76 0 118 36 118 133s-43 131 -116 131zM315 636h-151v-235h154c85 0 109 40 109 120s-28 115 -112 115z" />
    <glyph glyph-name="uni0413" unicode="&#x413;" horiz-adv-x="470" 
d="M81 0v712h370v-76h-287v-636h-83z" />
    <glyph glyph-name="uni0414" unicode="&#x414;" horiz-adv-x="631" 
d="M15 66h63c19 19 29 58 31 113l15 533h406v-646h78v-222h-76v156h-441v-156h-76v222zM165 66h283v570h-248l-13 -457c-1 -51 -7 -88 -22 -113z" />
    <glyph glyph-name="uni0415" unicode="&#x415;" horiz-adv-x="510" 
d="M81 0v712h381v-76h-298v-235h274v-70h-274v-265h298v-66h-381z" />
    <glyph glyph-name="uni0416" unicode="&#x416;" horiz-adv-x="839" 
d="M9 0l241 367l-242 345h92l217 -311h63v311h80v-311h65l217 311h90l-243 -345l241 -367h-92l-217 330h-61v-330h-80v330h-64l-216 -330h-91z" />
    <glyph glyph-name="uni0417" unicode="&#x417;" horiz-adv-x="550" 
d="M38 212h79c8 -110 41 -158 154 -158c101 0 149 42 149 137c0 88 -36 137 -148 137h-61v73h59c96 0 137 43 137 123c0 88 -44 124 -137 124c-91 0 -142 -32 -150 -148h-78c8 141 65 224 228 224c156 0 219 -75 219 -200c0 -61 -29 -125 -97 -154c68 -24 111 -76 111 -179
c0 -125 -79 -203 -232 -203c-165 0 -225 75 -233 224z" />
    <glyph glyph-name="uni0418" unicode="&#x418;" horiz-adv-x="641" 
d="M81 0v712h82v-568l318 568h79v-712h-82v568l-318 -568h-79z" />
    <glyph glyph-name="uni0419" unicode="&#x419;" horiz-adv-x="641" 
d="M81 0v712h82v-568l318 568h79v-712h-82v568l-318 -568h-79zM320 769c-85 0 -143 35 -143 128v8h64v-8c0 -58 35 -74 79 -74s78 15 78 74v8h65v-8c0 -93 -59 -128 -143 -128z" />
    <glyph glyph-name="uni041A" unicode="&#x41a;" horiz-adv-x="561" 
d="M81 0v712h83v-311h67l231 311h92l-256 -345l255 -367h-94l-231 330h-64v-330h-83z" />
    <glyph glyph-name="uni041B" unicode="&#x41b;" horiz-adv-x="625" 
d="M13 -5v71h29c70 0 77 26 80 110l16 536h406v-712h-82v636h-248l-13 -476c-3 -105 -26 -165 -137 -165h-51z" />
    <glyph glyph-name="uni041C" unicode="&#x41c;" horiz-adv-x="778" 
d="M148 0h-80l28 712h88l209 -576l205 576h83l30 -712h-80l-21 529l-193 -529h-54l-195 536z" />
    <glyph glyph-name="uni041D" unicode="&#x41d;" horiz-adv-x="637" 
d="M81 0v712h83v-311h309v311h83v-712h-83v330h-309v-330h-83z" />
    <glyph glyph-name="uni041E" unicode="&#x41e;" horiz-adv-x="623" 
d="M312 -12c-200 0 -262 98 -262 373c0 264 63 363 262 363c197 0 261 -99 261 -363c0 -275 -61 -373 -261 -373zM312 54c140 0 176 62 176 307c0 223 -36 287 -176 287s-177 -64 -177 -287c0 -245 37 -307 177 -307z" />
    <glyph glyph-name="uni041F" unicode="&#x41f;" horiz-adv-x="633" 
d="M81 0v712h471v-712h-82v636h-306v-636h-83z" />
    <glyph glyph-name="uni0420" unicode="&#x420;" horiz-adv-x="542" 
d="M81 0v712h224c143 0 203 -58 203 -218c0 -163 -75 -211 -205 -211h-139v-283h-83zM305 636h-141v-284h139c89 0 122 27 122 142c0 112 -33 142 -120 142z" />
    <glyph glyph-name="uni0421" unicode="&#x421;" horiz-adv-x="591" 
d="M312 -12c-200 0 -262 98 -262 373c0 264 63 363 262 363c182 0 228 -88 236 -273h-79c-8 148 -40 197 -157 197c-140 0 -177 -64 -177 -287c0 -245 37 -307 177 -307c118 0 148 56 159 205h78c-8 -195 -77 -271 -237 -271z" />
    <glyph glyph-name="uni0422" unicode="&#x422;" horiz-adv-x="525" 
d="M19 636v76h487v-76h-202v-636h-82v636h-203z" />
    <glyph glyph-name="uni0423" unicode="&#x423;" horiz-adv-x="542" 
d="M89 -5v71h37c49 0 78 11 107 82l12 31l-235 533h84l190 -437l174 437h79l-238 -580c-35 -85 -70 -137 -170 -137h-40z" />
    <glyph glyph-name="uni0424" unicode="&#x424;" horiz-adv-x="724" 
d="M322 -24v92c-194 5 -286 81 -286 284c0 215 97 292 286 297v87h81v-87c192 -5 285 -80 285 -297c0 -200 -93 -279 -285 -284v-92h-81zM118 352c0 -180 72 -215 204 -218v439c-137 -3 -204 -41 -204 -221zM605 352c0 179 -68 218 -202 221v-439c132 3 202 38 202 218z" />
    <glyph glyph-name="uni0425" unicode="&#x425;" horiz-adv-x="519" 
d="M9 0l201 363l-193 349h91l156 -284l157 284h81l-193 -349l201 -363h-91l-165 299l-164 -299h-81z" />
    <glyph glyph-name="uni0426" unicode="&#x426;" horiz-adv-x="653" 
d="M81 0v712h83v-646h306v646h82v-646h77v-222h-75v156h-473z" />
    <glyph glyph-name="uni0427" unicode="&#x427;" horiz-adv-x="559" 
d="M252 287c-116 0 -201 35 -201 191v234h83v-223c0 -110 42 -131 136 -131c43 0 82 2 125 9v345h83v-712h-83v298c-44 -7 -87 -11 -143 -11z" />
    <glyph glyph-name="uni0428" unicode="&#x428;" horiz-adv-x="900" 
d="M81 0v712h83v-646h244v646h82v-646h247v646h82v-712h-738z" />
    <glyph glyph-name="uni0429" unicode="&#x429;" horiz-adv-x="920" 
d="M81 0v712h83v-646h244v646h82v-646h247v646h82v-646h78v-222h-76v156h-740z" />
    <glyph glyph-name="uni042A" unicode="&#x42a;" horiz-adv-x="645" 
d="M19 636v76h245v-283h142c144 0 203 -58 203 -217c0 -164 -75 -212 -205 -212h-223v636h-162zM406 355h-142v-289h140c90 0 122 30 122 145c0 114 -32 144 -120 144z" />
    <glyph glyph-name="uni042B" unicode="&#x42b;" horiz-adv-x="732" 
d="M81 0v712h83v-283h124c144 0 204 -58 204 -217c0 -164 -75 -212 -205 -212h-206zM288 355h-124v-289h123c89 0 122 30 122 145c0 114 -33 144 -121 144zM569 0v712h82v-712h-82z" />
    <glyph glyph-name="uni042C" unicode="&#x42c;" horiz-adv-x="545" 
d="M81 0v712h83v-283h142c144 0 203 -58 203 -217c0 -164 -75 -212 -204 -212h-224zM306 355h-142v-289h141c89 0 122 30 122 145c0 114 -33 144 -121 144z" />
    <glyph glyph-name="uni042D" unicode="&#x42d;" horiz-adv-x="579" 
d="M203 330v71h239c-3 192 -36 247 -168 247c-108 0 -144 -43 -155 -156h-80c13 155 67 232 239 232c195 0 251 -99 251 -363c0 -275 -55 -373 -255 -373c-151 0 -219 67 -235 224h78c11 -108 50 -158 157 -158c135 0 166 57 169 276h-240z" />
    <glyph glyph-name="uni042E" unicode="&#x42e;" horiz-adv-x="841" 
d="M81 0v712h83v-311h117c8 235 70 323 255 323c193 0 255 -99 255 -363c0 -275 -60 -373 -255 -373c-188 0 -250 90 -255 342h-117v-330h-83zM366 361c0 -245 36 -307 170 -307s170 62 170 307c0 223 -36 287 -170 287s-170 -64 -170 -287z" />
    <glyph glyph-name="uni042F" unicode="&#x42f;" horiz-adv-x="558" 
d="M30 0l163 291c-92 16 -143 69 -143 203c0 160 61 218 205 218h222v-712h-83v283h-119l-154 -283h-91zM133 494c0 -115 33 -142 122 -142h139v284h-139c-88 0 -122 -30 -122 -142z" />
    <glyph glyph-name="uni0430" unicode="&#x430;" horiz-adv-x="454" 
d="M38 125c0 106 73 144 197 165l75 12v32c0 72 -17 108 -90 108c-71 0 -96 -24 -97 -97h-73c3 108 46 167 177 167c121 0 163 -69 163 -168v-344h-77v62c-19 -39 -60 -70 -127 -70c-95 0 -148 50 -148 133zM310 166v73l-69 -10c-97 -13 -123 -45 -123 -95
c0 -51 28 -77 85 -77c67 0 107 41 107 109z" />
    <glyph glyph-name="uni0431" unicode="&#x431;" horiz-adv-x="501" 
d="M259 -8c-144 0 -198 79 -198 253v127c0 241 42 301 249 330l116 17v-79l-100 -14c-160 -22 -185 -48 -188 -204c20 51 60 76 131 76c132 0 188 -80 188 -253c0 -175 -55 -253 -198 -253zM259 58c87 0 119 48 119 189c0 138 -32 181 -119 181c-85 0 -118 -43 -118 -181
c0 -141 33 -189 118 -189z" />
    <glyph glyph-name="uni0432" unicode="&#x432;" horiz-adv-x="472" 
d="M68 0v504h197c103 0 147 -46 147 -134c0 -57 -26 -90 -57 -105c52 -20 75 -64 75 -124c0 -94 -48 -141 -145 -141h-217zM280 220h-133v-154h132c47 0 70 20 70 77s-24 77 -69 77zM262 434h-115v-147h116c55 0 68 26 68 75c0 51 -16 72 -69 72z" />
    <glyph glyph-name="uni0433" unicode="&#x433;" horiz-adv-x="373" 
d="M68 0v504h289v-70h-209v-434h-80z" />
    <glyph glyph-name="uni0434" unicode="&#x434;" horiz-adv-x="512" 
d="M18 66h57c14 17 21 44 22 81l11 357h314v-438h68v-198h-73v132h-327v-132h-72v198zM153 66h189v368h-165l-8 -287c-1 -35 -7 -65 -16 -81z" />
    <glyph glyph-name="uni0435" unicode="&#x435;" horiz-adv-x="468" 
d="M243 -8c-141 0 -199 74 -199 261c0 182 61 259 198 259s183 -83 183 -248v-19h-301c1 -154 36 -187 119 -187c69 0 98 24 107 91h72c-10 -100 -60 -157 -179 -157zM239 439c-69 0 -105 -29 -113 -132h222c-6 103 -36 132 -109 132z" />
    <glyph glyph-name="uni0436" unicode="&#x436;" horiz-adv-x="670" 
d="M12 0l176 262l-169 242h88l147 -211h42v211h77v-211h43l149 211h86l-170 -242l176 -262h-90l-150 223h-44v-223h-77v223h-46l-150 -223h-88z" />
    <glyph glyph-name="uni0437" unicode="&#x437;" horiz-adv-x="440" 
d="M36 157h79c4 -72 32 -101 103 -101c72 0 99 29 99 84c0 53 -31 79 -93 79h-52v66h52c53 0 83 28 83 79s-24 78 -91 78c-64 0 -90 -23 -97 -95h-79c13 115 61 165 179 165c113 0 168 -53 168 -144c0 -52 -23 -90 -66 -109c51 -19 76 -60 76 -117c0 -92 -52 -150 -176 -150
c-128 0 -178 54 -185 165z" />
    <glyph glyph-name="uni0438" unicode="&#x438;" horiz-adv-x="507" 
d="M68 0v504h75v-379l225 379h71v-504h-75v377l-224 -377h-72z" />
    <glyph glyph-name="uni0439" unicode="&#x439;" horiz-adv-x="507" 
d="M68 0v504h75v-379l225 379h71v-504h-75v377l-224 -377h-72zM254 568c-80 0 -132 35 -132 126v8h61v-8c0 -59 31 -75 71 -75s70 16 70 75v8h61v-8c0 -92 -51 -126 -131 -126z" />
    <glyph glyph-name="uni043A" unicode="&#x43a;" horiz-adv-x="458" 
d="M68 0v504h80v-211h47l157 211h88l-181 -243l188 -261h-93l-158 223h-48v-223h-80z" />
    <glyph glyph-name="uni043B" unicode="&#x43b;" horiz-adv-x="495" 
d="M18 -4v70h26c43 0 57 15 58 67l11 371h314v-504h-80v434h-165l-10 -312c-3 -76 -20 -126 -108 -126h-46z" />
    <glyph glyph-name="uni043C" unicode="&#x43c;" horiz-adv-x="645" 
d="M68 0v504h98l158 -395l160 395h93v-504h-78v370l-149 -370h-55l-149 370v-370h-78z" />
    <glyph glyph-name="uni043D" unicode="&#x43d;" horiz-adv-x="503" 
d="M68 0v504h80v-211h207v211h80v-504h-80v223h-207v-223h-80z" />
    <glyph glyph-name="uni043E" unicode="&#x43e;" horiz-adv-x="484" 
d="M242 -8c-144 0 -198 79 -198 260s55 260 198 260c144 0 198 -79 198 -260s-57 -260 -198 -260zM242 58c85 0 118 48 118 194c0 143 -33 187 -118 187s-118 -44 -118 -187c0 -146 33 -194 118 -194z" />
    <glyph glyph-name="uni043F" unicode="&#x43f;" horiz-adv-x="500" 
d="M68 0v504h364v-504h-80v434h-204v-434h-80z" />
    <glyph glyph-name="uni0440" unicode="&#x440;" horiz-adv-x="508" 
d="M68 -208v712h77v-71c24 53 67 79 128 79c140 0 191 -79 191 -260s-59 -260 -195 -260c-57 0 -98 22 -121 65v-265h-80zM266 58c87 0 119 48 119 194c0 143 -32 187 -119 187c-82 0 -118 -39 -118 -187c0 -146 33 -194 118 -194z" />
    <glyph glyph-name="uni0441" unicode="&#x441;" horiz-adv-x="461" 
d="M241 -8c-142 0 -197 73 -197 261c0 181 57 259 197 259c123 0 172 -67 182 -195h-76c-11 94 -38 122 -109 122c-83 0 -114 -43 -114 -186c0 -153 32 -195 114 -195c71 0 102 33 109 133h76c-9 -144 -70 -199 -182 -199z" />
    <glyph glyph-name="uni0442" unicode="&#x442;" horiz-adv-x="405" 
d="M16 434v70h373v-70h-146v-434h-80v434h-147z" />
    <glyph glyph-name="uni0443" unicode="&#x443;" horiz-adv-x="440" 
d="M39 -142h39c43 0 71 20 91 80l18 57l-172 509h84l128 -394l128 394h74l-193 -571c-31 -92 -61 -141 -157 -141h-40v66z" />
    <glyph glyph-name="uni0444" unicode="&#x444;" horiz-adv-x="648" 
d="M286 -208v197c-169 4 -244 86 -244 263c0 176 75 259 244 263v197h76v-197c169 -4 244 -86 244 -263s-76 -259 -244 -263v-197h-76zM526 252c0 134 -41 185 -164 190v-386c124 3 164 57 164 196zM122 252c0 -139 39 -193 164 -196v386c-123 -5 -164 -56 -164 -190z" />
    <glyph glyph-name="uni0445" unicode="&#x445;" horiz-adv-x="436" 
d="M18 0l154 250l-154 254h89l114 -190l116 190h81l-155 -249l156 -255h-89l-116 191l-116 -191h-80z" />
    <glyph glyph-name="uni0446" unicode="&#x446;" horiz-adv-x="524" 
d="M68 0v504h80v-438h206v438h80v-438h67v-198h-73v132h-360z" />
    <glyph glyph-name="uni0447" unicode="&#x447;" horiz-adv-x="462" 
d="M212 181c-110 0 -171 39 -171 168v155h80v-151c0 -76 29 -104 98 -104c27 0 63 1 95 6v249h80v-504h-80v188c-32 -4 -70 -7 -102 -7z" />
    <glyph glyph-name="uni0448" unicode="&#x448;" horiz-adv-x="699" 
d="M68 0v504h80v-438h162v438h79v-438h162v438h80v-504h-563z" />
    <glyph glyph-name="uni0449" unicode="&#x449;" horiz-adv-x="721" 
d="M68 0v504h80v-438h162v438h79v-438h162v438h80v-438h67v-198h-73v132h-557z" />
    <glyph glyph-name="uni044A" unicode="&#x44a;" horiz-adv-x="536" 
d="M17 434v70h215v-190h115c100 0 158 -34 158 -154c0 -117 -50 -160 -159 -160h-194v434h-135zM347 245h-115v-179h114c56 0 80 22 80 91s-23 88 -79 88z" />
    <glyph glyph-name="uni044B" unicode="&#x44b;" horiz-adv-x="619" 
d="M68 0v504h80v-190h93c101 0 159 -34 159 -154c0 -117 -50 -160 -159 -160h-173zM471 0v504h80v-504h-80zM241 245h-93v-179h93c56 0 79 22 79 91s-23 88 -79 88z" />
    <glyph glyph-name="uni044C" unicode="&#x44c;" horiz-adv-x="452" 
d="M68 0v504h80v-190h115c100 0 158 -34 158 -154c0 -117 -50 -160 -159 -160h-194zM263 245h-115v-179h114c56 0 79 22 79 91s-22 88 -78 88z" />
    <glyph glyph-name="uni044D" unicode="&#x44d;" horiz-adv-x="459" 
d="M177 219v66h156c-5 116 -36 155 -113 155c-65 0 -95 -28 -106 -95h-76c12 112 67 167 183 167c143 0 193 -83 193 -259c0 -188 -53 -261 -194 -261c-117 0 -170 48 -182 168h76c9 -76 39 -103 106 -103c76 0 108 36 113 162h-156z" />
    <glyph glyph-name="uni044E" unicode="&#x44e;" horiz-adv-x="666" 
d="M68 0v504h80v-209h86c8 151 62 217 193 217c141 0 194 -79 194 -260s-54 -260 -194 -260c-135 0 -189 71 -194 234h-85v-226h-80zM312 252c0 -146 31 -194 115 -194s114 48 114 194c0 143 -30 187 -114 187s-115 -44 -115 -187z" />
    <glyph glyph-name="uni044F" unicode="&#x44f;" horiz-adv-x="458" 
d="M27 0l132 198c-72 11 -114 49 -114 149c0 115 47 157 158 157h187v-504h-80v195h-66l-127 -195h-90zM125 348c0 -67 23 -87 79 -87h106v173h-107c-56 0 -78 -21 -78 -86z" />
    <glyph glyph-name="uni0450" unicode="&#x450;" horiz-adv-x="468" 
d="M243 -8c-141 0 -199 74 -199 261c0 182 61 259 198 259s183 -83 183 -248v-19h-301c1 -154 36 -187 119 -187c69 0 98 24 107 91h72c-10 -100 -60 -157 -179 -157zM239 439c-69 0 -105 -29 -113 -132h222c-6 103 -36 132 -109 132zM216 568l-103 156h88l80 -156h-65z" />
    <glyph glyph-name="uni0451" unicode="&#x451;" horiz-adv-x="468" 
d="M243 -8c-141 0 -199 74 -199 261c0 182 61 259 198 259s183 -83 183 -248v-19h-301c1 -154 36 -187 119 -187c69 0 98 24 107 91h72c-10 -100 -60 -157 -179 -157zM239 439c-69 0 -105 -29 -113 -132h222c-6 103 -36 132 -109 132zM283 597v94h80v-94h-80zM115 597v94h80
v-94h-80z" />
    <glyph glyph-name="uni0452" unicode="&#x452;" horiz-adv-x="496" 
d="M262 -142h27c44 0 63 17 63 65v394c0 89 -27 122 -99 122s-105 -31 -105 -122v-317h-80v581h-61v58h61v73h80v-73h121v-58h-121v-135c21 44 62 66 125 66c108 0 159 -66 159 -174v-410c0 -88 -37 -136 -128 -136h-42v66z" />
    <glyph glyph-name="uni0453" unicode="&#x453;" horiz-adv-x="371" 
d="M68 0v504h289v-70h-209v-434h-80zM169 568l80 156h88l-103 -156h-65z" />
    <glyph glyph-name="uni0454" unicode="&#x454;" horiz-adv-x="458" 
d="M240 -8c-144 0 -196 73 -196 261c0 176 52 259 197 259c113 0 167 -59 179 -167h-76c-11 67 -39 95 -104 95c-77 0 -111 -39 -116 -155h157v-66h-157c5 -126 38 -162 114 -162c67 0 97 27 106 103h76c-12 -119 -65 -168 -180 -168z" />
    <glyph glyph-name="uni0455" unicode="&#x455;" horiz-adv-x="429" 
d="M40 143h73c7 -67 37 -87 102 -87c72 0 95 23 95 74c0 52 -17 65 -92 83l-54 13c-73 18 -119 57 -119 144c0 96 61 142 169 142s167 -41 168 -158h-73c-4 71 -32 88 -95 88c-71 0 -92 -24 -92 -72c0 -43 18 -64 82 -80l53 -13c95 -23 131 -67 131 -147
c0 -83 -49 -138 -176 -138c-128 0 -164 63 -172 151z" />
    <glyph glyph-name="uni0456" unicode="&#x456;" horiz-adv-x="216" 
d="M68 618v94h80v-94h-80zM68 0v504h80v-504h-80z" />
    <glyph glyph-name="uni0457" unicode="&#x457;" horiz-adv-x="216" 
d="M68 0v504h80v-504h-80zM126 597v94h63v-94h-63zM27 597v94h63v-94h-63z" />
    <glyph glyph-name="uni0458" unicode="&#x458;" horiz-adv-x="216" 
d="M68 618v94h80v-94h-80zM68 -77v581h80v-576c0 -88 -37 -136 -128 -136h-42v66h27c44 0 63 17 63 65z" />
    <glyph glyph-name="uni0459" unicode="&#x459;" horiz-adv-x="732" 
d="M18 -4v70h26c43 0 57 15 58 67l11 371h317v-201h118c98 0 155 -33 155 -148s-50 -155 -155 -155h-198v434h-168l-10 -312c-3 -76 -20 -126 -108 -126h-46zM548 234h-118v-168h118c53 0 75 21 75 85c0 65 -22 83 -75 83z" />
    <glyph glyph-name="uni045A" unicode="&#x45a;" horiz-adv-x="732" 
d="M68 0v504h80v-208h202v208h79v-208h121c96 0 153 -33 153 -145c0 -111 -47 -151 -154 -151h-199v226h-202v-226h-80zM550 226h-121v-160h120c55 0 74 21 74 82c0 60 -20 78 -73 78z" />
    <glyph glyph-name="uni045B" unicode="&#x45b;" horiz-adv-x="496" 
d="M7 581v58h61v73h80v-73h121v-58h-121v-136c21 45 62 67 125 67c108 0 159 -66 159 -174v-338h-80v317c0 89 -27 122 -99 122c-69 0 -105 -31 -105 -124v-315h-80v581h-61z" />
    <glyph glyph-name="uni045C" unicode="&#x45c;" horiz-adv-x="458" 
d="M68 0v504h80v-211h47l157 211h88l-181 -243l188 -261h-93l-158 223h-48v-223h-80zM211 568l80 156h88l-103 -156h-65z" />
    <glyph glyph-name="uni045D" unicode="&#x45d;" horiz-adv-x="507" 
d="M68 0v504h75v-379l225 379h71v-504h-75v377l-224 -377h-72zM231 568l-103 156h88l80 -156h-65z" />
    <glyph glyph-name="uni045E" unicode="&#x45e;" horiz-adv-x="440" 
d="M39 -142h39c43 0 71 20 91 80l18 57l-172 509h84l128 -394l128 394h74l-193 -571c-31 -92 -61 -141 -157 -141h-40v66zM221 568c-80 0 -132 35 -132 126v8h61v-8c0 -59 31 -75 71 -75s70 16 70 75v8h61v-8c0 -92 -51 -126 -131 -126z" />
    <glyph glyph-name="uni045F" unicode="&#x45f;" horiz-adv-x="502" 
d="M68 0v504h80v-438h206v438h80v-504h-146v-136h-73v136h-147z" />
    <glyph glyph-name="uni0472" unicode="&#x472;" horiz-adv-x="623" 
d="M312 -12c-200 0 -262 98 -262 373c0 264 63 363 262 363c197 0 261 -99 261 -363c0 -275 -61 -373 -261 -373zM312 54c133 0 173 57 176 277c-16 -15 -42 -30 -81 -30c-81 0 -110 45 -191 45c-39 0 -65 -15 -81 -30c5 -208 45 -262 177 -262zM312 648
c-133 0 -174 -58 -177 -255c16 13 42 29 81 29c81 0 110 -44 191 -44c39 0 64 14 80 29c-5 186 -45 241 -175 241z" />
    <glyph glyph-name="uni0473" unicode="&#x473;" horiz-adv-x="484" 
d="M242 -8c-144 0 -198 79 -198 260s55 260 198 260c144 0 198 -79 198 -260s-57 -260 -198 -260zM242 58c81 0 112 42 117 167c-11 -9 -28 -19 -52 -19c-55 0 -77 31 -130 31c-24 0 -41 -9 -53 -18c5 -120 39 -161 118 -161zM242 439c-80 0 -113 -38 -118 -157
c12 9 29 19 53 19c53 0 75 -30 130 -30c24 0 41 9 52 17c-7 113 -40 151 -117 151z" />
    <glyph glyph-name="uni0474" unicode="&#x474;" horiz-adv-x="623" 
d="M237 0l-223 712h85l188 -616l143 470c31 101 55 146 157 146h20v-76h-17c-51 0 -69 -18 -85 -69l-178 -567h-90z" />
    <glyph glyph-name="uni0475" unicode="&#x475;" horiz-adv-x="478" 
d="M183 0l-170 504h84l128 -394l98 303c20 62 43 91 114 91h20v-70h-14c-35 0 -44 -15 -55 -47l-131 -387h-74z" />
    <glyph glyph-name="uni048C" unicode="&#x48c;" horiz-adv-x="653" 
d="M19 636v76h162v88h83v-88h244v-76h-244v-229h156c137 0 195 -55 195 -206c0 -155 -73 -201 -196 -201h-238v636h-162zM419 336h-155v-270h153c84 0 116 28 116 135s-32 135 -114 135z" />
    <glyph glyph-name="uni048D" unicode="&#x48d;" horiz-adv-x="521" 
d="M18 434v70h119v208h80v-208h157v-70h-157v-125h114c100 0 159 -34 159 -151c0 -116 -51 -158 -160 -158h-193v434h-119zM331 239h-114v-173h113c57 0 80 21 80 88s-23 85 -79 85z" />
    <glyph glyph-name="uni0490" unicode="&#x490;" horiz-adv-x="481" 
d="M81 0v712h306v124h75v-200h-298v-636h-83z" />
    <glyph glyph-name="uni0491" unicode="&#x491;" horiz-adv-x="377" 
d="M68 0v504h222v120h73v-190h-215v-434h-80z" />
    <glyph glyph-name="uni0492" unicode="&#x492;" horiz-adv-x="475" 
d="M23 329v64h60v319h370v-76h-287v-243h185v-64h-185v-329h-83v329h-60z" />
    <glyph glyph-name="uni0493" unicode="&#x493;" horiz-adv-x="381" 
d="M15 212v64h61v228h289v-70h-209v-158h121v-64h-121v-212h-80v212h-61z" />
    <glyph glyph-name="uni0496" unicode="&#x496;" horiz-adv-x="867" 
d="M9 0l241 367l-242 345h92l217 -311h63v311h80v-311h64l218 311h90l-243 -345l199 -301h70v-222h-75v156h-45l-217 330h-61v-330h-80v330h-64l-216 -330h-91z" />
    <glyph glyph-name="uni0497" unicode="&#x497;" horiz-adv-x="692" 
d="M12 0l176 261l-169 243h88l147 -211h42v211h77v-211h43l149 211h86l-171 -243l132 -195h62v-198h-73v132h-34l-150 223h-44v-223h-77v223h-46l-150 -223h-88z" />
    <glyph glyph-name="uni0498" unicode="&#x498;" horiz-adv-x="550" 
d="M236 -78l18 66c-152 5 -209 80 -216 224h79c8 -110 41 -158 154 -158c101 0 149 42 149 137c0 88 -36 137 -148 137h-61v73h59c96 0 137 43 137 123c0 88 -44 124 -137 124c-91 0 -142 -32 -150 -148h-78c8 141 65 224 228 224c156 0 219 -75 219 -200
c0 -61 -29 -125 -97 -154c68 -24 111 -76 111 -179c0 -120 -73 -196 -214 -202v-26c76 -4 108 -36 108 -88s-37 -91 -120 -91h-70v46h57c44 0 67 9 67 48c0 35 -23 44 -67 44h-28z" />
    <glyph glyph-name="uni0499" unicode="&#x499;" horiz-adv-x="440" 
d="M178 -78l20 71c-111 7 -156 60 -162 164h79c4 -72 32 -101 103 -101c72 0 99 29 99 84c0 53 -31 79 -93 79h-52v66h52c53 0 83 28 83 79s-24 78 -91 78c-64 0 -90 -23 -97 -95h-79c13 115 61 165 179 165c113 0 168 -53 168 -144c0 -52 -23 -90 -66 -109
c51 -19 76 -60 76 -117c0 -90 -50 -147 -166 -150v-29c76 -4 108 -36 108 -88s-37 -91 -120 -91h-70v46h57c44 0 67 9 67 48c0 35 -23 44 -67 44h-28z" />
    <glyph glyph-name="uni049A" unicode="&#x49a;" horiz-adv-x="587" 
d="M81 0v712h83v-311h67l231 311h92l-257 -345l210 -301h70v-222h-76v156h-42l-231 330h-64v-330h-83z" />
    <glyph glyph-name="uni049B" unicode="&#x49b;" horiz-adv-x="478" 
d="M68 0v504h80v-211h48l156 211h88l-181 -243l139 -195h62v-198h-73v132h-33l-158 223h-48v-223h-80z" />
    <glyph glyph-name="uni049C" unicode="&#x49c;" horiz-adv-x="565" 
d="M81 0v712h83v-311h30v125h65v-125h18l188 311h89l-209 -345l208 -367h-92l-187 330h-15v-128h-65v128h-30v-330h-83z" />
    <glyph glyph-name="uni049D" unicode="&#x49d;" horiz-adv-x="464" 
d="M68 0v504h80v-211h23v105h59v-105h10l117 211h83l-135 -239l142 -265h-87l-119 223h-11v-103h-59v103h-23v-223h-80z" />
    <glyph glyph-name="uni04A0" unicode="&#x4a0;" horiz-adv-x="661" 
d="M19 636v76h245v-311h67l231 311h92l-256 -345l255 -367h-94l-232 330h-63v-330h-83v636h-162z" />
    <glyph glyph-name="uni04A1" unicode="&#x4a1;" horiz-adv-x="540" 
d="M15 434v70h216v-217h47l156 217h89l-184 -248l191 -256h-93l-159 217h-47v-217h-80v434h-136z" />
    <glyph glyph-name="uni04A2" unicode="&#x4a2;" horiz-adv-x="657" 
d="M81 0v712h83v-311h309v311h83v-646h77v-222h-76v156h-84v330h-309v-330h-83z" />
    <glyph glyph-name="uni04A3" unicode="&#x4a3;" horiz-adv-x="525" 
d="M68 0v504h80v-208h207v208h80v-438h67v-198h-73v132h-74v226h-207v-226h-80z" />
    <glyph glyph-name="uni04A4" unicode="&#x4a4;" horiz-adv-x="862" 
d="M81 0v712h83v-311h309v311h370v-76h-287v-636h-83v330h-309v-330h-83z" />
    <glyph glyph-name="uni04A5" unicode="&#x4a5;" horiz-adv-x="658" 
d="M68 0v504h80v-208h207v208h289v-70h-209v-434h-80v226h-207v-226h-80z" />
    <glyph glyph-name="uni04AA" unicode="&#x4aa;" horiz-adv-x="591" 
d="M273 -78l18 66c-183 7 -241 107 -241 373c0 264 63 363 262 363c182 0 228 -88 236 -273h-79c-8 148 -40 197 -157 197c-140 0 -177 -64 -177 -287c0 -245 37 -307 177 -307c118 0 148 56 159 205h78c-8 -190 -73 -266 -223 -271v-25c76 -4 108 -36 108 -88
s-37 -91 -120 -91h-70v46h57c44 0 67 9 67 48c0 35 -23 44 -67 44h-28z" />
    <glyph glyph-name="uni04AB" unicode="&#x4ab;" horiz-adv-x="461" 
d="M199 -78l20 71c-126 7 -175 82 -175 260c0 181 57 259 197 259c123 0 172 -67 182 -195h-76c-11 94 -38 122 -109 122c-83 0 -114 -43 -114 -186c0 -153 32 -195 114 -195c71 0 102 33 109 133h76c-9 -140 -66 -195 -171 -199v-29c76 -4 108 -36 108 -88
s-37 -91 -120 -91h-70v46h57c44 0 67 9 67 48c0 35 -23 44 -67 44h-28z" />
    <glyph glyph-name="uni04AE" unicode="&#x4ae;" horiz-adv-x="544" 
d="M230 0v296l-218 416h93l172 -334l173 334h82l-219 -416v-296h-83z" />
    <glyph glyph-name="uni04AF" unicode="&#x4af;" horiz-adv-x="440" 
d="M427 504l-167 -495v-217h-80v217l-167 495h84l128 -394l128 394h74z" />
    <glyph glyph-name="uni04B0" unicode="&#x4b0;" horiz-adv-x="549" 
d="M63 249v70h158l-206 393h92l172 -334l173 334h82l-206 -393h158v-70h-170v-249h-83v249h-170z" />
    <glyph glyph-name="uni04B1" unicode="&#x4b1;" horiz-adv-x="442" 
d="M55 -22v64h115l-156 462h84l128 -394l128 394h74l-156 -462h112v-64h-123v-186h-80v186h-126z" />
    <glyph glyph-name="uni04B2" unicode="&#x4b2;" horiz-adv-x="553" 
d="M92 0h-83l201 363l-193 349h92l155 -281l155 281h83l-193 -349l165 -297h70v-222h-76v156h-50l-163 296z" />
    <glyph glyph-name="uni04B3" unicode="&#x4b3;" horiz-adv-x="466" 
d="M98 0h-80l157 250l-157 254h89l117 -191l119 191h81l-157 -250l117 -188h62v-198h-73v132h-38l-117 192z" />
    <glyph glyph-name="uni04B6" unicode="&#x4b6;" horiz-adv-x="579" 
d="M252 287c-116 0 -201 35 -201 191v234h83v-223c0 -110 42 -131 136 -131c40 0 82 3 125 9v345h83v-646h77v-222h-76v156h-84v297c-45 -7 -87 -10 -143 -10z" />
    <glyph glyph-name="uni04B7" unicode="&#x4b7;" horiz-adv-x="483" 
d="M212 181c-109 0 -171 39 -171 168v155h80v-151c0 -76 29 -104 98 -104c27 0 63 1 96 6v249h80v-438h66v-198h-73v132h-73v188c-33 -4 -70 -7 -103 -7z" />
    <glyph glyph-name="uni04B8" unicode="&#x4b8;" horiz-adv-x="559" 
d="M395 0v297c-33 -4 -65 -7 -98 -9v-123h-65v122c-105 3 -181 45 -181 191v234h83v-223c0 -95 31 -122 98 -130v136h65v-137c31 1 64 4 98 9v345h83v-712h-83z" />
    <glyph glyph-name="uni04B9" unicode="&#x4b9;" horiz-adv-x="462" 
d="M189 84v97c-96 5 -149 49 -149 168v155h80v-151c0 -64 20 -94 69 -102v111h58v-113c20 1 44 3 67 6v249h80v-504h-80v188c-21 -3 -44 -5 -67 -6v-98h-58z" />
    <glyph glyph-name="uni04BA" unicode="&#x4ba;" horiz-adv-x="558" 
d="M81 0v712h83v-294c44 7 86 11 141 11c115 0 202 -35 202 -191v-238h-83v227c0 109 -42 131 -137 131c-43 0 -80 -2 -123 -9v-349h-83z" />
    <glyph glyph-name="uni04BB" unicode="&#x4bb;" horiz-adv-x="496" 
d="M68 0v712h80v-266c21 44 65 66 125 66c108 0 159 -66 159 -174v-338h-80v317c0 89 -28 122 -99 122c-69 0 -105 -27 -105 -121v-318h-80z" />
    <glyph glyph-name="uni04C0" unicode="&#x4c0;" horiz-adv-x="245" 
d="M81 0v712h83v-712h-83z" />
    <glyph glyph-name="uni04C9" unicode="&#x4c9;" horiz-adv-x="656" 
d="M81 0v712h83v-311h309v311h83v-646h74l-59 -222h-78l40 156h-60v330h-309v-330h-83z" />
    <glyph glyph-name="uni04CA" unicode="&#x4ca;" horiz-adv-x="522" 
d="M68 0v504h80v-208h207v208h80v-438h68l-41 -198h-73l27 132h-61v226h-207v-226h-80z" />
    <glyph glyph-name="uni04CF" unicode="&#x4cf;" horiz-adv-x="216" 
d="M68 0v712h80v-712h-80z" />
    <glyph glyph-name="uni04D2" unicode="&#x4d2;" horiz-adv-x="564" 
d="M14 0l223 712h90l223 -712h-85l-52 172h-271l-52 -172h-76zM277 615l-113 -373h227zM326 805v94h80v-94h-80zM158 805v94h80v-94h-80z" />
    <glyph glyph-name="uni04D3" unicode="&#x4d3;" horiz-adv-x="454" 
d="M38 125c0 106 73 144 197 165l75 12v32c0 72 -17 108 -90 108c-71 0 -96 -24 -97 -97h-73c3 108 46 167 177 167c121 0 163 -69 163 -168v-344h-77v62c-19 -39 -60 -70 -127 -70c-95 0 -148 50 -148 133zM310 166v73l-69 -10c-97 -13 -123 -45 -123 -95
c0 -51 28 -77 85 -77c67 0 107 41 107 109zM264 597v94h80v-94h-80zM96 597v94h80v-94h-80z" />
    <glyph glyph-name="uni04D8" unicode="&#x4d8;" horiz-adv-x="608" 
d="M298 -12c-185 0 -253 89 -253 348v35h428c-3 212 -40 277 -179 277c-109 0 -155 -42 -166 -165h-79c13 161 74 241 245 241c200 0 264 -104 264 -368c0 -274 -64 -368 -260 -368zM298 54c127 0 169 48 174 248h-343c5 -202 48 -248 169 -248z" />
    <glyph glyph-name="uni04D9" unicode="&#x4d9;" horiz-adv-x="468" 
d="M225 -8c-137 0 -183 83 -183 250v17h301c-1 147 -37 180 -119 180c-66 0 -94 -26 -103 -90h-72c10 104 59 163 175 163c141 0 199 -74 199 -261c0 -183 -61 -259 -198 -259zM228 58c70 0 105 28 113 139h-222c5 -108 35 -139 109 -139z" />
    <glyph glyph-name="uni04E2" unicode="&#x4e2;" horiz-adv-x="641" 
d="M81 0v712h82v-568l318 568h79v-712h-82v568l-318 -568h-79zM189 825v58h262v-58h-262z" />
    <glyph glyph-name="uni04E3" unicode="&#x4e3;" horiz-adv-x="507" 
d="M68 0v504h75v-379l225 379h71v-504h-75v377l-224 -377h-72zM123 617v58h262v-58h-262z" />
    <glyph glyph-name="uni04E6" unicode="&#x4e6;" horiz-adv-x="623" 
d="M312 -12c-200 0 -262 98 -262 373c0 264 63 363 262 363c197 0 261 -99 261 -363c0 -275 -61 -373 -261 -373zM312 54c140 0 176 62 176 307c0 223 -36 287 -176 287s-177 -64 -177 -287c0 -245 37 -307 177 -307zM356 805v94h80v-94h-80zM188 805v94h80v-94h-80z" />
    <glyph glyph-name="uni04E7" unicode="&#x4e7;" horiz-adv-x="484" 
d="M242 -8c-144 0 -198 79 -198 260s55 260 198 260c144 0 198 -79 198 -260s-57 -260 -198 -260zM242 58c85 0 118 48 118 194c0 143 -33 187 -118 187s-118 -44 -118 -187c0 -146 33 -194 118 -194zM286 597v94h80v-94h-80zM118 597v94h80v-94h-80z" />
    <glyph glyph-name="uni04E8" unicode="&#x4e8;" horiz-adv-x="623" 
d="M312 -12c-200 0 -262 98 -262 373c0 264 63 363 262 363c197 0 261 -99 261 -363c0 -275 -61 -373 -261 -373zM312 54c133 0 173 57 176 276h-353c3 -219 42 -276 177 -276zM312 648c-132 0 -172 -58 -177 -247h352c-5 189 -43 247 -175 247z" />
    <glyph glyph-name="uni04E9" unicode="&#x4e9;" horiz-adv-x="484" 
d="M242 -8c-144 0 -198 79 -198 260s55 260 198 260c144 0 198 -79 198 -260s-57 -260 -198 -260zM242 58c80 0 112 42 117 162h-235c5 -120 38 -162 118 -162zM242 439c-79 0 -113 -37 -118 -152h235c-5 115 -40 152 -117 152z" />
    <glyph glyph-name="uni04EE" unicode="&#x4ee;" horiz-adv-x="542" 
d="M89 -5v71h37c49 0 78 11 107 82l12 31l-235 533h84l190 -437l174 437h79l-238 -580c-35 -85 -70 -137 -170 -137h-40zM142 825v58h262v-58h-262z" />
    <glyph glyph-name="uni04EF" unicode="&#x4ef;" horiz-adv-x="440" 
d="M39 -142h39c43 0 71 20 91 80l18 57l-172 509h84l128 -394l128 394h74l-193 -571c-31 -92 -61 -141 -157 -141h-40v66zM89 617v58h262v-58h-262z" />
    <glyph glyph-name="uni04F8" unicode="&#x4f8;" horiz-adv-x="732" 
d="M81 0v712h83v-283h124c144 0 204 -58 204 -217c0 -164 -75 -212 -205 -212h-206zM288 355h-124v-289h123c89 0 122 30 122 145c0 114 -33 144 -121 144zM569 0v712h82v-712h-82zM410 805v94h80v-94h-80zM242 805v94h80v-94h-80z" />
    <glyph glyph-name="uni04F9" unicode="&#x4f9;" horiz-adv-x="619" 
d="M68 0v504h80v-190h93c101 0 159 -34 159 -154c0 -117 -50 -160 -159 -160h-173zM471 0v504h80v-504h-80zM241 245h-93v-179h93c56 0 79 22 79 91s-23 88 -79 88zM354 597v94h80v-94h-80zM186 597v94h80v-94h-80z" />
    <glyph glyph-name="uni0E3F" unicode="&#xe3f;" horiz-adv-x="547" 
d="M61 0v712h164v104h80v-104c124 -3 184 -70 184 -188c0 -80 -33 -128 -77 -149c69 -29 100 -93 100 -176c0 -133 -66 -199 -195 -199h-4v-104h-80v104h-172zM313 330h-169v-264h166c76 0 119 36 119 133c0 98 -42 131 -116 131zM295 636h-151v-235h154
c85 0 108 41 108 120s-27 115 -111 115z" />
    <glyph glyph-name="Wgrave" unicode="&#x1e80;" horiz-adv-x="888" 
d="M200 0l-184 712h86l149 -602l167 602h63l165 -604l150 604h76l-184 -712h-88l-152 554l-157 -554h-91zM425 776l-103 156h88l80 -156h-65z" />
    <glyph glyph-name="wgrave" unicode="&#x1e81;" horiz-adv-x="694" 
d="M165 0l-152 504h85l109 -385l116 385h59l115 -385l109 385h75l-152 -504h-73l-109 360l-109 -360h-73zM327 568l-103 156h88l80 -156h-65z" />
    <glyph glyph-name="Wacute" unicode="&#x1e82;" horiz-adv-x="888" 
d="M200 0l-184 712h86l149 -602l167 602h63l165 -604l150 604h76l-184 -712h-88l-152 554l-157 -554h-91zM406 776l80 156h88l-103 -156h-65z" />
    <glyph glyph-name="wacute" unicode="&#x1e83;" horiz-adv-x="694" 
d="M165 0l-152 504h85l109 -385l116 385h59l115 -385l109 385h75l-152 -504h-73l-109 360l-109 -360h-73zM308 568l80 156h88l-103 -156h-65z" />
    <glyph glyph-name="Wdieresis" unicode="&#x1e84;" horiz-adv-x="888" 
d="M200 0l-184 712h86l149 -602l167 602h63l165 -604l150 604h76l-184 -712h-88l-152 554l-157 -554h-91zM492 805v94h80v-94h-80zM324 805v94h80v-94h-80z" />
    <glyph glyph-name="wdieresis" unicode="&#x1e85;" horiz-adv-x="694" 
d="M165 0l-152 504h85l109 -385l116 385h59l115 -385l109 385h75l-152 -504h-73l-109 360l-109 -360h-73zM394 597v94h80v-94h-80zM226 597v94h80v-94h-80z" />
    <glyph glyph-name="uni1E8A" unicode="&#x1e8a;" horiz-adv-x="519" 
d="M9 0l201 363l-193 349h91l156 -284l157 284h81l-193 -349l201 -363h-91l-165 299l-164 -299h-81zM224 805v94h80v-94h-80z" />
    <glyph glyph-name="uni1E8B" unicode="&#x1e8b;" horiz-adv-x="436" 
d="M18 0l154 250l-154 254h89l114 -190l116 190h81l-155 -249l156 -255h-89l-116 191l-116 -191h-80zM182 597v94h80v-94h-80z" />
    <glyph glyph-name="Ygrave" unicode="&#x1ef2;" horiz-adv-x="544" 
d="M230 0v296l-218 416h93l172 -334l173 334h82l-219 -416v-296h-83zM249 776l-103 156h88l80 -156h-65z" />
    <glyph glyph-name="ygrave" unicode="&#x1ef3;" horiz-adv-x="440" 
d="M39 -142h39c43 0 71 20 91 80l18 57l-172 509h84l128 -394l128 394h74l-193 -571c-31 -92 -61 -141 -157 -141h-40v66zM199 568l-103 156h88l80 -156h-65z" />
    <glyph glyph-name="uni2007" unicode="&#x2007;" horiz-adv-x="560" 
 />
    <glyph glyph-name="uni2008" unicode="&#x2008;" horiz-adv-x="206" 
 />
    <glyph glyph-name="uni200B" unicode="&#x200b;" horiz-adv-x="0" 
 />
    <glyph glyph-name="endash" unicode="&#x2013;" horiz-adv-x="620" 
d="M61 258v67h498v-67h-498z" />
    <glyph glyph-name="emdash" unicode="&#x2014;" horiz-adv-x="886" 
d="M61 258v67h764v-67h-764z" />
    <glyph glyph-name="uni2015" unicode="&#x2015;" horiz-adv-x="620" 
d="M61 258v67h498v-67h-498z" />
    <glyph glyph-name="quoteleft" unicode="&#x2018;" horiz-adv-x="180" 
d="M46 493v70l42 149h36v-219h-78z" />
    <glyph glyph-name="quoteright" unicode="&#x2019;" horiz-adv-x="176" 
d="M56 493v219h78v-70l-41 -149h-37z" />
    <glyph glyph-name="quotesinglbase" unicode="&#x201a;" horiz-adv-x="188" 
d="M55 91h78v-70l-41 -149h-37v219z" />
    <glyph glyph-name="quotedblleft" unicode="&#x201c;" horiz-adv-x="329" 
d="M195 493v70l41 149h37v-219h-78zM46 493v70l42 149h36v-219h-78z" />
    <glyph glyph-name="quotedblright" unicode="&#x201d;" horiz-adv-x="325" 
d="M205 493v219h78v-70l-42 -149h-36zM56 493v219h78v-70l-41 -149h-37z" />
    <glyph glyph-name="quotedblbase" unicode="&#x201e;" horiz-adv-x="337" 
d="M204 91h78v-70l-42 -149h-36v219zM55 91h78v-70l-41 -149h-37v219z" />
    <glyph glyph-name="dagger" unicode="&#x2020;" horiz-adv-x="492" 
d="M48 468v67h159v177h77v-177h160v-67h-160v-468h-77v468h-159z" />
    <glyph glyph-name="daggerdbl" unicode="&#x2021;" horiz-adv-x="492" 
d="M48 467v67h159v178h77v-178h160v-67h-160v-227h160v-67h-160v-173h-77v173h-159v67h159v227h-159z" />
    <glyph glyph-name="bullet" unicode="&#x2022;" horiz-adv-x="430" 
d="M100 175v232h230v-232h-230z" />
    <glyph glyph-name="ellipsis" unicode="&#x2026;" horiz-adv-x="631" 
d="M509 0v102h83v-102h-83zM279 0v102h84v-102h-84zM39 0v102h84v-102h-84z" />
    <glyph glyph-name="perthousand" unicode="&#x2030;" horiz-adv-x="1035" 
d="M173 348c-104 0 -139 50 -139 188c0 125 31 184 139 184c109 0 140 -58 140 -184c0 -136 -37 -188 -140 -188zM173 400c56 0 70 24 70 136c0 100 -18 125 -70 125s-69 -25 -69 -125c0 -112 14 -136 69 -136zM103 0l456 712h60l-456 -712h-60zM547 -8
c-104 0 -139 50 -139 188c0 125 31 184 139 184c109 0 140 -58 140 -184c0 -136 -37 -188 -140 -188zM547 44c56 0 70 24 70 136c0 100 -18 125 -70 125s-69 -25 -69 -125c0 -112 14 -136 69 -136zM865 -8c-104 0 -139 50 -139 188c0 125 31 184 139 184
c109 0 140 -58 140 -184c0 -136 -37 -188 -140 -188zM865 44c56 0 70 24 70 136c0 100 -18 125 -70 125s-69 -25 -69 -125c0 -112 14 -136 69 -136z" />
    <glyph glyph-name="guilsinglleft" unicode="&#x2039;" horiz-adv-x="245" 
d="M132 64l-95 192l95 192h66l-84 -192l84 -192h-66z" />
    <glyph glyph-name="guilsinglright" unicode="&#x203a;" horiz-adv-x="245" 
d="M47 64l84 192l-84 192h68l93 -192l-94 -192h-67z" />
    <glyph glyph-name="fraction" unicode="&#x2044;" horiz-adv-x="56" 
d="M-230 0l456 712h60l-456 -712h-60z" />
    <glyph glyph-name="uni2070" unicode="&#x2070;" 
d="M159 508c-104 0 -139 50 -139 188c0 125 31 184 139 184c109 0 140 -58 140 -184c0 -136 -37 -188 -140 -188zM159 560c56 0 70 24 70 136c0 100 -18 125 -70 125s-69 -25 -69 -125c0 -112 14 -136 69 -136z" />
    <glyph glyph-name="uni2071" unicode="&#x2071;" horiz-adv-x="161" 
d="M46 949v73h69v-73h-69zM46 516v356h69v-356h-69z" />
    <glyph glyph-name="uni2074" unicode="&#x2074;" 
d="M12 593v44l151 235h87v-225h50v-54h-50v-77h-67v77h-171zM78 647h105v163z" />
    <glyph glyph-name="uni2075" unicode="&#x2075;" 
d="M24 624h66c4 -48 23 -63 71 -63c49 0 66 22 66 71c0 47 -17 68 -66 68c-44 0 -61 -15 -70 -46h-60v24l20 194h227v-59h-174l-9 -81c19 14 44 21 73 21c84 0 129 -38 129 -122s-49 -122 -136 -122c-91 0 -130 34 -137 115z" />
    <glyph glyph-name="uni2076" unicode="&#x2076;" 
d="M25 629v5c1 51 17 76 43 112l93 126h79l-102 -130c11 4 22 5 33 5c83 0 129 -36 129 -119c0 -88 -53 -120 -137 -120c-85 0 -138 33 -138 121zM95 628c0 -47 17 -68 68 -68s67 21 67 68s-16 66 -67 66s-68 -19 -68 -66z" />
    <glyph glyph-name="uni2077" unicode="&#x2077;" 
d="M69 516l151 297h-195v59h269v-44l-157 -312h-68z" />
    <glyph glyph-name="uni2078" unicode="&#x2078;" 
d="M21 612c0 40 20 66 55 81c-29 15 -48 41 -48 81c0 64 43 106 131 106s132 -42 132 -106c0 -40 -21 -66 -49 -81c35 -15 55 -41 55 -81c0 -72 -50 -104 -138 -104c-89 0 -138 32 -138 104zM159 720c45 0 62 17 62 52c0 34 -21 51 -62 51s-62 -17 -62 -51
c0 -35 17 -52 62 -52zM92 614c0 -36 22 -54 67 -54s67 18 67 54c0 37 -20 54 -67 54s-67 -17 -67 -54z" />
    <glyph glyph-name="uni2079" unicode="&#x2079;" 
d="M80 516l100 129c-10 -3 -21 -5 -32 -5c-84 0 -130 36 -130 119c0 88 54 121 138 121c85 0 138 -33 138 -121v-5c-1 -51 -18 -77 -43 -112l-93 -126h-78zM156 687c51 0 67 21 67 66c0 47 -16 70 -67 70s-67 -23 -67 -70c0 -45 16 -66 67 -66z" />
    <glyph glyph-name="uni207A" unicode="&#x207a;" 
d="M136 579v94h-102v42h102v94h45v-94h103v-42h-103v-94h-45z" />
    <glyph glyph-name="uni207B" unicode="&#x207b;" 
d="M34 673v42h250v-42h-250z" />
    <glyph glyph-name="uni207C" unicode="&#x207c;" 
d="M34 738v42h250v-42h-250zM34 608v42h250v-42h-250z" />
    <glyph glyph-name="uni207D" unicode="&#x207d;" horiz-adv-x="157" 
d="M19 694c0 206 27 238 110 238h16v-53h-6c-44 0 -56 -9 -56 -185c0 -175 12 -185 56 -185h6v-53h-16c-83 0 -110 32 -110 238z" />
    <glyph glyph-name="uni207E" unicode="&#x207e;" horiz-adv-x="157" 
d="M137 694c0 -206 -27 -238 -109 -238h-17v53h7c44 0 56 10 56 185c0 176 -12 185 -56 185h-7v53h17c83 0 109 -32 109 -238z" />
    <glyph glyph-name="uni207F" unicode="&#x207f;" horiz-adv-x="356" 
d="M46 516v356h66v-43c15 34 44 51 89 51c79 0 112 -47 112 -127v-237h-69v220c0 61 -15 82 -62 82c-48 0 -67 -21 -67 -82v-220h-69z" />
    <glyph glyph-name="uni2080" unicode="&#x2080;" 
d="M159 -168c-104 0 -139 50 -139 188c0 125 31 184 139 184c109 0 140 -58 140 -184c0 -136 -37 -188 -140 -188zM159 -116c56 0 70 24 70 136c0 100 -18 125 -70 125s-69 -25 -69 -125c0 -112 14 -136 69 -136z" />
    <glyph glyph-name="uni2081" unicode="&#x2081;" 
d="M153 -160v289l-91 -30v59l109 38h52v-356h-70z" />
    <glyph glyph-name="uni2082" unicode="&#x2082;" 
d="M31 -160v39c0 59 37 89 85 114l44 23c36 19 60 35 60 76c0 39 -21 53 -61 53c-45 0 -62 -16 -69 -71h-65c5 84 43 130 134 130s131 -39 131 -110c0 -63 -44 -96 -84 -117l-47 -25c-43 -23 -56 -33 -59 -60h185v-52h-254z" />
    <glyph glyph-name="uni2083" unicode="&#x2083;" 
d="M20 -44h67c3 -56 24 -72 72 -72c43 0 65 17 65 52s-15 53 -63 53h-36v54h36c47 0 59 22 59 53c0 33 -21 49 -63 49c-40 0 -64 -15 -67 -70h-66c4 83 44 129 133 129c93 0 132 -38 132 -105c0 -32 -16 -62 -45 -78c32 -13 50 -38 50 -85c0 -65 -46 -104 -135 -104
c-92 0 -132 35 -139 124z" />
    <glyph glyph-name="uni2084" unicode="&#x2084;" 
d="M12 -83v44l151 235h87v-225h50v-54h-50v-77h-67v77h-171zM78 -29h105v163z" />
    <glyph glyph-name="uni2085" unicode="&#x2085;" 
d="M24 -52h66c4 -48 23 -63 71 -63c49 0 66 22 66 71c0 47 -17 68 -66 68c-44 0 -61 -15 -70 -46h-60v24l20 194h227v-59h-174l-9 -81c19 14 44 21 73 21c84 0 129 -38 129 -122s-49 -122 -136 -122c-91 0 -130 34 -137 115z" />
    <glyph glyph-name="uni2086" unicode="&#x2086;" 
d="M25 -47v5c1 51 17 76 43 112l93 126h79l-102 -130c11 4 22 5 33 5c83 0 129 -36 129 -119c0 -88 -53 -120 -137 -120c-85 0 -138 33 -138 121zM95 -48c0 -47 17 -68 68 -68s67 21 67 68s-16 66 -67 66s-68 -19 -68 -66z" />
    <glyph glyph-name="uni2087" unicode="&#x2087;" 
d="M69 -160l151 297h-195v59h269v-44l-157 -312h-68z" />
    <glyph glyph-name="uni2088" unicode="&#x2088;" 
d="M21 -64c0 40 20 66 55 81c-29 15 -48 41 -48 81c0 64 43 106 131 106s132 -42 132 -106c0 -40 -21 -66 -49 -81c35 -15 55 -41 55 -81c0 -72 -50 -104 -138 -104c-89 0 -138 32 -138 104zM159 44c45 0 62 17 62 52c0 34 -21 51 -62 51s-62 -17 -62 -51
c0 -35 17 -52 62 -52zM92 -62c0 -36 22 -54 67 -54s67 18 67 54c0 37 -20 54 -67 54s-67 -17 -67 -54z" />
    <glyph glyph-name="uni2089" unicode="&#x2089;" 
d="M79 -160l100 129c-10 -3 -21 -5 -32 -5c-84 0 -130 36 -130 119c0 88 54 121 138 121c85 0 138 -33 138 -121v-5c-1 -51 -18 -77 -43 -112l-93 -126h-78zM155 11c51 0 67 21 67 66c0 47 -16 70 -67 70s-67 -23 -67 -70c0 -45 16 -66 67 -66z" />
    <glyph glyph-name="uni208A" unicode="&#x208a;" 
d="M136 -97v94h-102v42h102v94h45v-94h103v-42h-103v-94h-45z" />
    <glyph glyph-name="uni208B" unicode="&#x208b;" 
d="M34 -3v42h250v-42h-250z" />
    <glyph glyph-name="uni208C" unicode="&#x208c;" 
d="M34 62v42h250v-42h-250zM34 -68v42h250v-42h-250z" />
    <glyph glyph-name="uni208D" unicode="&#x208d;" horiz-adv-x="157" 
d="M19 18c0 206 27 238 110 238h16v-53h-6c-44 0 -56 -9 -56 -185c0 -175 12 -185 56 -185h6v-53h-16c-83 0 -110 32 -110 238z" />
    <glyph glyph-name="uni208E" unicode="&#x208e;" horiz-adv-x="157" 
d="M137 18c0 -206 -27 -238 -109 -238h-17v53h7c44 0 56 10 56 185c0 176 -12 185 -56 185h-7v53h17c83 0 109 -32 109 -238z" />
    <glyph glyph-name="uni2090" unicode="&#x2090;" horiz-adv-x="330" 
d="M27 -71c0 73 49 100 141 116l50 9v18c0 48 -10 74 -57 74s-62 -18 -63 -67h-62c1 77 35 125 130 125s121 -58 121 -126v-238h-66v43c-12 -28 -41 -51 -89 -51c-67 0 -105 36 -105 97zM95 -65c0 -33 18 -50 54 -50c39 0 69 22 69 66v53l-42 -7c-63 -11 -81 -29 -81 -62z
" />
    <glyph glyph-name="uni2091" unicode="&#x2091;" horiz-adv-x="339" 
d="M177 -168c-105 0 -146 51 -146 186c0 133 44 186 144 186c103 0 135 -58 135 -180v-14h-211c1 -103 22 -124 78 -124c46 0 65 15 70 60h61c-7 -72 -44 -114 -131 -114zM174 145c-45 0 -68 -17 -74 -87h145c-3 68 -23 87 -71 87z" />
    <glyph glyph-name="uni2092" unicode="&#x2092;" horiz-adv-x="351" 
d="M176 -168c-107 0 -145 56 -145 187s38 185 145 185s144 -54 144 -185c0 -132 -37 -187 -144 -187zM176 -113c56 0 75 31 75 132c0 99 -19 124 -75 124s-76 -25 -76 -124c0 -101 20 -132 76 -132z" />
    <glyph glyph-name="uni2093" unicode="&#x2093;" horiz-adv-x="320" 
d="M9 -160l115 176l-113 179h75l77 -121l79 121h68l-114 -174l114 -181h-75l-78 123l-80 -123h-68z" />
    <glyph glyph-name="uni2095" unicode="&#x2095;" horiz-adv-x="356" 
d="M46 -160v506h69v-187c15 30 43 45 86 45c79 0 112 -47 112 -123v-241h-68v221c0 61 -16 81 -63 81c-48 0 -67 -18 -67 -81v-221h-69z" />
    <glyph glyph-name="uni2096" unicode="&#x2096;" horiz-adv-x="337" 
d="M46 -160v506h69v-316l139 166h75l-125 -147l125 -209h-76l-94 158l-44 -52v-106h-69z" />
    <glyph glyph-name="uni2097" unicode="&#x2097;" horiz-adv-x="161" 
d="M46 -160v506h69v-506h-69z" />
    <glyph glyph-name="uni2098" unicode="&#x2098;" horiz-adv-x="555" 
d="M46 -160v356h66v-43c14 34 44 51 89 51c53 0 85 -20 101 -59c15 37 47 59 98 59c80 0 112 -47 112 -123v-241h-68v221c0 61 -17 81 -64 81s-67 -18 -67 -81v-221h-68v221c0 61 -16 81 -63 81c-48 0 -67 -18 -67 -81v-221h-69z" />
    <glyph glyph-name="uni2099" unicode="&#x2099;" horiz-adv-x="356" 
d="M46 -160v356h66v-43c15 34 44 51 89 51c79 0 112 -47 112 -127v-237h-69v220c0 61 -15 82 -62 82c-48 0 -67 -21 -67 -82v-220h-69z" />
    <glyph glyph-name="uni209A" unicode="&#x209a;" horiz-adv-x="366" 
d="M115 -122v-186h-69v503h66v-48c16 40 48 57 89 57c97 0 134 -53 134 -185s-42 -187 -137 -187c-39 0 -67 15 -83 46zM190 -113c56 0 75 31 75 132c0 99 -19 124 -75 124s-75 -25 -75 -124c0 -101 19 -132 75 -132z" />
    <glyph glyph-name="uni209B" unicode="&#x209b;" horiz-adv-x="312" 
d="M29 -56h61c4 -44 23 -60 66 -60c47 0 61 18 61 50c0 29 -11 39 -58 50l-40 9c-53 12 -88 41 -88 104c0 71 45 107 125 107c84 0 122 -34 123 -117h-62c-3 45 -17 59 -60 59c-47 0 -60 -17 -60 -48c0 -28 12 -41 55 -51l40 -9c64 -14 91 -47 91 -103
c0 -60 -34 -103 -129 -103s-122 48 -125 112z" />
    <glyph glyph-name="uni209C" unicode="&#x209c;" horiz-adv-x="244" 
d="M60 -45v183h-44v58h47v87h65v-87h99v-58h-99v-185c0 -44 15 -58 56 -58h43v-55h-55c-77 0 -112 35 -112 115z" />
    <glyph glyph-name="colonmonetary" unicode="&#x20a1;" horiz-adv-x="512" 
d="M340 -12c-16 0 -31 1 -45 2l-20 -94h-47l21 99c-22 4 -42 9 -60 17l-24 -116h-47l29 139c-70 51 -103 150 -103 325c0 252 80 348 249 362l20 94h47l-20 -92c21 0 43 -2 63 -5l21 97h47l-23 -107c16 -4 30 -10 44 -16v-78c-19 8 -39 15 -60 21l-123 -581
c10 -1 20 -1 31 -1c56 0 106 13 152 34v-69c-41 -20 -98 -31 -152 -31zM129 360c0 -111 13 -183 39 -229l108 512c-98 -18 -147 -90 -147 -283zM205 87c17 -13 36 -21 58 -26l124 583c-15 2 -31 4 -47 4c-6 0 -11 -1 -16 -1z" />
    <glyph glyph-name="uni20A2" unicode="&#x20a2;" horiz-adv-x="531" 
d="M340 -12c-203 0 -296 80 -296 372c0 275 95 364 296 364c54 0 111 -11 152 -31v-78c-46 20 -96 33 -152 33c-141 0 -211 -57 -211 -288c0 -215 48 -284 146 -301v212c0 95 48 150 148 150h61v-70h-58c-50 0 -74 -24 -74 -74v-223c51 1 97 14 140 34v-69
c-41 -20 -98 -31 -152 -31z" />
    <glyph glyph-name="uni20A5" unicode="&#x20a5;" horiz-adv-x="767" 
d="M345 100v187l-127 -287h-43l170 384v33c0 89 -29 122 -99 122c-69 0 -105 -29 -105 -122v-317h-80v504h77v-65c20 49 64 73 128 73c72 0 119 -30 142 -83l82 183h43l-49 -111c19 7 42 11 66 11c107 0 159 -66 159 -174v-338h-80v317c0 89 -29 122 -99 122
c-69 0 -105 -29 -105 -123v-316h-80z" />
    <glyph glyph-name="uni20A6" unicode="&#x20a6;" horiz-adv-x="661" 
d="M20 389v47h73v276h73l162 -276h157v276h83v-276h73v-47h-73v-66h73v-47h-73v-276h-73l-163 276h-156v-276h-83v276h-73v47h73v66h-73zM356 389l39 -66h90v66h-129zM176 389v-66h129l-39 66h-90zM238 436l-62 106v-106h62zM422 276l63 -106v106h-63z" />
    <glyph glyph-name="uni20A9" unicode="&#x20a9;" horiz-adv-x="800" 
d="M20 389v47h68l-59 276h85l56 -276h134l64 276h61l65 -276h138l57 276h81l-60 -276h70v-47h-80l-15 -66h95v-47h-105l-59 -276h-90l-66 276h-124l-63 -276h-91l-60 276h-102v47h92l-14 66h-78zM505 389l15 -66h89l13 66h-117zM180 389l13 -66h85l15 66h-113zM362 389
l-15 -66h102l-15 66h-72zM531 276l37 -153l31 153h-68zM203 276l30 -149l34 149h-64zM423 436l-26 107l-24 -107h50z" />
    <glyph glyph-name="uni20AA" unicode="&#x20aa;" horiz-adv-x="698" 
d="M226 194v354h83v-353c0 -83 35 -118 125 -118h120v635h83v-712h-202c-147 0 -209 64 -209 194zM61 0v712h202c148 0 209 -64 209 -194v-354h-82v353c0 83 -35 118 -126 118h-120v-635h-83z" />
    <glyph glyph-name="dong" unicode="&#x20ab;" horiz-adv-x="496" 
d="M234 589v52h120v76h80v-76h62v-52h-62v-457h-77v49c-26 -39 -70 -58 -131 -58c-132 0 -182 62 -182 202c0 141 60 203 192 203c53 0 93 -15 118 -47v108h-120zM239 190c84 0 115 34 115 135c0 100 -31 130 -115 130s-115 -30 -115 -130c0 -101 31 -135 115 -135zM65 0v57
h371v-57h-371z" />
    <glyph glyph-name="Euro" unicode="&#x20ac;" horiz-adv-x="560" 
d="M22 393v66h77c15 198 79 265 225 265c163 0 203 -94 213 -253h-82c-6 131 -39 177 -129 177c-92 0 -133 -38 -144 -189h165v-66h-168v-76h168v-66h-165c12 -152 53 -194 144 -194c90 0 124 50 130 185h82c-9 -158 -57 -254 -214 -254c-145 0 -209 69 -225 263h-77v66h74
v76h-74z" />
    <glyph glyph-name="uni20AD" unicode="&#x20ad;" horiz-adv-x="582" 
d="M20 325v62h82v325h82v-325h53l250 325h90l-251 -325h207v-62h-201l250 -325h-96l-249 325h-53v-325h-82v325h-82z" />
    <glyph glyph-name="uni20AE" unicode="&#x20ae;" horiz-adv-x="560" 
d="M49 636v76h469v-76h-193v-174l145 50v-66l-145 -50v-80l145 50v-66l-145 -50v-250h-83v221l-146 -50v67l146 50v79l-146 -50v67l146 50v202h-193z" />
    <glyph glyph-name="uni20B2" unicode="&#x20b2;" horiz-adv-x="583" 
d="M258 -10c-164 15 -216 119 -216 371c0 242 53 345 216 361v94h80v-94c141 -10 190 -89 202 -234h-79c-10 114 -50 160 -157 160c-141 0 -177 -64 -177 -287c0 -245 36 -307 177 -307c120 0 162 61 162 214v32h-162v70h240v-102c0 -177 -65 -267 -206 -278v-94h-80v94z
" />
    <glyph glyph-name="uni20B3" unicode="&#x20b3;" horiz-adv-x="594" 
d="M20 312v64h131l101 336h91l101 -336h130v-64h-111l22 -74h89v-64h-70l53 -174h-85l-51 174h-257l-51 -174h-76l52 174h-69v64h89l22 74h-111zM292 612l-69 -236h139zM204 312l-22 -74h220l-22 74h-176z" />
    <glyph glyph-name="uni20B4" unicode="&#x20b4;" horiz-adv-x="560" 
d="M32 393v66h340c14 22 22 49 22 79c0 75 -34 110 -106 110c-70 0 -108 -31 -123 -120h-80c16 125 65 196 203 196c132 0 188 -71 188 -183c0 -30 -6 -58 -15 -82h67v-66h-496zM32 251v66h496v-66h-350c-12 -20 -19 -49 -19 -79c0 -82 38 -118 121 -118
c78 0 113 37 125 128h80c-15 -132 -73 -194 -205 -194c-140 0 -204 69 -204 182c0 29 6 57 15 81h-59z" />
    <glyph glyph-name="uni20B5" unicode="&#x20b5;" horiz-adv-x="574" 
d="M260 -10c-165 14 -218 118 -218 371c0 243 53 347 218 361v94h80v-94c153 -11 191 -99 200 -271h-78c-9 149 -40 197 -158 197c-141 0 -177 -64 -177 -287c0 -245 36 -307 177 -307c118 0 150 56 159 205h79c-9 -179 -68 -258 -202 -269v-94h-80v94z" />
    <glyph glyph-name="uni20B8" unicode="&#x20b8;" horiz-adv-x="560" 
d="M46 495v76h468v-76h-193v-495h-82v495h-193zM46 646v66h468v-66h-468z" />
    <glyph glyph-name="uni20B9" unicode="&#x20b9;" horiz-adv-x="548" 
d="M326 0l-287 320v32h155c80 0 114 22 121 107h-279v70h278c-6 84 -40 107 -118 107h-160v76h480v-70h-149c18 -28 28 -65 31 -113h118v-70h-118c-10 -134 -82 -170 -204 -170h-29l254 -289h-93z" />
    <glyph glyph-name="uni20BA" unicode="&#x20ba;" horiz-adv-x="574" 
d="M20 435v64l102 34v179h82v-151l204 70v-64l-204 -70v-77l204 70v-64l-204 -70v-290h5c192 0 249 45 249 278v13h78v-13c0 -271 -80 -344 -330 -344h-84v328l-102 -34v64l102 34v77z" />
    <glyph glyph-name="uni20BC" unicode="&#x20bc;" horiz-adv-x="714" 
d="M56 0v254c0 239 80 319 260 329v129h80v-129c180 -10 262 -90 262 -329v-254h-83v254c0 195 -57 245 -179 253v-411h-80v411c-121 -8 -178 -59 -178 -253v-254h-82z" />
    <glyph glyph-name="uni20BD" unicode="&#x20bd;" horiz-adv-x="560" 
d="M48 283v69h86v360h183c143 0 203 -58 203 -218c0 -162 -75 -211 -205 -211h-99v-74h180v-69h-180v-140h-82v140h-86v69h86v74h-86zM216 352h99c90 0 122 28 122 142c0 113 -32 142 -120 142h-101v-284z" />
    <glyph glyph-name="uni20BE" unicode="&#x20be;" horiz-adv-x="658" 
d="M47 353c0 237 61 333 187 361v102h66v-93c11 0 22 1 34 1s23 -1 35 -1v93h63v-101c115 -23 171 -102 178 -291h-79c-6 140 -38 193 -99 213v-214h-63v224c-12 0 -24 1 -36 1s-23 0 -33 -1v-224h-66v213c-70 -25 -105 -94 -105 -283c0 -261 127 -287 261 -287h242v-66
h-604v66h128c-71 45 -109 129 -109 287z" />
    <glyph glyph-name="uni2113" unicode="&#x2113;" horiz-adv-x="331" 
d="M66 126v460c0 84 47 134 123 134c81 0 122 -42 122 -126c0 -107 -71 -215 -168 -304v-158c0 -48 25 -69 64 -69c29 0 63 12 87 35v-75c-23 -19 -60 -31 -95 -31c-88 0 -133 51 -133 134zM143 588v-213c57 65 93 136 93 213c0 44 -20 62 -47 62s-46 -15 -46 -62z" />
    <glyph glyph-name="uni2116" unicode="&#x2116;" horiz-adv-x="942" 
d="M81 0v712h73l319 -542v542h83v-712h-73l-319 542v-542h-83zM769 348c-107 0 -145 56 -145 187s38 185 145 185s144 -54 144 -185c0 -132 -37 -187 -144 -187zM769 403c56 0 75 31 75 132c0 99 -19 124 -75 124s-76 -25 -76 -124c0 -101 20 -132 76 -132z" />
    <glyph glyph-name="trademark" unicode="&#x2122;" horiz-adv-x="572" 
d="M270 439v273h66l62 -190l61 190h67v-273h-52v183l-60 -183h-36l-61 186v-186h-47zM30 666v46h191v-46h-69v-227h-53v227h-69z" />
    <glyph glyph-name="Omega" unicode="&#x2126;" horiz-adv-x="633" 
d="M60 0v66h149v33c-100 32 -158 105 -158 300c0 211 68 325 266 325c197 0 265 -111 265 -325c0 -195 -58 -268 -158 -300v-33h149v-66h-218v146c89 16 142 59 142 251c0 187 -41 251 -180 251c-140 0 -181 -68 -181 -251c0 -191 53 -235 142 -251v-146h-218z" />
    <glyph glyph-name="estimated" unicode="&#x212e;" horiz-adv-x="901" 
d="M197 238c0 -121 153 -167 254 -167c135 0 248 47 304 146h103c-80 -167 -241 -229 -407 -229c-233 0 -416 166 -416 366s183 366 416 366c241 0 416 -164 416 -366v-29h-670v-87zM197 396h499v83c0 121 -137 166 -245 166c-99 0 -254 -37 -254 -166v-83z" />
    <glyph glyph-name="onethird" unicode="&#x2153;" horiz-adv-x="692" 
d="M132 356v289l-91 -30v59l109 38h52v-356h-70zM56 0l456 712h60l-456 -712h-60zM373 116h67c3 -56 24 -72 72 -72c43 0 65 17 65 52s-15 53 -63 53h-36v54h36c47 0 59 22 59 53c0 33 -21 49 -63 49c-40 0 -64 -15 -67 -70h-66c4 83 44 129 133 129c93 0 132 -38 132 -105
c0 -32 -16 -62 -45 -78c32 -13 50 -38 50 -85c0 -65 -46 -104 -135 -104c-92 0 -132 35 -139 124z" />
    <glyph glyph-name="twothirds" unicode="&#x2154;" horiz-adv-x="692" 
d="M32 356v39c0 59 37 89 85 114l44 23c36 19 60 35 60 76c0 39 -21 53 -61 53c-45 0 -62 -16 -69 -71h-65c5 84 43 130 134 130s131 -39 131 -110c0 -63 -44 -96 -84 -117l-47 -25c-43 -23 -56 -33 -59 -60h185v-52h-254zM104 0l456 712h60l-456 -712h-60zM393 116h67
c3 -56 24 -72 72 -72c43 0 65 17 65 52s-15 53 -63 53h-36v54h36c47 0 59 22 59 53c0 33 -21 49 -63 49c-40 0 -64 -15 -67 -70h-66c4 83 44 129 133 129c93 0 132 -38 132 -105c0 -32 -16 -62 -45 -78c32 -13 50 -38 50 -85c0 -65 -46 -104 -135 -104
c-92 0 -132 35 -139 124z" />
    <glyph glyph-name="uni2155" unicode="&#x2155;" horiz-adv-x="692" 
d="M132 356v289l-91 -30v59l109 38h52v-356h-70zM48 0l456 712h60l-456 -712h-60zM377 108h66c4 -48 23 -63 71 -63c49 0 66 22 66 71c0 47 -17 68 -66 68c-44 0 -61 -15 -70 -46h-60v24l20 194h227v-59h-174l-9 -81c19 14 44 21 73 21c84 0 129 -38 129 -122
s-49 -122 -136 -122c-91 0 -130 34 -137 115z" />
    <glyph glyph-name="uni2156" unicode="&#x2156;" horiz-adv-x="692" 
d="M31 356v39c0 59 37 89 85 114l44 23c36 19 60 35 60 76c0 39 -21 53 -61 53c-45 0 -62 -16 -69 -71h-65c5 84 43 130 134 130s131 -39 131 -110c0 -63 -44 -96 -84 -117l-47 -25c-43 -23 -56 -33 -59 -60h185v-52h-254zM95 0l456 712h60l-456 -712h-60zM396 108h66
c4 -48 23 -63 71 -63c49 0 66 22 66 71c0 47 -17 68 -66 68c-44 0 -61 -15 -70 -46h-60v24l20 194h227v-59h-174l-9 -81c19 14 44 21 73 21c84 0 129 -38 129 -122s-49 -122 -136 -122c-91 0 -130 34 -137 115z" />
    <glyph glyph-name="uni2157" unicode="&#x2157;" horiz-adv-x="692" 
d="M20 472h67c3 -56 24 -72 72 -72c43 0 65 17 65 52s-15 53 -63 53h-36v54h36c47 0 59 22 59 53c0 33 -21 49 -63 49c-40 0 -64 -15 -67 -70h-66c4 83 44 129 133 129c93 0 132 -38 132 -105c0 -32 -16 -62 -45 -78c32 -13 50 -38 50 -85c0 -65 -46 -104 -135 -104
c-92 0 -132 35 -139 124zM85 0l456 712h60l-456 -712h-60zM398 108h66c4 -48 23 -63 71 -63c49 0 66 22 66 71c0 47 -17 68 -66 68c-44 0 -61 -15 -70 -46h-60v24l20 194h227v-59h-174l-9 -81c19 14 44 21 73 21c84 0 129 -38 129 -122s-49 -122 -136 -122
c-91 0 -130 34 -137 115z" />
    <glyph glyph-name="uni2158" unicode="&#x2158;" horiz-adv-x="692" 
d="M11 433v44l151 235h87v-225h50v-54h-50v-77h-67v77h-171zM77 487h105v163zM80 0l456 712h60l-456 -712h-60zM397 108h66c4 -48 23 -63 71 -63c49 0 66 22 66 71c0 47 -17 68 -66 68c-44 0 -61 -15 -70 -46h-60v24l20 194h227v-59h-174l-9 -81c19 14 44 21 73 21
c84 0 129 -38 129 -122s-49 -122 -136 -122c-91 0 -130 34 -137 115z" />
    <glyph glyph-name="uni2159" unicode="&#x2159;" horiz-adv-x="692" 
d="M130 356v289l-91 -30v59l109 38h52v-356h-70zM78 0l456 712h60l-456 -712h-60zM376 113v5c1 51 17 76 43 112l93 126h79l-102 -130c11 4 22 5 33 5c83 0 129 -36 129 -119c0 -88 -53 -120 -137 -120c-85 0 -138 33 -138 121zM446 112c0 -47 17 -68 68 -68s67 21 67 68
s-16 66 -67 66s-68 -19 -68 -66z" />
    <glyph glyph-name="uni215A" unicode="&#x215a;" horiz-adv-x="692" 
d="M22 464h66c4 -48 23 -63 71 -63c49 0 66 22 66 71c0 47 -17 68 -66 68c-44 0 -61 -15 -70 -46h-60v24l20 194h227v-59h-174l-9 -81c19 14 44 21 73 21c84 0 129 -38 129 -122s-49 -122 -136 -122c-91 0 -130 34 -137 115zM107 0l456 712h60l-456 -712h-60zM397 113v5
c1 51 17 76 43 112l93 126h79l-102 -130c11 4 22 5 33 5c83 0 129 -36 129 -119c0 -88 -53 -120 -137 -120c-85 0 -138 33 -138 121zM467 112c0 -47 17 -68 68 -68s67 21 67 68s-16 66 -67 66s-68 -19 -68 -66z" />
    <glyph glyph-name="oneeighth" unicode="&#x215b;" horiz-adv-x="692" 
d="M130 356v289l-91 -30v59l109 38h52v-356h-70zM54 0l456 712h60l-456 -712h-60zM373 96c0 40 20 66 55 81c-29 15 -48 41 -48 81c0 64 43 106 131 106s132 -42 132 -106c0 -40 -21 -66 -49 -81c35 -15 55 -41 55 -81c0 -72 -50 -104 -138 -104c-89 0 -138 32 -138 104z
M511 204c45 0 62 17 62 52c0 34 -21 51 -62 51s-62 -17 -62 -51c0 -35 17 -52 62 -52zM444 98c0 -36 22 -54 67 -54s67 18 67 54c0 37 -20 54 -67 54s-67 -17 -67 -54z" />
    <glyph glyph-name="threeeighths" unicode="&#x215c;" horiz-adv-x="692" 
d="M20 472h67c3 -56 24 -72 72 -72c43 0 65 17 65 52s-15 53 -63 53h-36v54h36c47 0 59 22 59 53c0 33 -21 49 -63 49c-40 0 -64 -15 -67 -70h-66c4 83 44 129 133 129c93 0 132 -38 132 -105c0 -32 -16 -62 -45 -78c32 -13 50 -38 50 -85c0 -65 -46 -104 -135 -104
c-92 0 -132 35 -139 124zM89 0l456 712h60l-456 -712h-60zM396 96c0 40 20 66 55 81c-29 15 -48 41 -48 81c0 64 43 106 131 106s132 -42 132 -106c0 -40 -21 -66 -49 -81c35 -15 55 -41 55 -81c0 -72 -50 -104 -138 -104c-89 0 -138 32 -138 104zM534 204c45 0 62 17 62 52
c0 34 -21 51 -62 51s-62 -17 -62 -51c0 -35 17 -52 62 -52zM467 98c0 -36 22 -54 67 -54s67 18 67 54c0 37 -20 54 -67 54s-67 -17 -67 -54z" />
    <glyph glyph-name="fiveeighths" unicode="&#x215d;" horiz-adv-x="692" 
d="M21 464h66c4 -48 23 -63 71 -63c49 0 66 22 66 71c0 47 -17 68 -66 68c-44 0 -61 -15 -70 -46h-60v24l20 194h227v-59h-174l-9 -81c19 14 44 21 73 21c84 0 129 -38 129 -122s-49 -122 -136 -122c-91 0 -130 34 -137 115zM86 0l456 712h60l-456 -712h-60zM393 96
c0 40 20 66 55 81c-29 15 -48 41 -48 81c0 64 43 106 131 106s132 -42 132 -106c0 -40 -21 -66 -49 -81c35 -15 55 -41 55 -81c0 -72 -50 -104 -138 -104c-89 0 -138 32 -138 104zM531 204c45 0 62 17 62 52c0 34 -21 51 -62 51s-62 -17 -62 -51c0 -35 17 -52 62 -52z
M464 98c0 -36 22 -54 67 -54s67 18 67 54c0 37 -20 54 -67 54s-67 -17 -67 -54z" />
    <glyph glyph-name="seveneighths" unicode="&#x215e;" horiz-adv-x="692" 
d="M64 356l151 297h-195v59h269v-44l-157 -312h-68zM59 0l456 712h60l-456 -712h-60zM390 96c0 40 20 66 55 81c-29 15 -48 41 -48 81c0 64 43 106 131 106s132 -42 132 -106c0 -40 -21 -66 -49 -81c35 -15 55 -41 55 -81c0 -72 -50 -104 -138 -104c-89 0 -138 32 -138 104z
M528 204c45 0 62 17 62 52c0 34 -21 51 -62 51s-62 -17 -62 -51c0 -35 17 -52 62 -52zM461 98c0 -36 22 -54 67 -54s67 18 67 54c0 37 -20 54 -67 54s-67 -17 -67 -54z" />
    <glyph glyph-name="arrowleft" unicode="&#x2190;" horiz-adv-x="661" 
d="M325 158l-52 -48l-247 246l247 246l52 -48l-167 -167c54 3 133 4 162 4h310v-69h-310c-29 0 -108 0 -162 3z" />
    <glyph glyph-name="arrowup" unicode="&#x2191;" horiz-adv-x="544" 
d="M71 363l-46 48l246 246l248 -246l-46 -48l-170 172c3 -53 4 -135 4 -162v-319h-70v319c0 26 0 109 4 162z" />
    <glyph glyph-name="arrowright" unicode="&#x2192;" horiz-adv-x="661" 
d="M388 110l-53 48l168 167c-53 -3 -134 -3 -162 -3h-310v69h310c28 0 108 -1 162 -4l-168 167l53 48l246 -246z" />
    <glyph glyph-name="arrowdown" unicode="&#x2193;" horiz-adv-x="543" 
d="M473 349l45 -48l-247 -246l-246 246l45 48l171 -172c-4 55 -4 135 -4 162v319h69v-319c0 -27 0 -106 -3 -162z" />
    <glyph glyph-name="uni2196" unicode="&#x2196;" horiz-adv-x="540" 
d="M60 588h352v-68h-239c42 -37 110 -106 130 -126l211 -212l-47 -51l-212 214c-19 20 -92 90 -127 131v-241h-68v353z" />
    <glyph glyph-name="uni2197" unicode="&#x2197;" horiz-adv-x="540" 
d="M128 588h352v-353h-69v241c-35 -40 -106 -111 -126 -131l-212 -214l-48 51l212 212c19 19 89 89 129 126h-238v68z" />
    <glyph glyph-name="uni2198" unicode="&#x2198;" horiz-adv-x="540" 
d="M480 131h-352v68h238c-41 35 -110 106 -129 125l-212 213l48 51l212 -214c20 -20 91 -90 126 -131v241h69v-353z" />
    <glyph glyph-name="uni2199" unicode="&#x2199;" horiz-adv-x="540" 
d="M412 131h-352v353h68v-241c36 42 106 110 127 131l212 214l47 -51l-211 -213c-19 -20 -86 -90 -130 -125h239v-68z" />
    <glyph glyph-name="partialdiff" unicode="&#x2202;" horiz-adv-x="501" 
d="M44 236c0 169 56 244 195 244c61 0 104 -20 127 -69v44c0 125 -54 189 -171 189h-109v68h104c179 0 250 -99 250 -260v-210c0 -173 -63 -250 -196 -250c-141 0 -200 73 -200 244zM124 230c0 -132 33 -172 118 -172s118 40 118 172c0 142 -33 177 -118 177
s-118 -35 -118 -177z" />
    <glyph glyph-name="Delta" unicode="&#x2206;" horiz-adv-x="582" 
d="M23 0l223 712h90l223 -712h-536zM286 615l-167 -549h335z" />
    <glyph glyph-name="product" unicode="&#x220f;" horiz-adv-x="636" 
d="M81 0v712h474v-712h-82v642h-309v-642h-83z" />
    <glyph glyph-name="summation" unicode="&#x2211;" horiz-adv-x="514" 
d="M36 0v56l265 307l-267 293v56h438v-76h-318l232 -256v-36l-246 -278h334v-66h-438z" />
    <glyph glyph-name="minus" unicode="&#x2212;" horiz-adv-x="560" 
d="M56 257v66h448v-66h-448z" />
    <glyph glyph-name="uni2215" unicode="&#x2215;" horiz-adv-x="56" 
d="M-230 0l456 712h60l-456 -712h-60z" />
    <glyph glyph-name="uni2219" unicode="&#x2219;" horiz-adv-x="207" 
d="M61 240v102h85v-102h-85z" />
    <glyph glyph-name="radical" unicode="&#x221a;" horiz-adv-x="631" 
d="M278 0l-172 415l-85 -38v69l129 58l159 -394h4l237 602h71l-284 -712h-59z" />
    <glyph glyph-name="infinity" unicode="&#x221e;" horiz-adv-x="708" 
d="M184 174c-84 0 -136 41 -136 118c0 72 52 122 136 122c65 0 120 -41 171 -85c52 44 104 85 169 85c84 0 136 -50 136 -122c0 -77 -52 -118 -136 -118c-65 0 -118 40 -169 85c-51 -44 -106 -85 -171 -85zM184 226c47 0 89 31 132 68c-43 36 -85 68 -132 68
c-51 0 -82 -30 -82 -70c0 -43 31 -66 82 -66zM524 362c-43 0 -86 -33 -129 -68c43 -36 86 -68 129 -68c51 0 82 23 82 66c0 40 -31 70 -82 70z" />
    <glyph glyph-name="integral" unicode="&#x222b;" horiz-adv-x="355" 
d="M16 -138h64c72 0 111 26 111 106c0 160 -104 428 -104 568c0 132 83 176 188 176h64v-70h-64c-73 0 -111 -26 -111 -106c0 -148 104 -424 104 -568c0 -132 -85 -176 -188 -176h-64v70z" />
    <glyph glyph-name="approxequal" unicode="&#x2248;" horiz-adv-x="560" 
d="M56 358v67c18 19 52 56 116 56c99 0 134 -80 216 -80c64 0 98 37 116 56v-67c-18 -19 -52 -56 -116 -56c-92 0 -125 80 -216 80c-64 0 -98 -37 -116 -56zM56 155v67c18 19 52 56 116 56c99 0 134 -80 216 -80c64 0 98 37 116 56v-67c-18 -19 -52 -56 -116 -56
c-92 0 -125 80 -216 80c-64 0 -98 -37 -116 -56z" />
    <glyph glyph-name="notequal" unicode="&#x2260;" horiz-adv-x="560" 
d="M56 361v66h260l78 153h68l-78 -153h120v-66h-154l-72 -142h226v-66h-260l-78 -153h-68l78 153h-120v66h153l73 142h-226z" />
    <glyph glyph-name="lessequal" unicode="&#x2264;" horiz-adv-x="560" 
d="M56 373v66l448 181v-66l-365 -148l365 -148v-66zM56 0v66h448v-66h-448z" />
    <glyph glyph-name="greaterequal" unicode="&#x2265;" horiz-adv-x="560" 
d="M56 554v66l448 -181v-66l-448 -181v66l365 148zM56 0v66h448v-66h-448z" />
    <glyph glyph-name="uni25A0" unicode="&#x25a0;" horiz-adv-x="743" 
d="M16 0v712h711v-712h-711z" />
    <glyph glyph-name="uni25A1" unicode="&#x25a1;" horiz-adv-x="743" 
d="M16 0v712h711v-712h-711zM86 67h570v578h-570v-578z" />
    <glyph glyph-name="uni25B6" unicode="&#x25b6;" horiz-adv-x="478" 
d="M16 -8v520l454 -260z" />
    <glyph glyph-name="uni25B7" unicode="&#x25b7;" horiz-adv-x="478" 
d="M16 -8v520l454 -260zM86 110l259 142l-259 143v-285z" />
    <glyph glyph-name="uni25C0" unicode="&#x25c0;" horiz-adv-x="478" 
d="M462 512v-520l-454 260z" />
    <glyph glyph-name="uni25C1" unicode="&#x25c1;" horiz-adv-x="478" 
d="M133 252l259 -142v285zM462 512v-520l-454 260z" />
    <glyph glyph-name="lozenge" unicode="&#x25ca;" horiz-adv-x="616" 
d="M276 0l-254 352l255 360h63l254 -360l-252 -352h-66zM306 72h4l202 280l-202 280h-4l-201 -280z" />
    <glyph glyph-name="circle" unicode="&#x25cb;" horiz-adv-x="552" 
d="M17 251c0 151 113 261 259 261c145 0 259 -105 259 -261c0 -152 -114 -263 -259 -263c-146 0 -259 107 -259 263zM87 251c0 -120 82 -201 189 -201s189 84 189 201c0 119 -82 199 -189 199s-189 -83 -189 -199z" />
    <glyph glyph-name="H18533" unicode="&#x25cf;" horiz-adv-x="552" 
d="M17 251c0 151 113 261 259 261c145 0 259 -105 259 -261c0 -152 -114 -263 -259 -263c-146 0 -259 107 -259 263z" />
    <glyph glyph-name="uni25FB" unicode="&#x25fb;" horiz-adv-x="535" 
d="M16 0v504h503v-504h-503zM85 64h365v377h-365v-377z" />
    <glyph glyph-name="uni25FC" unicode="&#x25fc;" horiz-adv-x="535" 
d="M16 0v504h503v-504h-503z" />
    <glyph glyph-name="uni2605" unicode="&#x2605;" horiz-adv-x="566" 
d="M116 13l68 183l-162 108l5 16l195 -9l53 189h16l52 -189l196 9l5 -16l-163 -108l69 -183l-14 -10l-153 121l-153 -121z" />
    <glyph glyph-name="uniFB00" unicode="&#xfb00;" horiz-adv-x="584" 
d="M23 434v70h64v50c0 101 52 158 157 158h63v-73h-60c-57 0 -80 -26 -80 -83v-52h191v50c0 101 52 158 156 158h64v-73h-60c-57 0 -80 -26 -80 -83v-52h129v-70h-129v-434h-80v434h-191v-434h-80v434h-64z" />
    <glyph glyph-name="fi" unicode="&#xfb01;" horiz-adv-x="490" 
d="M342 0v434h-175v-434h-80v434h-64v70h64v50c0 103 52 158 157 158h38v-73h-35c-57 0 -80 -26 -80 -83v-52h255v-504h-80zM342 618v94h80v-94h-80z" />
    <glyph glyph-name="fl" unicode="&#xfb02;" horiz-adv-x="490" 
d="M23 434v70h64v33c0 116 53 175 173 175h162v-712h-80v639h-79c-71 0 -96 -28 -96 -99v-36h94v-70h-94v-434h-80v434h-64z" />
    <glyph glyph-name="uniFB03" unicode="&#xfb03;" horiz-adv-x="761" 
d="M87 0v434h-64v70h64v50c0 101 52 158 157 158h63v-73h-60c-57 0 -80 -26 -80 -83v-52h191v50c0 103 52 158 157 158h38v-73h-35c-57 0 -80 -26 -80 -83v-52h255v-504h-80v434h-175v-434h-80v434h-191v-434h-80zM613 618v94h80v-94h-80z" />
    <glyph glyph-name="uniFB04" unicode="&#xfb04;" horiz-adv-x="761" 
d="M87 0v434h-64v70h64v50c0 101 52 158 157 158h63v-73h-60c-57 0 -80 -26 -80 -83v-52h191v33c0 116 53 175 173 175h162v-712h-80v639h-79c-71 0 -96 -28 -96 -99v-36h94v-70h-94v-434h-80v434h-191v-434h-80z" />
    <glyph glyph-name="uniFEFF" unicode="&#xfeff;" horiz-adv-x="0" 
 />
    <glyph glyph-name="i.latn_TRK" horiz-adv-x="216" 
d="M68 618v94h80v-94h-80zM68 0v504h80v-504h-80z" />
    <glyph glyph-name="Ldot.latn_CAT" horiz-adv-x="480" 
d="M81 0v712h83v-646h298v-66h-381zM296 327v94h80v-94h-80z" />
    <glyph glyph-name="ldot.latn_CAT" horiz-adv-x="250" 
d="M68 0v712h80v-712h-80zM193 327v94h80v-94h-80z" />
    <glyph glyph-name="dollar.subs" 
d="M26 -56h64c5 -45 27 -59 70 -59c47 0 65 16 65 47c0 29 -14 40 -65 52l-35 8c-56 13 -96 40 -96 108c0 60 36 94 100 102v58h61v-58c64 -7 95 -40 98 -115h-64c-3 47 -24 58 -65 58c-45 0 -62 -14 -62 -45c0 -29 15 -43 59 -54l34 -8c67 -17 102 -44 102 -105
c0 -56 -32 -92 -104 -99v-63h-61v63c-69 8 -97 49 -101 110z" />
    <glyph glyph-name="comma.subs" horiz-adv-x="156" 
d="M45 -82h67v-57l-32 -112h-35v169z" />
    <glyph glyph-name="hyphen.subs" horiz-adv-x="277" 
d="M42 -3v42h193v-42h-193z" />
    <glyph glyph-name="period.subs" horiz-adv-x="156" 
d="M44 -160v78h67v-78h-67z" />
    <glyph glyph-name="b.subs" horiz-adv-x="366" 
d="M46 -160v506h69v-192c17 33 45 50 86 50c97 0 134 -53 134 -185s-42 -187 -137 -187c-40 0 -70 14 -87 55v-47h-65zM190 -113c56 0 75 31 75 132c0 99 -19 124 -75 124s-75 -25 -75 -124c0 -101 19 -132 75 -132z" />
    <glyph glyph-name="c.subs" horiz-adv-x="335" 
d="M175 -168c-106 0 -143 53 -143 188c0 130 39 184 143 184c93 0 126 -50 132 -143h-64c-7 63 -23 82 -70 82c-54 0 -72 -25 -72 -125c0 -105 19 -131 72 -131c48 0 66 23 70 90h64c-6 -102 -48 -145 -132 -145z" />
    <glyph glyph-name="d.subs" horiz-adv-x="366" 
d="M162 -168c-95 0 -130 55 -130 187s42 185 137 185c37 0 66 -13 83 -46v188h68v-506h-65v48c-17 -37 -48 -56 -93 -56zM176 -113c56 0 76 31 76 132c0 99 -20 124 -76 124s-75 -25 -75 -124c0 -101 19 -132 75 -132z" />
    <glyph glyph-name="f.subs" horiz-adv-x="231" 
d="M64 -160v298h-44v58h44v35c0 77 38 115 115 115h49v-61h-43c-35 0 -53 -18 -53 -55v-34h88v-58h-88v-298h-68z" />
    <glyph glyph-name="g.subs" horiz-adv-x="366" 
d="M46 -194h65c3 -47 17 -65 69 -65c49 0 72 16 72 75v70c-19 -36 -49 -51 -90 -51c-95 0 -130 54 -130 185s42 184 137 184c40 0 70 -15 87 -54v45h64v-377c0 -91 -42 -131 -138 -131c-104 0 -131 44 -136 119zM176 -110c56 0 76 30 76 130c0 97 -20 123 -76 123
s-75 -26 -75 -123c0 -100 19 -130 75 -130z" />
    <glyph glyph-name="i.subs" horiz-adv-x="161" 
d="M46 273v73h69v-73h-69zM46 -160v356h69v-356h-69z" />
    <glyph glyph-name="j.subs" horiz-adv-x="161" 
d="M46 273v73h69v-73h-69zM46 -208v404h69v-398c0 -69 -30 -106 -102 -106h-32v55h21c31 0 44 12 44 45z" />
    <glyph glyph-name="q.subs" horiz-adv-x="366" 
d="M162 -168c-95 0 -130 55 -130 187s42 185 137 185c40 0 69 -15 86 -52v43h65v-503h-68v191c-19 -36 -49 -51 -90 -51zM176 -113c56 0 76 31 76 132c0 99 -20 124 -76 124s-75 -25 -75 -124c0 -101 19 -132 75 -132z" />
    <glyph glyph-name="r.subs" horiz-adv-x="224" 
d="M44 -160v244c0 75 38 112 113 112h57v-58h-51c-33 0 -50 -17 -50 -51v-247h-69z" />
    <glyph glyph-name="u.subs" horiz-adv-x="356" 
d="M43 -41v237h68v-225c0 -61 17 -84 64 -84s67 25 67 86v223h68v-356h-65v44c-15 -35 -45 -52 -90 -52c-79 0 -112 47 -112 127z" />
    <glyph glyph-name="v.subs" horiz-adv-x="329" 
d="M133 -160l-121 356h72l85 -265l86 265h63l-122 -356h-63z" />
    <glyph glyph-name="w.subs" horiz-adv-x="508" 
d="M119 -160l-107 356h72l72 -260l77 260h52l77 -260l72 260h62l-106 -356h-63l-73 240l-72 -240h-63z" />
    <glyph glyph-name="y.subs" horiz-adv-x="330" 
d="M33 -253h28c32 0 49 12 64 53l11 33l-124 363h72l85 -265l86 265h63l-136 -401c-22 -66 -46 -103 -117 -103h-32v55z" />
    <glyph glyph-name="z.subs" horiz-adv-x="291" 
d="M28 -160v39l154 259h-156v58h240v-39l-156 -262h153v-55h-235z" />
    <glyph glyph-name="cent.subs" 
d="M140 -171v57c-72 8 -100 46 -100 130s29 123 100 130v58h53v-57c64 -8 85 -46 89 -102h-62c-4 36 -17 52 -53 52c-40 0 -61 -10 -61 -83c0 -72 22 -84 61 -84c36 0 49 15 53 52h62c-4 -55 -33 -88 -89 -95v-58h-53z" />
    <glyph glyph-name="Euro.subs" 
d="M7 -54v38h34c-1 11 -1 21 -1 33v21h-33v40h36c11 95 54 126 138 126c93 0 120 -38 125 -128h-60c-5 56 -18 74 -65 74c-43 0 -62 -13 -70 -72h83v-40h-85v-21c0 -12 0 -22 1 -33h84v-38h-81c8 -51 28 -63 68 -63c47 0 60 19 65 74h60c-5 -83 -36 -125 -125 -125
c-81 0 -123 29 -136 114h-38z" />
    <glyph glyph-name="dollar.sups" 
d="M26 620h64c5 -45 27 -59 70 -59c47 0 65 16 65 47c0 29 -14 40 -65 52l-35 8c-56 13 -96 40 -96 108c0 60 36 94 100 102v58h61v-58c64 -7 95 -40 98 -115h-64c-3 47 -24 58 -65 58c-45 0 -62 -14 -62 -45c0 -29 15 -43 59 -54l34 -8c67 -17 102 -44 102 -105
c0 -56 -32 -92 -104 -99v-63h-61v63c-69 8 -97 49 -101 110z" />
    <glyph glyph-name="comma.sups" horiz-adv-x="156" 
d="M45 594h67v-57l-32 -112h-35v169z" />
    <glyph glyph-name="hyphen.sups" horiz-adv-x="277" 
d="M42 673v42h193v-42h-193z" />
    <glyph glyph-name="period.sups" horiz-adv-x="156" 
d="M44 516v78h67v-78h-67z" />
    <glyph glyph-name="a.sups" horiz-adv-x="330" 
d="M27 605c0 73 49 100 141 116l50 9v18c0 48 -10 74 -57 74s-62 -18 -63 -67h-62c1 77 35 125 130 125s121 -58 121 -126v-238h-66v43c-12 -28 -41 -51 -89 -51c-67 0 -105 36 -105 97zM95 611c0 -33 18 -50 54 -50c39 0 69 22 69 66v53l-42 -7c-63 -11 -81 -29 -81 -62z
" />
    <glyph glyph-name="b.sups" horiz-adv-x="366" 
d="M46 516v506h69v-192c17 33 45 50 86 50c97 0 134 -53 134 -185s-42 -187 -137 -187c-40 0 -70 14 -87 55v-47h-65zM190 563c56 0 75 31 75 132c0 99 -19 124 -75 124s-75 -25 -75 -124c0 -101 19 -132 75 -132z" />
    <glyph glyph-name="c.sups" horiz-adv-x="335" 
d="M175 508c-106 0 -143 53 -143 188c0 130 39 184 143 184c93 0 126 -50 132 -143h-64c-7 63 -23 82 -70 82c-54 0 -72 -25 -72 -125c0 -105 19 -131 72 -131c48 0 66 23 70 90h64c-6 -102 -48 -145 -132 -145z" />
    <glyph glyph-name="d.sups" horiz-adv-x="366" 
d="M162 508c-95 0 -130 55 -130 187s42 185 137 185c37 0 66 -13 83 -46v188h68v-506h-65v48c-17 -37 -48 -56 -93 -56zM176 563c56 0 76 31 76 132c0 99 -20 124 -76 124s-75 -25 -75 -124c0 -101 19 -132 75 -132z" />
    <glyph glyph-name="e.sups" horiz-adv-x="339" 
d="M177 508c-105 0 -146 51 -146 186c0 133 44 186 144 186c103 0 135 -58 135 -180v-14h-211c1 -103 22 -124 78 -124c46 0 65 15 70 60h61c-7 -72 -44 -114 -131 -114zM174 821c-45 0 -68 -17 -74 -87h145c-3 68 -23 87 -71 87z" />
    <glyph glyph-name="f.sups" horiz-adv-x="231" 
d="M64 516v298h-44v58h44v35c0 77 38 115 115 115h49v-61h-43c-35 0 -53 -18 -53 -55v-34h88v-58h-88v-298h-68z" />
    <glyph glyph-name="g.sups" horiz-adv-x="366" 
d="M46 482h65c3 -47 17 -65 69 -65c49 0 72 16 72 75v70c-19 -36 -49 -51 -90 -51c-95 0 -130 54 -130 185s42 184 137 184c40 0 70 -15 87 -54v45h64v-377c0 -91 -42 -131 -138 -131c-104 0 -131 44 -136 119zM176 566c56 0 76 30 76 130c0 97 -20 123 -76 123
s-75 -26 -75 -123c0 -100 19 -130 75 -130z" />
    <glyph glyph-name="h.sups" horiz-adv-x="356" 
d="M46 516v506h69v-187c15 30 43 45 86 45c79 0 112 -47 112 -123v-241h-68v221c0 61 -16 81 -63 81c-48 0 -67 -18 -67 -81v-221h-69z" />
    <glyph glyph-name="j.sups" horiz-adv-x="161" 
d="M46 949v73h69v-73h-69zM46 468v404h69v-398c0 -69 -30 -106 -102 -106h-32v55h21c31 0 44 12 44 45z" />
    <glyph glyph-name="k.sups" horiz-adv-x="337" 
d="M46 516v506h69v-316l139 166h75l-125 -147l125 -209h-76l-94 158l-44 -52v-106h-69z" />
    <glyph glyph-name="l.sups" horiz-adv-x="161" 
d="M46 516v506h69v-506h-69z" />
    <glyph glyph-name="m.sups" horiz-adv-x="555" 
d="M46 516v356h66v-43c14 34 44 51 89 51c53 0 85 -20 101 -59c15 37 47 59 98 59c80 0 112 -47 112 -123v-241h-68v221c0 61 -17 81 -64 81s-67 -18 -67 -81v-221h-68v221c0 61 -16 81 -63 81c-48 0 -67 -18 -67 -81v-221h-69z" />
    <glyph glyph-name="o.sups" horiz-adv-x="351" 
d="M176 508c-107 0 -145 56 -145 187s38 185 145 185s144 -54 144 -185c0 -132 -37 -187 -144 -187zM176 563c56 0 75 31 75 132c0 99 -19 124 -75 124s-76 -25 -76 -124c0 -101 20 -132 76 -132z" />
    <glyph glyph-name="p.sups" horiz-adv-x="366" 
d="M115 554v-186h-69v503h66v-48c16 40 48 57 89 57c97 0 134 -53 134 -185s-42 -187 -137 -187c-39 0 -67 15 -83 46zM190 563c56 0 75 31 75 132c0 99 -19 124 -75 124s-75 -25 -75 -124c0 -101 19 -132 75 -132z" />
    <glyph glyph-name="q.sups" horiz-adv-x="366" 
d="M162 508c-95 0 -130 55 -130 187s42 185 137 185c40 0 69 -15 86 -52v43h65v-503h-68v191c-19 -36 -49 -51 -90 -51zM176 563c56 0 76 31 76 132c0 99 -20 124 -76 124s-75 -25 -75 -124c0 -101 19 -132 75 -132z" />
    <glyph glyph-name="r.sups" horiz-adv-x="224" 
d="M44 516v244c0 75 38 112 113 112h57v-58h-51c-33 0 -50 -17 -50 -51v-247h-69z" />
    <glyph glyph-name="s.sups" horiz-adv-x="312" 
d="M29 620h61c4 -44 23 -60 66 -60c47 0 61 18 61 50c0 29 -11 39 -58 50l-40 9c-53 12 -88 41 -88 104c0 71 45 107 125 107c84 0 122 -34 123 -117h-62c-3 45 -17 59 -60 59c-47 0 -60 -17 -60 -48c0 -28 12 -41 55 -51l40 -9c64 -14 91 -47 91 -103
c0 -60 -34 -103 -129 -103s-122 48 -125 112z" />
    <glyph glyph-name="t.sups" horiz-adv-x="244" 
d="M60 631v183h-44v58h47v87h65v-87h99v-58h-99v-185c0 -44 15 -58 56 -58h43v-55h-55c-77 0 -112 35 -112 115z" />
    <glyph glyph-name="u.sups" horiz-adv-x="356" 
d="M43 635v237h68v-225c0 -61 17 -84 64 -84s67 25 67 86v223h68v-356h-65v44c-15 -35 -45 -52 -90 -52c-79 0 -112 47 -112 127z" />
    <glyph glyph-name="v.sups" horiz-adv-x="329" 
d="M133 516l-121 356h72l85 -265l86 265h63l-122 -356h-63z" />
    <glyph glyph-name="w.sups" horiz-adv-x="508" 
d="M119 516l-107 356h72l72 -260l77 260h52l77 -260l72 260h62l-106 -356h-63l-73 240l-72 -240h-63z" />
    <glyph glyph-name="x.sups" horiz-adv-x="320" 
d="M9 516l115 176l-113 179h75l77 -121l79 121h68l-114 -174l114 -181h-75l-78 123l-80 -123h-68z" />
    <glyph glyph-name="y.sups" horiz-adv-x="330" 
d="M33 423h28c32 0 49 12 64 53l11 33l-124 363h72l85 -265l86 265h63l-136 -401c-22 -66 -46 -103 -117 -103h-32v55z" />
    <glyph glyph-name="z.sups" horiz-adv-x="291" 
d="M28 516v39l154 259h-156v58h240v-39l-156 -262h153v-55h-235z" />
    <glyph glyph-name="cent.sups" 
d="M140 505v57c-72 8 -100 46 -100 130s29 123 100 130v58h53v-57c64 -8 85 -46 89 -102h-62c-4 36 -17 52 -53 52c-40 0 -61 -10 -61 -83c0 -72 22 -84 61 -84c36 0 49 15 53 52h62c-4 -55 -33 -88 -89 -95v-58h-53z" />
    <glyph glyph-name="Euro.sups" 
d="M7 622v38h34c-1 11 -1 21 -1 33v21h-33v40h36c11 95 54 126 138 126c93 0 120 -38 125 -128h-60c-5 56 -18 74 -65 74c-43 0 -62 -13 -70 -72h83v-40h-85v-21c0 -12 0 -22 1 -33h84v-38h-81c8 -51 28 -63 68 -63c47 0 60 19 65 74h60c-5 -83 -36 -125 -125 -125
c-81 0 -123 29 -136 114h-38z" />
    <glyph glyph-name="dollar.numr" 
d="M26 460h64c5 -45 27 -59 70 -59c47 0 65 16 65 47c0 29 -14 40 -65 52l-35 8c-56 13 -96 40 -96 108c0 60 36 94 100 102v58h61v-58c64 -7 95 -40 98 -115h-64c-3 47 -24 58 -65 58c-45 0 -62 -14 -62 -45c0 -29 15 -43 59 -54l34 -8c67 -17 102 -44 102 -105
c0 -56 -32 -92 -104 -99v-63h-61v63c-69 8 -97 49 -101 110z" />
    <glyph glyph-name="parenleft.numr" horiz-adv-x="157" 
d="M19 534c0 206 27 238 110 238h16v-53h-6c-44 0 -56 -9 -56 -185c0 -175 12 -185 56 -185h6v-53h-16c-83 0 -110 32 -110 238z" />
    <glyph glyph-name="parenright.numr" horiz-adv-x="157" 
d="M137 534c0 -206 -27 -238 -109 -238h-17v53h7c44 0 56 10 56 185c0 176 -12 185 -56 185h-7v53h17c83 0 109 -32 109 -238z" />
    <glyph glyph-name="plus.numr" 
d="M136 419v94h-102v42h102v94h45v-94h103v-42h-103v-94h-45z" />
    <glyph glyph-name="comma.numr" horiz-adv-x="156" 
d="M45 434h67v-57l-32 -112h-35v169z" />
    <glyph glyph-name="hyphen.numr" horiz-adv-x="277" 
d="M42 513v42h193v-42h-193z" />
    <glyph glyph-name="period.numr" horiz-adv-x="156" 
d="M44 356v78h67v-78h-67z" />
    <glyph glyph-name="zero.numr" 
d="M159 348c-104 0 -139 50 -139 188c0 125 31 184 139 184c109 0 140 -58 140 -184c0 -136 -37 -188 -140 -188zM159 400c56 0 70 24 70 136c0 100 -18 125 -70 125s-69 -25 -69 -125c0 -112 14 -136 69 -136z" />
    <glyph glyph-name="one.numr" 
d="M153 356v289l-91 -30v59l109 38h52v-356h-70z" />
    <glyph glyph-name="two.numr" 
d="M31 356v39c0 59 37 89 85 114l44 23c36 19 60 35 60 76c0 39 -21 53 -61 53c-45 0 -62 -16 -69 -71h-65c5 84 43 130 134 130s131 -39 131 -110c0 -63 -44 -96 -84 -117l-47 -25c-43 -23 -56 -33 -59 -60h185v-52h-254z" />
    <glyph glyph-name="three.numr" 
d="M20 472h67c3 -56 24 -72 72 -72c43 0 65 17 65 52s-15 53 -63 53h-36v54h36c47 0 59 22 59 53c0 33 -21 49 -63 49c-40 0 -64 -15 -67 -70h-66c4 83 44 129 133 129c93 0 132 -38 132 -105c0 -32 -16 -62 -45 -78c32 -13 50 -38 50 -85c0 -65 -46 -104 -135 -104
c-92 0 -132 35 -139 124z" />
    <glyph glyph-name="four.numr" 
d="M12 433v44l151 235h87v-225h50v-54h-50v-77h-67v77h-171zM78 487h105v163z" />
    <glyph glyph-name="five.numr" 
d="M24 464h66c4 -48 23 -63 71 -63c49 0 66 22 66 71c0 47 -17 68 -66 68c-44 0 -61 -15 -70 -46h-60v24l20 194h227v-59h-174l-9 -81c19 14 44 21 73 21c84 0 129 -38 129 -122s-49 -122 -136 -122c-91 0 -130 34 -137 115z" />
    <glyph glyph-name="six.numr" 
d="M25 469v5c1 51 17 76 43 112l93 126h79l-102 -130c11 4 22 5 33 5c83 0 129 -36 129 -119c0 -88 -53 -120 -137 -120c-85 0 -138 33 -138 121zM95 468c0 -47 17 -68 68 -68s67 21 67 68s-16 66 -67 66s-68 -19 -68 -66z" />
    <glyph glyph-name="seven.numr" 
d="M69 356l151 297h-195v59h269v-44l-157 -312h-68z" />
    <glyph glyph-name="eight.numr" 
d="M21 452c0 40 20 66 55 81c-29 15 -48 41 -48 81c0 64 43 106 131 106s132 -42 132 -106c0 -40 -21 -66 -49 -81c35 -15 55 -41 55 -81c0 -72 -50 -104 -138 -104c-89 0 -138 32 -138 104zM159 560c45 0 62 17 62 52c0 34 -21 51 -62 51s-62 -17 -62 -51
c0 -35 17 -52 62 -52zM92 454c0 -36 22 -54 67 -54s67 18 67 54c0 37 -20 54 -67 54s-67 -17 -67 -54z" />
    <glyph glyph-name="nine.numr" 
d="M80 356l100 129c-10 -3 -21 -5 -32 -5c-84 0 -130 36 -130 119c0 88 54 121 138 121c85 0 138 -33 138 -121v-5c-1 -51 -18 -77 -43 -112l-93 -126h-78zM156 527c51 0 67 21 67 66c0 47 -16 70 -67 70s-67 -23 -67 -70c0 -45 16 -66 67 -66z" />
    <glyph glyph-name="equal.numr" 
d="M34 578v42h250v-42h-250zM34 448v42h250v-42h-250z" />
    <glyph glyph-name="a.numr" horiz-adv-x="330" 
d="M27 445c0 73 49 100 141 116l50 9v18c0 48 -10 74 -57 74s-62 -18 -63 -67h-62c1 77 35 125 130 125s121 -58 121 -126v-238h-66v43c-12 -28 -41 -51 -89 -51c-67 0 -105 36 -105 97zM95 451c0 -33 18 -50 54 -50c39 0 69 22 69 66v53l-42 -7c-63 -11 -81 -29 -81 -62z
" />
    <glyph glyph-name="b.numr" horiz-adv-x="366" 
d="M46 356v506h69v-192c17 33 45 50 86 50c97 0 134 -53 134 -185s-42 -187 -137 -187c-40 0 -70 14 -87 55v-47h-65zM190 403c56 0 75 31 75 132c0 99 -19 124 -75 124s-75 -25 -75 -124c0 -101 19 -132 75 -132z" />
    <glyph glyph-name="c.numr" horiz-adv-x="335" 
d="M175 348c-106 0 -143 53 -143 188c0 130 39 184 143 184c93 0 126 -50 132 -143h-64c-7 63 -23 82 -70 82c-54 0 -72 -25 -72 -125c0 -105 19 -131 72 -131c48 0 66 23 70 90h64c-6 -102 -48 -145 -132 -145z" />
    <glyph glyph-name="d.numr" horiz-adv-x="366" 
d="M162 348c-95 0 -130 55 -130 187s42 185 137 185c37 0 66 -13 83 -46v188h68v-506h-65v48c-17 -37 -48 -56 -93 -56zM176 403c56 0 76 31 76 132c0 99 -20 124 -76 124s-75 -25 -75 -124c0 -101 19 -132 75 -132z" />
    <glyph glyph-name="e.numr" horiz-adv-x="339" 
d="M177 348c-105 0 -146 51 -146 186c0 133 44 186 144 186c103 0 135 -58 135 -180v-14h-211c1 -103 22 -124 78 -124c46 0 65 15 70 60h61c-7 -72 -44 -114 -131 -114zM174 661c-45 0 -68 -17 -74 -87h145c-3 68 -23 87 -71 87z" />
    <glyph glyph-name="f.numr" horiz-adv-x="231" 
d="M64 356v298h-44v58h44v35c0 77 38 115 115 115h49v-61h-43c-35 0 -53 -18 -53 -55v-34h88v-58h-88v-298h-68z" />
    <glyph glyph-name="g.numr" horiz-adv-x="366" 
d="M46 322h65c3 -47 17 -65 69 -65c49 0 72 16 72 75v70c-19 -36 -49 -51 -90 -51c-95 0 -130 54 -130 185s42 184 137 184c40 0 70 -15 87 -54v45h64v-377c0 -91 -42 -131 -138 -131c-104 0 -131 44 -136 119zM176 406c56 0 76 30 76 130c0 97 -20 123 -76 123
s-75 -26 -75 -123c0 -100 19 -130 75 -130z" />
    <glyph glyph-name="h.numr" horiz-adv-x="356" 
d="M46 356v506h69v-187c15 30 43 45 86 45c79 0 112 -47 112 -123v-241h-68v221c0 61 -16 81 -63 81c-48 0 -67 -18 -67 -81v-221h-69z" />
    <glyph glyph-name="i.numr" horiz-adv-x="161" 
d="M46 789v73h69v-73h-69zM46 356v356h69v-356h-69z" />
    <glyph glyph-name="j.numr" horiz-adv-x="161" 
d="M46 789v73h69v-73h-69zM46 308v404h69v-398c0 -69 -30 -106 -102 -106h-32v55h21c31 0 44 12 44 45z" />
    <glyph glyph-name="k.numr" horiz-adv-x="337" 
d="M46 356v506h69v-316l139 166h75l-125 -147l125 -209h-76l-94 158l-44 -52v-106h-69z" />
    <glyph glyph-name="l.numr" horiz-adv-x="161" 
d="M46 356v506h69v-506h-69z" />
    <glyph glyph-name="m.numr" horiz-adv-x="555" 
d="M46 356v356h66v-43c14 34 44 51 89 51c53 0 85 -20 101 -59c15 37 47 59 98 59c80 0 112 -47 112 -123v-241h-68v221c0 61 -17 81 -64 81s-67 -18 -67 -81v-221h-68v221c0 61 -16 81 -63 81c-48 0 -67 -18 -67 -81v-221h-69z" />
    <glyph glyph-name="n.numr" horiz-adv-x="356" 
d="M46 356v356h66v-43c15 34 44 51 89 51c79 0 112 -47 112 -127v-237h-69v220c0 61 -15 82 -62 82c-48 0 -67 -21 -67 -82v-220h-69z" />
    <glyph glyph-name="o.numr" horiz-adv-x="351" 
d="M176 348c-107 0 -145 56 -145 187s38 185 145 185s144 -54 144 -185c0 -132 -37 -187 -144 -187zM176 403c56 0 75 31 75 132c0 99 -19 124 -75 124s-76 -25 -76 -124c0 -101 20 -132 76 -132z" />
    <glyph glyph-name="p.numr" horiz-adv-x="366" 
d="M115 394v-186h-69v503h66v-48c16 40 48 57 89 57c97 0 134 -53 134 -185s-42 -187 -137 -187c-39 0 -67 15 -83 46zM190 403c56 0 75 31 75 132c0 99 -19 124 -75 124s-75 -25 -75 -124c0 -101 19 -132 75 -132z" />
    <glyph glyph-name="q.numr" horiz-adv-x="366" 
d="M162 348c-95 0 -130 55 -130 187s42 185 137 185c40 0 69 -15 86 -52v43h65v-503h-68v191c-19 -36 -49 -51 -90 -51zM176 403c56 0 76 31 76 132c0 99 -20 124 -76 124s-75 -25 -75 -124c0 -101 19 -132 75 -132z" />
    <glyph glyph-name="r.numr" horiz-adv-x="224" 
d="M44 356v244c0 75 38 112 113 112h57v-58h-51c-33 0 -50 -17 -50 -51v-247h-69z" />
    <glyph glyph-name="s.numr" horiz-adv-x="312" 
d="M29 460h61c4 -44 23 -60 66 -60c47 0 61 18 61 50c0 29 -11 39 -58 50l-40 9c-53 12 -88 41 -88 104c0 71 45 107 125 107c84 0 122 -34 123 -117h-62c-3 45 -17 59 -60 59c-47 0 -60 -17 -60 -48c0 -28 12 -41 55 -51l40 -9c64 -14 91 -47 91 -103
c0 -60 -34 -103 -129 -103s-122 48 -125 112z" />
    <glyph glyph-name="t.numr" horiz-adv-x="244" 
d="M60 471v183h-44v58h47v87h65v-87h99v-58h-99v-185c0 -44 15 -58 56 -58h43v-55h-55c-77 0 -112 35 -112 115z" />
    <glyph glyph-name="u.numr" horiz-adv-x="356" 
d="M43 475v237h68v-225c0 -61 17 -84 64 -84s67 25 67 86v223h68v-356h-65v44c-15 -35 -45 -52 -90 -52c-79 0 -112 47 -112 127z" />
    <glyph glyph-name="v.numr" horiz-adv-x="329" 
d="M133 356l-121 356h72l85 -265l86 265h63l-122 -356h-63z" />
    <glyph glyph-name="w.numr" horiz-adv-x="508" 
d="M119 356l-107 356h72l72 -260l77 260h52l77 -260l72 260h62l-106 -356h-63l-73 240l-72 -240h-63z" />
    <glyph glyph-name="x.numr" horiz-adv-x="320" 
d="M9 356l115 176l-113 179h75l77 -121l79 121h68l-114 -174l114 -181h-75l-78 123l-80 -123h-68z" />
    <glyph glyph-name="y.numr" horiz-adv-x="330" 
d="M33 263h28c32 0 49 12 64 53l11 33l-124 363h72l85 -265l86 265h63l-136 -401c-22 -66 -46 -103 -117 -103h-32v55z" />
    <glyph glyph-name="z.numr" horiz-adv-x="291" 
d="M28 356v39l154 259h-156v58h240v-39l-156 -262h153v-55h-235z" />
    <glyph glyph-name="cent.numr" 
d="M140 345v57c-72 8 -100 46 -100 130s29 123 100 130v58h53v-57c64 -8 85 -46 89 -102h-62c-4 36 -17 52 -53 52c-40 0 -61 -10 -61 -83c0 -72 22 -84 61 -84c36 0 49 15 53 52h62c-4 -55 -33 -88 -89 -95v-58h-53z" />
    <glyph glyph-name="Euro.numr" 
d="M7 462v38h34c-1 11 -1 21 -1 33v21h-33v40h36c11 95 54 126 138 126c93 0 120 -38 125 -128h-60c-5 56 -18 74 -65 74c-43 0 -62 -13 -70 -72h83v-40h-85v-21c0 -12 0 -22 1 -33h84v-38h-81c8 -51 28 -63 68 -63c47 0 60 19 65 74h60c-5 -83 -36 -125 -125 -125
c-81 0 -123 29 -136 114h-38z" />
    <glyph glyph-name="minus.numr" 
d="M34 513v42h250v-42h-250z" />
    <glyph glyph-name="dollar.dnom" 
d="M26 104h64c5 -45 27 -59 70 -59c47 0 65 16 65 47c0 29 -14 40 -65 52l-35 8c-56 13 -96 40 -96 108c0 60 36 94 100 102v58h61v-58c64 -7 95 -40 98 -115h-64c-3 47 -24 58 -65 58c-45 0 -62 -14 -62 -45c0 -29 15 -43 59 -54l34 -8c67 -17 102 -44 102 -105
c0 -56 -32 -92 -104 -99v-63h-61v63c-69 8 -97 49 -101 110z" />
    <glyph glyph-name="parenleft.dnom" horiz-adv-x="157" 
d="M19 178c0 206 27 238 110 238h16v-53h-6c-44 0 -56 -9 -56 -185c0 -175 12 -185 56 -185h6v-53h-16c-83 0 -110 32 -110 238z" />
    <glyph glyph-name="parenright.dnom" horiz-adv-x="157" 
d="M137 178c0 -206 -27 -238 -109 -238h-17v53h7c44 0 56 10 56 185c0 176 -12 185 -56 185h-7v53h17c83 0 109 -32 109 -238z" />
    <glyph glyph-name="plus.dnom" 
d="M136 63v94h-102v42h102v94h45v-94h103v-42h-103v-94h-45z" />
    <glyph glyph-name="comma.dnom" horiz-adv-x="156" 
d="M45 78h67v-57l-32 -112h-35v169z" />
    <glyph glyph-name="hyphen.dnom" horiz-adv-x="277" 
d="M42 157v42h193v-42h-193z" />
    <glyph glyph-name="period.dnom" horiz-adv-x="156" 
d="M44 0v78h67v-78h-67z" />
    <glyph glyph-name="zero.dnom" 
d="M159 -8c-104 0 -139 50 -139 188c0 125 31 184 139 184c109 0 140 -58 140 -184c0 -136 -37 -188 -140 -188zM159 44c56 0 70 24 70 136c0 100 -18 125 -70 125s-69 -25 -69 -125c0 -112 14 -136 69 -136z" />
    <glyph glyph-name="one.dnom" 
d="M153 0v289l-91 -30v59l109 38h52v-356h-70z" />
    <glyph glyph-name="two.dnom" 
d="M31 0v39c0 59 37 89 85 114l44 23c36 19 60 35 60 76c0 39 -21 53 -61 53c-45 0 -62 -16 -69 -71h-65c5 84 43 130 134 130s131 -39 131 -110c0 -63 -44 -96 -84 -117l-47 -25c-43 -23 -56 -33 -59 -60h185v-52h-254z" />
    <glyph glyph-name="three.dnom" 
d="M20 116h67c3 -56 24 -72 72 -72c43 0 65 17 65 52s-15 53 -63 53h-36v54h36c47 0 59 22 59 53c0 33 -21 49 -63 49c-40 0 -64 -15 -67 -70h-66c4 83 44 129 133 129c93 0 132 -38 132 -105c0 -32 -16 -62 -45 -78c32 -13 50 -38 50 -85c0 -65 -46 -104 -135 -104
c-92 0 -132 35 -139 124z" />
    <glyph glyph-name="four.dnom" 
d="M12 77v44l151 235h87v-225h50v-54h-50v-77h-67v77h-171zM78 131h105v163z" />
    <glyph glyph-name="five.dnom" 
d="M24 108h66c4 -48 23 -63 71 -63c49 0 66 22 66 71c0 47 -17 68 -66 68c-44 0 -61 -15 -70 -46h-60v24l20 194h227v-59h-174l-9 -81c19 14 44 21 73 21c84 0 129 -38 129 -122s-49 -122 -136 -122c-91 0 -130 34 -137 115z" />
    <glyph glyph-name="six.dnom" 
d="M25 113v5c1 51 17 76 43 112l93 126h79l-102 -130c11 4 22 5 33 5c83 0 129 -36 129 -119c0 -88 -53 -120 -137 -120c-85 0 -138 33 -138 121zM95 112c0 -47 17 -68 68 -68s67 21 67 68s-16 66 -67 66s-68 -19 -68 -66z" />
    <glyph glyph-name="seven.dnom" 
d="M69 0l151 297h-195v59h269v-44l-157 -312h-68z" />
    <glyph glyph-name="eight.dnom" 
d="M21 96c0 40 20 66 55 81c-29 15 -48 41 -48 81c0 64 43 106 131 106s132 -42 132 -106c0 -40 -21 -66 -49 -81c35 -15 55 -41 55 -81c0 -72 -50 -104 -138 -104c-89 0 -138 32 -138 104zM159 204c45 0 62 17 62 52c0 34 -21 51 -62 51s-62 -17 -62 -51
c0 -35 17 -52 62 -52zM92 98c0 -36 22 -54 67 -54s67 18 67 54c0 37 -20 54 -67 54s-67 -17 -67 -54z" />
    <glyph glyph-name="nine.dnom" 
d="M79 0l100 129c-10 -3 -21 -5 -32 -5c-84 0 -130 36 -130 119c0 88 54 121 138 121c85 0 138 -33 138 -121v-5c-1 -51 -18 -77 -43 -112l-93 -126h-78zM155 171c51 0 67 21 67 66c0 47 -16 70 -67 70s-67 -23 -67 -70c0 -45 16 -66 67 -66z" />
    <glyph glyph-name="equal.dnom" 
d="M34 222v42h250v-42h-250zM34 92v42h250v-42h-250z" />
    <glyph glyph-name="a.dnom" horiz-adv-x="330" 
d="M27 89c0 73 49 100 141 116l50 9v18c0 48 -10 74 -57 74s-62 -18 -63 -67h-62c1 77 35 125 130 125s121 -58 121 -126v-238h-66v43c-12 -28 -41 -51 -89 -51c-67 0 -105 36 -105 97zM95 95c0 -33 18 -50 54 -50c39 0 69 22 69 66v53l-42 -7c-63 -11 -81 -29 -81 -62z" />
    <glyph glyph-name="b.dnom" horiz-adv-x="366" 
d="M46 0v506h69v-192c17 33 45 50 86 50c97 0 134 -53 134 -185s-42 -187 -137 -187c-40 0 -70 14 -87 55v-47h-65zM190 47c56 0 75 31 75 132c0 99 -19 124 -75 124s-75 -25 -75 -124c0 -101 19 -132 75 -132z" />
    <glyph glyph-name="c.dnom" horiz-adv-x="335" 
d="M175 -8c-106 0 -143 53 -143 188c0 130 39 184 143 184c93 0 126 -50 132 -143h-64c-7 63 -23 82 -70 82c-54 0 -72 -25 -72 -125c0 -105 19 -131 72 -131c48 0 66 23 70 90h64c-6 -102 -48 -145 -132 -145z" />
    <glyph glyph-name="d.dnom" horiz-adv-x="366" 
d="M162 -8c-95 0 -130 55 -130 187s42 185 137 185c37 0 66 -13 83 -46v188h68v-506h-65v48c-17 -37 -48 -56 -93 -56zM176 47c56 0 76 31 76 132c0 99 -20 124 -76 124s-75 -25 -75 -124c0 -101 19 -132 75 -132z" />
    <glyph glyph-name="e.dnom" horiz-adv-x="339" 
d="M177 -8c-105 0 -146 51 -146 186c0 133 44 186 144 186c103 0 135 -58 135 -180v-14h-211c1 -103 22 -124 78 -124c46 0 65 15 70 60h61c-7 -72 -44 -114 -131 -114zM174 305c-45 0 -68 -17 -74 -87h145c-3 68 -23 87 -71 87z" />
    <glyph glyph-name="f.dnom" horiz-adv-x="231" 
d="M64 0v298h-44v58h44v35c0 77 38 115 115 115h49v-61h-43c-35 0 -53 -18 -53 -55v-34h88v-58h-88v-298h-68z" />
    <glyph glyph-name="g.dnom" horiz-adv-x="366" 
d="M46 -34h65c3 -47 17 -65 69 -65c49 0 72 16 72 75v70c-19 -36 -49 -51 -90 -51c-95 0 -130 54 -130 185s42 184 137 184c40 0 70 -15 87 -54v45h64v-377c0 -91 -42 -131 -138 -131c-104 0 -131 44 -136 119zM176 50c56 0 76 30 76 130c0 97 -20 123 -76 123
s-75 -26 -75 -123c0 -100 19 -130 75 -130z" />
    <glyph glyph-name="h.dnom" horiz-adv-x="356" 
d="M46 0v506h69v-187c15 30 43 45 86 45c79 0 112 -47 112 -123v-241h-68v221c0 61 -16 81 -63 81c-48 0 -67 -18 -67 -81v-221h-69z" />
    <glyph glyph-name="i.dnom" horiz-adv-x="161" 
d="M46 433v73h69v-73h-69zM46 0v356h69v-356h-69z" />
    <glyph glyph-name="j.dnom" horiz-adv-x="161" 
d="M46 433v73h69v-73h-69zM46 -48v404h69v-398c0 -69 -30 -106 -102 -106h-32v55h21c31 0 44 12 44 45z" />
    <glyph glyph-name="k.dnom" horiz-adv-x="337" 
d="M46 0v506h69v-316l139 166h75l-125 -147l125 -209h-76l-94 158l-44 -52v-106h-69z" />
    <glyph glyph-name="l.dnom" horiz-adv-x="161" 
d="M46 0v506h69v-506h-69z" />
    <glyph glyph-name="m.dnom" horiz-adv-x="555" 
d="M46 0v356h66v-43c14 34 44 51 89 51c53 0 85 -20 101 -59c15 37 47 59 98 59c80 0 112 -47 112 -123v-241h-68v221c0 61 -17 81 -64 81s-67 -18 -67 -81v-221h-68v221c0 61 -16 81 -63 81c-48 0 -67 -18 -67 -81v-221h-69z" />
    <glyph glyph-name="n.dnom" horiz-adv-x="356" 
d="M46 0v356h66v-43c15 34 44 51 89 51c79 0 112 -47 112 -127v-237h-69v220c0 61 -15 82 -62 82c-48 0 -67 -21 -67 -82v-220h-69z" />
    <glyph glyph-name="o.dnom" horiz-adv-x="351" 
d="M176 -8c-107 0 -145 56 -145 187s38 185 145 185s144 -54 144 -185c0 -132 -37 -187 -144 -187zM176 47c56 0 75 31 75 132c0 99 -19 124 -75 124s-76 -25 -76 -124c0 -101 20 -132 76 -132z" />
    <glyph glyph-name="p.dnom" horiz-adv-x="366" 
d="M115 38v-186h-69v503h66v-48c16 40 48 57 89 57c97 0 134 -53 134 -185s-42 -187 -137 -187c-39 0 -67 15 -83 46zM190 47c56 0 75 31 75 132c0 99 -19 124 -75 124s-75 -25 -75 -124c0 -101 19 -132 75 -132z" />
    </font>
</defs>
</svg>
