<svg xmlns="http://www.w3.org/2000/svg" width="46.151" height="40.837" viewBox="0 0 46.151 40.837">
    <defs>
        <style>
            .cls-1{fill:#fff}
        </style>
    </defs>
    <path id="Path_19" d="M35.326 39.967a.868.868 0 0 0-.879-.869H11.68a.874.874 0 0 0-.879.869.9.9 0 0 0 .879.869H34.5a.839.839 0 0 0 .821-.869m-12.257-8.681a.874.874 0 0 0-.879.869.879.879 0 0 0 1.757 0 .874.874 0 0 0-.878-.869zm0 3.476a2.607 2.607 0 1 1 2.626-2.607 2.639 2.639 0 0 1-2.626 2.608zm-.879-8.681h1.748V9.55h-1.748zm2.626 1.738h-3.5a.874.874 0 0 1-.879-.869V8.681a.868.868 0 0 1 .879-.869h3.5a.874.874 0 0 1 .879.869v18.27a.868.868 0 0 1-.879.869zM23.064 1.738A1.3 1.3 0 0 0 22 2.559L2.082 34.849c-.325.506-.411.955-.229 1.232.134.277.6.411 1.156.411h40.11a1.4 1.4 0 0 0 1.2-.411 1.435 1.435 0 0 0-.229-1.232L24.124 2.559a1.373 1.373 0 0 0-1.06-.821zm20.055 36.491H3.008A2.966 2.966 0 0 1 .286 36.9a2.922 2.922 0 0 1 .277-2.97L20.485 1.643A3.063 3.063 0 0 1 23.064 0a3.063 3.063 0 0 1 2.579 1.643l19.921 32.289a2.827 2.827 0 0 1 .277 2.97 2.966 2.966 0 0 1-2.722 1.327z" class="cls-1" data-name="Path 19" transform="translate(.002)"/>
</svg>
