<svg xmlns="http://www.w3.org/2000/svg" width="39.87" height="39.9" viewBox="0 0 39.87 39.9">
    <defs>
        <style>
            .cls-1{fill:#fff}
        </style>
    </defs>
    <path id="Path_22" d="M19.95 1.6a2.738 2.738 0 0 0-1.08.2L2.59 9.7a1.846 1.846 0 0 0-1 1.08c0 .08.28.32.8.32H37.5c.52 0 .8-.24.8-.32a1.846 1.846 0 0 0-1-1.08L21.03 1.8a2.738 2.738 0 0 0-1.08-.2M37.5 12.69H2.39A2.162 2.162 0 0 1 0 10.77a3.211 3.211 0 0 1 1.88-2.51L18.16.36a4.556 4.556 0 0 1 3.55 0l16.28 7.9a3.211 3.211 0 0 1 1.88 2.51c.03 1.08-1.01 1.92-2.37 1.92zm-7.7 3.67a.8.8 0 0 0-.8.8V37.5a.8.8 0 0 0 .8.8h3.71a.8.8 0 0 0 .8-.8V17.16a.8.8 0 0 0-.8-.8zm3.71 23.54H29.8a2.4 2.4 0 0 1-2.39-2.39V17.16a2.4 2.4 0 0 1 2.39-2.39h3.71a2.4 2.4 0 0 1 2.39 2.39V37.5a2.392 2.392 0 0 1-2.39 2.4zM6.38 16.36a.8.8 0 0 0-.8.8V37.5a.8.8 0 0 0 .8.8h3.71a.8.8 0 0 0 .8-.8V17.16a.8.8 0 0 0-.8-.8zm3.71 23.54H6.38a2.4 2.4 0 0 1-2.39-2.39V17.16a2.4 2.4 0 0 1 2.39-2.39h3.71a2.4 2.4 0 0 1 2.39 2.39V37.5a2.392 2.392 0 0 1-2.39 2.4zm7.98-23.54a.8.8 0 0 0-.8.8V37.5a.8.8 0 0 0 .8.8h3.71a.8.8 0 0 0 .8-.8V17.16a.8.8 0 0 0-.8-.8zm3.75 23.54h-3.71a2.4 2.4 0 0 1-2.39-2.39V17.16a2.4 2.4 0 0 1 2.39-2.39h3.71a2.4 2.4 0 0 1 2.39 2.39V37.5a2.392 2.392 0 0 1-2.39 2.4z" class="cls-1" data-name="Path 22"/>
</svg>
