<svg xmlns="http://www.w3.org/2000/svg" width="51.283" height="25.894" viewBox="0 0 51.283 25.894">
    <defs>
        <style>
            .cls-1{fill:#fff}
        </style>
    </defs>
    <g id="Group_4" data-name="Group 4" transform="translate(.002)">
        <path id="Union_1" d="M31.975 25.894v-6.876a.662.662 0 0 0-.616-.608.62.62 0 0 0-.617.608v6.876h-10.5v-6.876a.62.62 0 0 0-.617-.608.591.591 0 0 0-.616.608v6.876H14.7v-3.538h-.769v-5.515a.481.481 0 0 0-.512-.5.509.509 0 0 0-.513.5v5.515H4.457v-5.515a.481.481 0 0 0-.512-.5.481.481 0 0 0-.513.5V22.4H0v-5.607a4.453 4.453 0 0 1 4.5-4.45h8.108a4.579 4.579 0 0 1 4.035 2.377 5.6 5.6 0 0 1 3.7-1.368h10.095a5.579 5.579 0 0 1 4.043 1.7 4.487 4.487 0 0 1 4.153-2.705h3.834a5.4 5.4 0 0 1-5.435-5.367 5.46 5.46 0 0 1 10.918 0 5.473 5.473 0 0 1-5.483 5.363h4.259a4.525 4.525 0 0 1 4.554 4.451v5.563h-3.225v-5.516a.481.481 0 0 0-.512-.5.508.508 0 0 0-.512.5v5.515h-8.453v-5.515a.508.508 0 0 0-.512-.5.481.481 0 0 0-.512.5V22.4h-1.586v3.49zM18.44 6.675a6.764 6.764 0 0 1 13.527 0 6.764 6.764 0 0 1-13.527 0zm-15.472.3a5.436 5.436 0 0 1 10.87 0 5.436 5.436 0 0 1-10.87 0z" class="cls-1" data-name="Union 1"/>
    </g>
</svg>
