<svg xmlns="http://www.w3.org/2000/svg" width="49.578" height="42.936" viewBox="0 0 49.578 42.936">
    <defs>
        <style>
            .cls-1{fill:#fff}
        </style>
    </defs>
    <path id="Path_24" d="M47.7 18.2l-2.35 2.339a.851.851 0 0 1-1.164 0L30.593 7.04l-.053-.053-1.63-1.62a.812.812 0 0 1 0-1.164l2.35-2.339a.815.815 0 0 1 .593-.243.843.843 0 0 1 .582.233L47.71 17.043a.793.793 0 0 1-.01 1.157m-8.606 4.277a81.694 81.694 0 0 0-6.066-7.188.873.873 0 0 0-.36-.2 1.041 1.041 0 0 0-.053-.169.833.833 0 0 0-1.122-.339c-.138.074-.318.169-.529.286-1.164.656-3.9 2.181-5.261 2.022-1.895-.212-5.78 1.471-6.807 1.948a24.19 24.19 0 0 1-2.181-.3 31.447 31.447 0 0 1 4.044-4.51A25.423 25.423 0 0 1 29.714 8.5l10.935 10.862zm1.651 4.975l-2.435 2.411-7.632-7.58a.844.844 0 0 0-1.175 0 .812.812 0 0 0 0 1.164l7.632 7.58-2.35 2.329-7.632-7.58a.844.844 0 0 0-1.175 0 .812.812 0 0 0 0 1.164l7.632 7.58-2.35 2.33-7.632-7.58a.844.844 0 0 0-1.175 0 .812.812 0 0 0 0 1.164l7.632 7.58-2.435 2.424A119.9 119.9 0 0 1 16.577 31.6a78.607 78.607 0 0 1-5.727-6.775.816.816 0 0 0-.15-.225c-.011-.011-.032-.021-.042-.032a174 174 0 0 1-2.975-3.97L20.78 7.622c.572.423 1.567 1.143 2.795 2.075a24.074 24.074 0 0 0-3.991 3.165c-4.817 4.785-5.251 5.97-4.393 6.817.18.18.519.519 3.758.826h.074a.8.8 0 0 0 .349-.074c1.726-.8 4.922-2.032 6.119-1.895 1.905.222 4.732-1.355 6.256-2.212.032.042.053.1.085.138a114.812 114.812 0 0 1 8.913 10.987zm-19.467 13.5l-2.35-2.329 1.524-1.523c.9.709 1.8 1.408 2.646 2.043zm-5.865-5.833l1.207-1.2c.762.688 1.63 1.419 2.53 2.149l-1.387 1.387zm-1.175-1.164l-2.35-2.329 1.291-1.281c.794.921 1.556 1.768 2.234 2.445zm-5.876-5.839l1.662-1.651c.667.857 1.376 1.747 2.085 2.6l-1.4 1.387zM5.42 20.537a.851.851 0 0 1-1.164 0L1.905 18.2a.812.812 0 0 1 0-1.164L17.18 1.863a.808.808 0 0 1 .582-.243.791.791 0 0 1 .582.243L20.695 4.2a.812.812 0 0 1 0 1.164zm43.466-4.668L33.61.7a2.559 2.559 0 0 0-3.51 0l-2.365 2.338a2.454 2.454 0 0 0 0 3.493l.688.688a29.207 29.207 0 0 0-3.313 1.567c-1.366-1.037-2.467-1.842-3.155-2.35a2.454 2.454 0 0 0-.085-3.387L19.52.709a2.538 2.538 0 0 0-3.515 0L.73 15.868a2.473 2.473 0 0 0 0 3.493L3.08 21.7a2.472 2.472 0 0 0 3.409.1c.55.752 1.45 1.969 2.509 3.356l-2.4 2.382a.812.812 0 0 0 0 1.164l2.929 2.908 1.173 1.164 2.934 2.926.593.582 2.35 2.329 1.175 1.164 2.932 2.922a.826.826 0 0 0 .582.243.791.791 0 0 0 .582-.243l2.562-2.551c1.556 1.154 2.7 1.969 2.826 2.054a.835.835 0 0 0 .487.159.826.826 0 0 0 .582-.243l3.525-3.5 7.04-7 3.53-3.5a.808.808 0 0 0 .085-1.059c-.1-.127-1.006-1.4-2.3-3.112l1.683-3.356 1.121 1.111a2.5 2.5 0 0 0 3.515 0l2.35-2.329a2.425 2.425 0 0 0 .73-1.747 2.378 2.378 0 0 0-.699-1.756z" class="cls-1" data-name="Path 24" transform="translate(-.007)"/>
</svg>
