<svg xmlns="http://www.w3.org/2000/svg" width="41.769" height="41.78" viewBox="0 0 41.769 41.78">
    <defs>
        <style>
            .cls-1{fill:#fff}
        </style>
    </defs>
    <path id="Path_39" d="M40.093 19.593a.834.834 0 0 1-.833.833H24.979v-1.507a2.514 2.514 0 0 0-2.508-2.508H19.3a2.514 2.514 0 0 0-2.508 2.508v1.507H2.508a.834.834 0 0 1-.833-.833V8.98a.834.834 0 0 1 .833-.833h36.753a.834.834 0 0 1 .833.833v10.613M18.466 23.6v-4.639a.834.834 0 0 1 .833-.833h3.172a.834.834 0 0 1 .833.833V23.6a.834.834 0 0 1-.833.833H19.3a.828.828 0 0 1-.834-.833zm18.792 16.493H4.511a.834.834 0 0 1-.833-.833V22.091H16.79V23.6a2.514 2.514 0 0 0 2.51 2.507h3.172a2.514 2.514 0 0 0 2.507-2.507v-1.509h13.112v17.17a.828.828 0 0 1-.833.832zM14.492 2.508a.834.834 0 0 1 .833-.833h11.151a.834.834 0 0 1 .833.833v3.963H14.492zm24.769 3.963H28.942V2.508A2.514 2.514 0 0 0 26.434 0H15.325a2.514 2.514 0 0 0-2.508 2.508v3.963H2.508A2.514 2.514 0 0 0 0 8.98v10.613a2.55 2.55 0 0 0 2 2.467v17.211a2.514 2.514 0 0 0 2.511 2.509h32.747a2.514 2.514 0 0 0 2.508-2.508V22.049a2.55 2.55 0 0 0 2-2.466V8.98a2.514 2.514 0 0 0-2.505-2.509z" class="cls-1" data-name="Path 39"/>
</svg>
