<svg xmlns="http://www.w3.org/2000/svg" width="42.087" height="44.174" viewBox="0 0 42.087 44.174">
    <defs>
        <style>
            .cls-1{fill:#fff}
        </style>
    </defs>
    <path id="Path_35" d="M21.043 11.49V6.62h19.293v4.858H21.043M12.707 42.4l3.328-3.223 3.246 3.1v.123zm6.586-40.638v1.055l-3.247 3.142-3.374-3.4h.046v-.8zm0 34.284v4.023l-1.971-1.983zm-6.226-1.994l2.806-2.829 2.806 2.829-2.806 2.829zm-.359 1.681l2.284 2.3-2.284 2.3zm5.612-25.09l-2.412 2.435-2.408-2.435 2.412-2.435zm.973-1.543l-2.018-2.028 1.971-1.982v4.023h.046zm-2.017 5.125l1.971-1.983v4.023zm0 7.954l1.97-1.979v4.02zm-4.209 3.965l2.852-2.875 2.852 2.875-2.852 2.876zm1.925-3.965l-2.284 2.3v-4.595zm.881-6.852l2.852 2.873-2.852 2.875L13.02 18.2zm-3.165-2.388v-1.02l2.284 2.3-2.284 2.3zm0 14.887l2.284 2.3-2.284 2.3zm6.585 4.29l-1.971-1.983 1.971-1.983zm-4.3-25.043l-2.284 2.3v-4.6zM11.4 11.49H1.751V6.62H11.4zM6.574 37.542V39.3h-3.5v-1.758zM7.9 42.4H1.751v-1.322h6.133L7.9 42.4zm34.187-29.148V4.858H21.043V0H11.4v4.858H0v8.394h3.942V35.78H1.751v3.536H0v4.858h9.646v-4.858H7.9V35.78H5.7V13.252h5.693v30.922h9.646V13.252H35.5v9.716h-.66c0 .881.348.707.788.707a2.435 2.435 0 1 1 0 4.87 2.452 2.452 0 0 1-2.412-2.47.831.831 0 0 0-.835-.835.8.8 0 0 0-.835.8 4.115 4.115 0 0 0 4.081 4.1 4.471 4.471 0 0 0 4.475-4.1 3.9 3.9 0 0 0-2.852-4.023v-8.742h4.835z" class="cls-1" data-name="Path 35"/>
</svg>
