<svg xmlns="http://www.w3.org/2000/svg" width="49.455" height="40.467" viewBox="0 0 49.455 40.467">
    <defs>
        <style>
            .cls-1{fill:#fff}
        </style>
    </defs>
    <path id="Path_37" d="M12.818 8.135a4.091 4.091 0 0 0 4.11-4.086 4.11 4.11 0 0 0-8.22.037 4.084 4.084 0 0 0 4.11 4.049M4.2 13.916l-4.2.866 3.366 15.611 2.1 1.7h2.925v4.086h-3.4v4.244h11.12v-4.2h-3.4v-4.086h4.671v-4.293H7.2zm45.26 5l-1.9-3.147h-3.02v-.634h-7.4v.634h-8.711l.988-.744a2.17 2.17 0 0 0 .476-2.988 2.209 2.209 0 0 0-3.012-.476l-6.257 4.6-4.586-4.683a2.848 2.848 0 0 0-2.805-2.439H10.05a2.852 2.852 0 0 0-2.85 2.828v12.94a2.852 2.852 0 0 0 2.854 2.829H12.5a1.64 1.64 0 0 0 .439.037h7.83V38.3a2.134 2.134 0 0 0 4.269 0V25.6a2.119 2.119 0 0 0-2.138-2.123h-6.8v-5.854l2.8 2.83a2.2 2.2 0 0 0 1.549.634 2.246 2.246 0 0 0 1.268-.39l6.488-4.72v4.086H44.04l-8.623 16.16H27.5v4.244h16.186v-4.245h-3.4zm-5.86-4.134v-2.83l-5.464 1.537v1.293H43.6zm2.379-11.477L35.613 0v13.916L45.979 10.7z" class="cls-1" data-name="Path 37"/>
</svg>
