<svg xmlns="http://www.w3.org/2000/svg" width="31.896" height="39.019" viewBox="0 0 31.896 39.019">
    <defs>
        <style>
            .cls-1{fill:#fff}
        </style>
    </defs>
    <path id="Shape_5" d="M465.02 2925.117a2.781 2.781 0 1 1 2.21-3.243 2.776 2.776 0 0 1-2.21 3.243m-4.845-13.282a.877.877 0 0 1-1.008-.7l-3.062-16.915a.883.883 0 0 1 .7-1.016l4.652-.859a.876.876 0 0 1 1.008.7l3.062 16.915a.881.881 0 0 1-.7 1.015zm-10.737-1.25a.879.879 0 0 1-.891.9h-4.729a.9.9 0 0 1-.891-.9V2893.4a.881.881 0 0 1 .891-.9h4.729a.881.881 0 0 1 .891.9zm-3.256 14.8a2.774 2.774 0 1 1 2.752-2.773 2.749 2.749 0 0 1-2.753 2.778zm25.351-.742l-6.124-33.83a1.715 1.715 0 0 0-2.055-1.406l-9.342 1.719a1.749 1.749 0 0 0-1.357 1.172v-.586a1.743 1.743 0 0 0-1.744-1.758h-9.5a1.743 1.743 0 0 0-1.744 1.758v34.377a1.743 1.743 0 0 0 1.744 1.758h9.5a1.743 1.743 0 0 0 1.744-1.758v-32.541l6.048 33.4a1.733 1.733 0 0 0 2.054 1.406l9.341-1.718a1.679 1.679 0 0 0 1.434-1.987z" class="cls-1" data-name="Shape 5" transform="translate(-439.669 -2889.377)"/>
</svg>
