<svg xmlns="http://www.w3.org/2000/svg" width="56.808" height="36.648" viewBox="0 0 56.808 36.648">
    <defs>
        <style>
            .cls-1{fill:#fff}
        </style>
    </defs>
    <path id="Path_18" d="M50.752 13.512a.759.759 0 0 1 .269-.093.685.685 0 0 1 .548.32.509.509 0 0 1 .041.455.7.7 0 0 1-.269.362.509.509 0 0 1-.455.041.7.7 0 0 1-.362-.269.606.606 0 0 1 .227-.816m-.134 1.9a1.372 1.372 0 0 0 .413.041 1.293 1.293 0 0 0 .682-.176 1.437 1.437 0 1 0-1.952-.589 1.35 1.35 0 0 0 .858.725zM48.3 18.388L41.032 4.979l7.448-3.967 7.22 13.409zm-4.091 2.665l-.909-.764a2.734 2.734 0 0 0-4.355 3.011 2.41 2.41 0 0 0-1.4-.269A2.706 2.706 0 0 0 35 25.918 3.1 3.1 0 0 0 35.319 27a2.3 2.3 0 0 0-1.229-.227 2.624 2.624 0 0 0-1.766.857 2.516 2.516 0 0 0-.5 2.479 2.089 2.089 0 0 0-1.043-.134 2.624 2.624 0 0 0-1.766.857 2.563 2.563 0 0 0-.63 1.942l.041.041-4.226 1.76c-.093.041-2.221.95-2.9-.4a1.081 1.081 0 0 1 0-.764c.455-1.219 2.727-2.614 4.132-3.3l.682-.32a.361.361 0 0 0 .186-.537.415.415 0 0 0-.547-.227 6.818 6.818 0 0 0-.63.32L20.444 31.6c-.041 0-1.725.63-2.5-.682-.682-1.126.857-2.169.95-2.211l4.814-3.254a.4.4 0 0 0 .186-.4c0-.041-.041-.093-.041-.134-.041-.041-.041-.093-.093-.093a.409.409 0 0 0-.455-.041l-5.537 2.975a1.832 1.832 0 0 1-1.768.224 1.612 1.612 0 0 1-.04-2.884l4.68-3.337a.424.424 0 0 0 .186-.362.328.328 0 0 0-.093-.227l-.134-.134a.633.633 0 0 0-.269-.04.214.214 0 0 0-.134.093c-.041.041-4.628 3.337-6.033 3.833a1.893 1.893 0 0 1-2.18-.992 1.625 1.625 0 0 1 .134-2.118l6.9-5.1.041-.041a6.469 6.469 0 0 0 6.58-.455 26.4 26.4 0 0 0 3.543-3.388l.455-.186c-.455 3.2.32 5.01 1.095 5.961a4.335 4.335 0 0 0 3.13 1.622h.083c.362-.041.682-.041 1.5-4.421.413-2.345.775-4.876.857-6.322a2.3 2.3 0 0 0-.093-.95 30.991 30.991 0 0 0 2.923-1.064 10.124 10.124 0 0 0 1.769-.995l6.219 11.508a7.97 7.97 0 0 0-2.906 3.068zm.816 4.328a1.906 1.906 0 0 1-1.271.63 1.859 1.859 0 0 1-1.364-.455l-2.087-1.8a1.842 1.842 0 0 1-.186-2.614 1.949 1.949 0 0 1 1.4-.63 1.8 1.8 0 0 1 1.229.455l2.087 1.808a1.826 1.826 0 0 1 .196 2.606zM41.9 29.307a1.875 1.875 0 0 1-2.634.176l-2.727-2.4a1.882 1.882 0 0 1-.63-1.26 1.834 1.834 0 0 1 .455-1.353 1.906 1.906 0 0 1 1.271-.63h.134A1.974 1.974 0 0 1 39 24.3l2.727 2.345a1.881 1.881 0 0 1 .176 2.665zm-3.678 3.388a1.777 1.777 0 0 1-1.178.589 1.891 1.891 0 0 1-1.271-.4l-2.634-2.3a1.72 1.72 0 0 1 .992-3.027h.134a1.758 1.758 0 0 1 1.136.4l2.634 2.3a1.732 1.732 0 0 1 .589 1.178 1.609 1.609 0 0 1-.402 1.26zm-4.039 2.572a1.774 1.774 0 0 1-2.448.176l-1.859-1.622a1.72 1.72 0 0 1 .992-3.027H31a1.758 1.758 0 0 1 1.136.4L34 32.819A1.732 1.732 0 0 1 34.586 34a1.619 1.619 0 0 1-.403 1.267zm-5.9-1.488l.417-.179a1.8 1.8 0 0 0 .32.455 7.427 7.427 0 0 1-.736-.275zM9.762 18.346l5.9-10.919.041-.134a4.781 4.781 0 0 0 2.541.176c.455-.093 1.457-.455 2.583-.816 1.5-.5 3.409-1.085 3.946-1.178.816-.093 7.582.041 9.855 2.169a1.907 1.907 0 0 1 .682 1.581 52.993 52.993 0 0 1-1.726 9.975 3.34 3.34 0 0 1-2.273-1.312c-.723-.9-1.4-2.707-.816-6.043a.445.445 0 0 0-.134-.4.4.4 0 0 0-.455-.041l-1.229.537c-.041.041-.093.041-.134.093a25.472 25.472 0 0 1-3.492 3.337c-3.357 2.531-7.624-.682-7.675-.723a.431.431 0 0 0-.32-.093c-.093 0-.186.093-.269.134a.426.426 0 0 0 .093.589 10.912 10.912 0 0 0 1.271.764l-4.907 3.616zm-1 .041c0 .041 0 .041-.041.093l-.269.5L1 15 8.213 1.6l7.448 3.977-.547.992zM56.7 14.369L49.069.248A.464.464 0 0 0 48.8.021a.439.439 0 0 0-.32.041l-8.213 4.38a.441.441 0 0 0-.186.589l.269.537a10.255 10.255 0 0 1-1.715.992c-.909.4-2.448.9-2.954 1.085a4.188 4.188 0 0 0-.455-.537c-2.541-2.345-9.535-2.531-10.537-2.4-.63.093-2.355.682-4.091 1.219-1.085.362-2.138.682-2.541.764a3.9 3.9 0 0 1-1.632 0l-.31-.134.5-.95a.856.856 0 0 0 .041-.32.586.586 0 0 0-.227-.269L8.264.651a.465.465 0 0 0-.6.176L.041 14.958a.444.444 0 0 0 .186.589l8.213 4.38a.292.292 0 0 0 .186.041h.134a.54.54 0 0 0 .269-.227l.362-.63 3.089 1.178-.909.682a2.475 2.475 0 0 0-.362 3.2 2.65 2.65 0 0 0 3.182 1.353 1.7 1.7 0 0 0-.134.95 2.555 2.555 0 0 0 1.364 2.118 2.322 2.322 0 0 0 1.994.041 2.172 2.172 0 0 0-.362 2.614 2.923 2.923 0 0 0 3.585 1.033l.269-.134a3.387 3.387 0 0 0-.548.9 1.636 1.636 0 0 0 .041 1.395 2.186 2.186 0 0 0 2.138 1.219 4.651 4.651 0 0 0 1.859-.4l2.541-1.043c1.59.683 2.862 1.083 3.491 1.308l.548.5a2.7 2.7 0 0 0 1.684.63 2.8 2.8 0 0 0 1.952-.857 2.525 2.525 0 0 0 .64-1.849c0-.134-.041-.227-.041-.362a2.525 2.525 0 0 0 1.539.506h.186a2.624 2.624 0 0 0 1.766-.857 2.525 2.525 0 0 0 .64-1.849 2.032 2.032 0 0 0-.227-.9 2.974 2.974 0 0 0 1.229.32 2.8 2.8 0 0 0 2.045-.9 2.628 2.628 0 0 0 .682-1.983 3.627 3.627 0 0 0-.362-1.178 2.069 2.069 0 0 0 .775.134h.186a2.629 2.629 0 0 0 1.859-.9 2.7 2.7 0 0 0-.269-3.833l-.548-.455a11.078 11.078 0 0 1 2.541-3.109l.362.63a.472.472 0 0 0 .362.227.323.323 0 0 0 .186-.041l8.213-4.38a.431.431 0 0 0 .227-.269 3.583 3.583 0 0 1-.104-.381zm-50.484.548a.569.569 0 0 1-.362.269.585.585 0 0 1-.455-.041.544.544 0 0 1-.269-.362.506.506 0 0 1 .041-.455.652.652 0 0 1 .548-.32.526.526 0 0 1 .269.093.544.544 0 0 1 .269.362.511.511 0 0 1-.038.454zm.176-1.539a1.437 1.437 0 1 0-1.364 2.531 1.307 1.307 0 0 0 .682.186 1.445 1.445 0 0 0 .682-2.717z" class="cls-1" data-name="Path 18" transform="translate(.002 -.003)"/>
</svg>
