<svg xmlns="http://www.w3.org/2000/svg" width="49.327" height="36.948" viewBox="0 0 49.327 36.948">
    <defs>
        <style>
            .cls-1{fill:#fff}
        </style>
    </defs>
    <path id="Path_17" d="M22.907 8.061v10.413a.877.877 0 0 0 .878.878H35.2A10.567 10.567 0 1 1 22.9 8.06m1.764 22.74A12.349 12.349 0 0 0 37 18.485a.877.877 0 0 0-.878-.878H24.664V7.068a.878.878 0 0 0-.951-.878 12.324 12.324 0 0 0 .951 24.61zm-12.327-2.644H3.523v1.756h8.814zm35.234 7.036H1.756V1.756h45.815zM48.449 0H.878A.884.884 0 0 0 0 .878V36.07a.877.877 0 0 0 .878.878h47.571a.877.877 0 0 0 .878-.878V.878A.884.884 0 0 0 48.449 0zM12.337 31.679H3.523v1.756h8.814zm23.775-.879H41.4v-1.756h-5.29zm0-2.645H41.4V26.4h-5.29zm-.878-18.474h-4.4v1.756h4.4zM41.4 6.158H30.832v1.757H41.4z" class="cls-1" data-name="Path 17"/>
</svg>
