<svg xmlns="http://www.w3.org/2000/svg" width="50.538" height="48.945" viewBox="0 0 50.538 48.945">
    <defs>
        <style>
            .cls-1{fill:#fff}
        </style>
    </defs>
    <path id="Path_30" d="M29.467 47.137l.772-2.717h17.133l.772 2.717H29.467m1.212-13.595h16.243v9.07H30.679zM48.73 42.6V31.724H28.88V42.6l-1.808 6.343h23.466zm-37-30.816H6.685c.332-4.623 2.443-8.415 5.043-9.138zm0 11.64c-2.737-.762-4.926-4.906-5.082-9.832h5.082zm-9.883-9.829h3a16.025 16.025 0 0 0 2.5 8.581 10.887 10.887 0 0 1-5.5-8.581zM8.278 2.737a14.5 14.5 0 0 0-3.411 9.05h-3.02a10.9 10.9 0 0 1 6.431-9.05zm5.258 10.858h5.082c-.156 4.926-2.346 9.07-5.082 9.832v-9.832zm0-10.946c2.61.723 4.721 4.525 5.053 9.138h-5.053zm9.881 9.138H20.4a14.545 14.545 0 0 0-3.411-9.05 10.883 10.883 0 0 1 6.428 9.05zm-5.5 10.389a15.94 15.94 0 0 0 2.5-8.581h3a10.864 10.864 0 0 1-5.502 8.581zm7.35-9.48A12.677 12.677 0 0 0 13.536.049V0h-1.808v.049A12.686 12.686 0 1 0 25.264 12.7zM23.2 37.589a.905.905 0 0 0-1.28 1.28l1.016 1.016h-9.4v-7.623l1.016 1.016A.905.905 0 1 0 15.833 32l-2.346-2.355a.891.891 0 0 0-1.7 0L9.441 32a.9.9 0 0 0 .635 1.544.887.887 0 0 0 .635-.264l1.016-1.016v8.532a.905.905 0 0 0 .9.909h10.3l-1.015 1.015a.9.9 0 0 0 .635 1.544.887.887 0 0 0 .636-.264l2.551-2.561a.917.917 0 0 0 .266-.645.935.935 0 0 0-.264-.645z" class="cls-1" data-name="Path 30"/>
</svg>
