<svg xmlns="http://www.w3.org/2000/svg" width="31.886" height="43.677" viewBox="0 0 31.886 43.677">
    <defs>
        <style>
            .cls-1{fill:#fff}
        </style>
    </defs>
    <path id="Path_23" d="M25.991 30.658a.88.88 0 0 1-.876.876H6.5a.876.876 0 1 1 0-1.752h18.615a.886.886 0 0 1 .876.876m0-5.981a.88.88 0 0 1-.876.876H6.5a.876.876 0 1 1 0-1.752h18.615a.88.88 0 0 1 .876.876zm0-5.981a.88.88 0 0 1-.876.876H6.5a.876.876 0 1 1 0-1.752h18.615a.874.874 0 0 1 .876.88zm4.143 22.362a.88.88 0 0 1-.876.876H2.619a.88.88 0 0 1-.876-.876V8.429a.88.88 0 0 1 .876-.876h6.067a2.607 2.607 0 0 0 2.571 2.4h9.381a2.573 2.573 0 0 0 2.571-2.4h6.067a.88.88 0 0 1 .876.876v32.629zM10.381 6.2a.88.88 0 0 1 .876-.876h3.619v-2.7a.88.88 0 0 1 .876-.876h.438a.88.88 0 0 1 .876.876v2.7h3.619a.88.88 0 0 1 .876.876v1.181a.88.88 0 0 1-.876.876h-9.418a.88.88 0 0 1-.876-.876V6.2zm18.886-.39H23.2a2.623 2.623 0 0 0-2.571-2.267h-1.876v-.924A2.63 2.63 0 0 0 16.134 0H15.7a2.63 2.63 0 0 0-2.619 2.619v.962H11.2a2.623 2.623 0 0 0-2.571 2.267h-6.01A2.638 2.638 0 0 0 0 8.476v32.582a2.63 2.63 0 0 0 2.619 2.619h26.648a2.63 2.63 0 0 0 2.619-2.619V8.429a2.63 2.63 0 0 0-2.619-2.619z" class="cls-1" data-name="Path 23"/>
</svg>
