<svg xmlns="http://www.w3.org/2000/svg" id="Group_26" width="37.027" height="42.955" data-name="Group 26" viewBox="0 0 37.027 42.955">
    <defs>
        <style>
            .cls-1{fill:#fff}
        </style>
    </defs>
    <path id="Path_33" d="M36.224 20.665H33a.815.815 0 0 0 0 1.63h3.224a.815.815 0 0 0 0-1.63m-28.975 0a.815.815 0 0 0 0 1.63h3.224a.815.815 0 0 0 0-1.63zm-2.421.8a.812.812 0 0 0-.8-.815H.8a.815.815 0 0 0 0 1.63h3.226a.8.8 0 0 0 .803-.812zM15.29 32.818h20.934V31.2H15.29zm2.421-11.35a.812.812 0 0 0-.8-.815h-3.227a.815.815 0 0 0 0 1.63h3.224a.8.8 0 0 0 .803-.815zm-5.644 19.069l-8.3-6.1 8.3-6.1zm1.173-14.524a.8.8 0 0 0-.84.074L1.939 33.781a.809.809 0 0 0 0 1.309L12.4 42.785a.827.827 0 0 0 .469.161.808.808 0 0 0 .815-.815v-15.39a.838.838 0 0 0-.444-.728zm2.05 11.659h20.934v-1.618H15.29zm11.276-17.007a.815.815 0 0 0 0 1.63h3.224a.815.815 0 0 0 0-1.63zM23.343 10.13H2.408v1.618h20.935zm3.211-7.719l8.3 6.1-8.3 6.1zm-1.161 14.512a.731.731 0 0 0 .358.086.722.722 0 0 0 .469-.161l10.461-7.694a.809.809 0 0 0 0-1.309L26.22.151a.8.8 0 0 0-.84-.074.815.815 0 0 0-.445.729v15.388a.835.835 0 0 0 .458.729zm-6.076 4.545a.812.812 0 0 0 .8.815h3.224a.815.815 0 0 0 0-1.63h-3.21a.831.831 0 0 0-.815.815zm4.026-16.2H2.408v1.614h20.935z" class="cls-1" data-name="Path 33" transform="translate(0 .01)"/>
</svg>
