<svg xmlns="http://www.w3.org/2000/svg" width="37.686" height="48.037" viewBox="0 0 37.686 48.037">
    <defs>
        <style>
            .cls-1{fill:#fff}
        </style>
    </defs>
    <path id="Shape_2" d="M470.137 2263.011h-24.82a2.86 2.86 0 0 0-2.688 1.922h27.509a.963.963 0 0 1 .96.961v37.084a2.247 2.247 0 0 1-.144.816 2.837 2.837 0 0 0 2.064-2.738v-35.163a2.89 2.89 0 0 0-2.881-2.883m-3.265 3.267h-24.82a2.89 2.89 0 0 0-2.881 2.882v5.572l1.92-1.921v-3.651a.963.963 0 0 1 .96-.961h24.82a.963.963 0 0 1 .96.961v37.084a2.248 2.248 0 0 1-.144.816 2.838 2.838 0 0 0 2.064-2.738v-35.161a2.89 2.89 0 0 0-2.879-2.882zm-29.621 41.888a.963.963 0 0 0 .96.961h24.82a.963.963 0 0 0 .96-.961V2273a.963.963 0 0 0-.96-.961H448a2.446 2.446 0 0 0-.96.192v6.725a2.89 2.89 0 0 1-2.88 2.882h-6.721a3.771 3.771 0 0 0-.192.96zm1.344-28.246h5.569a.963.963 0 0 0 .96-.96v-5.525zm-3.265 28.246V2282.8a6.2 6.2 0 0 1 1.632-3.939l7.057-7.061.048-.049a6.23 6.23 0 0 1 3.889-1.585h15.026a2.89 2.89 0 0 1 2.881 2.882v35.115a2.89 2.89 0 0 1-2.881 2.883h-24.771a2.89 2.89 0 0 1-2.88-2.88zm3.84-4.756a.96.96 0 1 0 .96-.96.963.963 0 0 0-.959.961zm0-4.515a.96.96 0 1 0 .96-.961.964.964 0 0 0-.959.967zm0-4.468a.96.96 0 1 0 .96-.961.964.964 0 0 0-.959.962zm0-4.467a.96.96 0 1 0 .96-.961.963.963 0 0 0-.959.962zm0-4.515a.96.96 0 1 0 .96-.961.963.963 0 0 0-.959.962zm22.852 17.965a.963.963 0 0 0-.96-.96h-15.985a.961.961 0 0 0 0 1.921h15.987a.963.963 0 0 0 .959-.96zm0-4.515a.963.963 0 0 0-.96-.961h-15.985a.961.961 0 0 0 0 1.922h15.987a.964.964 0 0 0 .959-.955zm0-4.468a.964.964 0 0 0-.96-.961h-15.985a.961.961 0 0 0 0 1.922h15.987a.964.964 0 0 0 .959-.96zm0-4.467a.963.963 0 0 0-.96-.961h-15.985a.961.961 0 0 0 0 1.922h15.987a.963.963 0 0 0 .959-.96zm0-4.515a.963.963 0 0 1-.96.96h-15.985a.961.961 0 0 1 0-1.921h15.987a.963.963 0 0 1 .959.962z" class="cls-1" data-name="Shape 2" transform="translate(-435.331 -2263.011)"/>
</svg>
