<svg xmlns="http://www.w3.org/2000/svg" width="43.715" height="45.161" viewBox="0 0 43.715 45.161">
    <defs>
        <style>
            .cls-1{fill:#fff}
        </style>
    </defs>
    <path id="Shape_6" d="M1367.693 2890.938h-8.9v-11.258h8.9v11.258m1.619-12.866h-12.139v14.475h12.139zm27.514 41.011h-40.462V2903h40.462zm-39.043-21.712h37.623l1.156 4.021h-39.934zm20.43-4.824a3.228 3.228 0 0 1 3.232-3.216h4.865a3.228 3.228 0 0 1 3.232 3.216v3.217h-11.33zm20.157 9.28l-1.576-5.48a.808.808 0 0 0-.778-.583h-4.855v-3.217a4.841 4.841 0 0 0-4.851-4.825h-4.866a4.843 4.843 0 0 0-4.849 4.825v3.217h-19.422a.808.808 0 0 0-.778.583l-1.619 5.629a.838.838 0 0 0 0 .09.726.726 0 0 0-.026.131v17.691a.807.807 0 0 0 .809.8h3.237v2.542h1.619v-2.542h32.37v2.542h1.618v-2.542h3.237a.807.807 0 0 0 .809-.8v-17.614a.626.626 0 0 0 .016-.077.8.8 0 0 0-.095-.37zm-37.96-18.126a.812.812 0 0 0 .572-.236l1.619-1.609a.8.8 0 0 0 0-1.136.812.812 0 0 0-1.144 0l-1.619 1.608a.8.8 0 0 0 0 1.137.812.812 0 0 0 .572.235zm0 3.217a.812.812 0 0 0 .572-.236l4.855-4.825a.8.8 0 0 0 0-1.137.811.811 0 0 0-1.144 0l-4.856 4.825a.8.8 0 0 0 0 1.137.814.814 0 0 0 .573.236z" class="cls-1" data-name="Shape 6" transform="translate(-1354.745 -2878.072)"/>
</svg>
