<svg xmlns="http://www.w3.org/2000/svg" id="Group_22" width="42.911" height="36.858" data-name="Group 22" viewBox="0 0 42.911 36.858">
    <defs>
        <style>
            .cls-1{fill:#fff}
        </style>
    </defs>
    <path id="Union_2" d="M1.5 36.858A1.483 1.483 0 0 1 0 35.392L1.625 26.7a1.489 1.489 0 0 1 1.5-1.467h36.563a1.483 1.483 0 0 1 1.5 1.467l1.719 8.387a1.808 1.808 0 0 1-1.5 1.766zm1.158-2.326h37.55v-.644H2.662zm17.186-1.467h2.662v-1.5h-2.657zM2.831 23.912a1.5 1.5 0 0 1-1.5-1.513V1.5a1.5 1.5 0 0 1 1.5-1.5h36.737a1.515 1.515 0 0 1 1.5 1.5v20.9a1.527 1.527 0 0 1-1.5 1.5zM3 22.278h36.39V1.681H3z" class="cls-1" data-name="Union 2"/>
</svg>
