<svg xmlns="http://www.w3.org/2000/svg" width="22.674" height="53.5" viewBox="0 0 22.674 53.5">
    <defs>
        <style>
            .cls-1{fill:#fff}
        </style>
    </defs>
    <path id="Shape_4" d="M1379.433 2270.574l.7.535 1.392 1.016 1.179.91 1.232-.91 1.393-1.016.7-.535 5.947.749-1.447 14.658-1.125.642-.911.535-.107 1.016-2.089 19.367h-7.34l-1.821-19.367-.108-.963-.857-.535-1.339-.856-1.34-14.5 5.947-.749m-6.536 15.89a1.325 1.325 0 0 0 .536.856l1.661 1.07 2.036 21.186h11.089l2.25-21.186 1.5-.856a1.4 1.4 0 0 0 .589-.856l1.554-15.461a1.729 1.729 0 0 0-1.661-1.819l-6.911-.91-2.786 2.033-2.732-2.033-6.911.856a1.843 1.843 0 0 0-1.661 1.819zm9.858-28.355a3.905 3.905 0 1 1-3.911 3.906 3.93 3.93 0 0 1 3.904-3.903zm0 9.844a5.938 5.938 0 1 0-5.947-5.938 5.964 5.964 0 0 0 5.94 5.941z" class="cls-1" data-name="Shape 4" transform="translate(-1371.448 -2256.076)"/>
</svg>
