<svg xmlns="http://www.w3.org/2000/svg" width="40.886" height="47.15" viewBox="0 0 40.886 47.15">
    <defs>
        <style>
            .cls-1{fill:#fff}
        </style>
    </defs>
    <path id="Path_31" d="M15.773 12.031v9.122a4.244 4.244 0 0 1-3.4 4.139V28.3h10.6v-5.728a11.331 11.331 0 0 0-7.2-10.542M0 35.764a11.485 11.485 0 0 0 22.969 0v-5.727H0zm39.129-25.451v7.534a4.844 4.844 0 0 1-9.688 0V9.638A9.606 9.606 0 0 0 19.793 0h-2.581A6.592 6.592 0 0 0 10.6 6.532V9.47a17.483 17.483 0 0 1 1.767 0V6.532a4.806 4.806 0 0 1 4.844-4.784h2.581a7.918 7.918 0 0 1 7.951 7.891v8.209a6.571 6.571 0 0 0 13.142 0v-7.535h-1.756zM11.485 21.629a1.892 1.892 0 0 0 1.9-1.876v-3.782a1.9 1.9 0 0 0-3.792 0v3.752a1.911 1.911 0 0 0 1.892 1.906zm-.885 3.653a4.254 4.254 0 0 1-3.4-4.139v-9.122A11.421 11.421 0 0 0 0 22.572V28.3h10.6z" class="cls-1" data-name="Path 31"/>
</svg>
