<svg xmlns="http://www.w3.org/2000/svg" width="36.172" height="56.365" viewBox="0 0 36.172 56.365">
    <defs>
        <style>
            .cls-1{fill:#fff;fill-rule:evenodd}
        </style>
    </defs>
    <path id="Path_12" d="M15.623 6.884h-4.4v3.436h14.1V6.884H20.3l.447-.79L22.5 2.932V1.077h-8.182v1.81l1.752 3.161.447.79h-.9v.046M10.1 9.644H3.894a2.768 2.768 0 0 0-1.97.848 2.749 2.749 0 0 0-.848 1.982v40.054a2.768 2.768 0 0 0 .848 1.97 2.768 2.768 0 0 0 1.97.848h28.269a2.9 2.9 0 0 0 2.818-2.818V12.473a2.9 2.9 0 0 0-2.818-2.818h-5.75v1.8H10.1V9.644zm8.064 10.217v1.077h11.845v-1.077zm0 2.989v1.077h4.513v-1.076zm7.331 0v1.077h4.513v-1.076zm-16.8 1.97l-.172-.172-1.754-2.084v2.256zm4.513-4.4L11.4 24.431l-.115.286h-.344l-1.752.115h3.952v-4.4h.069zm-6.437.447L9.2 23.744l1.352-.057 2.027-4.513h-5.81zM5.532 19.46l-.848.676.962 1.134v4.685h8.625v-7.892l1.294-2.818-1.018-.445-1.467 3.274H5.647V19.6zm12.634 15.463V36h11.843v-1.077zm0 2.989v1.077h4.513v-1.076zm7.331 0v1.077h4.513v-1.076zm-16.8 1.913l-.172-.172-1.756-2.084v2.256zm4.513-4.341l-1.81 4.009-.115.286h-.344l-1.7.057H13.2v-4.351zm-6.437.4L9.2 38.76l1.352-.057 2.027-4.513h-5.81zm-1.237-1.42l-.848.676.962 1.134v4.686h8.625v-7.892l1.294-2.818-1.022-.45-1.467 3.279H5.647V34.6zM3.894 8.579h6.266V5.807h4.57l-1.409-2.485-.057-.115V0H23.71v3.161l-.057.115-1.409 2.485h4.284v2.76h5.75a4.017 4.017 0 0 1 2.76 1.134 4.091 4.091 0 0 1 1.134 2.76v40.056a3.872 3.872 0 0 1-3.894 3.894H3.894a4.017 4.017 0 0 1-2.76-1.134A3.933 3.933 0 0 1 0 52.471V12.416a4.045 4.045 0 0 1 1.134-2.772 4.009 4.009 0 0 1 2.76-1.065z" class="cls-1" data-name="Path 12"/>
</svg>
