<?xml version="1.0" encoding="UTF-8"?>
<svg width="28px" height="28px" viewBox="0 0 28 28" version="1.1" xmlns="http://www.w3.org/2000/svg" xmlns:xlink="http://www.w3.org/1999/xlink">
    <!-- Generator: Sketch 54 (76480) - https://sketchapp.com -->
    <title>Tool</title>
    <desc>Created with Sketch.</desc>
    <g id="Icons" stroke="none" stroke-width="1" fill="none" fill-rule="evenodd">
        <g id="Tool" transform="translate(-0.234284, 0.003742)" stroke="#000000">
            <path d="M24.2593772,12.2231707 L11.0264883,25.4560596 C8.9458957,27.5363558 5.57285866,27.5363558 3.49256238,25.4560596 C2.45315496,24.4169484 1.93167348,23.0528002 1.93344219,21.6889484 C1.93167348,20.3250965 2.45108089,18.9633188 3.49256238,17.9218373 L16.7251549,4.68894844 C16.4653031,5.01576326 15.0679697,7.100504 18.3971549,10.4296892 C21.7263402,13.7588744 23.9135994,12.4640596 24.2593772,12.2231707 Z" id="Stroke-1"></path>
            <path d="M26.176355,5.37842992 C25.4599106,5.4036151 24.7390216,5.14376326 24.192355,4.5968003 C23.664355,4.06909658 23.404503,3.37754104 23.4127994,2.68628177 L27.2762068,1.51294844 L26.176355,5.37842992 Z" id="Stroke-3" fill="#000000" fill-rule="nonzero"></path>
            <path d="M24.2196142,12.2545781 C24.2154662,12.2545781 24.213392,12.2566521 24.2089476,12.2608003 C23.8634662,12.5016892 21.726281,13.7588744 18.3970957,10.4296892 C15.0679105,7.100504 16.4255401,5.06405956 16.685392,4.73724474 L16.6916143,4.73102252 L16.7482068,4.71205956 L23.4127994,2.68628177 L27.2762068,1.51294844 L26.176355,5.37842992 L24.2341328,12.1979855 L24.2196142,12.2545781 Z" id="Stroke-5"></path>
            <path d="M18.3971253,10.4297781 L3.431792,25.3951114" id="Stroke-7"></path>
            <polygon id="Stroke-9" points="8.56494756 1.03597067 14.4730957 6.94411882 6.94420682 14.4700448 1.03605867 8.56485956"></polygon>
            <polygon id="Stroke-11" points="27.4951994 19.9663707 19.9663105 27.4920002 14.4789031 22.0048892 22.007792 14.4789632"></polygon>
        </g>
    </g>
</svg>