<svg width="22" height="22" viewBox="0 0 22 22" fill="none" xmlns="http://www.w3.org/2000/svg">
<path d="M21.5387 0H0.461545C0.206772 0 0 0.20677 0 0.46154V21.5382C0 21.793 0.206772 21.9998 0.461545 21.9998H11.6598V14.6486H9.29644C9.0922 14.6486 8.92674 14.4831 8.92674 14.2789V11.2987C8.92674 11.0945 9.0922 10.9288 9.29644 10.9288H11.66V8.87195C11.66 6.16179 13.3666 4.41071 16.0075 4.41071L18.3586 4.4144C18.5624 4.41463 18.7279 4.58009 18.7279 4.78409V7.55126C18.7279 7.75549 18.5624 7.92095 18.3582 7.92095L16.7744 7.92164C15.6831 7.92164 15.4832 8.34718 15.4832 9.18511V10.9288H18.2476C18.3457 10.9288 18.4396 10.9678 18.5091 11.0373C18.5783 11.1067 18.6173 11.2007 18.6173 11.2987L18.6164 14.2791C18.6164 14.4834 18.4509 14.6491 18.2467 14.6491H15.483V22H21.5385C21.7932 22 22 21.7932 22 21.5385V0.46154C22.0002 0.206539 21.7937 0 21.5387 0Z" fill="#333333"/>
</svg>
