<svg width="31" height="27" viewBox="0 0 31 27" fill="none" xmlns="http://www.w3.org/2000/svg">
<path d="M29.8611 5.1553C29.4379 4.15372 28.8335 3.25128 28.0625 2.47097C27.288 1.69792 26.3887 1.08972 25.3887 0.663172C23.3062 -0.220452 20.9149 -0.220686 18.8305 0.663406C17.8318 1.08972 16.9323 1.69792 16.1549 2.4739C15.8265 2.80715 15.5277 3.16362 15.2609 3.53942C14.9939 3.16338 14.6941 2.80616 14.364 2.47097C13.5895 1.69792 12.6901 1.08972 11.6903 0.663172C9.60787 -0.220979 7.21638 -0.221213 5.13243 0.663406C4.13314 1.08972 3.23376 1.69792 2.45683 2.47337C1.6883 3.25128 1.084 4.15371 0.660213 5.15624C0.222058 6.19908 0 7.30368 0 8.47274C0.00447097 9.74388 0.379019 11.0325 1.08346 12.1992C1.3209 12.5931 1.62517 12.993 2.05265 13.4711L14.891 26.8432C14.9869 26.9433 15.1207 27 15.2608 27C15.4009 27 15.5348 26.9433 15.6307 26.8432L28.4815 13.4576C28.8966 12.993 29.2008 12.5931 29.4383 12.1992C30.1427 11.0326 30.5173 9.74388 30.5217 8.43934C30.5218 7.30368 30.2997 6.19908 29.8611 5.1553ZM28.5635 11.6889C28.3559 12.033 28.0948 12.375 27.7294 12.7845L15.2609 25.7713L2.80479 12.7979C2.42696 12.375 2.16592 12.033 1.95828 11.6889C1.34648 10.6756 1.02111 9.56222 1.01741 8.43934C1.01741 7.43535 1.21366 6.45914 1.60013 5.53913C1.97396 4.65427 2.50774 3.85732 3.1841 3.1727C3.86667 2.49148 4.65851 1.95576 5.53655 1.58125C6.44964 1.19403 7.41686 0.997482 8.41162 0.997482C9.40638 0.997482 10.3739 1.19403 11.286 1.58102C12.1648 1.95605 12.9566 2.49148 13.6362 3.16983C14.0999 3.64056 14.4974 4.16333 14.8173 4.72371C14.9976 5.03916 15.5242 5.03916 15.7045 4.72371C16.0245 4.16333 16.4219 3.64062 16.8827 3.17276C17.5652 2.49154 18.3571 1.95605 19.2349 1.58131C21.061 0.806799 23.1599 0.807092 24.9845 1.58108C25.8634 1.95588 26.6552 2.49154 27.3353 3.17036C28.0141 3.85744 28.5479 4.65439 28.9212 5.53825C29.3082 6.45926 29.5044 7.43541 29.5044 8.46946C29.5007 9.56222 29.1753 10.6756 28.5635 11.6889Z" fill="#707070"/>
</svg>
