<svg width="57" height="57" viewBox="0 0 57 57" fill="none" xmlns="http://www.w3.org/2000/svg">
<path d="M7.18487 11.1011C7.18487 11.3727 7.38071 11.5932 7.622 11.5932C7.86329 11.5932 8.05912 11.3732 8.05912 11.1011C8.05912 9.25154 9.40459 7.74702 11.0587 7.74702C11.3 7.74702 11.4958 7.52654 11.4958 7.25487C11.4958 6.9832 11.3 6.76271 11.0587 6.76271C8.92288 6.76271 7.18487 8.70919 7.18487 11.1011Z" fill="#2F2F2F"/>
<path fill-rule="evenodd" clip-rule="evenodd" d="M11.2563 18.3559C7.16244 18.3559 3.83193 14.997 3.83193 10.8684C3.83193 6.73981 7.16244 3.38136 11.2563 3.38136C15.3502 3.38136 18.6807 6.73981 18.6807 10.8684C18.6807 14.997 15.3502 18.3559 11.2563 18.3559ZM11.2563 4.31543C7.66844 4.31543 4.74943 7.25495 4.74943 10.8684C4.74943 14.4819 7.66844 17.4219 11.2563 17.4219C14.8442 17.4219 17.7632 14.4823 17.7632 10.8684C17.7627 7.25542 14.8442 4.31543 11.2563 4.31543Z" fill="#2F2F2F"/>
<path fill-rule="evenodd" clip-rule="evenodd" d="M22.0336 10.88C22.0336 4.88105 17.0918 0 11.017 0C4.9423 0 0 4.88105 0 10.88C0 16.7266 4.69373 21.5086 10.555 21.749V24.3575H8.38995C8.16725 24.3575 7.97598 24.5154 7.93578 24.7334C7.93578 24.7334 6.78579 30.9737 6.78441 30.988L6.78418 30.9889C6.78406 30.9892 6.78394 30.9896 6.78394 30.9898C6.78394 30.9903 6.78441 30.9907 6.78441 30.9912C6.70863 31.825 6.81259 32.6818 7.09119 33.4721C7.67242 35.121 9.25025 36.2288 11.0175 36.2288C12.7848 36.2288 14.3626 35.121 14.9438 33.4716C15.2169 32.6965 15.3199 31.8572 15.2474 31.0049C15.2483 30.9728 14.0988 24.7334 14.0988 24.7334C14.0586 24.5154 13.8673 24.3575 13.6446 24.3575H11.4795V21.749C17.3399 21.509 22.0336 16.7266 22.0336 10.88ZM8.77482 25.2754H10.555V30.5309H7.80087L8.77482 25.2754ZM14.071 33.1683C13.6192 34.4496 12.392 35.3105 11.017 35.3105C9.64204 35.3105 8.4149 34.4496 7.96304 33.1683C7.76714 32.6121 7.67797 32.0182 7.68536 31.4483H14.3459C14.3543 32.032 14.2642 32.619 14.071 33.1683ZM13.2593 25.2754L14.2346 30.5309H11.4791V25.2754H13.2593ZM0.924054 10.88C0.924054 5.38678 5.45146 0.917836 11.017 0.917836C16.5826 0.917836 21.11 5.38678 21.11 10.88C21.11 16.3733 16.5822 20.8427 11.017 20.8427C5.45192 20.8427 0.924054 16.3737 0.924054 10.88Z" fill="#2F2F2F"/>
<path d="M47.9168 22.7034H41.6546C41.3995 22.7034 41.1933 22.487 41.1933 22.2203C41.1933 21.9537 41.3995 21.7373 41.6546 21.7373H47.9168C48.1719 21.7373 48.3782 21.9537 48.3782 22.2203C48.3782 22.487 48.1719 22.7034 47.9168 22.7034Z" fill="#2F2F2F"/>
<path fill-rule="evenodd" clip-rule="evenodd" d="M43.0888 46.8559H46.4827C46.7362 46.8559 46.9412 46.6429 46.9412 46.3794V36.2223C46.9412 35.9593 46.7362 35.7458 46.4827 35.7458H43.0888C42.8352 35.7458 42.6303 35.9593 42.6303 36.2223V46.3794C42.6303 46.6424 42.8352 46.8559 43.0888 46.8559ZM46.0242 45.9028H43.5473V36.6989H46.0242V45.9028Z" fill="#2F2F2F"/>
<path fill-rule="evenodd" clip-rule="evenodd" d="M39.2978 46.8559H35.9039C35.6503 46.8559 35.4454 46.6377 35.4454 46.3689V39.6142C35.4454 39.3453 35.6503 39.1271 35.9039 39.1271H39.2978C39.5513 39.1271 39.7563 39.3453 39.7563 39.6142V46.3689C39.7563 46.6382 39.5509 46.8559 39.2978 46.8559ZM36.3619 45.8819H38.8388V40.1012H36.3619V45.8819Z" fill="#2F2F2F"/>
<path fill-rule="evenodd" clip-rule="evenodd" d="M49.7946 46.8559H53.1885C53.4421 46.8559 53.6471 46.6483 53.6471 46.3919V34.7611C53.6471 34.5047 53.4421 34.2966 53.1885 34.2966H49.7946C49.5411 34.2966 49.3361 34.5047 49.3361 34.7611V46.3914C49.3361 46.6478 49.5411 46.8559 49.7946 46.8559ZM52.73 45.9269H50.2532V35.2257H52.73V45.9269Z" fill="#2F2F2F"/>
<path d="M51.8597 29.4921L49.7374 28.9954C49.4917 28.9388 49.2401 29.0814 49.1787 29.3166C49.1178 29.5522 49.2688 29.7895 49.5162 29.8474L50.3975 30.0536L35.7052 36.8463C35.4757 36.9525 35.3806 37.2148 35.4919 37.4329C35.6008 37.6461 35.8852 37.7391 36.1091 37.6355L50.7895 30.849L50.4742 31.501C50.3675 31.7208 50.4686 31.9814 50.7004 32.0827C50.9266 32.181 51.2083 32.084 51.3126 31.8673L52.1676 30.0997C52.2886 29.8501 52.1404 29.5574 51.8597 29.4921Z" fill="#2F2F2F"/>
<path fill-rule="evenodd" clip-rule="evenodd" d="M42.6303 53.6186C42.6303 54.6841 43.4896 55.5508 44.5462 55.5508C45.6029 55.5508 46.4622 54.6841 46.4622 53.6186C46.4622 52.5532 45.6029 51.6864 44.5462 51.6864C43.4896 51.6864 42.6303 52.5532 42.6303 53.6186ZM43.5459 53.6182C43.5459 53.0626 43.995 52.6105 44.5462 52.6105C45.0974 52.6105 45.5465 53.0626 45.5465 53.6182C45.5465 54.1738 45.0979 54.6259 44.5462 54.6259C43.9945 54.6259 43.5459 54.1738 43.5459 53.6182Z" fill="#2F2F2F"/>
<path fill-rule="evenodd" clip-rule="evenodd" d="M53.1146 18.3559H36.4568C34.3148 18.3559 32.5714 20.0986 32.5714 22.2399V53.116C32.5714 55.2578 34.3143 57 36.4568 57H53.1146C55.2567 57 57 55.2733 57 53.1508V22.2399C57 20.0981 55.2571 18.3559 53.1146 18.3559ZM36.4568 19.2702H53.1146C54.7534 19.2702 56.0865 20.6024 56.0865 22.2399V25.002H33.4853V22.2399C33.4853 20.6024 34.8185 19.2702 36.4568 19.2702ZM33.4853 25.9159H56.0865V49.4396H33.4853V25.9159ZM53.1146 56.0857H36.4568C34.8181 56.0857 33.4849 54.7535 33.4849 53.116V50.3539H56.0865V53.1503C56.0865 54.7691 54.7534 56.0857 53.1146 56.0857Z" fill="#2F2F2F"/>
<path d="M10.9944 50.7203H28.7615C29.0139 50.7203 29.2185 50.5101 29.2185 50.2505C29.2185 49.9909 29.0139 49.7802 28.7619 49.7802H11.451V38.6313C11.451 38.3717 11.2464 38.161 10.9944 38.161C10.7424 38.161 10.5378 38.3717 10.5378 38.6313V50.25C10.5378 50.5096 10.7424 50.7203 10.9944 50.7203Z" fill="#2F2F2F"/>
</svg>
