<svg width="24" height="57" viewBox="0 0 24 57" fill="none" xmlns="http://www.w3.org/2000/svg">
<path fill-rule="evenodd" clip-rule="evenodd" d="M8.46519 0H14.757C15.3758 0.00064426 15.9691 0.249715 16.4066 0.692322C16.8442 1.13506 17.0903 1.73525 17.0911 2.36134V5.39529H20.3956C21.145 5.39606 21.8635 5.69771 22.3934 6.23399C22.9233 6.77014 23.2214 7.49712 23.2222 8.25542V54.1397C23.2214 54.898 22.9233 55.6252 22.3934 56.1613C21.8635 56.6975 21.145 56.9991 20.3956 57H2.82675C2.07735 56.9991 1.35887 56.6976 0.828969 56.1614C0.299001 55.6253 0.000901964 54.8983 0 54.14V8.25542C0.000837538 7.49712 0.298937 6.77014 0.82884 6.23386C1.35881 5.69771 2.07735 5.39606 2.82675 5.39529H6.1311V2.36134C6.13187 1.73525 6.37804 1.13506 6.81563 0.692322C7.25314 0.249715 7.84638 0.00064426 8.46519 0ZM21.846 54.14V8.25568C21.8456 7.86629 21.6927 7.49326 21.4208 7.21816C21.1489 6.94293 20.7802 6.78818 20.3957 6.78767H16.4031C16.3127 6.78767 16.2232 6.76963 16.1397 6.73471C16.0785 6.70907 16.0214 6.67453 15.9701 6.63253C15.9514 6.61732 15.9335 6.60109 15.9164 6.58382C15.8652 6.53189 15.8223 6.47198 15.7895 6.40678C15.7815 6.3908 15.7741 6.37457 15.7673 6.35794C15.7327 6.27342 15.7149 6.18283 15.7149 6.09148V2.36134C15.7147 2.10428 15.6136 1.85792 15.4341 1.67624C15.332 1.5729 15.2093 1.49546 15.0757 1.44765C14.9743 1.41144 14.8666 1.39237 14.757 1.39225H8.46519C8.21122 1.3925 7.96769 1.49455 7.78814 1.67624C7.60858 1.85792 7.50756 2.10428 7.5073 2.36134V5.39529H12.7555C12.938 5.39529 13.113 5.46861 13.2421 5.59913C13.3711 5.72966 13.4436 5.90683 13.4436 6.09148C13.4436 6.27612 13.3711 6.45317 13.2421 6.58382C13.113 6.71435 12.938 6.78767 12.7555 6.78767H2.82675C2.4422 6.78805 2.07349 6.94293 1.80154 7.21803C1.5296 7.49326 1.37659 7.86629 1.3762 8.25542V54.14C1.37659 54.5291 1.5296 54.9023 1.80154 55.1774C2.07349 55.4526 2.4422 55.6074 2.82675 55.6078H20.3956C20.7802 55.6074 21.1488 55.4525 21.4207 55.1774C21.6927 54.9023 21.8456 54.5291 21.846 54.14ZM9.60063 24.7478C11.3371 22.9655 13.3067 21.418 15.4575 20.1459C15.5528 20.092 15.6596 20.0614 15.7693 20.0563C15.8322 20.0535 15.895 20.059 15.9559 20.0728C16.0012 20.083 16.0456 20.0977 16.0881 20.1168C16.188 20.1616 16.2756 20.2291 16.3437 20.3139C16.385 20.3654 16.4184 20.4225 16.4431 20.4831C16.459 20.5221 16.4711 20.5626 16.4795 20.6041C16.8817 22.6161 16.8826 24.5544 16.8833 26.2647C16.8834 26.6036 16.8835 26.9325 16.8871 27.2497C16.9396 30.36 15.84 33.3828 13.7936 35.7544C13.0923 36.5533 12.3386 37.3061 11.5373 38.0081C11.071 38.4167 10.6957 38.9158 10.4347 39.4737C10.1738 40.0317 10.0329 40.6368 10.0208 41.2509C10.0231 41.7337 10.0394 42.0144 10.0402 42.0279C10.0516 42.2079 9.98989 42.3848 9.86864 42.52C9.74733 42.6552 9.57647 42.7375 9.39357 42.7487C9.37881 42.75 9.36432 42.75 9.34982 42.75C9.17413 42.7499 9.00508 42.6838 8.87713 42.5654C8.80207 42.4959 8.74441 42.4115 8.70737 42.3187C8.68121 42.2534 8.66536 42.184 8.66085 42.1126C8.6421 41.8174 8.23892 34.8177 11.3803 29.0001C11.4663 28.8409 11.613 28.7218 11.7883 28.6691C11.9635 28.6162 12.1529 28.6341 12.3148 28.7187C12.4766 28.8033 12.5977 28.9476 12.6513 29.12C12.705 29.2924 12.6868 29.4786 12.6009 29.6379C11.2296 32.1776 10.5785 35.0087 10.2749 37.3224C10.3846 37.2095 10.4971 37.0992 10.6162 36.9946C11.3723 36.3324 12.0836 35.6222 12.7453 34.8684C14.573 32.7473 15.5539 30.0448 15.5051 27.2647C15.5013 26.943 15.5013 26.6094 15.5013 26.2657C15.5007 24.9072 15.5001 23.3991 15.2891 21.8572C12.6457 23.5818 4.96744 29.2622 7.81726 35.4129C7.85688 35.4943 7.87956 35.5829 7.88407 35.6731C7.88851 35.7633 7.87466 35.8535 7.84328 35.9384C7.81191 36.0233 7.76365 36.1011 7.70135 36.1675C7.63899 36.2338 7.56387 36.2873 7.48031 36.3247C7.39675 36.3622 7.30642 36.3829 7.21462 36.3856C7.12287 36.3883 7.03145 36.373 6.94577 36.3405C6.86002 36.3082 6.78174 36.2592 6.71551 36.1967C6.64921 36.1341 6.59632 36.0592 6.55979 35.9764C4.91744 32.4323 5.96881 28.5494 9.60063 24.7478Z" fill="#2F2F2F"/>
</svg>
