<svg width="60" height="57" viewBox="0 0 60 57" fill="none" xmlns="http://www.w3.org/2000/svg">
<path d="M27.1071 12.338C27.027 12.9905 27.5153 13.6195 28.2163 13.6195C28.3983 13.6195 28.5809 13.5763 28.7481 13.489C31.5559 12.0228 34.5127 11.0264 37.6806 10.6186C40.8884 10.2055 42.8853 8.45874 42.9688 8.3846C42.9756 8.37843 42.9822 8.37238 42.9888 8.36597L45.5843 5.83923C45.8224 5.60742 45.8222 5.23183 45.5837 5.00038C45.3449 4.76881 44.9586 4.76917 44.7206 5.00097L42.138 7.51502C42.0016 7.63093 40.2341 9.09283 37.5205 9.4422C34.279 9.85955 31.2138 10.8613 28.3352 12.3579C28.4898 11.3445 29.1064 10.4426 30.0017 9.92918C30.8095 9.46604 31.4473 8.91417 31.8976 8.2891C32.4537 7.5168 32.0398 6.39858 31.1159 6.13272C30.2712 5.88953 29.3477 5.85785 28.3712 6.03841C26.0961 6.45909 24.3557 8.17968 22.7754 9.74192C22.6471 9.86876 22.5198 9.99455 22.3934 10.1185C21.6537 10.8443 20.5709 11.1066 19.5684 10.8027C19.5128 10.7753 19.501 10.7355 19.5331 10.6834C21.0125 8.98345 24.3945 5.57397 27.6857 3.57893C29.7306 2.33951 31.7502 2.71485 33.9611 3.12573L33.9734 3.12801C38.4894 3.96639 40.6087 1.05362 40.6969 0.929289C40.8879 0.659402 40.8174 0.289982 40.5398 0.104441C40.2621 -0.0810991 39.8821 -0.0128858 39.6911 0.257121C39.674 0.281084 37.9442 2.65847 34.2026 1.96281C31.658 1.4903 29.3717 1.15908 27.0399 2.57246C22.8297 5.12447 19.0215 9.43437 18.6012 9.91732C18.0147 10.5914 18.3426 11.674 19.2051 11.9353C20.645 12.3713 22.1985 11.9953 23.2605 10.9537C23.4265 10.7909 23.5944 10.623 23.765 10.4526C25.1295 9.08894 26.6561 7.56326 28.5992 7.20409C29.3829 7.05924 30.113 7.08142 30.7693 7.2704C30.9318 7.34241 30.9745 7.45523 30.8977 7.60898C30.5481 8.0943 30.038 8.53122 29.3814 8.90776C28.125 9.62833 27.2748 10.9105 27.1071 12.338Z" fill="#2F2F2F"/>
<path d="M43.7288 3.02655C43.7288 3.58372 43.2735 4.0354 42.7119 4.0354C42.1502 4.0354 41.6949 3.58372 41.6949 3.02655C41.6949 2.46938 42.1502 2.0177 42.7119 2.0177C43.2735 2.0177 43.7288 2.46938 43.7288 3.02655Z" fill="#2F2F2F"/>
<path d="M19.5782 54.4779C19.5023 54.4779 19.426 54.4711 19.3499 54.4575C18.7212 54.345 13.0839 53.2924 8.78729 51.0268C6.4108 49.7735 5.57009 47.6734 4.73789 45.3126C3.50745 41.8215 0.581192 41.5519 0.551822 41.5495C0.221794 41.5235 -0.0244379 41.2385 0.00193557 40.9131C0.028309 40.5875 0.320455 40.345 0.647126 40.3707C0.799133 40.3827 4.3858 40.7121 5.87003 44.9243L5.87644 44.9424C6.60219 47.0011 7.26581 48.8836 9.3524 49.9839C12.7111 51.755 17.3515 52.8978 19.5638 53.2938C19.6244 53.2945 19.6527 53.2647 19.6487 53.2045C19.4215 52.2099 18.6607 51.4304 17.6632 51.1703C17.4939 51.1262 17.3226 51.0822 17.15 51.0379C15.0068 50.4879 12.6467 49.8822 11.1625 48.1806C10.5253 47.4502 10.0996 46.6587 9.89725 45.8281C9.67655 44.9221 10.4493 44.0117 11.3995 44.0968C12.1666 44.1635 12.9621 44.4245 13.7638 44.8726C14.6524 45.3689 15.7427 45.4376 16.7039 45.0624C13.9796 43.3851 11.6017 41.314 9.64347 38.7956C8.00556 36.6896 5.86044 35.9328 5.69177 35.876L2.22666 34.9587C1.90694 34.874 1.71729 34.5497 1.80312 34.2344C1.88896 33.9191 2.21719 33.7326 2.53738 33.8166L6.01964 34.7384C6.02839 34.7407 6.03714 34.7432 6.04589 34.7458C6.15162 34.779 8.65878 35.5865 10.5946 38.076C12.5049 40.5324 14.831 42.5225 17.4898 44.1521C18.2688 44.6291 18.1182 45.7828 17.2887 46.1031C15.9585 46.6737 14.4199 46.5984 13.173 45.9015C12.5214 45.5375 11.8893 45.3267 11.2941 45.2748C11.1224 45.2872 11.0453 45.3794 11.0627 45.5517C11.2201 46.1977 11.5595 46.8227 12.071 47.4094C13.3387 48.8627 15.4228 49.3858 17.2862 49.8534C17.5178 49.9116 17.7464 49.9689 17.9692 50.027C19.4007 50.4002 20.4923 51.5182 20.8181 52.9447C20.9915 53.7038 20.3729 54.4779 19.5782 54.4779Z" fill="#2F2F2F"/>
<path d="M2.54237 37.5796C2.54237 37.9975 2.08707 38.3363 1.52542 38.3363C0.963778 38.3363 0.508475 37.9975 0.508475 37.5796C0.508475 37.1618 0.963778 36.823 1.52542 36.823C2.08707 36.823 2.54237 37.1618 2.54237 37.5796Z" fill="#2F2F2F"/>
<path d="M48.906 57C48.648 57 48.4121 56.8239 48.3423 56.5569L47.4334 53.0815C47.431 53.0727 47.4291 53.064 47.4271 53.0552C47.404 52.947 46.8724 50.3726 48.055 47.4423C49.2239 44.5469 49.7887 41.5357 49.8853 38.4129C49.9132 37.4991 50.9737 37.0453 51.6516 37.6015C52.7862 38.4625 53.4708 39.8296 53.4832 41.2588C53.4898 42.0062 53.6175 42.6596 53.8635 43.2003C53.9569 43.3426 54.0727 43.363 54.2111 43.2613C54.686 42.7992 55.0544 42.1904 55.3061 41.4518C55.9301 39.621 55.3618 37.5565 54.8534 35.7099L54.8531 35.7088C54.7899 35.479 54.7275 35.2526 54.6686 35.0304C54.2903 33.605 54.7133 32.0971 55.7726 31.0953C56.4077 30.4947 57.4879 30.7617 57.781 31.5992C57.9911 32.1995 59.838 37.6036 59.996 42.461C60.0841 45.1643 58.7076 46.9261 57.0888 48.847C54.7274 51.6495 55.8661 54.2602 55.9159 54.3699C56.0507 54.6682 55.9254 55.0235 55.6345 55.163C55.3436 55.3018 54.9976 55.1767 54.8597 54.8799C54.796 54.7426 53.3308 51.4773 56.2043 48.067L56.237 48.0282C57.6361 46.3686 58.9056 44.8626 58.8289 42.5007C58.7053 38.7033 57.421 34.1147 56.6816 32.002C56.6533 31.9491 56.6145 31.9393 56.5654 31.9725C55.8267 32.6713 55.5316 33.723 55.7955 34.7174C55.8405 34.887 55.8867 35.0583 55.9333 35.231C56.5072 37.3598 57.1389 39.703 56.4088 41.8452C56.0953 42.7649 55.6267 43.5327 55.016 44.1272C54.3474 44.7773 53.1963 44.566 52.8044 43.7043C52.4879 43.0078 52.3234 42.1887 52.3153 41.2695C52.3065 40.2514 51.8345 39.2743 51.0467 38.6327C50.9416 41.833 50.3312 44.9333 49.1344 47.8985C48.1335 50.3787 48.5324 52.6158 48.5659 52.79L49.4704 56.2485C49.5538 56.5671 49.3688 56.8945 49.0572 56.9798C49.0068 56.9936 48.956 57 48.906 57Z" fill="#2F2F2F"/>
<path d="M52.8814 55.7389C52.8814 56.1568 52.5399 56.4956 52.1186 56.4956C51.6974 56.4956 51.3559 56.1568 51.3559 55.7389C51.3559 55.3211 51.6974 54.9823 52.1186 54.9823C52.5399 54.9823 52.8814 55.3211 52.8814 55.7389Z" fill="#2F2F2F"/>
<path d="M35.0847 17.6549C35.6464 17.6549 36.1017 17.3161 36.1017 16.8982C36.1017 16.4804 35.6464 16.1416 35.0847 16.1416C34.5231 16.1416 34.0678 16.4804 34.0678 16.8982C34.0678 17.3161 34.5231 17.6549 35.0847 17.6549Z" fill="#2F2F2F"/>
<path d="M55.005 20.593H55.8425C56.1729 20.593 56.4407 20.8583 56.4407 21.1858C56.4407 21.5132 56.1729 21.7786 55.8425 21.7786H55.005V22.6107C55.005 22.9382 54.7372 23.2035 54.4068 23.2035C54.0763 23.2035 53.8086 22.9382 53.8086 22.6107V21.7786H52.9711C52.6406 21.7786 52.3729 21.5132 52.3729 21.1858C52.3729 20.8583 52.6406 20.593 52.9711 20.593H53.8086V19.7609C53.8086 19.4335 54.0763 19.1681 54.4068 19.1681C54.7372 19.1681 55.005 19.4335 55.005 19.7609V20.593Z" fill="#2F2F2F"/>
<path d="M9.57129 6.97359H8.7338V6.14145C8.7338 5.814 8.46604 5.54867 8.13559 5.54867C7.80514 5.54867 7.53739 5.814 7.53739 6.14145V6.97359H6.6999C6.36945 6.97359 6.1017 7.23892 6.1017 7.56637C6.1017 7.89382 6.36945 8.15915 6.6999 8.15915H7.53739V8.99129C7.53739 9.31874 7.80514 9.58407 8.13559 9.58407C8.46604 9.58407 8.7338 9.31874 8.7338 8.99129V8.15915H9.57129C9.90173 8.15915 10.1695 7.89382 10.1695 7.56637C10.1695 7.23892 9.90173 6.97359 9.57129 6.97359Z" fill="#2F2F2F"/>
<path fill-rule="evenodd" clip-rule="evenodd" d="M38.9673 18.3789C38.6724 18.2263 38.558 17.8652 38.7115 17.5723C38.8651 17.2795 39.2287 17.1656 39.5234 17.3182C44.9401 20.1206 48.3051 25.6357 48.3051 31.7113C48.3051 40.649 41.0059 47.9204 32.0339 47.9204C23.0619 47.9204 15.7627 40.649 15.7627 31.7114C15.7627 23.4778 22.2028 16.4183 30.4838 15.6401C30.6976 15.6188 30.9072 15.7151 31.0316 15.8896C31.9897 17.2323 31.0648 19.0565 29.4802 19.2729C29.464 19.275 29.4492 19.2839 29.4396 19.2969L29.3214 19.4577C29.9242 19.5276 30.3538 20.1417 30.212 20.7264C29.9826 21.6712 29.1394 22.331 28.1614 22.331C27.9155 22.331 27.6769 22.4324 27.507 22.6092L26.8112 23.333C26.8717 24.3069 26.3961 25.2354 25.545 25.7601C25.2644 25.9331 24.8958 25.8491 24.7191 25.572C24.2786 24.8818 23.1933 25.3791 23.4321 26.1587C23.5536 26.5551 23.726 26.8117 23.7982 26.8909C24.3857 27.136 24.7756 27.6766 24.8323 28.2893C25.1584 28.301 25.4869 28.3953 25.8044 28.5688C26.8922 28.3958 28.7887 28.5792 29.5885 30.3675C29.8363 30.881 30.2908 31.2519 30.8506 31.3922C31.3368 31.5139 31.6607 31.835 31.8547 32.1436C33.7795 32.3125 34.7658 35.6642 32.8735 36.5639C31.9661 36.9952 31.8541 37.8052 31.8498 37.8394C31.8087 38.2467 31.3611 38.4869 30.9928 38.3126C30.9049 38.2733 30.7685 38.2462 30.7082 38.2551C30.6941 38.284 30.662 38.3709 30.662 38.5623C30.662 39.3539 30.2386 40.2227 29.2985 40.1278C28.6558 40.0655 28.3338 40.6538 28.5388 41.189C28.714 41.6463 28.5979 42.0538 28.5131 42.3514C28.4666 42.4473 28.4464 42.5458 28.4524 42.6463L28.4878 43.7523C28.5084 44.3941 27.9435 44.7847 27.3532 44.7847C25.5627 44.7847 25.232 43.4384 25.0516 42.704L25.0512 42.7023C25.0058 42.5177 24.9382 42.2429 24.8799 42.1646C23.4731 41.2881 23.5009 39.5154 23.6434 38.5344C23.7858 37.5542 23.5294 36.561 22.9402 35.8099C22.8544 35.7018 22.7637 35.595 22.6725 35.4877C22.3285 35.0826 21.9773 34.6691 21.8537 34.1437C21.4167 32.2838 21.7175 31.5412 22.354 30.6328C21.9458 30.2558 21.4622 29.5849 21.3464 28.4723C21.3023 28.049 21.1491 27.7351 20.891 27.5395C19.9217 26.8048 19.0483 25.7841 18.8038 24.5719C17.6298 26.7179 16.9665 29.1598 16.9665 31.7116C16.9665 39.9897 23.7258 46.7245 32.0339 46.7245C36.3481 46.7245 40.2441 44.9079 42.9934 42.0028C41.7081 41.4043 40.9365 40.083 41.0652 38.6672C41.101 38.2724 41.2036 37.8959 41.37 37.5478C41.5731 37.1229 41.6405 36.6528 41.5652 36.1882C41.4759 35.7002 41.5212 35.1865 41.7374 34.7355C41.8772 34.4439 41.8768 34.1095 41.7367 33.818C41.5467 33.4593 41.3981 33.0783 41.3981 32.6658C41.3981 32.2766 41.1057 31.9436 40.7178 31.891C40.4352 31.8382 40.1446 31.8152 39.8574 31.8284C37.2683 31.8284 35.375 29.1123 36.3979 26.7157C36.7653 25.8543 37.3877 25.3212 38.1049 25.2529C38.1948 25.2444 38.2854 25.1787 38.2763 25.0735C38.1987 24.1871 38.7323 23.1321 39.491 22.6717C41.0692 21.7146 42.6264 21.8837 43.9198 22.4755C42.6099 20.8038 40.9357 19.3973 38.9673 18.3789ZM28.4675 18.5913C28.6689 18.3176 28.9782 18.134 29.3161 18.088C29.8821 18.0106 30.3591 17.452 30.1928 16.8736C26.1076 17.3693 22.391 19.5206 19.9244 22.8262C19.7495 24.3999 20.3654 25.6361 21.6217 26.5883C21.9878 26.8659 22.4449 27.3966 22.5441 28.3486C22.6725 29.5813 23.4064 29.9357 23.4376 29.9502C23.8093 30.0895 23.9038 30.5395 23.6828 30.8455C22.9292 31.8897 22.7222 32.5771 23.0263 33.8713C23.1022 34.1943 23.386 34.5071 23.6382 34.7851C23.73 34.8863 23.8177 34.983 23.8896 35.0738C24.6796 36.0808 25.024 37.404 24.8352 38.7047C24.754 39.264 24.6589 40.6223 25.5283 41.1563C25.9789 41.4331 26.1076 41.9571 26.2212 42.4194C26.4068 43.1746 26.5381 43.5666 27.2784 43.5877L27.2497 42.6916C27.2361 42.4424 27.2991 42.221 27.3549 42.0254C27.4123 41.8236 27.4451 41.6953 27.4139 41.6138C26.9 40.2723 27.9134 38.794 29.4082 38.9364C29.4276 38.889 29.4585 38.7793 29.4585 38.5619C29.4585 37.745 29.9389 37.0073 30.833 37.0621C31.0367 36.5692 31.4646 35.9075 32.3542 35.4848C33.1482 35.1071 32.4521 33.1967 31.5812 33.3422C31.2743 33.3948 30.9783 33.2065 30.8976 32.9081C30.8976 32.9081 30.8975 32.9079 30.8973 32.9074C30.8911 32.8897 30.7941 32.6108 30.5564 32.5512C29.6511 32.3244 28.8666 31.7118 28.4899 30.8557C27.8078 29.3302 25.9115 29.7625 25.8308 29.7815C25.6657 29.8206 25.4916 29.789 25.3514 29.694C25.0986 29.5226 24.8694 29.4573 24.651 29.4928C24.0746 29.5882 23.5579 29.0843 23.6315 28.5107C23.6608 28.2825 23.5299 28.0666 23.3132 27.9857C22.6778 27.7491 22.3194 26.6333 22.2806 26.5068C21.7596 24.8062 23.827 23.3039 25.2769 24.4257C25.548 24.0984 25.6673 23.665 25.5881 23.2292C25.5541 23.0413 25.6124 22.8483 25.7453 22.7102L26.6365 21.7832C27.0326 21.3713 27.5884 21.1351 28.1615 21.1351C28.5003 21.1351 28.8014 20.9506 28.9568 20.6661C28.1431 20.6409 27.6708 19.6752 28.1498 19.0234L28.4675 18.5913ZM42.4574 38.0606C42.3523 38.2808 42.2983 38.5223 42.2641 38.7746C42.0236 40.5465 43.8179 41.0556 43.8179 41.0554C45.8717 38.4893 47.1012 35.2409 47.1012 31.7112C47.1012 29.5106 46.6119 27.3461 45.6701 25.3598C44.3789 23.7262 42.1101 22.4839 40.1185 23.6923C39.7434 23.9196 39.4369 24.5287 39.4756 24.9698C39.5402 25.7102 38.9769 26.3711 38.2198 26.4432C37.9597 26.4678 37.6931 26.7442 37.5062 27.1823C36.8123 28.8083 38.1123 30.6325 39.8574 30.6325C40.1982 30.6179 40.5453 30.6449 40.8807 30.7061C41.862 30.8392 42.6019 31.6817 42.6019 32.6657C42.6019 32.8614 42.7209 33.1265 42.8226 33.3021C43.1204 33.9207 43.121 34.6304 42.8243 35.2494C42.7129 35.482 42.6955 35.7493 42.7537 35.998C42.8679 36.7026 42.7655 37.4159 42.4574 38.0606Z" fill="#2F2F2F"/>
</svg>
