<svg width="20" height="33" viewBox="0 0 20 33" fill="none" xmlns="http://www.w3.org/2000/svg">
<path d="M10 0C4.48599 0 0 4.61488 0 10.2873V22.7127C0 28.3852 4.48599 33 10 33C15.5141 33 20 28.3851 20 22.7127V10.2873C20 4.61488 15.5141 0 10 0V0ZM18.8012 10.2873V10.4495C16.2197 11.8456 13.3326 12.6102 10.3993 12.6739V9.23452C11.2452 9.0456 11.8809 8.26983 11.8809 7.34387V4.76508C11.8809 3.83911 11.2452 3.06335 10.3993 2.87442V1.2429C15.0678 1.45846 18.8012 5.43257 18.8012 10.2873V10.2873ZM10 3.65224C10.5965 3.65224 11.0818 4.15144 11.0818 4.76508V7.34395C11.0818 7.95751 10.5965 8.45679 10 8.45679C9.40354 8.45679 8.91828 7.95759 8.91828 7.34395V4.76508C8.91828 4.15152 9.40362 3.65224 10 3.65224ZM9.60021 1.24298V2.87459C8.75461 3.06376 8.11919 3.83936 8.11919 4.76508V7.34395C8.11919 8.26967 8.75461 9.04527 9.60021 9.23444V12.674C6.66733 12.6103 3.7804 11.8456 1.19884 10.4494V10.2873C1.19876 5.43274 4.93209 1.45879 9.60021 1.24298V1.24298ZM10 31.7669C5.14699 31.7669 1.19876 27.7052 1.19876 22.7128V11.3733C3.91714 12.7675 6.94089 13.501 9.99972 13.501C13.059 13.501 16.0829 12.7676 18.8012 11.3735V22.7127C18.8012 27.7052 14.8531 31.7669 10 31.7669Z" fill="#8D8D8D"/>
</svg>
