<svg width="57" height="57" viewBox="0 0 57 57" fill="none" xmlns="http://www.w3.org/2000/svg">
<path fill-rule="evenodd" clip-rule="evenodd" d="M18.9851 18.9868C17.3019 20.6838 17.3019 23.4153 18.9851 25.0892C19.8324 25.9261 20.9352 26.3445 22.0379 26.3445C23.1407 26.3445 24.2434 25.9261 25.0792 25.0892C25.9033 24.264 26.3445 23.1829 26.3445 22.0205C26.3445 20.8697 25.8918 19.7887 25.0792 18.9868C23.3844 17.3013 20.6565 17.3013 18.9851 18.9868ZM24.2434 24.2639C23.0246 25.4843 21.028 25.4843 19.7976 24.2639C19.2057 23.6711 18.8805 22.8806 18.8805 22.0438C18.8805 21.207 19.2172 20.4165 19.8092 19.812C20.4011 19.2192 21.1906 18.8937 22.0262 18.8937C22.8736 18.8937 23.6629 19.2191 24.2433 19.812C24.8353 20.3932 25.1604 21.1836 25.1604 22.0205C25.1721 22.869 24.8354 23.6711 24.2434 24.2639Z" fill="#2F2F2F"/>
<path fill-rule="evenodd" clip-rule="evenodd" d="M30.5664 19.7774H31.7765C32.7378 19.7774 33.5294 20.5691 33.5294 21.5303V22.5482C33.5294 23.5094 32.7378 24.3011 31.7765 24.3011H30.5664C30.3063 24.3011 30.0575 24.4707 29.9783 24.7082C29.8539 25.0701 29.7069 25.4206 29.5486 25.7599C29.4467 25.9861 29.492 26.2914 29.6729 26.4723L30.5324 27.3318C30.8604 27.6598 31.0413 28.1008 31.0413 28.5758C31.0413 29.0508 30.8604 29.4918 30.5324 29.8198L29.8085 30.5436C29.4805 30.8717 29.0395 31.0526 28.5645 31.0526C28.0895 31.0526 27.6485 30.8717 27.3205 30.5436L26.4611 29.6842C26.2688 29.4919 25.9861 29.4354 25.7599 29.5485C25.4094 29.7181 25.0587 29.8652 24.7082 29.9896C24.4594 30.0687 24.3011 30.3062 24.3011 30.5777V31.7878C24.3123 32.7378 23.5207 33.5294 22.5594 33.5294H21.5416C20.5803 33.5294 19.7887 32.7378 19.7887 31.7765V30.5664C19.7887 30.3063 19.619 30.0575 19.3816 29.9783C19.0197 29.8539 18.6691 29.7069 18.3299 29.5486C18.1037 29.4467 17.7983 29.492 17.6174 29.6729L16.758 30.5324C16.0681 31.2222 14.9598 31.2222 14.2699 30.5324L13.5461 29.8085C13.2181 29.4805 13.0372 29.0395 13.0372 28.5645C13.0372 28.0895 13.2181 27.6485 13.5461 27.3205L14.4056 26.4611C14.5978 26.2688 14.6544 25.9861 14.5413 25.7599C14.3717 25.4094 14.2246 25.0587 14.1002 24.7082C14.021 24.4594 13.7836 24.3011 13.5121 24.3011H12.2907C11.3295 24.3011 10.5378 23.5094 10.5378 22.5482V21.5303C10.5378 20.5691 11.3295 19.7774 12.2907 19.7774H13.5008C13.7609 19.7774 14.0097 19.6078 14.0889 19.3703C14.2133 19.0084 14.3603 18.6579 14.5187 18.3186C14.6205 18.0924 14.5752 17.787 14.3943 17.6061L13.5349 16.7467C13.2068 16.4187 13.0259 15.9777 13.0259 15.5027C13.0259 15.0277 13.2068 14.5867 13.5349 14.2587L14.2587 13.5349C14.9485 12.845 16.0569 12.845 16.7467 13.5349L17.6061 14.3943C17.7984 14.5866 18.0812 14.6431 18.3073 14.53C18.6579 14.3604 19.0085 14.2133 19.3591 14.0889C19.6078 14.0097 19.7661 13.7723 19.7661 13.5008V12.2907C19.7661 11.3295 20.5578 10.5378 21.5191 10.5378H22.5369C23.4982 10.5378 24.2898 11.3295 24.2898 12.2907V13.5121C24.2898 13.7722 24.4594 14.021 24.6969 14.1002C25.0588 14.2246 25.4094 14.3716 25.7486 14.5299C25.9748 14.6318 26.2802 14.5865 26.4611 14.4056L27.3205 13.5461C27.9991 12.8676 29.1187 12.8676 29.8085 13.5461L30.5324 14.2699C31.2222 14.9598 31.2222 16.0681 30.5324 16.758L29.6729 17.6174C29.4806 17.8097 29.4241 18.0924 29.5372 18.3186C29.7068 18.6691 29.8539 19.0198 29.9783 19.3703C30.0575 19.619 30.2949 19.7774 30.5664 19.7774ZM31.7539 23.1702C32.0931 23.1702 32.3759 22.8874 32.3759 22.5482L32.376 21.5303C32.376 21.1911 32.0932 20.9083 31.754 20.9083H30.5439C29.7862 20.9083 29.119 20.4333 28.8928 19.7321C28.7909 19.4269 28.6552 19.1215 28.5082 18.8161C28.1802 18.1602 28.3159 17.3459 28.8588 16.8144L29.7182 15.9549C29.967 15.7061 29.967 15.3103 29.7182 15.0729L28.9944 14.349C28.7456 14.1116 28.3384 14.1002 28.1009 14.349L27.2415 15.2085C26.7099 15.7399 25.907 15.8756 25.2397 15.559H25.2285C24.9345 15.412 24.6291 15.2877 24.3237 15.1858C23.6338 14.9596 23.1475 14.2698 23.1475 13.5347V12.3246C23.1475 11.9854 22.8648 11.7026 22.5255 11.7026H21.5077C21.1684 11.7026 20.8857 11.9854 20.8857 12.3246V13.5121C20.8857 14.2697 20.4107 14.937 19.7095 15.1632C19.4042 15.265 19.0989 15.4008 18.7935 15.5477C18.1376 15.8758 17.3233 15.74 16.7918 15.1972L15.9323 14.3378C15.6835 14.0889 15.2877 14.0889 15.0502 14.3378L14.3264 15.0616C14.2133 15.1747 14.1455 15.3331 14.1455 15.5027C14.1455 15.6723 14.2133 15.8307 14.3264 15.9438L15.1858 16.8032C15.7173 17.3348 15.853 18.1377 15.5364 18.805V18.8162C15.3894 19.1102 15.265 19.4156 15.1632 19.721C14.937 20.4109 14.2472 20.8972 13.5121 20.8972H12.302C11.9627 20.8972 11.68 21.1799 11.68 21.5192V22.537C11.68 22.8763 11.9627 23.159 12.302 23.159H13.5234C14.281 23.159 14.9483 23.634 15.1745 24.3352C15.2763 24.6405 15.412 24.9458 15.559 25.2512C15.887 25.9071 15.7513 26.7214 15.2085 27.2529L14.349 28.1124C14.2359 28.2255 14.1681 28.3839 14.1681 28.5535C14.1681 28.7231 14.2359 28.8815 14.349 28.9946L15.0729 29.7184C15.3217 29.9672 15.7175 29.9672 15.9549 29.7184L16.8144 28.859C17.1649 28.5422 17.6173 28.3613 18.0697 28.3613C18.3298 28.3613 18.5786 28.4179 18.816 28.531H18.8273C19.1213 28.678 19.4267 28.8023 19.732 28.9041C20.4219 29.1303 20.9082 29.8201 20.9082 30.5552V31.7653C20.9082 32.1046 21.1909 32.3873 21.5302 32.3873H22.548C22.8873 32.3873 23.17 32.1046 23.17 31.7653V30.5552C23.17 29.7976 23.6451 29.1303 24.3462 28.9041C24.6515 28.8023 24.9569 28.6666 25.2622 28.5196C25.9182 28.1916 26.7324 28.3273 27.264 28.8701L28.1234 29.7296C28.2365 29.8427 28.3949 29.9105 28.5645 29.9105C28.7342 29.9105 28.8925 29.8427 29.0056 29.7296L29.7295 29.0058C29.8426 28.8927 29.9104 28.7343 29.9104 28.5647C29.9104 28.395 29.8426 28.2366 29.7295 28.1235L28.87 27.2641C28.3386 26.7325 28.2028 25.9296 28.5195 25.2624V25.2511C28.6665 24.9571 28.7908 24.6517 28.8927 24.3464C29.1188 23.6564 29.8087 23.1702 30.5438 23.1702H31.7539Z" fill="#2F2F2F"/>
<path fill-rule="evenodd" clip-rule="evenodd" d="M9.57759 9.55652C12.9827 6.17303 17.4889 4.31092 22.2788 4.31092C27.08 4.31092 31.5862 6.17303 34.9686 9.56794C38.3625 12.9628 40.2353 17.4817 40.2353 22.2732C40.2353 27.076 38.3625 31.5835 34.9686 34.9784C31.5862 38.3732 27.08 40.2353 22.2788 40.2353C17.4775 40.2353 12.9714 38.3619 9.57759 34.967C6.18375 31.5721 4.31092 27.0532 4.31092 22.2617C4.31092 17.4589 6.18375 12.9514 9.57759 9.55652ZM22.2788 39.0997C26.7736 39.0997 30.996 37.3512 34.1741 34.1834C37.3522 31.0043 39.1002 26.7691 39.1002 22.2728C39.1002 17.7766 37.3522 13.5415 34.1741 10.3624C30.996 7.19468 26.7736 5.44611 22.2788 5.44611C17.7954 5.44611 13.5616 7.19468 10.3721 10.3511C7.19399 13.5302 5.44597 17.7539 5.44597 22.2615C5.44597 26.7691 7.19399 30.9928 10.3721 34.172C13.5503 37.3511 17.7841 39.0997 22.2788 39.0997Z" fill="#2F2F2F"/>
<path fill-rule="evenodd" clip-rule="evenodd" d="M43.4254 38.6532L56.0085 51.2381C56.6467 51.877 57.0001 52.7327 57 53.6456C57 54.5469 56.6353 55.3913 55.997 56.0188C55.3245 56.6691 54.4697 57 53.6035 57C52.7373 57 51.871 56.6691 51.21 56.0073L38.6041 43.3883C36.678 41.46 33.6918 40.9352 31.1843 42.0761C27.1267 43.9244 22.6588 44.5064 18.2479 43.7419C13.7343 42.9547 9.64258 40.8096 6.40558 37.5465C2.26823 33.3705 -0.0114215 27.8368 4.30321e-05 21.9836C0.0115075 16.1305 2.31387 10.6081 6.47404 6.4436C15.0565 -2.14787 29.0301 -2.14787 37.624 6.4436C40.8723 9.69537 42.9923 13.8029 43.7559 18.3097C44.5081 22.7253 43.9269 27.1979 42.0576 31.2483C40.9292 33.7242 41.4764 36.7022 43.4254 38.6532ZM52.0079 55.2087C52.8856 56.0872 54.3103 56.0872 55.1765 55.2087C55.5982 54.7865 55.8375 54.2388 55.8375 53.6341C55.8375 53.0295 55.6096 52.4703 55.1878 52.0368L42.6162 39.4517C40.3253 37.1584 39.6869 33.6784 41.0205 30.769C42.7871 26.924 43.3456 22.6909 42.6275 18.4922C41.898 14.2136 39.8921 10.3229 36.8147 7.24228C28.6768 -0.904279 15.4212 -0.904279 7.28323 7.24228C3.3282 11.2015 1.15139 16.4271 1.13993 21.9836C1.12846 27.5402 3.28268 32.7773 7.21489 36.7478C10.2809 39.8513 14.1675 41.8822 18.4416 42.6238C22.6245 43.3541 26.8645 42.8064 30.7055 41.0493C31.7428 40.57 32.8484 40.3419 33.9425 40.3419C35.96 40.3419 37.9432 41.1177 39.4021 42.5896L48.5944 51.7915L50.3212 50.0629C50.5492 49.8347 50.9024 49.8347 51.1304 50.0629C51.3584 50.2911 51.3584 50.6448 51.1304 50.873L49.4036 52.6016L52.0079 55.2087Z" fill="#2F2F2F"/>
</svg>
