<?xml version="1.0" encoding="UTF-8" standalone="no"?>
<!DOCTYPE svg PUBLIC "-//W3C//DTD SVG 1.1//EN" "http://www.w3.org/Graphics/SVG/1.1/DTD/svg11.dtd">
<svg width="100%" height="100%" viewBox="0 0 136 136" version="1.1" xmlns="http://www.w3.org/2000/svg" xmlns:xlink="http://www.w3.org/1999/xlink" xml:space="preserve" xmlns:serif="http://www.serif.com/" style="fill-rule:evenodd;clip-rule:evenodd;stroke-linejoin:round;stroke-miterlimit:1.41421;">
    <g transform="matrix(1,0,0,1,-586.666,-1351.66)">
        <g transform="matrix(4.16667,0,0,4.16667,0,0)">
            <g transform="matrix(1,0,0,1,165.713,341.529)">
                <path d="M0,-1.809C-0.104,-4.139 -0.648,-6.225 -1.408,-8.047C-0.322,-8.519 0.738,-9.099 1.764,-9.778C3.617,-7.599 4.801,-4.837 5,-1.809L0,-1.809ZM-1.474,6.21C-0.7,4.4 -0.138,2.322 -0.01,0.001L5,0.001C4.801,3.029 3.617,5.791 1.764,7.969C0.717,7.276 -0.366,6.688 -1.474,6.21M-2.266,7.842C-1.241,8.279 -0.322,8.781 0.48,9.292C-1.219,10.822 -3.303,11.931 -5.606,12.462C-4.543,11.325 -3.309,9.773 -2.266,7.842M-15.117,7.821C-14.072,9.762 -12.833,11.321 -11.766,12.462C-14.08,11.928 -16.174,10.812 -17.878,9.27C-17.072,8.758 -16.147,8.256 -15.117,7.821M-17.362,0.001C-17.235,2.313 -16.676,4.383 -15.906,6.188C-17.019,6.665 -18.107,7.251 -19.158,7.944C-20.998,5.769 -22.174,3.017 -22.371,0.001L-17.362,0.001ZM-15.973,-8.025C-16.728,-6.208 -17.269,-4.13 -17.372,-1.809L-22.371,-1.809C-22.174,-4.825 -20.998,-7.578 -19.158,-9.753C-18.128,-9.073 -17.063,-8.496 -15.973,-8.025M-15.202,-9.666C-16.198,-10.093 -17.094,-10.581 -17.878,-11.078C-16.229,-12.569 -14.217,-13.665 -11.992,-14.218C-13.035,-13.07 -14.212,-11.542 -15.202,-9.666M-5.38,-14.218C-3.167,-13.668 -1.164,-12.58 0.48,-11.101C-0.3,-10.604 -1.191,-10.115 -2.182,-9.686C-3.168,-11.553 -4.341,-13.075 -5.38,-14.218M-7.781,-8.33L-7.781,-14.068C-6.701,-13.028 -5.166,-11.318 -3.918,-9.04C-5.101,-8.671 -6.393,-8.412 -7.781,-8.33M-7.781,-1.809L-7.781,-6.519C-6.208,-6.603 -4.646,-6.9 -3.121,-7.398C-2.422,-5.755 -1.916,-3.884 -1.81,-1.809L-7.781,-1.809ZM-7.781,4.71L-7.781,0.001L-1.825,0.001C-1.956,2.068 -2.477,3.934 -3.19,5.566C-4.694,5.082 -6.232,4.793 -7.781,4.71M-7.781,6.521C-6.428,6.602 -5.166,6.849 -4.008,7.203C-5.239,9.4 -6.726,11.052 -7.781,12.068L-7.781,6.521ZM-9.591,6.516L-9.591,12.068C-10.648,11.05 -12.139,9.393 -13.372,7.188C-12.211,6.837 -10.947,6.592 -9.591,6.516M-9.591,0.001L-9.591,4.706C-11.142,4.784 -12.683,5.068 -14.188,5.549C-14.898,3.921 -15.417,2.061 -15.547,0.001L-9.591,0.001ZM-9.591,-6.515L-9.591,-1.809L-15.562,-1.809C-15.456,-3.877 -14.953,-5.741 -14.258,-7.38C-12.73,-6.886 -11.166,-6.594 -9.591,-6.515M-9.591,-8.325C-10.982,-8.402 -12.277,-8.658 -13.463,-9.023C-12.214,-11.309 -10.674,-13.025 -9.591,-14.068L-9.591,-8.325ZM-8.686,-17.131C-17.633,-17.131 -24.913,-9.852 -24.913,-0.904C-24.913,8.043 -17.633,15.322 -8.686,15.322C0.261,15.322 7.541,8.043 7.541,-0.904C7.541,-9.852 0.261,-17.131 -8.686,-17.131" style="fill:rgb(0,51,89);fill-rule:nonzero;"/>
            </g>
        </g>
    </g>
</svg>
