<svg xmlns="http://www.w3.org/2000/svg" viewBox="0 0 142.73 110.06"><defs><style>.cls-1,.cls-2,.cls-3{fill:none;stroke:#fdb813;stroke-width:2px;}.cls-1,.cls-2{stroke-miterlimit:10;}.cls-2,.cls-3{stroke-linecap:round;}.cls-3{stroke-linejoin:round;}</style></defs><title>Ресурс 3</title><g id="Слой_2" data-name="Слой 2"><g id="inf"><g id="icons"><g id="_3" data-name="3"><path class="cls-1" d="M69.4,38.46a9.08,9.08,0,1,0-6.89-10.87A9.08,9.08,0,0,0,69.4,38.46Z"/><polyline class="cls-2" points="99.37 13 99.57 13 110.37 13"/><polyline class="cls-2" points="43.37 13 43.17 13 32.37 13"/><line class="cls-2" x1="90.37" y1="13" x2="52.37" y2="13"/><path class="cls-2" d="M71.37,43.58c5.45,0,9.73-3.76,11.64-4.93l8.34-5.15-.51-19.73a4.54,4.54,0,0,1,4-4.77,4.37,4.37,0,0,1,3.31,1.08,4.27,4.27,0,0,1,1.45,3.13l.64,22.57v.41a4.31,4.31,0,0,1-2.15,3.51l-5.46,4a18.16,18.16,0,0,0-5.17,5.87"/><line class="cls-2" x1="83.03" y1="66.56" x2="81.88" y2="72"/><path class="cls-2" d="M55.29,49.57a18.16,18.16,0,0,0-5.17-5.87l-5.46-4a4.31,4.31,0,0,1-2.15-3.51v-.41l.64-22.57a4.27,4.27,0,0,1,1.45-3.13A4.37,4.37,0,0,1,47.92,9a4.54,4.54,0,0,1,4,4.77L51.39,33.5l8.34,5.15c1.91,1.17,6.19,4.93,11.64,4.93"/><line class="cls-2" x1="60.86" y1="72" x2="59.71" y2="66.56"/><rect class="cls-2" x="110.37" y="1" width="7" height="24"/><rect class="cls-2" x="117.37" y="5" width="8" height="16"/><rect class="cls-2" x="25.37" y="1" width="7" height="24" transform="translate(57.73 26) rotate(180)"/><rect class="cls-2" x="17.37" y="5" width="8" height="16" transform="translate(42.73 26) rotate(180)"/><line class="cls-2" x1="29.72" y1="65.92" x2="25.17" y2="68.54"/><line class="cls-2" x1="17.93" y1="72.72" x2="13.99" y2="75"/><rect class="cls-2" x="29.35" y="55.48" width="5.45" height="18.16" transform="translate(-27.98 24.69) rotate(-30)"/><rect class="cls-2" x="33.84" y="55.54" width="5.45" height="11.81" transform="translate(-25.82 26.51) rotate(-30)"/><rect class="cls-2" x="8.9" y="67.28" width="5.45" height="18.16" transform="translate(59.87 136.69) rotate(150)"/><rect class="cls-2" x="3.95" y="72.79" width="5.45" height="11.81" transform="translate(51.81 143.51) rotate(150)"/><path class="cls-2" d="M53.26,67.52a9.08,9.08,0,1,0-6.89-10.87,9.07,9.07,0,0,0,6.89,10.87Z"/><path class="cls-3" d="M45.87,109.06,42.23,84.73,29.75,93.17,18.62,74.87c-2-3.07.75-7.14,3.75-7.14h0A4.38,4.38,0,0,1,26.48,70l6,10.35L40,74.52A11,11,0,0,1,46.15,72h19a10.07,10.07,0,0,1,6.19,2.12"/><line class="cls-2" x1="117.57" y1="68.54" x2="113.25" y2="66.05"/><line class="cls-2" x1="128.36" y1="74.78" x2="124.76" y2="72.7"/><rect class="cls-2" x="107.93" y="55.48" width="5.45" height="18.16" transform="translate(174.21 175.8) rotate(-150)"/><rect class="cls-2" x="103.44" y="55.54" width="5.45" height="11.81" transform="translate(167.39 167.73) rotate(-150)"/><rect class="cls-2" x="128.38" y="67.28" width="5.45" height="18.16" transform="matrix(0.87, 0.5, -0.5, 0.87, 55.75, -55.32)"/><rect class="cls-2" x="133.33" y="72.79" width="5.45" height="11.81" transform="matrix(0.87, 0.5, -0.5, 0.87, 57.58, -57.48)"/><path class="cls-2" d="M89.51,67.51a9.08,9.08,0,1,0-10.86-6.85,9.08,9.08,0,0,0,10.86,6.85Z"/><path class="cls-3" d="M96.85,109.06l3.63-24.33,12.46,8.44L124,74.87a4.61,4.61,0,0,0-3.86-7.13h0a4.6,4.6,0,0,0-4,2.32l-5.94,10.39-7.49-5.93A11,11,0,0,0,96.59,72h-19A10.47,10.47,0,0,0,67.3,81.19l-3.41,27.35"/><polyline class="cls-3" points="72.98 108.61 75.7 87.72 78.17 109.06"/></g></g></g></g></svg>