<svg xmlns="http://www.w3.org/2000/svg" viewBox="0 0 121.15 121"><defs><style>.cls-1,.cls-2{fill:none;stroke:#fdb813;stroke-width:2px;}.cls-1{stroke-linecap:round;stroke-linejoin:round;}.cls-2{stroke-miterlimit:10;}</style></defs><title>Ресурс 2</title><g id="Слой_2" data-name="Слой 2"><g id="inf"><g id="icons"><g id="_2" data-name="2"><line class="cls-1" x1="90.69" y1="1" x2="83.19" y2="14"/><line class="cls-1" x1="24.46" y1="21.6" x2="15.54" y2="13.87"/><line class="cls-1" x1="105.84" y1="13.87" x2="96.92" y2="21.6"/><line class="cls-1" x1="100.22" y1="97.8" x2="86.26" y2="81.98"/><line class="cls-1" x1="35.63" y1="82.1" x2="21.7" y2="98.27"/><line class="cls-1" x1="21.71" y1="75.09" x2="8.7" y2="82.46"/><line class="cls-1" x1="110.66" y1="85.76" x2="97.23" y2="76.96"/><line class="cls-1" x1="120.15" y1="47.05" x2="112.67" y2="47.8"/><line class="cls-1" x1="48.44" y1="14" x2="44.36" y2="1"/><line class="cls-1" x1="9.67" y1="55.27" x2="1" y2="55.66"/><path class="cls-2" d="M42.14,76C27.33,75.5,15.69,62.54,15.69,46.62V30h15"/><path class="cls-2" d="M90.69,30h15V46.62c0,15.92-11.63,28.88-26.44,29.36"/><path class="cls-2" d="M52.69,83.68a10.82,10.82,0,0,0-1.41-.79c-8.51-4-15-13.14-16.45-24.57L30.74,26.77c-.39-3,1.55-5.77,4.1-5.77h51.7c2.55,0,4.49,2.74,4.1,5.77L86.55,58.32C85.07,69.75,78.61,78.93,70.1,82.89a10.82,10.82,0,0,0-1.41.79"/><path class="cls-2" d="M56.88,88.83A11,11,0,0,1,57.69,93v12a5,5,0,0,1-5,5H46.93a9.24,9.24,0,0,0-9.24,9.24V120h46v-.51A9.49,9.49,0,0,0,74.2,110H68.69a5,5,0,0,1-5-5V93a11,11,0,0,1,.81-4.15"/><polyline class="cls-2" points="68.69 70 68.69 92.33 60.69 85.66 52.69 92.33 52.69 70"/><circle class="cls-2" cx="60.69" cy="53" r="19"/><polygon class="cls-2" points="60.69 39.54 64.8 47.34 73.49 48.84 67.34 55.16 68.6 63.89 60.69 60 52.78 63.89 54.03 55.16 47.89 48.84 56.58 47.34 60.69 39.54"/></g></g></g></g></svg>