<?xml version="1.0" encoding="UTF-8"?>
<svg width="18px" height="22px" viewBox="0 0 18 22" version="1.1" xmlns="http://www.w3.org/2000/svg" xmlns:xlink="http://www.w3.org/1999/xlink">
    <!-- Generator: Sketch 63.1 (92452) - https://sketch.com -->
    <title>Shape Copy</title>
    <desc>Created with Sketch.</desc>
    <g id="Page-1" stroke="none" stroke-width="1" fill="none" fill-rule="evenodd">
        <g id="22_Create-Timesheet---Employer-Approval-Code" transform="translate(-711.000000, -341.000000)" fill="#FFFFFF" fill-rule="nonzero" stroke="#FFFFFF" stroke-width="1.07142857">
            <g id="Group-5" transform="translate(420.000000, 262.000000)">
                <path d="M296.304672,87.364138 L303.696001,87.364138 L303.696001,84.418138 C303.696001,82.635318 302.044018,81.162738 300.000224,81.162738 C298.000314,81.162738 296.304448,82.635398 296.304448,84.418138 L296.304672,87.364138 Z M305.000168,87.4032 C306.652151,87.442262 308,88.6821 308,90.1938 L308,97.2094 C308,98.7594 306.608312,100 304.869594,100 L295.130406,100 C293.391665,100 292,98.75938 292,97.2094 L292,90.1938 C292,88.68208 293.347871,87.4422 295.043581,87.4032 L295.043581,84.4188 C295.043581,81.9766 297.260822,80 300.000449,80 C302.740075,80 305.000168,82.0156 305.000168,84.4188 L305.000168,87.4032 Z M304.869588,88.52742 L295.130399,88.52742 C294.130455,88.52742 293.304026,89.26414 293.304026,90.19382 L293.304026,97.20942 C293.304026,98.13988 294.130455,98.87582 295.130399,98.87582 L304.869588,98.87582 C305.913348,98.87582 306.738902,98.1391 306.738902,97.20942 L306.738902,90.19382 C306.738902,89.26336 305.912473,88.52742 304.869588,88.52742 Z" id="Shape-Copy"></path>
            </g>
        </g>
    </g>
</svg>