<?xml version="1.0" encoding="UTF-8"?>
<svg width="20px" height="23px" viewBox="0 0 20 23" version="1.1" xmlns="http://www.w3.org/2000/svg" xmlns:xlink="http://www.w3.org/1999/xlink">
    <!-- Generator: Sketch 63.1 (92452) - https://sketch.com -->
    <title>Combined Shape</title>
    <desc>Created with Sketch.</desc>
    <g id="Page-1" stroke="none" stroke-width="1" fill="none" fill-rule="evenodd">
        <g id="11_Details-Prompt" transform="translate(-710.000000, -422.000000)" fill="#FFFFFF" fill-rule="nonzero" stroke="#FFFFFF" stroke-width="0.75">
            <g id="Group-5" transform="translate(420.000000, 343.000000)">
                <path d="M300.031114,91.2 C304.98615,91.2 309,95.2205364 309,100.246157 C309,101.251281 307.431696,101.251281 307.431696,100.246157 C307.431696,96.09996 304.107331,92.7700569 300.031253,92.7700569 C295.891951,92.7700569 292.567586,96.09996 292.567586,100.246157 L292.568304,100.246157 C292.568304,101.251281 291,101.251281 291,100.246157 C291,95.2205364 295.01385,91.2 300.031114,91.2 Z M300,80 C302.617948,80 304.8,82.1820524 304.8,84.8 C304.8,87.4805864 302.617948,89.6 300,89.6 C297.319414,89.6 295.2,87.4807846 295.2,84.8 C295.2,82.1820524 297.319215,80 300,80 Z M300,81.5586967 L300,81.5586967 C298.191977,81.5586967 296.758637,83.0546752 296.758637,84.8000595 C296.758637,86.6080826 298.192671,88.0414223 300,88.0414223 C301.745305,88.0414223 303.179319,86.6073888 303.179319,84.8000595 C303.179319,83.0547545 301.745285,81.5586967 300,81.5586967 Z" id="Combined-Shape"></path>
            </g>
        </g>
    </g>
</svg>