<?xml version="1.0" encoding="UTF-8"?>
<svg width="17px" height="11px" viewBox="0 0 17 11" version="1.1" xmlns="http://www.w3.org/2000/svg" xmlns:xlink="http://www.w3.org/1999/xlink">
    <!-- Generator: Sketch 63.1 (92452) - https://sketch.com -->
    <title>Combined Shape</title>
    <desc>Created with Sketch.</desc>
    <g id="Page-1" stroke="none" stroke-width="1" fill="none" fill-rule="evenodd">
        <g id="01_Log-In" transform="translate(-396.000000, -612.000000)" fill="#363D45" fill-rule="nonzero">
            <g id="Password" transform="translate(120.000000, 595.000000)">
                <path d="M284.5,17 C289.55013,17 293,22.5 293,22.5 C293,22.5 290.499774,28 284.5,28 C278.549904,28 276,22.5 276,22.5 C276,22.5 279.500508,17 284.5,17 Z M284.5,19.0005236 C282.550073,19.0005236 281.000452,20.5501134 281.000452,22.5 C281.000452,24.4498866 282.550073,25.9994764 284.5,25.9994764 C286.449927,25.9994764 287.999548,24.4498866 287.999548,22.5 C287.999548,20.5501134 286.449927,19.0005236 284.5,19.0005236 Z M284.5,21.0000873 C285.328713,21.0000873 285.999944,21.6713042 285.999944,22.5 C285.999944,23.3286958 285.328713,23.9999127 284.5,23.9999127 C283.671287,23.9999127 283.000056,23.3286958 283.000056,22.5 C283.000056,21.6713042 283.671287,21.0000873 284.5,21.0000873 Z" id="Combined-Shape"></path>
            </g>
        </g>
    </g>
</svg>