<?xml version="1.0" encoding="UTF-8"?>
<svg width="14px" height="16px" viewBox="0 0 14 16" version="1.1" xmlns="http://www.w3.org/2000/svg" xmlns:xlink="http://www.w3.org/1999/xlink">
    <!-- Generator: Sketch 63.1 (92452) - https://sketch.com -->
    <title>Shape</title>
    <desc>Created with Sketch.</desc>
    <g id="Page-1" stroke="none" stroke-width="1" fill="none" fill-rule="evenodd">
        <g id="21_Create-Timesheet---Questions---Notes-Active" transform="translate(-63.000000, -322.000000)" fill="#FFFFFF" fill-rule="nonzero">
            <g id="Group-2-Copy-7" transform="translate(40.000000, 310.000000)">
                <path d="M36.4617585,17.6221528 L31.3038696,12.5312511 C30.9584752,12.1903425 30.4893284,11.9985974 30,12.0000077 L24.8421032,12.0000077 C23.8246359,12.0000077 23,12.8139416 23,13.8181947 L23,26.1818131 C23,26.6633397 23.1942829,27.1264299 23.5396625,27.4673385 C23.8850422,27.8082471 24.3542037,27.9999923 24.8421032,27.9999923 L35.157881,27.9999923 C35.6457436,27.9999923 36.1149273,27.8082326 36.4603217,27.4673385 C36.805716,27.1264445 37,26.663376 37,26.1818131 L37,18.9090964 C37.0014233,18.4261516 36.8071381,17.9630614 36.4617585,17.6221528 Z M33.9749192,18.1818247 L31.105254,18.1818247 C30.9023353,18.1818247 30.7368334,18.0184722 30.7368334,17.8181889 L30.7368334,14.985793 C30.7368334,14.9119277 30.7800086,14.8451678 30.8490875,14.8167605 C30.9181663,14.7883533 30.9973178,14.8025558 31.0505657,14.8551132 L34.1087517,17.8735815 L34.1073126,17.8721612 C34.1605605,17.9247175 34.174951,18.002841 34.14617,18.0710227 C34.1173889,18.1392044 34.0497469,18.1818247 33.9749133,18.1818247 L33.9749192,18.1818247 Z M24.84214,25.8181773 L24.84214,14.1818305 C24.84214,13.9815472 25.0076419,13.8181947 25.2105607,13.8181947 L28.5263464,13.8181947 C28.6242063,13.8181947 28.717752,13.8565474 28.7868308,13.9247291 C28.8559097,13.9929108 28.894767,14.0852416 28.894767,14.1818305 L28.894767,18.1818247 C28.894767,18.6633513 29.08905,19.1264415 29.4344296,19.4673501 C29.7798092,19.8082587 30.2489708,20.0000039 30.7368702,20.0000039 L34.7894972,20.0000039 C34.8873571,20.0000039 34.9809028,20.0383566 35.0499817,20.1065383 C35.1190605,20.17472 35.1579179,20.2670508 35.1579179,20.3636397 L35.1579179,25.8181773 C35.1579179,25.9147662 35.1190605,26.007097 35.0499817,26.0752787 C34.9809028,26.1434604 34.8873571,26.1818131 34.7894972,26.1818131 L25.2105607,26.1818131 C25.0076419,26.1818131 24.84214,26.0184606 24.84214,25.8181773 Z" id="Shape"></path>
            </g>
        </g>
    </g>
</svg>