<?xml version="1.0" encoding="UTF-8"?>
<svg width="50px" height="34px" viewBox="0 0 50 34" version="1.1" xmlns="http://www.w3.org/2000/svg" xmlns:xlink="http://www.w3.org/1999/xlink">
    <!-- Generator: Sketch 63.1 (92452) - https://sketch.com -->
    <title>Combined Shape</title>
    <desc>Created with Sketch.</desc>
    <g id="Page-1" stroke="none" stroke-width="1" fill="none" fill-rule="evenodd">
        <g id="13_Create-Timesheet---Type---Inactive" transform="translate(-695.000000, -561.000000)" fill="#17569E" fill-rule="nonzero">
            <g id="Group-3" transform="translate(565.000000, 528.000000)">
                <path d="M170.585229,50.3074181 L170.585229,61.7021077 C170.585229,68.7659641 139.411229,68.7659641 139.411229,61.7021077 L139.411229,61.7021077 L139.411229,50.3074181 L153.62782,56.4107094 C154.506704,56.769092 155.491977,56.769092 156.370861,56.4107094 L156.370861,56.4107094 L170.585229,50.3074181 Z M178.412999,46.9480379 L178.412999,59.4807042 L179.871324,63.9647967 C179.96247,64.2476052 180.005873,64.5412131 179.999362,64.8369876 C179.979807,65.2558448 179.630426,65.5861615 179.209422,65.5797782 L179.209422,65.5797782 L175.389998,65.5797782 C174.968978,65.586151 174.619586,65.2558172 174.602225,64.8369876 C174.595714,64.5412463 174.639119,64.2476162 174.730263,63.9647967 L174.730263,63.9647967 L176.190755,59.4742378 L176.190755,47.9043474 L178.412999,46.9480379 Z M154.508875,33.0874374 C154.825706,32.9708542 155.172916,32.9708542 155.489754,33.0874374 L155.489754,33.0874374 L179.79518,43.5237726 C180.066449,43.6403558 180.066449,43.82818 179.797351,43.9447632 L179.797351,43.9447632 L155.491925,54.3810984 C155.172927,54.4976816 154.825712,54.4976816 154.508875,54.3810984 L154.508875,54.3810984 L130.203449,43.9447632 C129.932184,43.82818 129.932184,43.6403558 130.203449,43.5237726 L130.203449,43.5237726 Z" id="Combined-Shape"></path>
            </g>
        </g>
    </g>
</svg>