<svg width="24" height="24" viewBox="0 0 24 24" fill="none" xmlns="http://www.w3.org/2000/svg">
<path d="M21.9641 0.800781H2.03554C1.35327 0.800781 0.799805 1.35425 0.799805 2.03651V21.965C0.799805 22.6482 1.35327 23.2008 2.03554 23.2008H12.7633V14.5264H9.84287V11.1468H12.7633V8.65011C12.7633 5.75771 14.531 4.18411 17.1117 4.18411C18.3483 4.18411 19.4114 4.27465 19.7213 4.31571V7.33971H17.9283C16.5283 7.33971 16.2558 8.01265 16.2558 8.99265V11.1496H19.6009L19.1669 14.5376H16.2558V23.2008H21.9631C22.6473 23.2008 23.1998 22.6482 23.1998 21.965V2.03651C23.1998 1.35425 22.6473 0.800781 21.9641 0.800781Z" fill="#3B5998"/>
</svg>
