<svg width="24" height="24" viewBox="0 0 24 24" fill="none" xmlns="http://www.w3.org/2000/svg">
<path d="M19.8837 19.8893H16.5666V14.6916C16.5666 13.4521 16.5414 11.857 14.8381 11.857C13.1086 11.857 12.8445 13.2057 12.8445 14.6001V19.8893H9.5274V9.20078H12.7138V10.6577H12.7567C13.2019 9.81771 14.2846 8.93105 15.9021 8.93105C19.263 8.93105 19.8846 11.143 19.8846 14.0224V19.8893H19.8837ZM5.781 7.73825C4.71327 7.73825 3.85554 6.87398 3.85554 5.81091C3.85554 4.74878 4.7142 3.88545 5.781 3.88545C6.845 3.88545 7.7074 4.74878 7.7074 5.81091C7.7074 6.87398 6.84407 7.73825 5.781 7.73825ZM7.4442 19.8893H4.1178V9.20078H7.4442V19.8893ZM21.5431 0.800781H2.45274C1.539 0.800781 0.799805 1.52318 0.799805 2.41451V21.587C0.799805 22.4793 1.539 23.2008 2.45274 23.2008H21.5403C22.4531 23.2008 23.1998 22.4793 23.1998 21.587V2.41451C23.1998 1.52318 22.4531 0.800781 21.5403 0.800781H21.5431Z" fill="#0077B5"/>
</svg>
