<svg width="163" height="26" viewBox="0 0 163 26" fill="none" xmlns="http://www.w3.org/2000/svg">
<path d="M39.937 23.6632C39.6767 23.6632 39.4512 23.5769 39.2603 23.4041C39.0868 23.2142 39 22.9896 39 22.7306V6.02072C39 5.9171 39.0347 5.83074 39.1041 5.76166C39.1735 5.69257 39.2603 5.65803 39.3644 5.65803H40.77C40.8741 5.65803 40.9608 5.69257 41.0302 5.76166C41.0996 5.83074 41.1344 5.9171 41.1344 6.02072V21.6684H47.7196C47.8237 21.6684 47.9105 21.7029 47.9799 21.772C48.0493 21.8411 48.084 21.9275 48.084 22.0311V23.3005C48.084 23.4041 48.0493 23.4905 47.9799 23.5596C47.9105 23.6287 47.8237 23.6632 47.7196 23.6632H39.937Z" fill="#021626"/>
<path d="M55.5508 23.6632C54.527 23.6632 53.5813 23.4128 52.7137 22.9119C51.846 22.411 51.1606 21.7288 50.6574 20.8653C50.1542 19.9845 49.9026 19.0345 49.9026 18.0155V14.3109C49.9026 13.2919 50.1542 12.3506 50.6574 11.487C51.1606 10.6062 51.846 9.91537 52.7137 9.41451C53.5813 8.91364 54.527 8.66321 55.5508 8.66321C56.5746 8.66321 57.5203 8.91364 58.3879 9.41451C59.2555 9.91537 59.941 10.6062 60.4442 11.487C60.9474 12.3506 61.199 13.2919 61.199 14.3109V16.0725C61.199 16.3316 61.1036 16.5561 60.9127 16.7461C60.7392 16.9188 60.5223 17.0052 60.262 17.0052H51.9328V18.1451C51.9328 18.8014 52.089 19.4059 52.4013 19.9585C52.731 20.5112 53.1735 20.9516 53.7288 21.2798C54.2841 21.5907 54.8914 21.7461 55.5508 21.7461H59.3249C59.4291 21.7461 59.5158 21.7807 59.5852 21.8497C59.6546 21.9188 59.6893 22.0052 59.6893 22.1088V23.3005C59.6893 23.4041 59.6546 23.4905 59.5852 23.5596C59.5158 23.6287 59.4291 23.6632 59.3249 23.6632H55.5508ZM59.1688 15.1399V14.1813C59.1688 13.525 59.0039 12.9206 58.6742 12.3679C58.3619 11.8152 57.9281 11.3834 57.3728 11.0725C56.8175 10.7444 56.2102 10.5803 55.5508 10.5803C54.8914 10.5803 54.2841 10.7444 53.7288 11.0725C53.1735 11.3834 52.731 11.8152 52.4013 12.3679C52.089 12.9206 51.9328 13.525 51.9328 14.1813V15.1399H59.1688Z" fill="#021626"/>
<path d="M64.8857 23.6373C64.7816 23.6373 64.6948 23.6028 64.6254 23.5337C64.556 23.4646 64.5213 23.3782 64.5213 23.2746V9.36269C64.5213 9.25907 64.556 9.17271 64.6254 9.10363C64.6948 9.03454 64.7816 9 64.8857 9H66.1872C66.2913 9 66.378 9.03454 66.4474 9.10363C66.5169 9.17271 66.5516 9.25907 66.5516 9.36269V10.7876C67.0027 10.0794 67.584 9.54404 68.2955 9.18135C69.0243 8.81865 69.8398 8.63731 70.7422 8.63731C72.2171 8.63731 73.4058 9.08636 74.3081 9.98446C75.2278 10.8826 75.6876 12.0656 75.6876 13.5337V23.2746C75.6876 23.3782 75.6529 23.4646 75.5835 23.5337C75.5141 23.6028 75.4273 23.6373 75.3232 23.6373H74.0218C73.9177 23.6373 73.8309 23.6028 73.7615 23.5337C73.6921 23.4646 73.6574 23.3782 73.6574 23.2746V13.9223C73.6574 12.8169 73.3624 11.9793 72.7724 11.4093C72.1998 10.8221 71.4189 10.5285 70.4298 10.5285C69.2672 10.5285 68.3302 10.9085 67.6187 11.6684C66.9073 12.4283 66.5516 13.4732 66.5516 14.8031V23.2746C66.5516 23.3782 66.5169 23.4646 66.4474 23.5337C66.378 23.6028 66.2913 23.6373 66.1872 23.6373H64.8857Z" fill="#021626"/>
<path d="M84.3716 24C83.3826 24 82.4715 23.7582 81.6386 23.2746C80.8057 22.791 80.1463 22.1347 79.6604 21.3057C79.1746 20.4767 78.9316 19.5699 78.9316 18.5855V14.0777C78.9316 13.0933 79.1746 12.1865 79.6604 11.3575C80.1463 10.5285 80.8057 9.87219 81.6386 9.3886C82.4889 8.90501 83.4086 8.66321 84.3977 8.66321C85.1091 8.66321 85.7945 8.79275 86.4539 9.05181C87.1307 9.31088 87.7207 9.67358 88.2239 10.1399V4.36269C88.2239 4.25907 88.2586 4.17271 88.328 4.10363C88.3974 4.03454 88.4842 4 88.5883 4H89.8897C89.9938 4 90.0806 4.03454 90.15 4.10363C90.2194 4.17271 90.2541 4.25907 90.2541 4.36269V23.3005C90.2541 23.4041 90.2194 23.4905 90.15 23.5596C90.0806 23.6287 89.9938 23.6632 89.8897 23.6632H88.6924C88.5883 23.6632 88.5015 23.6287 88.4321 23.5596C88.3627 23.4905 88.328 23.4041 88.328 23.3005V22.1606C87.8421 22.7478 87.2521 23.2055 86.5581 23.5337C85.8813 23.8446 85.1525 24 84.3716 24ZM84.5799 22.0829C85.2393 22.0829 85.8466 21.9275 86.4019 21.6166C86.9745 21.2884 87.417 20.848 87.7293 20.2953C88.059 19.7427 88.2239 19.1382 88.2239 18.4819V14.1813C88.2239 13.525 88.059 12.9206 87.7293 12.3679C87.417 11.8152 86.9745 11.3834 86.4019 11.0725C85.8466 10.7444 85.2393 10.5803 84.5799 10.5803C83.9205 10.5803 83.3131 10.7444 82.7579 11.0725C82.2026 11.3834 81.7601 11.8152 81.4304 12.3679C81.1181 12.9206 80.9619 13.525 80.9619 14.1813V18.4819C80.9619 19.1382 81.1181 19.7427 81.4304 20.2953C81.7601 20.848 82.2026 21.2884 82.7579 21.6166C83.3131 21.9275 83.9205 22.0829 84.5799 22.0829Z" fill="#021626"/>
<path d="M97.8274 23.9223C97.0292 23.9223 96.2484 23.8187 95.4849 23.6114C94.7214 23.4041 94.062 23.1019 93.5067 22.7047C93.4373 22.6701 93.3852 22.6183 93.3505 22.5492C93.3332 22.4629 93.3418 22.3765 93.3765 22.2902L93.9232 21.2021C94.0099 21.0639 94.1227 20.9948 94.2615 20.9948C94.2962 20.9948 94.3656 21.0121 94.4697 21.0466C95.615 21.7375 96.769 22.0829 97.9316 22.0829C98.8512 22.0829 99.5714 21.8843 100.092 21.487C100.63 21.0725 100.899 20.494 100.899 19.7513C100.899 19.3022 100.777 18.9395 100.534 18.6632C100.309 18.3696 100.005 18.1364 99.6234 17.9637C99.2417 17.7737 98.643 17.5233 97.8274 17.2124C96.769 16.8152 95.936 16.4439 95.3287 16.0984C94.7214 15.753 94.2442 15.3126 93.8971 14.7772C93.5501 14.2418 93.3765 13.5596 93.3765 12.7306C93.3765 11.4007 93.819 10.3903 94.704 9.69948C95.589 9.00864 96.7256 8.66321 98.1138 8.66321C98.8426 8.66321 99.5627 8.76684 100.274 8.97409C101.003 9.18135 101.654 9.47496 102.226 9.85492C102.296 9.88946 102.339 9.94991 102.356 10.0363C102.374 10.1226 102.365 10.2003 102.33 10.2694L101.81 11.3316C101.775 11.4352 101.706 11.5043 101.602 11.5389C101.515 11.5734 101.419 11.5561 101.315 11.487C100.205 10.8307 99.1376 10.5026 98.1138 10.5026C97.2635 10.5026 96.5954 10.6839 96.1096 11.0466C95.641 11.4093 95.4068 11.9361 95.4068 12.6269C95.4068 13.1623 95.5369 13.5941 95.7972 13.9223C96.0575 14.2504 96.3698 14.5009 96.7342 14.6736C97.0986 14.829 97.68 15.0535 98.4782 15.3471C99.502 15.7098 100.309 16.0466 100.899 16.3575C101.489 16.6684 101.975 17.0829 102.356 17.601C102.738 18.1192 102.929 18.7927 102.929 19.6218C102.929 20.9516 102.461 22.0052 101.524 22.7824C100.604 23.5423 99.3718 23.9223 97.8274 23.9223Z" fill="#021626"/>
<path d="M106.358 23.6632C106.254 23.6632 106.167 23.6287 106.097 23.5596C106.028 23.4905 105.993 23.4041 105.993 23.3005V9.36269C105.993 9.25907 106.028 9.17271 106.097 9.10363C106.167 9.03454 106.254 9 106.358 9H107.659C107.763 9 107.85 9.03454 107.919 9.10363C107.989 9.17271 108.024 9.25907 108.024 9.36269V10.7617C108.44 10.0708 108.987 9.55268 109.663 9.20725C110.357 8.84456 111.121 8.66321 111.954 8.66321C113.047 8.66321 113.993 8.92228 114.791 9.44041C115.607 9.94128 116.188 10.6321 116.535 11.513C116.899 10.5976 117.463 9.8981 118.227 9.41451C118.99 8.93092 119.858 8.68912 120.83 8.68912C122.305 8.68912 123.493 9.13817 124.396 10.0363C125.315 10.9344 125.775 12.1174 125.775 13.5855V23.3005C125.775 23.4041 125.74 23.4905 125.671 23.5596C125.602 23.6287 125.515 23.6632 125.411 23.6632H124.109C124.005 23.6632 123.918 23.6287 123.849 23.5596C123.78 23.4905 123.745 23.4041 123.745 23.3005V13.9741C123.745 12.8687 123.45 12.0311 122.86 11.4611C122.287 10.8739 121.506 10.5803 120.517 10.5803C119.441 10.5803 118.565 10.9603 117.888 11.7202C117.229 12.4801 116.899 13.525 116.899 14.8549V23.3005C116.899 23.4041 116.865 23.4905 116.795 23.5596C116.726 23.6287 116.639 23.6632 116.535 23.6632H115.234C115.129 23.6632 115.043 23.6287 114.973 23.5596C114.904 23.4905 114.869 23.4041 114.869 23.3005V13.9482C114.869 12.8428 114.574 12.0052 113.984 11.4352C113.412 10.848 112.631 10.5544 111.642 10.5544C110.566 10.5544 109.689 10.9344 109.013 11.6943C108.353 12.4542 108.024 13.4991 108.024 14.829V23.3005C108.024 23.4041 107.989 23.4905 107.919 23.5596C107.85 23.6287 107.763 23.6632 107.659 23.6632H106.358Z" fill="#021626"/>
<path d="M133.058 24C131.722 24 130.629 23.6287 129.778 22.886C128.928 22.1261 128.503 21.133 128.503 19.9067C128.503 18.7668 128.885 17.8256 129.648 17.0829C130.429 16.3402 131.514 15.8739 132.902 15.6839L136.286 15.2176C136.789 15.1485 137.153 14.9845 137.379 14.7254C137.604 14.449 137.717 14.0604 137.717 13.5596V13.3523C137.717 12.5233 137.388 11.8584 136.728 11.3575C136.086 10.8394 135.279 10.5803 134.307 10.5803C133.544 10.5803 132.876 10.7358 132.303 11.0466C131.748 11.3402 131.305 11.7547 130.976 12.2902C130.837 12.5147 130.663 12.6269 130.455 12.6269C130.351 12.6269 130.238 12.5838 130.117 12.4974L129.414 12.0311C129.258 11.8929 129.18 11.7461 129.18 11.5907C129.18 11.5216 129.206 11.4352 129.258 11.3316C129.761 10.5026 130.447 9.85492 131.314 9.3886C132.199 8.90501 133.214 8.66321 134.36 8.66321C135.401 8.66321 136.329 8.86183 137.145 9.25907C137.96 9.63903 138.585 10.1831 139.019 10.8912C139.47 11.5993 139.695 12.4197 139.695 13.3523V23.3005C139.695 23.4041 139.661 23.4905 139.591 23.5596C139.522 23.6287 139.435 23.6632 139.331 23.6632H138.238C138.134 23.6632 138.047 23.6287 137.978 23.5596C137.908 23.4905 137.873 23.4041 137.873 23.3005V21.513C137.335 22.2902 136.641 22.9033 135.791 23.3523C134.958 23.7841 134.047 24 133.058 24ZM133.266 22.1865C134.117 22.1865 134.889 21.962 135.583 21.513C136.277 21.0639 136.815 20.5026 137.197 19.829C137.596 19.1382 137.795 18.4646 137.795 17.8083V16.7461C137.379 16.7979 136.043 16.9793 133.787 17.2902L133.058 17.3938C131.323 17.6528 130.455 18.4646 130.455 19.829C130.455 20.5371 130.715 21.1071 131.236 21.5389C131.757 21.9706 132.433 22.1865 133.266 22.1865Z" fill="#021626"/>
<path d="M142.785 23.6632C142.681 23.6632 142.594 23.6287 142.524 23.5596C142.455 23.4905 142.42 23.4041 142.42 23.3005V22.1088C142.42 22.0052 142.455 21.9188 142.524 21.8497C142.594 21.7807 142.681 21.7461 142.785 21.7461H144.945V10.8394H142.785C142.681 10.8394 142.594 10.8048 142.524 10.7358C142.455 10.6667 142.42 10.5803 142.42 10.4767V9.36269C142.42 9.25907 142.455 9.17271 142.524 9.10363C142.594 9.03454 142.681 9 142.785 9H146.038C146.299 9 146.515 9.09499 146.689 9.28497C146.88 9.45769 146.975 9.67357 146.975 9.93264V11.228L148.485 10.0622C149.11 9.57858 149.613 9.25907 149.995 9.10363C150.394 8.93091 150.81 8.84456 151.244 8.84456H152.025C152.146 8.84456 152.233 8.8791 152.285 8.94819C152.355 9.01727 152.389 9.10363 152.389 9.20725V10.4767C152.389 10.5803 152.355 10.6667 152.285 10.7358C152.216 10.8048 152.129 10.8394 152.025 10.8394H151.452C151.018 10.8394 150.611 10.9344 150.229 11.1244C149.847 11.2971 149.274 11.6857 148.511 12.2902L146.975 13.5078V21.7461H149.995C150.099 21.7461 150.185 21.7807 150.255 21.8497C150.324 21.9188 150.359 22.0052 150.359 22.1088V23.3005C150.359 23.4041 150.324 23.4905 150.255 23.5596C150.185 23.6287 150.099 23.6632 149.995 23.6632H142.785Z" fill="#021626"/>
<path d="M160.033 23.6632C158.783 23.6632 157.803 23.2919 157.091 22.5492C156.38 21.7893 156.024 20.8394 156.024 19.6995V10.8912H154.306C154.202 10.8912 154.116 10.8566 154.046 10.7876C153.977 10.7185 153.942 10.6321 153.942 10.5285V9.36269C153.942 9.25907 153.977 9.17271 154.046 9.10363C154.116 9.03454 154.202 9 154.306 9H156.024V6.27979C156.024 6.17617 156.059 6.08981 156.128 6.02072C156.198 5.95164 156.285 5.9171 156.389 5.9171H157.69C157.794 5.9171 157.881 5.95164 157.95 6.02072C158.02 6.08981 158.055 6.17617 158.055 6.27979V9H162.636C162.74 9 162.826 9.03454 162.896 9.10363C162.965 9.17271 163 9.25907 163 9.36269V10.5544C163 10.658 162.965 10.7444 162.896 10.8135C162.826 10.8826 162.74 10.9171 162.636 10.9171H158.055V19.4663C158.055 20.1399 158.254 20.6839 158.653 21.0984C159.07 21.4957 159.608 21.7029 160.267 21.7202L162.636 21.7461C162.74 21.7461 162.826 21.7807 162.896 21.8497C162.965 21.9188 163 22.0052 163 22.1088V23.3005C163 23.4041 162.965 23.4905 162.896 23.5596C162.826 23.6287 162.74 23.6632 162.636 23.6632H160.033Z" fill="#021626"/>
<path d="M9 25V15H17V25M1 25V13L13 1M13 1H7M13 1V7M25 25V13L19 7" stroke="#5712AA" stroke-width="2" stroke-linecap="square"/>
</svg>
