<svg width="24" height="24" viewBox="0 0 24 24" fill="none" xmlns="http://www.w3.org/2000/svg">
<path fill-rule="evenodd" clip-rule="evenodd" d="M4.7998 0.800781C2.59067 0.800781 0.799805 2.59164 0.799805 4.80078V19.2008C0.799805 21.4099 2.59067 23.2008 4.79981 23.2008H19.1998C21.4089 23.2008 23.1998 21.4099 23.1998 19.2008V4.80078C23.1998 2.59164 21.4089 0.800781 19.1998 0.800781H4.7998ZM18.0852 7.66603C18.7485 7.58536 19.3785 7.40871 19.9685 7.14938L19.9998 7.16272C19.5598 7.82136 19.0005 8.402 18.3599 8.86131C18.3699 9.00131 18.3699 9.14197 18.3699 9.28129C18.3699 13.6078 15.0733 18.6049 9.03759 18.6049C7.17834 18.6049 5.45908 18.0616 3.9998 17.1323C4.26046 17.1616 4.51978 17.177 4.77977 17.177C6.30837 17.177 7.72765 16.653 8.8476 15.7737C7.40833 15.747 6.19904 14.7977 5.7784 13.4958C5.97905 13.5331 6.17971 13.5531 6.38904 13.5531C6.68702 13.5531 6.97768 13.5131 7.253 13.4391C5.75106 13.1371 4.62244 11.8112 4.62244 10.2213V10.1806C5.06376 10.4259 5.56974 10.5739 6.10772 10.5912C5.22908 10.0026 4.64911 9.00064 4.64911 7.86069C4.64911 7.25138 4.80844 6.69207 5.09309 6.21076C6.71036 8.19001 9.12692 9.49928 11.8535 9.62795C11.7988 9.38862 11.7688 9.13863 11.7688 8.87864C11.7688 7.06939 13.2374 5.60078 15.0487 5.60078C15.994 5.60078 16.8453 6.00076 17.4426 6.64007C18.1905 6.49008 18.8932 6.22076 19.5272 5.85077C19.2812 6.61674 18.7612 7.25871 18.0852 7.66603Z" fill="#1DA1F2"/>
</svg>
