<?xml version="1.0" standalone="no"?>
<!DOCTYPE svg PUBLIC "-//W3C//DTD SVG 1.1//EN" "http://www.w3.org/Graphics/SVG/1.1/DTD/svg11.dtd" >
<svg xmlns="http://www.w3.org/2000/svg" xmlns:xlink="http://www.w3.org/1999/xlink" version="1.1">
<metadata>
Created by FontForge 20170731 at Thu Jan  1 03:00:00 1970
 By Aleksey,,,
Copyright \(c\) 2018 by Typetype. Designer Ivan Gladkikh, technical designers Philipp Nurullin, Vika Usmanova, Nadyr Rakhimov, Marina Khodak. All rights reserved.
</metadata>
<defs>
<font id="PTXQCU+TTFirsNeue-Black" horiz-adv-x="690" >
  <font-face 
    font-family="PTXQCU+TTFirsNeue-Black"
    font-weight="900"
    font-stretch="normal"
    units-per-em="1000"
    panose-1="2 0 10 3 0 0 0 0 0 0"
    ascent="800"
    descent="-200"
    x-height="530"
    cap-height="720"
    bbox="-10 -190 955 780"
    underline-thickness="50"
    underline-position="-200"
    unicode-range="U+0020-FB01"
  />
<missing-glyph horiz-adv-x="0" 
 />
    <glyph glyph-name=".notdef" horiz-adv-x="0" 
 />
    <glyph glyph-name=".null" horiz-adv-x="0" 
 />
    <glyph glyph-name="nonmarkingreturn" horiz-adv-x="333" 
 />
    <glyph glyph-name="space" unicode=" " horiz-adv-x="280" 
 />
    <glyph glyph-name="parenleft" unicode="(" horiz-adv-x="440" 
d="M50 290q0 87 27 167t65 133t76 93t65 59l27 18l120 -140l-16 -16t-36 -44t-46 -70t-36 -90.5t-16 -109.5t15.5 -109t37.5 -92t44 -68.5t37 -45.5l16 -15l-120 -140q-11 7 -28.5 19.5t-62 56.5t-79 94.5t-62.5 131.5t-28 168z" />
    <glyph glyph-name="parenright" unicode=")" horiz-adv-x="440" 
d="M10 -40l16 16t36 44t46 70t36 90.5t16 109.5t-15.5 109t-37.5 92t-44 68.5t-37 45.5l-16 15l120 140q11 -7 28.5 -19.5t62 -56.5t79 -94.5t62.5 -131.5t28 -168t-27 -167t-65 -133t-76 -93t-65 -59l-27 -18z" />
    <glyph glyph-name="hyphen" unicode="-" horiz-adv-x="500" 
d="M40 180v180h420v-180h-420z" />
    <glyph glyph-name="period" unicode="." horiz-adv-x="270" 
d="M25 95q0 45 32.5 77.5t77.5 32.5t77.5 -32.5t32.5 -77.5t-32.5 -77.5t-77.5 -32.5t-77.5 32.5t-32.5 77.5z" />
    <glyph glyph-name="zero" unicode="0" horiz-adv-x="810" 
d="M35 350q0 165 102.5 267.5t267.5 102.5t267.5 -102.5t102.5 -267.5t-102.5 -267.5t-267.5 -102.5t-267.5 102.5t-102.5 267.5zM295 350q0 -79 31 -119.5t79 -40.5t79 40.5t31 119.5t-31 119.5t-79 40.5t-79 -40.5t-31 -119.5z" />
    <glyph glyph-name="one" unicode="1" horiz-adv-x="480" 
d="M30 350v250l160 100h230v-700h-260v430z" />
    <glyph glyph-name="two" unicode="2" horiz-adv-x="725" 
d="M35 0v205l240 125q101 53 128 75.5t27 49.5q0 22 -18.5 38.5t-51.5 16.5q-31 0 -51 -15t-25 -30l-4 -15h-250q1 6 2.5 15.5t11 37.5t22.5 53.5t40 56.5t61 53.5t87 38t116 15.5q148 0 234 -71.5t86 -173.5q0 -31 -8.5 -60t-23 -51.5t-33.5 -42.5t-39.5 -34.5t-41 -26.5
t-39.5 -20.5t-33.5 -14t-23.5 -7.5l-8 -3l-20 -5l-15 -5v-11l70 11h215v-205h-655z" />
    <glyph glyph-name="three" unicode="3" horiz-adv-x="710" 
d="M15 235h245q1 -2 2.5 -6.5t8 -14.5t15.5 -18t26 -14.5t38 -6.5q40 0 60 16.5t20 43.5t-20 43.5t-60 16.5h-160v130l140 75v10h-275v190h585v-185l-185 -80l-11 -5v-11l1 1q114 0 177 -56.5t63 -148.5q0 -103 -84.5 -169t-245.5 -66q-63 0 -116 14t-87 36.5t-60.5 49.5
t-40.5 54.5t-22.5 50t-10.5 36.5z" />
    <glyph glyph-name="six" unicode="6" horiz-adv-x="725" 
d="M25 255q0 123 120 275l135 170h270l-160 -200l-50 -30v-10q40 20 105 20q115 0 187.5 -68.5t72.5 -170.5q0 -111 -90.5 -186t-249.5 -75q-160 0 -250 77.5t-90 197.5zM280 235q0 -24 23 -42t62 -18t62 18t23 42t-23 42t-62 18t-62 -18t-23 -42z" />
    <glyph glyph-name="seven" unicode="7" horiz-adv-x="650" 
d="M20 480v220h610v-220l-260 -480h-275l260 470v10h-335z" />
    <glyph glyph-name="eight" unicode="8" horiz-adv-x="770" 
d="M25 195q0 39 16 71.5t38.5 51t45.5 31t39 17.5l16 4v10q-5 1 -13.5 4t-30 14t-38 26t-30 42t-13.5 59q0 79 84.5 137t245.5 58t245.5 -58t84.5 -137q0 -32 -13 -59t-31.5 -42t-36.5 -25.5t-31 -14.5l-13 -4v-10q6 -1 16.5 -4.5t37.5 -17t47 -31.5t37 -50.5t17 -71.5
q0 -91 -90.5 -153t-269.5 -62t-269.5 62t-90.5 153zM315 490q0 -19 18 -32t52 -13t52 13t18 32t-18 32t-52 13t-52 -13t-18 -32zM295 230q0 -28 23.5 -46.5t66.5 -18.5t66.5 18.5t23.5 46.5t-23.5 46.5t-66.5 18.5t-66.5 -18.5t-23.5 -46.5z" />
    <glyph glyph-name="nine" unicode="9" horiz-adv-x="725" 
d="M20 459q0 111 90.5 186t249.5 75q160 0 250 -77.5t90 -197.5q0 -123 -120 -275l-135 -170h-270l160 200l50 30v10q-40 -20 -105 -20q-115 0 -187.5 68.5t-72.5 170.5zM275 465q0 -24 23 -42t62 -18t62 18t23 42t-23 42t-62 18t-62 -18t-23 -42z" />
    <glyph glyph-name="A" unicode="A" horiz-adv-x="760" 
d="M-10 0l195 700h395l190 -700h-250l-35 130h-215l-35 -130h-245zM310 305h135l-45 185h-40z" />
    <glyph glyph-name="B" unicode="B" horiz-adv-x="765" 
d="M60 0v700h410q115 0 175 -47.5t60 -122.5q0 -31 -12 -57t-28.5 -41.5t-33.5 -26.5t-29 -15l-12 -5v-10q6 -1 15.5 -3.5t33.5 -14.5t42.5 -29t33.5 -49.5t15 -73.5q0 -91 -71 -148t-204 -57h-395zM310 435h80q55 0 55 45t-55 45h-80v-90zM310 175h100q65 0 65 55t-65 55
h-100v-110z" />
    <glyph glyph-name="D" unicode="D" horiz-adv-x="795" 
d="M60 0v700h305q180 0 290 -100t110 -250t-110 -250t-290 -100h-305zM310 210h50q67 0 106 38t39 102t-39 102t-106 38h-50v-280z" />
    <glyph glyph-name="F" unicode="F" horiz-adv-x="660" 
d="M60 0v700h570v-200h-320v-105h240v-170h-240v-225h-250z" />
    <glyph glyph-name="J" unicode="J" horiz-adv-x="665" 
d="M-5 190l220 45q2 -5 7 -12.5t23 -20t40 -12.5q75 0 75 75v435h250v-430q0 -133 -84 -211.5t-236 -78.5q-50 0 -93.5 11.5t-72.5 30t-52.5 41t-37.5 45t-23 41t-13 29.5z" />
    <glyph glyph-name="N" unicode="N" horiz-adv-x="835" 
d="M60 0v700h280l191 -330h9l-15 100v230h250v-700h-280l-190 330h-10l15 -95v-235h-250z" />
    <glyph glyph-name="O" unicode="O" horiz-adv-x="860" 
d="M30 350q0 158 110 264t290 106t290 -106t110 -264t-110 -264t-290 -106t-290 106t-110 264zM290 350q0 -74 39.5 -117t100.5 -43t100.5 43t39.5 117t-39.5 117t-100.5 43t-100.5 -43t-39.5 -117z" />
    <glyph glyph-name="T" unicode="T" 
d="M10 480v220h670v-220h-210v-480h-250v480h-210z" />
    <glyph glyph-name="a" unicode="a" 
d="M30 265q0 130 63 205t157 75q49 0 87.5 -21.5t52.5 -42.5l15 -21h10v70h230v-530h-230v70h-10q-2 -3 -5.5 -9t-17.5 -20.5t-30 -26t-43.5 -20.5t-58.5 -9q-94 0 -157 75t-63 205zM265 265q0 -44 22 -69.5t54 -25.5q31 0 52.5 26t21.5 69t-21.5 69t-52.5 26
q-32 0 -54 -25.5t-22 -69.5z" />
    <glyph glyph-name="b" unicode="b" 
d="M45 0v700h230v-240h10q2 3 5.5 9t17.5 20.5t30 26t43.5 20.5t58.5 9q94 0 157 -75t63 -205t-63 -205t-157 -75q-49 0 -87.5 21.5t-52.5 42.5l-15 21h-10v-70h-230zM275 265q0 -43 21.5 -69t52.5 -26q32 0 54 25.5t22 69.5t-22 69.5t-54 25.5q-31 0 -52.5 -26t-21.5 -69z
" />
    <glyph glyph-name="c" unicode="c" horiz-adv-x="660" 
d="M25 265q0 118 86 199t219 81q57 0 105 -13t78.5 -33.5t54 -45.5t36 -50.5t20 -46t9.5 -33.5l2 -13h-235q-1 2 -2 6t-6.5 13.5t-13 16.5t-20.5 13t-28 6q-32 0 -51 -25t-19 -75t19 -75t51 -25q24 0 41.5 13.5t22.5 27.5l6 14h235q-1 -5 -2.5 -13.5t-9.5 -33t-20 -46.5
t-35.5 -49t-54 -46.5t-78.5 -33t-105 -13.5q-133 0 -219 81t-86 199z" />
    <glyph glyph-name="d" unicode="d" 
d="M30 265q0 130 63 205t157 75q49 0 87.5 -21.5t52.5 -42.5l15 -21h10v240h230v-700h-230v70h-10q-2 -3 -5.5 -9t-17.5 -20.5t-30 -26t-43.5 -20.5t-58.5 -9q-94 0 -157 75t-63 205zM265 265q0 -44 22 -69.5t54 -25.5q31 0 52.5 26t21.5 69t-21.5 69t-52.5 26
q-32 0 -54 -25.5t-22 -69.5z" />
    <glyph glyph-name="e" unicode="e" horiz-adv-x="660" 
d="M25 265q0 118 86 199t219 81t219 -81t86 -199v-15h-375q0 -105 70 -105q22 0 38.5 11t21.5 22l5 12h235q-1 -4 -3.5 -11.5t-12.5 -29t-23.5 -40.5t-38.5 -43t-54 -41t-73 -28.5t-95 -11.5q-133 0 -219 81t-86 199zM265 315h130q0 3 -1 7.5t-5 16.5t-10 21.5t-19 17
t-30 7.5q-27 0 -43 -17.5t-19 -35.5z" />
    <glyph glyph-name="f" unicode="f" horiz-adv-x="435" 
d="M10 345v155h70v200h360v-155h-130v-45h110v-155h-110v-345h-230v345h-70z" />
    <glyph glyph-name="g" unicode="g" 
d="M30 280q0 120 63.5 192.5t156.5 72.5q49 0 87.5 -21.5t52.5 -42.5l15 -21h10v70h230v-720h-550v155h320v135h-10q-2 -3 -5.5 -9t-17.5 -20.5t-30 -26t-43.5 -20.5t-58.5 -9q-93 0 -156.5 72.5t-63.5 192.5zM265 280q0 -37 20.5 -58.5t55.5 -21.5q33 0 53.5 21.5
t20.5 58.5t-20.5 58.5t-53.5 21.5q-35 0 -55.5 -21.5t-20.5 -58.5z" />
    <glyph glyph-name="h" unicode="h" horiz-adv-x="670" 
d="M45 0v700h230v-245h10q2 4 6 10t18.5 21.5t31 27.5t43.5 21.5t56 9.5q88 0 139 -56t51 -159v-330h-230v290q0 31 -15 48t-40 17q-31 0 -50.5 -21.5t-19.5 -58.5v-275h-230z" />
    <glyph glyph-name="i" unicode="i" horiz-adv-x="320" 
d="M40 675q0 46 32.5 75.5t87.5 29.5t87.5 -29.5t32.5 -75.5t-32.5 -75.5t-87.5 -29.5t-87.5 29.5t-32.5 75.5zM45 0v530h230v-530h-230z" />
    <glyph glyph-name="k" unicode="k" horiz-adv-x="640" 
d="M45 0v700h230v-340h35l80 170h235l-125 -255l140 -275h-235l-85 170h-45v-170h-230z" />
    <glyph glyph-name="l" unicode="l" horiz-adv-x="405" 
d="M45 0v700h230v-545h120v-155h-350z" />
    <glyph glyph-name="m" unicode="m" horiz-adv-x="995" 
d="M45 0v530h230v-75h10q2 4 6 10t18.5 21.5t31 27.5t43.5 21.5t56 9.5q32 0 60 -9.5t44.5 -22.5t28.5 -26t17 -23l5 -9h10q2 4 5.5 10t17.5 21.5t30 27.5t43.5 21.5t58.5 9.5q91 0 143 -55.5t52 -159.5v-330h-230v290q0 65 -50 65q-60 0 -60 -75v-280h-230v290q0 65 -50 65
q-60 0 -60 -75v-280h-230z" />
    <glyph glyph-name="n" unicode="n" horiz-adv-x="670" 
d="M45 0v530h230v-75h10q2 4 6 10t18.5 21.5t31 27.5t43.5 21.5t56 9.5q88 0 139 -56t51 -159v-330h-230v290q0 31 -15 48t-40 17q-31 0 -50.5 -21.5t-19.5 -58.5v-275h-230z" />
    <glyph glyph-name="o" unicode="o" horiz-adv-x="680" 
d="M25 265q0 119 87.5 199.5t227.5 80.5t227.5 -80.5t87.5 -199.5t-87.5 -199.5t-227.5 -80.5t-227.5 80.5t-87.5 199.5zM260 265q0 -47 22.5 -73.5t57.5 -26.5t57.5 26.5t22.5 73.5t-22.5 73.5t-57.5 26.5t-57.5 -26.5t-22.5 -73.5z" />
    <glyph glyph-name="p" unicode="p" 
d="M45 -190v720h230v-70h10q2 3 5.5 9t17.5 20.5t30 26t43.5 20.5t58.5 9q94 0 157 -75t63 -205t-63 -205t-157 -75q-49 0 -87.5 21.5t-52.5 42.5l-15 21h-10v-260h-230zM275 265q0 -43 21.5 -69t52.5 -26q32 0 54 25.5t22 69.5t-22 69.5t-54 25.5q-31 0 -52.5 -26
t-21.5 -69z" />
    <glyph glyph-name="r" unicode="r" horiz-adv-x="450" 
d="M45 0v530h220v-80h10q1 4 3.5 10t12.5 21.5t22.5 27.5t34.5 21.5t47 9.5h45v-220h-96q-37 0 -53 -15.5t-16 -49.5v-255h-230z" />
    <glyph glyph-name="s" unicode="s" horiz-adv-x="600" 
d="M20 175h215q0 -2 1 -4.5t5 -9.5t10 -12t19 -9.5t30 -4.5q45 0 45 20q0 14 -31.5 24t-76 20.5t-89.5 27t-76.5 54.5t-31.5 94q0 73 65.5 121.5t189.5 48.5q70 0 124 -19t81.5 -46.5t44.5 -54.5t21 -46l4 -19h-215l-2.5 10t-13 15.5t-29.5 9.5q-35 0 -35 -20
q0 -13 31.5 -21.5t76.5 -18.5t89.5 -26.5t76 -54.5t31.5 -94q0 -73 -70.5 -124t-204.5 -51q-74 0 -131 19.5t-84.5 47.5t-45 56t-20.5 48z" />
    <glyph glyph-name="t" unicode="t" horiz-adv-x="470" 
d="M10 375v155h70v110h230v-110h120v-155h-120v-220h130v-155h-360v375h-70z" />
    <glyph glyph-name="u" unicode="u" horiz-adv-x="675" 
d="M45 200v330h230v-290q0 -31 15 -48t40 -17q31 0 50.5 21.5t19.5 58.5v275h230v-530h-230v75h-10q-2 -4 -6 -10t-18.5 -21.5t-31 -27.5t-43.5 -21.5t-56 -9.5q-88 0 -139 56t-51 159z" />
    <glyph glyph-name="w" unicode="w" horiz-adv-x="920" 
d="M10 530h230l40 -300h15l50 300h230l50 -300h15l40 300h230l-100 -530h-300l-45 300h-10l-45 -300h-300z" />
    <glyph glyph-name="y" unicode="y" horiz-adv-x="640" 
d="M10 530h230l75 -340h15l75 340h235l-189 -720h-231l55 190h-135z" />
    <glyph glyph-name="fi" unicode="&#xfb01;" horiz-adv-x="725" 
d="M10 345v155h70v200h490v-155h-260v-45h370v-500h-230v345h-140v-345h-230v345h-70z" />
  </font>
</defs>
</svg>
