<?xml version="1.0" encoding="UTF-8" standalone="no"?>
<!DOCTYPE svg PUBLIC "-//W3C//DTD SVG 1.1//EN" "http://www.w3.org/Graphics/SVG/1.1/DTD/svg11.dtd">
<svg width="100%" height="100%" viewBox="0 0 1205 360" version="1.1" xmlns="http://www.w3.org/2000/svg" xmlns:xlink="http://www.w3.org/1999/xlink" xml:space="preserve" xmlns:serif="http://www.serif.com/" style="fill-rule:evenodd;clip-rule:evenodd;stroke-linejoin:round;stroke-miterlimit:1.41421;">
    <g transform="matrix(1,0,0,1,-358.336,-8259.71)">
        <g>
            <g transform="matrix(8.33333,0,0,8.33333,732.908,8374.81)">
                <path d="M0,-13.418L-3.098,-8.209L-3.927,-8.209L-3.927,-13.418L-7.261,-13.418L-7.261,0L-3.927,0L-3.927,-5.446L-3.098,-5.446L-0.02,0L3.986,0L-0.237,-7.142L3.769,-13.418L0,-13.418Z" style="fill:white;fill-rule:nonzero;"/>
            </g>
            <g transform="matrix(8.33333,0,0,8.33333,772.731,8290.95)">
                <path d="M0,10.064L0,0.197L2.861,0.197L3.157,1.263L3.197,1.263C3.887,0.395 4.775,0 5.92,0C7.972,0 8.781,1.342 8.781,3.118L8.781,10.064L5.623,10.064L5.623,3.414C5.623,2.645 4.973,2.408 4.46,2.408C3.946,2.408 3.157,2.743 3.157,3.71L3.157,10.064L0,10.064Z" style="fill:white;fill-rule:nonzero;"/>
            </g>
            <g transform="matrix(8.33333,0,0,8.33333,885.064,8333.7)">
                <path d="M0,0.001C0,1.698 0.296,2.586 1.46,2.586C2.644,2.586 2.94,1.698 2.94,0.001C2.94,-1.697 2.644,-2.584 1.46,-2.584C0.296,-2.584 0,-1.697 0,0.001M-3.315,0.001C-3.315,-3.136 -2.013,-5.13 1.46,-5.13C4.953,-5.13 6.255,-3.136 6.255,0.001C6.255,3.158 4.953,5.131 1.46,5.131C-2.013,5.131 -3.315,3.158 -3.315,0.001" style="fill:white;fill-rule:nonzero;"/>
            </g>
            <g transform="matrix(8.33333,0,0,8.33333,998.22,8329.92)">
                <path d="M0,1.007L-1.125,5.486L-4.539,5.486L-7.222,-4.479L-3.67,-4.479L-2.466,1.026L-2.427,1.026L-1.381,-4.479L1.599,-4.479L2.881,1.026L2.921,1.026L3.967,-4.479L7.301,-4.479L4.637,5.486L1.144,5.486L0.039,1.007L0,1.007Z" style="fill:white;fill-rule:nonzero;"/>
            </g>
            <g transform="matrix(8.33333,0,0,8.33333,1066.5,8377.28)">
                <path d="M0,-14.109L3.157,-14.109L3.157,-3.394C3.157,-2.782 3.355,-2.664 4.44,-2.664L4.44,-0.197C0.651,0 0,-0.691 0,-3.394L0,-14.109Z" style="fill:white;fill-rule:nonzero;"/>
            </g>
            <g transform="matrix(8.33333,0,0,8.33333,1136.72,8341.43)">
                <path d="M0,-1.855L1.697,-1.855C2.309,-1.855 2.625,-2.21 2.625,-2.664C2.625,-3.098 2.249,-3.493 1.579,-3.493C0.632,-3.493 0.138,-2.861 0,-1.855M-0.039,0.02C0.04,1.026 0.415,1.638 1.381,1.638L5.032,1.638L5.032,3.73C3.631,4.105 2.427,4.203 1.381,4.203C-2.091,4.203 -3.394,2.23 -3.394,-0.927C-3.394,-4.064 -1.874,-6.058 1.658,-6.058C4.519,-6.058 5.782,-4.459 5.782,-2.842C5.782,-1.401 5.19,0.02 2.842,0.02L-0.039,0.02Z" style="fill:white;fill-rule:nonzero;"/>
            </g>
            <g transform="matrix(8.33333,0,0,8.33333,1242.48,8323.84)">
                <path d="M0,-1.382L-1.184,-1.382C-2.349,-1.382 -2.704,-0.435 -2.704,1.184C-2.704,2.821 -2.506,3.847 -1.303,3.847C-0.79,3.847 0,3.512 0,2.545L0,-1.382ZM0,-7.696L3.157,-7.696L3.157,6.117L0.296,6.117L0,5.051L-0.04,5.051C-0.671,5.919 -1.342,6.314 -2.388,6.314C-4.894,6.314 -6.019,4.341 -6.019,1.184C-6.019,-1.954 -4.677,-3.947 -1.559,-3.947C-1.066,-3.947 -0.592,-3.908 0,-3.828L0,-7.696Z" style="fill:white;fill-rule:nonzero;"/>
            </g>
            <g transform="matrix(8.33333,0,0,8.33333,1330.47,8388.46)">
                <path d="M0,-8.997L-1.184,-8.997C-2.349,-8.997 -2.703,-7.971 -2.703,-6.491C-2.703,-4.932 -2.506,-3.906 -1.303,-3.906C-0.79,-3.906 0,-4.242 0,-5.208L0,-8.997ZM0,-2.702L-0.04,-2.702C-0.671,-1.835 -1.342,-1.44 -2.388,-1.44C-4.894,-1.44 -6.019,-3.354 -6.019,-6.491C-6.019,-9.648 -4.519,-11.503 -1.401,-11.503L3.157,-11.503L3.157,-2.623C3.157,0.533 1.855,2.506 -1.638,2.506C-2.684,2.506 -3.829,2.408 -5.229,2.034L-5.229,-0.058L-1.48,-0.058C-0.296,-0.058 0,-0.927 0,-2.17L0,-2.702Z" style="fill:white;fill-rule:nonzero;"/>
            </g>
            <g transform="matrix(8.33333,0,0,8.33333,1396.59,8341.43)">
                <path d="M0,-1.855L1.697,-1.855C2.309,-1.855 2.625,-2.21 2.625,-2.664C2.625,-3.098 2.25,-3.493 1.579,-3.493C0.632,-3.493 0.139,-2.861 0,-1.855M-0.039,0.02C0.04,1.026 0.415,1.638 1.381,1.638L5.033,1.638L5.033,3.73C3.631,4.105 2.428,4.203 1.381,4.203C-2.091,4.203 -3.394,2.23 -3.394,-0.927C-3.394,-4.064 -1.874,-6.058 1.658,-6.058C4.519,-6.058 5.782,-4.459 5.782,-2.842C5.782,-1.401 5.19,0.02 2.842,0.02L-0.039,0.02Z" style="fill:white;fill-rule:nonzero;"/>
            </g>
            <g transform="matrix(8.33333,0,0,8.33333,716.463,8420.86)">
                <path d="M0,7.696C0.73,7.696 1.243,7.381 1.243,6.413C1.243,5.506 0.73,5.15 0,5.15L-1.953,5.15L-1.953,7.696L0,7.696ZM-1.953,0L-1.953,2.289L-0.296,2.289C0.356,2.289 0.849,1.973 0.849,1.184C0.849,0.356 0.356,0 -0.296,0L-1.953,0ZM2.329,3.67C4.124,4.124 4.716,5.486 4.716,6.828C4.716,9.354 3.039,10.557 0.316,10.557L-5.288,10.557L-5.288,-2.861L-0.059,-2.861C2.664,-2.861 4.341,-1.578 4.341,0.75C4.341,1.994 3.907,3.197 2.329,3.631L2.329,3.67Z" style="fill:white;fill-rule:nonzero;"/>
            </g>
            <g transform="matrix(8.33333,0,0,8.33333,840.475,8510.48)">
                <path d="M0,-10.064L0,-0.197L-2.861,-0.197L-3.157,-1.263L-3.196,-1.263C-3.907,-0.395 -4.775,0 -5.919,0C-7.972,0 -8.781,-1.322 -8.781,-3.098L-8.781,-10.064L-5.624,-10.064L-5.624,-3.394C-5.624,-2.645 -4.992,-2.408 -4.459,-2.408C-3.946,-2.408 -3.157,-2.743 -3.157,-3.69L-3.157,-10.064L0,-10.064Z" style="fill:white;fill-rule:nonzero;"/>
            </g>
            <g transform="matrix(8.33333,0,0,8.33333,853.653,8424.97)">
                <path d="M0,10.064L0,0.197L2.861,0.197L3.157,1.796L3.197,1.796C3.848,0.454 5.072,0 6.216,0L6.216,3.039L5.427,3.039C3.631,3.039 3.157,3.651 3.157,4.538L3.157,10.064L0,10.064Z" style="fill:white;fill-rule:nonzero;"/>
            </g>
            <g transform="matrix(8.33333,0,0,8.33333,939.505,8475.46)">
                <path d="M0,-1.855L1.697,-1.855C2.309,-1.855 2.624,-2.21 2.624,-2.664C2.624,-3.098 2.249,-3.493 1.578,-3.493C0.632,-3.493 0.138,-2.861 0,-1.855M-0.039,0.02C0.039,1.026 0.415,1.638 1.381,1.638L5.032,1.638L5.032,3.73C3.631,4.104 2.427,4.203 1.381,4.203C-2.092,4.203 -3.394,2.23 -3.394,-0.927C-3.394,-4.065 -1.875,-6.058 1.657,-6.058C4.519,-6.058 5.782,-4.459 5.782,-2.842C5.782,-1.401 5.19,0.02 2.842,0.02L-0.039,0.02Z" style="fill:white;fill-rule:nonzero;"/>
            </g>
            <g transform="matrix(8.33333,0,0,8.33333,1040.98,8460.98)">
                <path d="M0,1.619L-1.263,1.619C-1.933,1.619 -2.368,1.875 -2.368,2.586C-2.368,3.355 -1.815,3.533 -1.282,3.533C-0.789,3.533 0,3.237 0,2.25L0,1.619ZM-4.913,-1.756L-4.913,-3.848C-3.512,-4.124 -2.072,-4.321 -0.848,-4.321C1.678,-4.321 3.157,-3.709 3.157,-0.986L3.157,5.743L0.296,5.743L0,4.677L-0.039,4.677C-0.75,5.664 -1.539,5.94 -2.683,5.94C-4.538,5.94 -5.525,4.5 -5.525,2.802C-5.525,0.238 -3.65,-0.276 -2.249,-0.276L0,-0.276L0,-0.847C0,-1.459 -0.236,-1.756 -1.223,-1.756L-4.913,-1.756Z" style="fill:white;fill-rule:nonzero;"/>
            </g>
            <g transform="matrix(8.33333,0,0,8.33333,1153.65,8510.48)">
                <path d="M0,-10.064L0,-0.197L-2.861,-0.197L-3.157,-1.263L-3.197,-1.263C-3.907,-0.395 -4.775,0 -5.92,0C-7.972,0 -8.781,-1.322 -8.781,-3.098L-8.781,-10.064L-5.624,-10.064L-5.624,-3.394C-5.624,-2.645 -4.992,-2.408 -4.46,-2.408C-3.947,-2.408 -3.157,-2.743 -3.157,-3.69L-3.157,-10.064L0,-10.064Z" style="fill:white;fill-rule:nonzero;"/>
            </g>
            <g transform="matrix(8.33333,0,0,8.33333,493.239,8592.68)">
                <path d="M0,-0.349L-0.64,3.169L-2.549,3.169L-4.08,-3.47L-2.094,-3.47L-1.386,0.61L-1.367,0.61L-0.766,-3.518L0.911,-3.518L1.638,0.61L1.657,0.61L2.268,-3.47L4.128,-3.47L2.627,3.169L0.669,3.169L0.019,-0.349L0,-0.349Z" style="fill:rgb(106,189,69);fill-rule:nonzero;"/>
            </g>
            <g transform="matrix(8.33333,0,0,8.33333,544.826,8598.49)">
                <path d="M0,0C0,0.833 0.145,1.269 0.717,1.269C1.299,1.269 1.444,0.833 1.444,0C1.444,-0.834 1.299,-1.269 0.717,-1.269C0.145,-1.269 0,-0.834 0,0M-1.628,0C-1.628,-1.541 -0.988,-2.52 0.717,-2.52C2.433,-2.52 3.073,-1.541 3.073,0C3.073,1.551 2.433,2.52 0.717,2.52C-0.988,2.52 -1.628,1.551 -1.628,0" style="fill:rgb(106,189,69);fill-rule:nonzero;"/>
            </g>
            <g transform="matrix(8.33333,0,0,8.33333,576.068,8577.49)">
                <path d="M0,4.943L0,0.097L1.406,0.097L1.55,0.882L1.57,0.882C1.89,0.223 2.491,0 3.053,0L3.053,1.492L2.666,1.492C1.784,1.492 1.55,1.793 1.55,2.23L1.55,4.943L0,4.943Z" style="fill:rgb(106,189,69);fill-rule:nonzero;"/>
            </g>
            <g transform="matrix(8.33333,0,0,8.33333,605.943,8619.9)">
                <path d="M0,-6.93L1.55,-6.93L1.55,-1.667C1.55,-1.367 1.648,-1.309 2.181,-1.309L2.181,-0.097C0.32,0 0,-0.34 0,-1.667L0,-6.93Z" style="fill:rgb(106,189,69);fill-rule:nonzero;"/>
            </g>
            <g transform="matrix(8.33333,0,0,8.33333,651.167,8593.64)">
                <path d="M0,-0.678L-0.581,-0.678C-1.153,-0.678 -1.328,-0.213 -1.328,0.582C-1.328,1.386 -1.231,1.89 -0.64,1.89C-0.388,1.89 0,1.725 0,1.251L0,-0.678ZM0,-3.78L1.551,-3.78L1.551,3.005L0.145,3.005L0,2.482L-0.019,2.482C-0.329,2.908 -0.659,3.102 -1.173,3.102C-2.404,3.102 -2.956,2.133 -2.956,0.582C-2.956,-0.959 -2.297,-1.938 -0.766,-1.938C-0.524,-1.938 -0.291,-1.919 0,-1.88L0,-3.78Z" style="fill:rgb(106,189,69);fill-rule:nonzero;"/>
            </g>
            <g transform="matrix(8.33333,0,0,8.33333,0,5794.57)">
                <rect x="80.561" y="335.696" width="3.683" height="1.26" style="fill:rgb(106,189,69);"/>
            </g>
            <g transform="matrix(8.33333,0,0,8.33333,732.312,8619.5)">
                <path d="M0,-6.785C0.514,-6.785 1.269,-6.736 1.958,-6.552L1.958,-5.37L0.291,-5.37C-0.901,-5.37 -1.057,-4.323 -1.057,-3.393C-1.057,-2.462 -0.901,-1.415 0.291,-1.415L1.958,-1.415L1.958,-0.233C1.269,-0.049 0.514,0 0,0C-2.278,0 -2.762,-1.745 -2.762,-3.393C-2.762,-5.04 -2.278,-6.785 0,-6.785" style="fill:rgb(106,189,69);fill-rule:nonzero;"/>
            </g>
            <g transform="matrix(8.33333,0,0,8.33333,753.859,8619.9)">
                <path d="M0,-6.93L1.551,-6.93L1.551,-1.667C1.551,-1.367 1.647,-1.309 2.181,-1.309L2.181,-0.097C0.32,0 0,-0.34 0,-1.667L0,-6.93Z" style="fill:rgb(106,189,69);fill-rule:nonzero;"/>
            </g>
            <g transform="matrix(8.33333,0,0,8.33333,797.384,8595.19)">
                <path d="M0,0.794L-0.62,0.794C-0.95,0.794 -1.163,0.92 -1.163,1.269C-1.163,1.647 -0.891,1.734 -0.63,1.734C-0.388,1.734 0,1.589 0,1.104L0,0.794ZM-2.413,-0.863L-2.413,-1.89C-1.725,-2.027 -1.018,-2.123 -0.417,-2.123C0.824,-2.123 1.551,-1.822 1.551,-0.485L1.551,2.82L0.146,2.82L0,2.296L-0.019,2.296C-0.368,2.78 -0.756,2.917 -1.318,2.917C-2.229,2.917 -2.713,2.209 -2.713,1.375C-2.713,0.116 -1.793,-0.136 -1.105,-0.136L0,-0.136L0,-0.418C0,-0.718 -0.116,-0.863 -0.601,-0.863L-2.413,-0.863Z" style="fill:rgb(106,189,69);fill-rule:nonzero;"/>
            </g>
            <g transform="matrix(8.33333,0,0,8.33333,833.878,8619.49)">
                <path d="M0,-5.04C0.63,-5.04 1.028,-4.992 1.716,-4.807L1.716,-3.78L0.078,-3.78C-0.291,-3.78 -0.446,-3.654 -0.446,-3.499C-0.446,-3.344 -0.358,-3.237 0.019,-3.159C0.843,-3.014 1.929,-2.801 1.929,-1.57C1.929,-0.407 0.998,0 -0.174,0C-0.804,0 -1.464,-0.049 -2.152,-0.233L-2.152,-1.26L-0.262,-1.26C0.078,-1.26 0.223,-1.406 0.223,-1.57C0.223,-1.725 0.126,-1.832 -0.242,-1.9C-1.075,-2.045 -2.141,-2.249 -2.141,-3.499C-2.141,-4.633 -1.163,-5.04 0,-5.04" style="fill:rgb(106,189,69);fill-rule:nonzero;"/>
            </g>
            <g transform="matrix(8.33333,0,0,8.33333,872.715,8619.49)">
                <path d="M0,-5.04C0.63,-5.04 1.028,-4.992 1.716,-4.807L1.716,-3.78L0.078,-3.78C-0.291,-3.78 -0.446,-3.654 -0.446,-3.499C-0.446,-3.344 -0.358,-3.237 0.019,-3.159C0.843,-3.014 1.929,-2.801 1.929,-1.57C1.929,-0.407 0.998,0 -0.174,0C-0.804,0 -1.464,-0.049 -2.152,-0.233L-2.152,-1.26L-0.262,-1.26C0.078,-1.26 0.223,-1.406 0.223,-1.57C0.223,-1.725 0.126,-1.832 -0.242,-1.9C-1.075,-2.045 -2.141,-2.249 -2.141,-3.499C-2.141,-4.633 -1.163,-5.04 0,-5.04" style="fill:rgb(106,189,69);fill-rule:nonzero;"/>
            </g>
            <g transform="matrix(8.33333,0,0,8.33333,945.717,8606.97)">
                <path d="M0,-3.78L-2.675,-3.78L-2.675,-2.316L-0.359,-2.316L-0.359,-0.911L-2.675,-0.911L-2.675,1.405L-4.313,1.405L-4.313,-5.185L0,-5.185L0,-3.78Z" style="fill:rgb(106,189,69);fill-rule:nonzero;"/>
            </g>
            <g transform="matrix(8.33333,0,0,8.33333,0,5780.83)">
                <path d="M115.636,340.543L114.085,340.543L114.085,335.697L115.636,335.697L115.636,340.543ZM115.636,335.193L114.085,335.193L114.085,333.758L115.636,333.758L115.636,335.193Z" style="fill:rgb(106,189,69);fill-rule:nonzero;"/>
            </g>
            <g transform="matrix(8.33333,0,0,8.33333,970.081,8577.49)">
                <path d="M0,4.943L0,0.097L1.405,0.097L1.55,0.62L1.57,0.62C1.91,0.194 2.345,0 2.908,0C3.916,0 4.313,0.659 4.313,1.531L4.313,4.943L2.762,4.943L2.762,1.677C2.762,1.299 2.443,1.182 2.19,1.182C1.939,1.182 1.55,1.347 1.55,1.822L1.55,4.943L0,4.943Z" style="fill:rgb(106,189,69);fill-rule:nonzero;"/>
            </g>
            <g transform="matrix(8.33333,0,0,8.33333,1034.2,8595.19)">
                <path d="M0,0.794L-0.62,0.794C-0.95,0.794 -1.163,0.92 -1.163,1.269C-1.163,1.647 -0.892,1.734 -0.63,1.734C-0.388,1.734 0,1.589 0,1.104L0,0.794ZM-2.413,-0.863L-2.413,-1.89C-1.725,-2.027 -1.018,-2.123 -0.417,-2.123C0.824,-2.123 1.55,-1.822 1.55,-0.485L1.55,2.82L0.146,2.82L0,2.296L-0.02,2.296C-0.368,2.78 -0.756,2.917 -1.318,2.917C-2.229,2.917 -2.713,2.209 -2.713,1.375C-2.713,0.116 -1.793,-0.136 -1.105,-0.136L0,-0.136L0,-0.418C0,-0.718 -0.116,-0.863 -0.601,-0.863L-2.413,-0.863Z" style="fill:rgb(106,189,69);fill-rule:nonzero;"/>
            </g>
            <g transform="matrix(8.33333,0,0,8.33333,1053.57,8577.49)">
                <path d="M0,4.943L0,0.097L1.405,0.097L1.55,0.62L1.569,0.62C1.909,0.194 2.345,0 2.907,0C3.915,0 4.312,0.659 4.312,1.531L4.312,4.943L2.762,4.943L2.762,1.677C2.762,1.299 2.442,1.182 2.19,1.182C1.938,1.182 1.55,1.347 1.55,1.822L1.55,4.943L0,4.943Z" style="fill:rgb(106,189,69);fill-rule:nonzero;"/>
            </g>
            <g transform="matrix(8.33333,0,0,8.33333,1114.7,8619.49)">
                <path d="M0,-5.04C0.514,-5.04 0.863,-4.992 1.551,-4.807L1.551,-3.78L0,-3.78C-0.572,-3.78 -0.717,-3.354 -0.717,-2.52C-0.717,-1.687 -0.572,-1.26 0,-1.26L1.551,-1.26L1.551,-0.233C0.863,-0.049 0.514,0 0,0C-1.706,0 -2.345,-0.969 -2.345,-2.52C-2.345,-4.061 -1.706,-5.04 0,-5.04" style="fill:rgb(106,189,69);fill-rule:nonzero;"/>
            </g>
            <g transform="matrix(8.33333,0,0,8.33333,0,5780.83)">
                <path d="M137.426,340.543L135.875,340.543L135.875,335.697L137.426,335.697L137.426,340.543ZM137.426,335.193L135.875,335.193L135.875,333.758L137.426,333.758L137.426,335.193Z" style="fill:rgb(106,189,69);fill-rule:nonzero;"/>
            </g>
            <g transform="matrix(8.33333,0,0,8.33333,1173.4,8595.19)">
                <path d="M0,0.794L-0.62,0.794C-0.95,0.794 -1.163,0.92 -1.163,1.269C-1.163,1.647 -0.892,1.734 -0.63,1.734C-0.388,1.734 0,1.589 0,1.104L0,0.794ZM-2.414,-0.863L-2.414,-1.89C-1.725,-2.027 -1.018,-2.123 -0.417,-2.123C0.823,-2.123 1.55,-1.822 1.55,-0.485L1.55,2.82L0.145,2.82L0,2.296L-0.02,2.296C-0.368,2.78 -0.756,2.917 -1.318,2.917C-2.229,2.917 -2.713,2.209 -2.713,1.375C-2.713,0.116 -1.793,-0.136 -1.105,-0.136L0,-0.136L0,-0.418C0,-0.718 -0.117,-0.863 -0.601,-0.863L-2.414,-0.863Z" style="fill:rgb(106,189,69);fill-rule:nonzero;"/>
            </g>
            <g transform="matrix(8.33333,0,0,8.33333,1192.77,8619.9)">
                <path d="M0,-6.93L1.55,-6.93L1.55,-1.667C1.55,-1.367 1.648,-1.309 2.181,-1.309L2.181,-0.097C0.32,0 0,-0.34 0,-1.667L0,-6.93Z" style="fill:rgb(106,189,69);fill-rule:nonzero;"/>
            </g>
            <g transform="matrix(8.33333,0,0,8.33333,1266.26,8606.97)">
                <path d="M0,-3.78L-2.675,-3.78L-2.675,-2.656L-0.455,-2.656L-0.455,-1.25L-2.675,-1.25L-2.675,0L0,0L0,1.405L-4.313,1.405L-4.313,-5.185L0,-5.185L0,-3.78Z" style="fill:rgb(106,189,69);fill-rule:nonzero;"/>
            </g>
            <g transform="matrix(8.33333,0,0,8.33333,1295.49,8593.64)">
                <path d="M0,-0.678L-0.582,-0.678C-1.154,-0.678 -1.328,-0.213 -1.328,0.582C-1.328,1.386 -1.231,1.89 -0.64,1.89C-0.388,1.89 0,1.725 0,1.251L0,-0.678ZM0,-3.78L1.55,-3.78L1.55,3.005L0.145,3.005L0,2.482L-0.019,2.482C-0.329,2.908 -0.659,3.102 -1.173,3.102C-2.404,3.102 -2.956,2.133 -2.956,0.582C-2.956,-0.959 -2.297,-1.938 -0.766,-1.938C-0.524,-1.938 -0.291,-1.919 0,-1.88L0,-3.78Z" style="fill:rgb(106,189,69);fill-rule:nonzero;"/>
            </g>
            <g transform="matrix(8.33333,0,0,8.33333,1350.79,8619.5)">
                <path d="M0,-4.944L0,-0.098L-1.405,-0.098L-1.551,-0.621L-1.57,-0.621C-1.919,-0.194 -2.345,0 -2.907,0C-3.916,0 -4.313,-0.65 -4.313,-1.522L-4.313,-4.944L-2.762,-4.944L-2.762,-1.668C-2.762,-1.299 -2.452,-1.183 -2.19,-1.183C-1.938,-1.183 -1.551,-1.348 -1.551,-1.813L-1.551,-4.944L0,-4.944Z" style="fill:rgb(106,189,69);fill-rule:nonzero;"/>
            </g>
            <g transform="matrix(8.33333,0,0,8.33333,1375.98,8619.49)">
                <path d="M0,-5.04C0.514,-5.04 0.863,-4.992 1.551,-4.807L1.551,-3.78L0,-3.78C-0.572,-3.78 -0.717,-3.354 -0.717,-2.52C-0.717,-1.687 -0.572,-1.26 0,-1.26L1.551,-1.26L1.551,-0.233C0.863,-0.049 0.514,0 0,0C-1.706,0 -2.345,-0.969 -2.345,-2.52C-2.345,-4.061 -1.706,-5.04 0,-5.04" style="fill:rgb(106,189,69);fill-rule:nonzero;"/>
            </g>
            <g transform="matrix(8.33333,0,0,8.33333,1414.9,8595.19)">
                <path d="M0,0.794L-0.62,0.794C-0.95,0.794 -1.163,0.92 -1.163,1.269C-1.163,1.647 -0.892,1.734 -0.63,1.734C-0.388,1.734 0,1.589 0,1.104L0,0.794ZM-2.413,-0.863L-2.413,-1.89C-1.725,-2.027 -1.018,-2.123 -0.417,-2.123C0.823,-2.123 1.55,-1.822 1.55,-0.485L1.55,2.82L0.146,2.82L0,2.296L-0.019,2.296C-0.368,2.78 -0.756,2.917 -1.318,2.917C-2.229,2.917 -2.713,2.209 -2.713,1.375C-2.713,0.116 -1.793,-0.136 -1.105,-0.136L0,-0.136L0,-0.418C0,-0.718 -0.116,-0.863 -0.601,-0.863L-2.413,-0.863Z" style="fill:rgb(106,189,69);fill-rule:nonzero;"/>
            </g>
            <g transform="matrix(8.33333,0,0,8.33333,1436.86,8579.28)">
                <path d="M0,3.352L0,1.055L-0.65,1.055L-0.65,0.124L0,-0.118L0.756,-1.474L1.55,-1.474L1.55,-0.118L2.646,-0.118L2.646,1.055L1.55,1.055L1.55,3.207C1.55,3.43 1.676,3.566 1.986,3.566L2.646,3.566L2.646,4.593C2.258,4.738 1.986,4.826 1.55,4.826C0.426,4.826 0,4.215 0,3.352" style="fill:rgb(106,189,69);fill-rule:nonzero;"/>
            </g>
            <g transform="matrix(8.33333,0,0,8.33333,0,5780.83)">
                <path d="M177.122,340.543L175.571,340.543L175.571,335.697L177.122,335.697L177.122,340.543ZM177.122,335.193L175.571,335.193L175.571,333.758L177.122,333.758L177.122,335.193Z" style="fill:rgb(106,189,69);fill-rule:nonzero;"/>
            </g>
            <g transform="matrix(8.33333,0,0,8.33333,1495.24,8598.49)">
                <path d="M0,0C0,0.833 0.145,1.269 0.717,1.269C1.298,1.269 1.444,0.833 1.444,0C1.444,-0.834 1.298,-1.269 0.717,-1.269C0.145,-1.269 0,-0.834 0,0M-1.628,0C-1.628,-1.541 -0.989,-2.52 0.717,-2.52C2.432,-2.52 3.072,-1.541 3.072,0C3.072,1.551 2.432,2.52 0.717,2.52C-0.989,2.52 -1.628,1.551 -1.628,0" style="fill:rgb(106,189,69);fill-rule:nonzero;"/>
            </g>
            <g transform="matrix(8.33333,0,0,8.33333,1526.48,8577.49)">
                <path d="M0,4.943L0,0.097L1.405,0.097L1.55,0.62L1.57,0.62C1.909,0.194 2.345,0 2.908,0C3.915,0 4.313,0.659 4.313,1.531L4.313,4.943L2.762,4.943L2.762,1.677C2.762,1.299 2.442,1.182 2.19,1.182C1.938,1.182 1.55,1.347 1.55,1.822L1.55,4.943L0,4.943Z" style="fill:rgb(106,189,69);fill-rule:nonzero;"/>
            </g>
            <g transform="matrix(8.33333,0,0,8.33333,488.924,8271.61)">
                <path d="M0,8.254C2.279,8.254 3.476,6.406 3.476,4.127C3.476,1.847 2.279,0 0,0C-2.279,0 -3.476,1.847 -3.476,4.127C-3.476,6.406 -2.279,8.254 0,8.254" style="fill:rgb(106,189,69);fill-rule:nonzero;"/>
            </g>
            <g transform="matrix(8.33333,0,0,8.33333,517.569,8406.73)">
                <path d="M0,1.11C-0.011,-4.414 7.165,-7.463 11.143,-3.636L12.348,-7.449C6.741,-11.143 -1.394,-8.298 -3.323,-1.831L-3.437,-1.831C-5.366,-8.298 -13.502,-11.143 -19.108,-7.449L-17.903,-3.636C-13.926,-7.463 -6.75,-4.414 -6.761,1.11L-6.761,12.253L0,12.253L0,1.11" style="fill:white;fill-rule:nonzero;"/>
            </g>
            <g transform="matrix(8.33333,0,0,8.33333,1181.79,8433.31)">
                <path d="M0,-1.292L0,-0.799L0.2,-0.799C0.38,-0.799 0.5,-0.839 0.5,-1.039C0.5,-1.212 0.407,-1.292 0.253,-1.292L0,-1.292ZM0.193,-0.313L0,-0.313L0,0.487L-0.566,0.487L-0.566,-1.778L0.32,-1.778C0.793,-1.778 1.086,-1.465 1.086,-1.039C1.086,-0.759 0.953,-0.533 0.72,-0.426L1.206,0.487L0.613,0.487L0.193,-0.313ZM0.247,1.199C1.239,1.199 2.038,0.387 2.038,-0.646C2.038,-1.678 1.239,-2.458 0.247,-2.458C-0.759,-2.458 -1.545,-1.678 -1.545,-0.646C-1.545,0.387 -0.759,1.199 0.247,1.199M0.247,-2.931C1.492,-2.931 2.505,-1.945 2.505,-0.646C2.505,0.653 1.492,1.639 0.247,1.639C-0.999,1.639 -2.011,0.653 -2.011,-0.646C-2.011,-1.945 -0.999,-2.931 0.247,-2.931" style="fill:white;fill-rule:nonzero;"/>
            </g>
        </g>
    </g>
</svg>
