<svg id="Group_3" data-name="Group 3" xmlns="http://www.w3.org/2000/svg" width="143" height="100" viewBox="0 0 143 100">
  <path id="Path" d="M8.407,0A71.624,71.624,0,0,1,28.642,50.006,71.624,71.624,0,0,1,8.419,100,80.862,80.862,0,0,0,0,92.13,60.3,60.3,0,0,0,17.2,49.855,60.315,60.315,0,0,0,.15,7.732,80.609,80.609,0,0,0,8.04.4Z" transform="translate(114.358 0)" fill="#52c0ff"/>
  <path id="Path-2" data-name="Path" d="M20.08,0a81.209,81.209,0,0,0,8.109,7.574,60.552,60.552,0,0,0,.152,84.4,80.771,80.771,0,0,0-8.272,7.706A71.906,71.906,0,0,1,19.413.7Z" transform="translate(0 0.161)" fill="#52c0ff"/>
  <path id="Path-3" data-name="Path" d="M14.931,0A68.023,68.023,0,0,0,26.92,4.776a34.047,34.047,0,0,0,.638,57.86,67.74,67.74,0,0,0-12.431,4.857,45.407,45.407,0,0,1-.4-67.314Z" transform="translate(26.192 16.197)" fill="#f5b403"/>
  <path id="Path-4" data-name="Path" d="M12.832,0A45.259,45.259,0,0,1,27.763,33.661,45.261,45.261,0,0,1,12.637,67.5,67.8,67.8,0,0,0,0,62.58,33.982,33.982,0,0,0,16.323,33.51,33.981,33.981,0,0,0,.636,4.836,67.67,67.67,0,0,0,12.6.119Z" transform="translate(88.744 16.194)" fill="#f5b403"/>
  <path id="Path-5" data-name="Path" d="M7.225,0a7.208,7.208,0,0,1,3.921,1.16l20.7,13.418a7.26,7.26,0,0,1,0,12.178l-20.7,13.418A7.23,7.23,0,0,1,0,34.086V7.249A7.237,7.237,0,0,1,7.225,0Z" transform="translate(57.2 29.037)" fill="#f22b61"/>
</svg>
