<?xml version="1.0" encoding="utf-8"?>
<!-- Generator: Adobe Illustrator 17.0.2, SVG Export Plug-In . SVG Version: 6.00 Build 0)  -->
<!DOCTYPE svg PUBLIC "-//W3C//DTD SVG 1.1//EN" "http://www.w3.org/Graphics/SVG/1.1/DTD/svg11.dtd">
<svg version="1.1" id="圖層_1" xmlns="http://www.w3.org/2000/svg" xmlns:xlink="http://www.w3.org/1999/xlink" x="0px" y="0px"
	 width="28px" height="28px" viewBox="0 0 28 28" enable-background="new 0 0 28 28" xml:space="preserve">
<g>
	<path fill="#0094D9" d="M27.939,22.984c0,2.701-2.189,4.891-4.891,4.891H4.955c-2.701,0-4.891-2.189-4.891-4.891V4.891
		C0.064,2.19,2.254,0,4.955,0h18.094c2.701,0,4.891,2.189,4.891,4.891V22.984z"/>
	<path fill-rule="evenodd" clip-rule="evenodd" fill="#FFFFFF" d="M19.163,11.475c0-1.325-0.215-2.751,0.43-3.433
		c0.666-0.705,2.182-0.506,3.432-0.506c0-1.326,0.012-2.665,0.037-4.056c-1.363,0-2.729,0-4.094,0
		c-1.637,0.215-2.812,0.62-3.51,1.754c-0.912,1.489-0.717,3.794-0.74,6.24c-0.982,0-1.963,0-2.945,0v4.177
		c0.916,0.079,1.976,0.009,2.945,0.034c0,4.056,0,8.111,0,12.165h4.562c0-4.054,0-8.11,0-12.165c1.106,0,2.209,0,3.314,0
		c0.215-1.331,0.311-2.783,0.467-4.172C21.88,11.422,20.411,11.5,19.163,11.475z"/>
</g>
</svg>
