<?xml version="1.0" encoding="utf-8"?>
<!-- Generator: Adobe Illustrator 17.0.2, SVG Export Plug-In . SVG Version: 6.00 Build 0)  -->
<!DOCTYPE svg PUBLIC "-//W3C//DTD SVG 1.1//EN" "http://www.w3.org/Graphics/SVG/1.1/DTD/svg11.dtd">
<svg version="1.1" id="圖層_1" xmlns="http://www.w3.org/2000/svg" xmlns:xlink="http://www.w3.org/1999/xlink" x="0px" y="0px"
	 width="28px" height="28px" viewBox="0 0 28 28" enable-background="new 0 0 28 28" xml:space="preserve">
<g>
	<path fill="#0094D9" d="M27.939,22.984c0,2.701-2.189,4.891-4.891,4.891H4.955c-2.701,0-4.891-2.189-4.891-4.891V4.891
		C0.064,2.19,2.254,0,4.955,0h18.094c2.701,0,4.891,2.189,4.891,4.891V22.984z"/>
	<path fill-rule="evenodd" clip-rule="evenodd" fill="#FFFFFF" d="M6.556,7.966c4.974,0,9.949,0,14.922,0
		c0.866,0.174,1.399,0.652,1.641,1.4c0,3.025,0,6.049,0,9.074c-0.153,0.625-0.556,1.219-1.306,1.457
		c-0.452,0.143-1.182,0.084-1.915,0.084c-3.31,0-6.591,0-9.938,0c-1.23,0-2.999,0.172-3.829-0.111
		c-0.71-0.242-1.079-0.793-1.246-1.43c0-2.969,0-5.938,0-8.906C5.067,8.666,5.636,8.154,6.556,7.966z M6.829,8.947
		c1.992,1.826,4.227,3.865,6.261,5.742c0.241,0.223,0.686,0.77,0.972,0.756c0.244-0.012,0.73-0.561,0.942-0.756
		c1.96-1.807,3.888-3.611,5.805-5.379c0.153-0.141,0.381-0.256,0.365-0.391C16.402,8.937,11.55,8.882,6.829,8.947z M17.285,13.849
		c-0.178,0.164-0.672,0.568-0.669,0.643c0.002,0.047,0.486,0.449,0.608,0.561c1.312,1.209,2.467,2.273,3.738,3.445
		c0.164,0.15,0.418,0.521,0.638,0.504c0.672-0.053,0.547-1.332,0.547-2.016c0-2.604,0-5.066,0-7.564
		c-0.001-0.016-0.005-0.031-0.03-0.025C20.598,10.834,18.887,12.371,17.285,13.849z M6.009,9.478
		C6.007,9.449,5.97,9.455,5.978,9.507c0,2.297,0,5.025,0,7.394c0,0.74-0.216,1.688,0.396,2.1c0.886-0.705,1.697-1.479,2.522-2.24
		c0.831-0.766,1.64-1.553,2.493-2.297C9.638,12.763,7.809,11.132,6.009,9.478z M15.005,15.949c-0.22,0.203-0.64,0.785-0.973,0.785
		c-0.286,0-0.735-0.539-0.973-0.758c-0.398-0.365-0.641-0.682-0.941-0.896c-1.358,1.211-2.783,2.566-4.103,3.783
		c-0.061,0.057-0.218,0.107-0.183,0.223c4.103,0,8.206,0,12.308,0c-0.252-0.377-0.653-0.658-1.002-0.98
		c-1.071-0.988-2.142-1.99-3.191-2.969C15.611,15.384,15.353,15.628,15.005,15.949z"/>
</g>
</svg>
