<?xml version="1.0" encoding="utf-8"?>
<!-- Generator: Adobe Illustrator 17.0.2, SVG Export Plug-In . SVG Version: 6.00 Build 0)  -->
<!DOCTYPE svg PUBLIC "-//W3C//DTD SVG 1.1//EN" "http://www.w3.org/Graphics/SVG/1.1/DTD/svg11.dtd">
<svg version="1.1" id="圖層_1" xmlns="http://www.w3.org/2000/svg" xmlns:xlink="http://www.w3.org/1999/xlink" x="0px" y="0px"
	 width="28px" height="28px" viewBox="0 0 28 28" enable-background="new 0 0 28 28" xml:space="preserve">
<g>
	<path fill="#0094D9" d="M27.939,22.984c0,2.701-2.189,4.891-4.891,4.891H4.955c-2.701,0-4.891-2.189-4.891-4.891V4.891
		C0.064,2.19,2.254,0,4.955,0h18.094c2.701,0,4.891,2.189,4.891,4.891V22.984z"/>
	<g>
		<path fill-rule="evenodd" clip-rule="evenodd" fill="#FFFFFF" d="M21.688,13.974c-0.281-1.981-1.424-3.296-3.471-3.434
			c-1.726-0.115-2.57,0.705-3.277,1.521c0-0.429,0-0.857,0-1.287c-1.119,0-2.238,0-3.357,0c0,3.343,0,6.686,0,10.028
			c1.119,0,2.238,0,3.357,0c0.172-1.606-0.229-4.457,0-6.087c0.086-0.627,0.615-1.177,1.053-1.366
			c1.326-0.575,2.305,0.39,2.418,1.601c0.174,1.857-0.131,3.993,0,5.853c1.119,0,2.238,0,3.355,0
			C21.645,18.434,21.966,15.927,21.688,13.974z M6.393,10.891c0,3.305,0,6.607,0,9.911c1.119,0,2.236,0,3.356,0
			c0-3.343,0-6.686,0-10.028c-1.106,0-2.211,0-3.316,0C6.388,10.781,6.39,10.835,6.393,10.891z"/>
		<path fill-rule="evenodd" clip-rule="evenodd" fill="#FFFFFF" d="M6.198,7.886c0-0.143,0-0.285,0-0.429
			c0.211-1.26,1.594-1.933,2.848-1.326c1.793,0.864,0.809,4.054-1.715,3.198C6.804,9.151,6.364,8.69,6.198,7.886z"/>
		<path fill-rule="evenodd" clip-rule="evenodd" fill="#FFFFFF" d="M21.767,20.802c-1.117,0-2.236,0-3.355,0
			c0-2.001,0-3.961,0-5.853c0-1.216-1.092-2.176-2.418-1.601c-0.438,0.189-1.053,0.732-1.053,1.366c0,2.057,0,4.398,0,6.087
			c-1.119,0-2.238,0-3.357,0c0-3.343,0-6.686,0-10.028c1.119,0,2.238,0,3.357,0c0,0.43,0,0.858,0,1.287
			c0.707-0.815,1.551-1.636,3.277-1.521c2.047,0.138,3.27,1.453,3.549,3.434C21.767,13.974,21.806,18.403,21.767,20.802z"/>
		<path fill-rule="evenodd" clip-rule="evenodd" fill="#FFFFFF" d="M6.433,10.773c1.105,0,2.211,0,3.316,0c0,3.343,0,6.686,0,10.028
			c-1.119,0-2.236,0-3.356,0c0-3.304,0-6.606,0-9.911C6.39,10.835,6.388,10.781,6.433,10.773z"/>
	</g>
</g>
</svg>
