<?xml version="1.0" encoding="utf-8"?>
<!-- Generator: Adobe Illustrator 17.0.2, SVG Export Plug-In . SVG Version: 6.00 Build 0)  -->
<!DOCTYPE svg PUBLIC "-//W3C//DTD SVG 1.1//EN" "http://www.w3.org/Graphics/SVG/1.1/DTD/svg11.dtd">
<svg version="1.1" id="圖層_1" xmlns="http://www.w3.org/2000/svg" xmlns:xlink="http://www.w3.org/1999/xlink" x="0px" y="0px"
	 width="29px" height="29px" viewBox="0 0 29 29" enable-background="new 0 0 29 29" xml:space="preserve">
<g>
	<circle fill="none" stroke="#1B92D0" stroke-width="1.6746" stroke-miterlimit="10" cx="14.523" cy="14.641" r="13.088"/>
	<line fill="none" stroke="#1B92D0" stroke-width="1.6746" stroke-miterlimit="10" x1="14.21" y1="1.555" x2="14.21" y2="27.877"/>
	<line fill="none" stroke="#1B92D0" stroke-width="1.6746" stroke-miterlimit="10" x1="1.435" y1="14.641" x2="27.61" y2="14.641"/>
	<path fill="none" stroke="#1B92D0" stroke-width="1.6746" stroke-miterlimit="10" d="M13.417,2.23c0,0-6.144,3.707-6.144,12.016
		c0,8.879,6.144,13.432,6.144,13.432"/>
	<path fill="none" stroke="#1B92D0" stroke-width="1.6746" stroke-miterlimit="10" d="M15.078,2.23c0,0,6.146,3.707,6.146,12.016
		c0,8.879-6.146,13.432-6.146,13.432"/>
	<path fill="none" stroke="#1B92D0" stroke-width="1.6746" stroke-miterlimit="10" d="M4.357,6.988c0,0,2.37,1.842,10.165,1.842
		c6.702,0,11.275-1.842,11.275-1.842"/>
	<path fill="none" stroke="#1B92D0" stroke-width="1.6746" stroke-miterlimit="10" d="M3.804,22.805c0,0,2.366-1.842,10.165-1.842
		c6.699,0,11.274,1.842,11.274,1.842"/>
</g>
</svg>
