<?xml version="1.0" encoding="utf-8"?>
<!-- Generator: Adobe Illustrator 17.0.2, SVG Export Plug-In . SVG Version: 6.00 Build 0)  -->
<!DOCTYPE svg PUBLIC "-//W3C//DTD SVG 1.1//EN" "http://www.w3.org/Graphics/SVG/1.1/DTD/svg11.dtd">
<svg version="1.1" id="圖層_1" xmlns="http://www.w3.org/2000/svg" xmlns:xlink="http://www.w3.org/1999/xlink" x="0px" y="0px"
	 width="32px" height="29px" viewBox="0 0 32 29" enable-background="new 0 0 32 29" xml:space="preserve">
<g>
	<g>
		<g>
			<path fill="none" stroke="#1B92D0" stroke-width="1.6746" stroke-miterlimit="10" d="M30.751,21.185
				c0,2.283-2.18,4.135-4.866,4.135H6.604c-2.683,0-4.862-1.852-4.862-4.135V8.751c0-2.281,2.18-4.133,4.862-4.133h19.281
				c2.686,0,4.866,1.852,4.866,4.133V21.185z"/>
			<path fill="none" stroke="#1B92D0" stroke-width="1.6746" stroke-miterlimit="10" d="M27.898,4.931
				c1.676,1.443,1.638,3.803-0.069,5.273l-8.968,7.705c-1.71,1.471-4.458,1.492-6.119,0.049L3.98,10.394
				C2.311,8.95,2.339,6.587,4.054,5.116"/>
			
				<line fill="none" stroke="#1B92D0" stroke-width="1.6746" stroke-miterlimit="10" x1="2.526" y1="23.513" x2="9.959" y2="16.079"/>
			
				<line fill="none" stroke="#1B92D0" stroke-width="1.6746" stroke-miterlimit="10" x1="22.01" y1="16.079" x2="29.44" y2="23.511"/>
		</g>
	</g>
</g>
</svg>
