<?xml version="1.0" encoding="utf-8"?>
<!-- Generator: Adobe Illustrator 17.0.2, SVG Export Plug-In . SVG Version: 6.00 Build 0)  -->
<!DOCTYPE svg PUBLIC "-//W3C//DTD SVG 1.1//EN" "http://www.w3.org/Graphics/SVG/1.1/DTD/svg11.dtd">
<svg version="1.1" id="圖層_1" xmlns="http://www.w3.org/2000/svg" xmlns:xlink="http://www.w3.org/1999/xlink" x="0px" y="0px"
	 width="28px" height="28px" viewBox="0 0 28 28" enable-background="new 0 0 28 28" xml:space="preserve">
<g>
	<path fill="#0094D9" d="M27.938,22.984c0,2.701-2.189,4.891-4.891,4.891H4.953c-2.701,0-4.891-2.189-4.891-4.891V4.891
		C0.063,2.19,2.252,0,4.953,0h18.094c2.701,0,4.891,2.19,4.891,4.891V22.984z"/>
	<g>
		<path fill-rule="evenodd" clip-rule="evenodd" fill="#FFFFFF" d="M16.179,6.643c0.182,0.222-0.613,0.677-0.794,1.012
			c-0.337,0-0.674,0-1.011,0c0.549,0.49,1.234,1.422,1.083,2.745c-0.187,1.638-2.093,2.089-2.095,3.107
			c-0.002,1.077,2.251,2.015,2.745,2.962c0.234,0.448,0.385,1.062,0.289,1.878c-0.421,3.542-6.89,3.694-8.741,1.589
			c-2.035-2.314,1.088-5.232,4.262-4.768c-0.192-0.273-0.686-1.195-0.289-1.878c-2.074-0.087-3.612-1.214-3.612-3.251
			C8.016,6.472,12.226,6.414,16.179,6.643z M13.073,12.35c1.787-1.166,0.062-5.297-2.023-4.912
			C8.099,7.982,10.36,14.121,13.073,12.35z M8.739,17.769c-0.496,3.699,6.867,3.554,6.141-0.146
			c-0.275-1.401-1.864-2.108-3.756-1.806C9.878,16.016,8.885,16.678,8.739,17.769z"/>
		<polygon fill-rule="evenodd" clip-rule="evenodd" fill="#FFFFFF" points="20.993,12.932 19.043,12.932 19.043,10.981 
			18.031,10.981 18.031,12.932 16.081,12.932 16.081,13.943 18.031,13.943 18.031,15.893 19.043,15.893 19.043,13.943 
			20.993,13.943 		"/>
	</g>
</g>
</svg>
