<?xml version="1.0" standalone="no"?>
<!DOCTYPE svg PUBLIC "-//W3C//DTD SVG 1.1//EN" "http://www.w3.org/Graphics/SVG/1.1/DTD/svg11.dtd" >
<svg xmlns="http://www.w3.org/2000/svg" xmlns:xlink="http://www.w3.org/1999/xlink" version="1.1">
<metadata>
Created by FontForge 20170731 at Thu Nov 22 16:57:42 2018
 By Aleksey,,,
Copyright (c) 2018 by Rene Bieder. All rights reserved.
</metadata>
<defs>
<font id="BayWaSans-Bold" horiz-adv-x="600" >
  <font-face 
    font-family="BayWa Sans Book"
    font-weight="700"
    font-stretch="normal"
    units-per-em="1000"
    panose-1="2 1 0 3 4 0 0 0 0 0"
    ascent="766"
    descent="-234"
    x-height="540"
    cap-height="700"
    bbox="-650 -300 1349 980"
    underline-thickness="50"
    underline-position="-150"
    unicode-range="U+0020-FB02"
  />
<missing-glyph horiz-adv-x="660" 
d="M580 700v-700h-500v700h500zM150 660l181 -274l180 274h-361zM122 630v-560l185 280zM355 350l184 -280v560zM511 40l-180 274l-181 -274h361z" />
    <glyph glyph-name="fi" unicode="fi" horiz-adv-x="614" 
d="M549 0h-143v430h-172v-430h-143v430h-81v110h81q4 102 69.5 156t175.5 54q72 0 123 -26l-29 -99q-40 29 -94 29q-52 0 -77 -26.5t-25 -81.5v-6h315v-540z" />
    <glyph glyph-name="f_f_i" unicode="ffi" horiz-adv-x="929" 
d="M864 0h-143v430h-172v-430h-143v430h-172v-431l-143 1v430h-81v110h81v21q0 96 56.5 143t155.5 47q27 0 54.5 -4.5t45.5 -11.5l-26 -99q-28 20 -60 20q-44 0 -63.5 -24t-19.5 -71v-21h172q4 102 69.5 156t175.5 54q72 0 123 -26l-29 -99q-40 29 -94 29q-52 0 -77 -26.5
t-25 -81.5v-6h315v-540z" />
    <glyph glyph-name="f_f_j" unicode="ffj" horiz-adv-x="929" 
d="M864 52q0 -108 -57.5 -165t-154.5 -57q-14 0 -21 1l-19 97q9 -4 26 -4q46 0 64.5 27t18.5 96v383h-172v-430h-143v430h-172v-431l-143 1v430h-81v110h81v21q0 96 56.5 143t155.5 47q27 0 54.5 -4.5t45.5 -11.5l-26 -99q-28 20 -60 20q-44 0 -63.5 -24t-19.5 -71v-21h172
q4 102 69.5 156t175.5 54q72 0 123 -26l-29 -99q-40 29 -94 29q-52 0 -77 -26.5t-25 -81.5v-6h315v-488z" />
    <glyph glyph-name="f_j" unicode="fj" horiz-adv-x="614" 
d="M549 52q0 -108 -57.5 -165t-154.5 -57q-14 0 -21 1l-19 97q9 -4 26 -4q46 0 64.5 27t18.5 96v383h-172v-430h-143v430h-81v110h81q4 102 69.5 156t175.5 54q72 0 123 -26l-29 -99q-40 29 -94 29q-52 0 -77 -26.5t-25 -81.5v-6h315v-488z" />
    <glyph glyph-name=".notdef" horiz-adv-x="660" 
d="M580 700v-700h-500v700h500zM150 660l181 -274l180 274h-361zM122 630v-560l185 280zM355 350l184 -280v560zM511 40l-180 274l-181 -274h361z" />
    <glyph glyph-name=".null" horiz-adv-x="0" 
 />
    <glyph glyph-name="nonmarkingreturn" horiz-adv-x="333" 
 />
    <glyph glyph-name="space" unicode=" " horiz-adv-x="215" 
 />
    <glyph glyph-name="exclam" unicode="!" horiz-adv-x="378" 
d="M111 700h158l-24 -441h-109zM132 15q-22 20 -22 56t22 56t59 20t58.5 -20t21.5 -56t-21.5 -56t-58.5 -20t-59 20z" />
    <glyph glyph-name="quotedbl" unicode="&#x22;" horiz-adv-x="406" 
d="M176 700l-20 -253h-86l-20 253h126zM356 700l-20 -253h-86l-20 253h126z" />
    <glyph glyph-name="numbersign" unicode="#" horiz-adv-x="769" 
d="M582 425l-33 -154h97v-96h-117l-38 -175h-106l38 175h-155l-38 -175h-106l38 175h-87v96h107l33 154h-92v95h112l39 180h106l-39 -180h155l39 180h106l-39 -180h92v-95h-112zM476 425h-155l-33 -154h155z" />
    <glyph glyph-name="dollar" unicode="$" 
d="M505.5 85q-61.5 -52 -166.5 -60l4 -115h-84l4 116q-93 8 -154 55.5t-84 129.5l125 31q13 -49 45.5 -78t77.5 -37v169q-70 15 -116 32.5t-78 55t-32 100.5q0 85 59 135t158 56l-5 125h84l-5 -127q82 -9 133.5 -49.5t70.5 -109.5l-111 -33q-24 80 -102 95v-164
q77 -16 123.5 -32.5t80.5 -53.5t34 -102q0 -87 -61.5 -139zM205 454q23 -17 68 -29v153q-42 -4 -66.5 -24.5t-24.5 -51.5t23 -48zM398.5 151q26.5 22 26.5 54q0 30 -24.5 47.5t-71.5 30.5v-158q43 4 69.5 26z" />
    <glyph glyph-name="percent" unicode="%" horiz-adv-x="973" 
d="M387 656q52 -54 52 -145q0 -92 -52 -145.5t-140 -53.5t-140 53.5t-52 145.5q0 91 52 145t140 54t140 -54zM449 365l195 335h96l-226 -359l-197 -341h-96zM311 420q22 31 22 91q0 59 -22 90t-64 31t-64.5 -31t-22.5 -90q0 -60 22.5 -91t64.5 -31t64 31zM866 335
q52 -54 52 -145q0 -92 -52 -145.5t-140 -53.5t-140 53.5t-52 145.5q0 91 52 145t140 54t140 -54zM790 99q22 31 22 91q0 59 -22 90t-64 31t-64.5 -31t-22.5 -90q0 -60 22.5 -91t64.5 -31t64 31z" />
    <glyph glyph-name="ampersand" unicode="&#x26;" horiz-adv-x="728" 
d="M594 4l-71 63q-46 -37 -104.5 -56.5t-126.5 -19.5q-75 0 -131 23.5t-87 67t-31 101.5q0 65 37 107t105 76q-49 45 -70.5 82.5t-21.5 82.5q0 52 27 92.5t76 63.5t114 23q66 0 117 -23.5t79 -65.5t28 -96q0 -63 -40.5 -102.5t-126.5 -81.5l135 -116q15 44 15 104
q0 24 -1 36h136q3 -125 -58 -220l164 -141h-164zM250 587.5q-23 -23.5 -23 -66.5q0 -30 13.5 -55t46.5 -56q117 52 117 124q0 33 -23.5 55t-65.5 22t-65 -23.5zM444 136l-177 157q-40 -22 -62.5 -47.5t-22.5 -58.5q0 -40 33.5 -67t97.5 -27q81 0 131 43z" />
    <glyph glyph-name="quotesingle" unicode="'" horiz-adv-x="226" 
d="M176 700l-20 -253h-86l-20 253h126z" />
    <glyph glyph-name="parenleft" unicode="(" horiz-adv-x="376" 
d="M110 87q-50 116 -50 246q0 129 50 244.5t139 202.5h111q-84 -89 -130.5 -204t-46.5 -243t46.5 -243.5t131.5 -204.5h-111q-90 86 -140 202z" />
    <glyph glyph-name="parenright" unicode=")" horiz-adv-x="376" 
d="M15 -115q85 89 131.5 204.5t46.5 243.5t-46.5 243t-130.5 204h111q89 -87 139 -202.5t50 -244.5q0 -130 -50 -246t-140 -202h-111z" />
    <glyph glyph-name="asterisk" unicode="*" horiz-adv-x="441" 
d="M273 539l94 -92l-85 -62l-62 126l-60 -126l-89 62l97 92l-122 10l26 104l118 -60l-22 132h105l-22 -131l117 59l27 -104z" />
    <glyph glyph-name="plus" unicode="+" 
d="M248 286h-195v94h195v202h106v-202h194v-94h-194v-198h-106v198z" />
    <glyph glyph-name="comma" unicode="," horiz-adv-x="275" 
d="M200.5 128.5q22.5 -26.5 22.5 -84.5q0 -59 -36.5 -112.5t-95.5 -82.5l-40 51q62 46 75 97q-34 3 -52.5 24t-18.5 57t23 56.5t57 20.5q43 0 65.5 -26.5z" />
    <glyph glyph-name="hyphen" unicode="-" horiz-adv-x="434" 
d="M70 245v106h294v-106h-294z" />
    <glyph glyph-name="period" unicode="." horiz-adv-x="275" 
d="M78 15.5q-23 20.5 -23 58.5t23 58.5t61 20.5t61 -20.5t23 -58.5t-23 -58.5t-61 -20.5t-61 20.5z" />
    <glyph glyph-name="slash" unicode="/" horiz-adv-x="671" 
d="M294 371l233 329h124l-259 -351l-248 -349h-124z" />
    <glyph glyph-name="zero" unicode="0" horiz-adv-x="640" 
d="M525.5 616q72.5 -94 72.5 -267q0 -172 -72 -265.5t-206 -93.5t-206 93.5t-72 265.5q0 173 72.5 267t205.5 94t205.5 -94zM216 534q-33 -56 -33 -184q0 -124 32 -182t105 -58q71 0 104 56t33 184q0 124 -32 182t-105 58q-71 0 -104 -56z" />
    <glyph glyph-name="one" unicode="1" horiz-adv-x="439" 
d="M341 700v-700h-143v562q-39 -61 -134 -103l-52 110q89 32 137 62t82 69h110z" />
    <glyph glyph-name="two" unicode="2" horiz-adv-x="580" 
d="M559 110v-110h-520v93l193 153q91 73 134 125t43 110q0 54 -33 81.5t-82 27.5q-52 0 -84 -30t-32 -85q0 -24 8 -58h-143q-5 33 -5 57q0 74 32.5 127.5t90.5 81t133 27.5q117 0 185 -60.5t68 -165.5q0 -77 -63.5 -155t-208.5 -183l-50 -36h334z" />
    <glyph glyph-name="three" unicode="3" 
d="M519.5 300.5q46.5 -43.5 46.5 -113.5q0 -59 -33 -103.5t-92 -69t-134 -24.5q-120 0 -196.5 58.5t-92.5 156.5l131 28q9 -69 50.5 -101t101.5 -32q55 0 89 28t34 74q0 47 -36 75t-105 28h-44l-1 100h55q54 0 87.5 26.5t33.5 72.5q0 45 -30.5 70.5t-82.5 25.5
q-50 0 -84 -28.5t-43 -86.5l-129 27q11 90 80 144t176 54q74 0 129 -23.5t85 -66t30 -99.5q0 -65 -40 -107.5t-115 -56.5q83 -13 129.5 -56.5z" />
    <glyph glyph-name="four" unicode="4" 
d="M583 164h-88v-164h-136l1 164h-352v84l312 452h175v-433h88v-103zM149 267h212v320z" />
    <glyph glyph-name="five" unicode="5" 
d="M470 434q50 -29 77.5 -81t27.5 -120q0 -73 -34 -128t-96 -85t-143 -30q-105 0 -178 50t-96 141l142 35q14 -51 48.5 -78.5t86.5 -27.5q56 0 89.5 31.5t33.5 90.5q0 54 -31 85.5t-83 31.5q-44 0 -73.5 -20.5t-52.5 -54.5l-139 28q52 182 55 398l2 -1v1h443v-110h-323
q-4 -88 -25 -196q24 30 63 49.5t91 19.5q65 0 115 -29z" />
    <glyph glyph-name="six" unicode="6" horiz-adv-x="627" 
d="M489 420q50 -26 78 -75.5t28 -116.5q0 -71 -32 -125t-91.5 -83.5t-141.5 -29.5q-144 0 -216 91.5t-72 255.5q0 117 36.5 201t103 128t156.5 44q74 0 146.5 -34t108.5 -125l-151 -42q-12 43 -39.5 62t-63.5 19q-73 0 -109.5 -65.5t-40.5 -168.5q31 42 78 66t109 24
q63 0 113 -26zM422 139.5q31 34.5 31 85.5q0 55 -34 84.5t-83 29.5q-41 0 -82 -20t-63 -54q10 -82 45 -121t95 -39t91 34.5z" />
    <glyph glyph-name="seven" unicode="7" horiz-adv-x="532" 
d="M537 700v-110q-99 -99 -149 -183.5t-68 -177t-18 -229.5h-163q0 162 61 312t220 278h-400v110h517z" />
    <glyph glyph-name="eight" unicode="8" horiz-adv-x="610" 
d="M542 300.5q45 -47.5 45 -114.5q0 -91 -76.5 -143.5t-205.5 -52.5t-205.5 52.5t-76.5 143.5q0 66 44 114t137 67q-81 18 -120 60t-39 100q0 56 32.5 97.5t91.5 63.5t136 22q78 0 137 -22t91 -63t32 -96q0 -59 -39.5 -101t-125.5 -61q97 -19 142 -66.5zM220.5 576.5
q-31.5 -22.5 -31.5 -63.5t30.5 -65.5t85.5 -24.5q53 0 85 24t32 66q0 40 -31 63t-86 23q-53 0 -84.5 -22.5zM402 128.5q36 25.5 36 72.5q0 44 -35 71t-98 27q-62 0 -98.5 -26t-36.5 -72q0 -45 35.5 -71.5t99.5 -26.5q61 0 97 25.5z" />
    <glyph glyph-name="nine" unicode="9" horiz-adv-x="627" 
d="M513 619.5q72 -91.5 72 -255.5q0 -117 -36.5 -201t-103 -128t-156.5 -44q-74 0 -146.5 34t-108.5 125l151 42q12 -43 39.5 -62t63.5 -19q73 0 109.5 65.5t40.5 168.5q-31 -42 -78 -66t-109 -24q-63 0 -113 26t-78 75.5t-28 116.5q0 71 32 125t91.5 83.5t141.5 29.5
q144 0 216 -91.5zM373 382q41 20 63 54q-10 82 -45 121t-95 39t-91 -34.5t-31 -85.5q0 -55 34 -84.5t83 -29.5q41 0 82 20z" />
    <glyph glyph-name="colon" unicode=":" horiz-adv-x="275" 
d="M78 15.5q-23 20.5 -23 58.5t23 58.5t61 20.5t61 -20.5t23 -58.5t-23 -58.5t-61 -20.5t-61 20.5zM78 405.5q-23 20.5 -23 58.5t23 58.5t61 20.5t61 -20.5t23 -58.5t-23 -58.5t-61 -20.5t-61 20.5z" />
    <glyph glyph-name="semicolon" unicode=";" horiz-adv-x="275" 
d="M78 405.5q-23 20.5 -23 58.5t23 58.5t61 20.5t61 -20.5t23 -58.5t-23 -58.5t-61 -20.5t-61 20.5zM200.5 128.5q22.5 -26.5 22.5 -84.5q0 -59 -36.5 -112.5t-95.5 -82.5l-40 51q62 46 75 97q-34 3 -52.5 24t-18.5 57t23 56.5t57 20.5q43 0 65.5 -26.5z" />
    <glyph glyph-name="less" unicode="&#x3c;" 
d="M478 445l-294 -114l294 -114v-112l-396 179v93l396 179v-111z" />
    <glyph glyph-name="equal" unicode="=" 
d="M53 480h495v-94h-495v94zM53 280h495v-94h-495v94z" />
    <glyph glyph-name="greater" unicode="&#x3e;" 
d="M518 377v-93l-396 -179v112l294 114l-294 114v111z" />
    <glyph glyph-name="question" unicode="?" horiz-adv-x="550" 
d="M450 662q60 -48 60 -136q0 -40 -14 -68.5t-33.5 -46t-52.5 -40.5q-41 -27 -61 -50t-20 -61v-6h-136v6q0 36 13.5 62.5t33.5 44t52 38.5q42 28 62 50.5t20 57.5q0 39 -26 62.5t-69 23.5q-42 0 -72.5 -22t-30.5 -69q0 -22 9 -52h-135q-5 30 -5 50q0 98 61 151t174 53
q110 0 170 -48zM203 15q-22 20 -22 56t22 56t59 20t58.5 -20t21.5 -56t-21.5 -56t-58.5 -20t-59 20z" />
    <glyph glyph-name="at" unicode="@" horiz-adv-x="803" 
d="M573 458v-240q0 -65 45 -65q36 0 59 41.5t23 114.5q0 88 -36 155t-102.5 104t-155.5 37q-91 0 -157.5 -38.5t-103 -111.5t-36.5 -176q0 -154 81.5 -237t229.5 -83q68 0 113.5 17.5t93.5 55.5l30 -55q-95 -75 -236 -75q-113 0 -197 45.5t-129 131t-45 200.5
q0 112 42.5 198.5t123 134t189.5 47.5q102 0 181 -41.5t123.5 -120t44.5 -187.5q0 -112 -46.5 -171t-124.5 -59q-89 0 -106 74q-20 -36 -49 -55.5t-72 -19.5q-71 0 -108.5 52.5t-37.5 141.5q0 90 37.5 142t109.5 52q40 0 69.5 -17t47.5 -45v53h99zM474 204v137
q-20 27 -38.5 40t-43.5 13q-82 0 -82 -115q0 -65 23 -93.5t60 -28.5q50 0 81 47z" />
    <glyph glyph-name="A" unicode="A" horiz-adv-x="700" 
d="M507 125h-314l-41 -125h-147l247 700h196l247 -700h-147zM470 237l-120 369l-121 -369h241z" />
    <glyph glyph-name="B" unicode="B" horiz-adv-x="698" 
d="M621.5 302.5q38.5 -41.5 38.5 -108.5q0 -96 -64 -145t-186 -49h-335v700h336q110 0 166 -47t56 -129q0 -57 -33 -99t-114 -63q97 -18 135.5 -59.5zM216 586v-174h156q54 0 85 23.5t31 65.5q0 40 -27 62.5t-77 22.5h-168zM486.5 140q28.5 25 28.5 70q0 92 -128 92h-171
v-187h183q59 0 87.5 25z" />
    <glyph glyph-name="C" unicode="C" horiz-adv-x="732" 
d="M509 154.5q52 40.5 67 126.5l135 -30q-25 -123 -112 -192t-217 -69q-105 0 -185 45.5t-123 127t-43 186.5q0 106 43 188t123 127.5t185 45.5q132 0 218.5 -70.5t110.5 -190.5l-135 -30q-15 86 -67 126.5t-124 40.5q-96 0 -149.5 -65t-53.5 -171t53.5 -171t149.5 -65
q72 0 124 40.5z" />
    <glyph glyph-name="D" unicode="D" horiz-adv-x="753" 
d="M552 657.5q83 -42.5 126.5 -120.5t43.5 -183t-43 -185t-125 -124.5t-197 -44.5h-282v700h279q115 0 198 -42.5zM516.5 181.5q54.5 60.5 54.5 172.5q0 109 -55.5 167t-163.5 58h-130v-458h133q107 0 161.5 60.5z" />
    <glyph glyph-name="E" unicode="E" horiz-adv-x="666" 
d="M222 579v-162h354v-121h-354v-175h384v-121h-531v700h531v-121h-384z" />
    <glyph glyph-name="F" unicode="F" horiz-adv-x="614" 
d="M222 579v-175h324v-121h-324v-283h-147v700h511v-121h-364z" />
    <glyph glyph-name="G" unicode="G" horiz-adv-x="768" 
d="M717 361v-361h-104l-18 115q-30 -65 -88 -95t-138 -30q-100 0 -176.5 44.5t-119 125.5t-42.5 189q0 107 42.5 188.5t123 127t191.5 45.5q123 0 204 -56t114 -161l-129 -38q-18 66 -68 98.5t-118 32.5q-98 0 -153.5 -63.5t-55.5 -169.5q0 -110 54.5 -175t152.5 -65
q73 0 122 36.5t55 103.5h-172v108h323z" />
    <glyph glyph-name="H" unicode="H" horiz-adv-x="752" 
d="M677 700v-700h-147v299h-308v-299h-147v700h147v-280h308v280h147z" />
    <glyph glyph-name="I" unicode="I" horiz-adv-x="317" 
d="M85 700h147v-700h-147v700z" />
    <glyph glyph-name="J" unicode="J" horiz-adv-x="409" 
d="M339 700v-470q0 -118 -62.5 -179t-187.5 -61q-41 0 -74 10v126q32 -22 75 -22q56 0 79 33t23 96v467h147z" />
    <glyph glyph-name="K" unicode="K" horiz-adv-x="731" 
d="M447 396l272 -396h-186l-182 291l-129 -141v-150h-147v700h147v-404l312 404h190z" />
    <glyph glyph-name="L" unicode="L" horiz-adv-x="596" 
d="M576 121v-121h-501v700h147v-579h354z" />
    <glyph glyph-name="M" unicode="M" horiz-adv-x="932" 
d="M857 700v-700h-133v599l-175 -599h-166l-175 599v-599h-133v700h221l170 -534l170 534h221z" />
    <glyph glyph-name="N" unicode="N" horiz-adv-x="799" 
d="M724 700v-700h-208l-302 561v-561h-139v700h208l302 -560v560h139z" />
    <glyph glyph-name="O" unicode="O" horiz-adv-x="774" 
d="M573.5 665q80.5 -45 125 -127t44.5 -189q0 -106 -44.5 -187.5t-125 -126.5t-186.5 -45t-186.5 45t-125 126.5t-44.5 187.5q0 107 44.5 189t125 127t186.5 45t186.5 -45zM493.5 142q46.5 28 72.5 81t26 127t-26 127t-72.5 81t-106.5 28t-106.5 -28t-72.5 -81t-26 -127
t26 -127t72.5 -81t106.5 -28t106.5 28z" />
    <glyph glyph-name="P" unicode="P" horiz-adv-x="674" 
d="M585 642.5q67 -57.5 67 -161.5q0 -102 -71 -157.5t-195 -55.5h-164v-268h-147v700h319q124 0 191 -57.5zM467 403q38 25 38 78q0 54 -37 78.5t-112 24.5h-134v-206h133q74 0 112 25z" />
    <glyph glyph-name="Q" unicode="Q" horiz-adv-x="774" 
d="M713 191q-30 -71 -86 -119l108 -112l-110 -98l-104 150q-59 -22 -134 -22q-106 0 -186.5 45t-125 126.5t-44.5 187.5q0 107 44.5 189t125 127t186.5 45t186.5 -45t125 -127t44.5 -189q0 -87 -30 -158zM208 223q26 -53 72.5 -81t106.5 -28t106.5 28t72.5 81t26 127
t-26 127t-72.5 81t-106.5 28t-106.5 -28t-72.5 -81t-26 -127t26 -127z" />
    <glyph glyph-name="R" unicode="R" horiz-adv-x="703" 
d="M505 0l-137 268h-146v-268h-147v700h319q124 0 191 -57.5t67 -161.5q0 -77 -41.5 -128t-116.5 -72l179 -281h-168zM222 378h133q74 0 112 25t38 78q0 54 -37 78.5t-112 24.5h-134v-206z" />
    <glyph glyph-name="S" unicode="S" horiz-adv-x="638" 
d="M127.5 43q-79.5 53 -107.5 153l138 35q17 -65 63.5 -97.5t110.5 -32.5q58 0 94 25t36 64q0 30 -21 48t-53.5 28.5t-89.5 22.5q-80 18 -130.5 37t-87 60t-36.5 112q0 100 73.5 156t195.5 56q113 0 183.5 -45.5t94.5 -133.5l-123 -36q-32 108 -155 108q-54 0 -87 -23.5
t-33 -61.5q0 -31 22 -49.5t54.5 -28.5t92.5 -23q81 -17 132 -35.5t87.5 -59t36.5 -111.5q0 -69 -36 -119t-101.5 -76t-151.5 -26q-122 0 -201.5 53z" />
    <glyph glyph-name="T" unicode="T" horiz-adv-x="661" 
d="M631 579h-227v-579h-147v579h-227v121h601v-121z" />
    <glyph glyph-name="U" unicode="U" horiz-adv-x="750" 
d="M680 700v-428q0 -150 -79 -216t-226 -66t-226 66t-79 216v428h147v-418q0 -81 41.5 -124.5t116.5 -43.5t116.5 43.5t41.5 124.5v418h147z" />
    <glyph glyph-name="V" unicode="V" horiz-adv-x="666" 
d="M661 700l-230 -700h-196l-230 700h175l153 -569l153 569h175z" />
    <glyph glyph-name="W" unicode="W" horiz-adv-x="991" 
d="M986 700l-167 -700h-192l-131 517l-132 -517h-192l-167 700h154l116 -579l125 579h191l125 -579l116 579h154z" />
    <glyph glyph-name="X" unicode="X" horiz-adv-x="668" 
d="M476 0l-141 269l-142 -269h-183l224 361l-219 339h183l137 -258l136 258h182l-219 -339l224 -361h-182z" />
    <glyph glyph-name="Y" unicode="Y" horiz-adv-x="634" 
d="M629 700l-238 -436v-264h-148v264l-238 436h174l138 -336l137 336h175z" />
    <glyph glyph-name="Z" unicode="Z" horiz-adv-x="649" 
d="M611 111v-111h-576v96l396 493h-390v111h558v-103l-391 -486h403z" />
    <glyph glyph-name="bracketleft" unicode="[" horiz-adv-x="343" 
d="M194 685v-705h129v-95h-248v895h248v-95h-129z" />
    <glyph glyph-name="backslash" unicode="\" horiz-adv-x="671" 
d="M527 0l-248 349l-259 351h124l233 -329l274 -371h-124z" />
    <glyph glyph-name="bracketright" unicode="]" horiz-adv-x="343" 
d="M268 -115h-248v95h129v705h-129v95h248v-895z" />
    <glyph glyph-name="asciicircum" unicode="^" horiz-adv-x="474" 
d="M338 391l-102 215l-102 -215h-114l167 309h100l167 -309h-116z" />
    <glyph glyph-name="underscore" unicode="_" horiz-adv-x="498" 
d="M498 -57v-89h-498v89h498z" />
    <glyph glyph-name="a" unicode="a" horiz-adv-x="575" 
d="M455 503q60 -47 60 -133v-234v-136h-143v66q-33 -38 -79 -57t-99 -19q-75 0 -117 35.5t-42 101.5q0 64 30 105t103 68t204 42v17q0 41 -24.5 63.5t-69.5 22.5q-89 0 -117 -87l-115 40q24 78 86 115t152 37q111 0 171 -47zM372 151v97q-75 -8 -117 -20.5t-59 -31
t-17 -45.5q0 -25 17 -39.5t48 -14.5q67 0 128 54z" />
    <glyph glyph-name="b" unicode="b" horiz-adv-x="630" 
d="M530.5 476q59.5 -74 59.5 -206t-59.5 -206t-162.5 -74q-47 0 -88.5 20t-71.5 56v-66h-143v700h143v-225q30 36 71.5 55.5t88.5 19.5q103 0 162.5 -74zM414.5 148.5q34.5 43.5 34.5 121.5t-34.5 121.5t-92.5 43.5q-37 0 -66 -17.5t-48 -47.5v-202q19 -29 48 -46t66 -17
q58 0 92.5 43.5z" />
    <glyph glyph-name="c" unicode="c" horiz-adv-x="579" 
d="M418 210l136 -30q-17 -85 -81.5 -137.5t-166.5 -52.5q-81 0 -141 34.5t-92.5 98t-32.5 147.5t32.5 147.5t92.5 98t141 34.5q102 0 166.5 -52.5t81.5 -137.5l-136 -30q-19 105 -112 105q-60 0 -92.5 -43t-32.5 -122t32.5 -122t92.5 -43q93 0 112 105z" />
    <glyph glyph-name="d" unicode="d" horiz-adv-x="631" 
d="M566 700v-700h-143v67q-30 -37 -72 -57t-89 -20q-103 0 -162.5 74t-59.5 206t59.5 206t162.5 74q48 0 89.5 -20t71.5 -56v226h143zM423 170v198q-19 31 -48 49t-67 18q-58 0 -92.5 -43.5t-34.5 -121.5t34.5 -121.5t92.5 -43.5q75 0 115 65z" />
    <glyph glyph-name="e" unicode="e" horiz-adv-x="584" 
d="M381.5 115q34.5 20 48.5 73l114 -30q-26 -90 -89.5 -129t-149.5 -39q-126 0 -195.5 74.5t-69.5 203.5q0 90 34 153.5t94 96t137 32.5q110 0 174.5 -67t64.5 -204q0 -26 -1 -40h-364q6 -74 40 -109t89 -35q39 0 73.5 20zM181 323h222q-1 63 -27.5 94.5t-76.5 31.5
q-101 0 -118 -126z" />
    <glyph glyph-name="f" unicode="f" horiz-adv-x="354" 
d="M253.5 632q-19.5 -24 -19.5 -71v-21h116v-110h-116v-431l-143 1v430h-81v110h81v21q0 96 56.5 143t155.5 47q27 0 54.5 -4.5t45.5 -11.5l-26 -99q-28 20 -60 20q-44 0 -63.5 -24z" />
    <glyph glyph-name="g" unicode="g" horiz-adv-x="619" 
d="M554 540v-501q0 -62 -33 -109.5t-93 -73.5t-137 -26q-194 0 -244 145l113 39q12 -45 46.5 -68t84.5 -23q57 0 88.5 30t31.5 86v82q-30 -39 -71.5 -60t-90.5 -21q-61 0 -108.5 31.5t-74 89.5t-26.5 133q0 76 26.5 134t74.5 90t109 32q49 0 90 -21t71 -60v71h143z
M359.5 172q30.5 17 51.5 50v143q-21 36 -52.5 53t-65.5 17q-52 0 -82 -38t-30 -104q0 -67 30.5 -102.5t82.5 -35.5q35 0 65.5 17z" />
    <glyph glyph-name="h" unicode="h" horiz-adv-x="614" 
d="M506 497q48 -53 48 -150v-347h-143v336q0 49 -24 74t-63 25q-38 0 -70 -22.5t-46 -65.5v-347h-143v700h143v-246q27 49 70 72.5t97 23.5q83 0 131 -53z" />
    <glyph glyph-name="i" unicode="i" horiz-adv-x="273" 
d="M65 540h143v-540h-143v540zM77 643.5q-23 20.5 -23 58.5t23 58.5t61 20.5t61 -20.5t23 -58.5t-23 -58.5t-61 -20.5t-61 20.5z" />
    <glyph glyph-name="j" unicode="j" horiz-adv-x="270" 
d="M205 540v-488q0 -108 -57.5 -165t-154.5 -57q-14 0 -21 1l-19 97q9 -4 26 -4q46 0 64.5 27t18.5 96v493h143zM72 643.5q-23 20.5 -23 58.5t23 58.5t61 20.5t61 -20.5t23 -58.5t-23 -58.5t-61 -20.5t-61 20.5z" />
    <glyph glyph-name="k" unicode="k" horiz-adv-x="610" 
d="M291 239l-83 -80v-159h-143v700h143v-402l224 242h172l-229 -220l233 -320h-161z" />
    <glyph glyph-name="l" unicode="l" horiz-adv-x="317" 
d="M102 25q-37 34 -37 92v583h143v-580q0 -34 31 -34q21 0 42 15l17 -93q-37 -17 -87 -17q-72 0 -109 34z" />
    <glyph glyph-name="m" unicode="m" horiz-adv-x="960" 
d="M852.5 497q47.5 -53 47.5 -150v-347h-143v336q0 49 -24 74t-63 25q-38 0 -70 -22.5t-46 -65.5v-347h-143v336q0 49 -24 74t-63 25q-38 0 -70 -22.5t-46 -65.5v-347h-143v540h138v-96q26 54 71 80t101 26q60 0 102.5 -28t61.5 -81q28 55 76.5 82t106.5 27q83 0 130.5 -53z
" />
    <glyph glyph-name="n" unicode="n" horiz-adv-x="614" 
d="M506 497q48 -53 48 -150v-347h-143v336q0 49 -24 74t-63 25q-38 0 -70 -22.5t-46 -65.5v-347h-143v540h138v-96q26 54 71 80t101 26q83 0 131 -53z" />
    <glyph glyph-name="o" unicode="o" horiz-adv-x="612" 
d="M447 515.5q60 -34.5 92.5 -98t32.5 -147.5t-32.5 -147.5t-92.5 -98t-141 -34.5t-141 34.5t-92.5 98t-32.5 147.5t32.5 147.5t92.5 98t141 34.5t141 -34.5zM398.5 148q32.5 43 32.5 122t-32.5 122t-92.5 43t-92.5 -43t-32.5 -122t32.5 -122t92.5 -43t92.5 43z" />
    <glyph glyph-name="p" unicode="p" horiz-adv-x="631" 
d="M531.5 476q59.5 -74 59.5 -206t-59.5 -206t-162.5 -74q-48 0 -89.5 20t-71.5 56v-226h-143v700h143v-67q30 37 72 57t89 20q103 0 162.5 -74zM415.5 148.5q34.5 43.5 34.5 121.5t-34.5 121.5t-92.5 43.5q-75 0 -115 -65v-198q19 -31 48 -49t67 -18q58 0 92.5 43.5z" />
    <glyph glyph-name="q" unicode="q" horiz-adv-x="631" 
d="M566 540v-700h-143v226q-30 -36 -71.5 -56t-89.5 -20q-103 0 -162.5 74t-59.5 206t59.5 206t162.5 74q47 0 89 -20t72 -57v67h143zM375 123q29 18 48 49v198q-40 65 -115 65q-58 0 -92.5 -43.5t-34.5 -121.5t34.5 -121.5t92.5 -43.5q38 0 67 18z" />
    <glyph glyph-name="r" unicode="r" horiz-adv-x="429" 
d="M290 513.5q52 33.5 124 33.5v-149q-38 8 -65 8q-95 0 -141 -80v-326h-143v540h143v-123q30 63 82 96.5z" />
    <glyph glyph-name="s" unicode="s" horiz-adv-x="545" 
d="M114.5 31q-67.5 41 -84.5 118l135 30q22 -93 126 -93q39 0 62 17.5t23 45.5q0 33 -31.5 46.5t-97.5 25.5q-65 12 -105.5 25.5t-70 46t-29.5 90.5q0 48 28 86t78.5 59t115.5 21q88 0 149.5 -34.5t83.5 -104.5l-118 -28q-14 40 -44.5 56t-68.5 16q-39 0 -59.5 -16.5
t-20.5 -42.5q0 -30 28.5 -42t91.5 -23q65 -11 106 -24.5t70.5 -47.5t29.5 -96q0 -50 -28.5 -89t-79.5 -61t-116 -22q-106 0 -173.5 41z" />
    <glyph glyph-name="t" unicode="t" horiz-adv-x="392" 
d="M374 6q-16 -7 -41 -11.5t-44 -4.5q-103 0 -151 43.5t-48 148.5v248h-80v110h80v160h143v-160h120v-110h-120v-243q0 -56 17 -75.5t55 -19.5q25 0 44 16z" />
    <glyph glyph-name="u" unicode="u" horiz-adv-x="614" 
d="M549 540v-540h-138v96q-26 -54 -71 -80t-101 -26q-83 0 -131 53t-48 150v347h143v-336q0 -49 24 -74t63 -25q38 0 70 22.5t46 65.5v347h143z" />
    <glyph glyph-name="v" unicode="v" horiz-adv-x="532" 
d="M527 540l-186 -540h-151l-185 540h149l113 -398l111 398h149z" />
    <glyph glyph-name="w" unicode="w" horiz-adv-x="820" 
d="M810 540l-150 -540h-153l-96 387l-96 -387h-155l-150 540h144l82 -405l94 405h162l94 -402l81 402h143z" />
    <glyph glyph-name="x" unicode="x" horiz-adv-x="534" 
d="M187 280l-179 260h162l97 -173l97 173h162l-179 -260l182 -280h-162l-100 189l-100 -189h-162z" />
    <glyph glyph-name="y" unicode="y" horiz-adv-x="537" 
d="M532 540l-177 -488q-41 -112 -105 -167t-157 -55q-15 0 -22 1l-24 107q17 -4 49 -4q38 0 60 15t49 60l-200 531h159l108 -386l113 386h147z" />
    <glyph glyph-name="z" unicode="z" horiz-adv-x="506" 
d="M472 110v-110h-440v87l273 343h-273v110h432v-96l-254 -334h262z" />
    <glyph glyph-name="braceleft" unicode="{" horiz-adv-x="364" 
d="M235 420.5q-10 -38.5 -39.5 -60t-85.5 -28.5q57 -6 86 -28t39 -61t10 -106v-85q0 -72 71 -72h18v-95h-50q-76 0 -117 45t-41 128v119q0 98 -84 98h-12v115h12q84 0 84 95v122q0 83 41 128t117 45h50v-95h-18q-71 0 -71 -72v-88q0 -66 -10 -104.5z" />
    <glyph glyph-name="bar" unicode="|" horiz-adv-x="309" 
d="M209 780v-895h-109v895h109z" />
    <glyph glyph-name="braceright" unicode="}" horiz-adv-x="364" 
d="M334 390v-115h-12q-84 0 -84 -98v-119q0 -83 -41 -128t-117 -45h-50v95h18q71 0 71 72v85q0 67 10 106t39 61t86 28q-56 7 -85.5 28.5t-39.5 60t-10 104.5v88q0 72 -71 72h-18v95h50q76 0 117 -45t41 -128v-122q0 -95 84 -95h12z" />
    <glyph glyph-name="asciitilde" unicode="~" 
d="M69 277q8 57 36.5 91.5t84.5 34.5q25 0 47.5 -6.5t55.5 -18.5q30 -11 48 -16.5t37 -5.5q28 0 44 13.5t18 33.5l75 -18q-6 -57 -34.5 -91.5t-83.5 -34.5q-25 0 -49 6.5t-56 19.5q-32 12 -49.5 17t-35.5 5q-28 0 -43.5 -13.5t-19.5 -34.5z" />
    <glyph glyph-name="exclamdown" unicode="&#xa1;" horiz-adv-x="378" 
d="M249.5 595q21.5 -20 21.5 -56t-21.5 -56t-58.5 -20t-59 20t-22 56t22 56t59 20t58.5 -20zM245 351l24 -441h-158l25 441h109z" />
    <glyph glyph-name="cent" unicode="&#xa2;" 
d="M421 245l136 -30q-16 -78 -71.5 -129t-143.5 -59l4 -117h-84l4 118q-104 14 -163.5 87.5t-59.5 189.5t60 190t164 87l-5 118h84l-5 -116q89 -9 144.5 -60t71.5 -129l-136 -30q-16 89 -87 103v-326q71 14 87 103zM208 196.5q24 -41.5 68 -52.5v322q-44 -11 -68 -52.5
t-24 -108.5t24 -108.5z" />
    <glyph glyph-name="sterling" unicode="&#xa3;" 
d="M558 110v-110h-519v95q77 52 104.5 88.5t27.5 73.5v3h-127v93h88q-5 7 -25 33t-31 55.5t-11 63.5q0 58 31.5 105t87 73.5t126.5 26.5q73 0 132 -26.5t101 -73.5l-100 -88q-24 30 -57.5 49.5t-70.5 19.5q-35 0 -59.5 -15t-37 -37.5t-12.5 -46.5q0 -28 12 -52.5t37 -58.5
q3 -5 8 -12t11 -16h208v-93h-179q-3 -42 -33 -80t-80 -70h368z" />
    <glyph glyph-name="yen" unicode="&#xa5;" 
d="M409 329h138v-71h-173v-53h173v-71h-173v-134h-148v134h-175v71h175v53h-175v71h140l-203 371h174l138 -336l137 336h175z" />
    <glyph glyph-name="brokenbar" unicode="&#xa6;" horiz-adv-x="309" 
d="M209 780v-341h-109v341h109zM209 226v-341h-109v341h109z" />
    <glyph glyph-name="section" unicode="&#xa7;" horiz-adv-x="585" 
d="M508.5 236q-28.5 -33 -86.5 -48q78 -50 78 -127q0 -46 -25.5 -81.5t-71 -55t-103.5 -19.5q-85 0 -140 35.5t-73 107.5l96 21q12 -47 41.5 -64.5t75.5 -17.5q36 0 57.5 16t21.5 41q0 28 -31 45t-96 37q-64 21 -104.5 39t-69.5 51t-29 83q0 47 28.5 80t86.5 48
q-78 50 -78 127q0 46 25.5 81.5t71 55t103.5 19.5q84 0 139 -35t73 -106l-96 -21q-13 47 -42 65t-73 18q-38 0 -59 -15.5t-21 -44.5q0 -28 31 -45t96 -37q64 -21 104.5 -39t69.5 -51t29 -83q0 -47 -28.5 -80zM205 284q30 -18 95 -42q20 -7 60 -23q51 19 51 66q0 28 -30 46
t-95 42q-20 7 -60 23q-51 -19 -51 -66q0 -28 30 -46z" />
    <glyph glyph-name="copyright" unicode="&#xa9;" horiz-adv-x="798" 
d="M214 40.5q-82 46.5 -128 128.5t-46 183t46.5 183t128.5 128.5t185 46.5q102 0 184 -46.5t128 -127.5t46 -182q0 -102 -46.5 -184t-128.5 -129t-185 -47q-102 0 -184 46.5zM553.5 85q69.5 41 109 111.5t39.5 157.5q0 85 -39.5 155t-108.5 110.5t-154 40.5
q-86 0 -155 -40.5t-108.5 -111t-39.5 -156.5t39 -156.5t108 -111t154 -40.5q86 0 155.5 41zM268 208q-51 53 -51 141q0 89 51 142.5t138 53.5q62 0 111 -32t65 -111l-76 -17q-8 47 -33 69t-67 22q-48 0 -75.5 -33t-27.5 -93t27.5 -93t75.5 -33q42 0 67 22t33 69l76 -17
q-13 -68 -58 -105.5t-118 -37.5q-87 0 -138 53z" />
    <glyph glyph-name="ordfeminine" unicode="&#xaa;" horiz-adv-x="454" 
d="M360 673q48 -37 48 -105v-182v-106h-116v50q-28 -28 -63.5 -43t-75.5 -15q-60 0 -93.5 28.5t-33.5 80.5q0 49 23 81t81 53.5t162 33.5v16q0 28 -19 43t-53 15q-68 0 -89 -65l-96 30q36 122 189 122q88 0 136 -37zM292 404v64q-86 -8 -117 -23.5t-31 -44.5q0 -16 13 -26
t34 -10q50 0 101 40z" />
    <glyph glyph-name="guillemotleft" unicode="&#xab;" horiz-adv-x="570" 
d="M176 489h129q-25 -99 -141 -198q116 -99 141 -198h-129q-20 94 -116 184v28q96 90 116 184zM386 489h129q-25 -99 -141 -198q116 -99 141 -198h-129q-20 94 -116 184v28q96 90 116 184z" />
    <glyph glyph-name="registered" unicode="&#xae;" horiz-adv-x="540" 
d="M387.5 679q52.5 -31 82.5 -83.5t30 -115.5q0 -64 -30.5 -116.5t-83 -82.5t-115.5 -30t-116 30t-84 82t-31 116q0 63 31 116t84 84t116 31q64 0 116.5 -31zM367.5 311q43.5 25 68.5 69t25 100q0 57 -24.5 101t-67.5 69t-98 25t-98.5 -25t-67.5 -69.5t-24 -101.5
q0 -56 25 -100t68.5 -68.5t96.5 -24.5t96.5 25zM337.5 465.5q13.5 -9.5 19.5 -30.5l15 -58h-50l-12 53q-5 20 -20 26.5t-43 6.5h-17v-86h-47v222h105q40 0 60.5 -16.5t20.5 -47.5q0 -25 -18 -40t-50 -18q23 -2 36.5 -11.5zM272 499q25 0 38 8t13 23q0 32 -41 32h-52v-63h42z
" />
    <glyph glyph-name="degree" unicode="&#xb0;" horiz-adv-x="443" 
d="M133.5 420.5q-39.5 21.5 -61.5 59t-22 84.5q0 46 22.5 83t62 58.5t89.5 21.5q48 0 86.5 -21.5t60.5 -58.5t22 -83q0 -47 -22 -84.5t-61 -59t-88 -21.5t-88.5 21.5zM282 500.5q22 23.5 22 63.5q0 39 -22.5 62t-59.5 23t-59.5 -23.5t-22.5 -61.5q0 -40 23 -63.5t61 -23.5
q36 0 58 23.5z" />
    <glyph glyph-name="plusminus" unicode="&#xb1;" 
d="M248 386h-165v94h165v142h106v-142h164v-94h-164v-138h-106v138zM83 180h435v-94h-435v94z" />
    <glyph glyph-name="uni00B2" unicode="&#xb2;" horiz-adv-x="387" 
d="M380 439v-83h-355v70l125 93q59 45 86.5 78t27.5 68q0 31 -19 48.5t-50 17.5q-28 0 -51.5 -17t-23.5 -56q0 -17 6 -40h-102q-3 20 -3 38q0 77 50 115.5t125 38.5q79 0 126.5 -38.5t47.5 -101.5q0 -52 -45 -103t-150 -117l-18 -11h223z" />
    <glyph glyph-name="uni00B3" unicode="&#xb3;" horiz-adv-x="412" 
d="M360.5 549q26.5 -27 26.5 -69q0 -59 -48.5 -94.5t-127.5 -35.5t-129.5 37.5t-62.5 106.5l101 15q6 -42 30 -61.5t60 -19.5q33 0 52.5 16t19.5 42q0 28 -22 45t-64 17h-32l-1 72h39q32 0 51.5 14.5t19.5 41.5q0 25 -17.5 40.5t-46.5 15.5t-49.5 -17.5t-24.5 -53.5l-97 20
q9 64 55.5 96.5t116.5 32.5q75 0 119 -33.5t44 -89.5q0 -39 -23 -64.5t-66 -35.5q50 -11 76.5 -38z" />
    <glyph glyph-name="paragraph" unicode="&#xb6;" 
d="M233 299q-62 0 -110.5 24.5t-75.5 69.5t-27 103q0 61 28 107.5t76.5 72t108.5 25.5h267v-701h-70v639h-94v-639h-70v299h-33z" />
    <glyph glyph-name="periodcentered" unicode="&#xb7;" horiz-adv-x="275" 
d="M78 239.5q-23 20.5 -23 58.5t23 58.5t61 20.5t61 -20.5t23 -58.5t-23 -58.5t-61 -20.5t-61 20.5z" />
    <glyph glyph-name="uni00B9" unicode="&#xb9;" horiz-adv-x="304" 
d="M246 800v-448h-96v368q-24 -50 -99 -89l-40 85q57 19 91.5 39t59.5 45h84z" />
    <glyph glyph-name="ordmasculine" unicode="&#xba;" horiz-adv-x="486" 
d="M397.5 650.5q57.5 -59.5 57.5 -160.5t-57.5 -160.5t-154.5 -59.5t-154.5 59.5t-57.5 160.5t57.5 160.5t154.5 59.5t154.5 -59.5zM314 390q24 34 24 100t-24 100t-71 34t-71.5 -34t-24.5 -100t24.5 -100t71.5 -34t71 34z" />
    <glyph glyph-name="guillemotright" unicode="&#xbb;" horiz-adv-x="570" 
d="M300 277q-96 -90 -116 -184h-129q26 99 141 198q-115 99 -141 198h129q20 -94 116 -184v-28zM510 277q-96 -90 -116 -184h-129q26 99 141 198q-115 99 -141 198h129q20 -94 116 -184v-28z" />
    <glyph glyph-name="onequarter" unicode="&#xbc;" horiz-adv-x="867" 
d="M246 700v-448h-96v368q-24 -50 -99 -89l-40 85q57 19 91.5 39t59.5 45h84zM402 365l195 335h96l-226 -359l-197 -341h-96zM854 96h-48v-96h-101l1 96h-215v67l181 285h134v-274h48v-78zM707 174v193l-119 -193h119z" />
    <glyph glyph-name="onehalf" unicode="&#xbd;" horiz-adv-x="930" 
d="M246 700v-448h-96v368q-24 -50 -99 -89l-40 85q57 19 91.5 39t59.5 45h84zM402 365l195 335h96l-226 -359l-197 -341h-96zM923 83v-83h-355v70l125 93q59 45 86.5 78t27.5 68q0 31 -19 48.5t-50 17.5q-28 0 -51.5 -17t-23.5 -56q0 -17 6 -40h-102q-3 20 -3 38
q0 77 50 115.5t125 38.5q79 0 126.5 -38.5t47.5 -101.5q0 -52 -45 -103t-150 -117l-18 -11h223z" />
    <glyph glyph-name="threequarters" unicode="&#xbe;" horiz-adv-x="955" 
d="M360.5 449q26.5 -27 26.5 -69q0 -59 -48.5 -94.5t-127.5 -35.5t-129.5 37.5t-62.5 106.5l101 15q6 -42 30 -61.5t60 -19.5q33 0 52.5 16t19.5 42q0 28 -22 45t-64 17h-32l-1 72h39q32 0 51.5 14.5t19.5 41.5q0 25 -17.5 40.5t-46.5 15.5t-49.5 -17.5t-24.5 -53.5l-97 20
q9 64 55.5 96.5t116.5 32.5q75 0 119 -33.5t44 -89.5q0 -39 -23 -64.5t-66 -35.5q50 -11 76.5 -38zM490 365l195 335h96l-226 -359l-197 -341h-96zM942 96h-48v-96h-101l1 96h-215v67l181 285h134v-274h48v-78zM795 174v193l-119 -193h119z" />
    <glyph glyph-name="questiondown" unicode="&#xbf;" horiz-adv-x="550" 
d="M347 600q22 -20 22 -56t-22 -56t-59 -20t-58.5 20t-21.5 56t21.5 56t58.5 20t59 -20zM100 -47q-60 48 -60 136q0 40 14 68.5t33.5 46t52.5 40.5q41 27 61 50t20 61v6h136v-6q0 -36 -13.5 -62.5t-33.5 -44t-52 -38.5q-42 -28 -62 -50.5t-20 -57.5q0 -39 26 -62.5t69 -23.5
q42 0 72.5 22t30.5 69q0 22 -9 52h135q5 -30 5 -50q0 -98 -61 -151t-174 -53q-110 0 -170 48z" />
    <glyph glyph-name="Agrave" unicode="&#xc0;" horiz-adv-x="700" 
d="M507 125h-314l-41 -125h-147l247 700h196l247 -700h-147zM470 237l-120 369l-121 -369h241zM347 772l-194 160h177l76 -160h-59z" />
    <glyph glyph-name="Aacute" unicode="&#xc1;" horiz-adv-x="700" 
d="M507 125h-314l-41 -125h-147l247 700h196l247 -700h-147zM470 237l-120 369l-121 -369h241zM390 932h177l-194 -160h-59z" />
    <glyph glyph-name="Acircumflex" unicode="&#xc2;" horiz-adv-x="700" 
d="M507 125h-314l-41 -125h-147l247 700h196l247 -700h-147zM470 237l-120 369l-121 -369h241zM444 772l-94 89l-95 -89h-82l113 160h127l111 -160h-80z" />
    <glyph glyph-name="Atilde" unicode="&#xc3;" horiz-adv-x="700" 
d="M507 125h-314l-41 -125h-147l247 700h196l247 -700h-147zM470 237l-120 369l-121 -369h241zM378.5 806.5q-16.5 7.5 -35.5 21.5q-17 11 -25.5 15.5t-20.5 4.5q-35 0 -37 -43h-84q1 61 30 90.5t76 29.5q23 0 38.5 -7.5t34.5 -21.5q15 -11 24.5 -16t21.5 -5q36 0 38 43h84
q0 -61 -28 -90t-76 -29q-24 0 -40.5 7.5z" />
    <glyph glyph-name="Adieresis" unicode="&#xc4;" horiz-adv-x="700" 
d="M507 125h-314l-41 -125h-147l247 700h196l247 -700h-147zM470 237l-120 369l-121 -369h241zM180.5 794q-21.5 20 -21.5 56t21.5 56t58.5 20t59 -20t22 -56t-22 -56t-59 -20t-58.5 20zM401.5 794q-21.5 20 -21.5 56t21.5 56t58.5 20t59 -20t22 -56t-22 -56t-59 -20
t-58.5 20z" />
    <glyph glyph-name="Aring" unicode="&#xc5;" horiz-adv-x="700" 
d="M507 125h-314l-41 -125h-147l247 700h196l247 -700h-147zM470 237l-120 369l-121 -369h241zM265.5 793.5q-32.5 30.5 -32.5 78.5t32.5 78t84.5 30t84.5 -30t32.5 -78t-32.5 -78.5t-84.5 -30.5t-84.5 30.5zM389.5 834q15.5 15 15.5 38t-15.5 37.5t-38.5 14.5
q-24 0 -39.5 -14.5t-15.5 -37.5t15.5 -38t39.5 -15q23 0 38.5 15z" />
    <glyph glyph-name="AE" unicode="&#xc6;" horiz-adv-x="1112" 
d="M668 579v-162h354v-121h-354v-175h384v-121h-531v125h-275l-77 -125h-164l453 700h594v-121h-384zM521 237v333l-206 -333h206z" />
    <glyph glyph-name="Ccedilla" unicode="&#xc7;" horiz-adv-x="732" 
d="M509 154.5q52 40.5 67 126.5l135 -30q-24 -118 -105 -186.5t-202 -73.5l-13 -54h5q42 0 69.5 -25.5t27.5 -63.5q0 -39 -29.5 -64t-74.5 -25q-47 0 -79.5 26.5t-36.5 68.5l60 8q8 -48 50 -48q18 0 29.5 9t11.5 25q0 18 -14.5 28.5t-42.5 10.5h-25l-15 31l24 73
q-97 7 -169.5 53.5t-111.5 125.5t-39 179q0 106 43 188t123 127.5t185 45.5q132 0 218.5 -70.5t110.5 -190.5l-135 -30q-15 86 -67 126.5t-124 40.5q-96 0 -149.5 -65t-53.5 -171t53.5 -171t149.5 -65q72 0 124 40.5z" />
    <glyph glyph-name="Egrave" unicode="&#xc8;" horiz-adv-x="666" 
d="M222 579v-162h354v-121h-354v-175h384v-121h-531v700h531v-121h-384zM345 772l-194 160h177l76 -160h-59z" />
    <glyph glyph-name="Eacute" unicode="&#xc9;" horiz-adv-x="666" 
d="M222 579v-162h354v-121h-354v-175h384v-121h-531v700h531v-121h-384zM388 932h177l-194 -160h-59z" />
    <glyph glyph-name="Ecircumflex" unicode="&#xca;" horiz-adv-x="666" 
d="M222 579v-162h354v-121h-354v-175h384v-121h-531v700h531v-121h-384zM442 772l-94 89l-95 -89h-82l113 160h127l111 -160h-80z" />
    <glyph glyph-name="Edieresis" unicode="&#xcb;" horiz-adv-x="666" 
d="M222 579v-162h354v-121h-354v-175h384v-121h-531v700h531v-121h-384zM178.5 794q-21.5 20 -21.5 56t21.5 56t58.5 20t59 -20t22 -56t-22 -56t-59 -20t-58.5 20zM399.5 794q-21.5 20 -21.5 56t21.5 56t58.5 20t59 -20t22 -56t-22 -56t-59 -20t-58.5 20z" />
    <glyph glyph-name="Igrave" unicode="&#xcc;" horiz-adv-x="317" 
d="M85 700h147v-700h-147v700zM156 772l-194 160h177l76 -160h-59z" />
    <glyph glyph-name="Iacute" unicode="&#xcd;" horiz-adv-x="317" 
d="M85 700h147v-700h-147v700zM199 932h177l-194 -160h-59z" />
    <glyph glyph-name="Icircumflex" unicode="&#xce;" horiz-adv-x="317" 
d="M85 700h147v-700h-147v700zM253 772l-94 89l-95 -89h-82l113 160h127l111 -160h-80z" />
    <glyph glyph-name="Idieresis" unicode="&#xcf;" horiz-adv-x="317" 
d="M85 700h147v-700h-147v700zM-10.5 794q-21.5 20 -21.5 56t21.5 56t58.5 20t59 -20t22 -56t-22 -56t-59 -20t-58.5 20zM210.5 794q-21.5 20 -21.5 56t21.5 56t58.5 20t59 -20t22 -56t-22 -56t-59 -20t-58.5 20z" />
    <glyph glyph-name="Eth" unicode="&#xd0;" horiz-adv-x="773" 
d="M572 657.5q83 -42.5 126.5 -120.5t43.5 -183t-43 -185t-125 -124.5t-197 -44.5h-282v306h-74v87h74v307h279q115 0 198 -42.5zM536.5 181.5q54.5 60.5 54.5 172.5q0 109 -55.5 167t-163.5 58h-130v-186h154v-87h-154v-185h133q107 0 161.5 60.5z" />
    <glyph glyph-name="Ntilde" unicode="&#xd1;" horiz-adv-x="799" 
d="M724 700v-700h-208l-302 561v-561h-139v700h208l302 -560v560h139zM428.5 806.5q-16.5 7.5 -35.5 21.5q-17 11 -25.5 15.5t-20.5 4.5q-35 0 -37 -43h-84q1 61 30 90.5t76 29.5q23 0 38.5 -7.5t34.5 -21.5q15 -11 24.5 -16t21.5 -5q36 0 38 43h84q0 -61 -28 -90t-76 -29
q-24 0 -40.5 7.5z" />
    <glyph glyph-name="Ograve" unicode="&#xd2;" horiz-adv-x="774" 
d="M573.5 665q80.5 -45 125 -127t44.5 -189q0 -106 -44.5 -187.5t-125 -126.5t-186.5 -45t-186.5 45t-125 126.5t-44.5 187.5q0 107 44.5 189t125 127t186.5 45t186.5 -45zM493.5 142q46.5 28 72.5 81t26 127t-26 127t-72.5 81t-106.5 28t-106.5 -28t-72.5 -81t-26 -127
t26 -127t72.5 -81t106.5 -28t106.5 28zM384 772l-194 160h177l76 -160h-59z" />
    <glyph glyph-name="Oacute" unicode="&#xd3;" horiz-adv-x="774" 
d="M573.5 665q80.5 -45 125 -127t44.5 -189q0 -106 -44.5 -187.5t-125 -126.5t-186.5 -45t-186.5 45t-125 126.5t-44.5 187.5q0 107 44.5 189t125 127t186.5 45t186.5 -45zM493.5 142q46.5 28 72.5 81t26 127t-26 127t-72.5 81t-106.5 28t-106.5 -28t-72.5 -81t-26 -127
t26 -127t72.5 -81t106.5 -28t106.5 28zM427 932h177l-194 -160h-59z" />
    <glyph glyph-name="Ocircumflex" unicode="&#xd4;" horiz-adv-x="774" 
d="M573.5 665q80.5 -45 125 -127t44.5 -189q0 -106 -44.5 -187.5t-125 -126.5t-186.5 -45t-186.5 45t-125 126.5t-44.5 187.5q0 107 44.5 189t125 127t186.5 45t186.5 -45zM493.5 142q46.5 28 72.5 81t26 127t-26 127t-72.5 81t-106.5 28t-106.5 -28t-72.5 -81t-26 -127
t26 -127t72.5 -81t106.5 -28t106.5 28zM481 772l-94 89l-95 -89h-82l113 160h127l111 -160h-80z" />
    <glyph glyph-name="Otilde" unicode="&#xd5;" horiz-adv-x="774" 
d="M573.5 665q80.5 -45 125 -127t44.5 -189q0 -106 -44.5 -187.5t-125 -126.5t-186.5 -45t-186.5 45t-125 126.5t-44.5 187.5q0 107 44.5 189t125 127t186.5 45t186.5 -45zM493.5 142q46.5 28 72.5 81t26 127t-26 127t-72.5 81t-106.5 28t-106.5 -28t-72.5 -81t-26 -127
t26 -127t72.5 -81t106.5 -28t106.5 28zM415.5 806.5q-16.5 7.5 -35.5 21.5q-17 11 -25.5 15.5t-20.5 4.5q-35 0 -37 -43h-84q1 61 30 90.5t76 29.5q23 0 38.5 -7.5t34.5 -21.5q15 -11 24.5 -16t21.5 -5q36 0 38 43h84q0 -61 -28 -90t-76 -29q-24 0 -40.5 7.5z" />
    <glyph glyph-name="Odieresis" unicode="&#xd6;" horiz-adv-x="774" 
d="M573.5 665q80.5 -45 125 -127t44.5 -189q0 -106 -44.5 -187.5t-125 -126.5t-186.5 -45t-186.5 45t-125 126.5t-44.5 187.5q0 107 44.5 189t125 127t186.5 45t186.5 -45zM493.5 142q46.5 28 72.5 81t26 127t-26 127t-72.5 81t-106.5 28t-106.5 -28t-72.5 -81t-26 -127
t26 -127t72.5 -81t106.5 -28t106.5 28zM217.5 794q-21.5 20 -21.5 56t21.5 56t58.5 20t59 -20t22 -56t-22 -56t-59 -20t-58.5 20zM438.5 794q-21.5 20 -21.5 56t21.5 56t58.5 20t59 -20t22 -56t-22 -56t-59 -20t-58.5 20z" />
    <glyph glyph-name="multiply" unicode="&#xd7;" 
d="M374 333l159 -159l-73 -74l-159 160l-160 -160l-74 74l160 160l-159 158l73 74l159 -159l159 159l74 -74z" />
    <glyph glyph-name="Oslash" unicode="&#xd8;" horiz-adv-x="774" 
d="M721.5 485.5q21.5 -62.5 21.5 -136.5q0 -106 -44.5 -187.5t-125 -126.5t-186.5 -45q-119 0 -207 57l-72 -85l-68 60l74 83q-40 46 -61.5 108.5t-21.5 135.5q0 107 44.5 189t125 127t186.5 45q118 0 205 -56l71 83l68 -62l-71 -80q40 -47 61.5 -109.5zM213 214l128 143
l164 194q-50 35 -118 35q-60 0 -106.5 -28t-72.5 -81t-26 -127q0 -80 31 -136zM493.5 142q46.5 28 72.5 81t26 127q0 80 -31 136l-144 -161l-149 -175q49 -36 119 -36q60 0 106.5 28z" />
    <glyph glyph-name="Ugrave" unicode="&#xd9;" horiz-adv-x="750" 
d="M680 700v-428q0 -150 -79 -216t-226 -66t-226 66t-79 216v428h147v-418q0 -81 41.5 -124.5t116.5 -43.5t116.5 43.5t41.5 124.5v418h147zM372 772l-194 160h177l76 -160h-59z" />
    <glyph glyph-name="Uacute" unicode="&#xda;" horiz-adv-x="750" 
d="M680 700v-428q0 -150 -79 -216t-226 -66t-226 66t-79 216v428h147v-418q0 -81 41.5 -124.5t116.5 -43.5t116.5 43.5t41.5 124.5v418h147zM415 932h177l-194 -160h-59z" />
    <glyph glyph-name="Ucircumflex" unicode="&#xdb;" horiz-adv-x="750" 
d="M680 700v-428q0 -150 -79 -216t-226 -66t-226 66t-79 216v428h147v-418q0 -81 41.5 -124.5t116.5 -43.5t116.5 43.5t41.5 124.5v418h147zM469 772l-94 89l-95 -89h-82l113 160h127l111 -160h-80z" />
    <glyph glyph-name="Udieresis" unicode="&#xdc;" horiz-adv-x="750" 
d="M680 700v-428q0 -150 -79 -216t-226 -66t-226 66t-79 216v428h147v-418q0 -81 41.5 -124.5t116.5 -43.5t116.5 43.5t41.5 124.5v418h147zM205.5 794q-21.5 20 -21.5 56t21.5 56t58.5 20t59 -20t22 -56t-22 -56t-59 -20t-58.5 20zM426.5 794q-21.5 20 -21.5 56t21.5 56
t58.5 20t59 -20t22 -56t-22 -56t-59 -20t-58.5 20z" />
    <glyph glyph-name="Yacute" unicode="&#xdd;" horiz-adv-x="634" 
d="M629 700l-238 -436v-264h-148v264l-238 436h174l138 -336l137 336h175zM357 932h177l-194 -160h-59z" />
    <glyph glyph-name="Thorn" unicode="&#xde;" horiz-adv-x="674" 
d="M585 520.5q67 -57.5 67 -161.5q0 -102 -71 -157.5t-195 -55.5h-164v-146h-147v700h147v-122h172q124 0 191 -57.5zM464 281q38 25 38 78q0 54 -37 78.5t-112 24.5h-131v-206h130q74 0 112 25z" />
    <glyph glyph-name="germandbls" unicode="&#xdf;" horiz-adv-x="631" 
d="M561.5 304q52.5 -48 52.5 -123q0 -57 -30 -100.5t-84.5 -67t-127.5 -23.5q-51 0 -107 13l1 118q42 -18 86 -18q57 0 89 28t32 71q0 50 -44.5 79.5t-131.5 30.5l-1 95q69 7 103 31t34 68q0 41 -29 65t-79 24q-56 0 -86.5 -30.5t-30.5 -90.5v-474h-143v494q0 71 35.5 120
t95.5 72.5t132 23.5q71 0 127 -22t87 -62.5t31 -92.5q0 -61 -43.5 -105t-123.5 -62q103 -14 155.5 -62z" />
    <glyph glyph-name="agrave" unicode="&#xe0;" horiz-adv-x="575" 
d="M455 503q60 -47 60 -133v-234v-136h-143v66q-33 -38 -79 -57t-99 -19q-75 0 -117 35.5t-42 101.5q0 64 30 105t103 68t204 42v17q0 41 -24.5 63.5t-69.5 22.5q-89 0 -117 -87l-115 40q24 78 86 115t152 37q111 0 171 -47zM372 151v97q-75 -8 -117 -20.5t-59 -31
t-17 -45.5q0 -25 17 -39.5t48 -14.5q67 0 128 54zM288 612l-194 160h177l76 -160h-59z" />
    <glyph glyph-name="aacute" unicode="&#xe1;" horiz-adv-x="575" 
d="M455 503q60 -47 60 -133v-234v-136h-143v66q-33 -38 -79 -57t-99 -19q-75 0 -117 35.5t-42 101.5q0 64 30 105t103 68t204 42v17q0 41 -24.5 63.5t-69.5 22.5q-89 0 -117 -87l-115 40q24 78 86 115t152 37q111 0 171 -47zM372 151v97q-75 -8 -117 -20.5t-59 -31
t-17 -45.5q0 -25 17 -39.5t48 -14.5q67 0 128 54zM310 772h177l-194 -160h-59z" />
    <glyph glyph-name="acircumflex" unicode="&#xe2;" horiz-adv-x="575" 
d="M455 503q60 -47 60 -133v-234v-136h-143v66q-33 -38 -79 -57t-99 -19q-75 0 -117 35.5t-42 101.5q0 64 30 105t103 68t204 42v17q0 41 -24.5 63.5t-69.5 22.5q-89 0 -117 -87l-115 40q24 78 86 115t152 37q111 0 171 -47zM372 151v97q-75 -8 -117 -20.5t-59 -31
t-17 -45.5q0 -25 17 -39.5t48 -14.5q67 0 128 54zM386 612l-94 89l-95 -89h-82l113 160h127l111 -160h-80z" />
    <glyph glyph-name="atilde" unicode="&#xe3;" horiz-adv-x="575" 
d="M455 503q60 -47 60 -133v-234v-136h-143v66q-33 -38 -79 -57t-99 -19q-75 0 -117 35.5t-42 101.5q0 64 30 105t103 68t204 42v17q0 41 -24.5 63.5t-69.5 22.5q-89 0 -117 -87l-115 40q24 78 86 115t152 37q111 0 171 -47zM372 151v97q-75 -8 -117 -20.5t-59 -31
t-17 -45.5q0 -25 17 -39.5t48 -14.5q67 0 128 54zM320.5 646.5q-16.5 7.5 -35.5 21.5q-17 11 -25.5 15.5t-20.5 4.5q-35 0 -37 -43h-84q1 61 30 90.5t76 29.5q23 0 38.5 -7.5t34.5 -21.5q15 -11 24.5 -16t21.5 -5q36 0 38 43h84q0 -61 -28 -90t-76 -29q-24 0 -40.5 7.5z" />
    <glyph glyph-name="adieresis" unicode="&#xe4;" horiz-adv-x="575" 
d="M455 503q60 -47 60 -133v-234v-136h-143v66q-33 -38 -79 -57t-99 -19q-75 0 -117 35.5t-42 101.5q0 64 30 105t103 68t204 42v17q0 41 -24.5 63.5t-69.5 22.5q-89 0 -117 -87l-115 40q24 78 86 115t152 37q111 0 171 -47zM372 151v97q-75 -8 -117 -20.5t-59 -31
t-17 -45.5q0 -25 17 -39.5t48 -14.5q67 0 128 54zM121.5 646q-21.5 20 -21.5 56t21.5 56t58.5 20t59 -20t22 -56t-22 -56t-59 -20t-58.5 20zM342.5 646q-21.5 20 -21.5 56t21.5 56t58.5 20t59 -20t22 -56t-22 -56t-59 -20t-58.5 20z" />
    <glyph glyph-name="aring" unicode="&#xe5;" horiz-adv-x="575" 
d="M455 503q60 -47 60 -133v-234v-136h-143v66q-33 -38 -79 -57t-99 -19q-75 0 -117 35.5t-42 101.5q0 64 30 105t103 68t204 42v17q0 41 -24.5 63.5t-69.5 22.5q-89 0 -117 -87l-115 40q24 78 86 115t152 37q111 0 171 -47zM372 151v97q-75 -8 -117 -20.5t-59 -31
t-17 -45.5q0 -25 17 -39.5t48 -14.5q67 0 128 54zM206.5 636.5q-32.5 30.5 -32.5 78.5t32.5 78t84.5 30t84.5 -30t32.5 -78t-32.5 -78.5t-84.5 -30.5t-84.5 30.5zM330.5 677q15.5 15 15.5 38t-15.5 37.5t-38.5 14.5q-24 0 -39.5 -14.5t-15.5 -37.5t15.5 -38t39.5 -15
q23 0 38.5 15z" />
    <glyph glyph-name="ae" unicode="&#xe6;" horiz-adv-x="907" 
d="M704.5 115q34.5 20 48.5 73l114 -30q-26 -90 -89.5 -129t-149.5 -39q-73 0 -127.5 25.5t-87.5 73.5q-88 -99 -221 -99q-69 0 -113 36.5t-44 100.5q0 89 88.5 141t238.5 56v35q0 86 -85 86q-38 0 -68.5 -17.5t-47.5 -69.5l-115 40q25 79 86.5 115.5t157.5 36.5
q107 0 155 -66q34 33 81 49.5t102 16.5q110 0 174.5 -67t64.5 -204q0 -26 -1 -40h-364q6 -74 40 -109t89 -35q39 0 73.5 20zM504 323h222q-1 63 -27.5 94.5t-76.5 31.5q-101 0 -118 -126zM319.5 104q37.5 18 62.5 45q-15 42 -18 92q-92 -4 -138.5 -29.5t-46.5 -68.5
q0 -57 69 -57q34 0 71.5 18z" />
    <glyph glyph-name="ccedilla" unicode="&#xe7;" horiz-adv-x="579" 
d="M418 210l136 -30q-17 -84 -80 -136.5t-162 -53.5l-13 -53h5q42 0 69.5 -25.5t27.5 -63.5q0 -39 -29.5 -64t-74.5 -25q-47 0 -79.5 26.5t-36.5 68.5l60 8q8 -48 50 -48q18 0 29.5 9t11.5 25q0 18 -14.5 28.5t-42.5 10.5h-25l-15 31l25 75q-102 14 -161 88t-59 189
q0 84 32.5 147.5t92.5 98t141 34.5q102 0 166.5 -52.5t81.5 -137.5l-136 -30q-19 105 -112 105q-60 0 -92.5 -43t-32.5 -122t32.5 -122t92.5 -43q93 0 112 105z" />
    <glyph glyph-name="egrave" unicode="&#xe8;" horiz-adv-x="584" 
d="M381.5 115q34.5 20 48.5 73l114 -30q-26 -90 -89.5 -129t-149.5 -39q-126 0 -195.5 74.5t-69.5 203.5q0 90 34 153.5t94 96t137 32.5q110 0 174.5 -67t64.5 -204q0 -26 -1 -40h-364q6 -74 40 -109t89 -35q39 0 73.5 20zM181 323h222q-1 63 -27.5 94.5t-76.5 31.5
q-101 0 -118 -126zM306 612l-194 160h177l76 -160h-59z" />
    <glyph glyph-name="eacute" unicode="&#xe9;" horiz-adv-x="584" 
d="M381.5 115q34.5 20 48.5 73l114 -30q-26 -90 -89.5 -129t-149.5 -39q-126 0 -195.5 74.5t-69.5 203.5q0 90 34 153.5t94 96t137 32.5q110 0 174.5 -67t64.5 -204q0 -26 -1 -40h-364q6 -74 40 -109t89 -35q39 0 73.5 20zM181 323h222q-1 63 -27.5 94.5t-76.5 31.5
q-101 0 -118 -126zM328 772h177l-194 -160h-59z" />
    <glyph glyph-name="ecircumflex" unicode="&#xea;" horiz-adv-x="584" 
d="M381.5 115q34.5 20 48.5 73l114 -30q-26 -90 -89.5 -129t-149.5 -39q-126 0 -195.5 74.5t-69.5 203.5q0 90 34 153.5t94 96t137 32.5q110 0 174.5 -67t64.5 -204q0 -26 -1 -40h-364q6 -74 40 -109t89 -35q39 0 73.5 20zM181 323h222q-1 63 -27.5 94.5t-76.5 31.5
q-101 0 -118 -126zM404 612l-94 89l-95 -89h-82l113 160h127l111 -160h-80z" />
    <glyph glyph-name="edieresis" unicode="&#xeb;" horiz-adv-x="584" 
d="M381.5 115q34.5 20 48.5 73l114 -30q-26 -90 -89.5 -129t-149.5 -39q-126 0 -195.5 74.5t-69.5 203.5q0 90 34 153.5t94 96t137 32.5q110 0 174.5 -67t64.5 -204q0 -26 -1 -40h-364q6 -74 40 -109t89 -35q39 0 73.5 20zM181 323h222q-1 63 -27.5 94.5t-76.5 31.5
q-101 0 -118 -126zM139.5 646q-21.5 20 -21.5 56t21.5 56t58.5 20t59 -20t22 -56t-22 -56t-59 -20t-58.5 20zM360.5 646q-21.5 20 -21.5 56t21.5 56t58.5 20t59 -20t22 -56t-22 -56t-59 -20t-58.5 20z" />
    <glyph glyph-name="igrave" unicode="&#xec;" horiz-adv-x="273" 
d="M65 540h143v-540h-143v540zM135 612l-194 160h177l76 -160h-59z" />
    <glyph glyph-name="iacute" unicode="&#xed;" horiz-adv-x="273" 
d="M65 540h143v-540h-143v540zM157 772h177l-194 -160h-59z" />
    <glyph glyph-name="icircumflex" unicode="&#xee;" horiz-adv-x="273" 
d="M65 540h143v-540h-143v540zM233 612l-94 89l-95 -89h-82l113 160h127l111 -160h-80z" />
    <glyph glyph-name="idieresis" unicode="&#xef;" horiz-adv-x="273" 
d="M65 540h143v-540h-143v540zM-31.5 646q-21.5 20 -21.5 56t21.5 56t58.5 20t59 -20t22 -56t-22 -56t-59 -20t-58.5 20zM189.5 646q-21.5 20 -21.5 56t21.5 56t58.5 20t59 -20t22 -56t-22 -56t-59 -20t-58.5 20z" />
    <glyph glyph-name="eth" unicode="&#xf0;" horiz-adv-x="612" 
d="M516.5 494q55.5 -101 55.5 -216q0 -136 -71.5 -212t-202.5 -76q-79 0 -137.5 34.5t-89.5 98t-31 148.5q0 79 26.5 141t79 98t126.5 36q56 0 101 -21q-54 62 -128 105l-130 -58l-23 57l82 37q-48 22 -122 45l142 74q58 -31 104 -63l106 48l24 -58l-72 -32
q105 -85 160.5 -186zM396.5 148q33.5 43 33.5 122t-33 122.5t-93 43.5t-92.5 -44t-32.5 -124q0 -79 31.5 -121t91.5 -42q61 0 94.5 43z" />
    <glyph glyph-name="ntilde" unicode="&#xf1;" horiz-adv-x="614" 
d="M506 497q48 -53 48 -150v-347h-143v336q0 49 -24 74t-63 25q-38 0 -70 -22.5t-46 -65.5v-347h-143v540h138v-96q26 54 71 80t101 26q83 0 131 -53zM333.5 646.5q-16.5 7.5 -35.5 21.5q-17 11 -25.5 15.5t-20.5 4.5q-35 0 -37 -43h-84q1 61 30 90.5t76 29.5
q23 0 38.5 -7.5t34.5 -21.5q15 -11 24.5 -16t21.5 -5q36 0 38 43h84q0 -61 -28 -90t-76 -29q-24 0 -40.5 7.5z" />
    <glyph glyph-name="ograve" unicode="&#xf2;" horiz-adv-x="612" 
d="M447 515.5q60 -34.5 92.5 -98t32.5 -147.5t-32.5 -147.5t-92.5 -98t-141 -34.5t-141 34.5t-92.5 98t-32.5 147.5t32.5 147.5t92.5 98t141 34.5t141 -34.5zM398.5 148q32.5 43 32.5 122t-32.5 122t-92.5 43t-92.5 -43t-32.5 -122t32.5 -122t92.5 -43t92.5 43zM303 612
l-194 160h177l76 -160h-59z" />
    <glyph glyph-name="oacute" unicode="&#xf3;" horiz-adv-x="612" 
d="M447 515.5q60 -34.5 92.5 -98t32.5 -147.5t-32.5 -147.5t-92.5 -98t-141 -34.5t-141 34.5t-92.5 98t-32.5 147.5t32.5 147.5t92.5 98t141 34.5t141 -34.5zM398.5 148q32.5 43 32.5 122t-32.5 122t-92.5 43t-92.5 -43t-32.5 -122t32.5 -122t92.5 -43t92.5 43zM325 772h177
l-194 -160h-59z" />
    <glyph glyph-name="ocircumflex" unicode="&#xf4;" horiz-adv-x="612" 
d="M447 515.5q60 -34.5 92.5 -98t32.5 -147.5t-32.5 -147.5t-92.5 -98t-141 -34.5t-141 34.5t-92.5 98t-32.5 147.5t32.5 147.5t92.5 98t141 34.5t141 -34.5zM398.5 148q32.5 43 32.5 122t-32.5 122t-92.5 43t-92.5 -43t-32.5 -122t32.5 -122t92.5 -43t92.5 43zM401 612
l-94 89l-95 -89h-82l113 160h127l111 -160h-80z" />
    <glyph glyph-name="otilde" unicode="&#xf5;" horiz-adv-x="612" 
d="M447 515.5q60 -34.5 92.5 -98t32.5 -147.5t-32.5 -147.5t-92.5 -98t-141 -34.5t-141 34.5t-92.5 98t-32.5 147.5t32.5 147.5t92.5 98t141 34.5t141 -34.5zM398.5 148q32.5 43 32.5 122t-32.5 122t-92.5 43t-92.5 -43t-32.5 -122t32.5 -122t92.5 -43t92.5 43zM335.5 646.5
q-16.5 7.5 -35.5 21.5q-17 11 -25.5 15.5t-20.5 4.5q-35 0 -37 -43h-84q1 61 30 90.5t76 29.5q23 0 38.5 -7.5t34.5 -21.5q15 -11 24.5 -16t21.5 -5q36 0 38 43h84q0 -61 -28 -90t-76 -29q-24 0 -40.5 7.5z" />
    <glyph glyph-name="odieresis" unicode="&#xf6;" horiz-adv-x="612" 
d="M447 515.5q60 -34.5 92.5 -98t32.5 -147.5t-32.5 -147.5t-92.5 -98t-141 -34.5t-141 34.5t-92.5 98t-32.5 147.5t32.5 147.5t92.5 98t141 34.5t141 -34.5zM398.5 148q32.5 43 32.5 122t-32.5 122t-92.5 43t-92.5 -43t-32.5 -122t32.5 -122t92.5 -43t92.5 43zM136.5 646
q-21.5 20 -21.5 56t21.5 56t58.5 20t59 -20t22 -56t-22 -56t-59 -20t-58.5 20zM357.5 646q-21.5 20 -21.5 56t21.5 56t58.5 20t59 -20t22 -56t-22 -56t-59 -20t-58.5 20z" />
    <glyph glyph-name="divide" unicode="&#xf7;" 
d="M245 470q-21 19 -21 53t21 53t55 19t55 -19t21 -53t-21 -53t-55 -19t-55 19zM53 380h495v-94h-495v94zM245 90q-21 19 -21 53t21 53t55 19t55 -19t21 -53t-21 -53t-55 -19t-55 19z" />
    <glyph glyph-name="oslash" unicode="&#xf8;" horiz-adv-x="612" 
d="M572 270q0 -84 -32.5 -147.5t-92.5 -98t-141 -34.5q-87 0 -150 40l-52 -65l-60 51l55 65q-59 73 -59 189q0 84 32.5 147.5t92.5 98t141 34.5q86 0 149 -40l55 69l58 -47l-58 -69q62 -74 62 -193zM192 189l95 110l91 114q-30 22 -72 22q-60 0 -92.5 -43t-32.5 -122
q0 -45 11 -81zM398.5 148q32.5 43 32.5 122q0 50 -12 84l-82 -97l-103 -130q30 -22 72 -22q60 0 92.5 43z" />
    <glyph glyph-name="ugrave" unicode="&#xf9;" horiz-adv-x="614" 
d="M549 540v-540h-138v96q-26 -54 -71 -80t-101 -26q-83 0 -131 53t-48 150v347h143v-336q0 -49 24 -74t63 -25q38 0 70 22.5t46 65.5v347h143zM305 612l-194 160h177l76 -160h-59z" />
    <glyph glyph-name="uacute" unicode="&#xfa;" horiz-adv-x="614" 
d="M549 540v-540h-138v96q-26 -54 -71 -80t-101 -26q-83 0 -131 53t-48 150v347h143v-336q0 -49 24 -74t63 -25q38 0 70 22.5t46 65.5v347h143zM327 772h177l-194 -160h-59z" />
    <glyph glyph-name="ucircumflex" unicode="&#xfb;" horiz-adv-x="614" 
d="M549 540v-540h-138v96q-26 -54 -71 -80t-101 -26q-83 0 -131 53t-48 150v347h143v-336q0 -49 24 -74t63 -25q38 0 70 22.5t46 65.5v347h143zM403 612l-94 89l-95 -89h-82l113 160h127l111 -160h-80z" />
    <glyph glyph-name="udieresis" unicode="&#xfc;" horiz-adv-x="614" 
d="M549 540v-540h-138v96q-26 -54 -71 -80t-101 -26q-83 0 -131 53t-48 150v347h143v-336q0 -49 24 -74t63 -25q38 0 70 22.5t46 65.5v347h143zM138.5 646q-21.5 20 -21.5 56t21.5 56t58.5 20t59 -20t22 -56t-22 -56t-59 -20t-58.5 20zM359.5 646q-21.5 20 -21.5 56t21.5 56
t58.5 20t59 -20t22 -56t-22 -56t-59 -20t-58.5 20z" />
    <glyph glyph-name="yacute" unicode="&#xfd;" horiz-adv-x="537" 
d="M532 540l-177 -488q-41 -112 -105 -167t-157 -55q-15 0 -22 1l-24 107q17 -4 49 -4q38 0 60 15t49 60l-200 531h159l108 -386l113 386h147zM296 772h177l-194 -160h-59z" />
    <glyph glyph-name="thorn" unicode="&#xfe;" horiz-adv-x="631" 
d="M531.5 476q59.5 -74 59.5 -206t-59.5 -206t-162.5 -74q-48 0 -89.5 20t-71.5 56v-226h-143v860h143v-227q30 37 72 57t89 20q103 0 162.5 -74zM415.5 148.5q34.5 43.5 34.5 121.5t-34.5 121.5t-92.5 43.5q-75 0 -115 -65v-198q19 -31 48 -49t67 -18q58 0 92.5 43.5z" />
    <glyph glyph-name="ydieresis" unicode="&#xff;" horiz-adv-x="537" 
d="M532 540l-177 -488q-41 -112 -105 -167t-157 -55q-15 0 -22 1l-24 107q17 -4 49 -4q38 0 60 15t49 60l-200 531h159l108 -386l113 386h147zM107.5 646q-21.5 20 -21.5 56t21.5 56t58.5 20t59 -20t22 -56t-22 -56t-59 -20t-58.5 20zM328.5 646q-21.5 20 -21.5 56t21.5 56
t58.5 20t59 -20t22 -56t-22 -56t-59 -20t-58.5 20z" />
    <glyph glyph-name="Amacron" unicode="&#x100;" horiz-adv-x="700" 
d="M507 125h-314l-41 -125h-147l247 700h196l247 -700h-147zM470 237l-120 369l-121 -369h241zM510 897v-86h-320v86h320z" />
    <glyph glyph-name="amacron" unicode="&#x101;" horiz-adv-x="575" 
d="M455 503q60 -47 60 -133v-234v-136h-143v66q-33 -38 -79 -57t-99 -19q-75 0 -117 35.5t-42 101.5q0 64 30 105t103 68t204 42v17q0 41 -24.5 63.5t-69.5 22.5q-89 0 -117 -87l-115 40q24 78 86 115t152 37q111 0 171 -47zM372 151v97q-75 -8 -117 -20.5t-59 -31
t-17 -45.5q0 -25 17 -39.5t48 -14.5q67 0 128 54zM451 737v-86h-320v86h320z" />
    <glyph glyph-name="Abreve" unicode="&#x102;" horiz-adv-x="700" 
d="M507 125h-314l-41 -125h-147l247 700h196l247 -700h-147zM470 237l-120 369l-121 -369h241zM237 819q-42 38 -43 107h95q0 -33 16 -50.5t43 -17.5q28 0 45 17.5t17 50.5h95q-2 -69 -44.5 -107t-112.5 -38q-69 0 -111 38z" />
    <glyph glyph-name="abreve" unicode="&#x103;" horiz-adv-x="575" 
d="M455 503q60 -47 60 -133v-234v-136h-143v66q-33 -38 -79 -57t-99 -19q-75 0 -117 35.5t-42 101.5q0 64 30 105t103 68t204 42v17q0 41 -24.5 63.5t-69.5 22.5q-89 0 -117 -87l-115 40q24 78 86 115t152 37q111 0 171 -47zM372 151v97q-75 -8 -117 -20.5t-59 -31
t-17 -45.5q0 -25 17 -39.5t48 -14.5q67 0 128 54zM180 659q-42 38 -43 107h95q0 -33 16 -50.5t43 -17.5q28 0 45 17.5t17 50.5h95q-2 -69 -44.5 -107t-112.5 -38q-69 0 -111 38z" />
    <glyph glyph-name="Aogonek" unicode="&#x104;" horiz-adv-x="700" 
d="M550.5 -96q10.5 -9 28.5 -9q11 0 26 2.5t25 6.5v-83q-37 -11 -83 -11q-59 0 -89 24.5t-30 61.5q0 34 29.5 62t88.5 47l-39 120h-314l-41 -125h-147l247 700h196l247 -700h-91q-35 -25 -49.5 -40t-14.5 -33q0 -14 10.5 -23zM470 237l-120 369l-121 -369h241z" />
    <glyph glyph-name="aogonek" unicode="&#x105;" horiz-adv-x="575" 
d="M455 503q60 -47 60 -133v-234v-136h-31q-35 -25 -49.5 -40t-14.5 -33q0 -14 10.5 -23t28.5 -9q11 0 26 2.5t25 6.5v-83q-37 -11 -83 -11q-59 0 -89 24.5t-30 61.5q0 31 26 58t78 46h-40v66q-33 -38 -79 -57t-99 -19q-75 0 -117 35.5t-42 101.5q0 64 30 105t103 68t204 42
v17q0 41 -24.5 63.5t-69.5 22.5q-89 0 -117 -87l-115 40q24 78 86 115t152 37q111 0 171 -47zM372 151v97q-75 -8 -117 -20.5t-59 -31t-17 -45.5q0 -25 17 -39.5t48 -14.5q67 0 128 54z" />
    <glyph glyph-name="Cacute" unicode="&#x106;" horiz-adv-x="732" 
d="M509 154.5q52 40.5 67 126.5l135 -30q-25 -123 -112 -192t-217 -69q-105 0 -185 45.5t-123 127t-43 186.5q0 106 43 188t123 127.5t185 45.5q132 0 218.5 -70.5t110.5 -190.5l-135 -30q-15 86 -67 126.5t-124 40.5q-96 0 -149.5 -65t-53.5 -171t53.5 -171t149.5 -65
q72 0 124 40.5zM423 932h177l-194 -160h-59z" />
    <glyph glyph-name="cacute" unicode="&#x107;" horiz-adv-x="579" 
d="M418 210l136 -30q-17 -85 -81.5 -137.5t-166.5 -52.5q-81 0 -141 34.5t-92.5 98t-32.5 147.5t32.5 147.5t92.5 98t141 34.5q102 0 166.5 -52.5t81.5 -137.5l-136 -30q-19 105 -112 105q-60 0 -92.5 -43t-32.5 -122t32.5 -122t92.5 -43q93 0 112 105zM325 772h177
l-194 -160h-59z" />
    <glyph glyph-name="Cdotaccent" unicode="&#x10a;" horiz-adv-x="732" 
d="M509 154.5q52 40.5 67 126.5l135 -30q-25 -123 -112 -192t-217 -69q-105 0 -185 45.5t-123 127t-43 186.5q0 106 43 188t123 127.5t185 45.5q132 0 218.5 -70.5t110.5 -190.5l-135 -30q-15 86 -67 126.5t-124 40.5q-96 0 -149.5 -65t-53.5 -171t53.5 -171t149.5 -65
q72 0 124 40.5zM322 793.5q-23 20.5 -23 58.5t23 58.5t61 20.5t61 -20.5t23 -58.5t-23 -58.5t-61 -20.5t-61 20.5z" />
    <glyph glyph-name="cdotaccent" unicode="&#x10b;" horiz-adv-x="579" 
d="M418 210l136 -30q-17 -85 -81.5 -137.5t-166.5 -52.5q-81 0 -141 34.5t-92.5 98t-32.5 147.5t32.5 147.5t92.5 98t141 34.5q102 0 166.5 -52.5t81.5 -137.5l-136 -30q-19 105 -112 105q-60 0 -92.5 -43t-32.5 -122t32.5 -122t92.5 -43q93 0 112 105zM245 643.5
q-23 20.5 -23 58.5t23 58.5t61 20.5t61 -20.5t23 -58.5t-23 -58.5t-61 -20.5t-61 20.5z" />
    <glyph glyph-name="Ccaron" unicode="&#x10c;" horiz-adv-x="732" 
d="M509 154.5q52 40.5 67 126.5l135 -30q-25 -123 -112 -192t-217 -69q-105 0 -185 45.5t-123 127t-43 186.5q0 106 43 188t123 127.5t185 45.5q132 0 218.5 -70.5t110.5 -190.5l-135 -30q-15 86 -67 126.5t-124 40.5q-96 0 -149.5 -65t-53.5 -171t53.5 -171t149.5 -65
q72 0 124 40.5zM447 773h-127l-113 160h69l108 -92l115 92h59z" />
    <glyph glyph-name="ccaron" unicode="&#x10d;" horiz-adv-x="579" 
d="M418 210l136 -30q-17 -85 -81.5 -137.5t-166.5 -52.5q-81 0 -141 34.5t-92.5 98t-32.5 147.5t32.5 147.5t92.5 98t141 34.5q102 0 166.5 -52.5t81.5 -137.5l-136 -30q-19 105 -112 105q-60 0 -92.5 -43t-32.5 -122t32.5 -122t92.5 -43q93 0 112 105zM369 612h-127
l-113 160h69l108 -92l115 92h59z" />
    <glyph glyph-name="Dcaron" unicode="&#x10e;" horiz-adv-x="753" 
d="M552 657.5q83 -42.5 126.5 -120.5t43.5 -183t-43 -185t-125 -124.5t-197 -44.5h-282v700h279q115 0 198 -42.5zM516.5 181.5q54.5 60.5 54.5 172.5q0 109 -55.5 167t-163.5 58h-130v-458h133q107 0 161.5 60.5zM423 773h-127l-113 160h69l108 -92l115 92h59z" />
    <glyph glyph-name="dcaron" unicode="&#x10f;" horiz-adv-x="631" 
d="M566 700v-700h-143v67q-30 -37 -72 -57t-89 -20q-103 0 -162.5 74t-59.5 206t59.5 206t162.5 74q48 0 89.5 -20t71.5 -56v226h143zM423 170v198q-19 31 -48 49t-67 18q-58 0 -92.5 -43.5t-34.5 -121.5t34.5 -121.5t92.5 -43.5q75 0 115 65zM616 700h126l-67 -160h-59v160
z" />
    <glyph glyph-name="Dcroat" unicode="&#x110;" horiz-adv-x="773" 
d="M572 657.5q83 -42.5 126.5 -120.5t43.5 -183t-43 -185t-125 -124.5t-197 -44.5h-282v306h-74v87h74v307h279q115 0 198 -42.5zM536.5 181.5q54.5 60.5 54.5 172.5q0 109 -55.5 167t-163.5 58h-130v-186h154v-87h-154v-185h133q107 0 161.5 60.5z" />
    <glyph glyph-name="dcroat" unicode="&#x111;" horiz-adv-x="631" 
d="M636 574h-70v-574h-143v67q-30 -37 -72 -57t-89 -20q-103 0 -162.5 74t-59.5 206t59.5 206t162.5 74q48 0 89.5 -20t71.5 -56v100h-114v64h114v62h143v-62h70v-64zM423 170v198q-19 31 -48 49t-67 18q-58 0 -92.5 -43.5t-34.5 -121.5t34.5 -121.5t92.5 -43.5q75 0 115 65
z" />
    <glyph glyph-name="Emacron" unicode="&#x112;" horiz-adv-x="666" 
d="M222 579v-162h354v-121h-354v-175h384v-121h-531v700h531v-121h-384zM508 897v-86h-320v86h320z" />
    <glyph glyph-name="emacron" unicode="&#x113;" horiz-adv-x="584" 
d="M381.5 115q34.5 20 48.5 73l114 -30q-26 -90 -89.5 -129t-149.5 -39q-126 0 -195.5 74.5t-69.5 203.5q0 90 34 153.5t94 96t137 32.5q110 0 174.5 -67t64.5 -204q0 -26 -1 -40h-364q6 -74 40 -109t89 -35q39 0 73.5 20zM181 323h222q-1 63 -27.5 94.5t-76.5 31.5
q-101 0 -118 -126zM469 737v-86h-320v86h320z" />
    <glyph glyph-name="Edotaccent" unicode="&#x116;" horiz-adv-x="666" 
d="M222 579v-162h354v-121h-354v-175h384v-121h-531v700h531v-121h-384zM287 793.5q-23 20.5 -23 58.5t23 58.5t61 20.5t61 -20.5t23 -58.5t-23 -58.5t-61 -20.5t-61 20.5z" />
    <glyph glyph-name="edotaccent" unicode="&#x117;" horiz-adv-x="584" 
d="M381.5 115q34.5 20 48.5 73l114 -30q-26 -90 -89.5 -129t-149.5 -39q-126 0 -195.5 74.5t-69.5 203.5q0 90 34 153.5t94 96t137 32.5q110 0 174.5 -67t64.5 -204q0 -26 -1 -40h-364q6 -74 40 -109t89 -35q39 0 73.5 20zM181 323h222q-1 63 -27.5 94.5t-76.5 31.5
q-101 0 -118 -126zM248 643.5q-23 20.5 -23 58.5t23 58.5t61 20.5t61 -20.5t23 -58.5t-23 -58.5t-61 -20.5t-61 20.5z" />
    <glyph glyph-name="Eogonek" unicode="&#x118;" horiz-adv-x="666" 
d="M222 579v-162h354v-121h-354v-175h384v-121h-31q-35 -25 -49.5 -40t-14.5 -33q0 -14 10.5 -23t28.5 -9q11 0 26 2.5t25 6.5v-83q-37 -11 -83 -11q-59 0 -89 24.5t-30 61.5q0 31 26 58t78 46h-428v700h531v-121h-384z" />
    <glyph glyph-name="eogonek" unicode="&#x119;" horiz-adv-x="584" 
d="M491 60q-39 -45 -46 -53q-33 -37 -43 -51.5t-10 -28.5t10.5 -23t28.5 -9q11 0 26 2.5t25 6.5v-83q-37 -11 -83 -11q-59 0 -89 24.5t-30 61.5q0 23 20.5 46.5t62.5 52.5q-24 -5 -58 -5q-126 0 -195.5 74.5t-69.5 203.5q0 90 34 153.5t94 96t137 32.5q110 0 174.5 -67
t64.5 -204q0 -26 -1 -40h-364q6 -74 40 -109t89 -35q39 0 73.5 20t48.5 73l114 -30q-17 -59 -53 -98zM181 323h222q-1 63 -27.5 94.5t-76.5 31.5q-101 0 -118 -126z" />
    <glyph glyph-name="Ecaron" unicode="&#x11a;" horiz-adv-x="666" 
d="M222 579v-162h354v-121h-354v-175h384v-121h-531v700h531v-121h-384zM412 773h-127l-113 160h69l108 -92l115 92h59z" />
    <glyph glyph-name="ecaron" unicode="&#x11b;" horiz-adv-x="584" 
d="M381.5 115q34.5 20 48.5 73l114 -30q-26 -90 -89.5 -129t-149.5 -39q-126 0 -195.5 74.5t-69.5 203.5q0 90 34 153.5t94 96t137 32.5q110 0 174.5 -67t64.5 -204q0 -26 -1 -40h-364q6 -74 40 -109t89 -35q39 0 73.5 20zM181 323h222q-1 63 -27.5 94.5t-76.5 31.5
q-101 0 -118 -126zM372 612h-127l-113 160h69l108 -92l115 92h59z" />
    <glyph glyph-name="Gbreve" unicode="&#x11e;" horiz-adv-x="768" 
d="M717 361v-361h-104l-18 115q-30 -65 -88 -95t-138 -30q-100 0 -176.5 44.5t-119 125.5t-42.5 189q0 107 42.5 188.5t123 127t191.5 45.5q123 0 204 -56t114 -161l-129 -38q-18 66 -68 98.5t-118 32.5q-98 0 -153.5 -63.5t-55.5 -169.5q0 -110 54.5 -175t152.5 -65
q73 0 122 36.5t55 103.5h-172v108h323zM281 819q-42 38 -43 107h95q0 -33 16 -50.5t43 -17.5q28 0 45 17.5t17 50.5h95q-2 -69 -44.5 -107t-112.5 -38q-69 0 -111 38z" />
    <glyph glyph-name="gbreve" unicode="&#x11f;" horiz-adv-x="619" 
d="M554 540v-501q0 -62 -33 -109.5t-93 -73.5t-137 -26q-194 0 -244 145l113 39q12 -45 46.5 -68t84.5 -23q57 0 88.5 30t31.5 86v82q-30 -39 -71.5 -60t-90.5 -21q-61 0 -108.5 31.5t-74 89.5t-26.5 133q0 76 26.5 134t74.5 90t109 32q49 0 90 -21t71 -60v71h143z
M359.5 172q30.5 17 51.5 50v143q-21 36 -52.5 53t-65.5 17q-52 0 -82 -38t-30 -104q0 -67 30.5 -102.5t82.5 -35.5q35 0 65.5 17zM201 659q-42 38 -43 107h95q0 -33 16 -50.5t43 -17.5q28 0 45 17.5t17 50.5h95q-2 -69 -44.5 -107t-112.5 -38q-69 0 -111 38z" />
    <glyph glyph-name="Gdotaccent" unicode="&#x120;" horiz-adv-x="768" 
d="M717 361v-361h-104l-18 115q-30 -65 -88 -95t-138 -30q-100 0 -176.5 44.5t-119 125.5t-42.5 189q0 107 42.5 188.5t123 127t191.5 45.5q123 0 204 -56t114 -161l-129 -38q-18 66 -68 98.5t-118 32.5q-98 0 -153.5 -63.5t-55.5 -169.5q0 -110 54.5 -175t152.5 -65
q73 0 122 36.5t55 103.5h-172v108h323zM333 793.5q-23 20.5 -23 58.5t23 58.5t61 20.5t61 -20.5t23 -58.5t-23 -58.5t-61 -20.5t-61 20.5z" />
    <glyph glyph-name="gdotaccent" unicode="&#x121;" horiz-adv-x="619" 
d="M554 540v-501q0 -62 -33 -109.5t-93 -73.5t-137 -26q-194 0 -244 145l113 39q12 -45 46.5 -68t84.5 -23q57 0 88.5 30t31.5 86v82q-30 -39 -71.5 -60t-90.5 -21q-61 0 -108.5 31.5t-74 89.5t-26.5 133q0 76 26.5 134t74.5 90t109 32q49 0 90 -21t71 -60v71h143z
M359.5 172q30.5 17 51.5 50v143q-21 36 -52.5 53t-65.5 17q-52 0 -82 -38t-30 -104q0 -67 30.5 -102.5t82.5 -35.5q35 0 65.5 17zM251 643.5q-23 20.5 -23 58.5t23 58.5t61 20.5t61 -20.5t23 -58.5t-23 -58.5t-61 -20.5t-61 20.5z" />
    <glyph glyph-name="uni0122" unicode="&#x122;" horiz-adv-x="768" 
d="M717 361v-361h-104l-18 115q-30 -65 -88 -95t-138 -30q-100 0 -176.5 44.5t-119 125.5t-42.5 189q0 107 42.5 188.5t123 127t191.5 45.5q123 0 204 -56t114 -161l-129 -38q-18 66 -68 98.5t-118 32.5q-98 0 -153.5 -63.5t-55.5 -169.5q0 -110 54.5 -175t152.5 -65
q73 0 122 36.5t55 103.5h-172v108h323zM427.5 -80.5q19.5 -23.5 19.5 -74.5q0 -137 -144 -145l-8 44q54 4 76 19.5t22 53.5q-5 -1 -16 -1q-31 0 -49.5 17.5t-18.5 47.5q0 29 17.5 45.5t50.5 16.5q31 0 50.5 -23.5z" />
    <glyph glyph-name="uni0123" unicode="&#x123;" horiz-adv-x="619" 
d="M554 540v-501q0 -62 -33 -109.5t-93 -73.5t-137 -26q-194 0 -244 145l113 39q12 -45 46.5 -68t84.5 -23q57 0 88.5 30t31.5 86v82q-30 -39 -71.5 -60t-90.5 -21q-61 0 -108.5 31.5t-74 89.5t-26.5 133q0 76 26.5 134t74.5 90t109 32q49 0 90 -21t71 -60v71h143z
M359.5 172q30.5 17 51.5 50v143q-21 36 -52.5 53t-65.5 17q-52 0 -82 -38t-30 -104q0 -67 30.5 -102.5t82.5 -35.5q35 0 65.5 17zM359.5 734.5q18.5 -17.5 18.5 -47.5q0 -29 -17.5 -45.5t-50.5 -16.5q-30 0 -50 22.5t-20 72.5q0 74 37.5 108.5t106.5 38.5l8 -44
q-52 -4 -73.5 -19t-22.5 -53q4 1 14 1q31 0 49.5 -17.5z" />
    <glyph glyph-name="Hbar" unicode="&#x126;" horiz-adv-x="752" 
d="M725 530h-48v-530h-147v299h-308v-299h-147v530h-50v79h50v91h147v-91h308v91h147v-91h48v-79zM530 530h-308v-110h308v110z" />
    <glyph glyph-name="hbar" unicode="&#x127;" horiz-adv-x="614" 
d="M506 497q48 -53 48 -150v-347h-143v336q0 49 -24 74t-63 25q-38 0 -70 -22.5t-46 -65.5v-347h-143v574h-71v64h71v62h143v-62h113v-64h-113v-120q27 49 70 72.5t97 23.5q83 0 131 -53z" />
    <glyph glyph-name="Imacron" unicode="&#x12a;" horiz-adv-x="317" 
d="M85 700h147v-700h-147v700zM319 897v-86h-320v86h320z" />
    <glyph glyph-name="imacron" unicode="&#x12b;" horiz-adv-x="273" 
d="M65 540h143v-540h-143v540zM298 737v-86h-320v86h320z" />
    <glyph glyph-name="Iogonek" unicode="&#x12e;" horiz-adv-x="317" 
d="M212 -102.5q15 2.5 25 6.5v-83q-37 -11 -83 -11q-59 0 -89 24.5t-30 61.5q0 31 26 58t78 46h-54v700h147v-700h-21q-35 -25 -49.5 -40t-14.5 -33q0 -14 10.5 -23t28.5 -9q11 0 26 2.5z" />
    <glyph glyph-name="iogonek" unicode="&#x12f;" horiz-adv-x="273" 
d="M77 643.5q-23 20.5 -23 58.5t23 58.5t61 20.5t61 -20.5t23 -58.5t-23 -58.5t-61 -20.5t-61 20.5zM136.5 -96q10.5 -9 28.5 -9q11 0 26 2.5t25 6.5v-83q-37 -11 -83 -11q-59 0 -89 24.5t-30 61.5q0 31 26 58t78 46h-53v540h143v-540h-18q-35 -25 -49.5 -40t-14.5 -33
q0 -14 10.5 -23z" />
    <glyph glyph-name="Idotaccent" unicode="&#x130;" horiz-adv-x="317" 
d="M85 700h147v-700h-147v700zM98 793.5q-23 20.5 -23 58.5t23 58.5t61 20.5t61 -20.5t23 -58.5t-23 -58.5t-61 -20.5t-61 20.5z" />
    <glyph glyph-name="dotlessi" unicode="&#x131;" horiz-adv-x="273" 
d="M65 540h143v-540h-143v540z" />
    <glyph glyph-name="IJ" unicode="&#x132;" horiz-adv-x="646" 
d="M70 700h147v-371h-147v371zM576 700v-470q0 -240 -253 -240q-118 0 -182 56.5t-69 163.5l147 28q2 -61 29 -94t78 -33q53 0 78 29.5t25 89.5v470h147z" />
    <glyph glyph-name="uni0136" unicode="&#x136;" horiz-adv-x="731" 
d="M447 396l272 -396h-186l-182 291l-129 -141v-150h-147v700h147v-404l312 404h190zM415.5 -80.5q19.5 -23.5 19.5 -74.5q0 -137 -144 -145l-8 44q54 4 76 19.5t22 53.5q-5 -1 -16 -1q-31 0 -49.5 17.5t-18.5 47.5q0 29 17.5 45.5t50.5 16.5q31 0 50.5 -23.5z" />
    <glyph glyph-name="uni0137" unicode="&#x137;" horiz-adv-x="610" 
d="M291 239l-83 -80v-159h-143v700h143v-402l224 242h172l-229 -220l233 -320h-161zM352.5 -80.5q19.5 -23.5 19.5 -74.5q0 -137 -144 -145l-8 44q54 4 76 19.5t22 53.5q-5 -1 -16 -1q-31 0 -49.5 17.5t-18.5 47.5q0 29 17.5 45.5t50.5 16.5q31 0 50.5 -23.5z" />
    <glyph glyph-name="Lacute" unicode="&#x139;" horiz-adv-x="596" 
d="M576 121v-121h-501v700h147v-579h354zM190 932h177l-194 -160h-59z" />
    <glyph glyph-name="lacute" unicode="&#x13a;" horiz-adv-x="317" 
d="M102 25q-37 34 -37 92v583h143v-580q0 -34 31 -34q21 0 42 15l17 -93q-37 -17 -87 -17q-72 0 -109 34zM199 932h177l-194 -160h-59z" />
    <glyph glyph-name="uni013B" unicode="&#x13b;" horiz-adv-x="596" 
d="M576 121v-121h-501v700h147v-579h354zM347.5 -80.5q19.5 -23.5 19.5 -74.5q0 -137 -144 -145l-8 44q54 4 76 19.5t22 53.5q-5 -1 -16 -1q-31 0 -49.5 17.5t-18.5 47.5q0 29 17.5 45.5t50.5 16.5q31 0 50.5 -23.5z" />
    <glyph glyph-name="uni013C" unicode="&#x13c;" horiz-adv-x="317" 
d="M102 25q-37 34 -37 92v583h143v-580q0 -34 31 -34q21 0 42 15l17 -93q-37 -17 -87 -17q-72 0 -109 34zM201.5 -80.5q19.5 -23.5 19.5 -74.5q0 -137 -144 -145l-8 44q54 4 76 19.5t22 53.5q-5 -1 -16 -1q-31 0 -49.5 17.5t-18.5 47.5q0 29 17.5 45.5t50.5 16.5
q31 0 50.5 -23.5z" />
    <glyph glyph-name="Lcaron" unicode="&#x13d;" horiz-adv-x="596" 
d="M576 121v-121h-501v700h147v-579h354zM323 700h126l-67 -160h-59v160z" />
    <glyph glyph-name="lcaron" unicode="&#x13e;" horiz-adv-x="317" 
d="M102 25q-37 34 -37 92v583h143v-580q0 -34 31 -34q21 0 42 15l17 -93q-37 -17 -87 -17q-72 0 -109 34zM264 700h126l-67 -160h-59v160z" />
    <glyph glyph-name="Lslash" unicode="&#x141;" horiz-adv-x="596" 
d="M576 121v-121h-501v231l-84 -70v115l84 49v375h147v-274l146 106v-116l-146 -78v-217h354z" />
    <glyph glyph-name="lslash" unicode="&#x142;" horiz-adv-x="317" 
d="M298 8q-37 -17 -87 -17q-72 0 -109 34t-37 92v87l-66 -63v115l66 50v394h143v-271l78 73v-116l-78 -55v-211q0 -34 31 -34q21 0 42 15z" />
    <glyph glyph-name="Nacute" unicode="&#x143;" horiz-adv-x="799" 
d="M724 700v-700h-208l-302 561v-561h-139v700h208l302 -560v560h139zM440 932h177l-194 -160h-59z" />
    <glyph glyph-name="nacute" unicode="&#x144;" horiz-adv-x="614" 
d="M506 497q48 -53 48 -150v-347h-143v336q0 49 -24 74t-63 25q-38 0 -70 -22.5t-46 -65.5v-347h-143v540h138v-96q26 54 71 80t101 26q83 0 131 -53zM323 772h177l-194 -160h-59z" />
    <glyph glyph-name="uni0145" unicode="&#x145;" horiz-adv-x="799" 
d="M724 700v-700h-208l-302 561v-561h-139v700h208l302 -560v560h139zM449.5 -80.5q19.5 -23.5 19.5 -74.5q0 -137 -144 -145l-8 44q54 4 76 19.5t22 53.5q-5 -1 -16 -1q-31 0 -49.5 17.5t-18.5 47.5q0 29 17.5 45.5t50.5 16.5q31 0 50.5 -23.5z" />
    <glyph glyph-name="uni0146" unicode="&#x146;" horiz-adv-x="614" 
d="M506 497q48 -53 48 -150v-347h-143v336q0 49 -24 74t-63 25q-38 0 -70 -22.5t-46 -65.5v-347h-143v540h138v-96q26 54 71 80t101 26q83 0 131 -53zM348.5 -80.5q19.5 -23.5 19.5 -74.5q0 -137 -144 -145l-8 44q54 4 76 19.5t22 53.5q-5 -1 -16 -1q-31 0 -49.5 17.5
t-18.5 47.5q0 29 17.5 45.5t50.5 16.5q31 0 50.5 -23.5z" />
    <glyph glyph-name="Ncaron" unicode="&#x147;" horiz-adv-x="799" 
d="M724 700v-700h-208l-302 561v-561h-139v700h208l302 -560v560h139zM464 773h-127l-113 160h69l108 -92l115 92h59z" />
    <glyph glyph-name="ncaron" unicode="&#x148;" horiz-adv-x="614" 
d="M506 497q48 -53 48 -150v-347h-143v336q0 49 -24 74t-63 25q-38 0 -70 -22.5t-46 -65.5v-347h-143v540h138v-96q26 54 71 80t101 26q83 0 131 -53zM367 612h-127l-113 160h69l108 -92l115 92h59z" />
    <glyph glyph-name="Eng" unicode="&#x14a;" horiz-adv-x="799" 
d="M724 700v-670q0 -96 -54.5 -148t-155.5 -52q-13 0 -41 2v96q11 -4 27 -4q49 0 67.5 15.5t18.5 55.5v20l-372 563v-578h-139v700h208l302 -455v455h139z" />
    <glyph glyph-name="eng" unicode="&#x14b;" horiz-adv-x="614" 
d="M506 497q48 -53 48 -150v-347q0 -78 -59.5 -124t-155.5 -46q-13 0 -41 2v96q11 -4 27 -4q46 0 66 17t20 59v336q0 49 -24 74t-63 25q-38 0 -70 -22.5t-46 -65.5v-347h-143v540h138v-96q26 54 71 80t101 26q83 0 131 -53z" />
    <glyph glyph-name="Omacron" unicode="&#x14c;" horiz-adv-x="774" 
d="M573.5 665q80.5 -45 125 -127t44.5 -189q0 -106 -44.5 -187.5t-125 -126.5t-186.5 -45t-186.5 45t-125 126.5t-44.5 187.5q0 107 44.5 189t125 127t186.5 45t186.5 -45zM493.5 142q46.5 28 72.5 81t26 127t-26 127t-72.5 81t-106.5 28t-106.5 -28t-72.5 -81t-26 -127
t26 -127t72.5 -81t106.5 -28t106.5 28zM547 897v-86h-320v86h320z" />
    <glyph glyph-name="omacron" unicode="&#x14d;" horiz-adv-x="612" 
d="M447 515.5q60 -34.5 92.5 -98t32.5 -147.5t-32.5 -147.5t-92.5 -98t-141 -34.5t-141 34.5t-92.5 98t-32.5 147.5t32.5 147.5t92.5 98t141 34.5t141 -34.5zM398.5 148q32.5 43 32.5 122t-32.5 122t-92.5 43t-92.5 -43t-32.5 -122t32.5 -122t92.5 -43t92.5 43zM466 737v-86
h-320v86h320z" />
    <glyph glyph-name="Ohungarumlaut" unicode="&#x150;" horiz-adv-x="774" 
d="M573.5 665q80.5 -45 125 -127t44.5 -189q0 -106 -44.5 -187.5t-125 -126.5t-186.5 -45t-186.5 45t-125 126.5t-44.5 187.5q0 107 44.5 189t125 127t186.5 45t186.5 -45zM493.5 142q46.5 28 72.5 81t26 127t-26 127t-72.5 81t-106.5 28t-106.5 -28t-72.5 -81t-26 -127
t26 -127t72.5 -81t106.5 -28t106.5 28zM304 932h144l-120 -160h-58zM480 932h144l-120 -160h-58z" />
    <glyph glyph-name="ohungarumlaut" unicode="&#x151;" horiz-adv-x="612" 
d="M447 515.5q60 -34.5 92.5 -98t32.5 -147.5t-32.5 -147.5t-92.5 -98t-141 -34.5t-141 34.5t-92.5 98t-32.5 147.5t32.5 147.5t92.5 98t141 34.5t141 -34.5zM398.5 148q32.5 43 32.5 122t-32.5 122t-92.5 43t-92.5 -43t-32.5 -122t32.5 -122t92.5 -43t92.5 43zM223 772h144
l-120 -160h-58zM399 772h144l-120 -160h-58z" />
    <glyph glyph-name="OE" unicode="&#x152;" horiz-adv-x="1122" 
d="M678 579v-162h354v-121h-354v-175h384v-121h-666q-115 0 -197 44.5t-125 124.5t-43 185t43.5 183t126.5 120.5t198 42.5h663v-121h-384zM531 121v458h-130q-108 0 -163.5 -58t-55.5 -167q0 -112 54.5 -172.5t161.5 -60.5h133z" />
    <glyph glyph-name="oe" unicode="&#x153;" horiz-adv-x="975" 
d="M772.5 115q34.5 20 48.5 73l114 -30q-26 -90 -89.5 -129t-150.5 -39q-137 0 -198 93q-60 -93 -191 -93q-81 0 -141 34.5t-92.5 98t-32.5 147.5t32.5 147.5t92.5 98t141 34.5q67 0 115.5 -24.5t76.5 -70.5q31 47 80.5 71t114.5 24q112 0 177 -67t65 -203q0 -27 -1 -41
h-364q9 -144 127 -144q41 0 75.5 20zM573 324h229q-1 125 -110 125q-101 0 -119 -125zM399.5 146.5q33.5 44.5 33.5 123.5t-33.5 123.5t-93.5 44.5q-61 0 -94 -44t-33 -124q0 -79 33.5 -123.5t93.5 -44.5t93.5 44.5z" />
    <glyph glyph-name="Racute" unicode="&#x154;" horiz-adv-x="703" 
d="M505 0l-137 268h-146v-268h-147v700h319q124 0 191 -57.5t67 -161.5q0 -77 -41.5 -128t-116.5 -72l179 -281h-168zM222 378h133q74 0 112 25t38 78q0 54 -37 78.5t-112 24.5h-134v-206zM373 932h177l-194 -160h-59z" />
    <glyph glyph-name="racute" unicode="&#x155;" horiz-adv-x="429" 
d="M290 513.5q52 33.5 124 33.5v-149q-38 8 -65 8q-95 0 -141 -80v-326h-143v540h143v-123q30 63 82 96.5zM237 772h177l-194 -160h-59z" />
    <glyph glyph-name="uni0156" unicode="&#x156;" horiz-adv-x="703" 
d="M505 0l-137 268h-146v-268h-147v700h319q124 0 191 -57.5t67 -161.5q0 -77 -41.5 -128t-116.5 -72l179 -281h-168zM222 378h133q74 0 112 25t38 78q0 54 -37 78.5t-112 24.5h-134v-206zM392.5 -80.5q19.5 -23.5 19.5 -74.5q0 -137 -144 -145l-8 44q54 4 76 19.5t22 53.5
q-5 -1 -16 -1q-31 0 -49.5 17.5t-18.5 47.5q0 29 17.5 45.5t50.5 16.5q31 0 50.5 -23.5z" />
    <glyph glyph-name="uni0157" unicode="&#x157;" horiz-adv-x="429" 
d="M290 513.5q52 33.5 124 33.5v-149q-38 8 -65 8q-95 0 -141 -80v-326h-143v540h143v-123q30 63 82 96.5zM178.5 -80.5q19.5 -23.5 19.5 -74.5q0 -137 -144 -145l-8 44q54 4 76 19.5t22 53.5q-5 -1 -16 -1q-31 0 -49.5 17.5t-18.5 47.5q0 29 17.5 45.5t50.5 16.5
q31 0 50.5 -23.5z" />
    <glyph glyph-name="Rcaron" unicode="&#x158;" horiz-adv-x="703" 
d="M505 0l-137 268h-146v-268h-147v700h319q124 0 191 -57.5t67 -161.5q0 -77 -41.5 -128t-116.5 -72l179 -281h-168zM222 378h133q74 0 112 25t38 78q0 54 -37 78.5t-112 24.5h-134v-206zM397 773h-127l-113 160h69l108 -92l115 92h59z" />
    <glyph glyph-name="rcaron" unicode="&#x159;" horiz-adv-x="429" 
d="M290 513.5q52 33.5 124 33.5v-149q-38 8 -65 8q-95 0 -141 -80v-326h-143v540h143v-123q30 63 82 96.5zM281 612h-127l-113 160h69l108 -92l115 92h59z" />
    <glyph glyph-name="Sacute" unicode="&#x15a;" horiz-adv-x="638" 
d="M127.5 43q-79.5 53 -107.5 153l138 35q17 -65 63.5 -97.5t110.5 -32.5q58 0 94 25t36 64q0 30 -21 48t-53.5 28.5t-89.5 22.5q-80 18 -130.5 37t-87 60t-36.5 112q0 100 73.5 156t195.5 56q113 0 183.5 -45.5t94.5 -133.5l-123 -36q-32 108 -155 108q-54 0 -87 -23.5
t-33 -61.5q0 -31 22 -49.5t54.5 -28.5t92.5 -23q81 -17 132 -35.5t87.5 -59t36.5 -111.5q0 -69 -36 -119t-101.5 -76t-151.5 -26q-122 0 -201.5 53zM359 932h177l-194 -160h-59z" />
    <glyph glyph-name="sacute" unicode="&#x15b;" horiz-adv-x="545" 
d="M114.5 31q-67.5 41 -84.5 118l135 30q22 -93 126 -93q39 0 62 17.5t23 45.5q0 33 -31.5 46.5t-97.5 25.5q-65 12 -105.5 25.5t-70 46t-29.5 90.5q0 48 28 86t78.5 59t115.5 21q88 0 149.5 -34.5t83.5 -104.5l-118 -28q-14 40 -44.5 56t-68.5 16q-39 0 -59.5 -16.5
t-20.5 -42.5q0 -30 28.5 -42t91.5 -23q65 -11 106 -24.5t70.5 -47.5t29.5 -96q0 -50 -28.5 -89t-79.5 -61t-116 -22q-106 0 -173.5 41zM297 772h177l-194 -160h-59z" />
    <glyph glyph-name="Scedilla" unicode="&#x15e;" horiz-adv-x="638" 
d="M542.5 51.5q-75.5 -58.5 -201.5 -61.5l-13 -53h5q42 0 69.5 -25.5t27.5 -63.5q0 -39 -29.5 -64t-74.5 -25q-47 0 -79.5 26.5t-36.5 68.5l60 8q8 -48 50 -48q18 0 29.5 9t11.5 25q0 18 -14.5 28.5t-42.5 10.5h-25l-15 31l24 74q-105 8 -174 60t-94 144l138 35
q17 -65 63.5 -97.5t110.5 -32.5q58 0 94 25t36 64q0 30 -21 48t-53.5 28.5t-89.5 22.5q-80 18 -130.5 37t-87 60t-36.5 112q0 100 73.5 156t195.5 56q113 0 183.5 -45.5t94.5 -133.5l-123 -36q-32 108 -155 108q-54 0 -87 -23.5t-33 -61.5q0 -31 22 -49.5t54.5 -28.5
t92.5 -23q81 -17 132 -35.5t87.5 -59t36.5 -111.5q0 -101 -75.5 -159.5z" />
    <glyph glyph-name="scedilla" unicode="&#x15f;" horiz-adv-x="545" 
d="M485 75.5q-27 -38.5 -75 -61t-110 -24.5l-13 -53h5q42 0 69.5 -25.5t27.5 -63.5q0 -39 -29.5 -64t-74.5 -25q-47 0 -79.5 26.5t-36.5 68.5l60 8q8 -48 50 -48q18 0 29.5 9t11.5 25q0 18 -14.5 28.5t-42.5 10.5h-25l-15 31l24 74q-89 8 -145 48t-72 109l135 30
q22 -93 126 -93q39 0 62 17.5t23 45.5q0 33 -31.5 46.5t-97.5 25.5q-65 12 -105.5 25.5t-70 46t-29.5 90.5q0 48 28 86t78.5 59t115.5 21q88 0 149.5 -34.5t83.5 -104.5l-118 -28q-14 40 -44.5 56t-68.5 16q-39 0 -59.5 -16.5t-20.5 -42.5q0 -30 28.5 -42t91.5 -23
q65 -11 106 -24.5t70.5 -47.5t29.5 -96q0 -48 -27 -86.5z" />
    <glyph glyph-name="Scaron" unicode="&#x160;" horiz-adv-x="638" 
d="M127.5 43q-79.5 53 -107.5 153l138 35q17 -65 63.5 -97.5t110.5 -32.5q58 0 94 25t36 64q0 30 -21 48t-53.5 28.5t-89.5 22.5q-80 18 -130.5 37t-87 60t-36.5 112q0 100 73.5 156t195.5 56q113 0 183.5 -45.5t94.5 -133.5l-123 -36q-32 108 -155 108q-54 0 -87 -23.5
t-33 -61.5q0 -31 22 -49.5t54.5 -28.5t92.5 -23q81 -17 132 -35.5t87.5 -59t36.5 -111.5q0 -69 -36 -119t-101.5 -76t-151.5 -26q-122 0 -201.5 53zM383 773h-127l-113 160h69l108 -92l115 92h59z" />
    <glyph glyph-name="scaron" unicode="&#x161;" horiz-adv-x="545" 
d="M114.5 31q-67.5 41 -84.5 118l135 30q22 -93 126 -93q39 0 62 17.5t23 45.5q0 33 -31.5 46.5t-97.5 25.5q-65 12 -105.5 25.5t-70 46t-29.5 90.5q0 48 28 86t78.5 59t115.5 21q88 0 149.5 -34.5t83.5 -104.5l-118 -28q-14 40 -44.5 56t-68.5 16q-39 0 -59.5 -16.5
t-20.5 -42.5q0 -30 28.5 -42t91.5 -23q65 -11 106 -24.5t70.5 -47.5t29.5 -96q0 -50 -28.5 -89t-79.5 -61t-116 -22q-106 0 -173.5 41zM341 612h-127l-113 160h69l108 -92l115 92h59z" />
    <glyph glyph-name="uni0162" unicode="&#x162;" horiz-adv-x="661" 
d="M355 0l-15 -63h5q42 0 69.5 -25.5t27.5 -63.5q0 -39 -29.5 -64t-74.5 -25q-47 0 -79.5 26.5t-36.5 68.5l60 8q8 -48 50 -48q18 0 29.5 9t11.5 25q0 18 -14.5 28.5t-42.5 10.5h-25l-15 31l27 82h-46v579h-227v121h601v-121h-227v-579h-49z" />
    <glyph glyph-name="uni0163" unicode="&#x163;" horiz-adv-x="392" 
d="M325.5 -88.5q27.5 -25.5 27.5 -63.5q0 -39 -29.5 -64t-74.5 -25q-47 0 -79.5 26.5t-36.5 68.5l60 8q8 -48 50 -48q18 0 29.5 9t11.5 25q0 18 -14.5 28.5t-42.5 10.5h-25l-15 31l26 79q-63 14 -93 57.5t-30 127.5v248h-80v110h80v160h143v-160h120v-110h-120v-243
q0 -56 17 -75.5t55 -19.5q25 0 44 16l25 -102q-16 -7 -41 -11.5t-44 -4.5q-17 0 -25 1l-13 -54h5q42 0 69.5 -25.5z" />
    <glyph glyph-name="Tcaron" unicode="&#x164;" horiz-adv-x="661" 
d="M631 579h-227v-579h-147v579h-227v121h601v-121zM395 773h-127l-113 160h69l108 -92l115 92h59z" />
    <glyph glyph-name="tcaron" unicode="&#x165;" horiz-adv-x="392" 
d="M374 6q-16 -7 -41 -11.5t-44 -4.5q-103 0 -151 43.5t-48 148.5v248h-80v110h80v160h143v-160h120v-110h-120v-243q0 -56 17 -75.5t55 -19.5q25 0 44 16zM279 742h126l-67 -160h-59v160z" />
    <glyph glyph-name="Tbar" unicode="&#x166;" horiz-adv-x="661" 
d="M404 579v-186h114v-87h-114v-306h-147v306h-114v87h114v186h-227v121h601v-121h-227z" />
    <glyph glyph-name="tbar" unicode="&#x167;" horiz-adv-x="392" 
d="M374 6q-16 -7 -41 -11.5t-44 -4.5q-103 0 -151 43.5t-48 148.5v66h-79v82h79v100h-80v110h80v160h143v-160h120v-110h-120v-100h105v-82h-105v-61q0 -56 17 -75.5t55 -19.5q25 0 44 16z" />
    <glyph glyph-name="Umacron" unicode="&#x16a;" horiz-adv-x="750" 
d="M680 700v-428q0 -150 -79 -216t-226 -66t-226 66t-79 216v428h147v-418q0 -81 41.5 -124.5t116.5 -43.5t116.5 43.5t41.5 124.5v418h147zM535 897v-86h-320v86h320z" />
    <glyph glyph-name="umacron" unicode="&#x16b;" horiz-adv-x="614" 
d="M549 540v-540h-138v96q-26 -54 -71 -80t-101 -26q-83 0 -131 53t-48 150v347h143v-336q0 -49 24 -74t63 -25q38 0 70 22.5t46 65.5v347h143zM468 737v-86h-320v86h320z" />
    <glyph glyph-name="Uring" unicode="&#x16e;" horiz-adv-x="750" 
d="M680 700v-428q0 -150 -79 -216t-226 -66t-226 66t-79 216v428h147v-418q0 -81 41.5 -124.5t116.5 -43.5t116.5 43.5t41.5 124.5v418h147zM290.5 793.5q-32.5 30.5 -32.5 78.5t32.5 78t84.5 30t84.5 -30t32.5 -78t-32.5 -78.5t-84.5 -30.5t-84.5 30.5zM414.5 834
q15.5 15 15.5 38t-15.5 37.5t-38.5 14.5q-24 0 -39.5 -14.5t-15.5 -37.5t15.5 -38t39.5 -15q23 0 38.5 15z" />
    <glyph glyph-name="uring" unicode="&#x16f;" horiz-adv-x="614" 
d="M549 540v-540h-138v96q-26 -54 -71 -80t-101 -26q-83 0 -131 53t-48 150v347h143v-336q0 -49 24 -74t63 -25q38 0 70 22.5t46 65.5v347h143zM223.5 636.5q-32.5 30.5 -32.5 78.5t32.5 78t84.5 30t84.5 -30t32.5 -78t-32.5 -78.5t-84.5 -30.5t-84.5 30.5zM347.5 677
q15.5 15 15.5 38t-15.5 37.5t-38.5 14.5q-24 0 -39.5 -14.5t-15.5 -37.5t15.5 -38t39.5 -15q23 0 38.5 15z" />
    <glyph glyph-name="Uhungarumlaut" unicode="&#x170;" horiz-adv-x="750" 
d="M680 700v-428q0 -150 -79 -216t-226 -66t-226 66t-79 216v428h147v-418q0 -81 41.5 -124.5t116.5 -43.5t116.5 43.5t41.5 124.5v418h147zM292 932h144l-120 -160h-58zM468 932h144l-120 -160h-58z" />
    <glyph glyph-name="uhungarumlaut" unicode="&#x171;" horiz-adv-x="614" 
d="M549 540v-540h-138v96q-26 -54 -71 -80t-101 -26q-83 0 -131 53t-48 150v347h143v-336q0 -49 24 -74t63 -25q38 0 70 22.5t46 65.5v347h143zM225 772h144l-120 -160h-58zM401 772h144l-120 -160h-58z" />
    <glyph glyph-name="Uogonek" unicode="&#x172;" horiz-adv-x="750" 
d="M680 700v-428q0 -123 -53.5 -189t-155.5 -85q-33 -24 -47 -39t-14 -32q0 -14 10.5 -23t28.5 -9q11 0 26 2.5t25 6.5v-83q-37 -11 -83 -11q-59 0 -89 24.5t-30 61.5q0 57 80 94h-3q-147 0 -226 66t-79 216v428h147v-418q0 -81 41.5 -124.5t116.5 -43.5t116.5 43.5
t41.5 124.5v418h147z" />
    <glyph glyph-name="uogonek" unicode="&#x173;" horiz-adv-x="614" 
d="M459.5 -40q-14.5 -15 -14.5 -33q0 -14 10.5 -23t28.5 -9q11 0 26 2.5t25 6.5v-83q-37 -11 -83 -11q-59 0 -89 24.5t-30 61.5q0 31 26 58t78 46h-26v96q-26 -54 -71 -80t-101 -26q-83 0 -131 53t-48 150v347h143v-336q0 -49 24 -74t63 -25q38 0 70 22.5t46 65.5v347h143
v-540h-40q-35 -25 -49.5 -40z" />
    <glyph glyph-name="Wcircumflex" unicode="&#x174;" horiz-adv-x="991" 
d="M986 700l-167 -700h-192l-131 517l-132 -517h-192l-167 700h154l116 -579l125 579h191l125 -579l116 579h154zM589 772l-94 89l-95 -89h-82l113 160h127l111 -160h-80z" />
    <glyph glyph-name="wcircumflex" unicode="&#x175;" horiz-adv-x="820" 
d="M810 540l-150 -540h-153l-96 387l-96 -387h-155l-150 540h144l82 -405l94 405h162l94 -402l81 402h143zM505 612l-94 89l-95 -89h-82l113 160h127l111 -160h-80z" />
    <glyph glyph-name="Ycircumflex" unicode="&#x176;" horiz-adv-x="634" 
d="M629 700l-238 -436v-264h-148v264l-238 436h174l138 -336l137 336h175zM411 772l-94 89l-95 -89h-82l113 160h127l111 -160h-80z" />
    <glyph glyph-name="ycircumflex" unicode="&#x177;" horiz-adv-x="537" 
d="M532 540l-177 -488q-41 -112 -105 -167t-157 -55q-15 0 -22 1l-24 107q17 -4 49 -4q38 0 60 15t49 60l-200 531h159l108 -386l113 386h147zM372 612l-94 89l-95 -89h-82l113 160h127l111 -160h-80z" />
    <glyph glyph-name="Ydieresis" unicode="&#x178;" horiz-adv-x="634" 
d="M629 700l-238 -436v-264h-148v264l-238 436h174l138 -336l137 336h175zM147.5 794q-21.5 20 -21.5 56t21.5 56t58.5 20t59 -20t22 -56t-22 -56t-59 -20t-58.5 20zM368.5 794q-21.5 20 -21.5 56t21.5 56t58.5 20t59 -20t22 -56t-22 -56t-59 -20t-58.5 20z" />
    <glyph glyph-name="Zacute" unicode="&#x179;" horiz-adv-x="649" 
d="M611 111v-111h-576v96l396 493h-390v111h558v-103l-391 -486h403zM365 932h177l-194 -160h-59z" />
    <glyph glyph-name="zacute" unicode="&#x17a;" horiz-adv-x="506" 
d="M472 110v-110h-440v87l273 343h-273v110h432v-96l-254 -334h262zM272 772h177l-194 -160h-59z" />
    <glyph glyph-name="Zdotaccent" unicode="&#x17b;" horiz-adv-x="649" 
d="M611 111v-111h-576v96l396 493h-390v111h558v-103l-391 -486h403zM264 793.5q-23 20.5 -23 58.5t23 58.5t61 20.5t61 -20.5t23 -58.5t-23 -58.5t-61 -20.5t-61 20.5z" />
    <glyph glyph-name="zdotaccent" unicode="&#x17c;" horiz-adv-x="506" 
d="M472 110v-110h-440v87l273 343h-273v110h432v-96l-254 -334h262zM192 643.5q-23 20.5 -23 58.5t23 58.5t61 20.5t61 -20.5t23 -58.5t-23 -58.5t-61 -20.5t-61 20.5z" />
    <glyph glyph-name="Zcaron" unicode="&#x17d;" horiz-adv-x="649" 
d="M611 111v-111h-576v96l396 493h-390v111h558v-103l-391 -486h403zM389 773h-127l-113 160h69l108 -92l115 92h59z" />
    <glyph glyph-name="zcaron" unicode="&#x17e;" horiz-adv-x="506" 
d="M472 110v-110h-440v87l273 343h-273v110h432v-96l-254 -334h262zM316 612h-127l-113 160h69l108 -92l115 92h59z" />
    <glyph glyph-name="uni0218" unicode="&#x218;" horiz-adv-x="638" 
d="M127.5 43q-79.5 53 -107.5 153l138 35q17 -65 63.5 -97.5t110.5 -32.5q58 0 94 25t36 64q0 30 -21 48t-53.5 28.5t-89.5 22.5q-80 18 -130.5 37t-87 60t-36.5 112q0 100 73.5 156t195.5 56q113 0 183.5 -45.5t94.5 -133.5l-123 -36q-32 108 -155 108q-54 0 -87 -23.5
t-33 -61.5q0 -31 22 -49.5t54.5 -28.5t92.5 -23q81 -17 132 -35.5t87.5 -59t36.5 -111.5q0 -69 -36 -119t-101.5 -76t-151.5 -26q-122 0 -201.5 53zM368.5 -80.5q19.5 -23.5 19.5 -74.5q0 -137 -144 -145l-8 44q54 4 76 19.5t22 53.5q-5 -1 -16 -1q-31 0 -49.5 17.5
t-18.5 47.5q0 29 17.5 45.5t50.5 16.5q31 0 50.5 -23.5z" />
    <glyph glyph-name="uni0219" unicode="&#x219;" horiz-adv-x="545" 
d="M114.5 31q-67.5 41 -84.5 118l135 30q22 -93 126 -93q39 0 62 17.5t23 45.5q0 33 -31.5 46.5t-97.5 25.5q-65 12 -105.5 25.5t-70 46t-29.5 90.5q0 48 28 86t78.5 59t115.5 21q88 0 149.5 -34.5t83.5 -104.5l-118 -28q-14 40 -44.5 56t-68.5 16q-39 0 -59.5 -16.5
t-20.5 -42.5q0 -30 28.5 -42t91.5 -23q65 -11 106 -24.5t70.5 -47.5t29.5 -96q0 -50 -28.5 -89t-79.5 -61t-116 -22q-106 0 -173.5 41zM327.5 -80.5q19.5 -23.5 19.5 -74.5q0 -137 -144 -145l-8 44q54 4 76 19.5t22 53.5q-5 -1 -16 -1q-31 0 -49.5 17.5t-18.5 47.5
q0 29 17.5 45.5t50.5 16.5q31 0 50.5 -23.5z" />
    <glyph glyph-name="uni021A" unicode="&#x21a;" horiz-adv-x="661" 
d="M631 579h-227v-579h-147v579h-227v121h601v-121zM380.5 -80.5q19.5 -23.5 19.5 -74.5q0 -137 -144 -145l-8 44q54 4 76 19.5t22 53.5q-5 -1 -16 -1q-31 0 -49.5 17.5t-18.5 47.5q0 29 17.5 45.5t50.5 16.5q31 0 50.5 -23.5z" />
    <glyph glyph-name="uni021B" unicode="&#x21b;" horiz-adv-x="392" 
d="M374 6q-16 -7 -41 -11.5t-44 -4.5q-103 0 -151 43.5t-48 148.5v248h-80v110h80v160h143v-160h120v-110h-120v-243q0 -56 17 -75.5t55 -19.5q25 0 44 16zM291.5 -80.5q19.5 -23.5 19.5 -74.5q0 -137 -144 -145l-8 44q54 4 76 19.5t22 53.5q-5 -1 -16 -1q-31 0 -49.5 17.5
t-18.5 47.5q0 29 17.5 45.5t50.5 16.5q31 0 50.5 -23.5z" />
    <glyph glyph-name="uni0237" unicode="&#x237;" horiz-adv-x="270" 
d="M205 540v-488q0 -108 -57.5 -165t-154.5 -57q-14 0 -21 1l-19 97q9 -4 26 -4q46 0 64.5 27t18.5 96v493h143z" />
    <glyph glyph-name="gravecomb" unicode="&#x300;" horiz-adv-x="0" 
d="M-303 612l-194 160h177l76 -160h-59z" />
    <glyph glyph-name="acutecomb" unicode="&#x301;" horiz-adv-x="0" 
d="M-281 772h177l-194 -160h-59z" />
    <glyph glyph-name="uni0302" unicode="&#x302;" horiz-adv-x="0" 
d="M-205 612l-94 89l-95 -89h-82l113 160h127l111 -160h-80z" />
    <glyph glyph-name="tildecomb" unicode="&#x303;" horiz-adv-x="0" 
d="M-270.5 646.5q-16.5 7.5 -35.5 21.5q-17 11 -25.5 15.5t-20.5 4.5q-35 0 -37 -43h-84q1 61 30 90.5t76 29.5q23 0 38.5 -7.5t34.5 -21.5q15 -11 24.5 -16t21.5 -5q36 0 38 43h84q0 -61 -28 -90t-76 -29q-24 0 -40.5 7.5z" />
    <glyph glyph-name="uni0304" unicode="&#x304;" horiz-adv-x="0" 
d="M-140 737v-86h-320v86h320z" />
    <glyph glyph-name="uni0306" unicode="&#x306;" horiz-adv-x="0" 
d="M-403 659q-42 38 -43 107h95q0 -33 16 -50.5t43 -17.5q28 0 45 17.5t17 50.5h95q-2 -69 -44.5 -107t-112.5 -38q-69 0 -111 38z" />
    <glyph glyph-name="uni0307" unicode="&#x307;" horiz-adv-x="0" 
d="M-361 643.5q-23 20.5 -23 58.5t23 58.5t61 20.5t61 -20.5t23 -58.5t-23 -58.5t-61 -20.5t-61 20.5z" />
    <glyph glyph-name="uni0308" unicode="&#x308;" horiz-adv-x="0" 
d="M-469.5 646q-21.5 20 -21.5 56t21.5 56t58.5 20t59 -20t22 -56t-22 -56t-59 -20t-58.5 20zM-248.5 646q-21.5 20 -21.5 56t21.5 56t58.5 20t59 -20t22 -56t-22 -56t-59 -20t-58.5 20z" />
    <glyph glyph-name="uni030A" unicode="&#x30a;" horiz-adv-x="0" 
d="M-384.5 636.5q-32.5 30.5 -32.5 78.5t32.5 78t84.5 30t84.5 -30t32.5 -78t-32.5 -78.5t-84.5 -30.5t-84.5 30.5zM-260.5 677q15.5 15 15.5 38t-15.5 37.5t-38.5 14.5q-24 0 -39.5 -14.5t-15.5 -37.5t15.5 -38t39.5 -15q23 0 38.5 15z" />
    <glyph glyph-name="uni030B" unicode="&#x30b;" horiz-adv-x="0" 
d="M-383 772h144l-120 -160h-58zM-207 772h144l-120 -160h-58z" />
    <glyph glyph-name="uni030C" unicode="&#x30c;" horiz-adv-x="0" 
d="M-237 612h-127l-113 160h69l108 -92l115 92h59z" />
    <glyph glyph-name="uni0312" unicode="&#x312;" horiz-adv-x="0" 
d="M-252.5 734.5q18.5 -17.5 18.5 -47.5q0 -29 -17.5 -45.5t-50.5 -16.5q-30 0 -50 22.5t-20 72.5q0 74 37.5 108.5t106.5 38.5l8 -44q-52 -4 -73.5 -19t-22.5 -53q4 1 14 1q31 0 49.5 -17.5z" />
    <glyph glyph-name="uni0326" unicode="&#x326;" horiz-adv-x="0" 
d="M-247.5 -80.5q19.5 -23.5 19.5 -74.5q0 -137 -144 -145l-8 44q54 4 76 19.5t22 53.5q-5 -1 -16 -1q-31 0 -49.5 17.5t-18.5 47.5q0 29 17.5 45.5t50.5 16.5q31 0 50.5 -23.5z" />
    <glyph glyph-name="uni0327" unicode="&#x327;" horiz-adv-x="0" 
d="M-324 9h51l-17 -72h5q42 0 69.5 -25.5t27.5 -63.5q0 -39 -29.5 -64t-74.5 -25q-47 0 -79.5 26.5t-36.5 68.5l60 8q7 -48 50 -48q18 0 29.5 9t11.5 25q0 18 -14.5 28.5t-42.5 10.5h-25l-15 31z" />
    <glyph glyph-name="uni0328" unicode="&#x328;" horiz-adv-x="0" 
d="M-362 -34q39 31 116 49l21 -15q-35 -25 -49.5 -40t-14.5 -33q0 -14 10.5 -23t28.5 -9q11 0 26 2.5t25 6.5v-83q-37 -11 -83 -11q-59 0 -89 24.5t-30 61.5q0 39 39 70z" />
    <glyph glyph-name="uni0335" unicode="&#x335;" horiz-adv-x="0" 
d="M-112 396v-87h-375v87h375z" />
    <glyph glyph-name="uni0336" unicode="&#x336;" horiz-adv-x="0" 
d="M50 392v-79h-700v79h700z" />
    <glyph glyph-name="uni0337" unicode="&#x337;" horiz-adv-x="0" 
d="M-315 299l223 280l58 -47l-231 -275l-233 -292l-60 51z" />
    <glyph glyph-name="uni0338" unicode="&#x338;" horiz-adv-x="0" 
d="M-346 357l322 380l68 -62l-314 -350l-309 -363l-68 60z" />
    <glyph glyph-name="Wgrave" unicode="&#x1e80;" horiz-adv-x="991" 
d="M986 700l-167 -700h-192l-131 517l-132 -517h-192l-167 700h154l116 -579l125 579h191l125 -579l116 579h154zM492 772l-194 160h177l76 -160h-59z" />
    <glyph glyph-name="wgrave" unicode="&#x1e81;" horiz-adv-x="820" 
d="M810 540l-150 -540h-153l-96 387l-96 -387h-155l-150 540h144l82 -405l94 405h162l94 -402l81 402h143zM407 612l-194 160h177l76 -160h-59z" />
    <glyph glyph-name="Wacute" unicode="&#x1e82;" horiz-adv-x="991" 
d="M986 700l-167 -700h-192l-131 517l-132 -517h-192l-167 700h154l116 -579l125 579h191l125 -579l116 579h154zM535 932h177l-194 -160h-59z" />
    <glyph glyph-name="wacute" unicode="&#x1e83;" horiz-adv-x="820" 
d="M810 540l-150 -540h-153l-96 387l-96 -387h-155l-150 540h144l82 -405l94 405h162l94 -402l81 402h143zM429 772h177l-194 -160h-59z" />
    <glyph glyph-name="Wdieresis" unicode="&#x1e84;" horiz-adv-x="991" 
d="M986 700l-167 -700h-192l-131 517l-132 -517h-192l-167 700h154l116 -579l125 579h191l125 -579l116 579h154zM325.5 794q-21.5 20 -21.5 56t21.5 56t58.5 20t59 -20t22 -56t-22 -56t-59 -20t-58.5 20zM546.5 794q-21.5 20 -21.5 56t21.5 56t58.5 20t59 -20t22 -56
t-22 -56t-59 -20t-58.5 20z" />
    <glyph glyph-name="wdieresis" unicode="&#x1e85;" horiz-adv-x="820" 
d="M810 540l-150 -540h-153l-96 387l-96 -387h-155l-150 540h144l82 -405l94 405h162l94 -402l81 402h143zM240.5 646q-21.5 20 -21.5 56t21.5 56t58.5 20t59 -20t22 -56t-22 -56t-59 -20t-58.5 20zM461.5 646q-21.5 20 -21.5 56t21.5 56t58.5 20t59 -20t22 -56t-22 -56
t-59 -20t-58.5 20z" />
    <glyph glyph-name="uni1E9E" unicode="&#x1e9e;" horiz-adv-x="778" 
d="M543 402.5q22 -22.5 70 -54.5q40 -25 65.5 -46.5t43.5 -54t18 -77.5q0 -85 -65 -132.5t-170 -47.5q-96 0 -151.5 40t-67.5 110l117 28q5 -35 31 -55.5t66 -20.5q42 0 65.5 21.5t23.5 54.5q0 32 -20 53t-63 50q-35 24 -57 42.5t-37.5 47t-15.5 67.5q0 46 24 88t80 65
l-122 -1q-83 -1 -121.5 -50t-38.5 -137v-393h-143v397q0 152 71.5 227.5t231.5 75.5h273v-119q-72 -17 -101 -52.5t-29 -70.5q0 -33 22 -55.5z" />
    <glyph glyph-name="Ygrave" unicode="&#x1ef2;" horiz-adv-x="634" 
d="M629 700l-238 -436v-264h-148v264l-238 436h174l138 -336l137 336h175zM314 772l-194 160h177l76 -160h-59z" />
    <glyph glyph-name="ygrave" unicode="&#x1ef3;" horiz-adv-x="537" 
d="M532 540l-177 -488q-41 -112 -105 -167t-157 -55q-15 0 -22 1l-24 107q17 -4 49 -4q38 0 60 15t49 60l-200 531h159l108 -386l113 386h147zM274 612l-194 160h177l76 -160h-59z" />
    <glyph glyph-name="uni2009" unicode="&#x2009;" horiz-adv-x="120" 
 />
    <glyph glyph-name="endash" unicode="&#x2013;" 
d="M35 340h530v-105l-530 1v104z" />
    <glyph glyph-name="emdash" unicode="&#x2014;" horiz-adv-x="1068" 
d="M35 340h998v-104h-998v104z" />
    <glyph glyph-name="quoteleft" unicode="&#x2018;" horiz-adv-x="265" 
d="M196.5 537q18.5 -21 18.5 -57t-23 -56.5t-57 -20.5q-43 0 -65.5 26.5t-22.5 84.5q0 59 36.5 112.5t95.5 82.5l40 -51q-62 -46 -75 -97q34 -3 52.5 -24z" />
    <glyph glyph-name="quoteright" unicode="&#x2019;" horiz-adv-x="265" 
d="M195.5 682.5q22.5 -26.5 22.5 -84.5q0 -59 -36.5 -112.5t-95.5 -82.5l-40 51q62 46 75 97q-34 3 -52.5 24t-18.5 57t23 56.5t57 20.5q43 0 65.5 -26.5z" />
    <glyph glyph-name="quotesinglbase" unicode="&#x201a;" horiz-adv-x="265" 
d="M195.5 128.5q22.5 -26.5 22.5 -84.5q0 -59 -36.5 -112.5t-95.5 -82.5l-40 51q62 46 75 97q-34 3 -52.5 24t-18.5 57t23 56.5t57 20.5q43 0 65.5 -26.5z" />
    <glyph glyph-name="quotedblleft" unicode="&#x201c;" horiz-adv-x="471" 
d="M144 561q34 -3 52.5 -24t18.5 -57t-23 -56.5t-57 -20.5q-43 0 -65.5 26.5t-22.5 84.5q0 59 36.5 112.5t95.5 82.5l40 -51q-62 -46 -75 -97zM402.5 537q18.5 -21 18.5 -57t-23 -56.5t-57 -20.5q-43 0 -65.5 26.5t-22.5 84.5q0 59 36.5 112.5t95.5 82.5l40 -51
q-62 -46 -75 -97q34 -3 52.5 -24z" />
    <glyph glyph-name="quotedblright" unicode="&#x201d;" horiz-adv-x="471" 
d="M195.5 682.5q22.5 -26.5 22.5 -84.5q0 -59 -36.5 -112.5t-95.5 -82.5l-40 51q62 46 75 97q-34 3 -52.5 24t-18.5 57t23 56.5t57 20.5q43 0 65.5 -26.5zM401.5 682.5q22.5 -26.5 22.5 -84.5q0 -59 -36.5 -112.5t-95.5 -82.5l-40 51q62 46 75 97q-34 3 -52.5 24t-18.5 57
t23 56.5t57 20.5q43 0 65.5 -26.5z" />
    <glyph glyph-name="quotedblbase" unicode="&#x201e;" horiz-adv-x="471" 
d="M195.5 128.5q22.5 -26.5 22.5 -84.5q0 -59 -36.5 -112.5t-95.5 -82.5l-40 51q62 46 75 97q-34 3 -52.5 24t-18.5 57t23 56.5t57 20.5q43 0 65.5 -26.5zM401.5 128.5q22.5 -26.5 22.5 -84.5q0 -59 -36.5 -112.5t-95.5 -82.5l-40 51q62 46 75 97q-34 3 -52.5 24t-18.5 57
t23 56.5t57 20.5q43 0 65.5 -26.5z" />
    <glyph glyph-name="dagger" unicode="&#x2020;" horiz-adv-x="357" 
d="M337 544h-116v-291h-86v291h-115v76h115v121h86v-121h116v-76z" />
    <glyph glyph-name="daggerdbl" unicode="&#x2021;" horiz-adv-x="357" 
d="M221 545v-97h116v-74h-116v-121h-86v121h-115v74h115v97h-115v75h115v121h86v-121h116v-75h-116z" />
    <glyph glyph-name="bullet" unicode="&#x2022;" horiz-adv-x="421" 
d="M369 165h-314v314h314v-314z" />
    <glyph glyph-name="ellipsis" unicode="&#x2026;" horiz-adv-x="785" 
d="M333 15.5q-23 20.5 -23 58.5t23 58.5t61 20.5t61 -20.5t23 -58.5t-23 -58.5t-61 -20.5t-61 20.5zM588 15.5q-23 20.5 -23 58.5t23 58.5t61 20.5t61 -20.5t23 -58.5t-23 -58.5t-61 -20.5t-61 20.5zM78 15.5q-23 20.5 -23 58.5t23 58.5t61 20.5t61 -20.5t23 -58.5
t-23 -58.5t-61 -20.5t-61 20.5z" />
    <glyph glyph-name="perthousand" unicode="&#x2030;" horiz-adv-x="1404" 
d="M387 656q52 -54 52 -145q0 -92 -52 -145.5t-140 -53.5t-140 53.5t-52 145.5q0 91 52 145t140 54t140 -54zM449 365l195 335h96l-226 -359l-197 -341h-96zM311 420q22 31 22 91q0 59 -22 90t-64 31t-64.5 -31t-22.5 -90q0 -60 22.5 -91t64.5 -31t64 31zM866 335
q52 -54 52 -145q0 -92 -52 -145.5t-140 -53.5t-140 53.5t-52 145.5q0 91 52 145t140 54t140 -54zM1297 334q52 -54 52 -145q0 -92 -52 -145.5t-140 -53.5t-140 53.5t-52 145.5q0 91 52 145t140 54t140 -54zM790 99q22 31 22 91q0 59 -22 90t-64 31t-64.5 -31t-22.5 -90
q0 -60 22.5 -91t64.5 -31t64 31zM1221 98q22 31 22 91q0 59 -22 90t-64 31t-64.5 -31t-22.5 -90q0 -60 22.5 -91t64.5 -31t64 31z" />
    <glyph glyph-name="guilsinglleft" unicode="&#x2039;" horiz-adv-x="360" 
d="M176 489h129q-25 -99 -141 -198q116 -99 141 -198h-129q-20 94 -116 184v28q96 90 116 184z" />
    <glyph glyph-name="guilsinglright" unicode="&#x203a;" horiz-adv-x="360" 
d="M300 277q-96 -90 -116 -184h-129q26 99 141 198q-115 99 -141 198h129q20 -94 116 -184v-28z" />
    <glyph glyph-name="fraction" unicode="&#x2044;" horiz-adv-x="219" 
d="M78 365l195 335h96l-226 -359l-197 -341h-96z" />
    <glyph glyph-name="uni2070" unicode="&#x2070;" horiz-adv-x="422" 
d="M347 751q49 -59 49 -172t-49 -171t-136 -58q-88 0 -136.5 58t-48.5 171q0 114 48.5 172.5t136.5 58.5q87 0 136 -59zM150.5 684.5q-19.5 -33.5 -19.5 -104.5t19.5 -104.5t60.5 -33.5t60.5 34t19.5 104t-19.5 104t-60.5 34t-60.5 -33.5z" />
    <glyph glyph-name="uni2074" unicode="&#x2074;" horiz-adv-x="384" 
d="M371 448h-48v-96h-101l1 96h-215v67l181 285h134v-274h48v-78zM224 526v193l-119 -193h119z" />
    <glyph glyph-name="uni2075" unicode="&#x2075;" horiz-adv-x="401" 
d="M340 607.5q39 -41.5 39 -106.5q0 -70 -47 -112.5t-126 -42.5q-71 0 -119.5 34.5t-60.5 90.5l98 24q7 -32 27.5 -49.5t53.5 -17.5q35 0 55.5 19.5t20.5 53.5q0 32 -18.5 51.5t-49.5 19.5q-44 0 -76 -42l-96 20q27 103 28 250l1 -1v1h290v-81h-208q-3 -68 -16 -125
q33 55 104 55q61 0 100 -41.5z" />
    <glyph glyph-name="uni2076" unicode="&#x2076;" horiz-adv-x="414" 
d="M346.5 605.5q41.5 -40.5 41.5 -103.5q0 -68 -47.5 -110t-127.5 -42q-95 0 -142.5 60t-47.5 166q0 110 51 172t144 62q70 0 109.5 -31t55.5 -74l-94 -25q-16 55 -73 55q-47 0 -70 -37t-23 -115v-3q17 31 46.5 48.5t69.5 17.5q66 0 107.5 -40.5zM269 445.5q21 21.5 21 57.5
q0 34 -20.5 53.5t-53.5 19.5q-53 0 -88 -55q16 -97 86 -97q34 0 55 21.5z" />
    <glyph glyph-name="uni2077" unicode="&#x2077;" horiz-adv-x="354" 
d="M356 719q-57 -61 -86 -101t-44.5 -89.5t-15.5 -122.5q0 -16 2 -54h-119q-2 112 37.5 203.5t137.5 164.5h-256v80h344v-81z" />
    <glyph glyph-name="uni2078" unicode="&#x2078;" horiz-adv-x="398" 
d="M375 480q0 -60 -47.5 -95t-127.5 -35t-128.5 35t-48.5 95q0 88 106 113q-92 21 -92 97q0 56 44.5 88t118.5 32t119 -32.5t45 -86.5q0 -75 -93 -98q104 -24 104 -113zM149 725q-19 -15 -19 -40t19.5 -40.5t50.5 -15.5t50 15.5t19 40.5t-19 40t-50 15q-32 0 -51 -15z
M258 438.5q22 17.5 22 46.5q0 28 -22 45t-58 17q-37 0 -58.5 -17t-21.5 -45q0 -29 22 -46.5t58 -17.5t58 17.5z" />
    <glyph glyph-name="uni2079" unicode="&#x2079;" horiz-adv-x="414" 
d="M343.5 750q47.5 -60 47.5 -166q0 -110 -51 -172t-144 -62q-70 0 -109.5 31t-55.5 74l94 25q16 -55 73 -55q47 0 70 37t23 115v3q-17 -31 -46.5 -48.5t-69.5 -17.5q-66 0 -107.5 40.5t-41.5 103.5q0 68 47.5 110t127.5 42q95 0 142.5 -60zM286 639q-16 97 -86 97
q-34 0 -55 -21.5t-21 -57.5q0 -34 20.5 -53.5t53.5 -19.5q53 0 88 55z" />
    <glyph glyph-name="uni2080" unicode="&#x2080;" horiz-adv-x="422" 
d="M347 251q49 -59 49 -172t-49 -171t-136 -58q-88 0 -136.5 58t-48.5 171q0 114 48.5 172.5t136.5 58.5q87 0 136 -59zM150.5 184.5q-19.5 -33.5 -19.5 -104.5t19.5 -104.5t60.5 -33.5t60.5 34t19.5 104t-19.5 104t-60.5 34t-60.5 -33.5z" />
    <glyph glyph-name="uni2081" unicode="&#x2081;" horiz-adv-x="304" 
d="M246 300v-448h-96v368q-24 -50 -99 -89l-40 85q57 19 91.5 39t59.5 45h84z" />
    <glyph glyph-name="uni2082" unicode="&#x2082;" horiz-adv-x="387" 
d="M380 -61v-83h-355v70l125 93q59 45 86.5 78t27.5 68q0 31 -19 48.5t-50 17.5q-28 0 -51.5 -17t-23.5 -56q0 -17 6 -40h-102q-3 20 -3 38q0 77 50 115.5t125 38.5q79 0 126.5 -38.5t47.5 -101.5q0 -52 -45 -103t-150 -117l-18 -11h223z" />
    <glyph glyph-name="uni2083" unicode="&#x2083;" horiz-adv-x="412" 
d="M360.5 49q26.5 -27 26.5 -69q0 -59 -48.5 -94.5t-127.5 -35.5t-129.5 37.5t-62.5 106.5l101 15q6 -42 30 -61.5t60 -19.5q33 0 52.5 16t19.5 42q0 28 -22 45t-64 17h-32l-1 72h39q32 0 51.5 14.5t19.5 41.5q0 25 -17.5 40.5t-46.5 15.5t-49.5 -17.5t-24.5 -53.5l-97 20
q9 64 55.5 96.5t116.5 32.5q75 0 119 -33.5t44 -89.5q0 -39 -23 -64.5t-66 -35.5q50 -11 76.5 -38z" />
    <glyph glyph-name="uni2084" unicode="&#x2084;" horiz-adv-x="384" 
d="M371 -52h-48v-96h-101l1 96h-215v67l181 285h134v-274h48v-78zM224 26v193l-119 -193h119z" />
    <glyph glyph-name="uni2085" unicode="&#x2085;" horiz-adv-x="401" 
d="M340 107.5q39 -41.5 39 -106.5q0 -70 -47 -112.5t-126 -42.5q-71 0 -119.5 34.5t-60.5 90.5l98 24q7 -32 27.5 -49.5t53.5 -17.5q35 0 55.5 19.5t20.5 53.5q0 32 -18.5 51.5t-49.5 19.5q-44 0 -76 -42l-96 20q27 103 28 250l1 -1v1h290v-81h-208q-3 -68 -16 -125
q33 55 104 55q61 0 100 -41.5z" />
    <glyph glyph-name="uni2086" unicode="&#x2086;" horiz-adv-x="414" 
d="M346.5 105.5q41.5 -40.5 41.5 -103.5q0 -68 -47.5 -110t-127.5 -42q-95 0 -142.5 60t-47.5 166q0 110 51 172t144 62q70 0 109.5 -31t55.5 -74l-94 -25q-16 55 -73 55q-47 0 -70 -37t-23 -115v-3q17 31 46.5 48.5t69.5 17.5q66 0 107.5 -40.5zM269 -54.5q21 21.5 21 57.5
q0 34 -20.5 53.5t-53.5 19.5q-53 0 -88 -55q16 -97 86 -97q34 0 55 21.5z" />
    <glyph glyph-name="uni2087" unicode="&#x2087;" horiz-adv-x="354" 
d="M356 219q-57 -61 -86 -101t-44.5 -89.5t-15.5 -122.5q0 -16 2 -54h-119q-2 112 37.5 203.5t137.5 164.5h-256v80h344v-81z" />
    <glyph glyph-name="uni2088" unicode="&#x2088;" horiz-adv-x="398" 
d="M375 -20q0 -60 -47.5 -95t-127.5 -35t-128.5 35t-48.5 95q0 88 106 113q-92 21 -92 97q0 56 44.5 88t118.5 32t119 -32.5t45 -86.5q0 -75 -93 -98q104 -24 104 -113zM149 225q-19 -15 -19 -40t19.5 -40.5t50.5 -15.5t50 15.5t19 40.5t-19 40t-50 15q-32 0 -51 -15z
M258 -61.5q22 17.5 22 46.5q0 28 -22 45t-58 17q-37 0 -58.5 -17t-21.5 -45q0 -29 22 -46.5t58 -17.5t58 17.5z" />
    <glyph glyph-name="uni2089" unicode="&#x2089;" horiz-adv-x="414" 
d="M343.5 250q47.5 -60 47.5 -166q0 -110 -51 -172t-144 -62q-70 0 -109.5 31t-55.5 74l94 25q16 -55 73 -55q47 0 70 37t23 115v3q-17 -31 -46.5 -48.5t-69.5 -17.5q-66 0 -107.5 40.5t-41.5 103.5q0 68 47.5 110t127.5 42q95 0 142.5 -60zM286 139q-16 97 -86 97
q-34 0 -55 -21.5t-21 -57.5q0 -34 20.5 -53.5t53.5 -19.5q53 0 88 55z" />
    <glyph glyph-name="uni20A8" unicode="&#x20a8;" 
d="M411 627q34 -40 38 -100h95v-73h-102q-17 -57 -72.5 -93.5t-138.5 -44.5q74 -5 117 -33.5t63 -100.5l50 -182h-162l-36 166q-13 63 -56.5 83t-108.5 20h-24v116h67q65 0 105 17.5t52 51.5h-224v73h222q-23 57 -121 57h-101v116h472v-73h-135z" />
    <glyph glyph-name="Euro" unicode="&#x20ac;" 
d="M440.5 110.5q28.5 15.5 55.5 50.5l80 -82q-34 -43 -86 -66t-121 -23q-115 0 -193.5 65.5t-103.5 185.5h-69v71h60q-1 12 -1 37q0 24 1 36h-60v71h69q24 122 103 188t194 66q72 0 126 -25.5t89 -73.5l-95 -76q-41 70 -120 70q-120 0 -147 -149h228l-32 -71h-204
q-1 -12 -1 -36q0 -25 1 -37h174l-30 -71h-136q15 -76 52.5 -111t97.5 -35q40 0 68.5 15.5z" />
    <glyph glyph-name="uni2116" unicode="&#x2116;" horiz-adv-x="1319" 
d="M877.5 329.5q-57.5 59.5 -57.5 160.5t57.5 160.5t154.5 59.5t154.5 -59.5t57.5 -160.5t-57.5 -160.5t-154.5 -59.5t-154.5 59.5zM585 700h139v-700h-208l-302 561v-561h-139v700h208l302 -560v560zM960.5 590q-24.5 -34 -24.5 -100t24.5 -100t71.5 -34t71 34t24 100
t-24 100t-71 34t-71.5 -34zM870 221h323v-96h-323v96z" />
    <glyph glyph-name="trademark" unicode="&#x2122;" horiz-adv-x="726" 
d="M30 701h266v-62h-95v-244h-76v244h-95v62zM689 701v-306h-75v245l-74 -245h-68l-75 248v-248h-68v306h110l67 -202l68 202h115z" />
    <glyph glyph-name="oneeighth" unicode="&#x215b;" horiz-adv-x="931" 
d="M246 700v-448h-96v368q-24 -50 -99 -89l-40 85q57 19 91.5 39t59.5 45h84zM402 365l195 335h96l-226 -359l-197 -341h-96zM908 124q0 -60 -47.5 -95t-127.5 -35t-128.5 35t-48.5 95q0 88 106 113q-92 21 -92 97q0 56 44.5 88t118.5 32t119 -32.5t45 -86.5q0 -75 -93 -98
q104 -24 104 -113zM682 369q-19 -15 -19 -40t19.5 -40.5t50.5 -15.5t50 15.5t19 40.5t-19 40t-50 15q-32 0 -51 -15zM791 82.5q22 17.5 22 46.5q0 28 -22 45t-58 17q-37 0 -58.5 -17t-21.5 -45q0 -29 22 -46.5t58 -17.5t58 17.5z" />
    <glyph glyph-name="threeeighths" unicode="&#x215c;" horiz-adv-x="1019" 
d="M360.5 449q26.5 -27 26.5 -69q0 -59 -48.5 -94.5t-127.5 -35.5t-129.5 37.5t-62.5 106.5l101 15q6 -42 30 -61.5t60 -19.5q33 0 52.5 16t19.5 42q0 28 -22 45t-64 17h-32l-1 72h39q32 0 51.5 14.5t19.5 41.5q0 25 -17.5 40.5t-46.5 15.5t-49.5 -17.5t-24.5 -53.5l-97 20
q9 64 55.5 96.5t116.5 32.5q75 0 119 -33.5t44 -89.5q0 -39 -23 -64.5t-66 -35.5q50 -11 76.5 -38zM490 365l195 335h96l-226 -359l-197 -341h-96zM996 124q0 -60 -47.5 -95t-127.5 -35t-128.5 35t-48.5 95q0 88 106 113q-92 21 -92 97q0 56 44.5 88t118.5 32t119 -32.5
t45 -86.5q0 -75 -93 -98q104 -24 104 -113zM770 369q-19 -15 -19 -40t19.5 -40.5t50.5 -15.5t50 15.5t19 40.5t-19 40t-50 15q-32 0 -51 -15zM879 82.5q22 17.5 22 46.5q0 28 -22 45t-58 17q-37 0 -58.5 -17t-21.5 -45q0 -29 22 -46.5t58 -17.5t58 17.5z" />
    <glyph glyph-name="fiveeighths" unicode="&#x215d;" horiz-adv-x="1008" 
d="M340 507.5q39 -41.5 39 -106.5q0 -70 -47 -112.5t-126 -42.5q-71 0 -119.5 34.5t-60.5 90.5l98 24q7 -32 27.5 -49.5t53.5 -17.5q35 0 55.5 19.5t20.5 53.5q0 32 -18.5 51.5t-49.5 19.5q-44 0 -76 -42l-96 20q27 103 28 250l1 -1v1h290v-81h-208q-3 -68 -16 -125
q33 55 104 55q61 0 100 -41.5zM479 365l195 335h96l-226 -359l-197 -341h-96zM985 124q0 -60 -47.5 -95t-127.5 -35t-128.5 35t-48.5 95q0 88 106 113q-92 21 -92 97q0 56 44.5 88t118.5 32t119 -32.5t45 -86.5q0 -75 -93 -98q104 -24 104 -113zM759 369q-19 -15 -19 -40
t19.5 -40.5t50.5 -15.5t50 15.5t19 40.5t-19 40t-50 15q-32 0 -51 -15zM868 82.5q22 17.5 22 46.5q0 28 -22 45t-58 17q-37 0 -58.5 -17t-21.5 -45q0 -29 22 -46.5t58 -17.5t58 17.5z" />
    <glyph glyph-name="seveneighths" unicode="&#x215e;" horiz-adv-x="931" 
d="M356 619q-57 -61 -86 -101t-44.5 -89.5t-15.5 -122.5q0 -16 2 -54h-119q-2 112 37.5 203.5t137.5 164.5h-256v80h344v-81zM402 365l195 335h96l-226 -359l-197 -341h-96zM908 124q0 -60 -47.5 -95t-127.5 -35t-128.5 35t-48.5 95q0 88 106 113q-92 21 -92 97
q0 56 44.5 88t118.5 32t119 -32.5t45 -86.5q0 -75 -93 -98q104 -24 104 -113zM682 369q-19 -15 -19 -40t19.5 -40.5t50.5 -15.5t50 15.5t19 40.5t-19 40t-50 15q-32 0 -51 -15zM791 82.5q22 17.5 22 46.5q0 28 -22 45t-58 17q-37 0 -58.5 -17t-21.5 -45q0 -29 22 -46.5
t58 -17.5t58 17.5z" />
    <glyph glyph-name="arrowleft" unicode="&#x2190;" horiz-adv-x="948" 
d="M928 291l-748 4l236 -228l-78 -78l-329 337v41l333 332l78 -78l-237 -223h745v-107z" />
    <glyph glyph-name="arrowup" unicode="&#x2191;" horiz-adv-x="751" 
d="M656 302l-226 226v-528h-109v528l-226 -226l-75 82l334 317h42l335 -317z" />
    <glyph glyph-name="arrowright" unicode="&#x2192;" horiz-adv-x="948" 
d="M939 367v-41l-329 -337l-78 78l236 228l-748 -4v107h745l-237 223l78 78z" />
    <glyph glyph-name="arrowdown" unicode="&#x2193;" horiz-adv-x="751" 
d="M731 317l-335 -317h-42l-334 317l75 82l226 -226v528h109v-528l226 226z" />
    <glyph glyph-name="uni2196" unicode="&#x2196;" horiz-adv-x="832" 
d="M731 -3l-526 531l6 -328h-111l6 471l29 29h470v-111l-326 10l527 -527z" />
    <glyph glyph-name="uni2197" unicode="&#x2197;" horiz-adv-x="832" 
d="M621 200l6 328l-526 -531l-75 75l527 527l-326 -10v111h470l29 -29l6 -471h-111z" />
    <glyph glyph-name="uni2198" unicode="&#x2198;" horiz-adv-x="832" 
d="M732 498l-6 -471l-29 -29h-470v111l326 -10l-527 527l75 75l526 -531l-6 328h111z" />
    <glyph glyph-name="uni2199" unicode="&#x2199;" horiz-adv-x="832" 
d="M279 99l326 10v-111h-470l-29 29l-6 471h111l-6 -328l526 531l75 -75z" />
    <glyph glyph-name="minus" unicode="&#x2212;" 
d="M53 380h495v-94h-495v94z" />
    <glyph glyph-name="approxequal" unicode="&#x2248;" 
d="M77 379q8 57 36.5 91.5t84.5 34.5q25 0 47.5 -6.5t55.5 -18.5q30 -11 48 -16.5t37 -5.5q28 0 44 13.5t18 33.5l75 -18q-6 -57 -34.5 -91.5t-83.5 -34.5q-25 0 -49 6.5t-56 19.5q-32 12 -49.5 17t-35.5 5q-28 0 -43.5 -13.5t-19.5 -34.5zM77 177q8 57 36.5 91.5t84.5 34.5
q25 0 47.5 -6.5t55.5 -18.5q30 -11 48 -16.5t37 -5.5q28 0 44 13.5t18 33.5l75 -18q-6 -57 -34.5 -91.5t-83.5 -34.5q-25 0 -49 6.5t-56 19.5q-32 12 -49.5 17t-35.5 5q-28 0 -43.5 -13.5t-19.5 -34.5z" />
    <glyph glyph-name="notequal" unicode="&#x2260;" 
d="M338 327l-24 -47h234v-94h-281l-61 -120h-89l65 120h-129v94h180l30 56l25 50h-235v94h283l61 121h89l-65 -121h127v-94h-178z" />
    <glyph glyph-name="lessequal" unicode="&#x2264;" 
d="M499 516l-279 -85l279 -85v-112l-398 153v87l398 153v-111zM101 178h398v-92h-398v92z" />
    <glyph glyph-name="greaterequal" unicode="&#x2265;" 
d="M499 474v-87l-398 -153v112l279 85l-279 85v111zM101 178h398v-92h-398v92z" />
    <glyph glyph-name="filledbox" unicode="&#x25a0;" horiz-adv-x="424" 
d="M98 208.5q-43 43.5 -43 114.5q0 70 43 113t114 43t114 -43t43 -113q0 -71 -43 -114.5t-114 -43.5t-114 43.5z" />
    <glyph glyph-name="uni2713" unicode="&#x2713;" horiz-adv-x="1040" 
d="M1017 654l-653 -706l-329 366l113 103l216 -255l552 591z" />
    <glyph glyph-name="fl" unicode="&#xfb02;" horiz-adv-x="690" 
d="M671 8q-37 -17 -87 -17q-72 0 -109 34t-37 92v313h-204v-431l-143 1v430h-81v110h81v21q0 96 56.5 143t155.5 47q27 0 54.5 -4.5t45.5 -11.5l-26 -99q-28 20 -60 20q-44 0 -63.5 -24t-19.5 -71v-21h204v160h143v-580q0 -34 31 -34q21 0 42 15z" />
    <glyph glyph-name="i.loclTRK" horiz-adv-x="273" 
d="M65 540h143v-540h-143v540zM77 643.5q-23 20.5 -23 58.5t23 58.5t61 20.5t61 -20.5t23 -58.5t-23 -58.5t-61 -20.5t-61 20.5z" />
    <glyph glyph-name="germandbls.calt" horiz-adv-x="778" 
d="M543 402.5q22 -22.5 70 -54.5q40 -25 65.5 -46.5t43.5 -54t18 -77.5q0 -85 -65 -132.5t-170 -47.5q-96 0 -151.5 40t-67.5 110l117 28q5 -35 31 -55.5t66 -20.5q42 0 65.5 21.5t23.5 54.5q0 32 -20 53t-63 50q-35 24 -57 42.5t-37.5 47t-15.5 67.5q0 46 24 88t80 65
l-122 -1q-83 -1 -121.5 -50t-38.5 -137v-393h-143v397q0 152 71.5 227.5t231.5 75.5h273v-119q-72 -17 -101 -52.5t-29 -70.5q0 -33 22 -55.5z" />
    <glyph glyph-name="f_f" horiz-adv-x="691" 
d="M590.5 632q-19.5 -24 -19.5 -71v-21h116v-110h-116v-431l-143 1v430h-194v-431l-143 1v430h-81v110h81v21q0 96 56.5 143t155.5 47q27 0 54.5 -4.5t45.5 -11.5l-26 -99q-28 20 -60 20q-44 0 -63.5 -24t-19.5 -71v-21h194v21q0 96 56.5 143t155.5 47q27 0 54.5 -4.5
t45.5 -11.5l-26 -99q-28 20 -60 20q-44 0 -63.5 -24z" />
    <glyph glyph-name="f_f_f" horiz-adv-x="1028" 
d="M927.5 632q-19.5 -24 -19.5 -71v-21h116v-110h-116v-431l-143 1v430h-194v-431l-143 1v430h-194v-431l-143 1v430h-81v110h81v21q0 96 56.5 143t155.5 47q27 0 54.5 -4.5t45.5 -11.5l-26 -99q-28 20 -60 20q-44 0 -63.5 -24t-19.5 -71v-21h194v21q0 96 56.5 143t155.5 47
q27 0 54.5 -4.5t45.5 -11.5l-26 -99q-28 20 -60 20q-44 0 -63.5 -24t-19.5 -71v-21h194v21q0 96 56.5 143t155.5 47q27 0 54.5 -4.5t45.5 -11.5l-26 -99q-28 20 -60 20q-44 0 -63.5 -24z" />
    <glyph glyph-name="f_f_k" horiz-adv-x="1290" 
d="M971 239l-83 -80v-159h-143v430h-184v-431l-143 1v430h-184v-431l-143 1v430h-81v110h81v21q0 96 56.5 143t155.5 47q27 0 54.5 -4.5t45.5 -11.5l-26 -99q-28 20 -60 20q-44 0 -63.5 -24t-19.5 -71v-21h184v21q0 96 56.5 143t155.5 47q27 0 54.5 -4.5t45.5 -11.5l-26 -99
q-28 20 -60 20q-44 0 -63.5 -24t-19.5 -71v-21h184v160h143v-402l224 242h172l-229 -220l233 -320h-161z" />
    <glyph glyph-name="f_f_l" horiz-adv-x="1017" 
d="M998 8q-37 -17 -87 -17q-72 0 -109 34t-37 92v313h-204v-431l-143 1v430h-184v-431l-143 1v430h-81v110h81v21q0 96 56.5 143t155.5 47q27 0 54.5 -4.5t45.5 -11.5l-26 -99q-28 20 -60 20q-44 0 -63.5 -24t-19.5 -71v-21h184v21q0 96 56.5 143t155.5 47q27 0 54.5 -4.5
t45.5 -11.5l-26 -99q-28 20 -60 20q-44 0 -63.5 -24t-19.5 -71v-21h204v160h143v-580q0 -34 31 -34q21 0 42 15z" />
    <glyph glyph-name="f_k" horiz-adv-x="963" 
d="M644 239l-83 -80v-159h-143v430h-184v-431l-143 1v430h-81v110h81v21q0 96 56.5 143t155.5 47q27 0 54.5 -4.5t45.5 -11.5l-26 -99q-28 20 -60 20q-44 0 -63.5 -24t-19.5 -71v-21h184v160h143v-402l224 242h172l-229 -220l233 -320h-161z" />
    <glyph glyph-name="zero.osf" horiz-adv-x="640" 
d="M466 515q63 -35 97.5 -98.5t34.5 -146.5t-34.5 -146.5t-97.5 -98.5t-146 -35t-146 35t-97.5 98.5t-34.5 146.5t34.5 146.5t97.5 98.5t146 35t146 -35zM218 390q-36 -44 -36 -119t36 -119t102 -45q66 1 102 45t36 119t-36 119t-102 44t-102 -44z" />
    <glyph glyph-name="one.osf" horiz-adv-x="580" 
d="M552 110v-110h-496v110h186v294q-38 -59 -139 -105l-52 110q89 32 137 62t82 69h105v-430h177z" />
    <glyph glyph-name="two.osf" horiz-adv-x="574" 
d="M553 109v-109h-513v91l147 68q110 51 160.5 94t50.5 91q0 41 -30 68t-82 27q-55 0 -86 -30.5t-31 -78.5q0 -24 9 -50h-136q-4 24 -4 51q0 66 30 115.5t85.5 76t130.5 26.5q72 0 127.5 -24t86.5 -67t31 -98q0 -71 -59.5 -137t-203.5 -112l-6 -2h293z" />
    <glyph glyph-name="three.osf" 
d="M519.5 140.5q46.5 -43.5 46.5 -113.5q0 -59 -33 -103.5t-92 -69t-134 -24.5q-120 0 -196.5 58.5t-92.5 156.5l131 28q9 -69 50.5 -101t101.5 -32q55 0 89 28t34 74q0 47 -36 75t-105 28h-44l-1 100h55q54 0 87.5 26.5t33.5 72.5q0 45 -30.5 70.5t-82.5 25.5
q-50 0 -84 -28.5t-43 -86.5l-129 27q11 90 80 144t176 54q74 0 129 -23.5t85 -66t30 -99.5q0 -65 -40 -107.5t-115 -56.5q83 -13 129.5 -56.5z" />
    <glyph glyph-name="four.osf" horiz-adv-x="593" 
d="M580 4h-88v-164h-136l1 164h-352v84l312 452h175v-433h88v-103zM146 107h212v320z" />
    <glyph glyph-name="five.osf" 
d="M470 274q50 -29 77.5 -81t27.5 -120q0 -73 -34 -128t-96 -85t-143 -30q-105 0 -178 50t-96 141l142 35q14 -51 48.5 -78.5t86.5 -27.5q56 0 89.5 31.5t33.5 90.5q0 54 -31 85.5t-83 31.5q-44 0 -73.5 -20.5t-52.5 -54.5l-139 28q52 182 55 398l2 -1v1h443v-110h-323
q-4 -88 -25 -196q24 30 63 49.5t91 19.5q65 0 115 -29z" />
    <glyph glyph-name="six.osf" horiz-adv-x="627" 
d="M489 420q50 -26 78 -75.5t28 -116.5q0 -71 -32 -125t-91.5 -83.5t-141.5 -29.5q-144 0 -216 91.5t-72 255.5q0 117 36.5 201t103 128t156.5 44q74 0 146.5 -34t108.5 -125l-151 -42q-12 43 -39.5 62t-63.5 19q-73 0 -109.5 -65.5t-40.5 -168.5q31 42 78 66t109 24
q63 0 113 -26zM422 139.5q31 34.5 31 85.5q0 55 -34 84.5t-83 29.5q-41 0 -82 -20t-63 -54q10 -82 45 -121t95 -39t91 34.5z" />
    <glyph glyph-name="seven.osf" horiz-adv-x="532" 
d="M537 540v-110q-99 -99 -149 -183.5t-68 -177t-18 -229.5h-163q0 162 61 312t220 278h-400v110h517z" />
    <glyph glyph-name="eight.osf" horiz-adv-x="610" 
d="M542 300.5q45 -47.5 45 -114.5q0 -91 -76.5 -143.5t-205.5 -52.5t-205.5 52.5t-76.5 143.5q0 66 44 114t137 67q-81 18 -120 60t-39 100q0 56 32.5 97.5t91.5 63.5t136 22q78 0 137 -22t91 -63t32 -96q0 -59 -39.5 -101t-125.5 -61q97 -19 142 -66.5zM220.5 576.5
q-31.5 -22.5 -31.5 -63.5t30.5 -65.5t85.5 -24.5q53 0 85 24t32 66q0 40 -31 63t-86 23q-53 0 -84.5 -22.5zM402 128.5q36 25.5 36 72.5q0 44 -35 71t-98 27q-62 0 -98.5 -26t-36.5 -72q0 -45 35.5 -71.5t99.5 -26.5q61 0 97 25.5z" />
    <glyph glyph-name="nine.osf" horiz-adv-x="627" 
d="M513 458.5q72 -91.5 72 -255.5q0 -117 -36.5 -201t-103 -128t-156.5 -44q-74 0 -146.5 34t-108.5 125l151 42q12 -43 39.5 -62t63.5 -19q73 0 109.5 65.5t40.5 168.5q-31 -42 -78 -66t-109 -24q-63 0 -113 26t-78 75.5t-28 116.5q0 71 32 125t91.5 83.5t141.5 29.5
q144 0 216 -91.5zM373 221q41 20 63 54q-10 82 -45 121t-95 39t-91 -34.5t-31 -85.5q0 -55 34 -84.5t83 -29.5q41 0 82 20z" />
    <glyph glyph-name="zero.osf.zero" horiz-adv-x="640" 
d="M466 514q63 -35 97.5 -98t34.5 -146t-34.5 -146t-97.5 -97.5t-146 -34.5t-146 34.5t-97.5 97.5t-34.5 146t34.5 146t97.5 98t146 35t146 -35zM218 390q-36 -44 -36 -119q0 -47 15 -83l92 103l105 124q-32 19 -74 19q-66 0 -102 -44zM422 152q36 44 36 119q0 53 -18 90
l-88 -99l-111 -132q34 -23 79 -23q66 1 102 45z" />
    <glyph glyph-name="zero.tf" 
d="M491 616q67 -94 67 -267q0 -172 -67 -265.5t-191 -93.5t-191 93.5t-67 265.5q0 173 67 267t191 94t191 -94zM209.5 533.5q-28.5 -56.5 -28.5 -183.5t28.5 -183.5t90.5 -56.5t90.5 56.5t28.5 183.5t-28.5 183.5t-90.5 56.5t-90.5 -56.5z" />
    <glyph glyph-name="one.tf" 
d="M552 110v-110h-496v110h179v452q-39 -61 -134 -103l-52 110q89 32 137 62t82 69h110v-590h174z" />
    <glyph glyph-name="two.tf" 
d="M572 110v-110h-533v93l203 152q95 71 140 124t45 112q0 61 -34.5 90t-90.5 29q-58 0 -94 -32t-36 -93q0 -24 8 -58h-136q-5 33 -5 56q0 75 34.5 128.5t95 81t137.5 27.5q120 0 189.5 -60.5t69.5 -165.5q0 -81 -65.5 -160.5t-217.5 -167.5l-79 -46h369z" />
    <glyph glyph-name="three.tf" 
d="M519.5 300.5q46.5 -43.5 46.5 -113.5q0 -59 -33 -103.5t-92 -69t-134 -24.5q-120 0 -196.5 58.5t-92.5 156.5l131 28q9 -69 50.5 -101t101.5 -32q55 0 89 28t34 74q0 47 -36 75t-105 28h-44l-1 100h55q54 0 87.5 26.5t33.5 72.5q0 45 -30.5 70.5t-82.5 25.5
q-50 0 -84 -28.5t-43 -86.5l-129 27q11 90 80 144t176 54q74 0 129 -23.5t85 -66t30 -99.5q0 -65 -40 -107.5t-115 -56.5q83 -13 129.5 -56.5z" />
    <glyph glyph-name="four.tf" 
d="M588 164h-88v-164h-136l1 164h-352v84l312 452h175v-433h88v-103zM154 267h212v320z" />
    <glyph glyph-name="five.tf" 
d="M463 434q48 -29 74 -81.5t26 -120.5q0 -72 -32.5 -127t-92 -85t-136.5 -30q-101 0 -170.5 51t-91.5 141l132 32q14 -53 48 -82.5t85 -29.5q55 0 88 34t33 95q0 59 -30 91.5t-81 32.5q-43 0 -73 -21.5t-52 -55.5l-130 26q50 181 53 396l2 -1v1h423v-105h-319
q-5 -105 -30 -224q20 38 62 65t101 27q63 0 111 -29z" />
    <glyph glyph-name="six.tf" 
d="M469 420q49 -26 77 -75.5t28 -116.5q0 -71 -32 -125t-91 -83.5t-138 -29.5q-140 0 -213 91.5t-73 254.5q0 117 36.5 201.5t102.5 128.5t153 44q72 0 142 -34t102 -125l-142 -41q-12 41 -38 60.5t-62 19.5q-65 0 -100 -59t-43 -154q33 32 80.5 50.5t100.5 18.5
q61 0 110 -26zM395.5 137.5q31.5 32.5 31.5 85.5t-30.5 84.5t-82.5 31.5q-41 0 -78.5 -20t-56.5 -55q8 -81 41 -120t92 -39q52 0 83.5 32.5z" />
    <glyph glyph-name="seven.tf" 
d="M573 700v-110q-99 -94 -153.5 -173.5t-77.5 -165t-23 -200.5q0 -33 1 -51h-156q-4 380 294 595h-431v105h546z" />
    <glyph glyph-name="eight.tf" 
d="M523 303.5q43 -47.5 43 -115.5q0 -61 -33 -105.5t-93 -68.5t-140 -24t-140 24t-93 68.5t-33 105.5q0 67 42.5 114.5t132.5 66.5q-79 18 -116 59.5t-37 99.5q0 84 67 133t177 49q73 0 128.5 -22t86 -63t30.5 -96q0 -58 -37.5 -99.5t-117.5 -59.5q90 -19 133 -66.5z
M219.5 586.5q-30.5 -25.5 -30.5 -67.5q0 -41 31 -67.5t80 -26.5t80 26.5t31 67.5q0 42 -30.5 67.5t-80.5 25.5t-80.5 -25.5zM393.5 119q35.5 29 35.5 79q0 46 -35.5 75t-93.5 29t-93.5 -29t-35.5 -75q0 -50 35.5 -79t93.5 -29t93.5 29z" />
    <glyph glyph-name="nine.tf" 
d="M500 618.5q73 -91.5 73 -254.5q0 -117 -36.5 -201.5t-102.5 -128.5t-153 -44q-72 0 -142 34t-102 125l142 41q12 -41 38 -60.5t62 -19.5q65 0 100 59t43 154q-33 -32 -80.5 -50.5t-100.5 -18.5q-61 0 -110 26t-77 75.5t-28 116.5q0 71 32 125t91 83.5t138 29.5
q140 0 213 -91.5zM364.5 381q37.5 20 56.5 55q-8 81 -41 120t-92 39q-52 0 -83.5 -32.5t-31.5 -85.5t30.5 -84.5t82.5 -31.5q41 0 78.5 20z" />
    <glyph glyph-name="zero.tf.zero" 
d="M491 616q67 -94 67 -267q0 -172 -67 -265.5t-191 -93.5t-191 93.5t-67 265.5q0 173 67 267t191 94t191 -94zM209.5 533.5q-28.5 -56.5 -28.5 -183.5q0 -38 3 -71l66 74l145 171q-27 66 -95 66q-62 0 -90.5 -56.5zM390.5 166.5q28.5 56.5 28.5 183.5q0 45 -3 81l-90 -100
l-124 -147q28 -74 98 -74q62 0 90.5 56.5z" />
    <glyph glyph-name="zero.tosf" 
d="M446 515q63 -35 97.5 -98.5t34.5 -146.5t-34.5 -146.5t-97.5 -98.5t-146 -35t-146 35t-97.5 98.5t-34.5 146.5t34.5 146.5t97.5 98.5t146 35t146 -35zM198 390q-36 -44 -36 -119t36 -119t102 -45q66 1 102 45t36 119t-36 119t-102 44t-102 -44z" />
    <glyph glyph-name="one.tosf" 
d="M550 110v-110h-496v110h186v294q-38 -59 -139 -105l-52 110q89 32 137 62t82 69h105v-430h177z" />
    <glyph glyph-name="two.tosf" 
d="M558 109v-109h-513v91l147 68q110 51 160.5 94t50.5 91q0 41 -30 68t-82 27q-55 0 -86 -30.5t-31 -78.5q0 -24 9 -50h-136q-4 24 -4 51q0 66 30 115.5t85.5 76t130.5 26.5q72 0 127.5 -24t86.5 -67t31 -98q0 -71 -59.5 -137t-203.5 -112l-6 -2h293z" />
    <glyph glyph-name="three.tosf" 
d="M519.5 140.5q46.5 -43.5 46.5 -113.5q0 -59 -33 -103.5t-92 -69t-134 -24.5q-120 0 -196.5 58.5t-92.5 156.5l131 28q9 -69 50.5 -101t101.5 -32q55 0 89 28t34 74q0 47 -36 75t-105 28h-44l-1 100h55q54 0 87.5 26.5t33.5 72.5q0 45 -30.5 70.5t-82.5 25.5
q-50 0 -84 -28.5t-43 -86.5l-129 27q11 90 80 144t176 54q74 0 129 -23.5t85 -66t30 -99.5q0 -65 -40 -107.5t-115 -56.5q83 -13 129.5 -56.5z" />
    <glyph glyph-name="four.tosf" 
d="M588 4h-88v-164h-136l1 164h-352v84l312 452h175v-433h88v-103zM154 107h212v320z" />
    <glyph glyph-name="five.tosf" 
d="M463 274q48 -29 74 -81.5t26 -120.5q0 -72 -32.5 -127t-92 -85t-136.5 -30q-101 0 -170.5 51t-91.5 141l132 32q14 -53 48 -82.5t85 -29.5q55 0 88 34t33 95q0 59 -30 91.5t-81 32.5q-43 0 -73 -21.5t-52 -55.5l-130 26q50 181 53 396l2 -1v1h423v-105h-319
q-5 -105 -30 -224q20 38 62 65t101 27q63 0 111 -29z" />
    <glyph glyph-name="six.tosf" 
d="M469 420q49 -26 77 -75.5t28 -116.5q0 -71 -32 -125t-91 -83.5t-138 -29.5q-140 0 -213 91.5t-73 254.5q0 117 36.5 201.5t102.5 128.5t153 44q72 0 142 -34t102 -125l-142 -41q-12 41 -38 60.5t-62 19.5q-65 0 -100 -59t-43 -154q33 32 80.5 50.5t100.5 18.5
q61 0 110 -26zM395.5 137.5q31.5 32.5 31.5 85.5t-30.5 84.5t-82.5 31.5q-41 0 -78.5 -20t-56.5 -55q8 -81 41 -120t92 -39q52 0 83.5 32.5z" />
    <glyph glyph-name="seven.tosf" 
d="M573 540v-110q-99 -94 -153.5 -173.5t-77.5 -165t-23 -200.5q0 -33 1 -51h-156q-4 380 294 595h-431v105h546z" />
    <glyph glyph-name="eight.tosf" 
d="M523 303.5q43 -47.5 43 -115.5q0 -61 -33 -105.5t-93 -68.5t-140 -24t-140 24t-93 68.5t-33 105.5q0 67 42.5 114.5t132.5 66.5q-79 18 -116 59.5t-37 99.5q0 84 67 133t177 49q73 0 128.5 -22t86 -63t30.5 -96q0 -58 -37.5 -99.5t-117.5 -59.5q90 -19 133 -66.5z
M219.5 586.5q-30.5 -25.5 -30.5 -67.5q0 -41 31 -67.5t80 -26.5t80 26.5t31 67.5q0 42 -30.5 67.5t-80.5 25.5t-80.5 -25.5zM393.5 119q35.5 29 35.5 79q0 46 -35.5 75t-93.5 29t-93.5 -29t-35.5 -75q0 -50 35.5 -79t93.5 -29t93.5 29z" />
    <glyph glyph-name="nine.tosf" 
d="M500 458.5q73 -91.5 73 -254.5q0 -117 -36.5 -201.5t-102.5 -128.5t-153 -44q-72 0 -142 34t-102 125l142 41q12 -41 38 -60.5t62 -19.5q65 0 100 59t43 154q-33 -32 -80.5 -50.5t-100.5 -18.5q-61 0 -110 26t-77 75.5t-28 116.5q0 71 32 125t91 83.5t138 29.5
q140 0 213 -91.5zM364.5 221q37.5 20 56.5 55q-8 81 -41 120t-92 39q-52 0 -83.5 -32.5t-31.5 -85.5t30.5 -84.5t82.5 -31.5q41 0 78.5 20z" />
    <glyph glyph-name="zero.tosf.zero" 
d="M446 514q63 -35 97.5 -98t34.5 -146t-34.5 -146t-97.5 -97.5t-146 -34.5t-146 34.5t-97.5 97.5t-34.5 146t34.5 146t97.5 98t146 35t146 -35zM198 390q-36 -44 -36 -119q0 -47 15 -83l92 103l105 124q-32 19 -74 19q-66 0 -102 -44zM402 152q36 44 36 119q0 53 -18 90
l-88 -99l-111 -132q34 -23 79 -23q66 1 102 45z" />
    <glyph glyph-name="zero.zero" horiz-adv-x="640" 
d="M525.5 616q72.5 -94 72.5 -267q0 -172 -72 -265.5t-206 -93.5t-206 93.5t-72 265.5q0 173 72.5 267t205.5 94t205.5 -94zM215.5 530q-32.5 -55 -32.5 -180q0 -46 5 -89l87 96l148 175q-32 53 -103 53q-72 0 -104.5 -55zM424.5 170q32.5 55 32.5 180q0 45 -5 88l-101 -113
l-134 -158q33 -52 103 -52q72 0 104.5 55z" />
    <glyph glyph-name="zero.dnom" horiz-adv-x="422" 
d="M347 395q49 -59 49 -172t-49 -171t-136 -58q-88 0 -136.5 58t-48.5 171q0 114 48.5 172.5t136.5 58.5q87 0 136 -59zM150.5 328.5q-19.5 -33.5 -19.5 -104.5t19.5 -104.5t60.5 -33.5t60.5 34t19.5 104t-19.5 104t-60.5 34t-60.5 -33.5z" />
    <glyph glyph-name="one.dnom" horiz-adv-x="304" 
d="M246 448v-448h-96v368q-24 -50 -99 -89l-40 85q57 19 91.5 39t59.5 45h84z" />
    <glyph glyph-name="two.dnom" horiz-adv-x="387" 
d="M380 83v-83h-355v70l125 93q59 45 86.5 78t27.5 68q0 31 -19 48.5t-50 17.5q-28 0 -51.5 -17t-23.5 -56q0 -17 6 -40h-102q-3 20 -3 38q0 77 50 115.5t125 38.5q79 0 126.5 -38.5t47.5 -101.5q0 -52 -45 -103t-150 -117l-18 -11h223z" />
    <glyph glyph-name="three.dnom" horiz-adv-x="412" 
d="M360.5 193q26.5 -27 26.5 -69q0 -59 -48.5 -94.5t-127.5 -35.5t-129.5 37.5t-62.5 106.5l101 15q6 -42 30 -61.5t60 -19.5q33 0 52.5 16t19.5 42q0 28 -22 45t-64 17h-32l-1 72h39q32 0 51.5 14.5t19.5 41.5q0 25 -17.5 40.5t-46.5 15.5t-49.5 -17.5t-24.5 -53.5l-97 20
q9 64 55.5 96.5t116.5 32.5q75 0 119 -33.5t44 -89.5q0 -39 -23 -64.5t-66 -35.5q50 -11 76.5 -38z" />
    <glyph glyph-name="four.dnom" horiz-adv-x="384" 
d="M371 96h-48v-96h-101l1 96h-215v67l181 285h134v-274h48v-78zM224 174v193l-119 -193h119z" />
    <glyph glyph-name="five.dnom" horiz-adv-x="401" 
d="M340 255.5q39 -41.5 39 -106.5q0 -70 -47 -112.5t-126 -42.5q-71 0 -119.5 34.5t-60.5 90.5l98 24q7 -32 27.5 -49.5t53.5 -17.5q35 0 55.5 19.5t20.5 53.5q0 32 -18.5 51.5t-49.5 19.5q-44 0 -76 -42l-96 20q27 103 28 250l1 -1v1h290v-81h-208q-3 -68 -16 -125
q33 55 104 55q61 0 100 -41.5z" />
    <glyph glyph-name="six.dnom" horiz-adv-x="414" 
d="M346.5 249.5q41.5 -40.5 41.5 -103.5q0 -68 -47.5 -110t-127.5 -42q-95 0 -142.5 60t-47.5 166q0 110 51 172t144 62q70 0 109.5 -31t55.5 -74l-94 -25q-16 55 -73 55q-47 0 -70 -37t-23 -115v-3q17 31 46.5 48.5t69.5 17.5q66 0 107.5 -40.5zM269 89.5q21 21.5 21 57.5
q0 34 -20.5 53.5t-53.5 19.5q-53 0 -88 -55q16 -97 86 -97q34 0 55 21.5z" />
    <glyph glyph-name="seven.dnom" horiz-adv-x="354" 
d="M356 367q-57 -61 -86 -101t-44.5 -89.5t-15.5 -122.5q0 -16 2 -54h-119q-2 112 37.5 203.5t137.5 164.5h-256v80h344v-81z" />
    <glyph glyph-name="eight.dnom" horiz-adv-x="398" 
d="M375 124q0 -60 -47.5 -95t-127.5 -35t-128.5 35t-48.5 95q0 88 106 113q-92 21 -92 97q0 56 44.5 88t118.5 32t119 -32.5t45 -86.5q0 -75 -93 -98q104 -24 104 -113zM149 369q-19 -15 -19 -40t19.5 -40.5t50.5 -15.5t50 15.5t19 40.5t-19 40t-50 15q-32 0 -51 -15z
M258 82.5q22 17.5 22 46.5q0 28 -22 45t-58 17q-37 0 -58.5 -17t-21.5 -45q0 -29 22 -46.5t58 -17.5t58 17.5z" />
    <glyph glyph-name="nine.dnom" horiz-adv-x="414" 
d="M343.5 396q47.5 -60 47.5 -166q0 -110 -51 -172t-144 -62q-70 0 -109.5 31t-55.5 74l94 25q16 -55 73 -55q47 0 70 37t23 115v3q-17 -31 -46.5 -48.5t-69.5 -17.5q-66 0 -107.5 40.5t-41.5 103.5q0 68 47.5 110t127.5 42q95 0 142.5 -60zM286 285q-16 97 -86 97
q-34 0 -55 -21.5t-21 -57.5q0 -34 20.5 -53.5t53.5 -19.5q53 0 88 55z" />
    <glyph glyph-name="zero.numr" horiz-adv-x="422" 
d="M347 651q49 -59 49 -172t-49 -171t-136 -58q-88 0 -136.5 58t-48.5 171q0 114 48.5 172.5t136.5 58.5q87 0 136 -59zM150.5 584.5q-19.5 -33.5 -19.5 -104.5t19.5 -104.5t60.5 -33.5t60.5 34t19.5 104t-19.5 104t-60.5 34t-60.5 -33.5z" />
    <glyph glyph-name="one.numr" horiz-adv-x="304" 
d="M246 700v-448h-96v368q-24 -50 -99 -89l-40 85q57 19 91.5 39t59.5 45h84z" />
    <glyph glyph-name="two.numr" horiz-adv-x="387" 
d="M380 339v-83h-355v70l125 93q59 45 86.5 78t27.5 68q0 31 -19 48.5t-50 17.5q-28 0 -51.5 -17t-23.5 -56q0 -17 6 -40h-102q-3 20 -3 38q0 77 50 115.5t125 38.5q79 0 126.5 -38.5t47.5 -101.5q0 -52 -45 -103t-150 -117l-18 -11h223z" />
    <glyph glyph-name="three.numr" horiz-adv-x="412" 
d="M360.5 449q26.5 -27 26.5 -69q0 -59 -48.5 -94.5t-127.5 -35.5t-129.5 37.5t-62.5 106.5l101 15q6 -42 30 -61.5t60 -19.5q33 0 52.5 16t19.5 42q0 28 -22 45t-64 17h-32l-1 72h39q32 0 51.5 14.5t19.5 41.5q0 25 -17.5 40.5t-46.5 15.5t-49.5 -17.5t-24.5 -53.5l-97 20
q9 64 55.5 96.5t116.5 32.5q75 0 119 -33.5t44 -89.5q0 -39 -23 -64.5t-66 -35.5q50 -11 76.5 -38z" />
    <glyph glyph-name="four.numr" horiz-adv-x="384" 
d="M371 348h-48v-96h-101l1 96h-215v67l181 285h134v-274h48v-78zM224 426v193l-119 -193h119z" />
    <glyph glyph-name="five.numr" horiz-adv-x="401" 
d="M340 507.5q39 -41.5 39 -106.5q0 -70 -47 -112.5t-126 -42.5q-71 0 -119.5 34.5t-60.5 90.5l98 24q7 -32 27.5 -49.5t53.5 -17.5q35 0 55.5 19.5t20.5 53.5q0 32 -18.5 51.5t-49.5 19.5q-44 0 -76 -42l-96 20q27 103 28 250l1 -1v1h290v-81h-208q-3 -68 -16 -125
q33 55 104 55q61 0 100 -41.5z" />
    <glyph glyph-name="six.numr" horiz-adv-x="414" 
d="M346.5 505.5q41.5 -40.5 41.5 -103.5q0 -68 -47.5 -110t-127.5 -42q-95 0 -142.5 60t-47.5 166q0 110 51 172t144 62q70 0 109.5 -31t55.5 -74l-94 -25q-16 55 -73 55q-47 0 -70 -37t-23 -115v-3q17 31 46.5 48.5t69.5 17.5q66 0 107.5 -40.5zM269 345.5q21 21.5 21 57.5
q0 34 -20.5 53.5t-53.5 19.5q-53 0 -88 -55q16 -97 86 -97q34 0 55 21.5z" />
    <glyph glyph-name="seven.numr" horiz-adv-x="354" 
d="M356 619q-57 -61 -86 -101t-44.5 -89.5t-15.5 -122.5q0 -16 2 -54h-119q-2 112 37.5 203.5t137.5 164.5h-256v80h344v-81z" />
    <glyph glyph-name="eight.numr" horiz-adv-x="398" 
d="M375 380q0 -60 -47.5 -95t-127.5 -35t-128.5 35t-48.5 95q0 88 106 113q-92 21 -92 97q0 56 44.5 88t118.5 32t119 -32.5t45 -86.5q0 -75 -93 -98q104 -24 104 -113zM149 625q-19 -15 -19 -40t19.5 -40.5t50.5 -15.5t50 15.5t19 40.5t-19 40t-50 15q-32 0 -51 -15z
M258 338.5q22 17.5 22 46.5q0 28 -22 45t-58 17q-37 0 -58.5 -17t-21.5 -45q0 -29 22 -46.5t58 -17.5t58 17.5z" />
    <glyph glyph-name="nine.numr" horiz-adv-x="414" 
d="M343.5 650q47.5 -60 47.5 -166q0 -110 -51 -172t-144 -62q-70 0 -109.5 31t-55.5 74l94 25q16 -55 73 -55q47 0 70 37t23 115v3q-17 -31 -46.5 -48.5t-69.5 -17.5q-66 0 -107.5 40.5t-41.5 103.5q0 68 47.5 110t127.5 42q95 0 142.5 -60zM286 539q-16 97 -86 97
q-34 0 -55 -21.5t-21 -57.5q0 -34 20.5 -53.5t53.5 -19.5q53 0 88 55z" />
    <glyph glyph-name="exclamdown.case" horiz-adv-x="378" 
d="M249.5 685q21.5 -20 21.5 -56t-21.5 -56t-58.5 -20t-59 20t-22 56t22 56t59 20t58.5 -20zM245 441l24 -441h-158l25 441h109z" />
    <glyph glyph-name="questiondown.case" horiz-adv-x="550" 
d="M347 685q22 -20 22 -56t-22 -56t-59 -20t-58.5 20t-21.5 56t21.5 56t58.5 20t59 -20zM100 38q-60 48 -60 136q0 40 14 68.5t33.5 46t52.5 40.5q41 27 61 50t20 61v6h136v-6q0 -36 -13.5 -62.5t-33.5 -44t-52 -38.5q-42 -28 -62 -50.5t-20 -57.5q0 -39 26 -62.5t69 -23.5
q42 0 72.5 22t30.5 69q0 22 -9 52h135q5 -30 5 -50q0 -98 -61 -151t-174 -53q-110 0 -170 48z" />
    <glyph glyph-name="periodcentered.case" horiz-adv-x="275" 
d="M78 289.5q-23 20.5 -23 58.5t23 58.5t61 20.5t61 -20.5t23 -58.5t-23 -58.5t-61 -20.5t-61 20.5z" />
    <glyph glyph-name="bullet.case" horiz-adv-x="421" 
d="M369 195h-314v314h314v-314z" />
    <glyph glyph-name="parenleft.case" horiz-adv-x="376" 
d="M110 97q-50 116 -50 246q0 129 50 244.5t139 202.5h111q-84 -89 -130.5 -204t-46.5 -243t46.5 -243.5t131.5 -204.5h-111q-90 86 -140 202z" />
    <glyph glyph-name="parenright.case" horiz-adv-x="376" 
d="M15 -105q85 89 131.5 204.5t46.5 243.5t-46.5 243t-130.5 204h111q89 -87 139 -202.5t50 -244.5q0 -130 -50 -246t-140 -202h-111z" />
    <glyph glyph-name="braceleft.case" horiz-adv-x="364" 
d="M235 430.5q-10 -38.5 -39.5 -60t-85.5 -28.5q57 -6 86 -28t39 -61t10 -106v-85q0 -72 71 -72h18v-95h-50q-76 0 -117 45t-41 128v119q0 98 -84 98h-12v115h12q84 0 84 95v122q0 83 41 128t117 45h50v-95h-18q-71 0 -71 -72v-88q0 -66 -10 -104.5z" />
    <glyph glyph-name="braceright.case" horiz-adv-x="364" 
d="M334 400v-115h-12q-84 0 -84 -98v-119q0 -83 -41 -128t-117 -45h-50v95h18q71 0 71 72v85q0 67 10 106t39 61t86 28q-56 7 -85.5 28.5t-39.5 60t-10 104.5v88q0 72 -71 72h-18v95h50q76 0 117 -45t41 -128v-122q0 -95 84 -95h12z" />
    <glyph glyph-name="bracketleft.case" horiz-adv-x="343" 
d="M194 695v-705h129v-95h-248v895h248v-95h-129z" />
    <glyph glyph-name="bracketright.case" horiz-adv-x="343" 
d="M268 -105h-248v95h129v705h-129v95h248v-895z" />
    <glyph glyph-name="hyphen.case" horiz-adv-x="434" 
d="M70 304v106h294v-106h-294z" />
    <glyph glyph-name="endash.case" horiz-adv-x="619" 
d="M35 410h530v-105l-530 1v104z" />
    <glyph glyph-name="emdash.case" horiz-adv-x="1068" 
d="M35 410h998v-104h-998v104z" />
    <glyph glyph-name="guillemotleft.case" horiz-adv-x="570" 
d="M176 549h129q-25 -99 -141 -198q116 -99 141 -198h-129q-20 94 -116 184v28q96 90 116 184zM386 549h129q-25 -99 -141 -198q116 -99 141 -198h-129q-20 94 -116 184v28q96 90 116 184z" />
    <glyph glyph-name="guillemotright.case" horiz-adv-x="570" 
d="M300 337q-96 -90 -116 -184h-129q26 99 141 198q-115 99 -141 198h129q20 -94 116 -184v-28zM510 337q-96 -90 -116 -184h-129q26 99 141 198q-115 99 -141 198h129q20 -94 116 -184v-28z" />
    <glyph glyph-name="guilsinglleft.case" horiz-adv-x="360" 
d="M176 549h129q-25 -99 -141 -198q116 -99 141 -198h-129q-20 94 -116 184v28q96 90 116 184z" />
    <glyph glyph-name="guilsinglright.case" horiz-adv-x="360" 
d="M300 337q-96 -90 -116 -184h-129q26 99 141 198q-115 99 -141 198h129q20 -94 116 -184v-28z" />
    <glyph glyph-name="at.case" horiz-adv-x="803" 
d="M573 528v-240q0 -65 45 -65q36 0 59 41.5t23 114.5q0 88 -36 155t-102.5 104t-155.5 37q-91 0 -157.5 -38.5t-103 -111.5t-36.5 -176q0 -154 81.5 -237t229.5 -83q68 0 113.5 17.5t93.5 55.5l30 -55q-95 -75 -236 -75q-113 0 -197 45.5t-129 131t-45 200.5
q0 112 42.5 198.5t123 134t189.5 47.5q102 0 181 -41.5t123.5 -120t44.5 -187.5q0 -112 -46.5 -171t-124.5 -59q-89 0 -106 74q-20 -36 -49 -55.5t-72 -19.5q-71 0 -108.5 52.5t-37.5 141.5q0 90 37.5 142t109.5 52q40 0 69.5 -17t47.5 -45v53h99zM474 274v137
q-20 27 -38.5 40t-43.5 13q-82 0 -82 -115q0 -65 23 -93.5t60 -28.5q50 0 81 47z" />
    <glyph glyph-name="bar.case" horiz-adv-x="309" 
d="M209 780v-860h-109v860h109z" />
    <glyph glyph-name="brokenbar.case" horiz-adv-x="309" 
d="M209 780v-351h-109v351h109zM209 271v-351h-109v351h109z" />
    <glyph glyph-name="caroncomb.alt" horiz-adv-x="0" 
d="M-249 772h126l-67 -160h-59v160z" />
    <glyph glyph-name="uni0308.case" horiz-adv-x="0" 
d="M-469.5 794q-21.5 20 -21.5 56t21.5 56t58.5 20t59 -20t22 -56t-22 -56t-59 -20t-58.5 20zM-248.5 794q-21.5 20 -21.5 56t21.5 56t58.5 20t59 -20t22 -56t-22 -56t-59 -20t-58.5 20z" />
    <glyph glyph-name="uni0307.case" horiz-adv-x="0" 
d="M-361 793.5q-23 20.5 -23 58.5t23 58.5t61 20.5t61 -20.5t23 -58.5t-23 -58.5t-61 -20.5t-61 20.5z" />
    <glyph glyph-name="gravecomb.case" horiz-adv-x="0" 
d="M-303 772l-194 160h177l76 -160h-59z" />
    <glyph glyph-name="acutecomb.case" horiz-adv-x="0" 
d="M-260 932h177l-194 -160h-59z" />
    <glyph glyph-name="uni030B.case" horiz-adv-x="0" 
d="M-383 932h144l-120 -160h-58zM-207 932h144l-120 -160h-58z" />
    <glyph glyph-name="uni0302.case" horiz-adv-x="0" 
d="M-205 772l-94 89l-95 -89h-82l113 160h127l111 -160h-80z" />
    <glyph glyph-name="uni030C.case" horiz-adv-x="0" 
d="M-237 773h-127l-113 160h69l108 -92l115 92h59z" />
    <glyph glyph-name="uni0306.case" horiz-adv-x="0" 
d="M-408 819q-42 38 -43 107h95q0 -33 16 -50.5t43 -17.5q28 0 45 17.5t17 50.5h95q-2 -69 -44.5 -107t-112.5 -38q-69 0 -111 38z" />
    <glyph glyph-name="uni030A.case" horiz-adv-x="0" 
d="M-384.5 793.5q-32.5 30.5 -32.5 78.5t32.5 78t84.5 30t84.5 -30t32.5 -78t-32.5 -78.5t-84.5 -30.5t-84.5 30.5zM-260.5 834q15.5 15 15.5 38t-15.5 37.5t-38.5 14.5q-24 0 -39.5 -14.5t-15.5 -37.5t15.5 -38t39.5 -15q23 0 38.5 15z" />
    <glyph glyph-name="tildecomb.case" horiz-adv-x="0" 
d="M-270.5 806.5q-16.5 7.5 -35.5 21.5q-17 11 -25.5 15.5t-20.5 4.5q-35 0 -37 -43h-84q1 61 30 90.5t76 29.5q23 0 38.5 -7.5t34.5 -21.5q15 -11 24.5 -16t21.5 -5q36 0 38 43h84q0 -61 -28 -90t-76 -29q-24 0 -40.5 7.5z" />
    <glyph glyph-name="uni0304.case" horiz-adv-x="0" 
d="M-140 897v-86h-320v86h320z" />
    </font>
</defs>
</svg>
