<?xml version="1.0" standalone="no"?>
<!DOCTYPE svg PUBLIC "-//W3C//DTD SVG 1.1//EN" "http://www.w3.org/Graphics/SVG/1.1/DTD/svg11.dtd" >
<svg xmlns="http://www.w3.org/2000/svg" xmlns:xlink="http://www.w3.org/1999/xlink" version="1.1">
<metadata>
Created by FontForge 20170731 at Thu Nov 22 16:57:41 2018
 By Aleksey,,,
Copyright (c) 2018 by Rene Bieder. All rights reserved.
</metadata>
<defs>
<font id="BayWaSans-Medium" horiz-adv-x="600" >
  <font-face 
    font-family="BayWa Sans Medium"
    font-weight="500"
    font-stretch="normal"
    units-per-em="1000"
    panose-1="2 1 0 3 4 0 0 0 0 0"
    ascent="766"
    descent="-234"
    x-height="533"
    cap-height="700"
    bbox="-637 -273 1315 961"
    underline-thickness="50"
    underline-position="-150"
    unicode-range="U+0020-FB02"
  />
<missing-glyph horiz-adv-x="660" 
d="M580 700v-700h-500v700h500zM150 660l181 -274l180 274h-361zM122 630v-560l185 280zM355 350l184 -280v560zM511 40l-180 274l-181 -274h361z" />
    <glyph glyph-name="fi" unicode="fi" horiz-adv-x="565" 
d="M490 0h-98v456h-196v-456h-98v456h-81v77h81q1 99 61 151.5t160 52.5q67 0 114 -25l-24 -74q-39 26 -95 26q-118 0 -118 -129v-2h294v-533z" />
    <glyph glyph-name="f_f_i" unicode="ffi" horiz-adv-x="860" 
d="M785 0h-99v456h-196v-456h-98v456h-196v-456h-98v456h-81v77h81v14q0 96 49.5 143t145.5 47q49 0 85 -15l-23 -73q-30 16 -62 16q-50 0 -73.5 -29.5t-23.5 -88.5v-14h196q1 99 61.5 151.5t159.5 52.5q67 0 114 -25l-24 -74q-39 26 -95 26q-118 0 -118 -129v-2h295v-533z
" />
    <glyph glyph-name="f_f_j" unicode="ffj" horiz-adv-x="861" 
d="M786 31q0 -101 -45.5 -151t-123.5 -50q-10 0 -30 2l-14 79q13 -5 31 -5q45 0 64.5 24.5t19.5 89.5v436h-197v-456h-98v456h-197v-456h-98v456h-81v77h81v14q0 96 49.5 143t145.5 47q49 0 85 -15l-23 -73q-30 16 -62 16q-50 0 -73.5 -29.5t-23.5 -88.5v-14h197
q1 99 61 151.5t160 52.5q67 0 114 -25l-24 -74q-39 26 -95 26q-118 0 -118 -129v-2h295v-502z" />
    <glyph glyph-name="f_j" unicode="fj" horiz-adv-x="566" 
d="M491 31q0 -101 -45.5 -151t-123.5 -50q-10 0 -30 2l-14 79q13 -5 31 -5q45 0 64.5 24.5t19.5 89.5v436h-197v-456h-98v456h-81v77h81q1 99 61 151.5t160 52.5q67 0 114 -25l-24 -74q-39 26 -95 26q-118 0 -118 -129v-2h295v-502z" />
    <glyph glyph-name=".notdef" horiz-adv-x="660" 
d="M580 700v-700h-500v700h500zM150 660l181 -274l180 274h-361zM122 630v-560l185 280zM355 350l184 -280v560zM511 40l-180 274l-181 -274h361z" />
    <glyph glyph-name=".null" horiz-adv-x="0" 
 />
    <glyph glyph-name="nonmarkingreturn" horiz-adv-x="333" 
 />
    <glyph glyph-name="space" unicode=" " horiz-adv-x="232" 
 />
    <glyph glyph-name="exclam" unicode="!" horiz-adv-x="339" 
d="M110 700h119l-17 -446h-83zM123.5 12q-17.5 17 -17.5 45q0 29 17.5 45.5t46.5 16.5t46 -16.5t17 -45.5q0 -28 -17 -45t-46 -17t-46.5 17z" />
    <glyph glyph-name="quotedbl" unicode="&#x22;" horiz-adv-x="379" 
d="M155 700l-13 -240h-72l-13 240h98zM322 700l-13 -240h-72l-13 240h98z" />
    <glyph glyph-name="numbersign" unicode="#" horiz-adv-x="774" 
d="M569 433l-37 -171h109v-76h-125l-40 -186h-86l40 186h-161l-40 -186h-86l40 186h-98v76h114l37 171h-103v75h119l41 192h86l-41 -192h161l41 192h86l-41 -192h104v-75h-120zM483 433h-161l-37 -171h161z" />
    <glyph glyph-name="dollar" unicode="$" 
d="M492 81q-58 -50 -161 -55l3 -116h-76l3 118q-84 9 -142 55t-79 131l89 23q14 -57 49.5 -90t85.5 -43v212q-61 14 -103 31.5t-69.5 52.5t-27.5 92q0 79 52.5 127t144.5 56l-3 125h76l-3 -126q158 -16 196 -162l-86 -20q-28 93 -113 107v-207q71 -15 115.5 -31.5t75.5 -52
t31 -95.5q0 -82 -58 -132zM184.5 442q27.5 -21 79.5 -35v194q-51 -6 -79 -33t-28 -66t27.5 -60zM421.5 132q33.5 29 33.5 71q0 41 -33 62.5t-94 35.5v-202q60 4 93.5 33z" />
    <glyph glyph-name="percent" unicode="%" horiz-adv-x="956" 
d="M382 657q50 -53 50 -140q0 -88 -50 -141t-134 -53t-133.5 53t-49.5 141q0 87 49.5 140t133.5 53t134 -53zM444 360l203 340h80l-232 -363l-201 -337h-80zM324 419.5q27 34.5 27 97.5t-27 97t-76 34t-76 -34t-27 -97t27.5 -97.5t75.5 -34.5q49 0 76 34.5zM841 324
q50 -53 50 -140q0 -88 -50 -141t-134 -53t-133.5 53t-49.5 141q0 87 49.5 140t133.5 53t134 -53zM783 86.5q27 34.5 27 97.5t-27 97t-76 34t-76 -34t-27 -97t27.5 -97.5t75.5 -34.5q49 0 76 34.5z" />
    <glyph glyph-name="ampersand" unicode="&#x26;" horiz-adv-x="686" 
d="M561 -3l-64 65q-89 -72 -211 -72q-71 0 -125.5 23.5t-84.5 67t-30 99.5q0 67 40 111t108 78q-45 48 -67 88.5t-22 84.5q0 49 24.5 87t68 59.5t99.5 21.5t100 -21.5t69.5 -60t25.5 -88.5q0 -61 -41 -104.5t-130 -86.5l176 -172q43 75 40 191h93q-4 -144 -77 -245l130 -126
h-122zM227.5 608.5q-25.5 -24.5 -25.5 -68.5q0 -37 16.5 -69.5t48.5 -67.5q59 29 94.5 62t35.5 80q0 40 -26 64t-72 24t-71.5 -24.5zM445 115l-196 199q-47 -25 -75.5 -56.5t-28.5 -75.5q0 -51 40.5 -84t110.5 -33q89 0 149 50z" />
    <glyph glyph-name="quotesingle" unicode="'" horiz-adv-x="212" 
d="M155 700l-13 -240h-72l-13 240h98z" />
    <glyph glyph-name="parenleft" unicode="(" horiz-adv-x="379" 
d="M128 88q-49 116 -49 245q0 128 49 244t134 203h85q-82 -92 -129 -207t-47 -240t47.5 -241t129.5 -207h-85q-86 87 -135 203z" />
    <glyph glyph-name="parenright" unicode=")" horiz-adv-x="379" 
d="M32 -115q81 92 128.5 207.5t47.5 240.5t-47 240t-128 207h84q86 -87 135 -203t49 -244q0 -129 -49.5 -245t-135.5 -203h-84z" />
    <glyph glyph-name="asterisk" unicode="*" horiz-adv-x="430" 
d="M255 555l95 -100l-67 -48l-68 128l-68 -128l-69 48l97 100l-126 13l20 82l124 -55l-20 135h83l-19 -134l123 54l21 -82z" />
    <glyph glyph-name="plus" unicode="+" 
d="M263 298h-210v71h210v213h76v-213h209v-71h-209v-210h-76v210z" />
    <glyph glyph-name="comma" unicode="," horiz-adv-x="275" 
d="M184.5 101q17.5 -20 17.5 -61q0 -49 -30 -95t-78 -75l-31 35q28 23 44.5 44.5t21.5 47.5q-27 2 -42.5 18.5t-15.5 43.5q0 28 16.5 45t46.5 17q33 0 50.5 -20z" />
    <glyph glyph-name="hyphen" unicode="-" horiz-adv-x="407" 
d="M63 262v76h281v-76h-281z" />
    <glyph glyph-name="period" unicode="." horiz-adv-x="275" 
d="M91 12q-18 17 -18 46t18 46t47 17t46.5 -17t17.5 -46t-17.5 -46t-46.5 -17t-47 17z" />
    <glyph glyph-name="slash" unicode="/" horiz-adv-x="658" 
d="M301 371l233 329h97l-259 -351l-248 -349h-97z" />
    <glyph glyph-name="zero" unicode="0" horiz-adv-x="613" 
d="M500 616q68 -94 68 -267q0 -172 -68 -265t-193 -93q-126 0 -194 93t-68 265q0 173 68 267t194 94q125 0 193 -94zM183 558q-39 -67 -39 -209q0 -139 38.5 -206t124.5 -67q84 0 123.5 66.5t39.5 206.5q0 141 -39 208.5t-124 67.5t-124 -67z" />
    <glyph glyph-name="one" unicode="1" horiz-adv-x="432" 
d="M322 700v-700h-98v614q-29 -43 -69 -73t-93 -56l-38 85q77 27 127 57.5t89 72.5h82z" />
    <glyph glyph-name="two" unicode="2" horiz-adv-x="573" 
d="M544 80v-80h-500v69l198 159q102 82 143 143.5t41 116.5q0 68 -36.5 103.5t-103.5 35.5q-54 0 -96 -34.5t-42 -111.5q0 -31 7 -63h-105q-4 28 -4 58q0 81 33.5 133.5t88.5 76.5t119 24q112 0 176 -57.5t64 -157.5q0 -75 -58 -154t-201 -187l-99 -74h375z" />
    <glyph glyph-name="three" unicode="3" horiz-adv-x="613" 
d="M522 303q44 -44 44 -113q0 -59 -31.5 -104.5t-89 -70t-133.5 -24.5q-114 0 -185.5 56t-88.5 161l98 20q25 -161 176 -161q72 0 113 34t41 92q0 59 -43 93.5t-125 34.5h-56l-1 75h61q68 0 107.5 31t39.5 88q0 55 -37.5 86.5t-102.5 31.5q-66 0 -105 -37t-47 -108l-95 19
q14 100 79 151.5t168 51.5q110 0 172.5 -51.5t62.5 -136.5q0 -64 -39 -105t-116 -56q89 -14 133 -58z" />
    <glyph glyph-name="four" unicode="4" 
d="M567 171h-89v-171h-96l2 171h-369v68l332 461h131v-454h89v-75zM114 246h270v382z" />
    <glyph glyph-name="five" unicode="5" 
d="M457 433q49 -29 75.5 -81.5t26.5 -121.5q0 -71 -31.5 -125.5t-88.5 -84t-132 -29.5q-103 0 -171.5 52.5t-85.5 141.5l96 23q11 -61 53.5 -99t108.5 -38q68 0 109.5 42.5t41.5 114.5q0 75 -37 114t-103 39q-50 0 -88.5 -26t-61.5 -62l-93 18q47 194 48 389l1 -1v1h406v-81
h-322q-3 -121 -34 -248q59 91 169 91q64 0 113 -29z" />
    <glyph glyph-name="six" unicode="6" horiz-adv-x="609" 
d="M456.5 421.5q50.5 -27.5 79 -79t28.5 -118.5q0 -70 -31 -123t-87.5 -82t-132.5 -29q-136 0 -203 93t-67 253q0 115 32 199.5t93.5 129.5t148.5 45q75 0 141 -36t94 -126l-100 -28q-19 106 -134 106q-88 0 -131.5 -73.5t-45.5 -209.5q32 49 83 77.5t116 28.5
q66 0 116.5 -27.5zM426 111q38 40 38 113t-39 110t-108 37q-55 0 -100 -28t-73 -76q21 -196 172 -196q72 0 110 40z" />
    <glyph glyph-name="seven" unicode="7" horiz-adv-x="517" 
d="M516 623q-99 -111 -151.5 -196t-76.5 -184.5t-23 -242.5h-117q4 125 31 227.5t90 199.5t170 193h-429v80h506v-77z" />
    <glyph glyph-name="eight" unicode="8" horiz-adv-x="590" 
d="M513.5 306.5q40.5 -47.5 40.5 -115.5q0 -60 -32 -105.5t-90.5 -70t-135.5 -24.5t-136 24.5t-91.5 70t-32.5 105.5q0 68 41.5 115.5t128.5 65.5q-146 33 -146 157q0 55 29.5 96t83 63t123.5 22t123 -22t82.5 -63t29.5 -95q0 -58 -35 -99t-109 -59q86 -18 126.5 -65.5z
M197 443.5q37 -31.5 99 -31.5q61 0 98 31.5t37 80.5q0 50 -36 78.5t-99 28.5t-99.5 -28.5t-36.5 -78.5q0 -49 37 -80.5zM410.5 104.5q41.5 34.5 41.5 94.5q0 55 -42 89t-114 34t-114.5 -33.5t-42.5 -89.5q0 -59 41.5 -94t115.5 -35q73 0 114.5 34.5z" />
    <glyph glyph-name="nine" unicode="9" horiz-adv-x="609" 
d="M499 619q67 -93 67 -252q0 -116 -32 -200.5t-93.5 -129.5t-148.5 -45q-75 0 -141 36t-94 127l100 27q20 -106 134 -106q88 0 131.5 73.5t45.5 209.5q-32 -49 -83 -77.5t-116 -28.5q-66 0 -116.5 27.5t-79 79t-28.5 118.5q0 70 31 123t87.5 82t132.5 29q136 0 203 -93z
M391.5 359q45.5 28 73.5 77q-21 195 -172 195q-72 0 -110 -39.5t-38 -112.5t39 -110.5t108 -37.5q54 0 99.5 28z" />
    <glyph glyph-name="colon" unicode=":" horiz-adv-x="275" 
d="M91 12q-18 17 -18 46t18 46t47 17t46.5 -17t17.5 -46t-17.5 -46t-46.5 -17t-47 17zM91 429q-18 17 -18 46t18 46t47 17t46.5 -17t17.5 -46t-17.5 -46t-46.5 -17t-47 17z" />
    <glyph glyph-name="semicolon" unicode=";" horiz-adv-x="275" 
d="M91 429q-18 17 -18 46t18 46t47 17t46.5 -17t17.5 -46t-17.5 -46t-46.5 -17t-47 17zM184.5 101q17.5 -20 17.5 -61q0 -49 -30 -95t-78 -75l-31 35q28 23 44.5 44.5t21.5 47.5q-27 2 -42.5 18.5t-15.5 43.5q0 28 16.5 45t46.5 17q33 0 50.5 -20z" />
    <glyph glyph-name="less" unicode="&#x3c;" horiz-adv-x="593" 
d="M468 458l-304 -127l304 -127v-82l-383 175v67l383 175v-81z" />
    <glyph glyph-name="equal" unicode="=" 
d="M53 469h495v-71h-495v71zM53 269h495v-71h-495v71z" />
    <glyph glyph-name="greater" unicode="&#x3e;" horiz-adv-x="593" 
d="M508 364v-67l-383 -175v82l305 127l-305 127v81z" />
    <glyph glyph-name="question" unicode="?" horiz-adv-x="563" 
d="M453 661.5q60 -48.5 60 -131.5q0 -42 -15.5 -72t-36.5 -48t-57 -42q-40 -25 -59.5 -45.5t-19.5 -52.5v-17h-99v11q0 36 13.5 62t33 42t51.5 36q44 27 66.5 52t22.5 67q0 49 -33.5 78t-87.5 29q-58 0 -92 -31.5t-34 -84.5q0 -26 11 -61h-100q-8 34 -8 60q0 58 26.5 102.5
t77 69.5t120.5 25q100 0 160 -48.5zM228.5 12q-17.5 17 -17.5 45q0 29 17.5 45.5t46.5 16.5t46.5 -16.5t17.5 -45.5q0 -28 -17.5 -45t-46.5 -17t-46.5 17z" />
    <glyph glyph-name="at" unicode="@" horiz-adv-x="784" 
d="M551 463v-256q0 -37 11.5 -50.5t34.5 -13.5q22 0 41.5 20.5t32 60t12.5 93.5q0 85 -34.5 149t-98.5 99.5t-150 35.5q-90 0 -156 -39t-101.5 -113t-35.5 -175q0 -152 79 -232t225 -80q70 0 115 19.5t90 63.5l29 -57q-97 -81 -237 -81q-107 0 -188 45t-125.5 128.5
t-44.5 196.5q0 111 43 196.5t122 133t184 47.5q99 0 175 -42t118 -119t42 -178q0 -74 -22 -126t-60 -79t-84 -27q-39 0 -63 19.5t-31 51.5q-43 -70 -119 -70q-71 0 -110 52.5t-39 141.5q0 88 39 141t111 53q35 0 64.5 -18t50.5 -48v57h80zM431.5 163.5q23.5 13.5 39.5 36.5
v153q-36 54 -92 54q-45 0 -68.5 -33t-23.5 -94q0 -64 24 -97t68 -33q29 0 52.5 13.5z" />
    <glyph glyph-name="A" unicode="A" horiz-adv-x="682" 
d="M521 137h-360l-50 -137h-103l263 700h140l263 -700h-103zM493 214l-152 416l-152 -416h304z" />
    <glyph glyph-name="B" unicode="B" horiz-adv-x="685" 
d="M604 302.5q39 -42.5 39 -109.5q0 -93 -61.5 -143t-173.5 -50h-323v700h314q101 0 155 -47t54 -132q0 -55 -32.5 -98.5t-109.5 -62.5q99 -15 138 -57.5zM184 619v-224h190q62 0 97 31t35 85q0 52 -30.5 80t-85.5 28h-206zM506 113q35 31 35 86q0 118 -153 118h-204v-235
h220q67 0 102 31z" />
    <glyph glyph-name="C" unicode="C" horiz-adv-x="722" 
d="M520.5 124.5q58.5 45.5 79.5 129.5l95 -24q-30 -113 -112 -176.5t-206 -63.5q-101 0 -179 45.5t-121 127t-43 186.5q0 106 43 188t121 127.5t179 45.5q125 0 207 -64t111 -176l-95 -24q-21 84 -79.5 129.5t-142.5 45.5q-71 0 -125.5 -34.5t-84 -96t-29.5 -141.5
q0 -79 30 -140.5t84 -95.5t125 -34q84 0 142.5 45.5z" />
    <glyph glyph-name="D" unicode="D" horiz-adv-x="731" 
d="M603 609.5q94 -90.5 94 -258.5q0 -167 -94 -259t-278 -92h-240v700h239q185 0 279 -90.5zM527 153.5q67 69.5 67 197.5t-67 196.5t-204 68.5h-136v-532h137q136 0 203 69.5z" />
    <glyph glyph-name="E" unicode="E" horiz-adv-x="655" 
d="M187 616v-209h375v-84h-375v-239h404v-84h-506v700h506v-84h-404z" />
    <glyph glyph-name="F" unicode="F" horiz-adv-x="608" 
d="M187 616v-220h345v-84h-345v-312h-102v700h490v-84h-388z" />
    <glyph glyph-name="G" unicode="G" horiz-adv-x="752" 
d="M690 345v-345h-75l-12 119q-67 -129 -239 -129q-97 0 -172 45.5t-116.5 127t-41.5 187.5q0 107 42.5 188.5t121.5 126.5t185 45q112 0 190 -52t114 -146l-92 -32q-25 67 -80.5 104t-130.5 37q-74 0 -129.5 -33.5t-85.5 -94.5t-30 -141q0 -82 29.5 -144t84 -96t127.5 -34
q59 0 106.5 23t75 65.5t28.5 99.5h-188v79h288z" />
    <glyph glyph-name="H" unicode="H" horiz-adv-x="733" 
d="M648 700v-700h-102v329h-359v-329h-102v700h102v-287h359v287h102z" />
    <glyph glyph-name="I" unicode="I" horiz-adv-x="292" 
d="M95 700h102v-700h-102v700z" />
    <glyph glyph-name="J" unicode="J" horiz-adv-x="389" 
d="M312 700v-471q0 -123 -55 -181t-168 -58q-42 0 -71 8v97q30 -18 73 -18q60 0 89.5 36.5t29.5 114.5v472h102z" />
    <glyph glyph-name="K" unicode="K" horiz-adv-x="697" 
d="M413 403l267 -403h-130l-206 327l-157 -170v-157h-102v700h102v-441l363 441h135z" />
    <glyph glyph-name="L" unicode="L" horiz-adv-x="593" 
d="M570 85v-85h-485v700h102v-615h383z" />
    <glyph glyph-name="M" unicode="M" horiz-adv-x="918" 
d="M833 700v-700h-98v615l-215 -615h-122l-215 610v-610h-98v700h162l213 -584l213 584h160z" />
    <glyph glyph-name="N" unicode="N" horiz-adv-x="765" 
d="M680 700v-700h-142l-354 599v-599h-99v700h142l354 -595v595h99z" />
    <glyph glyph-name="O" unicode="O" horiz-adv-x="758" 
d="M559 665q78 -45 121.5 -127t43.5 -189q0 -106 -43.5 -187.5t-121.5 -126.5t-180 -45t-180 45t-121.5 126.5t-43.5 187.5q0 107 43.5 189t121.5 127t180 45t180 -45zM503.5 112q54.5 33 85 94.5t30.5 142.5q0 82 -30.5 143.5t-85 95t-124.5 33.5t-124.5 -33.5t-85 -95
t-30.5 -143.5q0 -81 30.5 -142.5t85 -94.5t124.5 -33t124.5 33z" />
    <glyph glyph-name="P" unicode="P" horiz-adv-x="657" 
d="M564.5 644q65.5 -56 65.5 -156q0 -64 -33 -112t-91 -73.5t-129 -25.5h-190v-277h-102v700h295q119 0 184.5 -56zM486.5 392q41.5 35 41.5 96t-41 95.5t-116 34.5h-184v-261h183q75 0 116.5 35z" />
    <glyph glyph-name="Q" unicode="Q" horiz-adv-x="758" 
d="M689.5 180q-34.5 -75 -96.5 -122l124 -114l-79 -75l-122 146q-64 -25 -137 -25q-102 0 -180 45t-121.5 126.5t-43.5 187.5q0 107 43.5 189t121.5 127t180 45t180 -45t121.5 -127t43.5 -189q0 -94 -34.5 -169zM169.5 206.5q30.5 -61.5 85 -94.5t124.5 -33t124.5 33
t85 94.5t30.5 142.5q0 82 -30.5 143.5t-85 95t-124.5 33.5t-124.5 -33.5t-85 -95t-30.5 -143.5q0 -81 30.5 -142.5z" />
    <glyph glyph-name="R" unicode="R" horiz-adv-x="703" 
d="M538 0l-150 277h-11h-190v-277h-102v700h295q119 0 184.5 -56t65.5 -156q0 -73 -42.5 -124.5t-114.5 -73.5l190 -290h-125zM187 357h183q75 0 116.5 35t41.5 96t-41 95.5t-116 34.5h-184v-261z" />
    <glyph glyph-name="S" unicode="S" horiz-adv-x="633" 
d="M141.5 42q-78.5 51 -104.5 158l98 25q19 -79 73 -115.5t129 -36.5q74 0 116 32.5t42 81.5q0 37 -24 59t-60.5 34t-98.5 26q-80 18 -129.5 36t-84.5 57.5t-35 107.5q0 94 67.5 148.5t184.5 54.5q211 0 259 -181l-95 -23q-19 66 -61 94t-106 28q-70 0 -108 -31t-38 -79
q0 -38 24.5 -61t61 -34.5t100.5 -25.5q80 -17 129 -34.5t84 -57t35 -106.5q0 -96 -72 -152t-196 -56q-112 0 -190.5 51z" />
    <glyph glyph-name="T" unicode="T" horiz-adv-x="623" 
d="M593 616h-230v-616h-103v616h-230v84h563v-84z" />
    <glyph glyph-name="U" unicode="U" horiz-adv-x="730" 
d="M653 700v-427q0 -143 -77 -213t-211 -70t-211 70t-77 213v427h102v-424q0 -100 51 -148.5t135 -48.5t135 48.5t51 148.5v424h102z" />
    <glyph glyph-name="V" unicode="V" horiz-adv-x="649" 
d="M644 700l-256 -700h-128l-255 700h119l202 -607l199 607h119z" />
    <glyph glyph-name="W" unicode="W" horiz-adv-x="965" 
d="M957 700l-166 -700h-145l-163 566l-164 -566h-145l-166 700h109l135 -623l160 623h141l160 -623l135 623h109z" />
    <glyph glyph-name="X" unicode="X" horiz-adv-x="629" 
d="M489 0l-177 294l-176 -294h-126l238 354l-232 346h127l175 -291l171 291h124l-232 -346l238 -354h-130z" />
    <glyph glyph-name="Y" unicode="Y" horiz-adv-x="629" 
d="M620 700l-254 -416v-284h-104v283l-254 417h120l188 -354l188 354h116z" />
    <glyph glyph-name="Z" unicode="Z" horiz-adv-x="641" 
d="M602 80v-80h-560v71l428 549h-422v80h542v-74l-422 -546h434z" />
    <glyph glyph-name="bracketleft" unicode="[" horiz-adv-x="336" 
d="M175 710v-755h127v-70h-217v895h217v-70h-127z" />
    <glyph glyph-name="backslash" unicode="\" horiz-adv-x="658" 
d="M534 0l-248 349l-259 351h97l233 -329l274 -371h-97z" />
    <glyph glyph-name="bracketright" unicode="]" horiz-adv-x="336" 
d="M251 -115h-218v70h128v755h-128v70h218v-895z" />
    <glyph glyph-name="asciicircum" unicode="^" horiz-adv-x="471" 
d="M346 401l-111 226l-112 -226h-90l165 299h74l165 -299h-91z" />
    <glyph glyph-name="underscore" unicode="_" horiz-adv-x="498" 
d="M498 -57v-68h-498v68h498z" />
    <glyph glyph-name="a" unicode="a" horiz-adv-x="540" 
d="M425.5 496.5q52.5 -46.5 52.5 -131.5v-240v-125h-97v75q-39 -43 -87 -64t-100 -21q-72 0 -114 35t-42 99q0 62 30 102t104 66.5t209 42.5v33q0 47 -28.5 73t-81.5 26q-47 0 -81 -22t-50 -79l-87 25q23 80 81.5 116t140.5 36q98 0 150.5 -46.5zM308.5 94q41.5 20 72.5 53
v113q-94 -11 -146.5 -27t-73.5 -37.5t-21 -53.5t21 -50t60 -18q46 0 87.5 20z" />
    <glyph glyph-name="b" unicode="b" horiz-adv-x="595" 
d="M494 471q58 -72 58 -203q0 -130 -57 -204t-160 -74q-45 0 -88 20.5t-74 59.5v-70h-98v700h98v-237q31 39 73.5 59.5t88.5 20.5q101 0 159 -72zM413.5 125q39.5 53 39.5 142q0 88 -36.5 141t-105.5 53q-93 0 -138 -81v-230q44 -78 134 -78q67 0 106.5 53z" />
    <glyph glyph-name="c" unicode="c" horiz-adv-x="552" 
d="M382 102.5q35 30.5 48 86.5l94 -22q-20 -81 -79.5 -129t-150.5 -48q-75 0 -132 35t-88 98.5t-31 145.5q0 80 31 142t88 97t132 35q91 0 150.5 -48t79.5 -129l-94 -22q-13 56 -48 86.5t-88 30.5q-70 0 -111.5 -51t-41.5 -141q0 -92 41.5 -144.5t111.5 -52.5q53 0 88 30.5z
" />
    <glyph glyph-name="d" unicode="d" horiz-adv-x="596" 
d="M521 700v-700h-99v70q-31 -39 -74 -59.5t-88 -20.5q-103 0 -160 74t-57 204q0 131 58 203t159 72q46 0 88.5 -20t73.5 -59v236h99zM422 149v231q-44 81 -138 81q-69 0 -105.5 -53t-36.5 -141q0 -90 39.5 -142.5t107.5 -52.5q88 0 133 77z" />
    <glyph glyph-name="e" unicode="e" horiz-adv-x="569" 
d="M467.5 468q61.5 -75 58.5 -218h-385q4 -89 45.5 -136t112.5 -47q48 0 84 26t49 84l91 -24q-25 -86 -82 -124.5t-147 -38.5q-120 0 -185.5 77.5t-65.5 205.5q0 82 31 143t87.5 94t131.5 33q113 0 174.5 -75zM189.5 430.5q-38.5 -38.5 -47.5 -113.5h283q-2 74 -36.5 113
t-96.5 39q-64 0 -102.5 -38.5z" />
    <glyph glyph-name="f" unicode="f" horiz-adv-x="327" 
d="M219.5 635.5q-23.5 -29.5 -23.5 -88.5v-14h129v-77h-129v-456h-98v456h-81v77h81v14q0 96 49.5 143t145.5 47q49 0 85 -15l-23 -73q-30 16 -62 16q-50 0 -73.5 -29.5z" />
    <glyph glyph-name="g" unicode="g" horiz-adv-x="594" 
d="M519 533v-486q0 -97 -62 -157t-179 -60q-93 0 -153 37.5t-79 110.5l85 28q11 -54 52.5 -80t96.5 -26q72 0 106 37.5t34 104.5v84q-31 -42 -74 -65.5t-93 -23.5q-62 0 -109 31.5t-72 89t-25 132.5t25 132.5t72 89t109 31.5q50 0 93 -23.5t74 -65.5v79h99zM359 142.5
q37 22.5 61 63.5v166q-23 43 -60.5 66t-81.5 23q-63 0 -98.5 -46t-35.5 -125t36 -124.5t99 -45.5q43 0 80 22.5z" />
    <glyph glyph-name="h" unicode="h" horiz-adv-x="585" 
d="M471 491.5q48 -51.5 48 -141.5v-350h-99v345q0 56 -29 86t-80 30q-42 0 -78.5 -22.5t-59.5 -61.5v-377h-98v700h98v-247q29 44 73 67t97 23q80 0 128 -51.5z" />
    <glyph glyph-name="i" unicode="i" horiz-adv-x="248" 
d="M75 533h98v-533h-98v533zM78 647q-18 17 -18 46t18 46t47 17t47 -17t18 -46t-18 -46t-47 -17t-47 17z" />
    <glyph glyph-name="j" unicode="j" horiz-adv-x="247" 
d="M172 533v-502q0 -101 -45 -151t-123 -50q-11 0 -31 2l-14 79q12 -5 31 -5q45 0 64.5 24.5t19.5 89.5v513h98zM76 647q-18 17 -18 46t18 46t47 17t47 -17t18 -46t-18 -46t-47 -17t-47 17z" />
    <glyph glyph-name="k" unicode="k" horiz-adv-x="573" 
d="M260 253l-87 -80v-173h-98v700h98v-434l263 267h127l-241 -222l243 -311h-117z" />
    <glyph glyph-name="l" unicode="l" horiz-adv-x="289" 
d="M103 22q-28 31 -28 78v600h98v-586q0 -24 8 -36t31 -12q24 0 40 15l14 -76q-34 -14 -69 -14q-66 0 -94 31z" />
    <glyph glyph-name="m" unicode="m" horiz-adv-x="931" 
d="M816.5 491.5q47.5 -51.5 47.5 -141.5v-350h-98v345q0 56 -29 86t-81 30q-41 0 -78 -23t-60 -62q1 -8 1 -26v-350h-99v345q0 56 -29 86t-80 30q-42 0 -78.5 -22.5t-59.5 -61.5v-377h-98v533h97v-82q29 45 73 68.5t98 23.5q56 0 98 -27t62 -76q30 48 79 75.5t107 27.5
q80 0 127.5 -51.5z" />
    <glyph glyph-name="n" unicode="n" horiz-adv-x="585" 
d="M471 491.5q48 -51.5 48 -141.5v-350h-99v345q0 56 -29 86t-80 30q-42 0 -78.5 -22.5t-59.5 -61.5v-377h-98v533h97v-82q29 45 73 68.5t98 23.5q80 0 128 -51.5z" />
    <glyph glyph-name="o" unicode="o" horiz-adv-x="588" 
d="M426 508q57 -35 88 -97t31 -142q0 -82 -31 -145.5t-88 -98.5t-132 -35t-132 35t-88 98.5t-31 145.5q0 80 31 142t88 97t132 35t132 -35zM405.5 124.5q41.5 52.5 41.5 144.5q0 90 -41.5 141t-111.5 51t-111.5 -51t-41.5 -141q0 -92 41.5 -144.5t111.5 -52.5t111.5 52.5z
" />
    <glyph glyph-name="p" unicode="p" horiz-adv-x="596" 
d="M495.5 469q56.5 -74 56.5 -204q0 -131 -57.5 -203t-158.5 -72q-46 0 -89 20.5t-74 60.5v-231h-98v693h98v-71q31 40 74 60.5t89 20.5q103 0 159.5 -74zM417 125q36 53 36 142t-39 141.5t-107 52.5q-91 0 -134 -78v-228q44 -83 139 -83q69 0 105 53z" />
    <glyph glyph-name="q" unicode="q" horiz-adv-x="596" 
d="M521 533v-693h-99v229q-31 -38 -73.5 -58.5t-88.5 -20.5q-101 0 -159 72t-58 203q0 130 57 204t160 74q45 0 88 -20.5t74 -59.5v70h99zM422 153v231q-45 77 -133 77q-68 0 -107.5 -52.5t-39.5 -141.5t36.5 -142t105.5 -53q93 0 138 81z" />
    <glyph glyph-name="r" unicode="r" horiz-adv-x="401" 
d="M383 540v-101q-21 4 -46 4q-115 0 -164 -109v-334h-98v533h98v-122q54 129 210 129z" />
    <glyph glyph-name="s" unicode="s" horiz-adv-x="521" 
d="M120 29.5q-65 39.5 -87 121.5l95 23q30 -111 148 -111q53 0 83 21t30 58q0 28 -18 44t-45.5 24t-74.5 16q-64 12 -104.5 25.5t-69 46t-28.5 90.5q0 46 25.5 81t71.5 54.5t105 19.5q81 0 136.5 -34.5t74.5 -105.5l-88 -20q-21 88 -123 88q-48 0 -77 -21t-29 -56
q0 -28 18 -44t45 -24t74 -16q63 -12 102.5 -25t67.5 -45.5t28 -90.5q0 -74 -58 -116.5t-151 -42.5q-86 0 -151 39.5z" />
    <glyph glyph-name="t" unicode="t" horiz-adv-x="360" 
d="M344 5q-32 -15 -78 -15q-84 0 -124.5 40.5t-40.5 130.5v295h-84v77h84v167h99v-167h129v-77h-129v-294q0 -54 15.5 -75.5t53.5 -21.5q29 0 54 14z" />
    <glyph glyph-name="u" unicode="u" horiz-adv-x="585" 
d="M510 533v-533h-96v84q-29 -46 -73.5 -70t-98.5 -24q-80 0 -127.5 52t-47.5 142v349h98v-345q0 -56 29 -86t81 -30q41 0 77.5 22.5t59.5 61.5v377h98z" />
    <glyph glyph-name="v" unicode="v" horiz-adv-x="509" 
d="M501 533l-195 -533h-103l-195 533h108l139 -440l138 440h108z" />
    <glyph glyph-name="w" unicode="w" horiz-adv-x="773" 
d="M760 533l-143 -533h-111l-118 416l-115 -416h-116l-144 533h101l101 -445l115 445h119l115 -443l96 443h100z" />
    <glyph glyph-name="x" unicode="x" horiz-adv-x="487" 
d="M184 269l-175 264h113l123 -207l120 207h113l-176 -262l177 -271h-113l-124 210l-121 -210h-112z" />
    <glyph glyph-name="y" unicode="y" horiz-adv-x="504" 
d="M496 533l-200 -544q-29 -79 -78.5 -118t-121.5 -39q-10 0 -28 2l-18 82q21 -5 48 -5q39 0 60 16.5t45 60.5l5 10l-200 535h112l134 -427l135 427h107z" />
    <glyph glyph-name="z" unicode="z" horiz-adv-x="501" 
d="M463 79v-79h-426v66l310 389h-303v78h411v-73l-298 -381h306z" />
    <glyph glyph-name="braceleft" unicode="{" horiz-adv-x="367" 
d="M210.5 386q-25.5 -42 -85.5 -54q60 -11 85.5 -53t25.5 -135v-110q0 -39 21 -59t55 -20h25v-70h-36q-71 0 -112.5 38t-41.5 113v122q0 77 -29.5 104t-78.5 27h-9v87h9q49 0 78.5 27t29.5 103v123q0 75 41.5 113t112.5 38h36v-70h-25q-34 0 -55 -20t-21 -59v-111
q0 -92 -25.5 -134z" />
    <glyph glyph-name="bar" unicode="|" horiz-adv-x="313" 
d="M200 780v-895h-87v895h87z" />
    <glyph glyph-name="braceright" unicode="}" horiz-adv-x="367" 
d="M337 376v-87h-9q-50 0 -79 -27t-29 -104v-122q0 -75 -42 -113t-113 -38h-35v70h25q34 0 54.5 20t20.5 59v110q0 93 25.5 135t85.5 53q-60 12 -85.5 54t-25.5 134v111q0 39 -20.5 59t-54.5 20h-25v70h35q71 0 113 -38t42 -113v-123q0 -76 29 -103t79 -27h9z" />
    <glyph glyph-name="asciitilde" unicode="~" 
d="M80 274q8 51 35 83t79 32q25 0 48 -7t59 -21q27 -12 46.5 -18t37.5 -6q31 0 47 15t19 36l63 -13q-6 -52 -33 -83.5t-78 -31.5q-26 0 -51 7.5t-59 21.5q-30 12 -47.5 17.5t-34.5 5.5q-30 0 -46.5 -15t-20.5 -37z" />
    <glyph glyph-name="exclamdown" unicode="&#xa1;" horiz-adv-x="339" 
d="M216 598q17 -17 17 -45q0 -29 -17 -45.5t-46 -16.5t-46.5 16.5t-17.5 45.5q0 28 17.5 45t46.5 17t46 -17zM212 356l17 -446h-119l19 446h83z" />
    <glyph glyph-name="cent" unicode="&#xa2;" 
d="M407.5 153q27.5 30 38.5 78l94 -22q-18 -74 -69.5 -120.5t-129.5 -54.5l3 -117h-76l2 118q-97 13 -153.5 88t-56.5 188q0 110 57 184t153 87l-2 118h76l-3 -117q78 -8 129.5 -54.5t69.5 -120.5l-94 -22q-11 48 -38.5 78t-69.5 37v-385q42 7 69.5 37zM188 181.5
q31 -50.5 86 -63.5v381q-55 -12 -86 -61t-31 -127q0 -79 31 -129.5z" />
    <glyph glyph-name="sterling" unicode="&#xa3;" 
d="M552 77v-77h-495v78q81 42 115 77t34 81q0 17 -5 35h-144v66h107l-15 19q-32 38 -48.5 70t-16.5 79q0 58 30 104.5t83.5 73.5t123.5 27q65 0 120.5 -24.5t91.5 -72.5l-71 -60q-24 36 -59 53.5t-76 17.5q-44 0 -76.5 -17t-50 -45t-17.5 -61t15 -62t45 -70q21 -29 23 -32
h208v-66h-176q4 -13 4 -30q0 -50 -37 -90t-96 -74h383z" />
    <glyph glyph-name="yen" unicode="&#xa5;" 
d="M387 342h141v-60h-176v-68h176v-60h-176v-154h-105v154h-175v60h175v68h-175v60h139l-217 358h120l188 -355l188 355h116z" />
    <glyph glyph-name="brokenbar" unicode="&#xa6;" horiz-adv-x="313" 
d="M200 780v-341h-87v341h87zM200 226v-341h-87v341h87z" />
    <glyph glyph-name="section" unicode="&#xa7;" horiz-adv-x="595" 
d="M499 229q-29 -34 -83 -53q76 -47 76 -121q0 -43 -24 -77t-66 -53t-95 -19q-77 0 -131 37t-70 102l74 15q13 -48 47.5 -69.5t80.5 -21.5q44 0 67 20.5t23 48.5q0 25 -18 43t-45 29.5t-76 28.5q-62 22 -100 40t-65 50t-27 79q0 45 29.5 78.5t84.5 51.5q-37 23 -57.5 52.5
t-20.5 69.5q0 44 24.5 78t68 53t96.5 19q76 0 128 -36.5t69 -101.5l-74 -16q-24 92 -121 92q-46 0 -71.5 -21t-25.5 -52q0 -24 18 -41t44.5 -28.5t74.5 -28.5q62 -21 100.5 -39.5t66 -50t27.5 -79.5q0 -45 -29 -79zM432 286q0 24 -18 42t-45.5 30.5t-75.5 30.5
q-42 16 -63 25q-67 -35 -67 -84q0 -35 33.5 -56t103.5 -46q12 -5 29 -11.5t38 -15.5q65 34 65 85z" />
    <glyph glyph-name="copyright" unicode="&#xa9;" horiz-adv-x="798" 
d="M214 40.5q-82 46.5 -128 128.5t-46 183t46.5 183t128.5 128.5t185 46.5q102 0 184 -46.5t128 -127.5t46 -182q0 -102 -46.5 -184t-128.5 -129t-185 -47q-102 0 -184 46.5zM554.5 83q69.5 41 109.5 112.5t40 158.5q0 86 -39.5 156.5t-109 111t-155.5 40.5t-156 -41
t-109.5 -112t-39.5 -157t39.5 -157t108.5 -112t155 -41q87 0 156.5 41zM273 209.5q-50 53.5 -50 140.5q0 89 50 142.5t132 53.5q62 0 106.5 -32.5t61.5 -98.5l-56 -13q-22 91 -112 91q-55 0 -88 -38.5t-33 -104.5q0 -65 33 -103.5t88 -38.5q44 0 72.5 23t39.5 69l56 -13
q-16 -63 -59 -97t-109 -34q-82 0 -132 53.5z" />
    <glyph glyph-name="ordfeminine" unicode="&#xaa;" horiz-adv-x="438" 
d="M343 674q44 -36 44 -101v-182v-100h-88v56q-60 -64 -146 -64q-58 0 -91 27.5t-33 77.5q0 48 23.5 79t82 51.5t164.5 32.5v21q0 34 -21.5 52t-61.5 18q-35 0 -61.5 -15.5t-38.5 -57.5l-76 24q18 62 66 89.5t113 27.5q80 0 124 -36zM244 370q31 14 55 37v80
q-71 -8 -110 -19t-54 -27t-15 -39q0 -21 16.5 -33.5t43.5 -12.5q33 0 64 14z" />
    <glyph glyph-name="guillemotleft" unicode="&#xab;" horiz-adv-x="503" 
d="M179 479h89q-25 -94 -140 -188q115 -94 140 -188h-89q-23 89 -124 177v22q101 88 124 177zM356 479h89q-25 -94 -140 -188q115 -94 140 -188h-89q-23 89 -124 177v22q101 88 124 177z" />
    <glyph glyph-name="registered" unicode="&#xae;" horiz-adv-x="531" 
d="M380.5 679.5q51.5 -30.5 81 -82t29.5 -113.5t-30 -113.5t-81.5 -81t-113.5 -29.5t-113.5 29.5t-82 80.5t-30.5 114q0 62 30 113.5t82 82t114 30.5q63 0 114.5 -30.5zM362 317.5q43 24.5 67.5 68t24.5 99.5t-24 99.5t-67 68t-97 24.5q-55 0 -97.5 -24.5t-66.5 -68.5
t-24 -100t24.5 -99.5t67.5 -67.5t96 -24t96 24.5zM351 438l17 -60h-41l-12 55q-5 19 -19 26.5t-39 8.5h-37v-90h-39v222h108q35 0 54 -17t19 -43q0 -22 -15 -37t-42 -22q35 -10 46 -43zM280 500q20 0 31.5 9.5t11.5 25.5q0 32 -36 32h-67v-67h60z" />
    <glyph glyph-name="degree" unicode="&#xb0;" horiz-adv-x="434" 
d="M131 425q-38 21 -59.5 58t-21.5 83t22 82.5t60.5 57.5t86.5 21q47 0 84.5 -21t59 -57.5t21.5 -82.5t-21.5 -83t-59.5 -58t-86 -21t-86 21zM285 493.5q25 27.5 25 72.5t-25.5 71.5t-67.5 26.5q-41 0 -66.5 -26.5t-25.5 -71.5t26 -72.5t68 -27.5q41 0 66 27.5z" />
    <glyph glyph-name="plusminus" unicode="&#xb1;" 
d="M263 381h-173v70h173v147h76v-147h172v-70h-172v-144h-76v144zM90 171h421v-70h-421v70z" />
    <glyph glyph-name="uni00B2" unicode="&#xb2;" horiz-adv-x="380" 
d="M364 421v-65h-336v55l127 99q63 50 91 84.5t28 73.5q0 37 -23 57.5t-59 20.5t-61 -21.5t-25 -63.5q0 -15 5 -40h-81q-3 20 -3 37q0 73 47 112.5t120 39.5q74 0 118 -38t44 -101q0 -52 -40 -102t-138 -113l-54 -35h240z" />
    <glyph glyph-name="uni00B3" unicode="&#xb3;" horiz-adv-x="408" 
d="M352 549q29 -28 29 -72q0 -57 -47 -92t-123 -35q-78 0 -127 36.5t-60 101.5l79 14q6 -45 34.5 -67t71.5 -22q41 0 65 19t24 51q0 33 -25.5 52.5t-74.5 19.5h-32l-1 58h38q39 0 62 18t23 50q0 29 -21.5 47.5t-56.5 18.5q-37 0 -62 -20t-30 -60l-77 15q8 61 53 94.5
t115 33.5q72 0 115 -33t43 -87q0 -41 -25 -68t-71 -36q52 -9 81 -37z" />
    <glyph glyph-name="paragraph" unicode="&#xb6;" 
d="M233 299q-62 0 -110.5 24.5t-75.5 69.5t-27 103q0 61 28 107.5t76.5 72t108.5 25.5h267v-701h-70v639h-94v-639h-70v299h-33z" />
    <glyph glyph-name="periodcentered" unicode="&#xb7;" horiz-adv-x="275" 
d="M91 260q-18 17 -18 46t18 46t47 17t46.5 -17t17.5 -46t-17.5 -46t-46.5 -17t-47 17z" />
    <glyph glyph-name="uni00B9" unicode="&#xb9;" horiz-adv-x="285" 
d="M219 800v-448h-78v382q-24 -50 -99 -84l-31 66q56 20 88 39.5t54 44.5h66z" />
    <glyph glyph-name="ordmasculine" unicode="&#xba;" horiz-adv-x="473" 
d="M384 651.5q55 -58.5 55 -154.5q0 -97 -55 -155.5t-148 -58.5t-147.5 58.5t-54.5 155.5q0 96 54.5 154.5t147.5 58.5t148 -58.5zM320 389q30 38 30 108t-30 107.5t-84 37.5t-84 -37.5t-30 -107.5t30 -108t84 -38t84 38z" />
    <glyph glyph-name="guillemotright" unicode="&#xbb;" horiz-adv-x="503" 
d="M272 280q-101 -88 -124 -177h-90q25 93 141 188q-116 95 -141 188h90q23 -89 124 -177v-22zM449 280q-101 -86 -124 -177h-90q25 94 140 188q-115 94 -140 188h90q23 -91 124 -177v-22z" />
    <glyph glyph-name="onequarter" unicode="&#xbc;" horiz-adv-x="852" 
d="M219 700v-448h-78v382q-24 -50 -99 -84l-31 66q56 20 88 39.5t54 44.5h66zM379 360l204 340h80l-233 -363l-200 -337h-81zM820 105h-57v-105h-80l1 105h-230v52l204 291h105v-281h57v-62zM685 167v223l-153 -223h153z" />
    <glyph glyph-name="onehalf" unicode="&#xbd;" horiz-adv-x="892" 
d="M219 700v-448h-78v382q-24 -50 -99 -84l-31 66q56 20 88 39.5t54 44.5h66zM379 360l204 340h80l-233 -363l-200 -337h-81zM876 65v-65h-336v55l127 99q63 50 91 84.5t28 73.5q0 37 -23 57.5t-59 20.5t-61 -21.5t-25 -63.5q0 -15 5 -40h-81q-3 20 -3 37q0 73 47 112.5
t120 39.5q74 0 118 -38t44 -101q0 -52 -40 -102t-138 -113l-54 -35h240z" />
    <glyph glyph-name="threequarters" unicode="&#xbe;" horiz-adv-x="961" 
d="M352 449q29 -28 29 -72q0 -57 -47 -92t-123 -35q-78 0 -127 36.5t-60 101.5l79 14q6 -45 34.5 -67t71.5 -22q41 0 65 19t24 51q0 33 -25.5 52.5t-74.5 19.5h-32l-1 58h38q39 0 62 18t23 50q0 29 -21.5 47.5t-56.5 18.5q-37 0 -62 -20t-30 -60l-77 15q8 61 53 94.5
t115 33.5q72 0 115 -33t43 -87q0 -41 -25 -68t-71 -36q52 -9 81 -37zM488 360l204 340h80l-233 -363l-200 -337h-81zM929 105h-57v-105h-80l1 105h-230v52l204 291h105v-281h57v-62zM794 167v223l-153 -223h153z" />
    <glyph glyph-name="questiondown" unicode="&#xbf;" horiz-adv-x="563" 
d="M334.5 603q17.5 -17 17.5 -45q0 -29 -17.5 -45.5t-46.5 -16.5t-46.5 16.5t-17.5 45.5q0 28 17.5 45t46.5 17t46.5 -17zM110.5 -46.5q-59.5 48.5 -59.5 131.5q0 42 15 72t37 48.5t57 41.5q40 25 59 45.5t19 52.5v17h99v-11q0 -36 -13.5 -62t-33 -42t-51.5 -36
q-44 -27 -66 -52t-22 -67q0 -48 33 -77.5t87 -29.5q58 0 92 31.5t34 84.5q0 31 -11 61h100q8 -34 8 -60q0 -88 -59.5 -142.5t-164.5 -54.5q-100 0 -159.5 48.5z" />
    <glyph glyph-name="Agrave" unicode="&#xc0;" horiz-adv-x="682" 
d="M521 137h-360l-50 -137h-103l263 700h140l263 -700h-103zM493 214l-152 416l-152 -416h304zM341 772l-171 160h138l90 -160h-57z" />
    <glyph glyph-name="Aacute" unicode="&#xc1;" horiz-adv-x="682" 
d="M521 137h-360l-50 -137h-103l263 700h140l263 -700h-103zM493 214l-152 416l-152 -416h304zM400 932h137l-168 -160h-55z" />
    <glyph glyph-name="Acircumflex" unicode="&#xc2;" horiz-adv-x="682" 
d="M521 137h-360l-50 -137h-103l263 700h140l263 -700h-103zM493 214l-152 416l-152 -416h304zM438 772l-98 102l-98 -102h-62l108 160h104l107 -160h-61z" />
    <glyph glyph-name="Atilde" unicode="&#xc3;" horiz-adv-x="682" 
d="M521 137h-360l-50 -137h-103l263 700h140l263 -700h-103zM493 214l-152 416l-152 -416h304zM365 816q-14 7 -31 19q-14 9 -22 13.5t-19 4.5q-31 0 -33 -39h-72q1 53 27.5 78.5t67.5 25.5q20 0 34 -6.5t31 -19.5q2 -1 10 -7t15.5 -8.5t14.5 -2.5q33 0 35 39h70
q0 -53 -25 -78.5t-68 -25.5q-21 0 -35 7z" />
    <glyph glyph-name="Adieresis" unicode="&#xc4;" horiz-adv-x="682" 
d="M521 137h-360l-50 -137h-103l263 700h140l263 -700h-103zM493 214l-152 416l-152 -416h304zM196 807q-17 17 -17 45t17 45t46 17t46.5 -17t17.5 -45t-17.5 -45t-46.5 -17t-46 17zM393.5 807q-17.5 17 -17.5 45t17.5 45t46.5 17t46 -17t17 -45t-17 -45t-46 -17t-46.5 17z
" />
    <glyph glyph-name="Aring" unicode="&#xc5;" horiz-adv-x="682" 
d="M521 137h-360l-50 -137h-103l263 700h140l263 -700h-103zM493 214l-152 416l-152 -416h304zM268.5 795.5q-29.5 27.5 -29.5 69.5t29.5 69t72.5 27t72.5 -27t29.5 -69t-29.5 -69.5t-72.5 -27.5t-72.5 27.5zM375.5 831q13.5 13 13.5 34q0 20 -14 33t-34 13t-33.5 -13
t-13.5 -33q0 -21 13.5 -34t33.5 -13q21 0 34.5 13z" />
    <glyph glyph-name="AE" unicode="&#xc6;" horiz-adv-x="1076" 
d="M609 616v-209h374v-84h-374v-239h404v-84h-507v137h-303l-87 -137h-108l451 700h554v-84h-404zM506 214v399l-254 -399h254z" />
    <glyph glyph-name="Ccedilla" unicode="&#xc7;" horiz-adv-x="722" 
d="M520.5 124.5q58.5 45.5 79.5 129.5l95 -24q-28 -108 -104.5 -171t-190.5 -68l-14 -55h5q40 0 67.5 -25.5t27.5 -63.5q0 -39 -29.5 -64.5t-73.5 -25.5q-46 0 -77.5 27t-36.5 69l60 8q3 -24 16.5 -37t33.5 -13q18 0 30 10t12 26q0 19 -14.5 29.5t-43.5 10.5h-24l-15 31
l24 73q-94 6 -165 53t-110 126t-39 179q0 106 43 188t121 127.5t179 45.5q125 0 207 -64t111 -176l-95 -24q-21 84 -79.5 129.5t-142.5 45.5q-71 0 -125.5 -34.5t-84 -96t-29.5 -141.5q0 -79 30 -140.5t84 -95.5t125 -34q84 0 142.5 45.5z" />
    <glyph glyph-name="Egrave" unicode="&#xc8;" horiz-adv-x="655" 
d="M187 616v-209h375v-84h-375v-239h404v-84h-506v700h506v-84h-404zM346 772l-171 160h138l90 -160h-57z" />
    <glyph glyph-name="Eacute" unicode="&#xc9;" horiz-adv-x="655" 
d="M187 616v-209h375v-84h-375v-239h404v-84h-506v700h506v-84h-404zM405 932h137l-168 -160h-55z" />
    <glyph glyph-name="Ecircumflex" unicode="&#xca;" horiz-adv-x="655" 
d="M187 616v-209h375v-84h-375v-239h404v-84h-506v700h506v-84h-404zM443 772l-98 102l-98 -102h-62l108 160h104l107 -160h-61z" />
    <glyph glyph-name="Edieresis" unicode="&#xcb;" horiz-adv-x="655" 
d="M187 616v-209h375v-84h-375v-239h404v-84h-506v700h506v-84h-404zM201 807q-17 17 -17 45t17 45t46 17t46.5 -17t17.5 -45t-17.5 -45t-46.5 -17t-46 17zM398.5 807q-17.5 17 -17.5 45t17.5 45t46.5 17t46 -17t17 -45t-17 -45t-46 -17t-46.5 17z" />
    <glyph glyph-name="Igrave" unicode="&#xcc;" horiz-adv-x="292" 
d="M95 700h102v-700h-102v700zM146 772l-171 160h138l90 -160h-57z" />
    <glyph glyph-name="Iacute" unicode="&#xcd;" horiz-adv-x="292" 
d="M95 700h102v-700h-102v700zM205 932h137l-168 -160h-55z" />
    <glyph glyph-name="Icircumflex" unicode="&#xce;" horiz-adv-x="292" 
d="M95 700h102v-700h-102v700zM243 772l-98 102l-98 -102h-62l108 160h104l107 -160h-61z" />
    <glyph glyph-name="Idieresis" unicode="&#xcf;" horiz-adv-x="292" 
d="M95 700h102v-700h-102v700zM1 807q-17 17 -17 45t17 45t46 17t46.5 -17t17.5 -45t-17.5 -45t-46.5 -17t-46 17zM198.5 807q-17.5 17 -17.5 45t17.5 45t46.5 17t46 -17t17 -45t-17 -45t-46 -17t-46.5 17z" />
    <glyph glyph-name="Eth" unicode="&#xd0;" horiz-adv-x="738" 
d="M610 609.5q94 -90.5 94 -258.5q0 -167 -94 -259t-278 -92h-240v313h-64v73h64v314h239q185 0 279 -90.5zM533.5 153.5q66.5 69.5 66.5 197.5q0 127 -67 196t-203 69h-136v-230h183v-73h-183v-229h137q136 0 202.5 69.5z" />
    <glyph glyph-name="Ntilde" unicode="&#xd1;" horiz-adv-x="765" 
d="M680 700v-700h-142l-354 599v-599h-99v700h142l354 -595v595h99zM407 816q-14 7 -31 19q-14 9 -22 13.5t-19 4.5q-31 0 -33 -39h-72q1 53 27.5 78.5t67.5 25.5q20 0 34 -6.5t31 -19.5q2 -1 10 -7t15.5 -8.5t14.5 -2.5q33 0 35 39h70q0 -53 -25 -78.5t-68 -25.5
q-21 0 -35 7z" />
    <glyph glyph-name="Ograve" unicode="&#xd2;" horiz-adv-x="758" 
d="M559 665q78 -45 121.5 -127t43.5 -189q0 -106 -43.5 -187.5t-121.5 -126.5t-180 -45t-180 45t-121.5 126.5t-43.5 187.5q0 107 43.5 189t121.5 127t180 45t180 -45zM503.5 112q54.5 33 85 94.5t30.5 142.5q0 82 -30.5 143.5t-85 95t-124.5 33.5t-124.5 -33.5t-85 -95
t-30.5 -143.5q0 -81 30.5 -142.5t85 -94.5t124.5 -33t124.5 33zM379 772l-171 160h138l90 -160h-57z" />
    <glyph glyph-name="Oacute" unicode="&#xd3;" horiz-adv-x="758" 
d="M559 665q78 -45 121.5 -127t43.5 -189q0 -106 -43.5 -187.5t-121.5 -126.5t-180 -45t-180 45t-121.5 126.5t-43.5 187.5q0 107 43.5 189t121.5 127t180 45t180 -45zM503.5 112q54.5 33 85 94.5t30.5 142.5q0 82 -30.5 143.5t-85 95t-124.5 33.5t-124.5 -33.5t-85 -95
t-30.5 -143.5q0 -81 30.5 -142.5t85 -94.5t124.5 -33t124.5 33zM438 932h137l-168 -160h-55z" />
    <glyph glyph-name="Ocircumflex" unicode="&#xd4;" horiz-adv-x="758" 
d="M559 665q78 -45 121.5 -127t43.5 -189q0 -106 -43.5 -187.5t-121.5 -126.5t-180 -45t-180 45t-121.5 126.5t-43.5 187.5q0 107 43.5 189t121.5 127t180 45t180 -45zM503.5 112q54.5 33 85 94.5t30.5 142.5q0 82 -30.5 143.5t-85 95t-124.5 33.5t-124.5 -33.5t-85 -95
t-30.5 -143.5q0 -81 30.5 -142.5t85 -94.5t124.5 -33t124.5 33zM476 772l-98 102l-98 -102h-62l108 160h104l107 -160h-61z" />
    <glyph glyph-name="Otilde" unicode="&#xd5;" horiz-adv-x="758" 
d="M559 665q78 -45 121.5 -127t43.5 -189q0 -106 -43.5 -187.5t-121.5 -126.5t-180 -45t-180 45t-121.5 126.5t-43.5 187.5q0 107 43.5 189t121.5 127t180 45t180 -45zM503.5 112q54.5 33 85 94.5t30.5 142.5q0 82 -30.5 143.5t-85 95t-124.5 33.5t-124.5 -33.5t-85 -95
t-30.5 -143.5q0 -81 30.5 -142.5t85 -94.5t124.5 -33t124.5 33zM403 816q-14 7 -31 19q-14 9 -22 13.5t-19 4.5q-31 0 -33 -39h-72q1 53 27.5 78.5t67.5 25.5q20 0 34 -6.5t31 -19.5q2 -1 10 -7t15.5 -8.5t14.5 -2.5q33 0 35 39h70q0 -53 -25 -78.5t-68 -25.5q-21 0 -35 7z
" />
    <glyph glyph-name="Odieresis" unicode="&#xd6;" horiz-adv-x="758" 
d="M559 665q78 -45 121.5 -127t43.5 -189q0 -106 -43.5 -187.5t-121.5 -126.5t-180 -45t-180 45t-121.5 126.5t-43.5 187.5q0 107 43.5 189t121.5 127t180 45t180 -45zM503.5 112q54.5 33 85 94.5t30.5 142.5q0 82 -30.5 143.5t-85 95t-124.5 33.5t-124.5 -33.5t-85 -95
t-30.5 -143.5q0 -81 30.5 -142.5t85 -94.5t124.5 -33t124.5 33zM234 807q-17 17 -17 45t17 45t46 17t46.5 -17t17.5 -45t-17.5 -45t-46.5 -17t-46 17zM431.5 807q-17.5 17 -17.5 45t17.5 45t46.5 17t46 -17t17 -45t-17 -45t-46 -17t-46.5 17z" />
    <glyph glyph-name="multiply" unicode="&#xd7;" 
d="M353 333l165 -165l-52 -53l-165 166l-166 -166l-53 53l166 166l-165 165l52 52l165 -165l165 165l53 -52z" />
    <glyph glyph-name="Oslash" unicode="&#xd8;" horiz-adv-x="758" 
d="M702 488.5q22 -63.5 22 -139.5q0 -106 -43.5 -187.5t-121.5 -126.5t-180 -45q-122 0 -209 64l-73 -87l-55 48l76 87q-40 47 -62 110t-22 137q0 107 43.5 189t121.5 127t180 45q122 0 208 -63l75 89l55 -48l-78 -89q41 -47 63 -110.5zM186 179l158 180l180 214
q-60 48 -145 48q-70 0 -124.5 -33.5t-85 -95t-30.5 -143.5q0 -101 47 -170zM503.5 112q54.5 33 85 94.5t30.5 142.5q0 103 -48 173l-165 -188l-174 -206q61 -49 147 -49q70 0 124.5 33z" />
    <glyph glyph-name="Ugrave" unicode="&#xd9;" horiz-adv-x="730" 
d="M653 700v-427q0 -143 -77 -213t-211 -70t-211 70t-77 213v427h102v-424q0 -100 51 -148.5t135 -48.5t135 48.5t51 148.5v424h102zM365 772l-171 160h138l90 -160h-57z" />
    <glyph glyph-name="Uacute" unicode="&#xda;" horiz-adv-x="730" 
d="M653 700v-427q0 -143 -77 -213t-211 -70t-211 70t-77 213v427h102v-424q0 -100 51 -148.5t135 -48.5t135 48.5t51 148.5v424h102zM424 932h137l-168 -160h-55z" />
    <glyph glyph-name="Ucircumflex" unicode="&#xdb;" horiz-adv-x="730" 
d="M653 700v-427q0 -143 -77 -213t-211 -70t-211 70t-77 213v427h102v-424q0 -100 51 -148.5t135 -48.5t135 48.5t51 148.5v424h102zM462 772l-98 102l-98 -102h-62l108 160h104l107 -160h-61z" />
    <glyph glyph-name="Udieresis" unicode="&#xdc;" horiz-adv-x="730" 
d="M653 700v-427q0 -143 -77 -213t-211 -70t-211 70t-77 213v427h102v-424q0 -100 51 -148.5t135 -48.5t135 48.5t51 148.5v424h102zM220 807q-17 17 -17 45t17 45t46 17t46.5 -17t17.5 -45t-17.5 -45t-46.5 -17t-46 17zM417.5 807q-17.5 17 -17.5 45t17.5 45t46.5 17
t46 -17t17 -45t-17 -45t-46 -17t-46.5 17z" />
    <glyph glyph-name="Yacute" unicode="&#xdd;" horiz-adv-x="629" 
d="M620 700l-254 -416v-284h-104v283l-254 417h120l188 -354l188 354h116zM373 932h137l-168 -160h-55z" />
    <glyph glyph-name="Thorn" unicode="&#xde;" horiz-adv-x="657" 
d="M564.5 519q65.5 -56 65.5 -156q0 -64 -33 -112t-91 -73.5t-129 -25.5h-190v-152h-102v700h102v-125h193q119 0 184.5 -56zM485.5 266.5q41.5 34.5 41.5 96.5q0 61 -41 95.5t-116 34.5h-183v-261h182q75 0 116.5 34.5z" />
    <glyph glyph-name="germandbls" unicode="&#xdf;" horiz-adv-x="598" 
d="M520 308.5q53 -48.5 53 -122.5q0 -57 -28 -101t-80.5 -69t-121.5 -25q-51 0 -101 12l1 87q49 -22 100 -22q62 0 96.5 35t34.5 86q0 62 -51 98t-143 44v73q73 14 109.5 43t36.5 78q0 48 -33 76.5t-91 28.5q-129 0 -129 -147v-483h-98v498q0 101 62.5 156.5t167.5 55.5
q67 0 116.5 -22t76 -61.5t26.5 -90.5q0 -122 -163 -163q106 -16 159 -64.5z" />
    <glyph glyph-name="agrave" unicode="&#xe0;" horiz-adv-x="544" 
d="M425.5 496.5q52.5 -46.5 52.5 -131.5v-240v-125h-97v75q-39 -43 -87 -64t-100 -21q-72 0 -114 35t-42 99q0 62 30 102t104 66.5t209 42.5v33q0 47 -28.5 73t-81.5 26q-47 0 -81 -22t-50 -79l-87 25q23 80 81.5 116t140.5 36q98 0 150.5 -46.5zM308.5 94q41.5 20 72.5 53
v113q-94 -11 -146.5 -27t-73.5 -37.5t-21 -53.5t21 -50t60 -18q46 0 87.5 20zM264 612l-171 160h137l90 -160h-56z" />
    <glyph glyph-name="aacute" unicode="&#xe1;" horiz-adv-x="544" 
d="M425.5 496.5q52.5 -46.5 52.5 -131.5v-240v-125h-97v75q-39 -43 -87 -64t-100 -21q-72 0 -114 35t-42 99q0 62 30 102t104 66.5t209 42.5v33q0 47 -28.5 73t-81.5 26q-47 0 -81 -22t-50 -79l-87 25q23 80 81.5 116t140.5 36q98 0 150.5 -46.5zM308.5 94q41.5 20 72.5 53
v113q-94 -11 -146.5 -27t-73.5 -37.5t-21 -53.5t21 -50t60 -18q46 0 87.5 20zM323 772h137l-168 -160h-55z" />
    <glyph glyph-name="acircumflex" unicode="&#xe2;" horiz-adv-x="544" 
d="M425.5 496.5q52.5 -46.5 52.5 -131.5v-240v-125h-97v75q-39 -43 -87 -64t-100 -21q-72 0 -114 35t-42 99q0 62 30 102t104 66.5t209 42.5v33q0 47 -28.5 73t-81.5 26q-47 0 -81 -22t-50 -79l-87 25q23 80 81.5 116t140.5 36q98 0 150.5 -46.5zM308.5 94q41.5 20 72.5 53
v113q-94 -11 -146.5 -27t-73.5 -37.5t-21 -53.5t21 -50t60 -18q46 0 87.5 20zM375 612l-98 102l-98 -102h-62l108 160h104l107 -160h-61z" />
    <glyph glyph-name="atilde" unicode="&#xe3;" horiz-adv-x="544" 
d="M425.5 496.5q52.5 -46.5 52.5 -131.5v-240v-125h-97v75q-39 -43 -87 -64t-100 -21q-72 0 -114 35t-42 99q0 62 30 102t104 66.5t209 42.5v33q0 47 -28.5 73t-81.5 26q-47 0 -81 -22t-50 -79l-87 25q23 80 81.5 116t140.5 36q98 0 150.5 -46.5zM308.5 94q41.5 20 72.5 53
v113q-94 -11 -146.5 -27t-73.5 -37.5t-21 -53.5t21 -50t60 -18q46 0 87.5 20zM302 649q-14 7 -31 19q-14 9 -22 13.5t-19 4.5q-31 0 -33 -39h-72q1 53 27.5 78.5t67.5 25.5q21 0 35 -6.5t30 -18.5q2 -1 10 -7t15.5 -8.5t14.5 -2.5q33 0 35 38h70q0 -53 -25 -78.5t-68 -25.5
q-21 0 -35 7z" />
    <glyph glyph-name="adieresis" unicode="&#xe4;" horiz-adv-x="540" 
d="M425.5 496.5q52.5 -46.5 52.5 -131.5v-240v-125h-97v75q-39 -43 -87 -64t-100 -21q-72 0 -114 35t-42 99q0 62 30 102t104 66.5t209 42.5v33q0 47 -28.5 73t-81.5 26q-47 0 -81 -22t-50 -79l-87 25q23 80 81.5 116t140.5 36q98 0 150.5 -46.5zM308.5 94q41.5 20 72.5 53
v113q-94 -11 -146.5 -27t-73.5 -37.5t-21 -53.5t21 -50t60 -18q46 0 87.5 20zM132 648q-17 17 -17 45q0 29 17 45.5t46 16.5t46.5 -16.5t17.5 -45.5q0 -28 -17.5 -45t-46.5 -17t-46 17zM329.5 648q-17.5 17 -17.5 45q0 29 17.5 45.5t46.5 16.5t46 -16.5t17 -45.5
q0 -28 -17 -45t-46 -17t-46.5 17z" />
    <glyph glyph-name="aring" unicode="&#xe5;" horiz-adv-x="544" 
d="M425.5 496.5q52.5 -46.5 52.5 -131.5v-240v-125h-97v75q-39 -43 -87 -64t-100 -21q-72 0 -114 35t-42 99q0 62 30 102t104 66.5t209 42.5v33q0 47 -28.5 73t-81.5 26q-47 0 -81 -22t-50 -79l-87 25q23 80 81.5 116t140.5 36q98 0 150.5 -46.5zM308.5 94q41.5 20 72.5 53
v113q-94 -11 -146.5 -27t-73.5 -37.5t-21 -53.5t21 -50t60 -18q46 0 87.5 20zM204.5 630q-29.5 27 -29.5 69t29.5 69t72.5 27t72.5 -27t29.5 -69t-29.5 -69t-72.5 -27t-72.5 27zM311.5 665q13.5 13 13.5 34t-13.5 34t-34.5 13q-20 0 -33.5 -13t-13.5 -34t13.5 -34t33.5 -13
q21 0 34.5 13z" />
    <glyph glyph-name="ae" unicode="&#xe6;" horiz-adv-x="897" 
d="M795.5 468q61.5 -75 57.5 -218h-384q4 -89 45 -136t112 -47q49 0 85 26t49 84l91 -24q-25 -86 -82.5 -124.5t-147.5 -38.5q-76 0 -130 31.5t-84 89.5q-90 -121 -224 -121q-63 0 -104 36.5t-41 96.5q0 97 94.5 140t237.5 44l-2 61q-2 51 -26 75t-73 24q-46 0 -79.5 -21
t-49.5 -80l-87 25q44 152 222 152q116 0 156 -82q33 40 81.5 61t108.5 21q113 0 174.5 -75zM517.5 430.5q-38.5 -38.5 -47.5 -113.5h282q-2 74 -36.5 113t-96.5 39q-63 0 -101.5 -38.5zM313 94.5q47 27.5 73 68.5q-11 34 -14 81q-234 -5 -234 -113q0 -32 19.5 -48t55.5 -16
q53 0 100 27.5z" />
    <glyph glyph-name="ccedilla" unicode="&#xe7;" horiz-adv-x="552" 
d="M382 102.5q35 30.5 48 86.5l94 -22q-20 -80 -78 -128t-147 -49l-14 -54h5q41 0 68.5 -25.5t27.5 -63.5q0 -39 -30 -64.5t-74 -25.5q-46 0 -77.5 27t-36.5 69l60 8q3 -24 16.5 -37t33.5 -13q18 0 30.5 10t12.5 26q0 19 -15 29.5t-44 10.5h-23l-15 31l25 75
q-95 16 -150.5 90.5t-55.5 185.5q0 80 31 142t88 97t132 35q91 0 150.5 -48t79.5 -129l-94 -22q-13 56 -48 86.5t-88 30.5q-70 0 -111.5 -51t-41.5 -141q0 -92 41.5 -144.5t111.5 -52.5q53 0 88 30.5z" />
    <glyph glyph-name="egrave" unicode="&#xe8;" horiz-adv-x="569" 
d="M467.5 468q61.5 -75 58.5 -218h-385q4 -89 45.5 -136t112.5 -47q48 0 84 26t49 84l91 -24q-25 -86 -82 -124.5t-147 -38.5q-120 0 -185.5 77.5t-65.5 205.5q0 82 31 143t87.5 94t131.5 33q113 0 174.5 -75zM189.5 430.5q-38.5 -38.5 -47.5 -113.5h283q-2 74 -36.5 113
t-96.5 39q-64 0 -102.5 -38.5zM286 612l-171 160h137l90 -160h-56z" />
    <glyph glyph-name="eacute" unicode="&#xe9;" horiz-adv-x="569" 
d="M467.5 468q61.5 -75 58.5 -218h-385q4 -89 45.5 -136t112.5 -47q48 0 84 26t49 84l91 -24q-25 -86 -82 -124.5t-147 -38.5q-120 0 -185.5 77.5t-65.5 205.5q0 82 31 143t87.5 94t131.5 33q113 0 174.5 -75zM189.5 430.5q-38.5 -38.5 -47.5 -113.5h283q-2 74 -36.5 113
t-96.5 39q-64 0 -102.5 -38.5zM345 772h137l-168 -160h-55z" />
    <glyph glyph-name="ecircumflex" unicode="&#xea;" horiz-adv-x="569" 
d="M467.5 468q61.5 -75 58.5 -218h-385q4 -89 45.5 -136t112.5 -47q48 0 84 26t49 84l91 -24q-25 -86 -82 -124.5t-147 -38.5q-120 0 -185.5 77.5t-65.5 205.5q0 82 31 143t87.5 94t131.5 33q113 0 174.5 -75zM189.5 430.5q-38.5 -38.5 -47.5 -113.5h283q-2 74 -36.5 113
t-96.5 39q-64 0 -102.5 -38.5zM397 612l-98 102l-98 -102h-62l108 160h104l107 -160h-61z" />
    <glyph glyph-name="edieresis" unicode="&#xeb;" horiz-adv-x="569" 
d="M467.5 468q61.5 -75 58.5 -218h-385q4 -89 45.5 -136t112.5 -47q48 0 84 26t49 84l91 -24q-25 -86 -82 -124.5t-147 -38.5q-120 0 -185.5 77.5t-65.5 205.5q0 82 31 143t87.5 94t131.5 33q113 0 174.5 -75zM189.5 430.5q-38.5 -38.5 -47.5 -113.5h283q-2 74 -36.5 113
t-96.5 39q-64 0 -102.5 -38.5zM154 648q-17 17 -17 45q0 29 17 45.5t46 16.5t46.5 -16.5t17.5 -45.5q0 -28 -17.5 -45t-46.5 -17t-46 17zM351.5 648q-17.5 17 -17.5 45q0 29 17.5 45.5t46.5 16.5t46 -16.5t17 -45.5q0 -28 -17 -45t-46 -17t-46.5 17z" />
    <glyph glyph-name="igrave" unicode="&#xec;" horiz-adv-x="248" 
d="M75 533h98v-533h-98v533zM112 612l-171 160h137l90 -160h-56z" />
    <glyph glyph-name="iacute" unicode="&#xed;" horiz-adv-x="248" 
d="M75 533h98v-533h-98v533zM171 772h137l-168 -160h-55z" />
    <glyph glyph-name="icircumflex" unicode="&#xee;" horiz-adv-x="248" 
d="M75 533h98v-533h-98v533zM223 612l-98 102l-98 -102h-62l108 160h104l107 -160h-61z" />
    <glyph glyph-name="idieresis" unicode="&#xef;" horiz-adv-x="248" 
d="M75 533h98v-533h-98v533zM-20 648q-17 17 -17 45q0 29 17 45.5t46 16.5t46.5 -16.5t17.5 -45.5q0 -28 -17.5 -45t-46.5 -17t-46 17zM177.5 648q-17.5 17 -17.5 45q0 29 17.5 45.5t46.5 16.5t46 -16.5t17 -45.5q0 -28 -17 -45t-46 -17t-46.5 17z" />
    <glyph glyph-name="eth" unicode="&#xf0;" horiz-adv-x="588" 
d="M489 493.5q56 -107.5 56 -220.5q0 -85 -32 -149.5t-90 -99t-134 -34.5q-73 0 -128.5 34.5t-86.5 96.5t-31 144q0 80 28 143t80.5 98.5t123.5 35.5q39 0 69 -11t56 -34q-55 94 -147 148l-129 -60l-22 51l88 41q-56 24 -129 43l120 58q56 -27 102 -58l95 44l23 -51l-67 -31
q99 -81 155 -188.5zM405 123.5q42 51.5 42 144.5q0 91 -40.5 143t-111.5 52q-72 0 -113.5 -52.5t-41.5 -145.5q0 -87 38.5 -140t112.5 -53q72 0 114 51.5z" />
    <glyph glyph-name="ntilde" unicode="&#xf1;" horiz-adv-x="585" 
d="M471 491.5q48 -51.5 48 -141.5v-350h-99v345q0 56 -29 86t-80 30q-42 0 -78.5 -22.5t-59.5 -61.5v-377h-98v533h97v-82q29 45 73 68.5t98 23.5q80 0 128 -51.5zM317 649q-14 7 -31 19q-14 9 -22 13.5t-19 4.5q-31 0 -33 -39h-72q1 53 27.5 78.5t67.5 25.5q21 0 35 -6.5
t30 -18.5q2 -1 10 -7t15.5 -8.5t14.5 -2.5q33 0 35 38h70q0 -53 -25 -78.5t-68 -25.5q-21 0 -35 7z" />
    <glyph glyph-name="ograve" unicode="&#xf2;" horiz-adv-x="588" 
d="M426 508q57 -35 88 -97t31 -142q0 -82 -31 -145.5t-88 -98.5t-132 -35t-132 35t-88 98.5t-31 145.5q0 80 31 142t88 97t132 35t132 -35zM405.5 124.5q41.5 52.5 41.5 144.5q0 90 -41.5 141t-111.5 51t-111.5 -51t-41.5 -141q0 -92 41.5 -144.5t111.5 -52.5t111.5 52.5z
M281 612l-171 160h137l90 -160h-56z" />
    <glyph glyph-name="oacute" unicode="&#xf3;" horiz-adv-x="588" 
d="M426 508q57 -35 88 -97t31 -142q0 -82 -31 -145.5t-88 -98.5t-132 -35t-132 35t-88 98.5t-31 145.5q0 80 31 142t88 97t132 35t132 -35zM405.5 124.5q41.5 52.5 41.5 144.5q0 90 -41.5 141t-111.5 51t-111.5 -51t-41.5 -141q0 -92 41.5 -144.5t111.5 -52.5t111.5 52.5z
M340 772h137l-168 -160h-55z" />
    <glyph glyph-name="ocircumflex" unicode="&#xf4;" horiz-adv-x="588" 
d="M426 508q57 -35 88 -97t31 -142q0 -82 -31 -145.5t-88 -98.5t-132 -35t-132 35t-88 98.5t-31 145.5q0 80 31 142t88 97t132 35t132 -35zM405.5 124.5q41.5 52.5 41.5 144.5q0 90 -41.5 141t-111.5 51t-111.5 -51t-41.5 -141q0 -92 41.5 -144.5t111.5 -52.5t111.5 52.5z
M392 612l-98 102l-98 -102h-62l108 160h104l107 -160h-61z" />
    <glyph glyph-name="otilde" unicode="&#xf5;" horiz-adv-x="588" 
d="M426 508q57 -35 88 -97t31 -142q0 -82 -31 -145.5t-88 -98.5t-132 -35t-132 35t-88 98.5t-31 145.5q0 80 31 142t88 97t132 35t132 -35zM405.5 124.5q41.5 52.5 41.5 144.5q0 90 -41.5 141t-111.5 51t-111.5 -51t-41.5 -141q0 -92 41.5 -144.5t111.5 -52.5t111.5 52.5z
M319 649q-14 7 -31 19q-14 9 -22 13.5t-19 4.5q-31 0 -33 -39h-72q1 53 27.5 78.5t67.5 25.5q21 0 35 -6.5t30 -18.5q2 -1 10 -7t15.5 -8.5t14.5 -2.5q33 0 35 38h70q0 -53 -25 -78.5t-68 -25.5q-21 0 -35 7z" />
    <glyph glyph-name="odieresis" unicode="&#xf6;" horiz-adv-x="588" 
d="M426 508q57 -35 88 -97t31 -142q0 -82 -31 -145.5t-88 -98.5t-132 -35t-132 35t-88 98.5t-31 145.5q0 80 31 142t88 97t132 35t132 -35zM405.5 124.5q41.5 52.5 41.5 144.5q0 90 -41.5 141t-111.5 51t-111.5 -51t-41.5 -141q0 -92 41.5 -144.5t111.5 -52.5t111.5 52.5z
M149 648q-17 17 -17 45q0 29 17 45.5t46 16.5t46.5 -16.5t17.5 -45.5q0 -28 -17.5 -45t-46.5 -17t-46 17zM346.5 648q-17.5 17 -17.5 45q0 29 17.5 45.5t46.5 16.5t46 -16.5t17 -45.5q0 -28 -17 -45t-46 -17t-46.5 17z" />
    <glyph glyph-name="divide" unicode="&#xf7;" 
d="M256 458.5q-17 16.5 -17 44.5t17 44.5t45 16.5t45 -16.5t17 -44.5t-17 -44.5t-45 -16.5t-45 16.5zM53 369h495v-71h-495v71zM256 119.5q-17 16.5 -17 44.5t17 44t45 16t45 -16t17 -44t-17 -44.5t-45 -16.5t-45 16.5z" />
    <glyph glyph-name="oslash" unicode="&#xf8;" horiz-adv-x="588" 
d="M488 452q57 -72 57 -183q0 -82 -31 -145.5t-88 -98.5t-132 -35q-87 0 -148 46l-51 -64l-52 43l57 67q-57 74 -57 187q0 80 31 142t88 97t132 35q85 0 147 -45l56 70l52 -44zM163 156l113 134l111 139q-38 32 -93 32q-70 0 -111.5 -51t-41.5 -141q0 -64 22 -113zM426 378
l-107 -126l-118 -147q38 -33 93 -33q70 0 111.5 52.5t41.5 144.5q0 62 -21 109z" />
    <glyph glyph-name="ugrave" unicode="&#xf9;" horiz-adv-x="585" 
d="M510 533v-533h-96v84q-29 -46 -73.5 -70t-98.5 -24q-80 0 -127.5 52t-47.5 142v349h98v-345q0 -56 29 -86t81 -30q41 0 77.5 22.5t59.5 61.5v377h98zM280 612l-171 160h137l90 -160h-56z" />
    <glyph glyph-name="uacute" unicode="&#xfa;" horiz-adv-x="585" 
d="M510 533v-533h-96v84q-29 -46 -73.5 -70t-98.5 -24q-80 0 -127.5 52t-47.5 142v349h98v-345q0 -56 29 -86t81 -30q41 0 77.5 22.5t59.5 61.5v377h98zM339 772h137l-168 -160h-55z" />
    <glyph glyph-name="ucircumflex" unicode="&#xfb;" horiz-adv-x="585" 
d="M510 533v-533h-96v84q-29 -46 -73.5 -70t-98.5 -24q-80 0 -127.5 52t-47.5 142v349h98v-345q0 -56 29 -86t81 -30q41 0 77.5 22.5t59.5 61.5v377h98zM391 612l-98 102l-98 -102h-62l108 160h104l107 -160h-61z" />
    <glyph glyph-name="udieresis" unicode="&#xfc;" horiz-adv-x="585" 
d="M510 533v-533h-96v84q-29 -46 -73.5 -70t-98.5 -24q-80 0 -127.5 52t-47.5 142v349h98v-345q0 -56 29 -86t81 -30q41 0 77.5 22.5t59.5 61.5v377h98zM148 648q-17 17 -17 45q0 29 17 45.5t46 16.5t46.5 -16.5t17.5 -45.5q0 -28 -17.5 -45t-46.5 -17t-46 17zM345.5 648
q-17.5 17 -17.5 45q0 29 17.5 45.5t46.5 16.5t46 -16.5t17 -45.5q0 -28 -17 -45t-46 -17t-46.5 17z" />
    <glyph glyph-name="yacute" unicode="&#xfd;" horiz-adv-x="504" 
d="M496 533l-200 -544q-29 -79 -78.5 -118t-121.5 -39q-10 0 -28 2l-18 82q21 -5 48 -5q39 0 60 16.5t45 60.5l5 10l-200 535h112l134 -427l135 427h107zM304 772h137l-168 -160h-55z" />
    <glyph glyph-name="thorn" unicode="&#xfe;" horiz-adv-x="596" 
d="M495.5 469q56.5 -74 56.5 -204q0 -131 -57.5 -203t-158.5 -72q-46 0 -89 20.5t-74 60.5v-231h-98v860h98v-238q31 40 74 60.5t89 20.5q103 0 159.5 -74zM417 125q36 53 36 142t-39 141.5t-107 52.5q-91 0 -134 -78v-228q44 -83 139 -83q69 0 105 53z" />
    <glyph glyph-name="ydieresis" unicode="&#xff;" horiz-adv-x="504" 
d="M496 533l-200 -544q-29 -79 -78.5 -118t-121.5 -39q-10 0 -28 2l-18 82q21 -5 48 -5q39 0 60 16.5t45 60.5l5 10l-200 535h112l134 -427l135 427h107zM113 648q-17 17 -17 45q0 29 17 45.5t46 16.5t46.5 -16.5t17.5 -45.5q0 -28 -17.5 -45t-46.5 -17t-46 17zM310.5 648
q-17.5 17 -17.5 45q0 29 17.5 45.5t46.5 16.5t46 -16.5t17 -45.5q0 -28 -17 -45t-46 -17t-46.5 17z" />
    <glyph glyph-name="Amacron" unicode="&#x100;" horiz-adv-x="682" 
d="M521 137h-360l-50 -137h-103l263 700h140l263 -700h-103zM493 214l-152 416l-152 -416h304zM481 897v-69h-280v69h280z" />
    <glyph glyph-name="amacron" unicode="&#x101;" horiz-adv-x="544" 
d="M425.5 496.5q52.5 -46.5 52.5 -131.5v-240v-125h-97v75q-39 -43 -87 -64t-100 -21q-72 0 -114 35t-42 99q0 62 30 102t104 66.5t209 42.5v33q0 47 -28.5 73t-81.5 26q-47 0 -81 -22t-50 -79l-87 25q23 80 81.5 116t140.5 36q98 0 150.5 -46.5zM308.5 94q41.5 20 72.5 53
v113q-94 -11 -146.5 -27t-73.5 -37.5t-21 -53.5t21 -50t60 -18q46 0 87.5 20zM417 730v-68h-280v68h280z" />
    <glyph glyph-name="Abreve" unicode="&#x102;" horiz-adv-x="682" 
d="M521 137h-360l-50 -137h-103l263 700h140l263 -700h-103zM493 214l-152 416l-152 -416h304zM239 822.5q-39 36.5 -40 99.5h74q0 -37 18 -56.5t49 -19.5q33 0 52 19.5t19 56.5h74q-1 -63 -41.5 -99.5t-103.5 -36.5q-62 0 -101 36.5z" />
    <glyph glyph-name="abreve" unicode="&#x103;" horiz-adv-x="544" 
d="M425.5 496.5q52.5 -46.5 52.5 -131.5v-240v-125h-97v75q-39 -43 -87 -64t-100 -21q-72 0 -114 35t-42 99q0 62 30 102t104 66.5t209 42.5v33q0 47 -28.5 73t-81.5 26q-47 0 -81 -22t-50 -79l-87 25q23 80 81.5 116t140.5 36q98 0 150.5 -46.5zM308.5 94q41.5 20 72.5 53
v113q-94 -11 -146.5 -27t-73.5 -37.5t-21 -53.5t21 -50t60 -18q46 0 87.5 20zM176 662.5q-39 36.5 -40 99.5h74q0 -37 18 -56.5t49 -19.5q33 0 52 19.5t19 56.5h74q-1 -63 -41.5 -99.5t-103.5 -36.5q-62 0 -101 36.5z" />
    <glyph glyph-name="Aogonek" unicode="&#x104;" horiz-adv-x="682" 
d="M546 -110q12 -10 32 -10q12 0 28.5 3t27.5 7v-70q-12 -4 -32 -7.5t-40 -3.5q-54 0 -82.5 24.5t-28.5 61.5q0 66 116 117l-46 125h-360l-50 -137h-103l263 700h140l263 -700h-64q-6 -4 -30.5 -21t-35 -31.5t-10.5 -30.5q0 -17 12 -27zM493 214l-152 416l-152 -416h304z
" />
    <glyph glyph-name="aogonek" unicode="&#x105;" horiz-adv-x="544" 
d="M464 -117q16 3 27 7v-70q-31 -11 -71 -11q-54 0 -83 24.5t-29 61.5q0 59 90 105h-17v75q-39 -43 -87 -64t-100 -21q-72 0 -114 35t-42 99q0 62 30 102t104 66.5t209 42.5v33q0 47 -28.5 73t-81.5 26q-47 0 -81 -22t-50 -79l-87 25q23 80 81.5 116t140.5 36
q98 0 150.5 -46.5t52.5 -131.5v-240v-125h-11q-6 -4 -30.5 -21t-35 -31.5t-10.5 -30.5q0 -17 12 -27t33 -10q12 0 28 3zM308.5 94q41.5 20 72.5 53v113q-94 -11 -146.5 -27t-73.5 -37.5t-21 -53.5t21 -50t60 -18q46 0 87.5 20z" />
    <glyph glyph-name="Cacute" unicode="&#x106;" horiz-adv-x="722" 
d="M520.5 124.5q58.5 45.5 79.5 129.5l95 -24q-30 -113 -112 -176.5t-206 -63.5q-101 0 -179 45.5t-121 127t-43 186.5q0 106 43 188t121 127.5t179 45.5q125 0 207 -64t111 -176l-95 -24q-21 84 -79.5 129.5t-142.5 45.5q-71 0 -125.5 -34.5t-84 -96t-29.5 -141.5
q0 -79 30 -140.5t84 -95.5t125 -34q84 0 142.5 45.5zM439 932h137l-168 -160h-55z" />
    <glyph glyph-name="cacute" unicode="&#x107;" horiz-adv-x="552" 
d="M382 102.5q35 30.5 48 86.5l94 -22q-20 -81 -79.5 -129t-150.5 -48q-75 0 -132 35t-88 98.5t-31 145.5q0 80 31 142t88 97t132 35q91 0 150.5 -48t79.5 -129l-94 -22q-13 56 -48 86.5t-88 30.5q-70 0 -111.5 -51t-41.5 -141q0 -92 41.5 -144.5t111.5 -52.5q53 0 88 30.5z
M340 772h137l-168 -160h-55z" />
    <glyph glyph-name="Cdotaccent" unicode="&#x10a;" horiz-adv-x="722" 
d="M520.5 124.5q58.5 45.5 79.5 129.5l95 -24q-30 -113 -112 -176.5t-206 -63.5q-101 0 -179 45.5t-121 127t-43 186.5q0 106 43 188t121 127.5t179 45.5q125 0 207 -64t111 -176l-95 -24q-21 84 -79.5 129.5t-142.5 45.5q-71 0 -125.5 -34.5t-84 -96t-29.5 -141.5
q0 -79 30 -140.5t84 -95.5t125 -34q84 0 142.5 45.5zM333 807q-18 17 -18 46t18 46t47 17t47 -17t18 -46t-18 -46t-47 -17t-47 17z" />
    <glyph glyph-name="cdotaccent" unicode="&#x10b;" horiz-adv-x="552" 
d="M382 102.5q35 30.5 48 86.5l94 -22q-20 -81 -79.5 -129t-150.5 -48q-75 0 -132 35t-88 98.5t-31 145.5q0 80 31 142t88 97t132 35q91 0 150.5 -48t79.5 -129l-94 -22q-13 56 -48 86.5t-88 30.5q-70 0 -111.5 -51t-41.5 -141q0 -92 41.5 -144.5t111.5 -52.5q53 0 88 30.5z
M247 647q-18 17 -18 46t18 46t47 17t47 -17t18 -46t-18 -46t-47 -17t-47 17z" />
    <glyph glyph-name="Ccaron" unicode="&#x10c;" horiz-adv-x="722" 
d="M520.5 124.5q58.5 45.5 79.5 129.5l95 -24q-30 -113 -112 -176.5t-206 -63.5q-101 0 -179 45.5t-121 127t-43 186.5q0 106 43 188t121 127.5t179 45.5q125 0 207 -64t111 -176l-95 -24q-21 84 -79.5 129.5t-142.5 45.5q-71 0 -125.5 -34.5t-84 -96t-29.5 -141.5
q0 -79 30 -140.5t84 -95.5t125 -34q84 0 142.5 45.5zM432 772h-104l-108 160h58l102 -103l105 103h54z" />
    <glyph glyph-name="ccaron" unicode="&#x10d;" horiz-adv-x="552" 
d="M382 102.5q35 30.5 48 86.5l94 -22q-20 -81 -79.5 -129t-150.5 -48q-75 0 -132 35t-88 98.5t-31 145.5q0 80 31 142t88 97t132 35q91 0 150.5 -48t79.5 -129l-94 -22q-13 56 -48 86.5t-88 30.5q-70 0 -111.5 -51t-41.5 -141q0 -92 41.5 -144.5t111.5 -52.5q53 0 88 30.5z
M345 612h-104l-108 160h58l102 -103l105 103h54z" />
    <glyph glyph-name="Dcaron" unicode="&#x10e;" horiz-adv-x="731" 
d="M603 609.5q94 -90.5 94 -258.5q0 -167 -94 -259t-278 -92h-240v700h239q185 0 279 -90.5zM527 153.5q67 69.5 67 197.5t-67 196.5t-204 68.5h-136v-532h137q136 0 203 69.5zM405 772h-104l-108 160h58l102 -103l105 103h54z" />
    <glyph glyph-name="dcaron" unicode="&#x10f;" horiz-adv-x="596" 
d="M521 700v-700h-99v70q-31 -39 -74 -59.5t-88 -20.5q-103 0 -160 74t-57 204q0 131 58 203t159 72q46 0 88.5 -20t73.5 -59v236h99zM422 149v231q-44 81 -138 81q-69 0 -105.5 -53t-36.5 -141q0 -90 39.5 -142.5t107.5 -52.5q88 0 133 77zM581 700h94l-47 -160h-47v160z
" />
    <glyph glyph-name="Dcroat" unicode="&#x110;" horiz-adv-x="738" 
d="M610 609.5q94 -90.5 94 -258.5q0 -167 -94 -259t-278 -92h-240v313h-64v73h64v314h239q185 0 279 -90.5zM533.5 153.5q66.5 69.5 66.5 197.5q0 127 -67 196t-203 69h-136v-230h183v-73h-183v-229h137q136 0 202.5 69.5z" />
    <glyph glyph-name="dcroat" unicode="&#x111;" horiz-adv-x="596" 
d="M590 579h-69v-579h-99v70q-31 -39 -74 -59.5t-88 -20.5q-103 0 -160 74t-57 204q0 131 58 203t159 72q46 0 88.5 -20t73.5 -59v115h-135v54h135v67h99v-67h69v-54zM422 149v231q-44 81 -138 81q-69 0 -105.5 -53t-36.5 -141q0 -90 39.5 -142.5t107.5 -52.5q88 0 133 77z
" />
    <glyph glyph-name="Emacron" unicode="&#x112;" horiz-adv-x="655" 
d="M187 616v-209h375v-84h-375v-239h404v-84h-506v700h506v-84h-404zM486 897v-69h-280v69h280z" />
    <glyph glyph-name="emacron" unicode="&#x113;" horiz-adv-x="569" 
d="M467.5 468q61.5 -75 58.5 -218h-385q4 -89 45.5 -136t112.5 -47q48 0 84 26t49 84l91 -24q-25 -86 -82 -124.5t-147 -38.5q-120 0 -185.5 77.5t-65.5 205.5q0 82 31 143t87.5 94t131.5 33q113 0 174.5 -75zM189.5 430.5q-38.5 -38.5 -47.5 -113.5h283q-2 74 -36.5 113
t-96.5 39q-64 0 -102.5 -38.5zM439 730v-68h-280v68h280z" />
    <glyph glyph-name="Edotaccent" unicode="&#x116;" horiz-adv-x="655" 
d="M187 616v-209h375v-84h-375v-239h404v-84h-506v700h506v-84h-404zM299 807q-18 17 -18 46t18 46t47 17t47 -17t18 -46t-18 -46t-47 -17t-47 17z" />
    <glyph glyph-name="edotaccent" unicode="&#x117;" horiz-adv-x="569" 
d="M467.5 468q61.5 -75 58.5 -218h-385q4 -89 45.5 -136t112.5 -47q48 0 84 26t49 84l91 -24q-25 -86 -82 -124.5t-147 -38.5q-120 0 -185.5 77.5t-65.5 205.5q0 82 31 143t87.5 94t131.5 33q113 0 174.5 -75zM189.5 430.5q-38.5 -38.5 -47.5 -113.5h283q-2 74 -36.5 113
t-96.5 39q-64 0 -102.5 -38.5zM252 647q-18 17 -18 46t18 46t47 17t47 -17t18 -46t-18 -46t-47 -17t-47 17z" />
    <glyph glyph-name="Eogonek" unicode="&#x118;" horiz-adv-x="655" 
d="M187 616v-209h375v-84h-375v-239h404v-84h-24q-6 -4 -30.5 -21t-35 -31.5t-10.5 -30.5q0 -17 12 -27t32 -10q12 0 28.5 3t27.5 7v-70q-12 -4 -32 -7.5t-40 -3.5q-54 0 -82.5 24.5t-28.5 61.5q0 59 90 105h-413v700h506v-84h-404z" />
    <glyph glyph-name="eogonek" unicode="&#x119;" horiz-adv-x="569" 
d="M467.5 468q61.5 -75 58.5 -218h-385q4 -89 45.5 -136t112.5 -47q48 0 84 26t49 84l91 -24q-19 -66 -60 -107l-42 -43q-37 -36 -49.5 -52.5t-12.5 -33.5t12 -27t32 -10q12 0 28.5 3t27.5 7v-70q-33 -11 -72 -11q-54 0 -83 24.5t-29 61.5q0 24 19 48t61 52q-32 -5 -61 -5
q-120 0 -185.5 77.5t-65.5 205.5q0 82 31 143t87.5 94t131.5 33q113 0 174.5 -75zM189.5 430.5q-38.5 -38.5 -47.5 -113.5h283q-2 74 -36.5 113t-96.5 39q-64 0 -102.5 -38.5z" />
    <glyph glyph-name="Ecaron" unicode="&#x11a;" horiz-adv-x="655" 
d="M187 616v-209h375v-84h-375v-239h404v-84h-506v700h506v-84h-404zM398 772h-104l-108 160h58l102 -103l105 103h54z" />
    <glyph glyph-name="ecaron" unicode="&#x11b;" horiz-adv-x="569" 
d="M467.5 468q61.5 -75 58.5 -218h-385q4 -89 45.5 -136t112.5 -47q48 0 84 26t49 84l91 -24q-25 -86 -82 -124.5t-147 -38.5q-120 0 -185.5 77.5t-65.5 205.5q0 82 31 143t87.5 94t131.5 33q113 0 174.5 -75zM189.5 430.5q-38.5 -38.5 -47.5 -113.5h283q-2 74 -36.5 113
t-96.5 39q-64 0 -102.5 -38.5zM350 612h-104l-108 160h58l102 -103l105 103h54z" />
    <glyph glyph-name="Gbreve" unicode="&#x11e;" horiz-adv-x="752" 
d="M690 345v-345h-75l-12 119q-67 -129 -239 -129q-97 0 -172 45.5t-116.5 127t-41.5 187.5q0 107 42.5 188.5t121.5 126.5t185 45q112 0 190 -52t114 -146l-92 -32q-25 67 -80.5 104t-130.5 37q-74 0 -129.5 -33.5t-85.5 -94.5t-30 -141q0 -82 29.5 -144t84 -96t127.5 -34
q59 0 106.5 23t75 65.5t28.5 99.5h-188v79h288zM283 822.5q-39 36.5 -40 99.5h74q0 -37 18 -56.5t49 -19.5q33 0 52 19.5t19 56.5h74q-1 -63 -41.5 -99.5t-103.5 -36.5q-62 0 -101 36.5z" />
    <glyph glyph-name="gbreve" unicode="&#x11f;" horiz-adv-x="594" 
d="M519 533v-486q0 -97 -62 -157t-179 -60q-93 0 -153 37.5t-79 110.5l85 28q11 -54 52.5 -80t96.5 -26q72 0 106 37.5t34 104.5v84q-31 -42 -74 -65.5t-93 -23.5q-62 0 -109 31.5t-72 89t-25 132.5t25 132.5t72 89t109 31.5q50 0 93 -23.5t74 -65.5v79h99zM359 142.5
q37 22.5 61 63.5v166q-23 43 -60.5 66t-81.5 23q-63 0 -98.5 -46t-35.5 -125t36 -124.5t99 -45.5q43 0 80 22.5zM197 662.5q-39 36.5 -40 99.5h74q0 -37 18 -56.5t49 -19.5q33 0 52 19.5t19 56.5h74q-1 -63 -41.5 -99.5t-103.5 -36.5q-62 0 -101 36.5z" />
    <glyph glyph-name="Gdotaccent" unicode="&#x120;" horiz-adv-x="752" 
d="M690 345v-345h-75l-12 119q-67 -129 -239 -129q-97 0 -172 45.5t-116.5 127t-41.5 187.5q0 107 42.5 188.5t121.5 126.5t185 45q112 0 190 -52t114 -146l-92 -32q-25 67 -80.5 104t-130.5 37q-74 0 -129.5 -33.5t-85.5 -94.5t-30 -141q0 -82 29.5 -144t84 -96t127.5 -34
q59 0 106.5 23t75 65.5t28.5 99.5h-188v79h288zM338 807q-18 17 -18 46t18 46t47 17t47 -17t18 -46t-18 -46t-47 -17t-47 17z" />
    <glyph glyph-name="gdotaccent" unicode="&#x121;" horiz-adv-x="594" 
d="M519 533v-486q0 -97 -62 -157t-179 -60q-93 0 -153 37.5t-79 110.5l85 28q11 -54 52.5 -80t96.5 -26q72 0 106 37.5t34 104.5v84q-31 -42 -74 -65.5t-93 -23.5q-62 0 -109 31.5t-72 89t-25 132.5t25 132.5t72 89t109 31.5q50 0 93 -23.5t74 -65.5v79h99zM359 142.5
q37 22.5 61 63.5v166q-23 43 -60.5 66t-81.5 23q-63 0 -98.5 -46t-35.5 -125t36 -124.5t99 -45.5q43 0 80 22.5zM251 647q-18 17 -18 46t18 46t47 17t47 -17t18 -46t-18 -46t-47 -17t-47 17z" />
    <glyph glyph-name="uni0122" unicode="&#x122;" horiz-adv-x="752" 
d="M690 345v-345h-75l-12 119q-67 -129 -239 -129q-97 0 -172 45.5t-116.5 127t-41.5 187.5q0 107 42.5 188.5t121.5 126.5t185 45q112 0 190 -52t114 -146l-92 -32q-25 67 -80.5 104t-130.5 37q-74 0 -129.5 -33.5t-85.5 -94.5t-30 -141q0 -82 29.5 -144t84 -96t127.5 -34
q59 0 106.5 23t75 65.5t28.5 99.5h-188v79h288zM410.5 -83q14.5 -18 14.5 -60q0 -120 -122 -130l-7 30q48 7 67.5 23.5t20.5 55.5q-4 -1 -12 -1q-24 0 -39 13.5t-15 36.5q0 22 13.5 36t38.5 14q26 0 40.5 -18z" />
    <glyph glyph-name="uni0123" unicode="&#x123;" horiz-adv-x="594" 
d="M519 533v-486q0 -97 -62 -157t-179 -60q-93 0 -153 37.5t-79 110.5l85 28q11 -54 52.5 -80t96.5 -26q72 0 106 37.5t34 104.5v84q-31 -42 -74 -65.5t-93 -23.5q-62 0 -109 31.5t-72 89t-25 132.5t25 132.5t72 89t109 31.5q50 0 93 -23.5t74 -65.5v79h99zM359 142.5
q37 22.5 61 63.5v166q-23 43 -60.5 66t-81.5 23q-63 0 -98.5 -46t-35.5 -125t36 -124.5t99 -45.5q43 0 80 22.5zM334 725.5q15 -13.5 15 -36.5t-13.5 -36.5t-38.5 -13.5q-55 0 -55 78q2 120 123 130l5 -31q-47 -6 -66.5 -21.5t-19.5 -56.5q3 1 11 1q24 0 39 -13.5z" />
    <glyph glyph-name="Hbar" unicode="&#x126;" horiz-adv-x="733" 
d="M682 540h-34v-540h-102v329h-359v-329h-102v540h-36v62h36v98h102v-98h359v98h102v-98h34v-62zM546 540h-359v-127h359v127z" />
    <glyph glyph-name="hbar" unicode="&#x127;" horiz-adv-x="585" 
d="M471 491.5q48 -51.5 48 -141.5v-350h-99v345q0 56 -29 86t-80 30q-42 0 -78.5 -22.5t-59.5 -61.5v-377h-98v579h-70v54h70v67h98v-67h135v-54h-135v-126q29 44 73 67t97 23q80 0 128 -51.5z" />
    <glyph glyph-name="Imacron" unicode="&#x12a;" horiz-adv-x="292" 
d="M95 700h102v-700h-102v700zM286 897v-69h-280v69h280z" />
    <glyph glyph-name="imacron" unicode="&#x12b;" horiz-adv-x="248" 
d="M75 533h98v-533h-98v533zM265 730v-68h-280v68h280z" />
    <glyph glyph-name="Iogonek" unicode="&#x12e;" horiz-adv-x="292" 
d="M179.5 -117q16.5 3 27.5 7v-70q-12 -4 -32 -7.5t-40 -3.5q-54 0 -82.5 24.5t-28.5 61.5q0 59 90 105h-19v700h102v-700h-14q-6 -4 -30.5 -21t-35 -31.5t-10.5 -30.5q0 -17 12 -27t32 -10q12 0 28.5 3z" />
    <glyph glyph-name="iogonek" unicode="&#x12f;" horiz-adv-x="248" 
d="M78 647q-18 17 -18 46t18 46t47 17t46.5 -17t17.5 -46t-17.5 -46t-46.5 -17t-47 17zM94 -110q12 -10 32 -10q12 0 28.5 3t27.5 7v-70q-12 -4 -32 -7.5t-40 -3.5q-54 0 -82.5 24.5t-28.5 61.5q0 59 90 105h-14v533h98v-533h-15q-6 -4 -30.5 -21t-35 -31.5t-10.5 -30.5
q0 -17 12 -27z" />
    <glyph glyph-name="Idotaccent" unicode="&#x130;" horiz-adv-x="292" 
d="M95 700h102v-700h-102v700zM99 807q-18 17 -18 46t18 46t47 17t47 -17t18 -46t-18 -46t-47 -17t-47 17z" />
    <glyph glyph-name="dotlessi" unicode="&#x131;" horiz-adv-x="248" 
d="M75 533h98v-533h-98v533z" />
    <glyph glyph-name="IJ" unicode="&#x132;" horiz-adv-x="605" 
d="M528 700v-471q0 -123 -55 -181t-169 -58q-105 0 -160.5 50t-66.5 154l105 21q2 -69 35 -103t90 -34q59 0 89 36t30 115v471h102zM79 700h102v-362h-102v362z" />
    <glyph glyph-name="uni0136" unicode="&#x136;" horiz-adv-x="697" 
d="M413 403l267 -403h-130l-206 327l-157 -170v-157h-102v700h102v-441l363 441h135zM384.5 -83q14.5 -18 14.5 -60q0 -120 -122 -130l-7 30q48 7 67.5 23.5t20.5 55.5q-4 -1 -12 -1q-24 0 -39 13.5t-15 36.5q0 22 13.5 36t38.5 14q26 0 40.5 -18z" />
    <glyph glyph-name="uni0137" unicode="&#x137;" horiz-adv-x="573" 
d="M260 253l-87 -80v-173h-98v700h98v-434l263 267h127l-241 -222l243 -311h-117zM324.5 -83q14.5 -18 14.5 -60q0 -120 -122 -130l-7 30q48 7 67.5 23.5t20.5 55.5q-4 -1 -12 -1q-24 0 -39 13.5t-15 36.5q0 22 13.5 36t38.5 14q26 0 40.5 -18z" />
    <glyph glyph-name="Lacute" unicode="&#x139;" horiz-adv-x="593" 
d="M570 85v-85h-485v700h102v-615h383zM198 932h137l-168 -160h-55z" />
    <glyph glyph-name="lacute" unicode="&#x13a;" horiz-adv-x="289" 
d="M103 22q-28 31 -28 78v600h98v-586q0 -24 8 -36t31 -12q24 0 40 15l14 -76q-34 -14 -69 -14q-66 0 -94 31zM197 932h137l-168 -160h-55z" />
    <glyph glyph-name="uni013B" unicode="&#x13b;" horiz-adv-x="593" 
d="M570 85v-85h-485v700h102v-615h383zM335.5 -83q14.5 -18 14.5 -60q0 -120 -122 -130l-7 30q48 7 67.5 23.5t20.5 55.5q-4 -1 -12 -1q-24 0 -39 13.5t-15 36.5q0 22 13.5 36t38.5 14q26 0 40.5 -18z" />
    <glyph glyph-name="uni013C" unicode="&#x13c;" horiz-adv-x="289" 
d="M103 22q-28 31 -28 78v600h98v-586q0 -24 8 -36t31 -12q24 0 40 15l14 -76q-34 -14 -69 -14q-66 0 -94 31zM175.5 -83q14.5 -18 14.5 -60q0 -120 -122 -130l-7 30q48 7 67.5 23.5t20.5 55.5q-4 -1 -12 -1q-24 0 -39 13.5t-15 36.5q0 22 13.5 36t38.5 14q26 0 40.5 -18z
" />
    <glyph glyph-name="Lcaron" unicode="&#x13d;" horiz-adv-x="593" 
d="M570 85v-85h-485v700h102v-615h383zM298 700h94l-47 -160h-47v160z" />
    <glyph glyph-name="lcaron" unicode="&#x13e;" horiz-adv-x="289" 
d="M103 22q-28 31 -28 78v600h98v-586q0 -24 8 -36t31 -12q24 0 40 15l14 -76q-34 -14 -69 -14q-66 0 -94 31zM222 700h94l-47 -160h-47v160z" />
    <glyph glyph-name="Lslash" unicode="&#x141;" horiz-adv-x="593" 
d="M570 85v-85h-485v249l-91 -77v101l91 55v372h102v-297l150 116v-102l-150 -91v-241h383z" />
    <glyph glyph-name="lslash" unicode="&#x142;" horiz-adv-x="289" 
d="M266 5q-34 -14 -69 -14q-66 0 -94 31t-28 78v133l-73 -71v97l73 56v385h98v-298l83 80v-97l-83 -62v-209q0 -24 8 -36t31 -12q24 0 40 15z" />
    <glyph glyph-name="Nacute" unicode="&#x143;" horiz-adv-x="765" 
d="M680 700v-700h-142l-354 599v-599h-99v700h142l354 -595v595h99zM442 932h137l-168 -160h-55z" />
    <glyph glyph-name="nacute" unicode="&#x144;" horiz-adv-x="585" 
d="M471 491.5q48 -51.5 48 -141.5v-350h-99v345q0 56 -29 86t-80 30q-42 0 -78.5 -22.5t-59.5 -61.5v-377h-98v533h97v-82q29 45 73 68.5t98 23.5q80 0 128 -51.5zM338 772h137l-168 -160h-55z" />
    <glyph glyph-name="uni0145" unicode="&#x145;" horiz-adv-x="765" 
d="M680 700v-700h-142l-354 599v-599h-99v700h142l354 -595v595h99zM421.5 -83q14.5 -18 14.5 -60q0 -120 -122 -130l-7 30q48 7 67.5 23.5t20.5 55.5q-4 -1 -12 -1q-24 0 -39 13.5t-15 36.5q0 22 13.5 36t38.5 14q26 0 40.5 -18z" />
    <glyph glyph-name="uni0146" unicode="&#x146;" horiz-adv-x="585" 
d="M471 491.5q48 -51.5 48 -141.5v-350h-99v345q0 56 -29 86t-80 30q-42 0 -78.5 -22.5t-59.5 -61.5v-377h-98v533h97v-82q29 45 73 68.5t98 23.5q80 0 128 -51.5zM322.5 -83q14.5 -18 14.5 -60q0 -120 -122 -130l-7 30q48 7 67.5 23.5t20.5 55.5q-4 -1 -12 -1
q-24 0 -39 13.5t-15 36.5q0 22 13.5 36t38.5 14q26 0 40.5 -18z" />
    <glyph glyph-name="Ncaron" unicode="&#x147;" horiz-adv-x="765" 
d="M680 700v-700h-142l-354 599v-599h-99v700h142l354 -595v595h99zM435 772h-104l-108 160h58l102 -103l105 103h54z" />
    <glyph glyph-name="ncaron" unicode="&#x148;" horiz-adv-x="585" 
d="M471 491.5q48 -51.5 48 -141.5v-350h-99v345q0 56 -29 86t-80 30q-42 0 -78.5 -22.5t-59.5 -61.5v-377h-98v533h97v-82q29 45 73 68.5t98 23.5q80 0 128 -51.5zM343 612h-104l-108 160h58l102 -103l105 103h54z" />
    <glyph glyph-name="Eng" unicode="&#x14a;" horiz-adv-x="765" 
d="M680 700v-683q0 -95 -47 -141t-134 -46q-21 0 -32 1v76q14 -5 32 -5q45 0 63.5 21.5t18.5 74.5v17l-397 592v-607h-99v700h142l354 -521v521h99z" />
    <glyph glyph-name="eng" unicode="&#x14b;" horiz-adv-x="585" 
d="M471 491.5q48 -51.5 48 -141.5v-350q0 -79 -49 -124.5t-134 -45.5q-21 0 -32 1v76q14 -5 32 -5q40 0 62 26t22 72v345q0 56 -29 86t-80 30q-42 0 -78.5 -22.5t-59.5 -61.5v-377h-98v533h97v-82q29 45 73 68.5t98 23.5q80 0 128 -51.5z" />
    <glyph glyph-name="Omacron" unicode="&#x14c;" horiz-adv-x="758" 
d="M559 665q78 -45 121.5 -127t43.5 -189q0 -106 -43.5 -187.5t-121.5 -126.5t-180 -45t-180 45t-121.5 126.5t-43.5 187.5q0 107 43.5 189t121.5 127t180 45t180 -45zM503.5 112q54.5 33 85 94.5t30.5 142.5q0 82 -30.5 143.5t-85 95t-124.5 33.5t-124.5 -33.5t-85 -95
t-30.5 -143.5q0 -81 30.5 -142.5t85 -94.5t124.5 -33t124.5 33zM519 897v-69h-280v69h280z" />
    <glyph glyph-name="omacron" unicode="&#x14d;" horiz-adv-x="588" 
d="M426 508q57 -35 88 -97t31 -142q0 -82 -31 -145.5t-88 -98.5t-132 -35t-132 35t-88 98.5t-31 145.5q0 80 31 142t88 97t132 35t132 -35zM405.5 124.5q41.5 52.5 41.5 144.5q0 90 -41.5 141t-111.5 51t-111.5 -51t-41.5 -141q0 -92 41.5 -144.5t111.5 -52.5t111.5 52.5z
M434 730v-68h-280v68h280z" />
    <glyph glyph-name="Ohungarumlaut" unicode="&#x150;" horiz-adv-x="758" 
d="M559 665q78 -45 121.5 -127t43.5 -189q0 -106 -43.5 -187.5t-121.5 -126.5t-180 -45t-180 45t-121.5 126.5t-43.5 187.5q0 107 43.5 189t121.5 127t180 45t180 -45zM503.5 112q54.5 33 85 94.5t30.5 142.5q0 82 -30.5 143.5t-85 95t-124.5 33.5t-124.5 -33.5t-85 -95
t-30.5 -143.5q0 -81 30.5 -142.5t85 -94.5t124.5 -33t124.5 33zM319 932h120l-118 -160h-54zM491 932h120l-118 -160h-54z" />
    <glyph glyph-name="ohungarumlaut" unicode="&#x151;" horiz-adv-x="588" 
d="M426 508q57 -35 88 -97t31 -142q0 -82 -31 -145.5t-88 -98.5t-132 -35t-132 35t-88 98.5t-31 145.5q0 80 31 142t88 97t132 35t132 -35zM405.5 124.5q41.5 52.5 41.5 144.5q0 90 -41.5 141t-111.5 51t-111.5 -51t-41.5 -141q0 -92 41.5 -144.5t111.5 -52.5t111.5 52.5z
M234 772h120l-118 -160h-54zM406 772h120l-118 -160h-54z" />
    <glyph glyph-name="OE" unicode="&#x152;" horiz-adv-x="1113" 
d="M646 616v-209h375v-84h-375v-239h404v-84h-644q-184 0 -278 92t-94 259q0 168 94 258.5t279 90.5h643v-84h-404zM544 84v532h-136q-137 0 -204 -68.5t-67 -196.5t67 -197.5t203 -69.5h137z" />
    <glyph glyph-name="oe" unicode="&#x153;" horiz-adv-x="973" 
d="M871.5 468q61.5 -75 57.5 -218h-384q4 -88 44.5 -135.5t112.5 -47.5q49 0 85 26t49 84l91 -24q-25 -86 -82.5 -124.5t-147.5 -38.5q-75 0 -126 32t-77 90q-28 -58 -78.5 -90t-121.5 -32q-75 0 -132 35t-88 98.5t-31 145.5q0 80 31 142t88 97t132 35q70 0 120.5 -31.5
t79.5 -88.5q27 58 78.5 89t123.5 31q114 0 175.5 -75zM593.5 430.5q-38.5 -38.5 -46.5 -113.5h284q-2 74 -37 113t-98 39q-64 0 -102.5 -38.5zM406 124q42 53 42 145q0 90 -42 141.5t-112 51.5q-71 0 -112.5 -51.5t-41.5 -141.5q0 -92 42 -145t112 -53t112 53z" />
    <glyph glyph-name="Racute" unicode="&#x154;" horiz-adv-x="703" 
d="M538 0l-150 277h-11h-190v-277h-102v700h295q119 0 184.5 -56t65.5 -156q0 -73 -42.5 -124.5t-114.5 -73.5l190 -290h-125zM187 357h183q75 0 116.5 35t41.5 96t-41 95.5t-116 34.5h-184v-261zM391 932h137l-168 -160h-55z" />
    <glyph glyph-name="racute" unicode="&#x155;" horiz-adv-x="401" 
d="M383 540v-101q-21 4 -46 4q-115 0 -164 -109v-334h-98v533h98v-122q54 129 210 129zM248 772h137l-168 -160h-55z" />
    <glyph glyph-name="uni0156" unicode="&#x156;" horiz-adv-x="703" 
d="M538 0l-150 277h-11h-190v-277h-102v700h295q119 0 184.5 -56t65.5 -156q0 -73 -42.5 -124.5t-114.5 -73.5l190 -290h-125zM187 357h183q75 0 116.5 35t41.5 96t-41 95.5t-116 34.5h-184v-261zM374.5 -83q14.5 -18 14.5 -60q0 -120 -122 -130l-7 30q48 7 67.5 23.5
t20.5 55.5q-4 -1 -12 -1q-24 0 -39 13.5t-15 36.5q0 22 13.5 36t38.5 14q26 0 40.5 -18z" />
    <glyph glyph-name="uni0157" unicode="&#x157;" horiz-adv-x="401" 
d="M383 540v-101q-21 4 -46 4q-115 0 -164 -109v-334h-98v533h98v-122q54 129 210 129zM151.5 -83q14.5 -18 14.5 -60q0 -120 -122 -130l-7 30q48 7 67.5 23.5t20.5 55.5q-4 -1 -12 -1q-24 0 -39 13.5t-15 36.5q0 22 13.5 36t38.5 14q26 0 40.5 -18z" />
    <glyph glyph-name="Rcaron" unicode="&#x158;" horiz-adv-x="703" 
d="M538 0l-150 277h-11h-190v-277h-102v700h295q119 0 184.5 -56t65.5 -156q0 -73 -42.5 -124.5t-114.5 -73.5l190 -290h-125zM187 357h183q75 0 116.5 35t41.5 96t-41 95.5t-116 34.5h-184v-261zM384 772h-104l-108 160h58l102 -103l105 103h54z" />
    <glyph glyph-name="rcaron" unicode="&#x159;" horiz-adv-x="401" 
d="M383 540v-101q-21 4 -46 4q-115 0 -164 -109v-334h-98v533h98v-122q54 129 210 129zM253 612h-104l-108 160h58l102 -103l105 103h54z" />
    <glyph glyph-name="Sacute" unicode="&#x15a;" horiz-adv-x="633" 
d="M141.5 42q-78.5 51 -104.5 158l98 25q19 -79 73 -115.5t129 -36.5q74 0 116 32.5t42 81.5q0 37 -24 59t-60.5 34t-98.5 26q-80 18 -129.5 36t-84.5 57.5t-35 107.5q0 94 67.5 148.5t184.5 54.5q211 0 259 -181l-95 -23q-19 66 -61 94t-106 28q-70 0 -108 -31t-38 -79
q0 -38 24.5 -61t61 -34.5t100.5 -25.5q80 -17 129 -34.5t84 -57t35 -106.5q0 -96 -72 -152t-196 -56q-112 0 -190.5 51zM375 932h137l-168 -160h-55z" />
    <glyph glyph-name="sacute" unicode="&#x15b;" horiz-adv-x="521" 
d="M120 29.5q-65 39.5 -87 121.5l95 23q30 -111 148 -111q53 0 83 21t30 58q0 28 -18 44t-45.5 24t-74.5 16q-64 12 -104.5 25.5t-69 46t-28.5 90.5q0 46 25.5 81t71.5 54.5t105 19.5q81 0 136.5 -34.5t74.5 -105.5l-88 -20q-21 88 -123 88q-48 0 -77 -21t-29 -56
q0 -28 18 -44t45 -24t74 -16q63 -12 102.5 -25t67.5 -45.5t28 -90.5q0 -74 -58 -116.5t-151 -42.5q-86 0 -151 39.5zM309 772h137l-168 -160h-55z" />
    <glyph glyph-name="Scedilla" unicode="&#x15e;" horiz-adv-x="633" 
d="M530 48q-70 -56 -191 -57l-14 -55h5q40 0 67.5 -25.5t27.5 -63.5q0 -39 -29.5 -64.5t-73.5 -25.5q-46 0 -77.5 27t-36.5 69l60 8q3 -24 16.5 -37t33.5 -13q18 0 30 10t12 26q0 19 -14.5 29.5t-43.5 10.5h-24l-15 31l25 75q-96 9 -162 60t-89 147l98 25q19 -79 73 -115.5
t129 -36.5q74 0 116 32.5t42 81.5q0 37 -24 59t-60.5 34t-98.5 26q-80 18 -129.5 36t-84.5 57.5t-35 107.5q0 94 67.5 148.5t184.5 54.5q211 0 259 -181l-95 -23q-19 66 -61 94t-106 28q-70 0 -108 -31t-38 -79q0 -38 24.5 -61t61 -34.5t100.5 -25.5q80 -17 129 -34.5
t84 -57t35 -106.5q0 -95 -70 -151z" />
    <glyph glyph-name="scedilla" unicode="&#x15f;" horiz-adv-x="521" 
d="M426 35.5q-54 -42.5 -141 -45.5l-14 -54h5q41 0 68.5 -25.5t27.5 -63.5q0 -39 -30 -64.5t-74 -25.5q-46 0 -77.5 27t-36.5 69l60 8q3 -24 16.5 -37t33.5 -13q18 0 30.5 10t12.5 26q0 19 -15 29.5t-44 10.5h-23l-15 31l25 74q-74 7 -128.5 46.5t-73.5 112.5l95 23
q30 -111 148 -111q53 0 83 21t30 58q0 28 -18 44t-45.5 24t-74.5 16q-64 12 -104.5 25.5t-69 46t-28.5 90.5q0 46 25.5 81t71.5 54.5t105 19.5q81 0 136.5 -34.5t74.5 -105.5l-88 -20q-21 88 -123 88q-48 0 -77 -21t-29 -56q0 -28 18 -44t45 -24t74 -16q63 -12 102.5 -25
t67.5 -45.5t28 -90.5q0 -71 -54 -113.5z" />
    <glyph glyph-name="Scaron" unicode="&#x160;" horiz-adv-x="633" 
d="M141.5 42q-78.5 51 -104.5 158l98 25q19 -79 73 -115.5t129 -36.5q74 0 116 32.5t42 81.5q0 37 -24 59t-60.5 34t-98.5 26q-80 18 -129.5 36t-84.5 57.5t-35 107.5q0 94 67.5 148.5t184.5 54.5q211 0 259 -181l-95 -23q-19 66 -61 94t-106 28q-70 0 -108 -31t-38 -79
q0 -38 24.5 -61t61 -34.5t100.5 -25.5q80 -17 129 -34.5t84 -57t35 -106.5q0 -96 -72 -152t-196 -56q-112 0 -190.5 51zM368 772h-104l-108 160h58l102 -103l105 103h54z" />
    <glyph glyph-name="scaron" unicode="&#x161;" horiz-adv-x="521" 
d="M120 29.5q-65 39.5 -87 121.5l95 23q30 -111 148 -111q53 0 83 21t30 58q0 28 -18 44t-45.5 24t-74.5 16q-64 12 -104.5 25.5t-69 46t-28.5 90.5q0 46 25.5 81t71.5 54.5t105 19.5q81 0 136.5 -34.5t74.5 -105.5l-88 -20q-21 88 -123 88q-48 0 -77 -21t-29 -56
q0 -28 18 -44t45 -24t74 -16q63 -12 102.5 -25t67.5 -45.5t28 -90.5q0 -74 -58 -116.5t-151 -42.5q-86 0 -151 39.5zM314 612h-104l-108 160h58l102 -103l105 103h54z" />
    <glyph glyph-name="uni0162" unicode="&#x162;" horiz-adv-x="623" 
d="M336 0l-16 -64h5q41 0 68.5 -25.5t27.5 -63.5q0 -39 -30 -64.5t-74 -25.5q-46 0 -77.5 27t-36.5 69l60 8q3 -24 16.5 -37t33.5 -13q18 0 30.5 10t12.5 26q0 19 -15 29.5t-44 10.5h-23l-15 31l27 82h-26v616h-230v84h563v-84h-230v-616h-27z" />
    <glyph glyph-name="uni0163" unicode="&#x163;" horiz-adv-x="360" 
d="M316.5 -89.5q27.5 -25.5 27.5 -63.5q0 -39 -29.5 -64.5t-73.5 -25.5q-46 0 -77.5 27t-36.5 69l60 8q3 -24 16.5 -37t33.5 -13q18 0 30 10t12 26q0 19 -14.5 29.5t-43.5 10.5h-24l-15 31l26 78q-54 12 -80.5 52t-26.5 113v295h-84v77h84v167h99v-167h129v-77h-129v-294
q0 -54 15.5 -75.5t53.5 -21.5q29 0 54 14l21 -74q-32 -15 -78 -15h-8l-14 -54h5q40 0 67.5 -25.5z" />
    <glyph glyph-name="Tcaron" unicode="&#x164;" horiz-adv-x="623" 
d="M593 616h-230v-616h-103v616h-230v84h563v-84zM364 772h-104l-108 160h58l102 -103l105 103h54z" />
    <glyph glyph-name="tcaron" unicode="&#x165;" horiz-adv-x="360" 
d="M344 5q-32 -15 -78 -15q-84 0 -124.5 40.5t-40.5 130.5v295h-84v77h84v167h99v-167h129v-77h-129v-294q0 -54 15.5 -75.5t53.5 -21.5q29 0 54 14zM254 742h94l-47 -160h-47v160z" />
    <glyph glyph-name="Tbar" unicode="&#x166;" horiz-adv-x="623" 
d="M363 616v-230h122v-73h-122v-313h-103v313h-123v73h123v230h-230v84h563v-84h-230z" />
    <glyph glyph-name="tbar" unicode="&#x167;" horiz-adv-x="360" 
d="M344 5q-32 -15 -78 -15q-84 0 -124.5 40.5t-40.5 130.5v94h-78v68h78v133h-84v77h84v167h99v-167h129v-77h-129v-133h112v-68h-112v-93q0 -54 15.5 -75.5t53.5 -21.5q29 0 54 14z" />
    <glyph glyph-name="Umacron" unicode="&#x16a;" horiz-adv-x="730" 
d="M653 700v-427q0 -143 -77 -213t-211 -70t-211 70t-77 213v427h102v-424q0 -100 51 -148.5t135 -48.5t135 48.5t51 148.5v424h102zM505 897v-69h-280v69h280z" />
    <glyph glyph-name="umacron" unicode="&#x16b;" horiz-adv-x="585" 
d="M510 533v-533h-96v84q-29 -46 -73.5 -70t-98.5 -24q-80 0 -127.5 52t-47.5 142v349h98v-345q0 -56 29 -86t81 -30q41 0 77.5 22.5t59.5 61.5v377h98zM433 730v-68h-280v68h280z" />
    <glyph glyph-name="Uring" unicode="&#x16e;" horiz-adv-x="730" 
d="M653 700v-427q0 -143 -77 -213t-211 -70t-211 70t-77 213v427h102v-424q0 -100 51 -148.5t135 -48.5t135 48.5t51 148.5v424h102zM292.5 795.5q-29.5 27.5 -29.5 69.5t29.5 69t72.5 27t72.5 -27t29.5 -69t-29.5 -69.5t-72.5 -27.5t-72.5 27.5zM399.5 831q13.5 13 13.5 34
q0 20 -14 33t-34 13t-33.5 -13t-13.5 -33q0 -21 13.5 -34t33.5 -13q21 0 34.5 13z" />
    <glyph glyph-name="uring" unicode="&#x16f;" horiz-adv-x="585" 
d="M510 533v-533h-96v84q-29 -46 -73.5 -70t-98.5 -24q-80 0 -127.5 52t-47.5 142v349h98v-345q0 -56 29 -86t81 -30q41 0 77.5 22.5t59.5 61.5v377h98zM220.5 630q-29.5 27 -29.5 69t29.5 69t72.5 27t72.5 -27t29.5 -69t-29.5 -69t-72.5 -27t-72.5 27zM327.5 665
q13.5 13 13.5 34t-13.5 34t-34.5 13q-20 0 -33.5 -13t-13.5 -34t13.5 -34t33.5 -13q21 0 34.5 13z" />
    <glyph glyph-name="Uhungarumlaut" unicode="&#x170;" horiz-adv-x="730" 
d="M653 700v-427q0 -143 -77 -213t-211 -70t-211 70t-77 213v427h102v-424q0 -100 51 -148.5t135 -48.5t135 48.5t51 148.5v424h102zM305 932h120l-118 -160h-54zM477 932h120l-118 -160h-54z" />
    <glyph glyph-name="uhungarumlaut" unicode="&#x171;" horiz-adv-x="585" 
d="M510 533v-533h-96v84q-29 -46 -73.5 -70t-98.5 -24q-80 0 -127.5 52t-47.5 142v349h98v-345q0 -56 29 -86t81 -30q41 0 77.5 22.5t59.5 61.5v377h98zM233 772h120l-118 -160h-54zM405 772h120l-118 -160h-54z" />
    <glyph glyph-name="Uogonek" unicode="&#x172;" horiz-adv-x="730" 
d="M653 700v-427q0 -118 -52.5 -186t-147.5 -88q-44 -31 -59 -45.5t-15 -36.5q0 -17 12 -27t32 -10q12 0 28.5 3t27.5 7v-70q-33 -11 -72 -11q-54 0 -83 24.5t-29 61.5q0 53 73 95h-3q-134 0 -211 70t-77 213v427h102v-424q0 -100 51 -148.5t135 -48.5t135 48.5t51 148.5
v424h102z" />
    <glyph glyph-name="uogonek" unicode="&#x173;" horiz-adv-x="585" 
d="M424 -45.5q-16 -15.5 -16 -37.5q0 -17 12 -27t32 -10q12 0 28.5 3t27.5 7v-70q-33 -11 -72 -11q-54 0 -83 24.5t-29 61.5q0 58 91 105h-1v84q-29 -46 -73.5 -70t-98.5 -24q-80 0 -127.5 52t-47.5 142v349h98v-345q0 -56 29 -86t81 -30q41 0 77.5 22.5t59.5 61.5v377h98
v-533h-26q-44 -30 -60 -45.5z" />
    <glyph glyph-name="Wcircumflex" unicode="&#x174;" horiz-adv-x="965" 
d="M957 700l-166 -700h-145l-163 566l-164 -566h-145l-166 700h109l135 -623l160 623h141l160 -623l135 623h109zM579 772l-98 102l-98 -102h-62l108 160h104l107 -160h-61z" />
    <glyph glyph-name="wcircumflex" unicode="&#x175;" horiz-adv-x="773" 
d="M760 533l-143 -533h-111l-118 416l-115 -416h-116l-144 533h101l101 -445l115 445h119l115 -443l96 443h100zM485 612l-98 102l-98 -102h-62l108 160h104l107 -160h-61z" />
    <glyph glyph-name="Ycircumflex" unicode="&#x176;" horiz-adv-x="629" 
d="M620 700l-254 -416v-284h-104v283l-254 417h120l188 -354l188 354h116zM411 772l-98 102l-98 -102h-62l108 160h104l107 -160h-61z" />
    <glyph glyph-name="ycircumflex" unicode="&#x177;" horiz-adv-x="504" 
d="M496 533l-200 -544q-29 -79 -78.5 -118t-121.5 -39q-10 0 -28 2l-18 82q21 -5 48 -5q39 0 60 16.5t45 60.5l5 10l-200 535h112l134 -427l135 427h107zM356 612l-98 102l-98 -102h-62l108 160h104l107 -160h-61z" />
    <glyph glyph-name="Ydieresis" unicode="&#x178;" horiz-adv-x="629" 
d="M620 700l-254 -416v-284h-104v283l-254 417h120l188 -354l188 354h116zM169 807q-17 17 -17 45t17 45t46 17t46.5 -17t17.5 -45t-17.5 -45t-46.5 -17t-46 17zM366.5 807q-17.5 17 -17.5 45t17.5 45t46.5 17t46 -17t17 -45t-17 -45t-46 -17t-46.5 17z" />
    <glyph glyph-name="Zacute" unicode="&#x179;" horiz-adv-x="641" 
d="M602 80v-80h-560v71l428 549h-422v80h542v-74l-422 -546h434zM380 932h137l-168 -160h-55z" />
    <glyph glyph-name="zacute" unicode="&#x17a;" horiz-adv-x="501" 
d="M463 79v-79h-426v66l310 389h-303v78h411v-73l-298 -381h306zM296 772h137l-168 -160h-55z" />
    <glyph glyph-name="Zdotaccent" unicode="&#x17b;" horiz-adv-x="641" 
d="M602 80v-80h-560v71l428 549h-422v80h542v-74l-422 -546h434zM274 807q-18 17 -18 46t18 46t47 17t47 -17t18 -46t-18 -46t-47 -17t-47 17z" />
    <glyph glyph-name="zdotaccent" unicode="&#x17c;" horiz-adv-x="501" 
d="M463 79v-79h-426v66l310 389h-303v78h411v-73l-298 -381h306zM203 647q-18 17 -18 46t18 46t47 17t47 -17t18 -46t-18 -46t-47 -17t-47 17z" />
    <glyph glyph-name="Zcaron" unicode="&#x17d;" horiz-adv-x="641" 
d="M602 80v-80h-560v71l428 549h-422v80h542v-74l-422 -546h434zM373 772h-104l-108 160h58l102 -103l105 103h54z" />
    <glyph glyph-name="zcaron" unicode="&#x17e;" horiz-adv-x="501" 
d="M463 79v-79h-426v66l310 389h-303v78h411v-73l-298 -381h306zM301 612h-104l-108 160h58l102 -103l105 103h54z" />
    <glyph glyph-name="uni0218" unicode="&#x218;" horiz-adv-x="633" 
d="M141.5 42q-78.5 51 -104.5 158l98 25q19 -79 73 -115.5t129 -36.5q74 0 116 32.5t42 81.5q0 37 -24 59t-60.5 34t-98.5 26q-80 18 -129.5 36t-84.5 57.5t-35 107.5q0 94 67.5 148.5t184.5 54.5q211 0 259 -181l-95 -23q-19 66 -61 94t-106 28q-70 0 -108 -31t-38 -79
q0 -38 24.5 -61t61 -34.5t100.5 -25.5q80 -17 129 -34.5t84 -57t35 -106.5q0 -96 -72 -152t-196 -56q-112 0 -190.5 51zM355.5 -83q14.5 -18 14.5 -60q0 -120 -122 -130l-7 30q48 7 67.5 23.5t20.5 55.5q-4 -1 -12 -1q-24 0 -39 13.5t-15 36.5q0 22 13.5 36t38.5 14
q26 0 40.5 -18z" />
    <glyph glyph-name="uni0219" unicode="&#x219;" horiz-adv-x="521" 
d="M120 29.5q-65 39.5 -87 121.5l95 23q30 -111 148 -111q53 0 83 21t30 58q0 28 -18 44t-45.5 24t-74.5 16q-64 12 -104.5 25.5t-69 46t-28.5 90.5q0 46 25.5 81t71.5 54.5t105 19.5q81 0 136.5 -34.5t74.5 -105.5l-88 -20q-21 88 -123 88q-48 0 -77 -21t-29 -56
q0 -28 18 -44t45 -24t74 -16q63 -12 102.5 -25t67.5 -45.5t28 -90.5q0 -74 -58 -116.5t-151 -42.5q-86 0 -151 39.5zM301.5 -83q14.5 -18 14.5 -60q0 -120 -122 -130l-7 30q48 7 67.5 23.5t20.5 55.5q-4 -1 -12 -1q-24 0 -39 13.5t-15 36.5q0 22 13.5 36t38.5 14
q26 0 40.5 -18z" />
    <glyph glyph-name="uni021A" unicode="&#x21a;" horiz-adv-x="623" 
d="M593 616h-230v-616h-103v616h-230v84h563v-84zM350.5 -83q14.5 -18 14.5 -60q0 -120 -122 -130l-7 30q48 7 67.5 23.5t20.5 55.5q-4 -1 -12 -1q-24 0 -39 13.5t-15 36.5q0 22 13.5 36t38.5 14q26 0 40.5 -18z" />
    <glyph glyph-name="uni021B" unicode="&#x21b;" horiz-adv-x="360" 
d="M344 5q-32 -15 -78 -15q-84 0 -124.5 40.5t-40.5 130.5v295h-84v77h84v167h99v-167h129v-77h-129v-294q0 -54 15.5 -75.5t53.5 -21.5q29 0 54 14zM274.5 -83q14.5 -18 14.5 -60q0 -120 -122 -130l-7 30q48 7 67.5 23.5t20.5 55.5q-4 -1 -12 -1q-24 0 -39 13.5t-15 36.5
q0 22 13.5 36t38.5 14q26 0 40.5 -18z" />
    <glyph glyph-name="uni0237" unicode="&#x237;" horiz-adv-x="247" 
d="M172 533v-502q0 -101 -45 -151t-123 -50q-11 0 -31 2l-14 79q12 -5 31 -5q45 0 64.5 24.5t19.5 89.5v513h98z" />
    <glyph glyph-name="gravecomb" unicode="&#x300;" horiz-adv-x="0" 
d="M-313 612l-171 160h137l90 -160h-56z" />
    <glyph glyph-name="acutecomb" unicode="&#x301;" horiz-adv-x="0" 
d="M-254 772h137l-168 -160h-55z" />
    <glyph glyph-name="uni0302" unicode="&#x302;" horiz-adv-x="0" 
d="M-202 612l-98 102l-98 -102h-62l108 160h104l107 -160h-61z" />
    <glyph glyph-name="tildecomb" unicode="&#x303;" horiz-adv-x="0" 
d="M-275 649q-14 7 -31 19q-14 9 -22 13.5t-19 4.5q-31 0 -33 -39h-72q1 53 27.5 78.5t67.5 25.5q21 0 35 -6.5t30 -18.5q2 -1 10 -7t15.5 -8.5t14.5 -2.5q33 0 35 38h70q0 -53 -25 -78.5t-68 -25.5q-21 0 -35 7z" />
    <glyph glyph-name="uni0304" unicode="&#x304;" horiz-adv-x="0" 
d="M-160 730v-68h-280v68h280z" />
    <glyph glyph-name="uni0306" unicode="&#x306;" horiz-adv-x="0" 
d="M-398 662.5q-39 36.5 -40 99.5h74q0 -37 18 -56.5t49 -19.5q33 0 52 19.5t19 56.5h74q-1 -63 -41.5 -99.5t-103.5 -36.5q-62 0 -101 36.5z" />
    <glyph glyph-name="uni0307" unicode="&#x307;" horiz-adv-x="0" 
d="M-347 647q-18 17 -18 46t18 46t47 17t47 -17t18 -46t-18 -46t-47 -17t-47 17z" />
    <glyph glyph-name="uni0308" unicode="&#x308;" horiz-adv-x="0" 
d="M-445 648q-17 17 -17 45q0 29 17 45.5t46 16.5t46.5 -16.5t17.5 -45.5q0 -28 -17.5 -45t-46.5 -17t-46 17zM-247.5 648q-17.5 17 -17.5 45q0 29 17.5 45.5t46.5 16.5t46 -16.5t17 -45.5q0 -28 -17 -45t-46 -17t-46.5 17z" />
    <glyph glyph-name="uni030A" unicode="&#x30a;" horiz-adv-x="0" 
d="M-372.5 630q-29.5 27 -29.5 69t29.5 69t72.5 27t72.5 -27t29.5 -69t-29.5 -69t-72.5 -27t-72.5 27zM-265.5 665q13.5 13 13.5 34t-13.5 34t-34.5 13q-20 0 -33.5 -13t-13.5 -34t13.5 -34t33.5 -13q21 0 34.5 13z" />
    <glyph glyph-name="uni030B" unicode="&#x30b;" horiz-adv-x="0" 
d="M-360 772h120l-118 -160h-54zM-188 772h120l-118 -160h-54z" />
    <glyph glyph-name="uni030C" unicode="&#x30c;" horiz-adv-x="0" 
d="M-249 612h-104l-108 160h58l102 -103l105 103h54z" />
    <glyph glyph-name="uni0312" unicode="&#x312;" horiz-adv-x="0" 
d="M-264 725.5q15 -13.5 15 -36.5t-13.5 -36.5t-38.5 -13.5q-55 0 -55 78q2 120 123 130l5 -31q-47 -6 -66.5 -21.5t-19.5 -56.5q3 1 11 1q24 0 39 -13.5z" />
    <glyph glyph-name="uni0326" unicode="&#x326;" horiz-adv-x="0" 
d="M-262.5 -83q14.5 -18 14.5 -60q0 -120 -122 -130l-7 30q48 7 67.5 23.5t20.5 55.5q-4 -1 -12 -1q-24 0 -39 13.5t-15 36.5q0 22 13.5 36t38.5 14q26 0 40.5 -18z" />
    <glyph glyph-name="uni0327" unicode="&#x327;" horiz-adv-x="0" 
d="M-324 8h50l-19 -72h5q41 0 68.5 -25.5t27.5 -63.5q0 -39 -29.5 -64.5t-73.5 -25.5q-46 0 -77.5 27t-36.5 69l60 8q2 -24 15.5 -37t34.5 -13q18 0 30 10t12 26q0 19 -15 29.5t-43 10.5h-24l-15 31z" />
    <glyph glyph-name="uni0328" unicode="&#x328;" horiz-adv-x="0" 
d="M-243 25l11 -25q-44 -30 -60 -45.5t-16 -37.5q0 -17 12 -27t32 -10q12 0 28.5 3t27.5 7v-70q-33 -11 -72 -11q-54 0 -83 24.5t-29 61.5q0 75 149 130z" />
    <glyph glyph-name="uni0335" unicode="&#x335;" horiz-adv-x="0" 
d="M-125 389v-73h-349v73h349z" />
    <glyph glyph-name="uni0336" unicode="&#x336;" horiz-adv-x="0" 
d="M17 383v-61h-634v61h634z" />
    <glyph glyph-name="uni0337" unicode="&#x337;" horiz-adv-x="0" 
d="M-316 290l221 278l52 -44l-230 -272l-224 -280l-52 43z" />
    <glyph glyph-name="uni0338" unicode="&#x338;" horiz-adv-x="0" 
d="M-335 359l318 377l55 -48l-311 -354l-309 -367l-55 48z" />
    <glyph glyph-name="Wgrave" unicode="&#x1e80;" horiz-adv-x="965" 
d="M957 700l-166 -700h-145l-163 566l-164 -566h-145l-166 700h109l135 -623l160 623h141l160 -623l135 623h109zM482 772l-171 160h138l90 -160h-57z" />
    <glyph glyph-name="wgrave" unicode="&#x1e81;" horiz-adv-x="773" 
d="M760 533l-143 -533h-111l-118 416l-115 -416h-116l-144 533h101l101 -445l115 445h119l115 -443l96 443h100zM374 612l-171 160h137l90 -160h-56z" />
    <glyph glyph-name="Wacute" unicode="&#x1e82;" horiz-adv-x="965" 
d="M957 700l-166 -700h-145l-163 566l-164 -566h-145l-166 700h109l135 -623l160 623h141l160 -623l135 623h109zM541 932h137l-168 -160h-55z" />
    <glyph glyph-name="wacute" unicode="&#x1e83;" horiz-adv-x="773" 
d="M760 533l-143 -533h-111l-118 416l-115 -416h-116l-144 533h101l101 -445l115 445h119l115 -443l96 443h100zM433 772h137l-168 -160h-55z" />
    <glyph glyph-name="Wdieresis" unicode="&#x1e84;" horiz-adv-x="965" 
d="M957 700l-166 -700h-145l-163 566l-164 -566h-145l-166 700h109l135 -623l160 623h141l160 -623l135 623h109zM337 807q-17 17 -17 45t17 45t46 17t46.5 -17t17.5 -45t-17.5 -45t-46.5 -17t-46 17zM534.5 807q-17.5 17 -17.5 45t17.5 45t46.5 17t46 -17t17 -45t-17 -45
t-46 -17t-46.5 17z" />
    <glyph glyph-name="wdieresis" unicode="&#x1e85;" horiz-adv-x="773" 
d="M760 533l-143 -533h-111l-118 416l-115 -416h-116l-144 533h101l101 -445l115 445h119l115 -443l96 443h100zM242 648q-17 17 -17 45q0 29 17 45.5t46 16.5t46.5 -16.5t17.5 -45.5q0 -28 -17.5 -45t-46.5 -17t-46 17zM439.5 648q-17.5 17 -17.5 45q0 29 17.5 45.5
t46.5 16.5t46 -16.5t17 -45.5q0 -28 -17 -45t-46 -17t-46.5 17z" />
    <glyph glyph-name="uni1E9E" unicode="&#x1e9e;" horiz-adv-x="733" 
d="M491.5 410.5q21.5 -21.5 68.5 -52.5q42 -27 68 -48.5t44.5 -55.5t18.5 -81q0 -84 -59 -133.5t-162 -49.5q-90 0 -144.5 38.5t-67.5 105.5l92 23q6 -41 37.5 -65t82.5 -24q54 0 85.5 27.5t31.5 71.5q0 40 -24 65t-72 56q-38 25 -60 43.5t-38 46.5t-16 68q0 45 23.5 89.5
t79.5 76.5h-123q-86 0 -128.5 -50t-42.5 -139v-423h-101v424q0 276 267 276h271v-85q-57 -13 -91.5 -40t-48 -56.5t-13.5 -53.5q0 -33 21.5 -54.5z" />
    <glyph glyph-name="Ygrave" unicode="&#x1ef2;" horiz-adv-x="629" 
d="M620 700l-254 -416v-284h-104v283l-254 417h120l188 -354l188 354h116zM314 772l-171 160h138l90 -160h-57z" />
    <glyph glyph-name="ygrave" unicode="&#x1ef3;" horiz-adv-x="504" 
d="M496 533l-200 -544q-29 -79 -78.5 -118t-121.5 -39q-10 0 -28 2l-18 82q21 -5 48 -5q39 0 60 16.5t45 60.5l5 10l-200 535h112l134 -427l135 427h107zM245 612l-171 160h137l90 -160h-56z" />
    <glyph glyph-name="uni2009" unicode="&#x2009;" horiz-adv-x="120" 
 />
    <glyph glyph-name="endash" unicode="&#x2013;" 
d="M35 318h530v-74l-530 -1v75z" />
    <glyph glyph-name="emdash" unicode="&#x2014;" horiz-adv-x="1068" 
d="M35 318h998v-74l-998 -1v75z" />
    <glyph glyph-name="quoteleft" unicode="&#x2018;" horiz-adv-x="265" 
d="M183.5 560.5q15.5 -16.5 15.5 -43.5q0 -28 -16.5 -45t-46.5 -17q-33 0 -50.5 20t-17.5 61q0 49 30 95t78 75l31 -35q-28 -23 -44.5 -44.5t-21.5 -47.5q27 -2 42.5 -18.5z" />
    <glyph glyph-name="quoteright" unicode="&#x2019;" horiz-adv-x="265" 
d="M179.5 685q17.5 -20 17.5 -61q0 -49 -30 -95t-78 -75l-31 35q28 23 44.5 44.5t21.5 47.5q-27 2 -42.5 18.5t-15.5 43.5q0 28 16.5 45t46.5 17q33 0 50.5 -20z" />
    <glyph glyph-name="quotesinglbase" unicode="&#x201a;" horiz-adv-x="265" 
d="M179.5 101q17.5 -20 17.5 -61q0 -49 -30 -95t-78 -75l-31 35q28 23 44.5 44.5t21.5 47.5q-27 2 -42.5 18.5t-15.5 43.5q0 28 16.5 45t46.5 17q33 0 50.5 -20z" />
    <glyph glyph-name="quotedblleft" unicode="&#x201c;" horiz-adv-x="440" 
d="M162.5 626.5q-16.5 -21.5 -21.5 -47.5q27 -2 42.5 -18.5t15.5 -43.5q0 -28 -16.5 -45t-46.5 -17q-33 0 -50.5 20t-17.5 61q0 49 30 95t78 75l31 -35q-28 -23 -44.5 -44.5zM358.5 560.5q15.5 -16.5 15.5 -43.5q0 -28 -16.5 -45t-45.5 -17q-69 0 -69 81q0 49 30 95t79 75
l30 -35q-28 -23 -44.5 -44.5t-21.5 -47.5q27 -2 42.5 -18.5z" />
    <glyph glyph-name="quotedblright" unicode="&#x201d;" horiz-adv-x="440" 
d="M179.5 685q17.5 -20 17.5 -61q0 -49 -30 -95t-78 -75l-31 35q28 23 44.5 44.5t21.5 47.5q-27 2 -42.5 18.5t-15.5 43.5q0 28 16.5 45t46.5 17q33 0 50.5 -20zM354.5 685q17.5 -20 17.5 -61q0 -49 -30 -95t-78 -75l-31 35q28 23 44.5 44.5t21.5 47.5q-27 2 -42.5 18.5
t-15.5 43.5q0 28 16.5 45t46.5 17q33 0 50.5 -20z" />
    <glyph glyph-name="quotedblbase" unicode="&#x201e;" horiz-adv-x="440" 
d="M179.5 101q17.5 -20 17.5 -61q0 -49 -30 -95t-78 -75l-31 35q28 23 44.5 44.5t21.5 47.5q-27 2 -42.5 18.5t-15.5 43.5q0 28 16.5 45t46.5 17q33 0 50.5 -20zM354.5 101q17.5 -20 17.5 -61q0 -49 -30 -95t-78 -75l-31 35q28 23 44.5 44.5t21.5 47.5q-27 2 -42.5 18.5
t-15.5 43.5q0 28 16.5 45t46.5 17q33 0 50.5 -20z" />
    <glyph glyph-name="dagger" unicode="&#x2020;" horiz-adv-x="360" 
d="M333 553h-121v-301h-65v301h-120v60h120v127h65v-127h121v-60z" />
    <glyph glyph-name="daggerdbl" unicode="&#x2021;" horiz-adv-x="360" 
d="M212 553v-114h121v-59h-121v-128h-65v128h-120v59h120v114h-120v60h120v127h65v-127h121v-60h-121z" />
    <glyph glyph-name="bullet" unicode="&#x2022;" horiz-adv-x="421" 
d="M348 196h-275v275h275v-275z" />
    <glyph glyph-name="ellipsis" unicode="&#x2026;" horiz-adv-x="743" 
d="M325 12q-18 17 -18 46t18 46t47 17t46.5 -17t17.5 -46t-17.5 -46t-46.5 -17t-47 17zM559 12q-18 17 -18 46t18 46t47 17t46.5 -17t17.5 -46t-17.5 -46t-46.5 -17t-47 17zM91 12q-18 17 -18 46t18 46t47 17t46.5 -17t17.5 -46t-17.5 -46t-46.5 -17t-47 17z" />
    <glyph glyph-name="perthousand" unicode="&#x2030;" horiz-adv-x="1379" 
d="M382 657q50 -53 50 -140q0 -88 -50 -141t-134 -53t-133.5 53t-49.5 141q0 87 49.5 140t133.5 53t134 -53zM444 360l203 340h80l-232 -363l-201 -337h-80zM324 419.5q27 34.5 27 97.5t-27 97t-76 34t-76 -34t-27 -97t27.5 -97.5t75.5 -34.5q49 0 76 34.5zM841 324
q50 -53 50 -140q0 -88 -50 -141t-134 -53t-133.5 53t-49.5 141q0 87 49.5 140t133.5 53t134 -53zM1265 324q50 -53 50 -141q0 -87 -50 -140t-134 -53t-134 53t-50 140q0 88 50 141t134 53t134 -53zM783 86.5q27 34.5 27 97.5t-27 97t-76 34t-76 -34t-27 -97t27.5 -97.5
t75.5 -34.5q49 0 76 34.5zM1207 86q27 34 27 97q0 64 -27 98t-76 34t-76.5 -34t-27.5 -98q0 -63 27.5 -97t76.5 -34t76 34z" />
    <glyph glyph-name="guilsinglleft" unicode="&#x2039;" horiz-adv-x="327" 
d="M179 479h89q-25 -94 -140 -188q115 -94 140 -188h-89q-23 89 -124 177v22q101 88 124 177z" />
    <glyph glyph-name="guilsinglright" unicode="&#x203a;" horiz-adv-x="327" 
d="M272 280q-101 -88 -124 -177h-90q25 93 141 188q-116 95 -141 188h90q23 -89 124 -177v-22z" />
    <glyph glyph-name="fraction" unicode="&#x2044;" horiz-adv-x="214" 
d="M80 360l204 340h80l-233 -363l-200 -337h-81z" />
    <glyph glyph-name="uni2070" unicode="&#x2070;" horiz-adv-x="411" 
d="M337 750q46 -60 46 -171q0 -110 -46 -169.5t-131 -59.5q-86 0 -132 59.5t-46 169.5q0 112 46 171.5t132 59.5q85 0 131 -60zM134 699q-23 -38 -23 -119t23 -119t72 -38t72 38t23 119t-23 119t-72 38t-72 -38z" />
    <glyph glyph-name="uni2074" unicode="&#x2074;" horiz-adv-x="406" 
d="M374 457h-57v-105h-80l1 105h-230v52l204 291h105v-281h57v-62zM239 519v223l-153 -223h153z" />
    <glyph glyph-name="uni2075" unicode="&#x2075;" horiz-adv-x="392" 
d="M331 605.5q39 -39.5 39 -105.5q0 -70 -47 -112t-124 -42q-68 0 -114 33t-59 90l77 19q8 -37 33 -57t64 -20q42 0 66 23.5t24 65.5q0 40 -22 62.5t-61 22.5q-55 0 -90 -52l-76 16q32 113 33 251l1 -1v1h277v-63h-214q-3 -74 -21 -149q15 25 43 41t69 16q63 0 102 -39.5z
" />
    <glyph glyph-name="uni2076" unicode="&#x2076;" horiz-adv-x="405" 
d="M336 606.5q41 -40.5 41 -106.5q0 -68 -45.5 -109t-121.5 -41q-91 0 -136.5 59.5t-45.5 162.5q0 112 49.5 175t137.5 63q53 0 95.5 -26t59.5 -76l-74 -20q-19 62 -83 62q-106 0 -107 -168q45 65 124 65q65 0 106 -40.5zM275 435q24 25 24 67t-23.5 65.5t-63.5 23.5
q-59 0 -103 -62q8 -63 35 -91t67 -28t64 25z" />
    <glyph glyph-name="uni2077" unicode="&#x2077;" horiz-adv-x="344" 
d="M345 736q-60 -62 -93.5 -113t-48.5 -106.5t-15 -130.5l1 -34h-93q1 114 41 209.5t142 175.5h-268v63h334v-64z" />
    <glyph glyph-name="uni2078" unicode="&#x2078;" horiz-adv-x="393" 
d="M342.5 551q27.5 -31 27.5 -74q0 -58 -47.5 -92.5t-125.5 -34.5t-125.5 34.5t-47.5 92.5q0 43 27 74t85 42q-97 22 -97 101q0 53 43.5 84.5t114.5 31.5q72 0 115.5 -31.5t43.5 -84.5q0 -36 -24 -63t-74 -38q57 -11 84.5 -42zM138 642q23 -18 59 -18t58.5 18t22.5 47
t-22 46.5t-59 17.5t-59.5 -17.5t-22.5 -46.5t23 -47zM265.5 428q25.5 20 25.5 54q0 32 -26 52.5t-68 20.5t-68 -20.5t-26 -52.5q0 -34 25.5 -54t68.5 -20t68.5 20z" />
    <glyph glyph-name="uni2079" unicode="&#x2079;" horiz-adv-x="405" 
d="M331.5 751q45.5 -59 45.5 -163q0 -112 -49.5 -175t-137.5 -63q-53 0 -95.5 26t-60.5 77l75 19q18 -61 83 -61q105 0 106 166q-45 -64 -124 -64q-65 0 -106 40.5t-41 106.5q0 68 46 109t122 41q91 0 136.5 -59zM295 630q-15 120 -102 120q-39 0 -63 -24.5t-24 -66.5
t23.5 -66t63.5 -24q57 0 102 61z" />
    <glyph glyph-name="uni2080" unicode="&#x2080;" horiz-adv-x="411" 
d="M337 250q46 -60 46 -171q0 -110 -46 -169.5t-131 -59.5q-86 0 -132 59.5t-46 169.5q0 112 46 171.5t132 59.5q85 0 131 -60zM134 199q-23 -38 -23 -119t23 -119t72 -38t72 38t23 119t-23 119t-72 38t-72 -38z" />
    <glyph glyph-name="uni2081" unicode="&#x2081;" horiz-adv-x="285" 
d="M219 300v-448h-78v382q-24 -50 -99 -84l-31 66q56 20 88 39.5t54 44.5h66z" />
    <glyph glyph-name="uni2082" unicode="&#x2082;" horiz-adv-x="380" 
d="M364 -79v-65h-336v55l127 99q63 50 91 84.5t28 73.5q0 37 -23 57.5t-59 20.5t-61 -21.5t-25 -63.5q0 -15 5 -40h-81q-3 20 -3 37q0 73 47 112.5t120 39.5q74 0 118 -38t44 -101q0 -52 -40 -102t-138 -113l-54 -35h240z" />
    <glyph glyph-name="uni2083" unicode="&#x2083;" horiz-adv-x="408" 
d="M352 49q29 -28 29 -72q0 -57 -47 -92t-123 -35q-78 0 -127 36.5t-60 101.5l79 14q6 -45 34.5 -67t71.5 -22q41 0 65 19t24 51q0 33 -25.5 52.5t-74.5 19.5h-32l-1 58h38q39 0 62 18t23 50q0 29 -21.5 47.5t-56.5 18.5q-37 0 -62 -20t-30 -60l-77 15q8 61 53 94.5
t115 33.5q72 0 115 -33t43 -87q0 -41 -25 -68t-71 -36q52 -9 81 -37z" />
    <glyph glyph-name="uni2084" unicode="&#x2084;" horiz-adv-x="406" 
d="M374 -43h-57v-105h-80l1 105h-230v52l204 291h105v-281h57v-62zM239 19v223l-153 -223h153z" />
    <glyph glyph-name="uni2085" unicode="&#x2085;" horiz-adv-x="392" 
d="M331 105.5q39 -39.5 39 -105.5q0 -70 -47 -112t-124 -42q-68 0 -114 33t-59 90l77 19q8 -37 33 -57t64 -20q42 0 66 23.5t24 65.5q0 40 -22 62.5t-61 22.5q-55 0 -90 -52l-76 16q32 113 33 251l1 -1v1h277v-63h-214q-3 -74 -21 -149q15 25 43 41t69 16q63 0 102 -39.5z
" />
    <glyph glyph-name="uni2086" unicode="&#x2086;" horiz-adv-x="405" 
d="M336 106.5q41 -40.5 41 -106.5q0 -68 -45.5 -109t-121.5 -41q-91 0 -136.5 59.5t-45.5 162.5q0 112 49.5 175t137.5 63q53 0 95.5 -26t59.5 -76l-74 -20q-19 62 -83 62q-106 0 -107 -168q45 65 124 65q65 0 106 -40.5zM275 -65q24 25 24 67t-23.5 65.5t-63.5 23.5
q-59 0 -103 -62q8 -63 35 -91t67 -28t64 25z" />
    <glyph glyph-name="uni2087" unicode="&#x2087;" horiz-adv-x="344" 
d="M345 236q-60 -62 -93.5 -113t-48.5 -106.5t-15 -130.5l1 -34h-93q1 114 41 209.5t142 175.5h-268v63h334v-64z" />
    <glyph glyph-name="uni2088" unicode="&#x2088;" horiz-adv-x="393" 
d="M342.5 51q27.5 -31 27.5 -74q0 -58 -47.5 -92.5t-125.5 -34.5t-125.5 34.5t-47.5 92.5q0 43 27 74t85 42q-97 22 -97 101q0 53 43.5 84.5t114.5 31.5q72 0 115.5 -31.5t43.5 -84.5q0 -36 -24 -63t-74 -38q57 -11 84.5 -42zM138 142q23 -18 59 -18t58.5 18t22.5 47
t-22 46.5t-59 17.5t-59.5 -17.5t-22.5 -46.5t23 -47zM265.5 -72q25.5 20 25.5 54q0 32 -26 52.5t-68 20.5t-68 -20.5t-26 -52.5q0 -34 25.5 -54t68.5 -20t68.5 20z" />
    <glyph glyph-name="uni2089" unicode="&#x2089;" horiz-adv-x="405" 
d="M331.5 251q45.5 -59 45.5 -163q0 -112 -49.5 -175t-137.5 -63q-53 0 -95.5 26t-60.5 77l75 19q18 -61 83 -61q105 0 106 166q-45 -64 -124 -64q-65 0 -106 40.5t-41 106.5q0 68 46 109t122 41q91 0 136.5 -59zM295 130q-15 120 -102 120q-39 0 -63 -24.5t-24 -66.5
t23.5 -66t63.5 -24q57 0 102 61z" />
    <glyph glyph-name="uni20A8" unicode="&#x20a8;" 
d="M447 531h74v-61h-77q-24 -120 -208 -141q67 -10 109 -41t58 -88l58 -200h-117l-41 185q-13 61 -56 85t-116 26h-46v82h101q61 0 102.5 25t52.5 67h-256v61h258q-9 41 -43.5 64t-88.5 23h-126v82h436l1 -61h-123q42 -40 48 -108z" />
    <glyph glyph-name="Euro" unicode="&#x20ac;" 
d="M451 79q29 15 52 47l58 -62q-66 -74 -178 -74q-110 0 -186.5 69.5t-97.5 196.5h-84v59h78q-1 11 -1 34q0 17 2 47h-79v59h87q24 121 99 188t182 67q121 0 192 -89l-69 -55q-40 70 -123 70q-69 0 -115 -46t-63 -135h230l-26 -59h-211q-2 -30 -2 -47q0 -23 1 -34h179
l-25 -59h-148q15 -94 62 -143t119 -49q38 0 67 15z" />
    <glyph glyph-name="uni2116" unicode="&#x2116;" horiz-adv-x="1279" 
d="M843.5 341.5q-54.5 58.5 -54.5 155.5q0 96 54.5 154.5t147.5 58.5t148 -58.5t55 -154.5q0 -97 -55 -155.5t-148 -58.5t-147.5 58.5zM581 700h99v-700h-142l-354 599v-599h-99v700h142l354 -595v595zM907 604.5q-30 -37.5 -30 -107.5t30 -108t84 -38t84 38t30 108
t-30 107.5t-84 37.5t-84 -37.5zM837 217h308v-74h-308v74z" />
    <glyph glyph-name="trademark" unicode="&#x2122;" horiz-adv-x="717" 
d="M30 701h257v-51h-97v-255h-62v255h-98v51zM671 701v-306h-62v254l-85 -254h-55l-86 254v-254h-56v306h90l80 -228l78 228h96z" />
    <glyph glyph-name="oneeighth" unicode="&#x215b;" horiz-adv-x="896" 
d="M219 700v-448h-78v382q-24 -50 -99 -84l-31 66q56 20 88 39.5t54 44.5h66zM379 360l204 340h80l-233 -363l-200 -337h-81zM844.5 195q27.5 -31 27.5 -74q0 -58 -47.5 -92.5t-125.5 -34.5t-125.5 34.5t-47.5 92.5q0 43 27 74t85 42q-97 22 -97 101q0 53 43.5 84.5
t114.5 31.5q72 0 115.5 -31.5t43.5 -84.5q0 -36 -24 -63t-74 -38q57 -11 84.5 -42zM640 286q23 -18 59 -18t58.5 18t22.5 47t-22 46.5t-59 17.5t-59.5 -17.5t-22.5 -46.5t23 -47zM767.5 72q25.5 20 25.5 54q0 32 -26 52.5t-68 20.5t-68 -20.5t-26 -52.5q0 -34 25.5 -54
t68.5 -20t68.5 20z" />
    <glyph glyph-name="threeeighths" unicode="&#x215c;" horiz-adv-x="1005" 
d="M352 449q29 -28 29 -72q0 -57 -47 -92t-123 -35q-78 0 -127 36.5t-60 101.5l79 14q6 -45 34.5 -67t71.5 -22q41 0 65 19t24 51q0 33 -25.5 52.5t-74.5 19.5h-32l-1 58h38q39 0 62 18t23 50q0 29 -21.5 47.5t-56.5 18.5q-37 0 -62 -20t-30 -60l-77 15q8 61 53 94.5
t115 33.5q72 0 115 -33t43 -87q0 -41 -25 -68t-71 -36q52 -9 81 -37zM488 360l204 340h80l-233 -363l-200 -337h-81zM954.5 195q27.5 -31 27.5 -74q0 -58 -47.5 -92.5t-125.5 -34.5t-125.5 34.5t-47.5 92.5q0 43 27 74t85 42q-97 22 -97 101q0 53 43.5 84.5t114.5 31.5
q72 0 115.5 -31.5t43.5 -84.5q0 -36 -24 -63t-74 -38q57 -11 84.5 -42zM750 286q23 -18 59 -18t58.5 18t22.5 47t-22 46.5t-59 17.5t-59.5 -17.5t-22.5 -46.5t23 -47zM877.5 72q25.5 20 25.5 54q0 32 -26 52.5t-68 20.5t-68 -20.5t-26 -52.5q0 -34 25.5 -54t68.5 -20
t68.5 20z" />
    <glyph glyph-name="fiveeighths" unicode="&#x215d;" horiz-adv-x="1002" 
d="M331 505.5q39 -39.5 39 -105.5q0 -70 -47 -112t-124 -42q-68 0 -114 33t-59 90l77 19q8 -37 33 -57t64 -20q42 0 66 23.5t24 65.5q0 40 -22 62.5t-61 22.5q-55 0 -90 -52l-76 16q32 113 33 251l1 -1v1h277v-63h-214q-3 -74 -21 -149q15 25 43 41t69 16q63 0 102 -39.5z
M485 360l204 340h80l-233 -363l-200 -337h-81zM951.5 195q27.5 -31 27.5 -74q0 -58 -47.5 -92.5t-125.5 -34.5t-125.5 34.5t-47.5 92.5q0 43 27 74t85 42q-97 22 -97 101q0 53 43.5 84.5t114.5 31.5q72 0 115.5 -31.5t43.5 -84.5q0 -36 -24 -63t-74 -38q57 -11 84.5 -42z
M747 286q23 -18 59 -18t58.5 18t22.5 47t-22 46.5t-59 17.5t-59.5 -17.5t-22.5 -46.5t23 -47zM874.5 72q25.5 20 25.5 54q0 32 -26 52.5t-68 20.5t-68 -20.5t-26 -52.5q0 -34 25.5 -54t68.5 -20t68.5 20z" />
    <glyph glyph-name="seveneighths" unicode="&#x215e;" horiz-adv-x="904" 
d="M345 636q-60 -62 -93.5 -113t-48.5 -106.5t-15 -130.5l1 -34h-93q1 114 41 209.5t142 175.5h-268v63h334v-64zM387 360l204 340h80l-233 -363l-200 -337h-81zM853.5 195q27.5 -31 27.5 -74q0 -58 -47.5 -92.5t-125.5 -34.5t-125.5 34.5t-47.5 92.5q0 43 27 74t85 42
q-97 22 -97 101q0 53 43.5 84.5t114.5 31.5q72 0 115.5 -31.5t43.5 -84.5q0 -36 -24 -63t-74 -38q57 -11 84.5 -42zM649 286q23 -18 59 -18t58.5 18t22.5 47t-22 46.5t-59 17.5t-59.5 -17.5t-22.5 -46.5t23 -47zM776.5 72q25.5 20 25.5 54q0 32 -26 52.5t-68 20.5t-68 -20.5
t-26 -52.5q0 -34 25.5 -54t68.5 -20t68.5 20z" />
    <glyph glyph-name="arrowleft" unicode="&#x2190;" horiz-adv-x="969" 
d="M949 308l-809 1l266 -254l-59 -59l-331 334v37l332 332l59 -58l-267 -253h809v-80z" />
    <glyph glyph-name="arrowup" unicode="&#x2191;" horiz-adv-x="724" 
d="M647 324l-244 247v-571h-81v573l-245 -249l-57 60l323 317h38l323 -317z" />
    <glyph glyph-name="arrowright" unicode="&#x2192;" horiz-adv-x="969" 
d="M953 367v-37l-331 -334l-58 59l266 254l-810 -1v80h810l-268 253l59 58z" />
    <glyph glyph-name="arrowdown" unicode="&#x2193;" horiz-adv-x="724" 
d="M704 317l-323 -317h-38l-323 317l57 60l245 -248v572h81v-571l244 247z" />
    <glyph glyph-name="uni2196" unicode="&#x2196;" horiz-adv-x="825" 
d="M746 -2l-572 574l9 -369h-83l2 470l27 27h469v-83l-367 10l572 -572z" />
    <glyph glyph-name="uni2197" unicode="&#x2197;" horiz-adv-x="825" 
d="M642 203l9 368l-572 -573l-57 57l573 572l-368 -10v83h469l27 -27l2 -470h-83z" />
    <glyph glyph-name="uni2198" unicode="&#x2198;" horiz-adv-x="825" 
d="M725 495l-2 -470l-27 -27h-469v83l368 -10l-573 572l57 57l572 -573l-9 368h83z" />
    <glyph glyph-name="uni2199" unicode="&#x2199;" horiz-adv-x="825" 
d="M231 71l367 10v-83h-469l-27 27l-2 470h83l-9 -369l572 574l57 -57z" />
    <glyph glyph-name="minus" unicode="&#x2212;" 
d="M53 369h495v-71h-495v71z" />
    <glyph glyph-name="approxequal" unicode="&#x2248;" 
d="M83 376q8 51 35 83t79 32q25 0 48 -7t59 -21q27 -12 46.5 -18t37.5 -6q31 0 47 15t19 36l63 -13q-6 -52 -33 -83.5t-78 -31.5q-26 0 -51 7.5t-59 21.5q-30 12 -47.5 17.5t-34.5 5.5q-30 0 -46.5 -15t-20.5 -37zM83 181q8 51 35 83t79 32q25 0 48 -7t59 -21
q27 -12 46.5 -18t37.5 -6q31 0 47 15t19 36l63 -13q-6 -52 -33 -83.5t-78 -31.5q-26 0 -51 7.5t-59 21.5q-30 12 -47.5 17.5t-34.5 5.5q-30 0 -46.5 -15t-20.5 -37z" />
    <glyph glyph-name="notequal" unicode="&#x2260;" 
d="M334 333l-32 -64h246v-71h-282l-67 -132h-75l72 132h-143v71h181l38 70l30 59h-249v71h284l67 132h75l-71 -132h140v-71h-179z" />
    <glyph glyph-name="lessequal" unicode="&#x2264;" 
d="M495 512l-297 -101l297 -101v-92l-390 157v71l390 157v-91zM105 157h390v-75h-390v75z" />
    <glyph glyph-name="greaterequal" unicode="&#x2265;" 
d="M495 446v-71l-390 -157v92l297 101l-297 101v91zM105 157h390v-75h-390v75z" />
    <glyph glyph-name="filledbox" unicode="&#x25a0;" horiz-adv-x="421" 
d="M111 234q-38 38 -38 100t38 99.5t100 37.5t99.5 -37.5t37.5 -99.5t-37.5 -100t-99.5 -38t-100 38z" />
    <glyph glyph-name="uni2713" unicode="&#x2713;" horiz-adv-x="1040" 
d="M999 671l-635 -695l-319 347l81 73l238 -266l564 610z" />
    <glyph glyph-name="fl" unicode="&#xfb02;" horiz-adv-x="628" 
d="M605 5q-34 -14 -69 -14q-66 0 -94 31t-28 78v356h-218v-456h-98v456h-81v77h81v14q0 96 49.5 143t145.5 47q49 0 85 -15l-23 -73q-30 16 -62 16q-50 0 -73.5 -29.5t-23.5 -88.5v-14h218v167h98v-586q0 -24 8 -36t31 -12q24 0 40 15z" />
    <glyph glyph-name="i.loclTRK" horiz-adv-x="248" 
d="M75 533h98v-533h-98v533zM78 647q-18 17 -18 46t18 46t47 17t47 -17t18 -46t-18 -46t-47 -17t-47 17z" />
    <glyph glyph-name="germandbls.calt" horiz-adv-x="733" 
d="M491.5 410.5q21.5 -21.5 68.5 -52.5q42 -27 68 -48.5t44.5 -55.5t18.5 -81q0 -84 -59 -133.5t-162 -49.5q-90 0 -144.5 38.5t-67.5 105.5l92 23q6 -41 37.5 -65t82.5 -24q54 0 85.5 27.5t31.5 71.5q0 40 -24 65t-72 56q-38 25 -60 43.5t-38 46.5t-16 68q0 45 23.5 89.5
t79.5 76.5h-123q-86 0 -128.5 -50t-42.5 -139v-423h-101v424q0 276 267 276h271v-85q-57 -13 -91.5 -40t-48 -56.5t-13.5 -53.5q0 -33 21.5 -54.5z" />
    <glyph glyph-name="f_f" horiz-adv-x="644" 
d="M535.5 635.5q-23.5 -29.5 -23.5 -88.5v-14h129v-77h-129v-456h-98v456h-218v-456h-98v456h-81v77h81v14q0 96 49.5 143t145.5 47q49 0 85 -15l-23 -73q-30 16 -62 16q-50 0 -73.5 -29.5t-23.5 -88.5v-14h218v14q0 96 49.5 143t145.5 47q50 0 86 -15l-24 -73
q-29 16 -62 16q-50 0 -73.5 -29.5z" />
    <glyph glyph-name="f_f_f" horiz-adv-x="960" 
d="M852.5 635.5q-23.5 -29.5 -23.5 -88.5v-14h128v-77h-128v-456h-99v456h-218v-456h-98v456h-218v-456h-98v456h-81v77h81v14q0 96 49.5 143t145.5 47q49 0 85 -15l-23 -73q-30 16 -62 16q-50 0 -73.5 -29.5t-23.5 -88.5v-14h218v14q0 96 49.5 143t145.5 47q50 0 86 -15
l-24 -73q-29 16 -62 16q-50 0 -73.5 -29.5t-23.5 -88.5v-14h218v14q0 95 50 142.5t146 47.5q49 0 85 -15l-23 -73q-30 16 -62 16q-50 0 -73.5 -29.5z" />
    <glyph glyph-name="f_f_k" horiz-adv-x="1208" 
d="M895 253l-86 -80v-173h-99v456h-208v-456h-98v456h-208v-456h-98v456h-81v77h81v14q0 96 49.5 143t145.5 47q49 0 85 -15l-23 -73q-30 16 -62 16q-50 0 -73.5 -29.5t-23.5 -88.5v-14h208v14q0 96 49.5 143t145.5 47q50 0 86 -15l-24 -73q-29 16 -62 16q-50 0 -73.5 -29.5
t-23.5 -88.5v-14h208v167h99v-433l262 266h127l-240 -222l243 -311h-118z" />
    <glyph glyph-name="f_f_l" horiz-adv-x="934" 
d="M911 5q-34 -14 -69 -14q-65 0 -93.5 31t-28.5 78v356h-218v-456h-98v456h-208v-456h-98v456h-81v77h81v14q0 96 49.5 143t145.5 47q49 0 85 -15l-23 -73q-30 16 -62 16q-50 0 -73.5 -29.5t-23.5 -88.5v-14h208v14q0 96 49.5 143t145.5 47q50 0 86 -15l-24 -73
q-29 16 -62 16q-50 0 -73.5 -29.5t-23.5 -88.5v-14h218v167h99v-586q0 -24 8 -36t30 -12q24 0 41 15z" />
    <glyph glyph-name="f_k" horiz-adv-x="902" 
d="M589 253l-87 -80v-173h-98v456h-208v-456h-98v456h-81v77h81v14q0 96 49.5 143t145.5 47q49 0 85 -15l-23 -73q-30 16 -62 16q-50 0 -73.5 -29.5t-23.5 -88.5v-14h208v167h98v-434l263 267h127l-241 -222l243 -311h-117z" />
    <glyph glyph-name="zero.osf" horiz-adv-x="613" 
d="M444 508.5q59 -34.5 91.5 -97t32.5 -144.5t-32.5 -144.5t-91.5 -97.5t-137 -35t-137.5 35t-92 97.5t-32.5 144.5t32.5 144.5t92 97t137.5 34.5t137 -34.5zM187.5 406q-44.5 -52 -44.5 -138q0 -87 44.5 -138.5t119.5 -51.5t119 51.5t44 138.5q0 86 -44 138t-119 52
t-119.5 -52z" />
    <glyph glyph-name="one.osf" horiz-adv-x="580" 
d="M544 80v-80h-485v80h199v367q-28 -43 -69 -72.5t-95 -56.5l-38 86q77 26 127.5 56.5t88.5 72.5h80v-453h192z" />
    <glyph glyph-name="two.osf" horiz-adv-x="558" 
d="M528 77v-77h-484v67l186 97q102 52 141.5 97t39.5 86q0 52 -35.5 83.5t-92.5 31.5q-56 0 -94.5 -31t-38.5 -92q0 -23 8 -55h-102q-5 30 -5 52q0 98 63.5 152.5t166.5 54.5q67 0 118.5 -23.5t80.5 -66t29 -97.5q0 -61 -51 -123t-191 -122l-77 -34h338z" />
    <glyph glyph-name="three.osf" horiz-adv-x="613" 
d="M522 136q44 -44 44 -113q0 -59 -31.5 -104.5t-89 -70t-133.5 -24.5q-114 0 -185.5 56t-88.5 161l98 20q25 -161 176 -161q72 0 113 34t41 92q0 59 -43 93.5t-125 34.5h-56l-1 75h61q68 0 107.5 31t39.5 88q0 55 -37.5 86.5t-102.5 31.5q-66 0 -105 -37t-47 -108l-95 19
q14 100 79 151.5t168 51.5q110 0 172.5 -51.5t62.5 -136.5q0 -64 -39 -105t-116 -56q89 -14 133 -58z" />
    <glyph glyph-name="four.osf" horiz-adv-x="598" 
d="M566 4h-89v-171h-96l2 171h-369v68l332 461h131v-454h89v-75zM113 79h270v382z" />
    <glyph glyph-name="five.osf" 
d="M457 266q49 -29 75.5 -81.5t26.5 -121.5q0 -71 -31.5 -125.5t-88.5 -84t-132 -29.5q-103 0 -171.5 52.5t-85.5 141.5l96 23q11 -61 53.5 -99t108.5 -38q68 0 109.5 42.5t41.5 114.5q0 75 -37 114t-103 39q-50 0 -88.5 -26t-61.5 -62l-93 18q47 194 48 389l1 -1v1h406v-81
h-322q-3 -121 -34 -248q59 91 169 91q64 0 113 -29z" />
    <glyph glyph-name="six.osf" horiz-adv-x="609" 
d="M456.5 421.5q50.5 -27.5 79 -79t28.5 -118.5q0 -70 -31 -123t-87.5 -82t-132.5 -29q-136 0 -203 93t-67 253q0 115 32 199.5t93.5 129.5t148.5 45q75 0 141 -36t94 -126l-100 -28q-19 106 -134 106q-88 0 -131.5 -73.5t-45.5 -209.5q32 49 83 77.5t116 28.5
q66 0 116.5 -27.5zM426 111q38 40 38 113t-39 110t-108 37q-55 0 -100 -28t-73 -76q21 -196 172 -196q72 0 110 40z" />
    <glyph glyph-name="seven.osf" horiz-adv-x="517" 
d="M516 456q-99 -111 -151.5 -196t-76.5 -184.5t-23 -242.5h-117q4 125 31 227.5t90 199.5t170 193h-429v80h506v-77z" />
    <glyph glyph-name="eight.osf" horiz-adv-x="590" 
d="M513.5 306.5q40.5 -47.5 40.5 -115.5q0 -60 -32 -105.5t-90.5 -70t-135.5 -24.5t-136 24.5t-91.5 70t-32.5 105.5q0 68 41.5 115.5t128.5 65.5q-146 33 -146 157q0 55 29.5 96t83 63t123.5 22t123 -22t82.5 -63t29.5 -95q0 -58 -35 -99t-109 -59q86 -18 126.5 -65.5z
M197 443.5q37 -31.5 99 -31.5q61 0 98 31.5t37 80.5q0 50 -36 78.5t-99 28.5t-99.5 -28.5t-36.5 -78.5q0 -49 37 -80.5zM410.5 104.5q41.5 34.5 41.5 94.5q0 55 -42 89t-114 34t-114.5 -33.5t-42.5 -89.5q0 -59 41.5 -94t115.5 -35q73 0 114.5 34.5z" />
    <glyph glyph-name="nine.osf" horiz-adv-x="609" 
d="M499 450q67 -93 67 -252q0 -116 -32 -200.5t-93.5 -129.5t-148.5 -45q-75 0 -141 36t-94 127l100 27q20 -106 134 -106q88 0 131.5 73.5t45.5 209.5q-32 -49 -83 -77.5t-116 -28.5q-66 0 -116.5 27.5t-79 79t-28.5 118.5q0 70 31 123t87.5 82t132.5 29q136 0 203 -93z
M391.5 190q45.5 28 73.5 77q-21 195 -172 195q-72 0 -110 -39.5t-38 -112.5t39 -110.5t108 -37.5q54 0 99.5 28z" />
    <glyph glyph-name="zero.osf.zero" horiz-adv-x="613" 
d="M444 508.5q59 -34.5 91.5 -97t32.5 -144.5t-32.5 -144t-91.5 -96t-137 -34t-137.5 34t-92 96t-32.5 144t32.5 144.5t92 97t137.5 34.5t137 -34.5zM187.5 406q-44.5 -52 -44.5 -138q0 -62 23 -106l114 130l118 139q-38 27 -91 27q-75 0 -119.5 -52zM426 129.5
q44 51.5 44 138.5q0 70 -30 119l-105 -120l-130 -155q42 -34 102 -34q75 0 119 51.5z" />
    <glyph glyph-name="zero.tf" 
d="M488.5 616q66.5 -94 66.5 -267q0 -172 -66.5 -265t-188.5 -93t-188.5 93t-66.5 265q0 173 66.5 267t188.5 94t188.5 -94zM180.5 557.5q-37.5 -67.5 -37.5 -208.5q0 -140 37.5 -206.5t119.5 -66.5t119.5 66.5t37.5 206.5q0 141 -37.5 208.5t-119.5 67.5t-119.5 -67.5z" />
    <glyph glyph-name="one.tf" 
d="M552 80v-80h-485v80h195v534q-28 -43 -68.5 -72.5t-93.5 -56.5l-38 85q77 27 127 57.5t88 72.5h82v-620h193z" />
    <glyph glyph-name="two.tf" 
d="M568 80v-80h-524v69l211 159q109 82 152.5 143.5t43.5 116.5q0 71 -39.5 106.5t-112.5 35.5q-60 0 -106 -35t-46 -115q0 -30 7 -62h-103q-4 27 -4 58q0 80 35.5 132.5t93 77t125.5 24.5q116 0 183.5 -57.5t67.5 -157.5q0 -80 -60.5 -163t-212.5 -178l-117 -74h406z" />
    <glyph glyph-name="three.tf" 
d="M515 303q44 -44 44 -113q0 -59 -31.5 -104.5t-89 -70t-132.5 -24.5q-114 0 -186 56t-89 161l99 20q24 -159 176 -159q72 0 112.5 33t40.5 91q0 59 -43 93.5t-124 34.5h-57l-1 75h61q68 0 107.5 31t39.5 88q0 55 -37.5 85.5t-102.5 30.5q-66 0 -104.5 -36t-47.5 -107
l-94 19q13 100 78 151.5t168 51.5q110 0 173 -51.5t63 -136.5q0 -64 -39 -105t-117 -56q89 -14 133 -58z" />
    <glyph glyph-name="four.tf" 
d="M577 171h-89v-171h-96l2 171h-369v68l332 461h131v-454h89v-75zM124 246h270v382z" />
    <glyph glyph-name="five.tf" 
d="M450 433q50 -29 77.5 -81.5t27.5 -121.5q0 -72 -30.5 -126t-86.5 -83.5t-131 -29.5q-102 0 -169.5 53t-83.5 141l93 22q11 -62 53 -100t108 -38q72 0 111 40.5t39 118.5q0 75 -39.5 115t-105.5 40q-86 0 -144 -89l-89 18q46 197 47 388l1 -1v1h399v-79h-320
q-4 -128 -37 -261q25 47 64.5 74.5t102.5 27.5t113 -29z" />
    <glyph glyph-name="six.tf" 
d="M449.5 421q50.5 -28 79 -79t28.5 -118q0 -69 -31 -122.5t-87 -82.5t-131 -29q-135 0 -202.5 93t-67.5 252q0 116 32.5 200.5t93.5 129.5t147 45q74 0 139.5 -36t91.5 -126l-97 -27q-11 58 -47.5 81.5t-85.5 23.5q-85 0 -128.5 -71.5t-46.5 -203.5q32 45 83.5 71.5
t113.5 26.5q65 0 115.5 -28zM417 110q39 39 39 113q0 72 -38.5 110t-108.5 38q-55 0 -99 -28.5t-70 -77.5q21 -194 169 -194q69 0 108 39z" />
    <glyph glyph-name="seven.tf" 
d="M574 623q-110 -111 -168.5 -196t-84.5 -184.5t-25 -242.5h-115q4 127 33.5 231t96.5 200.5t183 190.5h-468v78h548v-77z" />
    <glyph glyph-name="eight.tf" 
d="M520 306.5q40 -47.5 40 -114.5q0 -60 -32 -105.5t-91 -70.5t-136 -25t-136.5 25t-92 70.5t-32.5 105.5q0 67 41.5 114.5t128.5 66.5q-76 17 -110.5 57.5t-34.5 98.5q0 55 29.5 96t83 63t123.5 22t123.5 -22t83 -63t29.5 -95q0 -57 -34.5 -98t-107.5 -59q85 -19 125 -66.5
zM199 444.5q38 -31.5 102 -31.5q63 0 101 32t38 81q0 51 -37 80t-102 29t-102.5 -29t-37.5 -80q0 -50 38 -81.5zM419 101.5q43 35.5 43 96.5q0 56 -43.5 90.5t-117.5 34.5t-118 -34.5t-44 -90.5q0 -61 43.5 -96.5t118.5 -35.5t118 35.5z" />
    <glyph glyph-name="nine.tf" 
d="M494.5 617q67.5 -93 67.5 -252q0 -116 -32.5 -200.5t-93.5 -129.5t-147 -45q-74 0 -139.5 36t-91.5 126l97 27q11 -58 47.5 -81.5t85.5 -23.5q85 0 128.5 71.5t46.5 203.5q-32 -45 -83.5 -71.5t-113.5 -26.5q-65 0 -115.5 28t-79 79t-28.5 118q0 69 31 122.5t87 82.5
t131 29q135 0 202.5 -93zM390 357.5q44 28.5 70 77.5q-21 194 -169 194q-69 0 -108 -39t-39 -113q0 -72 38.5 -110t108.5 -38q55 0 99 28.5z" />
    <glyph glyph-name="zero.tf.zero" 
d="M488.5 616q66.5 -94 66.5 -267q0 -172 -66.5 -265t-188.5 -93t-188.5 93t-66.5 265q0 173 66.5 267t188.5 94t188.5 -94zM180.5 557.5q-37.5 -67.5 -37.5 -208.5q0 -69 9 -120l113 129l160 189q-37 78 -125 78q-82 0 -119.5 -67.5zM419.5 142.5q37.5 66.5 37.5 206.5
q0 72 -9 124l-121 -137l-152 -182q37 -78 125 -78q82 0 119.5 66.5z" />
    <glyph glyph-name="zero.tosf" 
d="M437 508.5q59 -34.5 91.5 -97t32.5 -144.5t-32.5 -144.5t-91.5 -97.5t-137 -35t-137.5 35t-92 97.5t-32.5 144.5t32.5 144.5t92 97t137.5 34.5t137 -34.5zM180.5 406q-44.5 -52 -44.5 -138q0 -87 44.5 -138.5t119.5 -51.5t119 51.5t44 138.5q0 86 -44 138t-119 52
t-119.5 -52z" />
    <glyph glyph-name="one.tosf" 
d="M544 80v-80h-485v80h199v367q-28 -43 -69 -72.5t-95 -56.5l-38 86q77 26 127.5 56.5t88.5 72.5h80v-453h192z" />
    <glyph glyph-name="two.tosf" 
d="M542 77v-77h-484v67l186 97q102 52 141.5 97t39.5 86q0 52 -35.5 83.5t-92.5 31.5q-56 0 -94.5 -31t-38.5 -92q0 -23 8 -55h-102q-5 30 -5 52q0 98 63.5 152.5t166.5 54.5q67 0 118.5 -23.5t80.5 -66t29 -97.5q0 -61 -51 -123t-191 -122l-77 -34h338z" />
    <glyph glyph-name="three.tosf" 
d="M515 136q44 -44 44 -113q0 -59 -31.5 -104.5t-89 -70t-132.5 -24.5q-114 0 -186 56t-89 161l99 20q24 -159 176 -159q72 0 112.5 33t40.5 91q0 59 -43 93.5t-124 34.5h-57l-1 75h61q68 0 107.5 31t39.5 88q0 55 -37.5 85.5t-102.5 30.5q-66 0 -104.5 -36t-47.5 -107
l-94 19q13 100 78 151.5t168 51.5q110 0 173 -51.5t63 -136.5q0 -64 -39 -105t-117 -56q89 -14 133 -58z" />
    <glyph glyph-name="four.tosf" 
d="M577 4h-89v-171h-96l2 171h-369v68l332 461h131v-454h89v-75zM124 79h270v382z" />
    <glyph glyph-name="five.tosf" 
d="M450 266q50 -29 77.5 -81.5t27.5 -121.5q0 -72 -30.5 -126t-86.5 -83.5t-131 -29.5q-102 0 -169.5 53t-83.5 141l93 22q11 -62 53 -100t108 -38q72 0 111 40.5t39 118.5q0 75 -39.5 115t-105.5 40q-86 0 -144 -89l-89 18q46 197 47 388l1 -1v1h399v-79h-320
q-4 -128 -37 -261q25 47 64.5 74.5t102.5 27.5t113 -29z" />
    <glyph glyph-name="six.tosf" 
d="M449.5 421q50.5 -28 79 -79t28.5 -118q0 -69 -31 -122.5t-87 -82.5t-131 -29q-135 0 -202.5 93t-67.5 252q0 116 32.5 200.5t93.5 129.5t147 45q74 0 139.5 -36t91.5 -126l-97 -27q-11 58 -47.5 81.5t-85.5 23.5q-85 0 -128.5 -71.5t-46.5 -203.5q32 45 83.5 71.5
t113.5 26.5q65 0 115.5 -28zM417 110q39 39 39 113q0 72 -38.5 110t-108.5 38q-55 0 -99 -28.5t-70 -77.5q21 -194 169 -194q69 0 108 39z" />
    <glyph glyph-name="seven.tosf" 
d="M574 456q-110 -111 -168.5 -196t-84.5 -184.5t-25 -242.5h-115q4 127 33.5 231t96.5 200.5t183 190.5h-468v78h548v-77z" />
    <glyph glyph-name="eight.tosf" 
d="M520 306.5q40 -47.5 40 -114.5q0 -60 -32 -105.5t-91 -70.5t-136 -25t-136.5 25t-92 70.5t-32.5 105.5q0 67 41.5 114.5t128.5 66.5q-76 17 -110.5 57.5t-34.5 98.5q0 55 29.5 96t83 63t123.5 22t123.5 -22t83 -63t29.5 -95q0 -57 -34.5 -98t-107.5 -59q85 -19 125 -66.5
zM199 444.5q38 -31.5 102 -31.5q63 0 101 32t38 81q0 51 -37 80t-102 29t-102.5 -29t-37.5 -80q0 -50 38 -81.5zM419 101.5q43 35.5 43 96.5q0 56 -43.5 90.5t-117.5 34.5t-118 -34.5t-44 -90.5q0 -61 43.5 -96.5t118.5 -35.5t118 35.5z" />
    <glyph glyph-name="nine.tosf" 
d="M494.5 450q67.5 -93 67.5 -252q0 -116 -32.5 -200.5t-93.5 -129.5t-147 -45q-74 0 -139.5 36t-91.5 127l97 27q11 -58 47.5 -82t85.5 -24q85 0 128.5 71.5t46.5 203.5q-32 -45 -83.5 -71.5t-113.5 -26.5q-65 0 -115.5 28t-79 79t-28.5 118q0 69 31 122.5t87 82.5t131 29
q135 0 202.5 -93zM390 190.5q44 28.5 70 77.5q-21 194 -169 194q-69 0 -108 -39t-39 -113q0 -72 38.5 -110t108.5 -38q55 0 99 28.5z" />
    <glyph glyph-name="zero.tosf.zero" 
d="M437 508.5q59 -34.5 91.5 -97t32.5 -144.5t-32.5 -144t-91.5 -96t-137 -34t-137.5 34t-92 96t-32.5 144t32.5 144.5t92 97t137.5 34.5t137 -34.5zM180.5 406q-44.5 -52 -44.5 -138q0 -62 23 -106l114 130l118 139q-38 27 -91 27q-75 0 -119.5 -52zM419 129.5
q44 51.5 44 138.5q0 70 -30 119l-105 -120l-130 -155q42 -34 102 -34q75 0 119 51.5z" />
    <glyph glyph-name="zero.zero" horiz-adv-x="613" 
d="M500 616q68 -94 68 -267q0 -172 -68 -265t-193 -93q-126 0 -194 93t-68 265q0 173 68 267t194 94q125 0 193 -94zM183 556.5q-39 -66.5 -39 -207.5q0 -75 10 -126l119 136l162 191q-40 73 -128 73q-85 0 -124 -66.5zM431 144q39 66 39 205q0 76 -10 126l-125 -141
l-155 -185q38 -71 127 -71q85 0 124 66z" />
    <glyph glyph-name="zero.dnom" horiz-adv-x="411" 
d="M337 394q46 -60 46 -171q0 -110 -46 -169.5t-131 -59.5q-86 0 -132 59.5t-46 169.5q0 112 46 171.5t132 59.5q85 0 131 -60zM134 343q-23 -38 -23 -119t23 -119t72 -38t72 38t23 119t-23 119t-72 38t-72 -38z" />
    <glyph glyph-name="one.dnom" horiz-adv-x="285" 
d="M219 448v-448h-78v382q-24 -50 -99 -84l-31 66q56 20 88 39.5t54 44.5h66z" />
    <glyph glyph-name="two.dnom" horiz-adv-x="380" 
d="M364 65v-65h-336v55l127 99q63 50 91 84.5t28 73.5q0 37 -23 57.5t-59 20.5t-61 -21.5t-25 -63.5q0 -15 5 -40h-81q-3 20 -3 37q0 73 47 112.5t120 39.5q74 0 118 -38t44 -101q0 -52 -40 -102t-138 -113l-54 -35h240z" />
    <glyph glyph-name="three.dnom" horiz-adv-x="408" 
d="M352 193q29 -28 29 -72q0 -57 -47 -92t-123 -35q-78 0 -127 36.5t-60 101.5l79 14q6 -45 34.5 -67t71.5 -22q41 0 65 19t24 51q0 33 -25.5 52.5t-74.5 19.5h-32l-1 58h38q39 0 62 18t23 50q0 29 -21.5 47.5t-56.5 18.5q-37 0 -62 -20t-30 -60l-77 15q8 61 53 94.5
t115 33.5q72 0 115 -33t43 -87q0 -41 -25 -68t-71 -36q52 -9 81 -37z" />
    <glyph glyph-name="four.dnom" horiz-adv-x="406" 
d="M374 105h-57v-105h-80l1 105h-230v52l204 291h105v-281h57v-62zM239 167v223l-153 -223h153z" />
    <glyph glyph-name="five.dnom" horiz-adv-x="392" 
d="M331 253.5q39 -39.5 39 -105.5q0 -70 -47 -112t-124 -42q-68 0 -114 33t-59 90l77 19q8 -37 33 -57t64 -20q42 0 66 23.5t24 65.5q0 40 -22 62.5t-61 22.5q-55 0 -90 -52l-76 16q32 113 33 251l1 -1v1h277v-63h-214q-3 -74 -21 -149q15 25 43 41t69 16q63 0 102 -39.5z
" />
    <glyph glyph-name="six.dnom" horiz-adv-x="405" 
d="M336 250.5q41 -40.5 41 -106.5q0 -68 -45.5 -109t-121.5 -41q-91 0 -136.5 59.5t-45.5 162.5q0 112 49.5 175t137.5 63q53 0 95.5 -26t59.5 -76l-74 -20q-19 62 -83 62q-106 0 -107 -168q45 65 124 65q65 0 106 -40.5zM275 79q24 25 24 67t-23.5 65.5t-63.5 23.5
q-59 0 -103 -62q8 -63 35 -91t67 -28t64 25z" />
    <glyph glyph-name="seven.dnom" horiz-adv-x="344" 
d="M345 384q-60 -62 -93.5 -113t-48.5 -106.5t-15 -130.5l1 -34h-93q1 114 41 209.5t142 175.5h-268v63h334v-64z" />
    <glyph glyph-name="eight.dnom" horiz-adv-x="393" 
d="M342.5 195q27.5 -31 27.5 -74q0 -58 -47.5 -92.5t-125.5 -34.5t-125.5 34.5t-47.5 92.5q0 43 27 74t85 42q-97 22 -97 101q0 53 43.5 84.5t114.5 31.5q72 0 115.5 -31.5t43.5 -84.5q0 -36 -24 -63t-74 -38q57 -11 84.5 -42zM138 286q23 -18 59 -18t58.5 18t22.5 47
t-22 46.5t-59 17.5t-59.5 -17.5t-22.5 -46.5t23 -47zM265.5 72q25.5 20 25.5 54q0 32 -26 52.5t-68 20.5t-68 -20.5t-26 -52.5q0 -34 25.5 -54t68.5 -20t68.5 20z" />
    <glyph glyph-name="nine.dnom" horiz-adv-x="405" 
d="M331.5 396q45.5 -59 45.5 -163q0 -112 -49.5 -175t-137.5 -63q-53 0 -95.5 26t-60.5 77l75 19q18 -61 83 -61q105 0 106 166q-45 -64 -124 -64q-65 0 -106 40.5t-41 106.5q0 68 46 109t122 41q91 0 136.5 -59zM295 275q-15 120 -102 120q-39 0 -63 -24.5t-24 -66.5
t23.5 -66t63.5 -24q57 0 102 61z" />
    <glyph glyph-name="zero.numr" horiz-adv-x="411" 
d="M337 650q46 -60 46 -171q0 -110 -46 -169.5t-131 -59.5q-86 0 -132 59.5t-46 169.5q0 112 46 171.5t132 59.5q85 0 131 -60zM134 599q-23 -38 -23 -119t23 -119t72 -38t72 38t23 119t-23 119t-72 38t-72 -38z" />
    <glyph glyph-name="one.numr" horiz-adv-x="285" 
d="M219 700v-448h-78v382q-24 -50 -99 -84l-31 66q56 20 88 39.5t54 44.5h66z" />
    <glyph glyph-name="two.numr" horiz-adv-x="380" 
d="M364 321v-65h-336v55l127 99q63 50 91 84.5t28 73.5q0 37 -23 57.5t-59 20.5t-61 -21.5t-25 -63.5q0 -15 5 -40h-81q-3 20 -3 37q0 73 47 112.5t120 39.5q74 0 118 -38t44 -101q0 -52 -40 -102t-138 -113l-54 -35h240z" />
    <glyph glyph-name="three.numr" horiz-adv-x="408" 
d="M352 449q29 -28 29 -72q0 -57 -47 -92t-123 -35q-78 0 -127 36.5t-60 101.5l79 14q6 -45 34.5 -67t71.5 -22q41 0 65 19t24 51q0 33 -25.5 52.5t-74.5 19.5h-32l-1 58h38q39 0 62 18t23 50q0 29 -21.5 47.5t-56.5 18.5q-37 0 -62 -20t-30 -60l-77 15q8 61 53 94.5
t115 33.5q72 0 115 -33t43 -87q0 -41 -25 -68t-71 -36q52 -9 81 -37z" />
    <glyph glyph-name="four.numr" horiz-adv-x="406" 
d="M374 357h-57v-105h-80l1 105h-230v52l204 291h105v-281h57v-62zM239 419v223l-153 -223h153z" />
    <glyph glyph-name="five.numr" horiz-adv-x="392" 
d="M331 505.5q39 -39.5 39 -105.5q0 -70 -47 -112t-124 -42q-68 0 -114 33t-59 90l77 19q8 -37 33 -57t64 -20q42 0 66 23.5t24 65.5q0 40 -22 62.5t-61 22.5q-55 0 -90 -52l-76 16q32 113 33 251l1 -1v1h277v-63h-214q-3 -74 -21 -149q15 25 43 41t69 16q63 0 102 -39.5z
" />
    <glyph glyph-name="six.numr" horiz-adv-x="405" 
d="M336 506.5q41 -40.5 41 -106.5q0 -68 -45.5 -109t-121.5 -41q-91 0 -136.5 59.5t-45.5 162.5q0 112 49.5 175t137.5 63q53 0 95.5 -26t59.5 -76l-74 -20q-19 62 -83 62q-106 0 -107 -168q45 65 124 65q65 0 106 -40.5zM275 335q24 25 24 67t-23.5 65.5t-63.5 23.5
q-59 0 -103 -62q8 -63 35 -91t67 -28t64 25z" />
    <glyph glyph-name="seven.numr" horiz-adv-x="344" 
d="M345 636q-60 -62 -93.5 -113t-48.5 -106.5t-15 -130.5l1 -34h-93q1 114 41 209.5t142 175.5h-268v63h334v-64z" />
    <glyph glyph-name="eight.numr" horiz-adv-x="393" 
d="M342.5 451q27.5 -31 27.5 -74q0 -58 -47.5 -92.5t-125.5 -34.5t-125.5 34.5t-47.5 92.5q0 43 27 74t85 42q-97 22 -97 101q0 53 43.5 84.5t114.5 31.5q72 0 115.5 -31.5t43.5 -84.5q0 -36 -24 -63t-74 -38q57 -11 84.5 -42zM138 542q23 -18 59 -18t58.5 18t22.5 47
t-22 46.5t-59 17.5t-59.5 -17.5t-22.5 -46.5t23 -47zM265.5 328q25.5 20 25.5 54q0 32 -26 52.5t-68 20.5t-68 -20.5t-26 -52.5q0 -34 25.5 -54t68.5 -20t68.5 20z" />
    <glyph glyph-name="nine.numr" horiz-adv-x="405" 
d="M331.5 651q45.5 -59 45.5 -163q0 -112 -49.5 -175t-137.5 -63q-53 0 -95.5 26t-60.5 77l75 19q18 -61 83 -61q105 0 106 166q-45 -64 -124 -64q-65 0 -106 40.5t-41 106.5q0 68 46 109t122 41q91 0 136.5 -59zM295 530q-15 120 -102 120q-39 0 -63 -24.5t-24 -66.5
t23.5 -66t63.5 -24q57 0 102 61z" />
    <glyph glyph-name="exclamdown.case" horiz-adv-x="339" 
d="M216 688q17 -17 17 -45q0 -29 -17 -45.5t-46 -16.5t-46.5 16.5t-17.5 45.5q0 28 17.5 45t46.5 17t46 -17zM212 446l17 -446h-119l19 446h83z" />
    <glyph glyph-name="questiondown.case" horiz-adv-x="563" 
d="M334.5 688q17.5 -17 17.5 -45q0 -29 -17.5 -45.5t-46.5 -16.5t-46.5 16.5t-17.5 45.5q0 28 17.5 45t46.5 17t46.5 -17zM110.5 38.5q-59.5 48.5 -59.5 131.5q0 42 15 72t37 48.5t57 41.5q40 25 59 45.5t19 52.5v17h99v-11q0 -36 -13.5 -62t-33 -42t-51.5 -36
q-44 -27 -66 -52t-22 -67q0 -48 33 -77.5t87 -29.5q58 0 92 31.5t34 84.5q0 31 -11 61h100q8 -34 8 -60q0 -88 -59.5 -142.5t-164.5 -54.5q-100 0 -159.5 48.5z" />
    <glyph glyph-name="periodcentered.case" horiz-adv-x="275" 
d="M91 317q-18 17 -18 46t18 46t47 17t46.5 -17t17.5 -46t-17.5 -46t-46.5 -17t-47 17z" />
    <glyph glyph-name="bullet.case" horiz-adv-x="421" 
d="M348 226h-275v275h275v-275z" />
    <glyph glyph-name="parenleft.case" horiz-adv-x="379" 
d="M128 98q-49 116 -49 245q0 128 49 244t134 203h85q-82 -92 -129 -207t-47 -240t47.5 -241t129.5 -207h-85q-86 87 -135 203z" />
    <glyph glyph-name="parenright.case" horiz-adv-x="379" 
d="M32 -105q81 92 128.5 207.5t47.5 240.5t-47 240t-128 207h84q86 -87 135 -203t49 -244q0 -129 -49.5 -245t-135.5 -203h-84z" />
    <glyph glyph-name="braceleft.case" horiz-adv-x="367" 
d="M210.5 396q-25.5 -42 -85.5 -54q60 -11 85.5 -53t25.5 -135v-110q0 -39 21 -59t55 -20h25v-70h-36q-71 0 -112.5 38t-41.5 113v122q0 77 -29.5 104t-78.5 27h-9v87h9q49 0 78.5 27t29.5 103v123q0 75 41.5 113t112.5 38h36v-70h-25q-34 0 -55 -20t-21 -59v-111
q0 -92 -25.5 -134z" />
    <glyph glyph-name="braceright.case" horiz-adv-x="367" 
d="M337 386v-87h-9q-50 0 -79 -27t-29 -104v-122q0 -75 -42 -113t-113 -38h-35v70h25q34 0 54.5 20t20.5 59v110q0 93 25.5 135t85.5 53q-60 12 -85.5 54t-25.5 134v111q0 39 -20.5 59t-54.5 20h-25v70h35q71 0 113 -38t42 -113v-123q0 -76 29 -103t79 -27h9z" />
    <glyph glyph-name="bracketleft.case" horiz-adv-x="336" 
d="M175 720v-755h127v-70h-217v895h217v-70h-127z" />
    <glyph glyph-name="bracketright.case" horiz-adv-x="336" 
d="M251 -105h-218v70h128v755h-128v70h218v-895z" />
    <glyph glyph-name="hyphen.case" horiz-adv-x="407" 
d="M63 332v76h281v-76h-281z" />
    <glyph glyph-name="endash.case" horiz-adv-x="612" 
d="M35 408h530v-74l-530 -1v75z" />
    <glyph glyph-name="emdash.case" horiz-adv-x="1068" 
d="M35 408h998v-74l-998 -1v75z" />
    <glyph glyph-name="guillemotleft.case" horiz-adv-x="503" 
d="M179 552h89q-25 -94 -140 -188q115 -94 140 -188h-89q-23 89 -124 177v22q101 88 124 177zM356 552h89q-25 -94 -140 -188q115 -94 140 -188h-89q-23 89 -124 177v22q101 88 124 177z" />
    <glyph glyph-name="guillemotright.case" horiz-adv-x="503" 
d="M272 353q-101 -88 -124 -177h-90q26 95 141 188q-115 94 -141 188h90q22 -88 124 -176v-23zM449 353q-101 -86 -124 -177h-90q26 96 140 188q-114 93 -140 188h90q23 -89 124 -176v-23z" />
    <glyph glyph-name="guilsinglleft.case" horiz-adv-x="327" 
d="M179 552h89q-25 -94 -140 -188q115 -94 140 -188h-89q-23 89 -124 177v22q101 88 124 177z" />
    <glyph glyph-name="guilsinglright.case" horiz-adv-x="327" 
d="M272 353q-101 -88 -124 -177h-90q26 95 141 188q-115 94 -141 188h90q22 -88 124 -176v-23z" />
    <glyph glyph-name="at.case" horiz-adv-x="784" 
d="M551 533v-256q0 -37 11.5 -50.5t34.5 -13.5q22 0 41.5 20.5t32 60t12.5 93.5q0 85 -34.5 149t-98.5 99.5t-150 35.5q-90 0 -156 -39t-101.5 -113t-35.5 -175q0 -152 79 -232t225 -80q70 0 115 19.5t90 63.5l29 -57q-97 -81 -237 -81q-107 0 -188 45t-125.5 128.5
t-44.5 196.5q0 111 43 196.5t122 133t184 47.5q99 0 175 -42t118 -119t42 -178q0 -74 -22 -126t-60 -79t-84 -27q-39 0 -63 19.5t-31 51.5q-43 -70 -119 -70q-71 0 -110 52.5t-39 141.5q0 88 39 141t111 53q35 0 64.5 -18t50.5 -48v57h80zM431.5 233.5q23.5 13.5 39.5 36.5
v153q-36 54 -92 54q-45 0 -68.5 -33t-23.5 -94q0 -64 24 -97t68 -33q29 0 52.5 13.5z" />
    <glyph glyph-name="bar.case" horiz-adv-x="313" 
d="M200 780v-860h-87v860h87z" />
    <glyph glyph-name="brokenbar.case" horiz-adv-x="313" 
d="M200 780v-351h-87v351h87zM200 271v-351h-87v351h87z" />
    <glyph glyph-name="caroncomb.alt" horiz-adv-x="0" 
d="M-254 772h94l-47 -160h-47v160z" />
    <glyph glyph-name="uni0308.case" horiz-adv-x="0" 
d="M-445 807q-17 17 -17 45t17 45t46 17t46.5 -17t17.5 -45t-17.5 -45t-46.5 -17t-46 17zM-247.5 807q-17.5 17 -17.5 45t17.5 45t46.5 17t46 -17t17 -45t-17 -45t-46 -17t-46.5 17z" />
    <glyph glyph-name="uni0307.case" horiz-adv-x="0" 
d="M-347 807q-18 17 -18 46t18 46t47 17t47 -17t18 -46t-18 -46t-47 -17t-47 17z" />
    <glyph glyph-name="gravecomb.case" horiz-adv-x="0" 
d="M-300 772l-171 160h138l90 -160h-57z" />
    <glyph glyph-name="acutecomb.case" horiz-adv-x="0" 
d="M-241 932h137l-168 -160h-55z" />
    <glyph glyph-name="uni030B.case" horiz-adv-x="0" 
d="M-360 932h120l-118 -160h-54zM-188 932h120l-118 -160h-54z" />
    <glyph glyph-name="uni0302.case" horiz-adv-x="0" 
d="M-202 772l-98 102l-98 -102h-62l108 160h104l107 -160h-61z" />
    <glyph glyph-name="uni030C.case" horiz-adv-x="0" 
d="M-249 772h-104l-108 160h58l102 -103l105 103h54z" />
    <glyph glyph-name="uni0306.case" horiz-adv-x="0" 
d="M-401 822.5q-39 36.5 -40 99.5h74q0 -37 18 -56.5t49 -19.5q33 0 52 19.5t19 56.5h74q-1 -63 -41.5 -99.5t-103.5 -36.5q-62 0 -101 36.5z" />
    <glyph glyph-name="uni030A.case" horiz-adv-x="0" 
d="M-372.5 795.5q-29.5 27.5 -29.5 69.5t29.5 69t72.5 27t72.5 -27t29.5 -69t-29.5 -69.5t-72.5 -27.5t-72.5 27.5zM-265.5 831q13.5 13 13.5 34q0 20 -14 33t-34 13t-33.5 -13t-13.5 -33q0 -21 13.5 -34t33.5 -13q21 0 34.5 13z" />
    <glyph glyph-name="tildecomb.case" horiz-adv-x="0" 
d="M-275 816q-14 7 -31 19q-14 9 -22 13.5t-19 4.5q-31 0 -33 -39h-72q1 53 27.5 78.5t67.5 25.5q20 0 34 -6.5t31 -19.5q2 -1 10 -7t15.5 -8.5t14.5 -2.5q33 0 35 39h70q0 -53 -25 -78.5t-68 -25.5q-21 0 -35 7z" />
    <glyph glyph-name="uni0304.case" horiz-adv-x="0" 
d="M-160 897v-69h-280v69h280z" />
    </font>
</defs>
</svg>
