<?xml version="1.0" standalone="no"?>
<!DOCTYPE svg PUBLIC "-//W3C//DTD SVG 1.1//EN" "http://www.w3.org/Graphics/SVG/1.1/DTD/svg11.dtd" >
<svg xmlns="http://www.w3.org/2000/svg" xmlns:xlink="http://www.w3.org/1999/xlink" version="1.1">
<metadata>
Created by FontForge 20170731 at Thu Nov 22 16:58:14 2018
 By Aleksey,,,
Copyright (c) 2018 by Rene Bieder. All rights reserved.
</metadata>
<defs>
<font id="BayWaSans-MediumItalic" horiz-adv-x="600" >
  <font-face 
    font-family="BayWa Sans Medium"
    font-weight="500"
    font-style="italic"
    font-stretch="normal"
    units-per-em="1000"
    panose-1="2 1 0 3 4 0 0 0 0 0"
    ascent="766"
    descent="-234"
    x-height="533"
    cap-height="700"
    bbox="-634 -269 1308 961"
    underline-thickness="50"
    underline-position="-150"
    slope="-10"
    unicode-range="U+0020-FB02"
  />
<missing-glyph horiz-adv-x="660" 
d="M657 700l-123 -700h-500l123 700h500zM220 660l132 -274l229 274h-361zM88 70l234 280l-135 280zM604 630l-234 -280l135 -280zM472 40l-132 274l-229 -274h361z" />
    <glyph glyph-name="fi" unicode="fi" horiz-adv-x="566" 
d="M444 0h-98l80 459h-195l-81 -459h-99l81 459h-80l12 74h81q19 100 88 152t169 52q65 0 110 -25l-38 -80q-32 32 -88 32q-57 0 -93.5 -29.5t-48.5 -99.5v-2h294z" />
    <glyph glyph-name="f_f_i" unicode="ffi" horiz-adv-x="860" 
d="M738 0h-98l80 459h-195l-81 -459h-99l81 459h-196l-80 -459h-99l81 459h-80l12 74h81l2 13q16 90 79.5 140.5t152.5 50.5q46 0 80 -15l-36 -76q-21 17 -59 17q-99 0 -120 -121l-2 -9h197q19 100 88 152t169 52q65 0 110 -25l-38 -80q-32 32 -88 32q-57 0 -93.5 -29.5
t-48.5 -99.5v-2h294z" />
    <glyph glyph-name="f_f_j" unicode="ffj" horiz-adv-x="869" 
d="M752 31q-17 -98 -73.5 -149.5t-143.5 -51.5h-17l-1 77q13 -5 31 -5q45 0 69 26.5t35 91.5l78 439h-205l-81 -459h-98l81 459h-197l-80 -459h-99l81 459h-80l12 74h81l2 13q16 90 79.5 140.5t152.5 50.5q46 0 80 -15l-36 -76q-21 17 -59 17q-99 0 -120 -121l-2 -9h198
q18 100 87 152t169 52q66 0 111 -25l-39 -80q-32 32 -87 32q-57 0 -94 -29.5t-49 -99.5v-2h303z" />
    <glyph glyph-name="f_j" unicode="fj" horiz-adv-x="574" 
d="M458 31q-18 -98 -74.5 -149.5t-142.5 -51.5h-18l-1 77q13 -5 31 -5q45 0 69 26.5t36 91.5l77 439h-204l-81 -459h-99l81 459h-80l12 74h81q19 100 88 152t169 52q65 0 110 -25l-38 -80q-32 32 -88 32q-57 0 -93.5 -29.5t-48.5 -99.5v-2h302z" />
    <glyph glyph-name=".notdef" horiz-adv-x="660" 
d="M657 700l-123 -700h-500l123 700h500zM220 660l132 -274l229 274h-361zM88 70l234 280l-135 280zM604 630l-234 -280l135 -280zM472 40l-132 274l-229 -274h361z" />
    <glyph glyph-name=".null" horiz-adv-x="0" 
 />
    <glyph glyph-name="nonmarkingreturn" horiz-adv-x="333" 
 />
    <glyph glyph-name="space" unicode=" " horiz-adv-x="232" 
 />
    <glyph glyph-name="exclam" unicode="!" horiz-adv-x="339" 
d="M185 700h119l-95 -446h-83zM85.5 12q-17.5 17 -17.5 45q0 29 17.5 45.5t46.5 16.5t46.5 -16.5t17.5 -45.5q0 -28 -17.5 -45t-46.5 -17t-46.5 17z" />
    <glyph glyph-name="quotedbl" unicode="&#x22;" horiz-adv-x="389" 
d="M232 700l-55 -240h-72l28 240h99zM409 700l-55 -240h-72l28 240h99z" />
    <glyph glyph-name="numbersign" unicode="#" horiz-adv-x="774" 
d="M598 433l-66 -171h109l-14 -76h-125l-73 -186h-87l73 186h-160l-73 -186h-87l73 186h-97l13 76h114l66 171h-102l14 75h118l75 192h87l-75 -192h160l75 192h87l-75 -192h104l-14 -75h-120zM511 433h-160l-66 -171h160z" />
    <glyph glyph-name="dollar" unicode="$" 
d="M426 354.5q37 -16.5 64.5 -49.5t27.5 -85q0 -59 -29.5 -103.5t-83 -68.5t-121.5 -24h-14l-18 -114h-76l24 123q-72 17 -116 63t-54 119l91 23q7 -51 33.5 -84t69.5 -46l37 210q-78 27 -121 61.5t-43 101.5q0 58 27.5 102t77 68t111.5 25l19 124h76l-25 -130
q66 -12 108.5 -52t52.5 -106l-91 -17q-11 82 -92 101l-36 -204q64 -21 101 -37.5zM215 445q21 -20 61 -36l34 192q-53 -1 -84.5 -31.5t-31.5 -73.5q0 -31 21 -51zM382 128.5q36 29.5 36 75.5q0 36 -28 57t-81 40l-36 -202h14q59 0 95 29.5z" />
    <glyph glyph-name="percent" unicode="%" horiz-adv-x="982" 
d="M155.5 370q-46.5 46 -46.5 125q0 60 25 109t70.5 77.5t103.5 28.5q81 0 127.5 -45t46.5 -118q0 -63 -25 -114t-70.5 -80t-104.5 -29q-80 0 -126.5 46zM477 360l263 340h81l-298 -363l-260 -337h-81zM370.5 433q31.5 47 31.5 115q-1 47 -26 73.5t-70 26.5q-55 0 -86 -46
t-31 -108q0 -53 25 -80.5t70 -27.5q55 0 86.5 47zM575.5 30q-46.5 46 -46.5 125q0 60 25 109t70.5 77.5t103.5 28.5q81 0 127 -45t47 -118q0 -63 -25.5 -114t-71 -80t-103.5 -29q-80 0 -126.5 46zM789.5 92.5q31.5 46.5 31.5 113.5q0 49 -24.5 76t-71.5 27q-54 0 -85 -46
t-31 -108q0 -53 24.5 -81t69.5 -28q55 0 86.5 46.5z" />
    <glyph glyph-name="ampersand" unicode="&#x26;" horiz-adv-x="687" 
d="M596 228.5q-29 -65.5 -73 -114.5l87 -114h-109l-41 57q-45 -33 -98 -50t-109 -17q-98 0 -158.5 49t-60.5 135q0 80 50.5 126.5t139.5 82.5q-30 43 -46.5 81.5t-16.5 76.5q0 48 26 86.5t71.5 60.5t101.5 22q51 0 93 -19t66.5 -54.5t24.5 -81.5q0 -72 -55 -118t-150 -83
l143 -187q54 78 63 206h92q-12 -79 -41 -144.5zM280 609q-28 -28 -28 -76q0 -56 44 -122q75 29 115.5 60t40.5 82q0 40 -26 62t-69 22q-49 0 -77 -28zM424 106l-159 221q-64 -26 -99 -58t-35 -87q0 -57 38.5 -89t109.5 -32q84 0 145 45z" />
    <glyph glyph-name="quotesingle" unicode="'" horiz-adv-x="212" 
d="M232 700l-55 -240h-72l28 240h99z" />
    <glyph glyph-name="parenleft" unicode="(" horiz-adv-x="381" 
d="M113.5 44.5q-29.5 94.5 -29.5 199.5q0 155 69 293t191 243h97q-127 -113 -200 -251t-73 -290q0 -97 31.5 -190.5t84.5 -163.5h-85q-56 65 -85.5 159.5z" />
    <glyph glyph-name="parenright" unicode=")" horiz-adv-x="381" 
d="M290.5 620.5q29.5 -94.5 29.5 -199.5q0 -155 -69 -293t-191 -243h-97q127 113 200 251t73 290q0 97 -31.5 190.5t-84.5 163.5h85q56 -65 85.5 -159.5z" />
    <glyph glyph-name="asterisk" unicode="*" horiz-adv-x="430" 
d="M305 548l76 -115l-74 -35l-45 137l-89 -114l-59 59l113 82l-123 35l34 77l112 -75l5 136l82 -15l-43 -128l131 32l7 -84z" />
    <glyph glyph-name="plus" unicode="+" 
d="M268 298h-210l13 71h210l37 213h76l-37 -213h209l-13 -71h-209l-37 -210h-76z" />
    <glyph glyph-name="comma" unicode="," horiz-adv-x="275" 
d="M142 101.5q18 -19.5 18 -57.5q0 -53 -32.5 -98.5t-97.5 -72.5l-19 38q69 35 78 86q-27 2 -43.5 18.5t-16.5 43.5q0 28 16.5 45t45.5 17q33 0 51 -19.5z" />
    <glyph glyph-name="hyphen" unicode="-" horiz-adv-x="408" 
d="M63 264l13 74h281l-13 -74h-281z" />
    <glyph glyph-name="period" unicode="." horiz-adv-x="275" 
d="M53.5 12q-17.5 17 -17.5 46t17.5 46t46.5 17t47 -17t18 -46t-18 -46t-47 -17t-46.5 17z" />
    <glyph glyph-name="slash" unicode="/" horiz-adv-x="665" 
d="M319 371l291 329h105l-324 -351l-307 -349h-105z" />
    <glyph glyph-name="zero" unicode="0" horiz-adv-x="617" 
d="M114 60q-59 70 -59 196q0 118 34.5 222t103.5 168t166 64q114 0 173 -70t59 -198q0 -117 -34.5 -220.5t-103.5 -167.5t-166 -64q-114 0 -173 70zM406 132q46 56 67 142t21 180q0 171 -141 171q-68 0 -113 -56t-66.5 -142.5t-21.5 -179.5q0 -171 139 -171q69 0 115 56z
" />
    <glyph glyph-name="one" unicode="1" horiz-adv-x="432" 
d="M398 700l-123 -700h-98l109 614q-36 -43 -81.5 -72.5t-103.5 -56.5l-23 85q81 27 137 57.5t101 72.5h82z" />
    <glyph glyph-name="two" unicode="2" horiz-adv-x="573" 
d="M152 81l364 -1l-15 -80h-490l14 76l221 156q75 53 122 94t74.5 85.5t27.5 93.5q0 61 -35.5 92.5t-90.5 31.5q-61 0 -106.5 -41.5t-45.5 -133.5q0 -10 2 -36h-104q-5 105 30 170.5t94 93.5t129 28q100 0 164.5 -52t64.5 -149q0 -67 -37 -124.5t-101.5 -109.5t-170.5 -121z
" />
    <glyph glyph-name="three" unicode="3" horiz-adv-x="620" 
d="M519 301q38 -41 38 -103q0 -60 -33 -107t-92.5 -74t-135.5 -27q-112 0 -183 58t-80 157l99 21q4 -78 48 -118.5t119 -40.5q77 0 117.5 39t40.5 95q0 54 -38 87t-111 33h-54l12 75h61q78 0 123.5 31t45.5 91q0 54 -37.5 84.5t-96.5 30.5q-123 0 -163 -135l-91 29
q30 91 94.5 137t157.5 46q63 0 116 -21t84.5 -62.5t31.5 -101.5q0 -74 -49 -115t-136 -53q74 -15 112 -56z" />
    <glyph glyph-name="four" unicode="4" 
d="M550 171h-89l-30 -171h-96l31 171h-368l12 68l414 461h131l-80 -454h88zM111 246h269l67 381z" />
    <glyph glyph-name="five" unicode="5" horiz-adv-x="599" 
d="M270 619q-27 -125 -77 -241q70 81 170 81q85 0 137 -54.5t52 -147.5q0 -75 -34 -136t-95.5 -96t-140.5 -35q-67 0 -120.5 25.5t-85.5 69.5t-38 99l99 23q5 -62 46.5 -99t102.5 -37q49 0 86.5 25t58 66.5t20.5 89.5q0 62 -34.5 95.5t-90.5 33.5q-83 0 -152 -76l-89 26
q81 192 113 369h408l-15 -81h-321z" />
    <glyph glyph-name="six" unicode="6" horiz-adv-x="609" 
d="M456 425q45 -24 71 -69.5t26 -106.5q0 -72 -32.5 -131t-92.5 -93.5t-139 -34.5q-117 0 -177.5 71t-60.5 199q0 111 38.5 215t111.5 169.5t170 65.5q40 0 84.5 -14t82.5 -49t53 -94l-102 -28q-6 54 -41.5 77.5t-79.5 23.5q-60 0 -105 -42.5t-71.5 -109t-36.5 -142.5
q74 117 198 117q58 0 103 -24zM380.5 94.5q36.5 23.5 54.5 62.5t18 84q0 66 -37 98t-93 32q-108 0 -173 -107v-7q0 -186 142 -186q52 0 88.5 23.5z" />
    <glyph glyph-name="seven" unicode="7" horiz-adv-x="518" 
d="M592 700l-13 -77q-119 -112 -187 -196.5t-109.5 -184.5t-64.5 -242h-117q39 189 126 334.5t261 285.5h-415l14 80h505z" />
    <glyph glyph-name="eight" unicode="8" horiz-adv-x="590" 
d="M536 201q0 -63 -33.5 -111t-92.5 -74t-132 -26q-67 0 -124.5 22t-93 66t-35.5 108q0 79 55.5 130t145.5 63q-62 20 -89.5 55t-27.5 85q0 56 30.5 99.5t84.5 67.5t121 24q61 0 113.5 -20.5t84.5 -61t32 -97.5q0 -69 -47.5 -112.5t-127.5 -55.5q136 -40 136 -162z
M243.5 597.5q-34.5 -33.5 -34.5 -81.5q0 -47 34 -75.5t92 -28.5q63 0 100.5 31.5t37.5 82.5q0 48 -35.5 76.5t-93.5 28.5q-66 0 -100.5 -33.5zM394 108.5q42 38.5 42 95.5q0 55 -41.5 86.5t-107.5 31.5q-73 0 -115.5 -36t-42.5 -95q0 -58 42.5 -89.5t107.5 -31.5
q73 0 115 38.5z" />
    <glyph glyph-name="nine" unicode="9" horiz-adv-x="608" 
d="M526.5 641.5q60.5 -70.5 60.5 -198.5q0 -112 -38.5 -216t-111.5 -169.5t-170 -65.5q-40 0 -84.5 14t-82.5 49t-53 94l102 28q6 -54 41.5 -77.5t79.5 -23.5q60 0 105 42.5t71.5 109.5t36.5 143q-74 -118 -198 -118q-58 0 -103.5 24t-71 69.5t-25.5 107.5q0 72 32.5 130.5
t92.5 93t139 34.5q117 0 177.5 -70.5zM488 439v6q0 186 -142 186q-52 0 -88.5 -23.5t-54.5 -62.5t-18 -84q0 -66 37 -98t93 -32q107 0 173 108z" />
    <glyph glyph-name="colon" unicode=":" horiz-adv-x="275" 
d="M53.5 12q-17.5 17 -17.5 46t17.5 46t46.5 17t47 -17t18 -46t-18 -46t-47 -17t-46.5 17zM127.5 429q-17.5 17 -17.5 46t17.5 46t46.5 17t47 -17t18 -46t-18 -46t-47 -17t-46.5 17z" />
    <glyph glyph-name="semicolon" unicode=";" horiz-adv-x="276" 
d="M127.5 429q-17.5 17 -17.5 46t17.5 46t46.5 17t47 -17t18 -46t-18 -46t-47 -17t-46.5 17zM142 101.5q18 -19.5 18 -57.5q0 -53 -32.5 -98.5t-97.5 -72.5l-19 38q69 35 78 86q-27 2 -43.5 18.5t-16.5 43.5q0 28 16.5 45t45.5 17q33 0 51 -19.5z" />
    <glyph glyph-name="less" unicode="&#x3c;" horiz-adv-x="593" 
d="M520 451l-327 -126l283 -127l-14 -76l-351 175l11 67l414 175z" />
    <glyph glyph-name="equal" unicode="=" 
d="M88 469h495l-12 -71h-495zM53 269h495l-12 -71h-495z" />
    <glyph glyph-name="greater" unicode="&#x3e;" horiz-adv-x="593" 
d="M505 364l-11 -67l-414 -175l15 88l327 126l-282 127l14 76z" />
    <glyph glyph-name="question" unicode="?" horiz-adv-x="563" 
d="M228 265q6 39 34 65.5t81 60.5q38 25 60.5 43t38 42.5t15.5 55.5q0 43 -31.5 70t-82.5 27q-63 0 -99.5 -40t-36.5 -102q0 -16 3 -34h-97q-1 10 -1 29q0 107 63.5 167t170.5 60q93 0 152 -46t59 -123q0 -47 -19 -80t-45 -54t-70 -48q-46 -27 -69 -47.5t-28 -49.5l-2 -8
h-98zM192 12q-17 17 -17 45q0 29 17 45.5t46 16.5t46.5 -16.5t17.5 -45.5q0 -28 -17.5 -45t-46.5 -17t-46 17z" />
    <glyph glyph-name="at" unicode="@" horiz-adv-x="784" 
d="M545 211q-3 -13 -3 -26q0 -42 39 -42q36 0 62.5 33t40.5 83t14 97q0 75 -35 130t-95.5 84.5t-135.5 29.5q-102 0 -176.5 -52.5t-113.5 -137t-39 -179.5q0 -136 78.5 -202.5t209.5 -66.5q58 0 99 15t88 51l19 -59q-47 -30 -98.5 -45.5t-114.5 -15.5q-100 0 -176 37.5
t-118.5 110.5t-42.5 177q0 111 48.5 207.5t137 154.5t203.5 58q90 0 161 -36t111.5 -104t40.5 -160q0 -70 -23.5 -132t-68 -100t-103.5 -38q-43 0 -67 20t-27 59q-26 -38 -58 -58t-74 -20q-61 0 -94 42.5t-33 114.5q0 57 21 110.5t60 87t91 33.5q86 0 120 -98l16 89h80z
M462 197q0 6 1 9l23 131q-12 32 -36.5 51t-56.5 19q-53 0 -82 -49t-29 -110q0 -98 83 -98q58 0 97 47z" />
    <glyph glyph-name="A" unicode="A" horiz-adv-x="689" 
d="M506 137h-365l-75 -137h-105l389 700h140l143 -700h-101zM491 214l-79 420l-229 -420h308z" />
    <glyph glyph-name="B" unicode="B" horiz-adv-x="672" 
d="M575 305q39 -39 39 -107q0 -94 -74.5 -146t-197.5 -52h-304l124 700h285q93 0 143.5 -40.5t50.5 -114.5t-50.5 -121.5t-139.5 -66.5q85 -13 124 -52zM248 619l-40 -224h162q76 0 121.5 34.5t45.5 93.5q0 44 -27.5 70t-85.5 26h-176zM470.5 115.5q42.5 33.5 42.5 94.5
q0 53 -36.5 80t-116.5 27h-166l-41 -235h200q75 0 117.5 33.5z" />
    <glyph glyph-name="C" unicode="C" horiz-adv-x="725" 
d="M201.5 27q-67.5 37 -105 106.5t-37.5 165.5q0 110 45.5 204t127.5 150.5t187 56.5q117 0 195 -64t94 -175l-101 -26q-10 81 -61 128.5t-131 47.5q-76 0 -133 -45.5t-87 -119t-30 -155.5q0 -103 52 -162.5t145 -59.5q78 0 135 47.5t87 129.5l95 -30
q-42 -109 -124.5 -172.5t-197.5 -63.5q-88 0 -155.5 37z" />
    <glyph glyph-name="D" unicode="D" horiz-adv-x="723" 
d="M609 621.5q86 -78.5 86 -222.5q0 -117 -57 -207.5t-158.5 -141t-232.5 -50.5h-208l123 700h201q160 0 246 -78.5zM427.5 122.5q78.5 39.5 121.5 110t43 160.5q0 106 -60.5 164.5t-174.5 58.5h-108l-93 -533h90q103 0 181.5 39.5z" />
    <glyph glyph-name="E" unicode="E" horiz-adv-x="636" 
d="M249 616l-36 -209h355l-16 -84h-354l-42 -239h383l-14 -84h-486l123 700h486l-14 -84h-385z" />
    <glyph glyph-name="F" unicode="F" horiz-adv-x="592" 
d="M249 616l-38 -220h334l-14 -84h-335l-55 -312h-102l123 700h480l-14 -84h-379z" />
    <glyph glyph-name="G" unicode="G" horiz-adv-x="740" 
d="M412 345h281l-61 -345h-79l12 110q-80 -120 -237 -120q-79 0 -140 38t-95 108t-34 163q0 110 45.5 204.5t128 150.5t189.5 56q102 0 176.5 -51.5t99.5 -146.5l-95 -30q-15 65 -65 102.5t-120 37.5q-77 0 -134.5 -45.5t-88.5 -119t-31 -154.5q0 -105 48 -165t139 -60
q93 0 155 51t77 137h-185z" />
    <glyph glyph-name="H" unicode="H" horiz-adv-x="730" 
d="M721 700l-123 -700h-102l58 329h-355l-58 -329h-102l123 700h102l-50 -287h355l50 287h102z" />
    <glyph glyph-name="I" unicode="I" horiz-adv-x="293" 
d="M172 700h102l-123 -700h-102z" />
    <glyph glyph-name="J" unicode="J" horiz-adv-x="390" 
d="M389 700l-83 -471q-22 -123 -87 -181t-179 -58q-38 0 -69 8l18 97q26 -18 68 -18q121 0 146 145l85 478h101z" />
    <glyph glyph-name="K" unicode="K" horiz-adv-x="697" 
d="M440 400l194 -400h-118l-150 330l-200 -187l-25 -143h-102l123 700h102l-78 -444l441 444h134z" />
    <glyph glyph-name="L" unicode="L" horiz-adv-x="594" 
d="M539 85l-15 -85h-485l123 700h102l-108 -615h383z" />
    <glyph glyph-name="M" unicode="M" horiz-adv-x="905" 
d="M895 700l-123 -700h-97l108 616l-326 -616h-109l-105 612l-108 -612h-97l124 700h156l106 -588l313 588h158z" />
    <glyph glyph-name="N" unicode="N" horiz-adv-x="766" 
d="M757 700l-123 -700h-135l-254 610l-107 -610h-99l123 700h142l249 -595l105 595h99z" />
    <glyph glyph-name="O" unicode="O" horiz-adv-x="745" 
d="M201.5 27q-68.5 37 -106 105.5t-37.5 160.5q0 113 45 208.5t126.5 152t185.5 56.5q89 0 157.5 -37t106 -106t37.5 -161q0 -113 -44.5 -208.5t-126 -151.5t-186.5 -56q-89 0 -157.5 37zM494 124q56 45 85.5 119t29.5 158q0 100 -52.5 160t-145.5 60q-75 0 -131 -45.5
t-86 -119.5t-30 -159q0 -100 53 -159t146 -59q75 0 131 45z" />
    <glyph glyph-name="P" unicode="P" horiz-adv-x="647" 
d="M162 700h264q112 0 172.5 -51t60.5 -137q0 -74 -38 -127t-104.5 -80.5t-151.5 -27.5h-173l-50 -277h-103zM371 357q85 0 134 37.5t49 103.5q0 55 -35 87.5t-105 32.5h-164l-45 -261h166z" />
    <glyph glyph-name="Q" unicode="Q" horiz-adv-x="755" 
d="M670.5 196q-45.5 -96 -125.5 -150l108 -119l-83 -58l-102 139q-49 -18 -109 -18q-89 0 -157.5 37t-106 105.5t-37.5 160.5q0 113 45 208.5t126.5 152t185.5 56.5q89 0 157.5 -37t106 -106t37.5 -161q0 -114 -45.5 -210zM217 138q53 -59 146 -59q75 0 131 45t85.5 119
t29.5 158q0 100 -52.5 160t-145.5 60q-75 0 -131 -45.5t-86 -119.5t-30 -159q0 -100 53 -159z" />
    <glyph glyph-name="R" unicode="R" horiz-adv-x="693" 
d="M606.5 367q-52.5 -58 -141.5 -79l140 -288h-123l-105 277h-12h-173l-50 -277h-103l123 700h264q112 0 172.5 -51t60.5 -137q0 -87 -52.5 -145zM205 357h166q85 0 134 37.5t49 103.5q0 55 -35 87.5t-105 32.5h-164z" />
    <glyph glyph-name="S" unicode="S" horiz-adv-x="611" 
d="M114 44q-75 54 -89 157l101 25q10 -76 58 -114.5t126 -38.5q64 0 104 32.5t40 83.5q0 31 -20 52.5t-50.5 35t-81.5 30.5q-66 22 -106 42t-68.5 55.5t-28.5 90.5q0 64 31.5 113t87 75.5t126.5 26.5q102 0 168.5 -45.5t80.5 -135.5l-100 -19q-8 61 -50 89t-103 28
q-60 0 -96.5 -33.5t-36.5 -82.5q0 -32 20 -53t50 -34t83 -30q65 -21 106 -40t69.5 -55t28.5 -92q0 -65 -33 -114.5t-91.5 -76t-133.5 -26.5q-117 0 -192 54z" />
    <glyph glyph-name="T" unicode="T" horiz-adv-x="623" 
d="M655 616h-230l-109 -616h-102l108 616h-230l15 84h563z" />
    <glyph glyph-name="U" unicode="U" horiz-adv-x="714" 
d="M146 52q-69 62 -69 176q0 35 6 72l70 400h103l-71 -406q-5 -33 -5 -56q0 -75 42 -117t123 -42q75 0 123.5 45.5t65.5 139.5l77 436h103l-80 -451q-23 -130 -99 -194.5t-191 -64.5q-129 0 -198 62z" />
    <glyph glyph-name="V" unicode="V" horiz-adv-x="649" 
d="M720 700l-381 -700h-122l-135 700h114l95 -607l309 607h120z" />
    <glyph glyph-name="W" unicode="W" horiz-adv-x="965" 
d="M1033 700l-288 -700h-146l-63 592l-263 -592h-145l-43 700h107l29 -601l262 601h149l50 -601l241 601h110z" />
    <glyph glyph-name="X" unicode="X" horiz-adv-x="629" 
d="M448 0l-126 294l-227 -294h-132l300 354l-172 346h121l124 -291l222 291h131l-293 -346l175 -354h-123z" />
    <glyph glyph-name="Y" unicode="Y" horiz-adv-x="629" 
d="M697 700l-328 -416l-49 -284h-105l50 283l-180 417h115l125 -354l250 354h122z" />
    <glyph glyph-name="Z" unicode="Z" horiz-adv-x="642" 
d="M654 626l-518 -546h433l-14 -80h-560l12 71l526 549h-423l14 80h543z" />
    <glyph glyph-name="bracketleft" unicode="[" horiz-adv-x="336" 
d="M252 710l-133 -755h128l-12 -70h-217l158 895h217l-13 -70h-128z" />
    <glyph glyph-name="backslash" unicode="\" horiz-adv-x="653" 
d="M488 0l-187 349l-198 351h92l175 -329l209 -371h-91z" />
    <glyph glyph-name="bracketright" unicode="]" horiz-adv-x="336" 
d="M107 -45l133 755h-128l12 70h217l-158 -895h-217l13 70h128z" />
    <glyph glyph-name="asciicircum" unicode="^" horiz-adv-x="471" 
d="M372 401l-71 226l-152 -226h-92l217 299h74l113 -299h-89z" />
    <glyph glyph-name="underscore" unicode="_" horiz-adv-x="498" 
d="M441 -57l-12 -68h-498l12 68h498z" />
    <glyph glyph-name="a" unicode="a" horiz-adv-x="593" 
d="M564 533l-94 -533h-98l22 100q-41 -53 -91 -81.5t-99 -28.5q-81 0 -123 56.5t-42 157.5q0 88 31.5 166t89.5 125.5t132 47.5q52 0 92 -27t64 -80l17 97h99zM329 96.5q41 27.5 75 81.5l32 188q-32 98 -120 98q-55 0 -95 -36t-60.5 -92.5t-20.5 -115.5q0 -72 27 -111.5
t83 -39.5q38 0 79 27.5z" />
    <glyph glyph-name="b" unicode="b" horiz-adv-x="593" 
d="M512 487q42 -56 42 -157q0 -88 -32 -166t-90 -126t-132 -48q-52 0 -92 27t-63 80l-17 -97h-98l122 700h97l-45 -261q41 51 89 77.5t96 26.5q81 0 123 -56zM371.5 105q39.5 36 60 93t20.5 116q0 150 -110 150q-38 0 -78.5 -27t-73.5 -81l-33 -189q31 -98 120 -98
q55 0 94.5 36z" />
    <glyph glyph-name="c" unicode="c" horiz-adv-x="541" 
d="M98 54.5q-55 64.5 -55 173.5q0 85 34 157t97 115t145 43q85 0 138 -47t68 -129l-95 -22q-6 57 -36 88t-81 31q-53 0 -92.5 -32.5t-60 -86.5t-20.5 -117q0 -77 31 -118t89 -41q54 0 93.5 33.5t59.5 90.5l92 -22q-32 -81 -98 -131t-154 -50q-100 0 -155 64.5z" />
    <glyph glyph-name="d" unicode="d" horiz-adv-x="593" 
d="M593 700l-123 -700h-98l22 101q-41 -54 -90.5 -82.5t-99.5 -28.5q-81 0 -123 56.5t-42 157.5q0 88 31.5 166t89.5 125.5t132 47.5q53 0 93 -27t63 -81l47 265h98zM328.5 96.5q40.5 27.5 74.5 81.5l33 187q-32 99 -120 99q-55 0 -95 -36t-60.5 -92.5t-20.5 -115.5
q0 -72 27 -111.5t83 -39.5q38 0 78.5 27.5z" />
    <glyph glyph-name="e" unicode="e" horiz-adv-x="552" 
d="M138 250q-1 -9 -1 -28q0 -154 128 -154q97 0 142 103l82 -28q-67 -152 -227 -152q-107 0 -163.5 59.5t-56.5 170.5q0 87 32.5 160.5t93.5 117.5t145 44q97 0 150.5 -55.5t53.5 -149.5q0 -39 -11 -88h-368zM206.5 428q-40.5 -42 -58.5 -111h271q2 20 2 29q0 59 -29 91.5
t-83 32.5q-62 0 -102.5 -42z" />
    <glyph glyph-name="f" unicode="f" horiz-adv-x="336" 
d="M244 542l-2 -9h130l-12 -74h-130l-80 -459h-99l81 459h-80l12 74h81l2 13q16 90 79.5 140.5t152.5 50.5q46 0 80 -15l-36 -76q-21 17 -59 17q-99 0 -120 -121z" />
    <glyph glyph-name="g" unicode="g" horiz-adv-x="586" 
d="M557 533l-86 -488q-16 -96 -84.5 -155.5t-179.5 -59.5q-90 0 -145 39.5t-71 108.5l87 27q10 -50 45 -80t90 -30q67 0 107.5 41.5t51.5 106.5l18 104q-39 -54 -89 -82t-103 -28q-75 0 -116.5 52.5t-41.5 139.5q0 80 29.5 152t86 117t132.5 45q52 0 91.5 -26.5t61.5 -81.5
l18 98h98zM329.5 143q41.5 27 74.5 82l27 150q-17 45 -46.5 67t-69.5 22q-56 0 -95 -32.5t-58.5 -83.5t-19.5 -104q0 -57 28 -92.5t77 -35.5q41 0 82.5 27z" />
    <glyph glyph-name="h" unicode="h" horiz-adv-x="587" 
d="M507.5 506.5q31.5 -36.5 31.5 -103.5q0 -32 -5 -58l-61 -345h-98l61 351q3 14 3 30q0 34 -16.5 57t-54.5 23q-83 0 -187 -150l-54 -311h-98l123 700h98l-65 -316q51 71 111 115t120 44t91.5 -36.5z" />
    <glyph glyph-name="i" unicode="i" horiz-adv-x="249" 
d="M122 533h99l-94 -533h-98zM160.5 647q-17.5 17 -17.5 46t17.5 46t46.5 17t47 -17t18 -46t-18 -46t-47 -17t-46.5 17z" />
    <glyph glyph-name="j" unicode="j" horiz-adv-x="248" 
d="M221 533l-89 -502q-17 -98 -74 -149.5t-143 -51.5h-18l-1 77q14 -5 32 -5q44 0 68.5 26.5t35.5 91.5l90 513h99zM157.5 647q-17.5 17 -17.5 46t17.5 46t46.5 17t47 -17t18 -46t-18 -46t-47 -17t-46.5 17z" />
    <glyph glyph-name="k" unicode="k" horiz-adv-x="574" 
d="M330 311l189 -311h-109l-146 258l-106 -84l-31 -174h-98l123 700h98l-77 -440l305 273h132z" />
    <glyph glyph-name="l" unicode="l" horiz-adv-x="279" 
d="M68.5 14q-24.5 23 -24.5 61q0 17 2 25l106 600h98l-103 -586q-2 -14 -2 -19q0 -14 7 -21.5t25 -7.5q23 0 43 15v-76q-36 -14 -72 -14q-55 0 -79.5 23z" />
    <glyph glyph-name="m" unicode="m" horiz-adv-x="933" 
d="M853.5 506.5q31.5 -36.5 31.5 -103.5q0 -32 -5 -58l-61 -345h-98l61 351q3 14 3 29q0 35 -16.5 58t-54.5 23q-83 0 -186 -148l-55 -313h-98l61 351q3 14 3 30q0 34 -16.5 57t-54.5 23q-82 0 -187 -146l-54 -315h-98l93 533h99l-34 -147q50 70 110 113.5t119 43.5
q62 0 93.5 -39.5t29.5 -110.5q49 68 107.5 109t116.5 41q59 0 90.5 -36.5z" />
    <glyph glyph-name="n" unicode="n" horiz-adv-x="587" 
d="M507.5 506.5q31.5 -36.5 31.5 -103.5q0 -32 -5 -58l-61 -345h-98l61 351q3 14 3 30q0 34 -16.5 57t-54.5 23q-82 0 -187 -146l-54 -315h-98l93 533h99l-34 -147q50 70 110 113.5t119 43.5q60 0 91.5 -36.5z" />
    <glyph glyph-name="o" unicode="o" horiz-adv-x="575" 
d="M475 479.5q58 -63.5 58 -171.5q0 -85 -33 -157.5t-95 -116t-144 -43.5q-104 0 -161 63t-57 172q0 85 33 157.5t94 116t143 43.5q104 0 162 -63.5zM358 105.5q39 36.5 58.5 92t19.5 111.5q0 75 -32.5 115t-93.5 40q-56 0 -95 -35t-58 -89.5t-18 -112.5q0 -75 32 -116.5
t92 -41.5q56 0 95 36.5z" />
    <glyph glyph-name="p" unicode="p" horiz-adv-x="593" 
d="M512 487q42 -56 42 -157q0 -88 -32 -166.5t-90 -126t-132 -47.5q-52 0 -92 27t-63 80l-45 -257h-98l120 693h99l-16 -93q40 50 88 76.5t96 26.5q81 0 123 -56zM371.5 105q39.5 36 60 93t20.5 116q0 150 -110 150q-37 0 -77.5 -27t-74.5 -80l-33 -191q30 -97 120 -97
q55 0 94.5 36z" />
    <glyph glyph-name="q" unicode="q" horiz-adv-x="593" 
d="M563 533l-122 -700h-97l45 262q-41 -51 -89 -78t-96 -27q-81 0 -123 56t-42 157q0 88 31.5 166.5t89.5 126t132 47.5q52 0 92 -27t64 -80l17 97h98zM329 96.5q41 27.5 75 81.5l32 187q-32 99 -120 99q-55 0 -95 -36t-60.5 -93t-20.5 -116q0 -72 27 -111t83 -39
q38 0 79 27.5z" />
    <glyph glyph-name="r" unicode="r" horiz-adv-x="382" 
d="M286 501.5q52 38.5 126 38.5l-18 -101q-18 3 -34 3q-57 0 -100 -38t-82 -114l-51 -290h-98l93 533h99l-26 -147q39 77 91 115.5z" />
    <glyph glyph-name="s" unicode="s" horiz-adv-x="481" 
d="M79.5 32q-58.5 42 -70.5 114l94 24q9 -56 44.5 -82t86.5 -26q48 0 75.5 21t27.5 57q0 26 -15 42.5t-38 25.5t-63 20q-52 14 -83.5 28t-54 43.5t-22.5 78.5q0 75 52.5 120t142.5 45q80 0 133 -36.5t62 -103.5l-88 -20q-6 45 -37 66.5t-74 21.5q-47 0 -73 -21t-26 -57
q0 -26 15.5 -42.5t38.5 -26t64 -21.5q52 -15 83.5 -29t54 -43t22.5 -77q0 -75 -55 -119.5t-148 -44.5q-90 0 -148.5 42z" />
    <glyph glyph-name="t" unicode="t" horiz-adv-x="357" 
d="M183 166q-5 -30 -5 -47q0 -28 12 -41t38 -13q31 0 58 16l7 -73q-36 -18 -82 -18q-132 0 -132 121q0 25 6 56l53 292h-87l13 74h91l49 167h73l-30 -167h130l-14 -74h-128z" />
    <glyph glyph-name="u" unicode="u" horiz-adv-x="587" 
d="M559 533l-94 -533h-99l34 147q-50 -70 -110 -113.5t-119 -43.5q-60 0 -91.5 36.5t-31.5 102.5q0 27 6 60l60 344h99l-62 -351q-3 -13 -3 -29q0 -35 16.5 -58t55.5 -23q46 0 93 41t93 105l54 315h99z" />
    <glyph glyph-name="v" unicode="v" horiz-adv-x="509" 
d="M548 533l-291 -533h-100l-101 533h106l61 -440l216 440h109z" />
    <glyph glyph-name="w" unicode="w" horiz-adv-x="780" 
d="M814 533l-237 -533h-111l-44 437l-195 -437h-117l-49 533h99l22 -445l192 445h126l38 -444l175 444h101z" />
    <glyph glyph-name="x" unicode="x" horiz-adv-x="488" 
d="M185 269l-129 264h110l87 -207l157 207h115l-222 -262l129 -271h-110l-87 210l-158 -210h-115z" />
    <glyph glyph-name="y" unicode="y" horiz-adv-x="586" 
d="M558 533l-86 -488q-39 -215 -258 -215q-87 0 -143.5 38.5t-69.5 109.5l83 26q8 -56 44.5 -82.5t86.5 -26.5q73 0 109.5 39.5t48.5 108.5l22 125q-49 -64 -105.5 -103t-112.5 -39q-60 0 -91.5 36.5t-31.5 102.5q0 27 6 60l54 308h99l-56 -315q-3 -13 -3 -29
q0 -34 16.5 -57t55.5 -23q83 0 185 148l29 164l19 112h99z" />
    <glyph glyph-name="z" unicode="z" horiz-adv-x="501" 
d="M489 460l-365 -381h305l-13 -79h-426l12 66l378 389h-303l14 78h410z" />
    <glyph glyph-name="braceleft" unicode="{" horiz-adv-x="367" 
d="M427 780l-13 -70h-24q-34 0 -58.5 -20t-30.5 -59l-20 -111q-17 -93 -50 -135t-100 -53q49 -8 70.5 -34t21.5 -78q0 -28 -8 -76l-20 -110q-2 -14 -2 -19q0 -30 17 -45t47 -15h25l-13 -70h-35q-61 0 -96.5 28.5t-35.5 84.5q0 10 4 38l21 122q5 30 5 47q0 49 -24.5 66.5
t-65.5 17.5h-8l15 87h9q49 0 83 27t48 103l22 123q13 75 61.5 113t119.5 38h35z" />
    <glyph glyph-name="bar" unicode="|" horiz-adv-x="313" 
d="M338 780l-158 -895h-87l158 895h87z" />
    <glyph glyph-name="braceright" unicode="}" horiz-adv-x="367" 
d="M356 376l-15 -87h-9q-49 0 -83 -27t-48 -103l-22 -123q-13 -75 -61.5 -113t-119.5 -38h-35l13 70h24q34 0 58.5 20t30.5 59l20 111q17 93 50 135t100 53q-49 8 -70.5 34t-21.5 78q0 28 8 76l20 110q2 14 2 19q0 30 -17 45t-47 15h-25l13 70h35q61 0 96.5 -28.5
t35.5 -84.5q0 -10 -4 -38l-21 -122q-5 -30 -5 -47q0 -49 24.5 -66.5t65.5 -17.5h8z" />
    <glyph glyph-name="asciitilde" unicode="~" 
d="M85 274q16 51 48.5 83t84.5 32q25 0 45.5 -6.5t57.5 -21.5q24 -12 42.5 -18t36.5 -6q30 0 49 14.5t27 36.5l60 -13q-15 -52 -47.5 -83.5t-84.5 -31.5q-26 0 -49 7.5t-56 21.5q-26 12 -43 17.5t-34 5.5q-30 0 -49 -15t-27 -37z" />
    <glyph glyph-name="exclamdown" unicode="&#xa1;" horiz-adv-x="339" 
d="M266 598q17 -17 17 -45q0 -29 -17 -45.5t-46 -16.5t-46.5 16.5t-17.5 45.5q0 28 17.5 45t46.5 17t46 -17zM167 -90h-119l94 446h84z" />
    <glyph glyph-name="cent" unicode="&#xa2;" 
d="M373 148q36 33 57 87l92 -22q-31 -80 -95 -129.5t-149 -51.5l-18 -115h-76l24 122q-71 19 -110 80t-39 151q0 79 30 147.5t86 113t129 52.5l18 117h76l-23 -118q68 -10 111 -56t56 -118l-95 -21q-6 49 -29 79t-61 37l-70 -392q50 4 86 37zM174.5 171.5
q18.5 -37.5 54.5 -51.5l67 383q-65 -15 -102.5 -81.5t-37.5 -153.5q0 -59 18.5 -96.5z" />
    <glyph glyph-name="sterling" unicode="&#xa3;" 
d="M255 160.5q-44 -48.5 -107 -83.5h372l-14 -77h-498l14 77q179 83 179 189v5h-139l12 66h109l-17 31q-21 36 -32 64t-11 65q0 63 30.5 111.5t86 75t128.5 26.5q59 0 110.5 -22t85.5 -61l-73 -60q-21 28 -53 42.5t-69 14.5q-66 0 -106.5 -36t-40.5 -94q0 -27 10 -53.5
t29 -62.5q12 -22 20 -41h211l-12 -66h-181v-7q0 -55 -44 -103.5z" />
    <glyph glyph-name="yen" unicode="&#xa5;" 
d="M417 362h125l-11 -60h-162l-14 -18l-10 -56h173l-10 -61h-173l-29 -167h-105l29 167h-178l10 61h178l10 55l-8 19h-167l11 60h130l-145 338h114l126 -354l250 354h122z" />
    <glyph glyph-name="brokenbar" unicode="&#xa6;" horiz-adv-x="314" 
d="M339 780l-61 -341h-87l61 341h87zM241 226l-60 -341h-87l60 341h87z" />
    <glyph glyph-name="section" unicode="&#xa7;" horiz-adv-x="595" 
d="M504.5 208q-36.5 -35 -97.5 -46q50 -43 50 -102q0 -45 -24.5 -80t-69 -54.5t-102.5 -19.5q-72 0 -124 33.5t-64 97.5l75 15q9 -40 40.5 -61t74.5 -21q45 0 71 20.5t26 52.5t-30.5 55t-92.5 53q-54 26 -87.5 46t-57 51t-23.5 73q0 51 38 85.5t97 46.5q-51 44 -51 102
q0 45 24.5 80.5t69 55t103.5 19.5q70 0 121.5 -32.5t65.5 -96.5l-76 -17q-9 41 -40.5 61.5t-73.5 20.5q-44 0 -70.5 -20.5t-26.5 -52.5t30 -54.5t93 -52.5q55 -27 88 -47.5t56.5 -51.5t23.5 -72q0 -52 -36.5 -87zM422.5 232q19.5 21 19.5 44q0 32 -30 54.5t-92 52.5
q-60 32 -68 36q-45 -13 -64.5 -34.5t-19.5 -44.5q0 -32 29.5 -54.5t91.5 -52.5q10 -5 32 -16.5t38 -20.5q44 15 63.5 36z" />
    <glyph glyph-name="copyright" unicode="&#xa9;" horiz-adv-x="798" 
d="M230 40.5q-82 46.5 -128 128.5t-46 183t46.5 183t128.5 128.5t185 46.5q102 0 184 -46.5t128 -127.5t46 -182q0 -102 -46.5 -184t-128.5 -129t-185 -47q-102 0 -184 46.5zM570.5 83q69.5 41 109.5 112.5t40 158.5q0 86 -39.5 156.5t-109 111t-155.5 40.5
q-87 0 -156.5 -41t-109 -111.5t-39.5 -157.5t39.5 -157.5t108.5 -111.5t155 -41q87 0 156.5 41zM289 209.5q-50 53.5 -50 140.5q0 89 50 142.5t132 53.5q61 0 106 -32.5t61 -98.5l-56 -13q-10 45 -39 68t-72 23q-55 0 -88 -38.5t-33 -104.5q0 -65 33 -103.5t88 -38.5
q43 0 72 23.5t39 68.5l56 -13q-15 -63 -58 -97t-109 -34q-82 0 -132 53.5z" />
    <glyph glyph-name="ordfeminine" unicode="&#xaa;" horiz-adv-x="466" 
d="M487 700l-71 -409h-90l12 67q-33 -36 -71 -55.5t-74 -19.5q-65 0 -98.5 44t-33.5 121q0 70 25 130t71 96t105 36q87 0 124 -80l12 70h89zM349 422l26 147q-25 73 -91 73q-41 0 -71.5 -26.5t-46 -67.5t-15.5 -84q0 -54 21 -83t65 -29q58 0 112 70z" />
    <glyph glyph-name="guillemotleft" unicode="&#xab;" horiz-adv-x="503" 
d="M216 479h90q-41 -93 -174 -188q98 -94 107 -188h-90q-6 88 -92 177l4 22q116 87 155 177zM393 479h90q-41 -93 -174 -188q98 -94 107 -188h-90q-6 88 -92 177l4 22q116 87 155 177z" />
    <glyph glyph-name="registered" unicode="&#xae;" horiz-adv-x="531" 
d="M418.5 679.5q51.5 -30.5 81 -82t29.5 -113.5t-30 -113.5t-81 -81t-113 -29.5t-114 29.5t-82.5 80.5t-30.5 114q0 62 30 113.5t82.5 82t114.5 30.5t113.5 -30.5zM401 317.5q43 24.5 67.5 68.5t24.5 99q0 56 -24 99.5t-67.5 68t-97.5 24.5q-55 0 -97.5 -24.5t-66 -68.5
t-23.5 -100t24.5 -99.5t67.5 -67.5t96 -24t96 24.5zM389 438l17 -60h-41l-12 55q-5 19 -19 26.5t-39 8.5h-37v-90h-39v222h109q35 0 54 -18t19 -44q0 -21 -15.5 -35.5t-42.5 -21.5q35 -10 46 -43zM318 500q20 0 31.5 9.5t11.5 25.5q0 32 -35 32h-68v-67h60z" />
    <glyph glyph-name="degree" unicode="&#xb0;" horiz-adv-x="434" 
d="M184 425q-38 21 -59.5 58t-21.5 84q0 45 22 81.5t60.5 57.5t86.5 21q47 0 84.5 -21t59 -57.5t21.5 -81.5q0 -47 -21.5 -84t-59.5 -58t-86 -21t-86 21zM338 493.5q25 27.5 25 73.5q0 44 -25.5 70.5t-67.5 26.5q-41 0 -66 -26.5t-25 -70.5q0 -46 25.5 -73.5t67.5 -27.5
q41 0 66 27.5z" />
    <glyph glyph-name="plusminus" unicode="&#xb1;" 
d="M283 381h-173l12 70h174l25 147h76l-25 -147h172l-13 -70h-172l-25 -144h-76zM72 171h422l-12 -70h-422z" />
    <glyph glyph-name="uni00B2" unicode="&#xb2;" horiz-adv-x="380" 
d="M153 421h235l-12 -65h-331l9 55l148 103q53 37 79.5 58t44.5 47t18 56q0 34 -21.5 52.5t-55.5 18.5q-43 0 -70 -31t-23 -94h-80q1 96 50.5 142.5t128.5 46.5q71 0 112 -36t41 -95q0 -61 -49 -109t-158 -110z" />
    <glyph glyph-name="uni00B3" unicode="&#xb3;" horiz-adv-x="408" 
d="M391 548q28 -27 28 -70q0 -57 -50.5 -92.5t-126.5 -35.5q-74 0 -123 35t-56 95l79 19q4 -44 32.5 -65t69.5 -21q42 0 67 21t25 53q0 29 -23 48.5t-66 19.5h-32l9 58h47q40 0 64.5 18t24.5 50q0 30 -21.5 47.5t-55.5 17.5q-35 0 -61 -19.5t-36 -53.5l-74 22q17 53 60 84
t111 31q71 0 115 -33t44 -87q0 -48 -35 -74.5t-94 -31.5q50 -9 78 -36z" />
    <glyph glyph-name="paragraph" unicode="&#xb6;" 
d="M239 299q-83 0 -131.5 45.5t-48.5 120.5q0 68 34 122t91.5 84t125.5 30h267l-124 -701h-70l113 639h-94l-113 -639h-70l53 299h-33z" />
    <glyph glyph-name="periodcentered" unicode="&#xb7;" horiz-adv-x="275" 
d="M97.5 260q-17.5 17 -17.5 46t17.5 46t46.5 17t47 -17t18 -46t-18 -46t-47 -17t-46.5 17z" />
    <glyph glyph-name="uni00B9" unicode="&#xb9;" horiz-adv-x="285" 
d="M313 800l-79 -448h-78l67 380q-33 -48 -113 -82l-20 66q59 20 94.5 39.5t62.5 44.5h66z" />
    <glyph glyph-name="ordmasculine" unicode="&#xba;" horiz-adv-x="458" 
d="M115.5 334.5q-51.5 50.5 -51.5 137.5q0 67 28 121t78 85.5t114 31.5q90 0 141 -50.5t51 -131.5q0 -70 -28 -125.5t-78.5 -87t-114.5 -31.5q-88 0 -139.5 50.5zM352 403q35 51 35 125q0 54 -27.5 84t-78.5 30q-41 0 -70 -24t-44 -63.5t-15 -82.5q0 -59 27.5 -89.5
t77.5 -30.5q60 0 95 51z" />
    <glyph glyph-name="guillemotright" unicode="&#xbb;" horiz-adv-x="504" 
d="M119 103h-89q42 95 174 188q-99 93 -108 188h90q8 -90 92 -177l-3 -22q-116 -87 -156 -177zM296 103h-90q41 93 174 188q-98 94 -107 188h90q6 -88 92 -177l-4 -22q-116 -87 -155 -177z" />
    <glyph glyph-name="onequarter" unicode="&#xbc;" horiz-adv-x="861" 
d="M295 700l-79 -448h-78l67 380q-33 -48 -113 -82l-20 66q59 20 94.5 39.5t62.5 44.5h66zM395 360l263 340h81l-298 -363l-259 -337h-81zM801 105h-56l-19 -105h-80l19 105h-233l9 52l259 291h105l-50 -281h58zM676 167l40 223l-194 -223h154z" />
    <glyph glyph-name="onehalf" unicode="&#xbd;" horiz-adv-x="892" 
d="M295 700l-79 -448h-78l67 380q-33 -48 -113 -82l-20 66q59 20 94.5 39.5t62.5 44.5h66zM395 360l263 340h81l-298 -363l-259 -337h-81zM602 65h235l-12 -65h-331l9 55l148 103q53 37 79.5 58t44.5 47t18 56q0 34 -21.5 52.5t-55.5 18.5q-43 0 -70 -31t-23 -94h-80
q1 96 50.5 142.5t128.5 46.5q71 0 112 -36t41 -95q0 -61 -49 -109t-158 -110z" />
    <glyph glyph-name="threequarters" unicode="&#xbe;" horiz-adv-x="971" 
d="M373 448q28 -27 28 -70q0 -57 -50.5 -92.5t-126.5 -35.5q-74 0 -123 35t-56 95l79 19q4 -44 32.5 -65t69.5 -21q42 0 67 21t25 53q0 29 -23 48.5t-66 19.5h-32l9 58h47q40 0 64.5 18t24.5 50q0 30 -21.5 47.5t-55.5 17.5q-35 0 -61 -19.5t-36 -53.5l-74 22q17 53 60 84
t111 31q71 0 115 -33t44 -87q0 -48 -35 -74.5t-94 -31.5q50 -9 78 -36zM504 360l263 340h81l-298 -363l-259 -337h-81zM911 105h-56l-19 -105h-80l19 105h-233l9 52l259 291h105l-50 -281h58zM786 167l40 223l-194 -223h154z" />
    <glyph glyph-name="questiondown" unicode="&#xbf;" horiz-adv-x="563" 
d="M385.5 603q17.5 -17 17.5 -45q0 -29 -17.5 -45.5t-46.5 -16.5t-46.5 16.5t-17.5 45.5q0 28 17.5 45t46.5 17t46.5 -17zM350 350q-6 -39 -34 -65.5t-81 -60.5q-38 -25 -60.5 -43t-38 -42.5t-15.5 -55.5q0 -43 31 -70t82 -27q64 0 100.5 40t36.5 102q0 16 -3 34h97
q1 -10 1 -29q0 -107 -63.5 -167t-170.5 -60q-93 0 -152 46t-59 123q0 47 19 80.5t45.5 54.5t69.5 47q46 28 69 48t28 49l2 8h98z" />
    <glyph glyph-name="Agrave" unicode="&#xc0;" horiz-adv-x="689" 
d="M506 137h-365l-75 -137h-105l389 700h140l143 -700h-101zM491 214l-79 420l-229 -420h308zM419 772l-173 160h138l90 -160h-55z" />
    <glyph glyph-name="Aacute" unicode="&#xc1;" horiz-adv-x="689" 
d="M506 137h-365l-75 -137h-105l389 700h140l143 -700h-101zM491 214l-79 420l-229 -420h308zM495 932h138l-173 -160h-55z" />
    <glyph glyph-name="Acircumflex" unicode="&#xc2;" horiz-adv-x="689" 
d="M506 137h-365l-75 -137h-105l389 700h140l143 -700h-101zM491 214l-79 420l-229 -420h308zM530 772l-76 104l-119 -104h-62l137 160h105l77 -160h-62z" />
    <glyph glyph-name="Atilde" unicode="&#xc3;" horiz-adv-x="689" 
d="M506 137h-365l-75 -137h-105l389 700h140l143 -700h-101zM491 214l-79 420l-229 -420h308zM463.5 815.5q-12.5 6.5 -27.5 19.5q-12 9 -19 13.5t-18 4.5q-32 0 -41 -39h-71q11 53 42 78.5t71 25.5q20 0 33 -6.5t27 -18.5q11 -10 18.5 -14.5t18.5 -4.5q33 0 41 39h70
q-9 -53 -38.5 -78.5t-72.5 -25.5q-21 0 -33.5 6.5z" />
    <glyph glyph-name="Adieresis" unicode="&#xc4;" horiz-adv-x="689" 
d="M506 137h-365l-75 -137h-105l389 700h140l143 -700h-101zM491 214l-79 420l-229 -420h308zM301.5 807q-17.5 17 -17.5 45t17.5 45t46.5 17t46 -17t17 -45t-17 -45t-46 -17t-46.5 17zM499 807q-17 17 -17 45t17 45t46 17t46.5 -17t17.5 -45t-17.5 -45t-46.5 -17t-46 17z
" />
    <glyph glyph-name="Aring" unicode="&#xc5;" horiz-adv-x="689" 
d="M506 137h-365l-75 -137h-105l389 700h140l143 -700h-101zM491 214l-79 420l-229 -420h308zM378 796q-30 28 -30 69t30 68.5t72 27.5q41 0 71 -27.5t30 -68.5t-30 -69t-71 -28q-42 0 -72 28zM483.5 830.5q13.5 13.5 13.5 34.5t-13.5 34t-33.5 13q-21 0 -34.5 -13
t-13.5 -34t13.5 -34.5t34.5 -13.5q20 0 33.5 13.5z" />
    <glyph glyph-name="AE" unicode="&#xc6;" horiz-adv-x="1058" 
d="M671 616l-36 -209h355l-15 -84h-355l-42 -239h384l-15 -84h-486l24 134h-299l-105 -134h-120l559 700h550l-14 -84h-385zM571 625l-322 -411h250z" />
    <glyph glyph-name="Ccedilla" unicode="&#xc7;" horiz-adv-x="725" 
d="M497 126.5q57 47.5 87 129.5l95 -30q-42 -109 -124.5 -172.5t-197.5 -63.5q-15 0 -22 1l-25 -58h5q37 -3 59 -25t22 -55q0 -44 -29.5 -70.5t-77.5 -26.5q-45 0 -75 25.5t-34 63.5l61 14q0 -23 13 -35.5t34 -12.5q19 0 31.5 11t12.5 28q0 18 -13 29t-35 11h-28l-10 32
l41 74q-105 21 -166.5 100t-61.5 203q0 110 45.5 204t127.5 150.5t187 56.5q117 0 195 -64t94 -175l-101 -26q-10 81 -61 128.5t-131 47.5q-76 0 -133 -45.5t-87 -119t-30 -155.5q0 -103 52 -162.5t145 -59.5q78 0 135 47.5z" />
    <glyph glyph-name="Egrave" unicode="&#xc8;" horiz-adv-x="636" 
d="M249 616l-36 -209h355l-16 -84h-354l-42 -239h383l-14 -84h-486l123 700h486l-14 -84h-385zM393 772l-173 160h138l90 -160h-55z" />
    <glyph glyph-name="Eacute" unicode="&#xc9;" horiz-adv-x="636" 
d="M249 616l-36 -209h355l-16 -84h-354l-42 -239h383l-14 -84h-486l123 700h486l-14 -84h-385zM469 932h138l-173 -160h-55z" />
    <glyph glyph-name="Ecircumflex" unicode="&#xca;" horiz-adv-x="636" 
d="M249 616l-36 -209h355l-16 -84h-354l-42 -239h383l-14 -84h-486l123 700h486l-14 -84h-385zM504 772l-76 104l-119 -104h-62l137 160h105l77 -160h-62z" />
    <glyph glyph-name="Edieresis" unicode="&#xcb;" horiz-adv-x="636" 
d="M249 616l-36 -209h355l-16 -84h-354l-42 -239h383l-14 -84h-486l123 700h486l-14 -84h-385zM275.5 807q-17.5 17 -17.5 45t17.5 45t46.5 17t46 -17t17 -45t-17 -45t-46 -17t-46.5 17zM473 807q-17 17 -17 45t17 45t46 17t46.5 -17t17.5 -45t-17.5 -45t-46.5 -17t-46 17z
" />
    <glyph glyph-name="Igrave" unicode="&#xcc;" horiz-adv-x="293" 
d="M172 700h102l-123 -700h-102zM221 772l-173 160h138l90 -160h-55z" />
    <glyph glyph-name="Iacute" unicode="&#xcd;" horiz-adv-x="293" 
d="M172 700h102l-123 -700h-102zM297 932h138l-173 -160h-55z" />
    <glyph glyph-name="Icircumflex" unicode="&#xce;" horiz-adv-x="293" 
d="M172 700h102l-123 -700h-102zM332 772l-76 104l-119 -104h-62l137 160h105l77 -160h-62z" />
    <glyph glyph-name="Idieresis" unicode="&#xcf;" horiz-adv-x="293" 
d="M172 700h102l-123 -700h-102zM103.5 807q-17.5 17 -17.5 45t17.5 45t46.5 17t46 -17t17 -45t-17 -45t-46 -17t-46.5 17zM301 807q-17 17 -17 45t17 45t46 17t46.5 -17t17.5 -45t-17.5 -45t-46.5 -17t-46 17z" />
    <glyph glyph-name="Eth" unicode="&#xd0;" horiz-adv-x="723" 
d="M609 621.5q86 -78.5 86 -222.5q0 -117 -57 -207.5t-158.5 -141t-232.5 -50.5h-208l55 315h-77l13 69h76l56 316h201q160 0 246 -78.5zM427.5 122.5q78.5 39.5 121.5 110t43 160.5q0 106 -60.5 164.5t-174.5 58.5h-108l-41 -232h197l-13 -69h-196l-40 -232h90
q103 0 181.5 39.5z" />
    <glyph glyph-name="Ntilde" unicode="&#xd1;" horiz-adv-x="766" 
d="M757 700l-123 -700h-135l-254 610l-107 -610h-99l123 700h142l249 -595l105 595h99zM501.5 815.5q-12.5 6.5 -27.5 19.5q-12 9 -19 13.5t-18 4.5q-32 0 -41 -39h-71q11 53 42 78.5t71 25.5q20 0 33 -6.5t27 -18.5q11 -10 18.5 -14.5t18.5 -4.5q33 0 41 39h70
q-9 -53 -38.5 -78.5t-72.5 -25.5q-21 0 -33.5 6.5z" />
    <glyph glyph-name="Ograve" unicode="&#xd2;" horiz-adv-x="745" 
d="M201.5 27q-68.5 37 -106 105.5t-37.5 160.5q0 113 45 208.5t126.5 152t185.5 56.5q89 0 157.5 -37t106 -106t37.5 -161q0 -113 -44.5 -208.5t-126 -151.5t-186.5 -56q-89 0 -157.5 37zM494 124q56 45 85.5 119t29.5 158q0 100 -52.5 160t-145.5 60q-75 0 -131 -45.5
t-86 -119.5t-30 -159q0 -100 53 -159t146 -59q75 0 131 45zM448 772l-173 160h138l90 -160h-55z" />
    <glyph glyph-name="Oacute" unicode="&#xd3;" horiz-adv-x="745" 
d="M201.5 27q-68.5 37 -106 105.5t-37.5 160.5q0 113 45 208.5t126.5 152t185.5 56.5q89 0 157.5 -37t106 -106t37.5 -161q0 -113 -44.5 -208.5t-126 -151.5t-186.5 -56q-89 0 -157.5 37zM494 124q56 45 85.5 119t29.5 158q0 100 -52.5 160t-145.5 60q-75 0 -131 -45.5
t-86 -119.5t-30 -159q0 -100 53 -159t146 -59q75 0 131 45zM524 932h138l-173 -160h-55z" />
    <glyph glyph-name="Ocircumflex" unicode="&#xd4;" horiz-adv-x="745" 
d="M201.5 27q-68.5 37 -106 105.5t-37.5 160.5q0 113 45 208.5t126.5 152t185.5 56.5q89 0 157.5 -37t106 -106t37.5 -161q0 -113 -44.5 -208.5t-126 -151.5t-186.5 -56q-89 0 -157.5 37zM494 124q56 45 85.5 119t29.5 158q0 100 -52.5 160t-145.5 60q-75 0 -131 -45.5
t-86 -119.5t-30 -159q0 -100 53 -159t146 -59q75 0 131 45zM559 772l-76 104l-119 -104h-62l137 160h105l77 -160h-62z" />
    <glyph glyph-name="Otilde" unicode="&#xd5;" horiz-adv-x="745" 
d="M201.5 27q-68.5 37 -106 105.5t-37.5 160.5q0 113 45 208.5t126.5 152t185.5 56.5q89 0 157.5 -37t106 -106t37.5 -161q0 -113 -44.5 -208.5t-126 -151.5t-186.5 -56q-89 0 -157.5 37zM494 124q56 45 85.5 119t29.5 158q0 100 -52.5 160t-145.5 60q-75 0 -131 -45.5
t-86 -119.5t-30 -159q0 -100 53 -159t146 -59q75 0 131 45zM492.5 815.5q-12.5 6.5 -27.5 19.5q-12 9 -19 13.5t-18 4.5q-32 0 -41 -39h-71q11 53 42 78.5t71 25.5q20 0 33 -6.5t27 -18.5q11 -10 18.5 -14.5t18.5 -4.5q33 0 41 39h70q-9 -53 -38.5 -78.5t-72.5 -25.5
q-21 0 -33.5 6.5z" />
    <glyph glyph-name="Odieresis" unicode="&#xd6;" horiz-adv-x="745" 
d="M201.5 27q-68.5 37 -106 105.5t-37.5 160.5q0 113 45 208.5t126.5 152t185.5 56.5q89 0 157.5 -37t106 -106t37.5 -161q0 -113 -44.5 -208.5t-126 -151.5t-186.5 -56q-89 0 -157.5 37zM494 124q56 45 85.5 119t29.5 158q0 100 -52.5 160t-145.5 60q-75 0 -131 -45.5
t-86 -119.5t-30 -159q0 -100 53 -159t146 -59q75 0 131 45zM330.5 807q-17.5 17 -17.5 45t17.5 45t46.5 17t46 -17t17 -45t-17 -45t-46 -17t-46.5 17zM528 807q-17 17 -17 45t17 45t46 17t46.5 -17t17.5 -45t-17.5 -45t-46.5 -17t-46 17z" />
    <glyph glyph-name="multiply" unicode="&#xd7;" 
d="M366 331l135 -163l-60 -51l-135 164l-196 -168l-45 55l196 167l-136 166l59 50l137 -165l193 165l46 -54z" />
    <glyph glyph-name="Oslash" unicode="&#xd8;" horiz-adv-x="745" 
d="M671 580q45 -73 45 -174q0 -113 -44.5 -208.5t-126 -151.5t-186.5 -56q-65 0 -120.5 20.5t-95.5 59.5l-104 -103l-48 48l112 106q-45 73 -45 172q0 113 45 208.5t126.5 152t185.5 56.5q65 0 120.5 -20.5t95.5 -59.5l106 104l47 -46zM182 196l171 163l205 200
q-53 62 -147 62q-75 0 -131 -45.5t-86 -119.5t-30 -159q0 -58 18 -101zM591 505l-180 -171l-196 -194q53 -61 148 -61q75 0 131 45t85.5 119t29.5 158q0 59 -18 104z" />
    <glyph glyph-name="Ugrave" unicode="&#xd9;" horiz-adv-x="714" 
d="M146 52q-69 62 -69 176q0 35 6 72l70 400h103l-71 -406q-5 -33 -5 -56q0 -75 42 -117t123 -42q75 0 123.5 45.5t65.5 139.5l77 436h103l-80 -451q-23 -130 -99 -194.5t-191 -64.5q-129 0 -198 62zM432 772l-173 160h138l90 -160h-55z" />
    <glyph glyph-name="Uacute" unicode="&#xda;" horiz-adv-x="714" 
d="M146 52q-69 62 -69 176q0 35 6 72l70 400h103l-71 -406q-5 -33 -5 -56q0 -75 42 -117t123 -42q75 0 123.5 45.5t65.5 139.5l77 436h103l-80 -451q-23 -130 -99 -194.5t-191 -64.5q-129 0 -198 62zM508 932h138l-173 -160h-55z" />
    <glyph glyph-name="Ucircumflex" unicode="&#xdb;" horiz-adv-x="714" 
d="M146 52q-69 62 -69 176q0 35 6 72l70 400h103l-71 -406q-5 -33 -5 -56q0 -75 42 -117t123 -42q75 0 123.5 45.5t65.5 139.5l77 436h103l-80 -451q-23 -130 -99 -194.5t-191 -64.5q-129 0 -198 62zM543 772l-76 104l-119 -104h-62l137 160h105l77 -160h-62z" />
    <glyph glyph-name="Udieresis" unicode="&#xdc;" horiz-adv-x="714" 
d="M146 52q-69 62 -69 176q0 35 6 72l70 400h103l-71 -406q-5 -33 -5 -56q0 -75 42 -117t123 -42q75 0 123.5 45.5t65.5 139.5l77 436h103l-80 -451q-23 -130 -99 -194.5t-191 -64.5q-129 0 -198 62zM314.5 807q-17.5 17 -17.5 45t17.5 45t46.5 17t46 -17t17 -45t-17 -45
t-46 -17t-46.5 17zM512 807q-17 17 -17 45t17 45t46 17t46.5 -17t17.5 -45t-17.5 -45t-46.5 -17t-46 17z" />
    <glyph glyph-name="Yacute" unicode="&#xdd;" horiz-adv-x="629" 
d="M697 700l-328 -416l-49 -284h-105l50 283l-180 417h115l125 -354l250 354h122zM465 932h138l-173 -160h-55z" />
    <glyph glyph-name="Thorn" unicode="&#xde;" horiz-adv-x="647" 
d="M579 524q58 -51 58 -137q0 -74 -38.5 -127t-105 -80.5t-149.5 -27.5h-176l-27 -152h-102l123 700h102l-22 -125h169q110 0 168 -51zM484 268.5q48 36.5 48 104.5q0 55 -35 87.5t-104 32.5h-166l-45 -261h168q86 0 134 36.5z" />
    <glyph glyph-name="germandbls" unicode="&#xdf;" horiz-adv-x="627" 
d="M563 186q0 -58 -30.5 -102.5t-84 -69t-121.5 -24.5q-60 0 -128 22l15 87q27 -16 57.5 -23.5t56.5 -7.5q61 0 98.5 34.5t37.5 89.5q0 110 -170 141l12 72q74 7 121.5 38.5t47.5 87.5q0 47 -33.5 74.5t-87.5 27.5q-59 0 -93 -34.5t-47 -105.5l-88 -493h-98l91 516
q16 94 79 144t158 50q60 0 110 -19.5t80 -57.5t30 -92q0 -74 -55.5 -117t-149.5 -55q192 -42 192 -183z" />
    <glyph glyph-name="agrave" unicode="&#xe0;" horiz-adv-x="593" 
d="M564 533l-94 -533h-98l22 100q-41 -53 -91 -81.5t-99 -28.5q-81 0 -123 56.5t-42 157.5q0 88 31.5 166t89.5 125.5t132 47.5q52 0 92 -27t64 -80l17 97h99zM329 96.5q41 27.5 75 81.5l32 188q-32 98 -120 98q-55 0 -95 -36t-60.5 -92.5t-20.5 -115.5q0 -72 27 -111.5
t83 -39.5q38 0 79 27.5zM339 612l-173 160h137l90 -160h-54z" />
    <glyph glyph-name="aacute" unicode="&#xe1;" horiz-adv-x="593" 
d="M564 533l-94 -533h-98l22 100q-41 -53 -91 -81.5t-99 -28.5q-81 0 -123 56.5t-42 157.5q0 88 31.5 166t89.5 125.5t132 47.5q52 0 92 -27t64 -80l17 97h99zM329 96.5q41 27.5 75 81.5l32 188q-32 98 -120 98q-55 0 -95 -36t-60.5 -92.5t-20.5 -115.5q0 -72 27 -111.5
t83 -39.5q38 0 79 27.5zM403 772h138l-174 -160h-54z" />
    <glyph glyph-name="acircumflex" unicode="&#xe2;" horiz-adv-x="593" 
d="M564 533l-94 -533h-98l22 100q-41 -53 -91 -81.5t-99 -28.5q-81 0 -123 56.5t-42 157.5q0 88 31.5 166t89.5 125.5t132 47.5q52 0 92 -27t64 -80l17 97h99zM329 96.5q41 27.5 75 81.5l32 188q-32 98 -120 98q-55 0 -95 -36t-60.5 -92.5t-20.5 -115.5q0 -72 27 -111.5
t83 -39.5q38 0 79 27.5zM456 612l-77 104l-119 -104h-62l138 160h104l77 -160h-61z" />
    <glyph glyph-name="atilde" unicode="&#xe3;" horiz-adv-x="593" 
d="M564 533l-94 -533h-98l22 100q-41 -53 -91 -81.5t-99 -28.5q-81 0 -123 56.5t-42 157.5q0 88 31.5 166t89.5 125.5t132 47.5q52 0 92 -27t64 -80l17 97h99zM329 96.5q41 27.5 75 81.5l32 188q-32 98 -120 98q-55 0 -95 -36t-60.5 -92.5t-20.5 -115.5q0 -72 27 -111.5
t83 -39.5q38 0 79 27.5zM387.5 648.5q-12.5 6.5 -27.5 19.5q-2 1 -9 7t-14.5 8.5t-14.5 2.5q-32 0 -41 -39h-71q11 53 41.5 78.5t71.5 25.5q21 0 33.5 -6.5t26.5 -18.5q12 -9 19 -13.5t18 -4.5q32 0 42 38h70q-9 -52 -39 -78t-72 -26q-21 0 -33.5 6.5z" />
    <glyph glyph-name="adieresis" unicode="&#xe4;" horiz-adv-x="593" 
d="M564 533l-94 -533h-98l22 100q-41 -53 -91 -81.5t-99 -28.5q-81 0 -123 56.5t-42 157.5q0 88 31.5 166t89.5 125.5t132 47.5q52 0 92 -27t64 -80l17 97h99zM329 96.5q41 27.5 75 81.5l32 188q-32 98 -120 98q-55 0 -95 -36t-60.5 -92.5t-20.5 -115.5q0 -72 27 -111.5
t83 -39.5q38 0 79 27.5zM223 648q-17 17 -17 45q0 29 17 45.5t46 16.5t46.5 -16.5t17.5 -45.5q0 -28 -17.5 -45t-46.5 -17t-46 17zM421 648q-17 17 -17 45q0 29 17 45.5t46 16.5t46.5 -16.5t17.5 -45.5q0 -28 -17.5 -45t-46.5 -17t-46 17z" />
    <glyph glyph-name="aring" unicode="&#xe5;" horiz-adv-x="593" 
d="M564 533l-94 -533h-98l22 100q-41 -53 -91 -81.5t-99 -28.5q-81 0 -123 56.5t-42 157.5q0 88 31.5 166t89.5 125.5t132 47.5q52 0 92 -27t64 -80l17 97h99zM329 96.5q41 27.5 75 81.5l32 188q-32 98 -120 98q-55 0 -95 -36t-60.5 -92.5t-20.5 -115.5q0 -72 27 -111.5
t83 -39.5q38 0 79 27.5zM301 630.5q-30 27.5 -30 68.5t30 68.5t72 27.5q41 0 71 -27.5t30 -68.5t-30 -68.5t-71 -27.5q-42 0 -72 27.5zM406.5 664.5q13.5 13.5 13.5 34.5t-13.5 34.5t-33.5 13.5t-34 -13.5t-14 -34.5t14 -34.5t34 -13.5t33.5 13.5z" />
    <glyph glyph-name="ae" unicode="&#xe6;" horiz-adv-x="885" 
d="M471 250q-1 -9 -1 -28q0 -154 128 -154q50 0 84.5 25.5t57.5 77.5l82 -28q-34 -78 -92 -115t-134 -37t-127.5 31t-74.5 90q-111 -122 -232 -122q-64 0 -103.5 35t-39.5 91q0 106 101.5 153.5t264.5 47.5l7 39q2 18 2 26q0 42 -26 63t-75 21q-39 0 -71 -19.5t-56 -73.5
l-83 34q35 73 90 104t126 31q59 0 102 -18.5t65 -54.5q72 74 180 74q98 0 151 -55.5t53 -150.5q0 -43 -10 -87h-369zM539.5 428q-40.5 -42 -58.5 -111h271q2 22 2 30q0 59 -29 91t-83 32q-62 0 -102.5 -42zM299 93q47 27 81 68q-5 30 -5 60q0 21 1 32q-113 -3 -184 -31.5
t-71 -94.5q0 -29 21.5 -45t59.5 -16q50 0 97 27z" />
    <glyph glyph-name="ccedilla" unicode="&#xe7;" horiz-adv-x="541" 
d="M353.5 102.5q39.5 33.5 59.5 90.5l92 -22q-30 -78 -92 -127.5t-145 -53.5l-23 -53h5q37 -3 59 -25t22 -55q0 -44 -29.5 -70.5t-78.5 -26.5q-45 0 -74.5 25.5t-34.5 63.5l61 14q1 -23 13.5 -35.5t34.5 -12.5q19 0 31.5 11t12.5 28q0 18 -13 29t-35 11h-28l-10 32l37 66
q-84 12 -129.5 75t-45.5 161q0 85 34 157t97 115t145 43q85 0 138 -47t68 -129l-95 -22q-6 57 -36 88t-81 31q-53 0 -92.5 -32.5t-60 -86.5t-20.5 -117q0 -77 31 -118t89 -41q54 0 93.5 33.5z" />
    <glyph glyph-name="egrave" unicode="&#xe8;" horiz-adv-x="552" 
d="M138 250q-1 -9 -1 -28q0 -154 128 -154q97 0 142 103l82 -28q-67 -152 -227 -152q-107 0 -163.5 59.5t-56.5 170.5q0 87 32.5 160.5t93.5 117.5t145 44q97 0 150.5 -55.5t53.5 -149.5q0 -39 -11 -88h-368zM206.5 428q-40.5 -42 -58.5 -111h271q2 20 2 29q0 59 -29 91.5
t-83 32.5q-62 0 -102.5 -42zM318 612l-173 160h137l90 -160h-54z" />
    <glyph glyph-name="eacute" unicode="&#xe9;" horiz-adv-x="552" 
d="M138 250q-1 -9 -1 -28q0 -154 128 -154q97 0 142 103l82 -28q-67 -152 -227 -152q-107 0 -163.5 59.5t-56.5 170.5q0 87 32.5 160.5t93.5 117.5t145 44q97 0 150.5 -55.5t53.5 -149.5q0 -39 -11 -88h-368zM206.5 428q-40.5 -42 -58.5 -111h271q2 20 2 29q0 59 -29 91.5
t-83 32.5q-62 0 -102.5 -42zM383 772h138l-174 -160h-54z" />
    <glyph glyph-name="ecircumflex" unicode="&#xea;" horiz-adv-x="552" 
d="M138 250q-1 -9 -1 -28q0 -154 128 -154q97 0 142 103l82 -28q-67 -152 -227 -152q-107 0 -163.5 59.5t-56.5 170.5q0 87 32.5 160.5t93.5 117.5t145 44q97 0 150.5 -55.5t53.5 -149.5q0 -39 -11 -88h-368zM206.5 428q-40.5 -42 -58.5 -111h271q2 20 2 29q0 59 -29 91.5
t-83 32.5q-62 0 -102.5 -42zM436 612l-77 104l-119 -104h-62l138 160h104l77 -160h-61z" />
    <glyph glyph-name="edieresis" unicode="&#xeb;" horiz-adv-x="552" 
d="M138 250q-1 -9 -1 -28q0 -154 128 -154q97 0 142 103l82 -28q-67 -152 -227 -152q-107 0 -163.5 59.5t-56.5 170.5q0 87 32.5 160.5t93.5 117.5t145 44q97 0 150.5 -55.5t53.5 -149.5q0 -39 -11 -88h-368zM206.5 428q-40.5 -42 -58.5 -111h271q2 20 2 29q0 59 -29 91.5
t-83 32.5q-62 0 -102.5 -42zM202 648q-17 17 -17 45q0 29 17 45.5t46 16.5t46.5 -16.5t17.5 -45.5q0 -28 -17.5 -45t-46.5 -17t-46 17zM400 648q-17 17 -17 45q0 29 17 45.5t46 16.5t46.5 -16.5t17.5 -45.5q0 -28 -17.5 -45t-46.5 -17t-46 17z" />
    <glyph glyph-name="igrave" unicode="&#xec;" horiz-adv-x="249" 
d="M122 533h99l-94 -533h-98zM167 612l-173 160h137l90 -160h-54z" />
    <glyph glyph-name="iacute" unicode="&#xed;" horiz-adv-x="249" 
d="M122 533h99l-94 -533h-98zM231 772h138l-174 -160h-54z" />
    <glyph glyph-name="icircumflex" unicode="&#xee;" horiz-adv-x="249" 
d="M122 533h99l-94 -533h-98zM284 612l-77 104l-119 -104h-62l138 160h104l77 -160h-61z" />
    <glyph glyph-name="idieresis" unicode="&#xef;" horiz-adv-x="249" 
d="M122 533h99l-94 -533h-98zM51 648q-17 17 -17 45q0 29 17 45.5t46 16.5t46.5 -16.5t17.5 -45.5q0 -28 -17.5 -45t-46.5 -17t-46 17zM249 648q-17 17 -17 45q0 29 17 45.5t46 16.5t46.5 -16.5t17.5 -45.5q0 -28 -17.5 -45t-46.5 -17t-46 17z" />
    <glyph glyph-name="eth" unicode="&#xf0;" horiz-adv-x="572" 
d="M497.5 514q34.5 -88 34.5 -183q0 -94 -34 -172t-96 -123.5t-143 -45.5q-65 0 -114.5 28.5t-76.5 81t-27 121.5q0 84 33 157.5t92 118t134 44.5q46 0 77 -13t54 -40q-38 92 -122 156l-132 -47l-11 52l88 31q-41 24 -110 56l125 46q52 -33 87 -66l98 35l13 -52l-69 -24
q65 -73 99.5 -161zM401.5 425q-31.5 40 -89.5 40q-51 0 -90.5 -33.5t-61 -90t-21.5 -120.5q0 -71 31.5 -111.5t90.5 -40.5q52 0 91 34t60 90.5t21 121.5q0 70 -31.5 110z" />
    <glyph glyph-name="ntilde" unicode="&#xf1;" horiz-adv-x="587" 
d="M507.5 506.5q31.5 -36.5 31.5 -103.5q0 -32 -5 -58l-61 -345h-98l61 351q3 14 3 30q0 34 -16.5 57t-54.5 23q-82 0 -187 -146l-54 -315h-98l93 533h99l-34 -147q50 70 110 113.5t119 43.5q60 0 91.5 -36.5zM376.5 648.5q-12.5 6.5 -27.5 19.5q-2 1 -9 7t-14.5 8.5
t-14.5 2.5q-32 0 -41 -39h-71q11 53 41.5 78.5t71.5 25.5q21 0 33.5 -6.5t26.5 -18.5q12 -9 19 -13.5t18 -4.5q32 0 42 38h70q-9 -52 -39 -78t-72 -26q-21 0 -33.5 6.5z" />
    <glyph glyph-name="ograve" unicode="&#xf2;" horiz-adv-x="575" 
d="M475 479.5q58 -63.5 58 -171.5q0 -85 -33 -157.5t-95 -116t-144 -43.5q-104 0 -161 63t-57 172q0 85 33 157.5t94 116t143 43.5q104 0 162 -63.5zM358 105.5q39 36.5 58.5 92t19.5 111.5q0 75 -32.5 115t-93.5 40q-56 0 -95 -35t-58 -89.5t-18 -112.5q0 -75 32 -116.5
t92 -41.5q56 0 95 36.5zM329 612l-173 160h137l90 -160h-54z" />
    <glyph glyph-name="oacute" unicode="&#xf3;" horiz-adv-x="575" 
d="M475 479.5q58 -63.5 58 -171.5q0 -85 -33 -157.5t-95 -116t-144 -43.5q-104 0 -161 63t-57 172q0 85 33 157.5t94 116t143 43.5q104 0 162 -63.5zM358 105.5q39 36.5 58.5 92t19.5 111.5q0 75 -32.5 115t-93.5 40q-56 0 -95 -35t-58 -89.5t-18 -112.5q0 -75 32 -116.5
t92 -41.5q56 0 95 36.5zM394 772h138l-174 -160h-54z" />
    <glyph glyph-name="ocircumflex" unicode="&#xf4;" horiz-adv-x="575" 
d="M475 479.5q58 -63.5 58 -171.5q0 -85 -33 -157.5t-95 -116t-144 -43.5q-104 0 -161 63t-57 172q0 85 33 157.5t94 116t143 43.5q104 0 162 -63.5zM358 105.5q39 36.5 58.5 92t19.5 111.5q0 75 -32.5 115t-93.5 40q-56 0 -95 -35t-58 -89.5t-18 -112.5q0 -75 32 -116.5
t92 -41.5q56 0 95 36.5zM447 612l-77 104l-119 -104h-62l138 160h104l77 -160h-61z" />
    <glyph glyph-name="otilde" unicode="&#xf5;" horiz-adv-x="575" 
d="M475 479.5q58 -63.5 58 -171.5q0 -85 -33 -157.5t-95 -116t-144 -43.5q-104 0 -161 63t-57 172q0 85 33 157.5t94 116t143 43.5q104 0 162 -63.5zM358 105.5q39 36.5 58.5 92t19.5 111.5q0 75 -32.5 115t-93.5 40q-56 0 -95 -35t-58 -89.5t-18 -112.5q0 -75 32 -116.5
t92 -41.5q56 0 95 36.5zM378.5 648.5q-12.5 6.5 -27.5 19.5q-2 1 -9 7t-14.5 8.5t-14.5 2.5q-32 0 -41 -39h-71q11 53 41.5 78.5t71.5 25.5q21 0 33.5 -6.5t26.5 -18.5q12 -9 19 -13.5t18 -4.5q32 0 42 38h70q-9 -52 -39 -78t-72 -26q-21 0 -33.5 6.5z" />
    <glyph glyph-name="odieresis" unicode="&#xf6;" horiz-adv-x="575" 
d="M475 479.5q58 -63.5 58 -171.5q0 -85 -33 -157.5t-95 -116t-144 -43.5q-104 0 -161 63t-57 172q0 85 33 157.5t94 116t143 43.5q104 0 162 -63.5zM358 105.5q39 36.5 58.5 92t19.5 111.5q0 75 -32.5 115t-93.5 40q-56 0 -95 -35t-58 -89.5t-18 -112.5q0 -75 32 -116.5
t92 -41.5q56 0 95 36.5zM213 648q-17 17 -17 45q0 29 17 45.5t46 16.5t46.5 -16.5t17.5 -45.5q0 -28 -17.5 -45t-46.5 -17t-46 17zM411 648q-17 17 -17 45q0 29 17 45.5t46 16.5t46.5 -16.5t17.5 -45.5q0 -28 -17.5 -45t-46.5 -17t-46 17z" />
    <glyph glyph-name="divide" unicode="&#xf7;" 
d="M292 458.5q-17 16.5 -17 44.5t17 44.5t45 16.5t45 -16.5t17 -44.5t-17 -44.5t-45 -16.5t-45 16.5zM70 369h495l-12 -71h-495zM226 119.5q-17 16.5 -17 44.5t17 44t45 16t45 -16t17 -44t-17 -44.5t-45 -16.5t-45 16.5z" />
    <glyph glyph-name="oslash" unicode="&#xf8;" horiz-adv-x="575" 
d="M500 445q33 -55 33 -137q0 -85 -33 -157.5t-95 -116t-144 -43.5q-100 0 -156 58l-74 -75l-42 40l83 81q-29 55 -29 131q0 85 33 157.5t94 116t143 43.5q94 0 152 -53l75 77l43 -41zM145 167l125 122l132 136q-31 39 -92 39q-56 0 -95 -35t-58 -89.5t-18 -112.5
q0 -33 6 -60zM428 375l-124 -121l-136 -139q32 -46 95 -46q56 0 95 36.5t58.5 92t19.5 111.5q0 36 -8 66z" />
    <glyph glyph-name="ugrave" unicode="&#xf9;" horiz-adv-x="587" 
d="M559 533l-94 -533h-99l34 147q-50 -70 -110 -113.5t-119 -43.5q-60 0 -91.5 36.5t-31.5 102.5q0 27 6 60l60 344h99l-62 -351q-3 -13 -3 -29q0 -35 16.5 -58t55.5 -23q46 0 93 41t93 105l54 315h99zM336 612l-173 160h137l90 -160h-54z" />
    <glyph glyph-name="uacute" unicode="&#xfa;" horiz-adv-x="587" 
d="M559 533l-94 -533h-99l34 147q-50 -70 -110 -113.5t-119 -43.5q-60 0 -91.5 36.5t-31.5 102.5q0 27 6 60l60 344h99l-62 -351q-3 -13 -3 -29q0 -35 16.5 -58t55.5 -23q46 0 93 41t93 105l54 315h99zM400 772h138l-174 -160h-54z" />
    <glyph glyph-name="ucircumflex" unicode="&#xfb;" horiz-adv-x="587" 
d="M559 533l-94 -533h-99l34 147q-50 -70 -110 -113.5t-119 -43.5q-60 0 -91.5 36.5t-31.5 102.5q0 27 6 60l60 344h99l-62 -351q-3 -13 -3 -29q0 -35 16.5 -58t55.5 -23q46 0 93 41t93 105l54 315h99zM453 612l-77 104l-119 -104h-62l138 160h104l77 -160h-61z" />
    <glyph glyph-name="udieresis" unicode="&#xfc;" horiz-adv-x="587" 
d="M559 533l-94 -533h-99l34 147q-50 -70 -110 -113.5t-119 -43.5q-60 0 -91.5 36.5t-31.5 102.5q0 27 6 60l60 344h99l-62 -351q-3 -13 -3 -29q0 -35 16.5 -58t55.5 -23q46 0 93 41t93 105l54 315h99zM220 648q-17 17 -17 45q0 29 17 45.5t46 16.5t46.5 -16.5t17.5 -45.5
q0 -28 -17.5 -45t-46.5 -17t-46 17zM418 648q-17 17 -17 45q0 29 17 45.5t46 16.5t46.5 -16.5t17.5 -45.5q0 -28 -17.5 -45t-46.5 -17t-46 17z" />
    <glyph glyph-name="yacute" unicode="&#xfd;" horiz-adv-x="586" 
d="M558 533l-86 -488q-39 -215 -258 -215q-87 0 -143.5 38.5t-69.5 109.5l83 26q8 -56 44.5 -82.5t86.5 -26.5q73 0 109.5 39.5t48.5 108.5l22 125q-49 -64 -105.5 -103t-112.5 -39q-60 0 -91.5 36.5t-31.5 102.5q0 27 6 60l54 308h99l-56 -315q-3 -13 -3 -29
q0 -34 16.5 -57t55.5 -23q83 0 185 148l29 164l19 112h99zM402 772h138l-174 -160h-54z" />
    <glyph glyph-name="thorn" unicode="&#xfe;" horiz-adv-x="593" 
d="M512 487q42 -56 42 -157q0 -88 -32 -166.5t-90 -126t-132 -47.5q-52 0 -92 27t-63 80l-45 -257h-98l28 160h-1l49 276l44 257h1l29 167h98l-29 -167l-16 -93q40 50 88 76.5t96 26.5q81 0 123 -56zM371.5 105q39.5 36 60 93t20.5 116q0 150 -110 150q-37 0 -77.5 -27
t-74.5 -80l-33 -191q30 -97 120 -97q55 0 94.5 36z" />
    <glyph glyph-name="ydieresis" unicode="&#xff;" horiz-adv-x="586" 
d="M558 533l-86 -488q-39 -215 -258 -215q-87 0 -143.5 38.5t-69.5 109.5l83 26q8 -56 44.5 -82.5t86.5 -26.5q73 0 109.5 39.5t48.5 108.5l22 125q-49 -64 -105.5 -103t-112.5 -39q-60 0 -91.5 36.5t-31.5 102.5q0 27 6 60l54 308h99l-56 -315q-3 -13 -3 -29
q0 -34 16.5 -57t55.5 -23q83 0 185 148l29 164l19 112h99zM222 648q-17 17 -17 45q0 29 17 45.5t46 16.5t46.5 -16.5t17.5 -45.5q0 -28 -17.5 -45t-46.5 -17t-46 17zM420 648q-17 17 -17 45q0 29 17 45.5t46 16.5t46.5 -16.5t17.5 -45.5q0 -28 -17.5 -45t-46.5 -17t-46 17z
" />
    <glyph glyph-name="Amacron" unicode="&#x100;" horiz-adv-x="689" 
d="M506 137h-365l-75 -137h-105l389 700h140l143 -700h-101zM491 214l-79 420l-229 -420h308zM598 897l-12 -69h-280l12 69h280z" />
    <glyph glyph-name="amacron" unicode="&#x101;" horiz-adv-x="593" 
d="M564 533l-94 -533h-98l22 100q-41 -53 -91 -81.5t-99 -28.5q-81 0 -123 56.5t-42 157.5q0 88 31.5 166t89.5 125.5t132 47.5q52 0 92 -27t64 -80l17 97h99zM329 96.5q41 27.5 75 81.5l32 188q-32 98 -120 98q-55 0 -95 -36t-60.5 -92.5t-20.5 -115.5q0 -72 27 -111.5
t83 -39.5q38 0 79 27.5zM517 730l-12 -68h-280l12 68h280z" />
    <glyph glyph-name="Abreve" unicode="&#x102;" horiz-adv-x="689" 
d="M506 137h-365l-75 -137h-105l389 700h140l143 -700h-101zM491 214l-79 420l-229 -420h308zM350 815q-32 29 -32 80q0 9 2 27h71q-2 -14 -2 -19q0 -28 16 -44t42 -16q33 0 57.5 21.5t31.5 57.5h70q-13 -64 -59 -100t-110 -36q-55 0 -87 29z" />
    <glyph glyph-name="abreve" unicode="&#x103;" horiz-adv-x="593" 
d="M564 533l-94 -533h-98l22 100q-41 -53 -91 -81.5t-99 -28.5q-81 0 -123 56.5t-42 157.5q0 88 31.5 166t89.5 125.5t132 47.5q52 0 92 -27t64 -80l17 97h99zM329 96.5q41 27.5 75 81.5l32 188q-32 98 -120 98q-55 0 -95 -36t-60.5 -92.5t-20.5 -115.5q0 -72 27 -111.5
t83 -39.5q38 0 79 27.5zM275 655q-32 29 -32 80q0 9 2 27h71q-2 -14 -2 -19q0 -28 16 -44t42 -16q33 0 57.5 21.5t31.5 57.5h70q-13 -63 -59 -99.5t-110 -36.5q-55 0 -87 29z" />
    <glyph glyph-name="Aogonek" unicode="&#x104;" horiz-adv-x="689" 
d="M503 -110q12 -10 32 -10q28 0 52 9l-13 -74q-30 -6 -55 -6q-54 0 -83 24.5t-29 61.5q0 64 123 118l-24 124h-365l-75 -137h-105l389 700h140l143 -700h-66q-44 -30 -60 -45.5t-16 -37.5q0 -17 12 -27zM491 214l-79 420l-229 -420h308z" />
    <glyph glyph-name="aogonek" unicode="&#x105;" horiz-adv-x="593" 
d="M389 -45.5q-16 -15.5 -16 -37.5q0 -17 12 -27t32 -10q28 0 52 9l-13 -74q-30 -6 -55 -6q-54 0 -83 24.5t-29 61.5q0 57 96 105h-13l22 100q-41 -53 -91 -81.5t-99 -28.5q-81 0 -123 56.5t-42 157.5q0 88 31.5 166t89.5 125.5t132 47.5q52 0 92 -27t64 -80l17 97h99
l-94 -533h-21q-44 -30 -60 -45.5zM329 96.5q41 27.5 75 81.5l32 188q-32 98 -120 98q-55 0 -95 -36t-60.5 -92.5t-20.5 -115.5q0 -72 27 -111.5t83 -39.5q38 0 79 27.5z" />
    <glyph glyph-name="Cacute" unicode="&#x106;" horiz-adv-x="725" 
d="M201.5 27q-67.5 37 -105 106.5t-37.5 165.5q0 110 45.5 204t127.5 150.5t187 56.5q117 0 195 -64t94 -175l-101 -26q-10 81 -61 128.5t-131 47.5q-76 0 -133 -45.5t-87 -119t-30 -155.5q0 -103 52 -162.5t145 -59.5q78 0 135 47.5t87 129.5l95 -30
q-42 -109 -124.5 -172.5t-197.5 -63.5q-88 0 -155.5 37zM513 932h138l-173 -160h-55z" />
    <glyph glyph-name="cacute" unicode="&#x107;" horiz-adv-x="541" 
d="M98 54.5q-55 64.5 -55 173.5q0 85 34 157t97 115t145 43q85 0 138 -47t68 -129l-95 -22q-6 57 -36 88t-81 31q-53 0 -92.5 -32.5t-60 -86.5t-20.5 -117q0 -77 31 -118t89 -41q54 0 93.5 33.5t59.5 90.5l92 -22q-32 -81 -98 -131t-154 -50q-100 0 -155 64.5zM382 770h138
l-174 -160h-54z" />
    <glyph glyph-name="Cdotaccent" unicode="&#x10a;" horiz-adv-x="725" 
d="M201.5 27q-67.5 37 -105 106.5t-37.5 165.5q0 110 45.5 204t127.5 150.5t187 56.5q117 0 195 -64t94 -175l-101 -26q-10 81 -61 128.5t-131 47.5q-76 0 -133 -45.5t-87 -119t-30 -155.5q0 -103 52 -162.5t145 -59.5q78 0 135 47.5t87 129.5l95 -30
q-42 -109 -124.5 -172.5t-197.5 -63.5q-88 0 -155.5 37zM426 807q-18 17 -18 46t18 46t47 17t46.5 -17t17.5 -46t-17.5 -46t-46.5 -17t-47 17z" />
    <glyph glyph-name="cdotaccent" unicode="&#x10b;" horiz-adv-x="541" 
d="M98 54.5q-55 64.5 -55 173.5q0 85 34 157t97 115t145 43q85 0 138 -47t68 -129l-95 -22q-6 57 -36 88t-81 31q-53 0 -92.5 -32.5t-60 -86.5t-20.5 -117q0 -77 31 -118t89 -41q54 0 93.5 33.5t59.5 90.5l92 -22q-32 -81 -98 -131t-154 -50q-100 0 -155 64.5zM311.5 645
q-17.5 17 -17.5 46t17.5 46t46.5 17t47 -17t18 -46t-18 -46t-47 -17t-46.5 17z" />
    <glyph glyph-name="Ccaron" unicode="&#x10c;" horiz-adv-x="725" 
d="M201.5 27q-67.5 37 -105 106.5t-37.5 165.5q0 110 45.5 204t127.5 150.5t187 56.5q117 0 195 -64t94 -175l-101 -26q-10 81 -61 128.5t-131 47.5q-76 0 -133 -45.5t-87 -119t-30 -155.5q0 -103 52 -162.5t145 -59.5q78 0 135 47.5t87 129.5l95 -30
q-42 -109 -124.5 -172.5t-197.5 -63.5q-88 0 -155.5 37zM380 932l83 -103l128 103h54l-136 -160h-105l-78 160h54z" />
    <glyph glyph-name="ccaron" unicode="&#x10d;" horiz-adv-x="541" 
d="M98 54.5q-55 64.5 -55 173.5q0 85 34 157t97 115t145 43q85 0 138 -47t68 -129l-95 -22q-6 57 -36 88t-81 31q-53 0 -92.5 -32.5t-60 -86.5t-20.5 -117q0 -77 31 -118t89 -41q54 0 93.5 33.5t59.5 90.5l92 -22q-32 -81 -98 -131t-154 -50q-100 0 -155 64.5zM264 770
l83 -103l128 103h54l-136 -160h-105l-78 160h54z" />
    <glyph glyph-name="Dcaron" unicode="&#x10e;" horiz-adv-x="723" 
d="M609 621.5q86 -78.5 86 -222.5q0 -117 -57 -207.5t-158.5 -141t-232.5 -50.5h-208l123 700h201q160 0 246 -78.5zM427.5 122.5q78.5 39.5 121.5 110t43 160.5q0 106 -60.5 164.5t-174.5 58.5h-108l-93 -533h90q103 0 181.5 39.5zM379 932l83 -103l128 103h54l-136 -160
h-105l-78 160h54z" />
    <glyph glyph-name="dcaron" unicode="&#x10f;" horiz-adv-x="593" 
d="M593 700l-123 -700h-98l22 101q-41 -54 -90.5 -82.5t-99.5 -28.5q-81 0 -123 56.5t-42 157.5q0 88 31.5 166t89.5 125.5t132 47.5q53 0 93 -27t63 -81l47 265h98zM328.5 96.5q40.5 27.5 74.5 81.5l33 187q-32 99 -120 99q-55 0 -95 -36t-60.5 -92.5t-20.5 -115.5
q0 -72 27 -111.5t83 -39.5q38 0 78.5 27.5zM654 700h93l-75 -160h-47z" />
    <glyph glyph-name="Dcroat" unicode="&#x110;" horiz-adv-x="723" 
d="M609 621.5q86 -78.5 86 -222.5q0 -117 -57 -207.5t-158.5 -141t-232.5 -50.5h-208l55 315h-77l13 69h76l56 316h201q160 0 246 -78.5zM427.5 122.5q78.5 39.5 121.5 110t43 160.5q0 106 -60.5 164.5t-174.5 58.5h-108l-41 -232h197l-13 -69h-196l-40 -232h90
q103 0 181.5 39.5z" />
    <glyph glyph-name="dcroat" unicode="&#x111;" horiz-adv-x="593" 
d="M652 580h-80l-102 -580h-98l22 101q-41 -54 -90.5 -82.5t-99.5 -28.5q-81 0 -123 56.5t-42 157.5q0 88 31.5 166t89.5 125.5t132 47.5q53 0 93 -27t63 -81l26 145h-148l11 52h146l12 68h98l-12 -68h82zM328.5 96.5q40.5 27.5 74.5 81.5l33 187q-32 99 -120 99
q-55 0 -95 -36t-60.5 -92.5t-20.5 -115.5q0 -72 27 -111.5t83 -39.5q38 0 78.5 27.5z" />
    <glyph glyph-name="Emacron" unicode="&#x112;" horiz-adv-x="636" 
d="M249 616l-36 -209h355l-16 -84h-354l-42 -239h383l-14 -84h-486l123 700h486l-14 -84h-385zM572 897l-12 -69h-280l12 69h280z" />
    <glyph glyph-name="emacron" unicode="&#x113;" horiz-adv-x="552" 
d="M138 250q-1 -9 -1 -28q0 -154 128 -154q97 0 142 103l82 -28q-67 -152 -227 -152q-107 0 -163.5 59.5t-56.5 170.5q0 87 32.5 160.5t93.5 117.5t145 44q97 0 150.5 -55.5t53.5 -149.5q0 -39 -11 -88h-368zM206.5 428q-40.5 -42 -58.5 -111h271q2 20 2 29q0 59 -29 91.5
t-83 32.5q-62 0 -102.5 -42zM497 730l-12 -68h-280l12 68h280z" />
    <glyph glyph-name="Edotaccent" unicode="&#x116;" horiz-adv-x="636" 
d="M249 616l-36 -209h355l-16 -84h-354l-42 -239h383l-14 -84h-486l123 700h486l-14 -84h-385zM382 807q-18 17 -18 46t18 46t47 17t46.5 -17t17.5 -46t-17.5 -46t-46.5 -17t-47 17z" />
    <glyph glyph-name="edotaccent" unicode="&#x117;" horiz-adv-x="552" 
d="M138 250q-1 -9 -1 -28q0 -154 128 -154q97 0 142 103l82 -28q-67 -152 -227 -152q-107 0 -163.5 59.5t-56.5 170.5q0 87 32.5 160.5t93.5 117.5t145 44q97 0 150.5 -55.5t53.5 -149.5q0 -39 -11 -88h-368zM206.5 428q-40.5 -42 -58.5 -111h271q2 20 2 29q0 59 -29 91.5
t-83 32.5q-62 0 -102.5 -42zM312.5 647q-17.5 17 -17.5 46t17.5 46t46.5 17t47 -17t18 -46t-18 -46t-47 -17t-46.5 17z" />
    <glyph glyph-name="Eogonek" unicode="&#x118;" horiz-adv-x="636" 
d="M249 616l-36 -209h355l-16 -84h-354l-42 -239h383l-14 -84h-36q-6 -4 -30.5 -21t-35 -31.5t-10.5 -30.5q0 -17 12 -27t33 -10q28 0 52 9l-13 -74q-32 -6 -55 -6q-54 0 -83 24.5t-29 61.5q0 57 96 105h-387l123 700h486l-14 -84h-385z" />
    <glyph glyph-name="eogonek" unicode="&#x119;" horiz-adv-x="552" 
d="M138 250q-1 -9 -1 -28q0 -154 128 -154q97 0 142 103l82 -28q-25 -57 -61 -91l-50 -50q-36 -36 -48.5 -52t-12.5 -33t12 -27t32 -10q12 0 28.5 3t27.5 7v-70q-12 -4 -32 -7.5t-40 -3.5q-55 0 -83 20t-28 56q0 51 85 112q-27 -6 -57 -6q-107 0 -163.5 59.5t-56.5 170.5
q0 87 32.5 160.5t93.5 117.5t145 44q97 0 150.5 -55.5t53.5 -149.5q0 -39 -11 -88h-368zM206.5 428q-40.5 -42 -58.5 -111h271q2 20 2 29q0 59 -29 91.5t-83 32.5q-62 0 -102.5 -42z" />
    <glyph glyph-name="Ecaron" unicode="&#x11a;" horiz-adv-x="636" 
d="M249 616l-36 -209h355l-16 -84h-354l-42 -239h383l-14 -84h-486l123 700h486l-14 -84h-385zM336 932l83 -103l128 103h54l-136 -160h-105l-78 160h54z" />
    <glyph glyph-name="ecaron" unicode="&#x11b;" horiz-adv-x="552" 
d="M138 250q-1 -9 -1 -28q0 -154 128 -154q97 0 142 103l82 -28q-67 -152 -227 -152q-107 0 -163.5 59.5t-56.5 170.5q0 87 32.5 160.5t93.5 117.5t145 44q97 0 150.5 -55.5t53.5 -149.5q0 -39 -11 -88h-368zM206.5 428q-40.5 -42 -58.5 -111h271q2 20 2 29q0 59 -29 91.5
t-83 32.5q-62 0 -102.5 -42zM265 772l83 -103l128 103h54l-136 -160h-105l-78 160h54z" />
    <glyph glyph-name="Gbreve" unicode="&#x11e;" horiz-adv-x="740" 
d="M412 345h281l-61 -345h-79l12 110q-80 -120 -237 -120q-79 0 -140 38t-95 108t-34 163q0 110 45.5 204.5t128 150.5t189.5 56q102 0 176.5 -51.5t99.5 -146.5l-95 -30q-15 65 -65 102.5t-120 37.5q-77 0 -134.5 -45.5t-88.5 -119t-31 -154.5q0 -105 48 -165t139 -60
q93 0 155 51t77 137h-185zM375 815q-32 29 -32 80q0 9 2 27h71q-2 -14 -2 -19q0 -28 16 -44t42 -16q33 0 57.5 21.5t31.5 57.5h70q-13 -64 -59 -100t-110 -36q-55 0 -87 29z" />
    <glyph glyph-name="gbreve" unicode="&#x11f;" horiz-adv-x="586" 
d="M557 533l-86 -488q-16 -96 -84.5 -155.5t-179.5 -59.5q-90 0 -145 39.5t-71 108.5l87 27q10 -50 45 -80t90 -30q67 0 107.5 41.5t51.5 106.5l18 104q-39 -54 -89 -82t-103 -28q-75 0 -116.5 52.5t-41.5 139.5q0 80 29.5 152t86 117t132.5 45q52 0 91.5 -26.5t61.5 -81.5
l18 98h98zM329.5 143q41.5 27 74.5 82l27 150q-17 45 -46.5 67t-69.5 22q-56 0 -95 -32.5t-58.5 -83.5t-19.5 -104q0 -57 28 -92.5t77 -35.5q41 0 82.5 27zM272 655q-32 29 -32 80q0 9 2 27h71q-2 -14 -2 -19q0 -28 16 -44t42 -16q33 0 57.5 21.5t31.5 57.5h70
q-13 -63 -59 -99.5t-110 -36.5q-55 0 -87 29z" />
    <glyph glyph-name="Gdotaccent" unicode="&#x120;" horiz-adv-x="740" 
d="M412 345h281l-61 -345h-79l12 110q-80 -120 -237 -120q-79 0 -140 38t-95 108t-34 163q0 110 45.5 204.5t128 150.5t189.5 56q102 0 176.5 -51.5t99.5 -146.5l-95 -30q-15 65 -65 102.5t-120 37.5q-77 0 -134.5 -45.5t-88.5 -119t-31 -154.5q0 -105 48 -165t139 -60
q93 0 155 51t77 137h-185zM434 807q-18 17 -18 46t18 46t47 17t46.5 -17t17.5 -46t-17.5 -46t-46.5 -17t-47 17z" />
    <glyph glyph-name="gdotaccent" unicode="&#x121;" horiz-adv-x="586" 
d="M557 533l-86 -488q-16 -96 -84.5 -155.5t-179.5 -59.5q-90 0 -145 39.5t-71 108.5l87 27q10 -50 45 -80t90 -30q67 0 107.5 41.5t51.5 106.5l18 104q-39 -54 -89 -82t-103 -28q-75 0 -116.5 52.5t-41.5 139.5q0 80 29.5 152t86 117t132.5 45q52 0 91.5 -26.5t61.5 -81.5
l18 98h98zM329.5 143q41.5 27 74.5 82l27 150q-17 45 -46.5 67t-69.5 22q-56 0 -95 -32.5t-58.5 -83.5t-19.5 -104q0 -57 28 -92.5t77 -35.5q41 0 82.5 27zM328.5 647q-17.5 17 -17.5 46t17.5 46t46.5 17t47 -17t18 -46t-18 -46t-47 -17t-46.5 17z" />
    <glyph glyph-name="uni0122" unicode="&#x122;" horiz-adv-x="740" 
d="M412 345h281l-61 -345h-79l12 110q-80 -120 -237 -120q-79 0 -140 38t-95 108t-34 163q0 110 45.5 204.5t128 150.5t189.5 56q102 0 176.5 -51.5t99.5 -146.5l-95 -30q-15 65 -65 102.5t-120 37.5q-77 0 -134.5 -45.5t-88.5 -119t-31 -154.5q0 -105 48 -165t139 -60
q93 0 155 51t77 137h-185zM345 -80q14 -13 14 -41q0 -68 -39 -108t-109 -40v35q46 0 68 14t31 54h-4q-24 0 -38 12t-14 33q0 24 14.5 39t38.5 15t38 -13z" />
    <glyph glyph-name="uni0123" unicode="&#x123;" horiz-adv-x="586" 
d="M557 533l-86 -488q-16 -96 -84.5 -155.5t-179.5 -59.5q-90 0 -145 39.5t-71 108.5l87 27q10 -50 45 -80t90 -30q67 0 107.5 41.5t51.5 106.5l18 104q-39 -54 -89 -82t-103 -28q-75 0 -116.5 52.5t-41.5 139.5q0 80 29.5 152t86 117t132.5 45q52 0 91.5 -26.5t61.5 -81.5
l18 98h98zM329.5 143q41.5 27 74.5 82l27 150q-17 45 -46.5 67t-69.5 22q-56 0 -95 -32.5t-58.5 -83.5t-19.5 -104q0 -57 28 -92.5t77 -35.5q41 0 82.5 27zM402.5 728q14.5 -12 14.5 -31q0 -24 -15 -39.5t-40 -15.5q-51 0 -51 52q0 68 39 108t109 39l1 -31q-47 -2 -68.5 -16
t-31.5 -54h4q24 0 38.5 -12z" />
    <glyph glyph-name="Hbar" unicode="&#x126;" horiz-adv-x="730" 
d="M729 536h-37l-94 -536h-102l58 329h-355l-58 -329h-102l94 536h-38l13 70h37l17 94h102l-17 -94h355l17 94h102l-17 -94h37zM590 536h-355l-21 -123h355z" />
    <glyph glyph-name="hbar" unicode="&#x127;" horiz-adv-x="587" 
d="M507.5 506.5q31.5 -36.5 31.5 -103.5q0 -32 -5 -58l-61 -345h-98l61 351q3 14 3 30q0 34 -16.5 57t-54.5 23q-83 0 -187 -150l-54 -311h-98l102 580h-83l11 52h81l12 68h98l-14 -68h150l-11 -52h-150l-40 -196q51 71 111 115t120 44t91.5 -36.5z" />
    <glyph glyph-name="Imacron" unicode="&#x12a;" horiz-adv-x="293" 
d="M172 700h102l-123 -700h-102zM400 897l-12 -69h-280l12 69h280z" />
    <glyph glyph-name="imacron" unicode="&#x12b;" horiz-adv-x="249" 
d="M122 533h99l-94 -533h-98zM345 730l-12 -68h-280l12 68h280z" />
    <glyph glyph-name="Iogonek" unicode="&#x12e;" horiz-adv-x="293" 
d="M71 -110q12 -10 32 -10q28 0 52 9l-13 -74q-30 -6 -55 -6q-54 0 -83 24.5t-29 61.5q0 57 96 105h-22l123 700h102l-123 -700h-16q-44 -30 -60 -45.5t-16 -37.5q0 -17 12 -27z" />
    <glyph glyph-name="iogonek" unicode="&#x12f;" horiz-adv-x="249" 
d="M254 739q18 -17 18 -46t-18 -46t-47 -17t-46.5 17t-17.5 46t17.5 46t46.5 17t47 -17zM122 533h99l-94 -533h-27q-6 -4 -30.5 -21t-35 -31.5t-10.5 -30.5q0 -17 12 -27t33 -10q28 0 52 9l-13 -74q-32 -6 -55 -6q-54 0 -83 24.5t-29 61.5q0 57 96 105h-8z" />
    <glyph glyph-name="Idotaccent" unicode="&#x130;" horiz-adv-x="293" 
d="M172 700h102l-123 -700h-102zM210 807q-18 17 -18 46t18 46t47 17t46.5 -17t17.5 -46t-17.5 -46t-46.5 -17t-47 17z" />
    <glyph glyph-name="dotlessi" unicode="&#x131;" horiz-adv-x="249" 
d="M122 533h99l-94 -533h-98z" />
    <glyph glyph-name="IJ" unicode="&#x132;" horiz-adv-x="604" 
d="M118.5 42.5q-53.5 52.5 -55.5 146.5l106 24q-5 -139 109 -139q58 0 92 36.5t47 112.5l85 477h102l-85 -482q-20 -115 -79.5 -171.5t-164.5 -56.5q-103 0 -156.5 52.5zM153 700h103l-64 -362h-102z" />
    <glyph glyph-name="uni0136" unicode="&#x136;" horiz-adv-x="697" 
d="M440 400l194 -400h-118l-150 330l-200 -187l-25 -143h-102l123 700h102l-78 -444l441 444h134zM328 -80q14 -13 14 -41q0 -68 -39 -108t-109 -40v35q46 0 68 14t31 54h-4q-24 0 -38 12t-14 33q0 24 14.5 39t38.5 15t38 -13z" />
    <glyph glyph-name="uni0137" unicode="&#x137;" horiz-adv-x="574" 
d="M330 311l189 -311h-109l-146 258l-106 -84l-31 -174h-98l123 700h98l-77 -440l305 273h132zM269 -80q14 -13 14 -41q0 -68 -39 -108t-109 -40v35q46 0 68 14t31 54h-4q-24 0 -38 12t-14 33q0 24 14.5 39t38.5 15t38 -13z" />
    <glyph glyph-name="Lacute" unicode="&#x139;" horiz-adv-x="594" 
d="M539 85l-15 -85h-485l123 700h102l-108 -615h383zM287 932h138l-173 -160h-55z" />
    <glyph glyph-name="lacute" unicode="&#x13a;" horiz-adv-x="279" 
d="M68.5 14q-24.5 23 -24.5 61q0 17 2 25l106 600h98l-103 -586q-2 -14 -2 -19q0 -14 7 -21.5t25 -7.5q23 0 43 15v-76q-36 -14 -72 -14q-55 0 -79.5 23zM285 932h138l-173 -160h-55z" />
    <glyph glyph-name="uni013B" unicode="&#x13b;" horiz-adv-x="594" 
d="M539 85l-15 -85h-485l123 700h102l-108 -615h383zM280 -80q14 -13 14 -41q0 -68 -39 -108t-109 -40v35q46 0 68 14t31 54h-4q-24 0 -38 12t-14 33q0 24 14.5 39t38.5 15t38 -13z" />
    <glyph glyph-name="uni013C" unicode="&#x13c;" horiz-adv-x="279" 
d="M68.5 14q-24.5 23 -24.5 61q0 17 2 25l106 600h98l-103 -586q-2 -14 -2 -19q0 -14 7 -21.5t25 -7.5q23 0 43 15v-76q-36 -14 -72 -14q-55 0 -79.5 23zM119 -80q14 -13 14 -41q0 -68 -39 -108t-109 -40v35q46 0 68 14t31 54h-4q-24 0 -38 12t-14 33q0 24 14.5 39t38.5 15
t38 -13z" />
    <glyph glyph-name="Lcaron" unicode="&#x13d;" horiz-adv-x="594" 
d="M539 85l-15 -85h-485l123 700h102l-108 -615h383zM360 700h93l-75 -160h-47z" />
    <glyph glyph-name="lcaron" unicode="&#x13e;" horiz-adv-x="279" 
d="M68.5 14q-24.5 23 -24.5 61q0 17 2 25l106 600h98l-103 -586q-2 -14 -2 -19q0 -14 7 -21.5t25 -7.5q23 0 43 15v-76q-36 -14 -72 -14q-55 0 -79.5 23zM313 700h93l-75 -160h-47z" />
    <glyph glyph-name="Lslash" unicode="&#x141;" horiz-adv-x="593" 
d="M539 85l-15 -85h-485l43 243l-98 -71l19 101l93 51l66 376h102l-53 -301l177 120l-18 -102l-172 -95l-42 -237h383z" />
    <glyph glyph-name="lslash" unicode="&#x142;" horiz-adv-x="267" 
d="M147 114q-2 -14 -2 -19q0 -14 7 -21.5t25 -7.5q23 0 43 15v-76q-36 -14 -72 -14q-55 0 -79.5 23t-24.5 61q0 17 2 25l24 133l-93 -77l18 97l89 61l68 386h98l-52 -297l96 79l-18 -97l-92 -61z" />
    <glyph glyph-name="Nacute" unicode="&#x143;" horiz-adv-x="766" 
d="M757 700l-123 -700h-135l-254 610l-107 -610h-99l123 700h142l249 -595l105 595h99zM533 932h138l-173 -160h-55z" />
    <glyph glyph-name="nacute" unicode="&#x144;" horiz-adv-x="587" 
d="M507.5 506.5q31.5 -36.5 31.5 -103.5q0 -32 -5 -58l-61 -345h-98l61 351q3 14 3 30q0 34 -16.5 57t-54.5 23q-82 0 -187 -146l-54 -315h-98l93 533h99l-34 -147q50 70 110 113.5t119 43.5q60 0 91.5 -36.5zM392 772h138l-174 -160h-54z" />
    <glyph glyph-name="uni0145" unicode="&#x145;" horiz-adv-x="766" 
d="M757 700l-123 -700h-135l-254 610l-107 -610h-99l123 700h142l249 -595l105 595h99zM366 -80q14 -13 14 -41q0 -68 -39 -108t-109 -40v35q46 0 68 14t31 54h-4q-24 0 -38 12t-14 33q0 24 14.5 39t38.5 15t38 -13z" />
    <glyph glyph-name="uni0146" unicode="&#x146;" horiz-adv-x="587" 
d="M507.5 506.5q31.5 -36.5 31.5 -103.5q0 -32 -5 -58l-61 -345h-98l61 351q3 14 3 30q0 34 -16.5 57t-54.5 23q-82 0 -187 -146l-54 -315h-98l93 533h99l-34 -147q50 70 110 113.5t119 43.5q60 0 91.5 -36.5zM269 -79q14 -13 14 -41q0 -68 -39 -108t-109 -40v35q46 0 68 14
t31 54h-4q-24 0 -38 12t-14 33q0 24 14.5 39t38.5 15t38 -13z" />
    <glyph glyph-name="Ncaron" unicode="&#x147;" horiz-adv-x="766" 
d="M757 700l-123 -700h-135l-254 610l-107 -610h-99l123 700h142l249 -595l105 595h99zM400 932l83 -103l128 103h54l-136 -160h-105l-78 160h54z" />
    <glyph glyph-name="ncaron" unicode="&#x148;" horiz-adv-x="587" 
d="M507.5 506.5q31.5 -36.5 31.5 -103.5q0 -32 -5 -58l-61 -345h-98l61 351q3 14 3 30q0 34 -16.5 57t-54.5 23q-82 0 -187 -146l-54 -315h-98l93 533h99l-34 -147q50 70 110 113.5t119 43.5q60 0 91.5 -36.5zM274 772l83 -103l128 103h54l-136 -160h-105l-78 160h54z" />
    <glyph glyph-name="Eng" unicode="&#x14a;" horiz-adv-x="766" 
d="M757 700l-120 -683q-17 -95 -72.5 -141t-142.5 -46q-21 0 -31 1l13 76q13 -5 31 -5q43 0 66 22.5t34 73.5l3 17l-293 591l-107 -606h-99l123 700h142l262 -522l92 522h99z" />
    <glyph glyph-name="eng" unicode="&#x14b;" horiz-adv-x="587" 
d="M507.5 506.5q31.5 -36.5 31.5 -103.5q0 -32 -5 -58l-61 -345q-14 -80 -71 -125t-142 -45q-21 0 -31 1l13 76q13 -5 31 -5q40 0 67 25.5t35 72.5l61 351q3 14 3 30q0 34 -16.5 57t-54.5 23q-82 0 -187 -146l-54 -315h-98l93 533h99l-34 -147q50 70 110 113.5t119 43.5
q60 0 91.5 -36.5z" />
    <glyph glyph-name="Omacron" unicode="&#x14c;" horiz-adv-x="745" 
d="M201.5 27q-68.5 37 -106 105.5t-37.5 160.5q0 113 45 208.5t126.5 152t185.5 56.5q89 0 157.5 -37t106 -106t37.5 -161q0 -113 -44.5 -208.5t-126 -151.5t-186.5 -56q-89 0 -157.5 37zM494 124q56 45 85.5 119t29.5 158q0 100 -52.5 160t-145.5 60q-75 0 -131 -45.5
t-86 -119.5t-30 -159q0 -100 53 -159t146 -59q75 0 131 45zM627 897l-12 -69h-280l12 69h280z" />
    <glyph glyph-name="omacron" unicode="&#x14d;" horiz-adv-x="575" 
d="M475 479.5q58 -63.5 58 -171.5q0 -85 -33 -157.5t-95 -116t-144 -43.5q-104 0 -161 63t-57 172q0 85 33 157.5t94 116t143 43.5q104 0 162 -63.5zM358 105.5q39 36.5 58.5 92t19.5 111.5q0 75 -32.5 115t-93.5 40q-56 0 -95 -35t-58 -89.5t-18 -112.5q0 -75 32 -116.5
t92 -41.5q56 0 95 36.5zM508 730l-12 -68h-280l12 68h280z" />
    <glyph glyph-name="Ohungarumlaut" unicode="&#x150;" horiz-adv-x="745" 
d="M201.5 27q-68.5 37 -106 105.5t-37.5 160.5q0 113 45 208.5t126.5 152t185.5 56.5q89 0 157.5 -37t106 -106t37.5 -161q0 -113 -44.5 -208.5t-126 -151.5t-186.5 -56q-89 0 -157.5 37zM494 124q56 45 85.5 119t29.5 158q0 100 -52.5 160t-145.5 60q-75 0 -131 -45.5
t-86 -119.5t-30 -159q0 -100 53 -159t146 -59q75 0 131 45zM419 932h120l-146 -160h-53zM591 932h120l-146 -160h-53z" />
    <glyph glyph-name="ohungarumlaut" unicode="&#x151;" horiz-adv-x="575" 
d="M475 479.5q58 -63.5 58 -171.5q0 -85 -33 -157.5t-95 -116t-144 -43.5q-104 0 -161 63t-57 172q0 85 33 157.5t94 116t143 43.5q104 0 162 -63.5zM358 105.5q39 36.5 58.5 92t19.5 111.5q0 75 -32.5 115t-93.5 40q-56 0 -95 -35t-58 -89.5t-18 -112.5q0 -75 32 -116.5
t92 -41.5q56 0 95 36.5zM304 772h120l-146 -160h-53zM476 772h120l-146 -160h-53z" />
    <glyph glyph-name="OE" unicode="&#x152;" horiz-adv-x="1086" 
d="M699 616l-36 -209h355l-16 -84h-354l-42 -239h383l-14 -84h-585q-160 0 -246 78.5t-86 222.5q0 117 57 207.5t158.5 141t231.5 50.5h593l-14 -84h-385zM597 617h-90q-103 0 -181.5 -39.5t-121.5 -110t-43 -160.5q0 -106 60.5 -164.5t174.5 -58.5h108z" />
    <glyph glyph-name="oe" unicode="&#x153;" horiz-adv-x="946" 
d="M527 241v-19q0 -154 128 -154q50 0 84.5 25.5t57.5 77.5l82 -28q-34 -78 -92 -115t-134 -37q-137 0 -191 97q-37 -46 -87.5 -71.5t-113.5 -25.5q-104 0 -161 63t-57 172q0 85 33 157.5t94 116t143 43.5q65 0 113 -25.5t75 -73.5q36 47 87 73t115 26q98 0 151 -55.5
t53 -150.5q0 -43 -10 -87h-368zM596.5 428q-40.5 -42 -58.5 -111h271q2 22 2 30q0 59 -29 91t-83 32q-62 0 -102.5 -42zM358 105.5q39 36.5 58.5 92t19.5 111.5q0 75 -32.5 115t-93.5 40q-56 0 -95 -35t-58 -89.5t-18 -112.5q0 -75 32 -116.5t92 -41.5q56 0 95 36.5z" />
    <glyph glyph-name="Racute" unicode="&#x154;" horiz-adv-x="693" 
d="M606.5 367q-52.5 -58 -141.5 -79l140 -288h-123l-105 277h-12h-173l-50 -277h-103l123 700h264q112 0 172.5 -51t60.5 -137q0 -87 -52.5 -145zM205 357h166q85 0 134 37.5t49 103.5q0 55 -35 87.5t-105 32.5h-164zM462 932h138l-173 -160h-55z" />
    <glyph glyph-name="racute" unicode="&#x155;" horiz-adv-x="382" 
d="M286 501.5q52 38.5 126 38.5l-18 -101q-18 3 -34 3q-57 0 -100 -38t-82 -114l-51 -290h-98l93 533h99l-26 -147q39 77 91 115.5zM308 772h138l-174 -160h-54z" />
    <glyph glyph-name="uni0156" unicode="&#x156;" horiz-adv-x="693" 
d="M606.5 367q-52.5 -58 -141.5 -79l140 -288h-123l-105 277h-12h-173l-50 -277h-103l123 700h264q112 0 172.5 -51t60.5 -137q0 -87 -52.5 -145zM205 357h166q85 0 134 37.5t49 103.5q0 55 -35 87.5t-105 32.5h-164zM311 -80q14 -13 14 -41q0 -68 -39 -108t-109 -40v35
q46 0 68 14t31 54h-4q-24 0 -38 12t-14 33q0 24 14.5 39t38.5 15t38 -13z" />
    <glyph glyph-name="uni0157" unicode="&#x157;" horiz-adv-x="382" 
d="M286 501.5q52 38.5 126 38.5l-18 -101q-18 3 -34 3q-57 0 -100 -38t-82 -114l-51 -290h-98l93 533h99l-26 -147q39 77 91 115.5zM95 -80q14 -13 14 -41q0 -68 -39 -108t-109 -40v35q46 0 68 14t31 54h-4q-24 0 -38 12t-14 33q0 24 14.5 39t38.5 15t38 -13z" />
    <glyph glyph-name="Rcaron" unicode="&#x158;" horiz-adv-x="693" 
d="M606.5 367q-52.5 -58 -141.5 -79l140 -288h-123l-105 277h-12h-173l-50 -277h-103l123 700h264q112 0 172.5 -51t60.5 -137q0 -87 -52.5 -145zM205 357h166q85 0 134 37.5t49 103.5q0 55 -35 87.5t-105 32.5h-164zM329 932l83 -103l128 103h54l-136 -160h-105l-78 160h54
z" />
    <glyph glyph-name="rcaron" unicode="&#x159;" horiz-adv-x="382" 
d="M286 501.5q52 38.5 126 38.5l-18 -101q-18 3 -34 3q-57 0 -100 -38t-82 -114l-51 -290h-98l93 533h99l-26 -147q39 77 91 115.5zM190 772l83 -103l128 103h54l-136 -160h-105l-78 160h54z" />
    <glyph glyph-name="Sacute" unicode="&#x15a;" horiz-adv-x="611" 
d="M114 44q-75 54 -89 157l101 25q10 -76 58 -114.5t126 -38.5q64 0 104 32.5t40 83.5q0 31 -20 52.5t-50.5 35t-81.5 30.5q-66 22 -106 42t-68.5 55.5t-28.5 90.5q0 64 31.5 113t87 75.5t126.5 26.5q102 0 168.5 -45.5t80.5 -135.5l-100 -19q-8 61 -50 89t-103 28
q-60 0 -96.5 -33.5t-36.5 -82.5q0 -32 20 -53t50 -34t83 -30q65 -21 106 -40t69.5 -55t28.5 -92q0 -65 -33 -114.5t-91.5 -76t-133.5 -26.5q-117 0 -192 54zM456 932h138l-173 -160h-55z" />
    <glyph glyph-name="sacute" unicode="&#x15b;" horiz-adv-x="481" 
d="M79.5 32q-58.5 42 -70.5 114l94 24q9 -56 44.5 -82t86.5 -26q48 0 75.5 21t27.5 57q0 26 -15 42.5t-38 25.5t-63 20q-52 14 -83.5 28t-54 43.5t-22.5 78.5q0 75 52.5 120t142.5 45q80 0 133 -36.5t62 -103.5l-88 -20q-6 45 -37 66.5t-74 21.5q-47 0 -73 -21t-26 -57
q0 -26 15.5 -42.5t38.5 -26t64 -21.5q52 -15 83.5 -29t54 -43t22.5 -77q0 -75 -55 -119.5t-148 -44.5q-90 0 -148.5 42zM345 772h138l-174 -160h-54z" />
    <glyph glyph-name="Scedilla" unicode="&#x15e;" horiz-adv-x="611" 
d="M227 458q20 -21 50 -34t83 -30q65 -21 106 -40t69.5 -55t28.5 -92q0 -65 -33 -114.5t-91.5 -76t-133.5 -26.5h-4l-25 -57h5q36 -3 58 -25t22 -55q0 -44 -29 -70.5t-78 -26.5q-45 0 -75 25.5t-34 63.5l61 14q0 -23 13 -35.5t35 -12.5q19 0 31.5 11t12.5 28q0 18 -13 29
t-36 11h-28l-10 32l39 71q-95 12 -154.5 65t-71.5 143l101 25q10 -76 58 -114.5t126 -38.5q64 0 104 32.5t40 83.5q0 31 -20 52.5t-50.5 35t-81.5 30.5q-66 22 -106 42t-68.5 55.5t-28.5 90.5q0 64 31.5 113t87 75.5t126.5 26.5q102 0 168.5 -45.5t80.5 -135.5l-100 -19
q-8 61 -50 89t-103 28q-60 0 -96.5 -33.5t-36.5 -82.5q0 -32 20 -53z" />
    <glyph glyph-name="scedilla" unicode="&#x15f;" horiz-adv-x="481" 
d="M168.5 350.5q15.5 -16.5 38.5 -26t64 -21.5q52 -15 83.5 -29t54 -43t22.5 -77q0 -75 -55 -119.5t-148 -44.5l-25 -57h5q36 -3 58 -25t22 -55q0 -44 -29 -70.5t-78 -26.5q-45 0 -75 25.5t-34 63.5l61 14q0 -23 13 -35.5t35 -12.5q19 0 31.5 11t12.5 28q0 18 -13 29t-36 11
h-28l-10 32l40 72q-70 11 -114 51t-55 101l94 24q9 -56 44.5 -82t86.5 -26q48 0 75.5 21t27.5 57q0 26 -15 42.5t-38 25.5t-63 20q-52 14 -83.5 28t-54 43.5t-22.5 78.5q0 75 52.5 120t142.5 45q80 0 133 -36.5t62 -103.5l-88 -20q-6 45 -37 66.5t-74 21.5q-47 0 -73 -21
t-26 -57q0 -26 15.5 -42.5z" />
    <glyph glyph-name="Scaron" unicode="&#x160;" horiz-adv-x="611" 
d="M114 44q-75 54 -89 157l101 25q10 -76 58 -114.5t126 -38.5q64 0 104 32.5t40 83.5q0 31 -20 52.5t-50.5 35t-81.5 30.5q-66 22 -106 42t-68.5 55.5t-28.5 90.5q0 64 31.5 113t87 75.5t126.5 26.5q102 0 168.5 -45.5t80.5 -135.5l-100 -19q-8 61 -50 89t-103 28
q-60 0 -96.5 -33.5t-36.5 -82.5q0 -32 20 -53t50 -34t83 -30q65 -21 106 -40t69.5 -55t28.5 -92q0 -65 -33 -114.5t-91.5 -76t-133.5 -26.5q-117 0 -192 54zM323 932l83 -103l128 103h54l-136 -160h-105l-78 160h54z" />
    <glyph glyph-name="scaron" unicode="&#x161;" horiz-adv-x="481" 
d="M79.5 32q-58.5 42 -70.5 114l94 24q9 -56 44.5 -82t86.5 -26q48 0 75.5 21t27.5 57q0 26 -15 42.5t-38 25.5t-63 20q-52 14 -83.5 28t-54 43.5t-22.5 78.5q0 75 52.5 120t142.5 45q80 0 133 -36.5t62 -103.5l-88 -20q-6 45 -37 66.5t-74 21.5q-47 0 -73 -21t-26 -57
q0 -26 15.5 -42.5t38.5 -26t64 -21.5q52 -15 83.5 -29t54 -43t22.5 -77q0 -75 -55 -119.5t-148 -44.5q-90 0 -148.5 42zM227 772l83 -103l128 103h54l-136 -160h-105l-78 160h54z" />
    <glyph glyph-name="uni0162" unicode="&#x162;" horiz-adv-x="623" 
d="M655 616h-230l-109 -616h-102l108 616h-230l15 84h563zM206 -176.5q13 -12.5 34 -12.5q19 0 31.5 11t12.5 28q0 18 -13 29t-35 11h-28l-10 32l43 78h50l-29 -67h5q37 -3 59 -25t22 -55q0 -44 -29.5 -70.5t-77.5 -26.5q-45 0 -75 25.5t-34 63.5l61 14q0 -23 13 -35.5z" />
    <glyph glyph-name="uni0163" unicode="&#x163;" horiz-adv-x="357" 
d="M183 166q-5 -30 -5 -47q0 -28 12 -41t38 -13q31 0 58 16l7 -73q-36 -18 -81 -18l-25 -57h5q37 -3 59 -25t22 -55q0 -44 -29.5 -70.5t-78.5 -26.5q-45 0 -74.5 25.5t-34.5 63.5l61 14q1 -23 13.5 -35.5t34.5 -12.5q19 0 31.5 11t12.5 28q0 18 -13 29t-35 11h-28l-10 32
l40 73q-84 20 -84 116q0 26 6 56l53 292h-87l13 74h91l49 167h73l-30 -167h130l-14 -74h-128z" />
    <glyph glyph-name="Tcaron" unicode="&#x164;" horiz-adv-x="623" 
d="M655 616h-230l-109 -616h-102l108 616h-230l15 84h563zM329 932l83 -103l128 103h54l-136 -160h-105l-78 160h54z" />
    <glyph glyph-name="tcaron" unicode="&#x165;" horiz-adv-x="357" 
d="M183 166q-5 -30 -5 -47q0 -28 12 -41t38 -13q31 0 58 16l7 -73q-36 -18 -82 -18q-132 0 -132 121q0 25 6 56l53 292h-87l13 74h91l49 167h73l-30 -167h130l-14 -74h-128zM381 772h93l-75 -160h-47z" />
    <glyph glyph-name="Tbar" unicode="&#x166;" horiz-adv-x="623" 
d="M425 616l-41 -232h140l-13 -69h-139l-56 -315h-102l55 315h-133l13 69h132l41 232h-230l15 84h563l-15 -84h-230z" />
    <glyph glyph-name="tbar" unicode="&#x167;" horiz-adv-x="357" 
d="M235 459l-24 -137h103l-10 -65h-105l-16 -91q-5 -30 -5 -47q0 -28 12 -41t38 -13q31 0 58 16l7 -73q-36 -18 -82 -18q-132 0 -132 121q0 25 6 56l16 90h-76l10 65h78l25 137h-87l13 74h91l49 167h73l-30 -167h130l-14 -74h-128z" />
    <glyph glyph-name="Umacron" unicode="&#x16a;" horiz-adv-x="714" 
d="M146 52q-69 62 -69 176q0 35 6 72l70 400h103l-71 -406q-5 -33 -5 -56q0 -75 42 -117t123 -42q75 0 123.5 45.5t65.5 139.5l77 436h103l-80 -451q-23 -130 -99 -194.5t-191 -64.5q-129 0 -198 62zM611 897l-12 -69h-280l12 69h280z" />
    <glyph glyph-name="umacron" unicode="&#x16b;" horiz-adv-x="587" 
d="M559 533l-94 -533h-99l34 147q-50 -70 -110 -113.5t-119 -43.5q-60 0 -91.5 36.5t-31.5 102.5q0 27 6 60l60 344h99l-62 -351q-3 -13 -3 -29q0 -35 16.5 -58t55.5 -23q46 0 93 41t93 105l54 315h99zM514 730l-12 -68h-280l12 68h280z" />
    <glyph glyph-name="Uring" unicode="&#x16e;" horiz-adv-x="714" 
d="M146 52q-69 62 -69 176q0 35 6 72l70 400h103l-71 -406q-5 -33 -5 -56q0 -75 42 -117t123 -42q75 0 123.5 45.5t65.5 139.5l77 436h103l-80 -451q-23 -130 -99 -194.5t-191 -64.5q-129 0 -198 62zM391 796q-30 28 -30 69t30 68.5t72 27.5q41 0 71 -27.5t30 -68.5t-30 -69
t-71 -28q-42 0 -72 28zM496.5 830.5q13.5 13.5 13.5 34.5t-13.5 34t-33.5 13q-21 0 -34.5 -13t-13.5 -34t13.5 -34.5t34.5 -13.5q20 0 33.5 13.5z" />
    <glyph glyph-name="uring" unicode="&#x16f;" horiz-adv-x="587" 
d="M559 533l-94 -533h-99l34 147q-50 -70 -110 -113.5t-119 -43.5q-60 0 -91.5 36.5t-31.5 102.5q0 27 6 60l60 344h99l-62 -351q-3 -13 -3 -29q0 -35 16.5 -58t55.5 -23q46 0 93 41t93 105l54 315h99zM298 630.5q-30 27.5 -30 68.5t30 68.5t72 27.5q41 0 71 -27.5t30 -68.5
t-30 -68.5t-71 -27.5q-42 0 -72 27.5zM403.5 664.5q13.5 13.5 13.5 34.5t-13.5 34.5t-33.5 13.5t-34 -13.5t-14 -34.5t14 -34.5t34 -13.5t33.5 13.5z" />
    <glyph glyph-name="Uhungarumlaut" unicode="&#x170;" horiz-adv-x="714" 
d="M146 52q-69 62 -69 176q0 35 6 72l70 400h103l-71 -406q-5 -33 -5 -56q0 -75 42 -117t123 -42q75 0 123.5 45.5t65.5 139.5l77 436h103l-80 -451q-23 -130 -99 -194.5t-191 -64.5q-129 0 -198 62zM403 932h120l-146 -160h-53zM575 932h120l-146 -160h-53z" />
    <glyph glyph-name="uhungarumlaut" unicode="&#x171;" horiz-adv-x="587" 
d="M559 533l-94 -533h-99l34 147q-50 -70 -110 -113.5t-119 -43.5q-60 0 -91.5 36.5t-31.5 102.5q0 27 6 60l60 344h99l-62 -351q-3 -13 -3 -29q0 -35 16.5 -58t55.5 -23q46 0 93 41t93 105l54 315h99zM310 772h120l-146 -160h-53zM482 772h120l-146 -160h-53z" />
    <glyph glyph-name="Uogonek" unicode="&#x172;" horiz-adv-x="714" 
d="M714 700l-80 -451q-19 -107 -74 -169.5t-139 -81.5q-42 -30 -57.5 -45t-15.5 -36q0 -17 12 -27t32 -10q30 0 52 9l-13 -74q-30 -6 -55 -6q-54 0 -82.5 24.5t-28.5 61.5q0 51 77 95q-128 1 -196.5 63t-68.5 175q0 35 6 72l70 400h103l-71 -406q-5 -33 -5 -56
q0 -75 42 -117t123 -42q75 0 123.5 45.5t65.5 139.5l77 436h103z" />
    <glyph glyph-name="uogonek" unicode="&#x173;" horiz-adv-x="587" 
d="M413.5 -21q-24.5 -17 -35 -31.5t-10.5 -30.5q0 -17 12 -27t32 -10q30 0 52 9l-13 -74q-30 -6 -55 -6q-54 0 -82.5 24.5t-28.5 61.5q0 57 96 105h-15l34 147q-50 -70 -110 -113.5t-119 -43.5q-60 0 -91.5 36.5t-31.5 102.5q0 27 6 60l60 344h99l-62 -351q-3 -13 -3 -29
q0 -35 16.5 -58t55.5 -23q46 0 93 41t93 105l54 315h99l-94 -533h-21q-6 -4 -30.5 -21z" />
    <glyph glyph-name="Wcircumflex" unicode="&#x174;" horiz-adv-x="965" 
d="M1033 700l-288 -700h-146l-63 592l-263 -592h-145l-43 700h107l29 -601l262 601h149l50 -601l241 601h110zM666 772l-76 104l-119 -104h-62l137 160h105l77 -160h-62z" />
    <glyph glyph-name="wcircumflex" unicode="&#x175;" horiz-adv-x="780" 
d="M814 533l-237 -533h-111l-44 437l-195 -437h-117l-49 533h99l22 -445l192 445h126l38 -444l175 444h101zM549 612l-77 104l-119 -104h-62l138 160h104l77 -160h-61z" />
    <glyph glyph-name="Ycircumflex" unicode="&#x176;" horiz-adv-x="629" 
d="M697 700l-328 -416l-49 -284h-105l50 283l-180 417h115l125 -354l250 354h122zM500 772l-76 104l-119 -104h-62l137 160h105l77 -160h-62z" />
    <glyph glyph-name="ycircumflex" unicode="&#x177;" horiz-adv-x="586" 
d="M558 533l-86 -488q-39 -215 -258 -215q-87 0 -143.5 38.5t-69.5 109.5l83 26q8 -56 44.5 -82.5t86.5 -26.5q73 0 109.5 39.5t48.5 108.5l22 125q-49 -64 -105.5 -103t-112.5 -39q-60 0 -91.5 36.5t-31.5 102.5q0 27 6 60l54 308h99l-56 -315q-3 -13 -3 -29
q0 -34 16.5 -57t55.5 -23q83 0 185 148l29 164l19 112h99zM455 612l-77 104l-119 -104h-62l138 160h104l77 -160h-61z" />
    <glyph glyph-name="Ydieresis" unicode="&#x178;" horiz-adv-x="629" 
d="M697 700l-328 -416l-49 -284h-105l50 283l-180 417h115l125 -354l250 354h122zM271.5 807q-17.5 17 -17.5 45t17.5 45t46.5 17t46 -17t17 -45t-17 -45t-46 -17t-46.5 17zM469 807q-17 17 -17 45t17 45t46 17t46.5 -17t17.5 -45t-17.5 -45t-46.5 -17t-46 17z" />
    <glyph glyph-name="Zacute" unicode="&#x179;" horiz-adv-x="642" 
d="M654 626l-518 -546h433l-14 -80h-560l12 71l526 549h-423l14 80h543zM472 932h138l-173 -160h-55z" />
    <glyph glyph-name="zacute" unicode="&#x17a;" horiz-adv-x="501" 
d="M489 460l-365 -381h305l-13 -79h-426l12 66l378 389h-303l14 78h410zM356 772h138l-174 -160h-54z" />
    <glyph glyph-name="Zdotaccent" unicode="&#x17b;" horiz-adv-x="642" 
d="M654 626l-518 -546h433l-14 -80h-560l12 71l526 549h-423l14 80h543zM385 807q-18 17 -18 46t18 46t47 17t46.5 -17t17.5 -46t-17.5 -46t-46.5 -17t-47 17z" />
    <glyph glyph-name="zdotaccent" unicode="&#x17c;" horiz-adv-x="501" 
d="M489 460l-365 -381h305l-13 -79h-426l12 66l378 389h-303l14 78h410zM285.5 647q-17.5 17 -17.5 46t17.5 46t46.5 17t47 -17t18 -46t-18 -46t-47 -17t-46.5 17z" />
    <glyph glyph-name="Zcaron" unicode="&#x17d;" horiz-adv-x="642" 
d="M654 626l-518 -546h433l-14 -80h-560l12 71l526 549h-423l14 80h543zM339 932l83 -103l128 103h54l-136 -160h-105l-78 160h54z" />
    <glyph glyph-name="zcaron" unicode="&#x17e;" horiz-adv-x="501" 
d="M489 460l-365 -381h305l-13 -79h-426l12 66l378 389h-303l14 78h410zM238 772l83 -103l128 103h54l-136 -160h-105l-78 160h54z" />
    <glyph glyph-name="uni0218" unicode="&#x218;" horiz-adv-x="611" 
d="M114 44q-75 54 -89 157l101 25q10 -76 58 -114.5t126 -38.5q64 0 104 32.5t40 83.5q0 31 -20 52.5t-50.5 35t-81.5 30.5q-66 22 -106 42t-68.5 55.5t-28.5 90.5q0 64 31.5 113t87 75.5t126.5 26.5q102 0 168.5 -45.5t80.5 -135.5l-100 -19q-8 61 -50 89t-103 28
q-60 0 -96.5 -33.5t-36.5 -82.5q0 -32 20 -53t50 -34t83 -30q65 -21 106 -40t69.5 -55t28.5 -92q0 -65 -33 -114.5t-91.5 -76t-133.5 -26.5q-117 0 -192 54zM288 -80q14 -13 14 -41q0 -68 -39 -108t-109 -40v35q46 0 68 14t31 54h-4q-24 0 -38 12t-14 33q0 24 14.5 39
t38.5 15t38 -13z" />
    <glyph glyph-name="uni0219" unicode="&#x219;" horiz-adv-x="481" 
d="M79.5 32q-58.5 42 -70.5 114l94 24q9 -56 44.5 -82t86.5 -26q48 0 75.5 21t27.5 57q0 26 -15 42.5t-38 25.5t-63 20q-52 14 -83.5 28t-54 43.5t-22.5 78.5q0 75 52.5 120t142.5 45q80 0 133 -36.5t62 -103.5l-88 -20q-6 45 -37 66.5t-74 21.5q-47 0 -73 -21t-26 -57
q0 -26 15.5 -42.5t38.5 -26t64 -21.5q52 -15 83.5 -29t54 -43t22.5 -77q0 -75 -55 -119.5t-148 -44.5q-90 0 -148.5 42zM214 -80q14 -13 14 -41q0 -68 -39 -108t-109 -40v35q46 0 68 14t31 54h-4q-24 0 -38 12t-14 33q0 24 14.5 39t38.5 15t38 -13z" />
    <glyph glyph-name="uni021A" unicode="&#x21a;" horiz-adv-x="623" 
d="M655 616h-230l-109 -616h-102l108 616h-230l15 84h563zM273 -80q14 -13 14 -41q0 -68 -39 -108t-109 -40v35q46 0 68 14t31 54h-4q-24 0 -38 12t-14 33q0 24 14.5 39t38.5 15t38 -13z" />
    <glyph glyph-name="uni021B" unicode="&#x21b;" horiz-adv-x="357" 
d="M183 166q-5 -30 -5 -47q0 -28 12 -41t38 -13q31 0 58 16l7 -73q-36 -18 -82 -18q-132 0 -132 121q0 25 6 56l53 292h-87l13 74h91l49 167h73l-30 -167h130l-14 -74h-128zM198 -80q14 -13 14 -41q0 -68 -39 -108t-109 -40v35q46 0 68 14t31 54h-4q-24 0 -38 12t-14 33
q0 24 14.5 39t38.5 15t38 -13z" />
    <glyph glyph-name="uni0237" unicode="&#x237;" horiz-adv-x="248" 
d="M221 533l-89 -502q-17 -98 -74 -149.5t-143 -51.5h-18l-1 77q14 -5 32 -5q44 0 68.5 26.5t35.5 91.5l90 513h99z" />
    <glyph glyph-name="gravecomb" unicode="&#x300;" horiz-adv-x="0" 
d="M-272 612l-173 160h137l90 -160h-54z" />
    <glyph glyph-name="acutecomb" unicode="&#x301;" horiz-adv-x="0" 
d="M-241 772h138l-174 -160h-54z" />
    <glyph glyph-name="uni0302" unicode="&#x302;" horiz-adv-x="0" 
d="M-188 612l-77 104l-119 -104h-62l138 160h104l77 -160h-61z" />
    <glyph glyph-name="tildecomb" unicode="&#x303;" horiz-adv-x="0" 
d="M-256.5 648.5q-12.5 6.5 -27.5 19.5q-2 1 -9 7t-14.5 8.5t-14.5 2.5q-32 0 -41 -39h-71q11 53 41.5 78.5t71.5 25.5q21 0 33.5 -6.5t26.5 -18.5q12 -9 19 -13.5t18 -4.5q32 0 42 38h70q-9 -52 -39 -78t-72 -26q-21 0 -33.5 6.5z" />
    <glyph glyph-name="uni0304" unicode="&#x304;" horiz-adv-x="0" 
d="M-127 730l-12 -68h-280l12 68h280z" />
    <glyph glyph-name="uni0306" unicode="&#x306;" horiz-adv-x="0" 
d="M-366 655q-32 29 -32 80q0 9 2 27h71q-2 -14 -2 -19q0 -28 16 -44t42 -16q33 0 57.5 21.5t31.5 57.5h70q-13 -63 -59 -99.5t-110 -36.5q-55 0 -87 29z" />
    <glyph glyph-name="uni0307" unicode="&#x307;" horiz-adv-x="0" 
d="M-311.5 647q-17.5 17 -17.5 46t17.5 46t46.5 17t47 -17t18 -46t-18 -46t-47 -17t-46.5 17z" />
    <glyph glyph-name="uni0308" unicode="&#x308;" horiz-adv-x="0" 
d="M-371 648q-17 17 -17 45q0 29 17 45.5t46 16.5t46.5 -16.5t17.5 -45.5q0 -28 -17.5 -45t-46.5 -17t-46 17zM-173 648q-17 17 -17 45q0 29 17 45.5t46 16.5t46.5 -16.5t17.5 -45.5q0 -28 -17.5 -45t-46.5 -17t-46 17z" />
    <glyph glyph-name="uni030A" unicode="&#x30a;" horiz-adv-x="0" 
d="M-343 630.5q-30 27.5 -30 68.5t30 68.5t72 27.5q41 0 71 -27.5t30 -68.5t-30 -68.5t-71 -27.5q-42 0 -72 27.5zM-237.5 664.5q13.5 13.5 13.5 34.5t-13.5 34.5t-33.5 13.5t-34 -13.5t-14 -34.5t14 -34.5t34 -13.5t33.5 13.5z" />
    <glyph glyph-name="uni030B" unicode="&#x30b;" horiz-adv-x="0" 
d="M-331 772h120l-146 -160h-53zM-159 772h120l-146 -160h-53z" />
    <glyph glyph-name="uni030C" unicode="&#x30c;" horiz-adv-x="0" 
d="M-359 772l83 -103l128 103h54l-136 -160h-105l-78 160h54z" />
    <glyph glyph-name="uni0312" unicode="&#x312;" horiz-adv-x="0" 
d="M-258.5 728q14.5 -12 14.5 -31q0 -24 -15 -39.5t-40 -15.5q-51 0 -51 52q0 68 39 108t109 39l1 -31q-47 -2 -68.5 -16t-31.5 -54h4q24 0 38.5 -12z" />
    <glyph glyph-name="uni0326" unicode="&#x326;" horiz-adv-x="0" 
d="M-336 -80q14 -13 14 -41q0 -68 -39 -108t-109 -40v35q46 0 68 14t31 54h-4q-24 0 -38 12t-14 33q0 24 14.5 39t38.5 15t38 -13z" />
    <glyph glyph-name="uni0327" unicode="&#x327;" horiz-adv-x="0" 
d="M-339 -176.5q13 -12.5 34 -12.5q19 0 31.5 11t12.5 28q0 18 -13 29t-35 11h-28l-10 32l43 78h50l-29 -67h5q37 -3 59 -25t22 -55q0 -44 -29.5 -70.5t-77.5 -26.5q-45 0 -75 25.5t-34 63.5l61 14q0 -23 13 -35.5z" />
    <glyph glyph-name="uni0328" unicode="&#x328;" horiz-adv-x="0" 
d="M-293 -191q-54 0 -83 24.5t-29 61.5q0 36 39 69t115 61l5 -25q-6 -4 -30.5 -21t-35 -31.5t-10.5 -30.5q0 -17 12 -27t33 -10q28 0 52 9l-13 -74q-32 -6 -55 -6z" />
    <glyph glyph-name="uni0335" unicode="&#x335;" horiz-adv-x="0" 
d="M-467 387h375l-12 -69h-375z" />
    <glyph glyph-name="uni0336" unicode="&#x336;" horiz-adv-x="0" 
d="M23 387l-13 -69h-633l13 69h633z" />
    <glyph glyph-name="uni0337" unicode="&#x337;" horiz-adv-x="0" 
d="M-264 289l270 278l42 -41l-279 -272l-273 -280l-41 40z" />
    <glyph glyph-name="uni0338" unicode="&#x338;" horiz-adv-x="0" 
d="M-272 359l384 375l47 -46l-373 -354l-372 -367l-48 48z" />
    <glyph glyph-name="Wgrave" unicode="&#x1e80;" horiz-adv-x="965" 
d="M1033 700l-288 -700h-146l-63 592l-263 -592h-145l-43 700h107l29 -601l262 601h149l50 -601l241 601h110zM555 772l-173 160h138l90 -160h-55z" />
    <glyph glyph-name="wgrave" unicode="&#x1e81;" horiz-adv-x="780" 
d="M814 533l-237 -533h-111l-44 437l-195 -437h-117l-49 533h99l22 -445l192 445h126l38 -444l175 444h101zM432 612l-173 160h137l90 -160h-54z" />
    <glyph glyph-name="Wacute" unicode="&#x1e82;" horiz-adv-x="965" 
d="M1033 700l-288 -700h-146l-63 592l-263 -592h-145l-43 700h107l29 -601l262 601h149l50 -601l241 601h110zM631 932h138l-173 -160h-55z" />
    <glyph glyph-name="wacute" unicode="&#x1e83;" horiz-adv-x="780" 
d="M814 533l-237 -533h-111l-44 437l-195 -437h-117l-49 533h99l22 -445l192 445h126l38 -444l175 444h101zM496 772h138l-174 -160h-54z" />
    <glyph glyph-name="Wdieresis" unicode="&#x1e84;" horiz-adv-x="965" 
d="M1033 700l-288 -700h-146l-63 592l-263 -592h-145l-43 700h107l29 -601l262 601h149l50 -601l241 601h110zM437.5 807q-17.5 17 -17.5 45t17.5 45t46.5 17t46 -17t17 -45t-17 -45t-46 -17t-46.5 17zM635 807q-17 17 -17 45t17 45t46 17t46.5 -17t17.5 -45t-17.5 -45
t-46.5 -17t-46 17z" />
    <glyph glyph-name="wdieresis" unicode="&#x1e85;" horiz-adv-x="780" 
d="M814 533l-237 -533h-111l-44 437l-195 -437h-117l-49 533h99l22 -445l192 445h126l38 -444l175 444h101zM316 648q-17 17 -17 45q0 29 17 45.5t46 16.5t46.5 -16.5t17.5 -45.5q0 -28 -17.5 -45t-46.5 -17t-46 17zM514 648q-17 17 -17 45q0 29 17 45.5t46 16.5t46.5 -16.5
t17.5 -45.5q0 -28 -17.5 -45t-46.5 -17t-46 17z" />
    <glyph glyph-name="uni1E9E" unicode="&#x1e9e;" horiz-adv-x="730" 
d="M551.5 544q-52.5 -48 -52.5 -103q0 -30 18 -51.5t55 -49.5q31 -24 50.5 -43t33 -47t13.5 -65q0 -58 -28.5 -102.5t-79 -68.5t-115.5 -24q-87 0 -147 34.5t-69 103.5l95 24q5 -38 36.5 -61t83.5 -23q53 0 86 29.5t33 75.5q0 33 -18.5 55t-57.5 52q-44 34 -67 63.5
t-23 74.5q0 57 40.5 110.5t121.5 83.5h-143q-170 0 -201 -174l-77 -438h-101l79 448q23 130 98 191t213 61h267l-15 -87q-76 -21 -128.5 -69z" />
    <glyph glyph-name="Ygrave" unicode="&#x1ef2;" horiz-adv-x="629" 
d="M697 700l-328 -416l-49 -284h-105l50 283l-180 417h115l125 -354l250 354h122zM389 772l-173 160h138l90 -160h-55z" />
    <glyph glyph-name="ygrave" unicode="&#x1ef3;" horiz-adv-x="586" 
d="M558 533l-86 -488q-39 -215 -258 -215q-87 0 -143.5 38.5t-69.5 109.5l83 26q8 -56 44.5 -82.5t86.5 -26.5q73 0 109.5 39.5t48.5 108.5l22 125q-49 -64 -105.5 -103t-112.5 -39q-60 0 -91.5 36.5t-31.5 102.5q0 27 6 60l54 308h99l-56 -315q-3 -13 -3 -29
q0 -34 16.5 -57t55.5 -23q83 0 185 148l29 164l19 112h99zM338 612l-173 160h137l90 -160h-54z" />
    <glyph glyph-name="uni2009" unicode="&#x2009;" horiz-adv-x="120" 
 />
    <glyph glyph-name="endash" unicode="&#x2013;" horiz-adv-x="612" 
d="M58 325h516l-13 -75h-515z" />
    <glyph glyph-name="emdash" unicode="&#x2014;" horiz-adv-x="1095" 
d="M57 318h998l-13 -74l-998 -1z" />
    <glyph glyph-name="quoteleft" unicode="&#x2018;" horiz-adv-x="266" 
d="M234 564q16 -17 16 -44t-17 -44.5t-46 -17.5q-33 0 -51 20t-18 58q0 53 32.5 98.5t97.5 71.5l19 -38q-69 -35 -77 -86q28 -1 44 -18z" />
    <glyph glyph-name="quoteright" unicode="&#x2019;" horiz-adv-x="265" 
d="M240 685.5q18 -19.5 18 -57.5q0 -53 -32.5 -98.5t-97.5 -72.5l-19 38q69 35 78 86q-27 2 -43.5 18.5t-16.5 43.5q0 28 16.5 45t45.5 17q33 0 51 -19.5z" />
    <glyph glyph-name="quotesinglbase" unicode="&#x201a;" horiz-adv-x="265" 
d="M137 101.5q18 -19.5 18 -57.5q0 -53 -32.5 -98.5t-97.5 -72.5l-19 38q69 35 78 86q-27 2 -43.5 18.5t-16.5 43.5q0 28 16.5 45t45.5 17q33 0 51 -19.5z" />
    <glyph glyph-name="quotedblleft" unicode="&#x201c;" horiz-adv-x="441" 
d="M190 582q28 -1 44 -18t16 -44t-17 -44.5t-46 -17.5q-33 0 -51 20t-18 58q0 53 32.5 98.5t97.5 71.5l19 -38q-69 -35 -77 -86zM409 564q16 -17 16 -44q0 -28 -17 -45t-46 -17q-33 0 -50.5 19.5t-17.5 58.5q0 53 32.5 98.5t97.5 71.5l18 -38q-69 -35 -77 -86q28 -1 44 -18z
" />
    <glyph glyph-name="quotedblright" unicode="&#x201d;" horiz-adv-x="441" 
d="M240 685.5q18 -19.5 18 -57.5q0 -53 -32.5 -98.5t-97.5 -72.5l-19 38q69 35 78 86q-27 2 -43.5 18.5t-16.5 43.5q0 28 16.5 45t45.5 17q33 0 51 -19.5zM415 685.5q18 -19.5 18 -57.5q0 -53 -32.5 -98.5t-97.5 -72.5l-19 38q69 35 78 86q-27 2 -43.5 18.5t-16.5 43.5
q0 28 16.5 45t45.5 17q33 0 51 -19.5z" />
    <glyph glyph-name="quotedblbase" unicode="&#x201e;" horiz-adv-x="440" 
d="M137 101.5q18 -19.5 18 -57.5q0 -53 -32.5 -98.5t-97.5 -72.5l-19 38q69 35 78 86q-27 2 -43.5 18.5t-16.5 43.5q0 28 16.5 45t45.5 17q33 0 51 -19.5zM312 101.5q18 -19.5 18 -57.5q0 -53 -32.5 -98.5t-97.5 -72.5l-19 38q69 35 78 86q-27 2 -43.5 18.5t-16.5 43.5
q0 28 16.5 45t45.5 17q33 0 51 -19.5z" />
    <glyph glyph-name="dagger" unicode="&#x2020;" horiz-adv-x="453" 
d="M430 553h-120l-53 -301h-66l53 301h-120l10 60h121l22 127h66l-22 -127h120z" />
    <glyph glyph-name="daggerdbl" unicode="&#x2021;" horiz-adv-x="453" 
d="M310 553l-20 -114h121l-11 -59h-120l-23 -128h-66l23 128h-120l10 59h120l20 114h-120l10 60h121l22 127h66l-22 -127h120l-11 -60h-120z" />
    <glyph glyph-name="bullet" unicode="&#x2022;" horiz-adv-x="421" 
d="M360 196h-275v275h275v-275z" />
    <glyph glyph-name="ellipsis" unicode="&#x2026;" horiz-adv-x="743" 
d="M287.5 12q-17.5 17 -17.5 46t17.5 46t46.5 17t47 -17t18 -46t-18 -46t-47 -17t-46.5 17zM521.5 12q-17.5 17 -17.5 46t17.5 46t46.5 17t47 -17t18 -46t-18 -46t-47 -17t-46.5 17zM53.5 12q-17.5 17 -17.5 46t17.5 46t46.5 17t47 -17t18 -46t-18 -46t-47 -17t-46.5 17z
" />
    <glyph glyph-name="perthousand" unicode="&#x2030;" horiz-adv-x="1388" 
d="M155.5 370q-46.5 46 -46.5 125q0 60 25 109t70.5 77.5t103.5 28.5q81 0 127.5 -45t46.5 -118q0 -63 -25 -114t-70.5 -80t-104.5 -29q-80 0 -126.5 46zM477 360l263 340h81l-298 -363l-260 -337h-81zM370.5 433q31.5 47 31.5 115q-1 47 -26 73.5t-70 26.5q-55 0 -86 -46
t-31 -108q0 -53 25 -80.5t70 -27.5q55 0 86.5 47zM575.5 30q-46.5 46 -46.5 125q0 60 25 109t70.5 77.5t103.5 28.5q81 0 127 -45t47 -118q0 -63 -25.5 -114t-71 -80t-103.5 -29q-80 0 -126.5 46zM981.5 30q-46.5 46 -46.5 125q0 60 25 109t70.5 77.5t103.5 28.5
q81 0 127.5 -45t46.5 -118q0 -63 -25 -114t-70.5 -80t-104.5 -29q-80 0 -126.5 46zM789.5 92.5q31.5 46.5 31.5 113.5q0 49 -24.5 76t-71.5 27q-54 0 -85 -46t-31 -108q0 -53 24.5 -81t69.5 -28q55 0 86.5 46.5zM1196.5 93.5q31.5 47.5 31.5 115.5q-1 47 -26 73.5t-70 26.5
q-55 0 -86 -46t-31 -108q0 -53 24.5 -81t70.5 -28q55 0 86.5 47.5z" />
    <glyph glyph-name="guilsinglleft" unicode="&#x2039;" horiz-adv-x="327" 
d="M216 479h90q-41 -93 -174 -188q98 -94 107 -188h-90q-6 88 -92 177l4 22q116 87 155 177z" />
    <glyph glyph-name="guilsinglright" unicode="&#x203a;" horiz-adv-x="327" 
d="M119 103h-89q42 95 174 188q-99 93 -108 188h90q8 -90 92 -177l-3 -22q-116 -87 -156 -177z" />
    <glyph glyph-name="fraction" unicode="&#x2044;" horiz-adv-x="214" 
d="M96 360l263 340h81l-298 -363l-259 -337h-81z" />
    <glyph glyph-name="uni2070" unicode="&#x2070;" horiz-adv-x="411" 
d="M403.5 764.5q42.5 -45.5 42.5 -128.5q0 -75 -23.5 -140.5t-69.5 -105.5t-111 -40q-79 0 -121.5 45.5t-42.5 128.5q0 75 23.5 140.5t70 105.5t110.5 40q79 0 121.5 -45.5zM190.5 671.5q-29.5 -65.5 -29.5 -148.5q0 -50 20.5 -75t63.5 -25q58 0 88 64t30 146q0 52 -20.5 78
t-63.5 26q-59 0 -88.5 -65.5z" />
    <glyph glyph-name="uni2074" unicode="&#x2074;" horiz-adv-x="409" 
d="M411 457h-56l-19 -105h-80l19 105h-233l9 52l259 291h105l-50 -281h58zM286 519l40 223l-194 -223h154z" />
    <glyph glyph-name="uni2075" unicode="&#x2075;" horiz-adv-x="392" 
d="M224 737q-14 -67 -50 -149q18 25 46 41t66 16q56 0 90.5 -35.5t34.5 -94.5q0 -47 -22.5 -85.5t-63.5 -60.5t-93 -22q-64 0 -109 32t-56 85l79 19q5 -33 29.5 -52.5t60.5 -19.5q46 0 70.5 29.5t24.5 69.5q0 36 -20 55t-55 19q-51 0 -89 -44l-73 22q54 120 77 238h275
l-11 -63h-211z" />
    <glyph glyph-name="uni2076" unicode="&#x2076;" horiz-adv-x="405" 
d="M381.5 610q37.5 -37 37.5 -97q0 -45 -20.5 -82t-60.5 -59t-95 -22q-80 0 -121.5 47.5t-41.5 132.5q0 69 25.5 133.5t73.5 105.5t113 41q50 0 92.5 -25t56.5 -73l-75 -21q-7 29 -27.5 44t-47.5 15q-53 0 -85.5 -47t-42.5 -115q50 59 122 59q59 0 96.5 -37zM315.5 440.5
q25.5 30.5 25.5 71.5q0 37 -21.5 58t-57.5 21q-55 0 -104 -54v-5q0 -65 24 -93.5t63 -28.5q45 0 70.5 30.5z" />
    <glyph glyph-name="uni2077" unicode="&#x2077;" horiz-adv-x="344" 
d="M440 800l-12 -64q-76 -67 -119.5 -121t-67.5 -115t-36 -148h-93q20 114 76.5 209.5t173.5 175.5h-268l11 63h335z" />
    <glyph glyph-name="uni2078" unicode="&#x2078;" horiz-adv-x="393" 
d="M406 482q0 -58 -46 -95t-125 -37q-75 0 -123.5 33.5t-48.5 91.5q0 51 37 83t97 40q-80 25 -80 92q0 52 42.5 86t113.5 34q69 0 113.5 -31.5t44.5 -84.5q0 -42 -30.5 -70.5t-86.5 -36.5q92 -27 92 -105zM215.5 734q-22.5 -19 -22.5 -49q0 -28 22 -45t56 -17
q37 0 58.5 18.5t21.5 47.5t-22 46.5t-55 17.5q-36 0 -58.5 -19zM303.5 429.5q24.5 21.5 24.5 54.5t-25 52.5t-64 19.5q-42 0 -68 -21.5t-26 -54.5q0 -32 24.5 -52t65.5 -20q44 0 68.5 21.5z" />
    <glyph glyph-name="uni2079" unicode="&#x2079;" horiz-adv-x="405" 
d="M403.5 762.5q41.5 -47.5 41.5 -131.5q0 -69 -25 -134t-73.5 -106t-113.5 -41q-49 0 -91.5 25t-57.5 74l76 20q6 -29 26.5 -43.5t47.5 -14.5q52 0 84.5 46.5t43.5 113.5q-50 -58 -122 -58q-59 0 -96.5 37.5t-37.5 97.5q0 45 20.5 82t60.5 58.5t95 21.5q80 0 121.5 -47.5z
M367 623v5q0 65 -24 93.5t-62 28.5q-46 0 -71 -30t-25 -72q0 -36 21.5 -57.5t56.5 -21.5q55 0 104 54z" />
    <glyph glyph-name="uni2080" unicode="&#x2080;" horiz-adv-x="411" 
d="M315.5 264.5q42.5 -45.5 42.5 -128.5q0 -75 -23.5 -140.5t-69.5 -105.5t-111 -40q-79 0 -121.5 45.5t-42.5 128.5q0 75 23.5 140.5t70 105.5t110.5 40q79 0 121.5 -45.5zM102.5 171.5q-29.5 -65.5 -29.5 -148.5q0 -50 20.5 -75t63.5 -25q58 0 88 64t30 146q0 52 -20.5 78
t-63.5 26q-59 0 -88.5 -65.5z" />
    <glyph glyph-name="uni2081" unicode="&#x2081;" horiz-adv-x="285" 
d="M225 300l-79 -448h-78l67 380q-33 -48 -113 -82l-20 66q59 20 94.5 39.5t62.5 44.5h66z" />
    <glyph glyph-name="uni2082" unicode="&#x2082;" horiz-adv-x="380" 
d="M65 -79h235l-12 -65h-331l9 55l148 103q53 37 79.5 58t44.5 47t18 56q0 34 -21.5 52.5t-55.5 18.5q-43 0 -70 -31t-23 -94h-80q1 96 50.5 142.5t128.5 46.5q71 0 112 -36t41 -95q0 -61 -49 -109t-158 -110z" />
    <glyph glyph-name="uni2083" unicode="&#x2083;" horiz-adv-x="408" 
d="M303 48q28 -27 28 -70q0 -57 -50.5 -92.5t-126.5 -35.5q-74 0 -123 35t-56 95l79 19q4 -44 32.5 -65t69.5 -21q42 0 67 21t25 53q0 29 -23 48.5t-66 19.5h-32l9 58h47q40 0 64.5 18t24.5 50q0 30 -21.5 47.5t-55.5 17.5q-35 0 -61 -19.5t-36 -53.5l-74 22q17 53 60 84
t111 31q71 0 115 -33t44 -87q0 -48 -35 -74.5t-94 -31.5q50 -9 78 -36z" />
    <glyph glyph-name="uni2084" unicode="&#x2084;" horiz-adv-x="409" 
d="M323 -43h-56l-19 -105h-80l19 105h-233l9 52l259 291h105l-50 -281h58zM198 19l40 223l-194 -223h154z" />
    <glyph glyph-name="uni2085" unicode="&#x2085;" horiz-adv-x="392" 
d="M136 237q-14 -67 -50 -149q18 25 46 41t66 16q56 0 90.5 -35.5t34.5 -94.5q0 -47 -22.5 -85.5t-63.5 -60.5t-93 -22q-64 0 -109 32t-56 85l79 19q5 -33 29.5 -52.5t60.5 -19.5q46 0 70.5 29.5t24.5 69.5q0 36 -20 55t-55 19q-51 0 -89 -44l-73 22q54 120 77 238h275
l-11 -63h-211z" />
    <glyph glyph-name="uni2086" unicode="&#x2086;" horiz-adv-x="405" 
d="M293.5 110q37.5 -37 37.5 -97q0 -45 -20.5 -82t-60.5 -59t-95 -22q-80 0 -121.5 47.5t-41.5 132.5q0 69 25.5 133.5t73.5 105.5t113 41q50 0 92.5 -25t56.5 -73l-75 -21q-7 29 -27.5 44t-47.5 15q-53 0 -85.5 -47t-42.5 -115q50 59 122 59q59 0 96.5 -37zM227.5 -59.5
q25.5 30.5 25.5 71.5q0 37 -21.5 58t-57.5 21q-55 0 -104 -54v-5q0 -65 24 -93.5t63 -28.5q45 0 70.5 30.5z" />
    <glyph glyph-name="uni2087" unicode="&#x2087;" horiz-adv-x="344" 
d="M352 300l-12 -64q-76 -67 -119.5 -121t-67.5 -115t-36 -148h-93q20 114 76.5 209.5t173.5 175.5h-268l11 63h335z" />
    <glyph glyph-name="uni2088" unicode="&#x2088;" horiz-adv-x="393" 
d="M318 -18q0 -58 -46 -95t-125 -37q-75 0 -123.5 33.5t-48.5 91.5q0 51 37 83t97 40q-80 25 -80 92q0 52 42.5 86t113.5 34q69 0 113.5 -31.5t44.5 -84.5q0 -42 -30.5 -70.5t-86.5 -36.5q92 -27 92 -105zM127.5 234q-22.5 -19 -22.5 -49q0 -28 22 -45t56 -17
q37 0 58.5 18.5t21.5 47.5t-22 46.5t-55 17.5q-36 0 -58.5 -19zM215.5 -70.5q24.5 21.5 24.5 54.5t-25 52.5t-64 19.5q-42 0 -68 -21.5t-26 -54.5q0 -32 24.5 -52t65.5 -20q44 0 68.5 21.5z" />
    <glyph glyph-name="uni2089" unicode="&#x2089;" horiz-adv-x="405" 
d="M314.5 262.5q41.5 -47.5 41.5 -131.5q0 -69 -25 -134t-73.5 -106t-113.5 -41q-49 0 -91.5 25t-57.5 74l76 20q6 -29 26.5 -43.5t47.5 -14.5q52 0 84.5 46.5t43.5 113.5q-50 -58 -122 -58q-59 0 -96.5 37.5t-37.5 97.5q0 45 20.5 82t60.5 58.5t95 21.5q80 0 121.5 -47.5z
M278 123v5q0 65 -24 93.5t-62 28.5q-46 0 -71 -30t-25 -72q0 -36 21.5 -57.5t56.5 -21.5q55 0 104 54z" />
    <glyph glyph-name="uni20A8" unicode="&#x20a8;" 
d="M433 639q41 -42 42 -108h91l-10 -61h-89q-20 -64 -84 -98.5t-161 -42.5q145 -28 158 -141l21 -188h-115l-9 177q-3 68 -42.5 93.5t-120.5 25.5h-29l14 82h79q68 0 118.5 23.5t67.5 68.5h-244l10 61h240q-7 41 -39.5 64t-89.5 23h-99l15 82h439l-10 -61h-153z" />
    <glyph glyph-name="Euro" unicode="&#x20ac;" 
d="M312.5 586q-50.5 -50 -78.5 -131h234l-36 -59h-216q-9 -40 -12 -81h181l-36 -59h-147q3 -96 44.5 -144t115.5 -48q36 0 63.5 12t52.5 39l48 -67q-36 -30 -76 -44t-90 -14q-113 0 -183 69.5t-77 196.5h-87l11 59h76q4 47 11 81h-74l11 59h80q38 112 118 183.5t187 71.5
q55 0 100 -19t77 -55l-69 -54q-18 27 -46 40.5t-63 13.5q-69 0 -119.5 -50z" />
    <glyph glyph-name="uni2116" unicode="&#x2116;" horiz-adv-x="1285" 
d="M1213.5 404q-27.5 -56 -78 -88t-114.5 -32q-89 0 -140.5 50.5t-51.5 137.5q0 67 28 121t78 85.5t114 31.5q90 0 141 -50t51 -130q0 -70 -27.5 -126zM658 700h99l-123 -700h-135l-254 610l-107 -610h-99l123 700h142l249 -595zM1118.5 404q34.5 52 34.5 127
q-1 52 -28.5 81.5t-77.5 29.5q-41 0 -70 -24t-44 -63t-15 -83q0 -59 27.5 -89.5t76.5 -30.5q62 0 96.5 52zM832 217h281l-13 -71h-281z" />
    <glyph glyph-name="trademark" unicode="&#x2122;" horiz-adv-x="713" 
d="M261 650l-45 -255h-62l45 255h-98l9 51h257l-9 -51h-97zM756 701l-54 -306h-61l44 254l-131 -254h-52l-42 256l-46 -256h-56l54 306h88l40 -228l119 228h97z" />
    <glyph glyph-name="oneeighth" unicode="&#x215b;" horiz-adv-x="896" 
d="M295 700l-79 -448h-78l67 380q-33 -48 -113 -82l-20 66q59 20 94.5 39.5t62.5 44.5h66zM395 360l263 340h81l-298 -363l-259 -337h-81zM845 126q0 -58 -46 -95t-125 -37q-75 0 -123.5 33.5t-48.5 91.5q0 51 37 83t97 40q-80 25 -80 92q0 52 42.5 86t113.5 34
q69 0 113.5 -31.5t44.5 -84.5q0 -42 -30.5 -70.5t-86.5 -36.5q92 -27 92 -105zM654.5 378q-22.5 -19 -22.5 -49q0 -28 22 -45t56 -17q37 0 58.5 18.5t21.5 47.5t-22 46.5t-55 17.5q-36 0 -58.5 -19zM742.5 73.5q24.5 21.5 24.5 54.5t-25 52.5t-64 19.5q-42 0 -68 -21.5
t-26 -54.5q0 -32 24.5 -52t65.5 -20q44 0 68.5 21.5z" />
    <glyph glyph-name="threeeighths" unicode="&#x215c;" horiz-adv-x="1005" 
d="M373 448q28 -27 28 -70q0 -57 -50.5 -92.5t-126.5 -35.5q-74 0 -123 35t-56 95l79 19q4 -44 32.5 -65t69.5 -21q42 0 67 21t25 53q0 29 -23 48.5t-66 19.5h-32l9 58h47q40 0 64.5 18t24.5 50q0 30 -21.5 47.5t-55.5 17.5q-35 0 -61 -19.5t-36 -53.5l-74 22q17 53 60 84
t111 31q71 0 115 -33t44 -87q0 -48 -35 -74.5t-94 -31.5q50 -9 78 -36zM504 360l263 340h81l-298 -363l-259 -337h-81zM955 126q0 -58 -46 -95t-125 -37q-75 0 -123.5 33.5t-48.5 91.5q0 51 37 83t97 40q-80 25 -80 92q0 52 42.5 86t113.5 34q69 0 113.5 -31.5t44.5 -84.5
q0 -42 -30.5 -70.5t-86.5 -36.5q92 -27 92 -105zM764.5 378q-22.5 -19 -22.5 -49q0 -28 22 -45t56 -17q37 0 58.5 18.5t21.5 47.5t-22 46.5t-55 17.5q-36 0 -58.5 -19zM852.5 73.5q24.5 21.5 24.5 54.5t-25 52.5t-64 19.5q-42 0 -68 -21.5t-26 -54.5q0 -32 24.5 -52
t65.5 -20q44 0 68.5 21.5z" />
    <glyph glyph-name="fiveeighths" unicode="&#x215d;" horiz-adv-x="1009" 
d="M206 637q-14 -67 -50 -149q18 25 46 41t66 16q56 0 90.5 -35.5t34.5 -94.5q0 -47 -22.5 -85.5t-63.5 -60.5t-93 -22q-64 0 -109 32t-56 85l79 19q5 -33 29.5 -52.5t60.5 -19.5q46 0 70.5 29.5t24.5 69.5q0 36 -20 55t-55 19q-51 0 -89 -44l-73 22q54 120 77 238h275
l-11 -63h-211zM508 360l263 340h81l-298 -363l-259 -337h-81zM958 126q0 -58 -46 -95t-125 -37q-75 0 -123.5 33.5t-48.5 91.5q0 51 37 83t97 40q-80 25 -80 92q0 52 42.5 86t113.5 34q69 0 113.5 -31.5t44.5 -84.5q0 -42 -30.5 -70.5t-86.5 -36.5q92 -27 92 -105z
M767.5 378q-22.5 -19 -22.5 -49q0 -28 22 -45t56 -17q37 0 58.5 18.5t21.5 47.5t-22 46.5t-55 17.5q-36 0 -58.5 -19zM855.5 73.5q24.5 21.5 24.5 54.5t-25 52.5t-64 19.5q-42 0 -68 -21.5t-26 -54.5q0 -32 24.5 -52t65.5 -20q44 0 68.5 21.5z" />
    <glyph glyph-name="seveneighths" unicode="&#x215e;" horiz-adv-x="904" 
d="M422 700l-12 -64q-76 -67 -119.5 -121t-67.5 -115t-36 -148h-93q20 114 76.5 209.5t173.5 175.5h-268l11 63h335zM403 360l263 340h81l-298 -363l-259 -337h-81zM854 126q0 -58 -46 -95t-125 -37q-75 0 -123.5 33.5t-48.5 91.5q0 51 37 83t97 40q-80 25 -80 92
q0 52 42.5 86t113.5 34q69 0 113.5 -31.5t44.5 -84.5q0 -42 -30.5 -70.5t-86.5 -36.5q92 -27 92 -105zM663.5 378q-22.5 -19 -22.5 -49q0 -28 22 -45t56 -17q37 0 58.5 18.5t21.5 47.5t-22 46.5t-55 17.5q-36 0 -58.5 -19zM751.5 73.5q24.5 21.5 24.5 54.5t-25 52.5
t-64 19.5q-42 0 -68 -21.5t-26 -54.5q0 -32 24.5 -52t65.5 -20q44 0 68.5 21.5z" />
    <glyph glyph-name="arrowleft" unicode="&#x2190;" horiz-adv-x="969" 
d="M949 308l-809 1l266 -254l-59 -59l-331 334v37l332 332l59 -58l-267 -253h809v-80z" />
    <glyph glyph-name="arrowup" unicode="&#x2191;" horiz-adv-x="724" 
d="M647 324l-244 247v-571h-81v573l-245 -249l-57 60l323 317h38l323 -317z" />
    <glyph glyph-name="arrowright" unicode="&#x2192;" horiz-adv-x="969" 
d="M953 367v-37l-331 -334l-58 59l266 254l-810 -1v80h810l-268 253l59 58z" />
    <glyph glyph-name="arrowdown" unicode="&#x2193;" horiz-adv-x="724" 
d="M704 317l-323 -317h-38l-323 317l57 60l245 -248v572h81v-571l244 247z" />
    <glyph glyph-name="uni2196" unicode="&#x2196;" horiz-adv-x="825" 
d="M746 -2l-572 574l9 -369h-83l2 470l27 27h469v-83l-367 10l572 -572z" />
    <glyph glyph-name="uni2197" unicode="&#x2197;" horiz-adv-x="825" 
d="M642 203l9 368l-572 -573l-57 57l573 572l-368 -10v83h469l27 -27l2 -470h-83z" />
    <glyph glyph-name="uni2198" unicode="&#x2198;" horiz-adv-x="825" 
d="M725 495l-2 -470l-27 -27h-469v83l368 -10l-573 572l57 57l572 -573l-9 368h83z" />
    <glyph glyph-name="uni2199" unicode="&#x2199;" horiz-adv-x="825" 
d="M231 71l367 10v-83h-469l-27 27l-2 470h83l-9 -369l572 574l57 -57z" />
    <glyph glyph-name="minus" unicode="&#x2212;" horiz-adv-x="599" 
d="M70 369h495l-12 -71h-495z" />
    <glyph glyph-name="approxequal" unicode="&#x2248;" horiz-adv-x="602" 
d="M104 376q16 51 48.5 83t84.5 32q25 0 45.5 -6.5t57.5 -21.5q24 -12 42.5 -18t36.5 -6q30 0 49 14.5t27 36.5l60 -13q-15 -52 -47.5 -83.5t-84.5 -31.5q-26 0 -49 7.5t-56 21.5q-26 12 -43 17.5t-34 5.5q-30 0 -49 -15t-27 -37zM69 181q16 51 48.5 83t84.5 32
q25 0 45.5 -6.5t57.5 -21.5q24 -12 42.5 -18t36.5 -6q30 0 49 14.5t27 36.5l60 -13q-15 -52 -47.5 -83.5t-84.5 -31.5q-26 0 -49 7.5t-56 21.5q-26 12 -43 17.5t-34 5.5q-30 0 -49 -15t-27 -37z" />
    <glyph glyph-name="notequal" unicode="&#x2260;" 
d="M383 398l-90 -129h254l-12 -71h-292l-92 -132h-75l92 132h-128l12 71h166l90 129h-233l12 71h271l92 132h75l-92 -132h149l-12 -71h-187z" />
    <glyph glyph-name="lessequal" unicode="&#x2264;" 
d="M538 512l-316 -101l280 -101l-16 -92l-363 157l13 71l418 157zM85 157h390l-13 -75h-390z" />
    <glyph glyph-name="greaterequal" unicode="&#x2265;" 
d="M527 446l-12 -71l-418 -157l16 92l315 101l-280 101l17 91zM86 157h390l-13 -75h-390z" />
    <glyph glyph-name="filledbox" unicode="&#x25a0;" horiz-adv-x="423" 
d="M124 234q-38 38 -38 100t38 99.5t100 37.5t99.5 -37.5t37.5 -99.5t-37.5 -100t-99.5 -38t-100 38z" />
    <glyph glyph-name="uni2713" unicode="&#x2713;" horiz-adv-x="1040" 
d="M1009 671l-635 -695l-319 347l81 73l238 -266l564 610z" />
    <glyph glyph-name="fl" unicode="&#xfb02;" horiz-adv-x="618" 
d="M484 95q0 -14 7 -21.5t25 -7.5q23 0 43 15v-76q-36 -14 -72 -14q-55 0 -79.5 23t-24.5 61q0 17 2 25l63 359h-217l-81 -459h-99l81 459h-81l13 74h81l2 10q18 96 78 148t144 52q50 0 88 -14l-35 -74q-23 15 -59 15q-46 0 -76 -29t-41 -96l-2 -12h217l30 167h98l-103 -586
q-2 -14 -2 -19z" />
    <glyph glyph-name="i.loclTRK" horiz-adv-x="249" 
d="M122 533h99l-94 -533h-98zM160.5 647q-17.5 17 -17.5 46t17.5 46t46.5 17t47 -17t18 -46t-18 -46t-47 -17t-46.5 17z" />
    <glyph glyph-name="germandbls.calt" horiz-adv-x="730" 
d="M551.5 544q-52.5 -48 -52.5 -103q0 -30 18 -51.5t55 -49.5q31 -24 50.5 -43t33 -47t13.5 -65q0 -58 -28.5 -102.5t-79 -68.5t-115.5 -24q-87 0 -147 34.5t-69 103.5l95 24q5 -38 36.5 -61t83.5 -23q53 0 86 29.5t33 75.5q0 33 -18.5 55t-57.5 52q-44 34 -67 63.5
t-23 74.5q0 57 40.5 110.5t121.5 83.5h-143q-170 0 -201 -174l-77 -438h-101l79 448q23 130 98 191t213 61h267l-15 -87q-76 -21 -128.5 -69z" />
    <glyph glyph-name="f_f" horiz-adv-x="652" 
d="M560 542l-2 -9h130l-12 -74h-130l-80 -459h-98l81 459h-219l-80 -459h-99l81 459h-80l12 74h81l2 13q16 90 79.5 140.5t152.5 50.5q46 0 80 -15l-36 -76q-21 17 -59 17q-99 0 -120 -121l-2 -9h220l2 13q15 90 78.5 140.5t152.5 50.5q47 0 81 -15l-37 -76q-21 17 -59 17
q-99 0 -120 -121z" />
    <glyph glyph-name="f_f_f" horiz-adv-x="968" 
d="M876 542l-2 -9h130l-12 -74h-130l-80 -459h-98l81 459h-219l-80 -459h-99l81 459h-218l-80 -459h-99l81 459h-80l12 74h81l2 13q16 90 79.5 140.5t152.5 50.5q46 0 80 -15l-36 -76q-21 17 -59 17q-99 0 -120 -121l-2 -9h219l2 13q16 90 79.5 140.5t152.5 50.5
q46 0 80 -15l-36 -76q-21 17 -59 17q-99 0 -120 -121l-2 -9h220l2 13q15 90 78.5 140.5t152.5 50.5q47 0 81 -15l-37 -76q-21 17 -59 17q-99 0 -120 -121z" />
    <glyph glyph-name="f_f_k" horiz-adv-x="1216" 
d="M972 311l189 -311h-109l-146 258l-106 -84l-31 -174h-98l81 459h-215l-81 -459h-98l80 459h-208l-80 -459h-99l81 459h-80l12 74h81l2 13q16 90 79.5 140.5t152.5 50.5q46 0 80 -15l-36 -76q-21 17 -59 17q-99 0 -120 -121l-2 -9h209l2 10q18 96 78 148t145 52
q49 0 87 -14l-35 -74q-23 15 -59 15q-45 0 -75 -29t-42 -96l-2 -12h215l29 167h98l-77 -440l305 273h132z" />
    <glyph glyph-name="f_f_l" horiz-adv-x="925" 
d="M790 96q0 -15 7 -22.5t25 -7.5q23 0 44 15v-76q-36 -14 -72 -14q-56 0 -80.5 23.5t-24.5 61.5q0 8 2 24l63 359h-217l-81 -459h-98l80 459h-208l-80 -459h-99l81 459h-80l12 74h81l2 13q16 90 79.5 140.5t152.5 50.5q46 0 80 -15l-36 -76q-21 17 -59 17q-99 0 -120 -121
l-2 -9h209l2 10q18 96 78 148t145 52q49 0 87 -14l-35 -74q-23 15 -59 15q-45 0 -75 -29t-42 -96l-2 -12h217l30 167h99l-104 -586q-2 -12 -2 -18z" />
    <glyph glyph-name="f_k" horiz-adv-x="909" 
d="M666 311l189 -311h-109l-146 258l-106 -84l-31 -174h-99l81 459h-214l-81 -459h-99l81 459h-81l13 74h81l2 10q18 96 78 148t144 52q50 0 88 -14l-35 -74q-23 15 -59 15q-46 0 -76 -29t-41 -96l-2 -12h214l29 167h99l-77 -440l304 273h133z" />
    <glyph glyph-name="zero.osf" horiz-adv-x="617" 
d="M159 20q-56 30 -86 84t-30 124q0 87 36 159t101.5 114t149.5 42q73 0 128.5 -29.5t86 -83.5t30.5 -124q0 -86 -36.5 -158.5t-102 -115t-148.5 -42.5q-73 0 -129 30zM389 106.5q42 32.5 64.5 85t22.5 112.5q0 72 -40 115t-110 43q-56 0 -98 -32.5t-64.5 -86t-22.5 -112.5
q0 -71 40 -114t110 -43q56 0 98 32.5z" />
    <glyph glyph-name="one.osf" 
d="M515 80l-13 -80h-485l14 80h186l65 366q-36 -42 -82 -71.5t-104 -56.5l-23 86q81 26 137 56.5t101 72.5h80l-79 -453h203z" />
    <glyph glyph-name="two.osf" horiz-adv-x="568" 
d="M174 77h336l-14 -77h-491l12 66l218 102q109 51 154 94t45 94q0 49 -31 77.5t-85 28.5q-61 0 -102.5 -39t-41.5 -115q0 -16 1 -24h-101q-1 84 31.5 142.5t90 87.5t129.5 29q96 0 154.5 -49t58.5 -131q0 -72 -60.5 -131.5t-196.5 -112.5z" />
    <glyph glyph-name="three.osf" horiz-adv-x="621" 
d="M490 134q38 -41 38 -103q0 -60 -33 -107t-92.5 -74t-135.5 -27q-112 0 -183 58t-80 157l99 21q4 -78 48 -118.5t119 -40.5q77 0 117.5 39t40.5 95q0 54 -38 87t-111 33h-54l12 75h61q78 0 123.5 31t45.5 91q0 54 -37.5 84.5t-96.5 30.5q-123 0 -163 -135l-91 29
q30 91 94.5 137t157.5 46q63 0 116 -21t84.5 -62.5t31.5 -101.5q0 -74 -49 -115t-136 -53q74 -15 112 -56z" />
    <glyph glyph-name="four.osf" horiz-adv-x="627" 
d="M549 4h-89l-30 -171h-96l31 171h-368l12 68l414 461h131l-80 -454h88zM110 79h269l67 381z" />
    <glyph glyph-name="five.osf" horiz-adv-x="599" 
d="M241 452q-27 -125 -77 -241q70 81 170 81q85 0 137 -54.5t52 -147.5q0 -75 -34 -136t-95.5 -96t-140.5 -35q-67 0 -120.5 25.5t-85.5 69.5t-38 99l99 23q5 -62 46.5 -99t102.5 -37q49 0 86.5 25t58 66.5t20.5 89.5q0 62 -34.5 95.5t-90.5 33.5q-83 0 -152 -76l-89 26
q81 192 113 369h408l-15 -81h-321z" />
    <glyph glyph-name="six.osf" horiz-adv-x="609" 
d="M456 425q45 -24 71 -69.5t26 -106.5q0 -72 -32.5 -131t-92.5 -93.5t-139 -34.5q-117 0 -177.5 71t-60.5 199q0 111 38.5 215t111.5 169.5t170 65.5q40 0 84.5 -14t82.5 -49t53 -94l-102 -28q-6 54 -41.5 77.5t-79.5 23.5q-60 0 -105 -42.5t-71.5 -109t-36.5 -142.5
q74 117 198 117q58 0 103 -24zM380.5 94.5q36.5 23.5 54.5 62.5t18 84q0 66 -37 98t-93 32q-108 0 -173 -107v-7q0 -186 142 -186q52 0 88.5 23.5z" />
    <glyph glyph-name="seven.osf" horiz-adv-x="518" 
d="M563 533l-13 -77q-119 -112 -187 -196.5t-109.5 -184.5t-64.5 -242h-117q39 189 126 334.5t261 285.5h-415l14 80h505z" />
    <glyph glyph-name="eight.osf" horiz-adv-x="590" 
d="M536 201q0 -63 -33.5 -111t-92.5 -74t-132 -26q-67 0 -124.5 22t-93 66t-35.5 108q0 79 55.5 130t145.5 63q-62 20 -89.5 55t-27.5 85q0 56 30.5 99.5t84.5 67.5t121 24q61 0 113.5 -20.5t84.5 -61t32 -97.5q0 -69 -47.5 -112.5t-127.5 -55.5q136 -40 136 -162z
M243.5 597.5q-34.5 -33.5 -34.5 -81.5q0 -47 34 -75.5t92 -28.5q63 0 100.5 31.5t37.5 82.5q0 48 -35.5 76.5t-93.5 28.5q-66 0 -100.5 -33.5zM394 108.5q42 38.5 42 95.5q0 55 -41.5 86.5t-107.5 31.5q-73 0 -115.5 -36t-42.5 -95q0 -58 42.5 -89.5t107.5 -31.5
q73 0 115 38.5z" />
    <glyph glyph-name="nine.osf" horiz-adv-x="609" 
d="M497 472.5q60 -70.5 60 -198.5q0 -112 -38.5 -216t-111.5 -169.5t-170 -65.5q-40 0 -84 14t-82 49t-53 94l102 28q6 -54 41.5 -77.5t79.5 -23.5q60 0 105 42.5t71.5 109.5t36.5 143q-74 -118 -198 -118q-58 0 -103.5 24t-71 69.5t-25.5 107.5q0 72 32.5 130.5t92.5 93
t139 34.5q117 0 177 -70.5zM383.5 190.5q43.5 28.5 75.5 80.5v5q0 186 -143 186q-51 0 -87.5 -23.5t-54.5 -62.5t-18 -84q0 -66 37 -98t93 -32q54 0 97.5 28.5z" />
    <glyph glyph-name="zero.osf.zero" horiz-adv-x="613" 
d="M456.5 513.5q55.5 -29.5 86 -83.5t30.5 -124q0 -86 -36.5 -158.5t-102 -115t-148.5 -42.5q-73 0 -129 30t-86 84t-30 124q0 87 36 159t101.5 114t149.5 42q73 0 128.5 -29.5zM226 429.5q-42 -32.5 -64.5 -86t-22.5 -112.5q0 -34 9 -61l130 124l141 138q-38 30 -95 30
q-56 0 -98 -32.5zM387 106.5q42 32.5 64.5 85t22.5 112.5q0 47 -18 83l-120 -115l-157 -155q40 -43 110 -43q56 0 98 32.5z" />
    <glyph glyph-name="zero.tf" 
d="M112 59q-57 69 -57 195q1 117 35.5 221.5t101.5 169.5t161 65q108 0 164.5 -69t56.5 -194q0 -117 -34 -221.5t-101.5 -170t-161.5 -65.5q-108 0 -165 69zM392 133.5q44 57.5 65 145t21 179.5q0 167 -131 167q-65 0 -109 -57.5t-65 -145.5t-21 -179q0 -83 32 -125t99 -42
q65 0 109 57.5z" />
    <glyph glyph-name="one.tf" 
d="M519 80l-14 -80h-485l15 80h194l94 534q-36 -43 -81.5 -72.5t-103.5 -56.5l-23 85q82 27 138 57.5t101 72.5h82l-110 -620h193z" />
    <glyph glyph-name="two.tf" 
d="M149 81l379 -1l-15 -80h-499l14 76l224 157q114 79 169.5 140t55.5 131q0 62 -39 94t-97 32q-64 0 -110.5 -40.5t-46.5 -133.5q0 -10 2 -36h-105q-3 155 71.5 222.5t187.5 67.5q66 0 120 -22.5t85.5 -67.5t31.5 -109q0 -69 -36 -126.5t-100 -109.5t-167 -116z" />
    <glyph glyph-name="three.tf" 
d="M509 301q38 -41 38 -103q0 -60 -33 -107t-92.5 -74t-135.5 -27q-112 0 -183 58t-80 157l99 21q4 -78 48 -118.5t119 -40.5q77 0 117.5 39t40.5 95q0 54 -38 87t-111 33h-54l12 75h61q78 0 123.5 31t45.5 91q0 54 -37.5 84.5t-96.5 30.5q-123 0 -163 -135l-91 29
q30 91 94.5 137t157.5 46q63 0 116 -21t84.5 -62.5t31.5 -101.5q0 -74 -49 -115t-136 -53q74 -15 112 -56z" />
    <glyph glyph-name="four.tf" 
d="M560 171h-89l-30 -171h-96l31 171h-368l12 68l414 461h131l-80 -454h88zM121 246h269l67 381z" />
    <glyph glyph-name="five.tf" 
d="M264 619q-27 -125 -77 -241q70 81 170 81q85 0 137 -54.5t52 -147.5q0 -75 -34 -136t-95.5 -96t-140.5 -35q-67 0 -120.5 25.5t-85.5 69.5t-38 99l99 23q5 -62 46.5 -99t102.5 -37q49 0 86.5 25t58 66.5t20.5 89.5q0 62 -34.5 95.5t-90.5 33.5q-83 0 -152 -76l-89 26
q81 192 113 369h408l-15 -81h-321z" />
    <glyph glyph-name="six.tf" 
d="M455.5 424.5q46.5 -24.5 73 -70t26.5 -106.5q0 -72 -33 -131t-94 -93t-142 -34q-120 0 -181.5 71.5t-61.5 200.5q0 111 39 214.5t113.5 168.5t173.5 65q41 0 86 -14t84 -49t54 -94l-102 -28q-7 54 -43.5 77.5t-82.5 23.5q-62 0 -108.5 -43t-74 -111t-37.5 -144
q77 121 205 121q59 0 105.5 -24.5zM381 94.5q37 23.5 55.5 62t18.5 84.5q0 66 -38 98t-97 32q-112 0 -179 -109v-3q0 -92 37.5 -140t112.5 -48q53 0 90 23.5z" />
    <glyph glyph-name="seven.tf" 
d="M651 700l-14 -77q-129 -111 -202.5 -196t-117.5 -184.5t-67 -242.5h-116q27 128 74.5 231.5t131.5 200t217 190.5h-469l14 78h549z" />
    <glyph glyph-name="eight.tf" 
d="M542 201q0 -63 -33.5 -111t-92.5 -74t-132 -26q-67 0 -124.5 22t-93 66t-35.5 108q0 79 55.5 130t145.5 63q-62 20 -89.5 55t-27.5 85q0 56 30.5 99.5t84.5 67.5t121 24q61 0 113.5 -20.5t84.5 -61t32 -97.5q0 -69 -47.5 -112.5t-127.5 -55.5q136 -40 136 -162z
M249.5 597.5q-34.5 -33.5 -34.5 -81.5q0 -47 34 -75.5t92 -28.5q63 0 100.5 31.5t37.5 82.5q0 48 -35.5 76.5t-93.5 28.5q-66 0 -100.5 -33.5zM400 108.5q42 38.5 42 95.5q0 55 -41.5 86.5t-107.5 31.5q-73 0 -115.5 -36t-42.5 -95q0 -58 42.5 -89.5t107.5 -31.5
q73 0 115 38.5z" />
    <glyph glyph-name="nine.tf" 
d="M525 638.5q62 -71.5 62 -200.5q0 -111 -39.5 -214.5t-113.5 -168.5t-173 -65q-41 0 -86.5 14t-84 49t-53.5 94l101 28q7 -54 43.5 -77.5t82.5 -23.5q62 0 108.5 43t74 110.5t37.5 143.5q-77 -120 -204 -120q-59 0 -106 24.5t-73.5 70t-26.5 106.5q0 72 33 131t94 93
t142 34q120 0 182 -71.5zM488 438v3q0 92 -37.5 140t-112.5 48q-79 0 -121 -49.5t-42 -120.5q0 -66 38 -98t97 -32q111 0 178 109z" />
    <glyph glyph-name="zero.tf.zero" 
d="M517.5 641q56.5 -69 56.5 -194q0 -117 -34 -221.5t-101.5 -170t-161.5 -65.5q-108 0 -165 69t-57 195q1 117 35.5 221.5t101.5 169.5t161 65q108 0 164.5 -69zM240.5 570q-43.5 -55 -65 -139.5t-23.5 -174.5l125 120l184 180q-30 69 -114 69q-63 0 -106.5 -55zM392 133.5
q44 57.5 65 145t21 179.5q0 21 -1 31l-142 -134l-177 -175q21 -104 125 -104q65 0 109 57.5z" />
    <glyph glyph-name="zero.tosf" 
d="M152 20q-56 30 -86 84t-30 124q0 87 36 159t101.5 114t149.5 42q73 0 128.5 -29.5t86 -83.5t30.5 -124q0 -86 -36.5 -158.5t-102 -115t-148.5 -42.5q-73 0 -129 30zM382 106.5q42 32.5 64.5 85t22.5 112.5q0 72 -40 115t-110 43q-56 0 -98 -32.5t-64.5 -86t-22.5 -112.5
q0 -71 40 -114t110 -43q56 0 98 32.5z" />
    <glyph glyph-name="one.tosf" 
d="M515 80l-13 -80h-485l14 80h186l65 366q-36 -42 -82 -71.5t-104 -56.5l-23 86q81 26 137 56.5t101 72.5h80l-79 -453h203z" />
    <glyph glyph-name="two.tosf" 
d="M188 77h336l-14 -77h-491l12 66l218 102q109 51 154 94t45 94q0 49 -31 77.5t-85 28.5q-61 0 -102.5 -39t-41.5 -115q0 -16 1 -24h-101q-1 84 31.5 142.5t90 87.5t129.5 29q96 0 154.5 -49t58.5 -131q0 -72 -60.5 -131.5t-196.5 -112.5z" />
    <glyph glyph-name="three.tosf" 
d="M509 134q38 -41 38 -103q0 -60 -33 -107t-92.5 -74t-135.5 -27q-112 0 -183 58t-80 157l99 21q4 -78 48 -118.5t119 -40.5q77 0 117.5 39t40.5 95q0 54 -38 87t-111 33h-54l12 75h61q78 0 123.5 31t45.5 91q0 54 -37.5 84.5t-96.5 30.5q-123 0 -163 -135l-91 29
q30 91 94.5 137t157.5 46q63 0 116 -21t84.5 -62.5t31.5 -101.5q0 -74 -49 -115t-136 -53q74 -15 112 -56z" />
    <glyph glyph-name="four.tosf" 
d="M560 4h-89l-30 -171h-96l31 171h-368l12 68l414 461h131l-80 -454h88zM121 79h269l67 381z" />
    <glyph glyph-name="five.tosf" 
d="M264 452q-27 -125 -77 -241q70 81 170 81q85 0 137 -54.5t52 -147.5q0 -75 -34 -136t-95.5 -96t-140.5 -35q-67 0 -120.5 25.5t-85.5 69.5t-38 99l99 23q5 -62 46.5 -99t102.5 -37q49 0 86.5 25t58 66.5t20.5 89.5q0 62 -34.5 95.5t-90.5 33.5q-83 0 -152 -76l-89 26
q81 192 113 369h408l-15 -81h-321z" />
    <glyph glyph-name="six.tosf" 
d="M455.5 424.5q46.5 -24.5 73 -70t26.5 -106.5q0 -72 -33 -131t-94 -93t-142 -34q-120 0 -181.5 71.5t-61.5 200.5q0 111 39 214.5t113.5 168.5t173.5 65q41 0 86 -14t84 -49t54 -94l-102 -28q-7 54 -43.5 77.5t-82.5 23.5q-62 0 -108.5 -43t-74 -111t-37.5 -144
q77 121 205 121q59 0 105.5 -24.5zM381 94.5q37 23.5 55.5 62t18.5 84.5q0 66 -38 98t-97 32q-112 0 -179 -109v-3q0 -92 37.5 -140t112.5 -48q53 0 90 23.5z" />
    <glyph glyph-name="seven.tosf" 
d="M651 533l-14 -77q-129 -111 -202.5 -196t-117.5 -184.5t-67 -242.5h-116q27 128 74.5 231.5t131.5 200t217 190.5h-469l14 78h549z" />
    <glyph glyph-name="eight.tosf" 
d="M542 201q0 -63 -33.5 -111t-92.5 -74t-132 -26q-67 0 -124.5 22t-93 66t-35.5 108q0 79 55.5 130t145.5 63q-62 20 -89.5 55t-27.5 85q0 56 30.5 99.5t84.5 67.5t121 24q61 0 113.5 -20.5t84.5 -61t32 -97.5q0 -69 -47.5 -112.5t-127.5 -55.5q136 -40 136 -162z
M249.5 597.5q-34.5 -33.5 -34.5 -81.5q0 -47 34 -75.5t92 -28.5q63 0 100.5 31.5t37.5 82.5q0 48 -35.5 76.5t-93.5 28.5q-66 0 -100.5 -33.5zM400 108.5q42 38.5 42 95.5q0 55 -41.5 86.5t-107.5 31.5q-73 0 -115.5 -36t-42.5 -95q0 -58 42.5 -89.5t107.5 -31.5
q73 0 115 38.5z" />
    <glyph glyph-name="nine.tosf" 
d="M495 471.5q62 -71.5 62 -199.5q0 -111 -39 -214.5t-113.5 -169t-173.5 -65.5q-41 0 -86 14t-84 49t-54 94l102 28q7 -54 43.5 -77.5t82.5 -23.5q62 0 108.5 43t74 111t37.5 144q-78 -121 -205 -121q-59 0 -105.5 24.5t-73 70t-26.5 106.5q0 72 33 131t94 93t142 34
q119 0 181 -71.5zM459 272v2q0 92 -37.5 140t-112.5 48q-79 0 -121.5 -49t-42.5 -120q0 -66 38 -98.5t97 -32.5q111 0 179 110z" />
    <glyph glyph-name="zero.tosf.zero" 
d="M449.5 513.5q55.5 -29.5 86 -83.5t30.5 -124q0 -86 -36.5 -158.5t-102 -115t-148.5 -42.5q-73 0 -129 30t-86 84t-30 124q0 87 36 159t101.5 114t149.5 42q73 0 128.5 -29.5zM219 429.5q-42 -32.5 -64.5 -86t-22.5 -112.5q0 -34 9 -61l130 124l141 138q-38 30 -95 30
q-56 0 -98 -32.5zM380 106.5q42 32.5 64.5 85t22.5 112.5q0 47 -18 83l-120 -115l-157 -155q40 -43 110 -43q56 0 98 32.5z" />
    <glyph glyph-name="zero.zero" horiz-adv-x="613" 
d="M530 640q59 -70 59 -198q0 -118 -34.5 -221t-103 -167t-166.5 -64q-113 0 -172.5 70t-59.5 196q1 118 35.5 222t103.5 168t166 64q113 0 172 -70zM238.5 569q-45.5 -56 -67 -142.5t-21.5 -179.5v-8l127 120l198 194q-33 72 -123 72q-68 0 -113.5 -56zM404.5 132
q45.5 56 66.5 142.5t21 179.5q0 19 -1 28l-157 -148l-173 -170q29 -88 129 -88q69 0 114.5 56z" />
    <glyph glyph-name="zero.dnom" horiz-adv-x="411" 
d="M340.5 408.5q42.5 -45.5 42.5 -128.5q0 -75 -23.5 -140.5t-69.5 -105.5t-111 -40q-79 0 -121.5 45.5t-42.5 128.5q0 75 23.5 140.5t70 105.5t110.5 40q79 0 121.5 -45.5zM127.5 315.5q-29.5 -65.5 -29.5 -148.5q0 -50 20.5 -75t63.5 -25q58 0 88 64t30 146q0 52 -20.5 78
t-63.5 26q-59 0 -88.5 -65.5z" />
    <glyph glyph-name="one.dnom" horiz-adv-x="285" 
d="M251 448l-79 -448h-78l67 380q-33 -48 -113 -82l-20 66q59 20 94.5 39.5t62.5 44.5h66z" />
    <glyph glyph-name="two.dnom" horiz-adv-x="380" 
d="M90 65h235l-12 -65h-331l9 55l148 103q53 37 79.5 58t44.5 47t18 56q0 34 -21.5 52.5t-55.5 18.5q-43 0 -70 -31t-23 -94h-80q1 96 50.5 142.5t128.5 46.5q71 0 112 -36t41 -95q0 -61 -49 -109t-158 -110z" />
    <glyph glyph-name="three.dnom" horiz-adv-x="408" 
d="M328 192q28 -27 28 -70q0 -57 -50.5 -92.5t-126.5 -35.5q-74 0 -123 35t-56 95l79 19q4 -44 32.5 -65t69.5 -21q42 0 67 21t25 53q0 29 -23 48.5t-66 19.5h-32l9 58h47q40 0 64.5 18t24.5 50q0 30 -21.5 47.5t-55.5 17.5q-35 0 -61 -19.5t-36 -53.5l-74 22q17 53 60 84
t111 31q71 0 115 -33t44 -87q0 -48 -35 -74.5t-94 -31.5q50 -9 78 -36z" />
    <glyph glyph-name="four.dnom" horiz-adv-x="409" 
d="M349 105h-56l-19 -105h-80l19 105h-233l9 52l259 291h105l-50 -281h58zM224 167l40 223l-194 -223h154z" />
    <glyph glyph-name="five.dnom" horiz-adv-x="392" 
d="M162 385q-14 -67 -50 -149q18 25 46 41t66 16q56 0 90.5 -35.5t34.5 -94.5q0 -47 -22.5 -85.5t-63.5 -60.5t-93 -22q-64 0 -109 32t-56 85l79 19q5 -33 29.5 -52.5t60.5 -19.5q46 0 70.5 29.5t24.5 69.5q0 36 -20 55t-55 19q-51 0 -89 -44l-73 22q54 120 77 238h275
l-11 -63h-211z" />
    <glyph glyph-name="six.dnom" horiz-adv-x="405" 
d="M318.5 254q37.5 -37 37.5 -97q0 -45 -20.5 -82t-60.5 -59t-95 -22q-80 0 -121.5 47.5t-41.5 132.5q0 69 25.5 133.5t73.5 105.5t113 41q50 0 92.5 -25t56.5 -73l-75 -21q-7 29 -27.5 44t-47.5 15q-53 0 -85.5 -47t-42.5 -115q50 59 122 59q59 0 96.5 -37zM252.5 84.5
q25.5 30.5 25.5 71.5q0 37 -21.5 58t-57.5 21q-55 0 -104 -54v-5q0 -65 24 -93.5t63 -28.5q45 0 70.5 30.5z" />
    <glyph glyph-name="seven.dnom" horiz-adv-x="344" 
d="M378 448l-12 -64q-76 -67 -119.5 -121t-67.5 -115t-36 -148h-93q20 114 76.5 209.5t173.5 175.5h-268l11 63h335z" />
    <glyph glyph-name="eight.dnom" horiz-adv-x="393" 
d="M343 126q0 -58 -46 -95t-125 -37q-75 0 -123.5 33.5t-48.5 91.5q0 51 37 83t97 40q-80 25 -80 92q0 52 42.5 86t113.5 34q69 0 113.5 -31.5t44.5 -84.5q0 -42 -30.5 -70.5t-86.5 -36.5q92 -27 92 -105zM152.5 378q-22.5 -19 -22.5 -49q0 -28 22 -45t56 -17
q37 0 58.5 18.5t21.5 47.5t-22 46.5t-55 17.5q-36 0 -58.5 -19zM240.5 73.5q24.5 21.5 24.5 54.5t-25 52.5t-64 19.5q-42 0 -68 -21.5t-26 -54.5q0 -32 24.5 -52t65.5 -20q44 0 68.5 21.5z" />
    <glyph glyph-name="nine.dnom" horiz-adv-x="405" 
d="M340.5 407.5q41.5 -47.5 41.5 -131.5q0 -69 -25 -134t-73.5 -106t-113.5 -41q-49 0 -91.5 25t-57.5 74l76 20q6 -29 26.5 -43.5t47.5 -14.5q52 0 84.5 46.5t43.5 113.5q-50 -58 -122 -58q-59 0 -96.5 37.5t-37.5 97.5q0 45 20.5 82t60.5 58.5t95 21.5q80 0 121.5 -47.5z
M304 268v5q0 65 -24 93.5t-62 28.5q-46 0 -71 -30t-25 -72q0 -36 21.5 -57.5t56.5 -21.5q55 0 104 54z" />
    <glyph glyph-name="zero.numr" horiz-adv-x="411" 
d="M385.5 664.5q42.5 -45.5 42.5 -128.5q0 -75 -23.5 -140.5t-69.5 -105.5t-111 -40q-79 0 -121.5 45.5t-42.5 128.5q0 75 23.5 140.5t70 105.5t110.5 40q79 0 121.5 -45.5zM172.5 571.5q-29.5 -65.5 -29.5 -148.5q0 -50 20.5 -75t63.5 -25q58 0 88 64t30 146q0 52 -20.5 78
t-63.5 26q-59 0 -88.5 -65.5z" />
    <glyph glyph-name="one.numr" horiz-adv-x="285" 
d="M295 700l-79 -448h-78l67 380q-33 -48 -113 -82l-20 66q59 20 94.5 39.5t62.5 44.5h66z" />
    <glyph glyph-name="two.numr" horiz-adv-x="380" 
d="M135 321h235l-12 -65h-331l9 55l148 103q53 37 79.5 58t44.5 47t18 56q0 34 -21.5 52.5t-55.5 18.5q-43 0 -70 -31t-23 -94h-80q1 96 50.5 142.5t128.5 46.5q71 0 112 -36t41 -95q0 -61 -49 -109t-158 -110z" />
    <glyph glyph-name="three.numr" horiz-adv-x="408" 
d="M373 448q28 -27 28 -70q0 -57 -50.5 -92.5t-126.5 -35.5q-74 0 -123 35t-56 95l79 19q4 -44 32.5 -65t69.5 -21q42 0 67 21t25 53q0 29 -23 48.5t-66 19.5h-32l9 58h47q40 0 64.5 18t24.5 50q0 30 -21.5 47.5t-55.5 17.5q-35 0 -61 -19.5t-36 -53.5l-74 22q17 53 60 84
t111 31q71 0 115 -33t44 -87q0 -48 -35 -74.5t-94 -31.5q50 -9 78 -36z" />
    <glyph glyph-name="four.numr" horiz-adv-x="409" 
d="M393 357h-56l-19 -105h-80l19 105h-233l9 52l259 291h105l-50 -281h58zM268 419l40 223l-194 -223h154z" />
    <glyph glyph-name="five.numr" horiz-adv-x="392" 
d="M206 637q-14 -67 -50 -149q18 25 46 41t66 16q56 0 90.5 -35.5t34.5 -94.5q0 -47 -22.5 -85.5t-63.5 -60.5t-93 -22q-64 0 -109 32t-56 85l79 19q5 -33 29.5 -52.5t60.5 -19.5q46 0 70.5 29.5t24.5 69.5q0 36 -20 55t-55 19q-51 0 -89 -44l-73 22q54 120 77 238h275
l-11 -63h-211z" />
    <glyph glyph-name="six.numr" horiz-adv-x="405" 
d="M363.5 510q37.5 -37 37.5 -97q0 -45 -20.5 -82t-60.5 -59t-95 -22q-80 0 -121.5 47.5t-41.5 132.5q0 69 25.5 133.5t73.5 105.5t113 41q50 0 92.5 -25t56.5 -73l-75 -21q-7 29 -27.5 44t-47.5 15q-53 0 -85.5 -47t-42.5 -115q50 59 122 59q59 0 96.5 -37zM297.5 340.5
q25.5 30.5 25.5 71.5q0 37 -21.5 58t-57.5 21q-55 0 -104 -54v-5q0 -65 24 -93.5t63 -28.5q45 0 70.5 30.5z" />
    <glyph glyph-name="seven.numr" horiz-adv-x="344" 
d="M422 700l-12 -64q-76 -67 -119.5 -121t-67.5 -115t-36 -148h-93q20 114 76.5 209.5t173.5 175.5h-268l11 63h335z" />
    <glyph glyph-name="eight.numr" horiz-adv-x="393" 
d="M388 382q0 -58 -46 -95t-125 -37q-75 0 -123.5 33.5t-48.5 91.5q0 51 37 83t97 40q-80 25 -80 92q0 52 42.5 86t113.5 34q69 0 113.5 -31.5t44.5 -84.5q0 -42 -30.5 -70.5t-86.5 -36.5q92 -27 92 -105zM197.5 634q-22.5 -19 -22.5 -49q0 -28 22 -45t56 -17
q37 0 58.5 18.5t21.5 47.5t-22 46.5t-55 17.5q-36 0 -58.5 -19zM285.5 329.5q24.5 21.5 24.5 54.5t-25 52.5t-64 19.5q-42 0 -68 -21.5t-26 -54.5q0 -32 24.5 -52t65.5 -20q44 0 68.5 21.5z" />
    <glyph glyph-name="nine.numr" horiz-adv-x="405" 
d="M385.5 662.5q41.5 -47.5 41.5 -131.5q0 -69 -25 -134t-73.5 -106t-113.5 -41q-49 0 -91.5 25t-57.5 74l76 20q6 -29 26.5 -43.5t47.5 -14.5q52 0 84.5 46.5t43.5 113.5q-50 -58 -122 -58q-59 0 -96.5 37.5t-37.5 97.5q0 45 20.5 82t60.5 58.5t95 21.5q80 0 121.5 -47.5z
M349 523v5q0 65 -24 93.5t-62 28.5q-46 0 -71 -30t-25 -72q0 -36 21.5 -57.5t56.5 -21.5q55 0 104 54z" />
    <glyph glyph-name="exclamdown.case" horiz-adv-x="339" 
d="M282 688q17 -17 17 -45q0 -29 -17 -45.5t-46 -16.5t-46.5 16.5t-17.5 45.5q0 28 17.5 45t46.5 17t46 -17zM183 0h-119l94 446h84z" />
    <glyph glyph-name="questiondown.case" horiz-adv-x="563" 
d="M400.5 688q17.5 -17 17.5 -45q0 -29 -17.5 -45.5t-46.5 -16.5t-46.5 16.5t-17.5 45.5q0 28 17.5 45t46.5 17t46.5 -17zM365 435q-6 -39 -34 -65.5t-81 -60.5q-38 -25 -60.5 -43t-38 -42.5t-15.5 -55.5q0 -43 31 -70t82 -27q64 0 100.5 40t36.5 102q0 16 -3 34h97
q1 -10 1 -29q0 -107 -63.5 -167t-170.5 -60q-93 0 -152 46t-59 123q0 47 19 80.5t45.5 54.5t69.5 47q46 28 69 48t28 49l2 8h98z" />
    <glyph glyph-name="periodcentered.case" horiz-adv-x="276" 
d="M107.5 317q-17.5 17 -17.5 46t17.5 46t46.5 17t47 -17t18 -46t-18 -46t-47 -17t-46.5 17z" />
    <glyph glyph-name="bullet.case" horiz-adv-x="420" 
d="M365 226h-275v275h275v-275z" />
    <glyph glyph-name="parenleft.case" horiz-adv-x="381" 
d="M115.5 54.5q-29.5 94.5 -29.5 199.5q0 155 69 293t191 243h97q-127 -113 -200 -251t-73 -290q0 -97 31.5 -190.5t84.5 -163.5h-85q-56 65 -85.5 159.5z" />
    <glyph glyph-name="parenright.case" horiz-adv-x="382" 
d="M292.5 630.5q29.5 -94.5 29.5 -199.5q0 -155 -69 -293t-191 -243h-97q127 113 200 251t73 290q0 97 -31.5 190.5t-84.5 163.5h85q56 -65 85.5 -159.5z" />
    <glyph glyph-name="braceleft.case" horiz-adv-x="367" 
d="M429 790l-13 -70h-24q-34 0 -58.5 -20t-30.5 -59l-20 -111q-17 -93 -50 -135t-100 -53q49 -8 70.5 -34t21.5 -78q0 -28 -8 -76l-20 -110q-2 -14 -2 -19q0 -30 17 -45t47 -15h25l-13 -70h-35q-61 0 -96.5 28.5t-35.5 84.5q0 10 4 38l21 122q5 30 5 47q0 49 -24.5 66.5
t-65.5 17.5h-8l15 87h9q49 0 83 27t48 103l22 123q13 75 61.5 113t119.5 38h35z" />
    <glyph glyph-name="braceright.case" horiz-adv-x="367" 
d="M358 386l-15 -87h-9q-49 0 -83 -27t-48 -103l-22 -123q-13 -75 -61.5 -113t-119.5 -38h-35l13 70h24q34 0 58.5 20t30.5 59l20 111q17 93 50 135t100 53q-49 8 -70.5 34t-21.5 78q0 28 8 76l20 110q2 14 2 19q0 30 -17 45t-47 15h-25l13 70h35q61 0 96.5 -28.5
t35.5 -84.5q0 -10 -4 -38l-21 -122q-5 -30 -5 -47q0 -49 24.5 -66.5t65.5 -17.5h8z" />
    <glyph glyph-name="bracketleft.case" horiz-adv-x="338" 
d="M254 720l-133 -755h128l-12 -70h-217l158 895h217l-13 -70h-128z" />
    <glyph glyph-name="bracketright.case" horiz-adv-x="336" 
d="M109 -35l133 755h-128l12 70h217l-158 -895h-217l13 70h128z" />
    <glyph glyph-name="hyphen.case" horiz-adv-x="407" 
d="M63 334l13 74h281l-13 -74h-281z" />
    <glyph glyph-name="endash.case" horiz-adv-x="613" 
d="M73 408h516l-13 -75h-515z" />
    <glyph glyph-name="emdash.case" horiz-adv-x="1095" 
d="M73 408h998l-13 -74l-998 -1z" />
    <glyph glyph-name="guillemotleft.case" horiz-adv-x="504" 
d="M229 552h90q-41 -93 -174 -188q98 -94 107 -188h-90q-6 88 -92 177l4 22q116 87 155 177zM406 552h90q-41 -93 -174 -188q98 -94 107 -188h-90q-6 88 -92 177l4 22q116 87 155 177z" />
    <glyph glyph-name="guillemotright.case" horiz-adv-x="503" 
d="M132 176h-90q42 95 174 188q-98 93 -107 188h90q6 -87 92 -176l-4 -23q-115 -87 -155 -177zM309 176h-90q42 95 174 188q-99 93 -107 188h89q8 -89 93 -176l-4 -23q-115 -86 -155 -177z" />
    <glyph glyph-name="guilsinglleft.case" horiz-adv-x="327" 
d="M229 552h90q-41 -93 -174 -188q98 -94 107 -188h-90q-6 88 -92 177l4 22q116 87 155 177z" />
    <glyph glyph-name="guilsinglright.case" horiz-adv-x="327" 
d="M132 176h-90q42 95 174 188q-98 93 -107 188h90q6 -87 92 -176l-4 -23q-115 -87 -155 -177z" />
    <glyph glyph-name="at.case" horiz-adv-x="784" 
d="M558 281q-3 -13 -3 -26q0 -42 39 -42q36 0 62.5 33t40.5 83t14 97q0 75 -35 130t-95.5 84.5t-135.5 29.5q-102 0 -176.5 -52.5t-113.5 -137t-39 -179.5q0 -136 78.5 -202.5t209.5 -66.5q58 0 99 15t88 51l19 -59q-47 -30 -98.5 -45.5t-114.5 -15.5q-100 0 -176 37.5
t-118.5 110.5t-42.5 177q0 111 48.5 207.5t137 154.5t203.5 58q90 0 161 -36t111.5 -104t40.5 -160q0 -70 -23.5 -132t-68 -100t-103.5 -38q-43 0 -67 20t-27 59q-26 -38 -58 -58t-74 -20q-61 0 -94 42.5t-33 114.5q0 57 21 110.5t60 87t91 33.5q86 0 120 -98l16 89h80z
M475 267q0 6 1 9l23 131q-12 32 -36.5 51t-56.5 19q-53 0 -82 -49t-29 -110q0 -98 83 -98q58 0 97 47z" />
    <glyph glyph-name="bar.case" horiz-adv-x="313" 
d="M338 780l-152 -860h-87l152 860h87z" />
    <glyph glyph-name="brokenbar.case" horiz-adv-x="313" 
d="M338 780l-62 -351h-87l62 351h87zM248 271l-62 -351h-87l62 351h87z" />
    <glyph glyph-name="caroncomb.alt" horiz-adv-x="0" 
d="M-197 772h93l-75 -160h-47z" />
    <glyph glyph-name="uni0308.case" horiz-adv-x="0" 
d="M-419.5 807q-17.5 17 -17.5 45t17.5 45t46.5 17t46 -17t17 -45t-17 -45t-46 -17t-46.5 17zM-222 807q-17 17 -17 45t17 45t46 17t46.5 -17t17.5 -45t-17.5 -45t-46.5 -17t-46 17z" />
    <glyph glyph-name="uni0307.case" horiz-adv-x="0" 
d="M-313 807q-18 17 -18 46t18 46t47 17t46.5 -17t17.5 -46t-17.5 -46t-46.5 -17t-47 17z" />
    <glyph glyph-name="gravecomb.case" horiz-adv-x="0" 
d="M-302 772l-173 160h138l90 -160h-55z" />
    <glyph glyph-name="acutecomb.case" horiz-adv-x="0" 
d="M-226 932h138l-173 -160h-55z" />
    <glyph glyph-name="uni030B.case" horiz-adv-x="0" 
d="M-331 932h120l-146 -160h-53zM-159 932h120l-146 -160h-53z" />
    <glyph glyph-name="uni0302.case" horiz-adv-x="0" 
d="M-191 772l-76 104l-119 -104h-62l137 160h105l77 -160h-62z" />
    <glyph glyph-name="uni030C.case" horiz-adv-x="0" 
d="M-359 932l83 -103l128 103h54l-136 -160h-105l-78 160h54z" />
    <glyph glyph-name="uni0306.case" horiz-adv-x="0" 
d="M-369 815q-32 29 -32 80q0 9 2 27h71q-2 -14 -2 -19q0 -28 16 -44t42 -16q33 0 57.5 21.5t31.5 57.5h70q-13 -64 -59 -100t-110 -36q-55 0 -87 29z" />
    <glyph glyph-name="uni030A.case" horiz-adv-x="0" 
d="M-343 796q-30 28 -30 69t30 68.5t72 27.5q41 0 71 -27.5t30 -68.5t-30 -69t-71 -28q-42 0 -72 28zM-237.5 830.5q13.5 13.5 13.5 34.5t-13.5 34t-33.5 13q-21 0 -34.5 -13t-13.5 -34t13.5 -34.5t34.5 -13.5q20 0 33.5 13.5z" />
    <glyph glyph-name="tildecomb.case" horiz-adv-x="0" 
d="M-257.5 815.5q-12.5 6.5 -27.5 19.5q-12 9 -19 13.5t-18 4.5q-32 0 -41 -39h-71q11 53 42 78.5t71 25.5q20 0 33 -6.5t27 -18.5q11 -10 18.5 -14.5t18.5 -4.5q33 0 41 39h70q-9 -53 -38.5 -78.5t-72.5 -25.5q-21 0 -33.5 6.5z" />
    <glyph glyph-name="uni0304.case" horiz-adv-x="0" 
d="M-123 897l-12 -69h-280l12 69h280z" />
    </font>
</defs>
</svg>
