<?xml version="1.0" standalone="no"?>
<!DOCTYPE svg PUBLIC "-//W3C//DTD SVG 1.1//EN" "http://www.w3.org/Graphics/SVG/1.1/DTD/svg11.dtd" >
<svg xmlns="http://www.w3.org/2000/svg" xmlns:xlink="http://www.w3.org/1999/xlink" version="1.1">
<metadata>
Created by FontForge 20170731 at Thu Nov 22 16:57:41 2018
 By Aleksey,,,
Copyright (c) 2018 by Rene Bieder. All rights reserved.
</metadata>
<defs>
<font id="BayWaSans-Book" horiz-adv-x="600" >
  <font-face 
    font-family="BayWa Sans Book"
    font-weight="400"
    font-stretch="normal"
    units-per-em="1000"
    panose-1="2 1 0 3 4 0 0 0 0 0"
    ascent="766"
    descent="-234"
    x-height="530"
    cap-height="700"
    bbox="-632 -260 1297 951"
    underline-thickness="50"
    underline-position="-150"
    unicode-range="U+0020-FB02"
  />
<missing-glyph horiz-adv-x="660" 
d="M580 700v-700h-500v700h500zM150 660l181 -274l180 274h-361zM122 630v-560l185 280zM355 350l184 -280v560zM511 40l-180 274l-181 -274h361z" />
    <glyph glyph-name="fi" unicode="fi" horiz-adv-x="541" 
d="M461 0h-76v469h-208v-469h-76v469h-81v61h81q0 98 57.5 149t151.5 51q67 0 110 -24l-22 -61q-38 24 -95 24q-126 0 -126 -139h284v-530z" />
    <glyph glyph-name="f_f_i" unicode="ffi" horiz-adv-x="825" 
d="M745 0h-76v469h-208v-469h-76v469h-208v-469h-76v469h-81v61h81v10q0 96 46.5 143t140.5 47q42 0 78 -14l-22 -61q-27 14 -63 14q-53 0 -78.5 -32t-25.5 -97v-10h208q0 98 57.5 149t151.5 51q67 0 110 -24l-22 -61q-38 24 -95 24q-126 0 -126 -139h284v-530z" />
    <glyph glyph-name="f_f_j" unicode="ffj" horiz-adv-x="827" 
d="M747 20q0 -97 -39.5 -143.5t-107.5 -46.5q-13 0 -35 2l-12 70q15 -5 34 -5q44 0 64 23.5t20 86.5v462h-209v-469h-76v469h-209v-469h-76v469h-81v61h81v10q0 96 46.5 143t140.5 47q42 0 78 -14l-22 -61q-27 14 -63 14q-53 0 -78.5 -32t-25.5 -97v-10h209q0 98 57.5 149
t151.5 51q67 0 110 -24l-22 -61q-38 24 -95 24q-126 0 -126 -139h285v-510z" />
    <glyph glyph-name="f_j" unicode="fj" horiz-adv-x="542" 
d="M462 20q0 -97 -39.5 -143.5t-107.5 -46.5q-13 0 -35 2l-12 70q15 -5 34 -5q44 0 64 23.5t20 86.5v462h-209v-469h-76v469h-81v61h81q0 98 57.5 149t151.5 51q67 0 110 -24l-22 -61q-38 24 -95 24q-126 0 -126 -139h285v-510z" />
    <glyph glyph-name=".notdef" horiz-adv-x="660" 
d="M580 700v-700h-500v700h500zM150 660l181 -274l180 274h-361zM122 630v-560l185 280zM355 350l184 -280v560zM511 40l-180 274l-181 -274h361z" />
    <glyph glyph-name=".null" horiz-adv-x="0" 
 />
    <glyph glyph-name="nonmarkingreturn" horiz-adv-x="333" 
 />
    <glyph glyph-name="space" unicode=" " horiz-adv-x="240" 
 />
    <glyph glyph-name="exclam" unicode="!" horiz-adv-x="319" 
d="M110 700h99l-13 -448h-71zM119 10q-15 15 -15 40t15 40t40 15t40 -15t15 -40t-15 -40t-40 -15t-40 15z" />
    <glyph glyph-name="quotedbl" unicode="&#x22;" horiz-adv-x="365" 
d="M145 700l-10 -234h-65l-10 234h85zM305 700l-10 -234h-65l-10 234h85z" />
    <glyph glyph-name="numbersign" unicode="#" horiz-adv-x="777" 
d="M563 437l-39 -180h115v-65h-129l-41 -192h-77l41 192h-163l-41 -192h-77l41 192h-103v65h117l39 180h-108v65h122l42 198h77l-42 -198h163l42 198h77l-42 -198h110v-65h-124zM486 437h-163l-39 -180h163z" />
    <glyph glyph-name="dollar" unicode="$" 
d="M485.5 78.5q-56.5 -49.5 -157.5 -53.5l2 -115h-72l2 118q-80 11 -136.5 56.5t-75.5 131.5l70 18q29 -119 142 -143v235q-57 13 -97 31t-65.5 52t-25.5 88q0 75 49.5 122.5t138.5 55.5l-2 125h72l-2 -126q153 -13 191 -163l-74 -14q-13 52 -42.5 79.5t-75.5 34.5v-228
q69 -15 112 -31.5t73 -50.5t30 -93q0 -80 -56.5 -129.5zM174.5 436q29.5 -23 85.5 -38v214q-56 -7 -85.5 -37t-29.5 -73t29.5 -66zM433 122q37 33 37 79q0 47 -36.5 70.5t-106.5 39.5v-225q69 3 106 36z" />
    <glyph glyph-name="percent" unicode="%" horiz-adv-x="947" 
d="M379 658q49 -52 49 -138t-49 -138.5t-130 -52.5q-82 0 -130.5 52.5t-48.5 138.5t48.5 138t130.5 52q81 0 130 -52zM441 358l208 342h72l-236 -365l-202 -335h-73zM330.5 419q29.5 36 29.5 101t-29.5 101t-81.5 36t-82 -36t-30 -101t30 -101t82 -36t81.5 36zM828 319
q49 -52 49 -138t-49 -138.5t-130 -52.5q-82 0 -130.5 52.5t-48.5 138.5t48.5 138t130.5 52q81 0 130 -52zM779.5 80q29.5 36 29.5 101t-29.5 101t-81.5 36t-82 -36t-30 -101t30 -101t82 -36t81.5 36z" />
    <glyph glyph-name="ampersand" unicode="&#x26;" horiz-adv-x="665" 
d="M544 -6l-61 66q-86 -70 -200 -70q-70 0 -123 23.5t-82.5 66.5t-29.5 99q0 67 41.5 111.5t109.5 80.5q-43 48 -65.5 91t-22.5 85q0 48 23 85t64 57.5t92 20.5t92 -20.5t65 -57.5t24 -85q0 -58 -41 -104t-131 -90l193 -200q56 84 56 217h71q-9 -157 -87 -259l113 -117h-101
zM216.5 619q-27.5 -25 -27.5 -69q0 -39 18 -76t50 -75q66 32 101 67t35 84q0 44 -27 69t-75 25q-47 0 -74.5 -25zM444 103l-203 222q-115 -59 -115 -145q0 -58 44 -93.5t117 -35.5q92 0 157 52z" />
    <glyph glyph-name="quotesingle" unicode="'" horiz-adv-x="205" 
d="M145 700l-10 -234h-65l-10 234h85z" />
    <glyph glyph-name="parenleft" unicode="(" horiz-adv-x="381" 
d="M137 89q-49 116 -49 244t48.5 244t132.5 203h71q-80 -93 -127.5 -208t-47.5 -239t48 -239.5t128 -208.5h-71q-84 88 -133 204z" />
    <glyph glyph-name="parenright" unicode=")" horiz-adv-x="381" 
d="M40 -115q80 93 128 208.5t48 239.5t-47.5 239t-127.5 208h71q84 -87 132.5 -203t48.5 -244t-49 -244t-133 -204h-71z" />
    <glyph glyph-name="asterisk" unicode="*" horiz-adv-x="424" 
d="M246 563l96 -104l-59 -41l-71 129l-71 -129l-59 41l97 104l-129 15l17 71l127 -53l-18 136h72l-18 -135l126 52l18 -71z" />
    <glyph glyph-name="plus" unicode="+" 
d="M271 304h-218v59h218v219h61v-219h216v-59h-216v-216h-61v216z" />
    <glyph glyph-name="comma" unicode="," horiz-adv-x="275" 
d="M176.5 87q15.5 -17 15.5 -49q0 -43 -27 -86t-70 -71l-26 26q28 25 42.5 44.5t19.5 45.5q-23 2 -37.5 16.5t-14.5 36.5q0 24 13.5 39t40.5 15q28 0 43.5 -17z" />
    <glyph glyph-name="hyphen" unicode="-" horiz-adv-x="394" 
d="M60 270v61h274v-61h-274z" />
    <glyph glyph-name="period" unicode="." horiz-adv-x="275" 
d="M97 10q-15 15 -15 40t15 40t40 15t40 -15t15 -40t-15 -40t-40 -15t-40 15z" />
    <glyph glyph-name="slash" unicode="/" horiz-adv-x="651" 
d="M304 371l233 329h84l-259 -351l-248 -349h-84z" />
    <glyph glyph-name="zero" unicode="0" 
d="M487 616q66 -94 66 -267q0 -172 -66 -265t-187 -93t-187 93t-66 265q0 173 66 267t187 94t187 -94zM166 569.5q-42 -72.5 -42 -220.5q0 -147 42 -218.5t134 -71.5t134 71.5t42 218.5q0 148 -42 220.5t-134 72.5t-134 -72.5z" />
    <glyph glyph-name="one" unicode="1" horiz-adv-x="428" 
d="M312 700v-700h-75v630q-26 -33 -56.5 -57t-51 -36.5t-68.5 -38.5l-31 73q70 23 122 53.5t92 75.5h68z" />
    <glyph glyph-name="two" unicode="2" horiz-adv-x="570" 
d="M536 65v-65h-490v57l201 162q110 89 149 153.5t39 118.5q0 76 -38.5 115t-114.5 39q-32 0 -66 -14t-59 -50t-25 -98q0 -31 7 -65h-85q-4 28 -4 60q0 84 34.5 135.5t87 74t111.5 22.5q109 0 171.5 -56t62.5 -154q0 -75 -55 -154t-198 -188l-122 -93h394z" />
    <glyph glyph-name="three" unicode="3" horiz-adv-x="620" 
d="M566 192q0 -60 -31 -105.5t-87.5 -70.5t-132.5 -25q-111 0 -180 55.5t-87 162.5l82 17q14 -88 61 -131.5t127 -43.5t124.5 37t44.5 101q0 65 -46.5 102.5t-134.5 37.5h-63l-1 63h64q75 0 117.5 33t42.5 95q0 60 -40.5 95t-112.5 35q-74 0 -115.5 -41t-49.5 -119l-77 15
q15 105 77.5 155t164.5 50q108 0 169.5 -51.5t61.5 -135.5q0 -130 -155 -159q177 -30 177 -172z" />
    <glyph glyph-name="four" unicode="4" 
d="M559 174h-89v-174h-76l1 174h-377v60l343 466h109v-464h89v-62zM97 236h298v409z" />
    <glyph glyph-name="five" unicode="5" 
d="M450 432q48 -29 74.5 -81.5t26.5 -121.5q0 -71 -30 -125t-85 -83.5t-127 -29.5q-102 0 -168.5 54.5t-79.5 141.5l73 17q9 -66 56 -109t120 -43q74 0 119 48t45 126q0 85 -39.5 128t-112.5 43q-53 0 -96 -28.5t-67 -66.5l-69 14q43 201 44 384l1 -1v1h387v-66h-321
q-3 -135 -41 -280q30 51 72 79t107 28q63 0 111 -29z" />
    <glyph glyph-name="six" unicode="6" 
d="M440 422.5q51 -28.5 79.5 -80.5t28.5 -120q0 -69 -30.5 -121.5t-85.5 -81.5t-127 -29q-133 0 -197.5 93.5t-64.5 251.5q0 175 68 275t196 100q75 0 138 -37t87 -127l-75 -20q-19 118 -149 118q-96 0 -143 -76t-47 -231q32 52 84.5 83t119.5 31t118 -28.5zM428 96.5
q42 42.5 42 126.5q0 82 -42 123t-121 41q-61 0 -107.5 -31.5t-78.5 -87.5q22 -214 187 -214q78 0 120 42.5z" />
    <glyph glyph-name="seven" unicode="7" horiz-adv-x="510" 
d="M505 640q-101 -122 -153.5 -205t-79.5 -185.5t-26 -249.5h-94q6 136 35 240t91 198.5t168 196.5h-441v65h500v-60z" />
    <glyph glyph-name="eight" unicode="8" horiz-adv-x="580" 
d="M500 308.5q37 -47.5 37 -114.5q0 -60 -30.5 -106t-86.5 -71.5t-129 -25.5t-129.5 25.5t-87.5 71.5t-31 106q0 67 39 114.5t121 66.5q-135 33 -135 155q0 82 61.5 131t161.5 49t161.5 -49t61.5 -131q0 -57 -31.5 -97.5t-97.5 -57.5q78 -19 115 -66.5zM185.5 441.5
q39.5 -34.5 105.5 -34.5t105 34.5t39 87.5q0 56 -38 87t-106 31t-106.5 -31t-38.5 -87q0 -53 39.5 -87.5zM414.5 92.5q44.5 38.5 44.5 105.5q0 61 -45.5 98.5t-122.5 37.5t-122.5 -37.5t-45.5 -98.5q0 -67 44.5 -105.5t123.5 -38.5t123.5 38.5z" />
    <glyph glyph-name="nine" unicode="9" 
d="M492.5 619.5q64.5 -93.5 64.5 -251.5q0 -175 -68 -275t-196 -100q-75 0 -138 37t-87 127l75 20q19 -118 149 -118q96 0 143 76t47 231q-32 -52 -84.5 -83t-119.5 -31t-118 28.5t-79.5 80.5t-28.5 120q0 69 30.5 121.5t85.5 81.5t127 29q133 0 197.5 -93.5zM400.5 347.5
q46.5 31.5 78.5 87.5q-22 214 -187 214q-78 0 -120 -42.5t-42 -126.5q0 -82 42 -123t121 -41q61 0 107.5 31.5z" />
    <glyph glyph-name="colon" unicode=":" horiz-adv-x="275" 
d="M97 10q-15 15 -15 40t15 40t40 15t40 -15t15 -40t-15 -40t-40 -15t-40 15zM97 440q-15 15 -15 40t15 40t40 15t40 -15t15 -40t-15 -40t-40 -15t-40 15z" />
    <glyph glyph-name="semicolon" unicode=";" horiz-adv-x="275" 
d="M97 440q-15 15 -15 40t15 40t40 15t40 -15t15 -40t-15 -40t-40 -15t-40 15zM176.5 87q15.5 -17 15.5 -49q0 -43 -27 -86t-70 -71l-26 26q28 25 42.5 44.5t19.5 45.5q-23 2 -37.5 16.5t-14.5 36.5q0 24 13.5 39t40.5 15q28 0 43.5 -17z" />
    <glyph glyph-name="less" unicode="&#x3c;" horiz-adv-x="590" 
d="M463 464l-308 -133l308 -133v-68l-376 174v53l376 174v-67z" />
    <glyph glyph-name="equal" unicode="=" 
d="M53 463h495v-59h-495v59zM53 263h495v-59h-495v59z" />
    <glyph glyph-name="greater" unicode="&#x3e;" horiz-adv-x="590" 
d="M503 357v-53l-376 -174v68l308 133l-308 133v67z" />
    <glyph glyph-name="question" unicode="?" horiz-adv-x="570" 
d="M410.5 688q48.5 -22 76 -62t27.5 -94q0 -43 -16 -73.5t-38 -49t-59 -42.5q-40 -24 -59 -43t-19 -49v-23h-80v14q0 37 13.5 62t33 41t51.5 35q31 19 48.5 33t30 36.5t12.5 54.5q0 53 -37 85t-96 32q-66 0 -102 -36t-36 -92q0 -32 12 -65h-82q-10 37 -10 65q0 54 26 98
t75.5 69.5t117.5 25.5q62 0 110.5 -22zM242 10q-15 15 -15 40t15 40t40 15t40 -15t15 -40t-15 -40t-40 -15t-40 15z" />
    <glyph glyph-name="at" unicode="@" horiz-adv-x="774" 
d="M540 465v-263q0 -38 11.5 -51t34.5 -13q21 0 41.5 21.5t33.5 63.5t13 98q0 83 -33.5 146t-96.5 97.5t-147 34.5q-90 0 -155.5 -39.5t-100.5 -113.5t-35 -174q0 -150 78 -229.5t223 -79.5q70 0 114.5 20.5t89.5 67.5l28 -58q-99 -83 -237 -83q-105 0 -184.5 44.5
t-123.5 127t-44 194.5q0 111 43 196t121.5 132t181.5 47q97 0 171.5 -42.5t115.5 -118t41 -173.5q0 -73 -22.5 -125.5t-59.5 -79.5t-81 -27q-35 0 -58 19t-30 51q-22 -32 -52 -50.5t-66 -18.5q-71 0 -111 53t-40 141q0 87 40 140.5t111 53.5q35 0 64 -18.5t51 -49.5v59h70z
M427.5 160q25.5 14 42.5 40v159q-16 26 -41.5 40t-56.5 14q-47 0 -72 -35t-25 -98q0 -64 25 -99t72 -35q30 0 55.5 14z" />
    <glyph glyph-name="A" unicode="A" horiz-adv-x="673" 
d="M528 143h-383l-55 -143h-80l271 700h112l270 -700h-80zM505 203l-168 436l-169 -436h337z" />
    <glyph glyph-name="B" unicode="B" horiz-adv-x="679" 
d="M594.5 302q39.5 -43 39.5 -110q0 -91 -60 -141.5t-167 -50.5h-317v700h303q97 0 149.5 -47t52.5 -133q0 -55 -32 -99t-110 -63q102 -13 141.5 -56zM168 635v-249h207q66 0 103 35t37 95q0 57 -32 88t-90 31h-225zM515.5 99q38.5 34 38.5 95q0 131 -165 131h-221v-260h239
q70 0 108.5 34z" />
    <glyph glyph-name="C" unicode="C" horiz-adv-x="717" 
d="M526 110q61 48 86 131l75 -21q-32 -109 -112 -169.5t-200 -60.5q-99 0 -176.5 45.5t-120.5 127t-43 186.5t43 187t120.5 128t176.5 46q120 0 200 -60.5t112 -169.5l-75 -21q-25 83 -86 131t-151 48q-75 0 -134 -36.5t-91.5 -102.5t-32.5 -150t33 -149t91.5 -101.5
t133.5 -36.5q90 0 151 48z" />
    <glyph glyph-name="D" unicode="D" horiz-adv-x="720" 
d="M592 610.5q93 -89.5 93 -260.5t-93 -260.5t-283 -89.5h-219v700h219q190 0 283 -89.5zM532 139q73 74 73 211t-73 211t-223 74h-139v-570h139q150 0 223 74z" />
    <glyph glyph-name="E" unicode="E" horiz-adv-x="649" 
d="M170 635v-233h385v-65h-385v-272h414v-65h-494v700h494v-65h-414z" />
    <glyph glyph-name="F" unicode="F" horiz-adv-x="605" 
d="M170 635v-243h355v-65h-355v-327h-80v700h480v-65h-400z" />
    <glyph glyph-name="G" unicode="G" horiz-adv-x="744" 
d="M406 337h271v-337h-61l-8 121q-37 -66 -100 -98.5t-146 -32.5q-95 0 -169.5 45.5t-116 127.5t-41.5 187q0 107 42.5 188.5t121 126.5t182.5 45q107 0 183.5 -49.5t113.5 -139.5l-74 -29q-29 69 -86.5 107.5t-136.5 38.5t-139 -36t-92.5 -101t-32.5 -150q0 -86 32 -152
t90.5 -102.5t135.5 -36.5q64 0 116.5 26.5t82 75t28.5 110.5h-196v65z" />
    <glyph glyph-name="H" unicode="H" horiz-adv-x="724" 
d="M634 700v-700h-80v344h-384v-344h-80v700h80v-291h384v291h80z" />
    <glyph glyph-name="I" unicode="I" horiz-adv-x="280" 
d="M100 700h80v-700h-80v700z" />
    <glyph glyph-name="J" unicode="J" horiz-adv-x="379" 
d="M299 700v-472q0 -126 -51.5 -182t-158.5 -56q-41 0 -69 7v83q28 -17 72 -17q62 0 94.5 38.5t32.5 124.5v474h80z" />
    <glyph glyph-name="K" unicode="K" horiz-adv-x="680" 
d="M396 407l265 -407h-102l-219 346l-170 -185v-161h-80v700h80v-457l388 457h107z" />
    <glyph glyph-name="L" unicode="L" horiz-adv-x="592" 
d="M567 67v-67h-477v700h80v-633h397z" />
    <glyph glyph-name="M" unicode="M" horiz-adv-x="911" 
d="M821 700v-700h-80v624l-236 -624h-100l-235 616v-616h-80v700h133l235 -609l233 609h130z" />
    <glyph glyph-name="N" unicode="N" horiz-adv-x="748" 
d="M658 700v-700h-109l-380 615v-615h-79v700h109l380 -609v609h79z" />
    <glyph glyph-name="O" unicode="O" horiz-adv-x="750" 
d="M552 665q77 -45 120 -127t43 -189q0 -106 -43 -187.5t-120 -126.5t-177 -45t-177 45t-120 126.5t-43 187.5q0 107 43 189t120 127t177 45t177 -45zM509 98q59 36 91.5 101t32.5 150t-32.5 151t-91.5 102t-134 36t-134 -36t-91.5 -102t-32.5 -151t32.5 -150t91.5 -101
t134 -36t134 36z" />
    <glyph glyph-name="P" unicode="P" horiz-adv-x="649" 
d="M554.5 645q64.5 -55 64.5 -153q0 -62 -33.5 -110t-90 -74t-122.5 -26h-203v-282h-80v700h283q117 0 181.5 -55zM496.5 386.5q42.5 39.5 42.5 105.5q0 64 -42.5 103.5t-118.5 39.5h-208v-288h208q76 0 118.5 39.5z" />
    <glyph glyph-name="Q" unicode="Q" horiz-adv-x="750" 
d="M678.5 174q-36.5 -77 -101.5 -123l131 -115l-63 -64l-132 144q-63 -26 -138 -26q-100 0 -177 45t-120 126.5t-43 187.5q0 107 43 189t120 127t177 45t177 -45t120 -127t43 -189q0 -98 -36.5 -175zM149.5 199q32.5 -65 91.5 -101t134 -36t134 36t91.5 101t32.5 150
t-32.5 151t-91.5 102t-134 36t-134 -36t-91.5 -102t-32.5 -151t32.5 -150z" />
    <glyph glyph-name="R" unicode="R" horiz-adv-x="703" 
d="M555 0l-158 283q-8 -1 -24 -1h-203v-282h-80v700h283q117 0 181.5 -55t64.5 -153q0 -71 -43.5 -123t-114.5 -74l197 -295h-103zM378 347q76 0 118.5 39.5t42.5 105.5q0 64 -42.5 103.5t-118.5 39.5h-208v-288h208z" />
    <glyph glyph-name="S" unicode="S" horiz-adv-x="631" 
d="M148.5 41.5q-78.5 50.5 -103.5 160.5l78 20q20 -85 78.5 -124t138.5 -39q82 0 126.5 36.5t44.5 90.5q0 40 -25.5 64.5t-62.5 36.5t-103 27q-81 18 -130 35.5t-83.5 56.5t-34.5 106q0 91 64.5 144.5t179.5 53.5q204 0 249 -182l-81 -16q-18 68 -60 98.5t-113 30.5
q-77 0 -118 -35t-41 -88q0 -42 25.5 -66.5t64 -37t104.5 -26.5q79 -17 127.5 -34.5t83 -56t34.5 -104.5q0 -93 -68 -147.5t-190 -54.5q-106 0 -184.5 50.5z" />
    <glyph glyph-name="T" unicode="T" horiz-adv-x="604" 
d="M574 635h-232v-635h-80v635h-232v65h544v-65z" />
    <glyph glyph-name="U" unicode="U" horiz-adv-x="720" 
d="M640 700v-427q0 -139 -76.5 -211t-203.5 -72t-203.5 72t-76.5 211v427h80v-427q0 -109 55.5 -160t144.5 -51t144.5 51t55.5 160v427h80z" />
    <glyph glyph-name="V" unicode="V" horiz-adv-x="640" 
d="M635 700l-268 -700h-94l-268 700h91l227 -623l221 623h91z" />
    <glyph glyph-name="W" unicode="W" horiz-adv-x="952" 
d="M942 700l-165 -700h-122l-179 588l-179 -588h-122l-165 700h86l144 -642l178 642h116l178 -642l144 642h86z" />
    <glyph glyph-name="X" unicode="X" horiz-adv-x="609" 
d="M495 0l-195 307l-192 -307h-98l245 350l-239 350h99l194 -307l189 307h95l-239 -350l245 -350h-104z" />
    <glyph glyph-name="Y" unicode="Y" horiz-adv-x="626" 
d="M616 700l-262 -406v-294h-83v293l-261 407h93l213 -356l213 356h87z" />
    <glyph glyph-name="Z" unicode="Z" horiz-adv-x="637" 
d="M597 65v-65h-552v58l444 577h-438v65h535v-59l-438 -576h449z" />
    <glyph glyph-name="bracketleft" unicode="[" horiz-adv-x="332" 
d="M165 723v-781h127v-57h-202v895h202v-57h-127z" />
    <glyph glyph-name="backslash" unicode="\" horiz-adv-x="651" 
d="M537 0l-248 349l-259 351h84l233 -329l274 -371h-84z" />
    <glyph glyph-name="bracketright" unicode="]" horiz-adv-x="332" 
d="M242 -115h-202v57h127v781h-127v57h202v-895z" />
    <glyph glyph-name="asciicircum" unicode="^" horiz-adv-x="469" 
d="M350 406l-116 232l-117 -232h-77l164 294h61l164 -294h-79z" />
    <glyph glyph-name="underscore" unicode="_" horiz-adv-x="498" 
d="M498 -57v-57h-498v57h498z" />
    <glyph glyph-name="a" unicode="a" horiz-adv-x="523" 
d="M410 494q49 -46 49 -131v-243v-120h-73v79q-42 -45 -92 -67t-100 -22q-70 0 -112 35t-42 97q0 61 29.5 100.5t104.5 66.5t212 43v41q0 50 -30.5 77.5t-87.5 27.5q-54 0 -88.5 -24.5t-49.5 -83.5l-73 18q22 81 79 116.5t135 35.5q90 0 139 -46zM309 85.5q48 23.5 77 61.5
v120q-105 -13 -162.5 -30.5t-80.5 -41.5t-23 -58q0 -35 23 -55t66 -20q52 0 100 23.5z" />
    <glyph glyph-name="b" unicode="b" horiz-adv-x="578" 
d="M476 468.5q57 -71.5 57 -201.5q0 -129 -55.5 -203t-158.5 -74q-45 0 -88 20.5t-75 61.5v-72h-76v700h76v-241q32 40 75 60.5t88 20.5q100 0 157 -71.5zM413.5 113q41.5 57 41.5 152q0 94 -37.5 151.5t-111.5 57.5q-51 0 -88 -19.5t-62 -68.5v-247q25 -45 60.5 -64
t82.5 -19q73 0 114.5 57z" />
    <glyph glyph-name="c" unicode="c" horiz-adv-x="539" 
d="M383.5 88.5q38.5 32.5 52.5 90.5l73 -18q-21 -79 -79 -125t-142 -46q-72 0 -127.5 35.5t-85.5 99t-30 144.5q0 77 30 139t85.5 97t127.5 35q84 0 142 -46t79 -125l-73 -18q-14 58 -52.5 90.5t-95.5 32.5q-76 0 -121.5 -55t-45.5 -150q0 -99 45.5 -156t121.5 -57
q57 0 95.5 32.5z" />
    <glyph glyph-name="d" unicode="d" horiz-adv-x="578" 
d="M498 700v-700h-76v72q-32 -41 -75 -61.5t-88 -20.5q-103 0 -158.5 74t-55.5 203q0 130 57 201.5t157 71.5q45 0 88 -20.5t75 -60.5v241h76zM361.5 75q35.5 19 60.5 64v247q-25 49 -62 68.5t-88 19.5q-74 0 -111.5 -57.5t-37.5 -151.5q0 -95 41.5 -152t114.5 -57
q47 0 82.5 19z" />
    <glyph glyph-name="e" unicode="e" horiz-adv-x="562" 
d="M384 82q36 29 49 89l80 -20q-25 -84 -79 -122.5t-146 -38.5q-78 0 -133 36.5t-82.5 101t-27.5 147.5q0 78 29 138t84 93.5t129 33.5q110 0 169.5 -74.5t60.5 -210.5h-396q5 -96 49.5 -149t123.5 -53q54 0 90 29zM173.5 436q-42.5 -43 -50.5 -122h313q-3 79 -41 122
t-107 43q-72 0 -114.5 -43z" />
    <glyph glyph-name="f" unicode="f" horiz-adv-x="314" 
d="M202.5 637q-25.5 -32 -25.5 -97v-10h135v-61h-135v-469h-76v469h-81v61h81v10q0 96 46.5 143t140.5 47q42 0 78 -14l-22 -61q-27 14 -63 14q-53 0 -78.5 -32z" />
    <glyph glyph-name="g" unicode="g" horiz-adv-x="581" 
d="M501 530v-479q0 -99 -56 -160t-173 -61q-90 0 -150.5 38t-76.5 112l71 22q10 -59 55 -86t104 -27q150 0 150 155v84q-32 -43 -76 -67.5t-94 -24.5q-95 0 -150 69t-55 183t55 183t150 69q50 0 94 -24.5t76 -67.5v82h76zM360 128q41 26 65 71v177q-23 45 -64.5 71.5
t-89.5 26.5q-68 0 -106.5 -50.5t-38.5 -135.5t38.5 -135.5t106.5 -50.5q48 0 89 26z" />
    <glyph glyph-name="h" unicode="h" horiz-adv-x="571" 
d="M453 489q48 -51 48 -138v-351h-76v350q0 59 -31.5 91.5t-89.5 32.5q-43 0 -82.5 -23t-65.5 -62v-389h-76v700h76v-248q31 42 74.5 65t96.5 23q78 0 126 -51z" />
    <glyph glyph-name="i" unicode="i" horiz-adv-x="236" 
d="M80 530h76v-530h-76v530zM78 649q-15 15 -15 40t15 40t40 15t40 -15t15 -40t-15 -40t-40 -15t-40 15z" />
    <glyph glyph-name="j" unicode="j" horiz-adv-x="236" 
d="M156 530v-510q0 -97 -39.5 -143.5t-107.5 -46.5q-13 0 -35 2l-12 70q15 -5 34 -5q44 0 64 23.5t20 86.5v523h76zM78 649q-15 15 -15 40t15 40t40 15t40 -15t15 -40t-15 -40t-40 -15t-40 15z" />
    <glyph glyph-name="k" unicode="k" horiz-adv-x="554" 
d="M244 260l-88 -80v-180h-76v700h76v-448l282 278h104l-247 -223l249 -307h-96z" />
    <glyph glyph-name="l" unicode="l" horiz-adv-x="275" 
d="M104 20.5q-24 29.5 -24 71.5v608h76v-589q0 -28 7.5 -41.5t34.5 -13.5q25 0 40 15l12 -67q-32 -13 -60 -13q-62 0 -86 29.5z" />
    <glyph glyph-name="m" unicode="m" horiz-adv-x="916" 
d="M798 489q48 -51 48 -138v-351h-76v350q0 59 -31.5 91.5t-89.5 32.5q-44 0 -84 -24t-66 -64q2 -22 2 -35v-351h-76v350q0 59 -31.5 91.5t-89.5 32.5q-43 0 -82.5 -23t-65.5 -62v-389h-76v530h76v-78q31 42 74.5 65t96.5 23q55 0 96.5 -26.5t61.5 -74.5q31 46 79 73.5
t108 27.5q78 0 126 -51z" />
    <glyph glyph-name="n" unicode="n" horiz-adv-x="571" 
d="M453 489q48 -51 48 -138v-351h-76v350q0 59 -31.5 91.5t-89.5 32.5q-43 0 -82.5 -23t-65.5 -62v-389h-76v530h76v-78q31 42 74.5 65t96.5 23q78 0 126 -51z" />
    <glyph glyph-name="o" unicode="o" horiz-adv-x="576" 
d="M415.5 505q55.5 -35 85.5 -97t30 -139q0 -81 -30 -144.5t-85.5 -99t-127.5 -35.5t-127.5 35.5t-85.5 99t-30 144.5q0 77 30 139t85.5 97t127.5 35t127.5 -35zM409.5 113q45.5 57 45.5 156q0 95 -45.5 150t-121.5 55t-121.5 -55t-45.5 -150q0 -99 45.5 -156t121.5 -57
t121.5 57z" />
    <glyph glyph-name="p" unicode="p" horiz-adv-x="578" 
d="M477.5 466q55.5 -74 55.5 -203q0 -130 -57 -201.5t-157 -71.5q-45 0 -88 20.5t-75 60.5v-231h-76v690h76v-72q32 41 75 61.5t88 20.5q103 0 158.5 -74zM417.5 113.5q37.5 57.5 37.5 151.5q0 95 -41.5 152t-114.5 57q-47 0 -82.5 -19t-60.5 -64v-247q25 -49 62 -68.5
t88 -19.5q74 0 111.5 57.5z" />
    <glyph glyph-name="q" unicode="q" horiz-adv-x="578" 
d="M498 530v-690h-76v231q-32 -40 -75 -60.5t-88 -20.5q-100 0 -157 71.5t-57 201.5q0 129 55.5 203t158.5 74q45 0 88 -20.5t75 -61.5v72h76zM360 75.5q37 19.5 62 68.5v247q-25 45 -60.5 64t-82.5 19q-73 0 -114.5 -57t-41.5 -152q0 -94 37.5 -151.5t111.5 -57.5
q51 0 88 19.5z" />
    <glyph glyph-name="r" unicode="r" horiz-adv-x="387" 
d="M232 504q50 32 135 32v-76q-20 3 -37 3q-63 0 -106.5 -32.5t-67.5 -91.5v-339h-76v530h76v-121q26 63 76 95z" />
    <glyph glyph-name="s" unicode="s" horiz-adv-x="509" 
d="M122.5 28.5q-63.5 38.5 -87.5 123.5l75 19q34 -120 159 -120q60 0 93 23t33 64q0 30 -19 47.5t-47.5 26t-76.5 16.5q-63 11 -103 25t-68 46.5t-28 90.5q0 67 53 108.5t139 41.5q77 0 129 -34t70 -106l-72 -17q-20 96 -129 96q-53 0 -86 -23.5t-33 -61.5q0 -31 19 -49.5
t47.5 -27t78.5 -17.5q63 -11 101.5 -24.5t66 -45t27.5 -87.5q0 -74 -55 -113.5t-147 -39.5q-76 0 -139.5 38.5z" />
    <glyph glyph-name="t" unicode="t" horiz-adv-x="344" 
d="M329 4q-33 -14 -74 -14q-76 0 -112 39t-36 121v319h-87v61h87v170h76v-170h134v-61h-134v-319q0 -53 15 -76t53 -23q32 0 59 14z" />
    <glyph glyph-name="u" unicode="u" horiz-adv-x="571" 
d="M491 530v-530h-76v78q-31 -42 -74.5 -65t-96.5 -23q-78 0 -126 51t-48 138v351h76v-350q0 -59 31.5 -91.5t89.5 -32.5q44 0 83 23t65 62v389h76z" />
    <glyph glyph-name="v" unicode="v" horiz-adv-x="498" 
d="M488 530l-200 -530h-78l-200 530h87l151 -460l153 460h87z" />
    <glyph glyph-name="w" unicode="w" horiz-adv-x="750" 
d="M735 530l-140 -530h-90l-128 429l-125 -429h-97l-140 530h79l110 -464l126 464h98l125 -462l104 462h78z" />
    <glyph glyph-name="x" unicode="x" horiz-adv-x="464" 
d="M183 264l-173 266h88l136 -225l132 225h88l-174 -264l174 -266h-88l-136 221l-132 -221h-87z" />
    <glyph glyph-name="y" unicode="y" horiz-adv-x="488" 
d="M478 530l-212 -572q-46 -125 -168 -125q-11 0 -31 2l-15 70q27 -6 47 -6q35 0 55.5 14.5t36.5 44.5l19 35l-200 537h88l148 -448l145 448h87z" />
    <glyph glyph-name="z" unicode="z" horiz-adv-x="498" 
d="M458 63v-63h-418v55l327 412h-317v63h400v-62l-320 -405h328z" />
    <glyph glyph-name="braceleft" unicode="{" horiz-adv-x="368" 
d="M207 386.5q-25 -41.5 -78 -53.5q53 -13 78 -54.5t25 -130.5v-123q0 -41 23 -62t55 -21h28v-57h-28q-69 0 -111 34.5t-42 105.5v123q0 90 -32.5 119t-87.5 29h-7v73h7q55 0 87.5 29t32.5 119v123q0 71 42 105.5t111 34.5h28v-57h-28q-32 0 -55 -21t-23 -62v-123
q0 -89 -25 -130.5z" />
    <glyph glyph-name="bar" unicode="|" horiz-adv-x="315" 
d="M195 780v-895h-75v895h75z" />
    <glyph glyph-name="braceright" unicode="}" horiz-adv-x="368" 
d="M338 369v-73h-7q-55 0 -87.5 -29t-32.5 -119v-123q0 -71 -42 -105.5t-111 -34.5h-28v57h28q32 0 55 21t23 62v123q0 89 25 130.5t78 54.5q-53 12 -78 53.5t-25 130.5v123q0 41 -23 62t-55 21h-28v57h28q69 0 111 -34.5t42 -105.5v-123q0 -90 32.5 -119t87.5 -29h7z" />
    <glyph glyph-name="asciitilde" unicode="~" 
d="M86 273q7 48 33.5 78.5t76.5 30.5q26 0 49.5 -7.5t60.5 -22.5q34 -13 50 -18.5t32 -5.5q32 0 49 15.5t20 37.5l57 -11q-6 -49 -32 -79.5t-76 -30.5q-26 0 -51 7.5t-61 22.5q-28 12 -46.5 18t-34.5 6q-31 0 -48 -15.5t-21 -37.5z" />
    <glyph glyph-name="exclamdown" unicode="&#xa1;" horiz-adv-x="319" 
d="M199 600q15 -15 15 -40t-15 -40t-40 -15t-40 15t-15 40t15 40t40 15t40 -15zM196 358l13 -448h-99l15 448h71z" />
    <glyph glyph-name="cent" unicode="&#xa2;" 
d="M415.5 142.5q30.5 31.5 43.5 81.5l73 -18q-20 -72 -69.5 -117t-121.5 -52l2 -117h-72l2 118q-62 9 -108.5 46.5t-71.5 97t-25 132.5q0 70 25 128t71 94.5t108 45.5l-1 118h72l-2 -117q73 -7 122.5 -52t68.5 -117l-73 -18q-13 50 -43.5 81.5t-75.5 39.5v-414
q45 8 75.5 39.5zM178.5 174q34.5 -55 94.5 -69v410q-60 -13 -94.5 -66t-34.5 -135q0 -85 34.5 -140z" />
    <glyph glyph-name="sterling" unicode="&#xa3;" 
d="M549 61v-61h-483v70q83 36 120 70t37 85q0 26 -10 51h-149v53h116l-15 19q-35 40 -53 74t-18 83q0 58 29 104.5t81.5 73.5t121.5 27q62 0 115 -23t87 -72l-57 -46q-45 72 -138 72q-48 0 -84.5 -18t-56.5 -48.5t-20 -68.5q0 -36 16.5 -66.5t48.5 -74.5q18 -24 26 -36h207
v-53h-177q9 -27 9 -48q0 -38 -22 -68.5t-48 -50t-71 -48.5h388z" />
    <glyph glyph-name="yen" unicode="&#xa5;" 
d="M376 349h142v-55h-177v-75h177v-55h-177v-164h-83v164h-176v55h176v74l-1 1h-175v55h140l-225 351h93l213 -356l213 356h87z" />
    <glyph glyph-name="brokenbar" unicode="&#xa6;" horiz-adv-x="315" 
d="M195 780v-341h-75v341h75zM195 226v-341h-75v341h75z" />
    <glyph glyph-name="section" unicode="&#xa7;" 
d="M468 120.5q20 -28.5 20 -68.5q0 -42 -23 -75.5t-63.5 -52t-90.5 -18.5q-74 0 -127 38t-68 99l62 13q13 -49 50 -72.5t84 -23.5q49 0 72.5 22.5t23.5 52.5q0 28 -19.5 48t-48 33t-77.5 30q-61 22 -98 40t-63 49t-26 77q0 45 29.5 78t84.5 54q-37 22 -57.5 51t-20.5 68
q0 43 24.5 76.5t66.5 52t92 18.5q72 0 123 -37.5t66 -99.5l-62 -13q-14 49 -46.5 72.5t-77.5 23.5q-50 0 -78 -23t-28 -56q0 -27 18.5 -45.5t46 -31t77.5 -29.5q62 -22 99.5 -40t64 -49.5t26.5 -77.5t-29.5 -79.5t-82.5 -53.5q36 -22 56 -50.5zM176 284q19 -19 47 -32
t76 -31q57 -21 73 -29q40 24 55.5 48t15.5 46q0 27 -19 46t-47 32t-78 32q-10 4 -31.5 12t-36.5 15q-74 -41 -74 -93q0 -27 19 -46z" />
    <glyph glyph-name="copyright" unicode="&#xa9;" horiz-adv-x="798" 
d="M214 40.5q-82 46.5 -128 128.5t-46 183t46.5 183t128.5 128.5t185 46.5q102 0 184 -46.5t128 -127.5t46 -182q0 -102 -46.5 -184t-128.5 -129t-185 -47q-102 0 -184 46.5zM555 82q70 41 110 113t40 159q0 86 -39.5 157t-109.5 111.5t-156 40.5q-87 0 -156.5 -41
t-109.5 -112t-40 -158t39.5 -158t109 -112t155.5 -41q87 0 157 41zM275.5 209.5q-49.5 53.5 -49.5 140.5q0 88 49.5 142t129.5 54q62 0 104.5 -32.5t58.5 -92.5l-46 -11q-12 44 -42.5 68t-74.5 24q-58 0 -94 -42t-36 -110q0 -67 36 -108.5t94 -41.5q44 0 74.5 24t42.5 68
l46 -11q-16 -60 -58.5 -92.5t-104.5 -32.5q-80 0 -129.5 53.5z" />
    <glyph glyph-name="ordfeminine" unicode="&#xaa;" horiz-adv-x="430" 
d="M334.5 674.5q41.5 -35.5 41.5 -99.5v-182v-96h-74v58q-62 -66 -149 -66q-56 0 -89 27t-33 75q0 47 23.5 77.5t82.5 51t165 32.5v23q0 37 -22.5 57t-65.5 20q-39 0 -66 -17t-39 -60l-66 20q18 61 64.5 88t109.5 27q76 0 117.5 -35.5zM244.5 367.5q33.5 15.5 57.5 41.5v87
q-78 -9 -120 -21.5t-58 -29.5t-16 -42q0 -24 18 -37.5t49 -13.5q36 0 69.5 15.5z" />
    <glyph glyph-name="guillemotleft" unicode="&#xab;" horiz-adv-x="470" 
d="M180 474h70q-26 -93 -140 -183q114 -90 140 -183h-70q-24 87 -128 173v20q104 86 128 173zM340 474h70q-26 -93 -140 -183q114 -90 140 -183h-70q-24 87 -128 173v20q104 86 128 173z" />
    <glyph glyph-name="registered" unicode="&#xae;" horiz-adv-x="526" 
d="M377 680q51 -30 80 -81.5t29 -112.5t-29.5 -112t-80.5 -80t-112 -29t-112.5 29t-81.5 79.5t-30 112.5q0 61 30 112.5t81.5 81.5t112.5 30q62 0 113 -30zM359.5 321q42.5 24 67 67.5t24.5 99.5q0 55 -24 98.5t-67 67.5t-97 24t-96.5 -24.5t-66 -68t-23.5 -98.5
q0 -56 24.5 -99t67 -67t95.5 -24t95.5 24zM348 439l18 -60h-37l-12 55q-5 19 -20.5 27.5t-41.5 9.5h-40v-92h-35v221h110q33 0 51 -17.5t18 -41.5q0 -20 -14.5 -35t-39.5 -23q31 -12 43 -44zM284 501q17 0 28 10t11 27q0 15 -9 23.5t-24 8.5h-75v-69h69z" />
    <glyph glyph-name="degree" unicode="&#xb0;" horiz-adv-x="430" 
d="M129.5 427q-37.5 21 -58.5 58t-21 83q0 45 21.5 81.5t59.5 57t85 20.5t84.5 -20.5t58.5 -57t21 -81.5q0 -46 -21.5 -83t-59 -58t-85.5 -21q-47 0 -84.5 21zM286 490q27 29 27 78q0 47 -27.5 75.5t-71.5 28.5q-43 0 -69.5 -28.5t-26.5 -75.5q0 -49 27 -78t71 -29
q43 0 70 29z" />
    <glyph glyph-name="plusminus" unicode="&#xb1;" 
d="M271 378h-178v59h178v149h61v-149h176v-59h-176v-146h-61v146zM93 167h415v-59h-415v59z" />
    <glyph glyph-name="uni00B2" unicode="&#xb2;" horiz-adv-x="376" 
d="M356 412v-56h-327v48l128 102q66 53 94 88t28 76q0 40 -24.5 62t-64.5 22q-41 0 -66 -23.5t-25 -68.5q0 -20 4 -39h-70q-3 20 -3 37q0 71 45 110.5t118 39.5q72 0 114 -37.5t42 -100.5q0 -52 -38 -101.5t-132 -111.5l-72 -47h249z" />
    <glyph glyph-name="uni00B3" unicode="&#xb3;" horiz-adv-x="406" 
d="M348 549q30 -28 30 -74q0 -57 -46 -91t-121 -34q-76 0 -124.5 36.5t-59.5 98.5l67 14q7 -47 37.5 -70t76.5 -23q45 0 71.5 20.5t26.5 55.5t-27.5 55.5t-79.5 20.5h-32l-1 52h37q42 0 67 19.5t25 53.5q0 32 -23.5 51.5t-61.5 19.5q-41 0 -67.5 -21.5t-32.5 -62.5l-67 13
q8 59 52 93t113 34q72 0 114 -32.5t42 -86.5q0 -42 -26.5 -70t-73.5 -36q54 -8 84 -36z" />
    <glyph glyph-name="paragraph" unicode="&#xb6;" 
d="M233 299q-62 0 -110.5 24.5t-75.5 69.5t-27 103q0 61 28 107.5t76.5 72t108.5 25.5h267v-701h-70v639h-94v-639h-70v299h-33z" />
    <glyph glyph-name="periodcentered" unicode="&#xb7;" horiz-adv-x="275" 
d="M97 270q-15 15 -15 40t15 40t40 15t40 -15t15 -40t-15 -40t-40 -15t-40 15z" />
    <glyph glyph-name="uni00B9" unicode="&#xb9;" horiz-adv-x="276" 
d="M206 800v-448h-70v387q-24 -47 -98 -79l-27 56q55 20 86 39.5t52 44.5h57z" />
    <glyph glyph-name="ordmasculine" unicode="&#xba;" horiz-adv-x="466" 
d="M377 652.5q54 -57.5 54 -152.5q0 -63 -24.5 -110.5t-69.5 -74t-104 -26.5q-90 0 -144 58t-54 153t54 152.5t144 57.5t144 -57.5zM323 388.5q33 39.5 33 111.5t-32.5 111.5t-90.5 39.5t-91 -39.5t-33 -111.5q0 -71 33 -111t91 -40q57 0 90 39.5z" />
    <glyph glyph-name="guillemotright" unicode="&#xbb;" horiz-adv-x="470" 
d="M258 281q-104 -86 -128 -173h-70q26 93 140 183q-114 90 -140 183h70q24 -87 128 -173v-20zM418 281q-104 -86 -128 -173h-70q26 93 140 183q-114 90 -140 183h70q24 -87 128 -173v-20z" />
    <glyph glyph-name="onequarter" unicode="&#xbc;" horiz-adv-x="844" 
d="M206 700v-448h-70v387q-24 -47 -98 -79l-27 56q55 20 86 39.5t52 44.5h57zM367 358l208 342h72l-236 -365l-202 -335h-73zM803 110h-62v-110h-69l1 110h-238v44l216 294h90v-285h62v-53zM673 163v236l-169 -236h169z" />
    <glyph glyph-name="onehalf" unicode="&#xbd;" horiz-adv-x="873" 
d="M206 700v-448h-70v387q-24 -47 -98 -79l-27 56q55 20 86 39.5t52 44.5h57zM367 358l208 342h72l-236 -365l-202 -335h-73zM853 56v-56h-327v48l128 102q66 53 94 88t28 76q0 40 -24.5 62t-64.5 22q-41 0 -66 -23.5t-25 -68.5q0 -20 4 -39h-70q-3 20 -3 37q0 71 45 110.5
t118 39.5q72 0 114 -37.5t42 -100.5q0 -52 -38 -101.5t-132 -111.5l-72 -47h249z" />
    <glyph glyph-name="threequarters" unicode="&#xbe;" horiz-adv-x="964" 
d="M348 449q30 -28 30 -74q0 -57 -46 -91t-121 -34q-76 0 -124.5 36.5t-59.5 98.5l67 14q7 -47 37.5 -70t76.5 -23q45 0 71.5 20.5t26.5 55.5t-27.5 55.5t-79.5 20.5h-32l-1 52h37q42 0 67 19.5t25 53.5q0 32 -23.5 51.5t-61.5 19.5q-41 0 -67.5 -21.5t-32.5 -62.5l-67 13
q8 59 52 93t113 34q72 0 114 -32.5t42 -86.5q0 -42 -26.5 -70t-73.5 -36q54 -8 84 -36zM487 358l208 342h72l-236 -365l-202 -335h-73zM923 110h-62v-110h-69l1 110h-238v44l216 294h90v-285h62v-53zM793 163v236l-169 -236h169z" />
    <glyph glyph-name="questiondown" unicode="&#xbf;" horiz-adv-x="570" 
d="M328 605q15 -15 15 -40t-15 -40t-40 -15t-40 15t-15 40t15 40t40 15t40 -15zM159.5 -73q-48.5 22 -76 62t-27.5 94q0 43 16 73.5t38 49t59 42.5q40 24 59 43t19 49v23h80v-14q0 -37 -13.5 -62t-33 -41t-51.5 -35q-31 -19 -48.5 -33t-30 -36.5t-12.5 -54.5q0 -53 37 -85
t96 -32q66 0 102 36t36 92q0 32 -12 65h82q10 -37 10 -65q0 -54 -26 -98t-75.5 -69.5t-117.5 -25.5q-62 0 -110.5 22z" />
    <glyph glyph-name="Agrave" unicode="&#xc0;" horiz-adv-x="673" 
d="M528 143h-383l-55 -143h-80l271 700h112l270 -700h-80zM505 203l-168 436l-169 -436h337zM339 772l-160 160h118l97 -160h-55z" />
    <glyph glyph-name="Aacute" unicode="&#xc1;" horiz-adv-x="673" 
d="M528 143h-383l-55 -143h-80l271 700h112l270 -700h-80zM505 203l-168 436l-169 -436h337zM405 932h118l-156 -160h-52z" />
    <glyph glyph-name="Acircumflex" unicode="&#xc2;" horiz-adv-x="673" 
d="M528 143h-383l-55 -143h-80l271 700h112l270 -700h-80zM505 203l-168 436l-169 -436h337zM435 772l-99 109l-100 -109h-52l105 160h93l105 -160h-52z" />
    <glyph glyph-name="Atilde" unicode="&#xc3;" horiz-adv-x="673" 
d="M528 143h-383l-55 -143h-80l271 700h112l270 -700h-80zM505 203l-168 436l-169 -436h337zM359 820q-13 6 -29 18q-11 9 -19.5 13t-18.5 4q-30 0 -32 -37h-65q1 49 26 72.5t63 23.5q19 0 32.5 -6t28.5 -17q10 -8 18.5 -12.5t18.5 -4.5q31 0 33 36h63q0 -48 -23.5 -72
t-63.5 -24q-19 0 -32 6z" />
    <glyph glyph-name="Adieresis" unicode="&#xc4;" horiz-adv-x="673" 
d="M528 143h-383l-55 -143h-80l271 700h112l270 -700h-80zM505 203l-168 436l-169 -436h337zM204 813q-15 15 -15 40t15 40t40 15t40 -15t15 -40t-15 -40t-40 -15t-40 15zM390 813q-15 15 -15 40t15 40t40 15t40 -15t15 -40t-15 -40t-40 -15t-40 15z" />
    <glyph glyph-name="Aring" unicode="&#xc5;" horiz-adv-x="673" 
d="M528 143h-383l-55 -143h-80l271 700h112l270 -700h-80zM505 203l-168 436l-169 -436h337zM270 797q-28 26 -28 64t28 64t67 26t67 -26t28 -64t-28 -64t-67 -26t-67 26zM368.5 829.5q12.5 12.5 12.5 31.5t-12.5 31.5t-31.5 12.5t-31.5 -12.5t-12.5 -31.5t12.5 -31.5
t31.5 -12.5t31.5 12.5z" />
    <glyph glyph-name="AE" unicode="&#xc6;" horiz-adv-x="1058" 
d="M579 635v-233h385v-65h-385v-272h414v-65h-494v143h-317l-92 -143h-80l449 700h534v-65h-414zM499 203v432l-278 -432h278z" />
    <glyph glyph-name="Ccedilla" unicode="&#xc7;" horiz-adv-x="717" 
d="M526 110q61 48 86 131l75 -21q-31 -103 -105 -163.5t-184 -65.5l-15 -56h5q40 0 67.5 -25.5t27.5 -63.5t-29.5 -64t-73.5 -26q-46 0 -77 27.5t-36 68.5l60 8q2 -24 15.5 -37t34.5 -13q18 0 30.5 10t12.5 26q0 19 -15 30t-44 11h-23l-15 31l25 73q-93 6 -164 53t-110 126
t-39 179q0 105 43 187t120.5 128t176.5 46q120 0 200 -60.5t112 -169.5l-75 -21q-25 83 -86 131t-151 48q-75 0 -134 -36.5t-91.5 -102.5t-32.5 -150t33 -149t91.5 -101.5t133.5 -36.5q90 0 151 48z" />
    <glyph glyph-name="Egrave" unicode="&#xc8;" horiz-adv-x="649" 
d="M170 635v-233h385v-65h-385v-272h414v-65h-494v700h494v-65h-414zM347 772l-160 160h118l97 -160h-55z" />
    <glyph glyph-name="Eacute" unicode="&#xc9;" horiz-adv-x="649" 
d="M170 635v-233h385v-65h-385v-272h414v-65h-494v700h494v-65h-414zM413 932h118l-156 -160h-52z" />
    <glyph glyph-name="Ecircumflex" unicode="&#xca;" horiz-adv-x="649" 
d="M170 635v-233h385v-65h-385v-272h414v-65h-494v700h494v-65h-414zM443 772l-99 109l-100 -109h-52l105 160h93l105 -160h-52z" />
    <glyph glyph-name="Edieresis" unicode="&#xcb;" horiz-adv-x="649" 
d="M170 635v-233h385v-65h-385v-272h414v-65h-494v700h494v-65h-414zM212 813q-15 15 -15 40t15 40t40 15t40 -15t15 -40t-15 -40t-40 -15t-40 15zM398 813q-15 15 -15 40t15 40t40 15t40 -15t15 -40t-15 -40t-40 -15t-40 15z" />
    <glyph glyph-name="Igrave" unicode="&#xcc;" horiz-adv-x="280" 
d="M100 700h80v-700h-80v700zM142 772l-160 160h118l97 -160h-55z" />
    <glyph glyph-name="Iacute" unicode="&#xcd;" horiz-adv-x="280" 
d="M100 700h80v-700h-80v700zM208 932h118l-156 -160h-52z" />
    <glyph glyph-name="Icircumflex" unicode="&#xce;" horiz-adv-x="280" 
d="M100 700h80v-700h-80v700zM238 772l-99 109l-100 -109h-52l105 160h93l105 -160h-52z" />
    <glyph glyph-name="Idieresis" unicode="&#xcf;" horiz-adv-x="280" 
d="M100 700h80v-700h-80v700zM7 813q-15 15 -15 40t15 40t40 15t40 -15t15 -40t-15 -40t-40 -15t-40 15zM193 813q-15 15 -15 40t15 40t40 15t40 -15t15 -40t-15 -40t-40 -15t-40 15z" />
    <glyph glyph-name="Eth" unicode="&#xd0;" horiz-adv-x="720" 
d="M592 610.5q93 -89.5 93 -260.5t-93 -260.5t-283 -89.5h-219v317h-58v65h58v318h219q190 0 283 -89.5zM532 139q73 74 73 211t-73 211t-223 74h-139v-253h197v-65h-197v-252h139q150 0 223 74z" />
    <glyph glyph-name="Ntilde" unicode="&#xd1;" horiz-adv-x="748" 
d="M658 700v-700h-109l-380 615v-615h-79v700h109l380 -609v609h79zM396 820q-13 6 -29 18q-11 9 -19.5 13t-18.5 4q-30 0 -32 -37h-65q1 49 26 72.5t63 23.5q19 0 32.5 -6t28.5 -17q10 -8 18.5 -12.5t18.5 -4.5q31 0 33 36h63q0 -48 -23.5 -72t-63.5 -24q-19 0 -32 6z" />
    <glyph glyph-name="Ograve" unicode="&#xd2;" horiz-adv-x="750" 
d="M552 665q77 -45 120 -127t43 -189q0 -106 -43 -187.5t-120 -126.5t-177 -45t-177 45t-120 126.5t-43 187.5q0 107 43 189t120 127t177 45t177 -45zM509 98q59 36 91.5 101t32.5 150t-32.5 151t-91.5 102t-134 36t-134 -36t-91.5 -102t-32.5 -151t32.5 -150t91.5 -101
t134 -36t134 36zM377 772l-160 160h118l97 -160h-55z" />
    <glyph glyph-name="Oacute" unicode="&#xd3;" horiz-adv-x="750" 
d="M552 665q77 -45 120 -127t43 -189q0 -106 -43 -187.5t-120 -126.5t-177 -45t-177 45t-120 126.5t-43 187.5q0 107 43 189t120 127t177 45t177 -45zM509 98q59 36 91.5 101t32.5 150t-32.5 151t-91.5 102t-134 36t-134 -36t-91.5 -102t-32.5 -151t32.5 -150t91.5 -101
t134 -36t134 36zM443 932h118l-156 -160h-52z" />
    <glyph glyph-name="Ocircumflex" unicode="&#xd4;" horiz-adv-x="750" 
d="M552 665q77 -45 120 -127t43 -189q0 -106 -43 -187.5t-120 -126.5t-177 -45t-177 45t-120 126.5t-43 187.5q0 107 43 189t120 127t177 45t177 -45zM509 98q59 36 91.5 101t32.5 150t-32.5 151t-91.5 102t-134 36t-134 -36t-91.5 -102t-32.5 -151t32.5 -150t91.5 -101
t134 -36t134 36zM473 772l-99 109l-100 -109h-52l105 160h93l105 -160h-52z" />
    <glyph glyph-name="Otilde" unicode="&#xd5;" horiz-adv-x="750" 
d="M552 665q77 -45 120 -127t43 -189q0 -106 -43 -187.5t-120 -126.5t-177 -45t-177 45t-120 126.5t-43 187.5q0 107 43 189t120 127t177 45t177 -45zM509 98q59 36 91.5 101t32.5 150t-32.5 151t-91.5 102t-134 36t-134 -36t-91.5 -102t-32.5 -151t32.5 -150t91.5 -101
t134 -36t134 36zM397 820q-13 6 -29 18q-11 9 -19.5 13t-18.5 4q-30 0 -32 -37h-65q1 49 26 72.5t63 23.5q19 0 32.5 -6t28.5 -17q10 -8 18.5 -12.5t18.5 -4.5q31 0 33 36h63q0 -48 -23.5 -72t-63.5 -24q-19 0 -32 6z" />
    <glyph glyph-name="Odieresis" unicode="&#xd6;" horiz-adv-x="750" 
d="M552 665q77 -45 120 -127t43 -189q0 -106 -43 -187.5t-120 -126.5t-177 -45t-177 45t-120 126.5t-43 187.5q0 107 43 189t120 127t177 45t177 -45zM509 98q59 36 91.5 101t32.5 150t-32.5 151t-91.5 102t-134 36t-134 -36t-91.5 -102t-32.5 -151t32.5 -150t91.5 -101
t134 -36t134 36zM242 813q-15 15 -15 40t15 40t40 15t40 -15t15 -40t-15 -40t-40 -15t-40 15zM428 813q-15 15 -15 40t15 40t40 15t40 -15t15 -40t-15 -40t-40 -15t-40 15z" />
    <glyph glyph-name="multiply" unicode="&#xd7;" 
d="M469 123l-169 169l-168 -169l-42 42l168 169l-168 168l42 42l168 -168l168 168l42 -42l-168 -168l169 -169z" />
    <glyph glyph-name="Oslash" unicode="&#xd8;" horiz-adv-x="750" 
d="M693 490q22 -64 22 -141q0 -106 -43 -187.5t-120 -126.5t-177 -45q-123 0 -210 67l-73 -88l-49 42l77 89q-41 47 -63 110.5t-22 138.5q0 107 43 189t120 127t177 45q122 0 209 -67l78 92l48 -41l-81 -93q42 -47 64 -111zM173 161l172 199l189 224q-65 54 -159 54
q-75 0 -134 -36t-91.5 -102t-32.5 -151q0 -112 56 -188zM509 98q59 36 91.5 101t32.5 150q0 113 -57 191l-176 -202l-185 -222q66 -54 160 -54q75 0 134 36z" />
    <glyph glyph-name="Ugrave" unicode="&#xd9;" horiz-adv-x="720" 
d="M640 700v-427q0 -139 -76.5 -211t-203.5 -72t-203.5 72t-76.5 211v427h80v-427q0 -109 55.5 -160t144.5 -51t144.5 51t55.5 160v427h80zM362 772l-160 160h118l97 -160h-55z" />
    <glyph glyph-name="Uacute" unicode="&#xda;" horiz-adv-x="720" 
d="M640 700v-427q0 -139 -76.5 -211t-203.5 -72t-203.5 72t-76.5 211v427h80v-427q0 -109 55.5 -160t144.5 -51t144.5 51t55.5 160v427h80zM428 932h118l-156 -160h-52z" />
    <glyph glyph-name="Ucircumflex" unicode="&#xdb;" horiz-adv-x="720" 
d="M640 700v-427q0 -139 -76.5 -211t-203.5 -72t-203.5 72t-76.5 211v427h80v-427q0 -109 55.5 -160t144.5 -51t144.5 51t55.5 160v427h80zM458 772l-99 109l-100 -109h-52l105 160h93l105 -160h-52z" />
    <glyph glyph-name="Udieresis" unicode="&#xdc;" horiz-adv-x="720" 
d="M640 700v-427q0 -139 -76.5 -211t-203.5 -72t-203.5 72t-76.5 211v427h80v-427q0 -109 55.5 -160t144.5 -51t144.5 51t55.5 160v427h80zM227 813q-15 15 -15 40t15 40t40 15t40 -15t15 -40t-15 -40t-40 -15t-40 15zM413 813q-15 15 -15 40t15 40t40 15t40 -15t15 -40
t-15 -40t-40 -15t-40 15z" />
    <glyph glyph-name="Yacute" unicode="&#xdd;" horiz-adv-x="626" 
d="M616 700l-262 -406v-294h-83v293l-261 407h93l213 -356l213 356h87zM381 932h118l-156 -160h-52z" />
    <glyph glyph-name="Thorn" unicode="&#xde;" horiz-adv-x="649" 
d="M554.5 518q64.5 -55 64.5 -153q0 -62 -33.5 -110t-90 -74t-122.5 -26h-203v-155h-80v700h80v-127h203q117 0 181.5 -55zM496.5 259.5q42.5 39.5 42.5 105.5q0 64 -42.5 103.5t-118.5 39.5h-208v-288h208q76 0 118.5 39.5z" />
    <glyph glyph-name="germandbls" unicode="&#xdf;" horiz-adv-x="582" 
d="M499 311q53 -49 53 -123q0 -56 -27.5 -101t-78 -70.5t-118.5 -25.5q-49 0 -97 12v72q53 -24 108 -24q65 0 100 38t35 94q0 68 -53.5 107t-148.5 51v62q75 17 112.5 49t37.5 83t-34.5 81.5t-96.5 30.5q-67 0 -101 -39t-34 -120v-488h-76v500q0 99 56 154.5t158 55.5
q96 0 151 -48t55 -125q0 -59 -38.5 -98.5t-124.5 -61.5q109 -17 162 -66z" />
    <glyph glyph-name="agrave" unicode="&#xe0;" horiz-adv-x="529" 
d="M410 494q49 -46 49 -131v-243v-120h-73v79q-42 -45 -92 -67t-100 -22q-70 0 -112 35t-42 97q0 61 29.5 100.5t104.5 66.5t212 43v41q0 50 -30.5 77.5t-87.5 27.5q-54 0 -88.5 -24.5t-49.5 -83.5l-73 18q22 81 79 116.5t135 35.5q90 0 139 -46zM309 85.5q48 23.5 77 61.5
v120q-105 -13 -162.5 -30.5t-80.5 -41.5t-23 -58q0 -35 23 -55t66 -20q52 0 100 23.5zM252 612l-160 160h118l97 -160h-55z" />
    <glyph glyph-name="aacute" unicode="&#xe1;" horiz-adv-x="529" 
d="M410 494q49 -46 49 -131v-243v-120h-73v79q-42 -45 -92 -67t-100 -22q-70 0 -112 35t-42 97q0 61 29.5 100.5t104.5 66.5t212 43v41q0 50 -30.5 77.5t-87.5 27.5q-54 0 -88.5 -24.5t-49.5 -83.5l-73 18q22 81 79 116.5t135 35.5q90 0 139 -46zM309 85.5q48 23.5 77 61.5
v120q-105 -13 -162.5 -30.5t-80.5 -41.5t-23 -58q0 -35 23 -55t66 -20q52 0 100 23.5zM329 772h118l-156 -160h-52z" />
    <glyph glyph-name="acircumflex" unicode="&#xe2;" horiz-adv-x="529" 
d="M410 494q49 -46 49 -131v-243v-120h-73v79q-42 -45 -92 -67t-100 -22q-70 0 -112 35t-42 97q0 61 29.5 100.5t104.5 66.5t212 43v41q0 50 -30.5 77.5t-87.5 27.5q-54 0 -88.5 -24.5t-49.5 -83.5l-73 18q22 81 79 116.5t135 35.5q90 0 139 -46zM309 85.5q48 23.5 77 61.5
v120q-105 -13 -162.5 -30.5t-80.5 -41.5t-23 -58q0 -35 23 -55t66 -20q52 0 100 23.5zM369 612l-99 109l-100 -109h-52l105 160h93l105 -160h-52z" />
    <glyph glyph-name="atilde" unicode="&#xe3;" horiz-adv-x="529" 
d="M410 494q49 -46 49 -131v-243v-120h-73v79q-42 -45 -92 -67t-100 -22q-70 0 -112 35t-42 97q0 61 29.5 100.5t104.5 66.5t212 43v41q0 50 -30.5 77.5t-87.5 27.5q-54 0 -88.5 -24.5t-49.5 -83.5l-73 18q22 81 79 116.5t135 35.5q90 0 139 -46zM309 85.5q48 23.5 77 61.5
v120q-105 -13 -162.5 -30.5t-80.5 -41.5t-23 -58q0 -35 23 -55t66 -20q52 0 100 23.5zM293 650q-13 6 -29 18q-11 9 -19.5 13t-18.5 4q-30 0 -32 -37h-65q1 49 26 72.5t63 23.5q19 0 32.5 -6t28.5 -17q10 -8 18.5 -12.5t18.5 -4.5q31 0 33 36h63q0 -48 -23.5 -72t-63.5 -24
q-19 0 -32 6z" />
    <glyph glyph-name="adieresis" unicode="&#xe4;" horiz-adv-x="523" 
d="M410 494q49 -46 49 -131v-243v-120h-73v79q-42 -45 -92 -67t-100 -22q-70 0 -112 35t-42 97q0 61 29.5 100.5t104.5 66.5t212 43v41q0 50 -30.5 77.5t-87.5 27.5q-54 0 -88.5 -24.5t-49.5 -83.5l-73 18q22 81 79 116.5t135 35.5q90 0 139 -46zM309 85.5q48 23.5 77 61.5
v120q-105 -13 -162.5 -30.5t-80.5 -41.5t-23 -58q0 -35 23 -55t66 -20q52 0 100 23.5zM137 649q-15 15 -15 40t15 40t40 15t40 -15t15 -40t-15 -40t-40 -15t-40 15zM323 649q-15 15 -15 40t15 40t40 15t40 -15t15 -40t-15 -40t-40 -15t-40 15z" />
    <glyph glyph-name="aring" unicode="&#xe5;" horiz-adv-x="529" 
d="M410 494q49 -46 49 -131v-243v-120h-73v79q-42 -45 -92 -67t-100 -22q-70 0 -112 35t-42 97q0 61 29.5 100.5t104.5 66.5t212 43v41q0 50 -30.5 77.5t-87.5 27.5q-54 0 -88.5 -24.5t-49.5 -83.5l-73 18q22 81 79 116.5t135 35.5q90 0 139 -46zM309 85.5q48 23.5 77 61.5
v120q-105 -13 -162.5 -30.5t-80.5 -41.5t-23 -58q0 -35 23 -55t66 -20q52 0 100 23.5zM203 627q-28 26 -28 64t28 64t67 26t67 -26t28 -64t-28 -64t-67 -26t-67 26zM301.5 659.5q12.5 12.5 12.5 31.5t-12.5 31.5t-31.5 12.5t-31.5 -12.5t-12.5 -31.5t12.5 -31.5t31.5 -12.5
t31.5 12.5z" />
    <glyph glyph-name="ae" unicode="&#xe6;" horiz-adv-x="892" 
d="M714 82q36 29 49 89l80 -20q-25 -84 -79 -122.5t-146 -38.5q-77 0 -131 35.5t-83 98.5q-48 -69 -103.5 -101.5t-121.5 -32.5q-60 0 -99.5 36.5t-39.5 94.5q0 102 97.5 140.5t237.5 37.5l-4 74q-3 54 -28 79.5t-78 25.5q-51 0 -85 -23t-50 -85l-73 18q42 152 211 152
q121 0 156 -93q31 44 80.5 68.5t112.5 24.5q110 0 169.5 -74.5t60.5 -210.5h-396q5 -96 49.5 -149t123.5 -53q54 0 90 29zM503.5 436q-42.5 -43 -50.5 -122h313q-3 79 -41 122t-107 43q-72 0 -114.5 -43zM311 90.5q52 32.5 77 81.5q-9 35 -12 73q-258 -2 -258 -120
q0 -33 19.5 -50t58.5 -17q63 0 115 32.5z" />
    <glyph glyph-name="ccedilla" unicode="&#xe7;" horiz-adv-x="539" 
d="M383.5 88.5q38.5 32.5 52.5 90.5l73 -18q-21 -78 -77.5 -124t-138.5 -47l-15 -55h5q40 0 67.5 -25.5t27.5 -63.5t-29.5 -64t-73.5 -26q-46 0 -77 27.5t-36 68.5l60 8q2 -24 15.5 -37t34.5 -13q18 0 30.5 10t12.5 26q0 19 -15 30t-44 11h-23l-15 31l26 76
q-91 16 -145 90.5t-54 184.5q0 77 30 139t85.5 97t127.5 35q84 0 142 -46t79 -125l-73 -18q-14 58 -52.5 90.5t-95.5 32.5q-76 0 -121.5 -55t-45.5 -150q0 -99 45.5 -156t121.5 -57q57 0 95.5 32.5z" />
    <glyph glyph-name="egrave" unicode="&#xe8;" horiz-adv-x="562" 
d="M384 82q36 29 49 89l80 -20q-25 -84 -79 -122.5t-146 -38.5q-78 0 -133 36.5t-82.5 101t-27.5 147.5q0 78 29 138t84 93.5t129 33.5q110 0 169.5 -74.5t60.5 -210.5h-396q5 -96 49.5 -149t123.5 -53q54 0 90 29zM173.5 436q-42.5 -43 -50.5 -122h313q-3 79 -41 122
t-107 43q-72 0 -114.5 -43zM276 612l-160 160h118l97 -160h-55z" />
    <glyph glyph-name="eacute" unicode="&#xe9;" horiz-adv-x="562" 
d="M384 82q36 29 49 89l80 -20q-25 -84 -79 -122.5t-146 -38.5q-78 0 -133 36.5t-82.5 101t-27.5 147.5q0 78 29 138t84 93.5t129 33.5q110 0 169.5 -74.5t60.5 -210.5h-396q5 -96 49.5 -149t123.5 -53q54 0 90 29zM173.5 436q-42.5 -43 -50.5 -122h313q-3 79 -41 122
t-107 43q-72 0 -114.5 -43zM353 772h118l-156 -160h-52z" />
    <glyph glyph-name="ecircumflex" unicode="&#xea;" horiz-adv-x="562" 
d="M384 82q36 29 49 89l80 -20q-25 -84 -79 -122.5t-146 -38.5q-78 0 -133 36.5t-82.5 101t-27.5 147.5q0 78 29 138t84 93.5t129 33.5q110 0 169.5 -74.5t60.5 -210.5h-396q5 -96 49.5 -149t123.5 -53q54 0 90 29zM173.5 436q-42.5 -43 -50.5 -122h313q-3 79 -41 122
t-107 43q-72 0 -114.5 -43zM393 612l-99 109l-100 -109h-52l105 160h93l105 -160h-52z" />
    <glyph glyph-name="edieresis" unicode="&#xeb;" horiz-adv-x="562" 
d="M384 82q36 29 49 89l80 -20q-25 -84 -79 -122.5t-146 -38.5q-78 0 -133 36.5t-82.5 101t-27.5 147.5q0 78 29 138t84 93.5t129 33.5q110 0 169.5 -74.5t60.5 -210.5h-396q5 -96 49.5 -149t123.5 -53q54 0 90 29zM173.5 436q-42.5 -43 -50.5 -122h313q-3 79 -41 122
t-107 43q-72 0 -114.5 -43zM161 649q-15 15 -15 40t15 40t40 15t40 -15t15 -40t-15 -40t-40 -15t-40 15zM347 649q-15 15 -15 40t15 40t40 15t40 -15t15 -40t-15 -40t-40 -15t-40 15z" />
    <glyph glyph-name="igrave" unicode="&#xec;" horiz-adv-x="236" 
d="M80 530h76v-530h-76v530zM100 612l-160 160h118l97 -160h-55z" />
    <glyph glyph-name="iacute" unicode="&#xed;" horiz-adv-x="236" 
d="M80 530h76v-530h-76v530zM177 772h118l-156 -160h-52z" />
    <glyph glyph-name="icircumflex" unicode="&#xee;" horiz-adv-x="236" 
d="M80 530h76v-530h-76v530zM217 612l-99 109l-100 -109h-52l105 160h93l105 -160h-52z" />
    <glyph glyph-name="idieresis" unicode="&#xef;" horiz-adv-x="236" 
d="M80 530h76v-530h-76v530zM-15 649q-15 15 -15 40t15 40t40 15t40 -15t15 -40t-15 -40t-40 -15t-40 15zM171 649q-15 15 -15 40t15 40t40 15t40 -15t15 -40t-15 -40t-40 -15t-40 15z" />
    <glyph glyph-name="eth" unicode="&#xf0;" horiz-adv-x="576" 
d="M475 492.5q56 -110.5 56 -221.5q0 -83 -32 -147t-88 -99t-127 -35q-69 0 -123.5 34t-85 96t-30.5 142q0 82 28.5 145t81.5 98t122 35q47 0 78.5 -17t62.5 -54q-33 64 -71.5 108t-89.5 75l-129 -60l-21 48l91 43q-61 25 -132 42l108 49q57 -24 101 -55l90 42l22 -48
l-64 -30q96 -80 152 -190.5zM409 111.5q46 55.5 46 155.5q0 97 -44.5 153t-120.5 56q-77 0 -123 -57t-46 -155q0 -92 42 -150t122 -58q78 0 124 55.5z" />
    <glyph glyph-name="ntilde" unicode="&#xf1;" horiz-adv-x="571" 
d="M453 489q48 -51 48 -138v-351h-76v350q0 59 -31.5 91.5t-89.5 32.5q-43 0 -82.5 -23t-65.5 -62v-389h-76v530h76v-78q31 42 74.5 65t96.5 23q78 0 126 -51zM309 650q-13 6 -29 18q-11 9 -19.5 13t-18.5 4q-30 0 -32 -37h-65q1 49 26 72.5t63 23.5q19 0 32.5 -6t28.5 -17
q10 -8 18.5 -12.5t18.5 -4.5q31 0 33 36h63q0 -48 -23.5 -72t-63.5 -24q-19 0 -32 6z" />
    <glyph glyph-name="ograve" unicode="&#xf2;" horiz-adv-x="576" 
d="M415.5 505q55.5 -35 85.5 -97t30 -139q0 -81 -30 -144.5t-85.5 -99t-127.5 -35.5t-127.5 35.5t-85.5 99t-30 144.5q0 77 30 139t85.5 97t127.5 35t127.5 -35zM409.5 113q45.5 57 45.5 156q0 95 -45.5 150t-121.5 55t-121.5 -55t-45.5 -150q0 -99 45.5 -156t121.5 -57
t121.5 57zM270 612l-160 160h118l97 -160h-55z" />
    <glyph glyph-name="oacute" unicode="&#xf3;" horiz-adv-x="576" 
d="M415.5 505q55.5 -35 85.5 -97t30 -139q0 -81 -30 -144.5t-85.5 -99t-127.5 -35.5t-127.5 35.5t-85.5 99t-30 144.5q0 77 30 139t85.5 97t127.5 35t127.5 -35zM409.5 113q45.5 57 45.5 156q0 95 -45.5 150t-121.5 55t-121.5 -55t-45.5 -150q0 -99 45.5 -156t121.5 -57
t121.5 57zM347 772h118l-156 -160h-52z" />
    <glyph glyph-name="ocircumflex" unicode="&#xf4;" horiz-adv-x="576" 
d="M415.5 505q55.5 -35 85.5 -97t30 -139q0 -81 -30 -144.5t-85.5 -99t-127.5 -35.5t-127.5 35.5t-85.5 99t-30 144.5q0 77 30 139t85.5 97t127.5 35t127.5 -35zM409.5 113q45.5 57 45.5 156q0 95 -45.5 150t-121.5 55t-121.5 -55t-45.5 -150q0 -99 45.5 -156t121.5 -57
t121.5 57zM387 612l-99 109l-100 -109h-52l105 160h93l105 -160h-52z" />
    <glyph glyph-name="otilde" unicode="&#xf5;" horiz-adv-x="576" 
d="M415.5 505q55.5 -35 85.5 -97t30 -139q0 -81 -30 -144.5t-85.5 -99t-127.5 -35.5t-127.5 35.5t-85.5 99t-30 144.5q0 77 30 139t85.5 97t127.5 35t127.5 -35zM409.5 113q45.5 57 45.5 156q0 95 -45.5 150t-121.5 55t-121.5 -55t-45.5 -150q0 -99 45.5 -156t121.5 -57
t121.5 57zM311 650q-13 6 -29 18q-11 9 -19.5 13t-18.5 4q-30 0 -32 -37h-65q1 49 26 72.5t63 23.5q19 0 32.5 -6t28.5 -17q10 -8 18.5 -12.5t18.5 -4.5q31 0 33 36h63q0 -48 -23.5 -72t-63.5 -24q-19 0 -32 6z" />
    <glyph glyph-name="odieresis" unicode="&#xf6;" horiz-adv-x="576" 
d="M415.5 505q55.5 -35 85.5 -97t30 -139q0 -81 -30 -144.5t-85.5 -99t-127.5 -35.5t-127.5 35.5t-85.5 99t-30 144.5q0 77 30 139t85.5 97t127.5 35t127.5 -35zM409.5 113q45.5 57 45.5 156q0 95 -45.5 150t-121.5 55t-121.5 -55t-45.5 -150q0 -99 45.5 -156t121.5 -57
t121.5 57zM155 649q-15 15 -15 40t15 40t40 15t40 -15t15 -40t-15 -40t-40 -15t-40 15zM341 649q-15 15 -15 40t15 40t40 15t40 -15t15 -40t-15 -40t-40 -15t-40 15z" />
    <glyph glyph-name="divide" unicode="&#xf7;" 
d="M261 453q-15 15 -15 40t15 40t40 15t40 -15t15 -40t-15 -40t-40 -15t-40 15zM53 363h495v-59h-495v59zM261 134q-15 15 -15 40t15 40t40 15t40 -15t15 -40t-15 -40t-40 -15t-40 15z" />
    <glyph glyph-name="oslash" unicode="&#xf8;" horiz-adv-x="576" 
d="M477 447q54 -73 54 -178q0 -81 -30 -144.5t-85.5 -99t-127.5 -35.5q-84 0 -147 49l-51 -64l-48 40l58 68q-55 75 -55 186q0 77 30 139t85.5 97t127.5 35q84 0 146 -48l56 70l50 -42zM149 141l121 144l121 153q-42 36 -103 36q-76 0 -121.5 -55t-45.5 -150q0 -75 28 -128z
M429 390l-119 -140l-125 -156q41 -38 103 -38q76 0 121.5 57t45.5 156q0 71 -26 121z" />
    <glyph glyph-name="ugrave" unicode="&#xf9;" horiz-adv-x="571" 
d="M491 530v-530h-76v78q-31 -42 -74.5 -65t-96.5 -23q-78 0 -126 51t-48 138v351h76v-350q0 -59 31.5 -91.5t89.5 -32.5q44 0 83 23t65 62v389h76zM268 612l-160 160h118l97 -160h-55z" />
    <glyph glyph-name="uacute" unicode="&#xfa;" horiz-adv-x="571" 
d="M491 530v-530h-76v78q-31 -42 -74.5 -65t-96.5 -23q-78 0 -126 51t-48 138v351h76v-350q0 -59 31.5 -91.5t89.5 -32.5q44 0 83 23t65 62v389h76zM345 772h118l-156 -160h-52z" />
    <glyph glyph-name="ucircumflex" unicode="&#xfb;" horiz-adv-x="571" 
d="M491 530v-530h-76v78q-31 -42 -74.5 -65t-96.5 -23q-78 0 -126 51t-48 138v351h76v-350q0 -59 31.5 -91.5t89.5 -32.5q44 0 83 23t65 62v389h76zM385 612l-99 109l-100 -109h-52l105 160h93l105 -160h-52z" />
    <glyph glyph-name="udieresis" unicode="&#xfc;" horiz-adv-x="571" 
d="M491 530v-530h-76v78q-31 -42 -74.5 -65t-96.5 -23q-78 0 -126 51t-48 138v351h76v-350q0 -59 31.5 -91.5t89.5 -32.5q44 0 83 23t65 62v389h76zM153 649q-15 15 -15 40t15 40t40 15t40 -15t15 -40t-15 -40t-40 -15t-40 15zM339 649q-15 15 -15 40t15 40t40 15t40 -15
t15 -40t-15 -40t-40 -15t-40 15z" />
    <glyph glyph-name="yacute" unicode="&#xfd;" horiz-adv-x="488" 
d="M478 530l-212 -572q-46 -125 -168 -125q-11 0 -31 2l-15 70q27 -6 47 -6q35 0 55.5 14.5t36.5 44.5l19 35l-200 537h88l148 -448l145 448h87zM308 772h118l-156 -160h-52z" />
    <glyph glyph-name="thorn" unicode="&#xfe;" horiz-adv-x="578" 
d="M477.5 466q55.5 -74 55.5 -203q0 -130 -57 -201.5t-157 -71.5q-45 0 -88 20.5t-75 60.5v-231h-76v860h76v-242q32 41 75 61.5t88 20.5q103 0 158.5 -74zM417.5 113.5q37.5 57.5 37.5 151.5q0 95 -41.5 152t-114.5 57q-47 0 -82.5 -19t-60.5 -64v-247q25 -49 62 -68.5
t88 -19.5q74 0 111.5 57.5z" />
    <glyph glyph-name="ydieresis" unicode="&#xff;" horiz-adv-x="488" 
d="M478 530l-212 -572q-46 -125 -168 -125q-11 0 -31 2l-15 70q27 -6 47 -6q35 0 55.5 14.5t36.5 44.5l19 35l-200 537h88l148 -448l145 448h87zM116 649q-15 15 -15 40t15 40t40 15t40 -15t15 -40t-15 -40t-40 -15t-40 15zM302 649q-15 15 -15 40t15 40t40 15t40 -15
t15 -40t-15 -40t-40 -15t-40 15z" />
    <glyph glyph-name="Amacron" unicode="&#x100;" horiz-adv-x="673" 
d="M528 143h-383l-55 -143h-80l271 700h112l270 -700h-80zM505 203l-168 436l-169 -436h337zM467 897v-60h-260v60h260z" />
    <glyph glyph-name="amacron" unicode="&#x101;" horiz-adv-x="529" 
d="M410 494q49 -46 49 -131v-243v-120h-73v79q-42 -45 -92 -67t-100 -22q-70 0 -112 35t-42 97q0 61 29.5 100.5t104.5 66.5t212 43v41q0 50 -30.5 77.5t-87.5 27.5q-54 0 -88.5 -24.5t-49.5 -83.5l-73 18q22 81 79 116.5t135 35.5q90 0 139 -46zM309 85.5q48 23.5 77 61.5
v120q-105 -13 -162.5 -30.5t-80.5 -41.5t-23 -58q0 -35 23 -55t66 -20q52 0 100 23.5zM400 727v-60h-260v60h260z" />
    <glyph glyph-name="Abreve" unicode="&#x102;" horiz-adv-x="673" 
d="M528 143h-383l-55 -143h-80l271 700h112l270 -700h-80zM505 203l-168 436l-169 -436h337zM239 824q-38 36 -39 96h64q0 -39 19 -59.5t52 -20.5q35 0 55 20.5t21 59.5h63q-1 -61 -40 -96.5t-99 -35.5q-58 0 -96 36z" />
    <glyph glyph-name="abreve" unicode="&#x103;" horiz-adv-x="529" 
d="M410 494q49 -46 49 -131v-243v-120h-73v79q-42 -45 -92 -67t-100 -22q-70 0 -112 35t-42 97q0 61 29.5 100.5t104.5 66.5t212 43v41q0 50 -30.5 77.5t-87.5 27.5q-54 0 -88.5 -24.5t-49.5 -83.5l-73 18q22 81 79 116.5t135 35.5q90 0 139 -46zM309 85.5q48 23.5 77 61.5
v120q-105 -13 -162.5 -30.5t-80.5 -41.5t-23 -58q0 -35 23 -55t66 -20q52 0 100 23.5zM174 664q-38 36 -39 96h64q0 -39 19 -59.5t52 -20.5q35 0 55 20.5t21 59.5h63q-1 -61 -40 -96.5t-99 -35.5q-58 0 -96 36z" />
    <glyph glyph-name="Aogonek" unicode="&#x104;" horiz-adv-x="673" 
d="M543.5 -116.5q12.5 -10.5 34.5 -10.5q13 0 30 3t28 7v-64q-32 -10 -66 -10q-51 0 -79.5 24.5t-28.5 60.5q0 65 115 122l-49 127h-383l-55 -143h-80l271 700h112l270 -700h-50q-6 -4 -32.5 -22t-38 -33.5t-11.5 -32.5q0 -18 12.5 -28.5zM505 203l-168 436l-169 -436h337z
" />
    <glyph glyph-name="aogonek" unicode="&#x105;" horiz-adv-x="529" 
d="M454 -124q17 3 28 7v-64q-32 -10 -66 -10q-51 0 -79.5 24.5t-28.5 60.5q0 56 85 106h-7v79q-42 -45 -92 -67t-100 -22q-70 0 -112 35t-42 97q0 61 29.5 100.5t104.5 66.5t212 43v41q0 50 -30.5 77.5t-87.5 27.5q-54 0 -88.5 -24.5t-49.5 -83.5l-73 18q22 81 79 116.5
t135 35.5q90 0 139 -46t49 -131v-243v-120q-6 -4 -32.5 -22t-38 -33.5t-11.5 -32.5q0 -18 12.5 -28.5t34.5 -10.5q13 0 30 3zM309 85.5q48 23.5 77 61.5v120q-105 -13 -162.5 -30.5t-80.5 -41.5t-23 -58q0 -35 23 -55t66 -20q52 0 100 23.5z" />
    <glyph glyph-name="Cacute" unicode="&#x106;" horiz-adv-x="717" 
d="M526 110q61 48 86 131l75 -21q-32 -109 -112 -169.5t-200 -60.5q-99 0 -176.5 45.5t-120.5 127t-43 186.5t43 187t120.5 128t176.5 46q120 0 200 -60.5t112 -169.5l-75 -21q-25 83 -86 131t-151 48q-75 0 -134 -36.5t-91.5 -102.5t-32.5 -150t33 -149t91.5 -101.5
t133.5 -36.5q90 0 151 48zM447 932h118l-156 -160h-52z" />
    <glyph glyph-name="cacute" unicode="&#x107;" horiz-adv-x="539" 
d="M383.5 88.5q38.5 32.5 52.5 90.5l73 -18q-21 -79 -79 -125t-142 -46q-72 0 -127.5 35.5t-85.5 99t-30 144.5q0 77 30 139t85.5 97t127.5 35q84 0 142 -46t79 -125l-73 -18q-14 58 -52.5 90.5t-95.5 32.5q-76 0 -121.5 -55t-45.5 -150q0 -99 45.5 -156t121.5 -57
q57 0 95.5 32.5zM347 772h118l-156 -160h-52z" />
    <glyph glyph-name="Cdotaccent" unicode="&#x10a;" horiz-adv-x="717" 
d="M526 110q61 48 86 131l75 -21q-32 -109 -112 -169.5t-200 -60.5q-99 0 -176.5 45.5t-120.5 127t-43 186.5t43 187t120.5 128t176.5 46q120 0 200 -60.5t112 -169.5l-75 -21q-25 83 -86 131t-151 48q-75 0 -134 -36.5t-91.5 -102.5t-32.5 -150t33 -149t91.5 -101.5
t133.5 -36.5q90 0 151 48zM339 813q-15 15 -15 40t15 40t40 15t40 -15t15 -40t-15 -40t-40 -15t-40 15z" />
    <glyph glyph-name="cdotaccent" unicode="&#x10b;" horiz-adv-x="539" 
d="M383.5 88.5q38.5 32.5 52.5 90.5l73 -18q-21 -79 -79 -125t-142 -46q-72 0 -127.5 35.5t-85.5 99t-30 144.5q0 77 30 139t85.5 97t127.5 35q84 0 142 -46t79 -125l-73 -18q-14 58 -52.5 90.5t-95.5 32.5q-76 0 -121.5 -55t-45.5 -150q0 -99 45.5 -156t121.5 -57
q57 0 95.5 32.5zM248 649q-15 15 -15 40t15 40t40 15t40 -15t15 -40t-15 -40t-40 -15t-40 15z" />
    <glyph glyph-name="Ccaron" unicode="&#x10c;" horiz-adv-x="717" 
d="M526 110q61 48 86 131l75 -21q-32 -109 -112 -169.5t-200 -60.5q-99 0 -176.5 45.5t-120.5 127t-43 186.5t43 187t120.5 128t176.5 46q120 0 200 -60.5t112 -169.5l-75 -21q-25 83 -86 131t-151 48q-75 0 -134 -36.5t-91.5 -102.5t-32.5 -150t33 -149t91.5 -101.5
t133.5 -36.5q90 0 151 48zM425 772h-93l-105 160h52l100 -109l99 109h52z" />
    <glyph glyph-name="ccaron" unicode="&#x10d;" horiz-adv-x="539" 
d="M383.5 88.5q38.5 32.5 52.5 90.5l73 -18q-21 -79 -79 -125t-142 -46q-72 0 -127.5 35.5t-85.5 99t-30 144.5q0 77 30 139t85.5 97t127.5 35q84 0 142 -46t79 -125l-73 -18q-14 58 -52.5 90.5t-95.5 32.5q-76 0 -121.5 -55t-45.5 -150q0 -99 45.5 -156t121.5 -57
q57 0 95.5 32.5zM333 612h-93l-105 160h52l100 -109l99 109h52z" />
    <glyph glyph-name="Dcaron" unicode="&#x10e;" horiz-adv-x="720" 
d="M592 610.5q93 -89.5 93 -260.5t-93 -260.5t-283 -89.5h-219v700h219q190 0 283 -89.5zM532 139q73 74 73 211t-73 211t-223 74h-139v-570h139q150 0 223 74zM396 772h-93l-105 160h52l100 -109l99 109h52z" />
    <glyph glyph-name="dcaron" unicode="&#x10f;" horiz-adv-x="578" 
d="M498 700v-700h-76v72q-32 -41 -75 -61.5t-88 -20.5q-103 0 -158.5 74t-55.5 203q0 130 57 201.5t157 71.5q45 0 88 -20.5t75 -60.5v241h76zM361.5 75q35.5 19 60.5 64v247q-25 49 -62 68.5t-88 19.5q-74 0 -111.5 -57.5t-37.5 -151.5q0 -95 41.5 -152t114.5 -57
q47 0 82.5 19zM564 700h78l-37 -160h-41v160z" />
    <glyph glyph-name="Dcroat" unicode="&#x110;" horiz-adv-x="720" 
d="M592 610.5q93 -89.5 93 -260.5t-93 -260.5t-283 -89.5h-219v317h-58v65h58v318h219q190 0 283 -89.5zM532 139q73 74 73 211t-73 211t-223 74h-139v-253h197v-65h-197v-252h139q150 0 223 74z" />
    <glyph glyph-name="dcroat" unicode="&#x111;" horiz-adv-x="578" 
d="M567 582h-69v-582h-76v72q-32 -41 -75 -61.5t-88 -20.5q-103 0 -158.5 74t-55.5 203q0 130 57 201.5t157 71.5q45 0 88 -20.5t75 -60.5v123h-146v48h146v70h76v-70h69v-48zM361.5 75q35.5 19 60.5 64v247q-25 49 -62 68.5t-88 19.5q-74 0 -111.5 -57.5t-37.5 -151.5
q0 -95 41.5 -152t114.5 -57q47 0 82.5 19z" />
    <glyph glyph-name="Emacron" unicode="&#x112;" horiz-adv-x="649" 
d="M170 635v-233h385v-65h-385v-272h414v-65h-494v700h494v-65h-414zM475 897v-60h-260v60h260z" />
    <glyph glyph-name="emacron" unicode="&#x113;" horiz-adv-x="562" 
d="M384 82q36 29 49 89l80 -20q-25 -84 -79 -122.5t-146 -38.5q-78 0 -133 36.5t-82.5 101t-27.5 147.5q0 78 29 138t84 93.5t129 33.5q110 0 169.5 -74.5t60.5 -210.5h-396q5 -96 49.5 -149t123.5 -53q54 0 90 29zM173.5 436q-42.5 -43 -50.5 -122h313q-3 79 -41 122
t-107 43q-72 0 -114.5 -43zM424 727v-60h-260v60h260z" />
    <glyph glyph-name="Edotaccent" unicode="&#x116;" horiz-adv-x="649" 
d="M170 635v-233h385v-65h-385v-272h414v-65h-494v700h494v-65h-414zM305 813q-15 15 -15 40t15 40t40 15t40 -15t15 -40t-15 -40t-40 -15t-40 15z" />
    <glyph glyph-name="edotaccent" unicode="&#x117;" horiz-adv-x="562" 
d="M384 82q36 29 49 89l80 -20q-25 -84 -79 -122.5t-146 -38.5q-78 0 -133 36.5t-82.5 101t-27.5 147.5q0 78 29 138t84 93.5t129 33.5q110 0 169.5 -74.5t60.5 -210.5h-396q5 -96 49.5 -149t123.5 -53q54 0 90 29zM173.5 436q-42.5 -43 -50.5 -122h313q-3 79 -41 122
t-107 43q-72 0 -114.5 -43zM254 649q-15 15 -15 40t15 40t40 15t40 -15t15 -40t-15 -40t-40 -15t-40 15z" />
    <glyph glyph-name="Eogonek" unicode="&#x118;" horiz-adv-x="649" 
d="M558 -124q17 3 28 7v-64q-32 -10 -66 -10q-51 0 -79.5 24.5t-28.5 60.5q0 56 85 106h-407v700h494v-65h-414v-233h385v-65h-385v-272h414v-65h-21q-6 -4 -32.5 -22t-38 -33.5t-11.5 -32.5q0 -18 12.5 -28.5t34.5 -10.5q13 0 30 3z" />
    <glyph glyph-name="eogonek" unicode="&#x119;" horiz-adv-x="562" 
d="M513 151q-20 -65 -55 -102q-22 -22 -52 -50q-38 -35 -51 -51.5t-13 -35.5q0 -18 12.5 -28.5t34.5 -10.5q13 0 30 3t28 7v-64q-32 -10 -66 -10q-51 0 -79.5 24.5t-28.5 60.5q0 25 17.5 49t59.5 52q-32 -5 -62 -5q-78 0 -133 36.5t-82.5 101t-27.5 147.5q0 78 29 138
t84 93.5t129 33.5q110 0 169.5 -74.5t60.5 -210.5h-396q5 -96 49.5 -149t123.5 -53q54 0 90 29t49 89zM173.5 436q-42.5 -43 -50.5 -122h313q-3 79 -41 122t-107 43q-72 0 -114.5 -43z" />
    <glyph glyph-name="Ecaron" unicode="&#x11a;" horiz-adv-x="649" 
d="M170 635v-233h385v-65h-385v-272h414v-65h-494v700h494v-65h-414zM391 772h-93l-105 160h52l100 -109l99 109h52z" />
    <glyph glyph-name="ecaron" unicode="&#x11b;" horiz-adv-x="562" 
d="M384 82q36 29 49 89l80 -20q-25 -84 -79 -122.5t-146 -38.5q-78 0 -133 36.5t-82.5 101t-27.5 147.5q0 78 29 138t84 93.5t129 33.5q110 0 169.5 -74.5t60.5 -210.5h-396q5 -96 49.5 -149t123.5 -53q54 0 90 29zM173.5 436q-42.5 -43 -50.5 -122h313q-3 79 -41 122
t-107 43q-72 0 -114.5 -43zM339 612h-93l-105 160h52l100 -109l99 109h52z" />
    <glyph glyph-name="Gbreve" unicode="&#x11e;" horiz-adv-x="744" 
d="M406 337h271v-337h-61l-8 121q-37 -66 -100 -98.5t-146 -32.5q-95 0 -169.5 45.5t-116 127.5t-41.5 187q0 107 42.5 188.5t121 126.5t182.5 45q107 0 183.5 -49.5t113.5 -139.5l-74 -29q-29 69 -86.5 107.5t-136.5 38.5t-139 -36t-92.5 -101t-32.5 -150q0 -86 32 -152
t90.5 -102.5t135.5 -36.5q64 0 116.5 26.5t82 75t28.5 110.5h-196v65zM283 824q-38 36 -39 96h64q0 -39 19 -59.5t52 -20.5q35 0 55 20.5t21 59.5h63q-1 -61 -40 -96.5t-99 -35.5q-58 0 -96 36z" />
    <glyph glyph-name="gbreve" unicode="&#x11f;" horiz-adv-x="581" 
d="M501 530v-479q0 -99 -56 -160t-173 -61q-90 0 -150.5 38t-76.5 112l71 22q10 -59 55 -86t104 -27q150 0 150 155v84q-32 -43 -76 -67.5t-94 -24.5q-95 0 -150 69t-55 183t55 183t150 69q50 0 94 -24.5t76 -67.5v82h76zM360 128q41 26 65 71v177q-23 45 -64.5 71.5
t-89.5 26.5q-68 0 -106.5 -50.5t-38.5 -135.5t38.5 -135.5t106.5 -50.5q48 0 89 26zM195 664q-38 36 -39 96h64q0 -39 19 -59.5t52 -20.5q35 0 55 20.5t21 59.5h63q-1 -61 -40 -96.5t-99 -35.5q-58 0 -96 36z" />
    <glyph glyph-name="Gdotaccent" unicode="&#x120;" horiz-adv-x="744" 
d="M406 337h271v-337h-61l-8 121q-37 -66 -100 -98.5t-146 -32.5q-95 0 -169.5 45.5t-116 127.5t-41.5 187q0 107 42.5 188.5t121 126.5t182.5 45q107 0 183.5 -49.5t113.5 -139.5l-74 -29q-29 69 -86.5 107.5t-136.5 38.5t-139 -36t-92.5 -101t-32.5 -150q0 -86 32 -152
t90.5 -102.5t135.5 -36.5q64 0 116.5 26.5t82 75t28.5 110.5h-196v65zM341 813q-15 15 -15 40t15 40t40 15t40 -15t15 -40t-15 -40t-40 -15t-40 15z" />
    <glyph glyph-name="gdotaccent" unicode="&#x121;" horiz-adv-x="581" 
d="M501 530v-479q0 -99 -56 -160t-173 -61q-90 0 -150.5 38t-76.5 112l71 22q10 -59 55 -86t104 -27q150 0 150 155v84q-32 -43 -76 -67.5t-94 -24.5q-95 0 -150 69t-55 183t55 183t150 69q50 0 94 -24.5t76 -67.5v82h76zM360 128q41 26 65 71v177q-23 45 -64.5 71.5
t-89.5 26.5q-68 0 -106.5 -50.5t-38.5 -135.5t38.5 -135.5t106.5 -50.5q48 0 89 26zM251 649q-15 15 -15 40t15 40t40 15t40 -15t15 -40t-15 -40t-40 -15t-40 15z" />
    <glyph glyph-name="uni0122" unicode="&#x122;" horiz-adv-x="744" 
d="M406 337h271v-337h-61l-8 121q-37 -66 -100 -98.5t-146 -32.5q-95 0 -169.5 45.5t-116 127.5t-41.5 187q0 107 42.5 188.5t121 126.5t182.5 45q107 0 183.5 -49.5t113.5 -139.5l-74 -29q-29 69 -86.5 107.5t-136.5 38.5t-139 -36t-92.5 -101t-32.5 -150q0 -86 32 -152
t90.5 -102.5t135.5 -36.5q64 0 116.5 26.5t82 75t28.5 110.5h-196v65zM402.5 -84.5q11.5 -15.5 11.5 -52.5q0 -112 -111 -123l-6 24q45 9 63 25.5t21 56.5q-5 -1 -11 -1q-20 0 -33.5 11.5t-13.5 30.5t11.5 31.5t32.5 12.5q24 0 35.5 -15.5z" />
    <glyph glyph-name="uni0123" unicode="&#x123;" horiz-adv-x="581" 
d="M501 530v-479q0 -99 -56 -160t-173 -61q-90 0 -150.5 38t-76.5 112l71 22q10 -59 55 -86t104 -27q150 0 150 155v84q-32 -43 -76 -67.5t-94 -24.5q-95 0 -150 69t-55 183t55 183t150 69q50 0 94 -24.5t76 -67.5v82h76zM360 128q41 26 65 71v177q-23 45 -64.5 71.5
t-89.5 26.5q-68 0 -106.5 -50.5t-38.5 -135.5t38.5 -135.5t106.5 -50.5q48 0 89 26zM321 720.5q13 -11.5 13 -30.5t-11 -31.5t-32 -12.5q-23 0 -35 14.5t-12 49.5q0 116 111 127l4 -24q-45 -7 -63 -23t-18 -59q4 1 10 1q20 0 33 -11.5z" />
    <glyph glyph-name="Hbar" unicode="&#x126;" horiz-adv-x="724" 
d="M661 545h-27v-545h-80v344h-384v-344h-80v545h-29v53h29v102h80v-102h384v102h80v-102h27v-53zM554 545h-384v-136h384v136z" />
    <glyph glyph-name="hbar" unicode="&#x127;" horiz-adv-x="571" 
d="M453 489q48 -51 48 -138v-351h-76v350q0 59 -31.5 91.5t-89.5 32.5q-43 0 -82.5 -23t-65.5 -62v-389h-76v582h-70v48h70v70h76v-70h145v-48h-145v-130q31 42 74.5 65t96.5 23q78 0 126 -51z" />
    <glyph glyph-name="Imacron" unicode="&#x12a;" horiz-adv-x="280" 
d="M100 700h80v-700h-80v700zM270 897v-60h-260v60h260z" />
    <glyph glyph-name="imacron" unicode="&#x12b;" horiz-adv-x="236" 
d="M80 530h76v-530h-76v530zM248 727v-60h-260v60h260z" />
    <glyph glyph-name="Iogonek" unicode="&#x12e;" horiz-adv-x="280" 
d="M164 -124q17 3 28 7v-64q-32 -10 -66 -10q-51 0 -79.5 24.5t-28.5 60.5q0 56 85 106h-3v700h80v-700h-11q-6 -4 -32.5 -22t-38 -33.5t-11.5 -32.5q0 -18 12.5 -28.5t34.5 -10.5q13 0 30 3z" />
    <glyph glyph-name="iogonek" unicode="&#x12f;" horiz-adv-x="236" 
d="M78 649q-15 15 -15 40t15 40t40 15t40 -15t15 -40t-15 -40t-40 -15t-40 15zM72.5 -116.5q12.5 -10.5 34.5 -10.5q13 0 30 3t28 7v-64q-32 -10 -66 -10q-51 0 -79.5 24.5t-28.5 60.5q0 58 89 108v528h76v-530h-14q-6 -4 -32.5 -22t-38 -33.5t-11.5 -32.5q0 -18 12.5 -28.5
z" />
    <glyph glyph-name="Idotaccent" unicode="&#x130;" horiz-adv-x="280" 
d="M100 700h80v-700h-80v700zM100 813q-15 15 -15 40t15 40t40 15t40 -15t15 -40t-15 -40t-40 -15t-40 15z" />
    <glyph glyph-name="dotlessi" unicode="&#x131;" horiz-adv-x="236" 
d="M80 530h76v-530h-76v530z" />
    <glyph glyph-name="IJ" unicode="&#x132;" horiz-adv-x="584" 
d="M504 700v-472q0 -126 -51.5 -182t-158.5 -56q-98 0 -149 46.5t-65 149.5l84 18q2 -73 37.5 -107.5t95.5 -34.5q62 0 94.5 39t32.5 127v472h80zM83 700h80v-357h-80v357z" />
    <glyph glyph-name="uni0136" unicode="&#x136;" horiz-adv-x="680" 
d="M396 407l265 -407h-102l-219 346l-170 -185v-161h-80v700h80v-457l388 457h107zM369.5 -84.5q11.5 -15.5 11.5 -52.5q0 -112 -111 -123l-6 24q45 9 63 25.5t21 56.5q-5 -1 -11 -1q-20 0 -33.5 11.5t-13.5 30.5t11.5 31.5t32.5 12.5q24 0 35.5 -15.5z" />
    <glyph glyph-name="uni0137" unicode="&#x137;" horiz-adv-x="554" 
d="M244 260l-88 -80v-180h-76v700h76v-448l282 278h104l-247 -223l249 -307h-96zM311.5 -84.5q11.5 -15.5 11.5 -52.5q0 -112 -111 -123l-6 24q45 9 63 25.5t21 56.5q-5 -1 -11 -1q-20 0 -33.5 11.5t-13.5 30.5t11.5 31.5t32.5 12.5q24 0 35.5 -15.5z" />
    <glyph glyph-name="Lacute" unicode="&#x139;" horiz-adv-x="592" 
d="M567 67v-67h-477v700h80v-633h397zM202 932h118l-156 -160h-52z" />
    <glyph glyph-name="lacute" unicode="&#x13a;" horiz-adv-x="275" 
d="M104 20.5q-24 29.5 -24 71.5v608h76v-589q0 -28 7.5 -41.5t34.5 -13.5q25 0 40 15l12 -67q-32 -13 -60 -13q-62 0 -86 29.5zM196 932h118l-156 -160h-52z" />
    <glyph glyph-name="uni013B" unicode="&#x13b;" horiz-adv-x="592" 
d="M567 67v-67h-477v700h80v-633h397zM330.5 -84.5q11.5 -15.5 11.5 -52.5q0 -112 -111 -123l-6 24q45 9 63 25.5t21 56.5q-5 -1 -11 -1q-20 0 -33.5 11.5t-13.5 30.5t11.5 31.5t32.5 12.5q24 0 35.5 -15.5z" />
    <glyph glyph-name="uni013C" unicode="&#x13c;" horiz-adv-x="275" 
d="M104 20.5q-24 29.5 -24 71.5v608h76v-589q0 -28 7.5 -41.5t34.5 -13.5q25 0 40 15l12 -67q-32 -13 -60 -13q-62 0 -86 29.5zM162.5 -84.5q11.5 -15.5 11.5 -52.5q0 -112 -111 -123l-6 24q45 9 63 25.5t21 56.5q-5 -1 -11 -1q-20 0 -33.5 11.5t-13.5 30.5t11.5 31.5
t32.5 12.5q24 0 35.5 -15.5z" />
    <glyph glyph-name="Lcaron" unicode="&#x13d;" horiz-adv-x="592" 
d="M567 67v-67h-477v700h80v-633h397zM286 700h78l-37 -160h-41v160z" />
    <glyph glyph-name="lcaron" unicode="&#x13e;" horiz-adv-x="275" 
d="M104 20.5q-24 29.5 -24 71.5v608h76v-589q0 -28 7.5 -41.5t34.5 -13.5q25 0 40 15l12 -67q-32 -13 -60 -13q-62 0 -86 29.5zM202 700h78l-37 -160h-41v160z" />
    <glyph glyph-name="Lslash" unicode="&#x141;" horiz-adv-x="592" 
d="M567 67v-67h-477v258l-94 -80v94l94 57v371h80v-309l151 121v-94l-151 -98v-253h397z" />
    <glyph glyph-name="lslash" unicode="&#x142;" horiz-adv-x="275" 
d="M250 4q-32 -13 -60 -13q-62 0 -86 29.5t-24 71.5v156l-77 -75v87l77 60v380h76v-311l85 83v-87l-85 -66v-208q0 -28 7.5 -41.5t34.5 -13.5q25 0 40 15z" />
    <glyph glyph-name="Nacute" unicode="&#x143;" horiz-adv-x="748" 
d="M658 700v-700h-109l-380 615v-615h-79v700h109l380 -609v609h79zM442 932h118l-156 -160h-52z" />
    <glyph glyph-name="nacute" unicode="&#x144;" horiz-adv-x="571" 
d="M453 489q48 -51 48 -138v-351h-76v350q0 59 -31.5 91.5t-89.5 32.5q-43 0 -82.5 -23t-65.5 -62v-389h-76v530h76v-78q31 42 74.5 65t96.5 23q78 0 126 -51zM345 772h118l-156 -160h-52z" />
    <glyph glyph-name="uni0145" unicode="&#x145;" horiz-adv-x="748" 
d="M658 700v-700h-109l-380 615v-615h-79v700h109l380 -609v609h79zM408.5 -84.5q11.5 -15.5 11.5 -52.5q0 -112 -111 -123l-6 24q45 9 63 25.5t21 56.5q-5 -1 -11 -1q-20 0 -33.5 11.5t-13.5 30.5t11.5 31.5t32.5 12.5q24 0 35.5 -15.5z" />
    <glyph glyph-name="uni0146" unicode="&#x146;" horiz-adv-x="571" 
d="M453 489q48 -51 48 -138v-351h-76v350q0 59 -31.5 91.5t-89.5 32.5q-43 0 -82.5 -23t-65.5 -62v-389h-76v530h76v-78q31 42 74.5 65t96.5 23q78 0 126 -51zM310.5 -84.5q11.5 -15.5 11.5 -52.5q0 -112 -111 -123l-6 24q45 9 63 25.5t21 56.5q-5 -1 -11 -1
q-20 0 -33.5 11.5t-13.5 30.5t11.5 31.5t32.5 12.5q24 0 35.5 -15.5z" />
    <glyph glyph-name="Ncaron" unicode="&#x147;" horiz-adv-x="748" 
d="M658 700v-700h-109l-380 615v-615h-79v700h109l380 -609v609h79zM420 772h-93l-105 160h52l100 -109l99 109h52z" />
    <glyph glyph-name="ncaron" unicode="&#x148;" horiz-adv-x="571" 
d="M453 489q48 -51 48 -138v-351h-76v350q0 59 -31.5 91.5t-89.5 32.5q-43 0 -82.5 -23t-65.5 -62v-389h-76v530h76v-78q31 42 74.5 65t96.5 23q78 0 126 -51zM331 612h-93l-105 160h52l100 -109l99 109h52z" />
    <glyph glyph-name="Eng" unicode="&#x14a;" horiz-adv-x="748" 
d="M658 700v-690q0 -180 -167 -180q-18 0 -27 1v65q15 -5 34 -5q43 0 62 24.5t19 84.5v15l-410 606v-621h-79v700h109l380 -555v555h79z" />
    <glyph glyph-name="eng" unicode="&#x14b;" horiz-adv-x="571" 
d="M453 489q48 -51 48 -138v-351q0 -80 -43.5 -125t-123.5 -45q-18 0 -27 1v65q15 -5 34 -5q38 0 61 30t23 79v350q0 59 -31.5 91.5t-89.5 32.5q-43 0 -82.5 -23t-65.5 -62v-389h-76v530h76v-78q31 42 74.5 65t96.5 23q78 0 126 -51z" />
    <glyph glyph-name="Omacron" unicode="&#x14c;" horiz-adv-x="750" 
d="M552 665q77 -45 120 -127t43 -189q0 -106 -43 -187.5t-120 -126.5t-177 -45t-177 45t-120 126.5t-43 187.5q0 107 43 189t120 127t177 45t177 -45zM509 98q59 36 91.5 101t32.5 150t-32.5 151t-91.5 102t-134 36t-134 -36t-91.5 -102t-32.5 -151t32.5 -150t91.5 -101
t134 -36t134 36zM505 897v-60h-260v60h260z" />
    <glyph glyph-name="omacron" unicode="&#x14d;" horiz-adv-x="576" 
d="M415.5 505q55.5 -35 85.5 -97t30 -139q0 -81 -30 -144.5t-85.5 -99t-127.5 -35.5t-127.5 35.5t-85.5 99t-30 144.5q0 77 30 139t85.5 97t127.5 35t127.5 -35zM409.5 113q45.5 57 45.5 156q0 95 -45.5 150t-121.5 55t-121.5 -55t-45.5 -150q0 -99 45.5 -156t121.5 -57
t121.5 57zM418 727v-60h-260v60h260z" />
    <glyph glyph-name="Ohungarumlaut" unicode="&#x150;" horiz-adv-x="750" 
d="M552 665q77 -45 120 -127t43 -189q0 -106 -43 -187.5t-120 -126.5t-177 -45t-177 45t-120 126.5t-43 187.5q0 107 43 189t120 127t177 45t177 -45zM509 98q59 36 91.5 101t32.5 150t-32.5 151t-91.5 102t-134 36t-134 -36t-91.5 -102t-32.5 -151t32.5 -150t91.5 -101
t134 -36t134 36zM326 932h108l-117 -160h-51zM496 932h108l-117 -160h-51z" />
    <glyph glyph-name="ohungarumlaut" unicode="&#x151;" horiz-adv-x="576" 
d="M415.5 505q55.5 -35 85.5 -97t30 -139q0 -81 -30 -144.5t-85.5 -99t-127.5 -35.5t-127.5 35.5t-85.5 99t-30 144.5q0 77 30 139t85.5 97t127.5 35t127.5 -35zM409.5 113q45.5 57 45.5 156q0 95 -45.5 150t-121.5 55t-121.5 -55t-45.5 -150q0 -99 45.5 -156t121.5 -57
t121.5 57zM239 772h108l-117 -160h-51zM409 772h108l-117 -160h-51z" />
    <glyph glyph-name="OE" unicode="&#x152;" horiz-adv-x="1109" 
d="M630 635v-233h385v-65h-385v-272h414v-65h-633q-190 0 -283 89.5t-93 260.5t93 260.5t283 89.5h633v-65h-414zM550 65v570h-139q-150 0 -223 -74t-73 -211t73 -211t223 -74h139z" />
    <glyph glyph-name="oe" unicode="&#x153;" horiz-adv-x="972" 
d="M794 82q36 29 49 89l80 -20q-25 -84 -79 -122.5t-146 -38.5q-78 0 -129.5 37t-76.5 104q-26 -67 -78 -104t-126 -37q-72 0 -127.5 35.5t-85.5 99t-30 144.5q0 77 30 139t85.5 97t127.5 35q73 0 125 -36t78 -100q25 65 77 100.5t129 35.5q110 0 169.5 -74.5t60.5 -210.5
h-396q5 -96 49.5 -149t123.5 -53q54 0 90 29zM583.5 436q-42.5 -43 -50.5 -122h313q-3 79 -41 122t-107 43q-72 0 -114.5 -43zM409.5 113q45.5 57 45.5 156q0 95 -45.5 150t-121.5 55t-121.5 -55t-45.5 -150q0 -99 45.5 -156t121.5 -57t121.5 57z" />
    <glyph glyph-name="Racute" unicode="&#x154;" horiz-adv-x="703" 
d="M555 0l-158 283q-8 -1 -24 -1h-203v-282h-80v700h283q117 0 181.5 -55t64.5 -153q0 -71 -43.5 -123t-114.5 -74l197 -295h-103zM378 347q76 0 118.5 39.5t42.5 105.5q0 64 -42.5 103.5t-118.5 39.5h-208v-288h208zM400 932h118l-156 -160h-52z" />
    <glyph glyph-name="racute" unicode="&#x155;" horiz-adv-x="387" 
d="M232 504q50 32 135 32v-76q-20 3 -37 3q-63 0 -106.5 -32.5t-67.5 -91.5v-339h-76v530h76v-121q26 63 76 95zM253 772h118l-156 -160h-52z" />
    <glyph glyph-name="uni0156" unicode="&#x156;" horiz-adv-x="703" 
d="M555 0l-158 283q-8 -1 -24 -1h-203v-282h-80v700h283q117 0 181.5 -55t64.5 -153q0 -71 -43.5 -123t-114.5 -74l197 -295h-103zM378 347q76 0 118.5 39.5t42.5 105.5q0 64 -42.5 103.5t-118.5 39.5h-208v-288h208zM366.5 -84.5q11.5 -15.5 11.5 -52.5q0 -112 -111 -123
l-6 24q45 9 63 25.5t21 56.5q-5 -1 -11 -1q-20 0 -33.5 11.5t-13.5 30.5t11.5 31.5t32.5 12.5q24 0 35.5 -15.5z" />
    <glyph glyph-name="uni0157" unicode="&#x157;" horiz-adv-x="387" 
d="M232 504q50 32 135 32v-76q-20 3 -37 3q-63 0 -106.5 -32.5t-67.5 -91.5v-339h-76v530h76v-121q26 63 76 95zM138.5 -84.5q11.5 -15.5 11.5 -52.5q0 -112 -111 -123l-6 24q45 9 63 25.5t21 56.5q-5 -1 -11 -1q-20 0 -33.5 11.5t-13.5 30.5t11.5 31.5t32.5 12.5
q24 0 35.5 -15.5z" />
    <glyph glyph-name="Rcaron" unicode="&#x158;" horiz-adv-x="703" 
d="M555 0l-158 283q-8 -1 -24 -1h-203v-282h-80v700h283q117 0 181.5 -55t64.5 -153q0 -71 -43.5 -123t-114.5 -74l197 -295h-103zM378 347q76 0 118.5 39.5t42.5 105.5q0 64 -42.5 103.5t-118.5 39.5h-208v-288h208zM378 772h-93l-105 160h52l100 -109l99 109h52z" />
    <glyph glyph-name="rcaron" unicode="&#x159;" horiz-adv-x="387" 
d="M232 504q50 32 135 32v-76q-20 3 -37 3q-63 0 -106.5 -32.5t-67.5 -91.5v-339h-76v530h76v-121q26 63 76 95zM239 612h-93l-105 160h52l100 -109l99 109h52z" />
    <glyph glyph-name="Sacute" unicode="&#x15a;" horiz-adv-x="631" 
d="M148.5 41.5q-78.5 50.5 -103.5 160.5l78 20q20 -85 78.5 -124t138.5 -39q82 0 126.5 36.5t44.5 90.5q0 40 -25.5 64.5t-62.5 36.5t-103 27q-81 18 -130 35.5t-83.5 56.5t-34.5 106q0 91 64.5 144.5t179.5 53.5q204 0 249 -182l-81 -16q-18 68 -60 98.5t-113 30.5
q-77 0 -118 -35t-41 -88q0 -42 25.5 -66.5t64 -37t104.5 -26.5q79 -17 127.5 -34.5t83 -56t34.5 -104.5q0 -93 -68 -147.5t-190 -54.5q-106 0 -184.5 50.5zM383 932h118l-156 -160h-52z" />
    <glyph glyph-name="sacute" unicode="&#x15b;" horiz-adv-x="509" 
d="M122.5 28.5q-63.5 38.5 -87.5 123.5l75 19q34 -120 159 -120q60 0 93 23t33 64q0 30 -19 47.5t-47.5 26t-76.5 16.5q-63 11 -103 25t-68 46.5t-28 90.5q0 67 53 108.5t139 41.5q77 0 129 -34t70 -106l-72 -17q-20 96 -129 96q-53 0 -86 -23.5t-33 -61.5q0 -31 19 -49.5
t47.5 -27t78.5 -17.5q63 -11 101.5 -24.5t66 -45t27.5 -87.5q0 -74 -55 -113.5t-147 -39.5q-76 0 -139.5 38.5zM314 772h118l-156 -160h-52z" />
    <glyph glyph-name="Scedilla" unicode="&#x15e;" horiz-adv-x="631" 
d="M524 46.5q-67 -54.5 -186 -55.5l-15 -56h5q40 0 67.5 -25.5t27.5 -63.5t-29.5 -64t-73.5 -26q-46 0 -77 27.5t-36 68.5l60 8q2 -24 15.5 -37t34.5 -13q18 0 30.5 10t12.5 26q0 19 -15 30t-44 11h-23l-15 31l25 75q-90 10 -155 60.5t-88 148.5l78 20q20 -85 78.5 -124
t138.5 -39q82 0 126.5 36.5t44.5 90.5q0 40 -25.5 64.5t-62.5 36.5t-103 27q-81 18 -130 35.5t-83.5 56.5t-34.5 106q0 91 64.5 144.5t179.5 53.5q204 0 249 -182l-81 -16q-18 68 -60 98.5t-113 30.5q-77 0 -118 -35t-41 -88q0 -42 25.5 -66.5t64 -37t104.5 -26.5
q79 -17 127.5 -34.5t83 -56t34.5 -104.5q0 -92 -67 -146.5z" />
    <glyph glyph-name="scedilla" unicode="&#x15f;" horiz-adv-x="509" 
d="M413.5 33q-50.5 -39 -135.5 -43l-15 -55h5q40 0 67.5 -25.5t27.5 -63.5t-29.5 -64t-73.5 -26q-46 0 -77 27.5t-36 68.5l60 8q2 -24 15.5 -37t34.5 -13q18 0 30.5 10t12.5 26q0 19 -15 30t-44 11h-23l-15 31l25 74q-66 8 -118.5 46.5t-74.5 113.5l75 19q34 -120 159 -120
q60 0 93 23t33 64q0 30 -19 47.5t-47.5 26t-76.5 16.5q-63 11 -103 25t-68 46.5t-28 90.5q0 67 53 108.5t139 41.5q77 0 129 -34t70 -106l-72 -17q-20 96 -129 96q-53 0 -86 -23.5t-33 -61.5q0 -31 19 -49.5t47.5 -27t78.5 -17.5q63 -11 101.5 -24.5t66 -45t27.5 -87.5
q0 -71 -50.5 -110z" />
    <glyph glyph-name="Scaron" unicode="&#x160;" horiz-adv-x="631" 
d="M148.5 41.5q-78.5 50.5 -103.5 160.5l78 20q20 -85 78.5 -124t138.5 -39q82 0 126.5 36.5t44.5 90.5q0 40 -25.5 64.5t-62.5 36.5t-103 27q-81 18 -130 35.5t-83.5 56.5t-34.5 106q0 91 64.5 144.5t179.5 53.5q204 0 249 -182l-81 -16q-18 68 -60 98.5t-113 30.5
q-77 0 -118 -35t-41 -88q0 -42 25.5 -66.5t64 -37t104.5 -26.5q79 -17 127.5 -34.5t83 -56t34.5 -104.5q0 -93 -68 -147.5t-190 -54.5q-106 0 -184.5 50.5zM361 772h-93l-105 160h52l100 -109l99 109h52z" />
    <glyph glyph-name="scaron" unicode="&#x161;" horiz-adv-x="509" 
d="M122.5 28.5q-63.5 38.5 -87.5 123.5l75 19q34 -120 159 -120q60 0 93 23t33 64q0 30 -19 47.5t-47.5 26t-76.5 16.5q-63 11 -103 25t-68 46.5t-28 90.5q0 67 53 108.5t139 41.5q77 0 129 -34t70 -106l-72 -17q-20 96 -129 96q-53 0 -86 -23.5t-33 -61.5q0 -31 19 -49.5
t47.5 -27t78.5 -17.5q63 -11 101.5 -24.5t66 -45t27.5 -87.5q0 -74 -55 -113.5t-147 -39.5q-76 0 -139.5 38.5zM300 612h-93l-105 160h52l100 -109l99 109h52z" />
    <glyph glyph-name="uni0162" unicode="&#x162;" horiz-adv-x="604" 
d="M327 0l-17 -65h5q40 0 67.5 -25.5t27.5 -63.5t-29.5 -64t-73.5 -26q-46 0 -77 27.5t-36 68.5l60 8q2 -24 15.5 -37t34.5 -13q18 0 30.5 10t12.5 26q0 19 -15 30t-44 11h-23l-15 31l28 82h-16v635h-232v65h544v-65h-232v-635h-15z" />
    <glyph glyph-name="uni0163" unicode="&#x163;" horiz-adv-x="344" 
d="M312.5 -90.5q27.5 -25.5 27.5 -63.5t-29.5 -64t-73.5 -26q-46 0 -77 27.5t-36 68.5l60 8q2 -24 15.5 -37t34.5 -13q18 0 30.5 10t12.5 26q0 19 -15 30t-44 11h-23l-15 31l26 77q-99 22 -99 155v319h-87v61h87v170h76v-170h134v-61h-134v-319q0 -53 15 -76t53 -23
q32 0 59 14l19 -61q-33 -14 -74 -14l-15 -55h5q40 0 67.5 -25.5z" />
    <glyph glyph-name="Tcaron" unicode="&#x164;" horiz-adv-x="604" 
d="M574 635h-232v-635h-80v635h-232v65h544v-65zM348 772h-93l-105 160h52l100 -109l99 109h52z" />
    <glyph glyph-name="tcaron" unicode="&#x165;" horiz-adv-x="344" 
d="M329 4q-33 -14 -74 -14q-76 0 -112 39t-36 121v319h-87v61h87v170h76v-170h134v-61h-134v-319q0 -53 15 -76t53 -23q32 0 59 14zM242 742h78l-37 -160h-41v160z" />
    <glyph glyph-name="Tbar" unicode="&#x166;" horiz-adv-x="604" 
d="M342 635v-253h127v-65h-127v-317h-80v317h-128v65h128v253h-232v65h544v-65h-232z" />
    <glyph glyph-name="tbar" unicode="&#x167;" horiz-adv-x="344" 
d="M329 4q-33 -14 -74 -14q-76 0 -112 39t-36 121v109h-78v61h78v149h-87v61h87v170h76v-170h134v-61h-134v-149h117v-61h-117v-109q0 -53 15 -76t53 -23q32 0 59 14z" />
    <glyph glyph-name="Umacron" unicode="&#x16a;" horiz-adv-x="720" 
d="M640 700v-427q0 -139 -76.5 -211t-203.5 -72t-203.5 72t-76.5 211v427h80v-427q0 -109 55.5 -160t144.5 -51t144.5 51t55.5 160v427h80zM490 897v-60h-260v60h260z" />
    <glyph glyph-name="umacron" unicode="&#x16b;" horiz-adv-x="571" 
d="M491 530v-530h-76v78q-31 -42 -74.5 -65t-96.5 -23q-78 0 -126 51t-48 138v351h76v-350q0 -59 31.5 -91.5t89.5 -32.5q44 0 83 23t65 62v389h76zM416 727v-60h-260v60h260z" />
    <glyph glyph-name="Uring" unicode="&#x16e;" horiz-adv-x="720" 
d="M640 700v-427q0 -139 -76.5 -211t-203.5 -72t-203.5 72t-76.5 211v427h80v-427q0 -109 55.5 -160t144.5 -51t144.5 51t55.5 160v427h80zM293 797q-28 26 -28 64t28 64t67 26t67 -26t28 -64t-28 -64t-67 -26t-67 26zM391.5 829.5q12.5 12.5 12.5 31.5t-12.5 31.5
t-31.5 12.5t-31.5 -12.5t-12.5 -31.5t12.5 -31.5t31.5 -12.5t31.5 12.5z" />
    <glyph glyph-name="uring" unicode="&#x16f;" horiz-adv-x="571" 
d="M491 530v-530h-76v78q-31 -42 -74.5 -65t-96.5 -23q-78 0 -126 51t-48 138v351h76v-350q0 -59 31.5 -91.5t89.5 -32.5q44 0 83 23t65 62v389h76zM219 627q-28 26 -28 64t28 64t67 26t67 -26t28 -64t-28 -64t-67 -26t-67 26zM317.5 659.5q12.5 12.5 12.5 31.5t-12.5 31.5
t-31.5 12.5t-31.5 -12.5t-12.5 -31.5t12.5 -31.5t31.5 -12.5t31.5 12.5z" />
    <glyph glyph-name="Uhungarumlaut" unicode="&#x170;" horiz-adv-x="720" 
d="M640 700v-427q0 -139 -76.5 -211t-203.5 -72t-203.5 72t-76.5 211v427h80v-427q0 -109 55.5 -160t144.5 -51t144.5 51t55.5 160v427h80zM311 932h108l-117 -160h-51zM481 932h108l-117 -160h-51z" />
    <glyph glyph-name="uhungarumlaut" unicode="&#x171;" horiz-adv-x="571" 
d="M491 530v-530h-76v78q-31 -42 -74.5 -65t-96.5 -23q-78 0 -126 51t-48 138v351h76v-350q0 -59 31.5 -91.5t89.5 -32.5q44 0 83 23t65 62v389h76zM237 772h108l-117 -160h-51zM407 772h108l-117 -160h-51z" />
    <glyph glyph-name="Uogonek" unicode="&#x172;" horiz-adv-x="720" 
d="M640 700v-427q0 -114 -52.5 -183.5t-143.5 -90.5q-46 -30 -63.5 -46.5t-17.5 -40.5q0 -18 12.5 -28.5t34.5 -10.5q13 0 30 3t28 7v-64q-32 -10 -66 -10q-51 0 -79.5 24.5t-28.5 60.5q0 50 69 96h-3q-127 0 -203.5 72t-76.5 211v427h80v-427q0 -109 55.5 -160t144.5 -51
t144.5 51t55.5 160v427h80z" />
    <glyph glyph-name="uogonek" unicode="&#x173;" horiz-adv-x="571" 
d="M466 -124q17 3 28 7v-64q-32 -10 -66 -10q-51 0 -79.5 24.5t-28.5 60.5q0 59 95 112v72q-31 -42 -74.5 -65t-96.5 -23q-78 0 -126 51t-48 138v351h76v-350q0 -59 31.5 -91.5t89.5 -32.5q44 0 83 23t65 62v389h76v-530h-20q-6 -4 -32.5 -22t-38 -33.5t-11.5 -32.5
q0 -18 12.5 -28.5t34.5 -10.5q13 0 30 3z" />
    <glyph glyph-name="Wcircumflex" unicode="&#x174;" horiz-adv-x="952" 
d="M942 700l-165 -700h-122l-179 588l-179 -588h-122l-165 700h86l144 -642l178 642h116l178 -642l144 642h86zM574 772l-99 109l-100 -109h-52l105 160h93l105 -160h-52z" />
    <glyph glyph-name="wcircumflex" unicode="&#x175;" horiz-adv-x="750" 
d="M735 530l-140 -530h-90l-128 429l-125 -429h-97l-140 530h79l110 -464l126 464h98l125 -462l104 462h78zM474 612l-99 109l-100 -109h-52l105 160h93l105 -160h-52z" />
    <glyph glyph-name="Ycircumflex" unicode="&#x176;" horiz-adv-x="626" 
d="M616 700l-262 -406v-294h-83v293l-261 407h93l213 -356l213 356h87zM411 772l-99 109l-100 -109h-52l105 160h93l105 -160h-52z" />
    <glyph glyph-name="ycircumflex" unicode="&#x177;" horiz-adv-x="488" 
d="M478 530l-212 -572q-46 -125 -168 -125q-11 0 -31 2l-15 70q27 -6 47 -6q35 0 55.5 14.5t36.5 44.5l19 35l-200 537h88l148 -448l145 448h87zM348 612l-99 109l-100 -109h-52l105 160h93l105 -160h-52z" />
    <glyph glyph-name="Ydieresis" unicode="&#x178;" horiz-adv-x="626" 
d="M616 700l-262 -406v-294h-83v293l-261 407h93l213 -356l213 356h87zM180 813q-15 15 -15 40t15 40t40 15t40 -15t15 -40t-15 -40t-40 -15t-40 15zM366 813q-15 15 -15 40t15 40t40 15t40 -15t15 -40t-15 -40t-40 -15t-40 15z" />
    <glyph glyph-name="Zacute" unicode="&#x179;" horiz-adv-x="637" 
d="M597 65v-65h-552v58l444 577h-438v65h535v-59l-438 -576h449zM387 932h118l-156 -160h-52z" />
    <glyph glyph-name="zacute" unicode="&#x17a;" horiz-adv-x="498" 
d="M458 63v-63h-418v55l327 412h-317v63h400v-62l-320 -405h328zM308 772h118l-156 -160h-52z" />
    <glyph glyph-name="Zdotaccent" unicode="&#x17b;" horiz-adv-x="637" 
d="M597 65v-65h-552v58l444 577h-438v65h535v-59l-438 -576h449zM279 813q-15 15 -15 40t15 40t40 15t40 -15t15 -40t-15 -40t-40 -15t-40 15z" />
    <glyph glyph-name="zdotaccent" unicode="&#x17c;" horiz-adv-x="498" 
d="M458 63v-63h-418v55l327 412h-317v63h400v-62l-320 -405h328zM209 649q-15 15 -15 40t15 40t40 15t40 -15t15 -40t-15 -40t-40 -15t-40 15z" />
    <glyph glyph-name="Zcaron" unicode="&#x17d;" horiz-adv-x="637" 
d="M597 65v-65h-552v58l444 577h-438v65h535v-59l-438 -576h449zM365 772h-93l-105 160h52l100 -109l99 109h52z" />
    <glyph glyph-name="zcaron" unicode="&#x17e;" horiz-adv-x="498" 
d="M458 63v-63h-418v55l327 412h-317v63h400v-62l-320 -405h328zM294 612h-93l-105 160h52l100 -109l99 109h52z" />
    <glyph glyph-name="uni0218" unicode="&#x218;" horiz-adv-x="631" 
d="M148.5 41.5q-78.5 50.5 -103.5 160.5l78 20q20 -85 78.5 -124t138.5 -39q82 0 126.5 36.5t44.5 90.5q0 40 -25.5 64.5t-62.5 36.5t-103 27q-81 18 -130 35.5t-83.5 56.5t-34.5 106q0 91 64.5 144.5t179.5 53.5q204 0 249 -182l-81 -16q-18 68 -60 98.5t-113 30.5
q-77 0 -118 -35t-41 -88q0 -42 25.5 -66.5t64 -37t104.5 -26.5q79 -17 127.5 -34.5t83 -56t34.5 -104.5q0 -93 -68 -147.5t-190 -54.5q-106 0 -184.5 50.5zM349.5 -84.5q11.5 -15.5 11.5 -52.5q0 -112 -111 -123l-6 24q45 9 63 25.5t21 56.5q-5 -1 -11 -1q-20 0 -33.5 11.5
t-13.5 30.5t11.5 31.5t32.5 12.5q24 0 35.5 -15.5z" />
    <glyph glyph-name="uni0219" unicode="&#x219;" horiz-adv-x="509" 
d="M122.5 28.5q-63.5 38.5 -87.5 123.5l75 19q34 -120 159 -120q60 0 93 23t33 64q0 30 -19 47.5t-47.5 26t-76.5 16.5q-63 11 -103 25t-68 46.5t-28 90.5q0 67 53 108.5t139 41.5q77 0 129 -34t70 -106l-72 -17q-20 96 -129 96q-53 0 -86 -23.5t-33 -61.5q0 -31 19 -49.5
t47.5 -27t78.5 -17.5q63 -11 101.5 -24.5t66 -45t27.5 -87.5q0 -74 -55 -113.5t-147 -39.5q-76 0 -139.5 38.5zM289.5 -84.5q11.5 -15.5 11.5 -52.5q0 -112 -111 -123l-6 24q45 9 63 25.5t21 56.5q-5 -1 -11 -1q-20 0 -33.5 11.5t-13.5 30.5t11.5 31.5t32.5 12.5
q24 0 35.5 -15.5z" />
    <glyph glyph-name="uni021A" unicode="&#x21a;" horiz-adv-x="604" 
d="M574 635h-232v-635h-80v635h-232v65h544v-65zM336.5 -84.5q11.5 -15.5 11.5 -52.5q0 -112 -111 -123l-6 24q45 9 63 25.5t21 56.5q-5 -1 -11 -1q-20 0 -33.5 11.5t-13.5 30.5t11.5 31.5t32.5 12.5q24 0 35.5 -15.5z" />
    <glyph glyph-name="uni021B" unicode="&#x21b;" horiz-adv-x="344" 
d="M329 4q-33 -14 -74 -14q-76 0 -112 39t-36 121v319h-87v61h87v170h76v-170h134v-61h-134v-319q0 -53 15 -76t53 -23q32 0 59 14zM266.5 -84.5q11.5 -15.5 11.5 -52.5q0 -112 -111 -123l-6 24q45 9 63 25.5t21 56.5q-5 -1 -11 -1q-20 0 -33.5 11.5t-13.5 30.5t11.5 31.5
t32.5 12.5q24 0 35.5 -15.5z" />
    <glyph glyph-name="uni0237" unicode="&#x237;" horiz-adv-x="236" 
d="M156 530v-510q0 -97 -39.5 -143.5t-107.5 -46.5q-13 0 -35 2l-12 70q15 -5 34 -5q44 0 64 23.5t20 86.5v523h76z" />
    <glyph glyph-name="gravecomb" unicode="&#x300;" horiz-adv-x="0" 
d="M-318 612l-160 160h118l97 -160h-55z" />
    <glyph glyph-name="acutecomb" unicode="&#x301;" horiz-adv-x="0" 
d="M-241 772h118l-156 -160h-52z" />
    <glyph glyph-name="uni0302" unicode="&#x302;" horiz-adv-x="0" 
d="M-201 612l-99 109l-100 -109h-52l105 160h93l105 -160h-52z" />
    <glyph glyph-name="tildecomb" unicode="&#x303;" horiz-adv-x="0" 
d="M-277 650q-13 6 -29 18q-11 9 -19.5 13t-18.5 4q-30 0 -32 -37h-65q1 49 26 72.5t63 23.5q19 0 32.5 -6t28.5 -17q10 -8 18.5 -12.5t18.5 -4.5q31 0 33 36h63q0 -48 -23.5 -72t-63.5 -24q-19 0 -32 6z" />
    <glyph glyph-name="uni0304" unicode="&#x304;" horiz-adv-x="0" 
d="M-170 727v-60h-260v60h260z" />
    <glyph glyph-name="uni0306" unicode="&#x306;" horiz-adv-x="0" 
d="M-396 664q-38 36 -39 96h64q0 -39 19 -59.5t52 -20.5q35 0 55 20.5t21 59.5h63q-1 -61 -40 -96.5t-99 -35.5q-58 0 -96 36z" />
    <glyph glyph-name="uni0307" unicode="&#x307;" horiz-adv-x="0" 
d="M-340 649q-15 15 -15 40t15 40t40 15t40 -15t15 -40t-15 -40t-40 -15t-40 15z" />
    <glyph glyph-name="uni0308" unicode="&#x308;" horiz-adv-x="0" 
d="M-433 649q-15 15 -15 40t15 40t40 15t40 -15t15 -40t-15 -40t-40 -15t-40 15zM-247 649q-15 15 -15 40t15 40t40 15t40 -15t15 -40t-15 -40t-40 -15t-40 15z" />
    <glyph glyph-name="uni030A" unicode="&#x30a;" horiz-adv-x="0" 
d="M-367 627q-28 26 -28 64t28 64t67 26t67 -26t28 -64t-28 -64t-67 -26t-67 26zM-268.5 659.5q12.5 12.5 12.5 31.5t-12.5 31.5t-31.5 12.5t-31.5 -12.5t-12.5 -31.5t12.5 -31.5t31.5 -12.5t31.5 12.5z" />
    <glyph glyph-name="uni030B" unicode="&#x30b;" horiz-adv-x="0" 
d="M-349 772h108l-117 -160h-51zM-179 772h108l-117 -160h-51z" />
    <glyph glyph-name="uni030C" unicode="&#x30c;" horiz-adv-x="0" 
d="M-255 612h-93l-105 160h52l100 -109l99 109h52z" />
    <glyph glyph-name="uni0312" unicode="&#x312;" horiz-adv-x="0" 
d="M-270 720.5q13 -11.5 13 -30.5t-11 -31.5t-32 -12.5q-23 0 -35 14.5t-12 49.5q0 116 111 127l4 -24q-45 -7 -63 -23t-18 -59q4 1 10 1q20 0 33 -11.5z" />
    <glyph glyph-name="uni0326" unicode="&#x326;" horiz-adv-x="0" 
d="M-269.5 -84.5q11.5 -15.5 11.5 -52.5q0 -112 -111 -123l-6 24q45 9 63 25.5t21 56.5q-5 -1 -11 -1q-20 0 -33.5 11.5t-13.5 30.5t11.5 31.5t32.5 12.5q24 0 35.5 -15.5z" />
    <glyph glyph-name="uni0327" unicode="&#x327;" horiz-adv-x="0" 
d="M-324 7h49l-19 -72h5q40 0 67.5 -25.5t27.5 -63.5t-29.5 -64t-73.5 -26q-46 0 -77 27.5t-36 68.5l60 8q2 -24 15.5 -37t34.5 -13q18 0 30.5 10t12.5 26q0 19 -15 30t-44 11h-23l-15 31z" />
    <glyph glyph-name="uni0328" unicode="&#x328;" horiz-adv-x="0" 
d="M-242 30l6 -30q-6 -4 -32.5 -22t-38 -33.5t-11.5 -32.5q0 -18 12.5 -28.5t34.5 -10.5q13 0 30 3t28 7v-64q-33 -10 -66 -10q-51 0 -79.5 24.5t-28.5 60.5q0 73 145 136z" />
    <glyph glyph-name="uni0335" unicode="&#x335;" horiz-adv-x="0" 
d="M-132 385v-65h-335v65h335z" />
    <glyph glyph-name="uni0336" unicode="&#x336;" horiz-adv-x="0" 
d="M0 379v-53h-600v53h600z" />
    <glyph glyph-name="uni0337" unicode="&#x337;" horiz-adv-x="0" 
d="M-317 285l220 277l50 -42l-230 -270l-220 -275l-48 40z" />
    <glyph glyph-name="uni0338" unicode="&#x338;" horiz-adv-x="0" 
d="M-330 360l317 375l48 -41l-310 -356l-308 -369l-49 42z" />
    <glyph glyph-name="Wgrave" unicode="&#x1e80;" horiz-adv-x="952" 
d="M942 700l-165 -700h-122l-179 588l-179 -588h-122l-165 700h86l144 -642l178 642h116l178 -642l144 642h86zM478 772l-160 160h118l97 -160h-55z" />
    <glyph glyph-name="wgrave" unicode="&#x1e81;" horiz-adv-x="750" 
d="M735 530l-140 -530h-90l-128 429l-125 -429h-97l-140 530h79l110 -464l126 464h98l125 -462l104 462h78zM357 612l-160 160h118l97 -160h-55z" />
    <glyph glyph-name="Wacute" unicode="&#x1e82;" horiz-adv-x="952" 
d="M942 700l-165 -700h-122l-179 588l-179 -588h-122l-165 700h86l144 -642l178 642h116l178 -642l144 642h86zM544 932h118l-156 -160h-52z" />
    <glyph glyph-name="wacute" unicode="&#x1e83;" horiz-adv-x="750" 
d="M735 530l-140 -530h-90l-128 429l-125 -429h-97l-140 530h79l110 -464l126 464h98l125 -462l104 462h78zM434 772h118l-156 -160h-52z" />
    <glyph glyph-name="Wdieresis" unicode="&#x1e84;" horiz-adv-x="952" 
d="M942 700l-165 -700h-122l-179 588l-179 -588h-122l-165 700h86l144 -642l178 642h116l178 -642l144 642h86zM343 813q-15 15 -15 40t15 40t40 15t40 -15t15 -40t-15 -40t-40 -15t-40 15zM529 813q-15 15 -15 40t15 40t40 15t40 -15t15 -40t-15 -40t-40 -15t-40 15z" />
    <glyph glyph-name="wdieresis" unicode="&#x1e85;" horiz-adv-x="750" 
d="M735 530l-140 -530h-90l-128 429l-125 -429h-97l-140 530h79l110 -464l126 464h98l125 -462l104 462h78zM242 649q-15 15 -15 40t15 40t40 15t40 -15t15 -40t-15 -40t-40 -15t-40 15zM428 649q-15 15 -15 40t15 40t40 15t40 -15t15 -40t-15 -40t-40 -15t-40 15z" />
    <glyph glyph-name="uni1E9E" unicode="&#x1e9e;" horiz-adv-x="711" 
d="M466.5 415.5q21.5 -21.5 67.5 -52.5q42 -26 68.5 -48t45 -57t18.5 -84q0 -83 -55.5 -133.5t-157.5 -50.5q-87 0 -141.5 37.5t-67.5 103.5l80 20q6 -43 40.5 -69t90.5 -26q61 0 96 30.5t35 79.5q0 31 -13.5 53.5t-33.5 38.5t-55 38q-39 25 -62 43.5t-39 47t-16 68.5
q0 45 23 90t78 83h-121q-88 0 -132.5 -50.5t-44.5 -139.5v-438h-80v438q0 126 62 194t187 68h270v-68q-61 -13 -97.5 -43t-51.5 -62t-15 -58q0 -32 21.5 -53.5z" />
    <glyph glyph-name="Ygrave" unicode="&#x1ef2;" horiz-adv-x="626" 
d="M616 700l-262 -406v-294h-83v293l-261 407h93l213 -356l213 356h87zM315 772l-160 160h118l97 -160h-55z" />
    <glyph glyph-name="ygrave" unicode="&#x1ef3;" horiz-adv-x="488" 
d="M478 530l-212 -572q-46 -125 -168 -125q-11 0 -31 2l-15 70q27 -6 47 -6q35 0 55.5 14.5t36.5 44.5l19 35l-200 537h88l148 -448l145 448h87zM231 612l-160 160h118l97 -160h-55z" />
    <glyph glyph-name="uni2009" unicode="&#x2009;" horiz-adv-x="120" 
 />
    <glyph glyph-name="endash" unicode="&#x2013;" 
d="M35 307h530v-59l-530 -1v60z" />
    <glyph glyph-name="emdash" unicode="&#x2014;" horiz-adv-x="1068" 
d="M35 307h998v-59l-998 -1v60z" />
    <glyph glyph-name="quoteleft" unicode="&#x2018;" horiz-adv-x="265" 
d="M176.5 571.5q14.5 -14.5 14.5 -36.5q0 -24 -13.5 -39t-40.5 -15q-28 0 -43.5 17t-15.5 49q0 43 27 86t70 71l26 -26q-28 -25 -42.5 -44.5t-19.5 -45.5q23 -2 37.5 -16.5z" />
    <glyph glyph-name="quoteright" unicode="&#x2019;" horiz-adv-x="265" 
d="M171.5 686q15.5 -17 15.5 -49q0 -43 -27 -86t-70 -71l-26 26q28 25 42.5 44.5t19.5 45.5q-23 2 -37.5 16.5t-14.5 36.5q0 24 13.5 39t40.5 15q28 0 43.5 -17z" />
    <glyph glyph-name="quotesinglbase" unicode="&#x201a;" horiz-adv-x="265" 
d="M171.5 87q15.5 -17 15.5 -49q0 -43 -27 -86t-70 -71l-26 26q28 25 42.5 44.5t19.5 45.5q-23 2 -37.5 16.5t-14.5 36.5q0 24 13.5 39t40.5 15q28 0 43.5 -17z" />
    <glyph glyph-name="quotedblleft" unicode="&#x201c;" horiz-adv-x="425" 
d="M158.5 633.5q-14.5 -19.5 -19.5 -45.5q23 -2 37.5 -16.5t14.5 -36.5q0 -24 -13.5 -39t-40.5 -15q-28 0 -43.5 17t-15.5 49q0 43 27 86t70 71l26 -26q-28 -25 -42.5 -44.5zM336.5 571.5q14.5 -14.5 14.5 -36.5q0 -24 -13.5 -39t-40.5 -15q-28 0 -43.5 17t-15.5 49
q0 43 27 86t70 71l26 -26q-28 -25 -42.5 -44.5t-19.5 -45.5q23 -2 37.5 -16.5z" />
    <glyph glyph-name="quotedblright" unicode="&#x201d;" horiz-adv-x="425" 
d="M171.5 686q15.5 -17 15.5 -49q0 -43 -27 -86t-70 -71l-26 26q28 25 42.5 44.5t19.5 45.5q-23 2 -37.5 16.5t-14.5 36.5q0 24 13.5 39t40.5 15q28 0 43.5 -17zM331.5 686q15.5 -17 15.5 -49q0 -43 -27 -86t-70 -71l-26 26q28 25 42.5 44.5t19.5 45.5q-23 2 -37.5 16.5
t-14.5 36.5q0 24 13.5 39t40.5 15q28 0 43.5 -17z" />
    <glyph glyph-name="quotedblbase" unicode="&#x201e;" horiz-adv-x="425" 
d="M171.5 87q15.5 -17 15.5 -49q0 -43 -27 -86t-70 -71l-26 26q28 25 42.5 44.5t19.5 45.5q-23 2 -37.5 16.5t-14.5 36.5q0 24 13.5 39t40.5 15q28 0 43.5 -17zM331.5 87q15.5 -17 15.5 -49q0 -43 -27 -86t-70 -71l-26 26q28 25 42.5 44.5t19.5 45.5q-23 2 -37.5 16.5
t-14.5 36.5q0 24 13.5 39t40.5 15q28 0 43.5 -17z" />
    <glyph glyph-name="dagger" unicode="&#x2020;" horiz-adv-x="361" 
d="M331 557h-123v-305h-55v305h-123v52h123v131h55v-131h123v-52z" />
    <glyph glyph-name="daggerdbl" unicode="&#x2021;" horiz-adv-x="361" 
d="M208 557v-122h123v-52h-123v-131h-55v131h-123v52h123v122h-123v52h123v131h55v-131h123v-52h-123z" />
    <glyph glyph-name="bullet" unicode="&#x2022;" horiz-adv-x="421" 
d="M338 211h-256v256h256v-256z" />
    <glyph glyph-name="ellipsis" unicode="&#x2026;" horiz-adv-x="722" 
d="M321 10q-15 15 -15 40t15 40t40 15t40 -15t15 -40t-15 -40t-40 -15t-40 15zM544 10q-15 15 -15 40t15 40t40 15t40 -15t15 -40t-15 -40t-40 -15t-40 15zM97 10q-15 15 -15 40t15 40t40 15t40 -15t15 -40t-15 -40t-40 -15t-40 15z" />
    <glyph glyph-name="perthousand" unicode="&#x2030;" horiz-adv-x="1367" 
d="M379 658q49 -52 49 -138t-49 -138.5t-130 -52.5q-82 0 -130.5 52.5t-48.5 138.5t48.5 138t130.5 52q81 0 130 -52zM441 358l208 342h72l-236 -365l-202 -335h-73zM330.5 419q29.5 36 29.5 101t-29.5 101t-81.5 36t-82 -36t-30 -101t30 -101t82 -36t81.5 36zM828 319
q49 -52 49 -138t-49 -138.5t-130 -52.5q-82 0 -130.5 52.5t-48.5 138.5t48.5 138t130.5 52q81 0 130 -52zM1248 319q49 -52 49 -138t-49 -138.5t-130 -52.5q-82 0 -130.5 52.5t-48.5 138.5t48.5 138t130.5 52q81 0 130 -52zM779.5 80q29.5 36 29.5 101t-29.5 101t-81.5 36
t-82 -36t-30 -101t30 -101t82 -36t81.5 36zM1199.5 80q29.5 36 29.5 101t-29.5 101t-81.5 36t-82 -36t-30 -101t30 -101t82 -36t81.5 36z" />
    <glyph glyph-name="guilsinglleft" unicode="&#x2039;" horiz-adv-x="310" 
d="M180 474h70q-26 -93 -140 -183q114 -90 140 -183h-70q-24 87 -128 173v20q104 86 128 173z" />
    <glyph glyph-name="guilsinglright" unicode="&#x203a;" horiz-adv-x="310" 
d="M258 281q-104 -86 -128 -173h-70q26 93 140 183q-114 90 -140 183h70q24 -87 128 -173v-20z" />
    <glyph glyph-name="fraction" unicode="&#x2044;" horiz-adv-x="211" 
d="M81 358l208 342h72l-236 -365l-202 -335h-73z" />
    <glyph glyph-name="uni2070" unicode="&#x2070;" horiz-adv-x="406" 
d="M332 749.5q45 -60.5 45 -170.5q0 -109 -45 -169t-129 -60t-129 60t-45 169q0 110 45 170.5t129 60.5t129 -60.5zM125.5 706q-24.5 -41 -24.5 -126t24.5 -126t77.5 -41q54 0 78.5 41t24.5 126t-24.5 126t-78.5 41q-53 0 -77.5 -41z" />
    <glyph glyph-name="uni2074" unicode="&#x2074;" horiz-adv-x="417" 
d="M376 462h-62v-110h-69l1 110h-238v44l216 294h90v-285h62v-53zM246 515v236l-169 -236h169z" />
    <glyph glyph-name="uni2075" unicode="&#x2075;" horiz-adv-x="387" 
d="M326.5 604.5q38.5 -38.5 38.5 -104.5q0 -70 -46.5 -112t-122.5 -42q-67 0 -112 32t-58 90l67 16q9 -39 36 -60t69 -21q44 0 70.5 25.5t26.5 70.5t-24 69t-67 24q-36 0 -58.5 -16.5t-38.5 -41.5l-66 14q33 120 36 252h271v-54h-216q-4 -77 -24 -161q15 25 43.5 41.5
t71.5 16.5q65 0 103.5 -38.5z" />
    <glyph glyph-name="uni2076" unicode="&#x2076;" horiz-adv-x="400" 
d="M331 607q41 -41 41 -108t-45 -108t-119 -41q-89 0 -133.5 58.5t-44.5 161.5q0 113 48.5 176.5t134.5 63.5q47 0 89.5 -22.5t61.5 -78.5l-65 -17q-19 65 -88 65q-54 0 -83 -43t-30 -129q48 63 128 63q64 0 105 -41zM277.5 429.5q25.5 26.5 25.5 71.5t-25.5 71.5
t-67.5 26.5q-33 0 -59.5 -16.5t-50.5 -47.5q7 -69 36.5 -100.5t73.5 -31.5q42 0 67.5 26.5z" />
    <glyph glyph-name="uni2077" unicode="&#x2077;" horiz-adv-x="339" 
d="M340 744q-66 -67 -101.5 -125t-49 -120t-11.5 -147h-80q2 115 42 213t144 181h-274v54h330v-56z" />
    <glyph glyph-name="uni2078" unicode="&#x2078;" horiz-adv-x="391" 
d="M338 551q29 -31 29 -75q0 -58 -46.5 -92t-124.5 -34t-125 34t-47 92q0 44 29 75t88 42q-51 11 -76 38t-25 65q0 52 43 83t113 31t113 -31t43 -83q0 -38 -25.5 -65t-76.5 -38q59 -11 88 -42zM132.5 641q24.5 -19 63.5 -19t63 19t24 50t-24 50t-63 19q-40 0 -64 -19
t-24 -50t24.5 -50zM269.5 422.5q27.5 21.5 27.5 58.5q0 35 -28 56.5t-73 21.5q-46 0 -74 -21.5t-28 -56.5q0 -37 27.5 -58.5t74.5 -21.5q46 0 73.5 21.5z" />
    <glyph glyph-name="uni2079" unicode="&#x2079;" horiz-adv-x="400" 
d="M325.5 751.5q44.5 -58.5 44.5 -161.5q0 -113 -48.5 -176.5t-134.5 -63.5q-47 0 -89.5 22.5t-61.5 78.5l65 17q19 -65 88 -65q54 0 83 43t30 129q-48 -63 -128 -63q-64 0 -105 41t-41 108t45 108t119 41q89 0 133.5 -58.5zM249.5 577.5q26.5 16.5 50.5 47.5
q-7 69 -36.5 100.5t-73.5 31.5q-42 0 -67.5 -26.5t-25.5 -71.5t25.5 -71.5t67.5 -26.5q33 0 59.5 16.5z" />
    <glyph glyph-name="uni2080" unicode="&#x2080;" horiz-adv-x="406" 
d="M332 249.5q45 -60.5 45 -170.5q0 -109 -45 -169t-129 -60t-129 60t-45 169q0 110 45 170.5t129 60.5t129 -60.5zM125.5 206q-24.5 -41 -24.5 -126t24.5 -126t77.5 -41q54 0 78.5 41t24.5 126t-24.5 126t-78.5 41q-53 0 -77.5 -41z" />
    <glyph glyph-name="uni2081" unicode="&#x2081;" horiz-adv-x="276" 
d="M206 300v-448h-70v387q-24 -47 -98 -79l-27 56q55 20 86 39.5t52 44.5h57z" />
    <glyph glyph-name="uni2082" unicode="&#x2082;" horiz-adv-x="376" 
d="M356 -88v-56h-327v48l128 102q66 53 94 88t28 76q0 40 -24.5 62t-64.5 22q-41 0 -66 -23.5t-25 -68.5q0 -20 4 -39h-70q-3 20 -3 37q0 71 45 110.5t118 39.5q72 0 114 -37.5t42 -100.5q0 -52 -38 -101.5t-132 -111.5l-72 -47h249z" />
    <glyph glyph-name="uni2083" unicode="&#x2083;" horiz-adv-x="406" 
d="M348 49q30 -28 30 -74q0 -57 -46 -91t-121 -34q-76 0 -124.5 36.5t-59.5 98.5l67 14q7 -47 37.5 -70t76.5 -23q45 0 71.5 20.5t26.5 55.5t-27.5 55.5t-79.5 20.5h-32l-1 52h37q42 0 67 19.5t25 53.5q0 32 -23.5 51.5t-61.5 19.5q-41 0 -67.5 -21.5t-32.5 -62.5l-67 13
q8 59 52 93t113 34q72 0 114 -32.5t42 -86.5q0 -42 -26.5 -70t-73.5 -36q54 -8 84 -36z" />
    <glyph glyph-name="uni2084" unicode="&#x2084;" horiz-adv-x="417" 
d="M376 -38h-62v-110h-69l1 110h-238v44l216 294h90v-285h62v-53zM246 15v236l-169 -236h169z" />
    <glyph glyph-name="uni2085" unicode="&#x2085;" horiz-adv-x="387" 
d="M326.5 104.5q38.5 -38.5 38.5 -104.5q0 -70 -46.5 -112t-122.5 -42q-67 0 -112 32t-58 90l67 16q9 -39 36 -60t69 -21q44 0 70.5 25.5t26.5 70.5t-24 69t-67 24q-36 0 -58.5 -16.5t-38.5 -41.5l-66 14q33 120 36 252h271v-54h-216q-4 -77 -24 -161q15 25 43.5 41.5
t71.5 16.5q65 0 103.5 -38.5z" />
    <glyph glyph-name="uni2086" unicode="&#x2086;" horiz-adv-x="400" 
d="M331 107q41 -41 41 -108t-45 -108t-119 -41q-89 0 -133.5 58.5t-44.5 161.5q0 113 48.5 176.5t134.5 63.5q47 0 89.5 -22.5t61.5 -78.5l-65 -17q-19 65 -88 65q-54 0 -83 -43t-30 -129q48 63 128 63q64 0 105 -41zM277.5 -70.5q25.5 26.5 25.5 71.5t-25.5 71.5
t-67.5 26.5q-33 0 -59.5 -16.5t-50.5 -47.5q7 -69 36.5 -100.5t73.5 -31.5q42 0 67.5 26.5z" />
    <glyph glyph-name="uni2087" unicode="&#x2087;" horiz-adv-x="339" 
d="M340 244q-66 -67 -101.5 -125t-49 -120t-11.5 -147h-80q2 115 42 213t144 181h-274v54h330v-56z" />
    <glyph glyph-name="uni2088" unicode="&#x2088;" horiz-adv-x="391" 
d="M338 51q29 -31 29 -75q0 -58 -46.5 -92t-124.5 -34t-125 34t-47 92q0 44 29 75t88 42q-51 11 -76 38t-25 65q0 52 43 83t113 31t113 -31t43 -83q0 -38 -25.5 -65t-76.5 -38q59 -11 88 -42zM132.5 141q24.5 -19 63.5 -19t63 19t24 50t-24 50t-63 19q-40 0 -64 -19t-24 -50
t24.5 -50zM269.5 -77.5q27.5 21.5 27.5 58.5q0 35 -28 56.5t-73 21.5q-46 0 -74 -21.5t-28 -56.5q0 -37 27.5 -58.5t74.5 -21.5q46 0 73.5 21.5z" />
    <glyph glyph-name="uni2089" unicode="&#x2089;" horiz-adv-x="400" 
d="M325.5 251.5q44.5 -58.5 44.5 -161.5q0 -113 -48.5 -176.5t-134.5 -63.5q-47 0 -89.5 22.5t-61.5 78.5l65 17q19 -65 88 -65q54 0 83 43t30 129q-48 -63 -128 -63q-64 0 -105 41t-41 108t45 108t119 41q89 0 133.5 -58.5zM249.5 77.5q26.5 16.5 50.5 47.5
q-7 69 -36.5 100.5t-73.5 31.5q-42 0 -67.5 -26.5t-25.5 -71.5t25.5 -71.5t67.5 -26.5q33 0 59.5 16.5z" />
    <glyph glyph-name="uni20A8" unicode="&#x20a8;" 
d="M446 533h64v-55h-66q-10 -62 -61 -96.5t-146 -45.5q65 -14 106.5 -46t55.5 -81l62 -209h-94l-44 194q-14 63 -58.5 88.5t-124.5 27.5h-49v65h118q59 0 100.5 28.5t53.5 74.5h-272v55h274q-7 46 -43.5 74t-92.5 28h-138v65h418l1 -55h-117q47 -44 53 -112z" />
    <glyph glyph-name="Euro" unicode="&#x20ac;" 
d="M457 63q28 14 49 46l48 -53q-64 -66 -164 -66q-108 0 -183 72t-94 202h-92v53h87q-1 10 -1 32q0 18 2 52h-88v53h95q24 122 97 189t177 67q113 0 180 -84l-56 -45q-21 37 -51.5 54t-72.5 17q-75 0 -125.5 -51t-68.5 -147h231l-22 -53h-216q-2 -34 -2 -52q0 -22 1 -32h182
l-22 -53h-155q15 -103 66.5 -159t130.5 -56q39 0 67 14z" />
    <glyph glyph-name="uni2116" unicode="&#x2116;" horiz-adv-x="1259" 
d="M827 347q-54 58 -54 153t54 152.5t144 57.5t144 -57.5t54 -152.5q0 -63 -24.5 -110.5t-69.5 -74t-104 -26.5q-90 0 -144 58zM579 700h79v-700h-109l-380 615v-615h-79v700h109l380 -609v609zM880 611.5q-33 -39.5 -33 -111.5q0 -71 33 -111t91 -40q57 0 90 39.5t33 111.5
t-32.5 111.5t-90.5 39.5t-91 -39.5zM820 214h301v-61h-301v61z" />
    <glyph glyph-name="trademark" unicode="&#x2122;" horiz-adv-x="712" 
d="M30 701h252v-46h-98v-260h-55v260h-99v46zM662 701v-306h-55v258l-91 -258h-48l-92 259v-259h-50v306h80l86 -240l84 240h86z" />
    <glyph glyph-name="oneeighth" unicode="&#x215b;" horiz-adv-x="878" 
d="M206 700v-448h-70v387q-24 -47 -98 -79l-27 56q55 20 86 39.5t52 44.5h57zM367 358l208 342h72l-236 -365l-202 -335h-73zM825 195q29 -31 29 -75q0 -58 -46.5 -92t-124.5 -34t-125 34t-47 92q0 44 29 75t88 42q-51 11 -76 38t-25 65q0 52 43 83t113 31t113 -31t43 -83
q0 -38 -25.5 -65t-76.5 -38q59 -11 88 -42zM619.5 285q24.5 -19 63.5 -19t63 19t24 50t-24 50t-63 19q-40 0 -64 -19t-24 -50t24.5 -50zM756.5 66.5q27.5 21.5 27.5 58.5q0 35 -28 56.5t-73 21.5q-46 0 -74 -21.5t-28 -56.5q0 -37 27.5 -58.5t74.5 -21.5q46 0 73.5 21.5z
" />
    <glyph glyph-name="threeeighths" unicode="&#x215c;" horiz-adv-x="998" 
d="M348 449q30 -28 30 -74q0 -57 -46 -91t-121 -34q-76 0 -124.5 36.5t-59.5 98.5l67 14q7 -47 37.5 -70t76.5 -23q45 0 71.5 20.5t26.5 55.5t-27.5 55.5t-79.5 20.5h-32l-1 52h37q42 0 67 19.5t25 53.5q0 32 -23.5 51.5t-61.5 19.5q-41 0 -67.5 -21.5t-32.5 -62.5l-67 13
q8 59 52 93t113 34q72 0 114 -32.5t42 -86.5q0 -42 -26.5 -70t-73.5 -36q54 -8 84 -36zM487 358l208 342h72l-236 -365l-202 -335h-73zM945 195q29 -31 29 -75q0 -58 -46.5 -92t-124.5 -34t-125 34t-47 92q0 44 29 75t88 42q-51 11 -76 38t-25 65q0 52 43 83t113 31t113 -31
t43 -83q0 -38 -25.5 -65t-76.5 -38q59 -11 88 -42zM739.5 285q24.5 -19 63.5 -19t63 19t24 50t-24 50t-63 19q-40 0 -64 -19t-24 -50t24.5 -50zM876.5 66.5q27.5 21.5 27.5 58.5q0 35 -28 56.5t-73 21.5q-46 0 -74 -21.5t-28 -56.5q0 -37 27.5 -58.5t74.5 -21.5
q46 0 73.5 21.5z" />
    <glyph glyph-name="fiveeighths" unicode="&#x215d;" horiz-adv-x="999" 
d="M326.5 504.5q38.5 -38.5 38.5 -104.5q0 -70 -46.5 -112t-122.5 -42q-67 0 -112 32t-58 90l67 16q9 -39 36 -60t69 -21q44 0 70.5 25.5t26.5 70.5t-24 69t-67 24q-36 0 -58.5 -16.5t-38.5 -41.5l-66 14q33 120 36 252h271v-54h-216q-4 -77 -24 -161q15 25 43.5 41.5
t71.5 16.5q65 0 103.5 -38.5zM488 358l208 342h72l-236 -365l-202 -335h-73zM946 195q29 -31 29 -75q0 -58 -46.5 -92t-124.5 -34t-125 34t-47 92q0 44 29 75t88 42q-51 11 -76 38t-25 65q0 52 43 83t113 31t113 -31t43 -83q0 -38 -25.5 -65t-76.5 -38q59 -11 88 -42z
M740.5 285q24.5 -19 63.5 -19t63 19t24 50t-24 50t-63 19q-40 0 -64 -19t-24 -50t24.5 -50zM877.5 66.5q27.5 21.5 27.5 58.5q0 35 -28 56.5t-73 21.5q-46 0 -74 -21.5t-28 -56.5q0 -37 27.5 -58.5t74.5 -21.5q46 0 73.5 21.5z" />
    <glyph glyph-name="seveneighths" unicode="&#x215e;" horiz-adv-x="891" 
d="M340 644q-66 -67 -101.5 -125t-49 -120t-11.5 -147h-80q2 115 42 213t144 181h-274v54h330v-56zM380 358l208 342h72l-236 -365l-202 -335h-73zM838 195q29 -31 29 -75q0 -58 -46.5 -92t-124.5 -34t-125 34t-47 92q0 44 29 75t88 42q-51 11 -76 38t-25 65q0 52 43 83
t113 31t113 -31t43 -83q0 -38 -25.5 -65t-76.5 -38q59 -11 88 -42zM632.5 285q24.5 -19 63.5 -19t63 19t24 50t-24 50t-63 19q-40 0 -64 -19t-24 -50t24.5 -50zM769.5 66.5q27.5 21.5 27.5 58.5q0 35 -28 56.5t-73 21.5q-46 0 -74 -21.5t-28 -56.5q0 -37 27.5 -58.5
t74.5 -21.5q46 0 73.5 21.5z" />
    <glyph glyph-name="arrowleft" unicode="&#x2190;" horiz-adv-x="980" 
d="M960 316h-842l282 -268l-48 -49l-332 333v36l332 331l48 -48l-282 -268l842 1v-68z" />
    <glyph glyph-name="arrowup" unicode="&#x2191;" horiz-adv-x="711" 
d="M643 335l-254 260v-595h-67v595l-254 -260l-48 49l317 317h36l318 -317z" />
    <glyph glyph-name="arrowright" unicode="&#x2192;" horiz-adv-x="980" 
d="M960 368v-36l-332 -333l-48 49l282 268h-842v68l842 -1l-282 268l48 48z" />
    <glyph glyph-name="arrowdown" unicode="&#x2193;" horiz-adv-x="711" 
d="M691 317l-318 -317h-36l-317 317l48 49l254 -260v595h67v-595l254 260z" />
    <glyph glyph-name="uni2196" unicode="&#x2196;" horiz-adv-x="822" 
d="M754 -2l-595 595l10 -388h-69l1 469l25 26h469v-69l-388 10l595 -595z" />
    <glyph glyph-name="uni2197" unicode="&#x2197;" horiz-adv-x="822" 
d="M653 205l10 388l-595 -595l-48 48l595 595l-388 -10v69h469l25 -26l1 -469h-69z" />
    <glyph glyph-name="uni2198" unicode="&#x2198;" horiz-adv-x="822" 
d="M722 493l-1 -469l-25 -26h-469v69l388 -10l-595 595l48 48l595 -595l-10 388h69z" />
    <glyph glyph-name="uni2199" unicode="&#x2199;" horiz-adv-x="822" 
d="M207 57l388 10v-69h-469l-25 26l-1 469h69l-10 -388l595 595l48 -48z" />
    <glyph glyph-name="minus" unicode="&#x2212;" 
d="M53 363h495v-59h-495v59z" />
    <glyph glyph-name="approxequal" unicode="&#x2248;" 
d="M86 375q7 48 33.5 78.5t76.5 30.5q26 0 49.5 -7.5t60.5 -22.5q34 -13 50 -18.5t32 -5.5q32 0 49 15.5t20 37.5l57 -11q-6 -49 -32 -79.5t-76 -30.5q-26 0 -51 7.5t-61 22.5q-28 12 -46.5 18t-34.5 6q-31 0 -48 -15.5t-21 -37.5zM86 183q7 48 33.5 78.5t76.5 30.5
q26 0 49.5 -7.5t60.5 -22.5q34 -13 50 -18.5t32 -5.5q32 0 49 15.5t20 37.5l57 -11q-6 -49 -32 -79.5t-76 -30.5q-26 0 -51 7.5t-61 22.5q-28 12 -46.5 18t-34.5 6q-31 0 -48 -15.5t-21 -37.5z" />
    <glyph glyph-name="notequal" unicode="&#x2260;" 
d="M332 336l-37 -73h253v-59h-282l-70 -138h-69l75 138h-149v59h181l42 78l32 63h-255v59h284l70 138h69l-75 -138h147v-59h-179z" />
    <glyph glyph-name="lessequal" unicode="&#x2264;" 
d="M493 510l-303 -109l303 -109v-82l-386 159v63l386 159v-81zM107 146h386v-66h-386v66z" />
    <glyph glyph-name="greaterequal" unicode="&#x2265;" 
d="M493 432v-63l-386 -159v82l303 109l-303 109v81zM107 146h386v-66h-386v66z" />
    <glyph glyph-name="filledbox" unicode="&#x25a0;" horiz-adv-x="420" 
d="M117 246.5q-35 35.5 -35 93.5q0 57 35 92t93 35t93 -35t35 -92q0 -58 -35 -93.5t-93 -35.5t-93 35.5z" />
    <glyph glyph-name="uni2713" unicode="&#x2713;" horiz-adv-x="1040" 
d="M990 680l-626 -690l-314 337l65 58l249 -271l570 619z" />
    <glyph glyph-name="fl" unicode="&#xfb02;" horiz-adv-x="597" 
d="M572 4q-32 -13 -60 -13q-62 0 -86 29.5t-24 71.5v377h-225v-469h-76v469h-81v61h81v10q0 96 46.5 143t140.5 47q42 0 78 -14l-22 -61q-27 14 -63 14q-53 0 -78.5 -32t-25.5 -97v-10h225v170h76v-589q0 -28 7.5 -41.5t34.5 -13.5q25 0 40 15z" />
    <glyph glyph-name="i.loclTRK" horiz-adv-x="236" 
d="M80 530h76v-530h-76v530zM78 649q-15 15 -15 40t15 40t40 15t40 -15t15 -40t-15 -40t-40 -15t-40 15z" />
    <glyph glyph-name="germandbls.calt" horiz-adv-x="711" 
d="M466.5 415.5q21.5 -21.5 67.5 -52.5q42 -26 68.5 -48t45 -57t18.5 -84q0 -83 -55.5 -133.5t-157.5 -50.5q-87 0 -141.5 37.5t-67.5 103.5l80 20q6 -43 40.5 -69t90.5 -26q61 0 96 30.5t35 79.5q0 31 -13.5 53.5t-33.5 38.5t-55 38q-39 25 -62 43.5t-39 47t-16 68.5
q0 45 23 90t78 83h-121q-88 0 -132.5 -50.5t-44.5 -139.5v-438h-80v438q0 126 62 194t187 68h270v-68q-61 -13 -97.5 -43t-51.5 -62t-15 -58q0 -32 21.5 -53.5z" />
    <glyph glyph-name="f_f" horiz-adv-x="620" 
d="M508.5 637q-25.5 -32 -25.5 -97v-10h135v-61h-135v-469h-76v469h-230v-469h-76v469h-81v61h81v10q0 96 46.5 143t140.5 47q42 0 78 -14l-22 -61q-27 14 -63 14q-53 0 -78.5 -32t-25.5 -97v-10h230v10q0 96 46.5 143t140.5 47q42 0 78 -14l-22 -61q-27 14 -63 14
q-53 0 -78.5 -32z" />
    <glyph glyph-name="f_f_f" horiz-adv-x="926" 
d="M814.5 637q-25.5 -32 -25.5 -97v-10h135v-61h-135v-469h-76v469h-230v-469h-76v469h-230v-469h-76v469h-81v61h81v10q0 96 46.5 143t140.5 47q42 0 78 -14l-22 -61q-27 14 -63 14q-53 0 -78.5 -32t-25.5 -97v-10h230v10q0 96 46.5 143t140.5 47q42 0 78 -14l-22 -61
q-27 14 -63 14q-53 0 -78.5 -32t-25.5 -97v-10h230v10q0 96 46.5 143t140.5 47q42 0 78 -14l-22 -61q-27 14 -63 14q-53 0 -78.5 -32z" />
    <glyph glyph-name="f_f_k" horiz-adv-x="1167" 
d="M857 260l-88 -80v-180h-76v469h-220v-469h-76v469h-220v-469h-76v469h-81v61h81v10q0 96 46.5 143t140.5 47q42 0 78 -14l-22 -61q-27 14 -63 14q-53 0 -78.5 -32t-25.5 -97v-10h220v10q0 96 46.5 143t140.5 47q42 0 78 -14l-22 -61q-27 14 -63 14q-53 0 -78.5 -32
t-25.5 -97v-10h220v170h76v-448l282 278h104l-247 -223l249 -307h-96z" />
    <glyph glyph-name="f_f_l" horiz-adv-x="893" 
d="M868 4q-32 -13 -60 -13q-62 0 -86 29.5t-24 71.5v377h-225v-469h-76v469h-220v-469h-76v469h-81v61h81v10q0 96 46.5 143t140.5 47q42 0 78 -14l-22 -61q-27 14 -63 14q-53 0 -78.5 -32t-25.5 -97v-10h220v10q0 96 46.5 143t140.5 47q42 0 78 -14l-22 -61q-27 14 -63 14
q-53 0 -78.5 -32t-25.5 -97v-10h225v170h76v-589q0 -28 7.5 -41.5t34.5 -13.5q25 0 40 15z" />
    <glyph glyph-name="f_k" horiz-adv-x="871" 
d="M561 260l-88 -80v-180h-76v469h-220v-469h-76v469h-81v61h81v10q0 96 46.5 143t140.5 47q42 0 78 -14l-22 -61q-27 14 -63 14q-53 0 -78.5 -32t-25.5 -97v-10h220v170h76v-448l282 278h104l-247 -223l249 -307h-96z" />
    <glyph glyph-name="zero.osf" 
d="M432.5 505.5q57.5 -34.5 89 -96.5t31.5 -144q0 -81 -31.5 -143.5t-89 -97t-132.5 -34.5t-132.5 34.5t-89 97t-31.5 143.5q0 82 31.5 144t89 96.5t132.5 34.5t132.5 -34.5zM172.5 414q-48.5 -56 -48.5 -148t48.5 -147.5t127.5 -55.5t127.5 55.5t48.5 147.5t-48.5 148
t-127.5 56t-127.5 -56z" />
    <glyph glyph-name="one.osf" horiz-adv-x="580" 
d="M540 65v-65h-479v65h205v395q-26 -33 -56.5 -57t-51 -36.5t-68.5 -38.5l-31 73q70 23 122 53.5t92 75.5h68v-465h199z" />
    <glyph glyph-name="two.osf" horiz-adv-x="550" 
d="M516 61v-61h-470v55l205 111q101 54 133.5 99t32.5 84q0 58 -38 91.5t-98 33.5q-57 0 -98.5 -31t-41.5 -99q0 -27 7 -58h-85q-5 30 -5 52q0 97 62 149.5t160 52.5q64 0 114 -23t77.5 -65.5t27.5 -97.5q0 -57 -46.5 -116.5t-184.5 -126.5l-103 -50h351z" />
    <glyph glyph-name="three.osf" horiz-adv-x="620" 
d="M566 22q0 -60 -31 -105.5t-87.5 -70.5t-132.5 -25q-111 0 -180 55.5t-87 162.5l82 17q14 -88 61 -131.5t127 -43.5t124.5 37t44.5 101q0 65 -46.5 102.5t-134.5 37.5h-63l-1 63h64q75 0 117.5 33t42.5 95q0 60 -40.5 95t-112.5 35q-74 0 -115.5 -41t-49.5 -119l-77 15
q15 105 77.5 155t164.5 50q108 0 169.5 -51.5t61.5 -135.5q0 -130 -155 -159q177 -30 177 -172z" />
    <glyph glyph-name="four.osf" 
d="M559 4h-89v-174h-76l1 174h-377v60l343 466h109v-464h89v-62zM97 66h298v409z" />
    <glyph glyph-name="five.osf" 
d="M450 262q48 -29 74.5 -81.5t26.5 -121.5q0 -71 -30 -125t-85 -83.5t-127 -29.5q-102 0 -168.5 54.5t-79.5 141.5l73 17q9 -66 56 -109t120 -43q74 0 119 48t45 126q0 85 -39.5 128t-112.5 43q-53 0 -96 -28.5t-67 -66.5l-69 14q43 201 44 384l1 -1v1h387v-66h-321
q-3 -135 -41 -280q30 51 72 79t107 28q63 0 111 -29z" />
    <glyph glyph-name="six.osf" 
d="M440 422.5q51 -28.5 79.5 -80.5t28.5 -120q0 -69 -30.5 -121.5t-85.5 -81.5t-127 -29q-133 0 -197.5 93.5t-64.5 251.5q0 175 68 275t196 100q75 0 138 -37t87 -127l-75 -20q-19 118 -149 118q-96 0 -143 -76t-47 -231q32 52 84.5 83t119.5 31t118 -28.5zM428 96.5
q42 42.5 42 126.5q0 82 -42 123t-121 41q-61 0 -107.5 -31.5t-78.5 -87.5q22 -214 187 -214q78 0 120 42.5z" />
    <glyph glyph-name="seven.osf" horiz-adv-x="510" 
d="M505 470q-101 -122 -153.5 -205t-79.5 -185.5t-26 -249.5h-94q6 136 35 240t91 198.5t168 196.5h-441v65h500v-60z" />
    <glyph glyph-name="eight.osf" horiz-adv-x="580" 
d="M500 308.5q37 -47.5 37 -114.5q0 -60 -30.5 -106t-86.5 -71.5t-129 -25.5t-129.5 25.5t-87.5 71.5t-31 106q0 67 39 114.5t121 66.5q-135 33 -135 155q0 82 61.5 131t161.5 49t161.5 -49t61.5 -131q0 -57 -31.5 -97.5t-97.5 -57.5q78 -19 115 -66.5zM185.5 441.5
q39.5 -34.5 105.5 -34.5t105 34.5t39 87.5q0 56 -38 87t-106 31t-106.5 -31t-38.5 -87q0 -53 39.5 -87.5zM414.5 92.5q44.5 38.5 44.5 105.5q0 61 -45.5 98.5t-122.5 37.5t-122.5 -37.5t-45.5 -98.5q0 -67 44.5 -105.5t123.5 -38.5t123.5 38.5z" />
    <glyph glyph-name="nine.osf" 
d="M492.5 446.5q64.5 -93.5 64.5 -251.5q0 -175 -68 -275t-196 -100q-75 0 -138 37t-87 127l75 20q19 -118 149 -118q96 0 143 76t47 231q-32 -52 -84.5 -83t-119.5 -31t-118 28.5t-79.5 80.5t-28.5 120q0 69 30.5 121.5t85.5 81.5t127 29q133 0 197.5 -93.5zM400.5 174.5
q46.5 31.5 78.5 87.5q-22 214 -187 214q-78 0 -120 -42.5t-42 -126.5q0 -82 42 -123t121 -41q61 0 107.5 31.5z" />
    <glyph glyph-name="zero.osf.zero" 
d="M432.5 505.5q57.5 -34.5 89 -96.5t31.5 -144q0 -81 -31.5 -142.5t-89 -95.5t-132.5 -34t-132.5 34t-89 95.5t-31.5 142.5q0 82 31.5 144t89 96.5t132.5 34.5t132.5 -34.5zM172.5 414q-48.5 -56 -48.5 -148q0 -66 27 -117l124 143l125 148q-44 30 -100 30
q-79 0 -127.5 -56zM427.5 118.5q48.5 55.5 48.5 147.5q0 80 -37 134l-113 -130l-139 -166q47 -41 113 -41q79 0 127.5 55.5z" />
    <glyph glyph-name="zero.tf" 
d="M487 616q66 -94 66 -267q0 -172 -66 -265t-187 -93t-187 93t-66 265q0 173 66 267t187 94t187 -94zM166 569.5q-42 -72.5 -42 -220.5q0 -147 42 -218.5t134 -71.5t134 71.5t42 218.5q0 148 -42 220.5t-134 72.5t-134 -72.5z" />
    <glyph glyph-name="one.tf" 
d="M552 65v-65h-479v65h202v565q-26 -33 -56.5 -57t-51 -36.5t-68.5 -38.5l-31 73q70 23 122 53.5t92 75.5h68v-635h202z" />
    <glyph glyph-name="two.tf" 
d="M566 65v-65h-520v57l215 162q118 89 160 153.5t42 118.5q0 76 -42 115t-124 39q-61 0 -112 -36t-51 -125q0 -32 7 -66h-86q-4 28 -4 59q0 84 36 136t91.5 74.5t119.5 22.5q115 0 181 -56t66 -154q0 -80 -57.5 -164t-209.5 -183l-136 -88h424z" />
    <glyph glyph-name="three.tf" 
d="M556 192q0 -60 -31 -105.5t-87.5 -70.5t-132.5 -25q-111 0 -180 55.5t-87 162.5l82 17q14 -88 60.5 -130t127.5 -42t125 35.5t44 99.5q0 65 -46.5 102.5t-134.5 37.5h-63l-1 63h64q75 0 117.5 33t42.5 95q0 60 -40.5 93.5t-112.5 33.5q-148 0 -165 -157l-77 15
q15 105 77.5 155t164.5 50q108 0 169.5 -51.5t61.5 -135.5q0 -130 -155 -159q177 -30 177 -172z" />
    <glyph glyph-name="four.tf" 
d="M571 174h-89v-174h-76l1 174h-377v60l343 466h109v-464h89v-62zM109 236h298v409z" />
    <glyph glyph-name="five.tf" 
d="M443.5 432q50.5 -29 79 -82t28.5 -121q0 -71 -29 -125t-84 -83.5t-129 -29.5q-102 0 -168.5 54.5t-79.5 141.5l73 17q9 -66 56 -109t120 -43q81 0 122.5 43.5t41.5 130.5q0 84 -44 127.5t-118 43.5q-92 0 -153 -95l-69 14q43 201 44 384l1 -1v1h387v-66h-321
q-3 -139 -40 -278q29 51 66.5 78t101.5 27t114.5 -29z" />
    <glyph glyph-name="six.tf" 
d="M440 422.5q51 -28.5 79.5 -80.5t28.5 -120q0 -69 -30.5 -121.5t-85.5 -81.5t-127 -29q-133 0 -197.5 93.5t-64.5 251.5q0 175 68 275t196 100q75 0 138 -37t87 -127l-75 -20q-19 118 -149 118q-96 0 -143 -76t-47 -231q32 52 84.5 83t119.5 31t118 -28.5zM428 96.5
q42 42.5 42 126.5q0 82 -42 123t-121 41q-61 0 -107.5 -31.5t-78.5 -87.5q22 -214 187 -214q78 0 120 42.5z" />
    <glyph glyph-name="seven.tf" 
d="M575 700v-60q-113 -118 -172.5 -202.5t-89 -187t-29.5 -250.5h-95q7 137 38.5 240.5t99 198t183.5 196.5h-485v65h550z" />
    <glyph glyph-name="eight.tf" 
d="M518 308.5q39 -47.5 39 -114.5q0 -60 -32 -106t-90 -71.5t-134 -25.5t-134.5 25.5t-91 71.5t-32.5 106q0 67 40.5 114.5t126.5 66.5q-141 33 -141 155q0 54 29 95t81.5 63t121.5 22t121.5 -22t81.5 -63t29 -95q0 -57 -33 -97.5t-102 -57.5q81 -19 120 -66.5zM189 441.5
q42 -34.5 112 -34.5t111.5 34.5t41.5 87.5q0 56 -40.5 87t-112.5 31t-113 -31.5t-41 -86.5q0 -53 42 -87.5zM431.5 93q47.5 39 47.5 105q0 61 -48 98.5t-130 37.5t-130 -37.5t-48 -98.5q0 -66 47.5 -105t130.5 -39t130.5 39z" />
    <glyph glyph-name="nine.tf" 
d="M492.5 616.5q64.5 -93.5 64.5 -251.5q0 -175 -68 -275t-196 -100q-75 0 -138 37t-87 127l75 20q19 -118 149 -118q96 0 143 76t47 231q-32 -52 -84.5 -83t-119.5 -31t-118 28.5t-79.5 80.5t-28.5 120q0 69 30.5 121.5t85.5 81.5t127 29q133 0 197.5 -93.5zM400.5 344.5
q46.5 31.5 78.5 87.5q-22 214 -187 214q-78 0 -120 -42.5t-42 -126.5q0 -82 42 -123t121 -41q61 0 107.5 31.5z" />
    <glyph glyph-name="zero.tf.zero" 
d="M487 616q66 -94 66 -267q0 -172 -66 -265t-187 -93t-187 93t-66 265q0 173 66 267t187 94t187 -94zM166 569.5q-42 -72.5 -42 -220.5q0 -88 14 -144l134 155l168 199q-42 83 -140 83q-92 0 -134 -72.5zM434 130.5q42 71.5 42 218.5q0 89 -14 145l-135 -156l-166 -199
q44 -80 139 -80q92 0 134 71.5z" />
    <glyph glyph-name="zero.tosf" 
d="M432.5 505.5q57.5 -34.5 89 -96.5t31.5 -144q0 -81 -31.5 -143.5t-89 -97t-132.5 -34.5t-132.5 34.5t-89 97t-31.5 143.5q0 82 31.5 144t89 96.5t132.5 34.5t132.5 -34.5zM172.5 414q-48.5 -56 -48.5 -148t48.5 -147.5t127.5 -55.5t127.5 55.5t48.5 147.5t-48.5 148
t-127.5 56t-127.5 -56z" />
    <glyph glyph-name="one.tosf" 
d="M541 65v-65h-479v65h205v395q-26 -33 -56.5 -57t-51 -36.5t-68.5 -38.5l-31 73q70 23 122 53.5t92 75.5h68v-465h199z" />
    <glyph glyph-name="two.tosf" 
d="M535 61v-61h-470v55l205 111q101 54 133.5 99t32.5 84q0 58 -38 91.5t-98 33.5q-57 0 -98.5 -31t-41.5 -99q0 -27 7 -58h-85q-5 30 -5 52q0 97 62 149.5t160 52.5q64 0 114 -23t77.5 -65.5t27.5 -97.5q0 -57 -46.5 -116.5t-184.5 -126.5l-103 -50h351z" />
    <glyph glyph-name="three.tosf" 
d="M556 22q0 -60 -31 -105.5t-87.5 -70.5t-132.5 -25q-111 0 -180 55.5t-87 162.5l82 17q14 -88 60.5 -130t127.5 -42t125 35.5t44 99.5q0 65 -46.5 102.5t-134.5 37.5h-63l-1 63h64q75 0 117.5 33t42.5 95q0 60 -40.5 93.5t-112.5 33.5q-148 0 -165 -157l-77 15
q15 105 77.5 155t164.5 50q108 0 169.5 -51.5t61.5 -135.5q0 -130 -155 -159q177 -30 177 -172z" />
    <glyph glyph-name="four.tosf" 
d="M571 4h-89v-174h-76l1 174h-377v60l343 466h109v-464h89v-62zM109 66h298v409z" />
    <glyph glyph-name="five.tosf" 
d="M443.5 262q50.5 -29 79 -82t28.5 -121q0 -71 -29 -125t-84 -83.5t-129 -29.5q-102 0 -168.5 54.5t-79.5 141.5l73 17q9 -66 56 -109t120 -43q81 0 122.5 43.5t41.5 130.5q0 84 -44 127.5t-118 43.5q-92 0 -153 -95l-69 14q43 201 44 384l1 -1v1h387v-66h-321
q-3 -139 -40 -278q29 51 66.5 78t101.5 27t114.5 -29z" />
    <glyph glyph-name="six.tosf" 
d="M440 422.5q51 -28.5 79.5 -80.5t28.5 -120q0 -69 -30.5 -121.5t-85.5 -81.5t-127 -29q-133 0 -197.5 93.5t-64.5 251.5q0 175 68 275t196 100q75 0 138 -37t87 -127l-75 -20q-19 118 -149 118q-96 0 -143 -76t-47 -231q32 52 84.5 83t119.5 31t118 -28.5zM428 96.5
q42 42.5 42 126.5q0 82 -42 123t-121 41q-61 0 -107.5 -31.5t-78.5 -87.5q22 -214 187 -214q78 0 120 42.5z" />
    <glyph glyph-name="seven.tosf" 
d="M575 530v-60q-113 -118 -172.5 -202.5t-89 -187t-29.5 -250.5h-95q7 137 38.5 240.5t99 198t183.5 196.5h-485v65h550z" />
    <glyph glyph-name="eight.tosf" 
d="M518 308.5q39 -47.5 39 -114.5q0 -60 -32 -106t-90 -71.5t-134 -25.5t-134.5 25.5t-91 71.5t-32.5 106q0 67 40.5 114.5t126.5 66.5q-141 33 -141 155q0 54 29 95t81.5 63t121.5 22t121.5 -22t81.5 -63t29 -95q0 -57 -33 -97.5t-102 -57.5q81 -19 120 -66.5zM189 441.5
q42 -34.5 112 -34.5t111.5 34.5t41.5 87.5q0 56 -40.5 87t-112.5 31t-113 -31.5t-41 -86.5q0 -53 42 -87.5zM431.5 93q47.5 39 47.5 105q0 61 -48 98.5t-130 37.5t-130 -37.5t-48 -98.5q0 -66 47.5 -105t130.5 -39t130.5 39z" />
    <glyph glyph-name="nine.tosf" 
d="M492.5 446.5q64.5 -93.5 64.5 -251.5q0 -175 -68 -275t-196 -100q-75 0 -138 37t-87 127l75 20q19 -118 149 -118q96 0 143 76t47 231q-32 -52 -84.5 -83t-119.5 -31t-118 28.5t-79.5 80.5t-28.5 120q0 69 30.5 121.5t85.5 81.5t127 29q133 0 197.5 -93.5zM400.5 174.5
q46.5 31.5 78.5 87.5q-22 214 -187 214q-78 0 -120 -42.5t-42 -126.5q0 -82 42 -123t121 -41q61 0 107.5 31.5z" />
    <glyph glyph-name="zero.tosf.zero" 
d="M432.5 505.5q57.5 -34.5 89 -96.5t31.5 -144q0 -81 -31.5 -142.5t-89 -95.5t-132.5 -34t-132.5 34t-89 95.5t-31.5 142.5q0 82 31.5 144t89 96.5t132.5 34.5t132.5 -34.5zM172.5 414q-48.5 -56 -48.5 -148q0 -66 27 -117l124 143l125 148q-44 30 -100 30
q-79 0 -127.5 -56zM427.5 118.5q48.5 55.5 48.5 147.5q0 80 -37 134l-113 -130l-139 -166q47 -41 113 -41q79 0 127.5 55.5z" />
    <glyph glyph-name="zero.zero" 
d="M487 616q66 -94 66 -267q0 -172 -66 -265t-187 -93t-187 93t-66 265q0 173 66 267t187 94t187 -94zM166 569.5q-42 -72.5 -42 -220.5q0 -88 14 -144l134 155l168 199q-42 83 -140 83q-92 0 -134 -72.5zM434 130.5q42 71.5 42 218.5q0 89 -14 145l-135 -156l-166 -199
q44 -80 139 -80q92 0 134 71.5z" />
    <glyph glyph-name="zero.dnom" horiz-adv-x="406" 
d="M332 393.5q45 -60.5 45 -170.5q0 -109 -45 -169t-129 -60t-129 60t-45 169q0 110 45 170.5t129 60.5t129 -60.5zM125.5 350q-24.5 -41 -24.5 -126t24.5 -126t77.5 -41q54 0 78.5 41t24.5 126t-24.5 126t-78.5 41q-53 0 -77.5 -41z" />
    <glyph glyph-name="one.dnom" horiz-adv-x="276" 
d="M206 448v-448h-70v387q-24 -47 -98 -79l-27 56q55 20 86 39.5t52 44.5h57z" />
    <glyph glyph-name="two.dnom" horiz-adv-x="376" 
d="M356 56v-56h-327v48l128 102q66 53 94 88t28 76q0 40 -24.5 62t-64.5 22q-41 0 -66 -23.5t-25 -68.5q0 -20 4 -39h-70q-3 20 -3 37q0 71 45 110.5t118 39.5q72 0 114 -37.5t42 -100.5q0 -52 -38 -101.5t-132 -111.5l-72 -47h249z" />
    <glyph glyph-name="three.dnom" horiz-adv-x="406" 
d="M348 193q30 -28 30 -74q0 -57 -46 -91t-121 -34q-76 0 -124.5 36.5t-59.5 98.5l67 14q7 -47 37.5 -70t76.5 -23q45 0 71.5 20.5t26.5 55.5t-27.5 55.5t-79.5 20.5h-32l-1 52h37q42 0 67 19.5t25 53.5q0 32 -23.5 51.5t-61.5 19.5q-41 0 -67.5 -21.5t-32.5 -62.5l-67 13
q8 59 52 93t113 34q72 0 114 -32.5t42 -86.5q0 -42 -26.5 -70t-73.5 -36q54 -8 84 -36z" />
    <glyph glyph-name="four.dnom" horiz-adv-x="417" 
d="M376 110h-62v-110h-69l1 110h-238v44l216 294h90v-285h62v-53zM246 163v236l-169 -236h169z" />
    <glyph glyph-name="five.dnom" horiz-adv-x="387" 
d="M326.5 252.5q38.5 -38.5 38.5 -104.5q0 -70 -46.5 -112t-122.5 -42q-67 0 -112 32t-58 90l67 16q9 -39 36 -60t69 -21q44 0 70.5 25.5t26.5 70.5t-24 69t-67 24q-36 0 -58.5 -16.5t-38.5 -41.5l-66 14q33 120 36 252h271v-54h-216q-4 -77 -24 -161q15 25 43.5 41.5
t71.5 16.5q65 0 103.5 -38.5z" />
    <glyph glyph-name="six.dnom" horiz-adv-x="400" 
d="M331 251q41 -41 41 -108t-45 -108t-119 -41q-89 0 -133.5 58.5t-44.5 161.5q0 113 48.5 176.5t134.5 63.5q47 0 89.5 -22.5t61.5 -78.5l-65 -17q-19 65 -88 65q-54 0 -83 -43t-30 -129q48 63 128 63q64 0 105 -41zM277.5 73.5q25.5 26.5 25.5 71.5t-25.5 71.5t-67.5 26.5
q-33 0 -59.5 -16.5t-50.5 -47.5q7 -69 36.5 -100.5t73.5 -31.5q42 0 67.5 26.5z" />
    <glyph glyph-name="seven.dnom" horiz-adv-x="339" 
d="M340 392q-66 -67 -101.5 -125t-49 -120t-11.5 -147h-80q2 115 42 213t144 181h-274v54h330v-56z" />
    <glyph glyph-name="eight.dnom" horiz-adv-x="391" 
d="M338 195q29 -31 29 -75q0 -58 -46.5 -92t-124.5 -34t-125 34t-47 92q0 44 29 75t88 42q-51 11 -76 38t-25 65q0 52 43 83t113 31t113 -31t43 -83q0 -38 -25.5 -65t-76.5 -38q59 -11 88 -42zM132.5 285q24.5 -19 63.5 -19t63 19t24 50t-24 50t-63 19q-40 0 -64 -19
t-24 -50t24.5 -50zM269.5 66.5q27.5 21.5 27.5 58.5q0 35 -28 56.5t-73 21.5q-46 0 -74 -21.5t-28 -56.5q0 -37 27.5 -58.5t74.5 -21.5q46 0 73.5 21.5z" />
    <glyph glyph-name="nine.dnom" horiz-adv-x="400" 
d="M325.5 396.5q44.5 -58.5 44.5 -161.5q0 -113 -48.5 -176.5t-134.5 -63.5q-47 0 -89.5 22.5t-61.5 78.5l65 17q19 -65 88 -65q54 0 83 43t30 129q-48 -63 -128 -63q-64 0 -105 41t-41 108t45 108t119 41q89 0 133.5 -58.5zM249.5 222.5q26.5 16.5 50.5 47.5
q-7 69 -36.5 100.5t-73.5 31.5q-42 0 -67.5 -26.5t-25.5 -71.5t25.5 -71.5t67.5 -26.5q33 0 59.5 16.5z" />
    <glyph glyph-name="zero.numr" horiz-adv-x="406" 
d="M332 649.5q45 -60.5 45 -170.5q0 -109 -45 -169t-129 -60t-129 60t-45 169q0 110 45 170.5t129 60.5t129 -60.5zM125.5 606q-24.5 -41 -24.5 -126t24.5 -126t77.5 -41q54 0 78.5 41t24.5 126t-24.5 126t-78.5 41q-53 0 -77.5 -41z" />
    <glyph glyph-name="one.numr" horiz-adv-x="276" 
d="M206 700v-448h-70v387q-24 -47 -98 -79l-27 56q55 20 86 39.5t52 44.5h57z" />
    <glyph glyph-name="two.numr" horiz-adv-x="376" 
d="M356 312v-56h-327v48l128 102q66 53 94 88t28 76q0 40 -24.5 62t-64.5 22q-41 0 -66 -23.5t-25 -68.5q0 -20 4 -39h-70q-3 20 -3 37q0 71 45 110.5t118 39.5q72 0 114 -37.5t42 -100.5q0 -52 -38 -101.5t-132 -111.5l-72 -47h249z" />
    <glyph glyph-name="three.numr" horiz-adv-x="406" 
d="M348 449q30 -28 30 -74q0 -57 -46 -91t-121 -34q-76 0 -124.5 36.5t-59.5 98.5l67 14q7 -47 37.5 -70t76.5 -23q45 0 71.5 20.5t26.5 55.5t-27.5 55.5t-79.5 20.5h-32l-1 52h37q42 0 67 19.5t25 53.5q0 32 -23.5 51.5t-61.5 19.5q-41 0 -67.5 -21.5t-32.5 -62.5l-67 13
q8 59 52 93t113 34q72 0 114 -32.5t42 -86.5q0 -42 -26.5 -70t-73.5 -36q54 -8 84 -36z" />
    <glyph glyph-name="four.numr" horiz-adv-x="417" 
d="M376 362h-62v-110h-69l1 110h-238v44l216 294h90v-285h62v-53zM246 415v236l-169 -236h169z" />
    <glyph glyph-name="five.numr" horiz-adv-x="387" 
d="M326.5 504.5q38.5 -38.5 38.5 -104.5q0 -70 -46.5 -112t-122.5 -42q-67 0 -112 32t-58 90l67 16q9 -39 36 -60t69 -21q44 0 70.5 25.5t26.5 70.5t-24 69t-67 24q-36 0 -58.5 -16.5t-38.5 -41.5l-66 14q33 120 36 252h271v-54h-216q-4 -77 -24 -161q15 25 43.5 41.5
t71.5 16.5q65 0 103.5 -38.5z" />
    <glyph glyph-name="six.numr" horiz-adv-x="400" 
d="M331 507q41 -41 41 -108t-45 -108t-119 -41q-89 0 -133.5 58.5t-44.5 161.5q0 113 48.5 176.5t134.5 63.5q47 0 89.5 -22.5t61.5 -78.5l-65 -17q-19 65 -88 65q-54 0 -83 -43t-30 -129q48 63 128 63q64 0 105 -41zM277.5 329.5q25.5 26.5 25.5 71.5t-25.5 71.5
t-67.5 26.5q-33 0 -59.5 -16.5t-50.5 -47.5q7 -69 36.5 -100.5t73.5 -31.5q42 0 67.5 26.5z" />
    <glyph glyph-name="seven.numr" horiz-adv-x="339" 
d="M340 644q-66 -67 -101.5 -125t-49 -120t-11.5 -147h-80q2 115 42 213t144 181h-274v54h330v-56z" />
    <glyph glyph-name="eight.numr" horiz-adv-x="391" 
d="M338 451q29 -31 29 -75q0 -58 -46.5 -92t-124.5 -34t-125 34t-47 92q0 44 29 75t88 42q-51 11 -76 38t-25 65q0 52 43 83t113 31t113 -31t43 -83q0 -38 -25.5 -65t-76.5 -38q59 -11 88 -42zM132.5 541q24.5 -19 63.5 -19t63 19t24 50t-24 50t-63 19q-40 0 -64 -19
t-24 -50t24.5 -50zM269.5 322.5q27.5 21.5 27.5 58.5q0 35 -28 56.5t-73 21.5q-46 0 -74 -21.5t-28 -56.5q0 -37 27.5 -58.5t74.5 -21.5q46 0 73.5 21.5z" />
    <glyph glyph-name="nine.numr" horiz-adv-x="400" 
d="M325.5 651.5q44.5 -58.5 44.5 -161.5q0 -113 -48.5 -176.5t-134.5 -63.5q-47 0 -89.5 22.5t-61.5 78.5l65 17q19 -65 88 -65q54 0 83 43t30 129q-48 -63 -128 -63q-64 0 -105 41t-41 108t45 108t119 41q89 0 133.5 -58.5zM249.5 477.5q26.5 16.5 50.5 47.5
q-7 69 -36.5 100.5t-73.5 31.5q-42 0 -67.5 -26.5t-25.5 -71.5t25.5 -71.5t67.5 -26.5q33 0 59.5 16.5z" />
    <glyph glyph-name="exclamdown.case" horiz-adv-x="319" 
d="M199 690q15 -15 15 -40t-15 -40t-40 -15t-40 15t-15 40t15 40t40 15t40 -15zM196 448l13 -448h-99l15 448h71z" />
    <glyph glyph-name="questiondown.case" horiz-adv-x="570" 
d="M328 690q15 -15 15 -40t-15 -40t-40 -15t-40 15t-15 40t15 40t40 15t40 -15zM159.5 12q-48.5 22 -76 62t-27.5 94q0 43 16 73.5t38 49t59 42.5q40 24 59 43t19 49v23h80v-14q0 -37 -13.5 -62t-33 -41t-51.5 -35q-31 -19 -48.5 -33t-30 -36.5t-12.5 -54.5q0 -53 37 -85
t96 -32q66 0 102 36t36 92q0 32 -12 65h82q10 -37 10 -65q0 -54 -26 -98t-75.5 -69.5t-117.5 -25.5q-62 0 -110.5 22z" />
    <glyph glyph-name="periodcentered.case" horiz-adv-x="275" 
d="M97 330q-15 15 -15 40t15 40t40 15t40 -15t15 -40t-15 -40t-40 -15t-40 15z" />
    <glyph glyph-name="bullet.case" horiz-adv-x="421" 
d="M338 241h-256v256h256v-256z" />
    <glyph glyph-name="parenleft.case" horiz-adv-x="381" 
d="M137 99q-49 116 -49 244t48.5 244t132.5 203h71q-80 -93 -127.5 -208t-47.5 -239t48 -239.5t128 -208.5h-71q-84 88 -133 204z" />
    <glyph glyph-name="parenright.case" horiz-adv-x="381" 
d="M40 -105q80 93 128 208.5t48 239.5t-47.5 239t-127.5 208h71q84 -87 132.5 -203t48.5 -244t-49 -244t-133 -204h-71z" />
    <glyph glyph-name="braceleft.case" horiz-adv-x="368" 
d="M207 396.5q-25 -41.5 -78 -53.5q53 -13 78 -54.5t25 -130.5v-123q0 -41 23 -62t55 -21h28v-57h-28q-69 0 -111 34.5t-42 105.5v123q0 90 -32.5 119t-87.5 29h-7v73h7q55 0 87.5 29t32.5 119v123q0 71 42 105.5t111 34.5h28v-57h-28q-32 0 -55 -21t-23 -62v-123
q0 -89 -25 -130.5z" />
    <glyph glyph-name="braceright.case" horiz-adv-x="368" 
d="M338 379v-73h-7q-55 0 -87.5 -29t-32.5 -119v-123q0 -71 -42 -105.5t-111 -34.5h-28v57h28q32 0 55 21t23 62v123q0 89 25 130.5t78 54.5q-53 12 -78 53.5t-25 130.5v123q0 41 -23 62t-55 21h-28v57h28q69 0 111 -34.5t42 -105.5v-123q0 -90 32.5 -119t87.5 -29h7z" />
    <glyph glyph-name="bracketleft.case" horiz-adv-x="332" 
d="M165 733v-781h127v-57h-202v895h202v-57h-127z" />
    <glyph glyph-name="bracketright.case" horiz-adv-x="332" 
d="M242 -105h-202v57h127v781h-127v57h202v-895z" />
    <glyph glyph-name="hyphen.case" horiz-adv-x="394" 
d="M60 346v61h274v-61h-274z" />
    <glyph glyph-name="endash.case" horiz-adv-x="609" 
d="M35 407h530v-59l-530 -1v60z" />
    <glyph glyph-name="emdash.case" horiz-adv-x="1068" 
d="M35 407h998v-59l-998 -1v60z" />
    <glyph glyph-name="guillemotleft.case" horiz-adv-x="470" 
d="M180 554h70q-26 -93 -140 -183q114 -90 140 -183h-70q-24 87 -128 173v20q104 86 128 173zM340 554h70q-26 -93 -140 -183q114 -90 140 -183h-70q-24 87 -128 173v20q104 86 128 173z" />
    <glyph glyph-name="guillemotright.case" horiz-adv-x="470" 
d="M258 361q-104 -86 -128 -173h-70q26 93 140 183q-114 90 -140 183h70q24 -87 128 -173v-20zM418 361q-104 -86 -128 -173h-70q26 93 140 183q-114 90 -140 183h70q24 -87 128 -173v-20z" />
    <glyph glyph-name="guilsinglleft.case" horiz-adv-x="310" 
d="M180 554h70q-26 -93 -140 -183q114 -90 140 -183h-70q-24 87 -128 173v20q104 86 128 173z" />
    <glyph glyph-name="guilsinglright.case" horiz-adv-x="310" 
d="M258 361q-104 -86 -128 -173h-70q26 93 140 183q-114 90 -140 183h70q24 -87 128 -173v-20z" />
    <glyph glyph-name="at.case" horiz-adv-x="774" 
d="M540 535v-263q0 -38 11.5 -51t34.5 -13q21 0 41.5 21.5t33.5 63.5t13 98q0 83 -33.5 146t-96.5 97.5t-147 34.5q-90 0 -155.5 -39.5t-100.5 -113.5t-35 -174q0 -150 78 -229.5t223 -79.5q70 0 114.5 20.5t89.5 67.5l28 -58q-99 -83 -237 -83q-105 0 -184.5 44.5
t-123.5 127t-44 194.5q0 111 43 196t121.5 132t181.5 47q97 0 171.5 -42.5t115.5 -118t41 -173.5q0 -73 -22.5 -125.5t-59.5 -79.5t-81 -27q-35 0 -58 19t-30 51q-22 -32 -52 -50.5t-66 -18.5q-71 0 -111 53t-40 141q0 87 40 140.5t111 53.5q35 0 64 -18.5t51 -49.5v59h70z
M427.5 230q25.5 14 42.5 40v159q-16 26 -41.5 40t-56.5 14q-47 0 -72 -35t-25 -98q0 -64 25 -99t72 -35q30 0 55.5 14z" />
    <glyph glyph-name="bar.case" horiz-adv-x="315" 
d="M195 780v-860h-75v860h75z" />
    <glyph glyph-name="brokenbar.case" horiz-adv-x="315" 
d="M195 780v-351h-75v351h75zM195 271v-351h-75v351h75z" />
    <glyph glyph-name="caroncomb.alt" horiz-adv-x="0" 
d="M-256 772h78l-37 -160h-41v160z" />
    <glyph glyph-name="uni0308.case" horiz-adv-x="0" 
d="M-433 813q-15 15 -15 40t15 40t40 15t40 -15t15 -40t-15 -40t-40 -15t-40 15zM-247 813q-15 15 -15 40t15 40t40 15t40 -15t15 -40t-15 -40t-40 -15t-40 15z" />
    <glyph glyph-name="uni0307.case" horiz-adv-x="0" 
d="M-340 813q-15 15 -15 40t15 40t40 15t40 -15t15 -40t-15 -40t-40 -15t-40 15z" />
    <glyph glyph-name="gravecomb.case" horiz-adv-x="0" 
d="M-298 772l-160 160h118l97 -160h-55z" />
    <glyph glyph-name="acutecomb.case" horiz-adv-x="0" 
d="M-232 932h118l-156 -160h-52z" />
    <glyph glyph-name="uni030B.case" horiz-adv-x="0" 
d="M-349 932h108l-117 -160h-51zM-179 932h108l-117 -160h-51z" />
    <glyph glyph-name="uni0302.case" horiz-adv-x="0" 
d="M-201 772l-99 109l-100 -109h-52l105 160h93l105 -160h-52z" />
    <glyph glyph-name="uni030C.case" horiz-adv-x="0" 
d="M-255 772h-93l-105 160h52l100 -109l99 109h52z" />
    <glyph glyph-name="uni0306.case" horiz-adv-x="0" 
d="M-398 824q-38 36 -39 96h64q0 -39 19 -59.5t52 -20.5q35 0 55 20.5t21 59.5h63q-1 -61 -40 -96.5t-99 -35.5q-58 0 -96 36z" />
    <glyph glyph-name="uni030A.case" horiz-adv-x="0" 
d="M-367 797q-28 26 -28 64t28 64t67 26t67 -26t28 -64t-28 -64t-67 -26t-67 26zM-268.5 829.5q12.5 12.5 12.5 31.5t-12.5 31.5t-31.5 12.5t-31.5 -12.5t-12.5 -31.5t12.5 -31.5t31.5 -12.5t31.5 12.5z" />
    <glyph glyph-name="tildecomb.case" horiz-adv-x="0" 
d="M-277 820q-13 6 -29 18q-11 9 -19.5 13t-18.5 4q-30 0 -32 -37h-65q1 49 26 72.5t63 23.5q19 0 32.5 -6t28.5 -17q10 -8 18.5 -12.5t18.5 -4.5q31 0 33 36h63q0 -48 -23.5 -72t-63.5 -24q-19 0 -32 6z" />
    <glyph glyph-name="uni0304.case" horiz-adv-x="0" 
d="M-170 897v-60h-260v60h260z" />
    </font>
</defs>
</svg>
