<?xml version="1.0" standalone="no"?>
<!DOCTYPE svg PUBLIC "-//W3C//DTD SVG 1.1//EN" "http://www.w3.org/Graphics/SVG/1.1/DTD/svg11.dtd" >
<svg xmlns="http://www.w3.org/2000/svg" xmlns:xlink="http://www.w3.org/1999/xlink" version="1.1">
<metadata>
Created by FontForge 20170731 at Thu Nov 22 16:58:13 2018
 By Aleksey,,,
Copyright (c) 2018 by Rene Bieder. All rights reserved.
</metadata>
<defs>
<font id="BayWaSans-LightItalic" horiz-adv-x="600" >
  <font-face 
    font-family="BayWa Sans Light"
    font-weight="300"
    font-style="italic"
    font-stretch="normal"
    units-per-em="1000"
    panose-1="2 1 0 3 4 0 0 0 0 0"
    ascent="766"
    descent="-234"
    x-height="527"
    cap-height="700"
    bbox="-627 -242 1259 948"
    underline-thickness="50"
    underline-position="-150"
    slope="-10"
    unicode-range="U+0020-FB02"
  />
<missing-glyph horiz-adv-x="660" 
d="M657 700l-123 -700h-500l123 700h500zM220 660l132 -274l229 274h-361zM88 70l234 280l-135 280zM604 630l-234 -280l135 -280zM472 40l-132 274l-229 -274h361z" />
    <glyph glyph-name="fi" unicode="fi" horiz-adv-x="533" 
d="M400 0h-57l85 481h-226l-85 -481h-57l84 481h-84l8 46h84l1 5q17 95 79.5 143.5t152.5 48.5q29 0 54 -4.5t50 -18.5l-26 -55q-33 32 -91 32q-62 0 -105 -34t-56 -112l-1 -5h283z" />
    <glyph glyph-name="f_f_i" unicode="ffi" horiz-adv-x="817" 
d="M684 0h-57l84 481h-226l-85 -481h-57l85 481h-226l-85 -481h-57l85 481h-85l8 46h85l3 18q15 87 71.5 133t136.5 46q40 0 71 -14l-25 -50q-21 18 -62 18q-50 0 -86.5 -32t-48.5 -101l-3 -18h226l1 5q17 95 79 143.5t152 48.5q63 0 104 -23l-26 -55q-32 32 -91 32
q-134 0 -161 -146l-1 -5h284z" />
    <glyph glyph-name="f_f_j" unicode="ffj" horiz-adv-x="820" 
d="M689 10q-15 -88 -61.5 -134t-118.5 -46q-13 0 -19 1v50q14 -5 33 -5q44 0 70 29t38 95l85 481h-230l-85 -481h-57l85 481h-227l-85 -481h-57l85 481h-85l8 46h85l3 18q15 87 71.5 133t136.5 46q40 0 71 -14l-25 -50q-21 18 -62 18q-50 0 -86.5 -32t-48.5 -101l-3 -18h227
l1 5q17 95 79 143.5t152 48.5q63 0 104 -23l-26 -55q-32 32 -91 32q-62 0 -105 -34t-56 -112l-1 -5h287z" />
    <glyph glyph-name="f_j" unicode="fj" horiz-adv-x="536" 
d="M405 10q-16 -89 -62 -134.5t-118 -45.5q-13 0 -19 1v50q14 -5 32 -5q45 0 71 29t38 95l85 481h-230l-85 -481h-57l84 481h-84l8 46h84l1 5q17 95 79.5 143.5t152.5 48.5q29 0 54 -4.5t50 -18.5l-26 -55q-33 32 -91 32q-62 0 -105 -34t-56 -112l-1 -5h287z" />
    <glyph glyph-name=".notdef" horiz-adv-x="660" 
d="M657 700l-123 -700h-500l123 700h500zM220 660l132 -274l229 274h-361zM88 70l234 280l-135 280zM604 630l-234 -280l135 -280zM472 40l-132 274l-229 -274h361z" />
    <glyph glyph-name=".null" horiz-adv-x="0" 
 />
    <glyph glyph-name="nonmarkingreturn" horiz-adv-x="333" 
 />
    <glyph glyph-name="space" unicode=" " horiz-adv-x="243" 
 />
    <glyph glyph-name="exclam" unicode="!" horiz-adv-x="300" 
d="M187 700h74l-89 -451h-53zM78.5 8.5q-12.5 12.5 -12.5 31.5q0 20 12.5 32t31.5 12q20 0 32 -12t12 -32q0 -19 -12 -31.5t-32 -12.5q-19 0 -31.5 12.5z" />
    <glyph glyph-name="quotedbl" unicode="&#x22;" horiz-adv-x="362" 
d="M207 700l-48 -229h-49l33 229h64zM374 700l-48 -229h-49l33 229h64z" />
    <glyph glyph-name="numbersign" unicode="#" horiz-adv-x="783" 
d="M595 452l-80 -203h122l-9 -49h-132l-78 -200h-58l78 200h-185l-78 -200h-58l78 200h-113l9 49h123l80 203h-117l9 49h127l78 199h58l-78 -199h185l78 199h58l-78 -199h118l-9 -49h-128zM537 452h-185l-80 -203h185z" />
    <glyph glyph-name="dollar" unicode="$" 
d="M415 338q36 -16 63 -47t27 -79q0 -57 -28 -99.5t-77 -65.5t-110 -23q-21 0 -31 1l-18 -112h-54l22 120q-71 16 -113 62.5t-51 122.5l55 13q7 -61 39 -99t85 -53l45 256q-73 26 -113.5 59t-40.5 94q0 56 27 98.5t74 66t105 23.5h1l21 124h54l-24 -128q69 -10 110 -49
t51 -108l-58 -12q-12 107 -119 123l-44 -249q66 -23 102 -39zM199 433.5q28 -24.5 80 -44.5l43 240h-4q-66 0 -106.5 -37.5t-40.5 -93.5q0 -40 28 -64.5zM404 107q45 36 45 94q0 46 -36.5 71.5t-108.5 50.5l-44 -250q20 -2 32 -2q67 0 112 36z" />
    <glyph glyph-name="percent" unicode="%" horiz-adv-x="950" 
d="M162 377q-44 46 -44 122q0 58 25 106.5t69 77t99 28.5q78 0 122 -44.5t44 -116.5q0 -61 -24.5 -111t-69 -79t-100.5 -29q-77 0 -121 46zM461 350l277 350h55l-300 -368l-261 -332h-55zM360 396q32 24 49 64t17 87q0 57 -30.5 90t-85.5 33q-43 0 -75 -24t-49 -63t-17 -83
q0 -60 30.5 -94t85.5 -34q43 0 75 24zM546.5 30q-43.5 46 -43.5 123q0 58 24.5 106.5t68.5 76.5t100 28q78 0 122 -45.5t44 -117.5q0 -60 -25 -110t-69.5 -78.5t-99.5 -28.5q-78 0 -121.5 46zM745 50.5q32 24.5 49 65t17 88.5q-1 55 -31.5 87.5t-85.5 32.5q-43 0 -74.5 -24
t-48.5 -63.5t-17 -83.5q0 -60 30.5 -93.5t85.5 -33.5q43 0 75 24.5z" />
    <glyph glyph-name="ampersand" unicode="&#x26;" horiz-adv-x="664" 
d="M574.5 220.5q-28.5 -66.5 -70.5 -114.5l80 -106h-70l-49 67q-45 -38 -99.5 -57.5t-112.5 -19.5q-96 0 -154 49t-58 132q0 57 27.5 96.5t69 63.5t99.5 46q-35 48 -52.5 86.5t-17.5 78.5q0 48 25 86t68 60t95 22q73 0 120 -41t47 -109q0 -74 -55.5 -119t-155.5 -83
l168 -220q66 84 76 230h58q-10 -81 -38.5 -147.5zM260.5 627q-34.5 -33 -34.5 -88q0 -37 15 -71.5t43 -73.5q82 31 131 68t49 99q0 46 -30.5 72.5t-81.5 26.5q-57 0 -91.5 -33zM442 98l-178 242q-77 -28 -120.5 -65t-43.5 -102t45.5 -101t122.5 -36q102 0 174 62z" />
    <glyph glyph-name="quotesingle" unicode="'" horiz-adv-x="195" 
d="M207 700l-48 -229h-49l33 229h64z" />
    <glyph glyph-name="parenleft" unicode="(" horiz-adv-x="354" 
d="M116 46q-28 92 -28 193q0 163 68.5 296.5t194.5 244.5h60q-130 -117 -201.5 -250t-71.5 -294q0 -95 30.5 -187t85.5 -164h-54q-56 69 -84 161z" />
    <glyph glyph-name="parenright" unicode=")" horiz-adv-x="355" 
d="M262.5 618.5q27.5 -92.5 27.5 -192.5q0 -163 -68 -296.5t-195 -244.5h-60q131 117 202.5 250t71.5 294q0 94 -30.5 186t-85.5 165h54q56 -69 83.5 -161.5z" />
    <glyph glyph-name="asterisk" unicode="*" horiz-adv-x="423" 
d="M290 558l77 -128l-49 -23l-56 142l-102 -114l-38 38l117 94l-128 45l23 50l120 -71l12 142l54 -10l-37 -136l137 25l4 -55z" />
    <glyph glyph-name="plus" unicode="+" 
d="M286 311h-220l9 45h219l39 220h46l-38 -220h217l-8 -45h-217l-39 -217h-46z" />
    <glyph glyph-name="comma" unicode="," horiz-adv-x="275" 
d="M124.5 69q12.5 -14 12.5 -39q0 -44 -25 -80.5t-79 -62.5l-14 25q35 19 51.5 38.5t19.5 46.5q-19 1 -31.5 12.5t-12.5 29.5q0 20 11 32t33 12t34.5 -14z" />
    <glyph glyph-name="hyphen" unicode="-" horiz-adv-x="379" 
d="M57 277l8 47h270l-8 -47h-270z" />
    <glyph glyph-name="period" unicode="." horiz-adv-x="275" 
d="M65.5 8q-12.5 12 -12.5 32t12.5 32t32.5 12t32 -12t12 -32q0 -19 -12 -31.5t-32 -12.5t-32.5 12z" />
    <glyph glyph-name="slash" unicode="/" horiz-adv-x="638" 
d="M323 371l293 329h69l-317 -346l-316 -354h-69z" />
    <glyph glyph-name="zero" unicode="0" horiz-adv-x="594" 
d="M107 58.5q-55 68.5 -55 192.5q1 117 34.5 222.5t100 171t160.5 65.5q107 0 161.5 -69t54.5 -193q0 -117 -33.5 -222t-100 -170.5t-160.5 -65.5q-107 0 -162 68.5zM403.5 102.5q52.5 60.5 77.5 155t25 197.5q0 204 -163 204q-78 0 -130.5 -60.5t-78 -155.5t-25.5 -198
q0 -203 164 -203q78 0 130.5 60.5z" />
    <glyph glyph-name="one" unicode="1" horiz-adv-x="410" 
d="M364 700l-124 -700h-56l114 646q-43 -45 -90.5 -73.5t-110.5 -56.5l-14 55q75 24 129.5 54t100.5 75h51z" />
    <glyph glyph-name="two" unicode="2" horiz-adv-x="573" 
d="M112 50l394 -1l-9 -49h-475l9 50l226 164q84 61 134.5 105.5t80.5 93t30 102.5q0 70 -42.5 108t-107.5 38q-45 0 -86.5 -19t-69.5 -65t-28 -122q0 -11 2 -37h-64q-4 104 30 169.5t90 94t123 28.5q61 0 110 -22.5t77 -66t28 -104.5q0 -65 -37 -122t-96 -106.5t-166 -126.5
z" />
    <glyph glyph-name="three" unicode="3" horiz-adv-x="620" 
d="M507.5 302.5q39.5 -41.5 39.5 -105.5q0 -59 -31.5 -106t-88.5 -74t-132 -27q-107 0 -176 55t-76 152l63 13q4 -85 56 -129.5t138 -44.5q61 0 103.5 22t63.5 58.5t21 79.5q0 64 -44 102t-126 38h-60l7 48h62q92 0 145 35.5t53 106.5q0 67 -45.5 102.5t-116.5 35.5
q-146 0 -190 -156l-56 17q58 185 245 185q97 0 159.5 -47.5t62.5 -133.5q0 -77 -53 -119t-146 -52q83 -14 122.5 -55.5z" />
    <glyph glyph-name="four" unicode="4" 
d="M548 183h-100l-32 -183h-57l32 183h-386l8 46l444 471h83l-83 -470h99zM74 230h326l76 429z" />
    <glyph glyph-name="five" unicode="5" horiz-adv-x="594" 
d="M257 650q-28 -142 -93 -282q38 46 81 69t99 23q90 0 143 -54t53 -148q0 -76 -32.5 -137t-92.5 -96t-137 -35q-64 0 -114.5 25t-80.5 69t-34 99l57 13q4 -71 53.5 -115t122.5 -44q60 0 106 30t70.5 80.5t24.5 110.5q0 75 -41.5 114.5t-111.5 39.5q-62 0 -104.5 -27
t-75.5 -67l-50 15q80 184 115 367h379l-9 -50h-328z" />
    <glyph glyph-name="six" unicode="6" horiz-adv-x="594" 
d="M435.5 423.5q45.5 -23.5 71.5 -69t26 -108.5q0 -68 -30.5 -126.5t-89 -94t-137.5 -35.5q-110 0 -165.5 70.5t-55.5 196.5q0 108 37.5 213t109 172.5t166.5 67.5q70 0 126.5 -38.5t71.5 -119.5l-57 -16q-6 65 -48 94.5t-95 29.5q-75 0 -129 -52t-84.5 -132.5t-38.5 -167.5
q79 139 218 139q58 0 103.5 -23.5zM387.5 67.5q43.5 28.5 65 75t21.5 100.5q0 78 -44 116.5t-113 38.5q-68 0 -117 -36t-88 -103v-2q0 -107 42 -162.5t127 -55.5q63 0 106.5 28.5z" />
    <glyph glyph-name="seven" unicode="7" horiz-adv-x="505" 
d="M576 700l-7 -46q-123 -116 -197 -210t-119 -198.5t-72 -245.5h-70q31 134 78 239t124.5 205t200.5 207h-440l8 49h494z" />
    <glyph glyph-name="eight" unicode="8" horiz-adv-x="580" 
d="M521 203q0 -64 -32.5 -112t-89.5 -74.5t-128 -26.5q-64 0 -118.5 22t-87.5 65.5t-33 105.5q0 81 55.5 134t145.5 64q-115 37 -115 140q0 56 29.5 99t80.5 66.5t115 23.5q58 0 106.5 -20.5t77.5 -59.5t29 -93q0 -68 -45.5 -114t-121.5 -57q132 -39 132 -163zM220.5 432
q42.5 -34 110.5 -34q73 0 119.5 38.5t46.5 99.5q0 58 -42.5 92t-112.5 34q-77 0 -120.5 -40t-43.5 -98t42.5 -92zM373.5 60q42.5 21 66 58t23.5 82q0 68 -51 106t-129 38q-57 0 -100.5 -20.5t-67 -56.5t-23.5 -82q0 -71 53 -108.5t129 -37.5q57 0 99.5 21z" />
    <glyph glyph-name="nine" unicode="9" horiz-adv-x="594" 
d="M514 642q55 -70 55 -197q0 -108 -37.5 -213t-108.5 -172.5t-166 -67.5q-70 0 -127 38.5t-71 119.5l57 16q6 -65 48 -94.5t95 -29.5q74 0 128.5 52t85 132.5t38.5 167.5q-80 -139 -219 -139q-57 0 -102.5 23.5t-71.5 69t-26 108.5q0 68 30.5 126.5t89 94t137.5 35.5
q110 0 165 -70zM425 340q49 36 88 103v3q0 106 -42 162t-127 56q-63 0 -106.5 -28.5t-65 -75t-21.5 -100.5q0 -79 44 -117.5t113 -38.5q68 0 117 36z" />
    <glyph glyph-name="colon" unicode=":" horiz-adv-x="275" 
d="M65.5 8q-12.5 12 -12.5 32t12.5 32t32.5 12t32 -12t12 -32q0 -19 -12 -31.5t-32 -12.5t-32.5 12zM144.5 456q-12.5 12 -12.5 32t12.5 32t32.5 12t32 -12t12 -32q0 -19 -12 -31.5t-32 -12.5t-32.5 12z" />
    <glyph glyph-name="semicolon" unicode=";" horiz-adv-x="276" 
d="M144.5 456q-12.5 12 -12.5 32t12.5 32t32.5 12t32 -12t12 -32q0 -19 -12 -31.5t-32 -12.5t-32.5 12zM124.5 69q12.5 -14 12.5 -39q0 -44 -25 -80.5t-79 -62.5l-14 25q35 19 51.5 38.5t19.5 46.5q-19 1 -31.5 12.5t-12.5 29.5q0 20 11 32t33 12t34.5 -14z" />
    <glyph glyph-name="less" unicode="&#x3c;" horiz-adv-x="593" 
d="M514 464l-338 -138l289 -137l-8 -48l-335 169l7 41l395 169z" />
    <glyph glyph-name="equal" unicode="=" 
d="M92 456h483l-7 -45h-484zM57 256h483l-7 -45h-484z" />
    <glyph glyph-name="greater" unicode="&#x3e;" horiz-adv-x="593" 
d="M494 351l-7 -41l-395 -169l11 56l337 138l-289 137l8 48z" />
    <glyph glyph-name="question" unicode="?" horiz-adv-x="557" 
d="M250 263q6 42 34 69.5t81 61.5q38 24 61 43t39 45.5t16 61.5q0 52 -37 83.5t-97 31.5q-74 0 -118 -46t-44 -124q0 -9 2 -31h-60q-1 10 -1 28q0 105 60 164.5t162 59.5q57 0 101.5 -20.5t69 -57t24.5 -83.5q0 -45 -18 -77t-43.5 -53t-67.5 -47q-48 -29 -73 -52.5
t-31 -58.5l-2 -12h-60zM207.5 8.5q-12.5 12.5 -12.5 31.5q0 20 12.5 32t31.5 12q20 0 32 -12t12 -32q0 -19 -12 -31.5t-32 -12.5q-19 0 -31.5 12.5z" />
    <glyph glyph-name="at" unicode="@" horiz-adv-x="756" 
d="M520 211q-3 -16 -3 -31q0 -51 44 -51q38 0 66 35t42.5 87t14.5 101q0 76 -34 132t-94 85.5t-136 29.5q-103 0 -178.5 -52t-115 -137t-39.5 -181q0 -136 79 -203t210 -67q58 0 98.5 15t88.5 52l14 -46q-47 -31 -96.5 -46.5t-112.5 -15.5q-96 0 -168.5 36t-113.5 106.5
t-41 170.5q0 107 47 201t133 150.5t197 56.5q87 0 155 -35t106.5 -100.5t38.5 -154.5q0 -66 -21 -126t-61 -97.5t-94 -37.5q-40 0 -62 22t-24 59q-50 -80 -134 -80q-63 0 -96 42t-33 112q0 56 20.5 108t59.5 84.5t91 32.5q50 0 80.5 -29.5t43.5 -76.5l17 97h54zM414.5 152
q29.5 17 48.5 49l23 130q-9 40 -37.5 65.5t-69.5 25.5q-42 0 -71 -26t-43.5 -66.5t-14.5 -82.5q0 -54 24.5 -83t72.5 -29q38 0 67.5 17z" />
    <glyph glyph-name="A" unicode="A" horiz-adv-x="652" 
d="M503 151h-392l-85 -151h-63l398 700h84l150 -700h-60zM494 197l-96 460l-261 -460h357z" />
    <glyph glyph-name="B" unicode="B" horiz-adv-x="660" 
d="M559 303q42 -41 42 -107q0 -93 -69.5 -144.5t-188.5 -51.5h-297l124 700h268q90 0 139.5 -42t49.5 -113q0 -73 -50.5 -122t-139.5 -65q80 -14 122 -55zM221 651l-48 -271h188q93 0 149 41.5t56 112.5q0 53 -33.5 85t-104.5 32h-207zM491 90q50 41 50 113q0 62 -46 96.5
t-140 34.5h-190l-50 -285h236q90 0 140 41z" />
    <glyph glyph-name="C" unicode="C" horiz-adv-x="710" 
d="M196.5 27q-64.5 37 -100.5 106.5t-36 163.5q0 109 44.5 203.5t124.5 152t182 57.5q111 0 187 -64t93 -171l-61 -17q-13 89 -72.5 143.5t-149.5 54.5q-85 0 -150 -50.5t-100.5 -132.5t-35.5 -174q0 -117 60.5 -186t166.5 -69q89 0 153.5 52t99.5 139l58 -18
q-43 -103 -123.5 -165t-190.5 -62q-85 0 -149.5 37z" />
    <glyph glyph-name="D" unicode="D" horiz-adv-x="713" 
d="M599 619q84 -81 84 -226q0 -116 -56 -205.5t-157 -138.5t-232 -49h-191l123 700h186q159 0 243 -81zM439.5 92q87.5 43 135.5 121.5t48 179.5q0 120 -68.5 188.5t-199.5 69.5h-134l-105 -602h123q113 0 200.5 43z" />
    <glyph glyph-name="E" unicode="E" horiz-adv-x="623" 
d="M221 651l-45 -260h377l-9 -49h-377l-51 -293h402l-8 -49h-463l123 700h463l-8 -49h-404z" />
    <glyph glyph-name="F" unicode="F" horiz-adv-x="584" 
d="M221 651l-47 -267h357l-8 -49h-357l-59 -335h-60l123 700h457l-8 -49h-398z" />
    <glyph glyph-name="G" unicode="G" horiz-adv-x="728" 
d="M414 328h256l-58 -328h-46l16 126q-85 -136 -249 -136q-80 0 -142 37.5t-96.5 107.5t-34.5 164q0 108 44.5 202.5t125.5 151.5t185 57q97 0 169.5 -51t97.5 -141l-58 -22q-19 73 -75.5 116.5t-136.5 43.5q-86 0 -152 -50.5t-102 -132.5t-36 -173q0 -119 57 -187.5
t163 -68.5q100 0 172.5 61t90.5 173h-200z" />
    <glyph glyph-name="H" unicode="H" horiz-adv-x="712" 
d="M696 700l-123 -700h-60l61 347h-406l-61 -347h-60l123 700h60l-53 -304h406l53 304h60z" />
    <glyph glyph-name="I" unicode="I" horiz-adv-x="267" 
d="M180 700h60l-123 -700h-60z" />
    <glyph glyph-name="J" unicode="J" horiz-adv-x="372" 
d="M367 700l-84 -479q-21 -118 -82 -174.5t-165 -56.5q-36 0 -63 7l11 62q24 -14 64 -14q70 0 115 43.5t60 131.5l85 480h59z" />
    <glyph glyph-name="K" unicode="K" horiz-adv-x="672" 
d="M410 403l197 -403h-70l-173 361l-231 -210l-26 -151h-60l123 700h60l-84 -479l506 479h82z" />
    <glyph glyph-name="L" unicode="L" horiz-adv-x="582" 
d="M519 51l-9 -51h-463l123 700h60l-114 -649h403z" />
    <glyph glyph-name="M" unicode="M" horiz-adv-x="870" 
d="M853 700l-123 -700h-60l114 642l-368 -642h-60l-137 636l-113 -636h-60l124 700h98l133 -629l356 629h96z" />
    <glyph glyph-name="N" unicode="N" horiz-adv-x="743" 
d="M727 700l-123 -700h-78l-306 644l-114 -644h-59l123 700h81l305 -631l111 631h60z" />
    <glyph glyph-name="O" unicode="O" horiz-adv-x="725" 
d="M197 27q-66 37 -102 105t-36 158q0 112 44 208.5t123.5 154t180.5 57.5q86 0 151.5 -37t101.5 -105t36 -159q0 -112 -43.5 -208.5t-122.5 -153.5t-181 -57q-86 0 -152 37zM499.5 94q64.5 50 99 133t34.5 178q0 74 -27.5 131t-79 88.5t-121.5 31.5q-84 0 -148.5 -50.5
t-99.5 -133.5t-35 -178q0 -113 61 -181.5t168 -68.5q84 0 148.5 50z" />
    <glyph glyph-name="P" unicode="P" horiz-adv-x="628" 
d="M170 700h250q105 0 161 -50.5t56 -135.5q0 -70 -36 -120t-99 -75.5t-143 -25.5h-198l-53 -293h-61zM371 342q96 0 151 44t55 122q0 66 -41 104.5t-118 38.5h-196l-54 -309h203z" />
    <glyph glyph-name="Q" unicode="Q" horiz-adv-x="744" 
d="M649 193q-47 -99 -129 -153l113 -123l-50 -33l-108 132q-58 -26 -126 -26q-86 0 -152 37t-102 105t-36 158q0 112 44 208.5t123.5 154t180.5 57.5q86 0 151.5 -37t101.5 -105t36 -159q0 -117 -47 -216zM183 112.5q61 -68.5 168 -68.5q84 0 148.5 50t99 133t34.5 178
q0 74 -27.5 131t-79 88.5t-121.5 31.5q-84 0 -148.5 -50.5t-99.5 -133.5t-35 -178q0 -113 61 -181.5z" />
    <glyph glyph-name="R" unicode="R" horiz-adv-x="683" 
d="M582.5 371.5q-54.5 -55.5 -146.5 -71.5l153 -300h-77l-129 294q-8 -1 -24 -1h-198l-53 -293h-61l123 700h250q105 0 161 -50.5t56 -135.5q0 -87 -54.5 -142.5zM371 342q96 0 151 44t55 122q0 66 -41 104.5t-118 38.5h-196l-54 -309h203z" />
    <glyph glyph-name="S" unicode="S" horiz-adv-x="606" 
d="M122 44.5q-70 54.5 -83 160.5l61 14q10 -88 65 -132.5t147 -44.5q74 0 123.5 39.5t49.5 104.5q0 37 -22.5 62t-56 40.5t-91.5 35.5q-65 22 -104.5 41t-67 52.5t-27.5 84.5q0 62 29.5 109t81.5 73t117 26q101 0 161.5 -44.5t72.5 -133.5l-63 -13q-8 70 -53 104.5
t-122 34.5q-49 0 -85.5 -19.5t-56.5 -52.5t-20 -73q0 -37 22.5 -62.5t55.5 -40.5t91 -35q64 -21 104 -40t67.5 -52.5t27.5 -84.5q0 -63 -31 -110.5t-85 -72.5t-121 -25q-117 0 -187 54.5z" />
    <glyph glyph-name="T" unicode="T" horiz-adv-x="596" 
d="M635 651h-239l-114 -651h-60l114 651h-239l9 49h538z" />
    <glyph glyph-name="U" unicode="U" horiz-adv-x="695" 
d="M147 51.5q-67 61.5 -67 170.5q0 32 6 66l73 412h60l-73 -418q-5 -32 -5 -55q0 -85 51 -134t144 -49q83 0 139.5 50t74.5 151l80 455h61l-82 -460q-21 -122 -93.5 -186t-180.5 -64q-121 0 -188 61.5z" />
    <glyph glyph-name="V" unicode="V" horiz-adv-x="618" 
d="M689 700l-390 -700h-71l-144 700h64l124 -641l349 641h68z" />
    <glyph glyph-name="W" unicode="W" horiz-adv-x="922" 
d="M989 700l-290 -700h-91l-81 639l-304 -639h-91l-45 700h65l38 -644l301 644h94l74 -644l265 644h65z" />
    <glyph glyph-name="X" unicode="X" horiz-adv-x="588" 
d="M458 0l-154 317l-264 -317h-78l310 350l-181 350h70l152 -317l260 317h77l-304 -350l186 -350h-74z" />
    <glyph glyph-name="Y" unicode="Y" horiz-adv-x="608" 
d="M676 700l-335 -401l-52 -299h-62l52 298l-192 402h67l161 -363l291 363h70z" />
    <glyph glyph-name="Z" unicode="Z" horiz-adv-x="622" 
d="M646 656l-564 -607h464l-8 -49h-543l7 43l568 608h-456l8 49h531z" />
    <glyph glyph-name="bracketleft" unicode="[" horiz-adv-x="318" 
d="M232 736l-142 -807h131l-7 -44h-188l158 895h188l-9 -44h-131z" />
    <glyph glyph-name="backslash" unicode="\" horiz-adv-x="633" 
d="M494 0l-192 354l-195 346h62l177 -329l210 -371h-62z" />
    <glyph glyph-name="bracketright" unicode="]" horiz-adv-x="318" 
d="M110 -71l142 807h-131l7 44h188l-158 -895h-188l9 44h131z" />
    <glyph glyph-name="asciicircum" unicode="^" horiz-adv-x="452" 
d="M378 414l-82 239l-167 -239h-59l210 286h45l111 -286h-58z" />
    <glyph glyph-name="underscore" unicode="_" horiz-adv-x="498" 
d="M440 -66l-8 -43h-498l8 43h498z" />
    <glyph glyph-name="a" unicode="a" horiz-adv-x="581" 
d="M540 527l-92 -527h-57l23 125q-38 -64 -92.5 -99.5t-109.5 -35.5q-82 0 -124 57.5t-42 159.5q0 84 31 160t88 123t132 47q59 0 102 -30t65 -91l19 111h57zM338 78.5q52 38.5 86 108.5l30 172q-30 128 -144 128q-63 0 -109.5 -39.5t-70.5 -102.5t-24 -131q0 -83 32 -128.5
t98 -45.5q50 0 102 38.5z" />
    <glyph glyph-name="b" unicode="b" horiz-adv-x="581" 
d="M493 479.5q42 -57.5 42 -159.5q0 -84 -31 -160t-88 -123t-132 -47q-58 0 -101.5 30t-65.5 91l-19 -111h-57l122 700h57l-51 -294q38 63 91.5 97t108.5 34q82 0 124 -57.5zM380.5 79.5q46.5 39.5 70.5 103t24 131.5q0 82 -32 127.5t-98 45.5q-50 0 -102.5 -39.5
t-85.5 -110.5l-30 -168q32 -129 144 -129q63 0 109.5 39.5z" />
    <glyph glyph-name="c" unicode="c" horiz-adv-x="532" 
d="M103.5 55q-54.5 65 -54.5 171q0 82 32.5 153.5t93 114.5t138.5 43q79 0 131 -44.5t66 -120.5l-56 -13q-9 60 -46.5 94t-97.5 34q-64 0 -110 -37t-70 -96.5t-24 -126.5q0 -86 39.5 -136.5t112.5 -50.5q63 0 108.5 36.5t68.5 96.5l54 -13q-30 -76 -91.5 -123t-143.5 -47
q-96 0 -150.5 65z" />
    <glyph glyph-name="d" unicode="d" horiz-adv-x="581" 
d="M571 700l-122 -700h-57l25 129q-39 -66 -93.5 -102.5t-111.5 -36.5q-82 0 -124 57.5t-42 159.5q0 84 31 160t88 123t132 47q59 0 102.5 -30.5t64.5 -91.5l50 285h57zM338.5 79q52.5 39 86.5 110l29 168q-29 130 -144 130q-63 0 -109.5 -39.5t-70.5 -102.5t-24 -131
q0 -83 32 -128.5t98 -45.5q50 0 102.5 39z" />
    <glyph glyph-name="e" unicode="e" horiz-adv-x="542" 
d="M107 258q-2 -26 -2 -39q0 -87 38 -134t114 -47q61 0 101 30.5t64 88.5l53 -17q-32 -74 -87 -111.5t-131 -37.5q-103 0 -156 59.5t-53 166.5q0 85 31 158t90 117t140 44q93 0 142 -55t49 -147q0 -33 -8 -76h-385zM181.5 438q-49.5 -53 -67.5 -135h326q3 21 3 39
q0 70 -36 109.5t-101 39.5q-75 0 -124.5 -53z" />
    <glyph glyph-name="f" unicode="f" horiz-adv-x="313" 
d="M435 710l-25 -50q-21 18 -62 18q-50 0 -86.5 -32t-48.5 -101l-3 -18h138l-8 -46h-138l-85 -481h-57l85 481h-85l8 46h85l3 18q15 87 71.5 133t136.5 46q40 0 71 -14z" />
    <glyph glyph-name="g" unicode="g" horiz-adv-x="577" 
d="M538 527l-85 -479q-17 -101 -79.5 -159.5t-165.5 -58.5q-84 0 -137.5 39t-64.5 106l54 15q8 -53 47.5 -86t103.5 -33q76 0 123 46.5t61 125.5l22 125q-39 -65 -92.5 -99.5t-113.5 -34.5q-76 0 -118.5 52.5t-42.5 139.5q0 76 29 147.5t86 117.5t136 46q57 0 98 -29.5
t62 -90.5l20 110h57zM453 375q-35 112 -139 112q-67 0 -113 -38.5t-68.5 -97.5t-22.5 -118q0 -68 33.5 -108.5t91.5 -40.5q53 0 106 37.5t87 109.5z" />
    <glyph glyph-name="h" unicode="h" horiz-adv-x="570" 
d="M480.5 502q31.5 -35 31.5 -101q0 -31 -5 -57l-61 -344h-57l61 343q4 26 4 42q0 45 -20.5 73.5t-68.5 28.5q-60 0 -113.5 -51t-101.5 -126l-53 -310h-57l123 700h57l-63 -336q48 76 108.5 124.5t125.5 48.5q58 0 89.5 -35z" />
    <glyph glyph-name="i" unicode="i" horiz-adv-x="229" 
d="M132 527h58l-93 -527h-57zM163 657.5q-12 12.5 -12 31.5q0 20 12 32t32 12q19 0 31.5 -12t12.5 -32q0 -19 -12.5 -31.5t-31.5 -12.5q-20 0 -32 12.5z" />
    <glyph glyph-name="j" unicode="j" horiz-adv-x="229" 
d="M190 527l-92 -517q-16 -89 -62 -134.5t-118 -45.5q-13 0 -19 1l-1 50q15 -5 33 -5q44 0 70.5 29t38.5 95l92 527h58zM163 657.5q-12 12.5 -12 31.5q0 20 12 32t32 12q19 0 31.5 -12t12.5 -32q0 -19 -12.5 -31.5t-31.5 -12.5q-20 0 -32 12.5z" />
    <glyph glyph-name="k" unicode="k" horiz-adv-x="550" 
d="M291 306l192 -306h-63l-168 275l-124 -97l-31 -178h-57l123 700h57l-83 -470l355 297h79z" />
    <glyph glyph-name="l" unicode="l" horiz-adv-x="255" 
d="M52 60q0 7 2 21l109 619h58l-107 -606q-2 -14 -2 -19q0 -34 36 -34q25 0 42 14v-50q-30 -13 -57 -13q-81 0 -81 68z" />
    <glyph glyph-name="m" unicode="m" horiz-adv-x="919" 
d="M829.5 502q31.5 -35 31.5 -101q0 -31 -5 -57l-61 -344h-57l61 343q4 26 4 42q0 45 -20.5 73.5t-68.5 28.5q-101 0 -212 -172l-56 -315h-57l61 343q4 26 4 42q0 45 -20.5 73.5t-68.5 28.5q-60 0 -113.5 -51t-101.5 -126l-53 -310h-57l92 527h58l-32 -161q47 75 107.5 123
t125.5 48q58 0 89.5 -35.5t31.5 -101.5q0 -18 -1 -28q48 73 107 119t122 46q58 0 89.5 -35z" />
    <glyph glyph-name="n" unicode="n" horiz-adv-x="570" 
d="M480.5 502q31.5 -35 31.5 -101q0 -31 -5 -57l-61 -344h-57l61 343q4 26 4 42q0 45 -20.5 73.5t-68.5 28.5q-60 0 -113.5 -51t-101.5 -126l-53 -310h-57l92 527h58l-32 -161q47 75 107.5 123t125.5 48q58 0 89.5 -35z" />
    <glyph glyph-name="o" unicode="o" horiz-adv-x="568" 
d="M465 472.5q55 -64.5 55 -171.5q0 -81 -33 -152.5t-93.5 -115t-139.5 -43.5q-96 0 -150.5 65t-54.5 171q0 82 32.5 153.5t93 114.5t138.5 43q97 0 152 -64.5zM368.5 78q46.5 38 70.5 98t24 126q0 85 -40 135t-113 50q-64 0 -110 -37t-70 -96.5t-24 -126.5
q0 -86 39.5 -136.5t112.5 -50.5q64 0 110.5 38z" />
    <glyph glyph-name="p" unicode="p" horiz-adv-x="581" 
d="M493 479.5q42 -57.5 42 -159.5q0 -84 -31 -160t-88 -123t-132 -47q-58 0 -101.5 30t-65.5 91l-47 -271h-57l119 687h58l-21 -121q38 62 91.5 96.5t108.5 34.5q82 0 124 -57.5zM380.5 79.5q46.5 39.5 70.5 103t24 131.5q0 82 -32 127.5t-98 45.5q-50 0 -102.5 -39
t-85.5 -110l-30 -169q32 -129 144 -129q63 0 109.5 39.5z" />
    <glyph glyph-name="q" unicode="q" horiz-adv-x="581" 
d="M540 527l-122 -700h-57l51 295q-38 -63 -91.5 -97.5t-108.5 -34.5q-82 0 -124 57.5t-42 159.5q0 84 31 160t88 123t132 47q59 0 102 -30t65 -91l19 111h57zM338 78.5q52 38.5 86 108.5l30 172q-30 128 -144 128q-63 0 -109.5 -39.5t-70.5 -102.5t-24 -131
q0 -83 32 -128.5t98 -45.5q50 0 102 38.5z" />
    <glyph glyph-name="r" unicode="r" horiz-adv-x="356" 
d="M250.5 495q49.5 38 128.5 38l-11 -58q-18 2 -25 2q-63 0 -107.5 -44t-87.5 -143l-51 -290h-57l92 527h58l-29 -159q40 89 89.5 127z" />
    <glyph glyph-name="s" unicode="s" horiz-adv-x="484" 
d="M90 32.5q-56 42.5 -67 115.5l58 17q7 -63 49 -96t107 -33q59 0 93 27.5t34 73.5q0 29 -17 48t-42 29.5t-69 23.5q-52 16 -83.5 30t-53.5 41.5t-22 72.5q0 71 49 113t131 42q75 0 125 -33.5t60 -99.5l-56 -14q-5 50 -40.5 75.5t-91.5 25.5q-55 0 -88 -27t-33 -73
q0 -31 17.5 -50.5t43.5 -30.5t70 -24q50 -15 81 -28.5t52.5 -40.5t21.5 -70q0 -71 -51 -114t-135 -43q-87 0 -143 42.5z" />
    <glyph glyph-name="t" unicode="t" horiz-adv-x="335" 
d="M141 140q-4 -20 -4 -40q0 -33 14.5 -48.5t46.5 -15.5q36 0 64 17l6 -48q-35 -15 -75 -15q-113 0 -113 104q0 23 4 46l61 341h-88l8 46h89l42 173h44l-31 -173h136l-8 -46h-135z" />
    <glyph glyph-name="u" unicode="u" horiz-adv-x="570" 
d="M530 527l-92 -527h-58l32 161q-47 -75 -107.5 -123t-125.5 -48q-58 0 -89.5 35.5t-31.5 101.5q0 31 5 57l61 343h57l-61 -343q-4 -26 -4 -42q0 -45 20.5 -73.5t68.5 -28.5q60 0 113.5 51t101.5 126l53 310h57z" />
    <glyph glyph-name="v" unicode="v" horiz-adv-x="484" 
d="M518 527l-293 -527h-58l-107 527h65l80 -473l248 473h65z" />
    <glyph glyph-name="w" unicode="w" horiz-adv-x="736" 
d="M765 527l-236 -527h-67l-57 460l-218 -460h-72l-50 527h59l36 -477l219 477h73l55 -476l200 476h58z" />
    <glyph glyph-name="x" unicode="x" horiz-adv-x="455" 
d="M191 265l-129 262h64l106 -231l184 231h69l-221 -262l131 -265h-63l-108 232l-188 -232h-68z" />
    <glyph glyph-name="y" unicode="y" horiz-adv-x="569" 
d="M529 527l-84 -479q-19 -104 -74 -161t-164 -57q-85 0 -137 39t-60 110l50 15q5 -59 45.5 -91t100.5 -32q81 0 124 44.5t57 127.5l24 138q-47 -71 -105.5 -116t-121.5 -45q-58 0 -89.5 35.5t-31.5 101.5q0 31 5 57l56 313h57l-56 -313q-4 -26 -4 -42q0 -45 20.5 -73.5
t68.5 -28.5q103 0 212 172l30 172l20 113h57z" />
    <glyph glyph-name="z" unicode="z" horiz-adv-x="495" 
d="M481 480l-406 -432h338l-9 -48h-405l7 42l412 437h-328l9 48h389z" />
    <glyph glyph-name="braceleft" unicode="{" horiz-adv-x="354" 
d="M418 780l-9 -44h-28q-38 0 -66.5 -25t-36.5 -70l-26 -145q-14 -77 -43.5 -114.5t-79.5 -48.5q35 -9 53 -33.5t18 -69.5q0 -26 -6 -61l-25 -145q-2 -16 -2 -23q0 -35 20 -53.5t53 -18.5h28l-8 -44h-28q-57 0 -90 27t-33 79q0 15 3 33l26 145q5 30 5 47q0 51 -25.5 70
t-67.5 19h-7l10 55h7q51 0 86 28t50 108l26 145q12 68 57.5 103.5t110.5 35.5h28z" />
    <glyph glyph-name="bar" unicode="|" horiz-adv-x="302" 
d="M317 780l-158 -895h-56l158 895h56z" />
    <glyph glyph-name="braceright" unicode="}" horiz-adv-x="354" 
d="M336 360l-10 -55h-7q-51 0 -86.5 -28t-49.5 -108l-26 -145q-12 -68 -58 -103.5t-111 -35.5h-28l9 44h28q38 0 66.5 24.5t36.5 70.5l26 145q14 77 44 114.5t79 48.5q-35 9 -53 33.5t-18 69.5q0 27 6 61l26 145q2 16 2 22q0 35 -20 54t-53 19h-28l7 44h28q57 0 90 -27
t33 -79q0 -15 -3 -33l-26 -145q-5 -30 -5 -47q0 -51 25.5 -70t68.5 -19h7z" />
    <glyph glyph-name="asciitilde" unicode="~" 
d="M94 276q14 43 44 71t77 28q26 0 49.5 -8t54.5 -23q29 -13 46.5 -19.5t36.5 -6.5q33 0 53.5 16.5t29.5 40.5l42 -9q-14 -44 -44 -72t-77 -28q-26 0 -50 8.5t-55 23.5q-29 13 -46.5 19.5t-35.5 6.5q-33 0 -53.5 -16.5t-28.5 -40.5z" />
    <glyph glyph-name="exclamdown" unicode="&#xa1;" horiz-adv-x="300" 
d="M235 602q12 -12 12 -32q0 -19 -12 -31.5t-32 -12.5q-19 0 -31.5 12.5t-12.5 31.5q0 20 12.5 32t31.5 12q20 0 32 -12zM127 -90h-75l89 451h53z" />
    <glyph glyph-name="cent" unicode="&#xa2;" 
d="M387.5 123q45.5 36 68.5 96l54 -12q-30 -77 -91 -123.5t-144 -46.5h-7l-19 -116h-55l23 123q-70 19 -108.5 79.5t-38.5 149.5q0 78 30 147t85 113t128 50l20 117h54l-22 -118q67 -8 110 -51.5t56 -111.5l-56 -14q-8 54 -39 87t-80 40l-2 -10h-1l-77 -435h3q63 0 108.5 36
zM153 157.5q26 -46.5 74 -62.5l76 431h1l1 6q-56 -8 -96 -45.5t-61 -94t-21 -118.5q0 -70 26 -116.5z" />
    <glyph glyph-name="sterling" unicode="&#xa3;" 
d="M246 615q-49 -43 -49 -114q0 -31 10 -59t31 -69q4 -9 12.5 -26t13.5 -30h224l-8 -41h-204q3 -13 3 -28q0 -63 -48 -115t-116 -87h393l-9 -46h-480l9 52q91 37 141.5 83.5t50.5 113.5q0 9 -2 27h-139l7 41h120q-7 17 -25 49q-21 39 -32 67t-11 65q0 63 29.5 111t82.5 74.5
t123 26.5q56 0 104 -21.5t79 -61.5l-44 -35q-23 33 -59 49.5t-79 16.5q-79 0 -128 -43z" />
    <glyph glyph-name="yen" unicode="&#xa5;" 
d="M384 356h148l-7 -42h-176l-12 -15l-12 -70h184l-6 -42h-185l-33 -187h-62l33 187h-189l6 42h190l12 69l-8 16h-178l7 42h151l-164 344h67l161 -363l291 363h69z" />
    <glyph glyph-name="brokenbar" unicode="&#xa6;" horiz-adv-x="303" 
d="M318 780l-61 -341h-56l61 341h56zM220 226l-60 -341h-56l60 341h56z" />
    <glyph glyph-name="section" unicode="&#xa7;" 
d="M252.5 525.5q17.5 -20.5 43.5 -36t72 -38.5q51 -24 83.5 -44t55 -49.5t22.5 -68.5q0 -53 -37.5 -89.5t-100.5 -47.5q52 -44 52 -99q0 -66 -49.5 -106t-131.5 -40q-69 0 -117.5 31.5t-58.5 96.5l48 10q9 -50 44.5 -72t83.5 -22q53 0 86 25.5t33 66.5q0 38 -33 63.5
t-99 57.5q-53 26 -85 45.5t-54.5 49t-22.5 68.5q0 52 40 88t100 47q-54 44 -54 101q0 66 49.5 106.5t131.5 40.5q67 0 116.5 -31t59.5 -97l-48 -11q-9 50 -44.5 72.5t-83.5 22.5q-53 0 -86 -26t-33 -67q0 -27 17.5 -47.5zM441.5 218.5q24.5 27.5 24.5 58.5q0 27 -18 48
t-43.5 36.5t-72.5 38.5q-60 32 -68 36q-64 -11 -89 -38.5t-25 -58.5q0 -27 18 -48.5t44 -37.5t72 -38q54 -27 71 -37q62 13 86.5 40.5z" />
    <glyph glyph-name="copyright" unicode="&#xa9;" horiz-adv-x="798" 
d="M230 40.5q-82 46.5 -128 128.5t-46 183t46.5 183t128.5 128.5t185 46.5q102 0 184 -46.5t128 -127.5t46 -182q0 -102 -46.5 -184t-128.5 -129t-185 -47q-102 0 -184 46.5zM578 72.5q73 42.5 114.5 116.5t41.5 165q0 90 -41.5 163t-114 115t-162.5 42t-163 -42
t-114.5 -116t-41.5 -164t41.5 -164t113.5 -116t162 -42q91 0 164 42.5zM293.5 209.5q-48.5 53.5 -48.5 140.5q0 88 48.5 141.5t127.5 53.5q60 0 102 -32t58 -92l-36 -8q-13 47 -45 72.5t-79 25.5q-62 0 -100 -44.5t-38 -116.5t38 -115.5t100 -43.5q47 0 79 25.5t45 72.5
l36 -9q-17 -59 -58.5 -91.5t-101.5 -32.5q-79 0 -127.5 53.5z" />
    <glyph glyph-name="ordfeminine" unicode="&#xaa;" horiz-adv-x="461" 
d="M472 700l-69 -402h-57l14 83q-32 -42 -73 -66.5t-83 -24.5q-66 0 -100 44.5t-34 122.5q0 66 24.5 124.5t70 93.5t105.5 35q47 0 81 -23.5t51 -68.5l14 82h56zM304 361q37 25 65 70l25 140q-26 94 -111 94q-49 0 -84 -29t-53 -75t-18 -95q0 -61 25 -95.5t77 -34.5
q37 0 74 25z" />
    <glyph glyph-name="guillemotleft" unicode="&#xab;" horiz-adv-x="462" 
d="M221 471h54q-44 -92 -175 -180q100 -89 111 -180h-54q-10 85 -102 172l2 16q123 87 164 172zM381 471h54q-44 -92 -175 -180q100 -89 111 -180h-54q-10 85 -102 172l2 16q123 87 164 172z" />
    <glyph glyph-name="registered" unicode="&#xae;" horiz-adv-x="543" 
d="M424 680q51 -30 80.5 -81t29.5 -112t-29.5 -112t-80.5 -80t-112 -29t-112.5 29t-81.5 79.5t-30 112.5q0 61 30 112t81.5 81t112.5 30t112 -30zM410.5 316.5q44.5 25.5 70 70.5t25.5 101t-25.5 101t-70 70.5t-99.5 25.5t-99.5 -26t-69.5 -71t-25 -101t25.5 -101t70 -70
t99.5 -25q54 0 98.5 25.5zM389 443l21 -63h-29l-17 60q-7 21 -23 29t-47 8h-37v-97h-28v220h108q31 0 48.5 -16.5t17.5 -39.5q0 -21 -15 -36.5t-40 -21.5q29 -10 41 -43zM330 501q20 0 32.5 11t12.5 29q0 16 -10.5 25.5t-27.5 9.5h-80v-75h73z" />
    <glyph glyph-name="degree" unicode="&#xb0;" horiz-adv-x="415" 
d="M181 438q-36 20 -56.5 56t-20.5 80q0 43 20.5 78t57 55t81.5 20q44 0 80 -20t56 -55t20 -78q0 -44 -20 -80t-56 -56t-81 -20t-81 20zM338.5 491.5q29.5 31.5 29.5 82.5q0 49 -29.5 80t-76.5 31q-46 0 -75.5 -31t-29.5 -80q0 -51 29.5 -82.5t76.5 -31.5q46 0 75.5 31.5z
" />
    <glyph glyph-name="plusminus" unicode="&#xb1;" 
d="M301 393h-182l7 45h183l27 153h46l-27 -153h180l-7 -45h-180l-27 -151h-47zM79 173h410l-8 -45h-409z" />
    <glyph glyph-name="uni00B2" unicode="&#xb2;" horiz-adv-x="378" 
d="M129 399h250l-8 -43h-318l6 36l150 106q82 58 118 97t36 85q0 40 -26.5 63.5t-68.5 23.5q-53 0 -84.5 -36.5t-27.5 -107.5h-52q0 92 46 139t122 47q66 0 105 -35t39 -92q0 -41 -21.5 -75.5t-62 -67t-109.5 -77.5z" />
    <glyph glyph-name="uni00B3" unicode="&#xb3;" horiz-adv-x="407" 
d="M385 548.5q27 -27.5 27 -69.5q0 -58 -47.5 -93.5t-121.5 -35.5q-75 0 -121 36t-51 94l52 11q3 -48 37.5 -73t84.5 -25q51 0 82 25.5t31 65.5q0 36 -27.5 58.5t-77.5 22.5h-34l7 40h49q49 0 78 22t29 61q0 36 -27 57.5t-70 21.5q-42 0 -73.5 -23.5t-42.5 -62.5l-49 14
q16 53 58 84t107 31q67 0 108.5 -32t41.5 -83q0 -48 -33.5 -77t-90.5 -34q47 -8 74 -35.5z" />
    <glyph glyph-name="paragraph" unicode="&#xb6;" 
d="M265 312q-83 0 -131.5 43t-48.5 117q0 68 33.5 120t90 80.5t124.5 28.5h242l-123 -701h-53l115 654h-103l-115 -654h-53l55 312h-33z" />
    <glyph glyph-name="periodcentered" unicode="&#xb7;" horiz-adv-x="275" 
d="M112.5 277q-12.5 12 -12.5 32t12.5 32t32.5 12t32 -12t12 -32q0 -19 -12 -31.5t-32 -12.5t-32.5 12z" />
    <glyph glyph-name="uni00B9" unicode="&#xb9;" horiz-adv-x="267" 
d="M285 800l-79 -448h-53l72 405q-34 -51 -120 -84l-13 43q56 19 89.5 38t60.5 46h43z" />
    <glyph glyph-name="ordmasculine" unicode="&#xba;" horiz-adv-x="457" 
d="M120.5 341q-48.5 51 -48.5 135q0 65 27.5 118.5t76.5 84.5t110 31q86 0 134.5 -50t48.5 -130q0 -67 -27.5 -122t-76.5 -86.5t-110 -31.5q-86 0 -134.5 51zM339.5 363q35.5 27 54.5 72t19 98q-1 60 -35 96t-94 36q-47 0 -82.5 -26.5t-54 -69.5t-18.5 -92
q0 -66 33.5 -103.5t94.5 -37.5q47 0 82.5 27z" />
    <glyph glyph-name="guillemotright" unicode="&#xbb;" horiz-adv-x="462" 
d="M91 111h-54q44 92 175 180q-100 89 -111 180h54q10 -85 102 -172l-3 -16q-121 -86 -163 -172zM251 111h-54q44 92 175 180q-100 89 -111 180h54q10 -85 102 -172l-3 -16q-121 -86 -163 -172z" />
    <glyph glyph-name="onequarter" unicode="&#xbc;" horiz-adv-x="815" 
d="M267 700l-79 -448h-53l72 405q-34 -51 -120 -84l-13 43q56 19 89.5 38t60.5 46h43zM367 350l276 350h55l-300 -368l-260 -332h-56zM751 116h-67l-20 -116h-52l20 116h-247l7 34l282 298h69l-51 -292h67zM640 156l45 256l-238 -256h193z" />
    <glyph glyph-name="onehalf" unicode="&#xbd;" horiz-adv-x="852" 
d="M267 700l-79 -448h-53l72 405q-34 -51 -120 -84l-13 43q56 19 89.5 38t60.5 46h43zM367 350l276 350h55l-300 -368l-260 -332h-56zM540 43h250l-8 -43h-318l6 36l150 106q82 58 118 97t36 85q0 40 -26.5 63.5t-68.5 23.5q-53 0 -84.5 -36.5t-27.5 -107.5h-52q0 92 46 139
t122 47q66 0 105 -35t39 -92q0 -41 -21.5 -75.5t-62 -67t-109.5 -77.5z" />
    <glyph glyph-name="threequarters" unicode="&#xbe;" horiz-adv-x="946" 
d="M367 448.5q27 -27.5 27 -69.5q0 -58 -47.5 -93.5t-121.5 -35.5q-75 0 -121 36t-51 94l52 11q3 -48 37.5 -73t84.5 -25q51 0 82 25.5t31 65.5q0 36 -27.5 58.5t-77.5 22.5h-34l7 40h49q49 0 78 22t29 61q0 36 -27 57.5t-70 21.5q-42 0 -73.5 -23.5t-42.5 -62.5l-49 14
q16 53 58 84t107 31q67 0 108.5 -32t41.5 -83q0 -48 -33.5 -77t-90.5 -34q47 -8 74 -35.5zM497 350l276 350h55l-300 -368l-260 -332h-56zM882 116h-67l-20 -116h-52l20 116h-247l7 34l282 298h69l-51 -292h67zM771 156l45 256l-238 -256h193z" />
    <glyph glyph-name="questiondown" unicode="&#xbf;" horiz-adv-x="557" 
d="M365.5 607q12.5 -12 12.5 -32t-12.5 -32t-32.5 -12q-19 0 -31.5 12.5t-12.5 31.5q0 20 12.5 32t31.5 12q20 0 32.5 -12zM322 352q-6 -42 -34 -69.5t-81 -61.5q-38 -24 -61 -43t-39 -45.5t-16 -61.5q0 -52 37 -83.5t97 -31.5q74 0 118 46t44 124q0 9 -2 31h61q1 -9 1 -26
q0 -106 -60 -166t-163 -60q-57 0 -101.5 20.5t-69 57t-24.5 83.5q0 45 18 77t43.5 53t67.5 47q48 29 73 52.5t31 58.5l2 12h60z" />
    <glyph glyph-name="Agrave" unicode="&#xc0;" horiz-adv-x="652" 
d="M503 151h-392l-85 -151h-63l398 700h84l150 -700h-60zM494 197l-96 460l-261 -460h357zM410 772l-155 160h89l107 -160h-41z" />
    <glyph glyph-name="Aacute" unicode="&#xc1;" horiz-adv-x="652" 
d="M503 151h-392l-85 -151h-63l398 700h84l150 -700h-60zM494 197l-96 460l-261 -460h357zM503 932h89l-155 -160h-40z" />
    <glyph glyph-name="Acircumflex" unicode="&#xc2;" horiz-adv-x="652" 
d="M503 151h-392l-85 -151h-63l398 700h84l150 -700h-60zM494 197l-96 460l-261 -460h357zM518 772l-76 123l-128 -123h-41l138 160h70l78 -160h-41z" />
    <glyph glyph-name="Atilde" unicode="&#xc3;" horiz-adv-x="652" 
d="M503 151h-392l-85 -151h-63l398 700h84l150 -700h-60zM494 197l-96 460l-261 -460h357zM449 827q-12 6 -26 18q-12 10 -20.5 14.5t-19.5 4.5q-36 0 -46 -41h-50q9 43 36 64.5t62 21.5q19 0 31 -6t26 -18q10 -9 19 -14t21 -5q35 0 46 41h48q-9 -43 -34.5 -64.5
t-61.5 -21.5q-19 0 -31 6z" />
    <glyph glyph-name="Adieresis" unicode="&#xc4;" horiz-adv-x="652" 
d="M503 151h-392l-85 -151h-63l398 700h84l150 -700h-60zM494 197l-96 460l-261 -460h357zM307.5 821q-12.5 12 -12.5 32t12.5 32t32.5 12q19 0 31.5 -12t12.5 -32q0 -19 -12.5 -31.5t-31.5 -12.5q-20 0 -32.5 12zM485.5 821q-12.5 12 -12.5 32t12.5 32t32.5 12
q19 0 31.5 -12t12.5 -32q0 -19 -12.5 -31.5t-31.5 -12.5q-20 0 -32.5 12z" />
    <glyph glyph-name="Aring" unicode="&#xc5;" horiz-adv-x="652" 
d="M503 151h-392l-85 -151h-63l398 700h84l150 -700h-60zM494 197l-96 460l-261 -460h357zM368.5 801.5q-26.5 24.5 -26.5 60.5q0 37 26.5 61.5t63.5 24.5t63 -24.5t26 -61.5q0 -36 -26 -60.5t-63 -24.5t-63.5 24.5zM467.5 826q14.5 14 14.5 36t-14.5 36t-35.5 14t-35.5 -14
t-14.5 -36t14.5 -36t35.5 -14t35.5 14z" />
    <glyph glyph-name="AE" unicode="&#xc6;" horiz-adv-x="1027" 
d="M625 651l-45 -260h377l-9 -49h-377l-51 -293h402l-9 -49h-462l27 151h-323l-123 -151h-69l573 700h500l-8 -49h-403zM486 197l80 457l-373 -457h293z" />
    <glyph glyph-name="Ccedilla" unicode="&#xc7;" horiz-adv-x="710" 
d="M502.5 96q64.5 52 99.5 139l58 -18q-43 -103 -123.5 -165t-190.5 -62q-14 0 -21 1l-29 -65h7q36 -1 58 -22.5t22 -54.5q0 -41 -27.5 -66t-73.5 -25q-42 0 -70 24t-32 60l47 10q0 -24 15 -38.5t39 -14.5q25 0 40 13t15 34q0 22 -15 34.5t-40 12.5h-26l-8 26l42 76
q-105 18 -167 97t-62 205q0 109 44.5 203.5t124.5 152t182 57.5q111 0 187 -64t93 -171l-61 -17q-13 89 -72.5 143.5t-149.5 54.5q-85 0 -150 -50.5t-100.5 -132.5t-35.5 -174q0 -117 60.5 -186t166.5 -69q89 0 153.5 52z" />
    <glyph glyph-name="Egrave" unicode="&#xc8;" horiz-adv-x="623" 
d="M221 651l-45 -260h377l-9 -49h-377l-51 -293h402l-8 -49h-463l123 700h463l-8 -49h-404zM395 772l-155 160h89l107 -160h-41z" />
    <glyph glyph-name="Eacute" unicode="&#xc9;" horiz-adv-x="623" 
d="M221 651l-45 -260h377l-9 -49h-377l-51 -293h402l-8 -49h-463l123 700h463l-8 -49h-404zM488 932h89l-155 -160h-40z" />
    <glyph glyph-name="Ecircumflex" unicode="&#xca;" horiz-adv-x="623" 
d="M221 651l-45 -260h377l-9 -49h-377l-51 -293h402l-8 -49h-463l123 700h463l-8 -49h-404zM503 772l-76 123l-128 -123h-41l138 160h70l78 -160h-41z" />
    <glyph glyph-name="Edieresis" unicode="&#xcb;" horiz-adv-x="623" 
d="M221 651l-45 -260h377l-9 -49h-377l-51 -293h402l-8 -49h-463l123 700h463l-8 -49h-404zM292.5 821q-12.5 12 -12.5 32t12.5 32t32.5 12q19 0 31.5 -12t12.5 -32q0 -19 -12.5 -31.5t-31.5 -12.5q-20 0 -32.5 12zM470.5 821q-12.5 12 -12.5 32t12.5 32t32.5 12
q19 0 31.5 -12t12.5 -32q0 -19 -12.5 -31.5t-31.5 -12.5q-20 0 -32.5 12z" />
    <glyph glyph-name="Igrave" unicode="&#xcc;" horiz-adv-x="267" 
d="M180 700h60l-123 -700h-60zM216 772l-155 160h89l107 -160h-41z" />
    <glyph glyph-name="Iacute" unicode="&#xcd;" horiz-adv-x="267" 
d="M180 700h60l-123 -700h-60zM309 932h89l-155 -160h-40z" />
    <glyph glyph-name="Icircumflex" unicode="&#xce;" horiz-adv-x="267" 
d="M180 700h60l-123 -700h-60zM324 772l-76 123l-128 -123h-41l138 160h70l78 -160h-41z" />
    <glyph glyph-name="Idieresis" unicode="&#xcf;" horiz-adv-x="267" 
d="M180 700h60l-123 -700h-60zM113.5 821q-12.5 12 -12.5 32t12.5 32t32.5 12q19 0 31.5 -12t12.5 -32q0 -19 -12.5 -31.5t-31.5 -12.5q-20 0 -32.5 12zM291.5 821q-12.5 12 -12.5 32t12.5 32t32.5 12q19 0 31.5 -12t12.5 -32q0 -19 -12.5 -31.5t-31.5 -12.5q-20 0 -32.5 12
z" />
    <glyph glyph-name="Eth" unicode="&#xd0;" horiz-adv-x="713" 
d="M599 619q84 -81 84 -226q0 -116 -56 -205.5t-157 -138.5t-232 -49h-191l58 329h-72l9 50h72l56 321h186q159 0 243 -81zM439.5 92q87.5 43 135.5 121.5t48 179.5q0 120 -68.5 188.5t-199.5 69.5h-134l-47 -272h223l-9 -50h-223l-49 -280h123q113 0 200.5 43z" />
    <glyph glyph-name="Ntilde" unicode="&#xd1;" horiz-adv-x="743" 
d="M727 700l-123 -700h-78l-306 644l-114 -644h-59l123 700h81l305 -631l111 631h60zM493 827q-12 6 -26 18q-12 10 -20.5 14.5t-19.5 4.5q-36 0 -46 -41h-50q9 43 36 64.5t62 21.5q19 0 31 -6t26 -18q10 -9 19 -14t21 -5q35 0 46 41h48q-9 -43 -34.5 -64.5t-61.5 -21.5
q-19 0 -31 6z" />
    <glyph glyph-name="Ograve" unicode="&#xd2;" horiz-adv-x="725" 
d="M197 27q-66 37 -102 105t-36 158q0 112 44 208.5t123.5 154t180.5 57.5q86 0 151.5 -37t101.5 -105t36 -159q0 -112 -43.5 -208.5t-122.5 -153.5t-181 -57q-86 0 -152 37zM499.5 94q64.5 50 99 133t34.5 178q0 74 -27.5 131t-79 88.5t-121.5 31.5q-84 0 -148.5 -50.5
t-99.5 -133.5t-35 -178q0 -113 61 -181.5t168 -68.5q84 0 148.5 50zM446 772l-155 160h89l107 -160h-41z" />
    <glyph glyph-name="Oacute" unicode="&#xd3;" horiz-adv-x="725" 
d="M197 27q-66 37 -102 105t-36 158q0 112 44 208.5t123.5 154t180.5 57.5q86 0 151.5 -37t101.5 -105t36 -159q0 -112 -43.5 -208.5t-122.5 -153.5t-181 -57q-86 0 -152 37zM499.5 94q64.5 50 99 133t34.5 178q0 74 -27.5 131t-79 88.5t-121.5 31.5q-84 0 -148.5 -50.5
t-99.5 -133.5t-35 -178q0 -113 61 -181.5t168 -68.5q84 0 148.5 50zM539 932h89l-155 -160h-40z" />
    <glyph glyph-name="Ocircumflex" unicode="&#xd4;" horiz-adv-x="725" 
d="M197 27q-66 37 -102 105t-36 158q0 112 44 208.5t123.5 154t180.5 57.5q86 0 151.5 -37t101.5 -105t36 -159q0 -112 -43.5 -208.5t-122.5 -153.5t-181 -57q-86 0 -152 37zM499.5 94q64.5 50 99 133t34.5 178q0 74 -27.5 131t-79 88.5t-121.5 31.5q-84 0 -148.5 -50.5
t-99.5 -133.5t-35 -178q0 -113 61 -181.5t168 -68.5q84 0 148.5 50zM554 772l-76 123l-128 -123h-41l138 160h70l78 -160h-41z" />
    <glyph glyph-name="Otilde" unicode="&#xd5;" horiz-adv-x="725" 
d="M197 27q-66 37 -102 105t-36 158q0 112 44 208.5t123.5 154t180.5 57.5q86 0 151.5 -37t101.5 -105t36 -159q0 -112 -43.5 -208.5t-122.5 -153.5t-181 -57q-86 0 -152 37zM499.5 94q64.5 50 99 133t34.5 178q0 74 -27.5 131t-79 88.5t-121.5 31.5q-84 0 -148.5 -50.5
t-99.5 -133.5t-35 -178q0 -113 61 -181.5t168 -68.5q84 0 148.5 50zM485 827q-12 6 -26 18q-12 10 -20.5 14.5t-19.5 4.5q-36 0 -46 -41h-50q9 43 36 64.5t62 21.5q19 0 31 -6t26 -18q10 -9 19 -14t21 -5q35 0 46 41h48q-9 -43 -34.5 -64.5t-61.5 -21.5q-19 0 -31 6z" />
    <glyph glyph-name="Odieresis" unicode="&#xd6;" horiz-adv-x="725" 
d="M197 27q-66 37 -102 105t-36 158q0 112 44 208.5t123.5 154t180.5 57.5q86 0 151.5 -37t101.5 -105t36 -159q0 -112 -43.5 -208.5t-122.5 -153.5t-181 -57q-86 0 -152 37zM499.5 94q64.5 50 99 133t34.5 178q0 74 -27.5 131t-79 88.5t-121.5 31.5q-84 0 -148.5 -50.5
t-99.5 -133.5t-35 -178q0 -113 61 -181.5t168 -68.5q84 0 148.5 50zM343.5 821q-12.5 12 -12.5 32t12.5 32t32.5 12q19 0 31.5 -12t12.5 -32q0 -19 -12.5 -31.5t-31.5 -12.5q-20 0 -32.5 12zM521.5 821q-12.5 12 -12.5 32t12.5 32t32.5 12q19 0 31.5 -12t12.5 -32
q0 -19 -12.5 -31.5t-31.5 -12.5q-20 0 -32.5 12z" />
    <glyph glyph-name="multiply" unicode="&#xd7;" 
d="M346 331l141 -171l-36 -30l-140 171l-206 -175l-29 34l206 176l-142 173l35 30l143 -173l203 173l29 -34z" />
    <glyph glyph-name="Oslash" unicode="&#xd8;" horiz-adv-x="725" 
d="M652 583q44 -74 44 -174q0 -112 -43.5 -208.5t-122.5 -153.5t-181 -57q-69 0 -125.5 24t-95.5 69l-109 -106l-32 32l116 110q-44 70 -44 171q0 112 44 208.5t123.5 154t180.5 57.5q69 0 124.5 -23.5t94.5 -68.5l111 107l31 -32zM149 163l206 195l226 217q-30 39 -74.5 60
t-101.5 21q-84 0 -148.5 -50.5t-99.5 -133.5t-35 -178q0 -75 27 -131zM604 539l-210 -198l-222 -215q30 -40 75.5 -61t103.5 -21q84 0 148.5 50t99 133t34.5 178q0 76 -29 134z" />
    <glyph glyph-name="Ugrave" unicode="&#xd9;" horiz-adv-x="695" 
d="M147 51.5q-67 61.5 -67 170.5q0 32 6 66l73 412h60l-73 -418q-5 -32 -5 -55q0 -85 51 -134t144 -49q83 0 139.5 50t74.5 151l80 455h61l-82 -460q-21 -122 -93.5 -186t-180.5 -64q-121 0 -188 61.5zM431 772l-155 160h89l107 -160h-41z" />
    <glyph glyph-name="Uacute" unicode="&#xda;" horiz-adv-x="695" 
d="M147 51.5q-67 61.5 -67 170.5q0 32 6 66l73 412h60l-73 -418q-5 -32 -5 -55q0 -85 51 -134t144 -49q83 0 139.5 50t74.5 151l80 455h61l-82 -460q-21 -122 -93.5 -186t-180.5 -64q-121 0 -188 61.5zM524 932h89l-155 -160h-40z" />
    <glyph glyph-name="Ucircumflex" unicode="&#xdb;" horiz-adv-x="695" 
d="M147 51.5q-67 61.5 -67 170.5q0 32 6 66l73 412h60l-73 -418q-5 -32 -5 -55q0 -85 51 -134t144 -49q83 0 139.5 50t74.5 151l80 455h61l-82 -460q-21 -122 -93.5 -186t-180.5 -64q-121 0 -188 61.5zM539 772l-76 123l-128 -123h-41l138 160h70l78 -160h-41z" />
    <glyph glyph-name="Udieresis" unicode="&#xdc;" horiz-adv-x="695" 
d="M147 51.5q-67 61.5 -67 170.5q0 32 6 66l73 412h60l-73 -418q-5 -32 -5 -55q0 -85 51 -134t144 -49q83 0 139.5 50t74.5 151l80 455h61l-82 -460q-21 -122 -93.5 -186t-180.5 -64q-121 0 -188 61.5zM328.5 821q-12.5 12 -12.5 32t12.5 32t32.5 12q19 0 31.5 -12t12.5 -32
q0 -19 -12.5 -31.5t-31.5 -12.5q-20 0 -32.5 12zM506.5 821q-12.5 12 -12.5 32t12.5 32t32.5 12q19 0 31.5 -12t12.5 -32q0 -19 -12.5 -31.5t-31.5 -12.5q-20 0 -32.5 12z" />
    <glyph glyph-name="Yacute" unicode="&#xdd;" horiz-adv-x="608" 
d="M676 700l-335 -401l-52 -299h-62l52 298l-192 402h67l161 -363l291 363h70zM480 932h89l-155 -160h-40z" />
    <glyph glyph-name="Thorn" unicode="&#xde;" horiz-adv-x="628" 
d="M558 516q56 -50 56 -136q0 -70 -36 -120t-99 -75.5t-143 -25.5h-201l-28 -159h-60l123 700h60l-23 -134h190q105 0 161 -50zM498.5 253q54.5 44 54.5 122q0 65 -40.5 103.5t-117.5 38.5h-197l-54 -308h204q96 0 150.5 44z" />
    <glyph glyph-name="germandbls" unicode="&#xdf;" horiz-adv-x="611" 
d="M534 186q0 -57 -28.5 -101.5t-79.5 -69.5t-116 -25q-62 0 -129 25l10 55q29 -17 62 -25.5t62 -8.5q70 0 114.5 41.5t44.5 107.5q0 68 -50.5 109.5t-139.5 57.5l9 46q80 4 136 42.5t56 104.5q0 54 -38.5 85.5t-100.5 31.5q-68 0 -107.5 -39.5t-53.5 -119.5l-89 -503h-57
l91 516q17 94 72.5 144t145.5 50q86 0 141.5 -43t55.5 -119q0 -77 -58 -120t-152 -54q199 -42 199 -188z" />
    <glyph glyph-name="agrave" unicode="&#xe0;" horiz-adv-x="581" 
d="M540 527l-92 -527h-57l23 125q-38 -64 -92.5 -99.5t-109.5 -35.5q-82 0 -124 57.5t-42 159.5q0 84 31 160t88 123t132 47q59 0 102 -30t65 -91l19 111h57zM338 78.5q52 38.5 86 108.5l30 172q-30 128 -144 128q-63 0 -109.5 -39.5t-70.5 -102.5t-24 -131q0 -83 32 -128.5
t98 -45.5q50 0 102 38.5zM334 612l-154 160h88l107 -160h-41z" />
    <glyph glyph-name="aacute" unicode="&#xe1;" horiz-adv-x="581" 
d="M540 527l-92 -527h-57l23 125q-38 -64 -92.5 -99.5t-109.5 -35.5q-82 0 -124 57.5t-42 159.5q0 84 31 160t88 123t132 47q59 0 102 -30t65 -91l19 111h57zM338 78.5q52 38.5 86 108.5l30 172q-30 128 -144 128q-63 0 -109.5 -39.5t-70.5 -102.5t-24 -131q0 -83 32 -128.5
t98 -45.5q50 0 102 38.5zM425 772h89l-154 -160h-41z" />
    <glyph glyph-name="acircumflex" unicode="&#xe2;" horiz-adv-x="581" 
d="M540 527l-92 -527h-57l23 125q-38 -64 -92.5 -99.5t-109.5 -35.5q-82 0 -124 57.5t-42 159.5q0 84 31 160t88 123t132 47q59 0 102 -30t65 -91l19 111h57zM338 78.5q52 38.5 86 108.5l30 172q-30 128 -144 128q-63 0 -109.5 -39.5t-70.5 -102.5t-24 -131q0 -83 32 -128.5
t98 -45.5q50 0 102 38.5zM455 612l-77 123l-128 -123h-41l138 160h70l79 -160h-41z" />
    <glyph glyph-name="atilde" unicode="&#xe3;" horiz-adv-x="581" 
d="M540 527l-92 -527h-57l23 125q-38 -64 -92.5 -99.5t-109.5 -35.5q-82 0 -124 57.5t-42 159.5q0 84 31 160t88 123t132 47q59 0 102 -30t65 -91l19 111h57zM338 78.5q52 38.5 86 108.5l30 172q-30 128 -144 128q-63 0 -109.5 -39.5t-70.5 -102.5t-24 -131q0 -83 32 -128.5
t98 -45.5q50 0 102 38.5zM380.5 654.5q-12.5 6.5 -25.5 18.5q-12 10 -20.5 14.5t-19.5 4.5q-36 0 -46 -41h-50q9 43 36 64.5t62 21.5q19 0 30.5 -6t26.5 -19q10 -9 19 -14t21 -5q35 0 46 41h48q-9 -43 -34.5 -64.5t-61.5 -21.5q-19 0 -31.5 6.5z" />
    <glyph glyph-name="adieresis" unicode="&#xe4;" horiz-adv-x="581" 
d="M540 527l-92 -527h-57l23 125q-38 -64 -92.5 -99.5t-109.5 -35.5q-82 0 -124 57.5t-42 159.5q0 84 31 160t88 123t132 47q59 0 102 -30t65 -91l19 111h57zM338 78.5q52 38.5 86 108.5l30 172q-30 128 -144 128q-63 0 -109.5 -39.5t-70.5 -102.5t-24 -131q0 -83 32 -128.5
t98 -45.5q50 0 102 38.5zM240 657.5q-12 12.5 -12 31.5q0 20 12 32t32 12t32.5 -12t12.5 -32t-12.5 -32t-32.5 -12t-32 12.5zM418 657.5q-12 12.5 -12 31.5q0 20 12 32t32 12t32.5 -12t12.5 -32t-12.5 -32t-32.5 -12t-32 12.5z" />
    <glyph glyph-name="aring" unicode="&#xe5;" horiz-adv-x="581" 
d="M540 527l-92 -527h-57l23 125q-38 -64 -92.5 -99.5t-109.5 -35.5q-82 0 -124 57.5t-42 159.5q0 84 31 160t88 123t132 47q59 0 102 -30t65 -91l19 111h57zM338 78.5q52 38.5 86 108.5l30 172q-30 128 -144 128q-63 0 -109.5 -39.5t-70.5 -102.5t-24 -131q0 -83 32 -128.5
t98 -45.5q50 0 102 38.5zM302 628.5q-26 24.5 -26 61.5q0 36 26 60.5t63 24.5t63.5 -24.5t26.5 -60.5q0 -37 -26.5 -61.5t-63.5 -24.5t-63 24.5zM400.5 654q14.5 14 14.5 36t-14.5 36t-35.5 14t-35.5 -14t-14.5 -36t14.5 -36t35.5 -14t35.5 14z" />
    <glyph glyph-name="ae" unicode="&#xe6;" horiz-adv-x="884" 
d="M449 258q-2 -26 -2 -39q0 -87 37.5 -134t114.5 -47q60 0 100 30.5t65 88.5l53 -17q-32 -74 -87 -111.5t-131 -37.5q-78 0 -128 35t-69 101q-111 -137 -238 -137q-62 0 -100.5 33.5t-38.5 87.5q0 107 103 150t270 40l9 54q3 18 3 34q0 101 -119 101q-47 0 -83.5 -24
t-64.5 -83l-52 19q64 135 204 135q64 0 106 -25.5t57 -72.5q34 46 83 71.5t110 25.5q93 0 142 -55t49 -147q0 -34 -8 -76h-385zM523.5 438q-49.5 -53 -67.5 -135h326q3 21 3 39q0 70 -36 109.5t-101 39.5q-75 0 -124.5 -53zM300.5 75.5q56.5 34.5 92.5 91.5q-3 24 -3 50
q0 15 2 43q-307 -2 -307 -144q0 -34 25.5 -54.5t72.5 -20.5q61 0 117.5 34.5z" />
    <glyph glyph-name="ccedilla" unicode="&#xe7;" horiz-adv-x="532" 
d="M366.5 76.5q45.5 36.5 68.5 96.5l54 -13q-29 -74 -88 -121t-139 -49l-28 -60h8q36 -1 58 -22.5t22 -54.5q0 -41 -28 -66t-74 -25q-41 0 -69 23.5t-32 60.5l46 10q1 -25 16 -39t39 -14t39 13t15 34q0 22 -15 34.5t-40 12.5h-25l-9 26l38 69q-83 10 -128.5 73t-45.5 161
q0 82 32.5 153.5t93 114.5t138.5 43q79 0 131 -44.5t66 -120.5l-56 -13q-9 60 -46.5 94t-97.5 34q-64 0 -110 -37t-70 -96.5t-24 -126.5q0 -86 39.5 -136.5t112.5 -50.5q63 0 108.5 36.5z" />
    <glyph glyph-name="egrave" unicode="&#xe8;" horiz-adv-x="542" 
d="M107 258q-2 -26 -2 -39q0 -87 38 -134t114 -47q61 0 101 30.5t64 88.5l53 -17q-32 -74 -87 -111.5t-131 -37.5q-103 0 -156 59.5t-53 166.5q0 85 31 158t90 117t140 44q93 0 142 -55t49 -147q0 -33 -8 -76h-385zM181.5 438q-49.5 -53 -67.5 -135h326q3 21 3 39
q0 70 -36 109.5t-101 39.5q-75 0 -124.5 -53zM315 612l-154 160h88l107 -160h-41z" />
    <glyph glyph-name="eacute" unicode="&#xe9;" horiz-adv-x="542" 
d="M107 258q-2 -26 -2 -39q0 -87 38 -134t114 -47q61 0 101 30.5t64 88.5l53 -17q-32 -74 -87 -111.5t-131 -37.5q-103 0 -156 59.5t-53 166.5q0 85 31 158t90 117t140 44q93 0 142 -55t49 -147q0 -33 -8 -76h-385zM181.5 438q-49.5 -53 -67.5 -135h326q3 21 3 39
q0 70 -36 109.5t-101 39.5q-75 0 -124.5 -53zM406 772h89l-154 -160h-41z" />
    <glyph glyph-name="ecircumflex" unicode="&#xea;" horiz-adv-x="542" 
d="M107 258q-2 -26 -2 -39q0 -87 38 -134t114 -47q61 0 101 30.5t64 88.5l53 -17q-32 -74 -87 -111.5t-131 -37.5q-103 0 -156 59.5t-53 166.5q0 85 31 158t90 117t140 44q93 0 142 -55t49 -147q0 -33 -8 -76h-385zM181.5 438q-49.5 -53 -67.5 -135h326q3 21 3 39
q0 70 -36 109.5t-101 39.5q-75 0 -124.5 -53zM436 612l-77 123l-128 -123h-41l138 160h70l79 -160h-41z" />
    <glyph glyph-name="edieresis" unicode="&#xeb;" horiz-adv-x="542" 
d="M107 258q-2 -26 -2 -39q0 -87 38 -134t114 -47q61 0 101 30.5t64 88.5l53 -17q-32 -74 -87 -111.5t-131 -37.5q-103 0 -156 59.5t-53 166.5q0 85 31 158t90 117t140 44q93 0 142 -55t49 -147q0 -33 -8 -76h-385zM181.5 438q-49.5 -53 -67.5 -135h326q3 21 3 39
q0 70 -36 109.5t-101 39.5q-75 0 -124.5 -53zM221 657.5q-12 12.5 -12 31.5q0 20 12 32t32 12t32.5 -12t12.5 -32t-12.5 -32t-32.5 -12t-32 12.5zM399 657.5q-12 12.5 -12 31.5q0 20 12 32t32 12t32.5 -12t12.5 -32t-12.5 -32t-32.5 -12t-32 12.5z" />
    <glyph glyph-name="igrave" unicode="&#xec;" horiz-adv-x="229" 
d="M132 527h58l-93 -527h-57zM157 612l-154 160h88l107 -160h-41z" />
    <glyph glyph-name="iacute" unicode="&#xed;" horiz-adv-x="229" 
d="M132 527h58l-93 -527h-57zM249 772h89l-154 -160h-41z" />
    <glyph glyph-name="icircumflex" unicode="&#xee;" horiz-adv-x="229" 
d="M132 527h58l-93 -527h-57zM279 612l-77 123l-128 -123h-41l138 160h70l79 -160h-41z" />
    <glyph glyph-name="idieresis" unicode="&#xef;" horiz-adv-x="229" 
d="M132 527h58l-93 -527h-57zM64 657.5q-12 12.5 -12 31.5q0 20 12 32t32 12t32.5 -12t12.5 -32t-12.5 -32t-32.5 -12t-32 12.5zM242 657.5q-12 12.5 -12 31.5q0 20 12 32t32 12t32.5 -12t12.5 -32t-12.5 -32t-32.5 -12t-32 12.5z" />
    <glyph glyph-name="eth" unicode="&#xf0;" horiz-adv-x="568" 
d="M487 513q36 -91 36 -184q0 -91 -33.5 -169t-94 -124t-139.5 -46q-96 0 -152 63t-56 165q0 83 33 156t92 117.5t134 44.5q58 0 92.5 -21.5t58.5 -67.5q-18 67 -49.5 118t-79.5 92l-143 -51l-8 37l115 41q-40 29 -110 63l82 29q49 -30 91 -70l92 33l9 -37l-72 -25
q66 -73 102 -164zM367 79q46 39 71 101.5t25 131.5q0 79 -41.5 127.5t-113.5 48.5q-61 0 -107 -38t-71 -100.5t-25 -133.5q0 -79 40.5 -127.5t115.5 -48.5q60 0 106 39z" />
    <glyph glyph-name="ntilde" unicode="&#xf1;" horiz-adv-x="570" 
d="M480.5 502q31.5 -35 31.5 -101q0 -31 -5 -57l-61 -344h-57l61 343q4 26 4 42q0 45 -20.5 73.5t-68.5 28.5q-60 0 -113.5 -51t-101.5 -126l-53 -310h-57l92 527h58l-32 -161q47 75 107.5 123t125.5 48q58 0 89.5 -35zM368.5 654.5q-12.5 6.5 -25.5 18.5q-12 10 -20.5 14.5
t-19.5 4.5q-36 0 -46 -41h-50q9 43 36 64.5t62 21.5q19 0 30.5 -6t26.5 -19q10 -9 19 -14t21 -5q35 0 46 41h48q-9 -43 -34.5 -64.5t-61.5 -21.5q-19 0 -31.5 6.5z" />
    <glyph glyph-name="ograve" unicode="&#xf2;" horiz-adv-x="568" 
d="M465 472.5q55 -64.5 55 -171.5q0 -81 -33 -152.5t-93.5 -115t-139.5 -43.5q-96 0 -150.5 65t-54.5 171q0 82 32.5 153.5t93 114.5t138.5 43q97 0 152 -64.5zM368.5 78q46.5 38 70.5 98t24 126q0 85 -40 135t-113 50q-64 0 -110 -37t-70 -96.5t-24 -126.5
q0 -86 39.5 -136.5t112.5 -50.5q64 0 110.5 38zM327 612l-154 160h88l107 -160h-41z" />
    <glyph glyph-name="oacute" unicode="&#xf3;" horiz-adv-x="568" 
d="M465 472.5q55 -64.5 55 -171.5q0 -81 -33 -152.5t-93.5 -115t-139.5 -43.5q-96 0 -150.5 65t-54.5 171q0 82 32.5 153.5t93 114.5t138.5 43q97 0 152 -64.5zM368.5 78q46.5 38 70.5 98t24 126q0 85 -40 135t-113 50q-64 0 -110 -37t-70 -96.5t-24 -126.5
q0 -86 39.5 -136.5t112.5 -50.5q64 0 110.5 38zM419 772h89l-154 -160h-41z" />
    <glyph glyph-name="ocircumflex" unicode="&#xf4;" horiz-adv-x="568" 
d="M465 472.5q55 -64.5 55 -171.5q0 -81 -33 -152.5t-93.5 -115t-139.5 -43.5q-96 0 -150.5 65t-54.5 171q0 82 32.5 153.5t93 114.5t138.5 43q97 0 152 -64.5zM368.5 78q46.5 38 70.5 98t24 126q0 85 -40 135t-113 50q-64 0 -110 -37t-70 -96.5t-24 -126.5
q0 -86 39.5 -136.5t112.5 -50.5q64 0 110.5 38zM449 612l-77 123l-128 -123h-41l138 160h70l79 -160h-41z" />
    <glyph glyph-name="otilde" unicode="&#xf5;" horiz-adv-x="568" 
d="M465 472.5q55 -64.5 55 -171.5q0 -81 -33 -152.5t-93.5 -115t-139.5 -43.5q-96 0 -150.5 65t-54.5 171q0 82 32.5 153.5t93 114.5t138.5 43q97 0 152 -64.5zM368.5 78q46.5 38 70.5 98t24 126q0 85 -40 135t-113 50q-64 0 -110 -37t-70 -96.5t-24 -126.5
q0 -86 39.5 -136.5t112.5 -50.5q64 0 110.5 38zM374.5 654.5q-12.5 6.5 -25.5 18.5q-12 10 -20.5 14.5t-19.5 4.5q-36 0 -46 -41h-50q9 43 36 64.5t62 21.5q19 0 30.5 -6t26.5 -19q10 -9 19 -14t21 -5q35 0 46 41h48q-9 -43 -34.5 -64.5t-61.5 -21.5q-19 0 -31.5 6.5z" />
    <glyph glyph-name="odieresis" unicode="&#xf6;" horiz-adv-x="568" 
d="M465 472.5q55 -64.5 55 -171.5q0 -81 -33 -152.5t-93.5 -115t-139.5 -43.5q-96 0 -150.5 65t-54.5 171q0 82 32.5 153.5t93 114.5t138.5 43q97 0 152 -64.5zM368.5 78q46.5 38 70.5 98t24 126q0 85 -40 135t-113 50q-64 0 -110 -37t-70 -96.5t-24 -126.5
q0 -86 39.5 -136.5t112.5 -50.5q64 0 110.5 38zM234 657.5q-12 12.5 -12 31.5q0 20 12 32t32 12t32.5 -12t12.5 -32t-12.5 -32t-32.5 -12t-32 12.5zM412 657.5q-12 12.5 -12 31.5q0 20 12 32t32 12t32.5 -12t12.5 -32t-12.5 -32t-32.5 -12t-32 12.5z" />
    <glyph glyph-name="divide" unicode="&#xf7;" 
d="M298.5 458.5q-12.5 12.5 -12.5 31.5q0 20 12.5 32t31.5 12q20 0 32 -12t12 -32q0 -19 -12 -31.5t-32 -12.5q-19 0 -31.5 12.5zM74 356h483l-7 -45h-484zM239 144.5q-12 12.5 -12 32.5t12.5 32t31.5 12q20 0 32 -12t12 -32t-12 -32.5t-32 -12.5t-32 12.5z" />
    <glyph glyph-name="oslash" unicode="&#xf8;" horiz-adv-x="568" 
d="M489 437q31 -57 31 -136q0 -81 -33 -152.5t-93.5 -115t-139.5 -43.5q-95 0 -150 64l-72 -74l-32 31l80 79q-31 57 -31 136q0 82 32.5 153.5t93 114.5t138.5 43q94 0 151 -63l81 82l32 -33zM122 131l150 148l153 155q-41 53 -115 53q-64 0 -110 -37t-70 -96.5t-24 -126.5
q0 -57 16 -96zM447 396l-149 -144l-155 -158q40 -54 115 -54q64 0 110.5 38t70.5 98t24 126q0 52 -16 94z" />
    <glyph glyph-name="ugrave" unicode="&#xf9;" horiz-adv-x="570" 
d="M530 527l-92 -527h-58l32 161q-47 -75 -107.5 -123t-125.5 -48q-58 0 -89.5 35.5t-31.5 101.5q0 31 5 57l61 343h57l-61 -343q-4 -26 -4 -42q0 -45 20.5 -73.5t68.5 -28.5q60 0 113.5 51t101.5 126l53 310h57zM328 612l-154 160h88l107 -160h-41z" />
    <glyph glyph-name="uacute" unicode="&#xfa;" horiz-adv-x="570" 
d="M530 527l-92 -527h-58l32 161q-47 -75 -107.5 -123t-125.5 -48q-58 0 -89.5 35.5t-31.5 101.5q0 31 5 57l61 343h57l-61 -343q-4 -26 -4 -42q0 -45 20.5 -73.5t68.5 -28.5q60 0 113.5 51t101.5 126l53 310h57zM420 772h89l-154 -160h-41z" />
    <glyph glyph-name="ucircumflex" unicode="&#xfb;" horiz-adv-x="570" 
d="M530 527l-92 -527h-58l32 161q-47 -75 -107.5 -123t-125.5 -48q-58 0 -89.5 35.5t-31.5 101.5q0 31 5 57l61 343h57l-61 -343q-4 -26 -4 -42q0 -45 20.5 -73.5t68.5 -28.5q60 0 113.5 51t101.5 126l53 310h57zM450 612l-77 123l-128 -123h-41l138 160h70l79 -160h-41z
" />
    <glyph glyph-name="udieresis" unicode="&#xfc;" horiz-adv-x="570" 
d="M530 527l-92 -527h-58l32 161q-47 -75 -107.5 -123t-125.5 -48q-58 0 -89.5 35.5t-31.5 101.5q0 31 5 57l61 343h57l-61 -343q-4 -26 -4 -42q0 -45 20.5 -73.5t68.5 -28.5q60 0 113.5 51t101.5 126l53 310h57zM235 657.5q-12 12.5 -12 31.5q0 20 12 32t32 12t32.5 -12
t12.5 -32t-12.5 -32t-32.5 -12t-32 12.5zM413 657.5q-12 12.5 -12 31.5q0 20 12 32t32 12t32.5 -12t12.5 -32t-12.5 -32t-32.5 -12t-32 12.5z" />
    <glyph glyph-name="yacute" unicode="&#xfd;" horiz-adv-x="569" 
d="M529 527l-84 -479q-19 -104 -74 -161t-164 -57q-85 0 -137 39t-60 110l50 15q5 -59 45.5 -91t100.5 -32q81 0 124 44.5t57 127.5l24 138q-47 -71 -105.5 -116t-121.5 -45q-58 0 -89.5 35.5t-31.5 101.5q0 31 5 57l56 313h57l-56 -313q-4 -26 -4 -42q0 -45 20.5 -73.5
t68.5 -28.5q103 0 212 172l30 172l20 113h57zM419 772h89l-154 -160h-41z" />
    <glyph glyph-name="thorn" unicode="&#xfe;" horiz-adv-x="581" 
d="M493 479.5q42 -57.5 42 -159.5q0 -84 -31 -160t-88 -123t-132 -47q-58 0 -101.5 30t-65.5 91l-47 -271h-57l28 160h-1l50 286l42 241h1l30 173h57l-30 -173l-21 -121q38 62 91.5 96.5t108.5 34.5q82 0 124 -57.5zM380.5 79.5q46.5 39.5 70.5 103t24 131.5q0 82 -32 127.5
t-98 45.5q-50 0 -102.5 -39t-85.5 -110l-30 -169q32 -129 144 -129q63 0 109.5 39.5z" />
    <glyph glyph-name="ydieresis" unicode="&#xff;" horiz-adv-x="569" 
d="M529 527l-84 -479q-19 -104 -74 -161t-164 -57q-85 0 -137 39t-60 110l50 15q5 -59 45.5 -91t100.5 -32q81 0 124 44.5t57 127.5l24 138q-47 -71 -105.5 -116t-121.5 -45q-58 0 -89.5 35.5t-31.5 101.5q0 31 5 57l56 313h57l-56 -313q-4 -26 -4 -42q0 -45 20.5 -73.5
t68.5 -28.5q103 0 212 172l30 172l20 113h57zM234 657.5q-12 12.5 -12 31.5q0 20 12 32t32 12t32.5 -12t12.5 -32t-12.5 -32t-32.5 -12t-32 12.5zM412 657.5q-12 12.5 -12 31.5q0 20 12 32t32 12t32.5 -12t12.5 -32t-12.5 -32t-32.5 -12t-32 12.5z" />
    <glyph glyph-name="Amacron" unicode="&#x100;" horiz-adv-x="652" 
d="M503 151h-392l-85 -151h-63l398 700h84l150 -700h-60zM494 197l-96 460l-261 -460h357zM563 887l-8 -45h-246l8 45h246z" />
    <glyph glyph-name="amacron" unicode="&#x101;" horiz-adv-x="581" 
d="M540 527l-92 -527h-57l23 125q-38 -64 -92.5 -99.5t-109.5 -35.5q-82 0 -124 57.5t-42 159.5q0 84 31 160t88 123t132 47q59 0 102 -30t65 -91l19 111h57zM338 78.5q52 38.5 86 108.5l30 172q-30 128 -144 128q-63 0 -109.5 -39.5t-70.5 -102.5t-24 -131q0 -83 32 -128.5
t98 -45.5q50 0 102 38.5zM492 714l-8 -45h-246l8 45h246z" />
    <glyph glyph-name="Abreve" unicode="&#x102;" horiz-adv-x="652" 
d="M503 151h-392l-85 -151h-63l398 700h84l150 -700h-60zM494 197l-96 460l-261 -460h357zM342.5 819q-29.5 28 -29.5 77q0 7 2 23h46q-2 -14 -2 -21q0 -33 18.5 -52t49.5 -19q37 0 66 25t38 67h44q-12 -59 -54.5 -93.5t-99.5 -34.5q-49 0 -78.5 28z" />
    <glyph glyph-name="abreve" unicode="&#x103;" horiz-adv-x="581" 
d="M540 527l-92 -527h-57l23 125q-38 -64 -92.5 -99.5t-109.5 -35.5q-82 0 -124 57.5t-42 159.5q0 84 31 160t88 123t132 47q59 0 102 -30t65 -91l19 111h57zM338 78.5q52 38.5 86 108.5l30 172q-30 128 -144 128q-63 0 -109.5 -39.5t-70.5 -102.5t-24 -131q0 -83 32 -128.5
t98 -45.5q50 0 102 38.5zM278.5 659q-29.5 28 -29.5 77q0 7 2 23h46q-2 -14 -2 -21q0 -33 18.5 -52t49.5 -19q37 0 66 25t38 67h44q-12 -59 -54.5 -93.5t-99.5 -34.5q-49 0 -78.5 28z" />
    <glyph glyph-name="Aogonek" unicode="&#x104;" horiz-adv-x="652" 
d="M490.5 -127.5q13.5 -12.5 38.5 -12.5q27 0 54 10l-10 -52q-26 -6 -50 -6q-47 0 -72.5 22.5t-25.5 58.5q0 66 108 115l-30 143h-392l-85 -151h-63l398 700h84l150 -700h-36q-6 -5 -18 -13q-35 -26 -49.5 -42t-14.5 -39q0 -21 13.5 -33.5zM494 197l-96 460l-261 -460h357z
" />
    <glyph glyph-name="aogonek" unicode="&#x105;" horiz-adv-x="581" 
d="M363.5 -127.5q13.5 -12.5 38.5 -12.5q27 0 54 10l-9 -52q-28 -6 -51 -6q-47 0 -72.5 22.5t-25.5 58.5q0 63 93 107l23 125q-38 -64 -92.5 -99.5t-109.5 -35.5q-82 0 -124 57.5t-42 159.5q0 84 31 160t88 123t132 47q59 0 102 -30t65 -91l19 111h57l-92 -527h-15l-18 -13
q-34 -23 -49.5 -40t-15.5 -41q0 -21 13.5 -33.5zM338 78.5q52 38.5 86 108.5l30 172q-30 128 -144 128q-63 0 -109.5 -39.5t-70.5 -102.5t-24 -131q0 -83 32 -128.5t98 -45.5q50 0 102 38.5z" />
    <glyph glyph-name="Cacute" unicode="&#x106;" horiz-adv-x="710" 
d="M196.5 27q-64.5 37 -100.5 106.5t-36 163.5q0 109 44.5 203.5t124.5 152t182 57.5q111 0 187 -64t93 -171l-61 -17q-13 89 -72.5 143.5t-149.5 54.5q-85 0 -150 -50.5t-100.5 -132.5t-35.5 -174q0 -117 60.5 -186t166.5 -69q89 0 153.5 52t99.5 139l58 -18
q-43 -103 -123.5 -165t-190.5 -62q-85 0 -149.5 37zM532 932h89l-155 -160h-40z" />
    <glyph glyph-name="cacute" unicode="&#x107;" horiz-adv-x="532" 
d="M103.5 55q-54.5 65 -54.5 171q0 82 32.5 153.5t93 114.5t138.5 43q79 0 131 -44.5t66 -120.5l-56 -13q-9 60 -46.5 94t-97.5 34q-64 0 -110 -37t-70 -96.5t-24 -126.5q0 -86 39.5 -136.5t112.5 -50.5q63 0 108.5 36.5t68.5 96.5l54 -13q-30 -76 -91.5 -123t-143.5 -47
q-96 0 -150.5 65zM405 770h89l-154 -160h-41z" />
    <glyph glyph-name="Cdotaccent" unicode="&#x10a;" horiz-adv-x="710" 
d="M196.5 27q-64.5 37 -100.5 106.5t-36 163.5q0 109 44.5 203.5t124.5 152t182 57.5q111 0 187 -64t93 -171l-61 -17q-13 89 -72.5 143.5t-149.5 54.5q-85 0 -150 -50.5t-100.5 -132.5t-35.5 -174q0 -117 60.5 -186t166.5 -69q89 0 153.5 52t99.5 139l58 -18
q-43 -103 -123.5 -165t-190.5 -62q-85 0 -149.5 37zM433 821.5q-12 12.5 -12 31.5q0 20 12 32t32 12q19 0 31.5 -12t12.5 -32q0 -19 -12.5 -31.5t-31.5 -12.5q-20 0 -32 12.5z" />
    <glyph glyph-name="cdotaccent" unicode="&#x10b;" horiz-adv-x="532" 
d="M103.5 55q-54.5 65 -54.5 171q0 82 32.5 153.5t93 114.5t138.5 43q79 0 131 -44.5t66 -120.5l-56 -13q-9 60 -46.5 94t-97.5 34q-64 0 -110 -37t-70 -96.5t-24 -126.5q0 -86 39.5 -136.5t112.5 -50.5q63 0 108.5 36.5t68.5 96.5l54 -13q-30 -76 -91.5 -123t-143.5 -47
q-96 0 -150.5 65zM319 655.5q-12 12.5 -12 31.5q0 20 12 32t32 12q19 0 31.5 -12t12.5 -32q0 -19 -12.5 -31.5t-31.5 -12.5q-20 0 -32 12.5z" />
    <glyph glyph-name="Ccaron" unicode="&#x10c;" horiz-adv-x="710" 
d="M196.5 27q-64.5 37 -100.5 106.5t-36 163.5q0 109 44.5 203.5t124.5 152t182 57.5q111 0 187 -64t93 -171l-61 -17q-13 89 -72.5 143.5t-149.5 54.5q-85 0 -150 -50.5t-100.5 -132.5t-35.5 -174q0 -117 60.5 -186t166.5 -69q89 0 153.5 52t99.5 139l58 -18
q-43 -103 -123.5 -165t-190.5 -62q-85 0 -149.5 37zM377 932l76 -121l129 121h40l-137 -160h-70l-79 160h41z" />
    <glyph glyph-name="ccaron" unicode="&#x10d;" horiz-adv-x="532" 
d="M103.5 55q-54.5 65 -54.5 171q0 82 32.5 153.5t93 114.5t138.5 43q79 0 131 -44.5t66 -120.5l-56 -13q-9 60 -46.5 94t-97.5 34q-64 0 -110 -37t-70 -96.5t-24 -126.5q0 -86 39.5 -136.5t112.5 -50.5q63 0 108.5 36.5t68.5 96.5l54 -13q-30 -76 -91.5 -123t-143.5 -47
q-96 0 -150.5 65zM262 770l76 -121l129 121h41l-138 -160h-69l-80 160h41z" />
    <glyph glyph-name="Dcaron" unicode="&#x10e;" horiz-adv-x="713" 
d="M599 619q84 -81 84 -226q0 -116 -56 -205.5t-157 -138.5t-232 -49h-191l123 700h186q159 0 243 -81zM439.5 92q87.5 43 135.5 121.5t48 179.5q0 120 -68.5 188.5t-199.5 69.5h-134l-105 -602h123q113 0 200.5 43zM378 932l76 -121l129 121h40l-137 -160h-70l-79 160h41z
" />
    <glyph glyph-name="dcaron" unicode="&#x10f;" horiz-adv-x="581" 
d="M571 700l-122 -700h-57l25 129q-39 -66 -93.5 -102.5t-111.5 -36.5q-82 0 -124 57.5t-42 159.5q0 84 31 160t88 123t132 47q59 0 102.5 -30.5t64.5 -91.5l50 285h57zM338.5 79q52.5 39 86.5 110l29 168q-29 130 -144 130q-63 0 -109.5 -39.5t-70.5 -102.5t-24 -131
q0 -83 32 -128.5t98 -45.5q50 0 102.5 39zM630 700h58l-55 -160h-32z" />
    <glyph glyph-name="Dcroat" unicode="&#x110;" horiz-adv-x="713" 
d="M599 619q84 -81 84 -226q0 -116 -56 -205.5t-157 -138.5t-232 -49h-191l58 329h-72l9 50h72l56 321h186q159 0 243 -81zM439.5 92q87.5 43 135.5 121.5t48 179.5q0 120 -68.5 188.5t-199.5 69.5h-134l-47 -272h223l-9 -50h-223l-49 -280h123q113 0 200.5 43z" />
    <glyph glyph-name="dcroat" unicode="&#x111;" horiz-adv-x="581" 
d="M638 588h-87l-102 -588h-57l25 129q-39 -66 -93.5 -102.5t-111.5 -36.5q-82 0 -124 57.5t-42 159.5q0 84 31 160t88 123t132 47q59 0 102.5 -30.5t64.5 -91.5l30 173h-165l8 36h164l13 76h57l-13 -76h88zM338.5 79q52.5 39 86.5 110l29 168q-29 130 -144 130
q-63 0 -109.5 -39.5t-70.5 -102.5t-24 -131q0 -83 32 -128.5t98 -45.5q50 0 102.5 39z" />
    <glyph glyph-name="Emacron" unicode="&#x112;" horiz-adv-x="623" 
d="M221 651l-45 -260h377l-9 -49h-377l-51 -293h402l-8 -49h-463l123 700h463l-8 -49h-404zM548 887l-8 -45h-246l8 45h246z" />
    <glyph glyph-name="emacron" unicode="&#x113;" horiz-adv-x="542" 
d="M107 258q-2 -26 -2 -39q0 -87 38 -134t114 -47q61 0 101 30.5t64 88.5l53 -17q-32 -74 -87 -111.5t-131 -37.5q-103 0 -156 59.5t-53 166.5q0 85 31 158t90 117t140 44q93 0 142 -55t49 -147q0 -33 -8 -76h-385zM181.5 438q-49.5 -53 -67.5 -135h326q3 21 3 39
q0 70 -36 109.5t-101 39.5q-75 0 -124.5 -53zM473 714l-8 -45h-246l8 45h246z" />
    <glyph glyph-name="Edotaccent" unicode="&#x116;" horiz-adv-x="623" 
d="M221 651l-45 -260h377l-9 -49h-377l-51 -293h402l-8 -49h-463l123 700h463l-8 -49h-404zM389 821.5q-12 12.5 -12 31.5q0 20 12 32t32 12q19 0 31.5 -12t12.5 -32q0 -19 -12.5 -31.5t-31.5 -12.5q-20 0 -32 12.5z" />
    <glyph glyph-name="edotaccent" unicode="&#x117;" horiz-adv-x="542" 
d="M107 258q-2 -26 -2 -39q0 -87 38 -134t114 -47q61 0 101 30.5t64 88.5l53 -17q-32 -74 -87 -111.5t-131 -37.5q-103 0 -156 59.5t-53 166.5q0 85 31 158t90 117t140 44q93 0 142 -55t49 -147q0 -33 -8 -76h-385zM181.5 438q-49.5 -53 -67.5 -135h326q3 21 3 39
q0 70 -36 109.5t-101 39.5q-75 0 -124.5 -53zM320 657.5q-12 12.5 -12 31.5q0 20 12 32t32 12q19 0 31.5 -12t12.5 -32q0 -19 -12.5 -31.5t-31.5 -12.5q-20 0 -32 12.5z" />
    <glyph glyph-name="Eogonek" unicode="&#x118;" horiz-adv-x="623" 
d="M221 651l-45 -260h377l-9 -49h-377l-51 -293h402l-8 -49h-37l-18 -13q-34 -23 -49.5 -40t-15.5 -41q0 -21 13.5 -33.5t38.5 -12.5q27 0 54 10l-9 -52q-26 -6 -50 -6q-47 0 -73 22.5t-26 58.5q0 61 93 107h-384l123 700h463l-8 -49h-404z" />
    <glyph glyph-name="eogonek" unicode="&#x119;" horiz-adv-x="542" 
d="M107 258q-2 -26 -2 -39q0 -87 38 -134t114 -47q61 0 101 30.5t64 88.5l53 -17q-25 -59 -67 -96q-20 -21 -51 -50q-37 -35 -49.5 -51.5t-12.5 -36.5q0 -21 13.5 -33.5t38.5 -12.5q14 0 30 3t27 8v-49q-32 -10 -62 -10q-48 0 -73.5 19.5t-25.5 54.5q0 27 19.5 54t64.5 60
q-33 -9 -70 -9q-103 0 -156 59.5t-53 166.5q0 85 31 158t90 117t140 44q93 0 142 -55t49 -147q0 -33 -8 -76h-385zM181.5 438q-49.5 -53 -67.5 -135h326q3 21 3 39q0 70 -36 109.5t-101 39.5q-75 0 -124.5 -53z" />
    <glyph glyph-name="Ecaron" unicode="&#x11a;" horiz-adv-x="623" 
d="M221 651l-45 -260h377l-9 -49h-377l-51 -293h402l-8 -49h-463l123 700h463l-8 -49h-404zM333 932l76 -121l129 121h40l-137 -160h-70l-79 160h41z" />
    <glyph glyph-name="ecaron" unicode="&#x11b;" horiz-adv-x="542" 
d="M107 258q-2 -26 -2 -39q0 -87 38 -134t114 -47q61 0 101 30.5t64 88.5l53 -17q-32 -74 -87 -111.5t-131 -37.5q-103 0 -156 59.5t-53 166.5q0 85 31 158t90 117t140 44q93 0 142 -55t49 -147q0 -33 -8 -76h-385zM181.5 438q-49.5 -53 -67.5 -135h326q3 21 3 39
q0 70 -36 109.5t-101 39.5q-75 0 -124.5 -53zM263 772l76 -121l129 121h41l-138 -160h-69l-80 160h41z" />
    <glyph glyph-name="Gbreve" unicode="&#x11e;" horiz-adv-x="728" 
d="M414 328h256l-58 -328h-46l16 126q-85 -136 -249 -136q-80 0 -142 37.5t-96.5 107.5t-34.5 164q0 108 44.5 202.5t125.5 151.5t185 57q97 0 169.5 -51t97.5 -141l-58 -22q-19 73 -75.5 116.5t-136.5 43.5q-86 0 -152 -50.5t-102 -132.5t-36 -173q0 -119 57 -187.5
t163 -68.5q100 0 172.5 61t90.5 173h-200zM379.5 819q-29.5 28 -29.5 77q0 7 2 23h46q-2 -14 -2 -21q0 -33 18.5 -52t49.5 -19q37 0 66 25t38 67h44q-12 -59 -54.5 -93.5t-99.5 -34.5q-49 0 -78.5 28z" />
    <glyph glyph-name="gbreve" unicode="&#x11f;" horiz-adv-x="577" 
d="M538 527l-85 -479q-17 -101 -79.5 -159.5t-165.5 -58.5q-84 0 -137.5 39t-64.5 106l54 15q8 -53 47.5 -86t103.5 -33q76 0 123 46.5t61 125.5l22 125q-39 -65 -92.5 -99.5t-113.5 -34.5q-76 0 -118.5 52.5t-42.5 139.5q0 76 29 147.5t86 117.5t136 46q57 0 98 -29.5
t62 -90.5l20 110h57zM453 375q-35 112 -139 112q-67 0 -113 -38.5t-68.5 -97.5t-22.5 -118q0 -68 33.5 -108.5t91.5 -40.5q53 0 106 37.5t87 109.5zM277.5 659q-29.5 28 -29.5 77q0 7 2 23h46q-2 -14 -2 -21q0 -33 18.5 -52t49.5 -19q37 0 66 25t38 67h44
q-12 -59 -54.5 -93.5t-99.5 -34.5q-49 0 -78.5 28z" />
    <glyph glyph-name="Gdotaccent" unicode="&#x120;" horiz-adv-x="728" 
d="M414 328h256l-58 -328h-46l16 126q-85 -136 -249 -136q-80 0 -142 37.5t-96.5 107.5t-34.5 164q0 108 44.5 202.5t125.5 151.5t185 57q97 0 169.5 -51t97.5 -141l-58 -22q-19 73 -75.5 116.5t-136.5 43.5q-86 0 -152 -50.5t-102 -132.5t-36 -173q0 -119 57 -187.5
t163 -68.5q100 0 172.5 61t90.5 173h-200zM441 821.5q-12 12.5 -12 31.5q0 20 12 32t32 12q19 0 31.5 -12t12.5 -32q0 -19 -12.5 -31.5t-31.5 -12.5q-20 0 -32 12.5z" />
    <glyph glyph-name="gdotaccent" unicode="&#x121;" horiz-adv-x="577" 
d="M538 527l-85 -479q-17 -101 -79.5 -159.5t-165.5 -58.5q-84 0 -137.5 39t-64.5 106l54 15q8 -53 47.5 -86t103.5 -33q76 0 123 46.5t61 125.5l22 125q-39 -65 -92.5 -99.5t-113.5 -34.5q-76 0 -118.5 52.5t-42.5 139.5q0 76 29 147.5t86 117.5t136 46q57 0 98 -29.5
t62 -90.5l20 110h57zM453 375q-35 112 -139 112q-67 0 -113 -38.5t-68.5 -97.5t-22.5 -118q0 -68 33.5 -108.5t91.5 -40.5q53 0 106 37.5t87 109.5zM338 657.5q-12 12.5 -12 31.5q0 20 12 32t32 12q19 0 31.5 -12t12.5 -32q0 -19 -12.5 -31.5t-31.5 -12.5q-20 0 -32 12.5z
" />
    <glyph glyph-name="uni0122" unicode="&#x122;" horiz-adv-x="728" 
d="M414 328h256l-58 -328h-46l16 126q-85 -136 -249 -136q-80 0 -142 37.5t-96.5 107.5t-34.5 164q0 108 44.5 202.5t125.5 151.5t185 57q97 0 169.5 -51t97.5 -141l-58 -22q-19 73 -75.5 116.5t-136.5 43.5q-86 0 -152 -50.5t-102 -132.5t-36 -173q0 -119 57 -187.5
t163 -68.5q100 0 172.5 61t90.5 173h-200zM337 -111q0 -56 -32.5 -91t-89.5 -35v22q40 0 61 16.5t30 55.5h-5q-16 0 -26 8.5t-10 22.5q0 16 10 27t27 11q35 0 35 -37z" />
    <glyph glyph-name="uni0123" unicode="&#x123;" horiz-adv-x="577" 
d="M538 527l-85 -479q-17 -101 -79.5 -159.5t-165.5 -58.5q-84 0 -137.5 39t-64.5 106l54 15q8 -53 47.5 -86t103.5 -33q76 0 123 46.5t61 125.5l22 125q-39 -65 -92.5 -99.5t-113.5 -34.5q-76 0 -118.5 52.5t-42.5 139.5q0 76 29 147.5t86 117.5t136 46q57 0 98 -29.5
t62 -90.5l20 110h57zM453 375q-35 112 -139 112q-67 0 -113 -38.5t-68.5 -97.5t-22.5 -118q0 -68 33.5 -108.5t91.5 -40.5q53 0 106 37.5t87 109.5zM385 717.5q10 -8.5 10 -22.5q0 -16 -10 -26.5t-27 -10.5t-26 7t-9 25q0 59 32 93.5t90 36.5l2 -20q-42 -4 -62 -19t-31 -55
h4q17 0 27 -8.5z" />
    <glyph glyph-name="Hbar" unicode="&#x126;" horiz-adv-x="712" 
d="M705 544h-36l-96 -544h-60l61 347h-406l-61 -347h-60l96 544h-38l9 49h37l19 107h60l-19 -107h406l19 107h60l-19 -107h37zM609 544h-406l-26 -148h406z" />
    <glyph glyph-name="hbar" unicode="&#x127;" horiz-adv-x="570" 
d="M480.5 502q31.5 -35 31.5 -101q0 -31 -5 -57l-61 -344h-57l61 343q4 26 4 42q0 45 -20.5 73.5t-68.5 28.5q-60 0 -113.5 -51t-101.5 -126l-53 -310h-57l103 588h-91l8 36h90l13 76h57l-14 -76h163l-8 -36h-162l-42 -224q48 76 108.5 124.5t125.5 48.5q58 0 89.5 -35z" />
    <glyph glyph-name="Imacron" unicode="&#x12a;" horiz-adv-x="267" 
d="M180 700h60l-123 -700h-60zM369 887l-8 -45h-246l8 45h246z" />
    <glyph glyph-name="imacron" unicode="&#x12b;" horiz-adv-x="229" 
d="M132 527h58l-93 -527h-57zM316 714l-8 -45h-246l8 45h246z" />
    <glyph glyph-name="Iogonek" unicode="&#x12e;" horiz-adv-x="267" 
d="M34.5 -127.5q13.5 -12.5 38.5 -12.5q27 0 54 10l-9 -52q-28 -6 -51 -6q-47 0 -72.5 22.5t-25.5 58.5q0 62 92 107h-4l123 700h60l-123 -700h-13l-18 -13q-34 -23 -49.5 -40t-15.5 -41q0 -21 13.5 -33.5z" />
    <glyph glyph-name="iogonek" unicode="&#x12f;" horiz-adv-x="229" 
d="M227 721q12 -12 12 -32q0 -19 -12 -31.5t-32 -12.5q-19 0 -31.5 12.5t-12.5 31.5q0 20 12.5 32t31.5 12q20 0 32 -12zM132 527h58l-93 -527h-24q-6 -5 -18 -13q-35 -26 -49.5 -42t-14.5 -39q0 -21 13.5 -33.5t38.5 -12.5q27 0 54 10l-10 -52q-26 -6 -50 -6
q-47 0 -72.5 22.5t-25.5 58.5q0 65 102 112z" />
    <glyph glyph-name="Idotaccent" unicode="&#x130;" horiz-adv-x="267" 
d="M180 700h60l-123 -700h-60zM210 821.5q-12 12.5 -12 31.5q0 20 12 32t32 12q19 0 31.5 -12t12.5 -32q0 -19 -12.5 -31.5t-31.5 -12.5q-20 0 -32 12.5z" />
    <glyph glyph-name="dotlessi" unicode="&#x131;" horiz-adv-x="229" 
d="M132 527h58l-93 -527h-57z" />
    <glyph glyph-name="IJ" unicode="&#x132;" horiz-adv-x="575" 
d="M67 180l65 15q-1 -74 31.5 -115t100.5 -41q65 0 104.5 42.5t55.5 129.5l86 489h60l-86 -494q-40 -216 -221 -216q-185 0 -196 190zM159 700h60l-64 -360h-60z" />
    <glyph glyph-name="uni0136" unicode="&#x136;" horiz-adv-x="672" 
d="M410 403l197 -403h-70l-173 361l-231 -210l-26 -151h-60l123 700h60l-84 -479l506 479h82zM322 -111q0 -56 -32.5 -91t-89.5 -35v22q40 0 61 16.5t30 55.5h-5q-16 0 -26 8.5t-10 22.5q0 16 10 27t27 11q35 0 35 -37z" />
    <glyph glyph-name="uni0137" unicode="&#x137;" horiz-adv-x="550" 
d="M291 306l192 -306h-63l-168 275l-124 -97l-31 -178h-57l123 700h57l-83 -470l355 297h79zM262 -111q0 -56 -32.5 -91t-89.5 -35v22q40 0 61 16.5t30 55.5h-5q-16 0 -26 8.5t-10 22.5q0 16 10 27t27 11q35 0 35 -37z" />
    <glyph glyph-name="Lacute" unicode="&#x139;" horiz-adv-x="582" 
d="M519 51l-9 -51h-463l123 700h60l-114 -649h403zM300 932h89l-155 -160h-40z" />
    <glyph glyph-name="lacute" unicode="&#x13a;" horiz-adv-x="255" 
d="M52 60q0 7 2 21l109 619h58l-107 -606q-2 -14 -2 -19q0 -34 36 -34q25 0 42 14v-50q-30 -13 -57 -13q-81 0 -81 68zM299 932h89l-155 -160h-40z" />
    <glyph glyph-name="uni013B" unicode="&#x13b;" horiz-adv-x="582" 
d="M519 51l-9 -51h-463l123 700h60l-114 -649h403zM278 -111q0 -56 -32.5 -91t-89.5 -35v22q40 0 61 16.5t30 55.5h-5q-16 0 -26 8.5t-10 22.5q0 16 10 27t27 11q35 0 35 -37z" />
    <glyph glyph-name="uni013C" unicode="&#x13c;" horiz-adv-x="255" 
d="M52 60q0 7 2 21l109 619h58l-107 -606q-2 -14 -2 -19q0 -34 36 -34q25 0 42 14v-50q-30 -13 -57 -13q-81 0 -81 68zM111 -111q0 -56 -32.5 -91t-89.5 -35v22q40 0 61 16.5t30 55.5h-5q-16 0 -26 8.5t-10 22.5q0 16 10 27t27 11q35 0 35 -37z" />
    <glyph glyph-name="Lcaron" unicode="&#x13d;" horiz-adv-x="582" 
d="M519 51l-9 -51h-463l123 700h60l-114 -649h403zM347 700h58l-55 -160h-32z" />
    <glyph glyph-name="lcaron" unicode="&#x13e;" horiz-adv-x="255" 
d="M52 60q0 7 2 21l109 619h58l-107 -606q-2 -14 -2 -19q0 -34 36 -34q25 0 42 14v-50q-30 -13 -57 -13q-81 0 -81 68zM292 700h58l-55 -160h-32z" />
    <glyph glyph-name="Lslash" unicode="&#x141;" horiz-adv-x="581" 
d="M519 51l-9 -51h-463l47 265l-105 -77l13 72l101 60l67 380h60l-59 -333l189 134l-12 -72l-186 -116l-46 -262h403z" />
    <glyph glyph-name="lslash" unicode="&#x142;" horiz-adv-x="247" 
d="M114 94q-2 -14 -2 -19q0 -34 36 -34q25 0 42 14v-50q-30 -13 -57 -13q-81 0 -81 68q0 7 2 21l32 181l-99 -84l13 67l95 71l68 384h58l-58 -329l97 81l-13 -67l-94 -68z" />
    <glyph glyph-name="Nacute" unicode="&#x143;" horiz-adv-x="743" 
d="M727 700l-123 -700h-78l-306 644l-114 -644h-59l123 700h81l305 -631l111 631h60zM547 932h89l-155 -160h-40z" />
    <glyph glyph-name="nacute" unicode="&#x144;" horiz-adv-x="570" 
d="M480.5 502q31.5 -35 31.5 -101q0 -31 -5 -57l-61 -344h-57l61 343q4 26 4 42q0 45 -20.5 73.5t-68.5 28.5q-60 0 -113.5 -51t-101.5 -126l-53 -310h-57l92 527h58l-32 -161q47 75 107.5 123t125.5 48q58 0 89.5 -35zM413 772h89l-154 -160h-41z" />
    <glyph glyph-name="uni0145" unicode="&#x145;" horiz-adv-x="743" 
d="M727 700l-123 -700h-78l-306 644l-114 -644h-59l123 700h81l305 -631l111 631h60zM359 -111q0 -56 -32.5 -91t-89.5 -35v22q40 0 61 16.5t30 55.5h-5q-16 0 -26 8.5t-10 22.5q0 16 10 27t27 11q35 0 35 -37z" />
    <glyph glyph-name="uni0146" unicode="&#x146;" horiz-adv-x="570" 
d="M480.5 502q31.5 -35 31.5 -101q0 -31 -5 -57l-61 -344h-57l61 343q4 26 4 42q0 45 -20.5 73.5t-68.5 28.5q-60 0 -113.5 -51t-101.5 -126l-53 -310h-57l92 527h58l-32 -161q47 75 107.5 123t125.5 48q58 0 89.5 -35zM265 -111q0 -56 -32.5 -91t-89.5 -35v22q40 0 61 16.5
t30 55.5h-5q-16 0 -26 8.5t-10 22.5q0 16 10 27t27 11q35 0 35 -37z" />
    <glyph glyph-name="Ncaron" unicode="&#x147;" horiz-adv-x="743" 
d="M727 700l-123 -700h-78l-306 644l-114 -644h-59l123 700h81l305 -631l111 631h60zM392 932l76 -121l129 121h40l-137 -160h-70l-79 160h41z" />
    <glyph glyph-name="ncaron" unicode="&#x148;" horiz-adv-x="570" 
d="M480.5 502q31.5 -35 31.5 -101q0 -31 -5 -57l-61 -344h-57l61 343q4 26 4 42q0 45 -20.5 73.5t-68.5 28.5q-60 0 -113.5 -51t-101.5 -126l-53 -310h-57l92 527h58l-32 -161q47 75 107.5 123t125.5 48q58 0 89.5 -35zM270 772l76 -121l129 121h41l-138 -160h-69l-80 160
h41z" />
    <glyph glyph-name="Eng" unicode="&#x14a;" horiz-adv-x="743" 
d="M727 700l-123 -697q-29 -173 -179 -173q-19 0 -28 2l9 49q14 -5 32 -5q44 0 69 28t37 91l3 17l-328 629l-113 -641h-59l123 700h81l313 -591l103 591h60z" />
    <glyph glyph-name="eng" unicode="&#x14b;" horiz-adv-x="570" 
d="M480.5 502q31.5 -35 31.5 -101q0 -31 -5 -57l-61 -344q-14 -82 -60.5 -126t-118.5 -44q-18 0 -27 2l8 49q14 -5 33 -5q40 0 69 32.5t39 91.5l61 343q4 26 4 42q0 45 -20.5 73.5t-68.5 28.5q-60 0 -113.5 -51t-101.5 -126l-53 -310h-57l92 527h58l-32 -161
q47 75 107.5 123t125.5 48q58 0 89.5 -35z" />
    <glyph glyph-name="Omacron" unicode="&#x14c;" horiz-adv-x="725" 
d="M197 27q-66 37 -102 105t-36 158q0 112 44 208.5t123.5 154t180.5 57.5q86 0 151.5 -37t101.5 -105t36 -159q0 -112 -43.5 -208.5t-122.5 -153.5t-181 -57q-86 0 -152 37zM499.5 94q64.5 50 99 133t34.5 178q0 74 -27.5 131t-79 88.5t-121.5 31.5q-84 0 -148.5 -50.5
t-99.5 -133.5t-35 -178q0 -113 61 -181.5t168 -68.5q84 0 148.5 50zM599 887l-8 -45h-246l8 45h246z" />
    <glyph glyph-name="omacron" unicode="&#x14d;" horiz-adv-x="568" 
d="M465 472.5q55 -64.5 55 -171.5q0 -81 -33 -152.5t-93.5 -115t-139.5 -43.5q-96 0 -150.5 65t-54.5 171q0 82 32.5 153.5t93 114.5t138.5 43q97 0 152 -64.5zM368.5 78q46.5 38 70.5 98t24 126q0 85 -40 135t-113 50q-64 0 -110 -37t-70 -96.5t-24 -126.5
q0 -86 39.5 -136.5t112.5 -50.5q64 0 110.5 38zM486 714l-8 -45h-246l8 45h246z" />
    <glyph glyph-name="Ohungarumlaut" unicode="&#x150;" horiz-adv-x="725" 
d="M197 27q-66 37 -102 105t-36 158q0 112 44 208.5t123.5 154t180.5 57.5q86 0 151.5 -37t101.5 -105t36 -159q0 -112 -43.5 -208.5t-122.5 -153.5t-181 -57q-86 0 -152 37zM499.5 94q64.5 50 99 133t34.5 178q0 74 -27.5 131t-79 88.5t-121.5 31.5q-84 0 -148.5 -50.5
t-99.5 -133.5t-35 -178q0 -113 61 -181.5t168 -68.5q84 0 148.5 50zM443 932h81l-141 -160h-39zM604 932h82l-141 -160h-39z" />
    <glyph glyph-name="ohungarumlaut" unicode="&#x151;" horiz-adv-x="568" 
d="M465 472.5q55 -64.5 55 -171.5q0 -81 -33 -152.5t-93.5 -115t-139.5 -43.5q-96 0 -150.5 65t-54.5 171q0 82 32.5 153.5t93 114.5t138.5 43q97 0 152 -64.5zM368.5 78q46.5 38 70.5 98t24 126q0 85 -40 135t-113 50q-64 0 -110 -37t-70 -96.5t-24 -126.5
q0 -86 39.5 -136.5t112.5 -50.5q64 0 110.5 38zM334 772h81l-141 -160h-39zM495 772h82l-141 -160h-39z" />
    <glyph glyph-name="OE" unicode="&#x152;" horiz-adv-x="1089" 
d="M687 651l-45 -260h377l-9 -49h-377l-51 -293h402l-8 -49h-589q-158 0 -242.5 81t-84.5 226q0 116 56 205.5t157 138.5t232 49h594l-9 -49h-403zM627 651h-122q-114 0 -201 -43t-135 -121t-48 -180q0 -120 68.5 -188.5t198.5 -69.5h134z" />
    <glyph glyph-name="oe" unicode="&#x153;" horiz-adv-x="957" 
d="M518 258q-2 -26 -2 -39q0 -87 38 -134t114 -47q61 0 101 30.5t64 88.5l53 -17q-32 -74 -87 -111.5t-131 -37.5q-77 0 -126 33.5t-69 96.5q-36 -60 -92 -95.5t-127 -35.5q-96 0 -150.5 65t-54.5 171q0 82 32.5 153.5t93 114.5t138.5 43q71 0 120 -35t71 -98q34 61 89 96.5
t127 35.5q93 0 142 -55t49 -147q0 -33 -8 -76h-385zM592.5 438q-49.5 -53 -67.5 -135h326q3 21 3 39q0 70 -36 109.5t-101 39.5q-75 0 -124.5 -53zM368.5 78q46.5 38 70.5 98t24 126q0 85 -40 135t-113 50q-64 0 -110 -37t-70 -96.5t-24 -126.5q0 -86 39.5 -136.5
t112.5 -50.5q64 0 110.5 38z" />
    <glyph glyph-name="Racute" unicode="&#x154;" horiz-adv-x="683" 
d="M582.5 371.5q-54.5 -55.5 -146.5 -71.5l153 -300h-77l-129 294q-8 -1 -24 -1h-198l-53 -293h-61l123 700h250q105 0 161 -50.5t56 -135.5q0 -87 -54.5 -142.5zM371 342q96 0 151 44t55 122q0 66 -41 104.5t-118 38.5h-196l-54 -309h203zM478 932h89l-155 -160h-40z" />
    <glyph glyph-name="racute" unicode="&#x155;" horiz-adv-x="356" 
d="M250.5 495q49.5 38 128.5 38l-11 -58q-18 2 -25 2q-63 0 -107.5 -44t-87.5 -143l-51 -290h-57l92 527h58l-29 -159q40 89 89.5 127zM323 772h89l-154 -160h-41z" />
    <glyph glyph-name="uni0156" unicode="&#x156;" horiz-adv-x="683" 
d="M582.5 371.5q-54.5 -55.5 -146.5 -71.5l153 -300h-77l-129 294q-8 -1 -24 -1h-198l-53 -293h-61l123 700h250q105 0 161 -50.5t56 -135.5q0 -87 -54.5 -142.5zM371 342q96 0 151 44t55 122q0 66 -41 104.5t-118 38.5h-196l-54 -309h203zM308 -111q0 -56 -32.5 -91
t-89.5 -35v22q40 0 61 16.5t30 55.5h-5q-16 0 -26 8.5t-10 22.5q0 16 10 27t27 11q35 0 35 -37z" />
    <glyph glyph-name="uni0157" unicode="&#x157;" horiz-adv-x="356" 
d="M250.5 495q49.5 38 128.5 38l-11 -58q-18 2 -25 2q-63 0 -107.5 -44t-87.5 -143l-51 -290h-57l92 527h58l-29 -159q40 89 89.5 127zM85 -111q0 -56 -32.5 -91t-89.5 -35v22q40 0 61 16.5t30 55.5h-5q-16 0 -26 8.5t-10 22.5q0 16 10 27t27 11q35 0 35 -37z" />
    <glyph glyph-name="Rcaron" unicode="&#x158;" horiz-adv-x="683" 
d="M582.5 371.5q-54.5 -55.5 -146.5 -71.5l153 -300h-77l-129 294q-8 -1 -24 -1h-198l-53 -293h-61l123 700h250q105 0 161 -50.5t56 -135.5q0 -87 -54.5 -142.5zM371 342q96 0 151 44t55 122q0 66 -41 104.5t-118 38.5h-196l-54 -309h203zM323 932l76 -121l129 121h40
l-137 -160h-70l-79 160h41z" />
    <glyph glyph-name="rcaron" unicode="&#x159;" horiz-adv-x="356" 
d="M250.5 495q49.5 38 128.5 38l-11 -58q-18 2 -25 2q-63 0 -107.5 -44t-87.5 -143l-51 -290h-57l92 527h58l-29 -159q40 89 89.5 127zM180 772l76 -121l129 121h41l-138 -160h-69l-80 160h41z" />
    <glyph glyph-name="Sacute" unicode="&#x15a;" horiz-adv-x="606" 
d="M122 44.5q-70 54.5 -83 160.5l61 14q10 -88 65 -132.5t147 -44.5q74 0 123.5 39.5t49.5 104.5q0 37 -22.5 62t-56 40.5t-91.5 35.5q-65 22 -104.5 41t-67 52.5t-27.5 84.5q0 62 29.5 109t81.5 73t117 26q101 0 161.5 -44.5t72.5 -133.5l-63 -13q-8 70 -53 104.5
t-122 34.5q-49 0 -85.5 -19.5t-56.5 -52.5t-20 -73q0 -37 22.5 -62.5t55.5 -40.5t91 -35q64 -21 104 -40t67.5 -52.5t27.5 -84.5q0 -63 -31 -110.5t-85 -72.5t-121 -25q-117 0 -187 54.5zM480 932h89l-155 -160h-40z" />
    <glyph glyph-name="sacute" unicode="&#x15b;" horiz-adv-x="484" 
d="M90 32.5q-56 42.5 -67 115.5l58 17q7 -63 49 -96t107 -33q59 0 93 27.5t34 73.5q0 29 -17 48t-42 29.5t-69 23.5q-52 16 -83.5 30t-53.5 41.5t-22 72.5q0 71 49 113t131 42q75 0 125 -33.5t60 -99.5l-56 -14q-5 50 -40.5 75.5t-91.5 25.5q-55 0 -88 -27t-33 -73
q0 -31 17.5 -50.5t43.5 -30.5t70 -24q50 -15 81 -28.5t52.5 -40.5t21.5 -70q0 -71 -51 -114t-135 -43q-87 0 -143 42.5zM376 772h89l-154 -160h-41z" />
    <glyph glyph-name="Scedilla" unicode="&#x15e;" horiz-adv-x="606" 
d="M200.5 450.5q22.5 -25.5 55.5 -40.5t91 -35q64 -21 104 -40t67.5 -52.5t27.5 -84.5q0 -63 -31 -110.5t-85 -72.5t-121 -25h-14l-30 -64h8q36 -1 58 -22.5t22 -54.5q0 -41 -27.5 -66t-73.5 -25q-42 0 -70 23.5t-32 60.5l46 10q1 -25 16 -39t39 -14t39 13t15 34
q0 22 -14.5 34.5t-39.5 12.5h-26l-9 26l41 74q-94 11 -150.5 65t-67.5 147l61 14q10 -88 65 -132.5t147 -44.5q74 0 123.5 39.5t49.5 104.5q0 37 -22.5 62t-56 40.5t-91.5 35.5q-65 22 -104.5 41t-67 52.5t-27.5 84.5q0 62 29.5 109t81.5 73t117 26q101 0 161.5 -44.5
t72.5 -133.5l-63 -13q-8 70 -53 104.5t-122 34.5q-49 0 -85.5 -19.5t-56.5 -52.5t-20 -73q0 -37 22.5 -62.5z" />
    <glyph glyph-name="scedilla" unicode="&#x15f;" horiz-adv-x="484" 
d="M150.5 340.5q17.5 -19.5 43.5 -30.5t70 -24q50 -15 81 -28.5t52.5 -40.5t21.5 -70q0 -71 -51 -114t-135 -43h-13l-29 -64h7q36 -1 58 -22.5t22 -54.5q0 -41 -27.5 -66t-73.5 -25q-42 0 -70 24t-32 60l47 10q0 -24 15 -38.5t39 -14.5q25 0 40 13t15 34q0 22 -15 34.5
t-40 12.5h-26l-8 26l42 75q-67 11 -109.5 51.5t-51.5 102.5l58 17q7 -63 49 -96t107 -33q59 0 93 27.5t34 73.5q0 29 -17 48t-42 29.5t-69 23.5q-52 16 -83.5 30t-53.5 41.5t-22 72.5q0 71 49 113t131 42q75 0 125 -33.5t60 -99.5l-56 -14q-5 50 -40.5 75.5t-91.5 25.5
q-55 0 -88 -27t-33 -73q0 -31 17.5 -50.5z" />
    <glyph glyph-name="Scaron" unicode="&#x160;" horiz-adv-x="606" 
d="M122 44.5q-70 54.5 -83 160.5l61 14q10 -88 65 -132.5t147 -44.5q74 0 123.5 39.5t49.5 104.5q0 37 -22.5 62t-56 40.5t-91.5 35.5q-65 22 -104.5 41t-67 52.5t-27.5 84.5q0 62 29.5 109t81.5 73t117 26q101 0 161.5 -44.5t72.5 -133.5l-63 -13q-8 70 -53 104.5
t-122 34.5q-49 0 -85.5 -19.5t-56.5 -52.5t-20 -73q0 -37 22.5 -62.5t55.5 -40.5t91 -35q64 -21 104 -40t67.5 -52.5t27.5 -84.5q0 -63 -31 -110.5t-85 -72.5t-121 -25q-117 0 -187 54.5zM325 932l76 -121l129 121h40l-137 -160h-70l-79 160h41z" />
    <glyph glyph-name="scaron" unicode="&#x161;" horiz-adv-x="484" 
d="M90 32.5q-56 42.5 -67 115.5l58 17q7 -63 49 -96t107 -33q59 0 93 27.5t34 73.5q0 29 -17 48t-42 29.5t-69 23.5q-52 16 -83.5 30t-53.5 41.5t-22 72.5q0 71 49 113t131 42q75 0 125 -33.5t60 -99.5l-56 -14q-5 50 -40.5 75.5t-91.5 25.5q-55 0 -88 -27t-33 -73
q0 -31 17.5 -50.5t43.5 -30.5t70 -24q50 -15 81 -28.5t52.5 -40.5t21.5 -70q0 -71 -51 -114t-135 -43q-87 0 -143 42.5zM233 772l76 -121l129 121h41l-138 -160h-69l-80 160h41z" />
    <glyph glyph-name="uni0162" unicode="&#x162;" horiz-adv-x="596" 
d="M635 651h-239l-114 -651h-60l114 651h-239l9 49h538zM184 -186.5q15 -14.5 39 -14.5q25 0 39.5 13t14.5 34q0 22 -14.5 34.5t-39.5 12.5h-26l-9 26l45 81h38l-34 -74h8q36 -1 58 -22.5t22 -54.5q0 -41 -27.5 -66t-73.5 -25q-42 0 -70 23.5t-32 60.5l47 10q0 -24 15 -38.5
z" />
    <glyph glyph-name="uni0163" unicode="&#x163;" horiz-adv-x="335" 
d="M141 140q-4 -20 -4 -40q0 -33 14.5 -48.5t46.5 -15.5q36 0 64 17l6 -48q-35 -15 -75 -15h-3l-29 -64h8q36 -1 58 -22.5t22 -54.5q0 -41 -28 -66t-74 -25q-41 0 -69 23.5t-32 60.5l46 10q0 -24 15.5 -38.5t39.5 -14.5t39 13t15 34q0 22 -15 34.5t-40 12.5h-26l-8 26l42 75
q-74 15 -74 100q0 23 4 46l61 341h-88l8 46h89l42 173h44l-31 -173h136l-8 -46h-135z" />
    <glyph glyph-name="Tcaron" unicode="&#x164;" horiz-adv-x="596" 
d="M635 651h-239l-114 -651h-60l114 651h-239l9 49h538zM319 932l76 -121l129 121h40l-137 -160h-70l-79 160h41z" />
    <glyph glyph-name="tcaron" unicode="&#x165;" horiz-adv-x="335" 
d="M141 140q-4 -20 -4 -40q0 -33 14.5 -48.5t46.5 -15.5q36 0 64 17l6 -48q-35 -15 -75 -15q-113 0 -113 104q0 23 4 46l61 341h-88l8 46h89l42 173h44l-31 -173h136l-8 -46h-135zM357 772h58l-55 -160h-32z" />
    <glyph glyph-name="Tbar" unicode="&#x166;" horiz-adv-x="596" 
d="M396 651l-48 -277h150l-9 -49h-150l-57 -325h-60l57 325h-145l9 49h145l48 277h-239l9 49h538l-9 -49h-239z" />
    <glyph glyph-name="tbar" unicode="&#x167;" horiz-adv-x="335" 
d="M202 481l-30 -168h104l-6 -47h-107l-22 -126q-4 -20 -4 -40q0 -33 14.5 -48.5t46.5 -15.5q36 0 64 17l6 -48q-35 -15 -75 -15q-113 0 -113 104q0 23 4 46l22 126h-74l6 47h77l30 168h-88l8 46h89l42 173h44l-31 -173h136l-8 -46h-135z" />
    <glyph glyph-name="Umacron" unicode="&#x16a;" horiz-adv-x="695" 
d="M147 51.5q-67 61.5 -67 170.5q0 32 6 66l73 412h60l-73 -418q-5 -32 -5 -55q0 -85 51 -134t144 -49q83 0 139.5 50t74.5 151l80 455h61l-82 -460q-21 -122 -93.5 -186t-180.5 -64q-121 0 -188 61.5zM584 887l-8 -45h-246l8 45h246z" />
    <glyph glyph-name="umacron" unicode="&#x16b;" horiz-adv-x="570" 
d="M530 527l-92 -527h-58l32 161q-47 -75 -107.5 -123t-125.5 -48q-58 0 -89.5 35.5t-31.5 101.5q0 31 5 57l61 343h57l-61 -343q-4 -26 -4 -42q0 -45 20.5 -73.5t68.5 -28.5q60 0 113.5 51t101.5 126l53 310h57zM487 714l-8 -45h-246l8 45h246z" />
    <glyph glyph-name="Uring" unicode="&#x16e;" horiz-adv-x="695" 
d="M147 51.5q-67 61.5 -67 170.5q0 32 6 66l73 412h60l-73 -418q-5 -32 -5 -55q0 -85 51 -134t144 -49q83 0 139.5 50t74.5 151l80 455h61l-82 -460q-21 -122 -93.5 -186t-180.5 -64q-121 0 -188 61.5zM389.5 801.5q-26.5 24.5 -26.5 60.5q0 37 26.5 61.5t63.5 24.5
t63 -24.5t26 -61.5q0 -36 -26 -60.5t-63 -24.5t-63.5 24.5zM488.5 826q14.5 14 14.5 36t-14.5 36t-35.5 14t-35.5 -14t-14.5 -36t14.5 -36t35.5 -14t35.5 14z" />
    <glyph glyph-name="uring" unicode="&#x16f;" horiz-adv-x="570" 
d="M530 527l-92 -527h-58l32 161q-47 -75 -107.5 -123t-125.5 -48q-58 0 -89.5 35.5t-31.5 101.5q0 31 5 57l61 343h57l-61 -343q-4 -26 -4 -42q0 -45 20.5 -73.5t68.5 -28.5q60 0 113.5 51t101.5 126l53 310h57zM297 628.5q-26 24.5 -26 61.5q0 36 26 60.5t63 24.5
t63.5 -24.5t26.5 -60.5q0 -37 -26.5 -61.5t-63.5 -24.5t-63 24.5zM395.5 654q14.5 14 14.5 36t-14.5 36t-35.5 14t-35.5 -14t-14.5 -36t14.5 -36t35.5 -14t35.5 14z" />
    <glyph glyph-name="Uhungarumlaut" unicode="&#x170;" horiz-adv-x="695" 
d="M147 51.5q-67 61.5 -67 170.5q0 32 6 66l73 412h60l-73 -418q-5 -32 -5 -55q0 -85 51 -134t144 -49q83 0 139.5 50t74.5 151l80 455h61l-82 -460q-21 -122 -93.5 -186t-180.5 -64q-121 0 -188 61.5zM428 932h81l-141 -160h-39zM589 932h82l-141 -160h-39z" />
    <glyph glyph-name="uhungarumlaut" unicode="&#x171;" horiz-adv-x="570" 
d="M530 527l-92 -527h-58l32 161q-47 -75 -107.5 -123t-125.5 -48q-58 0 -89.5 35.5t-31.5 101.5q0 31 5 57l61 343h57l-61 -343q-4 -26 -4 -42q0 -45 20.5 -73.5t68.5 -28.5q60 0 113.5 51t101.5 126l53 310h57zM335 772h81l-141 -160h-39zM496 772h82l-141 -160h-39z" />
    <glyph glyph-name="Uogonek" unicode="&#x172;" horiz-adv-x="695" 
d="M691 700l-82 -460q-18 -101 -70.5 -162.5t-132.5 -79.5q-7 -5 -32 -22.5t-36.5 -34t-11.5 -35.5q0 -21 13.5 -33.5t38.5 -12.5q27 0 54 10l-9 -52q-28 -6 -51 -6q-47 0 -72.5 22.5t-25.5 58.5q0 56 74 97h-13q-121 0 -188 61.5t-67 170.5q0 32 6 66l73 412h60l-73 -418
q-5 -32 -5 -55q0 -85 51 -134t144 -49q83 0 139.5 50t74.5 151l80 455h61z" />
    <glyph glyph-name="uogonek" unicode="&#x173;" horiz-adv-x="570" 
d="M354.5 -127.5q13.5 -12.5 38.5 -12.5q28 0 53 10l-9 -52q-26 -6 -50 -6q-47 0 -72.5 22.5t-25.5 58.5q0 62 92 107h-1l32 161q-47 -75 -107.5 -123t-125.5 -48q-58 0 -89.5 35.5t-31.5 101.5q0 31 5 57l61 343h57l-61 -343q-4 -26 -4 -42q0 -45 20.5 -73.5t68.5 -28.5
q60 0 113.5 51t101.5 126l53 310h57l-92 -527h-15q-8 -6 -33.5 -24t-37 -34.5t-11.5 -35.5q0 -21 13.5 -33.5z" />
    <glyph glyph-name="Wcircumflex" unicode="&#x174;" horiz-adv-x="922" 
d="M989 700l-290 -700h-91l-81 639l-304 -639h-91l-45 700h65l38 -644l301 644h94l74 -644l265 644h65zM652 772l-76 123l-128 -123h-41l138 160h70l78 -160h-41z" />
    <glyph glyph-name="wcircumflex" unicode="&#x175;" horiz-adv-x="736" 
d="M765 527l-236 -527h-67l-57 460l-218 -460h-72l-50 527h59l36 -477l219 477h73l55 -476l200 476h58zM533 612l-77 123l-128 -123h-41l138 160h70l79 -160h-41z" />
    <glyph glyph-name="Ycircumflex" unicode="&#x176;" horiz-adv-x="608" 
d="M676 700l-335 -401l-52 -299h-62l52 298l-192 402h67l161 -363l291 363h70zM495 772l-76 123l-128 -123h-41l138 160h70l78 -160h-41z" />
    <glyph glyph-name="ycircumflex" unicode="&#x177;" horiz-adv-x="569" 
d="M529 527l-84 -479q-19 -104 -74 -161t-164 -57q-85 0 -137 39t-60 110l50 15q5 -59 45.5 -91t100.5 -32q81 0 124 44.5t57 127.5l24 138q-47 -71 -105.5 -116t-121.5 -45q-58 0 -89.5 35.5t-31.5 101.5q0 31 5 57l56 313h57l-56 -313q-4 -26 -4 -42q0 -45 20.5 -73.5
t68.5 -28.5q103 0 212 172l30 172l20 113h57zM449 612l-77 123l-128 -123h-41l138 160h70l79 -160h-41z" />
    <glyph glyph-name="Ydieresis" unicode="&#x178;" horiz-adv-x="608" 
d="M676 700l-335 -401l-52 -299h-62l52 298l-192 402h67l161 -363l291 363h70zM284.5 821q-12.5 12 -12.5 32t12.5 32t32.5 12q19 0 31.5 -12t12.5 -32q0 -19 -12.5 -31.5t-31.5 -12.5q-20 0 -32.5 12zM462.5 821q-12.5 12 -12.5 32t12.5 32t32.5 12q19 0 31.5 -12t12.5 -32
q0 -19 -12.5 -31.5t-31.5 -12.5q-20 0 -32.5 12z" />
    <glyph glyph-name="Zacute" unicode="&#x179;" horiz-adv-x="622" 
d="M646 656l-564 -607h464l-8 -49h-543l7 43l568 608h-456l8 49h531zM487 932h89l-155 -160h-40z" />
    <glyph glyph-name="zacute" unicode="&#x17a;" horiz-adv-x="495" 
d="M481 480l-406 -432h338l-9 -48h-405l7 42l412 437h-328l9 48h389zM383 772h89l-154 -160h-41z" />
    <glyph glyph-name="Zdotaccent" unicode="&#x17b;" horiz-adv-x="622" 
d="M646 656l-564 -607h464l-8 -49h-543l7 43l568 608h-456l8 49h531zM388 821.5q-12 12.5 -12 31.5q0 20 12 32t32 12q19 0 31.5 -12t12.5 -32q0 -19 -12.5 -31.5t-31.5 -12.5q-20 0 -32 12.5z" />
    <glyph glyph-name="zdotaccent" unicode="&#x17c;" horiz-adv-x="495" 
d="M481 480l-406 -432h338l-9 -48h-405l7 42l412 437h-328l9 48h389zM297 657.5q-12 12.5 -12 31.5q0 20 12 32t32 12q19 0 31.5 -12t12.5 -32q0 -19 -12.5 -31.5t-31.5 -12.5q-20 0 -32 12.5z" />
    <glyph glyph-name="Zcaron" unicode="&#x17d;" horiz-adv-x="622" 
d="M646 656l-564 -607h464l-8 -49h-543l7 43l568 608h-456l8 49h531zM332 932l76 -121l129 121h40l-137 -160h-70l-79 160h41z" />
    <glyph glyph-name="zcaron" unicode="&#x17e;" horiz-adv-x="495" 
d="M481 480l-406 -432h338l-9 -48h-405l7 42l412 437h-328l9 48h389zM240 772l76 -121l129 121h41l-138 -160h-69l-80 160h41z" />
    <glyph glyph-name="uni0218" unicode="&#x218;" horiz-adv-x="606" 
d="M122 44.5q-70 54.5 -83 160.5l61 14q10 -88 65 -132.5t147 -44.5q74 0 123.5 39.5t49.5 104.5q0 37 -22.5 62t-56 40.5t-91.5 35.5q-65 22 -104.5 41t-67 52.5t-27.5 84.5q0 62 29.5 109t81.5 73t117 26q101 0 161.5 -44.5t72.5 -133.5l-63 -13q-8 70 -53 104.5
t-122 34.5q-49 0 -85.5 -19.5t-56.5 -52.5t-20 -73q0 -37 22.5 -62.5t55.5 -40.5t91 -35q64 -21 104 -40t67.5 -52.5t27.5 -84.5q0 -63 -31 -110.5t-85 -72.5t-121 -25q-117 0 -187 54.5zM290 -111q0 -56 -32.5 -91t-89.5 -35v22q40 0 61 16.5t30 55.5h-5q-16 0 -26 8.5
t-10 22.5q0 16 10 27t27 11q35 0 35 -37z" />
    <glyph glyph-name="uni0219" unicode="&#x219;" horiz-adv-x="484" 
d="M90 32.5q-56 42.5 -67 115.5l58 17q7 -63 49 -96t107 -33q59 0 93 27.5t34 73.5q0 29 -17 48t-42 29.5t-69 23.5q-52 16 -83.5 30t-53.5 41.5t-22 72.5q0 71 49 113t131 42q75 0 125 -33.5t60 -99.5l-56 -14q-5 50 -40.5 75.5t-91.5 25.5q-55 0 -88 -27t-33 -73
q0 -31 17.5 -50.5t43.5 -30.5t70 -24q50 -15 81 -28.5t52.5 -40.5t21.5 -70q0 -71 -51 -114t-135 -43q-87 0 -143 42.5zM215 -111q0 -56 -32.5 -91t-89.5 -35v22q40 0 61 16.5t30 55.5h-5q-16 0 -26 8.5t-10 22.5q0 16 10 27t27 11q35 0 35 -37z" />
    <glyph glyph-name="uni021A" unicode="&#x21a;" horiz-adv-x="596" 
d="M635 651h-239l-114 -651h-60l114 651h-239l9 49h538zM262 -111q0 -56 -32.5 -91t-89.5 -35v22q40 0 61 16.5t30 55.5h-5q-16 0 -26 8.5t-10 22.5q0 16 10 27t27 11q35 0 35 -37z" />
    <glyph glyph-name="uni021B" unicode="&#x21b;" horiz-adv-x="335" 
d="M141 140q-4 -20 -4 -40q0 -33 14.5 -48.5t46.5 -15.5q36 0 64 17l6 -48q-35 -15 -75 -15q-113 0 -113 104q0 23 4 46l61 341h-88l8 46h89l42 173h44l-31 -173h136l-8 -46h-135zM185 -111q0 -56 -32.5 -91t-89.5 -35v22q40 0 61 16.5t30 55.5h-5q-16 0 -26 8.5t-10 22.5
q0 16 10 27t27 11q35 0 35 -37z" />
    <glyph glyph-name="uni0237" unicode="&#x237;" horiz-adv-x="229" 
d="M190 527l-92 -517q-16 -89 -62 -134.5t-118 -45.5q-13 0 -19 1l-1 50q15 -5 33 -5q44 0 70.5 29t38.5 95l92 527h58z" />
    <glyph glyph-name="gravecomb" unicode="&#x300;" horiz-adv-x="0" 
d="M-257 612l-154 160h88l107 -160h-41z" />
    <glyph glyph-name="acutecomb" unicode="&#x301;" horiz-adv-x="0" 
d="M-212 772h89l-154 -160h-41z" />
    <glyph glyph-name="uni0302" unicode="&#x302;" horiz-adv-x="0" 
d="M-182 612l-77 123l-128 -123h-41l138 160h70l79 -160h-41z" />
    <glyph glyph-name="tildecomb" unicode="&#x303;" horiz-adv-x="0" 
d="M-256.5 654.5q-12.5 6.5 -25.5 18.5q-12 10 -20.5 14.5t-19.5 4.5q-36 0 -46 -41h-50q9 43 36 64.5t62 21.5q19 0 30.5 -6t26.5 -19q10 -9 19 -14t21 -5q35 0 46 41h48q-9 -43 -34.5 -64.5t-61.5 -21.5q-19 0 -31.5 6.5z" />
    <glyph glyph-name="uni0304" unicode="&#x304;" horiz-adv-x="0" 
d="M-145 714l-8 -45h-246l8 45h246z" />
    <glyph glyph-name="uni0306" unicode="&#x306;" horiz-adv-x="0" 
d="M-358.5 659q-29.5 28 -29.5 77q0 7 2 23h46q-2 -14 -2 -21q0 -33 18.5 -52t49.5 -19q37 0 66 25t38 67h44q-12 -59 -54.5 -93.5t-99.5 -34.5q-49 0 -78.5 28z" />
    <glyph glyph-name="uni0307" unicode="&#x307;" horiz-adv-x="0" 
d="M-298 657.5q-12 12.5 -12 31.5q0 20 12 32t32 12q19 0 31.5 -12t12.5 -32q0 -19 -12.5 -31.5t-31.5 -12.5q-20 0 -32 12.5z" />
    <glyph glyph-name="uni0308" unicode="&#x308;" horiz-adv-x="0" 
d="M-347 657.5q-12 12.5 -12 31.5q0 20 12 32t32 12t32.5 -12t12.5 -32t-12.5 -32t-32.5 -12t-32 12.5zM-169 657.5q-12 12.5 -12 31.5q0 20 12 32t32 12t32.5 -12t12.5 -32t-12.5 -32t-32.5 -12t-32 12.5z" />
    <glyph glyph-name="uni030A" unicode="&#x30a;" horiz-adv-x="0" 
d="M-335 628.5q-26 24.5 -26 61.5q0 36 26 60.5t63 24.5t63.5 -24.5t26.5 -60.5q0 -37 -26.5 -61.5t-63.5 -24.5t-63 24.5zM-236.5 654q14.5 14 14.5 36t-14.5 36t-35.5 14t-35.5 -14t-14.5 -36t14.5 -36t35.5 -14t35.5 14z" />
    <glyph glyph-name="uni030B" unicode="&#x30b;" horiz-adv-x="0" 
d="M-297 772h81l-141 -160h-39zM-136 772h82l-141 -160h-39z" />
    <glyph glyph-name="uni030C" unicode="&#x30c;" horiz-adv-x="0" 
d="M-355 772l76 -121l129 121h41l-138 -160h-69l-80 160h41z" />
    <glyph glyph-name="uni0312" unicode="&#x312;" horiz-adv-x="0" 
d="M-274 717.5q10 -8.5 10 -22.5q0 -16 -10 -26.5t-27 -10.5t-26 7t-9 25q0 59 32 93.5t90 36.5l2 -20q-42 -4 -62 -19t-31 -55h4q17 0 27 -8.5z" />
    <glyph glyph-name="uni0326" unicode="&#x326;" horiz-adv-x="0" 
d="M-333 -111q0 -56 -32.5 -91t-89.5 -35v22q40 0 61 16.5t30 55.5h-5q-16 0 -26 8.5t-10 22.5q0 16 10 27t27 11q35 0 35 -37z" />
    <glyph glyph-name="uni0327" unicode="&#x327;" horiz-adv-x="0" 
d="M-346 -186.5q15 -14.5 39 -14.5q25 0 39.5 13t14.5 34q0 22 -14.5 34.5t-39.5 12.5h-26l-9 26l45 81h38l-34 -74h8q36 -1 58 -22.5t22 -54.5q0 -41 -27.5 -66t-73.5 -25q-42 0 -70 23.5t-32 60.5l47 10q0 -24 15 -38.5z" />
    <glyph glyph-name="uni0328" unicode="&#x328;" horiz-adv-x="0" 
d="M-299 -188q-47 0 -72.5 22.5t-25.5 58.5q0 73 129 123l5 -16q-6 -5 -18 -13q-35 -26 -49.5 -42t-14.5 -39q0 -21 13.5 -33.5t38.5 -12.5q27 0 54 10l-10 -52q-26 -6 -50 -6z" />
    <glyph glyph-name="uni0335" unicode="&#x335;" horiz-adv-x="0" 
d="M-457 379h355l-9 -50h-355z" />
    <glyph glyph-name="uni0336" unicode="&#x336;" horiz-adv-x="0" 
d="M5 379l-10 -50h-600l10 50h600z" />
    <glyph glyph-name="uni0337" unicode="&#x337;" horiz-adv-x="0" 
d="M-264 279l272 277l33 -33l-279 -271l-267 -272l-31 31z" />
    <glyph glyph-name="uni0338" unicode="&#x338;" horiz-adv-x="0" 
d="M122 725l31 -32l-373 -352l-375 -364l-32 32z" />
    <glyph glyph-name="Wgrave" unicode="&#x1e80;" horiz-adv-x="922" 
d="M989 700l-290 -700h-91l-81 639l-304 -639h-91l-45 700h65l38 -644l301 644h94l74 -644l265 644h65zM544 772l-155 160h89l107 -160h-41z" />
    <glyph glyph-name="wgrave" unicode="&#x1e81;" horiz-adv-x="736" 
d="M765 527l-236 -527h-67l-57 460l-218 -460h-72l-50 527h59l36 -477l219 477h73l55 -476l200 476h58zM411 612l-154 160h88l107 -160h-41z" />
    <glyph glyph-name="Wacute" unicode="&#x1e82;" horiz-adv-x="922" 
d="M989 700l-290 -700h-91l-81 639l-304 -639h-91l-45 700h65l38 -644l301 644h94l74 -644l265 644h65zM637 932h89l-155 -160h-40z" />
    <glyph glyph-name="wacute" unicode="&#x1e83;" horiz-adv-x="736" 
d="M765 527l-236 -527h-67l-57 460l-218 -460h-72l-50 527h59l36 -477l219 477h73l55 -476l200 476h58zM503 772h89l-154 -160h-41z" />
    <glyph glyph-name="Wdieresis" unicode="&#x1e84;" horiz-adv-x="922" 
d="M989 700l-290 -700h-91l-81 639l-304 -639h-91l-45 700h65l38 -644l301 644h94l74 -644l265 644h65zM441.5 821q-12.5 12 -12.5 32t12.5 32t32.5 12q19 0 31.5 -12t12.5 -32q0 -19 -12.5 -31.5t-31.5 -12.5q-20 0 -32.5 12zM619.5 821q-12.5 12 -12.5 32t12.5 32t32.5 12
q19 0 31.5 -12t12.5 -32q0 -19 -12.5 -31.5t-31.5 -12.5q-20 0 -32.5 12z" />
    <glyph glyph-name="wdieresis" unicode="&#x1e85;" horiz-adv-x="736" 
d="M765 527l-236 -527h-67l-57 460l-218 -460h-72l-50 527h59l36 -477l219 477h73l55 -476l200 476h58zM318 657.5q-12 12.5 -12 31.5q0 20 12 32t32 12t32.5 -12t12.5 -32t-12.5 -32t-32.5 -12t-32 12.5zM496 657.5q-12 12.5 -12 31.5q0 20 12 32t32 12t32.5 -12t12.5 -32
t-12.5 -32t-32.5 -12t-32 12.5z" />
    <glyph glyph-name="uni1E9E" unicode="&#x1e9e;" horiz-adv-x="708" 
d="M564 604.5q-47 -29.5 -75 -69t-28 -80.5q0 -33 19 -56t60 -56q33 -26 53 -46t34 -48.5t14 -64.5q0 -57 -27.5 -101t-76.5 -68.5t-112 -24.5q-83 0 -142.5 34.5t-69.5 99.5l62 16q7 -46 48.5 -73t103.5 -27q67 0 110 37.5t43 94.5q0 27 -11.5 48t-28 36.5t-46.5 40.5
q-47 36 -71 66.5t-24 75.5q0 57 40.5 114t127.5 93h-150q-102 0 -158 -45t-72 -141l-81 -460h-60l82 465q22 124 92 179.5t201 55.5h255l-9 -53q-56 -13 -103 -42.5z" />
    <glyph glyph-name="Ygrave" unicode="&#x1ef2;" horiz-adv-x="608" 
d="M676 700l-335 -401l-52 -299h-62l52 298l-192 402h67l161 -363l291 363h70zM387 772l-155 160h89l107 -160h-41z" />
    <glyph glyph-name="ygrave" unicode="&#x1ef3;" horiz-adv-x="569" 
d="M529 527l-84 -479q-19 -104 -74 -161t-164 -57q-85 0 -137 39t-60 110l50 15q5 -59 45.5 -91t100.5 -32q81 0 124 44.5t57 127.5l24 138q-47 -71 -105.5 -116t-121.5 -45q-58 0 -89.5 35.5t-31.5 101.5q0 31 5 57l56 313h57l-56 -313q-4 -26 -4 -42q0 -45 20.5 -73.5
t68.5 -28.5q103 0 212 172l30 172l20 113h57zM328 612l-154 160h88l107 -160h-41z" />
    <glyph glyph-name="uni2009" unicode="&#x2009;" horiz-adv-x="114" 
 />
    <glyph glyph-name="endash" unicode="&#x2013;" horiz-adv-x="612" 
d="M58 308h512l-8 -45l-512 -1z" />
    <glyph glyph-name="emdash" unicode="&#x2014;" horiz-adv-x="1098" 
d="M56 301h998l-7 -45l-998 -1z" />
    <glyph glyph-name="quoteleft" unicode="&#x2018;" horiz-adv-x="266" 
d="M223 582.5q12 -11.5 12 -30.5t-11 -31.5t-32 -12.5q-22 0 -34.5 14t-12.5 40q0 43 25 79.5t79 62.5l13 -24q-34 -19 -50 -38.5t-20 -46.5q19 -1 31 -12.5z" />
    <glyph glyph-name="quoteright" unicode="&#x2019;" horiz-adv-x="266" 
d="M229.5 688q12.5 -14 12.5 -39q0 -44 -25 -80.5t-79 -62.5l-14 25q35 19 51.5 38.5t19.5 46.5q-19 1 -31.5 12.5t-12.5 29.5q0 20 11 32t33 12t34.5 -14z" />
    <glyph glyph-name="quotesinglbase" unicode="&#x201a;" horiz-adv-x="265" 
d="M119.5 69q12.5 -14 12.5 -39q0 -44 -25 -80.5t-79 -62.5l-14 25q35 19 51.5 38.5t19.5 46.5q-19 1 -31.5 12.5t-12.5 29.5q0 20 11 32t33 12t34.5 -14z" />
    <glyph glyph-name="quotedblleft" unicode="&#x201c;" horiz-adv-x="415" 
d="M212 641.5q-16 -19.5 -20 -46.5q19 -1 31 -12.5t12 -30.5t-11 -31.5t-32 -12.5q-22 0 -34.5 14t-12.5 40q0 43 25 79.5t79 62.5l13 -24q-34 -19 -50 -38.5zM371.5 582q12.5 -12 12.5 -30q0 -19 -11 -31.5t-32 -12.5q-23 0 -35 14t-12 40q0 93 104 142l13 -24
q-35 -19 -51 -38t-20 -47q19 -1 31.5 -13z" />
    <glyph glyph-name="quotedblright" unicode="&#x201d;" horiz-adv-x="415" 
d="M229.5 688q12.5 -14 12.5 -39q0 -44 -25 -80.5t-79 -62.5l-14 25q35 19 51.5 38.5t19.5 46.5q-19 1 -31.5 12.5t-12.5 29.5q0 20 11 32t33 12t34.5 -14zM378.5 688q12.5 -14 12.5 -39q0 -44 -25 -80.5t-79 -62.5l-14 25q35 19 51.5 38.5t19.5 46.5q-19 1 -31.5 12.5
t-12.5 29.5q0 20 11 32t33 12t34.5 -14z" />
    <glyph glyph-name="quotedblbase" unicode="&#x201e;" horiz-adv-x="414" 
d="M119.5 69q12.5 -14 12.5 -39q0 -44 -25 -80.5t-79 -62.5l-14 25q35 19 51.5 38.5t19.5 46.5q-19 1 -31.5 12.5t-12.5 29.5q0 20 11 32t33 12t34.5 -14zM268.5 69q12.5 -14 12.5 -39q0 -44 -25 -80.5t-79 -62.5l-14 25q35 19 51.5 38.5t19.5 46.5q-19 1 -31.5 12.5
t-12.5 29.5q0 20 11 32t33 12t34.5 -14z" />
    <glyph glyph-name="dagger" unicode="&#x2020;" horiz-adv-x="449" 
d="M426 564h-128l-55 -312h-42l55 312h-127l7 40h127l24 136h42l-24 -136h128z" />
    <glyph glyph-name="daggerdbl" unicode="&#x2021;" horiz-adv-x="449" 
d="M298 564l-24 -136h129l-7 -40h-129l-24 -136h-42l24 136h-126l7 40h126l24 136h-127l7 40h127l24 136h42l-24 -136h128l-7 -40h-128z" />
    <glyph glyph-name="bullet" unicode="&#x2022;" horiz-adv-x="431" 
d="M350 212h-244v244h244v-244z" />
    <glyph glyph-name="ellipsis" unicode="&#x2026;" horiz-adv-x="709" 
d="M282.5 8q-12.5 12 -12.5 32t12.5 32t32.5 12t32 -12t12 -32q0 -19 -12 -31.5t-32 -12.5t-32.5 12zM499.5 8q-12.5 12 -12.5 32t12.5 32t32.5 12t32 -12t12 -32q0 -19 -12 -31.5t-32 -12.5t-32.5 12zM65.5 8q-12.5 12 -12.5 32t12.5 32t32.5 12t32 -12t12 -32
q0 -19 -12 -31.5t-32 -12.5t-32.5 12z" />
    <glyph glyph-name="perthousand" unicode="&#x2030;" horiz-adv-x="1347" 
d="M162 377q-44 46 -44 122q0 58 25 106.5t69 77t99 28.5q78 0 122 -44.5t44 -116.5q0 -61 -24.5 -111t-69 -79t-100.5 -29q-77 0 -121 46zM461 350l277 350h55l-300 -368l-261 -332h-55zM360 396q32 24 49 64t17 87q0 57 -30.5 90t-85.5 33q-43 0 -75 -24t-49 -63t-17 -83
q0 -60 30.5 -94t85.5 -34q43 0 75 24zM546.5 30q-43.5 46 -43.5 123q0 58 24.5 106.5t68.5 76.5t100 28q78 0 122 -45.5t44 -117.5q0 -60 -25 -110t-69.5 -78.5t-99.5 -28.5q-78 0 -121.5 46zM944 30q-44 46 -44 122q0 58 25 106.5t69 77t99 28.5q78 0 122 -45.5t44 -117.5
q0 -60 -25 -110t-69.5 -78.5t-99.5 -28.5q-77 0 -121 46zM745 50.5q32 24.5 49 65t17 88.5q-1 55 -31.5 87.5t-85.5 32.5q-43 0 -74.5 -24t-48.5 -63.5t-17 -83.5q0 -60 30.5 -93.5t85.5 -33.5q43 0 75 24.5zM1142 49q32 24 49 64t17 87q0 57 -30.5 90t-86.5 33
q-43 0 -74.5 -24t-48.5 -63t-17 -83q0 -60 30.5 -94t85.5 -34q43 0 75 24z" />
    <glyph glyph-name="guilsinglleft" unicode="&#x2039;" horiz-adv-x="302" 
d="M221 471h54q-44 -92 -175 -180q100 -89 111 -180h-54q-10 85 -102 172l2 16q123 87 164 172z" />
    <glyph glyph-name="guilsinglright" unicode="&#x203a;" horiz-adv-x="302" 
d="M91 111h-54q44 92 175 180q-100 89 -111 180h54q10 -85 102 -172l-3 -16q-121 -86 -163 -172z" />
    <glyph glyph-name="fraction" unicode="&#x2044;" horiz-adv-x="198" 
d="M90 350l276 350h55l-300 -368l-260 -332h-56z" />
    <glyph glyph-name="uni2070" unicode="&#x2070;" horiz-adv-x="400" 
d="M393 764.5q39 -45.5 39 -125.5q0 -75 -22.5 -141t-67 -107t-107.5 -41q-76 0 -115 45.5t-39 126.5q0 73 23 139.5t68 107.5t107 41q75 0 114 -45.5zM197.5 726q-31.5 -36 -47 -91.5t-15.5 -115.5q0 -121 102 -121q46 0 78.5 35t48 90t15.5 114q0 125 -103 125
q-47 0 -78.5 -36z" />
    <glyph glyph-name="uni2074" unicode="&#x2074;" horiz-adv-x="413" 
d="M411 468h-67l-20 -116h-52l20 116h-247l7 34l282 298h69l-51 -292h67zM300 508l45 256l-238 -256h193z" />
    <glyph glyph-name="uni2075" unicode="&#x2075;" horiz-adv-x="386" 
d="M214 759q-19 -85 -63 -178q44 64 124 64q58 0 93 -34.5t35 -94.5q0 -47 -22 -85.5t-62 -61t-92 -22.5q-62 0 -105 31t-53 85l52 12q6 -40 36 -63t73 -23q57 0 88.5 37t31.5 87q0 44 -25.5 67.5t-69.5 23.5q-36 0 -62 -15.5t-48 -41.5l-47 15q58 123 81 238h259l-7 -41
h-217z" />
    <glyph glyph-name="uni2076" unicode="&#x2076;" horiz-adv-x="395" 
d="M370 610q38 -36 38 -96q0 -45 -20.5 -82.5t-59 -59.5t-89.5 -22q-76 0 -115.5 47t-39.5 128q0 69 25 135t71.5 108t108.5 42q43 0 84 -22t55 -73l-50 -13q-8 34 -32 51t-56 17q-61 0 -99 -54.5t-51 -131.5q56 62 132 62q60 0 98 -36zM324.5 427q30.5 37 30.5 87
q0 44 -26.5 69.5t-70.5 25.5q-64 0 -122 -63v-19q0 -69 28.5 -103t76.5 -34q53 0 83.5 37z" />
    <glyph glyph-name="uni2077" unicode="&#x2077;" horiz-adv-x="334" 
d="M429 800l-7 -43q-81 -69 -129 -130.5t-73.5 -125.5t-41.5 -149h-60q26 120 83 219t178 188h-283l7 41h326z" />
    <glyph glyph-name="uni2078" unicode="&#x2078;" horiz-adv-x="389" 
d="M400 479q0 -56 -45 -92.5t-122 -36.5q-75 0 -121.5 33.5t-46.5 89.5q0 52 39 85t101 40q-83 24 -83 95q0 51 41 84t109 33q66 0 108 -31t42 -81q0 -43 -31.5 -72.5t-88.5 -36.5q98 -28 98 -110zM200.5 634.5q27.5 -20.5 68.5 -20.5q45 0 72.5 22.5t27.5 57.5t-27.5 56.5
t-69.5 21.5q-44 0 -71.5 -24t-27.5 -59q0 -34 27.5 -54.5zM316.5 416q30.5 27 30.5 66q0 40 -31 63.5t-80 23.5q-51 0 -83.5 -26t-32.5 -67q0 -40 31 -63.5t82 -23.5q53 0 83.5 27z" />
    <glyph glyph-name="uni2079" unicode="&#x2079;" horiz-adv-x="395" 
d="M397.5 763q39.5 -47 39.5 -129q0 -69 -25 -134.5t-71.5 -107.5t-108.5 -42q-44 0 -84 22t-54 73l49 13q8 -34 32 -51t57 -17q60 0 98 54.5t51 131.5q-57 -63 -132 -63q-60 0 -97.5 36.5t-37.5 96.5q0 45 20.5 82.5t58.5 59.5t89 22q76 0 115.5 -47zM384 613q1 6 1 19
q0 69 -28.5 103t-76.5 34q-53 0 -83.5 -36.5t-30.5 -86.5q0 -44 26.5 -69.5t71.5 -25.5q65 0 120 62z" />
    <glyph glyph-name="uni2080" unicode="&#x2080;" horiz-adv-x="400" 
d="M305 264.5q39 -45.5 39 -125.5q0 -75 -22.5 -141t-67 -107t-107.5 -41q-76 0 -115 45.5t-39 126.5q0 73 23 139.5t68 107.5t107 41q75 0 114 -45.5zM109.5 226q-31.5 -36 -47 -91.5t-15.5 -115.5q0 -121 102 -121q46 0 78.5 35t48 90t15.5 114q0 125 -103 125
q-47 0 -78.5 -36z" />
    <glyph glyph-name="uni2081" unicode="&#x2081;" horiz-adv-x="267" 
d="M197 300l-79 -448h-53l72 405q-34 -51 -120 -84l-13 43q56 19 89.5 38t60.5 46h43z" />
    <glyph glyph-name="uni2082" unicode="&#x2082;" horiz-adv-x="378" 
d="M41 -101h250l-8 -43h-318l6 36l150 106q82 58 118 97t36 85q0 40 -26.5 63.5t-68.5 23.5q-53 0 -84.5 -36.5t-27.5 -107.5h-52q0 92 46 139t122 47q66 0 105 -35t39 -92q0 -41 -21.5 -75.5t-62 -67t-109.5 -77.5z" />
    <glyph glyph-name="uni2083" unicode="&#x2083;" horiz-adv-x="407" 
d="M297 48.5q27 -27.5 27 -69.5q0 -58 -47.5 -93.5t-121.5 -35.5q-75 0 -121 36t-51 94l52 11q3 -48 37.5 -73t84.5 -25q51 0 82 25.5t31 65.5q0 36 -27.5 58.5t-77.5 22.5h-34l7 40h49q49 0 78 22t29 61q0 36 -27 57.5t-70 21.5q-42 0 -73.5 -23.5t-42.5 -62.5l-49 14
q16 53 58 84t107 31q67 0 108.5 -32t41.5 -83q0 -48 -33.5 -77t-90.5 -34q47 -8 74 -35.5z" />
    <glyph glyph-name="uni2084" unicode="&#x2084;" horiz-adv-x="413" 
d="M323 -32h-67l-20 -116h-52l20 116h-247l7 34l282 298h69l-51 -292h67zM212 8l45 256l-238 -256h193z" />
    <glyph glyph-name="uni2085" unicode="&#x2085;" horiz-adv-x="386" 
d="M126 259q-19 -85 -63 -178q44 64 124 64q58 0 93 -34.5t35 -94.5q0 -47 -22 -85.5t-62 -61t-92 -22.5q-62 0 -105 31t-53 85l52 12q6 -40 36 -63t73 -23q57 0 88.5 37t31.5 87q0 44 -25.5 67.5t-69.5 23.5q-36 0 -62 -15.5t-48 -41.5l-47 15q58 123 81 238h259l-7 -41
h-217z" />
    <glyph glyph-name="uni2086" unicode="&#x2086;" horiz-adv-x="395" 
d="M282 110q38 -36 38 -96q0 -45 -20.5 -82.5t-59 -59.5t-89.5 -22q-76 0 -115.5 47t-39.5 128q0 69 25 135t71.5 108t108.5 42q43 0 84 -22t55 -73l-50 -13q-8 34 -32 51t-56 17q-61 0 -99 -54.5t-51 -131.5q56 62 132 62q60 0 98 -36zM236.5 -73q30.5 37 30.5 87
q0 44 -26.5 69.5t-70.5 25.5q-64 0 -122 -63v-19q0 -69 28.5 -103t76.5 -34q53 0 83.5 37z" />
    <glyph glyph-name="uni2087" unicode="&#x2087;" horiz-adv-x="334" 
d="M341 300l-7 -43q-81 -69 -129 -130.5t-73.5 -125.5t-41.5 -149h-60q26 120 83 219t178 188h-283l7 41h326z" />
    <glyph glyph-name="uni2088" unicode="&#x2088;" horiz-adv-x="389" 
d="M312 -21q0 -56 -45 -92.5t-122 -36.5q-75 0 -121.5 33.5t-46.5 89.5q0 52 39 85t101 40q-83 24 -83 95q0 51 41 84t109 33q66 0 108 -31t42 -81q0 -43 -31.5 -72.5t-88.5 -36.5q98 -28 98 -110zM112.5 134.5q27.5 -20.5 68.5 -20.5q45 0 72.5 22.5t27.5 57.5t-27.5 56.5
t-69.5 21.5q-44 0 -71.5 -24t-27.5 -59q0 -34 27.5 -54.5zM228.5 -84q30.5 27 30.5 66q0 40 -31 63.5t-80 23.5q-51 0 -83.5 -26t-32.5 -67q0 -40 31 -63.5t82 -23.5q53 0 83.5 27z" />
    <glyph glyph-name="uni2089" unicode="&#x2089;" horiz-adv-x="395" 
d="M308.5 263q39.5 -47 39.5 -129q0 -69 -25 -134.5t-71.5 -107.5t-108.5 -42q-44 0 -84 22t-54 73l49 13q8 -34 32 -51t57 -17q60 0 98 54.5t51 131.5q-57 -63 -132 -63q-60 0 -97.5 36.5t-37.5 96.5q0 45 20.5 82.5t58.5 59.5t89 22q76 0 115.5 -47zM295 113q1 6 1 19
q0 69 -28.5 103t-76.5 34q-53 0 -83.5 -36.5t-30.5 -86.5q0 -44 26.5 -69.5t71.5 -25.5q65 0 120 62z" />
    <glyph glyph-name="uni20A8" unicode="&#x20a8;" 
d="M581 658h-161q59 -43 59 -124h81l-7 -42h-78q-14 -67 -74.5 -105t-157.5 -48q60 -17 94 -54.5t41 -86.5l29 -198h-70l-19 192q-7 70 -47 99.5t-133 29.5h-40l9 50h103q79 0 135 31.5t70 89.5h-286l7 42h282q-2 52 -40 84.5t-109 32.5h-112l9 49h422z" />
    <glyph glyph-name="Euro" unicode="&#x20ac;" 
d="M602 639l-41 -32q-42 59 -123 59q-82 0 -143.5 -61t-93.5 -157h254l-24 -41h-242q-13 -47 -16 -101h199l-24 -41h-176q2 -109 52 -169.5t139 -60.5q38 0 67.5 12.5t54.5 39.5l29 -43q-67 -54 -152 -54q-72 0 -127.5 33t-87.5 95t-34 147h-94l8 41h87q1 49 14 101h-85
l8 41h89q37 115 116 188.5t184 73.5q102 0 162 -71z" />
    <glyph glyph-name="uni2116" unicode="&#x2116;" horiz-adv-x="1262" 
d="M727 700l-123 -700h-78l-306 644l-114 -644h-59l123 700h81l305 -631l111 631h60zM862.5 341q-48.5 51 -48.5 135q0 65 27.5 118.5t76.5 84.5t110 31q86 0 134.5 -50t48.5 -130q0 -67 -27.5 -122t-76.5 -86.5t-110 -31.5q-86 0 -134.5 51zM1081.5 363q35.5 27 54.5 72
t19 98q-1 60 -35 96t-94 36q-47 0 -82.5 -26.5t-54 -69.5t-18.5 -92q0 -66 33.5 -103.5t94.5 -37.5q47 0 82.5 27zM808 166l8 47h270l-8 -47h-270z" />
    <glyph glyph-name="trademark" unicode="&#x2122;" horiz-adv-x="685" 
d="M349 665h-101l-47 -270h-43l48 270h-101l6 36h244zM729 701l-54 -306h-43l48 270l-149 -270h-37l-53 271l-48 -271h-39l54 306h60l52 -256l141 256h68z" />
    <glyph glyph-name="oneeighth" unicode="&#x215b;" horiz-adv-x="853" 
d="M267 700l-79 -448h-53l72 405q-34 -51 -120 -84l-13 43q56 19 89.5 38t60.5 46h43zM367 350l276 350h55l-300 -368l-260 -332h-56zM801 123q0 -56 -45 -92.5t-122 -36.5q-75 0 -121.5 33.5t-46.5 89.5q0 52 39 85t101 40q-83 24 -83 95q0 51 41 84t109 33q66 0 108 -31
t42 -81q0 -43 -31.5 -72.5t-88.5 -36.5q98 -28 98 -110zM601.5 278.5q27.5 -20.5 68.5 -20.5q45 0 72.5 22.5t27.5 57.5t-27.5 56.5t-69.5 21.5q-44 0 -71.5 -24t-27.5 -59q0 -34 27.5 -54.5zM717.5 60q30.5 27 30.5 66q0 40 -31 63.5t-80 23.5q-51 0 -83.5 -26t-32.5 -67
q0 -40 31 -63.5t82 -23.5q53 0 83.5 27z" />
    <glyph glyph-name="threeeighths" unicode="&#x215c;" horiz-adv-x="984" 
d="M367 448.5q27 -27.5 27 -69.5q0 -58 -47.5 -93.5t-121.5 -35.5q-75 0 -121 36t-51 94l52 11q3 -48 37.5 -73t84.5 -25q51 0 82 25.5t31 65.5q0 36 -27.5 58.5t-77.5 22.5h-34l7 40h49q49 0 78 22t29 61q0 36 -27 57.5t-70 21.5q-42 0 -73.5 -23.5t-42.5 -62.5l-49 14
q16 53 58 84t107 31q67 0 108.5 -32t41.5 -83q0 -48 -33.5 -77t-90.5 -34q47 -8 74 -35.5zM497 350l276 350h55l-300 -368l-260 -332h-56zM932 123q0 -56 -45 -92.5t-122 -36.5q-75 0 -121.5 33.5t-46.5 89.5q0 52 39 85t101 40q-83 24 -83 95q0 51 41 84t109 33
q66 0 108 -31t42 -81q0 -43 -31.5 -72.5t-88.5 -36.5q98 -28 98 -110zM732.5 278.5q27.5 -20.5 68.5 -20.5q45 0 72.5 22.5t27.5 57.5t-27.5 56.5t-69.5 21.5q-44 0 -71.5 -24t-27.5 -59q0 -34 27.5 -54.5zM848.5 60q30.5 27 30.5 66q0 40 -31 63.5t-80 23.5
q-51 0 -83.5 -26t-32.5 -67q0 -40 31 -63.5t82 -23.5q53 0 83.5 27z" />
    <glyph glyph-name="fiveeighths" unicode="&#x215d;" horiz-adv-x="983" 
d="M196 659q-19 -85 -63 -178q44 64 124 64q58 0 93 -34.5t35 -94.5q0 -47 -22 -85.5t-62 -61t-92 -22.5q-62 0 -105 31t-53 85l52 12q6 -40 36 -63t73 -23q57 0 88.5 37t31.5 87q0 44 -25.5 67.5t-69.5 23.5q-36 0 -62 -15.5t-48 -41.5l-47 15q58 123 81 238h259l-7 -41
h-217zM496 350l276 350h55l-300 -368l-260 -332h-56zM931 123q0 -56 -45 -92.5t-122 -36.5q-75 0 -121.5 33.5t-46.5 89.5q0 52 39 85t101 40q-83 24 -83 95q0 51 41 84t109 33q66 0 108 -31t42 -81q0 -43 -31.5 -72.5t-88.5 -36.5q98 -28 98 -110zM731.5 278.5
q27.5 -20.5 68.5 -20.5q45 0 72.5 22.5t27.5 57.5t-27.5 56.5t-69.5 21.5q-44 0 -71.5 -24t-27.5 -59q0 -34 27.5 -54.5zM847.5 60q30.5 27 30.5 66q0 40 -31 63.5t-80 23.5q-51 0 -83.5 -26t-32.5 -67q0 -40 31 -63.5t82 -23.5q53 0 83.5 27z" />
    <glyph glyph-name="seveneighths" unicode="&#x215e;" horiz-adv-x="874" 
d="M411 700l-7 -43q-81 -69 -129 -130.5t-73.5 -125.5t-41.5 -149h-60q26 120 83 219t178 188h-283l7 41h326zM387 350l276 350h55l-300 -368l-260 -332h-56zM822 123q0 -56 -45 -92.5t-122 -36.5q-75 0 -121.5 33.5t-46.5 89.5q0 52 39 85t101 40q-83 24 -83 95q0 51 41 84
t109 33q66 0 108 -31t42 -81q0 -43 -31.5 -72.5t-88.5 -36.5q98 -28 98 -110zM622.5 278.5q27.5 -20.5 68.5 -20.5q45 0 72.5 22.5t27.5 57.5t-27.5 56.5t-69.5 21.5q-44 0 -71.5 -24t-27.5 -59q0 -34 27.5 -54.5zM738.5 60q30.5 27 30.5 66q0 40 -31 63.5t-80 23.5
q-51 0 -83.5 -26t-32.5 -67q0 -40 31 -63.5t82 -23.5q53 0 83.5 27z" />
    <glyph glyph-name="arrowleft" unicode="&#x2190;" horiz-adv-x="992" 
d="M972 324h-878l290 -281l-37 -37l-327 328v30l327 327l37 -36l-290 -280h878v-51z" />
    <glyph glyph-name="arrowup" unicode="&#x2191;" horiz-adv-x="704" 
d="M648 347l-271 275v-622h-50v622l-270 -275l-37 37l317 317h29l318 -317z" />
    <glyph glyph-name="arrowright" unicode="&#x2192;" horiz-adv-x="992" 
d="M972 364v-30l-327 -328l-37 37l290 281h-878v51h878l-290 280l37 36z" />
    <glyph glyph-name="arrowdown" unicode="&#x2193;" horiz-adv-x="704" 
d="M684 317l-318 -317h-29l-317 317l37 37l270 -275v622h50v-622l271 275z" />
    <glyph glyph-name="uni2196" unicode="&#x2196;" horiz-adv-x="823" 
d="M767 -2l-623 622l8 -404h-52l1 463l20 20l463 1v-52l-404 8l623 -621z" />
    <glyph glyph-name="uni2197" unicode="&#x2197;" horiz-adv-x="823" 
d="M671 216l8 404l-623 -622l-36 37l622 621l-404 -8v52l463 -1l21 -20l1 -463h-52z" />
    <glyph glyph-name="uni2198" unicode="&#x2198;" horiz-adv-x="823" 
d="M723 482l-1 -463l-21 -20l-463 -1v52l404 -8l-622 621l36 37l623 -622l-8 404h52z" />
    <glyph glyph-name="uni2199" unicode="&#x2199;" horiz-adv-x="823" 
d="M180 42l404 8v-52l-463 1l-20 20l-1 463h52l-8 -404l623 622l36 -37z" />
    <glyph glyph-name="minus" unicode="&#x2212;" horiz-adv-x="599" 
d="M74 356h483l-7 -45h-484z" />
    <glyph glyph-name="approxequal" unicode="&#x2248;" horiz-adv-x="603" 
d="M113 375q14 43 44 71t77 28q26 0 49.5 -8t54.5 -23q29 -13 46.5 -19.5t36.5 -6.5q33 0 53.5 16.5t29.5 40.5l42 -9q-14 -44 -44 -72t-77 -28q-26 0 -50 8.5t-55 23.5q-29 13 -46.5 19.5t-35.5 6.5q-33 0 -53.5 -16.5t-28.5 -40.5zM80 195q14 43 44 71t77 28q26 0 49.5 -8
t54.5 -23q29 -13 46.5 -19.5t36.5 -6.5q33 0 53.5 16.5t29.5 40.5l42 -9q-14 -44 -44 -72t-77 -28q-26 0 -50 8.5t-55 23.5q-29 13 -46.5 19.5t-35.5 6.5q-33 0 -53.5 -16.5t-28.5 -40.5z" />
    <glyph glyph-name="notequal" unicode="&#x2260;" 
d="M380 411l-108 -155h267l-7 -45h-292l-101 -145h-52l101 145h-140l8 45h164l108 155h-245l8 45h269l101 145h52l-101 -145h162l-7 -45h-187z" />
    <glyph glyph-name="lessequal" unicode="&#x2264;" 
d="M531 519l-332 -121l289 -120l-11 -62l-344 158l8 48l400 158zM93 144h372l-10 -50h-371z" />
    <glyph glyph-name="greaterequal" unicode="&#x2265;" 
d="M514 422l-9 -48l-399 -158l11 62l331 120l-289 121l11 61zM93 144h372l-9 -50h-371z" />
    <glyph glyph-name="filledbox" unicode="&#x25a0;" horiz-adv-x="433" 
d="M140.5 246q-33.5 34 -33.5 89t33.5 88t88.5 33t88.5 -33t33.5 -88t-33.5 -89t-88.5 -34t-88.5 34z" />
    <glyph glyph-name="uni2713" unicode="&#x2713;" horiz-adv-x="1040" 
d="M996 684l-621 -694l-314 337l49 43l265 -288l579 642z" />
    <glyph glyph-name="fl" unicode="&#xfb02;" horiz-adv-x="577" 
d="M434 75q0 -34 36 -34q25 0 42 14v-50q-28 -13 -57 -13q-81 0 -81 68q0 7 2 21l70 400h-245l-84 -481h-57l84 481h-84l8 46h84l4 25q14 86 69.5 132.5t130.5 46.5q45 0 80 -14l-24 -47q-23 15 -62 15q-52 0 -88.5 -32t-48.5 -101l-4 -25h246l30 173h58l-107 -606
q-2 -14 -2 -19z" />
    <glyph glyph-name="i.loclTRK" horiz-adv-x="229" 
d="M132 527h58l-93 -527h-57zM163 657.5q-12 12.5 -12 31.5q0 20 12 32t32 12q19 0 31.5 -12t12.5 -32q0 -19 -12.5 -31.5t-31.5 -12.5q-20 0 -32 12.5z" />
    <glyph glyph-name="germandbls.calt" horiz-adv-x="708" 
d="M564 604.5q-47 -29.5 -75 -69t-28 -80.5q0 -33 19 -56t60 -56q33 -26 53 -46t34 -48.5t14 -64.5q0 -57 -27.5 -101t-76.5 -68.5t-112 -24.5q-83 0 -142.5 34.5t-69.5 99.5l62 16q7 -46 48.5 -73t103.5 -27q67 0 110 37.5t43 94.5q0 27 -11.5 48t-28 36.5t-46.5 40.5
q-47 36 -71 66.5t-24 75.5q0 57 40.5 114t127.5 93h-150q-102 0 -158 -45t-72 -141l-81 -460h-60l82 465q22 124 92 179.5t201 55.5h255l-9 -53q-56 -13 -103 -42.5z" />
    <glyph glyph-name="f_f" horiz-adv-x="605" 
d="M728 710l-25 -50q-21 18 -62 18q-50 0 -86.5 -32t-48.5 -101l-3 -18h138l-8 -46h-138l-85 -481h-57l85 481h-236l-85 -481h-57l85 481h-85l8 46h85l3 18q15 87 71.5 133t136.5 46q40 0 71 -14l-25 -50q-21 18 -62 18q-50 0 -86.5 -32t-48.5 -101l-3 -18h236l3 18
q15 87 71.5 133t136.5 46q40 0 71 -14z" />
    <glyph glyph-name="f_f_f" horiz-adv-x="898" 
d="M1021 710l-25 -50q-21 18 -62 18q-50 0 -86.5 -32t-48.5 -101l-3 -18h138l-8 -46h-138l-85 -481h-57l84 481h-235l-85 -481h-57l85 481h-236l-85 -481h-57l85 481h-85l8 46h85l3 18q15 87 71.5 133t136.5 46q40 0 71 -14l-25 -50q-21 18 -62 18q-50 0 -86.5 -32
t-48.5 -101l-3 -18h236l3 18q15 87 71.5 133t136.5 46q40 0 71 -14l-25 -50q-21 18 -62 18q-50 0 -86.5 -32t-48.5 -101l-3 -18h235l3 18q15 87 71.5 133t137.5 46q40 0 71 -14z" />
    <glyph glyph-name="f_f_k" horiz-adv-x="1163" 
d="M905 306l192 -306h-63l-168 275l-124 -97l-31 -178h-57l85 481h-247l-84 -481h-57l84 481h-233l-85 -481h-57l85 481h-85l8 46h85l3 18q15 87 71.5 133t136.5 46q40 0 71 -14l-25 -50q-21 18 -62 18q-50 0 -86.5 -32t-48.5 -101l-3 -18h233l4 25q15 86 70 132.5t131 46.5
q45 0 79 -14l-23 -47q-25 15 -63 15q-52 0 -88.5 -32t-48.5 -101l-4 -25h247l30 173h57l-83 -470l355 297h79z" />
    <glyph glyph-name="f_f_l" horiz-adv-x="869" 
d="M726 74q0 -33 35 -33q26 0 43 14v-50q-30 -13 -57 -13q-81 0 -81 67q0 8 2 22l70 400h-246l-84 -481h-57l84 481h-233l-85 -481h-57l85 481h-85l8 46h85l3 18q15 87 71.5 133t136.5 46q40 0 71 -14l-25 -50q-21 18 -62 18q-50 0 -86.5 -32t-48.5 -101l-3 -18h233l4 25
q15 86 70 132.5t131 46.5q45 0 79 -14l-23 -47q-25 15 -63 15q-52 0 -88.5 -32t-48.5 -101l-4 -25h247l30 173h58l-107 -606q-2 -14 -2 -20z" />
    <glyph glyph-name="f_k" horiz-adv-x="872" 
d="M613 306l192 -306h-63l-168 275l-124 -97l-31 -178h-57l85 481h-246l-84 -481h-57l84 481h-84l8 46h84l4 25q14 86 69.5 132.5t130.5 46.5q45 0 80 -14l-24 -47q-23 15 -62 15q-52 0 -88.5 -32t-48.5 -101l-4 -25h246l30 173h57l-83 -471l356 298h79z" />
    <glyph glyph-name="zero.osf" horiz-adv-x="597" 
d="M153.5 19.5q-52.5 29.5 -80.5 82.5t-28 121q0 85 34.5 157t97.5 114.5t144 42.5q71 0 123 -29t80 -81.5t28 -121.5q0 -84 -34.5 -156.5t-97.5 -115.5t-144 -43q-70 0 -122.5 29.5zM391.5 81q48.5 36 75 94.5t26.5 125.5q0 83 -47 133t-128 50q-64 0 -112.5 -36t-75 -95
t-26.5 -125q0 -82 47.5 -132.5t128.5 -50.5q63 0 111.5 36z" />
    <glyph glyph-name="one.osf" 
d="M502 49l-9 -49h-470l8 49h199l74 423q-43 -45 -90.5 -73t-110.5 -56l-13 55q75 24 129.5 54t99.5 75h51l-84 -478h216z" />
    <glyph glyph-name="two.osf" horiz-adv-x="564" 
d="M120 46h377l-9 -46h-468l7 41l231 113q114 56 159 104t45 104t-36.5 90.5t-100.5 34.5q-71 0 -119 -43.5t-48 -132.5l1 -20h-63q-1 80 28.5 135.5t82.5 83t120 27.5q91 0 144.5 -47.5t53.5 -123.5q0 -47 -24.5 -87.5t-81.5 -81t-155 -85.5z" />
    <glyph glyph-name="three.osf" horiz-adv-x="620" 
d="M477.5 129.5q39.5 -41.5 39.5 -105.5q0 -59 -31.5 -106t-88.5 -74t-132 -27q-107 0 -176 55t-76 152l63 13q4 -85 56 -129.5t138 -44.5q61 0 103.5 22t63.5 58.5t21 79.5q0 64 -44 102t-126 38h-60l7 48h62q92 0 145 35.5t53 106.5q0 67 -45.5 102.5t-116.5 35.5
q-146 0 -190 -156l-56 17q58 185 245 185q97 0 159.5 -47.5t62.5 -133.5q0 -77 -53 -119t-146 -52q83 -14 122.5 -55.5z" />
    <glyph glyph-name="four.osf" horiz-adv-x="630" 
d="M548 10h-100l-32 -183h-57l32 183h-386l8 46l444 471h83l-83 -470h99zM74 57h326l76 429z" />
    <glyph glyph-name="five.osf" horiz-adv-x="594" 
d="M226 477q-28 -142 -93 -282q38 46 81 69t99 23q90 0 143 -54t53 -148q0 -76 -32.5 -137t-92.5 -96t-137 -35q-64 0 -114.5 25t-80.5 69t-34 99l57 13q4 -71 53.5 -115t122.5 -44q60 0 106 30t70.5 80.5t24.5 110.5q0 75 -41.5 114.5t-111.5 39.5q-62 0 -104.5 -27
t-75.5 -67l-50 15q80 184 115 367h379l-9 -50h-328z" />
    <glyph glyph-name="six.osf" horiz-adv-x="594" 
d="M435.5 423.5q45.5 -23.5 71.5 -69t26 -108.5q0 -68 -30.5 -126.5t-89 -94t-137.5 -35.5q-110 0 -165.5 70.5t-55.5 196.5q0 108 37.5 213t109 172.5t166.5 67.5q70 0 126.5 -38.5t71.5 -119.5l-57 -16q-6 65 -48 94.5t-95 29.5q-75 0 -129 -52t-84.5 -132.5t-38.5 -167.5
q79 139 218 139q58 0 103.5 -23.5zM387.5 67.5q43.5 28.5 65 75t21.5 100.5q0 78 -44 116.5t-113 38.5q-68 0 -117 -36t-88 -103v-2q0 -107 42 -162.5t127 -55.5q63 0 106.5 28.5z" />
    <glyph glyph-name="seven.osf" horiz-adv-x="505" 
d="M545 527l-7 -46q-123 -116 -197 -210t-119 -198.5t-72 -245.5h-70q31 134 78 239t124.5 205t200.5 207h-440l8 49h494z" />
    <glyph glyph-name="eight.osf" horiz-adv-x="580" 
d="M521 203q0 -64 -32.5 -112t-89.5 -74.5t-128 -26.5q-64 0 -118.5 22t-87.5 65.5t-33 105.5q0 81 55.5 134t145.5 64q-115 37 -115 140q0 56 29.5 99t80.5 66.5t115 23.5q58 0 106.5 -20.5t77.5 -59.5t29 -93q0 -68 -45.5 -114t-121.5 -57q132 -39 132 -163zM220.5 432
q42.5 -34 110.5 -34q73 0 119.5 38.5t46.5 99.5q0 58 -42.5 92t-112.5 34q-77 0 -120.5 -40t-43.5 -98t42.5 -92zM373.5 60q42.5 21 66 58t23.5 82q0 68 -51 106t-129 38q-57 0 -100.5 -20.5t-67 -56.5t-23.5 -82q0 -71 53 -108.5t129 -37.5q57 0 99.5 21z" />
    <glyph glyph-name="nine.osf" horiz-adv-x="594" 
d="M483.5 466.5q55.5 -70.5 55.5 -196.5q0 -108 -37.5 -213t-109 -172.5t-166.5 -67.5q-70 0 -126.5 38.5t-70.5 119.5l56 16q7 -65 48.5 -94.5t94.5 -29.5q74 0 128 52t85 132t39 167q-80 -138 -218 -138q-57 0 -102.5 23.5t-71.5 69t-26 108.5q0 68 30.5 126.5t88.5 94
t137 35.5q110 0 165.5 -70.5zM394 165q49 36 88 103v3q0 106 -42 162t-127 56q-63 0 -106.5 -28.5t-65 -75t-21.5 -100.5q0 -79 44 -117.5t113 -38.5q68 0 117 36z" />
    <glyph glyph-name="zero.osf.zero" horiz-adv-x="594" 
d="M442.5 508q52.5 -29 80.5 -81.5t28 -121.5q0 -84 -35 -156.5t-97.5 -115.5t-143.5 -43q-71 0 -123 29.5t-80 82.5t-28 121q0 85 34.5 157t97.5 114.5t144 42.5q70 0 122.5 -29zM203.5 448q-48.5 -36 -75 -95t-26.5 -125q0 -46 17 -85l155 147l160 154q-46 40 -118 40
q-64 0 -112.5 -36zM390.5 81q48.5 36 75 94.5t26.5 125.5q0 66 -31 112l-148 -140l-172 -167q23 -29 58 -45t79 -16q64 0 112.5 36z" />
    <glyph glyph-name="zero.tf" 
d="M114.5 59.5q-55.5 69.5 -55.5 192.5q1 117 35 222t100.5 170.5t159.5 65.5q107 0 162 -68.5t55 -192.5q0 -117 -34 -222.5t-100.5 -171t-159.5 -65.5q-107 0 -162.5 69.5zM410.5 102.5q52.5 60.5 78 155t25.5 197.5q0 96 -40 150t-124 54q-76 0 -128.5 -61t-78.5 -156
t-26 -197q0 -98 40.5 -150.5t123.5 -52.5q77 0 129.5 60.5z" />
    <glyph glyph-name="one.tf" 
d="M506 49l-9 -49h-471l9 49h209l105 597q-43 -45 -90.5 -73.5t-110.5 -56.5l-14 55q75 24 130 54t100 75h51l-115 -651h206z" />
    <glyph glyph-name="two.tf" 
d="M96 50l422 -1l-10 -49h-496l9 50l236 164q84 59 136 104t82 93.5t30 101.5q0 71 -46.5 109.5t-117.5 38.5q-77 0 -133.5 -47t-56.5 -156q0 -12 2 -40h-63l-1 26q0 139 71.5 202.5t178.5 63.5q64 0 116 -22.5t82 -66t30 -105.5q0 -66 -37 -124t-101 -110.5t-165 -119.5z
" />
    <glyph glyph-name="three.tf" 
d="M497.5 302.5q39.5 -41.5 39.5 -105.5q0 -59 -31.5 -106t-88.5 -74t-132 -27q-107 0 -176 55t-76 152l63 13q4 -85 56 -129.5t138 -44.5q61 0 103.5 22t63.5 58.5t21 79.5q0 64 -44 102t-126 38h-60l7 48h62q92 0 145 35.5t53 106.5q0 67 -45.5 102.5t-116.5 35.5
q-146 0 -190 -156l-56 17q58 185 245 185q97 0 159.5 -47.5t62.5 -133.5q0 -77 -53 -119t-146 -52q83 -14 122.5 -55.5z" />
    <glyph glyph-name="four.tf" 
d="M558 183h-100l-32 -183h-57l32 183h-386l8 46l444 471h83l-83 -470h99zM84 230h326l76 429z" />
    <glyph glyph-name="five.tf" 
d="M252 650q-28 -142 -93 -282q38 46 81 69t99 23q90 0 143 -54t53 -148q0 -76 -32.5 -137t-92.5 -96t-137 -35q-64 0 -114.5 25t-80.5 69t-34 99l57 13q4 -71 53.5 -115t122.5 -44q60 0 106 30t70.5 80.5t24.5 110.5q0 75 -41.5 114.5t-111.5 39.5q-62 0 -104.5 -27
t-75.5 -67l-50 15q80 184 115 367h379l-9 -50h-328z" />
    <glyph glyph-name="six.tf" 
d="M444.5 423q47.5 -24 74.5 -70t27 -109q0 -68 -31 -126t-91 -93t-143 -35q-114 0 -171.5 71t-57.5 199q0 108 38.5 212.5t112 171t171.5 66.5q72 0 130.5 -38t73.5 -120l-56 -16q-8 65 -51 94.5t-100 29.5q-78 0 -134.5 -53t-88 -134t-38.5 -168q38 67 95 104.5t132 37.5
q60 0 107.5 -24zM397 67q45 28 67.5 74t22.5 100q0 80 -46 118.5t-120 38.5q-72 0 -122.5 -36.5t-90.5 -104.5q1 -106 45.5 -162t133.5 -56q65 0 110 28z" />
    <glyph glyph-name="seven.tf" 
d="M649 700l-8 -46q-135 -115 -215 -209t-127.5 -198.5t-75.5 -246.5h-72q32 136 81 240.5t135 204.5t225 206h-496l9 49h544z" />
    <glyph glyph-name="eight.tf" 
d="M532 203q0 -64 -32.5 -112t-89.5 -74.5t-128 -26.5q-64 0 -118.5 22t-87.5 65.5t-33 105.5q0 81 55.5 134t145.5 64q-115 37 -115 140q0 56 29.5 99t80.5 66.5t115 23.5q58 0 106.5 -20.5t77.5 -59.5t29 -93q0 -68 -45.5 -114t-121.5 -57q132 -39 132 -163zM231.5 432
q42.5 -34 110.5 -34q73 0 119.5 38.5t46.5 99.5q0 58 -42.5 92t-112.5 34q-77 0 -120.5 -40t-43.5 -98t42.5 -92zM384.5 60q42.5 21 66 58t23.5 82q0 68 -51 106t-129 38q-57 0 -100.5 -20.5t-67 -56.5t-23.5 -82q0 -71 53 -108.5t129 -37.5q57 0 99.5 21z" />
    <glyph glyph-name="nine.tf" 
d="M521 639q58 -71 58 -199q0 -108 -38.5 -212.5t-112 -171t-171.5 -66.5q-72 0 -131 38t-74 120l57 16q7 -65 50 -94.5t100 -29.5q78 0 135 53t88.5 134.5t38.5 167.5q-39 -67 -95.5 -104.5t-131.5 -37.5q-60 0 -107.5 24t-74.5 70t-27 109q0 68 31 126t91 93t142 35
q114 0 172 -71zM431.5 338.5q50.5 36.5 91.5 104.5q-1 106 -46 162t-133 56q-65 0 -110.5 -28t-68 -74.5t-22.5 -99.5q0 -79 46.5 -118t119.5 -39q72 0 122.5 36.5z" />
    <glyph glyph-name="zero.tf.zero" 
d="M516 641.5q55 -68.5 55 -192.5q0 -117 -34 -222.5t-100.5 -171t-159.5 -65.5q-107 0 -162.5 69.5t-55.5 192.5q1 117 35 222t100.5 170.5t159.5 65.5q107 0 162 -68.5zM221.5 598q-52.5 -61 -78.5 -156t-26 -197q0 -22 1 -32l375 359q-38 87 -143 87q-76 0 -128.5 -61z
M410.5 102.5q52.5 60.5 78 155t25.5 197.5q0 41 -7 72l-181 -171l-200 -195q30 -119 155 -119q77 0 129.5 60.5z" />
    <glyph glyph-name="zero.tosf" 
d="M156.5 19.5q-52.5 29.5 -80.5 82.5t-28 121q0 85 34.5 157t97.5 114.5t144 42.5q71 0 123 -29t80 -81.5t28 -121.5q0 -84 -34.5 -156.5t-97.5 -115.5t-144 -43q-70 0 -122.5 29.5zM394.5 81q48.5 36 75 94.5t26.5 125.5q0 83 -47 133t-128 50q-64 0 -112.5 -36t-75 -95
t-26.5 -125q0 -82 47.5 -132.5t128.5 -50.5q63 0 111.5 36z" />
    <glyph glyph-name="one.tosf" 
d="M502 49l-9 -49h-470l8 49h199l74 423q-43 -45 -90.5 -73t-110.5 -56l-13 55q75 24 129.5 54t99.5 75h51l-84 -478h216z" />
    <glyph glyph-name="two.tosf" 
d="M137 46h377l-9 -46h-468l7 41l231 113q114 56 159 104t45 104t-36.5 90.5t-100.5 34.5q-71 0 -119 -43.5t-48 -132.5l1 -20h-63q-1 80 28.5 135.5t82.5 83t120 27.5q91 0 144.5 -47.5t53.5 -123.5q0 -47 -24.5 -87.5t-81.5 -81t-155 -85.5z" />
    <glyph glyph-name="three.tosf" 
d="M497.5 129.5q39.5 -41.5 39.5 -105.5q0 -59 -31.5 -106t-88.5 -74t-132 -27q-107 0 -176 55t-76 152l63 13q4 -85 56 -129.5t138 -44.5q61 0 103.5 22t63.5 58.5t21 79.5q0 64 -44 102t-126 38h-60l7 48h62q92 0 145 35.5t53 106.5q0 67 -45.5 102.5t-116.5 35.5
q-146 0 -190 -156l-56 17q58 185 245 185q97 0 159.5 -47.5t62.5 -133.5q0 -77 -53 -119t-146 -52q83 -14 122.5 -55.5z" />
    <glyph glyph-name="four.tosf" 
d="M558 10h-100l-32 -183h-57l32 183h-386l8 46l444 471h83l-83 -470h99zM84 57h326l76 429z" />
    <glyph glyph-name="five.tosf" 
d="M252 477q-28 -142 -93 -282q38 46 81 69t99 23q90 0 143 -54t53 -148q0 -76 -32.5 -137t-92.5 -96t-137 -35q-64 0 -114.5 25t-80.5 69t-34 99l57 13q4 -71 53.5 -115t122.5 -44q60 0 106 30t70.5 80.5t24.5 110.5q0 75 -41.5 114.5t-111.5 39.5q-62 0 -104.5 -27
t-75.5 -67l-50 15q80 184 115 367h379l-9 -50h-328z" />
    <glyph glyph-name="six.tosf" 
d="M444.5 423q47.5 -24 74.5 -70t27 -109q0 -68 -31 -126t-91 -93t-143 -35q-114 0 -171.5 71t-57.5 199q0 108 38.5 212.5t112 171t171.5 66.5q72 0 130.5 -38t73.5 -120l-56 -16q-8 65 -51 94.5t-100 29.5q-78 0 -134.5 -53t-88 -134t-38.5 -168q38 67 95 104.5t132 37.5
q60 0 107.5 -24zM397 67q45 28 67.5 74t22.5 100q0 80 -46 118.5t-120 38.5q-72 0 -122.5 -36.5t-90.5 -104.5q1 -106 45.5 -162t133.5 -56q65 0 110 28z" />
    <glyph glyph-name="seven.tosf" 
d="M649 527l-8 -46q-135 -115 -215 -209t-127.5 -198.5t-75.5 -246.5h-72q32 136 81 240.5t135 204.5t225 206h-496l9 49h544z" />
    <glyph glyph-name="eight.tosf" 
d="M532 203q0 -64 -32.5 -112t-89.5 -74.5t-128 -26.5q-64 0 -118.5 22t-87.5 65.5t-33 105.5q0 81 55.5 134t145.5 64q-115 37 -115 140q0 56 29.5 99t80.5 66.5t115 23.5q58 0 106.5 -20.5t77.5 -59.5t29 -93q0 -68 -45.5 -114t-121.5 -57q132 -39 132 -163zM231.5 432
q42.5 -34 110.5 -34q73 0 119.5 38.5t46.5 99.5q0 58 -42.5 92t-112.5 34q-77 0 -120.5 -40t-43.5 -98t42.5 -92zM384.5 60q42.5 21 66 58t23.5 82q0 68 -51 106t-129 38q-57 0 -100.5 -20.5t-67 -56.5t-23.5 -82q0 -71 53 -108.5t129 -37.5q57 0 99.5 21z" />
    <glyph glyph-name="nine.tosf" 
d="M490.5 466q57.5 -71 57.5 -199q0 -108 -38.5 -212.5t-112 -171t-171.5 -66.5q-72 0 -130.5 38t-73.5 120l56 16q8 -65 51 -94.5t100 -29.5q78 0 134.5 53t88 134.5t38.5 168.5q-39 -67 -95.5 -105t-131.5 -38q-60 0 -107.5 24t-74.5 70t-27 109q0 68 31 126t91 93t143 35
q114 0 171.5 -71zM401.5 165.5q50.5 36.5 90.5 104.5q-1 107 -45.5 163t-133.5 56q-65 0 -110 -28.5t-67.5 -74.5t-22.5 -100q0 -80 46 -118.5t120 -38.5q72 0 122.5 36.5z" />
    <glyph glyph-name="zero.tosf.zero" 
d="M445.5 508q52.5 -29 80.5 -81.5t28 -121.5q0 -84 -35 -156.5t-97.5 -115.5t-143.5 -43q-71 0 -123 29.5t-80 82.5t-28 121q0 85 34.5 157t97.5 114.5t144 42.5q70 0 122.5 -29zM206.5 448q-48.5 -36 -75 -95t-26.5 -125q0 -46 17 -85l155 147l160 154q-46 40 -118 40
q-64 0 -112.5 -36zM393.5 81q48.5 36 75 94.5t26.5 125.5q0 66 -31 112l-148 -140l-172 -167q23 -29 58 -45t79 -16q64 0 112.5 36z" />
    <glyph glyph-name="zero.zero" horiz-adv-x="594" 
d="M513 641q55 -69 55 -193q0 -117 -33.5 -222t-100 -170.5t-160.5 -65.5q-107 0 -162 68.5t-55 192.5q0 117 33.5 222.5t100 171t160.5 65.5q107 0 162 -69zM217.5 598q-52.5 -61 -78 -155.5t-25.5 -197.5q0 -16 2 -44l165 157l213 205q-35 96 -147 96q-77 0 -129.5 -61z
M408 102.5q52 60.5 77 155t25 197.5q0 36 -4 61l-186 -175l-195 -189q33 -110 153 -110q78 0 130 60.5z" />
    <glyph glyph-name="zero.dnom" horiz-adv-x="400" 
d="M330 408.5q39 -45.5 39 -125.5q0 -75 -22.5 -141t-67 -107t-107.5 -41q-76 0 -115 45.5t-39 126.5q0 73 23 139.5t68 107.5t107 41q75 0 114 -45.5zM134.5 370q-31.5 -36 -47 -91.5t-15.5 -115.5q0 -121 102 -121q46 0 78.5 35t48 90t15.5 114q0 125 -103 125
q-47 0 -78.5 -36z" />
    <glyph glyph-name="one.dnom" horiz-adv-x="267" 
d="M223 448l-79 -448h-53l72 405q-34 -51 -120 -84l-13 43q56 19 89.5 38t60.5 46h43z" />
    <glyph glyph-name="two.dnom" horiz-adv-x="378" 
d="M66 43h250l-8 -43h-318l6 36l150 106q82 58 118 97t36 85q0 40 -26.5 63.5t-68.5 23.5q-53 0 -84.5 -36.5t-27.5 -107.5h-52q0 92 46 139t122 47q66 0 105 -35t39 -92q0 -41 -21.5 -75.5t-62 -67t-109.5 -77.5z" />
    <glyph glyph-name="three.dnom" horiz-adv-x="407" 
d="M322 192.5q27 -27.5 27 -69.5q0 -58 -47.5 -93.5t-121.5 -35.5q-75 0 -121 36t-51 94l52 11q3 -48 37.5 -73t84.5 -25q51 0 82 25.5t31 65.5q0 36 -27.5 58.5t-77.5 22.5h-34l7 40h49q49 0 78 22t29 61q0 36 -27 57.5t-70 21.5q-42 0 -73.5 -23.5t-42.5 -62.5l-49 14
q16 53 58 84t107 31q67 0 108.5 -32t41.5 -83q0 -48 -33.5 -77t-90.5 -34q47 -8 74 -35.5z" />
    <glyph glyph-name="four.dnom" horiz-adv-x="413" 
d="M349 116h-67l-20 -116h-52l20 116h-247l7 34l282 298h69l-51 -292h67zM238 156l45 256l-238 -256h193z" />
    <glyph glyph-name="five.dnom" horiz-adv-x="386" 
d="M152 407q-19 -85 -63 -178q44 64 124 64q58 0 93 -34.5t35 -94.5q0 -47 -22 -85.5t-62 -61t-92 -22.5q-62 0 -105 31t-53 85l52 12q6 -40 36 -63t73 -23q57 0 88.5 37t31.5 87q0 44 -25.5 67.5t-69.5 23.5q-36 0 -62 -15.5t-48 -41.5l-47 15q58 123 81 238h259l-7 -41
h-217z" />
    <glyph glyph-name="six.dnom" horiz-adv-x="395" 
d="M307 254q38 -36 38 -96q0 -45 -20.5 -82.5t-59 -59.5t-89.5 -22q-76 0 -115.5 47t-39.5 128q0 69 25 135t71.5 108t108.5 42q43 0 84 -22t55 -73l-50 -13q-8 34 -32 51t-56 17q-61 0 -99 -54.5t-51 -131.5q56 62 132 62q60 0 98 -36zM261.5 71q30.5 37 30.5 87
q0 44 -26.5 69.5t-70.5 25.5q-64 0 -122 -63v-19q0 -69 28.5 -103t76.5 -34q53 0 83.5 37z" />
    <glyph glyph-name="seven.dnom" horiz-adv-x="334" 
d="M367 448l-7 -43q-81 -69 -129 -130.5t-73.5 -125.5t-41.5 -149h-60q26 120 83 219t178 188h-283l7 41h326z" />
    <glyph glyph-name="eight.dnom" horiz-adv-x="389" 
d="M337 123q0 -56 -45 -92.5t-122 -36.5q-75 0 -121.5 33.5t-46.5 89.5q0 52 39 85t101 40q-83 24 -83 95q0 51 41 84t109 33q66 0 108 -31t42 -81q0 -43 -31.5 -72.5t-88.5 -36.5q98 -28 98 -110zM137.5 278.5q27.5 -20.5 68.5 -20.5q45 0 72.5 22.5t27.5 57.5t-27.5 56.5
t-69.5 21.5q-44 0 -71.5 -24t-27.5 -59q0 -34 27.5 -54.5zM253.5 60q30.5 27 30.5 66q0 40 -31 63.5t-80 23.5q-51 0 -83.5 -26t-32.5 -67q0 -40 31 -63.5t82 -23.5q53 0 83.5 27z" />
    <glyph glyph-name="nine.dnom" horiz-adv-x="395" 
d="M334.5 408q39.5 -47 39.5 -129q0 -69 -25 -134.5t-71.5 -107.5t-108.5 -42q-44 0 -84 22t-54 73l49 13q8 -34 32 -51t57 -17q60 0 98 54.5t51 131.5q-57 -63 -132 -63q-60 0 -97.5 36.5t-37.5 96.5q0 45 20.5 82.5t58.5 59.5t89 22q76 0 115.5 -47zM321 258q1 6 1 19
q0 69 -28.5 103t-76.5 34q-53 0 -83.5 -36.5t-30.5 -86.5q0 -44 26.5 -69.5t71.5 -25.5q65 0 120 62z" />
    <glyph glyph-name="zero.numr" horiz-adv-x="400" 
d="M375 664.5q39 -45.5 39 -125.5q0 -75 -22.5 -141t-67 -107t-107.5 -41q-76 0 -115 45.5t-39 126.5q0 73 23 139.5t68 107.5t107 41q75 0 114 -45.5zM179.5 626q-31.5 -36 -47 -91.5t-15.5 -115.5q0 -121 102 -121q46 0 78.5 35t48 90t15.5 114q0 125 -103 125
q-47 0 -78.5 -36z" />
    <glyph glyph-name="one.numr" horiz-adv-x="267" 
d="M267 700l-79 -448h-53l72 405q-34 -51 -120 -84l-13 43q56 19 89.5 38t60.5 46h43z" />
    <glyph glyph-name="two.numr" horiz-adv-x="378" 
d="M111 299h250l-8 -43h-318l6 36l150 106q82 58 118 97t36 85q0 40 -26.5 63.5t-68.5 23.5q-53 0 -84.5 -36.5t-27.5 -107.5h-52q0 92 46 139t122 47q66 0 105 -35t39 -92q0 -41 -21.5 -75.5t-62 -67t-109.5 -77.5z" />
    <glyph glyph-name="three.numr" horiz-adv-x="407" 
d="M367 448.5q27 -27.5 27 -69.5q0 -58 -47.5 -93.5t-121.5 -35.5q-75 0 -121 36t-51 94l52 11q3 -48 37.5 -73t84.5 -25q51 0 82 25.5t31 65.5q0 36 -27.5 58.5t-77.5 22.5h-34l7 40h49q49 0 78 22t29 61q0 36 -27 57.5t-70 21.5q-42 0 -73.5 -23.5t-42.5 -62.5l-49 14
q16 53 58 84t107 31q67 0 108.5 -32t41.5 -83q0 -48 -33.5 -77t-90.5 -34q47 -8 74 -35.5z" />
    <glyph glyph-name="four.numr" horiz-adv-x="413" 
d="M393 368h-67l-20 -116h-52l20 116h-247l7 34l282 298h69l-51 -292h67zM282 408l45 256l-238 -256h193z" />
    <glyph glyph-name="five.numr" horiz-adv-x="386" 
d="M196 659q-19 -85 -63 -178q44 64 124 64q58 0 93 -34.5t35 -94.5q0 -47 -22 -85.5t-62 -61t-92 -22.5q-62 0 -105 31t-53 85l52 12q6 -40 36 -63t73 -23q57 0 88.5 37t31.5 87q0 44 -25.5 67.5t-69.5 23.5q-36 0 -62 -15.5t-48 -41.5l-47 15q58 123 81 238h259l-7 -41
h-217z" />
    <glyph glyph-name="six.numr" horiz-adv-x="395" 
d="M352 510q38 -36 38 -96q0 -45 -20.5 -82.5t-59 -59.5t-89.5 -22q-76 0 -115.5 47t-39.5 128q0 69 25 135t71.5 108t108.5 42q43 0 84 -22t55 -73l-50 -13q-8 34 -32 51t-56 17q-61 0 -99 -54.5t-51 -131.5q56 62 132 62q60 0 98 -36zM306.5 327q30.5 37 30.5 87
q0 44 -26.5 69.5t-70.5 25.5q-64 0 -122 -63v-19q0 -69 28.5 -103t76.5 -34q53 0 83.5 37z" />
    <glyph glyph-name="seven.numr" horiz-adv-x="334" 
d="M411 700l-7 -43q-81 -69 -129 -130.5t-73.5 -125.5t-41.5 -149h-60q26 120 83 219t178 188h-283l7 41h326z" />
    <glyph glyph-name="eight.numr" horiz-adv-x="389" 
d="M382 379q0 -56 -45 -92.5t-122 -36.5q-75 0 -121.5 33.5t-46.5 89.5q0 52 39 85t101 40q-83 24 -83 95q0 51 41 84t109 33q66 0 108 -31t42 -81q0 -43 -31.5 -72.5t-88.5 -36.5q98 -28 98 -110zM182.5 534.5q27.5 -20.5 68.5 -20.5q45 0 72.5 22.5t27.5 57.5t-27.5 56.5
t-69.5 21.5q-44 0 -71.5 -24t-27.5 -59q0 -34 27.5 -54.5zM298.5 316q30.5 27 30.5 66q0 40 -31 63.5t-80 23.5q-51 0 -83.5 -26t-32.5 -67q0 -40 31 -63.5t82 -23.5q53 0 83.5 27z" />
    <glyph glyph-name="nine.numr" horiz-adv-x="395" 
d="M379.5 663q39.5 -47 39.5 -129q0 -69 -25 -134.5t-71.5 -107.5t-108.5 -42q-44 0 -84 22t-54 73l49 13q8 -34 32 -51t57 -17q60 0 98 54.5t51 131.5q-57 -63 -132 -63q-60 0 -97.5 36.5t-37.5 96.5q0 45 20.5 82.5t58.5 59.5t89 22q76 0 115.5 -47zM366 513q1 6 1 19
q0 69 -28.5 103t-76.5 34q-53 0 -83.5 -36.5t-30.5 -86.5q0 -44 26.5 -69.5t71.5 -25.5q65 0 120 62z" />
    <glyph glyph-name="exclamdown.case" horiz-adv-x="300" 
d="M251 692q12 -12 12 -32q0 -19 -12 -31.5t-32 -12.5q-19 0 -31.5 12.5t-12.5 31.5q0 20 12.5 32t31.5 12q20 0 32 -12zM143 0h-75l89 451h53z" />
    <glyph glyph-name="questiondown.case" horiz-adv-x="557" 
d="M380.5 692q12.5 -12 12.5 -32t-12.5 -32t-32.5 -12q-19 0 -31.5 12.5t-12.5 31.5q0 20 12.5 32t31.5 12q20 0 32.5 -12zM337 437q-6 -42 -34 -69.5t-81 -61.5q-38 -24 -61 -43t-39 -45.5t-16 -61.5q0 -52 37 -83.5t97 -31.5q74 0 118 46t44 124q0 9 -2 31h61q1 -9 1 -26
q0 -106 -60 -166t-163 -60q-57 0 -101.5 20.5t-69 57t-24.5 83.5q0 45 18 77t43.5 53t67.5 47q48 29 73 52.5t31 58.5l2 12h60z" />
    <glyph glyph-name="periodcentered.case" horiz-adv-x="276" 
d="M123.5 337q-12.5 12 -12.5 32t12.5 32t32.5 12t32 -12t12 -32q0 -19 -12 -31.5t-32 -12.5t-32.5 12z" />
    <glyph glyph-name="bullet.case" horiz-adv-x="430" 
d="M355 242h-244v244h244v-244z" />
    <glyph glyph-name="parenleft.case" horiz-adv-x="354" 
d="M119 60q-28 92 -28 193q0 163 68.5 296.5t194.5 244.5h60q-130 -117 -201.5 -250t-71.5 -294q0 -95 30.5 -187t85.5 -164h-54q-56 69 -84 161z" />
    <glyph glyph-name="parenright.case" horiz-adv-x="355" 
d="M265.5 633q27.5 -92 27.5 -193q0 -311 -263 -541h-60q130 117 201.5 250.5t71.5 293.5q0 95 -30.5 187t-85.5 164h55q56 -69 83.5 -161z" />
    <glyph glyph-name="braceleft.case" horiz-adv-x="354" 
d="M421 794l-9 -44h-28q-38 0 -66.5 -25t-36.5 -70l-26 -145q-14 -77 -43.5 -114.5t-79.5 -48.5q35 -9 53 -33.5t18 -69.5q0 -26 -6 -61l-25 -145q-2 -16 -2 -23q0 -35 20 -53.5t53 -18.5h28l-8 -44h-28q-57 0 -90 27t-33 79q0 15 3 33l26 145q5 30 5 47q0 51 -25.5 70
t-67.5 19h-7l10 55h7q51 0 86 28t50 108l26 145q12 68 57.5 103.5t110.5 35.5h28z" />
    <glyph glyph-name="braceright.case" horiz-adv-x="354" 
d="M338 374l-10 -55h-7q-51 0 -86.5 -28t-49.5 -108l-26 -145q-12 -68 -57.5 -103.5t-110.5 -35.5h-28l8 44h28q38 0 67 24.5t37 70.5l26 145q13 77 42.5 114t78.5 50q-35 9 -52.5 33t-17.5 70q0 26 6 60l26 145q2 16 2 23q0 35 -20 54t-53 19h-28l8 43h28q57 0 90 -27
t33 -80q0 -15 -3 -32l-26 -145q-5 -30 -5 -47q0 -51 25.5 -70t67.5 -19h7z" />
    <glyph glyph-name="bracketleft.case" horiz-adv-x="320" 
d="M235 750l-142 -807h131l-7 -44h-188l158 895h188l-9 -44h-131z" />
    <glyph glyph-name="bracketright.case" horiz-adv-x="318" 
d="M113 -57l142 808h-131l7 43h188l-158 -895h-188l8 44h132z" />
    <glyph glyph-name="hyphen.case" horiz-adv-x="379" 
d="M57 348l8 47h270l-8 -47h-270z" />
    <glyph glyph-name="endash.case" horiz-adv-x="612" 
d="M73 395h512l-8 -45l-512 -1z" />
    <glyph glyph-name="emdash.case" horiz-adv-x="1098" 
d="M73 395h998l-7 -45l-998 -1z" />
    <glyph glyph-name="guillemotleft.case" horiz-adv-x="463" 
d="M235 548h54q-44 -92 -175 -180q100 -89 111 -180h-54q-10 85 -102 172l2 16q123 87 164 172zM395 548h54q-44 -92 -175 -180q100 -89 111 -180h-54q-10 85 -102 172l2 16q123 87 164 172z" />
    <glyph glyph-name="guillemotright.case" horiz-adv-x="462" 
d="M104 188h-53q42 90 175 180q-100 88 -112 180h54q10 -85 102 -172l-2 -16q-123 -87 -164 -172zM264 188h-53q42 90 175 180q-100 88 -112 180h54q10 -85 102 -172l-2 -16q-123 -87 -164 -172z" />
    <glyph glyph-name="guilsinglleft.case" horiz-adv-x="303" 
d="M235 548h54q-44 -92 -175 -180q100 -89 111 -180h-54q-10 85 -102 172l2 16q123 87 164 172z" />
    <glyph glyph-name="guilsinglright.case" horiz-adv-x="302" 
d="M104 188h-53q42 90 175 180q-100 88 -112 180h54q10 -85 102 -172l-2 -16q-123 -87 -164 -172z" />
    <glyph glyph-name="at.case" horiz-adv-x="756" 
d="M533 283q-3 -16 -3 -31q0 -51 44 -51q38 0 66 35t42.5 87t14.5 101q0 76 -34 132t-94 85.5t-136 29.5q-103 0 -178.5 -52t-115 -137t-39.5 -181q0 -136 79 -203t210 -67q58 0 98.5 15t88.5 52l14 -46q-47 -31 -96.5 -46.5t-112.5 -15.5q-96 0 -168.5 36t-113.5 106.5
t-41 170.5q0 107 47 201t133 150.5t197 56.5q87 0 155 -35t106.5 -100.5t38.5 -154.5q0 -66 -21 -126t-61 -97.5t-94 -37.5q-40 0 -62 22t-24 59q-50 -80 -134 -80q-63 0 -96 42t-33 112q0 56 20.5 108t59.5 84.5t91 32.5q50 0 80.5 -29.5t43.5 -76.5l17 97h54zM427.5 224
q29.5 17 48.5 49l23 130q-9 40 -37.5 65.5t-69.5 25.5q-42 0 -71 -26t-43.5 -66.5t-14.5 -82.5q0 -54 24.5 -83t72.5 -29q38 0 67.5 17z" />
    <glyph glyph-name="bar.case" horiz-adv-x="302" 
d="M317 780l-152 -860h-56l152 860h56z" />
    <glyph glyph-name="brokenbar.case" horiz-adv-x="302" 
d="M318 780l-62 -348h-57l62 348h57zM227 268l-61 -348h-57l62 348h56z" />
    <glyph glyph-name="caroncomb.alt" horiz-adv-x="0" 
d="M-199 772h58l-55 -160h-32z" />
    <glyph glyph-name="uni0308.case" horiz-adv-x="0" 
d="M-396.5 821q-12.5 12 -12.5 32t12.5 32t32.5 12q19 0 31.5 -12t12.5 -32q0 -19 -12.5 -31.5t-31.5 -12.5q-20 0 -32.5 12zM-218.5 821q-12.5 12 -12.5 32t12.5 32t32.5 12q19 0 31.5 -12t12.5 -32q0 -19 -12.5 -31.5t-31.5 -12.5q-20 0 -32.5 12z" />
    <glyph glyph-name="uni0307.case" horiz-adv-x="0" 
d="M-300 821.5q-12 12.5 -12 31.5q0 20 12 32t32 12q19 0 31.5 -12t12.5 -32q0 -19 -12.5 -31.5t-31.5 -12.5q-20 0 -32 12.5z" />
    <glyph glyph-name="gravecomb.case" horiz-adv-x="0" 
d="M-294 772l-155 160h89l107 -160h-41z" />
    <glyph glyph-name="acutecomb.case" horiz-adv-x="0" 
d="M-201 932h89l-155 -160h-40z" />
    <glyph glyph-name="uni030B.case" horiz-adv-x="0" 
d="M-297 932h81l-141 -160h-39zM-136 932h82l-141 -160h-39z" />
    <glyph glyph-name="uni0302.case" horiz-adv-x="0" 
d="M-186 772l-76 123l-128 -123h-41l138 160h70l78 -160h-41z" />
    <glyph glyph-name="uni030C.case" horiz-adv-x="0" 
d="M-356 932l76 -121l129 121h40l-137 -160h-70l-79 160h41z" />
    <glyph glyph-name="uni0306.case" horiz-adv-x="0" 
d="M-361.5 819q-29.5 28 -29.5 77q0 7 2 23h46q-2 -14 -2 -21q0 -33 18.5 -52t49.5 -19q37 0 66 25t38 67h44q-12 -59 -54.5 -93.5t-99.5 -34.5q-49 0 -78.5 28z" />
    <glyph glyph-name="uni030A.case" horiz-adv-x="0" 
d="M-335.5 801.5q-26.5 24.5 -26.5 60.5q0 37 26.5 61.5t63.5 24.5t63 -24.5t26 -61.5q0 -36 -26 -60.5t-63 -24.5t-63.5 24.5zM-236.5 826q14.5 14 14.5 36t-14.5 36t-35.5 14t-35.5 -14t-14.5 -36t14.5 -36t35.5 -14t35.5 14z" />
    <glyph glyph-name="tildecomb.case" horiz-adv-x="0" 
d="M-255 827q-12 6 -26 18q-12 10 -20.5 14.5t-19.5 4.5q-36 0 -46 -41h-50q9 43 36 64.5t62 21.5q19 0 31 -6t26 -18q10 -9 19 -14t21 -5q35 0 46 41h48q-9 -43 -34.5 -64.5t-61.5 -21.5q-19 0 -31 6z" />
    <glyph glyph-name="uni0304.case" horiz-adv-x="0" 
d="M-141 887l-8 -45h-246l8 45h246z" />
    </font>
</defs>
</svg>
