<?xml version="1.0" encoding="utf-8"?>
<!-- Generator: Adobe Illustrator 19.0.0, SVG Export Plug-In . SVG Version: 6.00 Build 0)  -->
<svg version="1.1" id="Layer_1" xmlns="http://www.w3.org/2000/svg" xmlns:xlink="http://www.w3.org/1999/xlink" x="0px" y="0px"
	 viewBox="4 6 30 30" style="enable-background:new 4 6 30 30;" xml:space="preserve">
<style type="text/css">
	.st0{fill:#D44332;}
	.st1{fill:#FFFFFF;}
</style>
<g id="XMLID_1085_">
	<circle id="XMLID_138_" class="st0" cx="19" cy="21" r="12"/>
	<g id="XMLID_135_">
		<path id="XMLID_137_" class="st1" d="M18.2,22.1c0.4,0.3,1.1,0.3,1.5,0l5.9-4.5v-0.3c0-0.9-0.7-1.6-1.6-1.6H13.9
			c-0.9,0-1.6,0.7-1.6,1.6v0.3L18.2,22.1z"/>
		<path id="XMLID_136_" class="st1" d="M20.4,22.9c-0.4,0.3-0.8,0.4-1.3,0.4s-1-0.1-1.4-0.4l-5.3-4v5.7c0,0.9,0.7,1.6,1.6,1.6h10.2
			c0.9,0,1.6-0.7,1.6-1.6v-5.7L20.4,22.9z"/>
	</g>
</g>
</svg>
