<?xml version="1.0" encoding="UTF-8" standalone="no"?>
<!DOCTYPE svg PUBLIC "-//W3C//DTD SVG 1.1//EN" "http://www.w3.org/Graphics/SVG/1.1/DTD/svg11.dtd">
<svg width="100%" height="100%" viewBox="0 0 2610 370" version="1.1" xmlns="http://www.w3.org/2000/svg" xmlns:xlink="http://www.w3.org/1999/xlink" xml:space="preserve" xmlns:serif="http://www.serif.com/" style="fill-rule:evenodd;clip-rule:evenodd;stroke-miterlimit:10;">
    <g transform="matrix(1,0,0,1,-366.001,-224.171)">
        <g transform="matrix(8.33333,0,0,8.33333,685.483,349.227)">
            <path d="M0,-2.804L0.774,-2.804L3.669,-7.672L7.191,-7.672L3.448,-1.808L7.395,4.868L3.651,4.868L0.774,-0.222L0,-0.222L0,4.868L-3.117,4.868L-3.117,-7.672L0,-7.672L0,-2.804Z" style="fill:white;fill-rule:nonzero;"/>
        </g>
        <g transform="matrix(8.33333,0,0,8.33333,753.278,311.416)">
            <path d="M0,9.405L0,0.185L2.674,0.185L2.95,1.18L2.987,1.18C3.633,0.369 4.463,0 5.532,0C7.45,0 8.206,1.254 8.206,2.913L8.206,9.405L5.256,9.405L5.256,3.191C5.256,2.471 4.647,2.25 4.168,2.25C3.688,2.25 2.95,2.563 2.95,3.466L2.95,9.405L0,9.405Z" style="fill:white;fill-rule:nonzero;"/>
        </g>
        <g transform="matrix(8.33333,0,0,8.33333,858.26,351.367)">
            <path d="M0,0.001C0,1.587 0.276,2.417 1.365,2.417C2.471,2.417 2.748,1.587 2.748,0.001C2.748,-1.586 2.471,-2.415 1.365,-2.415C0.276,-2.415 0,-1.586 0,0.001M-3.098,0.001C-3.098,-2.931 -1.881,-4.794 1.365,-4.794C4.628,-4.794 5.845,-2.931 5.845,0.001C5.845,2.951 4.628,4.795 1.365,4.795C-1.881,4.795 -3.098,2.951 -3.098,0.001" style="fill:white;fill-rule:nonzero;"/>
        </g>
        <g transform="matrix(8.33333,0,0,8.33333,964.008,347.835)">
            <path d="M0,0.941L-1.051,5.127L-4.242,5.127L-6.749,-4.186L-3.43,-4.186L-2.305,0.959L-2.268,0.959L-1.291,-4.186L1.494,-4.186L2.692,0.959L2.729,0.959L3.707,-4.186L6.823,-4.186L4.333,5.127L1.07,5.127L0.037,0.941L0,0.941Z" style="fill:white;fill-rule:nonzero;"/>
        </g>
        <g transform="matrix(8.33333,0,0,8.33333,1027.82,392.093)">
            <path d="M0,-13.185L2.95,-13.185L2.95,-3.171C2.95,-2.6 3.135,-2.489 4.149,-2.489L4.149,-0.184C0.609,0 0,-0.645 0,-3.171L0,-13.185Z" style="fill:white;fill-rule:nonzero;"/>
        </g>
        <g transform="matrix(8.33333,0,0,8.33333,1093.45,358.589)">
            <path d="M0,-1.733L1.586,-1.733C2.158,-1.733 2.453,-2.065 2.453,-2.489C2.453,-2.894 2.102,-3.264 1.476,-3.264C0.59,-3.264 0.129,-2.674 0,-1.733M-0.037,0.019C0.037,0.959 0.388,1.532 1.291,1.532L4.703,1.532L4.703,3.486C3.393,3.836 2.268,3.928 1.291,3.928C-1.954,3.928 -3.172,2.084 -3.172,-0.865C-3.172,-3.798 -1.751,-5.661 1.549,-5.661C4.223,-5.661 5.404,-4.167 5.404,-2.655C5.404,-1.309 4.85,0.019 2.656,0.019L-0.037,0.019Z" style="fill:white;fill-rule:nonzero;"/>
        </g>
        <g transform="matrix(8.33333,0,0,8.33333,1192.28,342.151)">
            <path d="M0,-1.291L-1.107,-1.291C-2.195,-1.291 -2.526,-0.406 -2.526,1.107C-2.526,2.637 -2.342,3.596 -1.218,3.596C-0.738,3.596 0,3.282 0,2.379L0,-1.291ZM0,-7.192L2.95,-7.192L2.95,5.717L0.276,5.717L0,4.721L-0.037,4.721C-0.627,5.532 -1.254,5.901 -2.232,5.901C-4.573,5.901 -5.625,4.057 -5.625,1.107C-5.625,-1.826 -4.37,-3.688 -1.457,-3.688C-0.996,-3.688 -0.554,-3.651 0,-3.577L0,-7.192Z" style="fill:white;fill-rule:nonzero;"/>
        </g>
        <g transform="matrix(8.33333,0,0,8.33333,1274.52,402.546)">
            <path d="M0,-8.409L-1.107,-8.409C-2.195,-8.409 -2.527,-7.45 -2.527,-6.067C-2.527,-4.61 -2.342,-3.652 -1.218,-3.652C-0.738,-3.652 0,-3.965 0,-4.868L0,-8.409ZM0,-2.527L-0.037,-2.527C-0.627,-1.715 -1.254,-1.346 -2.232,-1.346C-4.573,-1.346 -5.625,-3.135 -5.625,-6.067C-5.625,-9.018 -4.223,-10.751 -1.309,-10.751L2.95,-10.751L2.95,-2.452C2.95,0.498 1.734,2.342 -1.531,2.342C-2.508,2.342 -3.578,2.25 -4.887,1.9L-4.887,-0.055L-1.383,-0.055C-0.277,-0.055 0,-0.867 0,-2.029L0,-2.527Z" style="fill:white;fill-rule:nonzero;"/>
        </g>
        <g transform="matrix(8.33333,0,0,8.33333,1336.31,358.589)">
            <path d="M0,-1.733L1.586,-1.733C2.158,-1.733 2.453,-2.065 2.453,-2.489C2.453,-2.894 2.103,-3.264 1.476,-3.264C0.59,-3.264 0.129,-2.674 0,-1.733M-0.037,0.019C0.037,0.959 0.388,1.532 1.291,1.532L4.703,1.532L4.703,3.486C3.393,3.836 2.268,3.928 1.291,3.928C-1.954,3.928 -3.172,2.084 -3.172,-0.865C-3.172,-3.798 -1.751,-5.661 1.549,-5.661C4.223,-5.661 5.404,-4.167 5.404,-2.655C5.404,-1.309 4.85,0.019 2.656,0.019L-0.037,0.019Z" style="fill:white;fill-rule:nonzero;"/>
        </g>
        <g transform="matrix(8.33333,0,0,8.33333,700.693,432.824)">
            <path d="M0,7.192C0.683,7.192 1.161,6.897 1.161,5.993C1.161,5.145 0.683,4.813 0,4.813L-1.825,4.813L-1.825,7.192L0,7.192ZM-1.825,0L-1.825,2.139L-0.277,2.139C0.332,2.139 0.793,1.844 0.793,1.106C0.793,0.333 0.332,0 -0.277,0L-1.825,0ZM2.176,3.43C3.854,3.854 4.408,5.126 4.408,6.381C4.408,8.742 2.84,9.866 0.295,9.866L-4.942,9.866L-4.942,-2.674L-0.055,-2.674C2.489,-2.674 4.057,-1.475 4.057,0.701C4.057,1.863 3.651,2.988 2.176,3.393L2.176,3.43Z" style="fill:white;fill-rule:nonzero;"/>
        </g>
        <g transform="matrix(8.33333,0,0,8.33333,816.589,516.575)">
            <path d="M0,-9.405L0,-0.184L-2.674,-0.184L-2.95,-1.18L-2.987,-1.18C-3.651,-0.369 -4.463,0 -5.532,0C-7.45,0 -8.206,-1.236 -8.206,-2.895L-8.206,-9.405L-5.256,-9.405L-5.256,-3.172C-5.256,-2.471 -4.666,-2.25 -4.168,-2.25C-3.688,-2.25 -2.95,-2.563 -2.95,-3.448L-2.95,-9.405L0,-9.405Z" style="fill:white;fill-rule:nonzero;"/>
        </g>
        <g transform="matrix(8.33333,0,0,8.33333,828.905,436.666)">
            <path d="M0,9.405L0,0.184L2.674,0.184L2.95,1.678L2.987,1.678C3.596,0.424 4.74,0 5.809,0L5.809,2.841L5.072,2.841C3.393,2.841 2.95,3.412 2.95,4.241L2.95,9.405L0,9.405Z" style="fill:white;fill-rule:nonzero;"/>
        </g>
        <g transform="matrix(8.33333,0,0,8.33333,909.138,483.853)">
            <path d="M0,-1.735L1.586,-1.735C2.157,-1.735 2.452,-2.066 2.452,-2.491C2.452,-2.896 2.102,-3.265 1.475,-3.265C0.59,-3.265 0.129,-2.675 0,-1.735M-0.037,0.017C0.037,0.958 0.387,1.53 1.291,1.53L4.702,1.53L4.702,3.484C3.393,3.835 2.268,3.927 1.291,3.927C-1.955,3.927 -3.172,2.082 -3.172,-0.867C-3.172,-3.8 -1.752,-5.662 1.549,-5.662C4.223,-5.662 5.403,-4.168 5.403,-2.657C5.403,-1.31 4.85,0.017 2.655,0.017L-0.037,0.017Z" style="fill:white;fill-rule:nonzero;"/>
        </g>
        <g transform="matrix(8.33333,0,0,8.33333,1003.97,470.316)">
            <path d="M0,1.513L-1.18,1.513C-1.807,1.513 -2.213,1.753 -2.213,2.417C-2.213,3.136 -1.696,3.301 -1.199,3.301C-0.737,3.301 0,3.025 0,2.103L0,1.513ZM-4.591,-1.641L-4.591,-3.596C-3.282,-3.854 -1.936,-4.038 -0.793,-4.038C1.568,-4.038 2.951,-3.466 2.951,-0.921L2.951,5.367L0.277,5.367L0,4.371L-0.037,4.371C-0.7,5.293 -1.438,5.551 -2.507,5.551C-4.241,5.551 -5.163,4.205 -5.163,2.619C-5.163,0.222 -3.411,-0.258 -2.102,-0.258L0,-0.258L0,-0.792C0,-1.364 -0.221,-1.641 -1.143,-1.641L-4.591,-1.641Z" style="fill:white;fill-rule:nonzero;"/>
        </g>
        <g transform="matrix(8.33333,0,0,8.33333,1109.26,516.575)">
            <path d="M0,-9.405L0,-0.184L-2.674,-0.184L-2.951,-1.18L-2.987,-1.18C-3.651,-0.369 -4.463,0 -5.532,0C-7.45,0 -8.206,-1.236 -8.206,-2.895L-8.206,-9.405L-5.256,-9.405L-5.256,-3.172C-5.256,-2.471 -4.665,-2.25 -4.168,-2.25C-3.688,-2.25 -2.951,-2.563 -2.951,-3.448L-2.951,-9.405L0,-9.405Z" style="fill:white;fill-rule:nonzero;"/>
        </g>
        <g transform="matrix(8.33333,0,0,8.33333,1618.08,407.157)">
            <path d="M0,-0.443L-0.812,4.022L-3.235,4.022L-5.179,-4.404L-2.657,-4.404L-1.759,0.775L-1.735,0.775L-0.972,-4.465L1.156,-4.465L2.079,0.775L2.103,0.775L2.878,-4.404L5.24,-4.404L3.333,4.022L0.848,4.022L0.024,-0.443L0,-0.443Z" style="fill:rgb(106,189,69);fill-rule:nonzero;"/>
        </g>
        <g transform="matrix(8.33333,0,0,8.33333,1683.55,414.537)">
            <path d="M0,0C0,1.057 0.184,1.611 0.911,1.611C1.648,1.611 1.833,1.057 1.833,0C1.833,-1.059 1.648,-1.611 0.911,-1.611C0.184,-1.611 0,-1.059 0,0M-2.066,0C-2.066,-1.957 -1.255,-3.198 0.911,-3.198C3.088,-3.198 3.9,-1.957 3.9,0C3.9,1.968 3.088,3.198 0.911,3.198C-1.255,3.198 -2.066,1.968 -2.066,0" style="fill:rgb(106,189,69);fill-rule:nonzero;"/>
        </g>
        <g transform="matrix(8.33333,0,0,8.33333,1723.2,387.883)">
            <path d="M0,6.273L0,0.122L1.784,0.122L1.968,1.119L1.992,1.119C2.399,0.283 3.161,0 3.875,0L3.875,1.894L3.383,1.894C2.264,1.894 1.968,2.275 1.968,2.83L1.968,6.273L0,6.273Z" style="fill:rgb(106,189,69);fill-rule:nonzero;"/>
        </g>
        <g transform="matrix(8.33333,0,0,8.33333,1761.12,441.698)">
            <path d="M0,-8.795L1.968,-8.795L1.968,-2.115C1.968,-1.734 2.092,-1.66 2.768,-1.66L2.768,-0.123C0.406,0 0,-0.431 0,-2.115L0,-8.795Z" style="fill:rgb(106,189,69);fill-rule:nonzero;"/>
        </g>
        <g transform="matrix(8.33333,0,0,8.33333,1818.52,408.383)">
            <path d="M0,-0.861L-0.738,-0.861C-1.463,-0.861 -1.685,-0.271 -1.685,0.738C-1.685,1.759 -1.562,2.399 -0.812,2.399C-0.493,2.399 0,2.19 0,1.587L0,-0.861ZM0,-4.797L1.968,-4.797L1.968,3.813L0.184,3.813L0,3.149L-0.025,3.149C-0.419,3.691 -0.837,3.936 -1.488,3.936C-3.051,3.936 -3.752,2.706 -3.752,0.738C-3.752,-1.218 -2.916,-2.46 -0.972,-2.46C-0.664,-2.46 -0.369,-2.435 0,-2.386L0,-4.797Z" style="fill:rgb(106,189,69);fill-rule:nonzero;"/>
        </g>
        <g transform="matrix(8.33333,0,0,8.33333,0,-10574)">
            <rect x="221.295" y="1317.64" width="4.674" height="1.599" style="fill:rgb(106,189,69);"/>
        </g>
        <g transform="matrix(8.33333,0,0,8.33333,1921.51,441.185)">
            <path d="M0,-8.611C0.652,-8.611 1.611,-8.549 2.485,-8.315L2.485,-6.815L0.369,-6.815C-1.144,-6.815 -1.341,-5.486 -1.341,-4.306C-1.341,-3.125 -1.144,-1.795 0.369,-1.795L2.485,-1.795L2.485,-0.295C1.611,-0.061 0.652,0 0,0C-2.891,0 -3.506,-2.214 -3.506,-4.306C-3.506,-6.397 -2.891,-8.611 0,-8.611" style="fill:rgb(106,189,69);fill-rule:nonzero;"/>
        </g>
        <g transform="matrix(8.33333,0,0,8.33333,1948.86,441.698)">
            <path d="M0,-8.795L1.968,-8.795L1.968,-2.115C1.968,-1.734 2.091,-1.66 2.768,-1.66L2.768,-0.123C0.406,0 0,-0.431 0,-2.115L0,-8.795Z" style="fill:rgb(106,189,69);fill-rule:nonzero;"/>
        </g>
        <g transform="matrix(8.33333,0,0,8.33333,2004.1,410.331)">
            <path d="M0,1.009L-0.787,1.009C-1.206,1.009 -1.476,1.169 -1.476,1.612C-1.476,2.091 -1.132,2.202 -0.799,2.202C-0.492,2.202 0,2.017 0,1.403L0,1.009ZM-3.063,-1.095L-3.063,-2.398C-2.19,-2.571 -1.292,-2.694 -0.529,-2.694C1.045,-2.694 1.968,-2.313 1.968,-0.615L1.968,3.579L0.185,3.579L0,2.915L-0.025,2.915C-0.467,3.53 -0.96,3.703 -1.672,3.703C-2.829,3.703 -3.444,2.805 -3.444,1.747C-3.444,0.148 -2.276,-0.172 -1.402,-0.172L0,-0.172L0,-0.529C0,-0.91 -0.147,-1.095 -0.763,-1.095L-3.063,-1.095Z" style="fill:rgb(106,189,69);fill-rule:nonzero;"/>
        </g>
        <g transform="matrix(8.33333,0,0,8.33333,2050.42,441.183)">
            <path d="M0,-6.396C0.8,-6.396 1.304,-6.335 2.177,-6.101L2.177,-4.797L0.099,-4.797C-0.369,-4.797 -0.566,-4.637 -0.566,-4.44C-0.566,-4.243 -0.455,-4.108 0.025,-4.009C1.07,-3.825 2.448,-3.555 2.448,-1.992C2.448,-0.516 1.267,0 -0.221,0C-1.021,0 -1.857,-0.061 -2.731,-0.295L-2.731,-1.598L-0.332,-1.598C0.099,-1.598 0.283,-1.783 0.283,-1.992C0.283,-2.189 0.161,-2.324 -0.307,-2.41C-1.365,-2.595 -2.718,-2.854 -2.718,-4.44C-2.718,-5.88 -1.476,-6.396 0,-6.396" style="fill:rgb(106,189,69);fill-rule:nonzero;"/>
        </g>
        <g transform="matrix(8.33333,0,0,8.33333,2099.71,441.183)">
            <path d="M0,-6.396C0.8,-6.396 1.304,-6.335 2.177,-6.101L2.177,-4.797L0.099,-4.797C-0.369,-4.797 -0.566,-4.637 -0.566,-4.44C-0.566,-4.243 -0.455,-4.108 0.025,-4.009C1.07,-3.825 2.448,-3.555 2.448,-1.992C2.448,-0.516 1.267,0 -0.221,0C-1.021,0 -1.857,-0.061 -2.731,-0.295L-2.731,-1.598L-0.332,-1.598C0.099,-1.598 0.283,-1.783 0.283,-1.992C0.283,-2.189 0.161,-2.324 -0.307,-2.41C-1.365,-2.595 -2.718,-2.854 -2.718,-4.44C-2.718,-5.88 -1.476,-6.396 0,-6.396" style="fill:rgb(106,189,69);fill-rule:nonzero;"/>
        </g>
        <g transform="matrix(8.33333,0,0,8.33333,2192.36,425.293)">
            <path d="M0,-4.797L-3.395,-4.797L-3.395,-2.939L-0.456,-2.939L-0.456,-1.156L-3.395,-1.156L-3.395,1.784L-5.474,1.784L-5.474,-6.581L0,-6.581L0,-4.797Z" style="fill:rgb(106,189,69);fill-rule:nonzero;"/>
        </g>
        <g transform="matrix(8.33333,0,0,8.33333,0,-10591.4)">
            <path d="M265.812,1323.79L263.844,1323.79L263.844,1317.64L265.812,1317.64L265.812,1323.79ZM265.812,1317L263.844,1317L263.844,1315.18L265.812,1315.18L265.812,1317Z" style="fill:rgb(106,189,69);fill-rule:nonzero;"/>
        </g>
        <g transform="matrix(8.33333,0,0,8.33333,2223.29,387.883)">
            <path d="M0,6.273L0,0.122L1.784,0.122L1.968,0.787L1.993,0.787C2.424,0.246 2.977,0 3.691,0C4.97,0 5.474,0.837 5.474,1.943L5.474,6.273L3.506,6.273L3.506,2.128C3.506,1.648 3.1,1.501 2.78,1.501C2.461,1.501 1.968,1.71 1.968,2.312L1.968,6.273L0,6.273Z" style="fill:rgb(106,189,69);fill-rule:nonzero;"/>
        </g>
        <g transform="matrix(8.33333,0,0,8.33333,2304.67,410.331)">
            <path d="M0,1.009L-0.787,1.009C-1.206,1.009 -1.476,1.169 -1.476,1.612C-1.476,2.091 -1.132,2.202 -0.8,2.202C-0.492,2.202 0,2.017 0,1.403L0,1.009ZM-3.063,-1.095L-3.063,-2.398C-2.19,-2.571 -1.292,-2.694 -0.53,-2.694C1.045,-2.694 1.968,-2.313 1.968,-0.615L1.968,3.579L0.185,3.579L0,2.915L-0.025,2.915C-0.467,3.53 -0.96,3.703 -1.673,3.703C-2.829,3.703 -3.444,2.805 -3.444,1.747C-3.444,0.148 -2.276,-0.172 -1.403,-0.172L0,-0.172L0,-0.529C0,-0.91 -0.147,-1.095 -0.763,-1.095L-3.063,-1.095Z" style="fill:rgb(106,189,69);fill-rule:nonzero;"/>
        </g>
        <g transform="matrix(8.33333,0,0,8.33333,2329.26,387.883)">
            <path d="M0,6.273L0,0.122L1.784,0.122L1.968,0.787L1.992,0.787C2.423,0.246 2.976,0 3.69,0C4.969,0 5.473,0.837 5.473,1.943L5.473,6.273L3.505,6.273L3.505,2.128C3.505,1.648 3.1,1.501 2.779,1.501C2.46,1.501 1.968,1.71 1.968,2.312L1.968,6.273L0,6.273Z" style="fill:rgb(106,189,69);fill-rule:nonzero;"/>
        </g>
        <g transform="matrix(8.33333,0,0,8.33333,2406.84,441.183)">
            <path d="M0,-6.396C0.652,-6.396 1.095,-6.335 1.968,-6.101L1.968,-4.797L0,-4.797C-0.726,-4.797 -0.91,-4.256 -0.91,-3.198C-0.91,-2.14 -0.726,-1.598 0,-1.598L1.968,-1.598L1.968,-0.295C1.095,-0.061 0.652,0 0,0C-2.165,0 -2.977,-1.23 -2.977,-3.198C-2.977,-5.154 -2.165,-6.396 0,-6.396" style="fill:rgb(106,189,69);fill-rule:nonzero;"/>
        </g>
        <g transform="matrix(8.33333,0,0,8.33333,0,-10591.4)">
            <path d="M293.468,1323.79L291.5,1323.79L291.5,1317.64L293.468,1317.64L293.468,1323.79ZM293.468,1317L291.5,1317L291.5,1315.18L293.468,1315.18L293.468,1317Z" style="fill:rgb(106,189,69);fill-rule:nonzero;"/>
        </g>
        <g transform="matrix(8.33333,0,0,8.33333,2481.34,410.331)">
            <path d="M0,1.009L-0.787,1.009C-1.206,1.009 -1.476,1.169 -1.476,1.612C-1.476,2.091 -1.132,2.202 -0.799,2.202C-0.492,2.202 0,2.017 0,1.403L0,1.009ZM-3.063,-1.095L-3.063,-2.398C-2.19,-2.571 -1.292,-2.694 -0.529,-2.694C1.045,-2.694 1.968,-2.313 1.968,-0.615L1.968,3.579L0.185,3.579L0,2.915L-0.025,2.915C-0.467,3.53 -0.959,3.703 -1.672,3.703C-2.829,3.703 -3.443,2.805 -3.443,1.747C-3.443,0.148 -2.275,-0.172 -1.402,-0.172L0,-0.172L0,-0.529C0,-0.91 -0.147,-1.095 -0.763,-1.095L-3.063,-1.095Z" style="fill:rgb(106,189,69);fill-rule:nonzero;"/>
        </g>
        <g transform="matrix(8.33333,0,0,8.33333,2505.92,441.698)">
            <path d="M0,-8.795L1.968,-8.795L1.968,-2.115C1.968,-1.734 2.092,-1.66 2.768,-1.66L2.768,-0.123C0.406,0 0,-0.431 0,-2.115L0,-8.795Z" style="fill:rgb(106,189,69);fill-rule:nonzero;"/>
        </g>
        <g transform="matrix(8.33333,0,0,8.33333,2599.2,425.293)">
            <path d="M0,-4.797L-3.396,-4.797L-3.396,-3.37L-0.578,-3.37L-0.578,-1.587L-3.396,-1.587L-3.396,0.001L0,0.001L0,1.784L-5.474,1.784L-5.474,-6.581L0,-6.581L0,-4.797Z" style="fill:rgb(106,189,69);fill-rule:nonzero;"/>
        </g>
        <g transform="matrix(8.33333,0,0,8.33333,2636.29,408.383)">
            <path d="M0,-0.861L-0.738,-0.861C-1.464,-0.861 -1.685,-0.271 -1.685,0.738C-1.685,1.759 -1.562,2.399 -0.812,2.399C-0.493,2.399 0,2.19 0,1.587L0,-0.861ZM0,-4.797L1.968,-4.797L1.968,3.813L0.184,3.813L0,3.149L-0.025,3.149C-0.419,3.691 -0.837,3.936 -1.488,3.936C-3.051,3.936 -3.752,2.706 -3.752,0.738C-3.752,-1.218 -2.916,-2.46 -0.972,-2.46C-0.664,-2.46 -0.369,-2.435 0,-2.386L0,-4.797Z" style="fill:rgb(106,189,69);fill-rule:nonzero;"/>
        </g>
        <g transform="matrix(8.33333,0,0,8.33333,2706.49,441.186)">
            <path d="M0,-6.274L0,-0.123L-1.784,-0.123L-1.968,-0.787L-1.993,-0.787C-2.435,-0.246 -2.977,0 -3.69,0C-4.97,0 -5.474,-0.824 -5.474,-1.931L-5.474,-6.274L-3.506,-6.274L-3.506,-2.116C-3.506,-1.648 -3.112,-1.501 -2.78,-1.501C-2.46,-1.501 -1.968,-1.71 -1.968,-2.3L-1.968,-6.274L0,-6.274Z" style="fill:rgb(106,189,69);fill-rule:nonzero;"/>
        </g>
        <g transform="matrix(8.33333,0,0,8.33333,2738.46,441.183)">
            <path d="M0,-6.396C0.652,-6.396 1.095,-6.335 1.968,-6.101L1.968,-4.797L0,-4.797C-0.726,-4.797 -0.91,-4.256 -0.91,-3.198C-0.91,-2.14 -0.726,-1.598 0,-1.598L1.968,-1.598L1.968,-0.295C1.095,-0.061 0.652,0 0,0C-2.165,0 -2.977,-1.23 -2.977,-3.198C-2.977,-5.154 -2.165,-6.396 0,-6.396" style="fill:rgb(106,189,69);fill-rule:nonzero;"/>
        </g>
        <g transform="matrix(8.33333,0,0,8.33333,2787.85,410.331)">
            <path d="M0,1.009L-0.787,1.009C-1.206,1.009 -1.476,1.169 -1.476,1.612C-1.476,2.091 -1.132,2.202 -0.799,2.202C-0.492,2.202 0,2.017 0,1.403L0,1.009ZM-3.063,-1.095L-3.063,-2.398C-2.19,-2.571 -1.292,-2.694 -0.529,-2.694C1.045,-2.694 1.968,-2.313 1.968,-0.615L1.968,3.579L0.185,3.579L0,2.915L-0.025,2.915C-0.467,3.53 -0.959,3.703 -1.672,3.703C-2.829,3.703 -3.443,2.805 -3.443,1.747C-3.443,0.148 -2.275,-0.172 -1.402,-0.172L0,-0.172L0,-0.529C0,-0.91 -0.147,-1.095 -0.763,-1.095L-3.063,-1.095Z" style="fill:rgb(106,189,69);fill-rule:nonzero;"/>
        </g>
        <g transform="matrix(8.33333,0,0,8.33333,2815.73,390.137)">
            <path d="M0,4.256L0,1.34L-0.825,1.34L-0.825,0.16L0,-0.148L0.959,-1.87L1.968,-1.87L1.968,-0.148L3.358,-0.148L3.358,1.34L1.968,1.34L1.968,4.071C1.968,4.355 2.127,4.527 2.521,4.527L3.358,4.527L3.358,5.83C2.866,6.015 2.521,6.126 1.968,6.126C0.541,6.126 0,5.351 0,4.256" style="fill:rgb(106,189,69);fill-rule:nonzero;"/>
        </g>
        <g transform="matrix(8.33333,0,0,8.33333,0,-10591.4)">
            <path d="M343.851,1323.79L341.883,1323.79L341.883,1317.64L343.851,1317.64L343.851,1323.79ZM343.851,1317L341.883,1317L341.883,1315.18L343.851,1315.18L343.851,1317Z" style="fill:rgb(106,189,69);fill-rule:nonzero;"/>
        </g>
        <g transform="matrix(8.33333,0,0,8.33333,2889.83,414.537)">
            <path d="M0,0C0,1.057 0.184,1.611 0.91,1.611C1.648,1.611 1.833,1.057 1.833,0C1.833,-1.059 1.648,-1.611 0.91,-1.611C0.184,-1.611 0,-1.059 0,0M-2.067,0C-2.067,-1.957 -1.255,-3.198 0.91,-3.198C3.087,-3.198 3.899,-1.957 3.899,0C3.899,1.968 3.087,3.198 0.91,3.198C-1.255,3.198 -2.067,1.968 -2.067,0" style="fill:rgb(106,189,69);fill-rule:nonzero;"/>
        </g>
        <g transform="matrix(8.33333,0,0,8.33333,2929.48,387.883)">
            <path d="M0,6.273L0,0.122L1.784,0.122L1.968,0.787L1.992,0.787C2.423,0.246 2.976,0 3.69,0C4.969,0 5.473,0.837 5.473,1.943L5.473,6.273L3.505,6.273L3.505,2.128C3.505,1.648 3.1,1.501 2.779,1.501C2.46,1.501 1.968,1.71 1.968,2.312L1.968,6.273L0,6.273Z" style="fill:rgb(106,189,69);fill-rule:nonzero;"/>
        </g>
        <g transform="matrix(0,8.33333,8.33333,0,1619.79,409.137)">
            <path d="M-18.764,-18.764L18.764,-18.764" style="fill:none;stroke:white;stroke-width:0.68px;"/>
        </g>
        <g transform="matrix(8.33333,0,0,8.33333,488.047,293.34)">
            <path d="M0,7.714C2.13,7.714 3.249,5.987 3.249,3.857C3.249,1.727 2.13,0 0,0C-2.13,0 -3.249,1.727 -3.249,3.857C-3.249,5.987 -2.13,7.714 0,7.714" style="fill:rgb(106,189,69);fill-rule:nonzero;"/>
        </g>
        <g transform="matrix(8.33333,0,0,8.33333,514.818,419.605)">
            <path d="M0,1.039C-0.01,-4.123 6.696,-6.973 10.413,-3.396L11.539,-6.96C6.3,-10.413 -1.303,-7.753 -3.106,-1.71L-3.213,-1.71C-5.015,-7.753 -12.618,-10.413 -17.858,-6.96L-16.732,-3.396C-13.014,-6.973 -6.308,-4.123 -6.318,1.039L-6.318,11.452L0,11.452L0,1.039" style="fill:white;fill-rule:nonzero;"/>
        </g>
        <g transform="matrix(8.33333,0,0,8.33333,1140.52,439.846)">
            <path d="M0,-1.058L0,-0.654L0.164,-0.654C0.311,-0.654 0.409,-0.687 0.409,-0.851C0.409,-0.992 0.333,-1.058 0.207,-1.058L0,-1.058ZM0.158,-0.256L0,-0.256L0,0.399L-0.464,0.399L-0.464,-1.457L0.262,-1.457C0.649,-1.457 0.89,-1.2 0.89,-0.851C0.89,-0.621 0.78,-0.436 0.589,-0.348L0.988,0.399L0.502,0.399L0.158,-0.256ZM0.202,0.983C1.015,0.983 1.67,0.317 1.67,-0.528C1.67,-1.375 1.015,-2.013 0.202,-2.013C-0.622,-2.013 -1.266,-1.375 -1.266,-0.528C-1.266,0.317 -0.622,0.983 0.202,0.983M0.202,-2.401C1.222,-2.401 2.052,-1.593 2.052,-0.528C2.052,0.535 1.222,1.343 0.202,1.343C-0.819,1.343 -1.648,0.535 -1.648,-0.528C-1.648,-1.593 -0.819,-2.401 0.202,-2.401" style="fill:white;fill-rule:nonzero;"/>
        </g>
    </g>
</svg>
