<svg width="104" height="19" viewBox="0 0 104 19" fill="none" xmlns="http://www.w3.org/2000/svg">
<path d="M0.728 0.816H3.968V14.928H11.24V18H0.728V0.816ZM14.9163 4.536C14.6443 4.536 14.3803 4.488 14.1243 4.392C13.8843 4.28 13.6683 4.136 13.4763 3.96C13.3003 3.768 13.1563 3.552 13.0443 3.312C12.9483 3.072 12.9003 2.808 12.9003 2.52C12.9003 2.232 12.9483 1.968 13.0443 1.728C13.1563 1.488 13.3003 1.28 13.4763 1.104C13.6683 0.911999 13.8843 0.767999 14.1243 0.671999C14.3803 0.559999 14.6443 0.503999 14.9163 0.503999C15.4763 0.503999 15.9563 0.703999 16.3563 1.104C16.7563 1.488 16.9563 1.96 16.9563 2.52C16.9563 3.08 16.7563 3.56 16.3563 3.96C15.9563 4.344 15.4763 4.536 14.9163 4.536ZM13.3563 18V6.24H16.5003V18H13.3563ZM22.3273 7.776H22.5193C22.8873 7.184 23.3833 6.72 24.0073 6.384C24.6313 6.032 25.3433 5.856 26.1433 5.856C26.8793 5.856 27.5273 5.976 28.0873 6.216C28.6473 6.456 29.1033 6.8 29.4553 7.248C29.8233 7.68 30.0953 8.208 30.2713 8.832C30.4633 9.44 30.5593 10.12 30.5593 10.872V18H27.4153V11.256C27.4153 10.408 27.2233 9.784 26.8393 9.384C26.4713 8.968 25.9273 8.76 25.2073 8.76C24.7753 8.76 24.3913 8.856 24.0553 9.048C23.7353 9.224 23.4553 9.472 23.2153 9.792C22.9913 10.096 22.8153 10.464 22.6873 10.896C22.5753 11.312 22.5193 11.76 22.5193 12.24V18H19.3753V6.24H22.3273V7.776ZM33.1565 0.816H36.3005V10.176H36.4445L40.3805 6.24H44.2685V6.432L39.9005 10.68L44.6285 17.808V18H40.9085L37.6925 12.84L36.3005 14.208V18H33.1565V0.816ZM47.1791 8.928H45.1151V6.24H47.1791V2.64H50.3231V6.24H53.2031V8.928H50.3231V13.488C50.3231 13.76 50.3471 14.016 50.3951 14.256C50.4591 14.48 50.5711 14.672 50.7311 14.832C50.9551 15.088 51.2751 15.216 51.6911 15.216C51.9631 15.216 52.1791 15.192 52.3391 15.144C52.4991 15.08 52.6511 15 52.7951 14.904L53.6831 17.664C53.3151 17.84 52.9151 17.968 52.4831 18.048C52.0671 18.144 51.6031 18.192 51.0911 18.192C50.4991 18.192 49.9631 18.104 49.4831 17.928C49.0191 17.736 48.6271 17.48 48.3071 17.16C47.5551 16.44 47.1791 15.416 47.1791 14.088V8.928ZM62.5295 16.752H62.3375C61.9695 17.2 61.5215 17.584 60.9935 17.904C60.4815 18.224 59.8175 18.384 59.0015 18.384C58.3935 18.384 57.8175 18.28 57.2735 18.072C56.7455 17.88 56.2815 17.608 55.8815 17.256C55.4815 16.904 55.1695 16.48 54.9455 15.984C54.7215 15.488 54.6095 14.944 54.6095 14.352C54.6095 13.744 54.7295 13.2 54.9695 12.72C55.2095 12.224 55.5455 11.8 55.9775 11.448C56.4095 11.096 56.9135 10.832 57.4895 10.656C58.0815 10.464 58.7215 10.368 59.4095 10.368C60.1775 10.368 60.8095 10.432 61.3055 10.56C61.8015 10.672 62.2095 10.792 62.5295 10.92V10.56C62.5295 9.936 62.2815 9.424 61.7855 9.024C61.2895 8.608 60.6735 8.4 59.9375 8.4C58.8495 8.4 57.9295 8.856 57.1775 9.768L54.8975 8.208C56.1455 6.64 57.8495 5.856 60.0095 5.856C61.8335 5.856 63.2255 6.288 64.1855 7.152C65.1455 8 65.6255 9.264 65.6255 10.944V18H62.5295V16.752ZM62.5295 13.224C62.1615 13.048 61.7775 12.912 61.3775 12.816C60.9935 12.704 60.5695 12.648 60.1055 12.648C59.3535 12.648 58.7695 12.816 58.3535 13.152C57.9535 13.472 57.7535 13.872 57.7535 14.352C57.7535 14.832 57.9455 15.216 58.3295 15.504C58.7295 15.792 59.1855 15.936 59.6975 15.936C60.1135 15.936 60.4975 15.864 60.8495 15.72C61.2015 15.56 61.4975 15.36 61.7375 15.12C61.9935 14.864 62.1855 14.576 62.3135 14.256C62.4575 13.92 62.5295 13.576 62.5295 13.224ZM70.0213 18.144C69.4453 18.144 68.9493 17.944 68.5333 17.544C68.1333 17.128 67.9333 16.632 67.9333 16.056C67.9333 15.48 68.1333 14.992 68.5333 14.592C68.9493 14.192 69.4453 13.992 70.0213 13.992C70.5973 13.992 71.0853 14.192 71.4853 14.592C71.8853 14.992 72.0853 15.48 72.0853 16.056C72.0853 16.632 71.8853 17.128 71.4853 17.544C71.0853 17.944 70.5973 18.144 70.0213 18.144ZM89.5098 15.24C88.6618 16.264 87.6618 17.048 86.5098 17.592C85.3578 18.12 84.0698 18.384 82.6458 18.384C81.3658 18.384 80.1738 18.152 79.0698 17.688C77.9818 17.224 77.0378 16.592 76.2378 15.792C75.4378 14.992 74.8058 14.048 74.3418 12.96C73.8778 11.856 73.6458 10.672 73.6458 9.408C73.6458 8.144 73.8778 6.968 74.3418 5.88C74.8058 4.776 75.4378 3.824 76.2378 3.024C77.0378 2.224 77.9818 1.592 79.0698 1.128C80.1738 0.663999 81.3658 0.431999 82.6458 0.431999C84.0218 0.431999 85.2298 0.671999 86.2698 1.152C87.3258 1.632 88.2618 2.328 89.0778 3.24L86.7978 5.448C86.2858 4.856 85.6938 4.384 85.0218 4.032C84.3658 3.68 83.5818 3.504 82.6698 3.504C81.8698 3.504 81.1178 3.648 80.4138 3.936C79.7098 4.208 79.0938 4.6 78.5658 5.112C78.0538 5.624 77.6458 6.248 77.3418 6.984C77.0378 7.704 76.8858 8.512 76.8858 9.408C76.8858 10.304 77.0378 11.12 77.3418 11.856C77.6458 12.576 78.0538 13.192 78.5658 13.704C79.0938 14.216 79.7098 14.616 80.4138 14.904C81.1178 15.176 81.8698 15.312 82.6698 15.312C83.6298 15.312 84.4778 15.12 85.2138 14.736C85.9658 14.336 86.6298 13.776 87.2058 13.056L89.5098 15.24ZM96.8261 5.856C97.7381 5.856 98.5701 6.016 99.3221 6.336C100.09 6.64 100.746 7.072 101.29 7.632C101.85 8.176 102.282 8.832 102.586 9.6C102.906 10.368 103.066 11.208 103.066 12.12C103.066 13.032 102.906 13.872 102.586 14.64C102.282 15.408 101.85 16.072 101.29 16.632C100.746 17.176 100.09 17.608 99.3221 17.928C98.5701 18.232 97.7381 18.384 96.8261 18.384C95.9141 18.384 95.0741 18.232 94.3061 17.928C93.5541 17.608 92.8981 17.176 92.3381 16.632C91.7941 16.072 91.3621 15.408 91.0421 14.64C90.7381 13.872 90.5861 13.032 90.5861 12.12C90.5861 11.208 90.7381 10.368 91.0421 9.6C91.3621 8.832 91.7941 8.176 92.3381 7.632C92.8981 7.072 93.5541 6.64 94.3061 6.336C95.0741 6.016 95.9141 5.856 96.8261 5.856ZM96.8261 15.48C97.2261 15.48 97.6101 15.408 97.9781 15.264C98.3621 15.104 98.6981 14.88 98.9861 14.592C99.2741 14.304 99.4981 13.952 99.6581 13.536C99.8341 13.12 99.9221 12.648 99.9221 12.12C99.9221 11.592 99.8341 11.12 99.6581 10.704C99.4981 10.288 99.2741 9.936 98.9861 9.648C98.6981 9.36 98.3621 9.144 97.9781 9C97.6101 8.84 97.2261 8.76 96.8261 8.76C96.4101 8.76 96.0181 8.84 95.6501 9C95.2821 9.144 94.9541 9.36 94.6661 9.648C94.3781 9.936 94.1461 10.288 93.9701 10.704C93.8101 11.12 93.7301 11.592 93.7301 12.12C93.7301 12.648 93.8101 13.12 93.9701 13.536C94.1461 13.952 94.3781 14.304 94.6661 14.592C94.9541 14.88 95.2821 15.104 95.6501 15.264C96.0181 15.408 96.4101 15.48 96.8261 15.48Z" fill="white"/>
</svg>
