<?xml version="1.0" encoding="utf-8"?>
<!-- Generator: Adobe Illustrator 15.0.0, SVG Export Plug-In . SVG Version: 6.00 Build 0)  -->
<!DOCTYPE svg PUBLIC "-//W3C//DTD SVG 1.1//EN" "http://www.w3.org/Graphics/SVG/1.1/DTD/svg11.dtd">
<svg xmlns="http://www.w3.org/2000/svg" xmlns:xlink="http://www.w3.org/1999/xlink" version="1.1" id="Layer_1" x="0px" y="0px" width="26px" height="26px" viewBox="0 0 26 26" enable-background="new 0 0 26 26" xml:space="preserve">

<path fill="#18986b" d="M11.098,24.064c0,1.053,0.85,1.904,1.902,1.904s1.902-0.852,1.902-1.904  C14.902,23.015,11.098,23.015,11.098,24.064z"/>
<path fill="#18986b" d="M16,24.248C16,24.663,15.662,25,15.251,25h-4.502C10.338,25,10,24.663,10,24.248v-1.499  C10,22.335,10.338,22,10.749,22h4.502C15.662,22,16,22.335,16,22.749V24.248z"/>
<path fill="#18986b" d="M13,7.118c-3.21,0-5.813,2.603-5.813,5.813c0,3.298,2.837,5.218,2.837,6.908v0.411  c0,0.412,0.335,0.744,0.743,0.744h4.465c0.408,0,0.743-0.332,0.743-0.744v-0.406c0-1.695,2.837-3.561,2.837-6.913  C18.813,9.721,16.21,7.118,13,7.118z M9.863,14.985c-0.436-0.613-0.693-1.356-0.693-2.161c0-2.082,1.713-3.771,3.825-3.771  c0.736,0,1.421,0.207,2.003,0.564c-0.07-0.004-0.143-0.011-0.215-0.011c-2.732,0-4.945,2.185-4.945,4.88  C9.838,14.653,9.848,14.822,9.863,14.985z"/>
<line fill="none" stroke="#18986b" stroke-width="2" stroke-linecap="round" stroke-linejoin="round" stroke-miterlimit="10" x1="13" y1="4" x2="13" y2="1"/>
<line fill="none" stroke="#18986b" stroke-width="2" stroke-linecap="round" stroke-linejoin="round" stroke-miterlimit="10" x1="22" y1="13" x2="25" y2="13"/>
<line fill="none" stroke="#18986b" stroke-width="2" stroke-linecap="round" stroke-linejoin="round" stroke-miterlimit="10" x1="1" y1="13" x2="4" y2="13"/>
<line fill="none" stroke="#18986b" stroke-width="2" stroke-linecap="round" stroke-linejoin="round" stroke-miterlimit="10" x1="19.364" y1="19.365" x2="21.485" y2="21.486"/>
<line fill="none" stroke="#18986b" stroke-width="2" stroke-linecap="round" stroke-linejoin="round" stroke-miterlimit="10" x1="4.515" y1="4.516" x2="6.637" y2="6.637"/>
<line fill="none" stroke="#18986b" stroke-width="2" stroke-linecap="round" stroke-linejoin="round" stroke-miterlimit="10" x1="6.635" y1="19.364" x2="4.514" y2="21.485"/>
<line fill="none" stroke="#18986b" stroke-width="2" stroke-linecap="round" stroke-linejoin="round" stroke-miterlimit="10" x1="21.484" y1="4.515" x2="19.363" y2="6.637"/>
</svg>