<?xml version="1.0" encoding="utf-8"?>
<!-- Generator: Adobe Illustrator 15.0.0, SVG Export Plug-In . SVG Version: 6.00 Build 0)  -->
<!DOCTYPE svg PUBLIC "-//W3C//DTD SVG 1.1//EN" "http://www.w3.org/Graphics/SVG/1.1/DTD/svg11.dtd">
<svg xmlns="http://www.w3.org/2000/svg" xmlns:xlink="http://www.w3.org/1999/xlink" version="1.1" id="Layer_1" x="0px" y="0px" width="26px" height="26px" viewBox="0 0 26 26" enable-background="new 0 0 26 26" xml:space="preserve">

<g>
	<path fill="#18986b" d="M16.379,3.048c0.004,0.002,0.019,0.011,0.022,0.013l0.13,0.062c0.022,0.013,0.066,0.019,0.088,0.015   l0.059,0.092c0.031,0.039,0.031,0.039,0.316,0.133h0.011c0.002,0,0.005,0,0.007,0c0.01,0,0.021,0,0.027-0.002   c0.03-0.005,0.057-0.023,0.07-0.051c0.016-0.029,0.021-0.047,0.01-0.076h0.09c0.005,0,0.009,0,0.014,0   c0.037-0.006,0.076-0.035,0.088-0.071c0.014-0.04-0.008-0.099-0.041-0.126c-0.013-0.009-0.016-0.012-0.122-0.063   c0.014-0.042-0.006-0.073-0.077-0.192c-0.005-0.006-0.012-0.013-0.019-0.019c-0.031-0.028-0.039-0.032-0.173-0.073   c-0.009-0.002-0.018-0.004-0.027-0.004c-0.008,0-0.029,0-0.037,0.001l-0.132,0.027c-0.013,0.003-0.024,0.009-0.035,0.016   L16.6,2.753c-0.005-0.003-0.01-0.005-0.017-0.007c-0.013-0.004-0.043-0.01-0.058-0.007c-0.029,0.003-0.05,0.016-0.065,0.029h-0.146   c-0.038,0-0.079,0.024-0.096,0.058c-0.008,0.014-0.012,0.029-0.012,0.045C16.207,2.937,16.227,2.949,16.379,3.048z"/>
	<path fill="#18986b" d="M24.771,11.975l-0.144-0.533c0.009-0.002,0.017-0.006,0.025-0.01c0.035-0.02,0.055-0.06,0.049-0.1   c-0.372-2.631-1.644-5.086-3.581-6.918c-0.577-0.53-1.205-1.005-1.865-1.41C19.25,3,19.245,2.995,19.24,2.992l-0.064-0.037   c-0.001-0.001-0.003-0.002-0.004-0.003c-0.079-0.048-0.157-0.097-0.236-0.14c-0.01-0.006-0.02-0.01-0.029-0.012   c-0.016-0.009-0.033-0.02-0.051-0.029c-0.037-0.021-0.072-0.043-0.082-0.049c-0.002,0-0.004-0.002-0.006-0.003l-0.04-0.022   c-0.003-0.001-0.007-0.004-0.011-0.005c-0.02-0.012-0.038-0.021-0.057-0.03l-0.018-0.006c-0.005-0.006-0.02-0.015-0.025-0.018   c-0.012-0.008-0.033-0.012-0.049-0.014c-0.007-0.003-0.014-0.006-0.019-0.009l-0.066-0.034c-0.009-0.004-0.017-0.007-0.025-0.008   C18.45,2.571,18.443,2.57,18.436,2.57h-0.001l-0.038-0.018c-0.005-0.002-0.01-0.004-0.016-0.006s-0.015-0.004-0.021-0.005   c-0.048-0.007-0.087,0.019-0.104,0.06c-0.018,0.041-0.005,0.089,0.03,0.116c0.027,0.022,0.059,0.039,0.09,0.056l0.024,0.013   c0.019,0.013,0.019,0.013,0.28,0.149c0.017,0.009,0.016,0.01,0.121,0.048l0.001,0.001c0.009,0.002,0.017,0.004,0.024,0.004   C18.836,2.992,18.842,2.995,18.85,3c0.008,0.006,0.029,0.015,0.041,0.018c0.002,0.001,0.004,0.001,0.004,0.001l0.171,0.101   c0.003,0.008,0.009,0.016,0.015,0.023c0.004,0.004,0.014,0.015,0.019,0.018l0.046,0.037c0.088,0.068,0.193,0.15,0.277,0.227   c0,0,0.003,0.002,0.005,0.003c-0.012,0.011-0.021,0.024-0.026,0.038c-0.016,0.039-0.005,0.082,0.025,0.109l0.041,0.037   c-0.014-0.006-0.027-0.011-0.043-0.018l-0.207-0.151c-0.005-0.004-0.01-0.007-0.014-0.011c-0.008-0.023-0.039-0.063-0.15-0.197   l0.005-0.016c0.004-0.012,0.005-0.025,0.004-0.038c-0.003-0.026-0.032-0.065-0.054-0.083c-0.027-0.021-0.027-0.021-0.229-0.113   c-0.037-0.011-0.088-0.001-0.113,0.025c-0.038-0.004-0.065,0.009-0.087,0.031c-0.033,0.033-0.037,0.086-0.01,0.125   c0.058,0.084,0.131,0.146,0.201,0.209c0.031,0.027,0.064,0.055,0.092,0.083c0.021,0.022,0.036,0.034,0.07,0.048   c0.01,0.056,0.049,0.101,0.076,0.133c0.011,0.012,0.021,0.023,0.036,0.045c0.025,0.033,0.025,0.033,0.438,0.249   c0.012,0.004,0.04,0.009,0.053,0.009s0.026-0.004,0.039-0.009l0.041-0.019c0.008,0.006,0.02,0.013,0.035,0.021   c-0.018,0.021-0.027,0.047-0.025,0.076l0.003,0.037l-0.192-0.104c-0.042-0.021-0.092-0.013-0.123,0.023   c-0.016,0.019-0.023,0.042-0.022,0.065c-0.041-0.019-0.083-0.036-0.122-0.054c-0.051-0.021-0.1-0.043-0.15-0.067   c-0.006-0.002-0.025-0.009-0.033-0.011l-0.219-0.037c-0.015-0.002-0.044,0.002-0.061,0.008c-0.007,0.002-0.015,0.006-0.021,0.01   l-0.123-0.037l-0.14-0.077c-0.006-0.003-0.033-0.012-0.039-0.013L18.19,3.721c-0.007-0.001-0.021-0.004-0.028-0.004h-0.136   c-0.018,0-0.047,0.013-0.062,0.022c-0.02,0.011-0.033,0.028-0.04,0.048l-0.022,0.057l-0.096,0.022   c-0.022,0.005-0.05,0.028-0.064,0.048c-0.008,0.012-0.014,0.025-0.017,0.041l-0.034,0.059c-0.014,0.014-0.023,0.032-0.027,0.052   l-0.049,0.065c-0.01,0.013-0.02,0.041-0.023,0.058c-0.002,0.013-0.002,0.024,0,0.037l0.012,0.059L17.566,4.67   c-0.001,0.007,0.001,0.02,0.003,0.032c-0.009,0.005-0.017,0.013-0.023,0.021L17.33,4.988c-0.027,0.033-0.029,0.082-0.004,0.117   l0.299,0.444l0.043,0.099c0.006,0.015,0.016,0.027,0.027,0.037c0.07,0.06,0.173,0.074,0.255,0.088c0.011,0,0.021,0.002,0.032,0.004   l-0.02,0.166c-0.004,0.027,0.004,0.055,0.023,0.076l0.089,0.104c0.005,0.012,0.009,0.024,0.015,0.035l-0.156,0.053   c-0.012,0.005-0.025,0.012-0.035,0.021c-0.004,0.004-0.018,0.018-0.021,0.022l-0.072,0.092c-0.021,0.001-0.043,0.011-0.061,0.026   l-0.06,0.056c-0.007,0.007-0.021,0.026-0.025,0.034c-0.003,0.004-0.01,0.021-0.012,0.025l-0.03,0.07l0.015-0.093   c0.001-0.005,0-0.034,0-0.039c-0.008-0.045-0.008-0.046-0.565-0.56L17.06,5.74c-0.001-0.006-0.007-0.033-0.008-0.039L17.04,5.67   c-0.002-0.006-0.011-0.029-0.015-0.035c-0.023-0.041-0.023-0.043-0.205-0.127l-0.022-0.057c-0.028-0.051-0.065-0.074-0.13-0.078   H16.53c-0.096,0.009-0.096,0.009-0.178,0.424c-0.001,0.007-0.002,0.023-0.002,0.03c0,0.016,0.003,0.03,0.009,0.043   c0.009,0.017,0.018,0.033,0.027,0.05H16.37c-0.016-0.005-0.03-0.005-0.038-0.005c-0.009,0-0.041,0.005-0.049,0.008   c-0.022,0.005-0.043,0.015-0.064,0.034c-0.008,0.004-0.016,0.007-0.025,0.01c-0.013,0.006-0.025,0.01-0.051,0.023   c-0.006,0.004-0.02,0.014-0.023,0.018l-0.01,0.007c-0.057,0-0.078,0.021-0.161,0.107c-0.015,0.024-0.025,0.071-0.019,0.099   l0.027,0.113c0.012,0.031,0.023,0.046,0.063,0.074c-0.006,0.006-0.01,0.014-0.012,0.018c-0.006,0.01-0.009,0.019-0.012,0.029   l-0.035,0.18c-0.003,0.036,0.01,0.072,0.035,0.1c0.021,0.022,0.072,0.055,0.138,0.043l0.266-0.055   c0.006-0.002,0.021-0.006,0.026-0.008l0.228-0.105c0.011-0.006,0.021-0.011,0.027-0.018c0.003,0.014,0.007,0.027,0.011,0.043   c0.002,0.004,0.004,0.006,0.006,0.01L16.662,6.67c-0.009,0.007-0.018,0.016-0.024,0.027c-0.004,0.005-0.015,0.023-0.018,0.029   l-0.05,0.131c-0.008,0.037,0,0.074,0.022,0.105c0.024,0.033,0.064,0.055,0.12,0.06h0.088c0.002,0,0.006-0.001,0.009-0.001   L16.771,7.14c-0.002,0.01-0.004,0.02-0.004,0.03c0,0.006,0.001,0.025,0.002,0.032c0.008,0.038,0.018,0.082,0.027,0.12   c0.006,0.015,0.04,0.059,0.051,0.069c0.018,0.021,0.043,0.031,0.07,0.032c0.061,0.002,0.111,0.003,0.16,0.003L17.27,7.59   l-0.014,0.078c-0.001,0.008,0.002,0.041,0.002,0.049l0.025,0.112c-0.091-0.017-0.102-0.019-0.467-0.066   c-0.004-0.001-0.008-0.001-0.01-0.001c-0.031-0.006-0.051-0.01-0.176-0.032c-0.014-0.003-0.027-0.003-0.04,0.001l-0.044,0.013   c-0.029,0.008-0.054,0.028-0.065,0.058c-0.006,0.012-0.013,0.025-0.021,0.041l-0.067,0.014c-0.024,0.004-0.045,0.019-0.06,0.038   C16.329,7.9,16.32,7.91,16.313,7.918c-0.02,0.021-0.028,0.053-0.024,0.08c0.02,0.126,0.044,0.294,0.062,0.424l-0.076,0.369   c0,0.008,0,0.025,0.001,0.032c0.002,0.013,0.003,0.024,0.006,0.056c0.003,0.023,0.015,0.047,0.033,0.063l0.059,0.055l0.094,0.256   c0.025,0.061,0.1,0.096,0.168,0.084l0.176-0.035l0.079,0.088l-0.602,0.518c-0.01,0.008-0.028,0.037-0.032,0.047   c-0.006,0.008-0.009,0.017-0.011,0.025l-0.097,0.414l-0.428,0.307l-0.197,0.08c-0.023,0.01-0.043,0.027-0.054,0.051   c-0.081,0.182-0.214,0.4-0.331,0.594c-0.05,0.084-0.098,0.164-0.148,0.253l-0.234,0.513c-0.006,0.014-0.01,0.029-0.008,0.045   c0.004,0.059,0.004,0.088,0.004,0.12c0,0.014,0.003,0.028,0.01,0.041c0.001,0.005,0.012,0.028,0.015,0.031l0.062,0.099l0.068,0.484   l-0.299,0.592c-0.02,0.037-0.013,0.084,0.018,0.114l0.125,0.126c-0.001,0.059-0.002,0.119-0.004,0.18   c-0.002,0.01-0.004,0.021-0.003,0.033l0.003,0.045c0,0.019,0.005,0.036,0.016,0.053l0.094,0.146l0.143,0.172l0.309,0.441   c0.008,0.011,0.018,0.02,0.027,0.026l0.187,0.144l0.145,0.182c0.004,0.003,0.014,0.015,0.018,0.018l0.052,0.042   c0.002,0.002,0.018,0.016,0.02,0.018l0.025,0.021c0.008,0.007,0.022,0.011,0.033,0.015l0.438,0.257l0.143,0.124   c0.015,0.012,0.032,0.02,0.051,0.022c0.005,0.001,0.027,0.003,0.033,0.003c0.07,0,0.143-0.03,0.199-0.057l0.326-0.055h0.506   c0.004,0,0.029-0.002,0.033-0.003l0.443-0.048c0.012,0.002,0.023,0.002,0.033,0l0.06-0.011c0.011-0.002,0.021-0.005,0.03-0.011   l0.186-0.104l0.197-0.003l0.129-0.029l0.105,0.296c0.016,0.042,0.059,0.072,0.102,0.065l0.348-0.027l0.14,0.194l0.022,0.057   l-0.27,0.57c-0.012,0.025-0.013,0.055-0.002,0.08l0.23,0.581l0.047,0.128l0.01,0.117c0,0.002,0.003,0.024,0.003,0.025   c0.001,0.015,0.013,0.041,0.02,0.053c0.005,0.016,0.011,0.031,0.016,0.046c0.007,0.017,0.013,0.032,0.017,0.054l0.016,0.074   l-0.054,0.182l-0.128,0.686l-0.207,0.186l-0.115,0.273l-0.061,0.024c-0.008,0.003-0.037,0.023-0.045,0.029   c-0.014,0.011-0.023,0.024-0.031,0.04c-0.053,0.131-0.102,0.246-0.15,0.363c-0.004,0.01-0.008,0.039-0.008,0.049   c-0.002,0.01,0,0.021,0.002,0.031l0.063,0.254c-0.109,0.405-0.25,0.865-0.361,1.177c-0.002,0.005-0.006,0.019-0.006,0.024   l-0.015,0.077l-0.087,0.231c-0.04,0.083-0.057,0.113-0.129,0.25l-0.098,0.094c-0.059,0.066-0.105,0.158-0.146,0.239l-0.034,0.065   c-0.014,0.024-0.016,0.054-0.006,0.081c0.01,0.026,0.03,0.048,0.058,0.058c0.061,0.023,0.109,0.023,0.153,0.023   c0.012,0,0.022-0.002,0.034-0.006c0.037-0.014,0.08-0.037,0.119-0.059l0.026-0.016c0.163-0.031,0.374-0.073,0.558-0.113l0.33-0.152   c0.006-0.002,0.019-0.008,0.023-0.011l0.521-0.362c0.004-0.002,0.007-0.006,0.01-0.009l0.015-0.009   c0.062-0.042,0.198-0.137,0.236-0.169l0.263-0.281l0.11-0.108l0.077-0.051h0.055c0.013,0,0.025-0.004,0.037-0.008   c0.055-0.023,0.1-0.065,0.136-0.102l0.312-0.317c0.007-0.007,0.014-0.015,0.018-0.024l0.186-0.352l0.032-0.049h0.02   c0.015,0,0.028-0.004,0.041-0.01c0.054-0.024,0.097-0.071,0.13-0.109l0.064-0.053c0.004-0.004,0.006-0.007,0.01-0.011   c0.139-0.097,0.297-0.217,0.395-0.292h0.02c0.018,0,0.035-0.004,0.052-0.014l0.001-0.001c-0.02,0.024-0.041,0.053-0.064,0.083   c-0.006,0.006-0.022,0.029-0.027,0.037l-0.136,0.233l-0.263,0.229c-0.02,0.022-0.02,0.022-0.344,0.497   c-0.025,0.043-0.027,0.091-0.029,0.15c-0.003,0.039,0.016,0.076,0.049,0.095l0.004,0.003c0.021,0.012,0.045,0.015,0.07,0.012   c0.006-0.002,0.021-0.006,0.027-0.009l0.205-0.09c0.022-0.011,0.121-0.099,0.348-0.349c0.016,0.012,0.032,0.02,0.045,0.024   s0.026,0.009,0.041,0.009h0.001c0.005,0,0.011,0,0.017-0.002c0.05-0.008,0.086-0.05,0.086-0.057   c0.042-0.047,0.08-0.096,0.116-0.146l0.04-0.055c0.015-0.02,0.051-0.07,0.021-0.129c-0.006-0.013-0.015-0.023-0.025-0.032   c0.066-0.077,0.141-0.163,0.219-0.257c-0.007,0.014-0.014,0.031-0.014,0.051c0,0.027,0.021,0.063,0.041,0.081   c0.004,0.003,0.016,0.014,0.02,0.017c0.025,0.02,0.061,0.025,0.092,0.014c0.032-0.012,0.032-0.012,0.174-0.181   c0.027-0.038,0.03-0.053,0.051-0.136c0.002-0.008,0.002-0.02,0.002-0.027c0-0.025-0.01-0.051-0.029-0.069   c-0.029-0.032-0.079-0.036-0.118-0.017c-0.013,0.008-0.02,0.012-0.042,0.039c0.021-0.033,0.043-0.066,0.064-0.099   c0.006-0.001,0.012-0.003,0.018-0.005c0.037-0.012,0.053-0.025,0.084-0.068l0.335-0.584c0.015-0.03,0.015-0.035,0.035-0.154   c0.007-0.037-0.011-0.075-0.041-0.098c-0.063-0.044-0.104-0.034-0.138-0.013c-0.016,0.01-0.022,0.015-0.113,0.124   c0.017-0.064-0.019-0.107-0.045-0.123c-0.008-0.004-0.016-0.008-0.025-0.011c-0.031-0.009-0.064-0.01-0.094-0.01h-0.029   c0,0-0.014,0-0.023,0c0.009-0.019,0.018-0.038,0.027-0.057c0.017-0.032,0.033-0.067,0.049-0.103l0.032-0.065   c0.006-0.013,0.01-0.027,0.011-0.042v-0.051l0.151-0.417l0.026-0.126l0.13-0.215l0.051-0.052c0.009-0.009,0.017-0.02,0.021-0.03   c0.043-0.102,0.067-0.174,0.083-0.227l0.126-0.202l0.077-0.109c0.017-0.008,0.034-0.021,0.044-0.036l0.363-0.552l0.09-0.041   c0.021-0.009,0.039-0.026,0.049-0.048l0.23-0.491c0.003-0.005,0.006-0.011,0.007-0.017c0.104-0.221,0.216-0.51,0.224-0.546   l0.047-0.208c0.052-0.229,0.11-0.49,0.141-0.684c0.008-0.018,0.01-0.037,0.006-0.055l-0.018-0.109   c-0.006-0.033-0.029-0.062-0.06-0.074c-0.031-0.014-0.067-0.01-0.095,0.01l-0.148,0.106c-0.051,0.036-0.102,0.073-0.152,0.108   c-0.004-0.01-0.01-0.02-0.018-0.027l-0.009-0.008l0.006-0.066c0-0.002-0.001-0.014-0.003-0.021c0.01-0.002,0.017-0.006,0.024-0.009   c0.006-0.003,0.017-0.01,0.022-0.014l0.308-0.245c0.01-0.009,0.021-0.025,0.028-0.037l0.21-0.375   c0.007-0.01,0.011-0.023,0.012-0.036c0.005-0.042,0.008-0.073,0.009-0.1c0.02-0.012,0.033-0.028,0.041-0.05l0.105-0.275   c0.002-0.003,0.005-0.021,0.006-0.025l0.012-0.129c0.025-0.244,0.053-0.521,0.06-0.756C24.774,11.991,24.773,11.982,24.771,11.975z    M23.678,13.135l-0.006,0.246c-0.011-0.021-0.029-0.037-0.051-0.045c-0.004-0.002-0.007-0.003-0.009-0.004l-0.047-0.386   l-0.004-0.026c-0.001-0.002-0.008-0.021-0.009-0.023l-0.027-0.116C23.58,12.904,23.633,13.026,23.678,13.135z M19.689,9.43   c0.012,0.035,0.029,0.074,0.048,0.112c0.01,0.021,0.021,0.042,0.033,0.072c0.035,0.062,0.089,0.073,0.104,0.076l0.021-0.097   l-0.02,0.097c0.012,0.003,0.023,0.003,0.034,0.001c0.062-0.009,0.071-0.024,0.173-0.18c0.006-0.01,0.012-0.021,0.014-0.031   c0.005-0.017,0.008-0.041,0.006-0.056c-0.004-0.024-0.01-0.044-0.021-0.06c0.045-0.018,0.075-0.061,0.078-0.117V9.079   c0.026-0.007,0.049-0.026,0.061-0.052l0.094-0.193c0.014-0.027,0.014-0.06,0-0.087l-0.024-0.05h0.015   c0.023,0,0.045-0.008,0.062-0.021l0.028,0.053c0.006,0.011,0.012,0.02,0.021,0.027s0.018,0.015,0.034,0.027   c0.016,0.012,0.033,0.02,0.053,0.022l0.121,0.164c0.014,0.02,0.035,0.033,0.059,0.038c0.012,0.003,0.023,0.005,0.035,0.007   c0.001,0.003,0.003,0.008,0.005,0.011c0.023,0.041,0.05,0.092,0.076,0.139l0.038,0.068c0.008,0.016,0.027,0.033,0.043,0.043   l0.023,0.014c0.017,0.012,0.035,0.018,0.056,0.018h0.091c-0.002,0.012-0.001,0.025,0,0.039c0.006,0.022,0.006,0.022,0.066,0.135   c0.036,0.057,0.036,0.057,0.445,0.139h0.004c0.004,0,0.007,0,0.01,0c0.117-0.012,0.113-0.099,0.102-0.269l0.034,0.032   c0.024,0.023,0.058,0.034,0.092,0.025L22,9.357c0.014-0.003,0.025-0.008,0.037-0.017l0.014,0.007   c-0.014,0.017-0.023,0.035-0.027,0.051c-0.008,0.047,0.011,0.1,0.051,0.137c0.01,0.009,0.01,0.009,0.16,0.096   c0.007,0.004,0.016,0.008,0.023,0.01l0.011,0.003c0.021,0.005,0.057-0.001,0.077-0.009c0.016-0.007,0.029-0.018,0.039-0.029   l0.051-0.064c0.012,0.041,0.022,0.082,0.033,0.123l-0.018,0.398l-0.259-0.08c-0.042-0.012-0.087,0.004-0.11,0.039l-0.07,0.105   l-0.375-0.145c-0.012-0.004-0.025-0.009-0.037-0.006c-0.06,0.002-0.111,0.002-0.158,0.002l-0.03-0.048   c-0.016-0.024-0.04-0.041-0.068-0.046c-0.128-0.02-0.22-0.02-0.317-0.02c-0.012,0-0.024,0.002-0.035,0.006   c-0.006,0.002-0.025,0.011-0.03,0.014l-0.097,0.06c-0.025,0.015-0.041,0.038-0.046,0.066l-0.032,0.177l-0.431-0.248   c-0.005-0.002-0.032-0.012-0.036-0.014l-0.465-0.111l-0.148-0.054c0.011-0.018,0.017-0.038,0.016-0.06   C19.715,9.602,19.702,9.512,19.689,9.43z M18.828,6.018l0.039-0.012c0.043-0.014,0.072-0.055,0.07-0.1l-0.012-0.22l0.037-0.085   l0.052-0.232c0.002-0.01,0.002-0.018,0.002-0.027l0.176,0.076c0.021,0.008,0.042,0.01,0.063,0.004   c0.019,0.064,0.043,0.104,0.069,0.146c0.005,0.012,0.014,0.02,0.022,0.027c0.01,0.008,0.021,0.016,0.033,0.022   c-0.007,0.021-0.008,0.043,0,0.063l0.073,0.205c-0.075-0.021-0.177,0-0.257,0.02c-0.021,0.007-0.045,0.013-0.064,0.017   c-0.006,0.001-0.018,0.004-0.023,0.007l-0.246,0.095c-0.01,0.004-0.018,0.009-0.025,0.015l-0.05-0.008   C18.802,6.026,18.815,6.021,18.828,6.018z M21.324,7.912c0.014-0.016,0.023-0.034,0.028-0.055l0,0   c0.006-0.018,0.007-0.042,0.007-0.063l0.01-0.134c0.006,0.01,0.016,0.019,0.026,0.029c0.206,0.187,0.206,0.187,0.257,0.187   c0.02,0,0.033-0.002,0.049-0.012c0.018-0.008,0.031-0.019,0.043-0.033c0.021-0.029,0.039-0.055,0.055-0.078   c0.008,0.008,0.017,0.016,0.027,0.023l0.324,0.225l0.137,0.105l-0.146,0.021c-0.139-0.096-0.146-0.101-0.186-0.101   c-0.012,0-0.031,0.005-0.041,0.009c-0.066,0.023-0.143,0.052-0.219,0.081c-0.064,0.024-0.129,0.048-0.187,0.069l-0.063-0.004   l-0.12-0.133c-0.003-0.005-0.005-0.01-0.007-0.016c0.008-0.016,0.013-0.037,0.014-0.063L21.324,7.912z M21.295,8.967   c-0.002-0.014-0.008-0.027-0.017-0.039L21.258,8.9c0.012,0.014,0.025,0.027,0.037,0.041c0.023,0.025,0.047,0.051,0.055,0.056   l0.104,0.214c-0.055-0.004-0.113-0.008-0.168-0.01l-0.051-0.004l0.044-0.041c0.021-0.019,0.03-0.045,0.03-0.072   C21.309,9.031,21.303,9.002,21.295,8.967z M17.357,9.326l0.219-0.033c0.01-0.001,0.018-0.004,0.027-0.008l0.021-0.01   c0.01-0.004,0.018-0.01,0.024-0.016l0.188-0.164l0.043-0.048c0.027-0.032,0.055-0.063,0.086-0.091   c0.027-0.027,0.037-0.066,0.025-0.104l-0.079-0.24l0.018-0.052l0.089-0.038h0.031c0.012,0,0.024-0.002,0.035-0.006   c0.002,0,0.025-0.01,0.027-0.011l0.111-0.055c0.03-0.015,0.051-0.044,0.055-0.076l0.021-0.181l0.014-0.024l0.281,0.04   c0.02,0,0.041-0.005,0.057-0.016l0.14-0.092h0.028c-0.008,0.01-0.016,0.02-0.025,0.03c-0.012,0.015-0.015,0.014-0.018,0.032   c-0.003,0.009-0.012,0.034-0.002,0.096c0.01,0.035,0.018,0.072,0.025,0.106c0.002,0.009,0.005,0.017,0.009,0.024   c0.009,0.018,0.019,0.031,0.029,0.042c-0.005,0.019-0.007,0.041-0.003,0.072l0.014,0.058c0.014,0.063,0.029,0.127,0.044,0.194   c0.02,0.083,0.087,0.1,0.115,0.106c0.017,0.004,0.033,0.004,0.05,0c0.004-0.001,0.021-0.005,0.024-0.007l0.142-0.056   c0.052-0.017,0.086-0.063,0.086-0.117c0-0.021,0-0.021-0.07-0.238c-0.014-0.041-0.043-0.07-0.086-0.086   c0.008-0.025,0.017-0.055,0.026-0.09c0.001-0.004,0.001-0.008,0.003-0.012l0.178,0.176c0.006,0.007,0.025,0.02,0.033,0.024   l0.37,0.205l0.036,0.026l0.034,0.082l-0.241-0.04c-0.021-0.003-0.071,0.016-0.09,0.024c-0.04,0.018-0.063,0.059-0.059,0.103   c0.005,0.032,0.01,0.056,0.019,0.1c0.003,0.017,0.011,0.032,0.021,0.044c0.07,0.088,0.183,0.158,0.281,0.221   c0.011,0.006,0.02,0.012,0.029,0.018c-0.002,0-0.004,0-0.006,0c-0.064,0.01-0.108,0.061-0.109,0.131   c-0.01-0.045-0.018-0.087-0.025-0.128c-0.004-0.022-0.018-0.043-0.035-0.058l-0.082-0.064l-0.165-0.094   c-0.022-0.013-0.046-0.019-0.071-0.019c-0.012,0-0.039,0.005-0.049,0.009l-0.15,0.051l-0.913,0.055   c-0.007,0.001-0.026,0.005-0.033,0.008L17.561,9.35h-0.219C17.348,9.342,17.352,9.334,17.357,9.326z M22.294,19.107l-0.205,0.125   c-0.002,0.001-0.003,0.002-0.005,0.004l0.217-0.344c0.023,0.014,0.051,0.018,0.073,0.022c0.008,0.003,0.017,0.003,0.026,0.003   h0.002c0.005,0,0.01,0,0.015,0c0.017-0.003,0.027-0.004,0.04-0.014C22.411,18.963,22.357,19.029,22.294,19.107z"/>
	<path fill="#18986b" d="M19.063,16.447c0.022-0.076,0.009-0.16-0.037-0.222c-0.048-0.065-0.128-0.102-0.224-0.102   c-0.004,0-0.022,0-0.027,0.001c-0.143,0.02-0.256,0.113-0.285,0.24c-0.023,0.104,0.015,0.205,0.101,0.263   c0.046,0.032,0.101,0.048,0.159,0.048C18.895,16.676,19.027,16.579,19.063,16.447z"/>
	<path fill="#18986b" d="M14.668,4.055c0.039,0,0.072-0.022,0.089-0.057l0.037-0.076c0.022-0.045,0.045-0.093,0.063-0.133   c0.006-0.016,0.01-0.034,0.007-0.053c-0.003-0.027-0.005-0.045-0.023-0.063c0.022-0.015,0.039-0.039,0.044-0.067l0.051-0.327   c0.002-0.017,0-0.036-0.008-0.054c0.012-0.025,0.012-0.055-0.001-0.082c-0.032-0.067-0.063-0.131-0.095-0.191   c0.018-0.006,0.035-0.021,0.047-0.039l0.043,0.013c0.033,0.013,0.069,0.007,0.098-0.017l0.085-0.071   c0.021-0.018,0.033-0.044,0.034-0.071c0-0.004,0-0.006,0-0.01c0-0.021-0.006-0.047-0.018-0.063   c-0.057-0.081-0.164-0.104-0.249-0.123c-0.026-0.007-0.052-0.012-0.092-0.022c-0.004,0-0.022-0.002-0.027-0.002   c-0.036,0-0.071,0.008-0.105,0.02c-0.005-0.019-0.017-0.037-0.032-0.051c-0.021-0.018-0.035-0.041-0.053-0.07   c-0.021-0.039-0.051-0.086-0.1-0.125c-0.084-0.069-0.194-0.087-0.29-0.102c-0.169-0.021-0.345-0.005-0.511,0.011   c-0.063,0.005-0.125,0.003-0.184,0.001c-0.067-0.004-0.137-0.006-0.193,0c-0.037,0.003-0.066,0.021-0.092,0.031   c-0.025-0.01-0.079-0.025-0.119-0.016c-0.115,0.029-0.227,0.117-0.334,0.2c-0.023,0.019-0.048,0.036-0.07,0.054   c-0.002-0.004-0.004-0.006-0.008-0.01c-0.017-0.031-0.049-0.05-0.084-0.051c-0.092-0.002-0.112-0.008-0.139-0.041   c-0.006-0.01-0.012-0.024-0.017-0.041c-0.016-0.049-0.046-0.139-0.169-0.162c-0.004,0-0.029-0.002-0.035-0.002   c-0.033,0-0.063,0.007-0.088,0.014c0,0-0.002,0-0.004,0c0.002-0.001,0.002-0.002,0.003-0.005c0.001-0.046,0.001-0.154-0.157-0.196   c-0.02-0.005-0.041-0.008-0.066-0.008S11.789,2,11.73,2.039c-0.054,0.035-0.07,0.078-0.07,0.095   c-0.014,0.012-0.025,0.018-0.049,0.027c-0.021,0.009-0.047,0.02-0.068,0.036c-0.037,0.023-0.064,0.053-0.092,0.082   c-0.029,0.031-0.061,0.065-0.104,0.058c-0.026-0.012-0.055-0.011-0.08,0.001c-0.08,0.035-0.111,0.083-0.12,0.128   c-0.036,0.034-0.085,0.091-0.097,0.147c-0.017,0.01-0.039,0.023-0.07,0.043L10.972,2.53c-0.011-0.05-0.075-0.091-0.117-0.086   c-0.042,0.004-0.079,0.024-0.114,0.072l-0.164,0.106c-0.008,0.005-0.027,0.021-0.034,0.027l-0.165,0.184   c-0.025,0.029-0.035,0.086-0.02,0.12c0.001,0.003,0.002,0.005,0.003,0.007c-0.001,0.002-0.003,0.004-0.005,0.004   c-0.019-0.027-0.05-0.037-0.148-0.059c0,0,0.002,0,0.003-0.002c0.001,0,0.021-0.027,0.021-0.028l0.071-0.129   c0.017-0.027,0.021-0.071,0.007-0.101c-0.016-0.036-0.064-0.059-0.104-0.063C10.162,2.585,10.16,2.587,10,2.701   C9.994,2.705,9.978,2.725,9.973,2.73l-0.08,0.137c-0.01-0.006-0.021-0.01-0.033-0.012c0.012-0.02,0.021-0.045,0.02-0.064   C9.876,2.74,9.846,2.715,9.781,2.666c-0.02-0.012-0.045-0.018-0.07-0.012C9.692,2.656,9.682,2.66,9.603,2.697L9.587,2.69   c-0.058-0.028-0.13,0.013-0.153,0.032c-0.02,0.019-0.039,0.038-0.056,0.056C9.377,2.775,9.376,2.772,9.375,2.77   C9.356,2.73,9.311,2.705,9.269,2.709L8.943,2.743C8.938,2.744,8.919,2.75,8.915,2.752L8.686,2.844   C8.632,2.867,8.62,2.887,8.563,2.978C8.563,2.979,8.562,2.981,8.562,2.981C8.551,2.98,8.542,2.979,8.532,2.979H8.347   c-0.009,0-0.018,0.002-0.026,0.004C8.316,2.984,8.293,2.99,8.289,2.991L7.906,3.15C7.9,3.153,7.879,3.166,7.873,3.17L7.648,3.313   C7.613,3.338,7.596,3.361,7.586,3.393C7.576,3.431,7.593,3.475,7.623,3.5c-0.011,0.01-0.02,0.021-0.028,0.035L7.57,3.469   C7.561,3.44,7.538,3.42,7.512,3.41c-0.004-0.013-0.01-0.023-0.019-0.034c-0.024-0.03-0.067-0.046-0.106-0.03l-0.04,0.012   L7.322,3.346c-0.014-0.008-0.053-0.01-0.068-0.01l-0.238,0.04C7.018,3.367,7.02,3.357,7.021,3.348   c0.012-0.046,0.023-0.096,0.039-0.133c0.018-0.045-0.002-0.1-0.043-0.125c-0.019-0.012-0.04-0.017-0.063-0.015   c-0.08,0.009-0.188,0.021-0.268,0.03C6.685,3.106,6.66,3.113,6.658,3.113L6.332,3.244C5.797,3.613,5.289,4.025,4.823,4.47   C4.816,4.477,4.807,4.494,4.799,4.508L4.578,4.785c-0.02,0.023-0.025,0.053-0.02,0.082L4.483,4.939H4.448   C4.397,4.941,4.397,4.941,4.162,5.181C4.15,5.192,4.131,5.211,4.119,5.239c-0.018,0.01-0.041,0.03-0.094,0.075L3.979,5.369   C3.953,5.399,3.928,5.431,3.9,5.462C3.896,5.468,3.893,5.477,3.89,5.486C3.879,5.492,3.869,5.5,3.861,5.51   C3.819,5.56,3.777,5.612,3.738,5.664C3.715,5.695,3.712,5.737,3.73,5.771L3.697,5.811c-0.006,0-0.034,0.005-0.049,0.014   C3.619,5.839,3.619,5.839,3.436,6.061C3.434,6.063,3.417,6.086,3.415,6.09L3.395,6.119c-0.01,0.017-0.027,0.055-0.067,0.144   L3.289,6.347C3.264,6.35,3.239,6.363,3.223,6.385L3.147,6.479c-0.854,1.285-1.439,2.703-1.739,4.225l-0.033,0.395l0.019,0.513   l-0.07,0.542c-0.001,0.014-0.001,0.027,0.003,0.041l0.057,0.196c0.056,0.196,0.119,0.418,0.182,0.593   c0.006,0.012,0.021,0.034,0.03,0.045l0.244,0.252c0.03,0.031,0.079,0.038,0.117,0.018l0.13-0.067l0.099,0.245   c0,0.002,0.011,0.023,0.011,0.025c0.005,0.01,0.012,0.018,0.02,0.025l0.062,0.098c0.004,0.008,0.01,0.016,0.017,0.021l0.113,0.12   c0.006,0.004,0.043,0.032,0.049,0.036l0.166,0.098c0,0.004,0.002,0.01,0.004,0.015l0.242,0.727c0.002,0.005,0.016,0.026,0.02,0.03   l0.057,0.068c0.027,0.033,0.076,0.045,0.115,0.027l0.027-0.012l0.096,0.111l0.001,0.004c0.007,0.024,0.022,0.045,0.044,0.058   c0.021,0.013,0.035,0.021,0.049,0.027c0.012,0.005,0.021,0.009,0.03,0.011l0.128,0.182c0.025,0.037,0.076,0.052,0.12,0.034   l0.137-0.06c0.021-0.008,0.038-0.025,0.048-0.045l0.051,0.08c0.039,0.272,0.089,0.547,0.145,0.82l-0.035,0.182l-0.055,0.184   l-0.08,0.398c-0.002,0.012-0.002,0.025,0,0.037c0,0.002,0.006,0.025,0.006,0.029c0.025,0.092,0.053,0.186,0.08,0.275l0.009,0.028   c0.005,0.015,0.013,0.029,0.024,0.041c0.008,0.007,0.018,0.016,0.041,0.036c0.002,0.002,0.004,0.004,0.007,0.007L3.92,17.215   c-0.011,0.02-0.015,0.043-0.01,0.065c0.001,0.008,0.008,0.039,0.012,0.046l0.199,0.438c0.004,0.008,0.01,0.017,0.016,0.023   l0.393,0.336l0.194,0.291c0.003,0.006,0.02,0.025,0.023,0.029c0.009,0.01,0.017,0.02,0.017,0.02l0,0   c0.298,0.389,0.727,0.906,0.805,0.962l0.543,0.29c0.007,0.002,0.013,0.005,0.018,0.006c0.051,0.033,0.105,0.064,0.281,0.166   l0.055,0.055c0.215,0.327,0.527,0.801,0.783,1.156c0.57,0.721,0.724,0.914,1.451,1.64c0.004,0.005,0.016,0.015,0.021,0.019   l0.196,0.139C8.944,22.924,8.973,22.951,9,22.978l0.042,0.042c0.007,0.007,0.014,0.012,0.021,0.016   c0.038,0.022,0.085,0.035,0.127,0.045c0.006,0.037,0.021,0.049,0.182,0.161c0.028,0.021,0.059,0.032,0.089,0.032   c0.001,0.002,0.002,0.003,0.004,0.004l0.057,0.086c0.012,0.016,0.025,0.027,0.043,0.035l0.134,0.058l0.024,0.039   c0.008,0.011,0.017,0.02,0.027,0.028c0.055,0.037,0.125,0.062,0.188,0.083l0.04,0.015l0.002,0.001   c0.008,0.03,0.029,0.063,0.051,0.08c0.013,0.011,0.027,0.021,0.035,0.026c0.018,0.012,0.034,0.021,0.062,0.027l0.102,0.053   c0.014,0.009,0.051,0.02,0.066,0.02H10.3c0.005,0,0.011-0.002,0.017-0.002l0.039,0.023c0.004,0.003,0.021,0.012,0.025,0.014   l0.052,0.021c0.01,0.022,0.027,0.043,0.052,0.054l0.213,0.096c0.025,0.012,0.055,0.012,0.08,0c0.004-0.002,0.008-0.004,0.011-0.006   c0.005,0.004,0.011,0.006,0.017,0.01c0.01,0.019,0.026,0.034,0.047,0.043l0.192,0.084c0.009,0.004,0.019,0.006,0.029,0.007   c0.017,0.001,0.031,0.003,0.042,0.003c0.006,0.003,0.013,0.006,0.02,0.006c0.064,0.014,0.096,0.014,0.127,0.014   c0.037,0,0.07-0.021,0.087-0.053l0.018-0.003c0.034-0.005,0.063-0.026,0.077-0.058c0.014-0.032,0.01-0.068-0.01-0.098   c0,0-0.001-0.001-0.002-0.002c0.002,0.001,0.005,0.002,0.008,0.004c0.014,0.004,0.049,0.004,0.063,0.002   c0.014-0.003,0.027-0.009,0.039-0.017c0.021-0.016,0.038-0.042,0.043-0.069c0.004-0.029-0.008-0.066-0.027-0.088l-0.086-0.1   c-0.02-0.021-0.022-0.023-0.131-0.074c-0.01-0.003-0.033-0.007-0.044-0.007c-0.015-0.003-0.03,0.005-0.044,0.011   c-0.02,0.006-0.037,0.005-0.053,0.014c-0.041,0.023-0.063,0.083-0.047,0.127c0.005,0.018,0.016,0.038,0.032,0.069l-0.15-0.05   c-0.007-0.004-0.022-0.009-0.034-0.012c-0.009-0.002-0.018-0.003-0.025-0.004l-0.045-0.039c-0.006-0.006-0.021-0.016-0.027-0.02   l-0.121-0.069l-0.126-0.186c-0.002-0.004-0.017-0.021-0.019-0.022c-0.025-0.023-0.049-0.049-0.073-0.076   c-0.011-0.013-0.025-0.021-0.042-0.027l-0.127-0.043c0-0.022-0.009-0.045-0.024-0.063c-0.097-0.114-0.185-0.22-0.273-0.331   c-0.009-0.011-0.018-0.02-0.029-0.025l-0.027-0.016c0.024-0.03,0.028-0.073,0.009-0.107c-0.006-0.014-0.013-0.025-0.02-0.034   l0.127-0.091c0.021-0.015,0.039-0.053,0.042-0.078c0.003-0.011,0.003-0.021,0.001-0.032l-0.033-0.209   c-0.002-0.021-0.012-0.04-0.026-0.055c-0.021-0.02-0.042-0.036-0.067-0.05l0.021-0.008c0.02-0.006,0.048-0.031,0.06-0.049   c0.008-0.009,0.014-0.02,0.016-0.031l0.047-0.158l0.022-0.027c0.011-0.012,0.017-0.026,0.021-0.041l0.043-0.199l0.017-0.018   c0.009-0.01,0.021-0.035,0.024-0.048c0.004-0.011,0.006-0.024,0.005-0.036l-0.005-0.105l0.005-0.006   c0.026-0.027,0.035-0.068,0.021-0.104l-0.194-0.502c0.225-0.124,0.501-0.273,0.714-0.385c0.027-0.016,0.047-0.042,0.051-0.073   l0.023-0.154c0.035-0.229,0.074-0.493,0.109-0.702c0.002-0.013,0-0.034-0.002-0.047l-0.133-0.577l0.056-0.071l0.096-0.036   c0.013-0.005,0.024-0.013,0.034-0.021l0.02-0.021c0.008-0.007,0.015-0.016,0.02-0.023l0.17-0.32   c0.002-0.002,0.003-0.005,0.004-0.008l0.192-0.344c0.007-0.012,0.013-0.047,0.015-0.06c0.001-0.01,0-0.021-0.002-0.03l-0.106-0.541   c-0.006-0.029-0.024-0.055-0.052-0.068c-0.282-0.143-0.658-0.33-0.962-0.477c-0.003-0.002-0.025-0.006-0.029-0.008l-0.768-0.104   l-0.265-0.102L9.059,16.49c-0.004-0.002-0.023-0.013-0.029-0.015l-0.066-0.026l0.009-0.018c0.014-0.027,0.007-0.074-0.007-0.102   c-0.007-0.016-0.016-0.033-0.024-0.045c-0.019-0.025-0.056-0.05-0.082-0.041l-0.011,0.002L8.625,16.06l-0.279-0.397   c-0.004-0.016-0.012-0.029-0.023-0.041l-0.029-0.034c-0.011-0.012-0.024-0.021-0.039-0.026l-0.48-0.219l-0.149-0.118   c-0.021-0.017-0.048-0.024-0.075-0.021l-0.293,0.039l-0.359-0.338c0.021,0.002,0.027-0.001,0.041-0.006l0.025-0.01   c0.034-0.014,0.059-0.045,0.063-0.082c0.008-0.074,0.008-0.129,0.005-0.177l0.102-0.097c0.02-0.02,0.03-0.045,0.03-0.072V14.41   c0-0.053-0.04-0.096-0.092-0.099c-0.127-0.009-0.236-0.013-0.34-0.014c0-0.006,0.001-0.012,0.001-0.017c0-0.021,0-0.023-0.041-0.14   c0.038-0.024,0.062-0.065,0.062-0.113c0-0.021,0-0.022-0.059-0.185c-0.002-0.027-0.014-0.066-0.038-0.141   c0.014-0.009,0.026-0.021,0.037-0.039c0.03-0.054,0.017-0.096-0.037-0.26c-0.002-0.006-0.005-0.01-0.007-0.016   c0.007-0.023,0.008-0.05,0-0.074c0.049-0.021,0.082-0.066,0.086-0.125c0-0.021,0-0.021-0.053-0.193   C6.66,12.951,6.628,12.93,6.596,12.92c0-0.003,0-0.006,0.001-0.01c0.004-0.038-0.008-0.078-0.033-0.107   c-0.024-0.028-0.06-0.045-0.104-0.047H6.426c-0.01-0.046-0.043-0.092-0.104-0.109c-0.084-0.022-0.19-0.041-0.291-0.059   c-0.05-0.009-0.097-0.018-0.126-0.022c-0.017-0.005-0.048-0.007-0.065-0.005c-0.034,0.008-0.062,0.025-0.082,0.051   c-0.038-0.029-0.077-0.059-0.114-0.086L5.56,12.463c-0.021-0.02-0.071-0.041-0.099-0.033c-0.043,0.004-0.078,0.025-0.103,0.066   l-0.003-0.003l-0.29-0.163l-0.134-0.049c-0.017-0.01-0.032-0.014-0.068-0.023c-0.014-0.004-0.037-0.004-0.053-0.001   c0,0-0.002,0.001-0.004,0.001H4.73c-0.011,0-0.021,0.002-0.033,0.006c-0.005,0.002-0.027,0.011-0.032,0.014l-0.011,0.006   c0-0.002,0.002-0.003,0.002-0.003c0.002-0.006,0.004-0.011,0.006-0.017c0-0.002,0.002-0.006,0.002-0.008h0.102   c0.002,0,0.005,0,0.008,0c0.074-0.006,0.12-0.065,0.125-0.111c0.008-0.043,0.008-0.043-0.078-0.256   c-0.025-0.057-0.092-0.09-0.147-0.074c-0.024,0.006-0.058,0.019-0.089,0.065c-0.021,0.037-0.045,0.085-0.066,0.128l-0.011,0.023   c-0.104-0.073-0.22-0.15-0.335-0.229c-0.161-0.109-0.324-0.219-0.459-0.318c-0.014-0.01-0.055-0.02-0.072-0.021   c-0.012-0.001-0.02-0.001-0.029,0.002l-0.282,0.06c-0.007,0.002-0.021,0.004-0.027,0.008c-0.052,0.019-0.054,0.02-0.191,0.327   c-0.015-0.014-0.032-0.024-0.049-0.03c-0.015-0.004-0.029-0.006-0.044-0.004L2.57,11.892c-0.039,0.005-0.07,0.033-0.082,0.071   l-0.102,0.376l-0.149,0.027l-0.123-0.345l0.126-0.663l0.111-0.337l0.101-0.158c0.112-0.175,0.235-0.367,0.343-0.525h0.154   l0.219,0.209c0.031,0.031,0.079,0.037,0.117,0.015c0.09-0.051,0.125-0.153,0.15-0.243l0.279,0.095l-0.033,0.794   c-0.002,0.039,0.02,0.076,0.053,0.093c0.084,0.044,0.144,0.044,0.187,0.044c0.024,0,0.05-0.01,0.067-0.027l0.039-0.035   c0.001,0.01,0.004,0.023,0.004,0.027l0.043,0.123c0.01,0.035,0.035,0.079,0.121,0.094h0.13c0.005,0,0.009,0,0.011-0.001   c0.059-0.007,0.104-0.048,0.116-0.098c0.013-0.034,0.013-0.034-0.034-0.285c-0.016-0.062-0.063-0.1-0.125-0.1h-0.1l0.075-0.253   c0.024-0.168,0.051-0.334,0.081-0.498l0.242-0.417h0.021c0.015,0,0.027-0.003,0.041-0.009l0.294-0.194   c0.169-0.116,0.349-0.239,0.497-0.339c0.012-0.007,0.021-0.017,0.028-0.027C5.498,9.267,5.508,9.252,5.512,9.23   c0.025-0.112,0.051-0.225,0.08-0.334C5.598,8.9,5.604,8.905,5.613,8.913c0.041,0.032,0.098,0.029,0.134-0.007L6.17,8.482   c0.006-0.006,0.019-0.02,0.022-0.026L6.25,8.363l0.453-0.047C6.728,8.313,6.75,8.303,6.767,8.285l0.128-0.141   c0.025-0.027,0.032-0.066,0.02-0.102l-0.01-0.026l0.088-0.123h0.092c0.01,0,0.019-0.001,0.027-0.004   C7.117,7.889,7.146,7.879,7.15,7.877L7.477,7.72l-0.02,0.079c-0.008,0.029,0,0.062,0.02,0.086l0.026,0.033   C7.53,7.95,7.576,7.962,7.613,7.947c0.162-0.061,0.36-0.137,0.543-0.206l0.198-0.076C8.368,7.66,8.381,7.65,8.393,7.64l0.03-0.034   C8.429,7.598,8.434,7.589,8.438,7.58h0.113c0.002,0,0.004,0,0.004,0c0.047-0.002,0.057-0.008,0.189-0.104   c0.01-0.01,0.028-0.036,0.033-0.049C8.803,7.369,8.784,7.33,8.744,7.287L8.775,7.15c0.004-0.027-0.01-0.078-0.028-0.101   C8.723,7.022,8.689,7.011,8.636,7.007C8.579,7.011,8.576,7.011,8.282,7.32L8.209,7.238c0.01-0.039,0.021-0.078,0.029-0.116H8.24   c0.025,0,0.051-0.01,0.068-0.027L8.45,6.959c0.022-0.021,0.031-0.07,0.028-0.102L8.476,6.833c-0.003-0.022-0.013-0.044-0.028-0.06   h0.451L8.895,6.775C8.877,6.787,8.837,6.814,8.832,6.869C8.828,6.9,8.837,6.927,8.854,6.951L8.802,7.035   c-0.015,0.028-0.019,0.082-0.005,0.11C8.826,7.203,8.846,7.21,9.137,7.26L9.16,7.318c0.012,0.014,0.039,0.055,0.113,0.059   l0.1-0.002C9.4,7.371,9.416,7.367,9.442,7.346c0.021,0.016,0.047,0.025,0.081,0.031h0.088c0.006,0,0.013,0,0.018-0.002   c0.044-0.008,0.044-0.008,0.24-0.145c0.01-0.01,0.037-0.035,0.045-0.075c0.004-0.022,0.008-0.046,0.013-0.081   c0-0.055-0.019-0.084-0.062-0.109L9.89,6.924C9.9,6.898,9.904,6.854,9.895,6.83C9.879,6.793,9.863,6.777,9.785,6.74l0.161-0.131   c0.041-0.037,0.056-0.092,0.036-0.141C9.971,6.439,9.949,6.416,9.918,6.403l0.101-0.146c0.002-0.003,0.004-0.006,0.006-0.01   c0.015-0.023,0.02-0.053,0.013-0.08C10.027,6.134,10,6.107,9.965,6.1L9.756,6.048c0.006-0.009,0.01-0.017,0.014-0.026   c0.027-0.077,0.043-0.138,0.059-0.194l0.008-0.026C9.846,5.76,9.83,5.716,9.793,5.692L9.757,5.668   C9.76,5.661,9.761,5.654,9.762,5.647l0.023-0.078c0.046-0.295,0.078-0.444,0.08-0.455C9.874,5.072,9.857,5.031,9.82,5.009   L9.799,4.994C9.84,4.98,9.852,4.967,9.937,4.816c0.009,0.004,0.017,0.007,0.024,0.01c0.008,0.001,0.035,0.007,0.043,0.007h0.063   c0.06-0.002,0.063-0.003,0.31-0.26c0.019,0.011,0.042,0.019,0.059,0.019c0.05,0,0.065-0.01,0.468-0.225   c0.007-0.002,0.017-0.01,0.021-0.014c0.02-0.017,0.043-0.052,0.046-0.076c0.008-0.049,0.009-0.053-0.212-0.323l0.106-0.124   c0.037-0.067,0.037-0.067-0.177-0.377c-0.006-0.01-0.022-0.023-0.031-0.029c-0.008-0.006-0.016-0.011-0.023-0.014l-0.014-0.005   c0.027-0.019,0.061-0.056,0.132-0.133c0.003-0.003,0.007-0.007,0.009-0.011c0.016,0.006,0.031,0.006,0.047,0.002   c0.099-0.021,0.195-0.086,0.281-0.143c0.023-0.016,0.047-0.031,0.068-0.044h0.037c0.008,0,0.025-0.003,0.031-0.005l0.16-0.037   c0.023-0.012,0.045-0.029,0.066-0.061l0.002,0.022c0.001,0.017,0.006,0.032,0.014,0.046c0,0,0,0.002,0.002,0.003   c-0.008,0.022-0.014,0.043-0.02,0.065c-0.004,0.01-0.004,0.031-0.004,0.041s0.003,0.021,0.005,0.029l0.024,0.067   c0.008,0.022,0.039,0.052,0.059,0.063c0.014,0.008,0.029,0.013,0.047,0.013c0.094,0.002,0.182,0.003,0.251,0l0.092,0.018   L11.945,3.4l-0.078,0.209c-0.006,0.016-0.004,0.049-0.002,0.064c0.003,0.021,0.013,0.042,0.027,0.058   c-0.01,0.025-0.009,0.055,0.003,0.081c0.009,0.02,0.022,0.043,0.034,0.064l0.018,0.033c0.006,0.011,0.013,0.021,0.021,0.028   l-0.143,0.001c-0.051,0.006-0.051,0.006-0.268,0.188c-0.012,0.011-0.028,0.039-0.035,0.054c-0.003,0.006-0.006,0.015-0.007,0.023   L11.48,4.403c-0.003,0.017-0.001,0.033,0.004,0.05c0.008,0.021,0.02,0.039,0.033,0.055c0,0.004-0.001,0.008-0.002,0.013   l-0.044,0.015c-0.009,0.004-0.019,0.009-0.026,0.014c-0.013,0.01-0.044,0.03-0.057,0.071c-0.005,0.018-0.006,0.036-0.002,0.054   L11.5,5.117c0.005,0.021,0.018,0.039,0.033,0.053c0.02,0.016,0.035,0.025,0.05,0.032c0.013,0.005,0.026,0.009,0.039,0.009h0.105   l0.064,0.111c0.007,0.012,0.016,0.021,0.027,0.03c0.032,0.024,0.077,0.04,0.124,0.029l0.205-0.047   c0.013-0.003,0.023-0.009,0.033-0.015l0.149-0.145c0.14-0.146,0.298-0.312,0.425-0.447l0.309-0.109   c0.006-0.001,0.03-0.016,0.035-0.019l0.044-0.031l0.051,0.016c0.008,0.002,0.026,0.005,0.034,0.005   c0.052,0,0.066-0.011,0.234-0.137l0.305-0.17l0.164,0.031c0.009,0.002,0.018,0.002,0.027,0l0.049-0.008   c0.191-0.07,0.447-0.165,0.639-0.24C14.653,4.064,14.661,4.06,14.668,4.055z M9.013,4.572c0.008,0.012,0.021,0.024,0.036,0.033   L8.911,4.533C8.904,4.529,8.896,4.526,8.888,4.524l0.031-0.186c0.002-0.012,0.002-0.022,0-0.034l0.319-0.063   c-0.016,0.01-0.037,0.023-0.064,0.04c-0.002,0.002-0.018,0.017-0.02,0.019L9.023,4.449C9.013,4.467,8.982,4.517,9.013,4.572z    M7.979,4.648c0.013-0.005,0.025-0.012,0.035-0.021C8.02,4.619,8.029,4.611,8.036,4.605c0.019-0.014,0.03-0.033,0.035-0.056h0.165   L8.232,4.58C8.225,4.629,8.254,4.677,8.301,4.69c0.064,0.02,0.11,0.02,0.146,0.02c0.012,0,0.039-0.007,0.049-0.011l0.069-0.024   L8.581,4.68c-0.069,0.068-0.13,0.149-0.188,0.226C8.354,4.957,8.316,5.007,8.279,5.048L8.074,5.123   C8.053,5.131,8.035,5.146,8.023,5.164L7.792,5.536l-0.47,0.163c-0.025,0.006-0.047,0.021-0.06,0.043   c-0.009,0.016-0.019,0.03-0.027,0.045C7.234,5.785,7.233,5.783,7.232,5.781L7.1,5.574L7.025,5.32   C7.018,5.291,6.996,5.268,6.967,5.257l0.01-0.008C6.998,5.232,7.011,5.207,7.013,5.18l0.003-0.047l0.321-0.233   c0.108-0.042,0.235-0.092,0.36-0.142L7.979,4.648z M9.334,4.206L9.637,3.93c0.039,0.014,0.084,0.029,0.136,0.046L9.635,4.094   C9.631,4.098,9.618,4.109,9.613,4.114L9.544,4.205L9.334,4.206z M9.4,5.068c0.037-0.037,0.039-0.098,0.004-0.137l-0.23-0.256   C9.168,4.672,9.158,4.664,9.152,4.66L9.063,4.613c0.06,0.029,0.085,0.016,0.303-0.019l0.033,0.021L9.379,4.641   c-0.064,0.102-0.037,0.12,0.293,0.344c0.002,0.001,0.004,0.002,0.006,0.004L9.35,5.166L9.324,5.145L9.4,5.068z M3.134,12.039   c0.009,0.008,0.021,0.014,0.032,0.02l-0.02,0.045c-0.012,0.038-0.01,0.051,0.008,0.162c0.016,0.047,0.035,0.064,0.073,0.086   c0.024,0.014,0.054,0.016,0.08,0.007c0.007-0.003,0.024-0.009,0.032-0.013c-0.012,0.115,0.032,0.229,0.116,0.289   c0.04,0.027,0.086,0.043,0.133,0.043c0.136,0,0.251-0.119,0.271-0.275c0.006-0.053,0-0.105-0.016-0.152l0.05,0.046   c-0.001,0.021-0.001,0.04-0.003,0.06l-0.002,0.086c0.006,0.053,0.034,0.092,0.082,0.114c0.008,0.004,0.017,0.007,0.025,0.008   c0.01,0.002,0.029,0.003,0.04,0.002l0.307-0.045c-0.001,0.009-0.001,0.015,0,0.021c0,0.006,0.001,0.011,0.001,0.016   c-0.024,0.031-0.028,0.068-0.028,0.103c-0.017-0.018-0.036-0.029-0.056-0.034c-0.069-0.021-0.156-0.036-0.238-0.05l-0.105-0.02   l-0.001,0.005c-0.017-0.004-0.034-0.006-0.044-0.006c-0.047,0.01-0.057,0.021-0.148,0.133c-0.023,0.033-0.032,0.072-0.025,0.111   c0.006,0.037,0.025,0.068,0.047,0.082c0.049,0.042,0.115,0.08,0.174,0.112l0.064,0.037c0.01,0.007,0.021,0.011,0.033,0.013   l0.015,0.003c0.011,0.002,0.022,0.002,0.034,0.001c0.008-0.002,0.029-0.007,0.036-0.01l0.168-0.065   c0.008-0.003,0.018-0.009,0.024-0.015c0.035-0.025,0.055-0.061,0.059-0.115c0-0.02,0-0.04,0-0.067   c0.045,0.032,0.152,0.049,0.437,0.096c0.007,0.001,0.025,0.005,0.032,0.005c0.004,0,0.023,0.002,0.027,0.002h0.004   c0.006,0,0.006-0.001,0.012-0.002H5.34c0.004,0,0.008-0.001,0.012-0.002c0.022,0.037,0.063,0.061,0.114,0.063h0.306   c0.002,0,0.004,0,0.006,0c0.036-0.002,0.066-0.017,0.088-0.036c0.006,0.005,0.012,0.01,0.016,0.015   c0.02,0.017,0.037,0.032,0.062,0.056c0.026,0.02,0.056,0.031,0.087,0.031c0.006,0,0.041-0.006,0.047-0.008l0.061-0.02V13   c0.006,0.052,0.035,0.092,0.085,0.113c-0.013,0.021-0.019,0.045-0.021,0.072c0,0.064,0.001,0.128,0.002,0.192l0.002,0.067   c0.01,0.073,0.059,0.102,0.091,0.114l0.002,0.065c0,0,0,0.002,0.001,0.004c-0.013,0.02-0.021,0.045-0.021,0.074   c0,0.053,0.003,0.106,0.006,0.164c0.004,0.038,0.022,0.072,0.052,0.096c0.001,0.031,0.003,0.063,0.005,0.094   c0,0.003,0,0.005,0.001,0.008c-0.016,0.023-0.026,0.054-0.028,0.09c0.004,0.042,0.006,0.084,0.008,0.126l0.002,0.032   c0.007,0.055,0.049,0.111,0.121,0.121c0,0.002,0,0.004,0.001,0.007l0.004,0.068l-0.196-0.175c-0.007-0.007-0.016-0.013-0.025-0.017   l-0.367-0.079c-0.014-0.002-0.025-0.002-0.039,0l-0.029,0.006c-0.01,0.002-0.018,0.006-0.026,0.01l-0.066,0.035l-0.38-0.097   l-0.232-0.28c-0.009-0.011-0.02-0.02-0.033-0.025l-0.027-0.014c-0.037-0.02-0.082-0.012-0.113,0.018l-0.07,0.068L4.787,13.93   c-0.027-0.016-0.057-0.03-0.08-0.044c-0.03-0.017-0.066-0.017-0.097,0l-0.451,0.251c-0.009,0.005-0.032,0.026-0.038,0.034   c-0.008,0.009-0.014,0.018-0.019,0.028l-0.143,0.33l-0.132-0.091c-0.012-0.009-0.027-0.015-0.043-0.017l-0.027-0.003   c-0.004,0-0.008-0.001-0.012-0.001c-0.006,0-0.011,0.001-0.016,0.001l-0.276,0.046l-0.095-0.172l0.027-0.845   c0.002-0.021,0.004-0.046,0.004-0.065c0-0.018-0.006-0.035-0.014-0.05c-0.048-0.081-0.124-0.171-0.186-0.245l-0.027-0.033   c-0.006-0.008-0.034-0.027-0.043-0.033c-0.01-0.006-0.021-0.012-0.033-0.014l-0.231-0.047c0-0.002,0-0.004,0-0.004l0.001-0.204   L3.134,12.039z"/>
	<path fill="#18986b" d="M14.943,4.998h0.009c0.034,0,0.034,0,0.562-0.23c0.06-0.041,0.059-0.095,0.05-0.132   c-0.007-0.028-0.017-0.056-0.03-0.097c-0.006-0.014-0.013-0.026-0.023-0.037c-0.004-0.003-0.021-0.021-0.024-0.023l-0.212-0.166   c-0.02-0.014-0.059-0.027-0.108-0.029l-0.392,0.07l-0.088-0.055c-0.014-0.007-0.047-0.015-0.061-0.015   c-0.031,0-0.066,0.008-0.273,0.05c-0.044,0.014-0.075,0.045-0.085,0.084c-0.01,0.035,0.007,0.092,0.034,0.117   c0.036,0.033,0.082,0.063,0.125,0.088L14.393,4.7c-0.009,0.025-0.008,0.067,0.004,0.091c0.028,0.057,0.028,0.057,0.518,0.202   C14.924,4.996,14.934,4.998,14.943,4.998z"/>
</g>
<circle fill="none" stroke="#18986b" stroke-width="1.625" stroke-linecap="round" stroke-linejoin="round" stroke-miterlimit="10" cx="13" cy="13" r="12.035"/>
</svg>