<svg id="eye" xmlns="http://www.w3.org/2000/svg" xmlns:xlink="http://www.w3.org/1999/xlink" width="16" height="13" viewBox="0 0 16 13">
  <defs>
    <clipPath id="clip-path">
      <path id="Combined_Shape" data-name="Combined Shape" d="M8,9.75A8.864,8.864,0,0,1,2.1,7.412,11.8,11.8,0,0,1,.6,5.846,7.93,7.93,0,0,1,.07,5.117a.455.455,0,0,1,0-.485A7.926,7.926,0,0,1,.6,3.9,11.8,11.8,0,0,1,2.1,2.338,8.864,8.864,0,0,1,8,0a8.867,8.867,0,0,1,5.9,2.338A11.8,11.8,0,0,1,15.4,3.9a7.922,7.922,0,0,1,.526.729.453.453,0,0,1,0,.485,7.922,7.922,0,0,1-.526.729,11.8,11.8,0,0,1-1.5,1.566A8.867,8.867,0,0,1,8,9.75ZM8,1.083a7.442,7.442,0,0,0-4.93,2A10.648,10.648,0,0,0,1.716,4.492c-.108.136-.2.265-.289.383.081.115.178.244.289.383A10.648,10.648,0,0,0,3.069,6.671a7.442,7.442,0,0,0,4.93,2,7.443,7.443,0,0,0,4.931-2,10.587,10.587,0,0,0,1.353-1.413c.107-.135.2-.264.289-.383-.086-.12-.183-.249-.289-.383A10.587,10.587,0,0,0,12.93,3.079,7.443,7.443,0,0,0,8,1.083ZM8,7.041A2.459,2.459,0,0,1,5.333,4.875,2.459,2.459,0,0,1,8,2.709a2.459,2.459,0,0,1,2.667,2.166A2.459,2.459,0,0,1,8,7.041Zm0-3.25A1.229,1.229,0,0,0,6.666,4.875,1.229,1.229,0,0,0,8,5.958,1.23,1.23,0,0,0,9.333,4.875,1.23,1.23,0,0,0,8,3.792Z"/>
    </clipPath>
  </defs>
  <g id="Group_12" data-name="Group 12" transform="translate(0 1.625)">
    <path id="Combined_Shape-2" data-name="Combined Shape" d="M8,9.75A8.864,8.864,0,0,1,2.1,7.412,11.8,11.8,0,0,1,.6,5.846,7.93,7.93,0,0,1,.07,5.117a.455.455,0,0,1,0-.485A7.926,7.926,0,0,1,.6,3.9,11.8,11.8,0,0,1,2.1,2.338,8.864,8.864,0,0,1,8,0a8.867,8.867,0,0,1,5.9,2.338A11.8,11.8,0,0,1,15.4,3.9a7.922,7.922,0,0,1,.526.729.453.453,0,0,1,0,.485,7.922,7.922,0,0,1-.526.729,11.8,11.8,0,0,1-1.5,1.566A8.867,8.867,0,0,1,8,9.75ZM8,1.083a7.442,7.442,0,0,0-4.93,2A10.648,10.648,0,0,0,1.716,4.492c-.108.136-.2.265-.289.383.081.115.178.244.289.383A10.648,10.648,0,0,0,3.069,6.671a7.442,7.442,0,0,0,4.93,2,7.443,7.443,0,0,0,4.931-2,10.587,10.587,0,0,0,1.353-1.413c.107-.135.2-.264.289-.383-.086-.12-.183-.249-.289-.383A10.587,10.587,0,0,0,12.93,3.079,7.443,7.443,0,0,0,8,1.083ZM8,7.041A2.459,2.459,0,0,1,5.333,4.875,2.459,2.459,0,0,1,8,2.709a2.459,2.459,0,0,1,2.667,2.166A2.459,2.459,0,0,1,8,7.041Zm0-3.25A1.229,1.229,0,0,0,6.666,4.875,1.229,1.229,0,0,0,8,5.958,1.23,1.23,0,0,0,9.333,4.875,1.23,1.23,0,0,0,8,3.792Z"/>
    <g id="Mask_Group_12" data-name="Mask Group 12" clip-path="url(#clip-path)">
      <g id="COLOR_black" data-name="COLOR/ black" transform="translate(0 -1.625)">
        <rect id="Rectangle" width="16" height="13" fill="#c2c2c2"/>
      </g>
    </g>
  </g>
</svg>
