<?xml version="1.0" encoding="utf-8"?>
<svg version="1.1" xmlns="http://www.w3.org/2000/svg" xmlns:xlink="http://www.w3.org/1999/xlink" height="36" width="36">
  <defs>
    <path id="path-1" opacity="1" fill-rule="evenodd" d="M18.448018550872803,8 C17.399388790130615,8 16.426866054534912,8.547537803649902 15.880151271820068,9.448872566223145 L7.410151481628418,23.5888729095459 C6.868990898132324,24.52578353881836 6.865808486938477,25.662403106689453 7.393668174743652,26.58847427368164 C7.921527862548828,27.514543533325195 8.901145935058594,28.09096908569336 9.967028617858887,28.102684020996094 L26.918019771575928,28.10274314880371 C27.99489164352417,28.09096908569336 28.974509716033936,27.514543533325195 29.502370357513428,26.58847427368164 C30.030229091644287,25.662403106689453 30.027047634124756,24.52578353881836 29.494008541107178,23.602684020996094 L21.015885829925537,9.448872566223145 C20.46916913986206,8.547537803649902 19.49664831161499,8 18.448018550872803,8 L9.13122272491455,25.598068237304688 C8.955269813537598,25.289379119873047 8.956330299377441,24.910503387451172 9.13400936126709,24.60280418395996 L17.594213008880615,10.479408264160156 C17.77572202682495,10.181713104248047 18.099242687225342,10 18.448018550872803,10 C18.797561168670654,10 19.1217360496521,10.182512283325195 19.30301809310913,10.481371879577637 L27.770150661468506,24.616615295410156 C27.939706325531006,24.910503387451172 27.940768718719482,25.289379119873047 27.764813899993896,25.598068237304688 C27.588860988616943,25.906757354736328 27.26232099533081,26.098899841308594 26.90702772140503,26.10280418395996 L9.978018760681152,26.10274314880371 C9.633715629577637,26.098899841308594 9.307175636291504,25.906757354736328 9.13122272491455,25.598068237304688 L18.448018550872803,8Z"/>
    <mask id="mask-2" maskUnits="userSpaceOnUse" maskContentUnits="userSpaceOnUse">
      <rect opacity="1" x="0" y="0" width="36" height="36" fill="Black"/>
      <use xlink:href="#path-1" fill="White"/>
    </mask>
    <rect id="rect-3" opacity="1" x="0" y="0" width="36" height="36" rx="0" ry="0"/>
  </defs>
  <g opacity="1">
    <g opacity="1">
      <use xlink:href="#path-1" fill="rgb(0,0,0)" fill-opacity="1"/>
    </g>
    <g mask="url(#mask-2)">
      <g opacity="1">
        <g opacity="1">
          <use xlink:href="#rect-3" fill="rgb(95,156,250)" fill-opacity="1"/>
        </g>
      </g>
    </g>
  </g>
</svg>