<?xml version="1.0" encoding="utf-8"?>
<!-- Generator: Adobe Illustrator 17.0.2, SVG Export Plug-In . SVG Version: 6.00 Build 0)  -->
<!DOCTYPE svg PUBLIC "-//W3C//DTD SVG 1.1//EN" "http://www.w3.org/Graphics/SVG/1.1/DTD/svg11.dtd">
<svg xmlns="http://www.w3.org/2000/svg" xmlns:xlink="http://www.w3.org/1999/xlink" version="1.1" id="Layer_1" x="0px" y="0px" width="26px" height="26px" viewBox="0 0 26 26" enable-background="new 0 0 26 26" xml:space="preserve">
<path fill="#bbbaba" d="M26,17c0,0.552-0.448,1-1,1H8c-0.552,0-1-0.448-1-1V7c0-0.552,0.448-1,1-1h17c0.552,0,1,0.448,1,1V17z"/>
<circle fill="#bbbaba" cx="23" cy="24" r="2"/>
<circle fill="#bbbaba" cx="7" cy="24" r="2"/>
<path fill="none" stroke="#bbbaba" stroke-width="2" stroke-linecap="round" stroke-linejoin="round" stroke-miterlimit="10" d="  M25,21c0,0-16.635,0-18,0c-2.136,0-3-1.046-3-3S4,8.028,4,7S3.455,5,2,5H1"/>
<path fill="none" stroke="#bbbaba" stroke-width="2" stroke-linecap="round" stroke-linejoin="round" stroke-miterlimit="10" d="  M19,7c0,0,0-1.901,0-2c0-0.552-0.448-1-1-1s-2.448,0-3,0s-1,0.448-1,1c0,0.099,0,2,0,2"/>
</svg>