<?xml version="1.0" encoding="utf-8"?>
<!-- Generator: Adobe Illustrator 17.0.0, SVG Export Plug-In . SVG Version: 6.00 Build 0)  -->
<!DOCTYPE svg PUBLIC "-//W3C//DTD SVG 1.1//EN" "http://www.w3.org/Graphics/SVG/1.1/DTD/svg11.dtd">
<svg xmlns="http://www.w3.org/2000/svg" xmlns:xlink="http://www.w3.org/1999/xlink" version="1.1" id="Layer_1" x="0px" y="0px" width="26px" height="26px" viewBox="0 0 26 26" enable-background="new 0 0 26 26" xml:space="preserve">
<path fill="#bbbaba" d="M18.948,9.684l-3-9C15.812,0.275,15.431,0,15,0H7C6.569,0,6.188,0.275,6.052,0.684l-3,9  c-0.056,0.165-0.066,0.342-0.032,0.513l3,15C6.113,25.664,6.523,26,7,26h8c0.477,0,0.887-0.336,0.98-0.804l3-15  C19.015,10.025,19.004,9.849,18.948,9.684z M15,11h-3v6h-2v-6H7V9h3V5h2v4h3V11z"/>
<path fill="#bbbaba" d="M22.948,9.684l-3-9C19.812,0.275,19.431,0,19,0h-3c0.431,0,0.812,0.275,0.948,0.684l3,9  c0.056,0.165,0.066,0.342,0.032,0.513l-3,15C16.887,25.664,16.477,26,16,26h3c0.477,0,0.887-0.336,0.98-0.804l3-15  C23.015,10.025,23.004,9.849,22.948,9.684z"/>
</svg>