<svg width="305" height="238" viewBox="0 0 305 238" fill="none" xmlns="http://www.w3.org/2000/svg">
<path d="M126.938 1.63232C107.883 43.7789 86.57 84.3897 65.5271 125.551" stroke="#021626" stroke-width="2" stroke-linecap="round" stroke-linejoin="round"/>
<path d="M159.668 5.36035C139.318 30.7426 122.184 60.0208 113.756 91.5801C111.321 100.697 108.572 110.115 121.559 110.635C134.075 111.135 146.008 102.308 154.236 93.7356C157.099 90.7523 172.045 67.634 160.832 65.9729C155.513 65.1849 152.922 67.3665 149.839 71.1892C143.05 79.6077 133.933 104.343 149.321 109.341C154.678 111.081 160.146 110.239 164.669 107.013C172.002 101.783 179.474 95.7806 184.801 88.4331C188.149 83.8147 190.215 78.272 190.922 72.6118C191.326 69.3806 187.611 73.342 186.999 74.4224C157.088 127.267 132.434 183.064 103.797 236.602" stroke="#021626" stroke-width="2" stroke-linecap="round" stroke-linejoin="round"/>
<path d="M203.123 72.0947C190.341 103.091 177.88 134.425 162.168 164.091C160.131 167.938 151.238 186.939 148.028 186.939" stroke="#021626" stroke-width="2" stroke-linecap="round" stroke-linejoin="round"/>
<path d="M205.451 96.9263C200.559 107.026 195.64 117.11 190.707 127.189" stroke="#021626" stroke-width="2" stroke-linecap="round" stroke-linejoin="round"/>
<path d="M209.33 89.9432C212.776 84.7176 218.75 71.1092 227.609 74.8547C244.184 81.8631 236.752 108.333 223.729 115.292C219.086 117.773 218.579 111.662 219.246 108.653C220.576 102.647 224.811 103.493 229.506 105.118C239.549 108.594 246.26 111.368 256.665 110.895" stroke="#021626" stroke-width="2" stroke-linecap="round" stroke-linejoin="round"/>
<path d="M232.61 16.2256C159.07 44.7489 86.8425 77.3405 14.9481 109.774C13.9095 110.243 -0.933667 117.62 1.32541 117.836C5.70543 118.253 12.3842 116.835 16.1983 116.327C43.3091 112.712 70.364 108.934 97.5898 106.239C166.174 99.4511 235.155 100.298 304 99.2552" stroke="#021626" stroke-width="2" stroke-linecap="round" stroke-linejoin="round"/>
</svg>
