<?xml version="1.0" encoding="utf-8"?>
<!-- Generator: Adobe Illustrator 22.0.0, SVG Export Plug-In . SVG Version: 6.00 Build 0)  -->
<svg version="1.1" id="Layer_1" xmlns="http://www.w3.org/2000/svg" xmlns:xlink="http://www.w3.org/1999/xlink" x="0px" y="0px"
	 viewBox="0 0 512 512" style="enable-background:new 0 0 512 512;" xml:space="preserve">
<style type="text/css">
	.st0{fill:#FFFFFF;}
</style>
<path class="st0" d="M504.9,289l-224-277.2C274.5,4,265.2,0,256,0s-18.4,4-24.9,11.9L7.1,289c-11.3,14-8.8,34.6,5.5,45.5l224,170.9
	c5.6,4.3,12.4,6.6,19.4,6.6c6.8,0,13.7-2.2,19.4-6.5l224-170.9C513.7,323.6,516.2,303,504.9,289L504.9,289z M232,87.2v354.4
	L54.8,306.4L232,87.2z M280,441.5V87.2l177.2,219.2L280,441.5z"/>
</svg>
