<?xml version="1.0" encoding="utf-8"?>
<!-- Generator: Adobe Illustrator 22.0.0, SVG Export Plug-In . SVG Version: 6.00 Build 0)  -->
<svg version="1.1" id="Layer_1" xmlns="http://www.w3.org/2000/svg" xmlns:xlink="http://www.w3.org/1999/xlink" x="0px" y="0px"
	 viewBox="0 0 496 512" style="enable-background:new 0 0 496 512;" xml:space="preserve">
<style type="text/css">
	.st0{fill:#FFFFFF;}
</style>
<path class="st0" d="M491,308.2c-13.4-54-49.4-87.4-53.8-132c-3-30.5,21.4-53.1,18.8-95.8C453.1,34,419.5,0.1,376,0
	c-43.4,0.1-77,34-79.9,80.5c-2.8,42.7,21.7,65.3,18.7,95.8c-4.4,44.5-40.5,78.1-53.7,131.9c-13,52.5,0.3,140.1,29.1,191.5l6.9,12.3
	h158.1l6.9-12.3C490.7,448.3,504,360.6,491,308.2z M408.1,83.5c1.5,24.2-14.9,43.4-18.4,76.6h-27.4c-3.5-33.4-19.9-52.2-18.4-76.6
	C346.9,36,405.1,36,408.1,83.5L408.1,83.5z M426.2,463.9H325.9c-18.8-42.2-27.4-107-18.2-144.2c10.7-43.1,43.5-75,52.9-127.7h31
	c9.4,52.7,42.2,84.6,52.9,127.7C453.6,356.9,444.9,421.7,426.2,463.9L426.2,463.9z M181.2,176.3c-3-30.5,21.4-53.1,18.7-95.8
	C197,34,163.4,0.2,119.9,0.1C76.5,0.2,42.9,34,40,80.5c-2.7,42.8,21.8,65.2,18.7,95.8C54.3,221,18.4,254.2,5,308.2
	c-13,52.5,0.3,140.2,29,191.5l6.9,12.3H199l6.9-12.3c28.7-51.3,42-139,29-191.5C221.6,254.2,185.6,221,181.2,176.3L181.2,176.3z
	 M152,83.5c1.5,24.3-14.9,43.2-18.4,76.5h-27.4c-3.5-33.5-19.9-52-18.4-76.5C90.9,36.1,149.1,36.1,152,83.5z M170.1,464H69.8
	C51,421.7,42.4,356.9,51.6,319.7c10.6-43,43.4-74.8,52.9-127.7h30.9c9.5,53,42.3,84.7,52.9,127.8C197.5,357,188.9,421.7,170.1,464
	L170.1,464z"/>
</svg>
