<?xml version="1.0" encoding="utf-8"?>
<!-- Generator: Adobe Illustrator 22.0.0, SVG Export Plug-In . SVG Version: 6.00 Build 0)  -->
<svg version="1.1" id="Layer_1" xmlns="http://www.w3.org/2000/svg" xmlns:xlink="http://www.w3.org/1999/xlink" x="0px" y="0px"
	 viewBox="0 0 640 512" style="enable-background:new 0 0 640 512;" xml:space="preserve">
<style type="text/css">
	.st0{fill:#FFFFFF;}
</style>
<path class="st0" d="M514.1,192c-17.6-0.3-34.5,3-49.8,9.2L385,73.5c-3.6-5.9-10.1-9.5-17-9.5h-68c-6.6,0-12,5.4-12,12v16
	c0,6.6,5.4,12,12,12h56.9l32.3,52H256v-16c0-6.6-5.4-12-12-12h-96c-11,0-20,9-20,20s9,20,20,20h61.2l-25.6,36.6
	c-16.8-8.1-35.6-12.6-55.5-12.6C57.4,192-0.4,250.2,0,320.8C0.4,391.1,57.6,448,128,448c58.2,0,107.3-38.8,122.9-92H284
	c6.5,0,12.6-3.2,16.4-8.5l110-157.2l19.5,31.5c-28.1,23.5-46,58.9-46,98.4c0.1,68.9,57.9,127.2,126.8,127.8
	c71.6,0.7,129.8-57.5,129.2-129C639.4,249.8,583.3,193.1,514.1,192z M128,408c-48.5,0-88-39.5-88-88s39.5-88,88-88
	c11,0,21.9,2,32.1,6.1l-60.5,86.5C90.3,337.8,99.9,356,116,356h92.3C194.5,386.6,163.7,408,128,408z M154.4,316l38.6-55.2
	c13.4,14.7,21.9,34,22.9,55.2H154.4z M273.6,316h-17.7c-1.1-34.8-16-66.1-39.5-88.6l22-31.4h119.2L273.6,316z M507.9,407.9
	c-45.5-2.1-82.2-39.2-83.8-84.8c-0.9-26.3,9.8-50.2,27.3-66.9l47.8,77.1c3.5,5.6,10.9,7.4,16.5,3.9l13.6-8.4
	c5.6-3.5,7.4-10.9,3.9-16.5L485.9,236c9-2.8,18.6-4.2,28.6-3.9c45.8,1.3,83.3,38.1,85.4,83.8C602.3,367.6,559.6,410.3,507.9,407.9
	L507.9,407.9z"/>
</svg>
