<?xml version="1.0" encoding="utf-8"?>
<!-- Generator: Adobe Illustrator 22.0.0, SVG Export Plug-In . SVG Version: 6.00 Build 0)  -->
<svg version="1.1" id="Layer_1" xmlns="http://www.w3.org/2000/svg" xmlns:xlink="http://www.w3.org/1999/xlink" x="0px" y="0px"
	 viewBox="0 0 448 512" style="enable-background:new 0 0 448 512;" xml:space="preserve">
<style type="text/css">
	.st0{fill:#FFFFFF;}
</style>
<path class="st0" d="M264,336c0,22.1-17.9,40-40,40s-40-17.9-40-40s17.9-40,40-40S264,313.9,264,336z M448,109.7v228.6
	c0,49.2-43.7,90.6-99.1,104.7l58.8,58.8c3.8,3.8,1.1,10.2-4.2,10.2H355c-3.2,0-6.2-1.3-8.5-3.5L286.1,448H161.9l-60.5,60.5
	c-2.3,2.3-5.3,3.5-8.5,3.5H44.5c-5.3,0-8-6.5-4.2-10.2L99.1,443C43.9,429,0,387.7,0,338.3V109.7C0,45.9,71,0,138.3,0h171.4
	C377.9,0,448,45.9,448,109.7z M48,224h352v-80H48V224z M50.8,96h346.5c-10.2-26.1-48-48-87.6-48H138.3C99.4,48,61.3,69.7,50.8,96z
	 M400,338.3V272H48v66.3c0,36.2,52,61.7,90.3,61.7h171.4C347.5,400,400,374.8,400,338.3z"/>
</svg>
