<?xml version="1.0" encoding="utf-8"?>
<!-- Generator: Adobe Illustrator 22.0.0, SVG Export Plug-In . SVG Version: 6.00 Build 0)  -->
<svg version="1.1" id="Layer_1" xmlns="http://www.w3.org/2000/svg" xmlns:xlink="http://www.w3.org/1999/xlink" x="0px" y="0px"
	 viewBox="0 0 576 512" style="enable-background:new 0 0 576 512;" xml:space="preserve">
<style type="text/css">
	.st0{fill:#FFFFFF;}
</style>
<path class="st0" d="M544,184.9V32c0-8.7-7-32-32-32h0c-7.1,0-14.2,2.4-20,7l-85,68c-42.7,34.1-96.3,53-151,53H64
	c-35.3,0-64,28.6-64,64v96c0,35.4,28.6,64,64,64l-0.5,32c0,39.8,9.3,77.4,25.6,110.9c5.2,10.7,16.5,17.1,28.4,17.1h106.3
	c26.1,0,41.7-29.8,25.9-50.6c-16.4-21.5-26.1-48.4-26.1-77.4c0-11.1,1.6-21.8,4.4-32H256c54.7,0,108.3,18.8,151,53l85,68
	c5.7,4.5,12.7,7,20,7c24.9,0,32-22.8,32-32V295.1c19-11.1,32-31.5,32-55.1C576,216.4,563,196,544,184.9z M127.7,464
	c-10.8-25.5-16.2-52.3-16.2-80c0-14.2,1.7-25.3,2.6-32H179c-2.1,10.7-3.5,21.4-3.5,32c0,28.2,6.6,55.4,19.2,80H127.7z M240,304H64
	c-8.8,0-16-7.2-16-16v-96c0-8.8,7.2-16,16-16h176V304z M496,414.7l-59-47.2c-42.8-34.2-94.8-55.4-149-61.5V174
	c54.2-6.1,106.2-27.2,149-61.5l59-47.2V414.7z"/>
</svg>
