<?xml version="1.0" encoding="utf-8"?>
<!-- Generator: Adobe Illustrator 22.0.0, SVG Export Plug-In . SVG Version: 6.00 Build 0)  -->
<svg version="1.1" id="Layer_1" xmlns="http://www.w3.org/2000/svg" xmlns:xlink="http://www.w3.org/1999/xlink" x="0px" y="0px"
	 viewBox="0 0 512 512" style="enable-background:new 0 0 512 512;" xml:space="preserve">
<style type="text/css">
	.st0{fill:#FFFFFF;}
</style>
<path class="st0" d="M503.9,261.3L279.8,10.6C273.5,3.5,264.7,0,256,0s-17.4,3.5-23.8,10.6L8.1,261.3c-11.8,13.2-10.6,33.5,2.7,45.2
	L234.9,504c6,5.3,13.6,8,21.1,8s15.1-2.7,21.1-8l224.1-197.5C514.5,294.8,515.7,274.5,503.9,261.3z M256,287.8l-66.1-44.1L256,89.6
	l66.1,154.2L256,287.8z M142.6,232.3l-56.9,14.2l97.6-109.2L142.6,232.3L142.6,232.3z M155.5,278.5l76.5,51v108L74.6,298.8
	L155.5,278.5z M280,329.5l76.5-51l80.9,20.2L280,437.5V329.5z M369.4,232.3l-40.7-94.9l97.6,109.2L369.4,232.3L369.4,232.3z"/>
</svg>
