<?xml version="1.0" encoding="utf-8"?>
<!-- Generator: Adobe Illustrator 22.0.0, SVG Export Plug-In . SVG Version: 6.00 Build 0)  -->
<svg version="1.1" id="Layer_1" xmlns="http://www.w3.org/2000/svg" xmlns:xlink="http://www.w3.org/1999/xlink" x="0px" y="0px"
	 viewBox="0 0 512 512" style="enable-background:new 0 0 512 512;" xml:space="preserve">
<style type="text/css">
	.st0{fill:#FFFFFF;}
</style>
<path class="st0" d="M508.6,185.2L452.8,73.5c-3.1-6.2-8.1-11.2-14.3-14.3L326.8,3.4c-4.4-2.2-9.3-3.4-14.3-3.4H199.6
	c-5,0-9.9,1.2-14.3,3.4L73.5,59.2c-6.2,3.1-11.2,8.1-14.3,14.3L3.4,185.2c-2.2,4.4-3.4,9.3-3.4,14.3v112.9c0,5,1.2,9.9,3.4,14.3
	l55.8,111.7c3.1,6.2,8.1,11.2,14.3,14.3l111.7,55.9c4.4,2.2,9.3,3.4,14.3,3.4h112.9c5,0,9.9-1.2,14.3-3.4l111.7-55.9
	c6.2-3.1,11.2-8.1,14.3-14.3l55.9-111.7c2.2-4.4,3.4-9.3,3.4-14.3V199.6C512,194.6,510.8,189.7,508.6,185.2L508.6,185.2z M455,185.3
	l-78.2,104.2L280,241.2v-93.5l140.7-28.1l-0.9-4.6L455,185.3L455,185.3z M300.6,464h-89.1l-53-132.4l97.5-48.8l97.5,48.8L300.6,464z
	 M203.3,48h105.3l64.3,32.1L256,103.5L139.1,80.1L203.3,48z M92.2,114.9l-0.9,4.6L232,147.7v93.5l-96.8,48.4L57,185.3L92.2,114.9z
	 M48,308.7v-55.4l58.9,78.5l42,104.9l-49.1-24.5L48,308.7z M412.2,412.2l-49.1,24.5l42-104.9l58.9-78.5v55.4L412.2,412.2z"/>
</svg>
