<?xml version="1.0" encoding="utf-8"?>
<!-- Generator: Adobe Illustrator 22.0.0, SVG Export Plug-In . SVG Version: 6.00 Build 0)  -->
<svg version="1.1" id="Layer_1" xmlns="http://www.w3.org/2000/svg" xmlns:xlink="http://www.w3.org/1999/xlink" x="0px" y="0px"
	 viewBox="0 0 576 512" style="enable-background:new 0 0 576 512;" xml:space="preserve">
<style type="text/css">
	.st0{fill:#FFFFFF;}
</style>
<path class="st0" d="M452.7,119.1L565.3,44c11-7.4,14-22.3,6.7-33.3c-7.3-11-22.3-14.1-33.3-6.7L388.5,104.2
	C357.2,99,323.4,96,288,96C128.9,96,0,153.3,0,224v160c0,70.7,128.9,128,288,128s288-57.3,288-128V224
	C576,180.6,527.2,142.2,452.7,119.1z M96,426.8C65.1,412,48,395.7,48,384v-89.3c13.6,9.1,29.8,17.3,48,24.5V426.8L96,426.8z
	 M264,463.5c-46.6-1.9-87.1-9-120-18.7V334.7c35.9,9.2,76.5,15.1,120,16.7V463.5z M432,444.8c-33,9.6-73.4,16.8-120,18.7v-112
	c43.5-1.6,84.1-7.5,120-16.7V444.8z M528,384c0,11.7-17.1,28-48,42.8V319.2c18.2-7.3,34.4-15.4,48-24.5V384z M288,304
	c-132.6,0-240-35.8-240-80s107.4-80,240-80c13.3,0,26.3,0.4,39,1.1L250.7,196c-11,7.4-14,22.3-6.7,33.3c4.6,6.9,12.3,10.7,20,10.7
	c4.6,0,9.2-1.3,13.3-4l123.8-82.5c75.5,13.5,126.9,40,126.9,70.6C528,268.2,420.5,304,288,304z"/>
</svg>
