<?xml version="1.0" encoding="utf-8"?>
<!-- Generator: Adobe Illustrator 22.0.0, SVG Export Plug-In . SVG Version: 6.00 Build 0)  -->
<svg version="1.1" id="Layer_1" xmlns="http://www.w3.org/2000/svg" xmlns:xlink="http://www.w3.org/1999/xlink" x="0px" y="0px"
	 viewBox="0 0 512 512" style="enable-background:new 0 0 512 512;" xml:space="preserve">
<style type="text/css">
	.st0{fill:#FFFFFF;}
</style>
<path class="st0" d="M464,128h-80V80c0-26.5-21.5-48-48-48H176c-26.5,0-48,21.5-48,48v48H48c-26.5,0-48,21.5-48,48v256
	c0,26.5,21.5,48,48,48h416c26.5,0,48-21.5,48-48V176C512,149.5,490.5,128,464,128z M176,80h160v48H176V80z M54,176h404
	c3.3,0,6,2.7,6,6v74H48v-74C48,178.7,50.7,176,54,176z M458,432H54c-3.3,0-6-2.7-6-6V304h144v24c0,13.3,10.8,24,24,24h80
	c13.3,0,24-10.8,24-24v-24h144v122C464,429.3,461.3,432,458,432z"/>
</svg>
