<?xml version="1.0" encoding="utf-8"?>
<!-- Generator: Adobe Illustrator 22.0.0, SVG Export Plug-In . SVG Version: 6.00 Build 0)  -->
<svg version="1.1" id="Layer_1" xmlns="http://www.w3.org/2000/svg" xmlns:xlink="http://www.w3.org/1999/xlink" x="0px" y="0px"
	 viewBox="0 0 448 512" style="enable-background:new 0 0 448 512;" xml:space="preserve">
<style type="text/css">
	.st0{fill:#FFFFFF;}
</style>
<path class="st0" d="M431.9,116.1L239.9,4.3c-9.8-5.7-21.9-5.7-31.8,0l-192,111.8C6.2,121.9,0,132.8,0,144.4v223.1
	c0,11.7,6.2,22.5,16.1,28.3l192,111.8c9.8,5.7,21.9,5.7,31.8,0l192-111.8c10-5.8,16.1-16.6,16.1-28.3V144.4
	C448,132.8,441.9,121.9,431.9,116.1z M224,87.9l72.5,96.1H151.5L224,87.9z M224,339.3L155.7,232h136.6L224,339.3z M113.1,254.5
	l63.4,99.6l-83.4-19.4C93.1,334.7,113.1,254.5,113.1,254.5z M334.9,254.5l20,80.2L271.5,354L334.9,254.5L334.9,254.5z M351.5,177.3
	l-70.4-93.4l106,61.8L351.5,177.3L351.5,177.3z M96.5,177.3l-35.6-31.6l106-61.8L96.5,177.3L96.5,177.3z M72.3,219.9L48,317V198.3
	C48,198.3,72.3,219.9,72.3,219.9z M200,408.8v38.6L89.7,383.2L200,408.8z M248,408.8l110.3-25.6L248,447.4V408.8L248,408.8z
	 M400,317l-24.3-97.1l24.3-21.6V317z"/>
</svg>
