<?xml version="1.0" encoding="utf-8"?>
<!-- Generator: Adobe Illustrator 22.0.0, SVG Export Plug-In . SVG Version: 6.00 Build 0)  -->
<svg version="1.1" id="Layer_1" xmlns="http://www.w3.org/2000/svg" xmlns:xlink="http://www.w3.org/1999/xlink" x="0px" y="0px"
	 viewBox="0 0 496 512" style="enable-background:new 0 0 496 512;" xml:space="preserve">
<style type="text/css">
	.st0{fill:#FFFFFF;}
</style>
<path class="st0" d="M248,8C111,8,0,118.9,0,256c0,137.9,111.6,248,248,248c136.2,0,248-110,248-248C496,119,385.2,8,248,8z
	 M234.1,455.3c-38.9-2.7-77.1-16.7-109.4-42L248,290l43,43C261.8,368.1,242.1,410.4,234.1,455.3z M325.6,367.6l45.7,45.7
	c-26.1,20.5-56.1,33.6-87.2,39.3C291.4,421.5,305.7,392.7,325.6,367.6L325.6,367.6z M359.6,333.7c25-20,53.9-34.2,85.1-41.5
	c-5.8,31.9-19.2,61.7-39.4,87.3L359.6,333.7L359.6,333.7z M447.3,242.1c-45,8.1-87.2,27.8-122.4,57l-43-43l123.3-123.4
	C430,164.1,444.6,201.9,447.3,242.1L447.3,242.1z M139,181c-25.8,20.6-55.8,35-88.1,42.1c5.5-33,19-63.9,39.8-90.4L139,181z
	 M124.7,98.7C151.1,77.9,182,64.4,215,58.9c-7.1,32.3-21.5,62.3-42.1,88.1L124.7,98.7z M264.9,56.8c39.1,3.3,75.8,17.8,106.4,41.9
	L248,222.1l-40.4-40.4C237.3,145.9,257.2,102.8,264.9,56.8L264.9,56.8z M48.8,273c46-7.8,89.1-27.6,124.8-57.3l40.4,40.4L90.7,379.4
	C66.6,348.7,52.1,312,48.8,273z"/>
</svg>
