<?xml version="1.0" encoding="utf-8"?>
<!-- Generator: Adobe Illustrator 22.0.0, SVG Export Plug-In . SVG Version: 6.00 Build 0)  -->
<svg version="1.1" id="Layer_1" xmlns="http://www.w3.org/2000/svg" xmlns:xlink="http://www.w3.org/1999/xlink" x="0px" y="0px"
	 viewBox="0 0 640 512" style="enable-background:new 0 0 640 512;" xml:space="preserve">
<style type="text/css">
	.st0{fill:#FFFFFF;}
</style>
<path class="st0" d="M631,8.6l-14.4-6.9c-8-3.9-17.5-0.5-21.4,7.4L465.5,279.3L75.8,206.2C36,198.7,0,229.5,0,269.1V448
	c0,35.3,28.6,64,64,64h302.7c24.6,0,47-14.1,57.7-36.3l214-445.8C642.2,22,638.9,12.4,631,8.6L631,8.6z M434.9,342.9l-53.8,112
	c-2.7,5.5-8.3,9.1-14.4,9.1H64c-19.1,0-16-23-16-24h72c4.4,0,8-3.6,8-8v-32c0-4.4-3.6-8-8-8H48v-48h72c4.4,0,8-3.6,8-8v-32
	c0-4.4-3.6-8-8-8H48v-26.9c0-9.6,8.6-17.7,18.9-15.7l356.5,66.9C433.8,322.2,439.4,333.4,434.9,342.9L434.9,342.9z"/>
</svg>
