<?xml version="1.0" encoding="utf-8"?>
<!-- Generator: Adobe Illustrator 22.0.0, SVG Export Plug-In . SVG Version: 6.00 Build 0)  -->
<svg version="1.1" id="Layer_1" xmlns="http://www.w3.org/2000/svg" xmlns:xlink="http://www.w3.org/1999/xlink" x="0px" y="0px"
	 viewBox="0 0 448 512" style="enable-background:new 0 0 448 512;" xml:space="preserve">
<style type="text/css">
	.st0{fill:#FFFFFF;}
</style>
<path class="st0" d="M425,55c-39.6-39.6-117.5-26.5-201,27.1C140.5,28.5,62.7,15.5,23,55C-16.6,94.6-3.5,172.4,50.1,255.8
	C-3.5,339.3-16.6,417.1,23,456.6c61,61,182.9-15.4,201-27c18.2,11.7,139.9,88,201,27c39.6-39.5,26.5-117.4-27.1-200.8
	C451.5,172.4,464.6,94.6,425,55z M391,89c16.8,16.7,10.6,64.6-23.7,124.3c-40-50.3-78.2-82.8-100.8-100.7
	C308.6,88.5,368.8,66.8,391,89L391,89z M57,89c22.3-22.3,82.7-0.3,124.5,23.7c-50.4,40-82.9,78.2-100.8,100.7
	C46.4,153.6,40.2,105.7,57,89z M57,422.7C40.2,406,46.4,358,80.7,298.4c40.5,51,78.2,82.6,100.8,100.6
	C121.8,433.2,73.8,439.4,57,422.7z M224,370.7c-45.1-33.4-81-69.1-115-114.9c19.2-25.9,55.9-71.5,115-115.4
	c59,43.8,95.8,89.6,115,115.4C305.2,301.2,269.4,337,224,370.7z M391,422.7c-16.8,16.7-64.8,10.5-124.5-23.8
	c22.6-18,60.3-49.6,100.8-100.6C401.6,358,407.8,406,391,422.7L391,422.7z M224,223.8c-17.7,0-32,14.3-32,32s14.3,32,32,32
	s32-14.3,32-32S241.7,223.8,224,223.8z"/>
</svg>
