<?xml version="1.0" encoding="utf-8"?>
<!-- Generator: Adobe Illustrator 22.0.0, SVG Export Plug-In . SVG Version: 6.00 Build 0)  -->
<svg version="1.1" id="Layer_1" xmlns="http://www.w3.org/2000/svg" xmlns:xlink="http://www.w3.org/1999/xlink" x="0px" y="0px"
	 viewBox="0 0 512 512" style="enable-background:new 0 0 512 512;" xml:space="preserve">
<style type="text/css">
	.st0{fill:#FFFFFF;}
</style>
<path class="st0" d="M502.1,232.1L279.9,9.9C273.3,3.3,264.6,0,256,0s-17.3,3.3-23.9,9.9L9.9,232.1c-13.2,13.2-13.2,34.6,0,47.7
	l222.3,222.3c6.6,6.6,15.2,9.9,23.9,9.9c8.6,0,17.3-3.3,23.9-9.9l222.3-222.3C515.3,266.7,515.3,245.3,502.1,232.1z M280,77.9
	l166.4,166.4L280,315.6V77.9z M232,315.6L65.6,244.3L232,77.9V315.6z M232,367.8v66.3l-116-116L232,367.8z M280,367.8l116-49.7
	l-116,116V367.8z"/>
</svg>
