<?xml version="1.0" encoding="utf-8"?>
<!-- Generator: Adobe Illustrator 22.0.0, SVG Export Plug-In . SVG Version: 6.00 Build 0)  -->
<svg version="1.1" id="Layer_1" xmlns="http://www.w3.org/2000/svg" xmlns:xlink="http://www.w3.org/1999/xlink" x="0px" y="0px"
	 viewBox="0 0 448 512" style="enable-background:new 0 0 448 512;" xml:space="preserve">
<style type="text/css">
	.st0{fill:#FFFFFF;}
</style>
<path class="st0" d="M431.9,116.1L239.9,4.3c-9.8-5.7-21.9-5.7-31.8,0l-192,111.8C6.2,121.9,0,132.8,0,144.4v223.1
	c0,11.7,6.2,22.5,16.1,28.3l192,111.8c9.8,5.7,21.9,5.7,31.8,0l192-111.8c10-5.8,16.1-16.6,16.1-28.3V144.4
	C448,132.8,441.9,121.9,431.9,116.1z M224,50.6l152.4,88.7L224,228.2L71.7,139.3L224,50.6z M48,181.1l152,88.7v177.6L48,358.9V181.1
	z M248,447.4V269.8l152-88.7v177.8L248,447.4L248,447.4z"/>
</svg>
