<?xml version="1.0" encoding="utf-8"?>
<!-- Generator: Adobe Illustrator 22.0.0, SVG Export Plug-In . SVG Version: 6.00 Build 0)  -->
<svg version="1.1" id="Layer_1" xmlns="http://www.w3.org/2000/svg" xmlns:xlink="http://www.w3.org/1999/xlink" x="0px" y="0px"
	 viewBox="0 0 640 512" style="enable-background:new 0 0 640 512;" xml:space="preserve">
<style type="text/css">
	.st0{fill:#FFFFFF;}
</style>
<path class="st0" d="M540.5,199.7C529.7,158.5,492.6,128,448,128H288v-16c0-26.5,21.5-48,48-48h128c8.8,0,16-7.2,16-16V16
	c0-8.8-7.2-16-16-16H336c-61.9,0-112,50.1-112,112v16h-32c-44.6,0-81.7,30.5-92.5,71.7C41.9,218.6,0,272.1,0,336v32
	c0,79.5,64.5,144,144,144h352c79.5,0,144-64.5,144-144v-32C640,272.1,598.1,218.6,540.5,199.7z M144,240h352c52.9,0,96,43.1,96,96
	H48C48,283.1,91.1,240,144,240z M496,464H144c-52.9,0-96-43.1-96-96h544C592,420.9,548.9,464,496,464z"/>
</svg>
