<?xml version="1.0" encoding="utf-8"?>
<!-- Generator: Adobe Illustrator 22.0.0, SVG Export Plug-In . SVG Version: 6.00 Build 0)  -->
<svg version="1.1" id="Layer_1" xmlns="http://www.w3.org/2000/svg" xmlns:xlink="http://www.w3.org/1999/xlink" x="0px" y="0px"
	 viewBox="0 0 512 512" style="enable-background:new 0 0 512 512;" xml:space="preserve">
<style type="text/css">
	.st0{fill:#FFFFFF;}
</style>
<path class="st0" d="M472,192h-40v-72c0-22.1-17.9-40-40-40h-72V40c0-22.1-17.9-40-40-40h-34.9c-15.5,0-29.8,9.1-36.3,23.1
	L95.5,266.5L31.1,331c-41.4,41.4-41.4,108.6,0,150c41.3,41.3,108.4,41.5,150,0l64.5-64.5l243.3-113.3c14.1-6.5,23.2-20.8,23.2-36.3
	V232C512,209.9,494.1,192,472,192L472,192z M384,128v62.4l-91.2,28.8l28.8-91.2H384z M85.1,344.8l20.9-20.9l82.1,82.1l-20.9,20.9
	L85.1,344.8L85.1,344.8z M250.2,48H272v50.2l-62,36L250.2,48z M261.1,160l-26.3,83.1L164,314l-25.7-25.7l36.3-77.9L261.1,160z
	 M65,447c-21.8-21.8-22.4-56.6-2.2-79.4l81.6,81.6C120.6,470.3,86.2,468.2,65,447z M223.7,373.7L198,347.9l70.8-70.8l83.1-26.3
	l-50.3,86.5L223.7,373.7L223.7,373.7z M464,261.8l-86.2,40.1l36-61.9H464V261.8z"/>
</svg>
