<svg id="Lager_1" xmlns="http://www.w3.org/2000/svg" viewBox="0 0 293.7 57.8"><style>.st0{fill:#fff}</style><path class="st0" d="M33.5 0l14.1 24.4h-9.8l-4.4-7.6-18.8 32.5h28.2l4.8 8.5H0L33.5 0z"/><path class="st0" d="M33.3 32.5h19.1l14.4 25.3H57L47.5 41l-19-.1 4.8-8.4zm43.1-7.1h4.1v15.4h7v4.1h-11V25.4zm18.2 0V38c0 1.7 1.3 3 3 3s3-1.3 3-3V25.4h4.1V38c0 3.9-3.2 7.1-7.1 7.1-3.9 0-7.1-3.2-7.1-7.1V25.4h4.1zm18.8 9.1v10.4h-4.1v-20l11.1 10.9V25.4h4.1v19.9l-11.1-10.8zm15.9-9.1h5.9c5.4 0 9.7 4.3 9.7 9.7s-4.3 9.7-9.7 9.7h-5.9V25.4zm5.9 15.4c3.2 0 5.6-2.5 5.6-5.6 0-3.1-2.5-5.6-5.6-5.6h-1.8v11.3h1.8zm22.9-15.4h4.1v19.4h-4.1V25.4zm12.4 4.1h-4.8v-4.1h13.6v4.1h-4.7v15.4h-4.1V29.5zm32.1 13.1l-.3.3c-1.2 1.3-2.8 1.9-4.6 1.9-3.6 0-6.5-2.9-6.5-6.5 0-1.8.6-3.4 1.9-4.7l.4-.5c-.5-.8-.7-1.7-.7-2.7 0-2.8 2.1-4.9 4.9-4.9 2.6 0 4.8 2.1 4.8 4.7 0 1.3-.6 2.6-1.5 3.4l-2.6-2.5c.2-.2.4-.5.4-.9 0-.6-.5-1-1.1-1s-1.1.5-1.1 1.3c0 .3.1.6.3.8l5.7 5.8 2.6-2.6 2.6 2.7-2.6 2.6 2.5 2.6-2.6 2.7-2.5-2.5zm-2.9-2.4l.3-.3-3.8-3.9c-.8.8-1.1 1.3-1.1 2.3 0 1.6 1.2 2.8 2.7 2.8.7-.1 1.3-.3 1.9-.9zm34.1 5.1l-3.5-7.8-3.5 7.8-9.1-19.9h4.5l4.8 11.3 1.5-3.5-3.5-7.8h4l1.4 3.3 1.4-3.3h4l-3.5 7.8 1.5 3.5 4.8-11.3h4.5c-.2 0-9.3 19.9-9.3 19.9zm22.2-7.1l-.1 1.2h-9.4c.4 1.4 1.4 2.3 2.8 2.3 1 0 1.9-.4 2.5-1.2l3.6.9c-1 2.3-3.3 3.8-6.1 3.8-4 0-7-2.9-7-6.8 0-3.8 3-6.8 6.9-6.8 3.9-.1 6.7 2.7 6.8 6.6zm-9.3-1.5h5.1c-.4-1.1-1.3-1.7-2.4-1.7-1.3 0-2.2.6-2.7 1.7zm17 7.2v.9h-3.8V25.4h4.1v7.2c.9-.7 2.1-1.1 3.4-1.1 3.6 0 6.5 3 6.5 6.8s-2.9 6.8-6.5 6.8c-1.5 0-2.8-.5-3.7-1.2zm6-5.6c0-1.7-1.3-3-3-3s-3 1.3-3 3 1.3 3.1 3 3.1 3-1.4 3-3.1zm11.7 5.6v.9h-3.8V25.4h4.1v7.2c.9-.7 2.1-1.1 3.4-1.1 3.6 0 6.5 3 6.5 6.8s-2.9 6.8-6.5 6.8c-1.5 0-2.7-.5-3.7-1.2zm6-5.6c0-1.7-1.3-3-3-3s-3 1.3-3 3 1.3 3.1 3 3.1 3-1.4 3-3.1zM75.1 16.5c0-2.1 1.7-3.7 3.8-3.7 1 0 2 .4 2.7 1.2l-1.1 1.1c-.4-.5-1-.7-1.6-.7-1.2 0-2.2 1-2.2 2.2 0 1.2 1 2.2 2.2 2.2.4 0 .9-.1 1.2-.4v-1h-1.4v-1.5h2.8v3.5c-.8.7-1.7 1-2.7 1-2.1-.2-3.7-1.8-3.7-3.9zm7.8 1.2c0-1.4 1.1-2.5 2.6-2.5 1.4 0 2.6 1.1 2.6 2.5s-1.1 2.5-2.6 2.5-2.6-1.1-2.6-2.5zm3.7 0c0-.6-.5-1.1-1.1-1.1-.6 0-1.1.5-1.1 1.1s.5 1.1 1.1 1.1c.6 0 1.1-.5 1.1-1.1zm6.6-1.1h-.8v-1.3h.8v-.7c0-1.1.7-1.8 1.7-1.8.4 0 .8.1.9.3v1.4c-.1-.2-.4-.3-.6-.3-.3 0-.5.2-.5.6v.6h1.1v1.3h-1.1v3.6h-1.5v-3.7zm3.4 1.1c0-1.4 1.1-2.5 2.6-2.5 1.4 0 2.6 1.1 2.6 2.5s-1.1 2.5-2.6 2.5-2.6-1.1-2.6-2.5zm3.7 0c0-.6-.5-1.1-1.1-1.1-.6 0-1.1.5-1.1 1.1s.5 1.1 1.1 1.1c.6 0 1.1-.5 1.1-1.1zm4.4.3v2.2h-1.5v-4.9h1.5v.7c.2-.5.6-.8 1-.8h.2v1.5c-.7-.2-1.2.1-1.2 1.3zm6.5-1.4h-.9v-1.3h.9v-1.6h1.5v1.6h.9v1.3h-.9v3.6h-1.5v-3.6zm3.7-3.7h1.5v2.6c.3-.2.7-.3 1-.3 1 0 1.8.8 1.8 1.9v3.1h-1.5v-3c0-.3-.3-.6-.6-.6-.4 0-.7.3-.7.6v3h-1.5v-7.3zm10.7 4.8v.4h-3.5c.1.5.5.9 1.1.9.4 0 .7-.2.9-.5l1.4.4c-.4.9-1.3 1.4-2.3 1.4-1.5 0-2.6-1.1-2.6-2.5s1.1-2.5 2.6-2.5 2.4.9 2.4 2.4zm-3.5-.6h1.9c-.2-.4-.5-.6-.9-.6-.5 0-.8.2-1 .6zm8.8-.5h-.9v-1.3h.9v-1.6h1.5v1.6h.9v1.3h-.9v3.6h-1.5v-3.6zm3.2 1.1c0-1.4 1.1-2.5 2.6-2.5 1.4 0 2.6 1.1 2.6 2.5s-1.1 2.5-2.6 2.5-2.6-1.1-2.6-2.5zm3.7 0c0-.6-.5-1.1-1.1-1.1-.6 0-1.1.5-1.1 1.1s.5 1.1 1.1 1.1c.6 0 1.1-.5 1.1-1.1zm2.9-2.4h1.5v.3c.4-.3.8-.4 1.3-.4 1.3 0 2.4 1.1 2.4 2.5s-1.1 2.5-2.4 2.5c-.5 0-.9-.1-1.3-.4v2.4h-1.5v-6.9zm3.7 2.4c0-.6-.5-1.1-1.1-1.2-.6 0-1.1.5-1.2 1.1v.1c0 .6.5 1.1 1.2 1.1.6-.1 1.1-.5 1.1-1.1z"/></svg>