<svg xmlns="http://www.w3.org/2000/svg" viewBox="0 0 293.68 57.8"><path d="M33.45 0L47.6 24.42h-9.75l-4.4-7.55L14.6 49.29h28.23l4.77 8.51H0z"/><path d="M33.31 32.49h19.06L66.74 57.8h-9.75L47.45 41l-18.99-.07zM76.38 25.39h4.08v15.36h6.96v4.08H76.38V25.39zM94.62 25.39v12.58c0 1.7 1.32 3.02 3.02 3.02s3.02-1.32 3.02-3.02V25.39h4.08v12.58c0 3.94-3.17 7.1-7.1 7.1-3.94 0-7.1-3.17-7.1-7.1V25.39h4.08zM113.42 34.46v10.37h-4.08V24.91l11.11 10.9V25.39h4.08v19.92l-11.11-10.85zM129.3 25.39h5.86c5.38 0 9.72 4.34 9.72 9.72 0 5.38-4.34 9.72-9.72 9.72h-5.86V25.39zm5.86 15.36c3.17 0 5.64-2.47 5.64-5.64 0-3.14-2.5-5.64-5.64-5.64h-1.78v11.28h1.78zM158.15 25.39h4.08v19.44h-4.08V25.39zM170.46 29.47h-4.75v-4.08h13.56v4.08h-4.73v15.36h-4.08V29.47zM202.65 42.58l-.34.34c-1.22 1.27-2.81 1.92-4.56 1.92-3.6 0-6.46-2.88-6.46-6.55 0-1.8.65-3.38 1.9-4.66l.43-.46c-.5-.82-.74-1.73-.74-2.69 0-2.76 2.14-4.92 4.87-4.92 2.64 0 4.78 2.14 4.78 4.73 0 1.3-.55 2.57-1.51 3.41l-2.57-2.52c.24-.22.38-.55.38-.89 0-.65-.46-1.03-1.13-1.03s-1.13.48-1.13 1.27c0 .31.14.65.34.84l5.74 5.83 2.57-2.59 2.64 2.66-2.57 2.59 2.52 2.57-2.64 2.66-2.52-2.51zm-2.95-2.4c.1-.1.22-.19.31-.31l-3.84-3.91c-.77.82-1.15 1.34-1.15 2.33 0 1.56 1.2 2.76 2.74 2.76.76-.01 1.36-.3 1.94-.87zM233.75 45.31l-3.48-7.83-3.5 7.83-9.14-19.92h4.51l4.75 11.28 1.46-3.46-3.5-7.82h4.03l1.39 3.29 1.37-3.29h4.03l-3.5 7.82 1.46 3.46 4.75-11.28h4.51l-9.14 19.92zM256 38.18v.02l-.05 1.13h-9.41c.36 1.39 1.42 2.26 2.83 2.26 1.03 0 1.92-.43 2.5-1.22l3.65.94c-1.01 2.35-3.34 3.77-6.12 3.77-3.98 0-6.96-2.9-6.96-6.77 0-3.84 2.98-6.77 6.87-6.77 3.83-.01 6.64 2.78 6.69 6.64zm-9.29-1.49h5.06c-.43-1.13-1.27-1.73-2.45-1.73-1.24.01-2.15.63-2.61 1.73zM263.66 43.9l-.05.94h-3.84V25.39h4.08v7.15c.94-.67 2.11-1.06 3.38-1.06 3.62 0 6.53 3.02 6.53 6.79 0 3.79-2.88 6.79-6.53 6.79-1.37.01-2.61-.42-3.57-1.16zm6.02-5.62c0-1.73-1.3-3.05-2.98-3.05s-2.98 1.34-2.98 3.05c0 1.73 1.32 3.07 2.98 3.07 1.68 0 2.98-1.34 2.98-3.07zM281.41 43.9l-.05.94h-3.84V25.39h4.08v7.15c.94-.67 2.11-1.06 3.38-1.06 3.62 0 6.53 3.02 6.53 6.79 0 3.79-2.88 6.79-6.53 6.79-1.36.01-2.6-.42-3.57-1.16zm6.03-5.62c0-1.73-1.3-3.05-2.98-3.05s-2.98 1.34-2.98 3.05c0 1.73 1.32 3.07 2.98 3.07 1.68 0 2.98-1.34 2.98-3.07z"/><g><path d="M75.07 16.51c0-2.07 1.67-3.74 3.76-3.74 1.03 0 1.97.41 2.72 1.19l-1.09 1.09c-.44-.48-.99-.73-1.63-.73-1.24 0-2.21.96-2.21 2.19 0 1.22.97 2.19 2.21 2.19.45 0 .86-.13 1.22-.37v-1.05h-1.4v-1.53h2.85v3.46c-.77.67-1.67 1.04-2.66 1.04-2.1-.01-3.77-1.67-3.77-3.74zM82.9 17.7c0-1.43 1.13-2.54 2.58-2.54 1.44 0 2.57 1.12 2.57 2.54s-1.13 2.54-2.57 2.54c-1.45 0-2.58-1.11-2.58-2.54zm3.66 0c0-.6-.48-1.09-1.08-1.09-.62 0-1.11.48-1.11 1.09 0 .61.49 1.1 1.11 1.1.61 0 1.08-.49 1.08-1.1zM93.18 16.56h-.77v-1.31h.77v-.71c0-1.07.68-1.77 1.74-1.77.45 0 .79.09.9.25v1.36a.763.763 0 0 0-.6-.31c-.27 0-.51.16-.51.6v.58h1.13v1.31H94.7v3.59h-1.52v-3.59zM96.6 17.7c0-1.43 1.13-2.54 2.58-2.54 1.44 0 2.57 1.12 2.57 2.54s-1.13 2.54-2.57 2.54c-1.45 0-2.58-1.11-2.58-2.54zm3.66 0c0-.6-.48-1.09-1.08-1.09-.62 0-1.11.48-1.11 1.09 0 .61.49 1.1 1.11 1.1.6 0 1.08-.49 1.08-1.1zM104.69 17.96v2.19h-1.52v-4.9h1.52v.66c.17-.53.63-.75 1.04-.75.05 0 .12 0 .17.01v1.49c-.67-.15-1.21.18-1.21 1.3zM111.17 16.56h-.89v-1.31h.89v-1.63h1.53v1.63h.88v1.31h-.88v3.59h-1.53v-3.59zM114.87 12.86h1.52v2.61c.3-.2.65-.31 1.01-.31 1.04 0 1.84.82 1.84 1.87v3.12h-1.53v-2.99c0-.34-.26-.59-.62-.59-.4 0-.68.26-.69.6v2.98h-1.52v-7.29zM125.61 17.66l-.02.43h-3.53c.14.52.53.85 1.06.85.39 0 .72-.16.94-.46l1.37.35c-.38.88-1.25 1.41-2.3 1.41-1.49 0-2.61-1.09-2.61-2.54 0-1.44 1.12-2.54 2.57-2.54 1.45 0 2.51 1.05 2.52 2.5zm-3.48-.56h1.9c-.16-.42-.48-.65-.92-.65-.47 0-.81.24-.98.65zM130.92 16.56h-.89v-1.31h.89v-1.63h1.53v1.63h.88v1.31h-.88v3.59h-1.53v-3.59zM134.15 17.7c0-1.43 1.13-2.54 2.58-2.54 1.44 0 2.57 1.12 2.57 2.54s-1.13 2.54-2.57 2.54-2.58-1.11-2.58-2.54zm3.67 0c0-.6-.48-1.09-1.08-1.09-.62 0-1.11.48-1.11 1.09 0 .61.49 1.1 1.11 1.1.6 0 1.08-.49 1.08-1.1zM140.72 15.25h1.53v.29c.36-.25.79-.38 1.26-.38 1.33 0 2.41 1.13 2.41 2.54 0 1.4-1.08 2.54-2.41 2.54-.47 0-.9-.13-1.26-.38v2.36h-1.53v-6.97zm3.69 2.45a1.116 1.116 0 1 0-2.23 0 1.116 1.116 0 0 0 2.23 0z"/></g></svg>