<svg width="32" height="40" viewBox="0 0 32 40" fill="none" xmlns="http://www.w3.org/2000/svg">
<path d="M26.1027 24.1586V8.1265C26.1027 7.37298 25.5003 6.75994 24.7599 6.75994H5.20596C4.46551 6.75994 3.86309 7.37298 3.86309 8.1265V24.1585C3.86309 24.912 4.46551 25.5251 5.20596 25.5251H24.7599C25.5003 25.5251 26.1027 24.9121 26.1027 24.1586ZM5.01411 24.1586V17.8994L8.06159 14.7981C8.11042 14.7483 8.16753 14.7409 8.19724 14.7409C8.22695 14.7409 8.28392 14.7483 8.3329 14.7981L8.98867 15.4654C9.2133 15.6942 9.57773 15.6941 9.80259 15.4654C10.0273 15.2367 10.0273 14.8659 9.80251 14.6371L9.14682 13.9699C8.89324 13.7117 8.55599 13.5696 8.19732 13.5696C7.83857 13.5696 7.5014 13.7117 7.24775 13.9698L5.01426 16.2428V8.1265C5.01426 8.01884 5.10032 7.93127 5.20611 7.93127H24.76C24.8658 7.93127 24.9519 8.01884 24.9519 8.1265V24.1585C24.9519 24.2661 24.8658 24.3537 24.76 24.3537H24.1986L17.0281 17.0567C16.5045 16.524 15.6527 16.524 15.129 17.0568L13.6548 18.5571L11.6366 16.5032C11.4119 16.2745 11.0475 16.2745 10.8226 16.5032C10.5979 16.7319 10.5979 17.1028 10.8226 17.3315L12.9765 19.5235C13.1577 19.7078 13.3986 19.8093 13.6548 19.8093C13.911 19.8093 14.1519 19.7078 14.333 19.5234L15.943 17.885C16.0178 17.8089 16.1395 17.8089 16.2143 17.885L22.5707 24.3537H5.20596C5.10017 24.3537 5.01411 24.2661 5.01411 24.1586Z" fill="#ED8936"/>
<path d="M29.9658 28.6252V21.1247C29.9658 20.8012 29.7082 20.5389 29.3903 20.5389C29.0724 20.5389 28.8147 20.8011 28.8147 21.1247V27.7421C27.8505 27.161 26.7268 26.826 25.5272 26.826C22.2323 26.826 19.5065 29.3448 19.1068 32.5894H1.72657C1.4092 32.5894 1.15102 32.3266 1.15102 32.0037V1.75703C1.15102 1.43407 1.4092 1.17133 1.72657 1.17133H28.2392C28.5565 1.17133 28.8147 1.43407 28.8147 1.75703V18.2069C28.8147 18.5303 29.0724 18.7926 29.3903 18.7926C29.7082 18.7926 29.9658 18.5304 29.9658 18.2069V1.75703C29.9658 0.788205 29.1913 0 28.2392 0H1.72657C0.774537 0 0 0.788205 0 1.75703V32.0037C0 32.9725 0.774537 33.7607 1.72657 33.7607H19.0643C19.1261 34.9686 19.5081 36.1259 20.1804 37.1266C20.3598 37.3937 20.718 37.462 20.9803 37.2796C21.2427 37.097 21.31 36.7326 21.1306 36.4655C20.5254 35.5646 20.2054 34.5091 20.2054 33.413C20.2054 30.4268 22.5928 27.9974 25.5272 27.9974C28.4616 27.9974 30.8489 30.4269 30.8489 33.413C30.8489 36.3992 28.4616 38.8288 25.5272 38.8288C24.6524 38.8288 23.7853 38.6083 23.0195 38.1912C22.7393 38.0386 22.3905 38.146 22.2406 38.4311C22.0905 38.7162 22.1961 39.0712 22.4764 39.2238C23.4085 39.7316 24.4635 40 25.5272 40C29.0963 40 32 37.0451 32 33.413C32 31.5282 31.2169 29.827 29.9658 28.6252Z" fill="#ED8936"/>
<path d="M25.5273 30.3992C25.2093 30.3992 24.9517 30.6614 24.9517 30.9849V32.8442H23.1246C22.8067 32.8442 22.5491 33.1064 22.5491 33.4299C22.5491 33.7534 22.8067 34.0156 23.1246 34.0156H24.9517V35.8749C24.9517 36.1984 25.2093 36.4606 25.5273 36.4606C25.8452 36.4606 26.1028 36.1984 26.1028 35.8749V34.0156H27.9299C28.2478 34.0156 28.5054 33.7534 28.5054 33.4299C28.5054 33.1064 28.2478 32.8442 27.9299 32.8442H26.1028V30.9849C26.1027 30.6615 25.8451 30.3992 25.5273 30.3992Z" fill="#ED8936"/>
<path d="M6.04741 28.3514C6.09149 27.9005 5.76809 27.4987 5.32509 27.4539C4.88208 27.409 4.48722 27.7381 4.44314 28.1889C4.39906 28.6398 4.72246 29.0416 5.16546 29.0864C5.60847 29.1313 6.00333 28.8022 6.04741 28.3514Z" fill="#ED8936"/>
<path d="M8.89757 28.3517C8.94165 27.9008 8.61826 27.499 8.17525 27.4541C7.73224 27.4093 7.33738 27.7384 7.2933 28.1892C7.24922 28.64 7.57262 29.0419 8.01563 29.0867C8.45864 29.1316 8.8535 28.8025 8.89757 28.3517Z" fill="#ED8936"/>
<path d="M11.7477 28.3521C11.7917 27.9013 11.4683 27.4994 11.0253 27.4546C10.5823 27.4097 10.1875 27.7388 10.1434 28.1896C10.0993 28.6405 10.4227 29.0423 10.8657 29.0872C11.3087 29.132 11.7036 28.8029 11.7477 28.3521Z" fill="#ED8936"/>
<path d="M17.1965 4.86837C17.5144 4.86837 17.7721 4.60618 17.7721 4.28266C17.7721 3.95915 17.5144 3.69696 17.1965 3.69696H14.7028C14.3849 3.69696 14.1272 3.95915 14.1272 4.28266C14.1272 4.60618 14.3849 4.86837 14.7028 4.86837H17.1965Z" fill="#ED8936"/>
<path d="M11.7486 4.86837C12.0666 4.86837 12.3242 4.60618 12.3242 4.28266C12.3242 3.95915 12.0666 3.69696 11.7486 3.69696H4.93788C4.61997 3.69696 4.36233 3.95915 4.36233 4.28266C4.36233 4.60618 4.61997 4.86837 4.93788 4.86837H11.7486Z" fill="#ED8936"/>
<path d="M19.8583 14.975C20.9823 14.975 21.8967 14.0445 21.8967 12.9007C21.8967 11.7568 20.9823 10.8263 19.8583 10.8263C18.7343 10.8263 17.8199 11.7568 17.8199 12.9007C17.8199 14.0445 18.7343 14.975 19.8583 14.975ZM19.8583 11.9977C20.3475 11.9977 20.7456 12.4028 20.7456 12.9007C20.7456 13.3985 20.3475 13.8036 19.8583 13.8036C19.369 13.8036 18.971 13.3985 18.971 12.9007C18.9709 12.4028 19.369 11.9977 19.8583 11.9977Z" fill="#ED8936"/>
</svg>
