<svg width="26" height="35" viewBox="0 0 26 35" fill="none" xmlns="http://www.w3.org/2000/svg">
<path d="M25.8904 13.7498C25.7698 13.5329 25.5411 13.3985 25.293 13.3985H13.6719V1.09377C13.6719 0.788408 13.4694 0.520097 13.1758 0.436357C12.8821 0.352617 12.5685 0.473818 12.4075 0.733242L0.102777 20.5575C-0.0280627 20.7683 -0.0344199 21.0334 0.0862344 21.2503C0.20682 21.4671 0.435482 21.6016 0.683627 21.6016H12.3047V33.9063C12.3047 34.2116 12.5072 34.4799 12.8009 34.5637C13.0945 34.6474 13.408 34.5263 13.5691 34.2667L25.8738 14.4425C26.0046 14.2317 26.011 13.9666 25.8904 13.7498ZM13.6719 31.5087V20.918C13.6719 20.5405 13.3658 20.2344 12.9883 20.2344H1.91252L12.3047 3.49134V14.0821C12.3047 14.4596 12.6108 14.7656 12.9883 14.7656H24.0641L13.6719 31.5087Z" fill="#333333"/>
</svg>
