<svg width="36" height="41" viewBox="0 0 36 41" fill="none" xmlns="http://www.w3.org/2000/svg">
<path d="M1.65306 38.3426C2.7046 39.3081 4.10809 39.8556 5.60461 39.8843C9.7171 39.9634 13.8584 40.0029 17.9997 40.0029C22.1411 40.0029 26.2823 39.9634 30.3947 39.8843C31.8915 39.8556 33.2951 39.3081 34.3468 38.3426C35.413 37.364 36 36.0669 36 34.6901V29.4498C36 29.1945 35.7949 28.9876 35.5417 28.9876C35.2886 28.9876 35.0835 29.1945 35.0835 29.4498V34.6901C35.0835 36.9948 32.9722 38.9103 30.3772 38.9601C22.1644 39.118 13.8355 39.118 5.62211 38.9601C3.0274 38.9103 0.916535 36.9948 0.916535 34.6901V23.1114C0.916535 20.8073 3.0274 18.8924 5.6222 18.8426C13.8355 18.6847 22.1644 18.6847 30.3772 18.8426C31.8789 18.8714 33.2527 19.5049 34.1465 20.5807C34.7595 21.3183 35.0835 22.1934 35.0835 23.1113C35.0835 23.3665 35.2886 23.5735 35.5417 23.5735C35.7949 23.5735 36 23.3665 36 23.1113C36 21.9736 35.602 20.8931 34.8489 19.9869C33.7848 18.7063 32.1613 17.9523 30.3947 17.9184C22.1702 17.7602 13.8296 17.7602 5.6047 17.9184C4.10818 17.9471 2.70478 18.4946 1.65306 19.4599C0.58704 20.4383 0 21.7352 0 23.1114V34.6901C0 36.0668 0.58704 37.364 1.65306 38.3426Z" fill="#ED8936"/>
<path d="M6.27349 37.0198H8.57161C8.82476 37.0198 9.02988 36.8128 9.02988 36.5576V23.9144H10.9549C11.208 23.9144 11.4131 23.7075 11.4131 23.4522V21.2654C11.4131 21.0101 11.208 20.8032 10.9549 20.8032H3.89509C3.64194 20.8032 3.43682 21.0101 3.43682 21.2654V23.457C3.43682 23.7123 3.64194 23.9192 3.89509 23.9192H5.81523V36.5576C5.81523 36.8128 6.02035 37.0198 6.27349 37.0198ZM4.35335 22.9948V21.7276H10.4966V22.99H8.57161C8.31846 22.99 8.11334 23.197 8.11334 23.4522V36.0954H6.73176V23.457C6.73176 23.2018 6.52664 22.9948 6.27349 22.9948H4.35335Z" fill="#ED8936"/>
<path d="M14.7597 37.0208H16.7939C17.0471 37.0208 17.2522 36.8139 17.2522 36.5586V25.2636C17.2522 25.1408 17.2037 25.0231 17.1176 24.9364C17.0317 24.85 16.9153 24.8014 16.7939 24.8014L14.7573 24.8063C14.5046 24.8069 14.3001 25.0137 14.3001 25.2685V32.9886C14.0717 33.2685 13.841 33.4452 13.5794 33.5414C13.5087 33.5842 13.473 33.5643 13.4721 33.4817C13.4521 33.3824 13.4504 33.2649 13.4504 33.1214C13.4495 31.0174 13.4424 25.3564 13.4369 25.2556C13.4237 25.0105 13.2227 24.8186 12.9794 24.8186H10.9501C10.697 24.8186 10.4918 25.0256 10.4918 25.2808V25.375C10.4913 27.2509 10.4899 33.4729 10.4941 34.78C10.4951 35.1285 10.5224 35.6499 10.7444 36.1501C10.9924 36.7123 11.43 37.0607 12.0075 37.1574C12.1345 37.1795 12.2626 37.1905 12.3913 37.1905C12.6549 37.1905 12.9215 37.1443 13.188 37.052C13.5828 36.9146 13.9474 36.7088 14.3014 36.4202V36.5586C14.3014 36.8139 14.5065 37.0208 14.7597 37.0208ZM14.2632 35.1753C13.8096 35.6912 13.3729 36.0099 12.8898 36.1781C12.6376 36.2652 12.3999 36.2876 12.1603 36.246C11.8836 36.1996 11.7052 36.0543 11.5813 35.7735C11.4646 35.5105 11.412 35.2032 11.4106 34.7772C11.4066 33.5472 11.4076 27.955 11.4082 25.7432L12.5233 25.7431C12.5272 27.0287 12.5327 30.7637 12.5338 33.1218C12.5338 33.268 12.5338 33.4683 12.574 33.6666C12.6372 33.9805 12.8065 34.2292 13.0505 34.367C13.2951 34.5049 13.5945 34.5201 13.8934 34.41C14.3401 34.2457 14.7287 33.9424 15.0767 33.4891C15.2165 33.3132 15.2165 33.1043 15.2165 32.9922V25.7298L16.3355 25.7271V36.0966H15.2178V35.3155C15.2178 35.1259 15.1029 34.9555 14.9281 34.8857C14.7535 34.816 14.5541 34.861 14.4254 34.9992L14.372 35.0564C14.3249 35.1067 14.2921 35.1419 14.2632 35.1753Z" fill="#ED8936"/>
<path d="M20.8705 20.8019H18.8319C18.5787 20.8019 18.3736 21.0089 18.3736 21.2641V36.5563C18.3736 36.8116 18.5787 37.0185 18.8319 37.0185H20.8705C21.0676 37.0185 21.2356 36.893 21.3003 36.717C21.7443 37.0133 22.2455 37.1654 22.7974 37.1702C22.8083 37.1704 22.8192 37.1704 22.83 37.1704C23.8793 37.1704 24.6383 36.6199 24.969 35.6174C25.0979 35.2251 25.1589 34.8043 25.1605 34.2932C25.163 31.9828 25.1626 29.885 25.1592 27.8806C25.1592 27.1138 25.0425 26.5057 24.7917 25.9665C24.3141 24.9411 23.2783 24.4621 22.1516 24.7462C21.8605 24.8205 21.5856 24.946 21.3288 25.1215V21.2641C21.3288 21.0089 21.1236 20.8019 20.8705 20.8019ZM21.4311 26.255C21.7177 25.9319 22.0269 25.7315 22.375 25.6426C22.9171 25.5059 23.6186 25.6226 23.9618 26.3592C24.1532 26.771 24.2424 27.2544 24.2424 27.8814C24.2458 29.8857 24.2462 31.9827 24.2437 34.2913C24.2424 34.7003 24.1965 35.029 24.0991 35.3256C23.8926 35.952 23.4691 36.2507 22.8063 36.2458C22.2579 36.241 21.7992 36.0286 21.4017 35.5937L21.2044 35.3817C21.116 35.2868 20.9944 35.236 20.8703 35.236C20.8137 35.236 20.7564 35.2465 20.7015 35.2684C20.5268 35.3381 20.412 35.5085 20.412 35.6981V36.094H19.2899V21.7262H20.412V26.2976C20.412 26.512 20.5582 26.6983 20.7653 26.7475C20.9725 26.7965 21.1856 26.6956 21.2804 26.5037C21.3162 26.4314 21.3909 26.3007 21.4311 26.255Z" fill="#ED8936"/>
<path d="M32.285 31.6386C32.5361 31.6386 32.7403 31.4349 32.7433 31.1817C32.7441 31.1011 32.7655 29.1958 32.7492 28.307C32.7418 27.8402 32.7019 27.4388 32.6273 27.0795C32.3773 25.885 31.6903 25.0696 30.6412 24.7218C30.3415 24.6218 30.0045 24.5597 29.6412 24.5372C28.4509 24.46 27.4708 24.8435 26.7324 25.6775C26.1147 26.3735 25.8137 27.2441 25.8121 28.3385L25.8102 29.1002C25.8067 30.4991 25.803 31.9456 25.817 33.3697C25.8225 33.8471 25.8765 34.3103 25.9777 34.7469C26.232 35.8428 26.8374 36.6153 27.7762 37.0424C28.2121 37.2416 28.6785 37.3394 29.209 37.3394C29.4503 37.3394 29.7047 37.3191 29.9755 37.2792C31.2419 37.0916 32.0899 36.3891 32.4957 35.191C32.779 34.3567 32.758 32.7233 32.7547 32.5398C32.7502 32.2879 32.5464 32.086 32.2966 32.086H30.1995C29.9464 32.086 29.7413 32.2929 29.7413 32.5482V33.9986C29.7413 34.2494 29.5394 34.4535 29.2913 34.4535C29.0426 34.4535 28.8402 34.2494 28.8402 33.9986V31.6386H32.285ZM29.2912 35.3778C30.0446 35.3778 30.6576 34.7591 30.6576 33.9985V33.0103H31.8368C31.8257 33.5961 31.7774 34.453 31.6284 34.8916C31.3345 35.7593 30.7668 36.2275 29.8423 36.3645C29.1572 36.4658 28.6211 36.4138 28.1536 36.2001C27.4784 35.8929 27.0586 35.3486 26.87 34.5363C26.7841 34.1653 26.7381 33.7692 26.7335 33.3598C26.7195 31.9421 26.7231 30.4986 26.7267 29.1026L26.7285 28.3401C26.7298 27.4706 26.9479 26.8204 27.4156 26.2935C27.9159 25.7285 28.5487 25.4518 29.3456 25.4518C29.4234 25.4518 29.5028 25.4544 29.5836 25.4597C29.8696 25.4773 30.1285 25.5243 30.3541 25.5995C31.0965 25.8456 31.5467 26.3921 31.7303 27.2696C31.7927 27.5701 31.8263 27.9143 31.8328 28.3228C31.8441 28.9365 31.8366 30.0785 31.8311 30.7141H28.3818C28.1286 30.7141 27.9235 30.921 27.9235 31.1763V33.9985C27.9235 34.759 28.537 35.3778 29.2912 35.3778Z" fill="#ED8936"/>
<path d="M28.3819 29.8889H30.1994C30.4526 29.8889 30.6577 29.6821 30.6577 29.4267V27.8425C30.6577 27.082 30.0447 26.4632 29.2912 26.4632C28.5371 26.4632 27.9236 27.0819 27.9236 27.8425V29.4267C27.9236 29.682 28.1287 29.8889 28.3819 29.8889ZM28.8401 27.8425C28.8401 27.5917 29.0425 27.3876 29.2912 27.3876C29.5394 27.3876 29.7412 27.5916 29.7412 27.8425V28.9645H28.8401V27.8425Z" fill="#ED8936"/>
<path d="M20.4393 28.1587C20.4221 28.2081 20.4132 28.2602 20.4133 28.3126L20.4183 33.7354C20.4183 33.8343 20.4497 33.9306 20.508 34.0101C20.5768 34.104 20.5884 34.1174 20.5986 34.129C20.6009 34.1318 20.6035 34.1346 20.606 34.1373C20.8957 34.4542 21.2083 34.6443 21.5631 34.7186C21.6711 34.7408 21.7759 34.7516 21.8766 34.7516C22.4509 34.7516 22.8913 34.3999 23.0136 33.8121C23.0453 33.6622 23.0614 33.5148 23.0614 33.3743L23.0628 32.418C23.0646 31.1422 23.0656 30.5019 23.0571 28.8418C23.0555 28.53 22.9614 28.2264 22.8828 28.0266C22.8722 27.9996 22.8593 27.9741 22.8443 27.9502C22.6678 27.5901 22.3323 27.3697 21.89 27.3262C21.4661 27.2842 21.0791 27.4248 20.7098 27.7538C20.5367 27.906 20.459 28.1022 20.4393 28.1587ZM21.8011 28.2463C21.9857 28.2645 22.0156 28.3397 22.0317 28.3801C22.0381 28.396 22.0451 28.4113 22.053 28.4261C22.1091 28.5826 22.1401 28.7301 22.1406 28.8466C22.1492 30.5035 22.1482 31.1428 22.1463 32.4166L22.1449 33.3738C22.1449 33.45 22.1356 33.5327 22.117 33.6208C22.0932 33.7355 22.0635 33.8784 21.7481 33.8132C21.6052 33.7833 21.4725 33.7049 21.3348 33.5682L21.33 28.4349C21.5444 28.2492 21.6884 28.2353 21.8011 28.2463Z" fill="#ED8936"/>
<path d="M23.12 16.5315C23.2824 16.5315 23.4531 16.5143 23.6305 16.4795C24.1408 16.3788 24.6104 16.1474 25.0616 15.7739L25.0613 15.9138C25.0611 16.0365 25.1093 16.1543 25.1953 16.2412C25.2812 16.3281 25.3979 16.3769 25.5196 16.3769H27.6165C27.8696 16.3769 28.0747 16.1699 28.0747 15.9147L28.0754 4.50172C28.0754 4.37915 28.0271 4.26156 27.9411 4.17485C27.8552 4.08824 27.7386 4.03952 27.6171 4.03952H25.5207C25.2676 4.03952 25.0624 4.24649 25.0624 4.50172L25.0625 12.3062C25.0263 12.3493 24.3096 13.048 24.2662 12.8007C24.2514 12.7186 24.244 12.63 24.244 12.5376V4.50172C24.244 4.24649 24.0389 4.03952 23.7857 4.03952H21.7047C21.4516 4.03952 21.2465 4.24649 21.2465 4.50172V14.2636C21.249 14.5807 21.303 14.9208 21.4025 15.2473C21.6547 16.0741 22.2801 16.5315 23.12 16.5315ZM22.1629 4.96411H23.3272V12.5377C23.3272 12.6851 23.3395 12.8288 23.3637 12.9636C23.4187 13.2771 23.5803 13.5275 23.8189 13.6687C24.0538 13.8079 24.343 13.8286 24.6329 13.7274C25.0811 13.5714 25.4786 13.2671 25.8476 12.7981C25.9831 12.6268 25.9804 12.428 25.9791 12.3212L25.9788 4.96402H27.1587L27.158 15.4526H25.9786L25.9801 14.6893C25.9804 14.5027 25.8695 14.3342 25.699 14.2621C25.5285 14.19 25.3316 14.2284 25.1999 14.3595C25.1262 14.433 25.0557 14.505 24.9869 14.5752C24.8445 14.7208 24.7099 14.8584 24.5719 14.9807C24.2103 15.3018 23.8449 15.4954 23.4548 15.5723C22.517 15.7569 22.3376 15.1688 22.2786 14.9756C22.2048 14.7336 22.1648 14.4847 22.1629 14.2598V4.96411Z" fill="#ED8936"/>
<path d="M8.69397 9.46558C8.70955 9.51707 8.71771 9.5778 8.71771 9.64122L8.71642 15.9121C8.71642 16.0347 8.76473 16.1523 8.8506 16.239C8.93648 16.3257 9.05316 16.3744 9.17469 16.3744H11.3751C11.4966 16.3744 11.6131 16.3257 11.6992 16.2391C11.7852 16.1523 11.8334 16.0348 11.8334 15.9122L11.8323 9.6414C11.8323 9.57873 11.8407 9.51726 11.8561 9.46521C12.6758 6.73074 14.5091 0.598615 14.5091 0.598615C14.551 0.45866 14.5247 0.306966 14.4383 0.189567C14.3517 0.0722602 14.2154 0.00302262 14.0704 0.00302262H11.6843C11.4717 0.00302262 11.287 0.150557 11.2383 0.359287C11.2383 0.359287 10.7273 2.54753 10.275 4.47954C9.82259 2.54753 9.31162 0.359195 9.31162 0.359195C9.26286 0.150465 9.07809 0.00292969 8.86554 0.00292969H6.47953C6.33453 0.00292969 6.19806 0.0721675 6.11163 0.189474C6.02521 0.306781 5.9989 0.458568 6.04079 0.598523C6.04079 0.598523 7.87395 6.73073 8.69397 9.46558ZM8.50269 0.92724C8.74475 1.9634 9.45487 5.00247 9.82845 6.5918C9.8774 6.80025 10.0633 6.94742 10.2756 6.94742C10.488 6.94742 10.6726 6.80025 10.7215 6.5918C11.0951 5.00238 11.8051 1.96331 12.0472 0.92724H13.4535C12.9734 2.53321 11.6431 6.98153 10.9783 9.19898C10.9374 9.33718 10.9157 9.49017 10.9157 9.6414L10.9167 15.45H9.63305L9.63424 9.64122C9.63424 9.48583 9.61298 9.33644 9.57119 9.1975C8.90661 6.98125 7.57644 2.53321 7.09636 0.92724H8.50269Z" fill="#ED8936"/>
<path d="M16.9424 14.6257C17.6728 14.6257 18.267 14.0266 18.267 13.2902V7.12434C18.267 6.38768 17.6728 5.78839 16.9424 5.78839C16.212 5.78839 15.6179 6.38768 15.6179 7.12434V13.2902C15.6179 14.0266 16.212 14.6257 16.9424 14.6257ZM16.5345 7.12434C16.5345 6.8974 16.7175 6.7128 16.9424 6.7128C17.1674 6.7128 17.3505 6.8974 17.3505 7.12434V13.2902C17.3505 13.5169 17.1674 13.7013 16.9424 13.7013C16.7175 13.7013 16.5345 13.5169 16.5345 13.2902V7.12434Z" fill="#ED8936"/>
<path d="M13.4817 7.24403V13.1703C13.4817 15.0946 15.0339 16.6603 16.9418 16.6603C18.85 16.6603 20.4025 15.0947 20.4025 13.1703V7.24403C20.4025 5.31933 18.85 3.75358 16.9418 3.75358C15.0339 3.75358 13.4817 5.31942 13.4817 7.24403ZM16.9418 4.67807C18.3447 4.67807 19.486 5.82914 19.486 7.24412V13.1704C19.486 14.5851 18.3447 15.736 16.9418 15.736C15.5392 15.736 14.3982 14.5851 14.3982 13.1704V7.24412C14.3982 5.82923 15.5392 4.67807 16.9418 4.67807Z" fill="#ED8936"/>
<path d="M35.5416 24.8277C35.2885 24.8277 35.0834 25.0346 35.0834 25.2899V27.3236C35.0834 27.5788 35.2885 27.7858 35.5416 27.7858C35.7947 27.7858 35.9999 27.5789 35.9999 27.3236V25.2899C35.9999 25.0346 35.7948 24.8277 35.5416 24.8277Z" fill="#ED8936"/>
</svg>
