<svg width="40" height="41" viewBox="0 0 40 41" fill="none" xmlns="http://www.w3.org/2000/svg">
<path d="M39.3333 18.5973H35.3333C35.1565 18.5973 34.987 18.6672 34.8619 18.7917C34.7369 18.9162 34.6667 19.0851 34.6667 19.2612V23.2449H31.94C32.9791 20.8756 33.4493 18.2976 33.3133 15.7157C33.0561 11.6771 31.3426 7.86691 28.4885 4.98656C25.6343 2.10622 21.8315 0.349579 17.78 0.0400059C15.5023 -0.111863 13.2175 0.203888 11.0674 0.967682C8.91727 1.73148 6.94761 2.92703 5.28056 4.4802C3.6135 6.03337 2.2846 7.91106 1.37625 9.99682C0.4679 12.0826 -0.000532847 14.3319 4.54854e-07 16.6054C0.0179519 20.1407 1.16166 23.5791 3.26653 26.4258C5.3714 29.2726 8.32888 31.3808 11.7133 32.4472L11.52 32.8389L8.85333 32.0621C8.7693 32.0367 8.68103 32.0284 8.59371 32.0374C8.50638 32.0465 8.42175 32.0728 8.34476 32.1149C8.26778 32.1569 8.19999 32.2138 8.14537 32.2823C8.09075 32.3507 8.0504 32.4294 8.02667 32.5136L7.28 35.0631C7.23384 35.232 7.25286 35.4121 7.33333 35.5677C7.41997 35.7217 7.56345 35.836 7.73333 35.8864L21.8133 39.9763C21.8738 39.9949 21.9368 40.0039 22 40.0029C22.1442 40.0029 22.2846 39.9563 22.4 39.8701C22.5154 39.7839 22.5996 39.6627 22.64 39.5248L23.3867 36.9753C23.4328 36.8063 23.4138 36.6263 23.3333 36.4707C23.2467 36.3167 23.1032 36.2023 22.9333 36.152L22.1667 35.9262L23.2067 33.9543C27 34.3394 31.42 34.7975 34.6667 35.1295V36.5238C34.6667 36.6999 34.7369 36.8687 34.8619 36.9933C34.987 37.1178 35.1565 37.1877 35.3333 37.1877H39.3333C39.5101 37.1877 39.6797 37.1178 39.8047 36.9933C39.9298 36.8687 40 36.6999 40 36.5238V19.2612C40 19.0851 39.9298 18.9162 39.8047 18.7917C39.6797 18.6672 39.5101 18.5973 39.3333 18.5973ZM21.5467 38.5156L8.74667 34.7975L9.12 33.5228L21.92 37.2408L21.5467 38.5156ZM12.82 33.2173L13.0267 32.799C13.7779 32.9669 14.5396 33.0844 15.3067 33.1509C15.4667 33.1642 18.2067 33.4431 21.7733 33.8082L20.86 35.5478L12.82 33.2173ZM32 33.5228C26.3667 32.9451 15.7333 31.8496 15.4133 31.8231C12.4549 31.5811 9.63049 30.4891 7.28305 28.6796C4.93561 26.8701 3.16603 24.4209 2.18908 21.6293C1.21214 18.8377 1.06983 15.8236 1.77945 12.953C2.48906 10.0824 4.02007 7.47868 6.18667 5.4578C9.01616 2.79848 12.7628 1.32256 16.6533 1.3347C17 1.3347 17.3467 1.34798 17.6933 1.3679C20.1969 1.53425 22.6212 2.31014 24.7534 3.62745C26.8856 4.94476 28.6606 6.76321 29.9224 8.92317C31.1841 11.0831 31.8942 13.5185 31.9903 16.0156C32.0864 18.5127 31.5655 20.9951 30.4733 23.2449H29.3333V24.5728H32V33.5228ZM34.6667 33.795C34.32 33.7618 33.8667 33.7153 33.3333 33.6555V24.5728H34.6667V33.795ZM38.6667 35.8598H36V19.9252H38.6667V35.8598Z" fill="#ED8936"/>
<path d="M16.6667 5.47772C14.557 5.47772 12.4947 6.10075 10.7406 7.26803C8.98646 8.43532 7.61929 10.0944 6.81195 12.0355C6.00462 13.9767 5.79338 16.1126 6.20496 18.1733C6.61653 20.234 7.63244 22.1268 9.1242 23.6125C10.616 25.0982 12.5166 26.1099 14.5857 26.5198C16.6548 26.9297 18.7995 26.7194 20.7486 25.9153C22.6977 25.1113 24.3636 23.7497 25.5357 22.0027C26.7077 20.2558 27.3333 18.2019 27.3333 16.1008C27.3296 13.2845 26.2046 10.5847 24.205 8.59323C22.2055 6.60181 19.4945 5.4814 16.6667 5.47772ZM25.3667 12.7612C25.7351 13.712 25.9423 14.7172 25.98 15.7357C25.188 16.2982 24.2661 16.6522 23.3 16.7648C22.1507 16.8178 21.0083 16.5609 19.9933 16.0212C19.987 15.9054 19.9736 15.7901 19.9533 15.6759C21.0087 15.588 22.0343 15.2836 22.9659 14.782C23.8975 14.2804 24.7148 13.5924 25.3667 12.7612ZM22.52 8.87047C23.3951 9.57649 24.1357 10.4333 24.7067 11.4001C24.2033 12.1901 23.5348 12.8627 22.7467 13.372C21.7745 13.9905 20.653 14.3368 19.5 14.3746C19.44 14.2816 19.3733 14.182 19.3067 14.0957C20.3302 13.3772 21.1667 12.4258 21.7467 11.3204C22.1424 10.5535 22.4039 9.72496 22.52 8.87047ZM21.2667 8.02062C21.229 9.06367 20.9344 10.0815 20.409 10.9845C19.8835 11.8876 19.1433 12.6482 18.2533 13.1994C18.1547 13.1398 18.0522 13.0865 17.9467 13.04C18.4743 11.9111 18.7213 10.6722 18.6667 9.42819C18.5999 8.5345 18.3309 7.66744 17.88 6.89192C19.0713 7.04755 20.2213 7.4308 21.2667 8.02062ZM18.6667 16.1008C18.6667 16.4948 18.5494 16.8799 18.3296 17.2074C18.1098 17.535 17.7975 17.7903 17.432 17.941C17.0666 18.0918 16.6644 18.1313 16.2765 18.0544C15.8885 17.9775 15.5322 17.7878 15.2525 17.5093C14.9727 17.2307 14.7823 16.8758 14.7051 16.4894C14.6279 16.103 14.6675 15.7026 14.8189 15.3386C14.9703 14.9746 15.2266 14.6635 15.5555 14.4447C15.8844 14.2258 16.2711 14.109 16.6667 14.109C17.1966 14.1106 17.7044 14.3209 18.0791 14.6941C18.4539 15.0673 18.6651 15.5731 18.6667 16.1008ZM16.3 6.82552C16.8648 7.61425 17.2203 8.53238 17.3333 9.49458C17.3825 10.6389 17.1248 11.7755 16.5867 12.7877C16.4667 12.7944 16.3533 12.8077 16.24 12.8209C16.1506 11.7711 15.8445 10.751 15.3409 9.82447C14.8373 8.89792 14.147 8.08491 13.3133 7.43635C14.2683 7.07009 15.2774 6.8637 16.3 6.82552ZM11.9467 8.09366C12.7399 8.59498 13.4153 9.26078 13.9267 10.0457C14.546 11.0146 14.8936 12.1311 14.9333 13.2791C14.8364 13.3378 14.7429 13.4021 14.6533 13.4716C13.9319 12.4523 12.9765 11.6192 11.8667 11.0416C11.0959 10.6505 10.2641 10.3923 9.40667 10.278C10.112 9.40124 10.9729 8.66084 11.9467 8.09366ZM8.55333 11.5196C9.60065 11.5572 10.6226 11.8505 11.5294 12.3738C12.4361 12.8971 13.1999 13.6344 13.7533 14.5206C13.6934 14.6189 13.64 14.7209 13.5933 14.8261C12.4598 14.3006 11.2158 14.0546 9.96667 14.109C9.06932 14.1755 8.1987 14.4434 7.42 14.8925C7.57627 13.706 7.96109 12.5608 8.55333 11.5196ZM7.96667 19.4405C7.59891 18.4895 7.39167 17.4844 7.35333 16.466C8.1453 15.9035 9.06719 15.5495 10.0333 15.4369C11.1824 15.3871 12.3239 15.6438 13.34 16.1805C13.3467 16.2985 13.3601 16.4159 13.38 16.5324C12.3247 16.6176 11.2987 16.92 10.3669 17.4206C9.43504 17.9212 8.61772 18.609 7.96667 19.4405ZM10.8133 23.3312C9.93824 22.6252 9.19759 21.7684 8.62667 20.8016C9.13004 20.0116 9.79857 19.339 10.5867 18.8296C11.5592 18.212 12.6805 17.8657 13.8333 17.8271C13.8933 17.92 13.96 18.013 14.0267 18.1059C13.0015 18.8227 12.1647 19.7746 11.5867 20.8812C11.191 21.6482 10.9294 22.4767 10.8133 23.3312ZM12.0667 24.181C12.1044 23.138 12.3989 22.1202 12.9244 21.2171C13.4498 20.3141 14.1901 19.5535 15.08 19.0023C15.1787 19.0619 15.2811 19.1151 15.3867 19.1616C14.859 20.2906 14.6121 21.5294 14.6667 22.7735C14.7335 23.6672 15.0024 24.5342 15.4533 25.3097C14.262 25.1541 13.1121 24.7709 12.0667 24.181ZM17.0333 25.3761C16.4685 24.5874 16.1131 23.6693 16 22.7071C15.9508 21.5628 16.2085 20.4261 16.7467 19.4139C16.8629 19.4076 16.9787 19.3943 17.0933 19.3741C17.1816 20.4251 17.4872 21.4466 17.9909 22.3743C18.4945 23.3021 19.1854 24.1161 20.02 24.7653C19.0651 25.1316 18.0559 25.338 17.0333 25.3761ZM21.3867 24.108C20.5934 23.6067 19.9181 22.9409 19.4067 22.156C18.7873 21.187 18.4397 20.0706 18.4 18.9226C18.4986 18.8639 18.5922 18.7972 18.68 18.7234C19.2834 19.5903 20.0604 20.3233 20.9623 20.8764C21.8641 21.4294 22.8712 21.7905 23.92 21.9369C23.213 22.806 22.3549 23.5414 21.3867 24.108ZM24.78 20.6821C23.7327 20.6445 22.7107 20.3512 21.8039 19.8278C20.8972 19.3045 20.1335 18.5673 19.58 17.681C19.6399 17.5828 19.6933 17.4807 19.74 17.3756C20.763 17.8507 21.8779 18.0977 23.0067 18.0993C23.1267 18.0993 23.2467 18.0993 23.3667 18.0927C24.264 18.0261 25.1346 17.7583 25.9133 17.3092C25.7571 18.4957 25.3722 19.6409 24.78 20.6821Z" fill="#ED8936"/>
</svg>
