<svg width="33" height="41" viewBox="0 0 33 41" fill="none" xmlns="http://www.w3.org/2000/svg">
<path d="M30.9192 24.9248L29.6658 22.3766C29.9317 21.8282 30.1594 21.274 30.3466 20.7224L33 19.8231V12.4409L30.3466 11.5415C30.16 10.9899 29.9317 10.4358 29.6658 9.88732L30.9205 7.3366L25.7862 2.11703L23.2772 3.39255C22.7377 3.12226 22.1926 2.89009 21.6501 2.70045L20.7654 0.00292969H13.5039L12.6192 2.70045C12.0766 2.89009 11.5315 3.12226 10.992 3.39255L8.48302 2.11703L3.34877 7.3366L4.60344 9.88732C4.33757 10.4358 4.1092 10.9899 3.92265 11.5415L1.26923 12.4409V19.8224L3.92265 20.7215C4.10796 21.2693 4.33323 21.8184 4.59662 22.3624L3.78042 23.8739H0V36.7771H4.44231V34.8416H9.25646L11.1603 36.7771H14.5962V37.4223C14.5962 38.8455 15.7346 40.0029 17.1346 40.0029C18.5346 40.0029 19.6731 38.8455 19.6731 37.4223V36.7771H24.116C25.1655 36.7771 26.0198 35.9086 26.0198 34.8416C26.0198 34.3442 25.829 33.8947 25.525 33.5513C25.8296 33.2079 26.0198 32.7584 26.0198 32.261C26.0198 31.7636 25.829 31.314 25.525 30.9707C25.7673 30.6972 25.9328 30.3558 25.9907 29.9752L30.9192 24.9248ZM5.87732 22.0764C5.52809 21.3947 5.24332 20.7016 5.03044 20.0177L4.93283 19.7043L2.53846 18.8925V13.3708L4.93283 12.5596L5.02982 12.2456C5.24177 11.5623 5.52685 10.8692 5.87639 10.1875L6.02575 9.89519L4.89286 7.59145L8.73309 3.68741L10.9992 4.83912L11.2867 4.68759C11.9579 4.33194 12.639 4.04243 13.3111 3.82664L13.6201 3.72804L14.4192 1.29325H19.8506L20.6486 3.72741L20.9575 3.82601C21.6296 4.04149 22.3113 4.33131 22.9819 4.68665L23.2694 4.83849L25.5355 3.68678L29.3758 7.59082L28.2429 9.89456L28.3919 10.1869C28.7418 10.8692 29.0265 11.5616 29.2388 12.2449L29.3358 12.559L31.7308 13.3714V18.8931L29.3364 19.7043L29.2388 20.0177C29.0259 20.7016 28.7411 21.3947 28.3919 22.0764L28.2429 22.3687L29.377 24.674L25.6269 28.5157C25.5947 28.4726 25.5603 28.43 25.525 28.39C25.8296 28.0467 26.0198 27.5971 26.0198 27.0997C26.0198 26.0932 25.2576 25.2738 24.2911 25.1822C26.9832 22.9887 28.5577 19.697 28.5577 16.132C28.5577 9.72886 23.433 4.51906 17.1346 4.51906C10.8362 4.51906 5.71154 9.72886 5.71154 16.132C5.71154 19.6539 7.28661 22.967 9.96018 25.1642H4.53186L6.0338 22.3823L5.87732 22.0764ZM24.7506 32.261C24.7506 32.617 24.4655 32.9062 24.116 32.9062H19.0385C18.6889 32.9062 18.4038 32.617 18.4038 32.261C18.4038 31.905 18.6889 31.6158 19.0385 31.6158H24.116C24.4655 31.6158 24.7506 31.905 24.7506 32.261ZM15.6026 16.132H18.6666L19.6731 15.1088V12.261C20.3731 12.261 20.9423 12.8397 20.9423 13.5513V16.51L18.7757 18.7126H15.4935L13.3269 16.51V13.5513C13.3269 12.8397 13.8962 12.261 14.5962 12.261V15.1088L15.6026 16.132ZM15.8654 20.0029H18.4038V22.5836H15.8654V20.0029ZM19.6731 19.6249L22.2115 17.0443V13.5513C22.2115 12.1281 21.0731 10.9707 19.6731 10.9707H18.4038V14.5745L18.1411 14.8416H16.1282L15.8654 14.5745V10.9707H14.5962C13.1962 10.9707 12.0577 12.1281 12.0577 13.5513V17.0443L14.5962 19.6249V22.5836H13.0642L13.0242 22.6242C10.8576 21.2028 9.51923 18.7662 9.51923 16.132C9.51923 11.8628 12.9352 8.39003 17.1346 8.39003C21.334 8.39003 24.75 11.8628 24.75 16.132C24.75 18.7469 23.465 21.1417 21.3142 22.5836H19.6731V19.6249ZM26.0192 16.132C26.0192 11.1512 22.034 7.0997 17.1346 7.0997C12.2352 7.0997 8.25 11.1512 8.25 16.132C8.25 19.1121 9.70825 21.8868 12.1001 23.5636L11.1863 24.4926C8.55088 22.5521 6.98077 19.4463 6.98077 16.132C6.98077 10.4405 11.5362 5.80938 17.1346 5.80938C22.733 5.80938 27.2885 10.4405 27.2885 16.132C27.2885 19.3203 25.8708 22.2623 23.4504 24.2125C23.3779 23.7551 23.1483 23.3551 22.8183 23.0643C24.8408 21.3572 26.0192 18.8437 26.0192 16.132ZM24.116 26.4545C24.4655 26.4545 24.7506 26.7437 24.7506 27.0997C24.7506 27.4557 24.4655 27.7449 24.116 27.7449H19.0385C18.6889 27.7449 18.4038 27.4557 18.4038 27.0997C18.4038 26.7437 18.6889 26.4545 19.0385 26.4545H24.116ZM19.0385 30.3255C18.6889 30.3255 18.4038 30.0363 18.4038 29.6803C18.4038 29.3244 18.6889 29.0352 19.0385 29.0352H24.116C24.4655 29.0352 24.7506 29.3244 24.7506 29.6803C24.7506 30.0363 24.4655 30.3255 24.116 30.3255H19.0385ZM3.17308 35.4868H1.26923V25.1642H3.17308V35.4868ZM11.6858 35.4868L9.782 33.5513H4.44231V26.4545H11.0512L13.5897 23.8739H21.5769C21.9265 23.8739 22.2115 24.1631 22.2115 24.5191C22.2115 24.875 21.9265 25.1642 21.5769 25.1642H14.968L12.2436 27.9339L13.141 28.8462L14.5962 27.3668V35.4868H11.6858ZM17.1346 38.7126C16.4346 38.7126 15.8654 38.1339 15.8654 37.4223V26.4545H17.2514C17.1802 26.6571 17.1346 26.8726 17.1346 27.0997C17.1346 27.5971 17.3255 28.0467 17.6295 28.39C17.3249 28.7334 17.1346 29.1829 17.1346 29.6803C17.1346 30.1778 17.3255 30.6273 17.6295 30.9707C17.3249 31.314 17.1346 31.7636 17.1346 32.261C17.1346 32.7584 17.3255 33.2079 17.6295 33.5513C17.3249 33.8947 17.1346 34.3442 17.1346 34.8416C17.1346 35.6815 17.667 36.3912 18.4038 36.6584V37.4223C18.4038 38.1339 17.8346 38.7126 17.1346 38.7126ZM24.116 35.4868H19.0385C18.6889 35.4868 18.4038 35.1976 18.4038 34.8416C18.4038 34.4857 18.6889 34.1965 19.0385 34.1965H24.116C24.4655 34.1965 24.7506 34.4857 24.7506 34.8416C24.7506 35.1976 24.4655 35.4868 24.116 35.4868Z" fill="#ED8936"/>
</svg>
