<svg width="34" height="40" viewBox="0 0 34 40" fill="none" xmlns="http://www.w3.org/2000/svg">
<path d="M23.2521 8.88889H12.3365C12.0164 8.88889 11.757 9.10203 11.757 9.36508C11.757 9.62813 12.0164 9.84127 12.3365 9.84127H23.2523C23.5724 9.84127 23.8318 9.62813 23.8318 9.36508C23.8318 9.10203 23.5723 8.88889 23.2521 8.88889Z" fill="#ED8936"/>
<path d="M23.2521 11.4286H12.3365C12.0164 11.4286 11.757 11.6417 11.757 11.9048C11.757 12.1678 12.0164 12.381 12.3365 12.381H23.2523C23.5724 12.381 23.8318 12.1678 23.8318 11.9048C23.8318 11.6417 23.5723 11.4286 23.2521 11.4286Z" fill="#ED8936"/>
<path d="M23.2521 13.9683H12.3365C12.0164 13.9683 11.757 14.1814 11.757 14.4444C11.757 14.7075 12.0164 14.9206 12.3365 14.9206H23.2523C23.5724 14.9206 23.8318 14.7075 23.8318 14.4444C23.8318 14.1814 23.5723 13.9683 23.2521 13.9683Z" fill="#ED8936"/>
<path d="M33.4123 28.4617C33.7369 28.4617 33.9999 28.1995 33.9999 27.8758V1.95773C34 0.878201 33.1192 0 32.0366 0C30.7636 0 4.63951 0 3.35468 0C1.49192 0 0 1.53789 0 3.31484C0 5.30312 7.83099e-05 34.7618 7.83099e-05 36.6788C7.83099e-05 38.4649 1.53893 40 3.35468 40H22.0457C22.3703 40 22.6333 39.7377 22.6333 39.4141C22.6333 39.0904 22.3703 38.8281 22.0457 38.8281C22.0377 38.8281 3.36737 38.8123 3.35468 38.8123C1.64494 38.8123 0.504201 36.8602 1.62245 35.4022C1.99996 34.9098 2.5811 34.5805 3.24467 34.5452C3.34058 34.5404 5.56282 34.5424 5.57097 34.5424V36.9731C5.57097 37.6192 6.28782 38.0128 6.83574 37.666L8.17354 36.8186L9.49128 37.6534C10.0488 38.0058 10.776 37.605 10.776 36.9492V34.5423H29.8584V38.8279H24.7883C24.4637 38.8279 24.2006 39.0902 24.2006 39.4138C24.2006 39.7375 24.4637 39.9998 24.7883 39.9998C25.6274 39.9998 30.9882 39.9998 31.907 39.9998C33.0611 39.9998 34 39.0636 34 37.9129C34 37.0224 34 31.245 34 30.6101C34 30.2864 33.737 30.0242 33.4124 30.0242C33.0877 30.0242 32.8247 30.2864 32.8247 30.6101V32.458C32.8247 32.8666 32.5538 33.2134 32.1817 33.3291C31.96 33.398 4.66114 33.3707 4.13202 33.3702V7.32171C4.13202 6.99803 3.86899 6.73577 3.54437 6.73577C3.21976 6.73577 2.95673 6.99803 2.95673 7.32171V33.3942C2.2843 33.4753 1.66602 33.7593 1.17569 34.1793C1.24518 2.61718 0.944936 3.11867 1.49309 2.2207C1.81356 1.69734 2.34761 1.3214 2.95657 1.20937V4.58718C2.95657 4.91085 3.2196 5.17312 3.54422 5.17312C3.86883 5.17312 4.13186 4.91085 4.13186 4.58718V1.17195H32.0366C32.471 1.17195 32.8246 1.52445 32.8246 1.95773V27.8758C32.8246 28.1995 33.0877 28.4617 33.4123 28.4617ZM31.0336 34.5424C31.646 34.5006 32.1665 34.6546 32.8245 34.332V37.9131C32.8245 38.4176 32.4129 38.8281 31.9069 38.8281H31.0336L31.0336 34.5424ZM6.74627 34.5424H9.60066V36.3342C8.82583 35.8847 8.63535 35.6132 8.17354 35.6132C7.71102 35.6132 7.51937 35.8855 6.74627 36.3342V34.5424Z" fill="#ED8936"/>
</svg>
