<svg width="35" height="35" viewBox="0 0 35 35" fill="none" xmlns="http://www.w3.org/2000/svg">
<path d="M17.4798 0.00213623C16.8524 0.00213623 16.2255 0.0358626 15.6017 0.103096C15.0299 0.161497 14.4652 0.257274 13.9081 0.373491C13.8002 0.396048 13.6923 0.419847 13.5845 0.44474C10.3019 1.19212 7.30448 2.87048 4.95174 5.27856C4.73296 5.50282 4.51877 5.73372 4.30933 5.97119C-2.04611 13.2675 -1.2834 24.3344 6.01295 30.6898C12.9982 36.7744 23.5129 36.3695 30.0097 29.7659C30.2289 29.5417 30.443 29.3108 30.6521 29.0733C33.4569 25.8792 35.0025 21.773 35 17.5223C35 7.84607 27.1559 0.00206323 17.4798 0.00213623ZM5.73022 6.15457C5.82249 6.05879 5.91827 5.9671 6.01229 5.87425C6.12092 5.76737 6.22896 5.65992 6.33992 5.55655C6.43745 5.46544 6.5379 5.37784 6.63776 5.28907C6.75048 5.18921 6.86261 5.08934 6.97824 4.99298C7.07986 4.90713 7.18439 4.82479 7.28835 4.74186C7.40515 4.64842 7.52195 4.55498 7.64226 4.46504C7.74854 4.38503 7.85659 4.30736 7.96521 4.23144C8.0861 4.145 8.20757 4.05623 8.3308 3.97564C8.44118 3.90089 8.55272 3.82847 8.66485 3.75664C8.78983 3.67663 8.91539 3.59779 9.04212 3.52304C9.15622 3.45493 9.27105 3.38791 9.38668 3.32214C9.51596 3.24855 9.64576 3.17672 9.77621 3.10664C9.89301 3.04437 10.0098 2.98342 10.1266 2.92385C10.2598 2.85669 10.3941 2.79186 10.529 2.7282C10.6458 2.67272 10.7673 2.61724 10.8876 2.56468C11.0248 2.50628 11.1638 2.44788 11.3028 2.38948C11.4237 2.33984 11.544 2.29137 11.6661 2.24465C11.8074 2.19092 11.9505 2.14069 12.0935 2.09047C12.2156 2.04784 12.3377 2.0052 12.4615 1.96491C12.6069 1.91819 12.7535 1.87497 12.9006 1.83234C13.0239 1.79671 13.1459 1.75992 13.2697 1.72663C13.317 1.71437 13.3643 1.70444 13.4117 1.69218C11.683 3.37068 10.4002 5.45383 9.67927 7.75299C8.29313 7.38741 6.95123 6.871 5.67766 6.21297C5.69693 6.19253 5.71328 6.17209 5.73022 6.15457ZM4.89042 7.09482C6.29327 7.8549 7.78088 8.44694 9.32244 8.85852C8.56674 11.4863 8.17005 14.2041 8.14333 16.9382H1.1411C1.26834 13.3328 2.58681 9.87126 4.89042 7.09482ZM4.89042 27.9497C2.58695 25.1732 1.26849 21.7116 1.1411 18.1063H8.14333C8.17005 20.8404 8.56666 23.5582 9.32244 26.186C7.78096 26.5977 6.29335 27.1897 4.89042 27.9497ZM13.2662 33.3202C13.1483 33.2904 13.0262 33.2519 12.9047 33.2163C12.757 33.173 12.6086 33.1298 12.4626 33.0825C12.3394 33.0428 12.2179 33.0002 12.0965 32.9575C11.9528 32.9079 11.8091 32.8571 11.6672 32.8028C11.5458 32.7566 11.426 32.7082 11.3057 32.6591C11.1661 32.6007 11.0266 32.5423 10.8882 32.4839C10.769 32.4313 10.6505 32.3773 10.5325 32.3216C10.3964 32.2573 10.2609 32.1919 10.1237 32.1242C10.0069 32.0658 9.89009 32.0074 9.77329 31.9437C9.64131 31.873 9.51049 31.8006 9.37967 31.7259C9.26287 31.661 9.15191 31.5945 9.0392 31.5267C8.91072 31.4496 8.78457 31.3702 8.65843 31.289C8.54747 31.2184 8.4365 31.1465 8.32729 31.0729C8.2029 30.9888 8.07968 30.9012 7.95762 30.8136C7.85075 30.7371 7.74387 30.6606 7.63875 30.58C7.51786 30.4889 7.39931 30.3949 7.28134 30.3003C7.17797 30.218 7.07519 30.1362 6.97415 30.0515C6.85735 29.9546 6.74464 29.8535 6.63134 29.7531C6.53206 29.6649 6.43219 29.5779 6.33525 29.488C6.2237 29.384 6.11566 29.276 6.00704 29.1691C5.91301 29.0762 5.81724 28.9845 5.72496 28.8893C5.70803 28.8712 5.69168 28.8526 5.67474 28.835C6.94824 28.1767 8.29014 27.6601 9.67635 27.2944C10.3974 29.5935 11.6801 31.6766 13.4087 33.3552C13.3614 33.343 13.3135 33.333 13.2662 33.3202ZM16.8958 33.8283C14.3969 33.4732 12.2063 30.865 10.828 27.0135C12.8206 26.5673 14.8541 26.328 16.8958 26.2993V33.8283ZM16.8958 25.1313C14.7299 25.1597 12.5731 25.417 10.4613 25.8987C9.72796 23.365 9.34113 20.7437 9.31135 18.1063H16.8958V25.1313ZM16.8958 16.9382H9.31135C9.34106 14.3008 9.72789 11.6795 10.4613 9.14585C12.5731 9.62744 14.73 9.88469 16.8958 9.91323V16.9382ZM16.8958 8.74522C14.854 8.71675 12.8206 8.47738 10.828 8.03098C12.2063 4.17946 14.3969 1.57129 16.8958 1.21621V8.74522ZM30.0693 7.09482C32.3727 9.87133 33.6912 13.3329 33.8186 16.9382H26.8163C26.7896 14.2041 26.393 11.4863 25.6372 8.85852C27.1787 8.44672 28.6663 7.85476 30.0693 7.09482ZM21.6888 1.72371C21.8114 1.75408 21.9335 1.79263 22.0549 1.82825C22.2027 1.87147 22.351 1.91468 22.497 1.96199C22.6203 2.0017 22.7417 2.04433 22.8632 2.08697C23.0069 2.13661 23.1505 2.18741 23.2924 2.24173C23.4139 2.28786 23.5336 2.33634 23.6539 2.38539C23.7935 2.44379 23.9331 2.50219 24.0715 2.56059C24.1907 2.61316 24.3092 2.66725 24.4272 2.72295C24.5632 2.78719 24.6987 2.8526 24.836 2.92034C24.9528 2.97874 25.0696 3.03714 25.1864 3.1008C25.3184 3.17147 25.4492 3.24388 25.58 3.31863C25.6968 3.38346 25.8078 3.45004 25.9205 3.51778C26.049 3.59487 26.1751 3.67429 26.3012 3.75547C26.4122 3.82614 26.5232 3.89797 26.6324 3.97155C26.7568 4.05565 26.8794 4.14267 27.0015 4.23027C27.1089 4.30677 27.2158 4.38386 27.3215 4.46387C27.4418 4.55439 27.5598 4.64842 27.6783 4.74303C27.7811 4.82479 27.8845 4.90655 27.9855 4.99181C28.1023 5.08876 28.215 5.18979 28.3283 5.29024C28.4276 5.37842 28.5275 5.46544 28.6244 5.55538C28.736 5.65933 28.844 5.76737 28.9526 5.87425C29.0467 5.9671 29.1424 6.05879 29.2347 6.15398C29.2516 6.17209 29.268 6.19078 29.2849 6.2083C28.0114 6.86662 26.6695 7.38324 25.2833 7.74891C24.5609 5.44953 23.2765 3.3666 21.5463 1.68867C21.5936 1.70094 21.6415 1.71087 21.6888 1.72371ZM18.0638 1.21621C20.5628 1.57129 22.7534 4.17946 24.1317 8.03098C22.139 8.47716 20.1056 8.71653 18.0638 8.74522V1.21621ZM18.0638 9.91323C20.2298 9.88476 22.3866 9.62751 24.4984 9.14585C25.2317 11.6795 25.6185 14.3008 25.6483 16.9382H18.0638V9.91323ZM18.0638 18.1063H25.6483C25.6186 20.7437 25.2318 23.365 24.4984 25.8987C22.3866 25.4171 20.2298 25.1598 18.0638 25.1313V18.1063ZM18.0638 33.8283V26.2993C20.1057 26.3278 22.139 26.5671 24.1317 27.0135C22.7534 30.865 20.5628 33.4732 18.0638 33.8283ZM29.2295 28.8899C29.1372 28.9851 29.042 29.0768 28.948 29.1697C28.8393 29.2765 28.7307 29.3846 28.6192 29.4885C28.5222 29.5791 28.4224 29.6637 28.3231 29.7543C28.2098 29.8547 28.0971 29.9552 27.9814 30.0521C27.8792 30.1374 27.7753 30.2197 27.6713 30.3026C27.5545 30.3961 27.4377 30.4895 27.3174 30.5795C27.2111 30.6595 27.1031 30.7371 26.9945 30.8131C26.8736 30.8995 26.7521 30.9883 26.6289 31.0689C26.5185 31.1436 26.407 31.216 26.2948 31.2873C26.1698 31.3679 26.0439 31.4458 25.917 31.5209C25.8002 31.5892 25.6886 31.6558 25.5736 31.7218C25.4443 31.7954 25.3143 31.8672 25.1835 31.9373C25.0667 31.9995 24.9499 32.0605 24.8331 32.1201C24.6999 32.1872 24.5656 32.2521 24.4307 32.3157C24.3139 32.3712 24.1924 32.4267 24.0721 32.4792C23.9349 32.5376 23.7959 32.596 23.6569 32.6544C23.536 32.7035 23.4157 32.7526 23.2942 32.7987C23.1517 32.853 23.0086 32.9038 22.865 32.9534C22.7435 32.9961 22.622 33.0387 22.4988 33.0784C22.3528 33.1257 22.2068 33.1689 22.0579 33.2116C21.9358 33.2478 21.8132 33.284 21.6899 33.3173C21.6426 33.3295 21.5953 33.3395 21.548 33.3517C23.2767 31.6732 24.5595 29.5901 25.2804 27.2909C26.6665 27.6565 28.0084 28.1729 29.282 28.8309C29.2627 28.852 29.2464 28.8724 29.2295 28.8899ZM30.0693 27.9497C28.6664 27.1896 27.1788 26.5976 25.6372 26.186C26.3929 23.5582 26.7896 20.8404 26.8163 18.1063H33.8186C33.6914 21.7116 32.3729 25.1732 30.0693 27.9497Z" fill="#333333"/>
</svg>
