<svg width="35" height="35" viewBox="0 0 35 35" fill="none" xmlns="http://www.w3.org/2000/svg">
<path d="M34.9994 20.541C34.9994 20.5352 35 20.5295 35 20.5238C35 20.5207 34.9996 20.5176 34.9995 20.5145C34.9993 20.5027 34.9987 20.491 34.9977 20.4792C34.9971 20.4713 34.9964 20.4636 34.9955 20.4558C34.9943 20.446 34.9927 20.4361 34.991 20.4262C34.9893 20.4165 34.9875 20.4068 34.9853 20.3972C34.9835 20.3895 34.9815 20.3819 34.9794 20.3743C34.9763 20.363 34.9729 20.3517 34.9692 20.3407C34.9682 20.3376 34.9675 20.3347 34.9664 20.3317L29.7517 5.84636C30.6924 5.52788 31.3715 4.63746 31.3715 3.59071C31.3715 3.2776 31.1177 3.02376 30.8045 3.02376C30.4914 3.02376 30.2376 3.2776 30.2376 3.59071C30.2376 4.27847 29.678 4.83801 28.9903 4.83801C27.1361 4.83801 25.84 4.30349 24.4677 3.73759C22.9956 3.1305 21.4764 2.50405 19.1858 2.42702C19.0104 1.89915 18.5937 1.48081 18.067 1.30286V0.566955C18.067 0.253844 17.8132 0 17.5 0C17.1868 0 16.933 0.253844 16.933 0.566955V1.30279C16.4063 1.48073 15.9896 1.89907 15.8142 2.42694C13.5236 2.50397 12.0045 3.13042 10.5323 3.73752C9.16002 4.30349 7.86389 4.83801 6.00972 4.83801C5.32197 4.83801 4.76242 4.27847 4.76242 3.59071C4.76242 3.2776 4.50865 3.02376 4.19546 3.02376C3.88228 3.02376 3.62851 3.2776 3.62851 3.59071C3.62851 4.63746 4.30765 5.52788 5.24826 5.84636L0.0334881 20.3317C0.0324298 20.3346 0.0317495 20.3376 0.0307667 20.3407C0.026987 20.3517 0.0236609 20.363 0.0205616 20.3743C0.0184449 20.3819 0.0164039 20.3896 0.0146652 20.3972C0.012473 20.4068 0.0106587 20.4165 0.00892009 20.4262C0.00718143 20.4361 0.00559395 20.4459 0.00438445 20.4558C0.00347732 20.4635 0.00279698 20.4713 0.00219222 20.4792C0.0012851 20.491 0.000604752 20.5028 0.00037797 20.5145C0.00037797 20.5176 0 20.5207 0 20.5238C0 20.5295 0.000604752 20.5352 0.000604752 20.541C0.000831534 20.5474 0.000831534 20.5539 0.0012851 20.5603C0.014892 21.7111 0.668326 22.7757 1.84661 23.5613C2.96668 24.308 4.44523 24.7192 6.00972 24.7192C7.57421 24.7192 9.05276 24.308 10.1728 23.5613C11.351 22.7757 12.0045 21.7112 12.0182 20.5603C12.0186 20.5539 12.0186 20.5474 12.0188 20.541C12.0188 20.5352 12.0194 20.5295 12.0194 20.5238C12.0194 20.5207 12.0191 20.5176 12.019 20.5145C12.0188 20.5027 12.0182 20.491 12.0172 20.4792C12.0166 20.4713 12.0159 20.4636 12.015 20.4558C12.0138 20.446 12.0122 20.4361 12.0104 20.4262C12.0088 20.4165 12.0069 20.4068 12.0047 20.3972C12.003 20.3895 12.0009 20.3819 11.9988 20.3743C11.9957 20.363 11.9924 20.3517 11.9886 20.3407C11.9876 20.3376 11.9869 20.3347 11.9859 20.3317L6.80519 5.94085C8.47491 5.81159 9.73816 5.29158 10.9645 4.78585C12.3332 4.22139 13.7456 3.63932 15.8198 3.56191C15.9986 4.08177 16.4119 4.49308 16.933 4.66914V21.2597C16.2307 21.4969 15.7235 22.1615 15.7235 22.9428C15.7235 23.4098 15.9048 23.8349 16.2005 24.1523C15.9048 24.4698 15.7235 24.8949 15.7235 25.3618V31.4471H13.2667C12.2871 31.4471 11.4902 32.244 11.4902 33.2235V34.433C11.4902 34.7462 11.744 35 12.0572 35H22.9427C23.2559 35 23.5096 34.7462 23.5096 34.433V33.2235C23.5096 32.244 22.7127 31.4471 21.7332 31.4471H19.2765V25.3618C19.2765 24.8948 19.0951 24.4697 18.7995 24.1523C19.0951 23.8349 19.2765 23.4097 19.2765 22.9428C19.2765 22.1614 18.7692 21.4968 18.067 21.2596V4.66914C18.5881 4.49308 19.0014 4.08177 19.1801 3.56191C21.2543 3.6394 22.6667 4.22147 24.0354 4.78585C25.2618 5.29158 26.5251 5.81159 28.1947 5.94085L23.014 20.3317C23.013 20.3346 23.0123 20.3376 23.0113 20.3407C23.0075 20.3517 23.0042 20.363 23.0011 20.3743C22.999 20.3819 22.997 20.3896 22.9952 20.3972C22.993 20.4068 22.9912 20.4165 22.9895 20.4262C22.9877 20.4361 22.9862 20.4459 22.9849 20.4558C22.984 20.4635 22.9834 20.4713 22.9828 20.4792C22.9818 20.491 22.9812 20.5028 22.9809 20.5145C22.9809 20.5176 22.9805 20.5207 22.9805 20.5238C22.9805 20.5295 22.9811 20.5352 22.9811 20.541C22.9813 20.5474 22.9813 20.5539 22.9818 20.5603C22.9954 21.7111 23.6488 22.7757 24.8271 23.5613C25.9472 24.308 27.4258 24.7192 28.9903 24.7192C30.5548 24.7192 32.0333 24.308 33.1534 23.5613C34.3316 22.7757 34.985 21.7112 34.9987 20.5603C34.9992 20.5539 34.9992 20.5474 34.9994 20.541ZM6.00972 7.07877L10.6458 19.9568H1.37362L6.00972 7.07877ZM6.00972 23.5853C3.67417 23.5853 1.65898 22.4906 1.22167 21.0907H10.7978C10.3605 22.4906 8.34527 23.5853 6.00972 23.5853ZM22.3758 33.2235V33.8661H12.6242V33.2235C12.6242 32.8692 12.9124 32.581 13.2667 32.581H21.7333C22.0876 32.581 22.3758 32.8692 22.3758 33.2235ZM16.8575 31.4471V25.3618C16.8575 25.0075 17.1457 24.7192 17.5 24.7192C17.8543 24.7192 18.1425 25.0075 18.1425 25.3618V31.4471H16.8575ZM17.5 23.5853C17.1457 23.5853 16.8575 23.2971 16.8575 22.9428C16.8575 22.5885 17.1457 22.3002 17.5 22.3002C17.8543 22.3002 18.1425 22.5885 18.1425 22.9428C18.1425 23.2971 17.8543 23.5853 17.5 23.5853ZM17.5011 3.62843L17.5 3.62836L17.4989 3.62843C17.1452 3.62783 16.8575 3.33989 16.8575 2.98596C16.8575 2.63226 17.1448 2.34455 17.4982 2.34349L17.5 2.34356L17.5018 2.34349C17.8552 2.34447 18.1425 2.63226 18.1425 2.98596C18.1425 3.33989 17.8548 3.62783 17.5011 3.62843ZM33.6264 19.9568H24.3542L28.9903 7.07877L33.6264 19.9568ZM28.9903 23.5853C26.6547 23.5853 24.6395 22.4906 24.2022 21.0907H33.7783C33.341 22.4906 31.3258 23.5853 28.9903 23.5853Z" fill="#333333"/>
</svg>
