<svg width="30" height="30" viewBox="0 0 30 30" fill="none" xmlns="http://www.w3.org/2000/svg">
<circle cx="15" cy="15" r="14.5" stroke="#EBEBEB"/>
<mask id="path-2-inside-1" fill="white">
<path fill-rule="evenodd" clip-rule="evenodd" d="M15.5 9.34592C16.4987 9.30846 17.4987 9.33628 18.4938 9.42919C18.9764 9.42326 19.456 9.50799 19.9074 9.67897C20.5302 9.96922 21.0307 10.4698 21.321 11.0926C21.492 11.544 21.5767 12.0235 21.5708 12.5062C21.5708 13.2546 21.6541 13.5044 21.6541 15.4999C21.6915 16.4985 21.6637 17.4986 21.5708 18.4936C21.5767 18.9763 21.492 19.4558 21.321 19.9072C21.0307 20.53 20.5302 21.0305 19.9074 21.3208C19.456 21.4918 18.9764 21.5765 18.4938 21.5706C17.7453 21.5706 17.4955 21.6538 15.5 21.6538C14.5013 21.6913 13.5013 21.6635 12.5062 21.5706C12.0236 21.5765 11.544 21.4918 11.0926 21.3208C10.4698 21.0305 9.96926 20.53 9.679 19.9072C9.50802 19.4558 9.42328 18.9763 9.42921 18.4936C9.42921 17.7452 9.34594 17.4954 9.34594 15.4999C9.30848 14.5012 9.3363 13.5012 9.42921 12.5062C9.42328 12.0235 9.50802 11.544 9.679 11.0926C9.82409 10.7842 10.0209 10.5029 10.2609 10.2609C10.4558 9.96993 10.7525 9.76237 11.0926 9.67897C11.544 9.50799 12.0236 9.42326 12.5062 9.42919C13.5013 9.33628 14.5013 9.30846 15.5 9.34592ZM15.5 8.01559C14.4736 7.97901 13.4459 8.00682 12.423 8.09885C11.7982 8.09735 11.1784 8.2099 10.594 8.43097C10.0893 8.59561 9.63264 8.88113 9.26362 9.26266C8.88161 9.63184 8.59575 10.0889 8.43098 10.5939C8.17011 11.1665 8.05597 11.7951 8.09885 12.4229C8.00682 13.4458 7.97901 14.4735 8.01559 15.4999C7.97901 16.5263 8.00682 17.5539 8.09885 18.5769C8.09754 19.202 8.21041 19.8222 8.43191 20.4068C8.59655 20.9114 8.88208 21.3681 9.26362 21.7371C9.63264 22.1186 10.0893 22.4041 10.594 22.5688C11.1786 22.7903 11.7987 22.9032 12.4239 22.9018C13.4465 22.9935 14.4739 23.021 15.5 22.9842C16.5264 23.0207 17.5541 22.9929 18.577 22.9009C19.2022 22.9022 19.8224 22.7894 20.407 22.5679C20.9079 22.3953 21.3629 22.1109 21.7375 21.7363C22.1121 21.3617 22.3965 20.9067 22.569 20.4058C22.7905 19.8212 22.9034 19.2011 22.9021 18.5759C22.9011 17.7452 22.9844 17.4954 22.9844 15.4999C23.021 14.4735 22.9932 13.4458 22.9011 12.4229C22.9025 11.7977 22.7896 11.1776 22.5681 10.593C22.4034 10.0884 22.1179 9.63168 21.7364 9.26266C21.3674 8.88113 20.9107 8.59561 20.406 8.43097C19.8216 8.2099 19.2018 8.09735 18.577 8.09885C17.5541 8.00682 16.5264 7.97901 15.5 8.01559ZM15.5 11.6745C14.9953 11.6661 14.4941 11.7594 14.0262 11.9487C13.5583 12.1379 13.1333 12.4194 12.7764 12.7763C12.4195 13.1332 12.138 13.5582 11.9487 14.0261C11.7594 14.494 11.6662 14.9952 11.6745 15.4999C11.6745 16.2565 11.8989 16.9961 12.3192 17.6252C12.7396 18.2542 13.337 18.7446 14.0361 19.0341C14.7351 19.3236 15.5042 19.3994 16.2463 19.2518C16.9884 19.1042 17.67 18.7398 18.205 18.2048C18.74 17.6699 19.1044 16.9882 19.252 16.2462C19.3996 15.5041 19.3238 14.735 19.0343 14.036C18.7447 13.337 18.2544 12.7395 17.6253 12.3192C16.9962 11.8988 16.2566 11.6745 15.5 11.6745ZM15.5 17.995C15.1707 18.001 14.8435 17.9407 14.538 17.8174C14.2325 17.6942 13.955 17.5106 13.7221 17.2777C13.4892 17.0448 13.3056 16.7673 13.1824 16.4619C13.0592 16.1564 12.9988 15.8292 13.0049 15.4999C12.9988 15.1705 13.0592 14.8434 13.1824 14.5379C13.3056 14.2324 13.4892 13.9549 13.7221 13.722C13.955 13.4891 14.2325 13.3055 14.538 13.1823C14.8435 13.0591 15.1707 12.9987 15.5 13.0048C15.8293 12.9987 16.1565 13.0591 16.462 13.1823C16.7675 13.3055 17.045 13.4891 17.2779 13.722C17.5108 13.9549 17.6944 14.2324 17.8176 14.5379C17.9408 14.8434 18.0012 15.1705 17.9951 15.4999C18.0012 15.8292 17.9408 16.1564 17.8176 16.4619C17.6944 16.7673 17.5108 17.0448 17.2779 17.2777C17.045 17.5106 16.7675 17.6942 16.462 17.8174C16.1565 17.9407 15.8293 18.001 15.5 17.995ZM19.492 10.5939C19.311 10.5939 19.1341 10.6476 18.9837 10.7481C18.8332 10.8487 18.7159 10.9916 18.6467 11.1587C18.5774 11.3259 18.5593 11.5099 18.5946 11.6874C18.6299 11.8649 18.7171 12.0279 18.845 12.1559C18.973 12.2838 19.136 12.371 19.3135 12.4063C19.491 12.4416 19.675 12.4234 19.8421 12.3542C20.0093 12.2849 20.1522 12.1677 20.2528 12.0172C20.3533 11.8667 20.407 11.6898 20.407 11.5089C20.405 11.2668 20.308 11.0352 20.1368 10.8641C19.9656 10.6929 19.7341 10.5959 19.492 10.5939Z"/>
</mask>
<path d="M18.4938 9.42919L18.4008 10.4249L18.4533 10.4298L18.506 10.4291L18.4938 9.42919ZM19.9074 9.67897L20.3298 8.77257L20.2962 8.75692L20.2616 8.74381L19.9074 9.67897ZM21.321 11.0926L22.2562 10.7384L22.243 10.7037L22.2274 10.6701L21.321 11.0926ZM21.5708 12.5062L20.5708 12.4939V12.5062H21.5708ZM21.6541 15.4999H20.6541V15.5186L20.6548 15.5374L21.6541 15.4999ZM21.5708 18.4936L20.5751 18.4006L20.5702 18.4531L20.5709 18.5059L21.5708 18.4936ZM21.321 19.9072L22.2274 20.3296L22.243 20.296L22.2562 20.2614L21.321 19.9072ZM19.9074 21.3208L20.2616 22.256L20.2962 22.2428L20.3298 22.2272L19.9074 21.3208ZM18.4938 21.5706L18.506 20.5706H18.4938V21.5706ZM15.5 21.6538V20.6538H15.4813L15.4625 20.6545L15.5 21.6538ZM12.5062 21.5706L12.5992 20.5749L12.5467 20.57L12.494 20.5706L12.5062 21.5706ZM11.0926 21.3208L10.6702 22.2272L10.7038 22.2428L10.7384 22.256L11.0926 21.3208ZM9.679 19.9072L8.74384 20.2614L8.75696 20.296L8.7726 20.3296L9.679 19.9072ZM9.42921 18.4936L10.4292 18.5059V18.4936H9.42921ZM9.34594 15.4999H10.3459V15.4811L10.3452 15.4624L9.34594 15.4999ZM9.42921 12.5062L10.4249 12.5991L10.4298 12.5466L10.4291 12.4939L9.42921 12.5062ZM9.679 11.0926L8.77413 10.6669L8.7576 10.702L8.74384 10.7384L9.679 11.0926ZM10.2609 10.2609L10.9709 10.9651L11.0384 10.897L11.0917 10.8174L10.2609 10.2609ZM11.0926 9.67897L11.3308 10.6502L11.3899 10.6357L11.4468 10.6141L11.0926 9.67897ZM12.5062 9.42919L12.494 10.4291L12.5467 10.4298L12.5992 10.4249L12.5062 9.42919ZM12.423 8.09885L12.4206 9.09885L12.4667 9.09896L12.5126 9.09483L12.423 8.09885ZM10.594 8.43097L10.9041 9.38165L10.9261 9.37447L10.9478 9.36628L10.594 8.43097ZM9.26362 9.26266L9.95855 9.98174L9.97068 9.97001L9.98241 9.95788L9.26362 9.26266ZM8.43098 10.5939L9.34099 11.0085L9.36425 10.9574L9.38166 10.9041L8.43098 10.5939ZM8.09885 12.4229L9.09483 12.5125L9.10192 12.4337L9.09653 12.3547L8.09885 12.4229ZM8.01559 15.4999L9.01496 15.5355L9.01623 15.4999L9.01496 15.4643L8.01559 15.4999ZM8.09885 18.5769L9.09885 18.579L9.09895 18.533L9.09483 18.4872L8.09885 18.5769ZM8.43191 20.4068L9.38259 20.0966L9.37533 20.0743L9.36704 20.0525L8.43191 20.4068ZM9.26362 21.7371L9.98241 21.0419L9.97082 21.0299L9.95883 21.0183L9.26362 21.7371ZM10.594 22.5688L10.9483 21.6337L10.9264 21.6254L10.9041 21.6181L10.594 22.5688ZM12.4239 22.9018L12.5132 21.9058L12.4676 21.9017L12.4218 21.9018L12.4239 22.9018ZM15.5 22.9842L15.5356 21.9848L15.4999 21.9835L15.4641 21.9848L15.5 22.9842ZM18.577 22.9009L18.5791 21.9009L18.5332 21.9008L18.4874 21.9049L18.577 22.9009ZM20.407 22.5679L20.0812 21.6224L20.0669 21.6273L20.0527 21.6327L20.407 22.5679ZM22.569 20.4058L21.6339 20.0515L21.6285 20.0657L21.6236 20.0801L22.569 20.4058ZM22.9021 18.5759L21.9021 18.577L21.9021 18.578L22.9021 18.5759ZM22.9844 15.4999L21.985 15.4643L21.9844 15.4821V15.4999H22.9844ZM22.9011 12.4229L21.9011 12.4208L21.9011 12.4667L21.9052 12.5125L22.9011 12.4229ZM22.5681 10.593L21.6174 10.9032L21.6247 10.9254L21.633 10.9473L22.5681 10.593ZM21.7364 9.26266L21.0176 9.95788L21.0292 9.96987L21.0412 9.98146L21.7364 9.26266ZM20.406 8.43097L20.0522 9.36628L20.0739 9.37447L20.0959 9.38165L20.406 8.43097ZM18.577 8.09885L18.4874 9.09483L18.5333 9.09896L18.5794 9.09885L18.577 8.09885ZM11.6745 15.4999H12.6745V15.4916L12.6744 15.4833L11.6745 15.4999ZM13.0049 15.4999L14.0047 15.5184L14.0051 15.4999L14.0047 15.4814L13.0049 15.4999ZM15.5 13.0048L15.4815 14.0046L15.5 14.005L15.5185 14.0046L15.5 13.0048ZM17.9951 15.4999L16.9953 15.4814L16.9949 15.4999L16.9953 15.5184L17.9951 15.4999ZM20.407 11.5089H21.407L21.4069 11.5008L20.407 11.5089ZM15.5375 10.3452C16.4926 10.3094 17.4491 10.336 18.4008 10.4249L18.5867 8.43352C17.5483 8.33656 16.5047 8.30753 15.4625 8.34663L15.5375 10.3452ZM18.506 10.4291C18.8636 10.4247 19.2188 10.4875 19.5532 10.6141L20.2616 8.74381C19.6931 8.5285 19.0893 8.4218 18.4815 8.42926L18.506 10.4291ZM19.485 10.5854C19.8946 10.7763 20.2237 11.1054 20.4146 11.515L22.2274 10.6701C21.8378 9.8341 21.1658 9.16219 20.3298 8.77257L19.485 10.5854ZM20.3858 11.4468C20.5125 11.7812 20.5753 12.1364 20.5709 12.4939L22.5707 12.5184C22.5782 11.9106 22.4715 11.3068 22.2562 10.7384L20.3858 11.4468ZM20.5708 12.5062C20.5708 12.9144 20.5943 13.2089 20.6137 13.5866C20.6336 13.9738 20.6541 14.518 20.6541 15.4999H22.6541C22.6541 14.4863 22.6329 13.9078 22.6111 13.4841C22.5889 13.051 22.5708 12.8463 22.5708 12.5062H20.5708ZM20.6548 15.5374C20.6906 16.4925 20.664 17.449 20.5751 18.4006L22.5665 18.5866C22.6634 17.5482 22.6924 16.5046 22.6534 15.4624L20.6548 15.5374ZM20.5709 18.5059C20.5753 18.8634 20.5125 19.2186 20.3858 19.553L22.2562 20.2614C22.4715 19.693 22.5782 19.0891 22.5707 18.4813L20.5709 18.5059ZM20.4146 19.4848C20.2237 19.8943 19.8946 20.2235 19.485 20.4144L20.3298 22.2272C21.1658 21.8376 21.8378 21.1657 22.2274 20.3296L20.4146 19.4848ZM19.5532 20.3856C19.2188 20.5123 18.8636 20.575 18.506 20.5706L18.4815 22.5705C19.0893 22.578 19.6931 22.4713 20.2616 22.256L19.5532 20.3856ZM18.4938 20.5706C18.0855 20.5706 17.7911 20.5941 17.4133 20.6135C17.0261 20.6334 16.4819 20.6538 15.5 20.6538V22.6538C16.5136 22.6538 17.0921 22.6326 17.5158 22.6109C17.9489 22.5887 18.1536 22.5706 18.4938 22.5706V20.5706ZM15.4625 20.6545C14.5074 20.6904 13.5509 20.6638 12.5992 20.5749L12.4133 22.5662C13.4517 22.6632 14.4953 22.6922 15.5375 22.6531L15.4625 20.6545ZM12.494 20.5706C12.1364 20.575 11.7812 20.5123 11.4468 20.3856L10.7384 22.256C11.3069 22.4713 11.9107 22.578 12.5185 22.5705L12.494 20.5706ZM11.515 20.4144C11.1054 20.2235 10.7763 19.8943 10.5854 19.4848L8.7726 20.3296C9.16224 21.1657 9.83416 21.8376 10.6702 22.2272L11.515 20.4144ZM10.6142 19.553C10.4875 19.2186 10.4247 18.8634 10.4291 18.5059L8.42928 18.4813C8.42182 19.0891 8.52852 19.693 8.74384 20.2614L10.6142 19.553ZM10.4292 18.4936C10.4292 18.0853 10.4057 17.7909 10.3863 17.4131C10.3664 17.026 10.3459 16.4818 10.3459 15.4999H8.34594C8.34594 16.5135 8.36714 17.0919 8.38889 17.5157C8.41113 17.9488 8.42921 18.1534 8.42921 18.4936H10.4292ZM10.3452 15.4624C10.3094 14.5073 10.336 13.5508 10.4249 12.5991L8.43354 12.4132C8.33658 13.4516 8.30755 14.4952 8.34665 15.5374L10.3452 15.4624ZM10.4291 12.4939C10.4247 12.1364 10.4875 11.7812 10.6142 11.4468L8.74384 10.7384C8.52852 11.3068 8.42182 11.9106 8.42928 12.5184L10.4291 12.4939ZM10.5839 11.5183C10.6804 11.3131 10.8113 11.126 10.9709 10.9651L9.55091 9.55668C9.23052 9.87971 8.9678 10.2552 8.77413 10.6669L10.5839 11.5183ZM11.0917 10.8174C11.1477 10.7338 11.233 10.6742 11.3308 10.6502L10.8545 8.70774C10.272 8.85056 9.76392 9.20602 9.43011 9.70431L11.0917 10.8174ZM11.4468 10.6141C11.7812 10.4875 12.1364 10.4247 12.494 10.4291L12.5185 8.42926C11.9107 8.4218 11.3069 8.5285 10.7384 8.74381L11.4468 10.6141ZM12.5992 10.4249C13.5509 10.336 14.5074 10.3094 15.4625 10.3452L15.5375 8.34663C14.4953 8.30753 13.4517 8.33656 12.4133 8.43352L12.5992 10.4249ZM15.5356 7.01622C14.4674 6.97816 13.3979 7.0071 12.3334 7.10288L12.5126 9.09483C13.4939 9.00654 14.4797 8.97986 15.4644 9.01496L15.5356 7.01622ZM12.4254 7.09886C11.6789 7.09706 10.9383 7.23153 10.2401 7.49566L10.9478 9.36628C11.4184 9.18827 11.9175 9.09764 12.4206 9.09885L12.4254 7.09886ZM10.2838 7.48029C9.62418 7.6955 9.02719 8.06871 8.54482 8.56743L9.98241 9.95788C10.2381 9.69354 10.5545 9.49572 10.9041 9.38165L10.2838 7.48029ZM8.56869 8.54358C8.06934 9.02616 7.69568 9.62359 7.48029 10.2838L9.38166 10.9041C9.49582 10.5542 9.69387 10.2375 9.95855 9.98174L8.56869 8.54358ZM7.52096 10.1794C7.19124 10.9031 7.04698 11.6976 7.10118 12.4911L9.09653 12.3547C9.06496 11.8927 9.14898 11.43 9.34099 11.0085L7.52096 10.1794ZM7.10288 12.3333C7.0071 13.3978 6.97816 14.4673 7.01622 15.5355L9.01496 15.4643C8.97986 14.4796 9.00654 13.4938 9.09483 12.5125L7.10288 12.3333ZM7.01622 15.4643C6.97816 16.5324 7.0071 17.6019 7.10288 18.6665L9.09483 18.4872C9.00654 17.506 8.97986 16.5201 9.01496 15.5355L7.01622 15.4643ZM7.09886 18.5747C7.09728 19.3217 7.23214 20.0626 7.49678 20.7611L9.36704 20.0525C9.18868 19.5817 9.09779 19.0824 9.09885 18.579L7.09886 18.5747ZM7.48123 20.7169C7.69645 21.3766 8.06967 21.9735 8.5684 22.4559L9.95883 21.0183C9.69448 20.7626 9.49666 20.4462 9.38259 20.0966L7.48123 20.7169ZM8.54482 22.4323C9.02719 22.931 9.62418 23.3043 10.2838 23.5195L10.9041 21.6181C10.5545 21.504 10.2381 21.3062 9.98241 21.0419L8.54482 22.4323ZM10.2397 23.5039C10.9381 23.7686 11.6791 23.9034 12.426 23.9018L12.4218 21.9018C11.9184 21.9029 11.419 21.812 10.9483 21.6337L10.2397 23.5039ZM12.3346 23.8978C13.3989 23.9933 14.4681 24.0219 15.5359 23.9835L15.4641 21.9848C14.4798 22.0202 13.4942 21.9938 12.5132 21.9058L12.3346 23.8978ZM15.4644 23.9835C16.5326 24.0216 17.6021 23.9927 18.6666 23.8969L18.4874 21.9049C17.5061 21.9932 16.5203 22.0199 15.5356 21.9848L15.4644 23.9835ZM18.5749 23.9009C19.3219 23.9025 20.0628 23.7676 20.7613 23.503L20.0527 21.6327C19.5819 21.8111 19.0825 21.902 18.5791 21.9009L18.5749 23.9009ZM20.7327 23.5133C21.3772 23.2913 21.9626 22.9254 22.4446 22.4434L21.0304 21.0292C20.7631 21.2964 20.4386 21.4993 20.0812 21.6224L20.7327 23.5133ZM22.4446 22.4434C22.9266 21.9614 23.2925 21.376 23.5145 20.7316L21.6236 20.0801C21.5005 20.4374 21.2976 20.762 21.0304 21.0292L22.4446 22.4434ZM23.5042 20.7601C23.7688 20.0617 23.9037 19.3207 23.9021 18.5738L21.9021 18.578C21.9031 19.0814 21.8123 19.5808 21.6339 20.0515L23.5042 20.7601ZM23.9021 18.5748C23.9016 18.1927 23.9199 17.9613 23.9417 17.5244C23.9632 17.0917 23.9844 16.5138 23.9844 15.4999H21.9844C21.9844 16.4814 21.964 17.0262 21.9441 17.4249C21.9245 17.8195 21.9016 18.1284 21.9021 18.577L23.9021 18.5748ZM23.9838 15.5355C24.0218 14.4673 23.9929 13.3978 23.8971 12.3333L21.9052 12.5125C21.9935 13.4938 22.0201 14.4796 21.985 15.4643L23.9838 15.5355ZM23.9011 12.425C23.9027 11.6781 23.7679 10.9372 23.5032 10.2387L21.633 10.9473C21.8113 11.418 21.9022 11.9174 21.9011 12.4208L23.9011 12.425ZM23.5188 10.2828C23.3036 9.6232 22.9303 9.02622 22.4316 8.54386L21.0412 9.98146C21.3055 10.2371 21.5033 10.5536 21.6174 10.9032L23.5188 10.2828ZM22.4552 8.56743C21.9728 8.06871 21.3758 7.6955 20.7162 7.48029L20.0959 9.38165C20.4455 9.49572 20.7619 9.69354 21.0176 9.95788L22.4552 8.56743ZM20.7599 7.49566C20.0617 7.23153 19.3211 7.09706 18.5746 7.09886L18.5794 9.09885C19.0825 9.09764 19.5816 9.18827 20.0522 9.36628L20.7599 7.49566ZM18.6666 7.10288C17.6021 7.0071 16.5326 6.97816 15.4644 7.01622L15.5356 9.01496C16.5203 8.97986 17.5061 9.00654 18.4874 9.09483L18.6666 7.10288ZM15.5165 10.6746C14.8778 10.664 14.2434 10.7821 13.6512 11.0216L14.4013 12.8757C14.7448 12.7367 15.1129 12.6682 15.4835 12.6743L15.5165 10.6746ZM13.6512 11.0216C13.059 11.2612 12.521 11.6175 12.0693 12.0692L13.4835 13.4834C13.7456 13.2213 14.0577 13.0147 14.4013 12.8757L13.6512 11.0216ZM12.0693 12.0692C11.6176 12.5209 11.2613 13.0589 11.0217 13.6511L12.8757 14.4012C13.0147 14.0576 13.2214 13.7455 13.4835 13.4834L12.0693 12.0692ZM11.0217 13.6511C10.7821 14.2433 10.6641 14.8777 10.6747 15.5164L12.6744 15.4833C12.6683 15.1128 12.7367 14.7447 12.8757 14.4012L11.0217 13.6511ZM10.6745 15.4999C10.6745 16.4543 10.9575 17.3872 11.4878 18.1807L13.1507 17.0696C12.8402 16.6049 12.6745 16.0587 12.6745 15.4999H10.6745ZM11.4878 18.1807C12.018 18.9743 12.7716 19.5928 13.6534 19.958L14.4187 18.1102C13.9024 17.8964 13.4612 17.5342 13.1507 17.0696L11.4878 18.1807ZM13.6534 19.958C14.5351 20.3232 15.5054 20.4188 16.4414 20.2326L16.0512 18.271C15.5031 18.38 14.935 18.3241 14.4187 18.1102L13.6534 19.958ZM16.4414 20.2326C17.3774 20.0464 18.2373 19.5868 18.9121 18.912L17.4979 17.4977C17.1028 17.8929 16.5993 18.162 16.0512 18.271L16.4414 20.2326ZM18.9121 18.912C19.587 18.2371 20.0466 17.3773 20.2327 16.4413L18.2712 16.0511C18.1622 16.5992 17.8931 17.1026 17.4979 17.4977L18.9121 18.912ZM20.2327 16.4413C20.4189 15.5052 20.3234 14.535 19.9581 13.6533L18.1104 14.4186C18.3242 14.9349 18.3802 15.503 18.2712 16.0511L20.2327 16.4413ZM19.9581 13.6533C19.5929 12.7715 18.9744 12.0179 18.1809 11.4877L17.0698 13.1506C17.5344 13.4611 17.8965 13.9024 18.1104 14.4186L19.9581 13.6533ZM18.1809 11.4877C17.3873 10.9575 16.4544 10.6745 15.5 10.6745V12.6745C16.0588 12.6745 16.6051 12.8402 17.0698 13.1506L18.1809 11.4877ZM15.4815 16.9951C15.2866 16.9987 15.0929 16.963 14.9121 16.8901L14.1639 18.7448C14.594 18.9183 15.0547 19.0034 15.5185 18.9948L15.4815 16.9951ZM14.9121 16.8901C14.7313 16.8171 14.5671 16.7085 14.4292 16.5706L13.015 17.9848C13.343 18.3128 13.7337 18.5713 14.1639 18.7448L14.9121 16.8901ZM14.4292 16.5706C14.2914 16.4328 14.1827 16.2685 14.1098 16.0877L12.255 16.836C12.4286 17.2661 12.687 17.6569 13.015 17.9848L14.4292 16.5706ZM14.1098 16.0877C14.0368 15.9069 14.0011 15.7133 14.0047 15.5184L12.0051 15.4814C11.9965 15.9451 12.0815 16.4058 12.255 16.836L14.1098 16.0877ZM14.0047 15.4814C14.0011 15.2865 14.0368 15.0928 14.1098 14.912L12.255 14.1638C12.0815 14.5939 11.9965 15.0546 12.0051 15.5184L14.0047 15.4814ZM14.1098 14.912C14.1827 14.7312 14.2914 14.567 14.4292 14.4291L13.015 13.0149C12.687 13.3429 12.4286 13.7336 12.255 14.1638L14.1098 14.912ZM14.4292 14.4291C14.5671 14.2913 14.7313 14.1826 14.9121 14.1097L14.1639 12.2549C13.7337 12.4285 13.343 12.6869 13.015 13.0149L14.4292 14.4291ZM14.9121 14.1097C15.0929 14.0368 15.2866 14.001 15.4815 14.0046L15.5185 12.005C15.0547 11.9964 14.594 12.0814 14.1639 12.2549L14.9121 14.1097ZM15.5185 14.0046C15.7134 14.001 15.9071 14.0368 16.0879 14.1097L16.8361 12.2549C16.406 12.0814 15.9453 11.9964 15.4815 12.005L15.5185 14.0046ZM16.0879 14.1097C16.2687 14.1826 16.4329 14.2913 16.5708 14.4291L17.985 13.0149C17.657 12.6869 17.2663 12.4285 16.8361 12.2549L16.0879 14.1097ZM16.5708 14.4291C16.7086 14.567 16.8173 14.7312 16.8902 14.912L18.745 14.1638C18.5714 13.7336 18.313 13.3429 17.985 13.0149L16.5708 14.4291ZM16.8902 14.912C16.9632 15.0928 16.9989 15.2865 16.9953 15.4814L18.9949 15.5184C19.0035 15.0546 18.9185 14.5939 18.745 14.1638L16.8902 14.912ZM16.9953 15.5184C16.9989 15.7133 16.9632 15.9069 16.8902 16.0877L18.745 16.836C18.9185 16.4058 19.0035 15.9451 18.9949 15.4814L16.9953 15.5184ZM16.8902 16.0877C16.8173 16.2685 16.7086 16.4328 16.5708 16.5706L17.985 17.9848C18.313 17.6569 18.5714 17.2661 18.745 16.836L16.8902 16.0877ZM16.5708 16.5706C16.4329 16.7085 16.2687 16.8171 16.0879 16.8901L16.8361 18.7448C17.2663 18.5713 17.657 18.3128 17.985 17.9848L16.5708 16.5706ZM16.0879 16.8901C15.9071 16.963 15.7134 16.9987 15.5185 16.9951L15.4815 18.9948C15.9453 19.0034 16.406 18.9183 16.8361 18.7448L16.0879 16.8901ZM19.492 9.59393C19.1133 9.59393 18.743 9.70623 18.4281 9.91665L19.5392 11.5796C19.5252 11.5889 19.5088 11.5939 19.492 11.5939V9.59393ZM18.4281 9.91665C18.1132 10.1271 17.8677 10.4261 17.7228 10.7761L19.5706 11.5414C19.5641 11.557 19.5532 11.5703 19.5392 11.5796L18.4281 9.91665ZM17.7228 10.7761C17.5779 11.126 17.5399 11.511 17.6138 11.8825L19.5754 11.4923C19.5787 11.5088 19.577 11.5259 19.5706 11.5414L17.7228 10.7761ZM17.6138 11.8825C17.6877 12.2539 17.8701 12.5952 18.1379 12.863L19.5521 11.4487C19.564 11.4606 19.5721 11.4758 19.5754 11.4923L17.6138 11.8825ZM18.1379 12.863C18.4057 13.1308 18.7469 13.3132 19.1184 13.387L19.5086 11.4255C19.5251 11.4288 19.5402 11.4368 19.5521 11.4487L18.1379 12.863ZM19.1184 13.387C19.4899 13.4609 19.8749 13.423 20.2248 13.2781L19.4595 11.4303C19.475 11.4239 19.4921 11.4222 19.5086 11.4255L19.1184 13.387ZM20.2248 13.2781C20.5747 13.1331 20.8738 12.8877 21.0842 12.5728L19.4213 11.4616C19.4306 11.4476 19.4439 11.4367 19.4595 11.4303L20.2248 13.2781ZM21.0842 12.5728C21.2947 12.2579 21.407 11.8876 21.407 11.5089H19.407C19.407 11.4921 19.412 11.4756 19.4213 11.4616L21.0842 12.5728ZM21.4069 11.5008C21.4029 10.9963 21.2006 10.5137 20.8439 10.157L19.4297 11.5712C19.4153 11.5568 19.4072 11.5373 19.407 11.517L21.4069 11.5008ZM20.8439 10.157C20.4872 9.80024 20.0045 9.59804 19.5001 9.59396L19.4839 11.5939C19.4636 11.5937 19.4441 11.5856 19.4297 11.5712L20.8439 10.157Z" fill="#EBEBEB" mask="url(#path-2-inside-1)"/>
</svg>
