<svg width="41" height="35" viewBox="0 0 41 35" fill="none" xmlns="http://www.w3.org/2000/svg">
<path d="M3.16309 2.51149C2.83132 2.51149 2.5625 2.77496 2.5625 3.10012V24.1045C2.5625 24.4297 2.83132 24.6932 3.16309 24.6932H37.8369C38.1687 24.6932 38.4375 24.4297 38.4375 24.1045V3.10012C38.4375 2.77496 38.1687 2.51149 37.8369 2.51149H3.16309ZM3.76367 23.5159V3.68875H20.4647V23.5159H3.76367ZM37.2363 23.5159H21.6659V3.68875H37.2363V23.5159Z" fill="#333333"/>
<path d="M14.0882 15.3791C14.2059 15.4976 14.3622 15.5572 14.5186 15.5572C14.6696 15.5572 14.8207 15.5017 14.9375 15.3904L15.9411 14.4328C16.0573 14.3221 16.1228 14.1699 16.1228 14.0111C16.1228 13.8522 16.0573 13.7 15.9411 13.5893L14.9375 12.6318C14.6997 12.4049 14.3195 12.4102 14.0882 12.643C13.8568 12.876 13.862 13.2487 14.0997 13.4753L14.6613 14.0111L14.0997 14.5468C13.8619 14.7735 13.8568 15.1461 14.0882 15.3791Z" fill="#333333"/>
<path d="M8.733 13.8275C8.40124 13.8275 8.13242 14.0909 8.13242 14.4161C8.13242 14.7413 8.40124 15.0047 8.733 15.0047H10.9432C11.275 15.0047 11.5438 14.7413 11.5438 14.4161C11.5438 14.0909 11.275 13.8275 10.9432 13.8275H8.733Z" fill="#333333"/>
<path d="M16.8708 6.79436H7.35758C6.69582 6.79436 6.15753 7.32209 6.15753 7.9706V16.0945C6.15753 16.7431 6.6959 17.2707 7.35758 17.2707H11.7143C12.0461 17.2707 12.3149 17.0073 12.3149 16.6821C12.3149 16.3569 12.0461 16.0935 11.7143 16.0935L7.35862 16.0945L7.35758 7.97162L10.3906 7.97131V10.1183C10.3906 10.5776 10.7718 10.9511 11.2403 10.9511H12.988C13.4565 10.9511 13.8376 10.5775 13.8376 10.1183V7.97092L16.8696 7.9706L16.8707 16.0935H14.1155C13.7838 16.0935 13.5149 16.3569 13.5149 16.6821C13.5149 17.0073 13.7838 17.2707 14.1155 17.2707H16.8707C17.5325 17.2707 18.0708 16.743 18.0708 16.0945V7.9706C18.0708 7.32209 17.5325 6.79436 16.8708 6.79436ZM12.6365 9.77393H11.5918V7.97162H12.6365V9.77393Z" fill="#333333"/>
<path d="M24.0329 6.41696H26.1827C26.5145 6.41696 26.7833 6.15349 26.7833 5.82833C26.7833 5.50317 26.5145 5.2397 26.1827 5.2397H24.0329C23.7011 5.2397 23.4323 5.50317 23.4323 5.82833C23.4323 6.15349 23.7012 6.41696 24.0329 6.41696Z" fill="#333333"/>
<path d="M24.7848 8.95267C24.7848 9.27783 25.0536 9.5413 25.3854 9.5413H33.8582C34.19 9.5413 34.4588 9.27783 34.4588 8.95267C34.4588 8.62751 34.19 8.36404 33.8582 8.36404H25.3854C25.0536 8.36404 24.7848 8.62759 24.7848 8.95267Z" fill="#333333"/>
<path d="M25.3854 12.0314H33.8582C34.19 12.0314 34.4588 11.7679 34.4588 11.4428C34.4588 11.1176 34.19 10.8541 33.8582 10.8541H25.3854C25.0536 10.8541 24.7848 11.1176 24.7848 11.4428C24.7848 11.7679 25.0536 12.0314 25.3854 12.0314Z" fill="#333333"/>
<path d="M25.3854 14.5214H33.8582C34.19 14.5214 34.4588 14.2579 34.4588 13.9327C34.4588 13.6076 34.19 13.3441 33.8582 13.3441H25.3854C25.0536 13.3441 24.7848 13.6076 24.7848 13.9327C24.7848 14.2579 25.0536 14.5214 25.3854 14.5214Z" fill="#333333"/>
<path d="M23.4725 18.0852V21.1683C23.4725 21.7888 23.9875 22.2935 24.6204 22.2935H34.6231C35.2561 22.2935 35.7711 21.7888 35.7711 21.1683V18.0852C35.7711 17.4648 35.2561 16.96 34.6231 16.96H24.6204C23.9875 16.96 23.4725 17.4647 23.4725 18.0852ZM24.6737 18.1373H34.5699V21.1162H24.6737V18.1373Z" fill="#333333"/>
<path d="M15.7975 19.5033H8.43079C8.09902 19.5033 7.8302 19.7668 7.8302 20.0919C7.8302 20.4171 8.09902 20.6806 8.43079 20.6806H15.7975C16.1293 20.6806 16.3981 20.4171 16.3981 20.0919C16.3981 19.7668 16.1293 19.5033 15.7975 19.5033Z" fill="#333333"/>
<path d="M39.0603 0H36.3712C36.0394 0 35.7706 0.263471 35.7706 0.588631C35.7706 0.913791 36.0394 1.17726 36.3712 1.17726H39.0603C39.4675 1.17726 39.7988 1.50203 39.7988 1.90112V25.3035C39.7988 25.7026 39.4675 26.0274 39.0603 26.0274H1.93981C1.53254 26.0274 1.20117 25.7026 1.20117 25.3035V1.90112C1.20117 1.50203 1.53254 1.17726 1.93981 1.17726H33.9699C34.3016 1.17726 34.5704 0.913791 34.5704 0.588631C34.5704 0.263471 34.3016 0 33.9699 0H1.93981C0.870129 0 0 0.852808 0 1.90112V25.3035C0 26.3518 0.870129 27.2046 1.93981 27.2046H15.6298C15.507 28.4388 14.4878 29.7768 13.4751 31.0803H11.8239C10.5538 31.0803 9.52041 32.0931 9.52041 33.338V34.4114C9.52041 34.7365 9.78923 35 10.121 35H14.0293C14.3611 35 14.6299 34.7365 14.6299 34.4114C14.6299 34.0862 14.3611 33.8227 14.0293 33.8227H10.7216V33.338C10.7216 32.7422 11.2161 32.2576 11.8239 32.2576H29.1763C29.7842 32.2576 30.2787 32.7422 30.2787 33.338V33.8227H16.4304C16.0987 33.8227 15.8298 34.0862 15.8298 34.4114C15.8298 34.7365 16.0987 35 16.4304 35H30.8792C31.211 35 31.4798 34.7365 31.4798 34.4114V33.338C31.4798 32.0932 30.4465 31.0803 29.1762 31.0803H26.7242C25.7115 29.7768 24.6923 28.4388 24.5695 27.2046H39.0603C40.1298 27.2046 41 26.3518 41 25.3035V1.90112C41 0.852808 40.1299 0 39.0603 0ZM25.2208 31.0803H14.9785C15.9195 29.8303 16.7478 28.5455 16.8363 27.2046H23.3629C23.4516 28.5454 24.2798 29.8305 25.2208 31.0803Z" fill="#333333"/>
</svg>
