<svg width="35" height="35" viewBox="0 0 35 35" fill="none" xmlns="http://www.w3.org/2000/svg">
<path d="M28.644 23.3583H25.1365V24.53H28.644V23.3583Z" fill="#333333"/>
<path d="M23.9674 23.3583H20.46V24.53H23.9674V23.3583Z" fill="#333333"/>
<path d="M19.2908 23.3583H15.7834V24.53H19.2908V23.3583Z" fill="#333333"/>
<path d="M34.4821 12.1121L22.9152 0.518463C22.5867 0.18615 22.1391 -0.000584459 21.6724 1.37428e-06H21.6671C21.2034 0.000221062 20.7593 0.187029 20.4342 0.518463L8.16411 12.8133H1.75371C0.785151 12.8133 0 13.6002 0 14.5708V30.9742C0 31.9448 0.785151 32.7317 1.75371 32.7317H10.4147L12.1591 34.4815C12.4875 34.8139 12.9351 35.0006 13.4019 35H13.4065C13.8704 34.9999 14.3148 34.813 14.64 34.4815L16.3878 32.7317H29.8131C30.7817 32.7317 31.5668 31.9448 31.5668 30.9742V17.5199L34.4791 14.6013C34.8115 14.2752 34.9992 13.829 35 13.3628C35.0017 12.8932 34.8151 12.4425 34.4821 12.1121ZM27.0457 6.31645L20.5628 12.8133H15.5987L24.5637 3.82901L27.0457 6.31645ZM21.262 1.34449C21.4844 1.11623 21.8493 1.11184 22.0771 1.33475C22.0804 1.33797 22.0837 1.34119 22.0868 1.34449L23.7371 3.00064L13.9449 12.8133H9.81728L21.262 1.34449ZM13.8122 33.6555C13.7053 33.7674 13.5576 33.8308 13.403 33.8313C13.2464 33.8309 13.0964 33.7676 12.9868 33.6555L12.0685 32.7317H14.7347L13.8122 33.6555ZM30.3977 30.9742C30.3977 31.2977 30.1359 31.56 29.8131 31.56H1.75371C1.43088 31.56 1.16914 31.2977 1.16914 30.9742V22.7725H30.3977V30.9742ZM30.3977 21.6008H1.16914V18.0858H30.3977V21.6008ZM30.3977 16.9142H1.16914V14.5708C1.16914 14.2473 1.43088 13.985 1.75371 13.985H29.8131C30.1359 13.985 30.3977 14.2473 30.3977 14.5708V16.9142ZM33.6555 13.77L31.5668 15.8632V14.5708C31.5668 13.6002 30.7817 12.8133 29.8131 12.8133H22.2137L27.87 7.14482L33.6531 12.9405C33.7654 13.0507 33.8287 13.2017 33.8285 13.3593C33.8284 13.514 33.766 13.6621 33.6555 13.77Z" fill="#333333"/>
<path d="M5.60662 30.4041C5.69196 30.3302 5.7719 30.2501 5.8457 30.1645C6.61873 31.0669 7.94694 31.2383 8.92288 30.5617C9.55276 30.1204 9.93083 29.401 9.9377 28.6308C9.9377 27.3366 8.89081 26.2875 7.59942 26.2875C7.48338 26.2859 7.36749 26.2957 7.25335 26.3168L7.23815 26.3209C7.23231 26.3209 7.22646 26.3209 7.2212 26.3209C6.68566 26.4101 6.19864 26.6855 5.8457 27.0989C5.001 26.1199 3.5243 26.0127 2.54756 26.8593C1.57074 27.7058 1.46369 29.1857 2.30847 30.1645C3.15317 31.1435 4.6298 31.2507 5.60662 30.4041ZM7.45152 27.4715C7.50026 27.4622 7.5498 27.4581 7.59942 27.4592C8.24515 27.4592 8.76856 27.9837 8.76856 28.6308C8.76797 28.8787 8.68738 29.1198 8.53882 29.318C8.51778 29.3467 8.50141 29.3766 8.47744 29.4065C8.47335 29.4112 8.4675 29.4141 8.46283 29.4188C8.24201 29.6631 7.92838 29.8026 7.59942 29.8025C6.95383 29.7914 6.43934 29.258 6.45037 28.611C6.46016 28.0366 6.88412 27.5539 7.45152 27.4715ZM4.09199 27.4592C4.73772 27.4592 5.26113 27.9837 5.26113 28.6308C5.26113 29.2779 4.73772 29.8025 4.09199 29.8025C3.44626 29.8025 2.92285 29.2779 2.92285 28.6308C2.92285 27.9837 3.44626 27.4592 4.09199 27.4592Z" fill="#333333"/>
</svg>
