<svg width="35" height="35" viewBox="0 0 35 35" fill="none" xmlns="http://www.w3.org/2000/svg">
<path d="M0.55043 4.86691H34.4501V5.95984H0.55043V4.86691Z" fill="#333333"/>
<path fill-rule="evenodd" clip-rule="evenodd" d="M3.25527 2.44891C3.54977 2.44891 3.78219 2.68926 3.78219 2.97582C3.78219 3.27031 3.54977 3.51066 3.25527 3.51066C2.96078 3.51066 2.72809 3.27031 2.72809 2.97582C2.72809 2.68926 2.96078 2.44891 3.25527 2.44891ZM7.87418 2.44891C8.16867 2.44891 8.40109 2.68926 8.40109 2.97582C8.40109 3.27031 8.16867 3.51066 7.87418 3.51066C7.57941 3.51066 7.33934 3.27031 7.33934 2.97582C7.33961 2.68926 7.57969 2.44891 7.87418 2.44891ZM5.56473 2.44891C5.85922 2.44891 6.09164 2.68926 6.09164 2.97582C6.09164 3.27031 5.85922 3.51066 5.56473 3.51066C5.27023 3.51066 5.02988 3.27031 5.02988 2.97582C5.02988 2.68926 5.27023 2.44891 5.56473 2.44891Z" fill="#333333"/>
<path d="M31.0548 2.43332C31.357 2.43332 31.5973 2.67367 31.5973 2.97582C31.5973 3.27797 31.357 3.52625 31.0548 3.52625H12.4469C12.1447 3.52625 11.8964 3.27824 11.8964 2.97582C11.8964 2.67367 12.1445 2.43332 12.4469 2.43332H31.0548Z" fill="#333333"/>
<path d="M22.5608 17.1511C22.5608 16.1126 23.0415 15.4459 23.6696 15.1361C23.9173 15.0199 24.1886 14.9579 24.4675 14.9579C24.7466 14.9579 25.0176 15.0199 25.2659 15.1438C25.9014 15.4536 26.3977 16.1282 26.3977 17.1511V22.429C26.5371 22.4599 26.7928 22.522 27.0326 22.5838C27.971 22.8009 28.7533 22.9871 30.0013 23.4287C30.4814 23.5993 30.9392 23.9559 31.2722 24.3901C31.5973 24.8237 31.8068 25.3354 31.8068 25.8393V33.0157C31.8068 34.1009 30.908 35 29.8148 35H24.5448C23.6305 35 22.6382 34.4187 22.0648 33.7135L18.1746 28.9548C17.5309 28.1955 17.3994 27.3891 17.5853 26.7463C17.6704 26.4518 17.8333 26.1882 18.0425 25.9788C18.2517 25.7693 18.5232 25.6145 18.8254 25.5369C19.5923 25.3356 20.3826 25.6843 20.9407 26.2114L22.5605 27.6218V17.1511H22.5608ZM24.1421 16.1205C23.8708 16.26 23.654 16.5933 23.654 17.1514V28.8313C23.654 28.9551 23.6075 29.0872 23.514 29.1878C23.3207 29.4126 22.9715 29.4358 22.747 29.242L20.2278 27.0334C19.848 26.7312 19.259 26.3123 18.8098 26.7542C18.3755 27.1805 18.678 27.8625 19.011 28.2499L22.8782 32.993C23.0956 33.2798 23.7932 33.9076 24.5446 33.9076H29.8145C30.3105 33.9076 30.7059 33.5046 30.7059 33.0162V25.8393C30.7059 25.5757 30.59 25.2968 30.4038 25.0485C30.1943 24.7773 29.9157 24.5602 29.6363 24.4598C28.4586 24.0412 27.6913 23.8629 26.7769 23.6458C26.6221 23.607 26.4666 23.5684 26.0794 23.4752C25.8464 23.421 25.6531 23.2892 25.5213 23.1186C25.3818 22.9406 25.3039 22.7235 25.3039 22.4908V17.1511C25.3039 16.6086 25.0797 16.2676 24.7929 16.1282C24.684 16.074 24.5755 16.0505 24.4672 16.0505C24.3589 16.0505 24.2506 16.074 24.1421 16.1205Z" fill="#333333"/>
<path d="M14.9734 8.53289C15.33 8.53289 15.663 8.68027 15.8957 8.92035C16.1361 9.15305 16.2832 9.48609 16.2832 9.84266V19.918C16.2832 20.2746 16.1358 20.6076 15.8957 20.8403V20.848C15.663 21.0807 15.33 21.228 14.9734 21.228H4.4718C4.1073 21.228 3.78191 21.0807 3.54184 20.848V20.8403C3.30176 20.6076 3.15438 20.2746 3.15438 19.918V9.84266C3.15438 9.48609 3.30176 9.15305 3.54184 8.92035C3.78191 8.68 4.10758 8.53289 4.4718 8.53289H14.9734ZM11.0518 18.5076C10.7496 18.5076 10.5016 18.2596 10.5016 17.9572C10.5016 17.6548 10.7496 17.4147 11.0518 17.4147H13.1368C13.4389 17.4147 13.6793 17.6548 13.6793 17.9572C13.6793 18.2596 13.4389 18.5076 13.1368 18.5076H11.0518ZM12.0206 13.3536C12.0206 13.5163 11.9741 13.6713 11.8888 13.8031C11.8035 13.9349 11.6796 14.0432 11.5246 14.1129C11.2224 14.2447 10.8735 14.1906 10.6255 13.9658L9.74203 13.1753L8.80414 13.9967C8.55613 14.2059 8.2075 14.26 7.90508 14.1206C7.7577 14.0585 7.64148 13.9502 7.54852 13.8184C7.4632 13.679 7.41672 13.5239 7.41672 13.3612V9.62582H4.4718C4.40973 9.62582 4.35559 9.64906 4.31676 9.68789C4.27793 9.72672 4.25469 9.78086 4.25469 9.84293V19.9183C4.25469 19.9804 4.27793 20.0345 4.31676 20.0733C4.35559 20.1122 4.40973 20.1354 4.4718 20.1354H14.9734C15.0355 20.1354 15.0896 20.1122 15.1285 20.0733C15.1673 20.0342 15.1905 19.9801 15.1905 19.9183V9.84266C15.1905 9.78059 15.1673 9.72645 15.1285 9.68762C15.0896 9.64879 15.0355 9.62555 14.9734 9.62555H12.0206V13.3536ZM10.9279 9.62582H8.50992V12.7955L9.19953 12.1989C9.34691 12.0671 9.56375 11.9973 9.75762 11.9973C9.95121 11.9973 10.1527 12.0671 10.3078 12.2068L10.9279 12.7725V9.62582Z" fill="#333333"/>
<path d="M20.8636 17.7557C21.1657 17.7557 21.4143 17.996 21.4143 18.2982C21.4143 18.6006 21.166 18.8486 20.8636 18.8486H20.4373C19.5223 18.8486 18.7791 18.1046 18.7791 17.1899V14.3533C18.7791 13.4386 19.5305 12.6946 20.4373 12.6946H29.9701C30.8768 12.6946 31.6209 13.4386 31.6209 14.3533V17.1899C31.6209 18.1046 30.8768 18.8486 29.9701 18.8486H28.3579C28.0558 18.8486 27.8078 18.6009 27.8078 18.2982C27.8078 17.996 28.0555 17.7557 28.3579 17.7557H29.9701C30.2799 17.7557 30.5282 17.5 30.5282 17.1899V14.3533C30.5282 14.0432 30.2799 13.7875 29.9701 13.7875H20.4373C20.1275 13.7875 19.8718 14.0432 19.8718 14.3533V17.1899C19.8718 17.5 20.1277 17.7557 20.4373 17.7557H20.8636Z" fill="#333333"/>
<path d="M3.70453 26.2423C3.40238 26.2423 3.15438 25.9943 3.15438 25.6919C3.15438 25.3895 3.40238 25.1494 3.70453 25.1494H6.31641C6.61855 25.1494 6.86684 25.3898 6.86684 25.6919C6.86684 25.9941 6.61883 26.2423 6.31641 26.2423H3.70453ZM3.70453 23.9326C3.40238 23.9326 3.15438 23.6846 3.15438 23.3901C3.15438 23.088 3.40238 22.8397 3.70453 22.8397H10.7805C11.0827 22.8397 11.323 23.0877 11.323 23.3901C11.323 23.6846 11.083 23.9326 10.7805 23.9326H3.70453Z" fill="#333333"/>
<path d="M15.5933 28.017C15.8878 28.017 16.1358 28.265 16.1358 28.5674C16.1358 28.8698 15.8878 29.1099 15.5933 29.1099H1.55777C1.10824 29.1099 0.720508 28.9237 0.441602 28.6215C0.162695 28.327 0 27.9163 0 27.4821V1.60426C0 0.728437 0.728437 0 1.60426 0H33.3875C34.2716 0 35 0.728437 35 1.60426V27.4821C35 27.924 34.8061 28.3347 34.4963 28.6292C34.1942 28.9237 33.7835 29.1099 33.3411 29.1099C33.0389 29.1099 32.7909 28.8695 32.7909 28.5674C32.7909 28.2652 33.0386 28.017 33.3411 28.017C33.4884 28.017 33.6279 27.9549 33.7367 27.8463C33.8371 27.7457 33.9071 27.6139 33.9071 27.4821V1.60426C33.9071 1.32535 33.6741 1.09266 33.3875 1.09266H1.60426C1.32508 1.09266 1.09266 1.32535 1.09266 1.60426V27.4821C1.09266 27.6371 1.1468 27.7843 1.24004 27.8775C1.32535 27.9628 1.43363 28.017 1.55777 28.017H15.5933Z" fill="#333333"/>
</svg>
