<svg width="30" height="30" viewBox="0 0 30 30" fill="none" xmlns="http://www.w3.org/2000/svg">
<circle cx="15" cy="15" r="14.5" stroke="#EBEBEB"/>
<path d="M21.1878 15.751C21.1154 15.4217 20.9548 15.1455 20.7065 14.9224C20.4581 14.6992 20.1722 14.5681 19.8484 14.529C18.8217 14.4174 17.2732 14.3616 15.2027 14.3616C13.1323 14.3616 11.5866 14.4174 10.5654 14.529C10.2362 14.5681 9.94882 14.6992 9.7032 14.9224C9.45763 15.1456 9.29579 15.4218 9.21763 15.751C9.07256 16.3985 9 17.375 9 18.6808C9 20.0089 9.07256 20.9855 9.21763 21.6106C9.29028 21.9397 9.45074 22.2161 9.69906 22.4391C9.94739 22.6624 10.2334 22.7907 10.557 22.8242C11.5839 22.9414 13.1325 23 15.2028 23C17.2729 23 18.8218 22.9414 19.8483 22.8242C20.1721 22.7907 20.4566 22.6624 20.7023 22.4391C20.9479 22.2161 21.1097 21.9397 21.1878 21.6106C21.3328 20.9632 21.4055 19.9866 21.4055 18.6808C21.4055 17.3527 21.3328 16.3761 21.1878 15.751ZM12.541 16.5966H11.6454V21.3594H10.8084V16.5966H9.92944V15.8098H12.5411L12.541 16.5966ZM14.801 21.3594H14.0561V20.9072C13.7547 21.2478 13.47 21.4179 13.2022 21.4179C12.9455 21.4179 12.7837 21.3146 12.7168 21.1082C12.6722 20.9743 12.6498 20.7705 12.6498 20.4971V17.2243H13.3947V20.2712C13.3947 20.4496 13.3975 20.5474 13.4032 20.5641C13.4199 20.6813 13.4785 20.7399 13.579 20.7399C13.7296 20.7399 13.8887 20.6227 14.0561 20.3883V17.2243H14.8011L14.801 21.3594ZM17.647 20.1205C17.647 20.5278 17.622 20.807 17.572 20.9577C17.4769 21.2645 17.2789 21.4179 16.9776 21.4179C16.7097 21.4179 16.4503 21.2645 16.199 20.9577V21.3594H15.4542V15.8098H16.199V17.6262C16.4391 17.325 16.6985 17.1743 16.9776 17.1743C17.2789 17.1743 17.4769 17.3306 17.572 17.6431C17.6219 17.7881 17.647 18.0643 17.647 18.4717V20.1205ZM20.4763 19.4342H18.978V20.1624C18.978 20.5475 19.1063 20.7399 19.363 20.7399C19.5471 20.7399 19.6588 20.6396 19.6978 20.4385C19.7088 20.3827 19.7146 20.2126 19.7146 19.928H20.4763V20.0368C20.4763 20.3103 20.4706 20.472 20.4595 20.5224C20.4429 20.6729 20.3844 20.8236 20.2837 20.9743C20.0829 21.2701 19.7813 21.4179 19.3795 21.4179C18.9947 21.4179 18.6933 21.2756 18.4756 20.9911C18.3138 20.7846 18.233 20.461 18.233 20.0201V18.5719C18.233 18.1311 18.311 17.8074 18.4671 17.6009C18.6849 17.3164 18.9834 17.1741 19.363 17.1741C19.737 17.1741 20.0329 17.3164 20.2503 17.6009C20.4011 17.8074 20.4763 18.1311 20.4763 18.5719V19.4342Z" fill="#EBEBEB"/>
<path d="M16.5755 17.8522C16.4471 17.8522 16.3217 17.9138 16.1989 18.0364V20.5558C16.3216 20.6785 16.4471 20.7399 16.5755 20.7399C16.793 20.7399 16.9021 20.5531 16.9021 20.1791V18.413C16.9021 18.0391 16.7932 17.8522 16.5755 17.8522Z" fill="#EBEBEB"/>
<path d="M19.3547 17.8522C19.1036 17.8522 18.978 18.042 18.978 18.4212V18.8063H19.7313V18.4212C19.7313 18.0418 19.6057 17.8522 19.3547 17.8522Z" fill="#EBEBEB"/>
<path d="M12.0558 11.3398V13.6083H12.8928V11.3398L13.9055 8H13.0517L12.4826 10.2015L11.8882 8H11.001C11.1573 8.4688 11.3386 8.99051 11.5451 9.56533C11.8074 10.3354 11.9775 10.927 12.0558 11.3398Z" fill="#EBEBEB"/>
<path d="M15.0271 13.6669C15.4122 13.6669 15.7078 13.5246 15.9143 13.24C16.0706 13.0335 16.1487 12.7042 16.1487 12.2523V10.7874C16.1487 10.341 16.0704 10.0145 15.9143 9.80798C15.7078 9.52339 15.4122 9.38108 15.0271 9.38108C14.6531 9.38108 14.3601 9.52339 14.1481 9.80798C13.992 10.0145 13.9138 10.341 13.9138 10.7874V12.2523C13.9138 12.6986 13.9919 13.0279 14.1481 13.24C14.3602 13.5246 14.6531 13.6669 15.0271 13.6669ZM14.6671 10.6367C14.6671 10.2516 14.7871 10.0591 15.0271 10.0591C15.2671 10.0591 15.387 10.2516 15.387 10.6367V12.3945C15.387 12.7852 15.2671 12.9804 15.0271 12.9804C14.7871 12.9804 14.6671 12.7851 14.6671 12.3945V10.6367Z" fill="#EBEBEB"/>
<path d="M17.3288 13.6669C17.608 13.6669 17.8955 13.4939 18.1911 13.1478V13.6082H18.9529V9.43135H18.1911V12.6205C18.0237 12.8605 17.8647 12.9804 17.7139 12.9804C17.6133 12.9804 17.5547 12.919 17.5381 12.7963C17.5325 12.7851 17.5297 12.6873 17.5297 12.5033V9.43135H16.7679V12.7294C16.7679 13.0139 16.7904 13.2231 16.835 13.3571C16.9076 13.5636 17.0721 13.6669 17.3288 13.6669Z" fill="#EBEBEB"/>
</svg>
