<svg xmlns="http://www.w3.org/2000/svg" width="20" height="19.846"><g data-name="Group 7724" fill="#ffd800"><path data-name="Path 11" d="M11.759 1.221l-1.072.746.355 1.156-1-.711-1.027.7.394-1.152-1.056-.743h1.31l.416-1.22.379 1.22h1.306"/><path data-name="Path 12" d="M11.759 17.943l-1.072.746.355 1.158-1-.711-1.027.7.394-1.153-1.056-.743h1.31l.416-1.219.379 1.219h1.306"/><path data-name="Path 13" d="M3.412 9.57l-1.072.746.353 1.156-1-.71-1.027.7.394-1.152-1.056-.743h1.31l.415-1.22.38 1.22h1.306"/><path data-name="Path 14" d="M4.885 5.311l-1.072.744.355 1.158-1-.71-1.027.7.394-1.152-1.056-.743h1.31l.416-1.22.38 1.22h1.3"/><path data-name="Path 15" d="M7.55 2.577l-1.072.744.353 1.158-1-.711-1.029.7.394-1.153-1.058-.738h1.309l.416-1.22.38 1.22h1.306"/><path data-name="Path 16" d="M15.827 2.577l-1.072.744.353 1.158-1-.711-1.027.7.394-1.153-1.06-.738h1.309l.416-1.22.379 1.22h1.307"/><path data-name="Path 17" d="M18.57 5.311l-1.072.744.355 1.158-1-.71-1.027.7.394-1.152-1.054-.743h1.309l.416-1.22.38 1.22h1.3"/><path data-name="Path 18" d="M4.84 13.721l-1.072.746.355 1.156-1-.71-1.027.7.394-1.152-1.054-.743h1.309l.416-1.22.38 1.22h1.3"/><path data-name="Path 19" d="M7.514 16.56l-1.072.746.353 1.156-1-.71-1.029.7.394-1.152-1.054-.743h1.309l.418-1.22.379 1.22h1.306"/><path data-name="Path 20" d="M15.898 16.56l-1.072.746.353 1.156-1-.71-1.027.7.394-1.152-1.056-.743h1.309l.418-1.22.379 1.22h1.306"/><path data-name="Path 21" d="M18.615 13.721l-1.072.746.355 1.156-1-.71-1.027.7.394-1.152-1.054-.743h1.309l.416-1.22.38 1.22h1.3"/><path data-name="Path 22" d="M20 9.57l-1.072.746.353 1.156-1-.71-1.027.7.392-1.152-1.054-.743h1.309l.416-1.22.382 1.22h1.3"/></g></svg>