<?xml version="1.0" encoding="UTF-8"?>
<svg width="34px" height="34px" viewBox="0 0 34 34" version="1.1" xmlns="http://www.w3.org/2000/svg" xmlns:xlink="http://www.w3.org/1999/xlink">
    <!-- Generator: Sketch 63.1 (92452) - https://sketch.com -->
    <title>Group 24</title>
    <desc>Created with Sketch.</desc>
    <defs>
        <linearGradient x1="42.8520833%" y1="7.24567819%" x2="78.2662899%" y2="94.0618564%" id="linearGradient-1">
            <stop stop-color="#72D98D" offset="0%"></stop>
            <stop stop-color="#2AB095" offset="100%"></stop>
        </linearGradient>
    </defs>
    <g id="Page-1" stroke="none" stroke-width="1" fill="none" fill-rule="evenodd">
        <g id="matan--calculator-5" transform="translate(-1434.000000, -1014.000000)">
            <g id="Group-24" transform="translate(1436.000000, 1016.000000)">
                <circle id="Oval" stroke="#FFFFFF" stroke-width="3" fill="url(#linearGradient-1)" cx="15" cy="15" r="15"></circle>
                <g id="Group-6" transform="translate(8.000000, 11.000000)" fill="#2C9172" fill-rule="nonzero" stroke="#2C9172" stroke-width="0.855">
                    <g id="iconfinder_arrow-button027_1941401" transform="translate(2.500000, 4.550000) rotate(-90.000000) translate(-2.500000, -4.550000) translate(-1.500000, 2.050000)">
                        <path d="M0.241794,4.11084 C0.375333139,4.24437914 0.591842861,4.24437914 0.725382,4.11084 L3.869046,0.967176 L3.869046,0.967176 L7.01303979,4.11085221 C7.14658765,4.24438658 7.36309889,4.24438111 7.49664,4.11084 C7.63017324,3.97730676 7.63017324,3.76080661 7.49664,3.62727337 C7.49663644,3.62726981 7.49663288,3.62726625 7.49662931,3.62726269 L3.869046,0 L3.869046,0 L0.241794,3.627252 C0.108254861,3.76079114 0.108254861,3.97730086 0.241794,4.11084 Z" id="half-arrow-up-7"></path>
                    </g>
                    <g id="iconfinder_arrow-button027_1941401-copy" transform="translate(11.180000, 4.550000) scale(-1, 1) rotate(-90.000000) translate(-11.180000, -4.550000) translate(7.180000, 2.050000)">
                        <path d="M0.241794,4.11084 C0.375333139,4.24437914 0.591842861,4.24437914 0.725382,4.11084 L3.869046,0.967176 L3.869046,0.967176 L7.01303979,4.11085221 C7.14658765,4.24438658 7.36309889,4.24438111 7.49664,4.11084 C7.63017324,3.97730676 7.63017324,3.76080661 7.49664,3.62727337 C7.49663644,3.62726981 7.49663288,3.62726625 7.49662931,3.62726269 L3.869046,0 L3.869046,0 L0.241794,3.627252 C0.108254861,3.76079114 0.108254861,3.97730086 0.241794,4.11084 Z" id="half-arrow-up-7"></path>
                    </g>
                </g>
            </g>
        </g>
    </g>
</svg>