<?xml version="1.0" encoding="UTF-8"?>
<svg width="19px" height="17px" viewBox="0 0 19 17" version="1.1" xmlns="http://www.w3.org/2000/svg" xmlns:xlink="http://www.w3.org/1999/xlink">
    <!-- Generator: Sketch 63.1 (92452) - https://sketch.com -->
    <title>iconfinder_message-comment-dialog-form_495550</title>
    <desc>Created with Sketch.</desc>
    <g id="Page-2" stroke="none" stroke-width="1" fill="none" fill-rule="evenodd">
        <g id="matan-Mortgage-Marketplace-18-Copy" transform="translate(-1177.000000, -32.000000)" fill="#C4CAC8">
            <g id="iconfinder_message-comment-dialog-form_495550" transform="translate(1177.000000, 32.000000)">
                <path d="M0.772144119,0.00143411507 L18.2278559,0.00143411507 C18.6526081,0.00143411507 19,0.342753501 19,0.760080985 L19,6.61127046 L19,11.7626118 L19,16.6959676 L18.9737267,16.6959676 C18.9357763,16.8680614 18.7504033,17 18.52708,17 C18.4336637,17 18.3475455,16.9770542 18.274564,16.9368989 C17.5155566,16.5224397 13.7190597,13.4778134 12.6841822,12.5212586 L0.772144119,12.5212586 C0.347391872,12.5212586 0,12.1799393 0,11.7626118 L0,0.75864687 C0,0.341319386 0.347391872,0 0.772144119,0 L0.772144119,0.00143411507 Z M3.18345241,2.25156065 L15.8180072,2.25156065 C16.0179765,2.25156065 16.181455,2.41218154 16.181455,2.60865531 L16.181455,3.68137338 C16.181455,3.87784714 16.0179765,4.03846803 15.8180072,4.03846803 L3.18345241,4.03846803 C2.98348314,4.03846803 2.82000461,3.87784714 2.82000461,3.68137338 L2.82000461,2.60865531 C2.82000461,2.41218154 2.98348314,2.25156065 3.18345241,2.25156065 Z M3.18345241,8.41538721 L9.2642698,8.41538721 C9.46423907,8.41538721 9.6277176,8.5760081 9.6277176,8.77248186 L9.6277176,9.84519993 C9.6277176,10.0416737 9.46423907,10.2022946 9.2642698,10.2022946 L3.18345241,10.2022946 C2.98348314,10.2022946 2.82000461,10.0416737 2.82000461,9.84519993 L2.82000461,8.77248186 C2.82000461,8.5760081 2.98348314,8.41538721 3.18345241,8.41538721 Z M3.18345241,5.36932681 L15.8180072,5.36932681 C16.0179765,5.36932681 16.181455,5.5299477 16.181455,5.72642146 L16.181455,6.79913953 C16.181455,6.9956133 16.0179765,7.15623418 15.8180072,7.15623418 L3.18345241,7.15623418 C2.98348314,7.15623418 2.82000461,6.9956133 2.82000461,6.79913953 L2.82000461,5.72642146 C2.82000461,5.5299477 2.98348314,5.36932681 3.18345241,5.36932681 Z" id="Shape"></path>
            </g>
        </g>
    </g>
</svg>