<?xml version="1.0" encoding="UTF-8"?>
<svg width="36px" height="37px" viewBox="0 0 36 37" version="1.1" xmlns="http://www.w3.org/2000/svg" xmlns:xlink="http://www.w3.org/1999/xlink">
    <!-- Generator: Sketch 63.1 (92452) - https://sketch.com -->
    <title>iconfinder_Finance-11_1863913</title>
    <desc>Created with Sketch.</desc>
    <g id="Page-1" stroke="none" stroke-width="1" fill="none" fill-rule="evenodd">
        <g id="matan--calculator-8" transform="translate(-107.000000, -222.000000)" fill="#9EA6BE" fill-rule="nonzero">
            <g id="iconfinder_Finance-11_1863913" transform="translate(107.000000, 222.000000)">
                <path d="M0.41799157,4.94930879 L4.90413488,0.415741371 C5.17849012,0.138627754 5.53765116,0 5.89709302,0 L22.7459302,0 C23.521398,0 24.15,0.635247139 24.15,1.41891253 L24.15,6.81092202 L21.3418605,6.81092202 L21.3418605,2.83796695 L7.43665552,2.83796695 L7.43665552,6.1040198 C7.43665552,6.8875433 6.80777267,7.52293233 6.03258576,7.52293233 L2.80813953,7.52293233 L2.80813953,28.6621749 L13.7558119,28.6621749 L13.7558119,31.5 L1.40406977,31.5 C0.628602035,31.5 0,30.864611 0,30.0812294 L0,5.95943262 C0,5.56412359 0.16160843,5.20840221 0.41799157,4.94930879 L0.41799157,4.94930879 Z M6.31494419,15.4667141 L11.3695953,15.4667141 L11.3695953,17.1694091 L6.31494419,17.1694091 L6.31494419,15.4667141 L6.31494419,15.4667141 Z M6.31494419,11.4939009 L12.0709282,11.4939009 L12.0709282,13.1967379 L6.31494419,13.1967379 L6.31494419,11.4939009 L6.31494419,11.4939009 Z M6.31494419,23.4123405 L11.2291884,23.4123405 L11.2291884,25.1150355 L6.31494419,25.1150355 L6.31494419,23.4123405 L6.31494419,23.4123405 Z M6.31494419,19.4395273 L12.0709282,19.4395273 L12.0709282,21.1422223 L6.31494419,21.1422223 L6.31494419,19.4395273 L6.31494419,19.4395273 Z" id="Shape"></path>
                <g id="Group" transform="translate(14.700000, 8.400000)">
                    <path d="M18.5568611,0.07073325 L2.65122585,0.07073325 C1.2652731,0.07073325 0.141175125,1.1824785 0.141175125,2.553201 L0.141175125,25.2066938 C0.141175125,25.7036693 0.472542525,26.1412515 0.95196465,26.2875375 C4.07831288,27.240948 7.33336695,27.7122668 10.6040435,27.7122668 C13.9698878,27.7122668 16.9430216,27.2220953 20.1708439,26.313336 C20.6759212,26.171019 21.0667685,25.74747 21.0667685,25.206552 L21.0667685,2.553201 C21.0667685,1.18233675 19.9428138,0.07073325 18.5568611,0.07073325 Z M9.20863125,22.2906127 L7.99251863,23.4933615 L6.87773678,22.3909718 L5.76295493,23.4933615 L4.5468423,22.2906127 L5.66162415,21.1880812 L4.5468423,20.0855497 L5.76295493,18.882801 L6.87773678,19.9853325 L7.99251863,18.882801 L9.20863125,20.0855497 L8.09370608,21.1880812 L9.20863125,22.2906127 Z M9.31426178,15.9473003 L7.73768678,15.9473003 L7.73768678,17.5064085 L6.01778678,17.5064085 L6.01778678,15.9473003 L4.44121178,15.9473003 L4.44121178,14.246442 L6.01778678,14.246442 L6.01778678,12.6870503 L7.73768678,12.6870503 L7.73768678,14.246442 L9.31426178,14.246442 L9.31426178,15.9473003 Z M16.7670185,23.4518288 L11.8941118,23.4518288 L11.8941118,21.7509705 L16.7670185,21.7509705 L16.7670185,23.4518288 Z M16.7670185,20.6250503 L11.8941118,20.6250503 L11.8941118,18.924192 L16.7670185,18.924192 L16.7670185,20.6250503 Z M16.7670185,15.9473003 L11.8941118,15.9473003 L11.8941118,14.246442 L16.7670185,14.246442 L16.7670185,15.9473003 Z M17.0535251,9.71030025 L4.15427513,9.71030025 L4.15427513,4.040442 L17.0535251,4.040442 L17.0535251,9.71030025 Z" id="Shape"></path>
                    <rect id="Rectangle" x="12.6113101" y="7.5844755" width="3.4398" height="1.134"></rect>
                </g>
            </g>
        </g>
    </g>
</svg>