<?xml version="1.0" encoding="UTF-8"?>
<svg width="18px" height="20px" viewBox="0 0 18 20" version="1.1" xmlns="http://www.w3.org/2000/svg" xmlns:xlink="http://www.w3.org/1999/xlink">
    <!-- Generator: Sketch 63.1 (92452) - https://sketch.com -->
    <title>iconfinder_030_011_robot_artificial_intelligence_ai_science_1641874</title>
    <desc>Created with Sketch.</desc>
    <g id="Page-2" stroke="none" stroke-width="1" fill="none" fill-rule="evenodd">
        <g id="matan-Mortgage-Marketplace-18-Copy" transform="translate(-1307.000000, -31.000000)" fill="#2EC38D" fill-rule="nonzero">
            <g id="iconfinder_030_011_robot_artificial_intelligence_ai_science_1641874" transform="translate(1307.000000, 30.000000)">
                <path d="M9,1 C6.23857625,1 4,3.23857625 4,6 L4,8 L14,8 L14,6 C14,3.23857625 11.7614237,1 9,1 L9,1 Z M7,6 C6.44771525,6 6,5.55228475 6,5 C6,4.44771525 6.44771525,4 7,4 C7.55228475,4 8,4.44771525 8,5 C8,5.55228475 7.55228475,6 7,6 Z M11,6 C10.4477153,6 10,5.55228475 10,5 C10,4.44771525 10.4477153,4 11,4 C11.5522847,4 12,4.44771525 12,5 C12,5.55228475 11.5522847,6 11,6 Z" id="Shape"></path>
                <path d="M4,10.5 L4,20 C4,20.5522847 4.44771525,21 5,21 C5.55228475,21 6,20.5522847 6,20 L6,17 L12,17 L12,20 C12,20.5522847 12.4477153,21 13,21 C13.5522847,21 14,20.5522847 14,20 L14,10.5 L4,10.5 Z" id="Path"></path>
                <path d="M17.001,15.5000019 C16.6217627,15.5007315 16.274834,15.2865989 16.10549,14.94727 L14.6582,12.05273 C14.4898544,11.7131994 14.1431723,11.4988576 13.7642,11.5 L4.23584,11.5 C3.85686773,11.4988576 3.51018563,11.7131994 3.34184,12.05273 L1.89453,14.94727 C1.64650019,15.4394111 1.04708227,15.6381588 0.55415494,15.3916951 C0.0612276091,15.1452315 -0.139425031,14.5464485 0.10547,14.05274 L1.55273,11.1582 C2.05804671,10.1393407 3.09856017,9.49628867 4.23584,9.49998402 L13.76416,9.49998402 C14.9014398,9.49628867 15.9419533,10.1393407 16.44727,11.1582 L17.89454,14.05273 C18.0495449,14.3625779 18.0331105,14.7305841 17.8511034,15.0253818 C17.6690962,15.3201794 17.3474566,15.4997529 17.001,15.5000019 Z" id="Path"></path>
                <path d="M5.75049,3.75000163 C5.52251412,3.75047613 5.3067752,3.64692189 5.16455,3.46875 L4.16455,2.21875 C3.90880481,1.89523298 3.96223377,1.42592925 4.2841548,1.16817798 C4.60607583,0.910426709 5.07570261,0.960937403 5.33545,1.28125 L6.33545,2.53125 C6.5156157,2.75627675 6.55086682,3.06464956 6.42613253,3.32453044 C6.30139823,3.58441132 6.03875494,3.74980459 5.75049,3.75000163 Z" id="Path"></path>
                <path d="M12.28271,3.75000155 C11.9944378,3.74981995 11.7317805,3.5844325 11.6070362,3.32454845 C11.4822918,3.06466439 11.5175398,2.75628238 11.69771,2.53125 L12.69771,1.28125 C12.8645669,1.0701765 13.1317043,0.964655345 13.397764,1.00472379 C13.6638237,1.04479224 13.8880344,1.22431017 13.9853252,1.47516417 C14.082616,1.72601817 14.038078,2.00976717 13.86861,2.21875 L12.86861,3.46875 C12.7263935,3.64691089 12.5106719,3.75046392 12.28271,3.75000155 Z" id="Path"></path>
            </g>
        </g>
    </g>
</svg>
