<?xml version="1.0" encoding="UTF-8"?>
<svg width="32px" height="32px" viewBox="0 0 32 32" version="1.1" xmlns="http://www.w3.org/2000/svg" xmlns:xlink="http://www.w3.org/1999/xlink">
    <!-- Generator: Sketch 63.1 (92452) - https://sketch.com -->
    <title>iconfinder_analytics-graph-bars_351377</title>
    <desc>Created with Sketch.</desc>
    <defs>
        <linearGradient x1="50%" y1="0%" x2="78.2662899%" y2="94.0618564%" id="linearGradient-1">
            <stop stop-color="#72D98D" offset="0%"></stop>
            <stop stop-color="#2AB095" offset="100%"></stop>
        </linearGradient>
        <linearGradient x1="50%" y1="0%" x2="55.6763345%" y2="94.0618564%" id="linearGradient-2">
            <stop stop-color="#72D98D" offset="0%"></stop>
            <stop stop-color="#2AB095" offset="100%"></stop>
        </linearGradient>
        <linearGradient x1="50%" y1="0%" x2="52.5799939%" y2="94.0618564%" id="linearGradient-3">
            <stop stop-color="#72D98D" offset="0%"></stop>
            <stop stop-color="#2AB095" offset="100%"></stop>
        </linearGradient>
        <linearGradient x1="50%" y1="0%" x2="63.4439451%" y2="94.0618564%" id="linearGradient-4">
            <stop stop-color="#72D98D" offset="0%"></stop>
            <stop stop-color="#2AB095" offset="100%"></stop>
        </linearGradient>
    </defs>
    <g id="Page-2" stroke="none" stroke-width="1" fill="none" fill-rule="evenodd" opacity="0.75">
        <g id="matan-Mortgage-Marketplace-18" transform="translate(-806.000000, -209.000000)" fill-rule="nonzero">
            <g id="iconfinder_analytics-graph-bars_351377" transform="translate(806.000000, 209.000000)">
                <path d="M30.2655546,28.5976634 L3.42584863,28.5976634 L3.42584863,1.75795738 C3.42584863,0.836614251 2.6793005,0.0900661275 1.75795738,0.0900661275 C0.836614251,0.0900661275 0.0900661275,0.836614251 0.0900661275,1.75795738 L0.0900661275,31.9327787 L30.2648875,31.9327787 C31.1862306,31.9327787 31.9327787,31.1862306 31.9327787,30.2648875 C31.9327787,29.3435443 31.1868977,28.5976634 30.2655546,28.5976634 Z" id="Path" fill="url(#linearGradient-1)"></path>
                <path d="M7.32204259,25.1584716 L12.7426892,25.1584716 C13.0609228,25.1584716 13.321781,24.8982806 13.321781,24.5793798 L13.321781,11.0567847 C13.321781,10.738551 13.06159,10.4776928 12.7426892,10.4776928 L7.32204259,10.4776928 C7.00380894,10.4776928 6.74295075,10.7378839 6.74295075,11.0567847 L6.74295075,24.5793798 C6.74295075,24.8976134 7.00380894,25.1584716 7.32204259,25.1584716 Z" id="Path" fill="url(#linearGradient-2)"></path>
                <path d="M23.4685642,25.1584716 L28.8898779,25.1584716 C29.2081116,25.1584716 29.4689698,24.8982806 29.4689698,24.5793798 L29.4689698,3.95957383 C29.4689698,3.64134018 29.2087787,3.38048199 28.8898779,3.38048199 L23.4685642,3.38048199 C23.1503306,3.38048199 22.8894724,3.64067302 22.8894724,3.95957383 L22.8894724,24.5793798 C22.8901395,24.8976134 23.1503306,25.1584716 23.4685642,25.1584716 Z" id="Path" fill="url(#linearGradient-3)"></path>
                <path d="M15.3953034,25.1584716 L20.8166171,25.1584716 C21.1348508,25.1584716 21.395709,24.8982806 21.395709,24.5793798 L21.395709,16.1972255 C21.395709,15.8789919 21.1355179,15.6181337 20.8166171,15.6181337 L15.3953034,15.6181337 C15.0770697,15.6181337 14.8162116,15.8783247 14.8162116,16.1972255 L14.8162116,24.5793798 C14.8162116,24.8976134 15.0770697,25.1584716 15.3953034,25.1584716 Z" id="Path" fill="url(#linearGradient-4)"></path>
            </g>
        </g>
    </g>
</svg>