<?xml version="1.0" encoding="UTF-8"?>
<svg width="16px" height="14px" viewBox="0 0 16 14" version="1.1" xmlns="http://www.w3.org/2000/svg" xmlns:xlink="http://www.w3.org/1999/xlink">
    <!-- Generator: Sketch 63.1 (92452) - https://sketch.com -->
    <title>iconfinder_alart_1460918</title>
    <desc>Created with Sketch.</desc>
    <g id="Page-1" stroke="none" stroke-width="1" fill="none" fill-rule="evenodd">
        <g id="matan--calculator-16" transform="translate(-548.000000, -468.000000)">
            <g id="iconfinder_alart_1460918" transform="translate(549.000000, 469.000000)">
                <path d="M8.211,0.7 L13.489,9.8 C13.7389581,10.2329395 13.739095,10.7663111 13.4893593,11.1993788 C13.2396235,11.6324466 12.7779154,11.8994875 12.278,11.9 L1.722,11.9 C1.22208464,11.8994875 0.760376481,11.6324466 0.510640737,11.1993788 C0.260904993,10.7663111 0.261041926,10.2329395 0.511,9.8 L5.789,0.7 C6.03945843,0.268236959 6.50085198,0.00248060471 7,0.00248060471 C7.49914802,0.00248060471 7.96054157,0.268236959 8.211,0.7 Z" id="Path" stroke="#BD133E" stroke-width="1.4" stroke-linejoin="round"></path>
                <polygon id="Path" fill="#BD133E" fill-rule="nonzero" points="7.56 7.833 6.44 7.833 6.16 3.633 7.84 3.633"></polygon>
                <rect id="Rectangle" fill="#BD133E" fill-rule="nonzero" x="6.328" y="8.589" width="1.344" height="1.344" rx="0.672"></rect>
            </g>
        </g>
    </g>
</svg>