<?xml version="1.0" encoding="UTF-8"?>
<svg width="35px" height="35px" viewBox="0 0 35 35" version="1.1" xmlns="http://www.w3.org/2000/svg" xmlns:xlink="http://www.w3.org/1999/xlink">
    <!-- Generator: Sketch 63.1 (92452) - https://sketch.com -->
    <title>Shape 3</title>
    <desc>Created with Sketch.</desc>
    <g id="Page-1" stroke="none" stroke-width="1" fill="none" fill-rule="evenodd">
        <g id="matan--calculator-8" transform="translate(-104.000000, -114.000000)" fill="#9EA6BE" fill-rule="nonzero">
            <g id="Shape-3" transform="translate(104.000000, 114.000000)">
                <path d="M34.15725,7.10542736e-15 L7.99425,7.10542736e-15 C7.5945375,7.10542736e-15 7.2675,0.3270375 7.2675,0.72675 L7.2675,16.1041259 C7.74344858,16.0358114 8.22615593,15.9885 8.721,15.9885 C11.6476223,15.9885 14.2780939,17.2312425 16.1342861,19.2091653 C16.2663365,19.0244255 16.4720068,18.8955 16.71525,18.8955 L19.62225,18.8955 C20.0219625,18.8955 20.349,19.2225375 20.349,19.62225 L20.349,22.52925 C20.349,22.9288898 20.0219625,23.256 19.62225,23.256 L18.4686071,23.256 C18.7431005,24.1776644 18.8955,25.1520908 18.8955,26.163 L19.62225,26.163 C20.0219625,26.163 20.349,26.4900375 20.349,26.88975 L20.349,29.79675 C20.349,30.1963898 20.0219625,30.5235 19.62225,30.5235 L17.9031956,30.5235 C17.0390898,32.3395756 15.6563753,33.8552854 13.9418993,34.884 L34.15725,34.884 C34.5569625,34.884 34.884,34.5568898 34.884,34.15725 L34.884,0.72675 C34.884,0.3270375 34.5569625,7.10542736e-15 34.15725,7.10542736e-15 Z M14.535,15.26175 C14.535,15.6613898 14.2079625,15.9885 13.80825,15.9885 L10.90125,15.9885 C10.5015375,15.9885 10.1745,15.6613898 10.1745,15.26175 L10.1745,12.35475 C10.1745,11.9550375 10.5015375,11.628 10.90125,11.628 L13.80825,11.628 C14.2079625,11.628 14.535,11.9550375 14.535,12.35475 L14.535,15.26175 Z M20.349,15.26175 C20.349,15.6613898 20.0219625,15.9885 19.62225,15.9885 L16.71525,15.9885 C16.3155375,15.9885 15.9885,15.6613898 15.9885,15.26175 L15.9885,12.35475 C15.9885,11.9550375 16.3155375,11.628 16.71525,11.628 L19.62225,11.628 C20.0219625,11.628 20.349,11.9550375 20.349,12.35475 L20.349,15.26175 Z M26.163,29.79675 C26.163,30.1963898 25.8359625,30.5235 25.43625,30.5235 L22.52925,30.5235 C22.1295375,30.5235 21.8025,30.1963898 21.8025,29.79675 L21.8025,26.88975 C21.8025,26.4900375 22.1295375,26.163 22.52925,26.163 L25.43625,26.163 C25.8359625,26.163 26.163,26.4900375 26.163,26.88975 L26.163,29.79675 Z M26.163,22.52925 C26.163,22.9288898 25.8359625,23.256 25.43625,23.256 L22.52925,23.256 C22.1295375,23.256 21.8025,22.9288898 21.8025,22.52925 L21.8025,19.62225 C21.8025,19.2225375 22.1295375,18.8955 22.52925,18.8955 L25.43625,18.8955 C25.8359625,18.8955 26.163,19.2225375 26.163,19.62225 L26.163,22.52925 Z M26.163,15.26175 C26.163,15.6613898 25.8359625,15.9885 25.43625,15.9885 L22.52925,15.9885 C22.1295375,15.9885 21.8025,15.6613898 21.8025,15.26175 L21.8025,12.35475 C21.8025,11.9550375 22.1295375,11.628 22.52925,11.628 L25.43625,11.628 C25.8359625,11.628 26.163,11.9550375 26.163,12.35475 L26.163,15.26175 Z M31.977,29.79675 C31.977,30.1963898 31.6499625,30.5235 31.25025,30.5235 L28.34325,30.5235 C27.9435375,30.5235 27.6165,30.1963898 27.6165,29.79675 L27.6165,19.62225 C27.6165,19.2225375 27.9435375,18.8955 28.34325,18.8955 L31.25025,18.8955 C31.6499625,18.8955 31.977,19.2225375 31.977,19.62225 L31.977,29.79675 Z M31.977,15.26175 C31.977,15.6613898 31.6499625,15.9885 31.25025,15.9885 L28.34325,15.9885 C27.9435375,15.9885 27.6165,15.6613898 27.6165,15.26175 L27.6165,12.35475 C27.6165,11.9550375 27.9435375,11.628 28.34325,11.628 L31.25025,11.628 C31.6499625,11.628 31.977,11.9550375 31.977,12.35475 L31.977,15.26175 Z M31.977,8.721 L10.1745,8.721 L10.1745,2.907 L31.977,2.907 L31.977,8.721 Z M17.442,26.163 C17.442,21.3465371 13.537463,17.442 8.721,17.442 C3.90453705,17.442 7.10542736e-15,21.3465371 7.10542736e-15,26.163 C7.10542736e-15,30.979463 3.90453705,34.884 8.721,34.884 C13.537463,34.884 17.442,30.979463 17.442,26.163 Z M8.07600938,24.8730188 C8.2555893,25.0595028 8.58880418,25.2520916 9.07558133,25.4477327 C9.56235848,25.6433738 9.96279773,25.8268055 10.2768991,26.0010801 C10.5910731,26.1752821 10.8553921,26.3709232 11.0716729,26.5879307 C11.2879537,26.805011 11.4529986,27.055667 11.5668803,27.3338669 C11.6806894,27.6119942 11.73803,27.9391043 11.73803,28.3089474 C11.73803,29.0028483 11.5218218,29.5653528 11.0900597,29.9963156 C10.6582975,30.4272783 10.0629439,30.6841118 9.30487095,30.7604932 L9.30487095,31.977 L8.33284283,31.977 L8.33284283,30.7665252 C7.49758905,30.6779344 6.8503455,30.3814204 6.39176625,29.8769832 C5.93325968,29.3726187 5.70404273,28.7032093 5.70404273,27.8686823 L7.47077198,27.8686823 C7.47077198,28.3547327 7.58617988,28.7245757 7.81619625,28.9844615 C8.04621263,29.2443473 8.37782865,29.3726914 8.80959083,29.3726914 C9.16802393,29.3726914 9.4515291,29.2779232 9.6593796,29.0883868 C9.8672301,28.8989231 9.97122803,28.6421623 9.97122803,28.3211568 C9.97122803,27.9879419 9.87871275,27.7219514 9.69302813,27.5233307 C9.5073435,27.3246372 9.1925154,27.1442579 8.74847115,26.9761606 C8.3044269,26.8080633 7.92084825,26.6429457 7.5991887,26.4779735 C7.27745648,26.3128559 7.00078275,26.1233921 6.77076638,25.9094369 C6.54075,25.6954817 6.36117008,25.4448257 6.23282603,25.1544164 C6.10433663,24.8640797 6.04023728,24.5217078 6.04023728,24.1212686 C6.04023728,23.4334724 6.26036985,22.8679882 6.70041698,22.4277957 C7.14060945,21.9876032 7.72527983,21.7308425 8.4550095,21.6575134 L8.4550095,20.349 L9.433215,20.349 L9.433215,21.6756095 C10.1546597,21.7764824 10.7194172,22.0791011 11.1266879,22.5772882 C11.5339586,23.0756207 11.73803,23.7236636 11.73803,24.5183648 L9.9713007,24.5183648 C9.9713007,24.029262 9.8704278,23.6624713 9.66860933,23.4209723 C9.46686353,23.1794732 9.1971666,23.0572339 8.85864645,23.0572339 C8.52463215,23.0572339 8.26561845,23.1520021 8.08218675,23.3415385 C7.89875505,23.5310022 7.80711188,23.7938677 7.80711188,24.1270826 C7.8070392,24.4358786 7.89642945,24.6865347 8.07600938,24.8730188 Z" id="Shape"></path>
            </g>
        </g>
    </g>
</svg>