<?xml version="1.0" encoding="UTF-8"?>
<svg width="26px" height="26px" viewBox="0 0 26 26" version="1.1" xmlns="http://www.w3.org/2000/svg" xmlns:xlink="http://www.w3.org/1999/xlink">
    <!-- Generator: Sketch 63.1 (92452) - https://sketch.com -->
    <title>iconfinder_007-menu_1715694</title>
    <desc>Created with Sketch.</desc>
    <g id="Page-2" stroke="none" stroke-width="1" fill="none" fill-rule="evenodd">
        <g id="matan-Mortgage-Marketplace-18-Copy" transform="translate(-349.000000, -27.000000)" fill="#2EC38D" fill-rule="nonzero">
            <g id="iconfinder_007-menu_1715694" transform="translate(349.000000, 27.000000)">
                <path d="M3.27196875,0.159375 C1.510875,0.159375 0.08446875,1.58578125 0.08446875,3.346875 C0.08446875,5.10796875 1.510875,6.534375 3.27196875,6.534375 C5.0330625,6.534375 6.45946875,5.10796875 6.45946875,3.346875 C6.45946875,1.58578125 5.0330625,0.159375 3.27196875,0.159375" id="Fill-28"></path>
                <path d="M12.8344687,0.159375 C11.073375,0.159375 9.64696875,1.58578125 9.64696875,3.346875 C9.64696875,5.10796875 11.073375,6.534375 12.8344687,6.534375 C14.5955625,6.534375 16.0219687,5.10796875 16.0219687,3.346875 C16.0219687,1.58578125 14.5955625,0.159375 12.8344687,0.159375" id="Fill-29"></path>
                <path d="M22.3969687,6.534375 C24.1580625,6.534375 25.5844687,5.10796875 25.5844687,3.346875 C25.5844687,1.58578125 24.1580625,0.159375 22.3969687,0.159375 C20.635875,0.159375 19.2094687,1.58578125 19.2094687,3.346875 C19.2094687,5.10796875 20.635875,6.534375 22.3969687,6.534375" id="Fill-30"></path>
                <path d="M3.27196875,9.721875 C1.510875,9.721875 0.08446875,11.1482813 0.08446875,12.909375 C0.08446875,14.6704688 1.510875,16.096875 3.27196875,16.096875 C5.0330625,16.096875 6.45946875,14.6704688 6.45946875,12.909375 C6.45946875,11.1482813 5.0330625,9.721875 3.27196875,9.721875" id="Fill-31"></path>
                <path d="M12.8344687,9.721875 C11.073375,9.721875 9.64696875,11.1482813 9.64696875,12.909375 C9.64696875,14.6704688 11.073375,16.096875 12.8344687,16.096875 C14.5955625,16.096875 16.0219687,14.6704688 16.0219687,12.909375 C16.0219687,11.1482813 14.5955625,9.721875 12.8344687,9.721875" id="Fill-32"></path>
                <path d="M22.3969687,9.721875 C20.635875,9.721875 19.2094687,11.1482813 19.2094687,12.909375 C19.2094687,14.6704688 20.635875,16.096875 22.3969687,16.096875 C24.1580625,16.096875 25.5844687,14.6704688 25.5844687,12.909375 C25.5844687,11.1482813 24.1580625,9.721875 22.3969687,9.721875" id="Fill-33"></path>
                <path d="M3.27196875,19.284375 C1.510875,19.284375 0.08446875,20.7107813 0.08446875,22.471875 C0.08446875,24.2329688 1.510875,25.659375 3.27196875,25.659375 C5.0330625,25.659375 6.45946875,24.2329688 6.45946875,22.471875 C6.45946875,20.7107813 5.0330625,19.284375 3.27196875,19.284375" id="Fill-34"></path>
                <path d="M12.8344687,19.284375 C11.073375,19.284375 9.64696875,20.7107813 9.64696875,22.471875 C9.64696875,24.2329688 11.073375,25.659375 12.8344687,25.659375 C14.5955625,25.659375 16.0219687,24.2329688 16.0219687,22.471875 C16.0219687,20.7107813 14.5955625,19.284375 12.8344687,19.284375" id="Fill-35"></path>
                <path d="M22.3969687,19.284375 C20.635875,19.284375 19.2094687,20.7107813 19.2094687,22.471875 C19.2094687,24.2329688 20.635875,25.659375 22.3969687,25.659375 C24.1580625,25.659375 25.5844687,24.2329688 25.5844687,22.471875 C25.5844687,20.7107813 24.1580625,19.284375 22.3969687,19.284375" id="Fill-36"></path>
            </g>
        </g>
    </g>
</svg>
