<?xml version="1.0" encoding="UTF-8"?>
<svg width="35px" height="37px" viewBox="0 0 35 37" version="1.1" xmlns="http://www.w3.org/2000/svg" xmlns:xlink="http://www.w3.org/1999/xlink">
    <!-- Generator: Sketch 63.1 (92452) - https://sketch.com -->
    <title>iconfinder_131_house-home-mortgage-rent-sale-04_3950496</title>
    <desc>Created with Sketch.</desc>
    <defs>
        <linearGradient x1="50%" y1="0%" x2="57.9829139%" y2="94.0618564%" id="linearGradient-1">
            <stop stop-color="#72D98D" offset="0%"></stop>
            <stop stop-color="#2AB095" offset="100%"></stop>
        </linearGradient>
        <linearGradient x1="50%" y1="0%" x2="76.5133937%" y2="94.0618564%" id="linearGradient-2">
            <stop stop-color="#72D98D" offset="0%"></stop>
            <stop stop-color="#2AB095" offset="100%"></stop>
        </linearGradient>
        <linearGradient x1="50%" y1="33.3579882%" x2="78.2662899%" y2="64.6655587%" id="linearGradient-3">
            <stop stop-color="#72D98D" offset="0%"></stop>
            <stop stop-color="#2AB095" offset="100%"></stop>
        </linearGradient>
        <linearGradient x1="50%" y1="0%" x2="78.2662899%" y2="94.0618564%" id="linearGradient-4">
            <stop stop-color="#72D98D" offset="0%"></stop>
            <stop stop-color="#2AB095" offset="100%"></stop>
        </linearGradient>
    </defs>
    <g id="Page-1" stroke="none" stroke-width="1" fill="none" fill-rule="evenodd" opacity="0.749279204">
        <g id="matan--calculator-1" transform="translate(-800.000000, -207.000000)" fill-rule="nonzero">
            <g id="iconfinder_131_house-home-mortgage-rent-sale-04_3950496" transform="translate(800.000000, 207.000000)">
                <polygon id="Path" fill="url(#linearGradient-1)" points="30.0220425 10.7892549 30.0220425 2.0014695 25.351947 2.0014695 25.351947 6.11915942 26.2953063 7.06251871"></polygon>
                <path d="M27.3534165,20.014695 L27.3801028,20.014695 C27.7944069,20.014695 28.2220543,20.0473857 28.7044084,20.1181043 C28.9385803,20.155465 29.1507361,20.2008317 29.354886,20.2502012 L29.354886,19.2334547 L28.4115267,18.2900954 L17.346069,7.22463774 L6.28061129,18.2894283 L5.337252,19.2327876 L5.337252,32.023512 L13.34313,32.023512 L13.34313,18.680382 L21.349008,18.680382 L21.349008,22.453152 C22.947515,20.9133548 25.0937574,20.014695 27.3534165,20.014695 Z" id="Path" fill="url(#linearGradient-2)"></path>
                <path d="M5.337252,17.346069 L17.346069,5.337252 L29.354886,17.346069 L32.023512,20.014695 L34.692138,17.346069 L30.0220425,12.6759735 L25.351947,8.005878 L17.346069,0 C17.346069,0 17.3327259,0.01334313 17.3060396,0.04002939 C17.2793533,0.01334313 17.2660102,0 17.2660102,0 L0,17.346069 L2.668626,20.014695 L5.337252,17.346069 Z" id="Path" fill="url(#linearGradient-3)"></path>
                <path d="M34.692138,28.6877295 C34.692138,25.3252607 32.437149,22.4965172 29.354886,21.6292137 C29.0746803,21.5424834 28.787803,21.4824393 28.4942541,21.4357383 C28.127318,21.3823658 27.760382,21.349008 27.3801028,21.349008 C27.3734312,21.349008 27.3600881,21.349008 27.3534165,21.349008 C24.8982806,21.349008 22.7166788,22.5565613 21.3890374,24.4179279 C20.5217339,25.6188096 20.014695,27.0932255 20.014695,28.6877295 C20.014695,32.7373695 23.2904334,36.0131079 27.3267302,36.026451 C27.3334018,36.026451 27.3467449,36.026451 27.3534165,36.026451 C27.7336957,36.026451 28.1073033,35.9997647 28.4742394,35.9397207 C31.9901542,35.4059955 34.692138,32.3637618 34.692138,28.6877295 Z M27.3534165,28.020573 C28.8251637,28.020573 30.0220425,29.2174518 30.0220425,30.689199 C30.0220425,31.9287758 29.1687493,32.9648698 28.020573,33.2630888 L28.020573,34.692138 L27.3534165,34.692138 L26.68626,34.692138 L26.68626,33.2630888 C25.5380837,32.9648698 24.6847905,31.9287758 24.6847905,30.689199 L26.0191035,30.689199 C26.0191035,31.4250726 26.6175429,32.023512 27.3534165,32.023512 C28.0892901,32.023512 28.6877295,31.4250726 28.6877295,30.689199 C28.6877295,29.9533254 28.0892901,29.354886 27.3534165,29.354886 C25.8816693,29.354886 24.6847905,28.1580072 24.6847905,26.68626 C24.6847905,25.4466832 25.5380837,24.4105892 26.68626,24.1123702 L26.68626,22.683321 L27.3534165,22.683321 L28.020573,22.683321 L28.020573,24.1123702 C29.1687493,24.4105892 30.0220425,25.4466832 30.0220425,26.68626 L28.6877295,26.68626 C28.6877295,25.9503864 28.0892901,25.351947 27.3534165,25.351947 C26.6175429,25.351947 26.0191035,25.9503864 26.0191035,26.68626 C26.0191035,27.4221336 26.6175429,28.020573 27.3534165,28.020573 Z" id="Shape" fill="url(#linearGradient-4)"></path>
            </g>
        </g>
    </g>
</svg>