<?xml version="1.0" encoding="UTF-8"?>
<svg width="8px" height="7px" viewBox="0 0 8 7" version="1.1" xmlns="http://www.w3.org/2000/svg" xmlns:xlink="http://www.w3.org/1999/xlink">
    <!-- Generator: Sketch 63.1 (92452) - https://sketch.com -->
    <title>iconfinder_512-14_134552</title>
    <desc>Created with Sketch.</desc>
    <g id="Page-1" stroke="none" stroke-width="1" fill="none" fill-rule="evenodd">
        <g id="matan--calculator-15" transform="translate(-952.000000, -418.000000)" fill="#FFFFFF" fill-rule="nonzero">
            <g id="iconfinder_512-14_134552" transform="translate(952.000000, 418.000000)">
                <path d="M3.44372244,5.91533958 C3.17538267,6.23707084 2.69477285,6.28257168 2.37050737,6.01653576 L2.37050737,6.01653576 C2.04586752,5.75049983 2.00033788,5.27334577 2.26830327,4.95147052 L6.15312467,0.286626494 C6.42146443,-0.035450338 6.90204546,-0.08077839 7.22651252,0.18545912 L7.22651252,0.18545912 C7.55100839,0.451495044 7.59668202,0.928620308 7.32871663,1.25035156 L3.44372244,5.91533958 Z" id="Path"></path>
                <path d="M3.30808386,5.10922597 C3.57607804,5.4313028 3.53037562,5.90805369 3.20587975,6.17411841 L3.20587975,6.17411841 C2.8812399,6.44032712 2.40083166,6.39502787 2.13266469,6.07295104 L0.190268386,3.74025544 C-0.077725802,3.41812101 -0.031850588,2.94139892 0.292472488,2.67519021 L0.292472488,2.67519021 C0.617112342,2.40915429 1.09769337,2.45462633 1.36568755,2.77635758 L3.30808386,5.10922597 Z" id="Path"></path>
            </g>
        </g>
    </g>
</svg>