<?xml version="1.0" encoding="UTF-8"?>
<svg width="14px" height="14px" viewBox="0 0 14 14" version="1.1" xmlns="http://www.w3.org/2000/svg" xmlns:xlink="http://www.w3.org/1999/xlink">
    <!-- Generator: Sketch 63.1 (92452) - https://sketch.com -->
    <title>iconfinder_Untitled-1-03_397063</title>
    <desc>Created with Sketch.</desc>
    <g id="Page-1" stroke="none" stroke-width="1" fill="none" fill-rule="evenodd">
        <g id="matan--calculator-1" transform="translate(-1890.000000, -182.000000)" fill="#6C76A0" fill-rule="nonzero">
            <g id="iconfinder_Untitled-1-03_397063" transform="translate(1890.000000, 182.000000)">
                <polyline id="Path" points="7.2471 1.4994 2.3667 6.3798 4.8069 8.82 9.6873 3.9396"></polyline>
                <path d="M1.5582,7.203 L3.9984,9.6432 L1.4553,10.3635 C1.1025,10.4076 0.7938,10.1136 0.8379,9.7461 L1.5582,7.203 Z" id="Path"></path>
                <path d="M10.5105,3.1311 C11.319,2.3226 11.1867,1.3671 10.5105,0.6909 L10.5105,0.6909 C9.8343,0.0147 8.8788,-0.1176 8.0703,0.6909 L10.5105,3.1311 Z" id="Path"></path>
                <path d="M13.083,13.0977 L0.147,13.0977 C0.0588,13.0977 0,13.0389 0,12.9507 L0,12.0981 C0,12.0099 0.0588,11.9511 0.147,11.9511 L13.083,11.9511 C13.1712,11.9511 13.23,12.0099 13.23,12.0981 L13.23,12.9507 C13.23,13.0389 13.1712,13.0977 13.083,13.0977 Z" id="Path"></path>
            </g>
        </g>
    </g>
</svg>