<svg width="24" height="24" viewBox="0 0 24 24" fill="none" xmlns="http://www.w3.org/2000/svg">
<path d="M11.9999 0.250046C5.5115 0.250046 0.25 5.50905 0.25 12.0001C0.25 18.4884 5.50905 23.7499 12.0001 23.7499C18.4883 23.7499 23.75 18.491 23.75 11.9999C23.75 5.51175 18.491 0.250046 11.9999 0.250046ZM14.1433 18.0329L11.0476 13.7453L6.2579 14.8545C5.8846 14.9414 5.6273 14.4822 5.89985 14.2093L14.1828 5.92045C14.4241 5.6792 14.838 5.85025 14.838 6.19175L14.8381 17.8082C14.8383 18.1828 14.3592 18.332 14.1433 18.0329Z" fill="url(#paint0_linear)"/>
<circle cx="12" cy="12" r="12" fill="url(#paint1_linear)"/>
<path d="M16.9 13.16H13.16V16.9C13.16 17.0214 13.0614 17.12 12.94 17.12H11.18C11.0586 17.12 10.96 17.0214 10.96 16.9V13.16H7.22C7.09856 13.16 7 13.0614 7 12.94V11.18C7 11.0586 7.09856 10.96 7.22 10.96H10.96V7.22C10.96 7.09856 11.0586 7 11.18 7H12.94C13.0614 7 13.16 7.09856 13.16 7.22V10.96H16.9C17.0214 10.96 17.12 11.0586 17.12 11.18V12.94C17.12 13.0614 17.0214 13.16 16.9 13.16Z" fill="white"/>
<defs>
<linearGradient id="paint0_linear" x1="12" y1="0.250046" x2="18.6425" y2="22.3545" gradientUnits="userSpaceOnUse">
<stop stop-color="#52E679"/>
<stop offset="1" stop-color="#2AB095"/>
</linearGradient>
<linearGradient id="paint1_linear" x1="12" y1="0" x2="12" y2="24" gradientUnits="userSpaceOnUse">
<stop stop-color="#4DDE7C"/>
<stop offset="1" stop-color="#30B891"/>
</linearGradient>
</defs>
</svg>
