<?xml version="1.0" encoding="UTF-8"?>
<svg width="15px" height="15px" viewBox="0 0 15 15" version="1.1" xmlns="http://www.w3.org/2000/svg" xmlns:xlink="http://www.w3.org/1999/xlink">
    <!-- Generator: Sketch 63.1 (92452) - https://sketch.com -->
    <title>iconfinder_info_3121119</title>
    <desc>Created with Sketch.</desc>
    <defs>
        <linearGradient x1="0%" y1="0%" x2="79.9665179%" y2="90.9090909%" id="linearGradient-1">
            <stop stop-color="#64E3C0" offset="0%"></stop>
            <stop stop-color="#32B4D8" offset="100%"></stop>
        </linearGradient>
    </defs>
    <g id="Page-1" stroke="none" stroke-width="1" fill="none" fill-rule="evenodd">
        <g id="matan--calculator-1" transform="translate(-722.000000, -930.000000)" fill="url(#linearGradient-1)" fill-rule="nonzero">
            <g id="iconfinder_info_3121119" transform="translate(722.000000, 930.000000)">
                <path d="M7.41285,0 C3.31910359,0 0,3.31910359 0,7.41285 C0,11.507523 3.31910359,14.8257 7.41285,14.8257 C11.5065964,14.8257 14.8257,11.507523 14.8257,7.41285 C14.8257,3.31910359 11.5065964,0 7.41285,0 Z M8.08232302,10.5772103 L8.21714423,10.8232243 C8.21714423,10.8232243 7.6204098,11.9930647 6.62152826,11.9930647 C6.09243609,11.9930647 5.82742671,11.6553167 5.82742671,10.9802841 C5.82742671,10.4970589 5.95529837,9.81137028 6.20965178,8.92599801 C6.4635419,8.03830922 6.59141356,7.45084086 6.59141356,7.1612764 C6.59141356,6.90136335 6.46956484,6.72623477 6.22447748,6.63635396 L6.29953259,6.2860968 C6.29953259,6.2860968 7.16822595,5.64071555 7.81870354,5.64071555 C8.27830024,5.64071555 8.50809859,5.88950933 8.50809859,6.38895009 C8.50809859,6.62894111 8.40153887,7.15015713 8.18610292,7.95445135 C8.01143764,8.598906 7.87939625,9.12614496 7.78997874,9.53431501 C7.71492364,9.86928317 7.67785939,10.0990815 7.67785939,10.2246367 C7.67785939,10.4595314 7.8126806,10.5772103 8.08232302,10.5772103 Z M7.98039633,4.86931584 C7.41748303,4.86931584 6.96112945,4.41527878 6.96112945,3.85236548 C6.96112945,3.28945219 7.41701973,2.83263531 7.98039633,2.83263531 C8.54238302,2.83263531 8.99827329,3.28945219 8.99827329,3.85236548 C8.99827329,4.41527878 8.54238302,4.86931584 7.98039633,4.86931584 Z" id="Shape"></path>
            </g>
        </g>
    </g>
</svg>