<?xml version="1.0" encoding="UTF-8"?>
<svg width="35px" height="38px" viewBox="0 0 35 38" version="1.1" xmlns="http://www.w3.org/2000/svg" xmlns:xlink="http://www.w3.org/1999/xlink">
    <!-- Generator: Sketch 63.1 (92452) - https://sketch.com -->
    <title>iconfinder_lawyer-39_1883831</title>
    <desc>Created with Sketch.</desc>
    <g id="Page-1" stroke="none" stroke-width="1" fill="none" fill-rule="evenodd">
        <g id="matan--calculator-8" transform="translate(-346.000000, -109.000000)" fill="#9EA6BE" fill-rule="nonzero">
            <g id="iconfinder_lawyer-39_1883831" transform="translate(346.000000, 109.000000)">
                <path d="M32.962008,25.0455115 C32.7755102,24.9489112 32.4608691,24.8743909 32.103645,24.8160364 C30.3687817,24.2080456 28.6276098,23.7770898 26.8438549,23.8437244 C26.2307385,23.8669873 25.6128906,23.9486047 24.9883398,24.1023767 C23.0997045,24.5676355 21.202395,24.9907056 19.3074511,25.4327014 C18.9052783,25.5265418 18.3240991,25.7761255 17.903789,25.7512854 L14.7140063,25.5600562 C13.610791,25.268678 11.0439819,25.1984949 10.6599463,26.6534143 C11.074342,27.6951209 11.3830688,28.1386939 12.4586841,28.8511707 C12.4586841,28.8511707 16.200863,29.6093848 17.3427185,29.8175684 C18.1541613,29.9654261 19.3713257,29.6697107 20.852268,29.5380188 C20.852268,29.5380188 17.6573596,32.2400684 16.588053,32.4309034 C14.768418,32.7538245 9.34775877,31.1131959 9.34775877,31.1131959 L2.66064939,27.6549036 C1.52076536,27.6056177 0.223560776,27.8725501 0.158503408,29.3751783 C0.789757085,31.0627271 7.65232422,35.6045203 7.65232422,35.6045203 C7.65232422,35.6045203 14.2440161,37.9162256 16.5289099,37.8196253 C19.8133215,37.6820191 28.9761597,33.5774903 28.9761597,33.5774903 C28.9761597,33.5774903 32.4344519,32.6284412 32.4348462,32.6205555 C33.5498902,32.6288355 34.495785,31.4700257 34.5584766,29.9906604 C34.6215625,28.5132666 34.1389551,25.6527136 32.962008,25.0455115 Z" id="Path"></path>
                <path d="M7.06404787,17.7989087 L9.20187259,17.7989087 L9.20187259,21.6964368 L9.20581545,21.6964368 C9.2255298,22.0158093 9.80986332,22.272096 10.5329859,22.272096 C11.2545313,22.272096 11.8396533,22.0158094 11.8593677,21.6964368 L11.8633106,21.6964368 L11.8633106,17.7989087 L22.8591895,17.7989087 L22.8591895,21.6964368 L22.8623437,21.6964368 C22.8820581,22.0158093 23.4671802,22.272096 24.1895142,22.272096 C24.9110596,22.272096 25.4961816,22.0158094 25.5166846,21.6964368 L25.5198389,21.6964368 L25.5198389,17.7989087 L27.6584522,17.7989087 C28.2632886,17.7989087 28.7537817,16.9480371 28.7537817,15.8976563 L26.1246753,2.03136719 C25.9709033,1.06260374 25.6341821,0.130114736 25.0293457,0.130114736 L9.6931543,0.130114736 C9.08831786,0.130114736 8.75159666,1.06260374 8.59782472,2.03136719 L5.96871825,15.8976563 C5.96871825,16.9480371 6.45921144,17.7989087 7.06404787,17.7989087 Z M24.0002564,15.0511218 C23.147019,15.0511218 22.4546509,14.3595422 22.4546509,13.5063049 C22.4546509,12.6530676 23.147019,11.9610938 24.0002564,11.9610938 C24.8534937,11.9610938 25.5450733,12.6530676 25.5450733,13.5063049 C25.5450733,14.3595422 24.8534936,15.0511218 24.0002564,15.0511218 Z M10.295625,2.43275145 C10.295625,2.35231686 10.699375,1.91505246 11.3917432,1.85945799 L23.3307569,1.85945799 C23.9355933,1.85945799 24.4260864,2.1157446 24.4260864,2.43275145 L25.521416,8.53000731 C25.521416,8.80403684 25.1531518,9.03272338 24.6610815,9.08950073 C24.1918799,7.93936523 23.0634301,7.12831664 21.7441455,7.12831664 C20.4201294,7.12831664 19.2885254,7.94606809 18.822478,9.10369504 L10.295625,9.10369504 C9.69157713,9.10369504 9.20029542,8.84701413 9.20029542,8.53000731 L10.295625,2.43275145 Z M10.7222436,11.9610938 C11.575481,11.9610938 12.2678491,12.6530676 12.2678491,13.5063049 C12.2678491,14.3595422 11.5754809,15.0511218 10.7222436,15.0511218 C9.86900636,15.0511218 9.17742674,14.3595422 9.17742674,13.5063049 C9.17742674,12.6530676 9.86900636,11.9610938 10.7222436,11.9610938 Z" id="Shape"></path>
            </g>
        </g>
    </g>
</svg>