<?xml version="1.0" encoding="UTF-8"?>
<svg width="38px" height="32px" viewBox="0 0 38 32" version="1.1" xmlns="http://www.w3.org/2000/svg" xmlns:xlink="http://www.w3.org/1999/xlink">
    <!-- Generator: Sketch 63.1 (92452) - https://sketch.com -->
    <title>Group 2</title>
    <desc>Created with Sketch.</desc>
    <defs>
        <linearGradient x1="50%" y1="15.489951%" x2="78.2662899%" y2="80.4115365%" id="linearGradient-1">
            <stop stop-color="#72D98D" offset="0%"></stop>
            <stop stop-color="#2AB095" offset="100%"></stop>
        </linearGradient>
    </defs>
    <g id="Page-2" stroke="none" stroke-width="1" fill="none" fill-rule="evenodd">
        <g id="matan-Mortgage-Marketplace-18" transform="translate(-1424.000000, -211.000000)">
            <g id="Group-2" transform="translate(1424.000000, 211.000000)">
                <g id="iconfinder_Untitled-1-84_4020185" fill="url(#linearGradient-1)" fill-rule="nonzero" opacity="0.726957775">
                    <path d="M37.6992,13.2132 L31.2774,8.6856 L31.2774,3.8346 C31.2774,3.5574 31.0464,3.3264 30.7692,3.3264 L28.0434,3.3264 C27.7662,3.3264 27.5352,3.5574 27.5352,3.8346 L27.5352,6.0984 L18.9882,0.0924 C18.8958,0.0462 18.8496,0.0462 18.7572,0.0924 L0.1848,13.2132 C0.1386,13.2594 0.0924,13.3056 0.0924,13.398 L0.0924,15.1536 C0.0924,15.2922 0.1848,15.3846 0.3234,15.3846 L4.62,15.3846 C4.7586,15.3846 4.851,15.477 4.851,15.6156 L4.851,27.1194 C4.851,27.258 4.7124,27.3966 4.5738,27.3966 L3.4188,27.3966 C3.2802,27.3966 3.1416,27.5352 3.1416,27.6738 L3.1416,31.1388 C3.1416,31.2774 3.2802,31.416 3.4188,31.416 L34.5114,31.416 C34.65,31.416 34.7886,31.2774 34.7886,31.1388 L34.7886,27.6738 C34.7886,27.5352 34.65,27.3966 34.5114,27.3966 L33.3564,27.3966 C33.2178,27.3966 33.0792,27.258 33.0792,27.1194 L33.0792,15.6156 C33.0792,15.477 33.1716,15.3846 33.3102,15.3846 L37.6068,15.3846 C37.7454,15.3846 37.8378,15.2922 37.8378,15.1536 L37.8378,13.398 C37.7916,13.3056 37.7454,13.2594 37.6992,13.2132 Z" id="XMLID_1438_"></path>
                </g>
                <g id="iconfinder_Currency_ils_israeli_shekel_money_finance_sign_979233" transform="translate(13.200000, 12.540000)" stroke="#FFFFFF">
                    <g id="g5762" transform="translate(0.000033, 0.466801)">
                        <line x1="0.831533472" y1="0.00824472" x2="0.831533472" y2="11.6506447" id="path5723" stroke-width="1.6631999"></line>
                        <path d="M1.1097702,0.84250584 L4.65203693,0.84250584 C6.77444645,0.84250584 7.48436674,1.54420992 7.48436674,3.64948848 L7.48436674,8.64873504" id="path5725" stroke-width="1.6632"></path>
                        <line x1="4.1579501" y1="11.6506447" x2="4.1579501" y2="3.33481104" id="path5727" stroke-width="1.6631999"></line>
                        <path d="M3.64802962,10.8172152 L7.60142275,10.8172152 C9.97016882,10.8172152 10.7625007,10.1056982 10.7625007,7.89464016 L10.7625007,0.14495976" id="path5729" stroke-width="1.6632"></path>
                    </g>
                </g>
            </g>
        </g>
    </g>
</svg>