<?xml version="1.0" encoding="UTF-8"?>
<svg width="18px" height="18px" viewBox="0 0 18 18" version="1.1" xmlns="http://www.w3.org/2000/svg" xmlns:xlink="http://www.w3.org/1999/xlink">
    <!-- Generator: Sketch 63.1 (92452) - https://sketch.com -->
    <title>iconfinder_sign_hanging_rejected_unavailable_2107975</title>
    <desc>Created with Sketch.</desc>
    <g id="Page-2" stroke="none" stroke-width="1" fill="none" fill-rule="evenodd">
        <g id="matan-Mortgage-Marketplace-18-Copy" transform="translate(-881.000000, -30.000000)" fill="#C4CAC8">
            <g id="iconfinder_sign_hanging_rejected_unavailable_2107975" transform="translate(881.000000, 30.000000)">
                <path d="M0,8.13045448 C0,7.28906053 0.68382576,6.60705882 1.52559199,6.60705882 L15.754408,6.60705882 C16.5971823,6.60705882 17.28,7.28761282 17.28,8.13045448 L17.28,15.7566043 C17.28,16.5979983 16.5961742,17.28 15.754408,17.28 L1.52559199,17.28 C0.682817675,17.28 0,16.599446 0,15.7566043 L0,8.13045448 Z M5.29287086,5.84470588 L3.85536443,5.84470588 L7.07498547,2.62508485 C6.93861527,2.37342274 6.86117647,2.08516667 6.86117647,1.77882353 C6.86117647,0.796406485 7.65758296,0 8.64,0 C9.62241704,0 10.4188235,0.796406485 10.4188235,1.77882353 C10.4188235,2.08516667 10.3413847,2.37342274 10.2050145,2.62508485 L13.4246356,5.84470588 L11.9871291,5.84470588 L9.48626132,3.34383806 C9.23459921,3.48020826 8.94634314,3.55764706 8.64,3.55764706 C8.33365686,3.55764706 8.04540079,3.48020826 7.79373868,3.34383806 L5.29287086,5.84470588 Z M8.64,2.54117647 C9.06103584,2.54117647 9.40235294,2.19985937 9.40235294,1.77882353 C9.40235294,1.35778769 9.06103584,1.01647059 8.64,1.01647059 C8.21896416,1.01647059 7.87764706,1.35778769 7.87764706,1.77882353 C7.87764706,2.19985937 8.21896416,2.54117647 8.64,2.54117647 Z M5.59058824,11.9435294 C5.59058824,13.6278845 6.95575931,14.9929412 8.64,14.9929412 C10.324355,14.9929412 11.6894118,13.6277701 11.6894118,11.9435294 C11.6894118,10.2591744 10.3242407,8.89411765 8.64,8.89411765 C6.95564496,8.89411765 5.59058824,10.2592887 5.59058824,11.9435294 Z M10.3916108,10.9106718 C10.8521205,11.6902646 10.7474515,12.711091 10.0775064,13.3810358 C9.40760047,14.0509418 8.38676821,14.1556761 7.60714111,13.6951415 L10.3916108,10.9106718 Z M9.67285889,10.1919173 L9.67285889,10.1919173 L6.88838917,12.976387 C6.42787945,12.1967942 6.53254848,11.1759678 7.20249357,10.506023 C7.87239953,9.83611703 8.89323179,9.73138269 9.67285889,10.1919173 Z" id="Shape"></path>
            </g>
        </g>
    </g>
</svg>