<svg width="36" height="36" viewBox="0 0 36 36" fill="none" xmlns="http://www.w3.org/2000/svg">
<rect width="36" height="36" fill="#E5E5E5"/>
<g clip-path="url(#clip0)">
<g filter="url(#filter0_d)">
<path d="M16.6377 34.4798C25.8143 35.3849 33.9872 28.6796 34.8923 19.503C35.7974 10.3263 29.0921 2.15348 19.9155 1.24835C10.7389 0.343224 2.56599 7.04859 1.66087 16.2252C0.75574 25.4018 7.4611 33.5747 16.6377 34.4798Z" fill="black"/>
</g>
<path d="M16.6377 34.4798C25.8143 35.3849 33.9872 28.6796 34.8923 19.503C35.7974 10.3263 29.0921 2.15348 19.9155 1.24835C10.7389 0.343224 2.56599 7.04859 1.66087 16.2252C0.75574 25.4018 7.4611 33.5747 16.6377 34.4798Z" fill="#364665"/>
<g filter="url(#filter1_i)">
<path d="M16.6377 34.4798C25.8143 35.3849 33.9872 28.6796 34.8923 19.503C35.7974 10.3263 29.0921 2.15348 19.9155 1.24835C10.7389 0.343224 2.56599 7.04859 1.66087 16.2252C0.75574 25.4018 7.4611 33.5747 16.6377 34.4798Z" fill="black"/>
</g>
<path d="M16.6377 34.4798C25.8143 35.3849 33.9872 28.6796 34.8923 19.503C35.7974 10.3263 29.0921 2.15348 19.9155 1.24835C10.7389 0.343224 2.56599 7.04859 1.66087 16.2252C0.75574 25.4018 7.4611 33.5747 16.6377 34.4798Z" stroke="url(#paint0_linear)" stroke-width="1.89"/>
<path d="M24.108 14.8886H13.3521C12.046 14.8886 11.0472 15.8874 11.0472 17.1935V21.8032H14.1203V24.8763H23.3397V21.8032H26.4129V17.1935C26.4129 15.8874 25.4141 14.8886 24.108 14.8886ZM21.8032 23.3397H15.6569V19.4983H21.8032V23.3397ZM24.108 17.9618C23.6471 17.9618 23.3397 17.6544 23.3397 17.1935C23.3397 16.7325 23.6471 16.4252 24.108 16.4252C24.569 16.4252 24.8763 16.7325 24.8763 17.1935C24.8763 17.6544 24.569 17.9618 24.108 17.9618ZM23.3397 11.0472H14.1203V14.1203H23.3397V11.0472Z" fill="white"/>
</g>
<defs>
<filter id="filter0_d" x="-12.978" y="-6.39053" width="62.5092" height="62.5092" filterUnits="userSpaceOnUse" color-interpolation-filters="sRGB">
<feFlood flood-opacity="0" result="BackgroundImageFix"/>
<feColorMatrix in="SourceAlpha" type="matrix" values="0 0 0 0 0 0 0 0 0 0 0 0 0 0 0 0 0 0 127 0"/>
<feOffset dy="7"/>
<feGaussianBlur stdDeviation="6.5"/>
<feColorMatrix type="matrix" values="0 0 0 0 0.147496 0 0 0 0 0.175332 0 0 0 0 0.296564 0 0 0 0.267401 0"/>
<feBlend mode="normal" in2="BackgroundImageFix" result="effect1_dropShadow"/>
<feBlend mode="normal" in="SourceGraphic" in2="effect1_dropShadow" result="shape"/>
</filter>
<filter id="filter1_i" x="0.0219879" y="-0.390526" width="36.5092" height="39.5092" filterUnits="userSpaceOnUse" color-interpolation-filters="sRGB">
<feFlood flood-opacity="0" result="BackgroundImageFix"/>
<feBlend mode="normal" in="SourceGraphic" in2="BackgroundImageFix" result="shape"/>
<feColorMatrix in="SourceAlpha" type="matrix" values="0 0 0 0 0 0 0 0 0 0 0 0 0 0 0 0 0 0 127 0" result="hardAlpha"/>
<feOffset dy="3"/>
<feGaussianBlur stdDeviation="3"/>
<feComposite in2="hardAlpha" operator="arithmetic" k2="-1" k3="1"/>
<feColorMatrix type="matrix" values="0 0 0 0 0.0916617 0 0 0 0 0.10232 0 0 0 0 0.180707 0 0 0 1 0"/>
<feBlend mode="normal" in2="shape" result="effect1_innerShadow"/>
</filter>
<linearGradient id="paint0_linear" x1="10.0164" y1="0.615747" x2="26.894" y2="32.441" gradientUnits="userSpaceOnUse">
<stop stop-color="#809FD8"/>
<stop offset="0.997704" stop-color="#2552A4"/>
</linearGradient>
<clipPath id="clip0">
<rect width="36" height="36" fill="white"/>
</clipPath>
</defs>
</svg>
