<?xml version="1.0" encoding="UTF-8"?>
<svg width="18px" height="22px" viewBox="0 0 18 22" version="1.1" xmlns="http://www.w3.org/2000/svg" xmlns:xlink="http://www.w3.org/1999/xlink">
    <!-- Generator: Sketch 63.1 (92452) - https://sketch.com -->
    <title>iconfinder_Asset_35_4258045</title>
    <desc>Created with Sketch.</desc>
    <g id="Page-2" stroke="none" stroke-width="1" fill="none" fill-rule="evenodd">
        <g id="matan-Mortgage-Marketplace-18-Copy" transform="translate(-1457.000000, -29.000000)" fill="#C4CAC8" fill-rule="nonzero">
            <g id="iconfinder_Asset_35_4258045" transform="translate(1457.000000, 29.000000)">
                <path d="M16.2,0 L1.8,0 C0.80588745,0 0,0.80588745 0,1.8 L0,19.8 C0,20.7941125 0.80588745,21.6 1.8,21.6 L16.2,21.6 C17.1941125,21.6 18,20.7941125 18,19.8 L18,1.8 C18,0.80588745 17.1941125,0 16.2,0 Z M3.6,18.9 C2.60588745,18.9 1.8,18.0941125 1.8,17.1 C1.8,16.1058875 2.60588745,15.3 3.6,15.3 C4.59411255,15.3 5.4,16.1058875 5.4,17.1 C5.4,18.0941125 4.59411255,18.9 3.6,18.9 Z M3.6,13.5 C2.60588745,13.5 1.8,12.6941125 1.8,11.7 C1.8,10.7058875 2.60588745,9.9 3.6,9.9 C4.59411255,9.9 5.4,10.7058875 5.4,11.7 C5.4,12.6941125 4.59411255,13.5 3.6,13.5 Z M9,18.9 C8.00588745,18.9 7.2,18.0941125 7.2,17.1 C7.2,16.1058875 8.00588745,15.3 9,15.3 C9.99411255,15.3 10.8,16.1058875 10.8,17.1 C10.8,18.0941125 9.99411255,18.9 9,18.9 Z M9,13.5 C8.00588745,13.5 7.2,12.6941125 7.2,11.7 C7.2,10.7058875 8.00588745,9.9 9,9.9 C9.99411255,9.9 10.8,10.7058875 10.8,11.7 C10.8,12.6941125 9.99411255,13.5 9,13.5 Z M16.2,17.1 C16.2,18.0941125 15.3941125,18.9 14.4,18.9 C13.4058875,18.9 12.6,18.0941125 12.6,17.1 L12.6,11.7 C12.6,10.7058875 13.4058875,9.9 14.4,9.9 C15.3941125,9.9 16.2,10.7058875 16.2,11.7 L16.2,17.1 Z M16.2,6.3 C16.2,6.79705627 15.7970563,7.2 15.3,7.2 L2.7,7.2 C2.20294373,7.2 1.8,6.79705627 1.8,6.3 L1.8,2.7 C1.8,2.20294373 2.20294373,1.8 2.7,1.8 L15.3,1.8 C15.7970563,1.8 16.2,2.20294373 16.2,2.7 L16.2,6.3 Z" id="Shape"></path>
            </g>
        </g>
    </g>
</svg>