<?xml version="1.0" encoding="UTF-8"?>
<svg width="16px" height="19px" viewBox="0 0 16 19" version="1.1" xmlns="http://www.w3.org/2000/svg" xmlns:xlink="http://www.w3.org/1999/xlink">
    <!-- Generator: Sketch 63.1 (92452) - https://sketch.com -->
    <title>iconfinder_flag-slanted_353412</title>
    <desc>Created with Sketch.</desc>
    <defs>
        <linearGradient x1="29.1087024%" y1="0%" x2="50%" y2="87.7198957%" id="linearGradient-1">
            <stop stop-color="#F3497D" offset="0%"></stop>
            <stop stop-color="#FF5D5D" offset="100%"></stop>
        </linearGradient>
    </defs>
    <g id="Page-1" stroke="none" stroke-width="1" fill="none" fill-rule="evenodd">
        <g id="matan--calculator-5" transform="translate(-974.000000, -126.000000)" fill="url(#linearGradient-1)" fill-rule="nonzero">
            <g id="iconfinder_flag-slanted_353412" transform="translate(974.000000, 126.000000)">
                <path d="M15.37718,2.58774 C15.26226,2.4735 15.12694,2.41604 14.97054,2.41604 C14.89268,2.41604 14.72846,2.47996 14.4789,2.6061 C14.229,2.73258 13.9638,2.87334 13.68466,3.03042 C13.40484,3.18648 13.07368,3.32792 12.69152,3.4544 C12.3097,3.58054 11.9561,3.64446 11.63072,3.64446 C11.33016,3.64446 11.06496,3.58734 10.83648,3.47276 C10.07862,3.1178 9.41936,2.85294 8.85972,2.67818 C8.30008,2.50376 7.69828,2.41604 7.05398,2.41604 C5.9415,2.41604 4.67432,2.7778 3.2538,3.49996 C2.96072,3.64616 2.7506,3.75938 2.6146,3.84234 L2.47962,2.8526 C2.7846,2.58774 2.98146,2.20184 2.98146,1.7663 C2.98146,0.96832 2.33478,0.32164 1.5368,0.32164 C0.73882,0.32164 0.09214,0.96832 0.09214,1.7663 C0.09214,2.28684 0.37026,2.73938 0.78302,2.9937 L2.73462,17.3043 C2.79276,17.73032 3.15724,18.03938 3.57578,18.03938 C3.61386,18.03938 3.65262,18.037 3.69172,18.0319 C4.15684,17.96798 4.48256,17.53992 4.41898,17.0748 L3.6346,11.32302 C5.05784,10.61684 6.28898,10.26086 7.32462,10.26086 C7.76424,10.26086 8.19298,10.32648 8.61084,10.45908 C9.02904,10.59202 9.37686,10.73618 9.65362,10.89224 C9.93038,11.04864 10.25712,11.19348 10.63282,11.3254 C11.0092,11.458 11.38082,11.5243 11.74768,11.5243 C12.67452,11.5243 13.78462,11.17512 15.07832,10.4771 C15.24084,10.39278 15.35984,10.30982 15.43498,10.22856 C15.51012,10.1473 15.54786,10.0317 15.54786,9.88142 L15.54786,2.99404 C15.54786,2.83798 15.49108,2.70232 15.37718,2.58774 Z" id="Path"></path>
            </g>
        </g>
    </g>
</svg>