<svg xmlns="http://www.w3.org/2000/svg" xmlns:xlink="http://www.w3.org/1999/xlink" width="35.38461538461536" height="35.30769230769229" version="1.1"><rect id="backgroundrect" width="100%" height="100%" x="0" y="0" fill="none" stroke="none" class="selected" style=""/>
    <!-- Generator: Sketch 63.1 (92452) - https://sketch.com -->
    <title>Group 14</title>
    <desc>Created with Sketch.</desc>
    <defs>
        <linearGradient x1="19.632711%" y1="0%" x2="79.9665179%" y2="90.9090909%" id="linearGradient-1">
            <stop stop-color="#61E1BF" offset="1.12700591%"/>
            <stop stop-color="#3AB549" offset="100%"/>
        </linearGradient>
        <circle id="path-2" cx="16.625" cy="16.625" r="16.625"/>
        <filter x="-72.0%" y="-51.0%" width="244.0%" height="244.0%" filterUnits="objectBoundingBox" id="filter-3">
            <feMorphology radius="0.945" operator="dilate" in="SourceAlpha" result="shadowSpreadOuter1"/>
            <feOffset dx="0" dy="7" in="shadowSpreadOuter1" result="shadowOffsetOuter1"/>
            <feGaussianBlur stdDeviation="6.5" in="shadowOffsetOuter1" result="shadowBlurOuter1"/>
            <feComposite in="shadowBlurOuter1" in2="SourceAlpha" operator="out" result="shadowBlurOuter1"/>
            <feColorMatrix values="0 0 0 0 0.147496329   0 0 0 0 0.175332433   0 0 0 0 0.296563632  0 0 0 0.267400568 0" type="matrix" in="shadowBlurOuter1"/>
        </filter>
        <filter x="-55.5%" y="-34.4%" width="210.9%" height="210.9%" filterUnits="objectBoundingBox" id="filter-4">
            <feGaussianBlur stdDeviation="3" in="SourceAlpha" result="shadowBlurInner1"/>
            <feOffset dx="0" dy="3" in="shadowBlurInner1" result="shadowOffsetInner1"/>
            <feComposite in="shadowOffsetInner1" in2="SourceAlpha" operator="arithmetic" k2="-1" k3="1" result="shadowInnerInner1"/>
            <feColorMatrix values="0 0 0 0 0.0916617303   0 0 0 0 0.102320446   0 0 0 0 0.180706522  0 0 0 1 0" type="matrix" in="shadowInnerInner1"/>
        </filter>
    </defs>
    
<g class="currentLayer" style=""><title>Layer 1</title><g id="Page-1" stroke="none" stroke-width="1" fill="none" fill-rule="evenodd" class="">
        <g id="matan--calculator-4">
            <g id="Group-14">
                <g id="Oval">
                    <use fill="black" fill-opacity="1" filter="url(#filter-3)" xlink:href="#path-2" y="1.128753662109375" x="1.3817354440689087" id="svg_1"/>
                    <use fill="#364665" fill-rule="evenodd" xlink:href="#path-2" y="1.128753662109375" x="1.3817354440689087" id="svg_2"/>
                    <use fill="black" fill-opacity="1" filter="url(#filter-4)" xlink:href="#path-2" y="1.128753662109375" x="1.3817354440689087" id="svg_3"/>
                    <use stroke="url(#linearGradient-1)" stroke-width="1.89" xlink:href="#path-2" y="1.128753662109375" x="1.3817354440689087" id="svg_4"/>
                </g>
                <g id="iconfinder_share_353438" fill="#FFFFFF" fill-rule="nonzero">
                    <path d="M22.813309462599193,19.90441143210937 C22.080662462599207,19.90441143210937 21.421680862599203,20.217884462109367 20.953797662599186,20.718187562109378 L15.48683924259916,17.995987362109375 C15.505640872599201,17.868090352109377 15.518586252599164,17.738625972109375 15.518586252599164,17.60539992210937 C15.518586252599164,17.47562206210938 15.506257312599189,17.34897894210937 15.488380362599173,17.22453013210938 L20.94732496259917,14.532109912109377 C21.415516362599192,15.03648809210938 22.07758016259919,15.35309589210938 22.813309462599193,15.35309589210938 C24.23175356259918,15.35309589210938 25.381735062599205,14.183527852109378 25.381735062599205,12.74092477210938 C25.381735062599205,11.298008222109374 24.23175356259918,10.128753662109375 22.813309462599193,10.128753662109375 C21.394865362599205,10.128753662109375 20.24488386259918,11.298008222109374 20.24488386259918,12.74092477210938 C20.24488386259918,12.87070263210937 20.25721276259918,12.99703227210938 20.27508976259918,13.121794562109372 L14.81614512259921,15.814214782109374 C14.347953782599177,15.309836602109371 13.686198132599202,14.993228802109371 12.950160652599209,14.993228802109371 C11.531408342599207,14.993228802109371 10.381735062599205,16.162796842109373 10.381735062599205,17.60539992210937 C10.381735062599205,19.048316472109377 11.531408342599207,20.21757106210937 12.950160652599209,20.21757106210937 C13.682807682599162,20.21757106210937 14.34178931259919,19.904097962109375 14.8096724325992,19.403794932109378 L20.276630862599177,22.125995062109382 C20.25782926259916,22.253578662109376 20.24488386259918,22.383356462109376 20.24488386259918,22.516582562109377 C20.24488386259918,23.959499062109373 21.394865362599205,25.128753662109375 22.813309462599193,25.128753662109375 C24.23175356259918,25.128753662109375 25.381735062599205,23.959499062109373 25.381735062599205,22.516582562109377 C25.381735062599205,21.073665962109374 24.23175356259918,19.90441143210937 22.813309462599193,19.90441143210937 z" id="Path"/>
                </g>
            </g>
        </g>
    </g></g></svg>