<?xml version="1.0" encoding="UTF-8"?>
<svg width="26px" height="40px" viewBox="0 0 26 40" version="1.1" xmlns="http://www.w3.org/2000/svg" xmlns:xlink="http://www.w3.org/1999/xlink">
    <!-- Generator: Sketch 63.1 (92452) - https://sketch.com -->
    <title>Shape</title>
    <desc>Created with Sketch.</desc>
    <g id="Page-1" stroke="none" stroke-width="1" fill="none" fill-rule="evenodd">
        <g id="matan--calculator-8" transform="translate(-466.000000, -221.000000)" fill="#9EA6BE" fill-rule="nonzero">
            <g id="Shape-2" transform="translate(466.000000, 221.000000)">
                <path d="M22.4249058,9.26509972 L21.7608696,9.26509972 L21.7608696,13.5778039 C21.7608696,14.0365222 21.3039855,14.3022084 20.7978333,14.3022084 L19.8768116,14.3022084 L19.8768116,0.603151074 C19.8768116,0.363674976 19.7104493,0.14682318 19.468442,0.0507766165 C19.226529,-0.0452699469 18.9394928,-0.00258258537 18.7451522,0.159629388 L17.1185507,1.51614836 L15.4930797,0.159629388 C15.2383551,-0.0532097961 14.8452464,-0.0532097961 14.5904275,0.159629388 L12.966087,1.51614836 L11.3416522,0.159629388 C11.0868333,-0.0532097961 10.6942899,-0.0532097961 10.4395652,0.159629388 L8.81531884,1.51614836 L7.19116667,0.159629388 C6.99692029,-0.00258258537 6.69226812,-0.0454406963 6.45016667,0.0507766165 C6.20815942,0.14682318 6.02898551,0.363674976 6.02898551,0.603151074 L6.02898551,14.3022084 L5.15082609,14.3022084 C4.64457971,14.3022084 4.33333333,14.0365222 4.33333333,13.5778039 L4.33333333,9.26509972 L3.37208696,9.26509972 C1.46598551,9.26509972 0,10.6247776 0,12.2280295 L0,37.1757188 C0,38.7788853 1.46598551,40 3.37208696,40 L22.4248116,40 C24.3311014,40 26,38.7788853 26,37.1756334 L26,12.2280295 C26,10.6247776 24.3311014,9.26509972 22.4249058,9.26509972 Z M7.44202899,1.97922086 L8.38245652,2.77986501 C8.63718116,2.99261882 9.02049275,2.9927042 9.2754058,2.77986501 L10.8950362,1.42334604 L12.5169275,2.77986501 C12.7718406,2.9927042 13.1630652,2.9927042 13.4178841,2.77986501 L15.0413768,1.42334604 L16.6652464,2.77986501 C16.9200652,2.9927042 17.328529,2.9927042 17.5833478,2.77986501 L18.557971,1.97922086 L18.557971,14.3022084 L7.44202899,14.3022084 L7.44202899,1.97922086 Z M5.80280435,36.7529432 C4.87923913,36.7529432 4.13051449,36.0744702 4.13051449,35.2374565 C4.13051449,34.4004427 4.87923913,33.7220551 5.80280435,33.7220551 C6.72618116,33.7220551 7.4749058,34.400528 7.4749058,35.2374565 C7.4749058,36.0744702 6.72618116,36.7529432 5.80280435,36.7529432 Z M5.80280435,31.3127804 C4.87923913,31.3127804 4.13051449,30.6342221 4.13051449,29.7972937 C4.13051449,28.9603653 4.87923913,28.281807 5.80280435,28.281807 C6.72618116,28.281807 7.4749058,28.9603653 7.4749058,29.7972937 C7.4749058,30.6342221 6.72618116,31.3127804 5.80280435,31.3127804 Z M5.80280435,25.8725323 C4.87923913,25.8725323 4.13051449,25.1940594 4.13051449,24.3570456 C4.13051449,23.5200318 4.87923913,22.8416443 5.80280435,22.8416443 C6.72618116,22.8416443 7.4749058,23.5201172 7.4749058,24.3570456 C7.4749058,25.1941448 6.72618116,25.8725323 5.80280435,25.8725323 Z M12.9656159,36.7529432 C12.0420507,36.7529432 11.2934203,36.0744702 11.2934203,35.2374565 C11.2934203,34.4004427 12.0420507,33.7220551 12.9656159,33.7220551 C13.889087,33.7220551 14.6378116,34.400528 14.6378116,35.2374565 C14.6378116,36.0744702 13.889087,36.7529432 12.9656159,36.7529432 Z M12.9656159,31.3127804 C12.0420507,31.3127804 11.2934203,30.6342221 11.2934203,29.7972937 C11.2934203,28.9603653 12.0420507,28.281807 12.9656159,28.281807 C13.889087,28.281807 14.6378116,28.9603653 14.6378116,29.7972937 C14.6378116,30.6342221 13.889087,31.3127804 12.9656159,31.3127804 Z M12.9656159,25.8725323 C12.0420507,25.8725323 11.2934203,25.1940594 11.2934203,24.3570456 C11.2934203,23.5200318 12.0420507,22.8416443 12.9656159,22.8416443 C13.889087,22.8416443 14.6378116,23.5201172 14.6378116,24.3570456 C14.6378116,25.1941448 13.889087,25.8725323 12.9656159,25.8725323 Z M20.1284275,36.7529432 C19.2050507,36.7529432 18.4563261,36.0744702 18.4563261,35.2374565 C18.4563261,34.4004427 19.2050507,33.7220551 20.1284275,33.7220551 C21.0519928,33.7220551 21.8006232,34.400528 21.8006232,35.2374565 C21.8006232,36.0744702 21.052087,36.7529432 20.1284275,36.7529432 Z M20.1284275,31.3127804 C19.2050507,31.3127804 18.4563261,30.6342221 18.4563261,29.7972937 C18.4563261,28.9603653 19.2050507,28.281807 20.1284275,28.281807 C21.0519928,28.281807 21.8006232,28.9603653 21.8006232,29.7972937 C21.8006232,30.6342221 21.052087,31.3127804 20.1284275,31.3127804 Z M20.1284275,25.8725323 C19.2050507,25.8725323 18.4563261,25.1940594 18.4563261,24.3570456 C18.4563261,23.5200318 19.2050507,22.8416443 20.1284275,22.8416443 C21.0519928,22.8416443 21.8006232,23.5201172 21.8006232,24.3570456 C21.8006232,25.1941448 21.052087,25.8725323 20.1284275,25.8725323 Z M23.2681159,19.5667553 C23.2681159,19.799999 23.101471,20.0223148 22.8438261,20.0223148 L2.93997826,20.0223148 C2.68252174,20.0223148 2.44927536,19.799999 2.44927536,19.5667553 L2.44927536,17.6488975 C2.44927536,17.4155684 2.68252174,17.204949 2.93997826,17.204949 L22.8438261,17.204949 C23.1015652,17.204949 23.2681159,17.4155684 23.2681159,17.6488975 L23.2681159,19.5667553 Z" id="Shape"></path>
            </g>
        </g>
    </g>
</svg>