<?xml version="1.0" encoding="UTF-8"?>
<svg width="13px" height="13px" viewBox="0 0 13 13" version="1.1" xmlns="http://www.w3.org/2000/svg" xmlns:xlink="http://www.w3.org/1999/xlink">
    <!-- Generator: Sketch 63.1 (92452) - https://sketch.com -->
    <title>iconfinder_Attachment-2_2747705</title>
    <desc>Created with Sketch.</desc>
    <g id="Page-2" stroke="none" stroke-width="1" fill="none" fill-rule="evenodd">
        <g id="matan-Mortgage-Marketplace-B-Copy" transform="translate(-581.000000, -371.000000)" fill="#7E808A" fill-rule="nonzero">
            <g id="iconfinder_Attachment-2_2747705" transform="translate(581.000000, 371.000000)">
                <path d="M3.92929749,12.9998622 C2.91675684,13.0082165 1.93887338,12.6364632 1.19385612,11.9599537 L1.14642072,11.9183573 C0.41585097,11.256623 0,10.3230162 0,9.34458375 C0,8.3661513 0.41585097,7.43254445 1.14642072,6.77081017 L7.90332985,0.739340769 C9.00130965,-0.246446923 10.679241,-0.246446923 11.7772208,0.739340769 C12.3195369,1.21157355 12.6352142,1.88726344 12.6468698,2.60077701 C12.6447057,3.30053337 12.3466965,3.96766805 11.8246562,4.44141509 L5.46831268,10.0933179 C4.81494279,10.6851577 3.81041359,10.6828952 3.1597899,10.0881183 C2.841172,9.80142417 2.65962058,9.39564833 2.65962058,8.97021668 C2.65962058,8.54478504 2.841172,8.13900919 3.1597899,7.85231503 L9.09975604,2.60077701 L9.80074583,3.37550886 L3.87132089,8.61664779 C3.77465674,8.70540232 3.71936265,8.82954747 3.71847349,8.9598176 C3.7204287,9.09502688 3.77968292,9.22325155 3.88186209,9.31338649 C4.12953853,9.53679735 4.50910524,9.53679735 4.75678168,9.31338649 L11.1131252,3.6978805 C11.4221532,3.42095983 11.5983551,3.02823206 11.5983551,2.61637564 C11.5983551,2.20451923 11.4221532,1.81179145 11.1131252,1.53487078 C10.4241343,0.888541983 9.34673972,0.874944508 8.64121384,1.50367353 L1.85795171,7.5195443 C1.33669788,7.98481117 1.03930363,8.64591321 1.03930363,9.33938421 C1.03930363,10.0328552 1.33669788,10.6939572 1.85795171,11.1592241 L1.90538711,11.2008205 C3.04345876,12.2285785 4.78878322,12.2285785 5.92685487,11.2008205 L12.2937396,5.55931675 L13,6.33404859 L6.64892706,11.9599537 C5.90904399,12.63457 4.93677711,13.0063371 3.92929749,12.9998622 Z" id="Path"></path>
            </g>
        </g>
    </g>
</svg>