<?xml version="1.0" encoding="UTF-8"?>
<svg width="35px" height="38px" viewBox="0 0 35 38" version="1.1" xmlns="http://www.w3.org/2000/svg" xmlns:xlink="http://www.w3.org/1999/xlink">
    <!-- Generator: Sketch 63.1 (92452) - https://sketch.com -->
    <title>iconfinder_receipt_bill_purchase_store_4574435</title>
    <desc>Created with Sketch.</desc>
    <g id="Page-1" stroke="none" stroke-width="1" fill="none" fill-rule="evenodd">
        <g id="matan--calculator-8" transform="translate(-343.000000, -222.000000)" fill="#9EA6BE" fill-rule="nonzero">
            <g id="iconfinder_receipt_bill_purchase_store_4574435" transform="translate(343.000000, 222.000000)">
                <path d="M2.950035,0.0240825 C1.51042141,0.244378839 0.453972659,1.49291287 0.475,2.9491325 L0.475,25.65 C0.475,26.1746705 0.900329488,26.6 1.425,26.6 L6.175,26.6 L6.175,2.85 C6.17409216,2.02900713 5.81959666,1.24818681 5.20212282,0.707117332 C4.58464898,0.166047854 3.76403666,-0.0828353361 2.950035,0.0240825 Z" id="Path"></path>
                <path d="M30.875,-1.42108547e-14 L7.10125,-1.42108547e-14 C7.72935922,0.817633974 8.07148049,1.81896454 8.075,2.85 L8.075,37.05 C8.07496624,37.365198 8.23126938,37.6598898 8.49223738,37.8366537 C8.75320539,38.0134176 9.08485438,38.049235 9.377545,37.932265 L13.732345,36.190915 L17.1501125,37.8998225 C17.4175825,38.0335711 17.7324175,38.0335711 17.9998875,37.8998225 L21.375,36.2122425 L24.7501125,37.8998225 C25.0175825,38.0335711 25.3324175,38.0335711 25.5998875,37.8998225 L29.01775,36.190915 L33.37255,37.932265 C33.6652302,38.0491942 33.9968478,38.0133565 34.2577892,37.8365977 C34.5187307,37.6598389 34.675,37.3651732 34.675,37.05 L34.675,3.8 C34.675,1.70131795 32.973682,-1.42108547e-14 30.875,-1.42108547e-14 Z M13.775,5.7 L28.9254575,5.7 C29.4026234,5.68955537 29.8185179,6.02295968 29.9121275,6.49097 C29.9588713,6.7668573 29.8816467,7.04932298 29.7010438,7.26305495 C29.5204408,7.47678691 29.2548192,7.60005756 28.975,7.6 L13.8245425,7.6 C13.3473766,7.61044463 12.9314821,7.27704032 12.8378725,6.80903 C12.7911287,6.5331427 12.8683533,6.25067702 13.0489562,6.03694505 C13.2295592,5.82321309 13.4951808,5.69994244 13.775,5.7 Z M13.775,10.45 L28.9254575,10.45 C29.4026234,10.4395554 29.8185179,10.7729597 29.9121275,11.24097 C29.9588713,11.5168573 29.8816467,11.799323 29.7010438,12.0130549 C29.5204408,12.2267869 29.2548192,12.3500576 28.975,12.35 L13.8245425,12.35 C13.3473766,12.3604446 12.9314821,12.0270403 12.8378725,11.55903 C12.7911287,11.2831427 12.8683533,11.000677 13.0489562,10.7869451 C13.2295592,10.5732131 13.4951808,10.4499424 13.775,10.45 Z M19.475,26.6 L13.8245425,26.6 C13.3473766,26.6104446 12.9314821,26.2770403 12.8378725,25.80903 C12.7911287,25.5331427 12.8683533,25.250677 13.0489562,25.0369451 C13.2295592,24.8232131 13.4951808,24.6999424 13.775,24.7 L19.4254575,24.7 C19.9026234,24.6895554 20.3185179,25.0229597 20.4121275,25.49097 C20.4588713,25.7668573 20.3816467,26.049323 20.2010438,26.2630549 C20.0204408,26.4767869 19.7548192,26.6000576 19.475,26.6 Z M19.475,21.85 L13.8245425,21.85 C13.3473766,21.8604446 12.9314821,21.5270403 12.8378725,21.05903 C12.7911287,20.7831427 12.8683533,20.500677 13.0489562,20.2869451 C13.2295592,20.0732131 13.4951808,19.9499424 13.775,19.95 L19.4254575,19.95 C19.9026234,19.9395554 20.3185179,20.2729597 20.4121275,20.74097 C20.4588713,21.0168573 20.3816467,21.299323 20.2010438,21.5130549 C20.0204408,21.7267869 19.7548192,21.8500576 19.475,21.85 L19.475,21.85 Z M22.325,17.1 L13.8245425,17.1 C13.3473766,17.1104446 12.9314821,16.7770403 12.8378725,16.30903 C12.7911287,16.0331427 12.8683533,15.750677 13.0489562,15.5369451 C13.2295592,15.3232131 13.4951808,15.1999424 13.775,15.2 L22.2754575,15.2 C22.7526234,15.1895554 23.1685179,15.5229597 23.2621275,15.99097 C23.3088713,16.2668573 23.2316467,16.549323 23.0510438,16.7630549 C22.8704408,16.9767869 22.6048192,17.1000576 22.325,17.1 L22.325,17.1 Z M26.125,23.75 L27.9258675,23.75 C29.3820871,23.7289727 30.6306212,24.7854214 30.8509175,26.225035 C30.9578353,27.0390367 30.7089521,27.859649 30.1678827,28.4771228 C29.6268132,29.0945967 28.8459929,29.4490922 28.025,29.45 L28.025,30.3504575 C28.0354446,30.8276234 27.7020403,31.2435179 27.23403,31.3371275 C26.9581427,31.3838713 26.675677,31.3066467 26.4619451,31.1260438 C26.2482131,30.9454408 26.1249424,30.6798192 26.125,30.4 L26.125,29.45 L24.2745425,29.45 C23.7973766,29.4604446 23.3814821,29.1270403 23.2878725,28.65903 C23.2411287,28.3831427 23.3183533,28.100677 23.4989562,27.8869451 C23.6795592,27.6732131 23.9451808,27.5499424 24.225,27.55 L27.9715625,27.55 C28.4494222,27.5609215 28.866519,27.2280683 28.96189,26.759695 C29.0084317,26.4838139 28.9311862,26.2014315 28.7506988,25.987654 C28.5702114,25.7738765 28.3047792,25.6503759 28.025,25.65 L26.2241325,25.65 C24.7679129,25.6710273 23.5193788,24.6145786 23.2990825,23.174965 C23.1921647,22.3609633 23.4410479,21.540351 23.9821173,20.9228772 C24.5231868,20.3054033 25.3040071,19.9509078 26.125,19.95 L26.125,19.0495425 C26.1145554,18.5723766 26.4479597,18.1564821 26.91597,18.0628725 C27.1918573,18.0161287 27.474323,18.0933533 27.6880549,18.2739562 C27.9017869,18.4545592 28.0250576,18.7201808 28.025,19 L28.025,19.95 L29.8754575,19.95 C30.3526234,19.9395554 30.7685179,20.2729597 30.8621275,20.74097 C30.9088713,21.0168573 30.8316467,21.299323 30.6510438,21.5130549 C30.4704408,21.7267869 30.2048192,21.8500576 29.925,21.85 L26.1784375,21.85 C25.7005778,21.8390785 25.283481,22.1719317 25.18811,22.640305 C25.1415683,22.9161861 25.2188138,23.1985685 25.3993012,23.412346 C25.5797886,23.6261235 25.8452208,23.7496241 26.125,23.75 L26.125,23.75 Z" id="Shape"></path>
            </g>
        </g>
    </g>
</svg>