<svg id="iconfinder_icon-email_211660" xmlns="http://www.w3.org/2000/svg" width="16.773" height="10.322" viewBox="0 0 16.773 10.322">
  <path id="Path" d="M.54.835c.444.234,6.6,3.593,6.834,3.713a1.643,1.643,0,0,0,.827.177,1.643,1.643,0,0,0,.827-.177c.23-.121,6.391-3.48,6.834-3.713.165-.085.444-.238.5-.411C16.471.117,16.358,0,15.91,0H.492C.044,0-.068.121.036.423.1.6.375.75.54.835Z" transform="translate(0.226)" fill="#fff"/>
  <path id="Path-2" data-name="Path" d="M16.438.07c-.331.169-3.3,2.282-5.262,3.552l3.314,3.73c.081.081.117.177.073.226s-.153.02-.238-.056L10.35,4.166c-.6.387-1.024.653-1.1.694a1.6,1.6,0,0,1-.827.177A1.6,1.6,0,0,1,7.6,4.86c-.077-.04-.5-.306-1.1-.694L2.528,7.521c-.081.081-.19.1-.238.056s-.012-.145.069-.226l3.31-3.73C3.705,2.352.706.239.375.07.02-.112,0,.1,0,.267V8.533a1.089,1.089,0,0,0,.948.843H15.906a1,1,0,0,0,.867-.843V.267C16.773.1,16.8-.112,16.438.07Z" transform="translate(0 0.946)" fill="#fff"/>
</svg>
