<?xml version="1.0" encoding="UTF-8"?>
<svg width="16px" height="14px" viewBox="0 0 16 14" version="1.1" xmlns="http://www.w3.org/2000/svg" xmlns:xlink="http://www.w3.org/1999/xlink">
    <!-- Generator: Sketch 63.1 (92452) - https://sketch.com -->
    <title>iconfinder_print_326675</title>
    <desc>Created with Sketch.</desc>
    <g id="Page-1" stroke="none" stroke-width="1" fill="none" fill-rule="evenodd">
        <g id="matan--calculator-1" transform="translate(-534.000000, -129.000000)" fill="#FFFFFF" fill-rule="nonzero">
            <g id="iconfinder_print_326675" transform="translate(534.000000, 129.000000)">
                <path d="M13.005,3.825 L2.295,3.825 C0.9945,3.825 0,4.8195 0,6.12 L0,10.71 L3.06,10.71 L3.06,13.77 L12.24,13.77 L12.24,10.71 L15.3,10.71 L15.3,6.12 C15.3,4.8195 14.3055,3.825 13.005,3.825 L13.005,3.825 Z M10.71,12.24 L4.59,12.24 L4.59,8.415 L10.71,8.415 L10.71,12.24 L10.71,12.24 Z M13.005,6.885 C12.546,6.885 12.24,6.579 12.24,6.12 C12.24,5.661 12.546,5.355 13.005,5.355 C13.464,5.355 13.77,5.661 13.77,6.12 C13.77,6.579 13.464,6.885 13.005,6.885 L13.005,6.885 Z M12.24,0 L3.06,0 L3.06,3.06 L12.24,3.06 L12.24,0 L12.24,0 Z" id="Shape"></path>
            </g>
        </g>
    </g>
</svg>