<?xml version="1.0" encoding="UTF-8"?>
<svg width="42px" height="36px" viewBox="0 0 42 36" version="1.1" xmlns="http://www.w3.org/2000/svg" xmlns:xlink="http://www.w3.org/1999/xlink">
    <!-- Generator: Sketch 63.1 (92452) - https://sketch.com -->
    <title>iconfinder_Counter-01_3368653</title>
    <desc>Created with Sketch.</desc>
    <g id="Page-1" stroke="none" stroke-width="1" fill="none" fill-rule="evenodd">
        <g id="matan--calculator-8" transform="translate(-457.000000, -337.000000)" fill="#9EA6BE" fill-rule="nonzero">
            <g id="iconfinder_Counter-01_3368653" transform="translate(457.000000, 337.000000)">
                <path d="M35.024,11.396 C34.848,9.504 33.264,8.096 31.372,8.096 L31.152,8.096 L29.964,11.22 L29.524,9.196 L29.568,9.196 C29.744,9.196 29.876,9.064 29.876,8.888 L29.876,8.36 C29.876,8.184 29.744,8.052 29.568,8.052 L28.864,8.052 C28.688,8.052 28.556,8.184 28.556,8.36 L28.556,8.932 C28.556,9.108 28.688,9.24 28.864,9.24 L28.908,9.24 L28.468,11.22 L27.28,8.14 L27.192,8.14 C26.224,8.14 25.388,8.492 24.728,9.108 C24.068,9.68 23.628,10.516 23.54,11.44 L23.144,15.444 L35.464,15.444 L35.024,11.396 Z" id="Path"></path>
                <circle id="Oval" cx="29.216" cy="3.784" r="3.564"></circle>
                <path d="M40.48,17.292 L18.04,17.292 C17.204,17.292 16.5,17.952 16.5,18.832 C16.5,19.668 17.16,20.372 18.04,20.372 L19.624,20.372 L19.624,34.32 C19.624,35.156 20.284,35.86 21.164,35.86 L37.4,35.86 C38.236,35.86 38.94,35.2 38.94,34.32 L38.94,20.328 L40.48,20.328 C41.316,20.328 42.02,19.668 42.02,18.788 C42.02,17.996 41.36,17.292 40.48,17.292 Z" id="Path"></path>
                <path d="M20.284,12.584 C20.196,12.188 19.932,11.836 19.58,11.616 C19.668,10.516 20.196,9.592 20.548,9.108 C20.68,8.932 20.548,8.712 20.328,8.712 L18.832,8.712 C18.744,8.712 18.7,8.756 18.656,8.8 C18.04,9.504 17.908,10.78 17.864,11.484 C16.94,11.616 15.796,11.66 15.312,11.44 C15.136,11.352 14.652,10.824 14.3,10.516 C13.156,9.372 11.704,7.92 9.856,7.92 L5.72,7.92 C2.772,7.92 1.056,11.704 0.704,13.024 C0.44,14.08 0.22,17.424 0.176,18.436 C0.132,19.272 0.792,19.976 1.628,20.02 C1.672,20.02 1.672,20.02 1.716,20.02 C2.508,20.02 3.212,19.404 3.256,18.568 C3.344,16.632 3.564,14.256 3.696,13.772 C3.828,13.376 4.048,12.848 4.356,12.364 L4.488,19.756 L2.508,33.88 C2.376,34.848 3.036,35.728 4.004,35.904 C4.972,36.036 5.852,35.376 6.028,34.408 L7.832,21.516 L9.636,34.408 C9.768,35.288 10.516,35.948 11.396,35.948 C11.484,35.948 11.572,35.948 11.66,35.948 C12.628,35.816 13.288,34.936 13.156,33.924 L11.176,19.888 L11.308,11.968 C11.616,12.232 11.88,12.54 12.144,12.76 C12.804,13.42 13.42,14.036 14.08,14.3 C15.884,15.092 18.612,14.52 19.14,14.432 C19.932,14.212 20.46,13.42 20.284,12.584 Z" id="Path"></path>
                <circle id="Oval" cx="7.832" cy="3.74" r="3.564"></circle>
            </g>
        </g>
    </g>
</svg>