<?xml version="1.0" encoding="UTF-8"?>
<svg width="36px" height="37px" viewBox="0 0 36 37" version="1.1" xmlns="http://www.w3.org/2000/svg" xmlns:xlink="http://www.w3.org/1999/xlink">
    <!-- Generator: Sketch 63.1 (92452) - https://sketch.com -->
    <title>iconfinder_b-21_4366673</title>
    <desc>Created with Sketch.</desc>
    <g id="Page-1" stroke="none" stroke-width="1" fill="none" fill-rule="evenodd">
        <g id="matan--calculator-8" transform="translate(-225.000000, -108.000000)" fill="#9EA6BE" fill-rule="nonzero">
            <g id="iconfinder_b-21_4366673" transform="translate(225.000000, 108.000000)">
                <path d="M16.335725,4.25895687 L17.7651009,3.06294844 L19.1944769,4.22978594 L21.2364425,4.22978594 C21.7323484,4.22978594 22.2282544,4.22978594 22.7241603,4.22978594 L17.7942719,0.0875128125 L12.7476997,4.28812781 L14.2354175,4.28812781 C14.93552,4.25895687 15.6356225,4.25895687 16.335725,4.25895687 Z" id="Path"></path>
                <path d="M28.5583478,9.04299063 L28.5875187,12.0475972 L32.5255953,15.3439131 L28.6458606,18.5818872 L23.5992884,22.7825022 L31.0378775,30.2210912 C31.5337834,30.7169972 31.5337834,31.5046125 31.0378775,32.0005184 C30.7753391,32.2338859 30.4836297,32.3797406 30.1335784,32.3797406 C29.7835272,32.3797406 29.4918178,32.2630569 29.2292794,32.0005184 L21.6448356,24.4160747 L17.7942719,27.6248778 L13.9145372,24.3869037 L6.33009344,31.9713475 C5.8341875,32.4672534 5.04657219,32.4672534 4.55066625,31.9713475 C4.05476031,31.4754416 4.05476031,30.6878262 4.55066625,30.1919203 L11.9892553,22.7533312 L9.83060594,21.003075 L7.001025,18.6402291 L3.06294844,15.3439131 L6.97185406,12.0767681 C6.97185406,11.6392041 6.97185406,11.1432981 6.94268312,10.6765631 L6.94268312,9.13050344 L0.175025625,14.7604944 L0.175025625,34.1591678 C0.175025625,35.2384925 1.05015375,36.1136206 2.12947844,36.1136206 L33.4590653,36.1136206 C34.53839,36.1136206 35.4135181,35.2384925 35.4135181,34.1591678 L35.4135181,14.7604944 L28.5583478,9.04299063 Z" id="Path"></path>
                <path d="M8.72211031,12.8935544 C8.75128125,14.5271269 8.75128125,15.9856738 8.78045219,17.8234428 L11.9600844,20.4779981 C11.9309134,18.3193487 11.9309134,16.9191437 11.9017425,14.2645884 C11.9892553,14.2354175 12.0475972,14.2062466 12.13511,14.1770756 L12.2517937,14.1479047 C13.7978534,13.6811697 14.7604944,12.6601869 15.0522037,11.0557853 C17.0941694,11.0557853 18.8444256,11.0266144 20.4779981,10.9974434 C20.9155622,12.6601869 22.0240578,13.7395116 23.6868012,14.1479047 C23.7159722,17.0358275 23.7159722,18.4652034 23.7451431,20.3904853 L26.8956044,17.7651009 L26.8372625,12.8643834 L26.8372625,10.5890503 L26.8080916,8.19703344 C26.8080916,7.96366594 26.7789206,7.73029844 26.7205787,7.52610187 C26.4872112,6.65097375 25.7871087,6.067555 24.8536387,5.95087125 C24.736955,5.95087125 24.6202712,5.92170031 24.5035875,5.92170031 C23.4242628,5.92170031 22.3449381,5.92170031 21.2656134,5.95087125 C20.3613144,5.95087125 19.4861862,5.95087125 18.5818872,5.98004219 C18.0568103,5.98004219 17.5025625,5.98004219 16.9774856,5.98004219 C16.0731866,5.98004219 15.1397166,6.00921312 14.2354175,6.00921312 C13.1269219,6.00921312 12.0475972,6.03838406 10.9391016,6.03838406 C10.8224178,6.03838406 10.7057341,6.03838406 10.5890503,6.067555 C10.5015375,6.067555 10.4140247,6.09672594 10.2973409,6.12589687 C9.50972562,6.33009344 8.95547781,6.85517031 8.75128125,7.61361469 L8.75128125,7.61361469 C8.66376844,7.84698219 8.6345975,8.13869156 8.6345975,8.43040094 C8.6345975,9.24718719 8.6345975,9.97646062 8.66376844,10.6765631 C8.69293937,11.4350075 8.69293937,12.1642809 8.72211031,12.8935544 Z" id="Path"></path>
                <path d="M17.7651009,17.7067591 C15.8398191,17.73593 14.2937594,19.2819897 14.3229303,21.2072716 C14.3229303,21.7906903 14.468785,22.3449381 14.7313234,22.8116731 C15.1397166,23.5992884 15.86899,24.2118781 16.7149472,24.4744166 C16.7149472,24.4744166 16.7149472,24.4744166 16.7149472,24.4744166 C17.0649984,24.5911003 17.4150497,24.6494422 17.7942719,24.6494422 C18.1443231,24.6494422 18.4943744,24.5911003 18.8152547,24.4744166 C18.8152547,24.4744166 18.8152547,24.4744166 18.8152547,24.4744166 C19.6903828,24.1827072 20.3904853,23.5992884 20.8280494,22.8116731 C20.8280494,22.8116731 20.8280494,22.8116731 20.8280494,22.8116731 C21.0905878,22.3157672 21.2364425,21.7615194 21.2364425,21.1489297 C21.2364425,19.2236478 19.6903828,17.6775881 17.7651009,17.7067591 Z" id="Path"></path>
            </g>
        </g>
    </g>
</svg>