<svg xmlns="http://www.w3.org/2000/svg" xmlns:xlink="http://www.w3.org/1999/xlink" width="24" height="25" version="1.1"><rect id="backgroundrect" width="100%" height="100%" x="0" y="0" fill="none" stroke="none" class="" style=""/>
    <!-- Generator: Sketch 63.1 (92452) - https://sketch.com -->
    <title>Group 5</title>
    <desc>Created with Sketch.</desc>
    <defs>
        <filter x="-247.9%" y="-238.0%" width="595.8%" height="576.0%" filterUnits="objectBoundingBox" id="filter-1">
            <feOffset dx="5" dy="6" in="SourceAlpha" result="shadowOffsetOuter1"/>
            <feGaussianBlur stdDeviation="12.5" in="shadowOffsetOuter1" result="shadowBlurOuter1"/>
            <feColorMatrix values="0 0 0 0 0.0704251254   0 0 0 0 0.0740662726   0 0 0 0 0.164826766  0 0 0 0.155430507 0" type="matrix" in="shadowBlurOuter1" result="shadowMatrixOuter1"/>
            <feMerge>
                <feMergeNode in="shadowMatrixOuter1"/>
                <feMergeNode in="SourceGraphic"/>
            </feMerge>
        </filter>
    </defs>
    
<g class="currentLayer" style=""><title>Layer 1</title><g id="Page-2" stroke="none" stroke-width="1" fill="none" fill-rule="evenodd" class="">
        <g id="matan-Mortgage-Marketplace-18-Copy" fill="#2EC38D" fill-rule="nonzero">
            <g id="Group-5" filter="url(#filter-1)">
                <g id="iconfinder_phone_114543">
                    <path d="M23.4603494,19.4840423 L23.32611320000001,19.204891500000002 C22.923404599999998,18.289986900000002 17.963377300000005,16.887778600000004 17.552278900000005,16.8651884 L17.2234002,16.889392200000003 C16.547185400000004,17.02332 15.802174500000007,17.639710800000003 14.2383229,18.9725348 C12.476472900000005,18.188330800000003 10.063577299999992,16.0987339 8.925925559999996,14.864338799999999 C7.694308489999997,13.529901199999998 6.157304079999989,11.2853998 5.605257730000005,9.608881439999998 C7.388921149999987,8.088881190000002 8.132254069999988,7.42892355 8.179236730000014,6.6947408400000015 C8.204406019999993,6.2994116899999995 7.353684149999992,1.3989437900000006 6.457657560000001,0.9019585750000019 L6.189185170000002,0.7389861489999987 C5.618681350000003,0.3856102959999994 4.756213809999991,-0.14848745599999802 3.79810298000001,0.03868879510000056 C3.5665455500000007,0.08548285790000065 3.340021979999989,0.17261663000000027 3.1285999700000104,0.29847652299999794 C2.485944200000006,0.6889649099999993 0.9120248350000111,1.739410939999999 0.19386120199999368,3.112574649999999 C-0.2491182349999974,3.9677764899999985 -0.4504725239999914,11.7710899 5.63210497,18.3674391 C11.640852599999988,24.8879498 19.050690400000008,25.1719413 20.163172900000006,24.9524933 L20.195054,24.947652500000004 L20.294053200000008,24.918607899999998 C21.797498500000003,24.400646100000003 23.071064399999997,23.0226416 23.54928079999999,22.4546585 C24.433561800000007,21.4025989 23.802651600000004,20.153681500000005 23.4603494,19.4840423 " id="Path"/>
                </g>
            </g>
        </g>
    </g></g></svg>