<svg xmlns="http://www.w3.org/2000/svg" width="13.608" height="13.89" viewBox="0 0 13.608 13.89">
  <g id="iconfinder_arrow_up_upload_391748" transform="translate(0 -0.399)">
    <path id="Path" d="M3.883,2.6v7.2H5.244V2.6L8.165,5.526l.962-.962L4.563,0,0,4.563l.962.962Z" transform="translate(2.241 0.399)" fill="#fff"/>
    <path id="Path-2" data-name="Path" d="M12.247,0V2.722a1.362,1.362,0,0,1-1.361,1.361H2.722A1.362,1.362,0,0,1,1.361,2.722V0H0V2.722A2.724,2.724,0,0,0,2.722,5.443h8.165a2.724,2.724,0,0,0,2.722-2.722V0Z" transform="translate(0 8.845)" fill="#fff"/>
  </g>
</svg>
