<?xml version="1.0" encoding="UTF-8"?>
<svg width="33px" height="37px" viewBox="0 0 33 37" version="1.1" xmlns="http://www.w3.org/2000/svg" xmlns:xlink="http://www.w3.org/1999/xlink">
    <!-- Generator: Sketch 63.1 (92452) - https://sketch.com -->
    <title>iconfinder_c-39_3312645</title>
    <desc>Created with Sketch.</desc>
    <defs>
        <linearGradient x1="50%" y1="21.875%" x2="78.2662899%" y2="74.7847942%" id="linearGradient-1">
            <stop stop-color="#72D98D" offset="0%"></stop>
            <stop stop-color="#2AB095" offset="100%"></stop>
        </linearGradient>
        <linearGradient x1="50%" y1="24.5339118%" x2="78.2662899%" y2="72.4416624%" id="linearGradient-2">
            <stop stop-color="#72D98D" offset="0%"></stop>
            <stop stop-color="#2AB095" offset="100%"></stop>
        </linearGradient>
        <linearGradient x1="50%" y1="41.1461174%" x2="78.2662899%" y2="57.80237%" id="linearGradient-3">
            <stop stop-color="#72D98D" offset="0%"></stop>
            <stop stop-color="#2AB095" offset="100%"></stop>
        </linearGradient>
        <linearGradient x1="50%" y1="0%" x2="58.9436308%" y2="94.0618564%" id="linearGradient-4">
            <stop stop-color="#72D98D" offset="0%"></stop>
            <stop stop-color="#2AB095" offset="100%"></stop>
        </linearGradient>
    </defs>
    <g id="Page-1" stroke="none" stroke-width="1" fill="none" fill-rule="evenodd" opacity="0.749279204">
        <g id="matan--calculator-1" transform="translate(-1487.000000, -207.000000)">
            <g id="iconfinder_c-39_3312645" transform="translate(1487.000000, 207.000000)">
                <path d="M32.5906744,21.5865764 C32.5906744,20.6434476 32.648872,19.7003187 32.5906744,18.7571898 C32.4160815,17.1067143 31.4849194,16.0456943 29.8553856,15.6330755 C29.3898046,15.5151844 28.8078283,15.5151844 28.3422472,15.5151844 C20.4855668,15.5151844 12.6288863,15.5151844 4.71400826,15.5151844 C4.4230201,15.5151844 4.13203193,15.4562388 3.8992414,15.3972933 C3.49185797,15.2204566 3.49185797,14.6899466 3.8992414,14.4541644 C4.0738343,14.3362733 4.30662483,14.3362733 4.53941536,14.2773277 C5.00499642,14.2773277 5.52877512,14.2773277 5.99435618,14.2773277 L6.92551831,11.86056 C6.16894908,11.86056 4.48121773,11.86056 3.78284613,11.86056 C1.57133609,11.86056 0,13.45209 0,15.6330755 C0,21.645522 0,26.4790574 0,32.491504 C0,34.731435 1.57133609,36.322965 3.78284613,36.322965 C7.15830884,36.322965 10.5919692,36.322965 13.9674319,36.322965 C18.9724283,36.322965 23.9192271,36.322965 28.9242235,36.322965 C30.7865478,36.322965 32.2996862,35.0261628 32.5324768,33.1988506 C32.648872,32.2557218 32.5324768,31.2536473 32.5324768,30.1926274 L32.5906744,21.5865764 Z M17.8666733,18.8161354 L27.8184685,18.8161354 C28.1094567,18.8161354 28.4004448,19.0519176 28.4004448,19.4055909 C28.4004448,19.7003187 28.1676543,19.9950465 27.8184685,19.9950465 L17.8666733,19.9950465 C17.5756851,19.9950465 17.284697,19.7592643 17.284697,19.4055909 C17.284697,19.0519176 17.5756851,18.8161354 17.8666733,18.8161354 Z M9.48621415,33.3756873 L7.449297,33.3756873 C7.15830884,33.3756873 6.86732067,33.1399051 6.86732067,32.7862317 C6.86732067,32.491504 7.10011121,32.1967762 7.449297,32.1967762 L9.48621415,32.1967762 C9.77720232,32.1967762 10.0681905,32.4325584 10.0681905,32.7862317 C10.0681905,33.0809595 9.77720232,33.3756873 9.48621415,33.3756873 Z M9.48621415,19.9361009 L7.449297,19.9361009 C7.15830884,19.9361009 6.86732067,19.7003187 6.86732067,19.3466454 C6.86732067,19.0519176 7.10011121,18.7571898 7.449297,18.7571898 L9.48621415,18.7571898 C9.77720232,18.7571898 10.0681905,18.9929721 10.0681905,19.3466454 C10.0681905,19.7003187 9.77720232,19.9361009 9.48621415,19.9361009 Z M14.3748153,33.3756873 L12.3378982,33.3756873 C12.04691,33.3756873 11.7559218,33.1399051 11.7559218,32.7862317 C11.7559218,32.491504 11.9887124,32.1967762 12.3378982,32.1967762 L14.3748153,32.1967762 C14.6658035,32.1967762 14.9567916,32.4325584 14.9567916,32.7862317 C14.9567916,33.0809595 14.7240011,33.3756873 14.3748153,33.3756873 Z M14.3748153,19.9361009 L12.3378982,19.9361009 C12.04691,19.9361009 11.7559218,19.7003187 11.7559218,19.3466454 C11.7559218,19.0519176 11.9887124,18.7571898 12.3378982,18.7571898 L14.3748153,18.7571898 C14.6658035,18.7571898 14.9567916,18.9929721 14.9567916,19.3466454 C14.9567916,19.7003187 14.7240011,19.9361009 14.3748153,19.9361009 Z M27.8766661,33.3756873 L17.8666733,33.3756873 C17.5756851,33.3756873 17.284697,33.1399051 17.284697,32.7862317 C17.284697,32.491504 17.5174875,32.1967762 17.8666733,32.1967762 L27.8184685,32.1967762 C28.1094567,32.1967762 28.4004448,32.4325584 28.4004448,32.7862317 C28.4004448,33.0809595 28.1676543,33.3756873 27.8766661,33.3756873 Z M27.1782945,28.4242607 C25.839749,28.4242607 24.6757963,27.3042952 24.6757963,25.9485475 C24.6757963,24.5927997 25.7233537,23.4728342 27.0618993,23.4138886 C28.4004448,23.3549431 29.5643975,24.4749086 29.6225951,25.8896019 C29.6807927,27.2453497 28.5750377,28.4242607 27.1782945,28.4242607 Z" id="Shape" fill="url(#linearGradient-1)"></path>
                <g id="Group" transform="translate(10.377990, 0.000000)">
                    <path d="M18.8917209,5.01761298 C18.7732775,4.90092431 18.5956124,4.84257997 18.477169,4.78423564 C15.2199757,3.26728287 11.9627825,1.75033011 8.70558924,0.291721685 C7.69882041,-0.175033011 6.75127328,0.175033011 6.27749972,1.16688674 L1.24365561,11.8439004 L1.24365561,11.8439004 L1.18443391,12.0189334 L1.06599052,12.2523108 L1.06599052,12.2523108 L0.414551868,13.7692635 L3.19797156,13.7692635 C3.43485834,13.2441645 3.61252342,12.7774098 3.84941021,12.3106551 L3.9086319,12.1939664 L3.9678536,12.0772778 C4.73773564,10.4436363 5.62606107,8.63496188 6.63282989,6.41787707 C7.99492889,6.65125442 9.1201411,6.24284406 10.0084665,5.25099033 C11.1929004,5.77608937 12.4365561,6.35953274 13.9170984,7.05966478 C13.62099,8.28489586 13.9763201,9.33509392 14.9238673,10.1519146 L14.983089,10.210259 C15.0423107,10.2686033 15.0423107,10.2686033 15.1015323,10.3269477 C14.5093154,11.5521787 13.9763201,12.6607211 13.5025466,13.7109192 L16.2859663,13.7109192 C17.2927351,11.6105231 18.2402822,9.62681561 19.3654944,7.17635345 C19.7800463,6.35953274 19.6023812,5.54271202 18.8917209,5.01761298 Z" id="Path" fill="url(#linearGradient-2)"></path>
                    <path d="M10.896792,13.7692635 L5.44839598,13.7692635 C5.50761768,13.5358862 5.56683937,13.3025088 5.68528277,13.0691315 C6.33672142,11.7272117 7.93570719,11.085424 9.29780619,11.7272117 C10.1861316,12.0772778 10.7783486,12.8940985 10.896792,13.7692635 Z" id="Path" fill="url(#linearGradient-3)"></path>
                </g>
                <path d="M14.1984588,2.37666631 C13.2290862,1.95422177 12.3167354,2.43701553 11.9175819,3.46295227 L8.154135,14.084415 L9.86479269,14.084415 L10.5490558,12.5153353 L10.5490558,12.5153353 L11.119275,11.1876524 L11.119275,11.1876524 L14.8257,2.73876163 C14.6546342,2.55771397 14.4265465,2.49736475 14.1984588,2.37666631 Z" id="Path" fill="url(#linearGradient-4)"></path>
            </g>
        </g>
    </g>
</svg>