<?xml version="1.0" encoding="UTF-8"?>
<svg width="24px" height="24px" viewBox="0 0 24 24" version="1.1" xmlns="http://www.w3.org/2000/svg" xmlns:xlink="http://www.w3.org/1999/xlink">
    <!-- Generator: Sketch 63.1 (92452) - https://sketch.com -->
    <title>iconfinder_navigate-destination-compass-route-direction_3190028</title>
    <desc>Created with Sketch.</desc>
    <defs>
        <linearGradient x1="50%" y1="0%" x2="78.2662899%" y2="94.0618564%" id="linearGradient-1">
            <stop stop-color="#72D98D" offset="0%"></stop>
            <stop stop-color="#2AB095" offset="100%"></stop>
        </linearGradient>
    </defs>
    <g id="Page-2" stroke="none" stroke-width="1" fill="none" fill-rule="evenodd">
        <g id="matan-Mortgage-Marketplace-18-Copy" transform="translate(-1880.000000, -136.000000)" fill="url(#linearGradient-1)" fill-rule="nonzero">
            <g id="iconfinder_navigate-destination-compass-route-direction_3190028" transform="translate(1880.000000, 136.000000)">
                <g id="Production">
                    <path d="M11.9999,0.25005 C5.5115,0.25005 0.25,5.50905 0.25,12.00015 C0.25,18.48845 5.50905,23.74995 12.0001,23.74995 C18.48835,23.74995 23.75,18.491 23.75,11.9999 C23.75,5.51175 18.491,0.25005 11.9999,0.25005 Z M14.1433,18.0329 L11.04755,13.74535 L6.2579,14.8545 C5.8846,14.94145 5.6273,14.4822 5.89985,14.20935 L14.1828,5.92045 C14.42405,5.6792 14.838,5.85025 14.838,6.19175 L14.8381001,17.80825 C14.8383,18.18285 14.35915,18.332 14.1433,18.0329 Z" id="Shape"></path>
                </g>
            </g>
        </g>
    </g>
</svg>