<?xml version="1.0" encoding="UTF-8"?>
<svg width="15px" height="15px" viewBox="0 0 15 15" version="1.1" xmlns="http://www.w3.org/2000/svg" xmlns:xlink="http://www.w3.org/1999/xlink">
    <!-- Generator: Sketch 63.1 (92452) - https://sketch.com -->
    <title>iconfinder_arrow_up_upload_391748</title>
    <desc>Created with Sketch.</desc>
    <g id="Page-2" stroke="none" stroke-width="1" fill="none" fill-rule="evenodd">
        <g id="matan-Mortgage-Marketplace-18" transform="translate(-178.000000, -192.000000)" fill="#FFFFFF" fill-rule="nonzero">
            <g id="iconfinder_arrow_up_upload_391748" transform="translate(178.400000, 192.000000)">
                <polygon id="Path" points="6.1236 3.0032856 6.1236 10.206 7.4844 10.206 7.4844 3.0032856 10.4053572 5.9242428 11.3674428 4.9621572 6.804 0.3987144 2.2405572 4.9621572 3.2026428 5.9242428"></polygon>
                <path d="M12.2472,8.8452 L12.2472,11.5668 C12.2472,12.3172812 11.6368812,12.9276 10.8864,12.9276 L2.7216,12.9276 C1.9711188,12.9276 1.3608,12.3172812 1.3608,11.5668 L1.3608,8.8452 L0,8.8452 L0,11.5668 C0,13.0677624 1.2206376,14.2884 2.7216,14.2884 L10.8864,14.2884 C12.3873624,14.2884 13.608,13.0677624 13.608,11.5668 L13.608,8.8452 L12.2472,8.8452 Z" id="Path"></path>
            </g>
        </g>
    </g>
</svg>