<?xml version="1.0" encoding="UTF-8"?>
<svg width="37px" height="37px" viewBox="0 0 37 37" version="1.1" xmlns="http://www.w3.org/2000/svg" xmlns:xlink="http://www.w3.org/1999/xlink">
    <!-- Generator: Sketch 63.1 (92452) - https://sketch.com -->
    <title>iconfinder_graph_chart_pie-12_2154315</title>
    <desc>Created with Sketch.</desc>
    <defs>
        <linearGradient x1="50%" y1="0%" x2="59.2590881%" y2="94.0618564%" id="linearGradient-1">
            <stop stop-color="#72D98D" offset="0%"></stop>
            <stop stop-color="#2AB095" offset="100%"></stop>
        </linearGradient>
        <linearGradient x1="50%" y1="33.6216778%" x2="78.2662899%" y2="64.4331856%" id="linearGradient-2">
            <stop stop-color="#72D98D" offset="0%"></stop>
            <stop stop-color="#2AB095" offset="100%"></stop>
        </linearGradient>
        <linearGradient x1="50%" y1="0%" x2="78.2662899%" y2="94.0618564%" id="linearGradient-3">
            <stop stop-color="#72D98D" offset="0%"></stop>
            <stop stop-color="#2AB095" offset="100%"></stop>
        </linearGradient>
    </defs>
    <g id="Page-2" stroke="none" stroke-width="1" fill="none" fill-rule="evenodd" opacity="0.75">
        <g id="matan-Mortgage-Marketplace-18" transform="translate(-1115.000000, -207.000000)" fill-rule="nonzero">
            <g id="iconfinder_graph_chart_pie-12_2154315" transform="translate(1115.000000, 207.000000)">
                <path d="M20.4950477,17.652961 L30.7425715,27.9004848 C31.4631005,28.6210139 32.6639822,28.5009257 33.2243937,27.6603085 C34.9856869,24.8582512 36.026451,21.5758412 36.026451,18.0132255 C36.026451,9.40690665 29.9820131,2.24164584 21.9361057,0.44032329 C20.935371,0.20014695 20.014695,1.00073475 20.014695,2.0014695 L20.014695,16.5321381 C20.014695,16.932432 20.1748126,17.3727553 20.4950477,17.652961 Z" id="Path" fill="url(#linearGradient-1)"></path>
                <path d="M16.5321381,20.014695 L2.0014695,20.014695 C1.00073475,20.014695 0.20014695,20.935371 0.44032329,21.9361057 C2.24164584,29.9820131 9.40690665,36.026451 18.0132255,36.026451 C21.5758412,36.026451 24.8982806,34.9856869 27.6603085,33.2243937 C28.5009257,32.6639822 28.6210139,31.4631005 27.9004848,30.7425715 L17.652961,20.4950477 C17.3727553,20.1748126 16.932432,20.014695 16.5321381,20.014695 Z" id="Path" fill="url(#linearGradient-2)"></path>
                <path d="M16.011756,14.4105804 L16.011756,2.0014695 C16.011756,1.00073475 15.09108,0.20014695 14.0903453,0.44032329 C7.28534898,1.96144011 1.96144011,7.28534898 0.44032329,14.0903453 C0.20014695,15.09108 1.00073475,16.011756 2.0014695,16.011756 L14.4105804,16.011756 C15.291227,16.011756 16.011756,15.291227 16.011756,14.4105804 Z" id="Path" fill="url(#linearGradient-3)"></path>
            </g>
        </g>
    </g>
</svg>