<?xml version="1.0" encoding="UTF-8"?>
<svg width="19px" height="19px" viewBox="0 0 19 19" version="1.1" xmlns="http://www.w3.org/2000/svg" xmlns:xlink="http://www.w3.org/1999/xlink">
    <!-- Generator: Sketch 63.1 (92452) - https://sketch.com -->
    <title>iconfinder_light_bulb_1244071</title>
    <desc>Created with Sketch.</desc>
    <g id="Page-2" stroke="none" stroke-width="1" fill="none" fill-rule="evenodd">
        <g id="matan-Mortgage-Marketplace-18-Copy" transform="translate(-1023.000000, -31.000000)" fill="#2EC38D" fill-rule="nonzero">
            <g id="iconfinder_light_bulb_1244071" transform="translate(1023.000000, 31.000000)">
                <circle id="Oval" cx="9.41535" cy="9.40065" r="4.704"></circle>
                <path d="M9.996,18.816 L8.82,18.816 C8.1732,18.816 7.644,18.2868 7.644,17.64 L7.644,15.288 L11.172,15.288 L11.172,17.64 C11.172,18.2868 10.6428,18.816 9.996,18.816 Z" id="Path"></path>
                <path d="M9.408,3.528 L9.408,3.528 C9.0846,3.528 8.82,3.2634 8.82,2.94 L8.82,0.588 C8.82,0.2646 9.0846,0 9.408,0 L9.408,0 C9.7314,0 9.996,0.2646 9.996,0.588 L9.996,2.94 C9.996,3.2634 9.7314,3.528 9.408,3.528 Z" id="Path"></path>
                <path d="M13.5681,5.2479 L13.5681,5.2479 C13.34025,5.02005 13.34025,4.6452 13.5681,4.41735 L15.2292,2.75625 C15.45705,2.5284 15.8319,2.5284 16.05975,2.75625 L16.05975,2.75625 C16.2876,2.9841 16.2876,3.35895 16.05975,3.5868 L14.39865,5.2479 C14.1708,5.4831 13.79595,5.4831 13.5681,5.2479 Z" id="Path"></path>
                <path d="M15.288,9.408 L15.288,9.408 C15.288,9.0846 15.5526,8.82 15.876,8.82 L18.228,8.82 C18.5514,8.82 18.816,9.0846 18.816,9.408 L18.816,9.408 C18.816,9.7314 18.5514,9.996 18.228,9.996 L15.876,9.996 C15.5526,9.996 15.288,9.7314 15.288,9.408 Z" id="Path"></path>
                <path d="M3.528,9.408 L3.528,9.408 C3.528,9.7314 3.2634,9.996 2.94,9.996 L0.588,9.996 C0.2646,9.996 0,9.7314 0,9.408 L0,9.408 C0,9.0846 0.2646,8.82 0.588,8.82 L2.94,8.82 C3.2634,8.82 3.528,9.0846 3.528,9.408 Z" id="Path"></path>
                <path d="M5.2479,5.2479 L5.2479,5.2479 C5.02005,5.47575 4.6452,5.47575 4.41735,5.2479 L2.75625,3.5868 C2.5284,3.35895 2.5284,2.9841 2.75625,2.75625 L2.75625,2.75625 C2.9841,2.5284 3.35895,2.5284 3.5868,2.75625 L5.2479,4.41735 C5.4831,4.6452 5.4831,5.02005 5.2479,5.2479 Z" id="Path"></path>
            </g>
        </g>
    </g>
</svg>