<?xml version="1.0" encoding="UTF-8"?>
<svg width="36px" height="37px" viewBox="0 0 36 37" version="1.1" xmlns="http://www.w3.org/2000/svg" xmlns:xlink="http://www.w3.org/1999/xlink">
    <!-- Generator: Sketch 63.1 (92452) - https://sketch.com -->
    <title>Group 26</title>
    <desc>Created with Sketch.</desc>
    <g id="Page-1" stroke="none" stroke-width="1" fill="none" fill-rule="evenodd">
        <g id="matan--calculator-8" transform="translate(-223.000000, -221.000000)" fill="#FFFFFF" fill-rule="nonzero">
            <g id="Group-26" transform="translate(223.181912, 221.288750)">
                <path d="M28.441875,3.967425 L28.441875,6.335175 C28.441875,6.94155 27.956775,7.432425 27.356175,7.432425 L15.39615,7.432425 C14.801325,7.432425 14.31045,6.94155 14.31045,6.335175 L14.31045,3.967425 C14.31045,3.36105 14.801325,2.87595 15.39615,2.87595 L18.497325,2.87595 C18.497325,1.287825 19.78515,-1.73194792e-14 21.373275,-1.73194792e-14 C22.967175,-1.73194792e-14 24.2550578,1.287825 24.2550578,2.87595 L27.3562328,2.87595 C27.956775,2.87595 28.441875,3.36105 28.441875,3.967425 Z" id="Path"></path>
                <path d="M29.516025,6.912675 C29.25615,7.871325 28.3899,8.587425 27.356175,8.587425 L15.39615,8.587425 C14.35665,8.587425 13.4904,7.871325 13.2363,6.901125 L10.828125,6.901125 L10.828125,15.2229 L13.6983,15.2229 C15.34995,15.2229 16.68975,16.5626422 16.68975,18.21435 L16.68975,20.680275 C16.68975,20.356875 16.94385,20.102775 17.26725,20.102775 L18.51465,20.102775 C18.832275,20.102775 19.09215,20.356875 19.09215,20.680275 C19.09215,20.9979 18.832275,21.257775 18.51465,21.257775 L17.26725,21.257775 C16.94385,21.257775 16.68975,20.9979 16.68975,20.680275 L16.68975,23.821875 C16.68975,23.498475 16.94385,23.244375 17.26725,23.244375 L20.599425,23.244375 C20.91705,23.244375 21.176925,23.498475 21.176925,23.821875 C21.176925,24.1395 20.91705,24.399375 20.599425,24.399375 L17.26725,24.399375 C16.94385,24.399375 16.68975,24.1395 16.68975,23.821875 L16.68975,26.96925 C16.68975,26.64585 16.94385,26.39175 17.26725,26.39175 L18.00645,26.39175 C18.324075,26.39175 18.58395,26.64585 18.58395,26.96925 C18.58395,27.286875 18.324075,27.54675 18.00645,27.54675 L17.26725,27.54675 C16.94385,27.54675 16.68975,27.286875 16.68975,26.96925 L16.68975,30.11085 C16.68975,29.793225 16.94385,29.53335 17.26725,29.53335 L20.599425,29.53335 C20.91705,29.53335 21.176925,29.793225 21.176925,30.11085 C21.176925,30.43425 20.91705,30.68835 20.599425,30.68835 L17.26725,30.68835 C16.94385,30.68835 16.68975,30.43425 16.68975,30.11085 L16.68975,32.85975 L31.9242,32.85975 L31.93575,6.912675 L29.516025,6.912675 Z M16.96695,10.666425 L21.1134,10.666425 C21.431025,10.666425 21.6909,10.920525 21.6909,11.243925 C21.6909,11.56155 21.431025,11.821425 21.1134,11.821425 L16.96695,11.821425 C16.6434922,11.821425 16.38945,11.56155 16.38945,11.243925 C16.38945,10.920525 16.6434922,10.666425 16.96695,10.666425 Z M24.503325,14.9688 L19.66965,14.9688 C19.34625,14.9688 19.09215,14.708925 19.09215,14.3913 C19.09215,14.0679 19.34625,13.8138 19.66965,13.8138 L24.503325,13.8138 C24.82095,13.8138 25.080825,14.0679 25.080825,14.3913 C25.080825,14.708925 24.82095,14.9688 24.503325,14.9688 Z M26.131875,16.9554 C26.455275,16.9554 26.709375,17.2095 26.709375,17.5329 C26.709375,17.850525 26.455275,18.1104 26.131875,18.1104 L22.2684,18.1104 C21.945,18.1104 21.6909,17.850525 21.6909,17.5329 C21.6909,17.2095 21.945,16.9554 22.2684,16.9554 L26.131875,16.9554 Z M13.3287,11.821425 C13.0053,11.821425 12.7512,11.56155 12.7512,11.243925 C12.7512,10.920525 13.0053,10.666425 13.3287,10.666425 L14.65695,10.666425 C14.974575,10.666425 15.23445,10.920525 15.23445,11.243925 C15.23445,11.56155 14.974575,11.821425 14.65695,11.821425 L13.3287,11.821425 Z M15.5982172,14.9688 C15.2748172,14.9688 15.0207172,14.708925 15.0207172,14.3913 C15.0207172,14.0679 15.2748172,13.8138 15.5982172,13.8138 L17.35965,13.8138 C17.677275,13.8138 17.93715,14.0679 17.93715,14.3913 C17.93715,14.708925 17.677275,14.9688 17.35965,14.9688 L15.5982172,14.9688 Z M17.26725,18.1104 C16.94385,18.1104 16.68975,17.850525 16.68975,17.5329 C16.68975,17.2095 16.94385,16.9554 17.26725,16.9554 L19.9584,16.9554 C20.276025,16.9554 20.5359,17.2095 20.5359,17.5329 C20.5359,17.850525 20.276025,18.1104 19.9584,18.1104 L17.26725,18.1104 Z M20.82465,21.257775 C20.50125,21.257775 20.24715,20.9979 20.24715,20.680275 C20.24715,20.356875 20.50125,20.102775 20.82465,20.102775 L23.082675,20.102775 C23.406075,20.102775 23.660175,20.356875 23.660175,20.680275 C23.660175,20.9979 23.406075,21.257775 23.082675,21.257775 L20.82465,21.257775 Z M26.1375922,23.25015 C26.4552172,23.25015 26.7150922,23.50425 26.709375,23.82765 C26.709375,24.145275 26.455275,24.40515 26.131875,24.40515 L22.90365,24.399375 C22.586025,24.3936 22.32615,24.1395 22.32615,23.8161 C22.331925,23.498475 22.586025,23.244375 22.90365,23.244375 C22.909425,23.244375 22.909425,23.244375 22.909425,23.244375 L26.1375922,23.25015 Z M20.31645,27.54675 C19.99305,27.54675 19.73895,27.286875 19.73895,26.96925 C19.73895,26.64585 19.99305,26.39175 20.31645,26.39175 L23.371425,26.39175 C23.68905,26.39175 23.948925,26.64585 23.948925,26.96925 C23.948925,27.286875 23.68905,27.54675 23.371425,27.54675 L20.31645,27.54675 Z M26.29935,30.68835 L22.90365,30.68835 C22.586025,30.68835 22.32615,30.43425 22.32615,30.11085 C22.32615,29.793225 22.586025,29.53335 22.90365,29.53335 L26.29935,29.53335 C26.62275,29.53335 26.87685,29.793225 26.87685,30.11085 C26.87685,30.43425 26.62275,30.68835 26.29935,30.68835 Z M29.4235672,30.68835 L28.6092922,30.68835 C28.2916672,30.68835 28.0317922,30.43425 28.0317922,30.11085 C28.0317922,29.793225 28.2916672,29.53335 28.6092922,29.53335 L29.4235672,29.53335 C29.7469672,29.53335 30.0010672,29.793225 30.0010672,30.11085 C30.0010672,30.43425 29.7469672,30.68835 29.4235672,30.68835 Z M29.4235672,27.54675 L25.6755922,27.54675 C25.3579672,27.54675 25.0980922,27.286875 25.0980922,26.96925 C25.0980922,26.64585 25.3579672,26.39175 25.6755922,26.39175 L29.4235672,26.39175 C29.7469672,26.39175 30.0010672,26.64585 30.0010672,26.96925 C30.0010672,27.286875 29.7469672,27.54675 29.4235672,27.54675 Z M29.4235672,24.40515 L28.4418172,24.40515 C28.1241922,24.40515 27.8643172,24.145275 27.8643172,23.82765 C27.8643172,23.50425 28.1241922,23.25015 28.4418172,23.25015 L29.4235672,23.25015 C29.7469672,23.25015 30.0010672,23.50425 30.0010672,23.82765 C30.0010672,24.145275 29.7469672,24.40515 29.4235672,24.40515 Z M29.4235672,21.257775 L25.3926172,21.257775 C25.0749922,21.257775 24.8151172,20.9979 24.8151172,20.680275 C24.8151172,20.356875 25.0749922,20.102775 25.3926172,20.102775 L29.4235672,20.102775 C29.7469672,20.102775 30.0010672,20.356875 30.0010672,20.680275 C30.0010672,20.9979 29.7469672,21.257775 29.4235672,21.257775 Z M29.4235672,18.1104 L28.4418172,18.1104 C28.1241922,18.1104 27.8643172,17.850525 27.8643172,17.5329 C27.8643172,17.2095 28.1241922,16.9554 28.4418172,16.9554 L29.4235672,16.9554 C29.7469672,16.9554 30.0010672,17.2095 30.0010672,17.5329 C30.0010672,17.850525 29.7469672,18.1104 29.4235672,18.1104 Z M29.4235672,14.9688 L26.8074922,14.9688 C26.4898672,14.9688 26.2299922,14.708925 26.2299922,14.3913 C26.2299922,14.0679 26.4898672,13.8138 26.8074922,13.8138 L29.4235672,13.8138 C29.7469672,13.8138 30.0010672,14.0679 30.0010672,14.3913 C30.0010672,14.708925 29.7469672,14.9688 29.4235672,14.9688 Z M29.4235672,11.821425 L23.4233422,11.821425 C23.0999422,11.821425 22.8458422,11.56155 22.8458422,11.243925 C22.8458422,10.920525 23.0999422,10.666425 23.4233422,10.666425 L29.4235672,10.666425 C29.7469672,10.666425 30.0010672,10.920525 30.0010672,11.243925 C30.0010672,11.56155 29.7469672,11.821425 29.4235672,11.821425 Z" id="Shape"></path>
                <path d="M35.441175,6.323625 L35.441175,33.4488 C35.441175,35.14665 34.03785,36.3766672 32.109,36.3766672 L16.048725,36.3766672 C16.441425,35.868525 16.68975,35.2389922 16.68975,34.5459922 L16.68975,34.01475 L32.5017,34.01475 C32.819325,34.01475 33.0792,33.754875 33.0792,33.43725 L33.09075,6.335175 C33.09075,6.185025 33.033,6.034875 32.923275,5.92515 C32.81355,5.8212 32.669175,5.757675 32.51325,5.757675 L29.596875,5.757675 L29.596875,3.967425 C29.596875,3.771075 29.573775,3.5805 29.5218,3.3957 L32.51325,3.3957 C34.13025,3.3957 35.441175,4.706625 35.441175,6.323625 Z" id="Path"></path>
                <path d="M13.230525,3.3957 C13.17855,3.5805 13.15545,3.771075 13.15545,3.967425 L13.15545,5.746125 L10.250625,5.746125 C9.933,5.746125 9.673125,6.006 9.673125,6.323625 L9.66735,15.2229 L7.31115,15.2229 L7.31115,6.323625 C7.31115,4.706625 8.622075,3.3957 10.239075,3.3957 L13.230525,3.3957 Z" id="Path"></path>
                <path d="M13.6983,16.3779 L1.830675,16.3779 C0.82005,16.3779 -9.85878046e-14,17.19795 -9.85878046e-14,18.21435 L-9.85878046e-14,34.54605 C-9.85878046e-14,35.556675 0.82005,36.3825 1.830675,36.3825 L13.6983,36.3825 C14.708925,36.3825 15.53475,35.556675 15.53475,34.54605 L15.53475,18.21435 C15.53475,17.19795 14.708925,16.3779 13.6983,16.3779 Z M6.7799655,33.4932098 L2.88778875,33.4932098 L2.88778875,30.3802538 L6.7799655,30.3802538 L6.7799655,33.4932098 Z M6.7799655,28.355943 L2.88778875,28.355943 L2.88778875,25.242987 L6.7799655,25.242987 L6.7799655,28.355943 Z M12.6468457,33.4932098 L8.754669,33.4932098 L8.754669,30.3802538 L12.6468457,30.3802538 L12.6468457,33.4932098 Z M12.6468457,28.355943 L8.754669,28.355943 L8.754669,25.242987 L12.6468457,25.242987 L12.6468457,28.355943 Z M12.6468457,22.7886698 L2.88778875,22.7886698 L2.88778875,19.2643605 L12.6468457,19.2643605 L12.6468457,22.7886698 Z" id="Shape"></path>
            </g>
        </g>
    </g>
</svg>