<?xml version="1.0" encoding="UTF-8"?>
<svg width="13px" height="11px" viewBox="0 0 13 11" version="1.1" xmlns="http://www.w3.org/2000/svg" xmlns:xlink="http://www.w3.org/1999/xlink">
    <!-- Generator: Sketch 63.1 (92452) - https://sketch.com -->
    <title>iconfinder_print_115769</title>
    <desc>Created with Sketch.</desc>
    <g id="Page-2" stroke="none" stroke-width="1" fill="none" fill-rule="evenodd">
        <g id="matan-Mortgage-Marketplace-B" transform="translate(-884.000000, -319.000000)" fill="#394663" fill-rule="nonzero">
            <g id="iconfinder_print_115769" transform="translate(884.000000, 319.000000)">
                <path d="M11.390625,3.796875 L9.871875,3.796875 L9.871875,2.40038437 L7.49882813,0 L2.278125,0 L2.278125,3.796875 L0.759375,3.796875 L0,4.55625 L0,8.353125 L2.278125,8.353125 L2.278125,10.63125 L9.871875,10.63125 L9.871875,8.353125 L12.15,8.353125 L12.15,4.55625 L11.390625,3.796875 Z M1.51875,5.315625 L0.759375,5.315625 L0.759375,4.55625 L1.51875,4.55625 L1.51875,5.315625 Z M9.1125,9.871875 L3.0375,9.871875 L3.0375,6.075 L9.1125,6.075 L9.1125,9.871875 Z M9.1125,3.796875 L3.0375,3.796875 L3.0375,0.759375 L6.834375,0.759375 L6.834375,3.0375 L9.1125,3.0375 L9.1125,3.796875 Z M11.2721625,7.40390625 L10.5598687,7.40390625 L10.5598687,6.26484375 L11.2721625,6.26484375 L11.2721625,7.40390625 Z" id="Shape"></path>
                <rect id="Rectangle" x="3.796875" y="6.834375" width="4.55549063" height="1"></rect>
                <rect id="Rectangle" x="3.796875" y="8.353125" width="4.55549063" height="1"></rect>
            </g>
        </g>
    </g>
</svg>