<?xml version="1.0" encoding="UTF-8"?>
<svg width="15px" height="15px" viewBox="0 0 15 15" version="1.1" xmlns="http://www.w3.org/2000/svg" xmlns:xlink="http://www.w3.org/1999/xlink">
    <!-- Generator: Sketch 63.1 (92452) - https://sketch.com -->
    <title>Path</title>
    <desc>Created with Sketch.</desc>
    <g id="Page-1" stroke="none" stroke-width="1" fill="none" fill-rule="evenodd">
        <g id="matan--calculator-9" transform="translate(-414.000000, -128.000000)" fill="#79FFD1" fill-rule="nonzero">
            <g id="Group-14" transform="translate(405.000000, 119.000000)">
                <g id="iconfinder_share_353438" transform="translate(8.650000, 9.000000)">
                    <path d="M12.7815744,9.77565777 C12.0489274,9.77565777 11.3899458,10.0891308 10.9220626,10.5894339 L5.45510418,7.8672337 C5.47390581,7.73933669 5.48685119,7.60987231 5.48685119,7.47664626 C5.48685119,7.3468684 5.47452225,7.22022528 5.4566453,7.09577647 L10.9155899,4.40335625 C11.3837813,4.90773443 12.0458451,5.22434223 12.7815744,5.22434223 C14.2000185,5.22434223 15.35,4.05477419 15.35,2.61217111 C15.35,1.16925456 14.2000185,0 12.7815744,0 C11.3631303,0 10.2131488,1.16925456 10.2131488,2.61217111 C10.2131488,2.74194897 10.2254777,2.86827861 10.2433547,2.9930409 L4.78441006,5.68546112 C4.31621872,5.18108294 3.65446307,4.86447514 2.91842559,4.86447514 C1.49967328,4.86447514 0.35,6.03404318 0.35,7.47664626 C0.35,8.91956281 1.49967328,10.0888174 2.91842559,10.0888174 C3.65107262,10.0888174 4.31005425,9.7753443 4.77793737,9.27504127 L10.2448958,11.9972414 C10.2260942,12.124825 10.2131488,12.2546028 10.2131488,12.3878289 C10.2131488,13.8307454 11.3631303,15 12.7815744,15 C14.2000185,15 15.35,13.8307454 15.35,12.3878289 C15.35,10.9449123 14.2000185,9.77565777 12.7815744,9.77565777 Z" id="Path"></path>
                </g>
            </g>
        </g>
    </g>
</svg>