<?xml version="1.0" encoding="utf-8"?>
<!-- Generator: Adobe Illustrator 16.0.0, SVG Export Plug-In . SVG Version: 6.00 Build 0)  -->
<!DOCTYPE svg PUBLIC "-//W3C//DTD SVG 1.1//EN" "http://www.w3.org/Graphics/SVG/1.1/DTD/svg11.dtd">
<svg version="1.1" id="Layer_1" xmlns="http://www.w3.org/2000/svg" xmlns:xlink="http://www.w3.org/1999/xlink" x="0px" y="0px" width="1048.547px" height="242.36px" viewBox="0 0 1048.547 242.36" enable-background="new 0 0 1048.547 242.36" xml:space="preserve">
    <g>
        <path fill="#28313e" d="M94.547,105.804c0,8.33-1.344,15.876-4.045,22.43c-2.656,6.444-6.578,11.567-11.684,15.227
		c-5.079,3.642-11.297,5.56-18.455,5.701c-4.674,0-9.687-1.029-14.905-3.06c-5.117-1.989-9.69-5.486-13.593-10.393
		c-3.876-4.871-6.188-11.438-6.874-19.52l-0.011-0.104c-0.14-1.008-0.21-2.566-0.21-4.633c0-10.341,2.978-18.759,8.847-25.021
		c5.865-6.259,13.252-9.913,21.954-10.863c11.59,0.02,21.825,3.282,31.303,9.697l2.674,2.112V60.566l-0.449-0.593
		c-8.055-5.33-19.912-8.033-35.725-8.033c-5.82,0.118-11.787,1.517-17.951,4.155c-6.15,2.634-11.874,6.55-17.123,11.642
		C13.034,72.845,8.716,79.411,5.41,87.254c-3.303,7.835-4.963,16.994-4.963,27.222l0.011,0.128
		c0.388,6.08,1.693,12.397,3.871,18.775c2.189,6.415,5.606,12.664,10.151,18.573c4.594,5.976,10.706,10.869,18.165,14.674
		c7.462,3.811,16.391,6.029,26.54,6.029h0.046c13.536,0,25.001-3.318,34.077-9.992c9.007-6.625,15.327-14.574,19.428-23.694
		c4.072-9.063,5.813-17.359,5.813-24.722V2.655h-24V105.804z" />
        <path fill="#28313e" d="M220.338,114.997c-2.234,11.204-6.062,19.69-11.377,25.222c-5.203,5.416-13.303,8.271-24.032,8.487
		c-7.07,0-13.254-1.66-18.38-4.936c-5.15-3.289-9.156-7.666-11.908-13.01c-2.783-5.402-4.341-11.145-4.627-16.971
		c0-7.164,1.404-13.788,4.175-19.689c2.738-5.833,6.724-10.511,11.847-13.902c5.098-3.376,11.147-5.088,17.979-5.088
		c7.004,0,12.151,0.877,15.298,2.606c2.585,1.42,5.101,3.247,7.503,5.447l-55.222,30.516l10.793,20.134l79.19-43.983l-0.901-1.728
		c-6.443-12.341-14.26-21.621-23.232-27.584c-9.021-5.995-20.27-9.035-33.429-9.035c-6.741,0-13.678,1.269-20.618,3.771
		c-6.955,2.507-13.459,6.407-19.331,11.594c-5.897,5.21-10.685,11.911-14.228,19.916c-3.539,7.997-5.334,17.32-5.334,27.712
		c0,10.329,2.746,20.103,8.163,29.049c5.399,8.923,12.73,16.039,21.79,21.283c9.074,5.252,18.846,7.848,29.045,7.848h0.012h0.012
		c9.699,0,18.499-1.855,26.158-5.303c7.646-3.441,14.159-7.987,19.358-13.578c5.177-5.569,9.122-11.497,11.73-17.652
		c2.618-6.182,4.005-12.181,4.122-17.847l0.037-1.775l-24.225-3.354L220.338,114.997z" />
        <path fill="#28313e" d="M305.046,100.834c-3.955-0.949-7.776-1.873-11.464-2.765c-3.598-0.873-7.078-1.942-10.346-3.182
		c-3.135-1.185-5.721-2.633-7.687-4.302c-1.724-1.464-2.661-3.088-2.86-4.962c0.021-2.455,0.869-4.334,2.59-5.717
		c1.85-1.486,4.624-2.252,8.247-2.252h54.021v-24h-50.026c-10.735,0-20.157,2.547-28.005,7.18
		c-8.186,4.834-12.337,13.395-12.336,25.298c0.242,8.854,3.158,15.947,8.666,20.982c5.295,4.844,13.605,9.233,24.791,13.024
		c0.533,0.152,4.52,1.342,11.965,3.545c7.36,2.18,12.697,3.955,15.86,5.268c3.012,1.252,5.515,2.813,7.438,4.631
		c1.696,1.604,2.527,3.439,2.54,5.604c-0.161,2.997-1.132,4.914-2.967,5.858c-2.158,1.112-4.853,1.766-8.014,2.105
		c-0.711-0.277-1.358-0.496-1.967-0.496h-58.946v23h58.489c24.066,0,37.004-10.285,38.453-30.904l0.005-0.055
		c0-9.3-3.137-17.078-9.322-23.201C328.141,109.521,318.368,104.623,305.046,100.834z" />
        <rect x="358.547" y="53.655" fill="#28313e" width="24" height="116" />
        <path fill="#28313e" d="M371.397,16.167c-3.751,0-7.058,1.349-9.829,4.009c-2.755,2.647-4.285,5.938-4.547,9.778l-0.005,0.137
		c0,4.445,1.514,8.09,4.498,10.83c2.935,2.697,6.433,4.064,10.396,4.064c3.761,0,7.007-1.316,9.646-3.911
		c2.65-2.604,3.994-6.127,3.994-10.47c0-4.118-1.434-7.597-4.26-10.338C378.479,17.547,375.151,16.167,371.397,16.167z" />
        <path fill="#28313e" d="M514.52,84.4c-3.003-6.536-7.154-12.34-12.339-17.25c-5.184-4.907-11.233-8.758-17.98-11.445
		c-6.741-2.685-14.082-4.105-21.85-4.222c-6.532,0-13.282,1.097-20.063,3.261c-6.824,2.177-13.338,5.739-19.361,10.59
		c-6.065,4.885-11.06,11.377-14.843,19.295c-3.782,7.919-5.7,17.404-5.7,28.192c0,10.415,2.492,20.213,7.408,29.122
		c4.92,8.921,11.887,16.177,20.707,21.564c8.81,5.385,18.709,8.354,29.513,8.825c9.422,0,19.239-2.503,29.619-7.439l0.917-0.543
		v-26.264l-2.787,1.765c-10.025,5.875-18.691,8.854-25.979,8.854c-7.046,0-13.154-1.59-18.268-4.727
		c-5.137-3.149-9.124-7.289-11.907-12.303c-2.795-5.034-4.347-10.207-4.641-15.376c-0.005-1.437-0.167-2.707-0.5-3.784
		c0.185-8.692,1.97-15.911,5.302-21.461c3.35-5.576,7.752-9.659,13.08-12.138c5.434-2.526,11.477-3.808,17.959-3.808
		c5.563,0,10.854,1.53,15.719,4.549c4.877,3.027,8.564,7.487,11.557,13.257c3.019,5.82,4.465,12.703,4.465,20.419v54.658
		c0,6.163-1.231,11.684-4.258,16.408c-3.033,4.736-7.166,8.457-12.58,11.059c-5.485,2.632-11.645,3.967-18.457,3.967
		c-5.144,0-10.004-0.421-14.521-1.25c-4.572-0.84-10.408-2.293-17.386-4.319l-1.939-0.566l-6.162,22.474l1.765,0.416
		c12.669,4.428,25.794,6.475,39.002,6.475h0.009h0.01c12.586,0,23.127-2.449,31.33-7.328c8.186-4.869,14.391-10.726,18.445-17.606
		c3.989-6.773,6.575-13.259,7.888-19.373c1.298-6.04,1.854-11.065,1.854-15.034v-57.51l0.098-0.124
		C519.175,98.084,517.518,90.924,514.52,84.4z" />
        <path fill="#28313e" d="M600.203,55.886c-7.674-3.348-14.908-5.23-21.566-5.23c-0.001,0-0.003,0-0.005,0
		c-9.147,0-17.692,2.795-25.396,7.117c-7.727,4.338-14.257,10.333-18.66,17.637c-4.411,7.321-7.029,15.497-7.029,24.117v70.129h25
		V99.983c0-6.975,2.814-12.814,7.766-17.854c4.94-5.03,11.023-7.476,18.118-7.477c7.482,0.214,13.308,2.917,18.087,8.264
		c4.754,5.32,7.029,11.696,7.029,18.95v67.789h25v-68.246c0-11.565-2.791-21.376-8.367-28.976
		C614.648,64.896,607.951,59.265,600.203,55.886z" />
        <path fill="#28313e" d="M850.956,58.651c-9.235-4.56-18.983-6.971-29.015-7.168c-9.693,0-19.271,2.569-28.465,7.637
		c-9.19,5.064-16.765,12.172-22.513,21.126c-5.703,8.882-8.705,18.909-8.926,29.836l-0.543,0.455l0.023,0.963
		c0.194,8.157,1.799,15.951,4.771,23.165c2.979,7.229,7.377,13.783,13.074,19.48c5.699,5.7,12.584,9.865,20.461,13.053
		c7.869,3.182,16.731,4.457,26.34,4.457h0.037h0.037c11.687,0,21.992-3.506,30.629-9.803c8.584-6.254,15.142-13.954,19.49-23.218
		c4.327-9.224,6.521-18.494,6.521-27.725c0-12.25-3.021-22.966-8.977-31.932C867.967,70.048,860.246,63.236,850.956,58.651z
		 M857.141,109.112c0,9.455-1.502,17.244-4.466,23.152c-2.909,5.801-6.895,10.023-11.844,12.551
		c-5.057,2.582-10.933,3.891-17.464,3.891c-12.579,0-21.77-3.824-27.314-11.366c-5.686-7.73-8.568-16.921-8.569-27.252
		c0.18-5.626,1.554-11.164,4.083-16.459c2.492-5.218,6.378-9.624,11.548-13.096c5.144-3.451,11.657-5.275,19.359-5.423
		c9.826,0.004,18.038,3.135,24.408,9.308C853.26,90.6,856.712,98.936,857.141,109.112z" />
        <rect x="893.547" y="1.655" fill="#28313e" width="25" height="168" />
        <path fill="#28313e" d="M1023.547,2.655v103.148c0,8.333-0.951,15.879-3.651,22.429c-2.658,6.445-6.385,11.568-11.488,15.227
		c-5.081,3.643-11.201,5.561-18.357,5.702c-4.675,0-9.639-1.029-14.855-3.06c-5.121-1.989-9.669-5.486-13.569-10.394
		c-3.879-4.872-6.179-11.438-6.861-19.519l-0.006-0.104c-0.14-1.008-0.207-2.566-0.207-4.633c0-10.342,2.978-18.761,8.846-25.021
		s13.256-9.915,21.956-10.864c11.59,0.02,21.933,3.282,31.412,9.697l2.782,2.112V60.566l-0.558-0.593
		c-8.056-5.33-19.966-8.033-35.776-8.033c-5.824,0.118-11.817,1.517-17.979,4.155c-6.152,2.635-11.89,6.551-17.137,11.642
		c-5.268,5.11-9.593,11.677-12.896,19.517c-3.305,7.838-4.97,16.997-4.97,27.222l0.009,0.128c0.391,6.087,1.695,12.404,3.872,18.776
		c2.192,6.419,5.609,12.668,10.15,18.572c4.594,5.975,10.707,10.869,18.166,14.674c7.462,3.811,16.391,6.029,26.537,6.029h0.046
		c13.535,0,25.001-3.318,34.077-9.992c9.007-6.623,15.437-14.573,19.536-23.693c4.073-9.063,5.922-17.359,5.922-24.723V2.655
		H1023.547z" />
    </g>

    <g>
        <g>
            <polygon fill="#F15D26" points="661.547,82.997 661.547,33.528 636.547,-0.655 636.547,48.813 		" />
        </g>
        <path fill="#3796D3" d="M756.469,112.563l0.004-0.094c0-10.229-1.675-19.368-4.978-27.204c-3.306-7.842-7.651-14.4-12.917-19.508
		c-5.249-5.092-11.028-9.003-17.18-11.638c-6.164-2.637-12.241-4.033-18.104-4.152c-15.771,0-28.322,2.704-36.379,8.034
		l-1.369,0.595v26.811l3.594-2.113c9.479-6.416,20.395-9.678,31.985-9.697c8.702,0.949,16.206,4.605,22.072,10.863
		c5.869,6.262,8.905,14.68,8.905,25.021c0,2.066-0.041,3.625-0.182,4.631l0.004,0.039c-0.017,0.195-0.039,0.504-0.058,0.504h24.423
		C756.362,113.655,756.423,113.278,756.469,112.563z" />
        <path fill="#1FB899" d="M696.375,147.19c-7.198-0.143-13.309-2.061-18.388-5.701c-5.105-3.658-9.15-8.781-11.807-15.227
		c-1.46-3.543-2.764-7.385-3.484-11.475c-0.613-3.477-1.149-7.129-1.149-10.955V91.997l-25-34.184v54.463
		c0,0.824,0.262,1.664,0.321,2.512c0.476,6.727,2.908,14.193,6.524,22.244c4.1,9.117,10.758,17.086,19.766,23.711
		c8.919,6.559,20.389,9.918,33.389,10.035v-23.598C696.547,147.181,696.507,147.19,696.375,147.19z" />
        <path fill="#EFCD17" d="M697.727,170.655h0.022c10.148-1,19.077-2.203,26.538-6.014c7.459-3.807,13.57-8.725,18.163-14.699
		c4.546-5.91,7.961-12.209,10.149-18.621c1.922-5.627,3.159-11.666,3.691-16.666h-24.423c-0.744,8-3.023,14.262-6.807,19.018
		c-3.902,4.904-8.701,8.436-13.819,10.426c-5.07,1.973-9.695,3.025-14.695,3.082v23.598c1,0.002,0.92-0.123,1.156-0.123H697.727z" />
    </g>
</svg>
