<?xml version="1.0" encoding="UTF-8"?>
<svg width="8px" height="13px" viewBox="0 0 8 13" version="1.1" xmlns="http://www.w3.org/2000/svg" xmlns:xlink="http://www.w3.org/1999/xlink">
    <!-- Generator: Sketch 50.2 (55047) - http://www.bohemiancoding.com/sketch -->
    <title>flaticon1530181344-svg</title>
    <desc>Created with Sketch.</desc>
    <defs></defs>
    <g id="DesignBold" stroke="none" stroke-width="1" fill="none" fill-rule="evenodd">
        <g id="flaticon1530181344-svg" fill="#1FB899" fill-rule="nonzero">
            <path d="M4.00423729,7.27436441 L2.96611096,7.27436441 C2.17391155,7.27436441 1.4290678,6.96752304 0.86883607,6.41060236 C0.308604343,5.85346049 0,5.11284419 0,4.32519804 C0,3.53741365 0.308604343,2.79693559 0.868585805,2.23979372 C1.4290678,1.68276245 2.17391155,1.37605932 2.96611096,1.37605932 L7.11864407,1.37605932 L7.11864407,3.14555361 L2.96611096,3.14555361 C2.64922007,3.14555361 2.35118247,3.26822933 2.12716764,3.49107502 C1.90315281,3.71392071 1.77966102,4.01011746 1.77966102,4.32522569 C1.77966102,4.64033391 1.90304158,4.93664126 2.12716764,5.15937636 C2.3512937,5.38211145 2.64919227,5.50489776 2.96611096,5.50489776 L4.00423729,5.50489776 L4.00423729,7.27436441 Z" id="Shape"></path>
            <path d="M4.96612023,11.3580508 L0.813559322,11.3580508 L0.813559322,9.58856485 L4.96609243,9.58856485 C5.28298332,9.58856485 5.58102092,9.46588971 5.80503575,9.24304506 C6.02902278,9.02020042 6.15254237,8.72400505 6.15254237,8.40889831 C6.15254237,8.0938192 6.02916181,7.7974856 5.80492452,7.57464095 C5.5809375,7.35193455 5.28301112,7.22923176 4.96612023,7.22923176 L3.92799391,7.22923176 L3.92799391,5.45974576 L4.96612023,5.45974576 C5.75854211,5.45974576 6.50327463,5.76658569 7.06361758,6.32350376 C7.62373808,6.88078126 7.93220339,7.62125585 7.93220339,8.40889831 C7.93220339,9.19643017 7.62373808,9.93701535 7.06372881,10.4941823 C6.50327463,11.0512109 5.75854211,11.3580508 4.96612023,11.3580508 Z" id="Shape"></path>
            <polygon id="Rectangle-path" points="3.25423729 0 5.08474576 0 5.08474576 2.39300847 3.25423729 2.39300847"></polygon>
            <polygon id="Rectangle-path" points="3.25423729 10.7319915 5.08474576 10.7319915 5.08474576 12.9375 3.25423729 12.9375"></polygon>
        </g>
    </g>
</svg>