<?xml version="1.0" encoding="utf-8"?>
<!-- Generator: Adobe Illustrator 21.0.2, SVG Export Plug-In . SVG Version: 6.00 Build 0)  -->
<svg version="1.1" id="Capa_1" xmlns="http://www.w3.org/2000/svg" xmlns:xlink="http://www.w3.org/1999/xlink" x="0px" y="0px"
	 viewBox="0 0 651 258" style="enable-background:new 0 0 651 258;" xml:space="preserve">
<style type="text/css">
	.st0{fill:#139AD6;}
	.st1{fill:#263B80;}
	.st2{fill:#232C65;}
</style>
<path class="st0" d="M458.6,92.2h-27.2c-1.6,0-3.2,1.6-4,3.2l-11.2,70.4c0,1.6,0.8,2.4,2.4,2.4H433c1.6,0,2.4-0.8,2.4-2.4l3.2-20
	c0-1.6,1.6-3.2,4-3.2h8.8c18.4,0,28.8-8.8,31.2-26.4c1.6-7.2,0-13.6-3.2-17.6C474.6,94.6,467.4,92.2,458.6,92.2 M461.8,118.6
	c-1.6,9.6-8.8,9.6-16,9.6H441l3.2-18.4c0-0.8,0.8-1.6,2.4-1.6h1.6c4.8,0,9.6,0,12,3.2C461.8,112.2,461.8,114.6,461.8,118.6"/>
<g>
	<path class="st1" d="M262.6,92.2h-27.2c-1.6,0-3.2,1.6-4,3.2l-11.2,70.4c0,1.6,0.8,2.4,2.4,2.4h12.8c1.6,0,3.2-1.6,4-3.2l3.2-19.2
		c0-1.6,1.6-3.2,4-3.2h8.8c18.4,0,28.8-8.8,31.2-26.4c1.6-7.2,0-13.6-3.2-17.6C278.6,94.6,272.2,92.2,262.6,92.2 M265.8,118.6
		c-1.6,9.6-8.8,9.6-16,9.6h-4l3.2-18.4c0-0.8,0.8-1.6,2.4-1.6h1.6c4.8,0,9.6,0,12,3.2C265.8,112.2,266.6,114.6,265.8,118.6"/>
	<path class="st1" d="M345,117.8h-12.8c-0.8,0-2.4,0.8-2.4,1.6l-0.8,4l-0.8-1.6c-3.2-4-8.8-5.6-15.2-5.6
		c-14.4,0-27.2,11.2-29.6,26.4c-1.6,8,0.8,15.2,4.8,20s9.6,6.4,16.8,6.4c12,0,18.4-7.2,18.4-7.2l-0.8,4c0,1.6,0.8,2.4,2.4,2.4h12
		c1.6,0,3.2-1.6,4-3.2l7.2-44.8C347.4,119.4,345.8,117.8,345,117.8 M326.6,143.4c-1.6,7.2-7.2,12.8-15.2,12.8c-4,0-7.2-1.6-8.8-3.2
		c-1.6-2.4-2.4-5.6-2.4-9.6c0.8-7.2,7.2-12.8,14.4-12.8c4,0,6.4,1.6,8.8,3.2C325.8,136.2,326.6,140.2,326.6,143.4"/>
</g>
<path class="st0" d="M540.2,117.8h-12.8c-0.8,0-2.4,0.8-2.4,1.6l-0.8,4l-0.8-1.6c-3.2-4-8.8-5.6-15.2-5.6
	c-14.4,0-27.2,11.2-29.6,26.4c-1.6,8,0.8,15.2,4.8,20s9.6,6.4,16.8,6.4c12,0,18.4-7.2,18.4-7.2l-0.8,4c0,1.6,0.8,2.4,2.4,2.4h12
	c1.6,0,3.2-1.6,4-3.2l7.2-44.8C542.6,119.4,541.8,117.8,540.2,117.8 M521.8,143.4c-1.6,7.2-7.2,12.8-15.2,12.8c-4,0-7.2-1.6-8.8-3.2
	c-1.6-2.4-2.4-5.6-2.4-9.6c0.8-7.2,7.2-12.8,14.4-12.8c4,0,6.4,1.6,8.8,3.2C521.8,136.2,522.6,140.2,521.8,143.4"/>
<path class="st1" d="M414.6,117.8H401c-1.6,0-2.4,0.8-3.2,1.6l-17.6,27.2l-8-25.6c-0.8-1.6-1.6-2.4-4-2.4h-12.8
	c-1.6,0-2.4,1.6-2.4,3.2l14.4,42.4l-13.6,19.2c-0.8,1.6,0,4,1.6,4h12.8c1.6,0,2.4-0.8,3.2-1.6l44-63.2
	C417.8,120.2,416.2,117.8,414.6,117.8"/>
<path class="st0" d="M555.4,94.6l-11.2,72c0,1.6,0.8,2.4,2.4,2.4h11.2c1.6,0,3.2-1.6,4-3.2L573,95.4c0-1.6-0.8-2.4-2.4-2.4h-12.8
	C557,92.2,556.2,93,555.4,94.6"/>
<path class="st1" d="M161,68.2c-5.6-6.4-16-9.6-30.4-9.6h-40c-2.4,0-4.8,2.4-5.6,4.8L69,168.2c0,2.4,1.6,4,3.2,4H97l6.4-39.2v1.6
	c0.8-2.4,3.2-4.8,5.6-4.8h12c23.2,0,40.8-9.6,46.4-36c0-0.8,0-1.6,0-2.4c-0.8,0-0.8,0,0,0C168.2,81,166.6,74.6,161,68.2"/>
<path class="st0" d="M166.6,91.4L166.6,91.4c0,0.8,0,1.6,0,2.4c-5.6,27.2-23.2,36-46.4,36h-12c-2.4,0-4.8,2.4-5.6,4.8l-8,48.8
	c0,1.6,0.8,3.2,3.2,3.2h20.8c2.4,0,4.8-1.6,4.8-4v-0.8l4-24.8v-1.6c0-2.4,2.4-4,4.8-4h3.2c20,0,36-8,40-32c1.6-9.6,0.8-18.4-4-24
	C170.6,93.8,169,92.2,166.6,91.4"/>
<path class="st2" d="M161,89c-0.8,0-1.6-0.8-2.4-0.8c-0.8,0-1.6,0-2.4-0.8c-3.2-0.8-6.4-0.8-10.4-0.8h-31.2c-0.8,0-1.6,0-2.4,0.8
	c-1.6,0.8-2.4,2.4-2.4,4l-6.4,41.6v1.6c0.8-2.4,3.2-4.8,5.6-4.8h12c23.2,0,40.8-9.6,46.4-36c0-0.8,0-1.6,0.8-2.4
	c-1.6-0.8-2.4-1.6-4-1.6C161.8,89,161.8,89,161,89"/>
</svg>
