<?xml version="1.0" encoding="UTF-8"?>
<svg width="14px" height="12px" viewBox="0 0 14 12" version="1.1" xmlns="http://www.w3.org/2000/svg" xmlns:xlink="http://www.w3.org/1999/xlink">
    <!-- Generator: Sketch 50.2 (55047) - http://www.bohemiancoding.com/sketch -->
    <title>flaticon1529895865-svg</title>
    <desc>Created with Sketch.</desc>
    <defs></defs>
    <g id="DesignBold" stroke="none" stroke-width="1" fill="none" fill-rule="evenodd">
        <g id="flaticon1529895865-svg" fill="#FFB600" fill-rule="nonzero">
            <path d="M12.0700935,11.2156542 C12.0700935,10.789486 11.7252336,10.4446262 11.2990654,10.4446262 L2.46588785,10.4446262 C2.03971963,10.4446262 1.69485981,10.789486 1.69485981,11.2156542 C1.69485981,11.6418224 2.03971963,11.9866822 2.46588785,11.9866822 L11.2990654,11.9866822 C11.7252336,11.9866822 12.0700935,11.6404206 12.0700935,11.2156542 Z" id="Shape"></path>
            <path d="M0.91682243,4.97453271 C0.929439252,4.97453271 0.940654206,4.97453271 0.953271028,4.97313084 L2.17570093,9.39742991 L6.88317757,9.39742991 L11.5892523,9.39742991 L12.8116822,4.97313084 C12.824285,4.97313084 12.8355,4.97453271 12.8481308,4.97453271 C13.3542056,4.97453271 13.7649533,4.56378505 13.7649533,4.05771028 C13.7649533,3.55163551 13.3541916,3.14088785 12.8481308,3.14088785 C12.3420701,3.14088785 11.9313084,3.55163551 11.9313084,4.05771028 C11.9313084,4.15584112 11.946743,4.25116822 11.9761682,4.33948598 L9.76542056,5.63200935 L7.38925234,1.69275701 C7.63599533,1.52873832 7.80001402,1.24696262 7.80001402,0.928738318 C7.80001402,0.422663551 7.38925234,0.0119158879 6.88319159,0.0119158879 C6.37713084,0.0119158879 5.96636916,0.422663551 5.96636916,0.928738318 C5.96636916,1.24836449 6.129,1.52873832 6.37713084,1.69275701 L4.00096262,5.63200935 L1.79021495,4.33948598 C1.81825234,4.25116822 1.83507477,4.15584112 1.83507477,4.05771028 C1.83507477,3.55163551 1.4243271,3.14088785 0.918252336,3.14088785 C0.410775701,3.14088785 2.80373832e-05,3.55163551 2.80373832e-05,4.05771028 C2.80373832e-05,4.56378505 0.410747664,4.97453271 0.91682243,4.97453271 Z" id="Shape"></path>
        </g>
    </g>
</svg>