<svg xmlns="http://www.w3.org/2000/svg" width="16" height="16" viewBox="0 0 16 16">
  <path fill="#1E263C" fill-rule="evenodd" d="M14,115.5 L2,115.5 C1.724,115.5 1.5,115.276 1.5,115 L1.5,107.5 L3.5,107.5 C3.2395,107.875 3.1515,108.5745 3.1515,109.0185 C3.1515,111.696 5.335,113.8745 8.0185,113.8745 C10.7025,113.8745 12.886,111.696 12.886,109.0185 C12.886,108.5745 12.823,107.8855 12.5,107.5 L14.5,107.5 L14.5,115 C14.5,115.276 14.276,115.5 14,115.5 M8.0185,105.949 C9.718,105.949 11.0955,107.3235 11.0955,109.0185 C11.0955,110.714 9.718,112.0885 8.0185,112.0885 C6.3195,112.0885 4.942,110.714 4.942,109.0185 C4.942,107.3235 6.3195,105.949 8.0185,105.949 M12,103 L13.5,103 C13.776,103 14,103.224 14,103.5 L14,105 C14,105.276 13.776,105.5 13.5,105.5 L12,105.5 C11.724,105.5 11.5,105.276 11.5,105 L11.5,103.5 C11.5,103.224 11.724,103 12,103 M14.098,101 L1.902,101 C0.8515,101 0,101.8495 0,102.8975 L0,115.1025 C0,116.1505 0.8515,117 1.902,117 L14.098,117 C15.1485,117 16,116.1505 16,115.1025 L16,102.8975 C16,101.8495 15.1485,101 14.098,101" transform="translate(0 -101)"/>
</svg>
