<svg xmlns="http://www.w3.org/2000/svg" width="16" height="12" viewBox="0 0 16 12">
  <path fill="#1E263C" fill-rule="evenodd" d="M396.34941,165.703711 L396.34891,161.207212 L400.67287,163.463213 L396.34941,165.703711 Z M405.843518,160.428039 C405.843518,160.428039 405.686984,159.325294 405.207377,158.839686 C404.598742,158.202045 403.91659,158.199044 403.604021,158.162036 C401.364524,158 398.005278,158 398.005278,158 L397.998276,158 C397.998276,158 394.63903,158 392.399533,158.162036 C392.086463,158.199044 391.404812,158.202045 390.795677,158.839686 C390.31607,159.325294 390.160036,160.428039 390.160036,160.428039 C390.160036,160.428039 390,161.723327 390,163.018114 L390,164.232384 C390,165.527672 390.160036,166.822459 390.160036,166.822459 C390.160036,166.822459 390.31607,167.925204 390.795677,168.410812 C391.404812,169.048453 392.20449,169.028449 392.560569,169.094964 C393.840853,169.217991 398.001777,169.256 398.001777,169.256 C398.001777,169.256 401.364524,169.250998 403.604021,169.088962 C403.91659,169.051454 404.598742,169.048453 405.207377,168.410812 C405.686984,167.925204 405.843518,166.822459 405.843518,166.822459 C405.843518,166.822459 406.003554,165.527672 406.003554,164.232384 L406.003554,163.018114 C406.003554,161.723327 405.843518,160.428039 405.843518,160.428039 L405.843518,160.428039 Z" transform="translate(-390 -158)"/>
</svg>
