<?xml version="1.0" encoding="utf-8"?>
<!-- Generator: Adobe Illustrator 14.0.0, SVG Export Plug-In  -->
<!DOCTYPE svg PUBLIC "-//W3C//DTD SVG 1.1//EN" "http://www.w3.org/Graphics/SVG/1.1/DTD/svg11.dtd" [
	<!ENTITY ns_flows "http://ns.adobe.com/Flows/1.0/">
]>
<svg version="1.1"
	 xmlns="http://www.w3.org/2000/svg" xmlns:xlink="http://www.w3.org/1999/xlink" xmlns:a="http://ns.adobe.com/AdobeSVGViewerExtensions/3.0/"
	 x="0px" y="0px" width="144px" height="41px" viewBox="14.711 12.255 144 41" enable-background="new 14.711 12.255 144 41"
	 xml:space="preserve">
<defs>
</defs>
<g>
	<defs>
		<path id="SVGID_2_" d="M23.415,32.741c0-5.15,4.177-9.326,9.329-9.326c5.152,0,9.329,4.175,9.329,9.326
			c0,5.155-4.177,9.332-9.329,9.332C27.592,42.072,23.415,37.896,23.415,32.741 M16.185,32.744c0,9.143,7.412,16.558,16.559,16.558
			c9.146,0,16.56-7.415,16.56-16.558c0-9.146-7.414-16.559-16.56-16.559C23.597,16.185,16.185,23.598,16.185,32.744"/>
	</defs>
	<clipPath id="SVGID_3_">
		<use xlink:href="#SVGID_2_"  overflow="visible"/>
	</clipPath>
	
		<linearGradient id="SVGID_4_" gradientUnits="userSpaceOnUse" x1="-424.5186" y1="1005.5674" x2="-423.5044" y2="1005.5674" gradientTransform="matrix(16.7733 20.7874 20.7874 -16.7733 -13760 25711.4961)">
		<stop  offset="0" style="stop-color:#56C4CF"/>
		<stop  offset="0.0763" style="stop-color:#75CED5"/>
		<stop  offset="0.1916" style="stop-color:#9EDADE"/>
		<stop  offset="0.2825" style="stop-color:#B8E2E3"/>
		<stop  offset="0.3373" style="stop-color:#C1E5E5"/>
		<stop  offset="1" style="stop-color:#78CCD0"/>
	</linearGradient>
	<polygon clip-path="url(#SVGID_3_)" fill="url(#SVGID_4_)" points="36.243,0 65.487,36.243 29.244,65.487 0,29.244 	"/>
</g>
<g>
	<defs>
		<path id="SVGID_1_" d="M23.415,32.744c0-5.152,4.177-9.329,9.329-9.329c5.152,0,9.329,4.176,9.329,9.329
			c0,5.153-4.177,9.329-9.329,9.329C27.592,42.072,23.415,37.896,23.415,32.744 M16.185,32.744c0,7.172,5.814,12.986,12.987,12.986
			c7.171,0,12.985-5.813,12.985-12.986c0-7.173-5.814-12.986-12.985-12.986C21.999,19.758,16.185,25.571,16.185,32.744"/>
	</defs>
	<clipPath id="SVGID_5_">
		<use xlink:href="#SVGID_1_"  overflow="visible"/>
	</clipPath>
	
		<linearGradient id="SVGID_6_" gradientUnits="userSpaceOnUse" x1="-421.9907" y1="1000.5283" x2="-420.9763" y2="1000.5283" gradientTransform="matrix(17.087 17.298 17.298 -17.087 -10076.1152 24419.5547)">
		<stop  offset="0" style="stop-color:#0071BB"/>
		<stop  offset="0.75" style="stop-color:#71C5EE"/>
		<stop  offset="0.8208" style="stop-color:#6EC3ED"/>
		<stop  offset="0.8797" style="stop-color:#63BDEA"/>
		<stop  offset="0.9343" style="stop-color:#52B4E5"/>
		<stop  offset="0.986" style="stop-color:#3AA6DD"/>
		<stop  offset="1" style="stop-color:#32A2DB"/>
	</linearGradient>
	<polygon clip-path="url(#SVGID_5_)" fill="url(#SVGID_6_)" points="29.33,6.773 55.142,32.903 29.011,58.715 3.199,32.584 	"/>
</g>
<path fill="#B5B5B6" d="M76.396,27.701l-1.792,1.112c-1.548-2.054-3.661-3.083-6.339-3.083c-2.139,0-3.915,0.687-5.329,2.065
	c-1.414,1.375-2.119,3.048-2.119,5.016c0,1.279,0.324,2.481,0.975,3.611c0.65,1.131,1.542,2.005,2.675,2.628
	c1.135,0.627,2.405,0.936,3.815,0.936c2.581,0,4.687-1.025,6.322-3.084l1.792,1.181c-0.839,1.263-1.968,2.242-3.382,2.943
	c-1.416,0.693-3.027,1.043-4.836,1.043c-2.775,0-5.081-0.882-6.911-2.648c-1.828-1.767-2.744-3.912-2.744-6.441
	c0-1.7,0.427-3.279,1.283-4.739c0.857-1.457,2.031-2.594,3.527-3.413c1.497-0.819,3.17-1.229,5.023-1.229
	c1.162,0,2.285,0.177,3.366,0.533c1.081,0.357,2,0.819,2.752,1.389C75.228,26.091,75.867,26.819,76.396,27.701"/>
<path fill="#B5B5B6" d="M89.254,23.599c2.707,0,4.95,0.979,6.73,2.937c1.616,1.788,2.425,3.904,2.425,6.348
	c0,2.455-0.854,4.599-2.563,6.435c-1.71,1.833-3.907,2.751-6.593,2.751c-2.693,0-4.897-0.918-6.605-2.751
	c-1.711-1.836-2.564-3.98-2.564-6.435c0-2.433,0.808-4.542,2.426-6.33C84.291,24.582,86.539,23.599,89.254,23.599 M89.247,25.813
	c-1.879,0-3.493,0.695-4.843,2.083c-1.349,1.389-2.026,3.066-2.026,5.037c0,1.27,0.308,2.456,0.923,3.552
	c0.616,1.098,1.448,1.945,2.496,2.54c1.047,0.598,2.198,0.896,3.45,0.896c1.253,0,2.403-0.299,3.451-0.896
	c1.048-0.595,1.879-1.442,2.496-2.54c0.613-1.097,0.924-2.282,0.924-3.552c0-1.97-0.681-3.648-2.033-5.037
	C92.728,26.507,91.116,25.813,89.247,25.813"/>
<path fill="#B5B5B6" d="M102.664,24.051h2.31v2.567c0.688-1.012,1.414-1.765,2.179-2.27c0.765-0.498,1.561-0.75,2.389-0.75
	c0.626,0,1.291,0.197,2.003,0.598l-1.179,1.904c-0.473-0.204-0.872-0.306-1.194-0.306c-0.755,0-1.479,0.308-2.179,0.929
	c-0.7,0.618-1.234,1.578-1.599,2.883c-0.28,0.998-0.42,3.023-0.42,6.069v6.541h-2.31V24.051z"/>
<path fill="#B5B5B6" d="M115.989,42.233V16.689h2.26v10.38c0.948-1.159,2.005-2.029,3.179-2.607
	c1.172-0.573,2.457-0.864,3.853-0.864c2.485,0,4.605,0.903,6.364,2.707c1.757,1.802,2.638,3.989,2.638,6.563
	c0,2.54-0.888,4.709-2.662,6.506s-3.91,2.695-6.403,2.695c-1.431,0-2.726-0.305-3.887-0.921c-1.16-0.611-2.188-1.532-3.081-2.76
	v3.845H115.989z M125.03,39.892c1.258,0,2.416-0.31,3.479-0.932c1.063-0.617,1.908-1.485,2.536-2.604
	c0.631-1.12,0.943-2.305,0.943-3.551c0-1.252-0.317-2.442-0.951-3.57c-0.633-1.129-1.484-2.012-2.554-2.639
	c-1.068-0.629-2.207-0.946-3.421-0.946c-1.237,0-2.409,0.317-3.521,0.946c-1.109,0.627-1.965,1.477-2.562,2.543
	c-0.595,1.063-0.892,2.264-0.892,3.601c0,2.032,0.667,3.734,2.005,5.097C121.43,39.204,123.075,39.892,125.03,39.892"/>
<path fill="#B5B5B6" d="M140.833,16.819c0.516,0,0.955,0.182,1.318,0.546c0.365,0.37,0.547,0.811,0.547,1.326
	c0,0.505-0.182,0.942-0.547,1.31c-0.363,0.364-0.803,0.545-1.318,0.545c-0.503,0-0.938-0.181-1.302-0.545
	c-0.363-0.368-0.549-0.804-0.549-1.31c0-0.515,0.186-0.957,0.549-1.326C139.896,17.001,140.331,16.819,140.833,16.819
	 M139.714,24.051h2.261v18.167h-2.261V24.051z"/>
<polygon fill="#B5B5B6" points="150.656,16.633 152.917,16.633 152.917,24.051 156.501,24.051 156.501,26.004 152.917,26.004 
	152.917,42.219 150.656,42.219 150.656,26.004 147.573,26.004 147.573,24.051 150.656,24.051 "/>
</svg>
