<svg xmlns="http://www.w3.org/2000/svg" viewBox="0 0 158.65 45.97"><defs><style>.cls-1{fill:#e30f09;}</style></defs><g id="Ebene_2" data-name="Ebene 2"><g id="Logo"><path class="cls-1" d="M3.44,7.78a38.3,38.3,0,0,1,7.19-.63c3.94,0,6.47.68,8.37,2.21a6.39,6.39,0,0,1,2.54,5.39c0,2.94-1.95,5.52-5.16,6.69v.1a7.86,7.86,0,0,1,6.29,7.64,8.24,8.24,0,0,1-2.58,6.11C18,37.23,14.52,38.14,9.55,38.14a46.21,46.21,0,0,1-6.11-.36ZM7.37,20.27H11c4.16,0,6.6-2.17,6.6-5.11,0-3.58-2.71-5-6.69-5a16.73,16.73,0,0,0-3.49.27Zm0,14.61a20.59,20.59,0,0,0,3.31.18c4.07,0,7.82-1.49,7.82-5.92,0-4.17-3.57-5.89-7.87-5.89H7.37Z" transform="translate(-3.44 -6.88)"/><path class="cls-1" d="M43.75,23.57H31.9v11H45.11v3.31H28V7.37H44.43v3.31H31.9v9.63H43.75Z" transform="translate(-3.44 -6.88)"/><path class="cls-1" d="M50.22,7.37h3.93V34.56h13v3.31h-17Z" transform="translate(-3.44 -6.88)"/><path d="M71,33.07a13.88,13.88,0,0,0,7,2c4,0,6.38-2.12,6.38-5.2,0-2.85-1.62-4.48-5.74-6.06-5-1.77-8-4.35-8-8.64,0-4.75,3.93-8.28,9.86-8.28a13.86,13.86,0,0,1,6.74,1.49l-1.09,3.21a12.15,12.15,0,0,0-5.79-1.45c-4.16,0-5.74,2.49-5.74,4.57,0,2.85,1.85,4.26,6.06,5.88,5.16,2,7.78,4.48,7.78,9,0,4.71-3.48,8.78-10.68,8.78a15.71,15.71,0,0,1-7.78-2Z" transform="translate(-3.44 -6.88)"/><path d="M97.81,7.37v30.5H93.87V7.37Z" transform="translate(-3.44 -6.88)"/><path d="M104.69,7.74a45.22,45.22,0,0,1,7.55-.59c3.89,0,6.74.9,8.55,2.53a8.19,8.19,0,0,1,2.67,6.38,9,9,0,0,1-2.35,6.52c-2.08,2.21-5.47,3.34-9.32,3.34a13.39,13.39,0,0,1-3.17-.27V37.87h-3.93Zm3.93,14.7a13,13,0,0,0,3.26.32c4.75,0,7.65-2.31,7.65-6.52,0-4-2.85-6-7.2-6a16.53,16.53,0,0,0-3.71.32Z" transform="translate(-3.44 -6.88)"/><path d="M129.89,28.28l-3.17,9.59h-4.07L133,7.37h4.75l10.4,30.5H144l-3.26-9.59Zm10-3.08-3-8.78c-.68-2-1.13-3.8-1.59-5.56h-.09c-.45,1.81-.95,3.66-1.53,5.52l-3,8.82Z" transform="translate(-3.44 -6.88)"/><path d="M51.2,42a11.11,11.11,0,0,1,1.95-.17,3.43,3.43,0,0,1,2.26.6,1.74,1.74,0,0,1,.69,1.46,2,2,0,0,1-1.4,1.81v0a2.13,2.13,0,0,1,1.71,2.07,2.2,2.2,0,0,1-.7,1.65,4.15,4.15,0,0,1-2.86.78,12.15,12.15,0,0,1-1.65-.1Zm1.07,3.39h1c1.13,0,1.79-.59,1.79-1.39,0-1-.73-1.35-1.81-1.35a4.16,4.16,0,0,0-.94.08Zm0,3.95a5.19,5.19,0,0,0,.89.05c1.1,0,2.12-.4,2.12-1.6s-1-1.6-2.13-1.6h-.88Z" transform="translate(-3.44 -6.88)"/><path d="M62.77,48.53c0,.61,0,1.15,0,1.61h-1l-.06-1h0a2.22,2.22,0,0,1-2,1.11c-.93,0-2-.52-2-2.6V44.21h1.07V47.5c0,1.12.35,1.88,1.33,1.88a1.56,1.56,0,0,0,1.42-1,1.58,1.58,0,0,0,.1-.55V44.21h1.08Z" transform="translate(-3.44 -6.88)"/><path d="M65.75,42.55a.63.63,0,0,1-.68.66.64.64,0,0,1-.65-.66.66.66,0,0,1,.67-.68A.64.64,0,0,1,65.75,42.55Zm-1.2,7.59V44.21h1.08v5.93Z" transform="translate(-3.44 -6.88)"/><path d="M67.42,41.44H68.5v8.7H67.42Z" transform="translate(-3.44 -6.88)"/><path d="M75.43,41.44v7.17c0,.53,0,1.13,0,1.53h-1l-.05-1h0a2.18,2.18,0,0,1-2,1.17c-1.44,0-2.54-1.22-2.54-3,0-2,1.22-3.18,2.66-3.18a2,2,0,0,1,1.79.9h0V41.44Zm-1.08,5.19a2.38,2.38,0,0,0,0-.46,1.6,1.6,0,0,0-1.56-1.25c-1.12,0-1.78,1-1.78,2.29s.59,2.2,1.75,2.2a1.63,1.63,0,0,0,1.59-1.29,2.25,2.25,0,0,0,0-.46Z" transform="translate(-3.44 -6.88)"/><path d="M78.42,42.55a.67.67,0,0,1-1.33,0,.66.66,0,0,1,.67-.68A.65.65,0,0,1,78.42,42.55Zm-1.2,7.59V44.21H78.3v5.93Z" transform="translate(-3.44 -6.88)"/><path d="M80.09,45.82c0-.61,0-1.12,0-1.61H81l.07,1h0a2.18,2.18,0,0,1,2-1.11c.82,0,2.1.49,2.1,2.52v3.54H84.06V46.72c0-.95-.36-1.75-1.37-1.75a1.52,1.52,0,0,0-1.45,1.1,1.57,1.57,0,0,0-.07.51v3.56H80.09Z" transform="translate(-3.44 -6.88)"/><path d="M92,44.21c0,.43,0,.91,0,1.63v3.45A3.38,3.38,0,0,1,91.1,52,3.12,3.12,0,0,1,89,52.7a3.82,3.82,0,0,1-2-.49l.27-.82a3.31,3.31,0,0,0,1.74.47c1.1,0,1.91-.58,1.91-2.07v-.66h0a2.12,2.12,0,0,1-1.89,1,2.65,2.65,0,0,1-2.52-2.89,2.85,2.85,0,0,1,2.67-3.15,2,2,0,0,1,1.85,1h0l0-.9Zm-1.12,2.34a1.53,1.53,0,0,0-.06-.49,1.56,1.56,0,0,0-1.51-1.14c-1,0-1.76.87-1.76,2.25,0,1.16.59,2.13,1.75,2.13a1.59,1.59,0,0,0,1.5-1.11,1.87,1.87,0,0,0,.08-.57Z" transform="translate(-3.44 -6.88)"/><path d="M97.63,42.51v1.7h1.55V45H97.63v3.2c0,.74.21,1.15.81,1.15a2.24,2.24,0,0,0,.62-.07l0,.81a2.76,2.76,0,0,1-1,.14A1.49,1.49,0,0,1,97,49.81a2.22,2.22,0,0,1-.41-1.54V45h-.92v-.82h.92V42.79Z" transform="translate(-3.44 -6.88)"/><path d="M100.39,46.06c0-.7,0-1.3,0-1.85h.94l0,1.17h.05a1.78,1.78,0,0,1,1.64-1.3,1.48,1.48,0,0,1,.31,0v1a1.9,1.9,0,0,0-.37,0,1.52,1.52,0,0,0-1.45,1.39,3.68,3.68,0,0,0,0,.5v3.16h-1.06Z" transform="translate(-3.44 -6.88)"/><path d="M107.62,50.14l-.09-.74h0a2.21,2.21,0,0,1-1.81.88,1.69,1.69,0,0,1-1.81-1.71c0-1.43,1.27-2.21,3.56-2.2v-.12a1.23,1.23,0,0,0-1.35-1.38,2.87,2.87,0,0,0-1.54.45l-.24-.72a3.75,3.75,0,0,1,1.94-.52c1.82,0,2.26,1.24,2.26,2.42v2.22a7.64,7.64,0,0,0,.1,1.42Zm-.16-3c-1.18,0-2.51.18-2.51,1.33a1,1,0,0,0,1,1,1.5,1.5,0,0,0,1.44-1,1.35,1.35,0,0,0,.06-.34Z" transform="translate(-3.44 -6.88)"/><path d="M110.24,45.82c0-.61,0-1.12,0-1.61h1l.07,1h0a2.18,2.18,0,0,1,2-1.11c.82,0,2.1.49,2.1,2.52v3.54h-1.08V46.72c0-.95-.36-1.75-1.37-1.75a1.52,1.52,0,0,0-1.45,1.1,1.57,1.57,0,0,0-.07.51v3.56h-1.08Z" transform="translate(-3.44 -6.88)"/><path d="M116.89,49a2.81,2.81,0,0,0,1.42.43c.79,0,1.15-.39,1.15-.88s-.3-.8-1.1-1.09c-1.07-.38-1.57-1-1.57-1.68a1.83,1.83,0,0,1,2-1.74,2.92,2.92,0,0,1,1.46.37l-.27.78a2.31,2.31,0,0,0-1.22-.34c-.63,0-1,.36-1,.8s.36.72,1.13,1c1,.39,1.55.91,1.55,1.79,0,1-.8,1.77-2.21,1.77a3.35,3.35,0,0,1-1.67-.4Z" transform="translate(-3.44 -6.88)"/><path d="M121.89,46.15c0-.76,0-1.37,0-1.94h1l0,1h0A2.34,2.34,0,0,1,125,44.08c1.43,0,2.51,1.21,2.51,3,0,2.13-1.3,3.19-2.7,3.19a2.09,2.09,0,0,1-1.82-.93h0v3.22h-1.06ZM123,47.73a2.81,2.81,0,0,0,0,.44,1.67,1.67,0,0,0,1.62,1.26c1.14,0,1.8-.93,1.8-2.29,0-1.19-.62-2.2-1.76-2.2A1.71,1.71,0,0,0,123,46.27a1.63,1.63,0,0,0-.08.44Z" transform="translate(-3.44 -6.88)"/><path d="M132.14,50.14l-.08-.74h0a2.22,2.22,0,0,1-1.81.88,1.7,1.7,0,0,1-1.82-1.71c0-1.43,1.28-2.21,3.57-2.2v-.12a1.23,1.23,0,0,0-1.35-1.38,2.84,2.84,0,0,0-1.54.45l-.25-.72a3.76,3.76,0,0,1,2-.52c1.81,0,2.26,1.24,2.26,2.42v2.22a8.7,8.7,0,0,0,.09,1.42Zm-.16-3c-1.17,0-2.51.18-2.51,1.33a1,1,0,0,0,1,1,1.47,1.47,0,0,0,1.43-1,1,1,0,0,0,.06-.34Z" transform="translate(-3.44 -6.88)"/><path d="M134.76,46.06c0-.7,0-1.3,0-1.85h.95l0,1.17h0a1.78,1.78,0,0,1,1.65-1.3,1.39,1.39,0,0,1,.3,0v1a1.9,1.9,0,0,0-.37,0,1.52,1.52,0,0,0-1.44,1.39,2.57,2.57,0,0,0,0,.5v3.16h-1.07Z" transform="translate(-3.44 -6.88)"/><path d="M139.25,47.37a1.89,1.89,0,0,0,2,2.06,3.92,3.92,0,0,0,1.64-.3l.19.77a4.85,4.85,0,0,1-2,.36,2.75,2.75,0,0,1-2.92-3c0-1.79,1.05-3.2,2.78-3.2a2.51,2.51,0,0,1,2.45,2.79,2.85,2.85,0,0,1,0,.5Zm3.16-.77a1.54,1.54,0,0,0-1.5-1.75,1.78,1.78,0,0,0-1.65,1.75Z" transform="translate(-3.44 -6.88)"/><path d="M144.79,45.82c0-.61,0-1.12,0-1.61h.95l.06,1h0a2.18,2.18,0,0,1,2-1.11c.82,0,2.09.49,2.09,2.52v3.54h-1.07V46.72c0-.95-.36-1.75-1.38-1.75a1.52,1.52,0,0,0-1.44,1.1,1.56,1.56,0,0,0-.08.51v3.56h-1.07Z" transform="translate(-3.44 -6.88)"/><path d="M155.81,49.92a3.9,3.9,0,0,1-1.7.34,2.81,2.81,0,0,1-3-3,3,3,0,0,1,3.18-3.15,3.59,3.59,0,0,1,1.5.31l-.25.83a2.47,2.47,0,0,0-1.25-.28,2.24,2.24,0,0,0,0,4.46,3,3,0,0,0,1.32-.3Z" transform="translate(-3.44 -6.88)"/><path d="M157.69,44.21,159,47.72c.14.39.29.85.38,1.21h0c.11-.36.23-.81.38-1.24L161,44.21h1.13l-1.61,4.23c-.77,2-1.3,3.07-2,3.71a2.85,2.85,0,0,1-1.32.7l-.27-.91a2.63,2.63,0,0,0,.94-.52,3.23,3.23,0,0,0,.91-1.2.8.8,0,0,0,.09-.26.94.94,0,0,0-.08-.28l-2.19-5.47Z" transform="translate(-3.44 -6.88)"/></g></g></svg>