<?xml version="1.0" encoding="utf-8"?>
<!-- Generator: Adobe Illustrator 21.0.2, SVG Export Plug-In . SVG Version: 6.00 Build 0)  -->
<svg version="1.1" id="Layer_1" xmlns="http://www.w3.org/2000/svg" xmlns:xlink="http://www.w3.org/1999/xlink" x="0px" y="0px"
	 viewBox="0 0 486.9 70.7" style="enable-background:new 0 0 486.9 70.7;" xml:space="preserve">
<style type="text/css">
	.st0{fill:#FFFFFF;}
	.st1{font-family:'SunLifeSerif-Regular';}
	.st2{font-size:46.0088px;}
	.st3{fill:#FFFFFF;stroke:#FFFFFF;stroke-miterlimit:10;}
	.st4{fill:#EAAB00;}
</style>
<text transform="matrix(1 0 0 1 285.3602 56.1454)" class="st0 st1 st2">Boussole</text>
<line class="st3" x1="275.7" y1="10.1" x2="275.7" y2="67.9"/>
<g>
	<path class="st0" d="M97.9,29.9c-0.7-2.8-1.7-8.2-7.6-8.2c-3.1,0-5.4,2.1-5.4,5.4c0,8.3,17.3,7.8,17.3,19.4
		c0,7.7-6.8,10.5-13.3,10.5c-4.7,0-7.8-1.2-9.5-2.2c-1.3-3.4-1.6-5.9-1.6-10.2l2.5-0.5c0.8,3.3,2.5,10.8,9.5,10.8
		c3.4,0,5.7-2.4,5.7-6c0-9.2-16.8-8.5-16.8-19.6c0-6.9,5.1-9.8,12.1-9.8c4.1,0,6.5,0.9,8.5,2c0.4,2.7,0.6,5.5,0.6,8.3H97.9
		L97.9,29.9z"/>
	<path class="st0" d="M124.1,54.3c-1.6,1-4.2,2.8-8.2,2.8c-8.4,0-8.8-4.9-8.8-10.9v-7.9c0-1.9,0-4.3-1.6-4.3c-0.8,0-1.5,0.3-1.7,0.3
		v-1.6c4.1-1.4,7-1.8,9.9-2V46c0,4.3,0.8,7.9,6.1,7.9c2.1,0,3.3-1,4.1-1.4V38.3c0-1.9,0-4.3-1.6-4.3c-0.8,0-1.5,0.3-1.7,0.3v-1.6
		c4.1-1.4,7-1.8,9.9-2V47c0,4.4,0,6.6,1.8,6.6c0.3,0,1,0.1,1.5-0.1l0.1,1.4c-2.5,0.9-5.5,1.6-8.2,2.2L124.1,54.3L124.1,54.3z"/>
	<path class="st0" d="M138.9,38.3c0-1.9,0-4.3-1.6-4.3c-0.8,0-1.5,0.3-1.7,0.3v-1.6c4.1-1.4,6.9-1.8,9.8-2v3.1
		c1.4-1.2,4-3.1,8.6-3.1c4.9,0,8.2,2.3,8.2,9.6v10.7c0,2.9,0.3,3.5,2.2,3.6l1.1,0.1v1.4h-13.2v-1.4l1.1-0.1c2-0.2,2.2-0.8,2.2-3.6
		v-7.7c0-4.3,0-9.5-5.6-9.5c-2.2,0-3.6,1.1-4.5,2.1v15.1c0,2.9,0.3,3.5,2.2,3.6l1.1,0.1v1.4h-13.1v-1.4l1.1-0.1
		c1.8-0.2,2.1-0.8,2.1-3.6V38.3L138.9,38.3z"/>
	<path class="st0" d="M175.3,54.8l1.3-0.2c2.5-0.5,2.5-0.3,2.5-6.4V28.3c0-5.3,0-5.9-2.5-6.3l-1.3-0.2v-1.4H190v1.4l-1.3,0.2
		c-2.5,0.4-2.5,1-2.5,6.3v25.1c1.6,0.4,3.3,0.8,5,0.8c7.6,0,7.7-3.7,9.3-8.2l2,0.4c-0.3,3.5-0.7,6.4-1.9,9.9h-25.2V54.8L175.3,54.8z
		"/>
	<path class="st0" d="M206.1,22.4c0-2.1,1.6-3.7,3.8-3.7c2.1,0,3.8,1.7,3.8,3.7c0,2.3-1.7,3.8-3.8,3.8
		C207.7,26.3,206.1,24.6,206.1,22.4L206.1,22.4z M203.6,54.8l1.1-0.1c2-0.2,2.2-0.8,2.2-3.6V38.3c0-1.9,0-4.3-1.6-4.3
		c-0.8,0-1.5,0.3-1.7,0.3v-1.6c4.1-1.4,7-1.8,9.9-2v20.3c0,2.9,0.3,3.4,2.2,3.6l1.1,0.1v1.4h-13.2V54.8L203.6,54.8z"/>
	<path class="st0" d="M222.3,31.6c0-7.5,3.7-15.2,12.2-15.2c2.9,0,4.7,0.9,5.9,1.8c-0.4,1.7-0.8,2.7-2.2,4.1h-0.4
		c-1-1-3.5-3.1-5.6-3.1c-3.2,0-3.5,4.4-3.5,9.4v3.1c1.6,0.1,4.9,0.3,6.7,0.5v1.4c-2.3,0.3-4.4,0.4-6.7,0.5v17.1
		c0,2.9,0.3,3.5,2.3,3.6l2.2,0.1v1.4H219v-1.4l1.1-0.1c2-0.2,2.3-0.8,2.3-3.6V34V31.6L222.3,31.6z"/>
</g>
<path class="st0" d="M253,39.9c-0.4-3.9-2-7.1-5.4-7.1c-4.7,0-4.7,8.5-4.7,9.4C246.3,41.7,249.7,41,253,39.9L253,39.9z M259.4,53.6
	c-1.4,1.1-4.8,3.5-10.3,3.5c-6.4,0-12.7-4.1-12.7-12.8c0-8.6,6.2-13.5,12.4-13.5c8.7,0,10.1,5.7,10.7,8.8
	c-4.7,2.2-10.7,3.9-16.3,5.2c0.6,3.3,2.2,9.1,9.6,9.1c2.9,0,5.2-1.2,6-1.6L259.4,53.6L259.4,53.6z"/>
<path class="st4" d="M35,7.3c-0.1-0.9-0.1-1.9-0.1-2.8c0-0.4,0.1-0.9,0.2-1.3c0-0.1,0.1-0.3,0.1-0.5c0-0.2-0.1-0.3-0.3-0.2
	c-1.3,1-2.4,2.4-3.3,3.9c-0.7,1.2-1.2,2.5-1.3,3.9c1.7,0.2,3.4,0.6,5,1.1C35.5,9.9,35.1,8.6,35,7.3L35,7.3z"/>
<path class="st4" d="M22.8,10.3c1.5-0.2,3.1-0.3,4.6-0.3c0-0.2-0.1-0.4-0.1-0.6c-0.2-0.7-0.6-1.2-0.8-1.9c-0.3-0.7-0.6-1.4-0.8-2.1
	c-0.2-0.5-0.3-1.1-0.4-1.6c0-0.3,0-0.6,0-0.9c0-0.1,0-0.2,0-0.3c0-0.2-0.2-0.2-0.3-0.1c-0.8,1-1.3,2.3-1.8,3.6
	c-0.3,0.9-0.5,1.8-0.5,2.7c0,0.4,0,0.8,0.1,1.2C22.8,10.1,22.8,10.2,22.8,10.3L22.8,10.3z"/>
<path class="st4" d="M15.5,12.2c0,0.1,0.1,0.2,0.1,0.3c0.2-0.1,0.3-0.1,0.5-0.2c1.1-0.5,2.3-0.9,3.4-1.2c-0.1-0.1-0.1-0.3-0.2-0.4
	c-0.3-0.5-0.8-0.9-1.2-1.4c-0.4-0.5-0.8-1-1.2-1.6c-0.3-0.4-0.5-0.9-0.7-1.3C16.1,6,16,5.8,15.9,5.5c0-0.1,0-0.1-0.1-0.3
	c0-0.1-0.2-0.2-0.3,0c-0.4,1.1-0.6,2.3-0.6,3.5c0,0.8,0,1.7,0.2,2.5C15.2,11.6,15.3,11.9,15.5,12.2L15.5,12.2z"/>
<path class="st4" d="M44.2,15.9c1.6,1.3,3.1,2.7,4.4,4.4c1-1.3,1.5-2.8,2.2-4.2c0.5-1,1.1-2,1.9-2.8c0.3-0.4,0.7-0.8,1.1-1.2
	c0.1-0.1,0.3-0.3,0.5-0.4c0.2-0.2,0.1-0.4-0.1-0.4c-2,0.2-4,0.8-5.9,1.6C46.7,13.6,45.2,14.6,44.2,15.9L44.2,15.9z"/>
<path class="st4" d="M52.2,26.3c0.1,0.3,0.3,0.6,0.4,1c1.4-1.1,2.4-2.6,3.6-3.9c0.8-0.9,1.7-1.7,2.7-2.5c0.5-0.3,1-0.6,1.5-0.9
	c0.1-0.1,0.3-0.2,0.6-0.3c0.2-0.1,0.2-0.4,0-0.5c-2.1-0.4-4.5-0.3-6.6,0.1c-1.8,0.3-3.6,1-5,2C50.5,22.9,51.4,24.5,52.2,26.3
	L52.2,26.3z"/>
<path class="st4" d="M43.5,10.5c0.2-1,0.5-2,0.9-3c0.2-0.5,0.4-0.9,0.7-1.3c0.1-0.1,0.2-0.3,0.3-0.5c0.1-0.2,0-0.4-0.2-0.3
	c-1.7,0.7-3.3,1.8-4.7,3c-1.2,1-2.2,2.3-2.7,3.8c1.7,0.7,3.4,1.6,5,2.7C43.2,13.4,43.2,11.9,43.5,10.5L43.5,10.5z"/>
<path class="st4" d="M59,37.3c-1.4-0.6-3-0.9-4.5-0.8c0.1,1.9-0.1,3.8-0.4,5.7c1.5-0.1,2.9-0.8,4.4-1.2c1-0.3,2-0.5,3.1-0.5
	c0.5,0,1,0,1.5,0c0.1,0,0.3,0,0.6,0c0.2,0,0.3-0.2,0.2-0.3C62.4,39,60.7,37.9,59,37.3L59,37.3z"/>
<path class="st4" d="M64,29.6c-1.8-0.9-3.9-1.4-5.9-1.6c-1.7-0.2-3.4,0-5,0.5c0.7,2,1.1,4,1.3,6.1c1.6-0.6,2.9-1.7,4.3-2.6
	c1-0.6,2-1.1,3.1-1.5c0.5-0.2,1-0.3,1.6-0.4c0.1,0,0.4-0.1,0.6-0.1C64.1,30,64.2,29.7,64,29.6L64,29.6z"/>
<path class="st4" d="M45.2,58c-1,0.9-2.1,1.7-3.3,2.5c0.8,0.8,1.8,1.3,2.7,1.9c0.6,0.4,1.2,0.9,1.7,1.5c0.2,0.3,0.5,0.5,0.7,0.8
	c0,0.1,0.1,0.2,0.2,0.3c0.1,0.1,0.3,0.1,0.3-0.1c0.1-1.3-0.2-2.7-0.6-4C46.5,59.8,45.9,58.8,45.2,58L45.2,58z"/>
<path class="st4" d="M50.4,51.9c-0.8,1.3-1.8,2.6-2.8,3.7c1.1,0.6,2.4,0.8,3.5,1.1c0.8,0.3,1.6,0.6,2.3,1c0.4,0.2,0.7,0.4,1,0.7
	c0.1,0.1,0.2,0.2,0.4,0.3c0.1,0.1,0.3,0,0.3-0.2c-0.4-1.4-1.1-2.9-2-4.1C52.4,53.4,51.5,52.5,50.4,51.9L50.4,51.9z"/>
<path class="st4" d="M57.3,46.3c-1.1-0.9-2.4-1.6-3.7-1.9c-0.4,1.7-1.1,3.3-1.8,4.8c1.4,0.3,2.7,0.1,4.1,0.1c0.9,0,1.9,0.1,2.8,0.3
	c0.4,0.1,0.9,0.2,1.3,0.4c0.1,0,0.3,0.1,0.5,0.2c0.2,0.1,0.3-0.1,0.2-0.3C59.8,48.7,58.6,47.4,57.3,46.3L57.3,46.3z"/>
<path class="st4" d="M21.8,59.5c-4.4,0.5-8.5,0.1-11.8-1.2c1.4,1.2,3,2.2,4.6,3.1c4,2.1,8.5,3.2,13.2,3c2-0.1,4-0.3,5.9-0.8
	c-3.2-0.4-6.2-1.2-9.1-2.5C23.8,60.6,22.8,60.1,21.8,59.5L21.8,59.5z"/>
<g>
	<path class="st4" d="M45.7,48.3c0,0,0.1-0.2,0-0.3c-0.1-0.1-0.3,0-0.3,0c-2.6,2.6-5.9,5-9.5,7c-0.7,0.4-1.4,0.7-2.1,1.1
		c-3.1,1.5-6.2,2.5-9.2,3.1c0.9,0.5,1.8,1,2.7,1.4c2.8,1.2,5.8,2.1,8.9,2.4c1.2-0.4,2.4-0.9,3.6-1.5c-1.7-1.3-3.3-2.6-4.7-4
		C39.6,54.9,43.3,51.7,45.7,48.3L45.7,48.3z"/>
	<path class="st4" d="M3,43.2c0.2,0.1,0.4,0.2,0.6,0.3c0.8,0.4,1.7,0.7,2.7,0.9c0.8,0.2,1.7,0.3,2.7,0.4c-0.4-0.9-0.7-1.9-1-2.8
		c-0.5-1.5-0.8-3-1.1-4.6c-0.1-0.5-0.2-1.1-0.2-1.6c0-0.4-0.1-0.9-0.1-1.3c0-0.2,0-0.5,0-0.7c0-0.9,0-1.8,0-2.7
		c-1.1-0.1-2-0.4-2.8-0.8c-0.1-0.1-0.2-0.1-0.3-0.2c-0.5-0.3-0.9-0.6-1.2-1c-0.2-0.2-0.3-0.4-0.4-0.7c-0.1-0.2-0.2-0.5-0.2-0.7
		c-0.4,1.1-0.7,2.2-1,3.3c-0.1,0.5-0.2,0.9-0.3,1.4c-0.2,0.9-0.3,1.8-0.4,2.8c0,0.2,0,0.5,0,0.7c0,0.7-0.1,1.4,0,2.1
		c0,0.9,0.1,1.8,0.2,2.7C0.9,41.7,1.8,42.6,3,43.2L3,43.2z"/>
</g>
<path class="st4" d="M11,31.1c-0.7,0.1-1.4,0.1-2,0.1c0,0.6,0,1.3,0,1.9c0,0,0,0,0,0c0,0.2,0,0.4,0.1,0.6c0,0.4,0,0.7,0.1,1.1
	c0.2,1.7,0.5,3.3,0.9,4.9c0.4,1.8,1,3.5,1.7,5.1c3.6-0.2,7.7-1,12-2.6C22,39.1,20.6,36,19.3,33c-0.2-0.5-0.4-1.1-0.6-1.6
	c0.8-0.3,1.6-0.6,2.4-1c5-2.4,8.9-5.5,11.2-8.5c0.2-0.2,0.3-0.4,0.4-0.6c0,0,0.1-0.2,0-0.4c-0.2-0.2-0.3,0-0.3,0
	c-0.4,0.4-0.9,0.8-1.4,1.3c-2.3,1.9-5.2,3.8-8.5,5.4c-1.5,0.7-3,1.3-4.5,1.8c-1.5,0.5-2.9,0.9-4.3,1.2C12.8,30.8,11.8,31,11,31.1
	L11,31.1z"/>
<path class="st4" d="M3.8,27.4c0.4,0.4,0.9,0.7,1.5,0.9c0.2,0.1,0.3,0.1,0.5,0.2c0.3,0.1,0.7,0.2,1,0.2c0-0.4,0.1-0.8,0.2-1.2
	c0.1-0.3,0.1-0.7,0.2-1c0.2-1.1,0.5-2.2,0.8-3.2c0.7-2.2,1.6-4.4,2.7-6.4c0.3-0.6,0.6-1.1,0.9-1.6c0.1-0.2,0.2-0.3,0.3-0.5
	c-0.8,0.6-1.6,1.1-2.3,1.8c-1.1,1-2.2,2-3.1,3.2c-1.4,1.7-2.7,3.6-3.7,5.7c0,0.3,0.1,0.7,0.3,1C3.2,26.7,3.5,27.1,3.8,27.4L3.8,27.4
	z"/>
<path class="st4" d="M9.6,24.5c-0.1,0.4-0.1,0.8-0.2,1.2c-0.2,1-0.3,2.1-0.4,3.2c1.6,0,3.3-0.2,5.2-0.6c1-0.2,2-0.5,3.1-0.8
	c-0.1-0.4-0.2-0.7-0.4-1.1c-0.5-1.5-0.9-2.9-1.3-4.3c-0.1-0.5-0.3-0.9-0.4-1.4c-0.2-0.8-0.4-1.5-0.5-2.1c-0.3-1.3-0.6-2.5-0.8-3.5
	c-0.1-0.4-0.2-0.8-0.2-1.2c0-0.1,0-0.2,0-0.3c-0.1,0.1-0.2,0.3-0.2,0.4c-0.3,0.5-0.6,1.1-0.9,1.7c-0.9,1.8-1.6,3.7-2.2,5.6
	C10,22.5,9.8,23.5,9.6,24.5L9.6,24.5z"/>
<path class="st4" d="M19.2,57.7c-2.9-2.2-5.4-4.9-7.5-8c-0.5-0.8-1-1.6-1.4-2.4c-1.8,0-3.5-0.2-5-0.7c-0.8-0.2-1.5-0.5-2.2-0.9
	c-0.2-0.1-0.4-0.2-0.6-0.3c-0.6-0.4-1.2-0.9-1.7-1.4c0.3,1.3,0.8,2.6,1.3,3.8c0.1,0.2,0.2,0.4,0.3,0.6c0.3,0.7,0.6,1.3,1,1.9
	c0.3,0.6,0.6,1.1,1,1.7c0.6,0.9,1.3,1.8,2,2.6C9.3,57.1,13.9,58.1,19.2,57.7L19.2,57.7z"/>
<path class="st4" d="M28.7,42.6c-1.3,0.6-2.6,1.2-3.8,1.7c-4.2,1.7-8.3,2.7-12,3c0.4,0.8,0.9,1.6,1.4,2.3c2.1,3.1,4.7,5.8,7.6,7.9
	c3.3-0.5,6.8-1.5,10.3-3c-2.3-2.6-4.4-5.4-6.2-8.2c0.7-0.3,1.4-0.6,2.1-1c6.5-3.3,11.5-7.6,14.3-11.9c0,0,0.1-0.2,0-0.4
	c-0.2-0.2-0.3,0-0.3,0C38.8,36.5,34.2,39.9,28.7,42.6L28.7,42.6z"/>
</svg>
