<svg width="752" height="592" viewBox="0 0 752 592" fill="none" xmlns="http://www.w3.org/2000/svg">
<g clip-path="url(#clip0)">
<path d="M185 165C185 165 249.656 119.303 266 137.125" stroke="#535461" stroke-width="2" stroke-miterlimit="10"/>
<path d="M165.847 58.2746C162.535 62.1673 159.436 67.5551 161.873 72.8705C166.563 83.3037 183.923 78.1991 190.116 87.9143C191.971 90.819 192.223 94.3692 191.792 97.5374C190.958 103.735 187.871 108.998 185.738 114.663C183.605 120.327 182.499 127.177 185.506 133.158C188.401 138.947 194.501 142.603 200.41 144.059C206.318 145.514 212.24 145.185 218.141 145.376C225.152 145.649 232.114 146.67 238.906 148.419C241.892 149.091 244.75 150.234 247.372 151.804C250.385 153.721 252.823 156.534 255.207 159.3L276.403 183.862C279.218 187.155 282.093 190.448 285.584 192.865C289.611 195.652 294.194 197.068 298.705 198.431C308.409 201.382 318.576 204.359 327.849 202.337C337.122 200.315 344.905 191.502 342.587 181.299C340.381 171.584 330.432 164.694 327.081 155.177C321.782 140.179 334.864 126.268 330.936 111.007C327.174 96.3715 310.495 88.8233 301.222 76.4339C294.598 67.5551 291.989 56.4501 286.2 47.0049C277.84 33.3706 263.268 24.3403 248.762 20.9087C234.257 17.4771 219.665 19.0776 206.06 22.5093C200.297 23.9649 194.534 25.8026 189.964 29.4384C185.109 33.3047 184.553 39.1734 181.016 43.8367C176.915 49.2575 170.312 53.0053 165.847 58.2746Z" fill="url(#paint0_linear)"/>
<path d="M187 33C187 33 298.487 121.251 336 198" stroke="#0D7EBF" stroke-miterlimit="10"/>
<path d="M162 73.0328C162 73.0328 216.25 55.4552 246 86" stroke="#0D7EBF" stroke-miterlimit="10"/>
<path d="M192 100.033C192 100.033 244.313 82.4552 273 113" stroke="#0D7EBF" stroke-miterlimit="10"/>
<path d="M248.322 21C248.322 21 237.003 49.53 251 91" stroke="#0D7EBF" stroke-miterlimit="10"/>
<path d="M273.323 50C273.323 50 264.003 76.53 278 118" stroke="#0D7EBF" stroke-miterlimit="10"/>
<path d="M698.997 2.47232C698.997 2.47232 660.378 24.5573 665.572 74.0778C670.767 123.598 604 185.745 604 185.745C604 185.745 604.523 185.803 605.494 185.891C671.1 191.703 721.286 128.97 700.591 66.8238C692.899 43.726 688.432 17.8538 698.997 2.47232Z" fill="url(#paint1_linear)"/>
<path d="M695.643 5.80393C695.643 5.80393 670.613 37.7439 679.586 71.9818C688.559 106.22 652.195 185.82 604 185.745" stroke="#28A745" stroke-miterlimit="10"/>
<path d="M750.95 125.843C750.95 125.843 717.608 111.095 706.263 140.775C694.917 170.455 630.047 157.61 630.047 157.61L631.031 158.704C674.591 206.623 728.222 207.839 732.588 160.912C734.288 143.436 739.019 126.7 750.95 125.843Z" fill="url(#paint2_linear)"/>
<path d="M747.318 125.57C747.318 125.57 719.631 124.425 715.322 149.099C711.012 173.772 662.323 191.761 629.821 158.452" stroke="#419FD4" stroke-miterlimit="10"/>
<path d="M678.987 357.231C678.987 357.231 677.888 356.686 676.855 358.269C676.093 359.3 675.059 360.098 673.869 360.575C673.869 360.575 662.784 362.343 662.357 363.802L657.186 364.104C657.186 364.104 655.357 364.347 655.173 368.178C654.989 372.009 654.015 372.377 654.015 372.377C654.015 372.377 651.884 376.148 652.042 378.093C652.067 378.685 651.926 379.272 651.636 379.789C651.345 380.305 650.916 380.731 650.397 381.017L658.035 400.808C658.035 400.808 658.278 408.963 656.877 411.939C655.476 414.916 652.857 428.123 652.857 428.123C652.857 428.123 653.956 427.88 653.897 428.609C653.838 429.339 652.581 437.303 652.581 437.303C652.581 437.303 652.219 440.47 651.608 441.561C650.996 442.651 650.95 448.374 650.95 448.374L649.976 452.514C649.976 452.514 652.292 457.685 655.824 456.949C659.357 456.213 665.751 442.415 665.751 442.415L669.83 427.512L672.994 412.794L673.869 402.78L675.329 380.695L677.461 366.102C677.461 366.102 679.835 358.269 678.987 357.231Z" fill="#65617D"/>
<path d="M673.421 386.326H562.931C560.529 386.326 558.583 388.271 558.583 390.67V518.8C558.583 521.199 560.529 523.143 562.931 523.143H673.421C675.823 523.143 677.77 521.199 677.77 518.8V390.67C677.77 388.271 675.823 386.326 673.421 386.326Z" fill="white"/>
<path opacity="0.1" d="M389.42 114.322C342.451 122.148 295.409 117.936 250.123 112.101C204.838 106.266 159.658 98.815 112.589 100.274C82.3288 101.22 48.6672 107.16 27.7283 125.387C7.58529 142.925 4.70396 166.902 4.89473 188.585C5.03945 204.894 6.57222 221.787 17.6305 234.903C25.3074 244.003 37.0432 250.613 45.9175 259.031C76.8358 288.323 68.0668 333.701 48.4896 372.127C39.2799 390.157 28.0243 407.852 21.8472 426.336C15.6701 444.82 15.0583 464.729 26.6889 480.033C38.2273 495.204 60.2978 503.944 83.2629 508.629C129.897 518.137 181.656 513.228 231.717 506.401C342.523 491.216 452.092 466.654 561.346 442.139C601.783 433.071 642.398 423.951 681.303 410.599C702.906 403.2 724.884 393.889 738.719 379.164C756.276 360.47 756.434 334.667 739.087 319.015C709.984 292.732 644.878 297.673 622.255 267.763C609.796 251.336 614.868 229.245 624.387 209.828C644.78 168.17 684.743 127.267 678.987 85.404C675.04 56.6503 647.161 32.5749 610.125 25.9187C571.312 18.9471 521.705 30.5905 499.753 59.18C477.15 88.696 430.89 107.423 389.42 114.322Z" fill="url(#paint3_linear)"/>
<path d="M667.133 122.634H58.4029C53.8651 122.634 50.1865 126.309 50.1865 130.841V468.153C50.1865 472.685 53.8651 476.359 58.4029 476.359H667.133C671.67 476.359 675.349 472.685 675.349 468.153V130.841C675.349 126.309 671.67 122.634 667.133 122.634Z" fill="url(#paint4_linear)"/>
<path d="M666.212 127.608H59.3966C54.8588 127.608 51.1802 131.283 51.1802 135.815V466.976C51.1802 471.509 54.8588 475.183 59.3966 475.183H666.212C670.75 475.183 674.428 471.509 674.428 466.976V135.815C674.428 131.283 670.75 127.608 666.212 127.608Z" fill="#F1F1F4"/>
<path d="M671.264 123.62H54.318C53.4788 123.62 52.674 123.953 52.0806 124.545C51.4872 125.138 51.1538 125.942 51.1538 126.78V140.145H674.402V126.807C674.405 126.392 674.327 125.98 674.171 125.595C674.015 125.21 673.785 124.86 673.494 124.564C673.202 124.268 672.856 124.032 672.473 123.87C672.09 123.708 671.68 123.623 671.264 123.62Z" fill="#5A5773"/>
<path d="M63.6265 136.15C65.9881 136.15 67.9025 134.238 67.9025 131.879C67.9025 129.52 65.9881 127.608 63.6265 127.608C61.265 127.608 59.3506 129.52 59.3506 131.879C59.3506 134.238 61.265 136.15 63.6265 136.15Z" fill="white"/>
<path d="M75.1387 136.15C77.5003 136.15 79.4147 134.238 79.4147 131.879C79.4147 129.52 77.5003 127.608 75.1387 127.608C72.7772 127.608 70.8628 129.52 70.8628 131.879C70.8628 134.238 72.7772 136.15 75.1387 136.15Z" fill="white"/>
<path d="M86.6509 136.15C89.0125 136.15 90.9269 134.238 90.9269 131.879C90.9269 129.52 89.0125 127.608 86.6509 127.608C84.2894 127.608 82.375 129.52 82.375 131.879C82.375 134.238 84.2894 136.15 86.6509 136.15Z" fill="white"/>
<path opacity="0.2" d="M219.948 159H75.5393C74.1369 159 73 160.136 73 161.536V172.135C73 173.536 74.1369 174.671 75.5393 174.671H219.948C221.35 174.671 222.487 173.536 222.487 172.135V161.536C222.487 160.136 221.35 159 219.948 159Z" fill="#5A5773"/>
<path opacity="0.2" d="M222 181H73V186H222V181Z" fill="#5A5773"/>
<path opacity="0.2" d="M154 192H73V197H154V192Z" fill="#5A5773"/>
<path d="M276.292 371H4.3483C1.9468 371 0 372.945 0 375.343V503.474C0 505.872 1.9468 507.817 4.3483 507.817H276.292C278.693 507.817 280.64 505.872 280.64 503.474V375.343C280.64 372.945 278.693 371 276.292 371Z" fill="white"/>
<path d="M256.575 217H73.425C72.0857 217 71 218.359 71 220.035V330.965C71 332.641 72.0857 334 73.425 334H256.575C257.914 334 259 332.641 259 330.965V220.035C259 218.359 257.914 217 256.575 217Z" fill="white"/>
<path opacity="0.2" d="M112.49 264H83.5096C83.2282 264 83 264.725 83 265.618V272.382C83 273.275 83.2282 274 83.5096 274H112.49C112.772 274 113 273.275 113 272.382V265.618C113 264.725 112.772 264 112.49 264Z" fill="#898989"/>
<path opacity="0.2" d="M151.49 264H122.51C122.228 264 122 264.725 122 265.618V272.382C122 273.275 122.228 274 122.51 274H151.49C151.772 274 152 273.275 152 272.382V265.618C152 264.725 151.772 264 151.49 264Z" fill="#898989"/>
<path opacity="0.2" d="M190.49 264H161.51C161.228 264 161 264.725 161 265.618V272.382C161 273.275 161.228 274 161.51 274H190.49C190.772 274 191 273.275 191 272.382V265.618C191 264.725 190.772 264 190.49 264Z" fill="#898989"/>
<path opacity="0.2" d="M229.49 264H200.51C200.228 264 200 264.725 200 265.618V272.382C200 273.275 200.228 274 200.51 274H229.49C229.772 274 230 273.275 230 272.382V265.618C230 264.725 229.772 264 229.49 264Z" fill="#898989"/>
<path d="M248 232H112V237H248V232Z" fill="#EEEEEF"/>
<path d="M192 243H112V248H192V243Z" fill="#EEEEEF"/>
<path d="M248 285H82V290H248V285Z" fill="#EEEEEF"/>
<path d="M248 296H82V301H248V296Z" fill="#EEEEEF"/>
<circle cx="94" cy="240" r="10" fill="#E0F0F9"/>
<circle cx="90" cy="316" r="8" fill="#E0F0F9"/>
<circle cx="116" cy="316" r="8" fill="#E0F0F9"/>
<circle cx="142" cy="316" r="8" fill="#E0F0F9"/>
<path d="M256.575 346H73.425C72.0857 346 71 347.359 71 349.035V459.965C71 461.641 72.0857 463 73.425 463H256.575C257.914 463 259 461.641 259 459.965V349.035C259 347.359 257.914 346 256.575 346Z" fill="white"/>
<path opacity="0.2" d="M112.49 393H83.5096C83.2282 393 83 393.725 83 394.618V401.382C83 402.275 83.2282 403 83.5096 403H112.49C112.772 403 113 402.275 113 401.382V394.618C113 393.725 112.772 393 112.49 393Z" fill="#898989"/>
<path opacity="0.2" d="M151.49 393H122.51C122.228 393 122 393.725 122 394.618V401.382C122 402.275 122.228 403 122.51 403H151.49C151.772 403 152 402.275 152 401.382V394.618C152 393.725 151.772 393 151.49 393Z" fill="#898989"/>
<path opacity="0.2" d="M190.49 393H161.51C161.228 393 161 393.725 161 394.618V401.382C161 402.275 161.228 403 161.51 403H190.49C190.772 403 191 402.275 191 401.382V394.618C191 393.725 190.772 393 190.49 393Z" fill="#898989"/>
<path opacity="0.2" d="M229.49 393H200.51C200.228 393 200 393.725 200 394.618V401.382C200 402.275 200.228 403 200.51 403H229.49C229.772 403 230 402.275 230 401.382V394.618C230 393.725 229.772 393 229.49 393Z" fill="#898989"/>
<path d="M248 361H112V366H248V361Z" fill="#EEEEEF"/>
<path d="M192 372H112V377H192V372Z" fill="#EEEEEF"/>
<path d="M248 414H82V419H248V414Z" fill="#EEEEEF"/>
<path d="M248 425H82V430H248V425Z" fill="#EEEEEF"/>
<circle cx="94" cy="369" r="10" fill="#E0F0F9"/>
<circle cx="90" cy="445" r="8" fill="#E0F0F9"/>
<circle cx="116" cy="445" r="8" fill="#E0F0F9"/>
<circle cx="142" cy="445" r="8" fill="#E0F0F9"/>
<path d="M456.575 217H273.425C272.086 217 271 218.359 271 220.035V330.965C271 332.641 272.086 334 273.425 334H456.575C457.914 334 459 332.641 459 330.965V220.035C459 218.359 457.914 217 456.575 217Z" fill="white"/>
<path opacity="0.2" d="M312.49 264H283.51C283.228 264 283 264.725 283 265.618V272.382C283 273.275 283.228 274 283.51 274H312.49C312.772 274 313 273.275 313 272.382V265.618C313 264.725 312.772 264 312.49 264Z" fill="#898989"/>
<path opacity="0.2" d="M351.49 264H322.51C322.228 264 322 264.725 322 265.618V272.382C322 273.275 322.228 274 322.51 274H351.49C351.772 274 352 273.275 352 272.382V265.618C352 264.725 351.772 264 351.49 264Z" fill="#898989"/>
<path opacity="0.2" d="M390.49 264H361.51C361.228 264 361 264.725 361 265.618V272.382C361 273.275 361.228 274 361.51 274H390.49C390.772 274 391 273.275 391 272.382V265.618C391 264.725 390.772 264 390.49 264Z" fill="#898989"/>
<path opacity="0.2" d="M429.49 264H400.51C400.228 264 400 264.725 400 265.618V272.382C400 273.275 400.228 274 400.51 274H429.49C429.772 274 430 273.275 430 272.382V265.618C430 264.725 429.772 264 429.49 264Z" fill="#898989"/>
<path d="M448 232H312V237H448V232Z" fill="#EEEEEF"/>
<path d="M392 243H312V248H392V243Z" fill="#EEEEEF"/>
<path d="M448 285H282V290H448V285Z" fill="#EEEEEF"/>
<path d="M448 296H282V301H448V296Z" fill="#EEEEEF"/>
<circle cx="294" cy="240" r="10" fill="#E0F0F9"/>
<circle cx="290" cy="316" r="8" fill="#E0F0F9"/>
<circle cx="316" cy="316" r="8" fill="#E0F0F9"/>
<circle cx="342" cy="316" r="8" fill="#E0F0F9"/>
<path d="M656.575 217H473.425C472.086 217 471 218.359 471 220.035V330.965C471 332.641 472.086 334 473.425 334H656.575C657.914 334 659 332.641 659 330.965V220.035C659 218.359 657.914 217 656.575 217Z" fill="white"/>
<path opacity="0.2" d="M512.49 264H483.51C483.228 264 483 264.725 483 265.618V272.382C483 273.275 483.228 274 483.51 274H512.49C512.772 274 513 273.275 513 272.382V265.618C513 264.725 512.772 264 512.49 264Z" fill="#898989"/>
<path opacity="0.2" d="M551.49 264H522.51C522.228 264 522 264.725 522 265.618V272.382C522 273.275 522.228 274 522.51 274H551.49C551.772 274 552 273.275 552 272.382V265.618C552 264.725 551.772 264 551.49 264Z" fill="#898989"/>
<path opacity="0.2" d="M590.49 264H561.51C561.228 264 561 264.725 561 265.618V272.382C561 273.275 561.228 274 561.51 274H590.49C590.772 274 591 273.275 591 272.382V265.618C591 264.725 590.772 264 590.49 264Z" fill="#898989"/>
<path opacity="0.2" d="M629.49 264H600.51C600.228 264 600 264.725 600 265.618V272.382C600 273.275 600.228 274 600.51 274H629.49C629.772 274 630 273.275 630 272.382V265.618C630 264.725 629.772 264 629.49 264Z" fill="#898989"/>
<path d="M648 232H512V237H648V232Z" fill="#EEEEEF"/>
<path d="M592 243H512V248H592V243Z" fill="#EEEEEF"/>
<path d="M648 285H482V290H648V285Z" fill="#EEEEEF"/>
<path d="M648 296H482V301H648V296Z" fill="#EEEEEF"/>
<circle cx="494" cy="240" r="10" fill="#E0F0F9"/>
<circle cx="490" cy="316" r="8" fill="#E0F0F9"/>
<circle cx="516" cy="316" r="8" fill="#E0F0F9"/>
<circle cx="542" cy="316" r="8" fill="#E0F0F9"/>
<path d="M456.575 346H273.425C272.086 346 271 347.359 271 349.035V459.965C271 461.641 272.086 463 273.425 463H456.575C457.914 463 459 461.641 459 459.965V349.035C459 347.359 457.914 346 456.575 346Z" fill="white"/>
<path opacity="0.2" d="M312.49 393H283.51C283.228 393 283 393.725 283 394.618V401.382C283 402.275 283.228 403 283.51 403H312.49C312.772 403 313 402.275 313 401.382V394.618C313 393.725 312.772 393 312.49 393Z" fill="#898989"/>
<path opacity="0.2" d="M351.49 393H322.51C322.228 393 322 393.725 322 394.618V401.382C322 402.275 322.228 403 322.51 403H351.49C351.772 403 352 402.275 352 401.382V394.618C352 393.725 351.772 393 351.49 393Z" fill="#898989"/>
<path opacity="0.2" d="M390.49 393H361.51C361.228 393 361 393.725 361 394.618V401.382C361 402.275 361.228 403 361.51 403H390.49C390.772 403 391 402.275 391 401.382V394.618C391 393.725 390.772 393 390.49 393Z" fill="#898989"/>
<path opacity="0.2" d="M429.49 393H400.51C400.228 393 400 393.725 400 394.618V401.382C400 402.275 400.228 403 400.51 403H429.49C429.772 403 430 402.275 430 401.382V394.618C430 393.725 429.772 393 429.49 393Z" fill="#898989"/>
<path d="M448 361H312V366H448V361Z" fill="#EEEEEF"/>
<path d="M392 372H312V377H392V372Z" fill="#EEEEEF"/>
<path d="M448 414H282V419H448V414Z" fill="#EEEEEF"/>
<path d="M448 425H282V430H448V425Z" fill="#EEEEEF"/>
<circle cx="294" cy="369" r="10" fill="#E0F0F9"/>
<circle cx="290" cy="445" r="8" fill="#E0F0F9"/>
<circle cx="316" cy="445" r="8" fill="#E0F0F9"/>
<circle cx="342" cy="445" r="8" fill="#E0F0F9"/>
<path d="M656.575 346H473.425C472.086 346 471 347.359 471 349.035V459.965C471 461.641 472.086 463 473.425 463H656.575C657.914 463 659 461.641 659 459.965V349.035C659 347.359 657.914 346 656.575 346Z" fill="white"/>
<path opacity="0.2" d="M512.49 393H483.51C483.228 393 483 393.725 483 394.618V401.382C483 402.275 483.228 403 483.51 403H512.49C512.772 403 513 402.275 513 401.382V394.618C513 393.725 512.772 393 512.49 393Z" fill="#898989"/>
<path opacity="0.2" d="M551.49 393H522.51C522.228 393 522 393.725 522 394.618V401.382C522 402.275 522.228 403 522.51 403H551.49C551.772 403 552 402.275 552 401.382V394.618C552 393.725 551.772 393 551.49 393Z" fill="#898989"/>
<path opacity="0.2" d="M590.49 393H561.51C561.228 393 561 393.725 561 394.618V401.382C561 402.275 561.228 403 561.51 403H590.49C590.772 403 591 402.275 591 401.382V394.618C591 393.725 590.772 393 590.49 393Z" fill="#898989"/>
<path opacity="0.2" d="M629.49 393H600.51C600.228 393 600 393.725 600 394.618V401.382C600 402.275 600.228 403 600.51 403H629.49C629.772 403 630 402.275 630 401.382V394.618C630 393.725 629.772 393 629.49 393Z" fill="#898989"/>
<path d="M648 361H512V366H648V361Z" fill="#EEEEEF"/>
<path d="M592 372H512V377H592V372Z" fill="#EEEEEF"/>
<path d="M648 414H482V419H648V414Z" fill="#EEEEEF"/>
<path d="M648 425H482V430H648V425Z" fill="#EEEEEF"/>
<circle cx="494" cy="369" r="10" fill="#E0F0F9"/>
<circle cx="490" cy="445" r="8" fill="#E0F0F9"/>
<circle cx="516" cy="445" r="8" fill="#E0F0F9"/>
<circle cx="542" cy="445" r="8" fill="#E0F0F9"/>
<path d="M666.951 274H59.0488C54.6036 274 51 276.219 51 278.955V460.045C51 462.782 54.6036 465 59.0488 465H666.951C671.396 465 675 462.782 675 460.045V278.955C675 276.219 671.396 274 666.951 274Z" fill="url(#paint5_linear)"/>
<path d="M673.421 386.326H562.931C560.529 386.326 558.583 388.271 558.583 390.67V518.8C558.583 521.199 560.529 523.143 562.931 523.143H673.421C675.823 523.143 677.77 521.199 677.77 518.8V390.67C677.77 388.271 675.823 386.326 673.421 386.326Z" fill="#DBDAE0"/>
<path d="M667.342 393.305H569.009C566.607 393.305 564.661 395.249 564.661 397.648V511.822C564.661 514.221 566.607 516.165 569.009 516.165H667.342C669.744 516.165 671.691 514.221 671.691 511.822V397.648C671.691 395.249 669.744 393.305 667.342 393.305Z" fill="white"/>
<path d="M649.693 417.945H584.199C582.008 417.945 580.232 419.719 580.232 421.907V439.294C580.232 441.482 582.008 443.256 584.199 443.256H649.693C651.884 443.256 653.66 441.482 653.66 439.294V421.907C653.66 419.719 651.884 417.945 649.693 417.945Z" fill="#E0F0F9"/>
<path d="M650.969 452.514H582.929V457.679H650.969V452.514Z" fill="#EEEEEF"/>
<path d="M664.988 463.415H571.365V468.58H664.988V463.415Z" fill="#EEEEEF"/>
<path d="M664.988 474.888H571.365V480.052H664.988V474.888Z" fill="#EEEEEF"/>
<path d="M664.988 486.36H571.365V491.525H664.988V486.36Z" fill="#EEEEEF"/>
<path d="M276.292 371H4.3483C1.9468 371 0 372.945 0 375.343V503.474C0 505.872 1.9468 507.817 4.3483 507.817H276.292C278.693 507.817 280.64 505.872 280.64 503.474V375.343C280.64 372.945 278.693 371 276.292 371Z" fill="#DBDAE0"/>
<path d="M261.97 377.978H18.6628C16.2613 377.978 14.3145 379.923 14.3145 382.321V496.495C14.3145 498.894 16.2613 500.839 18.6628 500.839H261.97C264.372 500.839 266.319 498.894 266.319 496.495V382.321C266.319 379.923 264.372 377.978 261.97 377.978Z" fill="white"/>
<path d="M219.909 402.625H54.956C52.7652 402.625 50.9893 404.399 50.9893 406.587V423.974C50.9893 426.162 52.7652 427.936 54.956 427.936H219.909C222.099 427.936 223.875 426.162 223.875 423.974V406.587C223.875 404.399 222.099 402.625 219.909 402.625Z" fill="#E0F0F9"/>
<path d="M217.533 437.188H57.3301V442.352H217.533V437.188Z" fill="#EEEEEF"/>
<path d="M250.537 448.088H30.0962V453.253H250.537V448.088Z" fill="#EEEEEF"/>
<path d="M250.537 459.561H30.0962V464.726H250.537V459.561Z" fill="#EEEEEF"/>
<path d="M250.537 471.034H30.0962V476.198H250.537V471.034Z" fill="#EEEEEF"/>
<path opacity="0.1" d="M673.461 588.299C709.832 588.299 739.317 581.024 739.317 572.05C739.317 563.075 709.832 555.8 673.461 555.8C637.09 555.8 607.605 563.075 607.605 572.05C607.605 581.024 637.09 588.299 673.461 588.299Z" fill="url(#paint6_linear)"/>
<path d="M740.1 400.25C740.35 399.593 738.495 395.834 738.495 395.65C738.495 395.466 736.581 393.384 736.581 392.221C736.581 391.057 734.048 388.541 734.048 388.541C734.048 388.541 730.647 387.135 730.279 384.066C729.91 380.998 726.206 380.945 726.2 380.945C726.2 380.945 726.2 380.669 726.2 380.242C726.275 379.03 726.121 377.816 725.746 376.661C725.309 375.814 724.555 375.174 723.648 374.88C723.648 374.88 723.273 372.488 722.536 371.753C722.125 371.323 721.83 370.796 721.678 370.222C721.526 369.647 721.522 369.043 721.667 368.467C722.042 367.311 721.174 364.367 719.385 363.933C717.595 363.5 715.55 362.829 715.55 362.829L715.056 362.915L714.813 362.829C714.378 362.912 713.939 362.967 713.497 362.994C713.119 363.005 712.749 362.884 712.451 362.652C711.833 361.995 706.827 360.681 705.873 360.681C704.919 360.681 702.288 359.452 702.288 359.452C702.288 359.452 700.432 358.046 699.656 357.428C698.88 356.811 697.531 354.57 697.327 354.228V354.182C697.101 353.66 696.914 353.122 696.768 352.572C697.673 351.627 698.445 350.564 699.064 349.412C699.13 349.294 699.189 349.175 699.248 349.05C699.384 349.051 699.519 349.031 699.65 348.991L699.814 348.926C700.125 348.764 700.402 348.543 700.628 348.274C700.853 348.006 701.024 347.696 701.13 347.362C701.176 347.228 701.216 347.092 701.248 346.954C701.248 346.908 701.248 346.862 701.248 346.816L701.307 346.54C701.304 346.488 701.304 346.435 701.307 346.383L701.347 346.107V345.949C701.347 345.831 701.347 345.719 701.393 345.601C701.433 345.16 701.496 344.721 701.584 344.287C701.952 342.624 702.959 341.218 703.662 339.687C703.761 339.47 703.86 339.247 703.945 339.03C704.031 338.813 704.116 338.537 704.189 338.287L704.248 338.058C704.294 337.874 704.333 337.69 704.373 337.506C704.412 337.322 704.373 337.341 704.419 337.256C704.458 337.006 704.491 336.75 704.518 336.487C704.635 335.021 704.41 333.548 703.86 332.183C703.399 331.033 702.709 329.995 702.242 328.845C701.531 327.104 701.34 325.126 700.478 323.464C699.776 322.115 698.616 321.06 697.206 320.487C695.796 319.914 694.228 319.86 692.782 320.336C691.466 320.835 690.269 321.801 688.907 322.235C687.078 322.82 685.131 322.38 683.237 322.123C681.342 321.867 679.29 321.834 677.737 323.07C675.987 324.489 675.514 327.157 673.869 328.714C673.211 329.371 672.323 329.785 671.593 330.389C671.079 330.8 670.684 331.34 670.448 331.953L670.409 332.078C670.392 332.132 670.379 332.187 670.369 332.242C670.355 332.303 670.344 332.364 670.336 332.426C670.333 332.468 670.333 332.51 670.336 332.551C670.323 332.66 670.323 332.771 670.336 332.88C670.345 332.984 670.361 333.087 670.382 333.189V333.274C670.382 333.359 670.428 333.445 670.461 333.53C670.494 333.616 670.461 333.563 670.461 333.576C670.461 333.589 670.534 333.767 670.573 333.859L670.632 333.997C670.632 334.036 670.632 334.076 670.685 334.108C670.92 334.565 671.112 335.042 671.257 335.534C671.333 335.846 671.313 336.174 671.198 336.474C671.042 336.815 670.818 337.122 670.54 337.374C669.309 338.651 668.359 340.171 667.751 341.836C667.676 342.028 667.611 342.219 667.554 342.407H667.639C667.816 342.458 667.996 342.495 668.179 342.519C668.282 342.525 668.385 342.525 668.488 342.519C668.911 342.544 669.336 342.513 669.751 342.427L670.067 342.348C670.496 342.236 670.915 342.084 671.317 341.895C671.317 342.02 671.317 342.145 671.317 342.269C671.317 342.394 671.317 342.407 671.317 342.48C671.321 345.191 672.082 347.848 673.515 350.151C674.948 352.454 676.995 354.312 679.428 355.516C679.428 355.648 679.461 355.779 679.48 355.91L679.52 356.245L679.355 356.088C679.355 356.088 678.244 355.536 677.191 357.126C676.419 358.169 675.371 358.977 674.165 359.459C674.165 359.459 662.916 361.233 662.482 362.705L657.219 363.013C657.219 363.013 655.364 363.256 655.18 367.12C654.996 370.984 654.009 371.345 654.009 371.345C654.009 371.345 651.845 375.15 652.035 377.108C652.059 377.705 651.914 378.297 651.619 378.817C651.324 379.337 650.89 379.765 650.364 380.051L650.121 383.547C650.121 383.547 648.082 383.238 647.49 385.63C647.254 386.896 646.727 388.091 645.95 389.119C645.95 389.119 642.549 391.945 642.365 394.33L640.26 395.644C640.26 395.644 635.379 394.54 634.267 392.582C634.267 392.582 634.136 392.45 633.925 392.26V392.214C633.195 391.557 631.649 390.085 631.886 390.42C632.031 390.728 632.066 391.076 631.984 391.406L631.623 391.005L630.649 389.927C630.649 389.927 622.755 382.542 618.15 381.957C618.091 381.839 617.788 380.643 616.999 381.398C616.345 381.998 615.823 382.726 615.464 383.537C615.105 384.347 614.917 385.223 614.913 386.109C614.909 386.996 615.088 387.874 615.439 388.688C615.79 389.502 616.305 390.235 616.953 390.841L624.347 397.733L624.538 397.871L626.123 399.908C625.853 400.565 625.63 401.17 625.465 401.735V401.794L625.347 402.149C625.333 402.187 625.322 402.227 625.314 402.267C625.274 402.386 625.242 402.497 625.209 402.609L625.149 402.806C625.149 402.845 625.149 402.885 625.149 402.924C624.972 403.542 624.86 404.015 624.807 404.278L624.393 404.147L624.794 404.324V404.383C624.794 404.468 624.794 404.514 624.794 404.514L625.176 404.679C627.34 405.618 638.142 410.356 638.694 411.072C639.247 411.788 643.391 414.2 647.102 412.235C650.812 410.27 651.608 407.274 651.608 407.274C651.608 407.274 655.193 402.307 655.318 401.571C655.443 400.835 658.219 399.981 658.219 399.981C658.219 399.981 658.469 408.188 657.048 411.197C655.627 414.206 652.969 427.499 652.969 427.499C653.144 427.474 653.321 427.474 653.496 427.499L653.338 428.268C653.555 428.227 653.778 428.227 653.996 428.268C653.798 429.779 652.68 436.81 652.68 436.81C652.68 436.81 652.312 439.997 651.693 441.101C651.075 442.204 651.035 447.967 651.035 447.967L650.042 452.133C650.042 452.133 650.174 452.422 650.417 452.849C651.083 454.267 652.053 455.521 653.259 456.522C653.18 457.177 653.011 457.818 652.759 458.428C652.375 459.359 652.206 460.366 652.266 461.371C652.266 461.371 651.22 466.089 651.338 467.436C651.456 468.783 650.68 472.095 650.68 472.095L649.568 482.759C649.568 482.759 648.832 492.011 649.2 494.528C649.377 496.501 649.293 498.49 648.95 500.441C648.95 500.441 649.693 507.735 649.509 508.53C649.325 509.325 648.397 512.762 648.95 514.661C649.503 516.56 649.2 521.77 649.2 521.77C649.2 521.77 649.568 528.637 650.003 530.844C650.235 532.516 650.192 534.213 649.878 535.871C649.878 535.871 649.443 540.589 649.259 540.589C649.075 540.589 647.47 543.835 650.739 547.022C654.009 550.209 651.983 549.716 651.983 549.716C651.983 549.716 649.351 548.402 649.693 551.069C649.983 553.573 650.391 552.922 650.43 552.85L649.812 554.867L650.246 554.926L649.891 555.353C649.518 555.831 649.1 556.272 648.641 556.668C648.16 557.137 647.873 557.771 647.838 558.442C647.838 558.442 643.266 563.409 639.004 565.919C636.76 567.233 634.826 568.357 633.984 569.29C633.221 570.118 633.326 570.788 634.925 571.314C638.26 572.418 644.135 572.97 648.332 571.557C650.846 570.726 653.11 569.273 654.91 567.332C654.91 567.332 657.541 565.978 660.173 566.471C662.804 566.964 667.962 563.593 667.962 563.593L667.863 562.726L667.593 560.216C667.419 560.006 667.291 559.762 667.216 559.499C667.141 559.237 667.122 558.962 667.159 558.691C667.191 557.949 667.118 557.206 666.942 556.484C666.896 556.24 666.85 555.997 666.804 555.774L667.277 555.682C667.277 555.682 666.666 552.561 667.777 551.943C668.889 551.326 668.573 543.303 668.573 543.303C668.573 543.303 667.159 541.463 666.416 541.161C665.672 540.858 666.35 537.047 666.481 536.561C666.613 536.075 667.593 526.567 667.593 526.567C667.593 526.567 667.218 523.571 667.712 522.283C668.205 520.995 667.093 516.027 667.093 516.027C666.991 515.8 666.965 515.545 667.021 515.302C667.077 515.059 667.211 514.84 667.402 514.68C668.06 513.944 667.837 507.387 667.837 507.387C667.837 507.387 667.777 504.101 667.777 503.214C667.777 502.327 668.514 499.232 669.198 498.194C669.882 497.156 669.442 493.903 669.442 493.903L669.481 493.66C669.481 493.568 669.481 493.45 669.534 493.312L669.586 492.984C669.888 491.188 670.292 489.411 670.797 487.661C671.599 485.092 672.527 480.558 672.527 480.558L678.27 465.59L678.336 465.413C678.336 465.413 680.967 470.314 680.967 474.855C680.967 474.855 681.625 480.308 681.467 481.78C681.309 483.252 681.895 490.171 681.895 490.171C681.895 490.171 682.697 500.1 682.697 500.527C682.697 500.954 683.69 508.615 684.309 509.785C684.927 510.955 683.69 514.503 683.316 514.871C682.941 515.239 683.44 524.247 683.44 524.247C683.44 524.247 682.513 531.357 682.329 532.829C682.145 534.301 681.401 539.938 682.02 542.146C682.638 544.354 682.388 544.656 682.388 544.656C682.388 544.656 684.618 546.93 683.316 547.114C682.843 547.217 682.398 547.42 682.01 547.709C681.622 547.997 681.3 548.366 681.066 548.788C680.832 549.211 680.691 549.679 680.652 550.161C680.614 550.643 680.678 551.127 680.842 551.582C681.616 553.825 682.526 556.019 683.565 558.153L684.592 557.936V558.665L684.664 562.318C684.664 562.318 685.098 565.808 684.848 566.609C684.671 567.187 684.421 569.934 684.302 571.373C684.256 571.899 684.23 572.247 684.23 572.247C684.23 572.247 684.23 575.493 691.091 574.514C697.952 573.535 699.183 570.834 699.183 570.834L699.235 570.499C699.334 569.881 699.558 568.567 699.742 567.831C699.985 566.852 697.768 562.437 697.768 562.437C697.768 562.437 697.4 559.434 696.781 558.764C696.522 558.367 696.351 557.918 696.281 557.45C696.229 557.2 696.176 556.944 696.137 556.694C696.292 556.712 696.445 556.738 696.597 556.773C696.597 556.773 696.222 554.631 697.65 553.954C699.077 553.277 698.696 551.871 698.512 551.26C698.327 550.649 699.064 547.212 699.064 547.212C698.959 546.87 698.95 546.506 699.037 546.158C699.124 545.811 699.304 545.494 699.557 545.241C700.426 544.38 701.103 538.375 701.103 538.375L701.228 515.206C701.228 515.206 701.663 511.099 701.169 509.443C700.676 507.788 700.182 504.601 700.86 503.74C701.538 502.879 700.919 498.904 700.919 498.904C700.919 498.904 700.919 490.506 701.847 488.391C702.774 486.275 702.465 473.127 702.465 473.127L702.709 464.486C702.709 464.486 704.728 462.58 704.254 452.659C706.406 452.521 708.859 452.442 709.201 452.744C709.859 453.296 714.267 456.115 716.865 454.334C717.938 453.598 718.968 452.802 719.95 451.949L718.858 433.551C719.516 434.576 719.95 435.253 719.95 435.253C719.95 432.683 727.246 424.345 727.246 424.345C727.246 424.345 734.041 415.58 735.522 414.541C737.002 413.503 739.909 407.971 739.909 407.971C740.339 406.919 740.836 405.897 741.396 404.909C742.08 403.864 739.857 400.92 740.1 400.25ZM724.161 406.683C722.306 406.867 718.411 411.098 718.352 412.018C718.217 412.625 717.935 413.189 717.53 413.661C717.53 413.293 717.47 412.918 717.438 412.537C717.003 407.116 716.53 400.519 716.78 399.882C717.148 398.778 717.023 393.811 717.023 393.811L717.095 393.712C718.339 397.563 722.207 402.096 722.207 402.096C722.207 402.096 722.865 404.068 723.694 404.114C724.522 404.16 724.161 406.683 724.161 406.683Z" fill="url(#paint7_linear)"/>
<path d="M625.09 405.283C625.09 405.283 627.347 393.456 634.589 393.456L639.892 404.344L636.359 406.775C636.359 406.775 628.682 406.985 625.09 405.283Z" fill="#65617D"/>
<path opacity="0.1" d="M639.892 404.311L636.359 406.742C636.359 406.742 630.958 406.913 627.097 405.967C626.408 405.814 625.736 405.594 625.09 405.31L625.13 405.119V405.08C625.46 403.597 625.917 402.146 626.498 400.743C626.722 400.211 626.972 399.665 627.248 399.12C628.307 397.083 629.8 395.079 631.853 394.093C632.605 393.714 633.426 393.49 634.267 393.436H634.589L634.708 393.679L636.497 397.359L639.892 404.311Z" fill="black"/>
<path d="M700.057 453.335C700.057 453.335 707.668 452.606 708.339 453.158C709.01 453.71 713.333 456.503 715.885 454.735C718.437 452.967 716.74 446.85 716.74 446.587C716.74 446.324 716.497 437.644 716.497 437.644L711.931 431.501L706.208 420.738L694.512 419.581L694.814 436.665L694.755 445.424L700.057 453.335Z" fill="#65617D"/>
<path opacity="0.1" d="M700.057 453.335C700.057 453.335 707.668 452.606 708.339 453.158C709.01 453.71 713.333 456.503 715.885 454.735C718.437 452.967 716.74 446.85 716.74 446.587C716.74 446.324 716.497 437.644 716.497 437.644L711.931 431.501L706.208 420.738L694.512 419.581L694.814 436.665L694.755 445.424L700.057 453.335Z" fill="black"/>
<path d="M633.069 393.121C633.069 393.121 632.458 400.539 627.807 400.664C627.807 400.664 626.491 399.875 624.728 398.555C620.663 395.512 614.203 389.671 615.992 384.237C618.551 376.451 630.971 390.808 630.971 390.808L631.931 391.879L633.069 393.121Z" fill="#FBBEBE"/>
<path opacity="0.1" d="M633.07 393.121C633.07 393.121 632.458 400.539 627.807 400.664C627.807 400.664 626.491 399.875 624.728 398.555L624.333 398.049C625.122 398.45 625.988 398.675 626.873 398.706C627.568 398.733 628.255 398.548 628.842 398.176C629.43 397.804 629.89 397.263 630.162 396.623C630.661 395.667 631.1 394.682 631.478 393.673C631.695 393.083 631.852 392.474 631.945 391.853L633.07 393.121Z" fill="black"/>
<path d="M631.056 406.565L630.017 405.25L626.511 400.743L624.728 398.436C625.514 398.839 626.378 399.063 627.261 399.094C627.956 399.124 628.644 398.94 629.233 398.568C629.821 398.195 630.28 397.652 630.55 397.011C631.038 396.057 631.467 395.074 631.833 394.067C632.412 392.424 632.398 391.583 632.194 391.294C631.99 391.005 633.51 392.398 634.207 393.081L634.543 393.397L634.668 393.646L636.503 397.195C636.507 397.245 636.507 397.295 636.503 397.346C636.635 398.463 637.227 405.553 631.056 406.565Z" fill="#E7EFFD"/>
<path d="M667.54 563.107C667.54 563.107 662.422 566.458 659.863 565.965C658.091 565.743 656.292 566.039 654.686 566.82C652.927 568.744 650.706 570.189 648.233 571.018C644.088 572.418 638.306 571.866 635.017 570.775C633.464 570.256 633.339 569.586 634.089 568.764C634.839 567.943 636.826 566.734 639.036 565.42C643.24 562.923 647.746 558.001 647.746 558.001C647.774 557.333 648.057 556.701 648.535 556.234C648.988 555.838 649.4 555.397 649.765 554.92C650.423 554.151 651.035 553.343 651.035 553.343L666.106 553.908C666.106 553.908 666.363 554.992 666.567 556.103C666.738 556.819 666.809 557.555 666.777 558.291C666.74 558.559 666.759 558.833 666.832 559.094C666.906 559.355 667.033 559.598 667.205 559.808L667.474 562.292L667.54 563.107Z" fill="#65617D"/>
<path d="M698.998 567.325C698.821 568.055 698.597 569.356 698.498 569.954C698.498 570.157 698.452 570.289 698.452 570.289C698.452 570.289 697.235 572.963 690.473 573.936C683.71 574.908 683.717 571.688 683.717 571.688L683.783 570.815C683.901 569.395 684.144 566.668 684.322 566.09C684.565 565.302 684.144 561.832 684.144 561.832L684.072 558.205L684.019 555.689L695.202 554.532C695.274 555.369 695.395 556.2 695.564 557.023C695.629 557.492 695.798 557.94 696.058 558.337C696.663 558.994 697.031 561.983 697.031 561.983C697.031 561.983 699.261 566.353 698.998 567.325Z" fill="#65617D"/>
<path opacity="0.1" d="M666.107 553.908C666.107 553.908 666.363 554.992 666.567 556.103C664.942 556.398 657.837 557.627 656.042 556.76C654.029 555.787 649.707 555.242 649.707 555.242L649.779 554.992C650.437 554.223 651.049 553.415 651.049 553.415L666.107 553.908Z" fill="black"/>
<path opacity="0.1" d="M695.603 557.042C692.768 556.563 686.538 557.699 684.091 558.225L684.039 555.708L695.222 554.552C695.3 555.389 695.428 556.22 695.603 557.042Z" fill="black"/>
<path d="M701.938 464.834L701.701 473.376C701.701 473.376 702.004 486.452 701.09 488.489C700.175 490.526 700.175 498.891 700.175 498.891C700.175 498.891 700.787 502.833 700.116 503.694C699.445 504.555 699.932 507.709 700.419 509.351C700.905 510.994 700.478 515.068 700.478 515.068L700.359 538.066C700.359 538.066 699.702 544.025 698.833 544.88C698.584 545.135 698.407 545.453 698.321 545.799C698.236 546.146 698.244 546.509 698.346 546.851C698.346 546.851 697.616 550.254 697.8 550.866C697.985 551.477 698.346 552.87 696.952 553.54C695.557 554.21 695.912 556.339 695.912 556.339C692.564 555.544 683.065 557.653 683.065 557.653C682.039 555.539 681.143 553.364 680.381 551.142C680.217 550.691 680.151 550.21 680.188 549.732C680.225 549.254 680.363 548.789 680.594 548.369C680.825 547.948 681.143 547.582 681.527 547.294C681.912 547.006 682.353 546.804 682.821 546.7C684.098 546.522 681.907 544.269 681.907 544.269C681.907 544.269 682.15 543.966 681.539 541.772C680.927 539.577 681.664 533.985 681.848 532.527C682.032 531.068 682.94 523.985 682.94 523.985C682.94 523.985 682.453 515.042 682.821 514.68C683.19 514.319 684.4 510.784 683.795 509.634C683.19 508.484 682.21 500.875 682.21 500.435C682.21 499.995 681.42 490.151 681.42 490.151C681.42 490.151 680.69 483.278 680.874 481.82C681.058 480.361 680.381 474.947 680.381 474.947C680.381 470.446 677.749 465.577 677.749 465.577L677.684 465.754L672.026 480.709C672.026 480.709 671.112 485.21 670.323 487.766C669.824 489.494 669.426 491.249 669.132 493.023L669.079 493.352L669.027 493.693L668.987 493.936C668.987 493.936 669.408 497.156 668.737 498.194C667.99 499.765 667.518 501.451 667.342 503.181C667.342 504.036 667.402 507.321 667.402 507.321C667.402 507.321 667.645 513.826 666.974 514.549C666.79 514.707 666.661 514.92 666.607 515.156C666.552 515.393 666.575 515.64 666.671 515.863C666.671 515.863 667.764 520.791 667.277 522.066C666.79 523.341 667.158 526.324 667.158 526.324C667.158 526.324 666.185 535.753 666.06 536.239C665.935 536.725 665.27 540.497 666 540.799C666.731 541.101 668.132 542.928 668.132 542.928C668.132 542.928 668.435 550.898 667.342 551.503C666.25 552.107 666.849 555.215 666.849 555.215C666.849 555.215 658.021 556.917 656.015 555.945C654.008 554.972 649.68 554.427 649.68 554.427L650.285 552.456C650.245 552.528 649.844 553.178 649.561 550.688C649.252 548.06 651.811 549.374 651.811 549.374C651.811 549.374 653.824 549.86 650.594 546.7C647.364 543.539 648.949 540.313 649.134 540.313C649.318 540.313 649.739 535.628 649.739 535.628C650.05 533.983 650.092 532.299 649.864 530.641C649.436 528.453 649.074 521.639 649.074 521.639C649.074 521.639 649.377 516.468 648.824 514.582C648.272 512.696 649.193 509.325 649.377 508.497C649.561 507.669 648.824 500.468 648.824 500.468C649.168 498.516 649.252 496.528 649.074 494.554C648.706 492.057 649.436 482.871 649.436 482.871L650.535 472.292C650.535 472.292 651.324 469.007 651.193 467.693C651.061 466.378 652.107 461.674 652.107 461.674C652.048 460.675 652.214 459.676 652.594 458.75C653.206 457.534 653.449 453.493 653.449 453.493L659.297 440.115L662.159 428.288L700.826 427.92C700.826 427.92 700.965 428.945 701.201 430.804C701.438 432.664 701.767 435.404 702.136 438.814C702.471 441.902 702.839 445.536 703.201 449.577C704.379 462.521 701.938 464.834 701.938 464.834Z" fill="#3F3D56"/>
<path d="M698.34 358.328L689.334 367.955C689.334 367.955 677.77 363.355 678.987 361.745C679.454 361.134 679.381 359.202 679.112 357.073C678.684 353.703 677.796 349.846 677.796 349.846C677.796 349.846 698.011 346.56 696.301 349.964C695.757 351.248 695.712 352.689 696.176 354.005C696.663 355.551 697.394 357.011 698.34 358.328Z" fill="#FBBEBE"/>
<path opacity="0.1" d="M696.275 349.931C695.656 351.179 695.36 351.298 695.748 352.638C693.117 355.47 689.742 358.552 685.558 358.552C683.321 358.554 681.114 358.037 679.112 357.04C678.684 353.67 677.796 349.813 677.796 349.813C677.796 349.813 697.985 346.527 696.275 349.931Z" fill="black"/>
<path d="M700.057 343.728C700.057 347.568 698.53 351.251 695.811 353.966C693.093 356.681 689.406 358.207 685.561 358.207C681.717 358.207 678.03 356.681 675.312 353.966C672.593 351.251 671.066 347.568 671.066 343.728C671.066 343.656 671.066 343.59 671.066 343.518C671.08 341.617 671.468 339.737 672.209 337.986C672.95 336.235 674.029 334.647 675.385 333.313C676.74 331.979 678.346 330.924 680.109 330.209C681.873 329.494 683.76 329.134 685.663 329.148C687.566 329.161 689.448 329.549 691.201 330.29C692.954 331.03 694.544 332.108 695.88 333.462C697.216 334.816 698.272 336.419 698.987 338.181C699.703 339.942 700.064 341.827 700.05 343.728H700.057Z" fill="#FBBEBE"/>
<path opacity="0.1" d="M702.156 439.234C700.235 439.234 693.841 439.3 686.697 439.418H686.611L684.25 439.458H684.177C675.704 439.589 667.357 437.94 664.002 438.249C656.877 438.906 666.561 431.678 666.561 431.678C671.87 432.962 677.33 433.512 682.789 433.314L684.842 433.209C691.315 432.841 697.821 432.237 701.222 431.238C701.459 433.104 701.788 435.837 702.156 439.234Z" fill="black"/>
<path d="M702.156 438.867C700.235 438.867 693.841 438.939 686.697 439.051H686.611L684.25 439.09H684.177C675.704 439.228 667.357 437.572 664.002 437.888C656.877 438.545 666.561 431.317 666.561 431.317C671.869 432.604 677.33 433.155 682.789 432.953L684.842 432.848C691.315 432.486 697.821 431.875 701.222 430.876C701.459 432.736 701.788 435.469 702.156 438.867Z" fill="#5F5D7E"/>
<path opacity="0.1" d="M681.664 362.343L670.481 367.6L661.83 434.385C661.83 434.385 666.948 432.072 669.869 433.531C672.79 434.99 681.802 433.656 681.802 433.656C681.802 433.656 688.38 433.288 689.354 434.024C690.328 434.76 701.781 430.981 701.781 430.981C701.781 430.981 703.853 426.382 702.267 425.626C700.682 424.871 702.754 417.741 702.754 417.741L701.781 369.564L699.807 363.362L694.544 360.194L689.19 364.452L686.631 364.82L681.664 362.343Z" fill="black"/>
<path d="M681.664 361.614L670.481 366.87L661.811 433.662C661.811 433.662 666.928 431.35 669.849 432.808C672.77 434.267 681.782 432.933 681.782 432.933C681.782 432.933 688.361 432.565 689.334 433.294C690.308 434.024 701.761 430.259 701.761 430.259C701.761 430.259 703.833 425.659 702.248 424.904C700.662 424.148 702.735 417.019 702.735 417.019L701.761 368.842L699.787 362.639L694.525 359.472L689.17 363.73L686.611 364.098L681.664 361.614Z" fill="#E7EFFD"/>
<path opacity="0.1" d="M678.987 357.96C678.987 357.96 678.5 358.328 678.375 360.759C678.25 363.191 676.546 368.644 676.546 368.644C676.546 368.644 682.881 364.268 686.046 364.755L678.987 357.96Z" fill="black"/>
<path d="M678.987 357.231C678.987 357.231 678.5 357.599 678.375 360.03C678.25 362.461 676.546 367.915 676.546 367.915C676.546 367.915 682.881 363.539 686.046 364.025L678.987 357.231Z" fill="#E7EFFD"/>
<path opacity="0.1" d="M696.281 356.015L686.295 364.774C686.295 364.774 694.696 369.761 695.794 370.977C696.893 372.193 697.985 359.058 697.985 359.058L696.281 356.015Z" fill="black"/>
<path d="M696.643 355.286L686.657 364.045C686.657 364.045 695.064 369.032 696.157 370.248C697.249 371.463 698.347 358.328 698.347 358.328L696.643 355.286Z" fill="#E7EFFD"/>
<path opacity="0.1" d="M639.891 404.311L636.359 406.742C636.359 406.742 630.958 406.913 627.096 405.967L625.123 405.093L624.728 404.922L625.136 405.053C626.704 405.611 628.407 405.671 630.01 405.224C635.01 403.542 634.457 395.302 634.26 393.436C634.26 393.246 634.227 393.127 634.221 393.081V393.127C634.291 393.239 634.368 393.347 634.451 393.449L634.675 393.686L636.503 397.195C636.507 397.245 636.507 397.295 636.503 397.346L639.891 404.311Z" fill="black"/>
<path d="M652.127 380.531L650.423 381.017L650.18 384.48C650.18 384.48 648.206 384.178 647.621 386.55C647.387 387.807 646.867 388.994 646.101 390.019C646.101 390.019 642.753 392.818 642.569 395.19L640.496 396.465C640.496 396.465 635.688 395.368 634.576 393.423C634.576 393.423 636.773 409.114 625.077 405.25C625.077 405.25 638.168 410.967 638.779 411.762C639.391 412.557 643.384 414.863 647.062 412.918C650.739 410.974 651.509 407.99 651.509 407.99C651.509 407.99 655.041 403.062 655.16 402.333C655.278 401.604 658.021 400.749 658.021 400.749L663.284 388.101L652.127 380.531Z" fill="#65617D"/>
<path opacity="0.1" d="M694.879 363.316L696.642 355.286C696.642 355.286 697.438 357.914 698.227 358.512L700.859 360.484C700.859 360.484 703.49 361.699 704.391 361.699C705.293 361.699 710.24 363.013 710.845 363.67C711.45 364.327 713.891 363.854 713.891 363.854C713.891 363.854 715.897 364.511 717.667 364.952C719.436 365.392 720.298 368.296 719.916 369.453C719.77 370.028 719.771 370.631 719.921 371.205C720.07 371.78 720.363 372.307 720.772 372.738C721.502 373.468 721.87 375.84 721.87 375.84C722.764 376.131 723.507 376.764 723.936 377.601C724.548 378.915 724.363 381.858 724.363 381.858L715.292 394.632C715.292 394.632 715.41 399.56 715.048 400.657C714.687 401.755 716.325 420.37 716.325 420.37L718.213 452.363C717.244 453.212 716.227 454.004 715.167 454.735C714.621 454.978 714.075 443.42 714.075 443C714.075 442.579 700.004 421.973 700.004 421.973C700.004 421.973 698.116 418.931 698.116 418.261C698.116 417.59 696.353 411.447 696.353 411.447L693.675 399.619L694.879 363.316Z" fill="black"/>
<path d="M725.107 381.168C725.107 381.589 725.107 381.865 725.107 381.865L716.042 394.625C716.042 394.625 716.167 399.554 715.799 400.651C715.588 401.308 716.049 407.833 716.457 413.208C716.766 417.084 717.049 420.357 717.049 420.357L717.851 433.925L718.937 452.324C717.968 453.173 716.951 453.965 715.891 454.696C715.345 454.939 714.799 443.381 714.799 442.954C714.799 442.527 700.728 421.927 700.728 421.927C700.728 421.927 698.84 418.885 698.84 418.215C698.84 417.544 697.077 411.401 697.077 411.401L694.399 399.573L695.616 363.322L696.649 355.293C696.649 355.293 698.175 357.921 698.965 358.512L701.596 360.523C701.596 360.523 704.227 361.739 705.129 361.739C706.03 361.739 710.977 363.053 711.582 363.71C712.187 364.367 714.628 363.894 714.628 363.894C714.628 363.894 716.641 364.551 718.404 364.991C720.167 365.431 721.035 368.336 720.654 369.492C720.508 370.067 720.509 370.67 720.659 371.245C720.808 371.819 721.101 372.346 721.509 372.778C722.239 373.507 722.608 375.879 722.608 375.879C723.502 376.171 724.244 376.804 724.673 377.64C725.031 378.78 725.178 379.976 725.107 381.168Z" fill="#65617D"/>
<path opacity="0.1" d="M650.667 543.237C650.97 543.237 663.758 543.723 663.515 545.793C663.271 547.863 650.667 543.237 650.667 543.237Z" fill="black"/>
<path opacity="0.1" d="M653.528 546.68C653.528 546.68 662.113 548.08 659.863 549.354C657.613 550.629 653.528 546.68 653.528 546.68Z" fill="black"/>
<path opacity="0.1" d="M685.44 541.903C685.44 541.903 699.689 543.119 697.557 544.696C695.426 546.273 690.374 546.522 690.13 546.582C689.887 546.641 685.44 541.903 685.44 541.903Z" fill="black"/>
<path opacity="0.1" d="M683.736 548.165C683.736 548.165 691.63 549.479 691.894 551.023C692.157 552.567 683.736 548.165 683.736 548.165Z" fill="black"/>
<path opacity="0.1" d="M688.117 511.546C688.117 511.546 695.353 513.248 695.794 514.404L688.117 511.546Z" fill="black"/>
<path opacity="0.1" d="M660.186 516.776C660.186 516.776 656.41 517.874 660.067 520.062C663.725 522.25 660.186 516.776 660.186 516.776Z" fill="black"/>
<path opacity="0.1" d="M676.915 458.323C677.342 458.323 683.98 456.135 686.295 457.107C687.95 457.725 689.699 458.053 691.466 458.079L676.915 458.323Z" fill="black"/>
<path opacity="0.1" d="M677.77 465.255L677.704 465.859L672.027 480.709C672.027 480.709 671.112 485.21 670.323 487.766C669.824 489.494 669.427 491.249 669.132 493.023L674.158 461.897L677.77 465.255Z" fill="black"/>
<path d="M686.611 439.051L684.249 439.09H684.177L682.789 432.959L684.842 432.848L686.611 439.051Z" fill="#3F3D56"/>
<path d="M715.338 431.626L713.825 432.874L708.76 437.033C708.76 437.033 695.064 444.333 691.288 437.401C687.959 431.29 703.49 426.927 707.234 425.975L708.03 425.784L715.338 431.626Z" fill="#FBBEBE"/>
<path opacity="0.1" d="M656.817 371.831C656.817 371.831 659.495 373.047 660.107 374.749C660.718 376.451 656.817 371.831 656.817 371.831Z" fill="black"/>
<path opacity="0.1" d="M648.535 390.078C648.535 390.078 644.641 394.823 646.219 396.649C647.798 398.476 648.535 390.078 648.535 390.078Z" fill="black"/>
<path opacity="0.1" d="M718.201 374.525C718.201 374.525 714.55 374.893 714.425 378.054L718.201 374.525Z" fill="black"/>
<path opacity="0.1" d="M684.341 424.385C684.71 424.017 693.11 411.611 695.064 412.708L684.341 424.385Z" fill="black"/>
<path opacity="0.1" d="M700.057 343.728C700.058 346.112 699.468 348.46 698.34 350.562H698.235C697.314 350.365 696.834 349.3 696.137 348.63C695.705 348.219 695.156 347.954 694.566 347.871C693.976 347.789 693.375 347.893 692.847 348.17C692.314 348.488 691.879 348.949 691.594 349.5C691.308 350.052 691.181 350.672 691.229 351.291C690.768 349.32 690.913 347.27 690.459 345.318C690.005 343.367 688.644 341.376 686.775 341.376C685.973 341.376 685.032 341.671 684.453 341.067C684.105 340.705 684.032 340.134 683.795 339.694C682.48 337.532 678.401 338.623 676.743 339.733C675.086 340.843 673.158 342.604 671.099 343.551C671.127 339.711 672.681 336.041 675.418 333.346C678.156 330.651 681.853 329.152 685.697 329.18C689.54 329.208 693.215 330.76 695.913 333.494C698.611 336.229 700.111 339.922 700.084 343.761L700.057 343.728Z" fill="black"/>
<path d="M683.769 339.293C684.032 339.733 684.104 340.305 684.427 340.673C685.006 341.271 685.946 340.962 686.749 340.975C688.617 341.008 689.986 342.986 690.433 344.917C690.88 346.849 690.742 348.939 691.209 350.884C691.156 350.265 691.279 349.645 691.564 349.094C691.849 348.542 692.285 348.083 692.821 347.769C693.348 347.494 693.948 347.389 694.538 347.471C695.128 347.552 695.677 347.815 696.11 348.222C696.807 348.88 697.288 349.964 698.209 350.154C699.129 350.345 700.011 349.464 700.34 348.498C700.577 347.5 700.752 346.489 700.866 345.469C701.281 343.577 702.524 342.02 703.208 340.213C704.024 338.017 704.003 335.599 703.149 333.418C702.688 332.275 702.011 331.25 701.55 330.133C700.846 328.405 700.662 326.447 699.807 324.798C699.121 323.462 697.98 322.414 696.59 321.843C695.199 321.272 693.651 321.216 692.222 321.683C690.906 322.182 689.749 323.142 688.407 323.575C686.604 324.154 684.683 323.72 682.822 323.457C680.96 323.194 678.875 323.175 677.401 324.397C675.678 325.809 675.204 328.457 673.586 330.002C672.928 330.659 672.059 331.066 671.342 331.664C670.955 331.95 670.639 332.322 670.421 332.751C670.203 333.18 670.088 333.654 670.086 334.135C670.198 335.396 671.402 336.54 670.974 337.709C670.817 338.046 670.593 338.348 670.316 338.596C668.96 340.018 667.951 341.734 667.369 343.61C670.658 344.622 674.158 341.034 676.704 339.339C678.375 338.228 682.434 337.138 683.769 339.293Z" fill="#7C5C5C"/>
<path opacity="0.1" d="M715.338 431.626L713.825 432.874C712.51 430.646 706.997 426.205 706.997 426.205L707.234 425.975L708.03 425.784L715.338 431.626Z" fill="black"/>
<path d="M716.799 429.372C716.799 429.372 716.26 430.725 715.694 431.895C715.128 433.065 714.516 434.129 714.49 433.268C714.424 431.56 707.366 425.843 707.366 425.843L708.32 424.91L709.431 423.833L716.799 429.372Z" fill="#E7EFFD"/>
<path opacity="0.1" d="M717.042 420.37L717.845 433.938C715.95 431.001 710.76 423.471 707.425 423.714L715.523 414.41C715.859 414.036 716.169 413.638 716.45 413.221C716.759 417.098 717.042 420.37 717.042 420.37Z" fill="black"/>
<path opacity="0.1" d="M716.799 429.372C716.799 429.372 716.259 430.725 715.694 431.895C713.569 428.991 710.655 425.554 708.319 424.91L709.431 423.833L716.799 429.372Z" fill="black"/>
<path d="M722.891 380.163L725.082 381.865C725.082 381.865 728.739 381.931 729.101 384.966C729.463 388.002 732.818 389.408 732.818 389.408C732.818 389.408 735.311 391.905 735.311 393.062C735.311 394.218 737.199 396.281 737.199 396.465C737.199 396.649 739.028 400.355 738.784 401.025C738.541 401.696 740.758 404.613 740.061 405.71C739.513 406.694 739.026 407.71 738.6 408.753C738.6 408.753 735.739 414.226 734.278 415.258C732.818 416.289 726.121 424.996 726.121 424.996C726.121 424.996 718.931 433.262 718.931 435.818C718.931 435.818 711.931 424.141 707.787 424.444L715.885 415.139C715.885 415.139 717.286 413.615 717.352 412.708C717.418 411.801 721.246 407.596 723.075 407.412C723.075 407.412 723.378 404.922 722.588 404.856C721.799 404.79 721.128 402.885 721.128 402.885C721.128 402.885 715.767 396.557 715.708 392.542C715.648 388.528 722.891 380.163 722.891 380.163Z" fill="#65617D"/>
<path opacity="0.1" d="M726.12 385.939C726.12 385.939 721.002 389.71 722.101 390.933C723.199 392.155 726.12 385.939 726.12 385.939Z" fill="black"/>
<path opacity="0.1" d="M726.364 401.512C726.364 401.512 735.864 398.469 736.837 401.512H726.364Z" fill="black"/>
<path opacity="0.1" d="M659.343 385.209C659.343 385.209 659.343 399.08 658.159 400.447C656.975 401.814 659.343 385.209 659.343 385.209Z" fill="black"/>
<path opacity="0.1" d="M714.24 389.684L716.009 394.639C716.009 394.639 716.707 389.776 714.24 389.684Z" fill="black"/>
<g opacity="0.1">
<path opacity="0.1" d="M671.185 336.513C671.633 335.377 670.462 334.253 670.31 333.031C670.153 333.374 670.085 333.752 670.113 334.128C670.192 335.055 670.876 335.915 671.054 336.756C671.105 336.68 671.149 336.598 671.185 336.513Z" fill="black"/>
<path opacity="0.1" d="M691.394 349.616C690.96 347.697 691.091 345.673 690.644 343.748C690.196 341.823 688.828 339.805 686.96 339.805C686.157 339.805 685.217 340.094 684.638 339.496C684.283 339.135 684.217 338.563 683.98 338.117C682.664 335.961 678.586 337.059 676.921 338.163C674.435 339.812 671.001 343.275 667.817 342.486C667.665 342.854 667.521 343.229 667.402 343.616C670.692 344.628 674.191 341.041 676.737 339.345C678.401 338.241 682.46 337.151 683.796 339.306C684.059 339.746 684.131 340.318 684.454 340.686C685.032 341.284 685.973 340.975 686.776 340.988C688.644 341.021 690.012 342.999 690.46 344.931C690.907 346.862 690.769 348.952 691.236 350.897C691.203 350.463 691.257 350.028 691.394 349.616Z" fill="black"/>
<path opacity="0.1" d="M700.55 347.335C700.221 348.301 699.353 349.188 698.412 348.991C697.472 348.794 697.018 347.73 696.321 347.059C695.888 346.651 695.339 346.388 694.749 346.305C694.16 346.223 693.56 346.326 693.031 346.599C692.523 346.903 692.106 347.336 691.821 347.855C691.537 348.374 691.396 348.959 691.413 349.55C691.657 348.806 692.168 348.179 692.847 347.789C693.375 347.513 693.975 347.409 694.564 347.49C695.154 347.571 695.703 347.834 696.136 348.242C696.834 348.899 697.314 349.983 698.235 350.174C699.156 350.365 700.037 349.484 700.366 348.518C700.545 347.95 700.657 347.364 700.702 346.77C700.664 346.962 700.614 347.151 700.55 347.335Z" fill="black"/>
<path opacity="0.1" d="M703.419 339.043C702.761 340.843 701.492 342.401 701.077 344.3C700.998 344.681 700.945 345.075 700.899 345.469C701.32 343.577 702.551 342.026 703.235 340.213C703.54 339.402 703.728 338.553 703.794 337.689C703.704 338.15 703.578 338.602 703.419 339.043Z" fill="black"/>
</g>
<path opacity="0.1" d="M667.54 563.107C667.54 563.107 662.422 566.458 659.863 565.965C658.091 565.743 656.292 566.039 654.686 566.82C652.927 568.744 650.706 570.189 648.233 571.018C644.088 572.418 638.306 571.866 635.017 570.775C633.464 570.256 633.339 569.586 634.089 568.765C637.661 569.474 645.654 570.887 647.805 569.862C650.176 568.605 652.456 567.182 654.627 565.604C654.627 565.604 659.89 564.875 660.593 564.875C661.113 564.875 665.159 563.206 667.442 562.246L667.54 563.107Z" fill="black"/>
<path opacity="0.1" d="M698.518 569.974C698.518 570.177 698.472 570.309 698.472 570.309C698.472 570.309 697.255 572.983 690.492 573.955C683.73 574.928 683.736 571.708 683.736 571.708L683.802 570.834C685.94 571.649 690.611 572.549 698.518 569.974Z" fill="black"/>
<path d="M679.004 357.091C679.004 357.091 677.912 356.545 676.873 358.129C676.114 359.16 675.082 359.959 673.893 360.435C673.893 360.435 662.808 362.203 662.381 363.662L657.203 363.964C657.203 363.964 655.375 364.207 655.23 368.044C655.085 371.882 654.072 372.236 654.072 372.236C654.072 372.236 651.941 376.008 652.099 377.953C652.122 378.545 651.981 379.131 651.69 379.647C651.4 380.164 650.972 380.589 650.454 380.877L658.065 400.642C658.065 400.642 658.309 408.796 656.907 411.773C655.506 414.749 652.888 427.957 652.888 427.957C652.888 427.957 653.987 427.714 653.921 428.443C653.855 429.172 652.605 437.143 652.605 437.143C652.605 437.143 652.237 440.303 651.631 441.401C651.026 442.498 650.974 448.208 650.974 448.208L650 452.348C650 452.348 652.309 457.519 655.842 456.789C659.374 456.06 665.762 442.248 665.762 442.248L669.84 427.346L673.011 412.627L673.926 402.653L675.386 380.568L677.517 365.974C677.517 365.974 679.859 358.129 679.004 357.091Z" fill="#65617D"/>
<path d="M69.3243 609.969C70.1071 607.117 70.64 604.607 70.64 604.607C70.6546 602.701 71.1573 600.83 72.1004 599.173V598.384L72.324 592.595C71.9762 591.53 71.536 590.496 71.0083 589.507C70.0347 587.648 71.3373 581.018 71.3373 581.018C71.3373 581.018 75.5672 571.773 74.8567 565.773C74.1462 559.774 83.8164 539.602 83.8164 539.602C83.8422 537.614 83.6392 535.63 83.2112 533.688C83.1335 533.284 83.1114 532.87 83.1455 532.46C83.1422 532.409 83.1422 532.359 83.1455 532.308V532.354C83.4283 528.412 86.8228 521.184 86.8228 521.184L86.9477 507.123C86.9477 507.123 85.2768 498.765 88.9213 487.772C90.204 483.934 91.0461 480.859 91.5987 478.481C91.6644 478.211 91.7236 477.955 91.7763 477.705C85.1453 476.43 80.0799 475.392 80.0799 475.392C80.0799 475.392 84.573 459.373 87.3161 456.646C90.0593 453.919 92.467 445.101 92.467 445.101C92.467 445.101 94.2695 433.733 92.2039 430.317C90.1383 426.9 90.0462 421.118 90.0462 421.118C90.0462 421.118 85.165 417.287 84.5993 415.651C84.0335 414.015 83.1323 410.328 83.2047 408.423C83.277 406.517 83.9743 404.809 83.8033 403.79C83.6322 402.772 85.4545 399 84.6848 397.147C84.4933 396.578 84.4042 395.98 84.4216 395.38C84.4216 395.38 84.4216 395.38 84.4216 395.327C84.4763 393.736 84.6856 392.154 85.0466 390.603C86.542 389.435 88.2685 388.597 90.1119 388.145L90.2369 387.712L90.5659 386.588C90.7276 386.487 90.8945 386.395 91.0658 386.312L91.0987 385.898L91.204 384.262L90.5724 380.53C89.2568 374.051 97.8876 373.427 97.8876 373.427C98.4432 372.462 99.3357 371.737 100.394 371.39C102.144 370.851 100.315 381.055 99.4795 381.68C98.8217 382.146 96.8482 385.294 95.8943 386.838L95.7365 387.094C95.8749 387.226 96.0025 387.369 96.118 387.521L95.7036 389.735L95.6378 390.071C96.1808 390.798 96.6131 391.602 96.9206 392.456C96.9206 392.456 95.2825 394.112 95.5259 396.043C95.5969 397.546 95.3734 399.048 94.8681 400.466C94.9602 400.367 96.1114 399.217 97.2034 399.546C98.2954 399.874 101.335 400.919 101.335 400.919C101.335 400.919 103.617 401.412 103.387 401.911C103.157 402.411 104.854 404.697 104.854 404.697L111.255 399.092C111.327 398.915 111.393 398.744 111.459 398.567C111.754 397.74 111.974 396.889 112.117 396.024C111.442 395.84 110.782 395.605 110.143 395.321C109.502 395.074 108.928 394.678 108.472 394.164C107.88 393.402 107.814 392.39 107.584 391.464C107.163 389.65 106.176 388.007 105.486 386.266C104.327 383.345 104.021 380.155 104.604 377.067C104.745 376.121 105.105 375.221 105.657 374.439C106.722 373.092 108.571 372.599 109.946 371.548C111.321 370.496 112.242 368.834 113.82 368.065C115.254 367.369 116.958 367.526 118.531 367.842C121.584 368.464 124.495 369.647 127.115 371.331C127.997 371.902 128.964 372.559 130.01 372.408C130.878 372.178 131.643 371.661 132.181 370.943C132.178 370.912 132.178 370.882 132.181 370.851L132.253 370.779C132.851 372.254 133.116 373.842 133.029 375.431C133.029 375.674 133.029 375.924 132.977 376.167C132.977 376.252 132.977 376.338 132.977 376.423C132.97 376.495 132.97 376.568 132.977 376.64C132.974 376.749 132.987 376.857 133.016 376.962C133.132 377.286 133.318 377.58 133.562 377.823C133.741 378.042 133.899 378.278 134.036 378.526C134.036 378.44 133.99 378.355 133.963 378.269C134.336 378.859 134.532 379.543 134.529 380.241C134.544 380.749 134.357 381.243 134.009 381.614C133.691 381.909 133.343 382.168 132.97 382.389C133.303 384.776 132.897 387.206 131.805 389.355C130.714 391.504 128.99 393.267 126.865 394.407C126.786 394.578 126.707 394.756 126.635 394.933C125.656 397.021 125.183 399.311 125.254 401.615C125.254 401.78 125.254 401.944 125.306 402.108C125.359 402.273 125.458 402.286 125.523 402.378C125.523 402.378 135.72 402.87 138.206 400.788C140.693 398.705 144.061 406.327 144.061 406.327C144.061 406.327 147.692 407.174 148.449 406.498C149.205 405.821 153.475 406.59 153.475 406.59C155.284 405.099 157.594 404.354 159.935 404.507C161.406 403.477 163.016 402.663 164.717 402.089L164.836 402.049C165.58 401.807 166.37 401.737 167.145 401.845C167.145 401.845 172.322 397.903 173.868 395.728C175.414 393.553 182.67 385.583 182.67 385.543L182.716 385.149L182.841 383.953C183.044 383.995 183.251 384.022 183.459 384.032L183.617 383.618C184.062 382.463 184.601 381.347 185.229 380.28C185.229 380.28 185.288 378.762 184.86 378.368C184.433 377.974 185.275 372.454 185.275 372.454C185.275 372.454 190.202 362.072 193.945 370.109C193.945 370.109 201.405 375.503 194.748 381.193C194.748 381.193 192.116 382.337 191.741 383.303C191.478 383.96 190.537 385.681 189.906 386.844L189.623 387.363L189.695 387.429L189.564 388.415L189.511 388.802C190.689 389.532 191.485 390.241 191.268 390.774C190.876 391.635 190.595 392.542 190.432 393.474C190.432 393.474 181.13 404.185 179.801 408.909C179.801 408.909 155.422 422.143 147.567 422.852L148.653 429.975C148.782 431.897 148.812 433.825 148.745 435.751C148.581 437.262 149.363 444.168 149.363 444.168C149.363 444.168 150.33 454.326 151.429 455.785C152.528 457.244 152.087 463.302 152.087 463.302C152.252 466.214 152.665 469.107 153.324 471.949C154.323 475.833 153.324 480.55 153.324 480.55C153.324 480.55 156.948 489.795 147.673 483.264C147.673 483.264 143.015 482.798 137.647 482.41C137.647 482.581 137.647 482.765 137.647 482.942C137.647 483.639 137.614 484.388 137.595 485.176C137.463 490.387 137.22 497.562 136.772 502.983C135.983 512.57 132.325 531.454 132.325 531.454L131.957 540.995C132.113 541.899 132.171 542.818 132.128 543.735C132.066 547.102 131.046 550.381 129.187 553.19L128.207 559.531C128.207 559.531 126.332 563.658 126.201 566.161C126.197 566.366 126.215 566.571 126.254 566.772C126.302 567.096 126.317 567.424 126.3 567.751C126.3 570.642 124.273 577.489 124.273 577.489C124.273 577.489 123.898 584.461 122.839 584.822C121.932 585.138 123.879 588.889 124.458 589.967C124.479 589.903 124.495 589.837 124.504 589.77L124.629 589.98C124.822 590.553 124.909 591.157 124.885 591.761C124.924 592.239 124.827 592.719 124.605 593.145C124.382 593.57 124.044 593.924 123.629 594.166C121.596 595.303 120.491 596.268 122.162 596.742C122.779 596.862 123.389 597.013 123.991 597.195L124.089 596.965C124.325 597.067 124.519 597.246 124.639 597.473C124.758 597.7 124.797 597.962 124.747 598.213C124.701 599.04 124.455 599.842 124.03 600.553C123.22 602.346 122.204 604.039 121.004 605.599L120.201 605.481C120.31 605.789 120.456 606.082 120.636 606.355C120.923 606.807 121.316 607.183 121.78 607.452C122.207 607.727 122.686 607.911 123.188 607.991C123.755 608.033 124.306 608.193 124.807 608.461C125.308 608.729 125.747 609.1 126.096 609.548C127.082 610.934 127.668 612.794 125.543 614.325L117.971 616.612C117.971 616.612 105.051 617.788 105.841 614.936C106.63 612.084 107.157 609.574 107.157 609.574C107.17 607.811 107.594 606.074 108.393 604.502C108.539 604.246 108.702 604 108.88 603.766L108.426 603.7C108.426 603.7 107.676 597.294 106.439 596.052C106.163 595.756 106.104 595.539 106.176 595.395C106.064 595.046 106.393 594.856 106.834 594.738C106.834 594.816 106.893 594.902 106.92 594.987C107.332 594.918 107.751 594.889 108.17 594.902C108.17 594.902 108.716 591.584 107.406 590.302C107.301 590.161 107.226 589.999 107.187 589.827C107.149 589.655 107.147 589.476 107.183 589.303C107.186 588.846 107.25 588.391 107.374 587.95C107.386 587.978 107.402 588.004 107.42 588.029C108.222 585.032 110.709 580.315 110.709 580.315C110.709 580.315 110.926 577.285 110.137 576.037C109.347 574.789 110.88 559.571 110.88 559.571C110.88 559.571 110.847 552.185 111.919 548.788C112.992 545.391 111.057 541.264 111.057 541.264C111.057 541.264 111.057 541.186 111.09 541.048C111.093 541.028 111.093 541.008 111.09 540.988C111.09 540.988 111.156 540.535 111.261 539.832V539.904C111.551 537.933 112.084 534.444 112.439 532.814C112.945 530.508 112.853 519.371 112.853 519.371L111.15 514.574L107.485 522.63L103.538 533.406C103.538 533.406 101.69 535.64 101.565 538.005C101.565 538.124 101.565 538.235 101.565 538.354C101.581 538.596 101.581 538.84 101.565 539.083C101.57 540.463 101.137 541.809 100.328 542.927C100.328 542.927 99.1901 548.045 97.6968 549.3C96.2035 550.556 96.0851 553.085 96.0851 553.085C96.0851 553.085 94.0195 560.497 93.1314 561.778C92.3881 562.856 92.2302 565.898 92.2039 566.831C92.2039 567.002 92.2039 567.101 92.2039 567.101C92.2039 567.101 91.8552 569.768 91.7763 572.016C91.7763 572.292 91.7763 572.561 91.7763 572.811C91.7731 572.793 91.7731 572.776 91.7763 572.758C91.7513 573.369 91.7999 573.98 91.921 574.578C91.921 574.578 91.921 574.651 91.921 574.69V574.309C92.2335 575.848 92.355 577.419 92.2828 578.987C92.2236 581.675 91.6908 584.842 89.987 586.649C87.0398 589.777 85.2834 589.277 85.2834 589.277C85.2834 589.277 86.4873 593.371 88.1253 594.245C88.1884 594.278 88.2479 594.318 88.3029 594.363C88.3029 594.284 88.3029 594.205 88.3489 594.133C88.523 594.343 88.6514 594.587 88.7262 594.85C88.8009 595.112 88.8203 595.387 88.7831 595.657C88.8357 597.438 87.599 600.257 86.4807 601.571C86.0735 601.947 85.578 602.213 85.04 602.346C85.1219 602.409 85.2076 602.466 85.2966 602.517C85.479 602.625 85.668 602.722 85.8623 602.806C86.1277 602.936 86.4119 603.022 86.7043 603.063C87.272 603.101 87.825 603.259 88.3264 603.528C88.8278 603.796 89.2661 604.169 89.612 604.62C90.5987 606 91.1842 607.859 89.0594 609.39L81.4877 611.677C81.4877 611.677 68.5283 612.82 69.3243 609.969Z" fill="url(#paint8_linear)"/>
<path d="M72.8769 589.586C73.3995 590.578 73.8396 591.611 74.1925 592.674L73.8702 600.651C75.7648 604.068 86.3296 603.358 87.8163 601.597C89.303 599.836 91.0003 595.138 89.4149 594.271C87.8295 593.404 86.6651 589.304 86.6651 589.304C86.6651 589.304 88.3689 589.777 91.2305 586.675C94.0921 583.574 93.5527 576.339 93.1053 574.605C92.658 572.87 93.4014 567.127 93.4014 567.127C93.4014 567.127 93.454 563.079 94.3158 561.798C95.1775 560.517 97.1839 553.105 97.1839 553.105C97.1839 553.105 97.276 550.575 98.743 549.32C100.21 548.065 101.322 542.94 101.322 542.94C102.202 541.685 102.618 540.164 102.499 538.636C102.295 536.1 104.42 533.445 104.42 533.445L108.282 522.669L111.834 514.607L113.472 519.423C113.472 519.423 113.551 530.561 113.058 532.867C112.564 535.173 111.742 541.317 111.742 541.317C111.742 541.317 113.61 545.437 112.571 548.841C111.531 552.244 111.545 559.623 111.545 559.623C111.545 559.623 110.045 574.848 110.808 576.09C111.571 577.332 111.354 580.361 111.354 580.361C111.354 580.361 106.867 589.093 108.13 590.361C109.393 591.63 108.867 594.961 108.867 594.961C108.867 594.961 106.038 594.849 107.203 596.111C108.367 597.372 108.992 603.726 108.992 603.726L121.169 605.612C122.335 604.045 123.32 602.349 124.103 600.559C125.866 596.886 123.932 597.215 122.32 596.748C120.708 596.282 121.774 595.309 123.741 594.172C125.708 593.036 124.701 590.263 124.701 590.263C124.701 590.263 121.958 585.197 122.991 584.835C124.024 584.474 124.385 577.502 124.385 577.502C124.385 577.502 126.727 569.289 126.306 567.048C125.885 564.808 128.221 559.531 128.221 559.531L129.168 553.197C131.474 549.671 132.43 545.431 131.858 541.258L132.24 531.454C132.24 531.454 135.819 512.603 136.621 502.983C137.121 496.846 137.371 488.455 137.483 483.218C137.549 480.274 137.575 478.329 137.575 478.329L94.046 472.1C93.8946 474.278 93.5445 476.438 93.0001 478.553C92.4672 480.938 91.6449 484.013 90.3687 487.851C86.8033 498.843 88.3952 507.202 88.3952 507.202L88.2571 521.263C88.2571 521.263 84.0469 530.515 84.7377 533.78C85.1503 535.724 85.3444 537.707 85.3165 539.694C85.3165 539.694 75.9489 559.853 76.6331 565.826C77.3172 571.799 73.2058 581.077 73.2058 581.077C73.2058 581.077 71.9361 587.727 72.8769 589.586Z" fill="#575988"/>
<path opacity="0.05" d="M99.8944 537.9L86.6587 535.6C86.6587 535.6 93.9015 543.59 99.8944 537.9Z" fill="black"/>
<path opacity="0.1" d="M89.0794 522.715C89.0794 522.715 88.4216 527.394 91.2569 529.286C91.2305 529.273 86.1323 528.267 89.0794 522.715Z" fill="black"/>
<path opacity="0.1" d="M90.4741 507.786C90.4741 507.786 101.243 517.36 105.315 516.762C109.387 516.164 90.4741 507.786 90.4741 507.786Z" fill="black"/>
<path opacity="0.1" d="M116.228 542.828C116.228 542.828 124.602 545.076 124.727 548.466C124.852 551.857 116.228 542.828 116.228 542.828Z" fill="black"/>
<path opacity="0.05" d="M112.736 584.881C112.736 584.881 124.577 587.562 121.143 588.949C117.709 590.335 112.084 591.334 112.084 591.334C112.084 591.334 108.229 591.4 112.736 584.881Z" fill="black"/>
<g opacity="0.05">
<path opacity="0.05" d="M123.464 591.452C123.771 591.276 124.034 591.033 124.234 590.742C124.435 590.451 124.567 590.119 124.622 589.77L124.734 589.987C124.734 589.987 125.747 592.753 123.774 593.929C123.55 594.054 123.339 594.186 123.116 594.31C122.767 594.232 122.385 594.166 122.024 594.061C120.419 593.568 121.491 592.595 123.464 591.452Z" fill="black"/>
<path opacity="0.05" d="M108.11 590.059C107.794 589.744 107.84 588.968 108.11 587.976C108.563 588.893 108.759 589.914 108.676 590.933C108.557 590.602 108.363 590.303 108.11 590.059Z" fill="black"/>
<path opacity="0.05" d="M111.887 539.858C112.279 541.072 112.501 542.335 112.545 543.61C112.351 542.723 112.074 541.856 111.716 541.021C111.716 541.021 111.788 540.568 111.887 539.858Z" fill="black"/>
<path opacity="0.05" d="M84.7636 533.504C84.6967 533.138 84.6724 532.766 84.6912 532.394C84.8162 533.156 84.8952 533.859 84.9412 534.477C84.8886 534.161 84.8294 533.839 84.7636 533.504Z" fill="black"/>
<path opacity="0.05" d="M110.788 575.794C110.59 575.06 110.519 574.298 110.577 573.54C110.916 574.452 111.077 575.42 111.051 576.392C110.987 576.183 110.899 575.982 110.788 575.794Z" fill="black"/>
<path opacity="0.05" d="M124.412 577.226C124.412 577.226 124.044 584.198 123.017 584.559C122.55 583.383 122.248 582.279 122.708 582.115C123.734 581.747 124.109 574.782 124.109 574.782C124.109 574.782 126.451 566.575 126.03 564.328C125.609 562.081 127.938 556.818 127.938 556.818L128.892 550.477C131.198 546.95 132.154 542.711 131.582 538.538L131.957 528.734C131.957 528.734 135.523 509.85 136.299 500.263C136.793 494.126 137.043 485.735 137.161 480.498C137.161 479.552 137.2 478.711 137.214 478.001L137.562 478.053C137.562 478.053 137.562 480.025 137.47 482.936C137.358 488.192 137.108 496.57 136.608 502.707C135.832 512.287 132.273 531.178 132.273 531.178L131.892 540.975C132.463 545.148 131.51 549.386 129.208 552.914L128.247 559.255C128.247 559.255 125.912 564.512 126.333 566.772C126.754 569.033 124.412 577.226 124.412 577.226Z" fill="black"/>
<path opacity="0.05" d="M72.574 586.853C73.0967 587.844 73.5367 588.877 73.8897 589.941L73.8305 591.354C73.5547 590.65 73.2429 589.962 72.8964 589.29C72.6066 588.485 72.49 587.627 72.5543 586.774L72.574 586.853Z" fill="black"/>
<path opacity="0.05" d="M87.2833 589.034C86.9274 588.242 86.6242 587.428 86.3755 586.596C86.3755 586.596 88.0793 587.063 90.9343 583.935C93.0131 581.655 93.2959 577.22 93.1249 574.302C93.5722 576.044 94.1051 583.245 91.2501 586.373C89.3686 588.423 87.9938 588.929 87.2833 589.034Z" fill="black"/>
<path opacity="0.05" d="M93.4083 566.825C93.1526 568.811 93.0077 570.809 92.9741 572.811C92.9349 572.492 92.8778 572.177 92.803 571.865C92.3623 570.123 93.0925 564.387 93.0925 564.387C93.0925 564.387 93.1517 560.339 94.0069 559.058C94.8621 557.777 96.8751 550.365 96.8751 550.365C96.8751 550.365 96.9737 547.842 98.4407 546.58C99.9077 545.319 101.019 540.2 101.019 540.2C101.896 538.944 102.312 537.423 102.197 535.896C101.993 533.36 104.118 530.705 104.118 530.705L107.979 519.929L111.532 511.867L113.17 516.69C113.17 516.69 113.17 517.281 113.17 518.227L111.854 514.285L108.302 522.341L104.44 533.123C104.44 533.123 102.315 535.752 102.519 538.314C102.638 539.842 102.222 541.363 101.342 542.618C101.342 542.618 100.23 547.737 98.7631 548.992C97.2961 550.247 97.204 552.777 97.204 552.777C97.204 552.777 95.191 560.188 94.3358 561.476C93.4806 562.764 93.4083 566.825 93.4083 566.825Z" fill="black"/>
</g>
<path d="M92.0728 380.596L92.6912 384.315L92.5859 385.957L92.507 387.166L96.7106 387.764L97.2171 386.91C98.1512 385.366 100.085 382.219 100.697 381.745C101.5 381.121 103.289 370.917 101.592 371.456C100.557 371.812 99.69 372.537 99.1577 373.493C99.1577 373.493 90.8295 374.123 92.0728 380.596Z" fill="#FFCDD3"/>
<path opacity="0.1" d="M92.5073 387.166L96.7109 387.764L97.2174 386.91C96.6751 386.248 95.9215 385.793 95.083 385.621C94.2446 385.449 93.3723 385.57 92.6126 385.964L92.5073 387.166Z" fill="black"/>
<path d="M91.3628 389.124L96.882 390.629L97.0268 389.801L97.428 387.587C97.139 387.172 96.7706 386.819 96.3441 386.547C95.9177 386.275 95.4415 386.09 94.9432 386.002C94.4448 385.915 93.9341 385.927 93.4404 386.038C92.9467 386.148 92.4799 386.356 92.0667 386.647L91.7509 387.771L91.3628 389.124Z" fill="#DCE6F2"/>
<path d="M181.842 384.472L187.657 387.889C187.657 387.889 187.9 387.423 188.243 386.785C188.854 385.622 189.762 383.874 190.019 383.244C190.407 382.278 192.933 381.128 192.933 381.128C199.386 375.431 192.17 370.049 192.17 370.049C188.552 362.013 183.776 372.402 183.776 372.402C183.776 372.402 182.954 377.941 183.368 378.315C183.782 378.69 183.723 380.228 183.723 380.228C183.11 381.295 182.587 382.412 182.158 383.566C181.954 384.111 181.842 384.472 181.842 384.472Z" fill="#FFCDD3"/>
<path opacity="0.1" d="M181.842 384.472L187.657 387.889C187.657 387.889 187.9 387.423 188.243 386.785C187.427 386.056 184.546 383.5 183.565 383.605C183.097 383.652 182.626 383.652 182.158 383.605C181.954 384.111 181.842 384.472 181.842 384.472Z" fill="black"/>
<path d="M181.163 386.227L187.741 389.768L187.926 388.336L188.057 387.35C188.057 387.35 184.321 383.894 183.176 383.973C182.592 384.031 182.003 384.007 181.426 383.901L181.308 385.097L181.163 386.227Z" fill="#DCE6F2"/>
<path d="M107.315 405.722C107.315 405.722 136.306 410.125 130.932 408.153C127.189 406.774 125.774 404.31 125.564 401.629C125.492 399.328 125.941 397.042 126.88 394.94C127.641 393.133 128.582 391.407 129.688 389.788C129.688 389.788 107.901 376.706 111.927 387.994C112.549 389.702 112.906 391.495 112.986 393.31C113.049 395.112 112.786 396.911 112.21 398.619C111.264 401.392 109.571 403.85 107.315 405.722Z" fill="#FFCDD3"/>
<path opacity="0.1" d="M111.953 387.994C112.575 389.702 112.932 391.495 113.012 393.31C115.038 395.143 117.34 395.117 120.294 395.229C122.563 395.321 125.05 395.965 126.872 394.94C127.634 393.133 128.575 391.407 129.681 389.788C129.681 389.788 107.927 376.706 111.953 387.994Z" fill="black"/>
<path d="M121.123 396.024C127.775 396.024 133.168 390.637 133.168 383.993C133.168 377.348 127.775 371.961 121.123 371.961C114.47 371.961 109.078 377.348 109.078 383.993C109.078 390.637 114.47 396.024 121.123 396.024Z" fill="#FFCDD3"/>
<path opacity="0.1" d="M107.315 405.722C107.315 405.722 136.306 410.125 130.932 408.153C127.189 406.774 125.774 404.31 125.564 401.629C124.176 400.006 121.308 398.764 119.459 398.087C117.776 397.454 115.939 397.353 114.196 397.798C113.501 397.973 112.836 398.249 112.223 398.619C111.274 401.394 109.576 403.852 107.315 405.722Z" fill="black"/>
<path opacity="0.1" d="M91.3628 389.124L96.882 390.629L97.0268 389.801C96.4645 388.964 95.6578 388.32 94.7162 387.957C93.7746 387.593 92.7438 387.528 91.7641 387.771L91.3628 389.124Z" fill="black"/>
<path opacity="0.1" d="M181.163 386.227L187.741 389.768L187.926 388.336C185.793 387.104 183.573 386.033 181.282 385.129L181.163 386.227Z" fill="black"/>
<path opacity="0.1" d="M92.9741 478.553C104.157 480.767 120.143 483.698 122.715 483.021C124.853 482.462 131.596 482.791 137.457 483.218C137.523 480.274 137.549 478.329 137.549 478.329L94.0201 472.1C93.8687 474.278 93.5186 476.438 92.9741 478.553Z" fill="black"/>
<path d="M81.8364 475.478C81.8364 475.478 118.715 483.271 122.747 482.213C126.78 481.155 147.186 483.251 147.186 483.251C156.152 489.769 152.659 480.531 152.659 480.531C152.659 480.531 153.653 475.813 152.659 471.929C152.023 469.085 151.625 466.193 151.468 463.282C151.468 463.282 151.909 457.224 150.85 455.772C149.791 454.32 148.877 444.155 148.877 444.155C148.877 444.155 148.133 437.249 148.291 435.738C148.449 434.226 148.212 429.962 148.212 429.962L147.166 422.839C154.791 422.123 178.4 408.863 178.4 408.863C179.716 404.158 188.722 393.369 188.722 393.369C188.883 392.439 189.157 391.532 189.538 390.668C190.195 389.078 181.229 385.497 181.229 385.497C181.229 385.497 174.118 393.52 172.644 395.689C171.171 397.857 166.125 401.813 166.125 401.813C165.374 401.708 164.608 401.778 163.888 402.016H163.77C162.126 402.598 160.575 403.415 159.165 404.441C156.886 404.299 154.641 405.046 152.903 406.524C152.903 406.524 148.778 405.762 148.048 406.438C147.318 407.115 143.798 406.274 143.798 406.274C143.798 406.274 140.509 398.665 138.134 400.748C135.759 402.831 125.852 402.351 125.852 402.351C124.609 400.551 121.451 399.178 119.478 398.455C117.796 397.818 115.957 397.717 114.215 398.166C113.459 398.351 112.741 398.665 112.09 399.092L105.88 404.717C105.88 404.717 104.242 402.43 104.466 401.931C104.69 401.431 102.493 400.945 102.493 400.945C102.493 400.945 99.5914 399.92 98.4929 399.578C97.3943 399.237 96.322 400.393 96.2299 400.498C96.7321 399.08 96.9555 397.579 96.8877 396.076C96.6575 394.144 98.2363 392.482 98.2363 392.482C95.0326 383.657 86.7636 390.629 86.7636 390.629C86.7636 390.629 85.665 395.34 86.4084 397.2C87.1517 399.059 85.3822 402.824 85.5401 403.843C85.6979 404.861 85.0335 406.557 84.9612 408.475C84.8888 410.394 85.7571 414.074 86.2768 415.703C86.7965 417.333 91.5395 421.17 91.5395 421.17C91.5395 421.17 91.625 426.939 93.6183 430.369C95.6115 433.799 93.8617 445.153 93.8617 445.153C93.8617 445.153 91.4935 453.965 88.8555 456.698C86.2176 459.432 81.8364 475.478 81.8364 475.478Z" fill="#656691"/>
<path opacity="0.1" d="M138.516 411.071C138.516 411.071 139.759 407.785 140.779 407.516C141.801 407.184 142.798 406.783 143.765 406.314L143.16 405.045C143.16 405.045 139.318 405.946 138.673 407.017C138.029 408.088 138.516 411.071 138.516 411.071Z" fill="black"/>
<path opacity="0.1" d="M159.132 404.48C159.297 405.499 168.263 406.754 168.263 406.754L163.888 402.016H163.777C162.117 402.607 160.552 403.437 159.132 404.48Z" fill="black"/>
<path d="M185.716 392.416C186.163 392.416 186.525 392.055 186.525 391.608C186.525 391.162 186.163 390.8 185.716 390.8C185.269 390.8 184.907 391.162 184.907 391.608C184.907 392.055 185.269 392.416 185.716 392.416Z" fill="#575988"/>
<path d="M184.617 393.993C185.064 393.993 185.426 393.632 185.426 393.185C185.426 392.739 185.064 392.377 184.617 392.377C184.17 392.377 183.808 392.739 183.808 393.185C183.808 393.632 184.17 393.993 184.617 393.993Z" fill="#575988"/>
<path d="M183.545 395.445C183.992 395.445 184.354 395.084 184.354 394.637C184.354 394.191 183.992 393.829 183.545 393.829C183.098 393.829 182.736 394.191 182.736 394.637C182.736 395.084 183.098 395.445 183.545 395.445Z" fill="#575988"/>
<path d="M182.427 397.022C182.874 397.022 183.236 396.661 183.236 396.214C183.236 395.768 182.874 395.406 182.427 395.406C181.98 395.406 181.618 395.768 181.618 396.214C181.618 396.661 181.98 397.022 182.427 397.022Z" fill="#575988"/>
<path d="M87.0734 393.119C87.4367 393.119 87.7312 392.825 87.7312 392.462C87.7312 392.099 87.4367 391.805 87.0734 391.805C86.71 391.805 86.4155 392.099 86.4155 392.462C86.4155 392.825 86.71 393.119 87.0734 393.119Z" fill="#575988"/>
<path d="M86.9152 394.604C87.2785 394.604 87.573 394.31 87.573 393.947C87.573 393.584 87.2785 393.29 86.9152 393.29C86.5518 393.29 86.2573 393.584 86.2573 393.947C86.2573 394.31 86.5518 394.604 86.9152 394.604Z" fill="#575988"/>
<path d="M86.7633 396.089C87.1266 396.089 87.4212 395.795 87.4212 395.432C87.4212 395.069 87.1266 394.775 86.7633 394.775C86.4 394.775 86.1055 395.069 86.1055 395.432C86.1055 395.795 86.4 396.089 86.7633 396.089Z" fill="#575988"/>
<path opacity="0.1" d="M137.411 438.451C137.509 438.34 113.597 466.226 96.5327 448.925C96.5327 448.925 124.359 453.788 137.411 438.451Z" fill="black"/>
<path opacity="0.1" d="M149.936 453.912C149.936 453.912 136.272 453.761 134.694 457.625L134.536 461.705C134.916 461.935 135.349 462.064 135.793 462.081C136.237 462.098 136.678 462.003 137.075 461.804C138.483 461.114 146.89 457.244 149.725 459.373L149.936 453.912Z" fill="black"/>
<path d="M149.679 453.899C149.679 453.899 136.621 453.755 135.108 457.441L134.957 461.331C135.32 461.551 135.734 461.675 136.159 461.691C136.584 461.707 137.005 461.615 137.384 461.423C138.7 460.766 146.772 457.08 149.482 459.103L149.679 453.899Z" fill="#656691"/>
<path opacity="0.1" d="M143.627 424.028C142.106 427.196 140.214 430.172 137.989 432.892C135.558 435.901 132.652 438.494 129.385 440.567C129.385 440.567 143.324 425.868 143.627 424.028Z" fill="black"/>
<path opacity="0.1" d="M148.699 408.364C148.699 408.364 146.068 418.095 140.049 421.203L148.699 408.364Z" fill="black"/>
<path opacity="0.1" d="M152.153 409.487C152.219 409.31 153.877 417.333 144.121 421.361C144.121 421.361 148.246 420.132 152.153 409.487Z" fill="black"/>
<path opacity="0.1" d="M92.823 400.617C92.9743 400.617 87.9747 403.541 86.5933 404.927C86.6262 404.927 89.9482 400.301 92.823 400.617Z" fill="black"/>
<path d="M123.958 395.018C123.835 395.656 123.475 396.224 122.952 396.608C122.592 396.766 122.199 396.836 121.807 396.812C118.13 396.904 114.301 396.917 110.966 395.373C110.342 395.126 109.788 394.729 109.354 394.217C108.775 393.455 108.696 392.449 108.492 391.516C108.084 389.703 107.131 388.067 106.466 386.325C105.347 383.394 105.058 380.211 105.631 377.126C105.763 376.183 106.112 375.283 106.65 374.498C107.677 373.151 109.472 372.658 110.801 371.6C112.13 370.542 113.025 368.886 114.564 368.111C115.946 367.415 117.597 367.566 119.116 367.888C122.099 368.512 124.935 369.701 127.471 371.39C128.319 371.962 129.254 372.612 130.267 372.461C131.135 372.22 131.893 371.686 132.411 370.95C133.063 372.621 133.302 374.424 133.109 376.206C133.062 376.467 133.062 376.734 133.109 376.995C133.221 377.316 133.4 377.609 133.635 377.856C134.497 378.94 135.003 380.622 134.069 381.647C133.661 382.094 133.049 382.304 132.655 382.784C131.944 383.598 132.122 384.821 132.095 385.905C132.119 386.282 132.012 386.655 131.793 386.963C131.589 387.135 131.344 387.253 131.081 387.305C130.819 387.357 130.548 387.341 130.293 387.258C129.786 387.086 129.249 387.014 128.714 387.048C128.143 387.212 127.645 387.564 127.3 388.047C125.517 390.11 124.78 392.456 123.958 395.018Z" fill="#2D293D"/>
<path opacity="0.1" d="M125.82 402.391C125.82 402.391 110.689 403.804 109.439 401.491L125.82 402.391Z" fill="black"/>
<path opacity="0.1" d="M96.8286 402.051C96.8286 402.051 88.4674 401.742 86.5137 404.798L96.8286 402.051Z" fill="black"/>
<g opacity="0.1">
<path opacity="0.1" d="M108.992 393.271C109.424 393.786 109.978 394.186 110.603 394.434C113.939 395.978 117.767 395.958 121.445 395.873C121.838 395.897 122.231 395.825 122.589 395.662C123.114 395.281 123.474 394.715 123.596 394.079C124.405 391.51 125.155 389.17 126.938 387.081C127.282 386.596 127.78 386.241 128.352 386.076C128.887 386.045 129.423 386.116 129.931 386.286C130.185 386.37 130.457 386.387 130.72 386.335C130.982 386.283 131.227 386.165 131.431 385.99C131.651 385.686 131.758 385.314 131.733 384.939C131.733 383.855 131.582 382.633 132.292 381.811C132.687 381.358 133.299 381.154 133.707 380.681C133.971 380.346 134.141 379.946 134.198 379.523C134.255 379.1 134.196 378.669 134.029 378.276C134.634 379.321 134.864 380.642 134.075 381.502C133.667 381.949 133.062 382.159 132.661 382.639C131.95 383.454 132.134 384.676 132.108 385.76C132.133 386.138 132.023 386.513 131.799 386.818C131.595 386.991 131.35 387.109 131.088 387.161C130.825 387.213 130.554 387.197 130.299 387.114C129.794 386.941 129.26 386.87 128.727 386.904C128.153 387.068 127.652 387.422 127.306 387.909C125.53 389.992 124.78 392.338 123.964 394.9C123.953 395.163 123.887 395.421 123.77 395.657C123.654 395.893 123.49 396.102 123.288 396.271C123.086 396.44 122.852 396.566 122.599 396.64C122.346 396.714 122.081 396.734 121.82 396.701C118.142 396.786 114.314 396.799 110.972 395.255C110.348 395.006 109.795 394.609 109.36 394.099C109.143 393.799 108.98 393.463 108.88 393.106C108.913 393.164 108.95 393.219 108.992 393.271Z" fill="black"/>
<path opacity="0.1" d="M133.082 376.653C132.919 376.463 132.802 376.238 132.74 375.996C132.694 375.735 132.694 375.468 132.74 375.207C132.899 373.737 132.765 372.25 132.345 370.831L132.411 370.759C133.068 372.429 133.31 374.232 133.115 376.016C133.085 376.227 133.074 376.44 133.082 376.653Z" fill="black"/>
</g>
<path d="M479.761 457.672C479.761 457.672 483.662 462.765 477.958 470.459C472.255 478.153 467.558 484.645 469.459 489.442C469.459 489.442 478.057 475.157 485.063 474.986C492.069 474.815 487.464 466.26 479.761 457.672Z" fill="url(#paint9_linear)"/>
<path opacity="0.1" d="M479.76 457.672C480.1 458.164 480.368 458.702 480.556 459.269C487.391 467.285 491.029 474.769 484.464 474.953C478.346 475.131 471.004 486.058 469.248 488.811C469.303 489.035 469.374 489.254 469.459 489.468C469.459 489.468 478.056 475.183 485.062 475.012C492.068 474.842 487.464 466.26 479.76 457.672Z" fill="black"/>
<path d="M487.01 464.164C487.01 465.958 486.813 467.41 486.563 467.41C486.313 467.41 486.115 465.958 486.115 464.164C486.115 462.37 486.365 463.218 486.615 463.218C486.865 463.218 487.01 462.37 487.01 464.164Z" fill="#FA8742"/>
<path d="M489.503 466.306C487.924 467.16 486.549 467.68 486.431 467.463C486.313 467.246 487.497 466.372 489.062 465.491C490.628 464.611 490.016 465.255 490.135 465.491C490.253 465.728 491.075 465.445 489.503 466.306Z" fill="#FA8742"/>
<path d="M459.157 457.672C459.157 457.672 455.256 462.765 460.953 470.459C466.65 478.153 471.36 484.645 469.459 489.442C469.459 489.442 460.854 475.157 453.855 474.986C446.855 474.815 451.454 466.26 459.157 457.672Z" fill="url(#paint10_linear)"/>
<path opacity="0.1" d="M459.157 457.672C458.813 458.163 458.543 458.701 458.354 459.269C451.526 467.285 447.888 474.769 454.453 474.953C460.571 475.131 467.906 486.058 469.663 488.811C469.61 489.035 469.542 489.254 469.459 489.468C469.459 489.468 460.854 475.183 453.855 475.012C446.855 474.842 451.454 466.26 459.157 457.672Z" fill="black"/>
<path d="M451.901 464.164C451.901 465.958 452.105 467.41 452.355 467.41C452.605 467.41 452.803 465.958 452.803 464.164C452.803 462.37 452.553 463.231 452.309 463.231C452.066 463.231 451.901 462.37 451.901 464.164Z" fill="#FA8742"/>
<path d="M449.414 466.306C450.993 467.16 452.368 467.68 452.486 467.463C452.605 467.246 451.421 466.372 449.855 465.491C448.289 464.611 448.901 465.255 448.783 465.491C448.664 465.728 447.835 465.445 449.414 466.306Z" fill="#FA8742"/>
<path opacity="0.1" d="M469.459 528.413C491.985 528.413 510.245 525.616 510.245 522.164C510.245 518.713 491.985 515.916 469.459 515.916C446.934 515.916 428.673 518.713 428.673 522.164C428.673 525.616 446.934 528.413 469.459 528.413Z" fill="url(#paint11_linear)"/>
<path d="M490.464 482.575L490.266 484.166L489.996 486.413L489.878 487.352L489.608 489.6L489.49 490.539L489.214 492.78L486.095 518.34C485.813 520.62 482.083 522.401 477.544 522.401H461.348C456.841 522.401 453.118 520.62 452.842 518.34L449.71 492.8L449.441 490.559L449.322 489.619L449.046 487.372L448.934 486.432L448.658 484.185L448.461 482.595C448.309 481.281 450.329 480.216 452.875 480.216H486.043C488.589 480.197 490.608 481.281 490.464 482.575Z" fill="#C3E0F0"/>
<path d="M490.254 484.166L489.984 486.413H448.935L448.659 484.166H490.254Z" fill="url(#paint12_linear)"/>
<path d="M489.865 487.346L489.595 489.593H449.322L449.046 487.346H489.865Z" fill="url(#paint13_linear)"/>
<path d="M489.477 490.533L489.2 492.78H449.711L449.441 490.533H489.477Z" fill="url(#paint14_linear)"/>
</g>
<defs>
<linearGradient id="paint0_linear" x1="211.249" y1="43.2516" x2="334.14" y2="156.739" gradientUnits="userSpaceOnUse">
<stop stop-color="#6AB0D8"/>
<stop offset="1" stop-color="#6AB0D8" stop-opacity="0"/>
</linearGradient>
<linearGradient id="paint1_linear" x1="617.914" y1="178.953" x2="709.085" y2="170.133" gradientUnits="userSpaceOnUse">
<stop stop-color="#5BBC74" stop-opacity="0"/>
<stop offset="1" stop-color="#28A745" stop-opacity="0.58"/>
</linearGradient>
<linearGradient id="paint2_linear" x1="672.302" y1="115.72" x2="707.863" y2="194.202" gradientUnits="userSpaceOnUse">
<stop stop-color="#6AB0D8"/>
<stop offset="1" stop-color="#6AB0D8" stop-opacity="0"/>
</linearGradient>
<linearGradient id="paint3_linear" x1="210.73" y1="39.7519" x2="317.513" y2="288.33" gradientUnits="userSpaceOnUse">
<stop stop-color="#419FD4"/>
<stop offset="1" stop-color="#419FD4" stop-opacity="0"/>
</linearGradient>
<linearGradient id="paint4_linear" x1="362.771" y1="476.359" x2="362.771" y2="122.634" gradientUnits="userSpaceOnUse">
<stop stop-color="#808080" stop-opacity="0.25"/>
<stop offset="0.54" stop-color="#808080" stop-opacity="0.12"/>
<stop offset="1" stop-color="#808080" stop-opacity="0.1"/>
</linearGradient>
<linearGradient id="paint5_linear" x1="363" y1="274" x2="363" y2="465" gradientUnits="userSpaceOnUse">
<stop stop-color="white" stop-opacity="0"/>
<stop offset="0.859375" stop-color="white"/>
</linearGradient>
<linearGradient id="paint6_linear" x1="643.895" y1="556.848" x2="646.971" y2="575.882" gradientUnits="userSpaceOnUse">
<stop stop-color="#419FD4"/>
<stop offset="1" stop-color="#419FD4" stop-opacity="0"/>
</linearGradient>
<linearGradient id="paint7_linear" x1="134758" y1="218487" x2="134758" y2="119751" gradientUnits="userSpaceOnUse">
<stop stop-color="#808080" stop-opacity="0.25"/>
<stop offset="0.54" stop-color="#808080" stop-opacity="0.12"/>
<stop offset="1" stop-color="#808080" stop-opacity="0.1"/>
</linearGradient>
<linearGradient id="paint8_linear" x1="-112698" y1="216357" x2="-108860" y2="120301" gradientUnits="userSpaceOnUse">
<stop stop-color="#808080" stop-opacity="0.25"/>
<stop offset="0.54" stop-color="#808080" stop-opacity="0.12"/>
<stop offset="1" stop-color="#808080" stop-opacity="0.1"/>
</linearGradient>
<linearGradient id="paint9_linear" x1="469.03" y1="459.838" x2="487.85" y2="487.86" gradientUnits="userSpaceOnUse">
<stop stop-color="#FA8742" stop-opacity="0.32"/>
<stop offset="1" stop-color="#FF6464"/>
</linearGradient>
<linearGradient id="paint10_linear" x1="450.403" y1="459.838" x2="469.225" y2="487.856" gradientUnits="userSpaceOnUse">
<stop stop-color="#FA8742" stop-opacity="0.32"/>
<stop offset="1" stop-color="#FF6464"/>
</linearGradient>
<linearGradient id="paint11_linear" x1="451.148" y1="516.319" x2="451.894" y2="523.754" gradientUnits="userSpaceOnUse">
<stop stop-color="#419FD4"/>
<stop offset="1" stop-color="#419FD4" stop-opacity="0"/>
</linearGradient>
<linearGradient id="paint12_linear" x1="460.143" y1="484.462" x2="460.317" y2="487.463" gradientUnits="userSpaceOnUse">
<stop stop-color="#6AB0D8"/>
<stop offset="1" stop-color="#6AB0D8" stop-opacity="0"/>
</linearGradient>
<linearGradient id="paint13_linear" x1="460.316" y1="487.642" x2="460.493" y2="490.643" gradientUnits="userSpaceOnUse">
<stop stop-color="#6AB0D8"/>
<stop offset="1" stop-color="#6AB0D8" stop-opacity="0"/>
</linearGradient>
<linearGradient id="paint14_linear" x1="460.495" y1="490.829" x2="460.675" y2="493.829" gradientUnits="userSpaceOnUse">
<stop stop-color="#6AB0D8"/>
<stop offset="1" stop-color="#6AB0D8" stop-opacity="0"/>
</linearGradient>
<clipPath id="clip0">
<rect width="752" height="592" fill="white"/>
</clipPath>
</defs>
</svg>
