<svg width="18" height="18" viewBox="0 0 18 18" fill="none" xmlns="http://www.w3.org/2000/svg">
<path d="M11.0522 15.7296V16.2556C11.0522 16.6741 10.7448 17.0222 10.3448 17.0815L10.2151 17.5593C10.1448 17.8185 9.91143 18 9.64106 18H8.35588C8.0855 18 7.85217 17.8185 7.7818 17.5593L7.65587 17.0815C7.25217 17.0185 6.94476 16.6741 6.94476 16.2519V15.7259C6.94476 15.4444 7.17069 15.2185 7.45217 15.2185H10.5448C10.8262 15.2222 11.0522 15.4481 11.0522 15.7296ZM13.4337 8.64074C13.4337 9.83704 12.9596 10.9222 12.1892 11.7185C11.604 12.3259 11.2262 13.1 11.1003 13.9259C11.0448 14.2815 10.7374 14.5444 10.3744 14.5444H7.62254C7.26328 14.5444 6.95217 14.2852 6.90032 13.9296C6.77069 13.1037 6.38921 12.3185 5.80402 11.7148C5.04847 10.9296 4.5781 9.86296 4.56699 8.68889C4.54106 6.22222 6.50402 4.22593 8.97069 4.20741C11.4337 4.18889 13.4337 6.18148 13.4337 8.64074ZM9.50032 5.95556C9.50032 5.68148 9.2781 5.45556 9.00032 5.45556C7.23736 5.45556 5.80032 6.88889 5.80032 8.65556C5.80032 8.92963 6.02254 9.15556 6.30032 9.15556C6.57439 9.15556 6.80032 8.93333 6.80032 8.65556C6.80032 7.44074 7.78921 6.45556 9.00032 6.45556C9.2781 6.45556 9.50032 6.23333 9.50032 5.95556ZM9.00032 2.75185C9.27439 2.75185 9.50032 2.52963 9.50032 2.25185V0.5C9.50032 0.225926 9.2781 0 9.00032 0C8.72254 0 8.50032 0.222222 8.50032 0.5V2.25185C8.50032 2.52963 8.72624 2.75185 9.00032 2.75185ZM3.11513 8.63704C3.11513 8.36296 2.89291 8.13704 2.61513 8.13704H0.863281C0.589207 8.13704 0.363281 8.35926 0.363281 8.63704C0.363281 8.91111 0.585503 9.13704 0.863281 9.13704H2.61513C2.89291 9.13704 3.11513 8.91481 3.11513 8.63704ZM17.1374 8.13704H15.3855C15.1114 8.13704 14.8855 8.35926 14.8855 8.63704C14.8855 8.91111 15.1077 9.13704 15.3855 9.13704H17.1374C17.4114 9.13704 17.6374 8.91481 17.6374 8.63704C17.6374 8.36296 17.4151 8.13704 17.1374 8.13704ZM4.13365 12.8L2.89291 14.0407C2.69661 14.237 2.69661 14.5519 2.89291 14.7481C2.98921 14.8444 3.11884 14.8926 3.24476 14.8926C3.37069 14.8926 3.50032 14.8444 3.59661 14.7481L4.83736 13.5074C5.03365 13.3111 5.03365 12.9963 4.83736 12.8C4.64476 12.6037 4.32624 12.6037 4.13365 12.8ZM13.5151 4.62222C13.6411 4.62222 13.7707 4.57407 13.867 4.47778L15.1077 3.23704C15.304 3.04074 15.304 2.72593 15.1077 2.52963C14.9114 2.33333 14.5966 2.33333 14.4003 2.52963L13.1596 3.77037C12.9633 3.96667 12.9633 4.28148 13.1596 4.47778C13.2596 4.57407 13.3855 4.62222 13.5151 4.62222ZM4.13365 4.47407C4.22995 4.57037 4.35958 4.61852 4.4855 4.61852C4.61143 4.61852 4.74106 4.57037 4.83736 4.47407C5.03365 4.27778 5.03365 3.96296 4.83736 3.76667L3.59661 2.52593C3.40032 2.32963 3.0855 2.32963 2.88921 2.52593C2.69291 2.72222 2.69291 3.03704 2.88921 3.23333L4.13365 4.47407ZM13.867 12.8C13.6707 12.6037 13.3559 12.6037 13.1596 12.8C12.9633 12.9963 12.9633 13.3111 13.1596 13.5074L14.4003 14.7481C14.4966 14.8444 14.6262 14.8926 14.7522 14.8926C14.8781 14.8926 15.0077 14.8444 15.104 14.7481C15.3003 14.5519 15.3003 14.237 15.104 14.0407L13.867 12.8Z" fill="#535461"/>
</svg>
