<svg width="16" height="16" viewBox="0 0 16 16" fill="none" xmlns="http://www.w3.org/2000/svg">
<path d="M15.6853 7.44095L13.1158 6.15628L15.6853 4.87148C16.1449 4.64174 16.1454 3.98354 15.6853 3.75343L8.31026 0.0659183C8.13424 -0.0219728 7.9272 -0.0219728 7.75118 0.0659183L0.376131 3.75343C-0.0834663 3.98329 -0.0839545 4.6415 0.376131 4.87148L2.94561 6.15628L0.376131 7.44095C-0.0834663 7.67081 -0.0839545 8.32889 0.376131 8.559L2.94561 9.84379L0.376131 11.1285C-0.0834663 11.3583 -0.0839545 12.0164 0.376131 12.2465L7.75118 15.934C7.92684 16.0218 8.13387 16.0222 8.31026 15.934L15.6853 12.2465C16.1449 12.0167 16.1454 11.3586 15.6853 11.1285L13.1158 9.84379L15.6853 8.559C16.1449 8.32926 16.1454 7.67105 15.6853 7.44095ZM8.03072 1.32374L14.0082 4.31252L8.03072 7.30118L2.05327 4.31252L8.03072 1.32374ZM14.0082 11.6876L8.03072 14.6762L2.05327 11.6876L4.3432 10.5425L7.75118 12.2465C7.92696 12.3343 8.13387 12.3346 8.31026 12.2465L11.7182 10.5425L14.0082 11.6876ZM8.03072 10.9887L2.05327 8.00004L4.3432 6.85501L7.75118 8.559C7.92696 8.64677 8.13387 8.64713 8.31026 8.559L11.7182 6.85501L14.0082 8.00004L8.03072 10.9887Z" fill="white"/>
</svg>
