<svg width="100" height="100" viewBox="0 0 100 100" fill="none" xmlns="http://www.w3.org/2000/svg">
<g clip-path="url(#clip0)">
<path d="M16.6665 13.3334V21.5H99.9998V13.3334C99.9998 10.5 97.8332 8.33337 94.9998 8.33337H21.6665C18.8332 8.33337 16.6665 10.5 16.6665 13.3334ZM23.1665 16.6667C22.1665 16.6667 21.3332 15.8334 21.3332 14.8334C21.3332 13.8334 22.1665 13 23.1665 13C24.1665 13 24.9998 13.8334 24.9998 14.8334C24.9998 15.8334 24.1665 16.6667 23.1665 16.6667ZM29.6665 16.6667C28.6665 16.6667 27.8332 15.8334 27.8332 14.8334C27.8332 13.8334 28.6665 13 29.6665 13C30.6665 13 31.4998 13.8334 31.4998 14.8334C31.4998 15.8334 30.6665 16.6667 29.6665 16.6667ZM36.1665 16.6667C35.1665 16.6667 34.3332 15.8334 34.3332 14.8334C34.3332 13.8334 35.1665 13 36.1665 13C37.1665 13 37.9998 13.8334 37.9998 14.8334C37.9998 15.8334 37.1665 16.6667 36.1665 16.6667Z" fill="url(#paint0_linear)"/>
<path d="M99.9998 23.1667H16.6665V53.6667H99.9998V23.1667Z" fill="url(#paint1_linear)"/>
<path d="M59.1665 55.3334V91.6667H94.9998C97.8332 91.6667 99.9998 89.5 99.9998 86.6667V55.3334H59.1665Z" fill="url(#paint2_linear)"/>
<path d="M57.4998 55.3334H16.6665V86.6667C16.6665 89.5 18.8332 91.6667 21.6665 91.6667H57.4998V55.3334Z" fill="url(#paint3_linear)"/>
<path d="M45.667 70.6667H18.0003C17.5003 70.6667 17.167 70.3334 17.167 69.8334C17.167 69.3334 17.5003 69.0001 18.0003 69.0001H45.667C46.167 69.0001 46.5003 69.3334 46.5003 69.8334C46.5003 70.3334 46.167 70.6667 45.667 70.6667Z" fill="#6AB0D8"/>
<path d="M8.66667 70.6667H2.33333C1.83333 70.6667 1.5 70.3334 1.5 69.8334C1.5 69.3334 1.83333 69.0001 2.33333 69.0001H8.66667C9.16667 69.0001 9.5 69.3334 9.5 69.8334C9.5 70.3334 9.16667 70.6667 8.66667 70.6667Z" fill="#6AB0D8"/>
<path d="M13.333 75.5001C10.333 75.5001 7.83301 73.0001 7.83301 70.0001C7.83301 67.0001 10.333 64.5001 13.333 64.5001C16.333 64.5001 18.833 67.0001 18.833 70.0001C18.833 73.0001 16.333 75.5001 13.333 75.5001ZM13.333 66.1667C11.1663 66.1667 9.49967 67.8334 9.49967 70.0001C9.49967 72.1667 11.1663 73.8334 13.333 73.8334C15.4997 73.8334 17.1663 72.1667 17.1663 70.0001C17.1663 67.8334 15.4997 66.1667 13.333 66.1667Z" fill="#6AB0D8"/>
<path d="M45.6668 55.3334H39.6668C39.1668 55.3334 38.8335 55 38.8335 54.5C38.8335 54 39.1668 53.6667 39.6668 53.6667H45.6668C46.1668 53.6667 46.5002 54 46.5002 54.5C46.5002 55 46.1668 55.3334 45.6668 55.3334Z" fill="#6AB0D8"/>
<path d="M30.5 55.3334H2.33333C1.83333 55.3334 1.5 55 1.5 54.5C1.5 54 1.83333 53.6667 2.33333 53.6667H30.5C31 53.6667 31.3333 54 31.3333 54.5C31.3333 55 31 55.3334 30.5 55.3334Z" fill="#6AB0D8"/>
<path d="M35.1665 60.0001C32.1665 60.0001 29.6665 57.5001 29.6665 54.5001C29.6665 51.5001 32.1665 49.0001 35.1665 49.0001C38.1665 49.0001 40.6665 51.5001 40.6665 54.5001C40.6665 57.5001 38.1665 60.0001 35.1665 60.0001ZM35.1665 50.6667C32.9998 50.6667 31.3332 52.3334 31.3332 54.5001C31.3332 56.6667 32.9998 58.3334 35.1665 58.3334C37.3332 58.3334 38.9998 56.6667 38.9998 54.5001C38.9998 52.3334 37.1665 50.6667 35.1665 50.6667Z" fill="#6AB0D8"/>
<path d="M27.333 90.8334C24.333 90.8334 21.833 88.3334 21.833 85.3334C21.833 82.3334 24.333 79.8334 27.333 79.8334C30.333 79.8334 32.833 82.3334 32.833 85.3334C32.833 88.3334 30.333 90.8334 27.333 90.8334ZM27.333 81.5C25.1663 81.5 23.4997 83.1667 23.4997 85.3334C23.4997 87.5 25.1663 89.1667 27.333 89.1667C29.4997 89.1667 31.1663 87.5 31.1663 85.3334C31.1663 83.1667 29.4997 81.5 27.333 81.5Z" fill="#6AB0D8"/>
<path d="M45.667 86.1667H32.0003C31.5003 86.1667 31.167 85.8334 31.167 85.3334C31.167 84.8334 31.5003 84.5001 32.0003 84.5001H45.667C46.167 84.5001 46.5003 84.8334 46.5003 85.3334C46.5003 85.8334 46.167 86.1667 45.667 86.1667Z" fill="#6AB0D8"/>
<path d="M22.6667 86.1667H2.33333C1.83333 86.1667 1.5 85.8334 1.5 85.3334C1.5 84.8334 1.83333 84.5001 2.33333 84.5001H22.6667C23.1667 84.5001 23.5 84.8334 23.5 85.3334C23.5 85.8334 23.1667 86.1667 22.6667 86.1667Z" fill="#6AB0D8"/>
</g>
<defs>
<linearGradient id="paint0_linear" x1="1.57117" y1="72.5535" x2="82.4045" y2="-7.44645" gradientUnits="userSpaceOnUse">
<stop stop-color="#81D4FA" stop-opacity="0"/>
<stop offset="1" stop-color="#81D4FA" stop-opacity="0.8"/>
</linearGradient>
<linearGradient id="paint1_linear" x1="12.5837" y1="83.6807" x2="93.417" y2="3.6807" gradientUnits="userSpaceOnUse">
<stop stop-color="#81D4FA" stop-opacity="0"/>
<stop offset="1" stop-color="#81D4FA" stop-opacity="0.8"/>
</linearGradient>
<linearGradient id="paint2_linear" x1="39.9092" y1="111.291" x2="120.743" y2="31.2909" gradientUnits="userSpaceOnUse">
<stop stop-color="#81D4FA" stop-opacity="0"/>
<stop offset="1" stop-color="#81D4FA" stop-opacity="0.8"/>
</linearGradient>
<linearGradient id="paint3_linear" x1="19.6067" y1="90.7769" x2="100.44" y2="10.7769" gradientUnits="userSpaceOnUse">
<stop stop-color="#81D4FA" stop-opacity="0"/>
<stop offset="1" stop-color="#81D4FA" stop-opacity="0.8"/>
</linearGradient>
<clipPath id="clip0">
<rect width="100" height="83.3333" fill="white" transform="translate(0 8.33337)"/>
</clipPath>
</defs>
</svg>
