<svg width="100" height="100" viewBox="0 0 100 100" fill="none" xmlns="http://www.w3.org/2000/svg">
<g clip-path="url(#clip0)">
<path d="M61.1663 90.3333L57.333 91.6666L53.6663 90.3333C33.333 82.8333 19.833 65 19.833 45.1666V22L57.333 8.33331L94.833 22V45C94.833 65 81.4997 82.8333 61.1663 90.3333Z" fill="url(#paint0_linear)"/>
<path d="M23.4998 66.1667C17.4998 66.1667 12.6665 61.3333 12.6665 55.3333C12.6665 49.3333 17.4998 44.5 23.4998 44.5C29.4998 44.5 34.3332 49.3333 34.3332 55.3333C34.3332 61.3333 29.4998 66.1667 23.4998 66.1667ZM23.4998 46.1667C18.4998 46.1667 14.3332 50.3333 14.3332 55.3333C14.3332 60.3333 18.4998 64.5 23.4998 64.5C28.4998 64.5 32.6665 60.3333 32.6665 55.3333C32.6665 50.3333 28.6665 46.1667 23.4998 46.1667Z" fill="#6AB0D8"/>
<path d="M42.0002 91.1667C41.5002 91.1667 41.1668 90.8334 41.1668 90.3334C41.1668 80.6667 33.3335 72.6667 23.5002 72.6667C13.6668 72.6667 6.00016 80.5001 6.00016 90.3334C6.00016 90.8334 5.66683 91.1667 5.16683 91.1667C4.66683 91.1667 4.3335 90.8334 4.3335 90.3334C4.3335 79.6667 13.0002 71.0001 23.6668 71.0001C34.3335 71.0001 43.0002 79.6667 43.0002 90.3334C42.8335 90.8334 42.5002 91.1667 42.0002 91.1667Z" fill="#6AB0D8"/>
</g>
<defs>
<linearGradient id="paint0_linear" x1="28.2215" y1="72.1523" x2="86.6048" y2="13.769" gradientUnits="userSpaceOnUse">
<stop stop-color="#81D4FA" stop-opacity="0"/>
<stop offset="1" stop-color="#81D4FA" stop-opacity="0.8"/>
</linearGradient>
<clipPath id="clip0">
<rect width="100" height="83.3333" fill="white" transform="translate(0 8.33331)"/>
</clipPath>
</defs>
</svg>
