<svg width="100" height="100" viewBox="0 0 100 100" fill="none" xmlns="http://www.w3.org/2000/svg">
<g clip-path="url(#clip0)">
<g clip-path="url(#clip1)">
<path d="M106.667 50.4111H31.4668V72.2778H106.667V50.4111Z" fill="url(#paint0_linear)"/>
<path d="M106.667 24.9888H31.4668V48.6333H106.667V24.9888Z" fill="url(#paint1_linear)"/>
<path d="M31.4667 74.0555V97.1666H29.6889V24.9888H17.7778V98.0555H106.667V74.0555H31.4667Z" fill="url(#paint2_linear)"/>
<path d="M106.667 9.16669H17.7783V23.2111H106.667V9.16669Z" fill="url(#paint3_linear)"/>
<path d="M12.7993 78.5C8.53261 78.5 4.97705 75.8334 4.97705 72.4556C4.97705 71.9223 5.33261 71.3889 5.86594 71.3889C6.39927 71.3889 6.75483 71.7445 6.75483 72.2778C6.75483 74.5889 9.42149 76.5445 12.7993 76.5445C16.177 76.5445 18.8437 74.5889 18.8437 72.2778C18.8437 71.2111 18.8437 68.3667 12.6215 67.4778C9.06594 66.9445 4.97705 65.8778 4.97705 60.9C4.97705 57.5223 8.53261 54.8556 12.7993 54.8556C17.0659 54.8556 20.6215 57.5223 20.6215 60.9C20.6215 61.4334 20.2659 61.7889 19.7326 61.7889C19.1993 61.7889 18.8437 61.4334 18.8437 60.9C18.8437 58.5889 16.177 56.6334 12.7993 56.6334C9.42149 56.6334 6.75483 58.5889 6.75483 60.9C6.75483 63.7445 8.53261 65.1667 12.9771 65.7C19.377 66.5889 20.6215 69.7889 20.6215 72.2778C20.6215 75.6556 17.0659 78.5 12.7993 78.5Z" fill="#FA8742"/>
<path d="M12.8005 56.4556C12.2672 56.4556 11.9116 56.1 11.9116 55.5667V50.7667C11.9116 50.2334 12.2672 49.8778 12.8005 49.8778C13.3338 49.8778 13.6894 50.2334 13.6894 50.7667V55.5667C13.6894 56.1 13.1561 56.4556 12.8005 56.4556Z" fill="#FA8742"/>
<path d="M12.8005 83.4778C12.2672 83.4778 11.9116 83.1222 11.9116 82.5889V77.6111C11.9116 77.0778 12.2672 76.7222 12.8005 76.7222C13.3338 76.7222 13.6894 77.0778 13.6894 77.6111V82.5889C13.6894 83.1222 13.1561 83.4778 12.8005 83.4778Z" fill="#FA8742"/>
<path d="M49.2444 63.2112C48.8889 63.2112 48.7111 63.0334 48.5333 62.8556L41.9555 53.2556L35.3777 62.8556C35.0222 63.2112 34.4889 63.389 34.1333 63.0334C33.7777 62.6778 33.6 62.1445 33.9555 61.789L41.2444 51.1223C41.6 50.589 42.3111 50.589 42.6666 51.1223L49.9555 61.789C50.3111 62.1445 50.1333 62.6778 49.7777 63.0334C49.6 63.2112 49.4222 63.2112 49.2444 63.2112Z" fill="#FA8742"/>
<path d="M3.55539 96.9889C3.02206 96.9889 2.6665 96.6333 2.6665 96.1C2.6665 95.5667 3.02206 95.2111 3.55539 95.2111C24.1776 95.2111 41.0665 78.3222 41.0665 57.7V51.6556C41.0665 51.1222 41.4221 50.7667 41.9554 50.7667C42.4887 50.7667 42.8443 51.1222 42.8443 51.6556V57.7C42.8443 79.3889 25.0665 96.9889 3.55539 96.9889Z" fill="#FA8742"/>
</g>
</g>
<defs>
<linearGradient id="paint0_linear" x1="12.9392" y1="111.925" x2="95.8758" y2="24.4653" gradientUnits="userSpaceOnUse">
<stop offset="0.151547" stop-color="#FA8742" stop-opacity="0"/>
<stop offset="1" stop-color="#FA8742"/>
</linearGradient>
<linearGradient id="paint1_linear" x1="12.9392" y1="91.5038" x2="102.717" y2="3.94831" gradientUnits="userSpaceOnUse">
<stop offset="0.151547" stop-color="#FA8742" stop-opacity="0"/>
<stop offset="1" stop-color="#FA8742"/>
</linearGradient>
<linearGradient id="paint2_linear" x1="17.4999" y1="98.3333" x2="123.936" y2="78.6606" gradientUnits="userSpaceOnUse">
<stop offset="0.0616986" stop-color="#FA8742" stop-opacity="0"/>
<stop offset="1" stop-color="#FA8742"/>
</linearGradient>
<linearGradient id="paint3_linear" x1="33.7504" y1="32.0834" x2="60.7445" y2="-23.4016" gradientUnits="userSpaceOnUse">
<stop offset="0.0616986" stop-color="#FA8742" stop-opacity="0"/>
<stop offset="1" stop-color="#FA8742"/>
</linearGradient>
<clipPath id="clip0">
<rect width="100" height="100" fill="white"/>
</clipPath>
<clipPath id="clip1">
<rect width="106.667" height="88.8889" fill="white" transform="translate(0 9.16669)"/>
</clipPath>
</defs>
</svg>
