<svg width="100" height="100" viewBox="0 0 100 100" fill="none" xmlns="http://www.w3.org/2000/svg">
<g clip-path="url(#clip0)">
<path d="M58.3331 10L70.1664 34L96.4997 37.8333C98.9997 38.1667 99.9997 41.3333 98.1664 43.1667L79.1664 61.6667L83.6664 88C84.1664 90.5 81.4997 92.5 79.1664 91.3333L55.4997 78.8333L31.8331 91.3333C29.4997 92.5 26.8331 90.6667 27.3331 88L31.9997 61.6667L12.8331 43.1667C10.9997 41.3333 11.9997 38.3333 14.4997 37.8333L40.8331 34L52.8331 10C53.8331 7.83333 57.1664 7.83333 58.3331 10Z" fill="url(#paint0_linear)"/>
<path d="M18.5835 69.4166L13.5835 64.25C13.2502 63.9166 13.2502 63.4166 13.5835 63.0833C13.9168 62.75 14.4168 62.75 14.7502 63.0833L18.4168 67.0833L26.9168 58.5833C27.2502 58.25 27.7502 58.25 28.0835 58.5833C28.4168 58.9166 28.4168 59.4166 28.0835 59.75L18.5835 69.4166Z" fill="#28A745"/>
<path d="M28.6665 91.3333L20.1665 87.1666L11.6665 91.3333V79.1666C11.6665 78.6666 11.9998 78.3333 12.4998 78.3333C12.9998 78.3333 13.3332 78.6666 13.3332 79.1666V88.6666L20.1665 85.3333L26.9998 88.6666V79.1666C26.9998 78.6666 27.3332 78.3333 27.8332 78.3333C28.3332 78.3333 28.6665 78.6666 28.6665 79.1666V91.3333Z" fill="#28A745"/>
<path d="M20.1665 81.8333C10.1665 81.8333 2.1665 73.8333 2.1665 63.8333C2.1665 53.8333 10.1665 45.8333 20.1665 45.8333C30.1665 45.8333 38.1665 53.8333 38.1665 63.8333C38.1665 73.6666 30.1665 81.8333 20.1665 81.8333ZM20.1665 47.5C11.1665 47.5 3.83317 54.8333 3.83317 63.8333C3.83317 72.8333 11.1665 80.1666 20.1665 80.1666C29.1665 80.1666 36.4998 72.8333 36.4998 63.8333C36.4998 54.8333 29.1665 47.5 20.1665 47.5Z" fill="#28A745"/>
</g>
<defs>
<linearGradient id="paint0_linear" x1="25.0316" y1="87.4923" x2="79" y2="32.5" gradientUnits="userSpaceOnUse">
<stop stop-color="#5BBC74" stop-opacity="0"/>
<stop offset="1" stop-color="#28A745" stop-opacity="0.58"/>
</linearGradient>
<clipPath id="clip0">
<rect width="100" height="83.3333" fill="white" transform="translate(0 8.33331)"/>
</clipPath>
</defs>
</svg>
