<svg width="100" height="100" viewBox="0 0 100 100" fill="none" xmlns="http://www.w3.org/2000/svg">
<path d="M57.8569 13.7143C38.1426 13.7143 22.1426 29.7143 22.1426 49.4286C22.1426 69.1429 38.1426 85.1429 57.8569 85.1429C77.5712 85.1429 93.5712 69.1429 93.5712 49.4286C93.5712 29.7143 77.714 13.7143 57.8569 13.7143ZM57.8569 69C46.9997 69 38.2854 60.2857 38.2854 49.4286C38.2854 38.5714 46.9997 29.8571 57.8569 29.8571C68.714 29.8571 77.4283 38.5714 77.4283 49.4286C77.4283 60.2857 68.714 69 57.8569 69Z" fill="url(#paint0_linear)"/>
<path d="M57.8569 59.4286C63.3798 59.4286 67.8569 54.9514 67.8569 49.4286C67.8569 43.9057 63.3798 39.4286 57.8569 39.4286C52.3341 39.4286 47.8569 43.9057 47.8569 49.4286C47.8569 54.9514 52.3341 59.4286 57.8569 59.4286Z" fill="url(#paint1_linear)"/>
<path d="M22.7144 87.1429L6.71436 70.2857L8.85721 68.2857L22.8572 83.1429L58.1429 47.4286L60.2858 49.4286L22.7144 87.1429Z" fill="#28A745"/>
<defs>
<linearGradient id="paint0_linear" x1="33.6509" y1="73.7037" x2="82.9571" y2="24.3974" gradientUnits="userSpaceOnUse">
<stop stop-color="#28A745" stop-opacity="0"/>
<stop offset="1" stop-color="#28A745" stop-opacity="0.66"/>
</linearGradient>
<linearGradient id="paint1_linear" x1="26.2891" y1="81.0657" x2="90.5486" y2="16.8062" gradientUnits="userSpaceOnUse">
<stop offset="0.0001" stop-color="#28A745" stop-opacity="0"/>
<stop offset="0.122584" stop-color="#28A745" stop-opacity="0"/>
<stop offset="1" stop-color="#28A745" stop-opacity="0.57"/>
</linearGradient>
</defs>
</svg>
