<svg width="18" height="18" viewBox="0 0 18 18" fill="none" xmlns="http://www.w3.org/2000/svg">
<g clip-path="url(#clip0)">
<path d="M2.6273 11.534C2.5254 11.7372 2.56509 11.9829 2.72562 12.1436L2.85458 12.2726C3.22715 11.831 3.66139 11.3519 4.18804 10.8254C4.22526 10.7882 4.26357 10.7702 4.30093 10.7358L3.47132 9.9061C2.98902 10.7784 2.70777 11.3744 2.6273 11.534Z" fill="#505050"/>
<path d="M7.1714 13.8084C6.64351 14.3363 6.1656 14.7714 5.72656 15.1442L5.90125 15.3189C6.06329 15.481 6.31131 15.52 6.51524 15.4151C6.78839 15.2743 7.21796 15.0721 8.12982 14.5643L7.26108 13.6956C7.22675 13.733 7.20876 13.7712 7.1714 13.8084Z" fill="#505050"/>
<path d="M6.89018 11.1072C6.50909 10.7261 5.43738 11.0678 4.93393 11.5711C3.24972 13.2553 2.48906 14.4494 2.14752 15.1544C2.0496 15.3564 2.09039 15.5983 2.24914 15.757C2.40817 15.9162 2.65042 15.9565 2.85257 15.8586C3.54182 15.524 4.72134 14.7669 6.4256 13.0627C6.97917 12.5089 7.25232 11.4695 6.89059 11.1076L6.89018 11.1072Z" fill="#505050"/>
<path d="M1.646 7.02108L0.154467 8.51261C-0.0141728 8.68125 -0.0487797 8.94231 0.0706966 9.14913C0.187289 9.3532 0.43146 9.45716 0.663821 9.39495C1.46994 9.17879 2.17925 9.08747 2.65688 9.20996C3.33638 8.00188 4.06656 6.88979 4.83986 5.8796C4.39258 5.59285 2.91451 5.75257 1.646 7.02108Z" fill="#505050"/>
<path d="M8.92595 17.9434C9.12906 18.0461 9.37501 18.0065 9.53583 17.8455L11.0275 16.354C12.1823 15.1989 12.3855 13.7086 12.1235 13.2361C10.9969 14.0852 9.85553 14.8022 8.79068 15.4024C8.86415 15.8173 8.81526 16.2198 8.64154 17.3953C8.60762 17.6229 8.72517 17.843 8.92595 17.9434Z" fill="#505050"/>
<path d="M10.4694 5.28992C9.85265 5.9068 9.85265 6.91026 10.4694 7.52715C11.0863 8.14403 12.0899 8.14403 12.7068 7.52715C13.3236 6.91026 13.3236 5.9068 12.7068 5.28992C12.0899 4.67303 11.0863 4.67303 10.4694 5.28992Z" fill="#505050"/>
<path d="M17.9691 0.514433C17.9502 0.253645 17.7425 0.0475141 17.4826 0.0280134C16.1874 -0.0694903 14.8973 0.0898115 13.6328 0.47653C13.728 1.34527 14.1773 2.28543 14.9444 3.05255C15.7208 3.82873 16.6865 4.27794 17.5707 4.36198C17.9113 3.16846 18.0728 1.8902 17.9691 0.514433Z" fill="#505050"/>
<path d="M14.1984 3.79839C13.3208 2.92085 12.785 1.86836 12.613 0.843613C9.44636 2.14233 6.41496 4.97845 4.01953 8.96265L5.20963 10.1527C6.02275 9.8226 7.00987 9.7354 7.63596 10.3613C8.26286 10.9884 8.17401 11.9751 7.84401 12.7871L9.07324 14.0164C12.1387 12.1689 15.7076 9.25818 17.2252 5.38564C16.1755 5.22702 15.0902 4.6902 14.1984 3.79839ZM13.4524 8.27298C12.4245 9.30089 10.7517 9.30089 9.72363 8.27298C8.69559 7.24493 8.69559 5.57199 9.72363 4.54408C10.7517 3.51617 12.4245 3.51617 13.4524 4.54408C14.4804 5.57213 14.4804 7.24493 13.4524 8.27298Z" fill="#505050"/>
</g>
<defs>
<clipPath id="clip0">
<rect width="18" height="18" fill="white"/>
</clipPath>
</defs>
</svg>
