<svg width="141" height="44" viewBox="0 0 141 44" fill="none" xmlns="http://www.w3.org/2000/svg">
<path d="M31.0443 17.1399L35.5642 14.4553C37.5889 17.7936 38.3038 21.8764 37.2879 25.8796L32.1704 24.6183C32.8344 21.9979 32.3682 19.3259 31.0443 17.1399ZM14.6108 9.29139C11.5618 11.1016 9.12594 13.9538 7.94334 17.5533C7.83172 17.8942 7.74977 18.2364 7.66359 18.5786L12.7811 19.8399C12.8376 19.615 12.8913 19.3901 12.9648 19.1652C13.7391 16.8103 15.3314 14.9442 17.3264 13.7597C19.7241 12.335 22.7039 11.8964 25.5665 12.8155L27.197 7.85131C22.8254 6.44754 18.2745 7.1166 14.6108 9.29139ZM19.3893 31.6231C17.0071 30.8577 15.1195 29.2835 13.9199 27.3099L9.40004 29.9945C11.2326 33.0101 14.1163 35.4182 17.7588 36.5873C22.1261 37.9896 26.6714 37.322 30.3322 35.1542L27.6166 30.6859C25.2203 32.105 22.2462 32.5408 19.3893 31.6231ZM9.06095 10.8544C11.9532 7.52306 15.8485 5.54662 19.9318 4.95578L19.1957 0C17.5906 0.234659 15.987 0.632742 14.4088 1.22637C14.389 1.23336 14.3692 1.23755 14.3494 1.24593C12.8546 1.81302 11.4586 2.52119 10.163 3.34529C7.82748 4.83147 5.84518 6.71014 4.24577 8.84581L8.29939 11.8265C8.54524 11.4997 8.78684 11.1687 9.06095 10.8544ZM39.4921 17.3955L44.3143 16.0057C44.1857 15.5741 44.0755 15.1397 43.9201 14.7123C43.5132 13.5907 43.0384 12.4816 42.4365 11.4047C41.8346 10.3278 41.1381 9.34027 40.3963 8.40164C39.3889 7.13057 38.2671 5.98521 37.0435 4.98092C36.3271 4.39288 35.5712 3.86489 34.7956 3.37183L32.0814 7.54681C35.8213 9.92413 38.3391 13.4733 39.4921 17.3955ZM4.99744 24.8152L0 25.5401C0.0918387 26.1533 0.206284 26.7665 0.351813 27.3783C0.542555 28.1828 0.775684 28.9832 1.06109 29.7794C1.1275 29.9637 1.17271 30.1509 1.24477 30.3339C2.64778 33.9488 4.89288 36.9993 7.67206 39.3543L10.9641 35.5634C7.59435 32.7028 5.5951 28.8519 4.99744 24.8152ZM42.2303 33.506L37.8616 31.0155C37.6581 31.3633 37.4603 31.7139 37.23 32.0519C34.7461 35.6975 31.1022 38.1098 27.1108 39.1643L28.4234 44C30.0143 43.5768 31.5854 42.9915 33.1057 42.2037C37.076 40.1449 40.1547 37.0831 42.2303 33.506ZM29.6187 24.5889C28.3344 28.4999 24.0858 30.6412 20.1282 29.3715C16.1721 28.1018 14.0061 23.9017 15.2904 19.9893C16.5748 16.0769 20.8234 13.9371 24.7809 15.2068C28.7384 16.4764 30.9044 20.6779 29.6187 24.5889ZM24.5803 22.9701C24.9618 21.8107 24.3189 20.5648 23.1462 20.1877C21.9735 19.8105 20.7132 20.4461 20.3317 21.6054C19.9502 22.7647 20.5931 24.0107 21.7658 24.3878C22.9385 24.7649 24.1988 24.1308 24.5803 22.9701Z" fill="#FA8742"/>
<path d="M73.028 18.2309C73.2528 18.2309 73.437 18.2945 73.5804 18.4218C73.7238 18.5527 73.7955 18.7291 73.7955 18.9509C73.7955 18.9691 73.7703 19.0727 73.7199 19.2618L69.7838 30.3018C69.6985 30.4473 69.5861 30.5636 69.4466 30.6509C69.3109 30.7382 69.1675 30.7745 69.0164 30.76C68.8613 30.76 68.7237 30.72 68.6036 30.64C68.4834 30.56 68.3904 30.4473 68.3245 30.3018L64.9698 22.9109L61.9814 30.3018C61.9116 30.4327 61.8128 30.5418 61.6849 30.6291C61.557 30.7164 61.4252 30.76 61.2895 30.76C61.119 30.7745 60.96 30.7382 60.8128 30.6509C60.6693 30.5636 60.5724 30.4473 60.5221 30.3018L56.4813 19.2618C56.427 19.1673 56.3999 19.0636 56.3999 18.9509C56.3999 18.7436 56.4774 18.5727 56.6325 18.4382C56.7875 18.3 56.9755 18.2309 57.1964 18.2309C57.3476 18.2309 57.4871 18.2745 57.615 18.3618C57.7429 18.4527 57.834 18.5691 57.8883 18.7109L61.2895 28.2891L64.3302 21.1109C64.4504 20.8091 64.6907 20.6582 65.0512 20.6582C65.3923 20.6582 65.6307 20.8091 65.7663 21.1109L68.964 28.24L72.3129 18.7109C72.4176 18.3909 72.6559 18.2309 73.028 18.2309ZM85.6677 18.4982C85.8887 18.4982 86.0728 18.5691 86.2201 18.7109C86.3635 18.8564 86.4352 19.0327 86.4352 19.24V30.04C86.4352 30.2473 86.3635 30.42 86.2201 30.5582C86.0728 30.6927 85.8887 30.76 85.6677 30.76C85.4468 30.76 85.2627 30.6927 85.1154 30.5582C84.972 30.42 84.9003 30.2473 84.9003 30.04V28.4309C84.4739 29.1509 83.8344 29.76 82.9817 30.2582C82.1289 30.7527 81.1987 31 80.1909 31C79.0514 31 78.0242 30.72 77.1095 30.16C76.1986 29.6 75.4835 28.8327 74.9641 27.8582C74.4408 26.88 74.1792 25.7836 74.1792 24.5691C74.1792 23.3509 74.4447 22.2582 74.9757 21.2909C75.5029 20.3236 76.2238 19.5673 77.1386 19.0218C78.0494 18.48 79.0591 18.2091 80.1677 18.2091C81.1909 18.2091 82.1289 18.44 82.9817 18.9018C83.8344 19.3673 84.4739 19.9764 84.9003 20.7291V19.24C84.9003 19.0327 84.972 18.8564 85.1154 18.7109C85.2627 18.5691 85.4468 18.4982 85.6677 18.4982ZM80.3479 29.6582C81.2355 29.6582 82.032 29.4382 82.7375 28.9982C83.4468 28.5582 84.0011 27.9491 84.4003 27.1709C84.8034 26.3964 85.0049 25.5291 85.0049 24.5691C85.0049 23.6418 84.8034 22.7927 84.4003 22.0218C84.0011 21.2545 83.4468 20.6509 82.7375 20.2109C82.032 19.7709 81.2355 19.5509 80.3479 19.5509C79.4603 19.5509 78.6618 19.7673 77.9525 20.2C77.2471 20.6327 76.6928 21.2291 76.2897 21.9891C75.8905 22.7491 75.6909 23.6091 75.6909 24.5691C75.6909 25.5291 75.8866 26.3964 76.2781 27.1709C76.6696 27.9491 77.22 28.5582 77.9293 28.9982C78.6386 29.4382 79.4448 29.6582 80.3479 29.6582ZM99.2784 13C99.4993 13 99.6815 13.0673 99.8249 13.2018C99.9722 13.34 100.046 13.5127 100.046 13.72V30.04C100.046 30.2473 99.9722 30.42 99.8249 30.5582C99.6815 30.6927 99.4993 30.76 99.2784 30.76C99.0575 30.76 98.8734 30.6927 98.7261 30.5582C98.5827 30.42 98.5109 30.2473 98.5109 30.04V28.36C98.0846 29.0945 97.4489 29.7182 96.6039 30.2309C95.759 30.7436 94.8249 31 93.8016 31C92.6775 31 91.6581 30.7236 90.7434 30.1709C89.8325 29.6182 89.1135 28.8545 88.5864 27.88C88.0554 26.9055 87.7899 25.8091 87.7899 24.5909C87.7899 23.3909 88.0554 22.3036 88.5864 21.3291C89.1135 20.3509 89.8325 19.5873 90.7434 19.0382C91.6581 18.4855 92.6698 18.2091 93.7783 18.2091C94.7822 18.2091 95.7105 18.4455 96.5632 18.9182C97.416 19.3873 98.0652 19.9982 98.5109 20.7509V13.72C98.5109 13.5127 98.5827 13.34 98.7261 13.2018C98.8734 13.0673 99.0575 13 99.2784 13ZM93.9586 29.6582C94.8423 29.6582 95.6388 29.4418 96.3481 29.0091C97.0574 28.5764 97.6117 27.9727 98.0109 27.1982C98.4102 26.42 98.6098 25.5509 98.6098 24.5909C98.6098 23.6491 98.4102 22.7927 98.0109 22.0218C97.6117 21.2545 97.0574 20.6509 96.3481 20.2109C95.6388 19.7709 94.8423 19.5509 93.9586 19.5509C93.0709 19.5509 92.2725 19.7709 91.5632 20.2109C90.8577 20.6509 90.3035 21.2545 89.9004 22.0218C89.5011 22.7927 89.3015 23.6491 89.3015 24.5909C89.3015 25.5509 89.5011 26.4145 89.9004 27.1818C90.3035 27.9527 90.8577 28.5582 91.5632 28.9982C92.2725 29.4382 93.0709 29.6582 93.9586 29.6582ZM112.889 13C113.11 13 113.292 13.0673 113.436 13.2018C113.583 13.34 113.657 13.5127 113.657 13.72V30.04C113.657 30.2473 113.583 30.42 113.436 30.5582C113.292 30.6927 113.11 30.76 112.889 30.76C112.664 30.76 112.48 30.6927 112.337 30.5582C112.193 30.42 112.122 30.2473 112.122 30.04V28.36C111.695 29.0945 111.06 29.7182 110.215 30.2309C109.37 30.7436 108.436 31 107.412 31C106.288 31 105.269 30.7236 104.354 30.1709C103.443 29.6182 102.722 28.8545 102.191 27.88C101.664 26.9055 101.401 25.8091 101.401 24.5909C101.401 23.3909 101.664 22.3036 102.191 21.3291C102.722 20.3509 103.443 19.5873 104.354 19.0382C105.269 18.4855 106.28 18.2091 107.389 18.2091C108.393 18.2091 109.321 18.4455 110.174 18.9182C111.027 19.3873 111.676 19.9982 112.122 20.7509V13.72C112.122 13.5127 112.193 13.34 112.337 13.2018C112.48 13.0673 112.664 13 112.889 13ZM107.563 29.6582C108.451 29.6582 109.249 29.4418 109.959 29.0091C110.664 28.5764 111.218 27.9727 111.622 27.1982C112.021 26.42 112.22 25.5509 112.22 24.5909C112.22 23.6491 112.021 22.7927 111.622 22.0218C111.218 21.2545 110.664 20.6509 109.959 20.2109C109.249 19.7709 108.451 19.5509 107.563 19.5509C106.68 19.5509 105.883 19.7709 105.174 20.2109C104.465 20.6509 103.91 21.2545 103.511 22.0218C103.112 22.7927 102.912 23.6491 102.912 24.5909C102.912 25.5509 103.112 26.4145 103.511 27.1818C103.91 27.9527 104.465 28.5582 105.174 28.9982C105.883 29.4382 106.68 29.6582 107.563 29.6582ZM117.569 30.04C117.569 30.2473 117.496 30.42 117.348 30.5582C117.205 30.6927 117.023 30.76 116.802 30.76C116.581 30.76 116.397 30.6927 116.25 30.5582C116.106 30.42 116.034 30.2473 116.034 30.04V13.72C116.034 13.5127 116.106 13.34 116.25 13.2018C116.397 13.0673 116.581 13 116.802 13C117.023 13 117.205 13.0673 117.348 13.2018C117.496 13.34 117.569 13.5127 117.569 13.72V30.04ZM130.767 23.92C130.767 24.1127 130.692 24.2764 130.54 24.4109C130.385 24.5491 130.205 24.6182 130 24.6182H120.331C120.331 25.5782 120.54 26.4382 120.959 27.1982C121.378 27.9582 121.974 28.5582 122.75 28.9982C123.525 29.4382 124.442 29.6582 125.5 29.6582C126.318 29.6582 127.05 29.4982 127.697 29.1782C128.345 28.8582 128.866 28.4491 129.261 27.9509C129.447 27.8091 129.626 27.7382 129.796 27.7382C129.967 27.7382 130.12 27.8018 130.256 27.9291C130.391 28.0564 130.459 28.2 130.459 28.36C130.459 28.5345 130.374 28.7018 130.203 28.8618C129.661 29.4873 128.975 30 128.145 30.4C127.319 30.8 126.445 31 125.523 31C124.209 31 123.05 30.7364 122.046 30.2091C121.038 29.6818 120.253 28.9418 119.691 27.9891C119.129 27.0364 118.848 25.9364 118.848 24.6891C118.848 23.3764 119.126 22.2273 119.68 21.2418C120.234 20.26 120.971 19.5091 121.889 18.9891C122.812 18.4691 123.792 18.2091 124.831 18.2091C125.854 18.2091 126.814 18.4327 127.709 18.88C128.604 19.3273 129.335 19.9836 129.901 20.8491C130.463 21.7109 130.752 22.7345 130.767 23.92ZM124.831 19.6C123.843 19.6 122.926 19.92 122.081 20.56C121.24 21.2 120.699 22.12 120.459 23.32H129.18V23.1291C129.095 22.4091 128.839 21.78 128.413 21.2418C127.986 20.7073 127.453 20.3 126.814 20.02C126.174 19.74 125.513 19.6 124.831 19.6ZM131.407 28.8182C131.271 28.6073 131.203 28.4309 131.203 28.2891C131.203 28.0818 131.314 27.9218 131.535 27.8091C131.639 27.7109 131.777 27.6618 131.947 27.6618C132.149 27.6618 132.335 27.7418 132.506 27.9018C133.513 29.1527 134.853 29.7782 136.523 29.7782C137.341 29.7782 138.054 29.5982 138.663 29.2382C139.267 28.8782 139.57 28.3527 139.57 27.6618C139.57 26.9927 139.289 26.4891 138.727 26.1509C138.161 25.8164 137.376 25.5291 136.372 25.2891C134.957 24.9509 133.849 24.5145 133.046 23.98C132.244 23.4455 131.843 22.6582 131.843 21.6182C131.843 20.96 132.039 20.3709 132.43 19.8509C132.822 19.3309 133.354 18.9273 134.029 18.64C134.703 18.3527 135.467 18.2091 136.32 18.2091C137.052 18.2091 137.791 18.34 138.535 18.6018C139.275 18.8673 139.909 19.2873 140.436 19.8618C140.591 19.9745 140.669 20.1345 140.669 20.3418C140.669 20.5345 140.583 20.7036 140.413 20.8491C140.293 20.9436 140.139 20.9909 139.953 20.9909C139.783 20.9909 139.63 20.9273 139.494 20.8C139.083 20.3673 138.597 20.04 138.035 19.8182C137.473 19.5927 136.866 19.48 136.215 19.48C135.416 19.48 134.73 19.6564 134.157 20.0091C133.587 20.3618 133.302 20.8891 133.302 21.5909C133.337 22.2309 133.647 22.72 134.232 23.0582C134.822 23.3927 135.688 23.6964 136.831 23.9691C137.719 24.1764 138.451 24.4073 139.029 24.6618C139.61 24.92 140.085 25.28 140.453 25.7418C140.818 26.2073 141 26.8236 141 27.5909C141 28.6309 140.556 29.46 139.668 30.0782C138.785 30.6927 137.686 31 136.372 31C134.291 31 132.635 30.2727 131.407 28.8182Z" fill="#2D3338"/>
</svg>
