<svg width="238" height="274" viewBox="0 0 238 274" fill="none" xmlns="http://www.w3.org/2000/svg">
<path opacity="0.32" d="M242.525 249.449C242.525 249.449 180.36 204.16 167.738 145.395C162.603 120.713 149.599 98.3579 130.677 81.6846C121.624 73.8534 111.873 66.8671 101.545 60.8133" stroke="#FFAB76" stroke-width="2" stroke-miterlimit="10"/>
<path d="M93.3964 23.7894C98.8703 30.9401 101.896 61.7091 101.896 61.7091C101.896 61.7091 72.9558 50.8522 67.4386 43.7028C66.1288 41.9977 65.1676 40.0516 64.6099 37.9756C64.0522 35.8996 63.9089 33.7344 64.1883 31.6036C64.4676 29.4729 65.164 27.4182 66.2379 25.5571C67.3117 23.6959 68.7418 22.0647 70.4467 20.7565C72.1515 19.4483 74.0976 18.4887 76.1739 17.9326C78.2502 17.3765 80.416 17.2348 82.5477 17.5154C84.6794 17.7961 86.7351 18.4937 88.5977 19.5684C90.4602 20.6432 92.0929 22.074 93.4027 23.7791L93.3964 23.7894Z" fill="url(#paint0_linear)"/>
<path d="M145.359 47.0401C146.091 56.0458 131.875 83.473 131.875 83.473C131.875 83.473 113.454 58.6477 112.723 49.642C112.55 47.5003 112.801 45.346 113.461 43.3018C114.121 41.2576 115.178 39.3637 116.57 37.7283C117.963 36.0928 119.665 34.7478 121.578 33.77C123.491 32.7922 125.578 32.2007 127.72 32.0295C129.862 31.8582 132.018 32.1105 134.063 32.7719C136.108 33.4332 138.004 34.4907 139.641 35.884C141.277 37.2773 142.624 38.979 143.604 40.8921C144.583 42.8051 145.176 44.8921 145.349 47.0338L145.359 47.0401Z" fill="url(#paint1_linear)"/>
<path d="M196.555 115.633C192.63 123.775 166.513 140.268 166.513 140.268C166.513 140.268 163.142 109.554 167.051 101.415C168.934 97.5054 172.295 94.5046 176.393 93.073C180.491 91.6414 184.992 91.8964 188.904 93.7817C192.817 95.667 195.821 99.0284 197.256 103.126C198.691 107.224 198.439 111.723 196.555 115.633Z" fill="url(#paint2_linear)"/>
<path d="M223.612 176.242C221.075 184.905 198.167 205.605 198.167 205.605C198.167 205.605 189.675 175.918 192.14 167.21C192.732 165.145 193.725 163.216 195.063 161.535C196.4 159.854 198.056 158.453 199.936 157.412C201.816 156.371 203.882 155.71 206.018 155.468C208.153 155.225 210.316 155.406 212.383 155.999C214.449 156.592 216.379 157.586 218.061 158.924C219.744 160.262 221.147 161.919 222.189 163.798C223.232 165.678 223.894 167.744 224.138 169.88C224.382 172.015 224.203 174.176 223.612 176.242Z" fill="url(#paint3_linear)"/>
<path d="M105.695 105.779C114.677 106.833 142.607 93.6255 142.607 93.6255C142.607 93.6255 118.456 74.3272 109.475 73.2736C107.339 73.0241 105.176 73.1973 103.109 73.7836C101.041 74.3699 99.1093 75.3577 97.424 76.6904C95.7387 78.0232 94.3327 79.6749 93.2863 81.5513C92.24 83.4277 91.5737 85.492 91.3256 87.6263C91.0774 89.7607 91.2522 91.9232 91.8401 93.9906C92.428 96.058 93.4173 97.9896 94.7517 99.6753C96.086 101.361 97.7393 102.768 99.617 103.815C101.495 104.862 103.56 105.53 105.695 105.779Z" fill="url(#paint4_linear)"/>
<path d="M138.23 176.271C147.11 174.589 169.809 153.632 169.809 153.632C169.809 153.632 140.991 142.441 132.112 144.123C127.846 144.93 124.078 147.399 121.635 150.985C119.192 154.571 118.275 158.982 119.086 163.246C119.896 167.511 122.368 171.28 125.957 173.724C129.546 176.168 133.959 177.088 138.224 176.281L138.23 176.271Z" fill="url(#paint5_linear)"/>
<path d="M179.251 240.44C188.289 240.284 214.204 223.455 214.204 223.455C214.204 223.455 187.693 207.557 178.676 207.725C174.334 207.801 170.202 209.598 167.188 212.721C164.174 215.844 162.526 220.036 162.605 224.376C162.684 228.716 164.484 232.848 167.61 235.863C170.736 238.878 174.931 240.529 179.272 240.453L179.251 240.44Z" fill="url(#paint6_linear)"/>
<defs>
<linearGradient id="paint0_linear" x1="39.1187" y1="-3.37193" x2="117.066" y2="46.0118" gradientUnits="userSpaceOnUse">
<stop stop-color="#FA8544"/>
<stop offset="1" stop-color="#FB8445" stop-opacity="0"/>
</linearGradient>
<linearGradient id="paint1_linear" x1="94.4099" y1="18.24" x2="153.461" y2="55.2748" gradientUnits="userSpaceOnUse">
<stop stop-color="#FA8544"/>
<stop offset="1" stop-color="#FB8445" stop-opacity="0"/>
</linearGradient>
<linearGradient id="paint2_linear" x1="149.485" y1="81.4274" x2="201.332" y2="113.848" gradientUnits="userSpaceOnUse">
<stop stop-color="#FA8544"/>
<stop offset="1" stop-color="#FB8445" stop-opacity="0"/>
</linearGradient>
<linearGradient id="paint3_linear" x1="175.782" y1="144.505" x2="227.38" y2="176.776" gradientUnits="userSpaceOnUse">
<stop stop-color="#FA8544"/>
<stop offset="1" stop-color="#FB8445" stop-opacity="0"/>
</linearGradient>
<linearGradient id="paint4_linear" x1="67.0472" y1="52.7373" x2="143.344" y2="101.042" gradientUnits="userSpaceOnUse">
<stop stop-color="#FA8544"/>
<stop offset="1" stop-color="#FB8445" stop-opacity="0"/>
</linearGradient>
<linearGradient id="paint5_linear" x1="101.604" y1="120.901" x2="168.637" y2="163.08" gradientUnits="userSpaceOnUse">
<stop stop-color="#FA8544"/>
<stop offset="1" stop-color="#FB8445" stop-opacity="0"/>
</linearGradient>
<linearGradient id="paint6_linear" x1="141.024" y1="186.521" x2="213.723" y2="232.431" gradientUnits="userSpaceOnUse">
<stop stop-color="#FA8544"/>
<stop offset="1" stop-color="#FB8445" stop-opacity="0"/>
</linearGradient>
</defs>
</svg>
