<svg width="528" height="389" viewBox="0 0 528 389" fill="none" xmlns="http://www.w3.org/2000/svg">
<g clip-path="url(#clip0)">
<path opacity="0.1" d="M14.5933 244.242C8.26229 245.269 0.322158 248.206 0.396019 255.035C0.43295 258.5 2.73849 261.453 4.98072 263.986C14.5111 274.823 25.3839 284.407 37.3374 292.507C43.0458 296.366 49.1816 300.057 52.975 306.022C56.7683 311.988 57.7232 319.58 58.0239 326.804C58.7637 343.906 56.7436 361.017 52.0411 377.48C70.6279 381.013 91.3566 384.109 106.846 372.952C116.121 366.271 122.394 355.077 132.73 350.444C139.63 347.348 147.444 347.622 154.967 348.017C190.579 349.887 226.103 353.397 261.539 358.547C276.38 360.705 291.506 363.148 306.189 360.358C320.871 357.567 335.316 348.464 340.729 333.706C341.563 331.432 342.312 328.894 344.18 327.525C345.868 326.303 348.079 326.33 350.131 326.403L474.155 330.658C480.95 330.889 487.983 331.079 494.203 328.288C500.234 325.587 504.871 320.391 509.334 315.299C519.543 303.685 530.522 289.395 527.52 273.631C525.12 260.995 514.389 252.166 503.747 245.985C493.106 239.803 481.367 234.744 473.548 224.861C461.651 209.819 462.121 188.29 461.382 168.772C460.709 151.099 458.53 133.515 454.867 116.211C451.643 101 447.153 85.7682 438.76 72.9214C430.366 60.0746 417.53 49.7866 403.011 47.9017C384.049 45.4377 364.988 57.242 346.438 52.2296C330.769 48.0176 319.985 33.0489 307.001 22.6767C283.94 4.24894 253.678 0.389639 225.067 0.0368788C194.731 -0.347472 163.593 2.7168 136.555 16.9325C130.361 20.1863 124.304 24.1246 120.015 29.8741C113.441 38.6931 111.848 50.5395 107.548 60.8486C90.2171 102.358 33.8501 111.309 15.5535 152.377C9.05894 166.945 9.12225 183.936 13.8547 199.236C18.9458 215.7 33.275 224.793 38.9571 239.145C32.8424 243.073 22.0058 243.036 14.5933 244.242Z" fill="url(#paint0_linear)"/>
<path d="M89 47V65.8823V289H475V65.8823V47H89Z" fill="url(#paint1_linear)"/>
<path d="M473.306 48.8073H90.7285V67.3456H473.306V48.8073Z" fill="#F6F7F9"/>
<path d="M473.306 48.8073H90.7285V67.3456H473.306V48.8073Z" fill="#5A5773"/>
<path d="M473.306 67.3456H90.7285V286.399H473.306V67.3456Z" fill="#F8F8F8"/>
<path d="M293.575 117H110.425C109.086 117 108 118.359 108 120.035V230.965C108 232.641 109.086 234 110.425 234H293.575C294.914 234 296 232.641 296 230.965V120.035C296 118.359 294.914 117 293.575 117Z" fill="white"/>
<path d="M149.49 164H120.51C120.228 164 120 164.725 120 165.618V172.382C120 173.275 120.228 174 120.51 174H149.49C149.772 174 150 173.275 150 172.382V165.618C150 164.725 149.772 164 149.49 164Z" fill="#E8E8E8"/>
<path d="M188.49 164H159.51C159.228 164 159 164.725 159 165.618V172.382C159 173.275 159.228 174 159.51 174H188.49C188.772 174 189 173.275 189 172.382V165.618C189 164.725 188.772 164 188.49 164Z" fill="#E8E8E8"/>
<path d="M227.49 164H198.51C198.228 164 198 164.725 198 165.618V172.382C198 173.275 198.228 174 198.51 174H227.49C227.772 174 228 173.275 228 172.382V165.618C228 164.725 227.772 164 227.49 164Z" fill="#E8E8E8"/>
<path d="M266.49 164H237.51C237.228 164 237 164.725 237 165.618V172.382C237 173.275 237.228 174 237.51 174H266.49C266.772 174 267 173.275 267 172.382V165.618C267 164.725 266.772 164 266.49 164Z" fill="#E8E8E8"/>
<path d="M285 132H149V137H285V132Z" fill="#F4F4F4"/>
<path d="M229 143H149V148H229V143Z" fill="#F4F4F4"/>
<path d="M285 185H119V190H285V185Z" fill="#F4F4F4"/>
<path d="M285 196H119V201H285V196Z" fill="#F4F4F4"/>
<circle cx="131" cy="140" r="10" fill="#C3E0F0"/>
<circle cx="127" cy="216" r="8" fill="#C3E0F0"/>
<circle cx="153" cy="216" r="8" fill="#C3E0F0"/>
<circle cx="179" cy="216" r="8" fill="#C3E0F0"/>
<path d="M99.903 62.0858C102.184 62.0858 104.034 60.2401 104.034 57.9633C104.034 55.6865 102.184 53.8407 99.903 53.8407C97.6215 53.8407 95.772 55.6865 95.772 57.9633C95.772 60.2401 97.6215 62.0858 99.903 62.0858Z" fill="#F6F7F9"/>
<path d="M110.908 62.0858C113.19 62.0858 115.039 60.2401 115.039 57.9633C115.039 55.6865 113.19 53.8407 110.908 53.8407C108.627 53.8407 106.777 55.6865 106.777 57.9633C106.777 60.2401 108.627 62.0858 110.908 62.0858Z" fill="#F6F7F9"/>
<path d="M121.92 62.0858C124.201 62.0858 126.051 60.2401 126.051 57.9633C126.051 55.6865 124.201 53.8407 121.92 53.8407C119.638 53.8407 117.789 55.6865 117.789 57.9633C117.789 60.2401 119.638 62.0858 121.92 62.0858Z" fill="#F6F7F9"/>
<g opacity="0.8">
<path opacity="0.2" d="M296 94.5872H108.029V108.777H296V94.5872Z" fill="#C3E0F0"/>
</g>
<g opacity="0.8">
<path opacity="0.2" d="M454.492 94.5872H351.281V108.777H454.492V94.5872Z" fill="#C3E0F0"/>
</g>
<g opacity="0.8">
<path opacity="0.2" d="M454.265 139.909H351.054V266.487H454.265V139.909Z" fill="#C3E0F0"/>
</g>
<path d="M526.449 229.979C525.79 226.63 524.523 223.355 524.492 219.944C524.444 214.405 527.399 207.971 523.516 203.88C522.629 202.948 521.442 202.253 520.783 201.163C520.285 200.221 520.048 199.163 520.097 198.099C520.034 191.638 523.6 185.078 521.463 178.955C521.046 177.581 520.186 176.383 519.015 175.548C517.781 174.748 516.378 174.595 514.863 174.622C513.497 174.622 512.057 174.774 510.643 174.801C509.843 174.801 509.046 174.697 508.274 174.49C506.638 174.027 505.251 172.958 503.631 172.431C502.78 172.156 501.887 172.033 500.993 172.068C497.448 171.952 494.208 174.306 491.687 176.586C490.429 177.642 489.098 178.608 487.703 179.476C487.914 179.329 482.781 182.846 484.712 182.883C486.092 182.923 487.425 183.386 488.532 184.209C487.364 186.007 486.787 188.124 486.882 190.264C486.976 192.405 487.738 194.462 489.059 196.151C488.22 195.329 487.292 194.429 486.342 193.518C483.514 190.743 479.563 187.021 477.706 186.005C474.651 184.367 470.288 180.808 470.288 180.808C470.288 180.808 464.616 183.967 466.363 188.353C467.196 188.61 468.009 188.929 468.795 189.306C468.795 189.889 468.908 190.466 469.127 191.007C470.921 191.572 472.619 192.402 474.166 193.471C474.34 193.713 474.502 193.964 474.651 194.224C475.405 195.54 477.753 197.935 480.623 200.6C482.639 202.616 485.292 205.028 487.935 207.349C487.139 208.929 486.3 210.508 486.152 212.088C485.949 212.008 485.75 211.917 485.556 211.814C481.631 209.708 472.472 209.929 472.472 209.929C472.472 209.929 464.838 205.949 463.313 196.94C463.313 196.94 461.788 191.491 462.221 190.027H462.195L462.39 189.985L464.221 186.673C464.336 186.457 464.395 186.216 464.392 185.971C464.39 185.726 464.326 185.486 464.206 185.272C464.086 185.058 463.915 184.878 463.707 184.748C463.5 184.617 463.263 184.541 463.018 184.525C454.091 183.725 453.669 191.896 453.669 191.896H453.748L453.722 191.965C454.814 197.204 455.684 196.782 455.468 200.973L458.955 210.193C458.955 210.193 459.172 213.352 465.497 217.527C471.823 221.702 479.019 228.215 479.019 228.215C479.019 228.215 475.205 230.205 476.619 239.319C478.349 250.46 475.748 266.35 475.748 266.35V276.617L476.234 276.485C476.17 276.827 476.112 277.191 476.049 277.586C475.244 282.745 475.143 287.989 475.748 293.176C477.057 304.074 482.29 318.974 482.29 318.974C482.29 318.974 484.253 324.213 484.691 328.404C484.76 329.234 484.948 330.05 485.25 330.826C486.233 333.126 486.753 335.597 486.78 338.097C486.761 344.378 487.9 350.608 490.141 356.478C492.351 362.08 493.174 365.365 493.417 367.282C491.834 369.324 489.798 371.552 488.178 371.773C485.123 372.194 479.236 372.61 483.161 377.638C483.297 377.811 483.449 377.972 483.615 378.117C480.634 378.591 477.357 379.634 480.544 383.714C484.469 388.742 507.583 386.436 507.583 386.436C507.583 386.436 507.73 383.64 507.583 380.571C509.202 380.46 510.221 380.36 510.221 380.36C510.221 380.36 510.875 368.208 508.042 366.739C507.518 366.796 507.004 366.92 506.512 367.108C506.206 365.428 505.984 363.338 505.826 361.795L506.95 361.711V361.627H507.018V343.315C507.018 343.315 505.71 332 500.914 326.993C500.297 326.363 499.765 325.655 499.331 324.887L499.268 324.756C499.3 323.323 499.3 321.391 499.268 319.175L499.337 319.053C499.421 318.917 499.505 318.795 499.585 318.685C499.696 318.537 499.815 318.397 499.943 318.264L500.012 318.174C500.012 318.174 502.65 315.015 511.571 295.124C517.021 282.982 515.581 276.169 513.629 272.658C513.217 271.078 512.357 267.54 511.281 261.48C510.84 258.908 510.63 256.302 510.653 253.693C512.005 254.03 513.396 254.186 514.789 254.156C516.976 254.205 519.144 253.743 521.12 252.808C519.696 250.734 518.208 248.301 518.926 245.916C519.738 243.199 522.956 241.952 524.814 239.761C527.051 237.113 527.109 233.333 526.449 229.979Z" fill="url(#paint2_linear)"/>
<path d="M471.19 183.046C471.19 183.046 465.777 186.163 467.444 190.527C467.444 190.527 473.068 192.191 475.358 196.345C477.647 200.5 495.348 215.463 495.348 215.463L508.274 209.024C508.274 209.024 503.784 203.043 489.581 198.862C489.581 198.862 481.209 189.911 478.291 188.242C475.373 186.573 471.19 183.046 471.19 183.046Z" fill="#797C9C"/>
<path opacity="0.05" d="M473.827 185.678C473.827 185.678 468.414 188.795 470.082 193.16C470.082 193.16 475.706 194.824 477.995 198.978C480.285 203.132 497.985 218.095 497.985 218.095L510.911 211.656C510.911 211.656 506.421 205.675 492.219 201.495C492.219 201.495 483.846 192.544 480.929 190.875C478.011 189.206 473.827 185.678 473.827 185.678Z" fill="black"/>
<path d="M515.734 385.314H12.9468V389H515.734V385.314Z" fill="#DDEEF8"/>
<path d="M474.93 179.45H368.374V310.129H474.93V179.45Z" fill="url(#paint3_linear)"/>
<path d="M473.258 181.503H370.047V308.081H473.258V181.503Z" fill="#FCFCFC"/>
<path d="M409.103 194H388V215.06H409.103V194Z" fill="#C3E0F0"/>
<path d="M462.448 226.309H387.531V230.521H462.448V226.309Z" fill="#F4F4F4"/>
<path d="M462.448 235.26H387.531V239.472H462.448V235.26Z" fill="#F4F4F4"/>
<path d="M462.448 244.21H387.531V248.422H462.448V244.21Z" fill="#F4F4F4"/>
<path d="M462.448 253.161H387.531V257.373H462.448V253.161Z" fill="#F4F4F4"/>
<path d="M462.448 262.112H387.531V266.324H462.448V262.112Z" fill="#F4F4F4"/>
<path d="M462.448 271.062H387.531V275.274H462.448V271.062Z" fill="#F4F4F4"/>
<path d="M462.448 280.013H387.531V284.225H462.448V280.013Z" fill="#F4F4F4"/>
<path d="M504.923 360.289C504.923 360.289 505.546 369.43 506.591 370.472C507.635 371.515 497.221 372.136 497.221 372.136L498.677 360.289H504.923Z" fill="#FFB9B9"/>
<path opacity="0.05" d="M504.923 360.289C504.923 360.289 505.546 369.43 506.591 370.472C507.635 371.515 497.221 372.136 497.221 372.136L498.677 360.289H504.923Z" fill="black"/>
<path d="M507.219 367.355C507.219 367.355 505.762 367.355 500.555 370.056C500.555 370.056 497.015 369.435 495.559 364.444C495.559 364.444 491.185 371.925 488.273 372.341C485.361 372.757 479.737 373.173 483.483 378.159C487.228 383.145 509.303 380.86 509.303 380.86C509.303 380.86 509.92 368.808 507.219 367.355Z" fill="#E4E2F3"/>
<path opacity="0.05" d="M507.219 367.355C507.219 367.355 505.762 367.355 500.555 370.056C500.555 370.056 497.015 369.435 495.559 364.444C495.559 364.444 491.185 371.925 488.273 372.341C485.361 372.757 479.737 373.173 483.483 378.159C487.228 383.145 509.303 380.86 509.303 380.86C509.303 380.86 509.92 368.808 507.219 367.355Z" fill="black"/>
<path d="M504.09 374.421L502.634 378.37L493.059 375.669L493.586 371.752L493.718 370.804L494.082 368.171C494.082 368.171 502.202 366.092 502.202 367.118C502.309 367.975 502.486 368.822 502.729 369.651C503.062 370.93 503.478 372.383 503.784 373.336C503.964 374.005 504.09 374.421 504.09 374.421Z" fill="#FFB9B9"/>
<path d="M498.862 320.227C498.341 321.104 498.067 322.104 498.067 323.123C498.067 324.142 498.341 325.142 498.862 326.019C499.271 326.769 499.775 327.465 500.36 328.088C504.939 333.074 506.19 344.294 506.19 344.294V362.369L503.067 362.606L498.07 362.99L490.573 332.237C490.573 332.237 486.2 309.797 488.284 305.849C490.368 301.9 492.24 277.175 492.24 277.175L493.971 275.39L498.07 271.152H509.941C510.891 271.831 511.68 272.71 512.252 273.726C514.246 277.017 516.035 283.862 510.569 296.498C502.032 316.237 499.532 319.353 499.532 319.353C499.275 319.618 499.051 319.911 498.862 320.227Z" fill="#4C4C78"/>
<path opacity="0.05" d="M498.93 320.138C498.41 321.015 498.135 322.015 498.135 323.034C498.135 324.053 498.41 325.053 498.93 325.93C499.339 326.68 499.843 327.375 500.428 327.999C505.008 332.985 506.258 344.205 506.258 344.205V362.28L503.135 362.517L498.139 362.901L490.642 332.148C490.642 332.148 486.268 309.708 488.352 305.759C490.436 301.81 492.309 277.085 492.309 277.085L494.039 275.301L498.139 271.062H510.009C510.959 271.741 511.748 272.62 512.32 273.637C514.314 276.927 516.103 283.772 510.637 296.408C502.101 316.147 499.6 319.264 499.6 319.264C499.344 319.529 499.119 319.822 498.93 320.138Z" fill="black"/>
<path opacity="0.1" d="M502.75 369.677L493.733 370.804L494.097 368.171C494.097 368.171 502.217 366.092 502.217 367.118C502.325 367.984 502.503 368.84 502.75 369.677Z" fill="black"/>
<path d="M498.25 293.591C498.25 293.591 498.778 309.95 498.852 320.227C498.852 322.555 498.852 324.566 498.852 326.019C498.863 326.783 498.807 327.545 498.683 328.299C498.06 330.168 499.305 334.322 499.305 334.322C502.43 342.534 503.708 351.33 503.051 360.089V369.23L493.059 370.477C493.059 370.477 494.726 369.23 490.141 357.178C487.998 351.34 486.91 345.168 486.928 338.95C486.904 336.475 486.408 334.027 485.467 331.737C485.18 330.965 485.003 330.157 484.939 329.336C484.522 325.182 482.649 319.985 482.649 319.985C482.649 319.985 477.653 305.243 476.403 294.429C475.825 289.285 475.923 284.089 476.693 278.97C476.877 277.67 477.127 276.38 477.442 275.106C477.442 275.106 497.796 262.322 505.483 271.157C506.223 272.022 506.81 273.007 507.219 274.069C507.641 275.117 507.969 276.201 508.2 277.307C510.59 289.021 498.25 293.591 498.25 293.591Z" fill="#4C4C78"/>
<path d="M497.632 202.585C503.497 202.585 508.252 197.839 508.252 191.986C508.252 186.132 503.497 181.387 497.632 181.387C491.767 181.387 487.012 186.132 487.012 191.986C487.012 197.839 491.767 202.585 497.632 202.585Z" fill="#FFB9B9"/>
<path d="M491.803 198.63C491.803 198.63 496.176 210.888 491.803 217.332C487.429 223.776 505.752 221.697 505.752 221.697L512.832 213.178C512.832 213.178 504.502 213.178 504.085 198.63C503.668 184.083 491.803 198.63 491.803 198.63Z" fill="#FFB9B9"/>
<path opacity="0.1" d="M512.832 276.138C511.323 276.658 509.771 277.046 508.194 277.296C505.604 277.696 502.544 277.712 500.755 276.138C499.7 275.206 497.062 275.085 493.944 275.39C487.334 276.022 478.391 278.481 476.682 278.965C476.865 277.665 477.115 276.375 477.431 275.101C477.431 275.101 497.785 262.317 505.472 271.152H509.914C510.864 271.831 511.653 272.71 512.225 273.726C512.61 275.38 512.832 276.138 512.832 276.138Z" fill="black"/>
<path opacity="0.1" d="M504.09 374.421L502.634 378.37L493.059 375.669L493.586 371.752C495.232 375.384 498.039 375.879 498.039 375.879C499.867 374.87 501.785 374.031 503.769 373.373C503.964 374.005 504.09 374.421 504.09 374.421Z" fill="black"/>
<path d="M504.713 373.384C504.713 373.384 503.257 373.384 498.049 376.085C498.049 376.085 494.509 375.463 493.053 370.472C493.053 370.472 488.679 377.954 485.767 378.37C482.855 378.786 477.231 379.202 480.977 384.188C484.723 389.174 506.797 386.889 506.797 386.889C506.797 386.889 507.419 374.837 504.713 373.384Z" fill="#E4E2F3"/>
<path d="M455.314 194.013C455.314 194.013 455.721 185.921 464.241 186.71C464.477 186.734 464.703 186.815 464.9 186.946C465.097 187.076 465.259 187.253 465.373 187.461C465.486 187.668 465.547 187.9 465.55 188.136C465.553 188.372 465.499 188.606 465.391 188.816L463.645 192.096L455.314 194.013Z" fill="#FFB9B9"/>
<path d="M504.506 215.668C504.506 215.668 494.303 214.005 491.597 211.93C491.597 211.93 489.513 215.879 485.767 213.799C482.021 211.719 473.274 211.93 473.274 211.93C470.98 210.528 469.013 208.653 467.505 206.432C465.996 204.21 464.981 201.692 464.526 199.046C464.526 199.046 463.07 193.644 463.471 192.202C463.471 192.202 458.058 186.589 455.352 194.071C456.407 199.268 457.224 198.852 457.019 203.022L460.348 212.162C460.348 212.162 460.554 215.279 466.594 219.433C472.635 223.587 479.504 230.031 479.504 230.031C479.504 230.031 475.859 232.006 477.215 241.046C478.871 252.103 476.381 267.85 476.381 267.85V278.033C476.381 278.033 497.205 272.01 500.739 275.122C504.274 278.233 512.816 275.122 512.816 275.122C512.816 275.122 511.761 271.589 510.315 263.07C508.87 254.551 510.521 246.222 510.521 246.222C510.521 246.222 515.934 231.885 518.435 226.067C520.935 220.249 516.562 212.378 512.188 209.445C507.814 206.512 506.189 208.281 506.189 208.281C506.189 208.281 513.876 213.799 504.506 215.668Z" fill="#797C9C"/>
<path opacity="0.05" d="M477.753 245.684C477.753 245.684 479.415 245.284 487.74 244.037C496.065 242.789 510.642 245.7 510.642 245.7" fill="black"/>
<path opacity="0.1" d="M484.949 185.12C489.697 185.22 493.211 191.065 491.106 195.282C490.183 197.135 488.394 198.767 488.579 200.826C488.663 201.763 489.164 202.611 489.381 203.527C490.378 207.739 485.329 211.683 486.484 215.842C486.879 216.957 487.492 217.983 488.289 218.859L497.057 229.884C497.589 230.491 498.03 231.172 498.365 231.906C498.7 232.951 498.828 234.05 498.745 235.144C498.703 240.409 499.046 246.058 502.159 250.328C505.899 255.456 513.523 257.299 519.194 254.44C517.833 252.382 516.414 249.97 517.084 247.596C517.859 244.905 520.93 243.663 522.703 241.493C524.845 238.861 524.897 235.123 524.285 231.8C523.673 228.478 522.444 225.23 522.418 221.849C522.376 216.358 525.193 209.977 521.484 205.923C520.635 204.996 519.506 204.311 518.872 203.227C518.395 202.286 518.17 201.237 518.218 200.184C518.16 193.781 521.563 187.268 519.521 181.198C519.132 179.847 518.312 178.66 517.184 177.818C514.293 175.875 510.283 177.76 506.939 176.765C505.356 176.307 504.053 175.243 502.507 174.722C498.339 173.316 494.482 176.138 491.602 178.844C490.404 179.889 489.133 180.846 487.798 181.708C488.004 181.598 483.102 185.083 484.949 185.12Z" fill="black"/>
<path d="M485.477 185.12C490.225 185.22 493.739 191.065 491.634 195.282C490.711 197.135 488.922 198.767 489.107 200.826C489.191 201.763 489.693 202.611 489.909 203.527C490.906 207.739 485.857 211.683 487.013 215.842C487.407 216.957 488.02 217.983 488.817 218.859L497.585 229.884C498.118 230.491 498.559 231.172 498.894 231.906C499.228 232.951 499.357 234.05 499.274 235.144C499.231 240.409 499.574 246.058 502.687 250.328C506.428 255.456 514.051 257.299 519.723 254.44C518.362 252.382 516.942 249.97 517.612 247.596C518.388 244.905 521.458 243.663 523.231 241.493C525.373 238.861 525.426 235.123 524.814 231.8C524.202 228.478 522.973 225.23 522.946 221.849C522.904 216.358 525.721 209.977 522.012 205.923C521.163 204.996 520.034 204.311 519.401 203.227C518.924 202.286 518.698 201.237 518.747 200.184C518.689 193.781 522.092 187.268 520.05 181.198C519.661 179.847 518.84 178.66 517.713 177.818C514.821 175.875 510.812 177.76 507.467 176.765C505.884 176.307 504.581 175.243 503.035 174.722C498.867 173.316 495.011 176.138 492.13 178.844C490.932 179.889 489.661 180.846 488.326 181.708C488.532 181.598 483.631 185.083 485.477 185.12Z" fill="#423535"/>
<path d="M326.088 285.341C324.881 284.215 323.832 282.931 322.97 281.524C321.145 278.66 318.09 277.117 315.996 276.348V275.416H316.122L316.064 274.553H316.122L315.975 272.268L315.231 260.853C315.231 260.853 312.54 253.203 317.288 246.2C322.037 239.198 317.584 232.48 313.12 229.852C313.12 229.852 311.01 218.759 312.825 216.132C310.399 214.727 307.898 213.456 305.333 212.325C305.295 212.188 305.258 212.048 305.222 211.904C305.175 210.851 305.112 209.835 305.054 208.803C305.115 208.27 305.213 207.742 305.349 207.223C305.407 207.007 305.47 206.786 305.539 206.56C307.676 205.733 309.513 204.283 310.813 202.399C312.113 200.516 312.814 198.285 312.825 195.998C312.826 194.66 312.586 193.334 312.118 192.081C312.349 191.692 312.527 191.274 312.646 190.838C312.88 189.578 312.627 188.276 311.939 187.195C310.757 184.562 307.776 182.156 305.608 181.277C302.511 180.013 297.847 180.313 294.623 180.698C292.814 180.913 290.746 181.524 290.091 183.193C289.918 183.826 289.78 184.467 289.68 185.115C289.005 187.663 286.076 188.853 284.267 190.801C282.684 192.523 281.967 194.85 281.45 197.119C279.964 203.622 279.607 210.33 280.394 216.953C280.579 218.48 280.822 219.996 281.08 221.512C279.993 223.039 279.012 225.725 279.461 230.463L275.889 247.396L274.401 257.32C274.2 258.708 274.339 260.123 274.806 261.445C275.272 262.768 276.053 263.957 277.081 264.913C279.36 267.145 282.125 270.92 283.829 273.368C283.086 275.533 282.719 277.809 282.742 280.097C282.779 281.15 282.837 282.145 282.911 283.103C283.064 285.123 283.446 287.119 284.051 289.053C284.467 293.128 285.296 298.341 286.91 301.689L287.506 319.496C287.506 319.496 286.615 335.844 284.826 339.055C283.038 342.267 288.699 369.419 288.699 369.419V373.215L287.744 375.995L287.506 375.816C283.038 381.366 287.506 383.408 287.506 383.408C287.506 383.408 288.72 383.466 290.672 383.54C290.506 384.317 290.603 385.126 290.947 385.842C291.292 386.557 291.865 387.139 292.576 387.494C292.576 387.494 317.9 388.663 322.364 387.494C326.827 386.325 325.64 382.229 323.255 382.529C322.049 382.571 320.843 382.413 319.689 382.061C321.082 380.434 319.968 378.228 318.196 378.443C315.811 378.733 310.451 376.616 310.451 376.616V376.653C310.279 376.589 310.102 376.536 309.923 376.495C307.932 376.043 305.965 375.49 304.03 374.837C302.88 372.378 300.232 365.765 302.131 360.621C302.991 358.305 303.27 355.219 303.27 352.229C303.316 343.212 304.635 334.247 307.19 325.598L310.762 313.346C310.762 313.346 315.827 298.456 316.122 294.392L316.08 288.432C320.269 291.122 323.593 290.306 325.719 289.058C326.037 288.877 326.308 288.622 326.507 288.316C326.707 288.009 326.83 287.659 326.866 287.295C326.902 286.931 326.85 286.564 326.715 286.224C326.58 285.884 326.365 285.581 326.088 285.341ZM286.335 254.372C286.435 253.945 286.52 253.477 286.594 252.987C287.297 252.987 288 252.987 288.704 252.987C289.575 254.77 289.94 256.756 289.759 258.731C288.145 258.205 285.728 256.952 286.335 254.372Z" fill="url(#paint4_linear)"/>
<path d="M289.168 371.852L288.023 375.284L291.748 379.002L304.073 381.861L312.957 381.002L312.382 377.843C312.211 377.168 311.858 376.552 311.36 376.063C310.862 375.575 310.239 375.232 309.559 375.074C305.909 374.216 298.944 372.268 297.478 369.551L289.168 371.852Z" fill="#DB8B8B"/>
<path opacity="0.1" d="M289.168 371.852L288.023 375.284L291.748 379.002L304.073 381.861L312.957 381.002L312.382 377.843C312.211 377.168 311.858 376.552 311.36 376.063C310.862 375.575 310.239 375.232 309.559 375.074C305.909 374.216 298.944 372.268 297.478 369.551L289.168 371.852Z" fill="black"/>
<path d="M310.093 380.149L308.373 377.859L310.093 375.227C310.093 375.227 315.252 377.306 317.542 377.017C319.832 376.727 320.982 380.734 316.682 381.882C312.382 383.029 288.018 381.882 288.018 381.882C288.018 381.882 283.719 379.881 288.018 374.447L291.743 377.306C291.743 377.306 298.074 380.739 301.203 380.165L310.093 380.149Z" fill="#474463"/>
<path d="M317.817 385.009L308.932 385.867L296.618 382.987L292.894 379.302L293.2 378.391L293.627 377.117L294.044 375.869L302.353 373.579C302.774 374.264 303.351 374.841 304.036 375.263C306.737 377.106 311.586 378.422 314.43 379.102C314.549 379.129 314.667 379.165 314.783 379.207C315.385 379.409 315.927 379.758 316.359 380.224C316.79 380.69 317.097 381.256 317.252 381.871L317.817 385.009Z" fill="#DB8B8B"/>
<path opacity="0.1" d="M317.817 385.009L308.932 385.867L296.618 382.987L292.894 379.302L293.2 378.391L296.624 381.023C296.624 381.023 302.955 384.456 306.083 383.882H314.968L313.248 381.592L314.794 379.212C315.396 379.414 315.938 379.764 316.369 380.229C316.801 380.695 317.108 381.261 317.263 381.876L317.817 385.009Z" fill="black"/>
<path d="M314.962 384.151L313.242 381.861L314.962 379.228C314.962 379.228 320.121 381.308 322.411 381.018C324.701 380.729 325.851 384.735 321.551 385.883C317.251 387.031 292.888 385.883 292.888 385.883C292.888 385.883 288.588 383.882 292.888 378.449L296.612 381.308C296.612 381.308 302.943 384.741 306.072 384.167L314.962 384.151Z" fill="#474463"/>
<path d="M307.793 218.253C307.793 218.253 294.033 219.686 296.043 213.962C296.603 212.341 296.748 210.605 296.465 208.913C296.108 206.815 295.277 204.825 294.033 203.095L306.933 205.096C306.16 206.386 305.573 207.777 305.186 209.229C303.651 215.3 307.793 218.253 307.793 218.253Z" fill="#DB8B8B"/>
<path d="M284.293 283.477C284.293 283.477 284.578 295.776 287.458 301.784L288.034 319.232C288.034 319.232 287.174 335.249 285.454 338.397C283.734 341.546 289.178 368.145 289.178 368.145V372.72C289.178 372.72 298.337 376.143 300.933 372.141L298.353 338.102L299.498 290.906L284.293 283.477Z" fill="#474463"/>
<path opacity="0.1" d="M284.293 283.477C284.293 283.477 284.578 295.776 287.458 301.784L288.034 319.232C288.034 319.232 287.174 335.249 285.454 338.397C283.734 341.546 289.178 368.145 289.178 368.145V372.72C289.178 372.72 298.337 376.143 300.933 372.141L298.353 338.102L299.498 290.906L284.293 283.477Z" fill="black"/>
<path d="M278.563 243.989L276.843 248.564L275.408 258.289C275.215 259.644 275.348 261.025 275.797 262.318C276.246 263.611 276.997 264.778 277.988 265.723C281.428 269.156 286.013 276.306 286.013 276.306L291.457 259.984C291.457 259.984 286.013 259.126 286.873 255.409C287.733 251.692 287.448 244.826 287.448 244.826L278.563 243.989Z" fill="#FFAB76"/>
<path opacity="0.05" d="M278.563 243.463L276.843 248.038L275.408 257.763C275.215 259.117 275.348 260.498 275.797 261.791C276.246 263.084 276.997 264.252 277.988 265.197C281.428 268.63 286.013 275.78 286.013 275.78L291.457 259.458C291.457 259.458 286.013 258.6 286.873 254.883C287.733 251.165 287.448 244.3 287.448 244.3L278.563 243.463Z" fill="black"/>
<path opacity="0.1" d="M304.036 375.253C300.343 381.045 294.639 377.754 293.621 377.101L294.038 375.853L302.347 373.563C302.769 374.25 303.348 374.829 304.036 375.253Z" fill="black"/>
<path d="M315.537 294.623C315.252 298.63 310.377 313.214 310.377 313.214L306.942 325.219C304.479 333.707 303.207 342.496 303.165 351.334C303.165 354.261 302.896 357.283 302.067 359.552C299.772 365.87 304.362 374.426 304.362 374.426C300.348 381.576 293.473 376.717 293.473 376.717V372.141C293.473 372.141 288.028 347.258 289.458 342.394C290.888 337.529 291.463 324.371 291.463 324.371V300.631C286.871 296.065 284.079 290.002 283.597 283.551C283.528 282.614 283.475 281.629 283.438 280.608C283.206 274.153 287.627 266.587 289.353 263.891C289.769 263.238 290.028 262.875 290.028 262.875L315.352 272.879H315.41V273.858V276.022L315.537 294.623Z" fill="#474463"/>
<path opacity="0.1" d="M306.938 205.096C306.165 206.386 305.578 207.777 305.191 209.229C303.79 209.761 302.297 210.007 300.799 209.952C299.301 209.898 297.829 209.545 296.47 208.913C296.113 206.815 295.281 204.825 294.038 203.095L306.938 205.096Z" fill="black"/>
<path d="M301.203 209.387C307.377 209.387 312.382 204.392 312.382 198.23C312.382 192.069 307.377 187.074 301.203 187.074C295.029 187.074 290.023 192.069 290.023 198.23C290.023 204.392 295.029 209.387 301.203 209.387Z" fill="#DB8B8B"/>
<path opacity="0.1" d="M315.537 276.032H315.416C303.397 278.496 288.309 265.997 288.309 265.997C288.716 265.324 289.069 264.62 289.364 263.891C289.781 263.238 290.039 262.875 290.039 262.875L315.363 272.879L315.426 273.879L315.537 276.032Z" fill="black"/>
<path d="M312.382 217.964C312.382 217.964 296.333 208.239 291.173 212.241L284.008 221.391C284.008 221.391 279.424 222.824 280.284 231.974L276.844 248.564L287.163 251.139C287.163 251.139 293.183 256.862 288.308 265.155C288.308 265.155 303.497 277.738 315.537 275.158L314.65 261.727C314.65 261.727 312.07 254.293 316.655 247.427C321.24 240.562 316.94 233.985 312.64 231.411C312.672 231.411 310.662 220.538 312.382 217.964Z" fill="#FFAB76"/>
<path d="M313.242 276.317C313.242 276.317 319.262 277.459 322.127 282.04C322.954 283.415 323.964 284.672 325.129 285.778C325.39 286.016 325.592 286.311 325.719 286.64C325.846 286.97 325.894 287.324 325.86 287.675C325.825 288.026 325.71 288.364 325.521 288.663C325.333 288.962 325.078 289.212 324.775 289.395C322.501 290.759 318.793 291.601 314.108 287.758C306.078 281.182 313.242 276.317 313.242 276.317Z" fill="#DB8B8B"/>
<path opacity="0.1" d="M304.357 223.403C304.357 223.403 298.622 222.829 297.193 237.703C295.763 252.576 293.468 256.009 293.468 256.009C293.468 256.009 292.033 263.733 295.473 268.309C298.912 272.884 305.497 282.608 305.497 282.608C305.497 282.608 312.661 284.609 314.096 277.459L305.212 260.869C305.212 260.869 303.777 255.146 307.217 251.144C310.656 247.143 313.242 220.538 304.357 223.403Z" fill="black"/>
<path d="M304.932 222.544C304.932 222.544 299.197 221.971 297.768 236.844C296.338 251.718 294.043 255.151 294.043 255.151C294.043 255.151 292.608 262.875 296.048 267.45C299.488 272.026 306.072 281.75 306.072 281.75C306.072 281.75 313.237 283.751 314.672 276.601L305.787 260.011C305.787 260.011 304.357 254.293 307.792 250.307C311.226 246.322 313.817 219.68 304.932 222.544Z" fill="#FFAB76"/>
<path opacity="0.1" d="M309.659 233.269C309.659 233.269 310.235 242.136 307.655 247.001C305.075 251.866 305.075 258.157 307.655 261.59" fill="black"/>
<path opacity="0.1" d="M311.094 222.402C311.094 222.402 308.799 220.112 302.21 219.828C295.62 219.543 292.75 217.537 292.75 217.537" fill="black"/>
<path opacity="0.1" d="M295.13 183.815C293.389 184.03 291.4 184.625 290.772 186.258C290.605 186.878 290.473 187.507 290.376 188.142C289.727 190.643 286.91 191.828 285.169 193.713C283.634 195.398 282.958 197.677 282.457 199.905C281.03 206.28 280.69 212.85 281.45 219.338C282.009 224.077 283.154 228.752 283.47 233.517C283.787 238.282 283.206 243.294 280.595 247.296C279.471 249.017 277.994 250.528 277.197 252.424C278.843 253.756 281.107 253.945 283.228 254.003C285.69 254.088 288.152 254.088 290.614 254.003C291.906 253.961 293.252 253.877 294.375 253.224C295.2 252.699 295.879 251.975 296.349 251.118C297.757 248.728 298.116 245.853 298.053 243.089C297.989 240.325 297.551 237.566 297.525 234.791C297.499 233.28 297.615 231.679 298.485 230.442C299.113 229.547 300.068 228.947 300.886 228.225C303.956 225.514 305.006 221.16 305.106 217.069C305.207 212.978 304.531 208.882 304.88 204.806C305.017 203.227 305.613 201.295 307.185 200.984C307.689 200.963 308.19 200.9 308.683 200.794C309.944 200.31 309.823 198.536 310.182 197.235C310.588 195.777 311.833 194.65 312.187 193.176C313.01 189.717 308.599 185.584 305.708 184.378C302.738 183.141 298.253 183.441 295.13 183.815Z" fill="black"/>
<path d="M294.866 183.241C293.125 183.456 291.136 184.051 290.508 185.684C290.341 186.304 290.209 186.933 290.113 187.569C289.464 190.069 286.646 191.254 284.905 193.139C283.37 194.824 282.695 197.104 282.194 199.331C280.767 205.706 280.426 212.276 281.186 218.764C281.745 223.503 282.89 228.178 283.207 232.943C283.523 237.708 282.943 242.72 280.331 246.722C279.207 248.443 277.73 249.954 276.934 251.85C278.58 253.182 280.843 253.372 282.964 253.429C285.426 253.514 287.888 253.514 290.35 253.429C291.643 253.387 292.988 253.303 294.112 252.65C294.937 252.125 295.616 251.401 296.085 250.544C297.494 248.154 297.852 245.279 297.789 242.515C297.726 239.751 297.288 236.992 297.261 234.217C297.235 232.706 297.351 231.105 298.222 229.868C298.849 228.973 299.804 228.373 300.622 227.652C303.693 224.94 304.742 220.586 304.843 216.495C304.943 212.404 304.268 208.308 304.616 204.232C304.753 202.653 305.349 200.721 306.921 200.41C307.425 200.39 307.927 200.326 308.42 200.221C309.681 199.736 309.559 197.962 309.918 196.661C310.324 195.203 311.569 194.076 311.923 192.602C312.746 189.143 308.335 185.01 305.444 183.804C302.453 182.567 297.968 182.862 294.866 183.241Z" fill="#472727"/>
<path opacity="0.32" d="M45.8112 384.35C45.8112 384.35 45.7182 356.481 60.1818 340.197C66.292 333.407 70.0359 324.815 70.8515 315.714C71.1989 311.39 71.1499 307.043 70.705 302.729" stroke="#FFAB76" stroke-width="2" stroke-miterlimit="10"/>
<path d="M79.7751 292.412C78.8593 295.544 70.5183 303.023 70.5183 303.023C70.5183 303.023 67.4871 292.241 68.3933 289.096C68.6107 288.348 68.9732 287.65 69.4602 287.042C69.9472 286.434 70.5491 285.928 71.2315 285.553C71.9139 285.178 72.6634 284.941 73.4373 284.856C74.2113 284.771 74.9944 284.839 75.742 285.057C76.4897 285.274 77.1872 285.637 77.7947 286.125C78.4022 286.612 78.9078 287.214 79.2827 287.897C79.6577 288.58 79.8945 289.33 79.9797 290.105C80.0649 290.88 79.9969 291.663 79.7795 292.411L79.7751 292.412Z" fill="url(#paint5_linear)"/>
<path d="M84.1204 312.577C81.6461 314.721 70.5861 316.447 70.5861 316.447C70.5861 316.447 73.8905 305.744 76.3648 303.6C76.9535 303.09 77.6367 302.702 78.3754 302.456C79.1142 302.211 79.894 302.114 80.6703 302.17C81.4466 302.227 82.2042 302.435 82.9 302.785C83.5957 303.134 84.2159 303.617 84.7251 304.206C85.2343 304.795 85.6226 305.479 85.8678 306.219C86.113 306.958 86.2102 307.738 86.1541 308.515C86.0979 309.292 85.8894 310.05 85.5404 310.746C85.1914 311.443 84.7087 312.063 84.1201 312.573L84.1204 312.577Z" fill="url(#paint6_linear)"/>
<path d="M75.0539 342.237C71.8336 342.835 61.4169 338.74 61.4169 338.74C61.4169 338.74 69.6679 331.172 72.8836 330.57C74.4296 330.282 76.0266 330.62 77.3233 331.511C78.62 332.401 79.5102 333.771 79.798 335.318C80.0858 336.865 79.7477 338.463 78.858 339.761C77.9683 341.058 76.5999 341.949 75.0539 342.237Z" fill="url(#paint7_linear)"/>
<path d="M63.146 363.133C60.0711 364.249 49.1132 361.993 49.1132 361.993C49.1132 361.993 55.9665 353.149 59.039 352.003C59.7693 351.733 60.5455 351.61 61.3234 351.64C62.1013 351.67 62.8655 351.854 63.5726 352.18C64.2797 352.506 64.9156 352.968 65.4442 353.54C65.9728 354.112 66.3837 354.783 66.6534 355.514C66.9231 356.244 67.0462 357.021 67.0159 357.8C66.9856 358.578 66.8023 359.343 66.4767 360.05C66.151 360.758 65.6892 361.394 65.1177 361.923C64.5462 362.452 63.8763 362.863 63.146 363.133Z" fill="url(#paint8_linear)"/>
<path d="M58.4575 313.579C60.0748 316.429 69.9201 321.758 69.9201 321.758C69.9201 321.758 70.3817 310.566 68.7644 307.716C68.3796 307.039 67.8653 306.444 67.2508 305.966C66.6364 305.487 65.9337 305.134 65.1831 304.928C64.4325 304.721 63.6485 304.664 62.876 304.761C62.1036 304.857 61.3577 305.105 60.6809 305.49C60.0041 305.875 59.4098 306.39 58.9318 307.005C58.4538 307.619 58.1015 308.323 57.895 309.074C57.6886 309.825 57.632 310.609 57.7285 311.382C57.825 312.156 58.0727 312.902 58.4575 313.579Z" fill="url(#paint9_linear)"/>
<path d="M44.8364 338.194C47.2309 340.428 58.2191 342.568 58.2191 342.568C58.2191 342.568 55.3117 331.749 52.9171 329.516C51.767 328.443 50.238 327.871 48.6666 327.926C47.0953 327.981 45.6101 328.658 44.538 329.809C43.4658 330.96 42.8945 332.49 42.9496 334.063C43.0048 335.635 43.6819 337.121 44.8321 338.195L44.8364 338.194Z" fill="url(#paint10_linear)"/>
<path d="M34.8808 363.933C36.8634 366.54 47.3352 370.504 47.3352 370.504C47.3352 370.504 46.2973 359.351 44.3153 356.753C43.3625 355.501 41.9518 354.679 40.3935 354.467C38.8352 354.256 37.2569 354.673 36.0059 355.627C34.7549 356.58 33.9337 357.992 33.7228 359.551C33.5119 361.11 33.9287 362.69 34.8814 363.942L34.8808 363.933Z" fill="url(#paint11_linear)"/>
<path opacity="0.32" d="M30.5844 384.245C30.5844 384.245 30.4665 348.906 48.8063 328.258C56.5541 319.648 61.3015 308.754 62.3357 297.213C62.7762 291.731 62.7139 286.219 62.1498 280.748" stroke="#FFAB76" stroke-width="2" stroke-miterlimit="10"/>
<path d="M73.6508 267.666C72.4895 271.638 61.9132 281.121 61.9132 281.121C61.9132 281.121 58.0696 267.449 59.2186 263.462C59.4943 262.513 59.954 261.628 60.5715 260.858C61.189 260.087 61.9522 259.445 62.8174 258.97C63.6827 258.494 64.6332 258.193 65.6145 258.085C66.5959 257.977 67.5889 258.064 68.5369 258.34C69.4849 258.616 70.3693 259.076 71.1396 259.694C71.9099 260.312 72.5511 261.076 73.0265 261.942C73.5019 262.808 73.8022 263.759 73.9103 264.741C74.0183 265.723 73.932 266.717 73.6563 267.666L73.6508 267.666Z" fill="url(#paint12_linear)"/>
<path d="M79.1607 293.236C76.0233 295.955 61.9991 298.143 61.9991 298.143C61.9991 298.143 66.1892 284.571 69.3266 281.853C70.073 281.207 70.9393 280.714 71.876 280.403C72.8127 280.092 73.8015 279.969 74.7859 280.04C75.7703 280.111 76.731 280.376 77.6132 280.819C78.4954 281.262 79.2818 281.875 79.9275 282.622C80.5732 283.369 81.0655 284.236 81.3764 285.173C81.6873 286.111 81.8106 287.1 81.7394 288.085C81.6681 289.07 81.4037 290.032 80.9612 290.915C80.5187 291.797 79.9067 292.584 79.1603 293.23L79.1607 293.236Z" fill="url(#paint13_linear)"/>
<path d="M67.6643 330.845C63.5808 331.604 50.3725 326.411 50.3725 326.411C50.3725 326.411 60.8347 316.814 64.9123 316.05C66.8726 315.685 68.8976 316.115 70.5418 317.244C72.1861 318.373 73.3148 320.11 73.6798 322.071C74.0447 324.033 73.616 326.06 72.4878 327.705C71.3597 329.35 69.6246 330.48 67.6643 330.845Z" fill="url(#paint14_linear)"/>
<path d="M52.5648 357.341C48.6658 358.756 34.7711 355.896 34.7711 355.896C34.7711 355.896 43.4611 344.681 47.3571 343.228C48.2831 342.886 49.2673 342.729 50.2537 342.768C51.24 342.807 52.2092 343.039 53.1057 343.453C54.0023 343.866 54.8087 344.452 55.4789 345.177C56.1492 345.903 56.6702 346.753 57.0122 347.68C57.3541 348.606 57.5103 349.591 57.4719 350.578C57.4334 351.565 57.201 352.535 56.7881 353.432C56.3751 354.33 55.7896 355.137 55.0649 355.807C54.3403 356.478 53.4907 356.999 52.5648 357.341Z" fill="url(#paint15_linear)"/>
<path d="M46.6197 294.507C48.6705 298.12 61.1544 304.878 61.1544 304.878C61.1544 304.878 61.7397 290.686 59.6889 287.072C59.201 286.213 58.5489 285.459 57.7698 284.852C56.9906 284.246 56.0996 283.799 55.1478 283.536C54.196 283.274 53.202 283.202 52.2225 283.325C51.243 283.447 50.2972 283.761 49.439 284.25C48.5809 284.738 47.8273 285.39 47.2211 286.17C46.615 286.95 46.1683 287.841 45.9065 288.794C45.6447 289.746 45.573 290.741 45.6954 291.721C45.8177 292.701 46.1318 293.648 46.6197 294.507Z" fill="url(#paint16_linear)"/>
<path d="M29.3484 325.719C32.3847 328.551 46.3177 331.264 46.3177 331.264C46.3177 331.264 42.6311 317.547 39.5949 314.714C38.1365 313.354 36.1978 312.628 34.2052 312.698C32.2127 312.768 30.3295 313.627 28.97 315.086C27.6105 316.546 26.8861 318.486 26.956 320.48C27.026 322.474 27.8846 324.358 29.343 325.719L29.3484 325.719Z" fill="url(#paint17_linear)"/>
<path d="M16.725 358.356C19.2391 361.662 32.5174 366.688 32.5174 366.688C32.5174 366.688 31.2013 352.546 28.6881 349.251C27.48 347.663 25.6912 346.621 23.7152 346.353C21.7393 346.085 19.7381 346.614 18.1518 347.823C16.5655 349.032 15.5241 350.822 15.2567 352.799C14.9893 354.777 15.5178 356.779 16.7259 358.367L16.725 358.356Z" fill="url(#paint18_linear)"/>
</g>
<defs>
<linearGradient id="paint0_linear" x1="-36" y1="-80.5" x2="414.609" y2="408.806" gradientUnits="userSpaceOnUse">
<stop stop-color="#FA8544" stop-opacity="0.51"/>
<stop offset="1" stop-color="#FB8445" stop-opacity="0"/>
</linearGradient>
<linearGradient id="paint1_linear" x1="282" y1="289" x2="282" y2="47" gradientUnits="userSpaceOnUse">
<stop stop-color="#808080" stop-opacity="0.25"/>
<stop offset="0.54" stop-color="#808080" stop-opacity="0.12"/>
<stop offset="1" stop-color="#808080" stop-opacity="0.1"/>
</linearGradient>
<linearGradient id="paint2_linear" x1="75708.3" y1="175405" x2="75708.3" y2="87725.1" gradientUnits="userSpaceOnUse">
<stop stop-color="#808080" stop-opacity="0.25"/>
<stop offset="0.54" stop-color="#808080" stop-opacity="0.12"/>
<stop offset="1" stop-color="#808080" stop-opacity="0.1"/>
</linearGradient>
<linearGradient id="paint3_linear" x1="85529" y1="77153.5" x2="85529" y2="44718.9" gradientUnits="userSpaceOnUse">
<stop stop-color="#808080" stop-opacity="0.25"/>
<stop offset="0.54" stop-color="#808080" stop-opacity="0.12"/>
<stop offset="1" stop-color="#808080" stop-opacity="0.1"/>
</linearGradient>
<linearGradient id="paint4_linear" x1="116430" y1="169944" x2="116430" y2="88042.9" gradientUnits="userSpaceOnUse">
<stop stop-color="#808080" stop-opacity="0.25"/>
<stop offset="0.54" stop-color="#808080" stop-opacity="0.12"/>
<stop offset="1" stop-color="#808080" stop-opacity="0.1"/>
</linearGradient>
<linearGradient id="paint5_linear" x1="76.0764" y1="270.732" x2="78.356" y2="304.09" gradientUnits="userSpaceOnUse">
<stop stop-color="#FA8544"/>
<stop offset="1" stop-color="#FB8445" stop-opacity="0"/>
</linearGradient>
<linearGradient id="paint6_linear" x1="81.614" y1="291.519" x2="83.4513" y2="316.709" gradientUnits="userSpaceOnUse">
<stop stop-color="#FA8544"/>
<stop offset="1" stop-color="#FB8445" stop-opacity="0"/>
</linearGradient>
<linearGradient id="paint7_linear" x1="74.9582" y1="321.153" x2="76.5993" y2="343.25" gradientUnits="userSpaceOnUse">
<stop stop-color="#FA8544"/>
<stop offset="1" stop-color="#FB8445" stop-opacity="0"/>
</linearGradient>
<linearGradient id="paint8_linear" x1="62.166" y1="342.357" x2="63.7976" y2="364.349" gradientUnits="userSpaceOnUse">
<stop stop-color="#FA8544"/>
<stop offset="1" stop-color="#FB8445" stop-opacity="0"/>
</linearGradient>
<linearGradient id="paint9_linear" x1="65.6701" y1="290.919" x2="67.9114" y2="323.563" gradientUnits="userSpaceOnUse">
<stop stop-color="#FA8544"/>
<stop offset="1" stop-color="#FB8445" stop-opacity="0"/>
</linearGradient>
<linearGradient id="paint10_linear" x1="53.1625" y1="315.625" x2="55.2077" y2="344.25" gradientUnits="userSpaceOnUse">
<stop stop-color="#FA8544"/>
<stop offset="1" stop-color="#FB8445" stop-opacity="0"/>
</linearGradient>
<linearGradient id="paint11_linear" x1="42.44" y1="341.208" x2="44.6095" y2="372.288" gradientUnits="userSpaceOnUse">
<stop stop-color="#FA8544"/>
<stop offset="1" stop-color="#FB8445" stop-opacity="0"/>
</linearGradient>
<linearGradient id="paint12_linear" x1="68.9608" y1="240.176" x2="71.8514" y2="282.475" gradientUnits="userSpaceOnUse">
<stop stop-color="#FA8544"/>
<stop offset="1" stop-color="#FB8445" stop-opacity="0"/>
</linearGradient>
<linearGradient id="paint13_linear" x1="75.9825" y1="266.534" x2="78.3122" y2="298.476" gradientUnits="userSpaceOnUse">
<stop stop-color="#FA8544"/>
<stop offset="1" stop-color="#FB8445" stop-opacity="0"/>
</linearGradient>
<linearGradient id="paint14_linear" x1="67.5429" y1="304.111" x2="69.6238" y2="332.13" gradientUnits="userSpaceOnUse">
<stop stop-color="#FA8544"/>
<stop offset="1" stop-color="#FB8445" stop-opacity="0"/>
</linearGradient>
<linearGradient id="paint15_linear" x1="51.3221" y1="330.996" x2="53.3911" y2="358.882" gradientUnits="userSpaceOnUse">
<stop stop-color="#FA8544"/>
<stop offset="1" stop-color="#FB8445" stop-opacity="0"/>
</linearGradient>
<linearGradient id="paint16_linear" x1="55.7654" y1="265.773" x2="58.6073" y2="307.167" gradientUnits="userSpaceOnUse">
<stop stop-color="#FA8544"/>
<stop offset="1" stop-color="#FB8445" stop-opacity="0"/>
</linearGradient>
<linearGradient id="paint17_linear" x1="39.906" y1="297.101" x2="42.4993" y2="333.398" gradientUnits="userSpaceOnUse">
<stop stop-color="#FA8544"/>
<stop offset="1" stop-color="#FB8445" stop-opacity="0"/>
</linearGradient>
<linearGradient id="paint18_linear" x1="26.3102" y1="329.54" x2="29.0612" y2="368.949" gradientUnits="userSpaceOnUse">
<stop stop-color="#FA8544"/>
<stop offset="1" stop-color="#FB8445" stop-opacity="0"/>
</linearGradient>
<clipPath id="clip0">
<rect width="528" height="389" fill="white"/>
</clipPath>
</defs>
</svg>
