<svg width="100" height="100" viewBox="0 0 100 100" fill="none" xmlns="http://www.w3.org/2000/svg">
<path d="M74.9107 22H25.0893C23.3837 22 22 23.3837 22 25.0893V74.9107C22 76.6187 23.3837 78 25.0893 78H51.9087V56.314H44.6077V47.865H51.9087V41.6233C51.9087 34.3923 56.328 30.4583 62.7797 30.4583C65.8713 30.4583 68.529 30.6847 69.3037 30.7873V38.3473H64.8213C61.3213 38.3473 60.64 40.0297 60.64 42.4797V47.872H69.0027L67.9177 56.342H60.64V78H74.9083C76.6187 78 78 76.6187 78 74.9107V25.0893C78 23.3837 76.6187 22 74.9107 22Z" fill="#3B5998"/>
</svg>
