<svg width="100" height="100" viewBox="0 0 100 100" fill="none" xmlns="http://www.w3.org/2000/svg">
<path d="M37.6325 46.5357V53.9562H49.915C49.4248 57.1437 46.2033 63.292 37.6438 63.292C30.2658 63.292 24.2393 57.172 24.2393 49.6268C24.2393 42.0845 30.2517 35.9645 37.6353 35.9645C41.8428 35.9645 44.6592 37.758 46.2628 39.3022L52.1363 33.6525C48.368 30.125 43.4777 28 37.6438 28C25.6673 27.9943 16 37.6843 16 49.6268C16 61.5693 25.673 71.2593 37.6325 71.2593C50.1275 71.2593 58.4065 62.4817 58.4065 50.1198C58.4065 48.7003 58.2535 47.6123 58.0665 46.5357H37.6325ZM84 46.5357H77.8148V40.3505H71.6297V46.5357H65.4473V52.7152H71.6353V58.9032H77.8375V52.7152H84" fill="#DC4E41"/>
</svg>
