<svg width="100" height="100" viewBox="0 0 100 100" fill="none" xmlns="http://www.w3.org/2000/svg">
<path fill-rule="evenodd" clip-rule="evenodd" d="M37.6325 20.18C40.8325 20.0375 41.85 20 50 20C58.15 20 59.1675 20.03 62.3675 20.18C65.56 20.3275 67.7375 20.8325 69.65 21.575C71.6275 22.3375 73.2975 23.3675 74.965 25.035C76.63 26.7025 77.66 28.3775 78.425 30.35C79.165 32.26 79.67 34.44 79.82 37.6325C79.9625 40.8325 80 41.85 80 50C80 58.15 79.97 59.1675 79.82 62.3675C79.6725 65.56 79.165 67.7375 78.425 69.65C77.6625 71.6275 76.63 73.2975 74.965 74.965C73.2975 76.63 71.62 77.66 69.65 78.425C67.7375 79.165 65.56 79.67 62.3675 79.82C59.1675 79.9625 58.15 80 50 80C41.85 80 40.8325 79.97 37.6325 79.82C34.44 79.6725 32.265 79.165 30.35 78.425C28.375 77.6625 26.7025 76.63 25.035 74.965C23.3675 73.2975 22.34 71.62 21.575 69.65C20.8325 67.7375 20.33 65.56 20.18 62.3675C20.0375 59.1675 20 58.15 20 50C20 41.85 20.03 40.8325 20.18 37.6325C20.3275 34.4375 20.8325 32.2625 21.575 30.35C22.3375 28.375 23.3675 26.7025 25.035 25.035C26.7025 23.3675 28.3775 22.34 30.35 21.575C32.2625 20.8325 34.4375 20.33 37.6325 20.18ZM50 34.5952C41.4875 34.5952 34.595 41.4952 34.595 50.0002C34.595 58.5127 41.495 65.4052 50 65.4052C58.5125 65.4052 65.405 58.5052 65.405 50.0002C65.405 41.4877 58.505 34.5952 50 34.5952ZM50 60.0002C44.475 60.0002 40 55.5252 40 50.0002C40 44.4752 44.475 40.0002 50 40.0002C55.525 40.0002 60 44.4752 60 50.0002C60 55.5252 55.525 60.0002 50 60.0002ZM69.4174 33.8889C69.4174 35.8219 67.8467 37.3901 65.9162 37.3901C63.9833 37.3901 62.415 35.8195 62.415 33.8889C62.415 31.9584 63.9857 30.3901 65.9162 30.3901C67.8443 30.3877 69.4174 31.9584 69.4174 33.8889Z" fill="#E4405F"/>
</svg>
