<svg width="100" height="100" viewBox="0 0 100 100" fill="none" xmlns="http://www.w3.org/2000/svg">
<path d="M69.7097 69.7213H61.417V56.727C61.417 53.6283 61.354 49.6407 57.0957 49.6407C52.772 49.6407 52.1117 53.0123 52.1117 56.4983V69.7213H43.819V43H51.785V46.6423H51.8923C53.0053 44.5423 55.712 42.3257 59.7557 42.3257C68.158 42.3257 69.712 47.8557 69.712 55.054V69.7213H69.7097ZM34.453 39.3437C31.7837 39.3437 29.6393 37.183 29.6393 34.5253C29.6393 31.87 31.786 29.7117 34.453 29.7117C37.113 29.7117 39.269 31.87 39.269 34.5253C39.269 37.183 37.1107 39.3437 34.453 39.3437ZM38.611 69.7213H30.295V43H38.611V69.7213ZM73.8583 22H26.1323C23.848 22 22 23.806 22 26.0343V73.9657C22 76.1963 23.848 78 26.1323 78H73.8513C76.1333 78 78 76.1963 78 73.9657V26.0343C78 23.806 76.1333 22 73.8513 22H73.8583Z" fill="#0077B5"/>
</svg>
