<svg width="100" height="100" viewBox="0 0 100 100" fill="none" xmlns="http://www.w3.org/2000/svg">
<path d="M50.5493 20.0027C53.1894 20.0027 62.1415 20.7414 66.3628 30.2302C67.7735 33.4234 67.4375 38.8464 67.1602 43.204L67.1522 43.3646C67.1202 43.8464 67.0935 44.288 67.0722 44.7297C67.2722 44.8501 67.6135 44.9706 68.1415 44.9706C68.9415 44.9277 69.8989 44.6494 70.8962 44.1649C71.3362 43.9293 71.8136 43.8865 72.1336 43.8865C72.6189 43.8865 73.0909 43.9641 73.4909 44.1274C74.6909 44.5262 75.4483 45.4095 75.4483 46.3704C75.4883 47.5723 74.4083 48.6162 72.2136 49.4968C71.9762 49.5744 71.6562 49.6975 71.2962 49.8153C70.0962 50.1767 68.2589 50.7789 67.7415 51.9834C67.5015 52.583 67.5789 53.386 68.0615 54.3067L68.1015 54.3469C68.2615 54.7109 72.1709 63.6483 80.8777 65.091C81.5577 65.2088 82.0377 65.8137 81.9977 66.4534C81.9977 66.6542 81.9577 66.8522 81.8777 67.0557C81.2377 68.5787 78.483 69.7002 73.4883 70.4577C73.3309 70.7013 73.1682 71.4615 73.0509 71.9834C72.9736 72.4625 72.8536 72.947 72.6936 73.4636C72.4909 74.189 71.9736 74.5476 71.2136 74.5476H71.1336C70.7736 74.5476 70.2989 74.4647 69.6989 74.3496C68.7389 74.1488 67.6589 73.9882 66.3042 73.9882C65.5042 73.9882 64.7068 74.0284 63.8695 74.1863C62.2695 74.4647 60.8748 75.4283 59.2748 76.5525C57.0001 78.1558 54.4054 80 50.4907 80C50.3307 80 50.1733 79.9599 50.0107 79.9599H49.6133C45.6986 79.9599 43.1413 78.1531 40.8692 76.5123C39.2719 75.3881 37.9172 74.4272 36.3172 74.1461C35.4798 74.0257 34.6398 73.9481 33.8425 73.9481C32.4025 73.9481 31.2878 74.1863 30.4505 74.3469C29.8878 74.462 29.4078 74.545 29.0104 74.545C28.0131 74.545 27.6158 73.9454 27.4558 73.4208C27.2931 72.9069 27.2158 72.3796 27.0958 71.9031C26.9731 71.4186 26.8158 70.5808 26.6531 70.3774C21.5384 69.7832 18.7863 68.659 18.149 67.0958C18.0663 66.9272 18.0103 66.6943 18.0023 66.4936C17.9623 65.8432 18.4423 65.2489 19.1223 65.1312C27.8264 63.6858 31.7358 54.7484 31.8985 54.371L31.9411 54.2934C32.4211 53.3699 32.5385 52.5669 32.2585 51.9673C31.7385 50.8057 29.9011 50.2061 28.7064 49.8019C28.3838 49.7243 28.0664 49.6039 27.7838 49.4834C24.8317 48.3191 24.4317 46.9941 24.5917 46.076C24.8317 44.7939 26.3891 43.9534 27.7064 43.9534C28.0958 43.9534 28.4264 44.031 28.7278 44.1515C29.8478 44.6708 30.8318 44.9545 31.6718 44.9545C32.2958 44.9545 32.6958 44.7939 32.9118 44.6734L32.7892 43.1504C32.5278 38.7982 32.1891 33.3779 33.6078 30.2034C37.7119 20.7628 46.6373 20.0401 49.272 20.0401L50.3893 20H50.5493V20.0027Z" fill="#E99928"/>
</svg>
