<svg width="100" height="100" viewBox="0 0 100 100" fill="none" xmlns="http://www.w3.org/2000/svg">
<path d="M81.8747 30.1944C79.5148 31.2317 76.9949 31.9383 74.3417 32.261C77.0455 30.6317 79.1255 28.0638 80.1094 25C77.5735 26.4799 74.763 27.5572 71.7711 28.1572C69.3819 25.5999 65.9767 24 62.1955 24C54.9505 24 49.076 29.8744 49.076 37.1115C49.076 38.1514 49.196 39.1514 49.4147 40.1087C38.5085 39.594 28.8422 34.3569 22.3732 26.4399C21.2345 28.3652 20.5972 30.6024 20.5972 33.0396C20.5972 37.5994 22.9171 41.6073 26.4316 43.9618C24.2797 43.8925 22.2558 43.3005 20.4906 42.3192V42.4819C20.4906 48.8416 25.005 54.1454 31.0128 55.3534C29.9115 55.6493 28.7489 55.8093 27.5569 55.8093C26.7196 55.8093 25.917 55.7293 25.1144 55.58C26.797 60.7878 31.6341 64.585 37.3912 64.6916C32.9114 68.2088 27.2343 70.3047 21.1199 70.3047C20.0799 70.3047 19.0426 70.2434 18 70.1261C23.8371 73.8433 30.7141 76.0165 38.1512 76.0165C62.2942 76.0165 75.4803 56.028 75.4803 38.7221C75.4803 38.1647 75.4803 37.6021 75.4403 37.0421C78.0028 35.2049 80.2401 32.8823 82 30.2477L81.8747 30.1944Z" fill="#1DA1F2"/>
</svg>
