<?xml version="1.0" encoding="utf-8"?>
<!-- Generator: Adobe Illustrator 23.0.2, SVG Export Plug-In . SVG Version: 6.00 Build 0)  -->
<svg version="1.1" id="Layer_1" xmlns="http://www.w3.org/2000/svg" xmlns:xlink="http://www.w3.org/1999/xlink" x="0px" y="0px"
	 viewBox="0 0 490.12 490.12" style="enable-background:new 0 0 490.12 490.12;" xml:space="preserve">
<style type="text/css">
	.st0{fill:#057193;}
</style>
<g>
	<g>
		<path d="M84.01,87.56c86.8-88.8,229.6-90.5,318.4-3.7l-25.3,0.3c-5.5,0.1-9.8,4.5-9.8,10c0.1,5.4,4.5,9.8,9.9,9.8h0.1l49.2-0.6
			c5.5-0.1,9.8-4.5,9.8-10l-0.6-49.2c-0.1-5.5-4.5-9.9-10-9.8s-9.8,4.5-9.8,10l0.3,25.3c-96.6-94.4-252-92.5-346.4,4.1
			c-32.7,33.5-55.1,75.3-64.6,121c-9.3,44.5-6.1,90.5,9.2,133.2c1.5,4,5.3,6.6,9.3,6.6c1.1,0,2.2-0.2,3.3-0.6
			c5.1-1.8,7.8-7.5,6-12.7C3.71,239.36,23.21,149.76,84.01,87.56z"/>
		<path d="M73.91,420.36c46.1,45,106.8,69.7,171.1,69.7c1,0,1.9,0,2.9,0c65.5-0.8,126.7-26.9,172.4-73.8
			c32.8-33.5,55.1-75.4,64.6-121.1c9.3-44.5,6.1-90.5-9.2-133.2c-1.8-5.1-7.5-7.8-12.7-6c-5.1,1.8-7.8,7.5-6,12.7
			c29.4,81.9,9.9,171.5-50.9,233.7c-42.1,43-98.3,67.1-158.5,67.8c-60.1,0.7-116.9-22.1-159.9-64.1l25.3-0.3c5.5-0.1,9.8-4.5,9.8-10
			c-0.1-5.4-4.5-9.8-9.9-9.8h-0.1l-49.2,0.6c-2.6,0-5.1,1.1-7,3c-1.8,1.9-2.8,4.4-2.8,7l0.6,49.2c0.1,5.4,4.5,9.8,9.9,9.8h0.1
			c5.5-0.1,9.8-4.5,9.8-10L73.91,420.36z"/>
		<path class="st0" d="M382.01,188.16c-21.9-52.7-71.5-87.7-127.9-91.1c-1-0.1-2.1-0.1-3.2-0.2c-0.1,0-0.3,0-0.4,0
			c-0.6,0-1.2-0.1-1.8-0.1c-0.1,0-0.2,0-0.3,0c-1.1,0-2.2-0.1-3.4-0.1c-19.5,0-38.5,3.8-56.6,11.3c-36.6,15.1-65.1,43.6-80.2,80.2
			c-15.2,36.6-15.2,76.9,0,113.4c23,55.6,76.8,91.6,137,91.6c0.8,0,1.5,0,2.3-0.1c0.4,0,0.9,0.1,1.3,0.1c0.2,0,0.4,0,0.5-0.1
			c0.9,0,1.7-0.1,2.6-0.1c0.3,0,0.6,0,1,0c0.3,0,0.5,0,0.8-0.1c16.5-0.9,32.7-4.6,48.2-11c36.6-15.1,65.1-43.6,80.2-80.2
			s15.2-76.9,0-113.4C382.01,188.26,382.01,188.26,382.01,188.16C382.01,188.26,382.01,188.26,382.01,188.16z M193.41,127.46
			c-11,14.3-19.8,33-25.6,54.7h-34.7C146.61,157.96,167.61,138.86,193.41,127.46z M124.11,202.06h39.4c-2.3,13.5-3.5,27.9-3.5,43
			c0,14.9,1.3,29.4,3.8,43h-39.7C114.11,260.06,114.11,229.96,124.11,202.06z M133.11,307.76h35.3c6.2,22.1,15.6,41.2,27.1,55.8
			C169.31,352.56,147.21,333.16,133.11,307.76z M238.81,371.96c-20.7-6.1-39.1-30.9-49.6-64.2h49.6V371.96L238.81,371.96z
			 M238.81,287.96h-54.7c-2.8-13.6-4.3-28.1-4.3-43c0-15.1,1.4-29.6,3.8-43h55.2V287.96z M238.81,182.26h-50.5
			c10.1-34.4,28.5-58.7,50.5-64.3V182.26z M357.11,182.16h-27.5c-5.1-19.1-12.4-35.8-21.6-49.2
			C328.31,144.36,345.41,161.26,357.11,182.16z M258.61,117.86c22,5.7,40.3,30,50.5,64.3h-50.5V117.86z M258.61,202.06h55.2
			c2.5,13.4,3.8,27.8,3.8,43c0,14.9-1.5,29.4-4.3,43h-54.7V202.06z M258.61,371.96v-64.2h49.6
			C297.71,341.06,279.31,365.86,258.61,371.96z M306.01,358.06c9.7-13.7,17.6-30.9,23.1-50.3h28
			C345.21,329.16,327.61,346.46,306.01,358.06z M366.11,287.96h-32.5c2.5-13.6,3.8-28,3.8-43c0-15.1-1.2-29.5-3.5-43h32.2
			C376.11,229.96,376.11,260.06,366.11,287.96z"/>
	</g>
</g>
</svg>
