<?xml version="1.0" encoding="utf-8"?>
<!-- Generator: Adobe Illustrator 23.0.2, SVG Export Plug-In . SVG Version: 6.00 Build 0)  -->
<!DOCTYPE svg PUBLIC "-//W3C//DTD SVG 1.1//EN" "http://www.w3.org/Graphics/SVG/1.1/DTD/svg11.dtd" [
	<!ENTITY ns_extend "http://ns.adobe.com/Extensibility/1.0/">
	<!ENTITY ns_ai "http://ns.adobe.com/AdobeIllustrator/10.0/">
	<!ENTITY ns_graphs "http://ns.adobe.com/Graphs/1.0/">
	<!ENTITY ns_vars "http://ns.adobe.com/Variables/1.0/">
	<!ENTITY ns_imrep "http://ns.adobe.com/ImageReplacement/1.0/">
	<!ENTITY ns_sfw "http://ns.adobe.com/SaveForWeb/1.0/">
	<!ENTITY ns_custom "http://ns.adobe.com/GenericCustomNamespace/1.0/">
	<!ENTITY ns_adobe_xpath "http://ns.adobe.com/XPath/1.0/">
]>
<svg version="1.1" id="Lager_1" xmlns:x="&ns_extend;" xmlns:i="&ns_ai;" xmlns:graph="&ns_graphs;"
	 xmlns="http://www.w3.org/2000/svg" xmlns:xlink="http://www.w3.org/1999/xlink" x="0px" y="0px" viewBox="0 0 45 45"
	 style="enable-background:new 0 0 45 45;" xml:space="preserve">
<style type="text/css">
	.st0{fill:#242326;}
</style>
<metadata>
	<sfw  xmlns="&ns_sfw;">
		<slices></slices>
		<sliceSourceBounds  bottomLeftOrigin="true" height="45" width="45" x="0" y="0"></sliceSourceBounds>
	</sfw>
</metadata>
<path class="st0" d="M43.8,34.7l-9.1-6.1c-1.2-0.8-2.7-0.5-3.6,0.6l-2.6,3.4c-0.3,0.5-1,0.6-1.5,0.3l-0.5-0.3c-1.7-0.9-3.8-2-8-6.2
	s-5.3-6.3-6.2-7.9L12.1,18c-0.3-0.5-0.1-1.1,0.3-1.5l3.4-2.6c1.1-0.9,1.3-2.4,0.6-3.6l-6.1-9.1C9.5,0,7.9-0.3,6.7,0.4L2.9,2.7
	C1.7,3.4,0.8,4.5,0.5,5.8c-1.4,5-0.3,13.6,12.4,26.3C22.9,42.3,30.5,45,35.6,45c1.2,0,2.4-0.2,3.5-0.5c1.3-0.4,2.5-1.2,3.2-2.5
	l2.3-3.8C45.4,37.1,45,35.5,43.8,34.7z M43.3,37.5L41,41.3c-0.5,0.9-1.3,1.5-2.3,1.8c-4.6,1.3-12.7,0.2-24.9-12S0.6,10.9,1.9,6.2
	c0.3-1,0.9-1.8,1.8-2.3l3.8-2.3C8,1.3,8.7,1.5,9,2l3.3,5l2.8,4.1c0.3,0.5,0.2,1.2-0.3,1.5l-3.4,2.7c-1,0.8-1.3,2.2-0.7,3.4l0.3,0.5
	c1,1.8,2.2,3.9,6.5,8.3S24,33,25.8,34l0.5,0.3c1.1,0.6,2.6,0.3,3.4-0.7l2.7-3.4c0.4-0.5,1-0.6,1.5-0.3L43,36
	C43.5,36.3,43.7,37,43.3,37.5z M25.5,7.5c7,0,12.7,5.7,12.8,12.8c0,0.4,0.3,0.8,0.8,0.8s0.8-0.3,0.8-0.8C39.7,12.4,33.4,6,25.5,6
	c-0.4,0-0.8,0.3-0.8,0.8S25.1,7.5,25.5,7.5L25.5,7.5z"/>
<path class="st0" d="M25.5,12c4.5,0,8.2,3.7,8.3,8.3c0,0.4,0.3,0.8,0.8,0.8s0.8-0.3,0.8-0.8c0-5.4-4.4-9.7-9.8-9.8
	c-0.4,0-0.8,0.3-0.8,0.8C24.8,11.7,25.1,12,25.5,12z"/>
<path class="st0" d="M25.5,16.5c2.1,0,3.8,1.7,3.8,3.8c0,0.4,0.3,0.8,0.8,0.8s0.8-0.3,0.8-0.8c0-2.9-2.4-5.3-5.3-5.3
	c-0.4,0-0.8,0.3-0.8,0.8S25.1,16.5,25.5,16.5L25.5,16.5z"/>
</svg>
