<?xml version="1.0" encoding="UTF-8" standalone="no"?>
<!DOCTYPE svg PUBLIC "-//W3C//DTD SVG 1.1//EN" "http://www.w3.org/Graphics/SVG/1.1/DTD/svg11.dtd">
<svg width="100%" height="100%" viewBox="0 0 136 132" version="1.1" xmlns="http://www.w3.org/2000/svg" xmlns:xlink="http://www.w3.org/1999/xlink" xml:space="preserve" xmlns:serif="http://www.serif.com/" style="fill-rule:evenodd;clip-rule:evenodd;stroke-linejoin:round;stroke-miterlimit:1.41421;">
    <g transform="matrix(1,0,0,1,-1577.33,-1350.35)">
        <g transform="matrix(4.16667,0,0,4.16667,0,-2759.1)">
            <rect x="378.609" y="1012.24" width="5.705" height="5.705" style="fill:rgb(0,51,89);"/>
        </g>
        <g transform="matrix(4.16667,0,0,4.16667,0,-2782.37)">
            <rect x="387.524" y="1012.24" width="5.705" height="11.289" style="fill:rgb(0,51,89);"/>
        </g>
        <g transform="matrix(4.16667,0,0,4.16667,0,-2807.66)">
            <rect x="396.438" y="1012.24" width="5.705" height="17.358" style="fill:rgb(0,51,89);"/>
        </g>
        <g transform="matrix(4.16667,0,0,4.16667,0,-2833.45)">
            <rect x="405.353" y="1012.24" width="5.705" height="23.548" style="fill:rgb(0,51,89);"/>
        </g>
        <g transform="matrix(4.16667,0,0,4.16667,1685.76,1442.4)">
            <path d="M-9.78,-21.492L-7.945,-19.257L-26.022,-4.408L-22.4,0L-4.324,-14.849L-2.398,-12.504L0,-22.092L-9.78,-21.492Z" style="fill:rgb(0,51,89);fill-rule:nonzero;"/>
        </g>
    </g>
</svg>
