<?xml version="1.0" encoding="UTF-8" standalone="no"?>
<!DOCTYPE svg PUBLIC "-//W3C//DTD SVG 1.1//EN" "http://www.w3.org/Graphics/SVG/1.1/DTD/svg11.dtd">
<svg width="100%" height="100%" viewBox="0 0 180 138" version="1.1" xmlns="http://www.w3.org/2000/svg" xmlns:xlink="http://www.w3.org/1999/xlink" xml:space="preserve" xmlns:serif="http://www.serif.com/" style="fill-rule:evenodd;clip-rule:evenodd;stroke-linejoin:round;stroke-miterlimit:1.41421;">
    <g transform="matrix(1,0,0,1,-2609.85,-1349.76)">
        <g transform="matrix(4.16667,0,0,4.16667,2736.24,1445.73)">
            <path d="M0,-21.022L-28.325,-21.022L-28.325,0L-12.634,0C-11.491,0.702 -10.25,1.377 -8.944,2.011L-28.366,2.011C-29.452,2.011 -30.335,1.128 -30.335,0.042L-30.335,-21.064C-30.335,-22.15 -29.452,-23.033 -28.366,-23.033L0.042,-23.033C1.128,-23.033 2.011,-22.15 2.011,-21.064L2.011,-16.139C1.276,-15.877 0.597,-15.498 0,-15.018L0,-21.022Z" style="fill:rgb(0,51,89);fill-rule:nonzero;"/>
        </g>
        <g transform="matrix(4.16667,0,0,4.16667,2770.9,1432.14)">
            <path d="M0,8.744L-1.185,8.744L-1.551,13.318L-10.291,13.318L-10.291,5.786C-15.116,4.205 -19.352,1.962 -22.082,-0.089C-23.242,-0.962 -23.444,-2.549 -22.469,-3.733C-22.026,-4.27 -21.359,-4.574 -20.703,-4.574C-20.366,-4.574 -20.031,-4.493 -19.73,-4.324C-13.613,-0.888 -10.459,-0.155 -7.234,-0.008L-4.002,2.483L-1.004,0.224C2.322,0.821 4.546,2.795 4.546,6.896L4.546,13.318L0,13.318L0,8.744Z" style="fill:rgb(0,51,89);fill-rule:nonzero;"/>
        </g>
        <g transform="matrix(4.16667,0,0,4.16667,2754.22,1384.63)">
            <path d="M0,10.044C-2.774,10.044 -5.022,7.795 -5.022,5.023C-5.022,2.248 -2.774,0 0,0C2.774,0 5.021,2.248 5.021,5.023C5.021,7.795 2.774,10.044 0,10.044" style="fill:rgb(0,51,89);fill-rule:nonzero;"/>
        </g>
        <g transform="matrix(-4.16667,-0,0,4.16667,5353.16,-2955.9)">
            <rect x="630.619" y="1037.62" width="23.521" height="2.186" style="fill:rgb(0,51,89);"/>
        </g>
        <g transform="matrix(-4.16667,-0,0,4.16667,5353.16,-2918.56)">
            <rect x="630.619" y="1033.13" width="23.521" height="2.187" style="fill:rgb(0,51,89);"/>
        </g>
        <g transform="matrix(-4.16667,-0,0,4.16667,5293.2,-2881.21)">
            <rect x="630.618" y="1028.65" width="9.133" height="2.187" style="fill:rgb(0,51,89);"/>
        </g>
    </g>
</svg>
