<svg xmlns="http://www.w3.org/2000/svg" viewBox="0 0 377.61 76"><defs><style>.cls-1{fill:#2d7c7c;}.cls-2{fill:#112742;}</style></defs><title>Asset 1</title><g id="Layer_2" data-name="Layer 2"><g id="content"><path class="cls-1" d="M94.21,62.33a4.76,4.76,0,0,1-.08-6.84,5.24,5.24,0,0,1,3.8-1.28,11.8,11.8,0,0,1,1.74.12c.45.06.84.17,1.2.2.13,0,.18.07.18.15s0,.24-.06.66,0,1.06,0,1.3,0,.27-.15.27-.12-.1-.12-.26a1.73,1.73,0,0,0-.47-1.11,3.58,3.58,0,0,0-2.44-.75,3.12,3.12,0,0,0-2.26.75,4.49,4.49,0,0,0,2.68,7.39,2.61,2.61,0,0,0,2.2-.68,1.93,1.93,0,0,0,.41-.79c0-.19.07-.24.16-.24s.11.08.11.18a10.73,10.73,0,0,1-.27,1.6.42.42,0,0,1-.31.35,6.92,6.92,0,0,1-2.17.28,6,6,0,0,1-4.12-1.31"/><path class="cls-1" d="M102.59,59.66a3.87,3.87,0,0,1,4.15-3.94c2.5,0,4.06,1.46,4.06,3.76a4,4,0,0,1-4.17,4.13,3.83,3.83,0,0,1-4.05-3.94m6.81.19c0-2.26-1.3-3.65-2.95-3.65-1.16,0-2.47.65-2.47,3.15,0,2.09,1.16,3.75,3.09,3.75.7,0,2.33-.34,2.33-3.25"/><path class="cls-1" d="M114.41,60.55c0,1.29,0,2,.21,2.16s.43.22,1.22.22c.53,0,.92,0,1.18-.28a1.24,1.24,0,0,0,.26-.61c0-.09,0-.15.11-.15s.08.05.08.17a8,8,0,0,1-.15,1.16c-.06.22-.11.27-.63.27-1.45,0-2.11-.06-2.93-.06l-1.27,0c-.13,0-.2,0-.2-.1s0-.08.16-.08a1.54,1.54,0,0,0,.36,0c.2,0,.25-.26.29-.55s.05-1.22.05-2.14V58.78c0-1.53,0-1.81,0-2.13s-.1-.5-.43-.58a1.67,1.67,0,0,0-.33,0c-.11,0-.17,0-.17-.09s.07-.09.22-.09l1.38,0,1.37,0c.14,0,.21,0,.21.09s-.06.09-.18.09l-.39,0c-.27.05-.35.22-.37.58s0,.6,0,2.13Z"/><path class="cls-1" d="M119.41,58.78c0-1.53,0-1.81,0-2.13s-.1-.5-.43-.58a2.22,2.22,0,0,0-.39,0c-.11,0-.17,0-.17-.09s.07-.09.22-.09c.53,0,1.17,0,1.47,0l1.23,0c.16,0,.22,0,.22.09s-.06.09-.16.09a1.62,1.62,0,0,0-.29,0c-.27.05-.35.22-.37.58s0,.6,0,2.13v1.4c0,1.46.29,2.07.79,2.48a1.86,1.86,0,0,0,1.26.41,2,2,0,0,0,1.39-.54,3.47,3.47,0,0,0,.58-2.5V58.78c0-1.53,0-1.81,0-2.13s-.1-.5-.43-.58a2.06,2.06,0,0,0-.36,0c-.11,0-.17,0-.17-.09s.07-.09.21-.09c.51,0,1.15,0,1.16,0s.76,0,1.15,0c.14,0,.21,0,.21.09s-.06.09-.18.09a1.54,1.54,0,0,0-.29,0c-.28.05-.35.22-.37.58s0,.6,0,2.13v1.08a3.79,3.79,0,0,1-1,3,3,3,0,0,1-2.09.73,3.23,3.23,0,0,1-2.23-.69,3.3,3.3,0,0,1-.9-2.67Z"/><path class="cls-1" d="M128.86,55.9c0-.17.09-.26.17-.26s.14.05.27.31L132,61.62l2.74-5.75c.07-.16.13-.24.22-.24s.15.1.18.31l.92,6.21c.09.64.19.92.49,1a2,2,0,0,0,.62.1c.09,0,.16,0,.16.07s-.12.11-.26.11-1.64,0-2-.06c-.23,0-.29,0-.29-.11s0-.08.11-.11.09-.15.05-.43l-.6-4.42h0l-2.19,4.57c-.23.47-.28.56-.37.56s-.19-.2-.35-.5c-.24-.47-1-2-1.16-2.28s-.69-1.48-1-2.23h0l-.52,4a4,4,0,0,0,0,.47c0,.19.13.28.3.32a2,2,0,0,0,.42,0c.08,0,.15,0,.15.07s-.09.11-.24.11c-.42,0-.88,0-1.05,0l-1,0c-.1,0-.18,0-.18-.11s.06-.07.16-.07a1.28,1.28,0,0,0,.3,0c.28-.06.36-.45.41-.79Z"/><path class="cls-1" d="M139.59,58.78c0-1.53,0-1.81,0-2.13s-.1-.5-.44-.58a2.19,2.19,0,0,0-.39,0c-.11,0-.17,0-.17-.09s.07-.09.22-.09c.53,0,1.17,0,1.37,0,.49,0,.88,0,1.23,0,1.82,0,2.14,1,2.14,1.51a2.2,2.2,0,0,1-1,1.76,2.45,2.45,0,0,1,1.83,2.17c0,1.08-.84,2.19-2.69,2.19-.24,0-1.16-.06-1.46-.06l-1.26,0c-.13,0-.2,0-.2-.1s0-.08.16-.08a1.6,1.6,0,0,0,.36,0c.2,0,.25-.26.29-.55s.05-1.22.05-2.14Zm1.21.17c0,.08,0,.1.07.11a2.48,2.48,0,0,0,.47,0,1,1,0,0,0,.72-.19,1.29,1.29,0,0,0,.41-1.06c0-.67-.39-1.56-1.25-1.56a1.59,1.59,0,0,0-.33,0c-.07,0-.09.06-.09.17Zm1.33.8a1.44,1.44,0,0,0-.83-.24h-.43s-.06,0-.06.07V62c0,.66,0,.83.35,1a1.84,1.84,0,0,0,.73.12,1.17,1.17,0,0,0,1.22-1.28,2.4,2.4,0,0,0-1-2"/><path class="cls-1" d="M146.57,58.78c0-1.53,0-1.81,0-2.13s-.12-.52-.34-.56a1.41,1.41,0,0,0-.36,0c-.1,0-.16,0-.16-.1s.08-.08.24-.08l1.31,0,1.23,0c.13,0,.21,0,.21.08s-.06.1-.16.1l-.3,0c-.27.05-.35.22-.37.58s0,.6,0,2.13v1.77c0,1,0,1.77,0,2.2,0,.27.1.45.41.49a4,4,0,0,0,.51,0c.11,0,.16,0,.16.08s-.08.1-.19.1c-.67,0-1.3,0-1.57,0l-1.27,0c-.13,0-.2,0-.2-.1s0-.08.16-.08a1.6,1.6,0,0,0,.36,0c.2,0,.26-.21.29-.5s.05-1.22.05-2.19Z"/><path class="cls-1" d="M152.69,60.84c-.05,0-.07,0-.09.08l-.54,1.44a2,2,0,0,0-.15.61c0,.18.09.31.4.31h.15c.12,0,.15,0,.15.08s-.06.1-.17.1l-1.06,0c-.11,0-.66,0-1.19,0-.13,0-.19,0-.19-.1s0-.08.12-.08l.31,0c.46-.06.66-.4.86-.9L153.81,56c.12-.29.18-.4.28-.4s.15.09.26.32c.24.55,1.85,4.66,2.49,6.19.38.9.68,1,.89,1.1a2.27,2.27,0,0,0,.42,0c.08,0,.13,0,.13.08s-.09.1-.46.1-1.09,0-1.9,0c-.18,0-.3,0-.3-.08s0-.08.14-.09a.16.16,0,0,0,.09-.23L155,60.91a.1.1,0,0,0-.1-.07Zm2-.5c.05,0,.06,0,.05-.06l-.91-2.48s0-.09,0-.09-.05.05-.06.09l-.92,2.48s0,.07,0,.07Z"/><path class="cls-1" d="M163.47,57.87c0-1.83,0-2.16,0-2.55s-.12-.6-.52-.69a2.42,2.42,0,0,0-.47,0c-.13,0-.2,0-.2-.11s.08-.11.26-.11c.64,0,1.4,0,1.76,0s1,0,1.48,0c.18,0,.26,0,.26.11s-.07.11-.19.11a1.79,1.79,0,0,0-.35,0c-.32.06-.42.26-.45.69s0,.72,0,2.55v1.68c0,1.74.35,2.47.94,3a2.24,2.24,0,0,0,1.5.49,2.36,2.36,0,0,0,1.66-.65c.66-.66.7-1.74.7-3v-1.5c0-1.83,0-2.16,0-2.55s-.12-.6-.52-.69a2.31,2.31,0,0,0-.43,0c-.13,0-.2,0-.2-.11s.08-.11.25-.11c.61,0,1.37,0,1.37,0,.15,0,.91,0,1.38,0,.17,0,.26,0,.26.11s-.07.11-.22.11a1.82,1.82,0,0,0-.35,0c-.32.06-.42.26-.44.69s0,.72,0,2.55v1.29c0,1.33-.13,2.75-1.14,3.62a3.59,3.59,0,0,1-2.5.87,3.87,3.87,0,0,1-2.67-.83,4,4,0,0,1-1.07-3.19Z"/><path class="cls-1" d="M174.33,62.09c0,.79.15,1,.35,1.12a1.61,1.61,0,0,0,.52.07c.11,0,.17,0,.17.08s-.09.1-.23.1c-.65,0-1.06,0-1.25,0s-.56,0-1.08,0c-.13,0-.22,0-.22-.1s.06-.08.16-.08a1.84,1.84,0,0,0,.45,0c.26-.08.3-.37.31-1.25l.09-6c0-.2,0-.34.13-.34s.2.13.37.31,1.65,1.77,3.12,3.23c.68.68,2,2.13,2.21,2.29h.05l-.1-4.51c0-.62-.1-.81-.34-.91a1.7,1.7,0,0,0-.54-.06c-.12,0-.16,0-.16-.09s.11-.09.26-.09c.52,0,1,0,1.21,0s.49,0,1,0c.13,0,.23,0,.23.09s-.06.09-.18.09a1.19,1.19,0,0,0-.3,0c-.28.08-.36.29-.37.86l-.11,6.34c0,.22,0,.31-.13.31s-.23-.11-.34-.22c-.63-.6-1.92-1.92-3-3s-2.21-2.34-2.39-2.53h0Z"/><path class="cls-1" d="M183.62,58.78c0-1.53,0-1.81,0-2.13s-.12-.52-.34-.56a1.4,1.4,0,0,0-.36,0c-.1,0-.16,0-.16-.1s.08-.08.24-.08l1.31,0,1.23,0c.13,0,.21,0,.21.08s-.06.1-.16.1l-.3,0c-.27.05-.35.22-.37.58s0,.6,0,2.13v1.77c0,1,0,1.77,0,2.2,0,.27.1.45.4.49a4,4,0,0,0,.51,0c.11,0,.16,0,.16.08s-.08.1-.19.1c-.66,0-1.3,0-1.57,0l-1.27,0c-.13,0-.2,0-.2-.1s0-.08.16-.08a1.58,1.58,0,0,0,.36,0c.2,0,.26-.21.29-.5s0-1.22,0-2.19Z"/><path class="cls-1" d="M188,56.85c-.23-.56-.4-.66-.77-.77a1.51,1.51,0,0,0-.39,0c-.09,0-.12,0-.12-.09s.11-.09.26-.09c.53,0,1.11,0,1.46,0s.73,0,1.24,0c.12,0,.23,0,.23.09s-.06.09-.15.09a.72.72,0,0,0-.39.07.24.24,0,0,0-.1.21,3,3,0,0,0,.23.77l1.73,4.57h0c.43-1.11,1.74-4.34,2-5a1.29,1.29,0,0,0,.09-.37.19.19,0,0,0-.13-.19,1.38,1.38,0,0,0-.4-.05c-.09,0-.17,0-.17-.08s.09-.1.28-.1c.5,0,.92,0,1.06,0l.95,0c.13,0,.21,0,.21.09s-.06.09-.16.09a.88.88,0,0,0-.49.12c-.13.09-.28.26-.55.91-.39.94-.66,1.49-1.21,2.73-.64,1.47-1.12,2.56-1.34,3.07s-.32.74-.46.74-.19-.14-.38-.62Z"/><path class="cls-1" d="M196.76,58.78c0-1.53,0-1.81,0-2.13s-.1-.5-.43-.58a2.23,2.23,0,0,0-.39,0c-.11,0-.17,0-.17-.09s.07-.09.22-.09c.53,0,1.17,0,1.45,0h2.51a3.56,3.56,0,0,0,.43-.06.91.91,0,0,1,.16,0s.06,0,.06.09a6.24,6.24,0,0,0-.08.65c0,.1,0,.54-.05.66s0,.11-.1.11-.09-.05-.09-.14a1.11,1.11,0,0,0-.06-.37c-.07-.18-.17-.3-.67-.36-.17,0-1.23,0-1.43,0,0,0-.07,0-.07.1V59c0,.07,0,.11.07.11.22,0,1.38,0,1.61,0a.7.7,0,0,0,.48-.15c.07-.08.11-.13.16-.13s.07,0,.07.08a6.63,6.63,0,0,0-.08.73c0,.2,0,.6,0,.68s0,.19-.09.19-.09,0-.09-.09a3,3,0,0,0,0-.36c0-.2-.19-.35-.56-.39-.19,0-1.19,0-1.43,0-.05,0-.06,0-.06.1v.8c0,.34,0,1.27,0,1.56,0,.7.18.84,1.21.84a2.58,2.58,0,0,0,.94-.12c.26-.12.38-.33.45-.75,0-.11,0-.15.11-.15s.08.08.08.18a8.18,8.18,0,0,1-.13,1.12c-.07.26-.16.26-.54.26-1.52,0-2.19-.06-2.78-.06l-1.27,0c-.13,0-.2,0-.2-.1s0-.08.16-.08a1.56,1.56,0,0,0,.36,0c.2,0,.25-.26.29-.55s.05-1.22.05-2.14Z"/><path class="cls-1" d="M203.67,58.78c0-1.53,0-1.81,0-2.13s-.1-.5-.43-.58a2.34,2.34,0,0,0-.39,0c-.11,0-.17,0-.17-.09s.07-.09.22-.09c.53,0,1.17,0,1.38,0l1.42,0a3.21,3.21,0,0,1,1.85.43,1.74,1.74,0,0,1,.69,1.38,2.82,2.82,0,0,1-1.33,2.25c.89,1.13,1.59,2,2.18,2.64a2,2,0,0,0,1.13.68l.28,0c.08,0,.12,0,.12.08s-.07.1-.19.1h-1a2,2,0,0,1-1.08-.19A4.89,4.89,0,0,1,207,61.79c-.4-.55-.87-1.24-1-1.39a.21.21,0,0,0-.18-.07l-.87,0c-.05,0-.08,0-.08.08v.14c0,.94,0,1.73.05,2.15s.09.51.39.56l.5,0c.08,0,.12,0,.12.08s-.07.1-.2.1c-.59,0-1.33,0-1.48,0l-1.23,0c-.13,0-.2,0-.2-.1s0-.08.16-.08a1.63,1.63,0,0,0,.36,0c.2,0,.25-.26.29-.56s0-1.22,0-2.14Zm1.19.79c0,.11,0,.15.09.18a2.55,2.55,0,0,0,.76.1,1,1,0,0,0,.71-.17,1.76,1.76,0,0,0,.6-1.51,1.6,1.6,0,0,0-1.54-1.84,2,2,0,0,0-.53,0c-.07,0-.09.06-.09.14Z"/><path class="cls-1" d="M211.32,63.34c-.16-.07-.19-.12-.19-.34,0-.55,0-1.16.05-1.31s0-.26.12-.26.1.09.1.17a2.22,2.22,0,0,0,.09.51,1.39,1.39,0,0,0,1.44,1A1.22,1.22,0,0,0,214.28,62c0-.49-.15-1-1-1.61l-.46-.36a3,3,0,0,1-1.49-2.38c0-1.11.92-1.9,2.32-1.9a5,5,0,0,1,1.34.17c.09,0,.14.05.14.12s0,.42,0,1.21c0,.22,0,.3-.11.3s-.1-.06-.1-.18a1.22,1.22,0,0,0-.26-.67,1.28,1.28,0,0,0-1.1-.5,1.06,1.06,0,0,0-1.2,1c0,.46.23.82,1.07,1.45l.28.21c1.21.94,1.65,1.61,1.65,2.56a2,2,0,0,1-.95,1.75,2.89,2.89,0,0,1-1.6.41,3.47,3.47,0,0,1-1.47-.26"/><path class="cls-1" d="M218.18,58.78c0-1.53,0-1.81,0-2.13s-.12-.52-.34-.56a1.38,1.38,0,0,0-.36,0c-.1,0-.16,0-.16-.1s.08-.08.24-.08l1.3,0,1.23,0c.13,0,.21,0,.21.08s-.06.1-.16.1l-.3,0c-.27.05-.35.22-.37.58s0,.6,0,2.13v1.77c0,1,0,1.77,0,2.2,0,.27.1.45.4.49a4,4,0,0,0,.51,0c.11,0,.16,0,.16.08s-.08.1-.19.1c-.67,0-1.3,0-1.57,0l-1.27,0c-.13,0-.2,0-.2-.1s0-.08.16-.08a1.53,1.53,0,0,0,.36,0c.2,0,.26-.21.3-.5s.05-1.22.05-2.19Z"/><path class="cls-1" d="M225,56.42l-1.5,0c-.58,0-.82.07-1,.29a1.18,1.18,0,0,0-.17.35c0,.08-.05.12-.11.12s-.09-.05-.09-.16.19-1.08.21-1.16.06-.19.12-.19a2.37,2.37,0,0,0,.43.12c.29,0,.67,0,1,0h4a4.47,4.47,0,0,0,1-.1c.07,0,.08.06.08.21s0,.9,0,1.16c0,.1,0,.16-.09.16s-.1,0-.11-.2V57c0-.26-.29-.54-1.19-.56l-1.27,0v4.12c0,.92,0,1.72.05,2.15s.09.5.39.54a4.28,4.28,0,0,0,.51,0c.11,0,.16,0,.16.08s-.08.1-.19.1c-.66,0-1.3,0-1.58,0l-1.26,0c-.13,0-.2,0-.2-.1s0-.08.16-.08a1.63,1.63,0,0,0,.36,0c.2,0,.26-.26.29-.55s.05-1.22.05-2.14Z"/><path class="cls-1" d="M233.39,60.86a2.14,2.14,0,0,0-.23-1.06c-.07-.16-1.42-2.37-1.77-2.9a2.46,2.46,0,0,0-.7-.73,1,1,0,0,0-.42-.13c-.08,0-.15,0-.15-.09s.07-.09.19-.09l1.27,0c.21,0,.62,0,1.08,0,.1,0,.15,0,.15.09s-.07.07-.22.11a.18.18,0,0,0-.14.18.92.92,0,0,0,.12.34c.14.3,1.55,2.72,1.71,3,.1-.24,1.36-2.45,1.51-2.76a1.39,1.39,0,0,0,.14-.53.24.24,0,0,0-.21-.25c-.09,0-.18,0-.18-.1s.05-.09.17-.09l.94,0,1.08,0c.11,0,.18,0,.18.08s-.08.1-.19.1a1.12,1.12,0,0,0-.44.12,1.49,1.49,0,0,0-.54.5,32.34,32.34,0,0,0-1.92,3.2,2.39,2.39,0,0,0-.15,1v.82c0,.16,0,.58,0,1s.11.51.41.55a4.2,4.2,0,0,0,.5,0c.11,0,.16,0,.16.08s-.08.1-.21.1c-.63,0-1.27,0-1.54,0l-1.26,0c-.14,0-.23,0-.23-.1s.05-.08.17-.08a1.61,1.61,0,0,0,.35,0c.2,0,.29-.26.31-.55s0-.85,0-1Z"/><path class="cls-1" d="M76,76H0V0H76ZM3.35,72.65h69.3V3.35H3.35Z"/><polygon class="cls-2" points="100.41 16.84 100.41 17.7 97.44 17.7 97.44 26.93 95.34 26.93 95.34 17.7 92.36 17.7 92.36 16.84 100.41 16.84"/><polygon class="cls-2" points="104.35 22.12 104.35 26.93 102.24 26.93 102.24 16.84 104.35 16.84 104.35 21.26 107.8 21.26 107.8 16.84 109.89 16.84 109.89 26.93 107.8 26.93 107.8 22.12 104.35 22.12"/><polygon class="cls-2" points="119.36 16.84 119.36 17.7 115.06 17.7 115.06 21.03 118.63 21.03 118.63 21.89 115.06 21.89 115.06 25.9 119.36 25.9 119.36 26.93 112.95 26.93 112.95 16.84 119.36 16.84"/><path class="cls-2" d="M128.23,27.08a3.9,3.9,0,0,1-1.35-.21,2.93,2.93,0,0,1-1-.58,2.79,2.79,0,0,1-.64-.89,4,4,0,0,1-.33-1.14h1.46a3.35,3.35,0,0,0,.22.71,2.05,2.05,0,0,0,.37.57,1.62,1.62,0,0,0,.53.38,1.74,1.74,0,0,0,.71.14,2.15,2.15,0,0,0,.53-.07,1.35,1.35,0,0,0,.47-.22,1.13,1.13,0,0,0,.33-.39,1.29,1.29,0,0,0,.13-.6,1.58,1.58,0,0,0-.2-.8,2.42,2.42,0,0,0-.52-.64,4.72,4.72,0,0,0-.73-.53l-.84-.5q-.43-.25-.84-.52a4.22,4.22,0,0,1-.73-.61,2.81,2.81,0,0,1-.52-.77,2.32,2.32,0,0,1-.2-1,2.76,2.76,0,0,1,.22-1.11,2.53,2.53,0,0,1,.65-.88,3,3,0,0,1,1-.59,4.24,4.24,0,0,1,1.4-.21,3.12,3.12,0,0,1,1.17.21,3,3,0,0,1,.93.58,3.27,3.27,0,0,1,.67.86,4.42,4.42,0,0,1,.42,1.06h-1.32a5.92,5.92,0,0,0-.27-.69,2.31,2.31,0,0,0-.37-.57,1.62,1.62,0,0,0-.54-.39,1.76,1.76,0,0,0-.75-.15,1.7,1.7,0,0,0-.7.13,1.27,1.27,0,0,0-.45.32,1.24,1.24,0,0,0-.25.44,1.6,1.6,0,0,0-.07.47,1.35,1.35,0,0,0,.2.73,2.55,2.55,0,0,0,.54.61,5.64,5.64,0,0,0,.76.54l.86.52c.29.17.58.36.86.55a4.88,4.88,0,0,1,.76.63,2.88,2.88,0,0,1,.53.76,2.11,2.11,0,0,1,.2.94,3,3,0,0,1-.22,1.15,2.51,2.51,0,0,1-.64.92,3,3,0,0,1-1.05.61,4.3,4.3,0,0,1-1.45.22"/><path class="cls-2" d="M138.79,27.15a4.77,4.77,0,0,1-1.94-.39,4.64,4.64,0,0,1-1.56-1.11,5.26,5.26,0,0,1-1-1.69,6,6,0,0,1-.38-2.15,5.7,5.7,0,0,1,.38-2.1,5,5,0,0,1,1-1.64A4.66,4.66,0,0,1,136.85,17a4.94,4.94,0,0,1,1.94-.38,4.86,4.86,0,0,1,1.93.38,4.75,4.75,0,0,1,1.56,1.07,5,5,0,0,1,1,1.64,5.57,5.57,0,0,1,.38,2.08,6.36,6.36,0,0,1-.17,1.51,5.46,5.46,0,0,1-.49,1.31,4.92,4.92,0,0,1-.76,1.07,4.66,4.66,0,0,1-1,.8,4.78,4.78,0,0,1-1.18.5,5,5,0,0,1-1.32.17m0-.85a1.87,1.87,0,0,0,1.11-.34,2.67,2.67,0,0,0,.8-.93,5.14,5.14,0,0,0,.49-1.42,9,9,0,0,0,.17-1.8,8.53,8.53,0,0,0-.17-1.76,4.83,4.83,0,0,0-.49-1.37,2.58,2.58,0,0,0-.8-.89,2.1,2.1,0,0,0-2.22,0,2.59,2.59,0,0,0-.8.89,4.73,4.73,0,0,0-.49,1.37,8.68,8.68,0,0,0-.17,1.76,9.17,9.17,0,0,0,.17,1.8,5,5,0,0,0,.49,1.42,2.68,2.68,0,0,0,.8.93,1.88,1.88,0,0,0,1.11.34"/><path class="cls-2" d="M148,21.87a5.43,5.43,0,0,0,.25,1.74,3.92,3.92,0,0,0,.67,1.26,2.83,2.83,0,0,0,1,.77,2.56,2.56,0,0,0,1.13.26,1.93,1.93,0,0,0,.84-.18,2.88,2.88,0,0,0,.73-.49,5.15,5.15,0,0,0,.64-.72c.2-.27.39-.56.57-.86l.88.76a6.45,6.45,0,0,1-.69,1,5.15,5.15,0,0,1-.9.88,4.43,4.43,0,0,1-1.09.6,3.4,3.4,0,0,1-1.25.23,5.38,5.38,0,0,1-2-.38,4.75,4.75,0,0,1-1.61-1.07A4.88,4.88,0,0,1,146,24a5.88,5.88,0,0,1-.38-2.16,6,6,0,0,1,.36-2.12,4.94,4.94,0,0,1,1-1.67,4.61,4.61,0,0,1,1.57-1.1,5,5,0,0,1,2-.39,4.27,4.27,0,0,1,1.35.2,4.08,4.08,0,0,1,1.12.57,4.4,4.4,0,0,1,.9.86,6.64,6.64,0,0,1,.7,1.11l-.89.73a8,8,0,0,0-.59-.86,4.9,4.9,0,0,0-.68-.7,3.11,3.11,0,0,0-.76-.48,2,2,0,0,0-.83-.18,2.53,2.53,0,0,0-1.12.26,2.72,2.72,0,0,0-.94.77,3.92,3.92,0,0,0-.64,1.26,5.68,5.68,0,0,0-.24,1.74"/><rect class="cls-2" x="157.33" y="16.84" width="2.1" height="10.09"/><polygon class="cls-2" points="168.68 16.84 168.68 17.7 164.38 17.7 164.38 21.03 167.96 21.03 167.96 21.89 164.38 21.89 164.38 25.9 168.68 25.9 168.68 26.93 162.27 26.93 162.27 16.84 168.68 16.84"/><polygon class="cls-2" points="178.44 16.84 178.44 17.7 175.47 17.7 175.47 26.93 173.37 26.93 173.37 17.7 170.4 17.7 170.4 16.84 178.44 16.84"/><polygon class="cls-2" points="181.71 16.84 184.53 21.39 187.18 16.84 188.6 16.84 185.25 22.57 185.25 26.93 183.14 26.93 183.14 22.72 179.5 16.84 181.71 16.84"/><path class="cls-2" d="M198.94,27.15a4.75,4.75,0,0,1-1.93-.39,4.63,4.63,0,0,1-1.56-1.11,5.26,5.26,0,0,1-1-1.69,6,6,0,0,1-.38-2.15,5.7,5.7,0,0,1,.38-2.1,5,5,0,0,1,1-1.64A4.65,4.65,0,0,1,197,17a4.93,4.93,0,0,1,1.93-.38,4.87,4.87,0,0,1,1.93.38,4.73,4.73,0,0,1,1.56,1.07,5,5,0,0,1,1,1.64,5.57,5.57,0,0,1,.38,2.08,6.35,6.35,0,0,1-.17,1.51,5.5,5.5,0,0,1-.49,1.31,5,5,0,0,1-.76,1.07,4.69,4.69,0,0,1-2.17,1.3,5,5,0,0,1-1.32.17m0-.85a1.86,1.86,0,0,0,1.11-.34,2.67,2.67,0,0,0,.8-.93,5,5,0,0,0,.49-1.42,8.92,8.92,0,0,0,.17-1.8,8.45,8.45,0,0,0-.17-1.76,4.73,4.73,0,0,0-.49-1.37,2.58,2.58,0,0,0-.8-.89,2.09,2.09,0,0,0-2.22,0,2.59,2.59,0,0,0-.8.89,4.67,4.67,0,0,0-.49,1.37,8.68,8.68,0,0,0-.17,1.76,9.17,9.17,0,0,0,.17,1.8A5,5,0,0,0,197,25a2.68,2.68,0,0,0,.8.93,1.88,1.88,0,0,0,1.11.34"/><polygon class="cls-2" points="212.65 16.84 212.65 17.7 208.59 17.7 208.59 21.03 212.16 21.03 212.16 21.89 208.59 21.89 208.59 26.93 206.48 26.93 206.48 16.84 212.65 16.84"/><polygon class="cls-2" points="224.62 16.84 224.62 17.7 220.56 17.7 220.56 21.03 224.14 21.03 224.14 21.89 220.56 21.89 220.56 26.93 218.45 26.93 218.45 16.84 224.62 16.84"/><polygon class="cls-2" points="233.27 16.84 233.27 17.7 228.97 17.7 228.97 21.03 232.54 21.03 232.54 21.89 228.97 21.89 228.97 25.9 233.27 25.9 233.27 26.93 226.86 26.93 226.86 16.84 233.27 16.84"/><polygon class="cls-2" points="235.52 16.84 237.63 16.84 237.63 25.9 242.01 25.9 242.01 26.93 235.52 26.93 235.52 16.84"/><polygon class="cls-2" points="244.27 16.84 246.38 16.84 246.38 25.9 250.76 25.9 250.76 26.93 244.27 26.93 244.27 16.84"/><path class="cls-2" d="M257.57,27.15a4.75,4.75,0,0,1-1.93-.39,4.63,4.63,0,0,1-1.56-1.11A5.26,5.26,0,0,1,253,24a6,6,0,0,1-.38-2.15,5.72,5.72,0,0,1,.38-2.1,5,5,0,0,1,1-1.64A4.65,4.65,0,0,1,255.64,17a4.93,4.93,0,0,1,1.93-.38,4.87,4.87,0,0,1,1.93.38,4.73,4.73,0,0,1,1.56,1.07,5,5,0,0,1,1,1.64,5.57,5.57,0,0,1,.38,2.08,6.35,6.35,0,0,1-.17,1.51,5.55,5.55,0,0,1-.49,1.31,5,5,0,0,1-.76,1.07,4.69,4.69,0,0,1-2.17,1.3,5,5,0,0,1-1.32.17m0-.85a1.86,1.86,0,0,0,1.11-.34,2.66,2.66,0,0,0,.8-.93,5.07,5.07,0,0,0,.49-1.42,8.92,8.92,0,0,0,.17-1.8,8.45,8.45,0,0,0-.17-1.76,4.76,4.76,0,0,0-.49-1.37,2.57,2.57,0,0,0-.8-.89,2.09,2.09,0,0,0-2.22,0,2.59,2.59,0,0,0-.8.89,4.67,4.67,0,0,0-.49,1.37,8.68,8.68,0,0,0-.17,1.76,9.17,9.17,0,0,0,.17,1.8,5,5,0,0,0,.49,1.42,2.68,2.68,0,0,0,.8.93,1.88,1.88,0,0,0,1.11.34"/><polygon class="cls-2" points="266.27 16.84 268.45 23.36 270.63 16.72 272.83 23.33 274.96 16.84 276.37 16.84 272.99 27.08 272.04 27.08 270.28 21.82 268.55 27.08 267.6 27.08 264.15 16.84 266.27 16.84"/><path class="cls-2" d="M281.41,27.08a3.9,3.9,0,0,1-1.35-.21,2.94,2.94,0,0,1-1-.58,2.84,2.84,0,0,1-.65-.89,4.06,4.06,0,0,1-.33-1.14h1.46a3.48,3.48,0,0,0,.22.71,2.11,2.11,0,0,0,.37.57,1.61,1.61,0,0,0,.53.38,1.74,1.74,0,0,0,.71.14,2.13,2.13,0,0,0,.53-.07,1.35,1.35,0,0,0,.47-.22,1.13,1.13,0,0,0,.33-.39,1.3,1.3,0,0,0,.13-.6,1.61,1.61,0,0,0-.2-.8,2.44,2.44,0,0,0-.52-.64,4.82,4.82,0,0,0-.73-.53l-.84-.5q-.43-.25-.84-.52a4.26,4.26,0,0,1-.73-.61,2.76,2.76,0,0,1-.52-.77,2.34,2.34,0,0,1-.2-1,2.76,2.76,0,0,1,.22-1.11,2.53,2.53,0,0,1,.65-.88,3,3,0,0,1,1-.59,4.25,4.25,0,0,1,1.4-.21,3.12,3.12,0,0,1,1.17.21,3,3,0,0,1,.93.58,3.29,3.29,0,0,1,.67.86,4.51,4.51,0,0,1,.42,1.06h-1.32a5.93,5.93,0,0,0-.27-.69,2.34,2.34,0,0,0-.37-.57,1.63,1.63,0,0,0-.54-.39,1.77,1.77,0,0,0-.75-.15,1.69,1.69,0,0,0-.69.13,1.28,1.28,0,0,0-.45.32,1.26,1.26,0,0,0-.25.44,1.6,1.6,0,0,0-.07.47,1.36,1.36,0,0,0,.2.73,2.58,2.58,0,0,0,.54.61,5.57,5.57,0,0,0,.76.54l.86.52c.29.17.58.36.87.55a4.82,4.82,0,0,1,.76.63,2.89,2.89,0,0,1,.53.76,2.11,2.11,0,0,1,.2.94,3,3,0,0,1-.22,1.15,2.53,2.53,0,0,1-.64.92,3,3,0,0,1-1.05.61,4.27,4.27,0,0,1-1.45.22"/><path class="cls-2" d="M295.27,16.63l4,10.3h-2.15l-1.07-2.75h-3.34l-1.13,2.75h-1.43l4.18-10.3Zm-2.14,6.61h2.58L294.44,20Z"/><polygon class="cls-2" points="301.41 16.84 302.75 16.84 307.65 23.25 307.65 16.84 308.96 16.84 308.96 27.08 308.06 27.08 302.74 19.99 302.74 26.93 301.41 26.93 301.41 16.84"/><path class="cls-2" d="M312,16.84h3.11a7,7,0,0,1,2.21.33,4.93,4.93,0,0,1,1.73,1,4.3,4.3,0,0,1,1.13,1.55,5.21,5.21,0,0,1,.4,2.11,5.81,5.81,0,0,1-.34,2,4.76,4.76,0,0,1-1,1.63,4.67,4.67,0,0,1-1.61,1.1,5.61,5.61,0,0,1-2.19.4H312Zm2.11,9.06h1.12a2.6,2.6,0,0,0,1.17-.27,2.76,2.76,0,0,0,1-.79,3.93,3.93,0,0,0,.65-1.28,5.87,5.87,0,0,0,.24-1.74,5.29,5.29,0,0,0-.22-1.57,4,4,0,0,0-.62-1.26,2.94,2.94,0,0,0-1-.83,2.48,2.48,0,0,0-1.21-.3h-1.12Z"/><polygon class="cls-2" points="95.23 40.44 95.23 45.25 93.13 45.25 93.13 35.15 95.23 35.15 95.23 39.57 98.68 39.57 98.68 35.15 100.77 35.15 100.77 45.25 98.68 45.25 98.68 40.44 95.23 40.44"/><polygon class="cls-2" points="110.02 35.15 110.02 36.01 105.72 36.01 105.72 39.34 109.29 39.34 109.29 40.2 105.72 40.2 105.72 44.21 110.02 44.21 110.02 45.25 103.61 45.25 103.61 35.15 110.02 35.15"/><polygon class="cls-2" points="113.93 35.15 116.75 39.7 119.4 35.15 120.83 35.15 117.47 40.88 117.47 45.25 115.36 45.25 115.36 41.03 111.73 35.15 113.93 35.15"/><polygon class="cls-2" points="122.6 35.15 124.65 35.15 127.62 42.04 130.54 35.15 132.55 35.15 132.55 45.25 130.45 45.25 130.45 38.66 127.64 45.25 126.83 45.25 123.94 38.59 123.94 45.25 122.6 45.25 122.6 35.15"/><path class="cls-2" d="M139.89,34.94l4,10.31h-2.15l-1.07-2.76h-3.34l-1.13,2.76H134.8L139,34.94Zm-2.14,6.61h2.58l-1.27-3.26Z"/><polygon class="cls-2" points="146.03 35.15 147.38 35.15 152.27 41.57 152.27 35.15 153.59 35.15 153.59 45.39 152.69 45.39 147.37 38.31 147.37 45.25 146.03 45.25 146.03 35.15"/><path class="cls-2" d="M162.37,40.19a5.44,5.44,0,0,0,.25,1.74,4,4,0,0,0,.67,1.26,2.87,2.87,0,0,0,1,.77,2.56,2.56,0,0,0,1.13.26,1.93,1.93,0,0,0,.84-.18,2.9,2.9,0,0,0,.73-.49,5,5,0,0,0,.64-.72q.3-.41.57-.86l.88.76a6.34,6.34,0,0,1-.69,1,5.1,5.1,0,0,1-.9.88,4.42,4.42,0,0,1-1.09.61,3.41,3.41,0,0,1-1.25.23,5.38,5.38,0,0,1-2-.38A4.76,4.76,0,0,1,161.46,44a4.93,4.93,0,0,1-1.06-1.66,5.91,5.91,0,0,1-.38-2.16,6,6,0,0,1,.36-2.12,4.93,4.93,0,0,1,1-1.67A4.63,4.63,0,0,1,163,35.3a5.08,5.08,0,0,1,2-.39,4.29,4.29,0,0,1,1.35.2,4.1,4.1,0,0,1,1.12.57,4.42,4.42,0,0,1,.9.86,6.78,6.78,0,0,1,.7,1.11l-.89.73a8,8,0,0,0-.59-.86,4.75,4.75,0,0,0-.68-.7,3.14,3.14,0,0,0-.76-.48,2.05,2.05,0,0,0-.83-.17,2.51,2.51,0,0,0-1.12.26,2.72,2.72,0,0,0-.94.77,3.86,3.86,0,0,0-.64,1.26,5.66,5.66,0,0,0-.24,1.73"/><polygon class="cls-2" points="177.7 35.15 177.7 36.01 173.4 36.01 173.4 39.34 176.97 39.34 176.97 40.2 173.4 40.2 173.4 44.21 177.7 44.21 177.7 45.25 171.29 45.25 171.29 35.15 177.7 35.15"/><polygon class="cls-2" points="179.95 35.15 181.3 35.15 186.19 41.57 186.19 35.15 187.51 35.15 187.51 45.39 186.6 45.39 181.29 38.31 181.29 45.25 179.95 45.25 179.95 35.15"/><polygon class="cls-2" points="197.79 35.15 197.79 36.01 194.82 36.01 194.82 45.25 192.72 45.25 192.72 36.01 189.75 36.01 189.75 35.15 197.79 35.15"/><polygon class="cls-2" points="206.44 35.15 206.44 36.01 202.13 36.01 202.13 39.34 205.71 39.34 205.71 40.2 202.13 40.2 202.13 44.21 206.44 44.21 206.44 45.25 200.03 45.25 200.03 35.15 206.44 35.15"/><path class="cls-2" d="M208.69,35.15h3.23a4.72,4.72,0,0,1,1.46.2,2.9,2.9,0,0,1,1,.58,2.36,2.36,0,0,1,.63.87,2.89,2.89,0,0,1,.21,1.1,2.33,2.33,0,0,1-.14.81,2.56,2.56,0,0,1-.4.71,2.8,2.8,0,0,1-.62.57,3.63,3.63,0,0,1-.8.41l3.06,4.83H214l-2.88-4.57h-.37v4.57h-2.11Zm2.11,4.64h.45a2,2,0,0,0,.71-.13,1.61,1.61,0,0,0,.95-.94,2.07,2.07,0,0,0,.14-.77,2.5,2.5,0,0,0-.1-.74,1.88,1.88,0,0,0-.29-.58,1.29,1.29,0,0,0-.44-.38,1.22,1.22,0,0,0-.56-.13h-.85Z"/><polygon class="cls-2" points="227.78 35.15 227.78 36.01 223.73 36.01 223.73 39.34 227.3 39.34 227.3 40.2 223.73 40.2 223.73 45.25 221.62 45.25 221.62 35.15 227.78 35.15"/><path class="cls-2" d="M234.4,45.47a4.78,4.78,0,0,1-1.94-.39A4.68,4.68,0,0,1,230.9,44a5.24,5.24,0,0,1-1-1.69,5.92,5.92,0,0,1-.38-2.15,5.68,5.68,0,0,1,.38-2.1,5,5,0,0,1,1-1.64,4.66,4.66,0,0,1,1.56-1.07,5,5,0,0,1,1.94-.38,4.85,4.85,0,0,1,1.93.39,4.73,4.73,0,0,1,1.56,1.07,5,5,0,0,1,1,1.64,5.55,5.55,0,0,1,.38,2.08,6.35,6.35,0,0,1-.17,1.51,5.43,5.43,0,0,1-.49,1.31,4.87,4.87,0,0,1-.76,1.07,4.59,4.59,0,0,1-1,.8,4.84,4.84,0,0,1-1.18.5,5,5,0,0,1-1.32.17m0-.85a1.87,1.87,0,0,0,1.11-.34,2.66,2.66,0,0,0,.8-.94,5.14,5.14,0,0,0,.49-1.42,9,9,0,0,0,.17-1.8,8.55,8.55,0,0,0-.17-1.76,4.82,4.82,0,0,0-.49-1.37,2.56,2.56,0,0,0-.8-.89,2.08,2.08,0,0,0-2.22,0,2.57,2.57,0,0,0-.8.89,4.73,4.73,0,0,0-.49,1.37,8.78,8.78,0,0,0-.17,1.76,9.23,9.23,0,0,0,.17,1.8,5,5,0,0,0,.49,1.42,2.67,2.67,0,0,0,.8.94,1.89,1.89,0,0,0,1.11.34"/><path class="cls-2" d="M241.59,35.15h3.23a4.73,4.73,0,0,1,1.46.2,2.93,2.93,0,0,1,1,.58,2.35,2.35,0,0,1,.62.87,2.87,2.87,0,0,1,.21,1.1,2.33,2.33,0,0,1-.14.81,2.48,2.48,0,0,1-.4.71A2.82,2.82,0,0,1,247,40a3.65,3.65,0,0,1-.8.41l3.06,4.83H247l-2.88-4.57h-.37v4.57h-2.11Zm2.11,4.64h.46a2,2,0,0,0,.71-.13,1.62,1.62,0,0,0,.95-.94A2.05,2.05,0,0,0,246,38a2.46,2.46,0,0,0-.1-.74,1.86,1.86,0,0,0-.29-.58,1.28,1.28,0,0,0-.44-.38,1.23,1.23,0,0,0-.56-.13h-.85Z"/><polygon class="cls-2" points="262.71 35.15 262.71 36.01 259.74 36.01 259.74 45.25 257.64 45.25 257.64 36.01 254.66 36.01 254.66 35.15 262.71 35.15"/><polygon class="cls-2" points="267.05 40.44 267.05 45.25 264.94 45.25 264.94 35.15 267.05 35.15 267.05 39.57 270.5 39.57 270.5 35.15 272.59 35.15 272.59 45.25 270.5 45.25 270.5 40.44 267.05 40.44"/><polygon class="cls-2" points="282.06 35.15 282.06 36.01 277.76 36.01 277.76 39.34 281.33 39.34 281.33 40.2 277.76 40.2 277.76 44.21 282.06 44.21 282.06 45.25 275.65 45.25 275.65 35.15 282.06 35.15"/><polygon class="cls-2" points="290.68 40.44 290.68 45.25 288.57 45.25 288.57 35.15 290.68 35.15 290.68 39.57 294.12 39.57 294.12 35.15 296.21 35.15 296.21 45.25 294.12 45.25 294.12 40.44 290.68 40.44"/><path class="cls-2" d="M299.1,35.15h2.11v6.49a3.76,3.76,0,0,0,.16,1.09,2.87,2.87,0,0,0,.44.9,2.17,2.17,0,0,0,.7.61,1.88,1.88,0,0,0,.92.22,1.84,1.84,0,0,0,.9-.22,2.12,2.12,0,0,0,.69-.61,2.86,2.86,0,0,0,.44-.9,3.76,3.76,0,0,0,.16-1.09V35.15h1.33v6.49a4.81,4.81,0,0,1-.22,1.48,3.22,3.22,0,0,1-.71,1.22,3.37,3.37,0,0,1-1.23.83,4.83,4.83,0,0,1-1.81.3,4.28,4.28,0,0,1-1.67-.3,3.42,3.42,0,0,1-1.95-2.06,4.4,4.4,0,0,1-.25-1.49Z"/><polygon class="cls-2" points="309.89 35.15 311.94 35.15 314.91 42.04 317.83 35.15 319.84 35.15 319.84 45.25 317.74 45.25 317.74 38.66 314.94 45.25 314.13 45.25 311.23 38.59 311.23 45.25 309.89 45.25 309.89 35.15"/><path class="cls-2" d="M327,34.94l4,10.31h-2.15l-1.08-2.76h-3.33l-1.13,2.76h-1.43l4.18-10.31Zm-2.14,6.61h2.58l-1.27-3.26Z"/><polygon class="cls-2" points="333.1 35.15 334.45 35.15 339.34 41.57 339.34 35.15 340.66 35.15 340.66 45.39 339.75 45.39 334.44 38.31 334.44 45.25 333.1 45.25 333.1 35.15"/><rect class="cls-2" x="343.66" y="35.15" width="2.1" height="10.1"/><polygon class="cls-2" points="355.82 35.15 355.82 36.01 352.85 36.01 352.85 45.25 350.75 45.25 350.75 36.01 347.77 36.01 347.77 35.15 355.82 35.15"/><rect class="cls-2" x="357.82" y="35.15" width="2.1" height="10.1"/><polygon class="cls-2" points="369.17 35.15 369.17 36.01 364.87 36.01 364.87 39.34 368.44 39.34 368.44 40.2 364.87 40.2 364.87 44.21 369.17 44.21 369.17 45.25 362.76 45.25 362.76 35.15 369.17 35.15"/><path class="cls-2" d="M374.25,45.4a3.9,3.9,0,0,1-1.35-.21,2.94,2.94,0,0,1-1-.58,2.86,2.86,0,0,1-.65-.89,4.07,4.07,0,0,1-.33-1.14h1.46a3.39,3.39,0,0,0,.22.71,2.06,2.06,0,0,0,.37.57,1.6,1.6,0,0,0,.53.38,1.72,1.72,0,0,0,.71.14,2.09,2.09,0,0,0,.53-.07,1.34,1.34,0,0,0,.47-.22,1.15,1.15,0,0,0,.33-.39,1.3,1.3,0,0,0,.13-.6,1.61,1.61,0,0,0-.2-.8,2.42,2.42,0,0,0-.52-.64,4.82,4.82,0,0,0-.73-.53l-.84-.5c-.29-.16-.57-.34-.84-.52a4.26,4.26,0,0,1-.73-.61,2.78,2.78,0,0,1-.52-.77,2.34,2.34,0,0,1-.2-1,2.76,2.76,0,0,1,.22-1.11,2.57,2.57,0,0,1,.65-.89,3.05,3.05,0,0,1,1-.59,4.26,4.26,0,0,1,1.4-.21,3.12,3.12,0,0,1,1.17.21,3,3,0,0,1,.93.58,3.33,3.33,0,0,1,.67.86,4.48,4.48,0,0,1,.42,1.06h-1.32A5.61,5.61,0,0,0,376,37a2.29,2.29,0,0,0-.37-.57,1.64,1.64,0,0,0-.54-.39,1.8,1.8,0,0,0-.75-.15,1.7,1.7,0,0,0-.7.13,1.3,1.3,0,0,0-.45.32,1.2,1.2,0,0,0-.25.44,1.56,1.56,0,0,0-.08.47,1.35,1.35,0,0,0,.2.73,2.56,2.56,0,0,0,.53.61,5.57,5.57,0,0,0,.76.54l.86.52q.44.26.87.55a4.83,4.83,0,0,1,.76.63,2.87,2.87,0,0,1,.54.76,2.12,2.12,0,0,1,.2.94,3,3,0,0,1-.22,1.15,2.53,2.53,0,0,1-.64.92,3,3,0,0,1-1.05.61,4.3,4.3,0,0,1-1.45.22"/><path class="cls-2" d="M20.2,33.81a5.16,5.16,0,0,1-1.79-.28,3.93,3.93,0,0,1-1.31-.75,3.81,3.81,0,0,1-.86-1.15,5.13,5.13,0,0,1-.43-1.47h1.94a4.15,4.15,0,0,0,.29.91,2.7,2.7,0,0,0,.49.74,2.1,2.1,0,0,0,.71.49,2.32,2.32,0,0,0,.94.18,2.72,2.72,0,0,0,.7-.09,1.79,1.79,0,0,0,.63-.28A1.47,1.47,0,0,0,22,31.6a1.62,1.62,0,0,0,.17-.77,2,2,0,0,0-.26-1,3,3,0,0,0-.69-.82,5.72,5.72,0,0,0-1-.69l-1.11-.64c-.38-.21-.75-.44-1.11-.68a5.74,5.74,0,0,1-1-.79,3.64,3.64,0,0,1-.69-1A3,3,0,0,1,16,23.91a3.51,3.51,0,0,1,.29-1.44,3.3,3.3,0,0,1,.86-1.14,4.06,4.06,0,0,1,1.38-.77,6,6,0,0,1,1.86-.27,4.31,4.31,0,0,1,1.55.27,4,4,0,0,1,1.23.75,4.32,4.32,0,0,1,.9,1.12,5.81,5.81,0,0,1,.55,1.38H22.91a7.16,7.16,0,0,0-.36-.89,2.89,2.89,0,0,0-.49-.74,2.16,2.16,0,0,0-.71-.51,2.46,2.46,0,0,0-1-.18,2.3,2.3,0,0,0-.92.16,1.69,1.69,0,0,0-.6.42,1.66,1.66,0,0,0-.32.56,1.9,1.9,0,0,0-.1.62,1.72,1.72,0,0,0,.27.94,3.41,3.41,0,0,0,.71.79,7.68,7.68,0,0,0,1,.69l1.14.67c.39.22.77.46,1.15.71a5.67,5.67,0,0,1,1,.82,3.88,3.88,0,0,1,.71,1,2.72,2.72,0,0,1,.27,1.21,3.81,3.81,0,0,1-.29,1.49,3.28,3.28,0,0,1-.85,1.19,4.09,4.09,0,0,1-1.39.79,5.91,5.91,0,0,1-1.93.29"/><path class="cls-2" d="M38.3,33.91a6.48,6.48,0,0,1-2.57-.51A6.19,6.19,0,0,1,33.67,32a6.71,6.71,0,0,1-1.38-2.19A7.53,7.53,0,0,1,31.8,27a7.25,7.25,0,0,1,.5-2.72,6.46,6.46,0,0,1,1.38-2.12,6.1,6.1,0,0,1,2.06-1.38,6.67,6.67,0,0,1,2.57-.49,6.52,6.52,0,0,1,2.56.49,6.32,6.32,0,0,1,2.07,1.38,6.49,6.49,0,0,1,1.38,2.11A7,7,0,0,1,44.81,27a8.55,8.55,0,0,1-.22,2,7.32,7.32,0,0,1-.65,1.69A6.22,6.22,0,0,1,41.62,33a6.44,6.44,0,0,1-1.57.65,6.71,6.71,0,0,1-1.75.23m0-1.1a2.53,2.53,0,0,0,1.47-.44,3.46,3.46,0,0,0,1.07-1.21,6.57,6.57,0,0,0,.65-1.84A11.37,11.37,0,0,0,41.7,27a10.83,10.83,0,0,0-.22-2.27A6.13,6.13,0,0,0,40.83,23a3.28,3.28,0,0,0-1.07-1.16,2.84,2.84,0,0,0-2.95,0A3.26,3.26,0,0,0,35.76,23a6,6,0,0,0-.65,1.77A11,11,0,0,0,34.89,27a11.53,11.53,0,0,0,.22,2.33,6.44,6.44,0,0,0,.65,1.84,3.43,3.43,0,0,0,1.06,1.21,2.54,2.54,0,0,0,1.48.44"/><polygon class="cls-2" points="60.83 20.55 60.83 21.67 55.45 21.67 55.45 25.98 60.2 25.98 60.2 27.09 55.45 27.09 55.45 33.62 52.66 33.62 52.66 20.55 60.83 20.55"/><polygon class="cls-2" points="18.11 49.45 18.11 55.68 15.32 55.68 15.32 42.61 18.11 42.61 18.11 48.34 22.69 48.34 22.69 42.61 25.46 42.61 25.46 55.68 22.69 55.68 22.69 49.45 18.11 49.45"/><path class="cls-2" d="M35.44,49.13a6.93,6.93,0,0,0,.34,2.25A5.06,5.06,0,0,0,36.67,53a3.76,3.76,0,0,0,1.28,1,3.45,3.45,0,0,0,1.5.34,2.68,2.68,0,0,0,1.11-.23,3.84,3.84,0,0,0,1-.64,6.62,6.62,0,0,0,.84-.94c.26-.35.51-.72.75-1.12l1.17,1a8.54,8.54,0,0,1-.91,1.34,6.69,6.69,0,0,1-1.2,1.14,6.24,6.24,0,0,1-1.44.79,4.7,4.7,0,0,1-1.65.29,7.28,7.28,0,0,1-2.71-.49,6.18,6.18,0,0,1-3.54-3.54,7.48,7.48,0,0,1-.5-2.8,7.64,7.64,0,0,1,.48-2.74,6.45,6.45,0,0,1,1.35-2.16,6.23,6.23,0,0,1,2.08-1.42,6.9,6.9,0,0,1,2.68-.51,5.69,5.69,0,0,1,1.8.27,5.47,5.47,0,0,1,1.48.73,5.83,5.83,0,0,1,1.19,1.12,8.64,8.64,0,0,1,.93,1.43l-1.18.94a9.62,9.62,0,0,0-.78-1.11,6.71,6.71,0,0,0-.9-.91,4.35,4.35,0,0,0-1-.62,2.79,2.79,0,0,0-1.1-.22,3.43,3.43,0,0,0-1.49.34,3.56,3.56,0,0,0-1.24,1,5.08,5.08,0,0,0-.86,1.63,7.22,7.22,0,0,0-.32,2.25"/><polygon class="cls-2" points="53.66 49.45 53.66 55.68 50.87 55.68 50.87 42.61 53.66 42.61 53.66 48.34 58.23 48.34 58.23 42.61 61 42.61 61 55.68 58.23 55.68 58.23 49.45 53.66 49.45"/></g></g></svg>