<?xml version="1.0" standalone="no"?>
<!DOCTYPE svg PUBLIC "-//W3C//DTD SVG 1.1//EN" "http://www.w3.org/Graphics/SVG/1.1/DTD/svg11.dtd" >
<svg xmlns="http://www.w3.org/2000/svg" xmlns:xlink="http://www.w3.org/1999/xlink" version="1.1">
<metadata>
Created by FontForge 20160405 at Wed Jul 11 03:39:18 2018
 By Apache
Copyright (c) 2000 Adobe Systems Incorporated. All Rights Reserved. U.S. Patent Des. pending.Myriad is a registered trademark of Adobe Systems Incorporated.
</metadata>
<defs>
<font id="MyriadPro-SemiExt" horiz-adv-x="300" >
  <font-face 
    font-family="Myriad Pro"
    font-weight="400"
    font-stretch="semi-expanded"
    units-per-em="1000"
    panose-1="2 11 5 5 3 4 3 2 2 4"
    ascent="750"
    descent="-250"
    x-height="484"
    cap-height="674"
    bbox="-51 -250 1200 889"
    underline-thickness="50"
    underline-position="-100"
    stemh="69"
    stemv="91"
    unicode-range="U+0020-FB04"
  />
<missing-glyph horiz-adv-x="500" 
d="M0 0v700h500v-700h-500zM250 395l170 255h-340zM280 350l170 -255v510zM80 50h340l-170 255zM50 605v-510l170 255z" />
    <glyph glyph-name="fi" unicode="fi" horiz-adv-x="559" 
d="M177 0h-91v415h-70v69h70v25c0 140 86 219 223 219c47 0 105 -15 132 -35l-27 -69c-23 17 -64 31 -110 31c-97 0 -128 -69 -128 -147v-24h303v-484h-91v415h-211v-415z" />
    <glyph glyph-name="fl" unicode="fl" horiz-adv-x="559" 
d="M177 0h-91v415h-70v69h70v20c0 73 26 133 73 174c41 33 95 50 165 50c61 0 115 -12 155 -34v-694h-91v645c-16 8 -39 14 -78 14c-100 0 -134 -71 -134 -152v-23h124v-69h-123v-415z" />
    <glyph glyph-name="ff" unicode="ff" horiz-adv-x="627" 
d="M490 0h-91v415h-222v-415h-91v415h-70v69h70v11c0 71 17 133 58 173c29 30 72 48 129 48c30 0 59 -10 75 -19l-20 -68c-14 8 -34 15 -56 15c-76 0 -96 -65 -96 -141v-19h223v21c0 74 18 138 61 177c34 32 80 46 124 46c34 0 62 -7 80 -15l-11 -70c-15 7 -33 12 -62 12
c-80 0 -102 -68 -102 -147v-24h127v-69h-126v-415z" />
    <glyph glyph-name="ffi" unicode="ffi" horiz-adv-x="872" 
d="M750 695l-28 -68c-24 15 -62 28 -105 28c-97 0 -128 -69 -128 -147v-24h303v-484h-91v415h-211v-415h-91v415h-222v-415h-91v415h-70v69h70v17c0 60 17 123 60 166c30 29 73 49 132 49c35 0 71 -13 91 -23l-25 -67c-17 10 -42 19 -66 19c-29 0 -50 -9 -66 -25
c-27 -27 -36 -75 -36 -119v-17h223v25c0 140 86 219 223 219c45 0 100 -14 128 -33z" />
    <glyph glyph-name="ffl" unicode="ffl" horiz-adv-x="872" 
d="M369 696l-24 -68c-20 11 -42 16 -65 16c-30 0 -51 -9 -67 -25c-27 -27 -37 -71 -37 -117v-18h223v20c0 73 26 133 73 174c41 33 95 50 165 50c61 0 115 -12 155 -34v-694h-91v645c-16 8 -39 14 -78 14c-100 0 -134 -71 -134 -152v-23h124v-69h-123v-415h-91v415h-222
v-415h-91v415h-70v69h70v8c0 63 15 130 58 173c33 32 80 51 140 51c34 0 69 -12 85 -20z" />
    <glyph glyph-name="f_j" unicode="fj" horiz-adv-x="557" 
d="M177 0h-91v415h-70v69h70v25c0 140 86 219 223 219c47 0 105 -15 132 -35l-27 -69c-23 17 -64 31 -110 31c-97 0 -128 -69 -128 -147v-24h303v-437c0 -92 -15 -157 -61 -204c-41 -42 -111 -58 -164 -58l-9 72c46 2 83 14 106 37c26 28 37 67 37 191v330h-211v-415z" />
    <glyph glyph-name="f_f_j" unicode="ffj" horiz-adv-x="865" 
d="M750 695l-28 -68c-24 15 -62 28 -105 28c-97 0 -128 -69 -128 -147v-24h303v-437c0 -92 -15 -157 -61 -204c-41 -42 -111 -58 -164 -58l-9 72c46 2 83 14 106 37c26 28 37 67 37 191v330h-211v-415h-91v415h-222v-415h-91v415h-70v69h70v17c0 60 17 123 60 166
c30 29 73 49 132 49c35 0 71 -13 91 -23l-25 -67c-17 10 -42 19 -66 19c-29 0 -50 -9 -66 -25c-27 -27 -36 -75 -36 -119v-17h223v25c0 140 86 219 223 219c45 0 100 -14 128 -33z" />
    <glyph glyph-name=".notdef" horiz-adv-x="500" 
d="M0 0v700h500v-700h-500zM250 395l170 255h-340zM280 350l170 -255v510zM80 50h340l-170 255zM50 605v-510l170 255z" />
    <glyph glyph-name="space" unicode=" " horiz-adv-x="231" 
 />
    <glyph glyph-name="space" unicode="&#xa0;" horiz-adv-x="231" 
 />
    <glyph glyph-name="exclam" unicode="!" horiz-adv-x="239" 
d="M153 195h-69l-16 479h101zM119 -12h-1c-36 0 -62 29 -61 64c0 38 25 65 62 65s62 -27 62 -65c0 -35 -25 -64 -62 -64z" />
    <glyph glyph-name="quotedbl" unicode="&#x22;" horiz-adv-x="347" 
d="M51 695h93l-18 -242h-57zM203 695h93l-18 -242h-57z" />
    <glyph glyph-name="numbersign" unicode="#" horiz-adv-x="535" 
d="M202 257h113l18 141h-112zM167 0h-63l26 195h-89v62h98l19 141h-92v62h101l26 190h62l-26 -190h113l26 190h62l-25 -190h88v-62h-97l-19 -141h92v-62h-102l-25 -195h-63l26 195h-113z" />
    <glyph glyph-name="dollar" unicode="$" horiz-adv-x="556" 
d="M302 -86h-65v100c-62 2 -128 20 -167 48l26 70c39 -26 96 -47 158 -47c75 0 128 40 128 97c0 54 -42 86 -122 115c-116 41 -180 88 -180 177c0 83 62 148 164 163v101h65v-99c66 -2 109 -19 140 -38l-25 -68c-22 12 -68 38 -140 38c-84 0 -113 -47 -113 -86
c0 -49 40 -77 133 -112c112 -41 169 -91 169 -184c0 -75 -55 -154 -171 -172v-103z" />
    <glyph glyph-name="percent" unicode="%" horiz-adv-x="840" 
d="M199 662h1c95 0 159 -67 159 -193c0 -137 -76 -208 -167 -208c-85 0 -161 62 -162 196c0 133 76 205 169 205zM195 608h-1c-56 0 -91 -60 -91 -147c-2 -88 35 -146 92 -146c61 0 91 56 91 149c0 84 -26 144 -91 144zM251 -12h-58l395 673h58zM650 393h1
c95 0 159 -67 159 -193c0 -137 -76 -207 -167 -207c-84 0 -160 62 -161 195c0 132 76 205 168 205zM647 339h-1c-56 0 -91 -60 -91 -146c-2 -88 35 -146 91 -146c61 0 91 56 91 148c0 84 -26 144 -90 144z" />
    <glyph glyph-name="ampersand" unicode="&#x26;" horiz-adv-x="642" 
d="M645 0h-111c-21 20 -41 41 -68 67c-66 -57 -133 -79 -214 -79c-136 0 -220 87 -220 190c0 98 63 159 141 198v3c-36 43 -58 92 -58 137c0 83 62 170 182 170c91 0 159 -59 159 -145c0 -72 -45 -128 -158 -179l-1 -3c68 -75 136 -146 176 -187c32 42 56 101 73 198h84
c-22 -114 -53 -194 -105 -250c44 -45 82 -84 120 -120zM268 56h1c63 0 116 27 150 61c-34 32 -118 119 -203 213c-39 -22 -96 -63 -96 -137c0 -80 63 -137 148 -137zM291 625h-1c-60 0 -92 -48 -92 -99c0 -49 26 -86 56 -120c73 38 122 72 122 131c0 42 -26 88 -85 88z" />
    <glyph glyph-name="quoteright" unicode="&#x2019;" horiz-adv-x="217" 
d="M98 685l95 10c-24 -85 -67 -194 -95 -240l-59 -6c22 58 48 163 59 236z" />
    <glyph glyph-name="parenleft" unicode="(" horiz-adv-x="294" 
d="M204 695h71c-78 -102 -132 -229 -132 -411c0 -178 57 -302 132 -405h-71c-67 85 -137 211 -137 406c0 196 70 323 137 410z" />
    <glyph glyph-name="parenright" unicode=")" horiz-adv-x="294" 
d="M90 -121h-71c75 102 132 229 132 409c0 179 -56 304 -132 407h71c67 -85 137 -212 137 -408c0 -195 -70 -321 -137 -408z" />
    <glyph glyph-name="asterisk" unicode="*" horiz-adv-x="429" 
d="M278 686l62 -36l-99 -126v-2l157 20v-69l-157 19v-3l99 -122l-65 -37l-61 143h-2l-66 -143l-59 37l98 123v2l-153 -19v69l152 -19v1l-97 126l64 36l62 -143h2z" />
    <glyph glyph-name="plus" unicode="+" horiz-adv-x="596" 
d="M265 532h66v-234h225v-62h-225v-236h-66v236h-225v62h225v234z" />
    <glyph glyph-name="comma" unicode="," horiz-adv-x="211" 
d="M81 -116l-65 -7c22 61 49 167 61 242l101 10c-24 -87 -68 -198 -97 -245z" />
    <glyph glyph-name="hyphen" unicode="-" horiz-adv-x="316" 
d="M30 306h256v-66h-256v66z" />
    <glyph glyph-name="hyphen" unicode="&#xad;" horiz-adv-x="316" 
d="M30 306h256v-66h-256v66z" />
    <glyph glyph-name="period" unicode="." horiz-adv-x="211" 
d="M115 -12h-1c-36 0 -62 29 -61 64c0 38 25 65 62 65s62 -27 62 -65c0 -35 -25 -64 -62 -64z" />
    <glyph glyph-name="slash" unicode="/" horiz-adv-x="364" 
d="M66 -40h-70l300 726h72z" />
    <glyph glyph-name="zero" unicode="0" horiz-adv-x="556" 
d="M273 -12h-1c-136 0 -230 119 -233 334c0 219 104 340 245 340c148 0 233 -121 233 -328c0 -216 -85 -346 -244 -346zM276 57h1c99 0 148 103 148 272c0 163 -46 264 -147 264c-86 0 -147 -100 -147 -264c-3 -173 58 -272 145 -272z" />
    <glyph glyph-name="one" unicode="1" horiz-adv-x="556" 
d="M252 0v567h-2l-114 -60l-18 69l144 74h78v-650h-88z" />
    <glyph glyph-name="two" unicode="2" horiz-adv-x="556" 
d="M498 0h-449v54l74 65c195 175 265 248 266 338c0 64 -31 131 -140 131c-63 0 -118 -32 -153 -62l-31 63c52 44 123 73 203 73c150 0 213 -101 213 -192c0 -120 -89 -210 -245 -349l-54 -45v-2h316v-74z" />
    <glyph glyph-name="three" unicode="3" horiz-adv-x="556" 
d="M48 37l25 70c27 -17 92 -45 162 -45c127 0 159 79 158 125c-1 93 -93 128 -180 128h-60v69h61c70 0 154 32 154 108c0 47 -33 97 -124 97c-58 0 -115 -25 -146 -47l-26 66c38 27 112 54 188 54c141 0 201 -79 201 -157c0 -68 -43 -125 -127 -153v-2
c87 -15 154 -79 154 -166c0 -103 -85 -196 -254 -196c-83 0 -153 26 -186 49z" />
    <glyph glyph-name="four" unicode="4" horiz-adv-x="556" 
d="M432 0h-87v177h-331v58l316 415h102v-404h98v-69h-98v-177zM108 246h237v229c0 30 1 62 3 93l-4 1c-20 -34 -36 -61 -54 -88l-182 -233v-2z" />
    <glyph glyph-name="five" unicode="5" horiz-adv-x="556" 
d="M466 650v-76h-272l-24 -165c17 2 33 4 62 4c56 0 103 -9 146 -31c55 -26 105 -85 105 -172c0 -126 -107 -222 -256 -222c-82 0 -146 23 -180 44l24 69c29 -17 88 -40 156 -40c87 0 164 56 163 139c-1 77 -55 142 -199 142c-43 0 -76 -4 -104 -8l42 316h337z" />
    <glyph glyph-name="six" unicode="6" horiz-adv-x="556" 
d="M448 661v-74c-20 1 -45 0 -73 -4c-148 -21 -230 -120 -244 -230h2c33 43 93 80 172 80c127 0 215 -86 215 -213c0 -118 -89 -232 -235 -232c-147 0 -249 106 -249 281c0 128 50 231 119 293c58 53 134 85 224 95c28 4 51 5 69 4zM286 58h1c85 0 140 70 140 156
c0 92 -59 150 -149 150c-60 0 -115 -36 -141 -83c-6 -12 -10 -24 -10 -38c1 -99 53 -185 159 -185z" />
    <glyph glyph-name="seven" unicode="7" horiz-adv-x="556" 
d="M65 650h441v-61l-307 -589h-95l306 574v2h-345v74z" />
    <glyph glyph-name="eight" unicode="8" horiz-adv-x="556" 
d="M283 662h1c137 0 206 -79 206 -162c0 -55 -28 -115 -114 -151v-4c88 -28 140 -86 140 -164c0 -118 -107 -193 -240 -193c-145 0 -236 79 -236 179c0 79 47 137 136 171v3c-79 32 -110 88 -110 145c0 103 93 176 217 176zM277 55h1c90 0 144 53 144 115
c0 80 -59 117 -160 139c-83 -18 -128 -67 -128 -130c-4 -64 52 -124 143 -124zM280 597h-1c-83 0 -126 -50 -126 -105c-1 -64 52 -100 138 -118c61 15 110 55 110 117c0 48 -33 106 -121 106z" />
    <glyph glyph-name="nine" unicode="9" horiz-adv-x="556" 
d="M106 -11v74c19 -2 44 -1 78 3c57 6 110 27 152 66c45 40 77 96 89 170h-3c-40 -49 -98 -75 -170 -75c-128 0 -208 92 -208 201c0 124 98 234 242 234c139 0 232 -103 232 -279c0 -147 -54 -247 -121 -306c-54 -47 -128 -77 -202 -83c-35 -5 -68 -6 -89 -5zM278 593h-1
c-86 0 -142 -74 -142 -160c0 -76 53 -137 138 -137c67 0 118 32 144 72c4 7 8 17 8 29c1 103 -42 196 -147 196z" />
    <glyph glyph-name="colon" unicode=":" horiz-adv-x="211" 
d="M115 337h-1c-36 0 -62 29 -61 64c0 38 25 65 62 65s62 -27 62 -65c0 -35 -25 -64 -62 -64zM115 -12h-1c-36 0 -62 29 -61 64c0 38 25 65 62 65s62 -27 62 -65c0 -35 -25 -64 -62 -64z" />
    <glyph glyph-name="semicolon" unicode=";" horiz-adv-x="211" 
d="M82 -116l-65 -6c22 61 49 167 60 242l101 10c-24 -87 -68 -198 -96 -246zM122 337h-1c-36 0 -62 29 -61 64c0 38 25 65 62 65s62 -27 62 -65c0 -35 -25 -64 -62 -64z" />
    <glyph glyph-name="less" unicode="&#x3c;" horiz-adv-x="596" 
d="M66 238v56l464 238v-70l-392 -195v-2l392 -195v-70z" />
    <glyph glyph-name="equal" unicode="=" horiz-adv-x="596" 
d="M556 338h-516v62h516v-62zM556 139h-516v62h516v-62z" />
    <glyph glyph-name="greater" unicode="&#x3e;" horiz-adv-x="596" 
d="M530 294v-56l-464 -238v70l392 195v2l-392 195v70z" />
    <glyph glyph-name="question" unicode="?" horiz-adv-x="438" 
d="M235 194h-82l-2 30c-5 52 16 109 68 167c49 52 74 92 74 133c0 49 -31 87 -101 88c-39 0 -84 -13 -113 -35l-26 64c40 28 102 45 158 45c119 0 176 -72 176 -151c0 -65 -37 -113 -90 -169c-48 -53 -66 -98 -64 -144zM193 -12h-1c-36 0 -62 29 -61 64c0 38 25 65 62 65
s62 -27 62 -65c0 -35 -25 -64 -62 -64z" />
    <glyph glyph-name="at" unicode="@" horiz-adv-x="786" 
d="M482 262l19 102c-12 4 -31 9 -58 9c-92 0 -168 -75 -168 -171c0 -44 24 -81 75 -81c64 0 121 79 132 141zM541 -19l17 -47c-58 -29 -117 -40 -188 -40c-175 0 -325 129 -325 322c0 201 146 376 382 376c187 0 318 -129 318 -305c0 -137 -90 -222 -185 -222
c-41 0 -82 27 -80 91h-3c-36 -59 -83 -91 -154 -91c-61 0 -116 50 -116 132c0 128 106 232 245 232c48 0 90 -10 119 -23l-32 -175c-15 -77 -3 -114 33 -115c53 -2 113 59 113 168c0 149 -98 260 -267 260c-171 0 -312 -122 -312 -321c0 -168 120 -279 274 -279
c61 0 120 13 161 37z" />
    <glyph glyph-name="A" unicode="A" horiz-adv-x="671" 
d="M469 215h-269l-78 -215h-95l254 674h111l257 -674h-99zM220 285h229l-77 202c-16 43 -27 78 -38 113h-2c-10 -36 -20 -71 -35 -112z" />
    <glyph glyph-name="B" unicode="B" horiz-adv-x="585" 
d="M81 1v664c41 8 109 15 175 15c96 0 153 -15 197 -49c36 -27 60 -67 60 -121c0 -64 -45 -123 -118 -147v-3c59 -14 144 -63 144 -169c0 -58 -25 -103 -61 -135c-49 -43 -129 -63 -250 -63c-64 0 -115 5 -147 8zM172 604v-215h94c101 0 155 48 155 112
c0 84 -69 110 -159 110c-48 0 -74 -3 -90 -7zM172 321v-254c20 -4 48 -5 84 -5c94 0 187 29 187 131c0 92 -84 128 -186 128h-85z" />
    <glyph glyph-name="C" unicode="C" horiz-adv-x="648" 
d="M592 96l19 -71c-35 -17 -109 -37 -205 -37c-209 0 -368 125 -368 344c0 193 147 354 390 354c97 0 159 -21 185 -34l-23 -72c-38 18 -95 32 -158 32c-187 0 -298 -111 -298 -279c0 -151 101 -269 291 -269c62 0 125 12 167 32z" />
    <glyph glyph-name="D" unicode="D" horiz-adv-x="740" 
d="M81 1v664c61 8 134 15 212 15c143 0 246 -34 312 -96c63 -58 97 -133 97 -231c0 -96 -34 -187 -102 -255c-71 -67 -188 -105 -337 -105c-72 0 -130 3 -182 8zM172 598v-528c26 -4 65 -5 107 -5c221 -1 327 118 327 284c2 156 -101 259 -310 259c-56 0 -97 -5 -124 -10z
" />
    <glyph glyph-name="E" unicode="E" horiz-adv-x="537" 
d="M464 389v-74h-292v-241h326v-74h-417v674h400v-74h-309v-211h292z" />
    <glyph glyph-name="F" unicode="F" horiz-adv-x="534" 
d="M81 0v674h398v-74h-307v-221h283v-74h-283v-305h-91z" />
    <glyph glyph-name="G" unicode="G" horiz-adv-x="716" 
d="M655 355v-320c-43 -16 -129 -42 -236 -42c-117 0 -211 29 -283 97c-61 57 -98 146 -98 245c0 180 140 346 401 346c90 0 161 -20 192 -35l-23 -72c-42 19 -94 33 -172 33c-190 0 -302 -113 -302 -269c0 -158 110 -271 293 -271c67 0 113 9 138 22v194h-153v72h243z" />
    <glyph glyph-name="H" unicode="H" horiz-adv-x="715" 
d="M81 674h91v-280h371v280h91v-674h-91v317h-371v-317h-91v674z" />
    <glyph glyph-name="I" unicode="I" horiz-adv-x="253" 
d="M81 674h91v-674h-91v674z" />
    <glyph glyph-name="J" unicode="J" horiz-adv-x="405" 
d="M240 244v430h91v-439c0 -189 -97 -247 -219 -247c-37 0 -83 9 -108 19l15 73c21 -9 51 -16 86 -16c85 0 135 40 135 180z" />
    <glyph glyph-name="K" unicode="K" horiz-adv-x="588" 
d="M81 0v674h91v-326h3c19 25 39 47 57 68l233 258h115l-270 -286l294 -388h-109l-250 333l-73 -78v-255h-91z" />
    <glyph glyph-name="L" unicode="L" horiz-adv-x="515" 
d="M81 0v674h91v-598h321v-76h-412z" />
    <glyph glyph-name="M" unicode="M" horiz-adv-x="872" 
d="M720 0l-17 298c-5 95 -12 214 -12 299h-2c-26 -79 -58 -166 -96 -262l-130 -331h-72l-120 327c-35 98 -63 186 -84 266h-2c-4 -85 -8 -204 -15 -306l-20 -291h-87l49 674h121l126 -333c30 -80 54 -157 73 -225h2c19 65 46 143 79 226l134 332h120l43 -674h-90z" />
    <glyph glyph-name="N" unicode="N" horiz-adv-x="722" 
d="M167 0h-86v674h103l247 -349c56 -81 97 -146 131 -214l3 1c-9 85 -10 165 -10 266v296h86v-674h-93l-243 347c-53 78 -104 155 -141 225l-3 -1c5 -84 6 -164 6 -265v-306z" />
    <glyph glyph-name="O" unicode="O" horiz-adv-x="770" 
d="M380 -12h-1c-201 0 -341 145 -341 341c0 210 149 357 350 357c207 0 343 -146 343 -342c0 -224 -159 -356 -351 -356zM383 60h1c155 0 251 120 251 280c0 137 -86 274 -249 274c-165 0 -252 -131 -252 -282c0 -146 95 -272 249 -272z" />
    <glyph glyph-name="P" unicode="P" horiz-adv-x="576" 
d="M81 0v666c46 8 107 14 186 14c93 0 160 -22 202 -58c38 -33 63 -81 63 -142s-19 -111 -56 -147c-50 -48 -128 -73 -222 -73c-31 0 -59 1 -82 8v-268h-91zM172 602v-261c23 -7 52 -9 86 -9c115 0 183 52 183 144c0 95 -75 133 -174 133c-45 0 -78 -4 -95 -7z" />
    <glyph glyph-name="Q" unicode="Q" horiz-adv-x="770" 
d="M733 -25l-25 -76c-104 24 -200 50 -292 79c-15 5 -30 9 -46 10c-177 8 -332 128 -332 340s148 358 351 358c206 0 342 -147 342 -341c0 -170 -92 -283 -218 -325v-4c74 -16 156 -32 220 -41zM382 60h1c155 0 252 120 252 280c0 137 -86 274 -247 274
c-167 0 -254 -133 -254 -284c0 -146 96 -270 248 -270z" />
    <glyph glyph-name="R" unicode="R" horiz-adv-x="581" 
d="M81 0v665c48 9 120 15 186 15c101 0 166 -19 210 -57c33 -29 55 -75 55 -127c0 -90 -62 -150 -134 -172v-2c52 -19 85 -68 102 -132c25 -95 41 -162 56 -190h-94c-11 19 -27 75 -47 160c-22 92 -60 129 -144 132h-99v-292h-91zM172 602v-242h107c100 0 162 50 162 126
c0 91 -73 125 -168 125c-51 0 -85 -5 -101 -9z" />
    <glyph glyph-name="S" unicode="S" horiz-adv-x="537" 
d="M46 36l25 75c44 -28 106 -49 175 -49c95 0 151 47 151 115c0 63 -37 99 -140 131c-130 40 -196 97 -196 193c0 107 93 185 232 185c78 0 133 -17 167 -36l-26 -72c-23 13 -74 35 -143 35c-102 0 -138 -57 -138 -102c0 -62 43 -94 146 -127c125 -41 190 -93 190 -200
c0 -100 -74 -196 -252 -196c-71 0 -150 21 -191 48z" />
    <glyph glyph-name="T" unicode="T" horiz-adv-x="544" 
d="M226 0v600h-233v74h558v-74h-234v-600h-91z" />
    <glyph glyph-name="U" unicode="U" horiz-adv-x="711" 
d="M81 674h91v-382c0 -160 75 -231 180 -231c113 0 187 73 187 231v382h91v-378c0 -217 -121 -308 -283 -308c-150 0 -266 83 -266 306v380z" />
    <glyph glyph-name="V" unicode="V" horiz-adv-x="603" 
d="M344 0h-101l-243 674h99l117 -338c34 -96 60 -173 80 -249h2c22 75 53 157 88 247l130 340h97z" />
    <glyph glyph-name="W" unicode="W" horiz-adv-x="910" 
d="M296 0h-98l-185 674h97l88 -347c21 -84 41 -170 55 -229h2c11 61 34 144 59 230l100 346h99l89 -350c20 -81 39 -161 50 -224h2c14 66 35 141 59 228l100 346h94l-211 -674h-97l-91 358c-24 92 -39 154 -48 220h-2c-12 -65 -29 -128 -57 -219z" />
    <glyph glyph-name="X" unicode="X" horiz-adv-x="631" 
d="M602 0h-108l-95 145c-42 63 -67 101 -89 138h-2c-20 -38 -42 -73 -84 -139l-88 -144h-108l229 341l-220 333h108l99 -159c29 -47 50 -82 70 -116h2c21 37 41 69 70 115l103 160h109l-230 -329z" />
    <glyph glyph-name="Y" unicode="Y" horiz-adv-x="590" 
d="M340 0h-91v286l-235 388h105l107 -192c28 -52 50 -89 72 -135h2c20 42 45 84 74 135l110 192h105l-249 -387v-287z" />
    <glyph glyph-name="Z" unicode="Z" horiz-adv-x="619" 
d="M33 0v52l422 545v3h-386v74h508v-53l-420 -544v-3h427v-74h-551z" />
    <glyph glyph-name="bracketleft" unicode="[" horiz-adv-x="294" 
d="M279 -112h-195v798h195v-55h-124v-688h124v-55z" />
    <glyph glyph-name="backslash" unicode="\" horiz-adv-x="367" 
d="M371 -40h-71l-298 726h71z" />
    <glyph glyph-name="bracketright" unicode="]" horiz-adv-x="294" 
d="M15 686h195v-798h-195v55h124v688h-124v55z" />
    <glyph glyph-name="asciicircum" unicode="^" horiz-adv-x="596" 
d="M537 189h-72l-166 388h-2l-167 -388h-71l207 461h64z" />
    <glyph glyph-name="underscore" unicode="_" horiz-adv-x="500" 
d="M0 -75h500v-50h-500v50z" />
    <glyph glyph-name="quoteleft" unicode="&#x2018;" horiz-adv-x="217" 
d="M134 459l-95 -10c24 85 67 193 95 240l59 6c-22 -59 -48 -163 -59 -236z" />
    <glyph glyph-name="a" unicode="a" horiz-adv-x="522" 
d="M448 289v-171c0 -43 2 -84 8 -118h-83l-8 64h-3c-28 -37 -87 -76 -165 -76c-109 0 -159 74 -159 139c0 116 106 184 319 182v9c0 30 -9 113 -121 112c-50 0 -104 -15 -141 -40l-22 60c47 30 110 46 176 46c165 0 199 -114 199 -207zM359 167v79
c-114 3 -228 -17 -228 -107c0 -56 40 -84 90 -84c73 0 117 45 133 84c4 9 5 19 5 28z" />
    <glyph glyph-name="b" unicode="b" horiz-adv-x="626" 
d="M80 128v588h91v-316h2c33 56 95 96 186 96c134 0 228 -104 227 -247c0 -173 -122 -261 -241 -261c-76 0 -141 27 -184 97h-2l-4 -85h-79c3 35 4 81 4 128zM171 273v-71c0 -11 1 -22 4 -33c16 -57 74 -109 151 -109c103 0 168 72 168 186c0 98 -59 180 -164 180
c-67 0 -132 -41 -153 -116c-3 -10 -6 -22 -6 -37z" />
    <glyph glyph-name="c" unicode="c" horiz-adv-x="496" 
d="M445 88l16 -69c-25 -11 -83 -31 -158 -31c-160 0 -263 104 -263 248c0 152 112 260 283 260c60 0 113 -15 140 -29l-21 -69c-25 13 -63 26 -119 26c-121 0 -190 -80 -190 -182c0 -112 82 -181 187 -181c58 0 97 15 125 27z" />
    <glyph glyph-name="d" unicode="d" horiz-adv-x="619" 
d="M448 716h91v-588c0 -47 1 -93 4 -128h-82l-4 91h-2c-31 -60 -97 -103 -185 -103c-130 0 -230 103 -230 245c-1 159 108 263 241 263c87 0 143 -41 165 -79h2v299zM448 214v69c0 12 -1 27 -4 39c-17 58 -71 104 -146 104c-101 0 -166 -77 -166 -186
c0 -97 56 -179 165 -179c70 0 130 49 146 113c4 13 5 26 5 40z" />
    <glyph glyph-name="e" unicode="e" horiz-adv-x="547" 
d="M504 223h-377c2 -109 83 -164 183 -164c73 0 115 12 152 27l16 -65c-32 -13 -90 -33 -180 -33c-160 0 -259 100 -259 245c0 143 93 263 250 263c177 0 219 -150 219 -233c0 -18 -1 -31 -4 -40zM128 288h292c1 42 -18 144 -138 144c-103 0 -146 -84 -154 -144z" />
    <glyph glyph-name="f" unicode="f" horiz-adv-x="314" 
d="M177 0h-91v415h-70v69h70v21c0 74 18 138 61 177c34 32 80 46 124 46c34 0 62 -7 80 -15l-11 -70c-15 7 -33 12 -62 12c-80 0 -102 -68 -102 -147v-24h127v-69h-126v-415z" />
    <glyph glyph-name="g" unicode="g" horiz-adv-x="613" 
d="M533 358v-284c0 -107 -25 -181 -76 -226c-54 -47 -129 -60 -192 -60c-64 0 -136 15 -179 45l23 70c36 -23 92 -44 159 -44c100 0 175 50 175 177v55h-2c-30 -48 -88 -89 -174 -89c-132 0 -227 105 -227 236c0 159 115 258 240 258c95 0 147 -46 171 -91h2l3 79h81
c-3 -35 -4 -73 -4 -126zM442 217v69c0 15 -2 28 -5 41c-19 57 -70 100 -142 100c-93 0 -163 -70 -163 -184c0 -85 52 -172 162 -172c65 0 120 42 140 98c5 14 8 32 8 48z" />
    <glyph glyph-name="h" unicode="h" horiz-adv-x="605" 
d="M80 0v716h91v-315h2c16 27 40 52 71 68c28 17 63 27 98 27c67 0 187 -37 187 -219v-277h-91v268c0 84 -35 153 -127 153c-65 0 -115 -45 -133 -91c-6 -13 -7 -26 -7 -44v-286h-91z" />
    <glyph glyph-name="i" unicode="i" horiz-adv-x="250" 
d="M171 0h-91v484h91v-484zM125 568h-1c-34 0 -56 26 -56 56s23 56 58 56c34 0 57 -25 57 -56c0 -30 -22 -56 -58 -56z" />
    <glyph glyph-name="j" unicode="j" horiz-adv-x="262" 
d="M-42 -215l-9 72c46 2 83 14 106 37c26 28 37 67 37 191v399h91v-437c0 -92 -15 -157 -61 -204c-41 -42 -111 -58 -164 -58zM137 568h-1c-35 0 -56 27 -56 56c0 30 23 56 59 56c34 0 56 -26 56 -56c0 -29 -21 -56 -58 -56z" />
    <glyph glyph-name="k" unicode="k" horiz-adv-x="507" 
d="M171 716v-453h2c13 16 32 39 48 55l158 166h113l-207 -198l238 -286h-114l-187 234l-51 -52v-182h-91v716h91z" />
    <glyph glyph-name="l" unicode="l" horiz-adv-x="250" 
d="M80 0v716h91v-716h-91z" />
    <glyph glyph-name="m" unicode="m" horiz-adv-x="906" 
d="M80 0v351c0 49 -1 92 -4 133h79l5 -83h3c29 48 77 95 167 95c73 0 127 -46 148 -104h2c17 29 36 50 57 65c33 25 67 39 120 39c64 0 174 -39 174 -223v-273h-89v264c0 104 -43 158 -118 158c-56 0 -98 -40 -116 -81c-4 -13 -8 -29 -8 -45v-296h-89v282
c0 85 -42 140 -112 140c-62 0 -106 -49 -122 -91c-5 -13 -8 -29 -8 -44v-287h-89z" />
    <glyph glyph-name="n" unicode="n" horiz-adv-x="605" 
d="M80 0v351c0 49 -1 92 -4 133h81l5 -86h3c25 47 87 98 176 98c66 0 188 -37 188 -219v-277h-91v269c0 85 -36 153 -127 153c-66 0 -115 -46 -133 -94c-4 -11 -7 -27 -7 -40v-288h-91z" />
    <glyph glyph-name="o" unicode="o" horiz-adv-x="604" 
d="M298 -12h-1c-146 0 -258 101 -258 249c0 158 116 259 266 259c157 0 259 -107 259 -248c0 -177 -137 -260 -266 -260zM299 55h1c91 0 170 68 170 189c0 85 -50 185 -167 185c-115 0 -170 -91 -170 -188c0 -116 76 -186 166 -186z" />
    <glyph glyph-name="p" unicode="p" horiz-adv-x="626" 
d="M80 -200v524c0 57 -1 110 -4 160h82l5 -89h2c38 61 102 101 194 101c128 0 227 -102 227 -245c0 -173 -117 -263 -243 -263c-71 0 -136 28 -170 83h-2v-271h-91zM171 273v-70c0 -12 1 -23 4 -34c16 -59 75 -111 151 -111c103 0 168 73 168 189c0 95 -59 178 -163 178
c-68 0 -133 -42 -153 -116c-4 -11 -7 -24 -7 -36z" />
    <glyph glyph-name="q" unicode="q" horiz-adv-x="617" 
d="M448 -200v283h-2c-30 -53 -90 -95 -180 -95c-125 0 -226 102 -226 245c0 185 131 263 241 263c90 0 144 -45 169 -90h2l3 78h88c-3 -43 -4 -84 -4 -127v-557h-91zM448 204v79c0 13 -1 27 -4 38c-17 56 -69 104 -146 104c-100 0 -166 -75 -166 -186
c0 -95 53 -179 163 -179c68 0 124 42 145 101c5 12 8 29 8 43z" />
    <glyph glyph-name="r" unicode="r" horiz-adv-x="354" 
d="M80 0v325c0 62 -1 111 -4 159h80l3 -101h3c25 71 83 113 146 113c10 0 18 -1 27 -3v-84c-10 2 -20 3 -34 3c-67 0 -113 -47 -126 -116c-3 -13 -4 -27 -4 -41v-255h-91z" />
    <glyph glyph-name="s" unicode="s" horiz-adv-x="432" 
d="M45 24l22 68c30 -18 82 -37 130 -37c71 0 101 33 101 73c0 44 -30 65 -99 86c-96 29 -139 78 -139 137c0 78 65 145 179 145c53 0 100 -14 129 -32l-22 -66c-19 12 -60 31 -111 31c-56 0 -86 -30 -86 -68c0 -42 34 -60 102 -82c93 -30 136 -71 136 -145
c0 -82 -67 -146 -193 -146c-58 0 -111 15 -149 36z" />
    <glyph glyph-name="t" unicode="t" horiz-adv-x="357" 
d="M100 576l89 25v-117h137v-69h-137v-253c0 -59 16 -99 72 -99c27 0 43 3 57 7l5 -68c-19 -8 -49 -14 -86 -14c-44 0 -80 15 -101 40c-26 28 -36 74 -36 128v259h-80v69h80v92z" />
    <glyph glyph-name="u" unicode="u" horiz-adv-x="602" 
d="M522 484v-351c0 -50 1 -94 4 -133h-81l-5 88h-2c-25 -44 -81 -100 -179 -100c-73 0 -183 35 -183 221v275h91v-259c0 -97 34 -162 123 -162c63 0 111 41 132 86c5 13 9 29 9 46v289h91z" />
    <glyph glyph-name="v" unicode="v" horiz-adv-x="526" 
d="M13 484h99l106 -272c19 -49 33 -87 46 -127h2c13 40 29 80 48 128l106 271h97l-211 -484h-90z" />
    <glyph glyph-name="w" unicode="w" horiz-adv-x="793" 
d="M20 484h93l71 -249c15 -54 28 -104 39 -154h2c12 48 29 100 47 154l87 249h79l83 -245c19 -59 34 -110 46 -158h2c10 48 24 100 41 157l77 246h90l-168 -484h-85l-79 230c-20 56 -36 107 -49 164h-2c-13 -59 -30 -111 -49 -164l-85 -230h-85z" />
    <glyph glyph-name="x" unicode="x" horiz-adv-x="505" 
d="M16 484h103l78 -104c20 -26 37 -50 55 -76h2c18 27 35 51 54 78l75 102h102l-182 -232l188 -252h-105l-80 108c-21 29 -39 57 -58 85h-2c-18 -29 -37 -55 -58 -85l-78 -108h-103l191 248z" />
    <glyph glyph-name="y" unicode="y" horiz-adv-x="513" 
d="M8 484h101l119 -289c12 -30 26 -70 35 -98h2c10 29 22 66 35 101l108 286h99l-150 -356c-74 -181 -120 -255 -181 -300c-47 -36 -92 -48 -115 -51l-19 76c22 5 52 17 80 37c25 17 59 52 83 104c5 8 7 15 7 20c0 4 -1 12 -7 24z" />
    <glyph glyph-name="z" unicode="z" horiz-adv-x="466" 
d="M19 0v52l241 280c24 29 45 51 71 78v2h-292v72h406l-1 -56l-237 -277c-24 -27 -45 -52 -70 -77v-2h313v-72h-431z" />
    <glyph glyph-name="braceleft" unicode="{" horiz-adv-x="294" 
d="M28 262v51c76 0 85 40 85 76c0 27 -4 55 -8 83c-5 28 -9 55 -9 82c0 92 62 132 152 132h23v-56h-19c-64 0 -86 -32 -86 -90c0 -22 4 -46 8 -70c4 -23 8 -49 8 -76c1 -60 -28 -93 -73 -105v-2c45 -11 74 -47 73 -106c0 -27 -4 -52 -8 -76c-4 -25 -8 -47 -8 -70
c0 -60 27 -91 86 -91h19v-56h-23c-88 0 -152 37 -152 140c0 26 4 53 9 79c4 27 8 53 8 79c0 32 -9 76 -85 76z" />
    <glyph glyph-name="bar" unicode="|" horiz-adv-x="251" 
d="M92 750h68v-1000h-68v1000z" />
    <glyph glyph-name="braceright" unicode="}" horiz-adv-x="294" 
d="M266 313v-51c-76 0 -85 -44 -85 -76c0 -26 4 -52 9 -79c4 -26 8 -53 8 -79c0 -103 -64 -140 -152 -140h-23v56h19c59 0 86 31 86 91c0 23 -4 45 -8 70c-4 24 -8 49 -8 76c-1 59 28 95 73 106v2c-45 12 -74 45 -73 105c0 27 4 53 8 76c4 24 8 48 8 70c0 58 -22 90 -86 90
h-19v56h23c90 0 152 -40 152 -132c0 -27 -4 -54 -8 -82c-5 -28 -9 -56 -9 -83c0 -36 9 -76 85 -76z" />
    <glyph glyph-name="asciitilde" unicode="~" horiz-adv-x="596" 
d="M102 207h-62c-3 104 52 156 123 156c43 0 72 -12 145 -46c50 -23 90 -43 130 -43c36 0 55 28 56 86h61c5 -118 -57 -156 -119 -156c-39 0 -77 13 -149 46c-48 22 -85 44 -122 44c-38 0 -61 -26 -63 -87z" />
    <glyph glyph-name="exclamdown" unicode="&#xa1;" horiz-adv-x="239" 
d="M170 -196h-101l16 474h69zM120 486h1c36 0 61 -27 61 -65c0 -35 -25 -64 -62 -64s-63 29 -62 64c0 38 25 65 62 65z" />
    <glyph glyph-name="cent" unicode="&#xa2;" horiz-adv-x="556" 
d="M356 -17h-65v103c-75 8 -124 34 -164 75c-35 39 -58 97 -58 164c0 134 88 233 222 252v103h65v-101c52 0 97 -15 123 -27l-22 -70c-21 13 -58 28 -117 28c-106 0 -180 -74 -180 -178c0 -113 79 -177 174 -177c63 0 103 16 129 28l16 -65c-20 -11 -67 -29 -123 -32v-103z
" />
    <glyph glyph-name="sterling" unicode="&#xa3;" horiz-adv-x="556" 
d="M510 0h-446v50c75 40 120 100 120 175c0 21 -1 39 -5 66h-109v66h100c-5 31 -11 68 -11 105c0 120 84 200 204 200c57 0 96 -13 119 -26l-20 -69c-20 12 -52 22 -99 22c-85 0 -119 -55 -119 -131c0 -40 5 -72 11 -101h157v-66h-149c2 -36 5 -72 -4 -107
c-12 -46 -37 -80 -70 -107v-2h321v-75z" />
    <glyph glyph-name="fraction" unicode="&#x2044;" horiz-adv-x="440" 
d="M53 -12h-59l393 674h59z" />
    <glyph glyph-name="fraction" unicode="&#x2215;" horiz-adv-x="440" 
d="M53 -12h-59l393 674h59z" />
    <glyph glyph-name="yen" unicode="&#xa5;" horiz-adv-x="556" 
d="M314 0h-86v171h-165v51h165v72h-165v51h139l-185 305h100l115 -210c18 -34 29 -57 42 -88h3c11 27 26 58 43 90l121 208h98l-196 -305h137v-51h-166v-72h166v-51h-166v-171z" />
    <glyph glyph-name="florin" unicode="&#x192;" horiz-adv-x="556" 
d="M122 335v65h106l5 43c11 99 58 219 201 219c33 -2 59 -9 73 -16l-17 -66c-16 6 -34 11 -56 11c-73 0 -105 -67 -113 -143l-6 -48h130v-65h-138l-23 -196c-16 -134 -60 -224 -183 -224c-35 0 -65 7 -82 16l16 64c19 -8 37 -11 59 -11c69 1 92 61 104 160l21 191h-97z" />
    <glyph glyph-name="section" unicode="&#xa7;" horiz-adv-x="558" 
d="M143 351v-1c0 -36 26 -67 114 -97c57 -19 97 -33 120 -46c23 19 37 46 37 76c0 38 -22 70 -96 95c-42 14 -96 31 -130 50c-32 -23 -45 -48 -45 -77zM448 648l-23 -58c-26 16 -70 34 -130 34c-65 0 -109 -32 -109 -75c0 -50 52 -70 134 -95c98 -30 171 -67 171 -158
c0 -52 -26 -91 -66 -121c18 -15 40 -48 40 -90c0 -106 -104 -151 -200 -151c-65 0 -126 14 -168 44l26 58c25 -18 77 -42 141 -42c68 0 117 31 117 82c0 47 -29 73 -128 104c-110 34 -185 71 -185 159c0 37 21 83 75 117c-21 15 -38 51 -38 84c0 88 84 143 192 143
c62 0 114 -15 151 -35z" />
    <glyph glyph-name="currency" unicode="&#xa4;" horiz-adv-x="556" 
d="M277 536h1c50 0 93 -15 121 -40l75 76l46 -47l-80 -70c20 -25 38 -68 38 -119c0 -58 -19 -102 -38 -125l75 -73l-46 -45l-70 77c-32 -29 -81 -42 -124 -42c-44 0 -92 14 -120 39l-69 -74l-44 45l72 70c-21 24 -41 69 -41 121c0 57 20 99 43 126l-76 69l46 48l70 -76
c31 25 74 40 121 40zM275 472h-1c-79 0 -129 -66 -129 -141c0 -102 77 -139 129 -139c58 0 132 34 132 144c0 66 -45 136 -131 136z" />
    <glyph glyph-name="quotesingle" unicode="'" horiz-adv-x="194" 
d="M51 695h93l-18 -242h-57z" />
    <glyph glyph-name="quotedblleft" unicode="&#x201c;" horiz-adv-x="370" 
d="M134 459l-95 -10c23 85 67 193 94 240l60 6c-22 -59 -48 -163 -59 -236zM287 459l-95 -10c24 85 67 193 95 240l59 6c-22 -59 -48 -163 -59 -236z" />
    <glyph glyph-name="guillemotleft" unicode="&#xab;" horiz-adv-x="441" 
d="M246 440l-143 -188l144 -187h-74l-143 187l142 188h74zM417 440l-143 -188l144 -187h-74l-143 187l142 188h74z" />
    <glyph glyph-name="guilsinglleft" unicode="&#x2039;" horiz-adv-x="270" 
d="M246 440l-143 -188l144 -187h-74l-143 187l142 188h74z" />
    <glyph glyph-name="guilsinglright" unicode="&#x203a;" horiz-adv-x="270" 
d="M167 252l-144 188h74l143 -188l-143 -187h-73z" />
    <glyph glyph-name="endash" unicode="&#x2013;" horiz-adv-x="500" 
d="M30 283h440v-61h-440v61z" />
    <glyph glyph-name="dagger" unicode="&#x2020;" horiz-adv-x="540" 
d="M228 674h85l-8 -215l188 8v-74l-188 8l8 -451h-85l8 451l-188 -8v74l188 -8z" />
    <glyph glyph-name="daggerdbl" unicode="&#x2021;" horiz-adv-x="540" 
d="M228 674h85l-7 -202l187 8v-74l-187 8v-200l187 8v-74l-187 8l6 -206h-84l6 206l-186 -8v74l187 -8v200l-187 -8v74l187 -8z" />
    <glyph glyph-name="periodcentered" unicode="&#xb7;" horiz-adv-x="211" 
d="M105 200h-1c-36 0 -62 29 -61 64c0 38 25 65 62 65s62 -27 62 -65c0 -35 -25 -64 -62 -64z" />
    <glyph glyph-name="periodcentered" unicode="&#x2219;" horiz-adv-x="211" 
d="M105 200h-1c-36 0 -62 29 -61 64c0 38 25 65 62 65s62 -27 62 -65c0 -35 -25 -64 -62 -64z" />
    <glyph glyph-name="paragraph" unicode="&#xb6;" horiz-adv-x="549" 
d="M312 -49h-66v310h-8c-88 0 -203 64 -203 194c0 102 53 222 292 222c61 0 103 -3 127 -9v-717h-66v663h-76v-663z" />
    <glyph glyph-name="bullet" unicode="&#x2022;" horiz-adv-x="290" 
d="M145 155h-1c-59 0 -107 47 -107 107c-1 60 48 108 108 108s108 -48 108 -108c0 -59 -48 -107 -108 -107z" />
    <glyph glyph-name="quotesinglbase" unicode="&#x201a;" horiz-adv-x="217" 
d="M80 -111l-59 -6c22 59 48 163 59 236l95 10c-24 -85 -67 -193 -95 -240z" />
    <glyph glyph-name="quotedblbase" unicode="&#x201e;" horiz-adv-x="372" 
d="M80 -111l-59 -6c22 59 48 163 59 236l95 10c-24 -85 -67 -193 -95 -240zM234 -111l-60 -6c22 59 48 163 59 236l95 10c-23 -85 -67 -193 -94 -240z" />
    <glyph glyph-name="quotedblright" unicode="&#x201d;" horiz-adv-x="370" 
d="M98 685l95 10c-24 -85 -67 -194 -95 -240l-59 -6c22 58 48 163 59 236zM251 685l95 10c-23 -85 -67 -194 -94 -240l-60 -6c22 58 48 163 59 236z" />
    <glyph glyph-name="guillemotright" unicode="&#xbb;" horiz-adv-x="441" 
d="M168 252l-144 188h73l143 -188l-143 -187h-72zM338 252l-144 188h73l143 -188l-143 -187h-73z" />
    <glyph glyph-name="ellipsis" unicode="&#x2026;" horiz-adv-x="1000" 
d="M167 -12h-1c-36 0 -62 29 -61 64c0 38 25 65 62 65s62 -27 62 -65c0 -35 -25 -64 -62 -64zM500 -12h-1c-36 0 -62 29 -61 64c0 38 25 65 62 65s62 -27 62 -65c0 -35 -25 -64 -62 -64zM833 -12h-1c-36 0 -62 29 -61 64c0 38 25 65 62 65s62 -27 62 -65
c0 -35 -25 -64 -62 -64z" />
    <glyph glyph-name="perthousand" unicode="&#x2030;" horiz-adv-x="1230" 
d="M199 662h1c95 0 159 -67 159 -193c0 -138 -76 -208 -167 -208c-85 0 -161 62 -162 196c0 133 76 205 169 205zM195 608h-1c-56 0 -91 -60 -91 -147c-2 -88 35 -146 92 -146c61 0 91 56 91 149c0 84 -26 144 -91 144zM251 -12h-58l394 673h58zM650 393h1
c95 0 159 -67 159 -192c0 -138 -76 -208 -167 -208c-84 0 -160 62 -161 195c0 133 76 205 168 205zM647 339h-1c-56 0 -91 -59 -91 -146c-2 -88 35 -146 91 -146c61 0 91 56 91 148c0 85 -26 144 -90 144zM1040 393h1c95 0 159 -67 159 -192c0 -138 -76 -208 -167 -208
c-85 0 -161 62 -162 195c0 133 76 205 169 205zM1036 339h-1c-56 0 -91 -59 -91 -146c-2 -88 35 -146 92 -146c61 0 91 56 91 148c0 85 -26 144 -91 144z" />
    <glyph glyph-name="questiondown" unicode="&#xbf;" horiz-adv-x="438" 
d="M258 486h1c36 0 61 -27 61 -65c0 -35 -25 -64 -62 -64s-62 29 -62 64c0 38 25 65 62 65zM217 281h82l2 -30c5 -52 -16 -109 -68 -167c-49 -52 -74 -92 -74 -133c0 -49 31 -87 101 -88c39 0 84 13 113 36l26 -65c-40 -28 -102 -45 -158 -45c-119 0 -176 72 -176 151
c0 65 37 113 90 169c48 53 66 98 64 144z" />
    <glyph glyph-name="grave" unicode="`" 
d="M16 697h103l91 -146h-66z" />
    <glyph glyph-name="acute" unicode="&#xb4;" 
d="M189 697h103l-128 -146h-66z" />
    <glyph glyph-name="circumflex" unicode="&#x2c6;" 
d="M117 697h64l101 -146h-70l-62 97h-2l-62 -97h-68z" />
    <glyph glyph-name="tilde" unicode="&#x2dc;" 
d="M72 569h-50c-2 70 27 108 70 108c22 0 41 -10 67 -24c16 -9 31 -17 43 -17c16 0 26 10 28 44h49c1 -69 -22 -104 -70 -104c-23 0 -43 10 -66 22c-21 12 -32 18 -44 18c-16 0 -25 -18 -27 -47z" />
    <glyph glyph-name="macron" unicode="&#xaf;" 
d="M34 646h234v-58h-234v58z" />
    <glyph glyph-name="macron" unicode="&#x2c9;" 
d="M34 646h234v-58h-234v58z" />
    <glyph glyph-name="breve" unicode="&#x2d8;" 
d="M20 687h55c7 -40 33 -72 75 -72c51 0 72 39 75 72h55c-1 -78 -51 -129 -130 -129c-94 0 -129 66 -130 129z" />
    <glyph glyph-name="dotaccent" unicode="&#x2d9;" 
d="M136 572h-1c-30 0 -52 25 -52 53c0 29 24 54 54 54c29 0 51 -24 51 -54c0 -28 -21 -53 -52 -53z" />
    <glyph glyph-name="dieresis" unicode="&#xa8;" 
d="M53 571h-1c-30 0 -51 25 -51 53c0 29 23 53 53 53c28 0 50 -24 50 -53c0 -28 -20 -53 -51 -53zM248 571h-2c-30 0 -50 25 -50 53c0 29 22 53 52 53c29 0 51 -24 51 -53c0 -28 -20 -53 -51 -53z" />
    <glyph glyph-name="ring" unicode="&#x2da;" horiz-adv-x="400" 
d="M201 728h1c61 0 101 -41 101 -96c0 -53 -45 -93 -102 -93c-61 0 -104 41 -104 93c0 54 41 96 104 96zM200 690h-1c-31 0 -50 -26 -50 -58c0 -28 21 -55 51 -55c32 0 53 25 53 56c0 32 -21 57 -53 57z" />
    <glyph glyph-name="cedilla" unicode="&#xb8;" 
d="M133 2h56l-34 -52c37 -4 71 -30 71 -68c0 -60 -49 -82 -109 -82c-24 0 -51 7 -68 17l14 43c17 -9 39 -14 56 -14c23 0 46 8 45 32c-1 26 -31 37 -81 41z" />
    <glyph glyph-name="hungarumlaut" unicode="&#x2dd;" 
d="M126 697h92l-112 -137h-59zM277 697h92l-112 -137h-59z" />
    <glyph glyph-name="ogonek" unicode="&#x2db;" 
d="M123 3h58c-15 -17 -56 -60 -56 -100c0 -31 20 -51 53 -51c18 0 36 5 47 10l15 -46c-20 -16 -58 -24 -83 -24c-58 0 -97 30 -97 88c0 49 36 95 63 123z" />
    <glyph glyph-name="caron" unicode="&#x2c7;" 
d="M184 551h-67l-101 146h71l63 -98h2l63 98h68z" />
    <glyph glyph-name="emdash" unicode="&#x2014;" horiz-adv-x="1000" 
d="M30 283h940v-61h-940v61z" />
    <glyph glyph-name="AE" unicode="&#xc6;" horiz-adv-x="865" 
d="M91 0h-95l343 674h461v-74h-320l30 -212h278v-74h-266l36 -240h269v-74h-347l-35 243h-231zM247 317h187l-27 189c-4 28 -11 71 -13 102h-4c-12 -27 -28 -61 -44 -93z" />
    <glyph glyph-name="ordfeminine" unicode="&#xaa;" horiz-adv-x="370" 
d="M325 267h-63l-6 44h-2c-21 -23 -58 -49 -110 -49c-73 0 -109 45 -109 96c0 69 72 118 215 113v10c0 8 -6 61 -79 61c-35 0 -68 -9 -93 -28l-17 43c32 23 78 35 123 35c111 0 135 -75 135 -147v-99c0 -28 2 -55 6 -79zM252 377v50c-76 2 -147 -11 -147 -66
c0 -32 27 -51 61 -51s62 19 74 39c8 11 12 22 12 28z" />
    <glyph glyph-name="Lslash" unicode="&#x141;" horiz-adv-x="518" 
d="M496 0h-412v274l-89 -60v66l89 60v334h91v-275l143 96v-68l-143 -95v-256h321v-76z" />
    <glyph glyph-name="Oslash" unicode="&#xd8;" horiz-adv-x="770" 
d="M121 -44l-51 44l69 85c-63 61 -101 149 -101 247c0 209 152 354 350 354c71 0 136 -20 191 -57l68 85l55 -42l-69 -85c62 -60 98 -147 98 -244c0 -229 -165 -355 -345 -355c-73 0 -139 21 -193 57zM192 154l340 413c-40 30 -88 48 -146 48c-166 0 -255 -135 -255 -278
c0 -82 25 -135 59 -184zM578 518l-337 -412c38 -29 80 -47 143 -47c158 0 254 125 254 281c0 60 -15 121 -57 177z" />
    <glyph glyph-name="OE" unicode="&#x152;" horiz-adv-x="988" 
d="M948 74v-74h-378c-22 0 -47 -3 -75 -6c-29 -3 -61 -6 -99 -6c-220 0 -358 146 -358 344c0 216 148 354 362 354c42 0 76 -3 105 -6s53 -6 74 -6h352v-74h-309v-212h292v-74h-292v-240h326zM531 75v523c-31 9 -68 16 -124 16c-179 0 -273 -128 -273 -278
c0 -149 98 -276 283 -276c43 0 88 6 114 15z" />
    <glyph glyph-name="ordmasculine" unicode="&#xba;" horiz-adv-x="373" 
d="M187 592h1c105 0 173 -73 173 -162c-2 -114 -91 -168 -175 -168c-97 0 -173 67 -173 161c0 102 81 169 174 169zM186 541h-1c-69 0 -102 -60 -102 -116c0 -70 52 -112 104 -112c55 0 103 39 103 114c0 50 -32 114 -104 114z" />
    <glyph glyph-name="ae" unicode="&#xe6;" horiz-adv-x="844" 
d="M802 230h-358c-4 -103 68 -171 168 -171c77 0 120 17 148 29l17 -64c-39 -20 -102 -36 -174 -36c-91 0 -170 41 -201 112h-3c-33 -71 -107 -112 -198 -112c-112 0 -162 72 -162 137c0 110 107 180 320 176v18c0 13 -11 110 -123 110c-52 0 -108 -18 -140 -40l-22 60
c50 30 114 47 165 47c99 0 149 -45 171 -108h2c36 66 101 108 185 108c166 0 208 -156 208 -227c0 -15 -1 -31 -3 -39zM361 178v63c-110 3 -230 -16 -230 -108c0 -48 40 -78 91 -78c74 -1 117 42 133 86c4 11 6 24 6 37zM443 295h274c2 35 -22 137 -129 137
c-99 0 -142 -85 -145 -137z" />
    <glyph glyph-name="dotlessi" unicode="&#x131;" horiz-adv-x="250" 
d="M171 0h-91v484h91v-484z" />
    <glyph glyph-name="lslash" unicode="&#x142;" horiz-adv-x="256" 
d="M174 0h-91v286l-70 -57v69l70 57v361h91v-290l73 59v-70l-73 -60v-355z" />
    <glyph glyph-name="oslash" unicode="&#xf8;" horiz-adv-x="604" 
d="M303 496h1c49 0 97 -12 137 -35l47 62l39 -29l-46 -61c53 -46 83 -113 83 -186c0 -175 -134 -259 -262 -259c-50 0 -98 12 -137 36l-50 -64l-36 32l45 59c-52 44 -84 109 -84 187c0 156 114 258 263 258zM173 115l225 286c-27 18 -59 28 -97 28
c-119 0 -172 -94 -172 -188c0 -47 13 -91 42 -126h2zM431 367l-224 -284c28 -21 59 -28 91 -28c99 0 177 70 177 190c0 34 -11 84 -42 121z" />
    <glyph glyph-name="oe" unicode="&#x153;" horiz-adv-x="948" 
d="M905 224h-362c-1 -98 73 -166 175 -166c70 0 110 15 145 30l18 -64c-42 -23 -113 -36 -172 -36c-93 0 -166 36 -210 119h-2c-41 -82 -126 -119 -209 -119c-142 0 -249 102 -249 250c0 153 110 258 255 258c93 0 170 -45 204 -121h2c40 83 112 121 193 121
c175 0 215 -153 215 -231c0 -17 -1 -33 -3 -41zM296 429h-1c-116 0 -162 -101 -162 -188c0 -114 75 -186 162 -186c90 0 162 65 162 187c0 96 -52 187 -161 187zM541 289h279c1 41 -17 143 -134 143c-98 0 -138 -85 -145 -143z" />
    <glyph glyph-name="germandbls" unicode="&#xdf;" horiz-adv-x="587" 
d="M171 0h-91v453c0 117 29 181 74 222c40 36 91 53 156 53c101 0 188 -63 188 -173c0 -36 -12 -66 -23 -82c-46 -20 -73 -47 -73 -81c0 -35 20 -55 52 -86c39 -38 86 -80 86 -156c0 -93 -66 -162 -186 -162c-38 0 -81 6 -115 23l17 69c29 -14 58 -22 91 -22
c67 0 102 39 102 86c0 40 -17 67 -55 100c-45 41 -83 80 -83 136c0 50 31 94 91 124c4 10 8 23 8 41c0 65 -39 112 -110 112c-85 0 -129 -57 -129 -198v-459z" />
    <glyph glyph-name="onesuperior" unicode="&#xb9;" horiz-adv-x="255" 
d="M183 451h-73v327h-2l-71 -33l-12 53l93 43h65v-390z" />
    <glyph glyph-name="logicalnot" unicode="&#xac;" horiz-adv-x="596" 
d="M40 400h516v-278h-66v216h-450v62z" />
    <glyph glyph-name="mu" unicode="&#xb5;" horiz-adv-x="604" 
d="M444 83h-4c-23 -43 -74 -94 -156 -94c-50 0 -97 19 -120 59v-56c0 -51 1 -149 12 -192h-81c-11 32 -15 111 -15 189v495h91v-275c0 -81 37 -146 124 -146c62 0 110 41 131 86c5 13 9 29 9 46v289h91v-341c0 -60 12 -81 51 -84l-7 -66c-12 -3 -16 -5 -32 -5
c-47 0 -87 27 -94 95z" />
    <glyph glyph-name="trademark" unicode="&#x2122;" horiz-adv-x="655" 
d="M32 674h244v-46h-95v-226h-55v226h-94v46zM645 402h-57l-10 160c-1 21 -1 46 -2 76h-4c-7 -23 -16 -56 -24 -81l-54 -151h-58l-53 155c-6 20 -14 53 -21 77h-3c0 -25 -1 -52 -2 -76l-11 -160h-55l22 272h85l51 -135c7 -19 12 -40 19 -68h2c7 24 14 48 20 67l51 136h82z
" />
    <glyph glyph-name="Eth" unicode="&#xd0;" horiz-adv-x="744" 
d="M-3 302v74h87v292c61 8 134 15 212 15c143 0 246 -33 312 -95c63 -58 97 -134 97 -234c0 -97 -34 -189 -102 -257c-71 -67 -188 -105 -337 -105c-72 0 -130 3 -182 8v302h-87zM382 376v-74h-207v-233c26 -4 65 -5 107 -5c221 0 327 118 327 288c2 159 -101 259 -310 259
c-56 0 -97 -5 -124 -10v-225h207z" />
    <glyph glyph-name="onehalf" unicode="&#xbd;" horiz-adv-x="808" 
d="M191 267h-73v327h-2l-71 -33l-12 53l93 43h65v-390zM190 -12h-59l392 674h59zM469 0v40l70 61c94 81 131 119 131 165c0 36 -23 71 -81 71c-38 0 -70 -18 -90 -32l-22 46c29 24 77 44 130 44c100 0 140 -63 140 -114c0 -77 -57 -125 -142 -198l-31 -25v-2h180v-56h-285z
" />
    <glyph glyph-name="plusminus" unicode="&#xb1;" horiz-adv-x="596" 
d="M265 573h66v-194h225v-62h-225v-200h-66v200h-225v62h225v194zM40 62h516v-62h-516v62z" />
    <glyph glyph-name="Thorn" unicode="&#xde;" horiz-adv-x="576" 
d="M81 0v674h90v-131c32 6 70 9 111 9c86 0 149 -20 192 -58c35 -31 58 -77 58 -129c0 -144 -112 -217 -272 -217c-34 0 -65 2 -89 6v-154h-90zM171 472v-245c27 -6 58 -7 89 -7c118 0 181 53 181 135c0 93 -74 126 -167 126c-47 0 -85 -5 -103 -9z" />
    <glyph glyph-name="onequarter" unicode="&#xbc;" horiz-adv-x="808" 
d="M205 267h-73v327h-2l-71 -33l-12 53l93 43h65v-390zM207 -12h-58l392 674h59zM706 0h-70v101h-218v40l210 254h78v-244h65v-50h-65v-101zM636 151v124c0 22 1 41 3 60h-2c-13 -19 -23 -37 -33 -50l-110 -133l1 -1h141z" />
    <glyph glyph-name="divide" unicode="&#xf7;" horiz-adv-x="596" 
d="M298 383h-1c-32 0 -56 26 -55 58c0 35 23 59 56 59s56 -24 56 -59c0 -32 -23 -58 -56 -58zM556 236h-516v62h516v-62zM298 34h-1c-32 0 -56 26 -55 58c0 35 23 59 56 59s56 -24 56 -59c0 -32 -23 -58 -56 -58z" />
    <glyph glyph-name="brokenbar" unicode="&#xa6;" horiz-adv-x="251" 
d="M92 174h68v-350h-68v350zM92 674h68v-350h-68v350z" />
    <glyph glyph-name="degree" unicode="&#xb0;" horiz-adv-x="330" 
d="M166 686h1c85 0 134 -63 134 -131c0 -82 -67 -135 -137 -135c-81 0 -135 60 -135 129c0 78 60 137 137 137zM164 637h-1c-53 0 -77 -47 -77 -87c0 -45 33 -81 78 -81c47 0 80 36 80 85c0 34 -19 83 -80 83z" />
    <glyph glyph-name="thorn" unicode="&#xfe;" horiz-adv-x="626" 
d="M80 671h91v-268h2c35 53 94 93 185 93c127 1 228 -98 228 -246c0 -177 -122 -262 -245 -262c-68 0 -131 27 -168 82h-2v-270h-91v871zM171 274v-78c0 -14 4 -33 11 -46c21 -50 77 -92 148 -92c93 0 164 68 164 191c0 94 -62 176 -162 176c-63 0 -124 -34 -149 -98
c-6 -15 -12 -36 -12 -53z" />
    <glyph glyph-name="threequarters" unicode="&#xbe;" horiz-adv-x="808" 
d="M69 580l-19 48c26 17 71 34 124 34c93 0 130 -47 130 -95c0 -41 -32 -74 -81 -91v-2c60 -7 98 -47 98 -96c0 -60 -57 -116 -165 -116c-53 0 -102 14 -126 30l20 51c17 -11 61 -28 101 -28c69 0 94 40 93 66c-1 51 -60 69 -112 69h-33v47h34c40 0 94 16 95 63
c0 22 -17 49 -67 49c-39 0 -76 -18 -92 -29zM251 -12h-58l392 674h59zM720 0h-70v101h-219v40l211 254h78v-244h65v-50h-65v-101zM650 151v124c0 22 1 41 3 60h-2c-13 -20 -23 -37 -33 -50l-111 -133l1 -1h142z" />
    <glyph glyph-name="twosuperior" unicode="&#xb2;" horiz-adv-x="333" 
d="M15 451v40l71 61c93 81 130 118 130 165c0 36 -23 71 -81 71c-38 0 -70 -18 -90 -32l-22 46c29 24 77 44 130 44c100 0 140 -63 140 -115c0 -76 -56 -126 -142 -197l-31 -25v-2h180v-56h-285z" />
    <glyph glyph-name="registered" unicode="&#xae;" horiz-adv-x="435" 
d="M192 496v-66h-40v166c16 2 38 5 66 5c31 0 46 -5 58 -13c10 -7 17 -19 17 -35c0 -19 -15 -33 -35 -39v-2c16 -6 25 -19 30 -41c5 -26 9 -36 13 -41h-43c-5 6 -8 20 -13 40c-3 18 -14 26 -35 26h-18zM193 571v-47h18c22 0 39 7 39 24c0 15 -11 25 -36 25
c-10 0 -17 -1 -21 -2zM219 683h1c95 0 170 -74 170 -166c0 -95 -75 -169 -171 -169c-97 0 -173 74 -173 169c0 92 76 166 173 166zM218 649h-1c-73 0 -128 -60 -128 -133c0 -74 55 -133 130 -133c74 -1 128 59 128 133c0 73 -54 133 -129 133z" />
    <glyph glyph-name="minus" unicode="&#x2212;" horiz-adv-x="596" 
d="M40 298h516v-62h-516v62z" />
    <glyph glyph-name="eth" unicode="&#xf0;" horiz-adv-x="595" 
d="M293 55h1c94 0 164 67 164 190c0 67 -11 102 -41 131c-26 25 -64 47 -120 47c-115 0 -164 -103 -164 -188c0 -110 74 -180 160 -180zM128 507l-19 47l127 57c-33 21 -74 40 -115 54l36 60c54 -20 111 -48 160 -80l140 64l21 -47l-113 -51c62 -46 111 -103 144 -169
c28 -56 43 -118 43 -188c0 -184 -129 -266 -259 -266c-146 0 -254 101 -254 246c0 154 121 250 249 250c46 0 88 -9 134 -52l2 3c-34 52 -77 100 -137 142z" />
    <glyph glyph-name="multiply" unicode="&#xd7;" horiz-adv-x="596" 
d="M40 481l46 45l212 -217l212 217l46 -45l-213 -218l213 -218l-46 -45l-212 217l-212 -217l-46 45l213 218z" />
    <glyph glyph-name="threesuperior" unicode="&#xb3;" horiz-adv-x="328" 
d="M50 764l-19 49c26 16 72 33 125 33c92 0 129 -47 129 -95c0 -41 -32 -74 -81 -91v-2c60 -7 98 -47 98 -96c0 -60 -57 -116 -165 -116c-53 0 -102 14 -126 30l20 51c17 -11 61 -28 101 -28c69 0 94 40 93 66c-1 51 -60 69 -112 69h-33v47h34c40 0 94 16 95 63
c0 22 -17 49 -67 49c-38 0 -76 -18 -92 -29z" />
    <glyph glyph-name="copyright" unicode="&#xa9;" horiz-adv-x="677" 
d="M340 648h1c168 0 299 -138 299 -308c0 -172 -131 -310 -300 -310c-170 0 -303 138 -303 310c0 170 133 308 303 308zM340 606h-1c-142 0 -252 -117 -252 -269c0 -149 110 -265 253 -265c140 -2 250 116 250 268c0 149 -110 266 -250 266zM474 492l-12 -39
c-13 8 -50 24 -98 24c-93 0 -139 -60 -139 -140c0 -78 49 -141 141 -141c41 0 79 11 102 27l12 -38c-35 -24 -83 -32 -124 -32c-116 0 -183 79 -183 181c0 114 91 186 190 186c53 0 98 -15 111 -28z" />
    <glyph glyph-name="Aacute" unicode="&#xc1;" horiz-adv-x="671" 
d="M469 215h-269l-78 -215h-95l254 674h111l257 -674h-99zM220 285h229l-77 202c-16 43 -27 78 -38 113h-2c-10 -36 -20 -71 -35 -112zM377 830h111l-128 -120h-75z" />
    <glyph glyph-name="Acircumflex" unicode="&#xc2;" horiz-adv-x="671" 
d="M469 215h-269l-78 -215h-95l254 674h111l257 -674h-99zM220 285h229l-77 202c-16 43 -27 78 -38 113h-2c-10 -36 -20 -71 -35 -112zM307 830h67l111 -120h-76l-67 74h-2l-68 -74h-73z" />
    <glyph glyph-name="Adieresis" unicode="&#xc4;" horiz-adv-x="671" 
d="M469 215h-269l-78 -215h-95l254 674h111l257 -674h-99zM220 285h229l-77 202c-16 43 -27 78 -38 113h-2c-10 -36 -20 -71 -35 -112zM243 720h-1c-30 0 -50 25 -50 52c0 28 22 52 52 52c28 0 49 -23 49 -52c0 -27 -20 -52 -50 -52zM436 720h-1c-29 0 -49 25 -49 52
c0 28 22 52 51 52s50 -23 50 -52c0 -27 -20 -52 -51 -52z" />
    <glyph glyph-name="Agrave" unicode="&#xc0;" horiz-adv-x="671" 
d="M469 215h-269l-78 -215h-95l254 674h111l257 -674h-99zM220 285h229l-77 202c-16 43 -27 78 -38 113h-2c-10 -36 -20 -71 -35 -112zM185 830h111l92 -119h-75z" />
    <glyph glyph-name="Aring" unicode="&#xc5;" horiz-adv-x="671" 
d="M469 215h-269l-78 -215h-95l254 674h111l257 -674h-99zM220 285h229l-77 202c-16 43 -27 78 -38 113h-2c-10 -36 -20 -71 -35 -112zM337 882h1c61 0 100 -40 100 -92c0 -51 -42 -89 -101 -89c-61 0 -102 39 -102 89c0 51 39 92 102 92zM336 845h-1c-30 0 -48 -25 -48 -55
c0 -27 20 -52 49 -52s49 23 49 53s-20 54 -49 54z" />
    <glyph glyph-name="Atilde" unicode="&#xc3;" horiz-adv-x="671" 
d="M469 215h-269l-78 -215h-95l254 674h111l257 -674h-99zM220 285h229l-77 202c-16 43 -27 78 -38 113h-2c-10 -36 -20 -71 -35 -112zM258 715h-49c-2 62 26 104 71 104c23 0 40 -9 63 -22c17 -9 35 -18 51 -18c15 0 24 7 27 40h48c1 -65 -22 -99 -69 -99
c-21 0 -40 7 -65 20c-20 11 -35 20 -50 20c-16 0 -24 -18 -27 -45z" />
    <glyph glyph-name="Ccedilla" unicode="&#xc7;" horiz-adv-x="648" 
d="M592 96l19 -71c-34 -17 -106 -35 -206 -36l-26 -39c39 -8 72 -34 72 -76c0 -60 -52 -82 -106 -82c-27 0 -56 6 -73 16l14 46c15 -8 36 -13 57 -13c24 0 44 10 44 32c0 25 -30 36 -81 42l44 77c-181 20 -312 141 -312 340c0 193 147 354 390 354c97 0 159 -21 185 -34
l-23 -72c-38 18 -95 32 -158 32c-187 0 -298 -111 -298 -279c0 -151 101 -269 291 -269c62 0 125 12 167 32z" />
    <glyph glyph-name="Eacute" unicode="&#xc9;" horiz-adv-x="537" 
d="M464 389v-74h-292v-241h326v-74h-417v674h400v-74h-309v-211h292zM322 830h111l-128 -120h-75z" />
    <glyph glyph-name="Ecircumflex" unicode="&#xca;" horiz-adv-x="537" 
d="M464 389v-74h-292v-241h326v-74h-417v674h400v-74h-309v-211h292zM246 830h67l111 -120h-76l-67 74h-2l-68 -74h-73z" />
    <glyph glyph-name="Edieresis" unicode="&#xcb;" horiz-adv-x="537" 
d="M464 389v-74h-292v-241h326v-74h-417v674h400v-74h-309v-211h292zM181 720h-1c-30 0 -50 25 -50 52c0 28 22 52 52 52c28 0 49 -23 49 -52c0 -27 -20 -52 -50 -52zM374 720h-1c-29 0 -49 25 -49 52c0 28 22 52 51 52s50 -23 50 -52c0 -27 -20 -52 -51 -52z" />
    <glyph glyph-name="Egrave" unicode="&#xc8;" horiz-adv-x="537" 
d="M464 389v-74h-292v-241h326v-74h-417v674h400v-74h-309v-211h292zM140 830h111l92 -119h-75z" />
    <glyph glyph-name="Iacute" unicode="&#xcd;" horiz-adv-x="253" 
d="M81 674h91v-674h-91v674zM166 830h111l-128 -120h-75z" />
    <glyph glyph-name="Icircumflex" unicode="&#xce;" horiz-adv-x="253" 
d="M81 674h91v-674h-91v674zM92 830h67l111 -120h-76l-67 74h-2l-68 -74h-73z" />
    <glyph glyph-name="Idieresis" unicode="&#xcf;" horiz-adv-x="253" 
d="M81 674h91v-674h-91v674zM31 720h-1c-30 0 -50 25 -50 52c0 28 22 52 52 52c28 0 49 -23 49 -52c0 -27 -20 -52 -50 -52zM224 720h-1c-29 0 -49 25 -49 52c0 28 22 52 51 52s50 -23 50 -52c0 -27 -20 -52 -51 -52z" />
    <glyph glyph-name="Igrave" unicode="&#xcc;" horiz-adv-x="253" 
d="M81 674h91v-674h-91v674zM-21 830h111l92 -119h-75z" />
    <glyph glyph-name="Ntilde" unicode="&#xd1;" horiz-adv-x="722" 
d="M167 0h-86v674h103l247 -349c56 -81 97 -146 131 -214l3 1c-9 85 -10 165 -10 266v296h86v-674h-93l-243 347c-53 78 -104 155 -141 225l-3 -1c5 -84 6 -164 6 -265v-306zM286 715h-49c-2 62 26 104 71 104c23 0 40 -9 63 -22c17 -9 35 -18 51 -18c15 0 24 7 27 40h48
c1 -65 -22 -99 -69 -99c-21 0 -40 7 -65 20c-20 11 -35 20 -50 20c-16 0 -24 -18 -27 -45z" />
    <glyph glyph-name="Oacute" unicode="&#xd3;" horiz-adv-x="770" 
d="M380 -12h-1c-201 0 -341 145 -341 341c0 210 149 357 350 357c207 0 343 -146 343 -342c0 -224 -159 -356 -351 -356zM383 60h1c155 0 251 120 251 280c0 137 -86 274 -249 274c-165 0 -252 -131 -252 -282c0 -146 95 -272 249 -272zM423 833h111l-128 -120h-75z" />
    <glyph glyph-name="Ocircumflex" unicode="&#xd4;" horiz-adv-x="770" 
d="M380 -12h-1c-201 0 -341 145 -341 341c0 210 149 357 350 357c207 0 343 -146 343 -342c0 -224 -159 -356 -351 -356zM383 60h1c155 0 251 120 251 280c0 137 -86 274 -249 274c-165 0 -252 -131 -252 -282c0 -146 95 -272 249 -272zM350 833h67l111 -120h-76l-67 74h-2
l-68 -74h-73z" />
    <glyph glyph-name="Odieresis" unicode="&#xd6;" horiz-adv-x="770" 
d="M380 -12h-1c-201 0 -341 145 -341 341c0 210 149 357 350 357c207 0 343 -146 343 -342c0 -224 -159 -356 -351 -356zM383 60h1c155 0 251 120 251 280c0 137 -86 274 -249 274c-165 0 -252 -131 -252 -282c0 -146 95 -272 249 -272zM289 720h-1c-30 0 -50 25 -50 52
c0 28 22 52 52 52c28 0 49 -23 49 -52c0 -27 -20 -52 -50 -52zM482 720h-1c-29 0 -49 25 -49 52c0 28 22 52 51 52s50 -23 50 -52c0 -27 -20 -52 -51 -52z" />
    <glyph glyph-name="Ograve" unicode="&#xd2;" horiz-adv-x="770" 
d="M380 -12h-1c-201 0 -341 145 -341 341c0 210 149 357 350 357c207 0 343 -146 343 -342c0 -224 -159 -356 -351 -356zM383 60h1c155 0 251 120 251 280c0 137 -86 274 -249 274c-165 0 -252 -131 -252 -282c0 -146 95 -272 249 -272zM237 833h111l92 -119h-75z" />
    <glyph glyph-name="Otilde" unicode="&#xd5;" horiz-adv-x="770" 
d="M380 -12h-1c-201 0 -341 145 -341 341c0 210 149 357 350 357c207 0 343 -146 343 -342c0 -224 -159 -356 -351 -356zM383 60h1c155 0 251 120 251 280c0 137 -86 274 -249 274c-165 0 -252 -131 -252 -282c0 -146 95 -272 249 -272zM304 718h-49c-2 62 26 104 71 104
c23 0 40 -9 63 -22c17 -9 35 -18 51 -18c15 0 24 7 27 40h48c1 -65 -22 -99 -69 -99c-21 0 -40 7 -65 20c-20 11 -35 20 -50 20c-16 0 -24 -18 -27 -45z" />
    <glyph glyph-name="Scaron" unicode="&#x160;" horiz-adv-x="537" 
d="M46 36l25 75c44 -28 106 -49 175 -49c95 0 151 47 151 115c0 63 -37 99 -140 131c-130 40 -196 97 -196 193c0 107 93 185 232 185c78 0 133 -17 167 -36l-26 -72c-23 13 -74 35 -143 35c-102 0 -138 -57 -138 -102c0 -62 43 -94 146 -127c125 -41 190 -93 190 -200
c0 -100 -74 -196 -252 -196c-71 0 -150 21 -191 48zM314 713h-67l-111 120h76l68 -73h2l67 73h73z" />
    <glyph glyph-name="Uacute" unicode="&#xda;" horiz-adv-x="711" 
d="M81 674h91v-382c0 -160 75 -231 180 -231c113 0 187 73 187 231v382h91v-378c0 -217 -121 -308 -283 -308c-150 0 -266 83 -266 306v380zM398 830h111l-128 -120h-75z" />
    <glyph glyph-name="Ucircumflex" unicode="&#xdb;" horiz-adv-x="711" 
d="M81 674h91v-382c0 -160 75 -231 180 -231c113 0 187 73 187 231v382h91v-378c0 -217 -121 -308 -283 -308c-150 0 -266 83 -266 306v380zM329 830h67l111 -120h-76l-67 74h-2l-68 -74h-73z" />
    <glyph glyph-name="Udieresis" unicode="&#xdc;" horiz-adv-x="711" 
d="M81 674h91v-382c0 -160 75 -231 180 -231c113 0 187 73 187 231v382h91v-378c0 -217 -121 -308 -283 -308c-150 0 -266 83 -266 306v380zM263 720h-1c-30 0 -50 25 -50 52c0 28 22 52 52 52c28 0 49 -23 49 -52c0 -27 -20 -52 -50 -52zM456 720h-1c-29 0 -49 25 -49 52
c0 28 22 52 51 52s50 -23 50 -52c0 -27 -20 -52 -51 -52z" />
    <glyph glyph-name="Ugrave" unicode="&#xd9;" horiz-adv-x="711" 
d="M81 674h91v-382c0 -160 75 -231 180 -231c113 0 187 73 187 231v382h91v-378c0 -217 -121 -308 -283 -308c-150 0 -266 83 -266 306v380zM216 830h111l92 -119h-75z" />
    <glyph glyph-name="Yacute" unicode="&#xdd;" horiz-adv-x="590" 
d="M340 0h-91v286l-235 388h105l107 -192c28 -52 50 -89 72 -135h2c20 42 45 84 74 135l110 192h105l-249 -387v-287zM343 823h111l-128 -120h-75z" />
    <glyph glyph-name="Ydieresis" unicode="&#x178;" horiz-adv-x="590" 
d="M340 0h-91v286l-235 388h105l107 -192c28 -52 50 -89 72 -135h2c20 42 45 84 74 135l110 192h105l-249 -387v-287zM209 713h-1c-30 0 -50 25 -50 52c0 28 22 52 52 52c28 0 49 -23 49 -52c0 -27 -20 -52 -50 -52zM402 713h-1c-29 0 -49 25 -49 52c0 28 22 52 51 52
s50 -23 50 -52c0 -27 -20 -52 -51 -52z" />
    <glyph glyph-name="Zcaron" unicode="&#x17d;" horiz-adv-x="619" 
d="M33 0v52l422 545v3h-386v74h508v-53l-420 -544v-3h427v-74h-551zM355 710h-67l-111 120h76l68 -73h2l67 73h73z" />
    <glyph glyph-name="aacute" unicode="&#xe1;" horiz-adv-x="522" 
d="M448 289v-171c0 -43 2 -84 8 -118h-83l-8 64h-3c-28 -37 -87 -76 -165 -76c-109 0 -159 74 -159 139c0 116 106 184 319 182v9c0 30 -9 113 -121 112c-50 0 -104 -15 -141 -40l-22 60c47 30 110 46 176 46c165 0 199 -114 199 -207zM359 167v79
c-114 3 -228 -17 -228 -107c0 -56 40 -84 90 -84c73 0 117 45 133 84c4 9 5 19 5 28zM294 697h103l-128 -146h-66z" />
    <glyph glyph-name="acircumflex" unicode="&#xe2;" horiz-adv-x="522" 
d="M448 289v-171c0 -43 2 -84 8 -118h-83l-8 64h-3c-28 -37 -87 -76 -165 -76c-109 0 -159 74 -159 139c0 116 106 184 319 182v9c0 30 -9 113 -121 112c-50 0 -104 -15 -141 -40l-22 60c47 30 110 46 176 46c165 0 199 -114 199 -207zM359 167v79
c-114 3 -228 -17 -228 -107c0 -56 40 -84 90 -84c73 0 117 45 133 84c4 9 5 19 5 28zM223 697h64l101 -146h-70l-62 97h-2l-62 -97h-68z" />
    <glyph glyph-name="adieresis" unicode="&#xe4;" horiz-adv-x="522" 
d="M448 289v-171c0 -43 2 -84 8 -118h-83l-8 64h-3c-28 -37 -87 -76 -165 -76c-109 0 -159 74 -159 139c0 116 106 184 319 182v9c0 30 -9 113 -121 112c-50 0 -104 -15 -141 -40l-22 60c47 30 110 46 176 46c165 0 199 -114 199 -207zM359 167v79
c-114 3 -228 -17 -228 -107c0 -56 40 -84 90 -84c73 0 117 45 133 84c4 9 5 19 5 28zM164 571h-1c-30 0 -51 25 -51 53c0 29 23 53 53 53c28 0 50 -24 50 -53c0 -28 -20 -53 -51 -53zM359 571h-2c-30 0 -50 25 -50 53c0 29 22 53 52 53c29 0 51 -24 51 -53
c0 -28 -20 -53 -51 -53z" />
    <glyph glyph-name="agrave" unicode="&#xe0;" horiz-adv-x="522" 
d="M448 289v-171c0 -43 2 -84 8 -118h-83l-8 64h-3c-28 -37 -87 -76 -165 -76c-109 0 -159 74 -159 139c0 116 106 184 319 182v9c0 30 -9 113 -121 112c-50 0 -104 -15 -141 -40l-22 60c47 30 110 46 176 46c165 0 199 -114 199 -207zM359 167v79
c-114 3 -228 -17 -228 -107c0 -56 40 -84 90 -84c73 0 117 45 133 84c4 9 5 19 5 28zM107 697h103l91 -146h-66z" />
    <glyph glyph-name="aring" unicode="&#xe5;" horiz-adv-x="522" 
d="M448 289v-171c0 -43 2 -84 8 -118h-83l-8 64h-3c-28 -37 -87 -76 -165 -76c-109 0 -159 74 -159 139c0 116 106 184 319 182v9c0 30 -9 113 -121 112c-50 0 -104 -15 -141 -40l-22 60c47 30 110 46 176 46c165 0 199 -114 199 -207zM359 167v79
c-114 3 -228 -17 -228 -107c0 -56 40 -84 90 -84c73 0 117 45 133 84c4 9 5 19 5 28zM261 728h1c61 0 101 -41 101 -96c0 -53 -45 -93 -102 -93c-61 0 -104 41 -104 93c0 54 41 96 104 96zM260 690h-1c-31 0 -50 -26 -50 -58c0 -28 21 -55 51 -55c32 0 53 25 53 56
c0 32 -21 57 -53 57z" />
    <glyph glyph-name="atilde" unicode="&#xe3;" horiz-adv-x="522" 
d="M448 289v-171c0 -43 2 -84 8 -118h-83l-8 64h-3c-28 -37 -87 -76 -165 -76c-109 0 -159 74 -159 139c0 116 106 184 319 182v9c0 30 -9 113 -121 112c-50 0 -104 -15 -141 -40l-22 60c47 30 110 46 176 46c165 0 199 -114 199 -207zM359 167v79
c-114 3 -228 -17 -228 -107c0 -56 40 -84 90 -84c73 0 117 45 133 84c4 9 5 19 5 28zM178 569h-50c-2 70 27 108 70 108c22 0 41 -10 67 -24c16 -9 31 -17 43 -17c16 0 26 10 28 44h49c1 -69 -22 -104 -70 -104c-23 0 -43 10 -66 22c-21 12 -32 18 -44 18
c-16 0 -25 -18 -27 -47z" />
    <glyph glyph-name="ccedilla" unicode="&#xe7;" horiz-adv-x="496" 
d="M444 88l16 -69c-22 -10 -73 -29 -143 -31l-26 -38c38 -7 72 -32 72 -74c0 -61 -52 -84 -108 -84c-22 0 -52 6 -70 17l14 45c14 -8 35 -13 55 -13c25 0 46 8 46 32c-1 26 -31 37 -81 42l44 76c-135 13 -223 113 -223 245c0 152 112 260 282 260c60 0 113 -15 140 -29
l-21 -69c-25 13 -63 26 -119 26c-121 0 -189 -80 -189 -182c0 -112 81 -181 186 -181c59 0 97 15 125 27z" />
    <glyph glyph-name="eacute" unicode="&#xe9;" horiz-adv-x="547" 
d="M504 223h-377c2 -109 83 -164 183 -164c73 0 115 12 152 27l16 -65c-32 -13 -90 -33 -180 -33c-160 0 -259 100 -259 245c0 143 93 263 250 263c177 0 219 -150 219 -233c0 -18 -1 -31 -4 -40zM128 288h292c1 42 -18 144 -138 144c-103 0 -146 -84 -154 -144zM327 697
h103l-128 -146h-66z" />
    <glyph glyph-name="ecircumflex" unicode="&#xea;" horiz-adv-x="547" 
d="M504 223h-377c2 -109 83 -164 183 -164c73 0 115 12 152 27l16 -65c-32 -13 -90 -33 -180 -33c-160 0 -259 100 -259 245c0 143 93 263 250 263c177 0 219 -150 219 -233c0 -18 -1 -31 -4 -40zM128 288h292c1 42 -18 144 -138 144c-103 0 -146 -84 -154 -144zM253 697h64
l101 -146h-70l-62 97h-2l-62 -97h-68z" />
    <glyph glyph-name="edieresis" unicode="&#xeb;" horiz-adv-x="547" 
d="M504 223h-377c2 -109 83 -164 183 -164c73 0 115 12 152 27l16 -65c-32 -13 -90 -33 -180 -33c-160 0 -259 100 -259 245c0 143 93 263 250 263c177 0 219 -150 219 -233c0 -18 -1 -31 -4 -40zM128 288h292c1 42 -18 144 -138 144c-103 0 -146 -84 -154 -144zM195 571h-1
c-30 0 -51 25 -51 53c0 29 23 53 53 53c28 0 50 -24 50 -53c0 -28 -20 -53 -51 -53zM390 571h-2c-30 0 -50 25 -50 53c0 29 22 53 52 53c29 0 51 -24 51 -53c0 -28 -20 -53 -51 -53z" />
    <glyph glyph-name="egrave" unicode="&#xe8;" horiz-adv-x="547" 
d="M504 223h-377c2 -109 83 -164 183 -164c73 0 115 12 152 27l16 -65c-32 -13 -90 -33 -180 -33c-160 0 -259 100 -259 245c0 143 93 263 250 263c177 0 219 -150 219 -233c0 -18 -1 -31 -4 -40zM128 288h292c1 42 -18 144 -138 144c-103 0 -146 -84 -154 -144zM156 697
h103l91 -146h-66z" />
    <glyph glyph-name="iacute" unicode="&#xed;" horiz-adv-x="250" 
d="M171 0h-91v484h91v-484zM163 697h103l-128 -146h-66z" />
    <glyph glyph-name="icircumflex" unicode="&#xee;" horiz-adv-x="250" 
d="M171 0h-91v484h91v-484zM92 697h64l101 -146h-70l-62 97h-2l-62 -97h-68z" />
    <glyph glyph-name="idieresis" unicode="&#xef;" horiz-adv-x="250" 
d="M171 0h-91v484h91v-484zM28 571h-1c-30 0 -51 25 -51 53c0 29 23 53 53 53c28 0 50 -24 50 -53c0 -28 -20 -53 -51 -53zM223 571h-2c-30 0 -50 25 -50 53c0 29 22 53 52 53c29 0 51 -24 51 -53c0 -28 -20 -53 -51 -53z" />
    <glyph glyph-name="igrave" unicode="&#xec;" horiz-adv-x="250" 
d="M171 0h-91v484h91v-484zM-28 697h103l91 -146h-66z" />
    <glyph glyph-name="ntilde" unicode="&#xf1;" horiz-adv-x="605" 
d="M80 0v351c0 49 -1 92 -4 133h81l5 -86h3c25 47 87 98 176 98c66 0 188 -37 188 -219v-277h-91v269c0 85 -36 153 -127 153c-66 0 -115 -46 -133 -94c-4 -11 -7 -27 -7 -40v-288h-91zM225 569h-50c-2 70 27 108 70 108c22 0 41 -10 67 -24c16 -9 31 -17 43 -17
c16 0 26 10 28 44h49c1 -69 -22 -104 -70 -104c-23 0 -43 10 -66 22c-21 12 -32 18 -44 18c-16 0 -25 -18 -27 -47z" />
    <glyph glyph-name="oacute" unicode="&#xf3;" horiz-adv-x="604" 
d="M298 -12h-1c-146 0 -258 101 -258 249c0 158 116 259 266 259c157 0 259 -107 259 -248c0 -177 -137 -260 -266 -260zM299 55h1c91 0 170 68 170 189c0 85 -50 185 -167 185c-115 0 -170 -91 -170 -188c0 -116 76 -186 166 -186zM335 697h103l-128 -146h-66z" />
    <glyph glyph-name="ocircumflex" unicode="&#xf4;" horiz-adv-x="604" 
d="M298 -12h-1c-146 0 -258 101 -258 249c0 158 116 259 266 259c157 0 259 -107 259 -248c0 -177 -137 -260 -266 -260zM299 55h1c91 0 170 68 170 189c0 85 -50 185 -167 185c-115 0 -170 -91 -170 -188c0 -116 76 -186 166 -186zM269 697h64l101 -146h-70l-62 97h-2
l-62 -97h-68z" />
    <glyph glyph-name="odieresis" unicode="&#xf6;" horiz-adv-x="604" 
d="M298 -12h-1c-146 0 -258 101 -258 249c0 158 116 259 266 259c157 0 259 -107 259 -248c0 -177 -137 -260 -266 -260zM299 55h1c91 0 170 68 170 189c0 85 -50 185 -167 185c-115 0 -170 -91 -170 -188c0 -116 76 -186 166 -186zM205 571h-1c-30 0 -51 25 -51 53
c0 29 23 53 53 53c28 0 50 -24 50 -53c0 -28 -20 -53 -51 -53zM400 571h-2c-30 0 -50 25 -50 53c0 29 22 53 52 53c29 0 51 -24 51 -53c0 -28 -20 -53 -51 -53z" />
    <glyph glyph-name="ograve" unicode="&#xf2;" horiz-adv-x="604" 
d="M298 -12h-1c-146 0 -258 101 -258 249c0 158 116 259 266 259c157 0 259 -107 259 -248c0 -177 -137 -260 -266 -260zM299 55h1c91 0 170 68 170 189c0 85 -50 185 -167 185c-115 0 -170 -91 -170 -188c0 -116 76 -186 166 -186zM168 697h103l91 -146h-66z" />
    <glyph glyph-name="otilde" unicode="&#xf5;" horiz-adv-x="604" 
d="M298 -12h-1c-146 0 -258 101 -258 249c0 158 116 259 266 259c157 0 259 -107 259 -248c0 -177 -137 -260 -266 -260zM299 55h1c91 0 170 68 170 189c0 85 -50 185 -167 185c-115 0 -170 -91 -170 -188c0 -116 76 -186 166 -186zM224 569h-50c-2 70 27 108 70 108
c22 0 41 -10 67 -24c16 -9 31 -17 43 -17c16 0 26 10 28 44h49c1 -69 -22 -104 -70 -104c-23 0 -43 10 -66 22c-21 12 -32 18 -44 18c-16 0 -25 -18 -27 -47z" />
    <glyph glyph-name="scaron" unicode="&#x161;" horiz-adv-x="432" 
d="M45 24l22 68c30 -18 82 -37 130 -37c71 0 101 33 101 73c0 44 -30 65 -99 86c-96 29 -139 78 -139 137c0 78 65 145 179 145c53 0 100 -14 129 -32l-22 -66c-19 12 -60 31 -111 31c-56 0 -86 -30 -86 -68c0 -42 34 -60 102 -82c93 -30 136 -71 136 -145
c0 -82 -67 -146 -193 -146c-58 0 -111 15 -149 36zM255 551h-67l-101 146h71l63 -98h2l63 98h68z" />
    <glyph glyph-name="uacute" unicode="&#xfa;" horiz-adv-x="602" 
d="M522 484v-351c0 -50 1 -94 4 -133h-81l-5 88h-2c-25 -44 -81 -100 -179 -100c-73 0 -183 35 -183 221v275h91v-259c0 -97 34 -162 123 -162c63 0 111 41 132 86c5 13 9 29 9 46v289h91zM346 697h103l-128 -146h-66z" />
    <glyph glyph-name="ucircumflex" unicode="&#xfb;" horiz-adv-x="602" 
d="M522 484v-351c0 -50 1 -94 4 -133h-81l-5 88h-2c-25 -44 -81 -100 -179 -100c-73 0 -183 35 -183 221v275h91v-259c0 -97 34 -162 123 -162c63 0 111 41 132 86c5 13 9 29 9 46v289h91zM268 697h64l101 -146h-70l-62 97h-2l-62 -97h-68z" />
    <glyph glyph-name="udieresis" unicode="&#xfc;" horiz-adv-x="602" 
d="M522 484v-351c0 -50 1 -94 4 -133h-81l-5 88h-2c-25 -44 -81 -100 -179 -100c-73 0 -183 35 -183 221v275h91v-259c0 -97 34 -162 123 -162c63 0 111 41 132 86c5 13 9 29 9 46v289h91zM207 571h-1c-30 0 -51 25 -51 53c0 29 23 53 53 53c28 0 50 -24 50 -53
c0 -28 -20 -53 -51 -53zM402 571h-2c-30 0 -50 25 -50 53c0 29 22 53 52 53c29 0 51 -24 51 -53c0 -28 -20 -53 -51 -53z" />
    <glyph glyph-name="ugrave" unicode="&#xf9;" horiz-adv-x="602" 
d="M522 484v-351c0 -50 1 -94 4 -133h-81l-5 88h-2c-25 -44 -81 -100 -179 -100c-73 0 -183 35 -183 221v275h91v-259c0 -97 34 -162 123 -162c63 0 111 41 132 86c5 13 9 29 9 46v289h91zM158 697h103l91 -146h-66z" />
    <glyph glyph-name="yacute" unicode="&#xfd;" horiz-adv-x="513" 
d="M8 484h101l119 -289c12 -30 26 -70 35 -98h2c10 29 22 66 35 101l108 286h99l-150 -356c-74 -181 -120 -255 -181 -300c-47 -36 -92 -48 -115 -51l-19 76c22 5 52 17 80 37c25 17 59 52 83 104c5 8 7 15 7 20c0 4 -1 12 -7 24zM308 697h103l-128 -146h-66z" />
    <glyph glyph-name="ydieresis" unicode="&#xff;" horiz-adv-x="513" 
d="M8 484h101l119 -289c12 -30 26 -70 35 -98h2c10 29 22 66 35 101l108 286h99l-150 -356c-74 -181 -120 -255 -181 -300c-47 -36 -92 -48 -115 -51l-19 76c22 5 52 17 80 37c25 17 59 52 83 104c5 8 7 15 7 20c0 4 -1 12 -7 24zM174 571h-1c-30 0 -51 25 -51 53
c0 29 23 53 53 53c28 0 50 -24 50 -53c0 -28 -20 -53 -51 -53zM369 571h-2c-30 0 -50 25 -50 53c0 29 22 53 52 53c29 0 51 -24 51 -53c0 -28 -20 -53 -51 -53z" />
    <glyph glyph-name="zcaron" unicode="&#x17e;" horiz-adv-x="466" 
d="M19 0v52l241 280c24 29 45 51 71 78v2h-292v72h406l-1 -56l-237 -277c-24 -27 -45 -52 -70 -77v-2h313v-72h-431zM281 551h-67l-101 146h71l63 -98h2l63 98h68z" />
    <glyph glyph-name="dollarsuperior" unicode="&#xf6e4;" horiz-adv-x="340" 
d="M191 401h-46v58c-40 1 -82 13 -106 29l17 51c26 -16 62 -29 102 -29c44 0 73 21 73 51c0 29 -23 45 -73 61c-72 24 -113 51 -113 107c0 52 38 93 103 102v58h46v-56c39 -1 70 -12 90 -23l-17 -50c-14 8 -44 23 -91 23c-48 0 -63 -24 -63 -45c0 -26 21 -40 81 -61
c71 -23 106 -54 106 -111c0 -47 -36 -94 -109 -104v-61z" />
    <glyph glyph-name="parenleftsuperior" unicode="&#x207d;" horiz-adv-x="188" 
d="M121 875h53c-41 -58 -74 -136 -74 -242s34 -181 74 -240h-53c-37 49 -80 125 -80 240c0 116 43 193 80 242z" />
    <glyph glyph-name="parenrightsuperior" unicode="&#x207e;" horiz-adv-x="188" 
d="M67 393h-53c40 59 74 136 74 241s-33 182 -74 241h53c36 -49 79 -125 79 -241c0 -115 -42 -191 -79 -241z" />
    <glyph glyph-name="zerooldstyle" unicode="&#xf730;" horiz-adv-x="578" 
d="M289 -12h-1c-137 0 -244 99 -244 254c0 150 106 254 245 254s246 -99 246 -254c0 -151 -106 -254 -246 -254zM289 56h2c94 0 156 75 156 186s-62 186 -158 186c-95 0 -157 -75 -157 -186s62 -186 157 -186z" />
    <glyph glyph-name="oneoldstyle" unicode="&#xf731;" horiz-adv-x="394" 
d="M285 0h-87v406h-2l-149 -65l-16 67l177 76h77v-484z" />
    <glyph glyph-name="twooldstyle" unicode="&#xf732;" horiz-adv-x="486" 
d="M457 0h-431v49l50 30c177 106 249 168 249 246c0 67 -49 101 -116 101c-57 0 -114 -27 -152 -55l-25 59c39 29 109 68 199 68c111 0 187 -59 187 -161c0 -94 -79 -163 -193 -234l-54 -33v-3c26 3 58 4 85 4h201v-71z" />
    <glyph glyph-name="threeoldstyle" unicode="&#xf733;" horiz-adv-x="468" 
d="M18 -93l11 66c29 -11 78 -20 127 -20c104 0 178 47 178 122c0 63 -64 101 -165 101c-25 0 -47 -2 -60 -3l-2 66l20 1c104 7 178 43 178 105c0 55 -44 81 -114 81c-57 0 -112 -25 -138 -39l-19 58c33 24 104 51 178 51c106 0 185 -49 185 -136c0 -67 -51 -118 -123 -138
v-3c82 -11 154 -57 154 -144c0 -115 -121 -192 -265 -192c-59 0 -120 12 -145 24z" />
    <glyph glyph-name="fouroldstyle" unicode="&#xf734;" horiz-adv-x="544" 
d="M525 48h-98v-165h-86v165h-320v59l304 385h102v-375h98v-69zM341 117v209c0 30 0 59 2 88h-4c-16 -28 -37 -61 -55 -86l-170 -208l1 -3h226z" />
    <glyph glyph-name="fiveoldstyle" unicode="&#xf735;" horiz-adv-x="479" 
d="M39 -97l12 65c27 -9 76 -16 118 -16c93 0 174 45 174 130c0 27 -11 50 -30 69c-41 42 -125 53 -253 44l53 289h313l-12 -73h-240l-30 -148c92 4 187 -7 245 -62c31 -30 47 -72 47 -113c0 -123 -105 -205 -265 -205c-51 0 -102 9 -132 20z" />
    <glyph glyph-name="sixoldstyle" unicode="&#xf736;" horiz-adv-x="565" 
d="M468 606l6 -67c-195 -6 -302 -103 -325 -219h3c27 35 82 76 162 76c113 0 204 -74 204 -193c0 -135 -114 -215 -224 -215c-146 0 -242 102 -242 250c0 209 158 360 416 368zM293 57h1c65 0 133 49 133 142c0 80 -53 134 -135 134c-53 0 -96 -27 -116 -49
c-26 -26 -32 -47 -32 -78c0 -71 55 -149 149 -149z" />
    <glyph glyph-name="sevenoldstyle" unicode="&#xf737;" horiz-adv-x="461" 
d="M437 484v-59c-72 -176 -197 -386 -305 -542l-86 17c84 113 236 358 297 508v2h-328v74h422z" />
    <glyph glyph-name="eightoldstyle" unicode="&#xf738;" horiz-adv-x="554" 
d="M372 321v-3c84 -28 138 -81 138 -150c0 -109 -106 -180 -236 -180c-134 0 -231 66 -231 169c0 70 51 124 133 157v2c-58 21 -107 62 -107 128c0 94 91 163 212 163c126 0 203 -72 203 -151c0 -59 -35 -103 -112 -135zM281 545h-1c-66 0 -121 -36 -121 -95
c0 -54 50 -88 132 -105c59 13 107 48 107 105c0 61 -56 95 -117 95zM274 54h1c80 0 140 45 140 107c0 60 -53 103 -157 126c-73 -20 -122 -65 -122 -121c0 -66 53 -112 138 -112z" />
    <glyph glyph-name="nineoldstyle" unicode="&#xf739;" horiz-adv-x="565" 
d="M93 -115l-6 67c186 4 296 90 326 212h-2c-22 -35 -84 -74 -161 -74c-112 0 -203 74 -203 192c0 119 102 216 236 216c127 0 231 -85 231 -244c0 -227 -178 -365 -421 -369zM273 155h1c60 0 118 37 139 78c6 12 10 28 10 47c0 89 -67 147 -144 147
c-68 0 -141 -47 -141 -140c0 -87 62 -132 135 -132z" />
    <glyph glyph-name="commasuperior" unicode="&#xf6e2;" horiz-adv-x="132" 
d="M49 386l-51 -5c16 44 32 107 40 157l77 6c-17 -57 -44 -121 -66 -158z" />
    <glyph glyph-name="periodsuperior" unicode="&#xf6e8;" horiz-adv-x="132" 
d="M65 445h-1c-26 0 -44 21 -44 46c0 27 19 46 46 46s45 -19 45 -46c0 -25 -18 -46 -46 -46z" />
    <glyph glyph-name="centsuperior" unicode="&#xf6e0;" horiz-adv-x="339" 
d="M220 443h-47v60c-45 5 -75 21 -99 45c-22 24 -35 59 -35 98c0 78 50 140 134 152v58h47v-57c27 0 53 -8 70 -15l-14 -51c-13 7 -33 15 -66 15c-61 0 -102 -39 -102 -97c0 -64 46 -97 100 -97c33 0 57 8 72 14l12 -47c-14 -7 -41 -17 -72 -19v-59z" />
    <glyph glyph-name="parenleftinferior" unicode="&#x208d;" horiz-adv-x="188" 
d="M121 277h53c-41 -58 -74 -136 -74 -242s34 -181 74 -240h-53c-37 49 -80 125 -80 240c0 116 43 193 80 242z" />
    <glyph glyph-name="parenrightinferior" unicode="&#x208e;" horiz-adv-x="188" 
d="M67 -205h-53c40 59 74 136 74 241s-33 182 -74 241h53c36 -49 79 -125 79 -241c0 -115 -42 -191 -79 -241z" />
    <glyph glyph-name="hyphensuperior" unicode="&#xf6e6;" horiz-adv-x="198" 
d="M18 658h162v-49h-162v49z" />
    <glyph glyph-name="hypheninferior" unicode="&#xf6e5;" horiz-adv-x="198" 
d="M18 60h162v-49h-162v49z" />
    <glyph glyph-name="zerosuperior" unicode="&#x2070;" horiz-adv-x="360" 
d="M177 446h-1c-91 0 -151 73 -151 199c0 125 61 201 157 201s153 -73 153 -197c0 -117 -50 -203 -158 -203zM179 497h1c53 0 82 56 82 151c0 94 -28 147 -83 147c-48 0 -81 -54 -81 -147c0 -97 32 -151 81 -151z" />
    <glyph glyph-name="foursuperior" unicode="&#x2074;" horiz-adv-x="373" 
d="M292 451h-71v101h-203v43l189 245h85v-237h59v-51h-59v-101zM221 603v121c0 19 2 39 3 59l-2 1c-12 -22 -23 -40 -34 -56l-97 -124l1 -1h129z" />
    <glyph glyph-name="fivesuperior" unicode="&#x2075;" horiz-adv-x="329" 
d="M284 838v-56h-167l-13 -83c9 1 20 2 36 2c36 0 69 -5 97 -20c32 -16 60 -51 60 -103c0 -77 -66 -133 -162 -133c-48 0 -92 14 -114 26l15 50c18 -10 56 -23 97 -23c47 0 93 28 93 75c0 43 -31 78 -120 78c-24 0 -46 -3 -63 -5l26 192h215z" />
    <glyph glyph-name="sixsuperior" unicode="&#x2076;" horiz-adv-x="354" 
d="M283 845l1 -54c-11 1 -28 1 -43 -1c-85 -10 -135 -60 -145 -121h1c20 22 56 43 101 43c78 0 131 -50 131 -126c0 -79 -63 -140 -147 -140c-98 0 -157 70 -157 169c0 73 28 134 71 171c37 34 84 52 147 57c15 1 30 3 40 2zM182 498h1c45 0 76 37 76 83c0 49 -32 82 -83 82
c-34 0 -64 -21 -78 -47c-3 -7 -5 -13 -5 -20c0 -51 30 -98 89 -98z" />
    <glyph glyph-name="sevensuperior" unicode="&#x2077;" horiz-adv-x="317" 
d="M23 838h279v-44l-183 -343h-74l183 331v1h-205v55z" />
    <glyph glyph-name="eightsuperior" unicode="&#x2078;" horiz-adv-x="348" 
d="M177 846h1c86 0 128 -49 128 -98c0 -33 -19 -68 -66 -87v-2c48 -15 83 -49 83 -97c0 -69 -62 -116 -151 -116c-96 0 -147 52 -147 107c0 47 30 79 81 98v3c-45 18 -66 51 -66 85c0 63 59 107 137 107zM173 495h1c48 0 78 28 78 61c0 44 -35 64 -86 75
c-46 -11 -71 -36 -71 -70c0 -33 29 -66 78 -66zM174 798h-1c-44 0 -68 -26 -68 -55c0 -34 29 -54 76 -64c33 8 60 29 60 62c0 27 -19 57 -67 57z" />
    <glyph glyph-name="ninesuperior" unicode="&#x2079;" horiz-adv-x="348" 
d="M62 447v53c11 -1 28 0 45 1c34 3 67 14 92 35c28 21 47 51 54 90h-2c-22 -25 -55 -40 -97 -40c-76 0 -129 51 -129 121c0 76 63 139 150 139c94 0 148 -69 148 -167c0 -83 -30 -143 -71 -179c-36 -31 -86 -48 -140 -51c-19 -2 -38 -3 -50 -2zM172 795h-1
c-46 0 -77 -39 -77 -86c0 -40 29 -74 77 -74c37 0 64 18 78 39c3 4 5 11 5 17c0 54 -23 104 -82 104z" />
    <glyph glyph-name="zeroinferior" unicode="&#x2080;" horiz-adv-x="360" 
d="M177 -152h-1c-91 0 -151 73 -151 199c0 125 61 201 157 201s153 -73 153 -197c0 -117 -50 -203 -158 -203zM179 -101h1c53 0 82 56 82 151c0 94 -28 147 -83 147c-48 0 -81 -54 -81 -147c0 -97 32 -151 81 -151z" />
    <glyph glyph-name="oneinferior" unicode="&#x2081;" horiz-adv-x="255" 
d="M183 -147h-73v327h-2l-71 -33l-12 53l93 43h65v-390z" />
    <glyph glyph-name="twoinferior" unicode="&#x2082;" horiz-adv-x="333" 
d="M15 -147v40l71 61c93 81 130 118 130 165c0 36 -23 71 -81 71c-38 0 -70 -18 -90 -32l-22 46c29 24 77 44 130 44c100 0 140 -63 140 -115c0 -76 -56 -126 -142 -197l-31 -25v-2h180v-56h-285z" />
    <glyph glyph-name="threeinferior" unicode="&#x2083;" horiz-adv-x="328" 
d="M50 166l-19 49c26 16 72 33 125 33c92 0 129 -47 129 -95c0 -41 -32 -74 -81 -91v-2c60 -7 98 -47 98 -96c0 -60 -57 -116 -165 -116c-53 0 -102 14 -126 30l20 51c17 -11 61 -28 101 -28c69 0 94 40 93 66c-1 51 -60 69 -112 69h-33v47h34c40 0 94 16 95 63
c0 22 -17 49 -67 49c-38 0 -76 -18 -92 -29z" />
    <glyph glyph-name="fourinferior" unicode="&#x2084;" horiz-adv-x="373" 
d="M292 -147h-71v101h-203v43l189 245h85v-237h59v-51h-59v-101zM221 5v121c0 19 2 39 3 59l-2 1c-12 -22 -23 -40 -34 -56l-97 -124l1 -1h129z" />
    <glyph glyph-name="fiveinferior" unicode="&#x2085;" horiz-adv-x="329" 
d="M284 240v-56h-167l-13 -83c9 1 20 2 36 2c36 0 69 -5 97 -20c32 -16 60 -51 60 -103c0 -77 -66 -133 -162 -133c-48 0 -92 14 -114 26l15 50c18 -10 56 -23 97 -23c47 0 93 28 93 75c0 43 -31 78 -120 78c-24 0 -46 -3 -63 -5l26 192h215z" />
    <glyph glyph-name="sixinferior" unicode="&#x2086;" horiz-adv-x="354" 
d="M283 247l1 -54c-11 1 -28 1 -43 -1c-85 -10 -135 -60 -145 -121h1c20 22 56 43 101 43c78 0 131 -50 131 -126c0 -79 -63 -140 -147 -140c-98 0 -157 70 -157 169c0 73 28 134 71 171c37 34 84 52 147 57c15 1 30 3 40 2zM182 -100h1c45 0 76 37 76 83
c0 49 -32 82 -83 82c-34 0 -64 -21 -78 -47c-3 -7 -5 -13 -5 -20c0 -51 30 -98 89 -98z" />
    <glyph glyph-name="seveninferior" unicode="&#x2087;" horiz-adv-x="317" 
d="M23 240h279v-44l-183 -343h-74l183 331v1h-205v55z" />
    <glyph glyph-name="eightinferior" unicode="&#x2088;" horiz-adv-x="348" 
d="M177 248h1c86 0 128 -49 128 -98c0 -33 -19 -68 -66 -87v-2c48 -15 83 -49 83 -97c0 -69 -62 -116 -151 -116c-96 0 -147 52 -147 107c0 47 30 79 81 98v3c-45 18 -66 51 -66 85c0 63 59 107 137 107zM173 -103h1c48 0 78 28 78 61c0 44 -35 64 -86 75
c-46 -11 -71 -36 -71 -70c0 -33 29 -66 78 -66zM174 200h-1c-44 0 -68 -26 -68 -55c0 -34 29 -54 76 -64c33 8 60 29 60 62c0 27 -19 57 -67 57z" />
    <glyph glyph-name="nineinferior" unicode="&#x2089;" horiz-adv-x="348" 
d="M62 -151v53c11 -1 28 0 45 1c34 3 67 14 92 35c28 21 47 51 54 90h-2c-22 -25 -55 -40 -97 -40c-76 0 -129 51 -129 121c0 76 63 139 150 139c94 0 148 -69 148 -167c0 -83 -30 -143 -71 -179c-36 -31 -86 -48 -140 -51c-19 -2 -38 -3 -50 -2zM172 197h-1
c-46 0 -77 -39 -77 -86c0 -40 29 -74 77 -74c37 0 64 18 78 39c3 4 5 11 5 17c0 54 -23 104 -82 104z" />
    <glyph glyph-name="centinferior" unicode="&#xf6df;" horiz-adv-x="339" 
d="M220 -155h-47v60c-45 5 -75 21 -99 45c-22 24 -35 59 -35 98c0 78 50 140 134 152v58h47v-57c27 0 53 -8 70 -15l-14 -51c-13 7 -33 15 -66 15c-61 0 -102 -39 -102 -97c0 -64 46 -97 100 -97c33 0 57 8 72 14l12 -47c-14 -7 -41 -17 -72 -19v-59z" />
    <glyph glyph-name="dollarinferior" unicode="&#xf6e3;" horiz-adv-x="340" 
d="M191 -197h-46v58c-40 1 -82 13 -106 29l17 51c26 -16 62 -29 102 -29c44 0 73 21 73 51c0 29 -23 45 -73 61c-72 24 -113 51 -113 107c0 52 38 93 103 102v58h46v-56c39 -1 70 -12 90 -23l-17 -50c-14 8 -44 23 -91 23c-48 0 -63 -24 -63 -45c0 -26 21 -40 81 -61
c71 -23 106 -54 106 -111c0 -47 -36 -94 -109 -104v-61z" />
    <glyph glyph-name="periodinferior" unicode="&#xf6e7;" horiz-adv-x="132" 
d="M65 -153h-1c-26 0 -44 21 -44 46c0 27 19 46 46 46s45 -19 45 -46c0 -25 -18 -46 -46 -46z" />
    <glyph glyph-name="commainferior" unicode="&#xf6e1;" horiz-adv-x="132" 
d="M49 -212l-51 -5c16 44 32 107 40 157l77 6c-17 -57 -44 -121 -66 -158z" />
    <glyph glyph-name="commaaccent" unicode="&#xf6c3;" 
d="M90 -224l-17 42c42 5 79 25 79 66c0 23 -16 46 -34 61l66 15c21 -14 41 -42 41 -75c0 -77 -71 -107 -135 -109z" />
    <glyph glyph-name="Abreve" unicode="&#x102;" horiz-adv-x="671" 
d="M469 215h-269l-78 -215h-95l254 674h111l257 -674h-99zM220 285h229l-77 202c-16 43 -27 78 -38 113h-2c-10 -36 -20 -71 -35 -112zM206 820h54c5 -21 21 -50 76 -50c53 0 71 26 76 50h53c-2 -59 -38 -109 -131 -109c-92 0 -126 50 -128 109z" />
    <glyph glyph-name="Amacron" unicode="&#x100;" horiz-adv-x="671" 
d="M469 215h-269l-78 -215h-95l254 674h111l257 -674h-99zM220 285h229l-77 202c-16 43 -27 78 -38 113h-2c-10 -36 -20 -71 -35 -112zM211 789h248v-56h-248v56z" />
    <glyph glyph-name="Aogonek" unicode="&#x104;" horiz-adv-x="671" 
d="M392 674l257 -674l-41 -3c-15 -14 -56 -54 -56 -92c0 -33 22 -54 54 -54c18 0 35 5 46 10l15 -45c-20 -16 -58 -24 -83 -24c-58 0 -97 29 -97 88c0 49 36 95 62 124l-80 211h-269l-78 -215h-96l255 674h111zM220 285h229l-77 202c-17 43 -27 78 -38 113h-2
c-10 -36 -21 -71 -35 -112z" />
    <glyph glyph-name="AEacute" unicode="&#x1fc;" horiz-adv-x="865" 
d="M91 0h-95l343 674h461v-74h-320l30 -212h278v-74h-266l36 -240h269v-74h-347l-35 243h-231zM247 317h187l-27 189c-4 28 -11 71 -13 102h-4c-12 -27 -28 -61 -44 -93zM525 830h111l-128 -120h-75z" />
    <glyph glyph-name="Cacute" unicode="&#x106;" horiz-adv-x="648" 
d="M592 96l19 -71c-35 -17 -109 -37 -205 -37c-209 0 -368 125 -368 344c0 193 147 354 390 354c97 0 159 -21 185 -34l-23 -72c-38 18 -95 32 -158 32c-187 0 -298 -111 -298 -279c0 -151 101 -269 291 -269c62 0 125 12 167 32zM438 833h111l-128 -120h-75z" />
    <glyph glyph-name="Ccaron" unicode="&#x10c;" horiz-adv-x="648" 
d="M592 96l19 -71c-35 -17 -109 -37 -205 -37c-209 0 -368 125 -368 344c0 193 147 354 390 354c97 0 159 -21 185 -34l-23 -72c-38 18 -95 32 -158 32c-187 0 -298 -111 -298 -279c0 -151 101 -269 291 -269c62 0 125 12 167 32zM423 713h-67l-111 120h76l68 -73h2l67 73
h73z" />
    <glyph glyph-name="Ccircumflex" unicode="&#x108;" horiz-adv-x="648" 
d="M592 96l19 -71c-35 -17 -109 -37 -205 -37c-209 0 -368 125 -368 344c0 193 147 354 390 354c97 0 159 -21 185 -34l-23 -72c-38 18 -95 32 -158 32c-187 0 -298 -111 -298 -279c0 -151 101 -269 291 -269c62 0 125 12 167 32zM351 835h67l111 -120h-76l-67 74h-2
l-68 -74h-73z" />
    <glyph glyph-name="Cdotaccent" unicode="&#x10a;" horiz-adv-x="648" 
d="M592 96l19 -71c-35 -17 -109 -37 -205 -37c-209 0 -368 125 -368 344c0 193 147 354 390 354c97 0 159 -21 185 -34l-23 -72c-38 18 -95 32 -158 32c-187 0 -298 -111 -298 -279c0 -151 101 -269 291 -269c62 0 125 12 167 32zM383 720h-1c-28 0 -50 25 -50 52
s22 52 52 52c28 0 49 -25 49 -52s-21 -52 -50 -52z" />
    <glyph glyph-name="Dcaron" unicode="&#x10e;" horiz-adv-x="740" 
d="M81 1v664c61 8 134 15 212 15c143 0 246 -34 312 -96c63 -58 97 -133 97 -231c0 -96 -34 -187 -102 -255c-71 -67 -188 -105 -337 -105c-72 0 -130 3 -182 8zM172 598v-528c26 -4 65 -5 107 -5c221 -1 327 118 327 284c2 156 -101 259 -310 259c-56 0 -97 -5 -124 -10z
M380 713h-67l-111 120h76l68 -73h2l67 73h73z" />
    <glyph glyph-name="Dcroat" unicode="&#x110;" horiz-adv-x="744" 
d="M-3 302v74h87v292c61 8 134 15 212 15c143 0 246 -33 312 -95c63 -58 97 -134 97 -234c0 -97 -34 -189 -102 -257c-71 -67 -188 -105 -337 -105c-72 0 -130 3 -182 8v302h-87zM382 376v-74h-207v-233c26 -4 65 -5 107 -5c221 0 327 118 327 288c2 159 -101 259 -310 259
c-56 0 -97 -5 -124 -10v-225h207z" />
    <glyph glyph-name="Ebreve" unicode="&#x114;" horiz-adv-x="537" 
d="M464 389v-74h-292v-241h326v-74h-417v674h400v-74h-309v-211h292zM147 830h54c5 -21 21 -50 76 -50c53 0 71 26 76 50h53c-2 -59 -38 -109 -131 -109c-92 0 -126 50 -128 109z" />
    <glyph glyph-name="Ecaron" unicode="&#x11a;" horiz-adv-x="537" 
d="M464 389v-74h-292v-241h326v-74h-417v674h400v-74h-309v-211h292zM314 710h-67l-111 120h76l68 -73h2l67 73h73z" />
    <glyph glyph-name="Edotaccent" unicode="&#x116;" horiz-adv-x="537" 
d="M464 389v-74h-292v-241h326v-74h-417v674h400v-74h-309v-211h292zM270 720h-1c-28 0 -50 25 -50 52s22 52 52 52c28 0 49 -25 49 -52s-21 -52 -50 -52z" />
    <glyph glyph-name="Emacron" unicode="&#x112;" horiz-adv-x="537" 
d="M464 389v-74h-292v-241h326v-74h-417v674h400v-74h-309v-211h292zM159 789h248v-56h-248v56z" />
    <glyph glyph-name="Eng" unicode="&#x14a;" horiz-adv-x="722" 
d="M167 0h-86v674h103l247 -349c56 -81 97 -146 131 -214l3 1c-9 85 -10 165 -10 266v296h86v-630c0 -154 -75 -229 -211 -248l-17 72c87 16 130 55 139 126l-247 353c-53 78 -104 155 -141 225l-3 -1c5 -84 6 -164 6 -265v-306z" />
    <glyph glyph-name="Eogonek" unicode="&#x118;" horiz-adv-x="537" 
d="M487 -139l15 -48c-24 -14 -51 -21 -83 -21c-58 0 -95 29 -95 82c0 56 45 103 80 126h-323v674h400v-74h-309v-211h292v-74h-292v-241h325v-74h-17c-41 -26 -84 -69 -84 -107c0 -25 18 -40 47 -40c16 0 29 2 44 8z" />
    <glyph glyph-name="Gbreve" unicode="&#x11e;" horiz-adv-x="716" 
d="M655 355v-320c-43 -16 -129 -42 -236 -42c-117 0 -211 29 -283 97c-61 57 -98 146 -98 245c0 180 140 346 401 346c90 0 161 -20 192 -35l-23 -72c-42 19 -94 33 -172 33c-190 0 -302 -113 -302 -269c0 -158 110 -271 293 -271c67 0 113 9 138 22v194h-153v72h243z
M259 833h54c5 -21 21 -50 76 -50c53 0 71 26 76 50h53c-2 -59 -38 -109 -131 -109c-92 0 -126 50 -128 109z" />
    <glyph glyph-name="Gcircumflex" unicode="&#x11c;" horiz-adv-x="716" 
d="M655 355v-320c-43 -16 -129 -42 -236 -42c-117 0 -211 29 -283 97c-61 57 -98 146 -98 245c0 180 140 346 401 346c90 0 161 -20 192 -35l-23 -72c-42 19 -94 33 -172 33c-190 0 -302 -113 -302 -269c0 -158 110 -271 293 -271c67 0 113 9 138 22v194h-153v72h243z
M361 834h67l111 -120h-76l-67 74h-2l-68 -74h-73z" />
    <glyph glyph-name="Gcommaaccent" unicode="&#x122;" horiz-adv-x="716" 
d="M655 355v-320c-43 -16 -129 -42 -236 -42c-117 0 -211 29 -283 97c-61 57 -98 146 -98 245c0 180 140 346 401 346c90 0 161 -20 192 -35l-23 -72c-42 19 -94 33 -172 33c-190 0 -302 -113 -302 -269c0 -158 110 -271 293 -271c67 0 113 9 138 22v194h-153v72h243z
M329 -224l-17 42c42 6 79 25 79 66c0 23 -16 46 -34 61l66 15c21 -14 41 -42 41 -75c0 -77 -71 -107 -135 -109z" />
    <glyph glyph-name="Gdotaccent" unicode="&#x120;" horiz-adv-x="716" 
d="M655 355v-320c-43 -16 -129 -42 -236 -42c-117 0 -211 29 -283 97c-61 57 -98 146 -98 245c0 180 140 346 401 346c90 0 161 -20 192 -35l-23 -72c-42 19 -94 33 -172 33c-190 0 -302 -113 -302 -269c0 -158 110 -271 293 -271c67 0 113 9 138 22v194h-153v72h243z
M397 720h-1c-28 0 -50 25 -50 52s22 52 52 52c28 0 49 -25 49 -52s-21 -52 -50 -52z" />
    <glyph glyph-name="Hbar" unicode="&#x126;" horiz-adv-x="721" 
d="M698 478h-61v-478h-91v301h-371v-301h-91v478h-61v59h61v137h91v-137h371v137h91v-137h61v-59zM546 378v100h-371v-100h371z" />
    <glyph glyph-name="Hcircumflex" unicode="&#x124;" horiz-adv-x="715" 
d="M81 674h91v-280h371v280h91v-674h-91v317h-371v-317h-91v674zM323 830h67l111 -120h-76l-67 74h-2l-68 -74h-73z" />
    <glyph glyph-name="Ibreve" unicode="&#x12c;" horiz-adv-x="253" 
d="M81 674h91v-674h-91v674zM-2 827h54c5 -21 21 -50 76 -50c53 0 71 26 76 50h53c-2 -59 -38 -109 -131 -109c-92 0 -126 50 -128 109z" />
    <glyph glyph-name="IJ" unicode="&#x132;" horiz-adv-x="658" 
d="M81 674h91v-674h-91v674zM493 244v430h91v-439c0 -189 -97 -247 -219 -247c-37 0 -83 9 -108 19l15 73c21 -9 51 -16 86 -16c85 0 135 40 135 180z" />
    <glyph glyph-name="Imacron" unicode="&#x12a;" horiz-adv-x="253" 
d="M81 674h91v-674h-91v674zM4 789h248v-56h-248v56z" />
    <glyph glyph-name="Iogonek" unicode="&#x12e;" horiz-adv-x="253" 
d="M172 674v-674h-32c-15 -21 -42 -61 -42 -97c0 -34 22 -53 54 -53c19 0 35 4 46 9l15 -46c-20 -16 -57 -24 -84 -24c-57 0 -96 30 -96 88c0 49 29 95 48 123v674h91z" />
    <glyph glyph-name="Itilde" unicode="&#x128;" horiz-adv-x="253" 
d="M81 674h91v-674h-91v674zM46 715h-49c-2 62 26 104 71 104c23 0 40 -9 63 -22c17 -9 35 -18 51 -18c15 0 24 7 27 40h48c1 -65 -22 -99 -69 -99c-21 0 -40 7 -65 20c-20 11 -35 20 -50 20c-16 0 -24 -18 -27 -45z" />
    <glyph glyph-name="Jcircumflex" unicode="&#x134;" horiz-adv-x="405" 
d="M240 244v430h91v-439c0 -189 -97 -247 -219 -247c-37 0 -83 9 -108 19l15 73c21 -9 51 -16 86 -16c85 0 135 40 135 180zM247 830h67l111 -120h-76l-67 74h-2l-68 -74h-73z" />
    <glyph glyph-name="Kcommaaccent" unicode="&#x136;" horiz-adv-x="588" 
d="M81 0v674h91v-326h3c19 25 39 47 57 68l233 258h115l-270 -286l294 -388h-109l-250 333l-73 -78v-255h-91zM234 -224l-17 42c42 6 79 25 79 66c0 23 -16 46 -34 61l66 15c21 -14 41 -42 41 -75c0 -77 -71 -107 -135 -109z" />
    <glyph glyph-name="Lacute" unicode="&#x139;" horiz-adv-x="515" 
d="M81 0v674h91v-598h321v-76h-412zM186 830h111l-128 -120h-75z" />
    <glyph glyph-name="Lcaron" unicode="&#x13d;" horiz-adv-x="515" 
d="M81 0v674h91v-598h321v-76h-412zM280 505l-17 42c42 6 79 25 79 66c0 23 -16 46 -34 61l66 15c21 -14 41 -42 41 -75c0 -77 -71 -107 -135 -109z" />
    <glyph glyph-name="Lcommaaccent" unicode="&#x13b;" horiz-adv-x="515" 
d="M81 0v674h91v-598h321v-76h-412zM208 -224l-17 42c42 6 79 25 79 66c0 23 -16 46 -34 61l66 15c21 -14 41 -42 41 -75c0 -77 -71 -107 -135 -109z" />
    <glyph glyph-name="Ldot" unicode="&#x13f;" horiz-adv-x="515" 
d="M81 0v674h91v-598h321v-76h-412zM374 323h-1c-28 0 -50 25 -50 52s22 52 52 52c28 0 49 -25 49 -52s-21 -52 -50 -52z" />
    <glyph glyph-name="Nacute" unicode="&#x143;" horiz-adv-x="722" 
d="M167 0h-86v674h103l247 -349c56 -81 97 -146 131 -214l3 1c-9 85 -10 165 -10 266v296h86v-674h-93l-243 347c-53 78 -104 155 -141 225l-3 -1c5 -84 6 -164 6 -265v-306zM398 830h111l-128 -120h-75z" />
    <glyph glyph-name="Ncaron" unicode="&#x147;" horiz-adv-x="722" 
d="M167 0h-86v674h103l247 -349c56 -81 97 -146 131 -214l3 1c-9 85 -10 165 -10 266v296h86v-674h-93l-243 347c-53 78 -104 155 -141 225l-3 -1c5 -84 6 -164 6 -265v-306zM398 703h-67l-111 120h76l68 -73h2l67 73h73z" />
    <glyph glyph-name="Ncommaaccent" unicode="&#x145;" horiz-adv-x="722" 
d="M167 0h-86v674h103l247 -349c56 -81 97 -146 131 -214l3 1c-9 85 -10 165 -10 266v296h86v-674h-93l-243 347c-53 78 -104 155 -141 225l-3 -1c5 -84 6 -164 6 -265v-306zM301 -224l-17 42c42 6 79 25 79 66c0 23 -16 46 -34 61l66 15c21 -14 41 -42 41 -75
c0 -77 -71 -107 -135 -109z" />
    <glyph glyph-name="Obreve" unicode="&#x14e;" horiz-adv-x="770" 
d="M380 -12h-1c-201 0 -341 145 -341 341c0 210 149 357 350 357c207 0 343 -146 343 -342c0 -224 -159 -356 -351 -356zM383 60h1c155 0 251 120 251 280c0 137 -86 274 -249 274c-165 0 -252 -131 -252 -282c0 -146 95 -272 249 -272zM256 836h54c5 -21 21 -50 76 -50
c53 0 71 26 76 50h53c-2 -59 -38 -109 -131 -109c-92 0 -126 50 -128 109z" />
    <glyph glyph-name="Ohungarumlaut" unicode="&#x150;" horiz-adv-x="770" 
d="M380 -12h-1c-201 0 -341 145 -341 341c0 210 149 357 350 357c207 0 343 -146 343 -342c0 -224 -159 -356 -351 -356zM383 60h1c155 0 251 120 251 280c0 137 -86 274 -249 274c-165 0 -252 -131 -252 -282c0 -146 95 -272 249 -272zM357 833h101l-115 -116h-68zM511 833
h101l-115 -116h-68z" />
    <glyph glyph-name="Omacron" unicode="&#x14c;" horiz-adv-x="770" 
d="M380 -12h-1c-201 0 -341 145 -341 341c0 210 149 357 350 357c207 0 343 -146 343 -342c0 -224 -159 -356 -351 -356zM383 60h1c155 0 251 120 251 280c0 137 -86 274 -249 274c-165 0 -252 -131 -252 -282c0 -146 95 -272 249 -272zM262 796h248v-56h-248v56z" />
    <glyph glyph-name="Oslashacute" unicode="&#x1fe;" horiz-adv-x="770" 
d="M121 -44l-51 44l69 85c-63 61 -101 149 -101 247c0 209 152 354 350 354c71 0 136 -20 191 -57l68 85l55 -42l-69 -85c62 -60 98 -147 98 -244c0 -229 -165 -355 -345 -355c-73 0 -139 21 -193 57zM192 154l340 413c-40 30 -88 48 -146 48c-166 0 -255 -135 -255 -278
c0 -82 25 -135 59 -184zM578 518l-337 -412c38 -29 80 -47 143 -47c158 0 254 125 254 281c0 60 -15 121 -57 177zM432 841h111l-128 -120h-75z" />
    <glyph glyph-name="Racute" unicode="&#x154;" horiz-adv-x="581" 
d="M81 0v665c48 9 120 15 186 15c101 0 166 -19 210 -57c33 -29 55 -75 55 -127c0 -90 -62 -150 -134 -172v-2c52 -19 85 -68 102 -132c25 -95 41 -162 56 -190h-94c-11 19 -27 75 -47 160c-22 92 -60 129 -144 132h-99v-292h-91zM172 602v-242h107c100 0 162 50 162 126
c0 91 -73 125 -168 125c-51 0 -85 -5 -101 -9zM322 833h111l-128 -120h-75z" />
    <glyph glyph-name="Rcaron" unicode="&#x158;" horiz-adv-x="581" 
d="M81 0v665c48 9 120 15 186 15c101 0 166 -19 210 -57c33 -29 55 -75 55 -127c0 -90 -62 -150 -134 -172v-2c52 -19 85 -68 102 -132c25 -95 41 -162 56 -190h-94c-11 19 -27 75 -47 160c-22 92 -60 129 -144 132h-99v-292h-91zM172 602v-242h107c100 0 162 50 162 126
c0 91 -73 125 -168 125c-51 0 -85 -5 -101 -9zM321 713h-67l-111 120h76l68 -73h2l67 73h73z" />
    <glyph glyph-name="Rcommaaccent" unicode="&#x156;" horiz-adv-x="581" 
d="M81 0v665c48 9 120 15 186 15c101 0 166 -19 210 -57c33 -29 55 -75 55 -127c0 -90 -62 -150 -134 -172v-2c52 -19 85 -68 102 -132c25 -95 41 -162 56 -190h-94c-11 19 -27 75 -47 160c-22 92 -60 129 -144 132h-99v-292h-91zM172 602v-242h107c100 0 162 50 162 126
c0 91 -73 125 -168 125c-51 0 -85 -5 -101 -9zM231 -217l-17 42c42 6 79 25 79 66c0 23 -16 46 -34 61l66 15c21 -14 41 -42 41 -75c0 -77 -71 -107 -135 -109z" />
    <glyph glyph-name="Sacute" unicode="&#x15a;" horiz-adv-x="537" 
d="M46 36l25 75c44 -28 106 -49 175 -49c95 0 151 47 151 115c0 63 -37 99 -140 131c-130 40 -196 97 -196 193c0 107 93 185 232 185c78 0 133 -17 167 -36l-26 -72c-23 13 -74 35 -143 35c-102 0 -138 -57 -138 -102c0 -62 43 -94 146 -127c125 -41 190 -93 190 -200
c0 -100 -74 -196 -252 -196c-71 0 -150 21 -191 48zM323 833h111l-128 -120h-75z" />
    <glyph glyph-name="Scedilla" unicode="&#x15e;" horiz-adv-x="537" 
d="M46 36l25 75c44 -28 106 -49 175 -49c95 0 151 47 151 115c0 63 -37 99 -141 131c-129 40 -195 97 -195 193c0 107 93 185 232 185c77 0 133 -17 167 -36l-26 -72c-23 13 -74 35 -143 35c-102 0 -138 -57 -138 -102c0 -62 43 -94 146 -127c125 -41 190 -93 190 -200
c0 -88 -57 -171 -190 -192l-28 -42c39 -5 72 -33 72 -70c0 -57 -51 -80 -108 -80c-27 0 -54 7 -70 17l14 43c16 -8 35 -14 57 -14c23 0 43 10 43 31c0 25 -30 37 -80 42l42 69h-7c-63 0 -144 20 -188 48z" />
    <glyph glyph-name="Scedilla" unicode="&#xf6c1;" horiz-adv-x="537" 
d="M46 36l25 75c44 -28 106 -49 175 -49c95 0 151 47 151 115c0 63 -37 99 -141 131c-129 40 -195 97 -195 193c0 107 93 185 232 185c77 0 133 -17 167 -36l-26 -72c-23 13 -74 35 -143 35c-102 0 -138 -57 -138 -102c0 -62 43 -94 146 -127c125 -41 190 -93 190 -200
c0 -88 -57 -171 -190 -192l-28 -42c39 -5 72 -33 72 -70c0 -57 -51 -80 -108 -80c-27 0 -54 7 -70 17l14 43c16 -8 35 -14 57 -14c23 0 43 10 43 31c0 25 -30 37 -80 42l42 69h-7c-63 0 -144 20 -188 48z" />
    <glyph glyph-name="Scircumflex" unicode="&#x15c;" horiz-adv-x="537" 
d="M46 36l25 75c44 -28 106 -49 175 -49c95 0 151 47 151 115c0 63 -37 99 -140 131c-130 40 -196 97 -196 193c0 107 93 185 232 185c78 0 133 -17 167 -36l-26 -72c-23 13 -74 35 -143 35c-102 0 -138 -57 -138 -102c0 -62 43 -94 146 -127c125 -41 190 -93 190 -200
c0 -100 -74 -196 -252 -196c-71 0 -150 21 -191 48zM234 834h67l111 -120h-76l-67 74h-2l-68 -74h-73z" />
    <glyph glyph-name="Scommaaccent" unicode="&#x218;" horiz-adv-x="537" 
d="M46 36l25 75c44 -28 106 -49 175 -49c95 0 151 47 151 115c0 63 -37 99 -140 131c-130 40 -196 97 -196 193c0 107 93 185 232 185c78 0 133 -17 167 -36l-26 -72c-23 13 -74 35 -143 35c-102 0 -138 -57 -138 -102c0 -62 43 -94 146 -127c125 -41 190 -93 190 -200
c0 -100 -74 -196 -252 -196c-71 0 -150 21 -191 48zM209 -224l-17 42c42 6 79 25 79 66c0 23 -16 46 -34 61l66 15c21 -14 41 -42 41 -75c0 -77 -71 -107 -135 -109z" />
    <glyph glyph-name="Tbar" unicode="&#x166;" horiz-adv-x="544" 
d="M551 600h-234v-222h138v-59h-138v-319h-91v319h-138v59h138v222h-233v74h558v-74z" />
    <glyph glyph-name="Tcaron" unicode="&#x164;" horiz-adv-x="544" 
d="M226 0v600h-233v74h558v-74h-234v-600h-91zM307 710h-67l-111 120h76l68 -73h2l67 73h73z" />
    <glyph glyph-name="Tcommaaccent" unicode="&#x162;" horiz-adv-x="544" 
d="M226 0v600h-233v74h558v-74h-234v-600h-91zM200 -224l-17 42c42 6 79 25 79 66c0 23 -16 46 -34 61l66 15c21 -14 41 -42 41 -75c0 -77 -71 -107 -135 -109z" />
    <glyph glyph-name="Tcommaaccent" unicode="&#x21a;" horiz-adv-x="544" 
d="M226 0v600h-233v74h558v-74h-234v-600h-91zM200 -224l-17 42c42 6 79 25 79 66c0 23 -16 46 -34 61l66 15c21 -14 41 -42 41 -75c0 -77 -71 -107 -135 -109z" />
    <glyph glyph-name="Ubreve" unicode="&#x16c;" horiz-adv-x="711" 
d="M81 674h91v-382c0 -160 75 -231 180 -231c113 0 187 73 187 231v382h91v-378c0 -217 -121 -308 -283 -308c-150 0 -266 83 -266 306v380zM227 833h54c5 -21 21 -50 76 -50c53 0 71 26 76 50h53c-2 -59 -38 -109 -131 -109c-92 0 -126 50 -128 109z" />
    <glyph glyph-name="Uhungarumlaut" unicode="&#x170;" horiz-adv-x="711" 
d="M81 674h91v-382c0 -160 75 -231 180 -231c113 0 187 73 187 231v382h91v-378c0 -217 -121 -308 -283 -308c-150 0 -266 83 -266 306v380zM311 830h101l-115 -116h-68zM465 830h101l-115 -116h-68z" />
    <glyph glyph-name="Umacron" unicode="&#x16a;" horiz-adv-x="711" 
d="M81 674h91v-382c0 -160 75 -231 180 -231c113 0 187 73 187 231v382h91v-378c0 -217 -121 -308 -283 -308c-150 0 -266 83 -266 306v380zM233 789h248v-56h-248v56z" />
    <glyph glyph-name="Uogonek" unicode="&#x172;" horiz-adv-x="711" 
d="M447 -138l14 -46c-21 -15 -57 -24 -86 -24c-56 0 -92 30 -92 81c0 46 32 87 61 116h-5c-146 4 -258 87 -258 305v380h91v-382c0 -160 76 -231 180 -231c113 0 187 73 187 231v382h91v-378c0 -188 -91 -280 -216 -301c-24 -23 -60 -63 -60 -99c0 -28 20 -44 47 -44
c16 0 32 4 46 10z" />
    <glyph glyph-name="Uring" unicode="&#x16e;" horiz-adv-x="711" 
d="M81 674h91v-382c0 -160 75 -231 180 -231c113 0 187 73 187 231v382h91v-378c0 -217 -121 -308 -283 -308c-150 0 -266 83 -266 306v380zM357 876h1c61 0 100 -40 100 -92c0 -51 -42 -89 -101 -89c-61 0 -102 39 -102 89c0 51 39 92 102 92zM356 839h-1
c-30 0 -48 -25 -48 -55c0 -27 20 -52 49 -52s49 23 49 53s-20 54 -49 54z" />
    <glyph glyph-name="Utilde" unicode="&#x168;" horiz-adv-x="711" 
d="M81 674h91v-382c0 -160 75 -231 180 -231c113 0 187 73 187 231v382h91v-378c0 -217 -121 -308 -283 -308c-150 0 -266 83 -266 306v380zM275 715h-49c-2 62 26 104 71 104c23 0 40 -9 63 -22c17 -9 35 -18 51 -18c15 0 24 7 27 40h48c1 -65 -22 -99 -69 -99
c-21 0 -40 7 -65 20c-20 11 -35 20 -50 20c-16 0 -24 -18 -27 -45z" />
    <glyph glyph-name="Wacute" unicode="&#x1e82;" horiz-adv-x="910" 
d="M296 0h-98l-185 674h97l88 -347c21 -84 41 -170 55 -229h2c11 61 34 144 59 230l100 346h99l89 -350c20 -81 39 -161 50 -224h2c14 66 35 141 59 228l100 346h94l-211 -674h-97l-91 358c-24 92 -39 154 -48 220h-2c-12 -65 -29 -128 -57 -219zM510 830h111l-128 -120h-75
z" />
    <glyph glyph-name="Wcircumflex" unicode="&#x174;" horiz-adv-x="910" 
d="M296 0h-98l-185 674h97l88 -347c21 -84 41 -170 55 -229h2c11 61 34 144 59 230l100 346h99l89 -350c20 -81 39 -161 50 -224h2c14 66 35 141 59 228l100 346h94l-211 -674h-97l-91 358c-24 92 -39 154 -48 220h-2c-12 -65 -29 -128 -57 -219zM422 830h67l111 -120h-76
l-67 74h-2l-68 -74h-73z" />
    <glyph glyph-name="Wdieresis" unicode="&#x1e84;" horiz-adv-x="910" 
d="M296 0h-98l-185 674h97l88 -347c21 -84 41 -170 55 -229h2c11 61 34 144 59 230l100 346h99l89 -350c20 -81 39 -161 50 -224h2c14 66 35 141 59 228l100 346h94l-211 -674h-97l-91 358c-24 92 -39 154 -48 220h-2c-12 -65 -29 -128 -57 -219zM363 720h-1
c-30 0 -50 25 -50 52c0 28 22 52 52 52c28 0 49 -23 49 -52c0 -27 -20 -52 -50 -52zM556 720h-1c-29 0 -49 25 -49 52c0 28 22 52 51 52s50 -23 50 -52c0 -27 -20 -52 -51 -52z" />
    <glyph glyph-name="Wgrave" unicode="&#x1e80;" horiz-adv-x="910" 
d="M296 0h-98l-185 674h97l88 -347c21 -84 41 -170 55 -229h2c11 61 34 144 59 230l100 346h99l89 -350c20 -81 39 -161 50 -224h2c14 66 35 141 59 228l100 346h94l-211 -674h-97l-91 358c-24 92 -39 154 -48 220h-2c-12 -65 -29 -128 -57 -219zM301 830h111l92 -119h-75z
" />
    <glyph glyph-name="Ycircumflex" unicode="&#x176;" horiz-adv-x="590" 
d="M340 0h-91v286l-235 388h105l107 -192c28 -52 50 -89 72 -135h2c20 42 45 84 74 135l110 192h105l-249 -387v-287zM260 830h67l111 -120h-76l-67 74h-2l-68 -74h-73z" />
    <glyph glyph-name="Ygrave" unicode="&#x1ef2;" horiz-adv-x="590" 
d="M340 0h-91v286l-235 388h105l107 -192c28 -52 50 -89 72 -135h2c20 42 45 84 74 135l110 192h105l-249 -387v-287zM154 823h111l92 -119h-75z" />
    <glyph glyph-name="Zacute" unicode="&#x179;" horiz-adv-x="619" 
d="M33 0v52l422 545v3h-386v74h508v-53l-420 -544v-3h427v-74h-551zM357 830h111l-128 -120h-75z" />
    <glyph glyph-name="Zdotaccent" unicode="&#x17b;" horiz-adv-x="619" 
d="M33 0v52l422 545v3h-386v74h508v-53l-420 -544v-3h427v-74h-551zM311 720h-1c-28 0 -50 25 -50 52s22 52 52 52c28 0 49 -25 49 -52s-21 -52 -50 -52z" />
    <glyph glyph-name="Idotaccent" unicode="&#x130;" horiz-adv-x="253" 
d="M81 674h91v-674h-91v674zM128 720h-1c-28 0 -50 25 -50 52s22 52 52 52c28 0 49 -25 49 -52s-21 -52 -50 -52z" />
    <glyph glyph-name="abreve" unicode="&#x103;" horiz-adv-x="522" 
d="M448 289v-171c0 -43 2 -84 8 -118h-83l-8 64h-3c-28 -37 -87 -76 -165 -76c-109 0 -159 74 -159 139c0 116 106 184 319 182v9c0 30 -9 113 -121 112c-50 0 -104 -15 -141 -40l-22 60c47 30 110 46 176 46c165 0 199 -114 199 -207zM359 167v79
c-114 3 -228 -17 -228 -107c0 -56 40 -84 90 -84c73 0 117 45 133 84c4 9 5 19 5 28zM131 687h55c7 -40 33 -72 75 -72c51 0 72 39 75 72h55c-1 -78 -51 -129 -130 -129c-94 0 -129 66 -130 129z" />
    <glyph glyph-name="amacron" unicode="&#x101;" horiz-adv-x="522" 
d="M448 289v-171c0 -43 2 -84 8 -118h-83l-8 64h-3c-28 -37 -87 -76 -165 -76c-109 0 -159 74 -159 139c0 116 106 184 319 182v9c0 30 -9 113 -121 112c-50 0 -104 -15 -141 -40l-22 60c47 30 110 46 176 46c165 0 199 -114 199 -207zM359 167v79
c-114 3 -228 -17 -228 -107c0 -56 40 -84 90 -84c73 0 117 45 133 84c4 9 5 19 5 28zM145 646h234v-58h-234v58z" />
    <glyph glyph-name="aogonek" unicode="&#x105;" horiz-adv-x="522" 
d="M448 289v-171c0 -43 2 -84 8 -118h-27c-15 -20 -39 -60 -39 -94s20 -51 51 -51c18 0 33 4 46 10l15 -46c-23 -18 -58 -26 -86 -26c-52 0 -91 30 -91 86c0 51 29 95 48 125l-8 60h-3c-28 -37 -87 -76 -165 -76c-109 0 -159 74 -159 139c0 116 106 184 319 182v9
c0 30 -9 113 -121 112c-50 0 -104 -15 -141 -40l-22 60c47 30 110 46 176 46c165 0 199 -114 199 -207zM359 167v79c-114 3 -228 -17 -228 -107c0 -56 40 -84 90 -84c73 0 117 45 133 84c4 9 5 19 5 28z" />
    <glyph glyph-name="aeacute" unicode="&#x1fd;" horiz-adv-x="844" 
d="M802 230h-358c-4 -103 68 -171 168 -171c77 0 120 17 148 29l17 -64c-39 -20 -102 -36 -174 -36c-91 0 -170 41 -201 112h-3c-33 -71 -107 -112 -198 -112c-112 0 -162 72 -162 137c0 110 107 180 320 176v18c0 13 -11 110 -123 110c-52 0 -108 -18 -140 -40l-22 60
c50 30 114 47 165 47c99 0 149 -45 171 -108h2c36 66 101 108 185 108c166 0 208 -156 208 -227c0 -15 -1 -31 -3 -39zM361 178v63c-110 3 -230 -16 -230 -108c0 -48 40 -78 91 -78c74 -1 117 42 133 86c4 11 6 24 6 37zM443 295h274c2 35 -22 137 -129 137
c-99 0 -142 -85 -145 -137zM461 697h103l-128 -146h-66z" />
    <glyph glyph-name="cacute" unicode="&#x107;" horiz-adv-x="496" 
d="M445 88l16 -69c-25 -11 -83 -31 -158 -31c-160 0 -263 104 -263 248c0 152 112 260 283 260c60 0 113 -15 140 -29l-21 -69c-25 13 -63 26 -119 26c-121 0 -190 -80 -190 -182c0 -112 82 -181 187 -181c58 0 97 15 125 27zM324 697h103l-128 -146h-66z" />
    <glyph glyph-name="ccaron" unicode="&#x10d;" horiz-adv-x="496" 
d="M445 88l16 -69c-25 -11 -83 -31 -158 -31c-160 0 -263 104 -263 248c0 152 112 260 283 260c60 0 113 -15 140 -29l-21 -69c-25 13 -63 26 -119 26c-121 0 -190 -80 -190 -182c0 -112 82 -181 187 -181c58 0 97 15 125 27zM319 551h-67l-101 146h71l63 -98h2l63 98h68z
" />
    <glyph glyph-name="ccircumflex" unicode="&#x109;" horiz-adv-x="496" 
d="M445 88l16 -69c-25 -11 -83 -31 -158 -31c-160 0 -263 104 -263 248c0 152 112 260 283 260c60 0 113 -15 140 -29l-21 -69c-25 13 -63 26 -119 26c-121 0 -190 -80 -190 -182c0 -112 82 -181 187 -181c58 0 97 15 125 27zM249 697h64l101 -146h-70l-62 97h-2l-62 -97
h-68z" />
    <glyph glyph-name="cdotaccent" unicode="&#x10b;" horiz-adv-x="496" 
d="M445 88l16 -69c-25 -11 -83 -31 -158 -31c-160 0 -263 104 -263 248c0 152 112 260 283 260c60 0 113 -15 140 -29l-21 -69c-25 13 -63 26 -119 26c-121 0 -190 -80 -190 -182c0 -112 82 -181 187 -181c58 0 97 15 125 27zM289 572h-1c-30 0 -52 25 -52 53
c0 29 24 54 54 54c29 0 51 -24 51 -54c0 -28 -21 -53 -52 -53z" />
    <glyph glyph-name="dcaron" unicode="&#x10f;" horiz-adv-x="629" 
d="M448 716h91v-588c0 -47 1 -93 4 -128h-82l-4 91h-2c-31 -60 -97 -103 -185 -103c-130 0 -230 103 -230 245c-1 159 108 263 241 263c87 0 143 -41 165 -79h2v299zM448 214v69c0 12 -1 27 -4 39c-17 58 -71 104 -146 104c-101 0 -166 -77 -166 -186
c0 -97 56 -179 165 -179c70 0 130 49 146 113c4 13 5 26 5 40zM622 528l-38 32c17 17 38 45 38 88c0 24 -13 48 -30 64l65 14c17 -11 36 -40 36 -73c0 -79 -57 -116 -71 -125z" />
    <glyph glyph-name="dcroat" unicode="&#x111;" horiz-adv-x="619" 
d="M623 555h-84v-427c0 -47 1 -93 4 -128h-82l-4 91h-2c-31 -60 -97 -103 -185 -103c-130 0 -230 103 -230 245c-1 159 108 263 241 263c87 0 143 -41 165 -79h2v138h-220v56h220v105h91v-105h84v-56zM448 214v69c0 12 -1 27 -4 39c-17 58 -71 104 -146 104
c-101 0 -166 -77 -166 -186c0 -97 56 -179 165 -179c70 0 130 49 146 113c4 13 5 26 5 40z" />
    <glyph glyph-name="ebreve" unicode="&#x115;" horiz-adv-x="547" 
d="M504 223h-377c2 -109 83 -164 183 -164c73 0 115 12 152 27l16 -65c-32 -13 -90 -33 -180 -33c-160 0 -259 100 -259 245c0 143 93 263 250 263c177 0 219 -150 219 -233c0 -18 -1 -31 -4 -40zM128 288h292c1 42 -18 144 -138 144c-103 0 -146 -84 -154 -144zM146 687h55
c7 -40 33 -72 75 -72c51 0 72 39 75 72h55c-1 -78 -51 -129 -130 -129c-94 0 -129 66 -130 129z" />
    <glyph glyph-name="ecaron" unicode="&#x11b;" horiz-adv-x="547" 
d="M504 223h-377c2 -109 83 -164 183 -164c73 0 115 12 152 27l16 -65c-32 -13 -90 -33 -180 -33c-160 0 -259 100 -259 245c0 143 93 263 250 263c177 0 219 -150 219 -233c0 -18 -1 -31 -4 -40zM128 288h292c1 42 -18 144 -138 144c-103 0 -146 -84 -154 -144zM310 551
h-67l-101 146h71l63 -98h2l63 98h68z" />
    <glyph glyph-name="edotaccent" unicode="&#x117;" horiz-adv-x="547" 
d="M504 223h-377c2 -109 83 -164 183 -164c73 0 115 12 152 27l16 -65c-32 -13 -90 -33 -180 -33c-160 0 -259 100 -259 245c0 143 93 263 250 263c177 0 219 -150 219 -233c0 -18 -1 -31 -4 -40zM128 288h292c1 42 -18 144 -138 144c-103 0 -146 -84 -154 -144zM277 572h-1
c-30 0 -52 25 -52 53c0 29 24 54 54 54c29 0 51 -24 51 -54c0 -28 -21 -53 -52 -53z" />
    <glyph glyph-name="emacron" unicode="&#x113;" horiz-adv-x="547" 
d="M504 223h-377c2 -109 83 -164 183 -164c73 0 115 12 152 27l16 -65c-32 -13 -90 -33 -180 -33c-160 0 -259 100 -259 245c0 143 93 263 250 263c177 0 219 -150 219 -233c0 -18 -1 -31 -4 -40zM128 288h292c1 42 -18 144 -138 144c-103 0 -146 -84 -154 -144zM160 646
h234v-58h-234v58z" />
    <glyph glyph-name="eng" unicode="&#x14b;" horiz-adv-x="605" 
d="M80 0v351c0 49 -1 92 -4 133h81l5 -86h3c25 47 87 98 176 98c66 0 188 -37 188 -219v-208c0 -161 -90 -234 -206 -250l-17 73c89 18 132 73 132 167v210c0 85 -36 153 -127 153c-66 0 -115 -46 -133 -94c-4 -11 -7 -27 -7 -40v-288h-91z" />
    <glyph glyph-name="eogonek" unicode="&#x119;" horiz-adv-x="547" 
d="M421 -137l15 -46c-22 -15 -51 -24 -84 -24c-56 0 -92 28 -92 80c0 49 40 93 72 115v1c-11 0 -22 -1 -35 -1c-159 0 -258 100 -258 245c0 143 93 263 250 263c177 0 219 -150 219 -233c0 -18 -1 -31 -4 -40h-377c2 -109 83 -164 183 -164c73 0 115 12 152 27l16 -65
c-17 -8 -42 -15 -52 -19c-37 -15 -95 -64 -95 -105c0 -30 21 -43 43 -43c14 0 34 3 47 9zM128 288h292c1 42 -19 144 -138 144c-103 0 -146 -84 -154 -144z" />
    <glyph glyph-name="gbreve" unicode="&#x11f;" horiz-adv-x="613" 
d="M533 358v-284c0 -107 -25 -181 -76 -226c-54 -47 -129 -60 -192 -60c-64 0 -136 15 -179 45l23 70c36 -23 92 -44 159 -44c100 0 175 50 175 177v55h-2c-30 -48 -88 -89 -174 -89c-132 0 -227 105 -227 236c0 159 115 258 240 258c95 0 147 -46 171 -91h2l3 79h81
c-3 -35 -4 -73 -4 -126zM442 217v69c0 15 -2 28 -5 41c-19 57 -70 100 -142 100c-93 0 -163 -70 -163 -184c0 -85 52 -172 162 -172c65 0 120 42 140 98c5 14 8 32 8 48zM167 687h55c7 -40 33 -72 75 -72c51 0 72 39 75 72h55c-1 -78 -51 -129 -130 -129
c-94 0 -129 66 -130 129z" />
    <glyph glyph-name="gcircumflex" unicode="&#x11d;" horiz-adv-x="613" 
d="M533 358v-284c0 -107 -25 -181 -76 -226c-54 -47 -129 -60 -192 -60c-64 0 -136 15 -179 45l23 70c36 -23 92 -44 159 -44c100 0 175 50 175 177v55h-2c-30 -48 -88 -89 -174 -89c-132 0 -227 105 -227 236c0 159 115 258 240 258c95 0 147 -46 171 -91h2l3 79h81
c-3 -35 -4 -73 -4 -126zM442 217v69c0 15 -2 28 -5 41c-19 57 -70 100 -142 100c-93 0 -163 -70 -163 -184c0 -85 52 -172 162 -172c65 0 120 42 140 98c5 14 8 32 8 48zM274 701h64l101 -146h-70l-62 97h-2l-62 -97h-68z" />
    <glyph glyph-name="gcommaaccent" unicode="&#x123;" horiz-adv-x="613" 
d="M533 358v-284c0 -107 -25 -181 -76 -226c-54 -47 -128 -60 -192 -60s-136 15 -179 45l23 70c36 -23 92 -44 160 -44c99 0 174 50 174 177v55h-2c-30 -48 -88 -89 -173 -89c-133 0 -228 105 -228 236c0 159 115 258 240 258c95 0 147 -46 171 -91h2l3 79h81
c-3 -35 -4 -73 -4 -126zM442 217v69c0 15 -2 28 -5 41c-19 57 -70 100 -141 100c-94 0 -164 -70 -164 -184c0 -85 52 -172 163 -172c64 0 119 42 139 98c5 14 8 32 8 48zM365 712l17 -38c-44 -5 -81 -24 -81 -65c0 -22 16 -44 34 -58l-64 -14c-21 13 -41 40 -41 72
c0 72 72 101 135 103z" />
    <glyph glyph-name="gdotaccent" unicode="&#x121;" horiz-adv-x="613" 
d="M533 358v-284c0 -107 -25 -181 -76 -226c-54 -47 -129 -60 -192 -60c-64 0 -136 15 -179 45l23 70c36 -23 92 -44 159 -44c100 0 175 50 175 177v55h-2c-30 -48 -88 -89 -174 -89c-132 0 -227 105 -227 236c0 159 115 258 240 258c95 0 147 -46 171 -91h2l3 79h81
c-3 -35 -4 -73 -4 -126zM442 217v69c0 15 -2 28 -5 41c-19 57 -70 100 -142 100c-93 0 -163 -70 -163 -184c0 -85 52 -172 162 -172c65 0 120 42 140 98c5 14 8 32 8 48zM306 576h-1c-30 0 -52 25 -52 53c0 29 24 54 54 54c29 0 51 -24 51 -54c0 -28 -21 -53 -52 -53z" />
    <glyph glyph-name="hbar" unicode="&#x127;" horiz-adv-x="605" 
d="M529 0h-91v268c0 84 -35 153 -127 153c-65 0 -115 -45 -133 -91c-6 -13 -7 -26 -7 -44v-286h-91v555h-83v56h83v105h91v-105h214v-56h-214v-154h2c16 27 40 52 71 68c28 16 63 27 98 27c67 0 187 -37 187 -219v-277z" />
    <glyph glyph-name="hcircumflex" unicode="&#x125;" horiz-adv-x="605" 
d="M80 0v716h91v-315h2c16 27 40 52 71 68c28 17 63 27 98 27c67 0 187 -37 187 -219v-277h-91v268c0 84 -35 153 -127 153c-65 0 -115 -45 -133 -91c-6 -13 -7 -26 -7 -44v-286h-91zM94 852h67l111 -120h-76l-67 74h-2l-68 -74h-73z" />
    <glyph glyph-name="ibreve" unicode="&#x12d;" horiz-adv-x="250" 
d="M171 0h-91v484h91v-484zM-1 687h55c7 -40 33 -72 75 -72c51 0 72 39 75 72h55c-1 -78 -51 -129 -130 -129c-94 0 -129 66 -130 129z" />
    <glyph glyph-name="ij" unicode="&#x133;" horiz-adv-x="512" 
d="M171 0h-91v484h91v-484zM125 568h-1c-34 0 -56 26 -56 56s23 56 58 56c34 0 57 -25 57 -56c0 -30 -22 -56 -58 -56zM208 -215l-9 72c46 2 83 14 106 37c26 28 37 67 37 191v399h91v-437c0 -92 -15 -157 -61 -204c-41 -42 -111 -58 -164 -58zM387 568h-1
c-35 0 -56 27 -56 56c0 30 23 56 59 56c34 0 56 -26 56 -56c0 -29 -21 -56 -58 -56z" />
    <glyph glyph-name="imacron" unicode="&#x12b;" horiz-adv-x="250" 
d="M171 0h-91v484h91v-484zM9 646h234v-58h-234v58z" />
    <glyph glyph-name="iogonek" unicode="&#x12f;" horiz-adv-x="250" 
d="M125 575h-1c-35 0 -58 27 -58 58c0 30 24 57 59 57c36 0 59 -26 59 -57s-23 -58 -59 -58zM171 484v-484h-32c-15 -21 -42 -61 -42 -97c0 -34 22 -53 54 -53c19 0 35 4 46 9l15 -46c-20 -16 -57 -24 -84 -24c-57 0 -96 30 -96 88c0 49 29 95 48 123v484h91z" />
    <glyph glyph-name="itilde" unicode="&#x129;" horiz-adv-x="250" 
d="M171 0h-91v484h91v-484zM47 569h-50c-2 70 27 108 70 108c22 0 41 -10 67 -24c16 -9 31 -17 43 -17c16 0 26 10 28 44h49c1 -69 -22 -104 -70 -104c-23 0 -43 10 -66 22c-21 12 -32 18 -44 18c-16 0 -25 -18 -27 -47z" />
    <glyph glyph-name="jcircumflex" unicode="&#x135;" horiz-adv-x="262" 
d="M-42 -215l-9 72c46 2 83 14 106 37c26 28 37 67 37 191v399h91v-437c0 -92 -15 -157 -61 -204c-41 -42 -111 -58 -164 -58zM97 690h64l101 -146h-70l-62 98h-2l-62 -98h-68z" />
    <glyph glyph-name="kcommaaccent" unicode="&#x137;" horiz-adv-x="507" 
d="M171 716v-453h2c13 16 32 39 48 55l158 166h113l-207 -198l238 -286h-114l-187 234l-51 -52v-182h-91v716h91zM194 -224l-17 42c42 5 79 25 79 66c0 23 -16 46 -34 61l66 15c21 -14 41 -42 41 -75c0 -77 -71 -107 -135 -109z" />
    <glyph glyph-name="lacute" unicode="&#x13a;" horiz-adv-x="250" 
d="M80 0v716h91v-716h-91zM157 866h111l-128 -120h-75z" />
    <glyph glyph-name="lcaron" unicode="&#x13e;" horiz-adv-x="261" 
d="M80 0v716h91v-716h-91zM251 528l-41 31c17 20 38 46 38 89c0 23 -13 48 -30 64l65 14c17 -11 36 -40 36 -75c0 -77 -54 -112 -68 -123z" />
    <glyph glyph-name="lcommaaccent" unicode="&#x13c;" horiz-adv-x="250" 
d="M80 0v716h91v-716h-91zM55 -224l-17 42c42 5 79 25 79 66c0 23 -16 46 -34 61l66 15c21 -14 41 -42 41 -75c0 -77 -71 -107 -135 -109z" />
    <glyph glyph-name="ldot" unicode="&#x140;" horiz-adv-x="284" 
d="M80 0v716h91v-716h-91zM267 339h-1c-29 0 -49 25 -49 52c0 28 22 52 50 52s48 -23 48 -52c0 -27 -20 -52 -48 -52z" />
    <glyph glyph-name="nacute" unicode="&#x144;" horiz-adv-x="605" 
d="M80 0v351c0 49 -1 92 -4 133h81l5 -86h3c25 47 87 98 176 98c66 0 188 -37 188 -219v-277h-91v269c0 85 -36 153 -127 153c-66 0 -115 -46 -133 -94c-4 -11 -7 -27 -7 -40v-288h-91zM342 697h103l-128 -146h-66z" />
    <glyph glyph-name="ncaron" unicode="&#x148;" horiz-adv-x="605" 
d="M80 0v351c0 49 -1 92 -4 133h81l5 -86h3c25 47 87 98 176 98c66 0 188 -37 188 -219v-277h-91v269c0 85 -36 153 -127 153c-66 0 -115 -46 -133 -94c-4 -11 -7 -27 -7 -40v-288h-91zM337 551h-67l-101 146h71l63 -98h2l63 98h68z" />
    <glyph glyph-name="ncommaaccent" unicode="&#x146;" horiz-adv-x="605" 
d="M80 0v351c0 49 -1 92 -4 133h81l5 -86h3c25 47 87 98 176 98c66 0 188 -37 188 -219v-277h-91v269c0 85 -36 153 -127 153c-66 0 -115 -46 -133 -94c-4 -11 -7 -27 -7 -40v-288h-91zM243 -224l-17 42c42 5 79 25 79 66c0 23 -16 46 -34 61l66 15c21 -14 41 -42 41 -75
c0 -77 -71 -107 -135 -109z" />
    <glyph glyph-name="obreve" unicode="&#x14f;" horiz-adv-x="604" 
d="M298 -12h-1c-146 0 -258 101 -258 249c0 158 116 259 266 259c157 0 259 -107 259 -248c0 -177 -137 -260 -266 -260zM299 55h1c91 0 170 68 170 189c0 85 -50 185 -167 185c-115 0 -170 -91 -170 -188c0 -116 76 -186 166 -186zM172 687h55c7 -40 33 -72 75 -72
c51 0 72 39 75 72h55c-1 -78 -51 -129 -130 -129c-94 0 -129 66 -130 129z" />
    <glyph glyph-name="ohungarumlaut" unicode="&#x151;" horiz-adv-x="604" 
d="M298 -12h-1c-146 0 -258 101 -258 249c0 158 116 259 266 259c157 0 259 -107 259 -248c0 -177 -137 -260 -266 -260zM299 55h1c91 0 170 68 170 189c0 85 -50 185 -167 185c-115 0 -170 -91 -170 -188c0 -116 76 -186 166 -186zM258 697h92l-112 -137h-59zM409 697h92
l-112 -137h-59z" />
    <glyph glyph-name="omacron" unicode="&#x14d;" horiz-adv-x="604" 
d="M298 -12h-1c-146 0 -258 101 -258 249c0 158 116 259 266 259c157 0 259 -107 259 -248c0 -177 -137 -260 -266 -260zM299 55h1c91 0 170 68 170 189c0 85 -50 185 -167 185c-115 0 -170 -91 -170 -188c0 -116 76 -186 166 -186zM186 646h234v-58h-234v58z" />
    <glyph glyph-name="oslashacute" unicode="&#x1ff;" horiz-adv-x="604" 
d="M303 496h1c49 0 97 -12 137 -35l47 62l39 -29l-46 -61c53 -46 83 -113 83 -186c0 -175 -134 -259 -262 -259c-50 0 -98 12 -137 36l-50 -64l-36 32l45 59c-52 44 -84 109 -84 187c0 156 114 258 263 258zM173 115l225 286c-27 18 -59 28 -97 28
c-119 0 -172 -94 -172 -188c0 -47 13 -91 42 -126h2zM431 367l-224 -284c28 -21 59 -28 91 -28c99 0 177 70 177 190c0 34 -11 84 -42 121zM343 697h103l-128 -146h-66z" />
    <glyph glyph-name="racute" unicode="&#x155;" horiz-adv-x="354" 
d="M80 0v325c0 62 -1 111 -4 159h80l3 -101h3c25 71 83 113 146 113c10 0 18 -1 27 -3v-84c-10 2 -20 3 -34 3c-67 0 -113 -47 -126 -116c-3 -13 -4 -27 -4 -41v-255h-91zM228 697h103l-128 -146h-66z" />
    <glyph glyph-name="rcaron" unicode="&#x159;" horiz-adv-x="354" 
d="M80 0v325c0 62 -1 111 -4 159h80l3 -101h3c25 71 83 113 146 113c10 0 18 -1 27 -3v-84c-10 2 -20 3 -34 3c-67 0 -113 -47 -126 -116c-3 -13 -4 -27 -4 -41v-255h-91zM231 551h-67l-101 146h71l63 -98h2l63 98h68z" />
    <glyph glyph-name="rcommaaccent" unicode="&#x157;" horiz-adv-x="354" 
d="M80 0v325c0 62 -1 111 -4 159h80l3 -101h3c25 71 83 113 146 113c10 0 18 -1 27 -3v-84c-10 2 -20 3 -34 3c-67 0 -113 -47 -126 -116c-3 -13 -4 -27 -4 -41v-255h-91zM62 -224l-17 42c42 5 79 25 79 66c0 23 -16 46 -34 61l66 15c21 -14 41 -42 41 -75
c0 -77 -71 -107 -135 -109z" />
    <glyph glyph-name="sacute" unicode="&#x15b;" horiz-adv-x="432" 
d="M45 24l22 68c30 -18 82 -37 130 -37c71 0 101 33 101 73c0 44 -30 65 -99 86c-96 29 -139 78 -139 137c0 78 65 145 179 145c53 0 100 -14 129 -32l-22 -66c-19 12 -60 31 -111 31c-56 0 -86 -30 -86 -68c0 -42 34 -60 102 -82c93 -30 136 -71 136 -145
c0 -82 -67 -146 -193 -146c-58 0 -111 15 -149 36zM262 697h103l-128 -146h-66z" />
    <glyph glyph-name="scedilla" unicode="&#x15f;" horiz-adv-x="432" 
d="M45 24l22 69c30 -18 82 -37 130 -37c71 0 101 33 101 72c0 45 -30 65 -99 87c-96 28 -139 78 -139 136c0 78 65 145 179 145c53 0 100 -14 129 -32l-22 -65c-19 11 -60 30 -111 30c-56 0 -86 -30 -86 -68c0 -42 34 -60 102 -82c93 -29 136 -70 136 -144
c0 -69 -49 -127 -140 -142l-28 -42c37 -5 71 -30 71 -69c0 -60 -49 -82 -109 -82c-24 0 -51 7 -68 17l14 43c17 -9 39 -14 56 -14c23 0 46 8 45 32c-1 26 -31 37 -81 41l42 70h-4c-43 0 -96 12 -140 35z" />
    <glyph glyph-name="scedilla" unicode="&#xf6c2;" horiz-adv-x="432" 
d="M45 24l22 69c30 -18 82 -37 130 -37c71 0 101 33 101 72c0 45 -30 65 -99 87c-96 28 -139 78 -139 136c0 78 65 145 179 145c53 0 100 -14 129 -32l-22 -65c-19 11 -60 30 -111 30c-56 0 -86 -30 -86 -68c0 -42 34 -60 102 -82c93 -29 136 -70 136 -144
c0 -69 -49 -127 -140 -142l-28 -42c37 -5 71 -30 71 -69c0 -60 -49 -82 -109 -82c-24 0 -51 7 -68 17l14 43c17 -9 39 -14 56 -14c23 0 46 8 45 32c-1 26 -31 37 -81 41l42 70h-4c-43 0 -96 12 -140 35z" />
    <glyph glyph-name="scircumflex" unicode="&#x15d;" horiz-adv-x="432" 
d="M45 24l22 68c30 -18 82 -37 130 -37c71 0 101 33 101 73c0 44 -30 65 -99 86c-96 29 -139 78 -139 137c0 78 65 145 179 145c53 0 100 -14 129 -32l-22 -66c-19 12 -60 31 -111 31c-56 0 -86 -30 -86 -68c0 -42 34 -60 102 -82c93 -30 136 -71 136 -145
c0 -82 -67 -146 -193 -146c-58 0 -111 15 -149 36zM186 697h64l101 -146h-70l-62 97h-2l-62 -97h-68z" />
    <glyph glyph-name="scommaaccent" unicode="&#x219;" horiz-adv-x="432" 
d="M45 24l22 68c30 -18 82 -37 130 -37c71 0 101 33 101 73c0 44 -30 65 -99 86c-96 29 -139 78 -139 137c0 78 65 145 179 145c53 0 100 -14 129 -32l-22 -66c-19 12 -60 31 -111 31c-56 0 -86 -30 -86 -68c0 -42 34 -60 102 -82c93 -30 136 -71 136 -145
c0 -82 -67 -146 -193 -146c-58 0 -111 15 -149 36zM152 -224l-17 42c42 5 79 25 79 66c0 23 -16 46 -34 61l66 15c21 -14 41 -42 41 -75c0 -77 -71 -107 -135 -109z" />
    <glyph glyph-name="tbar" unicode="&#x167;" horiz-adv-x="357" 
d="M326 415h-137v-116h107v-54h-107v-88c0 -57 18 -94 72 -94c27 0 43 3 57 7l5 -68c-19 -8 -49 -14 -86 -14c-44 0 -80 15 -101 40c-26 28 -36 74 -36 127v90h-70v54h70v116h-80v69h80v92l89 25v-117h137v-69z" />
    <glyph glyph-name="tcaron" unicode="&#x165;" horiz-adv-x="364" 
d="M100 576l89 25v-117h138v-69h-138v-253c0 -59 16 -99 72 -99c27 0 43 3 58 7l4 -68c-18 -8 -49 -14 -86 -14c-44 0 -80 15 -101 40c-26 28 -36 74 -36 128v259h-80v69h80v92zM282 543l-23 39c19 12 41 35 41 73c0 20 -13 43 -30 57l65 14c17 -11 36 -39 36 -70
c0 -74 -63 -106 -89 -113z" />
    <glyph glyph-name="tcommaaccent" unicode="&#x163;" horiz-adv-x="357" 
d="M100 576l89 25v-117h137v-69h-137v-253c0 -59 16 -99 72 -99c27 0 43 3 57 7l5 -68c-19 -8 -49 -14 -86 -14c-44 0 -80 15 -101 40c-26 28 -36 74 -36 128v259h-80v69h80v92zM135 -231l-17 42c42 5 79 25 79 66c0 23 -16 46 -34 61l66 15c21 -14 41 -42 41 -75
c0 -77 -71 -107 -135 -109z" />
    <glyph glyph-name="tcommaaccent" unicode="&#x21b;" horiz-adv-x="357" 
d="M100 576l89 25v-117h137v-69h-137v-253c0 -59 16 -99 72 -99c27 0 43 3 57 7l5 -68c-19 -8 -49 -14 -86 -14c-44 0 -80 15 -101 40c-26 28 -36 74 -36 128v259h-80v69h80v92zM135 -231l-17 42c42 5 79 25 79 66c0 23 -16 46 -34 61l66 15c21 -14 41 -42 41 -75
c0 -77 -71 -107 -135 -109z" />
    <glyph glyph-name="ubreve" unicode="&#x16d;" horiz-adv-x="602" 
d="M522 484v-351c0 -50 1 -94 4 -133h-81l-5 88h-2c-25 -44 -81 -100 -179 -100c-73 0 -183 35 -183 221v275h91v-259c0 -97 34 -162 123 -162c63 0 111 41 132 86c5 13 9 29 9 46v289h91zM171 687h55c7 -40 33 -72 75 -72c51 0 72 39 75 72h55c-1 -78 -51 -129 -130 -129
c-94 0 -129 66 -130 129z" />
    <glyph glyph-name="uhungarumlaut" unicode="&#x171;" horiz-adv-x="602" 
d="M522 484v-351c0 -50 1 -94 4 -133h-81l-5 88h-2c-25 -44 -81 -100 -179 -100c-73 0 -183 35 -183 221v275h91v-259c0 -97 34 -162 123 -162c63 0 111 41 132 86c5 13 9 29 9 46v289h91zM265 697h92l-112 -137h-59zM416 697h92l-112 -137h-59z" />
    <glyph glyph-name="umacron" unicode="&#x16b;" horiz-adv-x="602" 
d="M522 484v-351c0 -50 1 -94 4 -133h-81l-5 88h-2c-25 -44 -81 -100 -179 -100c-73 0 -183 35 -183 221v275h91v-259c0 -97 34 -162 123 -162c63 0 111 41 132 86c5 13 9 29 9 46v289h91zM185 646h234v-58h-234v58z" />
    <glyph glyph-name="uogonek" unicode="&#x173;" horiz-adv-x="602" 
d="M522 484v-352c0 -50 1 -93 4 -132l-22 4c-15 -20 -42 -60 -42 -97c0 -34 22 -53 54 -53c19 0 35 4 46 9l15 -46c-20 -16 -58 -24 -84 -24c-57 0 -96 30 -96 88c0 49 29 95 48 123l-5 84h-2c-25 -44 -81 -100 -179 -100c-73 0 -183 35 -183 221v275h91v-259
c0 -97 34 -162 123 -162c63 0 112 41 132 86c6 13 9 29 9 46v289h91z" />
    <glyph glyph-name="uring" unicode="&#x16f;" horiz-adv-x="602" 
d="M522 484v-351c0 -50 1 -94 4 -133h-81l-5 88h-2c-25 -44 -81 -100 -179 -100c-73 0 -183 35 -183 221v275h91v-259c0 -97 34 -162 123 -162c63 0 111 41 132 86c5 13 9 29 9 46v289h91zM302 728h1c61 0 101 -41 101 -96c0 -53 -45 -93 -102 -93c-61 0 -104 41 -104 93
c0 54 41 96 104 96zM301 690h-1c-31 0 -50 -26 -50 -58c0 -28 21 -55 51 -55c32 0 53 25 53 56c0 32 -21 57 -53 57z" />
    <glyph glyph-name="utilde" unicode="&#x169;" horiz-adv-x="602" 
d="M522 484v-351c0 -50 1 -94 4 -133h-81l-5 88h-2c-25 -44 -81 -100 -179 -100c-73 0 -183 35 -183 221v275h91v-259c0 -97 34 -162 123 -162c63 0 111 41 132 86c5 13 9 29 9 46v289h91zM223 569h-50c-2 70 27 108 70 108c22 0 41 -10 67 -24c16 -9 31 -17 43 -17
c16 0 26 10 28 44h49c1 -69 -22 -104 -70 -104c-23 0 -43 10 -66 22c-21 12 -32 18 -44 18c-16 0 -25 -18 -27 -47z" />
    <glyph glyph-name="wacute" unicode="&#x1e83;" horiz-adv-x="793" 
d="M20 484h93l71 -249c15 -54 28 -104 39 -154h2c12 48 29 100 47 154l87 249h79l83 -245c19 -59 34 -110 46 -158h2c10 48 24 100 41 157l77 246h90l-168 -484h-85l-79 230c-20 56 -36 107 -49 164h-2c-13 -59 -30 -111 -49 -164l-85 -230h-85zM439 697h103l-128 -146h-66z
" />
    <glyph glyph-name="wcircumflex" unicode="&#x175;" horiz-adv-x="793" 
d="M20 484h93l71 -249c15 -54 28 -104 39 -154h2c12 48 29 100 47 154l87 249h79l83 -245c19 -59 34 -110 46 -158h2c10 48 24 100 41 157l77 246h90l-168 -484h-85l-79 230c-20 56 -36 107 -49 164h-2c-13 -59 -30 -111 -49 -164l-85 -230h-85zM364 697h64l101 -146h-70
l-62 97h-2l-62 -97h-68z" />
    <glyph glyph-name="wdieresis" unicode="&#x1e85;" horiz-adv-x="793" 
d="M20 484h93l71 -249c15 -54 28 -104 39 -154h2c12 48 29 100 47 154l87 249h79l83 -245c19 -59 34 -110 46 -158h2c10 48 24 100 41 157l77 246h90l-168 -484h-85l-79 230c-20 56 -36 107 -49 164h-2c-13 -59 -30 -111 -49 -164l-85 -230h-85zM300 571h-1
c-30 0 -51 25 -51 53c0 29 23 53 53 53c28 0 50 -24 50 -53c0 -28 -20 -53 -51 -53zM495 571h-2c-30 0 -50 25 -50 53c0 29 22 53 52 53c29 0 51 -24 51 -53c0 -28 -20 -53 -51 -53z" />
    <glyph glyph-name="wgrave" unicode="&#x1e81;" horiz-adv-x="793" 
d="M20 484h93l71 -249c15 -54 28 -104 39 -154h2c12 48 29 100 47 154l87 249h79l83 -245c19 -59 34 -110 46 -158h2c10 48 24 100 41 157l77 246h90l-168 -484h-85l-79 230c-20 56 -36 107 -49 164h-2c-13 -59 -30 -111 -49 -164l-85 -230h-85zM261 697h103l91 -146h-66z
" />
    <glyph glyph-name="ycircumflex" unicode="&#x177;" horiz-adv-x="513" 
d="M8 484h101l119 -289c12 -30 26 -70 35 -98h2c10 29 22 66 35 101l108 286h99l-150 -356c-74 -181 -120 -255 -181 -300c-47 -36 -92 -48 -115 -51l-19 76c22 5 52 17 80 37c25 17 59 52 83 104c5 8 7 15 7 20c0 4 -1 12 -7 24zM226 697h64l101 -146h-70l-62 97h-2
l-62 -97h-68z" />
    <glyph glyph-name="ygrave" unicode="&#x1ef3;" horiz-adv-x="513" 
d="M8 484h101l119 -289c12 -30 26 -70 35 -98h2c10 29 22 66 35 101l108 286h99l-150 -356c-74 -181 -120 -255 -181 -300c-47 -36 -92 -48 -115 -51l-19 76c22 5 52 17 80 37c25 17 59 52 83 104c5 8 7 15 7 20c0 4 -1 12 -7 24zM123 697h103l91 -146h-66z" />
    <glyph glyph-name="zacute" unicode="&#x17a;" horiz-adv-x="466" 
d="M19 0v52l241 280c24 29 45 51 71 78v2h-292v72h406l-1 -56l-237 -277c-24 -27 -45 -52 -70 -77v-2h313v-72h-431zM278 697h103l-128 -146h-66z" />
    <glyph glyph-name="zdotaccent" unicode="&#x17c;" horiz-adv-x="466" 
d="M19 0v52l241 280c24 29 45 51 71 78v2h-292v72h406l-1 -56l-237 -277c-24 -27 -45 -52 -70 -77v-2h313v-72h-431zM235 572h-1c-30 0 -52 25 -52 53c0 29 24 54 54 54c29 0 51 -24 51 -54c0 -28 -21 -53 -52 -53z" />
    <glyph glyph-name="kgreenlandic" unicode="&#x138;" horiz-adv-x="507" 
d="M171 484v-221h2c13 16 32 39 48 55l158 166h113l-207 -198l238 -286h-114l-187 234l-51 -52v-182h-91v484h91z" />
    <glyph glyph-name="napostrophe" unicode="&#x149;" horiz-adv-x="605" 
d="M80 0v351c0 49 -1 92 -4 133h81l5 -86h3c25 47 87 98 176 98c66 0 188 -37 188 -219v-277h-91v269c0 85 -36 153 -127 153c-66 0 -115 -46 -133 -94c-4 -11 -7 -27 -7 -40v-288h-91zM57 539l-38 32c18 19 39 43 39 82c0 22 -13 44 -30 58l65 19c16 -10 36 -38 36 -74
c0 -71 -56 -106 -72 -117z" />
    <glyph glyph-name="tonos" unicode="&#x384;" 
d="M146 697h96l-93 -146h-63z" />
    <glyph glyph-name="dieresistonos" unicode="&#x385;" horiz-adv-x="344" 
d="M153 716h79l-54 -160h-50zM44 575h-1c-29 0 -48 24 -48 50s22 49 50 49c27 0 47 -22 47 -49c0 -26 -19 -50 -48 -50zM299 575h-1c-28 0 -47 24 -47 50s21 49 49 49s48 -22 48 -49c0 -26 -19 -50 -49 -50z" />
    <glyph glyph-name="Alpha" unicode="&#x391;" horiz-adv-x="671" 
d="M469 215h-269l-78 -215h-95l254 674h111l257 -674h-99zM220 285h229l-77 202c-16 43 -27 78 -38 113h-2c-10 -36 -20 -71 -35 -112z" />
    <glyph glyph-name="Beta" unicode="&#x392;" horiz-adv-x="585" 
d="M81 1v664c41 8 109 15 175 15c96 0 153 -15 197 -49c36 -27 60 -67 60 -121c0 -64 -45 -123 -118 -147v-3c59 -14 144 -63 144 -169c0 -58 -25 -103 -61 -135c-49 -43 -129 -63 -250 -63c-64 0 -115 5 -147 8zM172 604v-215h94c101 0 155 48 155 112
c0 84 -69 110 -159 110c-48 0 -74 -3 -90 -7zM172 321v-254c20 -4 48 -5 84 -5c94 0 187 29 187 131c0 92 -84 128 -186 128h-85z" />
    <glyph glyph-name="Gamma" unicode="&#x393;" horiz-adv-x="492" 
d="M81 674h397v-76h-306v-598h-91v674z" />
    <glyph glyph-name="Delta" unicode="&#x394;" horiz-adv-x="682" 
d="M26 0v51l262 623h104l259 -623v-51h-625zM124 74h423l-155 379c-19 45 -42 102 -56 143h-2c-10 -29 -30 -81 -49 -126z" />
    <glyph glyph-name="Delta" unicode="&#xe000;" horiz-adv-x="682" 
d="M26 0v51l262 623h104l259 -623v-51h-625zM124 74h423l-155 379c-19 45 -42 102 -56 143h-2c-10 -29 -30 -81 -49 -126z" />
    <glyph glyph-name="Epsilon" unicode="&#x395;" horiz-adv-x="537" 
d="M464 389v-74h-292v-241h326v-74h-417v674h400v-74h-309v-211h292z" />
    <glyph glyph-name="Zeta" unicode="&#x396;" horiz-adv-x="619" 
d="M33 0v52l422 545v3h-386v74h508v-53l-420 -544v-3h427v-74h-551z" />
    <glyph glyph-name="Eta" unicode="&#x397;" horiz-adv-x="715" 
d="M81 674h91v-280h371v280h91v-674h-91v317h-371v-317h-91v674z" />
    <glyph glyph-name="Theta" unicode="&#x398;" horiz-adv-x="770" 
d="M380 -12h-1c-201 0 -341 145 -341 341c0 210 149 357 350 357c207 0 343 -147 343 -342c0 -224 -159 -356 -351 -356zM383 60h1c155 0 251 120 251 280c0 137 -86 274 -249 274c-165 0 -252 -132 -252 -283c0 -145 95 -271 249 -271zM228 383h312v-72h-312v72z" />
    <glyph glyph-name="Iota" unicode="&#x399;" horiz-adv-x="253" 
d="M81 674h91v-674h-91v674z" />
    <glyph glyph-name="Kappa" unicode="&#x39a;" horiz-adv-x="588" 
d="M81 0v674h91v-326h3c19 25 39 47 57 68l233 258h115l-270 -286l294 -388h-109l-250 333l-73 -78v-255h-91z" />
    <glyph glyph-name="Lambda" unicode="&#x39b;" horiz-adv-x="668" 
d="M649 0h-99l-179 484c-16 42 -26 77 -37 112h-2c-10 -35 -20 -71 -34 -111l-176 -485h-95l254 674h111z" />
    <glyph glyph-name="Mu" unicode="&#x39c;" horiz-adv-x="872" 
d="M720 0l-17 298c-5 95 -12 214 -12 299h-2c-26 -79 -58 -166 -96 -262l-130 -331h-72l-120 327c-35 98 -63 186 -84 266h-2c-4 -85 -8 -204 -15 -306l-20 -291h-87l49 674h121l126 -333c30 -80 54 -157 73 -225h2c19 65 46 143 79 226l134 332h120l43 -674h-90z" />
    <glyph glyph-name="Nu" unicode="&#x39d;" horiz-adv-x="722" 
d="M167 0h-86v674h103l247 -349c56 -81 97 -146 131 -214l3 1c-9 85 -10 165 -10 266v296h86v-674h-93l-243 347c-53 78 -104 155 -141 225l-3 -1c5 -84 6 -164 6 -265v-306z" />
    <glyph glyph-name="Xi" unicode="&#x39e;" horiz-adv-x="599" 
d="M60 674h491v-74h-491v74zM99 385h413v-74h-413v74zM48 74h515v-74h-515v74z" />
    <glyph glyph-name="Omicron" unicode="&#x39f;" horiz-adv-x="770" 
d="M380 -12h-1c-201 0 -341 145 -341 341c0 210 149 357 350 357c207 0 343 -146 343 -342c0 -224 -159 -356 -351 -356zM383 60h1c155 0 251 120 251 280c0 137 -86 274 -249 274c-165 0 -252 -131 -252 -282c0 -146 95 -272 249 -272z" />
    <glyph glyph-name="Pi" unicode="&#x3a0;" horiz-adv-x="695" 
d="M613 674v-674h-91v600h-350v-600h-91v674h532z" />
    <glyph glyph-name="Rho" unicode="&#x3a1;" horiz-adv-x="576" 
d="M81 0v666c46 8 107 14 186 14c93 0 160 -22 202 -58c38 -33 63 -81 63 -142s-19 -111 -56 -147c-50 -48 -128 -73 -222 -73c-31 0 -59 1 -82 8v-268h-91zM172 602v-261c23 -7 52 -9 86 -9c115 0 183 52 183 144c0 95 -75 133 -174 133c-45 0 -78 -4 -95 -7z" />
    <glyph glyph-name="Sigma" unicode="&#x3a3;" horiz-adv-x="600" 
d="M151 78v-4h422v-74h-544v53l255 281l-241 279v61h495v-74h-376v-3l224 -260z" />
    <glyph glyph-name="Tau" unicode="&#x3a4;" horiz-adv-x="544" 
d="M226 0v600h-233v74h558v-74h-234v-600h-91z" />
    <glyph glyph-name="Upsilon" unicode="&#x3a5;" horiz-adv-x="643" 
d="M12 607l15 73c59 -4 141 -45 193 -107c50 -59 88 -138 101 -235h5c17 101 70 184 119 237c52 55 121 97 177 105l15 -73c-77 -24 -201 -117 -253 -292c-12 -40 -21 -90 -21 -144v-171h-91v172c0 52 -6 100 -17 142c-45 180 -151 277 -243 293z" />
    <glyph glyph-name="Phi" unicode="&#x3a6;" horiz-adv-x="790" 
d="M438 23v-53h-88v53c-154 11 -312 110 -312 309c0 209 174 312 314 321v51h88v-51c152 -10 312 -111 312 -317c0 -197 -156 -302 -314 -313zM351 88v501c-98 -6 -219 -91 -219 -253c0 -151 108 -238 219 -248zM439 589v-501c106 7 219 91 219 247c0 162 -109 244 -219 254
z" />
    <glyph glyph-name="Chi" unicode="&#x3a7;" horiz-adv-x="631" 
d="M602 0h-108l-95 145c-42 63 -67 101 -89 138h-2c-20 -38 -42 -73 -84 -139l-88 -144h-108l229 341l-220 333h108l99 -159c29 -47 50 -82 70 -116h2c21 37 41 69 70 115l103 160h109l-230 -329z" />
    <glyph glyph-name="Psi" unicode="&#x3a8;" horiz-adv-x="742" 
d="M694 674v-198c0 -178 -120 -268 -279 -273v-203h-87v203c-135 2 -280 64 -280 245v226h90v-208c0 -140 82 -188 190 -192v400h87v-401c94 4 189 54 189 214v187h90z" />
    <glyph glyph-name="Omega" unicode="&#x3a9;" horiz-adv-x="783" 
d="M591 73v-3h162v-70h-278v56c88 52 169 153 169 294c0 126 -87 264 -250 264c-160 0 -255 -129 -255 -267c0 -131 81 -243 169 -291v-56h-279v70h161v3c-73 51 -146 148 -146 280c0 191 151 333 351 333c210 0 343 -148 343 -324c0 -140 -75 -236 -147 -289z" />
    <glyph glyph-name="Omega" unicode="&#x2126;" horiz-adv-x="783" 
d="M591 73v-3h162v-70h-278v56c88 52 169 153 169 294c0 126 -87 264 -250 264c-160 0 -255 -129 -255 -267c0 -131 81 -243 169 -291v-56h-279v70h161v3c-73 51 -146 148 -146 280c0 191 151 333 351 333c210 0 343 -148 343 -324c0 -140 -75 -236 -147 -289z" />
    <glyph glyph-name="Alphatonos" unicode="&#x386;" horiz-adv-x="672" 
d="M470 215h-269l-78 -215h-95l254 674h111l257 -674h-99zM221 285h229l-77 202c-16 43 -27 78 -38 113h-2c-10 -36 -20 -71 -35 -111zM79 674h84l-37 -157h-55z" />
    <glyph glyph-name="Epsilontonos" unicode="&#x388;" horiz-adv-x="613" 
d="M539 389v-74h-292v-241h326v-74h-417v674h400v-74h-309v-211h292zM8 674h84l-37 -157h-55z" />
    <glyph glyph-name="Etatonos" unicode="&#x389;" horiz-adv-x="791" 
d="M156 674h91v-280h372v280h91v-674h-91v317h-372v-317h-91v674zM8 674h84l-37 -157h-55z" />
    <glyph glyph-name="Iotatonos" unicode="&#x38a;" horiz-adv-x="328" 
d="M156 674h91v-674h-91v674zM8 674h84l-37 -157h-55z" />
    <glyph glyph-name="Iotadieresis" unicode="&#x3aa;" horiz-adv-x="253" 
d="M29 712h-1c-30 0 -50 25 -50 52c0 28 22 52 52 52c28 0 49 -23 49 -52c0 -27 -20 -52 -50 -52zM222 712h-1c-29 0 -49 25 -49 52c0 28 22 52 51 52s50 -23 50 -52c0 -27 -20 -52 -51 -52zM81 674h91v-674h-91v674z" />
    <glyph glyph-name="Omicrontonos" unicode="&#x38c;" horiz-adv-x="810" 
d="M421 -12h-1c-201 0 -341 145 -341 341c0 210 149 357 350 357c207 0 343 -146 343 -342c0 -224 -159 -356 -351 -356zM424 60h1c155 0 251 120 251 280c0 137 -86 274 -249 274c-165 0 -252 -131 -252 -282c0 -146 95 -272 249 -272zM9 674h84l-37 -157h-55z" />
    <glyph glyph-name="Upsilontonos" unicode="&#x38e;" horiz-adv-x="771" 
d="M139 607l15 73c59 -4 141 -45 193 -107c50 -59 88 -138 101 -235h5c17 101 70 184 119 237c52 55 121 97 177 105l15 -73c-77 -24 -201 -117 -253 -292c-12 -40 -21 -90 -21 -144v-171h-91v172c0 52 -6 100 -17 142c-45 180 -151 277 -243 293zM8 674h84l-37 -157h-55z
" />
    <glyph glyph-name="Upsilondieresis" unicode="&#x3ab;" horiz-adv-x="643" 
d="M228 697h-1c-30 0 -50 25 -50 52c0 28 22 52 52 52c28 0 49 -23 49 -52c0 -27 -20 -52 -50 -52zM421 697h-1c-29 0 -49 25 -49 52c0 28 22 52 51 52s50 -23 50 -52c0 -27 -20 -52 -51 -52zM12 607l15 73c59 -4 141 -45 193 -107c50 -59 88 -138 101 -235h5
c17 101 70 184 119 237c52 55 121 97 177 105l15 -73c-77 -24 -201 -117 -253 -292c-12 -40 -21 -90 -21 -144v-171h-91v172c0 52 -6 100 -17 142c-45 180 -151 277 -243 293z" />
    <glyph glyph-name="Omegatonos" unicode="&#x38f;" horiz-adv-x="821" 
d="M629 73v-3h163v-70h-279v56c88 50 170 147 170 292c0 126 -89 266 -250 266c-160 0 -256 -130 -256 -268c0 -137 81 -244 170 -290v-56h-280v70h162v3c-75 51 -147 147 -147 278c0 191 152 335 352 335c209 0 343 -149 343 -325c0 -142 -73 -237 -148 -288zM8 674h84
l-37 -157h-55z" />
    <glyph glyph-name="alpha" unicode="&#x3b1;" horiz-adv-x="603" 
d="M458 484h77c-5 -59 -13 -224 -13 -335c0 -65 16 -91 53 -91l-6 -66c-7 -2 -23 -4 -35 -4c-46 0 -83 32 -88 110h-3c-38 -67 -102 -110 -186 -110c-126 0 -217 98 -217 245c0 154 111 263 236 263c81 0 141 -42 169 -105h4c2 42 5 68 9 93zM132 235v-1
c0 -91 53 -174 149 -174c70 0 131 64 149 128c5 20 5 36 5 64c0 16 0 31 -4 46c-15 66 -69 128 -143 128c-91 0 -156 -78 -156 -191z" />
    <glyph glyph-name="beta" unicode="&#x3b2;" horiz-adv-x="612" 
d="M168 58h-2v-68c0 -55 1 -146 13 -190h-86c-13 35 -16 110 -16 181v441c0 152 44 215 83 250c36 33 84 56 156 56c102 0 190 -65 190 -175c0 -73 -45 -134 -93 -157v-5c84 -15 159 -83 159 -193c0 -136 -113 -210 -227 -210c-78 0 -133 24 -177 70zM166 431v-284
c22 -36 78 -90 161 -90c88 0 153 59 153 141c0 100 -75 148 -173 149h-31v60c6 0 12 0 19 1c86 3 126 69 126 128c0 81 -51 121 -114 121c-91 0 -141 -73 -141 -226z" />
    <glyph glyph-name="gamma" unicode="&#x3b3;" horiz-adv-x="506" 
d="M293 -200h-91c3 75 7 175 -15 269c-38 164 -138 341 -193 415h105c49 -63 131 -230 165 -378h3c48 75 129 221 129 347v31h87c2 -9 2 -22 2 -33c0 -128 -87 -291 -189 -429c-7 -8 -6 -15 -6 -24c2 -55 2 -131 3 -198z" />
    <glyph glyph-name="delta" unicode="&#x3b4;" horiz-adv-x="598" 
d="M509 678l-28 -61c-21 17 -84 44 -144 44c-63 0 -93 -22 -93 -47c0 -28 30 -45 81 -81l89 -62c93 -64 144 -134 144 -233c0 -150 -115 -250 -259 -250c-136 0 -259 88 -259 248c0 123 91 207 201 256v4l-26 19c-24 17 -64 49 -64 96c0 56 61 117 184 117
c76 0 144 -27 174 -50zM361 406l-64 45c-81 -38 -164 -104 -164 -215c0 -113 85 -181 172 -181c85 0 162 63 162 178c0 65 -35 123 -106 173z" />
    <glyph glyph-name="epsilon" unicode="&#x3b5;" horiz-adv-x="478" 
d="M167 257v4c-69 15 -101 56 -101 103c0 64 67 132 207 132c70 0 125 -14 166 -41l-20 -60c-23 16 -84 36 -138 36c-72 0 -123 -27 -123 -73c0 -47 60 -69 142 -69h74v-64h-75c-94 0 -162 -24 -162 -80c0 -58 66 -88 142 -88c58 0 126 21 161 42l18 -60
c-41 -29 -122 -51 -198 -51c-103 0 -219 37 -219 148c0 57 48 109 126 121z" />
    <glyph glyph-name="zeta" unicode="&#x3b6;" horiz-adv-x="441" 
d="M371 -148l-58 18c10 18 30 85 31 113c-38 5 -87 13 -128 26c-99 29 -175 96 -175 230c0 136 92 298 264 406v4h-80c-50 0 -92 1 -126 10l9 60c34 -5 82 -5 129 -4h187l13 -64c-180 -85 -304 -253 -304 -398c0 -108 56 -152 136 -178c51 -19 101 -24 153 -31
c6 -1 10 -5 10 -10c0 -60 -34 -146 -61 -182z" />
    <glyph glyph-name="eta" unicode="&#x3b7;" horiz-adv-x="605" 
d="M162 398h3c25 47 87 98 176 98c66 0 188 -37 188 -219v-288c0 -54 0 -146 12 -189h-88c-13 32 -15 128 -15 189v280c0 85 -36 153 -127 153c-66 0 -115 -46 -133 -95c-4 -10 -7 -26 -7 -40v-287h-91v351c0 49 -2 97 -14 133h82c10 -20 15 -53 14 -86z" />
    <glyph glyph-name="theta" unicode="&#x3b8;" horiz-adv-x="585" 
d="M296 -12h-1c-161 0 -255 140 -255 375c0 185 82 365 259 365s247 -164 247 -365c0 -199 -70 -375 -250 -375zM131 402h324c0 139 -51 260 -162 260c-103 0 -162 -129 -162 -260zM456 336h-324c0 -178 69 -282 166 -282c106 0 158 120 158 282z" />
    <glyph glyph-name="iota" unicode="&#x3b9;" horiz-adv-x="252" 
d="M171 484v-361c0 -46 10 -65 51 -63l-5 -66c-9 -4 -27 -6 -43 -6c-56 0 -94 26 -94 125v371h91z" />
    <glyph glyph-name="kappa" unicode="&#x3ba;" horiz-adv-x="534" 
d="M266 262v-4c50 -9 108 -66 164 -133l100 -125h-108l-84 100c-58 67 -107 112 -158 113h-9v-213h-91v382c0 33 -3 86 -12 102h89c8 -11 14 -44 14 -81v-134h5c98 85 169 153 236 215h109v-4c-76 -64 -163 -142 -255 -218z" />
    <glyph glyph-name="lambda" unicode="&#x3bb;" horiz-adv-x="517" 
d="M402 0l-110 283c-14 34 -25 67 -36 102h-5c-8 -30 -23 -68 -34 -99l-113 -286h-96l192 447c6 12 7 19 7 24s-1 12 -6 25c-33 80 -71 159 -138 159c-6 0 -13 0 -19 -1l9 70c8 2 23 4 36 4c99 0 147 -93 206 -235l206 -493h-99z" />
    <glyph glyph-name="uni03BC" unicode="&#x3bc;" horiz-adv-x="604" 
d="M444 83h-4c-23 -43 -74 -94 -156 -94c-50 0 -97 19 -120 59v-56c0 -51 1 -149 12 -192h-81c-11 32 -15 111 -15 189v495h91v-275c0 -81 37 -146 124 -146c62 0 110 41 131 86c5 13 9 29 9 46v289h91v-341c0 -60 12 -81 51 -84l-7 -66c-12 -3 -16 -5 -32 -5
c-47 0 -87 27 -94 95z" />
    <glyph glyph-name="nu" unicode="&#x3bd;" horiz-adv-x="514" 
d="M3 484h98l105 -271c20 -48 33 -88 49 -129h3c45 77 142 235 142 351c0 19 0 34 -1 49h86c2 -11 4 -24 4 -37c0 -144 -102 -299 -200 -447h-88z" />
    <glyph glyph-name="xi" unicode="&#x3be;" horiz-adv-x="468" 
d="M389 442v-64h-30c-157 0 -223 -72 -223 -154c0 -81 56 -128 170 -155c54 -14 106 -20 145 -24c6 0 10 -5 10 -11c0 -52 -32 -146 -60 -181l-59 18c10 17 30 85 31 112c-139 17 -333 53 -333 234c0 97 76 175 166 197v4c-79 23 -117 74 -117 141c0 79 69 169 223 169
c59 0 106 -12 136 -29l-20 -62c-22 13 -64 26 -110 26c-90 0 -138 -51 -138 -112c0 -69 65 -106 150 -109h59z" />
    <glyph glyph-name="omicron" unicode="&#x3bf;" horiz-adv-x="604" 
d="M298 -12h-1c-146 0 -258 101 -258 249c0 158 116 259 266 259c157 0 259 -107 259 -248c0 -177 -137 -260 -266 -260zM299 55h1c91 0 170 68 170 189c0 85 -50 185 -167 185c-115 0 -170 -91 -170 -188c0 -116 76 -186 166 -186z" />
    <glyph glyph-name="pi" unicode="&#x3c0;" horiz-adv-x="606" 
d="M567 414h-73v-261c0 -86 7 -127 14 -153h-89c-9 15 -16 58 -16 142v272h-178c-6 -127 -38 -340 -74 -414h-88c37 93 70 286 74 414c-41 0 -81 -2 -111 -10l-12 54c26 16 66 26 147 26h417z" />
    <glyph glyph-name="rho" unicode="&#x3c1;" horiz-adv-x="619" 
d="M168 66h-3v-77c0 -54 0 -146 8 -189h-88c-9 32 -11 111 -11 189v199c0 129 35 187 76 229c40 43 101 79 187 79c147 0 242 -104 242 -245c0 -169 -117 -263 -244 -263c-70 0 -134 26 -167 78zM165 219v-22c0 -12 1 -22 4 -33c16 -54 76 -106 152 -106
c102 0 166 76 166 189c0 96 -59 175 -159 175c-79 0 -163 -63 -163 -203z" />
    <glyph glyph-name="sigma" unicode="&#x3c3;" horiz-adv-x="611" 
d="M455 431l-1 -4c62 -38 100 -105 100 -181c0 -175 -133 -258 -257 -258c-146 0 -258 100 -258 248c0 158 111 260 278 260h111h59c33 0 96 -1 113 1l-4 -69c-25 0 -58 0 -141 3zM298 55h1c85 0 165 70 165 191c0 85 -51 183 -164 183c-112 0 -167 -91 -167 -188
c0 -116 76 -186 165 -186z" />
    <glyph glyph-name="tau" unicode="&#x3c4;" horiz-adv-x="450" 
d="M346 62l-4 -64c-10 -6 -33 -10 -52 -10c-79 0 -118 42 -118 154v272h-56c-59 0 -88 -3 -112 -7l-12 51c19 13 57 26 146 26h301l-11 -70h-165v-268c0 -69 27 -85 61 -85c9 0 16 1 22 1z" />
    <glyph glyph-name="upsilon" unicode="&#x3c5;" horiz-adv-x="573" 
d="M400 484h86c16 -29 38 -107 38 -187c0 -139 -51 -309 -241 -309c-116 0 -210 66 -210 211v121c0 91 -3 138 -11 164h86c10 -9 16 -33 16 -88v-184c0 -109 66 -149 126 -149c92 0 144 86 144 228c0 90 -24 172 -34 193z" />
    <glyph glyph-name="phi" unicode="&#x3c6;" horiz-adv-x="693" 
d="M225 502l31 -53c-55 -28 -125 -92 -125 -201c0 -98 58 -178 175 -194v290c0 107 62 153 134 152c102 -2 212 -93 212 -240c0 -167 -128 -256 -262 -268v-188h-84v188c-136 8 -266 89 -266 259c0 142 110 228 185 255zM390 358v-305c103 14 175 83 175 202
c0 94 -63 176 -128 176c-28 0 -47 -25 -47 -73z" />
    <glyph glyph-name="chi" unicode="&#x3c7;" horiz-adv-x="497" 
d="M20 484h99l137 -262h4c16 30 34 65 58 110l79 152h90l-187 -326l195 -350l-86 -24l-161 299l-4 -1c-14 -26 -30 -58 -50 -96l-104 -202l-77 25l190 346z" />
    <glyph glyph-name="psi" unicode="&#x3c8;" horiz-adv-x="711" 
d="M324 -200v188c-140 7 -249 71 -249 260v125c0 44 -2 87 -9 111h84c9 -10 14 -37 14 -88v-143c0 -145 77 -195 160 -199v566h84v-566c93 3 166 87 166 230c0 102 -26 181 -41 200h87c21 -31 42 -101 42 -195c0 -133 -66 -292 -254 -301v-188h-84z" />
    <glyph glyph-name="omega" unicode="&#x3c9;" horiz-adv-x="752" 
d="M419 373l-3 -190c0 -73 41 -119 94 -119c55 0 113 65 113 199c0 91 -34 183 -84 227v2h87c46 -37 86 -122 86 -232c0 -188 -102 -272 -197 -272c-65 0 -118 33 -141 90h-3c-27 -56 -76 -90 -140 -90c-89 0 -191 75 -191 264c0 104 42 195 88 240h85v-2
c-48 -49 -84 -139 -84 -237c0 -139 66 -189 115 -189c48 0 90 48 89 117l-2 192h88z" />
    <glyph glyph-name="alphatonos" unicode="&#x3ac;" horiz-adv-x="603" 
d="M312 690h95l-93 -146h-63zM458 484h77c-5 -59 -13 -224 -13 -335c0 -65 16 -91 53 -91l-6 -66c-7 -2 -23 -4 -35 -4c-46 0 -83 32 -88 110h-3c-38 -67 -102 -110 -186 -110c-126 0 -217 98 -217 245c0 154 111 263 236 263c81 0 141 -42 169 -105h4c2 42 5 68 9 93z
M132 235v-1c0 -91 53 -174 149 -174c70 0 131 64 149 128c5 20 5 36 5 64c0 16 0 31 -4 46c-15 66 -69 128 -143 128c-91 0 -156 -78 -156 -191z" />
    <glyph glyph-name="epsilontonos" unicode="&#x3ad;" horiz-adv-x="478" 
d="M279 690h95l-93 -146h-63zM167 257v4c-69 15 -101 56 -101 103c0 64 67 132 207 132c70 0 125 -14 166 -42l-20 -59c-23 16 -84 36 -138 36c-72 0 -123 -27 -123 -73c0 -47 60 -69 142 -69h74v-64h-75c-94 0 -162 -24 -162 -80c0 -58 66 -88 142 -88c58 0 126 21 161 42
l18 -60c-41 -29 -122 -51 -198 -51c-103 0 -219 37 -219 148c0 57 48 109 126 121z" />
    <glyph glyph-name="etatonos" unicode="&#x3ae;" horiz-adv-x="605" 
d="M333 690h95l-93 -146h-63zM162 398h3c25 47 87 98 176 98c66 0 188 -37 188 -219v-288c0 -54 0 -146 12 -189h-88c-13 32 -15 128 -15 189v280c0 85 -36 153 -127 153c-66 0 -115 -46 -133 -95c-4 -10 -7 -26 -7 -40v-287h-91v351c0 49 -2 97 -14 133h82
c10 -20 15 -53 14 -86z" />
    <glyph glyph-name="iotatonos" unicode="&#x3af;" horiz-adv-x="252" 
d="M145 690h96l-93 -146h-63zM171 484v-361c0 -46 10 -65 51 -63l-5 -66c-9 -4 -27 -6 -43 -6c-56 0 -94 26 -94 125v371h91z" />
    <glyph glyph-name="iotadieresis" unicode="&#x3ca;" horiz-adv-x="252" 
d="M32 557h-1c-30 0 -50 25 -50 52c0 28 22 52 52 52c28 0 50 -23 50 -52c0 -27 -21 -52 -51 -52zM225 557h-1c-29 0 -49 25 -49 52c0 28 22 52 51 52s50 -23 50 -52c0 -27 -20 -52 -51 -52zM171 484v-361c0 -46 10 -65 51 -63l-5 -66c-9 -4 -27 -6 -43 -6
c-56 0 -94 26 -94 125v371h91z" />
    <glyph glyph-name="omicrontonos" unicode="&#x3cc;" horiz-adv-x="604" 
d="M320 690h96l-93 -146h-63zM298 -12h-1c-146 0 -258 101 -258 249c0 158 116 259 266 259c157 0 259 -107 259 -248c0 -177 -137 -260 -266 -260zM299 55h1c91 0 170 68 170 189c0 85 -50 185 -167 185c-115 0 -170 -91 -170 -188c0 -116 76 -186 166 -186z" />
    <glyph glyph-name="upsilontonos" unicode="&#x3cd;" horiz-adv-x="573" 
d="M300 690h95l-92 -146h-63zM400 484h86c16 -29 38 -107 38 -187c0 -139 -51 -309 -241 -309c-116 0 -210 66 -210 211v121c0 91 -3 138 -11 164h86c10 -9 16 -33 16 -88v-184c0 -109 66 -149 126 -149c92 0 144 86 144 228c0 90 -24 172 -34 193z" />
    <glyph glyph-name="upsilondieresis" unicode="&#x3cb;" horiz-adv-x="573" 
d="M186 557h-1c-30 0 -51 25 -51 52c0 28 23 52 53 52c28 0 49 -23 49 -52c0 -27 -20 -52 -50 -52zM378 557h-1c-29 0 -49 25 -49 52c0 28 22 52 51 52s50 -23 50 -52c0 -27 -20 -52 -51 -52zM400 484h86c16 -29 38 -107 38 -187c0 -139 -51 -309 -241 -309
c-116 0 -210 66 -210 211v121c0 91 -3 138 -11 164h86c10 -9 16 -33 16 -88v-184c0 -109 66 -149 126 -149c92 0 144 86 144 228c0 90 -24 172 -34 193z" />
    <glyph glyph-name="omegatonos" unicode="&#x3ce;" horiz-adv-x="752" 
d="M390 690h96l-93 -146h-63zM419 373l-3 -190c0 -73 41 -119 94 -119c55 0 113 65 113 199c0 91 -34 183 -84 227v2h87c46 -37 86 -122 86 -232c0 -188 -102 -272 -197 -272c-65 0 -118 33 -141 90h-3c-27 -56 -76 -90 -140 -90c-89 0 -191 75 -191 264
c0 104 42 195 88 240h85v-2c-48 -49 -84 -139 -84 -237c0 -139 66 -189 115 -189c48 0 90 48 89 117l-2 192h88z" />
    <glyph glyph-name="iotadieresistonos" unicode="&#x390;" horiz-adv-x="252" 
d="M171 484v-361c0 -46 10 -65 51 -63l-5 -66c-9 -4 -27 -6 -43 -6c-56 0 -94 26 -94 125v371h91zM115 700h79l-54 -160h-49zM5 560h-1c-27 0 -46 23 -46 48c0 27 21 49 48 49c26 0 46 -21 46 -49c0 -25 -18 -48 -47 -48zM262 560h-1c-28 0 -46 23 -46 48c0 27 20 49 47 49
s47 -21 47 -49c0 -25 -18 -48 -47 -48z" />
    <glyph glyph-name="upsilondieresistonos" unicode="&#x3b0;" horiz-adv-x="573" 
d="M400 484h86c16 -29 38 -107 38 -187c0 -139 -51 -309 -241 -309c-116 0 -210 66 -210 211v121c0 91 -3 138 -11 164h86c10 -9 16 -33 16 -88v-184c0 -109 66 -149 126 -149c92 0 144 86 144 228c0 90 -24 172 -34 193zM268 700h79l-54 -160h-49zM159 560h-1
c-27 0 -46 23 -46 48c0 27 21 49 48 49c26 0 46 -21 46 -49c0 -25 -18 -48 -47 -48zM415 560h-1c-28 0 -46 23 -46 48c0 27 20 49 47 49s47 -21 47 -49c0 -25 -18 -48 -47 -48z" />
    <glyph glyph-name="uni03C2" unicode="&#x3c2;" horiz-adv-x="454" 
d="M446 471l-22 -65c-28 12 -58 21 -104 21c-111 0 -187 -82 -187 -185c0 -100 60 -147 152 -171c56 -15 95 -20 144 -26c7 -1 10 -5 10 -16c0 -55 -33 -145 -57 -177l-61 18c10 18 30 86 32 112c-36 4 -75 11 -108 19c-114 27 -205 97 -205 234c0 126 98 261 280 261
c50 0 96 -9 126 -25z" />
    <glyph glyph-name="uni037E" unicode="&#x37e;" horiz-adv-x="222" 
d="M94 -116l-65 -7c18 61 40 167 46 239l101 5c-17 -79 -58 -190 -82 -237zM121 320h-1c-38 0 -64 31 -64 68c0 40 27 69 66 69s65 -29 65 -69c0 -37 -26 -68 -66 -68z" />
    <glyph glyph-name="anoteleia" unicode="&#x387;" horiz-adv-x="222" 
d="M111 250h-1c-39 0 -67 31 -66 69c0 41 28 70 67 70c40 0 67 -29 67 -70c0 -38 -27 -69 -67 -69z" />
    <glyph glyph-name="afii10017" unicode="&#x410;" horiz-adv-x="671" 
d="M469 215h-269l-78 -215h-95l254 674h111l257 -674h-99zM220 285h229l-77 202c-16 43 -27 78 -38 113h-2c-10 -36 -20 -71 -35 -112z" />
    <glyph glyph-name="afii10018" unicode="&#x411;" horiz-adv-x="588" 
d="M81 674h409v-74h-318v-175c22 3 70 5 94 5c65 0 132 -13 183 -42c57 -32 96 -87 96 -171c0 -64 -23 -112 -58 -147c-61 -57 -162 -77 -258 -77c-65 0 -116 5 -148 8v673zM172 356v-289c22 -3 49 -5 84 -5c57 0 118 17 155 54c24 23 39 56 39 99c0 56 -24 92 -62 114
c-37 24 -87 32 -137 32c-22 0 -54 -2 -79 -5z" />
    <glyph glyph-name="afii10019" unicode="&#x412;" horiz-adv-x="585" 
d="M81 1v664c41 8 109 15 175 15c96 0 153 -15 197 -49c36 -27 60 -67 60 -121c0 -64 -45 -123 -118 -147v-3c59 -14 144 -63 144 -169c0 -58 -25 -103 -61 -135c-49 -43 -129 -63 -250 -63c-64 0 -115 5 -147 8zM172 604v-215h94c101 0 155 48 155 112
c0 84 -69 110 -159 110c-48 0 -74 -3 -90 -7zM172 321v-254c20 -4 48 -5 84 -5c94 0 187 29 187 131c0 92 -84 128 -186 128h-85z" />
    <glyph glyph-name="afii10020" unicode="&#x413;" horiz-adv-x="465" 
d="M81 674h390v-74h-299v-600h-91v674z" />
    <glyph glyph-name="afii10050" unicode="&#x490;" horiz-adv-x="484" 
d="M81 674h322l17 126h67l-11 -200h-304v-600h-91v674z" />
    <glyph glyph-name="afii10021" unicode="&#x414;" horiz-adv-x="682" 
d="M170 674h412v-602l64 -2l-6 -240h-71l-7 170h-467l-6 -170h-71l-6 240l53 2c24 41 52 86 69 137c26 75 36 166 36 287v178zM255 600v-135c0 -114 -12 -204 -39 -278c-16 -43 -39 -84 -58 -114h333v527h-236z" />
    <glyph glyph-name="afii10022" unicode="&#x415;" horiz-adv-x="537" 
d="M464 389v-74h-292v-241h326v-74h-417v674h400v-74h-309v-211h292z" />
    <glyph glyph-name="afii10024" unicode="&#x416;" horiz-adv-x="872" 
d="M24 674h107l230 -297h31v297h89v-297h31l230 297h107l-261 -309c112 -9 159 -70 198 -171c26 -64 44 -131 74 -194h-93c-26 47 -42 106 -61 157c-37 96 -74 151 -189 151h-36v-308h-89v308h-37c-115 0 -152 -55 -190 -151c-18 -51 -36 -110 -59 -157h-94
c31 63 50 130 75 192c39 101 86 161 197 173z" />
    <glyph glyph-name="afii10025" unicode="&#x417;" horiz-adv-x="529" 
d="M83 567l-26 65c52 32 114 54 192 54c120 0 209 -59 209 -166c0 -86 -64 -149 -146 -166v-2c98 -9 173 -68 173 -167c0 -146 -134 -197 -258 -197c-66 0 -134 13 -192 47l25 70c39 -22 107 -44 166 -44c105 0 163 54 163 128c0 104 -107 127 -193 127h-46v68h47
c96 0 166 55 166 123c0 70 -52 106 -126 106c-57 0 -114 -22 -154 -46z" />
    <glyph glyph-name="afii10026" unicode="&#x418;" horiz-adv-x="722" 
d="M81 674h86v-298c0 -103 -1 -192 -7 -278l2 -1c38 70 82 137 137 219l250 358h92v-674h-86v305c0 97 1 175 8 259l-3 1c-36 -70 -87 -149 -140 -226l-239 -339h-100v674z" />
    <glyph glyph-name="afii10027" unicode="&#x419;" horiz-adv-x="722" 
d="M81 674h86v-298c0 -103 -1 -192 -7 -278l2 -1c38 70 82 137 137 219l250 358h92v-674h-86v305c0 97 1 175 8 259l-3 1c-36 -70 -87 -149 -140 -226l-239 -339h-100v674zM228 822h71c4 -32 13 -64 62 -64s59 30 63 64h70c-3 -67 -45 -111 -136 -111
c-88 0 -125 45 -130 111z" />
    <glyph glyph-name="afii10028" unicode="&#x41a;" horiz-adv-x="592" 
d="M81 674h91v-297h31l260 297h111l-284 -307c120 -14 169 -81 209 -174c30 -72 52 -133 84 -193h-99c-27 47 -48 104 -68 156c-37 92 -86 152 -211 152h-33v-308h-91v674z" />
    <glyph glyph-name="afii10029" unicode="&#x41b;" horiz-adv-x="649" 
d="M136 674h432v-674h-91v600h-250v-196c0 -137 -7 -309 -108 -376c-27 -18 -73 -36 -117 -36l-9 72c31 5 64 24 82 42c58 58 61 204 61 292v276z" />
    <glyph glyph-name="afii10030" unicode="&#x41c;" horiz-adv-x="872" 
d="M720 0l-17 298c-5 95 -12 214 -12 299h-2c-26 -79 -58 -166 -96 -262l-130 -331h-72l-120 327c-35 98 -63 186 -84 266h-2c-4 -85 -8 -204 -15 -306l-20 -291h-87l49 674h121l126 -333c30 -80 54 -157 73 -225h2c19 65 46 143 79 226l134 332h120l43 -674h-90z" />
    <glyph glyph-name="afii10031" unicode="&#x41d;" horiz-adv-x="715" 
d="M81 674h91v-280h371v280h91v-674h-91v317h-371v-317h-91v674z" />
    <glyph glyph-name="afii10032" unicode="&#x41e;" horiz-adv-x="770" 
d="M380 -12h-1c-201 0 -341 145 -341 341c0 210 149 357 350 357c207 0 343 -146 343 -342c0 -224 -159 -356 -351 -356zM383 60h1c155 0 251 120 251 280c0 137 -86 274 -249 274c-165 0 -252 -131 -252 -282c0 -146 95 -272 249 -272z" />
    <glyph glyph-name="afii10033" unicode="&#x41f;" horiz-adv-x="699" 
d="M81 674h537v-674h-91v600h-355v-600h-91v674z" />
    <glyph glyph-name="afii10034" unicode="&#x420;" horiz-adv-x="576" 
d="M81 0v666c46 8 107 14 186 14c93 0 160 -22 202 -58c38 -33 63 -81 63 -142s-19 -111 -56 -147c-50 -48 -128 -73 -222 -73c-31 0 -59 1 -82 8v-268h-91zM172 602v-261c23 -7 52 -9 86 -9c115 0 183 52 183 144c0 95 -75 133 -174 133c-45 0 -78 -4 -95 -7z" />
    <glyph glyph-name="afii10035" unicode="&#x421;" horiz-adv-x="648" 
d="M592 96l19 -71c-35 -17 -109 -37 -205 -37c-209 0 -368 125 -368 344c0 193 147 354 390 354c97 0 159 -21 185 -34l-23 -72c-38 18 -95 32 -158 32c-187 0 -298 -111 -298 -279c0 -151 101 -269 291 -269c62 0 125 12 167 32z" />
    <glyph glyph-name="afii10036" unicode="&#x422;" horiz-adv-x="544" 
d="M226 0v600h-233v74h558v-74h-234v-600h-91z" />
    <glyph glyph-name="afii10037" unicode="&#x423;" horiz-adv-x="572" 
d="M1 674h105l151 -293c19 -39 37 -79 55 -120h2c14 35 28 73 47 122l121 291h96l-161 -363c-42 -96 -89 -192 -137 -246s-98 -78 -161 -78c-25 0 -42 3 -53 7l10 73c8 -2 19 -3 36 -3c75 1 117 64 141 112c9 16 6 25 -3 41z" />
    <glyph glyph-name="afii10038" unicode="&#x424;" horiz-adv-x="798" 
d="M356 704h88v-63c155 -5 316 -88 316 -305c0 -207 -158 -292 -318 -301v-65h-88v65c-156 8 -316 88 -316 297c0 223 175 302 318 309v63zM355 100v477c-99 -4 -223 -64 -223 -240c0 -160 110 -228 223 -237zM443 577v-477c107 6 223 71 223 236c0 174 -111 236 -223 241z
" />
    <glyph glyph-name="afii10039" unicode="&#x425;" horiz-adv-x="631" 
d="M602 0h-108l-95 145c-42 63 -67 101 -89 138h-2c-20 -38 -42 -73 -84 -139l-88 -144h-108l229 341l-220 333h108l99 -159c29 -47 50 -82 70 -116h2c21 37 41 69 70 115l103 160h109l-230 -329z" />
    <glyph glyph-name="afii10040" unicode="&#x426;" horiz-adv-x="713" 
d="M81 674h91v-600h351v600h91v-602l64 -2l-6 -240h-72l-6 170h-513v674z" />
    <glyph glyph-name="afii10041" unicode="&#x427;" horiz-adv-x="651" 
d="M76 674h91v-211c0 -102 57 -154 160 -154c54 0 112 19 152 44v321h91v-678h-91v287h-2c-52 -32 -115 -48 -182 -48c-90 0 -219 33 -219 215v224z" />
    <glyph glyph-name="afii10042" unicode="&#x428;" horiz-adv-x="919" 
d="M81 674h90v-600h244v600h90v-600h243v600h90v-674h-757v674z" />
    <glyph glyph-name="afii10043" unicode="&#x429;" horiz-adv-x="938" 
d="M81 674h90v-600h244v600h90v-600h243v600h90v-602l64 -2l-6 -240h-72l-6 170h-737v674z" />
    <glyph glyph-name="afii10044" unicode="&#x42a;" horiz-adv-x="671" 
d="M-8 674h275v-246c21 3 61 5 90 5c133 0 270 -58 270 -214c0 -64 -21 -110 -53 -144c-61 -63 -159 -82 -253 -82c-61 0 -113 5 -145 8v599h-184v74zM267 357v-290c21 -3 46 -5 79 -5c100 0 186 45 186 153c0 113 -95 147 -185 147c-26 0 -56 -2 -80 -5z" />
    <glyph glyph-name="afii10045" unicode="&#x42b;" horiz-adv-x="800" 
d="M81 674h91v-247c21 4 67 6 91 6c144 0 279 -56 279 -215c0 -63 -21 -109 -53 -143c-61 -63 -165 -82 -260 -82c-64 0 -116 5 -148 8v673zM172 357v-290c20 -3 46 -5 81 -5c100 0 194 44 194 154c0 112 -102 146 -196 146c-38 0 -68 -3 -79 -5zM622 674h91v-674h-91v674z
" />
    <glyph glyph-name="afii10046" unicode="&#x42c;" horiz-adv-x="588" 
d="M81 674h91v-247c22 4 70 6 94 6c142 0 279 -56 279 -214c0 -63 -21 -110 -53 -144c-61 -63 -165 -82 -263 -82c-64 0 -116 5 -148 8v673zM172 357v-290c22 -3 48 -5 83 -5c101 0 195 41 195 153c0 113 -96 147 -196 147c-25 0 -57 -2 -82 -5z" />
    <glyph glyph-name="afii10047" unicode="&#x42d;" horiz-adv-x="628" 
d="M141 309v70h350c-15 144 -111 234 -257 234c-64 0 -118 -17 -169 -39l-21 68c56 24 122 44 195 44c220 0 351 -141 351 -351c0 -237 -171 -347 -354 -347c-75 0 -144 14 -201 38l19 72c46 -21 113 -36 168 -36c155 0 263 93 270 247h-351z" />
    <glyph glyph-name="afii10048" unicode="&#x42e;" horiz-adv-x="954" 
d="M81 674h91v-291h109c20 184 141 303 319 303c198 0 317 -146 317 -341c0 -228 -145 -357 -324 -357c-184 0 -307 130 -315 320h-106v-308h-91v674zM595 59h1c142 0 228 121 228 282c0 136 -75 274 -226 274c-152 0 -230 -132 -230 -283c0 -146 86 -273 227 -273z" />
    <glyph glyph-name="afii10049" unicode="&#x42f;" horiz-adv-x="589" 
d="M114 0h-98c11 17 21 37 29 58c33 80 56 172 114 228c17 16 37 28 59 35v3c-90 11 -161 75 -161 166c0 58 23 103 60 134c45 36 118 56 212 56c64 0 131 -6 179 -15v-665h-91v291h-77c-45 0 -77 -10 -102 -34c-50 -48 -74 -146 -101 -211c-7 -16 -13 -29 -23 -46zM417 361
v241c-16 4 -50 9 -97 9c-87 0 -172 -25 -172 -125c0 -81 77 -126 180 -127c35 0 70 0 89 2z" />
    <glyph glyph-name="afii10023" unicode="&#x401;" horiz-adv-x="537" 
d="M464 389v-74h-292v-241h326v-74h-417v674h400v-74h-309v-211h292zM181 720h-1c-30 0 -50 25 -50 52c0 28 22 52 52 52c28 0 49 -23 49 -52c0 -27 -20 -52 -50 -52zM374 720h-1c-29 0 -49 25 -49 52c0 28 22 52 51 52s50 -23 50 -52c0 -27 -20 -52 -51 -52z" />
    <glyph glyph-name="afii10051" unicode="&#x402;" horiz-adv-x="724" 
d="M-6 674h571v-74h-272v-192h3c36 23 94 46 154 46c79 0 133 -31 173 -80c40 -50 58 -120 58 -192c0 -111 -40 -202 -105 -251c-44 -46 -100 -67 -149 -73l-14 69c41 10 89 30 121 70c32 39 52 99 52 173c0 60 -13 113 -38 148c-29 39 -66 62 -122 62
c-52 0 -99 -20 -133 -46v-334h-91v600h-208v74z" />
    <glyph glyph-name="afii10052" unicode="&#x403;" horiz-adv-x="465" 
d="M81 674h390v-74h-299v-600h-91v674zM304 830h111l-128 -120h-75z" />
    <glyph glyph-name="afii10053" unicode="&#x404;" horiz-adv-x="640" 
d="M606 650l-22 -69c-38 18 -93 32 -156 32c-162 0 -273 -90 -291 -234h393v-70h-393c5 -150 123 -247 288 -247c58 0 113 11 160 31l16 -68c-36 -19 -104 -37 -196 -37c-200 0 -367 119 -367 347c0 202 156 351 386 351c101 0 157 -22 182 -36z" />
    <glyph glyph-name="afii10054" unicode="&#x405;" horiz-adv-x="537" 
d="M46 36l25 75c44 -28 106 -49 175 -49c95 0 151 47 151 115c0 63 -37 99 -140 131c-130 40 -196 97 -196 193c0 107 93 185 232 185c78 0 133 -17 167 -36l-26 -72c-23 13 -74 35 -143 35c-102 0 -138 -57 -138 -102c0 -62 43 -94 146 -127c125 -41 190 -93 190 -200
c0 -100 -74 -196 -252 -196c-71 0 -150 21 -191 48z" />
    <glyph glyph-name="afii10055" unicode="&#x406;" horiz-adv-x="253" 
d="M81 674h91v-674h-91v674z" />
    <glyph glyph-name="afii10056" unicode="&#x407;" horiz-adv-x="253" 
d="M81 674h91v-674h-91v674zM31 720h-1c-30 0 -50 25 -50 52c0 28 22 52 52 52c28 0 49 -23 49 -52c0 -27 -20 -52 -50 -52zM224 720h-1c-29 0 -49 25 -49 52c0 28 22 52 51 52s50 -23 50 -52c0 -27 -20 -52 -51 -52z" />
    <glyph glyph-name="afii10057" unicode="&#x408;" horiz-adv-x="405" 
d="M240 244v430h91v-439c0 -189 -97 -247 -219 -247c-37 0 -83 9 -108 19l15 73c21 -9 51 -16 86 -16c85 0 135 40 135 180z" />
    <glyph glyph-name="afii10058" unicode="&#x409;" horiz-adv-x="963" 
d="M139 674h411v-249c22 3 69 5 93 5c138 0 277 -55 277 -212c0 -65 -23 -113 -59 -147c-60 -59 -158 -78 -255 -78c-65 0 -115 5 -147 8v599h-231v-196c0 -137 -7 -308 -107 -376c-27 -17 -73 -36 -115 -36l-12 72c33 5 66 24 84 42c59 58 61 204 61 292v276zM550 356v-289
c23 -3 47 -4 81 -4c99 0 195 44 195 152c0 113 -97 146 -196 146c-24 0 -55 -2 -80 -5z" />
    <glyph glyph-name="afii10059" unicode="&#x40a;" horiz-adv-x="973" 
d="M81 674h91v-265h297v265h91v-260c23 3 65 5 107 5c134 0 263 -55 263 -203c0 -67 -23 -114 -59 -148c-60 -58 -152 -75 -253 -75c-66 0 -117 5 -149 8v332h-297v-333h-91v674zM560 345v-278c23 -3 48 -5 81 -5c99 0 195 39 195 151c0 104 -93 137 -189 137
c-38 0 -66 -2 -87 -5z" />
    <glyph glyph-name="afii10060" unicode="&#x40b;" horiz-adv-x="733" 
d="M-7 674h561v-74h-264v-189h3c41 24 106 49 168 49s104 -18 135 -48c40 -38 59 -94 59 -166v-246h-91v233c0 53 -11 91 -36 118c-24 23 -53 35 -95 35c-47 0 -106 -20 -143 -47v-339h-91v600h-206v74z" />
    <glyph glyph-name="afii10061" unicode="&#x40c;" horiz-adv-x="592" 
d="M81 674h91v-297h31l260 297h111l-284 -307c120 -14 169 -81 209 -174c30 -72 52 -133 84 -193h-99c-27 47 -48 104 -68 156c-37 92 -86 152 -211 152h-33v-308h-91v674zM343 825h111l-128 -120h-75z" />
    <glyph glyph-name="afii10062" unicode="&#x40e;" horiz-adv-x="572" 
d="M1 674h105l151 -293c19 -39 37 -79 55 -120h2c14 35 28 73 47 122l121 291h96l-161 -363c-42 -96 -89 -192 -137 -246s-98 -78 -161 -78c-25 0 -42 3 -53 7l10 73c8 -2 19 -3 36 -3c75 1 117 64 141 112c9 16 6 25 -3 41zM153 825h71c4 -32 13 -64 62 -64s59 30 63 64h70
c-3 -67 -45 -111 -136 -111c-88 0 -125 45 -130 111z" />
    <glyph glyph-name="afii10145" unicode="&#x40f;" horiz-adv-x="694" 
d="M81 674h91v-600h352v600h91v-674h-221l-8 -185h-76l-8 185h-221v674z" />
    <glyph glyph-name="afii10065" unicode="&#x430;" horiz-adv-x="522" 
d="M448 289v-171c0 -43 2 -84 8 -118h-83l-8 64h-3c-28 -37 -87 -76 -165 -76c-109 0 -159 74 -159 139c0 116 106 184 319 182v9c0 30 -9 113 -121 112c-50 0 -104 -15 -141 -40l-22 60c47 30 110 46 176 46c165 0 199 -114 199 -207zM359 167v79
c-114 3 -228 -17 -228 -107c0 -56 40 -84 90 -84c73 0 117 45 133 84c4 9 5 19 5 28z" />
    <glyph glyph-name="afii10066" unicode="&#x431;" horiz-adv-x="574" 
d="M483 727l-4 -74c-26 -10 -73 -18 -105 -22c-87 -12 -154 -38 -197 -94c-36 -45 -56 -116 -61 -171h3c37 80 113 118 188 118c133 0 228 -90 228 -240c0 -154 -88 -256 -246 -256c-182 0 -248 161 -248 334c0 109 27 197 84 265c53 69 128 98 233 114c42 6 89 14 125 26z
M442 238v1c0 80 -37 180 -153 180c-57 0 -99 -29 -123 -71c-17 -27 -27 -60 -27 -102c0 -89 50 -192 152 -192c108 0 151 87 151 184z" />
    <glyph glyph-name="afii10067" unicode="&#x432;" horiz-adv-x="535" 
d="M76 0v478c36 5 107 11 169 11c82 0 227 -11 227 -122c0 -61 -48 -97 -102 -108v-2c71 -9 125 -47 125 -119c0 -131 -175 -143 -270 -143c-57 0 -120 4 -149 5zM164 422v-141h76c71 0 141 16 141 75c0 45 -41 70 -139 70c-36 0 -55 -3 -78 -4zM163 223v-163
c30 -2 49 -3 81 -3c59 0 157 11 157 83c0 71 -73 83 -163 83h-75z" />
    <glyph glyph-name="afii10068" unicode="&#x433;" horiz-adv-x="416" 
d="M76 484h322v-72h-231v-412h-91v484z" />
    <glyph glyph-name="afii10098" unicode="&#x491;" horiz-adv-x="426" 
d="M76 484h252l12 113h65l-6 -185h-232v-412h-91v484z" />
    <glyph glyph-name="afii10069" unicode="&#x434;" horiz-adv-x="568" 
d="M132 484h348v-416l53 -1l-6 -229h-71l-4 162h-363l-4 -162h-72l-4 228l44 2c21 31 38 63 49 97c21 63 30 129 30 198v121zM212 415v-82c0 -64 -10 -124 -26 -176c-10 -33 -25 -61 -39 -88h244v346h-179z" />
    <glyph glyph-name="afii10070" unicode="&#x435;" horiz-adv-x="547" 
d="M504 223h-377c2 -109 83 -164 183 -164c73 0 115 12 152 27l16 -65c-32 -13 -90 -33 -180 -33c-160 0 -259 100 -259 245c0 143 93 263 250 263c177 0 219 -150 219 -233c0 -18 -1 -31 -4 -40zM128 288h292c1 42 -18 144 -138 144c-103 0 -146 -84 -154 -144z" />
    <glyph glyph-name="afii10072" unicode="&#x436;" horiz-adv-x="711" 
d="M14 484h106l174 -210h18v210h88v-210h17l175 210h105l-206 -219c77 -6 124 -46 157 -127c20 -46 36 -97 58 -138h-92c-18 31 -32 71 -49 113c-32 77 -80 99 -148 99h-17v-212h-88v212h-18c-68 0 -117 -21 -150 -99c-17 -43 -32 -82 -49 -113h-90c23 41 39 92 58 138
c35 82 81 121 158 127z" />
    <glyph glyph-name="afii10073" unicode="&#x437;" horiz-adv-x="463" 
d="M123 221v61h47c83 0 132 35 132 77s-41 71 -100 71c-42 0 -90 -15 -127 -38l-23 56c53 32 113 47 173 47c73 0 175 -29 175 -129c0 -60 -60 -99 -113 -109v-2c73 -6 136 -49 136 -121c0 -107 -113 -145 -219 -145c-62 0 -125 17 -171 43l25 61c39 -22 90 -36 140 -37
c76 0 123 34 123 83c0 66 -71 82 -150 82h-48z" />
    <glyph glyph-name="afii10074" unicode="&#x438;" horiz-adv-x="604" 
d="M76 484h88v-217c0 -74 -2 -114 -5 -181l3 -1c32 56 45 79 80 135l175 264h110v-484h-88v221c0 70 2 106 6 185h-3c-36 -63 -57 -97 -88 -145c-56 -86 -112 -174 -169 -261h-109v484z" />
    <glyph glyph-name="afii10075" unicode="&#x439;" horiz-adv-x="604" 
d="M76 484h88v-217c0 -74 -2 -114 -5 -181l3 -1c32 56 45 79 80 135l175 264h110v-484h-88v221c0 70 2 106 6 185h-3c-36 -63 -57 -97 -88 -145c-56 -86 -112 -174 -169 -261h-109v484zM167 685h67c2 -43 24 -79 66 -79c45 0 66 35 70 79h67c-3 -82 -58 -128 -139 -128
c-96 0 -128 63 -131 128z" />
    <glyph glyph-name="afii10076" unicode="&#x43a;" horiz-adv-x="517" 
d="M80 484h91v-210h24l200 210h114l-231 -219c82 -7 134 -56 179 -150c13 -29 31 -76 55 -115h-96c-13 18 -32 56 -49 95c-38 82 -88 117 -176 117h-20v-212h-91v484z" />
    <glyph glyph-name="afii10077" unicode="&#x43b;" horiz-adv-x="548" 
d="M109 484h363v-484h-91v413h-186v-113c0 -136 -14 -226 -74 -269c-27 -24 -57 -37 -111 -37l-7 72c16 3 37 9 50 19c50 34 56 102 56 216v183z" />
    <glyph glyph-name="afii10078" unicode="&#x43c;" horiz-adv-x="673" 
d="M43 0l38 484h113l96 -254c11 -29 34 -95 44 -126h2c9 28 42 118 63 170l83 210h114l34 -484h-87l-12 239c-2 48 -7 114 -9 163h-3c-14 -42 -26 -72 -56 -147l-102 -252h-65l-94 248c-14 38 -36 109 -49 149h-4c-2 -50 -5 -115 -7 -162l-14 -238h-85z" />
    <glyph glyph-name="afii10079" unicode="&#x43d;" horiz-adv-x="593" 
d="M76 484h91v-192h258v192h91v-484h-91v221h-258v-221h-91v484z" />
    <glyph glyph-name="afii10080" unicode="&#x43e;" horiz-adv-x="604" 
d="M298 -12h-1c-146 0 -258 101 -258 249c0 158 116 259 266 259c157 0 259 -107 259 -248c0 -177 -137 -260 -266 -260zM299 55h1c91 0 170 68 170 189c0 85 -50 185 -167 185c-115 0 -170 -91 -170 -188c0 -116 76 -186 166 -186z" />
    <glyph glyph-name="afii10081" unicode="&#x43f;" horiz-adv-x="589" 
d="M76 484h436v-484h-91v413h-254v-413h-91v484z" />
    <glyph glyph-name="afii10082" unicode="&#x440;" horiz-adv-x="626" 
d="M80 -200v524c0 57 -1 110 -4 160h82l5 -89h2c38 61 102 101 194 101c128 0 227 -102 227 -245c0 -173 -117 -263 -243 -263c-71 0 -136 28 -170 83h-2v-271h-91zM171 273v-70c0 -12 1 -23 4 -34c16 -59 75 -111 151 -111c103 0 168 73 168 189c0 95 -59 178 -163 178
c-68 0 -133 -42 -153 -116c-4 -11 -7 -24 -7 -36z" />
    <glyph glyph-name="afii10083" unicode="&#x441;" horiz-adv-x="496" 
d="M445 88l16 -69c-25 -11 -83 -31 -158 -31c-160 0 -263 104 -263 248c0 152 112 260 283 260c60 0 113 -15 140 -29l-21 -69c-25 13 -63 26 -119 26c-121 0 -190 -80 -190 -182c0 -112 82 -181 187 -181c58 0 97 15 125 27z" />
    <glyph glyph-name="afii10084" unicode="&#x442;" horiz-adv-x="442" 
d="M11 484h419v-71h-164v-413h-91v413h-164v71z" />
    <glyph glyph-name="afii10085" unicode="&#x443;" horiz-adv-x="513" 
d="M8 484h101l119 -289c12 -30 26 -70 35 -98h2c10 29 22 66 35 101l108 286h99l-150 -356c-74 -181 -120 -255 -181 -300c-47 -36 -92 -48 -115 -51l-19 76c22 5 52 17 80 37c25 17 59 52 83 104c5 8 7 15 7 20c0 4 -1 12 -7 24z" />
    <glyph glyph-name="afii10086" unicode="&#x444;" horiz-adv-x="696" 
d="M306 716h86l-1 -222c154 -10 265 -101 265 -250c0 -160 -120 -245 -265 -254l1 -190h-86l1 189c-153 8 -267 100 -267 248c0 163 119 248 267 257zM307 52v380c-104 -10 -176 -85 -176 -191s74 -178 176 -189zM391 432v-380c102 11 174 87 174 192
c0 107 -72 177 -174 188z" />
    <glyph glyph-name="afii10087" unicode="&#x445;" horiz-adv-x="505" 
d="M16 484h103l78 -104c20 -26 37 -50 55 -76h2c18 27 35 51 54 78l75 102h102l-182 -232l188 -252h-105l-80 108c-21 29 -39 57 -58 85h-2c-18 -29 -37 -55 -58 -85l-78 -108h-103l191 248z" />
    <glyph glyph-name="afii10088" unicode="&#x446;" horiz-adv-x="596" 
d="M76 484h91v-413h251v413h91v-416l53 -1l-6 -229h-71l-4 162h-405v484z" />
    <glyph glyph-name="afii10089" unicode="&#x447;" horiz-adv-x="555" 
d="M71 484h91v-156c0 -65 27 -108 111 -108c41 0 86 15 115 37v227h91v-492h-91v201h-1c-36 -23 -95 -40 -145 -40c-97 0 -171 48 -171 165v166z" />
    <glyph glyph-name="afii10090" unicode="&#x448;" horiz-adv-x="787" 
d="M76 484h91v-413h181v413h91v-413h181v413h91v-484h-635v484z" />
    <glyph glyph-name="afii10091" unicode="&#x449;" horiz-adv-x="799" 
d="M76 484h91v-413h181v413h91v-413h181v413h91v-416l53 -1l-6 -229h-71l-4 162h-607v484z" />
    <glyph glyph-name="afii10092" unicode="&#x44a;" horiz-adv-x="617" 
d="M15 484h243v-161c25 4 60 5 95 5c100 0 225 -35 225 -166c0 -49 -19 -84 -50 -109c-57 -49 -146 -58 -222 -58c-53 0 -101 4 -140 6v412h-151v71zM257 258v-195c19 -2 41 -4 75 -4c76 0 155 21 155 101c0 86 -87 104 -158 104c-25 0 -48 -3 -72 -6z" />
    <glyph glyph-name="afii10093" unicode="&#x44b;" horiz-adv-x="711" 
d="M76 484h92v-163c21 4 53 7 89 7c108 0 222 -40 222 -164c0 -50 -19 -84 -50 -110c-57 -49 -142 -59 -212 -59c-54 0 -102 4 -141 6v483zM167 258v-195c19 -2 41 -4 70 -4c71 0 151 23 151 102c0 82 -76 103 -145 103c-29 0 -55 -3 -76 -6zM543 484h91v-484h-91v484z" />
    <glyph glyph-name="afii10094" unicode="&#x44c;" horiz-adv-x="534" 
d="M76 484h92v-162c21 4 61 6 91 6c112 0 237 -30 237 -165c0 -49 -19 -83 -50 -109c-57 -49 -154 -59 -229 -59c-54 0 -102 4 -141 6v483zM167 259v-196c19 -2 41 -4 75 -4c67 0 163 18 163 102c0 88 -99 103 -165 103c-26 0 -49 -2 -73 -5z" />
    <glyph glyph-name="afii10095" unicode="&#x44d;" horiz-adv-x="510" 
d="M107 215v62h270c-9 87 -68 150 -184 150c-59 0 -104 -18 -132 -32l-22 59c51 27 112 42 169 42c75 0 142 -22 190 -67c45 -43 72 -107 72 -191c0 -144 -103 -250 -277 -250c-62 0 -116 14 -161 38l19 64c25 -11 72 -30 138 -30c107 0 178 59 187 155h-269z" />
    <glyph glyph-name="afii10096" unicode="&#x44e;" horiz-adv-x="765" 
d="M76 484h90v-204h91c16 122 105 216 236 216c141 0 232 -105 232 -248c0 -148 -98 -260 -239 -260c-129 0 -220 91 -231 223h-89v-211h-90v484zM488 54h1c96 0 145 93 145 191c0 96 -50 184 -144 184c-92 0 -147 -84 -147 -191c0 -98 52 -184 145 -184z" />
    <glyph glyph-name="afii10097" unicode="&#x44f;" horiz-adv-x="535" 
d="M459 479v-479h-91v202h-79c-37 0 -64 -11 -84 -29c-38 -29 -52 -89 -73 -132c-7 -15 -14 -28 -22 -41h-98c11 16 22 36 32 56c24 48 37 110 84 146c14 12 32 22 53 26v2c-65 6 -135 46 -135 121c0 53 30 87 68 107c44 24 106 32 172 32c64 0 126 -5 173 -11zM368 264v160
c-25 3 -48 6 -86 6c-62 0 -141 -15 -141 -84c0 -63 85 -83 137 -83c45 0 65 1 90 1z" />
    <glyph glyph-name="afii10071" unicode="&#x451;" horiz-adv-x="547" 
d="M504 223h-377c2 -109 83 -164 183 -164c73 0 115 12 152 27l16 -65c-32 -13 -90 -33 -180 -33c-160 0 -259 100 -259 245c0 143 93 263 250 263c177 0 219 -150 219 -233c0 -18 -1 -31 -4 -40zM128 288h292c1 42 -18 144 -138 144c-103 0 -146 -84 -154 -144zM195 571h-1
c-30 0 -51 25 -51 53c0 29 23 53 53 53c28 0 50 -24 50 -53c0 -28 -20 -53 -51 -53zM390 571h-2c-30 0 -50 25 -50 53c0 29 22 53 52 53c29 0 51 -24 51 -53c0 -28 -20 -53 -51 -53z" />
    <glyph glyph-name="afii10099" unicode="&#x452;" horiz-adv-x="604" 
d="M6 628h92v88h91v-88h243v-66h-243v-145h2c40 41 98 73 163 73c64 0 114 -31 148 -79c45 -61 61 -140 61 -219c0 -138 -43 -241 -109 -289c-37 -30 -82 -49 -133 -54l-16 71c44 9 73 20 103 51c36 39 63 109 63 215c0 65 -10 125 -44 175c-22 33 -58 56 -101 56
c-45 0 -91 -27 -124 -66c-9 -11 -13 -23 -13 -46v-305h-91v562h-92v66z" />
    <glyph glyph-name="afii10100" unicode="&#x453;" horiz-adv-x="416" 
d="M76 484h322v-72h-231v-412h-91v484zM267 697h103l-128 -146h-66z" />
    <glyph glyph-name="afii10101" unicode="&#x454;" horiz-adv-x="503" 
d="M470 461l-22 -65c-26 13 -67 31 -125 31c-113 0 -177 -63 -189 -150h269v-62h-268c9 -96 83 -155 185 -155c62 0 106 17 132 28l18 -65c-24 -12 -85 -35 -164 -35c-165 0 -266 103 -266 248c0 166 126 260 285 260c67 0 121 -22 145 -35z" />
    <glyph glyph-name="afii10102" unicode="&#x455;" horiz-adv-x="432" 
d="M45 24l22 68c30 -18 82 -37 130 -37c71 0 101 33 101 73c0 44 -30 65 -99 86c-96 29 -139 78 -139 137c0 78 65 145 179 145c53 0 100 -14 129 -32l-22 -66c-19 12 -60 31 -111 31c-56 0 -86 -30 -86 -68c0 -42 34 -60 102 -82c93 -30 136 -71 136 -145
c0 -82 -67 -146 -193 -146c-58 0 -111 15 -149 36z" />
    <glyph glyph-name="afii10103" unicode="&#x456;" horiz-adv-x="250" 
d="M171 0h-91v484h91v-484zM125 568h-1c-34 0 -56 26 -56 56s23 56 58 56c34 0 57 -25 57 -56c0 -30 -22 -56 -58 -56z" />
    <glyph glyph-name="afii10104" unicode="&#x457;" horiz-adv-x="250" 
d="M171 0h-91v484h91v-484zM28 571h-1c-30 0 -51 25 -51 53c0 29 23 53 53 53c28 0 50 -24 50 -53c0 -28 -20 -53 -51 -53zM223 571h-2c-30 0 -50 25 -50 53c0 29 22 53 52 53c29 0 51 -24 51 -53c0 -28 -20 -53 -51 -53z" />
    <glyph glyph-name="afii10105" unicode="&#x458;" horiz-adv-x="262" 
d="M-42 -215l-9 72c46 2 83 14 106 37c26 28 37 67 37 191v399h91v-437c0 -92 -15 -157 -61 -204c-41 -42 -111 -58 -164 -58zM137 568h-1c-35 0 -56 27 -56 56c0 30 23 56 59 56c34 0 56 -26 56 -56c0 -29 -21 -56 -58 -56z" />
    <glyph glyph-name="afii10106" unicode="&#x459;" horiz-adv-x="836" 
d="M116 484h356v-162c21 3 61 5 90 5c112 0 236 -33 236 -166c0 -48 -19 -81 -47 -106c-56 -50 -154 -60 -228 -60c-53 0 -104 4 -143 6v412h-179v-114c0 -135 -21 -225 -82 -269c-25 -23 -55 -36 -109 -36l-7 72c17 3 38 9 51 18c51 34 62 107 62 217v183zM471 258v-195
c19 -2 41 -4 75 -4c66 0 161 18 161 101c0 87 -92 103 -153 103c-33 0 -58 -3 -83 -5z" />
    <glyph glyph-name="afii10107" unicode="&#x45a;" horiz-adv-x="843" 
d="M76 484h91v-178h226v178h92v-166c21 4 61 6 94 6c99 0 225 -37 225 -162c0 -50 -19 -84 -48 -109c-56 -50 -146 -58 -220 -58c-53 0 -104 4 -143 6v236h-226v-237h-91v484zM484 255v-192c19 -2 41 -4 75 -4c65 0 154 18 154 100c0 84 -84 102 -151 102
c-30 0 -54 -3 -78 -6z" />
    <glyph glyph-name="afii10108" unicode="&#x45b;" horiz-adv-x="623" 
d="M5 628h93v88h91v-88h211v-66h-211v-164h2c18 28 40 49 66 65c30 17 66 27 103 27c114 0 187 -79 187 -219v-271h-91v262c0 84 -35 153 -127 153c-65 0 -114 -45 -133 -91c-5 -13 -7 -30 -7 -48v-276h-91v562h-93v66z" />
    <glyph glyph-name="afii10109" unicode="&#x45c;" horiz-adv-x="517" 
d="M80 484h91v-210h24l200 210h114l-231 -219c82 -7 134 -56 179 -150c13 -29 31 -76 55 -115h-96c-13 18 -32 56 -49 95c-38 82 -88 117 -176 117h-20v-212h-91v484zM300 697h103l-128 -146h-66z" />
    <glyph glyph-name="afii10110" unicode="&#x45e;" horiz-adv-x="513" 
d="M8 484h101l119 -289c12 -30 26 -70 35 -98h2c10 29 22 66 35 101l108 286h99l-150 -356c-74 -181 -120 -255 -181 -300c-47 -36 -92 -48 -115 -51l-19 76c22 5 52 17 80 37c25 17 59 52 83 104c5 8 7 15 7 20c0 4 -1 12 -7 24zM121 685h67c2 -43 24 -79 66 -79
c45 0 66 35 70 79h67c-3 -82 -58 -128 -139 -128c-96 0 -128 63 -131 128z" />
    <glyph glyph-name="afii10193" unicode="&#x45f;" horiz-adv-x="585" 
d="M76 484h91v-413h250v413h91v-484h-172l-6 -165h-73l-8 165h-173v484z" />
    <glyph glyph-name="afii10846" unicode="&#x4d9;" horiz-adv-x="547" 
d="M84 397l-16 65c32 13 91 34 180 34c159 0 258 -100 258 -245c0 -143 -93 -263 -248 -263c-178 0 -220 150 -220 233c0 18 1 31 4 40h376c-2 109 -78 164 -181 164c-71 0 -113 -12 -153 -28zM417 196h-291c-1 -42 19 -144 139 -144c103 0 144 84 152 144z" />
    <glyph glyph-name="Euro" unicode="&#x20ac;" horiz-adv-x="556" 
d="M520 98l18 -64c-35 -24 -93 -46 -166 -46c-92 0 -171 36 -224 97c-39 42 -65 99 -74 163h-66v51h60v15c0 15 1 30 2 45h-62v51h71c13 64 42 121 86 164c54 55 126 88 216 88c67 0 118 -18 150 -34l-21 -68c-30 17 -76 31 -127 31c-61 0 -111 -21 -149 -60
c-31 -30 -52 -74 -62 -121h315v-51h-326c-1 -14 -2 -29 -2 -43v-17h328v-51h-320c8 -53 30 -96 60 -126c40 -40 95 -60 156 -60s111 21 137 36z" />
    <glyph glyph-name="afii61289" unicode="&#x2113;" horiz-adv-x="540" 
d="M203 515v-229c92 87 145 179 145 268c0 70 -28 99 -70 99c-39 0 -75 -43 -75 -138zM463 166l47 -42c-54 -94 -126 -134 -219 -134c-106 0 -160 68 -172 154v6l-60 -39l-26 53c28 19 57 39 84 60v271c0 153 73 221 169 221c88 0 139 -68 139 -161
c0 -124 -77 -233 -222 -355v-8c2 -90 47 -126 110 -126c74 0 125 61 150 100z" />
    <glyph glyph-name="afii61352" unicode="&#x2116;" horiz-adv-x="986" 
d="M785 635h1c103 0 169 -72 169 -174c0 -126 -84 -180 -171 -180c-97 0 -171 65 -171 174c0 113 78 180 172 180zM784 584h-1c-63 0 -94 -64 -94 -128c0 -76 46 -124 95 -124c55 0 95 46 95 126c0 60 -28 126 -95 126zM926 184h-283v54h283v-54zM159 0h-81v650h104
l189 -329c44 -79 80 -146 109 -212l1 1c-7 86 -9 165 -9 265v275h81v-650h-94l-190 330c-42 74 -80 148 -112 218l-3 -1c4 -82 5 -159 5 -265v-282z" />
    <glyph glyph-name="estimated" unicode="&#x212e;" horiz-adv-x="817" 
d="M782 316h-605c-3 0 -5 -1 -5 -4v-183c0 -8 4 -15 9 -21c57 -61 139 -99 229 -99c96 0 182 43 240 111h55c-68 -79 -176 -131 -296 -131c-206 0 -374 150 -374 336s168 336 374 336s373 -150 373 -336v-9zM646 340v184c0 9 -4 16 -10 22c-58 58 -138 95 -226 95
c-90 0 -170 -38 -228 -98c-6 -6 -10 -14 -10 -23v-180c0 -3 2 -5 5 -5h464c3 0 5 2 5 5z" />
    <glyph glyph-name="partialdiff" unicode="&#x2202;" horiz-adv-x="572" 
d="M91 609l-30 61c34 24 95 56 189 56c151 0 283 -131 283 -358c0 -244 -135 -380 -292 -380c-152 0 -217 115 -217 212c0 131 100 243 233 243c97 0 164 -57 187 -99h1c1 13 1 27 1 39c0 176 -102 269 -203 269c-74 0 -123 -23 -152 -43zM249 62h1c99 0 166 97 183 203
c-19 51 -79 105 -161 105c-86 0 -156 -72 -156 -167c0 -82 52 -141 133 -141z" />
    <glyph glyph-name="uni2206" unicode="&#x2206;" horiz-adv-x="622" 
d="M594 0h-567v51l233 605h104l230 -605v-51zM496 74l-133 354c-18 46 -41 113 -55 154h-2c-10 -29 -30 -91 -46 -138l-140 -370h376z" />
    <glyph glyph-name="product" unicode="&#x220f;" horiz-adv-x="671" 
d="M661 576h-104v-666h-87v666h-269v-666h-87v666h-104v74h651v-74z" />
    <glyph glyph-name="summation" unicode="&#x2211;" horiz-adv-x="549" 
d="M560 -90h-552v53l274 314l-260 312v61h503v-74h-384v-3l242 -293l-254 -292v-4h431v-74z" />
    <glyph glyph-name="radical" unicode="&#x221a;" horiz-adv-x="572" 
d="M599 828l-241 -923h-66l-169 428l-76 -33l-20 47l141 61l133 -352c7 -18 14 -39 19 -58h2c3 18 8 40 13 59l195 771h69z" />
    <glyph glyph-name="infinity" unicode="&#x221e;" horiz-adv-x="729" 
d="M543 115h-1c-74 0 -128 58 -177 106c-52 -51 -104 -106 -186 -106c-84 0 -144 62 -144 149c0 80 64 149 152 149c75 0 129 -58 178 -107c52 52 104 107 186 107c84 0 144 -62 144 -149c0 -80 -64 -149 -152 -149zM543 176h1c49 0 86 41 86 88c0 51 -36 88 -84 88
c-56 0 -102 -49 -140 -88c38 -36 80 -88 137 -88zM184 176h1c55 0 101 48 139 87c-38 37 -80 89 -137 89c-50 0 -87 -41 -87 -88c0 -51 36 -88 84 -88z" />
    <glyph glyph-name="integral" unicode="&#x222b;" horiz-adv-x="318" 
d="M312 788l-12 -57c-9 2 -20 4 -31 4c-18 0 -36 -7 -48 -22c-20 -25 -30 -67 -30 -157c0 -145 14 -319 14 -470c0 -97 -20 -156 -44 -187c-23 -33 -59 -50 -98 -50c-24 0 -48 5 -57 10l12 58c9 -3 21 -6 38 -6c16 0 33 7 45 21c18 20 33 57 33 154c0 151 -14 329 -14 475
c0 101 18 158 54 196c24 27 56 38 91 38c20 0 37 -3 47 -7z" />
    <glyph glyph-name="approxequal" unicode="&#x2248;" horiz-adv-x="596" 
d="M530 418l40 -41c-32 -43 -91 -81 -153 -81c-57 0 -95 23 -128 36c-30 12 -63 34 -113 34c-46 0 -90 -31 -117 -60l-36 43c32 39 90 79 154 79c58 0 94 -23 126 -36c30 -12 64 -34 113 -34c47 0 91 34 114 60zM536 219l38 -40c-32 -44 -91 -82 -154 -82
c-56 0 -94 23 -126 36c-30 12 -64 34 -115 34c-44 0 -89 -31 -115 -60l-37 43c32 41 91 79 153 79c58 0 95 -23 128 -36c30 -12 63 -34 112 -34c47 0 91 31 116 60z" />
    <glyph glyph-name="notequal" unicode="&#x2260;" horiz-adv-x="596" 
d="M556 139h-310l-75 -121h-67l78 121h-142v62h181l89 137h-270v62h309l75 121h67l-78 -121h143v-62h-182l-89 -137h271v-62z" />
    <glyph glyph-name="lessequal" unicode="&#x2264;" horiz-adv-x="596" 
d="M530 100l-464 192v60l464 192v-69l-379 -152v-2l379 -153v-68zM530 0h-461v59h461v-59z" />
    <glyph glyph-name="greaterequal" unicode="&#x2265;" horiz-adv-x="596" 
d="M530 292l-464 -192v68l379 153v2l-379 152v69l464 -192v-60zM527 0h-461v59h461v-59z" />
    <glyph glyph-name="lozenge" unicode="&#x25ca;" horiz-adv-x="538" 
d="M495 324l-190 -360h-73l-189 360l189 361h73zM416 323l-137 272c-4 7 -8 15 -10 22h-2c-3 -7 -7 -15 -11 -22l-135 -269l138 -273c4 -6 8 -14 10 -21h2c3 7 7 15 11 21z" />
    <glyph glyph-name="uniEFED" unicode="&#xefed;" 
d="M151 720h-1c-28 0 -50 25 -50 52s22 52 52 52c28 0 49 -25 49 -52s-21 -52 -50 -52z" />
    <glyph glyph-name="uniEFEE" unicode="&#xefee;" 
d="M21 838h54c5 -21 21 -50 76 -50c53 0 71 26 76 50h53c-2 -59 -38 -109 -131 -109c-92 0 -126 50 -128 109z" />
    <glyph glyph-name="uniEFF1" unicode="&#xeff1;" 
d="M123 3h58c-15 -17 -56 -60 -56 -100c0 -31 20 -51 53 -51c18 0 36 5 47 10l15 -46c-20 -16 -58 -24 -83 -24c-58 0 -97 30 -97 88c0 49 36 95 63 123z" />
    <glyph glyph-name="uniEFF2" unicode="&#xeff2;" 
d="M134 1h57l-33 -52c39 -7 72 -33 72 -75c0 -59 -52 -82 -106 -82c-27 0 -55 6 -73 17l14 45c15 -7 34 -13 57 -13c25 0 44 10 44 31c0 26 -30 37 -81 43z" />
    <glyph glyph-name="uniEFF3" unicode="&#xeff3;" horiz-adv-x="400" 
d="M201 880h1c61 0 100 -40 100 -92c0 -51 -42 -89 -101 -89c-61 0 -102 39 -102 89c0 51 39 92 102 92zM200 843h-1c-30 0 -48 -25 -48 -55c0 -27 20 -52 49 -52s49 23 49 53s-20 54 -49 54z" />
    <glyph glyph-name="uniEFF5" unicode="&#xeff5;" 
d="M69 715h-49c-2 62 26 104 71 104c23 0 40 -9 63 -22c17 -9 35 -18 51 -18c15 0 24 7 27 40h48c1 -65 -22 -99 -69 -99c-21 0 -40 7 -65 20c-20 11 -35 20 -50 20c-16 0 -24 -18 -27 -45z" />
    <glyph glyph-name="uniEFF7" unicode="&#xeff7;" 
d="M115 830h67l111 -120h-76l-67 74h-2l-68 -74h-73z" />
    <glyph glyph-name="Acute" unicode="&#xf6c9;" 
d="M197 830h111l-128 -120h-75z" />
    <glyph glyph-name="Caron" unicode="&#xf6ca;" 
d="M185 710h-67l-111 120h76l68 -73h2l67 73h73z" />
    <glyph glyph-name="Dieresis" unicode="&#xf6cb;" 
d="M54 720h-1c-30 0 -50 25 -50 52c0 28 22 52 52 52c28 0 49 -23 49 -52c0 -27 -20 -52 -50 -52zM247 720h-1c-29 0 -49 25 -49 52c0 28 22 52 51 52s50 -23 50 -52c0 -27 -20 -52 -51 -52z" />
    <glyph glyph-name="DieresisAcute" unicode="&#xf6cc;" 
d="M7 719h-1c-28 0 -48 24 -48 51c0 28 22 51 51 51c27 0 48 -23 48 -51c0 -29 -21 -51 -50 -51zM292 719h-1c-28 0 -47 24 -47 51c0 28 22 51 50 51s49 -23 49 -51c0 -29 -21 -51 -51 -51zM139 830h108l-119 -119h-70z" />
    <glyph glyph-name="DieresisGrave" unicode="&#xf6cd;" 
d="M7 719h-1c-28 0 -48 24 -48 51c0 28 22 51 51 51c27 0 48 -23 48 -51c0 -29 -21 -51 -50 -51zM292 719h-1c-28 0 -47 24 -47 51c0 28 22 51 50 51s49 -23 49 -51c0 -29 -21 -51 -51 -51zM52 830h109l81 -119h-70z" />
    <glyph glyph-name="Grave" unicode="&#xf6ce;" 
d="M-8 830h111l92 -119h-75z" />
    <glyph glyph-name="Hungarumlaut" unicode="&#xf6cf;" 
d="M122 830h101l-115 -116h-68zM276 830h101l-115 -116h-68z" />
    <glyph glyph-name="Macron" unicode="&#xf6d0;" 
d="M27 789h248v-56h-248v56z" />
    <glyph glyph-name="cyrBreve" unicode="&#xf6d1;" 
d="M17 840h71c4 -32 13 -64 62 -64s59 30 63 64h70c-3 -67 -45 -111 -136 -111c-88 0 -125 45 -130 111z" />
    <glyph glyph-name="cyrFlex" unicode="&#xf6d2;" 
d="M283 729h-70c-4 28 -14 61 -63 61s-58 -31 -62 -61h-71c4 63 45 108 136 108c88 0 127 -47 130 -108z" />
    <glyph glyph-name="dblGrave" unicode="&#xf6d3;" 
d="M-49 830h109l89 -119h-70zM131 830h109l89 -119h-70z" />
    <glyph glyph-name="cyrbreve" unicode="&#xf6d4;" horiz-adv-x="301" 
d="M15 685h67c2 -43 24 -79 66 -79c45 0 66 35 70 79h67c-3 -82 -58 -128 -139 -128c-96 0 -128 63 -131 128z" />
    <glyph glyph-name="cyrflex" unicode="&#xf6d5;" 
d="M80 563h-67c3 82 58 128 139 128c96 0 128 -63 131 -128h-67c-3 43 -24 79 -66 79c-45 0 -66 -35 -70 -79z" />
    <glyph glyph-name="dblgrave" unicode="&#xf6d6;" 
d="M6 690h95l80 -145h-59zM161 690h96l79 -145h-59z" />
    <glyph glyph-name="dieresisacute" unicode="&#xf6d7;" horiz-adv-x="301" 
d="M20 576h-1c-28 0 -48 24 -48 51c0 28 22 51 51 51c27 0 48 -23 48 -51c0 -29 -21 -51 -50 -51zM272 576h-1c-28 0 -47 24 -47 51c0 28 21 51 50 51c28 0 49 -23 49 -51c0 -29 -21 -51 -51 -51zM148 708h98l-114 -147h-61z" />
    <glyph glyph-name="dieresisgrave" unicode="&#xf6d8;" horiz-adv-x="301" 
d="M25 576h-1c-28 0 -48 24 -48 51c0 28 22 51 51 51c27 0 48 -23 48 -51c0 -29 -21 -51 -50 -51zM270 576h-1c-28 0 -47 24 -47 51c0 28 21 51 50 51c28 0 49 -23 49 -51c0 -29 -21 -51 -51 -51zM52 708h98l77 -147h-61z" />
    <glyph glyph-name="uniF634" unicode="&#xf634;" 
d="M90 -224l-17 42c42 6 79 25 79 66c0 23 -16 46 -34 61l66 15c21 -14 41 -42 41 -75c0 -77 -71 -107 -135 -109z" />
    <glyph glyph-name="uniF638" unicode="&#xf638;" horiz-adv-x="556" 
d="M155 167l224 374c-23 33 -56 52 -101 52c-89 0 -149 -103 -150 -264c-1 -65 9 -120 27 -162zM405 483l-224 -376c25 -33 56 -50 95 -50c101 0 152 103 152 272c0 59 -7 110 -23 154zM516 647l-55 -80c37 -56 56 -135 56 -233c0 -216 -85 -346 -244 -346
c-52 0 -99 17 -137 52l-41 -65l-47 33l51 75c-37 56 -59 137 -60 239c-1 219 104 340 245 340c56 0 104 -18 140 -52l44 69z" />
    <glyph glyph-name="uniF639" unicode="&#xf639;" horiz-adv-x="556" 
d="M273 -12h-1c-136 0 -230 119 -233 334c0 219 104 340 245 340c148 0 233 -121 233 -328c0 -216 -85 -346 -244 -346zM276 57h1c99 0 148 103 148 272c0 163 -46 264 -147 264c-86 0 -147 -100 -147 -264c-3 -173 58 -272 145 -272z" />
    <glyph glyph-name="uniF6DC" unicode="&#xf6dc;" horiz-adv-x="346" 
d="M160 0v567h-2l-114 -60l-18 69l144 74h78v-650h-88z" />
    <glyph glyph-name="uniF63A" unicode="&#xf63a;" horiz-adv-x="484" 
d="M453 0h-449v54l74 65c195 175 265 248 266 338c0 64 -31 131 -140 131c-63 0 -118 -32 -153 -62l-31 63c52 44 123 73 203 73c150 0 213 -101 213 -192c0 -120 -89 -210 -245 -349l-54 -45v-2h316v-74z" />
    <glyph glyph-name="uniF63B" unicode="&#xf63b;" horiz-adv-x="489" 
d="M9 37l25 70c27 -17 92 -45 162 -45c127 0 159 79 158 125c-1 93 -93 128 -180 128h-60v69h61c70 0 154 32 154 108c0 47 -33 97 -124 97c-58 0 -115 -25 -146 -47l-26 66c38 27 112 54 188 54c141 0 201 -79 201 -157c0 -68 -43 -125 -127 -153v-2
c87 -15 154 -79 154 -166c0 -103 -85 -196 -254 -196c-83 0 -153 26 -186 49z" />
    <glyph glyph-name="uniF63C" unicode="&#xf63c;" horiz-adv-x="545" 
d="M429 0h-87v177h-331v58l316 415h102v-404h98v-69h-98v-177zM105 246h237v229c0 30 1 62 3 93l-4 1c-20 -34 -36 -61 -54 -88l-182 -233v-2z" />
    <glyph glyph-name="uniF63D" unicode="&#xf63d;" horiz-adv-x="496" 
d="M435 650v-76h-272l-24 -165c17 2 33 4 62 4c56 0 103 -9 146 -31c55 -26 105 -85 105 -172c0 -126 -107 -222 -256 -222c-82 0 -146 23 -180 44l24 69c29 -17 88 -40 156 -40c87 0 164 56 163 139c-1 77 -55 142 -199 142c-43 0 -76 -4 -104 -8l42 316h337z" />
    <glyph glyph-name="uniF63E" unicode="&#xf63e;" horiz-adv-x="559" 
d="M451 661v-74c-20 1 -45 0 -73 -4c-148 -21 -230 -120 -244 -230h2c33 43 93 80 172 80c127 0 215 -86 215 -213c0 -118 -89 -232 -235 -232c-147 0 -249 106 -249 281c0 128 50 231 119 293c58 53 134 85 224 95c28 4 51 5 69 4zM289 58h1c85 0 140 70 140 156
c0 92 -59 150 -149 150c-60 0 -115 -36 -141 -83c-6 -12 -10 -24 -10 -38c1 -99 53 -185 159 -185z" />
    <glyph glyph-name="uniF63F" unicode="&#xf63f;" horiz-adv-x="445" 
d="M3 650h441v-61l-307 -589h-95l306 574v2h-345v74z" />
    <glyph glyph-name="uniF640" unicode="&#xf640;" horiz-adv-x="556" 
d="M283 662h1c137 0 206 -79 206 -162c0 -55 -28 -115 -114 -151v-4c88 -28 140 -86 140 -164c0 -118 -107 -193 -240 -193c-145 0 -236 79 -236 179c0 79 47 137 136 171v3c-79 32 -110 88 -110 145c0 103 93 176 217 176zM277 55h1c90 0 144 53 144 115
c0 80 -59 117 -160 139c-83 -18 -128 -67 -128 -130c-4 -64 52 -124 143 -124zM280 597h-1c-83 0 -126 -50 -126 -105c-1 -64 52 -100 138 -118c61 15 110 55 110 117c0 48 -33 106 -121 106z" />
    <glyph glyph-name="uniF641" unicode="&#xf641;" horiz-adv-x="561" 
d="M106 -11v74c19 -2 44 -1 78 3c57 6 110 27 152 66c45 40 77 96 89 170h-3c-40 -49 -98 -75 -170 -75c-128 0 -208 92 -208 201c0 124 98 234 242 234c139 0 232 -103 232 -279c0 -147 -54 -247 -121 -306c-54 -47 -128 -77 -202 -83c-35 -5 -68 -6 -89 -5zM278 593h-1
c-86 0 -142 -74 -142 -160c0 -76 53 -137 138 -137c67 0 118 32 144 72c4 7 8 17 8 29c1 103 -42 196 -147 196z" />
    <glyph glyph-name="uniF642" unicode="&#xf642;" horiz-adv-x="867" 
d="M195 601h1c95 0 159 -67 159 -192c0 -138 -76 -208 -167 -208c-85 0 -161 62 -162 195s76 205 169 205zM191 547h-1c-56 0 -90 -59 -91 -146c-1 -88 35 -146 92 -146c61 0 91 56 91 148c0 85 -26 144 -91 144zM281 -12h-58l362 618h58zM680 393h1c95 0 159 -67 159 -192
c0 -138 -76 -208 -167 -208c-84 0 -160 62 -161 195s76 205 168 205zM677 339h-1c-56 0 -90 -60 -91 -146c-1 -88 35 -146 91 -146c61 0 91 56 91 148c0 84 -26 144 -90 144z" />
    <glyph glyph-name="uniF643" unicode="&#xf643;" horiz-adv-x="578" 
d="M289 -12h-1c-137 0 -244 99 -244 254c0 150 106 254 245 254s246 -99 246 -254c0 -151 -106 -254 -246 -254zM289 56h2c94 0 156 75 156 186s-62 186 -158 186c-95 0 -157 -75 -157 -186s62 -186 157 -186z" />
    <glyph glyph-name="uniF644" unicode="&#xf644;" horiz-adv-x="578" 
d="M396 0h-87v408h-2l-200 -90l-16 67l228 99h77v-484z" />
    <glyph glyph-name="uniF645" unicode="&#xf645;" horiz-adv-x="578" 
d="M504 0h-431v49l50 30c177 106 249 168 249 246c0 67 -49 101 -116 101c-57 0 -114 -27 -152 -55l-25 59c39 29 109 68 199 68c111 0 187 -59 187 -161c0 -94 -79 -163 -193 -234l-54 -33v-3c26 3 58 4 85 4h201v-71z" />
    <glyph glyph-name="uniF646" unicode="&#xf646;" horiz-adv-x="578" 
d="M68 -93l11 66c29 -11 78 -20 127 -20c104 0 178 47 178 122c0 63 -64 101 -165 101c-25 0 -47 -2 -60 -3l-2 66l20 1c104 7 178 43 178 105c0 55 -44 81 -114 81c-57 0 -112 -25 -138 -39l-19 58c33 24 104 51 178 51c106 0 185 -49 185 -136c0 -67 -51 -118 -123 -138
v-3c82 -11 154 -57 154 -144c0 -115 -121 -192 -265 -192c-59 0 -120 12 -145 24z" />
    <glyph glyph-name="uniF647" unicode="&#xf647;" horiz-adv-x="578" 
d="M541 48h-98v-165h-86v165h-320v59l304 385h102v-375h98v-69zM357 117v209c0 30 0 59 2 88h-4c-16 -28 -37 -61 -55 -86l-170 -208l1 -3h226z" />
    <glyph glyph-name="uniF648" unicode="&#xf648;" horiz-adv-x="578" 
d="M86 -97l12 65c27 -9 76 -16 118 -16c93 0 174 45 174 130c0 27 -11 50 -30 69c-41 42 -125 53 -253 44l53 289h313l-12 -73h-240l-30 -148c92 4 187 -7 245 -62c31 -30 47 -72 47 -113c0 -123 -105 -205 -265 -205c-51 0 -102 9 -132 20z" />
    <glyph glyph-name="uniF649" unicode="&#xf649;" horiz-adv-x="578" 
d="M480 606l6 -67c-195 -6 -302 -103 -325 -219h3c27 35 82 76 162 76c113 0 204 -74 204 -193c0 -135 -114 -215 -224 -215c-146 0 -242 102 -242 250c0 209 158 360 416 368zM305 57h1c65 0 133 49 133 142c0 80 -53 134 -135 134c-53 0 -96 -27 -116 -49
c-26 -26 -32 -47 -32 -78c0 -71 55 -149 149 -149z" />
    <glyph glyph-name="uniF64A" unicode="&#xf64a;" horiz-adv-x="578" 
d="M492 484v-59c-72 -176 -197 -386 -305 -542l-86 17c84 113 236 358 297 508v2h-328v74h422z" />
    <glyph glyph-name="uniF64B" unicode="&#xf64b;" horiz-adv-x="578" 
d="M382 321v-3c84 -28 138 -81 138 -150c0 -109 -106 -180 -236 -180c-134 0 -231 66 -231 169c0 70 51 124 133 157v2c-58 21 -107 62 -107 128c0 94 91 163 212 163c126 0 203 -72 203 -151c0 -59 -35 -103 -112 -135zM291 545h-1c-66 0 -121 -36 -121 -95
c0 -54 50 -88 132 -105c59 13 107 48 107 105c0 61 -56 95 -117 95zM284 54h1c80 0 140 45 140 107c0 60 -53 103 -157 126c-73 -20 -122 -65 -122 -121c0 -66 53 -112 138 -112z" />
    <glyph glyph-name="uniF64C" unicode="&#xf64c;" horiz-adv-x="578" 
d="M101 -115l-6 67c186 4 296 90 326 212h-2c-22 -35 -84 -74 -161 -74c-112 0 -203 74 -203 192c0 119 102 216 236 216c127 0 231 -85 231 -244c0 -227 -178 -365 -421 -369zM281 155h1c60 0 118 37 139 78c6 12 10 28 10 47c0 89 -67 147 -144 147
c-68 0 -141 -47 -141 -140c0 -87 62 -132 135 -132z" />
    <glyph glyph-name="uniF64E" unicode="&#xf64e;" horiz-adv-x="578" 
d="M507 86l12 -61c-26 -17 -86 -37 -155 -37c-72 0 -143 24 -195 76c-29 29 -51 71 -61 113h-69v50h62c-1 12 -2 19 -2 25c0 10 1 21 2 35h-62v49h70c12 41 34 80 63 110c56 55 131 81 208 81c68 0 110 -18 138 -32l-22 -62c-26 15 -63 28 -118 28c-50 0 -99 -15 -138 -53
c-20 -20 -36 -46 -41 -72h278v-49h-289c-1 -13 -2 -21 -2 -28c0 -9 0 -18 2 -32h289v-50h-279c8 -24 21 -49 38 -65c41 -39 84 -55 142 -55c56 0 102 15 129 29z" />
    <glyph glyph-name="uniF64F" unicode="&#xf64f;" horiz-adv-x="578" 
d="M147 280v57h104l6 51c12 98 59 220 202 219c33 0 59 -9 73 -16l-18 -66c-16 6 -33 11 -55 11c-73 0 -106 -67 -114 -143l-6 -56h131v-57h-139l-20 -173c-16 -134 -60 -224 -183 -224c-36 0 -65 7 -82 16l16 64c19 -8 37 -11 59 -11c68 1 92 61 103 160l19 168h-96z" />
    <glyph glyph-name="uniF650" unicode="&#xf650;" horiz-adv-x="578" 
d="M226 229h113l18 141h-112zM194 0h-63l23 167h-89v62h98l19 141h-92v62h101l22 162h62l-22 -162h113l22 162h62l-21 -162h88v-62h-97l-19 -141h92v-62h-102l-22 -167h-62l22 167h-113z" />
    <glyph glyph-name="uniF651" unicode="&#xf651;" horiz-adv-x="578" 
d="M520 0h-446v50c70 30 113 77 113 132c0 15 -1 28 -4 41h-104v57h93c-4 18 -7 36 -7 56c0 114 79 200 204 200c54 0 96 -13 119 -27l-20 -66c-20 12 -55 22 -99 22c-81 0 -119 -52 -119 -132c0 -20 3 -37 6 -53h162v-57h-151c2 -9 2 -19 2 -29c-2 -53 -28 -94 -65 -119v-2
h316v-73z" />
    <glyph glyph-name="uniF652" unicode="&#xf652;" horiz-adv-x="578" 
d="M331 0h-86v113h-163v51h163v61h-163v51h136l-160 239h98l93 -154c17 -30 30 -52 41 -76h3c12 25 28 52 44 79l98 151h96l-171 -239h135v-51h-164v-61h164v-51h-164v-113z" />
    <glyph glyph-name="uniF653" unicode="&#xf653;" horiz-adv-x="578" 
d="M322 -85h-58v84c-58 1 -123 17 -160 41l26 62c29 -21 92 -37 144 -37c60 0 112 25 112 70c0 40 -30 58 -105 81c-114 35 -164 71 -164 139s62 118 153 127v88h59v-86c57 -3 106 -18 132 -33l-24 -61c-25 14 -75 32 -127 32c-55 0 -101 -24 -101 -61c0 -35 21 -52 115 -81
c110 -33 157 -75 157 -141c0 -60 -53 -124 -159 -139v-85z" />
    <glyph glyph-name="uniF654" unicode="&#xf654;" horiz-adv-x="578" 
d="M439 129l14 -61c-17 -9 -60 -24 -110 -26v-73h-56v73c-114 11 -197 80 -197 199c0 111 79 193 197 209v68h56v-67c45 0 87 -12 110 -22l-18 -62c-22 13 -58 21 -105 21c-88 0 -153 -55 -153 -141c0 -93 69 -140 148 -140c55 0 91 12 114 22z" />
    <glyph glyph-name="uniF655" unicode="&#xf655;" horiz-adv-x="360" 
d="M177 -5h-1c-91 0 -151 73 -151 199c0 125 61 201 157 201s153 -73 153 -197c0 -117 -50 -203 -158 -203zM179 46h1c53 0 82 56 82 151c0 94 -28 147 -83 147c-48 0 -81 -54 -81 -147c0 -97 32 -151 81 -151z" />
    <glyph glyph-name="uniF656" unicode="&#xf656;" horiz-adv-x="255" 
d="M183 0h-73v327h-2l-71 -33l-12 53l93 43h65v-390z" />
    <glyph glyph-name="uniF657" unicode="&#xf657;" horiz-adv-x="333" 
d="M15 0v40l71 61c93 81 130 118 130 165c0 36 -23 71 -81 71c-38 0 -70 -18 -90 -32l-22 46c29 24 77 44 130 44c100 0 140 -63 140 -115c0 -76 -56 -126 -142 -197l-31 -25v-2h180v-56h-285z" />
    <glyph glyph-name="uniF658" unicode="&#xf658;" horiz-adv-x="328" 
d="M50 313l-19 49c26 16 72 33 125 33c92 0 129 -47 129 -95c0 -41 -32 -74 -81 -91v-2c60 -7 98 -47 98 -96c0 -60 -57 -116 -165 -116c-53 0 -102 14 -126 30l20 51c17 -11 61 -28 101 -28c69 0 94 40 93 66c-1 51 -60 69 -112 69h-33v47h34c40 0 94 16 95 63
c0 22 -17 49 -67 49c-38 0 -76 -18 -92 -29z" />
    <glyph glyph-name="uniF659" unicode="&#xf659;" horiz-adv-x="373" 
d="M292 0h-71v101h-203v43l189 245h85v-237h59v-51h-59v-101zM221 152v121c0 19 2 39 3 59l-2 1c-12 -22 -23 -40 -34 -56l-97 -124l1 -1h129z" />
    <glyph glyph-name="uniF65A" unicode="&#xf65a;" horiz-adv-x="329" 
d="M284 387v-56h-167l-13 -83c9 1 20 2 36 2c36 0 69 -5 97 -20c32 -16 60 -51 60 -103c0 -77 -66 -133 -162 -133c-48 0 -92 14 -114 26l15 50c18 -10 56 -23 97 -23c47 0 93 28 93 75c0 43 -31 78 -120 78c-24 0 -46 -3 -63 -5l26 192h215z" />
    <glyph glyph-name="uniF65B" unicode="&#xf65b;" horiz-adv-x="354" 
d="M283 394l1 -54c-11 1 -28 1 -43 -1c-85 -10 -135 -60 -145 -121h1c20 22 56 43 101 43c78 0 131 -50 131 -126c0 -79 -63 -140 -147 -140c-98 0 -157 70 -157 169c0 73 28 134 71 171c37 34 84 52 147 57c15 1 30 3 40 2zM182 47h1c45 0 76 37 76 83c0 49 -32 82 -83 82
c-34 0 -64 -21 -78 -47c-3 -7 -5 -13 -5 -20c0 -51 30 -98 89 -98z" />
    <glyph glyph-name="uniF65C" unicode="&#xf65c;" horiz-adv-x="317" 
d="M23 387h279v-44l-183 -343h-74l183 331v1h-205v55z" />
    <glyph glyph-name="uniF65D" unicode="&#xf65d;" horiz-adv-x="348" 
d="M177 395h1c86 0 128 -49 128 -98c0 -33 -19 -68 -66 -87v-2c48 -15 83 -49 83 -97c0 -69 -62 -116 -151 -116c-96 0 -147 52 -147 107c0 47 30 79 81 98v3c-45 18 -66 51 -66 85c0 63 59 107 137 107zM173 44h1c48 0 78 28 78 61c0 44 -35 64 -86 75
c-46 -11 -71 -36 -71 -70c0 -33 29 -66 78 -66zM174 347h-1c-44 0 -68 -26 -68 -55c0 -34 29 -54 76 -64c33 8 60 29 60 62c0 27 -19 57 -67 57z" />
    <glyph glyph-name="uniF65E" unicode="&#xf65e;" horiz-adv-x="348" 
d="M62 -4v53c11 -1 28 0 45 1c34 3 67 14 92 35c28 21 47 51 54 90h-2c-22 -25 -55 -40 -97 -40c-76 0 -129 51 -129 121c0 76 63 139 150 139c94 0 148 -69 148 -167c0 -83 -30 -143 -71 -179c-36 -31 -86 -48 -140 -51c-19 -2 -38 -3 -50 -2zM172 344h-1
c-46 0 -77 -39 -77 -86c0 -40 29 -74 77 -74c37 0 64 18 78 39c3 4 5 11 5 17c0 54 -23 104 -82 104z" />
    <glyph glyph-name="uniF65F" unicode="&#xf65f;" horiz-adv-x="132" 
d="M49 -65l-51 -5c16 44 32 107 40 157l77 6c-17 -57 -44 -121 -66 -158z" />
    <glyph glyph-name="uniF660" unicode="&#xf660;" horiz-adv-x="132" 
d="M65 -6h-1c-26 0 -44 21 -44 46c0 27 19 46 46 46s45 -19 45 -46c0 -25 -18 -46 -46 -46z" />
    <glyph glyph-name="uniF629" unicode="&#xf629;" horiz-adv-x="339" 
d="M220 -8h-47v60c-45 5 -75 21 -99 45c-22 24 -35 59 -35 98c0 78 50 140 134 152v58h47v-57c27 0 53 -8 70 -15l-14 -51c-13 7 -33 15 -66 15c-61 0 -102 -39 -102 -97c0 -64 46 -97 100 -97c33 0 57 8 72 14l12 -47c-14 -7 -41 -17 -72 -19v-59z" />
    <glyph glyph-name="uniF62A" unicode="&#xf62a;" horiz-adv-x="340" 
d="M191 -50h-46v58c-40 1 -82 13 -106 29l17 51c26 -16 62 -29 102 -29c44 0 73 21 73 51c0 29 -23 45 -73 61c-72 24 -113 51 -113 107c0 52 38 93 103 102v58h46v-56c39 -1 70 -12 90 -23l-17 -50c-14 8 -44 23 -91 23c-48 0 -63 -24 -63 -45c0 -26 21 -40 81 -61
c71 -23 106 -54 106 -111c0 -47 -36 -94 -109 -104v-61z" />
    <glyph glyph-name="uniF62B" unicode="&#xf62b;" horiz-adv-x="198" 
d="M18 207h162v-49h-162v49z" />
    <glyph glyph-name="uniF62C" unicode="&#xf62c;" horiz-adv-x="188" 
d="M121 424h53c-41 -58 -74 -136 -74 -242s34 -181 74 -240h-53c-37 49 -80 125 -80 240c0 116 43 193 80 242z" />
    <glyph glyph-name="uniF62D" unicode="&#xf62d;" horiz-adv-x="188" 
d="M67 -58h-53c40 59 74 136 74 241s-33 182 -74 241h53c36 -49 79 -125 79 -241c0 -115 -42 -191 -79 -241z" />
    <glyph glyph-name="uniF661" unicode="&#xf661;" horiz-adv-x="360" 
d="M177 262h-1c-91 0 -151 73 -151 199c0 125 61 201 157 201s153 -73 153 -197c0 -117 -50 -203 -158 -203zM179 313h1c53 0 82 56 82 151c0 94 -28 147 -83 147c-48 0 -81 -54 -81 -147c0 -97 32 -151 81 -151z" />
    <glyph glyph-name="uniF662" unicode="&#xf662;" horiz-adv-x="255" 
d="M183 267h-73v327h-2l-71 -33l-12 53l93 43h65v-390z" />
    <glyph glyph-name="uniF663" unicode="&#xf663;" horiz-adv-x="333" 
d="M15 267v40l71 61c93 81 130 118 130 165c0 36 -23 71 -81 71c-38 0 -70 -18 -90 -32l-22 46c29 24 77 44 130 44c100 0 140 -63 140 -115c0 -76 -56 -126 -142 -197l-31 -25v-2h180v-56h-285z" />
    <glyph glyph-name="uniF664" unicode="&#xf664;" horiz-adv-x="328" 
d="M50 580l-19 49c26 16 72 33 125 33c92 0 129 -47 129 -95c0 -41 -32 -74 -81 -91v-2c60 -7 98 -47 98 -96c0 -60 -57 -116 -165 -116c-53 0 -102 14 -126 30l20 51c17 -11 61 -28 101 -28c69 0 94 40 93 66c-1 51 -60 69 -112 69h-33v47h34c40 0 94 16 95 63
c0 22 -17 49 -67 49c-38 0 -76 -18 -92 -29z" />
    <glyph glyph-name="uniF665" unicode="&#xf665;" horiz-adv-x="373" 
d="M292 267h-71v101h-203v43l189 245h85v-237h59v-51h-59v-101zM221 419v121c0 19 2 39 3 59l-2 1c-12 -22 -23 -40 -34 -56l-97 -124l1 -1h129z" />
    <glyph glyph-name="uniF666" unicode="&#xf666;" horiz-adv-x="329" 
d="M284 654v-56h-167l-13 -83c9 1 20 2 36 2c36 0 69 -5 97 -20c32 -16 60 -51 60 -103c0 -77 -66 -133 -162 -133c-48 0 -92 14 -114 26l15 50c18 -10 56 -23 97 -23c47 0 93 28 93 75c0 43 -31 78 -120 78c-24 0 -46 -3 -63 -5l26 192h215z" />
    <glyph glyph-name="uniF667" unicode="&#xf667;" horiz-adv-x="354" 
d="M283 661l1 -54c-11 1 -28 1 -43 -1c-85 -10 -135 -60 -145 -121h1c20 22 56 43 101 43c78 0 131 -50 131 -126c0 -79 -63 -140 -147 -140c-98 0 -157 70 -157 169c0 73 28 134 71 171c37 34 84 52 147 57c15 1 30 3 40 2zM182 314h1c45 0 76 37 76 83c0 49 -32 82 -83 82
c-34 0 -64 -21 -78 -47c-3 -7 -5 -13 -5 -20c0 -51 30 -98 89 -98z" />
    <glyph glyph-name="uniF668" unicode="&#xf668;" horiz-adv-x="317" 
d="M23 654h279v-44l-183 -343h-74l183 331v1h-205v55z" />
    <glyph glyph-name="uniF669" unicode="&#xf669;" horiz-adv-x="348" 
d="M177 662h1c86 0 128 -49 128 -98c0 -33 -19 -68 -66 -87v-2c48 -15 83 -49 83 -97c0 -69 -62 -116 -151 -116c-96 0 -147 52 -147 107c0 47 30 79 81 98v3c-45 18 -66 51 -66 85c0 63 59 107 137 107zM173 311h1c48 0 78 28 78 61c0 44 -35 64 -86 75
c-46 -11 -71 -36 -71 -70c0 -33 29 -66 78 -66zM174 614h-1c-44 0 -68 -26 -68 -55c0 -34 29 -54 76 -64c33 8 60 29 60 62c0 27 -19 57 -67 57z" />
    <glyph glyph-name="uniF66A" unicode="&#xf66a;" horiz-adv-x="348" 
d="M62 263v53c11 -1 28 0 45 1c34 3 67 14 92 35c28 21 47 51 54 90h-2c-22 -25 -55 -40 -97 -40c-76 0 -129 51 -129 121c0 76 63 139 150 139c94 0 148 -69 148 -167c0 -83 -30 -143 -71 -179c-36 -31 -86 -48 -140 -51c-19 -2 -38 -3 -50 -2zM172 611h-1
c-46 0 -77 -39 -77 -86c0 -40 29 -74 77 -74c37 0 64 18 78 39c3 4 5 11 5 17c0 54 -23 104 -82 104z" />
    <glyph glyph-name="uniF66B" unicode="&#xf66b;" horiz-adv-x="132" 
d="M49 202l-51 -5c16 44 32 107 40 157l77 6c-17 -57 -44 -121 -66 -158z" />
    <glyph glyph-name="uniF66C" unicode="&#xf66c;" horiz-adv-x="132" 
d="M65 261h-1c-26 0 -44 21 -44 46c0 27 19 46 46 46s45 -19 45 -46c0 -25 -18 -46 -46 -46z" />
    <glyph glyph-name="uniF62E" unicode="&#xf62e;" horiz-adv-x="339" 
d="M220 259h-47v60c-45 5 -75 21 -99 45c-22 24 -35 59 -35 98c0 78 50 140 134 152v58h47v-57c27 0 53 -8 70 -15l-14 -51c-13 7 -33 15 -66 15c-61 0 -102 -39 -102 -97c0 -64 46 -97 100 -97c33 0 57 8 72 14l12 -47c-14 -7 -41 -17 -72 -19v-59z" />
    <glyph glyph-name="uniF62F" unicode="&#xf62f;" horiz-adv-x="340" 
d="M191 217h-46v58c-40 1 -82 13 -106 29l17 51c26 -16 62 -29 102 -29c44 0 73 21 73 51c0 29 -23 45 -73 61c-72 24 -113 51 -113 107c0 52 38 93 103 102v58h46v-56c39 -1 70 -12 90 -23l-17 -50c-14 8 -44 23 -91 23c-48 0 -63 -24 -63 -45c0 -26 21 -40 81 -61
c71 -23 106 -54 106 -111c0 -47 -36 -94 -109 -104v-61z" />
    <glyph glyph-name="uniF630" unicode="&#xf630;" horiz-adv-x="198" 
d="M18 474h162v-49h-162v49z" />
    <glyph glyph-name="uniF631" unicode="&#xf631;" horiz-adv-x="188" 
d="M121 691h53c-41 -58 -74 -136 -74 -242s34 -181 74 -240h-53c-37 49 -80 125 -80 240c0 116 43 193 80 242z" />
    <glyph glyph-name="uniF632" unicode="&#xf632;" horiz-adv-x="188" 
d="M67 209h-53c40 59 74 136 74 241s-33 182 -74 241h53c36 -49 79 -125 79 -241c0 -115 -42 -191 -79 -241z" />
    <glyph glyph-name="uniF6AE" unicode="&#xf6ae;" horiz-adv-x="294" 
d="M204 734h71c-78 -102 -132 -229 -132 -411c0 -178 57 -302 132 -405h-71c-67 85 -137 211 -137 406c0 196 70 323 137 410z" />
    <glyph glyph-name="uniF6AF" unicode="&#xf6af;" horiz-adv-x="294" 
d="M90 -82h-71c75 102 132 229 132 409c0 179 -56 304 -132 407h71c67 -85 137 -212 137 -408c0 -195 -70 -321 -137 -408z" />
    <glyph glyph-name="uniF6B0" unicode="&#xf6b0;" horiz-adv-x="294" 
d="M279 -73h-195v798h195v-55h-124v-688h124v-55z" />
    <glyph glyph-name="uniF6B1" unicode="&#xf6b1;" horiz-adv-x="294" 
d="M15 725h195v-798h-195v55h124v688h-124v55z" />
    <glyph glyph-name="uniF6B2" unicode="&#xf6b2;" horiz-adv-x="294" 
d="M28 301v51c76 0 85 40 85 76c0 27 -4 55 -8 83c-5 28 -9 55 -9 82c0 92 62 132 152 132h23v-56h-19c-64 0 -86 -32 -86 -90c0 -22 4 -46 8 -70c4 -23 8 -49 8 -76c1 -60 -28 -93 -73 -105v-2c45 -11 74 -47 73 -106c0 -27 -4 -52 -8 -76c-4 -25 -8 -47 -8 -70
c0 -60 27 -91 86 -91h19v-56h-23c-88 0 -152 37 -152 140c0 26 4 53 9 79c4 27 8 53 8 79c0 32 -9 76 -85 76z" />
    <glyph glyph-name="uniF6B3" unicode="&#xf6b3;" horiz-adv-x="294" 
d="M266 352v-51c-76 0 -85 -44 -85 -76c0 -26 4 -52 9 -79c4 -26 8 -53 8 -79c0 -103 -64 -140 -152 -140h-23v56h19c59 0 86 31 86 91c0 23 -4 45 -8 70c-4 24 -8 49 -8 76c-1 59 28 95 73 106v2c-45 12 -74 45 -73 105c0 27 4 53 8 76c4 24 8 48 8 70c0 58 -22 90 -86 90
h-19v56h23c90 0 152 -40 152 -132c0 -27 -4 -54 -8 -82c-5 -28 -9 -56 -9 -83c0 -36 9 -76 85 -76z" />
    <glyph glyph-name="uniF6B4" unicode="&#xf6b4;" horiz-adv-x="239" 
d="M170 0h-101l16 474h69zM120 682h1c36 0 61 -27 61 -65c0 -35 -25 -64 -62 -64s-63 29 -62 64c0 38 25 65 62 65z" />
    <glyph glyph-name="uniF6B5" unicode="&#xf6b5;" horiz-adv-x="438" 
d="M258 682h1c36 0 61 -27 61 -65c0 -35 -25 -64 -62 -64s-62 29 -62 64c0 38 25 65 62 65zM217 477h82l2 -30c5 -52 -16 -109 -68 -167c-49 -52 -74 -92 -74 -133c0 -49 31 -87 101 -88c39 0 84 13 113 36l26 -65c-40 -28 -102 -45 -158 -45c-119 0 -176 72 -176 151
c0 65 37 113 90 169c48 53 66 98 64 144z" />
    <glyph glyph-name="uniF6B6" unicode="&#xf6b6;" horiz-adv-x="441" 
d="M246 515l-143 -188l144 -187h-74l-143 187l142 188h74zM417 515l-143 -188l144 -187h-74l-143 187l142 188h74z" />
    <glyph glyph-name="uniF6B7" unicode="&#xf6b7;" horiz-adv-x="441" 
d="M168 327l-144 188h73l143 -188l-143 -187h-72zM338 327l-144 188h73l143 -188l-143 -187h-73z" />
    <glyph glyph-name="uniF6B8" unicode="&#xf6b8;" horiz-adv-x="270" 
d="M246 515l-143 -188l144 -187h-74l-143 187l142 188h74z" />
    <glyph glyph-name="uniF6B9" unicode="&#xf6b9;" horiz-adv-x="270" 
d="M167 327l-144 188h74l143 -188l-143 -187h-73z" />
    <glyph glyph-name="uniF6BA" unicode="&#xf6ba;" horiz-adv-x="316" 
d="M30 381h256v-66h-256v66z" />
    <glyph glyph-name="uniF6BB" unicode="&#xf6bb;" horiz-adv-x="500" 
d="M30 358h440v-61h-440v61z" />
    <glyph glyph-name="uniF6BC" unicode="&#xf6bc;" horiz-adv-x="1000" 
d="M30 358h940v-61h-940v61z" />
    <glyph glyph-name="uniF6BD" unicode="&#xf6bd;" horiz-adv-x="211" 
d="M105 275h-1c-36 0 -62 29 -61 64c0 38 25 65 62 65s62 -27 62 -65c0 -35 -25 -64 -62 -64z" />
    <glyph glyph-name="uniF633" unicode="&#xf633;" horiz-adv-x="786" 
d="M482 356l19 102c-12 4 -31 9 -58 9c-92 0 -168 -75 -168 -171c0 -44 24 -81 75 -81c64 0 121 79 132 141zM541 75l17 -47c-58 -29 -117 -40 -188 -40c-175 0 -325 129 -325 322c0 201 146 376 382 376c187 0 318 -129 318 -305c0 -137 -90 -222 -185 -222
c-41 0 -82 27 -80 91h-3c-36 -59 -83 -91 -154 -91c-61 0 -116 50 -116 132c0 128 106 232 245 232c48 0 90 -10 119 -23l-32 -175c-15 -77 -3 -114 33 -115c53 -2 113 59 113 168c0 149 -98 260 -267 260c-171 0 -312 -122 -312 -321c0 -168 120 -279 274 -279
c61 0 120 13 161 37z" />
    </font>
</defs>
</svg>
