<?xml version="1.0" standalone="no"?>
<!DOCTYPE svg PUBLIC "-//W3C//DTD SVG 1.1//EN" "http://www.w3.org/Graphics/SVG/1.1/DTD/svg11.dtd" >
<svg xmlns="http://www.w3.org/2000/svg" xmlns:xlink="http://www.w3.org/1999/xlink" version="1.1">
<metadata>
Created by FontForge 20170731 at Sat May 19 21:15:13 2012
 By Aleksey,,,
(c) copyright by Fontbit
</metadata>
<defs>
<font id="FbAlfi-Regular" horiz-adv-x="756" >
  <font-face 
    font-family="Fb Alfi"
    font-weight="400"
    font-stretch="normal"
    units-per-em="2048"
    panose-1="2 2 5 3 5 4 5 2 3 4"
    ascent="1638"
    descent="-410"
    bbox="-309 -694 1539 1475"
    underline-thickness="50"
    underline-position="-275"
    unicode-range="U+0020-FB4B"
  />
<missing-glyph horiz-adv-x="1593" 
d="M284 0v1280h1024v-1280h-1024zM316 32h960v1216h-960v-1216z" />
    <glyph glyph-name=".notdef" horiz-adv-x="1593" 
d="M284 0v1280h1024v-1280h-1024zM316 32h960v1216h-960v-1216z" />
    <glyph glyph-name=".null" horiz-adv-x="0" 
 />
    <glyph glyph-name="nonmarkingreturn" horiz-adv-x="512" 
 />
    <glyph glyph-name="space" unicode=" " horiz-adv-x="604" 
 />
    <glyph glyph-name="exclam" unicode="!" horiz-adv-x="614" 
d="M317 412h-55l-47 211q-10 49 -15.5 108t-5.5 119v244q0 33 17 58q18 24 78 24q65 0 85 -24q21 -24 21 -58v-244q0 -60 -7 -114.5t-19 -108.5zM293 -31q-68 0 -93.5 31t-25.5 96q0 35 5.5 60t19 41.5t36.5 24t58 7.5q67 0 97 -33.5t30 -99.5q0 -127 -127 -127z" />
    <glyph glyph-name="quotedbl" unicode="&#x22;" horiz-adv-x="657" 
d="M69 780q43 51 57.5 92t14.5 78q0 23 -12 55q-5 17 -11.5 29.5t-13.5 22.5q-17 22 -22 42.5t-5 47.5q0 43 21 71.5t63 28.5q64 0 95.5 -46t31.5 -124q0 -54 -11.5 -99.5t-34 -85.5t-55.5 -76.5t-77 -72.5zM364 780q45 51 59.5 92t14.5 78q0 25 -13 55q-6 17 -12.5 29.5
t-13.5 22.5q-17 22 -22 42.5t-5 47.5q0 43 21 71.5t63 28.5q66 0 97.5 -46t31.5 -124q0 -54 -11.5 -99.5t-34 -85.5t-56 -76.5t-76.5 -72.5z" />
    <glyph glyph-name="numbersign" unicode="#" horiz-adv-x="1144" 
d="M866 727l-39 -309h192v-160h-213l-28 -258h-146l31 258h-266l-33 -258h-143l30 258h-184v160h203l39 309h-187v160h205l31 254h145l-33 -254h269l30 254h144l-31 -254h195v-160h-211zM454 727l-39 -309h266l39 309h-266z" />
    <glyph glyph-name="dollar" unicode="$" horiz-adv-x="956" 
d="M405 797v178q-24 -6 -44.5 -16.5t-36.5 -25.5t-25 -35.5t-9 -47.5q0 -37 20.5 -65.5t53.5 -43.5q4 -2 10 -4t12 -6l17 -8zM493 481v-317q25 2 52.5 9.5t50.5 22t38.5 37.5t15.5 56q0 69 -33.5 112t-103.5 72zM493 686l94 -41q49 -22 93 -51.5t77 -68.5t52.5 -88.5
t19.5 -112.5q0 -69 -26 -124t-71 -95t-106.5 -65.5t-132.5 -35.5v-143h-88v151q-48 6 -88 13.5t-73.5 17.5t-62 23t-55.5 28l51 156q58 -29 114.5 -50.5t113.5 -31.5v350q-37 19 -71 34t-58 30q-34 21 -62.5 46.5t-49.5 57t-32.5 70t-11.5 84.5q0 108 71 188q72 80 214 102
v160h88v-157q78 -11 143.5 -25t126.5 -41l-53 -154q-54 29 -107 46.5t-110 21.5v-295z" />
    <glyph glyph-name="percent" unicode="%" horiz-adv-x="1652" 
d="M1236 -27q-84 0 -142 29t-95 76t-53.5 108t-16.5 125q0 70 18 131.5t55.5 107.5t95.5 72.5t138 26.5q82 0 139.5 -28.5t94 -75.5t53 -108t16.5 -126q0 -67 -17.5 -128.5t-54 -108t-94 -74t-137.5 -27.5zM513 2h-172l797 1190h168zM419 555q-82 0 -140 28.5t-95 75.5
t-54.5 108t-17.5 126q0 69 18 130.5t55.5 108t95.5 74t138 27.5q82 0 139.5 -29t93.5 -77t52 -109t16 -125q0 -67 -17.5 -128t-54.5 -107.5t-93.5 -74.5t-135.5 -28zM1236 530q-45 0 -73.5 -22.5t-45 -56t-22.5 -71.5t-6 -69q0 -29 6 -67.5t22.5 -72.5t45 -57.5t73.5 -23.5
q46 0 74 23.5t44 58t21.5 72.5t6.5 67q0 31 -5.5 69t-21.5 71.5t-44.5 56t-74.5 22.5zM419 1114q-45 0 -74 -23.5t-45.5 -57t-23 -72t-6.5 -68.5q0 -34 7 -72.5t24.5 -71t46 -54t71.5 -21.5q44 0 72 23.5t44 57t22 71.5t6 67t-6 67.5t-22 72.5t-44 57.5t-72 23.5z" />
    <glyph glyph-name="ampersand" unicode="&#x26;" horiz-adv-x="1521" 
d="M1419 158q-20 -85 -108 -149q-86 -64 -174 -64q-89 0 -174 55q-53 34 -138 117q-181 -172 -405 -172q-142 0 -227 75q-91 79 -91 218q0 233 295 401l72 41q-68 141 -68 256q0 131 76 216q79 91 207 91q110 0 180 -58q74 -62 74 -169q0 -195 -287 -324q122 -224 244 -385
q172 212 172 338q0 52 -39 72q-21 11 -82 16v39h400v-39q-32 -4 -54.5 -9.5t-36.5 -12.5q-50 -24 -84 -88l-47 -88q-74 -140 -186 -281q20 -23 40.5 -44.5t43.5 -41.5q97 -88 201 -88q60 0 100 29q13 10 30.5 27.5t39.5 43.5zM840 1022q0 34 -10.5 63.5t-29.5 51t-46.5 33.5
t-61.5 12q-143 0 -143 -164q0 -106 74 -266q88 51 135 96q82 78 82 174zM776 168q-128 167 -280 446q-220 -130 -220 -311q0 -108 66 -181q68 -77 174 -77q132 0 260 123z" />
    <glyph glyph-name="quotesingle" unicode="'" horiz-adv-x="360" 
d="M69 780q43 51 57.5 92t14.5 78q0 23 -12 55q-5 17 -11.5 29.5t-13.5 22.5q-17 22 -22 42.5t-5 47.5q0 43 21 71.5t63 28.5q64 0 95.5 -46t31.5 -124q0 -54 -11.5 -99.5t-34 -85.5t-55.5 -76.5t-77 -72.5z" />
    <glyph glyph-name="parenleft" unicode="(" horiz-adv-x="692" 
d="M472 -324q-70 100 -125.5 201t-98.5 206q-85 207 -85 454q0 248 85 463q43 109 98.5 212t125.5 203h131q-115 -215 -182 -426q-68 -215 -68 -452q0 -123 18.5 -233.5t51.5 -215t79 -206t101 -206.5h-131z" />
    <glyph glyph-name="parenright" unicode=")" horiz-adv-x="694" 
d="M530 537q0 -126 -22.5 -238.5t-63.5 -217.5t-98 -205t-127 -200h-131q57 108 103.5 211t79 207.5t50 213.5t17.5 229q0 126 -17.5 239t-50 219.5t-79 209.5t-103.5 210h131q140 -202 225 -415q86 -216 86 -463z" />
    <glyph glyph-name="asterisk" unicode="*" horiz-adv-x="1067" 
d="M616 985l246 -303l-125 -90l-205 344l-200 -348l-129 92l252 305l-365 90l51 142l340 -146l-24 365h149l-22 -363l344 144l49 -142z" />
    <glyph glyph-name="plus" unicode="+" horiz-adv-x="954" 
d="M915 463h-356v-354h-162v354h-354v160h354v358h162v-358h356v-160z" />
    <glyph glyph-name="comma" unicode="," horiz-adv-x="415" 
d="M71 -176q45 51 59.5 91t14.5 77q0 23 -13 56q-11 32 -26 52q-17 21 -22 42.5t-5 45.5q0 43 21 73t63 30q66 0 97.5 -47t31.5 -125q0 -54 -11.5 -99t-34 -85.5t-56 -77t-76.5 -72.5z" />
    <glyph glyph-name="hyphen" unicode="-" horiz-adv-x="954" 
d="M841 455h-727v178h727v-178z" />
    <glyph glyph-name="period" unicode="." horiz-adv-x="450" 
d="M196 -31q-66 0 -92.5 30.5t-26.5 96.5q0 70 25.5 101.5t93.5 31.5q69 0 98 -33.5t29 -99.5q0 -127 -127 -127z" />
    <glyph glyph-name="slash" unicode="/" horiz-adv-x="731" 
d="M700 1292l-553 -1394h-137l549 1394h141z" />
    <glyph glyph-name="zero" unicode="0" horiz-adv-x="958" 
d="M736 86q-21 -24 -46 -45t-56.5 -36t-71 -23.5t-88.5 -8.5q-93 0 -158.5 35t-107.5 90q-68 86 -98 211q-29 127 -29 258q0 145 33 276q33 129 104 214q43 51 108.5 81.5t153.5 30.5q97 0 161 -29t106 -77q36 -39 60.5 -91t40.5 -115t23 -135t7 -151q0 -153 -39 -283
q-39 -131 -103 -202zM480 1008q-61 0 -99 -36t-59.5 -96.5t-29.5 -139.5t-8 -165q0 -84 8 -162.5t29.5 -140t59.5 -98.5t99 -37q106 0 153 116q46 114 46 322q0 86 -9 165t-31.5 139.5t-61 96.5t-97.5 36z" />
    <glyph glyph-name="one" unicode="1" horiz-adv-x="958" 
d="M489 0v877q-87 -61 -152 -89q-64 -28 -131 -45v179q115 18 204 81q45 32 80.5 67.5t61.5 74.5h133v-1145h-196z" />
    <glyph glyph-name="two" unicode="2" horiz-adv-x="958" 
d="M92 0q6 66 21.5 119.5t46.5 101.5q10 15 27 37.5t38 48t44 50t44 44.5l201 189q63 60 89 108.5t26 96.5q0 38 -13 74.5t-42.5 65t-78 45.5t-118.5 17q-27 0 -55 -5t-55 -13t-51.5 -18.5t-45.5 -22.5l-39 168q52 27 132 45q79 18 157 18q214 0 317 -95q103 -94 103 -249
q0 -39 -8.5 -80t-28 -83.5t-51 -86t-78.5 -86.5l-121 -112q-17 -17 -40.5 -38.5t-49.5 -45.5q-27 -25 -54.5 -51.5t-58.5 -61.5h524v-180h-782z" />
    <glyph glyph-name="three" unicode="3" horiz-adv-x="958" 
d="M420 -27q-82 0 -163 11.5t-163 40.5l35 178q28 -12 65 -22.5t76 -18.5t76.5 -13t66.5 -6q132 0 197.5 50.5t65.5 132.5q0 50 -22 85.5t-57 58t-79.5 32.5t-89.5 10h-182v164q45 -2 96 -3t88 -1q86 0 145 41q60 40 60 125q0 43 -18.5 74.5t-50.5 52.5t-74 31t-89 10
q-23 0 -51 -3t-62 -8q-66 -10 -116 -30l-39 153q29 11 62.5 20.5t71.5 16.5t73 10.5t67 3.5q82 0 157 -14.5t132 -47.5t91 -88t34 -136q0 -18 -6 -51.5t-26.5 -72.5t-61 -79.5t-109.5 -73.5q79 -16 129 -49t77.5 -72.5t37.5 -80t10 -70.5q0 -87 -35.5 -154.5t-97 -113
t-144.5 -69.5t-177 -24z" />
    <glyph glyph-name="four" unicode="4" horiz-adv-x="958" 
d="M759 260v-260h-188v260h-508v221l442 658h254v-705h135v-174h-135zM571 977l-367 -543h367v543z" />
    <glyph glyph-name="five" unicode="5" horiz-adv-x="958" 
d="M443 -27q-43 0 -89 3.5t-96 10.5t-93.5 19t-81.5 31l43 174q28 -14 59.5 -26.5t66.5 -22.5q69 -19 130 -19q64 0 119 10.5t95 35t62.5 63.5t22.5 96q0 118 -76 164q-77 47 -213 47q-28 0 -63 -3.5t-70.5 -10t-69 -15t-57.5 -18.5l-10 8l37 621h647v-170h-477l-17 -269
q48 11 87.5 14t74.5 3q180 0 291 -87t111 -265q0 -98 -35 -172t-94.5 -123.5t-138 -74t-165.5 -24.5z" />
    <glyph glyph-name="six" unicode="6" horiz-adv-x="958" 
d="M480 -27q-114 0 -184 35t-111 94q-51 76 -77.5 181.5t-26.5 255.5q0 128 31 242t92 200t151.5 136t210.5 50q117 0 222 -39l-31 -151q-47 16 -86 24.5t-90 8.5t-105 -18.5t-98 -62t-73 -116t-31 -180.5q46 30 82 48t69 28t65.5 13t71.5 3q70 0 129.5 -24.5t102.5 -69.5
t67.5 -109.5t24.5 -144.5q0 -84 -30 -157.5t-84 -128.5t-128.5 -86.5t-163.5 -31.5zM487 571q-41 0 -105 -21q-62 -19 -111 -73q-6 -92 12.5 -155.5t50.5 -103.5t72 -57.5t76 -17.5q41 0 80 13t69.5 40t49 67.5t18.5 94.5q0 64 -20.5 105t-52 65t-69 33.5t-70.5 9.5z" />
    <glyph glyph-name="seven" unicode="7" horiz-adv-x="958" 
d="M827 915q-12 -20 -25.5 -40.5t-29.5 -47.5q-56 -89 -100 -186.5t-78.5 -202t-60.5 -214.5t-44 -224h-201q35 236 127.5 473.5t255.5 482.5h-569v185h782v-150q-18 -22 -31.5 -39.5t-25.5 -36.5z" />
    <glyph glyph-name="eight" unicode="8" horiz-adv-x="958" 
d="M477 -35q-194 0 -300 87t-106 243q0 92 45 170t170 141q-98 47 -137 114t-39 173q0 55 21 108.5t65.5 96t113.5 68.5t164 26q93 0 160.5 -23.5t111.5 -63.5t65.5 -91.5t21.5 -106.5q0 -58 -38 -131q-37 -70 -136 -131q126 -52 178 -139q51 -86 51 -182q0 -81 -31.5 -147
t-87 -113.5t-130.5 -73t-162 -25.5zM458 1040q-91 0 -137 -46q-47 -47 -47 -111q0 -42 19.5 -70.5t53 -49t79.5 -35.5t100 -30q31 14 56.5 33.5t46.5 42.5q42 46 42 96q0 76 -55 123t-158 47zM573 500q-11 5 -28.5 11t-40.5 14t-43.5 14.5t-37.5 11.5q-46 -16 -78.5 -42.5
t-53.5 -57t-30.5 -62t-9.5 -57.5q0 -84 53 -143q54 -58 183 -58q111 0 164 53q53 55 53 129q0 66 -35.5 113t-95.5 74z" />
    <glyph glyph-name="nine" unicode="9" horiz-adv-x="958" 
d="M384 -27q-60 0 -118 10.5t-113 28.5l39 162q47 -20 87 -31.5t91 -11.5t105 18t98 61.5t73 116t31 181.5q-47 -31 -83 -50.5t-69 -31t-65 -16t-71 -4.5q-70 0 -129.5 25.5t-102.5 72t-67.5 113t-24.5 147.5q0 84 27.5 157.5t78 128t122 86t159.5 31.5q57 0 105.5 -10.5
t87.5 -29.5t69 -44t51 -55q54 -76 79.5 -181t25.5 -255q0 -127 -31 -239.5t-92.5 -197t-152 -133.5t-210.5 -49zM450 997q-87 0 -143 -52q-56 -53 -56 -163q0 -63 21 -104t52.5 -65.5t69 -34t70.5 -9.5q39 0 104 20q64 21 111 77q6 91 -15 154.5t-56 102.5t-78 56.5
t-80 17.5z" />
    <glyph glyph-name="colon" unicode=":" horiz-adv-x="512" 
d="M231 0q-68 0 -93.5 30.5t-25.5 96.5q0 35 5.5 60t19 41.5t36.5 24t58 7.5q67 0 97 -33.5t30 -99.5q0 -127 -127 -127zM231 741q-68 0 -93.5 30t-25.5 95q0 35 5.5 60t19 41.5t36.5 24t58 7.5q67 0 97 -33.5t30 -99.5q0 -125 -127 -125z" />
    <glyph glyph-name="semicolon" unicode=";" horiz-adv-x="481" 
d="M132 -176q46 51 60 91t14 77q0 21 -12 56q-12 34 -27 52q-16 21 -21 42.5t-5 45.5q0 43 21 73t63 30q66 0 97.5 -47t31.5 -125q0 -54 -11.5 -99t-34.5 -85.5t-56.5 -77t-76.5 -72.5zM231 741q-68 0 -93.5 30t-25.5 95q0 35 5.5 60t19 41.5t36.5 24t58 7.5q67 0 97 -33.5
t30 -99.5q0 -125 -127 -125z" />
    <glyph glyph-name="less" unicode="&#x3c;" horiz-adv-x="954" 
d="M915 47l-872 416v199l872 413v-198l-690 -316l690 -313v-201z" />
    <glyph glyph-name="equal" unicode="=" horiz-adv-x="954" 
d="M897 696h-838v181h838v-181zM897 229h-838v181h838v-181z" />
    <glyph glyph-name="greater" unicode="&#x3e;" horiz-adv-x="954" 
d="M915 475l-872 -414v199l698 313l-698 316v201l872 -416v-199z" />
    <glyph glyph-name="question" unicode="?" horiz-adv-x="884" 
d="M483 96q0 -127 -127 -127q-66 0 -92.5 30.5t-26.5 96.5q0 35 5.5 60t19 41.5t36.5 24t58 7.5q67 0 97 -33.5t30 -99.5zM550 614q-24 -24 -47 -47.5t-42.5 -48.5t-34.5 -51.5t-23 -56.5h-98q-2 16 -2 34.5v32.5q0 64 17 111t65 92q15 15 35.5 36t40 45.5t33 51t13.5 51.5
q0 48 -17.5 79.5t-44 50t-57.5 26.5t-59 8q-48 0 -87.5 -19.5t-67.5 -43.5l-68 131q43 34 103.5 61t138.5 27q71 0 134.5 -15.5t111.5 -50.5t76 -91t28 -136q0 -70 -39 -140.5t-109 -136.5z" />
    <glyph glyph-name="at" unicode="@" horiz-adv-x="1697" 
d="M1517 741q0 -167 -103 -315q-113 -168 -272 -168q-70 0 -121 39q-52 39 -53 109q-22 -61 -85 -105q-61 -43 -124 -43q-109 0 -176 72q-66 73 -66 182q0 149 116 279q115 129 261 129q135 0 168 -113q52 89 139 94q29 2 29 -24q0 -5 -2 -15l-39 -119q-90 -282 -90 -340
q0 -15 6.5 -29t17 -24.5t25 -17t29.5 -6.5q118 0 202 153q70 130 70 260q0 203 -160 324q-146 113 -356 113q-254 0 -447 -175q-196 -180 -196 -432q0 -244 176 -393q164 -137 414 -137q86 0 188 24q133 33 266 121q16 11 27 11q27 0 27 -27q0 -22 -19 -35
q-116 -80 -256 -123q-117 -37 -260 -37q-271 0 -471 160q-217 169 -217 434q0 295 235 494q221 184 525 184q237 0 407 -129q185 -141 185 -375zM1023 752q0 100 -100 100q-102 0 -181 -156q-67 -133 -67 -245q0 -127 110 -127q98 0 175 170q63 142 63 258z" />
    <glyph glyph-name="bracketleft" unicode="[" horiz-adv-x="733" 
d="M691 -381h-487v1856h487v-154h-311v-1548h311v-154z" />
    <glyph glyph-name="backslash" unicode="\" horiz-adv-x="800" 
d="M737 -137q6 -13 1 -21t-15 -4l-99 45q-19 7 -30 29l-574 1227q-10 20 0 25t27 -3l82 -45q22 -12 33 -35z" />
    <glyph glyph-name="bracketright" unicode="]" horiz-adv-x="733" 
d="M527 -381h-487v154h311v1548h-311v154h487v-1856z" />
    <glyph glyph-name="asciicircum" unicode="^" horiz-adv-x="960" 
d="M892 467h-137l-275 582l-278 -582h-137l366 758q17 35 47 35t47 -35z" />
    <glyph glyph-name="underscore" unicode="_" horiz-adv-x="1024" 
d="M1024 -229h-1024v90h1024v-90z" />
    <glyph glyph-name="braceleft" unicode="{" horiz-adv-x="751" 
d="M710 -381h-198q-60 0 -112 20t-91 58t-61.5 94.5t-22.5 130.5v420q0 49 -39 90t-135 41v143q93 8 133 49q41 43 41 85v421q0 80 22 137.5t60 94.5t90.5 54.5t114.5 17.5h198v-154h-170q-57 0 -93 -37.5t-36 -118.5v-389q0 -35 -12.5 -70t-33.5 -65t-47.5 -54t-53.5 -36
q62 -40 105 -107q42 -65 42 -137v-389q0 -81 38 -113t91 -32h170v-154z" />
    <glyph glyph-name="bar" unicode="|" horiz-adv-x="528" 
d="M323 -381h-119v1851h119v-1851z" />
    <glyph glyph-name="braceright" unicode="}" horiz-adv-x="751" 
d="M699 473q-96 0 -135 -41t-39 -90v-420q0 -74 -22.5 -130.5t-61.5 -94.5t-91 -58t-111 -20h-199v154h168q52 0 92 32q39 31 39 113v389q0 72 42 137q43 67 105 107q-27 12 -53.5 35.5t-47 54.5t-33.5 66t-13 69v389q0 81 -35.5 118.5t-95.5 37.5h-168v154h199
q61 0 113.5 -17.5t91 -54.5t60 -94.5t21.5 -137.5v-421q0 -42 41 -85q40 -41 133 -49v-143z" />
    <glyph glyph-name="asciitilde" unicode="~" horiz-adv-x="1107" 
d="M1076 641q-40 -172 -119 -246q-70 -65 -161 -65q-89 0 -279 75q-189 76 -250 76q-128 0 -192 -186q-13 -37 -33 -37t-14 37q13 98 73 190q74 113 197 113q83 0 272 -73q190 -72 260 -72q74 0 125 61q38 44 70 127q17 41 37 41q16 0 16 -27q0 -4 -2 -14z" />
    <glyph glyph-name="cent" unicode="&#xa2;" horiz-adv-x="874" 
d="M769 299q-79 -319 -330 -319q-67 0 -137 30l-121 -334h-61l133 365q-143 135 -143 346q0 216 133 334q103 88 233 88q10 0 23 -0.5t30 -1.5l119 328h62l-123 -344q157 -72 157 -175q0 -71 -79 -71q-49 0 -74 33q-12 17 -21 59q-10 55 -16 65l-195 -538q79 -53 140 -53
q110 0 174 73q25 33 69 125zM507 739q-27 11 -51 11q-109 0 -164 -97q-45 -80 -45 -196q0 -117 67 -244z" />
    <glyph glyph-name="sterling" unicode="&#xa3;" horiz-adv-x="874" 
d="M836 258q-15 -113 -72 -188q-68 -90 -174 -90q-72 0 -150 45q-15 9 -47 32t-82 60q-68 -137 -159 -137q-46 0 -73.5 31t-27.5 79q0 30 10.5 54.5t29.5 42t45 27t57 9.5q27 0 71 -6q1 6 2 15t2 22v29q0 74 -18 280h-166v82h166q-12 127 -12 170q0 225 159 324
q72 45 158 45q82 0 145 -45q72 -50 72 -129q0 -14 -5.5 -26.5t-15 -23t-21.5 -16.5t-25 -6q-33 0 -54 33q-9 12 -14 69q-4 51 -28.5 74t-73.5 23q-156 0 -156 -240q0 -29 2.5 -68.5t7.5 -91.5l8 -92h221v-82h-221q1 -20 1.5 -34t0.5 -23q0 -148 -53 -307q162 -54 191 -60
q43 -10 88 -10q141 0 180 137zM254 147q-38 23 -72 23q-82 0 -82 -74q0 -67 56 -67q70 0 98 118z" />
    <glyph glyph-name="section" unicode="&#xa7;" horiz-adv-x="874" 
d="M741 412q0 -179 -188 -293q104 -116 104 -217q0 -103 -69 -173q-68 -71 -172 -71q-83 0 -150 56q-65 56 -65 136q0 15 5.5 28.5t14.5 24t21 17t26 6.5q64 0 64 -76q0 -14 -8 -46q-7 -29 -7 -46q0 -32 37 -51q31 -16 66 -16q58 0 104 43q47 44 47 98q0 109 -176 240
q-122 91 -174 153q-88 100 -88 205q0 175 189 291q-105 117 -105 221q0 101 69 172q70 70 173 70q86 0 151 -54q66 -53 66 -135q0 -77 -68 -77q-67 0 -67 67q0 11 6 40q6 28 6 42q0 80 -94 80q-62 0 -105 -43t-43 -107q0 -55 23 -90q38 -60 129 -125q125 -92 184 -157
q94 -104 94 -213zM655 332q0 119 -192 268q-37 29 -65 52t-48 42q-129 -78 -129 -190q0 -80 66 -158q20 -23 53.5 -51.5t79.5 -63.5q31 -23 56.5 -44.5t47.5 -41.5q131 78 131 187z" />
    <glyph glyph-name="copyright" unicode="&#xa9;" horiz-adv-x="1335" 
d="M1274 580q0 -163 -82 -306q-83 -143 -226 -222q-142 -79 -298 -79q-163 0 -306 82q-143 83 -222 224q-79 142 -79 301q0 163 84 307q84 146 226 222q143 77 297 77q161 0 304 -81q144 -81 222 -220q80 -146 80 -305zM1223 580q0 150 -76 280q-77 132 -208 203
q-132 72 -271 72q-148 0 -278 -75t-202 -202q-73 -133 -73 -278q0 -148 74 -279q76 -132 205 -203q131 -71 274 -71q148 0 279 74q129 74 203 205q73 130 73 274zM999 369q-119 -174 -327 -174q-165 0 -281 107q-115 108 -115 273q0 175 127 287q121 109 299 109
q60 0 158 -33q21 -6 31 -6q27 0 43 37h35l16 -238h-33q-62 201 -260 201q-138 0 -215 -107q-59 -85 -59 -225q0 -354 282 -354q169 0 269 139z" />
    <glyph glyph-name="guillemotleft" unicode="&#xab;" horiz-adv-x="1024" 
d="M961 -8h-60l-393 473l393 469h60l-244 -469zM508 -8h-57l-388 473l388 469h57l-244 -469z" />
    <glyph glyph-name="paragraph" unicode="&#xb6;" horiz-adv-x="792" 
d="M797 1112h-115v-1491h-61v1491h-160v-1491h-62v893q-137 6 -209 31q-108 34 -159 125q-43 74 -43 170q0 189 170 278q84 41 215 41h424v-47z" />
    <glyph glyph-name="periodcentered" unicode="&#xb7;" horiz-adv-x="512" 
d="M367 678q0 -48 -31.5 -79.5t-79.5 -31.5q-45 0 -78 33t-33 78q0 48 31.5 79t79.5 31t79.5 -31t31.5 -79z" />
    <glyph glyph-name="guillemotright" unicode="&#xbb;" horiz-adv-x="1024" 
d="M961 463l-388 -471h-57l244 471l-244 471h57zM516 463l-393 -471h-60l244 471l-244 471h60z" />
    <glyph glyph-name="onequarter" unicode="&#xbc;" horiz-adv-x="1312" 
d="M1283 123h-92v-158h-100v158h-293v61l319 398h74v-389h92v-70zM1103 1184l-799 -1231h-76l799 1231h76zM405 567h-277v29q74 0 82 18q4 9 4 64v319q0 87 -12 101q-5 4 -17 4q-17 0 -57 -17l-14 23l176 76h28v-506q0 -51 7 -64q10 -18 80 -18v-29zM1091 193v268l-224 -268
h224z" />
    <glyph glyph-name="onehalf" unicode="&#xbd;" horiz-adv-x="1312" 
d="M1277 96l-53 -131h-422v27q323 251 323 389q0 55 -35.5 89t-89.5 34q-103 0 -141 -101h-39q27 179 207 179q78 0 137 -41q68 -45 68 -119q0 -134 -293 -373h160q110 0 139 47h39zM1082 1184l-798 -1231h-76l799 1231h75zM405 567h-277v29q74 0 82 18q4 9 4 64v319
q0 87 -12 101q-5 4 -17 4q-17 0 -57 -17l-14 23l176 76h28v-506q0 -51 7 -64q10 -18 80 -18v-29z" />
    <glyph glyph-name="threequarters" unicode="&#xbe;" horiz-adv-x="1312" 
d="M1283 123h-92v-158h-100v158h-293v61l319 398h74v-389h92v-70zM1091 1184l-797 -1231h-76l799 1231h74zM445 770q0 -107 -92 -166q-79 -49 -192 -49q-125 0 -125 53q0 39 49 39q23 0 71 -21q49 -20 76 -20q47 0 82 33t35 80q0 145 -198 141v25q59 0 107 36q48 37 48 97
q0 94 -104 94q-73 0 -125 -76l-33 15q66 133 197 133q63 0 112 -31q58 -37 58 -96q0 -58 -90 -131q124 -45 124 -156zM1091 193v268l-222 -268h222z" />
    <glyph glyph-name="multiply" unicode="&#xd7;" horiz-adv-x="987" 
d="M844 281l-49 -50l-303 304l-302 -304l-49 50l301 301l-301 301l52 49l299 -299l301 299l49 -47l-301 -301z" />
    <glyph glyph-name="divide" unicode="&#xf7;" horiz-adv-x="1124" 
d="M648 987q0 -18 -7 -33.5t-19 -27t-28 -18.5t-34 -7t-34 7t-28 18.5t-19 27t-7 33.5q0 37 25.5 62.5t62.5 25.5q39 0 63.5 -24.5t24.5 -63.5zM1101 641h-1079v82h1079v-82zM648 367q0 -37 -25.5 -62.5t-62.5 -25.5q-18 0 -34 7t-28 19t-19 28t-7 34t7 34t19 28t28 19t34 7
q39 0 63.5 -26t24.5 -62z" />
    <glyph glyph-name="etnahta" unicode="&#x591;" 
d="M657 770q0 -119 -83 -202t-203 -83q-118 0 -200 84q-83 85 -83 201q0 118 83 203q82 84 200 84q120 0 203 -84q83 -85 83 -203zM578 770q0 88 -60 148q-58 61 -147 61q-86 0 -146 -61q-59 -61 -59 -148q0 -84 59 -146q60 -61 146 -61q89 0 147 61q60 61 60 146z" />
    <glyph glyph-name="segolta" unicode="&#x592;" 
d="M657 770q0 -119 -83 -202t-203 -83q-118 0 -200 84q-83 85 -83 201q0 118 83 203q82 84 200 84q120 0 203 -84q83 -85 83 -203zM578 770q0 88 -60 148q-58 61 -147 61q-86 0 -146 -61q-59 -61 -59 -148q0 -84 59 -146q60 -61 146 -61q89 0 147 61q60 61 60 146z" />
    <glyph glyph-name="shalshelet" unicode="&#x593;" 
d="M657 770q0 -119 -83 -202t-203 -83q-118 0 -200 84q-83 85 -83 201q0 118 83 203q82 84 200 84q120 0 203 -84q83 -85 83 -203zM578 770q0 88 -60 148q-58 61 -147 61q-86 0 -146 -61q-59 -61 -59 -148q0 -84 59 -146q60 -61 146 -61q89 0 147 61q60 61 60 146z" />
    <glyph glyph-name="zaqefkatan" unicode="&#x594;" 
d="M657 770q0 -119 -83 -202t-203 -83q-118 0 -200 84q-83 85 -83 201q0 118 83 203q82 84 200 84q120 0 203 -84q83 -85 83 -203zM578 770q0 88 -60 148q-58 61 -147 61q-86 0 -146 -61q-59 -61 -59 -148q0 -84 59 -146q60 -61 146 -61q89 0 147 61q60 61 60 146z" />
    <glyph glyph-name="zaqefgadol" unicode="&#x595;" 
d="M657 770q0 -119 -83 -202t-203 -83q-118 0 -200 84q-83 85 -83 201q0 118 83 203q82 84 200 84q120 0 203 -84q83 -85 83 -203zM578 770q0 88 -60 148q-58 61 -147 61q-86 0 -146 -61q-59 -61 -59 -148q0 -84 59 -146q60 -61 146 -61q89 0 147 61q60 61 60 146z" />
    <glyph glyph-name="tipeha" unicode="&#x596;" 
d="M657 770q0 -119 -83 -202t-203 -83q-118 0 -200 84q-83 85 -83 201q0 118 83 203q82 84 200 84q120 0 203 -84q83 -85 83 -203zM578 770q0 88 -60 148q-58 61 -147 61q-86 0 -146 -61q-59 -61 -59 -148q0 -84 59 -146q60 -61 146 -61q89 0 147 61q60 61 60 146z" />
    <glyph glyph-name="revia" unicode="&#x597;" 
d="M657 770q0 -119 -83 -202t-203 -83q-118 0 -200 84q-83 85 -83 201q0 118 83 203q82 84 200 84q120 0 203 -84q83 -85 83 -203zM578 770q0 88 -60 148q-58 61 -147 61q-86 0 -146 -61q-59 -61 -59 -148q0 -84 59 -146q60 -61 146 -61q89 0 147 61q60 61 60 146z" />
    <glyph glyph-name="zarqa" unicode="&#x598;" 
d="M657 770q0 -119 -83 -202t-203 -83q-118 0 -200 84q-83 85 -83 201q0 118 83 203q82 84 200 84q120 0 203 -84q83 -85 83 -203zM578 770q0 88 -60 148q-58 61 -147 61q-86 0 -146 -61q-59 -61 -59 -148q0 -84 59 -146q60 -61 146 -61q89 0 147 61q60 61 60 146z" />
    <glyph glyph-name="pashta" unicode="&#x599;" 
d="M657 770q0 -119 -83 -202t-203 -83q-118 0 -200 84q-83 85 -83 201q0 118 83 203q82 84 200 84q120 0 203 -84q83 -85 83 -203zM578 770q0 88 -60 148q-58 61 -147 61q-86 0 -146 -61q-59 -61 -59 -148q0 -84 59 -146q60 -61 146 -61q89 0 147 61q60 61 60 146z" />
    <glyph glyph-name="yetiv" unicode="&#x59a;" 
d="M657 770q0 -119 -83 -202t-203 -83q-118 0 -200 84q-83 85 -83 201q0 118 83 203q82 84 200 84q120 0 203 -84q83 -85 83 -203zM578 770q0 88 -60 148q-58 61 -147 61q-86 0 -146 -61q-59 -61 -59 -148q0 -84 59 -146q60 -61 146 -61q89 0 147 61q60 61 60 146z" />
    <glyph glyph-name="tevir" unicode="&#x59b;" 
d="M657 770q0 -119 -83 -202t-203 -83q-118 0 -200 84q-83 85 -83 201q0 118 83 203q82 84 200 84q120 0 203 -84q83 -85 83 -203zM578 770q0 88 -60 148q-58 61 -147 61q-86 0 -146 -61q-59 -61 -59 -148q0 -84 59 -146q60 -61 146 -61q89 0 147 61q60 61 60 146z" />
    <glyph glyph-name="gereshac" unicode="&#x59c;" 
d="M657 770q0 -119 -83 -202t-203 -83q-118 0 -200 84q-83 85 -83 201q0 118 83 203q82 84 200 84q120 0 203 -84q83 -85 83 -203zM578 770q0 88 -60 148q-58 61 -147 61q-86 0 -146 -61q-59 -61 -59 -148q0 -84 59 -146q60 -61 146 -61q89 0 147 61q60 61 60 146z" />
    <glyph glyph-name="gereshmuqdam" unicode="&#x59d;" 
d="M657 770q0 -119 -83 -202t-203 -83q-118 0 -200 84q-83 85 -83 201q0 118 83 203q82 84 200 84q120 0 203 -84q83 -85 83 -203zM578 770q0 88 -60 148q-58 61 -147 61q-86 0 -146 -61q-59 -61 -59 -148q0 -84 59 -146q60 -61 146 -61q89 0 147 61q60 61 60 146z" />
    <glyph glyph-name="gershayimac" unicode="&#x59e;" 
d="M657 770q0 -119 -83 -202t-203 -83q-118 0 -200 84q-83 85 -83 201q0 118 83 203q82 84 200 84q120 0 203 -84q83 -85 83 -203zM578 770q0 88 -60 148q-58 61 -147 61q-86 0 -146 -61q-59 -61 -59 -148q0 -84 59 -146q60 -61 146 -61q89 0 147 61q60 61 60 146z" />
    <glyph glyph-name="qarneyparah" unicode="&#x59f;" 
d="M657 770q0 -119 -83 -202t-203 -83q-118 0 -200 84q-83 85 -83 201q0 118 83 203q82 84 200 84q120 0 203 -84q83 -85 83 -203zM578 770q0 88 -60 148q-58 61 -147 61q-86 0 -146 -61q-59 -61 -59 -148q0 -84 59 -146q60 -61 146 -61q89 0 147 61q60 61 60 146z" />
    <glyph glyph-name="telishagedola" unicode="&#x5a0;" 
d="M657 770q0 -119 -83 -202t-203 -83q-118 0 -200 84q-83 85 -83 201q0 118 83 203q82 84 200 84q120 0 203 -84q83 -85 83 -203zM578 770q0 88 -60 148q-58 61 -147 61q-86 0 -146 -61q-59 -61 -59 -148q0 -84 59 -146q60 -61 146 -61q89 0 147 61q60 61 60 146z" />
    <glyph glyph-name="pazer" unicode="&#x5a1;" 
d="M657 770q0 -119 -83 -202t-203 -83q-118 0 -200 84q-83 85 -83 201q0 118 83 203q82 84 200 84q120 0 203 -84q83 -85 83 -203zM578 770q0 88 -60 148q-58 61 -147 61q-86 0 -146 -61q-59 -61 -59 -148q0 -84 59 -146q60 -61 146 -61q89 0 147 61q60 61 60 146z" />
    <glyph glyph-name="munah" unicode="&#x5a3;" 
d="M657 770q0 -119 -83 -202t-203 -83q-118 0 -200 84q-83 85 -83 201q0 118 83 203q82 84 200 84q120 0 203 -84q83 -85 83 -203zM578 770q0 88 -60 148q-58 61 -147 61q-86 0 -146 -61q-59 -61 -59 -148q0 -84 59 -146q60 -61 146 -61q89 0 147 61q60 61 60 146z" />
    <glyph glyph-name="mahapakh" unicode="&#x5a4;" 
d="M657 770q0 -119 -83 -202t-203 -83q-118 0 -200 84q-83 85 -83 201q0 118 83 203q82 84 200 84q120 0 203 -84q83 -85 83 -203zM578 770q0 88 -60 148q-58 61 -147 61q-86 0 -146 -61q-59 -61 -59 -148q0 -84 59 -146q60 -61 146 -61q89 0 147 61q60 61 60 146z" />
    <glyph glyph-name="merkha" unicode="&#x5a5;" 
d="M657 770q0 -119 -83 -202t-203 -83q-118 0 -200 84q-83 85 -83 201q0 118 83 203q82 84 200 84q120 0 203 -84q83 -85 83 -203zM578 770q0 88 -60 148q-58 61 -147 61q-86 0 -146 -61q-59 -61 -59 -148q0 -84 59 -146q60 -61 146 -61q89 0 147 61q60 61 60 146z" />
    <glyph glyph-name="merkhakefula" unicode="&#x5a6;" 
d="M657 770q0 -119 -83 -202t-203 -83q-118 0 -200 84q-83 85 -83 201q0 118 83 203q82 84 200 84q120 0 203 -84q83 -85 83 -203zM578 770q0 88 -60 148q-58 61 -147 61q-86 0 -146 -61q-59 -61 -59 -148q0 -84 59 -146q60 -61 146 -61q89 0 147 61q60 61 60 146z" />
    <glyph glyph-name="darga" unicode="&#x5a7;" 
d="M657 770q0 -119 -83 -202t-203 -83q-118 0 -200 84q-83 85 -83 201q0 118 83 203q82 84 200 84q120 0 203 -84q83 -85 83 -203zM578 770q0 88 -60 148q-58 61 -147 61q-86 0 -146 -61q-59 -61 -59 -148q0 -84 59 -146q60 -61 146 -61q89 0 147 61q60 61 60 146z" />
    <glyph glyph-name="qadma" unicode="&#x5a8;" 
d="M657 770q0 -119 -83 -202t-203 -83q-118 0 -200 84q-83 85 -83 201q0 118 83 203q82 84 200 84q120 0 203 -84q83 -85 83 -203zM578 770q0 88 -60 148q-58 61 -147 61q-86 0 -146 -61q-59 -61 -59 -148q0 -84 59 -146q60 -61 146 -61q89 0 147 61q60 61 60 146z" />
    <glyph glyph-name="telishaqetana" unicode="&#x5a9;" 
d="M657 770q0 -119 -83 -202t-203 -83q-118 0 -200 84q-83 85 -83 201q0 118 83 203q82 84 200 84q120 0 203 -84q83 -85 83 -203zM578 770q0 88 -60 148q-58 61 -147 61q-86 0 -146 -61q-59 -61 -59 -148q0 -84 59 -146q60 -61 146 -61q89 0 147 61q60 61 60 146z" />
    <glyph glyph-name="yerahbenyomo" unicode="&#x5aa;" 
d="M657 770q0 -119 -83 -202t-203 -83q-118 0 -200 84q-83 85 -83 201q0 118 83 203q82 84 200 84q120 0 203 -84q83 -85 83 -203zM578 770q0 88 -60 148q-58 61 -147 61q-86 0 -146 -61q-59 -61 -59 -148q0 -84 59 -146q60 -61 146 -61q89 0 147 61q60 61 60 146z" />
    <glyph glyph-name="ole" unicode="&#x5ab;" 
d="M657 770q0 -119 -83 -202t-203 -83q-118 0 -200 84q-83 85 -83 201q0 118 83 203q82 84 200 84q120 0 203 -84q83 -85 83 -203zM578 770q0 88 -60 148q-58 61 -147 61q-86 0 -146 -61q-59 -61 -59 -148q0 -84 59 -146q60 -61 146 -61q89 0 147 61q60 61 60 146z" />
    <glyph glyph-name="iluy" unicode="&#x5ac;" 
d="M657 770q0 -119 -83 -202t-203 -83q-118 0 -200 84q-83 85 -83 201q0 118 83 203q82 84 200 84q120 0 203 -84q83 -85 83 -203zM578 770q0 88 -60 148q-58 61 -147 61q-86 0 -146 -61q-59 -61 -59 -148q0 -84 59 -146q60 -61 146 -61q89 0 147 61q60 61 60 146z" />
    <glyph glyph-name="dehi" unicode="&#x5ad;" 
d="M657 770q0 -119 -83 -202t-203 -83q-118 0 -200 84q-83 85 -83 201q0 118 83 203q82 84 200 84q120 0 203 -84q83 -85 83 -203zM578 770q0 88 -60 148q-58 61 -147 61q-86 0 -146 -61q-59 -61 -59 -148q0 -84 59 -146q60 -61 146 -61q89 0 147 61q60 61 60 146z" />
    <glyph glyph-name="zinor" unicode="&#x5ae;" 
d="M657 770q0 -119 -83 -202t-203 -83q-118 0 -200 84q-83 85 -83 201q0 118 83 203q82 84 200 84q120 0 203 -84q83 -85 83 -203zM578 770q0 88 -60 148q-58 61 -147 61q-86 0 -146 -61q-59 -61 -59 -148q0 -84 59 -146q60 -61 146 -61q89 0 147 61q60 61 60 146z" />
    <glyph glyph-name="masoracircle" unicode="&#x5af;" 
d="M657 770q0 -119 -83 -202t-203 -83q-118 0 -200 84q-83 85 -83 201q0 118 83 203q82 84 200 84q120 0 203 -84q83 -85 83 -203zM578 770q0 88 -60 148q-58 61 -147 61q-86 0 -146 -61q-59 -61 -59 -148q0 -84 59 -146q60 -61 146 -61q89 0 147 61q60 61 60 146z" />
    <glyph glyph-name="sheva" unicode="&#x5b0;" horiz-adv-x="2" 
d="M88 -243q0 -18 -7 -33.5t-18.5 -27t-27 -18.5t-33.5 -7t-34 7t-28 18.5t-19 27t-7 33.5t7.5 33t19.5 26.5t28 18t33 6.5q37 0 61.5 -24.5t24.5 -59.5zM88 -512q0 -17 -7 -32.5t-18.5 -27.5t-27 -19t-33.5 -7t-34 7t-28 19t-19 27.5t-7 32.5q0 18 7.5 33t19.5 26.5t28 18
t33 6.5q37 0 61.5 -24.5t24.5 -59.5z" />
    <glyph glyph-name="hatafsegol" unicode="&#x5b1;" horiz-adv-x="2" 
d="M-137 -243q0 -18 -7 -33.5t-18.5 -27t-27 -18.5t-33.5 -7q-17 0 -32.5 6.5t-27.5 18t-19 27.5t-7 34q0 16 7 31.5t18.5 27t27 18.5t33.5 7q37 0 61.5 -24.5t24.5 -59.5zM98 -243q0 -18 -7 -33.5t-18.5 -27t-27 -18.5t-33.5 -7q-17 0 -32.5 7t-27.5 18.5t-19.5 27
t-7.5 33.5q0 34 28 59q26 25 59 25q37 0 61.5 -23.5t24.5 -60.5zM-10 -450q0 -18 -7 -33.5t-18.5 -27t-27 -18.5t-33.5 -7q-17 0 -32.5 6.5t-27.5 18t-19 27.5t-7 34q0 35 25.5 59.5t60.5 24.5t60.5 -24.5t25.5 -59.5zM311 -243q0 -15 -6 -27.5t-16.5 -22t-23.5 -15
t-27 -5.5q-70 0 -70 70q0 74 70 74q73 0 73 -74zM311 -458q0 -29 -21.5 -50.5t-51.5 -21.5q-70 0 -70 72q0 30 20.5 50.5t49.5 20.5q73 0 73 -71z" />
    <glyph glyph-name="hatafpatah" unicode="&#x5b2;" horiz-adv-x="2" 
d="M287 -243q0 -29 -22.5 -49.5t-51.5 -20.5q-70 0 -70 70q0 74 70 74q74 0 74 -74zM287 -458q0 -29 -21.5 -50.5t-52.5 -21.5q-70 0 -70 72q0 71 70 71q74 0 74 -71zM-258 -305q-26 0 -26 31v66q0 30 26 30h301q27 0 27 -30v-66q0 -31 -27 -31h-301z" />
    <glyph glyph-name="hatafqamats" unicode="&#x5b3;" horiz-adv-x="2" 
d="M287 -243q0 -29 -22.5 -49.5t-51.5 -20.5q-70 0 -70 70q0 74 70 74q33 0 53.5 -20.5t20.5 -53.5zM287 -458q0 -29 -21.5 -50.5t-52.5 -21.5q-70 0 -70 72q0 71 70 71q74 0 74 -71zM43 -178q27 0 27 -30v-66q0 -31 -27 -31h-118q0 -42 20 -88l23 -51q8 -18 8 -35
t-6.5 -31.5t-18 -26t-26.5 -18t-33 -6.5t-33 6.5t-26.5 18t-18 26t-6.5 31.5t8 35l23 51q22 48 22 88h-119q-26 0 -26 31v66q0 30 26 30h301z" />
    <glyph glyph-name="hiriq" unicode="&#x5b4;" horiz-adv-x="2" 
d="M92 -243q0 -35 -28 -62q-27 -28 -62 -28q-36 0 -64 28q-28 27 -28 62q0 18 7.5 34t20.5 28t29.5 19t34.5 7q39 0 64.5 -25.5t25.5 -62.5z" />
    <glyph glyph-name="tsere" unicode="&#x5b5;" horiz-adv-x="2" 
d="M-45 -243q0 -18 -7 -33.5t-18.5 -27t-27 -18.5t-33.5 -7q-17 0 -32.5 7t-27.5 18.5t-19 27t-7 33.5t7 33t19 26.5t27.5 18t32.5 6.5q86 0 86 -84zM219 -243q0 -18 -7 -33.5t-18.5 -27t-27 -18.5t-33.5 -7t-33.5 7t-27 18.5t-18.5 27t-7 33.5q0 35 25.5 59.5t60.5 24.5
q37 0 61.5 -24.5t24.5 -59.5z" />
    <glyph glyph-name="segol" unicode="&#x5b6;" horiz-adv-x="2" 
d="M-45 -243q0 -18 -7 -33.5t-18.5 -27t-27 -18.5t-33.5 -7q-17 0 -32.5 7t-27.5 18.5t-19 27t-7 33.5t7 33t19 26.5t27.5 18t32.5 6.5q86 0 86 -84zM219 -243q0 -18 -7 -33.5t-18.5 -27t-27 -18.5t-33.5 -7t-33.5 7t-27 18.5t-18.5 27t-7 33.5q0 35 25.5 59.5t60.5 24.5
q37 0 61.5 -24.5t24.5 -59.5zM94 -468q0 -18 -7 -33.5t-18.5 -27.5t-27 -19t-33.5 -7q-17 0 -32.5 7t-27 19t-18.5 27.5t-7 33.5q0 34 25.5 58.5t59.5 24.5q37 0 61.5 -24.5t24.5 -58.5z" />
    <glyph glyph-name="patah" unicode="&#x5b7;" horiz-adv-x="2" 
d="M-190 -305q-27 0 -27 31v66q0 30 27 30h383q26 0 26 -30v-66q0 -31 -26 -31h-383z" />
    <glyph glyph-name="qamats" unicode="&#x5b8;" horiz-adv-x="2" 
d="M193 -178q26 0 26 -30v-66q0 -31 -26 -31h-158q0 -48 18 -88l23 -51q8 -18 8 -35q0 -35 -24.5 -58.5t-57.5 -23.5q-17 0 -32 6.5t-26.5 18t-18 26t-6.5 31.5t8 35l22 51q21 45 21 88h-160q-27 0 -27 31v66q0 30 27 30h383z" />
    <glyph glyph-name="holam" unicode="&#x5b9;" horiz-adv-x="2" 
d="M90 1322q0 -18 -7 -33.5t-18.5 -27t-27 -18.5t-33.5 -7q-17 0 -32.5 7t-27.5 18.5t-19 27t-7 33.5q0 16 7 31.5t19 27t27.5 18.5t32.5 7q39 0 62.5 -23.5t23.5 -60.5z" />
    <glyph glyph-name="shuruq" unicode="&#x5bb;" horiz-adv-x="2" 
d="M92 -243q0 -18 -7 -33.5t-18.5 -27t-27 -18.5t-33.5 -7t-33.5 7t-27 18.5t-18.5 27t-7 33.5q0 35 25.5 59.5t60.5 24.5q86 0 86 -84zM235 -417q0 -18 -7 -33.5t-18.5 -27t-27 -18.5t-33.5 -7q-17 0 -32.5 7t-27 18.5t-18.5 27t-7 33.5t7 33t18.5 26.5t27 18t32.5 6.5
q37 0 61.5 -23.5t24.5 -60.5zM376 -589q0 -18 -7 -33.5t-18.5 -27t-27 -18.5t-33.5 -7q-17 0 -32.5 7t-27.5 18.5t-19 27t-7 33.5q0 32 26 58t60 26q86 0 86 -84z" />
    <glyph glyph-name="dagesh" unicode="&#x5bc;" horiz-adv-x="2" 
d="M86 457q0 -18 -7 -33.5t-18.5 -27t-27 -18.5t-33.5 -7q-17 0 -32.5 7t-27.5 18.5t-19 27t-7 33.5q0 32 27 58q28 26 59 26q37 0 61.5 -23.5t24.5 -60.5z" />
    <glyph glyph-name="meteg" unicode="&#x5bd;" horiz-adv-x="2" 
d="M67 -587q0 -27 -31 -27h-65q-31 0 -31 27v383q0 26 31 26h65q31 0 31 -26v-383z" />
    <glyph glyph-name="maqaf" unicode="&#x5be;" horiz-adv-x="625" 
d="M513 915h-399v178h399v-178z" />
    <glyph glyph-name="rafe" unicode="&#x5bf;" horiz-adv-x="625" 
d="M513 915h-399v178h399v-178z" />
    <glyph glyph-name="paseq" unicode="&#x5c0;" horiz-adv-x="528" 
d="M323 -381h-119v1851h119v-1851z" />
    <glyph glyph-name="shindot" unicode="&#x5c1;" horiz-adv-x="2" 
d="M1266 1322q0 -18 -7 -33.5t-18.5 -27t-27 -18.5t-33.5 -7q-17 0 -32.5 7t-27.5 18.5t-19 27t-7 33.5q0 16 7 31.5t19 27t27.5 18.5t32.5 7q39 0 62.5 -23.5t23.5 -60.5z" />
    <glyph glyph-name="sindot" unicode="&#x5c2;" horiz-adv-x="2" 
d="M316 1322q0 -18 -7 -33.5t-18.5 -27t-27 -18.5t-33.5 -7q-17 0 -32.5 7t-27.5 18.5t-19 27t-7 33.5q0 16 7 31.5t19 27t27.5 18.5t32.5 7q39 0 62.5 -23.5t23.5 -60.5z" />
    <glyph glyph-name="sofpasuq" unicode="&#x5c3;" horiz-adv-x="512" 
d="M231 0q-68 0 -93.5 30.5t-25.5 96.5q0 35 5.5 60t19 41.5t36.5 24t58 7.5q67 0 97 -33.5t30 -99.5q0 -127 -127 -127zM231 741q-68 0 -93.5 30t-25.5 95q0 35 5.5 60t19 41.5t36.5 24t58 7.5q67 0 97 -33.5t30 -99.5q0 -125 -127 -125z" />
    <glyph glyph-name="upperdot" unicode="&#x5c4;" horiz-adv-x="2" 
d="M90 1322q0 -18 -7 -33.5t-18.5 -27t-27 -18.5t-33.5 -7q-17 0 -32.5 7t-27.5 18.5t-19 27t-7 33.5q0 16 7 31.5t19 27t27.5 18.5t32.5 7q39 0 62.5 -23.5t23.5 -60.5z" />
    <glyph glyph-name="alef" unicode="&#x5d0;" horiz-adv-x="1171" 
d="M1117 16l-4 -16h-219l-455 614l-170 -614h-190l233 762l-233 309l8 21h217l393 -517l154 517h197l-232 -670z" />
    <glyph glyph-name="bet" unicode="&#x5d1;" horiz-adv-x="1083" 
d="M90 0v176h610v549q0 88 -42 139t-140 51h-408v177h441q161 0 255 -83q93 -83 93 -280v-553h113v-176h-922z" />
    <glyph glyph-name="gimel" unicode="&#x5d2;" horiz-adv-x="837" 
d="M674 0h-154l-33 328h-24q-35 -123 -80 -198t-80 -103q-22 -21 -53 -36.5t-82 -15.5q-16 0 -37.5 5.5t-44.5 21.5v217q16 -8 41 -13t43 -5q59 0 131 54t129 171q23 48 37 111.5t14 144.5q0 74 -16.5 122t-43.5 76t-61 39t-69 11q-33 0 -71 -9.5t-71 -23.5v174
q33 16 79 23.5t122 7.5q70 0 129.5 -20.5t102.5 -65.5t67.5 -117t24.5 -174v-725z" />
    <glyph glyph-name="dalet" unicode="&#x5d3;" horiz-adv-x="1019" 
d="M917 915h-139v-915h-197v915h-520v177h856v-177z" />
    <glyph glyph-name="he" unicode="&#x5d4;" horiz-adv-x="1218" 
d="M366 0h-199v635h199v-635zM862 700q0 114 -50 164.5t-149 50.5h-514v177h559q168 0 260 -87t92 -284v-721h-198v700z" />
    <glyph glyph-name="vav" unicode="&#x5d5;" horiz-adv-x="542" 
d="M373 0h-199v1092h199v-1092z" />
    <glyph glyph-name="zayin" unicode="&#x5d6;" horiz-adv-x="694" 
d="M610 946l-107 -26q-33 -9 -57 -34t-39.5 -61t-21 -81.5t-0.5 -96.5l57 -647h-191l-36 401q-7 72 -8.5 136.5t9 126.5t37 123.5t74.5 127.5h-221v177h494z" />
    <glyph glyph-name="het" unicode="&#x5d7;" horiz-adv-x="1257" 
d="M901 705q0 112 -47.5 161t-147.5 49h-333v-915h-199v1092h578q168 0 257 -85q91 -85 91 -282v-725h-199v705z" />
    <glyph glyph-name="tet" unicode="&#x5d8;" horiz-adv-x="1234" 
d="M1103 954l-22 -495q-6 -130 -36.5 -221t-99.5 -152q-74 -66 -173 -84t-224 -18q-49 0 -98.5 3t-100.5 8t-93.5 14t-78.5 20l-63 1063h207l39 -914q17 -5 39 -9t51 -8t55 -5.5t51 -1.5q77 0 137 10.5t101.5 40t64.5 81.5t27 136l19 493h-318v177h516v-138z" />
    <glyph glyph-name="yod" unicode="&#x5d9;" horiz-adv-x="501" 
d="M348 469h-199v623h199v-623z" />
    <glyph glyph-name="finalkaf" unicode="&#x5da;" horiz-adv-x="1030" 
d="M77 1092h442q168 0 260 -87q93 -87 93 -284v-1059h-199v1038q0 114 -50 164.5t-147 50.5h-399v177z" />
    <glyph glyph-name="kaf" unicode="&#x5db;" horiz-adv-x="1026" 
d="M943 545q0 -125 -34.5 -228.5t-100.5 -177.5t-160.5 -114.5t-214.5 -40.5q-56 0 -111 2.5t-102 6.5t-83 8.5t-54 8.5v180q24 -6 62 -11t81 -8t86 -5t78 -2q93 0 165.5 27.5t117.5 87.5q68 89 68 268q0 86 -22 158t-66 123.5t-112 80.5t-159 29q-42 0 -87.5 -4.5
t-87.5 -11.5t-76 -16t-52 -17v172q20 12 56.5 21t83 14.5t98.5 8.5t102 3q136 0 235 -40.5t163 -114.5t95 -178t31 -230z" />
    <glyph glyph-name="lamed" unicode="&#x5dc;" horiz-adv-x="1048" 
d="M922 1092v-76l-52 -576q-8 -96 -38.5 -178t-87 -142.5t-141.5 -95t-202 -34.5q-49 0 -85.5 1t-53.5 9v160h143q135 0 201 65t76 203l41 487h-637v488h199v-311h637z" />
    <glyph glyph-name="finalmem" unicode="&#x5dd;" horiz-adv-x="1277" 
d="M174 0v1092h588q168 0 260 -87t92 -284v-721h-940zM373 176h542v524q0 114 -49.5 164.5t-148.5 50.5h-344v-739z" />
    <glyph glyph-name="mem" unicode="&#x5de;" horiz-adv-x="1282" 
d="M1117 0h-536v178h340v514q0 72 -18.5 120t-49.5 77t-72 41t-86 12q-93 0 -167 -50q-72 -49 -119 -124l-94 -768h-197l84 647q8 64 7.5 107t-10 80t-28.5 76t-49 96l-45 86h203l82 -138q51 44 99 74t95 48t93 26t94 8q76 0 144 -20t119 -67t81 -124t30 -190v-709z" />
    <glyph glyph-name="finalnun" unicode="&#x5df;" horiz-adv-x="540" 
d="M371 -338h-197v1430h197v-1430z" />
    <glyph glyph-name="nun" unicode="&#x5e0;" horiz-adv-x="792" 
d="M629 0h-539v180h340v522q0 130 -43 177q-43 49 -133 49q-21 0 -59 -7q-40 -6 -58 -16v172q17 6 40.5 10.5t49 7.5t50.5 4t46 1q138 0 222 -84t84 -277v-739z" />
    <glyph glyph-name="samekh" unicode="&#x5e1;" horiz-adv-x="1245" 
d="M1153 565q0 -127 -39 -234.5t-108 -185.5t-164.5 -121.5t-208.5 -43.5q-108 0 -206 33.5t-172.5 104.5t-118.5 181t-44 264q0 126 35 229.5t101.5 178t163.5 115t222 40.5q254 0 396 -136q143 -137 143 -425zM946 555q0 90 -18 165.5t-57.5 130.5t-102 85.5t-150.5 30.5
q-95 0 -157 -34.5t-99 -91.5t-51.5 -130.5t-13.5 -151.5q0 -204 91 -308q92 -104 236 -104q148 0 235 104q87 105 87 304z" />
    <glyph glyph-name="ayin" unicode="&#x5e2;" horiz-adv-x="1179" 
d="M1050 1092l-24 -367q-6 -102 -19.5 -178t-33 -133.5t-44 -100.5t-53.5 -80q-31 -37 -77.5 -72.5t-101 -67.5t-114 -59t-116.5 -48q-100 -37 -189 -68t-176 -51v188q54 11 129.5 31t157.5 55l-297 951h217l254 -885q14 8 30.5 16.5t34.5 18.5q19 10 32.5 18t21.5 14
q59 44 93 112q34 69 42 198l31 508h202z" />
    <glyph glyph-name="finalpe" unicode="&#x5e3;" horiz-adv-x="1232" 
d="M1068 -338h-194v1020q0 82 -24.5 137t-66 87t-95.5 45.5t-113 13.5q-78 0 -132 -17.5t-87.5 -47t-48.5 -68.5t-15 -82q0 -48 16.5 -83.5t49.5 -52.5h266v-165h-385q-53 26 -91 94q-38 70 -38 166q0 98 33.5 176t95.5 132t150 82.5t196 28.5q257 0 369 -121
q114 -120 114 -352v-993z" />
    <glyph glyph-name="pe" unicode="&#x5e4;" horiz-adv-x="1226" 
d="M1117 580q0 -83 -10 -151t-28.5 -124t-46.5 -101.5t-64 -82.5q-66 -68 -159 -104.5t-228 -36.5q-48 0 -103 3.5t-108 9t-99 13.5t-75 17v172q37 -12 83 -20t94 -12.5t94 -6.5t83 -2q88 0 164 22.5t127 79.5q42 45 62 113t20 170v24q0 105 -20 181.5t-62 126t-106.5 73
t-153.5 23.5q-78 0 -132 -17t-87.5 -46t-48.5 -67.5t-15 -80.5q0 -48 15.5 -81.5t48.5 -49.5h268v-166h-385q-31 14 -55 40.5t-40.5 61.5t-25 75.5t-8.5 82.5q0 97 34.5 173.5t98 128.5t152 79.5t196.5 27.5q254 0 387 -134t133 -414z" />
    <glyph glyph-name="finaltsadi" unicode="&#x5e5;" horiz-adv-x="1064" 
d="M952 1092l-340 -693l313 -737h-196l-256 584q-37 86 -86.5 189.5t-104 214.5t-111.5 224t-110 218h217l244 -508l231 508h199z" />
    <glyph glyph-name="tsadi" unicode="&#x5e6;" horiz-adv-x="1122" 
d="M1027 1092l-311 -613l268 -418v-61h-848v176h564l-625 916h233l302 -457l213 457h204z" />
    <glyph glyph-name="qof" unicode="&#x5e7;" horiz-adv-x="1177" 
d="M1091 758q0 -72 -27.5 -155t-91.5 -189l-243 -414h-193l-6 18l293 488q17 29 31 55t24 50q21 48 21 114q0 35 -11.5 68.5t-36 60t-63.5 43t-94 16.5h-551v179h555q132 0 230 -43q100 -44 141 -162q10 -25 16 -58.5t6 -70.5zM364 -338h-192v1032h192v-1032z" />
    <glyph glyph-name="resh" unicode="&#x5e8;" horiz-adv-x="1021" 
d="M870 0h-199v696q0 114 -50 166.5t-147 52.5h-397v177h440q84 0 149.5 -22t111 -67.5t69 -116.5t23.5 -169v-717z" />
    <glyph glyph-name="shin" unicode="&#x5e9;" horiz-adv-x="1458" 
d="M1311 1092l-27 -564q-6 -118 -29.5 -216t-81.5 -167q-73 -88 -191 -124.5t-290 -36.5q-55 0 -123.5 1t-136.5 4.5t-129 10t-102 16.5l-68 1076h201l32 -557q42 -9 90 -5q49 4 78 21q18 9 33 20.5t26 28.5t17 41t6 57l2 394h193l-8 -383q-2 -86 -26 -144t-68.5 -93
t-107.5 -50.5t-142 -15.5h-88l12 -232q20 -4 61 -7t88 -5t92.5 -3t75.5 -1q87 0 156 12.5t118 47t77 96.5t32 161l27 617h201z" />
    <glyph glyph-name="tav" unicode="&#x5ea;" horiz-adv-x="1329" 
d="M1170 0h-198v721q0 113 -43 153q-44 41 -141 41h-342v-649q0 -63 -16.5 -117.5t-51.5 -93.5q-74 -80 -219 -80q-25 0 -63 8q-37 8 -56 21v156q18 -6 34.5 -12.5t37.5 -6.5q56 0 94 27q37 27 37 115v809h588q167 0 253 -77t86 -274v-741z" />
    <glyph glyph-name="vavvav" unicode="&#x5f0;" horiz-adv-x="700" 
d="M609 712q0 -110 -77 -187q-76 -76 -187 -76q-108 0 -185 77t-77 186q0 110 77 187t185 77q110 0 187 -77t77 -187zM536 712q0 81 -56 137q-55 55 -135 55t-135 -55t-55 -137q0 -79 55 -135q56 -56 135 -56t135 56q56 58 56 135z" />
    <glyph glyph-name="vavyod" unicode="&#x5f1;" horiz-adv-x="700" 
d="M609 712q0 -110 -77 -187q-76 -76 -187 -76q-108 0 -185 77t-77 186q0 110 77 187t185 77q110 0 187 -77t77 -187zM536 712q0 81 -56 137q-55 55 -135 55t-135 -55t-55 -137q0 -79 55 -135q56 -56 135 -56t135 56q56 58 56 135z" />
    <glyph glyph-name="yodyod" unicode="&#x5f2;" horiz-adv-x="700" 
d="M609 712q0 -110 -77 -187q-76 -76 -187 -76q-108 0 -185 77t-77 186q0 110 77 187t185 77q110 0 187 -77t77 -187zM536 712q0 81 -56 137q-55 55 -135 55t-135 -55t-55 -137q0 -79 55 -135q56 -56 135 -56t135 56q56 58 56 135z" />
    <glyph glyph-name="geresh" unicode="&#x5f3;" horiz-adv-x="360" 
d="M69 780q43 51 57.5 92t14.5 78q0 23 -12 55q-5 17 -11.5 29.5t-13.5 22.5q-17 22 -22 42.5t-5 47.5q0 43 21 71.5t63 28.5q64 0 95.5 -46t31.5 -124q0 -54 -11.5 -99.5t-34 -85.5t-55.5 -76.5t-77 -72.5z" />
    <glyph glyph-name="gershayim" unicode="&#x5f4;" horiz-adv-x="657" 
d="M69 780q43 51 57.5 92t14.5 78q0 23 -12 55q-5 17 -11.5 29.5t-13.5 22.5q-17 22 -22 42.5t-5 47.5q0 43 21 71.5t63 28.5q64 0 95.5 -46t31.5 -124q0 -54 -11.5 -99.5t-34 -85.5t-55.5 -76.5t-77 -72.5zM364 780q45 51 59.5 92t14.5 78q0 25 -13 55q-6 17 -12.5 29.5
t-13.5 22.5q-17 22 -22 42.5t-5 47.5q0 43 21 71.5t63 28.5q66 0 97.5 -46t31.5 -124q0 -54 -11.5 -99.5t-34 -85.5t-56 -76.5t-76.5 -72.5z" />
    <glyph glyph-name="uni200C" unicode="&#x200c;" 
d="M657 770q0 -119 -83 -202t-203 -83q-118 0 -200 84q-83 85 -83 201q0 118 83 203q82 84 200 84q120 0 203 -84q83 -85 83 -203zM578 770q0 88 -60 148q-58 61 -147 61q-86 0 -146 -61q-59 -61 -59 -148q0 -84 59 -146q60 -61 146 -61q89 0 147 61q60 61 60 146z" />
    <glyph glyph-name="uni200D" unicode="&#x200d;" 
d="M657 770q0 -119 -83 -202t-203 -83q-118 0 -200 84q-83 85 -83 201q0 118 83 203q82 84 200 84q120 0 203 -84q83 -85 83 -203zM578 770q0 88 -60 148q-58 61 -147 61q-86 0 -146 -61q-59 -61 -59 -148q0 -84 59 -146q60 -61 146 -61q89 0 147 61q60 61 60 146z" />
    <glyph glyph-name="uni200E" unicode="&#x200e;" 
d="M657 770q0 -119 -83 -202t-203 -83q-118 0 -200 84q-83 85 -83 201q0 118 83 203q82 84 200 84q120 0 203 -84q83 -85 83 -203zM578 770q0 88 -60 148q-58 61 -147 61q-86 0 -146 -61q-59 -61 -59 -148q0 -84 59 -146q60 -61 146 -61q89 0 147 61q60 61 60 146z" />
    <glyph glyph-name="uni200F" unicode="&#x200f;" 
d="M657 770q0 -119 -83 -202t-203 -83q-118 0 -200 84q-83 85 -83 201q0 118 83 203q82 84 200 84q120 0 203 -84q83 -85 83 -203zM578 770q0 88 -60 148q-58 61 -147 61q-86 0 -146 -61q-59 -61 -59 -148q0 -84 59 -146q60 -61 146 -61q89 0 147 61q60 61 60 146z" />
    <glyph glyph-name="endash" unicode="&#x2013;" horiz-adv-x="954" 
d="M841 455h-727v178h727v-178z" />
    <glyph glyph-name="emdash" unicode="&#x2014;" horiz-adv-x="1272" 
d="M1161 455h-1047v178h1047v-178z" />
    <glyph glyph-name="quoteleft" unicode="&#x2018;" horiz-adv-x="360" 
d="M288 1210q-43 -51 -57.5 -92t-14.5 -78q0 -21 11 -56q11 -30 26 -51q17 -22 22 -42.5t5 -47.5q0 -43 -21 -71.5t-63 -28.5q-64 0 -95.5 46t-31.5 124q0 54 11.5 99.5t34 85.5t55.5 76.5t77 72.5z" />
    <glyph glyph-name="quoteright" unicode="&#x2019;" horiz-adv-x="360" 
d="M69 780q43 51 57.5 92t14.5 78q0 23 -12 55q-5 17 -11.5 29.5t-13.5 22.5q-17 22 -22 42.5t-5 47.5q0 43 21 71.5t63 28.5q64 0 95.5 -46t31.5 -124q0 -54 -11.5 -99.5t-34 -85.5t-55.5 -76.5t-77 -72.5z" />
    <glyph glyph-name="quotedblleft" unicode="&#x201c;" horiz-adv-x="657" 
d="M585 1210q-43 -51 -57.5 -92t-14.5 -78q0 -21 11 -56q11 -30 26 -51q17 -22 22 -42.5t5 -47.5q0 -43 -21 -71.5t-63 -28.5q-64 0 -95.5 46t-31.5 124q0 54 11.5 99.5t34 85.5t55.5 76.5t77 72.5zM290 1210q-45 -51 -59.5 -92t-14.5 -78q0 -23 12 -56q13 -32 27 -51
q17 -22 22 -42.5t5 -47.5q0 -43 -21 -71.5t-63 -28.5q-66 0 -97.5 46t-31.5 124q0 54 11.5 99.5t34 85.5t56 76.5t76.5 72.5z" />
    <glyph glyph-name="quotedblright" unicode="&#x201d;" horiz-adv-x="657" 
d="M69 780q43 51 57.5 92t14.5 78q0 23 -12 55q-5 17 -11.5 29.5t-13.5 22.5q-17 22 -22 42.5t-5 47.5q0 43 21 71.5t63 28.5q64 0 95.5 -46t31.5 -124q0 -54 -11.5 -99.5t-34 -85.5t-55.5 -76.5t-77 -72.5zM364 780q45 51 59.5 92t14.5 78q0 25 -13 55q-6 17 -12.5 29.5
t-13.5 22.5q-17 22 -22 42.5t-5 47.5q0 43 21 71.5t63 28.5q66 0 97.5 -46t31.5 -124q0 -54 -11.5 -99.5t-34 -85.5t-56 -76.5t-76.5 -72.5z" />
    <glyph glyph-name="middot.001" unicode="&#x2022;" horiz-adv-x="612" 
d="M524 580q0 -92 -63 -153q-62 -62 -150 -62q-89 0 -153 62q-62 62 -62 153q0 90 61 151q62 62 154 62q89 0 151 -62t62 -151z" />
    <glyph glyph-name="uni2039" unicode="&#x2039;" horiz-adv-x="681" 
d="M562 -8h-57l-387 473l387 469h57l-244 -469z" />
    <glyph glyph-name="uni203A" unicode="&#x203a;" horiz-adv-x="681" 
d="M566 463l-395 -471h-57l243 471l-243 471h57z" />
    <glyph glyph-name="newsheqelsign" unicode="&#x20aa;" horiz-adv-x="1538" 
d="M928 -20q-101 0 -204 9t-226 36v651h166v-502q88 -12 154 -15t108 -3q81 0 138 9t92 33.5t51 66.5t16 108v706h176v-694q0 -120 -34.5 -198t-96.5 -124t-148.5 -64.5t-191.5 -18.5zM854 369v321q0 132 -58 181q-57 51 -186 51q-61 0 -136.5 -4.5t-168.5 -14.5v-901h-176
v1053q58 7 114 13.5t114.5 11.5t122.5 8t138 4q116 0 193.5 -21.5t124 -69.5t65.5 -125t19 -188v-319h-166z" />
    <glyph glyph-name="bullet" unicode="&#x22c5;" horiz-adv-x="662" 
d="M565 627q0 -98 -68 -166q-68 -66 -161 -66q-99 0 -166 66q-68 68 -68 166t67 164q67 67 167 67q96 0 162 -67q67 -66 67 -164z" />
    <glyph glyph-name="uni25A0" unicode="&#x25a0;" 
d="M657 770q0 -119 -83 -202t-203 -83q-118 0 -200 84q-83 85 -83 201q0 118 83 203q82 84 200 84q120 0 203 -84q83 -85 83 -203zM578 770q0 88 -60 148q-58 61 -147 61q-86 0 -146 -61q-59 -61 -59 -148q0 -84 59 -146q60 -61 146 -61q89 0 147 61q60 61 60 146z" />
    <glyph glyph-name="uni25A1" unicode="&#x25a1;" 
d="M657 770q0 -119 -83 -202t-203 -83q-118 0 -200 84q-83 85 -83 201q0 118 83 203q82 84 200 84q120 0 203 -84q83 -85 83 -203zM578 770q0 88 -60 148q-58 61 -147 61q-86 0 -146 -61q-59 -61 -59 -148q0 -84 59 -146q60 -61 146 -61q89 0 147 61q60 61 60 146z" />
    <glyph glyph-name="uni25C6" unicode="&#x25c6;" 
d="M657 770q0 -119 -83 -202t-203 -83q-118 0 -200 84q-83 85 -83 201q0 118 83 203q82 84 200 84q120 0 203 -84q83 -85 83 -203zM578 770q0 88 -60 148q-58 61 -147 61q-86 0 -146 -61q-59 -61 -59 -148q0 -84 59 -146q60 -61 146 -61q89 0 147 61q60 61 60 146z" />
    <glyph glyph-name="uni25C7" unicode="&#x25c7;" 
d="M657 770q0 -119 -83 -202t-203 -83q-118 0 -200 84q-83 85 -83 201q0 118 83 203q82 84 200 84q120 0 203 -84q83 -85 83 -203zM578 770q0 88 -60 148q-58 61 -147 61q-86 0 -146 -61q-59 -61 -59 -148q0 -84 59 -146q60 -61 146 -61q89 0 147 61q60 61 60 146z" />
    <glyph glyph-name="uni25CB" unicode="&#x25cb;" 
d="M657 770q0 -119 -83 -202t-203 -83q-118 0 -200 84q-83 85 -83 201q0 118 83 203q82 84 200 84q120 0 203 -84q83 -85 83 -203zM578 770q0 88 -60 148q-58 61 -147 61q-86 0 -146 -61q-59 -61 -59 -148q0 -84 59 -146q60 -61 146 -61q89 0 147 61q60 61 60 146z" />
    <glyph glyph-name="uni25CC" unicode="&#x25cc;" 
d="M657 770q0 -119 -83 -202t-203 -83q-118 0 -200 84q-83 85 -83 201q0 118 83 203q82 84 200 84q120 0 203 -84q83 -85 83 -203zM578 770q0 88 -60 148q-58 61 -147 61q-86 0 -146 -61q-59 -61 -59 -148q0 -84 59 -146q60 -61 146 -61q89 0 147 61q60 61 60 146z" />
    <glyph glyph-name="uni2605" unicode="&#x2605;" 
d="M657 770q0 -119 -83 -202t-203 -83q-118 0 -200 84q-83 85 -83 201q0 118 83 203q82 84 200 84q120 0 203 -84q83 -85 83 -203zM578 770q0 88 -60 148q-58 61 -147 61q-86 0 -146 -61q-59 -61 -59 -148q0 -84 59 -146q60 -61 146 -61q89 0 147 61q60 61 60 146z" />
    <glyph glyph-name="uni274F" unicode="&#x274f;" 
d="M657 770q0 -119 -83 -202t-203 -83q-118 0 -200 84q-83 85 -83 201q0 118 83 203q82 84 200 84q120 0 203 -84q83 -85 83 -203zM578 770q0 88 -60 148q-58 61 -147 61q-86 0 -146 -61q-59 -61 -59 -148q0 -84 59 -146q60 -61 146 -61q89 0 147 61q60 61 60 146z" />
    <glyph glyph-name="finalkafsheva" unicode="&#xe802;" horiz-adv-x="1030" 
d="M77 1092h442q168 0 260 -87q93 -87 93 -284v-1059h-199v1038q0 114 -50 164.5t-147 50.5h-399v177zM414 356q0 -18 -7 -33.5t-18.5 -27t-27 -18.5t-33.5 -7t-34 7t-28 18.5t-19 27t-7 33.5t7.5 33t19.5 26.5t28 18t33 6.5q37 0 61.5 -24.5t24.5 -59.5zM414 87
q0 -17 -7 -32.5t-18.5 -27.5t-27 -19t-33.5 -7t-34 7t-28 19t-19 27.5t-7 32.5q0 18 7.5 33t19.5 26.5t28 18t33 6.5q37 0 61.5 -24.5t24.5 -59.5z" />
    <glyph glyph-name="finalkafqamats" unicode="&#xe803;" horiz-adv-x="1030" 
d="M77 1092h442q168 0 260 -87q93 -87 93 -284v-1059h-199v1038q0 114 -50 164.5t-147 50.5h-399v177zM518 386q26 0 26 -30v-66q0 -31 -26 -31h-158q0 -48 18 -88l23 -51q8 -18 8 -35q0 -35 -24.5 -58.5t-57.5 -23.5q-17 0 -32 6.5t-26.5 18t-18 26t-6.5 31.5t8 35l22 51
q21 45 21 88h-160q-27 0 -27 31v66q0 30 27 30h383z" />
    <glyph glyph-name="lamedholam" unicode="&#xe804;" horiz-adv-x="1048" 
d="M922 1092v-76l-52 -576q-8 -96 -38.5 -178t-87 -142.5t-141.5 -95t-202 -34.5q-49 0 -85.5 1t-53.5 9v160h143q135 0 201 65t76 203l41 487h-637v488h199v-311h637zM40 1322q0 -18 -7 -33.5t-18.5 -27t-27 -18.5t-33.5 -7q-17 0 -32.5 7t-27.5 18.5t-19 27t-7 33.5
q0 16 7 31.5t19 27t27.5 18.5t32.5 7q39 0 62.5 -23.5t23.5 -60.5z" />
    <glyph glyph-name="lameddageshholam" unicode="&#xe805;" horiz-adv-x="1048" 
d="M922 1092v-76l-52 -576q-8 -96 -38.5 -178t-87 -142.5t-141.5 -95t-202 -34.5q-49 0 -85.5 1t-53.5 9v160h143q135 0 201 65t76 203l41 487h-637v488h199v-311h637zM428 545q0 -18 -7 -33.5t-18.5 -27t-27 -18.5t-33.5 -7t-33.5 7t-27 18.5t-18.5 27t-7 33.5q0 32 27 58
q28 26 59 26q37 0 61.5 -23.5t24.5 -60.5zM40 1322q0 -18 -7 -33.5t-18.5 -27t-27 -18.5t-33.5 -7q-17 0 -32.5 7t-27.5 18.5t-19 27t-7 33.5q0 16 7 31.5t19 27t27.5 18.5t32.5 7q39 0 62.5 -23.5t23.5 -60.5z" />
    <glyph glyph-name="yodhiriq" unicode="&#xfb1d;" horiz-adv-x="700" 
d="M609 712q0 -110 -77 -187q-76 -76 -187 -76q-108 0 -185 77t-77 186q0 110 77 187t185 77q110 0 187 -77t77 -187zM536 712q0 81 -56 137q-55 55 -135 55t-135 -55t-55 -137q0 -79 55 -135q56 -56 135 -56t135 56q56 58 56 135z" />
    <glyph glyph-name="uniFB1E" unicode="&#xfb1e;" horiz-adv-x="700" 
d="M609 712q0 -110 -77 -187q-76 -76 -187 -76q-108 0 -185 77t-77 186q0 110 77 187t185 77q110 0 187 -77t77 -187zM536 712q0 81 -56 137q-55 55 -135 55t-135 -55t-55 -137q0 -79 55 -135q56 -56 135 -56t135 56q56 58 56 135z" />
    <glyph glyph-name="doubleyodpatah" unicode="&#xfb1f;" horiz-adv-x="700" 
d="M609 712q0 -110 -77 -187q-76 -76 -187 -76q-108 0 -185 77t-77 186q0 110 77 187t185 77q110 0 187 -77t77 -187zM536 712q0 81 -56 137q-55 55 -135 55t-135 -55t-55 -137q0 -79 55 -135q56 -56 135 -56t135 56q56 58 56 135z" />
    <glyph glyph-name="narrowayin" unicode="&#xfb20;" horiz-adv-x="700" 
d="M609 712q0 -110 -77 -187q-76 -76 -187 -76q-108 0 -185 77t-77 186q0 110 77 187t185 77q110 0 187 -77t77 -187zM536 712q0 81 -56 137q-55 55 -135 55t-135 -55t-55 -137q0 -79 55 -135q56 -56 135 -56t135 56q56 58 56 135z" />
    <glyph glyph-name="widealef" unicode="&#xfb21;" horiz-adv-x="700" 
d="M609 712q0 -110 -77 -187q-76 -76 -187 -76q-108 0 -185 77t-77 186q0 110 77 187t185 77q110 0 187 -77t77 -187zM536 712q0 81 -56 137q-55 55 -135 55t-135 -55t-55 -137q0 -79 55 -135q56 -56 135 -56t135 56q56 58 56 135z" />
    <glyph glyph-name="widedalet" unicode="&#xfb22;" horiz-adv-x="700" 
d="M609 712q0 -110 -77 -187q-76 -76 -187 -76q-108 0 -185 77t-77 186q0 110 77 187t185 77q110 0 187 -77t77 -187zM536 712q0 81 -56 137q-55 55 -135 55t-135 -55t-55 -137q0 -79 55 -135q56 -56 135 -56t135 56q56 58 56 135z" />
    <glyph glyph-name="widehe" unicode="&#xfb23;" horiz-adv-x="700" 
d="M609 712q0 -110 -77 -187q-76 -76 -187 -76q-108 0 -185 77t-77 186q0 110 77 187t185 77q110 0 187 -77t77 -187zM536 712q0 81 -56 137q-55 55 -135 55t-135 -55t-55 -137q0 -79 55 -135q56 -56 135 -56t135 56q56 58 56 135z" />
    <glyph glyph-name="widekaf" unicode="&#xfb24;" horiz-adv-x="700" 
d="M609 712q0 -110 -77 -187q-76 -76 -187 -76q-108 0 -185 77t-77 186q0 110 77 187t185 77q110 0 187 -77t77 -187zM536 712q0 81 -56 137q-55 55 -135 55t-135 -55t-55 -137q0 -79 55 -135q56 -56 135 -56t135 56q56 58 56 135z" />
    <glyph glyph-name="widelamed" unicode="&#xfb25;" horiz-adv-x="700" 
d="M609 712q0 -110 -77 -187q-76 -76 -187 -76q-108 0 -185 77t-77 186q0 110 77 187t185 77q110 0 187 -77t77 -187zM536 712q0 81 -56 137q-55 55 -135 55t-135 -55t-55 -137q0 -79 55 -135q56 -56 135 -56t135 56q56 58 56 135z" />
    <glyph glyph-name="widefinalmem" unicode="&#xfb26;" horiz-adv-x="700" 
d="M609 712q0 -110 -77 -187q-76 -76 -187 -76q-108 0 -185 77t-77 186q0 110 77 187t185 77q110 0 187 -77t77 -187zM536 712q0 81 -56 137q-55 55 -135 55t-135 -55t-55 -137q0 -79 55 -135q56 -56 135 -56t135 56q56 58 56 135z" />
    <glyph glyph-name="wideresh" unicode="&#xfb27;" horiz-adv-x="700" 
d="M609 712q0 -110 -77 -187q-76 -76 -187 -76q-108 0 -185 77t-77 186q0 110 77 187t185 77q110 0 187 -77t77 -187zM536 712q0 81 -56 137q-55 55 -135 55t-135 -55t-55 -137q0 -79 55 -135q56 -56 135 -56t135 56q56 58 56 135z" />
    <glyph glyph-name="widetav" unicode="&#xfb28;" horiz-adv-x="700" 
d="M609 712q0 -110 -77 -187q-76 -76 -187 -76q-108 0 -185 77t-77 186q0 110 77 187t185 77q110 0 187 -77t77 -187zM536 712q0 81 -56 137q-55 55 -135 55t-135 -55t-55 -137q0 -79 55 -135q56 -56 135 -56t135 56q56 58 56 135z" />
    <glyph glyph-name="hebplus" unicode="&#xfb29;" horiz-adv-x="954" 
d="M915 463h-872v160h354v358h162v-358h356v-160z" />
    <glyph glyph-name="shinshindot" unicode="&#xfb2a;" horiz-adv-x="1458" 
d="M1311 1092l-27 -564q-6 -118 -29.5 -216t-81.5 -167q-73 -88 -191 -124.5t-290 -36.5q-55 0 -123.5 1t-136.5 4.5t-129 10t-102 16.5l-68 1076h201l32 -557q42 -9 90 -5q49 4 78 21q18 9 33 20.5t26 28.5t17 41t6 57l2 394h193l-8 -383q-2 -86 -26 -144t-68.5 -93
t-107.5 -50.5t-142 -15.5h-88l12 -232q20 -4 61 -7t88 -5t92.5 -3t75.5 -1q87 0 156 12.5t118 47t77 96.5t32 161l27 617h201zM1266 1322q0 -18 -7 -33.5t-18.5 -27t-27 -18.5t-33.5 -7q-17 0 -32.5 7t-27.5 18.5t-19 27t-7 33.5q0 16 7 31.5t19 27t27.5 18.5t32.5 7
q39 0 62.5 -23.5t23.5 -60.5z" />
    <glyph glyph-name="shinsindot" unicode="&#xfb2b;" horiz-adv-x="1458" 
d="M1311 1092l-27 -564q-6 -118 -29.5 -216t-81.5 -167q-73 -88 -191 -124.5t-290 -36.5q-55 0 -123.5 1t-136.5 4.5t-129 10t-102 16.5l-68 1076h201l32 -557q42 -9 90 -5q49 4 78 21q18 9 33 20.5t26 28.5t17 41t6 57l2 394h193l-8 -383q-2 -86 -26 -144t-68.5 -93
t-107.5 -50.5t-142 -15.5h-88l12 -232q20 -4 61 -7t88 -5t92.5 -3t75.5 -1q87 0 156 12.5t118 47t77 96.5t32 161l27 617h201zM316 1322q0 -18 -7 -33.5t-18.5 -27t-27 -18.5t-33.5 -7q-17 0 -32.5 7t-27.5 18.5t-19 27t-7 33.5q0 16 7 31.5t19 27t27.5 18.5t32.5 7
q39 0 62.5 -23.5t23.5 -60.5z" />
    <glyph glyph-name="shindageshshindot" unicode="&#xfb2c;" horiz-adv-x="1458" 
d="M1311 1092l-27 -564q-6 -118 -29.5 -216t-81.5 -167q-73 -88 -191 -124.5t-290 -36.5q-55 0 -123.5 1t-136.5 4.5t-129 10t-102 16.5l-68 1076h201l32 -557q42 -9 90 -5q49 4 78 21q18 9 33 20.5t26 28.5t17 41t6 57l2 394h193l-8 -383q-2 -86 -26 -144t-68.5 -93
t-107.5 -50.5t-142 -15.5h-88l12 -232q20 -4 61 -7t88 -5t92.5 -3t75.5 -1q87 0 156 12.5t118 47t77 96.5t32 161l27 617h201zM1027 605q0 -18 -7 -33.5t-18.5 -27t-27 -18.5t-33.5 -7t-33.5 7t-27 18.5t-18.5 27t-7 33.5q0 32 27 58q28 26 59 26q37 0 61.5 -23.5
t24.5 -60.5zM1266 1322q0 -18 -7 -33.5t-18.5 -27t-27 -18.5t-33.5 -7q-17 0 -32.5 7t-27.5 18.5t-19 27t-7 33.5q0 16 7 31.5t19 27t27.5 18.5t32.5 7q39 0 62.5 -23.5t23.5 -60.5z" />
    <glyph glyph-name="shindageshsindot" unicode="&#xfb2d;" horiz-adv-x="1458" 
d="M1311 1092l-27 -564q-6 -118 -29.5 -216t-81.5 -167q-73 -88 -191 -124.5t-290 -36.5q-55 0 -123.5 1t-136.5 4.5t-129 10t-102 16.5l-68 1076h201l32 -557q42 -9 90 -5q49 4 78 21q18 9 33 20.5t26 28.5t17 41t6 57l2 394h193l-8 -383q-2 -86 -26 -144t-68.5 -93
t-107.5 -50.5t-142 -15.5h-88l12 -232q20 -4 61 -7t88 -5t92.5 -3t75.5 -1q87 0 156 12.5t118 47t77 96.5t32 161l27 617h201zM316 1322q0 -18 -7 -33.5t-18.5 -27t-27 -18.5t-33.5 -7q-17 0 -32.5 7t-27.5 18.5t-19 27t-7 33.5q0 16 7 31.5t19 27t27.5 18.5t32.5 7
q39 0 62.5 -23.5t23.5 -60.5zM1027 605q0 -18 -7 -33.5t-18.5 -27t-27 -18.5t-33.5 -7t-33.5 7t-27 18.5t-18.5 27t-7 33.5q0 32 27 58q28 26 59 26q37 0 61.5 -23.5t24.5 -60.5z" />
    <glyph glyph-name="betdagesh" unicode="&#xfb31;" horiz-adv-x="1083" 
d="M90 0v176h610v549q0 88 -42 139t-140 51h-408v177h441q161 0 255 -83q93 -83 93 -280v-553h113v-176h-922zM422 520q0 -18 -7 -33.5t-18.5 -27t-27 -18.5t-33.5 -7t-33.5 7t-27 18.5t-18.5 27t-7 33.5q0 32 27 58q28 26 59 26q37 0 61.5 -23.5t24.5 -60.5z" />
    <glyph glyph-name="gimeldagesh" unicode="&#xfb32;" horiz-adv-x="837" 
d="M674 0h-154l-33 328h-24q-35 -123 -80 -198t-80 -103q-22 -21 -53 -36.5t-82 -15.5q-16 0 -37.5 5.5t-44.5 21.5v217q16 -8 41 -13t43 -5q59 0 131 54t129 171q23 48 37 111.5t14 144.5q0 74 -16.5 122t-43.5 76t-61 39t-69 11q-33 0 -71 -9.5t-71 -23.5v174
q33 16 79 23.5t122 7.5q70 0 129.5 -20.5t102.5 -65.5t67.5 -117t24.5 -174v-725zM329 574q0 -18 -7 -33.5t-18.5 -27t-27 -18.5t-33.5 -7t-33.5 7t-27 18.5t-18.5 27t-7 33.5q0 32 27 58q28 26 59 26q37 0 61.5 -23.5t24.5 -60.5z" />
    <glyph glyph-name="daletdagesh" unicode="&#xfb33;" horiz-adv-x="1019" 
d="M917 915h-139v-915h-197v915h-520v177h856v-177zM368 523q0 -18 -7 -33.5t-18.5 -27t-27 -18.5t-33.5 -7t-33.5 7t-27 18.5t-18.5 27t-7 33.5q0 32 27 58q28 26 59 26q37 0 61.5 -23.5t24.5 -60.5z" />
    <glyph glyph-name="hedagesh" unicode="&#xfb34;" horiz-adv-x="1218" 
d="M366 0h-199v635h199v-635zM862 700q0 114 -50 164.5t-149 50.5h-514v177h559q168 0 260 -87t92 -284v-721h-198v700zM702 520q0 -18 -7 -33.5t-18.5 -27t-27 -18.5t-33.5 -7t-33.5 7t-27 18.5t-18.5 27t-7 33.5q0 32 27 58q28 26 59 26q37 0 61.5 -23.5t24.5 -60.5z" />
    <glyph glyph-name="vavdagesh" unicode="&#xfb35;" horiz-adv-x="542" 
d="M373 0h-199v1092h199v-1092zM102 560q0 -18 -7 -33.5t-18.5 -27t-27 -18.5t-33.5 -7t-33.5 7t-27 18.5t-18.5 27t-7 33.5q0 32 27 58q28 26 59 26q37 0 61.5 -23.5t24.5 -60.5z" />
    <glyph glyph-name="zayindagesh" unicode="&#xfb36;" horiz-adv-x="694" 
d="M610 946l-107 -26q-33 -9 -57 -34t-39.5 -61t-21 -81.5t-0.5 -96.5l57 -647h-191l-36 401q-7 72 -8.5 136.5t9 126.5t37 123.5t74.5 127.5h-221v177h494zM162 510q0 -18 -7 -33.5t-18.5 -27t-27 -18.5t-33.5 -7t-33.5 7t-27 18.5t-18.5 27t-7 33.5q0 32 27 58
q28 26 59 26q37 0 61.5 -23.5t24.5 -60.5z" />
    <glyph glyph-name="tetdagesh" unicode="&#xfb38;" horiz-adv-x="1234" 
d="M1103 954l-22 -495q-6 -130 -36.5 -221t-99.5 -152q-74 -66 -173 -84t-224 -18q-49 0 -98.5 3t-100.5 8t-93.5 14t-78.5 20l-63 1063h207l39 -914q17 -5 39 -9t51 -8t55 -5.5t51 -1.5q77 0 137 10.5t101.5 40t64.5 81.5t27 136l19 493h-318v177h516v-138zM697 548
q0 -18 -7 -33.5t-18.5 -27t-27 -18.5t-33.5 -7t-33.5 7t-27 18.5t-18.5 27t-7 33.5q0 32 27 58q28 26 59 26q37 0 61.5 -23.5t24.5 -60.5z" />
    <glyph glyph-name="yoddagesh" unicode="&#xfb39;" horiz-adv-x="501" 
d="M348 469h-199v623h199v-623zM91 766q0 -18 -7 -33.5t-18.5 -27t-27 -18.5t-33.5 -7t-33.5 7t-27 18.5t-18.5 27t-7 33.5q0 32 27 58q28 26 59 26q37 0 61.5 -23.5t24.5 -60.5z" />
    <glyph glyph-name="finalkafdagesh" unicode="&#xfb3a;" horiz-adv-x="1030" 
d="M77 1092h442q168 0 260 -87q93 -87 93 -284v-1059h-199v1038q0 114 -50 164.5t-147 50.5h-399v177zM394 535q0 -18 -7 -33.5t-18.5 -27t-27 -18.5t-33.5 -7t-33.5 7t-27 18.5t-18.5 27t-7 33.5q0 32 27 58q28 26 59 26q37 0 61.5 -23.5t24.5 -60.5z" />
    <glyph glyph-name="kafdagesh" unicode="&#xfb3b;" horiz-adv-x="1026" 
d="M943 545q0 -125 -34.5 -228.5t-100.5 -177.5t-160.5 -114.5t-214.5 -40.5q-56 0 -111 2.5t-102 6.5t-83 8.5t-54 8.5v180q24 -6 62 -11t81 -8t86 -5t78 -2q93 0 165.5 27.5t117.5 87.5q68 89 68 268q0 86 -22 158t-66 123.5t-112 80.5t-159 29q-42 0 -87.5 -4.5
t-87.5 -11.5t-76 -16t-52 -17v172q20 12 56.5 21t83 14.5t98.5 8.5t102 3q136 0 235 -40.5t163 -114.5t95 -178t31 -230zM408 523q0 -18 -7 -33.5t-18.5 -27t-27 -18.5t-33.5 -7t-33.5 7t-27 18.5t-18.5 27t-7 33.5q0 32 27 58q28 26 59 26q37 0 61.5 -23.5t24.5 -60.5z" />
    <glyph glyph-name="lameddagesh" unicode="&#xfb3c;" horiz-adv-x="1048" 
d="M922 1092v-76l-52 -576q-8 -96 -38.5 -178t-87 -142.5t-141.5 -95t-202 -34.5q-49 0 -85.5 1t-53.5 9v160h143q135 0 201 65t76 203l41 487h-637v488h199v-311h637zM428 545q0 -18 -7 -33.5t-18.5 -27t-27 -18.5t-33.5 -7t-33.5 7t-27 18.5t-18.5 27t-7 33.5q0 32 27 58
q28 26 59 26q37 0 61.5 -23.5t24.5 -60.5z" />
    <glyph glyph-name="memdagesh" unicode="&#xfb3e;" horiz-adv-x="1282" 
d="M1117 0h-536v178h340v514q0 72 -18.5 120t-49.5 77t-72 41t-86 12q-93 0 -167 -50q-72 -49 -119 -124l-94 -768h-197l84 647q8 64 7.5 107t-10 80t-28.5 76t-49 96l-45 86h203l82 -138q51 44 99 74t95 48t93 26t94 8q76 0 144 -20t119 -67t81 -124t30 -190v-709zM737 517
q0 -18 -7 -33.5t-18.5 -27t-27 -18.5t-33.5 -7t-33.5 7t-27 18.5t-18.5 27t-7 33.5q0 32 27 58q28 26 59 26q37 0 61.5 -23.5t24.5 -60.5z" />
    <glyph glyph-name="nundagesh" unicode="&#xfb40;" horiz-adv-x="792" 
d="M629 0h-539v180h340v522q0 130 -43 177q-43 49 -133 49q-21 0 -59 -7q-40 -6 -58 -16v172q17 6 40.5 10.5t49 7.5t50.5 4t46 1q138 0 222 -84t84 -277v-739zM314 537q0 -18 -7 -33.5t-18.5 -27t-27 -18.5t-33.5 -7t-33.5 7t-27 18.5t-18.5 27t-7 33.5q0 32 27 58
q28 26 59 26q37 0 61.5 -23.5t24.5 -60.5z" />
    <glyph glyph-name="samekhdagesh" unicode="&#xfb41;" horiz-adv-x="1245" 
d="M1153 565q0 -127 -39 -234.5t-108 -185.5t-164.5 -121.5t-208.5 -43.5q-108 0 -206 33.5t-172.5 104.5t-118.5 181t-44 264q0 126 35 229.5t101.5 178t163.5 115t222 40.5q254 0 396 -136q143 -137 143 -425zM946 555q0 90 -18 165.5t-57.5 130.5t-102 85.5t-150.5 30.5
q-95 0 -157 -34.5t-99 -91.5t-51.5 -130.5t-13.5 -151.5q0 -204 91 -308q92 -104 236 -104q148 0 235 104q87 105 87 304zM708 550q0 -18 -7 -33.5t-18.5 -27t-27 -18.5t-33.5 -7t-33.5 7t-27 18.5t-18.5 27t-7 33.5q0 32 27 58q28 26 59 26q37 0 61.5 -23.5t24.5 -60.5z
" />
    <glyph glyph-name="finalpedagesh" unicode="&#xfb43;" horiz-adv-x="1232" 
d="M1068 -338h-194v1020q0 82 -24.5 137t-66 87t-95.5 45.5t-113 13.5q-78 0 -132 -17.5t-87.5 -47t-48.5 -68.5t-15 -82q0 -48 16.5 -83.5t49.5 -52.5h266v-165h-385q-53 26 -91 94q-38 70 -38 166q0 98 33.5 176t95.5 132t150 82.5t196 28.5q257 0 369 -121
q114 -120 114 -352v-993zM664 788q0 -18 -7 -33.5t-18.5 -27t-27 -18.5t-33.5 -7t-33.5 7t-27 18.5t-18.5 27t-7 33.5q0 32 27 58q28 26 59 26q37 0 61.5 -23.5t24.5 -60.5z" />
    <glyph glyph-name="pedagesh" unicode="&#xfb44;" horiz-adv-x="1226" 
d="M1117 580q0 -83 -10 -151t-28.5 -124t-46.5 -101.5t-64 -82.5q-66 -68 -159 -104.5t-228 -36.5q-48 0 -103 3.5t-108 9t-99 13.5t-75 17v172q37 -12 83 -20t94 -12.5t94 -6.5t83 -2q88 0 164 22.5t127 79.5q42 45 62 113t20 170v24q0 105 -20 181.5t-62 126t-106.5 73
t-153.5 23.5q-78 0 -132 -17t-87.5 -46t-48.5 -67.5t-15 -80.5q0 -48 15.5 -81.5t48.5 -49.5h268v-166h-385q-31 14 -55 40.5t-40.5 61.5t-25 75.5t-8.5 82.5q0 97 34.5 173.5t98 128.5t152 79.5t196.5 27.5q254 0 387 -134t133 -414zM670 791q0 -18 -7 -33.5t-18.5 -27
t-27 -18.5t-33.5 -7t-33.5 7t-27 18.5t-18.5 27t-7 33.5q0 32 27 58q28 26 59 26q37 0 61.5 -23.5t24.5 -60.5z" />
    <glyph glyph-name="tsadidagesh" unicode="&#xfb46;" horiz-adv-x="1122" 
d="M1027 1092l-311 -613l268 -418v-61h-848v176h564l-625 916h233l302 -457l213 457h204zM312 497q0 -18 -7 -33.5t-18.5 -27t-27 -18.5t-33.5 -7t-33.5 7t-27 18.5t-18.5 27t-7 33.5q0 32 27 58q28 26 59 26q37 0 61.5 -23.5t24.5 -60.5z" />
    <glyph glyph-name="qofdagesh" unicode="&#xfb47;" horiz-adv-x="1177" 
d="M1091 758q0 -72 -27.5 -155t-91.5 -189l-243 -414h-193l-6 18l293 488q17 29 31 55t24 50q21 48 21 114q0 35 -11.5 68.5t-36 60t-63.5 43t-94 16.5h-551v179h555q132 0 230 -43q100 -44 141 -162q10 -25 16 -58.5t6 -70.5zM364 -338h-192v1032h192v-1032zM692 600
q0 -18 -7 -33.5t-18.5 -27t-27 -18.5t-33.5 -7t-33.5 7t-27 18.5t-18.5 27t-7 33.5q0 32 27 58q28 26 59 26q37 0 61.5 -23.5t24.5 -60.5z" />
    <glyph glyph-name="reshdagesh" unicode="&#xfb48;" horiz-adv-x="1021" 
d="M870 0h-199v696q0 114 -50 166.5t-147 52.5h-397v177h440q84 0 149.5 -22t111 -67.5t69 -116.5t23.5 -169v-717zM410 529q0 -18 -7 -33.5t-18.5 -27t-27 -18.5t-33.5 -7t-33.5 7t-27 18.5t-18.5 27t-7 33.5q0 32 27 58q28 26 59 26q37 0 61.5 -23.5t24.5 -60.5z" />
    <glyph glyph-name="shindagesh" unicode="&#xfb49;" horiz-adv-x="1458" 
d="M1311 1092l-27 -564q-6 -118 -29.5 -216t-81.5 -167q-73 -88 -191 -124.5t-290 -36.5q-55 0 -123.5 1t-136.5 4.5t-129 10t-102 16.5l-68 1076h201l32 -557q42 -9 90 -5q49 4 78 21q18 9 33 20.5t26 28.5t17 41t6 57l2 394h193l-8 -383q-2 -86 -26 -144t-68.5 -93
t-107.5 -50.5t-142 -15.5h-88l12 -232q20 -4 61 -7t88 -5t92.5 -3t75.5 -1q87 0 156 12.5t118 47t77 96.5t32 161l27 617h201zM1027 605q0 -18 -7 -33.5t-18.5 -27t-27 -18.5t-33.5 -7t-33.5 7t-27 18.5t-18.5 27t-7 33.5q0 32 27 58q28 26 59 26q37 0 61.5 -23.5
t24.5 -60.5z" />
    <glyph glyph-name="tavdagesh" unicode="&#xfb4a;" horiz-adv-x="1329" 
d="M1170 0h-198v721q0 113 -43 153q-44 41 -141 41h-342v-649q0 -63 -16.5 -117.5t-51.5 -93.5q-74 -80 -219 -80q-25 0 -63 8q-37 8 -56 21v156q18 -6 34.5 -12.5t37.5 -6.5q56 0 94 27q37 27 37 115v809h588q167 0 253 -77t86 -274v-741zM786 601q0 -18 -7 -33.5
t-18.5 -27t-27 -18.5t-33.5 -7t-33.5 7t-27 18.5t-18.5 27t-7 33.5q0 32 27 58q28 26 59 26q37 0 61.5 -23.5t24.5 -60.5z" />
    <glyph glyph-name="vavholam" unicode="&#xfb4b;" horiz-adv-x="542" 
d="M373 0h-199v1092h199v-1092zM360 1322q0 -18 -7 -33.5t-18.5 -27t-27 -18.5t-33.5 -7q-17 0 -32.5 7t-27.5 18.5t-19 27t-7 33.5q0 16 7 31.5t19 27t27.5 18.5t32.5 7q39 0 62.5 -23.5t23.5 -60.5z" />
    <glyph glyph-name="NULL" horiz-adv-x="0" 
 />
    <glyph glyph-name="glyph180" horiz-adv-x="700" 
d="M609 712q0 -110 -77 -187q-76 -76 -187 -76q-108 0 -185 77t-77 186q0 110 77 187t185 77q110 0 187 -77t77 -187zM536 712q0 81 -56 137q-55 55 -135 55t-135 -55t-55 -137q0 -79 55 -135q56 -56 135 -56t135 56q56 58 56 135z" />
    <glyph glyph-name="glyph181" horiz-adv-x="700" 
d="M609 712q0 -110 -77 -187q-76 -76 -187 -76q-108 0 -185 77t-77 186q0 110 77 187t185 77q110 0 187 -77t77 -187zM536 712q0 81 -56 137q-55 55 -135 55t-135 -55t-55 -137q0 -79 55 -135q56 -56 135 -56t135 56q56 58 56 135z" />
    <glyph glyph-name="glyph182" horiz-adv-x="700" 
d="M609 712q0 -110 -77 -187q-76 -76 -187 -76q-108 0 -185 77t-77 186q0 110 77 187t185 77q110 0 187 -77t77 -187zM536 712q0 81 -56 137q-55 55 -135 55t-135 -55t-55 -137q0 -79 55 -135q56 -56 135 -56t135 56q56 58 56 135z" />
    <glyph glyph-name="glyph205" horiz-adv-x="700" 
d="M609 712q0 -110 -77 -187q-76 -76 -187 -76q-108 0 -185 77t-77 186q0 110 77 187t185 77q110 0 187 -77t77 -187zM536 712q0 81 -56 137q-55 55 -135 55t-135 -55t-55 -137q0 -79 55 -135q56 -56 135 -56t135 56q56 58 56 135z" />
    <glyph glyph-name="glyph206" 
d="M657 770q0 -119 -83 -202t-203 -83q-118 0 -200 84q-83 85 -83 201q0 118 83 203q82 84 200 84q120 0 203 -84q83 -85 83 -203zM578 770q0 88 -60 148q-58 61 -147 61q-86 0 -146 -61q-59 -61 -59 -148q0 -84 59 -146q60 -61 146 -61q89 0 147 61q60 61 60 146z" />
    <glyph glyph-name="glyph207" 
d="M657 770q0 -119 -83 -202t-203 -83q-118 0 -200 84q-83 85 -83 201q0 118 83 203q82 84 200 84q120 0 203 -84q83 -85 83 -203zM578 770q0 88 -60 148q-58 61 -147 61q-86 0 -146 -61q-59 -61 -59 -148q0 -84 59 -146q60 -61 146 -61q89 0 147 61q60 61 60 146z" />
    <glyph glyph-name="glyph208" 
d="M657 770q0 -119 -83 -202t-203 -83q-118 0 -200 84q-83 85 -83 201q0 118 83 203q82 84 200 84q120 0 203 -84q83 -85 83 -203zM578 770q0 88 -60 148q-58 61 -147 61q-86 0 -146 -61q-59 -61 -59 -148q0 -84 59 -146q60 -61 146 -61q89 0 147 61q60 61 60 146z" />
    <glyph glyph-name="qamatskatanmetegsheva" horiz-adv-x="0" 
d="M934 -299q0 -39 -26 -66.5t-68 -27.5q-39 0 -65.5 27.5t-26.5 66.5t26.5 64.5t65.5 25.5t66.5 -25.5t27.5 -64.5zM934 -600q0 -42 -26 -68t-68 -26q-39 0 -65.5 26t-26.5 68q0 18 7.5 35t20 29.5t29.5 20t35 7.5q42 0 68 -26.5t26 -65.5zM639 -672h-94v445h94v-445z
M418 -346h-170l-6 -100q0 -23 29 -67q30 -44 30 -65q0 -40 -26.5 -67t-65.5 -27q-20 0 -36.5 7.5t-29 20.5t-19.5 30t-7 36q0 25 30 67q31 41 31 67l-8 98h-170v119h418v-119z" />
    <glyph glyph-name="glyph214" 
d="M657 770q0 -119 -83 -202t-203 -83q-118 0 -200 84q-83 85 -83 201q0 118 83 203q82 84 200 84q120 0 203 -84q83 -85 83 -203zM578 770q0 88 -60 148q-58 61 -147 61q-86 0 -146 -61q-59 -61 -59 -148q0 -84 59 -146q60 -61 146 -61q89 0 147 61q60 61 60 146z" />
    <glyph glyph-name="glyph215" 
d="M657 770q0 -119 -83 -202t-203 -83q-118 0 -200 84q-83 85 -83 201q0 118 83 203q82 84 200 84q120 0 203 -84q83 -85 83 -203zM578 770q0 88 -60 148q-58 61 -147 61q-86 0 -146 -61q-59 -61 -59 -148q0 -84 59 -146q60 -61 146 -61q89 0 147 61q60 61 60 146z" />
    <glyph glyph-name="glyph216" 
d="M657 770q0 -119 -83 -202t-203 -83q-118 0 -200 84q-83 85 -83 201q0 118 83 203q82 84 200 84q120 0 203 -84q83 -85 83 -203zM578 770q0 88 -60 148q-58 61 -147 61q-86 0 -146 -61q-59 -61 -59 -148q0 -84 59 -146q60 -61 146 -61q89 0 147 61q60 61 60 146z" />
    <glyph glyph-name="glyph217" 
d="M657 770q0 -119 -83 -202t-203 -83q-118 0 -200 84q-83 85 -83 201q0 118 83 203q82 84 200 84q120 0 203 -84q83 -85 83 -203zM578 770q0 88 -60 148q-58 61 -147 61q-86 0 -146 -61q-59 -61 -59 -148q0 -84 59 -146q60 -61 146 -61q89 0 147 61q60 61 60 146z" />
  </font>
</defs>
</svg>
