<?xml version="1.0" encoding="UTF-8"?>
<svg width="16px" height="12px" viewBox="0 0 16 12" version="1.1" xmlns="http://www.w3.org/2000/svg" xmlns:xlink="http://www.w3.org/1999/xlink">
    <!-- Generator: sketchtool 52.6 (67491) - http://www.bohemiancoding.com/sketch -->
    <title>4576EB9C-5BD1-4147-ABC5-A010011BDC8E</title>
    <desc>Created with sketchtool.</desc>
    <defs>
        <path d="M14.0907155,9.14043728 L14.9533008,4.79398504 C15.051705,3.85185152 14.392281,3.63188916 14.1385139,3.58372899 L8.98884779,3.58372899 C8.70127595,3.58372899 8.46788431,3.35033735 8.46788431,3.0627655 C8.46788431,2.77519366 8.70127595,2.54180202 8.98884779,2.54180202 L14.1829695,2.54180202 C14.206818,2.54180202 14.2297404,2.54319126 14.253589,2.54666435 C14.7977064,2.62052539 16.1691138,3.19728985 15.9827247,4.95073716 L14.4145088,12.8622044 C14.4081659,12.894068 14.3990385,12.9246716 14.3874297,12.9538121 C14.2686325,13.7023724 13.8301534,13.9930424 12.9358987,13.9930424 L2.30245516,13.9930424 C1.23204886,13.9930424 0.814814991,13.5758086 0.814814991,12.5060969 L2.81054761e-05,5.93778931 C-0.0034449844,4.94819023 0.314690049,4.50502396 1.10910147,4.4087036 L1.84238652,2.34661437 C1.91624756,2.13915513 2.11305599,2 2.33348143,2 L6.70471235,2 C6.92235931,2 7.11708389,2.13568204 7.19302879,2.33989973 L7.95270931,4.38855968 L12.0750355,4.38855968 C12.9854481,4.38855968 13.6203289,4.97944804 13.7743026,5.96974173 L14.0907155,9.14043728 Z M1.90420752,12.9226361 C1.92041527,12.9226361 2.01743025,12.9511155 2.30245516,12.9511155 L12.9361302,12.9511155 C13.2623691,12.9511155 13.3431763,12.9138376 13.355911,12.9064284 C13.3471125,12.9057338 13.3823065,12.8501643 13.3823065,12.5060969 L12.7411741,6.10125607 C12.6483268,5.50967309 12.3362118,5.43048664 12.0750355,5.43048664 L7.59058181,5.43048664 C7.37293484,5.43048664 7.17821027,5.2948046 7.10226537,5.09058691 L6.34258484,3.04192696 L2.70116587,3.04192696 L1.97529009,5.08387227 C1.90142904,5.29133151 1.70462062,5.43048664 1.48419518,5.43048664 C1.15726165,5.43048664 1.07645443,5.46776448 1.06371977,5.47517373 C1.06441438,5.47517373 1.06441438,5.47517373 1.06441438,5.47517373 C1.07251826,5.47517373 1.0380189,5.56061174 1.0380189,5.87411599 L1.85280579,12.4424236 C1.85697349,12.8311781 1.89425133,12.9117538 1.90166058,12.92472 C1.90073443,12.9233307 1.90142904,12.9226361 1.90420752,12.9226361 Z" id="path-1"></path>
    </defs>
    <g id="Design" stroke="none" stroke-width="1" fill="none" fill-rule="evenodd">
        <g id="Dashboard" transform="translate(-103.000000, -1331.000000)">
            <g id="Button/34px/icon-9-Copy-3" transform="translate(94.000000, 1320.000000)">
                <g id="iconbutton" transform="translate(9.000000, 9.000000)">
                    <mask id="mask-2" fill="white">
                        <use xlink:href="#path-1"></use>
                    </mask>
                    <use id="Combined-Shape" fill="#000000" fill-rule="nonzero" xlink:href="#path-1"></use>
                    <g id="Color-/-Blue" mask="url(#mask-2)" fill="#2A9DDE">
                        <rect id="Container" x="0" y="0" width="16" height="16"></rect>
                    </g>
                </g>
            </g>
        </g>
    </g>
</svg>