<?xml version="1.0" encoding="UTF-8"?>
<svg width="254px" height="518px" viewBox="0 0 254 518" version="1.1" xmlns="http://www.w3.org/2000/svg" xmlns:xlink="http://www.w3.org/1999/xlink">
    <!-- Generator: sketchtool 52.6 (67491) - http://www.bohemiancoding.com/sketch -->
    <title>51A0E7FC-CBAA-4FA6-9D76-1C334906EFEC@3x</title>
    <desc>Created with sketchtool.</desc>
    <g id="Design" stroke="none" stroke-width="1" fill="none" fill-rule="evenodd">
        <g id="Plugin-Detail" transform="translate(-946.000000, -292.000000)" fill="#E5E5E5">
            <path d="M1199,401.086761 C1199.57979,401.294253 1200,401.850873 1200,402.504949 L1200,438.495051 C1200,439.147641 1199.58263,439.706369 1199,439.913836 L1199,772.002101 C1199,792.986307 1181.98521,810 1160.9964,810 L987.003597,810 C966.011483,810 949,792.987761 949,772.002101 L949,486.913836 C948.843367,486.969612 948.67479,487 948.499167,487 L947.500833,487 C946.678545,487 946,486.326211 946,485.495051 L946,449.504949 C946,448.676918 946.671946,448 947.500833,448 L948.499167,448 C948.67436,448 948.843029,448.030585 949,448.086761 L949,439.913836 C948.843367,439.969612 948.67479,440 948.499167,440 L947.500833,440 C946.678545,440 946,439.326211 946,438.495051 L946,402.504949 C946,401.676918 946.671946,401 947.500833,401 L948.499167,401 C948.67436,401 948.843029,401.030585 949,401.086761 L949,376.915071 C948.843367,376.970127 948.67479,377 948.499167,377 L947.500833,377 C946.678545,377 946,376.326972 946,375.496749 L946,358.503251 C946,357.665436 946.671946,357 947.500833,357 L948.499167,357 C948.67436,357 948.843029,357.030551 949,357.086663 L949,329.997899 C949,309.013693 966.01479,292 987.003597,292 L1160.9964,292 C1181.98852,292 1199,309.012239 1199,329.997899 L1199,401.086761 Z M963,354 L963,746 L1183,746 L1183,354 L963,354 Z M1072.5,795 C1083.26955,795 1092,786.269553 1092,775.5 C1092,764.730447 1083.26955,756 1072.5,756 C1061.73045,756 1053,764.730447 1053,775.5 C1053,786.269553 1061.73045,795 1072.5,795 Z M1072.5,792 C1063.3873,792 1056,784.612698 1056,775.5 C1056,766.387302 1063.3873,759 1072.5,759 C1081.6127,759 1089,766.387302 1089,775.5 C1089,784.612698 1081.6127,792 1072.5,792 Z M1033,329 C1035.20914,329 1037,327.209139 1037,325 C1037,322.790861 1035.20914,321 1033,321 C1030.79086,321 1029,322.790861 1029,325 C1029,327.209139 1030.79086,329 1033,329 Z M1073.5,311 C1074.88071,311 1076,309.880712 1076,308.5 C1076,307.119288 1074.88071,306 1073.5,306 C1072.11929,306 1071,307.119288 1071,308.5 C1071,309.880712 1072.11929,311 1073.5,311 Z M1055.00527,323 C1053.89779,323 1053,323.88773 1053,325 C1053,326.104569 1053.89447,327 1055.00527,327 L1091.99473,327 C1093.10221,327 1094,326.11227 1094,325 C1094,323.895431 1093.10553,323 1091.99473,323 L1055.00527,323 Z" id="Apple-iPhone-6"></path>
        </g>
    </g>
</svg>