<?xml version="1.0" encoding="UTF-8"?>
<svg width="16px" height="13px" viewBox="0 0 16 13" version="1.1" xmlns="http://www.w3.org/2000/svg" xmlns:xlink="http://www.w3.org/1999/xlink">
    <!-- Generator: sketchtool 52.6 (67491) - http://www.bohemiancoding.com/sketch -->
    <title>C0DD3F89-14E9-4257-92E5-08F91CF2FEF8</title>
    <desc>Created with sketchtool.</desc>
    <defs>
        <path d="M-8.8817842e-15,9.87822126 L1.58600024,9.87822126 L1.58600024,11.0288865 L-8.8817842e-15,11.0288865 L-8.8817842e-15,9.87822126 Z M-8.8817842e-15,5.93911063 L1.58600024,5.93911063 L1.58600024,7.08977586 L-8.8817842e-15,7.08977586 L-8.8817842e-15,5.93911063 Z M-8.8817842e-15,13.8173319 L1.58600024,13.8173319 L1.58600024,14.9679971 L-8.8817842e-15,14.9679971 L-8.8817842e-15,13.8173319 Z M-8.8817842e-15,2 L1.58600024,2 L1.58600024,3.15066523 L-8.8817842e-15,3.15066523 L-8.8817842e-15,2 Z M3.17200048,9.87822126 L16,9.87822126 L16,11.0288865 L3.17200048,11.0288865 L3.17200048,9.87822126 Z M3.17200048,5.93911063 L16,5.93911063 L16,7.08977586 L3.17200048,7.08977586 L3.17200048,5.93911063 Z M3.17200048,13.8173319 L16,13.8173319 L16,14.9679971 L3.17200048,14.9679971 L3.17200048,13.8173319 Z M3.17200048,2 L16,2 L16,3.15066523 L3.17200048,3.15066523 L3.17200048,2 Z" id="path-1"></path>
    </defs>
    <g id="Design" stroke="none" stroke-width="1" fill="none" fill-rule="evenodd">
        <g id="Dashboard" transform="translate(-161.000000, -1331.000000)">
            <g id="Button/34px/icon-9-Copy-6" transform="translate(152.000000, 1320.000000)">
                <g id="iconbutton" transform="translate(9.000000, 9.000000)">
                    <mask id="mask-2" fill="white">
                        <use xlink:href="#path-1"></use>
                    </mask>
                    <use id="Combined-Shape" fill="#000000" xlink:href="#path-1"></use>
                    <g id="Color-/-Blue" mask="url(#mask-2)" fill="#2A9DDE">
                        <rect id="Container" x="0" y="0" width="16" height="16"></rect>
                    </g>
                </g>
            </g>
        </g>
    </g>
</svg>