<svg xmlns="http://www.w3.org/2000/svg" width="68" height="68" viewBox="0 0 68 68"><defs><style>.a{fill:#008c46;}</style></defs><g transform="translate(-3 -3)"><path class="a" d="M52.321,53.99l.97-3.621-4.347-3.854c.012-.295.044-.584.044-.882a20.652,20.652,0,0,0-.5-4.461l3.6-4.534-1.584-3.4-5.8-.158A20.7,20.7,0,0,0,40.916,29.3l-.159-5.8-3.4-1.584-4.534,3.6a20.65,20.65,0,0,0-4.459-.5c-.3,0-.589.032-.884.045L23.628,20.71l-3.621.97-1.16,5.672a20.64,20.64,0,0,0-4.387,3.087l-5.744-.852-2.15,3.07,2.752,5.081a20.491,20.491,0,0,0-1.376,5.2L3,45.972l.327,3.734L8.7,51.828a20.5,20.5,0,0,0,2.29,4.87L9.153,62.2l2.65,2.65,5.5-1.834a20.5,20.5,0,0,0,4.87,2.289L24.3,70.674,28.031,71l3.036-4.943a20.492,20.492,0,0,0,5.2-1.376l5.081,2.751,3.07-2.15-.852-5.744a20.636,20.636,0,0,0,3.086-4.387ZM28.367,58.7A13.065,13.065,0,1,1,41.433,45.633,13.08,13.08,0,0,1,28.367,58.7ZM70.38,23.292,71,21.127l-2.608-2.395c.014-.24.071-.467.071-.71a12.432,12.432,0,0,0-.249-2.473l2.207-2.684L69.5,10.808,65.98,10.65A12.4,12.4,0,0,0,63.785,8.4l-.036-3.546-2.024-.987L58.936,6a12.32,12.32,0,0,0-2.861-.365c-.1,0-.2.028-.305.031L53.488,3,51.3,3.545,50.533,7a12.347,12.347,0,0,0-2.6,1.758l-3.493-.58L43.114,10l1.607,3.093a12.3,12.3,0,0,0-.844,3.071l-3.044,1.8.157,2.247,3.277,1.361a12.271,12.271,0,0,0,1.267,2.879L44.36,27.775l1.565,1.62,3.327-1.045a12.33,12.33,0,0,0,2.873,1.357l1.246,3.318,2.24.235,1.912-2.995a12.322,12.322,0,0,0,3.07-.733l3.054,1.723,1.867-1.26-.455-3.482a12.375,12.375,0,0,0,1.836-2.569Zm-14.3-10.1a4.832,4.832,0,1,1-4.832,4.832A4.837,4.837,0,0,1,56.076,13.191Z" transform="translate(0 0)"/></g></svg>