<svg xmlns="http://www.w3.org/2000/svg" width="73.02" height="55.151" viewBox="0 0 73.02 55.151"><defs><style>.a{fill:#008c46;}</style></defs><g transform="translate(-2.75 -6)"><path class="a" d="M61.84,39.484A10.833,10.833,0,1,0,72.673,50.318,10.844,10.844,0,0,0,61.84,39.484Zm0,15.757a4.924,4.924,0,1,1,4.924-4.924A4.921,4.921,0,0,1,61.84,55.242ZM18.507,29.636A15.756,15.756,0,1,0,34.265,45.391,15.76,15.76,0,0,0,18.507,29.636Zm0,23.634a7.878,7.878,0,1,1,7.879-7.879A7.879,7.879,0,0,1,18.507,53.27ZM72.381,41.454l-1.77-14.1L58.9,25.7V18.31h1.654l.277-1.97H57.92v.021l0,0a.985.985,0,0,0-.981.987V25.7H46.163L43.625,6H9.644V9.939h1.823L10.629,25.7H7.674L4.916,31.173l.015.014,1.5,1.3A17.636,17.636,0,0,1,35.757,49.333h13.38a12.761,12.761,0,0,1,24.517-3.939H75.77V41.454ZM21.462,25.995a19.443,19.443,0,0,0-2.955-.3H14.568l.985-15.757h5.909Zm21.724,7.58H34.165A19.65,19.65,0,0,0,23.432,26.4V9.939H41.155l2.031,15.773ZM60.467,35,58,30.076l1.762-.881,2.462,4.924ZM64.9,35l-2.462-4.924L64.2,29.2,66.66,34.12Z"/></g></svg>