<svg xmlns="http://www.w3.org/2000/svg" width="80" height="64" viewBox="0 0 80 64"><defs><style>.a{fill:#008c46;}</style></defs><g transform="translate(-2 -4)"><path class="a" d="M16.031,8.705A4.705,4.705,0,1,1,11.328,4,4.7,4.7,0,0,1,16.031,8.705Zm-4.715,6.7C4.871,15.408,2,18.182,2,18.182V31.461l4,4.522L7.332,57.3h7.992L16.66,35.982l4-4.6V18.182S17.785,15.408,11.316,15.408ZM50.2,4a4.706,4.706,0,1,0,4.7,4.705A4.708,4.708,0,0,0,50.2,4Zm-.012,11.408c-6.446,0-9.316,2.773-9.316,2.773V31.461l4,4.522L46.207,57.3H54.2l1.336-21.318,4-4.6V18.182S56.66,15.408,50.192,15.408Zm22.48-.711a4.706,4.706,0,1,0,4.7,4.705A4.708,4.708,0,0,0,72.672,14.7ZM72.66,26.106c-6.445,0-9.316,2.773-9.316,2.773v13.28l4,4.521L68.676,68h7.992L78,46.681l4-4.6V28.879S79.129,26.106,72.66,26.106ZM30.582,24.111A4.706,4.706,0,1,0,25.871,19.4,4.7,4.7,0,0,0,30.582,24.111ZM33.91,57.344h4.664L35.836,35.471l1.035-8.279a17.359,17.359,0,0,0-6.309-1.084,17.266,17.266,0,0,0-6.277,1.082l1.035,8.281L22.582,57.344h4.664L27.914,68h5.328Z" transform="translate(0 0)"/></g></svg>