<svg xmlns="http://www.w3.org/2000/svg" width="58.92" height="58.92" viewBox="0 0 58.92 58.92"><defs><style>.a{fill:#008c46;}</style></defs><g transform="translate(-3 -3)"><path class="a" d="M61.92,46.153a9.89,9.89,0,0,1-9.82,9.958,9.592,9.592,0,0,1-3.017-.529,9.751,9.751,0,0,1-4.31-2.859A9.944,9.944,0,0,1,52.1,36.194c.279,0,.541.06.814.083,0-.028,0-.055,0-.083A21.2,21.2,0,0,0,44.01,19.087a13.254,13.254,0,0,0,1.427-4.957A25.759,25.759,0,0,1,57.729,34.211c.05.657.1,1.313.1,1.983,0,.615-.049,1.219-.091,1.823A9.974,9.974,0,0,1,61.92,46.153ZM42.015,54.526a20.108,20.108,0,0,1-19.11,0,20.417,20.417,0,0,1-2.758-1.8A9.944,9.944,0,0,0,12.82,36.194c-.279,0-.541.06-.814.083a9.654,9.654,0,0,0-4.823,1.74A9.974,9.974,0,0,0,12.82,56.111a9.592,9.592,0,0,0,3.017-.529,25.543,25.543,0,0,0,3.017,2.289,24.884,24.884,0,0,0,27.212,0A13.1,13.1,0,0,1,42.015,54.526Zm.215-42.067a9.775,9.775,0,0,0-19.54,0,25.116,25.116,0,0,0-3.207,1.672A25.759,25.759,0,0,0,7.191,34.211a12.824,12.824,0,0,1,5.09-1.281A20.794,20.794,0,0,1,20.91,19.087a20.379,20.379,0,0,1,2.833-1.634,9.686,9.686,0,0,0,17.434,0,9.961,9.961,0,0,0,1.1-4.495C42.28,12.787,42.239,12.627,42.23,12.458Z" transform="translate(0 0)"/></g></svg>