<svg xmlns="http://www.w3.org/2000/svg" width="94.647" height="46.666" viewBox="0 0 94.647 46.666"><defs><style>.a{fill:#008c46;}</style></defs><g transform="translate(-3 -8)"><path class="a" d="M94.808,31.585c-1.212-2.29-3.826-4.94-9.484-6.286L70.971,21.872C65.212,15.355,62.893,8,44.246,8c-.221,0-1.184,0-1.4,0C36.13,8.074,29.114,9.2,25,11.78L8.633,22.747C3.435,26.231,3,27.422,3,29.05v10.5l5.45,5.258H12.2a9.859,9.859,0,0,0,19.718,0H69.779a9.859,9.859,0,0,0,19.718,0l3.737-.46a5.3,5.3,0,0,0,4.413-5.291V37.269ZM22.061,50.722a5.915,5.915,0,1,1,5.915-5.915A5.915,5.915,0,0,1,22.061,50.722Zm-.24-28.263a22.267,22.267,0,0,1,13.463-9.749s9.428-2.747,17.746-.493c0,0,7.383,1.5,13.068,10.242ZM79.638,50.722a5.915,5.915,0,1,1,5.915-5.915A5.915,5.915,0,0,1,79.638,50.722Z" transform="translate(0 0)"/></g></svg>