<svg xmlns="http://www.w3.org/2000/svg" width="49.49" height="60.095" viewBox="0 0 49.49 60.095"><defs><style>.a{fill:#008c46;}</style></defs><g transform="translate(-5 -4)"><path class="a" d="M22.675,35.815H26.21v14.14H22.675Zm-7.07,14.14H19.14V35.815H15.605Zm14.14,0H33.28V35.815H29.745ZM54.49,28.745V64.1H5V28.745L29.745,4ZM45.653,32.28H43.885V30.513a1.767,1.767,0,0,0-3.535,0V32.28H36.815V30.513a1.768,1.768,0,0,0-3.535,0V32.28H29.745V30.513a1.768,1.768,0,0,0-3.535,0V32.28H22.675V30.513a1.768,1.768,0,0,0-3.535,0V32.28H15.605V30.513a1.767,1.767,0,0,0-3.535,0V49.955H10.3V53.49H12.07v1.768a1.767,1.767,0,0,0,3.535,0V53.49H19.14v1.768a1.768,1.768,0,0,0,3.535,0V53.49H26.21v1.768a1.768,1.768,0,0,0,3.535,0V53.49H33.28v1.768a1.768,1.768,0,0,0,3.535,0V53.49H40.35v1.768a1.767,1.767,0,0,0,3.535,0V35.815h1.767Zm5.3.459L47.42,32.28v3.535l3.535-.425ZM36.815,49.955H40.35V35.815H36.815Z" transform="translate(0 0)"/></g></svg>