<svg xmlns="http://www.w3.org/2000/svg" width="340.7px" height="87px" viewBox="0 0 340.7 87" style="enable-background:new 0 0 340.7 87"><path d="m331.9 73.4h1.7c1.2 3.4 2.1 6.3 2.8 8.2.6-1.9 1.7-5.3 2.7-8.2h1.6l-4 10.8c-.8 2.2-1.6 2.9-3.3 2.9-.3 0-.7 0-1-.1v-1.3c.3.1.6.1.9.2.9 0 1.3 0 1.8-1.5l.4-1-3.6-10m-3.4 9.5v-5.8c.1-.7-.1-1.3-.4-1.9-.4-.5-1-.8-1.6-.7-.8 0-1.5.4-1.9 1-.6.8-.8 1.8-.7 2.8v4.6h-1.5v-9.5h1.5v1.5c.7-1.1 1.9-1.7 3.2-1.7 1-.1 2 .4 2.5 1.3.4.8.5 1.7.4 2.6v5.8h-1.5m-12-4.7c-1.2 0-2.3.2-3.5.6-.7.2-1.1.8-1.1 1.5 0 1 .7 1.5 1.8 1.5 1.3 0 2.4-.8 2.7-2.1.1-.3.1-.7.1-1.1v-.4m0-2c0-1.2-.6-1.8-2-1.8-1.5 0-2.1.6-2.2 2l-1.5-.2c.2-2 1.7-3.1 3.8-3.1 1-.1 1.9.3 2.6.9.5.5.7 1.4.7 2.8v3.1c0 .4 0 .9.1 1.3 0 .4.3.6.8.6.1 0 .2 0 .4 0v1.2c-.3 0-.5 0-.8.1-1.3 0-1.8-.5-1.9-1.5-.7 1-1.9 1.6-3.2 1.5-1.5.1-2.9-1-3-2.5 0-.1 0-.1 0-.2 0-1.1.7-2.2 1.8-2.5 1.4-.5 2.8-.7 4.3-.8l.1-.9m-13 5.5c1.6 0 2.5-1.2 2.5-3.6s-1-3.6-2.5-3.6-2.7 1.4-2.7 3.5c0 2.4 1 3.7 2.7 3.7m-2.7-8.3v1.4c.7-1 1.9-1.6 3.2-1.6 2.2 0 3.6 1.9 3.6 5s-1.8 4.8-3.9 4.8c-1.2.1-2.3-.4-2.9-1.4v5.1h-1.5v-13.3h1.5zm-7 9.5v-5.1c.1-.9 0-1.7-.3-2.5-.3-.5-.8-.8-1.4-.7-.6 0-1.2.3-1.7.7-.7.9-1.1 2-1 3.1v4.5h-1.5v-5.2c.1-.8 0-1.6-.2-2.3-.3-.6-.9-.9-1.5-.8-.8 0-1.5.4-1.9 1-.6.8-.8 1.8-.7 2.8v4.6h-1.6v-9.5h1.5v1.5c.7-1 1.9-1.7 3.1-1.7 1.2-.1 2.3.7 2.6 1.8.7-1.2 2-1.8 3.3-1.8 1.3-.1 2.4.8 2.6 2.1.1.9.1 1.8.1 2.7v4.9l-1.4-.1m-19.8-8.5c-1.8 0-2.9 1.4-2.9 3.6 0 2.4 1.1 3.9 2.8 3.9s2.8-1.4 2.8-3.7-.9-3.8-2.7-3.8m-4.5 3.7c0-3 1.7-5 4.6-5 2.7 0 4.3 1.9 4.3 5.1s-1.7 4.9-4.4 4.9c-3 0-4.5-2-4.5-5m-4.6-5c-.3-1.6-1.7-2.8-3.3-2.7-2.7 0-4.4 2-4.4 5.4s1.7 5.8 4.4 5.8c1.7.1 3.3-1.1 3.6-2.8l1.6.6c-.7 2.3-2.9 3.9-5.4 3.8-3.7 0-6-2.7-6-7.2s2.5-7 6.1-7c2.3-.2 4.4 1.3 4.9 3.6l-1.5.5zm-19.8 5c-1.2 0-2.3.2-3.4.6-.7.2-1.1.8-1.1 1.5 0 1 .7 1.5 1.8 1.5 1.3 0 2.4-.8 2.7-2 .1-.3.1-.7.1-1.1l-.1-.5m0-1.9c0-1.2-.6-1.8-2-1.8-1.5 0-2.1.6-2.2 2l-1.5-.2c.2-2 1.7-3.1 3.8-3.1 1-.1 1.9.3 2.6.9.5.5.7 1.4.7 2.8v3.1c0 .4 0 .9.1 1.3.1.4.3.6.8.6.1 0 .2 0 .4 0v1.2c-.3 0-.5 0-.8.1-1.3 0-1.8-.5-1.9-1.5-.7 1-1.9 1.6-3.1 1.5-1.5.1-2.9-1-3-2.5 0-.1 0-.1 0-.2 0-1.1.7-2.2 1.8-2.5 1.4-.5 2.8-.7 4.3-.8v-.9m-14.7-7c1 3.8 2.2 7.8 3.1 11.5.3-1.3 1-4.2 2.9-11.5h1.7l-3.6 13.6h-1.6c-2.1-7.3-2.6-9.2-3.1-11.3-.5 2.1-.9 3.9-3 11.3h-1.8l-3.8-13.6h1.8c1 3.8 2 7.7 3 11.5.9-3.8 1.8-7.3 3-11.5h1.4m-19.4 4.2h1.7c1.2 3.4 2.1 6.3 2.8 8.2.6-1.9 1.7-5.3 2.7-8.2h1.6l-4 10.8c-.8 2.2-1.6 2.9-3.3 2.9-.3 0-.7 0-1-.1v-1.3c.3.1.6.1.9.2.9 0 1.3 0 1.8-1.5l.4-1-3.6-10m-4.6 4.8c-1.2 0-2.3.2-3.4.6-.7.2-1.1.8-1.1 1.5 0 1 .7 1.5 1.8 1.5 1.3 0 2.4-.8 2.7-2.1.1-.3.1-.7.1-1.1l-.1-.4m0-1.9c0-1.2-.6-1.8-2-1.8-1.5 0-2.1.6-2.2 2l-1.5-.2c.2-2 1.7-3.1 3.8-3.1 1-.1 1.9.3 2.6.9.6.8.8 1.8.7 2.8v3.1c0 .4 0 .9.1 1.3.1.4.3.6.8.6.1 0 .2 0 .4 0v1.2c-.3 0-.5 0-.8.1-1.3 0-1.8-.5-1.9-1.5-.7 1-1.9 1.6-3.2 1.5-1.5.1-2.9-1-3-2.5 0-.1 0-.1 0-.2 0-1.1.7-2.2 1.8-2.5 1.4-.5 2.8-.7 4.3-.8l.1-.9m-17.7 5.1h2.8c.9.1 1.8 0 2.6-.3.9-.3 1.4-1.2 1.3-2.1 0-1.7-1.2-2.6-3.1-2.6h-3.6v5m0-6.4h3.1c.7 0 1.5-.1 2.2-.3.7-.4 1.1-1.1 1.1-1.9 0-.5-.2-1-.5-1.4-.5-.5-1.1-.6-2.6-.6h-3.3v4.2m3.7-5.7c1-.1 2 .1 2.9.5.9.6 1.5 1.7 1.4 2.8.1 1.4-.9 2.7-2.3 3.1 1.7.2 3 1.8 2.8 3.5.1 1.3-.6 2.6-1.7 3.2-1.2.5-2.4.7-3.7.6h-4.8v-13.7h5.4m-16.2 8.5c-.8-2.3-1.7-4.5-2.4-6.8-.4 1-.8 2.2-2.5 6.8h4.9m1.8 5.1l-1.3-3.7h-5.9l-1.3 3.7h-1.8l5.3-13.6h1.8l5.1 13.6h-1.9"/><path d="m161.7 0h11.8v55.2c0 0-11.8 0-11.8-9.2v-46m-81.3 45.9c-2 0-3.1-.7-3.4-3.1-.1-.5-.1-17.6-.1-17.6h7.3v-9.2h-7.3v-3.2c0-9.1-11.4-9.2-11.7-9.2v12.4h-5.5v9.2h5.3v18.1c0 6.3 1.4 11.9 11.2 11.9 2.7 0 5.4-.3 8.1-.9v-9.1c-1.2.5-2.6.7-3.9.7m34.8-4.9c-1.1 2.9-3.9 4.7-7 4.6-4.3 0-7.3-2.1-7.9-7.1h25.7c0-13.5-4.4-24.1-18.2-24.1-11.7 0-19.2 7.7-19.2 20.2 0 12.8 7 20.8 19.6 20.8 8.6 0 14.1-3.8 17.5-10.8l-10.5-3.6m-14.8-10.6c.3-4.4 2.9-7.1 7-7.1 4.3 0 6.6 3.2 6.6 7.1h-13.6m193.2 10.6c-1.1 2.9-3.9 4.7-7 4.6-4.3 0-7.3-2.1-7.9-7.1h25.6c0-13.5-4.4-24.1-18.2-24.1-11.7 0-19.3 7.7-19.3 20.2 0 12.8 7 20.8 19.6 20.8 8.6 0 14.1-3.8 17.5-10.8l-10.3-3.6m-14.8-10.6c.3-4.4 2.9-7.1 7-7.1 4.3 0 6.6 3.2 6.6 7.1h-13.6m-16.6 4.8c0 12.7-6.3 20-16 20-5.1 0-8.4-1.9-10.9-5.7v4.8h-11.3v-54.3c0 0 11.8 0 11.8 9.2v11.2h.1c2.8-3.4 7-5.3 11.4-5.3 8.9 0 14.9 7.6 14.9 20.1m-12.3.1c0-6.2-2.4-10.5-6.7-10.5-2.4 0-4.6 1.1-5.9 3.1-1.3 2.1-1.9 4.4-1.9 6.9 0 1.5.1 3 .5 4.5 1 4 3.4 6.2 7 6.2 4.1 0 7-3.3 7-10.2m-195 19.9v-26.1c0-5-.8-8.2-2.4-10.5-2-2.7-5-3.9-9.2-3.9-4.9 0-9.5 2.2-12.5 6.1v-5.4h-11.7v39h11.9v-19.2c0-3.5.4-5.3 1.5-7.1 1.2-1.8 3.2-2.9 5.4-2.9 1.5-.2 3 .4 4 1.5.9 1.2 1.3 3.1 1.3 6v13.3c-.1 9.2 11.7 9.2 11.7 9.2m98.5-40.3c-5.5 0-8.1 2.4-10.4 6.3l-.1-.1c-1.4-3.5-4.9-5-7.6-5.6-1.2-.3-2.4-.4-3.6-.5v39.5h11.8v-17.4c0-4 .7-6.6 2.4-8.6 1.6-1.7 3.8-2.7 6.1-2.7 1.6 0 3.1.3 4.5 1.1v-11.5c-.9-.4-2-.5-3.1-.5m27.5 1.1v24.8c0 5 .8 8.2 2.4 10.5 2 2.7 5 3.9 9.2 3.9 4.9 0 9.5-2.2 12.5-6.1v5.3h11.6v-38.4h-11.8v18.7c0 3.5-.4 5.3-1.5 7.1-1.2 1.8-3.2 2.9-5.4 2.9-1.5.2-3-.4-4-1.5-.9-1.2-1.3-3.1-1.3-6v-12c0-9.2-11.7-9.2-11.7-9.2m126.1 32c4.5 4.6 10.6 7.1 17 7 10.4 0 16.6-5.5 16.6-12.9 0-5.7-3.1-9.3-10.3-11.6l-4.5-1.4c-4.3-1.4-5-2.1-5-3.6s1.1-2.4 3.7-2.4c2.8 0 5.8 1.4 8.4 4.3l7.7-6.5c-4.2-4.3-9.9-6.7-15.9-6.5-10.5 0-15.8 6.2-15.8 12.5s4.1 9.7 9.7 11.4l4 1.2c5.2 1.6 6.2 2.6 6.2 4.2 0 1.3-1.1 2.6-4.1 2.6-3.8-.1-7.3-1.8-9.6-4.8l-8.1 6.5m-295.2-38.8c0-9.2-11.8-9.2-11.8-9.2v54.5h11.8v-45.3" style="fill:#009650"/></svg>