<?xml version="1.0" encoding="UTF-8"?>
<svg width="20px" height="20px" viewBox="0 0 20 20" version="1.1" xmlns="http://www.w3.org/2000/svg" xmlns:xlink="http://www.w3.org/1999/xlink">
    <!-- Generator: sketchtool 52.6 (67491) - http://www.bohemiancoding.com/sketch -->
    <title>99992231-E0F3-44E3-9ED9-5C3002925BF1@3x</title>
    <desc>Created with sketchtool.</desc>
    <defs>
        <path d="M8.72093023,17.4216028 C10.6976744,17.4216028 12.5348837,16.7479675 14,15.6329849 L18.0232558,19.6515679 C18.255814,19.883856 18.5581395,20 18.8372093,20 C19.1162791,20 19.4418605,19.883856 19.6511628,19.6515679 C20.1162791,19.1869919 20.1162791,18.466899 19.6511628,18.0023229 L15.6511628,13.9837398 C16.7674419,12.5203252 17.4418605,10.6852497 17.4418605,8.71080139 C17.4418605,3.90243902 13.5348837,0 8.72093023,0 C3.90697674,0 0,3.90243902 0,8.71080139 C0,13.5191638 3.90697674,17.4216028 8.72093023,17.4216028 Z M8.72093023,2.32288037 C12.2325581,2.32288037 15.1162791,5.18002323 15.1162791,8.71080139 C15.1162791,12.2415796 12.2325581,15.0987224 8.72093023,15.0987224 C5.20930233,15.0987224 2.3255814,12.2183508 2.3255814,8.71080139 C2.3255814,5.20325203 5.18604651,2.32288037 8.72093023,2.32288037 Z" id="path-1"></path>
    </defs>
    <g id="Design" stroke="none" stroke-width="1" fill="none" fill-rule="evenodd">
        <g id="Dashboard" transform="translate(-30.000000, -90.000000)">
            <g id="icon/16x16/29" transform="translate(30.000000, 90.000000)">
                <mask id="mask-2" fill="white">
                    <use xlink:href="#path-1"></use>
                </mask>
                <use id="Shape" fill="#000000" fill-rule="nonzero" xlink:href="#path-1"></use>
                <g id="Color/grey-2" mask="url(#mask-2)" fill="#D3D3D3" fill-rule="evenodd">
                    <rect id="Container" x="0" y="0" width="20" height="20"></rect>
                </g>
            </g>
        </g>
    </g>
</svg>