<?xml version="1.0" encoding="UTF-8"?>
<svg width="16px" height="16px" viewBox="0 0 16 16" version="1.1" xmlns="http://www.w3.org/2000/svg" xmlns:xlink="http://www.w3.org/1999/xlink">
    <!-- Generator: Sketch 52.6 (67491) - http://www.bohemiancoding.com/sketch -->
    <title>icon/16x16/41</title>
    <desc>Created with Sketch.</desc>
    <defs>
        <path d="M2.55555556,14 L13.4444444,14 L13.4444444,5.44444444 L2.55555556,5.44444444 L2.55555556,14 Z M13.4444444,1.55555556 L12.6666667,1.55555556 L12.6666667,0 L11.1111111,0 L11.1111111,1.55555556 L4.88888889,1.55555556 L4.88888889,0 L3.33333333,0 L3.33333333,1.55555556 L2.55555556,1.55555556 C1.69222222,1.55555556 1.00777778,2.25555556 1.00777778,3.11111111 L1,14 C1,14.8555556 1.69222222,15.5555556 2.55555556,15.5555556 L13.4444444,15.5555556 C14.3,15.5555556 15,14.8555556 15,14 L15,3.11111111 C15,2.25555556 14.3,1.55555556 13.4444444,1.55555556 L13.4444444,1.55555556 Z M10.3333333,8.55555556 L11.8888889,8.55555556 L11.8888889,7 L10.3333333,7 L10.3333333,8.55555556 Z M7.22222222,8.55555556 L8.77777778,8.55555556 L8.77777778,7 L7.22222222,7 L7.22222222,8.55555556 Z M4.11111111,8.55555556 L5.66666667,8.55555556 L5.66666667,7 L4.11111111,7 L4.11111111,8.55555556 Z" id="path-1"></path>
    </defs>
    <g id="icon/16x16/41" stroke="none" stroke-width="1" fill="none" fill-rule="evenodd">
        <rect fill="#F2F2F2" x="0" y="0" width="16" height="16"></rect>
        <mask id="mask-2" fill="white">
            <use xlink:href="#path-1"></use>
        </mask>
        <use id="Icon" fill="#8DABC4" xlink:href="#path-1"></use>
        <g id="Color/dark-green" mask="url(#mask-2)" fill="#3D4F59">
            <rect id="Container" x="0" y="0" width="16" height="16"></rect>
        </g>
    </g>
</svg>