<?xml version="1.0" encoding="UTF-8"?>
<svg width="121px" height="30px" viewBox="0 0 121 30" version="1.1" xmlns="http://www.w3.org/2000/svg" xmlns:xlink="http://www.w3.org/1999/xlink">
    <!-- Generator: sketchtool 52.6 (67491) - http://www.bohemiancoding.com/sketch -->
    <title>3C2567CB-0B0B-472D-A82A-7782B2DF612D@3x</title>
    <desc>Created with sketchtool.</desc>
    <g id="Design" stroke="none" stroke-width="1" fill="none" fill-rule="evenodd">
        <g id="Dashboard" transform="translate(-30.000000, -878.000000)">
            <g id="Header/1-Copy" transform="translate(0.000000, 863.000000)">
                <g id="Logo" transform="translate(30.000000, 15.000000)">
                    <path d="M49.872,15.144 C50.5333366,15.3893346 51.0453315,15.7466643 51.408,16.216 C51.7706685,16.6853357 51.952,17.2506634 51.952,17.912 C51.952,18.8933382 51.5466707,19.6533306 50.736,20.192 C49.9253293,20.7306694 48.7520077,21 47.216,21 L40.912,21 L40.912,9.8 L46.896,9.8 C48.3893408,9.8 49.5173295,10.066664 50.28,10.6 C51.0426705,11.133336 51.424,11.8426622 51.424,12.728 C51.424,13.2506693 51.2933346,13.7199979 51.032,14.136 C50.7706654,14.5520021 50.3840026,14.8879987 49.872,15.144 Z M44.624,12.44 L44.624,14.104 L46.384,14.104 C47.2053374,14.104 47.616,13.8266694 47.616,13.272 C47.616,12.7173306 47.2053374,12.44 46.384,12.44 L44.624,12.44 Z M46.896,18.36 C47.7280042,18.36 48.144,18.0666696 48.144,17.48 C48.144,16.8933304 47.7280042,16.6 46.896,16.6 L44.624,16.6 L44.624,18.36 L46.896,18.36 Z M59.152,21.256 C57.9466606,21.256 56.8640048,21.0053358 55.904,20.504 C54.9439952,20.0026642 54.1920027,19.3066711 53.648,18.416 C53.1039973,17.5253289 52.832,16.5200056 52.832,15.4 C52.832,14.2799944 53.1039973,13.2746711 53.648,12.384 C54.1920027,11.4933289 54.9439952,10.7973358 55.904,10.296 C56.8640048,9.79466416 57.9466606,9.544 59.152,9.544 C60.3573394,9.544 61.4399952,9.79466416 62.4,10.296 C63.3600048,10.7973358 64.1119973,11.4933289 64.656,12.384 C65.2000027,13.2746711 65.472,14.2799944 65.472,15.4 C65.472,16.5200056 65.2000027,17.5253289 64.656,18.416 C64.1119973,19.3066711 63.3600048,20.0026642 62.4,20.504 C61.4399952,21.0053358 60.3573394,21.256 59.152,21.256 Z M59.152,18.2 C59.6213357,18.2 60.0453314,18.0853345 60.424,17.856 C60.8026686,17.6266655 61.1039989,17.3013354 61.328,16.88 C61.5520011,16.4586646 61.664,15.9653362 61.664,15.4 C61.664,14.8346638 61.5520011,14.3413354 61.328,13.92 C61.1039989,13.4986646 60.8026686,13.1733345 60.424,12.944 C60.0453314,12.7146655 59.6213357,12.6 59.152,12.6 C58.6826643,12.6 58.2586686,12.7146655 57.88,12.944 C57.5013314,13.1733345 57.2000011,13.4986646 56.976,13.92 C56.7519989,14.3413354 56.64,14.8346638 56.64,15.4 C56.64,15.9653362 56.7519989,16.4586646 56.976,16.88 C57.2000011,17.3013354 57.5013314,17.6266655 57.88,17.856 C58.2586686,18.0853345 58.6826643,18.2 59.152,18.2 Z M69.28,12.728 L66,12.728 L66,9.8 L76.336,9.8 L76.336,12.728 L73.056,12.728 L73.056,21 L69.28,21 L69.28,12.728 Z M82.704,9.8 C83.7386718,9.8 84.6399962,9.97066496 85.408,10.312 C86.1760038,10.653335 86.7679979,11.1439968 87.184,11.784 C87.6000021,12.4240032 87.808,13.1706624 87.808,14.024 C87.808,14.8773376 87.6000021,15.6239968 87.184,16.264 C86.7679979,16.9040032 86.1760038,17.394665 85.408,17.736 C84.6399962,18.077335 83.7386718,18.248 82.704,18.248 L81.088,18.248 L81.088,21 L77.312,21 L77.312,9.8 L82.704,9.8 Z M82.464,15.336 C82.9760026,15.336 83.3599987,15.2213345 83.616,14.992 C83.8720013,14.7626655 84,14.4400021 84,14.024 C84,13.6079979 83.8720013,13.2853345 83.616,13.056 C83.3599987,12.8266655 82.9760026,12.712 82.464,12.712 L81.088,12.712 L81.088,15.336 L82.464,15.336 Z M89.2,9.8 L92.976,9.8 L92.976,18.072 L98.032,18.072 L98.032,21 L89.2,21 L89.2,9.8 Z M104.432,21.256 C102.714658,21.256 101.376005,20.7920046 100.416,19.864 C99.4559952,18.9359954 98.976,17.634675 98.976,15.96 L98.976,9.8 L102.752,9.8 L102.752,15.848 C102.752,16.6693374 102.898665,17.2666648 103.192,17.64 C103.485335,18.0133352 103.909331,18.2 104.464,18.2 C105.018669,18.2 105.442665,18.0133352 105.736,17.64 C106.029335,17.2666648 106.176,16.6693374 106.176,15.848 L106.176,9.8 L109.888,9.8 L109.888,15.96 C109.888,17.634675 109.408005,18.9359954 108.448,19.864 C107.487995,20.7920046 106.149342,21.256 104.432,21.256 Z M115.792,21.256 C114.863995,21.256 113.960004,21.152001 113.08,20.944 C112.199996,20.735999 111.477336,20.4560018 110.912,20.104 L112.128,17.352 C112.661336,17.6613349 113.258663,17.9093324 113.92,18.096 C114.581337,18.2826676 115.215997,18.376 115.824,18.376 C116.346669,18.376 116.719999,18.3253338 116.944,18.224 C117.168001,18.1226662 117.28,17.9706677 117.28,17.768 C117.28,17.5333322 117.133335,17.3573339 116.84,17.24 C116.546665,17.1226661 116.064003,16.9946674 115.392,16.856 C114.527996,16.6746658 113.808003,16.480001 113.232,16.272 C112.655997,16.063999 112.154669,15.722669 111.728,15.248 C111.301331,14.773331 111.088,14.1306707 111.088,13.32 C111.088,12.6159965 111.285331,11.9760029 111.68,11.4 C112.074669,10.8239971 112.663996,10.3706683 113.448,10.04 C114.232004,9.70933168 115.183994,9.544 116.304,9.544 C117.072004,9.544 117.826663,9.62666584 118.568,9.792 C119.309337,9.95733416 119.962664,10.1999984 120.528,10.52 L119.392,13.256 C118.293328,12.7013306 117.253338,12.424 116.272,12.424 C115.301328,12.424 114.816,12.6586643 114.816,13.128 C114.816,13.3520011 114.959999,13.5199994 115.248,13.632 C115.536001,13.7440006 116.010663,13.8639994 116.672,13.992 C117.525338,14.1520008 118.24533,14.335999 118.832,14.544 C119.41867,14.752001 119.927998,15.0906643 120.36,15.56 C120.792002,16.0293357 121.008,16.6693293 121.008,17.48 C121.008,18.1840035 120.810669,18.8213305 120.416,19.392 C120.021331,19.9626695 119.432004,20.4159983 118.648,20.752 C117.863996,21.0880017 116.912006,21.256 115.792,21.256 Z" id="BOTPLUS" fill="#2F4365"></path>
                    <path d="M15,0 C23.2842857,0 30,6.21824074 30,13.8888889 C30,21.559537 23.2842857,27.7777778 15,27.7777778 C13.504472,27.7777778 12.0604658,27.5741667 10.6974224,27.1969444 L5.59006211,30 L5.59006211,24.7043519 C2.18124224,22.1584259 0,18.2597222 0,13.8888889 C0,6.21824074 6.71571429,0 15,0 Z M17.25,11.25 L17.25,6 L12.75,6 L12.75,11.25 L7.5,11.25 L7.5,15.75 L12.75,15.75 L12.75,21 L17.25,21 L17.25,15.75 L22.5,15.75 L22.5,11.25 L17.25,11.25 Z" id="Combined-Shape" fill="#2A9DDE" fill-rule="nonzero"></path>
                </g>
            </g>
        </g>
    </g>
</svg>