<?xml version="1.0" encoding="UTF-8"?>
<svg width="11px" height="14px" viewBox="0 0 11 14" version="1.1" xmlns="http://www.w3.org/2000/svg" xmlns:xlink="http://www.w3.org/1999/xlink">
    <!-- Generator: sketchtool 52.6 (67491) - http://www.bohemiancoding.com/sketch -->
    <title>51FB3733-B0BC-4D0D-9A1B-0937104086D1@3x</title>
    <desc>Created with sketchtool.</desc>
    <defs>
        <path d="M12.5454545,1.875 L10.6363636,1.875 C10.6363636,1.392 10.2087273,1 9.68181818,1 L6.81818182,1 C6.29127273,1 5.86363636,1.392 5.86363636,1.875 L3.95454545,1.875 C3.42763636,1.875 3,2.267 3,2.75 L13.5,2.75 C13.5,2.267 13.0723636,1.875 12.5454545,1.875 Z M3,14.125 C3,14.608 3.42763636,15 3.95454545,15 L12.5454545,15 C13.0723636,15 13.5,14.608 13.5,14.125 L13.5,3.625 L3,3.625 L3,14.125 Z M10.6363636,5.8125 C10.6363636,5.571 10.8501818,5.375 11.1136364,5.375 C11.3770909,5.375 11.5909091,5.571 11.5909091,5.8125 L11.5909091,12.8125 C11.5909091,13.054 11.3770909,13.25 11.1136364,13.25 C10.8501818,13.25 10.6363636,13.054 10.6363636,12.8125 L10.6363636,5.8125 Z M7.77272727,5.8125 C7.77272727,5.571 7.98654545,5.375 8.25,5.375 C8.51345455,5.375 8.72727273,5.571 8.72727273,5.8125 L8.72727273,12.8125 C8.72727273,13.054 8.51345455,13.25 8.25,13.25 C7.98654545,13.25 7.77272727,13.054 7.77272727,12.8125 L7.77272727,5.8125 Z M4.90909091,5.8125 C4.90909091,5.571 5.12290909,5.375 5.38636364,5.375 C5.64981818,5.375 5.86363636,5.571 5.86363636,5.8125 L5.86363636,12.8125 C5.86363636,13.054 5.64981818,13.25 5.38636364,13.25 C5.12290909,13.25 4.90909091,13.054 4.90909091,12.8125 L4.90909091,5.8125 Z" id="path-1"></path>
    </defs>
    <g id="Design" stroke="none" stroke-width="1" fill="none" fill-rule="evenodd">
        <g id="Plugin-Detail---User" transform="translate(-1271.000000, -285.000000)">
            <g id="icon/16x16/15" transform="translate(1268.000000, 284.000000)">
                <mask id="mask-2" fill="white">
                    <use xlink:href="#path-1"></use>
                </mask>
                <use id="Shape" fill="#FFFFFF" fill-rule="nonzero" xlink:href="#path-1"></use>
                <g id="Color/dark" mask="url(#mask-2)" fill="#3E3F42" fill-rule="evenodd">
                    <rect id="Container" x="0" y="0" width="16" height="16"></rect>
                </g>
            </g>
        </g>
    </g>
</svg>