<svg width="20" height="18" viewBox="0 0 20 18" fill="none" xmlns="http://www.w3.org/2000/svg">
<path fill-rule="evenodd" clip-rule="evenodd" d="M1.875 18C1.37772 18 0.900805 17.7968 0.549175 17.4351C0.197544 17.0735 0 16.5829 0 16.0714L0 7.07143C0 6.55994 0.197544 6.0694 0.549175 5.70772C0.900805 5.34605 1.37772 5.14286 1.875 5.14286H18.125C18.6223 5.14286 19.0992 5.34605 19.4508 5.70772C19.8025 6.0694 20 6.55994 20 7.07143V16.0714C20 16.5829 19.8025 17.0735 19.4508 17.4351C19.0992 17.7968 18.6223 18 18.125 18H1.875ZM8.45625 7.812C8.36164 7.75118 8.25293 7.71752 8.14141 7.71451C8.02988 7.71149 7.9196 7.73924 7.82202 7.79487C7.72444 7.8505 7.64311 7.93198 7.58649 8.03085C7.52986 8.12973 7.5 8.24239 7.5 8.35714V14.7857C7.5 14.9005 7.52986 15.0131 7.58649 15.112C7.64311 15.2109 7.72444 15.2924 7.82202 15.348C7.9196 15.4036 8.02988 15.4314 8.14141 15.4284C8.25293 15.4253 8.36164 15.3917 8.45625 15.3309L13.4563 12.1166C13.5461 12.0588 13.6203 11.9784 13.6717 11.8831C13.723 11.7877 13.75 11.6805 13.75 11.5714C13.75 11.4624 13.723 11.3552 13.6717 11.2598C13.6203 11.1644 13.5461 11.0841 13.4563 11.0263L8.45625 7.812ZM2.5 3.21429C2.5 3.38478 2.56585 3.5483 2.68306 3.66885C2.80027 3.78941 2.95924 3.85714 3.125 3.85714H16.875C17.0408 3.85714 17.1997 3.78941 17.3169 3.66885C17.4342 3.5483 17.5 3.38478 17.5 3.21429C17.5 3.04379 17.4342 2.88028 17.3169 2.75972C17.1997 2.63916 17.0408 2.57143 16.875 2.57143H3.125C2.95924 2.57143 2.80027 2.63916 2.68306 2.75972C2.56585 2.88028 2.5 3.04379 2.5 3.21429ZM5 0.642857C5 0.813353 5.06585 0.976867 5.18306 1.09743C5.30027 1.21798 5.45924 1.28571 5.625 1.28571H14.375C14.5408 1.28571 14.6997 1.21798 14.8169 1.09743C14.9342 0.976867 15 0.813353 15 0.642857C15 0.472361 14.9342 0.308848 14.8169 0.188288C14.6997 0.0677294 14.5408 0 14.375 0H5.625C5.45924 0 5.30027 0.0677294 5.18306 0.188288C5.06585 0.308848 5 0.472361 5 0.642857Z" fill="white"/>
</svg>
