<svg width="18" height="15" viewBox="0 0 18 15" fill="none" xmlns="http://www.w3.org/2000/svg">
<path fill-rule="evenodd" clip-rule="evenodd" d="M16.7813 5.46192L11.4778 4.73144L9.10692 0.175633C9.03942 0.0668176 8.91621 0 8.78306 0C8.6499 0 8.52669 0.0668176 8.4592 0.175633L6.08724 4.73041L0.782307 5.46192C0.646226 5.48054 0.533093 5.57077 0.490467 5.69469C0.44784 5.81861 0.483111 5.95473 0.581453 6.04582L4.42008 9.59238L3.51407 14.5999C3.49095 14.7283 3.54664 14.858 3.65776 14.9345C3.76888 15.0111 3.9162 15.0213 4.03788 14.9609L8.78179 12.5968L13.5257 14.9598C13.6474 15.0203 13.7947 15.0101 13.9058 14.9335C14.017 14.8569 14.0726 14.7272 14.0495 14.5989L13.1435 9.59238L16.9821 6.04582C17.0805 5.95477 17.1158 5.81872 17.0732 5.69482C17.0307 5.57092 16.9177 5.48064 16.7816 5.46192H16.7813Z" fill="#F5A623"/>
</svg>
