<svg width="100" height="100" viewBox="0 0 100 100" fill="none" xmlns="http://www.w3.org/2000/svg">
<path fill-rule="evenodd" clip-rule="evenodd" d="M95.561 52.2258C94.1001 60.8547 93.907 69.8378 88.6926 76.9169C83.4771 83.9974 75.0574 87.3369 66.9975 91.0034C57.7572 95.2068 48.5948 101.383 38.5584 99.7232C27.9265 97.9646 19.3452 90.3199 12.6263 82.0097C5.6652 73.3998 0.756047 63.2195 0.156416 52.2258C-0.465692 40.82 0.42372 27.4271 9.24528 20.0205C17.9397 12.7206 31.6268 7.20242 42.4969 3.74862C53.3215 0.309292 59.9916 -0.530532 71.3339 0.29289C82.8984 1.13243 93.3622 10.3363 98.2067 20.721C102.785 30.535 97.3648 41.5713 95.561 52.2258Z" fill="#BB5F53"/>
<path d="M60.417 29.1666H39.5837C33.8307 29.1666 29.167 33.8303 29.167 39.5833V60.4166C29.167 66.1696 33.8307 70.8333 39.5837 70.8333H60.417C66.17 70.8333 70.8337 66.1696 70.8337 60.4166V39.5833C70.8337 33.8303 66.17 29.1666 60.417 29.1666Z" stroke="white" stroke-width="3" stroke-linecap="round" stroke-linejoin="round"/>
<path d="M58.3334 48.6875C58.5905 50.4214 58.2943 52.1921 57.487 53.748C56.6797 55.3038 55.4024 56.5655 53.8368 57.3535C52.2711 58.1416 50.4968 58.4158 48.7663 58.1374C47.0357 57.8589 45.437 57.0419 44.1976 55.8024C42.9582 54.563 42.1411 52.9643 41.8627 51.2338C41.5842 49.5033 41.8585 47.729 42.6466 46.1633C43.4346 44.5976 44.6963 43.3203 46.2521 42.513C47.8079 41.7057 49.5787 41.4096 51.3125 41.6667C53.0811 41.9289 54.7185 42.7531 55.9827 44.0173C57.247 45.2816 58.0711 46.9189 58.3334 48.6875Z" fill="white" stroke="white" stroke-width="2" stroke-linecap="round" stroke-linejoin="round"/>
</svg>
