<svg width="17" height="10" viewBox="0 0 17 10" fill="none" xmlns="http://www.w3.org/2000/svg">
<path fill-rule="evenodd" clip-rule="evenodd" d="M11.5391 0.209802C11.6049 0.143298 11.6831 0.0905335 11.7691 0.0545322C11.8552 0.0185308 11.9474 0 12.0406 0C12.1338 0 12.226 0.0185308 12.3121 0.0545322C12.3981 0.0905335 12.4763 0.143298 12.5421 0.209802L16.7918 4.49458C16.8577 4.56092 16.9101 4.63972 16.9458 4.72648C16.9815 4.81324 16.9999 4.90625 16.9999 5.00019C16.9999 5.09412 16.9815 5.18713 16.9458 5.27389C16.9101 5.36065 16.8577 5.43946 16.7918 5.50579L12.5421 9.79057C12.4091 9.92467 12.2287 10 12.0406 10C11.8525 10 11.6721 9.92467 11.5391 9.79057C11.4061 9.65648 11.3314 9.47461 11.3314 9.28497C11.3314 9.09533 11.4061 8.91346 11.5391 8.77936L15.2888 5.00019L11.5391 1.22101C11.4732 1.15467 11.4208 1.07587 11.3851 0.989109C11.3494 0.902349 11.3311 0.809339 11.3311 0.715406C11.3311 0.621474 11.3494 0.528463 11.3851 0.441704C11.4208 0.354944 11.4732 0.276139 11.5391 0.209802Z" fill="black"/>
<path fill-rule="evenodd" clip-rule="evenodd" d="M0 5.00026C0 4.81086 0.0746228 4.62922 0.207452 4.4953C0.340281 4.36137 0.520436 4.28613 0.708285 4.28613H15.5823C15.7701 4.28613 15.9503 4.36137 16.0831 4.4953C16.2159 4.62922 16.2906 4.81086 16.2906 5.00026C16.2906 5.18966 16.2159 5.3713 16.0831 5.50523C15.9503 5.63916 15.7701 5.71439 15.5823 5.71439H0.708285C0.520436 5.71439 0.340281 5.63916 0.207452 5.50523C0.0746228 5.3713 0 5.18966 0 5.00026Z" fill="black"/>
</svg>
