<svg width="100" height="100" viewBox="0 0 100 100" fill="none" xmlns="http://www.w3.org/2000/svg">
<path fill-rule="evenodd" clip-rule="evenodd" d="M53.0632 1.28172C63.9287 1.1827 76.0752 -2.74457 84.7713 3.66029C93.4512 10.0532 93.4261 22.4957 95.9462 32.866C98.2416 42.3117 101.966 51.974 98.743 61.1543C95.546 70.2616 86.2892 75.1885 78.8772 81.4916C70.6205 88.513 63.9804 100.041 53.0632 99.9999C42.1455 99.9583 36.1809 87.6657 27.3941 81.2954C18.6981 74.991 6.21923 72.6421 1.89838 62.9063C-2.52149 52.9475 1.70051 41.5817 5.19354 31.2732C8.66195 21.0373 12.5243 10.0328 21.7793 4.23434C30.8352 -1.4394 42.3249 1.37958 53.0632 1.28172Z" fill="#A77C4C"/>
<path d="M60.417 29.1667H39.5837C33.8307 29.1667 29.167 33.8304 29.167 39.5834V60.4167C29.167 66.1697 33.8307 70.8334 39.5837 70.8334H60.417C66.17 70.8334 70.8337 66.1697 70.8337 60.4167V39.5834C70.8337 33.8304 66.17 29.1667 60.417 29.1667Z" stroke="white" stroke-width="3" stroke-linecap="round" stroke-linejoin="round"/>
<path d="M58.3334 48.6876C58.5905 50.4215 58.2943 52.1923 57.487 53.7481C56.6797 55.3039 55.4024 56.5656 53.8368 57.3536C52.2711 58.1417 50.4968 58.416 48.7663 58.1375C47.0357 57.859 45.437 57.042 44.1976 55.8026C42.9582 54.5631 42.1411 52.9645 41.8627 51.2339C41.5842 49.5034 41.8585 47.7291 42.6466 46.1634C43.4346 44.5978 44.6963 43.3204 46.2521 42.5131C47.8079 41.7059 49.5787 41.4097 51.3125 41.6668C53.0811 41.9291 54.7185 42.7532 55.9827 44.0174C57.247 45.2817 58.0711 46.9191 58.3334 48.6876Z" fill="white" stroke="white" stroke-width="2" stroke-linecap="round" stroke-linejoin="round"/>
</svg>
