<svg width="100" height="100" viewBox="0 0 100 100" fill="none" xmlns="http://www.w3.org/2000/svg">
<path fill-rule="evenodd" clip-rule="evenodd" d="M99.9995 44.1161C99.9175 58.765 89.0492 69.7381 79.3772 79.8736C69.9904 89.7103 59.677 99.6934 46.6789 99.9919C33.479 100.295 21.4627 92.0872 12.578 81.4074C4.11795 71.2382 -1.09285 57.7917 0.194578 44.1161C1.38258 31.4966 10.1491 22.0591 18.9439 13.7862C26.9091 6.29365 36.213 1.39937 46.6789 0.389858C58.3493 -0.735836 70.407 0.231667 79.78 7.91811C90.5332 16.7364 100.082 29.4179 99.9995 44.1161Z" fill="#D77138"/>
<path d="M60.417 29.1666H39.5837C33.8307 29.1666 29.167 33.8303 29.167 39.5833V60.4166C29.167 66.1696 33.8307 70.8333 39.5837 70.8333H60.417C66.17 70.8333 70.8337 66.1696 70.8337 60.4166V39.5833C70.8337 33.8303 66.17 29.1666 60.417 29.1666Z" stroke="white" stroke-width="3" stroke-linecap="round" stroke-linejoin="round"/>
<path d="M58.3334 48.6875C58.5905 50.4214 58.2943 52.1921 57.487 53.748C56.6797 55.3038 55.4024 56.5655 53.8368 57.3535C52.2711 58.1416 50.4968 58.4158 48.7663 58.1374C47.0357 57.8589 45.437 57.0419 44.1976 55.8024C42.9582 54.563 42.1411 52.9643 41.8627 51.2338C41.5842 49.5033 41.8585 47.729 42.6466 46.1633C43.4346 44.5976 44.6963 43.3203 46.2521 42.513C47.8079 41.7057 49.5787 41.4096 51.3125 41.6667C53.0811 41.9289 54.7185 42.7531 55.9827 44.0173C57.247 45.2816 58.0711 46.9189 58.3334 48.6875Z" fill="white" stroke="white" stroke-width="2" stroke-linecap="round" stroke-linejoin="round"/>
</svg>
