<svg width="100" height="100" viewBox="0 0 100 100" fill="none" xmlns="http://www.w3.org/2000/svg">
<path fill-rule="evenodd" clip-rule="evenodd" d="M99.9995 44.1161C99.9175 58.765 89.0492 69.7381 79.3772 79.8736C69.9904 89.7103 59.677 99.6934 46.6789 99.9919C33.479 100.295 21.4627 92.0872 12.578 81.4074C4.11795 71.2382 -1.09285 57.7917 0.194578 44.1161C1.38258 31.4966 10.1491 22.0591 18.9439 13.7862C26.9091 6.29365 36.213 1.39937 46.6789 0.389858C58.3493 -0.735836 70.407 0.231667 79.78 7.91811C90.5332 16.7364 100.082 29.4179 99.9995 44.1161Z" fill="#4F91C8"/>
<path d="M60.417 29.1667H39.5837C33.8307 29.1667 29.167 33.8304 29.167 39.5834V60.4167C29.167 66.1697 33.8307 70.8334 39.5837 70.8334H60.417C66.17 70.8334 70.8337 66.1697 70.8337 60.4167V39.5834C70.8337 33.8304 66.17 29.1667 60.417 29.1667Z" stroke="white" stroke-width="3" stroke-linecap="round" stroke-linejoin="round"/>
<path d="M58.3334 48.6876C58.5905 50.4215 58.2943 52.1923 57.487 53.7481C56.6797 55.3039 55.4024 56.5656 53.8368 57.3536C52.2711 58.1417 50.4968 58.416 48.7663 58.1375C47.0357 57.859 45.437 57.042 44.1976 55.8026C42.9582 54.5631 42.1411 52.9645 41.8627 51.2339C41.5842 49.5034 41.8585 47.7291 42.6466 46.1634C43.4346 44.5978 44.6963 43.3204 46.2521 42.5131C47.8079 41.7059 49.5787 41.4097 51.3125 41.6668C53.0811 41.9291 54.7185 42.7532 55.9827 44.0174C57.247 45.2817 58.0711 46.9191 58.3334 48.6876Z" fill="white" stroke="white" stroke-width="2" stroke-linecap="round" stroke-linejoin="round"/>
</svg>
