<svg width="22" height="22" viewBox="0 0 22 22" fill="none" xmlns="http://www.w3.org/2000/svg">
<path fill-rule="evenodd" clip-rule="evenodd" d="M20.0996 9.7001H12.2996V1.9001C12.2996 1.1825 11.7172 0.600098 10.9996 0.600098C10.282 0.600098 9.69961 1.1825 9.69961 1.9001V9.7001H1.89961C1.18201 9.7001 0.599609 10.2825 0.599609 11.0001C0.599609 11.7177 1.18201 12.3001 1.89961 12.3001H9.69961V20.1001C9.69961 20.819 10.282 21.4001 10.9996 21.4001C11.7172 21.4001 12.2996 20.819 12.2996 20.1001V12.3001H20.0996C20.8185 12.3001 21.3996 11.7177 21.3996 11.0001C21.3996 10.2825 20.8185 9.7001 20.0996 9.7001Z" fill="white"/>
</svg>
