<svg width="26" height="26" viewBox="0 0 26 26" fill="none" xmlns="http://www.w3.org/2000/svg">
<path fill-rule="evenodd" clip-rule="evenodd" d="M19.5002 11.7002H6.5002C5.7813 11.7002 5.2002 12.2826 5.2002 13.0002C5.2002 13.7178 5.7813 14.3002 6.5002 14.3002H19.5002C20.2191 14.3002 20.8002 13.7178 20.8002 13.0002C20.8002 12.2826 20.2191 11.7002 19.5002 11.7002Z" fill="white"/>
<mask id="mask0" mask-type="alpha" maskUnits="userSpaceOnUse" x="5" y="11" width="16" height="4">
<path fill-rule="evenodd" clip-rule="evenodd" d="M19.5002 11.7002H6.5002C5.7813 11.7002 5.2002 12.2826 5.2002 13.0002C5.2002 13.7178 5.7813 14.3002 6.5002 14.3002H19.5002C20.2191 14.3002 20.8002 13.7178 20.8002 13.0002C20.8002 12.2826 20.2191 11.7002 19.5002 11.7002Z" fill="white"/>
</mask>
<g mask="url(#mask0)">
</g>
</svg>
