<svg width="34" height="34" viewBox="0 0 34 34" fill="none" xmlns="http://www.w3.org/2000/svg">
<rect x="34" y="34" width="34" height="34" rx="5" transform="rotate(180 34 34)" fill="#007EBB"/>
<path fill-rule="evenodd" clip-rule="evenodd" d="M11.3462 13.2022C10.3372 13.2022 9.51953 12.3782 9.51953 11.3619C9.51953 10.3455 10.3372 9.52148 11.3462 9.52148C12.3552 9.52148 13.1724 10.3455 13.1724 11.3619C13.1724 12.3782 12.3552 13.2022 11.3462 13.2022ZM24.4794 24.4809H21.4056V19.2455C21.4056 17.8101 20.8601 17.008 19.724 17.008C18.4881 17.008 17.8423 17.8427 17.8423 19.2455V24.4809H14.88V14.5076H17.8423V15.851C17.8423 15.851 18.733 14.2029 20.8494 14.2029C22.9649 14.2029 24.4794 15.4947 24.4794 18.1664V24.4809ZM12.9055 24.4801H9.81655V14.5067H12.9055V24.4801Z" fill="white"/>
</svg>
