<svg width="34" height="34" viewBox="0 0 34 34" fill="none" xmlns="http://www.w3.org/2000/svg">
<rect y="8.16016" width="16.32" height="16.32" rx="8.16" fill="white"/>
<rect width="34" height="34" rx="5" fill="#C31E31"/>
<path d="M19.4528 8.58803C16.6779 7.47368 13.424 8.58803 11.5395 11.3248C10.6257 12.6039 10.1544 14.182 10.206 15.7908C10.2858 17.4431 10.8408 19.7273 12.6255 20.1201L13.0647 18.7154C11.3478 16.3842 11.4676 14.2793 12.8251 12.3367C14.0229 10.6075 16.4823 9.80485 19.0136 10.5776C21.2494 11.2608 21.9082 13.9122 21.8843 15.3297C21.8443 17.7163 20.946 19.8042 19.888 20.1841C17.6042 20.9996 16.3386 19.4967 16.2947 19.4199L16.2308 19.3516C16.6979 17.1656 17.0972 14.9881 16.9375 14.5099C16.9375 14.5099 16.6181 12.4605 15.021 13.4852C13.424 14.5099 14.3822 16.5593 14.3822 16.5593L12.9449 24.5861L13.2882 26.2426C13.5517 26.3451 13.8193 26.439 14.0868 26.5202L15.021 24.4153C15.021 24.4153 15.4203 22.6007 15.8195 20.8288C15.7876 20.9655 16.9774 21.6828 17.1051 21.7468C18.1452 22.2392 19.3269 22.2623 20.3831 21.8108C22.2476 21.1448 23.7488 18.3141 23.8007 15.3681C23.8566 12.1873 22.2875 9.71519 19.4528 8.58803Z" fill="white"/>
</svg>
