<svg width="50" height="50" viewBox="0 0 50 50" fill="none" xmlns="http://www.w3.org/2000/svg">
<path d="M25 0C20.0555 0 15.222 1.46622 11.1108 4.21326C6.99953 6.96029 3.79521 10.8648 1.90302 15.4329C0.0108321 20.0011 -0.484251 25.0277 0.480379 29.8773C1.44501 34.7268 3.82603 39.1813 7.32234 42.6777C10.8187 46.174 15.2732 48.555 20.1227 49.5196C24.9723 50.4843 29.9989 49.9892 34.5671 48.097C39.1352 46.2048 43.0397 43.0005 45.7867 38.8892C48.5338 34.778 50 29.9445 50 25C49.9927 18.3718 47.3564 12.0172 42.6696 7.33041C37.9828 2.64359 31.6282 0.00731879 25 0ZM25 45.097C21.0252 45.097 17.1397 43.9183 13.8347 41.71C10.5298 39.5017 7.95391 36.363 6.43282 32.6908C4.91173 29.0185 4.51374 24.9777 5.28919 21.0793C6.06463 17.1808 7.97869 13.5999 10.7893 10.7893C13.5999 7.97867 17.1808 6.06462 21.0793 5.28918C24.9777 4.51373 29.0185 4.91172 32.6908 6.43281C36.363 7.9539 39.5017 10.5298 41.71 13.8347C43.9183 17.1396 45.097 21.0252 45.097 25C45.0911 30.3282 42.9718 35.4366 39.2042 39.2042C35.4366 42.9718 30.3282 45.0911 25 45.097Z" fill="#2D3E50"/>
<path d="M25.4258 13.9954C25.6573 14.0231 25.8872 14.0583 26.1153 14.1011L27.9461 10.6623V10.6597C27.9096 10.6522 27.8731 10.6446 27.8366 10.6384C27.7888 10.6283 27.7398 10.6182 27.6907 10.6094C27.6781 10.6069 27.6643 10.6044 27.6517 10.6031C27.5837 10.5893 27.5158 10.578 27.4478 10.5679C27.3962 10.5578 27.3447 10.549 27.2918 10.5415C27.2465 10.5339 27.2012 10.5264 27.1559 10.5213C27.0842 10.51 27.0112 10.4999 26.9382 10.4899C26.8917 10.4836 26.8439 10.4773 26.7961 10.4723C26.7193 10.4622 26.6438 10.4534 26.5671 10.4458C26.523 10.4408 26.4777 10.4358 26.4324 10.4333C26.362 10.4257 26.2915 10.4182 26.221 10.4144C26.1783 10.4093 26.1342 10.4056 26.0914 10.4031C25.9908 10.3955 25.8901 10.3892 25.7895 10.3842C25.7744 10.3829 25.7593 10.3817 25.7454 10.3817C25.6234 10.3754 25.5001 10.3703 25.378 10.3678C25.2522 10.3641 25.1264 10.3628 25.0005 10.3628C22.0186 10.3617 19.1076 11.2717 16.6572 12.9709C14.2068 14.6702 12.3341 17.0775 11.2898 19.8706C10.2456 22.6637 10.0796 25.7092 10.8142 28.5992C11.5488 31.4892 13.1488 34.0858 15.4001 36.0412L15.4013 36.04L16.3098 34.9956C16.2217 34.9062 16.1362 34.8169 16.0506 34.725C15.6406 34.2882 15.2586 33.8259 14.9069 33.341C14.4907 32.759 14.1225 32.1443 13.8059 31.5027C13.4911 30.8695 13.2318 30.2102 13.0308 29.5323C12.8255 28.865 12.6802 28.1807 12.5967 27.4876C12.5791 27.3152 12.5464 27.1453 12.5401 26.9717L12.5049 26.4545C12.4973 26.2822 12.5011 26.1085 12.4973 25.9374C12.4973 25.8506 12.4935 25.765 12.4948 25.6794L12.5074 25.4215C12.5174 25.2491 12.5174 25.078 12.5351 24.9069L12.5854 24.396C12.6345 24.0576 12.6785 23.7203 12.7527 23.3894C12.8869 22.7291 13.0767 22.0813 13.3202 21.453C13.5638 20.8338 13.8558 20.2347 14.1934 19.6613C14.8643 18.534 15.7148 17.5237 16.7112 16.6704C17.6854 15.8414 18.7883 15.1767 19.9764 14.7025C21.7068 14.0213 23.5788 13.7784 25.4258 13.9954L25.4258 13.9954Z" fill="#2D3E50"/>
<path d="M31.1224 11.8158C30.9029 11.7126 30.6583 11.675 30.418 11.7078C30.2215 11.7353 30.034 11.8081 29.8705 11.9204C29.7069 12.0327 29.5716 12.1815 29.4754 12.355L24.3852 21.1612L24.1632 21.2093C23.5741 21.3331 23.0225 21.5937 22.5529 21.9702C22.0834 22.3467 21.709 22.8284 21.4601 23.3764C21.18 23.9786 21.0585 24.6424 21.1071 25.3047C21.1557 25.967 21.3728 26.6059 21.7378 27.1608C22.1027 27.7156 22.6035 28.1679 23.1924 28.4748C23.7814 28.7817 24.439 28.9329 25.1029 28.9142C25.7667 28.8954 26.4147 28.7072 26.9854 28.3676C27.5561 28.0279 28.0305 27.548 28.3636 26.9735C28.6966 26.3989 28.8773 25.7488 28.8884 25.0847C28.8995 24.4207 28.7406 23.7649 28.427 23.1795L28.3196 22.9796L31.7917 13.4209C31.8977 13.1179 31.888 12.7864 31.7644 12.4902C31.6409 12.1939 31.4122 11.9538 31.1224 11.8158Z" fill="#2D3E50"/>
<path d="M36.9008 20.0054C37.0544 19.9296 37.1933 19.827 37.3109 19.7025C37.5586 19.4533 37.7268 19.1363 37.7944 18.7914C37.8619 18.4466 37.8256 18.0895 37.6902 17.7653C37.5547 17.4411 37.3262 17.1643 37.0335 16.97C36.7407 16.7757 36.397 16.6725 36.0456 16.6736C35.6942 16.6746 35.3511 16.7799 35.0595 16.976C34.768 17.172 34.5411 17.4502 34.4076 17.7752C34.2741 18.1002 34.24 18.4575 34.3096 18.8019C34.3792 19.1463 34.5493 19.4624 34.7985 19.7101C35.0688 19.9817 35.4205 20.1576 35.8 20.2109C36.1795 20.2642 36.5661 20.192 36.9008 20.0054Z" fill="#2E79BD"/>
<path d="M39.488 25.5509C39.4202 25.2033 39.2335 24.8902 38.96 24.6652C38.6864 24.4403 38.3431 24.3176 37.9889 24.3182C37.8919 24.3183 37.7951 24.3275 37.6998 24.3456C37.5034 24.3826 37.3163 24.4585 37.1496 24.5687C36.9829 24.679 36.8399 24.8215 36.7291 24.9878C36.5021 25.3236 36.4177 25.7359 36.4945 26.1339L36.4946 26.1344C36.5564 26.4566 36.7213 26.7501 36.9645 26.9704C37.2077 27.1907 37.5159 27.326 37.8427 27.3558L37.8602 27.358C38.0003 27.3769 38.1428 27.3707 38.2808 27.3395C38.6779 27.2621 39.028 27.0303 39.2544 26.695C39.4807 26.3596 39.5648 25.9482 39.488 25.5509Z" fill="#2E79BD"/>
<path d="M35.8493 32.1444C35.6924 32.0762 35.5232 32.041 35.3522 32.041C35.1024 32.0417 34.8582 32.1154 34.6497 32.253C34.4412 32.3906 34.2774 32.5861 34.1786 32.8155L34.1781 32.8164C34.0699 33.0674 34.0463 33.3468 34.1108 33.6124C34.1753 33.8781 34.3244 34.1155 34.5357 34.289L34.5621 34.3123C34.6457 34.386 34.7417 34.4444 34.8457 34.4847C34.9994 34.5508 35.1646 34.5861 35.332 34.5883C35.4993 34.5906 35.6654 34.5598 35.8209 34.4978C35.9763 34.4358 36.118 34.3437 36.2378 34.2269C36.3577 34.1101 36.4533 33.9708 36.5193 33.817C36.5852 33.6632 36.6202 33.4979 36.6222 33.3306C36.6243 33.1633 36.5933 32.9972 36.531 32.8418C36.4688 32.6865 36.3766 32.5449 36.2596 32.4252C36.1426 32.3056 36.0032 32.2101 35.8493 32.1444L35.8493 32.1444Z" fill="#2E79BD"/>
</svg>
