<svg width="51" height="55" viewBox="0 0 51 55" fill="none" xmlns="http://www.w3.org/2000/svg">
<path d="M6.79333 30.1989C6.90891 30.4966 7.08234 30.7688 7.30371 30.9997C7.52508 31.2307 7.79005 31.416 8.08345 31.545C8.37686 31.674 8.69294 31.7441 9.01363 31.7515C9.33431 31.7588 9.6533 31.7031 9.95235 31.5877L37.7998 20.861L30.2898 1.55821C30.174 1.26064 30.0005 0.988687 29.779 0.75788C29.5576 0.527072 29.2926 0.341939 28.9993 0.213056C28.7059 0.0841729 28.3899 0.014067 28.0693 0.0067434C27.7487 -0.000580169 27.4298 0.0550222 27.1308 0.170374L1.56068 10.0198C1.26157 10.1348 0.988171 10.3073 0.756114 10.5275C0.524058 10.7477 0.337894 11.0113 0.208268 11.3031C0.0786408 11.5949 0.00809267 11.9093 0.000656296 12.2283C-0.00678007 12.5473 0.0490413 12.8646 0.164929 13.1621L6.79333 30.1989Z" fill="white"/>
<path d="M38.5518 33.0591L41.1119 31.6665" stroke="#1C4DB8" stroke-width="1.5" stroke-linecap="round" stroke-linejoin="round"/>
<path d="M43.054 36.2419L38.4764 38.7779C37.9702 39.053 37.3749 39.1168 36.8215 38.9553C36.268 38.7939 35.8016 38.4203 35.5249 37.9168L35.4678 37.8079" stroke="#1C4DB8" stroke-width="1.5" stroke-linecap="round" stroke-linejoin="round"/>
<path d="M44.4225 41.2108L40.8779 43.1519C40.3715 43.4263 39.7763 43.4897 39.223 43.3281C38.6696 43.1665 38.2034 42.7931 37.9264 42.2898L37.6132 41.7214C37.3372 41.2176 37.2734 40.6255 37.4356 40.075C37.5979 39.5244 37.973 39.0604 38.4786 38.7847L43.0562 36.2487" stroke="#1C4DB8" stroke-width="1.5" stroke-linecap="round" stroke-linejoin="round"/>
<path d="M45.1621 46.8948C44.5563 47.1559 43.8793 47.2043 43.2421 47.0322C42.605 46.8601 42.0455 46.4776 41.6556 45.9475L41.3424 45.3791C41.0659 44.8754 41.0018 44.2831 41.1641 43.7324C41.3264 43.1817 41.7018 42.7177 42.2078 42.4423L44.4224 41.2108" stroke="#1C4DB8" stroke-width="1.5" stroke-linecap="round" stroke-linejoin="round"/>
<path d="M22.3291 48.7383L26.7087 43.69C26.9656 43.3942 27.1602 43.0501 27.2812 42.6781C27.4023 42.3062 27.4471 41.9139 27.4132 41.5244L26.6639 32.8497C26.6092 32.2147 26.7422 31.5777 27.0467 31.017C27.3512 30.4563 27.8139 29.9965 28.3777 29.6941L32.1641 27.6564C32.8632 27.2802 33.6491 27.0928 34.4435 27.1129C35.238 27.133 36.0133 27.3599 36.6922 27.771V27.771C36.6922 27.771 40.3768 24.9025 42.4162 25.9143C43.4358 26.4201 45.182 27.2339 45.6361 29.0916C46.4038 29.5941 47.0383 30.2734 47.4858 31.072C47.9333 31.8705 48.1806 32.7647 48.2067 33.6786C48.7765 34.2453 49.2062 34.936 49.462 35.6962C49.7177 36.4563 49.7926 37.2652 49.6806 38.0591C50.1414 40.1517 50.1423 42.0236 49.4225 43.1993C47.5527 46.2554 41.7649 48.7544 39.3809 49.6809C38.6996 49.9472 38.1437 50.4584 37.8233 51.1133L36.3952 53.9998" stroke="#1C4DB8" stroke-width="1.5" stroke-linecap="round" stroke-linejoin="round"/>
<path d="M36.6856 27.771L38.8154 33.7998C39.0727 34.5272 39.0423 35.3248 38.7302 36.0307C38.4181 36.7365 37.8478 37.2978 37.135 37.6005V37.6005C36.4394 37.896 35.6583 37.9239 34.9432 37.6789C34.2281 37.4338 33.6299 36.9332 33.2647 36.2742L32.0527 34.0954" stroke="#1C4DB8" stroke-width="1.5" stroke-linecap="round" stroke-linejoin="round"/>
<path d="M39.1328 26.295L36.1918 18.7382L33.1318 19.9024L36.0738 27.4612" stroke="#1C4DB8" stroke-width="1.5" stroke-linecap="round" stroke-linejoin="round"/>
<path d="M30.2898 1.55458L30.6068 2.37023L0.481973 13.9741L0.164929 13.1584C0.0490413 12.8609 -0.00678007 12.5436 0.000656296 12.2247C0.00809267 11.9057 0.0786408 11.5913 0.208268 11.2995C0.337894 11.0076 0.524058 10.7441 0.756115 10.5239C0.988171 10.3037 1.26157 10.1311 1.56068 10.0161L27.1308 0.1639C27.43 0.0486246 27.749 -0.00684156 28.0698 0.000673152C28.3905 0.00818787 28.7066 0.078536 29 0.207695C29.2934 0.336854 29.5583 0.52229 29.7796 0.7534C30.001 0.98451 30.1743 1.25676 30.2898 1.55458Z" fill="#E82E5F"/>
<path d="M31.7996 5.42925L1.6748 17.0327L2.87813 20.1257L33.0029 8.5222L31.7996 5.42925Z" fill="#E82E5F"/>
<path d="M34.1922 11.5917L4.06738 23.1952L5.26624 26.2767L35.3911 14.6732L34.1922 11.5917Z" fill="#E82E5F"/>
<path d="M36.5946 17.7653L37.798 20.8573L9.95054 31.584C9.65154 31.6993 9.33263 31.7549 9.01203 31.7476C8.69143 31.7403 8.37542 31.6702 8.08205 31.5413C7.78869 31.4124 7.52372 31.2273 7.30229 30.9965C7.08086 30.7657 6.9073 30.4937 6.79153 30.1961L6.46973 29.3691L36.5946 17.7653Z" fill="#E82E5F"/>
<path d="M34.1965 11.5924L20.5322 16.8539L15.7471 4.54903L27.133 0.166677C27.7369 -0.0660246 28.409 -0.0505425 29.0014 0.209719C29.5938 0.46998 30.058 0.953708 30.292 1.55452L34.1965 11.5924Z" fill="#1C4DB8"/>
<path d="M24.0415 6.92773C24.5773 6.92773 25.0116 6.49554 25.0116 5.9624C25.0116 5.42926 24.5773 4.99707 24.0415 4.99707C23.5056 4.99707 23.0713 5.42926 23.0713 5.9624C23.0713 6.49554 23.5056 6.92773 24.0415 6.92773Z" fill="white"/>
<path d="M27.061 3.63867C27.5968 3.63867 28.0312 3.20648 28.0312 2.67334C28.0312 2.1402 27.5968 1.70801 27.061 1.70801C26.5252 1.70801 26.0908 2.1402 26.0908 2.67334C26.0908 3.20648 26.5252 3.63867 27.061 3.63867Z" fill="white"/>
<path d="M19.4321 6.57715C19.9679 6.57715 20.4023 6.14495 20.4023 5.61182C20.4023 5.07868 19.9679 4.64648 19.4321 4.64648C18.8963 4.64648 18.4619 5.07868 18.4619 5.61182C18.4619 6.14495 18.8963 6.57715 19.4321 6.57715Z" fill="white"/>
<path d="M28.5239 7.39953C29.0597 7.39953 29.4941 6.96734 29.4941 6.4342C29.4941 5.90107 29.0597 5.46887 28.5239 5.46887C27.9881 5.46887 27.5537 5.90107 27.5537 6.4342C27.5537 6.96734 27.9881 7.39953 28.5239 7.39953Z" fill="white"/>
<path d="M20.8969 10.3383C21.4327 10.3383 21.8671 9.90606 21.8671 9.37292C21.8671 8.83979 21.4327 8.40759 20.8969 8.40759C20.3611 8.40759 19.9268 8.83979 19.9268 9.37292C19.9268 9.90606 20.3611 10.3383 20.8969 10.3383Z" fill="white"/>
<path d="M25.7114 11.2249C26.2472 11.2249 26.6816 10.7927 26.6816 10.2595C26.6816 9.72638 26.2472 9.29419 25.7114 9.29419C25.1756 9.29419 24.7412 9.72638 24.7412 10.2595C24.7412 10.7927 25.1756 11.2249 25.7114 11.2249Z" fill="white"/>
<path d="M30.1938 11.6967C30.7296 11.6967 31.164 11.2645 31.164 10.7313C31.164 10.1982 30.7296 9.76599 30.1938 9.76599C29.658 9.76599 29.2236 10.1982 29.2236 10.7313C29.2236 11.2645 29.658 11.6967 30.1938 11.6967Z" fill="white"/>
<path d="M22.5669 14.6353C23.1027 14.6353 23.537 14.2031 23.537 13.6699C23.537 13.1368 23.1027 12.7046 22.5669 12.7046C22.031 12.7046 21.5967 13.1368 21.5967 13.6699C21.5967 14.2031 22.031 14.6353 22.5669 14.6353Z" fill="white"/>
</svg>
