<svg width="50" height="48" viewBox="0 0 50 48" fill="none" xmlns="http://www.w3.org/2000/svg">
<path d="M33.1611 28.6267C32.8585 26.4749 32.1381 24.4041 31.0409 22.5328C29.9437 20.6614 28.4913 19.0261 26.7665 17.7202C25.0418 16.4143 23.0785 15.4635 20.9889 14.9219C18.8992 14.3803 16.7241 14.2587 14.5878 14.5639C12.4515 14.8691 10.3958 15.5953 8.53809 16.7008C6.68042 17.8063 5.05716 19.2697 3.76103 21.0072C2.46491 22.7447 1.5213 24.7223 0.984097 26.8272C0.446897 28.932 0.32663 31.1229 0.630167 33.2746C0.739422 34.0602 0.905716 34.8367 1.12771 35.5979C1.62133 37.0574 2.3137 38.4407 3.185 39.7084C3.19338 39.84 3.20179 39.9717 3.20299 40.1021C3.23079 41.319 2.96897 42.5249 2.4394 43.619C1.90983 44.7131 1.1279 45.6636 0.158999 46.391C0.0966342 46.4375 0.0493493 46.5016 0.0231163 46.5752C-0.00311666 46.6487 -0.00712117 46.7285 0.0116085 46.8043C0.0303381 46.8802 0.0709619 46.9487 0.128349 47.0013C0.185737 47.0539 0.257315 47.0882 0.334043 47.0999C3.21374 47.5207 6.14582 46.8461 8.55848 45.2076C8.63281 45.1581 8.70594 45.1074 8.77787 45.0567L8.83782 45.0132C10.7023 46.1346 12.7403 46.933 14.8671 47.3752C17.3716 47.6866 19.9136 47.4132 22.2963 46.576C24.679 45.7389 26.8384 44.3606 28.6073 42.5478C30.3761 40.735 31.7069 38.5364 32.4966 36.1223C33.2863 33.7083 33.5136 31.1435 33.1611 28.6267L33.1611 28.6267ZM9.22387 33.1429C8.79343 33.1428 8.37269 33.0142 8.01484 32.7732C7.657 32.5323 7.37811 32.1899 7.21344 31.7893C7.04877 31.3887 7.00572 30.948 7.08972 30.5228C7.17373 30.0976 7.38101 29.707 7.68538 29.4004C7.98975 29.0939 8.37752 28.8851 8.79968 28.8005C9.22185 28.7158 9.65944 28.7592 10.0571 28.9251C10.4548 29.0909 10.7948 29.3718 11.034 29.7323C11.2732 30.0927 11.4009 30.5165 11.4011 30.95C11.4011 31.238 11.3448 31.5232 11.2354 31.7892C11.1259 32.0553 10.9656 32.297 10.7634 32.5007C10.5612 32.7043 10.3212 32.8658 10.0571 32.976C9.79291 33.0862 9.50979 33.143 9.22387 33.1429ZM16.9436 33.1429C16.5131 33.1428 16.0924 33.0142 15.7345 32.7732C15.3767 32.5323 15.0978 32.1899 14.9332 31.7893C14.7685 31.3887 14.7254 30.948 14.8094 30.5228C14.8935 30.0976 15.1007 29.707 15.4051 29.4004C15.7095 29.0939 16.0973 28.8851 16.5194 28.8005C16.9416 28.7159 17.3792 28.7592 17.7769 28.9251C18.1746 29.0909 18.5145 29.3718 18.7537 29.7323C18.9929 30.0927 19.1207 30.5165 19.1208 30.95C19.1208 31.238 19.0645 31.5232 18.9551 31.7892C18.8457 32.0553 18.6853 32.297 18.4831 32.5007C18.2809 32.7043 18.0409 32.8658 17.7768 32.976C17.5126 33.0862 17.2295 33.143 16.9436 33.1429ZM24.6621 33.1429C24.2316 33.1428 23.8109 33.0142 23.453 32.7732C23.0952 32.5323 22.8163 32.1899 22.6516 31.7893C22.487 31.3887 22.4439 30.948 22.5279 30.5228C22.6119 30.0976 22.8192 29.707 23.1236 29.4004C23.428 29.0939 23.8157 28.8851 24.2379 28.8005C24.6601 28.7158 25.0977 28.7592 25.4954 28.9251C25.893 29.0909 26.233 29.3718 26.4722 29.7323C26.7114 30.0927 26.8392 30.5165 26.8393 30.95C26.8393 31.238 26.783 31.5232 26.6736 31.7892C26.5642 32.0553 26.4038 32.297 26.2016 32.5007C25.9994 32.7043 25.7594 32.8658 25.4953 32.976C25.2311 33.0862 24.948 33.143 24.6621 33.1429Z" fill="#2D3E50"/>
<path d="M49.9884 32.4051C49.9701 32.4812 49.9296 32.5501 49.8721 32.6028C49.8147 32.6555 49.7428 32.6897 49.6659 32.701C46.7863 33.1223 43.8542 32.4481 41.4415 30.8099C41.3671 30.7604 41.294 30.7085 41.2221 30.6578L41.1621 30.6143C39.3544 31.702 37.3827 32.4855 35.3247 32.934C35.4837 31.4015 35.4551 29.8551 35.2396 28.3296C34.62 23.9362 32.4669 19.9087 29.1663 16.9693C25.8657 14.0299 21.6335 12.3709 17.2285 12.2897C17.7881 10.1731 18.7593 8.18958 20.0858 6.45398C21.4123 4.71839 23.0676 3.26528 24.9559 2.17893C26.8441 1.09257 28.9277 0.394584 31.0858 0.125426C33.2439 -0.143731 35.4336 0.0213005 37.5278 0.610953C39.6221 1.2006 41.5794 2.20315 43.2861 3.56045C44.9928 4.91774 46.415 6.6028 47.4703 8.5179C48.5255 10.433 49.1928 12.5401 49.4335 14.7169C49.6741 16.8937 49.4834 19.097 48.8722 21.199C48.3785 22.6582 47.6866 24.0415 46.8161 25.3095C46.8065 25.4411 46.7981 25.5728 46.7969 25.7032C46.7691 26.9202 47.0309 28.1263 47.5605 29.2206C48.0901 30.3149 48.872 31.2656 49.8409 31.9933C49.9034 32.0394 49.9507 32.1032 49.977 32.1766C50.0033 32.2499 50.0072 32.3295 49.9884 32.4051Z" fill="#1D75B8"/>
</svg>
