<svg width="50" height="30" viewBox="0 0 50 30" fill="none" xmlns="http://www.w3.org/2000/svg">
<path d="M40.8454 14.3287L39.5753 4.05072L37.1952 4.34257L37.1962 4.34091L32.582 1.75412C32.0898 1.47823 31.525 1.35819 30.9626 1.40994L23.6769 2.08118C22.7813 2.16367 21.9811 2.67274 21.5292 3.44749L16.3941 12.2522C16.0149 12.9023 16.3126 13.7361 17.0187 14.0018L17.2288 14.0808C17.6329 14.2328 18.0482 14.3208 18.4633 14.3553L17.8127 14.9198L16.5109 16.0496L12.8085 19.1957C12.1494 19.7676 12.081 20.7628 12.6551 21.4193L13.0307 21.8478C13.768 22.6901 15.0513 22.7776 15.8983 22.0429L17.3133 23.6597C17.7734 24.186 18.4474 24.4188 19.095 24.3394C19.4841 24.2917 19.8638 24.131 20.1809 23.8547L21.5943 25.4716C22.0561 25.9993 22.73 26.2305 23.3775 26.1511C23.7667 26.1034 24.1465 25.9442 24.4636 25.6681L25.2318 26.3294C25.9693 27.1731 27.254 27.2603 28.1011 26.5257L29.1453 25.6182L37.9241 18.8073L37.9336 18.7987L41.3972 18.7953L40.8454 14.3287Z" fill="#F29F5C"/>
<path d="M37.0828 16.1508L37.0734 16.1595L28.2946 22.9703L27.2503 23.8778C26.4034 24.6125 25.1185 24.5252 24.381 23.6815L23.6129 23.0202C23.2957 23.2964 22.9158 23.4556 22.5268 23.5033C21.8792 23.5827 21.2054 23.3514 20.7436 22.8238L19.3301 21.2069C19.0129 21.4831 18.6333 21.6438 18.2442 21.6915C17.5967 21.7709 16.9226 21.5382 16.4626 21.0118L15.0476 19.395C14.3224 20.024 13.2783 20.0485 12.5299 19.5144C12.1461 20.0909 12.1768 20.8722 12.6552 21.4193L13.0308 21.8479C13.7681 22.6901 15.0514 22.7776 15.8984 22.0429L17.3135 23.6597C17.7735 24.186 18.4475 24.4188 19.0951 24.3394C19.4842 24.2917 19.8638 24.131 20.181 23.8548L21.5945 25.4718C22.0562 25.9994 22.7301 26.2306 23.3776 26.1513C23.7668 26.1035 24.1466 25.9443 24.4638 25.6682L25.2319 26.3295C25.9694 27.1732 27.2541 27.2605 28.1012 26.5258L29.1454 25.6183L37.9242 18.8074L37.9337 18.7988L41.3973 18.7954L41.0141 15.6945L37.0828 16.1508Z" fill="#D37D42"/>
<path d="M38.6816 20.5965L33.9781 16.5565L32.6701 15.4338L31.7342 14.6309L27.7101 11.1755L28.1748 7.23464C28.3321 5.90179 27.4898 4.65397 26.1914 4.29608L17.4195 1.87816C16.4914 1.62232 15.5104 2.05132 15.0714 2.90516L13.9683 5.0502L9.23318 4.73005L8.02031 15.015L7.49316 19.4845L12.1023 19.7899L12.1119 19.7985L21.7408 28.0667L22.7901 28.9685C23.6412 29.6985 24.9255 29.6041 25.6583 28.7563L27.0625 27.1331C27.3812 27.4075 27.7619 27.5647 28.1514 27.6103C28.7993 27.6862 29.472 27.4511 29.9308 26.9209L31.3352 25.2963C31.6539 25.5707 32.0344 25.7294 32.4239 25.7749C33.0718 25.8508 33.7446 25.6143 34.2017 25.0854L35.6076 23.4608C36.4587 24.1908 37.7415 24.0962 38.4741 23.2499L38.8473 22.8192C39.4178 22.1596 39.3438 21.1648 38.6816 20.5965Z" fill="#F9C295"/>
<path d="M38.6813 20.5966L37.2486 19.366C37.7143 19.9811 37.7047 20.8561 37.1792 21.4637L36.783 21.9209C36.0053 22.8192 34.6436 22.9196 33.7401 22.1447L32.2475 23.8693C31.7623 24.4307 31.0481 24.6817 30.3602 24.6012C29.9469 24.5529 29.5429 24.3845 29.2046 24.0931L27.7136 25.8179C27.2266 26.3807 26.5126 26.6301 25.8248 26.5497C25.4114 26.5013 25.0072 26.3345 24.6689 26.0431L23.1781 27.7664C22.8973 28.0914 22.5395 28.3103 22.1553 28.4232L22.7899 28.9686C23.641 29.6986 24.9253 29.6043 25.6581 28.7565L27.0623 27.1332C27.381 27.4077 27.7617 27.5648 28.1512 27.6104C28.7991 27.6862 29.4718 27.4513 29.9306 26.9211L31.335 25.2964C31.6537 25.5708 32.0342 25.7295 32.4237 25.775C33.0716 25.8509 33.7444 25.6144 34.2015 25.0855L35.6074 23.4609C36.4585 24.1909 37.7413 24.0963 38.4739 23.25L38.8471 22.8193C39.4176 22.1597 39.3435 21.1649 38.6813 20.5966Z" fill="#E59F6A"/>
<path d="M36.0849 22.9199L33.5076 20.7062C33.2014 20.4431 32.7388 20.4772 32.4746 20.7823C32.2104 21.0875 32.2447 21.5482 32.5511 21.8114L35.1238 24.0212L35.6087 23.4609C35.8023 23.6269 36.0188 23.748 36.2454 23.8297C36.4127 23.5331 36.3534 23.1505 36.0849 22.9199Z" fill="#E59F6A"/>
<path d="M31.9636 25.6643C32.1401 25.3661 32.0835 24.9761 31.8111 24.7421L29.4959 22.7535C29.1895 22.4905 28.7271 22.5245 28.4629 22.8297C28.1987 23.1349 28.233 23.5956 28.5393 23.8587L30.8545 25.8473C30.8555 25.848 30.8565 25.8487 30.8575 25.8495L31.3358 25.2962C31.5265 25.4605 31.7398 25.5824 31.9636 25.6643Z" fill="#E59F6A"/>
<path d="M12.3416 19.7797L11.7837 20.5136C11.1762 21.3127 11.334 22.4512 12.1362 23.0565C12.9385 23.6617 14.0813 23.5045 14.6889 22.7053L15.2468 21.9714C15.8543 21.1723 15.6965 20.0338 14.8943 19.4285C14.0921 18.8233 12.9491 18.9805 12.3416 19.7797Z" fill="#F29F5C"/>
<path d="M15.7396 21.3233L14.689 22.7053C14.0814 23.5045 14.2393 24.643 15.0415 25.2483C15.8437 25.8534 16.9866 25.6962 17.5942 24.8971L18.6449 23.515C19.2524 22.7158 19.0946 21.5774 18.2923 20.9721C17.49 20.3669 16.3471 20.5241 15.7396 21.3233Z" fill="#F29F5C"/>
<path d="M19.0261 23.0135L17.5942 24.897C16.9867 25.6962 17.1445 26.8347 17.9468 27.44C18.749 28.0451 19.8919 27.8879 20.4995 27.0888L21.9314 25.2052C22.5389 24.4061 22.3811 23.2676 21.5788 22.6623C20.7766 22.057 19.6338 22.2143 19.0261 23.0135Z" fill="#F29F5C"/>
<path d="M22.0145 25.0959L20.4995 27.0886C19.892 27.8878 20.0498 29.0263 20.852 29.6316C21.6543 30.2367 22.7971 30.0795 23.4047 29.2804L24.9198 27.2876C25.5273 26.4884 25.3695 25.3499 24.5672 24.7447C23.7649 24.1395 22.622 24.2967 22.0145 25.0959Z" fill="#F29F5C"/>
<path d="M37.1954 4.34103L32.5812 1.75424C32.089 1.47835 31.5242 1.35831 30.9618 1.41006L23.6761 2.0813C22.7805 2.16379 21.9803 2.67286 21.5284 3.44761L16.3933 12.2523C16.0141 12.9025 16.3118 13.7362 17.0179 14.0019L17.228 14.0809C19.1103 14.7891 21.236 14.1864 22.4619 12.5972L24.4293 10.0465C24.4293 10.0465 29.1587 15.5013 34.3656 9.13104" fill="#F29F5C"/>
<path d="M49.9946 20.1697L47.5813 0.64051C47.5575 0.448478 47.4582 0.273665 47.3051 0.154593C47.152 0.0355217 46.9577 -0.0179832 46.7649 0.00555871L41.1216 0.697614C39.6559 0.877389 38.6103 2.2115 38.7908 3.67148L40.7286 19.3531C40.8954 20.7031 42.0527 21.6953 43.3848 21.6953C43.4934 21.6953 43.6035 21.6887 43.7139 21.6751L49.3572 20.9831C49.7586 20.9338 50.044 20.5696 49.9946 20.1697Z" fill="#5C9CEE"/>
<path d="M49.9948 20.1698L49.7299 18.0261C49.6097 18.2017 49.418 18.3272 49.1896 18.3552L43.274 19.0806C43.1582 19.0948 43.0428 19.1017 42.929 19.1017C41.9329 19.1017 41.0305 18.5723 40.5312 17.7554L40.7287 19.3531C40.8955 20.7031 42.0528 21.6952 43.3849 21.6952C43.4935 21.6952 43.6036 21.6886 43.714 21.6751L49.3573 20.983C49.7588 20.9338 50.0442 20.5697 49.9948 20.1698Z" fill="#3580D3"/>
<path d="M8.87859 0.697524L3.2353 0.0054689C3.04224 -0.0181703 2.8482 0.0354319 2.69508 0.154503C2.54195 0.273575 2.44264 0.448388 2.41891 0.64042L0.00556005 20.1697C-0.0438534 20.5696 0.241592 20.9338 0.642954 20.983L6.28624 21.675C6.39679 21.6886 6.50665 21.6952 6.61534 21.6952C7.94735 21.6952 9.10476 20.7029 9.27155 19.353L11.2094 3.6714C11.3899 2.21141 10.3443 0.877299 8.87859 0.697524Z" fill="#ED5575"/>
<path d="M0.00556156 20.1698L0.2705 18.0261C0.390615 18.2017 0.58241 18.3272 0.810727 18.3552L6.72637 19.0806C6.84219 19.0948 6.95752 19.1017 7.07139 19.1017C8.06747 19.1017 8.9699 18.5723 9.46911 17.7554L9.27165 19.3531C9.10486 20.7031 7.94755 21.6952 6.61544 21.6952C6.50684 21.6952 6.39679 21.6886 6.28634 21.6751L0.643053 20.983C0.241496 20.9338 -0.0438519 20.5697 0.00556156 20.1698Z" fill="#CC3A60"/>
<path d="M45.3133 18.4531C46.0952 18.4531 46.7291 17.8216 46.7291 17.0427C46.7291 16.2638 46.0952 15.6323 45.3133 15.6323C44.5313 15.6323 43.8975 16.2638 43.8975 17.0427C43.8975 17.8216 44.5313 18.4531 45.3133 18.4531Z" fill="#EBEEF2"/>
<path d="M4.60818 18.4531C5.39011 18.4531 6.02399 17.8216 6.02399 17.0427C6.02399 16.2638 5.39011 15.6323 4.60818 15.6323C3.82626 15.6323 3.19238 16.2638 3.19238 17.0427C3.19238 17.8216 3.82626 18.4531 4.60818 18.4531Z" fill="#EBEEF2"/>
</svg>
