<svg width="34" height="34" viewBox="0 0 34 34" fill="none" xmlns="http://www.w3.org/2000/svg">
<rect x="34" y="34" width="34" height="34" rx="5" transform="rotate(180 34 34)" fill="#00AADE"/>
<path d="M23.5055 12.4962C24.3092 12.0909 24.9107 11.383 25.1722 10.5346C24.5055 11.1885 23.0889 11.4051 23.0889 11.4051C22.0784 10.1873 20.3279 9.84602 18.9194 10.5922C17.5108 11.3383 16.842 12.9612 17.3264 14.4577H17.1722C14.4267 14.2791 11.8852 12.9735 10.1722 10.8616C10.1722 10.8616 8.1722 13.4769 11.1722 15.4385C11.1722 15.4385 9.83887 15.4385 9.50553 15.1115C9.50553 15.1115 9.1722 17.0731 12.1722 18.3808C11.7487 18.5699 11.2624 18.5699 10.8389 18.3808C10.8389 19.6435 12.1805 20.6692 13.8389 20.6692C13.8389 21.5723 11.6014 22.3038 8.83887 22.3038C13.1722 25.2461 23.5055 24.5923 24.1722 13.4769L25.8389 11.8423L23.5055 12.4962Z" fill="white"/>
</svg>
