<svg enable-background="new 0 0 32 32" height="512" viewBox="0 0 32 32" width="512" xmlns="http://www.w3.org/2000/svg"><path d="m26 32h-20c-3.314 0-6-2.686-6-6v-20c0-3.314 2.686-6 6-6h20c3.314 0 6 2.686 6 6v20c0 3.314-2.686 6-6 6z" fill="#e3f8fa"/><path d="m23.122 14.263-1.253-.16c-.103-.318-.23-.625-.38-.916l.774-.996c.313-.404.277-.973-.081-1.32l-1.05-1.05c-.35-.361-.919-.397-1.324-.085l-.996.774c-.291-.149-.598-.276-.916-.379l-.158-1.251c-.061-.502-.487-.88-.991-.88h-1.493c-.505 0-.931.378-.991.878l-.16 1.253c-.318.104-.625.23-.916.379l-.996-.774c-.403-.313-.972-.277-1.32.081l-1.05 1.05c-.361.351-.398.92-.085 1.324l.774.996c-.149.291-.276.598-.38.916l-1.25.159c-.502.061-.88.487-.88.991v1.493c0 .505.378.931.878.991l1.253.16c.103.318.23.625.38.916l-.774.996c-.313.404-.277.973.081 1.32l1.05 1.05c.351.361.919.397 1.323.084l.996-.774c.291.149.598.276.916.38l.159 1.251c.06.502.486.88.991.88h1.493c.505 0 .931-.378.991-.878l.16-1.253c.318-.103.625-.23.916-.38l.996.774c.403.313.973.277 1.32-.081l1.05-1.05c.361-.351.398-.92.085-1.324l-.774-.996c.149-.291.276-.598.38-.916l1.251-.159c.502-.06.88-.486.88-.991v-1.493c-.001-.504-.379-.93-.879-.99zm-7.122 5.07c-1.838 0-3.333-1.495-3.333-3.333s1.495-3.333 3.333-3.333 3.333 1.495 3.333 3.333-1.495 3.333-3.333 3.333z" fill="#26c6da"/></svg>