<svg id="color" enable-background="new 0 0 24 24" height="512" viewBox="0 0 24 24" width="512" xmlns="http://www.w3.org/2000/svg"><path d="m9.75 22h-2.25c-1.654 0-3-1.346-3-3v-4.75c0-.552.447-1 1-1s1 .448 1 1v4.75c0 .551.448 1 1 1h2.25c.553 0 1 .448 1 1s-.447 1-1 1z" fill="#607d8b"/><path d="m16.5 22h-2.25c-.553 0-1-.448-1-1s.447-1 1-1h2.25c.552 0 1-.449 1-1v-4.75c0-.552.447-1 1-1s1 .448 1 1v4.75c0 1.654-1.346 3-3 3z" fill="#607d8b"/><path d="m13.25 24h-2.5c-.965 0-1.75-.785-1.75-1.75v-2.5c0-.965.785-1.75 1.75-1.75h2.5c.965 0 1.75.785 1.75 1.75v2.5c0 .965-.785 1.75-1.75 1.75z" fill="#2196f3"/><path d="m5.5 13.25c-.553 0-1 .448-1 1v4.75c0 1.654 1.346 3 3 3h1.5v-2h-1.5c-.552 0-1-.449-1-1v-4.75c0-.552-.447-1-1-1z" fill="#546d79"/><path d="m12 18h-1.25c-.965 0-1.75.785-1.75 1.75v.25 2 .25c0 .965.785 1.75 1.75 1.75h1.25z" fill="#1d83d4"/><path d="m8.25 0h-5.5c-1.517 0-2.75 1.233-2.75 2.75v9.5c0 1.517 1.233 2.75 2.75 2.75h5.5c1.517 0 2.75-1.233 2.75-2.75v-9.5c0-1.517-1.233-2.75-2.75-2.75z" fill="#eceff1"/><path d="m21.25 0h-5.5c-1.517 0-2.75 1.233-2.75 2.75v9.5c0 1.517 1.233 2.75 2.75 2.75h5.5c1.517 0 2.75-1.233 2.75-2.75v-9.5c0-1.517-1.233-2.75-2.75-2.75z" fill="#eceff1"/><path d="m5.5 0h-2.75c-1.517 0-2.75 1.233-2.75 2.75v9.5c0 1.517 1.233 2.75 2.75 2.75h2.75z" fill="#cdd0d2"/><path d="m18.5 0h-2.75c-1.517 0-2.75 1.233-2.75 2.75v9.5c0 1.517 1.233 2.75 2.75 2.75h2.75z" fill="#cdd0d2"/><g fill="#2196f3"><path d="m7.25 12h-3.5c-.414 0-.75-.336-.75-.75s.336-.75.75-.75h3.5c.414 0 .75.336.75.75s-.336.75-.75.75z"/><path d="m7.25 8.25h-3.5c-.414 0-.75-.336-.75-.75s.336-.75.75-.75h3.5c.414 0 .75.336.75.75s-.336.75-.75.75z"/><path d="m20.25 12h-3.5c-.414 0-.75-.336-.75-.75s.336-.75.75-.75h3.5c.414 0 .75.336.75.75s-.336.75-.75.75z"/><path d="m20.25 8.25h-3.5c-.414 0-.75-.336-.75-.75s.336-.75.75-.75h3.5c.414 0 .75.336.75.75s-.336.75-.75.75z"/><path d="m7.25 4.5h-3.5c-.414 0-.75-.336-.75-.75s.336-.75.75-.75h3.5c.414 0 .75.336.75.75s-.336.75-.75.75z"/><path d="m20.25 4.5h-3.5c-.414 0-.75-.336-.75-.75s.336-.75.75-.75h3.5c.414 0 .75.336.75.75s-.336.75-.75.75z"/></g><g fill="#1d83d4"><path d="m8 3.75h-5c0 .414.336.75.75.75h3.5c.414 0 .75-.336.75-.75z"/><path d="m21 3.75h-5c0 .414.336.75.75.75h3.5c.414 0 .75-.336.75-.75z"/><path d="m8 7.5h-5c0 .414.336.75.75.75h3.5c.414 0 .75-.336.75-.75z"/><path d="m21 7.5h-5c0 .414.336.75.75.75h3.5c.414 0 .75-.336.75-.75z"/><path d="m8 11.25h-5c0 .414.336.75.75.75h3.5c.414 0 .75-.336.75-.75z"/><path d="m21 11.25h-5c0 .414.336.75.75.75h3.5c.414 0 .75-.336.75-.75z"/></g></svg>