<svg width="230" height="123" viewBox="0 0 230 123" fill="none" xmlns="http://www.w3.org/2000/svg">
<path d="M161.506 7.55328V25.4978L176.432 18.0356C177.675 17.4137 177.675 15.6374 176.432 15.0166L161.506 7.55328Z" fill="#F25757"/>
<path d="M161.506 68.5667C159.522 68.5667 157.917 66.9591 157.917 64.9773V3.96406C157.917 1.98229 159.522 0.375789 161.506 0.375789C163.49 0.375789 165.095 1.98229 165.095 3.96406V64.9773C165.095 66.9591 163.49 68.5667 161.506 68.5667Z" fill="#283044"/>
<path d="M61.0134 68.5666C33.2634 68.5666 10.7671 91.0629 10.7671 118.813H111.26C111.26 91.0629 88.7635 68.5666 61.0134 68.5666Z" fill="#BFF7E9"/>
<path d="M68.9674 69.1922C66.4026 68.7885 63.6914 68.5671 61.0139 68.5671C33.2628 68.5671 10.7676 91.0624 10.7676 118.813H26.4689C26.4689 93.7409 44.9563 72.9692 68.9674 69.1922Z" fill="#48C2D3"/>
<path d="M50.2461 100.868H39.4792C37.4953 100.868 35.8899 99.2614 35.8899 97.2786C35.8899 95.2968 37.4953 93.6893 39.4792 93.6893H50.2461C52.23 93.6893 53.8355 95.2968 53.8355 97.2786C53.8355 99.2614 52.23 100.868 50.2461 100.868Z" fill="#F25757"/>
<path d="M21.5345 100.868C23.5184 100.868 25.1238 99.2614 25.1238 97.2786C25.1238 95.2968 23.5184 93.6893 21.5345 93.6893H17.5446C16.2206 95.9757 15.0811 98.3728 14.125 100.868H21.5345Z" fill="#F25757"/>
<path d="M78.9584 79.3336C57.1547 79.3336 39.479 97.0093 39.479 118.813H129.205V79.3336H78.9584Z" fill="#587291"/>
<path d="M41.004 108.046C40.0332 111.473 39.4797 115.075 39.4797 118.813H129.204V108.046H41.004Z" fill="#48C2D3"/>
<path d="M161.506 61.3888C129.792 61.3888 104.081 87.0991 104.081 118.813H218.93C218.93 87.0991 193.22 61.3888 161.506 61.3888Z" fill="#48C2D3"/>
<path d="M170.637 62.109C167.706 61.6484 164.566 61.388 161.506 61.388C129.791 61.388 104.082 87.0983 104.082 118.813H122.026C122.026 90.1585 143.195 66.4257 170.637 62.109Z" fill="#BFF7E9"/>
<path d="M64.6025 100.868V118.812H78.9588V100.868C78.9588 98.886 77.3512 97.2784 75.3695 97.2784H68.1919C66.209 97.2784 64.6025 98.886 64.6025 100.868Z" fill="#283044"/>
<path d="M165.095 86.5118H129.205C127.223 86.5118 125.615 88.1183 125.615 90.1011V104.456C125.615 106.439 127.223 108.046 129.205 108.046H165.095C167.077 108.046 168.684 106.439 168.684 104.456V90.1011C168.684 88.1183 167.077 86.5118 165.095 86.5118Z" fill="#283044"/>
<path d="M226.109 122.402H3.58932C1.60544 122.402 0 120.796 0 118.813C0 116.831 1.60544 115.225 3.58932 115.225H226.109C228.092 115.225 229.698 116.831 229.698 118.813C229.698 120.796 228.092 122.402 226.109 122.402Z" fill="#283044"/>
<path d="M132.794 93.6902H143.561V100.869H132.794V93.6902Z" fill="#F25757"/>
<path d="M150.739 93.6902H161.505V100.869H150.739V93.6902Z" fill="#F25757"/>
<path d="M208.978 86.5118H193.807C191.825 86.5118 190.219 88.1183 190.219 90.1011V104.456C190.219 106.439 191.825 108.046 193.807 108.046H217.887C216.394 100.184 213.323 92.8862 208.978 86.5118Z" fill="#283044"/>
<path d="M213.056 93.6898H197.396V100.868H215.979C215.168 98.3922 214.182 96.0036 213.056 93.6898Z" fill="#F25757"/>
<path d="M161.506 0.375413C159.525 0.375413 157.917 1.98191 157.917 3.96474V11.1423H165.095V3.96474C165.095 1.98191 163.488 0.375413 161.506 0.375413Z" fill="#587291"/>
</svg>
