<svg width="135" height="135" viewBox="0 0 135 135" fill="none" xmlns="http://www.w3.org/2000/svg">
<path d="M102.134 134.178H0.445557L12.001 20.935H113.689L102.134 134.178Z" fill="#48C2D3"/>
<path d="M134.488 134.178L118.311 120.311H103.549L113.689 20.935H122.933L134.488 134.178Z" fill="#BFF7E9"/>
<path d="M118.311 120.312L102.134 134.179L103.549 120.312H118.311Z" fill="#587291"/>
<path d="M51.2892 20.9345V16.3121C51.2892 7.37724 44.0462 0.134284 35.1114 0.134284C26.1765 0.134284 18.9336 7.37724 18.9336 16.3121V25.5568C18.9336 34.4917 26.1765 41.7346 35.1114 41.7346V32.4899C31.2828 32.4899 28.1783 29.3854 28.1783 25.5568V16.3121C28.1783 12.4835 31.2828 9.37904 35.1114 9.37904C38.9411 9.37904 42.0444 12.4835 42.0444 16.3121V20.9345H51.2892Z" fill="#587291"/>
<path d="M83.6444 20.9345V16.3121C83.6444 7.37724 76.4014 0.134284 67.4666 0.134284C58.5318 0.134284 51.2888 7.37724 51.2888 16.3121V25.5568C51.2888 34.4917 58.5318 41.7346 67.4666 41.7346V32.4899C63.638 32.4899 60.5336 29.3854 60.5336 25.5568V16.3121C60.5336 12.4835 63.638 9.37904 67.4666 9.37904C71.2963 9.37904 74.3996 12.4835 74.3996 16.3121V20.9345H83.6444Z" fill="#587291"/>
<path d="M116 20.9345V16.3121C116 7.37724 108.757 0.134284 99.8223 0.134284C90.8875 0.134284 83.6445 7.37724 83.6445 16.3121V25.5568C83.6445 34.4917 90.8875 41.7346 99.8223 41.7346V32.4899C95.9937 32.4899 92.8893 29.3854 92.8893 25.5568V16.3121C92.8893 12.4835 95.9937 9.37904 99.8223 9.37904C103.652 9.37904 106.755 12.4835 106.755 16.3121V20.9345H116Z" fill="#587291"/>
<path d="M48.9788 50.9788H67.4682V69.4673H48.9788V50.9788Z" fill="#283044"/>
<path d="M76.7119 50.9788H95.2004V69.4673H76.7119V50.9788Z" fill="#283044"/>
<path d="M16.623 78.7122H35.1125V97.2004H16.623V78.7122Z" fill="#283044"/>
<path d="M44.3562 78.7122H62.8457V97.2004H44.3562V78.7122Z" fill="#283044"/>
<path d="M14.3113 106.445H32.8008V124.934H14.3113V106.445Z" fill="#283044"/>
<path d="M42.0444 106.445H60.5329V124.934H42.0444V106.445Z" fill="#283044"/>
<path d="M134.489 134.178H102.134L118.311 120.311L134.489 134.178Z" fill="#283044"/>
<path d="M92.2119 80.3463L88.943 77.0774L81.3332 84.6882L73.7235 77.0774L70.4546 80.3463L78.0654 87.9561L70.4546 95.5669L73.7235 98.8347L81.3332 91.2249L88.943 98.8347L92.2119 95.5669L84.6021 87.9561L92.2119 80.3463Z" fill="#F25757"/>
</svg>
