<svg width="124" height="138" viewBox="0 0 124 138" fill="none" xmlns="http://www.w3.org/2000/svg">
<path d="M13.989 0.784498H123.422V137.53H13.989V0.784498Z" fill="#BFF7E9"/>
<path d="M102.061 120.088C101.484 120.088 100.915 119.881 100.466 119.484C99.7491 118.848 99.4771 117.847 99.7765 116.936C99.9515 116.399 100.047 115.847 100.082 115.294C98.5473 117.607 96.5961 119.431 94.3087 119.934C92.7159 120.283 90.3177 120.149 87.9385 117.52C83.9718 113.137 86.6767 108.22 88.6522 104.63C90.9818 100.396 90.9154 99.726 89.6568 98.9006C88.6891 98.2649 87.033 98.6666 85.8145 99.1146C78.1425 101.943 67.6686 113.566 66.7895 116.581C66.4174 117.855 65.0818 118.587 63.8084 118.214C62.5339 117.843 61.8024 116.508 62.1734 115.234C63.606 110.324 75.4618 97.8074 84.1532 94.6039C87.4336 93.3948 90.1733 93.4887 92.2953 94.8812C94.6523 96.4276 95.6696 98.6434 95.2363 101.288C94.9211 103.21 93.8754 105.11 92.8645 106.948C90.1354 111.909 90.3694 113.042 91.5026 114.293C92.5093 115.406 93.088 115.279 93.2777 115.238C94.7219 114.92 97.0336 111.978 98.404 107.604C98.6865 106.7 99.4729 106.047 100.414 105.935C101.355 105.822 102.272 106.273 102.76 107.085C102.952 107.405 103.946 109.134 104.512 111.533C105.22 110.177 105.828 108.643 106.372 107.151C106.633 106.437 107.217 105.887 107.946 105.67C108.674 105.454 109.464 105.595 110.072 106.052C111.171 106.875 114.776 109.869 115.055 113.809C115.156 115.229 114.848 117.349 112.814 119.385C111.875 120.323 110.353 120.323 109.414 119.385C108.475 118.445 108.475 116.923 109.414 115.985C110.23 115.168 110.287 114.547 110.26 114.15C110.216 113.534 109.911 112.885 109.493 112.273C108 115.577 106.063 118.465 103.078 119.861C102.753 120.014 102.405 120.088 102.061 120.088Z" fill="#F25757"/>
<path d="M70.5724 123.973C70.5334 123.973 70.4954 123.972 70.4564 123.971C69.1303 123.906 68.1068 122.78 68.17 121.454C68.2976 118.763 72.2421 113.78 73.0317 112.809C75.3824 109.917 78.8663 106.376 82.1078 105.94C83.4244 105.761 84.6335 106.685 84.8106 108C84.9887 109.316 84.0664 110.526 82.7508 110.703C81.8147 110.83 79.6179 112.399 77.0058 115.546C74.6192 118.421 73.1487 121.057 72.9653 121.78C72.8567 123.021 71.8152 123.973 70.5724 123.973Z" fill="#F25757"/>
<path d="M107.038 22.9697H30.3708C29.0426 22.9697 27.9663 21.8935 27.9663 20.5663C27.9663 19.2381 29.0426 18.1618 30.3708 18.1618H107.038C108.365 18.1618 109.441 19.2381 109.441 20.5663C109.441 21.8935 108.365 22.9697 107.038 22.9697Z" fill="#283044"/>
<path d="M107.038 34.2107H78.319C76.9918 34.2107 75.9155 33.1344 75.9155 31.8062C75.9155 30.4791 76.9918 29.4028 78.319 29.4028H107.038C108.365 29.4028 109.441 30.4791 109.441 31.8062C109.441 33.1344 108.365 34.2107 107.038 34.2107Z" fill="#283044"/>
<path d="M70.947 34.2107H30.3702C29.0431 34.2107 27.9668 33.1344 27.9668 31.8062C27.9668 30.4791 29.0431 29.4028 30.3702 29.4028H70.947C72.2741 29.4028 73.3504 30.4791 73.3504 31.8062C73.3504 33.1344 72.2741 34.2107 70.947 34.2107Z" fill="#283044"/>
<path d="M107.038 45.4519H30.3708C29.0426 45.4519 27.9663 44.3756 27.9663 43.0485C27.9663 41.7203 29.0426 40.644 30.3708 40.644H107.038C108.365 40.644 109.441 41.7203 109.441 43.0485C109.441 44.3756 108.365 45.4519 107.038 45.4519Z" fill="#283044"/>
<path d="M107.038 56.6929H89.536C88.2088 56.6929 87.1326 55.6166 87.1326 54.2894C87.1326 52.9612 88.2088 51.885 89.536 51.885H107.038C108.365 51.885 109.441 52.9612 109.441 54.2894C109.441 55.6166 108.365 56.6929 107.038 56.6929Z" fill="#283044"/>
<path d="M82.1648 56.6929H30.37C29.0428 56.6929 27.9666 55.6166 27.9666 54.2894C27.9666 52.9612 29.0428 51.885 30.37 51.885H82.1648C83.492 51.885 84.5683 52.9612 84.5683 54.2894C84.5683 55.6166 83.492 56.6929 82.1648 56.6929Z" fill="#283044"/>
<path d="M107.038 67.9338H64.2169C62.8897 67.9338 61.8135 66.8576 61.8135 65.5304C61.8135 64.2022 62.8897 63.1259 64.2169 63.1259H107.038C108.365 63.1259 109.441 64.2022 109.441 65.5304C109.441 66.8576 108.365 67.9338 107.038 67.9338Z" fill="#283044"/>
<path d="M57.1657 67.9338H30.3707C29.0436 67.9338 27.9673 66.8576 27.9673 65.5304C27.9673 64.2022 29.0436 63.1259 30.3707 63.1259H57.1657C58.4929 63.1259 59.5692 64.2022 59.5692 65.5304C59.5692 66.8576 58.4929 67.9338 57.1657 67.9338Z" fill="#283044"/>
<path d="M87.6137 79.1746H30.37C29.0428 79.1746 27.9666 78.0983 27.9666 76.7711C27.9666 75.4429 29.0428 74.3667 30.37 74.3667H87.6137C88.9408 74.3667 90.0171 75.4429 90.0171 76.7711C90.0171 78.0983 88.9408 79.1746 87.6137 79.1746Z" fill="#283044"/>
<path d="M48.1431 125.547C47.5286 125.547 46.913 125.313 46.4439 124.843L41.5569 119.956C40.6187 119.018 40.6187 117.495 41.5569 116.557C42.4961 115.618 44.0183 115.618 44.9565 116.557L49.8424 121.443C50.7816 122.382 50.7816 123.905 49.8424 124.843C49.3733 125.312 48.7577 125.547 48.1431 125.547Z" fill="#F25757"/>
<path d="M44.9565 116.557C44.0183 115.617 42.4961 115.617 41.5569 116.557C40.6187 117.496 40.6187 119.017 41.5569 119.956L43.175 121.573L46.5735 118.174L44.9565 116.557Z" fill="#C13434"/>
<path d="M11.7289 106.964L1.59865 96.8339C0.660475 95.8957 0.660475 94.3735 1.59865 93.4354L5.9459 89.0881L9.34548 92.4877L6.69855 95.1346L15.1285 103.565L11.7289 106.964Z" fill="#587291"/>
<path d="M9.34276 92.4868L7.26506 94.5645L3.86548 91.1649L5.94318 89.0872L9.34276 92.4868Z" fill="#283044"/>
<path d="M47.5891 113.925L38.9252 122.589L7.3855 91.0497L16.0505 82.3857L47.5891 113.925Z" fill="#48C2D3"/>
<path d="M16.0501 82.3856L7.38613 91.0496L1.77393 85.4363L10.4379 76.7724L16.0501 82.3856Z" fill="#283044"/>
<path d="M29.7455 113.409L26.3459 110.01L35.0099 101.346L38.4095 104.745L29.7455 113.409Z" fill="#587291"/>
<path d="M23.6078 107.271L20.2083 103.871L28.8722 95.207L32.2718 98.6066L23.6078 107.271Z" fill="#587291"/>
</svg>
