<svg width="136" height="137" viewBox="0 0 136 137" fill="none" xmlns="http://www.w3.org/2000/svg">
<path d="M33.1372 0.681235H103.179V136.095H33.1372V0.681235Z" fill="#48C2D3"/>
<path d="M33.1373 136.095H0.450684V38.0366H33.1373V136.095Z" fill="#BFF7E9"/>
<path d="M135.865 136.095H103.178V38.0366H135.865V136.095Z" fill="#BFF7E9"/>
<path d="M44.8108 117.418H91.5047V136.096H44.8108V117.418Z" fill="#BFF7E9"/>
<path d="M65.8228 117.418H70.4926V136.096H65.8228V117.418Z" fill="#283044"/>
<path d="M44.8108 98.7397H54.1494V108.078H44.8108V98.7397Z" fill="#283044"/>
<path d="M63.489 98.7397H72.8276V108.078H63.489V98.7397Z" fill="#283044"/>
<path d="M82.166 98.7397H91.5046V108.078H82.166V98.7397Z" fill="#283044"/>
<path d="M44.8108 80.0617H54.1494V89.4004H44.8108V80.0617Z" fill="#283044"/>
<path d="M63.489 80.0617H72.8276V89.4004H63.489V80.0617Z" fill="#283044"/>
<path d="M82.166 80.0617H91.5046V89.4004H82.166V80.0617Z" fill="#283044"/>
<path d="M44.8108 61.3844H54.1494V70.7231H44.8108V61.3844Z" fill="#283044"/>
<path d="M63.489 61.3844H72.8276V70.7231H63.489V61.3844Z" fill="#283044"/>
<path d="M82.166 61.3844H91.5046V70.7231H82.166V61.3844Z" fill="#283044"/>
<path d="M12.1243 98.7397H21.4628V108.078H12.1243V98.7397Z" fill="#F25757"/>
<path d="M12.1243 80.0617H21.4628V89.4004H12.1243V80.0617Z" fill="#F25757"/>
<path d="M12.1243 61.3844H21.4628V70.7231H12.1243V61.3844Z" fill="#F25757"/>
<path d="M114.853 98.7397H124.191V108.078H114.853V98.7397Z" fill="#F25757"/>
<path d="M114.853 80.0617H124.191V89.4004H114.853V80.0617Z" fill="#F25757"/>
<path d="M114.853 61.3844H124.191V70.7231H114.853V61.3844Z" fill="#F25757"/>
<path d="M5.12061 28.6979H33.1374V38.0366H5.12061V28.6979Z" fill="#587291"/>
<path d="M103.178 28.6979H131.195V38.0366H103.178V28.6979Z" fill="#587291"/>
<path d="M72.9074 34.8674H81.2002C81.8907 34.8674 82.4325 34.3361 82.4325 33.6573C82.4325 32.9784 81.8791 32.425 81.2002 32.425H75.8748H75.2001L75.7346 32.0128L78.2223 30.0922C80.9515 27.9797 82.1479 26.798 82.1479 24.3609V24.3177C82.1479 21.5938 80.1746 19.8344 77.1197 19.8344C75.0631 19.8344 73.6273 20.4827 72.3181 22.0017C72.1104 22.2463 71.9808 22.591 71.9808 22.8988C71.9808 23.6261 72.5511 24.1964 73.2784 24.1964C73.8308 24.1964 74.1565 23.8865 74.243 23.7916C75.0272 22.9462 75.7788 22.3854 76.9004 22.3854C78.2866 22.3854 79.1826 23.2551 79.1826 24.6012C79.1826 25.9874 78.4943 26.8613 76.4134 28.5605L72.1147 32.0023C71.5908 32.425 71.3262 32.9299 71.3262 33.5044C71.3262 34.3319 71.9471 34.8674 72.9074 34.8674Z" fill="#BFF7E9"/>
<path d="M60.5867 24.3809C61.256 24.3809 61.8 23.8454 61.8 23.1887C61.8 22.5193 61.256 21.9744 60.5867 21.9744H52.5299C51.7573 21.9744 51.1511 22.5805 51.1511 23.3542V34.6914C51.1511 35.4652 51.7573 36.0713 52.5299 36.0713H61.0178C61.6872 36.0713 62.2322 35.5358 62.2322 34.878C62.2322 34.2086 61.6872 33.6647 61.0178 33.6647H53.8898V30.1734H58.8336C59.503 30.1734 60.047 29.639 60.047 28.9812C60.047 28.3118 59.503 27.7679 58.8336 27.7679H53.8898V24.3809H60.5867Z" fill="#BFF7E9"/>
<path d="M66.4236 38.2683H61.5187L59.1501 41.1345L56.7804 38.2683H50.8435C49.762 38.2683 48.6193 37.1404 48.6193 36.0736V21.9703C48.6193 20.8793 49.762 19.7261 50.8435 19.7261H64.6548C65.2114 18.8891 65.8502 18.1112 66.5607 17.4049H50.8045C48.2725 17.4049 46.2981 19.2813 46.2981 21.8892V36.0641C46.2981 38.632 48.2683 40.5895 50.8551 40.5895H55.2677L58.9983 44.8672L62.7289 40.5895H69.3741C68.2852 39.9391 67.2964 39.1569 66.4236 38.2683Z" fill="#BFF7E9"/>
<path d="M79.3088 38.3269L76.9886 41.134L74.6685 38.3269C69.8869 37.2643 66.2987 32.9908 66.2987 27.8941C66.2987 21.9994 71.095 17.2041 76.9886 17.2041C82.8834 17.2041 87.6776 21.9994 87.6776 27.8941C87.6776 32.9908 84.0914 37.2643 79.3088 38.3269ZM76.9886 14.8639C69.7921 14.8639 63.9585 20.6975 63.9585 27.8941C63.9585 33.6992 67.7565 38.6146 73.0019 40.3002L76.9886 44.8667L80.9828 40.297C86.2239 38.6104 90.0177 33.696 90.0177 27.8941C90.0177 20.6975 84.1842 14.8639 76.9886 14.8639" fill="#BFF7E9"/>
</svg>
