<svg width="140" height="139" viewBox="0 0 140 139" fill="none" xmlns="http://www.w3.org/2000/svg">
<path d="M69.8401 22.6751C41.6284 22.6751 18.6767 45.6268 18.6767 73.8386C18.6767 102.05 41.6284 125.002 69.8401 125.002C98.0519 125.002 121.004 102.05 121.004 73.8386C121.004 45.6268 98.0519 22.6751 69.8401 22.6751ZM69.8401 129.205C39.3103 129.205 14.4739 104.367 14.4739 73.8386C14.4739 43.3087 39.3103 18.4712 69.8401 18.4712C100.369 18.4712 125.206 43.3087 125.206 73.8386C125.206 104.367 100.369 129.205 69.8401 129.205Z" fill="#F25757"/>
<path d="M74.0625 90.0068H65.8529C57.0519 90.0068 49.9165 97.1422 49.9165 105.943V134.754C49.9165 135.499 50.5205 136.103 51.2668 136.103H88.6485C89.3949 136.103 89.9989 135.499 89.9989 134.754V105.943C89.9989 97.1422 82.8645 90.0068 74.0625 90.0068Z" fill="#48C2D3"/>
<path d="M74.0623 90.0068H66.8762C75.6782 90.0068 82.8126 97.1422 82.8126 105.943V134.754C82.8126 135.499 82.2086 136.103 81.4633 136.103H88.6483C89.3946 136.103 89.9986 135.499 89.9986 134.754V105.943C89.9986 97.1422 82.8643 90.0068 74.0623 90.0068Z" fill="#BFF7E9"/>
<path d="M6.16333 58.2847V64.8994H40.0284V58.2847C40.0284 50.4694 33.6941 44.1351 25.8788 44.1351H20.313C12.4987 44.1351 6.16333 50.4704 6.16333 58.2847Z" fill="#587291"/>
<path d="M25.879 44.135H20.3132C20.0318 44.135 19.7524 44.1456 19.4741 44.1624C26.8973 44.5967 32.7847 50.7518 32.7847 58.2857V64.9004H40.0287V58.2846C40.0287 50.4704 33.6944 44.135 25.879 44.135Z" fill="#283044"/>
<path d="M120.711 41.6847L104.668 47.7924C102.544 48.6009 101.141 50.6375 101.141 52.9102V64.8999H135.006V51.5377C135.006 44.1545 127.611 39.0568 120.711 41.6847Z" fill="#283044"/>
<path d="M120.711 41.6845L120.253 41.8584C123.915 43.4491 126.619 47.0743 126.619 51.5375V64.8997H135.006V51.5375C135.006 44.1543 127.611 39.0576 120.711 41.6845Z" fill="#587291"/>
<path d="M135.326 67.0797C135.217 67.0713 135.11 67.0692 135.006 67.0702V62.4732C135.006 58.2261 131.564 54.7833 127.317 54.7833H108.83C104.582 54.7833 101.141 58.2261 101.141 62.4732V67.0787C100.963 67.0671 100.778 67.066 100.585 67.0797C97.8243 67.2832 95.6876 68.8465 95.929 72.1227C96.1704 75.3937 98.6898 79.1348 101.445 78.944C102.941 86.7678 109.814 92.6804 118.073 92.6804C126.329 92.6804 133.202 86.7709 134.699 78.9514C137.363 78.9229 139.747 75.3009 139.981 72.1227C140.224 68.8465 138.087 67.2832 135.326 67.0797Z" fill="#AD8C8C"/>
<path d="M110.888 67.6602C112.143 67.6602 113.161 68.6785 113.161 69.934C113.161 71.1895 112.143 72.2078 110.888 72.2078C109.632 72.2078 108.614 71.1895 108.614 69.934C108.614 68.6785 109.632 67.6602 110.888 67.6602Z" fill="#BFF7E9"/>
<path d="M125.256 67.6602C126.512 67.6602 127.53 68.6785 127.53 69.934C127.53 71.1895 126.512 72.2078 125.256 72.2078C124.001 72.2078 122.982 71.1895 122.982 69.934C122.982 68.6785 124.001 67.6602 125.256 67.6602Z" fill="#BFF7E9"/>
<path d="M135.326 67.0797C135.216 67.0713 135.11 67.0692 135.006 67.0702V62.4732C135.006 58.2261 131.564 54.7833 127.317 54.7833H127.22C128.084 56.0271 128.592 57.5377 128.592 59.1685V72.4432C128.592 81.7944 121.012 89.3757 111.66 89.3757C110.148 89.3757 108.685 89.1744 107.289 88.8033C110.219 91.2257 113.976 92.6804 118.073 92.6804C126.329 92.6804 133.201 86.7709 134.699 78.9514C137.363 78.9229 139.747 75.3009 139.981 72.1227C140.224 68.8465 138.087 67.2832 135.326 67.0797Z" fill="#937979"/>
<path d="M40.3492 67.0797C40.2395 67.0713 40.1331 67.0692 40.0287 67.0702V62.4732C40.0287 58.2261 36.587 54.7833 32.3398 54.7833H13.8525C9.60535 54.7833 6.1636 58.2261 6.1636 62.4732V67.0787C5.98545 67.0671 5.80098 67.066 5.60807 67.0797C2.8473 67.2832 0.710567 68.8465 0.951963 72.1227C1.19336 75.3937 3.71274 79.1348 6.46825 78.944C7.96406 86.7678 14.837 92.6804 23.0962 92.6804C31.3521 92.6804 38.224 86.7709 39.7219 78.9514C42.3857 78.9229 44.7702 75.3009 45.0042 72.1227C45.2467 68.8465 43.1099 67.2832 40.3492 67.0797Z" fill="#E8B6B5"/>
<path d="M15.9105 67.6602C17.166 67.6602 18.1843 68.6785 18.1843 69.934C18.1843 71.1895 17.166 72.2078 15.9105 72.2078C14.655 72.2078 13.6367 71.1895 13.6367 69.934C13.6367 68.6785 14.655 67.6602 15.9105 67.6602Z" fill="#283044"/>
<path d="M30.2791 67.6602C31.5346 67.6602 32.5529 68.6785 32.5529 69.934C32.5529 71.1895 31.5346 72.2078 30.2791 72.2078C29.0237 72.2078 28.0054 71.1895 28.0054 69.934C28.0054 68.6785 29.0237 67.6602 30.2791 67.6602Z" fill="#283044"/>
<path d="M16.6254 77.421C15.9444 77.421 15.4753 78.1052 15.7209 78.7387C16.8678 81.6924 19.7372 83.7859 23.0956 83.7859C26.4541 83.7859 29.3234 81.6924 30.4703 78.7387C30.717 78.1052 30.2469 77.421 29.5659 77.421H16.6254Z" fill="#283044"/>
<path d="M111.485 77.421C110.805 77.421 110.334 78.1052 110.581 78.7387C111.728 81.6924 114.596 83.7859 117.956 83.7859C121.314 83.7859 124.183 81.6924 125.331 78.7387C125.576 78.1052 125.106 77.421 124.426 77.421H111.485Z" fill="#283044"/>
<path d="M40.3491 67.0797C40.2394 67.0713 40.133 67.0692 40.0286 67.0702V62.4732C40.0286 58.2261 36.5868 54.7833 32.3397 54.7833H32.2428C33.1072 56.0271 33.6152 57.5377 33.6152 59.1685V72.4432C33.6152 81.7944 26.035 89.3757 16.6827 89.3757C15.1711 89.3757 13.7079 89.1744 12.3123 88.8033C15.2417 91.2257 18.9986 92.6804 23.096 92.6804C31.352 92.6804 38.2239 86.7709 39.7218 78.9514C42.3856 78.9229 44.7701 75.3009 45.0041 72.1227C45.2466 68.8465 43.1098 67.2832 40.3491 67.0797Z" fill="#C49292"/>
<path d="M87.2105 113.175C87.1009 113.167 86.9944 113.165 86.89 113.166V108.569C86.89 104.322 83.4483 100.879 79.2012 100.879H60.7138C56.4667 100.879 53.0249 104.322 53.0249 108.569V113.174C52.8468 113.163 52.6623 113.162 52.4694 113.175C49.7086 113.379 47.5719 114.942 47.8133 118.218C48.0547 121.489 50.5741 125.231 53.3296 125.04C54.8254 132.863 61.6983 138.776 69.9575 138.776C78.2135 138.776 85.0864 132.867 86.5833 125.047C89.2471 125.019 91.6315 121.397 91.8655 118.218C92.108 114.942 89.9713 113.379 87.2105 113.175Z" fill="#F4CECE"/>
<path d="M62.7721 113.756C64.0275 113.756 65.0458 114.774 65.0458 116.03C65.0458 117.285 64.0275 118.303 62.7721 118.303C61.5166 118.303 60.4983 117.285 60.4983 116.03C60.4983 114.774 61.5166 113.756 62.7721 113.756Z" fill="#587291"/>
<path d="M77.1407 113.756C78.3962 113.756 79.4145 114.774 79.4145 116.03C79.4145 117.285 78.3962 118.303 77.1407 118.303C75.8852 118.303 74.8669 117.285 74.8669 116.03C74.8669 114.774 75.8852 113.756 77.1407 113.756Z" fill="#587291"/>
<path d="M87.2106 113.175C87.101 113.167 86.9945 113.165 86.8902 113.166V108.569C86.8902 104.322 83.4484 100.879 79.2013 100.879H79.1043C79.9687 102.123 80.4779 103.633 80.4779 105.264V118.539C80.4779 127.89 72.8965 135.471 63.5443 135.471C62.0326 135.471 60.5695 135.27 59.1738 134.899C62.1033 137.321 65.8602 138.776 69.9576 138.776C78.2136 138.776 85.0855 132.867 86.5834 125.047C89.2472 125.019 91.6317 121.397 91.8657 118.218C92.1081 114.942 89.9714 113.379 87.2106 113.175Z" fill="#E8C4C4"/>
<path d="M69.9578 129.556C68.1194 129.556 66.3864 128.745 65.2026 127.332C64.4584 126.442 64.5754 125.117 65.4651 124.371C66.3548 123.626 67.6798 123.743 68.4251 124.633C68.8077 125.09 69.3664 125.353 69.9578 125.353C70.5492 125.353 71.1068 125.09 71.4895 124.633C72.2347 123.743 73.5598 123.626 74.4505 124.371C75.3402 125.117 75.4572 126.442 74.712 127.332C73.5292 128.745 71.7962 129.556 69.9578 129.556Z" fill="#F25757"/>
<path d="M87.2105 20.1915C87.1009 20.1831 86.9944 20.181 86.89 20.1821V14.7174C86.89 11.1513 83.9996 8.2598 80.4335 8.2598H59.4815C55.9164 8.2598 53.0249 11.1513 53.0249 14.7174V20.1905C52.8468 20.1789 52.6623 20.1778 52.4694 20.1915C49.7076 20.395 47.5719 21.9583 47.8133 25.2345C48.0536 28.5055 50.5741 32.2466 53.3296 32.0558C54.8243 39.8796 61.6983 45.7922 69.9575 45.7922C78.2135 45.7922 85.0854 39.8828 86.5833 32.0632C89.2471 32.0347 91.6315 28.4127 91.8655 25.2345C92.108 21.9583 89.9713 20.395 87.2105 20.1915Z" fill="#EFB1B1"/>
<path d="M87.2107 20.1917C87.101 20.1833 86.9946 20.1812 86.8902 20.1822V14.7176C86.8902 11.1515 83.9998 8.25997 80.4336 8.25997H75.6394C79.2056 8.25997 82.096 11.1515 82.096 14.7176C82.096 14.7176 82.3374 28.279 81.7892 32.0634C80.44 39.1113 74.7223 44.6065 67.5605 45.6227C68.3438 45.7334 69.1439 45.7935 69.9576 45.7935C78.2136 45.7935 85.0855 39.8829 86.5834 32.0634C89.2472 32.0349 91.6317 28.4129 91.8657 25.2347C92.1082 21.9584 89.9714 20.3952 87.2107 20.1917Z" fill="#DB9A9A"/>
<path d="M62.7721 20.7716C64.0275 20.7716 65.0458 21.7899 65.0458 23.0453C65.0458 24.3019 64.0275 25.3191 62.7721 25.3191C61.5166 25.3191 60.4983 24.3019 60.4983 23.0453C60.4983 21.7899 61.5166 20.7716 62.7721 20.7716Z" fill="#283044"/>
<path d="M77.1407 20.7716C78.3962 20.7716 79.4145 21.7899 79.4145 23.0453C79.4145 24.3019 78.3962 25.3191 77.1407 25.3191C75.8852 25.3191 74.8669 24.3019 74.8669 23.0453C74.8669 21.7899 75.8852 20.7716 77.1407 20.7716Z" fill="#283044"/>
<path d="M69.9579 36.5715C68.1195 36.5715 66.3865 35.7609 65.2037 34.3484C64.4585 33.4587 64.5755 32.1326 65.4652 31.3873C66.3548 30.642 67.6799 30.759 68.4252 31.6498C68.8078 32.1062 69.3665 32.3676 69.9579 32.3676C70.5492 32.3676 71.1069 32.1062 71.4895 31.6498C72.2359 30.759 73.5609 30.642 74.4506 31.3873C75.3403 32.1326 75.4573 33.4587 74.712 34.3484C73.5282 35.7609 71.7963 36.5715 69.9579 36.5715Z" fill="#283044"/>
<path d="M73.4828 0.000395221H66.477C59.0486 0.000395221 53.0273 6.02266 53.0273 13.4511V18.9158L53.0432 18.5626C53.0432 13.7653 56.9319 9.87552 61.7303 9.87552H78.2464C83.0438 9.87552 86.9336 13.7653 86.9336 18.5626V13.4511C86.9336 6.02266 80.9113 0.000395221 73.4828 0.000395221Z" fill="#BFF7E9"/>
<path d="M73.4826 1.54481e-05H66.4769C66.3103 1.54481e-05 66.1438 0.00633933 65.9783 0.0126641C71.9489 0.23087 76.9244 4.33883 78.4466 9.88041C83.1512 9.98688 86.9334 13.8313 86.9334 18.5623V13.4508C86.9334 6.02228 80.9111 1.54481e-05 73.4826 1.54481e-05Z" fill="#48C2D3"/>
</svg>
