<svg width="71" height="49" viewBox="0 0 71 49" fill="none" xmlns="http://www.w3.org/2000/svg">
<path d="M42.7191 32.0921H56.0204C56.2811 32.0989 56.5403 32.0526 56.7825 31.9559C57.0246 31.8593 57.2446 31.7144 57.4289 31.53C57.6133 31.3457 57.7582 31.1258 57.8548 30.8836C57.9514 30.6415 57.9978 30.3822 57.991 30.1216C57.991 29.0659 57.0761 28.151 56.0204 28.151H46.3787L47.2233 27.5176L51.2348 24.421C55.5982 21.0429 57.4984 19.1427 57.4984 15.2015V15.1312C57.4984 10.7678 54.3314 7.95266 49.405 7.95266C46.0972 7.95266 43.7748 9.00833 41.7338 11.4012C41.3819 11.8234 41.1708 12.3161 41.1708 12.8087C41.1708 14.0051 42.0857 14.92 43.2821 14.92C44.197 14.92 44.6897 14.4274 44.8304 14.2866C46.0972 12.9495 47.2936 12.0346 49.1234 12.0346C51.3755 12.0346 52.7831 13.4421 52.7831 15.6238C52.7831 17.8759 51.657 19.2834 48.3493 21.9578L41.4523 27.5176C40.6078 28.2214 40.1855 28.9955 40.1855 29.9104C40.1855 31.2476 41.1708 32.0921 42.7191 32.0921ZM22.943 15.2719C23.9987 15.2719 24.9136 14.4274 24.9136 13.3717C24.9136 12.3161 24.0691 11.4012 22.943 11.4012H10.064C9.77614 11.3964 9.4903 11.4496 9.22345 11.5575C8.95661 11.6655 8.7142 11.826 8.51066 12.0296C8.30711 12.2331 8.14659 12.4755 8.03863 12.7424C7.93067 13.0092 7.87749 13.295 7.88225 13.5829V31.8106C7.87749 32.0984 7.93067 32.3843 8.03863 32.6511C8.14659 32.918 8.30711 33.1604 8.51066 33.3639C8.7142 33.5675 8.95661 33.728 9.22345 33.8359C9.4903 33.9439 9.77614 33.9971 10.064 33.9923H23.6468C24.7025 33.9923 25.6174 33.1478 25.6174 32.0921C25.6174 31.0365 24.7728 30.1216 23.6468 30.1216H12.2457V24.4914H20.1983C21.254 24.4914 22.1689 23.6468 22.1689 22.5912C22.1689 21.5355 21.3243 20.6206 20.1983 20.6206H12.2457V15.2015H22.943V15.2719Z" fill="#3FBACE"/>
<path d="M32.3033 37.5112H24.4914L20.691 42.0857L16.8906 37.5112H7.31926C5.55982 37.5112 3.73001 35.6814 3.73001 33.9923V11.4011C3.73001 9.64171 5.55982 7.8119 7.31926 7.8119H29.4882C30.4031 6.47473 31.3883 5.20793 32.5144 4.08189H7.24888C3.16699 4.08189 0 7.10812 0 11.2604V33.9923C0 38.1446 3.16699 41.2412 7.31926 41.2412H14.4274L20.4095 48.0678L26.3915 41.2412H37.0185C35.3295 40.2559 33.7108 38.9891 32.3033 37.5112ZM49.2642 0C37.7223 0 28.3621 9.3602 28.3621 20.9021C28.3621 30.1919 34.485 38.0742 42.8599 40.8189L49.2642 48.1382L55.6686 40.8189C59.883 39.4624 63.5578 36.8027 66.1634 33.2233C68.7689 29.6438 70.1706 25.3295 70.1663 20.9021C70.1663 9.3602 60.8061 0 49.2642 0ZM52.9942 37.6519L49.2642 42.1561L45.5342 37.6519C37.8631 35.9629 32.0921 29.0659 32.0921 20.9021C32.0921 11.4715 39.7633 3.73001 49.2642 3.73001C58.6948 3.73001 66.4363 11.4011 66.4363 20.9021C66.4363 29.0659 60.6654 35.9629 52.9942 37.6519Z" fill="#3FBACE"/>
</svg>
