<svg width="71" height="67" viewBox="0 0 71 67" fill="none" xmlns="http://www.w3.org/2000/svg">
<path d="M42.7075 32.1047H56.0164C57.1255 32.1047 57.9945 31.2529 57.9945 30.1633C57.9945 29.0704 57.107 28.1856 56.0164 28.1856H47.4709H46.3876L47.2447 27.5252L51.2375 24.4414C55.6183 21.0505 57.5389 19.1553 57.5389 15.2418V15.1721C57.5389 10.801 54.3702 7.97634 49.4675 7.97634C46.1667 7.97634 43.8625 9.01671 41.7619 11.4554C41.4287 11.8483 41.2201 12.4016 41.2201 12.8953C41.2201 14.0631 42.1353 14.9773 43.3028 14.9773C44.1906 14.9773 44.712 14.4804 44.8507 14.3279C46.1099 12.9719 47.3154 12.0705 49.1165 12.0705C51.3412 12.0705 52.7788 13.4671 52.7788 15.6274C52.7788 17.8511 51.6747 19.2544 48.334 21.9816L41.4357 27.5054C40.5951 28.1856 40.1698 28.9945 40.1698 29.919C40.1698 31.2463 41.1659 32.1047 42.7075 32.1047" fill="#007DC5"/>
<path d="M22.9338 15.2738C24.0078 15.2738 24.8815 14.4154 24.8815 13.3598C24.8815 12.2854 24.0078 11.4114 22.9338 11.4114H10.0033C8.76178 11.4114 7.78906 12.3841 7.78906 13.6262V31.8207C7.78906 33.0622 8.76178 34.0362 10.0033 34.0362H23.6258C24.7002 34.0362 25.5738 33.1778 25.5738 32.1212C25.5738 31.0481 24.7002 30.1732 23.6258 30.1732H12.1848V24.5701H20.1197C21.1941 24.5701 22.0674 23.7117 22.0674 22.6584C22.0674 21.5821 21.1941 20.7104 20.1197 20.7104H12.1848V15.2738H22.9338" fill="#007DC5"/>
<path d="M32.3008 37.5625H24.4288L20.6266 42.1618L16.8243 37.5625H7.29514C5.56044 37.5625 3.7262 35.7531 3.7262 34.0395V11.4052C3.7262 9.65459 5.56044 7.80298 7.29514 7.80298H29.4626C30.3558 6.45918 31.381 5.2108 32.521 4.07698H7.23221C3.16953 4.07698 0 7.08783 0 11.2741V34.0263C0 38.1469 3.16283 41.2868 7.31475 41.2868H14.3975L20.3842 48.1511L26.3706 41.2868H37.0362C35.2885 40.2435 33.7024 38.9888 32.3008 37.5625" fill="#007DC5"/>
<path d="M52.9822 37.6582L49.2579 42.1618L45.5339 37.6582C37.859 35.9512 32.1015 29.0935 32.1015 20.9118C32.1015 11.4517 39.7978 3.75572 49.2582 3.75572C58.718 3.75572 66.4147 11.4517 66.4147 20.9118C66.4147 29.0935 60.6571 35.9512 52.9822 37.6582ZM49.2582 1.15001e-06C37.7085 1.15001e-06 28.3461 9.36272 28.3461 20.9118C28.3461 30.2293 34.4404 38.1204 42.8588 40.8246L49.2582 48.1511L55.6682 40.818C64.0807 38.1105 70.1701 30.226 70.1701 20.9118C70.1701 9.36272 60.8073 1.15001e-06 49.2582 1.15001e-06" fill="#007DC5"/>
<path d="M10.3828 66.3648C12.0968 66.3648 13.468 65.7737 14.4474 65.117C14.9208 64.8215 15.1493 64.4111 15.1493 63.8365V60.7664C15.1493 60.1918 14.7086 59.7485 14.1373 59.7485H10.9541C10.4644 59.7485 10.0563 60.1425 10.0563 60.6351C10.0563 61.1276 10.4644 61.5052 10.9541 61.5052H13.2068V63.6559C12.5049 64.1812 11.5255 64.526 10.4481 64.526C8.1138 64.526 6.56304 62.7858 6.56304 60.4216V60.3888C6.56304 58.1889 8.16277 56.3337 10.2685 56.3337C11.5091 56.3337 12.309 56.6949 13.0436 57.2367C13.2068 57.3516 13.4027 57.4665 13.6639 57.4665C14.2189 57.4665 14.6596 57.0068 14.6596 56.465C14.6596 56.071 14.4474 55.7919 14.2515 55.6442C13.2068 54.889 12.0642 54.4785 10.3502 54.4785C6.90584 54.4785 4.45728 57.2038 4.45728 60.4216V60.4545C4.45728 63.8036 6.8079 66.3648 10.3828 66.3648Z" fill="#007DC5"/>
<path d="M17.7641 65.2484C17.7641 65.8066 18.2048 66.2498 18.7762 66.2498C19.3312 66.2498 19.7719 65.8066 19.7719 65.2484V62.1619H22.3021L25.0771 65.7245C25.3057 66.0364 25.5995 66.2498 26.0566 66.2498C26.5463 66.2498 27.0197 65.8722 27.0197 65.314C27.0197 65.0021 26.8891 64.7887 26.6932 64.5424L24.5058 61.7679C26.0402 61.2918 27.1013 60.1754 27.1013 58.3366V58.3038C27.1013 57.3023 26.7585 56.4486 26.1545 55.8248C25.4199 55.1024 24.2936 54.6755 22.8571 54.6755H18.7762C18.2048 54.6755 17.7641 55.1188 17.7641 55.6934V65.2484ZM19.7719 60.3724V56.5143H22.6939C24.1793 56.5143 25.0608 57.1874 25.0608 58.4187V58.4516C25.0608 59.6172 24.1467 60.3724 22.7102 60.3724H19.7719Z" fill="#007DC5"/>
<path d="M35.0127 66.3648C38.5223 66.3648 41.0035 63.6559 41.0035 60.4216V60.3888C41.0035 57.1546 38.555 54.4785 35.0453 54.4785C31.5357 54.4785 29.0545 57.1874 29.0545 60.4216V60.4545C29.0545 63.6887 31.5031 66.3648 35.0127 66.3648ZM35.0453 64.4932C32.7763 64.4932 31.1603 62.6544 31.1603 60.4216V60.3888C31.1603 58.156 32.7437 56.3337 35.0127 56.3337C37.2817 56.3337 38.8978 58.1889 38.8978 60.4216V60.4545C38.8978 62.6873 37.3143 64.4932 35.0453 64.4932Z" fill="#007DC5"/>
<path d="M48.1143 66.3483C51.1016 66.3483 53.0278 64.6245 53.0278 61.1933V55.5949C53.0278 55.0367 52.587 54.5935 52.032 54.5935C51.4607 54.5935 51.0199 55.0367 51.0199 55.5949V61.2918C51.0199 63.4096 49.9262 64.4768 48.147 64.4768C46.3513 64.4768 45.2576 63.3439 45.2576 61.2097V55.5949C45.2576 55.0367 44.8169 54.5935 44.2619 54.5935C43.6906 54.5935 43.2498 55.0367 43.2498 55.5949V61.2918C43.2498 64.6245 45.1434 66.3483 48.1143 66.3483Z" fill="#007DC5"/>
<path d="M55.7838 65.2484C55.7838 65.8066 56.2245 66.2498 56.7959 66.2498C57.3509 66.2498 57.7916 65.8066 57.7916 65.2484V62.4738H60.0606C62.5745 62.4738 64.6313 61.1276 64.6313 58.5501V58.5172C64.6313 56.2024 62.9663 54.6755 60.2892 54.6755H56.7959C56.2245 54.6755 55.7838 55.1188 55.7838 55.6934V65.2484ZM57.7916 60.6515V56.5143H60.1259C61.6277 56.5143 62.5908 57.2202 62.5908 58.5665V58.5993C62.5908 59.7978 61.644 60.6515 60.1259 60.6515H57.7916Z" fill="#007DC5"/>
</svg>
