<svg width="129" height="138" viewBox="0 0 129 138" fill="none" xmlns="http://www.w3.org/2000/svg">
<path d="M64.6506 8.62126C100.169 8.62126 128.963 37.4149 128.963 72.934C128.963 108.452 100.169 137.246 64.6506 137.246C29.1326 137.246 0.337891 108.452 0.337891 72.934C0.337891 37.4149 29.1326 8.62126 64.6506 8.62126Z" fill="#48C2D3"/>
<path d="M64.6505 8.62126C60.4434 8.62126 56.3323 9.02922 52.3508 9.80084C81.9857 15.5406 104.365 41.622 104.365 72.934C104.365 104.245 81.9857 130.326 52.3508 136.066C56.3323 136.837 60.4434 137.246 64.6505 137.246C100.168 137.246 128.963 108.452 128.963 72.934C128.963 37.4149 100.168 8.62126 64.6505 8.62126Z" fill="#BFF7E9"/>
<path d="M46.6777 58.0463L39.7362 67.8519C36.3914 72.5755 37.5109 79.1153 42.2345 82.4601L43.9991 83.7082C46.8843 85.7521 48.5456 89.1127 48.4159 92.6472L47.3998 120.293C47.3175 122.501 48.3527 124.603 50.1532 125.885C52.4101 127.493 55.4354 127.511 57.7113 125.928L76.7268 112.718C79.4823 110.804 81.8815 108.424 83.8201 105.687L96.0733 88.378C98.7129 84.6495 97.8295 79.4885 94.101 76.8489L63.4806 55.1717C58.0476 51.3262 50.5232 52.6123 46.6777 58.0463Z" fill="#283044"/>
<path d="M60.7223 14.7982C59.2339 13.0905 59.0262 10.6871 60.0498 8.7865C48.9213 9.57393 38.575 13.1907 29.7255 18.9252L20.7137 27.9369C18.3788 30.2718 17.0664 33.4395 17.0664 36.7411V46.7796C17.0664 49.3865 19.9958 50.9181 22.1368 49.4318L29.5421 44.2908C31.9497 42.6189 34.8117 41.7229 37.7432 41.7229H47.2726C50.395 41.7229 53.3897 40.4822 55.5971 38.2748L65.001 28.8709C67.4055 26.4675 67.5362 22.6115 65.3015 20.0489L60.7223 14.7982Z" fill="#283044"/>
<path d="M107.409 24.8993L103.728 37.7134C102.279 42.7532 102.664 48.143 104.812 52.9266L108.833 61.8752C110.655 65.9336 114.69 68.5447 119.139 68.5447C121.385 68.5447 123.58 67.8764 125.444 66.623L128.428 64.6159C126.397 48.8861 118.68 34.9399 107.409 24.8993Z" fill="#283044"/>
<path d="M128.803 33.213C128.394 43.0081 120.929 51.5729 117.247 55.2212C116.129 56.3291 114.33 56.3312 113.21 55.2234C109.425 51.4717 101.635 42.52 101.635 32.3782C101.635 24.8211 107.802 18.7039 115.378 18.7851C123.106 18.8684 129.126 25.4915 128.803 33.213Z" fill="#F25757"/>
<path d="M116.719 18.8681C118.992 21.4708 120.314 24.9347 120.159 28.6579C119.761 38.1967 112.669 46.5676 108.899 50.3688C110.487 52.4054 112.041 54.0625 113.211 55.2231C114.329 56.331 116.129 56.3289 117.247 55.221C120.929 51.5726 128.395 43.0068 128.804 33.2128C129.107 25.9445 123.79 19.6514 116.719 18.8681Z" fill="#C13434"/>
<path d="M115.228 26.2369C118.901 26.2369 121.879 29.2149 121.879 32.8885C121.879 36.5611 118.901 39.5391 115.228 39.5391C111.555 39.5391 108.577 36.5611 108.577 32.8885C108.577 29.2149 111.555 26.2369 115.228 26.2369Z" fill="#BFF7E9"/>
<path d="M116.514 26.3624C117.758 27.5704 118.532 29.2613 118.532 31.1323C118.532 34.8049 115.554 37.7829 111.88 37.7829C111.44 37.7829 111.01 37.7386 110.595 37.6574C111.792 38.8212 113.425 39.5391 115.228 39.5391C118.902 39.5391 121.878 36.5611 121.878 32.8885C121.879 29.6555 119.571 26.9611 116.514 26.3624Z" fill="#48C2D3"/>
<path d="M34.9442 14.5788C34.5363 24.3738 27.0699 32.9376 23.3878 36.587C22.2704 37.6949 20.471 37.697 19.3525 36.5891C15.5671 32.8374 7.7771 23.8857 7.7771 13.7428C7.7771 6.18681 13.9427 0.0696669 21.5188 0.150835C29.2477 0.234112 35.2668 6.85618 34.9442 14.5788Z" fill="#F25757"/>
<path d="M22.8601 0.23387C25.1339 2.83653 26.4557 6.30041 26.3008 10.0236C25.9023 19.5625 18.8112 27.9333 15.0405 31.7345C16.6281 33.7711 18.1829 35.4282 19.353 36.5888C20.4704 37.6967 22.2698 37.6946 23.3882 36.5867C27.0703 32.9373 34.5367 24.3725 34.9447 14.5785C35.2483 7.30922 29.9312 1.01709 22.8601 0.23387Z" fill="#C13434"/>
<path d="M21.3694 7.60267C25.042 7.60267 28.0209 10.5806 28.0209 14.2532C28.0209 17.9269 25.042 20.9048 21.3694 20.9048C17.6968 20.9048 14.7178 17.9269 14.7178 14.2532C14.7178 10.5806 17.6968 7.60267 21.3694 7.60267Z" fill="#BFF7E9"/>
<path d="M22.6548 7.72787C23.8987 8.93591 24.6724 10.6267 24.6724 12.4968C24.6724 16.1704 21.6945 19.1484 18.0208 19.1484C17.5823 19.1484 17.1512 19.1041 16.7358 19.0229C17.9333 20.1867 19.5672 20.9045 21.3688 20.9045C25.0424 20.9045 28.0203 17.9266 28.0203 14.253C28.0203 11.0199 25.7118 8.32662 22.6548 7.72787Z" fill="#48C2D3"/>
</svg>
