<svg xmlns="http://www.w3.org/2000/svg" xmlns:xlink="http://www.w3.org/1999/xlink" width="60" height="60" viewBox="0 0 60 60">
  <defs>
    <clipPath id="clip-path">
      <rect width="60" height="60" fill="none"/>
    </clipPath>
    <linearGradient id="linear-gradient" x1="0.5" x2="0.5" y2="0.98" gradientUnits="objectBoundingBox">
      <stop offset="0" stop-color="#ffcb05"/>
      <stop offset="1" stop-color="#eaab00"/>
    </linearGradient>
    <clipPath id="clip-path-2">
      <path id="Clip_2" data-name="Clip 2" d="M0,0H48V30H0Z" fill="none"/>
    </clipPath>
  </defs>
  <g id="icon_handshake" data-name="icon / handshake" clip-path="url(#clip-path)">
    <g id="Group">
      <g id="Oval" stroke="#fff" stroke-miterlimit="10" stroke-width="2" fill="url(#linear-gradient)">
        <circle cx="30" cy="30" r="30" stroke="none"/>
        <circle cx="30" cy="30" r="31" fill="none"/>
      </g>
    </g>
    <g id="Group_3" data-name="Group 3" transform="translate(6 17)">
      <path id="Clip_2-2" data-name="Clip 2" d="M0,0H48V30H0Z" fill="none"/>
      <g id="Group_3-2" data-name="Group 3" clip-path="url(#clip-path-2)">
        <path id="Fill_1" data-name="Fill 1" d="M25.086,30h0A2.963,2.963,0,0,1,23,29.129l-1.174-1.175-.517.518a2.9,2.9,0,0,1-4.1,0l-.066-.066a2.852,2.852,0,0,1-.733-1.29,2.845,2.845,0,0,1-3-.677l-.065-.066a2.863,2.863,0,0,1-.81-1.66l-.082.011a2.031,2.031,0,0,1-.272.024,2.874,2.874,0,0,1-2.048-.848l-.066-.066a2.9,2.9,0,0,1-.71-2.893,2.881,2.881,0,0,1-1.333-.749l-.066-.066a2.912,2.912,0,0,1,0-4.107l.735-.737L7.362,14.142c-.458.473-.8.8-1,.983a.87.87,0,0,1-.084.068,1.864,1.864,0,0,1-2.426-.153l-3.554-3.2a.9.9,0,0,1-.105-1.211L8.22.342A.887.887,0,0,1,9.389.134L13.222,2.52a2.04,2.04,0,0,1,1.015,2.465.929.929,0,0,1-.05.125c-.015.031-.031.06-.046.09l-.039.076,1.031.5a2.744,2.744,0,0,0,1.163.226A3.024,3.024,0,0,0,17.8,5.649l.61-.373a5.722,5.722,0,0,1,2.867-.721,4.836,4.836,0,0,1,1.5.217l1.683.557.463-.248a4.212,4.212,0,0,1,1.989-.46,4.379,4.379,0,0,1,2.369.643l1.58,1.029a2.6,2.6,0,0,0,2.4,0l.881-.571c-.132-.229-.236-.424-.329-.613a.93.93,0,0,1-.05-.125A2.041,2.041,0,0,1,34.778,2.52L38.612.134A.887.887,0,0,1,39.78.342l8.031,10.282a.9.9,0,0,1-.105,1.211l-3.554,3.2a1.864,1.864,0,0,1-2.426.153,1.016,1.016,0,0,1-.084-.068c-.115-.105-.266-.248-.461-.437l-3.262,3.54a2.841,2.841,0,0,1-.965.683,2.954,2.954,0,0,1,.835,2.04,2.611,2.611,0,0,1-2.542,2.62c0,.011,0,.021,0,.032s0,.041,0,.061a2.806,2.806,0,0,1-.913,2.019,3.01,3.01,0,0,1-2.051.8,3.04,3.04,0,0,1-.514-.049,2.644,2.644,0,0,1-.762,1.445,2.715,2.715,0,0,1-1.9.754,2.959,2.959,0,0,1-1.443-.394,3.148,3.148,0,0,1-.651.965A2.7,2.7,0,0,1,25.086,30Zm-9.96-14.13a2.871,2.871,0,0,1,2.048.848l.066.067a2.917,2.917,0,0,1,.8,2.513,2.856,2.856,0,0,1,1.57.8l.065.065a2.885,2.885,0,0,1,.843,2.012,2.88,2.88,0,0,1,2.005.844l.065.065a2.9,2.9,0,0,1,.428,3.542l1.24,1.243a1.178,1.178,0,0,0,.823.35.942.942,0,0,0,.674-.271c.411-.413.483-.963.272-1.178l-1.061-1.084a.592.592,0,0,1-.047-.058l-.016-.021-.018-.021a.337.337,0,0,1-.03-.039.641.641,0,0,1-.042-.078l-.01-.02c0-.009-.009-.017-.013-.025a.3.3,0,0,1-.016-.031.826.826,0,0,1-.029-.095l0-.019a.249.249,0,0,0-.007-.026.247.247,0,0,1-.007-.026.729.729,0,0,1-.009-.091l0-.026c0-.008,0-.015,0-.023a.256.256,0,0,1,0-.03.814.814,0,0,1,.008-.086l0-.028c0-.008,0-.016,0-.024a.3.3,0,0,1,0-.032.631.631,0,0,1,.026-.089l.008-.024.006-.02c0-.011.006-.021.01-.032a.858.858,0,0,1,.057-.105l.009-.018a.21.21,0,0,1,.017-.031.681.681,0,0,1,.064-.08l.012-.014.017-.021a.25.25,0,0,1,.021-.024.414.414,0,0,1,.052-.043l.023-.017.023-.019a.416.416,0,0,1,.044-.035l.03-.016.024-.012.027-.015a.779.779,0,0,1,.076-.038l.018-.005.019-.006a.918.918,0,0,1,.129-.037h.031a.822.822,0,0,1,.129-.012h.038a.921.921,0,0,1,.141.014l.023.007.024.007.016,0a.882.882,0,0,1,.1.032.423.423,0,0,1,.04.021l.026.015.026.013a.571.571,0,0,1,.06.033.468.468,0,0,1,.053.043l.021.018.022.017a.4.4,0,0,1,.042.035l.006.006,2.018,2.047a1.21,1.21,0,0,0,.853.362.946.946,0,0,0,.664-.254.9.9,0,0,0,.268-.646,1.154,1.154,0,0,0-.345-.818l-2.408-2.424-.285-.287a.89.89,0,0,1-.243-.8.24.24,0,0,1,.009-.031c0-.008.005-.016.007-.023a.879.879,0,0,1,.229-.405.908.908,0,0,1,.294-.2l.03-.009.031-.009.027-.009a.578.578,0,0,1,.077-.021.859.859,0,0,1,.165-.016.89.89,0,0,1,.565.206l.025.02a.406.406,0,0,1,.043.036l3.18,3.2a1.2,1.2,0,0,0,.85.343,1.188,1.188,0,0,0,.812-.309,1.07,1.07,0,0,0,.367-.771,1.044,1.044,0,0,0-.309-.761l-.17-.172L30.16,19.837l-.683-.688a.892.892,0,0,1,0-1.26.6.6,0,0,1,.051-.043l.028-.022a.9.9,0,0,1,.552-.194.863.863,0,0,1,.168.017l.017.005.012,0a.814.814,0,0,1,.135.04l.031.016.025.014.027.014a.643.643,0,0,1,.071.039l0,0a.921.921,0,0,1,.136.111l3.519,3.545a1.229,1.229,0,0,0,.859.364.915.915,0,0,0,.643-.245.847.847,0,0,0,.254-.616,1.148,1.148,0,0,0-.354-.815l-3.987-3.941-4.824-4.747a7.821,7.821,0,0,0-1.419.44l-1.012.4a2.889,2.889,0,0,1-1.079.207,2.966,2.966,0,0,1-2.73-1.783l-.036-.085a3.142,3.142,0,0,1,1.366-3.938L22.3,6.49l-.082-.027a3.072,3.072,0,0,0-.946-.132,3.933,3.933,0,0,0-1.932.464l-.61.374a4.771,4.771,0,0,1-2.428.617,4.534,4.534,0,0,1-1.944-.405L13.163,6.8c-.368.528-.84,1.169-1.466,2.016l-.813,1.1c-.765,1.04-1.546,2.019-2.321,2.91L9.959,14.02l.114-.114a2.9,2.9,0,0,1,4.1,0l.065.065a2.9,2.9,0,0,1,.833,1.9h0l.021,0Zm5.35,8.082a1.115,1.115,0,0,0-.792.326l-1.278,1.282a1.13,1.13,0,0,0,0,1.588l.065.065a1.151,1.151,0,0,0,1.584,0l1.279-1.282a1.125,1.125,0,0,0,0-1.587l-.066-.066A1.109,1.109,0,0,0,20.476,23.952Zm-2.913-2.92a1.111,1.111,0,0,0-.784.319L14.6,23.535a1.129,1.129,0,0,0,.007,1.58l.066.066a1.152,1.152,0,0,0,1.584,0l2.164-2.17a1.126,1.126,0,0,0,0-1.588l-.065-.064A1.11,1.11,0,0,0,17.563,21.031Zm-2.437-3.38a1.116,1.116,0,0,0-.793.326l-.076.077-.011.014-.009.012-2.111,2.114-.012.01-.012.01-.773.774a1.126,1.126,0,0,0,0,1.588l.065.065a1.152,1.152,0,0,0,1.585,0l.365-.365,0,0,0,0L15.514,20.1l.008-.006.46-.462a1.125,1.125,0,0,0,0-1.587l-.067-.067A1.106,1.106,0,0,0,15.125,17.651Zm-3-2.812a1.109,1.109,0,0,0-.792.327l-2.11,2.115a1.125,1.125,0,0,0,0,1.588l.066.065a1.15,1.15,0,0,0,1.562.018L13,16.795a1.117,1.117,0,0,0-.02-1.563l-.064-.065A1.114,1.114,0,0,0,12.122,14.839ZM27.038,9.633a1.116,1.116,0,0,1,.816.3L32.79,14.79l.166.163,2.138,2.1a1.049,1.049,0,0,0,1.52-.037L39.945,13.4a44.109,44.109,0,0,1-2.83-3.484l-.812-1.1c-.515-.7-.873-1.182-1.18-1.61l-.9.582a4.249,4.249,0,0,1-4.338,0l-1.58-1.03a2.729,2.729,0,0,0-1.415-.34,2.476,2.476,0,0,0-1.135.232l-2.982,1.6A1.342,1.342,0,0,0,22.2,9.914l.037.085a1.231,1.231,0,0,0,1.114.7,1.086,1.086,0,0,0,.405-.076l1.012-.4A7.731,7.731,0,0,1,27.038,9.633ZM38.872,2.069,35.683,4.054c-.027.016-.054.032-.085.047a.253.253,0,0,0-.157.292,24.787,24.787,0,0,0,2.29,3.365l.814,1.1a34.487,34.487,0,0,0,4.243,4.9.163.163,0,0,0,.061.026.423.423,0,0,0,.054-.017l0,0,.039-.038,2.952-2.66Zm-29.743,0-7.029,9,2.952,2.66.045.043.016.006a.14.14,0,0,0,.038.012.161.161,0,0,0,.06-.026,34.6,34.6,0,0,0,4.243-4.9l.814-1.1.01-.014a24.318,24.318,0,0,0,2.279-3.351c.027-.123-.03-.222-.175-.3-.014-.007-.052-.028-.066-.037Z" fill="#fff"/>
      </g>
    </g>
  </g>
</svg>
