<svg xmlns="http://www.w3.org/2000/svg" xmlns:xlink="http://www.w3.org/1999/xlink" width="64" height="64" viewBox="0 0 64 64">
  <defs>
    <linearGradient id="linear-gradient" x1="0.5" x2="0.5" y2="0.98" gradientUnits="objectBoundingBox">
      <stop offset="0" stop-color="#ffcb05"/>
      <stop offset="1" stop-color="#eaab00"/>
    </linearGradient>
    <clipPath id="clip-path">
      <path id="Clip_4" data-name="Clip 4" d="M0,0H10.924V12.94H0Z" transform="translate(0.043 0.005)" fill="none"/>
    </clipPath>
  </defs>
  <g id="Group_2" data-name="Group 2" transform="translate(2 2)">
    <g id="Oval" stroke="#fff" stroke-miterlimit="10" stroke-width="2" fill="url(#linear-gradient)">
      <circle cx="30" cy="30" r="30" stroke="none"/>
      <circle cx="30" cy="30" r="31" fill="none"/>
    </g>
    <g id="Group_8" data-name="Group 8" transform="translate(13 12)">
      <path id="Fill_1" data-name="Fill 1" d="M5.729,20H1.044A1.024,1.024,0,0,1,0,19V6.029a1.024,1.024,0,0,1,1.044-1h4.8a1.019,1.019,0,0,1,.188.017,2.249,2.249,0,0,1,1.8,1.762A40.433,40.433,0,0,0,20.148,1.2,5.6,5.6,0,0,1,23.242,0a2.619,2.619,0,0,1,2.083.965A2.5,2.5,0,0,1,25.9,2.986c-.2,1.258-1.279,2.519-3.3,3.856-.533.351-.994.639-1.363.869l-.011.007a7.1,7.1,0,0,0-1.314.924s.006.012.011.031l0,.008a2.468,2.468,0,0,0,1.767.628,8.885,8.885,0,0,0,2.829-.642A25.091,25.091,0,0,0,27.8,7.212a20.844,20.844,0,0,1,4.311-1.72,8.5,8.5,0,0,1,2.386-.354A3.963,3.963,0,0,1,37.641,6.25a1.609,1.609,0,0,1,.284,1.5l-.024.083c-.263.926-.646,1.144-3.57,2.578s-8.876,6.884-8.935,6.938c-.025.023-.049.043-.072.06a4.978,4.978,0,0,1-2.766.973,3.48,3.48,0,0,1-.36-.019c-.489.03-4.916.291-9.607.291-1.648,0-3.158-.033-4.489-.1-.067,0-.132-.013-.195-.022l-.114-.016a2.218,2.218,0,0,1-1.953,1.476C5.8,20,5.765,20,5.729,20ZM2.088,7.03V18H5.642a.716.716,0,0,0,.143-.049c.045-1.942.018-6.724,0-9.293v-.4c0-.514-.005-.881-.005-1.033,0-.077,0-.15-.1-.2ZM23.242,2a3.823,3.823,0,0,0-1.862.814A42.551,42.551,0,0,1,8.224,8.779a1.07,1.07,0,0,1-.177.031l-.169.015,0,.29c.009,1.8.027,5.139.01,7.4a2.387,2.387,0,0,0,.317.041c1.284.063,2.758.095,4.383.095,4.629,0,9.07-.261,9.561-.291h.009l.069,0a1.1,1.1,0,0,1,.15.011,1.352,1.352,0,0,0,.186.013,2.863,2.863,0,0,0,1.427-.517c.637-.582,6.315-5.73,9.386-7.235l.046-.023c.794-.39,1.995-.979,2.4-1.248a3.313,3.313,0,0,0-1.328-.221,6.308,6.308,0,0,0-1.769.264,18.735,18.735,0,0,0-3.937,1.57,27.294,27.294,0,0,1-3.53,1.562,10.653,10.653,0,0,1-3.577.774A4.561,4.561,0,0,1,18.213,9.87a.963.963,0,0,1-.208-.337c-.658-1.788.491-2.505,2.081-3.5L20.143,6c.367-.229.783-.489,1.264-.806,2.045-1.349,2.377-2.2,2.425-2.507a.563.563,0,0,0-.143-.482A.509.509,0,0,0,23.242,2Z" transform="translate(0 16)" fill="#fff"/>
      <g id="Group_5" data-name="Group 5" transform="translate(18)">
        <path id="Clip_4-2" data-name="Clip 4" d="M0,0H10.924V12.94H0Z" transform="translate(0.043 0.005)" fill="none"/>
        <g id="Group_5-2" data-name="Group 5" clip-path="url(#clip-path)">
          <path id="Fill_3" data-name="Fill 3" d="M4.511,2.18A4.336,4.336,0,0,1,8.793,6.56a4.4,4.4,0,0,1-2.176,3.809,8,8,0,0,1-.638,2.572A6.528,6.528,0,0,0,10.924,6.56,6.487,6.487,0,0,0,4.511,0,6.321,6.321,0,0,0,0,1.9a7.562,7.562,0,0,1,2.473.81A4.182,4.182,0,0,1,4.511,2.18" transform="translate(0.043 0.005)" fill="#fff"/>
        </g>
      </g>
      <path id="Fill_6" data-name="Fill 6" d="M6.5,13A6.5,6.5,0,1,1,13,6.5,6.507,6.507,0,0,1,6.5,13Zm0-10.84A4.34,4.34,0,1,0,10.84,6.5,4.345,4.345,0,0,0,6.5,2.16Z" transform="translate(11 3)" fill="#fff"/>
    </g>
  </g>
</svg>
