<svg xmlns="http://www.w3.org/2000/svg" xmlns:xlink="http://www.w3.org/1999/xlink" width="30" height="30" viewBox="0 0 30 30">
  <defs>
    <clipPath id="clip-path">
      <rect width="30" height="30" fill="none"/>
    </clipPath>
  </defs>
  <g id="icon_facebook" data-name="icon / facebook" clip-path="url(#clip-path)">
    <g id="facebook-square" transform="translate(0 0)">
      <path id="Path" d="M26.786,0H3.214A3.214,3.214,0,0,0,0,3.214V26.786A3.214,3.214,0,0,0,3.214,30h9.191V19.8H8.186V15h4.219V11.341c0-4.162,2.478-6.461,6.273-6.461A25.558,25.558,0,0,1,22.4,5.2V9.289H20.3a2.4,2.4,0,0,0-2.707,2.594V15H22.2l-.737,4.8H17.595V30h9.191A3.214,3.214,0,0,0,30,26.786V3.214A3.214,3.214,0,0,0,26.786,0Z" transform="translate(0 0)" fill="#004c6c"/>
    </g>
  </g>
</svg>
