<svg xmlns="http://www.w3.org/2000/svg" width="30.001" height="30" viewBox="0 0 30.001 30">
  <g id="instagram" transform="translate(0)">
    <path id="Shape" d="M15,30c-2.671,0-5.042-.04-6.187-.105a8.9,8.9,0,0,1-6.285-2.423A8.823,8.823,0,0,1,.105,21.185C-.036,18.7-.036,11.3.105,8.808.247,5.989.994,4.05,2.528,2.522A8.863,8.863,0,0,1,8.813.105C9.958.04,12.329,0,15,0s5.042.04,6.188.105a8.873,8.873,0,0,1,6.284,2.424,8.813,8.813,0,0,1,2.423,6.286c.141,2.486.141,9.885,0,12.37a8.879,8.879,0,0,1-2.423,6.287,8.811,8.811,0,0,1-6.284,2.423C20.042,29.959,17.671,30,15,30Zm0-2.7c.311,0,.68,0,1.07.008.478,0,1.021.01,1.585.01,1.985,0,4.785-.064,6.187-.62A5.069,5.069,0,0,0,26.7,23.843c.672-1.688.634-5.35.61-7.773,0-.39-.008-.759-.008-1.069s0-.679.008-1.07c.025-2.421.062-6.08-.61-7.774a5.069,5.069,0,0,0-2.851-2.851c-1.407-.555-4.243-.62-6.254-.62-.549,0-1.077.005-1.543.01-.381,0-.741.007-1.045.007s-.679,0-1.068-.008c-.479,0-1.021-.01-1.583-.01-1.985,0-4.787.064-6.189.621A5.064,5.064,0,0,0,3.311,6.157c-.668,1.694-.632,5.367-.609,7.8,0,.381.007.74.007,1.046s0,.679-.008,1.069c-.025,2.421-.062,6.08.61,7.773a5.067,5.067,0,0,0,2.851,2.852c1.405.555,4.236.619,6.243.619.551,0,1.082-.005,1.55-.01C14.338,27.3,14.7,27.3,15,27.3Zm0-4.605a7.679,7.679,0,1,1,5.442-2.249A7.641,7.641,0,0,1,15,22.692ZM15,10a5,5,0,1,0,5,5A5.006,5.006,0,0,0,15,10Zm8-1.211A1.794,1.794,0,1,1,24.8,6.994,1.8,1.8,0,0,1,23.008,8.788Z" fill="#004c6c"/>
  </g>
</svg>
