<svg xmlns="http://www.w3.org/2000/svg" width="30" height="30" viewBox="0 0 30 30">
  <g id="twitter-square" transform="translate(0)">
    <path id="Shape" d="M26.786,30H3.214A3.218,3.218,0,0,1,0,26.786V3.214A3.218,3.218,0,0,1,3.214,0H26.786A3.218,3.218,0,0,1,30,3.214V26.786A3.218,3.218,0,0,1,26.786,30Zm-22.5-8.27h0A12.47,12.47,0,0,0,11.029,23.7a12.375,12.375,0,0,0,12.5-12.5c0-.188,0-.382-.013-.57a9.173,9.173,0,0,0,2.2-2.276,8.748,8.748,0,0,1-2.531.683,4.379,4.379,0,0,0,1.929-2.417,8.654,8.654,0,0,1-2.786,1.057,4.405,4.405,0,0,0-6.624.238,4.431,4.431,0,0,0-.87,3.774A12.5,12.5,0,0,1,5.779,7.1a4.319,4.319,0,0,0-.6,2.217,4.37,4.37,0,0,0,1.956,3.656,4.4,4.4,0,0,1-1.983-.555v.053a4.411,4.411,0,0,0,3.515,4.313,4.468,4.468,0,0,1-1.139.148,5.693,5.693,0,0,1-.843-.068,4.4,4.4,0,0,0,4.1,3.047,8.768,8.768,0,0,1-5.451,1.875A9.171,9.171,0,0,1,4.287,21.73Z" fill="#004c6c"/>
  </g>
</svg>
