<svg xmlns="http://www.w3.org/2000/svg" xmlns:xlink="http://www.w3.org/1999/xlink" width="30" height="30" viewBox="0 0 30 30">
  <defs>
    <clipPath id="clip-path">
      <rect width="30" height="30" fill="none"/>
    </clipPath>
  </defs>
  <g id="icon_linkedin" data-name="icon / linkedin" transform="translate(0 0)" clip-path="url(#clip-path)">
    <g id="linkedin" transform="translate(0 0)">
      <path id="Shape" d="M27.857,30H2.137A2.152,2.152,0,0,1,0,27.837V2.163A2.152,2.152,0,0,1,2.137,0h25.72A2.155,2.155,0,0,1,30,2.163V27.837A2.155,2.155,0,0,1,27.857,30ZM18.977,14.954c2.31,0,2.31,2.194,2.31,3.8v6.964h4.447V17.866c0-3.544-.647-6.824-5.337-6.824a4.705,4.705,0,0,0-4.212,2.31h-.06V11.4H11.859V25.714h4.447V18.629C16.306,16.812,16.624,14.954,18.977,14.954ZM4.621,11.4V25.714H9.074V11.4ZM6.844,4.286A2.578,2.578,0,1,0,9.422,6.863,2.581,2.581,0,0,0,6.844,4.286Z" fill="#004c6c"/>
    </g>
  </g>
</svg>
