<svg xmlns="http://www.w3.org/2000/svg" xmlns:xlink="http://www.w3.org/1999/xlink" width="60" height="60" viewBox="0 0 60 60">
  <defs>
    <clipPath id="clip-path">
      <rect width="60" height="60" fill="none"/>
    </clipPath>
    <linearGradient id="linear-gradient" x1="0.5" x2="0.5" y2="0.98" gradientUnits="objectBoundingBox">
      <stop offset="0" stop-color="#ffcb05"/>
      <stop offset="1" stop-color="#eaab00"/>
    </linearGradient>
    <clipPath id="clip-path-2">
      <path id="Clip_2" data-name="Clip 2" d="M0,0H29V34.992H0Z" transform="translate(0 0.008)" fill="none"/>
    </clipPath>
  </defs>
  <g id="icon_shield" data-name="icon / shield" clip-path="url(#clip-path)">
    <g id="Group_30" data-name="Group 30">
      <g id="Oval" stroke="#fff" stroke-miterlimit="10" stroke-width="2" fill="url(#linear-gradient)">
        <circle cx="30" cy="30" r="30" stroke="none"/>
        <circle cx="30" cy="30" r="31" fill="none"/>
      </g>
    </g>
    <g id="Group_6" data-name="Group 6" transform="translate(16 14)">
      <g id="Group_3" data-name="Group 3">
        <path id="Clip_2-2" data-name="Clip 2" d="M0,0H29V34.992H0Z" transform="translate(0 0.008)" fill="none"/>
        <g id="Group_3-2" data-name="Group 3" clip-path="url(#clip-path-2)">
          <path id="Fill_1" data-name="Fill 1" d="M14.5,34.992a1.092,1.092,0,0,1-.486-.114l-.144-.059C9.7,33.09,0,27.985,0,17.933V4.47A1.112,1.112,0,0,1,.837,3.389L14.234.032a1.1,1.1,0,0,1,.531,0l13.4,3.356A1.112,1.112,0,0,1,29,4.47V17.933C29,27.985,19.3,33.09,15.13,34.818l-.144.059A1.1,1.1,0,0,1,14.5,34.992Zm0-32.729L2.206,5.342v12.59c0,8.605,8.6,13.172,12.293,14.737,3.7-1.564,12.294-6.131,12.294-14.737V5.342Z" transform="translate(0 0.008)" fill="#fff"/>
        </g>
      </g>
      <path id="Fill_4" data-name="Fill 4" d="M3.869,0V2.443A4.4,4.4,0,0,0,.469,5.66a3.791,3.791,0,0,0,2.194,4.4,11.621,11.621,0,0,0,1.492.544c2.073.657,3.537,1.244,3.5,2.827-.039,1.479-1.5,1.832-1.942,1.9A3.182,3.182,0,0,1,2.16,13.469L0,14.258a5.187,5.187,0,0,0,3.869,3.211V20H6.178V17.514a4.236,4.236,0,0,0,3.781-4.032c.088-3.364-3.15-4.39-5.085-5A10.352,10.352,0,0,1,3.7,8.062a1.582,1.582,0,0,1-.984-1.887A2.184,2.184,0,0,1,4.884,4.564a3.691,3.691,0,0,1,3.052,1.9l1.03-.5-1.033.5L10,5.464a6.229,6.229,0,0,0-3.822-2.98V0Z" transform="translate(9 7)" fill="#fff"/>
    </g>
  </g>
</svg>
