<svg xmlns="http://www.w3.org/2000/svg" xmlns:xlink="http://www.w3.org/1999/xlink" width="30" height="30" viewBox="0 0 30 30">
  <defs>
    <clipPath id="clip-path">
      <rect width="30" height="30" fill="none"/>
    </clipPath>
  </defs>
  <g id="icon_youtube" data-name="icon / youtube" transform="translate(0 0)" clip-path="url(#clip-path)">
    <g id="youtube-square" transform="translate(0 0)">
      <path id="Shape" d="M26.786,30H3.214A3.218,3.218,0,0,1,0,26.786V3.214A3.218,3.218,0,0,1,3.214,0H26.786A3.218,3.218,0,0,1,30,3.214V26.786A3.218,3.218,0,0,1,26.786,30ZM15,6.429c-.076,0-7.649.006-9.523.516A3.06,3.06,0,0,0,3.321,9.113a32.346,32.346,0,0,0-.509,5.907,32.37,32.37,0,0,0,.509,5.906,3,3,0,0,0,2.156,2.137c1.874.5,9.447.509,9.523.509s7.648-.006,9.522-.515a3,3,0,0,0,2.156-2.137,32.276,32.276,0,0,0,.509-5.9,32.383,32.383,0,0,0-.509-5.907,3.06,3.06,0,0,0-2.156-2.169C22.649,6.435,15.077,6.429,15,6.429ZM12.509,18.636V11.39l6.375,3.623-6.373,3.622Z" fill="#004c6c"/>
    </g>
  </g>
</svg>
