<svg xmlns="http://www.w3.org/2000/svg" xmlns:xlink="http://www.w3.org/1999/xlink" width="257.838" height="35.73" viewBox="0 0 257.838 35.73">
  <defs>
    <clipPath id="clip-path">
      <path id="Clip_8" data-name="Clip 8" d="M0,0H107.736V31.5H0Z" transform="translate(0.102 0.107)" fill="none"/>
    </clipPath>
  </defs>
  <g id="SLCompass_RGB-WS" transform="translate(0 -0.237)">
    <path id="Fill_1" data-name="Fill 1" d="M13.024,5.5a.3.3,0,0,1-.3.276h-.8a.3.3,0,0,1-.3-.276l-.452-3.087a7.526,7.526,0,0,0-2.961-.527c-3.688,0-5.671,2.761-5.671,7.2,0,4.417,2.158,7.151,5.746,7.151a8.064,8.064,0,0,0,4.542-1.405c.125-.1.251-.05.326.1l.477,1.3a.348.348,0,0,1-.1.427,10.9,10.9,0,0,1-5.646,1.48C2.359,18.143,0,14.1,0,9.084,0,4.141,2.359,0,8.281,0A10.4,10.4,0,0,1,13.2,1.129a.407.407,0,0,1,.2.4L13.024,5.5" transform="translate(157.056 11.704)" fill="#133037"/>
    <path id="Fill_2" data-name="Fill 2" d="M6.123,13.174A5.8,5.8,0,0,1,1.4,11.279,7.168,7.168,0,0,1,0,6.6,7.211,7.211,0,0,1,1.4,1.907,5.79,5.79,0,0,1,6.123,0c3.965,0,6.149,2.344,6.149,6.6a7.133,7.133,0,0,1-1.409,4.68A5.84,5.84,0,0,1,6.123,13.174Zm0-11.468c-2.481,0-3.739,1.646-3.739,4.893,0,3.23,1.258,4.868,3.739,4.868S9.862,9.83,9.862,6.6C9.862,3.353,8.6,1.706,6.123,1.706Z" transform="translate(171.913 16.673)" fill="#133037"/>
    <path id="Fill_3" data-name="Fill 3" d="M0,11.945a.285.285,0,0,1,.276-.3l2.158-.175v-7.4a10.984,10.984,0,0,0-.176-2.359L.276,1.531A.285.285,0,0,1,0,1.229v-.7A.263.263,0,0,1,.276.251H3.739a.447.447,0,0,1,.4.251,11.248,11.248,0,0,1,.376,1.2A7.736,7.736,0,0,1,9.059,0,3.561,3.561,0,0,1,12.6,1.857,8.64,8.64,0,0,1,17.516,0c3.111,0,4.191,1.907,4.191,5.647v5.822l2.158.175a.271.271,0,0,1,.276.3v.7a.251.251,0,0,1-.276.276H19.623a.251.251,0,0,1-.276-.276v-6.8c0-2.885-.728-3.89-2.56-3.89a6.842,6.842,0,0,0-3.713,1.305,12.422,12.422,0,0,1,.176,2.283v5.923l2.158.175a.271.271,0,0,1,.277.3v.7a.251.251,0,0,1-.277.276H11.167a.263.263,0,0,1-.275-.276V5.822c0-2.86-.728-3.865-2.585-3.865a6.107,6.107,0,0,0-3.488,1.23v8.281l2.158.175a.285.285,0,0,1,.276.3v.7a.264.264,0,0,1-.276.276H.276A.263.263,0,0,1,0,12.647v-.7" transform="translate(184.686 16.673)" fill="#133037"/>
    <path id="Fill_4" data-name="Fill 4" d="M6.977,19.2H.276A.264.264,0,0,1,0,18.921v-.7a.283.283,0,0,1,.276-.3l2.157-.175V4.065a10.953,10.953,0,0,0-.175-2.359L.276,1.531A.287.287,0,0,1,0,1.229v-.7A.264.264,0,0,1,.276.251H3.74a.448.448,0,0,1,.4.251,5.723,5.723,0,0,1,.3.928A5.957,5.957,0,0,1,8.231,0a4.788,4.788,0,0,1,3.887,1.6,7.72,7.72,0,0,1,1.384,5,7.286,7.286,0,0,1-1.428,4.793,5.372,5.372,0,0,1-4.345,1.782,6.122,6.122,0,0,1-2.911-.7v5.27l2.159.175a.286.286,0,0,1,.275.3v.7A.264.264,0,0,1,6.977,19.2ZM7.6,1.832a4.394,4.394,0,0,0-2.81,1.053v7.78a4.994,4.994,0,0,0,2.609.7c2.5,0,3.714-1.551,3.714-4.742C11.117,3.355,10,1.832,7.6,1.832Z" transform="translate(207.874 16.673)" fill="#133037"/>
    <path id="Fill_5" data-name="Fill 5" d="M4.342,13.174a4.967,4.967,0,0,1-3.056-.885A3.427,3.427,0,0,1,0,9.41,3.192,3.192,0,0,1,1.361,6.619a7.109,7.109,0,0,1,4.033-.947,25.217,25.217,0,0,1,2.71.175V4.893c0-2.275-.8-3.162-2.86-3.162a8.032,8.032,0,0,0-4.065,1.18.392.392,0,0,1-.152.035.2.2,0,0,1-.2-.136L.376,1.656a.282.282,0,0,1,.15-.376A10.107,10.107,0,0,1,5.621,0c3.538,0,4.793,1.326,4.793,5.069v4.04a11.268,11.268,0,0,0,.176,2.384l1.631.125a.326.326,0,0,1,.276.327v.7a.264.264,0,0,1-.276.275H9.109a.411.411,0,0,1-.377-.25,5.6,5.6,0,0,1-.3-.829A6.241,6.241,0,0,1,4.342,13.174Zm1.38-6.047a4.573,4.573,0,0,0-2.588.6,1.851,1.851,0,0,0-.8,1.612c0,1.4,1.013,2.233,2.71,2.233A4.645,4.645,0,0,0,8.1,10.389V7.328A17.927,17.927,0,0,0,5.721,7.127Z" transform="translate(223.007 16.673)" fill="#133037"/>
    <path id="Fill_6" data-name="Fill 6" d="M.28,9.134a.3.3,0,0,1,.3-.276h.752a.343.343,0,0,1,.327.276l.3,2.109a8.211,8.211,0,0,0,2.459.351c1.982,0,2.986-.677,2.986-2.032,0-3.112-7.177-1.1-7.177-6C.229,1.28,2.187,0,5.2,0A10.35,10.35,0,0,1,8.962.652a.355.355,0,0,1,.226.376L8.937,3.94a.321.321,0,0,1-.3.276H7.883a.326.326,0,0,1-.326-.276L7.23,1.807a10.864,10.864,0,0,0-1.983-.226c-1.706,0-2.81.627-2.81,1.832,0,2.986,7.2,1.154,7.2,5.872,0,2.359-1.807,3.89-5.32,3.89a10.083,10.083,0,0,1-4.09-.753A.4.4,0,0,1,0,12.02L.28,9.134" transform="translate(236.906 16.673)" fill="#133037"/>
    <g id="Group_11" data-name="Group 11" transform="translate(150 4.364)">
      <path id="Clip_8-2" data-name="Clip 8" d="M0,0H107.736V31.5H0Z" transform="translate(0.102 0.107)" fill="none"/>
      <g id="Group_11-2" data-name="Group 11" clip-path="url(#clip-path)">
        <path id="Fill_7" data-name="Fill 7" d="M.28,9.134a.3.3,0,0,1,.3-.276h.753a.343.343,0,0,1,.326.276l.3,2.109a8.211,8.211,0,0,0,2.459.351c1.982,0,2.986-.677,2.986-2.032,0-3.112-7.177-1.1-7.177-6C.229,1.28,2.187,0,5.2,0A10.349,10.349,0,0,1,8.962.652a.355.355,0,0,1,.226.376L8.937,3.94a.32.32,0,0,1-.3.276H7.883a.326.326,0,0,1-.326-.276L7.23,1.807a10.864,10.864,0,0,0-1.983-.226c-1.706,0-2.81.627-2.81,1.832,0,2.986,7.2,1.154,7.2,5.872,0,2.359-1.806,3.89-5.32,3.89a10.084,10.084,0,0,1-4.09-.753A.4.4,0,0,1,0,12.02L.28,9.134" transform="translate(98.199 12.309)" fill="#133037"/>
        <path id="Fill_9" data-name="Fill 9" d="M.273,0V31.529" transform="translate(0.102 0.107)" fill="#133037"/>
        <path id="Fill_10" data-name="Fill 10" d="M0,31.5H.545V0H0Z" transform="translate(0.102 0.107)" fill="#133037"/>
      </g>
    </g>
    <path id="Fill_12" data-name="Fill 12" d="M11,5.616c-.385-1.507-.946-4.493-4.168-4.493A2.808,2.808,0,0,0,3.872,4.079c0,4.552,9.459,4.257,9.459,10.582,0,4.2-3.725,5.734-7.271,5.734a10.848,10.848,0,0,1-5.2-1.183A13.665,13.665,0,0,1,0,13.657l1.389-.3c.413,1.773,1.389,5.912,5.172,5.912a3.014,3.014,0,0,0,3.1-3.281C9.666,11,.5,11.381.5,5.321.5,1.567,3.281,0,7.094,0a8.765,8.765,0,0,1,4.641,1.094,28.555,28.555,0,0,1,.325,4.522H11" transform="translate(42.418 9.687)" fill="#133037"/>
    <path id="Fill_13" data-name="Fill 13" d="M11.115,12.829a8.02,8.02,0,0,1-4.493,1.507c-4.582,0-4.789-2.66-4.789-5.941V4.109c0-1.035,0-2.365-.887-2.365A3.294,3.294,0,0,0,0,1.921V1.064A19.665,19.665,0,0,1,5.38,0V8.306c0,2.336.443,4.316,3.34,4.316a4.254,4.254,0,0,0,2.217-.739V4.109c0-1.035,0-2.365-.887-2.365a3.289,3.289,0,0,0-.946.177V1.064A19.658,19.658,0,0,1,14.485,0V8.839c0,2.423,0,3.577,1,3.577a4.188,4.188,0,0,0,.828-.029l.058.768a35.265,35.265,0,0,1-4.463,1.183l-.8-1.507" transform="translate(56.565 15.747)" fill="#133037"/>
    <path id="Fill_14" data-name="Fill 14" d="M1.832,4.109c0-1.035,0-2.365-.886-2.365A3.281,3.281,0,0,0,0,1.921V1.064A19.3,19.3,0,0,1,5.32,0V1.714A6.688,6.688,0,0,1,9.991,0c2.66,0,4.463,1.271,4.463,5.261v5.824c0,1.566.148,1.892,1.212,1.981l.62.059v.769H9.075v-.769l.62-.059c1.064-.088,1.212-.415,1.212-1.981v-4.2c0-2.335,0-5.173-3.074-5.173A3.267,3.267,0,0,0,5.38,2.838v8.247c0,1.566.147,1.892,1.211,1.981l.621.059v.769H.058v-.769l.621-.059c1-.088,1.153-.415,1.153-1.981V4.109" transform="translate(73.94 15.747)" fill="#133037"/>
    <path id="Fill_15" data-name="Fill 15" d="M0,18.741l.71-.089C2.1,18.386,2.1,18.505,2.1,15.135V4.286C2.1,1.419,2.1,1.064.71.857L0,.769V0H8.04V.769L7.331.857c-1.39.206-1.39.561-1.39,3.429V17.972a12.116,12.116,0,0,0,2.72.414c4.168,0,4.2-2.01,5.054-4.463l1.065.207a21.447,21.447,0,0,1-1.035,5.38H0v-.769" transform="translate(95.606 10.131)" fill="#133037"/>
    <path id="Fill_16" data-name="Fill 16" d="M7.214,20.485H0v-.769l.623-.059c1.042-.115,1.211-.393,1.211-1.98V10.7c0-1.054,0-2.365-.887-2.365a2.92,2.92,0,0,0-.857.151L0,8.513V7.656A19.543,19.543,0,0,1,5.381,6.592V17.677c0,1.587.17,1.865,1.211,1.98l.622.059v.768ZM3.4,4.138a2.017,2.017,0,0,1-2.07-2.1A2.033,2.033,0,0,1,3.4,0,2.081,2.081,0,0,1,5.468,2.039,2.038,2.038,0,0,1,3.4,4.138Z" transform="translate(111.07 9.155)" fill="#133037"/>
    <path id="Fill_17" data-name="Fill 17" d="M1.832,8.276C1.832,4.168,3.873,0,8.513,0a5.077,5.077,0,0,1,3.222.975,3.9,3.9,0,0,1-1.183,2.217h-.207C9.785,2.66,8.425,1.478,7.271,1.478,5.5,1.478,5.38,3.872,5.38,6.591V8.276c.886.029,2.689.148,3.664.266v.769c-1.271.148-2.424.237-3.664.3v9.311c0,1.566.147,1.892,1.24,1.981l1.184.059v.769H0v-.769L.59,20.9c1.095-.118,1.242-.415,1.242-1.981V8.276" transform="translate(119.444 7.914)" fill="#133037"/>
    <g id="Group_22" data-name="Group 22" transform="translate(12)">
      <path id="Fill_18" data-name="Fill 18" d="M6.917,14.336A6.584,6.584,0,0,1,0,7.36C0,2.58,3.487,0,6.768,0c4.941,0,5.58,3.376,5.854,4.818a46.511,46.511,0,0,1-8.9,2.838c.225,1.227.907,4.966,5.262,4.966a7.123,7.123,0,0,0,3.21-.836l.042-.021.3.68A8.769,8.769,0,0,1,6.917,14.336Zm-.8-13.213c-2.385,0-2.57,3.936-2.57,5.143A35.063,35.063,0,0,0,9.074,5C8.835,2.535,7.758,1.123,6.118,1.123Z" transform="translate(116.941 15.747)" fill="#133037"/>
      <path id="Fill_20" data-name="Fill 20" d="M2.5,2.676a7.532,7.532,0,0,1-.031-1.541A4.8,4.8,0,0,1,2.6.407c.014-.055.035-.162.063-.272A.1.1,0,0,0,2.5.024,8.168,8.168,0,0,0,.726,2.138,5.216,5.216,0,0,0,0,4.261a15.017,15.017,0,0,1,2.751.6A13.193,13.193,0,0,0,2.5,2.676" transform="translate(4.564 0.251)" fill="#dfa52e"/>
      <path id="Fill_21" data-name="Fill 21" d="M.085,4.35A14.789,14.789,0,0,1,2.6,4.171c-.019-.113-.041-.226-.07-.338A6.994,6.994,0,0,0,2.07,2.818a9.317,9.317,0,0,1-.434-1.144,5.345,5.345,0,0,1-.2-.9A3.989,3.989,0,0,1,1.417.262c0-.032,0-.094,0-.162A.09.09,0,0,0,1.256.035,6.408,6.408,0,0,0,.3,1.992a5.673,5.673,0,0,0-.3,1.5,3.221,3.221,0,0,0,.042.675c.01.062.026.123.04.183" transform="translate(0.371 0.237)" fill="#dfa52e"/>
    </g>
    <path id="Fill_23" data-name="Fill 23" d="M.307,3.876c.023.049.05.1.076.143.082-.038.163-.079.245-.116a15.028,15.028,0,0,1,1.854-.671Q2.425,3.113,2.358,3a6.216,6.216,0,0,0-.638-.76,8.327,8.327,0,0,1-.644-.877A4.763,4.763,0,0,1,.694.638,3.426,3.426,0,0,1,.552.205C.546.178.529.125.512.066A.08.08,0,0,0,.36.049a5.71,5.71,0,0,0-.354,1.9,5.061,5.061,0,0,0,.1,1.354,2.934,2.934,0,0,0,.2.568" transform="translate(8.139 1.771)" fill="#dfa52e"/>
    <path id="Fill_24" data-name="Fill 24" d="M0,2.56A14.863,14.863,0,0,1,2.383,4.938,16.419,16.419,0,0,0,3.6,2.629,9.049,9.049,0,0,1,4.61,1.082,5.866,5.866,0,0,1,5.226.443C5.277.4,5.369.307,5.473.216A.119.119,0,0,0,5.392,0,9.827,9.827,0,0,0,2.2.893,6.261,6.261,0,0,0,0,2.56" transform="translate(24.097 5.098)" fill="#dfa52e"/>
    <path id="Fill_25" data-name="Fill 25" d="M1.533,3.985c.077.176.147.353.218.53A16.294,16.294,0,0,0,3.725,2.384a9.8,9.8,0,0,1,1.489-1.34,6.307,6.307,0,0,1,.821-.5c.066-.033.189-.1.321-.17A.129.129,0,0,0,6.333.129,10.658,10.658,0,0,0,2.742.179,6.8,6.8,0,0,0,0,1.3,15.022,15.022,0,0,1,1.533,3.985" transform="translate(26.933 9.34)" fill="#dfa52e"/>
    <path id="Fill_26" data-name="Fill 26" d="M3.181,2.787a8.333,8.333,0,0,1,.483-1.624A5.315,5.315,0,0,1,4.036.441c.033-.053.091-.158.157-.265A.109.109,0,0,0,4.066.009,8.993,8.993,0,0,0,1.5,1.631,5.722,5.722,0,0,0,0,3.681,14.982,14.982,0,0,1,2.711,5.159a14.584,14.584,0,0,0,.47-2.372" transform="translate(20.566 1.891)" fill="#dfa52e"/>
    <path id="Fill_27" data-name="Fill 27" d="M2.689.443A5.726,5.726,0,0,0,.222.01,14.994,14.994,0,0,1,0,3.106a13.4,13.4,0,0,0,2.4-.641,8.3,8.3,0,0,1,1.67-.291,5.315,5.315,0,0,1,.812.014c.062.006.182.011.307.022a.109.109,0,0,0,.094-.188A8.974,8.974,0,0,0,2.689.443" transform="translate(29.504 18.857)" fill="#dfa52e"/>
    <path id="Fill_28" data-name="Fill 28" d="M5.948.921a9.822,9.822,0,0,0-3.2-.882A6.242,6.242,0,0,0,0,.334a14.914,14.914,0,0,1,.722,3.3A14.458,14.458,0,0,0,3.054,2.245a9.1,9.1,0,0,1,1.666-.8,5.826,5.826,0,0,1,.856-.229c.067-.012.194-.043.328-.068A.119.119,0,0,0,5.948.921" transform="translate(28.936 14.208)" fill="#dfa52e"/>
    <path id="Fill_29" data-name="Fill 29" d="M1.8,0A14.865,14.865,0,0,1,0,1.348,10.177,10.177,0,0,0,1.447,2.371a6.106,6.106,0,0,1,.937.8,3.782,3.782,0,0,1,.369.461c.025.037.078.107.129.182a.08.08,0,0,0,.149-.035,6.568,6.568,0,0,0-.319-2.187A4.169,4.169,0,0,0,1.8,0" transform="translate(22.83 30.599)" fill="#dfa52e"/>
    <path id="Fill_30" data-name="Fill 30" d="M1.521,0A14.918,14.918,0,0,1,0,2.031a11.113,11.113,0,0,0,1.918.624A6.75,6.75,0,0,1,3.193,3.2a4.3,4.3,0,0,1,.552.371c.04.032.119.089.2.153a.09.09,0,0,0,.148-.088A7.362,7.362,0,0,0,3.017,1.4,4.71,4.71,0,0,0,1.521,0" transform="translate(25.947 27.258)" fill="#dfa52e"/>
    <path id="Fill_31" data-name="Fill 31" d="M3.017,1.029A5.217,5.217,0,0,0,.985,0,15,15,0,0,1,0,2.639a12.532,12.532,0,0,0,2.233.073A7.571,7.571,0,0,1,3.762,2.9a4.779,4.779,0,0,1,.7.227c.052.021.155.057.261.1a.1.1,0,0,0,.132-.139A8.181,8.181,0,0,0,3.017,1.029" transform="translate(28.235 23.222)" fill="#dfa52e"/>
    <path id="Fill_32" data-name="Fill 32" d="M6.424.65A13.033,13.033,0,0,1,0,0,14.9,14.9,0,0,0,2.535,1.666,14.78,14.78,0,0,0,9.752,3.322a14.88,14.88,0,0,0,3.215-.441A15.873,15.873,0,0,1,8.02,1.5,16.656,16.656,0,0,1,6.424.65" transform="translate(5.488 30.799)" fill="#dfa52e"/>
    <g id="Group_36" data-name="Group 36" transform="translate(0 13.636)">
      <path id="Fill_33" data-name="Fill 33" d="M11.541.219a.153.153,0,0,0,0-.188c-.07-.073-.176.007-.176.007a22.9,22.9,0,0,1-5.2,3.795c-.383.205-.767.4-1.151.577A22.321,22.321,0,0,1,0,6.1a16.587,16.587,0,0,0,1.5.752A17.157,17.157,0,0,0,6.359,8.184a14.8,14.8,0,0,0,1.959-.844A26.882,26.882,0,0,1,5.732,5.131,17.126,17.126,0,0,0,11.541.219" transform="translate(13.38 11.479)" fill="#dfa52e"/>
      <path id="Fill_35" data-name="Fill 35" d="M1.643,8.469c.113.063.231.122.353.178a7.1,7.1,0,0,0,1.5.482,10.344,10.344,0,0,0,1.471.2q-.321-.754-.571-1.539a16.953,16.953,0,0,1-.586-2.5q-.067-.429-.112-.862c-.025-.243-.047-.485-.062-.73-.008-.128-.008-.256-.014-.385-.018-.49-.018-.977,0-1.463a4.667,4.667,0,0,1-1.5-.441c-.053-.027-.1-.057-.154-.087A2.381,2.381,0,0,1,1.306.764,1.953,1.953,0,0,1,1.07.387,1.958,1.958,0,0,1,.937,0,14.678,14.678,0,0,0,.389,1.8c-.057.246-.11.494-.154.744A14.879,14.879,0,0,0,.041,4.068c-.009.124-.013.248-.019.372C0,4.819-.006,5.2,0,5.585c.013.494.051.982.111,1.462A4.008,4.008,0,0,0,1.643,8.469" transform="translate(0 0.445)" fill="#dfa52e"/>
    </g>
    <path id="Fill_37" data-name="Fill 37" d="M1.109,5.547C.723,5.589.355,5.609,0,5.613c0,.345.007.691.027,1.039a.1.1,0,0,1,0,.013c.007.116.019.227.028.343.015.2.027.392.047.585a18.945,18.945,0,0,0,.473,2.679,17.666,17.666,0,0,0,.942,2.764,21.4,21.4,0,0,0,6.535-1.445A47.783,47.783,0,0,1,5.685,6.606q-.178-.436-.344-.865c.43-.171.862-.353,1.294-.559A16.727,16.727,0,0,0,12.747.564c.082-.109.154-.218.228-.326a.162.162,0,0,0-.009-.2.145.145,0,0,0-.189,0c-.237.231-.484.461-.753.689A21.3,21.3,0,0,1,7.376,3.671a23.286,23.286,0,0,1-2.441.987,19.77,19.77,0,0,1-2.32.646c-.52.109-1.024.191-1.505.243" transform="translate(4.868 10.382)" fill="#dfa52e"/>
    <path id="Fill_38" data-name="Fill 38" d="M.574,6.881a2.625,2.625,0,0,0,.823.5c.092.037.189.07.289.1a4.748,4.748,0,0,0,.56.135q.04-.34.1-.677c.028-.18.057-.359.091-.538a17.872,17.872,0,0,1,.43-1.754,18.332,18.332,0,0,1,1.451-3.5c.165-.3.335-.6.516-.9C4.882.165,4.938.083,4.991,0A14.862,14.862,0,0,0,0,5.786a1.8,1.8,0,0,0,.147.535,1.84,1.84,0,0,0,.428.56" transform="translate(1.488 7.012)" fill="#dfa52e"/>
    <path id="Fill_39" data-name="Fill 39" d="M.31,5.875c-.044.219-.08.44-.116.662Q.058,7.392,0,8.267a12.683,12.683,0,0,0,2.848-.321c.538-.118,1.095-.269,1.664-.451-.066-.194-.131-.387-.193-.577-.271-.822-.507-1.605-.713-2.337Q3.5,4.2,3.4,3.838q-.164-.616-.3-1.169c-.178-.726-.32-1.366-.428-1.9Q2.6.423,2.548.139C2.539.091,2.53.045,2.522,0c-.043.074-.086.148-.128.222-.167.3-.326.6-.477.911A19.153,19.153,0,0,0,.718,4.2Q.476,5.024.31,5.875" transform="translate(4.912 6.473)" fill="#dfa52e"/>
    <path id="Fill_40" data-name="Fill 40" d="M9.99,7.451A17.379,17.379,0,0,1,5.925,3.082q-.416-.638-.778-1.312a10.3,10.3,0,0,1-2.723-.358A6.308,6.308,0,0,1,1.224.94C1.113.881,1.006.819.9.755A4.134,4.134,0,0,1,0,0,14.683,14.683,0,0,0,.706,2.074c.046.107.089.217.138.324.165.363.347.716.54,1.062.171.308.351.61.543.9A14.841,14.841,0,0,0,3,5.8C4.6,7.1,7.093,7.655,9.99,7.451" transform="translate(0.479 23.018)" fill="#dfa52e"/>
    <path id="Fill_41" data-name="Fill 41" d="M8.639,5.28q-1.052.518-2.1.931A23.25,23.25,0,0,1,0,7.832c.235.433.488.849.757,1.255A16.424,16.424,0,0,0,4.923,13.4a23.284,23.284,0,0,0,5.636-1.641A34.622,34.622,0,0,1,7.19,7.27q.586-.258,1.172-.549A19.7,19.7,0,0,0,16.144.239a.157.157,0,0,0-.01-.2.141.141,0,0,0-.19,0A25.56,25.56,0,0,1,8.639,5.28" transform="translate(7.031 16.901)" fill="#dfa52e"/>
  </g>
</svg>
