<svg xmlns="http://www.w3.org/2000/svg" width="40.866" height="40.855" viewBox="0 0 40.866 40.855">
    <defs>
        <style>
            .cls-1{fill:#fff}
        </style>
    </defs>
    <path id="Path_10" d="M32.833 34.769a18.9 18.9 0 0 1-24.811 0v-3.394a3.23 3.23 0 0 1 3.215-3.082H15.3a.724.724 0 0 0 .656-.412l1.7-3.482c.011-.033.011-.067.022-.1a8.025 8.025 0 0 0 2.793.512 7.942 7.942 0 0 0 2.414-.378l1.691 3.46a.744.744 0 0 0 .656.412H29.8a3.027 3.027 0 0 1 3.037 3v3.46M13.963 17.312a.724.724 0 0 0-.634-.668 1.079 1.079 0 0 1-.935-1.068v-.5a1.078 1.078 0 0 1 .912-1.068.731.731 0 0 0 .623-.723v-1.937a4.06 4.06 0 0 1 4.05-4.061h9v6a.726.726 0 0 0 .59.712 1.083 1.083 0 0 1 .868 1.057v.523a1.065 1.065 0 0 1-.879 1.057.734.734 0 0 0-.6.668 6.515 6.515 0 0 1-13 .011zM40.131 19.7a.734.734 0 0 0-.734.734 18.915 18.915 0 0 1-5.107 12.933V31.3a4.483 4.483 0 0 0-4.49-4.464h-4.11l-1.458-2.982a7.962 7.962 0 0 0 4.15-5.941 2.542 2.542 0 0 0 1.535-2.336v-.5a2.529 2.529 0 0 0-1.458-2.292V6.564a.734.734 0 0 0-.734-.734H18a5.515 5.515 0 0 0-5.507 5.518v1.38a2.552 2.552 0 0 0-1.547 2.336v.512a2.543 2.543 0 0 0 1.624 2.37 8.022 8.022 0 0 0 3.838 5.741.2.2 0 0 0-.056.078l-1.5 3.071h-3.615a4.675 4.675 0 0 0-4.673 4.539v1.992a18.955 18.955 0 0 1 13.863-31.9.734.734 0 0 0 0-1.469A20.42 20.42 0 0 0 6.765 35.6c.011.011.033.022.045.033a20.414 20.414 0 0 0 34.045-15.206.722.722 0 0 0-.724-.727zm-7.3-13.863h2.915v2.919a.734.734 0 0 0 1.469 0V5.841h2.915a.734.734 0 1 0 0-1.469h-2.914V1.458a.734.734 0 0 0-1.469 0v2.915h-2.914a.734.734 0 0 0 0 1.469z" class="cls-1" data-name="Path 10"/>
</svg>
