<svg xmlns="http://www.w3.org/2000/svg" width="37.618" height="47.95" viewBox="0 0 37.618 47.95">
    <defs>
        <style>
            .cls-1{fill:#fff}
        </style>
    </defs>
    <path id="Shape_2" d="M470.073 2263.011H445.3a2.855 2.855 0 0 0-2.684 1.918h27.459a.961.961 0 0 1 .958.959v37.017a2.241 2.241 0 0 1-.144.815 2.832 2.832 0 0 0 2.061-2.733v-35.1a2.885 2.885 0 0 0-2.875-2.877m-3.259 3.26H442.04a2.885 2.885 0 0 0-2.875 2.877v5.562l1.917-1.918v-3.644a.961.961 0 0 1 .959-.959h24.775a.961.961 0 0 1 .959.959v37.017a2.247 2.247 0 0 1-.144.815 2.833 2.833 0 0 0 2.06-2.733v-35.1a2.885 2.885 0 0 0-2.876-2.875zm-29.567 41.812a.961.961 0 0 0 .958.959h24.775a.961.961 0 0 0 .958-.959v-35.1a.961.961 0 0 0-.958-.959h-15a2.437 2.437 0 0 0-.958.192v6.713a2.885 2.885 0 0 1-2.875 2.877h-6.709a3.764 3.764 0 0 0-.192.958zm1.342-28.194h5.559a.961.961 0 0 0 .958-.959v-5.515zm-3.259 28.194v-25.318a6.188 6.188 0 0 1 1.629-3.932l7.044-7.048.048-.049a6.219 6.219 0 0 1 3.882-1.582h15a2.885 2.885 0 0 1 2.875 2.877v35.051a2.885 2.885 0 0 1-2.875 2.877h-24.729a2.885 2.885 0 0 1-2.875-2.874zm3.833-4.747a.958.958 0 1 0 .959-.959.962.962 0 0 0-.96.961zm0-4.507a.958.958 0 1 0 .959-.959.962.962 0 0 0-.96.961zm0-4.46a.958.958 0 1 0 .959-.959.962.962 0 0 0-.96.961zm0-4.459a.958.958 0 1 0 .959-.959.961.961 0 0 0-.96.961zm0-4.507a.958.958 0 1 0 .959-.959.962.962 0 0 0-.96.957zm22.81 17.933a.962.962 0 0 0-.958-.959h-15.958a.959.959 0 0 0 0 1.918h15.957a.962.962 0 0 0 .959-.957zm0-4.507a.961.961 0 0 0-.958-.959h-15.958a.959.959 0 0 0 0 1.918h15.957a.962.962 0 0 0 .959-.957zm0-4.46a.962.962 0 0 0-.958-.959h-15.958a.959.959 0 0 0 0 1.919h15.957a.962.962 0 0 0 .959-.958zm0-4.459a.962.962 0 0 0-.958-.959h-15.958a.959.959 0 0 0 0 1.918h15.957a.961.961 0 0 0 .959-.957zm0-4.507a.962.962 0 0 1-.958.958h-15.958a.959.959 0 0 1 0-1.918h15.957a.961.961 0 0 1 .959.958z" class="cls-1" data-name="Shape 2" transform="translate(-435.331 -2263.011)"/>
</svg>
