<svg xmlns="http://www.w3.org/2000/svg" width="34.996" height="49.115" viewBox="0 0 34.996 49.115">
    <defs>
        <style>
            .cls-1{fill:#fff}
        </style>
    </defs>
    <path id="Path_16" d="M13.773 13.823v2.22h7.844v-2.22h-7.844m15.49-4.085H6.107v2.22h23.156zm-3.779 29.53v-6.137h6.107zM0 0v42.7h4.815a1.125 1.125 0 0 0 0-2.25H2.21V2.22h30.576v29.411h-8.791v8.84h-2.881a1.125 1.125 0 0 0 0 2.25H25.2l9.8-9.846V0zm21.982 22.485V21h-8.593v1.49zm-2.3 13.625a6.624 6.624 0 0 0-3.443-5.8 6.49 6.49 0 0 0-3.108-.789A6.591 6.591 0 0 0 9.1 41.291l-3.2 5.544 2.8-.306 1.125 2.585 3.5-6.137 3.532 6.137 1.115-2.585 2.8.306-3.335-5.8a6.515 6.515 0 0 0 2.246-4.924zm5.042-18.065H10.636v1.49h14.089z" class="cls-1" data-name="Path 16"/>
</svg>
