<svg xmlns="http://www.w3.org/2000/svg" width="51.488" height="42.74" viewBox="0 0 51.488 42.74">
    <defs>
        <style>
            .cls-1{fill:#fff}
        </style>
    </defs>
    <path id="Path_32" d="M24.859 33.828a12.458 12.458 0 0 1-12.425-12.463.885.885 0 1 0-1.771 0 14.24 14.24 0 0 0 14.205 14.244.883.883 0 0 0 .885-.885.906.906 0 0 0-.9-.9m5.9 7.122l.76-2.675H48.37l.76 2.675zm1.2-13.348h15.984v8.9H31.961zm17.747 8.9V25.821H30.181V36.5L28.4 42.74h23.088zM2.358 15.139l.76-2.675H19.97l.76 2.675zM3.551 1.78h15.976v8.9H3.551zm17.756 8.9V0H1.771v10.683L0 16.919h23.078zm3.552-1.78a12.457 12.457 0 0 1 12.424 12.465.885.885 0 1 0 1.771 0A14.24 14.24 0 0 0 24.849 7.122a.89.89 0 1 0 .01 1.78z" class="cls-1" data-name="Path 32"/>
</svg>
