<svg xmlns="http://www.w3.org/2000/svg" width="37.337" height="39.912" viewBox="0 0 37.337 39.912">
    <defs>
        <style>
            .cls-1{fill:#fff}
        </style>
    </defs>
    <path id="Path_36" d="M35.793 35.4a2.918 2.918 0 0 1-2.9 2.909H9.853a4.43 4.43 0 0 0 1.069-2.909V10.542a2.009 2.009 0 0 1 .154-.8h5.568a2.4 2.4 0 0 0 2.386-2.4V1.757a2.933 2.933 0 0 1 .8-.154h15.132a.8.8 0 0 1 .8.8v33h.036M17.439 2.719v4.63a.8.8 0 0 1-.8.8h-4.601zM35 0H19.825a5.041 5.041 0 0 0-3.217 1.318l-.036.036-5.84 5.864a5.235 5.235 0 0 0-1.353 3.277v24.858a2.911 2.911 0 0 1-2.9 2.909H4.535a2.918 2.918 0 0 1-2.9-2.909V21.939a.8.8 0 0 1 .8-.8h5.4v-1.587H2.386A2.4 2.4 0 0 0 0 21.95V35.4a4.527 4.527 0 0 0 4.487 4.511h28.362a4.512 4.512 0 0 0 4.487-4.511v-33A2.327 2.327 0 0 0 35 0zm-2.377 34.677a.8.8 0 0 1-.8.8H14.9a.8.8 0 0 1 0-1.591h16.963a.766.766 0 0 1 .76.791zm0-5.461a.8.8 0 0 1-.8.8H14.9a.8.8 0 1 1 0-1.591h16.963a.766.766 0 0 1 .76.791zm0-5.425a.8.8 0 0 1-.8.8H14.9a.8.8 0 0 1 0-1.591h16.963a.759.759 0 0 1 .76.791zm0-5.473a.8.8 0 0 1-.8.8H14.9a.8.8 0 0 1 0-1.591h16.963a.766.766 0 0 1 .76.791zm0-5.461a.8.8 0 0 1-.8.8H14.9a.8.8 0 0 1 0-1.591h16.963a.759.759 0 0 1 .76.791zM29.56 5.508a1.032 1.032 0 0 1-.2-.641.869.869 0 0 1 .237-.641.951.951 0 0 1 .439-.19v1.793a1.249 1.249 0 0 1-.476-.321zm2.149 2.469a1.119 1.119 0 0 1-.273.8.987.987 0 0 1-.475.237V6.98a1.4 1.4 0 0 1 .558.356 1.14 1.14 0 0 1 .19.642zm.784-.76a1.412 1.412 0 0 0-.356-.558 2.263 2.263 0 0 0-.594-.4c-.119-.036-.321-.119-.594-.2V4.036c.2.036.321.119.321.154a.987.987 0 0 1 .2.4.482.482 0 0 0 .392.321h.119a.591.591 0 0 0 .356-.237.491.491 0 0 0 0-.321 1.746 1.746 0 0 0-.558-.8 1.9 1.9 0 0 0-.914-.4v-.2a.446.446 0 0 0-.439-.439.455.455 0 0 0-.439.475v.154a2.318 2.318 0 0 0-1 .4 1.838 1.838 0 0 0-.594 1.4 2.213 2.213 0 0 0 .2.878 1.582 1.582 0 0 0 .594.594 3.721 3.721 0 0 0 .8.321v2.286a.807.807 0 0 1-.475-.285 1.341 1.341 0 0 1-.237-.522.447.447 0 0 0-.558-.356.5.5 0 0 0-.321.2.48.48 0 0 0-.083.356 2.241 2.241 0 0 0 .3.689 1.659 1.659 0 0 0 .677.641 1.85 1.85 0 0 0 .76.237v.4a.439.439 0 0 0 .878 0v-.446a1.9 1.9 0 0 0 1.187-.594 1.985 1.985 0 0 0 .51-1.4 1.879 1.879 0 0 0-.133-.724z" class="cls-1" data-name="Path 36"/>
</svg>
