<svg xmlns="http://www.w3.org/2000/svg" width="34.771" height="43.323" viewBox="0 0 34.771 43.323">
    <defs>
        <style>
            .cls-1{fill:#fff}
        </style>
    </defs>
    <path id="Path_20" d="M30.91 12.2l-27.41.52-.135-8.58 27.369-.52.176 8.58m-.51 10.579c-.344 0-3.065.088-3.444.088a.3.3 0 0 1-.344-.344s-.088-3.118-.088-3.471a.336.336 0 0 1 .344-.344l3.321-.044s.388-.044.388.3c0 .3.088 3.471.088 3.471s.068.344-.265.344zm.123 7.884c-.344 0-3.065.088-3.444.088a.31.31 0 0 1-.344-.344s-.088-3.118-.088-3.471a.336.336 0 0 1 .344-.344l3.321-.044s.379-.044.379.3c0 .3.088 3.471.088 3.471s.087.344-.257.344zm.176 7.893c-.344 0-3.065.088-3.444.088a.3.3 0 0 1-.344-.344s-.088-3.118-.088-3.471a.336.336 0 0 1 .344-.344l3.321-.044s.388-.044.388.3c0 .3.088 3.471.088 3.471s.069.344-.264.344zM22.9 22.947c-.344 0-3.065.088-3.444.088a.31.31 0 0 1-.344-.344s-.088-3.118-.088-3.471.379-.344.379-.344l3.321-.044s.388-.044.388.3c0 .3.088 3.471.088 3.471a.305.305 0 0 1-.3.344zm.132 7.893c-.344 0-3.065.088-3.444.088a.31.31 0 0 1-.344-.344s-.088-3.118-.044-3.471a.336.336 0 0 1 .344-.344l3.321-.044s.379-.044.379.3c0 .3.088 3.471.088 3.471s.081.304-.297.343zm.167 7.849c-.344 0-3.065.088-3.444.088a.334.334 0 0 1-.344-.388s-.088-3.118-.044-3.471a.336.336 0 0 1 .344-.344l3.321-.044s.388-.044.388.3c0 .3.088 3.471.088 3.471s.037.387-.308.387zm-7.784-15.61c-.344 0-3.065.088-3.444.088a.31.31 0 0 1-.344-.344s-.088-3.118-.088-3.471a.336.336 0 0 1 .344-.344l3.321-.044s.379-.044.379.3c0 .3.088 3.471.088 3.471s.079.344-.256.344zm.123 7.893c-.344 0-3.065.088-3.444.088a.3.3 0 0 1-.344-.344s-.088-3.118-.088-3.471a.336.336 0 0 1 .344-.344l3.321-.044s.379-.044.379.3c0 .3.088 3.471.088 3.471a.239.239 0 0 1-.256.343zm.167 7.884c-.344 0-3.065.088-3.444.088a.31.31 0 0 1-.344-.344s-.088-3.118-.088-3.471a.336.336 0 0 1 .344-.344l3.321-.044s.388-.044.388.3c0 .3.088 3.471.088 3.471s.079.343-.264.343zM7.919 23.211c-.344 0-3.065.088-3.444.088a.31.31 0 0 1-.344-.344s-.088-3.118-.088-3.471a.329.329 0 0 1 .344-.344l3.32-.04s.379-.044.379.3c0 .3.088 3.471.088 3.471s.088.34-.255.34zm.167 7.884c-.344 0-3.065.088-3.444.088a.3.3 0 0 1-.344-.344s-.088-3.118-.088-3.471a.329.329 0 0 1 .344-.344l3.321-.044s.379-.044.379.3c0 .3.088 3.471.088 3.471s.088.344-.256.344zm.132 7.893c-.344 0-3.065.088-3.444.088a.31.31 0 0 1-.344-.344s-.088-3.118-.044-3.471a.336.336 0 0 1 .344-.344l3.321-.044s.388-.044.388.3c0 .3.088 3.471.088 3.471a.3.3 0 0 1-.309.343zM34.1 1.929c0-2.255-2.424-1.912-2.424-1.912L2.3.581S-.088.493 0 2.748s.555 36.327.722 38.494a2.128 2.128 0 0 0 2.211 2.079l29.412-.52a2.291 2.291 0 0 0 2.422-2.387c.01-2.73-.667-36.195-.667-38.485z" class="cls-1" data-name="Path 20" transform="translate(.003 .001)"/>
</svg>
