<svg xmlns="http://www.w3.org/2000/svg" width="36.429" height="42.121" viewBox="0 0 36.429 42.121">
    <defs>
        <style>
            .cls-1{fill:#fff}
        </style>
    </defs>
    <path id="Path_13" d="M19.441 18.825h11.165a.994.994 0 1 0 0-1.989H19.441a.988.988 0 0 0-.994.994.965.965 0 0 0 .994.994m9.877 1.7h-3.873a.672.672 0 1 0 0 1.345h3.873a.672.672 0 1 0 0-1.345zm-7.168 3.324h-2.709a.672.672 0 1 0 0 1.345h2.708a.672.672 0 0 0 0-1.345zm7.168 0h-3.873a.672.672 0 1 0 0 1.345h3.873a.672.672 0 1 0 0-1.345zm-7.168-3.324h-2.709a.672.672 0 1 0 0 1.345h2.708a.672.672 0 0 0 0-1.345zM34.412 40.1H2.008V2.008h32.4zM0 0v42.121h36.429V0zm19.441 30.871h11.165a.994.994 0 1 0 0-1.989H19.441a.988.988 0 0 0-.994.994.971.971 0 0 0 .994.995zm-6.856-19.034h-5.36V6.468h5.331v5.36h.028zm1.989-7.377H5.218v9.356h9.356zm-1.989 31.42h-5.36v-5.331h5.331v5.331zm1.989-7.348H5.218v9.356h9.356zm-1.989-9.64l-1.723 1.723-.994-1.023a1.011 1.011 0 0 0-1.43 1.43l2.415 2.415 1.723-1.723v2.131H7.225v-5.332h5.331v.379h.028zm1.989.814l2.216-2.216a1.011 1.011 0 0 0-1.43-1.43l-.814.814V16.5H5.218v9.356h9.356zM29.318 35.88h-3.873a.672.672 0 1 0 0 1.345h3.873a.672.672 0 1 0 0-1.345zm-7.169-24.043h-2.708a.672.672 0 1 0 0 1.345h2.708a.672.672 0 0 0 0-1.345zm0 24.043h-2.708a.672.672 0 1 0 0 1.345h2.708a.672.672 0 0 0 0-1.345zm7.168-3.324h-3.872a.672.672 0 1 0 0 1.345h3.873a.672.672 0 1 0 0-1.345zm-7.168 0h-2.708a.672.672 0 1 0 0 1.345h2.708a.672.672 0 0 0 0-1.345zm7.168-20.719h-3.872a.672.672 0 1 0 0 1.345h3.873a.672.672 0 1 0 0-1.345zm-7.168-3.352h-2.708a.672.672 0 0 0 0 1.345h2.708a.672.672 0 0 0 0-1.345zm-2.708-1.7h11.165a.994.994 0 1 0 0-1.989H19.441a.988.988 0 0 0-.994.994.965.965 0 0 0 .994 1zm9.877 1.7h-3.873a.672.672 0 0 0 0 1.345h3.873a.672.672 0 0 0 0-1.345z" class="cls-1" data-name="Path 13"/>
</svg>
