<svg xmlns="http://www.w3.org/2000/svg" width="38.825" height="47.414" viewBox="0 0 38.825 47.414">
    <defs>
        <style>
            .cls-1{fill:#fff}
        </style>
    </defs>
    <path id="Path_14" d="M22.313 46.579l15.178-10.773a2.771 2.771 0 0 0 1.328-2.418 2.688 2.688 0 0 0-1.619-2.181l-.907 1.706a1.1 1.1 0 0 1 .615.615 1.1 1.1 0 0 1-.518.712L21.169 45.014a3.459 3.459 0 0 1-3.562 0L2.429 34.241c-.335-.241-.529-.475-.529-.713 0-.194.237-.432.615-.615l-.9-1.716A2.743 2.743 0 0 0 0 33.377a2.871 2.871 0 0 0 1.328 2.418l15.177 10.773a5.4 5.4 0 0 0 5.808.011m0-7.7l15.178-10.77a2.771 2.771 0 0 0 1.328-2.418 2.674 2.674 0 0 0-1.619-2.18l-.907 1.706a1.1 1.1 0 0 1 .615.615 1.1 1.1 0 0 1-.518.712L21.169 37.317a3.459 3.459 0 0 1-3.562 0L2.429 26.6a1.087 1.087 0 0 1-.529-.712c0-.194.237-.432.615-.615l-.9-1.706A2.743 2.743 0 0 0 0 25.745a2.858 2.858 0 0 0 1.328 2.418l15.177 10.719a5.072 5.072 0 0 0 2.9.853 4.7 4.7 0 0 0 2.908-.853zm0-7.632l15.178-10.77a2.771 2.771 0 0 0 1.328-2.418 2.688 2.688 0 0 0-1.619-2.18l-.907 1.706a1.1 1.1 0 0 1 .615.615 1.1 1.1 0 0 1-.518.712L21.169 29.685a3.411 3.411 0 0 1-3.562 0L2.429 18.912c-.335-.237-.529-.475-.529-.712 0-.194.237-.432.615-.615l-.9-1.716A2.721 2.721 0 0 0 0 18.048a2.871 2.871 0 0 0 1.328 2.418L16.505 31.24a5.4 5.4 0 0 0 5.808.011zm-2.9-29.373a4.494 4.494 0 0 0-2.094.432L2.569 9.9a1.1 1.1 0 0 0-.615.615 1.087 1.087 0 0 0 .529.712L17.607 22a3.459 3.459 0 0 0 3.562 0l15.177-10.774a1.063 1.063 0 0 0 .518-.712c0-.194-.237-.432-.615-.615L21.5 2.3a4.606 4.606 0 0 0-2.091-.422zm0 22.583a4.976 4.976 0 0 1-2.9-.853L1.339 12.834A2.858 2.858 0 0 1 0 10.416a2.674 2.674 0 0 1 1.619-2.18L16.365.647a7.335 7.335 0 0 1 5.991 0L37.1 8.236a2.743 2.743 0 0 1 1.619 2.181 2.871 2.871 0 0 1-1.328 2.418L22.313 23.554a4.989 4.989 0 0 1-2.904.906z" class="cls-1" data-name="Path 14" transform="translate(.003 -.007)"/>
</svg>
