<svg xmlns="http://www.w3.org/2000/svg" width="45.671" height="37.154" viewBox="0 0 45.671 37.154">
    <defs>
        <style>
            .cls-1{fill:#fff}
        </style>
    </defs>
    <path id="Shape_3" d="M2314.947 2282.989h-12.317v1.581h12.317v-1.581m0-3.162h-12.317v1.581h12.317zm-3.149 6.324h-9.167v1.581h9.167zm5.511 22.135H2305.5v-3.252a4.848 4.848 0 0 0-4.852-4.833h-4.433l-1.574-3.226a8.659 8.659 0 0 0 4.482-6.442 2.747 2.747 0 0 0 1.654-2.528v-.548a2.758 2.758 0 0 0-1.575-2.49v-6.722a.789.789 0 0 0-.788-.791h-10.5a5.968 5.968 0 0 0-5.947 5.976v1.5a2.764 2.764 0 0 0-1.668 2.531v.548a2.759 2.759 0 0 0 1.752 2.565 8.67 8.67 0 0 0 4.141 6.219.726.726 0 0 0-.061.08l-1.625 3.332h-3.892a5.048 5.048 0 0 0-5.039 4.921v3.162h-.787v-33.992h42.521zm-19.049-21.974a1.168 1.168 0 0 1 .938 1.146v.548a1.16 1.16 0 0 1-.948 1.148.79.79 0 0 0-.645.722 7.039 7.039 0 0 1-14.043.013.79.79 0 0 0-.682-.726 1.167 1.167 0 0 1-1.005-1.158v-.548a1.168 1.168 0 0 1 .991-1.156.789.789 0 0 0 .677-.783v-2.088a4.387 4.387 0 0 1 4.372-4.395h9.709v6.5a.788.788 0 0 0 .636.777zm5.663 21.974h-26.772v-3.163a3.494 3.494 0 0 1 3.464-3.341H2285a.788.788 0 0 0 .708-.443l1.842-3.772a.7.7 0 0 0 .029-.11 8.441 8.441 0 0 0 5.61.138l1.828 3.744a.791.791 0 0 0 .708.443h4.924a3.268 3.268 0 0 1 3.277 3.251zm14.174-35.574H2274a.788.788 0 0 0-.788.79v35.573a.788.788 0 0 0 .788.79h44.1a.788.788 0 0 0 .788-.79V2273.5a.789.789 0 0 0-.788-.787z" class="cls-1" data-name="Shape 3" transform="translate(-2273.214 -2272.713)"/>
</svg>
