<svg xmlns="http://www.w3.org/2000/svg" width="41.833" height="30.958" viewBox="0 0 41.833 30.958">
    <defs>
        <style>
            .cls-1{fill:#fff}
        </style>
    </defs>
    <path id="Path_11" d="M19.662 19.547a1.4 1.4 0 0 1-.291-.854 1.376 1.376 0 0 1 .335-.889 1.112 1.112 0 0 1 .59-.255v2.413a1.439 1.439 0 0 1-.634-.414m2.888 3.346a1.279 1.279 0 0 1-1.048 1.4v-2.757a2 2 0 0 1 .757.467 1.6 1.6 0 0 1 .291.889zm1.05-1.022a2.315 2.315 0 0 0-.5-.766 3.45 3.45 0 0 0-.836-.555 6.015 6.015 0 0 0-.792-.255V17.54a1.463 1.463 0 0 1 .458.211 1.927 1.927 0 0 1 .291.511.625.625 0 0 0 .546.423h.123a.677.677 0 0 0 .5-.335.483.483 0 0 0 .044-.423 2.588 2.588 0 0 0-.713-1.057 2.484 2.484 0 0 0-1.221-.51v-.247a.625.625 0 1 0-1.25 0v.255a2.626 2.626 0 0 0-1.294.555 2.454 2.454 0 0 0-.836 1.911 2.355 2.355 0 0 0 .291 1.189 2.04 2.04 0 0 0 .792.8 3.493 3.493 0 0 0 1.048.423V24.3a1.551 1.551 0 0 1-.669-.379 1.841 1.841 0 0 1-.335-.722.6.6 0 0 0-.757-.467.808.808 0 0 0-.423.255.75.75 0 0 0-.079.467 4.17 4.17 0 0 0 .335.889 2.427 2.427 0 0 0 .881.845 3.014 3.014 0 0 0 1 .3v.59a.625.625 0 1 0 1.25 0v-.59a2.486 2.486 0 0 0 1.55-.8 2.77 2.77 0 0 0 .713-1.911 1.421 1.421 0 0 0-.117-.905zM1.673 7.458v-.5a.844.844 0 0 1 .836-.845h1.885L3.055 7.458h2.387L6.78 6.1h6.78V4.411H2.509a1.9 1.9 0 0 0-.836.167V2.545a.844.844 0 0 1 .836-.845h11.007V0H2.509A2.533 2.533 0 0 0 0 2.545v4.913zm34.762 0h2.386L37.483 6.1h1.84a.844.844 0 0 1 .836.845v.511h1.673V2.545A2.533 2.533 0 0 0 39.323 0H28.317v1.7h11.006a.844.844 0 0 1 .836.845v1.99a2.618 2.618 0 0 0-.836-.167H28.317v1.7H35.1zm-19.574 0V1.7h8.074v5.767h1.673V0H15.189v7.458zm0 21.792h8.074V10.936h-8.073zm9.791 1.7H15.189V9.245h11.42v21.7zM40.16 18.059L37.439 15.3h1.884a.844.844 0 0 1 .836.845zm0 10.346a.844.844 0 0 1-.836.845h-1.885l2.721-2.756zm-.836-19.16H28.317v1.7h11.006a.844.844 0 0 1 .836.845v1.99a2.618 2.618 0 0 0-.836-.167H28.317v1.7H35.1l5.063 5.133v3.645L35.1 29.259h-6.78v1.7h11.003a2.533 2.533 0 0 0 2.509-2.545V11.781a2.531 2.531 0 0 0-2.509-2.536zM2.509 29.25a.844.844 0 0 1-.836-.845v-1.911l2.721 2.756zm-.836-13.1a.844.844 0 0 1 .836-.845h1.885l-2.721 2.754zm11.843 13.1h-6.78l-5.063-5.124v-3.645l5.063-5.125h6.78v-1.708H2.509a1.9 1.9 0 0 0-.836.167v-1.99a.844.844 0 0 1 .836-.845h11.007v-1.7H2.509A2.533 2.533 0 0 0 0 11.825V28.4a2.533 2.533 0 0 0 2.509 2.545h11.007zm-2.809-7.59a.555.555 0 1 0 .546.555.534.534 0 0 0-.546-.555zm0 2.844a2.245 2.245 0 1 1 2.219-2.245 2.221 2.221 0 0 1-2.219 2.241zm20.419-2.844a.555.555 0 1 0 .546.555.562.562 0 0 0-.546-.555zm0 2.844a2.245 2.245 0 1 1 2.219-2.245 2.249 2.249 0 0 1-2.219 2.241z" class="cls-1" data-name="Path 11"/>
</svg>
