<svg xmlns="http://www.w3.org/2000/svg" width="40.829" height="40.829" viewBox="0 0 40.829 40.829">
    <defs>
        <style>
            .cls-1{fill:#fff}
        </style>
    </defs>
    <path id="Path_21" d="M40.829.529A.536.536 0 0 0 40.3 0h-4.043a.542.542 0 0 0-.529.529v.529a.536.536 0 0 0 .529.529h1.673L25.6 13.592a1.1 1.1 0 0 1-1.55-.044l-7.023-7.514a1.01 1.01 0 0 0-1.506 0L.37 21.476A1.033 1.033 0 0 0 .247 22.9a1.008 1.008 0 0 0 1.392-.2L15.477 8.571a1.045 1.045 0 0 1 1.506 0L24 16.085a1.1 1.1 0 0 0 1.55.044l10.05-9.76h.044l.247-.247 3.3-3.268v1.718a.542.542 0 0 0 .529.529h.529a.542.542 0 0 0 .529-.529V.529h.053M3.347 24.206a.823.823 0 0 0-.819.819v11.637a.819.819 0 0 0 1.638 0V25.026a.823.823 0 0 0-.819-.82zM37.481 7.884a.823.823 0 0 0-.819.819v28a.819.819 0 0 0 1.638 0V8.694a.822.822 0 0 0-.819-.81zm-4.29 4.281a.823.823 0 0 0-.819.819v23.678a.819.819 0 1 0 1.638 0V12.984a.823.823 0 0 0-.819-.819zm-4.246 4.448a.823.823 0 0 0-.819.819v19.23a.819.819 0 0 0 1.638 0V17.433a.823.823 0 0 0-.818-.82zm-3.47 4.167a.819.819 0 1 0-1.638 0v15.882a.819.819 0 0 0 1.638 0zm-5.065-4.572a.823.823 0 0 0-.819.819v19.679a.819.819 0 1 0 1.638 0V17.027a.823.823 0 0 0-.819-.819zm-4.246-4.977a.823.823 0 0 0-.819.819v24.62a.819.819 0 0 0 1.638 0V12.042a.816.816 0 0 0-.819-.811zm-4.281 3.955a.823.823 0 0 0-.819.819v20.657a.819.819 0 0 0 1.638 0V16.006a.829.829 0 0 0-.819-.82zM8.448 20.78a.819.819 0 1 0-1.638 0v15.882a.819.819 0 1 0 1.638 0zm32.381 19.23a.823.823 0 0 1-.819.819H.819a.819.819 0 0 1 0-1.638h39.19a.823.823 0 0 1 .82.818z" class="cls-1" data-name="Path 21"/>
</svg>
