<svg xmlns="http://www.w3.org/2000/svg" width="46.882" height="41.79" viewBox="0 0 46.882 41.79">
    <defs>
        <style>
            .cls-1{fill:#fff}
        </style>
    </defs>
    <path id="Path_34" d="M40.828 15.96H3.672L23.47 2.251l19.8 13.709h-2.44m-1.876 24.413h-9.383V27.8a1.571 1.571 0 0 0-1.741-1.5H19.1a1.618 1.618 0 0 0-1.786 1.5v12.573H7.987V17.846h30.967zm7.5-24.645L23.936.144a.932.932 0 0 0-.987 0L.378 15.827a1.185 1.185 0 0 0-.333 1.22c.089.333.421.8.8.8H6.1v23.946h13.133V28.172h8.441v13.62h13.132V17.846h5.213c.466 0 .843-.61.843-1.076a1.072 1.072 0 0 0-.41-1.043z" class="cls-1" data-name="Path 34" transform="translate(.006 -.002)"/>
</svg>
