<svg xmlns="http://www.w3.org/2000/svg" width="38.057" height="40.784" viewBox="0 0 38.057 40.784">
    <defs>
        <style>
            .cls-1{fill:#fff}
        </style>
    </defs>
    <path id="Path_26" d="M33.711 17.795l-8.264 1.417a.763.763 0 0 0-.062 1.491l5.331 1.392-3.243 3.678c-1.379-.112-5.99-.323-9.482 1.243a.779.779 0 0 0-.447.634.743.743 0 0 0 .336.7 12.529 12.529 0 0 0 5.033 1.864l-3.455 3.082c-.4.025-1.255.075-2.324.075-2.995 0-9.979-.373-9.979-3.84 0-5.319 7.034-11.88 13.334-14.415 5.468-2.212 12.3-9.68 14.862-12.65l1.081 5.393-4.932 2.865a.751.751 0 0 0-.36.82.738.738 0 0 0 .659.6c.087.012 1.926.2 4.523.236a18.02 18.02 0 0 1-2.61 5.418m3.479-6.934c-1.031 0-1.963-.025-2.759-.062l3.256-1.892a.742.742 0 0 0 .36-.808L36.545.621a.782.782 0 0 0-.559-.6.737.737 0 0 0-.77.261C35.128.4 26.3 11.122 19.942 13.694c-6.9 2.784-14.291 9.817-14.291 15.844A3.8 3.8 0 0 0 6.919 32.4L.234 39.119a.764.764 0 0 0 .534 1.3.743.743 0 0 0 .532-.219l6.872-6.909c1.939 1.056 4.971 1.615 8.972 1.615 1.566 0 2.659-.087 2.7-.1a.758.758 0 0 0 .447-.186l4.971-4.436a.763.763 0 0 0 .186-.845.784.784 0 0 0-.733-.5 12.3 12.3 0 0 1-4.548-.982 23.347 23.347 0 0 1 7.543-.534.793.793 0 0 0 .659-.249l4.312-4.9a.782.782 0 0 0 .162-.733.8.8 0 0 0-.534-.522l-3.109-.8 5.083-.87a.818.818 0 0 0 .5-.311c.124-.186 3.169-4.511 3.169-7.319a.769.769 0 0 0-.761-.758zm-4.859 28.4h-3.8a.764.764 0 0 0-.758.77.753.753 0 0 0 .758.758h3.8a.753.753 0 0 0 .758-.758.764.764 0 0 0-.758-.778zm-7.605 0H5.515a.764.764 0 0 0-.758.77.753.753 0 0 0 .758.758h19.212a.753.753 0 0 0 .758-.758.764.764 0 0 0-.758-.778z" class="cls-1" data-name="Path 26" transform="translate(-.01)"/>
</svg>
