<svg xmlns="http://www.w3.org/2000/svg" width="42.291" height="45.332" viewBox="0 0 42.291 45.332">
    <defs>
        <style>
            .cls-1{fill:#fff}
        </style>
    </defs>
    <path id="Path_38" d="M37.456 19.776l-9.183 1.58a.836.836 0 0 0-.7.8.844.844 0 0 0 .626.854l5.923 1.538-3.6 4.086c-1.523-.114-6.649-.356-10.536 1.381a.851.851 0 0 0-.128 1.481 13.883 13.883 0 0 0 5.6 2.079L21.61 37c-.441.028-1.4.071-2.591.071-3.332 0-11.091-.413-11.091-4.271 0-5.923 7.8-13.2 14.821-16.017 6.079-2.446 13.668-10.761 16.515-14.049l1.21 5.994-5.482 3.189a.852.852 0 0 0 .342 1.58c.1.014 2.136.228 5.026.271a20.347 20.347 0 0 1-2.9 6.008m3.858-7.7c-1.139 0-2.193-.028-3.061-.071L41.87 9.9a.862.862 0 0 0 .413-.911L40.6.683a.864.864 0 0 0-.626-.655.818.818 0 0 0-.854.285c-.1.114-9.909 12.045-16.971 14.893-7.66 3.1-15.875 10.906-15.875 17.6a4.2 4.2 0 0 0 1.41 3.175L.253 43.453a.854.854 0 0 0 .6 1.452.843.843 0 0 0 .6-.256l7.646-7.674c2.164 1.182 5.524 1.794 9.966 1.794 1.737 0 2.947-.1 3-.1a.829.829 0 0 0 .5-.214l5.524-4.94a.85.85 0 0 0 .2-.94.87.87 0 0 0-.812-.541 13.825 13.825 0 0 1-5.054-1.082 25.862 25.862 0 0 1 8.386-.6.839.839 0 0 0 .726-.285l4.8-5.439a.844.844 0 0 0 .171-.812.833.833 0 0 0-.6-.57l-3.446-.9 5.638-.968a.853.853 0 0 0 .541-.342c.142-.2 3.531-5.012 3.531-8.13a.854.854 0 0 0-.855-.833zm-5.4 31.551H31.69a.845.845 0 0 0-.84.854.854.854 0 0 0 .84.854h4.229a.845.845 0 0 0 .84-.854.827.827 0 0 0-.841-.857zm-8.443 0H6.119a.845.845 0 0 0-.84.854.854.854 0 0 0 .84.854h21.357a.845.845 0 0 0 .84-.854.836.836 0 0 0-.84-.857z" class="cls-1" data-name="Path 38" transform="translate(-.007)"/>
</svg>
