<svg xmlns="http://www.w3.org/2000/svg" width="31.838" height="38.948" viewBox="0 0 31.838 38.948">
    <defs>
        <style>
            .cls-1{fill:#fff}
        </style>
    </defs>
    <path id="Shape_5" d="M464.973 2925.052a2.776 2.776 0 1 1 2.206-3.237 2.771 2.771 0 0 1-2.206 3.237m-4.836-13.258a.875.875 0 0 1-1.006-.7l-3.057-16.884a.882.882 0 0 1 .7-1.014l4.643-.858a.875.875 0 0 1 1.006.7l3.056 16.884a.88.88 0 0 1-.7 1.013zm-10.718-1.248a.878.878 0 0 1-.89.9h-4.72a.9.9 0 0 1-.89-.9v-17.157a.879.879 0 0 1 .89-.9h4.72a.879.879 0 0 1 .89.9zm-3.25 14.778a2.769 2.769 0 1 1 2.747-2.768 2.744 2.744 0 0 1-2.747 2.768zm25.3-.74l-6.113-33.769a1.712 1.712 0 0 0-2.051-1.4l-9.325 1.716a1.746 1.746 0 0 0-1.354 1.17v-.585a1.74 1.74 0 0 0-1.74-1.755h-9.48a1.74 1.74 0 0 0-1.741 1.755v34.314a1.74 1.74 0 0 0 1.741 1.754h9.48a1.74 1.74 0 0 0 1.74-1.754v-32.481l6.037 33.34a1.73 1.73 0 0 0 2.05 1.4l9.324-1.715a1.675 1.675 0 0 0 1.437-1.99z" class="cls-1" data-name="Shape 5" transform="translate(-439.669 -2889.376)"/>
</svg>
