<svg xmlns="http://www.w3.org/2000/svg" width="29.897" height="24.198" viewBox="0 0 29.897 24.198">
    <defs>
        <style>
            .cls-1{fill:#fff}
        </style>
    </defs>
    <path id="Path_25" d="M23.439 12.7c-1.647 0-2.361 1.867-2.361 4.219-.035 2.431.8 4.219 2.387 4.219 1.55 0 2.334-1.577 2.334-4.219 0-2.378-.625-4.219-2.334-4.219h-.026m.141-2.995c4.008 0 6.307 2.942 6.307 6.95 0 4.9-3.109 7.452-6.518 7.452-3.559 0-6.369-2.669-6.43-7.065 0-4.184 2.572-7.329 6.607-7.329h.035zM6.667 24.2L20.206.026h2.933L9.627 24.2zM6.456 3C4.87 3 4.095 4.867 4.095 7.246c0 2.431.837 4.219 2.422 4.219 1.55 0 2.334-1.577 2.334-4.246C8.851 4.841 8.19 3 6.49 3h-.034zm.176-3c4.034 0 6.307 2.942 6.307 6.95 0 4.9-3.109 7.479-6.518 7.479-3.62 0-6.43-2.7-6.43-7.1C0 3.18 2.571 0 6.605 0z" class="cls-1" data-name="Path 25" transform="translate(.01)"/>
</svg>
