<svg xmlns="http://www.w3.org/2000/svg" width="41.448" height="38.088" viewBox="0 0 41.448 38.088">
    <defs>
        <style>
            .cls-1{fill:#fff}
        </style>
    </defs>
    <path id="Path_27" d="M20.73 26.88a8.8 8.8 0 0 1-8.881-8.715 8.882 8.882 0 1 1 8.881 8.715m1.484 5.82H1.484V1.448h20.73V8.1a10.148 10.148 0 0 0-1.484-.119 10.384 10.384 0 0 0-6.388 2.185H5.188v1.448h7.622a10.187 10.187 0 0 0-2.01 3.631H5.188v1.448h5.3a9.514 9.514 0 0 0 .321 4.357H5.188v1.45h6.2a10.222 10.222 0 0 0 2.956 3.633H5.188v1.448h11.719a10.476 10.476 0 0 0 3.823.724 10.282 10.282 0 0 0 1.484-.119zm6.542-8.1a10.053 10.053 0 0 0 2.351-6.435A10.233 10.233 0 0 0 23.7 8.418V.724A.73.73 0 0 0 22.962 0H.736A.73.73 0 0 0 0 .724V33.41a.73.73 0 0 0 .736.724H22.95a.722.722 0 0 0 .736-.724V27.9a10.5 10.5 0 0 0 4.037-2.256L40.4 38.088l1.045-1.033zM20.9 13.8a1.84 1.84 0 0 1 1.852 1.817.736.736 0 0 0 1.472 0 3.291 3.291 0 0 0-2.683-3.206v-.784a.736.736 0 0 0-1.472 0v.843a3.258 3.258 0 0 0 .843 6.423 1.817 1.817 0 1 1-1.852 1.817.736.736 0 0 0-1.472 0 3.277 3.277 0 0 0 2.512 3.154c0 .036-.024.071-.024.107v.729a.736.736 0 0 0 1.472 0v-.724c0-.024-.012-.036-.012-.059a3.26 3.26 0 0 0-.641-6.471 1.823 1.823 0 1 1 0-3.645zm-2.39-8.718H5.188V6.53h13.334V5.082z" class="cls-1" data-name="Path 27"/>
</svg>
