<?xml version="1.0" standalone="no"?>
<!DOCTYPE svg PUBLIC "-//W3C//DTD SVG 1.1//EN" "http://www.w3.org/Graphics/SVG/1.1/DTD/svg11.dtd" >
<svg xmlns="http://www.w3.org/2000/svg" xmlns:xlink="http://www.w3.org/1999/xlink" version="1.1">
<metadata>
Created by FontForge 20170731 at Tue Dec 12 17:12:31 2017
 By Aleksey,,,
</metadata>
<defs>
<font id="PoppinsVN-300i" horiz-adv-x="674" >
  <font-face 
    font-family="PoppinsVN 300i"
    font-weight="400"
    font-style="italic"
    font-stretch="normal"
    units-per-em="1000"
    panose-1="0 0 5 0 0 0 0 0 0 0"
    ascent="800"
    descent="-200"
    x-height="546"
    cap-height="705"
    bbox="-432 -267 1108 1114"
    underline-thickness="50"
    underline-position="-150"
    slope="-10"
    unicode-range="U+000D-FB02"
  />
<missing-glyph horiz-adv-x="499" 
d="M409 -258h-316v998h316v-998zM168 673v-33h65v-37h-66v-33h165v33h-66v37h66v33h-164zM167 544v-103h165v34h-66v69h-99zM233 475h-33v35h33v-35zM167 414v-33h66v-37h-66v-33h99v70h66v33h-165zM299 354v-66h-132v-34h165v100h-33zM233 232v-56h33v23h33v-47h-99v80h-33
v-113h165v113h-99zM167 59v-112h165v112h-165zM299 -20h-99v46h99v-46zM167 -76v-33h70l-70 -47v-33h165v33h-101l69 47h32v33h-165z" />
    <glyph glyph-name=".notdef" horiz-adv-x="499" 
d="M409 -258h-316v998h316v-998zM168 673v-33h65v-37h-66v-33h165v33h-66v37h66v33h-164zM167 544v-103h165v34h-66v69h-99zM233 475h-33v35h33v-35zM167 414v-33h66v-37h-66v-33h99v70h66v33h-165zM299 354v-66h-132v-34h165v100h-33zM233 232v-56h33v23h33v-47h-99v80h-33
v-113h165v113h-99zM167 59v-112h165v112h-165zM299 -20h-99v46h99v-46zM167 -76v-33h70l-70 -47v-33h165v33h-101l69 47h32v33h-165z" />
    <glyph glyph-name=".null" horiz-adv-x="0" 
 />
    <glyph glyph-name=".null" horiz-adv-x="0" 
 />
    <glyph glyph-name="nonmarkingreturn" unicode="&#xd;" horiz-adv-x="250" 
 />
    <glyph glyph-name="space" unicode=" " horiz-adv-x="260" 
 />
    <glyph glyph-name="exclam" unicode="!" horiz-adv-x="277" 
d="M242 717l-103 -521h-56l81 521h78zM140 90l-16 -90h-92l16 90h92z" />
    <glyph glyph-name="quotedbl" unicode="&#x22;" horiz-adv-x="270" 
d="M125 796l-42 -193h-49l24 193h67zM245 796l-42 -193h-49l24 193h67z" />
    <glyph glyph-name="numbersign" unicode="#" horiz-adv-x="791" 
d="M611 454l-67 -173h144l-11 -64h-158l-85 -217h-66l84 217h-223l-84 -217h-66l84 217h-157l11 64h171l68 173h-154l11 64h168l86 222h66l-86 -222h223l86 222h67l-87 -222h148l-11 -64h-162zM545 454h-223l-68 -173h223z" />
    <glyph glyph-name="dollar" unicode="$" horiz-adv-x="568" 
d="M459 542q-1 17 -7 35.5t-18.5 34.5t-33 28t-50.5 16l-48 -269q37 -12 74 -25.5t64 -36t40.5 -57.5t4.5 -89q-6 -34 -24.5 -67.5t-49 -59.5t-74 -42.5t-100.5 -16.5h-4l-14 -80h-28l14 81q-45 4 -80 20.5t-58.5 42t-34 58t-7.5 69.5h74q-1 -19 4.5 -40.5t19 -40.5t36 -33
t56.5 -19l50 280q-37 12 -73.5 25t-63.5 35t-40 56t-4 86q7 39 27.5 72t52.5 57t74.5 37.5t92.5 13.5h2l15 87h27l-16 -88q47 -4 80 -19t54 -38.5t31 -52.5t9 -60h-74zM323 658h-2q-64 0 -108 -31t-54 -91q-6 -32 1.5 -54.5t24 -38.5t40.5 -27.5t51 -20.5zM410 178
q6 33 -1.5 56t-24.5 39.5t-41 28t-52 20.5l-48 -273h3q36 0 64 10t49 27.5t34 41t17 50.5z" />
    <glyph glyph-name="percent" unicode="%" horiz-adv-x="621" 
d="M239 714q60 0 93 -38.5t22 -103.5q-6 -32 -21 -58.5t-37 -45t-49.5 -28.5t-57.5 -10t-54 10t-39.5 28.5t-21.5 45t0 58.5t21 58.5t37 45t49.5 28.5t57.5 10zM613 706l-535 -706h-70l535 706h70zM125 572q-8 -43 12 -69.5t60 -26.5t69 26.5t37 69.5q8 42 -12 69t-60 27
t-69 -27t-37 -69zM432 276q61 0 93.5 -38.5t21.5 -103.5q-6 -32 -21 -58.5t-37 -45t-49.5 -29t-57.5 -10.5q-60 0 -93 39t-22 104q6 32 21 58.5t37 45t49.5 28.5t57.5 10zM318 134q-8 -43 12 -70t60 -27t69 27t37 70q8 42 -12 69t-60 27t-69 -27t-37 -69z" />
    <glyph glyph-name="ampersand" unicode="&#x26;" horiz-adv-x="679" 
d="M536 0l-142 195q0 -12 -3 -24t-9 -28q-9 -33 -28.5 -60.5t-46 -47.5t-59 -31t-68.5 -11q-44 0 -79.5 14.5t-58.5 41.5t-32 65t-1 86q9 48 30 85t49.5 62t63 38t70.5 13q21 0 39 -5l-16 24q-20 29 -33.5 61t-4.5 81q5 29 20.5 56.5t41 49t60 34.5t77.5 13q46 0 76.5 -13
t48.5 -35t24 -50t4 -57q0 -26 -6 -50h-67q5 17 6 29q9 55 -16 86t-79 31q-53 0 -85 -30.5t-40 -69.5q-7 -38 4 -63.5t29 -51.5l304 -438h-73zM353 191q6 33 -2.5 60.5t-26.5 48t-43.5 31.5t-53.5 11q-55 0 -99 -34.5t-56 -105.5q-6 -36 1 -63.5t23.5 -46t41.5 -28.5t54 -10
q30 0 57 10t48.5 28.5t36 43.5t19.5 55z" />
    <glyph glyph-name="quotesingle" unicode="'" horiz-adv-x="156" 
d="M131 796l-45 -193h-49l21 193h73z" />
    <glyph glyph-name="parenleft" unicode="(" horiz-adv-x="375" 
d="M49 403q18 101 53.5 189t83.5 162t106.5 133t121.5 102h68l-1 -8q-155 -109 -244 -255t-120 -323t6.5 -323.5t153.5 -255.5l-1 -7h-69q-48 43 -85 102t-59.5 132.5t-27 161.5t13.5 190z" />
    <glyph glyph-name="parenright" unicode=")" horiz-adv-x="376" 
d="M327 403q-18 -102 -53.5 -190t-84 -161.5t-106.5 -132.5t-121 -102h-69l1 7q155 109 244.5 255.5t120.5 323.5t-7 323t-153 255l1 8h68q48 -43 85.5 -102t60 -132.5t27 -161.5t-13.5 -190z" />
    <glyph glyph-name="asterisk" unicode="*" horiz-adv-x="462" 
d="M399 667l24 -64l-158 -57l139 -56l-47 -64l-108 92l-9 -158h-73l44 158l-144 -95l-26 66l157 57l-136 58l48 65l110 -93l12 156h73l-46 -156z" />
    <glyph glyph-name="plus" unicode="+" horiz-adv-x="580" 
d="M539 338h-221l-39 -223h-69l39 223h-220l12 64h220l39 223h68l-39 -223h221z" />
    <glyph glyph-name="comma" unicode="," horiz-adv-x="159" 
d="M108 56q3 -36 -2.5 -67.5t-19.5 -55t-36.5 -37t-54.5 -13.5l6 33q47 0 56 55l2 8h-45l13 77h81z" />
    <glyph glyph-name="hyphen" unicode="-" horiz-adv-x="477" 
d="M457 400l-10 -59h-390l11 59h389z" />
    <glyph glyph-name="period" unicode="." horiz-adv-x="154" 
d="M131 90l-16 -90h-93l16 90h93z" />
    <glyph glyph-name="slash" unicode="/" horiz-adv-x="369" 
d="M455 940l-471 -1107h-68l469 1107h70z" />
    <glyph glyph-name="zero" unicode="0" horiz-adv-x="584" 
d="M61 356q14 77 36 142.5t58 113.5t87.5 75t124.5 27q72 0 114.5 -27t61.5 -75t18.5 -113.5t-14.5 -142.5q-13 -77 -36 -143t-59 -114t-88 -75.5t-124 -27.5q-73 0 -115 27.5t-60.5 75.5t-17.5 114t14 143zM477 356q11 62 14 115.5t-8.5 92.5t-41.5 61.5t-86 22.5
q-55 0 -93.5 -22.5t-64 -61.5t-41 -92.5t-26.5 -115.5t-14 -116t8.5 -93.5t42 -62t85.5 -22.5q56 0 94 22.5t63.5 62t41 93.5t26.5 116z" />
    <glyph glyph-name="one" unicode="1" horiz-adv-x="269" 
d="M64 640l12 65h179l-124 -705h-73l112 640h-106z" />
    <glyph glyph-name="two" unicode="2" horiz-adv-x="559" 
d="M-7 53q91 54 172 110.5t144 112.5t103.5 111.5t49.5 106.5q6 32 3.5 61.5t-16.5 51.5t-41 35t-71 13q-79 0 -126.5 -47.5t-63.5 -132.5h-68q11 61 36 106t61 75t80 44.5t93 14.5q48 0 86.5 -13t64 -40t35 -68t-0.5 -97q-11 -64 -57.5 -127t-110 -120.5t-136 -106
t-135.5 -82.5h379l-10 -58h-480z" />
    <glyph glyph-name="three" unicode="3" horiz-adv-x="555" 
d="M359 720q52 0 89.5 -15t60.5 -40.5t31 -60.5t1 -75q-5 -29 -19 -55.5t-37.5 -47.5t-56 -35t-75.5 -18l-1 -6q35 -9 64 -25t48.5 -40.5t27 -58t-0.5 -78.5q-6 -36 -24 -67.5t-47.5 -54.5t-71 -36.5t-94.5 -13.5q-114 0 -175 55.5t-56 161.5h69q-1 -34 8 -62.5t29 -49.5
t52.5 -32.5t78.5 -11.5q72 0 113 34t50 85q14 81 -37 123t-154 42h-22l11 59h22q204 0 228 127q11 61 -21 99t-103 38q-30 0 -60.5 -8.5t-56.5 -26.5t-45.5 -46t-28.5 -67h-69q20 97 92.5 152t179.5 55z" />
    <glyph glyph-name="four" unicode="4" horiz-adv-x="584" 
d="M-4 170l10 58l457 480h74l-84 -476h110l-11 -62h-109l-30 -170h-71l30 170h-376zM456 621l-375 -389h306z" />
    <glyph glyph-name="five" unicode="5" horiz-adv-x="594" 
d="M568 649h-374l-46 -261q32 35 85.5 57.5t113.5 22.5t99.5 -20t61 -54t26.5 -78t-4 -91q-8 -47 -29 -88.5t-54.5 -73t-80 -50t-105.5 -18.5q-110 0 -168 55.5t-51 152.5h69q1 -71 43 -108.5t115 -37.5q42 0 75 13t57 35.5t39.5 53.5t21.5 67q15 86 -21 135.5t-119 49.5
q-52 0 -103 -24t-81 -66h-67l69 390h439z" />
    <glyph glyph-name="six" unicode="6" horiz-adv-x="598" 
d="M498 519q-2 63 -32 103t-102 40q-46 0 -85 -18.5t-69 -59t-52 -104.5t-34 -155q13 33 36 59.5t54 45t67 28.5t74 10q108 0 156.5 -64t28.5 -179q-8 -46 -28.5 -88t-54.5 -74t-81 -51t-108 -19q-82 0 -129 29t-68 78.5t-20.5 114t12.5 134.5q15 87 40 156t62.5 117t89 73
t120.5 25q54 0 90.5 -16t58.5 -43.5t31.5 -64t9.5 -77.5h-67zM118 245q-6 -36 -2 -70t22 -61t51 -43.5t83 -16.5q77 0 132 45t69 127q16 93 -23 139.5t-118 46.5q-33 0 -67.5 -10t-64.5 -30.5t-52 -52t-30 -74.5z" />
    <glyph glyph-name="seven" unicode="7" horiz-adv-x="472" 
d="M510 653l-386 -653h-74l388 646h-389l11 61h459z" />
    <glyph glyph-name="eight" unicode="8" horiz-adv-x="613" 
d="M105 547q6 37 27.5 69t56.5 55.5t82 37t104 13.5q58 0 100 -15t68 -41t35.5 -62t1.5 -77q-10 -55 -50 -96t-115 -59q72 -19 105.5 -69.5t19.5 -127.5q-17 -94 -95.5 -145.5t-200.5 -51.5q-58 0 -103 15t-74 43.5t-40 69.5t-2 93q12 68 61.5 112t125.5 61q-69 19 -93.5 66
t-13.5 109zM173 535q-13 -69 27 -106t117 -37t129 32.5t63 95.5q13 71 -28.5 107.5t-115.5 36.5q-75 0 -128 -33t-64 -96zM94 200q-14 -78 30.5 -120.5t129.5 -42.5q86 0 144.5 38t71.5 110q7 42 -3 71.5t-32.5 48.5t-55.5 28t-71 9t-73.5 -8t-65 -25.5t-49.5 -44t-26 -64.5
z" />
    <glyph glyph-name="nine" unicode="9" horiz-adv-x="602" 
d="M116 194q-2 -67 28.5 -105.5t99.5 -38.5q48 0 87.5 18.5t71 59t54 104.5t34.5 155q-13 -33 -36.5 -59.5t-54.5 -45t-67 -28.5t-74 -10q-108 0 -156 64t-28 179q8 46 28.5 88t54.5 74t82 51t109 19q83 0 130 -29t67 -78t19 -113.5t-13 -135.5q-15 -85 -39.5 -153.5
t-62 -117t-90 -74.5t-124.5 -26q-52 0 -88 16t-58.5 43t-32 64t-7.5 79h66zM497 468q6 36 1.5 70t-22.5 60.5t-51 43t-83 16.5q-76 0 -131 -45t-70 -129q-16 -91 23 -137.5t119 -46.5q33 0 67.5 10t64.5 31t52 52.5t30 74.5z" />
    <glyph glyph-name="colon" unicode=":" horiz-adv-x="168" 
d="M178 528l-16 -90h-93l16 90h93zM101 90l-16 -90h-93l16 90h93z" />
    <glyph glyph-name="semicolon" unicode=";" horiz-adv-x="213" 
d="M211 527l-16 -90h-93l16 90h93zM111 56q3 -36 -2.5 -67.5t-19.5 -55t-36.5 -37t-54.5 -13.5l6 33q47 0 56 55l2 8h-45l13 77h81z" />
    <glyph glyph-name="less" unicode="&#x3c;" horiz-adv-x="410" 
d="M246 139l-211 231l293 233h88l-293 -233l211 -231h-88z" />
    <glyph glyph-name="equal" unicode="=" horiz-adv-x="580" 
d="M568 504l-11 -64h-510l11 64h510zM532 301l-11 -64h-509l11 64h509z" />
    <glyph glyph-name="greater" unicode="&#x3e;" horiz-adv-x="410" 
d="M76 603h88l211 -233l-293 -231h-88l293 231z" />
    <glyph glyph-name="question" unicode="?" horiz-adv-x="496" 
d="M309 727q49 0 86.5 -14.5t61 -42.5t32.5 -67t1 -89q-9 -55 -35.5 -93.5t-65 -62.5t-86.5 -34.5t-101 -11.5l-22 -126h-67l31 175h33q38 0 77.5 5.5t73.5 22t59 46t33 78.5q14 73 -20.5 114t-103.5 41q-72 0 -113.5 -38t-58.5 -101h-67q20 91 84.5 144.5t167.5 53.5z
M177 90l-16 -90h-92l16 90h92z" />
    <glyph glyph-name="at" unicode="@" horiz-adv-x="1106" 
d="M689 780q114 0 195 -32.5t129.5 -91.5t64 -141.5t-2.5 -181.5q-13 -74 -42.5 -137t-69 -109t-86 -72t-93.5 -26q-27 0 -48.5 7t-34 23t-14.5 42.5t10 66.5q-46 -64 -106.5 -101.5t-138.5 -37.5q-49 0 -86 18.5t-59.5 52.5t-29 81.5t5.5 104.5q14 68 47 125t79 98
t102 64.5t115 23.5q64 0 107 -22.5t65 -60.5t23.5 -88.5t-17.5 -107.5l-49 -144q-16 -49 -2 -66t46 -17q31 0 62.5 19t59 55t49.5 88t34 118q15 87 3 158.5t-53 123t-111.5 80t-172.5 28.5q-113 0 -207.5 -38t-166.5 -104t-119 -155.5t-65 -191.5q-19 -107 -2 -186
t64.5 -131.5t124 -79t176.5 -27.5l-23 -59q-114 2 -200 33t-139.5 91.5t-72.5 150t2 208.5q20 114 76 213.5t140.5 174t194 117.5t236.5 43zM483 51q44 0 86 18t77 51t61 80.5t37 106.5q8 41 5 75t-19.5 59t-47 39t-77.5 14q-45 0 -86.5 -18t-75.5 -51t-57.5 -78.5
t-34.5 -99.5q-8 -42 -3.5 -78t21.5 -62t45.5 -41t68.5 -15z" />
    <glyph glyph-name="A" unicode="A" horiz-adv-x="644" 
d="M452 172h-321l-94 -172h-75l382 689h79l138 -689h-76zM442 228l-73 382l-208 -382h281z" />
    <glyph glyph-name="B" unicode="B" horiz-adv-x="591" 
d="M563 530q-6 -36 -21.5 -64.5t-37.5 -48.5t-48 -33t-55 -19q64 -13 96.5 -61t21.5 -114q-7 -41 -27.5 -75.5t-53 -60t-78 -40t-102.5 -14.5h-244l124 705h242q110 0 153.5 -49t29.5 -126zM489 519q10 56 -20.5 91.5t-112.5 35.5h-158l-45 -256h163q75 0 118.5 34.5
t54.5 94.5zM448 198q11 64 -26.5 101.5t-117.5 37.5h-160l-49 -277h162q80 0 130 36t61 102z" />
    <glyph glyph-name="C" unicode="C" horiz-adv-x="765" 
d="M449 712q65 0 115.5 -16.5t86 -47t56.5 -73t28 -94.5h-73q-14 73 -70 119.5t-155 46.5q-55 0 -106 -20.5t-93 -58.5t-72 -92.5t-42 -123.5q-12 -68 -1.5 -122.5t39 -92.5t72.5 -58.5t99 -20.5q100 0 171.5 47t111.5 119h74q-25 -52 -61.5 -94.5t-82.5 -73t-102 -47
t-121 -16.5q-74 0 -131 26.5t-92.5 74t-48.5 113.5t1 145q14 80 50 146t88.5 113.5t118.5 74t140 26.5z" />
    <glyph glyph-name="D" unicode="D" horiz-adv-x="712" 
d="M660 353q-14 -81 -50 -146.5t-91 -111.5t-128.5 -70.5t-163.5 -24.5h-213l124 705h213q90 0 155 -24.5t104 -70t51.5 -110.5t-1.5 -147zM233 63q151 0 241.5 77.5t114.5 212.5q23 135 -40 212.5t-214 77.5h-137l-102 -580h137z" />
    <glyph glyph-name="E" unicode="E" horiz-adv-x="498" 
d="M199 648l-47 -266h275l-9 -55h-276l-47 -269h305l-10 -58h-376l124 705h376l-10 -57h-305z" />
    <glyph glyph-name="F" unicode="F" horiz-adv-x="496" 
d="M521 705l-10 -57h-312l-48 -269h271l-10 -55h-270l-57 -324h-71l124 705h383z" />
    <glyph glyph-name="G" unicode="G" horiz-adv-x="782" 
d="M457 711q61 0 109.5 -16.5t83.5 -45.5t56.5 -70t28.5 -91h-73q-7 34 -24.5 63t-45 50.5t-64.5 33.5t-82 12q-57 0 -110 -20.5t-95.5 -58.5t-73 -92.5t-42.5 -123.5q-12 -70 -1 -125t41 -93t77 -58.5t106 -20.5q53 0 103 18t92 52t73.5 83t46.5 111h-293l10 53h353
l-11 -62q-16 -69 -52 -127t-86.5 -100.5t-114.5 -66t-138 -23.5q-76 0 -134 26.5t-95 74.5t-50 114.5t1 146.5q14 78 50 143.5t89.5 113t121 73.5t143.5 26z" />
    <glyph glyph-name="H" unicode="H" horiz-adv-x="676" 
d="M661 705l-124 -705h-70l59 334h-382l-59 -334h-71l124 705h71l-55 -313h382l55 313h70z" />
    <glyph glyph-name="I" unicode="I" horiz-adv-x="223" 
d="M209 705l-124 -705h-71l124 705h71z" />
    <glyph glyph-name="J" unicode="J" horiz-adv-x="467" 
d="M458 705l-94 -535q-14 -79 -69 -128t-140 -49q-91 0 -132.5 54t-24.5 151h70q-5 -30 -3 -55.5t13 -44.5t31.5 -30t53.5 -11q32 0 55 10t38.5 26t24.5 36t13 41l94 535h70z" />
    <glyph glyph-name="K" unicode="K" horiz-adv-x="559" 
d="M210 354l270 -354h-87l-250 331l-58 -331h-71l124 705h71l-58 -330l366 330h87z" />
    <glyph glyph-name="L" unicode="L" horiz-adv-x="423" 
d="M94 56h256l-9 -56h-327l124 705h71z" />
    <glyph glyph-name="M" unicode="M" horiz-adv-x="836" 
d="M820 690l-121 -690h-71l102 578l-341 -578h-63l-138 576l-102 -576h-70l121 690h83l154 -604l363 604h83z" />
    <glyph glyph-name="N" unicode="N" horiz-adv-x="680" 
d="M542 0h-71l-283 589l-103 -589h-71l124 704h71l282 -590l104 590h71z" />
    <glyph glyph-name="O" unicode="O" horiz-adv-x="787" 
d="M450 713q77 0 136.5 -27.5t97 -76.5t51 -117t-0.5 -149q-13 -77 -49 -141.5t-88 -111t-118 -72.5t-141 -26q-78 0 -137.5 27.5t-97 76.5t-51 117t0.5 150q14 77 49.5 141t87.5 110.5t118.5 72.5t141.5 26zM443 648q-57 0 -109.5 -20t-95.5 -58t-73 -92.5t-42 -122.5
q-12 -69 -1 -124t41 -93.5t76.5 -59t104.5 -20.5q57 0 110 20t95.5 58t73 92t42.5 122q12 69 1 124.5t-41 94t-76.5 59t-105.5 20.5z" />
    <glyph glyph-name="P" unicode="P" horiz-adv-x="558" 
d="M136 294l-51 -294h-71l124 705h211q62 0 104 -15t66 -42t31 -65t-1 -84q-17 -98 -86.5 -151.5t-185.5 -53.5h-141zM281 354q95 0 140 39.5t57 105.5q12 68 -19.5 107.5t-125.5 39.5h-135l-51 -292h134z" />
    <glyph glyph-name="Q" unicode="Q" horiz-adv-x="787" 
d="M735 343q-19 -108 -79 -189.5t-148 -123.5l159 -171h-92l-131 147q-51 -14 -105 -14q-78 0 -137.5 27.5t-97 76.5t-51 117t0.5 150q14 77 49.5 141t87.5 110.5t118.5 72.5t141.5 26q77 0 136.5 -27.5t97 -76.5t51 -117t-0.5 -149zM345 58q57 0 110 20t95.5 58t73 92
t42.5 122q12 69 1 124.5t-41 94t-76.5 59t-105.5 20.5q-57 0 -109.5 -20t-95.5 -58t-73 -92.5t-42 -122.5q-12 -69 -1 -124t41 -93.5t76.5 -59t104.5 -20.5z" />
    <glyph glyph-name="R" unicode="R" horiz-adv-x="569" 
d="M354 705q62 0 104 -15.5t66 -43t31 -65.5t-1 -83q-16 -88 -74 -140t-155 -62l147 -296h-80l-142 294h-114l-51 -294h-71l124 705h216zM482 494q12 68 -19.5 109t-123.5 41h-141l-52 -297h140q93 0 138.5 40.5t57.5 106.5z" />
    <glyph glyph-name="S" unicode="S" horiz-adv-x="557" 
d="M475 164q-5 -31 -22 -62t-45.5 -55t-69 -39t-93.5 -15q-55 0 -96.5 16t-69.5 42t-41.5 61t-12.5 72h74q-1 -21 6 -45t24.5 -43.5t46.5 -32.5t72 -13q66 0 105 35t48 85q10 59 -13 91t-62.5 51.5t-87 34.5t-86 38.5t-59.5 63t-9 109.5q6 34 24.5 62.5t48 49t68.5 32
t86 11.5q55 0 94.5 -14.5t65 -38.5t38.5 -55t14 -63h-74q-1 18 -8 38.5t-23.5 37.5t-43.5 28t-66 11q-57 0 -98.5 -27t-50.5 -79q-10 -56 13.5 -86.5t62.5 -49.5t86.5 -33.5t85.5 -38.5t59.5 -65.5t8.5 -113.5z" />
    <glyph glyph-name="T" unicode="T" horiz-adv-x="507" 
d="M551 705l-10 -57h-201l-114 -648h-70l114 648h-201l11 57h471z" />
    <glyph glyph-name="U" unicode="U" horiz-adv-x="652" 
d="M205 705l-76 -427q-10 -59 -4 -100.5t26 -68t52 -38.5t73 -12t76.5 12t64.5 38.5t49.5 68t30.5 100.5l76 427h70l-76 -427q-13 -74 -41 -128t-68 -89t-89.5 -51.5t-105.5 -16.5q-55 0 -99 16.5t-71.5 51.5t-37 89t3.5 128l75 427h71z" />
    <glyph glyph-name="V" unicode="V" horiz-adv-x="655" 
d="M162 705l117 -623l339 623h77l-387 -705h-86l-137 705h77z" />
    <glyph glyph-name="W" unicode="W" horiz-adv-x="953" 
d="M981 705l-306 -705h-84l-70 604l-283 -604h-84l-58 705h78l38 -617l287 617h79l69 -617l257 617h77z" />
    <glyph glyph-name="X" unicode="X" horiz-adv-x="566" 
d="M325 352l156 -352h-83l-132 297l-223 -297h-80l276 358l-154 347h83l129 -292l223 292h81z" />
    <glyph glyph-name="Y" unicode="Y" horiz-adv-x="571" 
d="M611 705l-303 -430l-49 -275h-70l48 275l-152 430h81l120 -355l244 355h81z" />
    <glyph glyph-name="Z" unicode="Z" horiz-adv-x="523" 
d="M65 59h367l-10 -59h-445l9 56l464 590h-350l11 59h428l-10 -57z" />
    <glyph glyph-name="bracketleft" unicode="[" horiz-adv-x="298" 
d="M351 940l-10 -58h-99l-175 -990h99l-10 -58h-166l195 1106h166z" />
    <glyph glyph-name="backslash" unicode="\" horiz-adv-x="575" 
d="M300 -167l-130 1107h70l129 -1107h-69z" />
    <glyph glyph-name="bracketright" unicode="]" horiz-adv-x="297" 
d="M-54 -166l10 58h100l174 990h-99l10 58h166l-195 -1106h-166z" />
    <glyph glyph-name="asciicircum" unicode="^" horiz-adv-x="604" 
d="M61 171h-70l325 519h63l143 -519h-70l-119 434z" />
    <glyph glyph-name="underscore" unicode="_" horiz-adv-x="583" 
d="M542 -33l-12 -68h-509l12 68h509z" />
    <glyph glyph-name="grave" unicode="`" horiz-adv-x="281" 
d="M290 626l-17 -31l-137 92l22 41z" />
    <glyph glyph-name="a" unicode="a" 
d="M353 553q88 0 138 -44t59 -113l26 150h70l-96 -546h-70l27 150q-33 -69 -98 -113t-152 -44q-57 0 -100.5 19.5t-71 56.5t-37 90t2.5 119q11 65 39 116t68 86t90 54t105 19zM363 491q-46 0 -86 -15t-71.5 -43t-53 -68.5t-30.5 -91.5q-18 -103 27 -160.5t137 -57.5
q44 0 84 15.5t72.5 44t54.5 69t31 89.5q9 50 1 90t-30 68.5t-57 44t-79 15.5z" />
    <glyph glyph-name="b" unicode="b" 
d="M15 0l131 740h70l-61 -344q33 69 98 113t151 44q56 0 99.5 -19t71 -55t37.5 -88t-2 -118q-11 -65 -39 -117t-68.5 -88t-90.5 -55.5t-106 -19.5q-87 0 -136.5 44t-57.5 113l-27 -150h-70zM298 55q46 0 86 15t71.5 43t53 68.5t30.5 91.5q18 103 -27 160.5t-137 57.5
q-44 0 -84 -15.5t-72 -44t-54.5 -68.5t-31.5 -90q-9 -49 -0.5 -89.5t30.5 -69t56.5 -44t78.5 -15.5z" />
    <glyph glyph-name="c" unicode="c" horiz-adv-x="625" 
d="M364 553q54 0 95.5 -14.5t70.5 -41t43.5 -63.5t14.5 -82h-74q0 66 -43 103t-116 37q-38 0 -75.5 -13t-69.5 -40t-55 -68t-33 -98t-1.5 -98t31 -68t55.5 -40t71 -13q73 0 129 37t79 103h74q-16 -45 -43.5 -82t-65 -63.5t-84 -41t-99.5 -14.5q-58 0 -103.5 19.5t-75 56.5
t-40 89.5t1.5 119.5q11 65 40 116t70.5 86.5t93.5 54t109 18.5z" />
    <glyph glyph-name="d" unicode="d" horiz-adv-x="672" 
d="M667 740l-130 -740h-70l26 150q-33 -69 -97.5 -113t-151.5 -44q-56 0 -99.5 19.5t-71.5 56.5t-37.5 90t2.5 119q11 65 39 116t68 86t90 54t105 19q88 0 138 -44t59 -113l60 344h70zM350 491q-46 0 -86 -15t-71.5 -43t-53 -68.5t-30.5 -91.5q-18 -103 27 -160.5t137 -57.5
q44 0 84 15.5t72.5 44t54.5 69t31 89.5q9 50 1 90t-30.5 68.5t-57 44t-78.5 15.5z" />
    <glyph glyph-name="e" unicode="e" horiz-adv-x="625" 
d="M366 553q62 0 106.5 -20t71.5 -54t36.5 -78.5t0.5 -92.5q-3 -17 -5.5 -27.5t-7.5 -23.5h-452q-8 -54 2 -93t32.5 -64t55 -37t69.5 -12q73 0 129 37t79 100h74q-15 -42 -42 -78t-64.5 -62t-83.5 -40.5t-100 -14.5q-58 0 -103.5 19.5t-74.5 56t-40 89t1 118.5
q12 65 41 116.5t71 87t94 54.5t110 19zM508 293q12 53 4 91.5t-30.5 63.5t-55.5 36.5t-70 11.5q-38 0 -75 -12t-68.5 -36.5t-55 -63t-34.5 -91.5h385z" />
    <glyph glyph-name="f" unicode="f" horiz-adv-x="335" 
d="M133 573q16 91 73 137.5t166 42.5l-11 -62q-78 2 -112.5 -28t-45.5 -95l-4 -22h137l-11 -62h-137l-85 -484h-71l85 484h-81l11 62h81z" />
    <glyph glyph-name="g" unicode="g" horiz-adv-x="673" 
d="M260 -8q-56 0 -100 20t-71.5 57t-37.5 90t2 119q11 65 39 116t68 86.5t90.5 54.5t105.5 19q88 0 138 -44t58 -114l27 150h69l-99 -559q-10 -58 -37 -105t-66 -80t-87.5 -51t-102.5 -18q-109 0 -167.5 52.5t-66.5 138.5h69q8 -59 49.5 -94.5t120.5 -35.5q39 0 75 12.5
t65.5 37.5t50 60.5t28.5 82.5l30 163q-17 -34 -42 -63t-57 -50t-70 -33t-81 -12zM366 492q-46 0 -86.5 -15t-72 -43t-53 -69t-30.5 -92t-1.5 -91t29.5 -68t56.5 -43t80.5 -15q44 0 84 15.5t72.5 43.5t54.5 68.5t31 89.5q9 50 0.5 90.5t-31 69t-56.5 44t-78 15.5z" />
    <glyph glyph-name="h" unicode="h" horiz-adv-x="635" 
d="M401 556q45 0 82 -14.5t60.5 -44t32 -74t-2.5 -105.5l-56 -318h-69l55 313q16 91 -22 137.5t-114 46.5q-74 0 -131 -44.5t-80 -136.5l-55 -316h-71l130 740h71l-57 -326q35 72 96.5 107t130.5 35z" />
    <glyph glyph-name="i" unicode="i" horiz-adv-x="223" 
d="M136 708q4 22 20.5 35t39.5 13t34.5 -13t7.5 -35q-3 -21 -19.5 -34t-39.5 -13t-35 13t-8 34zM194 546l-97 -546h-71l97 546h71z" />
    <glyph glyph-name="j" unicode="j" horiz-adv-x="230" 
d="M185 661q-23 0 -34.5 13t-8.5 34q4 22 21 35t40 13t34.5 -13t7.5 -35q-4 -21 -20.5 -34t-39.5 -13zM-112 -196h38q37 0 57.5 16t28.5 60l118 666h70l-118 -670q-24 -134 -160 -134h-45z" />
    <glyph glyph-name="k" unicode="k" horiz-adv-x="465" 
d="M187 278l207 -278h-87l-178 251l-44 -251h-70l130 740h71l-76 -432l259 238h87z" />
    <glyph glyph-name="l" unicode="l" horiz-adv-x="222" 
d="M231 740l-130 -740h-71l130 740h71z" />
    <glyph glyph-name="m" unicode="m" horiz-adv-x="1021" 
d="M788 556q45 0 81 -14.5t59 -44t31.5 -74t-2.5 -105.5l-56 -318h-70l55 313q16 91 -19.5 136.5t-107.5 45.5q-75 0 -131.5 -48.5t-76.5 -150.5l-52 -296h-69l55 313q16 91 -19.5 136.5t-107.5 45.5q-76 0 -133.5 -50.5t-75.5 -154.5l-51 -290h-71l96 546h71l-23 -131
q34 72 93 106.5t125 34.5q69 0 116 -36.5t55 -112.5q35 75 97.5 112t130.5 37z" />
    <glyph glyph-name="n" unicode="n" horiz-adv-x="635" 
d="M398 556q45 0 82 -14.5t60.5 -44t32 -74t-2.5 -105.5l-56 -318h-69l55 313q16 91 -22 137.5t-114 46.5q-78 0 -137 -51t-78 -156l-51 -290h-71l96 546h71l-24 -134q35 73 97 108.5t131 35.5z" />
    <glyph glyph-name="o" unicode="o" horiz-adv-x="645" 
d="M371 553q59 0 105.5 -19.5t76.5 -56t42 -89.5t0 -120q-12 -64 -41.5 -115.5t-72 -86.5t-95 -54t-110.5 -19q-59 0 -106 19.5t-77.5 56.5t-42.5 89.5t0 119.5q12 65 41.5 116t72.5 86.5t96 54t111 18.5zM361 492q-38 0 -76.5 -13t-71.5 -40t-57 -68t-34 -98t-0.5 -98
t33 -67.5t57 -39.5t72.5 -13t77.5 13t71 39.5t56.5 67.5t34 98t0.5 98t-32.5 68t-57 40t-73 13z" />
    <glyph glyph-name="p" unicode="p" horiz-adv-x="673" 
d="M419 553q56 0 99 -19t70.5 -55t37.5 -88t-1 -118q-12 -65 -40.5 -117t-68.5 -88t-90 -55.5t-106 -19.5q-87 0 -136.5 44t-57.5 113l-73 -408h-70l142 804h70l-26 -150q33 69 98 113t152 44zM312 55q46 0 86 15t71.5 43t53 68.5t30.5 91.5q18 103 -27 160.5t-137 57.5
q-44 0 -84 -15.5t-72.5 -44t-54.5 -68.5t-31 -90q-9 -49 -1 -89.5t30.5 -69t57 -44t78.5 -15.5z" />
    <glyph glyph-name="q" unicode="q" horiz-adv-x="672" 
d="M639 546l-141 -804h-70l72 404q-35 -68 -98.5 -110.5t-146.5 -42.5q-58 0 -102.5 20t-72 57t-37.5 89.5t2 117.5q11 65 39.5 116.5t69 86.5t91.5 53.5t106 18.5q85 0 134 -41t60 -108l25 143h69zM357 491q-45 0 -85 -14.5t-71.5 -42.5t-53.5 -69t-31 -93t-1.5 -92.5
t29.5 -68t56.5 -42t79.5 -14.5q43 0 82.5 15t72 43.5t55.5 68.5t32 91t0.5 91t-31 68.5t-57 43.5t-77.5 15z" />
    <glyph glyph-name="r" unicode="r" horiz-adv-x="370" 
d="M174 432q34 58 92 91t136 33l-14 -76h-22q-33 0 -66.5 -8t-62 -26.5t-50.5 -50t-33 -78.5l-56 -317h-71l96 546h71z" />
    <glyph glyph-name="s" unicode="s" horiz-adv-x="492" 
d="M261 553q103 0 153.5 -48t49.5 -126h-70q1 25 -6.5 47t-24.5 38.5t-44 26.5t-65 10q-49 0 -81 -22t-39 -59q-8 -42 14 -64.5t58 -36t79 -24.5t78 -30.5t54.5 -53.5t8.5 -93q-10 -55 -57.5 -90t-128.5 -35q-101 0 -159.5 46.5t-56.5 127.5h69q-4 -51 34 -86.5t120 -35.5
q49 0 78.5 22.5t35.5 56.5q8 46 -13 70.5t-57 39t-78.5 25t-77.5 28.5t-54.5 49.5t-9.5 88.5t59.5 92.5t130.5 35.5z" />
    <glyph glyph-name="t" unicode="t" horiz-adv-x="363" 
d="M141 163q-11 -60 7.5 -80.5t70.5 -20.5h56l-12 -62h-65q-76 0 -109.5 36.5t-17.5 127.5l57 321h-84l11 61h84l24 138h70l-24 -138h150l-11 -61h-150z" />
    <glyph glyph-name="u" unicode="u" horiz-adv-x="621" 
d="M594 546l-96 -546h-71l24 135q-35 -74 -97 -109.5t-131 -35.5q-45 0 -82 14.5t-60.5 44t-32 74t2.5 105.5l56 318h69l-55 -312q-16 -92 22 -138.5t114 -46.5q78 0 137 51t78 156l51 290h71z" />
    <glyph glyph-name="v" unicode="v" horiz-adv-x="547" 
d="M236 79l266 467h75l-315 -546h-81l-123 546h75z" />
    <glyph glyph-name="w" unicode="w" horiz-adv-x="823" 
d="M857 546l-257 -546h-74l-83 465l-247 -465h-74l-64 546h71l47 -473l247 473h72l81 -473l213 473h68z" />
    <glyph glyph-name="x" unicode="x" horiz-adv-x="474" 
d="M276 273l135 -273h-80l-110 223l-179 -223h-78l228 281l-131 265h80l107 -217l176 217h77z" />
    <glyph glyph-name="y" unicode="y" horiz-adv-x="544" 
d="M129 546l110 -455l256 455h78l-464 -804h-79l157 264l-136 540h78z" />
    <glyph glyph-name="z" unicode="z" horiz-adv-x="435" 
d="M66 60h304l-11 -60h-380l10 57l366 430h-282l11 59h361l-10 -57z" />
    <glyph glyph-name="braceleft" unicode="{" horiz-adv-x="348" 
d="M101 371q59 -13 79.5 -56t10.5 -98q-4 -25 -12 -47.5t-16.5 -45.5t-17 -49.5t-14.5 -60.5q-8 -44 -3 -80.5t18 -64.5t31.5 -48t36.5 -31l-1 -7h-72q-11 7 -28.5 24t-32 46t-22 70.5t2.5 95.5q5 30 13.5 56t17.5 50t17 47t12 46q3 17 3.5 37t-7.5 38.5t-27 35t-54 25.5
l6 36q39 10 63.5 26t39 35t21 38.5t9.5 36.5q4 23 4 46v47t0.5 50t6.5 56q9 54 31 95.5t46.5 70.5t48.5 46t37 24h72l-1 -7q-22 -11 -47.5 -31t-48.5 -48t-41 -64.5t-26 -80.5q-6 -34 -7 -60.5t0 -49.5t1 -44.5t-5 -47.5q-10 -56 -45 -98.5t-100 -56.5v-2z" />
    <glyph glyph-name="bar" unicode="|" horiz-adv-x="208" 
d="M61 -101h-71l157 892h71z" />
    <glyph glyph-name="braceright" unicode="}" horiz-adv-x="350" 
d="M255 373q-60 14 -80 55t-11 95q5 26 12.5 47.5t16 44.5t17 49.5t14.5 60.5q8 43 3 80t-17.5 66.5t-31 50.5t-36.5 32l1 7h71q11 -7 28.5 -24t32.5 -46t22 -70.5t-2 -95.5q-5 -30 -13.5 -56t-17.5 -50t-17 -47t-12 -46q-3 -17 -3.5 -37t7.5 -39t27 -35t54 -25l-7 -36
q-38 -9 -62.5 -25t-39 -35t-21 -39t-9.5 -37q-4 -23 -4.5 -46t0 -47t-0.5 -50t-6 -56q-9 -54 -31 -95.5t-46.5 -70.5t-48 -46t-37.5 -24h-72l1 7q22 11 47.5 32t49 50.5t41.5 66.5t26 80q6 34 7 60.5t0 49.5t-0.5 45.5t4.5 47.5q10 53 45 94.5t99 54.5v2z" />
    <glyph glyph-name="asciitilde" unicode="~" horiz-adv-x="487" 
d="M172 387q28 0 48 -10.5t37.5 -23t34.5 -23t39 -10.5q26 0 45.5 19t30.5 48h56q-23 -65 -60.5 -98.5t-88.5 -33.5q-27 0 -47 10.5t-37 23t-34.5 23t-39.5 10.5q-26 0 -46 -19t-31 -48h-56q23 65 61 98.5t88 33.5z" />
    <glyph glyph-name="exclamdown" unicode="&#xa1;" horiz-adv-x="284" 
d="M132 467l17 90h97l-17 -90h-97zM24 -160l109 521h59l-86 -521h-82z" />
    <glyph glyph-name="cent" unicode="&#xa2;" horiz-adv-x="586" 
d="M335 459q-36 0 -71 -11.5t-64.5 -35.5t-50.5 -60.5t-30 -85.5t-0.5 -85.5t29.5 -60.5t52 -35.5t67 -11.5q66 0 118.5 36.5t75.5 101.5h66q-13 -43 -38 -78t-58.5 -60.5t-74.5 -40.5t-87 -17l-19 -106h-37l18 107q-49 4 -86.5 22.5t-61.5 50t-33 76.5t1 101t34 100.5
t59.5 76.5t80 50t94.5 22l18 100h38l-18 -99q92 -4 142.5 -56.5t46.5 -138.5h-66q0 66 -39.5 102t-105.5 36z" />
    <glyph glyph-name="sterling" unicode="&#xa3;" horiz-adv-x="570" 
d="M384 726q50 0 86.5 -16t59.5 -43t32.5 -64t6.5 -79h-66q5 62 -28.5 103t-99.5 41q-27 0 -54 -8.5t-49 -26.5t-38.5 -45t-22.5 -64q-8 -42 -2.5 -81.5t12.5 -78.5h187l-9 -49h-170q2 -20 2 -40.5t-4 -42.5q-8 -48 -34.5 -91t-75.5 -85h366l-11 -58h-432l-3 41
q47 42 80 84.5t44 105.5q4 22 3 43t-4 43h-118l9 49h100q-7 37 -11 77.5t4 88.5q8 43 28.5 79t51 62t71.5 40.5t89 14.5z" />
    <glyph glyph-name="currency" unicode="&#xa4;" horiz-adv-x="527" 
d="M415 491q14 -22 19.5 -50t-0.5 -63q-6 -34 -21 -62.5t-36 -50.5l49 -58l-36 -30l-48 59q-51 -34 -110 -34q-62 0 -99 34l-69 -59l-25 30l69 59q-12 22 -16 50t2 62t20.5 62t35.5 50l-51 60l36 30l50 -60q24 15 51.5 23.5t57.5 8.5q59 0 97 -32l70 60l25 -30zM376 377
q11 62 -17 96t-73 34q-48 0 -86 -34t-49 -96q-11 -63 15 -96.5t74 -33.5q22 0 44 8.5t40.5 25t32 41t19.5 55.5z" />
    <glyph glyph-name="yen" unicode="&#xa5;" horiz-adv-x="605" 
d="M395 373h148l-8 -50h-175l-34 -48l-6 -35h200l-9 -51h-200l-33 -189h-70l33 189h-200l9 51h200l6 35l-17 48h-175l9 50h148l-118 332h82l118 -364l246 364h80z" />
    <glyph glyph-name="brokenbar" unicode="&#xa6;" horiz-adv-x="251" 
d="M169 791h70l-65 -370h-71zM82 -101h-71l66 372h70z" />
    <glyph glyph-name="section" unicode="&#xa7;" horiz-adv-x="573" 
d="M468 564q2 22 -3.5 44.5t-21.5 40.5t-42.5 29t-67.5 11q-51 0 -86.5 -20t-43.5 -64q-7 -46 25 -76.5t118 -57.5q41 -12 76.5 -27.5t60.5 -36.5t36 -50.5t4 -70.5q-5 -27 -19.5 -53t-38.5 -47.5t-57.5 -37.5t-76.5 -23q26 -10 48.5 -24.5t38.5 -33t22.5 -43t1.5 -55.5
q-11 -60 -64 -99t-147 -39q-97 0 -148.5 47t-46.5 130h69q-1 -24 5 -47t21.5 -40t42.5 -27.5t67 -10.5q50 0 85.5 20t43.5 63q9 50 -24 79t-119 56q-41 12 -76.5 27.5t-60.5 36.5t-36 50.5t-4 70.5q5 28 19.5 54.5t39 48t59 37t77.5 21.5q-26 11 -49 25.5t-39 33t-23 43
t-2 54.5q11 60 64 99t147 39q97 0 148 -47t47 -130h-70zM449 286q10 55 -26.5 89.5t-115.5 34.5q-40 0 -71.5 -10t-55 -27t-37.5 -39.5t-18 -47.5q-10 -55 26.5 -89.5t115.5 -34.5q39 0 71 10t55.5 27.5t37.5 40t18 46.5z" />
    <glyph glyph-name="dieresis" unicode="&#xa8;" horiz-adv-x="344" 
d="M110 669q3 19 17.5 31.5t33.5 12.5t29.5 -12.5t7.5 -31.5q-4 -18 -19 -31t-33 -13q-19 0 -29.5 13t-6.5 31zM267 669q3 19 17.5 31.5t33.5 12.5q18 0 28.5 -12.5t7.5 -31.5q-4 -18 -18.5 -31t-32.5 -13q-19 0 -29.5 13t-6.5 31z" />
    <glyph glyph-name="copyright" unicode="&#xa9;" horiz-adv-x="795" 
d="M460 707q77 0 136 -26t96 -73t51 -111.5t0 -142.5t-50 -143t-89.5 -112t-121.5 -73t-146 -26q-77 0 -136 26t-96.5 73t-51 112t0.5 143t50 142.5t89.5 111.5t121.5 73t146 26zM455 677q-72 0 -134.5 -24t-110.5 -67t-80 -102.5t-45 -129.5q-12 -70 -1 -129.5t44 -103
t87 -67.5t126 -24t134 24t110 67.5t80.5 103t44.5 129.5t1 129.5t-44 102.5t-86.5 67t-125.5 24zM442 587q-44 0 -86 -15t-77 -44.5t-60 -73t-35 -100.5t-0.5 -100.5t34 -73.5t61.5 -45t81 -15q36 0 70.5 10.5t65.5 31t56.5 50.5t41.5 69h-62q-26 -54 -71 -82t-94 -28
q-31 0 -57.5 11.5t-44 34t-24.5 57t1 79.5q8 46 27 80t45 57t56 34.5t61 11.5q49 0 84 -28t42 -82h62q-2 39 -16.5 69t-38.5 50.5t-55 31t-67 10.5z" />
    <glyph glyph-name="ordfeminine" unicode="&#xaa;" horiz-adv-x="440" 
d="M229 710q55 0 85.5 -25.5t38.5 -69.5l15 89h56l-61 -350h-56l15 89q-23 -44 -62 -69.5t-94 -25.5q-73 0 -109 49t-22 132q7 41 25 74.5t43.5 57t57.5 36.5t68 13zM236 664q-52 0 -92.5 -36.5t-51.5 -99.5t17 -98.5t79 -35.5q56 0 97.5 36t52.5 99t-18 99t-84 36z" />
    <glyph glyph-name="guillemotleft" unicode="&#xab;" horiz-adv-x="435" 
d="M114 120l-69 175l130 175h71l-132 -175l70 -175h-70zM286 120l-68 175l130 175h70l-132 -175l71 -175h-71z" />
    <glyph glyph-name="logicalnot" unicode="&#xac;" horiz-adv-x="730" 
d="M697 430l-35 -200h-69l25 144h-561l10 56h630z" />
    <glyph glyph-name="registered" unicode="&#xae;" horiz-adv-x="795" 
d="M460 707q77 0 136 -25t96.5 -71.5t51 -111.5t-0.5 -145q-14 -78 -50.5 -143t-90 -112t-121.5 -73.5t-145 -26.5t-136 26.5t-96.5 73.5t-51 112t0.5 143q14 80 50.5 145t90 111.5t121.5 71.5t145 25zM710 354q13 74 2 133.5t-44 102t-87 65.5t-126 23t-134 -23t-110 -65.5
t-80.5 -102t-45.5 -133.5q-13 -71 -1.5 -129.5t45 -100.5t87.5 -65t126 -23t134 23t110 65t80 100.5t44 129.5zM459 591q80 0 110.5 -35.5t20.5 -89.5q-9 -54 -47.5 -87.5t-104.5 -38.5l96 -197h-54l-94 196h-75l-35 -196h-49l80 448h152zM540 461q8 41 -12.5 63.5
t-80.5 22.5h-100l-30 -173h100q60 0 88 24t35 63z" />
    <glyph glyph-name="macron" unicode="&#xaf;" horiz-adv-x="405" 
d="M436 700l-8 -50h-340l9 50h339z" />
    <glyph glyph-name="degree" unicode="&#xb0;" horiz-adv-x="391" 
d="M226 697q76 0 113.5 -47t23.5 -127t-67.5 -128t-129.5 -48q-75 0 -113.5 48t-24.5 128t68.5 127t129.5 47zM219 655q-49 0 -85.5 -34t-47.5 -99q-12 -64 13 -98t74 -34t85 34t48 98q11 65 -13.5 99t-73.5 34z" />
    <glyph glyph-name="plusminus" unicode="&#xb1;" horiz-adv-x="580" 
d="M561 443l-11 -64h-221l-39 -219h-68l38 219h-220l12 64h220l33 191h69l-34 -191h221zM1 156h509l-11 -64h-509z" />
    <glyph glyph-name="uni00B2" unicode="&#xb2;" horiz-adv-x="331" 
d="M301 610q-8 -45 -40.5 -78t-86.5 -68l-96 -67h192l-7 -45h-252l6 38l138 102q30 24 55.5 50.5t32.5 63.5q5 33 -10 47.5t-40 14.5q-65 0 -87 -77h-55q6 24 18.5 45.5t32 38t45.5 26t58 9.5q55 0 79.5 -28t16.5 -72z" />
    <glyph glyph-name="uni00B3" unicode="&#xb3;" horiz-adv-x="327" 
d="M200 710q54 0 83 -27t21 -72q-5 -30 -26 -51.5t-57 -29.5l-1 -3q68 -19 58 -85q-7 -38 -43.5 -66t-99.5 -28q-65 0 -91.5 26.5t-23.5 79.5h58q-3 -38 15 -51.5t46 -13.5q34 0 55.5 16t26.5 45q5 32 -13.5 48t-51.5 16h-54l5 27h53q33 0 56 16.5t29 47.5q5 28 -10.5 45
t-46.5 17q-33 0 -53.5 -16t-30.5 -42h-54q12 40 48.5 70.5t101.5 30.5z" />
    <glyph glyph-name="acute" unicode="&#xb4;" horiz-adv-x="270" 
d="M270 689l-168 -90l-11 27l162 102z" />
    <glyph glyph-name="uni00B5" unicode="&#xb5;" horiz-adv-x="640" 
d="M628 546l-96 -546h-71l23 132q-33 -72 -91.5 -107t-123.5 -35q-23 0 -45 4.5t-40.5 16t-33 30t-21.5 45.5l-61 -344h-69l142 804h70l-50 -282q-10 -54 -4 -94t25 -66t49 -39t69 -13q75 0 131.5 50.5t74.5 153.5v-3l52 293h70z" />
    <glyph glyph-name="paragraph" unicode="&#xb6;" horiz-adv-x="561" 
d="M418 0h-59l112 635h-96l-112 -635h-59l51 289h-8q-61 0 -102.5 15.5t-66 42.5t-32 63.5t-0.5 78.5q8 43 28.5 80t54.5 64t81 42t107 15h222z" />
    <glyph glyph-name="periodcentered" unicode="&#xb7;" horiz-adv-x="161" 
d="M164 390l-16 -90h-93l16 90h93z" />
    <glyph glyph-name="cedilla" unicode="&#xb8;" horiz-adv-x="273" 
d="M122 -74q56 3 88 -20.5t23 -75.5q-8 -45 -44.5 -66.5t-87.5 -21.5h-92l8 43h82q41 0 60 13t23 34q4 23 -9.5 39.5t-55.5 16.5h-49l22 119h47z" />
    <glyph glyph-name="uni00B9" unicode="&#xb9;" horiz-adv-x="187" 
d="M58 659l8 45h113l-62 -352h-56l54 307h-57z" />
    <glyph glyph-name="ordmasculine" unicode="&#xba;" horiz-adv-x="422" 
d="M246 709q40 0 70.5 -13.5t50 -37.5t26.5 -57.5t0 -73.5t-26 -73.5t-47 -58t-63.5 -38t-74.5 -13.5q-40 0 -70.5 13.5t-50 38t-26.5 58t0 73.5t26 73.5t47 57.5t63.5 37.5t74.5 13.5zM238 663q-51 0 -93 -35t-53 -101q-12 -66 17.5 -101t80.5 -35t93 35t53 101
q12 66 -17.5 101t-80.5 35z" />
    <glyph glyph-name="guillemotright" unicode="&#xbb;" horiz-adv-x="435" 
d="M153 295l-72 175h71l68 -175l-129 -175h-72zM325 295l-72 175h72l68 -175l-130 -175h-71z" />
    <glyph glyph-name="onequarter" unicode="&#xbc;" horiz-adv-x="624" 
d="M572 705l-482 -705h-69l482 705h69zM85 659l8 45h113l-62 -352h-56l54 307h-57zM538 72h-50l-12 -72h-56l12 72h-180l7 34l212 248h68l-44 -245h50zM474 294l-158 -184h126z" />
    <glyph glyph-name="onehalf" unicode="&#xbd;" horiz-adv-x="677" 
d="M571 706l-484 -706h-70l485 706h69zM159 659h-57l8 45h113l-62 -352h-56zM612 257q-8 -45 -40.5 -78t-86.5 -68l-96 -67h192l-7 -45h-252l6 38l138 102q30 24 55.5 50.5t32.5 63.5q5 33 -10 47.5t-40 14.5q-65 0 -87 -77h-55q6 24 18.5 45.5t32 38t45.5 26t58 9.5
q55 0 79.5 -28t16.5 -72z" />
    <glyph glyph-name="threequarters" unicode="&#xbe;" horiz-adv-x="655" 
d="M222 710q54 0 83 -27t21 -72q-5 -30 -26 -51.5t-57 -29.5l-1 -3q68 -19 58 -85q-7 -38 -43.5 -66t-99.5 -28q-65 0 -91.5 26.5t-23.5 79.5h58q-3 -38 15 -51.5t46 -13.5q34 0 55.5 16t26.5 45q5 32 -13.5 48t-51.5 16h-54l5 27h53q33 0 56 16.5t29 47.5q5 28 -10.5 45
t-46.5 17q-33 0 -53.5 -16t-30.5 -42h-54q12 40 48.5 70.5t101.5 30.5zM630 706l-478 -706h-69l478 706h69zM586 72h-50l-12 -72h-56l12 72h-180l6 34l207 248h73l-43 -245h50zM523 299l-159 -190h126z" />
    <glyph glyph-name="questiondown" unicode="&#xbf;" horiz-adv-x="481" 
d="M313 456l16 90h92l-16 -90h-92zM181 -181q-49 0 -86.5 14.5t-61 42.5t-32.5 67t-1 89q9 56 35.5 94t65 62t86.5 34.5t101 11.5l22 126h67l-31 -175h-33q-37 0 -77 -5.5t-74 -22t-59 -46t-33 -78.5q-14 -73 20.5 -114t103.5 -41q72 0 113.5 38t58.5 101h67
q-20 -91 -84.5 -144.5t-167.5 -53.5z" />
    <glyph glyph-name="Agrave" unicode="&#xc0;" horiz-adv-x="644" 
d="M495 754l-137 92l22 41l132 -102zM452 172h-321l-94 -172h-75l382 689h79l138 -689h-76zM442 228l-73 382l-208 -382h281z" />
    <glyph glyph-name="Aacute" unicode="&#xc1;" horiz-adv-x="644" 
d="M338 758l-11 27l162 102l17 -39zM452 172h-321l-94 -172h-75l382 689h79l138 -689h-76zM442 228l-73 382l-208 -382h281z" />
    <glyph glyph-name="Acircumflex" unicode="&#xc2;" horiz-adv-x="644" 
d="M303 757l-11 32l141 78l112 -78l-20 -32l-99 68zM452 172h-321l-94 -172h-75l382 689h79l138 -689h-76zM442 228l-73 382l-208 -382h281z" />
    <glyph glyph-name="Atilde" unicode="&#xc3;" horiz-adv-x="644" 
d="M355 811q-35 0 -49 -46h-35q27 86 93 86q19 0 31.5 -7.5t22.5 -16t21 -16t27 -7.5t29.5 11t20.5 34h36q-11 -41 -36.5 -63t-57.5 -22q-20 0 -33 7.5t-23.5 16t-21 16t-25.5 7.5zM452 172h-321l-94 -172h-75l382 689h79l138 -689h-76zM442 228l-73 382l-208 -382h281z" />
    <glyph glyph-name="Adieresis" unicode="&#xc4;" horiz-adv-x="644" 
d="M330 784q-19 0 -29.5 13t-6.5 31q3 19 17.5 31.5t33.5 12.5t29.5 -12.5t7.5 -31.5q-4 -18 -19 -31t-33 -13zM487 784q-19 0 -29.5 13t-6.5 31q3 19 17.5 31.5t33.5 12.5q18 0 28.5 -12.5t7.5 -31.5q-4 -18 -18.5 -31t-32.5 -13zM452 172h-321l-94 -172h-75l382 689h79
l138 -689h-76zM442 228l-73 382l-208 -382h281z" />
    <glyph glyph-name="Aring" unicode="&#xc5;" horiz-adv-x="644" 
d="M389 769q-42 0 -66 26.5t-16 73.5q8 48 42 74.5t76 26.5t66.5 -26.5t16.5 -74.5q-8 -47 -42.5 -73.5t-76.5 -26.5zM343 869q-5 -31 10 -48.5t42 -17.5q28 0 49.5 17.5t26.5 48.5t-10 48.5t-42 17.5q-28 0 -49.5 -17.5t-26.5 -48.5zM452 172h-321l-94 -172h-75l382 689h79
l138 -689h-76zM442 228l-73 382l-208 -382h281z" />
    <glyph glyph-name="AE" unicode="&#xc6;" horiz-adv-x="874" 
d="M577 648l-47 -265h273l-9 -56h-273l-48 -269h303l-10 -58h-373l30 170h-271l-129 -170h-78l534 705h411l-10 -57h-303zM504 635l-311 -410h239z" />
    <glyph glyph-name="Ccedilla" unicode="&#xc7;" horiz-adv-x="765" 
d="M333 58q100 0 171.5 47t111.5 119h74q-45 -94 -123.5 -154t-187.5 -74l-13 -70q56 3 88 -20.5t23 -75.5q-8 -45 -44.5 -66.5t-87.5 -21.5h-92l8 43h82q41 0 60 13t23 34q4 23 -9.5 39.5t-55.5 16.5h-49l19 105h-8q-74 0 -131 26.5t-92.5 74t-48.5 113.5t1 145
q14 80 50 146t88.5 113.5t118.5 74t140 26.5q65 0 115.5 -16.5t86 -47t56.5 -73t28 -94.5h-73q-14 73 -70 119.5t-155 46.5q-55 0 -106 -20.5t-93 -58.5t-72 -92.5t-42 -123.5q-12 -68 -1.5 -122.5t39 -92.5t72.5 -58.5t99 -20.5z" />
    <glyph glyph-name="Egrave" unicode="&#xc8;" horiz-adv-x="498" 
d="M444 785l-17 -31l-137 92l22 41zM199 648l-47 -266h275l-9 -55h-276l-47 -269h305l-10 -58h-376l124 705h376l-10 -57h-305z" />
    <glyph glyph-name="Eacute" unicode="&#xc9;" horiz-adv-x="498" 
d="M438 848l-168 -90l-11 27l162 102zM199 648l-47 -266h275l-9 -55h-276l-47 -269h305l-10 -58h-376l124 705h376l-10 -57h-305z" />
    <glyph glyph-name="Ecircumflex" unicode="&#xca;" horiz-adv-x="498" 
d="M358 825l-123 -68l-11 32l141 78l112 -78l-20 -32zM199 648l-47 -266h275l-9 -55h-276l-47 -269h305l-10 -58h-376l124 705h376l-10 -57h-305z" />
    <glyph glyph-name="Edieresis" unicode="&#xcb;" horiz-adv-x="498" 
d="M234 828q3 19 17.5 31.5t33.5 12.5t29.5 -12.5t7.5 -31.5q-4 -18 -19 -31t-33 -13q-19 0 -29.5 13t-6.5 31zM391 828q3 19 17.5 31.5t33.5 12.5q18 0 28.5 -12.5t7.5 -31.5q-4 -18 -18.5 -31t-32.5 -13q-19 0 -29.5 13t-6.5 31zM199 648l-47 -266h275l-9 -55h-276
l-47 -269h305l-10 -58h-376l124 705h376l-10 -57h-305z" />
    <glyph glyph-name="Igrave" unicode="&#xcc;" horiz-adv-x="223" 
d="M306 785l-17 -31l-137 92l22 41zM209 705l-124 -705h-71l124 705h71z" />
    <glyph glyph-name="Iacute" unicode="&#xcd;" horiz-adv-x="223" 
d="M300 848l-168 -90l-11 27l162 102zM209 705l-124 -705h-71l124 705h71z" />
    <glyph glyph-name="Icircumflex" unicode="&#xce;" horiz-adv-x="223" 
d="M220 825l-123 -68l-11 32l141 78l112 -78l-20 -32zM209 705l-124 -705h-71l124 705h71z" />
    <glyph glyph-name="Idieresis" unicode="&#xcf;" horiz-adv-x="223" 
d="M84 828q3 19 17.5 31.5t33.5 12.5t29.5 -12.5t7.5 -31.5q-4 -18 -19 -31t-33 -13q-19 0 -29.5 13t-6.5 31zM241 828q3 19 17.5 31.5t33.5 12.5q18 0 28.5 -12.5t7.5 -31.5q-4 -18 -18.5 -31t-32.5 -13q-19 0 -29.5 13t-6.5 31zM209 705l-124 -705h-71l124 705h71z" />
    <glyph glyph-name="Eth" unicode="&#xd0;" horiz-adv-x="742" 
d="M381 705q90 0 155 -24.5t104 -70t51.5 -110.5t-1.5 -147q-14 -81 -50 -146.5t-91 -111.5t-128.5 -70.5t-163.5 -24.5h-213l57 324h-98l10 58h98l57 323h213zM619 353q23 135 -40 212.5t-214 77.5h-137l-46 -261h207l-10 -58h-207l-46 -261h137q151 0 241.5 77.5
t114.5 212.5z" />
    <glyph glyph-name="Ntilde" unicode="&#xd1;" horiz-adv-x="680" 
d="M387 851q19 0 31.5 -7.5t22.5 -16t21 -16t27 -7.5t29.5 11t20.5 34h36q-11 -41 -36.5 -63t-57.5 -22q-20 0 -33 7.5t-23.5 16t-21 16t-25.5 7.5q-35 0 -49 -46h-35q27 86 93 86zM542 0h-71l-283 589l-103 -589h-71l124 704h71l282 -590l104 590h71z" />
    <glyph glyph-name="Ograve" unicode="&#xd2;" horiz-adv-x="787" 
d="M580 785l-17 -31l-137 92l22 41zM450 713q77 0 136.5 -27.5t97 -76.5t51 -117t-0.5 -149q-13 -77 -49 -141.5t-88 -111t-118 -72.5t-141 -26q-78 0 -137.5 27.5t-97 76.5t-51 117t0.5 150q14 77 49.5 141t87.5 110.5t118.5 72.5t141.5 26zM443 648q-57 0 -109.5 -20
t-95.5 -58t-73 -92.5t-42 -122.5q-12 -69 -1 -124t41 -93.5t76.5 -59t104.5 -20.5q57 0 110 20t95.5 58t73 92t42.5 122q12 69 1 124.5t-41 94t-76.5 59t-105.5 20.5z" />
    <glyph glyph-name="Oacute" unicode="&#xd3;" horiz-adv-x="787" 
d="M574 848l-168 -90l-11 27l162 102zM450 713q77 0 136.5 -27.5t97 -76.5t51 -117t-0.5 -149q-13 -77 -49 -141.5t-88 -111t-118 -72.5t-141 -26q-78 0 -137.5 27.5t-97 76.5t-51 117t0.5 150q14 77 49.5 141t87.5 110.5t118.5 72.5t141.5 26zM443 648q-57 0 -109.5 -20
t-95.5 -58t-73 -92.5t-42 -122.5q-12 -69 -1 -124t41 -93.5t76.5 -59t104.5 -20.5q57 0 110 20t95.5 58t73 92t42.5 122q12 69 1 124.5t-41 94t-76.5 59t-105.5 20.5z" />
    <glyph glyph-name="Ocircumflex" unicode="&#xd4;" horiz-adv-x="787" 
d="M494 825l-123 -68l-11 32l141 78l112 -78l-20 -32zM450 713q77 0 136.5 -27.5t97 -76.5t51 -117t-0.5 -149q-13 -77 -49 -141.5t-88 -111t-118 -72.5t-141 -26q-78 0 -137.5 27.5t-97 76.5t-51 117t0.5 150q14 77 49.5 141t87.5 110.5t118.5 72.5t141.5 26zM443 648
q-57 0 -109.5 -20t-95.5 -58t-73 -92.5t-42 -122.5q-12 -69 -1 -124t41 -93.5t76.5 -59t104.5 -20.5q57 0 110 20t95.5 58t73 92t42.5 122q12 69 1 124.5t-41 94t-76.5 59t-105.5 20.5z" />
    <glyph glyph-name="Otilde" unicode="&#xd5;" horiz-adv-x="787" 
d="M432 851q19 0 31.5 -7.5t22.5 -16t21 -16t27 -7.5t29.5 11t20.5 34h36q-11 -41 -36.5 -63t-57.5 -22q-20 0 -33 7.5t-23.5 16t-21 16t-25.5 7.5q-35 0 -49 -46h-35q27 86 93 86zM450 713q77 0 136.5 -27.5t97 -76.5t51 -117t-0.5 -149q-13 -77 -49 -141.5t-88 -111
t-118 -72.5t-141 -26q-78 0 -137.5 27.5t-97 76.5t-51 117t0.5 150q14 77 49.5 141t87.5 110.5t118.5 72.5t141.5 26zM443 648q-57 0 -109.5 -20t-95.5 -58t-73 -92.5t-42 -122.5q-12 -69 -1 -124t41 -93.5t76.5 -59t104.5 -20.5q57 0 110 20t95.5 58t73 92t42.5 122
q12 69 1 124.5t-41 94t-76.5 59t-105.5 20.5z" />
    <glyph glyph-name="Odieresis" unicode="&#xd6;" horiz-adv-x="787" 
d="M364 828q3 19 17.5 31.5t33.5 12.5t29.5 -12.5t7.5 -31.5q-4 -18 -19 -31t-33 -13q-19 0 -29.5 13t-6.5 31zM521 828q3 19 17.5 31.5t33.5 12.5q18 0 28.5 -12.5t7.5 -31.5q-4 -18 -18.5 -31t-32.5 -13q-19 0 -29.5 13t-6.5 31zM450 713q77 0 136.5 -27.5t97 -76.5
t51 -117t-0.5 -149q-13 -77 -49 -141.5t-88 -111t-118 -72.5t-141 -26q-78 0 -137.5 27.5t-97 76.5t-51 117t0.5 150q14 77 49.5 141t87.5 110.5t118.5 72.5t141.5 26zM443 648q-57 0 -109.5 -20t-95.5 -58t-73 -92.5t-42 -122.5q-12 -69 -1 -124t41 -93.5t76.5 -59
t104.5 -20.5q57 0 110 20t95.5 58t73 92t42.5 122q12 69 1 124.5t-41 94t-76.5 59t-105.5 20.5z" />
    <glyph glyph-name="multiply" unicode="&#xd7;" horiz-adv-x="497" 
d="M297 373l138 -168l-55 -47l-138 168l-196 -167l-37 46l195 166l-136 166l55 47l136 -166l194 165l37 -45z" />
    <glyph glyph-name="Oslash" unicode="&#xd8;" horiz-adv-x="791" 
d="M689 601q35 -48 47 -114t-2 -144q-13 -77 -49 -141.5t-88 -111t-118 -72.5t-141 -26q-70 0 -125.5 22t-93.5 63l-83 -77h-48l111 102q-35 49 -47.5 115t1.5 146q14 77 49.5 141t87.5 110.5t118.5 72.5t141.5 26q71 0 126 -22.5t93 -64.5l87 80h47zM123 355
q-11 -63 -3 -114.5t33 -89.5l464 427q-31 34 -75 52t-99 18q-57 0 -109.5 -20t-95.5 -58t-73 -92.5t-42 -122.5zM665 350q11 63 2.5 113.5t-31.5 88.5l-463 -426q62 -68 171 -68q57 0 110 20t95.5 58t73 92t42.5 122z" />
    <glyph glyph-name="Ugrave" unicode="&#xd9;" horiz-adv-x="652" 
d="M521 785l-17 -31l-137 92l22 41zM205 705l-76 -427q-10 -59 -4 -100.5t26 -68t52 -38.5t73 -12t76.5 12t64.5 38.5t49.5 68t30.5 100.5l76 427h70l-76 -427q-13 -74 -41 -128t-68 -89t-89.5 -51.5t-105.5 -16.5q-55 0 -99 16.5t-71.5 51.5t-37 89t3.5 128l75 427h71z" />
    <glyph glyph-name="Uacute" unicode="&#xda;" horiz-adv-x="652" 
d="M515 848l-168 -90l-11 27l162 102zM205 705l-76 -427q-10 -59 -4 -100.5t26 -68t52 -38.5t73 -12t76.5 12t64.5 38.5t49.5 68t30.5 100.5l76 427h70l-76 -427q-13 -74 -41 -128t-68 -89t-89.5 -51.5t-105.5 -16.5q-55 0 -99 16.5t-71.5 51.5t-37 89t3.5 128l75 427h71z
" />
    <glyph glyph-name="Ucircumflex" unicode="&#xdb;" horiz-adv-x="652" 
d="M435 825l-123 -68l-11 32l141 78l112 -78l-20 -32zM205 705l-76 -427q-10 -59 -4 -100.5t26 -68t52 -38.5t73 -12t76.5 12t64.5 38.5t49.5 68t30.5 100.5l76 427h70l-76 -427q-13 -74 -41 -128t-68 -89t-89.5 -51.5t-105.5 -16.5q-55 0 -99 16.5t-71.5 51.5t-37 89
t3.5 128l75 427h71z" />
    <glyph glyph-name="Udieresis" unicode="&#xdc;" horiz-adv-x="652" 
d="M296 828q3 19 17.5 31.5t33.5 12.5t29.5 -12.5t7.5 -31.5q-4 -18 -19 -31t-33 -13q-19 0 -29.5 13t-6.5 31zM453 828q3 19 17.5 31.5t33.5 12.5q18 0 28.5 -12.5t7.5 -31.5q-4 -18 -18.5 -31t-32.5 -13q-19 0 -29.5 13t-6.5 31zM205 705l-76 -427q-10 -59 -4 -100.5
t26 -68t52 -38.5t73 -12t76.5 12t64.5 38.5t49.5 68t30.5 100.5l76 427h70l-76 -427q-13 -74 -41 -128t-68 -89t-89.5 -51.5t-105.5 -16.5q-55 0 -99 16.5t-71.5 51.5t-37 89t3.5 128l75 427h71z" />
    <glyph glyph-name="Yacute" unicode="&#xdd;" horiz-adv-x="571" 
d="M306 758l-11 27l162 102l17 -39zM611 705l-303 -430l-49 -275h-70l48 275l-152 430h81l120 -355l244 355h81z" />
    <glyph glyph-name="Thorn" unicode="&#xde;" horiz-adv-x="558" 
d="M111 151l-26 -151h-71l124 705h70l-26 -148h141q62 0 104 -14.5t66 -41.5t31 -64.5t-1 -83.5q-17 -97 -86 -149.5t-185 -52.5h-141zM256 208q94 0 139 39.5t57 105.5q12 68 -19 107.5t-126 39.5h-134l-52 -292h135z" />
    <glyph glyph-name="germandbls" unicode="&#xdf;" horiz-adv-x="632" 
d="M466 362q64 -45 87.5 -95t11.5 -117q-6 -34 -23.5 -63.5t-44.5 -51.5t-62.5 -34t-77.5 -12q-86 0 -131.5 49t-31.5 138h60q-8 -53 15.5 -89t86.5 -36q32 0 56.5 10t42 25.5t28 35.5t13.5 40q8 41 -6 75t-64 72l-141 105l6 31l40 19q75 34 87 105q9 51 -17 83.5t-80 32.5
q-57 0 -94 -33t-47 -92l-99 -560h-70l99 562q16 89 74.5 138.5t152.5 49.5q41 0 73 -11.5t52.5 -33t29 -51.5t1.5 -67q-15 -91 -126 -138l-14 -6z" />
    <glyph glyph-name="agrave" unicode="&#xe0;" 
d="M504 626l-17 -31l-137 92l22 41zM353 553q88 0 138 -44t59 -113l26 150h70l-96 -546h-70l27 150q-33 -69 -98 -113t-152 -44q-57 0 -100.5 19.5t-71 56.5t-37 90t2.5 119q11 65 39 116t68 86t90 54t105 19zM363 491q-46 0 -86 -15t-71.5 -43t-53 -68.5t-30.5 -91.5
q-18 -103 27 -160.5t137 -57.5q44 0 84 15.5t72.5 44t54.5 69t31 89.5q9 50 1 90t-30 68.5t-57 44t-79 15.5z" />
    <glyph glyph-name="aacute" unicode="&#xe1;" 
d="M498 689l-168 -90l-11 27l162 102zM353 553q88 0 138 -44t59 -113l26 150h70l-96 -546h-70l27 150q-33 -69 -98 -113t-152 -44q-57 0 -100.5 19.5t-71 56.5t-37 90t2.5 119q11 65 39 116t68 86t90 54t105 19zM363 491q-46 0 -86 -15t-71.5 -43t-53 -68.5t-30.5 -91.5
q-18 -103 27 -160.5t137 -57.5q44 0 84 15.5t72.5 44t54.5 69t31 89.5q9 50 1 90t-30 68.5t-57 44t-79 15.5z" />
    <glyph glyph-name="acircumflex" unicode="&#xe2;" 
d="M418 666l-123 -68l-11 32l141 78l112 -78l-20 -32zM353 553q88 0 138 -44t59 -113l26 150h70l-96 -546h-70l27 150q-33 -69 -98 -113t-152 -44q-57 0 -100.5 19.5t-71 56.5t-37 90t2.5 119q11 65 39 116t68 86t90 54t105 19zM363 491q-46 0 -86 -15t-71.5 -43t-53 -68.5
t-30.5 -91.5q-18 -103 27 -160.5t137 -57.5q44 0 84 15.5t72.5 44t54.5 69t31 89.5q9 50 1 90t-30 68.5t-57 44t-79 15.5z" />
    <glyph glyph-name="atilde" unicode="&#xe3;" 
d="M356 692q19 0 31.5 -7.5t22.5 -16t21 -16t27 -7.5t29.5 11t20.5 34h36q-11 -41 -36.5 -63t-57.5 -22q-20 0 -33 7.5t-23.5 16t-21 16t-25.5 7.5q-35 0 -49 -46h-35q27 86 93 86zM353 553q88 0 138 -44t59 -113l26 150h70l-96 -546h-70l27 150q-33 -69 -98 -113t-152 -44
q-57 0 -100.5 19.5t-71 56.5t-37 90t2.5 119q11 65 39 116t68 86t90 54t105 19zM363 491q-46 0 -86 -15t-71.5 -43t-53 -68.5t-30.5 -91.5q-18 -103 27 -160.5t137 -57.5q44 0 84 15.5t72.5 44t54.5 69t31 89.5q9 50 1 90t-30 68.5t-57 44t-79 15.5z" />
    <glyph glyph-name="adieresis" unicode="&#xe4;" 
d="M268 669q3 19 17.5 31.5t33.5 12.5t29.5 -12.5t7.5 -31.5q-4 -18 -19 -31t-33 -13q-19 0 -29.5 13t-6.5 31zM425 669q3 19 17.5 31.5t33.5 12.5q18 0 28.5 -12.5t7.5 -31.5q-4 -18 -18.5 -31t-32.5 -13q-19 0 -29.5 13t-6.5 31zM353 553q88 0 138 -44t59 -113l26 150h70
l-96 -546h-70l27 150q-33 -69 -98 -113t-152 -44q-57 0 -100.5 19.5t-71 56.5t-37 90t2.5 119q11 65 39 116t68 86t90 54t105 19zM363 491q-46 0 -86 -15t-71.5 -43t-53 -68.5t-30.5 -91.5q-18 -103 27 -160.5t137 -57.5q44 0 84 15.5t72.5 44t54.5 69t31 89.5q9 50 1 90
t-30 68.5t-57 44t-79 15.5z" />
    <glyph glyph-name="aring" unicode="&#xe5;" 
d="M394 811q42 0 66.5 -26.5t16.5 -74.5q-8 -47 -42.5 -73.5t-76.5 -26.5t-66 26.5t-16 73.5q8 48 42 74.5t76 26.5zM388 776q-28 0 -49.5 -17.5t-26.5 -48.5t10 -48.5t42 -17.5q28 0 49.5 17.5t26.5 48.5t-10 48.5t-42 17.5zM353 553q88 0 138 -44t59 -113l26 150h70
l-96 -546h-70l27 150q-33 -69 -98 -113t-152 -44q-57 0 -100.5 19.5t-71 56.5t-37 90t2.5 119q11 65 39 116t68 86t90 54t105 19zM363 491q-46 0 -86 -15t-71.5 -43t-53 -68.5t-30.5 -91.5q-18 -103 27 -160.5t137 -57.5q44 0 84 15.5t72.5 44t54.5 69t31 89.5q9 50 1 90
t-30 68.5t-57 44t-79 15.5z" />
    <glyph glyph-name="ae" unicode="&#xe6;" horiz-adv-x="1116" 
d="M869 553q59 0 101.5 -20t67.5 -54t33.5 -78.5t-0.5 -92.5q-3 -17 -5.5 -27.5t-7.5 -23.5h-462q-8 -54 2.5 -93.5t34 -64.5t56.5 -37t71 -12q75 0 132.5 36.5t80.5 101.5h74q-15 -42 -41.5 -78t-62 -62t-79.5 -40.5t-94 -14.5q-79 0 -133 39.5t-62 118.5l-26 -151h-70
l27 150q-33 -69 -98 -113t-152 -44q-56 0 -99.5 19.5t-71 55.5t-37.5 88t2 117q12 66 40 118t68.5 88t90.5 55t106 19q87 0 136.5 -44t57.5 -113l27 150h69l-26 -150q34 78 99.5 117.5t150.5 39.5zM998 293q12 53 3.5 91.5t-31.5 63t-57 36.5t-72 12q-40 0 -78.5 -11.5
t-70 -36.5t-55 -63t-34.5 -92h395zM528 273q9 50 0.5 90t-30.5 68.5t-56.5 44t-78.5 15.5q-46 0 -86.5 -15t-72 -43t-53 -68.5t-30.5 -91.5q-18 -103 27 -160.5t137 -57.5q44 0 84.5 15.5t72.5 44t54.5 69t31.5 89.5z" />
    <glyph glyph-name="ccedilla" unicode="&#xe7;" horiz-adv-x="624" 
d="M355 492q-38 0 -75.5 -13t-69.5 -40t-55 -68t-33 -98t-1.5 -98t31 -68t55.5 -40t71 -13q73 0 129 37t79 103h74q-29 -85 -98 -138.5t-165 -61.5l-13 -68q56 3 88 -20.5t23 -75.5q-8 -45 -44.5 -66.5t-87.5 -21.5h-92l8 43h82q41 0 60 13t23 34q4 23 -9.5 39.5t-55.5 16.5
h-49l20 106q-54 3 -96 23.5t-69 57t-36.5 88t2.5 115.5q11 65 40 116t70.5 86.5t93.5 54t109 18.5q54 0 95.5 -14.5t70.5 -41t43.5 -63.5t14.5 -82h-74q0 66 -43 103t-116 37z" />
    <glyph glyph-name="egrave" unicode="&#xe8;" horiz-adv-x="625" 
d="M462 595l-137 92l22 41l132 -102zM366 553q62 0 106.5 -20t71.5 -54t36.5 -78.5t0.5 -92.5q-3 -17 -5.5 -27.5t-7.5 -23.5h-452q-8 -54 2 -93t32.5 -64t55 -37t69.5 -12q73 0 129 37t79 100h74q-15 -42 -42 -78t-64.5 -62t-83.5 -40.5t-100 -14.5q-58 0 -103.5 19.5
t-74.5 56t-40 89t1 118.5q12 65 41 116.5t71 87t94 54.5t110 19zM508 293q12 53 4 91.5t-30.5 63.5t-55.5 36.5t-70 11.5q-38 0 -75 -12t-68.5 -36.5t-55 -63t-34.5 -91.5h385z" />
    <glyph glyph-name="eacute" unicode="&#xe9;" horiz-adv-x="625" 
d="M305 599l-11 27l162 102l17 -39zM366 553q62 0 106.5 -20t71.5 -54t36.5 -78.5t0.5 -92.5q-3 -17 -5.5 -27.5t-7.5 -23.5h-452q-8 -54 2 -93t32.5 -64t55 -37t69.5 -12q73 0 129 37t79 100h74q-15 -42 -42 -78t-64.5 -62t-83.5 -40.5t-100 -14.5q-58 0 -103.5 19.5
t-74.5 56t-40 89t1 118.5q12 65 41 116.5t71 87t94 54.5t110 19zM508 293q12 53 4 91.5t-30.5 63.5t-55.5 36.5t-70 11.5q-38 0 -75 -12t-68.5 -36.5t-55 -63t-34.5 -91.5h385z" />
    <glyph glyph-name="ecircumflex" unicode="&#xea;" horiz-adv-x="625" 
d="M270 598l-11 32l141 78l112 -78l-20 -32l-99 68zM366 553q62 0 106.5 -20t71.5 -54t36.5 -78.5t0.5 -92.5q-3 -17 -5.5 -27.5t-7.5 -23.5h-452q-8 -54 2 -93t32.5 -64t55 -37t69.5 -12q73 0 129 37t79 100h74q-15 -42 -42 -78t-64.5 -62t-83.5 -40.5t-100 -14.5
q-58 0 -103.5 19.5t-74.5 56t-40 89t1 118.5q12 65 41 116.5t71 87t94 54.5t110 19zM508 293q12 53 4 91.5t-30.5 63.5t-55.5 36.5t-70 11.5q-38 0 -75 -12t-68.5 -36.5t-55 -63t-34.5 -91.5h385z" />
    <glyph glyph-name="edieresis" unicode="&#xeb;" horiz-adv-x="625" 
d="M291 625q-19 0 -29.5 13t-6.5 31q3 19 17.5 31.5t33.5 12.5t29.5 -12.5t7.5 -31.5q-4 -18 -19 -31t-33 -13zM448 625q-19 0 -29.5 13t-6.5 31q3 19 17.5 31.5t33.5 12.5q18 0 28.5 -12.5t7.5 -31.5q-4 -18 -18.5 -31t-32.5 -13zM366 553q62 0 106.5 -20t71.5 -54
t36.5 -78.5t0.5 -92.5q-3 -17 -5.5 -27.5t-7.5 -23.5h-452q-8 -54 2 -93t32.5 -64t55 -37t69.5 -12q73 0 129 37t79 100h74q-15 -42 -42 -78t-64.5 -62t-83.5 -40.5t-100 -14.5q-58 0 -103.5 19.5t-74.5 56t-40 89t1 118.5q12 65 41 116.5t71 87t94 54.5t110 19zM508 293
q12 53 4 91.5t-30.5 63.5t-55.5 36.5t-70 11.5q-38 0 -75 -12t-68.5 -36.5t-55 -63t-34.5 -91.5h385z" />
    <glyph glyph-name="igrave" unicode="&#xec;" horiz-adv-x="221" 
d="M277 626l-17 -31l-137 92l22 41zM194 546l-97 -546h-70l96 546h71z" />
    <glyph glyph-name="iacute" unicode="&#xed;" horiz-adv-x="221" 
d="M271 689l-168 -90l-11 27l162 102zM194 546l-97 -546h-70l96 546h71z" />
    <glyph glyph-name="icircumflex" unicode="&#xee;" horiz-adv-x="221" 
d="M191 666l-123 -68l-11 32l141 78l112 -78l-20 -32zM194 546l-97 -546h-70l96 546h71z" />
    <glyph glyph-name="idieresis" unicode="&#xef;" horiz-adv-x="223" 
d="M62 669q3 19 17.5 31.5t33.5 12.5t29.5 -12.5t7.5 -31.5q-4 -18 -19 -31t-33 -13q-19 0 -29.5 13t-6.5 31zM219 669q3 19 17.5 31.5t33.5 12.5q18 0 28.5 -12.5t7.5 -31.5q-4 -18 -18.5 -31t-32.5 -13q-19 0 -29.5 13t-6.5 31zM194 546l-97 -546h-70l96 546h71z" />
    <glyph glyph-name="eth" unicode="&#xf0;" horiz-adv-x="642" 
d="M613 708l-113 -37q63 -79 84.5 -168t2.5 -193q-14 -79 -44.5 -138.5t-73.5 -99.5t-96 -59.5t-112 -19.5q-62 0 -109 21t-76 59.5t-39.5 92.5t1.5 120q11 61 39 111t69.5 85t94 54.5t112.5 19.5q33 0 63 -9t54 -27.5t40 -47.5t22 -69q-1 72 -19 132.5t-63 119.5l-150 -49
l5 32l126 41q-13 15 -27.5 30t-31.5 31h64q12 -11 22.5 -22.5t21.5 -22.5l138 45zM509 273q10 55 1 96.5t-31.5 69.5t-56.5 42t-74 14q-42 0 -81.5 -13.5t-71 -40t-54 -66t-31.5 -90.5q-10 -55 -2 -98t30 -72.5t56.5 -44.5t77.5 -15q41 0 80 14t70.5 42t54.5 68.5t32 93.5z
" />
    <glyph glyph-name="ntilde" unicode="&#xf1;" horiz-adv-x="635" 
d="M327 652q-35 0 -49 -46h-35q27 86 93 86q19 0 31.5 -7.5t22.5 -16t21 -16t27 -7.5t29.5 11t20.5 34h36q-11 -41 -36.5 -63t-57.5 -22q-20 0 -33 7.5t-23.5 16t-21 16t-25.5 7.5zM398 556q45 0 82 -14.5t60.5 -44t32 -74t-2.5 -105.5l-56 -318h-69l55 313q16 91 -22 137.5
t-114 46.5q-78 0 -137 -51t-78 -156l-51 -290h-71l96 546h71l-24 -134q35 73 97 108.5t131 35.5z" />
    <glyph glyph-name="ograve" unicode="&#xf2;" horiz-adv-x="645" 
d="M489 626l-17 -31l-137 92l22 41zM371 553q59 0 105.5 -19.5t76.5 -56t42 -89.5t0 -120q-12 -64 -41.5 -115.5t-72 -86.5t-95 -54t-110.5 -19q-59 0 -106 19.5t-77.5 56.5t-42.5 89.5t0 119.5q12 65 41.5 116t72.5 86.5t96 54t111 18.5zM361 492q-38 0 -76.5 -13
t-71.5 -40t-57 -68t-34 -98t-0.5 -98t33 -67.5t57 -39.5t72.5 -13t77.5 13t71 39.5t56.5 67.5t34 98t0.5 98t-32.5 68t-57 40t-73 13z" />
    <glyph glyph-name="oacute" unicode="&#xf3;" horiz-adv-x="645" 
d="M483 689l-168 -90l-11 27l162 102zM371 553q59 0 105.5 -19.5t76.5 -56t42 -89.5t0 -120q-12 -64 -41.5 -115.5t-72 -86.5t-95 -54t-110.5 -19q-59 0 -106 19.5t-77.5 56.5t-42.5 89.5t0 119.5q12 65 41.5 116t72.5 86.5t96 54t111 18.5zM361 492q-38 0 -76.5 -13
t-71.5 -40t-57 -68t-34 -98t-0.5 -98t33 -67.5t57 -39.5t72.5 -13t77.5 13t71 39.5t56.5 67.5t34 98t0.5 98t-32.5 68t-57 40t-73 13z" />
    <glyph glyph-name="ocircumflex" unicode="&#xf4;" horiz-adv-x="645" 
d="M403 666l-123 -68l-11 32l141 78l112 -78l-20 -32zM371 553q59 0 105.5 -19.5t76.5 -56t42 -89.5t0 -120q-12 -64 -41.5 -115.5t-72 -86.5t-95 -54t-110.5 -19q-59 0 -106 19.5t-77.5 56.5t-42.5 89.5t0 119.5q12 65 41.5 116t72.5 86.5t96 54t111 18.5zM361 492
q-38 0 -76.5 -13t-71.5 -40t-57 -68t-34 -98t-0.5 -98t33 -67.5t57 -39.5t72.5 -13t77.5 13t71 39.5t56.5 67.5t34 98t0.5 98t-32.5 68t-57 40t-73 13z" />
    <glyph glyph-name="otilde" unicode="&#xf5;" horiz-adv-x="645" 
d="M341 692q19 0 31.5 -7.5t22.5 -16t21 -16t27 -7.5t29.5 11t20.5 34h36q-11 -41 -36.5 -63t-57.5 -22q-20 0 -33 7.5t-23.5 16t-21 16t-25.5 7.5q-35 0 -49 -46h-35q27 86 93 86zM371 553q59 0 105.5 -19.5t76.5 -56t42 -89.5t0 -120q-12 -64 -41.5 -115.5t-72 -86.5
t-95 -54t-110.5 -19q-59 0 -106 19.5t-77.5 56.5t-42.5 89.5t0 119.5q12 65 41.5 116t72.5 86.5t96 54t111 18.5zM361 492q-38 0 -76.5 -13t-71.5 -40t-57 -68t-34 -98t-0.5 -98t33 -67.5t57 -39.5t72.5 -13t77.5 13t71 39.5t56.5 67.5t34 98t0.5 98t-32.5 68t-57 40t-73 13
z" />
    <glyph glyph-name="odieresis" unicode="&#xf6;" horiz-adv-x="645" 
d="M266 669q3 19 17.5 31.5t33.5 12.5t29.5 -12.5t7.5 -31.5q-4 -18 -19 -31t-33 -13q-19 0 -29.5 13t-6.5 31zM423 669q3 19 17.5 31.5t33.5 12.5q18 0 28.5 -12.5t7.5 -31.5q-4 -18 -18.5 -31t-32.5 -13q-19 0 -29.5 13t-6.5 31zM371 553q59 0 105.5 -19.5t76.5 -56
t42 -89.5t0 -120q-12 -64 -41.5 -115.5t-72 -86.5t-95 -54t-110.5 -19q-59 0 -106 19.5t-77.5 56.5t-42.5 89.5t0 119.5q12 65 41.5 116t72.5 86.5t96 54t111 18.5zM361 492q-38 0 -76.5 -13t-71.5 -40t-57 -68t-34 -98t-0.5 -98t33 -67.5t57 -39.5t72.5 -13t77.5 13
t71 39.5t56.5 67.5t34 98t0.5 98t-32.5 68t-57 40t-73 13z" />
    <glyph glyph-name="divide" unicode="&#xf7;" horiz-adv-x="580" 
d="M382 634l-16 -90h-92l16 90h92zM550 402l-11 -64h-510l11 64h510zM306 199l-16 -90h-93l16 90h93z" />
    <glyph glyph-name="oslash" unicode="&#xf8;" horiz-adv-x="641" 
d="M553 470q27 -36 37 -87t-1 -115q-12 -64 -41.5 -115.5t-72 -86.5t-95 -54t-110.5 -19q-107 0 -170 61l-59 -54h-43l83 76q-28 37 -38 87.5t1 114.5q12 65 41.5 116t72.5 86.5t96 54t111 18.5q53 0 96 -15.5t73 -45.5l59 54h42zM116 273q-8 -48 -3 -84.5t22 -62.5l346 317
q-23 25 -56 37t-70 12q-38 0 -76.5 -13t-71.5 -40t-57 -68t-34 -98zM517 273q8 48 3 84.5t-22 62.5l-345 -317q23 -25 55.5 -36.5t69.5 -11.5q39 0 77.5 13t71 39.5t56.5 67.5t34 98z" />
    <glyph glyph-name="ugrave" unicode="&#xf9;" horiz-adv-x="621" 
d="M461 595l-137 92l22 41l132 -102zM594 546l-96 -546h-71l24 135q-35 -74 -97 -109.5t-131 -35.5q-45 0 -82 14.5t-60.5 44t-32 74t2.5 105.5l56 318h69l-55 -312q-16 -92 22 -138.5t114 -46.5q78 0 137 51t78 156l51 290h71z" />
    <glyph glyph-name="uacute" unicode="&#xfa;" horiz-adv-x="621" 
d="M304 599l-11 27l162 102l17 -39zM594 546l-96 -546h-71l24 135q-35 -74 -97 -109.5t-131 -35.5q-45 0 -82 14.5t-60.5 44t-32 74t2.5 105.5l56 318h69l-55 -312q-16 -92 22 -138.5t114 -46.5q78 0 137 51t78 156l51 290h71z" />
    <glyph glyph-name="ucircumflex" unicode="&#xfb;" horiz-adv-x="621" 
d="M269 598l-11 32l141 78l112 -78l-20 -32l-99 68zM594 546l-96 -546h-71l24 135q-35 -74 -97 -109.5t-131 -35.5q-45 0 -82 14.5t-60.5 44t-32 74t2.5 105.5l56 318h69l-55 -312q-16 -92 22 -138.5t114 -46.5q78 0 137 51t78 156l51 290h71z" />
    <glyph glyph-name="udieresis" unicode="&#xfc;" horiz-adv-x="624" 
d="M284 625q-19 0 -29.5 13t-6.5 31q3 19 17.5 31.5t33.5 12.5t29.5 -12.5t7.5 -31.5q-4 -18 -19 -31t-33 -13zM441 625q-19 0 -29.5 13t-6.5 31q3 19 17.5 31.5t33.5 12.5q18 0 28.5 -12.5t7.5 -31.5q-4 -18 -18.5 -31t-32.5 -13zM594 546l-96 -546h-71l24 135
q-35 -74 -97 -109.5t-131 -35.5q-45 0 -82 14.5t-60.5 44t-32 74t2.5 105.5l56 318h69l-55 -312q-16 -92 22 -138.5t114 -46.5q78 0 137 51t78 156l51 290h71z" />
    <glyph glyph-name="yacute" unicode="&#xfd;" horiz-adv-x="544" 
d="M433 689l-168 -90l-11 27l162 102zM129 546l110 -455l256 455h78l-464 -804h-79l157 264l-136 540h78z" />
    <glyph glyph-name="thorn" unicode="&#xfe;" horiz-adv-x="673" 
d="M416 552q57 0 101 -19.5t72 -56t38 -88t-1 -116.5q-11 -66 -39 -118t-68.5 -87.5t-90.5 -54.5t-106 -19q-85 0 -134.5 42t-60.5 111l-71 -404h-70l176 998h69l-59 -337q35 67 97.5 108t146.5 41zM314 55q45 0 85 14.5t71.5 42t53.5 68t31 92.5t1 93t-29.5 69t-56 42.5
t-79.5 14.5q-43 0 -82.5 -15t-72 -43.5t-55.5 -68.5t-32 -91t-0.5 -91t31 -68.5t57 -43.5t77.5 -15z" />
    <glyph glyph-name="ydieresis" unicode="&#xff;" horiz-adv-x="547" 
d="M210 669q3 19 17.5 31.5t33.5 12.5t29.5 -12.5t7.5 -31.5q-4 -18 -19 -31t-33 -13q-19 0 -29.5 13t-6.5 31zM367 669q3 19 17.5 31.5t33.5 12.5q18 0 28.5 -12.5t7.5 -31.5q-4 -18 -18.5 -31t-32.5 -13q-19 0 -29.5 13t-6.5 31zM129 546l110 -455l256 455h78l-464 -804
h-79l157 264l-136 540h78z" />
    <glyph glyph-name="Amacron" unicode="&#x100;" horiz-adv-x="644" 
d="M590 859l-8 -50h-340l9 50h339zM423 689l138 -689h-76l-33 172h-321l-94 -172h-75l382 689h79zM442 228l-73 382l-208 -382h281z" />
    <glyph glyph-name="amacron" unicode="&#x101;" 
d="M560 700l-8 -50h-340l9 50h339zM353 553q88 0 138 -44t59 -113l26 150h70l-96 -546h-70l27 150q-33 -69 -98 -113t-152 -44q-57 0 -100.5 19.5t-71 56.5t-37 90t2.5 119q11 65 39 116t68 86t90 54t105 19zM363 491q-46 0 -86 -15t-71.5 -43t-53 -68.5t-30.5 -91.5
q-18 -103 27 -160.5t137 -57.5q44 0 84 15.5t72.5 44t54.5 69t31 89.5q9 50 1 90t-30 68.5t-57 44t-79 15.5z" />
    <glyph glyph-name="Abreve" unicode="&#x102;" horiz-adv-x="644" 
d="M396 771q-32 0 -54.5 10t-35.5 26.5t-17 38t0 45.5l1 7h37q-7 -38 12 -59.5t64 -21.5t72 21.5t34 59.5h36l-1 -7q-4 -24 -15.5 -45.5t-30.5 -38t-44.5 -26.5t-57.5 -10zM452 172h-321l-94 -172h-75l382 689h79l138 -689h-76zM442 228l-73 382l-208 -382h281z" />
    <glyph glyph-name="abreve" unicode="&#x103;" 
d="M388 612q-32 0 -54.5 10t-35.5 26.5t-17 38t0 45.5l1 7h37q-7 -38 12 -59.5t64 -21.5t72 21.5t34 59.5h36l-1 -7q-4 -24 -15.5 -45.5t-30.5 -38t-44.5 -26.5t-57.5 -10zM353 553q88 0 138 -44t59 -113l26 150h70l-96 -546h-70l27 150q-33 -69 -98 -113t-152 -44
q-57 0 -100.5 19.5t-71 56.5t-37 90t2.5 119q11 65 39 116t68 86t90 54t105 19zM363 491q-46 0 -86 -15t-71.5 -43t-53 -68.5t-30.5 -91.5q-18 -103 27 -160.5t137 -57.5q44 0 84 15.5t72.5 44t54.5 69t31 89.5q9 50 1 90t-30 68.5t-57 44t-79 15.5z" />
    <glyph glyph-name="Aogonek" unicode="&#x104;" horiz-adv-x="644" 
d="M587 -154l-8 -43h-93q-57 0 -86 26.5t-20 74.5q6 37 34.5 63.5t82.5 34.5l-32 170h-320l-94 -172h-76l382 689h79l137 -685l-7 -38h-46q-36 0 -59.5 -15.5t-28.5 -44.5t13 -44.5t54 -15.5h88zM454 228l-73 379l-206 -379h279z" />
    <glyph glyph-name="aogonek" unicode="&#x105;" 
d="M413 -84q-5 -30 13 -47.5t54 -17.5h87l-7 -43h-93q-57 0 -85.5 28t-20.5 79q8 42 39.5 67t81.5 28l25 140q-33 -69 -98 -113t-152 -44q-57 0 -100.5 19.5t-71 56.5t-37 90t2.5 119q11 65 39 116t68 86t90 54t105 19q88 0 138 -44t59 -113l26 150h70l-94 -535h3l-8 -40
h-46q-36 0 -59.5 -14.5t-28.5 -40.5zM286 55q44 0 84 15.5t72.5 44t54.5 69t31 89.5q9 50 1 90t-30 68.5t-57 44t-79 15.5q-46 0 -86 -15t-71.5 -43t-53 -68.5t-30.5 -91.5q-18 -103 27 -160.5t137 -57.5z" />
    <glyph glyph-name="Cacute" unicode="&#x106;" horiz-adv-x="765" 
d="M572 848l-168 -90l-11 27l162 102zM449 712q65 0 115.5 -16.5t86 -47t56.5 -73t28 -94.5h-73q-14 73 -70 119.5t-155 46.5q-55 0 -106 -20.5t-93 -58.5t-72 -92.5t-42 -123.5q-12 -68 -1.5 -122.5t39 -92.5t72.5 -58.5t99 -20.5q100 0 171.5 47t111.5 119h74
q-25 -52 -61.5 -94.5t-82.5 -73t-102 -47t-121 -16.5q-74 0 -131 26.5t-92.5 74t-48.5 113.5t1 145q14 80 50 146t88.5 113.5t118.5 74t140 26.5z" />
    <glyph glyph-name="cacute" unicode="&#x107;" horiz-adv-x="625" 
d="M473 689l-168 -90l-11 27l162 102zM364 553q54 0 95.5 -14.5t70.5 -41t43.5 -63.5t14.5 -82h-74q0 66 -43 103t-116 37q-38 0 -75.5 -13t-69.5 -40t-55 -68t-33 -98t-1.5 -98t31 -68t55.5 -40t71 -13q73 0 129 37t79 103h74q-16 -45 -43.5 -82t-65 -63.5t-84 -41
t-99.5 -14.5q-58 0 -103.5 19.5t-75 56.5t-40 89.5t1.5 119.5q11 65 40 116t70.5 86.5t93.5 54t109 18.5z" />
    <glyph glyph-name="Cdotaccent" unicode="&#x10a;" horiz-adv-x="765" 
d="M432 828q3 19 18 31.5t33 12.5q19 0 29.5 -12.5t7.5 -31.5q-4 -18 -19 -31t-33 -13t-29 13t-7 31zM449 712q65 0 115.5 -16.5t86 -47t56.5 -73t28 -94.5h-73q-14 73 -70 119.5t-155 46.5q-55 0 -106 -20.5t-93 -58.5t-72 -92.5t-42 -123.5q-12 -68 -1.5 -122.5t39 -92.5
t72.5 -58.5t99 -20.5q100 0 171.5 47t111.5 119h74q-25 -52 -61.5 -94.5t-82.5 -73t-102 -47t-121 -16.5q-74 0 -131 26.5t-92.5 74t-48.5 113.5t1 145q14 80 50 146t88.5 113.5t118.5 74t140 26.5z" />
    <glyph glyph-name="cdotaccent" unicode="&#x10b;" horiz-adv-x="624" 
d="M331 669q3 19 18 31.5t33 12.5q19 0 29.5 -12.5t7.5 -31.5q-4 -18 -19 -31t-33 -13t-29 13t-7 31zM364 553q54 0 95.5 -14.5t70.5 -41t43.5 -63.5t14.5 -82h-74q0 66 -43 103t-116 37q-38 0 -75.5 -13t-69.5 -40t-55 -68t-33 -98t-1.5 -98t31 -68t55.5 -40t71 -13
q73 0 129 37t79 103h74q-16 -45 -43.5 -82t-65 -63.5t-84 -41t-99.5 -14.5q-58 0 -103.5 19.5t-75 56.5t-40 89.5t1.5 119.5q11 65 40 116t70.5 86.5t93.5 54t109 18.5z" />
    <glyph glyph-name="Ccaron" unicode="&#x10c;" horiz-adv-x="765" 
d="M611 852l-148 -82l-120 82l9 51l120 -83l148 83zM449 712q65 0 115.5 -16.5t86 -47t56.5 -73t28 -94.5h-73q-14 73 -70 119.5t-155 46.5q-55 0 -106 -20.5t-93 -58.5t-72 -92.5t-42 -123.5q-12 -68 -1.5 -122.5t39 -92.5t72.5 -58.5t99 -20.5q100 0 171.5 47t111.5 119
h74q-25 -52 -61.5 -94.5t-82.5 -73t-102 -47t-121 -16.5q-74 0 -131 26.5t-92.5 74t-48.5 113.5t1 145q14 80 50 146t88.5 113.5t118.5 74t140 26.5z" />
    <glyph glyph-name="ccaron" unicode="&#x10d;" horiz-adv-x="624" 
d="M509 693l-148 -82l-120 82l9 51l120 -83l148 83zM364 553q54 0 95.5 -14.5t70.5 -41t43.5 -63.5t14.5 -82h-74q0 66 -43 103t-116 37q-38 0 -75.5 -13t-69.5 -40t-55 -68t-33 -98t-1.5 -98t31 -68t55.5 -40t71 -13q73 0 129 37t79 103h74q-16 -45 -43.5 -82t-65 -63.5
t-84 -41t-99.5 -14.5q-58 0 -103.5 19.5t-75 56.5t-40 89.5t1.5 119.5q11 65 40 116t70.5 86.5t93.5 54t109 18.5z" />
    <glyph glyph-name="Dcaron" unicode="&#x10e;" horiz-adv-x="712" 
d="M593 852l-148 -82l-120 82l9 51l120 -83l148 83zM660 353q-14 -81 -50 -146.5t-91 -111.5t-128.5 -70.5t-163.5 -24.5h-213l124 705h213q90 0 155 -24.5t104 -70t51.5 -110.5t-1.5 -147zM233 63q151 0 241.5 77.5t114.5 212.5q23 135 -40 212.5t-214 77.5h-137l-102 -580
h137z" />
    <glyph glyph-name="dcaron" unicode="&#x10f;" horiz-adv-x="717" 
d="M669 740l-130 -740h-70l26 150q-33 -69 -97.5 -113t-151.5 -44q-56 0 -99.5 19.5t-71.5 56.5t-37.5 90t2.5 119q11 65 39 116t68 86t90 54t105 19q88 0 138 -44t59 -113l60 344h70zM800 740q1 -25 -0.5 -46t-4.5 -39q-10 -54 -37.5 -78.5t-72.5 -24.5l6 35q26 0 39 13
t18 39l5 25h-47l13 76h81zM352 491q-46 0 -86 -15t-71.5 -43t-53 -68.5t-30.5 -91.5q-18 -103 27 -160.5t137 -57.5q44 0 84 15.5t72.5 44t54.5 69t31 89.5q9 50 1 90t-30.5 68.5t-57 44t-78.5 15.5z" />
    <glyph glyph-name="Dcroat" unicode="&#x110;" horiz-adv-x="742" 
d="M381 705q90 0 155 -24.5t104 -70t51.5 -110.5t-1.5 -147q-14 -81 -50 -146.5t-91 -111.5t-128.5 -70.5t-163.5 -24.5h-213l57 324h-98l10 58h98l57 323h213zM619 353q23 135 -40 212.5t-214 77.5h-137l-46 -261h207l-10 -58h-207l-46 -261h137q151 0 241.5 77.5
t114.5 212.5z" />
    <glyph glyph-name="dcroat" unicode="&#x111;" horiz-adv-x="668" 
d="M710 636h-59l-112 -636h-70l26 150q-33 -69 -97.5 -113t-151.5 -44q-56 0 -99.5 19.5t-71.5 56.5t-37.5 90t2.5 119q11 65 39 116t68 86t90 54t105 19q88 0 138 -44t59 -113l42 240h-176l7 37h175l12 67h70l-12 -67h60zM517 273q9 50 1 90t-30.5 68.5t-57 44t-78.5 15.5
q-46 0 -86 -15t-71.5 -43t-53 -68.5t-30.5 -91.5q-18 -103 27 -160.5t137 -57.5q44 0 84 15.5t72.5 44t54.5 69t31 89.5z" />
    <glyph glyph-name="Emacron" unicode="&#x112;" horiz-adv-x="498" 
d="M531 859l-8 -50h-340l9 50h339zM199 648l-47 -266h275l-9 -55h-276l-47 -269h305l-10 -58h-376l124 705h376l-10 -57h-305z" />
    <glyph glyph-name="emacron" unicode="&#x113;" horiz-adv-x="625" 
d="M543 650h-340l9 50h339zM366 553q62 0 106.5 -20t71.5 -54t36.5 -78.5t0.5 -92.5q-3 -17 -5.5 -27.5t-7.5 -23.5h-452q-8 -54 2 -93t32.5 -64t55 -37t69.5 -12q73 0 129 37t79 100h74q-15 -42 -42 -78t-64.5 -62t-83.5 -40.5t-100 -14.5q-58 0 -103.5 19.5t-74.5 56
t-40 89t1 118.5q12 65 41 116.5t71 87t94 54.5t110 19zM508 293q12 53 4 91.5t-30.5 63.5t-55.5 36.5t-70 11.5q-38 0 -75 -12t-68.5 -36.5t-55 -63t-34.5 -91.5h385z" />
    <glyph glyph-name="Ebreve" unicode="&#x114;" horiz-adv-x="498" 
d="M328 771q-32 0 -54.5 10t-35.5 26.5t-17 38t0 45.5l1 7h37q-7 -38 12 -59.5t64 -21.5t72 21.5t34 59.5h36l-1 -7q-4 -24 -15.5 -45.5t-30.5 -38t-44.5 -26.5t-57.5 -10zM199 648l-47 -266h275l-9 -55h-276l-47 -269h305l-10 -58h-376l124 705h376l-10 -57h-305z" />
    <glyph glyph-name="ebreve" unicode="&#x115;" horiz-adv-x="625" 
d="M363 612q-32 0 -54.5 10t-35.5 26.5t-17 38t0 45.5l1 7h37q-7 -38 12 -59.5t64 -21.5t72 21.5t34 59.5h36l-1 -7q-4 -24 -15.5 -45.5t-30.5 -38t-44.5 -26.5t-57.5 -10zM366 553q62 0 106.5 -20t71.5 -54t36.5 -78.5t0.5 -92.5q-3 -17 -5.5 -27.5t-7.5 -23.5h-452
q-8 -54 2 -93t32.5 -64t55 -37t69.5 -12q73 0 129 37t79 100h74q-15 -42 -42 -78t-64.5 -62t-83.5 -40.5t-100 -14.5q-58 0 -103.5 19.5t-74.5 56t-40 89t1 118.5q12 65 41 116.5t71 87t94 54.5t110 19zM508 293q12 53 4 91.5t-30.5 63.5t-55.5 36.5t-70 11.5q-38 0 -75 -12
t-68.5 -36.5t-55 -63t-34.5 -91.5h385z" />
    <glyph glyph-name="Edotaccent" unicode="&#x116;" horiz-adv-x="498" 
d="M312 828q3 19 18 31.5t33 12.5q19 0 29.5 -12.5t7.5 -31.5q-4 -18 -19 -31t-33 -13t-29 13t-7 31zM199 648l-47 -266h275l-9 -55h-276l-47 -269h305l-10 -58h-376l124 705h376l-10 -57h-305z" />
    <glyph glyph-name="edotaccent" unicode="&#x117;" horiz-adv-x="625" 
d="M368 625q-18 0 -29 13t-7 31q3 19 18 31.5t33 12.5q19 0 29.5 -12.5t7.5 -31.5q-4 -18 -19 -31t-33 -13zM366 553q62 0 106.5 -20t71.5 -54t36.5 -78.5t0.5 -92.5q-3 -17 -5.5 -27.5t-7.5 -23.5h-452q-8 -54 2 -93t32.5 -64t55 -37t69.5 -12q73 0 129 37t79 100h74
q-15 -42 -42 -78t-64.5 -62t-83.5 -40.5t-100 -14.5q-58 0 -103.5 19.5t-74.5 56t-40 89t1 118.5q12 65 41 116.5t71 87t94 54.5t110 19zM508 293q12 53 4 91.5t-30.5 63.5t-55.5 36.5t-70 11.5q-38 0 -75 -12t-68.5 -36.5t-55 -63t-34.5 -91.5h385z" />
    <glyph glyph-name="Eogonek" unicode="&#x118;" horiz-adv-x="498" 
d="M199 648l-47 -266h275l-9 -55h-276l-47 -269h305l-10 -58h-3l-2 -11h-46q-36 0 -59.5 -14.5t-28.5 -40.5q-5 -30 13 -47.5t54 -17.5h87l-7 -43h-93q-57 0 -85.5 28t-20.5 79q8 42 40 67h-225l124 705h376l-10 -57h-305z" />
    <glyph glyph-name="eogonek" unicode="&#x119;" horiz-adv-x="625" 
d="M377 553q62 0 106.5 -20t71.5 -54t36 -78.5t0 -92.5q-2 -17 -5 -27.5t-8 -23.5h-451q-9 -54 1 -93t33 -64t55.5 -37t69.5 -12q73 0 129 37t79 100h74q-26 -75 -90 -127t-152 -64q-14 -2 -20 -8t-8 -17q-4 -23 14.5 -38.5t56.5 -15.5h82l-7 -43h-91q-56 0 -85 27t-21 75
l4 19q-52 4 -92 24.5t-65.5 56t-34.5 85t2 111.5q11 66 40 118t71 88t94.5 55t110.5 19zM519 293q12 53 4 91.5t-30.5 63.5t-55.5 36.5t-70 11.5q-38 0 -75.5 -12t-69 -36.5t-55 -63t-34.5 -91.5h386z" />
    <glyph glyph-name="Ecaron" unicode="&#x11a;" horiz-adv-x="498" 
d="M490 852l-148 -82l-120 82l9 51l120 -83l148 83zM199 648l-47 -266h275l-9 -55h-276l-47 -269h305l-10 -58h-376l124 705h376l-10 -57h-305z" />
    <glyph glyph-name="ecaron" unicode="&#x11b;" horiz-adv-x="625" 
d="M362 611l-120 82l9 51l120 -83l148 83l-9 -51zM366 553q62 0 106.5 -20t71.5 -54t36.5 -78.5t0.5 -92.5q-3 -17 -5.5 -27.5t-7.5 -23.5h-452q-8 -54 2 -93t32.5 -64t55 -37t69.5 -12q73 0 129 37t79 100h74q-15 -42 -42 -78t-64.5 -62t-83.5 -40.5t-100 -14.5
q-58 0 -103.5 19.5t-74.5 56t-40 89t1 118.5q12 65 41 116.5t71 87t94 54.5t110 19zM508 293q12 53 4 91.5t-30.5 63.5t-55.5 36.5t-70 11.5q-38 0 -75 -12t-68.5 -36.5t-55 -63t-34.5 -91.5h385z" />
    <glyph glyph-name="Gbreve" unicode="&#x11e;" horiz-adv-x="782" 
d="M470 771q-32 0 -54.5 10t-35.5 26.5t-17 38t0 45.5l1 7h37q-7 -38 12 -59.5t64 -21.5t72 21.5t34 59.5h36l-1 -7q-4 -24 -15.5 -45.5t-30.5 -38t-44.5 -26.5t-57.5 -10zM457 711q61 0 109.5 -16.5t83.5 -45.5t56.5 -70t28.5 -91h-73q-7 34 -24.5 63t-45 50.5t-64.5 33.5
t-82 12q-57 0 -110 -20.5t-95.5 -58.5t-73 -92.5t-42.5 -123.5q-12 -70 -1 -125t41 -93t77 -58.5t106 -20.5q53 0 103 18t92 52t73.5 83t46.5 111h-293l10 53h353l-11 -62q-16 -69 -52 -127t-86.5 -100.5t-114.5 -66t-138 -23.5q-76 0 -134 26.5t-95 74.5t-50 114.5t1 146.5
q14 78 50 143.5t89.5 113t121 73.5t143.5 26z" />
    <glyph glyph-name="gbreve" unicode="&#x11f;" horiz-adv-x="673" 
d="M388 612q-32 0 -54.5 10t-35.5 26.5t-17 38t0 45.5l1 7h37q-7 -38 12 -59.5t64 -21.5t72 21.5t34 59.5h36l-1 -7q-4 -24 -15.5 -45.5t-30.5 -38t-44.5 -26.5t-57.5 -10zM260 -8q-56 0 -100 20t-71.5 57t-37.5 90t2 119q11 65 39 116t68 86.5t90.5 54.5t105.5 19
q88 0 138 -44t58 -114l27 150h69l-99 -559q-10 -58 -37 -105t-66 -80t-87.5 -51t-102.5 -18q-109 0 -167.5 52.5t-66.5 138.5h69q8 -59 49.5 -94.5t120.5 -35.5q39 0 75 12.5t65.5 37.5t50 60.5t28.5 82.5l30 163q-17 -34 -42 -63t-57 -50t-70 -33t-81 -12zM366 492
q-46 0 -86.5 -15t-72 -43t-53 -69t-30.5 -92t-1.5 -91t29.5 -68t56.5 -43t80.5 -15q44 0 84 15.5t72.5 43.5t54.5 68.5t31 89.5q9 50 0.5 90.5t-31 69t-56.5 44t-78 15.5z" />
    <glyph glyph-name="Gdotaccent" unicode="&#x120;" horiz-adv-x="782" 
d="M439 828q3 19 18 31.5t33 12.5q19 0 29.5 -12.5t7.5 -31.5q-4 -18 -19 -31t-33 -13t-29 13t-7 31zM457 711q61 0 109.5 -16.5t83.5 -45.5t56.5 -70t28.5 -91h-73q-7 34 -24.5 63t-45 50.5t-64.5 33.5t-82 12q-57 0 -110 -20.5t-95.5 -58.5t-73 -92.5t-42.5 -123.5
q-12 -70 -1 -125t41 -93t77 -58.5t106 -20.5q53 0 103 18t92 52t73.5 83t46.5 111h-293l10 53h353l-11 -62q-16 -69 -52 -127t-86.5 -100.5t-114.5 -66t-138 -23.5q-76 0 -134 26.5t-95 74.5t-50 114.5t1 146.5q14 78 50 143.5t89.5 113t121 73.5t143.5 26z" />
    <glyph glyph-name="gdotaccent" unicode="&#x121;" horiz-adv-x="673" 
d="M343 669q3 19 18 31.5t33 12.5q19 0 29.5 -12.5t7.5 -31.5q-4 -18 -19 -31t-33 -13t-29 13t-7 31zM260 -8q-56 0 -100 20t-71.5 57t-37.5 90t2 119q11 65 39 116t68 86.5t90.5 54.5t105.5 19q88 0 138 -44t58 -114l27 150h69l-99 -559q-10 -58 -37 -105t-66 -80
t-87.5 -51t-102.5 -18q-109 0 -167.5 52.5t-66.5 138.5h69q8 -59 49.5 -94.5t120.5 -35.5q39 0 75 12.5t65.5 37.5t50 60.5t28.5 82.5l30 163q-17 -34 -42 -63t-57 -50t-70 -33t-81 -12zM366 492q-46 0 -86.5 -15t-72 -43t-53 -69t-30.5 -92t-1.5 -91t29.5 -68t56.5 -43
t80.5 -15q44 0 84 15.5t72.5 43.5t54.5 68.5t31 89.5q9 50 0.5 90.5t-31 69t-56.5 44t-78 15.5z" />
    <glyph glyph-name="Gcommaaccent" unicode="&#x122;" horiz-adv-x="783" 
d="M459 711q61 0 109.5 -16.5t83.5 -45.5t56.5 -70t28.5 -91h-73q-7 34 -24.5 63t-45 50.5t-64.5 33.5t-82 12q-57 0 -110 -20.5t-95.5 -58.5t-73 -92.5t-42.5 -123.5q-12 -70 -1 -125t41 -93t77 -58.5t106 -20.5q53 0 103 18t92 52t73.5 83t46.5 111h-293l10 53h353
l-11 -62q-16 -69 -52 -127t-86.5 -100.5t-114.5 -66t-138 -23.5q-76 0 -134 26.5t-95 74.5t-50 114.5t1 146.5q14 78 50 143.5t89.5 113t121 73.5t143.5 26zM382 -53q2 -14 1 -29t-3 -28q-11 -58 -39 -83.5t-70 -25.5l5 33q25 0 38.5 15.5t18.5 44.5l1 8h-41l12 65h77z" />
    <glyph glyph-name="gcommaaccent" unicode="&#x123;" horiz-adv-x="673" 
d="M353 595q-1 49 6 85q9 54 37 78.5t72 24.5l-6 -35q-26 0 -39 -13t-18 -39l-4 -25h46l-13 -76h-81zM247 -8q-56 0 -100 20t-71.5 57t-37.5 90t2 119q11 65 39 116t68 86.5t90.5 54.5t105.5 19q88 0 138 -44t58 -114l27 150h69l-99 -559q-10 -58 -37 -105t-66 -80
t-87.5 -51t-102.5 -18q-109 0 -167.5 52.5t-66.5 138.5h69q8 -59 49.5 -94.5t120.5 -35.5q39 0 75 12.5t65.5 37.5t50 60.5t28.5 82.5l30 163q-17 -34 -42 -63t-57 -50t-70 -33t-81 -12zM353 492q-46 0 -86.5 -15t-72 -43t-53 -69t-30.5 -92t-1.5 -91t29.5 -68t56.5 -43
t80.5 -15q44 0 84 15.5t72.5 43.5t54.5 68.5t31 89.5q9 50 0.5 90.5t-31 69t-56.5 44t-78 15.5z" />
    <glyph glyph-name="Itilde" unicode="&#x128;" horiz-adv-x="223" 
d="M158 851q19 0 31.5 -7.5t22.5 -16t21 -16t27 -7.5t29.5 11t20.5 34h36q-11 -41 -36.5 -63t-57.5 -22q-20 0 -33 7.5t-23.5 16t-21 16t-25.5 7.5q-35 0 -49 -46h-35q27 86 93 86zM209 705l-124 -705h-71l124 705h71z" />
    <glyph glyph-name="itilde" unicode="&#x129;" horiz-adv-x="221" 
d="M129 692q19 0 31.5 -7.5t22.5 -16t21 -16t27 -7.5t29.5 11t20.5 34h36q-11 -41 -36.5 -63t-57.5 -22q-20 0 -33 7.5t-23.5 16t-21 16t-25.5 7.5q-35 0 -49 -46h-35q27 86 93 86zM194 546l-97 -546h-70l96 546h71z" />
    <glyph glyph-name="Imacron" unicode="&#x12a;" horiz-adv-x="223" 
d="M381 859l-8 -50h-340l9 50h339zM209 705l-124 -705h-71l124 705h71z" />
    <glyph glyph-name="imacron" unicode="&#x12b;" horiz-adv-x="226" 
d="M353 700l-8 -50h-340l9 50h339zM194 546l-97 -546h-70l96 546h71z" />
    <glyph glyph-name="Ibreve" unicode="&#x12c;" horiz-adv-x="223" 
d="M190 771q-32 0 -54.5 10t-35.5 26.5t-17 38t0 45.5l1 7h37q-7 -38 12 -59.5t64 -21.5t72 21.5t34 59.5h36l-1 -7q-4 -24 -15.5 -45.5t-30.5 -38t-44.5 -26.5t-57.5 -10zM209 705l-124 -705h-71l124 705h71z" />
    <glyph glyph-name="ibreve" unicode="&#x12d;" horiz-adv-x="221" 
d="M161 612q-32 0 -54.5 10t-35.5 26.5t-17 38t0 45.5l1 7h37q-7 -38 12 -59.5t64 -21.5t72 21.5t34 59.5h36l-1 -7q-4 -24 -15.5 -45.5t-30.5 -38t-44.5 -26.5t-57.5 -10zM194 546l-97 -546h-70l96 546h71z" />
    <glyph glyph-name="Iogonek" unicode="&#x12e;" horiz-adv-x="223" 
d="M-57 -84q-5 -30 13 -47.5t54 -17.5h87l-7 -43h-93q-57 0 -85.5 28t-20.5 79q8 43 41 68t84 28l122 694h71l-124 -705h-2l-6 -29h-46q-36 0 -59.5 -14.5t-28.5 -40.5z" />
    <glyph glyph-name="iogonek" unicode="&#x12f;" horiz-adv-x="221" 
d="M196 756q23 0 34.5 -13t7.5 -35q-3 -21 -19.5 -34t-39.5 -13t-35 13t-8 34q4 22 20.5 35t39.5 13zM43 -29q-36 0 -59.5 -14.5t-28.5 -40.5q-5 -30 13 -47.5t54 -17.5h87l-7 -43h-93q-57 0 -85.5 28t-20.5 79q8 43 41 68t84 28l95 535h71l-97 -546h-2l-6 -29h-46z" />
    <glyph glyph-name="Idotaccent" unicode="&#x130;" horiz-adv-x="223" 
d="M161 828q3 19 18 31.5t33 12.5q19 0 29.5 -12.5t7.5 -31.5q-4 -18 -19 -31t-33 -13t-29 13t-7 31zM209 705l-124 -705h-71l124 705h71z" />
    <glyph glyph-name="dotlessi" unicode="&#x131;" horiz-adv-x="221" 
d="M194 546l-97 -546h-70l96 546h71z" />
    <glyph glyph-name="Kcommaaccent" unicode="&#x136;" horiz-adv-x="558" 
d="M204 354l270 -354h-87l-250 331l-58 -331h-71l124 705h71l-58 -330l366 330h87zM268 -53q2 -14 0.5 -29t-3.5 -28q-10 -58 -38.5 -83.5t-70.5 -25.5l6 33q25 0 38.5 15.5t18.5 44.5l1 8h-41l11 65h78z" />
    <glyph glyph-name="kcommaaccent" unicode="&#x137;" horiz-adv-x="465" 
d="M196 278l207 -278h-87l-178 251l-44 -251h-70l130 740h71l-76 -432l259 238h87zM215 -53q2 -14 1 -29t-3 -28q-11 -58 -39 -83.5t-70 -25.5l6 33q24 0 37.5 15.5t18.5 44.5l2 8h-42l12 65h77z" />
    <glyph glyph-name="Lacute" unicode="&#x139;" horiz-adv-x="423" 
d="M400 848l-168 -90l-11 27l162 102zM94 56h256l-9 -56h-327l124 705h71z" />
    <glyph glyph-name="lacute" unicode="&#x13a;" horiz-adv-x="222" 
d="M217 659l-116 -659h-71l108 617l-34 -18l-11 27l53 33l14 81h71l-5 -30l29 18l17 -39z" />
    <glyph glyph-name="Lcommaaccent" unicode="&#x13b;" horiz-adv-x="424" 
d="M88 56h256l-9 -56h-327l124 705h71zM233 -53q2 -14 1 -29t-3 -28q-11 -58 -39 -83.5t-70 -25.5l5 33q25 0 38.5 15.5t18.5 44.5l1 8h-41l11 65h78z" />
    <glyph glyph-name="lcommaaccent" unicode="&#x13c;" horiz-adv-x="223" 
d="M228 740l-130 -740h-71l130 740h71zM94 -53q2 -14 1 -29t-3 -28q-11 -58 -39 -83.5t-70 -25.5l6 33q24 0 37.5 15.5t18.5 44.5l1 8h-41l12 65h77z" />
    <glyph glyph-name="Lcaron" unicode="&#x13d;" horiz-adv-x="441" 
d="M92 56h256l-9 -56h-327l124 705h71zM409 705q1 -49 -6 -85q-9 -54 -37 -78.5t-72 -24.5l6 35q26 0 39 13t18 39l4 25h-46l13 76h81z" />
    <glyph glyph-name="lcaron" unicode="&#x13e;" horiz-adv-x="267" 
d="M229 740l-130 -740h-71l130 740h71zM364 740q1 -25 -1 -46t-5 -39q-9 -54 -37 -78.5t-72 -24.5l6 35q26 0 39 13t18 39l4 25h-46l13 76h81z" />
    <glyph glyph-name="Ldot" unicode="&#x13f;" horiz-adv-x="423" 
d="M94 56h256l-9 -56h-327l124 705h71zM272 352q3 19 18 31.5t33 12.5q19 0 29.5 -12.5t7.5 -31.5q-4 -18 -19 -31t-33 -13t-29 13t-7 31z" />
    <glyph glyph-name="ldot" unicode="&#x140;" horiz-adv-x="265" 
d="M231 740l-130 -740h-71l130 740h71zM213 370q3 19 18 31.5t33 12.5q19 0 29.5 -12.5t7.5 -31.5q-4 -18 -19 -31t-33 -13t-29 13t-7 31z" />
    <glyph glyph-name="Lslash" unicode="&#x141;" horiz-adv-x="442" 
d="M369 56l-10 -56h-326l57 324l-91 -35l12 71l92 35l54 310h71l-50 -281l150 58l-13 -71l-149 -58l-53 -297h256z" />
    <glyph glyph-name="lslash" unicode="&#x142;" horiz-adv-x="238" 
d="M257 478l-86 -37l-78 -441h-71l72 409l-86 -37l12 68l86 37l47 263h70l-41 -231l87 37z" />
    <glyph glyph-name="Nacute" unicode="&#x143;" horiz-adv-x="680" 
d="M529 848l-168 -90l-11 27l162 102zM542 0h-71l-283 589l-103 -589h-71l124 704h71l282 -590l104 590h71z" />
    <glyph glyph-name="nacute" unicode="&#x144;" horiz-adv-x="635" 
d="M310 599l-11 27l162 102l17 -39zM398 556q45 0 82 -14.5t60.5 -44t32 -74t-2.5 -105.5l-56 -318h-69l55 313q16 91 -22 137.5t-114 46.5q-78 0 -137 -51t-78 -156l-51 -290h-71l96 546h71l-24 -134q35 73 97 108.5t131 35.5z" />
    <glyph glyph-name="Ncommaaccent" unicode="&#x145;" horiz-adv-x="681" 
d="M537 0h-71l-283 589l-103 -589h-71l124 704h71l282 -590l104 590h71zM329 -53q2 -14 1 -29t-3 -28q-10 -58 -38.5 -83.5t-70.5 -25.5l6 33q25 0 38 15.5t18 44.5l2 8h-41l11 65h77z" />
    <glyph glyph-name="ncommaaccent" unicode="&#x146;" horiz-adv-x="635" 
d="M396 556q45 0 82 -14.5t60.5 -44t32 -74t-2.5 -105.5l-56 -318h-69l55 313q16 91 -22 137.5t-114 46.5q-78 0 -137 -51t-78 -156l-51 -290h-71l96 546h71l-24 -134q35 73 97 108.5t131 35.5zM324 -53q2 -14 1 -29t-3 -28q-11 -58 -39 -83.5t-70 -25.5l6 33
q24 0 37.5 15.5t18.5 44.5l2 8h-42l12 65h77z" />
    <glyph glyph-name="Ncaron" unicode="&#x147;" horiz-adv-x="680" 
d="M565 852l-148 -82l-120 82l9 51l120 -83l148 83zM542 0h-71l-283 589l-103 -589h-71l124 704h71l282 -590l104 590h71z" />
    <glyph glyph-name="ncaron" unicode="&#x148;" horiz-adv-x="635" 
d="M371 611l-120 82l9 51l120 -83l148 83l-9 -51zM398 556q45 0 82 -14.5t60.5 -44t32 -74t-2.5 -105.5l-56 -318h-69l55 313q16 91 -22 137.5t-114 46.5q-78 0 -137 -51t-78 -156l-51 -290h-71l96 546h71l-24 -134q35 73 97 108.5t131 35.5z" />
    <glyph glyph-name="Omacron" unicode="&#x14c;" horiz-adv-x="787" 
d="M663 859l-8 -50h-340l9 50h339zM450 713q77 0 136.5 -27.5t97 -76.5t51 -117t-0.5 -149q-13 -77 -49 -141.5t-88 -111t-118 -72.5t-141 -26q-78 0 -137.5 27.5t-97 76.5t-51 117t0.5 150q14 77 49.5 141t87.5 110.5t118.5 72.5t141.5 26zM443 648q-57 0 -109.5 -20
t-95.5 -58t-73 -92.5t-42 -122.5q-12 -69 -1 -124t41 -93.5t76.5 -59t104.5 -20.5q57 0 110 20t95.5 58t73 92t42.5 122q12 69 1 124.5t-41 94t-76.5 59t-105.5 20.5z" />
    <glyph glyph-name="omacron" unicode="&#x14d;" horiz-adv-x="645" 
d="M563 700l-8 -50h-340l9 50h339zM371 553q59 0 105.5 -19.5t76.5 -56t42 -89.5t0 -120q-12 -64 -41.5 -115.5t-72 -86.5t-95 -54t-110.5 -19q-59 0 -106 19.5t-77.5 56.5t-42.5 89.5t0 119.5q12 65 41.5 116t72.5 86.5t96 54t111 18.5zM361 492q-38 0 -76.5 -13t-71.5 -40
t-57 -68t-34 -98t-0.5 -98t33 -67.5t57 -39.5t72.5 -13t77.5 13t71 39.5t56.5 67.5t34 98t0.5 98t-32.5 68t-57 40t-73 13z" />
    <glyph glyph-name="Obreve" unicode="&#x14e;" horiz-adv-x="787" 
d="M464 771q-32 0 -54.5 10t-35.5 26.5t-17 38t0 45.5l1 7h37q-7 -38 12 -59.5t64 -21.5t72 21.5t34 59.5h36l-1 -7q-4 -24 -15.5 -45.5t-30.5 -38t-44.5 -26.5t-57.5 -10zM450 713q77 0 136.5 -27.5t97 -76.5t51 -117t-0.5 -149q-13 -77 -49 -141.5t-88 -111t-118 -72.5
t-141 -26q-78 0 -137.5 27.5t-97 76.5t-51 117t0.5 150q14 77 49.5 141t87.5 110.5t118.5 72.5t141.5 26zM443 648q-57 0 -109.5 -20t-95.5 -58t-73 -92.5t-42 -122.5q-12 -69 -1 -124t41 -93.5t76.5 -59t104.5 -20.5q57 0 110 20t95.5 58t73 92t42.5 122q12 69 1 124.5
t-41 94t-76.5 59t-105.5 20.5z" />
    <glyph glyph-name="obreve" unicode="&#x14f;" horiz-adv-x="645" 
d="M373 612q-32 0 -54.5 10t-35.5 26.5t-17 38t0 45.5l1 7h37q-7 -38 12 -59.5t64 -21.5t72 21.5t34 59.5h36l-1 -7q-4 -24 -15.5 -45.5t-30.5 -38t-44.5 -26.5t-57.5 -10zM371 553q59 0 105.5 -19.5t76.5 -56t42 -89.5t0 -120q-12 -64 -41.5 -115.5t-72 -86.5t-95 -54
t-110.5 -19q-59 0 -106 19.5t-77.5 56.5t-42.5 89.5t0 119.5q12 65 41.5 116t72.5 86.5t96 54t111 18.5zM361 492q-38 0 -76.5 -13t-71.5 -40t-57 -68t-34 -98t-0.5 -98t33 -67.5t57 -39.5t72.5 -13t77.5 13t71 39.5t56.5 67.5t34 98t0.5 98t-32.5 68t-57 40t-73 13z" />
    <glyph glyph-name="Ohungarumlaut" unicode="&#x150;" horiz-adv-x="787" 
d="M419 760h-48l90 139h59zM558 760h-48l100 139h59zM450 713q77 0 136.5 -27.5t97 -76.5t51 -117t-0.5 -149q-13 -77 -49 -141.5t-88 -111t-118 -72.5t-141 -26q-78 0 -137.5 27.5t-97 76.5t-51 117t0.5 150q14 77 49.5 141t87.5 110.5t118.5 72.5t141.5 26zM443 648
q-57 0 -109.5 -20t-95.5 -58t-73 -92.5t-42 -122.5q-12 -69 -1 -124t41 -93.5t76.5 -59t104.5 -20.5q57 0 110 20t95.5 58t73 92t42.5 122q12 69 1 124.5t-41 94t-76.5 59t-105.5 20.5z" />
    <glyph glyph-name="ohungarumlaut" unicode="&#x151;" horiz-adv-x="645" 
d="M324 601h-48l90 139h59zM463 601h-48l100 139h59zM371 553q59 0 105.5 -19.5t76.5 -56t42 -89.5t0 -120q-12 -64 -41.5 -115.5t-72 -86.5t-95 -54t-110.5 -19q-59 0 -106 19.5t-77.5 56.5t-42.5 89.5t0 119.5q12 65 41.5 116t72.5 86.5t96 54t111 18.5zM361 492
q-38 0 -76.5 -13t-71.5 -40t-57 -68t-34 -98t-0.5 -98t33 -67.5t57 -39.5t72.5 -13t77.5 13t71 39.5t56.5 67.5t34 98t0.5 98t-32.5 68t-57 40t-73 13z" />
    <glyph glyph-name="OE" unicode="&#x152;" horiz-adv-x="1092" 
d="M746 382h275l-10 -55h-275l-48 -269h306l-10 -58h-376l33 189q-21 -45 -54 -81.5t-74.5 -62t-88.5 -40t-96 -14.5q-74 0 -131.5 27t-94 75.5t-50 115.5t0.5 148q14 78 50 143.5t88.5 113t119.5 73.5t142 26q50 0 92.5 -14t75 -40t53 -63t25.5 -82l33 191h376l-10 -57
h-305zM344 56q57 0 110 20.5t96.5 58.5t74 93t42.5 124t1 123.5t-40.5 93t-75.5 59t-104 20.5q-57 0 -110 -20.5t-96 -58.5t-73.5 -92.5t-42.5 -122.5q-12 -69 -1 -124.5t40.5 -94t75.5 -59t103 -20.5z" />
    <glyph glyph-name="oe" unicode="&#x153;" horiz-adv-x="1098" 
d="M839 553q62 0 106.5 -20t71.5 -54t36.5 -78.5t0.5 -92.5q-3 -17 -5.5 -27.5t-7.5 -23.5h-452q-8 -54 2 -93t32.5 -64t55 -37t69.5 -12q73 0 129 37t79 100h74q-15 -42 -42.5 -78t-65 -62t-83.5 -40.5t-99 -14.5q-84 0 -138 41.5t-67 116.5q-40 -75 -110 -116.5
t-154 -41.5q-58 0 -104.5 19t-77 55t-42 88t0.5 118t41.5 118t72.5 88t96 55t111 19q84 0 139.5 -41t69.5 -117q39 76 108 117t153 41zM981 293q12 53 4 91.5t-30.5 63.5t-55.5 36.5t-70 11.5q-38 0 -75 -12t-68.5 -36.5t-55 -63t-34.5 -91.5h385zM521 273q10 57 0 98
t-33 68t-57 40t-72 13q-39 0 -77.5 -13t-71.5 -40t-57 -68t-34 -98t-0.5 -98t33 -67.5t57 -39.5t72.5 -13t77.5 13t71 39.5t57 67.5t34.5 98z" />
    <glyph glyph-name="Racute" unicode="&#x154;" horiz-adv-x="569" 
d="M305 758l-11 27l162 102l17 -39zM354 705q62 0 104 -15.5t66 -43t31 -65.5t-1 -83q-16 -88 -74 -140t-155 -62l147 -296h-80l-142 294h-114l-51 -294h-71l124 705h216zM482 494q12 68 -19.5 109t-123.5 41h-141l-52 -297h140q93 0 138.5 40.5t57.5 106.5z" />
    <glyph glyph-name="racute" unicode="&#x155;" horiz-adv-x="370" 
d="M178 599l-11 27l162 102l17 -39zM174 432q34 58 92 91t136 33l-14 -76h-22q-33 0 -66.5 -8t-62 -26.5t-50.5 -50t-33 -78.5l-56 -317h-71l96 546h71z" />
    <glyph glyph-name="Rcommaaccent" unicode="&#x156;" horiz-adv-x="577" 
d="M341 705q62 0 104 -15.5t66 -43t31 -65.5t-1 -83q-16 -88 -74 -140t-155 -62l147 -296h-80l-142 294h-114l-51 -294h-71l124 705h216zM469 494q12 68 -19.5 109t-123.5 41h-141l-52 -297h140q93 0 138.5 40.5t57.5 106.5zM270 -53q2 -14 1 -29t-3 -28
q-10 -58 -38.5 -83.5t-70.5 -25.5l6 33q25 0 38 15.5t18 44.5l2 8h-41l11 65h77z" />
    <glyph glyph-name="rcommaaccent" unicode="&#x157;" horiz-adv-x="370" 
d="M180 432q34 58 92 91t136 33l-14 -76h-22q-33 0 -66.5 -8t-62 -26.5t-50.5 -50t-33 -78.5l-56 -317h-71l96 546h71zM108 -53q2 -14 1 -29t-3 -28q-11 -58 -39 -83.5t-70 -25.5l6 33q24 0 37.5 15.5t18.5 44.5l2 8h-41l11 65h77z" />
    <glyph glyph-name="Rcaron" unicode="&#x158;" horiz-adv-x="569" 
d="M382 770l-120 82l9 51l120 -83l148 83l-9 -51zM354 705q62 0 104 -15.5t66 -43t31 -65.5t-1 -83q-16 -88 -74 -140t-155 -62l147 -296h-80l-142 294h-114l-51 -294h-71l124 705h216zM482 494q12 68 -19.5 109t-123.5 41h-141l-52 -297h140q93 0 138.5 40.5t57.5 106.5z
" />
    <glyph glyph-name="rcaron" unicode="&#x159;" horiz-adv-x="370" 
d="M423 744l-9 -51l-148 -82l-120 82l9 51l120 -83zM174 432q34 58 92 91t136 33l-14 -76h-22q-33 0 -66.5 -8t-62 -26.5t-50.5 -50t-33 -78.5l-56 -317h-71l96 546h71z" />
    <glyph glyph-name="Sacute" unicode="&#x15a;" horiz-adv-x="557" 
d="M467 848l-168 -90l-11 27l162 102zM475 164q-5 -31 -22 -62t-45.5 -55t-69 -39t-93.5 -15q-55 0 -96.5 16t-69.5 42t-41.5 61t-12.5 72h74q-1 -21 6 -45t24.5 -43.5t46.5 -32.5t72 -13q66 0 105 35t48 85q10 59 -13 91t-62.5 51.5t-87 34.5t-86 38.5t-59.5 63t-9 109.5
q6 34 24.5 62.5t48 49t68.5 32t86 11.5q55 0 94.5 -14.5t65 -38.5t38.5 -55t14 -63h-74q-1 18 -8 38.5t-23.5 37.5t-43.5 28t-66 11q-57 0 -98.5 -27t-50.5 -79q-10 -56 13.5 -86.5t62.5 -49.5t86.5 -33.5t85.5 -38.5t59.5 -65.5t8.5 -113.5z" />
    <glyph glyph-name="sacute" unicode="&#x15b;" horiz-adv-x="492" 
d="M407 689l-168 -90l-11 27l162 102zM261 553q103 0 153.5 -48t49.5 -126h-70q1 25 -6.5 47t-24.5 38.5t-44 26.5t-65 10q-49 0 -81 -22t-39 -59q-8 -42 14 -64.5t58 -36t79 -24.5t78 -30.5t54.5 -53.5t8.5 -93q-10 -55 -57.5 -90t-128.5 -35q-101 0 -159.5 46.5
t-56.5 127.5h69q-4 -51 34 -86.5t120 -35.5q49 0 78.5 22.5t35.5 56.5q8 46 -13 70.5t-57 39t-78.5 25t-77.5 28.5t-54.5 49.5t-9.5 88.5t59.5 92.5t130.5 35.5z" />
    <glyph glyph-name="Scedilla" unicode="&#x15e;" horiz-adv-x="558" 
d="M159 551q-10 -56 13.5 -86.5t62.5 -49.5t86.5 -33.5t85.5 -38.5t59.5 -65.5t8.5 -113.5q-5 -30 -21 -60t-43 -54t-65.5 -39.5t-88.5 -17.5l-12 -67q56 3 88 -20.5t23 -75.5q-8 -45 -44.5 -66.5t-87.5 -21.5h-92l8 43h82q41 0 60 13t23 34q4 23 -9.5 39.5t-55.5 16.5h-49
l20 107q-47 5 -82 22t-58.5 42.5t-35 58t-10.5 66.5h74q-1 -21 6 -45t24.5 -43.5t46.5 -32.5t72 -13q66 0 105 35t48 85q10 59 -13 91t-62.5 51.5t-87 34.5t-86 38.5t-59.5 63t-9 109.5q6 34 24.5 62.5t48 49t68.5 32t86 11.5q55 0 94.5 -14.5t65 -38.5t38.5 -55t14 -63h-74
q-1 18 -8 38.5t-23.5 37.5t-43.5 28t-66 11q-57 0 -98.5 -27t-50.5 -79z" />
    <glyph glyph-name="scedilla" unicode="&#x15f;" horiz-adv-x="509" 
d="M394 379q1 25 -6.5 47t-24.5 38.5t-44 26.5t-65 10q-49 0 -81 -22t-39 -59q-8 -42 14 -64.5t58 -36t79 -24.5t78 -30.5t54.5 -53.5t8.5 -93q-9 -52 -52 -86t-115 -38l-13 -68q56 3 88 -20.5t23 -75.5q-8 -45 -44.5 -66.5t-87.5 -21.5h-92l8 43h82q41 0 60 13t23 34
q4 23 -9.5 39.5t-55.5 16.5h-49l20 106q-89 7 -139.5 52.5t-48.5 120.5h69q-4 -51 34 -86.5t120 -35.5q49 0 78.5 22.5t35.5 56.5q8 46 -13 70.5t-57 39t-78.5 25t-77.5 28.5t-54.5 49.5t-9.5 88.5t59.5 92.5t130.5 35.5q103 0 153.5 -48t49.5 -126h-70z" />
    <glyph glyph-name="Scaron" unicode="&#x160;" horiz-adv-x="558" 
d="M505 852l-148 -82l-120 82l9 51l120 -83l148 83zM475 164q-5 -31 -22 -62t-45.5 -55t-69 -39t-93.5 -15q-55 0 -96.5 16t-69.5 42t-41.5 61t-12.5 72h74q-1 -21 6 -45t24.5 -43.5t46.5 -32.5t72 -13q66 0 105 35t48 85q10 59 -13 91t-62.5 51.5t-87 34.5t-86 38.5
t-59.5 63t-9 109.5q6 34 24.5 62.5t48 49t68.5 32t86 11.5q55 0 94.5 -14.5t65 -38.5t38.5 -55t14 -63h-74q-1 18 -8 38.5t-23.5 37.5t-43.5 28t-66 11q-57 0 -98.5 -27t-50.5 -79q-10 -56 13.5 -86.5t62.5 -49.5t86.5 -33.5t85.5 -38.5t59.5 -65.5t8.5 -113.5z" />
    <glyph glyph-name="scaron" unicode="&#x161;" horiz-adv-x="509" 
d="M453 693l-148 -82l-120 82l9 51l120 -83l148 83zM261 553q103 0 153.5 -48t49.5 -126h-70q1 25 -6.5 47t-24.5 38.5t-44 26.5t-65 10q-49 0 -81 -22t-39 -59q-8 -42 14 -64.5t58 -36t79 -24.5t78 -30.5t54.5 -53.5t8.5 -93q-10 -55 -57.5 -90t-128.5 -35
q-101 0 -159.5 46.5t-56.5 127.5h69q-4 -51 34 -86.5t120 -35.5q49 0 78.5 22.5t35.5 56.5q8 46 -13 70.5t-57 39t-78.5 25t-77.5 28.5t-54.5 49.5t-9.5 88.5t59.5 92.5t130.5 35.5z" />
    <glyph glyph-name="uni0162" unicode="&#x162;" horiz-adv-x="507" 
d="M551 705l-11 -57h-200l-114 -645q57 -5 78 -28t15 -59q-8 -46 -45.5 -70.5t-89.5 -24.5h-89l8 44h82q42 0 59.5 14.5t22.5 38.5q3 20 -9.5 35t-54.5 15h-54l120 680h-200l11 57h471z" />
    <glyph glyph-name="uni0163" unicode="&#x163;" horiz-adv-x="363" 
d="M144 163q-10 -60 8 -80.5t69 -20.5h56l-10 -62h-66h-8l-13 -74q57 3 88.5 -19t22.5 -70q-8 -47 -44.5 -71t-89.5 -24h-90l7 43h83q41 0 59.5 15t23.5 38q4 21 -9.5 35.5t-55.5 14.5h-49l21 117q-48 11 -67.5 48t-5.5 111l56 321h-83l11 61h83l24 138h71l-24 -138h150
l-11 -61h-150z" />
    <glyph glyph-name="Tcaron" unicode="&#x164;" horiz-adv-x="507" 
d="M479 852l-148 -82l-120 82l9 51l120 -83l148 83zM551 705l-10 -57h-201l-114 -648h-70l114 648h-201l11 57h471z" />
    <glyph glyph-name="tcaron" unicode="&#x165;" horiz-adv-x="360" 
d="M391 778q0 -26 -1 -45.5t-4 -37.5q-10 -52 -37.5 -75t-71.5 -23l6 35q26 0 38.5 11t16.5 32l5 26h-47l14 77h81zM206 546h150l-11 -61h-150l-57 -322q-11 -60 7.5 -80.5t70.5 -20.5h56l-12 -62h-65q-76 0 -109.5 36.5t-17.5 127.5l57 321h-84l11 61h84l24 138h70z" />
    <glyph glyph-name="Utilde" unicode="&#x168;" horiz-adv-x="652" 
d="M373 851q19 0 31.5 -7.5t22.5 -16t21 -16t27 -7.5t29.5 11t20.5 34h36q-11 -41 -36.5 -63t-57.5 -22q-20 0 -33 7.5t-23.5 16t-21 16t-25.5 7.5q-35 0 -49 -46h-35q27 86 93 86zM205 705l-76 -427q-10 -59 -4 -100.5t26 -68t52 -38.5t73 -12t76.5 12t64.5 38.5t49.5 68
t30.5 100.5l76 427h70l-76 -427q-13 -74 -41 -128t-68 -89t-89.5 -51.5t-105.5 -16.5q-55 0 -99 16.5t-71.5 51.5t-37 89t3.5 128l75 427h71z" />
    <glyph glyph-name="utilde" unicode="&#x169;" horiz-adv-x="621" 
d="M321 652q-35 0 -49 -46h-35q27 86 93 86q19 0 31.5 -7.5t22.5 -16t21 -16t27 -7.5t29.5 11t20.5 34h36q-11 -41 -36.5 -63t-57.5 -22q-20 0 -33 7.5t-23.5 16t-21 16t-25.5 7.5zM594 546l-96 -546h-71l24 135q-35 -74 -97 -109.5t-131 -35.5q-45 0 -82 14.5t-60.5 44
t-32 74t2.5 105.5l56 318h69l-55 -312q-16 -92 22 -138.5t114 -46.5q78 0 137 51t78 156l51 290h71z" />
    <glyph glyph-name="Umacron" unicode="&#x16a;" horiz-adv-x="652" 
d="M593 859l-8 -50h-340l9 50h339zM205 705l-76 -427q-10 -59 -4 -100.5t26 -68t52 -38.5t73 -12t76.5 12t64.5 38.5t49.5 68t30.5 100.5l76 427h70l-76 -427q-13 -74 -41 -128t-68 -89t-89.5 -51.5t-105.5 -16.5q-55 0 -99 16.5t-71.5 51.5t-37 89t3.5 128l75 427h71z" />
    <glyph glyph-name="umacron" unicode="&#x16b;" horiz-adv-x="624" 
d="M537 650h-340l9 50h339zM594 546l-96 -546h-71l24 135q-35 -74 -97 -109.5t-131 -35.5q-45 0 -82 14.5t-60.5 44t-32 74t2.5 105.5l56 318h69l-55 -312q-16 -92 22 -138.5t114 -46.5q78 0 137 51t78 156l51 290h71z" />
    <glyph glyph-name="Ubreve" unicode="&#x16c;" horiz-adv-x="652" 
d="M405 771q-32 0 -54.5 10t-35.5 26.5t-17 38t0 45.5l1 7h37q-7 -38 12 -59.5t64 -21.5t72 21.5t34 59.5h36l-1 -7q-4 -24 -15.5 -45.5t-30.5 -38t-44.5 -26.5t-57.5 -10zM205 705l-76 -427q-10 -59 -4 -100.5t26 -68t52 -38.5t73 -12t76.5 12t64.5 38.5t49.5 68
t30.5 100.5l76 427h70l-76 -427q-13 -74 -41 -128t-68 -89t-89.5 -51.5t-105.5 -16.5q-55 0 -99 16.5t-71.5 51.5t-37 89t3.5 128l75 427h71z" />
    <glyph glyph-name="ubreve" unicode="&#x16d;" horiz-adv-x="621" 
d="M362 612q-32 0 -54.5 10t-35.5 26.5t-17 38t0 45.5l1 7h37q-7 -38 12 -59.5t64 -21.5t72 21.5t34 59.5h36l-1 -7q-4 -24 -15.5 -45.5t-30.5 -38t-44.5 -26.5t-57.5 -10zM594 546l-96 -546h-71l24 135q-35 -74 -97 -109.5t-131 -35.5q-45 0 -82 14.5t-60.5 44t-32 74
t2.5 105.5l56 318h69l-55 -312q-16 -92 22 -138.5t114 -46.5q78 0 137 51t78 156l51 290h71z" />
    <glyph glyph-name="Uring" unicode="&#x16e;" horiz-adv-x="652" 
d="M426 970q42 0 66.5 -26.5t16.5 -74.5q-8 -47 -42.5 -73.5t-76.5 -26.5t-66 26.5t-16 73.5q8 48 42 74.5t76 26.5zM420 935q-28 0 -49.5 -17.5t-26.5 -48.5t10 -48.5t42 -17.5q28 0 49.5 17.5t26.5 48.5t-10 48.5t-42 17.5zM205 705l-76 -427q-10 -59 -4 -100.5t26 -68
t52 -38.5t73 -12t76.5 12t64.5 38.5t49.5 68t30.5 100.5l76 427h70l-76 -427q-13 -74 -41 -128t-68 -89t-89.5 -51.5t-105.5 -16.5q-55 0 -99 16.5t-71.5 51.5t-37 89t3.5 128l75 427h71z" />
    <glyph glyph-name="uring" unicode="&#x16f;" horiz-adv-x="624" 
d="M343 610q-42 0 -66 26.5t-16 73.5q8 48 42 74.5t76 26.5t66.5 -26.5t16.5 -74.5q-8 -47 -42.5 -73.5t-76.5 -26.5zM297 710q-5 -31 10 -48.5t42 -17.5q28 0 49.5 17.5t26.5 48.5t-10 48.5t-42 17.5q-28 0 -49.5 -17.5t-26.5 -48.5zM594 546l-96 -546h-71l24 135
q-35 -74 -97 -109.5t-131 -35.5q-45 0 -82 14.5t-60.5 44t-32 74t2.5 105.5l56 318h69l-55 -312q-16 -92 22 -138.5t114 -46.5q78 0 137 51t78 156l51 290h71z" />
    <glyph glyph-name="Uhungarumlaut" unicode="&#x170;" horiz-adv-x="652" 
d="M336 760h-48l90 139h59zM475 760h-48l100 139h59zM205 705l-76 -427q-10 -59 -4 -100.5t26 -68t52 -38.5t73 -12t76.5 12t64.5 38.5t49.5 68t30.5 100.5l76 427h70l-76 -427q-13 -74 -41 -128t-68 -89t-89.5 -51.5t-105.5 -16.5q-55 0 -99 16.5t-71.5 51.5t-37 89
t3.5 128l75 427h71z" />
    <glyph glyph-name="uhungarumlaut" unicode="&#x171;" horiz-adv-x="624" 
d="M288 601h-48l90 139h59zM379 601l100 139h59l-111 -139h-48zM594 546l-96 -546h-71l24 135q-35 -74 -97 -109.5t-131 -35.5q-45 0 -82 14.5t-60.5 44t-32 74t2.5 105.5l56 318h69l-55 -312q-16 -92 22 -138.5t114 -46.5q78 0 137 51t78 156l51 290h71z" />
    <glyph glyph-name="Uogonek" unicode="&#x172;" horiz-adv-x="652" 
d="M209 705l-76 -427q-10 -59 -4 -100.5t26 -68t52 -38.5t73 -12q37 0 72 10t64 35t51.5 67.5t33.5 106.5l76 427h70l-76 -427q-12 -69 -37 -119t-60 -84.5t-78 -53t-90 -24.5q-34 -4 -54 -20t-25 -42q-5 -29 12.5 -44.5t55.5 -15.5h84l-8 -43h-95q-55 0 -82 28t-19 75
q4 20 17.5 37.5t33.5 23.5q-43 7 -78.5 27.5t-58 55t-30.5 84t4 115.5l75 427h71z" />
    <glyph glyph-name="uogonek" unicode="&#x173;" horiz-adv-x="624" 
d="M353 -84q-5 -30 13 -47.5t54 -17.5h87l-7 -43h-93q-57 0 -85.5 28t-20.5 79q8 44 42 69t86 27l22 124q-35 -74 -97 -109.5t-131 -35.5q-45 0 -82 14.5t-60.5 44t-32 74t2.5 105.5l56 318h69l-55 -312q-16 -92 22 -138.5t114 -46.5q78 0 137 51t78 156l51 290h71l-96 -546
h-5l-6 -29h-46q-36 0 -59.5 -14.5t-28.5 -40.5z" />
    <glyph glyph-name="Wcircumflex" unicode="&#x174;" horiz-adv-x="953" 
d="M462 757l-11 32l141 78l112 -78l-20 -32l-99 68zM981 705l-306 -705h-84l-70 604l-283 -604h-84l-58 705h78l38 -617l287 617h79l69 -617l257 617h77z" />
    <glyph glyph-name="wcircumflex" unicode="&#x175;" horiz-adv-x="823" 
d="M370 598l-11 32l141 78l112 -78l-20 -32l-99 68zM857 546l-257 -546h-74l-83 465l-247 -465h-74l-64 546h71l47 -473l247 473h72l81 -473l213 473h68z" />
    <glyph glyph-name="Ycircumflex" unicode="&#x176;" horiz-adv-x="571" 
d="M271 757l-11 32l141 78l112 -78l-20 -32l-99 68zM611 705l-303 -430l-49 -275h-70l48 275l-152 430h81l120 -355l244 355h81z" />
    <glyph glyph-name="ycircumflex" unicode="&#x177;" horiz-adv-x="544" 
d="M353 666l-123 -68l-11 32l141 78l112 -78l-20 -32zM129 546l110 -455l256 455h78l-464 -804h-79l157 264l-136 540h78z" />
    <glyph glyph-name="Ydieresis" unicode="&#x178;" horiz-adv-x="571" 
d="M291 784q-19 0 -29.5 13t-6.5 31q3 19 17.5 31.5t33.5 12.5t29.5 -12.5t7.5 -31.5q-4 -18 -19 -31t-33 -13zM448 784q-19 0 -29.5 13t-6.5 31q3 19 17.5 31.5t33.5 12.5q18 0 28.5 -12.5t7.5 -31.5q-4 -18 -18.5 -31t-32.5 -13zM611 705l-303 -430l-49 -275h-70l48 275
l-152 430h81l120 -355l244 355h81z" />
    <glyph glyph-name="Zacute" unicode="&#x179;" horiz-adv-x="523" 
d="M450 848l-168 -90l-11 27l162 102zM65 59h367l-10 -59h-445l9 56l464 590h-350l11 59h428l-10 -57z" />
    <glyph glyph-name="zacute" unicode="&#x17a;" horiz-adv-x="435" 
d="M378 689l-168 -90l-11 27l162 102zM66 60h304l-11 -60h-380l10 57l366 430h-282l11 59h361l-10 -57z" />
    <glyph glyph-name="Zdotaccent" unicode="&#x17b;" horiz-adv-x="523" 
d="M308 828q3 19 18 31.5t33 12.5q19 0 29.5 -12.5t7.5 -31.5q-4 -18 -19 -31t-33 -13t-29 13t-7 31zM65 59h367l-10 -59h-445l9 56l464 590h-350l11 59h428l-10 -57z" />
    <glyph glyph-name="zdotaccent" unicode="&#x17c;" horiz-adv-x="435" 
d="M233 669q3 19 18 31.5t33 12.5q19 0 29.5 -12.5t7.5 -31.5q-4 -18 -19 -31t-33 -13t-29 13t-7 31zM66 60h304l-11 -60h-380l10 57l366 430h-282l11 59h361l-10 -57z" />
    <glyph glyph-name="Zcaron" unicode="&#x17d;" horiz-adv-x="523" 
d="M486 852l-148 -82l-120 82l9 51l120 -83l148 83zM65 59h367l-10 -59h-445l9 56l464 590h-350l11 59h428l-10 -57z" />
    <glyph glyph-name="zcaron" unicode="&#x17e;" horiz-adv-x="435" 
d="M417 693l-148 -82l-120 82l9 51l120 -83l148 83zM66 60h304l-11 -60h-380l10 57l366 430h-282l11 59h361l-10 -57z" />
    <glyph glyph-name="florin" unicode="&#x192;" horiz-adv-x="333" 
d="M417 702q-62 0 -100 -24.5t-54 -78.5l-15 -53h133l-17 -60h-133l-151 -536q-19 -67 -59 -98.5t-110 -31.5h-30l16 61h29q33 0 52.5 13.5t31.5 55.5l152 536h-75l15 60h77l15 53q24 88 84 126t155 38z" />
    <glyph glyph-name="Ohorn" unicode="&#x1a0;" horiz-adv-x="787" 
d="M606 676q79 -44 113.5 -131t14.5 -202q-13 -77 -49 -141.5t-88 -111t-118 -72.5t-141 -26q-78 0 -137.5 27.5t-97 76.5t-51 117t0.5 150q14 77 49.5 141t87.5 110.5t118.5 72.5t141.5 26q39 0 77 -8q45 2 78 28t44 88h52q-10 -55 -35 -90.5t-60 -54.5zM665 350
q12 69 1 124.5t-41 94t-76.5 59t-105.5 20.5q-57 0 -109.5 -20t-95.5 -58t-73 -92.5t-42 -122.5q-12 -69 -1 -124t41 -93.5t76.5 -59t104.5 -20.5q57 0 110 20t95.5 58t73 92t42.5 122z" />
    <glyph glyph-name="ohorn" unicode="&#x1a1;" horiz-adv-x="645" 
d="M512 515q52 -35 75 -97t8 -150q-12 -64 -41.5 -115.5t-72 -86.5t-95 -54t-110.5 -19q-59 0 -106 19.5t-77.5 56.5t-42.5 89.5t0 119.5q12 65 41.5 116t72.5 86.5t96 54t111 18.5q37 0 65 -7q45 2 78 28t44 88h52q-10 -57 -36.5 -92.5t-61.5 -54.5zM523 273q10 57 0.5 98
t-32.5 68t-57 40t-73 13q-38 0 -76.5 -13t-71.5 -40t-57 -68t-34 -98t-0.5 -98t33 -67.5t57 -39.5t72.5 -13t77.5 13t71 39.5t56.5 67.5t34 98z" />
    <glyph glyph-name="Uhorn" unicode="&#x1af;" horiz-adv-x="652" 
d="M774 821q-13 -72 -51.5 -111t-87.5 -52l-68 -380q-13 -74 -41 -128t-68 -89t-89.5 -51.5t-105.5 -16.5q-55 0 -99 16.5t-71.5 51.5t-37 89t3.5 128l75 427h71l-76 -427q-10 -59 -4 -100.5t26 -68t52 -38.5t73 -12t76.5 12t64.5 38.5t49.5 68t30.5 100.5l76 427h21
q48 0 82.5 26t45.5 90h52z" />
    <glyph glyph-name="uhorn" unicode="&#x1b0;" horiz-adv-x="621" 
d="M727 662q-13 -72 -52 -111.5t-89 -51.5l-88 -499h-71l24 135q-35 -74 -97 -109.5t-131 -35.5q-45 0 -82 14.5t-60.5 44t-32 74t2.5 105.5l56 318h69l-55 -312q-16 -92 22 -138.5t114 -46.5q78 0 137 51t78 156l51 290h24q48 0 82.5 26t45.5 90h52z" />
    <glyph glyph-name="AEacute" unicode="&#x1fc;" horiz-adv-x="874" 
d="M574 758l-11 27l162 102l17 -39zM577 648l-47 -265h273l-9 -56h-273l-48 -269h303l-10 -58h-373l30 170h-271l-129 -170h-78l534 705h411l-10 -57h-303zM504 635l-311 -410h239z" />
    <glyph glyph-name="aeacute" unicode="&#x1fd;" horiz-adv-x="1115" 
d="M593 599l-11 27l162 102l17 -39zM869 553q59 0 101.5 -20t67.5 -54t33.5 -78.5t-0.5 -92.5q-3 -17 -5.5 -27.5t-7.5 -23.5h-462q-8 -54 2.5 -93.5t34 -64.5t56.5 -37t71 -12q75 0 132.5 36.5t80.5 101.5h74q-15 -42 -41.5 -78t-62 -62t-79.5 -40.5t-94 -14.5
q-79 0 -133 39.5t-62 118.5l-26 -151h-70l27 150q-33 -69 -98 -113t-152 -44q-56 0 -99.5 19.5t-71 55.5t-37.5 88t2 117q12 66 40 118t68.5 88t90.5 55t106 19q87 0 136.5 -44t57.5 -113l27 150h69l-26 -150q34 78 99.5 117.5t150.5 39.5zM998 293q12 53 3.5 91.5t-31.5 63
t-57 36.5t-72 12q-40 0 -78.5 -11.5t-70 -36.5t-55 -63t-34.5 -92h395zM528 273q9 50 0.5 90t-30.5 68.5t-56.5 44t-78.5 15.5q-46 0 -86.5 -15t-72 -43t-53 -68.5t-30.5 -91.5q-18 -103 27 -160.5t137 -57.5q44 0 84.5 15.5t72.5 44t54.5 69t31.5 89.5z" />
    <glyph glyph-name="Scommaaccent" unicode="&#x218;" horiz-adv-x="559" 
d="M471 164q-5 -31 -22 -62t-45.5 -55t-69 -39t-93.5 -15q-55 0 -96.5 16t-69.5 42t-41.5 61t-12.5 72h74q-1 -21 6 -45t24.5 -43.5t46.5 -32.5t72 -13q66 0 105 35t48 85q10 59 -13 91t-62.5 51.5t-87 34.5t-86 38.5t-60 63t-8.5 109.5q6 34 24.5 62.5t48 49t68.5 32
t86 11.5q55 0 94.5 -14.5t65 -38.5t38.5 -55t14 -63h-74q-1 18 -8 38.5t-23.5 37.5t-43.5 28t-66 11q-57 0 -98.5 -27t-50.5 -79q-10 -56 13.5 -86.5t62.5 -49.5t86.5 -33.5t85.5 -38.5t59.5 -65.5t8.5 -113.5zM290 -53q2 -14 1 -29t-3 -28q-11 -58 -39 -83.5t-70 -25.5
l5 33q25 0 38.5 15.5t18.5 44.5l1 8h-41l12 65h77z" />
    <glyph glyph-name="scommaaccent" unicode="&#x219;" horiz-adv-x="509" 
d="M263 553q103 0 153.5 -48t49.5 -126h-70q1 25 -6.5 47t-24.5 38.5t-44 26.5t-65 10q-49 0 -81 -22t-39 -59q-8 -42 14 -64.5t58 -36t79 -24.5t78 -30.5t54.5 -53.5t8.5 -93q-10 -55 -57.5 -90t-128.5 -35q-101 0 -159.5 46.5t-56.5 127.5h69q-4 -51 34 -86.5t120 -35.5
q49 0 78.5 22.5t35.5 56.5q8 46 -13 70.5t-57 39t-78.5 25t-77.5 28.5t-54.5 49.5t-9.5 88.5t59.5 92.5t130.5 35.5zM255 -53q2 -31 -3 -57q-10 -58 -38.5 -83.5t-70.5 -25.5l6 33q25 0 38.5 15.5t18.5 44.5l1 8h-41l12 65h77z" />
    <glyph glyph-name="uni021A" unicode="&#x21a;" horiz-adv-x="507" 
d="M545 705l-10 -57h-201l-114 -648h-70l114 648h-201l11 57h471zM215 -53q2 -14 1 -29t-3 -28q-11 -58 -39 -83.5t-70 -25.5l6 33q25 0 38 15.5t18 44.5l1 8h-41l12 65h77z" />
    <glyph glyph-name="uni021B" unicode="&#x21b;" horiz-adv-x="363" 
d="M151 163q-11 -60 7.5 -80.5t70.5 -20.5h56l-12 -62h-65q-76 0 -109.5 36.5t-17.5 127.5l57 321h-84l11 61h84l24 138h70l-24 -138h150l-11 -61h-150zM207 -53q2 -31 -3 -57q-10 -58 -38.5 -83.5t-70.5 -25.5l6 33q25 0 38.5 15.5t18.5 44.5l1 8h-41l11 65h78z" />
    <glyph glyph-name="circumflex" unicode="&#x2c6;" horiz-adv-x="333" 
d="M231 694l-123 -68l-11 32l141 78l112 -78l-20 -32z" />
    <glyph glyph-name="caron" unicode="&#x2c7;" horiz-adv-x="333" 
d="M363 693l-148 -82l-120 82l9 51l120 -83l148 83z" />
    <glyph glyph-name="breve" unicode="&#x2d8;" horiz-adv-x="336" 
d="M218 612q-32 0 -54.5 10t-35.5 26.5t-17 38t0 45.5l1 7h37q-7 -38 12 -59.5t64 -21.5t72 21.5t34 59.5h36l-1 -7q-4 -24 -15.5 -45.5t-30.5 -38t-44.5 -26.5t-57.5 -10z" />
    <glyph glyph-name="dotaccent" unicode="&#x2d9;" horiz-adv-x="164" 
d="M98 669q3 19 18 31.5t33 12.5q19 0 29.5 -12.5t7.5 -31.5q-4 -18 -19 -31t-33 -13t-29 13t-7 31z" />
    <glyph glyph-name="ring" unicode="&#x2da;" horiz-adv-x="266" 
d="M211 811q42 0 66.5 -26.5t16.5 -74.5q-8 -47 -42.5 -73.5t-76.5 -26.5t-66 26.5t-16 73.5q8 48 42 74.5t76 26.5zM205 776q-28 0 -49.5 -17.5t-26.5 -48.5t10 -48.5t42 -17.5q28 0 49.5 17.5t26.5 48.5t-10 48.5t-42 17.5z" />
    <glyph glyph-name="ogonek" unicode="&#x2db;" horiz-adv-x="277" 
d="M224 -21l-8 -40h-46q-36 0 -59.5 -14.5t-28.5 -40.5q-5 -30 13 -47.5t54 -17.5h87l-7 -43h-93q-57 0 -85.5 28t-20.5 79q8 45 44.5 70.5t92.5 25.5h57z" />
    <glyph glyph-name="tilde" unicode="&#x2dc;" horiz-adv-x="347" 
d="M186 692q19 0 31.5 -7.5t22.5 -16t21 -16t27 -7.5t29.5 11t20.5 34h36q-11 -41 -36.5 -63t-57.5 -22q-20 0 -33 7.5t-23.5 16t-21 16t-25.5 7.5q-35 0 -49 -46h-35q27 86 93 86z" />
    <glyph glyph-name="hungarumlaut" unicode="&#x2dd;" horiz-adv-x="338" 
d="M128 601h-48l90 139h59zM267 601h-48l100 139h59z" />
    <glyph glyph-name="gravecomb" unicode="&#x300;" horiz-adv-x="0" 
d="M9 626l-17 -31l-137 92l22 41z" />
    <glyph glyph-name="acutecomb" unicode="&#x301;" horiz-adv-x="0" 
d="M0 689l-168 -90l-11 27l162 102z" />
    <glyph glyph-name="uni0302" unicode="&#x302;" horiz-adv-x="0" 
d="M-102 694l-123 -68l-11 32l141 78l112 -78l-20 -32z" />
    <glyph glyph-name="tildecomb" unicode="&#x303;" horiz-adv-x="0" 
d="M-161 692q19 0 31.5 -7.5t22.5 -16t21 -16t27 -7.5t29.5 11t20.5 34h36q-11 -41 -36.5 -63t-57.5 -22q-20 0 -33 7.5t-23.5 16t-21 16t-25.5 7.5q-35 0 -49 -46h-35q27 86 93 86z" />
    <glyph glyph-name="uni0306" unicode="&#x306;" horiz-adv-x="0" 
d="M-118 612q-32 0 -54.5 10t-35.5 26.5t-17 38t0 45.5l1 7h37q-7 -38 12 -59.5t64 -21.5t72 21.5t34 59.5h36l-1 -7q-4 -24 -15.5 -45.5t-30.5 -38t-44.5 -26.5t-57.5 -10z" />
    <glyph glyph-name="hookabovecomb" unicode="&#x309;" horiz-adv-x="0" 
d="M-249 742q42 0 57.5 -20.5t8.5 -56.5q-5 -29 -28 -49.5t-59 -51.5l-20 22q27 23 46 41t23 38q5 23 -4 32t-31 9q-24 0 -34.5 -12t-18.5 -35l-36 2q4 14 10 28t16.5 26t27.5 19.5t42 7.5z" />
    <glyph glyph-name="uni031B" unicode="&#x31b;" horiz-adv-x="0" 
d="M-423 546q48 0 82.5 26t45.5 90h52q-8 -45 -26.5 -77t-44 -52.5t-56.5 -30t-62 -9.5z" />
    <glyph glyph-name="dotbelowcomb" unicode="&#x323;" horiz-adv-x="0" 
d="M-199 -120q3 18 17.5 30.5t32.5 12.5t28.5 -12.5t7.5 -30.5q-4 -18 -19 -30.5t-32 -12.5q-18 0 -28.5 12.5t-6.5 30.5z" />
    <glyph glyph-name="pi" unicode="&#x3c0;" horiz-adv-x="718" 
d="M716 546l-10 -55h-81l-87 -491h-70l86 491h-312l-87 -491h-70l86 491h-81l9 55h617z" />
    <glyph glyph-name="Wgrave" unicode="&#x1e80;" horiz-adv-x="953" 
d="M654 754l-137 92l22 41l132 -102zM981 705l-306 -705h-84l-70 604l-283 -604h-84l-58 705h78l38 -617l287 617h79l69 -617l257 617h77z" />
    <glyph glyph-name="wgrave" unicode="&#x1e81;" horiz-adv-x="823" 
d="M562 595l-137 92l22 41l132 -102zM857 546l-257 -546h-74l-83 465l-247 -465h-74l-64 546h71l47 -473l247 473h72l81 -473l213 473h68z" />
    <glyph glyph-name="Wacute" unicode="&#x1e82;" horiz-adv-x="953" 
d="M497 758l-11 27l162 102l17 -39zM981 705l-306 -705h-84l-70 604l-283 -604h-84l-58 705h78l38 -617l287 617h79l69 -617l257 617h77z" />
    <glyph glyph-name="wacute" unicode="&#x1e83;" horiz-adv-x="823" 
d="M405 599l-11 27l162 102l17 -39zM857 546l-257 -546h-74l-83 465l-247 -465h-74l-64 546h71l47 -473l247 473h72l81 -473l213 473h68z" />
    <glyph glyph-name="Wdieresis" unicode="&#x1e84;" horiz-adv-x="953" 
d="M482 784q-19 0 -29.5 13t-6.5 31q3 19 17.5 31.5t33.5 12.5t29.5 -12.5t7.5 -31.5q-4 -18 -19 -31t-33 -13zM639 784q-19 0 -29.5 13t-6.5 31q3 19 17.5 31.5t33.5 12.5q18 0 28.5 -12.5t7.5 -31.5q-4 -18 -18.5 -31t-32.5 -13zM981 705l-306 -705h-84l-70 604l-283 -604
h-84l-58 705h78l38 -617l287 617h79l69 -617l257 617h77z" />
    <glyph glyph-name="wdieresis" unicode="&#x1e85;" horiz-adv-x="828" 
d="M394 625q-19 0 -29.5 13t-6.5 31q3 19 17.5 31.5t33.5 12.5t29.5 -12.5t7.5 -31.5q-4 -18 -19 -31t-33 -13zM551 625q-19 0 -29.5 13t-6.5 31q3 19 17.5 31.5t33.5 12.5q18 0 28.5 -12.5t7.5 -31.5q-4 -18 -18.5 -31t-32.5 -13zM857 546l-257 -546h-74l-83 465l-247 -465
h-74l-64 546h71l47 -473l247 473h72l81 -473l213 473h68z" />
    <glyph glyph-name="uni1EA0" unicode="&#x1ea0;" horiz-adv-x="644" 
d="M485 0l-33 172h-321l-94 -172h-75l382 689h79l138 -689h-76zM442 228l-73 382l-208 -382h281zM260 -77q18 0 28.5 -12.5t7.5 -30.5q-4 -18 -19 -30.5t-32 -12.5q-18 0 -28.5 12.5t-6.5 30.5q3 18 17.5 30.5t32.5 12.5z" />
    <glyph glyph-name="uni1EA1" unicode="&#x1ea1;" 
d="M353 553q88 0 138 -44t59 -113l26 150h70l-96 -546h-70l27 150q-33 -69 -98 -113t-152 -44q-57 0 -100.5 19.5t-71 56.5t-37 90t2.5 119q11 65 39 116t68 86t90 54t105 19zM363 491q-46 0 -86 -15t-71.5 -43t-53 -68.5t-30.5 -91.5q-18 -103 27 -160.5t137 -57.5
q44 0 84 15.5t72.5 44t54.5 69t31 89.5q9 50 1 90t-30 68.5t-57 44t-79 15.5zM225 -120q3 18 17.5 30.5t32.5 12.5t28.5 -12.5t7.5 -30.5q-4 -18 -19 -30.5t-32 -12.5q-18 0 -28.5 12.5t-6.5 30.5z" />
    <glyph glyph-name="uni1EA2" unicode="&#x1ea2;" horiz-adv-x="644" 
d="M429 895q-24 0 -34.5 -12t-18.5 -35l-36 2q4 14 10 28t16.5 26t27.5 19.5t42 7.5q42 0 57.5 -20.5t8.5 -56.5q-5 -29 -28 -49.5t-59 -51.5l-20 22q27 23 46 41t23 38q5 23 -4 32t-31 9zM452 172h-321l-94 -172h-75l382 689h79l138 -689h-76zM442 228l-73 382l-208 -382
h281z" />
    <glyph glyph-name="uni1EA3" unicode="&#x1ea3;" 
d="M428 772q42 0 57.5 -20.5t8.5 -56.5q-5 -29 -28 -49.5t-59 -51.5l-20 22q27 23 46 41t23 38q5 23 -4 32t-31 9q-24 0 -34.5 -12t-18.5 -35l-36 2q4 14 10 28t16.5 26t27.5 19.5t42 7.5zM353 553q88 0 138 -44t59 -113l26 150h70l-96 -546h-70l27 150q-33 -69 -98 -113
t-152 -44q-57 0 -100.5 19.5t-71 56.5t-37 90t2.5 119q11 65 39 116t68 86t90 54t105 19zM363 491q-46 0 -86 -15t-71.5 -43t-53 -68.5t-30.5 -91.5q-18 -103 27 -160.5t137 -57.5q44 0 84 15.5t72.5 44t54.5 69t31 89.5q9 50 1 90t-30 68.5t-57 44t-79 15.5z" />
    <glyph glyph-name="uni1EA4" unicode="&#x1ea4;" horiz-adv-x="644" 
d="M369 877l-11 27l158 99l17 -38zM306 756l-11 31l138 76l109 -76l-20 -31l-96 66zM452 172h-321l-94 -172h-75l382 689h79l138 -689h-76zM442 228l-73 382l-208 -382h281z" />
    <glyph glyph-name="uni1EA5" unicode="&#x1ea5;" 
d="M525 806l-164 -88l-11 27l158 99zM418 663l-120 -66l-11 31l138 76l109 -76l-20 -31zM353 553q88 0 138 -44t59 -113l26 150h70l-96 -546h-70l27 150q-33 -69 -98 -113t-152 -44q-57 0 -100.5 19.5t-71 56.5t-37 90t2.5 119q11 65 39 116t68 86t90 54t105 19zM363 491
q-46 0 -86 -15t-71.5 -43t-53 -68.5t-30.5 -91.5q-18 -103 27 -160.5t137 -57.5q44 0 84 15.5t72.5 44t54.5 69t31 89.5q9 50 1 90t-30 68.5t-57 44t-79 15.5z" />
    <glyph glyph-name="uni1EA6" unicode="&#x1ea6;" horiz-adv-x="644" 
d="M524 854l-134 90l21 40l129 -99zM306 756l-11 31l138 76l109 -76l-20 -31l-96 66zM452 172h-321l-94 -172h-75l382 689h79l138 -689h-76zM442 228l-73 382l-208 -382h281z" />
    <glyph glyph-name="uni1EA7" unicode="&#x1ea7;" 
d="M532 726l-16 -31l-134 90l21 40zM418 663l-120 -66l-11 31l138 76l109 -76l-20 -31zM353 553q88 0 138 -44t59 -113l26 150h70l-96 -546h-70l27 150q-33 -69 -98 -113t-152 -44q-57 0 -100.5 19.5t-71 56.5t-37 90t2.5 119q11 65 39 116t68 86t90 54t105 19zM363 491
q-46 0 -86 -15t-71.5 -43t-53 -68.5t-30.5 -91.5q-18 -103 27 -160.5t137 -57.5q44 0 84 15.5t72.5 44t54.5 69t31 89.5q9 50 1 90t-30 68.5t-57 44t-79 15.5z" />
    <glyph glyph-name="uni1EA8" unicode="&#x1ea8;" horiz-adv-x="644" 
d="M570 1007q41 0 56 -20t9 -55q-5 -28 -28 -48.5t-58 -50.5l-19 22q26 23 44.5 40t22.5 37q5 23 -3.5 31.5t-30.5 8.5q-23 0 -33.5 -12t-18.5 -34l-35 2q4 13 10 27t16.5 25.5t27 19t40.5 7.5zM306 756l-11 31l138 76l109 -76l-20 -31l-96 66zM423 689l138 -689h-76
l-33 172h-321l-94 -172h-75l382 689h79zM442 228l-73 382l-208 -382h281z" />
    <glyph glyph-name="uni1EA9" unicode="&#x1ea9;" 
d="M562 848q41 0 56 -20t9 -55q-5 -28 -28 -48.5t-58 -50.5l-19 22q26 23 44.5 40t22.5 37q5 23 -3.5 31.5t-30.5 8.5q-23 0 -33.5 -12t-18.5 -34l-35 2q4 13 10 27t16.5 25.5t27 19t40.5 7.5zM418 663l-120 -66l-11 31l138 76l109 -76l-20 -31zM353 553q88 0 138 -44
t59 -113l26 150h70l-96 -546h-70l27 150q-33 -69 -98 -113t-152 -44q-57 0 -100.5 19.5t-71 56.5t-37 90t2.5 119q11 65 39 116t68 86t90 54t105 19zM363 491q-46 0 -86 -15t-71.5 -43t-53 -68.5t-30.5 -91.5q-18 -103 27 -160.5t137 -57.5q44 0 84 15.5t72.5 44t54.5 69
t31 89.5q9 50 1 90t-30 68.5t-57 44t-79 15.5z" />
    <glyph glyph-name="uni1EAA" unicode="&#x1eaa;" horiz-adv-x="644" 
d="M402 925q-33 0 -46 -43h-33q26 81 87 81q18 0 29.5 -7t21.5 -15t20 -15t25 -7t28 10.5t19 31.5h34q-11 -38 -35 -59t-53 -21q-19 0 -31 7t-22 15t-20 15t-24 7zM306 756l-11 31l138 76l109 -76l-20 -31l-96 66zM423 689l138 -689h-76l-33 172h-321l-94 -172h-75l382 689
h79zM442 228l-73 382l-208 -382h281z" />
    <glyph glyph-name="uni1EAB" unicode="&#x1eab;" 
d="M402 804q18 0 29.5 -7t21.5 -15t20 -15t25 -7t28 10.5t19 31.5h34q-11 -38 -35 -59t-53 -21q-19 0 -31 7t-22 15t-20 15t-24 7q-33 0 -46 -43h-33q26 81 87 81zM418 663l-120 -66l-11 31l138 76l109 -76l-20 -31zM353 553q88 0 138 -44t59 -113l26 150h70l-96 -546h-70
l27 150q-33 -69 -98 -113t-152 -44q-57 0 -100.5 19.5t-71 56.5t-37 90t2.5 119q11 65 39 116t68 86t90 54t105 19zM363 491q-46 0 -86 -15t-71.5 -43t-53 -68.5t-30.5 -91.5q-18 -103 27 -160.5t137 -57.5q44 0 84 15.5t72.5 44t54.5 69t31 89.5q9 50 1 90t-30 68.5t-57 44
t-79 15.5z" />
    <glyph glyph-name="uni1EAC" unicode="&#x1eac;" horiz-adv-x="644" 
d="M303 757l-11 32l141 78l112 -78l-20 -32l-99 68zM485 0l-33 172h-321l-94 -172h-75l382 689h79l138 -689h-76zM442 228l-73 382l-208 -382h281zM260 -77q18 0 28.5 -12.5t7.5 -30.5q-4 -18 -19 -30.5t-32 -12.5q-18 0 -28.5 12.5t-6.5 30.5q3 18 17.5 30.5t32.5 12.5z
" />
    <glyph glyph-name="uni1EAD" unicode="&#x1ead;" 
d="M418 666l-123 -68l-11 32l141 78l112 -78l-20 -32zM353 553q88 0 138 -44t59 -113l26 150h70l-96 -546h-70l27 150q-33 -69 -98 -113t-152 -44q-57 0 -100.5 19.5t-71 56.5t-37 90t2.5 119q11 65 39 116t68 86t90 54t105 19zM363 491q-46 0 -86 -15t-71.5 -43t-53 -68.5
t-30.5 -91.5q-18 -103 27 -160.5t137 -57.5q44 0 84 15.5t72.5 44t54.5 69t31 89.5q9 50 1 90t-30 68.5t-57 44t-79 15.5zM225 -120q3 18 17.5 30.5t32.5 12.5t28.5 -12.5t7.5 -30.5q-4 -18 -19 -30.5t-32 -12.5q-18 0 -28.5 12.5t-6.5 30.5z" />
    <glyph glyph-name="uni1EAE" unicode="&#x1eae;" horiz-adv-x="644" 
d="M373 945l-11 27l158 99l17 -38zM396 769q-31 0 -53 9.5t-34.5 25.5t-17 37.5t-0.5 44.5l1 7h37q-7 -38 11.5 -58.5t62.5 -20.5q45 0 71 20.5t32 58.5h36l-1 -7q-4 -23 -15.5 -44.5t-30 -37.5t-43.5 -25.5t-56 -9.5zM452 172h-321l-94 -172h-75l382 689h79l138 -689h-76z
M442 228l-73 382l-208 -382h281z" />
    <glyph glyph-name="uni1EAF" unicode="&#x1eaf;" 
d="M529 874l-164 -88l-11 27l158 99zM388 610q-31 0 -53 9.5t-34.5 25.5t-17 37.5t-0.5 44.5l1 7h37q-7 -38 11.5 -58.5t62.5 -20.5q45 0 71 20.5t32 58.5h36l-1 -7q-4 -23 -15.5 -44.5t-30 -37.5t-43.5 -25.5t-56 -9.5zM353 553q88 0 138 -44t59 -113l26 150h70l-96 -546
h-70l27 150q-33 -69 -98 -113t-152 -44q-57 0 -100.5 19.5t-71 56.5t-37 90t2.5 119q11 65 39 116t68 86t90 54t105 19zM363 491q-46 0 -86 -15t-71.5 -43t-53 -68.5t-30.5 -91.5q-18 -103 27 -160.5t137 -57.5q44 0 84 15.5t72.5 44t54.5 69t31 89.5q9 50 1 90t-30 68.5
t-57 44t-79 15.5z" />
    <glyph glyph-name="uni1EB0" unicode="&#x1eb0;" horiz-adv-x="644" 
d="M526 941l-134 90l21 40l129 -99zM396 769q-31 0 -53 9.5t-34.5 25.5t-17 37.5t-0.5 44.5l1 7h37q-7 -38 11.5 -58.5t62.5 -20.5q45 0 71 20.5t32 58.5h36l-1 -7q-4 -23 -15.5 -44.5t-30 -37.5t-43.5 -25.5t-56 -9.5zM452 172h-321l-94 -172h-75l382 689h79l138 -689h-76z
M442 228l-73 382l-208 -382h281z" />
    <glyph glyph-name="uni1EB1" unicode="&#x1eb1;" 
d="M534 813l-16 -31l-134 90l21 40zM388 610q-31 0 -53 9.5t-34.5 25.5t-17 37.5t-0.5 44.5l1 7h37q-7 -38 11.5 -58.5t62.5 -20.5q45 0 71 20.5t32 58.5h36l-1 -7q-4 -23 -15.5 -44.5t-30 -37.5t-43.5 -25.5t-56 -9.5zM353 553q88 0 138 -44t59 -113l26 150h70l-96 -546
h-70l27 150q-33 -69 -98 -113t-152 -44q-57 0 -100.5 19.5t-71 56.5t-37 90t2.5 119q11 65 39 116t68 86t90 54t105 19zM363 491q-46 0 -86 -15t-71.5 -43t-53 -68.5t-30.5 -91.5q-18 -103 27 -160.5t137 -57.5q44 0 84 15.5t72.5 44t54.5 69t31 89.5q9 50 1 90t-30 68.5
t-57 44t-79 15.5z" />
    <glyph glyph-name="uni1EB2" unicode="&#x1eb2;" horiz-adv-x="644" 
d="M461 1079q-23 0 -33.5 -12t-18.5 -34l-35 2q4 13 10 27t16.5 25.5t27 19t40.5 7.5q41 0 56 -20t9 -55q-5 -28 -28 -48.5t-58 -50.5l-19 22q26 23 44.5 40t22.5 37q5 23 -3.5 31.5t-30.5 8.5zM396 769q-31 0 -53 9.5t-34.5 25.5t-17 37.5t-0.5 44.5l1 7h37
q-7 -38 11.5 -58.5t62.5 -20.5q45 0 71 20.5t32 58.5h36l-1 -7q-4 -23 -15.5 -44.5t-30 -37.5t-43.5 -25.5t-56 -9.5zM452 172h-321l-94 -172h-75l382 689h79l138 -689h-76zM442 228l-73 382l-208 -382h281z" />
    <glyph glyph-name="uni1EB3" unicode="&#x1eb3;" 
d="M460 955q41 0 56 -20t9 -55q-5 -28 -28 -48.5t-58 -50.5l-19 22q26 23 44.5 40t22.5 37q5 23 -3.5 31.5t-30.5 8.5q-23 0 -33.5 -12t-18.5 -34l-35 2q4 13 10 27t16.5 25.5t27 19t40.5 7.5zM388 610q-31 0 -53 9.5t-34.5 25.5t-17 37.5t-0.5 44.5l1 7h37
q-7 -38 11.5 -58.5t62.5 -20.5q45 0 71 20.5t32 58.5h36l-1 -7q-4 -23 -15.5 -44.5t-30 -37.5t-43.5 -25.5t-56 -9.5zM353 553q88 0 138 -44t59 -113l26 150h70l-96 -546h-70l27 150q-33 -69 -98 -113t-152 -44q-57 0 -100.5 19.5t-71 56.5t-37 90t2.5 119q11 65 39 116
t68 86t90 54t105 19zM363 491q-46 0 -86 -15t-71.5 -43t-53 -68.5t-30.5 -91.5q-18 -103 27 -160.5t137 -57.5q44 0 84 15.5t72.5 44t54.5 69t31 89.5q9 50 1 90t-30 68.5t-57 44t-79 15.5z" />
    <glyph glyph-name="uni1EB4" unicode="&#x1eb4;" horiz-adv-x="644" 
d="M389 997q-33 0 -48 -45h-34q26 84 91 84q19 0 31 -7t21.5 -16t20 -16t26.5 -7t29.5 11t19.5 33h35q-11 -39 -35.5 -61t-55.5 -22q-19 0 -32 7t-23.5 16t-20.5 16t-25 7zM396 769q-31 0 -53 9.5t-34.5 25.5t-17 37.5t-0.5 44.5l1 7h37q-7 -38 11.5 -58.5t62.5 -20.5
q45 0 71 20.5t32 58.5h36l-1 -7q-4 -23 -15.5 -44.5t-30 -37.5t-43.5 -25.5t-56 -9.5zM423 689l138 -689h-76l-33 172h-321l-94 -172h-75l382 689h79zM442 228l-73 382l-208 -382h281z" />
    <glyph glyph-name="uni1EB5" unicode="&#x1eb5;" 
d="M390 877q19 0 31 -7t21.5 -16t20 -16t26.5 -7t29.5 11t19.5 33h35q-11 -39 -35.5 -61t-55.5 -22q-19 0 -32 7t-23.5 16t-20.5 16t-25 7q-33 0 -48 -45h-34q26 84 91 84zM388 610q-31 0 -53 9.5t-34.5 25.5t-17 37.5t-0.5 44.5l1 7h37q-7 -38 11.5 -58.5t62.5 -20.5
q45 0 71 20.5t32 58.5h36l-1 -7q-4 -23 -15.5 -44.5t-30 -37.5t-43.5 -25.5t-56 -9.5zM353 553q88 0 138 -44t59 -113l26 150h70l-96 -546h-70l27 150q-33 -69 -98 -113t-152 -44q-57 0 -100.5 19.5t-71 56.5t-37 90t2.5 119q11 65 39 116t68 86t90 54t105 19zM363 491
q-46 0 -86 -15t-71.5 -43t-53 -68.5t-30.5 -91.5q-18 -103 27 -160.5t137 -57.5q44 0 84 15.5t72.5 44t54.5 69t31 89.5q9 50 1 90t-30 68.5t-57 44t-79 15.5z" />
    <glyph glyph-name="uni1EB6" unicode="&#x1eb6;" horiz-adv-x="644" 
d="M396 771q-32 0 -54.5 10t-35.5 26.5t-17 38t0 45.5l1 7h37q-7 -38 12 -59.5t64 -21.5t72 21.5t34 59.5h36l-1 -7q-4 -24 -15.5 -45.5t-30.5 -38t-44.5 -26.5t-57.5 -10zM485 0l-33 172h-321l-94 -172h-75l382 689h79l138 -689h-76zM442 228l-73 382l-208 -382h281z
M260 -77q18 0 28.5 -12.5t7.5 -30.5q-4 -18 -19 -30.5t-32 -12.5q-18 0 -28.5 12.5t-6.5 30.5q3 18 17.5 30.5t32.5 12.5z" />
    <glyph glyph-name="uni1EB7" unicode="&#x1eb7;" 
d="M388 612q-32 0 -54.5 10t-35.5 26.5t-17 38t0 45.5l1 7h37q-7 -38 12 -59.5t64 -21.5t72 21.5t34 59.5h36l-1 -7q-4 -24 -15.5 -45.5t-30.5 -38t-44.5 -26.5t-57.5 -10zM353 553q88 0 138 -44t59 -113l26 150h70l-96 -546h-70l27 150q-33 -69 -98 -113t-152 -44
q-57 0 -100.5 19.5t-71 56.5t-37 90t2.5 119q11 65 39 116t68 86t90 54t105 19zM363 491q-46 0 -86 -15t-71.5 -43t-53 -68.5t-30.5 -91.5q-18 -103 27 -160.5t137 -57.5q44 0 84 15.5t72.5 44t54.5 69t31 89.5q9 50 1 90t-30 68.5t-57 44t-79 15.5zM225 -120
q3 18 17.5 30.5t32.5 12.5t28.5 -12.5t7.5 -30.5q-4 -18 -19 -30.5t-32 -12.5q-18 0 -28.5 12.5t-6.5 30.5z" />
    <glyph glyph-name="uni1EB8" unicode="&#x1eb8;" horiz-adv-x="498" 
d="M199 648l-47 -266h275l-9 -55h-276l-47 -269h305l-10 -58h-376l124 705h376l-10 -57h-305zM137 -120q3 18 17.5 30.5t32.5 12.5t28.5 -12.5t7.5 -30.5q-4 -18 -19 -30.5t-32 -12.5q-18 0 -28.5 12.5t-6.5 30.5z" />
    <glyph glyph-name="uni1EB9" unicode="&#x1eb9;" horiz-adv-x="625" 
d="M366 553q62 0 106.5 -20t71.5 -54t36.5 -78.5t0.5 -92.5q-3 -17 -5.5 -27.5t-7.5 -23.5h-452q-8 -54 2 -93t32.5 -64t55 -37t69.5 -12q73 0 129 37t79 100h74q-15 -42 -42 -78t-64.5 -62t-83.5 -40.5t-100 -14.5q-58 0 -103.5 19.5t-74.5 56t-40 89t1 118.5
q12 65 41 116.5t71 87t94 54.5t110 19zM508 293q12 53 4 91.5t-30.5 63.5t-55.5 36.5t-70 11.5q-38 0 -75 -12t-68.5 -36.5t-55 -63t-34.5 -91.5h385zM250 -77q18 0 28.5 -12.5t7.5 -30.5q-4 -18 -19 -30.5t-32 -12.5q-18 0 -28.5 12.5t-6.5 30.5q3 18 17.5 30.5t32.5 12.5z
" />
    <glyph glyph-name="uni1EBA" unicode="&#x1eba;" horiz-adv-x="498" 
d="M368 931q42 0 57.5 -20.5t8.5 -56.5q-5 -29 -28 -49.5t-59 -51.5l-20 22q27 23 46 41t23 38q5 23 -4 32t-31 9q-24 0 -34.5 -12t-18.5 -35l-36 2q4 14 10 28t16.5 26t27.5 19.5t42 7.5zM199 648l-47 -266h275l-9 -55h-276l-47 -269h305l-10 -58h-376l124 705h376l-10 -57
h-305z" />
    <glyph glyph-name="uni1EBB" unicode="&#x1ebb;" horiz-adv-x="625" 
d="M396 736q-24 0 -34.5 -12t-18.5 -35l-36 2q4 14 10 28t16.5 26t27.5 19.5t42 7.5q42 0 57.5 -20.5t8.5 -56.5q-5 -29 -28 -49.5t-59 -51.5l-20 22q27 23 46 41t23 38q5 23 -4 32t-31 9zM366 553q62 0 106.5 -20t71.5 -54t36.5 -78.5t0.5 -92.5q-3 -17 -5.5 -27.5
t-7.5 -23.5h-452q-8 -54 2 -93t32.5 -64t55 -37t69.5 -12q73 0 129 37t79 100h74q-15 -42 -42 -78t-64.5 -62t-83.5 -40.5t-100 -14.5q-58 0 -103.5 19.5t-74.5 56t-40 89t1 118.5q12 65 41 116.5t71 87t94 54.5t110 19zM508 293q12 53 4 91.5t-30.5 63.5t-55.5 36.5
t-70 11.5q-38 0 -75 -12t-68.5 -36.5t-55 -63t-34.5 -91.5h385z" />
    <glyph glyph-name="uni1EBC" unicode="&#x1ebc;" horiz-adv-x="498" 
d="M296 851q19 0 31.5 -7.5t22.5 -16t21 -16t27 -7.5t29.5 11t20.5 34h36q-11 -41 -36.5 -63t-57.5 -22q-20 0 -33 7.5t-23.5 16t-21 16t-25.5 7.5q-35 0 -49 -46h-35q27 86 93 86zM199 648l-47 -266h275l-9 -55h-276l-47 -269h305l-10 -58h-376l124 705h376l-10 -57h-305z
" />
    <glyph glyph-name="uni1EBD" unicode="&#x1ebd;" horiz-adv-x="625" 
d="M322 652q-35 0 -49 -46h-35q27 86 93 86q19 0 31.5 -7.5t22.5 -16t21 -16t27 -7.5t29.5 11t20.5 34h36q-11 -41 -36.5 -63t-57.5 -22q-20 0 -33 7.5t-23.5 16t-21 16t-25.5 7.5zM366 553q62 0 106.5 -20t71.5 -54t36.5 -78.5t0.5 -92.5q-3 -17 -5.5 -27.5t-7.5 -23.5
h-452q-8 -54 2 -93t32.5 -64t55 -37t69.5 -12q73 0 129 37t79 100h74q-15 -42 -42 -78t-64.5 -62t-83.5 -40.5t-100 -14.5q-58 0 -103.5 19.5t-74.5 56t-40 89t1 118.5q12 65 41 116.5t71 87t94 54.5t110 19zM508 293q12 53 4 91.5t-30.5 63.5t-55.5 36.5t-70 11.5
q-38 0 -75 -12t-68.5 -36.5t-55 -63t-34.5 -91.5h385z" />
    <glyph glyph-name="uni1EBE" unicode="&#x1ebe;" horiz-adv-x="498" 
d="M465 965l-164 -88l-11 27l158 99zM358 822l-120 -66l-11 31l138 76l109 -76l-20 -31zM199 648l-47 -266h275l-9 -55h-276l-47 -269h305l-10 -58h-376l124 705h376l-10 -57h-305z" />
    <glyph glyph-name="uni1EBF" unicode="&#x1ebf;" horiz-adv-x="625" 
d="M336 718l-11 27l158 99l17 -38zM273 597l-11 31l138 76l109 -76l-20 -31l-96 66zM366 553q62 0 106.5 -20t71.5 -54t36.5 -78.5t0.5 -92.5q-3 -17 -5.5 -27.5t-7.5 -23.5h-452q-8 -54 2 -93t32.5 -64t55 -37t69.5 -12q73 0 129 37t79 100h74q-15 -42 -42 -78t-64.5 -62
t-83.5 -40.5t-100 -14.5q-58 0 -103.5 19.5t-74.5 56t-40 89t1 118.5q12 65 41 116.5t71 87t94 54.5t110 19zM508 293q12 53 4 91.5t-30.5 63.5t-55.5 36.5t-70 11.5q-38 0 -75 -12t-68.5 -36.5t-55 -63t-34.5 -91.5h385z" />
    <glyph glyph-name="uni1EC0" unicode="&#x1ec0;" horiz-adv-x="498" 
d="M472 885l-16 -31l-134 90l21 40zM358 822l-120 -66l-11 31l138 76l109 -76l-20 -31zM199 648l-47 -266h275l-9 -55h-276l-47 -269h305l-10 -58h-376l124 705h376l-10 -57h-305z" />
    <glyph glyph-name="uni1EC1" unicode="&#x1ec1;" horiz-adv-x="625" 
d="M491 695l-134 90l21 40l129 -99zM273 597l-11 31l138 76l109 -76l-20 -31l-96 66zM366 553q62 0 106.5 -20t71.5 -54t36.5 -78.5t0.5 -92.5q-3 -17 -5.5 -27.5t-7.5 -23.5h-452q-8 -54 2 -93t32.5 -64t55 -37t69.5 -12q73 0 129 37t79 100h74q-15 -42 -42 -78t-64.5 -62
t-83.5 -40.5t-100 -14.5q-58 0 -103.5 19.5t-74.5 56t-40 89t1 118.5q12 65 41 116.5t71 87t94 54.5t110 19zM508 293q12 53 4 91.5t-30.5 63.5t-55.5 36.5t-70 11.5q-38 0 -75 -12t-68.5 -36.5t-55 -63t-34.5 -91.5h385z" />
    <glyph glyph-name="uni1EC2" unicode="&#x1ec2;" horiz-adv-x="498" 
d="M502 1007q41 0 56 -20t9 -55q-5 -28 -28 -48.5t-58 -50.5l-19 22q26 23 44.5 40t22.5 37q5 23 -3.5 31.5t-30.5 8.5q-23 0 -33.5 -12t-18.5 -34l-35 2q4 13 10 27t16.5 25.5t27 19t40.5 7.5zM358 822l-120 -66l-11 31l138 76l109 -76l-20 -31zM199 648l-47 -266h275
l-9 -55h-276l-47 -269h305l-10 -58h-376l124 705h376l-10 -57h-305z" />
    <glyph glyph-name="uni1EC3" unicode="&#x1ec3;" horiz-adv-x="625" 
d="M537 848q41 0 56 -20t9 -55q-5 -28 -28 -48.5t-58 -50.5l-19 22q26 23 44.5 40t22.5 37q5 23 -3.5 31.5t-30.5 8.5q-23 0 -33.5 -12t-18.5 -34l-35 2q4 13 10 27t16.5 25.5t27 19t40.5 7.5zM273 597l-11 31l138 76l109 -76l-20 -31l-96 66zM366 553q62 0 106.5 -20
t71.5 -54t36.5 -78.5t0.5 -92.5q-3 -17 -5.5 -27.5t-7.5 -23.5h-452q-8 -54 2 -93t32.5 -64t55 -37t69.5 -12q73 0 129 37t79 100h74q-15 -42 -42 -78t-64.5 -62t-83.5 -40.5t-100 -14.5q-58 0 -103.5 19.5t-74.5 56t-40 89t1 118.5q12 65 41 116.5t71 87t94 54.5t110 19z
M508 293q12 53 4 91.5t-30.5 63.5t-55.5 36.5t-70 11.5q-38 0 -75 -12t-68.5 -36.5t-55 -63t-34.5 -91.5h385z" />
    <glyph glyph-name="uni1EC4" unicode="&#x1ec4;" horiz-adv-x="498" 
d="M342 963q18 0 29.5 -7t21.5 -15t20 -15t25 -7t28 10.5t19 31.5h34q-11 -38 -35 -59t-53 -21q-19 0 -31 7t-22 15t-20 15t-24 7q-33 0 -46 -43h-33q26 81 87 81zM358 822l-120 -66l-11 31l138 76l109 -76l-20 -31zM199 648l-47 -266h275l-9 -55h-276l-47 -269h305l-10 -58
h-376l124 705h376l-10 -57h-305z" />
    <glyph glyph-name="uni1EC5" unicode="&#x1ec5;" horiz-adv-x="625" 
d="M369 766q-33 0 -46 -43h-33q26 81 87 81q18 0 29.5 -7t21.5 -15t20 -15t25 -7t28 10.5t19 31.5h34q-11 -38 -35 -59t-53 -21q-19 0 -31 7t-22 15t-20 15t-24 7zM273 597l-11 31l138 76l109 -76l-20 -31l-96 66zM366 553q62 0 106.5 -20t71.5 -54t36.5 -78.5t0.5 -92.5
q-3 -17 -5.5 -27.5t-7.5 -23.5h-452q-8 -54 2 -93t32.5 -64t55 -37t69.5 -12q73 0 129 37t79 100h74q-15 -42 -42 -78t-64.5 -62t-83.5 -40.5t-100 -14.5q-58 0 -103.5 19.5t-74.5 56t-40 89t1 118.5q12 65 41 116.5t71 87t94 54.5t110 19zM508 293q12 53 4 91.5t-30.5 63.5
t-55.5 36.5t-70 11.5q-38 0 -75 -12t-68.5 -36.5t-55 -63t-34.5 -91.5h385z" />
    <glyph glyph-name="uni1EC6" unicode="&#x1ec6;" horiz-adv-x="498" 
d="M358 825l-123 -68l-11 32l141 78l112 -78l-20 -32zM199 648l-47 -266h275l-9 -55h-276l-47 -269h305l-10 -58h-376l124 705h376l-10 -57h-305zM137 -120q3 18 17.5 30.5t32.5 12.5t28.5 -12.5t7.5 -30.5q-4 -18 -19 -30.5t-32 -12.5q-18 0 -28.5 12.5t-6.5 30.5z" />
    <glyph glyph-name="uni1EC7" unicode="&#x1ec7;" horiz-adv-x="625" 
d="M270 598l-11 32l141 78l112 -78l-20 -32l-99 68zM366 553q62 0 106.5 -20t71.5 -54t36.5 -78.5t0.5 -92.5q-3 -17 -5.5 -27.5t-7.5 -23.5h-452q-8 -54 2 -93t32.5 -64t55 -37t69.5 -12q73 0 129 37t79 100h74q-15 -42 -42 -78t-64.5 -62t-83.5 -40.5t-100 -14.5
q-58 0 -103.5 19.5t-74.5 56t-40 89t1 118.5q12 65 41 116.5t71 87t94 54.5t110 19zM508 293q12 53 4 91.5t-30.5 63.5t-55.5 36.5t-70 11.5q-38 0 -75 -12t-68.5 -36.5t-55 -63t-34.5 -91.5h385zM250 -77q18 0 28.5 -12.5t7.5 -30.5q-4 -18 -19 -30.5t-32 -12.5
q-18 0 -28.5 12.5t-6.5 30.5q3 18 17.5 30.5t32.5 12.5z" />
    <glyph glyph-name="uni1EC8" unicode="&#x1ec8;" horiz-adv-x="223" 
d="M230 931q42 0 57.5 -20.5t8.5 -56.5q-5 -29 -28 -49.5t-59 -51.5l-20 22q27 23 46 41t23 38q5 23 -4 32t-31 9q-24 0 -34.5 -12t-18.5 -35l-36 2q4 14 10 28t16.5 26t27.5 19.5t42 7.5zM209 705l-124 -705h-71l124 705h71z" />
    <glyph glyph-name="uni1EC9" unicode="&#x1ec9;" horiz-adv-x="221" 
d="M201 772q42 0 57.5 -20.5t8.5 -56.5q-5 -29 -28 -49.5t-59 -51.5l-20 22q27 23 46 41t23 38q5 23 -4 32t-31 9q-24 0 -34.5 -12t-18.5 -35l-36 2q4 14 10 28t16.5 26t27.5 19.5t42 7.5zM194 546l-97 -546h-70l96 546h71z" />
    <glyph glyph-name="uni1ECA" unicode="&#x1eca;" horiz-adv-x="223" 
d="M209 705l-124 -705h-71l124 705h71zM-1 -120q3 18 17.5 30.5t32.5 12.5t28.5 -12.5t7.5 -30.5q-4 -18 -19 -30.5t-32 -12.5q-18 0 -28.5 12.5t-6.5 30.5z" />
    <glyph glyph-name="uni1ECB" unicode="&#x1ecb;" horiz-adv-x="223" 
d="M136 708q4 22 20.5 35t39.5 13t34.5 -13t7.5 -35q-3 -21 -19.5 -34t-39.5 -13t-35 13t-8 34zM194 546l-97 -546h-71l97 546h71zM-1 -120q3 18 17.5 30.5t32.5 12.5t28.5 -12.5t7.5 -30.5q-4 -18 -19 -30.5t-32 -12.5q-18 0 -28.5 12.5t-6.5 30.5z" />
    <glyph glyph-name="uni1ECC" unicode="&#x1ecc;" horiz-adv-x="787" 
d="M450 713q77 0 136.5 -27.5t97 -76.5t51 -117t-0.5 -149q-13 -77 -49 -141.5t-88 -111t-118 -72.5t-141 -26q-78 0 -137.5 27.5t-97 76.5t-51 117t0.5 150q14 77 49.5 141t87.5 110.5t118.5 72.5t141.5 26zM443 648q-57 0 -109.5 -20t-95.5 -58t-73 -92.5t-42 -122.5
q-12 -69 -1 -124t41 -93.5t76.5 -59t104.5 -20.5q57 0 110 20t95.5 58t73 92t42.5 122q12 69 1 124.5t-41 94t-76.5 59t-105.5 20.5zM281 -120q3 18 17.5 30.5t32.5 12.5t28.5 -12.5t7.5 -30.5q-4 -18 -19 -30.5t-32 -12.5q-18 0 -28.5 12.5t-6.5 30.5z" />
    <glyph glyph-name="uni1ECD" unicode="&#x1ecd;" horiz-adv-x="645" 
d="M371 553q59 0 105.5 -19.5t76.5 -56t42 -89.5t0 -120q-12 -64 -41.5 -115.5t-72 -86.5t-95 -54t-110.5 -19q-59 0 -106 19.5t-77.5 56.5t-42.5 89.5t0 119.5q12 65 41.5 116t72.5 86.5t96 54t111 18.5zM361 492q-38 0 -76.5 -13t-71.5 -40t-57 -68t-34 -98t-0.5 -98
t33 -67.5t57 -39.5t72.5 -13t77.5 13t71 39.5t56.5 67.5t34 98t0.5 98t-32.5 68t-57 40t-73 13zM210 -120q3 18 17.5 30.5t32.5 12.5t28.5 -12.5t7.5 -30.5q-4 -18 -19 -30.5t-32 -12.5q-18 0 -28.5 12.5t-6.5 30.5z" />
    <glyph glyph-name="uni1ECE" unicode="&#x1ece;" horiz-adv-x="787" 
d="M504 931q42 0 57.5 -20.5t8.5 -56.5q-5 -29 -28 -49.5t-59 -51.5l-20 22q27 23 46 41t23 38q5 23 -4 32t-31 9q-24 0 -34.5 -12t-18.5 -35l-36 2q4 14 10 28t16.5 26t27.5 19.5t42 7.5zM450 713q77 0 136.5 -27.5t97 -76.5t51 -117t-0.5 -149q-13 -77 -49 -141.5
t-88 -111t-118 -72.5t-141 -26q-78 0 -137.5 27.5t-97 76.5t-51 117t0.5 150q14 77 49.5 141t87.5 110.5t118.5 72.5t141.5 26zM443 648q-57 0 -109.5 -20t-95.5 -58t-73 -92.5t-42 -122.5q-12 -69 -1 -124t41 -93.5t76.5 -59t104.5 -20.5q57 0 110 20t95.5 58t73 92
t42.5 122q12 69 1 124.5t-41 94t-76.5 59t-105.5 20.5z" />
    <glyph glyph-name="uni1ECF" unicode="&#x1ecf;" horiz-adv-x="645" 
d="M413 772q42 0 57.5 -20.5t8.5 -56.5q-5 -29 -28 -49.5t-59 -51.5l-20 22q27 23 46 41t23 38q5 23 -4 32t-31 9q-24 0 -34.5 -12t-18.5 -35l-36 2q4 14 10 28t16.5 26t27.5 19.5t42 7.5zM371 553q59 0 105.5 -19.5t76.5 -56t42 -89.5t0 -120q-12 -64 -41.5 -115.5
t-72 -86.5t-95 -54t-110.5 -19q-59 0 -106 19.5t-77.5 56.5t-42.5 89.5t0 119.5q12 65 41.5 116t72.5 86.5t96 54t111 18.5zM361 492q-38 0 -76.5 -13t-71.5 -40t-57 -68t-34 -98t-0.5 -98t33 -67.5t57 -39.5t72.5 -13t77.5 13t71 39.5t56.5 67.5t34 98t0.5 98t-32.5 68
t-57 40t-73 13z" />
    <glyph glyph-name="uni1ED0" unicode="&#x1ed0;" horiz-adv-x="787" 
d="M601 965l-164 -88l-11 27l158 99zM494 822l-120 -66l-11 31l138 76l109 -76l-20 -31zM450 713q77 0 136.5 -27.5t97 -76.5t51 -117t-0.5 -149q-13 -77 -49 -141.5t-88 -111t-118 -72.5t-141 -26q-78 0 -137.5 27.5t-97 76.5t-51 117t0.5 150q14 77 49.5 141t87.5 110.5
t118.5 72.5t141.5 26zM443 648q-57 0 -109.5 -20t-95.5 -58t-73 -92.5t-42 -122.5q-12 -69 -1 -124t41 -93.5t76.5 -59t104.5 -20.5q57 0 110 20t95.5 58t73 92t42.5 122q12 69 1 124.5t-41 94t-76.5 59t-105.5 20.5z" />
    <glyph glyph-name="uni1ED1" unicode="&#x1ed1;" horiz-adv-x="645" 
d="M510 806l-164 -88l-11 27l158 99zM403 663l-120 -66l-11 31l138 76l109 -76l-20 -31zM371 553q59 0 105.5 -19.5t76.5 -56t42 -89.5t0 -120q-12 -64 -41.5 -115.5t-72 -86.5t-95 -54t-110.5 -19q-59 0 -106 19.5t-77.5 56.5t-42.5 89.5t0 119.5q12 65 41.5 116t72.5 86.5
t96 54t111 18.5zM361 492q-38 0 -76.5 -13t-71.5 -40t-57 -68t-34 -98t-0.5 -98t33 -67.5t57 -39.5t72.5 -13t77.5 13t71 39.5t56.5 67.5t34 98t0.5 98t-32.5 68t-57 40t-73 13z" />
    <glyph glyph-name="uni1ED2" unicode="&#x1ed2;" horiz-adv-x="787" 
d="M608 885l-16 -31l-134 90l21 40zM494 822l-120 -66l-11 31l138 76l109 -76l-20 -31zM450 713q77 0 136.5 -27.5t97 -76.5t51 -117t-0.5 -149q-13 -77 -49 -141.5t-88 -111t-118 -72.5t-141 -26q-78 0 -137.5 27.5t-97 76.5t-51 117t0.5 150q14 77 49.5 141t87.5 110.5
t118.5 72.5t141.5 26zM443 648q-57 0 -109.5 -20t-95.5 -58t-73 -92.5t-42 -122.5q-12 -69 -1 -124t41 -93.5t76.5 -59t104.5 -20.5q57 0 110 20t95.5 58t73 92t42.5 122q12 69 1 124.5t-41 94t-76.5 59t-105.5 20.5z" />
    <glyph glyph-name="uni1ED3" unicode="&#x1ed3;" horiz-adv-x="645" 
d="M517 726l-16 -31l-134 90l21 40zM403 663l-120 -66l-11 31l138 76l109 -76l-20 -31zM371 553q59 0 105.5 -19.5t76.5 -56t42 -89.5t0 -120q-12 -64 -41.5 -115.5t-72 -86.5t-95 -54t-110.5 -19q-59 0 -106 19.5t-77.5 56.5t-42.5 89.5t0 119.5q12 65 41.5 116t72.5 86.5
t96 54t111 18.5zM361 492q-38 0 -76.5 -13t-71.5 -40t-57 -68t-34 -98t-0.5 -98t33 -67.5t57 -39.5t72.5 -13t77.5 13t71 39.5t56.5 67.5t34 98t0.5 98t-32.5 68t-57 40t-73 13z" />
    <glyph glyph-name="uni1ED4" unicode="&#x1ed4;" horiz-adv-x="787" 
d="M638 1007q41 0 56 -20t9 -55q-5 -28 -28 -48.5t-58 -50.5l-19 22q26 23 44.5 40t22.5 37q5 23 -3.5 31.5t-30.5 8.5q-23 0 -33.5 -12t-18.5 -34l-35 2q4 13 10 27t16.5 25.5t27 19t40.5 7.5zM494 822l-120 -66l-11 31l138 76l109 -76l-20 -31zM450 713q77 0 136.5 -27.5
t97 -76.5t51 -117t-0.5 -149q-13 -77 -49 -141.5t-88 -111t-118 -72.5t-141 -26q-78 0 -137.5 27.5t-97 76.5t-51 117t0.5 150q14 77 49.5 141t87.5 110.5t118.5 72.5t141.5 26zM443 648q-57 0 -109.5 -20t-95.5 -58t-73 -92.5t-42 -122.5q-12 -69 -1 -124t41 -93.5
t76.5 -59t104.5 -20.5q57 0 110 20t95.5 58t73 92t42.5 122q12 69 1 124.5t-41 94t-76.5 59t-105.5 20.5z" />
    <glyph glyph-name="uni1ED5" unicode="&#x1ed5;" horiz-adv-x="645" 
d="M547 848q41 0 56 -20t9 -55q-5 -28 -28 -48.5t-58 -50.5l-19 22q26 23 44.5 40t22.5 37q5 23 -3.5 31.5t-30.5 8.5q-23 0 -33.5 -12t-18.5 -34l-35 2q4 13 10 27t16.5 25.5t27 19t40.5 7.5zM403 663l-120 -66l-11 31l138 76l109 -76l-20 -31zM371 553q59 0 105.5 -19.5
t76.5 -56t42 -89.5t0 -120q-12 -64 -41.5 -115.5t-72 -86.5t-95 -54t-110.5 -19q-59 0 -106 19.5t-77.5 56.5t-42.5 89.5t0 119.5q12 65 41.5 116t72.5 86.5t96 54t111 18.5zM361 492q-38 0 -76.5 -13t-71.5 -40t-57 -68t-34 -98t-0.5 -98t33 -67.5t57 -39.5t72.5 -13
t77.5 13t71 39.5t56.5 67.5t34 98t0.5 98t-32.5 68t-57 40t-73 13z" />
    <glyph glyph-name="uni1ED6" unicode="&#x1ed6;" horiz-adv-x="787" 
d="M478 963q18 0 29.5 -7t21.5 -15t20 -15t25 -7t28 10.5t19 31.5h34q-11 -38 -35 -59t-53 -21q-19 0 -31 7t-22 15t-20 15t-24 7q-33 0 -46 -43h-33q26 81 87 81zM494 822l-120 -66l-11 31l138 76l109 -76l-20 -31zM450 713q77 0 136.5 -27.5t97 -76.5t51 -117t-0.5 -149
q-13 -77 -49 -141.5t-88 -111t-118 -72.5t-141 -26q-78 0 -137.5 27.5t-97 76.5t-51 117t0.5 150q14 77 49.5 141t87.5 110.5t118.5 72.5t141.5 26zM443 648q-57 0 -109.5 -20t-95.5 -58t-73 -92.5t-42 -122.5q-12 -69 -1 -124t41 -93.5t76.5 -59t104.5 -20.5q57 0 110 20
t95.5 58t73 92t42.5 122q12 69 1 124.5t-41 94t-76.5 59t-105.5 20.5z" />
    <glyph glyph-name="uni1ED7" unicode="&#x1ed7;" horiz-adv-x="645" 
d="M387 804q18 0 29.5 -7t21.5 -15t20 -15t25 -7t28 10.5t19 31.5h34q-11 -38 -35 -59t-53 -21q-19 0 -31 7t-22 15t-20 15t-24 7q-33 0 -46 -43h-33q26 81 87 81zM403 663l-120 -66l-11 31l138 76l109 -76l-20 -31zM371 553q59 0 105.5 -19.5t76.5 -56t42 -89.5t0 -120
q-12 -64 -41.5 -115.5t-72 -86.5t-95 -54t-110.5 -19q-59 0 -106 19.5t-77.5 56.5t-42.5 89.5t0 119.5q12 65 41.5 116t72.5 86.5t96 54t111 18.5zM361 492q-38 0 -76.5 -13t-71.5 -40t-57 -68t-34 -98t-0.5 -98t33 -67.5t57 -39.5t72.5 -13t77.5 13t71 39.5t56.5 67.5
t34 98t0.5 98t-32.5 68t-57 40t-73 13z" />
    <glyph glyph-name="uni1ED8" unicode="&#x1ed8;" horiz-adv-x="787" 
d="M494 825l-123 -68l-11 32l141 78l112 -78l-20 -32zM450 713q77 0 136.5 -27.5t97 -76.5t51 -117t-0.5 -149q-13 -77 -49 -141.5t-88 -111t-118 -72.5t-141 -26q-78 0 -137.5 27.5t-97 76.5t-51 117t0.5 150q14 77 49.5 141t87.5 110.5t118.5 72.5t141.5 26zM443 648
q-57 0 -109.5 -20t-95.5 -58t-73 -92.5t-42 -122.5q-12 -69 -1 -124t41 -93.5t76.5 -59t104.5 -20.5q57 0 110 20t95.5 58t73 92t42.5 122q12 69 1 124.5t-41 94t-76.5 59t-105.5 20.5zM281 -120q3 18 17.5 30.5t32.5 12.5t28.5 -12.5t7.5 -30.5q-4 -18 -19 -30.5t-32 -12.5
q-18 0 -28.5 12.5t-6.5 30.5z" />
    <glyph glyph-name="uni1ED9" unicode="&#x1ed9;" horiz-adv-x="645" 
d="M403 666l-123 -68l-11 32l141 78l112 -78l-20 -32zM371 553q59 0 105.5 -19.5t76.5 -56t42 -89.5t0 -120q-12 -64 -41.5 -115.5t-72 -86.5t-95 -54t-110.5 -19q-59 0 -106 19.5t-77.5 56.5t-42.5 89.5t0 119.5q12 65 41.5 116t72.5 86.5t96 54t111 18.5zM361 492
q-38 0 -76.5 -13t-71.5 -40t-57 -68t-34 -98t-0.5 -98t33 -67.5t57 -39.5t72.5 -13t77.5 13t71 39.5t56.5 67.5t34 98t0.5 98t-32.5 68t-57 40t-73 13zM210 -120q3 18 17.5 30.5t32.5 12.5t28.5 -12.5t7.5 -30.5q-4 -18 -19 -30.5t-32 -12.5q-18 0 -28.5 12.5t-6.5 30.5z
" />
    <glyph glyph-name="uni1EDA" unicode="&#x1eda;" horiz-adv-x="787" 
d="M406 758l-11 27l162 102l17 -39zM606 676q79 -44 113.5 -131t14.5 -202q-13 -77 -49 -141.5t-88 -111t-118 -72.5t-141 -26q-78 0 -137.5 27.5t-97 76.5t-51 117t0.5 150q14 77 49.5 141t87.5 110.5t118.5 72.5t141.5 26q39 0 77 -8q45 2 78 28t44 88h52
q-10 -55 -35 -90.5t-60 -54.5zM665 350q12 69 1 124.5t-41 94t-76.5 59t-105.5 20.5q-57 0 -109.5 -20t-95.5 -58t-73 -92.5t-42 -122.5q-12 -69 -1 -124t41 -93.5t76.5 -59t104.5 -20.5q57 0 110 20t95.5 58t73 92t42.5 122z" />
    <glyph glyph-name="uni1EDB" unicode="&#x1edb;" horiz-adv-x="645" 
d="M315 599l-11 27l162 102l17 -39zM512 515q52 -35 75 -97t8 -150q-12 -64 -41.5 -115.5t-72 -86.5t-95 -54t-110.5 -19q-59 0 -106 19.5t-77.5 56.5t-42.5 89.5t0 119.5q12 65 41.5 116t72.5 86.5t96 54t111 18.5q37 0 65 -7q45 2 78 28t44 88h52q-10 -57 -36.5 -92.5
t-61.5 -54.5zM523 273q10 57 0.5 98t-32.5 68t-57 40t-73 13q-38 0 -76.5 -13t-71.5 -40t-57 -68t-34 -98t-0.5 -98t33 -67.5t57 -39.5t72.5 -13t77.5 13t71 39.5t56.5 67.5t34 98z" />
    <glyph glyph-name="uni1EDC" unicode="&#x1edc;" horiz-adv-x="787" 
d="M563 754l-137 92l22 41l132 -102zM606 676q79 -44 113.5 -131t14.5 -202q-13 -77 -49 -141.5t-88 -111t-118 -72.5t-141 -26q-78 0 -137.5 27.5t-97 76.5t-51 117t0.5 150q14 77 49.5 141t87.5 110.5t118.5 72.5t141.5 26q39 0 77 -8q45 2 78 28t44 88h52
q-10 -55 -35 -90.5t-60 -54.5zM665 350q12 69 1 124.5t-41 94t-76.5 59t-105.5 20.5q-57 0 -109.5 -20t-95.5 -58t-73 -92.5t-42 -122.5q-12 -69 -1 -124t41 -93.5t76.5 -59t104.5 -20.5q57 0 110 20t95.5 58t73 92t42.5 122z" />
    <glyph glyph-name="uni1EDD" unicode="&#x1edd;" horiz-adv-x="645" 
d="M472 595l-137 92l22 41l132 -102zM512 515q52 -35 75 -97t8 -150q-12 -64 -41.5 -115.5t-72 -86.5t-95 -54t-110.5 -19q-59 0 -106 19.5t-77.5 56.5t-42.5 89.5t0 119.5q12 65 41.5 116t72.5 86.5t96 54t111 18.5q37 0 65 -7q45 2 78 28t44 88h52q-10 -57 -36.5 -92.5
t-61.5 -54.5zM523 273q10 57 0.5 98t-32.5 68t-57 40t-73 13q-38 0 -76.5 -13t-71.5 -40t-57 -68t-34 -98t-0.5 -98t33 -67.5t57 -39.5t72.5 -13t77.5 13t71 39.5t56.5 67.5t34 98z" />
    <glyph glyph-name="uni1EDE" unicode="&#x1ede;" horiz-adv-x="787" 
d="M497 895q-24 0 -34.5 -12t-18.5 -35l-36 2q4 14 10 28t16.5 26t27.5 19.5t42 7.5q42 0 57.5 -20.5t8.5 -56.5q-5 -29 -28 -49.5t-59 -51.5l-20 22q27 23 46 41t23 38q5 23 -4 32t-31 9zM606 676q79 -44 113.5 -131t14.5 -202q-13 -77 -49 -141.5t-88 -111t-118 -72.5
t-141 -26q-78 0 -137.5 27.5t-97 76.5t-51 117t0.5 150q14 77 49.5 141t87.5 110.5t118.5 72.5t141.5 26q39 0 77 -8q45 2 78 28t44 88h52q-10 -55 -35 -90.5t-60 -54.5zM665 350q12 69 1 124.5t-41 94t-76.5 59t-105.5 20.5q-57 0 -109.5 -20t-95.5 -58t-73 -92.5
t-42 -122.5q-12 -69 -1 -124t41 -93.5t76.5 -59t104.5 -20.5q57 0 110 20t95.5 58t73 92t42.5 122z" />
    <glyph glyph-name="uni1EDF" unicode="&#x1edf;" horiz-adv-x="645" 
d="M406 736q-24 0 -34.5 -12t-18.5 -35l-36 2q4 14 10 28t16.5 26t27.5 19.5t42 7.5q42 0 57.5 -20.5t8.5 -56.5q-5 -29 -28 -49.5t-59 -51.5l-20 22q27 23 46 41t23 38q5 23 -4 32t-31 9zM512 515q52 -35 75 -97t8 -150q-12 -64 -41.5 -115.5t-72 -86.5t-95 -54t-110.5 -19
q-59 0 -106 19.5t-77.5 56.5t-42.5 89.5t0 119.5q12 65 41.5 116t72.5 86.5t96 54t111 18.5q37 0 65 -7q45 2 78 28t44 88h52q-10 -57 -36.5 -92.5t-61.5 -54.5zM523 273q10 57 0.5 98t-32.5 68t-57 40t-73 13q-38 0 -76.5 -13t-71.5 -40t-57 -68t-34 -98t-0.5 -98t33 -67.5
t57 -39.5t72.5 -13t77.5 13t71 39.5t56.5 67.5t34 98z" />
    <glyph glyph-name="uni1EE0" unicode="&#x1ee0;" horiz-adv-x="787" 
d="M391 839q-35 0 -49 -46h-35q27 86 93 86q19 0 31.5 -7.5t22.5 -16t21 -16t27 -7.5t29.5 11t20.5 34h36q-11 -41 -36.5 -63t-57.5 -22q-20 0 -33 7.5t-23.5 16t-21 16t-25.5 7.5zM606 676q79 -44 113.5 -131t14.5 -202q-13 -77 -49 -141.5t-88 -111t-118 -72.5t-141 -26
q-78 0 -137.5 27.5t-97 76.5t-51 117t0.5 150q14 77 49.5 141t87.5 110.5t118.5 72.5t141.5 26q39 0 77 -8q45 2 78 28t44 88h52q-10 -55 -35 -90.5t-60 -54.5zM665 350q12 69 1 124.5t-41 94t-76.5 59t-105.5 20.5q-57 0 -109.5 -20t-95.5 -58t-73 -92.5t-42 -122.5
q-12 -69 -1 -124t41 -93.5t76.5 -59t104.5 -20.5q57 0 110 20t95.5 58t73 92t42.5 122z" />
    <glyph glyph-name="uni1EE1" unicode="&#x1ee1;" horiz-adv-x="645" 
d="M308 664q-35 0 -49 -46h-35q27 86 93 86q19 0 31.5 -7.5t22.5 -16t21 -16t27 -7.5t29.5 11t20.5 34h36q-11 -41 -36.5 -63t-57.5 -22q-20 0 -33 7.5t-23.5 16t-21 16t-25.5 7.5zM512 515q52 -35 75 -97t8 -150q-12 -64 -41.5 -115.5t-72 -86.5t-95 -54t-110.5 -19
q-59 0 -106 19.5t-77.5 56.5t-42.5 89.5t0 119.5q12 65 41.5 116t72.5 86.5t96 54t111 18.5q37 0 65 -7q45 2 78 28t44 88h52q-10 -57 -36.5 -92.5t-61.5 -54.5zM523 273q10 57 0.5 98t-32.5 68t-57 40t-73 13q-38 0 -76.5 -13t-71.5 -40t-57 -68t-34 -98t-0.5 -98t33 -67.5
t57 -39.5t72.5 -13t77.5 13t71 39.5t56.5 67.5t34 98z" />
    <glyph glyph-name="uni1EE2" unicode="&#x1ee2;" horiz-adv-x="787" 
d="M606 676q79 -44 113.5 -131t14.5 -202q-13 -77 -49 -141.5t-88 -111t-118 -72.5t-141 -26q-78 0 -137.5 27.5t-97 76.5t-51 117t0.5 150q14 77 49.5 141t87.5 110.5t118.5 72.5t141.5 26q39 0 77 -8q45 2 78 28t44 88h52q-10 -55 -35 -90.5t-60 -54.5zM665 350
q12 69 1 124.5t-41 94t-76.5 59t-105.5 20.5q-57 0 -109.5 -20t-95.5 -58t-73 -92.5t-42 -122.5q-12 -69 -1 -124t41 -93.5t76.5 -59t104.5 -20.5q57 0 110 20t95.5 58t73 92t42.5 122zM331 -77q18 0 28.5 -12.5t7.5 -30.5q-4 -18 -19 -30.5t-32 -12.5q-18 0 -28.5 12.5
t-6.5 30.5q3 18 17.5 30.5t32.5 12.5z" />
    <glyph glyph-name="uni1EE3" unicode="&#x1ee3;" horiz-adv-x="645" 
d="M512 515q52 -35 75 -97t8 -150q-12 -64 -41.5 -115.5t-72 -86.5t-95 -54t-110.5 -19q-59 0 -106 19.5t-77.5 56.5t-42.5 89.5t0 119.5q12 65 41.5 116t72.5 86.5t96 54t111 18.5q37 0 65 -7q45 2 78 28t44 88h52q-10 -57 -36.5 -92.5t-61.5 -54.5zM523 273q10 57 0.5 98
t-32.5 68t-57 40t-73 13q-38 0 -76.5 -13t-71.5 -40t-57 -68t-34 -98t-0.5 -98t33 -67.5t57 -39.5t72.5 -13t77.5 13t71 39.5t56.5 67.5t34 98zM260 -77q18 0 28.5 -12.5t7.5 -30.5q-4 -18 -19 -30.5t-32 -12.5q-18 0 -28.5 12.5t-6.5 30.5q3 18 17.5 30.5t32.5 12.5z" />
    <glyph glyph-name="uni1EE4" unicode="&#x1ee4;" horiz-adv-x="652" 
d="M205 705l-76 -427q-10 -59 -4 -100.5t26 -68t52 -38.5t73 -12t76.5 12t64.5 38.5t49.5 68t30.5 100.5l76 427h70l-76 -427q-13 -74 -41 -128t-68 -89t-89.5 -51.5t-105.5 -16.5q-55 0 -99 16.5t-71.5 51.5t-37 89t3.5 128l75 427h71zM209 -120q3 18 17.5 30.5t32.5 12.5
t28.5 -12.5t7.5 -30.5q-4 -18 -19 -30.5t-32 -12.5q-18 0 -28.5 12.5t-6.5 30.5z" />
    <glyph glyph-name="uni1EE5" unicode="&#x1ee5;" horiz-adv-x="621" 
d="M594 546l-96 -546h-71l24 135q-35 -74 -97 -109.5t-131 -35.5q-45 0 -82 14.5t-60.5 44t-32 74t2.5 105.5l56 318h69l-55 -312q-16 -92 22 -138.5t114 -46.5q78 0 137 51t78 156l51 290h71zM249 -77q18 0 28.5 -12.5t7.5 -30.5q-4 -18 -19 -30.5t-32 -12.5
q-18 0 -28.5 12.5t-6.5 30.5q3 18 17.5 30.5t32.5 12.5z" />
    <glyph glyph-name="uni1EE6" unicode="&#x1ee6;" horiz-adv-x="652" 
d="M445 931q42 0 57.5 -20.5t8.5 -56.5q-5 -29 -28 -49.5t-59 -51.5l-20 22q27 23 46 41t23 38q5 23 -4 32t-31 9q-24 0 -34.5 -12t-18.5 -35l-36 2q4 14 10 28t16.5 26t27.5 19.5t42 7.5zM205 705l-76 -427q-10 -59 -4 -100.5t26 -68t52 -38.5t73 -12t76.5 12t64.5 38.5
t49.5 68t30.5 100.5l76 427h70l-76 -427q-13 -74 -41 -128t-68 -89t-89.5 -51.5t-105.5 -16.5q-55 0 -99 16.5t-71.5 51.5t-37 89t3.5 128l75 427h71z" />
    <glyph glyph-name="uni1EE7" unicode="&#x1ee7;" horiz-adv-x="621" 
d="M395 736q-24 0 -34.5 -12t-18.5 -35l-36 2q4 14 10 28t16.5 26t27.5 19.5t42 7.5q42 0 57.5 -20.5t8.5 -56.5q-5 -29 -28 -49.5t-59 -51.5l-20 22q27 23 46 41t23 38q5 23 -4 32t-31 9zM594 546l-96 -546h-71l24 135q-35 -74 -97 -109.5t-131 -35.5q-45 0 -82 14.5
t-60.5 44t-32 74t2.5 105.5l56 318h69l-55 -312q-16 -92 22 -138.5t114 -46.5q78 0 137 51t78 156l51 290h71z" />
    <glyph glyph-name="uni1EE8" unicode="&#x1ee8;" horiz-adv-x="652" 
d="M347 758l-11 27l162 102l17 -39zM774 821q-13 -72 -51.5 -111t-87.5 -52l-68 -380q-13 -74 -41 -128t-68 -89t-89.5 -51.5t-105.5 -16.5q-55 0 -99 16.5t-71.5 51.5t-37 89t3.5 128l75 427h71l-76 -427q-10 -59 -4 -100.5t26 -68t52 -38.5t73 -12t76.5 12t64.5 38.5
t49.5 68t30.5 100.5l76 427h21q48 0 82.5 26t45.5 90h52z" />
    <glyph glyph-name="uni1EE9" unicode="&#x1ee9;" horiz-adv-x="621" 
d="M304 599l-11 27l162 102l17 -39zM727 662q-13 -72 -52 -111.5t-89 -51.5l-88 -499h-71l24 135q-35 -74 -97 -109.5t-131 -35.5q-45 0 -82 14.5t-60.5 44t-32 74t2.5 105.5l56 318h69l-55 -312q-16 -92 22 -138.5t114 -46.5q78 0 137 51t78 156l51 290h24q48 0 82.5 26
t45.5 90h52z" />
    <glyph glyph-name="uni1EEA" unicode="&#x1eea;" horiz-adv-x="652" 
d="M504 754l-137 92l22 41l132 -102zM774 821q-13 -72 -51.5 -111t-87.5 -52l-68 -380q-13 -74 -41 -128t-68 -89t-89.5 -51.5t-105.5 -16.5q-55 0 -99 16.5t-71.5 51.5t-37 89t3.5 128l75 427h71l-76 -427q-10 -59 -4 -100.5t26 -68t52 -38.5t73 -12t76.5 12t64.5 38.5
t49.5 68t30.5 100.5l76 427h21q48 0 82.5 26t45.5 90h52z" />
    <glyph glyph-name="uni1EEB" unicode="&#x1eeb;" horiz-adv-x="621" 
d="M461 595l-137 92l22 41l132 -102zM727 662q-13 -72 -52 -111.5t-89 -51.5l-88 -499h-71l24 135q-35 -74 -97 -109.5t-131 -35.5q-45 0 -82 14.5t-60.5 44t-32 74t2.5 105.5l56 318h69l-55 -312q-16 -92 22 -138.5t114 -46.5q78 0 137 51t78 156l51 290h24q48 0 82.5 26
t45.5 90h52z" />
    <glyph glyph-name="uni1EEC" unicode="&#x1eec;" horiz-adv-x="652" 
d="M438 895q-24 0 -34.5 -12t-18.5 -35l-36 2q4 14 10 28t16.5 26t27.5 19.5t42 7.5q42 0 57.5 -20.5t8.5 -56.5q-5 -29 -28 -49.5t-59 -51.5l-20 22q27 23 46 41t23 38q5 23 -4 32t-31 9zM774 821q-13 -72 -51.5 -111t-87.5 -52l-68 -380q-13 -74 -41 -128t-68 -89
t-89.5 -51.5t-105.5 -16.5q-55 0 -99 16.5t-71.5 51.5t-37 89t3.5 128l75 427h71l-76 -427q-10 -59 -4 -100.5t26 -68t52 -38.5t73 -12t76.5 12t64.5 38.5t49.5 68t30.5 100.5l76 427h21q48 0 82.5 26t45.5 90h52z" />
    <glyph glyph-name="uni1EED" unicode="&#x1eed;" horiz-adv-x="621" 
d="M395 736q-24 0 -34.5 -12t-18.5 -35l-36 2q4 14 10 28t16.5 26t27.5 19.5t42 7.5q42 0 57.5 -20.5t8.5 -56.5q-5 -29 -28 -49.5t-59 -51.5l-20 22q27 23 46 41t23 38q5 23 -4 32t-31 9zM727 662q-13 -72 -52 -111.5t-89 -51.5l-88 -499h-71l24 135q-35 -74 -97 -109.5
t-131 -35.5q-45 0 -82 14.5t-60.5 44t-32 74t2.5 105.5l56 318h69l-55 -312q-16 -92 22 -138.5t114 -46.5q78 0 137 51t78 156l51 290h24q48 0 82.5 26t45.5 90h52z" />
    <glyph glyph-name="uni1EEE" unicode="&#x1eee;" horiz-adv-x="652" 
d="M364 811q-35 0 -49 -46h-35q27 86 93 86q19 0 31.5 -7.5t22.5 -16t21 -16t27 -7.5t29.5 11t20.5 34h36q-11 -41 -36.5 -63t-57.5 -22q-20 0 -33 7.5t-23.5 16t-21 16t-25.5 7.5zM774 821q-13 -72 -51.5 -111t-87.5 -52l-68 -380q-13 -74 -41 -128t-68 -89t-89.5 -51.5
t-105.5 -16.5q-55 0 -99 16.5t-71.5 51.5t-37 89t3.5 128l75 427h71l-76 -427q-10 -59 -4 -100.5t26 -68t52 -38.5t73 -12t76.5 12t64.5 38.5t49.5 68t30.5 100.5l76 427h21q48 0 82.5 26t45.5 90h52z" />
    <glyph glyph-name="uni1EEF" unicode="&#x1eef;" horiz-adv-x="621" 
d="M321 652q-35 0 -49 -46h-35q27 86 93 86q19 0 31.5 -7.5t22.5 -16t21 -16t27 -7.5t29.5 11t20.5 34h36q-11 -41 -36.5 -63t-57.5 -22q-20 0 -33 7.5t-23.5 16t-21 16t-25.5 7.5zM727 662q-13 -72 -52 -111.5t-89 -51.5l-88 -499h-71l24 135q-35 -74 -97 -109.5
t-131 -35.5q-45 0 -82 14.5t-60.5 44t-32 74t2.5 105.5l56 318h69l-55 -312q-16 -92 22 -138.5t114 -46.5q78 0 137 51t78 156l51 290h24q48 0 82.5 26t45.5 90h52z" />
    <glyph glyph-name="uni1EF0" unicode="&#x1ef0;" horiz-adv-x="652" 
d="M774 821q-13 -72 -51.5 -111t-87.5 -52l-68 -380q-13 -74 -41 -128t-68 -89t-89.5 -51.5t-105.5 -16.5q-55 0 -99 16.5t-71.5 51.5t-37 89t3.5 128l75 427h71l-76 -427q-10 -59 -4 -100.5t26 -68t52 -38.5t73 -12t76.5 12t64.5 38.5t49.5 68t30.5 100.5l76 427h21
q48 0 82.5 26t45.5 90h52zM259 -77q18 0 28.5 -12.5t7.5 -30.5q-4 -18 -19 -30.5t-32 -12.5q-18 0 -28.5 12.5t-6.5 30.5q3 18 17.5 30.5t32.5 12.5z" />
    <glyph glyph-name="uni1EF1" unicode="&#x1ef1;" horiz-adv-x="621" 
d="M727 662q-13 -72 -52 -111.5t-89 -51.5l-88 -499h-71l24 135q-35 -74 -97 -109.5t-131 -35.5q-45 0 -82 14.5t-60.5 44t-32 74t2.5 105.5l56 318h69l-55 -312q-16 -92 22 -138.5t114 -46.5q78 0 137 51t78 156l51 290h24q48 0 82.5 26t45.5 90h52zM249 -77
q18 0 28.5 -12.5t7.5 -30.5q-4 -18 -19 -30.5t-32 -12.5q-18 0 -28.5 12.5t-6.5 30.5q3 18 17.5 30.5t32.5 12.5z" />
    <glyph glyph-name="Ygrave" unicode="&#x1ef2;" horiz-adv-x="571" 
d="M463 754l-137 92l22 41l132 -102zM611 705l-303 -430l-49 -275h-70l48 275l-152 430h81l120 -355l244 355h81z" />
    <glyph glyph-name="ygrave" unicode="&#x1ef3;" horiz-adv-x="544" 
d="M439 626l-17 -31l-137 92l22 41zM129 546l110 -455l256 455h78l-464 -804h-79l157 264l-136 540h78z" />
    <glyph glyph-name="uni1EF4" unicode="&#x1ef4;" horiz-adv-x="571" 
d="M611 705l-303 -430l-49 -275h-70l48 275l-152 430h81l120 -355l244 355h81zM223 -77q18 0 28.5 -12.5t7.5 -30.5q-4 -18 -19 -30.5t-32 -12.5q-18 0 -28.5 12.5t-6.5 30.5q3 18 17.5 30.5t32.5 12.5z" />
    <glyph glyph-name="uni1EF5" unicode="&#x1ef5;" horiz-adv-x="544" 
d="M129 546l110 -455l256 455h78l-464 -804h-79l157 264l-136 540h78zM212 -120q3 18 17.5 30.5t32.5 12.5t28.5 -12.5t7.5 -30.5q-4 -18 -19 -30.5t-32 -12.5q-18 0 -28.5 12.5t-6.5 30.5z" />
    <glyph glyph-name="uni1EF6" unicode="&#x1ef6;" horiz-adv-x="571" 
d="M397 895q-24 0 -34.5 -12t-18.5 -35l-36 2q4 14 10 28t16.5 26t27.5 19.5t42 7.5q42 0 57.5 -20.5t8.5 -56.5q-5 -29 -28 -49.5t-59 -51.5l-20 22q27 23 46 41t23 38q5 23 -4 32t-31 9zM611 705l-303 -430l-49 -275h-70l48 275l-152 430h81l120 -355l244 355h81z" />
    <glyph glyph-name="uni1EF7" unicode="&#x1ef7;" horiz-adv-x="544" 
d="M363 772q42 0 57.5 -20.5t8.5 -56.5q-5 -29 -28 -49.5t-59 -51.5l-20 22q27 23 46 41t23 38q5 23 -4 32t-31 9q-24 0 -34.5 -12t-18.5 -35l-36 2q4 14 10 28t16.5 26t27.5 19.5t42 7.5zM129 546l110 -455l256 455h78l-464 -804h-79l157 264l-136 540h78z" />
    <glyph glyph-name="uni1EF8" unicode="&#x1ef8;" horiz-adv-x="571" 
d="M323 811q-35 0 -49 -46h-35q27 86 93 86q19 0 31.5 -7.5t22.5 -16t21 -16t27 -7.5t29.5 11t20.5 34h36q-11 -41 -36.5 -63t-57.5 -22q-20 0 -33 7.5t-23.5 16t-21 16t-25.5 7.5zM611 705l-303 -430l-49 -275h-70l48 275l-152 430h81l120 -355l244 355h81z" />
    <glyph glyph-name="uni1EF9" unicode="&#x1ef9;" horiz-adv-x="544" 
d="M291 692q19 0 31.5 -7.5t22.5 -16t21 -16t27 -7.5t29.5 11t20.5 34h36q-11 -41 -36.5 -63t-57.5 -22q-20 0 -33 7.5t-23.5 16t-21 16t-25.5 7.5q-35 0 -49 -46h-35q27 86 93 86zM129 546l110 -455l256 455h78l-464 -804h-79l157 264l-136 540h78z" />
    <glyph glyph-name="endash" unicode="&#x2013;" horiz-adv-x="607" 
d="M568 400l-10 -59h-519l10 59h519z" />
    <glyph glyph-name="emdash" unicode="&#x2014;" horiz-adv-x="807" 
d="M768 400l-10 -59h-719l10 59h719z" />
    <glyph glyph-name="quoteleft" unicode="&#x2018;" horiz-adv-x="162" 
d="M28 586q-1 26 0.5 47t4.5 39q10 54 37.5 78t72.5 24l-6 -34q-26 0 -39 -13.5t-18 -39.5l-4 -24h47l-14 -77h-81z" />
    <glyph glyph-name="quoteright" unicode="&#x2019;" horiz-adv-x="162" 
d="M134 774q1 -25 -1 -46t-5 -39q-9 -54 -37 -78.5t-72 -24.5l6 35q26 0 39 13t18 39l4 25h-46l13 76h81z" />
    <glyph glyph-name="quotesinglbase" unicode="&#x201a;" horiz-adv-x="173" 
d="M106 56q3 -36 -2.5 -67.5t-19.5 -55t-36.5 -37t-54.5 -13.5l6 33q47 0 56 55l2 8h-45l13 77h81z" />
    <glyph glyph-name="quotedblleft" unicode="&#x201c;" horiz-adv-x="283" 
d="M28 586q-1 26 0.5 47t4.5 39q10 54 37.5 78t72.5 24l-6 -34q-26 0 -39 -13.5t-18 -39.5l-4 -24h47l-14 -77h-81zM149 586q-1 26 0.5 47t4.5 39q10 54 37.5 78t71.5 24l-5 -34q-26 0 -39 -13.5t-18 -39.5l-4 -24h46l-13 -77h-81z" />
    <glyph glyph-name="quotedblright" unicode="&#x201d;" horiz-adv-x="283" 
d="M134 774q1 -25 -1 -46t-5 -39q-9 -54 -37 -78.5t-72 -24.5l6 35q26 0 39 13t18 39l4 25h-46l13 76h81zM254 774q1 -25 -0.5 -46t-4.5 -39q-9 -54 -37 -78.5t-72 -24.5l6 35q26 0 38.5 13t17.5 39l5 25h-47l13 76h81z" />
    <glyph glyph-name="quotedblbase" unicode="&#x201e;" horiz-adv-x="283" 
d="M109 76q1 -25 -1 -46t-5 -39q-9 -54 -37 -78.5t-72 -24.5l6 35q26 0 39 13t18 39l4 25h-46l13 76h81zM229 76q1 -25 -0.5 -46t-4.5 -39q-9 -54 -37 -78.5t-72 -24.5l6 35q26 0 38.5 13t17.5 39l5 25h-47l13 76h81z" />
    <glyph glyph-name="dagger" unicode="&#x2020;" horiz-adv-x="501" 
d="M506 490l-186 6l-126 -754h-69l139 754l-188 -6l10 56l186 -6l36 239h69l-49 -239l188 6z" />
    <glyph glyph-name="daggerdbl" unicode="&#x2021;" horiz-adv-x="502" 
d="M321 496l-84 -470l189 7l-10 -58l-186 6l-36 -239h-69l49 239l-189 -6l10 58l186 -7l84 470l-190 -6l10 56l187 -6l35 239h69l-48 -239l189 6l-10 -56z" />
    <glyph glyph-name="bullet" unicode="&#x2022;" horiz-adv-x="326" 
d="M47 333q5 24 17.5 45.5t31 37.5t41 25t46.5 9t44 -9t32.5 -25t18 -37.5t0.5 -45.5q-4 -24 -16.5 -45t-30.5 -36t-41 -24t-47 -9t-43.5 9t-32.5 24t-18.5 36t-1.5 45z" />
    <glyph glyph-name="ellipsis" unicode="&#x2026;" horiz-adv-x="504" 
d="M122 90l-16 -90h-93l16 90h93zM297 90l-16 -90h-93l16 90h93zM472 90l-16 -90h-93l16 90h93z" />
    <glyph glyph-name="perthousand" unicode="&#x2030;" horiz-adv-x="943" 
d="M239 714q60 0 93 -38.5t22 -103.5q-6 -32 -21 -58.5t-37 -45t-49.5 -28.5t-57.5 -10t-54 10t-39.5 28.5t-21.5 45t0 58.5t21 58.5t37 45t49.5 28.5t57.5 10zM613 706l-535 -706h-70l535 706h70zM125 572q-8 -43 12 -69.5t60 -26.5t69 26.5t37 69.5q8 42 -12 69t-60 27
t-69 -27t-37 -69zM432 276q61 0 93.5 -38.5t21.5 -103.5q-6 -32 -21 -58.5t-37 -45t-49.5 -29t-57.5 -10.5q-60 0 -93 39t-22 104q6 32 21 58.5t37 45t49.5 28.5t57.5 10zM754 276q60 0 93 -38.5t22 -103.5q-6 -32 -21 -58.5t-37 -45t-49.5 -29t-57.5 -10.5t-54 10.5
t-39.5 29t-21.5 45t0 58.5t21 58.5t37 45t49.5 28.5t57.5 10zM318 134q-8 -43 12 -70t60 -27t69 27t37 70q8 42 -12 69t-60 27t-69 -27t-37 -69zM640 134q-8 -43 12 -70t60 -27t69 27t37 70q8 42 -12 69t-60 27t-69 -27t-37 -69z" />
    <glyph glyph-name="guilsinglleft" unicode="&#x2039;" horiz-adv-x="265" 
d="M114 120l-69 175l130 175h71l-132 -175l70 -175h-70z" />
    <glyph glyph-name="guilsinglright" unicode="&#x203a;" horiz-adv-x="265" 
d="M153 295l-72 175h71l68 -175l-129 -175h-72z" />
    <glyph glyph-name="fraction" unicode="&#x2044;" horiz-adv-x="294" 
d="M450 706l-536 -706h-71l536 706h71z" />
    <glyph glyph-name="uni20A8" unicode="&#x20a8;" horiz-adv-x="1050" 
d="M355 705q62 0 104 -15.5t66 -43t30.5 -65.5t-1.5 -83q-15 -88 -73.5 -140t-155.5 -62l147 -296h-80l-141 294h-114l-52 -294h-70l124 705h216zM483 494q12 68 -19.5 109t-124.5 41h-140l-53 -297h141q93 0 138.5 40.5t57.5 106.5zM931 379q1 24 -5.5 46t-21.5 38.5
t-39 26t-57 9.5q-57 0 -93 -26.5t-44 -70.5q-6 -38 15.5 -57.5t57 -30.5t77.5 -20t77 -25t54.5 -45t10.5 -81q-6 -32 -23 -59.5t-43.5 -47.5t-61 -31.5t-75.5 -11.5q-96 0 -148.5 46.5t-48.5 127.5h70q-4 -49 30 -84.5t107 -35.5q55 0 88 27.5t41 69.5q7 40 -14.5 60t-57 32
t-77.5 20.5t-76.5 24.5t-54.5 44t-11 79q6 33 23.5 60.5t45 47t63.5 30.5t78 11q94 0 139.5 -48t42.5 -126h-69z" />
    <glyph glyph-name="Euro" unicode="&#x20ac;" horiz-adv-x="825" 
d="M393 58q100 0 172 47t112 119h73q-25 -52 -61.5 -94.5t-82.5 -73t-102 -47t-121 -16.5q-61 0 -111 18.5t-85.5 52.5t-56 81.5t-23.5 105.5h-106l7 38h98q1 15 2.5 30.5t4.5 32.5q5 26 12 51h-97l6 38h103q23 61 60.5 111t85.5 85.5t105.5 55t120.5 19.5q131 0 202 -63.5
t84 -167.5h-73q-14 73 -69.5 119.5t-155.5 46.5q-45 0 -88 -14t-80.5 -40.5t-67.5 -64.5t-50 -87h261l-7 -38h-268q-7 -24 -12 -51q-6 -33 -6 -63h266l-7 -38h-258q9 -92 67 -142.5t146 -50.5z" />
    <glyph glyph-name="uni20B9" unicode="&#x20b9;" horiz-adv-x="650" 
d="M490 526q0 -2 -1 -3h141l-8 -44h-142q-14 -51 -37 -85.5t-60 -55.5t-91.5 -30.5t-131.5 -9.5l-18 -101q-13 -72 12 -112t93 -40q64 0 102 37t50 109h66q-18 -97 -76.5 -149t-148.5 -52q-100 0 -140.5 55.5t-22.5 156.5l25 145q86 0 141 5t89.5 19.5t52.5 40t28 67.5h-329
l8 44h330q1 1 1 3l23 129h-330l8 50h537l-8 -50h-141z" />
    <glyph glyph-name="uni20BA" unicode="&#x20ba;" horiz-adv-x="782" 
d="M741 406q-37 -208 -141 -317t-293 -109q-68 0 -145 17l45 255l-179 -43l8 47l179 43l21 120l-179 -45l8 46l180 45l42 241h71l-39 -222l201 50l-9 -47l-200 -50l-21 -120l201 49l-8 -47l-202 -49l-38 -217q19 -4 38 -5.5t37 -1.5q153 0 237.5 94t114.5 266h71z" />
    <glyph glyph-name="uni20BD" unicode="&#x20bd;" horiz-adv-x="618" 
d="M409 705q62 0 104 -14.5t66 -41t31.5 -63.5t-0.5 -82q-17 -98 -86 -149t-185 -51h-141l-20 -114h234l-10 -55h-233l-24 -135h-71l24 135h-85l10 55h84l20 114h-84l10 58h85l60 343h211zM539 504q11 67 -20 106t-123 39h-137l-50 -287h136q92 0 137.5 39t56.5 103z" />
    <glyph glyph-name="uni2113" unicode="&#x2113;" horiz-adv-x="222" 
d="M231 740l-130 -740h-71l130 740h71z" />
    <glyph glyph-name="trademark" unicode="&#x2122;" horiz-adv-x="754" 
d="M307 658h-100l-54 -304h-53l54 304h-101l8 47h254zM747 705l-62 -351h-50l46 270l-168 -270h-41l-72 274l-49 -274h-49l63 351h67l72 -289l180 289h63z" />
    <glyph glyph-name="uni2126" unicode="&#x2126;" horiz-adv-x="793" 
d="M749 361q-19 -106 -79 -187.5t-157 -118.5h167l-10 -55h-276l10 60q50 10 94.5 34.5t80.5 62t61.5 87t35.5 109.5q12 67 0 121.5t-43 93.5t-78.5 60t-106.5 21q-60 0 -115.5 -21.5t-99.5 -60.5t-75 -93.5t-42 -120.5q-10 -60 -2.5 -109.5t30 -87t58.5 -62t82 -34.5
l-11 -60h-276l10 55h167q-83 37 -114.5 119t-12.5 187q14 80 52.5 145t94 111t124.5 71t142 25t132.5 -25t99 -71t55.5 -111t2 -145z" />
    <glyph glyph-name="estimated" unicode="&#x212e;" horiz-adv-x="764" 
d="M329 -7q-73 0 -131.5 22t-96.5 65t-52.5 106t-0.5 144q14 77 47 143.5t84 116.5t118 78.5t147 28.5t137.5 -27t92 -72t46 -103t0.5 -120l-11 -61h-544l-29 -165q31 -52 77.5 -78.5t124.5 -26.5q77 0 143.5 35.5t139.5 96.5l29 -38q-74 -66 -154 -105.5t-167 -39.5z
M619 550q-24 46 -71 71.5t-113 25.5t-125 -26t-105 -82l-30 -167h413z" />
    <glyph glyph-name="partialdiff" unicode="&#x2202;" horiz-adv-x="558" 
d="M333 554q27 0 51.5 -7t42.5 -25t27 -49.5t5 -80.5q12 65 13.5 121t-12 96.5t-44.5 63.5t-86 23q-36 0 -78 -11l7 42q53 13 99 13q107 0 153 -77.5t16 -247.5q-17 -98 -51 -176.5t-81 -134t-105 -85.5t-124 -30q-39 0 -71.5 14t-54 42t-29.5 70.5t2 100.5q12 66 40 127
t69.5 108t95 75t115.5 28zM328 495q-44 0 -83.5 -21.5t-71.5 -59t-54.5 -88.5t-33.5 -110q-8 -43 -3.5 -74t18.5 -50.5t35.5 -29t46.5 -9.5q47 0 87.5 22.5t73 60t54.5 88t32 105.5q16 88 -12 127t-89 39z" />
    <glyph glyph-name="uni2206" unicode="&#x2206;" horiz-adv-x="667" 
d="M423 690l172 -634l-9 -56h-627l10 56l395 634h59zM40 56h484l-145 554z" />
    <glyph glyph-name="product" unicode="&#x220f;" horiz-adv-x="737" 
d="M748 706l-10 -55h-82l-115 -651h-70l115 651h-330l-115 -651h-71l115 651h-81l10 55h634z" />
    <glyph glyph-name="summation" unicode="&#x2211;" horiz-adv-x="436" 
d="M491 635h-335l218 -294l-10 -56l-323 -304h335l-10 -55h-393l14 80l317 304l-211 301l14 79h394z" />
    <glyph glyph-name="minus" unicode="&#x2212;" horiz-adv-x="460" 
d="M432 400l-10 -59h-390l11 59h389z" />
    <glyph glyph-name="radical" unicode="&#x221a;" horiz-adv-x="750" 
d="M807 860l-639 -905h-30l-81 209l-68 -35l-16 38l135 70l76 -196l577 819h46z" />
    <glyph glyph-name="infinity" unicode="&#x221e;" horiz-adv-x="643" 
d="M526 490q68 0 101 -37t21 -105q-6 -34 -22 -60.5t-39.5 -45t-52 -28t-60.5 -9.5q-31 0 -54.5 8.5t-41.5 23t-31.5 33.5t-25.5 39q-31 -42 -77 -73t-103 -31q-67 0 -100 37.5t-22 104.5q6 34 22 60.5t39.5 45t52.5 28t60 9.5t54 -9t40 -24.5t30.5 -35t24.5 -40.5
q15 21 35 41t43 35t49.5 24t56.5 9zM154 256q41 0 77 24.5t68 66.5q-10 19 -21 36t-24 30t-28.5 20.5t-36.5 7.5q-45 0 -74.5 -26t-37.5 -68q-7 -41 12 -66t65 -25zM590 348q8 42 -11.5 67t-65.5 25q-42 0 -80 -26.5t-70 -70.5q20 -36 45.5 -62.5t69.5 -26.5q45 0 74.5 26
t37.5 68z" />
    <glyph glyph-name="integral" unicode="&#x222b;" horiz-adv-x="254" 
d="M218 790q19 65 58 93.5t98 28.5h22l-17 -61h-21q-25 0 -42 -13t-28 -48l-241 -840q-19 -67 -55 -98.5t-99 -31.5h-25l17 61h25q29 0 42 14t25 55z" />
    <glyph glyph-name="approxequal" unicode="&#x2248;" horiz-adv-x="487" 
d="M196 551q28 0 48 -10.5t37.5 -23t34.5 -23t39 -10.5q26 0 45.5 19t30.5 48h56q-23 -65 -60.5 -98.5t-88.5 -33.5q-27 0 -47 10.5t-37 23t-34.5 23t-39.5 10.5q-26 0 -46 -19t-31 -48h-56q23 65 61 98.5t88 33.5zM161 351q28 0 48 -10.5t37.5 -23t34.5 -23t39 -10.5
q26 0 45.5 19t30.5 48h56q-23 -65 -60.5 -98.5t-88.5 -33.5q-27 0 -47 10.5t-37 23t-34.5 23t-39.5 10.5q-26 0 -46 -19t-31 -48h-56q23 65 61 98.5t88 33.5z" />
    <glyph glyph-name="notequal" unicode="&#x2260;" horiz-adv-x="580" 
d="M376 440l-128 -139h286l-11 -64h-335l-99 -107h-44l99 107h-130l11 64h179l128 139h-283l11 64h332l99 107h44l-99 -107h134l-11 -64h-183z" />
    <glyph glyph-name="lessequal" unicode="&#x2264;" horiz-adv-x="417" 
d="M135 409l217 -193h-89l-219 193l287 194h89zM10 171h339l-10 -56h-338z" />
    <glyph glyph-name="greaterequal" unicode="&#x2265;" horiz-adv-x="417" 
d="M14 216l285 193l-217 194h89l220 -194l-288 -193h-89zM2 171h338l-9 -56h-339z" />
    <glyph glyph-name="lozenge" unicode="&#x25ca;" horiz-adv-x="551" 
d="M511 349l-278 -235l-193 235l278 236zM120 349l127 -156l184 156l-127 157z" />
    <glyph glyph-name="fi" unicode="&#xfb01;" horiz-adv-x="549" 
d="M206 546h305l-96 -546h-71l85 484h-234l-85 -484h-70l85 484h-80l11 62h80l5 27q16 91 71.5 137t163.5 43l-11 -62q-76 2 -110 -28t-45 -95zM512 749q23 0 35 -13t8 -34t-20 -33.5t-39 -12.5t-35 12.5t-8 33.5t20 34t39 13z" />
    <glyph glyph-name="fl" unicode="&#xfb02;" horiz-adv-x="557" 
d="M133 573q16 91 73 137.5t166 42.5l-11 -62q-78 2 -112.5 -28t-45.5 -95l-4 -22h137l-11 -62h-137l-85 -484h-71l85 484h-81l11 62h81zM566 740l-130 -740h-71l130 740h71z" />
    <glyph glyph-name="uni03020300" horiz-adv-x="0" 
d="M13 759l-16 -31l-134 90l21 40zM-101 696l-120 -66l-11 31l138 76l109 -76l-20 -31z" />
    <glyph glyph-name="uni03020301" horiz-adv-x="0" 
d="M12 838l-164 -88l-11 27l158 99zM-95 695l-120 -66l-11 31l138 76l109 -76l-20 -31z" />
    <glyph glyph-name="uni03020303" horiz-adv-x="0" 
d="M-116 837q18 0 29.5 -7t21.5 -15t20 -15t25 -7t28 10.5t19 31.5h34q-11 -38 -35 -59t-53 -21q-19 0 -31 7t-22 15t-20 15t-24 7q-33 0 -46 -43h-33q25 81 87 81zM-100 696l-120 -66l-11 31l138 76l109 -76l-20 -31z" />
    <glyph glyph-name="uni03020309" horiz-adv-x="0" 
d="M46 880q41 0 56 -20t9 -55q-5 -28 -28 -48.5t-58 -50.5l-19 22q26 23 44.5 40t22.5 37q5 23 -3.5 31.5t-30.5 8.5q-23 0 -33.5 -12t-18.5 -34l-35 2q4 13 10 27t16.5 25.5t27 19t40.5 7.5zM-98 695l-120 -66l-11 31l138 76l109 -76l-20 -31z" />
    <glyph glyph-name="uni03060300" horiz-adv-x="0" 
d="M30 820l-16 -31l-134 90l21 40zM-116 617q-32 0 -53.5 9.5t-34.5 25.5t-17 37.5t0 44.5l1 7h37q-7 -38 11.5 -58.5t62.5 -20.5q45 0 71 20.5t32 58.5h36l-1 -7q-4 -23 -15.5 -44.5t-30 -37.5t-43.5 -25.5t-56 -9.5z" />
    <glyph glyph-name="uni03060301" horiz-adv-x="0" 
d="M25 881l-164 -88l-11 27l158 99zM-116 617q-32 0 -53.5 9.5t-34.5 25.5t-17 37.5t0 44.5l1 7h37q-7 -38 11.5 -58.5t62.5 -20.5q45 0 71 20.5t32 58.5h36l-1 -7q-4 -23 -15.5 -44.5t-30 -37.5t-43.5 -25.5t-56 -9.5z" />
    <glyph glyph-name="uni03060303" horiz-adv-x="0" 
d="M-114 884q19 0 31 -7t21.5 -16t20 -16t26.5 -7t29.5 11t19.5 33h35q-11 -39 -35.5 -61t-55.5 -22q-20 0 -32.5 7t-23 16t-20.5 16t-25 7q-33 0 -48 -45h-34q25 84 91 84zM-116 617q-32 0 -53.5 9.5t-34.5 25.5t-17 37.5t0 44.5l1 7h37q-7 -38 11.5 -58.5t62.5 -20.5
q45 0 71 20.5t32 58.5h36l-1 -7q-4 -23 -15.5 -44.5t-30 -37.5t-43.5 -25.5t-56 -9.5z" />
    <glyph glyph-name="uni03060309" horiz-adv-x="0" 
d="M-45 961q41 0 56 -20t9 -55q-5 -28 -28 -48.5t-58 -50.5l-19 22q26 23 44.5 40t22.5 37q5 23 -3.5 31.5t-30.5 8.5q-23 0 -33.5 -12t-18.5 -34l-35 2q4 13 10 27t16.5 25.5t27 19t40.5 7.5zM-117 616q-32 0 -53.5 9.5t-34.5 25.5t-17 37.5t0 44.5l1 7h37
q-7 -38 11.5 -58.5t62.5 -20.5q45 0 71 20.5t32 58.5h36l-1 -7q-4 -23 -15.5 -44.5t-30 -37.5t-43.5 -25.5t-56 -9.5z" />
  </font>
</defs>
</svg>
