<?xml version="1.0" standalone="no"?>
<!DOCTYPE svg PUBLIC "-//W3C//DTD SVG 1.1//EN" "http://www.w3.org/Graphics/SVG/1.1/DTD/svg11.dtd" >
<svg xmlns="http://www.w3.org/2000/svg" xmlns:xlink="http://www.w3.org/1999/xlink" version="1.1">
<metadata>
Created by FontForge 20170731 at Tue Dec 12 17:12:30 2017
 By Aleksey,,,
</metadata>
<defs>
<font id="PoppinsVN-200i" horiz-adv-x="790" >
  <font-face 
    font-family="PoppinsVN 200i"
    font-weight="400"
    font-style="italic"
    font-stretch="normal"
    units-per-em="1000"
    panose-1="0 0 5 0 0 0 0 0 0 0"
    ascent="800"
    descent="-200"
    x-height="543"
    cap-height="705"
    bbox="-437 -266 1113 1106"
    underline-thickness="50"
    underline-position="-150"
    slope="-10"
    unicode-range="U+000D-FB02"
  />
<missing-glyph horiz-adv-x="498" 
d="M408 -256h-315v996h315v-996zM167 673v-33h65v-36h-66v-33h166v33h-66v36h66v33h-165zM166 545v-104h166v34h-66v70h-100zM232 475h-33v36h33v-36zM166 414v-33h66v-36h-66v-33h100v69h66v33h-166zM299 355v-66h-133v-34h166v100h-33zM232 233v-56h34v23h33v-47h-100v80
h-33v-113h166v113h-100zM166 61v-113h166v113h-166zM299 -19h-100v47h100v-47zM166 -75v-33h70l-70 -46v-33h166v33h-102l70 46h32v33h-166z" />
    <glyph glyph-name=".notdef" horiz-adv-x="498" 
d="M408 -256h-315v996h315v-996zM167 673v-33h65v-36h-66v-33h166v33h-66v36h66v33h-165zM166 545v-104h166v34h-66v70h-100zM232 475h-33v36h33v-36zM166 414v-33h66v-36h-66v-33h100v69h66v33h-166zM299 355v-66h-133v-34h166v100h-33zM232 233v-56h34v23h33v-47h-100v80
h-33v-113h166v113h-100zM166 61v-113h166v113h-166zM299 -19h-100v47h100v-47zM166 -75v-33h70l-70 -46v-33h166v33h-102l70 46h32v33h-166z" />
    <glyph glyph-name=".null" horiz-adv-x="0" 
 />
    <glyph glyph-name=".null" horiz-adv-x="0" 
 />
    <glyph glyph-name="nonmarkingreturn" unicode="&#xd;" horiz-adv-x="250" 
 />
    <glyph glyph-name="space" unicode=" " horiz-adv-x="275" 
 />
    <glyph glyph-name="exclam" unicode="!" horiz-adv-x="250" 
d="M213 710l-102 -529h-34l85 529h51zM112 69l-12 -69h-72l13 69h71z" />
    <glyph glyph-name="quotedbl" unicode="&#x22;" horiz-adv-x="233" 
d="M106 794l-41 -186h-32l24 186h49zM209 794l-41 -186h-33l25 186h49z" />
    <glyph glyph-name="numbersign" unicode="#" horiz-adv-x="767" 
d="M584 460l-72 -186h149l-7 -41h-158l-91 -233h-43l91 233h-237l-91 -233h-43l91 233h-161l7 41h170l72 186h-157l8 41h165l93 239h43l-93 -239h237l93 239h43l-93 -239h154l-8 -41h-162zM541 460h-237l-72 -186h237z" />
    <glyph glyph-name="dollar" unicode="$" horiz-adv-x="552" 
d="M291 377q36 -12 71 -25.5t60.5 -35.5t38 -55.5t3.5 -86.5q-6 -32 -22.5 -64.5t-45.5 -58.5t-70.5 -42t-96.5 -16h-6l-14 -80h-23l14 81q-44 4 -77.5 20.5t-55.5 41t-32 55.5t-8 65h47q-1 -20 5 -43t21.5 -44t41.5 -36.5t65 -20.5l54 310q-36 11 -71 24t-60.5 34t-38 54
t-3.5 84q7 37 26 68.5t49 55t70 37t89 13.5h5l15 88h24l-16 -89q44 -4 75 -19.5t50.5 -37.5t29 -49t9.5 -54h-47q-1 17 -8 37t-21 37.5t-37 30.5t-57 17zM136 539q-7 -37 2 -62.5t28 -42.5t46 -28.5t57 -21.5l51 291h-5q-70 0 -119 -34.5t-60 -101.5zM417 173q7 39 -2 65
t-28 44t-46 30t-57 22l-54 -304h5q39 0 70.5 11.5t54.5 31t37.5 45.5t19.5 55z" />
    <glyph glyph-name="percent" unicode="%" horiz-adv-x="575" 
d="M235 712q57 0 88.5 -37.5t20.5 -97.5q-5 -30 -19.5 -55t-35.5 -43t-47 -28t-55 -10q-58 0 -89.5 38t-20.5 98q5 30 19.5 55t35.5 42.5t47.5 27.5t55.5 10zM581 705l-541 -705h-47l541 705h47zM113 577q-8 -45 14 -74.5t65 -29.5q44 0 76.5 29.5t40.5 74.5t-14 74t-66 29
t-76 -29t-40 -74zM388 263q58 0 89.5 -38t20.5 -98q-5 -30 -19.5 -55t-35.5 -42.5t-47.5 -27.5t-55.5 -10q-57 0 -88.5 37.5t-20.5 97.5q5 30 19.5 55t35.5 43t47 28t55 10zM266 127q-8 -45 14 -74t66 -29t76 29t40 74q8 46 -14 75t-66 29t-76 -29t-40 -75z" />
    <glyph glyph-name="ampersand" unicode="&#x26;" horiz-adv-x="676" 
d="M556 0l-165 221q3 -14 2 -27.5t-6 -32.5q-8 -37 -27.5 -67.5t-47.5 -53t-62.5 -35t-72.5 -12.5q-42 0 -76 14t-57 40t-32.5 64t-0.5 86q8 48 28.5 84.5t49 61t62.5 37t69 12.5q33 0 60 -11q-6 7 -11.5 14t-10.5 15q-12 15 -22 31t-17 34t-9 39.5t3 47.5q5 29 20 56t39 48
t57 33.5t74 12.5q45 0 75 -13.5t46.5 -36t22 -51t1.5 -58.5q-1 -19 -6 -39h-43q2 8 3 14.5t2 12.5q11 62 -17.5 97t-89.5 35q-30 0 -54.5 -9.5t-42.5 -25t-29 -36t-15 -43.5q-8 -43 4 -71t32 -55l313 -433h-49zM363 186q6 37 -3.5 67.5t-29.5 53t-48 35t-59 12.5
q-60 0 -108.5 -38.5t-62.5 -117.5q-7 -40 0.5 -70.5t26.5 -51.5t46 -32t59 -11q33 0 63 11.5t54 31.5t40 48.5t22 61.5z" />
    <glyph glyph-name="quotesingle" unicode="'" horiz-adv-x="137" 
d="M113 794l-44 -186h-33l21 186h56z" />
    <glyph glyph-name="parenleft" unicode="(" horiz-adv-x="366" 
d="M54 403q18 102 53.5 190t83.5 161.5t105.5 132t120.5 101.5h44l-1 -5q-153 -108 -241.5 -255.5t-120.5 -324.5q-31 -177 6 -324.5t152 -255.5l-1 -5h-44q-48 43 -85 101.5t-59 132t-26.5 161.5t13.5 190z" />
    <glyph glyph-name="parenright" unicode=")" horiz-adv-x="366" 
d="M312 403q-18 -102 -53.5 -190t-83.5 -161.5t-105.5 -132t-119.5 -101.5h-45l1 5q153 108 242 255.5t120 324.5t-5.5 324.5t-151.5 255.5v5h45q47 -43 84 -101.5t59 -132t26.5 -161.5t-13.5 -190z" />
    <glyph glyph-name="asterisk" unicode="*" horiz-adv-x="446" 
d="M391 660l21 -54l-165 -61l144 -60l-39 -54l-114 93l-12 -164h-62l43 164l-151 -95l-21 55l163 61l-141 61l42 57l115 -96l15 163h62l-46 -163z" />
    <glyph glyph-name="plus" unicode="+" horiz-adv-x="584" 
d="M543 354h-233l-41 -234h-44l41 234h-232l7 42h233l41 234h44l-41 -234h232z" />
    <glyph glyph-name="comma" unicode="," horiz-adv-x="139" 
d="M88 44q2 -70 -24 -108t-74 -38l5 26q45 0 53 55l2 7h-38l10 58h66z" />
    <glyph glyph-name="hyphen" unicode="-" horiz-adv-x="461" 
d="M440 395l-7 -39h-377l7 39h377z" />
    <glyph glyph-name="period" unicode="." horiz-adv-x="134" 
d="M108 69l-12 -69h-71l12 69h71z" />
    <glyph glyph-name="slash" unicode="/" horiz-adv-x="364" 
d="M440 938l-471 -1099h-44l469 1099h46z" />
    <glyph glyph-name="zero" unicode="0" horiz-adv-x="571" 
d="M66 355q13 77 34 142t55.5 113t84.5 75t122 27q71 0 111.5 -27t58 -75t16 -113t-14.5 -142q-14 -77 -35.5 -143t-56 -114.5t-85 -76t-121.5 -27.5q-72 0 -112.5 27.5t-57.5 76t-15 114.5t16 143zM488 355q12 67 15 124.5t-10 100t-45.5 66.5t-92.5 24t-101.5 -24
t-69.5 -66.5t-45 -100t-29 -124.5t-15.5 -125.5t9.5 -101.5t46 -67.5t93 -24.5t101.5 24.5t69 67.5t45 101.5t29.5 125.5z" />
    <glyph glyph-name="one" unicode="1" horiz-adv-x="248" 
d="M69 663l7 42h153l-124 -705h-47l117 663h-106z" />
    <glyph glyph-name="two" unicode="2" horiz-adv-x="558" 
d="M-9 32q97 57 182 115.5t150 117.5t106.5 117t51.5 113q7 35 4.5 67.5t-18.5 57t-46.5 39.5t-80.5 15q-89 0 -142.5 -53t-69.5 -144h-45q11 59 35.5 103.5t59.5 74t78 44t92 14.5q44 0 81 -12t62.5 -38.5t36 -67.5t0.5 -99q-12 -66 -61.5 -132.5t-117.5 -126.5
t-144.5 -111t-142.5 -87h404l-7 -38h-473z" />
    <glyph glyph-name="three" unicode="3" horiz-adv-x="550" 
d="M357 716q51 0 87.5 -14.5t59 -40t30 -60t0.5 -73.5q-5 -27 -18.5 -53.5t-37 -48t-58.5 -36t-82 -19.5l-1 -5q37 -9 67.5 -25t51 -40.5t28.5 -58.5t0 -80q-6 -35 -23 -66t-45.5 -54t-69 -36t-92.5 -13q-112 0 -172 54.5t-58 156.5h45q0 -37 10 -68t33 -54t59 -36t87 -13
q80 0 126 39t56 94q16 90 -41 136t-169 46h-20l7 39h20q118 0 179 36t73 103q12 66 -23.5 108.5t-115.5 42.5q-33 0 -67 -9t-63.5 -28.5t-51.5 -50.5t-32 -75h-45q9 47 32.5 84t58.5 63.5t79.5 40.5t95.5 14z" />
    <glyph glyph-name="four" unicode="4" horiz-adv-x="569" 
d="M-6 180l6 37l471 489h47l-85 -486h115l-7 -40h-115l-32 -180h-46l32 180h-386zM464 646l-414 -426h339z" />
    <glyph glyph-name="five" unicode="5" horiz-adv-x="593" 
d="M565 667h-388l-51 -290q35 39 91.5 63.5t119.5 24.5q61 0 101 -20.5t62 -54.5t27 -78t-3 -91q-8 -45 -28 -86t-53 -72.5t-78.5 -50t-105.5 -18.5q-106 0 -164 54.5t-53 148.5h45q1 -80 49 -121t128 -41q47 0 84 14t64 39t43.5 59t23.5 74q17 95 -22.5 150.5t-133.5 55.5
q-57 0 -114 -27t-92 -73h-42l67 380h430z" />
    <glyph glyph-name="six" unicode="6" horiz-adv-x="596" 
d="M517 520q-2 35 -10.5 64t-26.5 50t-45.5 32.5t-67.5 11.5q-51 0 -93.5 -20t-76 -63.5t-57.5 -113.5t-38 -170q13 36 38 65.5t57.5 49.5t71.5 31t80 11q110 0 158 -64.5t28 -178.5q-7 -45 -27 -86.5t-53 -74t-80 -52t-109 -19.5q-82 0 -128 29t-66.5 78t-19.5 112t13 132
q15 86 39.5 155t61.5 117t88 74t120 26q51 0 86.5 -15.5t57 -42t31.5 -62t11 -76.5h-43zM97 245q-7 -39 -2 -77t25 -68t56.5 -48.5t93.5 -18.5q42 0 79 13t66 37.5t49 60.5t28 81q18 103 -25 154.5t-132 51.5q-36 0 -74.5 -11t-72 -34t-58 -58t-33.5 -83z" />
    <glyph glyph-name="seven" unicode="7" horiz-adv-x="467" 
d="M505 670l-393 -670h-49l397 666h-411l7 40h456z" />
    <glyph glyph-name="eight" unicode="8" horiz-adv-x="610" 
d="M106 545q7 37 28.5 68.5t55.5 54.5t80 36t102 13t97 -14.5t66.5 -40t35.5 -60.5t2 -77q-10 -56 -51.5 -98t-122.5 -60q75 -16 111 -67t22 -129q-16 -91 -93 -142.5t-198 -51.5q-118 0 -175.5 57.5t-39.5 158.5q11 69 63.5 114t132.5 60q-74 18 -100 67t-16 111zM150 539
q-13 -76 31.5 -116.5t131.5 -40.5t145 35.5t70 103.5q14 77 -32.5 117t-130.5 40t-143 -35t-72 -104zM70 193q-15 -86 34.5 -132t143.5 -46q47 0 88 10.5t72 31t51.5 50.5t27.5 69q8 46 -3.5 78.5t-36.5 53t-61.5 30t-78.5 9.5t-81.5 -8.5t-72 -27t-54.5 -47.5t-29 -71z" />
    <glyph glyph-name="nine" unicode="9" horiz-adv-x="608" 
d="M98 188q-3 -74 31 -116t110 -42q52 0 96.5 20t79 63.5t59.5 113.5t38 170q-13 -36 -38 -65.5t-57.5 -49.5t-71.5 -31t-80 -11q-109 0 -157.5 64.5t-28.5 179.5q8 44 28 86t53 74t80 51.5t109 19.5q83 0 129 -29t66 -77.5t18.5 -112t-13.5 -132.5q-15 -85 -39.5 -153.5
t-62.5 -117t-90.5 -75t-123.5 -26.5q-49 0 -83.5 14.5t-56.5 41t-31.5 62.5t-7.5 78h44zM517 464q7 39 2 77t-25 68t-56.5 48.5t-92.5 18.5q-42 0 -79 -13t-66 -38t-49.5 -61t-28.5 -82q-18 -102 25.5 -153.5t131.5 -51.5q36 0 74.5 11t72 34.5t58 58.5t33.5 83z" />
    <glyph glyph-name="colon" unicode=":" horiz-adv-x="140" 
d="M152 516l-13 -70h-71l12 70h72zM73 69l-12 -69h-72l13 69h71z" />
    <glyph glyph-name="semicolon" unicode=";" horiz-adv-x="177" 
d="M182 515l-12 -69h-71l12 69h71zM81 44q2 -70 -24 -108t-74 -38l5 26q45 0 53 55l2 7h-38l10 58h66z" />
    <glyph glyph-name="less" unicode="&#x3c;" horiz-adv-x="396" 
d="M260 141l-223 234l306 235h56l-305 -235l223 -234h-57z" />
    <glyph glyph-name="equal" unicode="=" horiz-adv-x="572" 
d="M555 491l-8 -41h-496l7 41h497zM521 301l-7 -41h-497l7 41h497z" />
    <glyph glyph-name="greater" unicode="&#x3e;" horiz-adv-x="396" 
d="M79 610h56l223 -235l-305 -234h-57l305 234z" />
    <glyph glyph-name="question" unicode="?" horiz-adv-x="489" 
d="M303 719q97 0 145 -57t32 -156q-10 -57 -37 -95.5t-66 -61.5t-87.5 -33.5t-102.5 -10.5l-24 -136h-44l30 169h24q39 0 81.5 6t79.5 24t64.5 51t36.5 87q15 82 -23.5 128.5t-116.5 46.5q-81 0 -128 -43t-65 -113h-44q22 91 84.5 142.5t160.5 51.5zM160 69l-12 -69h-71
l12 69h71z" />
    <glyph glyph-name="at" unicode="@" horiz-adv-x="1065" 
d="M661 770q111 0 189 -33t123.5 -92t59.5 -140.5t-3 -177.5q-13 -73 -40.5 -135t-64.5 -107t-79.5 -70.5t-86.5 -25.5q-24 0 -43.5 6.5t-30 23t-10 44.5t16.5 71q-47 -66 -110 -105.5t-143 -39.5q-49 0 -86 18.5t-59.5 51.5t-30 79t3.5 102q13 69 45.5 126.5t77.5 99.5
t99.5 65.5t112.5 23.5q66 0 108 -23.5t63 -63.5t21.5 -91t-18.5 -107l-54 -156q-17 -50 -2 -67.5t48 -17.5t66 20.5t62.5 58.5t52.5 93.5t35 124.5q16 90 4.5 164.5t-52.5 127.5t-112 82.5t-175 29.5q-112 0 -206.5 -38.5t-166.5 -106t-120 -158t-66 -195.5
q-20 -112 -2.5 -194t66 -135.5t125.5 -80t176 -28.5l-15 -39q-109 2 -192 32t-135.5 89t-71 148t2.5 208q19 108 70.5 205.5t131.5 171.5t185 117.5t230 43.5zM456 29q49 0 95.5 20t85 57t66 89t39.5 116q8 42 5 79t-20 64.5t-50.5 43t-86.5 15.5q-51 0 -97 -20.5t-83 -56.5
t-62.5 -86t-36.5 -109q-8 -44 -3 -83t23 -67.5t49.5 -45t75.5 -16.5z" />
    <glyph glyph-name="A" unicode="A" horiz-adv-x="623" 
d="M450 183h-334l-101 -183h-49l381 686h50l139 -686h-50zM443 220l-80 411l-227 -411h307z" />
    <glyph glyph-name="B" unicode="B" horiz-adv-x="576" 
d="M544 531q-6 -37 -22 -65.5t-38 -49t-49 -33t-55 -17.5q64 -13 98 -60.5t22 -116.5q-7 -40 -27 -74.5t-52 -60t-77 -40t-102 -14.5h-223l124 705h222q55 0 92 -13.5t59 -36.5t28.5 -55t-0.5 -69zM307 383q82 0 130.5 38.5t59.5 104.5q11 61 -22.5 100t-123.5 39h-170
l-50 -282h176zM455 193q12 70 -30 111.5t-130 41.5h-170l-54 -306h172q88 0 143.5 40.5t68.5 112.5z" />
    <glyph glyph-name="C" unicode="C" horiz-adv-x="767" 
d="M450 712q65 0 114.5 -16t84.5 -45t56.5 -70.5t29.5 -91.5h-47q-7 39 -26 72t-49.5 57.5t-73 38t-97.5 13.5q-59 0 -114.5 -22t-101 -63t-78 -100t-45.5 -133t-1.5 -132.5t42.5 -99.5t79 -63t108 -22q55 0 102 13.5t86 37.5t69.5 57t51.5 72h47q-52 -100 -143.5 -161
t-219.5 -61q-73 0 -129.5 26.5t-91.5 74t-48 113.5t1 145t50 145t88 114t117.5 74.5t138.5 26.5z" />
    <glyph glyph-name="D" unicode="D" horiz-adv-x="707" 
d="M651 353q-15 -82 -50.5 -147.5t-90 -111.5t-128.5 -70t-165 -24h-198l124 705h198q91 0 156.5 -24t104.5 -69.5t51.5 -111t-2.5 -147.5zM222 41q164 0 261 83.5t122 228.5q13 72 2.5 130t-44 98.5t-91.5 62t-140 21.5h-151l-110 -624h151z" />
    <glyph glyph-name="E" unicode="E" horiz-adv-x="489" 
d="M181 667l-52 -296h285l-7 -36h-284l-53 -297h315l-6 -38h-360l124 705h360l-7 -38h-315z" />
    <glyph glyph-name="F" unicode="F" horiz-adv-x="482" 
d="M506 705l-6 -38h-319l-52 -297h282l-6 -36h-282l-59 -334h-45l124 705h363z" />
    <glyph glyph-name="G" unicode="G" horiz-adv-x="787" 
d="M458 711q60 0 107.5 -16t82 -45t56.5 -69.5t31 -89.5h-47q-7 39 -26.5 71.5t-49.5 56t-70.5 37t-90.5 13.5q-61 0 -118.5 -22t-104 -63t-79.5 -99.5t-46 -132.5q-13 -75 -1 -134t44.5 -100.5t82.5 -63t113 -21.5q59 0 114.5 20.5t101.5 58.5t80 93t49 125h-312l6 35h352
l-6 -34q-15 -74 -51.5 -136.5t-88 -107.5t-116.5 -70t-139 -25q-75 0 -132.5 26.5t-94 74.5t-50 114.5t0.5 145.5t50.5 144.5t90 113t120 74t141.5 26.5z" />
    <glyph glyph-name="H" unicode="H" horiz-adv-x="662" 
d="M644 705l-124 -705h-46l60 343h-410l-60 -343h-45l124 705h45l-57 -324h410l57 324h46z" />
    <glyph glyph-name="I" unicode="I" horiz-adv-x="207" 
d="M188 705l-124 -705h-45l124 705h45z" />
    <glyph glyph-name="J" unicode="J" horiz-adv-x="447" 
d="M433 705l-96 -548q-6 -36 -22.5 -66t-41 -51.5t-57.5 -34t-73 -12.5q-85 0 -122.5 51t-21.5 141h45q-6 -30 -4 -57.5t14 -48.5t35 -33t59 -12t61.5 11t42.5 29t26.5 40t13.5 43l96 548h45z" />
    <glyph glyph-name="K" unicode="K" horiz-adv-x="527" 
d="M163 353l283 -353h-57l-266 334l-59 -334h-45l124 705h45l-59 -335l384 335h57z" />
    <glyph glyph-name="L" unicode="L" horiz-adv-x="409" 
d="M70 37h263l-6 -37h-308l124 705h45z" />
    <glyph glyph-name="M" unicode="M" horiz-adv-x="816" 
d="M796 687l-121 -687h-45l107 607l-368 -607h-42l-155 605l-107 -605h-45l121 687h52l166 -630l386 630h51z" />
    <glyph glyph-name="N" unicode="N" horiz-adv-x="664" 
d="M521 0h-45l-301 628l-111 -628h-45l124 704h45l301 -628l111 628h45z" />
    <glyph glyph-name="O" unicode="O" 
d="M455 711q75 0 133.5 -27t95 -75t50 -115t-0.5 -147q-14 -78 -50 -143.5t-88.5 -112.5t-119 -73t-140.5 -26q-76 0 -134 27t-95 75.5t-50 115.5t1 147q14 78 50 143t88.5 112t119 73t140.5 26zM450 670q-61 0 -118.5 -22t-104 -63t-79.5 -99.5t-46 -132.5t-0.5 -133
t44.5 -100.5t82 -63.5t112 -22t119 22t103.5 63t79.5 99.5t46 132.5t0.5 133.5t-44.5 100.5t-82 63t-112 22z" />
    <glyph glyph-name="P" unicode="P" horiz-adv-x="543" 
d="M118 306l-54 -306h-45l124 705h194q61 0 102 -14.5t64.5 -40.5t30.5 -63.5t-1 -82.5q-18 -98 -85.5 -148t-180.5 -50h-149zM271 346q52 0 89.5 11.5t63.5 32t41.5 49.5t21.5 65q6 38 1.5 68t-23.5 50.5t-52.5 31.5t-85.5 11h-146l-56 -319h146z" />
    <glyph glyph-name="Q" unicode="Q" 
d="M734 347q-20 -112 -83.5 -196t-155.5 -125l172 -171h-63l-153 154q-56 -17 -115 -17q-76 0 -134 27t-95 75.5t-50 115.5t1 147q14 78 50 143t88.5 112t119 73t140.5 26q75 0 133.5 -27t95 -75t50 -115t-0.5 -147zM341 34q62 0 119 22t103.5 63t79.5 99.5t46 132.5
t0.5 133.5t-44.5 100.5t-82 63t-112 22q-61 0 -118.5 -22t-104 -63t-79.5 -99.5t-46 -132.5t-0.5 -133t44.5 -100.5t82 -63.5t112 -22z" />
    <glyph glyph-name="R" unicode="R" horiz-adv-x="552" 
d="M340 705q61 0 101.5 -15t64 -42t30 -64.5t-1.5 -82.5q-15 -91 -75 -142t-160 -58l153 -301h-52l-151 300h-132l-53 -300h-45l124 705h197zM488 500q7 38 2.5 68t-23 51.5t-52.5 33t-85 11.5h-149l-58 -327h149q52 0 90 12t64 33.5t41 51.5t21 66z" />
    <glyph glyph-name="S" unicode="S" horiz-adv-x="547" 
d="M460 162q-5 -30 -21 -60.5t-43.5 -54.5t-66.5 -39t-90 -15q-54 0 -94 16t-66.5 41.5t-39 58.5t-11.5 67h47q-1 -21 6.5 -46.5t27 -47.5t52 -37t81.5 -15q37 0 66.5 10.5t51 29t35 43t17.5 51.5q8 48 -3.5 79t-35.5 51.5t-57 33.5t-67.5 25t-67.5 26.5t-56.5 37t-34 57
t-1.5 87.5q6 32 23.5 59.5t45 48t65.5 32t84 11.5q52 0 89.5 -14.5t62.5 -37.5t37 -51.5t13 -57.5h-47q-1 18 -9 40t-26 40.5t-48 31t-75 12.5q-65 0 -111 -30t-56 -88q-8 -46 3.5 -75t36 -48.5t57.5 -32t67.5 -24t67.5 -26.5t56 -38.5t34 -59.5t1 -91z" />
    <glyph glyph-name="T" unicode="T" horiz-adv-x="488" 
d="M532 705l-7 -38h-203l-117 -667h-46l118 667h-203l7 38h451z" />
    <glyph glyph-name="U" unicode="U" horiz-adv-x="640" 
d="M184 705l-77 -433q-11 -64 -4 -109.5t29 -73.5t56.5 -41t78.5 -13q43 0 81.5 13t70 41t54 73.5t33.5 109.5l76 433h45l-76 -433q-13 -73 -40 -126t-65.5 -87t-85.5 -50t-101 -16t-96 16t-69 50t-36 87t4 126l76 433h46z" />
    <glyph glyph-name="V" unicode="V" horiz-adv-x="637" 
d="M139 705l126 -647l357 647h51l-390 -705h-54l-141 705h51z" />
    <glyph glyph-name="W" unicode="W" horiz-adv-x="929" 
d="M956 705l-310 -705h-52l-80 635l-304 -635h-52l-62 705h51l49 -640l305 640h51l79 -640l274 640h51z" />
    <glyph glyph-name="X" unicode="X" horiz-adv-x="533" 
d="M293 352l152 -352h-53l-137 317l-238 -317h-52l273 358l-150 347h53l135 -312l239 312h51z" />
    <glyph glyph-name="Y" unicode="Y" horiz-adv-x="545" 
d="M580 705l-296 -420l-50 -285h-46l51 285l-151 420h53l128 -373l259 373h52z" />
    <glyph glyph-name="Z" unicode="Z" horiz-adv-x="505" 
d="M32 39h381l-7 -39h-431l6 38l484 627h-362l7 40h411l-6 -39z" />
    <glyph glyph-name="bracketleft" unicode="[" horiz-adv-x="258" 
d="M313 938l-7 -38h-86l-180 -1023h86l-7 -38h-130l194 1099h130z" />
    <glyph glyph-name="backslash" unicode="\" horiz-adv-x="525" 
d="M294 -161l-146 1099h47l144 -1099h-45z" />
    <glyph glyph-name="bracketright" unicode="]" horiz-adv-x="258" 
d="M-55 -161l7 38h86l180 1023h-86l7 38h130l-194 -1099h-130z" />
    <glyph glyph-name="asciicircum" unicode="^" horiz-adv-x="578" 
d="M38 173h-45l322 514h38l141 -514h-45l-124 456z" />
    <glyph glyph-name="underscore" unicode="_" horiz-adv-x="558" 
d="M518 -32l-7 -42h-481l7 42h481z" />
    <glyph glyph-name="grave" unicode="`" horiz-adv-x="274" 
d="M283 616l-13 -22l-130 96l19 29z" />
    <glyph glyph-name="a" unicode="a" horiz-adv-x="673" 
d="M362 550q46 0 82 -12.5t62 -35t41.5 -53.5t19.5 -68l29 162h44l-96 -543h-44l28 162q-17 -37 -43 -68t-59.5 -53.5t-74 -35t-85.5 -12.5q-58 0 -102.5 19.5t-72 55.5t-37.5 88t1 118q12 65 40 116t68.5 86.5t91 54.5t107.5 19zM366 510q-51 0 -95 -16.5t-78.5 -47
t-58 -74.5t-33.5 -100q-20 -112 29.5 -175.5t151.5 -63.5q48 0 92 17t79.5 48t60 75.5t34.5 98.5q9 54 0 98t-33.5 75t-62.5 48t-86 17z" />
    <glyph glyph-name="b" unicode="b" horiz-adv-x="672" 
d="M18 0l130 740h45l-64 -359q17 37 43.5 68t60 53.5t74 35t85.5 12.5q57 0 101.5 -19t72.5 -55t38 -87.5t-2 -116.5q-11 -65 -39.5 -117t-69 -88t-91.5 -55t-108 -19q-91 0 -143 48t-60 121l-29 -162h-44zM292 33q51 0 95 16.5t78.5 47t58 75t33.5 100.5t2 100t-32 74.5
t-62 47t-89 16.5q-48 0 -92.5 -17t-79.5 -48t-60 -75t-34 -98t0 -98.5t33.5 -75.5t62.5 -48t86 -17z" />
    <glyph glyph-name="c" unicode="c" horiz-adv-x="627" 
d="M367 550q53 0 94 -14.5t69 -40t42 -61.5t14 -79h-47q1 73 -48 114.5t-131 41.5q-42 0 -84 -14t-77 -43.5t-61 -74.5t-37 -107t-1 -107t35 -74.5t62 -43.5t79 -14q82 0 145 41.5t88 114.5h47q-15 -43 -41.5 -79.5t-63.5 -62t-82.5 -40t-98.5 -14.5q-57 0 -102.5 19
t-74 55.5t-39.5 88.5t1 118q12 65 40.5 116t70 86.5t93 54.5t108.5 19z" />
    <glyph glyph-name="d" unicode="d" horiz-adv-x="672" 
d="M660 740l-131 -740h-44l28 162q-17 -37 -43 -68t-59.5 -53.5t-74 -35t-86.5 -12.5q-57 0 -101 19.5t-72 55.5t-38 88t1 118q12 65 40 116t68.5 86.5t91 54.5t107.5 19q46 0 82 -12.5t62 -35t41.5 -53.5t19.5 -68l63 359h45zM351 510q-51 0 -95 -16.5t-78.5 -47t-58 -74.5
t-33.5 -100q-20 -112 29.5 -175.5t151.5 -63.5q48 0 92 17t79.5 48t60 75.5t34.5 98.5q9 54 0 98t-33.5 75t-62.5 48t-86 17z" />
    <glyph glyph-name="e" unicode="e" horiz-adv-x="627" 
d="M367 550q62 0 106 -20t70 -53.5t34.5 -76.5t0.5 -88q-3 -19 -5.5 -29.5t-7.5 -23.5h-468q-9 -60 2 -103t36.5 -70.5t62 -41t77.5 -13.5q81 0 144.5 41.5t88.5 113.5h47q-15 -42 -41.5 -77.5t-63 -61t-82.5 -40t-99 -14.5q-57 0 -102 19t-73.5 55t-39.5 88t1 118
q12 65 40.5 116.5t70 87t93 54.5t108.5 19zM530 286q14 59 4.5 102t-34.5 71t-61.5 41t-77.5 13q-42 0 -83.5 -13.5t-76.5 -41t-61.5 -70.5t-37.5 -102h428z" />
    <glyph glyph-name="f" unicode="f" horiz-adv-x="326" 
d="M353 706q-42 0 -71.5 -8t-49 -24t-31 -41t-17.5 -60l-5 -30h145l-7 -41h-146l-88 -502h-46l89 502h-85l8 41h84l6 33q15 84 66.5 128.5t154.5 42.5z" />
    <glyph glyph-name="g" unicode="g" horiz-adv-x="672" 
d="M269 -8q-57 0 -101.5 19.5t-73 56t-38.5 88.5t2 118q11 65 39.5 116t69 87t91.5 55t108 19q92 0 144.5 -48t59.5 -122l29 162h43l-99 -559q-10 -58 -37.5 -104.5t-66 -78.5t-86 -49.5t-97.5 -17.5q-105 0 -161.5 51t-66.5 133h45q10 -65 55 -104.5t133 -39.5
q42 0 81.5 14t71.5 41t54.5 66t31.5 89l32 178q-17 -36 -43.5 -67.5t-60 -54t-74 -35.5t-85.5 -13zM369 511q-51 0 -95 -16.5t-78.5 -47t-58 -75t-33.5 -100.5q-10 -55 -2 -99.5t32 -75t62 -47t89 -16.5q48 0 92 17t79.5 48t60 75t34.5 98q9 54 0 98t-33.5 75.5t-62.5 48.5
t-86 17z" />
    <glyph glyph-name="h" unicode="h" horiz-adv-x="624" 
d="M385 554q45 0 81.5 -14t60.5 -43t33 -73.5t-2 -106.5l-55 -317h-44l55 315q17 100 -23.5 150.5t-124.5 50.5q-42 0 -80.5 -14t-69.5 -42t-53 -70.5t-32 -100.5v1l-51 -290h-45l130 740h45l-60 -341q18 40 43.5 69.5t56.5 48.5t65.5 28t69.5 9z" />
    <glyph glyph-name="i" unicode="i" horiz-adv-x="206" 
d="M140 707q3 17 15.5 27t29.5 10t26 -10t6 -27t-15.5 -27.5t-29.5 -10.5t-26 10.5t-6 27.5zM172 543l-96 -543h-45l96 543h45z" />
    <glyph glyph-name="j" unicode="j" horiz-adv-x="215" 
d="M179 669q-17 0 -26 10.5t-6 27.5t15.5 27t29.5 10t26 -10t6 -27t-15.5 -27.5t-29.5 -10.5zM-115 -215h37q39 0 61.5 17t31.5 65l119 676h45l-120 -681q-10 -57 -43.5 -87.5t-97.5 -30.5h-41z" />
    <glyph glyph-name="k" unicode="k" horiz-adv-x="430" 
d="M142 276l215 -276h-59l-191 253l-44 -253h-46l131 740h45l-77 -439l272 242h59z" />
    <glyph glyph-name="l" unicode="l" horiz-adv-x="206" 
d="M210 740l-130 -740h-45l130 740h45z" />
    <glyph glyph-name="m" unicode="m" horiz-adv-x="1012" 
d="M777 554q44 0 79 -14t58 -43t31.5 -73.5t-2.5 -106.5l-55 -317h-45l56 315q17 100 -21.5 149.5t-116.5 49.5q-40 0 -76.5 -13t-66.5 -40t-51.5 -68t-32.5 -97l-52 -296h-44l56 315q17 100 -21.5 149.5t-116.5 49.5q-80 0 -142 -53t-84 -163l-53 -298h-45l95 543h46
l-25 -140q35 78 97 114.5t129 36.5q71 0 118.5 -39t51.5 -122q17 42 43 72t56.5 50t65 29.5t68.5 9.5z" />
    <glyph glyph-name="n" unicode="n" horiz-adv-x="624" 
d="M382 554q45 0 81.5 -14t61 -43t33.5 -73.5t-2 -106.5l-56 -317h-44l55 315q17 100 -24 150.5t-124 50.5q-42 0 -79.5 -13t-68 -40t-52.5 -68t-33 -96l-53 -299h-45l95 543h46l-25 -142q18 39 43.5 68t56.5 48t65 28t69 9z" />
    <glyph glyph-name="o" unicode="o" horiz-adv-x="646" 
d="M372 550q57 0 103 -19t75.5 -55.5t41 -88.5t-0.5 -118q-12 -65 -41 -116t-71 -86.5t-94 -54.5t-109 -19q-58 0 -104 19t-76 55.5t-41.5 88.5t0.5 118q12 65 41.5 116t71.5 86.5t94.5 54.5t109.5 19zM365 510q-42 0 -84.5 -14t-79 -43t-63 -74t-37.5 -107t0 -107t37 -74.5
t63.5 -43.5t79.5 -14q43 0 85.5 14t78.5 43.5t62.5 74.5t37.5 107t0 107t-36.5 74t-63 43t-80.5 14z" />
    <glyph glyph-name="p" unicode="p" horiz-adv-x="672" 
d="M409 550q57 0 101 -19t72 -55t38 -87.5t-1 -116.5q-12 -65 -40 -117t-69 -88t-92 -55t-108 -19q-45 0 -81 12.5t-62 35t-41 53.5t-19 68l-74 -418h-44l141 799h44l-28 -162q17 37 43 68t59.5 53.5t74 35t86.5 12.5zM308 33q51 0 95 16.5t78.5 47t58 75t33.5 100.5t2 100
t-32 74.5t-62 47t-89 16.5q-48 0 -92 -17t-79.5 -48t-60 -75t-33.5 -98q-10 -54 -1 -98.5t33.5 -75.5t62.5 -48t86 -17z" />
    <glyph glyph-name="q" unicode="q" horiz-adv-x="672" 
d="M632 543l-141 -799h-44l74 416q-35 -74 -102.5 -120.5t-158.5 -46.5q-58 0 -102.5 19.5t-73 56t-38.5 88.5t2 117q11 65 39.5 116t69.5 86.5t92.5 54.5t108.5 19q90 0 141.5 -46t61.5 -119l27 158h44zM358 510q-50 0 -94 -16t-78.5 -47t-58 -75.5t-33.5 -100.5t-2 -100.5
t32 -75t62.5 -46.5t88.5 -16q48 0 91.5 17t79 48t60.5 75t35 99q9 54 0 98t-34 75t-63 48t-86 17z" />
    <glyph glyph-name="r" unicode="r" horiz-adv-x="354" 
d="M152 425q32 62 90.5 95.5t141.5 33.5l-8 -49h-16q-36 0 -72 -9.5t-67.5 -32t-55 -60t-33.5 -93.5l-55 -310h-45l95 543h46z" />
    <glyph glyph-name="s" unicode="s" horiz-adv-x="478" 
d="M255 550q97 0 145.5 -46t45.5 -124h-44q2 27 -6 51t-26.5 43t-48 30t-71.5 11q-55 0 -90 -25t-43 -67q-8 -46 13 -70.5t57 -39t79 -25t78.5 -29.5t55 -52.5t8.5 -93.5q-10 -53 -55 -86.5t-120 -33.5q-98 0 -153.5 45.5t-52.5 124.5h45q-2 -27 6.5 -51.5t29 -43
t53.5 -29.5t78 -11q54 0 86.5 25t39.5 63q9 51 -12 78.5t-57 43t-78.5 25.5t-77.5 27.5t-55 48.5t-10 87q10 57 57.5 90.5t122.5 33.5z" />
    <glyph glyph-name="t" unicode="t" horiz-adv-x="350" 
d="M117 153q-11 -66 8.5 -89t76.5 -23h56l-7 -41h-62q-73 0 -102.5 34t-14.5 119l61 349h-85l7 41h86l24 138h45l-24 -138h160l-7 -41h-161z" />
    <glyph glyph-name="u" unicode="u" horiz-adv-x="610" 
d="M578 543l-95 -543h-46l25 142q-18 -39 -43.5 -68t-56 -48t-65 -28t-69.5 -9q-45 0 -81.5 14t-61 43t-33.5 74t2 107l56 316h44l-55 -315q-17 -100 24 -150t124 -50q42 0 80.5 13.5t69.5 41.5t53 71t32 101l51 288h45z" />
    <glyph glyph-name="v" unicode="v" horiz-adv-x="531" 
d="M226 57l285 486h49l-321 -543h-47l-129 543h49z" />
    <glyph glyph-name="w" unicode="w" horiz-adv-x="813" 
d="M844 543l-262 -543h-44l-95 484l-266 -484h-45l-69 543h47l57 -487l265 487h44l94 -487l229 487h45z" />
    <glyph glyph-name="x" unicode="x" horiz-adv-x="445" 
d="M249 272l131 -272h-52l-116 240l-194 -240h-50l226 278l-128 265h52l112 -232l190 232h50z" />
    <glyph glyph-name="y" unicode="y" horiz-adv-x="524" 
d="M106 543l119 -483l273 483h50l-456 -799h-52l150 259l-134 540h50z" />
    <glyph glyph-name="z" unicode="z" horiz-adv-x="421" 
d="M36 39h315l-7 -39h-363l6 38l385 466h-293l7 39h344l-7 -37z" />
    <glyph glyph-name="braceleft" unicode="{" horiz-adv-x="321" 
d="M76 371q30 -7 50 -22.5t30.5 -36.5t13 -47t-2.5 -53q-4 -25 -12 -47t-16.5 -45t-17.5 -50t-15 -63q-7 -42 -2 -77t18 -63t30.5 -47.5t34.5 -31.5l-1 -5h-46q-10 7 -27.5 24.5t-31.5 45.5t-21.5 68t1.5 92q6 31 14.5 57.5t17.5 50.5t17 46.5t12 45.5q3 17 4 37.5
t-6.5 40.5t-26.5 37.5t-56 28.5l5 30q41 11 66 28.5t39.5 37.5t21 40.5t9.5 37.5q4 23 4 45.5t-0.5 46.5t0.5 50.5t6 57.5q9 52 30 92t45.5 68t48 45.5t36.5 24.5h46l-1 -5q-21 -12 -45.5 -31.5t-47.5 -47.5t-40.5 -63t-25.5 -77q-6 -36 -6.5 -62.5t0 -50t1 -45t-4.5 -47.5
q-5 -27 -16.5 -53t-29.5 -47t-43 -36.5t-58 -22.5z" />
    <glyph glyph-name="bar" unicode="|" horiz-adv-x="199" 
d="M45 -93h-46l155 877h46z" />
    <glyph glyph-name="braceright" unicode="}" horiz-adv-x="326" 
d="M253 373q-30 7 -50 22t-30.5 36t-13 46t2.5 52q5 26 12.5 48t16.5 45t17.5 49.5t14.5 62.5q8 42 2.5 77.5t-18 64t-30.5 48.5t-35 32l1 5h46q11 -7 28 -24.5t31.5 -45.5t21.5 -68t-2 -92q-5 -31 -14 -57.5t-18 -50.5t-17 -46.5t-12 -45.5q-3 -17 -4 -37.5t6.5 -40.5
t26.5 -37.5t56 -28.5l-5 -30q-40 -11 -65.5 -28.5t-40 -37.5t-21 -40.5t-9.5 -37.5q-4 -23 -4 -45.5t0.5 -46.5t0 -50.5t-6.5 -57.5q-9 -52 -30 -92t-45.5 -68t-48 -45.5t-36.5 -24.5h-45l1 5q21 12 45.5 32t47.5 48.5t41 64t25 77.5q6 36 6.5 62.5t0 49.5t-0.5 45t4 48
q5 27 16.5 52t29.5 46t43 36t58 22v2z" />
    <glyph glyph-name="asciitilde" unicode="~" horiz-adv-x="449" 
d="M154 377q26 0 45 -10.5t35.5 -23t33 -23t38.5 -10.5q26 0 46.5 19.5t30.5 47.5h39q-19 -52 -51 -81t-76 -29q-26 0 -45 10.5t-35.5 23t-33 23t-38.5 10.5q-26 0 -46.5 -19.5t-30.5 -47.5h-38q18 52 50 81t76 29z" />
    <glyph glyph-name="exclamdown" unicode="&#xa1;" horiz-adv-x="254" 
d="M131 485l13 69h76l-13 -69h-76zM24 -156l108 529h36l-90 -529h-54z" />
    <glyph glyph-name="cent" unicode="&#xa2;" horiz-adv-x="587" 
d="M500 324q1 73 -43.5 114t-118.5 41q-39 0 -78 -12.5t-71 -38.5t-56 -66t-33 -94q-10 -54 -0.5 -94t33 -66t57.5 -38.5t74 -12.5q74 0 132.5 41t83.5 114h43q-13 -42 -37.5 -77t-58 -60.5t-75 -40t-88.5 -15.5l-19 -111h-29l19 112q-48 3 -86 21.5t-62 50t-32.5 76
t1.5 100.5t34.5 100.5t59.5 76t79.5 50t93.5 21.5l18 103h29l-18 -102q94 -2 143.5 -55t47.5 -138h-43z" />
    <glyph glyph-name="sterling" unicode="&#xa3;" horiz-adv-x="555" 
d="M375 719q48 0 83 -15.5t57.5 -42t32 -62.5t6.5 -77h-43q3 34 -5.5 63t-27 50t-46 33t-63.5 12q-30 0 -59 -9t-54 -28.5t-43 -48.5t-25 -70q-8 -47 -2 -87.5t14 -81.5h190l-6 -34h-178q4 -25 5 -50t-4 -51q-10 -53 -37.5 -95.5t-76.5 -86.5h371l-7 -39h-413l-2 30
q22 21 42 41.5t36 42.5t27.5 47t16.5 55q5 28 3.5 54t-6.5 52h-117l5 34h106q-8 39 -13.5 80.5t3.5 91.5q7 42 26 77t48.5 60.5t69 40t86.5 14.5z" />
    <glyph glyph-name="currency" unicode="&#xa4;" horiz-adv-x="514" 
d="M400 491q14 -22 18.5 -50.5t-1.5 -63.5q-6 -34 -20.5 -62.5t-35.5 -50.5l50 -59l-26 -21l-49 58q-24 -18 -52.5 -28t-57.5 -10q-62 0 -98 38l-70 -58l-18 21l71 59q-12 22 -16 50.5t2 62.5q6 35 20.5 63.5t35.5 50.5l-52 61l26 21l50 -60q24 18 52 28t58 10q58 0 96 -38
l71 60l18 -21zM378 377q6 33 1 59.5t-18.5 45t-34 28t-44.5 9.5q-52 0 -93.5 -37.5t-53.5 -104.5q-11 -68 17 -105t79 -37q24 0 48 9.5t44 27.5t34.5 44.5t20.5 60.5z" />
    <glyph glyph-name="yen" unicode="&#xa5;" horiz-adv-x="584" 
d="M358 359h161l-6 -33h-178l-29 -41l-9 -51h200l-7 -35h-199l-35 -199h-46l35 199h-200l7 35h199l9 51l-15 41h-177l5 33h161l-124 346h53l128 -375l259 375h52z" />
    <glyph glyph-name="brokenbar" unicode="&#xa6;" horiz-adv-x="220" 
d="M165 784h45l-63 -360h-46zM55 -93h-45l64 361h45z" />
    <glyph glyph-name="section" unicode="&#xa7;" horiz-adv-x="570" 
d="M484 573q2 23 -4 47t-24 44t-49 32.5t-78 12.5q-57 0 -98 -22.5t-50 -70.5q-8 -49 24.5 -81t120.5 -56q43 -12 81 -26.5t64.5 -35.5t39 -51t4.5 -73q-5 -30 -22 -58t-45 -50.5t-66 -37.5t-85 -18q30 -9 58 -21.5t47.5 -31t28.5 -44.5t3 -61q-10 -56 -59.5 -92.5
t-139.5 -36.5q-94 0 -146 45.5t-48 126.5h44q-1 -26 6 -50.5t25 -43.5t48.5 -31t77.5 -12q57 0 98 22t49 70q9 53 -24.5 83.5t-121.5 55.5q-43 12 -80.5 26t-64 35t-38.5 51t-5 73q5 30 22.5 58.5t45.5 51t67 37t87 16.5q-30 9 -58 22t-49 32t-31 44.5t-4 59.5
q11 57 60.5 93.5t140.5 36.5q94 0 145.5 -45t47.5 -126h-45zM468 293q11 60 -31 98t-131 38q-44 0 -79.5 -11.5t-61.5 -30t-42 -43t-21 -51.5q-11 -60 31 -97.5t130 -37.5q45 0 80.5 11t61.5 30t42 43t21 51z" />
    <glyph glyph-name="dieresis" unicode="&#xa8;" horiz-adv-x="331" 
d="M116 663q3 15 15.5 26t28.5 11q15 0 24 -11t6 -26q-2 -15 -15 -26t-28 -11q-16 0 -24.5 11t-6.5 26zM262 663q2 15 14.5 26t28.5 11q15 0 23.5 -11t6.5 -26q-3 -15 -15.5 -26t-27.5 -11q-16 0 -24.5 11t-5.5 26z" />
    <glyph glyph-name="copyright" unicode="&#xa9;" horiz-adv-x="799" 
d="M462 704q77 0 135.5 -26t95 -72.5t50.5 -111t0 -141.5t-49.5 -142t-88.5 -111.5t-121 -72.5t-146 -26q-76 0 -135 26t-96 72.5t-50.5 111.5t-0.5 142q14 77 50 141.5t89.5 111t121.5 72.5t145 26zM458 680q-73 0 -136.5 -24.5t-112 -68t-81.5 -103.5t-45 -131
q-13 -71 -1.5 -131t45 -104t88 -68.5t127.5 -24.5t136 24.5t112 68.5t81.5 104t45.5 131q12 71 0.5 131t-45 103.5t-87.5 68t-127 24.5zM445 589q-43 0 -85 -15t-77 -45t-60 -74t-35 -101q-10 -58 -0.5 -102.5t33.5 -74.5t61 -45t80 -15q35 0 69 10t65 30t56 49.5t42 68.5
h-42q-29 -61 -80 -92t-105 -31q-34 0 -63.5 12.5t-49.5 37.5t-28 62.5t1 87.5t30 88t49.5 63t62.5 37.5t68 12.5q54 0 94.5 -31t48.5 -92h41q-3 39 -18 68.5t-38.5 50t-54 30.5t-65.5 10z" />
    <glyph glyph-name="ordfeminine" unicode="&#xaa;" horiz-adv-x="437" 
d="M232 709q57 0 88.5 -27t37.5 -75l17 97h38l-61 -350h-38l16 96q-23 -48 -64 -75.5t-98 -27.5q-36 0 -64 13t-45 37t-22.5 57.5t1.5 73.5q7 41 24.5 74.5t43 57t57.5 36.5t69 13zM233 677q-57 0 -101 -40t-56 -109t18 -108.5t87 -39.5q60 0 105.5 40t57.5 109
q12 68 -19 108t-92 40z" />
    <glyph glyph-name="guillemotleft" unicode="&#xab;" horiz-adv-x="405" 
d="M117 120l-72 175l134 175h49l-136 -175l74 -175h-49zM276 120l-72 175l134 175h49l-136 -175l74 -175h-49z" />
    <glyph glyph-name="logicalnot" unicode="&#xac;" horiz-adv-x="719" 
d="M688 427l-33 -184h-44l26 146h-573l7 38h617z" />
    <glyph glyph-name="registered" unicode="&#xae;" horiz-adv-x="791" 
d="M458 705q76 0 134 -25t94.5 -70.5t49.5 -110.5t-1 -145q-13 -77 -49.5 -142t-89.5 -112t-120 -73.5t-142 -26.5q-76 0 -134 26.5t-94.5 73.5t-49.5 112t0 142q14 80 50.5 145t89.5 110.5t120 70.5t142 25zM709 354q13 74 2 134.5t-44 103t-87 66t-126 23.5t-134.5 -23.5
t-110.5 -66t-80.5 -103t-45.5 -134.5q-13 -72 -1.5 -131.5t44.5 -102t87 -65.5t126 -23t134 23t110 65.5t80.5 102t45.5 131.5zM456 595q80 0 110.5 -34.5t20.5 -89.5q-10 -58 -51.5 -90.5t-109.5 -35.5l102 -203h-39l-100 203h-89l-36 -203h-34l79 453h147zM552 468
q8 46 -14.5 71t-88.5 25h-111l-34 -192h111q66 0 97.5 26t39.5 70z" />
    <glyph glyph-name="macron" unicode="&#xaf;" horiz-adv-x="397" 
d="M424 689l-7 -35h-324l6 35h325z" />
    <glyph glyph-name="degree" unicode="&#xb0;" horiz-adv-x="374" 
d="M217 694q72 0 106.5 -47.5t20.5 -125.5q-14 -79 -64.5 -126.5t-122.5 -47.5t-107 47.5t-21 126.5q7 39 24 71t42 54.5t56 35t66 12.5zM212 664q-54 0 -93 -37t-51 -106t14 -106.5t80 -37.5t93 37.5t51 106.5t-14 106t-80 37z" />
    <glyph glyph-name="plusminus" unicode="&#xb1;" horiz-adv-x="584" 
d="M559 426l-7 -41h-233l-39 -222h-44l39 222h-232l7 41h232l37 208h44l-37 -208h233zM-2 133h509l-7 -41h-509z" />
    <glyph glyph-name="uni00B2" unicode="&#xb2;" horiz-adv-x="316" 
d="M282 610q-8 -46 -39.5 -80.5t-82.5 -70.5l-101 -76h193l-6 -31h-236l4 24l135 108q32 25 59 54t35 70q7 38 -11 54t-46 16q-74 0 -97 -84h-38q11 46 47 80t96 34q49 0 72.5 -26.5t15.5 -71.5z" />
    <glyph glyph-name="uni00B3" unicode="&#xb3;" horiz-adv-x="315" 
d="M194 708q49 0 76.5 -26t19.5 -71q-5 -30 -26 -52t-56 -31l-1 -2q31 -8 46 -29.5t9 -55.5q-6 -36 -40.5 -65t-93.5 -29q-57 0 -82.5 25.5t-22.5 76.5h39q-3 -42 17 -57t52 -15q39 0 63 18t30 50q6 35 -15 52.5t-58 17.5h-57l4 23h59q36 0 61.5 18t31.5 52q5 31 -12 50
t-52 19q-38 0 -61 -17t-34 -46h-37q13 38 47 66t93 28z" />
    <glyph glyph-name="acute" unicode="&#xb4;" horiz-adv-x="269" 
d="M261 692l-161 -95l-9 19l157 103z" />
    <glyph glyph-name="uni00B5" unicode="&#xb5;" horiz-adv-x="629" 
d="M616 543l-96 -543h-45l25 142q-17 -40 -41.5 -68.5t-53.5 -47.5t-61.5 -28t-65.5 -9q-27 0 -53.5 6t-48.5 20.5t-38 38.5t-22 60l-65 -370h-44l141 799h44l-49 -280q-10 -60 -3.5 -104t27 -73t53.5 -43t75 -14q41 0 77 13.5t65.5 41.5t51 70.5t31.5 100.5v-1l51 289h45z
" />
    <glyph glyph-name="paragraph" unicode="&#xb6;" horiz-adv-x="525" 
d="M381 0h-40l115 651h-102l-115 -651h-39l52 293h-5q-60 0 -101.5 14.5t-66.5 41t-32.5 62.5t-0.5 79q8 44 29 80t55 62t80.5 40.5t105.5 14.5h186z" />
    <glyph glyph-name="periodcentered" unicode="&#xb7;" horiz-adv-x="137" 
d="M144 387l-12 -69h-71l12 69h71z" />
    <glyph glyph-name="cedilla" unicode="&#xb8;" horiz-adv-x="261" 
d="M106 -81q58 3 88.5 -20.5t22.5 -72.5q-7 -41 -40.5 -61.5t-84.5 -20.5h-79l6 31h71q45 0 66 14.5t25 37.5q5 26 -10 44.5t-61 18.5h-43l21 117h33z" />
    <glyph glyph-name="uni00B9" unicode="&#xb9;" horiz-adv-x="170" 
d="M63 672l6 32h93l-62 -352h-38l57 320h-56z" />
    <glyph glyph-name="ordmasculine" unicode="&#xba;" horiz-adv-x="417" 
d="M243 709q38 0 67 -13.5t48 -37.5t26 -57.5t0 -74.5q-7 -40 -26 -73.5t-46.5 -57.5t-61.5 -37.5t-72 -13.5q-37 0 -66.5 13.5t-48.5 37.5t-25.5 57.5t0.5 73.5q7 41 26 74.5t46 57.5t61 37.5t72 13.5zM237 676q-28 0 -54.5 -10t-48 -29t-37 -47t-21.5 -64
q-13 -72 19.5 -110.5t88.5 -38.5q28 0 54.5 10t48 28.5t37 46.5t21.5 64q13 73 -19.5 111.5t-88.5 38.5z" />
    <glyph glyph-name="guillemotright" unicode="&#xbb;" horiz-adv-x="405" 
d="M156 295l-75 175h50l71 -175l-133 -175h-50zM315 295l-75 175h49l72 -175l-133 -175h-50z" />
    <glyph glyph-name="onequarter" unicode="&#xbc;" horiz-adv-x="578" 
d="M539 705l-477 -705h-44l477 705h44zM98 672l6 32h93l-62 -352h-38l57 320h-56zM491 74h-53l-12 -74h-39l13 74h-176l6 26l217 255h41l-44 -253h52zM441 302l-171 -199h137z" />
    <glyph glyph-name="onehalf" unicode="&#xbd;" horiz-adv-x="635" 
d="M536 705l-479 -705h-44l478 705h45zM112 352l57 320h-56l6 32h93l-62 -352h-38zM569 257q-8 -46 -39.5 -80.5t-82.5 -70.5l-101 -76h193l-6 -31h-236l4 24l135 108q32 25 59 54t35 70q7 38 -11 54t-46 16q-74 0 -97 -84h-38q11 46 47 80t96 34q49 0 72.5 -26.5
t15.5 -71.5z" />
    <glyph glyph-name="threequarters" unicode="&#xbe;" horiz-adv-x="594" 
d="M214 708q49 0 76.5 -26t19.5 -71q-5 -30 -26 -52t-56 -31l-1 -2q31 -8 46 -29.5t9 -55.5q-6 -36 -40.5 -65t-93.5 -29q-57 0 -82.5 25.5t-22.5 76.5h39q-3 -42 17 -57t52 -15q39 0 63 18t30 50q6 35 -15 52.5t-58 17.5h-57l4 23h59q36 0 61.5 18t31.5 52q5 31 -12 50
t-52 19q-38 0 -61 -17t-34 -46h-37q13 38 47 66t93 28zM589 705l-475 -705h-45l475 705h45zM525 74h-53l-12 -74h-38l12 74h-176l5 26l215 255h44l-44 -253h52zM476 304l-172 -202h137z" />
    <glyph glyph-name="questiondown" unicode="&#xbf;" horiz-adv-x="472" 
d="M322 473l12 69h71l-12 -69h-71zM179 -177q-97 0 -145 57t-32 156q10 57 37 95.5t66 61.5t87.5 33.5t102.5 10.5l24 136h44l-30 -169h-24q-39 0 -81.5 -6t-79.5 -24t-64.5 -51t-36.5 -87q-15 -82 23.5 -128.5t116.5 -46.5q81 0 128 43t65 113h44q-22 -91 -84.5 -142.5
t-160.5 -51.5z" />
    <glyph glyph-name="Agrave" unicode="&#xc0;" horiz-adv-x="623" 
d="M485 756l-130 96l19 29l124 -103zM450 183h-334l-101 -183h-49l381 686h50l139 -686h-50zM443 220l-80 411l-227 -411h307z" />
    <glyph glyph-name="Aacute" unicode="&#xc1;" horiz-adv-x="623" 
d="M330 759l-9 19l157 103l13 -27zM450 183h-334l-101 -183h-49l381 686h50l139 -686h-50zM443 220l-80 411l-227 -411h307z" />
    <glyph glyph-name="Acircumflex" unicode="&#xc2;" horiz-adv-x="623" 
d="M296 759l-10 23l139 80l111 -80l-17 -23l-99 71zM397 686l139 -686h-50l-36 183h-334l-101 -183h-49l381 686h50zM443 220l-80 411l-227 -411h307z" />
    <glyph glyph-name="Atilde" unicode="&#xc3;" horiz-adv-x="623" 
d="M349 814q-35 0 -50 -47h-27q12 36 33 56t50 20q19 0 30.5 -7.5t21.5 -17t21 -17t28 -7.5q16 0 30 11.5t21 34.5h27q-9 -33 -32 -53.5t-52 -20.5q-19 0 -31.5 7.5t-23 16.5t-21 16.5t-25.5 7.5zM450 183h-334l-101 -183h-49l381 686h50l139 -686h-50zM443 220l-80 411
l-227 -411h307z" />
    <glyph glyph-name="Adieresis" unicode="&#xc4;" horiz-adv-x="623" 
d="M326 788q-16 0 -24.5 11t-6.5 26q3 15 15.5 26t28.5 11q15 0 24 -11t6 -26q-2 -15 -15 -26t-28 -11zM471 788q-16 0 -24.5 11t-5.5 26q2 15 14.5 26t28.5 11q15 0 23.5 -11t6.5 -26q-3 -15 -15.5 -26t-27.5 -11zM450 183h-334l-101 -183h-49l381 686h50l139 -686h-50z
M443 220l-80 411l-227 -411h307z" />
    <glyph glyph-name="Aring" unicode="&#xc5;" horiz-adv-x="623" 
d="M379 774q-39 0 -63 25.5t-16 70.5t40.5 70t71.5 25t63 -25t16 -70t-40.5 -70.5t-71.5 -25.5zM329 870q-6 -32 9.5 -50.5t44.5 -18.5t51.5 18.5t28.5 50.5q5 32 -10.5 50t-44.5 18t-51.5 -18t-27.5 -50zM450 183h-334l-101 -183h-49l381 686h50l139 -686h-50zM443 220
l-80 411l-227 -411h307z" />
    <glyph glyph-name="AE" unicode="&#xc6;" horiz-adv-x="856" 
d="M550 667l-52 -295h283l-6 -37h-284l-52 -297h313l-6 -38h-359l32 182h-281l-141 -182h-50l545 705h378l-7 -38h-313zM501 651l-334 -432h258z" />
    <glyph glyph-name="Ccedilla" unicode="&#xc7;" horiz-adv-x="767" 
d="M442 670q-59 0 -114.5 -22t-101 -63t-78 -100t-45.5 -133t-1.5 -132.5t42.5 -99.5t79 -63t108 -22q55 0 102 13.5t86 37.5t69.5 57t51.5 72h47q-48 -90 -125 -148.5t-186 -70.5l-13 -77q58 3 88.5 -20.5t22.5 -72.5q-7 -41 -40.5 -61.5t-84.5 -20.5h-79l6 31h71
q45 0 66 14.5t25 37.5q5 26 -10 44.5t-61 18.5h-43l19 103h-19q-73 0 -129.5 26.5t-91.5 74t-48 113.5t1 145t50 145t88 114t117.5 74.5t138.5 26.5q65 0 114.5 -16t84.5 -45t56.5 -70.5t29.5 -91.5h-47q-7 39 -26 72t-49.5 57.5t-73 38t-97.5 13.5z" />
    <glyph glyph-name="Egrave" unicode="&#xc8;" horiz-adv-x="489" 
d="M434 778l-13 -22l-130 96l19 29zM181 667l-52 -296h285l-7 -36h-284l-53 -297h315l-6 -38h-360l124 705h360l-7 -38h-315z" />
    <glyph glyph-name="Eacute" unicode="&#xc9;" horiz-adv-x="489" 
d="M427 854l-161 -95l-9 19l157 103zM181 667l-52 -296h285l-7 -36h-284l-53 -297h315l-6 -38h-360l124 705h360l-7 -38h-315z" />
    <glyph glyph-name="Ecircumflex" unicode="&#xca;" horiz-adv-x="489" 
d="M356 830l-124 -71l-10 23l139 80l111 -80l-17 -23zM181 667l-52 -296h285l-7 -36h-284l-53 -297h315l-6 -38h-360l124 705h360l-7 -38h-315z" />
    <glyph glyph-name="Edieresis" unicode="&#xcb;" horiz-adv-x="489" 
d="M244 825q3 15 15.5 26t28.5 11q15 0 24 -11t6 -26q-2 -15 -15 -26t-28 -11q-16 0 -24.5 11t-6.5 26zM390 825q2 15 14.5 26t28.5 11q15 0 23.5 -11t6.5 -26q-3 -15 -15.5 -26t-27.5 -11q-16 0 -24.5 11t-5.5 26zM181 667l-52 -296h285l-7 -36h-284l-53 -297h315l-6 -38
h-360l124 705h360l-7 -38h-315z" />
    <glyph glyph-name="Igrave" unicode="&#xcc;" horiz-adv-x="207" 
d="M292 778l-13 -22l-130 96l19 29zM188 705l-124 -705h-45l124 705h45z" />
    <glyph glyph-name="Iacute" unicode="&#xcd;" horiz-adv-x="207" 
d="M285 854l-161 -95l-9 19l157 103zM188 705l-124 -705h-45l124 705h45z" />
    <glyph glyph-name="Icircumflex" unicode="&#xce;" horiz-adv-x="207" 
d="M214 830l-124 -71l-10 23l139 80l111 -80l-17 -23zM188 705l-124 -705h-45l124 705h45z" />
    <glyph glyph-name="Idieresis" unicode="&#xcf;" horiz-adv-x="207" 
d="M88 825q3 15 15.5 26t28.5 11q15 0 24 -11t6 -26q-2 -15 -15 -26t-28 -11q-16 0 -24.5 11t-6.5 26zM234 825q2 15 14.5 26t28.5 11q15 0 23.5 -11t6.5 -26q-3 -15 -15.5 -26t-27.5 -11q-16 0 -24.5 11t-5.5 26zM188 705l-124 -705h-45l124 705h45z" />
    <glyph glyph-name="Eth" unicode="&#xd0;" horiz-adv-x="742" 
d="M376 705q91 0 156.5 -24t104.5 -69.5t51.5 -111t-2.5 -147.5t-50.5 -147.5t-90 -111.5t-128.5 -70t-165 -24h-198l59 334h-108l7 37h107l59 334h198zM640 353q13 72 2.5 130t-44 98.5t-91.5 62t-140 21.5h-151l-52 -294h220l-6 -37h-220l-52 -293h151q164 0 261 83.5
t122 228.5z" />
    <glyph glyph-name="Ntilde" unicode="&#xd1;" horiz-adv-x="664" 
d="M378 843q19 0 30.5 -7.5t21.5 -17t21 -17t28 -7.5q16 0 30 11.5t21 34.5h27q-9 -33 -32 -53.5t-52 -20.5q-19 0 -31.5 7.5t-23 16.5t-21 16.5t-25.5 7.5q-35 0 -50 -47h-27q12 36 33 56t50 20zM521 0h-45l-301 628l-111 -628h-45l124 704h45l301 -628l111 628h45z" />
    <glyph glyph-name="Ograve" unicode="&#xd2;" 
d="M580 778l-13 -22l-130 96l19 29zM455 711q75 0 133.5 -27t95 -75t50 -115t-0.5 -147q-14 -78 -50 -143.5t-88.5 -112.5t-119 -73t-140.5 -26q-76 0 -134 27t-95 75.5t-50 115.5t1 147q14 78 50 143t88.5 112t119 73t140.5 26zM450 670q-61 0 -118.5 -22t-104 -63
t-79.5 -99.5t-46 -132.5t-0.5 -133t44.5 -100.5t82 -63.5t112 -22t119 22t103.5 63t79.5 99.5t46 132.5t0.5 133.5t-44.5 100.5t-82 63t-112 22z" />
    <glyph glyph-name="Oacute" unicode="&#xd3;" 
d="M573 854l-161 -95l-9 19l157 103zM455 711q75 0 133.5 -27t95 -75t50 -115t-0.5 -147q-14 -78 -50 -143.5t-88.5 -112.5t-119 -73t-140.5 -26q-76 0 -134 27t-95 75.5t-50 115.5t1 147q14 78 50 143t88.5 112t119 73t140.5 26zM450 670q-61 0 -118.5 -22t-104 -63
t-79.5 -99.5t-46 -132.5t-0.5 -133t44.5 -100.5t82 -63.5t112 -22t119 22t103.5 63t79.5 99.5t46 132.5t0.5 133.5t-44.5 100.5t-82 63t-112 22z" />
    <glyph glyph-name="Ocircumflex" unicode="&#xd4;" 
d="M502 830l-124 -71l-10 23l139 80l111 -80l-17 -23zM455 711q75 0 133.5 -27t95 -75t50 -115t-0.5 -147q-14 -78 -50 -143.5t-88.5 -112.5t-119 -73t-140.5 -26q-76 0 -134 27t-95 75.5t-50 115.5t1 147q14 78 50 143t88.5 112t119 73t140.5 26zM450 670q-61 0 -118.5 -22
t-104 -63t-79.5 -99.5t-46 -132.5t-0.5 -133t44.5 -100.5t82 -63.5t112 -22t119 22t103.5 63t79.5 99.5t46 132.5t0.5 133.5t-44.5 100.5t-82 63t-112 22z" />
    <glyph glyph-name="Otilde" unicode="&#xd5;" 
d="M437 843q19 0 30.5 -7.5t21.5 -17t21 -17t28 -7.5q16 0 30 11.5t21 34.5h27q-9 -33 -32 -53.5t-52 -20.5q-19 0 -31.5 7.5t-23 16.5t-21 16.5t-25.5 7.5q-35 0 -50 -47h-27q12 36 33 56t50 20zM455 711q75 0 133.5 -27t95 -75t50 -115t-0.5 -147q-14 -78 -50 -143.5
t-88.5 -112.5t-119 -73t-140.5 -26q-76 0 -134 27t-95 75.5t-50 115.5t1 147q14 78 50 143t88.5 112t119 73t140.5 26zM450 670q-61 0 -118.5 -22t-104 -63t-79.5 -99.5t-46 -132.5t-0.5 -133t44.5 -100.5t82 -63.5t112 -22t119 22t103.5 63t79.5 99.5t46 132.5t0.5 133.5
t-44.5 100.5t-82 63t-112 22z" />
    <glyph glyph-name="Odieresis" unicode="&#xd6;" 
d="M379 825q3 15 15.5 26t28.5 11q15 0 24 -11t6 -26q-2 -15 -15 -26t-28 -11q-16 0 -24.5 11t-6.5 26zM525 825q2 15 14.5 26t28.5 11q15 0 23.5 -11t6.5 -26q-3 -15 -15.5 -26t-27.5 -11q-16 0 -24.5 11t-5.5 26zM455 711q75 0 133.5 -27t95 -75t50 -115t-0.5 -147
q-14 -78 -50 -143.5t-88.5 -112.5t-119 -73t-140.5 -26q-76 0 -134 27t-95 75.5t-50 115.5t1 147q14 78 50 143t88.5 112t119 73t140.5 26zM450 670q-61 0 -118.5 -22t-104 -63t-79.5 -99.5t-46 -132.5t-0.5 -133t44.5 -100.5t82 -63.5t112 -22t119 22t103.5 63t79.5 99.5
t46 132.5t0.5 133.5t-44.5 100.5t-82 63t-112 22z" />
    <glyph glyph-name="multiply" unicode="&#xd7;" horiz-adv-x="483" 
d="M272 377l144 -175l-36 -30l-144 174l-203 -173l-24 29l204 173l-143 173l36 31l142 -173l203 172l24 -29z" />
    <glyph glyph-name="Oslash" unicode="&#xd8;" horiz-adv-x="792" 
d="M688 604q35 -48 47 -113.5t-2 -143.5t-50 -143.5t-88.5 -112.5t-119 -73t-140.5 -26q-70 0 -125 23t-93 65l-87 -80h-37l109 100q-35 48 -47 113.5t2 143.5t50 143t88.5 112t119 73t140.5 26q70 0 125 -23t93 -66l90 83h35zM102 353q-12 -69 -2.5 -124.5t37.5 -96.5
l502 459q-33 38 -81 58.5t-108 20.5q-61 0 -118.5 -22t-104 -63t-79.5 -99.5t-46 -132.5zM688 351q12 69 2.5 124.5t-37.5 96.5l-501 -460q32 -38 80 -58t108 -20q62 0 119 22t103.5 63t79.5 99.5t46 132.5z" />
    <glyph glyph-name="Ugrave" unicode="&#xd9;" horiz-adv-x="640" 
d="M509 778l-13 -22l-130 96l19 29zM184 705l-77 -433q-11 -64 -4 -109.5t29 -73.5t56.5 -41t78.5 -13q43 0 81.5 13t70 41t54 73.5t33.5 109.5l76 433h45l-76 -433q-13 -73 -40 -126t-65.5 -87t-85.5 -50t-101 -16t-96 16t-69 50t-36 87t4 126l76 433h46z" />
    <glyph glyph-name="Uacute" unicode="&#xda;" horiz-adv-x="640" 
d="M502 854l-161 -95l-9 19l157 103zM184 705l-77 -433q-11 -64 -4 -109.5t29 -73.5t56.5 -41t78.5 -13q43 0 81.5 13t70 41t54 73.5t33.5 109.5l76 433h45l-76 -433q-13 -73 -40 -126t-65.5 -87t-85.5 -50t-101 -16t-96 16t-69 50t-36 87t4 126l76 433h46z" />
    <glyph glyph-name="Ucircumflex" unicode="&#xdb;" horiz-adv-x="640" 
d="M431 830l-124 -71l-10 23l139 80l111 -80l-17 -23zM184 705l-77 -433q-11 -64 -4 -109.5t29 -73.5t56.5 -41t78.5 -13q43 0 81.5 13t70 41t54 73.5t33.5 109.5l76 433h45l-76 -433q-13 -73 -40 -126t-65.5 -87t-85.5 -50t-101 -16t-96 16t-69 50t-36 87t4 126l76 433h46z
" />
    <glyph glyph-name="Udieresis" unicode="&#xdc;" horiz-adv-x="640" 
d="M304 825q3 15 15.5 26t28.5 11q15 0 24 -11t6 -26q-2 -15 -15 -26t-28 -11q-16 0 -24.5 11t-6.5 26zM450 825q2 15 14.5 26t28.5 11q15 0 23.5 -11t6.5 -26q-3 -15 -15.5 -26t-27.5 -11q-16 0 -24.5 11t-5.5 26zM184 705l-77 -433q-11 -64 -4 -109.5t29 -73.5t56.5 -41
t78.5 -13q43 0 81.5 13t70 41t54 73.5t33.5 109.5l76 433h45l-76 -433q-13 -73 -40 -126t-65.5 -87t-85.5 -50t-101 -16t-96 16t-69 50t-36 87t4 126l76 433h46z" />
    <glyph glyph-name="Yacute" unicode="&#xdd;" horiz-adv-x="545" 
d="M293 759l-9 19l157 103l13 -27zM580 705l-296 -420l-50 -285h-46l51 285l-151 420h53l128 -373l259 373h52z" />
    <glyph glyph-name="Thorn" unicode="&#xde;" horiz-adv-x="543" 
d="M91 155l-27 -155h-45l124 705h45l-27 -154h149q61 0 102 -14t64.5 -40.5t30.5 -63t-1 -81.5q-17 -97 -85 -147t-181 -50h-149zM244 194q52 0 89.5 11.5t63.5 32t41.5 49.5t21.5 65q7 38 2.5 68t-23.5 50.5t-53 31.5t-86 11h-146l-56 -319h146z" />
    <glyph glyph-name="germandbls" unicode="&#xdf;" horiz-adv-x="610" 
d="M442 353q62 -45 84 -93.5t11 -112.5q-6 -34 -23.5 -63t-44 -50t-61 -33t-75.5 -12q-82 0 -124.5 46.5t-28.5 132.5h40q-5 -29 -1.5 -54.5t17 -44t38 -29.5t60.5 -11t63.5 11t47.5 29t31.5 40t15.5 44q8 45 -6.5 83.5t-67.5 78.5l-143 109l5 24l44 20q42 19 65 46t30 68
q11 57 -17.5 92t-87.5 35q-61 0 -101 -36t-51 -99l-101 -574h-46l102 575q14 83 68 129t139 46q36 0 65.5 -11t49 -31.5t27.5 -50t1 -66.5q-15 -92 -122 -138l-24 -11z" />
    <glyph glyph-name="agrave" unicode="&#xe0;" horiz-adv-x="673" 
d="M497 616l-13 -22l-130 96l19 29zM362 550q46 0 82 -12.5t62 -35t41.5 -53.5t19.5 -68l29 162h44l-96 -543h-44l28 162q-17 -37 -43 -68t-59.5 -53.5t-74 -35t-85.5 -12.5q-58 0 -102.5 19.5t-72 55.5t-37.5 88t1 118q12 65 40 116t68.5 86.5t91 54.5t107.5 19zM366 510
q-51 0 -95 -16.5t-78.5 -47t-58 -74.5t-33.5 -100q-20 -112 29.5 -175.5t151.5 -63.5q48 0 92 17t79.5 48t60 75.5t34.5 98.5q9 54 0 98t-33.5 75t-62.5 48t-86 17z" />
    <glyph glyph-name="aacute" unicode="&#xe1;" horiz-adv-x="673" 
d="M490 692l-161 -95l-9 19l157 103zM362 550q46 0 82 -12.5t62 -35t41.5 -53.5t19.5 -68l29 162h44l-96 -543h-44l28 162q-17 -37 -43 -68t-59.5 -53.5t-74 -35t-85.5 -12.5q-58 0 -102.5 19.5t-72 55.5t-37.5 88t1 118q12 65 40 116t68.5 86.5t91 54.5t107.5 19zM366 510
q-51 0 -95 -16.5t-78.5 -47t-58 -74.5t-33.5 -100q-20 -112 29.5 -175.5t151.5 -63.5q48 0 92 17t79.5 48t60 75.5t34.5 98.5q9 54 0 98t-33.5 75t-62.5 48t-86 17z" />
    <glyph glyph-name="acircumflex" unicode="&#xe2;" horiz-adv-x="673" 
d="M419 668l-124 -71l-10 23l139 80l111 -80l-17 -23zM362 550q46 0 82 -12.5t62 -35t41.5 -53.5t19.5 -68l29 162h44l-96 -543h-44l28 162q-17 -37 -43 -68t-59.5 -53.5t-74 -35t-85.5 -12.5q-58 0 -102.5 19.5t-72 55.5t-37.5 88t1 118q12 65 40 116t68.5 86.5t91 54.5
t107.5 19zM366 510q-51 0 -95 -16.5t-78.5 -47t-58 -74.5t-33.5 -100q-20 -112 29.5 -175.5t151.5 -63.5q48 0 92 17t79.5 48t60 75.5t34.5 98.5q9 54 0 98t-33.5 75t-62.5 48t-86 17z" />
    <glyph glyph-name="atilde" unicode="&#xe3;" horiz-adv-x="673" 
d="M354 681q19 0 30.5 -7.5t21.5 -17t21 -17t28 -7.5q16 0 30 11.5t21 34.5h27q-9 -33 -32 -53.5t-52 -20.5q-19 0 -31.5 7.5t-23 16.5t-21 16.5t-25.5 7.5q-35 0 -50 -47h-27q12 36 33 56t50 20zM362 550q46 0 82 -12.5t62 -35t41.5 -53.5t19.5 -68l29 162h44l-96 -543h-44
l28 162q-17 -37 -43 -68t-59.5 -53.5t-74 -35t-85.5 -12.5q-58 0 -102.5 19.5t-72 55.5t-37.5 88t1 118q12 65 40 116t68.5 86.5t91 54.5t107.5 19zM366 510q-51 0 -95 -16.5t-78.5 -47t-58 -74.5t-33.5 -100q-20 -112 29.5 -175.5t151.5 -63.5q48 0 92 17t79.5 48t60 75.5
t34.5 98.5q9 54 0 98t-33.5 75t-62.5 48t-86 17z" />
    <glyph glyph-name="adieresis" unicode="&#xe4;" horiz-adv-x="672" 
d="M279 663q3 15 15.5 26t28.5 11q15 0 24 -11t6 -26q-2 -15 -15 -26t-28 -11q-16 0 -24.5 11t-6.5 26zM425 663q2 15 14.5 26t28.5 11q15 0 23.5 -11t6.5 -26q-3 -15 -15.5 -26t-27.5 -11q-16 0 -24.5 11t-5.5 26zM362 550q46 0 82 -12.5t62 -35t41.5 -53.5t19.5 -68
l29 162h44l-96 -543h-44l28 162q-17 -37 -43 -68t-59.5 -53.5t-74 -35t-85.5 -12.5q-58 0 -102.5 19.5t-72 55.5t-37.5 88t1 118q12 65 40 116t68.5 86.5t91 54.5t107.5 19zM366 510q-51 0 -95 -16.5t-78.5 -47t-58 -74.5t-33.5 -100q-20 -112 29.5 -175.5t151.5 -63.5
q48 0 92 17t79.5 48t60 75.5t34.5 98.5q9 54 0 98t-33.5 75t-62.5 48t-86 17z" />
    <glyph glyph-name="aring" unicode="&#xe5;" horiz-adv-x="672" 
d="M393 803q39 0 63 -25t16 -70t-40.5 -70.5t-71.5 -25.5t-63 25.5t-16 70.5t40.5 70t71.5 25zM389 776q-29 0 -51.5 -18t-27.5 -50q-6 -32 9.5 -50.5t44.5 -18.5t51.5 18.5t28.5 50.5q5 32 -10.5 50t-44.5 18zM362 550q46 0 82 -12.5t62 -35t41.5 -53.5t19.5 -68l29 162h44
l-96 -543h-44l28 162q-17 -37 -43 -68t-59.5 -53.5t-74 -35t-85.5 -12.5q-58 0 -102.5 19.5t-72 55.5t-37.5 88t1 118q12 65 40 116t68.5 86.5t91 54.5t107.5 19zM366 510q-51 0 -95 -16.5t-78.5 -47t-58 -74.5t-33.5 -100q-20 -112 29.5 -175.5t151.5 -63.5q48 0 92 17
t79.5 48t60 75.5t34.5 98.5q9 54 0 98t-33.5 75t-62.5 48t-86 17z" />
    <glyph glyph-name="ae" unicode="&#xe6;" horiz-adv-x="1125" 
d="M872 550q61 0 103.5 -20t67.5 -53.5t33.5 -76.5t0.5 -88q-3 -19 -6 -29.5t-8 -23.5h-472q-9 -59 2 -102t36.5 -71t62.5 -41.5t79 -13.5q83 0 146.5 41t88.5 114h47q-14 -42 -40 -77.5t-62 -61t-81 -40t-96 -14.5q-41 0 -76.5 10.5t-62.5 32t-43.5 53.5t-19.5 74l-28 -163
h-45l29 162q-17 -37 -43 -68t-59.5 -53.5t-74 -35t-86.5 -12.5q-57 0 -101.5 19t-72.5 55t-38 88t2 117t40 116.5t68.5 87.5t91.5 55t108 19q92 0 144 -47.5t60 -121.5l28 162h44l-28 -163q35 85 104 127.5t157 42.5zM1029 286q14 59 4 102t-35 71t-62 41t-79 13
q-45 0 -87 -13t-77 -41t-60.5 -71t-37.5 -102h434zM547 272q10 54 1 98t-33.5 75t-62.5 48t-86 17q-51 0 -95 -16.5t-78.5 -47t-58 -74.5t-33.5 -100t-2 -100.5t31.5 -75t61.5 -47t89 -16.5q49 0 93 17t79.5 48t60 75.5t33.5 98.5z" />
    <glyph glyph-name="ccedilla" unicode="&#xe7;" horiz-adv-x="626" 
d="M539 355q1 73 -48 114.5t-131 41.5q-42 0 -84 -14t-77 -43.5t-61 -74.5t-37 -107t-1 -107t35 -74.5t62 -43.5t79 -14q82 0 145 41.5t88 114.5h47q-14 -41 -39 -76t-58.5 -60.5t-76 -40.5t-90.5 -18l-13 -75q58 3 88.5 -20.5t22.5 -72.5q-7 -41 -40.5 -61.5t-84.5 -20.5
h-79l6 31h71q45 0 66 14.5t25 37.5q5 26 -10 44.5t-61 18.5h-43l19 103q-55 2 -98 22t-70.5 56t-37 87.5t1.5 115.5q12 65 40.5 116t70 86.5t93 54.5t108.5 19q53 0 94 -14.5t69 -40t42 -61.5t14 -79h-47z" />
    <glyph glyph-name="egrave" unicode="&#xe8;" horiz-adv-x="627" 
d="M461 594l-130 96l19 29l124 -103zM367 550q62 0 106 -20t70 -53.5t34.5 -76.5t0.5 -88q-3 -19 -5.5 -29.5t-7.5 -23.5h-468q-9 -60 2 -103t36.5 -70.5t62 -41t77.5 -13.5q81 0 144.5 41.5t88.5 113.5h47q-15 -42 -41.5 -77.5t-63 -61t-82.5 -40t-99 -14.5q-57 0 -102 19
t-73.5 55t-39.5 88t1 118q12 65 40.5 116.5t70 87t93 54.5t108.5 19zM530 286q14 59 4.5 102t-34.5 71t-61.5 41t-77.5 13q-42 0 -83.5 -13.5t-76.5 -41t-61.5 -70.5t-37.5 -102h428z" />
    <glyph glyph-name="eacute" unicode="&#xe9;" horiz-adv-x="627" 
d="M306 597l-9 19l157 103l13 -27zM367 550q62 0 106 -20t70 -53.5t34.5 -76.5t0.5 -88q-3 -19 -5.5 -29.5t-7.5 -23.5h-468q-9 -60 2 -103t36.5 -70.5t62 -41t77.5 -13.5q81 0 144.5 41.5t88.5 113.5h47q-15 -42 -41.5 -77.5t-63 -61t-82.5 -40t-99 -14.5q-57 0 -102 19
t-73.5 55t-39.5 88t1 118q12 65 40.5 116.5t70 87t93 54.5t108.5 19zM530 286q14 59 4.5 102t-34.5 71t-61.5 41t-77.5 13q-42 0 -83.5 -13.5t-76.5 -41t-61.5 -70.5t-37.5 -102h428z" />
    <glyph glyph-name="ecircumflex" unicode="&#xea;" horiz-adv-x="627" 
d="M272 597l-10 23l139 80l111 -80l-17 -23l-99 71zM367 550q62 0 106 -20t70 -53.5t34.5 -76.5t0.5 -88q-3 -19 -5.5 -29.5t-7.5 -23.5h-468q-9 -60 2 -103t36.5 -70.5t62 -41t77.5 -13.5q81 0 144.5 41.5t88.5 113.5h47q-15 -42 -41.5 -77.5t-63 -61t-82.5 -40t-99 -14.5
q-57 0 -102 19t-73.5 55t-39.5 88t1 118q12 65 40.5 116.5t70 87t93 54.5t108.5 19zM530 286q14 59 4.5 102t-34.5 71t-61.5 41t-77.5 13q-42 0 -83.5 -13.5t-76.5 -41t-61.5 -70.5t-37.5 -102h428z" />
    <glyph glyph-name="edieresis" unicode="&#xeb;" horiz-adv-x="626" 
d="M299 626q-16 0 -24.5 11t-6.5 26q3 15 15.5 26t28.5 11q15 0 24 -11t6 -26q-2 -15 -15 -26t-28 -11zM444 626q-16 0 -24.5 11t-5.5 26q2 15 14.5 26t28.5 11q15 0 23.5 -11t6.5 -26q-3 -15 -15.5 -26t-27.5 -11zM367 550q62 0 106 -20t70 -53.5t34.5 -76.5t0.5 -88
q-3 -19 -5.5 -29.5t-7.5 -23.5h-468q-9 -60 2 -103t36.5 -70.5t62 -41t77.5 -13.5q81 0 144.5 41.5t88.5 113.5h47q-15 -42 -41.5 -77.5t-63 -61t-82.5 -40t-99 -14.5q-57 0 -102 19t-73.5 55t-39.5 88t1 118q12 65 40.5 116.5t70 87t93 54.5t108.5 19zM530 286
q14 59 4.5 102t-34.5 71t-61.5 41t-77.5 13q-42 0 -83.5 -13.5t-76.5 -41t-61.5 -70.5t-37.5 -102h428z" />
    <glyph glyph-name="igrave" unicode="&#xec;" horiz-adv-x="205" 
d="M263 616l-13 -22l-130 96l19 29zM173 543l-96 -543h-45l96 543h45z" />
    <glyph glyph-name="iacute" unicode="&#xed;" horiz-adv-x="205" 
d="M256 692l-161 -95l-9 19l157 103zM173 543l-96 -543h-45l96 543h45z" />
    <glyph glyph-name="icircumflex" unicode="&#xee;" horiz-adv-x="205" 
d="M185 668l-124 -71l-10 23l139 80l111 -80l-17 -23zM173 543l-96 -543h-45l96 543h45z" />
    <glyph glyph-name="idieresis" unicode="&#xef;" horiz-adv-x="207" 
d="M62 663q3 15 15.5 26t28.5 11q15 0 24 -11t6 -26q-2 -15 -15 -26t-28 -11q-16 0 -24.5 11t-6.5 26zM208 663q2 15 14.5 26t28.5 11q15 0 23.5 -11t6.5 -26q-3 -15 -15.5 -26t-27.5 -11q-16 0 -24.5 11t-5.5 26zM173 543l-96 -543h-45l96 543h45z" />
    <glyph glyph-name="eth" unicode="&#xf0;" horiz-adv-x="644" 
d="M616 716l-128 -43q67 -81 89.5 -169.5t3.5 -195.5q-14 -79 -44.5 -138t-72.5 -98.5t-94 -59t-111 -19.5q-62 0 -108 21.5t-74 60t-37.5 92.5t2.5 119q11 60 38.5 109.5t68 85t93 54.5t112.5 19q38 0 71.5 -10.5t59.5 -32t43.5 -55t21.5 -79.5q2 83 -19 150.5t-76 134.5
l-158 -53l5 25l137 46q-13 14 -27.5 29t-31.5 31h43q14 -12 26 -24.5t23 -24.5l149 49zM528 272q11 59 1 104t-34.5 76t-62 46.5t-82.5 15.5q-47 0 -90.5 -15t-78 -43.5t-59 -71t-34.5 -98.5q-11 -61 -2.5 -108t32.5 -79t62 -49t86 -17q46 0 89 16t78 46.5t60 75t35 101.5z
" />
    <glyph glyph-name="ntilde" unicode="&#xf1;" horiz-adv-x="624" 
d="M324 652q-35 0 -50 -47h-27q12 36 33 56t50 20q19 0 30.5 -7.5t21.5 -17t21 -17t28 -7.5q16 0 30 11.5t21 34.5h27q-9 -33 -32 -53.5t-52 -20.5q-19 0 -31.5 7.5t-23 16.5t-21 16.5t-25.5 7.5zM382 554q45 0 81.5 -14t61 -43t33.5 -73.5t-2 -106.5l-56 -317h-44l55 315
q17 100 -24 150.5t-124 50.5q-42 0 -79.5 -13t-68 -40t-52.5 -68t-33 -96l-53 -299h-45l95 543h46l-25 -142q18 39 43.5 68t56.5 48t65 28t69 9z" />
    <glyph glyph-name="ograve" unicode="&#xf2;" horiz-adv-x="646" 
d="M484 616l-13 -22l-130 96l19 29zM372 550q57 0 103 -19t75.5 -55.5t41 -88.5t-0.5 -118q-12 -65 -41 -116t-71 -86.5t-94 -54.5t-109 -19q-58 0 -104 19t-76 55.5t-41.5 88.5t0.5 118q12 65 41.5 116t71.5 86.5t94.5 54.5t109.5 19zM365 510q-42 0 -84.5 -14t-79 -43
t-63 -74t-37.5 -107t0 -107t37 -74.5t63.5 -43.5t79.5 -14q43 0 85.5 14t78.5 43.5t62.5 74.5t37.5 107t0 107t-36.5 74t-63 43t-80.5 14z" />
    <glyph glyph-name="oacute" unicode="&#xf3;" horiz-adv-x="646" 
d="M477 692l-161 -95l-9 19l157 103zM372 550q57 0 103 -19t75.5 -55.5t41 -88.5t-0.5 -118q-12 -65 -41 -116t-71 -86.5t-94 -54.5t-109 -19q-58 0 -104 19t-76 55.5t-41.5 88.5t0.5 118q12 65 41.5 116t71.5 86.5t94.5 54.5t109.5 19zM365 510q-42 0 -84.5 -14t-79 -43
t-63 -74t-37.5 -107t0 -107t37 -74.5t63.5 -43.5t79.5 -14q43 0 85.5 14t78.5 43.5t62.5 74.5t37.5 107t0 107t-36.5 74t-63 43t-80.5 14z" />
    <glyph glyph-name="ocircumflex" unicode="&#xf4;" horiz-adv-x="646" 
d="M406 668l-124 -71l-10 23l139 80l111 -80l-17 -23zM372 550q57 0 103 -19t75.5 -55.5t41 -88.5t-0.5 -118q-12 -65 -41 -116t-71 -86.5t-94 -54.5t-109 -19q-58 0 -104 19t-76 55.5t-41.5 88.5t0.5 118q12 65 41.5 116t71.5 86.5t94.5 54.5t109.5 19zM365 510
q-42 0 -84.5 -14t-79 -43t-63 -74t-37.5 -107t0 -107t37 -74.5t63.5 -43.5t79.5 -14q43 0 85.5 14t78.5 43.5t62.5 74.5t37.5 107t0 107t-36.5 74t-63 43t-80.5 14z" />
    <glyph glyph-name="otilde" unicode="&#xf5;" horiz-adv-x="646" 
d="M341 681q19 0 30.5 -7.5t21.5 -17t21 -17t28 -7.5q16 0 30 11.5t21 34.5h27q-9 -33 -32 -53.5t-52 -20.5q-19 0 -31.5 7.5t-23 16.5t-21 16.5t-25.5 7.5q-35 0 -50 -47h-27q12 36 33 56t50 20zM372 550q57 0 103 -19t75.5 -55.5t41 -88.5t-0.5 -118q-12 -65 -41 -116
t-71 -86.5t-94 -54.5t-109 -19q-58 0 -104 19t-76 55.5t-41.5 88.5t0.5 118q12 65 41.5 116t71.5 86.5t94.5 54.5t109.5 19zM365 510q-42 0 -84.5 -14t-79 -43t-63 -74t-37.5 -107t0 -107t37 -74.5t63.5 -43.5t79.5 -14q43 0 85.5 14t78.5 43.5t62.5 74.5t37.5 107t0 107
t-36.5 74t-63 43t-80.5 14z" />
    <glyph glyph-name="odieresis" unicode="&#xf6;" horiz-adv-x="646" 
d="M278 663q3 15 15.5 26t28.5 11q15 0 24 -11t6 -26q-2 -15 -15 -26t-28 -11q-16 0 -24.5 11t-6.5 26zM424 663q2 15 14.5 26t28.5 11q15 0 23.5 -11t6.5 -26q-3 -15 -15.5 -26t-27.5 -11q-16 0 -24.5 11t-5.5 26zM372 550q57 0 103 -19t75.5 -55.5t41 -88.5t-0.5 -118
q-12 -65 -41 -116t-71 -86.5t-94 -54.5t-109 -19q-58 0 -104 19t-76 55.5t-41.5 88.5t0.5 118q12 65 41.5 116t71.5 86.5t94.5 54.5t109.5 19zM365 510q-42 0 -84.5 -14t-79 -43t-63 -74t-37.5 -107t0 -107t37 -74.5t63.5 -43.5t79.5 -14q43 0 85.5 14t78.5 43.5t62.5 74.5
t37.5 107t0 107t-36.5 74t-63 43t-80.5 14z" />
    <glyph glyph-name="divide" unicode="&#xf7;" horiz-adv-x="584" 
d="M372 626l-12 -69h-71l12 69h71zM550 396l-7 -41h-509l7 41h509zM296 196l-12 -69h-71l12 69h71z" />
    <glyph glyph-name="oslash" unicode="&#xf8;" horiz-adv-x="644" 
d="M549 470q27 -36 37 -86.5t-1 -114.5q-12 -65 -41 -116t-71 -86.5t-94 -54.5t-109 -19q-109 0 -170 64l-62 -57h-32l80 73q-28 36 -38 86.5t1 114.5q12 65 41.5 116t71.5 86.5t94.5 54.5t109.5 19q108 0 169 -63l61 56h32zM95 272q-10 -55 -2.5 -96.5t27.5 -70.5l381 350
q-26 28 -63 41.5t-79 13.5t-84.5 -14t-79 -43t-63 -74t-37.5 -107zM539 272q10 55 2.5 96t-27.5 70l-380 -350q26 -28 62.5 -41.5t78.5 -13.5q43 0 85.5 14t78.5 43.5t62.5 74.5t37.5 107z" />
    <glyph glyph-name="ugrave" unicode="&#xf9;" horiz-adv-x="610" 
d="M453 594l-130 96l19 29l124 -103zM578 543l-95 -543h-46l25 142q-18 -39 -43.5 -68t-56 -48t-65 -28t-69.5 -9q-45 0 -81.5 14t-61 43t-33.5 74t2 107l56 316h44l-55 -315q-17 -100 24 -150t124 -50q42 0 80.5 13.5t69.5 41.5t53 71t32 101l51 288h45z" />
    <glyph glyph-name="uacute" unicode="&#xfa;" horiz-adv-x="610" 
d="M298 597l-9 19l157 103l13 -27zM578 543l-95 -543h-46l25 142q-18 -39 -43.5 -68t-56 -48t-65 -28t-69.5 -9q-45 0 -81.5 14t-61 43t-33.5 74t2 107l56 316h44l-55 -315q-17 -100 24 -150t124 -50q42 0 80.5 13.5t69.5 41.5t53 71t32 101l51 288h45z" />
    <glyph glyph-name="ucircumflex" unicode="&#xfb;" horiz-adv-x="610" 
d="M264 597l-10 23l139 80l111 -80l-17 -23l-99 71zM578 543l-95 -543h-46l25 142q-18 -39 -43.5 -68t-56 -48t-65 -28t-69.5 -9q-45 0 -81.5 14t-61 43t-33.5 74t2 107l56 316h44l-55 -315q-17 -100 24 -150t124 -50q42 0 80.5 13.5t69.5 41.5t53 71t32 101l51 288h45z" />
    <glyph glyph-name="udieresis" unicode="&#xfc;" horiz-adv-x="611" 
d="M283 626q-16 0 -24.5 11t-6.5 26q3 15 15.5 26t28.5 11q15 0 24 -11t6 -26q-2 -15 -15 -26t-28 -11zM428 626q-16 0 -24.5 11t-5.5 26q2 15 14.5 26t28.5 11q15 0 23.5 -11t6.5 -26q-3 -15 -15.5 -26t-27.5 -11zM578 543l-95 -543h-46l25 142q-18 -39 -43.5 -68t-56 -48
t-65 -28t-69.5 -9q-45 0 -81.5 14t-61 43t-33.5 74t2 107l56 316h44l-55 -315q-17 -100 24 -150t124 -50q42 0 80.5 13.5t69.5 41.5t53 71t32 101l51 288h45z" />
    <glyph glyph-name="yacute" unicode="&#xfd;" horiz-adv-x="524" 
d="M416 692l-161 -95l-9 19l157 103zM106 543l119 -483l273 483h50l-456 -799h-52l150 259l-134 540h50z" />
    <glyph glyph-name="thorn" unicode="&#xfe;" horiz-adv-x="672" 
d="M409 550q58 0 102.5 -19.5t72.5 -55.5t38 -87.5t-1 -116.5t-39.5 -116.5t-69 -87.5t-91.5 -55t-108 -19q-91 0 -143 46.5t-61 120.5l-73 -416h-44l175 996h45l-63 -355q17 36 43 66.5t59.5 52t73 34t84.5 12.5zM311 33q50 0 94 16t78.5 46.5t58 75t33.5 100.5t2 100.5
t-32 75.5t-62 47t-88 16q-48 0 -92 -17t-79.5 -48t-60 -75t-34.5 -98q-10 -55 -0.5 -99t34 -75t62.5 -48t86 -17z" />
    <glyph glyph-name="ydieresis" unicode="&#xff;" horiz-adv-x="525" 
d="M210 663q3 15 15.5 26t28.5 11q15 0 24 -11t6 -26q-2 -15 -15 -26t-28 -11q-16 0 -24.5 11t-6.5 26zM356 663q2 15 14.5 26t28.5 11q15 0 23.5 -11t6.5 -26q-3 -15 -15.5 -26t-27.5 -11q-16 0 -24.5 11t-5.5 26zM106 543l119 -483l273 483h50l-456 -799h-52l150 259
l-134 540h50z" />
    <glyph glyph-name="Amacron" unicode="&#x100;" horiz-adv-x="623" 
d="M572 851l-7 -35h-324l6 35h325zM397 686l139 -686h-50l-36 183h-334l-101 -183h-49l381 686h50zM443 220l-80 411l-227 -411h307z" />
    <glyph glyph-name="amacron" unicode="&#x101;" horiz-adv-x="672" 
d="M553 689l-7 -35h-324l6 35h325zM362 550q46 0 82 -12.5t62 -35t41.5 -53.5t19.5 -68l29 162h44l-96 -543h-44l28 162q-17 -37 -43 -68t-59.5 -53.5t-74 -35t-85.5 -12.5q-58 0 -102.5 19.5t-72 55.5t-37.5 88t1 118q12 65 40 116t68.5 86.5t91 54.5t107.5 19zM366 510
q-51 0 -95 -16.5t-78.5 -47t-58 -74.5t-33.5 -100q-20 -112 29.5 -175.5t151.5 -63.5q48 0 92 17t79.5 48t60 75.5t34.5 98.5q9 54 0 98t-33.5 75t-62.5 48t-86 17z" />
    <glyph glyph-name="Abreve" unicode="&#x102;" horiz-adv-x="623" 
d="M389 776q-32 0 -53.5 9.5t-33.5 25.5t-16 36t0 41l1 5h28q-7 -41 13.5 -63t66.5 -22t74 22t35 63h28l-1 -5q-4 -21 -14.5 -41t-28.5 -36t-42.5 -25.5t-56.5 -9.5zM450 183h-334l-101 -183h-49l381 686h50l139 -686h-50zM443 220l-80 411l-227 -411h307z" />
    <glyph glyph-name="abreve" unicode="&#x103;" horiz-adv-x="673" 
d="M388 614q-32 0 -53.5 9.5t-33.5 25.5t-16 36t0 41l1 5h28q-7 -41 13.5 -63t66.5 -22t74 22t35 63h28l-1 -5q-4 -21 -14.5 -41t-28.5 -36t-42.5 -25.5t-56.5 -9.5zM362 550q46 0 82 -12.5t62 -35t41.5 -53.5t19.5 -68l29 162h44l-96 -543h-44l28 162q-17 -37 -43 -68
t-59.5 -53.5t-74 -35t-85.5 -12.5q-58 0 -102.5 19.5t-72 55.5t-37.5 88t1 118q12 65 40 116t68.5 86.5t91 54.5t107.5 19zM366 510q-51 0 -95 -16.5t-78.5 -47t-58 -74.5t-33.5 -100q-20 -112 29.5 -175.5t151.5 -63.5q48 0 92 17t79.5 48t60 75.5t34.5 98.5q9 54 0 98
t-33.5 75t-62.5 48t-86 17z" />
    <glyph glyph-name="Aogonek" unicode="&#x104;" horiz-adv-x="623" 
d="M559 -162l-6 -32h-80q-57 0 -83.5 27t-18.5 72q7 38 37.5 64.5t89.5 31.5l-36 182h-334l-101 -183h-49l381 686h50l139 -684l-6 -29h-37q-40 0 -66.5 -17.5t-31.5 -49.5q-6 -32 14 -50t61 -18h77zM455 220l-81 409l-226 -409h307z" />
    <glyph glyph-name="aogonek" unicode="&#x105;" horiz-adv-x="672" 
d="M407 -83q-6 -35 14 -54.5t60 -19.5h78l-6 -31h-80q-57 0 -83.5 29t-18.5 75q7 41 40.5 66.5t90.5 26.5l26 153q-17 -37 -43 -68t-59.5 -53.5t-74 -35t-85.5 -12.5q-58 0 -102.5 19.5t-72 55.5t-37.5 88t1 118q12 65 40 116t68.5 86.5t91 54.5t107.5 19q46 0 82 -12.5
t62 -35t41.5 -53.5t19.5 -68l29 162h44l-94 -534h2l-6 -30h-37q-40 0 -66.5 -16.5t-31.5 -45.5zM282 33q48 0 92 17t79.5 48t60 75.5t34.5 98.5q9 54 0 98t-33.5 75t-62.5 48t-86 17q-51 0 -95 -16.5t-78.5 -47t-58 -74.5t-33.5 -100q-20 -112 29.5 -175.5t151.5 -63.5z" />
    <glyph glyph-name="Cacute" unicode="&#x106;" horiz-adv-x="767" 
d="M566 854l-161 -95l-9 19l157 103zM450 712q65 0 114.5 -16t84.5 -45t56.5 -70.5t29.5 -91.5h-47q-7 39 -26 72t-49.5 57.5t-73 38t-97.5 13.5q-59 0 -114.5 -22t-101 -63t-78 -100t-45.5 -133t-1.5 -132.5t42.5 -99.5t79 -63t108 -22q55 0 102 13.5t86 37.5t69.5 57
t51.5 72h47q-52 -100 -143.5 -161t-219.5 -61q-73 0 -129.5 26.5t-91.5 74t-48 113.5t1 145t50 145t88 114t117.5 74.5t138.5 26.5z" />
    <glyph glyph-name="cacute" unicode="&#x107;" horiz-adv-x="627" 
d="M467 692l-161 -95l-9 19l157 103zM367 550q53 0 94 -14.5t69 -40t42 -61.5t14 -79h-47q1 73 -48 114.5t-131 41.5q-42 0 -84 -14t-77 -43.5t-61 -74.5t-37 -107t-1 -107t35 -74.5t62 -43.5t79 -14q82 0 145 41.5t88 114.5h47q-15 -43 -41.5 -79.5t-63.5 -62t-82.5 -40
t-98.5 -14.5q-57 0 -102.5 19t-74 55.5t-39.5 88.5t1 118q12 65 40.5 116t70 86.5t93 54.5t108.5 19z" />
    <glyph glyph-name="Cdotaccent" unicode="&#x10a;" horiz-adv-x="767" 
d="M440 825q3 15 16 26t28 11t24 -11t6 -26q-2 -15 -15 -26t-28 -11t-24 11t-7 26zM450 712q65 0 114.5 -16t84.5 -45t56.5 -70.5t29.5 -91.5h-47q-7 39 -26 72t-49.5 57.5t-73 38t-97.5 13.5q-59 0 -114.5 -22t-101 -63t-78 -100t-45.5 -133t-1.5 -132.5t42.5 -99.5t79 -63
t108 -22q55 0 102 13.5t86 37.5t69.5 57t51.5 72h47q-52 -100 -143.5 -161t-219.5 -61q-73 0 -129.5 26.5t-91.5 74t-48 113.5t1 145t50 145t88 114t117.5 74.5t138.5 26.5z" />
    <glyph glyph-name="cdotaccent" unicode="&#x10b;" horiz-adv-x="626" 
d="M339 663q3 15 16 26t28 11t24 -11t6 -26q-2 -15 -15 -26t-28 -11t-24 11t-7 26zM367 550q53 0 94 -14.5t69 -40t42 -61.5t14 -79h-47q1 73 -48 114.5t-131 41.5q-42 0 -84 -14t-77 -43.5t-61 -74.5t-37 -107t-1 -107t35 -74.5t62 -43.5t79 -14q82 0 145 41.5t88 114.5h47
q-15 -43 -41.5 -79.5t-63.5 -62t-82.5 -40t-98.5 -14.5q-57 0 -102.5 19t-74 55.5t-39.5 88.5t1 118q12 65 40.5 116t70 86.5t93 54.5t108.5 19z" />
    <glyph glyph-name="Ccaron" unicode="&#x10c;" horiz-adv-x="767" 
d="M608 857l-143 -81l-115 81l7 36l114 -82l143 82zM450 712q65 0 114.5 -16t84.5 -45t56.5 -70.5t29.5 -91.5h-47q-7 39 -26 72t-49.5 57.5t-73 38t-97.5 13.5q-59 0 -114.5 -22t-101 -63t-78 -100t-45.5 -133t-1.5 -132.5t42.5 -99.5t79 -63t108 -22q55 0 102 13.5
t86 37.5t69.5 57t51.5 72h47q-52 -100 -143.5 -161t-219.5 -61q-73 0 -129.5 26.5t-91.5 74t-48 113.5t1 145t50 145t88 114t117.5 74.5t138.5 26.5z" />
    <glyph glyph-name="ccaron" unicode="&#x10d;" horiz-adv-x="626" 
d="M507 695l-143 -81l-115 81l7 36l114 -82l143 82zM367 550q53 0 94 -14.5t69 -40t42 -61.5t14 -79h-47q1 73 -48 114.5t-131 41.5q-42 0 -84 -14t-77 -43.5t-61 -74.5t-37 -107t-1 -107t35 -74.5t62 -43.5t79 -14q82 0 145 41.5t88 114.5h47q-15 -43 -41.5 -79.5
t-63.5 -62t-82.5 -40t-98.5 -14.5q-57 0 -102.5 19t-74 55.5t-39.5 88.5t1 118q12 65 40.5 116t70 86.5t93 54.5t108.5 19z" />
    <glyph glyph-name="Dcaron" unicode="&#x10e;" horiz-adv-x="707" 
d="M589 857l-143 -81l-115 81l7 36l114 -82l143 82zM651 353q-15 -82 -50.5 -147.5t-90 -111.5t-128.5 -70t-165 -24h-198l124 705h198q91 0 156.5 -24t104.5 -69.5t51.5 -111t-2.5 -147.5zM222 41q164 0 261 83.5t122 228.5q13 72 2.5 130t-44 98.5t-91.5 62t-140 21.5
h-151l-110 -624h151z" />
    <glyph glyph-name="dcaron" unicode="&#x10f;" horiz-adv-x="694" 
d="M661 740l-131 -740h-44l28 162q-17 -37 -43 -68t-59.5 -53.5t-74 -35t-86.5 -12.5q-57 0 -101 19.5t-72 55.5t-38 88t1 118q12 65 40 116t68.5 86.5t91 54.5t107.5 19q46 0 82 -12.5t62 -35t41.5 -53.5t19.5 -68l63 359h45zM784 740q0 -23 -2 -42t-5 -35
q-8 -51 -33 -70.5t-62 -19.5l4 27q26 0 38.5 12.5t16.5 36.5l6 26h-42l11 65h68zM352 510q-51 0 -95 -16.5t-78.5 -47t-58 -74.5t-33.5 -100q-20 -112 29.5 -175.5t151.5 -63.5q48 0 92 17t79.5 48t60 75.5t34.5 98.5q9 54 0 98t-33.5 75t-62.5 48t-86 17z" />
    <glyph glyph-name="Dcroat" unicode="&#x110;" horiz-adv-x="742" 
d="M376 705q91 0 156.5 -24t104.5 -69.5t51.5 -111t-2.5 -147.5t-50.5 -147.5t-90 -111.5t-128.5 -70t-165 -24h-198l59 334h-108l7 37h107l59 334h198zM640 353q13 72 2.5 130t-44 98.5t-91.5 62t-140 21.5h-151l-52 -294h220l-6 -37h-220l-52 -293h151q164 0 261 83.5
t122 228.5z" />
    <glyph glyph-name="dcroat" unicode="&#x111;" horiz-adv-x="666" 
d="M707 643h-64l-114 -643h-44l28 162q-17 -37 -43 -68t-59.5 -53.5t-74 -35t-86.5 -12.5q-57 0 -101 19.5t-72 55.5t-38 88t1 118q12 65 40 116t68.5 86.5t91 54.5t107.5 19q46 0 82 -12.5t62 -35t41.5 -53.5t19.5 -68l46 262h-190l5 28h190l12 69h45l-12 -69h64zM533 272
q9 54 0 98t-33.5 75t-62.5 48t-86 17q-51 0 -95 -16.5t-78.5 -47t-58 -74.5t-33.5 -100q-20 -112 29.5 -175.5t151.5 -63.5q48 0 92 17t79.5 48t60 75.5t34.5 98.5z" />
    <glyph glyph-name="Emacron" unicode="&#x112;" horiz-adv-x="489" 
d="M520 851l-7 -35h-324l6 35h325zM181 667l-52 -296h285l-7 -36h-284l-53 -297h315l-6 -38h-360l124 705h360l-7 -38h-315z" />
    <glyph glyph-name="emacron" unicode="&#x113;" horiz-adv-x="626" 
d="M537 654h-324l6 35h325zM367 550q62 0 106 -20t70 -53.5t34.5 -76.5t0.5 -88q-3 -19 -5.5 -29.5t-7.5 -23.5h-468q-9 -60 2 -103t36.5 -70.5t62 -41t77.5 -13.5q81 0 144.5 41.5t88.5 113.5h47q-15 -42 -41.5 -77.5t-63 -61t-82.5 -40t-99 -14.5q-57 0 -102 19t-73.5 55
t-39.5 88t1 118q12 65 40.5 116.5t70 87t93 54.5t108.5 19zM530 286q14 59 4.5 102t-34.5 71t-61.5 41t-77.5 13q-42 0 -83.5 -13.5t-76.5 -41t-61.5 -70.5t-37.5 -102h428z" />
    <glyph glyph-name="Ebreve" unicode="&#x114;" horiz-adv-x="489" 
d="M325 776q-32 0 -53.5 9.5t-33.5 25.5t-16 36t0 41l1 5h28q-7 -41 13.5 -63t66.5 -22t74 22t35 63h28l-1 -5q-4 -21 -14.5 -41t-28.5 -36t-42.5 -25.5t-56.5 -9.5zM181 667l-52 -296h285l-7 -36h-284l-53 -297h315l-6 -38h-360l124 705h360l-7 -38h-315z" />
    <glyph glyph-name="ebreve" unicode="&#x115;" horiz-adv-x="627" 
d="M365 614q-32 0 -53.5 9.5t-33.5 25.5t-16 36t0 41l1 5h28q-7 -41 13.5 -63t66.5 -22t74 22t35 63h28l-1 -5q-4 -21 -14.5 -41t-28.5 -36t-42.5 -25.5t-56.5 -9.5zM367 550q62 0 106 -20t70 -53.5t34.5 -76.5t0.5 -88q-3 -19 -5.5 -29.5t-7.5 -23.5h-468q-9 -60 2 -103
t36.5 -70.5t62 -41t77.5 -13.5q81 0 144.5 41.5t88.5 113.5h47q-15 -42 -41.5 -77.5t-63 -61t-82.5 -40t-99 -14.5q-57 0 -102 19t-73.5 55t-39.5 88t1 118q12 65 40.5 116.5t70 87t93 54.5t108.5 19zM530 286q14 59 4.5 102t-34.5 71t-61.5 41t-77.5 13q-42 0 -83.5 -13.5
t-76.5 -41t-61.5 -70.5t-37.5 -102h428z" />
    <glyph glyph-name="Edotaccent" unicode="&#x116;" horiz-adv-x="489" 
d="M316 825q3 15 16 26t28 11t24 -11t6 -26q-2 -15 -15 -26t-28 -11t-24 11t-7 26zM181 667l-52 -296h285l-7 -36h-284l-53 -297h315l-6 -38h-360l124 705h360l-7 -38h-315z" />
    <glyph glyph-name="edotaccent" unicode="&#x117;" horiz-adv-x="626" 
d="M371 626q-15 0 -24 11t-7 26q3 15 16 26t28 11t24 -11t6 -26q-2 -15 -15 -26t-28 -11zM367 550q62 0 106 -20t70 -53.5t34.5 -76.5t0.5 -88q-3 -19 -5.5 -29.5t-7.5 -23.5h-468q-9 -60 2 -103t36.5 -70.5t62 -41t77.5 -13.5q81 0 144.5 41.5t88.5 113.5h47
q-15 -42 -41.5 -77.5t-63 -61t-82.5 -40t-99 -14.5q-57 0 -102 19t-73.5 55t-39.5 88t1 118q12 65 40.5 116.5t70 87t93 54.5t108.5 19zM530 286q14 59 4.5 102t-34.5 71t-61.5 41t-77.5 13q-42 0 -83.5 -13.5t-76.5 -41t-61.5 -70.5t-37.5 -102h428z" />
    <glyph glyph-name="Eogonek" unicode="&#x118;" horiz-adv-x="489" 
d="M181 667l-52 -296h285l-7 -36h-284l-53 -297h315l-6 -38h-3l-2 -12h-37q-40 0 -66.5 -16.5t-31.5 -45.5q-6 -35 14 -54.5t60 -19.5h78l-6 -31h-80q-57 0 -83.5 29t-18.5 75q8 50 54 75h-238l124 705h360l-7 -38h-315z" />
    <glyph glyph-name="eogonek" unicode="&#x119;" horiz-adv-x="627" 
d="M378 550q62 0 105.5 -20t69.5 -53.5t35 -76.5t1 -88q-4 -19 -6.5 -29.5t-7.5 -23.5h-467q-9 -60 2 -103t36.5 -70.5t61.5 -41t77 -13.5q82 0 145 41.5t88 113.5h47q-26 -76 -90 -127.5t-154 -62.5q-14 -2 -20 -8.5t-8 -17.5q-5 -26 15 -42.5t62 -16.5h75l-5 -32h-79
q-57 0 -83.5 27t-18.5 71l3 17q-53 3 -95 23t-68 56t-35.5 86t1.5 113q12 65 40.5 116.5t70 87.5t93.5 55t109 19zM540 286q14 59 4.5 102t-34.5 71t-61.5 41t-77.5 13q-42 0 -83.5 -13.5t-76.5 -41t-61.5 -70.5t-37.5 -102h428z" />
    <glyph glyph-name="Ecaron" unicode="&#x11a;" horiz-adv-x="489" 
d="M484 857l-143 -81l-115 81l7 36l114 -82l143 82zM181 667l-52 -296h285l-7 -36h-284l-53 -297h315l-6 -38h-360l124 705h360l-7 -38h-315z" />
    <glyph glyph-name="ecaron" unicode="&#x11b;" horiz-adv-x="626" 
d="M365 614l-115 81l7 36l114 -82l143 82l-6 -36zM367 550q62 0 106 -20t70 -53.5t34.5 -76.5t0.5 -88q-3 -19 -5.5 -29.5t-7.5 -23.5h-468q-9 -60 2 -103t36.5 -70.5t62 -41t77.5 -13.5q81 0 144.5 41.5t88.5 113.5h47q-15 -42 -41.5 -77.5t-63 -61t-82.5 -40t-99 -14.5
q-57 0 -102 19t-73.5 55t-39.5 88t1 118q12 65 40.5 116.5t70 87t93 54.5t108.5 19zM530 286q14 59 4.5 102t-34.5 71t-61.5 41t-77.5 13q-42 0 -83.5 -13.5t-76.5 -41t-61.5 -70.5t-37.5 -102h428z" />
    <glyph glyph-name="Gbreve" unicode="&#x11e;" horiz-adv-x="787" 
d="M473 776q-32 0 -53.5 9.5t-33.5 25.5t-16 36t0 41l1 5h28q-7 -41 13.5 -63t66.5 -22t74 22t35 63h28l-1 -5q-4 -21 -14.5 -41t-28.5 -36t-42.5 -25.5t-56.5 -9.5zM458 711q60 0 107.5 -16t82 -45t56.5 -69.5t31 -89.5h-47q-7 39 -26.5 71.5t-49.5 56t-70.5 37t-90.5 13.5
q-61 0 -118.5 -22t-104 -63t-79.5 -99.5t-46 -132.5q-13 -75 -1 -134t44.5 -100.5t82.5 -63t113 -21.5q59 0 114.5 20.5t101.5 58.5t80 93t49 125h-312l6 35h352l-6 -34q-15 -74 -51.5 -136.5t-88 -107.5t-116.5 -70t-139 -25q-75 0 -132.5 26.5t-94 74.5t-50 114.5
t0.5 145.5t50.5 144.5t90 113t120 74t141.5 26.5z" />
    <glyph glyph-name="gbreve" unicode="&#x11f;" horiz-adv-x="672" 
d="M388 614q-32 0 -53.5 9.5t-33.5 25.5t-16 36t0 41l1 5h28q-7 -41 13.5 -63t66.5 -22t74 22t35 63h28l-1 -5q-4 -21 -14.5 -41t-28.5 -36t-42.5 -25.5t-56.5 -9.5zM269 -8q-57 0 -101.5 19.5t-73 56t-38.5 88.5t2 118q11 65 39.5 116t69 87t91.5 55t108 19q92 0 144.5 -48
t59.5 -122l29 162h43l-99 -559q-10 -58 -37.5 -104.5t-66 -78.5t-86 -49.5t-97.5 -17.5q-105 0 -161.5 51t-66.5 133h45q10 -65 55 -104.5t133 -39.5q42 0 81.5 14t71.5 41t54.5 66t31.5 89l32 178q-17 -36 -43.5 -67.5t-60 -54t-74 -35.5t-85.5 -13zM369 511
q-51 0 -95 -16.5t-78.5 -47t-58 -75t-33.5 -100.5q-10 -55 -2 -99.5t32 -75t62 -47t89 -16.5q48 0 92 17t79.5 48t60 75t34.5 98q9 54 0 98t-33.5 75.5t-62.5 48.5t-86 17z" />
    <glyph glyph-name="Gdotaccent" unicode="&#x120;" horiz-adv-x="787" 
d="M449 825q3 15 16 26t28 11t24 -11t6 -26q-2 -15 -15 -26t-28 -11t-24 11t-7 26zM458 711q60 0 107.5 -16t82 -45t56.5 -69.5t31 -89.5h-47q-7 39 -26.5 71.5t-49.5 56t-70.5 37t-90.5 13.5q-61 0 -118.5 -22t-104 -63t-79.5 -99.5t-46 -132.5q-13 -75 -1 -134
t44.5 -100.5t82.5 -63t113 -21.5q59 0 114.5 20.5t101.5 58.5t80 93t49 125h-312l6 35h352l-6 -34q-15 -74 -51.5 -136.5t-88 -107.5t-116.5 -70t-139 -25q-75 0 -132.5 26.5t-94 74.5t-50 114.5t0.5 145.5t50.5 144.5t90 113t120 74t141.5 26.5z" />
    <glyph glyph-name="gdotaccent" unicode="&#x121;" horiz-adv-x="672" 
d="M344 663q3 15 16 26t28 11t24 -11t6 -26q-2 -15 -15 -26t-28 -11t-24 11t-7 26zM269 -8q-57 0 -101.5 19.5t-73 56t-38.5 88.5t2 118q11 65 39.5 116t69 87t91.5 55t108 19q92 0 144.5 -48t59.5 -122l29 162h43l-99 -559q-10 -58 -37.5 -104.5t-66 -78.5t-86 -49.5
t-97.5 -17.5q-105 0 -161.5 51t-66.5 133h45q10 -65 55 -104.5t133 -39.5q42 0 81.5 14t71.5 41t54.5 66t31.5 89l32 178q-17 -36 -43.5 -67.5t-60 -54t-74 -35.5t-85.5 -13zM369 511q-51 0 -95 -16.5t-78.5 -47t-58 -75t-33.5 -100.5q-10 -55 -2 -99.5t32 -75t62 -47
t89 -16.5q48 0 92 17t79.5 48t60 75t34.5 98q9 54 0 98t-33.5 75.5t-62.5 48.5t-86 17z" />
    <glyph glyph-name="Gcommaaccent" unicode="&#x122;" horiz-adv-x="788" 
d="M460 711q60 0 107.5 -16t82 -45t56.5 -69.5t31 -89.5h-47q-7 39 -26.5 71.5t-49.5 56t-70.5 37t-90.5 13.5q-61 0 -118.5 -22t-104 -63t-79.5 -99.5t-46 -132.5q-13 -75 -1 -134t44.5 -100.5t82.5 -63t113 -21.5q59 0 114.5 20.5t101.5 58.5t80 93t49 125h-312l6 35h352
l-6 -34q-15 -74 -51.5 -136.5t-88 -107.5t-116.5 -70t-139 -25q-75 0 -132.5 26.5t-94 74.5t-50 114.5t0.5 145.5t50.5 144.5t90 113t120 74t141.5 26.5zM376 -56q2 -24 -3 -44q-10 -56 -34.5 -76.5t-59.5 -20.5l4 25q25 0 37.5 15t17.5 42l1 7h-36l9 52h64z" />
    <glyph glyph-name="gcommaaccent" unicode="&#x123;" horiz-adv-x="672" 
d="M355 594q0 23 2 42t5 35q9 51 33.5 70.5t61.5 19.5l-5 -27q-26 0 -38 -12.5t-17 -36.5l-5 -26h43l-12 -65h-68zM256 -8q-57 0 -101.5 19.5t-73 56t-38.5 88.5t2 118q11 65 39.5 116t69 87t91.5 55t108 19q92 0 144.5 -48t59.5 -122l29 162h43l-99 -559
q-10 -58 -37.5 -104.5t-66 -78.5t-86 -49.5t-97.5 -17.5q-105 0 -161.5 51t-66.5 133h45q10 -65 55 -104.5t133 -39.5q42 0 81.5 14t71.5 41t54.5 66t31.5 89l32 178q-17 -36 -43.5 -67.5t-60 -54t-74 -35.5t-85.5 -13zM356 511q-51 0 -95 -16.5t-78.5 -47t-58 -75
t-33.5 -100.5q-10 -55 -2 -99.5t32 -75t62 -47t89 -16.5q48 0 92 17t79.5 48t60 75t34.5 98q9 54 0 98t-33.5 75.5t-62.5 48.5t-86 17z" />
    <glyph glyph-name="Itilde" unicode="&#x128;" horiz-adv-x="207" 
d="M149 843q19 0 30.5 -7.5t21.5 -17t21 -17t28 -7.5q16 0 30 11.5t21 34.5h27q-9 -33 -32 -53.5t-52 -20.5q-19 0 -31.5 7.5t-23 16.5t-21 16.5t-25.5 7.5q-35 0 -50 -47h-27q12 36 33 56t50 20zM188 705l-124 -705h-45l124 705h45z" />
    <glyph glyph-name="itilde" unicode="&#x129;" horiz-adv-x="205" 
d="M120 681q19 0 30.5 -7.5t21.5 -17t21 -17t28 -7.5q16 0 30 11.5t21 34.5h27q-9 -33 -32 -53.5t-52 -20.5q-19 0 -31.5 7.5t-23 16.5t-21 16.5t-25.5 7.5q-35 0 -50 -47h-27q12 36 33 56t50 20zM173 543l-96 -543h-45l96 543h45z" />
    <glyph glyph-name="Imacron" unicode="&#x12a;" horiz-adv-x="207" 
d="M364 851l-7 -35h-324l6 35h325zM188 705l-124 -705h-45l124 705h45z" />
    <glyph glyph-name="imacron" unicode="&#x12b;" horiz-adv-x="208" 
d="M335 689l-7 -35h-324l6 35h325zM173 543l-96 -543h-45l96 543h45z" />
    <glyph glyph-name="Ibreve" unicode="&#x12c;" horiz-adv-x="207" 
d="M183 776q-32 0 -53.5 9.5t-33.5 25.5t-16 36t0 41l1 5h28q-7 -41 13.5 -63t66.5 -22t74 22t35 63h28l-1 -5q-4 -21 -14.5 -41t-28.5 -36t-42.5 -25.5t-56.5 -9.5zM188 705l-124 -705h-45l124 705h45z" />
    <glyph glyph-name="ibreve" unicode="&#x12d;" horiz-adv-x="205" 
d="M154 614q-32 0 -53.5 9.5t-33.5 25.5t-16 36t0 41l1 5h28q-7 -41 13.5 -63t66.5 -22t74 22t35 63h28l-1 -5q-4 -21 -14.5 -41t-28.5 -36t-42.5 -25.5t-56.5 -9.5zM173 543l-96 -543h-45l96 543h45z" />
    <glyph glyph-name="Iogonek" unicode="&#x12e;" horiz-adv-x="206" 
d="M-77 -83q-6 -35 14 -54.5t60 -19.5h78l-6 -31h-80q-57 0 -83.5 29t-18.5 75q7 42 41 67.5t93 25.5l122 696h45l-124 -705h-2l-4 -21h-37q-40 0 -66.5 -16.5t-31.5 -45.5z" />
    <glyph glyph-name="iogonek" unicode="&#x12f;" horiz-adv-x="205" 
d="M185 744q17 0 26 -10t6 -27t-15.5 -27.5t-29.5 -10.5t-26 10.5t-6 27.5t15.5 27t29.5 10zM33 -21q-40 0 -66.5 -16.5t-31.5 -45.5q-6 -35 14 -54.5t60 -19.5h78l-6 -31h-80q-57 0 -83.5 29t-18.5 75q7 42 41 67.5t93 25.5l94 534h45l-96 -543h-2l-4 -21h-37z" />
    <glyph glyph-name="Idotaccent" unicode="&#x130;" horiz-adv-x="207" 
d="M160 825q3 15 16 26t28 11t24 -11t6 -26q-2 -15 -15 -26t-28 -11t-24 11t-7 26zM188 705l-124 -705h-45l124 705h45z" />
    <glyph glyph-name="dotlessi" unicode="&#x131;" horiz-adv-x="205" 
d="M173 543l-96 -543h-45l96 543h45z" />
    <glyph glyph-name="Kcommaaccent" unicode="&#x136;" horiz-adv-x="526" 
d="M157 353l283 -353h-57l-266 334l-59 -334h-45l124 705h45l-59 -335l384 335h57zM239 -56q2 -24 -3 -44q-10 -56 -35 -76.5t-59 -20.5l4 25q25 0 37.5 15t17.5 42l1 7h-36l9 52h64z" />
    <glyph glyph-name="kcommaaccent" unicode="&#x137;" horiz-adv-x="430" 
d="M154 276l215 -276h-59l-191 253l-44 -253h-46l131 740h45l-77 -439l272 242h59zM127 -56h65q0 -11 -0.5 -22.5t-2.5 -21.5q-10 -56 -35 -76.5t-60 -20.5l5 25q24 0 36.5 15t17.5 42l1 7h-36z" />
    <glyph glyph-name="Lacute" unicode="&#x139;" horiz-adv-x="409" 
d="M387 854l-161 -95l-9 19l157 103zM70 37h263l-6 -37h-308l124 705h45z" />
    <glyph glyph-name="lacute" unicode="&#x13a;" horiz-adv-x="206" 
d="M195 656l-115 -656h-45l110 627l-50 -30l-9 19l65 42l14 82h45l-8 -48l41 27l13 -27z" />
    <glyph glyph-name="Lcommaaccent" unicode="&#x13b;" horiz-adv-x="410" 
d="M64 37h263l-6 -37h-308l124 705h45zM217 -56q1 -11 0 -22.5t-3 -21.5q-10 -56 -35 -76.5t-60 -20.5l5 25q24 0 36.5 15t17.5 42l2 7h-36l9 52h64z" />
    <glyph glyph-name="lcommaaccent" unicode="&#x13c;" horiz-adv-x="206" 
d="M205 740l-130 -740h-45l130 740h45zM76 -56q1 -11 0 -22.5t-3 -21.5q-10 -56 -35 -76.5t-60 -20.5l5 25q24 0 36.5 15t17.5 42l2 7h-36l9 52h64z" />
    <glyph glyph-name="Lcaron" unicode="&#x13d;" horiz-adv-x="418" 
d="M68 37h263l-6 -37h-308l124 705h45zM380 705q-1 -24 -3 -43t-4 -35q-9 -51 -33.5 -70.5t-61.5 -19.5l4 27q26 0 38.5 12.5t16.5 36.5l5 27h-42l11 65h69z" />
    <glyph glyph-name="lcaron" unicode="&#x13e;" horiz-adv-x="228" 
d="M208 740l-130 -740h-45l130 740h45zM333 740q0 -23 -2 -42t-4 -35q-9 -51 -34 -70.5t-62 -19.5l6 27q26 0 38 12.5t16 36.5l5 26h-42l11 65h68z" />
    <glyph glyph-name="Ldot" unicode="&#x13f;" horiz-adv-x="409" 
d="M70 37h263l-6 -37h-308l124 705h45zM265 352q3 15 16 26t28 11t24 -11t6 -26q-2 -15 -15 -26t-28 -11t-24 11t-7 26z" />
    <glyph glyph-name="ldot" unicode="&#x140;" horiz-adv-x="230" 
d="M210 740l-130 -740h-45l130 740h45zM194 370q3 15 16 26t28 11t24 -11t6 -26q-2 -15 -15 -26t-28 -11t-24 11t-7 26z" />
    <glyph glyph-name="Lslash" unicode="&#x141;" horiz-adv-x="428" 
d="M353 37l-7 -37h-308l60 341l-97 -40l8 46l97 40l56 318h45l-52 -298l162 66l-8 -46l-162 -66l-57 -324h263z" />
    <glyph glyph-name="lslash" unicode="&#x142;" horiz-adv-x="224" 
d="M243 504l-90 -42l-82 -462h-45l77 439l-89 -42l7 44l90 42l45 257h46l-41 -234l89 42z" />
    <glyph glyph-name="Nacute" unicode="&#x143;" horiz-adv-x="664" 
d="M514 854l-161 -95l-9 19l157 103zM521 0h-45l-301 628l-111 -628h-45l124 704h45l301 -628l111 628h45z" />
    <glyph glyph-name="nacute" unicode="&#x144;" horiz-adv-x="624" 
d="M305 597l-9 19l157 103l13 -27zM382 554q45 0 81.5 -14t61 -43t33.5 -73.5t-2 -106.5l-56 -317h-44l55 315q17 100 -24 150.5t-124 50.5q-42 0 -79.5 -13t-68 -40t-52.5 -68t-33 -96l-53 -299h-45l95 543h46l-25 -142q18 39 43.5 68t56.5 48t65 28t69 9z" />
    <glyph glyph-name="Ncommaaccent" unicode="&#x145;" horiz-adv-x="664" 
d="M516 0h-45l-301 628l-111 -628h-45l124 704h45l301 -628l111 628h45zM310 -56q2 -24 -3 -44q-10 -56 -34.5 -76.5t-59.5 -20.5l4 25q25 0 37.5 15t17.5 42l1 7h-36l9 52h64z" />
    <glyph glyph-name="ncommaaccent" unicode="&#x146;" horiz-adv-x="624" 
d="M379 554q45 0 81.5 -14t61 -43t33.5 -73.5t-2 -106.5l-56 -317h-44l55 315q17 100 -24 150.5t-124 50.5q-42 0 -79.5 -13t-68 -40t-52.5 -68t-33 -96l-53 -299h-45l95 543h46l-25 -142q18 39 43.5 68t56.5 48t65 28t69 9zM309 -56q2 -24 -3 -44q-10 -56 -35 -76.5
t-59 -20.5l4 25q25 0 37.5 15t17.5 42l1 7h-36l9 52h64z" />
    <glyph glyph-name="Ncaron" unicode="&#x147;" horiz-adv-x="664" 
d="M555 857l-143 -81l-115 81l7 36l114 -82l143 82zM521 0h-45l-301 628l-111 -628h-45l124 704h45l301 -628l111 628h45z" />
    <glyph glyph-name="ncaron" unicode="&#x148;" horiz-adv-x="625" 
d="M366 614l-115 81l7 36l114 -82l143 82l-6 -36zM382 554q45 0 81.5 -14t61 -43t33.5 -73.5t-2 -106.5l-56 -317h-44l55 315q17 100 -24 150.5t-124 50.5q-42 0 -79.5 -13t-68 -40t-52.5 -68t-33 -96l-53 -299h-45l95 543h46l-25 -142q18 39 43.5 68t56.5 48t65 28t69 9z
" />
    <glyph glyph-name="Omacron" unicode="&#x14c;" 
d="M656 851l-7 -35h-324l6 35h325zM455 711q75 0 133.5 -27t95 -75t50 -115t-0.5 -147q-14 -78 -50 -143.5t-88.5 -112.5t-119 -73t-140.5 -26q-76 0 -134 27t-95 75.5t-50 115.5t1 147q14 78 50 143t88.5 112t119 73t140.5 26zM450 670q-61 0 -118.5 -22t-104 -63
t-79.5 -99.5t-46 -132.5t-0.5 -133t44.5 -100.5t82 -63.5t112 -22t119 22t103.5 63t79.5 99.5t46 132.5t0.5 133.5t-44.5 100.5t-82 63t-112 22z" />
    <glyph glyph-name="omacron" unicode="&#x14d;" horiz-adv-x="646" 
d="M554 689l-7 -35h-324l6 35h325zM372 550q57 0 103 -19t75.5 -55.5t41 -88.5t-0.5 -118q-12 -65 -41 -116t-71 -86.5t-94 -54.5t-109 -19q-58 0 -104 19t-76 55.5t-41.5 88.5t0.5 118q12 65 41.5 116t71.5 86.5t94.5 54.5t109.5 19zM365 510q-42 0 -84.5 -14t-79 -43
t-63 -74t-37.5 -107t0 -107t37 -74.5t63.5 -43.5t79.5 -14q43 0 85.5 14t78.5 43.5t62.5 74.5t37.5 107t0 107t-36.5 74t-63 43t-80.5 14z" />
    <glyph glyph-name="Obreve" unicode="&#x14e;" 
d="M471 776q-32 0 -53.5 9.5t-33.5 25.5t-16 36t0 41l1 5h28q-7 -41 13.5 -63t66.5 -22t74 22t35 63h28l-1 -5q-4 -21 -14.5 -41t-28.5 -36t-42.5 -25.5t-56.5 -9.5zM455 711q75 0 133.5 -27t95 -75t50 -115t-0.5 -147q-14 -78 -50 -143.5t-88.5 -112.5t-119 -73t-140.5 -26
q-76 0 -134 27t-95 75.5t-50 115.5t1 147q14 78 50 143t88.5 112t119 73t140.5 26zM450 670q-61 0 -118.5 -22t-104 -63t-79.5 -99.5t-46 -132.5t-0.5 -133t44.5 -100.5t82 -63.5t112 -22t119 22t103.5 63t79.5 99.5t46 132.5t0.5 133.5t-44.5 100.5t-82 63t-112 22z" />
    <glyph glyph-name="obreve" unicode="&#x14f;" horiz-adv-x="646" 
d="M375 614q-32 0 -53.5 9.5t-33.5 25.5t-16 36t0 41l1 5h28q-7 -41 13.5 -63t66.5 -22t74 22t35 63h28l-1 -5q-4 -21 -14.5 -41t-28.5 -36t-42.5 -25.5t-56.5 -9.5zM372 550q57 0 103 -19t75.5 -55.5t41 -88.5t-0.5 -118q-12 -65 -41 -116t-71 -86.5t-94 -54.5t-109 -19
q-58 0 -104 19t-76 55.5t-41.5 88.5t0.5 118q12 65 41.5 116t71.5 86.5t94.5 54.5t109.5 19zM365 510q-42 0 -84.5 -14t-79 -43t-63 -74t-37.5 -107t0 -107t37 -74.5t63.5 -43.5t79.5 -14q43 0 85.5 14t78.5 43.5t62.5 74.5t37.5 107t0 107t-36.5 74t-63 43t-80.5 14z" />
    <glyph glyph-name="Ohungarumlaut" unicode="&#x150;" 
d="M425 763h-35l85 122h41zM550 763h-34l92 122h41zM455 711q75 0 133.5 -27t95 -75t50 -115t-0.5 -147q-14 -78 -50 -143.5t-88.5 -112.5t-119 -73t-140.5 -26q-76 0 -134 27t-95 75.5t-50 115.5t1 147q14 78 50 143t88.5 112t119 73t140.5 26zM450 670q-61 0 -118.5 -22
t-104 -63t-79.5 -99.5t-46 -132.5t-0.5 -133t44.5 -100.5t82 -63.5t112 -22t119 22t103.5 63t79.5 99.5t46 132.5t0.5 133.5t-44.5 100.5t-82 63t-112 22z" />
    <glyph glyph-name="ohungarumlaut" unicode="&#x151;" horiz-adv-x="646" 
d="M326 601h-35l85 122h41zM451 601h-34l92 122h41zM372 550q57 0 103 -19t75.5 -55.5t41 -88.5t-0.5 -118q-12 -65 -41 -116t-71 -86.5t-94 -54.5t-109 -19q-58 0 -104 19t-76 55.5t-41.5 88.5t0.5 118q12 65 41.5 116t71.5 86.5t94.5 54.5t109.5 19zM365 510
q-42 0 -84.5 -14t-79 -43t-63 -74t-37.5 -107t0 -107t37 -74.5t63.5 -43.5t79.5 -14q43 0 85.5 14t78.5 43.5t62.5 74.5t37.5 107t0 107t-36.5 74t-63 43t-80.5 14z" />
    <glyph glyph-name="OE" unicode="&#x152;" horiz-adv-x="1099" 
d="M740 371h284l-6 -36h-285l-52 -297h315l-7 -38h-360l38 215q-22 -51 -57 -92t-79.5 -70.5t-95.5 -45.5t-105 -16q-73 0 -130.5 27t-94 75t-50 114.5t0.5 146.5q14 79 50.5 144.5t89.5 113t119.5 73.5t140.5 26q54 0 100 -15.5t80 -45t54.5 -70.5t24.5 -92l38 217h360
l-6 -38h-315zM340 33q62 0 119 22t104 63t80 100t46 133t0.5 133.5t-44.5 100.5t-81.5 63t-111.5 22q-61 0 -118.5 -22t-104 -63t-79.5 -99.5t-46 -132.5q-13 -75 -1 -134t44.5 -100.5t82 -63.5t110.5 -22z" />
    <glyph glyph-name="oe" unicode="&#x153;" horiz-adv-x="1117" 
d="M857 550q62 0 106 -20t70 -53.5t34.5 -76.5t0.5 -88q-3 -19 -5.5 -29.5t-7.5 -23.5h-468q-9 -60 2 -103t36.5 -70.5t62 -41t77.5 -13.5q81 0 144.5 41.5t88.5 113.5h47q-15 -42 -41.5 -77.5t-63 -61t-82.5 -40t-99 -14.5q-88 0 -144.5 45.5t-65.5 129.5
q-40 -84 -114 -129.5t-162 -45.5q-57 0 -103 19t-75.5 55t-41 87.5t0.5 117.5q12 65 41.5 116.5t71.5 87.5t94.5 55t109.5 19q89 0 146 -45.5t68 -129.5q39 84 111.5 129.5t160.5 45.5zM1020 286q14 59 4.5 102t-34.5 71t-61.5 41t-77.5 13q-42 0 -83.5 -13.5t-76.5 -41
t-61.5 -70.5t-37.5 -102h428zM544 272q11 62 0 107t-37 74t-63.5 43t-79.5 14t-85 -14t-79 -43t-63 -74t-38 -107t0 -107t37 -74.5t63.5 -43.5t80.5 -14q42 0 84.5 14t79 43.5t63 74.5t37.5 107z" />
    <glyph glyph-name="Racute" unicode="&#x154;" horiz-adv-x="552" 
d="M297 759l-9 19l157 103l13 -27zM340 705q61 0 101.5 -15t64 -42t30 -64.5t-1.5 -82.5q-15 -91 -75 -142t-160 -58l153 -301h-52l-151 300h-132l-53 -300h-45l124 705h197zM488 500q7 38 2.5 68t-23 51.5t-52.5 33t-85 11.5h-149l-58 -327h149q52 0 90 12t64 33.5t41 51.5
t21 66z" />
    <glyph glyph-name="racute" unicode="&#x155;" horiz-adv-x="354" 
d="M169 597l-9 19l157 103l13 -27zM152 425q32 62 90.5 95.5t141.5 33.5l-8 -49h-16q-36 0 -72 -9.5t-67.5 -32t-55 -60t-33.5 -93.5l-55 -310h-45l95 543h46z" />
    <glyph glyph-name="Rcommaaccent" unicode="&#x156;" horiz-adv-x="556" 
d="M330 705q61 0 101.5 -15t64 -42t30 -64.5t-1.5 -82.5q-15 -91 -75 -142t-160 -58l153 -301h-52l-151 300h-132l-53 -300h-45l124 705h197zM478 500q7 38 2.5 68t-23 51.5t-52.5 33t-85 11.5h-149l-58 -327h149q52 0 90 12t64 33.5t41 51.5t21 66zM187 -56h64
q0 -11 -0.5 -22.5t-2.5 -21.5q-10 -56 -35 -76.5t-60 -20.5l5 25q24 0 36.5 15t17.5 42l2 7h-37z" />
    <glyph glyph-name="rcommaaccent" unicode="&#x157;" horiz-adv-x="354" 
d="M160 425q32 62 90.5 95.5t141.5 33.5l-8 -49h-16q-36 0 -72 -9.5t-67.5 -32t-55 -60t-33.5 -93.5l-55 -310h-45l95 543h46zM91 -56q2 -24 -3 -44q-10 -56 -34.5 -76.5t-59.5 -20.5l4 25q25 0 37.5 15t17.5 42l1 7h-36l9 52h64z" />
    <glyph glyph-name="Rcaron" unicode="&#x158;" horiz-adv-x="552" 
d="M378 776l-115 81l7 36l114 -82l143 82l-6 -36zM340 705q61 0 101.5 -15t64 -42t30 -64.5t-1.5 -82.5q-15 -91 -75 -142t-160 -58l153 -301h-52l-151 300h-132l-53 -300h-45l124 705h197zM488 500q7 38 2.5 68t-23 51.5t-52.5 33t-85 11.5h-149l-58 -327h149q52 0 90 12
t64 33.5t41 51.5t21 66z" />
    <glyph glyph-name="rcaron" unicode="&#x159;" horiz-adv-x="354" 
d="M409 731l-6 -36l-143 -81l-115 81l7 36l114 -82zM152 425q32 62 90.5 95.5t141.5 33.5l-8 -49h-16q-36 0 -72 -9.5t-67.5 -32t-55 -60t-33.5 -93.5l-55 -310h-45l95 543h46z" />
    <glyph glyph-name="Sacute" unicode="&#x15a;" horiz-adv-x="547" 
d="M455 854l-161 -95l-9 19l157 103zM460 162q-5 -30 -21 -60.5t-43.5 -54.5t-66.5 -39t-90 -15q-54 0 -94 16t-66.5 41.5t-39 58.5t-11.5 67h47q-1 -21 6.5 -46.5t27 -47.5t52 -37t81.5 -15q37 0 66.5 10.5t51 29t35 43t17.5 51.5q8 48 -3.5 79t-35.5 51.5t-57 33.5
t-67.5 25t-67.5 26.5t-56.5 37t-34 57t-1.5 87.5q6 32 23.5 59.5t45 48t65.5 32t84 11.5q52 0 89.5 -14.5t62.5 -37.5t37 -51.5t13 -57.5h-47q-1 18 -9 40t-26 40.5t-48 31t-75 12.5q-65 0 -111 -30t-56 -88q-8 -46 3.5 -75t36 -48.5t57.5 -32t67.5 -24t67.5 -26.5t56 -38.5
t34 -59.5t1 -91z" />
    <glyph glyph-name="sacute" unicode="&#x15b;" horiz-adv-x="478" 
d="M393 692l-161 -95l-9 19l157 103zM255 550q97 0 145.5 -46t45.5 -124h-44q2 27 -6 51t-26.5 43t-48 30t-71.5 11q-55 0 -90 -25t-43 -67q-8 -46 13 -70.5t57 -39t79 -25t78.5 -29.5t55 -52.5t8.5 -93.5q-10 -53 -55 -86.5t-120 -33.5q-98 0 -153.5 45.5t-52.5 124.5h45
q-2 -27 6.5 -51.5t29 -43t53.5 -29.5t78 -11q54 0 86.5 25t39.5 63q9 51 -12 78.5t-57 43t-78.5 25.5t-77.5 27.5t-55 48.5t-10 87q10 57 57.5 90.5t122.5 33.5z" />
    <glyph glyph-name="Scedilla" unicode="&#x15e;" horiz-adv-x="547" 
d="M137 557q-8 -46 3.5 -75t36 -48.5t57.5 -32t67.5 -24t67.5 -26.5t56 -38.5t34 -59.5t1 -91q-5 -30 -21 -60t-43 -54t-65 -39.5t-89 -15.5l-13 -74q58 3 88.5 -20.5t22.5 -72.5q-7 -41 -40.5 -61.5t-84.5 -20.5h-79l6 31h71q45 0 66 14.5t25 37.5q5 26 -10 44.5t-61 18.5
h-43l19 104q-46 4 -80.5 21.5t-57 42.5t-33.5 56t-10 62h47q-1 -21 6.5 -46.5t27 -47.5t52 -37t81.5 -15q37 0 66.5 10.5t51 29t35 43t17.5 51.5q8 48 -3.5 79t-35.5 51.5t-57 33.5t-67.5 25t-67.5 26.5t-56.5 37t-34 57t-1.5 87.5q6 32 23.5 59.5t45 48t65.5 32t84 11.5
q52 0 89.5 -14.5t62.5 -37.5t37 -51.5t13 -57.5h-47q-1 18 -9 40t-26 40.5t-48 31t-75 12.5q-65 0 -111 -30t-56 -88z" />
    <glyph glyph-name="scedilla" unicode="&#x15f;" horiz-adv-x="496" 
d="M402 380q2 27 -6 51t-26.5 43t-48 30t-71.5 11q-55 0 -90 -25t-43 -67q-8 -46 13 -70.5t57 -39t79 -25t78.5 -29.5t55 -52.5t8.5 -93.5q-10 -51 -52.5 -84.5t-113.5 -35.5l-13 -74q58 3 88.5 -20.5t22.5 -72.5q-7 -41 -40.5 -61.5t-84.5 -20.5h-79l6 31h71q45 0 66 14.5
t25 37.5q5 26 -10 44.5t-61 18.5h-43l19 104q-88 5 -136.5 50t-45.5 119h45q-2 -27 6.5 -51.5t29 -43t53.5 -29.5t78 -11q54 0 86.5 25t39.5 63q9 51 -12 78.5t-57 43t-78.5 25.5t-77.5 27.5t-55 48.5t-10 87q10 57 57.5 90.5t122.5 33.5q97 0 145.5 -46t45.5 -124h-44z" />
    <glyph glyph-name="Scaron" unicode="&#x160;" horiz-adv-x="547" 
d="M497 857l-143 -81l-115 81l7 36l114 -82l143 82zM460 162q-5 -30 -21 -60.5t-43.5 -54.5t-66.5 -39t-90 -15q-54 0 -94 16t-66.5 41.5t-39 58.5t-11.5 67h47q-1 -21 6.5 -46.5t27 -47.5t52 -37t81.5 -15q37 0 66.5 10.5t51 29t35 43t17.5 51.5q8 48 -3.5 79t-35.5 51.5
t-57 33.5t-67.5 25t-67.5 26.5t-56.5 37t-34 57t-1.5 87.5q6 32 23.5 59.5t45 48t65.5 32t84 11.5q52 0 89.5 -14.5t62.5 -37.5t37 -51.5t13 -57.5h-47q-1 18 -9 40t-26 40.5t-48 31t-75 12.5q-65 0 -111 -30t-56 -88q-8 -46 3.5 -75t36 -48.5t57.5 -32t67.5 -24t67.5 -26.5
t56 -38.5t34 -59.5t1 -91z" />
    <glyph glyph-name="scaron" unicode="&#x161;" horiz-adv-x="496" 
d="M443 695l-143 -81l-115 81l7 36l114 -82l143 82zM255 550q97 0 145.5 -46t45.5 -124h-44q2 27 -6 51t-26.5 43t-48 30t-71.5 11q-55 0 -90 -25t-43 -67q-8 -46 13 -70.5t57 -39t79 -25t78.5 -29.5t55 -52.5t8.5 -93.5q-10 -53 -55 -86.5t-120 -33.5q-98 0 -153.5 45.5
t-52.5 124.5h45q-2 -27 6.5 -51.5t29 -43t53.5 -29.5t78 -11q54 0 86.5 25t39.5 63q9 51 -12 78.5t-57 43t-78.5 25.5t-77.5 27.5t-55 48.5t-10 87q10 57 57.5 90.5t122.5 33.5z" />
    <glyph glyph-name="uni0162" unicode="&#x162;" horiz-adv-x="488" 
d="M532 705l-8 -38h-203l-117 -666q63 -2 86.5 -23.5t16.5 -58.5q-8 -42 -42 -66.5t-86 -24.5h-77l6 32h72q45 0 65.5 16.5t25.5 43.5q4 23 -11 39t-60 16h-46l122 692h-203l8 38h451z" />
    <glyph glyph-name="uni0163" unicode="&#x163;" horiz-adv-x="350" 
d="M120 153q-11 -66 8.5 -89t75.5 -23h57l-7 -41h-62h-13l-14 -81q60 3 90 -18.5t22 -66.5q-8 -42 -41.5 -66t-86.5 -24h-77l6 31h71q45 0 66 17t26 43q4 23 -11 39t-60 16h-43l19 114q-48 9 -65.5 43.5t-5.5 105.5l61 349h-86l8 41h86l24 138h45l-24 -138h160l-7 -41h-161z
" />
    <glyph glyph-name="Tcaron" unicode="&#x164;" horiz-adv-x="488" 
d="M467 857l-143 -81l-115 81l7 36l114 -82l143 82zM532 705l-7 -38h-203l-117 -667h-46l118 667h-203l7 38h451z" />
    <glyph glyph-name="tcaron" unicode="&#x165;" horiz-adv-x="349" 
d="M362 759q-2 -47 -7 -76q-8 -50 -32.5 -69t-62.5 -19l6 27q26 0 38 11.5t16 33.5l4 27h-42l11 65h69zM184 543h160l-7 -41h-161l-61 -349q-11 -66 8.5 -89t76.5 -23h56l-7 -41h-62q-73 0 -102.5 34t-14.5 119l61 349h-85l7 41h86l24 138h45z" />
    <glyph glyph-name="Utilde" unicode="&#x168;" horiz-adv-x="640" 
d="M366 843q19 0 30.5 -7.5t21.5 -17t21 -17t28 -7.5q16 0 30 11.5t21 34.5h27q-9 -33 -32 -53.5t-52 -20.5q-19 0 -31.5 7.5t-23 16.5t-21 16.5t-25.5 7.5q-35 0 -50 -47h-27q12 36 33 56t50 20zM184 705l-77 -433q-11 -64 -4 -109.5t29 -73.5t56.5 -41t78.5 -13
q43 0 81.5 13t70 41t54 73.5t33.5 109.5l76 433h45l-76 -433q-13 -73 -40 -126t-65.5 -87t-85.5 -50t-101 -16t-96 16t-69 50t-36 87t4 126l76 433h46z" />
    <glyph glyph-name="utilde" unicode="&#x169;" horiz-adv-x="610" 
d="M317 652q-35 0 -50 -47h-27q12 36 33 56t50 20q19 0 30.5 -7.5t21.5 -17t21 -17t28 -7.5q16 0 30 11.5t21 34.5h27q-9 -33 -32 -53.5t-52 -20.5q-19 0 -31.5 7.5t-23 16.5t-21 16.5t-25.5 7.5zM578 543l-95 -543h-46l25 142q-18 -39 -43.5 -68t-56 -48t-65 -28t-69.5 -9
q-45 0 -81.5 14t-61 43t-33.5 74t2 107l56 316h44l-55 -315q-17 -100 24 -150t124 -50q42 0 80.5 13.5t69.5 41.5t53 71t32 101l51 288h45z" />
    <glyph glyph-name="Umacron" unicode="&#x16a;" horiz-adv-x="640" 
d="M580 851l-7 -35h-324l6 35h325zM184 705l-77 -433q-11 -64 -4 -109.5t29 -73.5t56.5 -41t78.5 -13q43 0 81.5 13t70 41t54 73.5t33.5 109.5l76 433h45l-76 -433q-13 -73 -40 -126t-65.5 -87t-85.5 -50t-101 -16t-96 16t-69 50t-36 87t4 126l76 433h46z" />
    <glyph glyph-name="umacron" unicode="&#x16b;" horiz-adv-x="611" 
d="M522 654h-324l6 35h325zM578 543l-95 -543h-46l25 142q-18 -39 -43.5 -68t-56 -48t-65 -28t-69.5 -9q-45 0 -81.5 14t-61 43t-33.5 74t2 107l56 316h44l-55 -315q-17 -100 24 -150t124 -50q42 0 80.5 13.5t69.5 41.5t53 71t32 101l51 288h45z" />
    <glyph glyph-name="Ubreve" unicode="&#x16c;" horiz-adv-x="640" 
d="M400 776q-32 0 -53.5 9.5t-33.5 25.5t-16 36t0 41l1 5h28q-7 -41 13.5 -63t66.5 -22t74 22t35 63h28l-1 -5q-4 -21 -14.5 -41t-28.5 -36t-42.5 -25.5t-56.5 -9.5zM184 705l-77 -433q-11 -64 -4 -109.5t29 -73.5t56.5 -41t78.5 -13q43 0 81.5 13t70 41t54 73.5t33.5 109.5
l76 433h45l-76 -433q-13 -73 -40 -126t-65.5 -87t-85.5 -50t-101 -16t-96 16t-69 50t-36 87t4 126l76 433h46z" />
    <glyph glyph-name="ubreve" unicode="&#x16d;" horiz-adv-x="610" 
d="M357 614q-32 0 -53.5 9.5t-33.5 25.5t-16 36t0 41l1 5h28q-7 -41 13.5 -63t66.5 -22t74 22t35 63h28l-1 -5q-4 -21 -14.5 -41t-28.5 -36t-42.5 -25.5t-56.5 -9.5zM578 543l-95 -543h-46l25 142q-18 -39 -43.5 -68t-56 -48t-65 -28t-69.5 -9q-45 0 -81.5 14t-61 43
t-33.5 74t2 107l56 316h44l-55 -315q-17 -100 24 -150t124 -50q42 0 80.5 13.5t69.5 41.5t53 71t32 101l51 288h45z" />
    <glyph glyph-name="Uring" unicode="&#x16e;" horiz-adv-x="640" 
d="M420 965q39 0 63 -25t16 -70t-40.5 -70.5t-71.5 -25.5t-63 25.5t-16 70.5t40.5 70t71.5 25zM416 938q-29 0 -51.5 -18t-27.5 -50q-6 -32 9.5 -50.5t44.5 -18.5t51.5 18.5t28.5 50.5q5 32 -10.5 50t-44.5 18zM184 705l-77 -433q-11 -64 -4 -109.5t29 -73.5t56.5 -41
t78.5 -13q43 0 81.5 13t70 41t54 73.5t33.5 109.5l76 433h45l-76 -433q-13 -73 -40 -126t-65.5 -87t-85.5 -50t-101 -16t-96 16t-69 50t-36 87t4 126l76 433h46z" />
    <glyph glyph-name="uring" unicode="&#x16f;" horiz-adv-x="611" 
d="M336 612q-39 0 -63 25.5t-16 70.5t40.5 70t71.5 25t63 -25t16 -70t-40.5 -70.5t-71.5 -25.5zM286 708q-6 -32 9.5 -50.5t44.5 -18.5t51.5 18.5t28.5 50.5q5 32 -10.5 50t-44.5 18t-51.5 -18t-27.5 -50zM578 543l-95 -543h-46l25 142q-18 -39 -43.5 -68t-56 -48t-65 -28
t-69.5 -9q-45 0 -81.5 14t-61 43t-33.5 74t2 107l56 316h44l-55 -315q-17 -100 24 -150t124 -50q42 0 80.5 13.5t69.5 41.5t53 71t32 101l51 288h45z" />
    <glyph glyph-name="Uhungarumlaut" unicode="&#x170;" horiz-adv-x="640" 
d="M343 763h-35l85 122h41zM468 763h-34l92 122h41zM184 705l-77 -433q-11 -64 -4 -109.5t29 -73.5t56.5 -41t78.5 -13q43 0 81.5 13t70 41t54 73.5t33.5 109.5l76 433h45l-76 -433q-13 -73 -40 -126t-65.5 -87t-85.5 -50t-101 -16t-96 16t-69 50t-36 87t4 126l76 433h46z
" />
    <glyph glyph-name="uhungarumlaut" unicode="&#x171;" horiz-adv-x="611" 
d="M291 601h-35l85 122h41zM382 601l92 122h41l-99 -122h-34zM578 543l-95 -543h-46l25 142q-18 -39 -43.5 -68t-56 -48t-65 -28t-69.5 -9q-45 0 -81.5 14t-61 43t-33.5 74t2 107l56 316h44l-55 -315q-17 -100 24 -150t124 -50q42 0 80.5 13.5t69.5 41.5t53 71t32 101
l51 288h45z" />
    <glyph glyph-name="Uogonek" unicode="&#x172;" horiz-adv-x="640" 
d="M188 705l-76 -433q-12 -64 -5 -109.5t29 -73.5t56.5 -41t78.5 -13q39 0 76.5 10.5t69.5 37.5t56.5 73t37.5 116l76 433h45l-76 -433q-12 -69 -37 -119t-59.5 -84t-77.5 -52t-91 -22q-36 -3 -58.5 -21.5t-28.5 -47.5q-5 -32 14.5 -49.5t60.5 -17.5h76l-6 -32h-81
q-57 0 -82 28t-18 72q5 23 20.5 42.5t38.5 26.5q-43 6 -78 25.5t-57 53.5t-29.5 83t4.5 114l76 433h45z" />
    <glyph glyph-name="uogonek" unicode="&#x173;" horiz-adv-x="611" 
d="M337 -83q-6 -35 14 -54.5t60 -19.5h78l-6 -31h-80q-57 0 -83.5 29t-18.5 75q7 42 41 67.5t93 25.5h4l23 133q-18 -39 -43.5 -68t-56 -48t-65 -28t-69.5 -9q-45 0 -81.5 14t-61 43t-33.5 74t2 107l56 316h44l-55 -315q-17 -100 24 -150t124 -50q42 0 80.5 13.5t69.5 41.5
t53 71t32 101l51 288h45l-95 -543h-7l-4 -21h-37q-40 0 -66.5 -16.5t-31.5 -45.5z" />
    <glyph glyph-name="Wcircumflex" unicode="&#x174;" horiz-adv-x="929" 
d="M451 759l-10 23l139 80l111 -80l-17 -23l-99 71zM956 705l-310 -705h-52l-80 635l-304 -635h-52l-62 705h51l49 -640l305 640h51l79 -640l274 640h51z" />
    <glyph glyph-name="wcircumflex" unicode="&#x175;" horiz-adv-x="813" 
d="M365 597l-10 23l139 80l111 -80l-17 -23l-99 71zM844 543l-262 -543h-44l-95 484l-266 -484h-45l-69 543h47l57 -487l265 487h44l94 -487l229 487h45z" />
    <glyph glyph-name="Ycircumflex" unicode="&#x176;" horiz-adv-x="545" 
d="M259 759l-10 23l139 80l111 -80l-17 -23l-99 71zM580 705l-296 -420l-50 -285h-46l51 285l-151 420h53l128 -373l259 373h52z" />
    <glyph glyph-name="ycircumflex" unicode="&#x177;" horiz-adv-x="524" 
d="M345 668l-124 -71l-10 23l139 80l111 -80l-17 -23zM106 543l119 -483l273 483h50l-456 -799h-52l150 259l-134 540h50z" />
    <glyph glyph-name="Ydieresis" unicode="&#x178;" horiz-adv-x="545" 
d="M287 788q-16 0 -24.5 11t-6.5 26q3 15 15.5 26t28.5 11q15 0 24 -11t6 -26q-2 -15 -15 -26t-28 -11zM432 788q-16 0 -24.5 11t-5.5 26q2 15 14.5 26t28.5 11q15 0 23.5 -11t6.5 -26q-3 -15 -15.5 -26t-27.5 -11zM580 705l-296 -420l-50 -285h-46l51 285l-151 420h53
l128 -373l259 373h52z" />
    <glyph glyph-name="Zacute" unicode="&#x179;" horiz-adv-x="505" 
d="M435 854l-161 -95l-9 19l157 103zM32 39h381l-7 -39h-431l6 38l484 627h-362l7 40h411l-6 -39z" />
    <glyph glyph-name="zacute" unicode="&#x17a;" horiz-adv-x="421" 
d="M364 692l-161 -95l-9 19l157 103zM36 39h315l-7 -39h-363l6 38l385 466h-293l7 39h344l-7 -37z" />
    <glyph glyph-name="Zdotaccent" unicode="&#x17b;" horiz-adv-x="505" 
d="M307 825q3 15 16 26t28 11t24 -11t6 -26q-2 -15 -15 -26t-28 -11t-24 11t-7 26zM32 39h381l-7 -39h-431l6 38l484 627h-362l7 40h411l-6 -39z" />
    <glyph glyph-name="zdotaccent" unicode="&#x17c;" horiz-adv-x="421" 
d="M234 663q3 15 16 26t28 11t24 -11t6 -26q-2 -15 -15 -26t-28 -11t-24 11t-7 26zM36 39h315l-7 -39h-363l6 38l385 466h-293l7 39h344l-7 -37z" />
    <glyph glyph-name="Zcaron" unicode="&#x17d;" horiz-adv-x="505" 
d="M475 857l-143 -81l-115 81l7 36l114 -82l143 82zM32 39h381l-7 -39h-431l6 38l484 627h-362l7 40h411l-6 -39z" />
    <glyph glyph-name="zcaron" unicode="&#x17e;" horiz-adv-x="421" 
d="M405 695l-143 -81l-115 81l7 36l114 -82l143 82zM36 39h315l-7 -39h-363l6 38l385 466h-293l7 39h344l-7 -37z" />
    <glyph glyph-name="florin" unicode="&#x192;" horiz-adv-x="332" 
d="M416 719q-68 0 -109.5 -27.5t-58.5 -87.5l-17 -61h143l-10 -39h-144l-154 -546q-17 -57 -49.5 -86.5t-97.5 -29.5h-30l10 40h28q37 0 58.5 14.5t34.5 61.5l155 546h-81l9 39h83l17 61q23 82 79 118t144 36z" />
    <glyph glyph-name="Ohorn" unicode="&#x1a0;" 
d="M588 684q88 -39 127.5 -127.5t17.5 -209.5q-14 -78 -50 -143.5t-88.5 -112.5t-119 -73t-140.5 -26q-76 0 -134 27t-95 75.5t-50 115.5t1 147q14 78 50 143t88.5 112t119 73t140.5 26q36 0 67 -6q48 0 82.5 26.5t45.5 91.5h37q-10 -55 -36.5 -89t-62.5 -50zM688 351
q13 74 0.5 133.5t-44.5 100.5t-82 63t-112 22q-61 0 -118.5 -22t-104 -63t-79.5 -99.5t-46 -132.5t-0.5 -133t44.5 -100.5t82 -63.5t112 -22t119 22t103.5 63t79.5 99.5t46 132.5z" />
    <glyph glyph-name="ohorn" unicode="&#x1a1;" horiz-adv-x="646" 
d="M495 521q59 -32 85.5 -96t10.5 -156q-12 -65 -41 -116t-71 -86.5t-94 -54.5t-109 -19q-58 0 -104 19t-76 55.5t-41.5 88.5t0.5 118q12 65 41.5 116t71.5 86.5t94.5 54.5t109.5 19q37 0 65 -7q46 2 79 28.5t44 89.5h37q-10 -57 -37.5 -90.5t-64.5 -49.5zM545 272
q11 62 0 107t-36.5 74t-63 43t-80.5 14q-42 0 -84.5 -14t-79 -43t-63 -74t-37.5 -107t0 -107t37 -74.5t63.5 -43.5t79.5 -14q43 0 85.5 14t78.5 43.5t62.5 74.5t37.5 107z" />
    <glyph glyph-name="Uhorn" unicode="&#x1af;" horiz-adv-x="640" 
d="M760 823q-12 -70 -50.5 -106t-88.5 -44l-70 -401q-13 -73 -40 -126t-65.5 -87t-85.5 -50t-101 -16t-96 16t-69 50t-36 87t4 126l76 433h46l-77 -433q-11 -64 -4 -109.5t29 -73.5t56.5 -41t78.5 -13q43 0 81.5 13t70 41t54 73.5t33.5 109.5l76 433h13q48 0 82.5 26.5
t45.5 91.5h37z" />
    <glyph glyph-name="uhorn" unicode="&#x1b0;" horiz-adv-x="610" 
d="M712 661q-12 -70 -51 -106t-89 -44l-89 -511h-46l25 142q-18 -39 -43.5 -68t-56 -48t-65 -28t-69.5 -9q-45 0 -81.5 14t-61 43t-33.5 74t2 107l56 316h44l-55 -315q-17 -100 24 -150t124 -50q42 0 80.5 13.5t69.5 41.5t53 71t32 101l51 288h14q48 0 82.5 26.5t45.5 91.5
h37z" />
    <glyph glyph-name="AEacute" unicode="&#x1fc;" horiz-adv-x="856" 
d="M559 759l-9 19l157 103l13 -27zM550 667l-52 -295h283l-6 -37h-284l-52 -297h313l-6 -38h-359l32 182h-281l-141 -182h-50l545 705h378l-7 -38h-313zM501 651l-334 -432h258z" />
    <glyph glyph-name="aeacute" unicode="&#x1fd;" horiz-adv-x="1125" 
d="M607 597l-9 19l157 103l13 -27zM872 550q61 0 103.5 -20t67.5 -53.5t33.5 -76.5t0.5 -88q-3 -19 -6 -29.5t-8 -23.5h-472q-9 -59 2 -102t36.5 -71t62.5 -41.5t79 -13.5q83 0 146.5 41t88.5 114h47q-14 -42 -40 -77.5t-62 -61t-81 -40t-96 -14.5q-41 0 -76.5 10.5
t-62.5 32t-43.5 53.5t-19.5 74l-28 -163h-45l29 162q-17 -37 -43 -68t-59.5 -53.5t-74 -35t-86.5 -12.5q-57 0 -101.5 19t-72.5 55t-38 88t2 117t40 116.5t68.5 87.5t91.5 55t108 19q92 0 144 -47.5t60 -121.5l28 162h44l-28 -163q35 85 104 127.5t157 42.5zM1029 286
q14 59 4 102t-35 71t-62 41t-79 13q-45 0 -87 -13t-77 -41t-60.5 -71t-37.5 -102h434zM547 272q10 54 1 98t-33.5 75t-62.5 48t-86 17q-51 0 -95 -16.5t-78.5 -47t-58 -74.5t-33.5 -100t-2 -100.5t31.5 -75t61.5 -47t89 -16.5q49 0 93 17t79.5 48t60 75.5t33.5 98.5z" />
    <glyph glyph-name="Scommaaccent" unicode="&#x218;" horiz-adv-x="547" 
d="M454 162q-5 -30 -21 -60.5t-43.5 -54.5t-66.5 -39t-90 -15q-54 0 -94 16t-66.5 41.5t-39 58.5t-11.5 67h47q-1 -21 6.5 -46.5t27 -47.5t52 -37t81.5 -15q37 0 66.5 10.5t51 29t35 43t17.5 51.5q8 48 -3.5 79t-35.5 51.5t-57 33.5t-67.5 25t-67.5 26.5t-56.5 37t-34 57
t-1.5 87.5q6 32 23.5 59.5t45 48t65.5 32t84 11.5q52 0 89.5 -14.5t62.5 -37.5t37 -51.5t13 -57.5h-47q-1 18 -9 40t-26 40.5t-48 31t-75 12.5q-65 0 -111 -30t-56 -88q-8 -46 3.5 -75t36 -48.5t57.5 -32t67.5 -24t67.5 -26.5t56 -38.5t34 -59.5t1 -91zM275 -56
q2 -24 -3 -44q-10 -56 -35 -76.5t-59 -20.5l4 25q25 0 37.5 15t17.5 42l1 7h-36l9 52h64z" />
    <glyph glyph-name="scommaaccent" unicode="&#x219;" horiz-adv-x="496" 
d="M256 550q97 0 145.5 -46t45.5 -124h-44q2 27 -6 51t-26.5 43t-48 30t-71.5 11q-55 0 -90 -25t-43 -67q-8 -46 13 -70.5t57 -39t79 -25t78.5 -29.5t55 -52.5t8.5 -93.5q-10 -53 -55 -86.5t-120 -33.5q-98 0 -153.5 45.5t-52.5 124.5h45q-2 -27 6.5 -51.5t29 -43
t53.5 -29.5t78 -11q54 0 86.5 25t39.5 63q9 51 -12 78.5t-57 43t-78.5 25.5t-77.5 27.5t-55 48.5t-10 87q10 57 57.5 90.5t122.5 33.5zM241 -56q0 -11 -0.5 -22.5t-2.5 -21.5q-10 -56 -35 -76.5t-60 -20.5l5 25q24 0 36.5 15t17.5 42l2 7h-37l10 52h64z" />
    <glyph glyph-name="uni021A" unicode="&#x21a;" horiz-adv-x="488" 
d="M526 705l-7 -38h-203l-117 -667h-46l118 667h-203l7 38h451zM198 -56q0 -11 -0.5 -22.5t-1.5 -21.5q-11 -56 -36 -76.5t-60 -20.5l6 25q24 0 36.5 15t17.5 42l1 7h-36l9 52h64z" />
    <glyph glyph-name="uni021B" unicode="&#x21b;" horiz-adv-x="350" 
d="M127 153q-11 -66 8.5 -89t76.5 -23h56l-7 -41h-62q-73 0 -102.5 34t-14.5 119l61 349h-85l7 41h86l24 138h45l-24 -138h160l-7 -41h-161zM190 -56q1 -11 0 -22.5t-3 -21.5q-10 -56 -35 -76.5t-60 -20.5l5 25q24 0 36.5 15t17.5 42l2 7h-36l9 52h64z" />
    <glyph glyph-name="circumflex" unicode="&#x2c6;" horiz-adv-x="330" 
d="M230 697l-124 -71l-10 23l139 80l111 -80l-17 -23z" />
    <glyph glyph-name="caron" unicode="&#x2c7;" horiz-adv-x="330" 
d="M358 695l-143 -81l-115 81l7 36l114 -82l143 82z" />
    <glyph glyph-name="breve" unicode="&#x2d8;" horiz-adv-x="326" 
d="M213 614q-32 0 -53.5 9.5t-33.5 25.5t-16 36t0 41l1 5h28q-7 -41 13.5 -63t66.5 -22t74 22t35 63h28l-1 -5q-4 -21 -14.5 -41t-28.5 -36t-42.5 -25.5t-56.5 -9.5z" />
    <glyph glyph-name="dotaccent" unicode="&#x2d9;" horiz-adv-x="159" 
d="M102 663q3 15 16 26t28 11t24 -11t6 -26q-2 -15 -15 -26t-28 -11t-24 11t-7 26z" />
    <glyph glyph-name="ring" unicode="&#x2da;" horiz-adv-x="263" 
d="M208 803q39 0 63 -25t16 -70t-40.5 -70.5t-71.5 -25.5t-63 25.5t-16 70.5t40.5 70t71.5 25zM204 776q-29 0 -51.5 -18t-27.5 -50q-6 -32 9.5 -50.5t44.5 -18.5t51.5 18.5t28.5 50.5q5 32 -10.5 50t-44.5 18z" />
    <glyph glyph-name="ogonek" unicode="&#x2db;" horiz-adv-x="270" 
d="M212 -28l-6 -30h-37q-40 0 -66.5 -16.5t-31.5 -45.5q-6 -35 14 -54.5t60 -19.5h78l-6 -31h-80q-57 0 -83.5 29t-18.5 75q7 42 41 67.5t93 25.5h43z" />
    <glyph glyph-name="tilde" unicode="&#x2dc;" horiz-adv-x="329" 
d="M176 681q19 0 30.5 -7.5t21.5 -17t21 -17t28 -7.5q16 0 30 11.5t21 34.5h27q-9 -33 -32 -53.5t-52 -20.5q-19 0 -31.5 7.5t-23 16.5t-21 16.5t-25.5 7.5q-35 0 -50 -47h-27q12 36 33 56t50 20z" />
    <glyph glyph-name="hungarumlaut" unicode="&#x2dd;" horiz-adv-x="309" 
d="M120 601h-35l85 122h41zM245 601h-34l92 122h41z" />
    <glyph glyph-name="gravecomb" unicode="&#x300;" horiz-adv-x="0" 
d="M9 616l-13 -22l-130 96l19 29z" />
    <glyph glyph-name="acutecomb" unicode="&#x301;" horiz-adv-x="0" 
d="M-8 692l-161 -95l-9 19l157 103z" />
    <glyph glyph-name="uni0302" unicode="&#x302;" horiz-adv-x="0" 
d="M-100 697l-124 -71l-10 23l139 80l111 -80l-17 -23z" />
    <glyph glyph-name="tildecomb" unicode="&#x303;" horiz-adv-x="0" 
d="M-153 681q19 0 30.5 -7.5t21.5 -17t21 -17t28 -7.5q16 0 30 11.5t21 34.5h27q-9 -33 -32 -53.5t-52 -20.5q-20 0 -32 7.5t-22.5 16.5t-21 16.5t-25.5 7.5q-35 0 -50 -47h-27q12 36 33 56t50 20z" />
    <glyph glyph-name="uni0306" unicode="&#x306;" horiz-adv-x="0" 
d="M-113 614q-32 0 -53.5 9.5t-33.5 25.5t-16 36t0 41l1 5h28q-7 -41 13.5 -63t66.5 -22t74 22t35 63h28l-1 -5q-4 -21 -14.5 -41t-28.5 -36t-42.5 -25.5t-56.5 -9.5z" />
    <glyph glyph-name="hookabovecomb" unicode="&#x309;" horiz-adv-x="0" 
d="M-246 735q38 0 53 -18.5t9 -53.5q-5 -27 -26.5 -47t-56.5 -50l-16 18q26 22 46 40.5t25 38.5q5 26 -5 35.5t-34 9.5q-27 0 -37.5 -13.5t-18.5 -36.5l-27 1q3 12 8.5 25.5t15 24.5t25 18.5t39.5 7.5z" />
    <glyph glyph-name="uni031B" unicode="&#x31b;" horiz-adv-x="0" 
d="M-431 543q48 0 82.5 26.5t45.5 91.5h37q-7 -40 -23.5 -69t-39.5 -48t-51 -27.5t-57 -8.5z" />
    <glyph glyph-name="dotbelowcomb" unicode="&#x323;" horiz-adv-x="0" 
d="M-190 -116q3 15 16 26t27 11q15 0 24 -11t6 -26q-2 -14 -15 -25t-28 -11q-14 0 -23 11t-7 25z" />
    <glyph glyph-name="pi" unicode="&#x3c0;" horiz-adv-x="719" 
d="M710 543l-7 -36h-84l-89 -507h-46l90 507h-345l-89 -507h-46l90 507h-84l6 36h604z" />
    <glyph glyph-name="Wgrave" unicode="&#x1e80;" horiz-adv-x="929" 
d="M640 756l-130 96l19 29l124 -103zM956 705l-310 -705h-52l-80 635l-304 -635h-52l-62 705h51l49 -640l305 640h51l79 -640l274 640h51z" />
    <glyph glyph-name="wgrave" unicode="&#x1e81;" horiz-adv-x="813" 
d="M554 594l-130 96l19 29l124 -103zM844 543l-262 -543h-44l-95 484l-266 -484h-45l-69 543h47l57 -487l265 487h44l94 -487l229 487h45z" />
    <glyph glyph-name="Wacute" unicode="&#x1e82;" horiz-adv-x="929" 
d="M485 759l-9 19l157 103l13 -27zM956 705l-310 -705h-52l-80 635l-304 -635h-52l-62 705h51l49 -640l305 640h51l79 -640l274 640h51z" />
    <glyph glyph-name="wacute" unicode="&#x1e83;" horiz-adv-x="813" 
d="M399 597l-9 19l157 103l13 -27zM844 543l-262 -543h-44l-95 484l-266 -484h-45l-69 543h47l57 -487l265 487h44l94 -487l229 487h45z" />
    <glyph glyph-name="Wdieresis" unicode="&#x1e84;" horiz-adv-x="929" 
d="M479 788q-16 0 -24.5 11t-6.5 26q3 15 15.5 26t28.5 11q15 0 24 -11t6 -26q-2 -15 -15 -26t-28 -11zM624 788q-16 0 -24.5 11t-5.5 26q2 15 14.5 26t28.5 11q15 0 23.5 -11t6.5 -26q-3 -15 -15.5 -26t-27.5 -11zM956 705l-310 -705h-52l-80 635l-304 -635h-52l-62 705h51
l49 -640l305 640h51l79 -640l274 640h51z" />
    <glyph glyph-name="wdieresis" unicode="&#x1e85;" horiz-adv-x="816" 
d="M394 626q-16 0 -24.5 11t-6.5 26q3 15 15.5 26t28.5 11q15 0 24 -11t6 -26q-2 -15 -15 -26t-28 -11zM539 626q-16 0 -24.5 11t-5.5 26q2 15 14.5 26t28.5 11q15 0 23.5 -11t6.5 -26q-3 -15 -15.5 -26t-27.5 -11zM844 543l-262 -543h-44l-95 484l-266 -484h-45l-69 543h47
l57 -487l265 487h44l94 -487l229 487h45z" />
    <glyph glyph-name="uni1EA0" unicode="&#x1ea0;" horiz-adv-x="623" 
d="M486 0l-36 183h-334l-101 -183h-49l381 686h50l139 -686h-50zM443 220l-80 411l-227 -411h307zM249 -79q15 0 24 -11t6 -26q-2 -14 -15 -25t-28 -11q-14 0 -23 11t-7 25q3 15 16 26t27 11z" />
    <glyph glyph-name="uni1EA1" unicode="&#x1ea1;" horiz-adv-x="673" 
d="M362 550q46 0 82 -12.5t62 -35t41.5 -53.5t19.5 -68l29 162h44l-96 -543h-44l28 162q-17 -37 -43 -68t-59.5 -53.5t-74 -35t-85.5 -12.5q-58 0 -102.5 19.5t-72 55.5t-37.5 88t1 118q12 65 40 116t68.5 86.5t91 54.5t107.5 19zM366 510q-51 0 -95 -16.5t-78.5 -47
t-58 -74.5t-33.5 -100q-20 -112 29.5 -175.5t151.5 -63.5q48 0 92 17t79.5 48t60 75.5t34.5 98.5q9 54 0 98t-33.5 75t-62.5 48t-86 17zM231 -116q3 15 16 26t27 11q15 0 24 -11t6 -26q-2 -14 -15 -25t-28 -11q-14 0 -23 11t-7 25z" />
    <glyph glyph-name="uni1EA2" unicode="&#x1ea2;" horiz-adv-x="623" 
d="M423 895q-27 0 -37.5 -13.5t-18.5 -36.5l-27 1q3 12 8.5 25.5t15 24.5t25 18.5t39.5 7.5q38 0 53 -18.5t9 -53.5q-5 -27 -26.5 -47t-56.5 -50l-16 18q26 22 46 40.5t25 38.5q5 26 -5 35.5t-34 9.5zM450 183h-334l-101 -183h-49l381 686h50l139 -686h-50zM443 220l-80 411
l-227 -411h307z" />
    <glyph glyph-name="uni1EA3" unicode="&#x1ea3;" horiz-adv-x="673" 
d="M427 760q38 0 53 -18.5t9 -53.5q-5 -27 -26.5 -47t-56.5 -50l-16 18q26 22 46 40.5t25 38.5q5 26 -5 35.5t-34 9.5q-27 0 -37.5 -13.5t-18.5 -36.5l-27 1q3 12 8.5 25.5t15 24.5t25 18.5t39.5 7.5zM362 550q46 0 82 -12.5t62 -35t41.5 -53.5t19.5 -68l29 162h44l-96 -543
h-44l28 162q-17 -37 -43 -68t-59.5 -53.5t-74 -35t-85.5 -12.5q-58 0 -102.5 19.5t-72 55.5t-37.5 88t1 118q12 65 40 116t68.5 86.5t91 54.5t107.5 19zM366 510q-51 0 -95 -16.5t-78.5 -47t-58 -74.5t-33.5 -100q-20 -112 29.5 -175.5t151.5 -63.5q48 0 92 17t79.5 48
t60 75.5t34.5 98.5q9 54 0 98t-33.5 75t-62.5 48t-86 17z" />
    <glyph glyph-name="uni1EA4" unicode="&#x1ea4;" horiz-adv-x="623" 
d="M361 875l-9 19l155 102l13 -27zM297 759l-10 23l137 79l110 -79l-17 -23l-98 70zM450 183h-334l-101 -183h-49l381 686h50l139 -686h-50zM443 220l-80 411l-227 -411h307z" />
    <glyph glyph-name="uni1EA5" unicode="&#x1ea5;" horiz-adv-x="673" 
d="M519 807l-159 -94l-9 19l155 102zM418 667l-122 -70l-10 23l137 79l110 -79l-17 -23zM362 550q46 0 82 -12.5t62 -35t41.5 -53.5t19.5 -68l29 162h44l-96 -543h-44l28 162q-17 -37 -43 -68t-59.5 -53.5t-74 -35t-85.5 -12.5q-58 0 -102.5 19.5t-72 55.5t-37.5 88t1 118
q12 65 40 116t68.5 86.5t91 54.5t107.5 19zM366 510q-51 0 -95 -16.5t-78.5 -47t-58 -74.5t-33.5 -100q-20 -112 29.5 -175.5t151.5 -63.5q48 0 92 17t79.5 48t60 75.5t34.5 98.5q9 54 0 98t-33.5 75t-62.5 48t-86 17z" />
    <glyph glyph-name="uni1EA6" unicode="&#x1ea6;" horiz-adv-x="623" 
d="M515 850l-129 95l19 29l123 -102zM297 759l-10 23l137 79l110 -79l-17 -23l-98 70zM450 183h-334l-101 -183h-49l381 686h50l139 -686h-50zM443 220l-80 411l-227 -411h307z" />
    <glyph glyph-name="uni1EA7" unicode="&#x1ea7;" horiz-adv-x="673" 
d="M527 710l-13 -22l-129 95l19 29zM418 667l-122 -70l-10 23l137 79l110 -79l-17 -23zM362 550q46 0 82 -12.5t62 -35t41.5 -53.5t19.5 -68l29 162h44l-96 -543h-44l28 162q-17 -37 -43 -68t-59.5 -53.5t-74 -35t-85.5 -12.5q-58 0 -102.5 19.5t-72 55.5t-37.5 88t1 118
q12 65 40 116t68.5 86.5t91 54.5t107.5 19zM366 510q-51 0 -95 -16.5t-78.5 -47t-58 -74.5t-33.5 -100q-20 -112 29.5 -175.5t151.5 -63.5q48 0 92 17t79.5 48t60 75.5t34.5 98.5q9 54 0 98t-33.5 75t-62.5 48t-86 17z" />
    <glyph glyph-name="uni1EA8" unicode="&#x1ea8;" horiz-adv-x="623" 
d="M559 997q38 0 52.5 -18.5t8.5 -53.5q-5 -26 -26 -46t-56 -49l-16 17q26 22 46 40t25 38q5 26 -5 35.5t-34 9.5q-27 0 -37 -13.5t-18 -35.5l-27 1q3 12 8.5 25t15 24t25 18.5t38.5 7.5zM297 759l-10 23l137 79l110 -79l-17 -23l-98 70zM397 686l139 -686h-50l-36 183h-334
l-101 -183h-49l381 686h50zM443 220l-80 411l-227 -411h307z" />
    <glyph glyph-name="uni1EA9" unicode="&#x1ea9;" horiz-adv-x="673" 
d="M558 835q38 0 52.5 -18.5t8.5 -53.5q-5 -26 -26 -46t-56 -49l-16 17q26 22 46 40t25 38q5 26 -5 35.5t-34 9.5q-27 0 -37 -13.5t-18 -35.5l-27 1q3 12 8.5 25t15 24t25 18.5t38.5 7.5zM418 667l-122 -70l-10 23l137 79l110 -79l-17 -23zM362 550q46 0 82 -12.5t62 -35
t41.5 -53.5t19.5 -68l29 162h44l-96 -543h-44l28 162q-17 -37 -43 -68t-59.5 -53.5t-74 -35t-85.5 -12.5q-58 0 -102.5 19.5t-72 55.5t-37.5 88t1 118q12 65 40 116t68.5 86.5t91 54.5t107.5 19zM366 510q-51 0 -95 -16.5t-78.5 -47t-58 -74.5t-33.5 -100
q-20 -112 29.5 -175.5t151.5 -63.5q48 0 92 17t79.5 48t60 75.5t34.5 98.5q9 54 0 98t-33.5 75t-62.5 48t-86 17z" />
    <glyph glyph-name="uni1EAA" unicode="&#x1eaa;" horiz-adv-x="623" 
d="M572 952q-9 -32 -31.5 -52t-49.5 -20q-19 0 -31.5 7.5t-22 16t-19.5 16t-25 7.5q-34 0 -49 -46h-26q12 35 32.5 54.5t48.5 19.5q18 0 29.5 -7.5t21 -16.5t20 -16.5t26.5 -7.5t29.5 11.5t20.5 33.5h26zM419 829l-122 -70l-10 23l137 79l110 -79l-17 -23zM397 686l139 -686
h-50l-36 183h-334l-101 -183h-49l381 686h50zM443 220l-80 411l-227 -411h307z" />
    <glyph glyph-name="uni1EAB" unicode="&#x1eab;" horiz-adv-x="673" 
d="M398 793q18 0 29.5 -7.5t21 -16.5t20 -16.5t26.5 -7.5t29.5 11.5t20.5 33.5h26q-9 -32 -31.5 -52t-49.5 -20q-19 0 -31.5 7.5t-22 16t-19.5 16t-25 7.5q-34 0 -49 -46h-26q12 35 32.5 54.5t48.5 19.5zM418 667l-122 -70l-10 23l137 79l110 -79l-17 -23zM362 550
q46 0 82 -12.5t62 -35t41.5 -53.5t19.5 -68l29 162h44l-96 -543h-44l28 162q-17 -37 -43 -68t-59.5 -53.5t-74 -35t-85.5 -12.5q-58 0 -102.5 19.5t-72 55.5t-37.5 88t1 118q12 65 40 116t68.5 86.5t91 54.5t107.5 19zM366 510q-51 0 -95 -16.5t-78.5 -47t-58 -74.5
t-33.5 -100q-20 -112 29.5 -175.5t151.5 -63.5q48 0 92 17t79.5 48t60 75.5t34.5 98.5q9 54 0 98t-33.5 75t-62.5 48t-86 17z" />
    <glyph glyph-name="uni1EAC" unicode="&#x1eac;" horiz-adv-x="623" 
d="M296 759l-10 23l139 80l111 -80l-17 -23l-99 71zM397 686l139 -686h-50l-36 183h-334l-101 -183h-49l381 686h50zM443 220l-80 411l-227 -411h307zM249 -79q15 0 24 -11t6 -26q-2 -14 -15 -25t-28 -11q-14 0 -23 11t-7 25q3 15 16 26t27 11z" />
    <glyph glyph-name="uni1EAD" unicode="&#x1ead;" horiz-adv-x="673" 
d="M419 668l-124 -71l-10 23l139 80l111 -80l-17 -23zM362 550q46 0 82 -12.5t62 -35t41.5 -53.5t19.5 -68l29 162h44l-96 -543h-44l28 162q-17 -37 -43 -68t-59.5 -53.5t-74 -35t-85.5 -12.5q-58 0 -102.5 19.5t-72 55.5t-37.5 88t1 118q12 65 40 116t68.5 86.5t91 54.5
t107.5 19zM366 510q-51 0 -95 -16.5t-78.5 -47t-58 -74.5t-33.5 -100q-20 -112 29.5 -175.5t151.5 -63.5q48 0 92 17t79.5 48t60 75.5t34.5 98.5q9 54 0 98t-33.5 75t-62.5 48t-86 17zM231 -116q3 15 16 26t27 11q15 0 24 -11t6 -26q-2 -14 -15 -25t-28 -11q-14 0 -23 11
t-7 25z" />
    <glyph glyph-name="uni1EAE" unicode="&#x1eae;" horiz-adv-x="623" 
d="M363 944l-9 19l155 102l13 -27zM389 775q-31 0 -52.5 9.5t-33.5 25t-16 35.5t0 41l1 5h27q-6 -41 14 -62.5t66 -21.5q45 0 72.5 21.5t34.5 62.5h28l-1 -5q-4 -21 -14.5 -41t-28 -35.5t-41.5 -25t-56 -9.5zM450 183h-334l-101 -183h-49l381 686h50l139 -686h-50zM443 220
l-80 411l-227 -411h307z" />
    <glyph glyph-name="uni1EAF" unicode="&#x1eaf;" horiz-adv-x="673" 
d="M521 876l-159 -94l-9 19l155 102zM388 613q-31 0 -52.5 9.5t-33.5 25t-16 35.5t0 41l1 5h27q-6 -41 14 -62.5t66 -21.5q45 0 72.5 21.5t34.5 62.5h28l-1 -5q-4 -21 -14.5 -41t-28 -35.5t-41.5 -25t-56 -9.5zM362 550q46 0 82 -12.5t62 -35t41.5 -53.5t19.5 -68l29 162h44
l-96 -543h-44l28 162q-17 -37 -43 -68t-59.5 -53.5t-74 -35t-85.5 -12.5q-58 0 -102.5 19.5t-72 55.5t-37.5 88t1 118q12 65 40 116t68.5 86.5t91 54.5t107.5 19zM366 510q-51 0 -95 -16.5t-78.5 -47t-58 -74.5t-33.5 -100q-20 -112 29.5 -175.5t151.5 -63.5q48 0 92 17
t79.5 48t60 75.5t34.5 98.5q9 54 0 98t-33.5 75t-62.5 48t-86 17z" />
    <glyph glyph-name="uni1EB0" unicode="&#x1eb0;" horiz-adv-x="623" 
d="M516 941l-129 95l19 29l123 -102zM389 775q-31 0 -52.5 9.5t-33.5 25t-16 35.5t0 41l1 5h27q-6 -41 14 -62.5t66 -21.5q45 0 72.5 21.5t34.5 62.5h28l-1 -5q-4 -21 -14.5 -41t-28 -35.5t-41.5 -25t-56 -9.5zM450 183h-334l-101 -183h-49l381 686h50l139 -686h-50z
M443 220l-80 411l-227 -411h307z" />
    <glyph glyph-name="uni1EB1" unicode="&#x1eb1;" horiz-adv-x="673" 
d="M528 801l-13 -22l-129 95l19 29zM388 613q-31 0 -52.5 9.5t-33.5 25t-16 35.5t0 41l1 5h27q-6 -41 14 -62.5t66 -21.5q45 0 72.5 21.5t34.5 62.5h28l-1 -5q-4 -21 -14.5 -41t-28 -35.5t-41.5 -25t-56 -9.5zM362 550q46 0 82 -12.5t62 -35t41.5 -53.5t19.5 -68l29 162h44
l-96 -543h-44l28 162q-17 -37 -43 -68t-59.5 -53.5t-74 -35t-85.5 -12.5q-58 0 -102.5 19.5t-72 55.5t-37.5 88t1 118q12 65 40 116t68.5 86.5t91 54.5t107.5 19zM366 510q-51 0 -95 -16.5t-78.5 -47t-58 -74.5t-33.5 -100q-20 -112 29.5 -175.5t151.5 -63.5q48 0 92 17
t79.5 48t60 75.5t34.5 98.5q9 54 0 98t-33.5 75t-62.5 48t-86 17z" />
    <glyph glyph-name="uni1EB2" unicode="&#x1eb2;" horiz-adv-x="623" 
d="M455 1079q-27 0 -37 -13.5t-18 -35.5l-27 1q3 12 8.5 25t15 24t25 18.5t38.5 7.5q38 0 52.5 -18.5t8.5 -53.5q-5 -26 -26 -46t-56 -49l-16 17q26 22 46 40t25 38q5 26 -5 35.5t-34 9.5zM389 775q-31 0 -52.5 9.5t-33.5 25t-16 35.5t0 41l1 5h27q-6 -41 14 -62.5t66 -21.5
q45 0 72.5 21.5t34.5 62.5h28l-1 -5q-4 -21 -14.5 -41t-28 -35.5t-41.5 -25t-56 -9.5zM450 183h-334l-101 -183h-49l381 686h50l139 -686h-50zM443 220l-80 411l-227 -411h307z" />
    <glyph glyph-name="uni1EB3" unicode="&#x1eb3;" horiz-adv-x="673" 
d="M459 944q38 0 52.5 -18.5t8.5 -53.5q-5 -26 -26 -46t-56 -49l-16 17q26 22 46 40t25 38q5 26 -5 35.5t-34 9.5q-27 0 -37 -13.5t-18 -35.5l-27 1q3 12 8.5 25t15 24t25 18.5t38.5 7.5zM388 613q-31 0 -52.5 9.5t-33.5 25t-16 35.5t0 41l1 5h27q-6 -41 14 -62.5t66 -21.5
q45 0 72.5 21.5t34.5 62.5h28l-1 -5q-4 -21 -14.5 -41t-28 -35.5t-41.5 -25t-56 -9.5zM362 550q46 0 82 -12.5t62 -35t41.5 -53.5t19.5 -68l29 162h44l-96 -543h-44l28 162q-17 -37 -43 -68t-59.5 -53.5t-74 -35t-85.5 -12.5q-58 0 -102.5 19.5t-72 55.5t-37.5 88t1 118
q12 65 40 116t68.5 86.5t91 54.5t107.5 19zM366 510q-51 0 -95 -16.5t-78.5 -47t-58 -74.5t-33.5 -100q-20 -112 29.5 -175.5t151.5 -63.5q48 0 92 17t79.5 48t60 75.5t34.5 98.5q9 54 0 98t-33.5 75t-62.5 48t-86 17z" />
    <glyph glyph-name="uni1EB4" unicode="&#x1eb4;" horiz-adv-x="623" 
d="M565 1024q-9 -32 -32 -52.5t-51 -20.5q-19 0 -31.5 7.5t-22.5 16.5t-20.5 16.5t-25.5 7.5q-34 0 -49 -47h-27q12 36 32.5 55.5t49.5 19.5q18 0 30 -7.5t21.5 -16.5t20.5 -16.5t28 -7.5q16 0 29.5 11.5t20.5 33.5h27zM389 775q-31 0 -52.5 9.5t-33.5 25t-16 35.5t0 41l1 5
h27q-6 -41 14 -62.5t66 -21.5q45 0 72.5 21.5t34.5 62.5h28l-1 -5q-4 -21 -14.5 -41t-28 -35.5t-41.5 -25t-56 -9.5zM397 686l139 -686h-50l-36 183h-334l-101 -183h-49l381 686h50zM443 220l-80 411l-227 -411h307z" />
    <glyph glyph-name="uni1EB5" unicode="&#x1eb5;" horiz-adv-x="673" 
d="M387 865q18 0 30 -7.5t21.5 -16.5t20.5 -16.5t28 -7.5q16 0 29.5 11.5t20.5 33.5h27q-9 -32 -32 -52.5t-51 -20.5q-19 0 -31.5 7.5t-22.5 16.5t-20.5 16.5t-25.5 7.5q-34 0 -49 -47h-27q12 36 32.5 55.5t49.5 19.5zM388 613q-31 0 -52.5 9.5t-33.5 25t-16 35.5t0 41l1 5
h27q-6 -41 14 -62.5t66 -21.5q45 0 72.5 21.5t34.5 62.5h28l-1 -5q-4 -21 -14.5 -41t-28 -35.5t-41.5 -25t-56 -9.5zM362 550q46 0 82 -12.5t62 -35t41.5 -53.5t19.5 -68l29 162h44l-96 -543h-44l28 162q-17 -37 -43 -68t-59.5 -53.5t-74 -35t-85.5 -12.5q-58 0 -102.5 19.5
t-72 55.5t-37.5 88t1 118q12 65 40 116t68.5 86.5t91 54.5t107.5 19zM366 510q-51 0 -95 -16.5t-78.5 -47t-58 -74.5t-33.5 -100q-20 -112 29.5 -175.5t151.5 -63.5q48 0 92 17t79.5 48t60 75.5t34.5 98.5q9 54 0 98t-33.5 75t-62.5 48t-86 17z" />
    <glyph glyph-name="uni1EB6" unicode="&#x1eb6;" horiz-adv-x="623" 
d="M389 776q-32 0 -53.5 9.5t-33.5 25.5t-16 36t0 41l1 5h28q-7 -41 13.5 -63t66.5 -22t74 22t35 63h28l-1 -5q-4 -21 -14.5 -41t-28.5 -36t-42.5 -25.5t-56.5 -9.5zM486 0l-36 183h-334l-101 -183h-49l381 686h50l139 -686h-50zM443 220l-80 411l-227 -411h307zM249 -79
q15 0 24 -11t6 -26q-2 -14 -15 -25t-28 -11q-14 0 -23 11t-7 25q3 15 16 26t27 11z" />
    <glyph glyph-name="uni1EB7" unicode="&#x1eb7;" horiz-adv-x="673" 
d="M388 614q-32 0 -53.5 9.5t-33.5 25.5t-16 36t0 41l1 5h28q-7 -41 13.5 -63t66.5 -22t74 22t35 63h28l-1 -5q-4 -21 -14.5 -41t-28.5 -36t-42.5 -25.5t-56.5 -9.5zM362 550q46 0 82 -12.5t62 -35t41.5 -53.5t19.5 -68l29 162h44l-96 -543h-44l28 162q-17 -37 -43 -68
t-59.5 -53.5t-74 -35t-85.5 -12.5q-58 0 -102.5 19.5t-72 55.5t-37.5 88t1 118q12 65 40 116t68.5 86.5t91 54.5t107.5 19zM366 510q-51 0 -95 -16.5t-78.5 -47t-58 -74.5t-33.5 -100q-20 -112 29.5 -175.5t151.5 -63.5q48 0 92 17t79.5 48t60 75.5t34.5 98.5q9 54 0 98
t-33.5 75t-62.5 48t-86 17zM231 -116q3 15 16 26t27 11q15 0 24 -11t6 -26q-2 -14 -15 -25t-28 -11q-14 0 -23 11t-7 25z" />
    <glyph glyph-name="uni1EB8" unicode="&#x1eb8;" horiz-adv-x="489" 
d="M181 667l-52 -296h285l-7 -36h-284l-53 -297h315l-6 -38h-360l124 705h360l-7 -38h-315zM139 -116q3 15 16 26t27 11q15 0 24 -11t6 -26q-2 -14 -15 -25t-28 -11q-14 0 -23 11t-7 25z" />
    <glyph glyph-name="uni1EB9" unicode="&#x1eb9;" horiz-adv-x="627" 
d="M367 550q62 0 106 -20t70 -53.5t34.5 -76.5t0.5 -88q-3 -19 -5.5 -29.5t-7.5 -23.5h-468q-9 -60 2 -103t36.5 -70.5t62 -41t77.5 -13.5q81 0 144.5 41.5t88.5 113.5h47q-15 -42 -41.5 -77.5t-63 -61t-82.5 -40t-99 -14.5q-57 0 -102 19t-73.5 55t-39.5 88t1 118
q12 65 40.5 116.5t70 87t93 54.5t108.5 19zM530 286q14 59 4.5 102t-34.5 71t-61.5 41t-77.5 13q-42 0 -83.5 -13.5t-76.5 -41t-61.5 -70.5t-37.5 -102h428zM250 -79q15 0 24 -11t6 -26q-2 -14 -15 -25t-28 -11q-14 0 -23 11t-7 25q3 15 16 26t27 11z" />
    <glyph glyph-name="uni1EBA" unicode="&#x1eba;" horiz-adv-x="489" 
d="M364 922q38 0 53 -18.5t9 -53.5q-5 -27 -26.5 -47t-56.5 -50l-16 18q26 22 46 40.5t25 38.5q5 26 -5 35.5t-34 9.5q-27 0 -37.5 -13.5t-18.5 -36.5l-27 1q3 12 8.5 25.5t15 24.5t25 18.5t39.5 7.5zM181 667l-52 -296h285l-7 -36h-284l-53 -297h315l-6 -38h-360l124 705
h360l-7 -38h-315z" />
    <glyph glyph-name="uni1EBB" unicode="&#x1ebb;" horiz-adv-x="627" 
d="M399 733q-27 0 -37.5 -13.5t-18.5 -36.5l-27 1q3 12 8.5 25.5t15 24.5t25 18.5t39.5 7.5q38 0 53 -18.5t9 -53.5q-5 -27 -26.5 -47t-56.5 -50l-16 18q26 22 46 40.5t25 38.5q5 26 -5 35.5t-34 9.5zM367 550q62 0 106 -20t70 -53.5t34.5 -76.5t0.5 -88q-3 -19 -5.5 -29.5
t-7.5 -23.5h-468q-9 -60 2 -103t36.5 -70.5t62 -41t77.5 -13.5q81 0 144.5 41.5t88.5 113.5h47q-15 -42 -41.5 -77.5t-63 -61t-82.5 -40t-99 -14.5q-57 0 -102 19t-73.5 55t-39.5 88t1 118q12 65 40.5 116.5t70 87t93 54.5t108.5 19zM530 286q14 59 4.5 102t-34.5 71
t-61.5 41t-77.5 13q-42 0 -83.5 -13.5t-76.5 -41t-61.5 -70.5t-37.5 -102h428z" />
    <glyph glyph-name="uni1EBC" unicode="&#x1ebc;" horiz-adv-x="489" 
d="M291 843q19 0 30.5 -7.5t21.5 -17t21 -17t28 -7.5q16 0 30 11.5t21 34.5h27q-9 -33 -32 -53.5t-52 -20.5q-19 0 -31.5 7.5t-23 16.5t-21 16.5t-25.5 7.5q-35 0 -50 -47h-27q12 36 33 56t50 20zM181 667l-52 -296h285l-7 -36h-284l-53 -297h315l-6 -38h-360l124 705h360
l-7 -38h-315z" />
    <glyph glyph-name="uni1EBD" unicode="&#x1ebd;" horiz-adv-x="627" 
d="M325 652q-35 0 -50 -47h-27q12 36 33 56t50 20q19 0 30.5 -7.5t21.5 -17t21 -17t28 -7.5q16 0 30 11.5t21 34.5h27q-9 -33 -32 -53.5t-52 -20.5q-19 0 -31.5 7.5t-23 16.5t-21 16.5t-25.5 7.5zM367 550q62 0 106 -20t70 -53.5t34.5 -76.5t0.5 -88q-3 -19 -5.5 -29.5
t-7.5 -23.5h-468q-9 -60 2 -103t36.5 -70.5t62 -41t77.5 -13.5q81 0 144.5 41.5t88.5 113.5h47q-15 -42 -41.5 -77.5t-63 -61t-82.5 -40t-99 -14.5q-57 0 -102 19t-73.5 55t-39.5 88t1 118q12 65 40.5 116.5t70 87t93 54.5t108.5 19zM530 286q14 59 4.5 102t-34.5 71
t-61.5 41t-77.5 13q-42 0 -83.5 -13.5t-76.5 -41t-61.5 -70.5t-37.5 -102h428z" />
    <glyph glyph-name="uni1EBE" unicode="&#x1ebe;" horiz-adv-x="489" 
d="M456 969l-159 -94l-9 19l155 102zM355 829l-122 -70l-10 23l137 79l110 -79l-17 -23zM181 667l-52 -296h285l-7 -36h-284l-53 -297h315l-6 -38h-360l124 705h360l-7 -38h-315z" />
    <glyph glyph-name="uni1EBF" unicode="&#x1ebf;" horiz-adv-x="627" 
d="M337 713l-9 19l155 102l13 -27zM273 597l-10 23l137 79l110 -79l-17 -23l-98 70zM367 550q62 0 106 -20t70 -53.5t34.5 -76.5t0.5 -88q-3 -19 -5.5 -29.5t-7.5 -23.5h-468q-9 -60 2 -103t36.5 -70.5t62 -41t77.5 -13.5q81 0 144.5 41.5t88.5 113.5h47
q-15 -42 -41.5 -77.5t-63 -61t-82.5 -40t-99 -14.5q-57 0 -102 19t-73.5 55t-39.5 88t1 118q12 65 40.5 116.5t70 87t93 54.5t108.5 19zM530 286q14 59 4.5 102t-34.5 71t-61.5 41t-77.5 13q-42 0 -83.5 -13.5t-76.5 -41t-61.5 -70.5t-37.5 -102h428z" />
    <glyph glyph-name="uni1EC0" unicode="&#x1ec0;" horiz-adv-x="489" 
d="M464 872l-13 -22l-129 95l19 29zM355 829l-122 -70l-10 23l137 79l110 -79l-17 -23zM181 667l-52 -296h285l-7 -36h-284l-53 -297h315l-6 -38h-360l124 705h360l-7 -38h-315z" />
    <glyph glyph-name="uni1EC1" unicode="&#x1ec1;" horiz-adv-x="627" 
d="M491 688l-129 95l19 29l123 -102zM273 597l-10 23l137 79l110 -79l-17 -23l-98 70zM367 550q62 0 106 -20t70 -53.5t34.5 -76.5t0.5 -88q-3 -19 -5.5 -29.5t-7.5 -23.5h-468q-9 -60 2 -103t36.5 -70.5t62 -41t77.5 -13.5q81 0 144.5 41.5t88.5 113.5h47
q-15 -42 -41.5 -77.5t-63 -61t-82.5 -40t-99 -14.5q-57 0 -102 19t-73.5 55t-39.5 88t1 118q12 65 40.5 116.5t70 87t93 54.5t108.5 19zM530 286q14 59 4.5 102t-34.5 71t-61.5 41t-77.5 13q-42 0 -83.5 -13.5t-76.5 -41t-61.5 -70.5t-37.5 -102h428z" />
    <glyph glyph-name="uni1EC2" unicode="&#x1ec2;" horiz-adv-x="489" 
d="M495 997q38 0 52.5 -18.5t8.5 -53.5q-5 -26 -26 -46t-56 -49l-16 17q26 22 46 40t25 38q5 26 -5 35.5t-34 9.5q-27 0 -37 -13.5t-18 -35.5l-27 1q3 12 8.5 25t15 24t25 18.5t38.5 7.5zM355 829l-122 -70l-10 23l137 79l110 -79l-17 -23zM181 667l-52 -296h285l-7 -36
h-284l-53 -297h315l-6 -38h-360l124 705h360l-7 -38h-315z" />
    <glyph glyph-name="uni1EC3" unicode="&#x1ec3;" horiz-adv-x="627" 
d="M535 835q38 0 52.5 -18.5t8.5 -53.5q-5 -26 -26 -46t-56 -49l-16 17q26 22 46 40t25 38q5 26 -5 35.5t-34 9.5q-27 0 -37 -13.5t-18 -35.5l-27 1q3 12 8.5 25t15 24t25 18.5t38.5 7.5zM273 597l-10 23l137 79l110 -79l-17 -23l-98 70zM367 550q62 0 106 -20t70 -53.5
t34.5 -76.5t0.5 -88q-3 -19 -5.5 -29.5t-7.5 -23.5h-468q-9 -60 2 -103t36.5 -70.5t62 -41t77.5 -13.5q81 0 144.5 41.5t88.5 113.5h47q-15 -42 -41.5 -77.5t-63 -61t-82.5 -40t-99 -14.5q-57 0 -102 19t-73.5 55t-39.5 88t1 118q12 65 40.5 116.5t70 87t93 54.5t108.5 19z
M530 286q14 59 4.5 102t-34.5 71t-61.5 41t-77.5 13q-42 0 -83.5 -13.5t-76.5 -41t-61.5 -70.5t-37.5 -102h428z" />
    <glyph glyph-name="uni1EC4" unicode="&#x1ec4;" horiz-adv-x="489" 
d="M335 955q18 0 29.5 -7.5t21 -16.5t20 -16.5t26.5 -7.5t29.5 11.5t20.5 33.5h26q-9 -32 -31.5 -52t-49.5 -20q-19 0 -31.5 7.5t-22 16t-19.5 16t-25 7.5q-34 0 -49 -46h-26q12 35 32.5 54.5t48.5 19.5zM355 829l-122 -70l-10 23l137 79l110 -79l-17 -23zM181 667l-52 -296
h285l-7 -36h-284l-53 -297h315l-6 -38h-360l124 705h360l-7 -38h-315z" />
    <glyph glyph-name="uni1EC5" unicode="&#x1ec5;" horiz-adv-x="627" 
d="M369 765q-34 0 -49 -46h-26q12 35 32.5 54.5t48.5 19.5q18 0 29.5 -7.5t21 -16.5t20 -16.5t26.5 -7.5t29.5 11.5t20.5 33.5h26q-9 -32 -31.5 -52t-49.5 -20q-19 0 -31.5 7.5t-22 16t-19.5 16t-25 7.5zM273 597l-10 23l137 79l110 -79l-17 -23l-98 70zM367 550
q62 0 106 -20t70 -53.5t34.5 -76.5t0.5 -88q-3 -19 -5.5 -29.5t-7.5 -23.5h-468q-9 -60 2 -103t36.5 -70.5t62 -41t77.5 -13.5q81 0 144.5 41.5t88.5 113.5h47q-15 -42 -41.5 -77.5t-63 -61t-82.5 -40t-99 -14.5q-57 0 -102 19t-73.5 55t-39.5 88t1 118q12 65 40.5 116.5
t70 87t93 54.5t108.5 19zM530 286q14 59 4.5 102t-34.5 71t-61.5 41t-77.5 13q-42 0 -83.5 -13.5t-76.5 -41t-61.5 -70.5t-37.5 -102h428z" />
    <glyph glyph-name="uni1EC6" unicode="&#x1ec6;" horiz-adv-x="489" 
d="M356 830l-124 -71l-10 23l139 80l111 -80l-17 -23zM181 667l-52 -296h285l-7 -36h-284l-53 -297h315l-6 -38h-360l124 705h360l-7 -38h-315zM139 -116q3 15 16 26t27 11q15 0 24 -11t6 -26q-2 -14 -15 -25t-28 -11q-14 0 -23 11t-7 25z" />
    <glyph glyph-name="uni1EC7" unicode="&#x1ec7;" horiz-adv-x="627" 
d="M272 597l-10 23l139 80l111 -80l-17 -23l-99 71zM367 550q62 0 106 -20t70 -53.5t34.5 -76.5t0.5 -88q-3 -19 -5.5 -29.5t-7.5 -23.5h-468q-9 -60 2 -103t36.5 -70.5t62 -41t77.5 -13.5q81 0 144.5 41.5t88.5 113.5h47q-15 -42 -41.5 -77.5t-63 -61t-82.5 -40t-99 -14.5
q-57 0 -102 19t-73.5 55t-39.5 88t1 118q12 65 40.5 116.5t70 87t93 54.5t108.5 19zM530 286q14 59 4.5 102t-34.5 71t-61.5 41t-77.5 13q-42 0 -83.5 -13.5t-76.5 -41t-61.5 -70.5t-37.5 -102h428zM250 -79q15 0 24 -11t6 -26q-2 -14 -15 -25t-28 -11q-14 0 -23 11t-7 25
q3 15 16 26t27 11z" />
    <glyph glyph-name="uni1EC8" unicode="&#x1ec8;" horiz-adv-x="207" 
d="M222 922q38 0 53 -18.5t9 -53.5q-5 -27 -26.5 -47t-56.5 -50l-16 18q26 22 46 40.5t25 38.5q5 26 -5 35.5t-34 9.5q-27 0 -37.5 -13.5t-18.5 -36.5l-27 1q3 12 8.5 25.5t15 24.5t25 18.5t39.5 7.5zM188 705l-124 -705h-45l124 705h45z" />
    <glyph glyph-name="uni1EC9" unicode="&#x1ec9;" horiz-adv-x="205" 
d="M193 760q38 0 53 -18.5t9 -53.5q-5 -27 -26.5 -47t-56.5 -50l-16 18q26 22 46 40.5t25 38.5q5 26 -5 35.5t-34 9.5q-27 0 -37.5 -13.5t-18.5 -36.5l-27 1q3 12 8.5 25.5t15 24.5t25 18.5t39.5 7.5zM173 543l-96 -543h-45l96 543h45z" />
    <glyph glyph-name="uni1ECA" unicode="&#x1eca;" horiz-adv-x="207" 
d="M188 705l-124 -705h-45l124 705h45zM-3 -116q3 15 16 26t27 11q15 0 24 -11t6 -26q-2 -14 -15 -25t-28 -11q-14 0 -23 11t-7 25z" />
    <glyph glyph-name="uni1ECB" unicode="&#x1ecb;" horiz-adv-x="206" 
d="M140 707q3 17 15.5 27t29.5 10t26 -10t6 -27t-15.5 -27.5t-29.5 -10.5t-26 10.5t-6 27.5zM172 543l-96 -543h-45l96 543h45zM-3 -116q3 15 16 26t27 11q15 0 24 -11t6 -26q-2 -14 -15 -25t-28 -11q-14 0 -23 11t-7 25z" />
    <glyph glyph-name="uni1ECC" unicode="&#x1ecc;" 
d="M455 711q75 0 133.5 -27t95 -75t50 -115t-0.5 -147q-14 -78 -50 -143.5t-88.5 -112.5t-119 -73t-140.5 -26q-76 0 -134 27t-95 75.5t-50 115.5t1 147q14 78 50 143t88.5 112t119 73t140.5 26zM450 670q-61 0 -118.5 -22t-104 -63t-79.5 -99.5t-46 -132.5t-0.5 -133
t44.5 -100.5t82 -63.5t112 -22t119 22t103.5 63t79.5 99.5t46 132.5t0.5 133.5t-44.5 100.5t-82 63t-112 22zM289 -116q3 15 16 26t27 11q15 0 24 -11t6 -26q-2 -14 -15 -25t-28 -11q-14 0 -23 11t-7 25z" />
    <glyph glyph-name="uni1ECD" unicode="&#x1ecd;" horiz-adv-x="646" 
d="M372 550q57 0 103 -19t75.5 -55.5t41 -88.5t-0.5 -118q-12 -65 -41 -116t-71 -86.5t-94 -54.5t-109 -19q-58 0 -104 19t-76 55.5t-41.5 88.5t0.5 118q12 65 41.5 116t71.5 86.5t94.5 54.5t109.5 19zM365 510q-42 0 -84.5 -14t-79 -43t-63 -74t-37.5 -107t0 -107t37 -74.5
t63.5 -43.5t79.5 -14q43 0 85.5 14t78.5 43.5t62.5 74.5t37.5 107t0 107t-36.5 74t-63 43t-80.5 14zM217 -116q3 15 16 26t27 11q15 0 24 -11t6 -26q-2 -14 -15 -25t-28 -11q-14 0 -23 11t-7 25z" />
    <glyph glyph-name="uni1ECE" unicode="&#x1ece;" 
d="M510 922q38 0 53 -18.5t9 -53.5q-5 -27 -26.5 -47t-56.5 -50l-16 18q26 22 46 40.5t25 38.5q5 26 -5 35.5t-34 9.5q-27 0 -37.5 -13.5t-18.5 -36.5l-27 1q3 12 8.5 25.5t15 24.5t25 18.5t39.5 7.5zM455 711q75 0 133.5 -27t95 -75t50 -115t-0.5 -147q-14 -78 -50 -143.5
t-88.5 -112.5t-119 -73t-140.5 -26q-76 0 -134 27t-95 75.5t-50 115.5t1 147q14 78 50 143t88.5 112t119 73t140.5 26zM450 670q-61 0 -118.5 -22t-104 -63t-79.5 -99.5t-46 -132.5t-0.5 -133t44.5 -100.5t82 -63.5t112 -22t119 22t103.5 63t79.5 99.5t46 132.5t0.5 133.5
t-44.5 100.5t-82 63t-112 22z" />
    <glyph glyph-name="uni1ECF" unicode="&#x1ecf;" horiz-adv-x="646" 
d="M414 760q38 0 53 -18.5t9 -53.5q-5 -27 -26.5 -47t-56.5 -50l-16 18q26 22 46 40.5t25 38.5q5 26 -5 35.5t-34 9.5q-27 0 -37.5 -13.5t-18.5 -36.5l-27 1q3 12 8.5 25.5t15 24.5t25 18.5t39.5 7.5zM372 550q57 0 103 -19t75.5 -55.5t41 -88.5t-0.5 -118q-12 -65 -41 -116
t-71 -86.5t-94 -54.5t-109 -19q-58 0 -104 19t-76 55.5t-41.5 88.5t0.5 118q12 65 41.5 116t71.5 86.5t94.5 54.5t109.5 19zM365 510q-42 0 -84.5 -14t-79 -43t-63 -74t-37.5 -107t0 -107t37 -74.5t63.5 -43.5t79.5 -14q43 0 85.5 14t78.5 43.5t62.5 74.5t37.5 107t0 107
t-36.5 74t-63 43t-80.5 14z" />
    <glyph glyph-name="uni1ED0" unicode="&#x1ed0;" 
d="M602 969l-159 -94l-9 19l155 102zM501 829l-122 -70l-10 23l137 79l110 -79l-17 -23zM455 711q75 0 133.5 -27t95 -75t50 -115t-0.5 -147q-14 -78 -50 -143.5t-88.5 -112.5t-119 -73t-140.5 -26q-76 0 -134 27t-95 75.5t-50 115.5t1 147q14 78 50 143t88.5 112t119 73
t140.5 26zM450 670q-61 0 -118.5 -22t-104 -63t-79.5 -99.5t-46 -132.5t-0.5 -133t44.5 -100.5t82 -63.5t112 -22t119 22t103.5 63t79.5 99.5t46 132.5t0.5 133.5t-44.5 100.5t-82 63t-112 22z" />
    <glyph glyph-name="uni1ED1" unicode="&#x1ed1;" horiz-adv-x="646" 
d="M506 807l-159 -94l-9 19l155 102zM405 667l-122 -70l-10 23l137 79l110 -79l-17 -23zM372 550q57 0 103 -19t75.5 -55.5t41 -88.5t-0.5 -118q-12 -65 -41 -116t-71 -86.5t-94 -54.5t-109 -19q-58 0 -104 19t-76 55.5t-41.5 88.5t0.5 118q12 65 41.5 116t71.5 86.5
t94.5 54.5t109.5 19zM365 510q-42 0 -84.5 -14t-79 -43t-63 -74t-37.5 -107t0 -107t37 -74.5t63.5 -43.5t79.5 -14q43 0 85.5 14t78.5 43.5t62.5 74.5t37.5 107t0 107t-36.5 74t-63 43t-80.5 14z" />
    <glyph glyph-name="uni1ED2" unicode="&#x1ed2;" 
d="M610 872l-13 -22l-129 95l19 29zM501 829l-122 -70l-10 23l137 79l110 -79l-17 -23zM455 711q75 0 133.5 -27t95 -75t50 -115t-0.5 -147q-14 -78 -50 -143.5t-88.5 -112.5t-119 -73t-140.5 -26q-76 0 -134 27t-95 75.5t-50 115.5t1 147q14 78 50 143t88.5 112t119 73
t140.5 26zM450 670q-61 0 -118.5 -22t-104 -63t-79.5 -99.5t-46 -132.5t-0.5 -133t44.5 -100.5t82 -63.5t112 -22t119 22t103.5 63t79.5 99.5t46 132.5t0.5 133.5t-44.5 100.5t-82 63t-112 22z" />
    <glyph glyph-name="uni1ED3" unicode="&#x1ed3;" horiz-adv-x="646" 
d="M514 710l-13 -22l-129 95l19 29zM405 667l-122 -70l-10 23l137 79l110 -79l-17 -23zM372 550q57 0 103 -19t75.5 -55.5t41 -88.5t-0.5 -118q-12 -65 -41 -116t-71 -86.5t-94 -54.5t-109 -19q-58 0 -104 19t-76 55.5t-41.5 88.5t0.5 118q12 65 41.5 116t71.5 86.5
t94.5 54.5t109.5 19zM365 510q-42 0 -84.5 -14t-79 -43t-63 -74t-37.5 -107t0 -107t37 -74.5t63.5 -43.5t79.5 -14q43 0 85.5 14t78.5 43.5t62.5 74.5t37.5 107t0 107t-36.5 74t-63 43t-80.5 14z" />
    <glyph glyph-name="uni1ED4" unicode="&#x1ed4;" 
d="M641 997q38 0 52.5 -18.5t8.5 -53.5q-5 -26 -26 -46t-56 -49l-16 17q26 22 46 40t25 38q5 26 -5 35.5t-34 9.5q-27 0 -37 -13.5t-18 -35.5l-27 1q3 12 8.5 25t15 24t25 18.5t38.5 7.5zM501 829l-122 -70l-10 23l137 79l110 -79l-17 -23zM455 711q75 0 133.5 -27t95 -75
t50 -115t-0.5 -147q-14 -78 -50 -143.5t-88.5 -112.5t-119 -73t-140.5 -26q-76 0 -134 27t-95 75.5t-50 115.5t1 147q14 78 50 143t88.5 112t119 73t140.5 26zM450 670q-61 0 -118.5 -22t-104 -63t-79.5 -99.5t-46 -132.5t-0.5 -133t44.5 -100.5t82 -63.5t112 -22t119 22
t103.5 63t79.5 99.5t46 132.5t0.5 133.5t-44.5 100.5t-82 63t-112 22z" />
    <glyph glyph-name="uni1ED5" unicode="&#x1ed5;" horiz-adv-x="646" 
d="M545 835q38 0 52.5 -18.5t8.5 -53.5q-5 -26 -26 -46t-56 -49l-16 17q26 22 46 40t25 38q5 26 -5 35.5t-34 9.5q-27 0 -37 -13.5t-18 -35.5l-27 1q3 12 8.5 25t15 24t25 18.5t38.5 7.5zM405 667l-122 -70l-10 23l137 79l110 -79l-17 -23zM372 550q57 0 103 -19t75.5 -55.5
t41 -88.5t-0.5 -118q-12 -65 -41 -116t-71 -86.5t-94 -54.5t-109 -19q-58 0 -104 19t-76 55.5t-41.5 88.5t0.5 118q12 65 41.5 116t71.5 86.5t94.5 54.5t109.5 19zM365 510q-42 0 -84.5 -14t-79 -43t-63 -74t-37.5 -107t0 -107t37 -74.5t63.5 -43.5t79.5 -14q43 0 85.5 14
t78.5 43.5t62.5 74.5t37.5 107t0 107t-36.5 74t-63 43t-80.5 14z" />
    <glyph glyph-name="uni1ED6" unicode="&#x1ed6;" 
d="M481 955q18 0 29.5 -7.5t21 -16.5t20 -16.5t26.5 -7.5t29.5 11.5t20.5 33.5h26q-9 -32 -31.5 -52t-49.5 -20q-19 0 -31.5 7.5t-22 16t-19.5 16t-25 7.5q-34 0 -49 -46h-26q12 35 32.5 54.5t48.5 19.5zM501 829l-122 -70l-10 23l137 79l110 -79l-17 -23zM455 711
q75 0 133.5 -27t95 -75t50 -115t-0.5 -147q-14 -78 -50 -143.5t-88.5 -112.5t-119 -73t-140.5 -26q-76 0 -134 27t-95 75.5t-50 115.5t1 147q14 78 50 143t88.5 112t119 73t140.5 26zM450 670q-61 0 -118.5 -22t-104 -63t-79.5 -99.5t-46 -132.5t-0.5 -133t44.5 -100.5
t82 -63.5t112 -22t119 22t103.5 63t79.5 99.5t46 132.5t0.5 133.5t-44.5 100.5t-82 63t-112 22z" />
    <glyph glyph-name="uni1ED7" unicode="&#x1ed7;" horiz-adv-x="646" 
d="M385 793q18 0 29.5 -7.5t21 -16.5t20 -16.5t26.5 -7.5t29.5 11.5t20.5 33.5h26q-9 -32 -31.5 -52t-49.5 -20q-19 0 -31.5 7.5t-22 16t-19.5 16t-25 7.5q-34 0 -49 -46h-26q12 35 32.5 54.5t48.5 19.5zM405 667l-122 -70l-10 23l137 79l110 -79l-17 -23zM372 550
q57 0 103 -19t75.5 -55.5t41 -88.5t-0.5 -118q-12 -65 -41 -116t-71 -86.5t-94 -54.5t-109 -19q-58 0 -104 19t-76 55.5t-41.5 88.5t0.5 118q12 65 41.5 116t71.5 86.5t94.5 54.5t109.5 19zM365 510q-42 0 -84.5 -14t-79 -43t-63 -74t-37.5 -107t0 -107t37 -74.5t63.5 -43.5
t79.5 -14q43 0 85.5 14t78.5 43.5t62.5 74.5t37.5 107t0 107t-36.5 74t-63 43t-80.5 14z" />
    <glyph glyph-name="uni1ED8" unicode="&#x1ed8;" 
d="M502 830l-124 -71l-10 23l139 80l111 -80l-17 -23zM455 711q75 0 133.5 -27t95 -75t50 -115t-0.5 -147q-14 -78 -50 -143.5t-88.5 -112.5t-119 -73t-140.5 -26q-76 0 -134 27t-95 75.5t-50 115.5t1 147q14 78 50 143t88.5 112t119 73t140.5 26zM450 670q-61 0 -118.5 -22
t-104 -63t-79.5 -99.5t-46 -132.5t-0.5 -133t44.5 -100.5t82 -63.5t112 -22t119 22t103.5 63t79.5 99.5t46 132.5t0.5 133.5t-44.5 100.5t-82 63t-112 22zM289 -116q3 15 16 26t27 11q15 0 24 -11t6 -26q-2 -14 -15 -25t-28 -11q-14 0 -23 11t-7 25z" />
    <glyph glyph-name="uni1ED9" unicode="&#x1ed9;" horiz-adv-x="646" 
d="M406 668l-124 -71l-10 23l139 80l111 -80l-17 -23zM372 550q57 0 103 -19t75.5 -55.5t41 -88.5t-0.5 -118q-12 -65 -41 -116t-71 -86.5t-94 -54.5t-109 -19q-58 0 -104 19t-76 55.5t-41.5 88.5t0.5 118q12 65 41.5 116t71.5 86.5t94.5 54.5t109.5 19zM365 510
q-42 0 -84.5 -14t-79 -43t-63 -74t-37.5 -107t0 -107t37 -74.5t63.5 -43.5t79.5 -14q43 0 85.5 14t78.5 43.5t62.5 74.5t37.5 107t0 107t-36.5 74t-63 43t-80.5 14zM217 -116q3 15 16 26t27 11q15 0 24 -11t6 -26q-2 -14 -15 -25t-28 -11q-14 0 -23 11t-7 25z" />
    <glyph glyph-name="uni1EDA" unicode="&#x1eda;" 
d="M412 759l-9 19l157 103l13 -27zM588 684q88 -39 127.5 -127.5t17.5 -209.5q-14 -78 -50 -143.5t-88.5 -112.5t-119 -73t-140.5 -26q-76 0 -134 27t-95 75.5t-50 115.5t1 147q14 78 50 143t88.5 112t119 73t140.5 26q36 0 67 -6q48 0 82.5 26.5t45.5 91.5h37
q-10 -55 -36.5 -89t-62.5 -50zM688 351q13 74 0.5 133.5t-44.5 100.5t-82 63t-112 22q-61 0 -118.5 -22t-104 -63t-79.5 -99.5t-46 -132.5t-0.5 -133t44.5 -100.5t82 -63.5t112 -22t119 22t103.5 63t79.5 99.5t46 132.5z" />
    <glyph glyph-name="uni1EDB" unicode="&#x1edb;" horiz-adv-x="646" 
d="M316 597l-9 19l157 103l13 -27zM495 521q59 -32 85.5 -96t10.5 -156q-12 -65 -41 -116t-71 -86.5t-94 -54.5t-109 -19q-58 0 -104 19t-76 55.5t-41.5 88.5t0.5 118q12 65 41.5 116t71.5 86.5t94.5 54.5t109.5 19q37 0 65 -7q46 2 79 28.5t44 89.5h37q-10 -57 -37.5 -90.5
t-64.5 -49.5zM545 272q11 62 0 107t-36.5 74t-63 43t-80.5 14q-42 0 -84.5 -14t-79 -43t-63 -74t-37.5 -107t0 -107t37 -74.5t63.5 -43.5t79.5 -14q43 0 85.5 14t78.5 43.5t62.5 74.5t37.5 107z" />
    <glyph glyph-name="uni1EDC" unicode="&#x1edc;" 
d="M567 756l-130 96l19 29l124 -103zM588 684q88 -39 127.5 -127.5t17.5 -209.5q-14 -78 -50 -143.5t-88.5 -112.5t-119 -73t-140.5 -26q-76 0 -134 27t-95 75.5t-50 115.5t1 147q14 78 50 143t88.5 112t119 73t140.5 26q36 0 67 -6q48 0 82.5 26.5t45.5 91.5h37
q-10 -55 -36.5 -89t-62.5 -50zM688 351q13 74 0.5 133.5t-44.5 100.5t-82 63t-112 22q-61 0 -118.5 -22t-104 -63t-79.5 -99.5t-46 -132.5t-0.5 -133t44.5 -100.5t82 -63.5t112 -22t119 22t103.5 63t79.5 99.5t46 132.5z" />
    <glyph glyph-name="uni1EDD" unicode="&#x1edd;" horiz-adv-x="646" 
d="M471 594l-130 96l19 29l124 -103zM495 521q59 -32 85.5 -96t10.5 -156q-12 -65 -41 -116t-71 -86.5t-94 -54.5t-109 -19q-58 0 -104 19t-76 55.5t-41.5 88.5t0.5 118q12 65 41.5 116t71.5 86.5t94.5 54.5t109.5 19q37 0 65 -7q46 2 79 28.5t44 89.5h37
q-10 -57 -37.5 -90.5t-64.5 -49.5zM545 272q11 62 0 107t-36.5 74t-63 43t-80.5 14q-42 0 -84.5 -14t-79 -43t-63 -74t-37.5 -107t0 -107t37 -74.5t63.5 -43.5t79.5 -14q43 0 85.5 14t78.5 43.5t62.5 74.5t37.5 107z" />
    <glyph glyph-name="uni1EDE" unicode="&#x1ede;" 
d="M505 895q-27 0 -37.5 -13.5t-18.5 -36.5l-27 1q3 12 8.5 25.5t15 24.5t25 18.5t39.5 7.5q38 0 53 -18.5t9 -53.5q-5 -27 -26.5 -47t-56.5 -50l-16 18q26 22 46 40.5t25 38.5q5 26 -5 35.5t-34 9.5zM588 684q88 -39 127.5 -127.5t17.5 -209.5q-14 -78 -50 -143.5
t-88.5 -112.5t-119 -73t-140.5 -26q-76 0 -134 27t-95 75.5t-50 115.5t1 147q14 78 50 143t88.5 112t119 73t140.5 26q36 0 67 -6q48 0 82.5 26.5t45.5 91.5h37q-10 -55 -36.5 -89t-62.5 -50zM688 351q13 74 0.5 133.5t-44.5 100.5t-82 63t-112 22q-61 0 -118.5 -22
t-104 -63t-79.5 -99.5t-46 -132.5t-0.5 -133t44.5 -100.5t82 -63.5t112 -22t119 22t103.5 63t79.5 99.5t46 132.5z" />
    <glyph glyph-name="uni1EDF" unicode="&#x1edf;" horiz-adv-x="646" 
d="M409 733q-27 0 -37.5 -13.5t-18.5 -36.5l-27 1q3 12 8.5 25.5t15 24.5t25 18.5t39.5 7.5q38 0 53 -18.5t9 -53.5q-5 -27 -26.5 -47t-56.5 -50l-16 18q26 22 46 40.5t25 38.5q5 26 -5 35.5t-34 9.5zM495 521q59 -32 85.5 -96t10.5 -156q-12 -65 -41 -116t-71 -86.5
t-94 -54.5t-109 -19q-58 0 -104 19t-76 55.5t-41.5 88.5t0.5 118q12 65 41.5 116t71.5 86.5t94.5 54.5t109.5 19q37 0 65 -7q46 2 79 28.5t44 89.5h37q-10 -57 -37.5 -90.5t-64.5 -49.5zM545 272q11 62 0 107t-36.5 74t-63 43t-80.5 14q-42 0 -84.5 -14t-79 -43t-63 -74
t-37.5 -107t0 -107t37 -74.5t63.5 -43.5t79.5 -14q43 0 85.5 14t78.5 43.5t62.5 74.5t37.5 107z" />
    <glyph glyph-name="uni1EE0" unicode="&#x1ee0;" 
d="M396 840q-35 0 -50 -47h-27q12 36 33 56t50 20q19 0 30.5 -7.5t21.5 -17t21 -17t28 -7.5q16 0 30 11.5t21 34.5h27q-9 -33 -32 -53.5t-52 -20.5q-19 0 -31.5 7.5t-23 16.5t-21 16.5t-25.5 7.5zM588 684q88 -39 127.5 -127.5t17.5 -209.5q-14 -78 -50 -143.5t-88.5 -112.5
t-119 -73t-140.5 -26q-76 0 -134 27t-95 75.5t-50 115.5t1 147q14 78 50 143t88.5 112t119 73t140.5 26q36 0 67 -6q48 0 82.5 26.5t45.5 91.5h37q-10 -55 -36.5 -89t-62.5 -50zM688 351q13 74 0.5 133.5t-44.5 100.5t-82 63t-112 22q-61 0 -118.5 -22t-104 -63t-79.5 -99.5
t-46 -132.5t-0.5 -133t44.5 -100.5t82 -63.5t112 -22t119 22t103.5 63t79.5 99.5t46 132.5z" />
    <glyph glyph-name="uni1EE1" unicode="&#x1ee1;" horiz-adv-x="646" 
d="M311 662q-35 0 -50 -47h-27q12 36 33 56t50 20q19 0 30.5 -7.5t21.5 -17t21 -17t28 -7.5q16 0 30 11.5t21 34.5h27q-9 -33 -32 -53.5t-52 -20.5q-19 0 -31.5 7.5t-23 16.5t-21 16.5t-25.5 7.5zM495 521q59 -32 85.5 -96t10.5 -156q-12 -65 -41 -116t-71 -86.5t-94 -54.5
t-109 -19q-58 0 -104 19t-76 55.5t-41.5 88.5t0.5 118q12 65 41.5 116t71.5 86.5t94.5 54.5t109.5 19q37 0 65 -7q46 2 79 28.5t44 89.5h37q-10 -57 -37.5 -90.5t-64.5 -49.5zM545 272q11 62 0 107t-36.5 74t-63 43t-80.5 14q-42 0 -84.5 -14t-79 -43t-63 -74t-37.5 -107
t0 -107t37 -74.5t63.5 -43.5t79.5 -14q43 0 85.5 14t78.5 43.5t62.5 74.5t37.5 107z" />
    <glyph glyph-name="uni1EE2" unicode="&#x1ee2;" 
d="M588 684q88 -39 127.5 -127.5t17.5 -209.5q-14 -78 -50 -143.5t-88.5 -112.5t-119 -73t-140.5 -26q-76 0 -134 27t-95 75.5t-50 115.5t1 147q14 78 50 143t88.5 112t119 73t140.5 26q36 0 67 -6q48 0 82.5 26.5t45.5 91.5h37q-10 -55 -36.5 -89t-62.5 -50zM688 351
q13 74 0.5 133.5t-44.5 100.5t-82 63t-112 22q-61 0 -118.5 -22t-104 -63t-79.5 -99.5t-46 -132.5t-0.5 -133t44.5 -100.5t82 -63.5t112 -22t119 22t103.5 63t79.5 99.5t46 132.5zM332 -79q15 0 24 -11t6 -26q-2 -14 -15 -25t-28 -11q-14 0 -23 11t-7 25q3 15 16 26t27 11z
" />
    <glyph glyph-name="uni1EE3" unicode="&#x1ee3;" horiz-adv-x="646" 
d="M495 521q59 -32 85.5 -96t10.5 -156q-12 -65 -41 -116t-71 -86.5t-94 -54.5t-109 -19q-58 0 -104 19t-76 55.5t-41.5 88.5t0.5 118q12 65 41.5 116t71.5 86.5t94.5 54.5t109.5 19q37 0 65 -7q46 2 79 28.5t44 89.5h37q-10 -57 -37.5 -90.5t-64.5 -49.5zM545 272
q11 62 0 107t-36.5 74t-63 43t-80.5 14q-42 0 -84.5 -14t-79 -43t-63 -74t-37.5 -107t0 -107t37 -74.5t63.5 -43.5t79.5 -14q43 0 85.5 14t78.5 43.5t62.5 74.5t37.5 107zM260 -79q15 0 24 -11t6 -26q-2 -14 -15 -25t-28 -11q-14 0 -23 11t-7 25q3 15 16 26t27 11z" />
    <glyph glyph-name="uni1EE4" unicode="&#x1ee4;" horiz-adv-x="640" 
d="M184 705l-77 -433q-11 -64 -4 -109.5t29 -73.5t56.5 -41t78.5 -13q43 0 81.5 13t70 41t54 73.5t33.5 109.5l76 433h45l-76 -433q-13 -73 -40 -126t-65.5 -87t-85.5 -50t-101 -16t-96 16t-69 50t-36 87t4 126l76 433h46zM212 -116q3 15 16 26t27 11q15 0 24 -11t6 -26
q-2 -14 -15 -25t-28 -11q-14 0 -23 11t-7 25z" />
    <glyph glyph-name="uni1EE5" unicode="&#x1ee5;" horiz-adv-x="610" 
d="M578 543l-95 -543h-46l25 142q-18 -39 -43.5 -68t-56 -48t-65 -28t-69.5 -9q-45 0 -81.5 14t-61 43t-33.5 74t2 107l56 316h44l-55 -315q-17 -100 24 -150t124 -50q42 0 80.5 13.5t69.5 41.5t53 71t32 101l51 288h45zM242 -79q15 0 24 -11t6 -26q-2 -14 -15 -25t-28 -11
q-14 0 -23 11t-7 25q3 15 16 26t27 11z" />
    <glyph glyph-name="uni1EE6" unicode="&#x1ee6;" horiz-adv-x="640" 
d="M439 922q38 0 53 -18.5t9 -53.5q-5 -27 -26.5 -47t-56.5 -50l-16 18q26 22 46 40.5t25 38.5q5 26 -5 35.5t-34 9.5q-27 0 -37.5 -13.5t-18.5 -36.5l-27 1q3 12 8.5 25.5t15 24.5t25 18.5t39.5 7.5zM184 705l-77 -433q-11 -64 -4 -109.5t29 -73.5t56.5 -41t78.5 -13
q43 0 81.5 13t70 41t54 73.5t33.5 109.5l76 433h45l-76 -433q-13 -73 -40 -126t-65.5 -87t-85.5 -50t-101 -16t-96 16t-69 50t-36 87t4 126l76 433h46z" />
    <glyph glyph-name="uni1EE7" unicode="&#x1ee7;" horiz-adv-x="610" 
d="M391 733q-27 0 -37.5 -13.5t-18.5 -36.5l-27 1q3 12 8.5 25.5t15 24.5t25 18.5t39.5 7.5q38 0 53 -18.5t9 -53.5q-5 -27 -26.5 -47t-56.5 -50l-16 18q26 22 46 40.5t25 38.5q5 26 -5 35.5t-34 9.5zM578 543l-95 -543h-46l25 142q-18 -39 -43.5 -68t-56 -48t-65 -28
t-69.5 -9q-45 0 -81.5 14t-61 43t-33.5 74t2 107l56 316h44l-55 -315q-17 -100 24 -150t124 -50q42 0 80.5 13.5t69.5 41.5t53 71t32 101l51 288h45z" />
    <glyph glyph-name="uni1EE8" unicode="&#x1ee8;" horiz-adv-x="640" 
d="M341 759l-9 19l157 103l13 -27zM760 823q-12 -70 -50.5 -106t-88.5 -44l-70 -401q-13 -73 -40 -126t-65.5 -87t-85.5 -50t-101 -16t-96 16t-69 50t-36 87t4 126l76 433h46l-77 -433q-11 -64 -4 -109.5t29 -73.5t56.5 -41t78.5 -13q43 0 81.5 13t70 41t54 73.5t33.5 109.5
l76 433h13q48 0 82.5 26.5t45.5 91.5h37z" />
    <glyph glyph-name="uni1EE9" unicode="&#x1ee9;" horiz-adv-x="610" 
d="M298 597l-9 19l157 103l13 -27zM712 661q-12 -70 -51 -106t-89 -44l-89 -511h-46l25 142q-18 -39 -43.5 -68t-56 -48t-65 -28t-69.5 -9q-45 0 -81.5 14t-61 43t-33.5 74t2 107l56 316h44l-55 -315q-17 -100 24 -150t124 -50q42 0 80.5 13.5t69.5 41.5t53 71t32 101
l51 288h14q48 0 82.5 26.5t45.5 91.5h37z" />
    <glyph glyph-name="uni1EEA" unicode="&#x1eea;" horiz-adv-x="640" 
d="M496 756l-130 96l19 29l124 -103zM760 823q-12 -70 -50.5 -106t-88.5 -44l-70 -401q-13 -73 -40 -126t-65.5 -87t-85.5 -50t-101 -16t-96 16t-69 50t-36 87t4 126l76 433h46l-77 -433q-11 -64 -4 -109.5t29 -73.5t56.5 -41t78.5 -13q43 0 81.5 13t70 41t54 73.5
t33.5 109.5l76 433h13q48 0 82.5 26.5t45.5 91.5h37z" />
    <glyph glyph-name="uni1EEB" unicode="&#x1eeb;" horiz-adv-x="610" 
d="M453 594l-130 96l19 29l124 -103zM712 661q-12 -70 -51 -106t-89 -44l-89 -511h-46l25 142q-18 -39 -43.5 -68t-56 -48t-65 -28t-69.5 -9q-45 0 -81.5 14t-61 43t-33.5 74t2 107l56 316h44l-55 -315q-17 -100 24 -150t124 -50q42 0 80.5 13.5t69.5 41.5t53 71t32 101
l51 288h14q48 0 82.5 26.5t45.5 91.5h37z" />
    <glyph glyph-name="uni1EEC" unicode="&#x1eec;" horiz-adv-x="640" 
d="M434 895q-27 0 -37.5 -13.5t-18.5 -36.5l-27 1q3 12 8.5 25.5t15 24.5t25 18.5t39.5 7.5q38 0 53 -18.5t9 -53.5q-5 -27 -26.5 -47t-56.5 -50l-16 18q26 22 46 40.5t25 38.5q5 26 -5 35.5t-34 9.5zM760 823q-12 -70 -50.5 -106t-88.5 -44l-70 -401q-13 -73 -40 -126
t-65.5 -87t-85.5 -50t-101 -16t-96 16t-69 50t-36 87t4 126l76 433h46l-77 -433q-11 -64 -4 -109.5t29 -73.5t56.5 -41t78.5 -13q43 0 81.5 13t70 41t54 73.5t33.5 109.5l76 433h13q48 0 82.5 26.5t45.5 91.5h37z" />
    <glyph glyph-name="uni1EED" unicode="&#x1eed;" horiz-adv-x="610" 
d="M391 733q-27 0 -37.5 -13.5t-18.5 -36.5l-27 1q3 12 8.5 25.5t15 24.5t25 18.5t39.5 7.5q38 0 53 -18.5t9 -53.5q-5 -27 -26.5 -47t-56.5 -50l-16 18q26 22 46 40.5t25 38.5q5 26 -5 35.5t-34 9.5zM712 661q-12 -70 -51 -106t-89 -44l-89 -511h-46l25 142
q-18 -39 -43.5 -68t-56 -48t-65 -28t-69.5 -9q-45 0 -81.5 14t-61 43t-33.5 74t2 107l56 316h44l-55 -315q-17 -100 24 -150t124 -50q42 0 80.5 13.5t69.5 41.5t53 71t32 101l51 288h14q48 0 82.5 26.5t45.5 91.5h37z" />
    <glyph glyph-name="uni1EEE" unicode="&#x1eee;" horiz-adv-x="640" 
d="M360 814q-35 0 -50 -47h-27q12 36 33 56t50 20q19 0 30.5 -7.5t21.5 -17t21 -17t28 -7.5q16 0 30 11.5t21 34.5h27q-9 -33 -32 -53.5t-52 -20.5q-19 0 -31.5 7.5t-23 16.5t-21 16.5t-25.5 7.5zM760 823q-12 -70 -50.5 -106t-88.5 -44l-70 -401q-13 -73 -40 -126
t-65.5 -87t-85.5 -50t-101 -16t-96 16t-69 50t-36 87t4 126l76 433h46l-77 -433q-11 -64 -4 -109.5t29 -73.5t56.5 -41t78.5 -13q43 0 81.5 13t70 41t54 73.5t33.5 109.5l76 433h13q48 0 82.5 26.5t45.5 91.5h37z" />
    <glyph glyph-name="uni1EEF" unicode="&#x1eef;" horiz-adv-x="610" 
d="M317 652q-35 0 -50 -47h-27q12 36 33 56t50 20q19 0 30.5 -7.5t21.5 -17t21 -17t28 -7.5q16 0 30 11.5t21 34.5h27q-9 -33 -32 -53.5t-52 -20.5q-19 0 -31.5 7.5t-23 16.5t-21 16.5t-25.5 7.5zM712 661q-12 -70 -51 -106t-89 -44l-89 -511h-46l25 142q-18 -39 -43.5 -68
t-56 -48t-65 -28t-69.5 -9q-45 0 -81.5 14t-61 43t-33.5 74t2 107l56 316h44l-55 -315q-17 -100 24 -150t124 -50q42 0 80.5 13.5t69.5 41.5t53 71t32 101l51 288h14q48 0 82.5 26.5t45.5 91.5h37z" />
    <glyph glyph-name="uni1EF0" unicode="&#x1ef0;" horiz-adv-x="640" 
d="M760 823q-12 -70 -50.5 -106t-88.5 -44l-70 -401q-13 -73 -40 -126t-65.5 -87t-85.5 -50t-101 -16t-96 16t-69 50t-36 87t4 126l76 433h46l-77 -433q-11 -64 -4 -109.5t29 -73.5t56.5 -41t78.5 -13q43 0 81.5 13t70 41t54 73.5t33.5 109.5l76 433h13q48 0 82.5 26.5
t45.5 91.5h37zM255 -79q15 0 24 -11t6 -26q-2 -14 -15 -25t-28 -11q-14 0 -23 11t-7 25q3 15 16 26t27 11z" />
    <glyph glyph-name="uni1EF1" unicode="&#x1ef1;" horiz-adv-x="610" 
d="M712 661q-12 -70 -51 -106t-89 -44l-89 -511h-46l25 142q-18 -39 -43.5 -68t-56 -48t-65 -28t-69.5 -9q-45 0 -81.5 14t-61 43t-33.5 74t2 107l56 316h44l-55 -315q-17 -100 24 -150t124 -50q42 0 80.5 13.5t69.5 41.5t53 71t32 101l51 288h14q48 0 82.5 26.5t45.5 91.5
h37zM242 -79q15 0 24 -11t6 -26q-2 -14 -15 -25t-28 -11q-14 0 -23 11t-7 25q3 15 16 26t27 11z" />
    <glyph glyph-name="Ygrave" unicode="&#x1ef2;" horiz-adv-x="545" 
d="M448 756l-130 96l19 29l124 -103zM580 705l-296 -420l-50 -285h-46l51 285l-151 420h53l128 -373l259 373h52z" />
    <glyph glyph-name="ygrave" unicode="&#x1ef3;" horiz-adv-x="524" 
d="M423 616l-13 -22l-130 96l19 29zM106 543l119 -483l273 483h50l-456 -799h-52l150 259l-134 540h50z" />
    <glyph glyph-name="uni1EF4" unicode="&#x1ef4;" horiz-adv-x="545" 
d="M580 705l-296 -420l-50 -285h-46l51 285l-151 420h53l128 -373l259 373h52zM209 -79q15 0 24 -11t6 -26q-2 -14 -15 -25t-28 -11q-14 0 -23 11t-7 25q3 15 16 26t27 11z" />
    <glyph glyph-name="uni1EF5" unicode="&#x1ef5;" horiz-adv-x="524" 
d="M106 543l119 -483l273 483h50l-456 -799h-52l150 259l-134 540h50zM182 -116q3 15 16 26t27 11q15 0 24 -11t6 -26q-2 -14 -15 -25t-28 -11q-14 0 -23 11t-7 25z" />
    <glyph glyph-name="uni1EF6" unicode="&#x1ef6;" horiz-adv-x="545" 
d="M386 895q-27 0 -37.5 -13.5t-18.5 -36.5l-27 1q3 12 8.5 25.5t15 24.5t25 18.5t39.5 7.5q38 0 53 -18.5t9 -53.5q-5 -27 -26.5 -47t-56.5 -50l-16 18q26 22 46 40.5t25 38.5q5 26 -5 35.5t-34 9.5zM580 705l-296 -420l-50 -285h-46l51 285l-151 420h53l128 -373l259 373
h52z" />
    <glyph glyph-name="uni1EF7" unicode="&#x1ef7;" horiz-adv-x="524" 
d="M353 760q38 0 53 -18.5t9 -53.5q-5 -27 -26.5 -47t-56.5 -50l-16 18q26 22 46 40.5t25 38.5q5 26 -5 35.5t-34 9.5q-27 0 -37.5 -13.5t-18.5 -36.5l-27 1q3 12 8.5 25.5t15 24.5t25 18.5t39.5 7.5zM106 543l119 -483l273 483h50l-456 -799h-52l150 259l-134 540h50z" />
    <glyph glyph-name="uni1EF8" unicode="&#x1ef8;" horiz-adv-x="545" 
d="M312 814q-35 0 -50 -47h-27q12 36 33 56t50 20q19 0 30.5 -7.5t21.5 -17t21 -17t28 -7.5q16 0 30 11.5t21 34.5h27q-9 -33 -32 -53.5t-52 -20.5q-19 0 -31.5 7.5t-23 16.5t-21 16.5t-25.5 7.5zM580 705l-296 -420l-50 -285h-46l51 285l-151 420h53l128 -373l259 373h52z
" />
    <glyph glyph-name="uni1EF9" unicode="&#x1ef9;" horiz-adv-x="524" 
d="M280 681q19 0 30.5 -7.5t21.5 -17t21 -17t28 -7.5q16 0 30 11.5t21 34.5h27q-9 -33 -32 -53.5t-52 -20.5q-19 0 -31.5 7.5t-23 16.5t-21 16.5t-25.5 7.5q-35 0 -50 -47h-27q12 36 33 56t50 20zM106 543l119 -483l273 483h50l-456 -799h-52l150 259l-134 540h50z" />
    <glyph glyph-name="endash" unicode="&#x2013;" horiz-adv-x="594" 
d="M555 395l-7 -39h-510l7 39h510z" />
    <glyph glyph-name="emdash" unicode="&#x2014;" horiz-adv-x="786" 
d="M747 395l-7 -39h-702l7 39h702z" />
    <glyph glyph-name="quoteleft" unicode="&#x2018;" horiz-adv-x="142" 
d="M25 590q0 23 2 42t4 35q9 51 33.5 70.5t61.5 19.5l-4 -27q-26 0 -38 -12.5t-17 -36.5l-5 -27h42l-11 -64h-68z" />
    <glyph glyph-name="quoteright" unicode="&#x2019;" horiz-adv-x="142" 
d="M117 757q0 -23 -2 -42t-4 -35q-9 -51 -33.5 -70.5t-61.5 -19.5l4 27q26 0 38.5 12.5t16.5 36.5l5 26h-42l11 65h68z" />
    <glyph glyph-name="quotesinglbase" unicode="&#x201a;" horiz-adv-x="155" 
d="M89 44q2 -70 -24 -108t-74 -38l5 26q45 0 53 55l2 7h-38l10 58h66z" />
    <glyph glyph-name="quotedblleft" unicode="&#x201c;" horiz-adv-x="245" 
d="M25 590q0 23 2 42t4 35q9 51 33.5 70.5t61.5 19.5l-4 -27q-26 0 -38 -12.5t-17 -36.5l-5 -27h42l-11 -64h-68zM128 590q0 23 2 42t5 35q9 51 33.5 70.5t61.5 19.5l-5 -27q-26 0 -38 -12.5t-17 -36.5l-5 -27h43l-12 -64h-68z" />
    <glyph glyph-name="quotedblright" unicode="&#x201d;" horiz-adv-x="245" 
d="M117 757q0 -23 -2 -42t-4 -35q-9 -51 -33.5 -70.5t-61.5 -19.5l4 27q26 0 38.5 12.5t16.5 36.5l5 26h-42l11 65h68zM221 757q-1 -23 -2.5 -42t-4.5 -35q-9 -51 -33.5 -70.5t-61.5 -19.5l5 27q26 0 38 12.5t16 36.5l5 26h-42l11 65h69z" />
    <glyph glyph-name="quotedblbase" unicode="&#x201e;" horiz-adv-x="245" 
d="M95 65q0 -23 -2 -42t-4 -35q-9 -51 -33.5 -70.5t-61.5 -19.5l4 27q26 0 38.5 12.5t16.5 36.5l5 26h-42l11 65h68zM199 65q-1 -23 -2.5 -42t-4.5 -35q-9 -51 -33.5 -70.5t-61.5 -19.5l5 27q26 0 38 12.5t16 36.5l5 26h-42l11 65h69z" />
    <glyph glyph-name="dagger" unicode="&#x2020;" horiz-adv-x="465" 
d="M475 505l-181 4l-130 -765h-44l139 765l-183 -4l6 38l182 -4l38 238h44l-47 -238l183 4z" />
    <glyph glyph-name="daggerdbl" unicode="&#x2021;" horiz-adv-x="466" 
d="M295 509l-88 -498l183 6l-7 -40l-181 5l-39 -238h-43l46 238l-183 -5l7 40l182 -6l87 498l-183 -4l6 38l183 -4l37 238h44l-46 -238l183 4l-7 -38z" />
    <glyph glyph-name="bullet" unicode="&#x2022;" horiz-adv-x="291" 
d="M39 333q4 23 15.5 42.5t28.5 34t38 23t43 8.5q45 0 70.5 -31.5t17.5 -76.5q-4 -22 -15.5 -41.5t-28.5 -33.5t-37.5 -22.5t-43.5 -8.5q-22 0 -40 8.5t-30 22.5t-17 33.5t-1 41.5z" />
    <glyph glyph-name="ellipsis" unicode="&#x2026;" horiz-adv-x="453" 
d="M101 69l-12 -69h-71l12 69h71zM261 69l-12 -69h-71l12 69h71zM421 69l-12 -69h-71l12 69h71z" />
    <glyph glyph-name="perthousand" unicode="&#x2030;" horiz-adv-x="886" 
d="M235 712q57 0 88.5 -37.5t20.5 -97.5q-5 -30 -19.5 -55t-35.5 -43t-47 -28t-55 -10q-58 0 -89.5 38t-20.5 98q5 30 19.5 55t35.5 42.5t47.5 27.5t55.5 10zM581 705l-541 -705h-47l541 705h47zM113 577q-8 -45 14 -74.5t65 -29.5q44 0 76.5 29.5t40.5 74.5t-14 74t-66 29
t-76 -29t-40 -74zM388 263q58 0 89.5 -38t20.5 -98q-5 -30 -19.5 -55t-35.5 -42.5t-47.5 -27.5t-55.5 -10q-57 0 -88.5 37.5t-20.5 97.5q5 30 19.5 55t35.5 43t47 28t55 10zM699 263q58 0 89.5 -38t20.5 -98q-5 -30 -19.5 -55t-35.5 -42.5t-47.5 -27.5t-55.5 -10
q-57 0 -89 37.5t-21 97.5q6 30 20.5 55t35.5 43t47 28t55 10zM266 127q-8 -45 14 -74t66 -29t76 29t40 74q8 46 -14 75t-66 29t-76 -29t-40 -75zM577 127q-8 -45 14 -74t66 -29t76 29t40 74q8 46 -14 75t-66 29t-76 -29t-40 -75z" />
    <glyph glyph-name="guilsinglleft" unicode="&#x2039;" horiz-adv-x="247" 
d="M117 120l-72 175l134 175h49l-136 -175l74 -175h-49z" />
    <glyph glyph-name="guilsinglright" unicode="&#x203a;" horiz-adv-x="247" 
d="M156 295l-75 175h50l71 -175l-133 -175h-50z" />
    <glyph glyph-name="fraction" unicode="&#x2044;" horiz-adv-x="251" 
d="M419 705l-541 -705h-47l541 705h47z" />
    <glyph glyph-name="uni20A8" unicode="&#x20a8;" horiz-adv-x="1020" 
d="M340 705q61 0 102 -15t64.5 -42t30 -64.5t-1.5 -82.5q-16 -91 -76 -142t-160 -58l154 -301h-53l-151 300h-132l-53 -300h-45l124 705h197zM489 500q7 38 2.5 68t-23 51.5t-52.5 33t-85 11.5h-150l-57 -327h149q51 0 89 12t64 33.5t41.5 51.5t21.5 66zM921 380
q2 27 -4.5 51t-23 42.5t-42.5 29.5t-63 11q-63 0 -102.5 -30.5t-48.5 -79.5q-7 -41 14 -62.5t56.5 -34t77.5 -21t77 -24t55 -44t11 -80.5q-6 -31 -22.5 -58t-41.5 -46t-58 -30t-71 -11q-91 0 -141 45.5t-46 124.5h45q-2 -27 6 -51.5t26.5 -42.5t47.5 -29t69 -11
q61 0 98 31.5t45 78.5q8 43 -13 65.5t-56 35.5t-77 21.5t-77 23.5t-55 42.5t-11 77.5q11 66 65 105.5t134 39.5q88 0 131.5 -46t39.5 -124h-45z" />
    <glyph glyph-name="Euro" unicode="&#x20ac;" horiz-adv-x="831" 
d="M507 670q-51 0 -99 -16t-89.5 -46t-74.5 -73.5t-54 -98.5h282l-5 -28h-287q-4 -14 -7.5 -28t-5.5 -28q-3 -19 -5 -37t-2 -35h284l-5 -28h-278q4 -51 23 -91.5t50 -68.5t72 -42.5t89 -14.5q55 0 102 13.5t86 37.5t69.5 57t51.5 72h47q-52 -100 -143.5 -161t-219.5 -61
q-61 0 -110 18.5t-84.5 52.5t-56 82t-23.5 106h-112l5 28h106q0 17 2 35t5 37q2 14 5.5 28t7.5 28h-104l5 28h109q23 62 60.5 113t85.5 87t105 56t120 20q65 0 114.5 -16t84.5 -45t56.5 -70.5t29.5 -91.5h-47q-7 39 -26 72t-49.5 57.5t-72.5 38t-97 13.5z" />
    <glyph glyph-name="uni20B9" unicode="&#x20b9;" horiz-adv-x="662" 
d="M483 537l-3 -15h155l-6 -31h-156q-13 -53 -36 -88t-60.5 -55.5t-93.5 -28.5t-136 -8l-20 -116q-14 -81 14.5 -125t104.5 -44q71 0 113.5 41.5t56.5 119.5h43q-18 -97 -75 -147t-143 -50q-98 0 -136 55t-21 150l27 149q87 0 144 6t92 22t54 44.5t30 74.5h-343l6 31h344
l3 16l23 133h-344l6 34h541l-6 -34h-154z" />
    <glyph glyph-name="uni20BA" unicode="&#x20ba;" horiz-adv-x="775" 
d="M726 394q-35 -201 -138.5 -309t-288.5 -108q-58 0 -120 15l46 261l-191 -49l6 34l191 49l24 134l-192 -51l6 33l192 51l44 251h46l-42 -238l216 58l-6 -34l-216 -57l-24 -134l217 56l-6 -34l-217 -56l-42 -239q40 -8 75 -8q158 0 250.5 95t124.5 280h45z" />
    <glyph glyph-name="uni20BD" unicode="&#x20bd;" horiz-adv-x="603" 
d="M397 705q61 0 102 -14t64.5 -40t30.5 -62.5t-1 -81.5q-17 -98 -84.5 -147.5t-180.5 -49.5h-150l-21 -125h253l-6 -37h-254l-26 -148h-45l26 148h-83l7 37h83l22 125h-83l7 40h83l62 355h194zM547 507q7 37 2.5 66.5t-23 50t-52.5 31.5t-85 11h-148l-56 -316h148
q103 0 152.5 43t61.5 114z" />
    <glyph glyph-name="uni2113" unicode="&#x2113;" horiz-adv-x="206" 
d="M210 740l-130 -740h-45l130 740h45z" />
    <glyph glyph-name="trademark" unicode="&#x2122;" horiz-adv-x="721" 
d="M297 671h-102l-56 -318h-37l57 318h-104l6 34h242zM714 705l-63 -352h-35l50 287l-180 -287h-31l-79 290l-51 -290h-34l62 352h44l82 -307l193 307h42z" />
    <glyph glyph-name="uni2126" unicode="&#x2126;" horiz-adv-x="794" 
d="M746 356q-10 -56 -33 -107t-56.5 -93t-77.5 -73t-96 -46h189l-6 -37h-278l7 41q56 8 106.5 33t90.5 65t68 94t39 119q13 72 0 131t-47 100.5t-85 64.5t-115 23q-65 0 -124.5 -23.5t-108 -66t-82 -101t-45.5 -128.5q-11 -65 -2 -119t35 -94t67 -65t94 -33l-7 -41h-277
l6 37h190q-46 15 -79.5 46t-52.5 73t-23.5 93t5.5 107q14 80 53 146t94.5 112.5t123.5 72t141 25.5q72 0 131.5 -25.5t98.5 -72t54.5 -112.5t1.5 -146z" />
    <glyph glyph-name="estimated" unicode="&#x212e;" horiz-adv-x="768" 
d="M331 -7q-73 0 -131 22t-95.5 64.5t-52 105t-0.5 143.5q13 76 46.5 142.5t84 116t117 78t146.5 28.5t137 -27t91 -71.5t45.5 -102.5t0.5 -120l-11 -60h-558l-28 -161q31 -60 80.5 -90t134.5 -30q39 0 75 9.5t70.5 27.5t69.5 43.5t73 57.5l24 -31q-73 -66 -152.5 -105.5
t-166.5 -39.5zM634 544q-24 52 -74 81t-121 29q-70 0 -134.5 -29t-114.5 -94l-30 -169h442z" />
    <glyph glyph-name="partialdiff" unicode="&#x2202;" horiz-adv-x="544" 
d="M332 553q29 0 55.5 -8t45.5 -28.5t27.5 -56t2.5 -90.5q14 72 18 134t-9 107.5t-45.5 71.5t-91.5 26q-19 0 -39.5 -3.5t-42.5 -8.5l6 31q26 7 47.5 9.5t44.5 2.5q51 0 88 -18t58 -57t25.5 -100.5t-10.5 -147.5q-17 -98 -51 -177.5t-80.5 -135t-103.5 -85.5t-121 -30
q-37 0 -67.5 13t-50.5 40t-27 68t3 97q11 65 38.5 127.5t68.5 111t94.5 78t116.5 29.5zM328 514q-48 0 -92 -23.5t-79.5 -65t-60.5 -97t-37 -120.5q-8 -47 -3 -80.5t20.5 -55.5t38.5 -32t51 -10q52 0 97 24.5t81 66.5t60.5 96.5t35.5 114.5q17 97 -13.5 139.5t-98.5 42.5z
" />
    <glyph glyph-name="uni2206" unicode="&#x2206;" horiz-adv-x="649" 
d="M404 687l171 -650l-6 -37h-610l7 37l399 650h39zM11 37h519l-156 598z" />
    <glyph glyph-name="product" unicode="&#x220f;" horiz-adv-x="734" 
d="M738 705l-7 -37h-84l-118 -668h-45l118 668h-359l-118 -668h-45l118 668h-84l6 37h618z" />
    <glyph glyph-name="summation" unicode="&#x2211;" horiz-adv-x="411" 
d="M476 650h-337l215 -325l-6 -38l-331 -329h337l-7 -37h-375l9 50l330 333l-212 333l9 50h374z" />
    <glyph glyph-name="minus" unicode="&#x2212;" horiz-adv-x="452" 
d="M419 395l-7 -39h-377l7 39h377z" />
    <glyph glyph-name="radical" unicode="&#x221a;" horiz-adv-x="705" 
d="M762 848l-625 -893h-18l-76 193l-62 -31l-12 27l104 53l73 -184l583 835h33z" />
    <glyph glyph-name="infinity" unicode="&#x221e;" horiz-adv-x="610" 
d="M506 483q63 -1 94 -36t20 -99q-11 -65 -57.5 -100t-106.5 -35q-30 0 -52.5 9t-39.5 24t-30.5 34.5t-24.5 40.5q-15 -20 -33.5 -39.5t-41 -35t-48.5 -24.5t-55 -9q-63 0 -94 35t-20 99q6 32 21 57.5t37 43t49.5 26.5t57.5 9t51.5 -9.5t38.5 -25.5t29.5 -36.5t24.5 -42.5
q14 21 33 41.5t41.5 36.5t49 26t56.5 10zM139 248q44 0 82.5 27.5t72.5 72.5q-10 20 -21 38t-24.5 32t-30.5 22.5t-40 8.5q-50 0 -82 -28.5t-40 -73.5t12.5 -72t70.5 -27zM582 348q8 45 -13 72t-71 27q-45 0 -84.5 -28.5t-73.5 -76.5q10 -19 21 -36.5t25 -30.5t32 -21t41 -8
q50 0 82.5 28.5t40.5 73.5z" />
    <glyph glyph-name="integral" unicode="&#x222b;" horiz-adv-x="244" 
d="M228 797q31 107 132 107h22l-11 -40h-21q-27 0 -46.5 -13.5t-31.5 -53.5l-242 -839q-17 -57 -44.5 -86.5t-84.5 -29.5h-27l11 40h27q16 0 27 3.5t19.5 12t14.5 23t13 37.5z" />
    <glyph glyph-name="approxequal" unicode="&#x2248;" horiz-adv-x="449" 
d="M177 541q26 0 45 -10.5t35.5 -23t33 -23t38.5 -10.5q26 0 46.5 19.5t30.5 47.5h39q-19 -52 -51 -81t-76 -29q-26 0 -45 10.5t-35.5 23t-33 23t-38.5 10.5q-26 0 -46.5 -19.5t-30.5 -47.5h-38q18 52 50 81t76 29zM144 353q26 0 45 -10.5t35.5 -23t33 -23t38.5 -10.5
q26 0 46.5 19.5t30.5 47.5h39q-19 -52 -51 -81t-76 -29q-26 0 -45 10.5t-35.5 23t-33 23t-38.5 10.5q-26 0 -46.5 -19.5t-30.5 -47.5h-38q18 52 50 81t76 29z" />
    <glyph glyph-name="notequal" unicode="&#x2260;" horiz-adv-x="572" 
d="M373 450l-140 -149h291l-7 -41h-322l-102 -109h-34l102 109h-141l7 41h172l140 149h-285l7 41h316l102 109h34l-102 -109h147l-8 -41h-177z" />
    <glyph glyph-name="lessequal" unicode="&#x2264;" horiz-adv-x="405" 
d="M106 414l228 -194h-58l-232 194l300 196h59zM8 181h324l-6 -37h-324z" />
    <glyph glyph-name="greaterequal" unicode="&#x2265;" horiz-adv-x="405" 
d="M15 220l297 194l-228 196h58l232 -196l-300 -194h-59zM3 181h324l-6 -37h-325z" />
    <glyph glyph-name="lozenge" unicode="&#x25ca;" horiz-adv-x="548" 
d="M502 348l-269 -229l-188 229l270 230zM104 348l139 -170l201 170l-139 171z" />
    <glyph glyph-name="fi" unicode="&#xfb01;" horiz-adv-x="521" 
d="M182 543h298l-96 -543h-45l88 502h-253l-88 -502h-45l89 502h-83l7 41h83l6 33q14 84 65 128.5t154 42.5l-7 -41q-41 0 -70 -8t-48.5 -24t-31.5 -41t-18 -60zM493 740q17 0 26 -9.5t6 -26.5t-15.5 -27t-29.5 -10t-26 10t-6 27t15.5 26.5t29.5 9.5z" />
    <glyph glyph-name="fl" unicode="&#xfb02;" horiz-adv-x="532" 
d="M139 576q15 84 66.5 128.5t154.5 42.5l-7 -41q-42 0 -71.5 -8t-49 -24t-31 -41t-17.5 -60l-5 -30h145l-7 -41h-146l-88 -502h-46l89 502h-85l8 41h84zM536 740l-130 -740h-45l130 740h45z" />
    <glyph glyph-name="uni03020300" horiz-adv-x="0" 
d="M9 741l-13 -22l-129 95l19 29zM-100 698l-122 -70l-10 23l137 79l110 -79l-17 -23z" />
    <glyph glyph-name="uni03020301" horiz-adv-x="0" 
d="M4 838l-159 -94l-9 19l155 102zM-97 698l-122 -70l-10 23l137 79l110 -79l-17 -23z" />
    <glyph glyph-name="uni03020303" horiz-adv-x="0" 
d="M-120 824q18 0 29.5 -7.5t21 -16.5t20 -16.5t26.5 -7.5t29.5 11.5t20.5 33.5h26q-9 -32 -31.5 -52t-49.5 -20q-19 0 -31.5 7.5t-22 16t-19.5 16t-25 7.5q-34 0 -49 -46h-26q12 35 32.5 54.5t48.5 19.5zM-100 698l-122 -70l-10 23l137 79l110 -79l-17 -23z" />
    <glyph glyph-name="uni03020309" horiz-adv-x="0" 
d="M42 866q38 0 52.5 -18.5t8.5 -53.5q-5 -26 -26 -46t-56 -49l-16 17q26 22 46 40t25 38q5 26 -5 35.5t-34 9.5q-27 0 -37 -13.5t-18 -35.5l-27 1q3 12 8 25t15 24t25.5 18.5t38.5 7.5zM-98 698l-122 -70l-10 23l137 79l110 -79l-17 -23z" />
    <glyph glyph-name="uni03060300" horiz-adv-x="0" 
d="M28 804l-13 -22l-129 95l19 29zM-112 616q-32 0 -53 9.5t-33 25t-16 35.5t0 41l1 5h27q-6 -41 14 -62.5t66 -21.5q45 0 72.5 21.5t34.5 62.5h28l-1 -5q-4 -21 -14.5 -41t-28 -35.5t-42 -25t-55.5 -9.5z" />
    <glyph glyph-name="uni03060301" horiz-adv-x="0" 
d="M22 879l-159 -94l-9 19l155 102zM-111 616q-32 0 -53 9.5t-33 25t-16 35.5t0 41l1 5h27q-6 -41 14 -62.5t66 -21.5q45 0 72.5 21.5t34.5 62.5h28l-1 -5q-4 -21 -14.5 -41t-28 -35.5t-42 -25t-55.5 -9.5z" />
    <glyph glyph-name="uni03060303" horiz-adv-x="0" 
d="M-112 868q18 0 30 -7.5t21.5 -16.5t20.5 -16.5t28 -7.5q16 0 29.5 11.5t20.5 33.5h27q-9 -32 -32 -52.5t-51 -20.5q-19 0 -31.5 7.5t-22.5 16.5t-20.5 16.5t-25.5 7.5q-34 0 -49 -47h-27q12 36 32.5 55.5t49.5 19.5zM-111 616q-32 0 -53 9.5t-33 25t-16 35.5t0 41l1 5h27
q-6 -41 14 -62.5t66 -21.5q45 0 72.5 21.5t34.5 62.5h28l-1 -5q-4 -21 -14.5 -41t-28 -35.5t-42 -25t-55.5 -9.5z" />
    <glyph glyph-name="uni03060309" horiz-adv-x="0" 
d="M-41 947q38 0 52.5 -18.5t8.5 -53.5q-5 -26 -26 -46t-56 -49l-16 17q26 22 46 40t25 38q5 26 -5 35.5t-34 9.5q-27 0 -37 -13.5t-18 -35.5l-27 1q3 12 8 25t15 24t25.5 18.5t38.5 7.5zM-112 616q-32 0 -53 9.5t-33 25t-16 35.5t0 41l1 5h27q-6 -41 14 -62.5t66 -21.5
q45 0 72.5 21.5t34.5 62.5h28l-1 -5q-4 -21 -14.5 -41t-28 -35.5t-42 -25t-55.5 -9.5z" />
  </font>
</defs>
</svg>
