<?xml version="1.0" standalone="no"?>
<!DOCTYPE svg PUBLIC "-//W3C//DTD SVG 1.1//EN" "http://www.w3.org/Graphics/SVG/1.1/DTD/svg11.dtd" >
<svg xmlns="http://www.w3.org/2000/svg" xmlns:xlink="http://www.w3.org/1999/xlink" version="1.1">
<metadata>
Created by FontForge 20170731 at Tue Dec 12 17:12:31 2017
 By Aleksey,,,
</metadata>
<defs>
<font id="PoppinsVN-500i" horiz-adv-x="783" >
  <font-face 
    font-family="PoppinsVN 500i"
    font-weight="400"
    font-style="italic"
    font-stretch="normal"
    units-per-em="1000"
    panose-1="0 0 5 0 0 0 0 0 0 0"
    ascent="800"
    descent="-200"
    x-height="551"
    cap-height="706"
    bbox="-423 -270 1164.63 1130"
    underline-thickness="50"
    underline-position="-150"
    slope="-10"
    unicode-range="U+000D-FB02"
  />
<missing-glyph horiz-adv-x="501" 
d="M411 -262h-318v1002h318v-1002zM168 673v-33h65v-37h-66v-33h167v33h-66v37h66v33h-166zM167 544v-105h167v34h-66v71h-101zM233 473h-33v37h33v-37zM167 412v-33h66v-37h-66v-33h101v70h66v33h-167zM301 352v-66h-134v-34h167v100h-33zM233 230v-56h35v23h33v-47h-101
v80h-33v-113h167v113h-101zM167 57v-114h167v114h-167zM301 -24h-101v48h101v-48zM167 -80v-33h70l-70 -47v-33h167v33h-103l71 47h32v33h-167z" />
    <glyph glyph-name=".notdef" horiz-adv-x="501" 
d="M411 -262h-318v1002h318v-1002zM168 673v-33h65v-37h-66v-33h167v33h-66v37h66v33h-166zM167 544v-105h167v34h-66v71h-101zM233 473h-33v37h33v-37zM167 412v-33h66v-37h-66v-33h101v70h66v33h-167zM301 352v-66h-134v-34h167v100h-33zM233 230v-56h35v23h33v-47h-101
v80h-33v-113h167v113h-101zM167 57v-114h167v114h-167zM301 -24h-101v48h101v-48zM167 -80v-33h70l-70 -47v-33h167v33h-103l71 47h32v33h-167z" />
    <glyph glyph-name=".null" horiz-adv-x="0" 
 />
    <glyph glyph-name=".null" horiz-adv-x="0" 
 />
    <glyph glyph-name="nonmarkingreturn" unicode="&#xd;" horiz-adv-x="250" 
 />
    <glyph glyph-name="space" unicode=" " horiz-adv-x="234" 
 />
    <glyph glyph-name="exclam" unicode="!" horiz-adv-x="323" 
d="M293 728l-105 -507h-95l74 507h126zM190 126l-22 -126h-130l22 126h130z" />
    <glyph glyph-name="quotedbl" unicode="&#x22;" horiz-adv-x="334" 
d="M159 798l-46 -206h-78l26 206h98zM310 798l-46 -206h-78l25 206h99z" />
    <glyph glyph-name="numbersign" unicode="#" horiz-adv-x="832" 
d="M659 444l-59 -150h134l-18 -104h-156l-74 -190h-108l74 190h-198l-74 -190h-107l74 190h-153l18 104h175l59 150h-149l19 105h171l74 191h107l-74 -191h198l75 191h107l-74 -191h138l-18 -105h-161zM551 444h-198l-59 -150h199z" />
    <glyph glyph-name="dollar" unicode="$" horiz-adv-x="596" 
d="M444 527q0 33 -19 61t-64 36l-39 -220q39 -13 78.5 -27t70 -37t46 -59t5.5 -93q-7 -37 -27.5 -72.5t-54 -62.5t-81 -43.5t-107.5 -16.5h-2l-14 -80h-34l14 82q-48 4 -86.5 20t-64 42.5t-37.5 61.5t-8 77h122q-2 -36 19 -69t71 -42l40 227q-38 12 -77 26t-69 36.5
t-45 58.5t-5 92q8 43 31 78t58 59.5t80.5 38.5t97.5 14l15 85h34l-15 -86q100 -7 147.5 -59.5t42.5 -127.5h-123zM199 529q-4 -24 1.5 -41.5t18 -31t31 -23.5t40.5 -18l38 212q-51 -1 -86 -25.5t-43 -72.5zM399 185q5 25 -1 43t-19 31.5t-32.5 23.5t-42.5 18l-38 -219
q57 0 91 29.5t42 73.5z" />
    <glyph glyph-name="percent" unicode="%" horiz-adv-x="701" 
d="M247 716q65 0 101 -40.5t23 -113.5q-6 -36 -22.5 -64.5t-40 -48t-53 -30t-62.5 -10.5t-59 10.5t-43 30t-23.5 48t0.5 64.5q6 36 22.5 65t40.5 48.5t53.5 30t62.5 10.5zM669 707l-525 -707h-111l524 707h112zM146 562q-6 -38 10 -60.5t48 -22.5q34 0 58 22.5t31 60.5
t-9.5 61t-49.5 23t-57 -23t-31 -61zM509 298q66 0 102 -40.5t23 -112.5q-6 -36 -22.5 -65t-40 -48.5t-53 -30t-62.5 -10.5q-66 0 -102 40.5t-24 113.5q7 36 23.5 64.5t40.5 48t53.5 30t61.5 10.5zM409 145q-7 -38 9 -61t49 -23t57.5 23t31.5 61q6 37 -10 60t-49 23t-57 -23
t-31 -60z" />
    <glyph glyph-name="ampersand" unicode="&#x26;" horiz-adv-x="685" 
d="M501 0l-107 151q-3 -10 -8.5 -20t-13.5 -21q-22 -52 -72 -84.5t-114 -32.5q-49 0 -86 15.5t-60.5 44t-32 67.5t-0.5 85q9 48 30 86t51 64t65.5 39.5t72.5 13.5h8q-3 5 -5.5 10t-5.5 10q-16 26 -25.5 54.5t-1.5 69.5q5 31 22 60t44.5 51.5t65 36t84.5 13.5t79 -12.5
t51.5 -33t27.5 -47t8 -55.5q2 -17 0.5 -35.5t-6.5 -35.5h-107q2 10 3 17.5t2 15.5q7 42 -12 66t-61 24q-41 0 -65.5 -23t-29.5 -53t3.5 -50.5t23.5 -43.5l289 -447h-117zM336 201q5 26 -1.5 48t-21 38t-35.5 25t-44 9q-45 0 -81 -28t-46 -85t20 -87.5t77 -30.5q50 0 87 31
t45 80z" />
    <glyph glyph-name="quotesingle" unicode="'" horiz-adv-x="188" 
d="M164 798l-49 -206h-78l24 206h103z" />
    <glyph glyph-name="parenleft" unicode="(" horiz-adv-x="391" 
d="M38 403q18 101 54 188.5t85 162t108 134t123 102.5h111l-1 -12q-157 -112 -247.5 -256t-121.5 -319q-31 -176 8.5 -320.5t156.5 -256.5l-1 -11h-112q-48 44 -86.5 103.5t-61 133.5t-28 162t12.5 189z" />
    <glyph glyph-name="parenright" unicode=")" horiz-adv-x="392" 
d="M354 403q-18 -101 -54 -189t-85 -162t-108 -133.5t-123 -103.5h-112l2 11q157 112 247.5 256.5t121.5 320.5q31 175 -8.5 319t-156.5 256l1 12h112q49 -43 87 -102.5t61 -134t28 -162t-13 -188.5z" />
    <glyph glyph-name="asterisk" unicode="*" horiz-adv-x="491" 
d="M414 679l30 -80l-146 -51l128 -50l-61 -83l-97 91l-4 -146h-93l46 146l-132 -93l-33 85l145 51l-126 50l60 81l100 -90l6 146h93l-47 -146z" />
    <glyph glyph-name="plus" unicode="+" horiz-adv-x="571" 
d="M531 308h-199l-36 -202h-111l36 202h-200l19 105h199l36 203h111l-36 -203h200z" />
    <glyph glyph-name="comma" unicode="," horiz-adv-x="193" 
d="M142 78q8 -38 4.5 -77.5t-20 -71.5t-46.5 -52.5t-75 -20.5l8 46q25 0 39 12.5t19 44.5l2 9h-57l19 110h107z" />
    <glyph glyph-name="hyphen" unicode="-" horiz-adv-x="506" 
d="M487 410l-17 -96h-412l17 96h412z" />
    <glyph glyph-name="period" unicode="." horiz-adv-x="190" 
d="M171 126l-23 -126h-129l22 126h130z" />
    <glyph glyph-name="slash" unicode="/" horiz-adv-x="378" 
d="M481 944l-470 -1120h-111l470 1120h111z" />
    <glyph glyph-name="zero" unicode="0" horiz-adv-x="607" 
d="M52 358q14 77 38 142.5t62.5 113.5t93 75t129.5 27q74 0 119.5 -27t67 -75t23 -113.5t-12.5 -142.5q-13 -77 -37.5 -143t-63 -114t-93.5 -75.5t-129 -27.5q-75 0 -120 27.5t-67 75.5t-22.5 114t12.5 143zM458 358q9 52 12 97.5t-6.5 79t-35 53t-72.5 19.5t-79.5 -19.5
t-54 -53t-35 -79t-22.5 -97.5t-11.5 -98t7 -80.5t35 -54t72.5 -19.5t79 19.5t53.5 54t35 80.5t22.5 98z" />
    <glyph glyph-name="one" unicode="1" horiz-adv-x="307" 
d="M56 599l19 107h226l-124 -706h-120l105 599h-106z" />
    <glyph glyph-name="two" unicode="2" horiz-adv-x="561" 
d="M-4 89q82 50 156.5 102t133 104t96 102t45.5 96q5 27 3 50.5t-13.5 41t-32 27.5t-53.5 10q-61 0 -98 -38.5t-51 -113.5h-111q11 65 38 111.5t64.5 77.5t83.5 45.5t95 14.5q110 0 161 -58.5t32 -161.5q-10 -60 -50.5 -118t-96.5 -110t-121 -96.5t-124 -76.5h335l-16 -93
h-490z" />
    <glyph glyph-name="three" unicode="3" horiz-adv-x="563" 
d="M361 728q55 0 94 -15.5t63 -42t32.5 -62.5t1.5 -78q-11 -63 -56.5 -104.5t-116.5 -50.5l-1 -5q32 -9 58.5 -25.5t43.5 -41t24 -57.5t-1 -77q-7 -37 -26 -69.5t-50 -56t-74 -37t-98 -13.5q-118 0 -180.5 57.5t-54.5 170.5h112q-4 -58 26.5 -94.5t104.5 -36.5q56 0 89 27
t40 69q12 66 -28 101t-127 35h-26l17 94h26q77 -1 125 23.5t59 81.5q8 51 -17 81t-79 30q-51 0 -93 -30t-56 -93h-112q21 104 94.5 161.5t185.5 57.5z" />
    <glyph glyph-name="four" unicode="4" horiz-adv-x="610" 
d="M-1 152l17 96l432 464h123l-81 -460h99l-18 -100h-98l-27 -152h-116l27 152h-358zM440 576l-305 -324h248z" />
    <glyph glyph-name="five" unicode="5" horiz-adv-x="596" 
d="M573 616h-350l-37 -210q30 31 77 49.5t101 18.5q58 0 96 -20t59 -53.5t26 -77t-3 -90.5q-9 -51 -31.5 -94.5t-57.5 -75t-82 -49.5t-106 -18q-58 0 -102.5 15.5t-73 44t-41 68t-7.5 88.5h112q0 -54 31.5 -85t91.5 -31q68 0 106.5 40t48.5 99q12 69 -16.5 108.5t-94.5 39.5
q-44 0 -83 -20.5t-61 -52.5h-111l71 407h454z" />
    <glyph glyph-name="six" unicode="6" horiz-adv-x="602" 
d="M466 516q-2 54 -25.5 86t-82.5 32q-77 0 -125.5 -67.5t-70.5 -216.5q25 55 81 86.5t124 31.5q103 0 151.5 -62.5t28.5 -179.5q-9 -48 -30.5 -90.5t-56 -74t-81.5 -50t-106 -18.5q-84 0 -132.5 29.5t-71 79.5t-23 116t12.5 140q16 90 41.5 158.5t63.5 115.5t90.5 71
t121.5 24q58 0 96.5 -17t61.5 -46.5t32.5 -67.5t7.5 -80h-108zM154 245q-6 -30 -2 -57.5t18.5 -49t41 -34t65.5 -12.5q62 0 106.5 35t55.5 101q13 75 -18.5 113t-95.5 38q-27 0 -55 -8t-51.5 -24.5t-41 -41.5t-23.5 -60z" />
    <glyph glyph-name="seven" unicode="7" horiz-adv-x="481" 
d="M517 624l-372 -624h-120l374 611h-350l18 99h466z" />
    <glyph glyph-name="eight" unicode="8" horiz-adv-x="616" 
d="M101 552q7 36 28.5 68.5t57.5 57.5t84.5 39.5t109.5 14.5t104 -16t69.5 -43.5t35.5 -64t2 -76.5q-9 -54 -46 -92.5t-103 -58.5q66 -23 95.5 -73t16.5 -125q-9 -48 -34.5 -85.5t-65.5 -63t-92.5 -39t-114.5 -13.5q-57 0 -103 15t-76 44t-42.5 71.5t-2.5 97.5q11 64 56 107
t115 64q-60 20 -82.5 65t-11.5 106zM212 529q-11 -58 20.5 -88t91.5 -30t101.5 27t50.5 81q11 58 -21 88.5t-91 30.5t-101 -27.5t-51 -81.5zM136 211q-11 -64 24.5 -99.5t104.5 -35.5q70 0 117 32.5t58 91.5q6 34 -1.5 59t-25.5 41t-44.5 23.5t-58.5 7.5q-31 0 -60 -7
t-52.5 -22t-39.5 -37.5t-22 -53.5z" />
    <glyph glyph-name="nine" unicode="9" horiz-adv-x="592" 
d="M149 204q-2 -56 22.5 -87.5t80.5 -31.5q80 0 129.5 67.5t71.5 217.5q-25 -55 -81 -87t-124 -32q-103 0 -151.5 63t-28.5 179q8 48 30 91t57.5 74.5t83.5 50t108 18.5q85 0 133 -29t69.5 -79t21 -116.5t-13.5 -141.5q-15 -85 -38.5 -153.5t-61 -116.5t-90 -73.5
t-126.5 -25.5q-56 0 -95 17.5t-63 47t-34 67.5t-8 80h108zM461 476q5 30 1.5 57.5t-18 48.5t-41 33.5t-65.5 12.5q-62 0 -106.5 -36.5t-55.5 -104.5q-14 -72 18 -109.5t96 -37.5q27 0 55 8.5t51.5 25t41 42.5t23.5 60z" />
    <glyph glyph-name="colon" unicode=":" horiz-adv-x="216" 
d="M224 550l-22 -126h-130l22 126h130zM149 126l-22 -126h-130l22 126h130z" />
    <glyph glyph-name="semicolon" unicode=";" horiz-adv-x="278" 
d="M262 546l-23 -126h-129l22 126h130zM163 78q8 -38 4.5 -77.5t-20 -71.5t-46.5 -52.5t-75 -20.5l8 46q25 0 39 12.5t19 44.5l2 9h-57l19 110h107z" />
    <glyph glyph-name="less" unicode="&#x3c;" horiz-adv-x="436" 
d="M221 135l-190 226l271 228h143l-271 -228l191 -226h-144z" />
    <glyph glyph-name="equal" unicode="=" horiz-adv-x="593" 
d="M591 526l-18 -104h-532l18 104h532zM552 301l-18 -104h-532l18 104h532z" />
    <glyph glyph-name="greater" unicode="&#x3e;" horiz-adv-x="436" 
d="M71 589h143l191 -228l-271 -226h-143l270 226z" />
    <glyph glyph-name="question" unicode="?" horiz-adv-x="508" 
d="M319 740q50 0 89 -14t64 -41.5t34.5 -67.5t0.5 -91q-9 -52 -34 -89.5t-62 -62t-83.5 -36.5t-97.5 -13l-19 -110h-108l32 186h48q35 0 70 5t64 18.5t49.5 38t27.5 63.5q11 57 -15.5 88.5t-80.5 31.5q-57 0 -89.5 -31t-45.5 -81h-109q9 45 30.5 83t55 65t78.5 42.5
t101 15.5zM207 126l-22 -126h-130l22 126h130z" />
    <glyph glyph-name="at" unicode="@" horiz-adv-x="1179" 
d="M740 798q117 0 203.5 -31.5t140 -90.5t72 -143.5t-0.5 -189.5q-13 -75 -46 -139.5t-78 -112t-98 -74t-106 -26.5q-30 0 -54 7t-40 22.5t-23 40.5t-1 61q-44 -60 -101 -95.5t-133 -35.5q-49 0 -86.5 19t-59.5 53.5t-27.5 83.5t9.5 108q15 67 49.5 123t82.5 96.5t106 63
t120 22.5t105.5 -20t67.5 -55.5t27.5 -84.5t-15.5 -108l-41 -121q-15 -47 -3 -63.5t42 -16.5q27 0 55.5 16t54 47.5t45.5 78t31 106.5q14 81 1.5 148.5t-53.5 115.5t-110.5 74.5t-168.5 26.5q-114 0 -208.5 -37t-165.5 -101t-117.5 -150.5t-63.5 -185.5q-34 -194 58 -294.5
t299 -101.5l-38 -95q-123 2 -213 35t-145.5 95t-74.5 153t2 208q22 126 85.5 230.5t156.5 179.5t210.5 116.5t247.5 41.5zM746 299q17 76 -11.5 118t-102.5 42q-36 0 -69.5 -14t-62 -40t-49 -63.5t-30.5 -84.5q-17 -78 14.5 -122t95.5 -44q34 0 68 13.5t63.5 40t51.5 65.5
t32 89z" />
    <glyph glyph-name="A" unicode="A" horiz-adv-x="682" 
d="M456 153h-298l-81 -153h-122l382 695h131l137 -695h-122zM440 241l-59 330l-176 -330h235z" />
    <glyph glyph-name="B" unicode="B" horiz-adv-x="618" 
d="M595 528q-12 -70 -56 -110.5t-100 -53.5q63 -14 93.5 -61.5t19.5 -111.5q-16 -85 -82.5 -138t-181.5 -53h-281l124 706h276q109 0 155.5 -48t32.5 -130zM474 508q9 48 -16 76.5t-92 28.5h-137l-37 -211h140q62 0 98 28t44 78zM437 206q9 53 -21 83t-95 30h-143l-40 -225
h144q65 0 105.5 29t49.5 83z" />
    <glyph glyph-name="C" unicode="C" horiz-adv-x="761" 
d="M447 713q67 0 118.5 -17.5t88 -50t57 -77.5t25.5 -100h-121q-13 62 -60 100.5t-128 38.5q-47 0 -90 -17.5t-78.5 -50.5t-60 -80t-35.5 -106q-10 -58 -2 -105t31.5 -80t61 -50.5t84.5 -17.5q81 0 141.5 38.5t95.5 99.5h120q-24 -55 -60.5 -100t-84 -77t-105 -49.5
t-124.5 -17.5q-76 0 -133.5 26.5t-93.5 74t-49 113.5t1 145t50 145t88.5 114t119.5 74.5t143 26.5z" />
    <glyph glyph-name="D" unicode="D" horiz-adv-x="721" 
d="M675 354q-14 -80 -50 -145t-91.5 -111.5t-128.5 -72t-162 -25.5h-236l124 706h236q89 0 153.5 -25t103.5 -71t52 -111t-1 -145zM251 103q130 0 208.5 66t99.5 185q21 118 -34.5 184.5t-184.5 66.5h-112l-89 -502h112z" />
    <glyph glyph-name="E" unicode="E" horiz-adv-x="515" 
d="M229 614l-37 -214h259l-16 -88h-259l-38 -219h289l-16 -93h-404l124 706h404l-17 -92h-289z" />
    <glyph glyph-name="F" unicode="F" horiz-adv-x="519" 
d="M548 706l-16 -92h-303l-38 -219h250l-16 -88h-249l-55 -307h-114l124 706h417z" />
    <glyph glyph-name="G" unicode="G" horiz-adv-x="773" 
d="M455 712q64 0 113.5 -17t85 -48t56 -73t26.5 -93h-120q-13 55 -58 90t-120 35q-50 0 -95 -17.5t-81.5 -50.5t-62 -79.5t-36.5 -105.5q-11 -61 -2 -109t35 -81t67.5 -50.5t95.5 -17.5q43 0 83.5 13.5t75 39.5t61.5 64t42 87h-259l15 84h356l-19 -109q-19 -60 -54 -111.5
t-84 -89t-111 -59t-135 -21.5q-78 0 -137.5 27t-97 75.5t-50.5 115.5t1 147q14 78 50.5 143t90 112t122 73t146.5 26z" />
    <glyph glyph-name="H" unicode="H" horiz-adv-x="699" 
d="M692 706l-124 -706h-115l56 317h-332l-56 -317h-114l124 706h115l-52 -296h331l52 296h115z" />
    <glyph glyph-name="I" unicode="I" horiz-adv-x="252" 
d="M246 706l-125 -706h-114l124 706h115z" />
    <glyph glyph-name="J" unicode="J" horiz-adv-x="503" 
d="M502 706l-91 -512q-16 -95 -78 -148t-157 -53q-100 0 -149 58t-29 168h113q-10 -56 7.5 -89t71.5 -33q51 0 75.5 28.5t31.5 68.5l90 512h115z" />
    <glyph glyph-name="K" unicode="K" horiz-adv-x="617" 
d="M291 357l248 -357h-139l-221 326l-58 -326h-114l124 706h115l-57 -322l336 322h138z" />
    <glyph glyph-name="L" unicode="L" horiz-adv-x="447" 
d="M137 89h243l-15 -89h-358l124 706h115z" />
    <glyph glyph-name="M" unicode="M" horiz-adv-x="869" 
d="M862 695l-122 -695h-115l92 521l-293 -521h-100l-110 521l-92 -521h-115l123 695h138l132 -555l324 555h138z" />
    <glyph glyph-name="N" unicode="N" horiz-adv-x="709" 
d="M579 0h-115l-251 521l-91 -521h-115l124 705h114l251 -523l92 523h114z" />
    <glyph glyph-name="O" unicode="O" 
d="M441 715q81 0 142.5 -28t100.5 -78.5t53 -120t-1 -153.5q-13 -75 -48 -138t-86.5 -108.5t-117.5 -71t-142 -25.5q-82 0 -144 28t-100.5 78.5t-52 120.5t1.5 154q14 75 48.5 138t86 108.5t117.5 70.5t142 25zM432 609q-50 0 -95 -17.5t-81 -50t-61 -78.5t-36 -104
q-10 -60 -1 -108t34.5 -82t66 -52t92.5 -18q50 0 95 17.5t81 50t61.5 78.5t35.5 104q11 60 1.5 108t-35 82t-66 52t-92.5 18z" />
    <glyph glyph-name="P" unicode="P" horiz-adv-x="585" 
d="M169 274l-48 -274h-114l124 706h240q63 0 106.5 -16t68.5 -44.5t33 -68.5t-1 -88q-17 -99 -89.5 -157t-193.5 -58h-126zM299 367q78 0 115.5 33t47.5 89q10 57 -16 90t-104 33h-113l-43 -245h113z" />
    <glyph glyph-name="Q" unicode="Q" 
d="M737 335q-17 -100 -71.5 -177t-135.5 -120l137 -171h-142l-98 133q-43 -8 -84 -8q-82 0 -144 28t-100.5 78.5t-52 120.5t1.5 154q14 75 48.5 138t86 108.5t117.5 70.5t142 25q81 0 142.5 -28t100.5 -78.5t53 -120t-1 -153.5zM352 99q50 0 95 17.5t81 50t61.5 78.5
t35.5 104q11 60 1.5 108t-35 82t-66 52t-92.5 18q-50 0 -95 -17.5t-81 -50t-61 -78.5t-36 -104q-10 -60 -1 -108t34.5 -82t66 -52t92.5 -18z" />
    <glyph glyph-name="R" unicode="R" horiz-adv-x="598" 
d="M380 706q63 0 106.5 -16.5t69 -45t33 -68t-0.5 -85.5q-14 -81 -69 -135t-147 -69l134 -287h-128l-126 282h-81l-50 -282h-114l124 706h249zM471 485q10 56 -16 89.5t-101 33.5h-125l-44 -245h125q75 0 113 32.5t48 89.5z" />
    <glyph glyph-name="S" unicode="S" horiz-adv-x="576" 
d="M503 168q-6 -33 -24.5 -64.5t-49.5 -56t-74 -39.5t-98 -15q-58 0 -102.5 15.5t-74.5 43t-45 64.5t-15 80h121q-1 -21 5 -41t20.5 -35.5t37 -25.5t55.5 -10q52 0 83 27t38 68q9 49 -14 77t-61 46.5t-83 34t-82 40.5t-57 66t-8 111q7 37 27.5 66.5t52 50.5t73 32.5
t89.5 11.5q60 0 103 -15t71 -40.5t42 -60t15 -72.5h-123q0 18 -6 35.5t-19 31t-34 22t-51 8.5q-45 0 -77 -21t-39 -63q-8 -47 14.5 -73t60.5 -43.5t83.5 -33t82 -41t56.5 -68t7 -113.5z" />
    <glyph glyph-name="T" unicode="T" horiz-adv-x="539" 
d="M585 706l-16 -92h-197l-108 -614h-115l108 614h-196l16 92h508z" />
    <glyph glyph-name="U" unicode="U" horiz-adv-x="671" 
d="M241 706l-73 -419q-17 -97 17 -141.5t108 -44.5q72 0 122 44.5t67 141.5l74 419h114l-74 -419q-13 -75 -43.5 -130.5t-73.5 -92t-96 -54t-112 -17.5q-58 0 -104.5 17.5t-76 54t-40 92t2.5 130.5l74 419h114z" />
    <glyph glyph-name="V" unicode="V" horiz-adv-x="687" 
d="M202 706l100 -584l307 584h124l-379 -706h-146l-130 706h124z" />
    <glyph glyph-name="W" unicode="W" horiz-adv-x="996" 
d="M1026 706l-301 -706h-140l-53 546l-245 -546h-140l-52 706h125l21 -576l256 576h126l53 -574l224 574h126z" />
    <glyph glyph-name="X" unicode="X" horiz-adv-x="624" 
d="M381 352l165 -352h-136l-123 262l-197 -262h-131l282 360l-163 346h136l121 -256l195 256h131z" />
    <glyph glyph-name="Y" unicode="Y" horiz-adv-x="618" 
d="M664 706l-314 -449l-45 -257h-115l45 257l-157 449h132l104 -327l220 327h130z" />
    <glyph glyph-name="Z" unicode="Z" horiz-adv-x="554" 
d="M124 93h342l-16 -93h-470l15 89l429 524h-329l16 93h458l-16 -89z" />
    <glyph glyph-name="bracketleft" unicode="[" horiz-adv-x="367" 
d="M418 944l-17 -93h-121l-164 -933h121l-17 -94h-229l198 1120h229z" />
    <glyph glyph-name="backslash" unicode="\" horiz-adv-x="664" 
d="M311 -176l-102 1120h112l101 -1120h-111z" />
    <glyph glyph-name="bracketright" unicode="]" horiz-adv-x="365" 
d="M-52 -176l16 94h122l164 933h-121l16 93h230l-198 -1120h-229z" />
    <glyph glyph-name="asciicircum" unicode="^" horiz-adv-x="649" 
d="M101 168h-114l330 528h109l144 -528h-114l-108 394z" />
    <glyph glyph-name="underscore" unicode="_" horiz-adv-x="627" 
d="M583 -36l-19 -111h-558l20 111h557z" />
    <glyph glyph-name="grave" unicode="`" horiz-adv-x="294" 
d="M301 643l-24 -46l-150 85l30 62z" />
    <glyph glyph-name="a" unicode="a" horiz-adv-x="677" 
d="M337 558q79 0 126 -37.5t57 -97.5l23 128h114l-98 -551h-114l23 128q-31 -60 -89.5 -97.5t-136.5 -37.5q-55 0 -98 20t-69 57.5t-35 92t3 122.5q11 64 38.5 114.5t66.5 86t87.5 54t101.5 18.5zM358 458q-75 0 -129.5 -48t-69.5 -134q-15 -87 22.5 -134.5t112.5 -47.5
q36 0 69 12.5t59.5 36.5t45.5 57.5t26 75.5q8 42 1 75.5t-25 57t-47 36.5t-65 13z" />
    <glyph glyph-name="b" unicode="b" horiz-adv-x="676" 
d="M11 0l131 740h114l-56 -317q31 60 89.5 97.5t136.5 37.5q54 0 96 -19.5t69 -55.5t36.5 -88.5t-2.5 -118.5t-39.5 -118.5t-67.5 -89t-89 -56t-103 -19.5q-78 0 -122.5 37.5t-55.5 97.5l-23 -128h-114zM309 94q75 0 129.5 47.5t70.5 134.5q15 86 -22.5 134t-112.5 48
q-36 0 -69.5 -13t-60 -36.5t-45 -57t-26.5 -75.5q-7 -42 0 -75.5t25 -57.5t46.5 -36.5t64.5 -12.5z" />
    <glyph glyph-name="c" unicode="c" horiz-adv-x="622" 
d="M360 558q110 0 171 -56.5t61 -153.5h-121q-1 52 -34.5 81.5t-91.5 29.5q-31 0 -60.5 -11t-55 -33.5t-44 -57t-27.5 -81.5q-8 -48 -1.5 -82.5t24 -57t43.5 -33.5t57 -11q58 0 101.5 29.5t62.5 82.5h121q-17 -48 -46 -87t-68 -66.5t-86 -42.5t-101 -15q-59 0 -106 20
t-77 57.5t-41 92t1 122.5q12 64 41 114.5t71 86t95 54t111 18.5z" />
    <glyph glyph-name="d" unicode="d" horiz-adv-x="673" 
d="M681 740l-131 -740h-115l23 128q-31 -60 -89.5 -97.5t-136.5 -37.5q-54 0 -96 20t-69 57.5t-36.5 92t2.5 122.5q11 64 38.5 114.5t66.5 86t87.5 54t101.5 18.5q80 0 126.5 -37.5t56.5 -97.5l56 317h115zM349 458q-75 0 -129.5 -48t-70.5 -134q-15 -87 23 -134.5
t113 -47.5q36 0 69 12.5t59.5 36.5t45.5 57.5t26 75.5t0 75.5t-25 57t-46.5 36.5t-64.5 13z" />
    <glyph glyph-name="e" unicode="e" horiz-adv-x="623" 
d="M364 558q63 0 108.5 -20t74 -54.5t38 -81t0.5 -100.5q-2 -16 -5 -26.5t-8 -22.5h-423q-6 -45 1.5 -77t25.5 -52t43.5 -29t55.5 -9q58 0 102 29t62 77h121q-15 -43 -43 -79.5t-66 -63t-85 -41.5t-102 -15q-59 0 -105.5 19.5t-76.5 57t-41 91t1 120.5q12 65 41 116.5t72 87
t96 54.5t113 19zM470 305q10 42 3 73t-25 50.5t-44.5 29t-56.5 9.5q-31 0 -61 -9.5t-55 -29.5t-44 -50.5t-28 -72.5h311z" />
    <glyph glyph-name="f" unicode="f" horiz-adv-x="349" 
d="M123 569q17 100 84 151t187 45l-18 -100q-69 3 -99 -22t-41 -83l-2 -9h122l-17 -98h-122l-79 -453h-115l80 453h-75l17 98h75z" />
    <glyph glyph-name="g" unicode="g" horiz-adv-x="675" 
d="M244 -8q-54 0 -96.5 20t-69.5 58t-36.5 92.5t2.5 122.5q11 64 38.5 115t67 86t88 54t101.5 19q79 0 125.5 -38t57.5 -98l23 128h113l-98 -557q-10 -57 -36 -105.5t-65.5 -84t-90.5 -55t-112 -19.5q-117 0 -178.5 56t-67.5 148h113q6 -48 40 -76t99 -28q32 0 62 10
t55 30.5t42.5 51t24.5 72.5l24 134q-31 -60 -89.5 -98t-136.5 -38zM360 458q-75 0 -129.5 -47.5t-69.5 -134.5q-16 -86 22 -134t113 -48q36 0 69 12.5t59.5 36.5t45.5 57.5t26 75.5q8 42 1 75.5t-25.5 57t-47 36.5t-64.5 13z" />
    <glyph glyph-name="h" unicode="h" horiz-adv-x="653" 
d="M428 560q47 0 83 -15.5t59 -45.5t31 -74.5t-3 -103.5l-56 -321h-114l54 309q14 76 -18 115.5t-97 39.5q-63 0 -111 -38.5t-66 -117.5l-54 -308h-115l130 740h115l-54 -309q33 63 91 96t125 33z" />
    <glyph glyph-name="i" unicode="i" horiz-adv-x="251" 
d="M128 711q5 29 28.5 48t57.5 19q33 0 49.5 -19t11.5 -48t-28.5 -47t-56.5 -18t-50 18t-12 47zM231 551l-98 -551h-114l97 551h115z" />
    <glyph glyph-name="j" unicode="j" horiz-adv-x="256" 
d="M197 646q-34 0 -50.5 18t-11.5 47t28.5 48t57.5 19q33 0 49.5 -19t11.5 -48t-28.5 -47t-56.5 -18zM-107 -162h40q32 0 50 14t25 50l114 649h115l-115 -650q-15 -86 -64.5 -124.5t-127.5 -38.5h-54z" />
    <glyph glyph-name="k" unicode="k" horiz-adv-x="527" 
d="M267 281l192 -281h-136l-154 249l-44 -249h-115l131 740h115l-74 -419l235 230h138z" />
    <glyph glyph-name="l" unicode="l" horiz-adv-x="250" 
d="M266 740l-130 -740h-115l130 740h115z" />
    <glyph glyph-name="m" unicode="m" horiz-adv-x="1037" 
d="M807 560q48 0 85 -15.5t60 -45.5t31 -74.5t-2 -103.5l-57 -321h-114l55 309q13 74 -17.5 112.5t-92.5 38.5q-63 0 -110 -39.5t-63 -120.5l-53 -300h-114l55 309q13 74 -17.5 112.5t-92.5 38.5q-64 0 -112 -41t-62 -126v3l-52 -296h-115l97 551h115l-20 -114
q32 60 87.5 91.5t119.5 31.5q67 0 112 -33t57 -99q37 63 95.5 97.5t124.5 34.5z" />
    <glyph glyph-name="n" unicode="n" horiz-adv-x="653" 
d="M426 560q47 0 83 -15.5t59 -45.5t31 -74.5t-3 -103.5l-56 -321h-114l54 309q14 76 -18 115.5t-96 39.5q-67 0 -116 -42t-64 -129v3l-52 -296h-115l97 551h115l-21 -120q34 63 91.5 96t124.5 33z" />
    <glyph glyph-name="o" unicode="o" horiz-adv-x="643" 
d="M369 558q60 0 108.5 -20t80 -57.5t43.5 -91.5t0 -123q-11 -64 -41 -114.5t-73.5 -86t-97.5 -54t-113 -18.5q-61 0 -109.5 20t-80.5 57.5t-44 92t0 122.5q11 64 41.5 114.5t74 86t98 54t113.5 18.5zM354 459q-31 0 -62.5 -11t-58.5 -33.5t-47 -57t-28 -81.5
q-8 -48 -0.5 -82.5t26.5 -57t46.5 -33t58.5 -10.5q32 0 63.5 10.5t58 33t46 57t28.5 82.5q8 47 0.5 81.5t-26 57t-46 33.5t-59.5 11z" />
    <glyph glyph-name="p" unicode="p" horiz-adv-x="676" 
d="M436 558q54 0 96 -19.5t69 -55.5t36.5 -88.5t-2.5 -118.5t-40 -118.5t-68 -89t-88.5 -56t-102.5 -19.5q-78 0 -123 37.5t-55 97.5l-69 -390h-115l144 813h114l-23 -128q32 60 90.5 97.5t136.5 37.5zM319 94q75 0 129.5 47.5t69.5 134.5q15 86 -22.5 134t-112.5 48
q-36 0 -69 -13t-59.5 -36.5t-45 -57t-26.5 -75.5q-7 -42 -0.5 -75.5t24.5 -57.5t47 -36.5t65 -12.5z" />
    <glyph glyph-name="q" unicode="q" horiz-adv-x="673" 
d="M652 551l-143 -813h-114l68 383q-36 -58 -91 -93t-127 -35q-58 0 -102 20.5t-71 58t-36.5 91.5t2.5 120q11 66 39.5 117t69 86t90 53t103.5 18q73 0 118 -32.5t60 -88.5l20 115h114zM353 457q-35 0 -67.5 -12t-59 -35t-45.5 -57t-27 -79t-1 -78.5t26 -56t47.5 -34
t63.5 -11.5q34 0 66.5 12t59.5 35t46.5 57t26.5 78q8 44 0.5 77.5t-26.5 56.5t-47.5 35t-62.5 12z" />
    <glyph glyph-name="r" unicode="r" horiz-adv-x="399" 
d="M212 443q38 54 95 85.5t126 31.5l-22 -124h-35q-33 0 -63.5 -7.5t-56 -24.5t-44.5 -46t-28 -72l-50 -286h-115l97 551h115z" />
    <glyph glyph-name="s" unicode="s" horiz-adv-x="518" 
d="M272 558q110 0 165 -51t57 -131h-113q1 43 -28.5 71.5t-90.5 28.5q-41 0 -67 -17t-31 -46q-6 -34 16.5 -52.5t59 -31t79.5 -24t77.5 -32t54 -55t8.5 -93.5q-11 -57 -63.5 -94.5t-144.5 -37.5q-106 0 -169 48t-64 134h113q-4 -45 30 -73t100 -28q42 0 65 18t28 45
q7 38 -15 57.5t-58 32.5t-78.5 23.5t-77 30t-54 52.5t-9.5 90q11 59 64 97t146 38z" />
    <glyph glyph-name="t" unicode="t" horiz-adv-x="384" 
d="M183 182q-8 -48 7 -65.5t58 -17.5h55l-17 -99h-71q-42 0 -73 9.5t-50.5 31t-25.5 56.5t3 87l48 270h-80l17 97h80l24 137h115l-24 -137h133l-17 -97h-134z" />
    <glyph glyph-name="u" unicode="u" horiz-adv-x="640" 
d="M621 551l-97 -551h-115l21 120q-34 -63 -91.5 -95.5t-124.5 -32.5q-46 0 -82.5 15.5t-59 45.5t-30.5 74.5t2 103.5l57 320h114l-55 -308q-14 -77 18 -116.5t97 -39.5q66 0 115 42.5t64 129.5v-4l52 296h115z" />
    <glyph glyph-name="v" unicode="v" horiz-adv-x="574" 
d="M252 118l234 433h122l-308 -551h-138l-113 551h123z" />
    <glyph glyph-name="w" unicode="w" horiz-adv-x="841" 
d="M880 551l-250 -551h-126l-61 426l-213 -426h-125l-56 551h116l25 -446l217 446h120l61 -446l184 446h108z" />
    <glyph glyph-name="x" unicode="x" horiz-adv-x="525" 
d="M325 273l141 -273h-130l-100 194l-152 -194h-127l232 286l-137 265h129l98 -190l151 190h126z" />
    <glyph glyph-name="y" unicode="y" horiz-adv-x="580" 
d="M171 551l94 -405l224 405h127l-477 -813h-127l168 275l-137 538h128z" />
    <glyph glyph-name="z" unicode="z" horiz-adv-x="459" 
d="M119 96h283l-17 -96h-408l16 91l332 364h-261l17 96h392l-17 -91z" />
    <glyph glyph-name="braceleft" unicode="{" horiz-adv-x="396" 
d="M144 371q57 -12 77.5 -51t10.5 -96q-4 -25 -11.5 -47.5t-16 -45.5t-16 -48.5t-13.5 -57.5q-8 -47 -3.5 -85t18 -67t32.5 -49t40 -31l-1 -10h-118q-12 7 -30 24t-33 47t-22.5 73.5t2.5 102.5q5 29 13 54.5t16.5 49t16 46.5t11.5 47q3 17 2.5 35.5t-8.5 35.5t-26 30.5
t-50 20.5l8 46q35 7 58 20.5t37 30.5t21 35.5t10 35.5q4 24 4.5 47t0.5 46.5t1 49t6 54.5q11 59 33.5 102.5t48 73.5t50 47t38.5 24h117l-1 -10q-25 -11 -51.5 -31t-50 -49t-41.5 -67t-27 -85q-5 -31 -6 -57t-1 -49t-0.5 -45.5t-5.5 -47.5q-10 -57 -43.5 -95.5t-96.5 -51.5
v-2z" />
    <glyph glyph-name="bar" unicode="|" horiz-adv-x="224" 
d="M89 -113h-115l161 915h115z" />
    <glyph glyph-name="braceright" unicode="}" horiz-adv-x="390" 
d="M259 373q-58 13 -78.5 49t-11.5 89q5 25 12 47.5t15.5 45.5t16 49t13.5 57q8 45 3.5 84.5t-17 70.5t-32 53t-40.5 33l2 10h117q12 -7 30 -24t33.5 -47t23 -73.5t-3.5 -102.5q-5 -29 -13 -54.5t-16.5 -49t-16 -46.5t-11.5 -47q-3 -17 -2.5 -36t8.5 -36t26 -30.5t51 -19.5
l-8 -46q-34 -5 -57.5 -18.5t-37.5 -31t-21.5 -36.5t-10.5 -36q-4 -24 -4.5 -47t-0.5 -46.5t-1 -49t-6 -54.5q-10 -59 -33 -102.5t-48.5 -73.5t-50 -47t-38.5 -24h-117l2 10q25 11 52 33t50.5 53t42 70.5t26.5 84.5q6 32 7 57.5t1 48.5t0.5 45.5t4.5 47.5q9 53 43 89.5
t96 48.5v2z" />
    <glyph glyph-name="asciitilde" unicode="~" horiz-adv-x="553" 
d="M203 404q30 0 52.5 -10.5t41.5 -23t37 -23t40 -10.5q26 0 44.5 18t29.5 50h89q-29 -88 -78 -129.5t-110 -41.5q-30 0 -52 10.5t-41 23t-37.5 23t-40.5 10.5q-26 0 -45 -18t-30 -50h-87q29 88 77.5 129.5t109.5 41.5z" />
    <glyph glyph-name="exclamdown" unicode="&#xa1;" horiz-adv-x="336" 
d="M133 435l23 126h138l-24 -126h-137zM24 -167l111 507h100l-78 -507h-133z" />
    <glyph glyph-name="cent" unicode="&#xa2;" horiz-adv-x="584" 
d="M329 423q-31 0 -59.5 -10t-52.5 -30t-41 -50t-24 -71q-7 -40 -0.5 -70.5t23 -50t41.5 -29.5t56 -10q51 0 94.5 28t61.5 79h106q-13 -44 -37.5 -80t-58.5 -61.5t-74.5 -40.5t-85.5 -18l-17 -97h-54l17 97q-50 5 -88.5 24t-62.5 51t-32.5 77t1.5 101q10 57 34 101.5t60 77
t81 51.5t97 23l16 92h53l-16 -92q44 -3 79.5 -18t60.5 -40.5t37 -61.5t9 -80h-106q-2 53 -34.5 80.5t-83.5 27.5z" />
    <glyph glyph-name="sterling" unicode="&#xa3;" horiz-adv-x="596" 
d="M489 526q4 51 -22.5 85t-80.5 34q-48 0 -86 -30t-49 -92q-7 -35 -2.5 -70.5t10.5 -71.5h182l-14 -78h-160q2 -25 -3 -49q-8 -41 -32 -84t-72 -82h356l-16 -91h-468l-4 59q50 41 83 85.5t44 110.5q2 12 2.5 24.5t-0.5 26.5h-118l14 78h93q-5 35 -8 72.5t5 81.5
q8 46 30 83.5t55.5 64.5t76.5 41.5t94 14.5q54 0 93 -16.5t63.5 -45t34 -67.5t5.5 -84h-106z" />
    <glyph glyph-name="currency" unicode="&#xa4;" horiz-adv-x="549" 
d="M444 491q30 -45 18 -113q-6 -34 -20.5 -62t-35.5 -50l46 -55l-53 -45l-49 59q-49 -26 -106 -26q-59 0 -100 26l-70 -59l-37 45l67 56q-27 46 -15 111q6 33 20.5 61t34.5 50l-48 58l53 45l51 -62q50 25 106 25q57 0 97 -24l71 61l37 -45zM179 377q-10 -54 13 -81t64 -27
q38 0 72 27t44 81q9 54 -15.5 81.5t-62.5 27.5q-40 0 -73 -27.5t-42 -81.5z" />
    <glyph glyph-name="yen" unicode="&#xa5;" horiz-adv-x="641" 
d="M460 396h127l-13 -77h-168l-43 -62l-1 -8h200l-15 -78h-199l-30 -171h-115l30 171h-201l15 78h200l1 8l-22 62h-167l13 77h127l-108 310h132l102 -344l222 344h130z" />
    <glyph glyph-name="brokenbar" unicode="&#xa6;" horiz-adv-x="304" 
d="M175 802h115l-68 -388h-115zM129 -113h-115l68 388h115z" />
    <glyph glyph-name="section" unicode="&#xa7;" horiz-adv-x="580" 
d="M439 549q2 21 -2 39.5t-15.5 33t-31.5 23t-50 8.5q-38 0 -64.5 -15.5t-33.5 -50.5q-7 -40 24.5 -68.5t114.5 -60.5q38 -14 69.5 -30.5t53.5 -38t31.5 -50t2.5 -65.5q-8 -51 -47.5 -93t-114.5 -64q42 -26 64.5 -63t13.5 -89q-11 -67 -70 -110t-160 -43q-102 0 -152.5 50.5
t-44.5 135.5h113q-3 -44 19 -74t82 -30q37 0 64 16t32 50q4 21 -1.5 38t-22 32t-44.5 29.5t-70 30.5q-38 14 -69.5 30t-53.5 38t-31.5 50.5t-2.5 65.5q8 50 48 94.5t116 61.5q-43 26 -66.5 63.5t-14.5 88.5q12 67 71 110.5t160 43.5q102 0 152 -51t45 -136h-114zM417 274
q8 45 -19.5 74t-89.5 29t-99 -30.5t-45 -72.5q-8 -46 20 -75t89 -29q62 0 99 31t45 73z" />
    <glyph glyph-name="dieresis" unicode="&#xa8;" horiz-adv-x="365" 
d="M98 680q5 24 23.5 40t42.5 16t37.5 -16t9.5 -40q-5 -23 -24 -39.5t-43 -16.5q-23 0 -37 16.5t-9 39.5zM275 680q5 24 23.5 40t42.5 16t37.5 -16t8.5 -40q-5 -23 -23.5 -39.5t-42.5 -16.5t-37.5 16.5t-8.5 39.5z" />
    <glyph glyph-name="copyright" unicode="&#xa9;" horiz-adv-x="788" 
d="M457 710q-78 0 -147 -26t-123 -73t-90.5 -112.5t-50.5 -143.5t0 -144t51.5 -113t97 -73.5t137.5 -26.5t147 26.5t123 73.5t90.5 113t49.5 144q14 78 0.5 143.5t-51 112.5t-97 73t-137.5 26zM450 670q71 0 123 -23t84.5 -64.5t43 -99.5t-1.5 -128q-12 -69 -43.5 -127.5
t-78.5 -100.5t-107.5 -65.5t-130.5 -23.5q-71 0 -123.5 23.5t-84.5 65.5t-43 100.5t1 127.5q12 70 43.5 128t78.5 99.5t108 64.5t131 23zM439 584q37 0 68.5 -11t55.5 -32t38 -52t15 -71h-97q-6 42 -33 65t-66 23q-25 0 -49 -9.5t-44.5 -28.5t-35.5 -47.5t-22 -66.5
t-1.5 -66.5t19 -47t34.5 -28t46 -9.5q39 0 74.5 23t55.5 65h97q-15 -40 -40 -71t-56.5 -52.5t-67.5 -32.5t-73 -11q-46 0 -83.5 15.5t-62 44.5t-34 72.5t0.5 98.5t34.5 97.5t59.5 72t78 44.5t89 15z" />
    <glyph glyph-name="ordfeminine" unicode="&#xaa;" horiz-adv-x="446" 
d="M225 710q51 0 80 -22t38 -61l14 78h87l-62 -351h-87l14 78q-23 -39 -59 -61.5t-87 -22.5q-72 0 -109.5 48t-22.5 133q7 42 25 75.5t43.5 57t57.5 36t68 12.5zM241 640q-43 0 -77 -30t-43 -82q-10 -52 14 -80t67 -28q45 0 80 29t44 81q9 51 -15.5 80.5t-69.5 29.5z" />
    <glyph glyph-name="guillemotleft" unicode="&#xab;" horiz-adv-x="489" 
d="M107 120l-62 175l124 175h109l-126 -175l64 -175h-109zM304 120l-62 175l124 175h108l-126 -175l64 -175h-108z" />
    <glyph glyph-name="logicalnot" unicode="&#xac;" horiz-adv-x="748" 
d="M714 435l-40 -227h-114l25 139h-539l15 88h653z" />
    <glyph glyph-name="registered" unicode="&#xae;" horiz-adv-x="802" 
d="M464 711q80 0 140.5 -25.5t99 -72.5t52.5 -112.5t0 -145.5q-13 -78 -50.5 -143.5t-92.5 -113t-125 -74t-149 -26.5t-140 26.5t-99.5 74t-53 113t-0.5 143.5q14 80 51.5 145.5t92.5 112.5t125 72.5t149 25.5zM713 355q13 72 1.5 130t-44.5 99.5t-86.5 64t-125.5 22.5
t-134 -22.5t-110 -64t-80 -99.5t-45 -130q-12 -70 -0.5 -127.5t44.5 -98.5t87 -63.5t126 -22.5t133.5 22.5t109.5 63.5t80 98.5t44 127.5zM464 585q41 0 68.5 -10t43.5 -27t20.5 -40.5t-0.5 -49.5q-8 -48 -42.5 -82t-95.5 -43l86 -187h-81l-82 184h-51l-32 -184h-74l77 439
h163zM519 449q6 32 -10 50.5t-64 18.5h-82l-24 -139h82q48 0 70.5 19t27.5 51z" />
    <glyph glyph-name="macron" unicode="&#xaf;" horiz-adv-x="418" 
d="M459 720l-14 -78h-366l14 78h366z" />
    <glyph glyph-name="degree" unicode="&#xb0;" horiz-adv-x="422" 
d="M242 702q84 0 126 -47.5t27 -128.5q-14 -82 -71.5 -130.5t-141.5 -48.5q-41 0 -73 12.5t-52.5 36t-28.5 56.5t-1 74q14 81 72.5 128.5t142.5 47.5zM232 639q-41 0 -73 -28.5t-42 -85.5q-11 -57 12.5 -85t63.5 -28t71 28t41 85t-12 85.5t-61 28.5z" />
    <glyph glyph-name="plusminus" unicode="&#xb1;" horiz-adv-x="571" 
d="M347 369l-31 -172h200l-18 -104h-510l18 104h199l31 172h-199l18 104h199l28 160h111l-28 -160h200l-19 -104h-199z" />
    <glyph glyph-name="uni00B2" unicode="&#xb2;" horiz-adv-x="358" 
d="M335 610q-8 -42 -41.5 -73.5t-95.5 -64.5l-89 -52h194l-12 -68h-279l11 63l140 92q30 21 52 44t27 52q4 24 -7 35t-31 11q-51 0 -68 -65h-87q14 53 59 90.5t118 37.5q65 0 91 -30.5t18 -71.5z" />
    <glyph glyph-name="uni00B3" unicode="&#xb3;" horiz-adv-x="349" 
d="M212 712q62 0 93.5 -28t23.5 -73q-11 -64 -84 -79l-1 -3q73 -20 61 -84q-8 -42 -48.5 -69.5t-107.5 -27.5q-79 0 -108.5 30t-25.5 84h92q-3 -31 10.5 -41t35.5 -10q26 0 42 12.5t20 36.5q5 26 -9.5 39t-42.5 13h-46l5 35h44q28 0 46 13.5t23 39.5q4 22 -7.5 35t-34.5 13
q-50 0 -66 -49h-84q6 22 18.5 42.5t33 36t49.5 25t68 9.5z" />
    <glyph glyph-name="acute" unicode="&#xb4;" horiz-adv-x="273" 
d="M285 683l-179 -80l-14 41l171 99z" />
    <glyph glyph-name="uni00B5" unicode="&#xb5;" horiz-adv-x="658" 
d="M649 551l-97 -551h-115l20 114q-32 -60 -86.5 -91t-117.5 -31q-31 0 -58 11t-42 39l-54 -304h-114l144 813h114l-51 -287q-15 -87 18.5 -129.5t99.5 -42.5q63 0 110.5 41t61.5 126v-5l52 297h115z" />
    <glyph glyph-name="paragraph" unicode="&#xb6;" horiz-adv-x="625" 
d="M483 0h-93l107 608h-85l-107 -608h-93l49 282h-15q-61 0 -103 16.5t-66 44.5t-31 65.5t0 79.5t27.5 80t54.5 66t82 44.5t109 16.5h287z" />
    <glyph glyph-name="periodcentered" unicode="&#xb7;" horiz-adv-x="204" 
d="M198 395l-23 -126h-129l22 126h130z" />
    <glyph glyph-name="cedilla" unicode="&#xb8;" horiz-adv-x="293" 
d="M152 -60q25 1 47 -4t37.5 -18t23 -33t2.5 -49q-5 -26 -18.5 -44.5t-33 -30.5t-43 -17.5t-49.5 -5.5h-116l11 64h103q32 0 47.5 10t18.5 27q4 19 -8 32t-44 13h-59l22 123h70z" />
    <glyph glyph-name="uni00B9" unicode="&#xb9;" horiz-adv-x="216" 
d="M50 635l12 69h147l-62 -352h-88l50 283h-59z" />
    <glyph glyph-name="ordmasculine" unicode="&#xba;" horiz-adv-x="430" 
d="M252 709q43 0 75.5 -13.5t53 -37.5t28.5 -57.5t1 -73.5q-7 -39 -26.5 -72.5t-49 -58t-66.5 -38t-80 -13.5t-75.5 13.5t-53 38t-28 58t-0.5 72.5q7 40 26 73.5t48.5 57.5t66.5 37.5t80 13.5zM240 640q-42 0 -76 -28.5t-44 -84.5q-10 -55 14 -83.5t66 -28.5t76.5 28.5
t44.5 83.5q10 56 -14.5 84.5t-66.5 28.5z" />
    <glyph glyph-name="guillemotright" unicode="&#xbb;" horiz-adv-x="489" 
d="M146 295l-65 175h110l61 -175l-123 -175h-110zM343 295l-65 175h109l61 -175l-122 -175h-110z" />
    <glyph glyph-name="onequarter" unicode="&#xbc;" horiz-adv-x="704" 
d="M629 706l-491 -706h-113l492 706h112zM64 635l12 69h147l-62 -352h-88l50 283h-59zM622 68h-46l-11 -68h-88l11 68h-186l9 49l202 236h114l-41 -233h46zM530 281l-134 -159h107z" />
    <glyph glyph-name="onehalf" unicode="&#xbd;" horiz-adv-x="750" 
d="M634 707l-496 -707h-113l497 707h112zM144 635h-59l12 69h147l-62 -352h-88zM690 257q-8 -42 -41.5 -73.5t-95.5 -64.5l-89 -52h194l-12 -68h-279l11 63l140 92q30 21 52 44t27 52q4 24 -7 35t-31 11q-51 0 -68 -65h-87q14 53 59 90.5t118 37.5q65 0 91 -30.5t18 -71.5z
" />
    <glyph glyph-name="threequarters" unicode="&#xbe;" horiz-adv-x="763" 
d="M236 712q62 0 93.5 -28t23.5 -73q-11 -64 -84 -79l-1 -3q73 -20 61 -84q-8 -42 -48.5 -69.5t-107.5 -27.5q-79 0 -108.5 30t-25.5 84h92q-3 -31 10.5 -41t35.5 -10q26 0 42 12.5t20 36.5q5 26 -9.5 39t-42.5 13h-46l5 35h44q28 0 46 13.5t23 39.5q4 22 -7.5 35t-34.5 13
q-50 0 -66 -49h-84q6 22 18.5 42.5t33 36t49.5 25t68 9.5zM703 707l-483 -707h-112l482 707h113zM695 68h-46l-11 -68h-88l11 68h-187l9 49l192 236h125l-41 -233h45zM605 291l-136 -171h106z" />
    <glyph glyph-name="questiondown" unicode="&#xbf;" horiz-adv-x="498" 
d="M298 428l22 126h130l-22 -126h-130zM186 -186q-50 0 -89 14t-64 41.5t-34.5 67.5t-0.5 91q9 52 34 89.5t62 62t83.5 36.5t97.5 13l19 110h108l-32 -186h-48q-35 0 -70 -5t-64 -18.5t-49.5 -38t-27.5 -63.5q-11 -57 15.5 -88.5t80.5 -31.5q57 0 89.5 31t45.5 81h109
q-9 -45 -30.5 -83t-55 -65t-78.5 -42.5t-101 -15.5z" />
    <glyph glyph-name="Agrave" unicode="&#xc0;" horiz-adv-x="682" 
d="M513 752l-150 85l30 62l144 -101zM456 153h-298l-81 -153h-122l382 695h131l137 -695h-122zM440 241l-59 330l-176 -330h235z" />
    <glyph glyph-name="Aacute" unicode="&#xc1;" horiz-adv-x="682" 
d="M351 758l-14 41l171 99l22 -60zM456 153h-298l-81 -153h-122l382 695h131l137 -695h-122zM440 241l-59 330l-176 -330h235z" />
    <glyph glyph-name="Acircumflex" unicode="&#xc2;" horiz-adv-x="682" 
d="M316 754l-15 48l143 76l117 -76l-28 -48l-98 62zM456 153h-298l-81 -153h-122l382 695h131l137 -695h-122zM440 241l-59 330l-176 -330h235z" />
    <glyph glyph-name="Atilde" unicode="&#xc3;" horiz-adv-x="682" 
d="M367 807q-33 0 -48 -44h-51q18 54 46 78.5t66 24.5q20 0 33 -7t24 -15t22.5 -15t26.5 -7t27.5 10.5t20.5 32.5h52q-17 -52 -46.5 -77t-67.5 -25q-20 0 -33.5 7t-25 15t-22 15t-24.5 7zM456 153h-298l-81 -153h-122l382 695h131l137 -695h-122zM440 241l-59 330l-176 -330
h235z" />
    <glyph glyph-name="Adieresis" unicode="&#xc4;" horiz-adv-x="682" 
d="M335 779q-23 0 -37 16.5t-9 39.5q5 24 23.5 40t42.5 16t37.5 -16t9.5 -40q-5 -23 -24 -39.5t-43 -16.5zM512 779q-24 0 -37.5 16.5t-8.5 39.5q5 24 23.5 40t42.5 16t37.5 -16t8.5 -40q-5 -23 -23.5 -39.5t-42.5 -16.5zM456 153h-298l-81 -153h-122l382 695h131l137 -695
h-122zM440 241l-59 330l-176 -330h235z" />
    <glyph glyph-name="Aring" unicode="&#xc5;" horiz-adv-x="682" 
d="M406 760q-45 0 -72 29t-18 80q9 52 46.5 81t82.5 29t72 -29t18 -81q-8 -51 -45.5 -80t-83.5 -29zM367 869q-5 -28 9 -44t39 -16q26 0 45 16t24 44q5 29 -8.5 45t-39.5 16q-25 0 -44.5 -16t-24.5 -45zM456 153h-298l-81 -153h-122l382 695h131l137 -695h-122zM440 241
l-59 330l-176 -330h235z" />
    <glyph glyph-name="AE" unicode="&#xc6;" horiz-adv-x="907" 
d="M626 614l-38 -213h255l-15 -88h-255l-39 -220h285l-16 -93h-400l26 148h-252l-108 -148h-126l513 706h471l-17 -92h-284zM510 606l-269 -370h204z" />
    <glyph glyph-name="Ccedilla" unicode="&#xc7;" horiz-adv-x="761" 
d="M338 100q81 0 141.5 38.5t95.5 99.5h120q-43 -97 -122.5 -161t-189.5 -79l-10 -58q25 1 47 -4t37.5 -18t23 -33t2.5 -49q-5 -26 -18.5 -44.5t-33 -30.5t-43 -17.5t-49.5 -5.5h-116l11 64h103q32 0 47.5 10t18.5 27q4 19 -8 32t-44 13h-59l20 110q-74 2 -130 29
t-90.5 74.5t-46.5 112.5t1 143q14 79 50 145t88.5 114t119.5 74.5t143 26.5q67 0 118.5 -17.5t88 -50t57 -77.5t25.5 -100h-121q-13 62 -60 100.5t-128 38.5q-47 0 -90 -17.5t-78.5 -50.5t-60 -80t-35.5 -106q-10 -58 -2 -105t31.5 -80t61 -50.5t84.5 -17.5z" />
    <glyph glyph-name="Egrave" unicode="&#xc8;" horiz-adv-x="515" 
d="M463 798l-24 -46l-150 85l30 62zM229 614l-37 -214h259l-16 -88h-259l-38 -219h289l-16 -93h-404l124 706h404l-17 -92h-289z" />
    <glyph glyph-name="Eacute" unicode="&#xc9;" horiz-adv-x="515" 
d="M456 838l-179 -80l-14 41l171 99zM229 614l-37 -214h259l-16 -88h-259l-38 -219h289l-16 -93h-404l124 706h404l-17 -92h-289z" />
    <glyph glyph-name="Ecircumflex" unicode="&#xca;" horiz-adv-x="515" 
d="M361 816l-119 -62l-15 48l143 76l117 -76l-28 -48zM229 614l-37 -214h259l-16 -88h-259l-38 -219h289l-16 -93h-404l124 706h404l-17 -92h-289z" />
    <glyph glyph-name="Edieresis" unicode="&#xcb;" horiz-adv-x="515" 
d="M215 835q5 24 23.5 40t42.5 16t37.5 -16t9.5 -40q-5 -23 -24 -39.5t-43 -16.5q-23 0 -37 16.5t-9 39.5zM392 835q5 24 23.5 40t42.5 16t37.5 -16t8.5 -40q-5 -23 -23.5 -39.5t-42.5 -16.5t-37.5 16.5t-8.5 39.5zM229 614l-37 -214h259l-16 -88h-259l-38 -219h289l-16 -93
h-404l124 706h404l-17 -92h-289z" />
    <glyph glyph-name="Igrave" unicode="&#xcc;" horiz-adv-x="252" 
d="M331 798l-24 -46l-150 85l30 62zM246 706l-125 -706h-114l124 706h115z" />
    <glyph glyph-name="Iacute" unicode="&#xcd;" horiz-adv-x="252" 
d="M324 838l-179 -80l-14 41l171 99zM246 706l-125 -706h-114l124 706h115z" />
    <glyph glyph-name="Icircumflex" unicode="&#xce;" horiz-adv-x="252" 
d="M229 816l-119 -62l-15 48l143 76l117 -76l-28 -48zM246 706l-125 -706h-114l124 706h115z" />
    <glyph glyph-name="Idieresis" unicode="&#xcf;" horiz-adv-x="252" 
d="M75 835q5 24 23.5 40t42.5 16t37.5 -16t9.5 -40q-5 -23 -24 -39.5t-43 -16.5q-23 0 -37 16.5t-9 39.5zM252 835q5 24 23.5 40t42.5 16t37.5 -16t8.5 -40q-5 -23 -23.5 -39.5t-42.5 -16.5t-37.5 16.5t-8.5 39.5zM246 706l-125 -706h-114l124 706h115z" />
    <glyph glyph-name="Eth" unicode="&#xd0;" horiz-adv-x="742" 
d="M388 706q89 0 153.5 -25t103.5 -71t52.5 -111t-0.5 -145t-50.5 -145t-92 -111.5t-128.5 -72t-162 -25.5h-236l54 308h-85l17 92h84l54 306h236zM580 354q21 118 -34 184.5t-185 66.5h-112l-36 -205h185l-17 -92h-185l-36 -205h113q129 0 208 66t99 185z" />
    <glyph glyph-name="Ntilde" unicode="&#xd1;" horiz-adv-x="709" 
d="M403 866q20 0 33 -7t24 -15t22.5 -15t26.5 -7t27.5 10.5t20.5 32.5h52q-17 -52 -46.5 -77t-67.5 -25q-20 0 -33.5 7t-25 15t-22 15t-24.5 7q-33 0 -48 -44h-51q18 54 46 78.5t66 24.5zM579 0h-115l-251 521l-91 -521h-115l124 705h114l251 -523l92 523h114z" />
    <glyph glyph-name="Ograve" unicode="&#xd2;" 
d="M581 798l-24 -46l-150 85l30 62zM441 715q81 0 142.5 -28t100.5 -78.5t53 -120t-1 -153.5q-13 -75 -48 -138t-86.5 -108.5t-117.5 -71t-142 -25.5q-82 0 -144 28t-100.5 78.5t-52 120.5t1.5 154q14 75 48.5 138t86 108.5t117.5 70.5t142 25zM432 609q-50 0 -95 -17.5
t-81 -50t-61 -78.5t-36 -104q-10 -60 -1 -108t34.5 -82t66 -52t92.5 -18q50 0 95 17.5t81 50t61.5 78.5t35.5 104q11 60 1.5 108t-35 82t-66 52t-92.5 18z" />
    <glyph glyph-name="Oacute" unicode="&#xd3;" 
d="M574 838l-179 -80l-14 41l171 99zM441 715q81 0 142.5 -28t100.5 -78.5t53 -120t-1 -153.5q-13 -75 -48 -138t-86.5 -108.5t-117.5 -71t-142 -25.5q-82 0 -144 28t-100.5 78.5t-52 120.5t1.5 154q14 75 48.5 138t86 108.5t117.5 70.5t142 25zM432 609q-50 0 -95 -17.5
t-81 -50t-61 -78.5t-36 -104q-10 -60 -1 -108t34.5 -82t66 -52t92.5 -18q50 0 95 17.5t81 50t61.5 78.5t35.5 104q11 60 1.5 108t-35 82t-66 52t-92.5 18z" />
    <glyph glyph-name="Ocircumflex" unicode="&#xd4;" 
d="M479 816l-119 -62l-15 48l143 76l117 -76l-28 -48zM441 715q81 0 142.5 -28t100.5 -78.5t53 -120t-1 -153.5q-13 -75 -48 -138t-86.5 -108.5t-117.5 -71t-142 -25.5q-82 0 -144 28t-100.5 78.5t-52 120.5t1.5 154q14 75 48.5 138t86 108.5t117.5 70.5t142 25zM432 609
q-50 0 -95 -17.5t-81 -50t-61 -78.5t-36 -104q-10 -60 -1 -108t34.5 -82t66 -52t92.5 -18q50 0 95 17.5t81 50t61.5 78.5t35.5 104q11 60 1.5 108t-35 82t-66 52t-92.5 18z" />
    <glyph glyph-name="Otilde" unicode="&#xd5;" 
d="M424 866q20 0 33 -7t24 -15t22.5 -15t26.5 -7t27.5 10.5t20.5 32.5h52q-17 -52 -46.5 -77t-67.5 -25q-20 0 -33.5 7t-25 15t-22 15t-24.5 7q-33 0 -48 -44h-51q18 54 46 78.5t66 24.5zM441 715q81 0 142.5 -28t100.5 -78.5t53 -120t-1 -153.5q-13 -75 -48 -138
t-86.5 -108.5t-117.5 -71t-142 -25.5q-82 0 -144 28t-100.5 78.5t-52 120.5t1.5 154q14 75 48.5 138t86 108.5t117.5 70.5t142 25zM432 609q-50 0 -95 -17.5t-81 -50t-61 -78.5t-36 -104q-10 -60 -1 -108t34.5 -82t66 -52t92.5 -18q50 0 95 17.5t81 50t61.5 78.5t35.5 104
q11 60 1.5 108t-35 82t-66 52t-92.5 18z" />
    <glyph glyph-name="Odieresis" unicode="&#xd6;" 
d="M337 835q5 24 23.5 40t42.5 16t37.5 -16t9.5 -40q-5 -23 -24 -39.5t-43 -16.5q-23 0 -37 16.5t-9 39.5zM514 835q5 24 23.5 40t42.5 16t37.5 -16t8.5 -40q-5 -23 -23.5 -39.5t-42.5 -16.5t-37.5 16.5t-8.5 39.5zM441 715q81 0 142.5 -28t100.5 -78.5t53 -120t-1 -153.5
q-13 -75 -48 -138t-86.5 -108.5t-117.5 -71t-142 -25.5q-82 0 -144 28t-100.5 78.5t-52 120.5t1.5 154q14 75 48.5 138t86 108.5t117.5 70.5t142 25zM432 609q-50 0 -95 -17.5t-81 -50t-61 -78.5t-36 -104q-10 -60 -1 -108t34.5 -82t66 -52t92.5 -18q50 0 95 17.5t81 50
t61.5 78.5t35.5 104q11 60 1.5 108t-35 82t-66 52t-92.5 18z" />
    <glyph glyph-name="multiply" unicode="&#xd7;" horiz-adv-x="522" 
d="M340 367l129 -157l-90 -75l-128 155l-181 -154l-61 73l181 155l-126 152l90 76l125 -152l177 151l61 -73z" />
    <glyph glyph-name="Oslash" unicode="&#xd8;" horiz-adv-x="790" 
d="M692 598q35 -51 46.5 -117t-2.5 -146q-13 -75 -48 -138t-86.5 -108.5t-117.5 -71t-142 -25.5q-70 0 -125.5 20.5t-94.5 58.5l-76 -71h-68l114 106q-35 51 -47 118.5t2 148.5q14 75 48.5 138t86 108.5t117.5 70.5t142 25q71 0 127 -21.5t95 -61.5l82 76h66zM159 359
q-9 -53 -3 -96t25 -76l397 367q-26 26 -63 40.5t-83 14.5q-50 0 -95 -17.5t-81 -50t-61 -78.5t-36 -104zM624 349q9 51 3.5 93.5t-22.5 74.5l-396 -366q52 -52 142 -52q50 0 95 17.5t81 50t61.5 78.5t35.5 104z" />
    <glyph glyph-name="Ugrave" unicode="&#xd9;" horiz-adv-x="671" 
d="M541 798l-24 -46l-150 85l30 62zM241 706l-73 -419q-17 -97 17 -141.5t108 -44.5q72 0 122 44.5t67 141.5l74 419h114l-74 -419q-13 -75 -43.5 -130.5t-73.5 -92t-96 -54t-112 -17.5q-58 0 -104.5 17.5t-76 54t-40 92t2.5 130.5l74 419h114z" />
    <glyph glyph-name="Uacute" unicode="&#xda;" horiz-adv-x="671" 
d="M534 838l-179 -80l-14 41l171 99zM241 706l-73 -419q-17 -97 17 -141.5t108 -44.5q72 0 122 44.5t67 141.5l74 419h114l-74 -419q-13 -75 -43.5 -130.5t-73.5 -92t-96 -54t-112 -17.5q-58 0 -104.5 17.5t-76 54t-40 92t2.5 130.5l74 419h114z" />
    <glyph glyph-name="Ucircumflex" unicode="&#xdb;" horiz-adv-x="671" 
d="M439 816l-119 -62l-15 48l143 76l117 -76l-28 -48zM241 706l-73 -419q-17 -97 17 -141.5t108 -44.5q72 0 122 44.5t67 141.5l74 419h114l-74 -419q-13 -75 -43.5 -130.5t-73.5 -92t-96 -54t-112 -17.5q-58 0 -104.5 17.5t-76 54t-40 92t2.5 130.5l74 419h114z" />
    <glyph glyph-name="Udieresis" unicode="&#xdc;" horiz-adv-x="671" 
d="M280 835q5 24 23.5 40t42.5 16t37.5 -16t9.5 -40q-5 -23 -24 -39.5t-43 -16.5q-23 0 -37 16.5t-9 39.5zM457 835q5 24 23.5 40t42.5 16t37.5 -16t8.5 -40q-5 -23 -23.5 -39.5t-42.5 -16.5t-37.5 16.5t-8.5 39.5zM241 706l-73 -419q-17 -97 17 -141.5t108 -44.5
q72 0 122 44.5t67 141.5l74 419h114l-74 -419q-13 -75 -43.5 -130.5t-73.5 -92t-96 -54t-112 -17.5q-58 0 -104.5 17.5t-76 54t-40 92t2.5 130.5l74 419h114z" />
    <glyph glyph-name="Yacute" unicode="&#xdd;" horiz-adv-x="618" 
d="M328 758l-14 41l171 99l22 -60zM664 706l-314 -449l-45 -257h-115l45 257l-157 449h132l104 -327l220 327h130z" />
    <glyph glyph-name="Thorn" unicode="&#xde;" horiz-adv-x="585" 
d="M147 143l-26 -143h-114l124 706h114l-25 -140h126q63 0 106.5 -15.5t69 -43.5t33 -67t-0.5 -87q-17 -97 -89 -153.5t-193 -56.5h-125zM276 232q78 0 115 33t47 88q10 58 -16 90.5t-103 32.5h-114l-43 -244h114z" />
    <glyph glyph-name="germandbls" unicode="&#xdf;" horiz-adv-x="670" 
d="M508 379q68 -45 94 -98t12 -127q-6 -34 -24 -64t-45.5 -52t-64 -34.5t-80.5 -12.5q-94 0 -143.5 52t-37.5 145h95q-6 -44 14 -70.5t68 -26.5t75 27t32 58q6 35 -6.5 62t-56.5 59l-138 101l9 43l32 15q63 31 73 90q7 43 -14.5 70.5t-67.5 27.5q-49 0 -81.5 -28.5
t-41.5 -80.5l-93 -535h-115l95 539q18 100 85.5 155.5t177.5 55.5q49 0 85.5 -13t59.5 -35.5t31.5 -54t2.5 -67.5q-8 -45 -40.5 -78.5t-87.5 -56.5z" />
    <glyph glyph-name="agrave" unicode="&#xe0;" horiz-adv-x="677" 
d="M517 643l-24 -46l-150 85l30 62zM337 558q79 0 126 -37.5t57 -97.5l23 128h114l-98 -551h-114l23 128q-31 -60 -89.5 -97.5t-136.5 -37.5q-55 0 -98 20t-69 57.5t-35 92t3 122.5q11 64 38.5 114.5t66.5 86t87.5 54t101.5 18.5zM358 458q-75 0 -129.5 -48t-69.5 -134
q-15 -87 22.5 -134.5t112.5 -47.5q36 0 69 12.5t59.5 36.5t45.5 57.5t26 75.5q8 42 1 75.5t-25 57t-47 36.5t-65 13z" />
    <glyph glyph-name="aacute" unicode="&#xe1;" horiz-adv-x="677" 
d="M510 683l-179 -80l-14 41l171 99zM337 558q79 0 126 -37.5t57 -97.5l23 128h114l-98 -551h-114l23 128q-31 -60 -89.5 -97.5t-136.5 -37.5q-55 0 -98 20t-69 57.5t-35 92t3 122.5q11 64 38.5 114.5t66.5 86t87.5 54t101.5 18.5zM358 458q-75 0 -129.5 -48t-69.5 -134
q-15 -87 22.5 -134.5t112.5 -47.5q36 0 69 12.5t59.5 36.5t45.5 57.5t26 75.5q8 42 1 75.5t-25 57t-47 36.5t-65 13z" />
    <glyph glyph-name="acircumflex" unicode="&#xe2;" horiz-adv-x="677" 
d="M415 661l-119 -62l-15 48l143 76l117 -76l-28 -48zM337 558q79 0 126 -37.5t57 -97.5l23 128h114l-98 -551h-114l23 128q-31 -60 -89.5 -97.5t-136.5 -37.5q-55 0 -98 20t-69 57.5t-35 92t3 122.5q11 64 38.5 114.5t66.5 86t87.5 54t101.5 18.5zM358 458
q-75 0 -129.5 -48t-69.5 -134q-15 -87 22.5 -134.5t112.5 -47.5q36 0 69 12.5t59.5 36.5t45.5 57.5t26 75.5q8 42 1 75.5t-25 57t-47 36.5t-65 13z" />
    <glyph glyph-name="atilde" unicode="&#xe3;" horiz-adv-x="677" 
d="M360 711q20 0 33 -7t24 -15t22.5 -15t26.5 -7t27.5 10.5t20.5 32.5h52q-17 -52 -46.5 -77t-67.5 -25q-20 0 -33.5 7t-25 15t-22 15t-24.5 7q-33 0 -48 -44h-51q18 54 46 78.5t66 24.5zM337 558q79 0 126 -37.5t57 -97.5l23 128h114l-98 -551h-114l23 128
q-31 -60 -89.5 -97.5t-136.5 -37.5q-55 0 -98 20t-69 57.5t-35 92t3 122.5q11 64 38.5 114.5t66.5 86t87.5 54t101.5 18.5zM358 458q-75 0 -129.5 -48t-69.5 -134q-15 -87 22.5 -134.5t112.5 -47.5q36 0 69 12.5t59.5 36.5t45.5 57.5t26 75.5q8 42 1 75.5t-25 57t-47 36.5
t-65 13z" />
    <glyph glyph-name="adieresis" unicode="&#xe4;" horiz-adv-x="676" 
d="M247 680q5 24 23.5 40t42.5 16t37.5 -16t9.5 -40q-5 -23 -24 -39.5t-43 -16.5q-23 0 -37 16.5t-9 39.5zM424 680q5 24 23.5 40t42.5 16t37.5 -16t8.5 -40q-5 -23 -23.5 -39.5t-42.5 -16.5t-37.5 16.5t-8.5 39.5zM337 558q79 0 126 -37.5t57 -97.5l23 128h114l-98 -551
h-114l23 128q-31 -60 -89.5 -97.5t-136.5 -37.5q-55 0 -98 20t-69 57.5t-35 92t3 122.5q11 64 38.5 114.5t66.5 86t87.5 54t101.5 18.5zM358 458q-75 0 -129.5 -48t-69.5 -134q-15 -87 22.5 -134.5t112.5 -47.5q36 0 69 12.5t59.5 36.5t45.5 57.5t26 75.5q8 42 1 75.5
t-25 57t-47 36.5t-65 13z" />
    <glyph glyph-name="aring" unicode="&#xe5;" horiz-adv-x="676" 
d="M394 824q45 0 72 -29t18 -81q-8 -51 -45.5 -80t-83.5 -29q-45 0 -72 29t-18 80q9 52 46.5 81t82.5 29zM385 775q-25 0 -44.5 -16t-24.5 -45q-5 -28 9 -44t39 -16q26 0 45 16t24 44q5 29 -8.5 45t-39.5 16zM337 558q79 0 126 -37.5t57 -97.5l23 128h114l-98 -551h-114
l23 128q-31 -60 -89.5 -97.5t-136.5 -37.5q-55 0 -98 20t-69 57.5t-35 92t3 122.5q11 64 38.5 114.5t66.5 86t87.5 54t101.5 18.5zM358 458q-75 0 -129.5 -48t-69.5 -134q-15 -87 22.5 -134.5t112.5 -47.5q36 0 69 12.5t59.5 36.5t45.5 57.5t26 75.5q8 42 1 75.5t-25 57
t-47 36.5t-65 13z" />
    <glyph glyph-name="ae" unicode="&#xe6;" horiz-adv-x="1098" 
d="M862 558q57 0 99 -20t67 -54.5t33.5 -81t-1.5 -100.5q-2 -16 -5 -26.5t-8 -22.5h-440q-6 -45 3 -77t27.5 -52.5t46 -30t58.5 -9.5q62 0 107.5 28.5t64.5 79.5h121q-15 -43 -41.5 -79.5t-61.5 -63t-78 -41.5t-91 -15q-74 0 -123.5 34.5t-58.5 101.5l-23 -129h-114l23 128
q-32 -60 -90.5 -97.5t-136.5 -37.5q-54 0 -96 19.5t-69 56t-36.5 89t2.5 118.5t40 118.5t67.5 88.5t88.5 55.5t103 19.5q78 0 123 -37.5t56 -97.5l22 128h114l-23 -129q32 67 92 101.5t138 34.5zM946 305q9 42 1.5 73t-27 50.5t-48 29t-60.5 9.5q-33 0 -64 -9t-57.5 -28.5
t-46 -50t-29.5 -74.5h331zM493 276q7 42 0 75.5t-25 57t-46.5 36.5t-64.5 13q-75 0 -129.5 -48t-69.5 -134q-16 -87 22 -134.5t113 -47.5q36 0 69 12.5t59.5 36.5t45.5 57.5t26 75.5z" />
    <glyph glyph-name="ccedilla" unicode="&#xe7;" horiz-adv-x="620" 
d="M281 92q58 0 101.5 29.5t62.5 82.5h121q-31 -88 -99.5 -143t-162.5 -66l-9 -55q25 1 47 -4t37.5 -18t23 -33t2.5 -49q-5 -26 -18.5 -44.5t-33 -30.5t-43 -17.5t-49.5 -5.5h-116l11 64h103q32 0 47.5 10t18.5 27q4 19 -8 32t-44 13h-59l20 111q-52 5 -93 27t-66.5 59
t-34.5 88.5t2 115.5q12 64 41 114.5t71 86t95 54t111 18.5q110 0 171 -56.5t61 -153.5h-121q-1 52 -34.5 81.5t-91.5 29.5q-31 0 -60.5 -11t-55 -33.5t-44 -57t-27.5 -81.5q-8 -48 -1.5 -82.5t24 -57t43.5 -33.5t57 -11z" />
    <glyph glyph-name="egrave" unicode="&#xe8;" horiz-adv-x="623" 
d="M466 597l-150 85l30 62l144 -101zM364 558q63 0 108.5 -20t74 -54.5t38 -81t0.5 -100.5q-2 -16 -5 -26.5t-8 -22.5h-423q-6 -45 1.5 -77t25.5 -52t43.5 -29t55.5 -9q58 0 102 29t62 77h121q-15 -43 -43 -79.5t-66 -63t-85 -41.5t-102 -15q-59 0 -105.5 19.5t-76.5 57
t-41 91t1 120.5q12 65 41 116.5t72 87t96 54.5t113 19zM470 305q10 42 3 73t-25 50.5t-44.5 29t-56.5 9.5q-31 0 -61 -9.5t-55 -29.5t-44 -50.5t-28 -72.5h311z" />
    <glyph glyph-name="eacute" unicode="&#xe9;" horiz-adv-x="623" 
d="M304 603l-14 41l171 99l22 -60zM364 558q63 0 108.5 -20t74 -54.5t38 -81t0.5 -100.5q-2 -16 -5 -26.5t-8 -22.5h-423q-6 -45 1.5 -77t25.5 -52t43.5 -29t55.5 -9q58 0 102 29t62 77h121q-15 -43 -43 -79.5t-66 -63t-85 -41.5t-102 -15q-59 0 -105.5 19.5t-76.5 57
t-41 91t1 120.5q12 65 41 116.5t72 87t96 54.5t113 19zM470 305q10 42 3 73t-25 50.5t-44.5 29t-56.5 9.5q-31 0 -61 -9.5t-55 -29.5t-44 -50.5t-28 -72.5h311z" />
    <glyph glyph-name="ecircumflex" unicode="&#xea;" horiz-adv-x="623" 
d="M269 599l-15 48l143 76l117 -76l-28 -48l-98 62zM364 558q63 0 108.5 -20t74 -54.5t38 -81t0.5 -100.5q-2 -16 -5 -26.5t-8 -22.5h-423q-6 -45 1.5 -77t25.5 -52t43.5 -29t55.5 -9q58 0 102 29t62 77h121q-15 -43 -43 -79.5t-66 -63t-85 -41.5t-102 -15
q-59 0 -105.5 19.5t-76.5 57t-41 91t1 120.5q12 65 41 116.5t72 87t96 54.5t113 19zM470 305q10 42 3 73t-25 50.5t-44.5 29t-56.5 9.5q-31 0 -61 -9.5t-55 -29.5t-44 -50.5t-28 -72.5h311z" />
    <glyph glyph-name="edieresis" unicode="&#xeb;" horiz-adv-x="621" 
d="M276 624q-23 0 -37 16.5t-9 39.5q5 24 23.5 40t42.5 16t37.5 -16t9.5 -40q-5 -23 -24 -39.5t-43 -16.5zM453 624q-24 0 -37.5 16.5t-8.5 39.5q5 24 23.5 40t42.5 16t37.5 -16t8.5 -40q-5 -23 -23.5 -39.5t-42.5 -16.5zM364 558q63 0 108.5 -20t74 -54.5t38 -81
t0.5 -100.5q-2 -16 -5 -26.5t-8 -22.5h-423q-6 -45 1.5 -77t25.5 -52t43.5 -29t55.5 -9q58 0 102 29t62 77h121q-15 -43 -43 -79.5t-66 -63t-85 -41.5t-102 -15q-59 0 -105.5 19.5t-76.5 57t-41 91t1 120.5q12 65 41 116.5t72 87t96 54.5t113 19zM470 305q10 42 3 73
t-25 50.5t-44.5 29t-56.5 9.5q-31 0 -61 -9.5t-55 -29.5t-44 -50.5t-28 -72.5h311z" />
    <glyph glyph-name="igrave" unicode="&#xec;" horiz-adv-x="247" 
d="M302 643l-24 -46l-150 85l30 62zM230 551l-98 -551h-115l98 551h115z" />
    <glyph glyph-name="iacute" unicode="&#xed;" horiz-adv-x="247" 
d="M295 683l-179 -80l-14 41l171 99zM230 551l-98 -551h-115l98 551h115z" />
    <glyph glyph-name="icircumflex" unicode="&#xee;" horiz-adv-x="247" 
d="M200 661l-119 -62l-15 48l143 76l117 -76l-28 -48zM230 551l-98 -551h-115l98 551h115z" />
    <glyph glyph-name="idieresis" unicode="&#xef;" horiz-adv-x="252" 
d="M60 680q5 24 23.5 40t42.5 16t37.5 -16t9.5 -40q-5 -23 -24 -39.5t-43 -16.5q-23 0 -37 16.5t-9 39.5zM237 680q5 24 23.5 40t42.5 16t37.5 -16t8.5 -40q-5 -23 -23.5 -39.5t-42.5 -16.5t-37.5 16.5t-8.5 39.5zM230 551l-98 -551h-115l98 551h115z" />
    <glyph glyph-name="eth" unicode="&#xf0;" horiz-adv-x="639" 
d="M606 695l-86 -27q55 -77 75 -166t3 -190q-14 -79 -46 -139t-76 -100t-98.5 -60t-113.5 -20q-61 0 -109.5 21t-79.5 59t-43 92t-1 120q11 63 40 114t71.5 86.5t95.5 55t113 19.5q53 0 94 -26.5t55 -84.5q-3 54 -17.5 101.5t-43.5 92.5l-135 -42l7 43l105 32
q-13 17 -27.5 32.5t-31.5 31.5h103q10 -10 18.5 -19.5t16.5 -19.5l119 37zM475 276q8 47 0.5 81.5t-26 57t-45.5 34t-59 11.5q-34 0 -66 -11t-58.5 -33t-45.5 -55t-27 -77q-8 -47 -1 -83t25.5 -60t47 -36t62.5 -12q33 0 64 11.5t57 34.5t45 57.5t27 79.5z" />
    <glyph glyph-name="ntilde" unicode="&#xf1;" horiz-adv-x="653" 
d="M335 652q-33 0 -48 -44h-51q18 54 46 78.5t66 24.5q20 0 33 -7t24 -15t22.5 -15t26.5 -7t27.5 10.5t20.5 32.5h52q-17 -52 -46.5 -77t-67.5 -25q-20 0 -33.5 7t-25 15t-22 15t-24.5 7zM426 560q47 0 83 -15.5t59 -45.5t31 -74.5t-3 -103.5l-56 -321h-114l54 309
q14 76 -18 115.5t-96 39.5q-67 0 -116 -42t-64 -129v3l-52 -296h-115l97 551h115l-21 -120q34 63 91.5 96t124.5 33z" />
    <glyph glyph-name="ograve" unicode="&#xf2;" horiz-adv-x="643" 
d="M500 643l-24 -46l-150 85l30 62zM369 558q60 0 108.5 -20t80 -57.5t43.5 -91.5t0 -123q-11 -64 -41 -114.5t-73.5 -86t-97.5 -54t-113 -18.5q-61 0 -109.5 20t-80.5 57.5t-44 92t0 122.5q11 64 41.5 114.5t74 86t98 54t113.5 18.5zM354 459q-31 0 -62.5 -11t-58.5 -33.5
t-47 -57t-28 -81.5q-8 -48 -0.5 -82.5t26.5 -57t46.5 -33t58.5 -10.5q32 0 63.5 10.5t58 33t46 57t28.5 82.5q8 47 0.5 81.5t-26 57t-46 33.5t-59.5 11z" />
    <glyph glyph-name="oacute" unicode="&#xf3;" horiz-adv-x="643" 
d="M493 683l-179 -80l-14 41l171 99zM369 558q60 0 108.5 -20t80 -57.5t43.5 -91.5t0 -123q-11 -64 -41 -114.5t-73.5 -86t-97.5 -54t-113 -18.5q-61 0 -109.5 20t-80.5 57.5t-44 92t0 122.5q11 64 41.5 114.5t74 86t98 54t113.5 18.5zM354 459q-31 0 -62.5 -11t-58.5 -33.5
t-47 -57t-28 -81.5q-8 -48 -0.5 -82.5t26.5 -57t46.5 -33t58.5 -10.5q32 0 63.5 10.5t58 33t46 57t28.5 82.5q8 47 0.5 81.5t-26 57t-46 33.5t-59.5 11z" />
    <glyph glyph-name="ocircumflex" unicode="&#xf4;" horiz-adv-x="643" 
d="M398 661l-119 -62l-15 48l143 76l117 -76l-28 -48zM369 558q60 0 108.5 -20t80 -57.5t43.5 -91.5t0 -123q-11 -64 -41 -114.5t-73.5 -86t-97.5 -54t-113 -18.5q-61 0 -109.5 20t-80.5 57.5t-44 92t0 122.5q11 64 41.5 114.5t74 86t98 54t113.5 18.5zM354 459
q-31 0 -62.5 -11t-58.5 -33.5t-47 -57t-28 -81.5q-8 -48 -0.5 -82.5t26.5 -57t46.5 -33t58.5 -10.5q32 0 63.5 10.5t58 33t46 57t28.5 82.5q8 47 0.5 81.5t-26 57t-46 33.5t-59.5 11z" />
    <glyph glyph-name="otilde" unicode="&#xf5;" horiz-adv-x="643" 
d="M343 711q20 0 33 -7t24 -15t22.5 -15t26.5 -7t27.5 10.5t20.5 32.5h52q-17 -52 -46.5 -77t-67.5 -25q-20 0 -33.5 7t-25 15t-22 15t-24.5 7q-33 0 -48 -44h-51q18 54 46 78.5t66 24.5zM369 558q60 0 108.5 -20t80 -57.5t43.5 -91.5t0 -123q-11 -64 -41 -114.5t-73.5 -86
t-97.5 -54t-113 -18.5q-61 0 -109.5 20t-80.5 57.5t-44 92t0 122.5q11 64 41.5 114.5t74 86t98 54t113.5 18.5zM354 459q-31 0 -62.5 -11t-58.5 -33.5t-47 -57t-28 -81.5q-8 -48 -0.5 -82.5t26.5 -57t46.5 -33t58.5 -10.5q32 0 63.5 10.5t58 33t46 57t28.5 82.5
q8 47 0.5 81.5t-26 57t-46 33.5t-59.5 11z" />
    <glyph glyph-name="odieresis" unicode="&#xf6;" horiz-adv-x="642" 
d="M244 680q5 24 23.5 40t42.5 16t37.5 -16t9.5 -40q-5 -23 -24 -39.5t-43 -16.5q-23 0 -37 16.5t-9 39.5zM421 680q5 24 23.5 40t42.5 16t37.5 -16t8.5 -40q-5 -23 -23.5 -39.5t-42.5 -16.5t-37.5 16.5t-8.5 39.5zM369 558q60 0 108.5 -20t80 -57.5t43.5 -91.5t0 -123
q-11 -64 -41 -114.5t-73.5 -86t-97.5 -54t-113 -18.5q-61 0 -109.5 20t-80.5 57.5t-44 92t0 122.5q11 64 41.5 114.5t74 86t98 54t113.5 18.5zM354 459q-31 0 -62.5 -11t-58.5 -33.5t-47 -57t-28 -81.5q-8 -48 -0.5 -82.5t26.5 -57t46.5 -33t58.5 -10.5q32 0 63.5 10.5
t58 33t46 57t28.5 82.5q8 47 0.5 81.5t-26 57t-46 33.5t-59.5 11z" />
    <glyph glyph-name="divide" unicode="&#xf7;" horiz-adv-x="571" 
d="M400 648l-22 -126h-130l22 126h130zM550 413l-19 -104h-510l19 104h510zM322 202l-22 -125h-130l22 125h130z" />
    <glyph glyph-name="oslash" unicode="&#xf8;" horiz-adv-x="635" 
d="M559 471q27 -38 37 -89t-1 -116q-11 -64 -41 -114.5t-73.5 -86t-97.5 -54t-113 -18.5q-105 0 -170 57l-55 -50h-60l87 80q-28 38 -37.5 89.5t1.5 115.5t41.5 114.5t74 86t98 54t113.5 18.5q104 0 169 -57l54 50h60zM152 276q-12 -69 10 -114l284 261q-19 18 -44 27t-54 9
q-31 0 -62.5 -11t-58.5 -33.5t-47 -57t-28 -81.5zM479 276q12 69 -10 113l-284 -260q19 -19 44 -27.5t54 -8.5q32 0 63.5 10.5t58 33t46 57t28.5 82.5z" />
    <glyph glyph-name="ugrave" unicode="&#xf9;" horiz-adv-x="640" 
d="M475 597l-150 85l30 62l144 -101zM621 551l-97 -551h-115l21 120q-34 -63 -91.5 -95.5t-124.5 -32.5q-46 0 -82.5 15.5t-59 45.5t-30.5 74.5t2 103.5l57 320h114l-55 -308q-14 -77 18 -116.5t97 -39.5q66 0 115 42.5t64 129.5v-4l52 296h115z" />
    <glyph glyph-name="uacute" unicode="&#xfa;" horiz-adv-x="640" 
d="M313 603l-14 41l171 99l22 -60zM621 551l-97 -551h-115l21 120q-34 -63 -91.5 -95.5t-124.5 -32.5q-46 0 -82.5 15.5t-59 45.5t-30.5 74.5t2 103.5l57 320h114l-55 -308q-14 -77 18 -116.5t97 -39.5q66 0 115 42.5t64 129.5v-4l52 296h115z" />
    <glyph glyph-name="ucircumflex" unicode="&#xfb;" horiz-adv-x="640" 
d="M278 599l-15 48l143 76l117 -76l-28 -48l-98 62zM621 551l-97 -551h-115l21 120q-34 -63 -91.5 -95.5t-124.5 -32.5q-46 0 -82.5 15.5t-59 45.5t-30.5 74.5t2 103.5l57 320h114l-55 -308q-14 -77 18 -116.5t97 -39.5q66 0 115 42.5t64 129.5v-4l52 296h115z" />
    <glyph glyph-name="udieresis" unicode="&#xfc;" horiz-adv-x="645" 
d="M285 624q-23 0 -37 16.5t-9 39.5q5 24 23.5 40t42.5 16t37.5 -16t9.5 -40q-5 -23 -24 -39.5t-43 -16.5zM462 624q-24 0 -37.5 16.5t-8.5 39.5q5 24 23.5 40t42.5 16t37.5 -16t8.5 -40q-5 -23 -23.5 -39.5t-42.5 -16.5zM621 551l-97 -551h-115l21 120q-34 -63 -91.5 -95.5
t-124.5 -32.5q-46 0 -82.5 15.5t-59 45.5t-30.5 74.5t2 103.5l57 320h114l-55 -308q-14 -77 18 -116.5t97 -39.5q66 0 115 42.5t64 129.5v-4l52 296h115z" />
    <glyph glyph-name="yacute" unicode="&#xfd;" horiz-adv-x="580" 
d="M461 683l-179 -80l-14 41l171 99zM171 551l94 -405l224 405h127l-477 -813h-127l168 275l-137 538h128z" />
    <glyph glyph-name="thorn" unicode="&#xfe;" horiz-adv-x="675" 
d="M429 557q56 0 99.5 -20t71 -57t37.5 -89.5t-1 -116.5q-12 -68 -40 -120.5t-67.5 -88t-88 -54t-101.5 -18.5q-75 0 -121 34.5t-61 93.5l-67 -383h-114l176 1002h115l-54 -304q34 56 89 88.5t127 32.5zM321 94q35 0 67.5 11.5t59 34t45 56t26.5 78.5t1 79t-25 57t-46.5 35
t-63.5 12q-34 0 -67 -12t-60 -35t-46 -56.5t-27 -77.5t-0.5 -78t26.5 -57t47.5 -35t62.5 -12z" />
    <glyph glyph-name="ydieresis" unicode="&#xff;" horiz-adv-x="585" 
d="M208 680q5 24 23.5 40t42.5 16t37.5 -16t9.5 -40q-5 -23 -24 -39.5t-43 -16.5q-23 0 -37 16.5t-9 39.5zM385 680q5 24 23.5 40t42.5 16t37.5 -16t8.5 -40q-5 -23 -23.5 -39.5t-42.5 -16.5t-37.5 16.5t-8.5 39.5zM171 551l94 -405l224 405h127l-477 -813h-127l168 275
l-137 538h128z" />
    <glyph glyph-name="Amacron" unicode="&#x100;" horiz-adv-x="682" 
d="M625 875l-14 -78h-366l14 78h366zM468 695l137 -695h-122l-27 153h-298l-81 -153h-122l382 695h131zM440 241l-59 330l-176 -330h235z" />
    <glyph glyph-name="amacron" unicode="&#x101;" horiz-adv-x="676" 
d="M574 720l-14 -78h-366l14 78h366zM337 558q79 0 126 -37.5t57 -97.5l23 128h114l-98 -551h-114l23 128q-31 -60 -89.5 -97.5t-136.5 -37.5q-55 0 -98 20t-69 57.5t-35 92t3 122.5q11 64 38.5 114.5t66.5 86t87.5 54t101.5 18.5zM358 458q-75 0 -129.5 -48t-69.5 -134
q-15 -87 22.5 -134.5t112.5 -47.5q36 0 69 12.5t59.5 36.5t45.5 57.5t26 75.5q8 42 1 75.5t-25 57t-47 36.5t-65 13z" />
    <glyph glyph-name="Abreve" unicode="&#x102;" horiz-adv-x="682" 
d="M408 763q-65 0 -94 37.5t-18 97.5l1 8h50q-5 -34 12 -52.5t61 -18.5t68 18.5t30 52.5h50l-2 -8q-11 -60 -52 -97.5t-106 -37.5zM456 153h-298l-81 -153h-122l382 695h131l137 -695h-122zM440 241l-59 330l-176 -330h235z" />
    <glyph glyph-name="abreve" unicode="&#x103;" horiz-adv-x="677" 
d="M388 608q-65 0 -94 37.5t-18 97.5l1 8h50q-5 -34 12 -52.5t61 -18.5t68 18.5t30 52.5h50l-2 -8q-11 -60 -52 -97.5t-106 -37.5zM337 558q79 0 126 -37.5t57 -97.5l23 128h114l-98 -551h-114l23 128q-31 -60 -89.5 -97.5t-136.5 -37.5q-55 0 -98 20t-69 57.5t-35 92
t3 122.5q11 64 38.5 114.5t66.5 86t87.5 54t101.5 18.5zM358 458q-75 0 -129.5 -48t-69.5 -134q-15 -87 22.5 -134.5t112.5 -47.5q36 0 69 12.5t59.5 36.5t45.5 57.5t26 75.5q8 42 1 75.5t-25 57t-47 36.5t-65 13z" />
    <glyph glyph-name="Aogonek" unicode="&#x104;" horiz-adv-x="682" 
d="M634 -140l-11 -64h-115q-27 0 -49.5 6.5t-38 20t-22.5 34t-2 47.5q5 35 29.5 61t70.5 38l-26 150h-297l-82 -153h-121l382 695h131l135 -688l-9 -53h-62q-29 0 -48 -12t-23 -35q-5 -22 10 -34.5t44 -12.5h104zM454 241l-59 329l-175 -329h234z" />
    <glyph glyph-name="aogonek" unicode="&#x105;" horiz-adv-x="676" 
d="M422 -86q-4 -24 11 -37.5t44 -13.5h104l-12 -64h-115q-27 0 -49.5 7t-38 21t-22.5 35t-2 49q8 43 37.5 67.5t67.5 32.5l21 117q-31 -60 -89.5 -97.5t-136.5 -37.5q-55 0 -98 20t-69 57.5t-35 92t3 122.5q11 64 38.5 114.5t66.5 86t87.5 54t101.5 18.5q79 0 126 -37.5
t57 -97.5l23 128h114l-95 -536h4l-11 -58h-62q-29 0 -48 -11.5t-23 -31.5zM294 94q36 0 69 12.5t59.5 36.5t45.5 57.5t26 75.5q8 42 1 75.5t-25 57t-47 36.5t-65 13q-75 0 -129.5 -48t-69.5 -134q-15 -87 22.5 -134.5t112.5 -47.5z" />
    <glyph glyph-name="Cacute" unicode="&#x106;" horiz-adv-x="761" 
d="M579 838l-179 -80l-14 41l171 99zM447 713q67 0 118.5 -17.5t88 -50t57 -77.5t25.5 -100h-121q-13 62 -60 100.5t-128 38.5q-47 0 -90 -17.5t-78.5 -50.5t-60 -80t-35.5 -106q-10 -58 -2 -105t31.5 -80t61 -50.5t84.5 -17.5q81 0 141.5 38.5t95.5 99.5h120
q-24 -55 -60.5 -100t-84 -77t-105 -49.5t-124.5 -17.5q-76 0 -133.5 26.5t-93.5 74t-49 113.5t1 145t50 145t88.5 114t119.5 74.5t143 26.5z" />
    <glyph glyph-name="cacute" unicode="&#x107;" horiz-adv-x="622" 
d="M482 683l-179 -80l-14 41l171 99zM360 558q110 0 171 -56.5t61 -153.5h-121q-1 52 -34.5 81.5t-91.5 29.5q-31 0 -60.5 -11t-55 -33.5t-44 -57t-27.5 -81.5q-8 -48 -1.5 -82.5t24 -57t43.5 -33.5t57 -11q58 0 101.5 29.5t62.5 82.5h121q-17 -48 -46 -87t-68 -66.5
t-86 -42.5t-101 -15q-59 0 -106 20t-77 57.5t-41 92t1 122.5q12 64 41 114.5t71 86t95 54t111 18.5z" />
    <glyph glyph-name="Cdotaccent" unicode="&#x10a;" horiz-adv-x="761" 
d="M418 835q4 24 23 40t42 16q24 0 38 -16t9 -40q-4 -23 -23 -39.5t-43 -16.5q-23 0 -37 16.5t-9 39.5zM447 713q67 0 118.5 -17.5t88 -50t57 -77.5t25.5 -100h-121q-13 62 -60 100.5t-128 38.5q-47 0 -90 -17.5t-78.5 -50.5t-60 -80t-35.5 -106q-10 -58 -2 -105t31.5 -80
t61 -50.5t84.5 -17.5q81 0 141.5 38.5t95.5 99.5h120q-24 -55 -60.5 -100t-84 -77t-105 -49.5t-124.5 -17.5q-76 0 -133.5 26.5t-93.5 74t-49 113.5t1 145t50 145t88.5 114t119.5 74.5t143 26.5z" />
    <glyph glyph-name="cdotaccent" unicode="&#x10b;" horiz-adv-x="620" 
d="M316 680q4 24 23 40t42 16q24 0 38 -16t9 -40q-4 -23 -23 -39.5t-43 -16.5q-23 0 -37 16.5t-9 39.5zM360 558q110 0 171 -56.5t61 -153.5h-121q-1 52 -34.5 81.5t-91.5 29.5q-31 0 -60.5 -11t-55 -33.5t-44 -57t-27.5 -81.5q-8 -48 -1.5 -82.5t24 -57t43.5 -33.5t57 -11
q58 0 101.5 29.5t62.5 82.5h121q-17 -48 -46 -87t-68 -66.5t-86 -42.5t-101 -15q-59 0 -106 20t-77 57.5t-41 92t1 122.5q12 64 41 114.5t71 86t95 54t111 18.5z" />
    <glyph glyph-name="Ccaron" unicode="&#x10c;" horiz-adv-x="761" 
d="M616 843l-157 -83l-130 83l14 78l129 -84l157 84zM447 713q67 0 118.5 -17.5t88 -50t57 -77.5t25.5 -100h-121q-13 62 -60 100.5t-128 38.5q-47 0 -90 -17.5t-78.5 -50.5t-60 -80t-35.5 -106q-10 -58 -2 -105t31.5 -80t61 -50.5t84.5 -17.5q81 0 141.5 38.5t95.5 99.5
h120q-24 -55 -60.5 -100t-84 -77t-105 -49.5t-124.5 -17.5q-76 0 -133.5 26.5t-93.5 74t-49 113.5t1 145t50 145t88.5 114t119.5 74.5t143 26.5z" />
    <glyph glyph-name="ccaron" unicode="&#x10d;" horiz-adv-x="620" 
d="M513 688l-157 -83l-130 83l14 78l129 -84l157 84zM360 558q110 0 171 -56.5t61 -153.5h-121q-1 52 -34.5 81.5t-91.5 29.5q-31 0 -60.5 -11t-55 -33.5t-44 -57t-27.5 -81.5q-8 -48 -1.5 -82.5t24 -57t43.5 -33.5t57 -11q58 0 101.5 29.5t62.5 82.5h121q-17 -48 -46 -87
t-68 -66.5t-86 -42.5t-101 -15q-59 0 -106 20t-77 57.5t-41 92t1 122.5q12 64 41 114.5t71 86t95 54t111 18.5z" />
    <glyph glyph-name="Dcaron" unicode="&#x10e;" horiz-adv-x="721" 
d="M602 843l-157 -83l-130 83l14 78l129 -84l157 84zM675 354q-14 -80 -50 -145t-91.5 -111.5t-128.5 -72t-162 -25.5h-236l124 706h236q89 0 153.5 -25t103.5 -71t52 -111t-1 -145zM251 103q130 0 208.5 66t99.5 185q21 118 -34.5 184.5t-184.5 66.5h-112l-89 -502h112z
" />
    <glyph glyph-name="dcaron" unicode="&#x10f;" horiz-adv-x="758" 
d="M685 740l-131 -740h-115l23 128q-31 -60 -89.5 -97.5t-136.5 -37.5q-54 0 -96 20t-69 57.5t-36.5 92t2.5 122.5q11 64 38.5 114.5t66.5 86t87.5 54t101.5 18.5q80 0 126.5 -37.5t56.5 -97.5l56 317h115zM829 740q2 -28 1 -52.5t-5 -47.5q-10 -60 -44 -92t-91 -32l8 48
q51 0 61 58l4 21h-54l17 97h103zM353 458q-75 0 -129.5 -48t-70.5 -134q-15 -87 23 -134.5t113 -47.5q36 0 69 12.5t59.5 36.5t45.5 57.5t26 75.5t0 75.5t-25 57t-46.5 36.5t-64.5 13z" />
    <glyph glyph-name="Dcroat" unicode="&#x110;" horiz-adv-x="742" 
d="M388 706q89 0 153.5 -25t103.5 -71t52.5 -111t-0.5 -145t-50.5 -145t-92 -111.5t-128.5 -72t-162 -25.5h-236l54 308h-85l17 92h84l54 306h236zM580 354q21 118 -34 184.5t-185 66.5h-112l-36 -205h185l-17 -92h-185l-36 -205h113q129 0 208 66t99 185z" />
    <glyph glyph-name="dcroat" unicode="&#x111;" horiz-adv-x="671" 
d="M716 623h-52l-110 -623h-115l23 128q-31 -60 -89.5 -97.5t-136.5 -37.5q-54 0 -96 20t-69 57.5t-36.5 92t2.5 122.5q11 64 38.5 114.5t66.5 86t87.5 54t101.5 18.5q80 0 126.5 -37.5t56.5 -97.5l35 200h-150l10 54h150l11 63h115l-11 -63h51zM489 276q7 42 0 75.5t-25 57
t-46.5 36.5t-64.5 13q-75 0 -129.5 -48t-70.5 -134q-15 -87 23 -134.5t113 -47.5q36 0 69 12.5t59.5 36.5t45.5 57.5t26 75.5z" />
    <glyph glyph-name="Emacron" unicode="&#x112;" horiz-adv-x="515" 
d="M551 875l-14 -78h-366l14 78h366zM229 614l-37 -214h259l-16 -88h-259l-38 -219h289l-16 -93h-404l124 706h404l-17 -92h-289z" />
    <glyph glyph-name="emacron" unicode="&#x113;" horiz-adv-x="621" 
d="M552 642h-366l14 78h366zM364 558q63 0 108.5 -20t74 -54.5t38 -81t0.5 -100.5q-2 -16 -5 -26.5t-8 -22.5h-423q-6 -45 1.5 -77t25.5 -52t43.5 -29t55.5 -9q58 0 102 29t62 77h121q-15 -43 -43 -79.5t-66 -63t-85 -41.5t-102 -15q-59 0 -105.5 19.5t-76.5 57t-41 91
t1 120.5q12 65 41 116.5t72 87t96 54.5t113 19zM470 305q10 42 3 73t-25 50.5t-44.5 29t-56.5 9.5q-31 0 -61 -9.5t-55 -29.5t-44 -50.5t-28 -72.5h311z" />
    <glyph glyph-name="Ebreve" unicode="&#x114;" horiz-adv-x="515" 
d="M334 763q-65 0 -94 37.5t-18 97.5l1 8h50q-5 -34 12 -52.5t61 -18.5t68 18.5t30 52.5h50l-2 -8q-11 -60 -52 -97.5t-106 -37.5zM229 614l-37 -214h259l-16 -88h-259l-38 -219h289l-16 -93h-404l124 706h404l-17 -92h-289z" />
    <glyph glyph-name="ebreve" unicode="&#x115;" horiz-adv-x="623" 
d="M361 608q-65 0 -94 37.5t-18 97.5l1 8h50q-5 -34 12 -52.5t61 -18.5t68 18.5t30 52.5h50l-2 -8q-11 -60 -52 -97.5t-106 -37.5zM364 558q63 0 108.5 -20t74 -54.5t38 -81t0.5 -100.5q-2 -16 -5 -26.5t-8 -22.5h-423q-6 -45 1.5 -77t25.5 -52t43.5 -29t55.5 -9
q58 0 102 29t62 77h121q-15 -43 -43 -79.5t-66 -63t-85 -41.5t-102 -15q-59 0 -105.5 19.5t-76.5 57t-41 91t1 120.5q12 65 41 116.5t72 87t96 54.5t113 19zM470 305q10 42 3 73t-25 50.5t-44.5 29t-56.5 9.5q-31 0 -61 -9.5t-55 -29.5t-44 -50.5t-28 -72.5h311z" />
    <glyph glyph-name="Edotaccent" unicode="&#x116;" horiz-adv-x="515" 
d="M303 835q4 24 23 40t42 16q24 0 38 -16t9 -40q-4 -23 -23 -39.5t-43 -16.5q-23 0 -37 16.5t-9 39.5zM229 614l-37 -214h259l-16 -88h-259l-38 -219h289l-16 -93h-404l124 706h404l-17 -92h-289z" />
    <glyph glyph-name="edotaccent" unicode="&#x117;" horiz-adv-x="621" 
d="M364 624q-23 0 -37 16.5t-9 39.5q4 24 23 40t42 16q24 0 38 -16t9 -40q-4 -23 -23 -39.5t-43 -16.5zM364 558q63 0 108.5 -20t74 -54.5t38 -81t0.5 -100.5q-2 -16 -5 -26.5t-8 -22.5h-423q-6 -45 1.5 -77t25.5 -52t43.5 -29t55.5 -9q58 0 102 29t62 77h121
q-15 -43 -43 -79.5t-66 -63t-85 -41.5t-102 -15q-59 0 -105.5 19.5t-76.5 57t-41 91t1 120.5q12 65 41 116.5t72 87t96 54.5t113 19zM470 305q10 42 3 73t-25 50.5t-44.5 29t-56.5 9.5q-31 0 -61 -9.5t-55 -29.5t-44 -50.5t-28 -72.5h311z" />
    <glyph glyph-name="Eogonek" unicode="&#x118;" horiz-adv-x="515" 
d="M229 614l-37 -214h259l-16 -88h-259l-38 -219h289l-16 -93h-4l-1 -7h-62q-29 0 -48 -11.5t-23 -31.5q-4 -24 11 -37.5t44 -13.5h104l-12 -64h-115q-27 0 -49.5 7t-38 21t-22.5 35t-2 49q6 29 23 53h-209l124 706h404l-17 -92h-289z" />
    <glyph glyph-name="eogonek" unicode="&#x119;" horiz-adv-x="622" 
d="M375 558q63 0 109 -20t74 -54.5t38 -81t1 -100.5q-3 -16 -6 -26.5t-7 -22.5h-424q-6 -45 2.5 -76.5t26.5 -52t43.5 -29.5t54.5 -9q59 0 102.5 29t61.5 77h121q-26 -74 -89 -126.5t-150 -66.5q-23 -4 -26 -24q-4 -19 11 -31t48 -12h95l-11 -64h-110q-27 0 -50 6.5
t-38.5 20t-22.5 34t-2 47.5l4 22q-49 6 -87 28t-62 57.5t-32 84t2 108.5q12 66 41.5 118.5t72 88.5t96 55.5t113.5 19.5zM482 305q10 42 3 73t-25 50.5t-44.5 29t-56.5 9.5q-31 0 -61 -9.5t-55.5 -29.5t-44.5 -50.5t-28 -72.5h312z" />
    <glyph glyph-name="Ecaron" unicode="&#x11a;" horiz-adv-x="515" 
d="M501 843l-157 -83l-130 83l14 78l129 -84l157 84zM229 614l-37 -214h259l-16 -88h-259l-38 -219h289l-16 -93h-404l124 706h404l-17 -92h-289z" />
    <glyph glyph-name="ecaron" unicode="&#x11b;" horiz-adv-x="622" 
d="M359 605l-130 83l14 78l129 -84l157 84l-13 -78zM364 558q63 0 108.5 -20t74 -54.5t38 -81t0.5 -100.5q-2 -16 -5 -26.5t-8 -22.5h-423q-6 -45 1.5 -77t25.5 -52t43.5 -29t55.5 -9q58 0 102 29t62 77h121q-15 -43 -43 -79.5t-66 -63t-85 -41.5t-102 -15
q-59 0 -105.5 19.5t-76.5 57t-41 91t1 120.5q12 65 41 116.5t72 87t96 54.5t113 19zM470 305q10 42 3 73t-25 50.5t-44.5 29t-56.5 9.5q-31 0 -61 -9.5t-55 -29.5t-44 -50.5t-28 -72.5h311z" />
    <glyph glyph-name="Gbreve" unicode="&#x11e;" horiz-adv-x="773" 
d="M463 763q-65 0 -94 37.5t-18 97.5l1 8h50q-5 -34 12 -52.5t61 -18.5t68 18.5t30 52.5h50l-2 -8q-11 -60 -52 -97.5t-106 -37.5zM455 712q64 0 113.5 -17t85 -48t56 -73t26.5 -93h-120q-13 55 -58 90t-120 35q-50 0 -95 -17.5t-81.5 -50.5t-62 -79.5t-36.5 -105.5
q-11 -61 -2 -109t35 -81t67.5 -50.5t95.5 -17.5q43 0 83.5 13.5t75 39.5t61.5 64t42 87h-259l15 84h356l-19 -109q-19 -60 -54 -111.5t-84 -89t-111 -59t-135 -21.5q-78 0 -137.5 27t-97 75.5t-50.5 115.5t1 147q14 78 50.5 143t90 112t122 73t146.5 26z" />
    <glyph glyph-name="gbreve" unicode="&#x11f;" horiz-adv-x="675" 
d="M387 608q-65 0 -94 37.5t-18 97.5l1 8h50q-5 -34 12 -52.5t61 -18.5t68 18.5t30 52.5h50l-2 -8q-11 -60 -52 -97.5t-106 -37.5zM244 -8q-54 0 -96.5 20t-69.5 58t-36.5 92.5t2.5 122.5q11 64 38.5 115t67 86t88 54t101.5 19q79 0 125.5 -38t57.5 -98l23 128h113l-98 -557
q-10 -57 -36 -105.5t-65.5 -84t-90.5 -55t-112 -19.5q-117 0 -178.5 56t-67.5 148h113q6 -48 40 -76t99 -28q32 0 62 10t55 30.5t42.5 51t24.5 72.5l24 134q-31 -60 -89.5 -98t-136.5 -38zM360 458q-75 0 -129.5 -47.5t-69.5 -134.5q-16 -86 22 -134t113 -48q36 0 69 12.5
t59.5 36.5t45.5 57.5t26 75.5q8 42 1 75.5t-25.5 57t-47 36.5t-64.5 13z" />
    <glyph glyph-name="Gdotaccent" unicode="&#x120;" horiz-adv-x="773" 
d="M420 835q4 24 23 40t42 16q24 0 38 -16t9 -40q-4 -23 -23 -39.5t-43 -16.5q-23 0 -37 16.5t-9 39.5zM455 712q64 0 113.5 -17t85 -48t56 -73t26.5 -93h-120q-13 55 -58 90t-120 35q-50 0 -95 -17.5t-81.5 -50.5t-62 -79.5t-36.5 -105.5q-11 -61 -2 -109t35 -81
t67.5 -50.5t95.5 -17.5q43 0 83.5 13.5t75 39.5t61.5 64t42 87h-259l15 84h356l-19 -109q-19 -60 -54 -111.5t-84 -89t-111 -59t-135 -21.5q-78 0 -137.5 27t-97 75.5t-50.5 115.5t1 147q14 78 50.5 143t90 112t122 73t146.5 26z" />
    <glyph glyph-name="gdotaccent" unicode="&#x121;" horiz-adv-x="675" 
d="M341 680q4 24 23 40t42 16q24 0 38 -16t9 -40q-4 -23 -23 -39.5t-43 -16.5q-23 0 -37 16.5t-9 39.5zM244 -8q-54 0 -96.5 20t-69.5 58t-36.5 92.5t2.5 122.5q11 64 38.5 115t67 86t88 54t101.5 19q79 0 125.5 -38t57.5 -98l23 128h113l-98 -557q-10 -57 -36 -105.5
t-65.5 -84t-90.5 -55t-112 -19.5q-117 0 -178.5 56t-67.5 148h113q6 -48 40 -76t99 -28q32 0 62 10t55 30.5t42.5 51t24.5 72.5l24 134q-31 -60 -89.5 -98t-136.5 -38zM360 458q-75 0 -129.5 -47.5t-69.5 -134.5q-16 -86 22 -134t113 -48q36 0 69 12.5t59.5 36.5t45.5 57.5
t26 75.5q8 42 1 75.5t-25.5 57t-47 36.5t-64.5 13z" />
    <glyph glyph-name="Gcommaaccent" unicode="&#x122;" horiz-adv-x="776" 
d="M456 712q64 0 113.5 -17t85 -48t56 -73t26.5 -93h-120q-13 55 -58 90t-120 35q-50 0 -95 -17.5t-81.5 -50.5t-62 -79.5t-36.5 -105.5q-11 -61 -2 -109t35 -81t67.5 -50.5t95.5 -17.5q43 0 83.5 13.5t75 39.5t61.5 64t42 87h-259l15 84h356l-19 -109q-19 -60 -54 -111.5
t-84 -89t-111 -59t-135 -21.5q-78 0 -137.5 27t-97 75.5t-50.5 115.5t1 147q14 78 50.5 143t90 112t122 73t146.5 26zM392 -48q3 -20 2.5 -40.5t-3.5 -39.5q-11 -62 -45.5 -95t-89.5 -33l8 46q49 0 60 64l2 9h-50l16 89h100z" />
    <glyph glyph-name="gcommaaccent" unicode="&#x123;" horiz-adv-x="675" 
d="M349 596q-2 28 -1 53t5 47q11 59 44.5 91.5t90.5 32.5l-9 -47q-49 0 -60 -59l-4 -21h54l-17 -97h-103zM230 -8q-54 0 -96.5 20t-69.5 58t-36.5 92.5t2.5 122.5q11 64 38.5 115t67 86t88 54t101.5 19q79 0 125.5 -38t57.5 -98l23 128h113l-98 -557q-10 -57 -36 -105.5
t-65.5 -84t-90.5 -55t-112 -19.5q-117 0 -178.5 56t-67.5 148h113q6 -48 40 -76t99 -28q32 0 62 10t55 30.5t42.5 51t24.5 72.5l24 134q-31 -60 -89.5 -98t-136.5 -38zM346 458q-75 0 -129.5 -47.5t-69.5 -134.5q-16 -86 22 -134t113 -48q36 0 69 12.5t59.5 36.5t45.5 57.5
t26 75.5q8 42 1 75.5t-25.5 57t-47 36.5t-64.5 13z" />
    <glyph glyph-name="Itilde" unicode="&#x128;" horiz-adv-x="252" 
d="M174 866q20 0 33 -7t24 -15t22.5 -15t26.5 -7t27.5 10.5t20.5 32.5h52q-17 -52 -46.5 -77t-67.5 -25q-20 0 -33.5 7t-25 15t-22 15t-24.5 7q-33 0 -48 -44h-51q18 54 46 78.5t66 24.5zM246 706l-125 -706h-114l124 706h115z" />
    <glyph glyph-name="itilde" unicode="&#x129;" horiz-adv-x="247" 
d="M145 711q20 0 33 -7t24 -15t22.5 -15t26.5 -7t27.5 10.5t20.5 32.5h52q-17 -52 -46.5 -77t-67.5 -25q-20 0 -33.5 7t-25 15t-22 15t-24.5 7q-33 0 -48 -44h-51q18 54 46 78.5t66 24.5zM230 551l-98 -551h-115l98 551h115z" />
    <glyph glyph-name="Imacron" unicode="&#x12a;" horiz-adv-x="252" 
d="M411 875l-14 -78h-366l14 78h366zM246 706l-125 -706h-114l124 706h115z" />
    <glyph glyph-name="imacron" unicode="&#x12b;" horiz-adv-x="257" 
d="M387 720l-14 -78h-366l14 78h366zM230 551l-98 -551h-115l98 551h115z" />
    <glyph glyph-name="Ibreve" unicode="&#x12c;" horiz-adv-x="252" 
d="M202 763q-65 0 -94 37.5t-18 97.5l1 8h50q-5 -34 12 -52.5t61 -18.5t68 18.5t30 52.5h50l-2 -8q-11 -60 -52 -97.5t-106 -37.5zM246 706l-125 -706h-114l124 706h115z" />
    <glyph glyph-name="ibreve" unicode="&#x12d;" horiz-adv-x="247" 
d="M173 608q-65 0 -94 37.5t-18 97.5l1 8h50q-5 -34 12 -52.5t61 -18.5t68 18.5t30 52.5h50l-2 -8q-11 -60 -52 -97.5t-106 -37.5zM230 551l-98 -551h-115l98 551h115z" />
    <glyph glyph-name="Iogonek" unicode="&#x12e;" horiz-adv-x="252" 
d="M-20 -86q-4 -24 11 -37.5t44 -13.5h104l-12 -64h-115q-27 0 -49.5 7t-38 21t-22.5 35t-2 49q8 45 38.5 69.5t70.5 31.5l122 694h115l-122 -691l-11 -58h-62q-29 0 -48 -11.5t-23 -31.5z" />
    <glyph glyph-name="iogonek" unicode="&#x12f;" horiz-adv-x="247" 
d="M214 778q33 0 49.5 -19t11.5 -48t-28.5 -47t-56.5 -18t-50 18t-12 47t28.5 48t57.5 19zM62 -43q-29 0 -48 -11.5t-23 -31.5q-4 -24 11 -37.5t44 -13.5h104l-12 -64h-115q-27 0 -49.5 7t-38 21t-22.5 35t-2 49q8 45 39 69.5t71 31.5l95 539h115l-98 -551h-1l-8 -43h-62z
" />
    <glyph glyph-name="Idotaccent" unicode="&#x130;" horiz-adv-x="252" 
d="M164 835q4 24 23 40t42 16q24 0 38 -16t9 -40q-4 -23 -23 -39.5t-43 -16.5q-23 0 -37 16.5t-9 39.5zM246 706l-125 -706h-114l124 706h115z" />
    <glyph glyph-name="dotlessi" unicode="&#x131;" horiz-adv-x="247" 
d="M230 551l-98 -551h-115l98 551h115z" />
    <glyph glyph-name="Kcommaaccent" unicode="&#x136;" horiz-adv-x="613" 
d="M286 357l248 -357h-139l-221 326l-58 -326h-114l124 706h115l-57 -322l336 322h138zM317 -48q4 -20 3 -40.5t-4 -39.5q-11 -62 -45.5 -95t-88.5 -33l8 46q48 0 60 64l1 9h-50l16 89h100z" />
    <glyph glyph-name="kcommaaccent" unicode="&#x137;" horiz-adv-x="527" 
d="M272 281l192 -281h-136l-154 249l-44 -249h-115l131 740h115l-74 -419l235 230h138zM257 -48q6 -40 -2 -80q-11 -62 -45.5 -95t-88.5 -33l9 46q48 0 59 64l2 9h-50l15 89h101z" />
    <glyph glyph-name="Lacute" unicode="&#x139;" horiz-adv-x="447" 
d="M422 838l-179 -80l-14 41l171 99zM137 89h243l-15 -89h-358l124 706h115z" />
    <glyph glyph-name="lacute" unicode="&#x13a;" horiz-adv-x="250" 
d="M253 664l-117 -664h-115l107 608l-11 -5l-14 41l35 20l13 76h115v-2l8 5l22 -60z" />
    <glyph glyph-name="Lcommaaccent" unicode="&#x13b;" horiz-adv-x="450" 
d="M132 89h243l-15 -89h-358l124 706h115zM260 -48q4 -20 3.5 -40.5t-3.5 -39.5q-11 -62 -45.5 -95t-89.5 -33l8 46q48 0 60 64l2 9h-50l15 89h100z" />
    <glyph glyph-name="lcommaaccent" unicode="&#x13c;" horiz-adv-x="252" 
d="M265 740l-130 -740h-115l130 740h115zM126 -48q3 -20 2 -40.5t-4 -39.5q-11 -62 -45.5 -95t-88.5 -33l8 46q49 0 60 64l2 9h-51l16 89h101z" />
    <glyph glyph-name="Lcaron" unicode="&#x13d;" horiz-adv-x="481" 
d="M135 89h243l-15 -89h-358l124 706h115zM461 706q3 -28 2 -52.5t-5 -47.5q-11 -60 -45 -92t-90 -32l9 48q50 0 60 58l3 21h-54l17 97h103z" />
    <glyph glyph-name="lcaron" unicode="&#x13e;" horiz-adv-x="334" 
d="M263 740l-130 -740h-115l130 740h115zM417 740q3 -28 2 -52.5t-6 -47.5q-10 -60 -44 -92t-90 -32l9 48q50 0 60 58l3 21h-54l17 97h103z" />
    <glyph glyph-name="Ldot" unicode="&#x13f;" horiz-adv-x="447" 
d="M137 89h243l-15 -89h-358l124 706h115zM283 353q4 24 23 40t42 16q24 0 38 -16t9 -40q-4 -23 -23 -39.5t-43 -16.5q-23 0 -37 16.5t-9 39.5z" />
    <glyph glyph-name="ldot" unicode="&#x140;" horiz-adv-x="325" 
d="M266 740l-130 -740h-115l130 740h115zM245 370q4 24 23 40t42 16q24 0 38 -16t9 -40q-4 -23 -23 -39.5t-43 -16.5q-23 0 -37 16.5t-9 39.5z" />
    <glyph glyph-name="Lslash" unicode="&#x141;" horiz-adv-x="465" 
d="M398 89l-15 -89h-359l52 297l-81 -28l20 113l81 28l52 296h115l-45 -254l129 45l-20 -113l-129 -45l-44 -250h244z" />
    <glyph glyph-name="lslash" unicode="&#x142;" horiz-adv-x="263" 
d="M282 431l-80 -29l-71 -402h-115l63 357l-81 -29l20 111l80 29l48 272h115l-40 -227l81 29z" />
    <glyph glyph-name="Nacute" unicode="&#x143;" horiz-adv-x="709" 
d="M553 838l-179 -80l-14 41l171 99zM579 0h-115l-251 521l-91 -521h-115l124 705h114l251 -523l92 523h114z" />
    <glyph glyph-name="nacute" unicode="&#x144;" horiz-adv-x="653" 
d="M319 603l-14 41l171 99l22 -60zM426 560q47 0 83 -15.5t59 -45.5t31 -74.5t-3 -103.5l-56 -321h-114l54 309q14 76 -18 115.5t-96 39.5q-67 0 -116 -42t-64 -129v3l-52 -296h-115l97 551h115l-21 -120q34 63 91.5 96t124.5 33z" />
    <glyph glyph-name="Ncommaaccent" unicode="&#x145;" horiz-adv-x="710" 
d="M576 0h-115l-251 521l-91 -521h-115l124 705h114l251 -523l92 523h114zM363 -48q6 -43 -1 -80q-11 -62 -45.5 -95t-89.5 -33l9 46q48 0 60 64l1 9h-50l16 89h100z" />
    <glyph glyph-name="ncommaaccent" unicode="&#x146;" horiz-adv-x="653" 
d="M424 560q47 0 83 -15.5t59 -45.5t31 -74.5t-3 -103.5l-56 -321h-114l54 309q14 76 -18 115.5t-96 39.5q-67 0 -116 -42t-64 -129v3l-52 -296h-115l97 551h115l-21 -120q34 63 91.5 96t124.5 33zM350 -48q4 -20 3 -40.5t-4 -39.5q-11 -62 -45.5 -95t-88.5 -33l8 46
q48 0 60 64l1 9h-50l16 89h100z" />
    <glyph glyph-name="Ncaron" unicode="&#x147;" horiz-adv-x="709" 
d="M584 843l-157 -83l-130 83l14 78l129 -84l157 84zM579 0h-115l-251 521l-91 -521h-115l124 705h114l251 -523l92 523h114z" />
    <glyph glyph-name="ncaron" unicode="&#x148;" horiz-adv-x="653" 
d="M380 605l-130 83l14 78l129 -84l157 84l-13 -78zM426 560q47 0 83 -15.5t59 -45.5t31 -74.5t-3 -103.5l-56 -321h-114l54 309q14 76 -18 115.5t-96 39.5q-67 0 -116 -42t-64 -129v3l-52 -296h-115l97 551h115l-21 -120q34 63 91.5 96t124.5 33z" />
    <glyph glyph-name="Omacron" unicode="&#x14c;" 
d="M677 875l-14 -78h-366l14 78h366zM441 715q81 0 142.5 -28t100.5 -78.5t53 -120t-1 -153.5q-13 -75 -48 -138t-86.5 -108.5t-117.5 -71t-142 -25.5q-82 0 -144 28t-100.5 78.5t-52 120.5t1.5 154q14 75 48.5 138t86 108.5t117.5 70.5t142 25zM432 609q-50 0 -95 -17.5
t-81 -50t-61 -78.5t-36 -104q-10 -60 -1 -108t34.5 -82t66 -52t92.5 -18q50 0 95 17.5t81 50t61.5 78.5t35.5 104q11 60 1.5 108t-35 82t-66 52t-92.5 18z" />
    <glyph glyph-name="omacron" unicode="&#x14d;" horiz-adv-x="642" 
d="M580 720l-14 -78h-366l14 78h366zM369 558q60 0 108.5 -20t80 -57.5t43.5 -91.5t0 -123q-11 -64 -41 -114.5t-73.5 -86t-97.5 -54t-113 -18.5q-61 0 -109.5 20t-80.5 57.5t-44 92t0 122.5q11 64 41.5 114.5t74 86t98 54t113.5 18.5zM354 459q-31 0 -62.5 -11t-58.5 -33.5
t-47 -57t-28 -81.5q-8 -48 -0.5 -82.5t26.5 -57t46.5 -33t58.5 -10.5q32 0 63.5 10.5t58 33t46 57t28.5 82.5q8 47 0.5 81.5t-26 57t-46 33.5t-59.5 11z" />
    <glyph glyph-name="Obreve" unicode="&#x14e;" 
d="M452 763q-65 0 -94 37.5t-18 97.5l1 8h50q-5 -34 12 -52.5t61 -18.5t68 18.5t30 52.5h50l-2 -8q-11 -60 -52 -97.5t-106 -37.5zM441 715q81 0 142.5 -28t100.5 -78.5t53 -120t-1 -153.5q-13 -75 -48 -138t-86.5 -108.5t-117.5 -71t-142 -25.5q-82 0 -144 28t-100.5 78.5
t-52 120.5t1.5 154q14 75 48.5 138t86 108.5t117.5 70.5t142 25zM432 609q-50 0 -95 -17.5t-81 -50t-61 -78.5t-36 -104q-10 -60 -1 -108t34.5 -82t66 -52t92.5 -18q50 0 95 17.5t81 50t61.5 78.5t35.5 104q11 60 1.5 108t-35 82t-66 52t-92.5 18z" />
    <glyph glyph-name="obreve" unicode="&#x14f;" horiz-adv-x="643" 
d="M371 608q-65 0 -94 37.5t-18 97.5l1 8h50q-5 -34 12 -52.5t61 -18.5t68 18.5t30 52.5h50l-2 -8q-11 -60 -52 -97.5t-106 -37.5zM369 558q60 0 108.5 -20t80 -57.5t43.5 -91.5t0 -123q-11 -64 -41 -114.5t-73.5 -86t-97.5 -54t-113 -18.5q-61 0 -109.5 20t-80.5 57.5
t-44 92t0 122.5q11 64 41.5 114.5t74 86t98 54t113.5 18.5zM354 459q-31 0 -62.5 -11t-58.5 -33.5t-47 -57t-28 -81.5q-8 -48 -0.5 -82.5t26.5 -57t46.5 -33t58.5 -10.5q32 0 63.5 10.5t58 33t46 57t28.5 82.5q8 47 0.5 81.5t-26 57t-46 33.5t-59.5 11z" />
    <glyph glyph-name="Ohungarumlaut" unicode="&#x150;" 
d="M411 756h-73l99 170h92zM574 756h-74l115 170h91zM441 715q81 0 142.5 -28t100.5 -78.5t53 -120t-1 -153.5q-13 -75 -48 -138t-86.5 -108.5t-117.5 -71t-142 -25.5q-82 0 -144 28t-100.5 78.5t-52 120.5t1.5 154q14 75 48.5 138t86 108.5t117.5 70.5t142 25zM432 609
q-50 0 -95 -17.5t-81 -50t-61 -78.5t-36 -104q-10 -60 -1 -108t34.5 -82t66 -52t92.5 -18q50 0 95 17.5t81 50t61.5 78.5t35.5 104q11 60 1.5 108t-35 82t-66 52t-92.5 18z" />
    <glyph glyph-name="ohungarumlaut" unicode="&#x151;" horiz-adv-x="642" 
d="M324 601h-73l99 170h92zM487 601h-74l115 170h91zM369 558q60 0 108.5 -20t80 -57.5t43.5 -91.5t0 -123q-11 -64 -41 -114.5t-73.5 -86t-97.5 -54t-113 -18.5q-61 0 -109.5 20t-80.5 57.5t-44 92t0 122.5q11 64 41.5 114.5t74 86t98 54t113.5 18.5zM354 459
q-31 0 -62.5 -11t-58.5 -33.5t-47 -57t-28 -81.5q-8 -48 -0.5 -82.5t26.5 -57t46.5 -33t58.5 -10.5q32 0 63.5 10.5t58 33t46 57t28.5 82.5q8 47 0.5 81.5t-26 57t-46 33.5t-59.5 11z" />
    <glyph glyph-name="OE" unicode="&#x152;" horiz-adv-x="1080" 
d="M756 400h259l-15 -88h-259l-39 -219h289l-16 -93h-404l25 145q-20 -36 -49.5 -64t-65.5 -48t-76 -31t-81 -12q-75 0 -133 27.5t-95 77t-50.5 117.5t0.5 150q14 78 49.5 142.5t88 111.5t119.5 73t144 26q42 0 79 -10.5t66.5 -31t49.5 -49t28 -64.5l25 146h404l-16 -92
h-289zM351 96q51 0 96.5 18t82 51t62.5 80.5t36 106.5q11 60 2 107.5t-34 80.5t-64.5 51t-90.5 18q-50 0 -95.5 -17.5t-82 -50t-62 -79t-35.5 -105.5q-10 -60 -1.5 -108.5t33.5 -82.5t64 -52t89 -18z" />
    <glyph glyph-name="oe" unicode="&#x153;" horiz-adv-x="1066" 
d="M807 558q63 0 109 -20t74 -54.5t38 -81t0 -100.5q-2 -16 -5 -26.5t-8 -22.5h-423q-6 -45 1.5 -77t25.5 -52t43.5 -29t55.5 -9q58 0 102 29t62 77h121q-15 -43 -43.5 -79.5t-67 -63t-85.5 -41.5t-100 -15q-75 0 -126 33.5t-70 94.5q-41 -61 -105 -94.5t-139 -33.5
q-60 0 -108 19.5t-79 56t-43 89t0 118.5t42.5 118.5t74 88.5t98 55.5t114.5 19.5q75 0 127.5 -33t72.5 -95q40 62 103 95t138 33zM914 305q9 42 2.5 73t-24.5 50.5t-44.5 29t-56.5 9.5q-31 0 -61.5 -9.5t-55.5 -29.5t-44 -50.5t-28 -72.5h312zM480 276q8 47 0.5 81.5t-26 57
t-46 33.5t-59.5 11q-31 0 -62.5 -11t-58.5 -33.5t-47 -57t-28 -81.5q-9 -48 -1 -82.5t26.5 -57t46.5 -33t59 -10.5q32 0 63 10.5t58 33t46.5 57t28.5 82.5z" />
    <glyph glyph-name="Racute" unicode="&#x154;" horiz-adv-x="598" 
d="M319 758l-14 41l171 99l22 -60zM380 706q63 0 106.5 -16.5t69 -45t33 -68t-0.5 -85.5q-14 -81 -69 -135t-147 -69l134 -287h-128l-126 282h-81l-50 -282h-114l124 706h249zM471 485q10 56 -16 89.5t-101 33.5h-125l-44 -245h125q75 0 113 32.5t48 89.5z" />
    <glyph glyph-name="racute" unicode="&#x155;" horiz-adv-x="399" 
d="M191 603l-14 41l171 99l22 -60zM212 443q38 54 95 85.5t126 31.5l-22 -124h-35q-33 0 -63.5 -7.5t-56 -24.5t-44.5 -46t-28 -72l-50 -286h-115l97 551h115z" />
    <glyph glyph-name="Rcommaaccent" unicode="&#x156;" horiz-adv-x="613" 
d="M361 706q63 0 106.5 -16.5t69 -45t33 -68t-0.5 -85.5q-14 -81 -69 -135t-147 -69l134 -287h-128l-126 282h-81l-50 -282h-114l124 706h249zM452 485q10 56 -16 89.5t-101 33.5h-125l-44 -245h125q75 0 113 32.5t48 89.5zM305 -48q6 -43 -1 -80q-11 -62 -45.5 -95
t-89.5 -33l9 46q48 0 59 64l2 9h-50l15 89h101z" />
    <glyph glyph-name="rcommaaccent" unicode="&#x157;" horiz-adv-x="398" 
d="M213 443q38 54 95 85.5t126 31.5l-22 -124h-35q-33 0 -63.5 -7.5t-56 -24.5t-44.5 -46t-28 -72l-50 -286h-115l97 551h115zM138 -48q4 -20 3 -40.5t-4 -39.5q-11 -62 -45.5 -95t-88.5 -33l8 46q48 0 60 64l1 9h-50l16 89h100z" />
    <glyph glyph-name="Rcaron" unicode="&#x158;" horiz-adv-x="598" 
d="M391 760l-130 83l14 78l129 -84l157 84l-13 -78zM380 706q63 0 106.5 -16.5t69 -45t33 -68t-0.5 -85.5q-14 -81 -69 -135t-147 -69l134 -287h-128l-126 282h-81l-50 -282h-114l124 706h249zM471 485q10 56 -16 89.5t-101 33.5h-125l-44 -245h125q75 0 113 32.5t48 89.5z
" />
    <glyph glyph-name="rcaron" unicode="&#x159;" horiz-adv-x="399" 
d="M447 766l-13 -78l-157 -83l-130 83l14 78l129 -84zM212 443q38 54 95 85.5t126 31.5l-22 -124h-35q-33 0 -63.5 -7.5t-56 -24.5t-44.5 -46t-28 -72l-50 -286h-115l97 551h115z" />
    <glyph glyph-name="Sacute" unicode="&#x15a;" horiz-adv-x="576" 
d="M486 838l-179 -80l-14 41l171 99zM503 168q-6 -33 -24.5 -64.5t-49.5 -56t-74 -39.5t-98 -15q-58 0 -102.5 15.5t-74.5 43t-45 64.5t-15 80h121q-1 -21 5 -41t20.5 -35.5t37 -25.5t55.5 -10q52 0 83 27t38 68q9 49 -14 77t-61 46.5t-83 34t-82 40.5t-57 66t-8 111
q7 37 27.5 66.5t52 50.5t73 32.5t89.5 11.5q60 0 103 -15t71 -40.5t42 -60t15 -72.5h-123q0 18 -6 35.5t-19 31t-34 22t-51 8.5q-45 0 -77 -21t-39 -63q-8 -47 14.5 -73t60.5 -43.5t83.5 -33t82 -41t56.5 -68t7 -113.5z" />
    <glyph glyph-name="sacute" unicode="&#x15b;" horiz-adv-x="518" 
d="M430 683l-179 -80l-14 41l171 99zM272 558q110 0 165 -51t57 -131h-113q1 43 -28.5 71.5t-90.5 28.5q-41 0 -67 -17t-31 -46q-6 -34 16.5 -52.5t59 -31t79.5 -24t77.5 -32t54 -55t8.5 -93.5q-11 -57 -63.5 -94.5t-144.5 -37.5q-106 0 -169 48t-64 134h113q-4 -45 30 -73
t100 -28q42 0 65 18t28 45q7 38 -15 57.5t-58 32.5t-78.5 23.5t-77 30t-54 52.5t-9.5 90q11 59 64 97t146 38z" />
    <glyph glyph-name="Scedilla" unicode="&#x15e;" horiz-adv-x="576" 
d="M199 540q-8 -47 14.5 -73t60.5 -43.5t83.5 -33t82 -41t56.5 -68t7 -113.5q-6 -31 -22.5 -61t-44.5 -54t-66 -40t-87 -19l-9 -54q25 1 47 -4t37.5 -18t23 -33t2.5 -49q-5 -26 -18.5 -44.5t-33 -30.5t-43 -17.5t-49.5 -5.5h-116l11 64h103q32 0 47.5 10t18.5 27q4 19 -8 32
t-44 13h-59l20 112q-48 6 -84 23.5t-60.5 43.5t-36.5 60t-12 73h121q-1 -21 5 -41t20.5 -35.5t37 -25.5t55.5 -10q52 0 83 27t38 68q9 49 -14 77t-61 46.5t-83 34t-82 40.5t-57 66t-8 111q7 37 27.5 66.5t52 50.5t73 32.5t89.5 11.5q60 0 103 -15t71 -40.5t42 -60t15 -72.5
h-123q0 18 -6 35.5t-19 31t-34 22t-51 8.5q-45 0 -77 -21t-39 -63z" />
    <glyph glyph-name="scedilla" unicode="&#x15f;" horiz-adv-x="532" 
d="M164 413q-6 -34 16.5 -52.5t59 -31t79.5 -24t77.5 -32t54 -55t8.5 -93.5q-10 -51 -53 -86.5t-118 -43.5l-9 -55q25 1 47 -4t37.5 -18t23 -33t2.5 -49q-5 -26 -18.5 -44.5t-33 -30.5t-43 -17.5t-49.5 -5.5h-116l11 64h103q32 0 47.5 10t18.5 27q4 19 -8 32t-44 13h-59
l20 110q-92 8 -145.5 54.5t-54.5 126.5h113q-4 -45 30 -73t100 -28q42 0 65 18t28 45q7 38 -15 57.5t-58 32.5t-78.5 23.5t-77 30t-54 52.5t-9.5 90q11 59 64 97t146 38q110 0 165 -51t57 -131h-113q1 43 -28.5 71.5t-90.5 28.5q-41 0 -67 -17t-31 -46z" />
    <glyph glyph-name="Scaron" unicode="&#x160;" horiz-adv-x="576" 
d="M519 843l-157 -83l-130 83l14 78l129 -84l157 84zM503 168q-6 -33 -24.5 -64.5t-49.5 -56t-74 -39.5t-98 -15q-58 0 -102.5 15.5t-74.5 43t-45 64.5t-15 80h121q-1 -21 5 -41t20.5 -35.5t37 -25.5t55.5 -10q52 0 83 27t38 68q9 49 -14 77t-61 46.5t-83 34t-82 40.5
t-57 66t-8 111q7 37 27.5 66.5t52 50.5t73 32.5t89.5 11.5q60 0 103 -15t71 -40.5t42 -60t15 -72.5h-123q0 18 -6 35.5t-19 31t-34 22t-51 8.5q-45 0 -77 -21t-39 -63q-8 -47 14.5 -73t60.5 -43.5t83.5 -33t82 -41t56.5 -68t7 -113.5z" />
    <glyph glyph-name="scaron" unicode="&#x161;" horiz-adv-x="532" 
d="M473 688l-157 -83l-130 83l14 78l129 -84l157 84zM272 558q110 0 165 -51t57 -131h-113q1 43 -28.5 71.5t-90.5 28.5q-41 0 -67 -17t-31 -46q-6 -34 16.5 -52.5t59 -31t79.5 -24t77.5 -32t54 -55t8.5 -93.5q-11 -57 -63.5 -94.5t-144.5 -37.5q-106 0 -169 48t-64 134h113
q-4 -45 30 -73t100 -28q42 0 65 18t28 45q7 38 -15 57.5t-58 32.5t-78.5 23.5t-77 30t-54 52.5t-9.5 90q11 59 64 97t146 38z" />
    <glyph glyph-name="uni0162" unicode="&#x162;" horiz-adv-x="539" 
d="M585 706l-16 -92h-197l-108 -609q47 -11 64 -34t11 -58q-5 -27 -18.5 -46.5t-33 -32t-43.5 -18.5t-50 -6h-113l12 63h102q32 0 46.5 11.5t18.5 31.5q3 17 -7.5 28t-42.5 11h-69l116 659h-196l16 92h508z" />
    <glyph glyph-name="uni0163" unicode="&#x163;" horiz-adv-x="384" 
d="M187 182q-8 -48 6.5 -65.5t57.5 -17.5h56l-18 -99h-71h-1l-11 -60q25 1 47.5 -4t38 -17t23 -31.5t2.5 -46.5t-18.5 -46t-33 -32t-43.5 -19t-50 -6h-115l11 64h102q32 0 48 11.5t19 30.5q3 17 -8.5 28.5t-43.5 11.5h-59l21 125q-48 14 -68.5 55t-6.5 120l48 270h-80l18 97
h79l24 137h115l-24 -137h133l-17 -97h-133z" />
    <glyph glyph-name="Tcaron" unicode="&#x164;" horiz-adv-x="539" 
d="M500 843l-157 -83l-130 83l14 78l129 -84l157 84zM585 706l-16 -92h-197l-108 -614h-115l108 614h-196l16 92h508z" />
    <glyph glyph-name="tcaron" unicode="&#x165;" horiz-adv-x="379" 
d="M441 811q2 -28 2 -50.5t-4 -44.5q-21 -115 -134 -115l9 47q26 0 39.5 11t17.5 31l4 24h-54l17 97h103zM245 551h133l-17 -97h-134l-48 -272q-8 -48 7 -65.5t58 -17.5h55l-17 -99h-71q-42 0 -73 9.5t-50.5 31t-25.5 56.5t3 87l48 270h-80l17 97h80l24 137h115z" />
    <glyph glyph-name="Utilde" unicode="&#x168;" horiz-adv-x="671" 
d="M384 866q20 0 33 -7t24 -15t22.5 -15t26.5 -7t27.5 10.5t20.5 32.5h52q-17 -52 -46.5 -77t-67.5 -25q-20 0 -33.5 7t-25 15t-22 15t-24.5 7q-33 0 -48 -44h-51q18 54 46 78.5t66 24.5zM241 706l-73 -419q-17 -97 17 -141.5t108 -44.5q72 0 122 44.5t67 141.5l74 419h114
l-74 -419q-13 -75 -43.5 -130.5t-73.5 -92t-96 -54t-112 -17.5q-58 0 -104.5 17.5t-76 54t-40 92t2.5 130.5l74 419h114z" />
    <glyph glyph-name="utilde" unicode="&#x169;" horiz-adv-x="640" 
d="M329 652q-33 0 -48 -44h-51q18 54 46 78.5t66 24.5q20 0 33 -7t24 -15t22.5 -15t26.5 -7t27.5 10.5t20.5 32.5h52q-17 -52 -46.5 -77t-67.5 -25q-20 0 -33.5 7t-25 15t-22 15t-24.5 7zM621 551l-97 -551h-115l21 120q-34 -63 -91.5 -95.5t-124.5 -32.5q-46 0 -82.5 15.5
t-59 45.5t-30.5 74.5t2 103.5l57 320h114l-55 -308q-14 -77 18 -116.5t97 -39.5q66 0 115 42.5t64 129.5v-4l52 296h115z" />
    <glyph glyph-name="Umacron" unicode="&#x16a;" horiz-adv-x="671" 
d="M617 875l-14 -78h-366l14 78h366zM241 706l-73 -419q-17 -97 17 -141.5t108 -44.5q72 0 122 44.5t67 141.5l74 419h114l-74 -419q-13 -75 -43.5 -130.5t-73.5 -92t-96 -54t-112 -17.5q-58 0 -104.5 17.5t-76 54t-40 92t2.5 130.5l74 419h114z" />
    <glyph glyph-name="umacron" unicode="&#x16b;" horiz-adv-x="645" 
d="M561 642h-366l14 78h366zM621 551l-97 -551h-115l21 120q-34 -63 -91.5 -95.5t-124.5 -32.5q-46 0 -82.5 15.5t-59 45.5t-30.5 74.5t2 103.5l57 320h114l-55 -308q-14 -77 18 -116.5t97 -39.5q66 0 115 42.5t64 129.5v-4l52 296h115z" />
    <glyph glyph-name="Ubreve" unicode="&#x16c;" horiz-adv-x="671" 
d="M412 763q-65 0 -94 37.5t-18 97.5l1 8h50q-5 -34 12 -52.5t61 -18.5t68 18.5t30 52.5h50l-2 -8q-11 -60 -52 -97.5t-106 -37.5zM241 706l-73 -419q-17 -97 17 -141.5t108 -44.5q72 0 122 44.5t67 141.5l74 419h114l-74 -419q-13 -75 -43.5 -130.5t-73.5 -92t-96 -54
t-112 -17.5q-58 0 -104.5 17.5t-76 54t-40 92t2.5 130.5l74 419h114z" />
    <glyph glyph-name="ubreve" unicode="&#x16d;" horiz-adv-x="640" 
d="M370 608q-65 0 -94 37.5t-18 97.5l1 8h50q-5 -34 12 -52.5t61 -18.5t68 18.5t30 52.5h50l-2 -8q-11 -60 -52 -97.5t-106 -37.5zM621 551l-97 -551h-115l21 120q-34 -63 -91.5 -95.5t-124.5 -32.5q-46 0 -82.5 15.5t-59 45.5t-30.5 74.5t2 103.5l57 320h114l-55 -308
q-14 -77 18 -116.5t97 -39.5q66 0 115 42.5t64 129.5v-4l52 296h115z" />
    <glyph glyph-name="Uring" unicode="&#x16e;" horiz-adv-x="671" 
d="M436 979q45 0 72 -29t18 -81q-8 -51 -45.5 -80t-83.5 -29q-45 0 -72 29t-18 80q9 52 46.5 81t82.5 29zM427 930q-25 0 -44.5 -16t-24.5 -45q-5 -28 9 -44t39 -16q26 0 45 16t24 44q5 29 -8.5 45t-39.5 16zM241 706l-73 -419q-17 -97 17 -141.5t108 -44.5q72 0 122 44.5
t67 141.5l74 419h114l-74 -419q-13 -75 -43.5 -130.5t-73.5 -92t-96 -54t-112 -17.5q-58 0 -104.5 17.5t-76 54t-40 92t2.5 130.5l74 419h114z" />
    <glyph glyph-name="uring" unicode="&#x16f;" horiz-adv-x="645" 
d="M356 605q-45 0 -72 29t-18 80q9 52 46.5 81t82.5 29t72 -29t18 -81q-8 -51 -45.5 -80t-83.5 -29zM317 714q-5 -28 9 -44t39 -16q26 0 45 16t24 44q5 29 -8.5 45t-39.5 16q-25 0 -44.5 -16t-24.5 -45zM621 551l-97 -551h-115l21 120q-34 -63 -91.5 -95.5t-124.5 -32.5
q-46 0 -82.5 15.5t-59 45.5t-30.5 74.5t2 103.5l57 320h114l-55 -308q-14 -77 18 -116.5t97 -39.5q66 0 115 42.5t64 129.5v-4l52 296h115z" />
    <glyph glyph-name="Uhungarumlaut" unicode="&#x170;" horiz-adv-x="671" 
d="M327 756h-73l99 170h92zM490 756h-74l115 170h91zM241 706l-73 -419q-17 -97 17 -141.5t108 -44.5q72 0 122 44.5t67 141.5l74 419h114l-74 -419q-13 -75 -43.5 -130.5t-73.5 -92t-96 -54t-112 -17.5q-58 0 -104.5 17.5t-76 54t-40 92t2.5 130.5l74 419h114z" />
    <glyph glyph-name="uhungarumlaut" unicode="&#x171;" horiz-adv-x="645" 
d="M286 601h-73l99 170h92zM375 601l115 170h91l-132 -170h-74zM621 551l-97 -551h-115l21 120q-34 -63 -91.5 -95.5t-124.5 -32.5q-46 0 -82.5 15.5t-59 45.5t-30.5 74.5t2 103.5l57 320h114l-55 -308q-14 -77 18 -116.5t97 -39.5q66 0 115 42.5t64 129.5v-4l52 296h115z
" />
    <glyph glyph-name="Uogonek" unicode="&#x172;" horiz-adv-x="671" 
d="M244 706l-74 -419q-17 -97 17.5 -141.5t107.5 -44.5q33 0 63.5 9.5t55.5 31.5t43 57.5t27 87.5l74 419h115l-74 -419q-12 -67 -38 -117.5t-61.5 -85.5t-78.5 -55.5t-88 -27.5q-59 -9 -67 -51q-4 -22 10.5 -34.5t44.5 -12.5h99l-12 -63h-118q-52 0 -82.5 28.5t-21.5 81.5
q3 16 12.5 29.5t23.5 18.5q-44 8 -79.5 29.5t-59 57.5t-31.5 86t3 116l75 419h114z" />
    <glyph glyph-name="uogonek" unicode="&#x173;" horiz-adv-x="645" 
d="M379 -86q-4 -24 11 -37.5t44 -13.5h104l-12 -64h-115q-27 0 -49.5 7t-38 21t-22.5 35t-2 49q8 45 39.5 70t72.5 32l19 107q-34 -63 -91.5 -95.5t-124.5 -32.5q-46 0 -82.5 15.5t-59 45.5t-30.5 74.5t2 103.5l57 320h114l-55 -308q-14 -77 18 -116.5t97 -39.5
q66 0 115 42.5t64 129.5v-4l52 296h115l-97 -551h-4l-8 -43h-62q-29 0 -48 -11.5t-23 -31.5z" />
    <glyph glyph-name="Wcircumflex" unicode="&#x174;" horiz-adv-x="996" 
d="M482 754l-15 48l143 76l117 -76l-28 -48l-98 62zM1026 706l-301 -706h-140l-53 546l-245 -546h-140l-52 706h125l21 -576l256 576h126l53 -574l224 574h126z" />
    <glyph glyph-name="wcircumflex" unicode="&#x175;" horiz-adv-x="841" 
d="M378 599l-15 48l143 76l117 -76l-28 -48l-98 62zM880 551l-250 -551h-126l-61 426l-213 -426h-125l-56 551h116l25 -446l217 446h120l61 -446l184 446h108z" />
    <glyph glyph-name="Ycircumflex" unicode="&#x176;" horiz-adv-x="618" 
d="M293 754l-15 48l143 76l117 -76l-28 -48l-98 62zM664 706l-314 -449l-45 -257h-115l45 257l-157 449h132l104 -327l220 327h130z" />
    <glyph glyph-name="ycircumflex" unicode="&#x177;" horiz-adv-x="580" 
d="M366 661l-119 -62l-15 48l143 76l117 -76l-28 -48zM171 551l94 -405l224 405h127l-477 -813h-127l168 275l-137 538h128z" />
    <glyph glyph-name="Ydieresis" unicode="&#x178;" horiz-adv-x="618" 
d="M300 779q-23 0 -37 16.5t-9 39.5q5 24 23.5 40t42.5 16t37.5 -16t9.5 -40q-5 -23 -24 -39.5t-43 -16.5zM477 779q-24 0 -37.5 16.5t-8.5 39.5q5 24 23.5 40t42.5 16t37.5 -16t8.5 -40q-5 -23 -23.5 -39.5t-42.5 -16.5zM664 706l-314 -449l-45 -257h-115l45 257l-157 449
h132l104 -327l220 327h130z" />
    <glyph glyph-name="Zacute" unicode="&#x179;" horiz-adv-x="554" 
d="M475 838l-179 -80l-14 41l171 99zM124 93h342l-16 -93h-470l15 89l429 524h-329l16 93h458l-16 -89z" />
    <glyph glyph-name="zacute" unicode="&#x17a;" horiz-adv-x="459" 
d="M401 683l-179 -80l-14 41l171 99zM119 96h283l-17 -96h-408l16 91l332 364h-261l17 96h392l-17 -91z" />
    <glyph glyph-name="Zdotaccent" unicode="&#x17b;" horiz-adv-x="554" 
d="M309 835q4 24 23 40t42 16q24 0 38 -16t9 -40q-4 -23 -23 -39.5t-43 -16.5q-23 0 -37 16.5t-9 39.5zM124 93h342l-16 -93h-470l15 89l429 524h-329l16 93h458l-16 -89z" />
    <glyph glyph-name="zdotaccent" unicode="&#x17c;" horiz-adv-x="459" 
d="M231 680q4 24 23 40t42 16q24 0 38 -16t9 -40q-4 -23 -23 -39.5t-43 -16.5q-23 0 -37 16.5t-9 39.5zM119 96h283l-17 -96h-408l16 91l332 364h-261l17 96h392l-17 -91z" />
    <glyph glyph-name="Zcaron" unicode="&#x17d;" horiz-adv-x="554" 
d="M507 843l-157 -83l-130 83l14 78l129 -84l157 84zM124 93h342l-16 -93h-470l15 89l429 524h-329l16 93h458l-16 -89z" />
    <glyph glyph-name="zcaron" unicode="&#x17e;" horiz-adv-x="460" 
d="M438 688l-157 -83l-130 83l14 78l129 -84l157 84zM119 96h283l-17 -96h-408l16 91l332 364h-261l17 96h392l-17 -91z" />
    <glyph glyph-name="florin" unicode="&#x192;" horiz-adv-x="335" 
d="M419 673q-52 0 -83.5 -19t-44.5 -64l-11 -39h112l-27 -96h-112l-146 -519q-24 -85 -77 -119.5t-132 -34.5h-31l26 99h32q26 0 41.5 11.5t25.5 43.5l147 519h-65l26 96h66l11 39q27 97 93.5 139.5t175.5 42.5z" />
    <glyph glyph-name="Ohorn" unicode="&#x1a0;" 
d="M631 660q68 -49 96 -132.5t9 -192.5q-13 -75 -48 -138t-86.5 -108.5t-117.5 -71t-142 -25.5q-82 0 -144 28t-100.5 78.5t-52 120.5t1.5 154q14 75 48.5 138t86 108.5t117.5 70.5t142 25q45 0 84 -9q46 2 78 26.5t43 85.5h80q-10 -57 -35.5 -96t-59.5 -62zM624 349
q11 60 1.5 108t-35 82t-66 52t-92.5 18q-50 0 -95 -17.5t-81 -50t-61 -78.5t-36 -104q-10 -60 -1 -108t34.5 -82t66 -52t92.5 -18q50 0 95 17.5t81 50t61.5 78.5t35.5 104z" />
    <glyph glyph-name="ohorn" unicode="&#x1a1;" horiz-adv-x="643" 
d="M535 503q44 -37 62 -97t4 -140q-11 -64 -41 -114.5t-73.5 -86t-97.5 -54t-113 -18.5q-61 0 -109.5 20t-80.5 57.5t-44 92t0 122.5q11 64 41.5 114.5t74 86t98 54t113.5 18.5q17 0 34 -1.5t32 -5.5q45 2 76 27t42 85h80q-10 -58 -36.5 -97.5t-61.5 -62.5zM485 276
q8 47 0.5 81.5t-26 57t-46 33.5t-59.5 11q-31 0 -62.5 -11t-58.5 -33.5t-47 -57t-28 -81.5q-8 -48 -0.5 -82.5t26.5 -57t46.5 -33t58.5 -10.5q32 0 63.5 10.5t58 33t46 57t28.5 82.5z" />
    <glyph glyph-name="Uhorn" unicode="&#x1af;" horiz-adv-x="671" 
d="M802 818q-14 -76 -54 -120.5t-91 -62.5l-61 -348q-13 -75 -43.5 -130.5t-73.5 -92t-96 -54t-112 -17.5q-58 0 -104.5 17.5t-76 54t-40 92t2.5 130.5l74 419h114l-73 -419q-17 -97 17 -141.5t108 -44.5q72 0 122 44.5t67 141.5l74 419h40q48 0 81.5 24.5t44.5 87.5h80z
" />
    <glyph glyph-name="uhorn" unicode="&#x1b0;" horiz-adv-x="640" 
d="M754 663q-14 -77 -54.5 -121.5t-91.5 -61.5l-84 -480h-115l21 120q-34 -63 -91.5 -95.5t-124.5 -32.5q-46 0 -82.5 15.5t-59 45.5t-30.5 74.5t2 103.5l57 320h114l-55 -308q-14 -77 18 -116.5t97 -39.5q66 0 115 42.5t64 129.5v-4l52 296h42q48 0 81.5 24.5t44.5 87.5h80
z" />
    <glyph glyph-name="AEacute" unicode="&#x1fc;" horiz-adv-x="907" 
d="M602 758l-14 41l171 99l22 -60zM626 614l-38 -213h255l-15 -88h-255l-39 -220h285l-16 -93h-400l26 148h-252l-108 -148h-126l513 706h471l-17 -92h-284zM510 606l-269 -370h204z" />
    <glyph glyph-name="aeacute" unicode="&#x1fd;" horiz-adv-x="1097" 
d="M568 603l-14 41l171 99l22 -60zM862 558q57 0 99 -20t67 -54.5t33.5 -81t-1.5 -100.5q-2 -16 -5 -26.5t-8 -22.5h-440q-6 -45 3 -77t27.5 -52.5t46 -30t58.5 -9.5q62 0 107.5 28.5t64.5 79.5h121q-15 -43 -41.5 -79.5t-61.5 -63t-78 -41.5t-91 -15q-74 0 -123.5 34.5
t-58.5 101.5l-23 -129h-114l23 128q-32 -60 -90.5 -97.5t-136.5 -37.5q-54 0 -96 19.5t-69 56t-36.5 89t2.5 118.5t40 118.5t67.5 88.5t88.5 55.5t103 19.5q78 0 123 -37.5t56 -97.5l22 128h114l-23 -129q32 67 92 101.5t138 34.5zM946 305q9 42 1.5 73t-27 50.5t-48 29
t-60.5 9.5q-33 0 -64 -9t-57.5 -28.5t-46 -50t-29.5 -74.5h331zM493 276q7 42 0 75.5t-25 57t-46.5 36.5t-64.5 13q-75 0 -129.5 -48t-69.5 -134q-16 -87 22 -134.5t113 -47.5q36 0 69 12.5t59.5 36.5t45.5 57.5t26 75.5z" />
    <glyph glyph-name="Scommaaccent" unicode="&#x218;" horiz-adv-x="578" 
d="M502 168q-6 -33 -24.5 -64.5t-49.5 -56t-74 -39.5t-98 -15q-58 0 -102.5 15.5t-74.5 43t-45 64.5t-15 80h121q-1 -21 5 -41t20.5 -35.5t37 -25.5t55.5 -10q52 0 83 27t38 68q9 49 -14 77t-61 46.5t-83 34t-82 40.5t-57 66t-8 111q7 37 27.5 66.5t52 50.5t73 32.5
t89.5 11.5q60 0 103 -15t71 -40.5t42 -60t15 -72.5h-123q0 18 -6 35.5t-19 31t-34 22t-51 8.5q-45 0 -77 -21t-39 -63q-8 -47 14.5 -73t60.5 -43.5t83.5 -33t82 -41t56 -68t7.5 -113.5zM316 -48q3 -20 2.5 -40.5t-3.5 -39.5q-11 -62 -45.5 -95t-89.5 -33l8 46q49 0 60 64
l2 9h-50l15 89h101z" />
    <glyph glyph-name="scommaaccent" unicode="&#x219;" horiz-adv-x="532" 
d="M276 558q110 0 165 -51t57 -131h-113q1 43 -28.5 71.5t-90.5 28.5q-41 0 -67 -17t-31 -46q-6 -34 16.5 -52.5t59 -31t79.5 -24t77.5 -32t54 -55t8.5 -93.5q-11 -57 -63.5 -94.5t-144.5 -37.5q-106 0 -169 48t-64 134h113q-4 -45 30 -73t100 -28q42 0 65 18t28 45
q7 38 -15 57.5t-58 32.5t-78.5 23.5t-77 30t-54 52.5t-9.5 90q11 59 64 97t146 38zM279 -48q3 -20 2.5 -40.5t-3.5 -39.5q-11 -62 -45.5 -95t-89.5 -33l9 46q48 0 60 64l1 9h-50l16 89h100z" />
    <glyph glyph-name="uni021A" unicode="&#x21a;" horiz-adv-x="539" 
d="M580 706l-16 -92h-197l-108 -614h-115l108 614h-196l16 92h508zM245 -48q3 -20 2.5 -40.5t-3.5 -39.5q-11 -62 -46 -95t-89 -33l9 46q48 0 59 64l2 9h-50l16 89h100z" />
    <glyph glyph-name="uni021B" unicode="&#x21b;" horiz-adv-x="384" 
d="M193 182q-8 -48 7 -65.5t58 -17.5h55l-17 -99h-71q-42 0 -73 9.5t-50.5 31t-25.5 56.5t3 87l48 270h-80l17 97h80l24 137h115l-24 -137h133l-17 -97h-134zM236 -48q3 -20 2.5 -40.5t-3.5 -39.5q-11 -62 -45.5 -95t-89.5 -33l8 46q49 0 60 64l2 9h-50l15 89h101z" />
    <glyph glyph-name="circumflex" unicode="&#x2c6;" horiz-adv-x="338" 
d="M232 687l-119 -62l-15 48l143 76l117 -76l-28 -48z" />
    <glyph glyph-name="caron" unicode="&#x2c7;" horiz-adv-x="338" 
d="M373 688l-157 -83l-130 83l14 78l129 -84l157 84z" />
    <glyph glyph-name="breve" unicode="&#x2d8;" horiz-adv-x="353" 
d="M226 608q-65 0 -94 37.5t-18 97.5l1 8h50q-5 -34 12 -52.5t61 -18.5t68 18.5t30 52.5h50l-2 -8q-11 -60 -52 -97.5t-106 -37.5z" />
    <glyph glyph-name="dotaccent" unicode="&#x2d9;" horiz-adv-x="172" 
d="M90 680q4 24 23 40t42 16q24 0 38 -16t9 -40q-4 -23 -23 -39.5t-43 -16.5q-23 0 -37 16.5t-9 39.5z" />
    <glyph glyph-name="ring" unicode="&#x2da;" horiz-adv-x="271" 
d="M215 824q45 0 72 -29t18 -81q-8 -51 -45.5 -80t-83.5 -29q-45 0 -72 29t-18 80q9 52 46.5 81t82.5 29zM206 775q-25 0 -44.5 -16t-24.5 -45q-5 -28 9 -44t39 -16q26 0 45 16t24 44q5 29 -8.5 45t-39.5 16z" />
    <glyph glyph-name="ogonek" unicode="&#x2db;" horiz-adv-x="289" 
d="M245 -7l-11 -58h-62q-29 0 -48 -11.5t-23 -31.5q-4 -24 11 -37.5t44 -13.5h104l-12 -64h-115q-27 0 -49.5 7t-38 21t-22.5 35t-2 49q10 52 51 78t90 26h83z" />
    <glyph glyph-name="tilde" unicode="&#x2dc;" horiz-adv-x="380" 
d="M203 711q20 0 33 -7t24 -15t22.5 -15t26.5 -7t27.5 10.5t20.5 32.5h52q-17 -52 -46.5 -77t-67.5 -25q-20 0 -33.5 7t-25 15t-22 15t-24.5 7q-33 0 -48 -44h-51q18 54 46 78.5t66 24.5z" />
    <glyph glyph-name="hungarumlaut" unicode="&#x2dd;" horiz-adv-x="390" 
d="M144 601h-73l99 170h92zM307 601h-74l115 170h91z" />
    <glyph glyph-name="gravecomb" unicode="&#x300;" horiz-adv-x="0" 
d="M7 643l-24 -46l-150 85l30 62z" />
    <glyph glyph-name="acutecomb" unicode="&#x301;" horiz-adv-x="0" 
d="M12 683l-179 -80l-14 41l171 99z" />
    <glyph glyph-name="uni0302" unicode="&#x302;" horiz-adv-x="0" 
d="M-106 687l-119 -62l-15 48l143 76l117 -76l-28 -48z" />
    <glyph glyph-name="tildecomb" unicode="&#x303;" horiz-adv-x="0" 
d="M-177 711q19 0 32.5 -7t24.5 -15t22.5 -15t26.5 -7t27.5 10.5t20.5 32.5h52q-17 -52 -46.5 -77t-67.5 -25q-20 0 -33.5 7t-25 15t-22 15t-24.5 7q-33 0 -48 -44h-51q18 54 46 78.5t66 24.5z" />
    <glyph glyph-name="uni0306" unicode="&#x306;" horiz-adv-x="0" 
d="M-127 608q-65 0 -94 37.5t-18 97.5l1 8h50q-5 -34 12 -52.5t61 -18.5t68 18.5t30 52.5h50l-2 -8q-11 -60 -52 -97.5t-106 -37.5z" />
    <glyph glyph-name="hookabovecomb" unicode="&#x309;" horiz-adv-x="0" 
d="M-255 754q47 0 64 -23.5t10 -61.5q-6 -32 -31 -55t-62 -55l-29 30q30 25 46.5 44t20.5 36q4 20 -4.5 27t-25.5 7q-20 0 -29 -10t-17 -33l-51 5q4 16 11 32t19 28.5t31 20.5t47 8z" />
    <glyph glyph-name="uni031B" unicode="&#x31b;" horiz-adv-x="0" 
d="M-408 551q48 0 81.5 24.5t44.5 87.5h80q-9 -52 -31.5 -89t-53 -61t-66 -35t-70.5 -11z" />
    <glyph glyph-name="dotbelowcomb" unicode="&#x323;" horiz-adv-x="0" 
d="M-217 -129q4 23 22 38.5t40 15.5q23 0 36.5 -15.5t8.5 -38.5q-3 -23 -21.5 -38.5t-41.5 -15.5q-22 0 -35.5 15.5t-8.5 38.5z" />
    <glyph glyph-name="pi" unicode="&#x3c0;" horiz-adv-x="715" 
d="M727 551l-16 -87h-77l-81 -464h-115l81 464h-255l-82 -464h-115l82 464h-77l16 87h639z" />
    <glyph glyph-name="Wgrave" unicode="&#x1e80;" horiz-adv-x="996" 
d="M679 752l-150 85l30 62l144 -101zM1026 706l-301 -706h-140l-53 546l-245 -546h-140l-52 706h125l21 -576l256 576h126l53 -574l224 574h126z" />
    <glyph glyph-name="wgrave" unicode="&#x1e81;" horiz-adv-x="841" 
d="M575 597l-150 85l30 62l144 -101zM880 551l-250 -551h-126l-61 426l-213 -426h-125l-56 551h116l25 -446l217 446h120l61 -446l184 446h108z" />
    <glyph glyph-name="Wacute" unicode="&#x1e82;" horiz-adv-x="996" 
d="M517 758l-14 41l171 99l22 -60zM1026 706l-301 -706h-140l-53 546l-245 -546h-140l-52 706h125l21 -576l256 576h126l53 -574l224 574h126z" />
    <glyph glyph-name="wacute" unicode="&#x1e83;" horiz-adv-x="841" 
d="M413 603l-14 41l171 99l22 -60zM880 551l-250 -551h-126l-61 426l-213 -426h-125l-56 551h116l25 -446l217 446h120l61 -446l184 446h108z" />
    <glyph glyph-name="Wdieresis" unicode="&#x1e84;" horiz-adv-x="996" 
d="M489 779q-23 0 -37 16.5t-9 39.5q5 24 23.5 40t42.5 16t37.5 -16t9.5 -40q-5 -23 -24 -39.5t-43 -16.5zM666 779q-24 0 -37.5 16.5t-8.5 39.5q5 24 23.5 40t42.5 16t37.5 -16t8.5 -40q-5 -23 -23.5 -39.5t-42.5 -16.5zM1026 706l-301 -706h-140l-53 546l-245 -546h-140
l-52 706h125l21 -576l256 576h126l53 -574l224 574h126z" />
    <glyph glyph-name="wdieresis" unicode="&#x1e85;" horiz-adv-x="850" 
d="M393 624q-23 0 -37 16.5t-9 39.5q5 24 23.5 40t42.5 16t37.5 -16t9.5 -40q-5 -23 -24 -39.5t-43 -16.5zM570 624q-24 0 -37.5 16.5t-8.5 39.5q5 24 23.5 40t42.5 16t37.5 -16t8.5 -40q-5 -23 -23.5 -39.5t-42.5 -16.5zM880 551l-250 -551h-126l-61 426l-213 -426h-125
l-56 551h116l25 -446l217 446h120l61 -446l184 446h108z" />
    <glyph glyph-name="uni1EA0" unicode="&#x1ea0;" horiz-adv-x="682" 
d="M483 0l-27 153h-298l-81 -153h-122l382 695h131l137 -695h-122zM440 241l-59 330l-176 -330h235zM277 -75q23 0 36.5 -15.5t8.5 -38.5q-3 -23 -21.5 -38.5t-41.5 -15.5q-22 0 -35.5 15.5t-8.5 38.5q4 23 22 38.5t40 15.5z" />
    <glyph glyph-name="uni1EA1" unicode="&#x1ea1;" horiz-adv-x="677" 
d="M337 558q79 0 126 -37.5t57 -97.5l23 128h114l-98 -551h-114l23 128q-31 -60 -89.5 -97.5t-136.5 -37.5q-55 0 -98 20t-69 57.5t-35 92t3 122.5q11 64 38.5 114.5t66.5 86t87.5 54t101.5 18.5zM358 458q-75 0 -129.5 -48t-69.5 -134q-15 -87 22.5 -134.5t112.5 -47.5
q36 0 69 12.5t59.5 36.5t45.5 57.5t26 75.5q8 42 1 75.5t-25 57t-47 36.5t-65 13zM213 -129q4 23 22 38.5t40 15.5q23 0 36.5 -15.5t8.5 -38.5q-3 -23 -21.5 -38.5t-41.5 -15.5q-22 0 -35.5 15.5t-8.5 38.5z" />
    <glyph glyph-name="uni1EA2" unicode="&#x1ea2;" horiz-adv-x="682" 
d="M438 897q-20 0 -29 -10t-17 -33l-51 5q4 16 11 32t19 28.5t31 20.5t47 8q47 0 64 -23.5t10 -61.5q-6 -32 -31 -55t-62 -55l-29 30q30 25 46.5 44t20.5 36q4 20 -4.5 27t-25.5 7zM456 153h-298l-81 -153h-122l382 695h131l137 -695h-122zM440 241l-59 330l-176 -330h235z
" />
    <glyph glyph-name="uni1EA3" unicode="&#x1ea3;" horiz-adv-x="677" 
d="M429 793q47 0 64 -23.5t10 -61.5q-6 -32 -31 -55t-62 -55l-29 30q30 25 46.5 44t20.5 36q4 20 -4.5 27t-25.5 7q-20 0 -29 -10t-17 -33l-51 5q4 16 11 32t19 28.5t31 20.5t47 8zM337 558q79 0 126 -37.5t57 -97.5l23 128h114l-98 -551h-114l23 128q-31 -60 -89.5 -97.5
t-136.5 -37.5q-55 0 -98 20t-69 57.5t-35 92t3 122.5q11 64 38.5 114.5t66.5 86t87.5 54t101.5 18.5zM358 458q-75 0 -129.5 -48t-69.5 -134q-15 -87 22.5 -134.5t112.5 -47.5q36 0 69 12.5t59.5 36.5t45.5 57.5t26 75.5q8 42 1 75.5t-25 57t-47 36.5t-65 13z" />
    <glyph glyph-name="uni1EA4" unicode="&#x1ea4;" horiz-adv-x="682" 
d="M379 885l-13 39l164 95l21 -57zM320 752l-14 46l137 73l112 -73l-27 -46l-94 60zM456 153h-298l-81 -153h-122l382 695h131l137 -695h-122zM440 241l-59 330l-176 -330h235z" />
    <glyph glyph-name="uni1EA5" unicode="&#x1ea5;" horiz-adv-x="677" 
d="M531 807l-172 -77l-13 39l164 95zM414 657l-114 -60l-14 46l137 73l112 -73l-27 -46zM337 558q79 0 126 -37.5t57 -97.5l23 128h114l-98 -551h-114l23 128q-31 -60 -89.5 -97.5t-136.5 -37.5q-55 0 -98 20t-69 57.5t-35 92t3 122.5q11 64 38.5 114.5t66.5 86t87.5 54
t101.5 18.5zM358 458q-75 0 -129.5 -48t-69.5 -134q-15 -87 22.5 -134.5t112.5 -47.5q36 0 69 12.5t59.5 36.5t45.5 57.5t26 75.5q8 42 1 75.5t-25 57t-47 36.5t-65 13z" />
    <glyph glyph-name="uni1EA6" unicode="&#x1ea6;" horiz-adv-x="682" 
d="M536 865l-143 82l28 59l138 -96zM320 752l-14 46l137 73l112 -73l-27 -46l-94 60zM456 153h-298l-81 -153h-122l382 695h131l137 -695h-122zM440 241l-59 330l-176 -330h235z" />
    <glyph glyph-name="uni1EA7" unicode="&#x1ea7;" horiz-adv-x="677" 
d="M539 755l-23 -45l-143 82l28 59zM414 657l-114 -60l-14 46l137 73l112 -73l-27 -46zM337 558q79 0 126 -37.5t57 -97.5l23 128h114l-98 -551h-114l23 128q-31 -60 -89.5 -97.5t-136.5 -37.5q-55 0 -98 20t-69 57.5t-35 92t3 122.5q11 64 38.5 114.5t66.5 86t87.5 54
t101.5 18.5zM358 458q-75 0 -129.5 -48t-69.5 -134q-15 -87 22.5 -134.5t112.5 -47.5q36 0 69 12.5t59.5 36.5t45.5 57.5t26 75.5q8 42 1 75.5t-25 57t-47 36.5t-65 13z" />
    <glyph glyph-name="uni1EA8" unicode="&#x1ea8;" horiz-adv-x="682" 
d="M584 1028q45 0 61.5 -22.5t9.5 -59.5q-6 -30 -30 -52t-59 -53l-28 29q29 23 45 41t19 35q4 19 -3.5 26t-24.5 7q-19 0 -28 -9.5t-16 -31.5l-49 5q4 15 10.5 30t18 27.5t29.5 20t45 7.5zM320 752l-14 46l137 73l112 -73l-27 -46l-94 60zM468 695l137 -695h-122l-27 153
h-298l-81 -153h-122l382 695h131zM440 241l-59 330l-176 -330h235z" />
    <glyph glyph-name="uni1EA9" unicode="&#x1ea9;" horiz-adv-x="677" 
d="M564 873q45 0 61.5 -22.5t9.5 -59.5q-6 -30 -30 -52t-59 -53l-28 29q29 23 45 41t19 35q4 19 -3.5 26t-24.5 7q-19 0 -28 -9.5t-16 -31.5l-49 5q4 15 10.5 30t18 27.5t29.5 20t45 7.5zM414 657l-114 -60l-14 46l137 73l112 -73l-27 -46zM337 558q79 0 126 -37.5t57 -97.5
l23 128h114l-98 -551h-114l23 128q-31 -60 -89.5 -97.5t-136.5 -37.5q-55 0 -98 20t-69 57.5t-35 92t3 122.5q11 64 38.5 114.5t66.5 86t87.5 54t101.5 18.5zM358 458q-75 0 -129.5 -48t-69.5 -134q-15 -87 22.5 -134.5t112.5 -47.5q36 0 69 12.5t59.5 36.5t45.5 57.5
t26 75.5q8 42 1 75.5t-25 57t-47 36.5t-65 13z" />
    <glyph glyph-name="uni1EAA" unicode="&#x1eaa;" horiz-adv-x="682" 
d="M417 925q-29 0 -43 -39h-45q17 48 41.5 69.5t57.5 21.5q17 0 29 -6t22 -13.5t20 -13.5t23 -6q29 0 42 38h46q-14 -46 -40.5 -68t-59.5 -22q-18 0 -30 6t-22 13.5t-19.5 13.5t-21.5 6zM320 752l-14 46l137 73l112 -73l-27 -46l-94 60zM468 695l137 -695h-122l-27 153h-298
l-81 -153h-122l382 695h131zM440 241l-59 330l-176 -330h235z" />
    <glyph glyph-name="uni1EAB" unicode="&#x1eab;" horiz-adv-x="677" 
d="M408 822q17 0 29 -6t22 -13.5t20 -13.5t23 -6q29 0 42 38h46q-14 -46 -40.5 -68t-59.5 -22q-18 0 -30 6t-22 13.5t-19.5 13.5t-21.5 6q-29 0 -43 -39h-45q17 48 41.5 69.5t57.5 21.5zM414 657l-114 -60l-14 46l137 73l112 -73l-27 -46zM337 558q79 0 126 -37.5t57 -97.5
l23 128h114l-98 -551h-114l23 128q-31 -60 -89.5 -97.5t-136.5 -37.5q-55 0 -98 20t-69 57.5t-35 92t3 122.5q11 64 38.5 114.5t66.5 86t87.5 54t101.5 18.5zM358 458q-75 0 -129.5 -48t-69.5 -134q-15 -87 22.5 -134.5t112.5 -47.5q36 0 69 12.5t59.5 36.5t45.5 57.5
t26 75.5q8 42 1 75.5t-25 57t-47 36.5t-65 13z" />
    <glyph glyph-name="uni1EAC" unicode="&#x1eac;" horiz-adv-x="682" 
d="M316 754l-15 48l143 76l117 -76l-28 -48l-98 62zM483 0l-27 153h-298l-81 -153h-122l382 695h131l137 -695h-122zM440 241l-59 330l-176 -330h235zM277 -75q23 0 36.5 -15.5t8.5 -38.5q-3 -23 -21.5 -38.5t-41.5 -15.5q-22 0 -35.5 15.5t-8.5 38.5q4 23 22 38.5t40 15.5z
" />
    <glyph glyph-name="uni1EAD" unicode="&#x1ead;" horiz-adv-x="677" 
d="M415 661l-119 -62l-15 48l143 76l117 -76l-28 -48zM337 558q79 0 126 -37.5t57 -97.5l23 128h114l-98 -551h-114l23 128q-31 -60 -89.5 -97.5t-136.5 -37.5q-55 0 -98 20t-69 57.5t-35 92t3 122.5q11 64 38.5 114.5t66.5 86t87.5 54t101.5 18.5zM358 458
q-75 0 -129.5 -48t-69.5 -134q-15 -87 22.5 -134.5t112.5 -47.5q36 0 69 12.5t59.5 36.5t45.5 57.5t26 75.5q8 42 1 75.5t-25 57t-47 36.5t-65 13zM213 -129q4 23 22 38.5t40 15.5q23 0 36.5 -15.5t8.5 -38.5q-3 -23 -21.5 -38.5t-41.5 -15.5q-22 0 -35.5 15.5t-8.5 38.5z
" />
    <glyph glyph-name="uni1EAE" unicode="&#x1eae;" horiz-adv-x="682" 
d="M387 947l-13 39l164 95l21 -57zM408 761q-62 0 -89.5 36t-17.5 93l1 8h48q-5 -32 11.5 -50t58.5 -18t65 18t29 50h48l-2 -8q-11 -57 -50 -93t-102 -36zM456 153h-298l-81 -153h-122l382 695h131l137 -695h-122zM440 241l-59 330l-176 -330h235z" />
    <glyph glyph-name="uni1EAF" unicode="&#x1eaf;" horiz-adv-x="677" 
d="M539 869l-172 -77l-13 39l164 95zM388 606q-62 0 -89.5 36t-17.5 93l1 8h48q-5 -32 11.5 -50t58.5 -18t65 18t29 50h48l-2 -8q-11 -57 -50 -93t-102 -36zM337 558q79 0 126 -37.5t57 -97.5l23 128h114l-98 -551h-114l23 128q-31 -60 -89.5 -97.5t-136.5 -37.5
q-55 0 -98 20t-69 57.5t-35 92t3 122.5q11 64 38.5 114.5t66.5 86t87.5 54t101.5 18.5zM358 458q-75 0 -129.5 -48t-69.5 -134q-15 -87 22.5 -134.5t112.5 -47.5q36 0 69 12.5t59.5 36.5t45.5 57.5t26 75.5q8 42 1 75.5t-25 57t-47 36.5t-65 13z" />
    <glyph glyph-name="uni1EB0" unicode="&#x1eb0;" horiz-adv-x="682" 
d="M542 941l-143 82l28 59l138 -96zM408 761q-62 0 -89.5 36t-17.5 93l1 8h48q-5 -32 11.5 -50t58.5 -18t65 18t29 50h48l-2 -8q-11 -57 -50 -93t-102 -36zM456 153h-298l-81 -153h-122l382 695h131l137 -695h-122zM440 241l-59 330l-176 -330h235z" />
    <glyph glyph-name="uni1EB1" unicode="&#x1eb1;" horiz-adv-x="677" 
d="M545 831l-23 -45l-143 82l28 59zM388 606q-62 0 -89.5 36t-17.5 93l1 8h48q-5 -32 11.5 -50t58.5 -18t65 18t29 50h48l-2 -8q-11 -57 -50 -93t-102 -36zM337 558q79 0 126 -37.5t57 -97.5l23 128h114l-98 -551h-114l23 128q-31 -60 -89.5 -97.5t-136.5 -37.5
q-55 0 -98 20t-69 57.5t-35 92t3 122.5q11 64 38.5 114.5t66.5 86t87.5 54t101.5 18.5zM358 458q-75 0 -129.5 -48t-69.5 -134q-15 -87 22.5 -134.5t112.5 -47.5q36 0 69 12.5t59.5 36.5t45.5 57.5t26 75.5q8 42 1 75.5t-25 57t-47 36.5t-65 13z" />
    <glyph glyph-name="uni1EB2" unicode="&#x1eb2;" horiz-adv-x="682" 
d="M471 1081q-19 0 -28 -9.5t-16 -31.5l-49 5q4 15 10.5 30t18 27.5t29.5 20t45 7.5q45 0 61.5 -22.5t9.5 -59.5q-6 -30 -30 -52t-59 -53l-28 29q29 23 45 41t19 35q4 19 -3.5 26t-24.5 7zM408 761q-62 0 -89.5 36t-17.5 93l1 8h48q-5 -32 11.5 -50t58.5 -18t65 18t29 50h48
l-2 -8q-11 -57 -50 -93t-102 -36zM456 153h-298l-81 -153h-122l382 695h131l137 -695h-122zM440 241l-59 330l-176 -330h235z" />
    <glyph glyph-name="uni1EB3" unicode="&#x1eb3;" horiz-adv-x="677" 
d="M461 975q45 0 61.5 -22.5t9.5 -59.5q-6 -30 -30 -52t-59 -53l-28 29q29 23 45 41t19 35q4 19 -3.5 26t-24.5 7q-19 0 -28 -9.5t-16 -31.5l-49 5q4 15 10.5 30t18 27.5t29.5 20t45 7.5zM388 606q-62 0 -89.5 36t-17.5 93l1 8h48q-5 -32 11.5 -50t58.5 -18t65 18t29 50h48
l-2 -8q-11 -57 -50 -93t-102 -36zM337 558q79 0 126 -37.5t57 -97.5l23 128h114l-98 -551h-114l23 128q-31 -60 -89.5 -97.5t-136.5 -37.5q-55 0 -98 20t-69 57.5t-35 92t3 122.5q11 64 38.5 114.5t66.5 86t87.5 54t101.5 18.5zM358 458q-75 0 -129.5 -48t-69.5 -134
q-15 -87 22.5 -134.5t112.5 -47.5q36 0 69 12.5t59.5 36.5t45.5 57.5t26 75.5q8 42 1 75.5t-25 57t-47 36.5t-65 13z" />
    <glyph glyph-name="uni1EB4" unicode="&#x1eb4;" horiz-adv-x="682" 
d="M403 994q-32 0 -46 -42h-49q17 51 44 75t63 24q19 0 31.5 -6.5t23.5 -14.5t21.5 -14.5t25.5 -6.5q14 0 26 10t20 31h50q-17 -50 -45.5 -74t-64.5 -24q-19 0 -32 6.5t-23.5 14.5t-21 14.5t-23.5 6.5zM408 761q-62 0 -89.5 36t-17.5 93l1 8h48q-5 -32 11.5 -50t58.5 -18
t65 18t29 50h48l-2 -8q-11 -57 -50 -93t-102 -36zM468 695l137 -695h-122l-27 153h-298l-81 -153h-122l382 695h131zM440 241l-59 330l-176 -330h235z" />
    <glyph glyph-name="uni1EB5" unicode="&#x1eb5;" horiz-adv-x="677" 
d="M395 896q19 0 31.5 -6.5t23.5 -14.5t21.5 -14.5t25.5 -6.5q14 0 26 10t20 31h50q-17 -50 -45.5 -74t-64.5 -24q-19 0 -32 6.5t-23.5 14.5t-21 14.5t-23.5 6.5q-32 0 -46 -42h-49q17 51 44 75t63 24zM388 606q-62 0 -89.5 36t-17.5 93l1 8h48q-5 -32 11.5 -50t58.5 -18
t65 18t29 50h48l-2 -8q-11 -57 -50 -93t-102 -36zM337 558q79 0 126 -37.5t57 -97.5l23 128h114l-98 -551h-114l23 128q-31 -60 -89.5 -97.5t-136.5 -37.5q-55 0 -98 20t-69 57.5t-35 92t3 122.5q11 64 38.5 114.5t66.5 86t87.5 54t101.5 18.5zM358 458q-75 0 -129.5 -48
t-69.5 -134q-15 -87 22.5 -134.5t112.5 -47.5q36 0 69 12.5t59.5 36.5t45.5 57.5t26 75.5q8 42 1 75.5t-25 57t-47 36.5t-65 13z" />
    <glyph glyph-name="uni1EB6" unicode="&#x1eb6;" horiz-adv-x="682" 
d="M408 763q-65 0 -94 37.5t-18 97.5l1 8h50q-5 -34 12 -52.5t61 -18.5t68 18.5t30 52.5h50l-2 -8q-11 -60 -52 -97.5t-106 -37.5zM483 0l-27 153h-298l-81 -153h-122l382 695h131l137 -695h-122zM440 241l-59 330l-176 -330h235zM277 -75q23 0 36.5 -15.5t8.5 -38.5
q-3 -23 -21.5 -38.5t-41.5 -15.5q-22 0 -35.5 15.5t-8.5 38.5q4 23 22 38.5t40 15.5z" />
    <glyph glyph-name="uni1EB7" unicode="&#x1eb7;" horiz-adv-x="677" 
d="M388 608q-65 0 -94 37.5t-18 97.5l1 8h50q-5 -34 12 -52.5t61 -18.5t68 18.5t30 52.5h50l-2 -8q-11 -60 -52 -97.5t-106 -37.5zM337 558q79 0 126 -37.5t57 -97.5l23 128h114l-98 -551h-114l23 128q-31 -60 -89.5 -97.5t-136.5 -37.5q-55 0 -98 20t-69 57.5t-35 92
t3 122.5q11 64 38.5 114.5t66.5 86t87.5 54t101.5 18.5zM358 458q-75 0 -129.5 -48t-69.5 -134q-15 -87 22.5 -134.5t112.5 -47.5q36 0 69 12.5t59.5 36.5t45.5 57.5t26 75.5q8 42 1 75.5t-25 57t-47 36.5t-65 13zM213 -129q4 23 22 38.5t40 15.5q23 0 36.5 -15.5t8.5 -38.5
q-3 -23 -21.5 -38.5t-41.5 -15.5q-22 0 -35.5 15.5t-8.5 38.5z" />
    <glyph glyph-name="uni1EB8" unicode="&#x1eb8;" horiz-adv-x="515" 
d="M229 614l-37 -214h259l-16 -88h-259l-38 -219h289l-16 -93h-404l124 706h404l-17 -92h-289zM132 -129q4 23 22 38.5t40 15.5q23 0 36.5 -15.5t8.5 -38.5q-3 -23 -21.5 -38.5t-41.5 -15.5q-22 0 -35.5 15.5t-8.5 38.5z" />
    <glyph glyph-name="uni1EB9" unicode="&#x1eb9;" horiz-adv-x="623" 
d="M364 558q63 0 108.5 -20t74 -54.5t38 -81t0.5 -100.5q-2 -16 -5 -26.5t-8 -22.5h-423q-6 -45 1.5 -77t25.5 -52t43.5 -29t55.5 -9q58 0 102 29t62 77h121q-15 -43 -43 -79.5t-66 -63t-85 -41.5t-102 -15q-59 0 -105.5 19.5t-76.5 57t-41 91t1 120.5q12 65 41 116.5t72 87
t96 54.5t113 19zM470 305q10 42 3 73t-25 50.5t-44.5 29t-56.5 9.5q-31 0 -61 -9.5t-55 -29.5t-44 -50.5t-28 -72.5h311zM248 -75q23 0 36.5 -15.5t8.5 -38.5q-3 -23 -21.5 -38.5t-41.5 -15.5q-22 0 -35.5 15.5t-8.5 38.5q4 23 22 38.5t40 15.5z" />
    <glyph glyph-name="uni1EBA" unicode="&#x1eba;" horiz-adv-x="515" 
d="M375 948q47 0 64 -23.5t10 -61.5q-6 -32 -31 -55t-62 -55l-29 30q30 25 46.5 44t20.5 36q4 20 -4.5 27t-25.5 7q-20 0 -29 -10t-17 -33l-51 5q4 16 11 32t19 28.5t31 20.5t47 8zM229 614l-37 -214h259l-16 -88h-259l-38 -219h289l-16 -93h-404l124 706h404l-17 -92h-289z
" />
    <glyph glyph-name="uni1EBB" unicode="&#x1ebb;" horiz-adv-x="623" 
d="M391 742q-20 0 -29 -10t-17 -33l-51 5q4 16 11 32t19 28.5t31 20.5t47 8q47 0 64 -23.5t10 -61.5q-6 -32 -31 -55t-62 -55l-29 30q30 25 46.5 44t20.5 36q4 20 -4.5 27t-25.5 7zM364 558q63 0 108.5 -20t74 -54.5t38 -81t0.5 -100.5q-2 -16 -5 -26.5t-8 -22.5h-423
q-6 -45 1.5 -77t25.5 -52t43.5 -29t55.5 -9q58 0 102 29t62 77h121q-15 -43 -43 -79.5t-66 -63t-85 -41.5t-102 -15q-59 0 -105.5 19.5t-76.5 57t-41 91t1 120.5q12 65 41 116.5t72 87t96 54.5t113 19zM470 305q10 42 3 73t-25 50.5t-44.5 29t-56.5 9.5q-31 0 -61 -9.5
t-55 -29.5t-44 -50.5t-28 -72.5h311z" />
    <glyph glyph-name="uni1EBC" unicode="&#x1ebc;" horiz-adv-x="515" 
d="M306 866q20 0 33 -7t24 -15t22.5 -15t26.5 -7t27.5 10.5t20.5 32.5h52q-17 -52 -46.5 -77t-67.5 -25q-20 0 -33.5 7t-25 15t-22 15t-24.5 7q-33 0 -48 -44h-51q18 54 46 78.5t66 24.5zM229 614l-37 -214h259l-16 -88h-259l-38 -219h289l-16 -93h-404l124 706h404l-17 -92
h-289z" />
    <glyph glyph-name="uni1EBD" unicode="&#x1ebd;" horiz-adv-x="623" 
d="M320 652q-33 0 -48 -44h-51q18 54 46 78.5t66 24.5q20 0 33 -7t24 -15t22.5 -15t26.5 -7t27.5 10.5t20.5 32.5h52q-17 -52 -46.5 -77t-67.5 -25q-20 0 -33.5 7t-25 15t-22 15t-24.5 7zM364 558q63 0 108.5 -20t74 -54.5t38 -81t0.5 -100.5q-2 -16 -5 -26.5t-8 -22.5h-423
q-6 -45 1.5 -77t25.5 -52t43.5 -29t55.5 -9q58 0 102 29t62 77h121q-15 -43 -43 -79.5t-66 -63t-85 -41.5t-102 -15q-59 0 -105.5 19.5t-76.5 57t-41 91t1 120.5q12 65 41 116.5t72 87t96 54.5t113 19zM470 305q10 42 3 73t-25 50.5t-44.5 29t-56.5 9.5q-31 0 -61 -9.5
t-55 -29.5t-44 -50.5t-28 -72.5h311z" />
    <glyph glyph-name="uni1EBE" unicode="&#x1ebe;" horiz-adv-x="515" 
d="M477 962l-172 -77l-13 39l164 95zM360 812l-114 -60l-14 46l137 73l112 -73l-27 -46zM229 614l-37 -214h259l-16 -88h-259l-38 -219h289l-16 -93h-404l124 706h404l-17 -92h-289z" />
    <glyph glyph-name="uni1EBF" unicode="&#x1ebf;" horiz-adv-x="623" 
d="M332 730l-13 39l164 95l21 -57zM273 597l-14 46l137 73l112 -73l-27 -46l-94 60zM364 558q63 0 108.5 -20t74 -54.5t38 -81t0.5 -100.5q-2 -16 -5 -26.5t-8 -22.5h-423q-6 -45 1.5 -77t25.5 -52t43.5 -29t55.5 -9q58 0 102 29t62 77h121q-15 -43 -43 -79.5t-66 -63
t-85 -41.5t-102 -15q-59 0 -105.5 19.5t-76.5 57t-41 91t1 120.5q12 65 41 116.5t72 87t96 54.5t113 19zM470 305q10 42 3 73t-25 50.5t-44.5 29t-56.5 9.5q-31 0 -61 -9.5t-55 -29.5t-44 -50.5t-28 -72.5h311z" />
    <glyph glyph-name="uni1EC0" unicode="&#x1ec0;" horiz-adv-x="515" 
d="M485 910l-23 -45l-143 82l28 59zM360 812l-114 -60l-14 46l137 73l112 -73l-27 -46zM229 614l-37 -214h259l-16 -88h-259l-38 -219h289l-16 -93h-404l124 706h404l-17 -92h-289z" />
    <glyph glyph-name="uni1EC1" unicode="&#x1ec1;" horiz-adv-x="623" 
d="M489 710l-143 82l28 59l138 -96zM273 597l-14 46l137 73l112 -73l-27 -46l-94 60zM364 558q63 0 108.5 -20t74 -54.5t38 -81t0.5 -100.5q-2 -16 -5 -26.5t-8 -22.5h-423q-6 -45 1.5 -77t25.5 -52t43.5 -29t55.5 -9q58 0 102 29t62 77h121q-15 -43 -43 -79.5t-66 -63
t-85 -41.5t-102 -15q-59 0 -105.5 19.5t-76.5 57t-41 91t1 120.5q12 65 41 116.5t72 87t96 54.5t113 19zM470 305q10 42 3 73t-25 50.5t-44.5 29t-56.5 9.5q-31 0 -61 -9.5t-55 -29.5t-44 -50.5t-28 -72.5h311z" />
    <glyph glyph-name="uni1EC2" unicode="&#x1ec2;" horiz-adv-x="515" 
d="M510 1028q45 0 61.5 -22.5t9.5 -59.5q-6 -30 -30 -52t-59 -53l-28 29q29 23 45 41t19 35q4 19 -3.5 26t-24.5 7q-19 0 -28 -9.5t-16 -31.5l-49 5q4 15 10.5 30t18 27.5t29.5 20t45 7.5zM360 812l-114 -60l-14 46l137 73l112 -73l-27 -46zM229 614l-37 -214h259l-16 -88
h-259l-38 -219h289l-16 -93h-404l124 706h404l-17 -92h-289z" />
    <glyph glyph-name="uni1EC3" unicode="&#x1ec3;" horiz-adv-x="623" 
d="M537 873q45 0 61.5 -22.5t9.5 -59.5q-6 -30 -30 -52t-59 -53l-28 29q29 23 45 41t19 35q4 19 -3.5 26t-24.5 7q-19 0 -28 -9.5t-16 -31.5l-49 5q4 15 10.5 30t18 27.5t29.5 20t45 7.5zM273 597l-14 46l137 73l112 -73l-27 -46l-94 60zM364 558q63 0 108.5 -20t74 -54.5
t38 -81t0.5 -100.5q-2 -16 -5 -26.5t-8 -22.5h-423q-6 -45 1.5 -77t25.5 -52t43.5 -29t55.5 -9q58 0 102 29t62 77h121q-15 -43 -43 -79.5t-66 -63t-85 -41.5t-102 -15q-59 0 -105.5 19.5t-76.5 57t-41 91t1 120.5q12 65 41 116.5t72 87t96 54.5t113 19zM470 305q10 42 3 73
t-25 50.5t-44.5 29t-56.5 9.5q-31 0 -61 -9.5t-55 -29.5t-44 -50.5t-28 -72.5h311z" />
    <glyph glyph-name="uni1EC4" unicode="&#x1ec4;" horiz-adv-x="515" 
d="M354 977q17 0 29 -6t22 -13.5t20 -13.5t23 -6q29 0 42 38h46q-14 -46 -40.5 -68t-59.5 -22q-18 0 -30 6t-22 13.5t-19.5 13.5t-21.5 6q-29 0 -43 -39h-45q17 48 41.5 69.5t57.5 21.5zM360 812l-114 -60l-14 46l137 73l112 -73l-27 -46zM229 614l-37 -214h259l-16 -88
h-259l-38 -219h289l-16 -93h-404l124 706h404l-17 -92h-289z" />
    <glyph glyph-name="uni1EC5" unicode="&#x1ec5;" horiz-adv-x="623" 
d="M370 770q-29 0 -43 -39h-45q17 48 41.5 69.5t57.5 21.5q17 0 29 -6t22 -13.5t20 -13.5t23 -6q29 0 42 38h46q-14 -46 -40.5 -68t-59.5 -22q-18 0 -30 6t-22 13.5t-19.5 13.5t-21.5 6zM273 597l-14 46l137 73l112 -73l-27 -46l-94 60zM364 558q63 0 108.5 -20t74 -54.5
t38 -81t0.5 -100.5q-2 -16 -5 -26.5t-8 -22.5h-423q-6 -45 1.5 -77t25.5 -52t43.5 -29t55.5 -9q58 0 102 29t62 77h121q-15 -43 -43 -79.5t-66 -63t-85 -41.5t-102 -15q-59 0 -105.5 19.5t-76.5 57t-41 91t1 120.5q12 65 41 116.5t72 87t96 54.5t113 19zM470 305q10 42 3 73
t-25 50.5t-44.5 29t-56.5 9.5q-31 0 -61 -9.5t-55 -29.5t-44 -50.5t-28 -72.5h311z" />
    <glyph glyph-name="uni1EC6" unicode="&#x1ec6;" horiz-adv-x="515" 
d="M361 816l-119 -62l-15 48l143 76l117 -76l-28 -48zM229 614l-37 -214h259l-16 -88h-259l-38 -219h289l-16 -93h-404l124 706h404l-17 -92h-289zM132 -129q4 23 22 38.5t40 15.5q23 0 36.5 -15.5t8.5 -38.5q-3 -23 -21.5 -38.5t-41.5 -15.5q-22 0 -35.5 15.5t-8.5 38.5z
" />
    <glyph glyph-name="uni1EC7" unicode="&#x1ec7;" horiz-adv-x="623" 
d="M269 599l-15 48l143 76l117 -76l-28 -48l-98 62zM364 558q63 0 108.5 -20t74 -54.5t38 -81t0.5 -100.5q-2 -16 -5 -26.5t-8 -22.5h-423q-6 -45 1.5 -77t25.5 -52t43.5 -29t55.5 -9q58 0 102 29t62 77h121q-15 -43 -43 -79.5t-66 -63t-85 -41.5t-102 -15
q-59 0 -105.5 19.5t-76.5 57t-41 91t1 120.5q12 65 41 116.5t72 87t96 54.5t113 19zM470 305q10 42 3 73t-25 50.5t-44.5 29t-56.5 9.5q-31 0 -61 -9.5t-55 -29.5t-44 -50.5t-28 -72.5h311zM248 -75q23 0 36.5 -15.5t8.5 -38.5q-3 -23 -21.5 -38.5t-41.5 -15.5
q-22 0 -35.5 15.5t-8.5 38.5q4 23 22 38.5t40 15.5z" />
    <glyph glyph-name="uni1EC8" unicode="&#x1ec8;" horiz-adv-x="252" 
d="M243 948q47 0 64 -23.5t10 -61.5q-6 -32 -31 -55t-62 -55l-29 30q30 25 46.5 44t20.5 36q4 20 -4.5 27t-25.5 7q-20 0 -29 -10t-17 -33l-51 5q4 16 11 32t19 28.5t31 20.5t47 8zM246 706l-125 -706h-114l124 706h115z" />
    <glyph glyph-name="uni1EC9" unicode="&#x1ec9;" horiz-adv-x="247" 
d="M214 793q47 0 64 -23.5t10 -61.5q-6 -32 -31 -55t-62 -55l-29 30q30 25 46.5 44t20.5 36q4 20 -4.5 27t-25.5 7q-20 0 -29 -10t-17 -33l-51 5q4 16 11 32t19 28.5t31 20.5t47 8zM230 551l-98 -551h-115l98 551h115z" />
    <glyph glyph-name="uni1ECA" unicode="&#x1eca;" horiz-adv-x="252" 
d="M246 706l-125 -706h-114l124 706h115zM0 -129q4 23 22 38.5t40 15.5q23 0 36.5 -15.5t8.5 -38.5q-3 -23 -21.5 -38.5t-41.5 -15.5q-22 0 -35.5 15.5t-8.5 38.5z" />
    <glyph glyph-name="uni1ECB" unicode="&#x1ecb;" horiz-adv-x="251" 
d="M128 711q5 29 28.5 48t57.5 19q33 0 49.5 -19t11.5 -48t-28.5 -47t-56.5 -18t-50 18t-12 47zM231 551l-98 -551h-114l97 551h115zM0 -129q4 23 22 38.5t40 15.5q23 0 36.5 -15.5t8.5 -38.5q-3 -23 -21.5 -38.5t-41.5 -15.5q-22 0 -35.5 15.5t-8.5 38.5z" />
    <glyph glyph-name="uni1ECC" unicode="&#x1ecc;" 
d="M441 715q81 0 142.5 -28t100.5 -78.5t53 -120t-1 -153.5q-13 -75 -48 -138t-86.5 -108.5t-117.5 -71t-142 -25.5q-82 0 -144 28t-100.5 78.5t-52 120.5t1.5 154q14 75 48.5 138t86 108.5t117.5 70.5t142 25zM432 609q-50 0 -95 -17.5t-81 -50t-61 -78.5t-36 -104
q-10 -60 -1 -108t34.5 -82t66 -52t92.5 -18q50 0 95 17.5t81 50t61.5 78.5t35.5 104q11 60 1.5 108t-35 82t-66 52t-92.5 18zM265 -129q4 23 22 38.5t40 15.5q23 0 36.5 -15.5t8.5 -38.5q-3 -23 -21.5 -38.5t-41.5 -15.5q-22 0 -35.5 15.5t-8.5 38.5z" />
    <glyph glyph-name="uni1ECD" unicode="&#x1ecd;" horiz-adv-x="643" 
d="M369 558q60 0 108.5 -20t80 -57.5t43.5 -91.5t0 -123q-11 -64 -41 -114.5t-73.5 -86t-97.5 -54t-113 -18.5q-61 0 -109.5 20t-80.5 57.5t-44 92t0 122.5q11 64 41.5 114.5t74 86t98 54t113.5 18.5zM354 459q-31 0 -62.5 -11t-58.5 -33.5t-47 -57t-28 -81.5
q-8 -48 -0.5 -82.5t26.5 -57t46.5 -33t58.5 -10.5q32 0 63.5 10.5t58 33t46 57t28.5 82.5q8 47 0.5 81.5t-26 57t-46 33.5t-59.5 11zM196 -129q4 23 22 38.5t40 15.5q23 0 36.5 -15.5t8.5 -38.5q-3 -23 -21.5 -38.5t-41.5 -15.5q-22 0 -35.5 15.5t-8.5 38.5z" />
    <glyph glyph-name="uni1ECE" unicode="&#x1ece;" 
d="M493 948q47 0 64 -23.5t10 -61.5q-6 -32 -31 -55t-62 -55l-29 30q30 25 46.5 44t20.5 36q4 20 -4.5 27t-25.5 7q-20 0 -29 -10t-17 -33l-51 5q4 16 11 32t19 28.5t31 20.5t47 8zM441 715q81 0 142.5 -28t100.5 -78.5t53 -120t-1 -153.5q-13 -75 -48 -138t-86.5 -108.5
t-117.5 -71t-142 -25.5q-82 0 -144 28t-100.5 78.5t-52 120.5t1.5 154q14 75 48.5 138t86 108.5t117.5 70.5t142 25zM432 609q-50 0 -95 -17.5t-81 -50t-61 -78.5t-36 -104q-10 -60 -1 -108t34.5 -82t66 -52t92.5 -18q50 0 95 17.5t81 50t61.5 78.5t35.5 104q11 60 1.5 108
t-35 82t-66 52t-92.5 18z" />
    <glyph glyph-name="uni1ECF" unicode="&#x1ecf;" horiz-adv-x="643" 
d="M412 793q47 0 64 -23.5t10 -61.5q-6 -32 -31 -55t-62 -55l-29 30q30 25 46.5 44t20.5 36q4 20 -4.5 27t-25.5 7q-20 0 -29 -10t-17 -33l-51 5q4 16 11 32t19 28.5t31 20.5t47 8zM369 558q60 0 108.5 -20t80 -57.5t43.5 -91.5t0 -123q-11 -64 -41 -114.5t-73.5 -86
t-97.5 -54t-113 -18.5q-61 0 -109.5 20t-80.5 57.5t-44 92t0 122.5q11 64 41.5 114.5t74 86t98 54t113.5 18.5zM354 459q-31 0 -62.5 -11t-58.5 -33.5t-47 -57t-28 -81.5q-8 -48 -0.5 -82.5t26.5 -57t46.5 -33t58.5 -10.5q32 0 63.5 10.5t58 33t46 57t28.5 82.5
q8 47 0.5 81.5t-26 57t-46 33.5t-59.5 11z" />
    <glyph glyph-name="uni1ED0" unicode="&#x1ed0;" 
d="M595 962l-172 -77l-13 39l164 95zM478 812l-114 -60l-14 46l137 73l112 -73l-27 -46zM441 715q81 0 142.5 -28t100.5 -78.5t53 -120t-1 -153.5q-13 -75 -48 -138t-86.5 -108.5t-117.5 -71t-142 -25.5q-82 0 -144 28t-100.5 78.5t-52 120.5t1.5 154q14 75 48.5 138
t86 108.5t117.5 70.5t142 25zM432 609q-50 0 -95 -17.5t-81 -50t-61 -78.5t-36 -104q-10 -60 -1 -108t34.5 -82t66 -52t92.5 -18q50 0 95 17.5t81 50t61.5 78.5t35.5 104q11 60 1.5 108t-35 82t-66 52t-92.5 18z" />
    <glyph glyph-name="uni1ED1" unicode="&#x1ed1;" horiz-adv-x="643" 
d="M514 807l-172 -77l-13 39l164 95zM397 657l-114 -60l-14 46l137 73l112 -73l-27 -46zM369 558q60 0 108.5 -20t80 -57.5t43.5 -91.5t0 -123q-11 -64 -41 -114.5t-73.5 -86t-97.5 -54t-113 -18.5q-61 0 -109.5 20t-80.5 57.5t-44 92t0 122.5q11 64 41.5 114.5t74 86t98 54
t113.5 18.5zM354 459q-31 0 -62.5 -11t-58.5 -33.5t-47 -57t-28 -81.5q-8 -48 -0.5 -82.5t26.5 -57t46.5 -33t58.5 -10.5q32 0 63.5 10.5t58 33t46 57t28.5 82.5q8 47 0.5 81.5t-26 57t-46 33.5t-59.5 11z" />
    <glyph glyph-name="uni1ED2" unicode="&#x1ed2;" 
d="M603 910l-23 -45l-143 82l28 59zM478 812l-114 -60l-14 46l137 73l112 -73l-27 -46zM441 715q81 0 142.5 -28t100.5 -78.5t53 -120t-1 -153.5q-13 -75 -48 -138t-86.5 -108.5t-117.5 -71t-142 -25.5q-82 0 -144 28t-100.5 78.5t-52 120.5t1.5 154q14 75 48.5 138
t86 108.5t117.5 70.5t142 25zM432 609q-50 0 -95 -17.5t-81 -50t-61 -78.5t-36 -104q-10 -60 -1 -108t34.5 -82t66 -52t92.5 -18q50 0 95 17.5t81 50t61.5 78.5t35.5 104q11 60 1.5 108t-35 82t-66 52t-92.5 18z" />
    <glyph glyph-name="uni1ED3" unicode="&#x1ed3;" horiz-adv-x="643" 
d="M522 755l-23 -45l-143 82l28 59zM397 657l-114 -60l-14 46l137 73l112 -73l-27 -46zM369 558q60 0 108.5 -20t80 -57.5t43.5 -91.5t0 -123q-11 -64 -41 -114.5t-73.5 -86t-97.5 -54t-113 -18.5q-61 0 -109.5 20t-80.5 57.5t-44 92t0 122.5q11 64 41.5 114.5t74 86t98 54
t113.5 18.5zM354 459q-31 0 -62.5 -11t-58.5 -33.5t-47 -57t-28 -81.5q-8 -48 -0.5 -82.5t26.5 -57t46.5 -33t58.5 -10.5q32 0 63.5 10.5t58 33t46 57t28.5 82.5q8 47 0.5 81.5t-26 57t-46 33.5t-59.5 11z" />
    <glyph glyph-name="uni1ED4" unicode="&#x1ed4;" 
d="M628 1028q45 0 61.5 -22.5t9.5 -59.5q-6 -30 -30 -52t-59 -53l-28 29q29 23 45 41t19 35q4 19 -3.5 26t-24.5 7q-19 0 -28 -9.5t-16 -31.5l-49 5q4 15 10.5 30t18 27.5t29.5 20t45 7.5zM478 812l-114 -60l-14 46l137 73l112 -73l-27 -46zM441 715q81 0 142.5 -28
t100.5 -78.5t53 -120t-1 -153.5q-13 -75 -48 -138t-86.5 -108.5t-117.5 -71t-142 -25.5q-82 0 -144 28t-100.5 78.5t-52 120.5t1.5 154q14 75 48.5 138t86 108.5t117.5 70.5t142 25zM432 609q-50 0 -95 -17.5t-81 -50t-61 -78.5t-36 -104q-10 -60 -1 -108t34.5 -82t66 -52
t92.5 -18q50 0 95 17.5t81 50t61.5 78.5t35.5 104q11 60 1.5 108t-35 82t-66 52t-92.5 18z" />
    <glyph glyph-name="uni1ED5" unicode="&#x1ed5;" horiz-adv-x="643" 
d="M547 873q45 0 61.5 -22.5t9.5 -59.5q-6 -30 -30 -52t-59 -53l-28 29q29 23 45 41t19 35q4 19 -3.5 26t-24.5 7q-19 0 -28 -9.5t-16 -31.5l-49 5q4 15 10.5 30t18 27.5t29.5 20t45 7.5zM397 657l-114 -60l-14 46l137 73l112 -73l-27 -46zM369 558q60 0 108.5 -20t80 -57.5
t43.5 -91.5t0 -123q-11 -64 -41 -114.5t-73.5 -86t-97.5 -54t-113 -18.5q-61 0 -109.5 20t-80.5 57.5t-44 92t0 122.5q11 64 41.5 114.5t74 86t98 54t113.5 18.5zM354 459q-31 0 -62.5 -11t-58.5 -33.5t-47 -57t-28 -81.5q-8 -48 -0.5 -82.5t26.5 -57t46.5 -33t58.5 -10.5
q32 0 63.5 10.5t58 33t46 57t28.5 82.5q8 47 0.5 81.5t-26 57t-46 33.5t-59.5 11z" />
    <glyph glyph-name="uni1ED6" unicode="&#x1ed6;" 
d="M472 977q17 0 29 -6t22 -13.5t20 -13.5t23 -6q29 0 42 38h46q-14 -46 -40.5 -68t-59.5 -22q-18 0 -30 6t-22 13.5t-19.5 13.5t-21.5 6q-29 0 -43 -39h-45q17 48 41.5 69.5t57.5 21.5zM478 812l-114 -60l-14 46l137 73l112 -73l-27 -46zM441 715q81 0 142.5 -28
t100.5 -78.5t53 -120t-1 -153.5q-13 -75 -48 -138t-86.5 -108.5t-117.5 -71t-142 -25.5q-82 0 -144 28t-100.5 78.5t-52 120.5t1.5 154q14 75 48.5 138t86 108.5t117.5 70.5t142 25zM432 609q-50 0 -95 -17.5t-81 -50t-61 -78.5t-36 -104q-10 -60 -1 -108t34.5 -82t66 -52
t92.5 -18q50 0 95 17.5t81 50t61.5 78.5t35.5 104q11 60 1.5 108t-35 82t-66 52t-92.5 18z" />
    <glyph glyph-name="uni1ED7" unicode="&#x1ed7;" horiz-adv-x="643" 
d="M391 822q17 0 29 -6t22 -13.5t20 -13.5t23 -6q29 0 42 38h46q-14 -46 -40.5 -68t-59.5 -22q-18 0 -30 6t-22 13.5t-19.5 13.5t-21.5 6q-29 0 -43 -39h-45q17 48 41.5 69.5t57.5 21.5zM397 657l-114 -60l-14 46l137 73l112 -73l-27 -46zM369 558q60 0 108.5 -20t80 -57.5
t43.5 -91.5t0 -123q-11 -64 -41 -114.5t-73.5 -86t-97.5 -54t-113 -18.5q-61 0 -109.5 20t-80.5 57.5t-44 92t0 122.5q11 64 41.5 114.5t74 86t98 54t113.5 18.5zM354 459q-31 0 -62.5 -11t-58.5 -33.5t-47 -57t-28 -81.5q-8 -48 -0.5 -82.5t26.5 -57t46.5 -33t58.5 -10.5
q32 0 63.5 10.5t58 33t46 57t28.5 82.5q8 47 0.5 81.5t-26 57t-46 33.5t-59.5 11z" />
    <glyph glyph-name="uni1ED8" unicode="&#x1ed8;" 
d="M479 816l-119 -62l-15 48l143 76l117 -76l-28 -48zM441 715q81 0 142.5 -28t100.5 -78.5t53 -120t-1 -153.5q-13 -75 -48 -138t-86.5 -108.5t-117.5 -71t-142 -25.5q-82 0 -144 28t-100.5 78.5t-52 120.5t1.5 154q14 75 48.5 138t86 108.5t117.5 70.5t142 25zM432 609
q-50 0 -95 -17.5t-81 -50t-61 -78.5t-36 -104q-10 -60 -1 -108t34.5 -82t66 -52t92.5 -18q50 0 95 17.5t81 50t61.5 78.5t35.5 104q11 60 1.5 108t-35 82t-66 52t-92.5 18zM265 -129q4 23 22 38.5t40 15.5q23 0 36.5 -15.5t8.5 -38.5q-3 -23 -21.5 -38.5t-41.5 -15.5
q-22 0 -35.5 15.5t-8.5 38.5z" />
    <glyph glyph-name="uni1ED9" unicode="&#x1ed9;" horiz-adv-x="643" 
d="M398 661l-119 -62l-15 48l143 76l117 -76l-28 -48zM369 558q60 0 108.5 -20t80 -57.5t43.5 -91.5t0 -123q-11 -64 -41 -114.5t-73.5 -86t-97.5 -54t-113 -18.5q-61 0 -109.5 20t-80.5 57.5t-44 92t0 122.5q11 64 41.5 114.5t74 86t98 54t113.5 18.5zM354 459
q-31 0 -62.5 -11t-58.5 -33.5t-47 -57t-28 -81.5q-8 -48 -0.5 -82.5t26.5 -57t46.5 -33t58.5 -10.5q32 0 63.5 10.5t58 33t46 57t28.5 82.5q8 47 0.5 81.5t-26 57t-46 33.5t-59.5 11zM196 -129q4 23 22 38.5t40 15.5q23 0 36.5 -15.5t8.5 -38.5q-3 -23 -21.5 -38.5
t-41.5 -15.5q-22 0 -35.5 15.5t-8.5 38.5z" />
    <glyph glyph-name="uni1EDA" unicode="&#x1eda;" 
d="M395 758l-14 41l171 99l22 -60zM631 660q68 -49 96 -132.5t9 -192.5q-13 -75 -48 -138t-86.5 -108.5t-117.5 -71t-142 -25.5q-82 0 -144 28t-100.5 78.5t-52 120.5t1.5 154q14 75 48.5 138t86 108.5t117.5 70.5t142 25q45 0 84 -9q46 2 78 26.5t43 85.5h80
q-10 -57 -35.5 -96t-59.5 -62zM624 349q11 60 1.5 108t-35 82t-66 52t-92.5 18q-50 0 -95 -17.5t-81 -50t-61 -78.5t-36 -104q-10 -60 -1 -108t34.5 -82t66 -52t92.5 -18q50 0 95 17.5t81 50t61.5 78.5t35.5 104z" />
    <glyph glyph-name="uni1EDB" unicode="&#x1edb;" horiz-adv-x="643" 
d="M314 603l-14 41l171 99l22 -60zM535 503q44 -37 62 -97t4 -140q-11 -64 -41 -114.5t-73.5 -86t-97.5 -54t-113 -18.5q-61 0 -109.5 20t-80.5 57.5t-44 92t0 122.5q11 64 41.5 114.5t74 86t98 54t113.5 18.5q17 0 34 -1.5t32 -5.5q45 2 76 27t42 85h80
q-10 -58 -36.5 -97.5t-61.5 -62.5zM485 276q8 47 0.5 81.5t-26 57t-46 33.5t-59.5 11q-31 0 -62.5 -11t-58.5 -33.5t-47 -57t-28 -81.5q-8 -48 -0.5 -82.5t26.5 -57t46.5 -33t58.5 -10.5q32 0 63.5 10.5t58 33t46 57t28.5 82.5z" />
    <glyph glyph-name="uni1EDC" unicode="&#x1edc;" 
d="M557 752l-150 85l30 62l144 -101zM631 660q68 -49 96 -132.5t9 -192.5q-13 -75 -48 -138t-86.5 -108.5t-117.5 -71t-142 -25.5q-82 0 -144 28t-100.5 78.5t-52 120.5t1.5 154q14 75 48.5 138t86 108.5t117.5 70.5t142 25q45 0 84 -9q46 2 78 26.5t43 85.5h80
q-10 -57 -35.5 -96t-59.5 -62zM624 349q11 60 1.5 108t-35 82t-66 52t-92.5 18q-50 0 -95 -17.5t-81 -50t-61 -78.5t-36 -104q-10 -60 -1 -108t34.5 -82t66 -52t92.5 -18q50 0 95 17.5t81 50t61.5 78.5t35.5 104z" />
    <glyph glyph-name="uni1EDD" unicode="&#x1edd;" horiz-adv-x="643" 
d="M476 597l-150 85l30 62l144 -101zM535 503q44 -37 62 -97t4 -140q-11 -64 -41 -114.5t-73.5 -86t-97.5 -54t-113 -18.5q-61 0 -109.5 20t-80.5 57.5t-44 92t0 122.5q11 64 41.5 114.5t74 86t98 54t113.5 18.5q17 0 34 -1.5t32 -5.5q45 2 76 27t42 85h80
q-10 -58 -36.5 -97.5t-61.5 -62.5zM485 276q8 47 0.5 81.5t-26 57t-46 33.5t-59.5 11q-31 0 -62.5 -11t-58.5 -33.5t-47 -57t-28 -81.5q-8 -48 -0.5 -82.5t26.5 -57t46.5 -33t58.5 -10.5q32 0 63.5 10.5t58 33t46 57t28.5 82.5z" />
    <glyph glyph-name="uni1EDE" unicode="&#x1ede;" 
d="M482 897q-20 0 -29 -10t-17 -33l-51 5q4 16 11 32t19 28.5t31 20.5t47 8q47 0 64 -23.5t10 -61.5q-6 -32 -31 -55t-62 -55l-29 30q30 25 46.5 44t20.5 36q4 20 -4.5 27t-25.5 7zM631 660q68 -49 96 -132.5t9 -192.5q-13 -75 -48 -138t-86.5 -108.5t-117.5 -71t-142 -25.5
q-82 0 -144 28t-100.5 78.5t-52 120.5t1.5 154q14 75 48.5 138t86 108.5t117.5 70.5t142 25q45 0 84 -9q46 2 78 26.5t43 85.5h80q-10 -57 -35.5 -96t-59.5 -62zM624 349q11 60 1.5 108t-35 82t-66 52t-92.5 18q-50 0 -95 -17.5t-81 -50t-61 -78.5t-36 -104q-10 -60 -1 -108
t34.5 -82t66 -52t92.5 -18q50 0 95 17.5t81 50t61.5 78.5t35.5 104z" />
    <glyph glyph-name="uni1EDF" unicode="&#x1edf;" horiz-adv-x="643" 
d="M401 742q-20 0 -29 -10t-17 -33l-51 5q4 16 11 32t19 28.5t31 20.5t47 8q47 0 64 -23.5t10 -61.5q-6 -32 -31 -55t-62 -55l-29 30q30 25 46.5 44t20.5 36q4 20 -4.5 27t-25.5 7zM535 503q44 -37 62 -97t4 -140q-11 -64 -41 -114.5t-73.5 -86t-97.5 -54t-113 -18.5
q-61 0 -109.5 20t-80.5 57.5t-44 92t0 122.5q11 64 41.5 114.5t74 86t98 54t113.5 18.5q17 0 34 -1.5t32 -5.5q45 2 76 27t42 85h80q-10 -58 -36.5 -97.5t-61.5 -62.5zM485 276q8 47 0.5 81.5t-26 57t-46 33.5t-59.5 11q-31 0 -62.5 -11t-58.5 -33.5t-47 -57t-28 -81.5
q-8 -48 -0.5 -82.5t26.5 -57t46.5 -33t58.5 -10.5q32 0 63.5 10.5t58 33t46 57t28.5 82.5z" />
    <glyph glyph-name="uni1EE0" unicode="&#x1ee0;" 
d="M383 838q-33 0 -48 -44h-51q18 54 46 78.5t66 24.5q20 0 33 -7t24 -15t22.5 -15t26.5 -7t27.5 10.5t20.5 32.5h52q-17 -52 -46.5 -77t-67.5 -25q-20 0 -33.5 7t-25 15t-22 15t-24.5 7zM631 660q68 -49 96 -132.5t9 -192.5q-13 -75 -48 -138t-86.5 -108.5t-117.5 -71
t-142 -25.5q-82 0 -144 28t-100.5 78.5t-52 120.5t1.5 154q14 75 48.5 138t86 108.5t117.5 70.5t142 25q45 0 84 -9q46 2 78 26.5t43 85.5h80q-10 -57 -35.5 -96t-59.5 -62zM624 349q11 60 1.5 108t-35 82t-66 52t-92.5 18q-50 0 -95 -17.5t-81 -50t-61 -78.5t-36 -104
q-10 -60 -1 -108t34.5 -82t66 -52t92.5 -18q50 0 95 17.5t81 50t61.5 78.5t35.5 104z" />
    <glyph glyph-name="uni1EE1" unicode="&#x1ee1;" horiz-adv-x="643" 
d="M302 666q-33 0 -48 -44h-51q18 54 46 78.5t66 24.5q20 0 33 -7t24 -15t22.5 -15t26.5 -7t27.5 10.5t20.5 32.5h52q-17 -52 -46.5 -77t-67.5 -25q-20 0 -33.5 7t-25 15t-22 15t-24.5 7zM535 503q44 -37 62 -97t4 -140q-11 -64 -41 -114.5t-73.5 -86t-97.5 -54t-113 -18.5
q-61 0 -109.5 20t-80.5 57.5t-44 92t0 122.5q11 64 41.5 114.5t74 86t98 54t113.5 18.5q17 0 34 -1.5t32 -5.5q45 2 76 27t42 85h80q-10 -58 -36.5 -97.5t-61.5 -62.5zM485 276q8 47 0.5 81.5t-26 57t-46 33.5t-59.5 11q-31 0 -62.5 -11t-58.5 -33.5t-47 -57t-28 -81.5
q-8 -48 -0.5 -82.5t26.5 -57t46.5 -33t58.5 -10.5q32 0 63.5 10.5t58 33t46 57t28.5 82.5z" />
    <glyph glyph-name="uni1EE2" unicode="&#x1ee2;" 
d="M631 660q68 -49 96 -132.5t9 -192.5q-13 -75 -48 -138t-86.5 -108.5t-117.5 -71t-142 -25.5q-82 0 -144 28t-100.5 78.5t-52 120.5t1.5 154q14 75 48.5 138t86 108.5t117.5 70.5t142 25q45 0 84 -9q46 2 78 26.5t43 85.5h80q-10 -57 -35.5 -96t-59.5 -62zM624 349
q11 60 1.5 108t-35 82t-66 52t-92.5 18q-50 0 -95 -17.5t-81 -50t-61 -78.5t-36 -104q-10 -60 -1 -108t34.5 -82t66 -52t92.5 -18q50 0 95 17.5t81 50t61.5 78.5t35.5 104zM327 -75q23 0 36.5 -15.5t8.5 -38.5q-3 -23 -21.5 -38.5t-41.5 -15.5q-22 0 -35.5 15.5t-8.5 38.5
q4 23 22 38.5t40 15.5z" />
    <glyph glyph-name="uni1EE3" unicode="&#x1ee3;" horiz-adv-x="643" 
d="M535 503q44 -37 62 -97t4 -140q-11 -64 -41 -114.5t-73.5 -86t-97.5 -54t-113 -18.5q-61 0 -109.5 20t-80.5 57.5t-44 92t0 122.5q11 64 41.5 114.5t74 86t98 54t113.5 18.5q17 0 34 -1.5t32 -5.5q45 2 76 27t42 85h80q-10 -58 -36.5 -97.5t-61.5 -62.5zM485 276
q8 47 0.5 81.5t-26 57t-46 33.5t-59.5 11q-31 0 -62.5 -11t-58.5 -33.5t-47 -57t-28 -81.5q-8 -48 -0.5 -82.5t26.5 -57t46.5 -33t58.5 -10.5q32 0 63.5 10.5t58 33t46 57t28.5 82.5zM258 -75q23 0 36.5 -15.5t8.5 -38.5q-3 -23 -21.5 -38.5t-41.5 -15.5q-22 0 -35.5 15.5
t-8.5 38.5q4 23 22 38.5t40 15.5z" />
    <glyph glyph-name="uni1EE4" unicode="&#x1ee4;" horiz-adv-x="671" 
d="M241 706l-73 -419q-17 -97 17 -141.5t108 -44.5q72 0 122 44.5t67 141.5l74 419h114l-74 -419q-13 -75 -43.5 -130.5t-73.5 -92t-96 -54t-112 -17.5q-58 0 -104.5 17.5t-76 54t-40 92t2.5 130.5l74 419h114zM201 -129q4 23 22 38.5t40 15.5q23 0 36.5 -15.5t8.5 -38.5
q-3 -23 -21.5 -38.5t-41.5 -15.5q-22 0 -35.5 15.5t-8.5 38.5z" />
    <glyph glyph-name="uni1EE5" unicode="&#x1ee5;" horiz-adv-x="640" 
d="M621 551l-97 -551h-115l21 120q-34 -63 -91.5 -95.5t-124.5 -32.5q-46 0 -82.5 15.5t-59 45.5t-30.5 74.5t2 103.5l57 320h114l-55 -308q-14 -77 18 -116.5t97 -39.5q66 0 115 42.5t64 129.5v-4l52 296h115zM257 -75q23 0 36.5 -15.5t8.5 -38.5q-3 -23 -21.5 -38.5
t-41.5 -15.5q-22 0 -35.5 15.5t-8.5 38.5q4 23 22 38.5t40 15.5z" />
    <glyph glyph-name="uni1EE6" unicode="&#x1ee6;" horiz-adv-x="671" 
d="M453 948q47 0 64 -23.5t10 -61.5q-6 -32 -31 -55t-62 -55l-29 30q30 25 46.5 44t20.5 36q4 20 -4.5 27t-25.5 7q-20 0 -29 -10t-17 -33l-51 5q4 16 11 32t19 28.5t31 20.5t47 8zM241 706l-73 -419q-17 -97 17 -141.5t108 -44.5q72 0 122 44.5t67 141.5l74 419h114
l-74 -419q-13 -75 -43.5 -130.5t-73.5 -92t-96 -54t-112 -17.5q-58 0 -104.5 17.5t-76 54t-40 92t2.5 130.5l74 419h114z" />
    <glyph glyph-name="uni1EE7" unicode="&#x1ee7;" horiz-adv-x="640" 
d="M400 742q-20 0 -29 -10t-17 -33l-51 5q4 16 11 32t19 28.5t31 20.5t47 8q47 0 64 -23.5t10 -61.5q-6 -32 -31 -55t-62 -55l-29 30q30 25 46.5 44t20.5 36q4 20 -4.5 27t-25.5 7zM621 551l-97 -551h-115l21 120q-34 -63 -91.5 -95.5t-124.5 -32.5q-46 0 -82.5 15.5
t-59 45.5t-30.5 74.5t2 103.5l57 320h114l-55 -308q-14 -77 18 -116.5t97 -39.5q66 0 115 42.5t64 129.5v-4l52 296h115z" />
    <glyph glyph-name="uni1EE8" unicode="&#x1ee8;" horiz-adv-x="671" 
d="M355 758l-14 41l171 99l22 -60zM802 818q-14 -76 -54 -120.5t-91 -62.5l-61 -348q-13 -75 -43.5 -130.5t-73.5 -92t-96 -54t-112 -17.5q-58 0 -104.5 17.5t-76 54t-40 92t2.5 130.5l74 419h114l-73 -419q-17 -97 17 -141.5t108 -44.5q72 0 122 44.5t67 141.5l74 419h40
q48 0 81.5 24.5t44.5 87.5h80z" />
    <glyph glyph-name="uni1EE9" unicode="&#x1ee9;" horiz-adv-x="640" 
d="M313 603l-14 41l171 99l22 -60zM754 663q-14 -77 -54.5 -121.5t-91.5 -61.5l-84 -480h-115l21 120q-34 -63 -91.5 -95.5t-124.5 -32.5q-46 0 -82.5 15.5t-59 45.5t-30.5 74.5t2 103.5l57 320h114l-55 -308q-14 -77 18 -116.5t97 -39.5q66 0 115 42.5t64 129.5v-4l52 296
h42q48 0 81.5 24.5t44.5 87.5h80z" />
    <glyph glyph-name="uni1EEA" unicode="&#x1eea;" horiz-adv-x="671" 
d="M517 752l-150 85l30 62l144 -101zM802 818q-14 -76 -54 -120.5t-91 -62.5l-61 -348q-13 -75 -43.5 -130.5t-73.5 -92t-96 -54t-112 -17.5q-58 0 -104.5 17.5t-76 54t-40 92t2.5 130.5l74 419h114l-73 -419q-17 -97 17 -141.5t108 -44.5q72 0 122 44.5t67 141.5l74 419h40
q48 0 81.5 24.5t44.5 87.5h80z" />
    <glyph glyph-name="uni1EEB" unicode="&#x1eeb;" horiz-adv-x="640" 
d="M475 597l-150 85l30 62l144 -101zM754 663q-14 -77 -54.5 -121.5t-91.5 -61.5l-84 -480h-115l21 120q-34 -63 -91.5 -95.5t-124.5 -32.5q-46 0 -82.5 15.5t-59 45.5t-30.5 74.5t2 103.5l57 320h114l-55 -308q-14 -77 18 -116.5t97 -39.5q66 0 115 42.5t64 129.5v-4
l52 296h42q48 0 81.5 24.5t44.5 87.5h80z" />
    <glyph glyph-name="uni1EEC" unicode="&#x1eec;" horiz-adv-x="671" 
d="M442 897q-20 0 -29 -10t-17 -33l-51 5q4 16 11 32t19 28.5t31 20.5t47 8q47 0 64 -23.5t10 -61.5q-6 -32 -31 -55t-62 -55l-29 30q30 25 46.5 44t20.5 36q4 20 -4.5 27t-25.5 7zM802 818q-14 -76 -54 -120.5t-91 -62.5l-61 -348q-13 -75 -43.5 -130.5t-73.5 -92t-96 -54
t-112 -17.5q-58 0 -104.5 17.5t-76 54t-40 92t2.5 130.5l74 419h114l-73 -419q-17 -97 17 -141.5t108 -44.5q72 0 122 44.5t67 141.5l74 419h40q48 0 81.5 24.5t44.5 87.5h80z" />
    <glyph glyph-name="uni1EED" unicode="&#x1eed;" horiz-adv-x="640" 
d="M400 742q-20 0 -29 -10t-17 -33l-51 5q4 16 11 32t19 28.5t31 20.5t47 8q47 0 64 -23.5t10 -61.5q-6 -32 -31 -55t-62 -55l-29 30q30 25 46.5 44t20.5 36q4 20 -4.5 27t-25.5 7zM754 663q-14 -77 -54.5 -121.5t-91.5 -61.5l-84 -480h-115l21 120q-34 -63 -91.5 -95.5
t-124.5 -32.5q-46 0 -82.5 15.5t-59 45.5t-30.5 74.5t2 103.5l57 320h114l-55 -308q-14 -77 18 -116.5t97 -39.5q66 0 115 42.5t64 129.5v-4l52 296h42q48 0 81.5 24.5t44.5 87.5h80z" />
    <glyph glyph-name="uni1EEE" unicode="&#x1eee;" horiz-adv-x="671" 
d="M371 807q-33 0 -48 -44h-51q18 54 46 78.5t66 24.5q20 0 33 -7t24 -15t22.5 -15t26.5 -7t27.5 10.5t20.5 32.5h52q-17 -52 -46.5 -77t-67.5 -25q-20 0 -33.5 7t-25 15t-22 15t-24.5 7zM802 818q-14 -76 -54 -120.5t-91 -62.5l-61 -348q-13 -75 -43.5 -130.5t-73.5 -92
t-96 -54t-112 -17.5q-58 0 -104.5 17.5t-76 54t-40 92t2.5 130.5l74 419h114l-73 -419q-17 -97 17 -141.5t108 -44.5q72 0 122 44.5t67 141.5l74 419h40q48 0 81.5 24.5t44.5 87.5h80z" />
    <glyph glyph-name="uni1EEF" unicode="&#x1eef;" horiz-adv-x="640" 
d="M329 652q-33 0 -48 -44h-51q18 54 46 78.5t66 24.5q20 0 33 -7t24 -15t22.5 -15t26.5 -7t27.5 10.5t20.5 32.5h52q-17 -52 -46.5 -77t-67.5 -25q-20 0 -33.5 7t-25 15t-22 15t-24.5 7zM754 663q-14 -77 -54.5 -121.5t-91.5 -61.5l-84 -480h-115l21 120
q-34 -63 -91.5 -95.5t-124.5 -32.5q-46 0 -82.5 15.5t-59 45.5t-30.5 74.5t2 103.5l57 320h114l-55 -308q-14 -77 18 -116.5t97 -39.5q66 0 115 42.5t64 129.5v-4l52 296h42q48 0 81.5 24.5t44.5 87.5h80z" />
    <glyph glyph-name="uni1EF0" unicode="&#x1ef0;" horiz-adv-x="671" 
d="M802 818q-14 -76 -54 -120.5t-91 -62.5l-61 -348q-13 -75 -43.5 -130.5t-73.5 -92t-96 -54t-112 -17.5q-58 0 -104.5 17.5t-76 54t-40 92t2.5 130.5l74 419h114l-73 -419q-17 -97 17 -141.5t108 -44.5q72 0 122 44.5t67 141.5l74 419h40q48 0 81.5 24.5t44.5 87.5h80z
M263 -75q23 0 36.5 -15.5t8.5 -38.5q-3 -23 -21.5 -38.5t-41.5 -15.5q-22 0 -35.5 15.5t-8.5 38.5q4 23 22 38.5t40 15.5z" />
    <glyph glyph-name="uni1EF1" unicode="&#x1ef1;" horiz-adv-x="640" 
d="M754 663q-14 -77 -54.5 -121.5t-91.5 -61.5l-84 -480h-115l21 120q-34 -63 -91.5 -95.5t-124.5 -32.5q-46 0 -82.5 15.5t-59 45.5t-30.5 74.5t2 103.5l57 320h114l-55 -308q-14 -77 18 -116.5t97 -39.5q66 0 115 42.5t64 129.5v-4l52 296h42q48 0 81.5 24.5t44.5 87.5h80
zM257 -75q23 0 36.5 -15.5t8.5 -38.5q-3 -23 -21.5 -38.5t-41.5 -15.5q-22 0 -35.5 15.5t-8.5 38.5q4 23 22 38.5t40 15.5z" />
    <glyph glyph-name="Ygrave" unicode="&#x1ef2;" horiz-adv-x="618" 
d="M490 752l-150 85l30 62l144 -101zM664 706l-314 -449l-45 -257h-115l45 257l-157 449h132l104 -327l220 327h130z" />
    <glyph glyph-name="ygrave" unicode="&#x1ef3;" horiz-adv-x="580" 
d="M468 643l-24 -46l-150 85l30 62zM171 551l94 -405l224 405h127l-477 -813h-127l168 275l-137 538h128z" />
    <glyph glyph-name="uni1EF4" unicode="&#x1ef4;" horiz-adv-x="618" 
d="M664 706l-314 -449l-45 -257h-115l45 257l-157 449h132l104 -327l220 327h130zM245 -75q23 0 36.5 -15.5t8.5 -38.5q-3 -23 -21.5 -38.5t-41.5 -15.5q-22 0 -35.5 15.5t-8.5 38.5q4 23 22 38.5t40 15.5z" />
    <glyph glyph-name="uni1EF5" unicode="&#x1ef5;" horiz-adv-x="580" 
d="M171 551l94 -405l224 405h127l-477 -813h-127l168 275l-137 538h128zM262 -129q4 23 22 38.5t40 15.5q23 0 36.5 -15.5t8.5 -38.5q-3 -23 -21.5 -38.5t-41.5 -15.5q-22 0 -35.5 15.5t-8.5 38.5z" />
    <glyph glyph-name="uni1EF6" unicode="&#x1ef6;" horiz-adv-x="618" 
d="M415 897q-20 0 -29 -10t-17 -33l-51 5q4 16 11 32t19 28.5t31 20.5t47 8q47 0 64 -23.5t10 -61.5q-6 -32 -31 -55t-62 -55l-29 30q30 25 46.5 44t20.5 36q4 20 -4.5 27t-25.5 7zM664 706l-314 -449l-45 -257h-115l45 257l-157 449h132l104 -327l220 327h130z" />
    <glyph glyph-name="uni1EF7" unicode="&#x1ef7;" horiz-adv-x="580" 
d="M380 793q47 0 64 -23.5t10 -61.5q-6 -32 -31 -55t-62 -55l-29 30q30 25 46.5 44t20.5 36q4 20 -4.5 27t-25.5 7q-20 0 -29 -10t-17 -33l-51 5q4 16 11 32t19 28.5t31 20.5t47 8zM171 551l94 -405l224 405h127l-477 -813h-127l168 275l-137 538h128z" />
    <glyph glyph-name="uni1EF8" unicode="&#x1ef8;" horiz-adv-x="618" 
d="M344 807q-33 0 -48 -44h-51q18 54 46 78.5t66 24.5q20 0 33 -7t24 -15t22.5 -15t26.5 -7t27.5 10.5t20.5 32.5h52q-17 -52 -46.5 -77t-67.5 -25q-20 0 -33.5 7t-25 15t-22 15t-24.5 7zM664 706l-314 -449l-45 -257h-115l45 257l-157 449h132l104 -327l220 327h130z" />
    <glyph glyph-name="uni1EF9" unicode="&#x1ef9;" horiz-adv-x="580" 
d="M311 711q20 0 33 -7t24 -15t22.5 -15t26.5 -7t27.5 10.5t20.5 32.5h52q-17 -52 -46.5 -77t-67.5 -25q-20 0 -33.5 7t-25 15t-22 15t-24.5 7q-33 0 -48 -44h-51q18 54 46 78.5t66 24.5zM171 551l94 -405l224 405h127l-477 -813h-127l168 275l-137 538h128z" />
    <glyph glyph-name="endash" unicode="&#x2013;" horiz-adv-x="629" 
d="M590 410l-16 -96h-535l16 96h535z" />
    <glyph glyph-name="emdash" unicode="&#x2014;" horiz-adv-x="845" 
d="M806 410l-17 -96h-750l16 96h751z" />
    <glyph glyph-name="quoteleft" unicode="&#x2018;" horiz-adv-x="197" 
d="M34 580q-5 56 3 100q11 59 44.5 91.5t90.5 32.5l-8 -47q-26 0 -40.5 -15t-19.5 -44l-4 -21h54l-17 -97h-103z" />
    <glyph glyph-name="quoteright" unicode="&#x2019;" horiz-adv-x="197" 
d="M163 804q3 -28 2 -52.5t-5 -47.5q-11 -60 -45 -92t-90 -32l9 48q50 0 60 58l3 21h-54l17 97h103z" />
    <glyph glyph-name="quotesinglbase" unicode="&#x201a;" horiz-adv-x="203" 
d="M134 78q8 -38 4.5 -77.5t-20 -71.5t-46.5 -52.5t-75 -20.5l8 46q25 0 39 12.5t19 44.5l2 9h-57l19 110h107z" />
    <glyph glyph-name="quotedblleft" unicode="&#x201c;" horiz-adv-x="348" 
d="M34 580q-5 56 3 100q11 59 44.5 91.5t90.5 32.5l-8 -47q-26 0 -40.5 -15t-19.5 -44l-4 -21h54l-17 -97h-103zM185 580q-3 28 -2 53t5 47q11 59 45 91.5t90 32.5l-8 -47q-26 0 -40.5 -15t-20.5 -44l-3 -21h54l-17 -97h-103z" />
    <glyph glyph-name="quotedblright" unicode="&#x201d;" horiz-adv-x="348" 
d="M163 804q3 -28 2 -52.5t-5 -47.5q-11 -60 -45 -92t-90 -32l9 48q50 0 60 58l3 21h-54l17 97h103zM314 804q4 -55 -3 -100q-11 -60 -44.5 -92t-90.5 -32l8 48q51 0 61 58l3 21h-54l17 97h103z" />
    <glyph glyph-name="quotedblbase" unicode="&#x201e;" horiz-adv-x="348" 
d="M133 97q3 -28 2 -52.5t-5 -47.5q-11 -60 -45 -92t-90 -32l9 48q50 0 60 58l3 21h-54l17 97h103zM284 97q4 -55 -3 -100q-11 -60 -44.5 -92t-90.5 -32l8 48q51 0 61 58l3 21h-54l17 97h103z" />
    <glyph glyph-name="dagger" unicode="&#x2020;" horiz-adv-x="564" 
d="M560 463l-195 8l-118 -733h-114l140 733l-198 -8l16 88l195 -8l31 240h114l-53 -240l198 8z" />
    <glyph glyph-name="daggerdbl" unicode="&#x2021;" horiz-adv-x="564" 
d="M366 471l-75 -420l199 9l-16 -89l-196 8l-32 -241h-113l53 241l-198 -8l16 89l195 -9l74 420l-198 -8l15 88l196 -8l31 240h114l-53 -240l198 8l-15 -88z" />
    <glyph glyph-name="bullet" unicode="&#x2022;" horiz-adv-x="388" 
d="M63 333q5 28 19.5 52t35 42t46.5 28t53 10q28 0 50 -10t36.5 -28t20.5 -42t1 -52q-5 -27 -19.5 -51t-35 -41.5t-46.5 -27.5t-53 -10t-49.5 10t-37 27.5t-20.5 41.5t-1 51z" />
    <glyph glyph-name="ellipsis" unicode="&#x2026;" horiz-adv-x="592" 
d="M159 126l-23 -126h-129l22 126h130zM360 126l-23 -126h-129l22 126h130zM561 126l-23 -126h-129l22 126h130z" />
    <glyph glyph-name="perthousand" unicode="&#x2030;" horiz-adv-x="1043" 
d="M247 716q65 0 101 -40.5t23 -113.5q-6 -36 -22.5 -64.5t-40 -48t-53 -30t-62.5 -10.5t-59 10.5t-43 30t-23.5 48t0.5 64.5q6 36 22.5 65t40.5 48.5t53.5 30t62.5 10.5zM669 707l-525 -707h-111l524 707h112zM146 562q-6 -38 10 -60.5t48 -22.5q34 0 58 22.5t31 60.5
t-9.5 61t-49.5 23t-57 -23t-31 -61zM509 298q66 0 102 -40.5t23 -112.5q-6 -36 -22.5 -65t-40 -48.5t-53 -30t-62.5 -10.5q-66 0 -102 40.5t-24 113.5q7 36 23.5 64.5t40.5 48t53.5 30t61.5 10.5zM851 298q65 0 101 -40.5t23 -112.5q-6 -36 -22.5 -65t-40 -48.5t-53 -30
t-62.5 -10.5q-66 0 -102 40.5t-24 113.5q7 36 23.5 64.5t40.5 48t53.5 30t62.5 10.5zM409 145q-7 -38 9 -61t49 -23t57.5 23t31.5 61q6 37 -10 60t-49 23t-57 -23t-31 -60zM750 145q-7 -38 9 -61t49 -23t57.5 23t31.5 61q7 37 -9.5 60t-49.5 23t-57 -23t-31 -60z" />
    <glyph glyph-name="guilsinglleft" unicode="&#x2039;" horiz-adv-x="297" 
d="M107 120l-62 175l124 175h109l-126 -175l64 -175h-109z" />
    <glyph glyph-name="guilsinglright" unicode="&#x203a;" horiz-adv-x="297" 
d="M146 295l-65 175h110l61 -175l-123 -175h-110z" />
    <glyph glyph-name="fraction" unicode="&#x2044;" horiz-adv-x="371" 
d="M503 707l-525 -707h-112l524 707h113z" />
    <glyph glyph-name="uni20A8" unicode="&#x20a8;" horiz-adv-x="1102" 
d="M381 706q63 0 106.5 -16.5t68.5 -45t33 -68t0 -85.5q-15 -81 -70 -135t-146 -69l133 -287h-128l-126 282h-80l-50 -282h-115l124 706h250zM471 485q10 56 -16 89.5t-101 33.5h-125l-43 -245h125q75 0 112.5 32.5t47.5 89.5zM948 376q1 41 -25.5 68.5t-80.5 27.5
q-46 0 -75 -20.5t-36 -54.5q-5 -31 17 -47t57.5 -26t78 -19t77 -26t54.5 -46.5t11 -80.5q-6 -34 -24.5 -63t-47 -50.5t-67 -33.5t-83.5 -12q-104 0 -160.5 47.5t-53.5 134.5h112q-3 -42 27 -69t89 -27q46 0 72 21.5t32 53.5q6 33 -16 49.5t-57.5 27t-77.5 19t-76.5 25
t-54.5 45.5t-11 80q6 34 24.5 63t48 50t69 33t87.5 12q104 0 154 -51t48 -131h-112z" />
    <glyph glyph-name="Euro" unicode="&#x20ac;" horiz-adv-x="815" 
d="M391 100q82 0 142 38.5t95 99.5h121q-24 -55 -61 -100t-84 -77t-105 -49.5t-124 -17.5q-63 0 -113.5 18t-86.5 51.5t-57 80.5t-25 105h-94l10 56h84q2 24 6 48q3 20 9 40h-83l9 57h92q24 59 61.5 107.5t86 83t106 53.5t121.5 19q66 0 117.5 -17.5t88 -50t57 -77.5
t25.5 -100h-121q-12 62 -59 100.5t-129 38.5q-73 0 -135 -41t-98 -116h224l-9 -57h-237q-2 -10 -4.5 -19.5t-4.5 -20.5q-2 -13 -3.5 -25t-1.5 -23h235l-10 -56h-222q11 -71 58.5 -110t118.5 -39z" />
    <glyph glyph-name="uni20B9" unicode="&#x20b9;" horiz-adv-x="628" 
d="M522 628l-18 -103h117l-12 -68h-119q-13 -46 -36.5 -80t-60 -56.5t-88.5 -33.5t-123 -11l-14 -77q-10 -57 9 -89.5t73 -32.5q51 0 80 30t40 90h107q-20 -97 -80.5 -152t-156.5 -55q-106 0 -151.5 56t-25.5 167l25 139q81 0 133.5 4t85 15t49.5 32t27 54h-306l12 68h308
l18 103h-308l14 78h531l-13 -78h-117z" />
    <glyph glyph-name="uni20BA" unicode="&#x20ba;" horiz-adv-x="793" 
d="M768 428q-20 -111 -55.5 -194.5t-89.5 -138.5t-129 -82.5t-173 -27.5q-45 0 -92 6t-98 16l43 242l-158 -33l13 72l158 33l16 94l-158 -34l12 69l159 35l39 223h116l-35 -196l174 38l-12 -71l-174 -38l-17 -94l176 37l-12 -72l-176 -37l-31 -175q19 -4 38 -5.5t37 -1.5
q73 0 126 24t90 68.5t60 106t36 136.5h117z" />
    <glyph glyph-name="uni20BD" unicode="&#x20bd;" horiz-adv-x="645" 
d="M431 706q63 0 106.5 -15t69 -42.5t33.5 -65.5t0 -84q-17 -98 -89 -152.5t-193 -54.5h-125l-17 -92h199l-15 -87h-199l-20 -113h-114l20 113h-90l15 87h90l16 92h-90l16 90h90l57 324h240zM523 499q10 54 -15.5 86t-98.5 32h-119l-42 -235h119q74 0 110.5 32t45.5 85z" />
    <glyph glyph-name="uni2113" unicode="&#x2113;" horiz-adv-x="250" 
d="M266 740l-130 -740h-115l130 740h115z" />
    <glyph glyph-name="trademark" unicode="&#x2122;" horiz-adv-x="810" 
d="M323 636h-95l-49 -281h-83l49 281h-97l13 70h275zM806 706l-62 -351h-77l40 240l-147 -240h-59l-61 251l-44 -251h-74l62 351h110l56 -254l155 254h101z" />
    <glyph glyph-name="uni2126" unicode="&#x2126;" horiz-adv-x="793" 
d="M753 368q-17 -91 -64 -164t-130 -116h134l-15 -88h-274l16 92q79 28 137.5 94.5t75.5 166.5q11 59 1.5 106.5t-35 80.5t-66 51t-92.5 18t-99.5 -18t-85 -51.5t-63.5 -81t-36 -105.5q-17 -100 18 -166.5t104 -94.5l-16 -92h-274l16 88h133q-68 43 -89.5 116t-4.5 164
q14 80 53 144.5t95 109.5t124.5 69t142.5 24t134.5 -24t100.5 -69t56.5 -109.5t2.5 -144.5z" />
    <glyph glyph-name="estimated" unicode="&#x212e;" horiz-adv-x="757" 
d="M325 -7q-74 0 -133 22.5t-97 66t-53 106.5t-1 145q14 78 48 145.5t85 117.5t118.5 79t148.5 29t139 -27.5t92.5 -72.5t46 -104t0.5 -122l-11 -61h-519l-30 -171q30 -40 72.5 -60.5t106.5 -20.5q75 0 139.5 32.5t133.5 89.5l37 -51q-75 -67 -155 -105t-168 -38zM593 561
q-24 35 -66 54t-98 19q-58 0 -108 -20.5t-90 -62.5l-30 -163h361z" />
    <glyph glyph-name="partialdiff" unicode="&#x2202;" horiz-adv-x="583" 
d="M334 556q23 0 44.5 -5.5t38 -19t26 -37.5t9.5 -62q7 52 5.5 96t-15.5 76.5t-43.5 50.5t-78.5 18q-33 0 -71 -9l11 61q31 8 57.5 11.5t52.5 3.5q117 0 165 -81t19 -248q-17 -97 -51.5 -175t-82.5 -132.5t-107.5 -83.5t-128.5 -29q-43 0 -79.5 14.5t-60 44t-32.5 74.5
t1 106q12 68 41 127t71 103.5t95.5 70t113.5 25.5zM328 460q-37 0 -69.5 -17.5t-58 -48t-44 -72.5t-27.5 -91q-6 -37 -2 -63.5t15.5 -43t29.5 -24.5t39 -8q38 0 71 18.5t59 50t44 73.5t26 90q13 72 -10.5 104t-72.5 32z" />
    <glyph glyph-name="uni2206" unicode="&#x2206;" horiz-adv-x="697" 
d="M457 696l174 -607l-16 -89h-657l16 89l389 607h94zM92 89h421l-127 477z" />
    <glyph glyph-name="product" unicode="&#x220f;" horiz-adv-x="741" 
d="M765 707l-16 -87h-77l-109 -620h-115l109 620h-280l-109 -620h-115l110 620h-77l16 87h663z" />
    <glyph glyph-name="summation" unicode="&#x2211;" horiz-adv-x="480" 
d="M518 608h-328l218 -240l-15 -88l-309 -257h331l-16 -89h-426l23 133l295 254l-207 243l23 132h427z" />
    <glyph glyph-name="minus" unicode="&#x2212;" horiz-adv-x="473" 
d="M456 410l-17 -96h-412l17 96h412z" />
    <glyph glyph-name="radical" unicode="&#x221a;" horiz-adv-x="829" 
d="M887 879l-663 -922h-52l-91 233l-78 -40l-24 56l189 100l84 -217l566 790h69z" />
    <glyph glyph-name="infinity" unicode="&#x221e;" horiz-adv-x="702" 
d="M561 503q76 0 112 -40.5t23 -114.5q-6 -37 -24 -66t-43.5 -49t-56.5 -30.5t-65 -10.5q-32 0 -57 8t-45 21t-35 30.5t-28 36.5q-33 -41 -80 -69t-105 -27q-75 0 -111 40.5t-23 114.5q7 37 24.5 66t43 49t56.5 30.5t65 10.5q33 0 58 -8.5t43.5 -22.5t32.5 -32.5t26 -38.5
q33 43 81 73t108 29zM179 270q34 0 67 19.5t62 54.5q-20 34 -42 58.5t-57 24.5q-38 0 -63 -22t-32 -58q-6 -35 10.5 -56t54.5 -21zM605 348q6 35 -10.5 56.5t-54.5 21.5q-36 0 -71 -22t-64 -60q19 -32 42.5 -53.5t62.5 -21.5q38 0 63.5 21.5t31.5 57.5z" />
    <glyph glyph-name="integral" unicode="&#x222b;" horiz-adv-x="271" 
d="M201 777q23 83 76 115.5t123 32.5h19l-27 -99h-20q-20 0 -34.5 -10.5t-22.5 -38.5l-239 -841q-23 -85 -73 -119.5t-125 -34.5h-21l27 99h23q24 0 35 11.5t21 43.5z" />
    <glyph glyph-name="approxequal" unicode="&#x2248;" horiz-adv-x="552" 
d="M228 568q30 0 52.5 -10.5t41.5 -23t37 -23t40 -10.5q26 0 44.5 18t29.5 50h89q-29 -88 -78 -129.5t-110 -41.5q-30 0 -52 10.5t-41 23t-37.5 23t-40.5 10.5q-26 0 -45 -18t-30 -50h-87q29 88 77.5 129.5t109.5 41.5zM189 346q30 0 52.5 -10.5t41.5 -23t37 -23t40 -10.5
q26 0 44.5 18t29.5 50h89q-29 -88 -78 -129.5t-110 -41.5q-30 0 -52 10.5t-41 23t-37.5 23t-40.5 10.5q-26 0 -45 -18t-30 -50h-87q29 88 77.5 129.5t109.5 41.5z" />
    <glyph glyph-name="notequal" unicode="&#x2260;" horiz-adv-x="593" 
d="M384 422l-110 -121h280l-18 -104h-357l-96 -106h-62l96 106h-113l18 104h190l109 121h-278l18 104h355l95 105h63l-95 -105h114l-18 -104h-191z" />
    <glyph glyph-name="lessequal" unicode="&#x2264;" horiz-adv-x="439" 
d="M189 398l196 -188h-143l-199 189l266 190h142zM14 153h364l-16 -90h-363z" />
    <glyph glyph-name="greaterequal" unicode="&#x2265;" horiz-adv-x="439" 
d="M13 210l263 189l-196 190h143l198 -190l-265 -189h-143zM0 153h364l-16 -90h-364z" />
    <glyph glyph-name="lozenge" unicode="&#x25ca;" horiz-adv-x="557" 
d="M526 351l-291 -248l-204 248l292 247zM149 351l107 -131l153 131l-106 130z" />
    <glyph glyph-name="fi" unicode="&#xfb01;" horiz-adv-x="596" 
d="M248 551h317l-97 -551h-115l80 453h-202l-79 -453h-115l80 453h-74l17 98h74l3 18q17 100 82 150.5t182 45.5l-18 -100q-65 2 -93.5 -22.5t-39.5 -82.5zM546 763q33 0 50 -17t12 -46t-28.5 -46.5t-56.5 -17.5t-50 17.5t-12 46.5t28 46t57 17z" />
    <glyph glyph-name="fl" unicode="&#xfb02;" horiz-adv-x="599" 
d="M376 665q-69 3 -99 -22t-41 -83l-2 -9h122l-17 -98h-122l-79 -453h-115l80 453h-75l17 98h75l3 18q17 100 84 151t187 45zM615 740l-130 -740h-115l130 740h115z" />
    <glyph glyph-name="uni03020300" horiz-adv-x="0" 
d="M21 790l-23 -45l-143 82l28 59zM-104 692l-114 -60l-14 46l137 73l112 -73l-27 -46z" />
    <glyph glyph-name="uni03020301" horiz-adv-x="0" 
d="M23 840l-172 -77l-13 39l164 95zM-94 690l-114 -60l-14 46l137 73l112 -73l-27 -46z" />
    <glyph glyph-name="uni03020303" horiz-adv-x="0" 
d="M-109 857q17 0 29 -6t22 -13.5t19.5 -13.5t23.5 -6q29 0 42 38h46q-14 -46 -40.5 -68t-59.5 -22q-18 0 -30 6t-22 13.5t-19.5 13.5t-21.5 6q-30 0 -43 -39h-45q17 48 41.5 69.5t57.5 21.5zM-103 692l-114 -60l-14 46l137 73l112 -73l-27 -46z" />
    <glyph glyph-name="uni03020309" horiz-adv-x="0" 
d="M51 906q45 0 61.5 -22.5t9.5 -59.5q-6 -30 -30 -52t-59 -53l-28 29q29 23 45 41t19 35q4 19 -3.5 26t-24.5 7q-19 0 -28 -9.5t-16 -31.5l-49 5q4 15 10.5 30t18 27.5t29.5 20t45 7.5zM-99 690l-114 -60l-14 46l137 73l112 -73l-27 -46z" />
    <glyph glyph-name="uni03060300" horiz-adv-x="0" 
d="M33 842l-23 -45l-143 82l28 59zM-124 617q-62 0 -89.5 36t-17.5 93l1 8h48q-5 -32 11.5 -50t58.5 -18t65 18t29 50h48l-2 -8q-11 -57 -50 -93t-102 -36z" />
    <glyph glyph-name="uni03060301" horiz-adv-x="0" 
d="M28 880l-172 -77l-13 39l164 95zM-123 617q-62 0 -89.5 36t-17.5 93l1 8h48q-5 -32 11.5 -50t58.5 -18t65 18t29 50h48l-2 -8q-11 -57 -50 -93t-102 -36z" />
    <glyph glyph-name="uni03060303" horiz-adv-x="0" 
d="M-117 907q19 0 31.5 -6.5t23.5 -14.5t21.5 -14.5t25.5 -6.5q14 0 26 10t20 31h50q-17 -50 -45.5 -74t-64.5 -24q-19 0 -32 6.5t-23.5 14.5t-21 14.5t-23.5 6.5q-32 0 -46 -42h-49q17 51 44 75t63 24zM-124 617q-62 0 -89.5 36t-17.5 93l1 8h48q-5 -32 11.5 -50t58.5 -18
t65 18t29 50h48l-2 -8q-11 -57 -50 -93t-102 -36z" />
    <glyph glyph-name="uni03060309" horiz-adv-x="0" 
d="M-53 985q45 0 61.5 -22.5t9.5 -59.5q-6 -30 -30 -52t-59 -53l-28 29q29 23 45 41t19 35q4 19 -3.5 26t-24.5 7q-19 0 -28 -9.5t-16 -31.5l-49 5q4 15 10.5 30t18 27.5t29.5 20t45 7.5zM-126 616q-62 0 -89.5 36t-17.5 93l1 8h48q-5 -32 11.5 -50t58.5 -18t65 18t29 50h48
l-2 -8q-11 -57 -50 -93t-102 -36z" />
  </font>
</defs>
</svg>
