<?xml version="1.0" standalone="no"?>
<!DOCTYPE svg PUBLIC "-//W3C//DTD SVG 1.1//EN" "http://www.w3.org/Graphics/SVG/1.1/DTD/svg11.dtd" >
<svg xmlns="http://www.w3.org/2000/svg" xmlns:xlink="http://www.w3.org/1999/xlink" version="1.1">
<metadata>
Created by FontForge 20170731 at Tue Dec 12 17:12:31 2017
 By Aleksey,,,
</metadata>
<defs>
<font id="PoppinsVN-800i" horiz-adv-x="775" >
  <font-face 
    font-family="PoppinsVN 800i"
    font-weight="400"
    font-style="italic"
    font-stretch="normal"
    units-per-em="1000"
    panose-1="0 0 5 0 0 0 0 0 0 0"
    ascent="800"
    descent="-200"
    x-height="561"
    cap-height="708"
    bbox="-407 -325 1311.09 1156"
    underline-thickness="50"
    underline-position="-150"
    slope="-10"
    unicode-range="U+000D-FB02"
  />
<missing-glyph horiz-adv-x="504" 
d="M413 -268h-319v1008h319v-1008zM169 672v-33h66v-37h-67v-33h168v33h-67v37h67v33h-167zM168 542v-104h168v34h-67v70h-101zM235 472h-33v36h33v-36zM168 410v-33h67v-37h-67v-33h101v70h67v33h-168zM302 350v-67h-134v-34h168v101h-34zM235 227v-57h34v24h33v-48h-100
v81h-34v-114h168v114h-101zM168 53v-114h168v114h-168zM302 -28h-100v47h100v-47zM168 -85v-33h71l-71 -47v-33h168v33h-103l70 47h33v33h-168z" />
    <glyph glyph-name=".notdef" horiz-adv-x="504" 
d="M413 -268h-319v1008h319v-1008zM169 672v-33h66v-37h-67v-33h168v33h-67v37h67v33h-167zM168 542v-104h168v34h-67v70h-101zM235 472h-33v36h33v-36zM168 410v-33h67v-37h-67v-33h101v70h67v33h-168zM302 350v-67h-134v-34h168v101h-34zM235 227v-57h34v24h33v-48h-100
v81h-34v-114h168v114h-101zM168 53v-114h168v114h-168zM302 -28h-100v47h100v-47zM168 -85v-33h71l-71 -47v-33h168v33h-103l70 47h33v33h-168z" />
    <glyph glyph-name=".null" horiz-adv-x="0" 
 />
    <glyph glyph-name=".null" horiz-adv-x="0" 
 />
    <glyph glyph-name="nonmarkingreturn" unicode="&#xd;" horiz-adv-x="250" 
 />
    <glyph glyph-name="space" unicode=" " horiz-adv-x="185" 
 />
    <glyph glyph-name="exclam" unicode="!" horiz-adv-x="409" 
d="M388 749l-109 -482h-168l62 482h215zM282 192l-34 -192h-199l34 192h199z" />
    <glyph glyph-name="quotedbl" unicode="&#x22;" horiz-adv-x="453" 
d="M222 802l-53 -228h-132l28 228h157zM429 802l-53 -228h-131l27 228h157z" />
    <glyph glyph-name="numbersign" unicode="#" horiz-adv-x="909" 
d="M747 427l-42 -108h115l-31 -179h-154l-54 -140h-183l54 140h-153l-54 -140h-182l54 140h-144l31 179h183l42 108h-140l32 179h178l52 134h182l-52 -134h153l52 134h183l-52 -134h120l-32 -179h-158zM564 427h-153l-42 -108h153z" />
    <glyph glyph-name="dollar" unicode="$" horiz-adv-x="649" 
d="M418 500q2 28 -8.5 43t-27.5 22l-23 -128l84 -28t81.5 -39.5t56.5 -63.5t9 -102q-7 -43 -31.5 -81.5t-64 -67t-93.5 -45.5t-120 -17l-14 -80h-47l14 82q-54 5 -97.5 21.5t-73 45t-43.5 68t-8 90.5h209q-3 -29 8 -46.5t32 -25.5l23 130q-39 12 -83 26t-79 38.5t-53.5 64
t-7.5 102.5q9 50 36.5 88t68 64.5t91 41t105.5 16.5l14 81h47l-14 -82q115 -8 172.5 -64t48.5 -154h-212zM273 518q-4 -22 8 -37t34 -26l20 114q-26 -2 -42 -15t-20 -36zM379 200q4 23 -10.5 37t-40.5 25l-21 -120q29 2 48 17t24 41z" />
    <glyph glyph-name="percent" unicode="%" horiz-adv-x="850" 
d="M261 720q37 0 66.5 -11t49 -33t27 -54.5t-0.5 -76.5q-8 -43 -27 -75.5t-46 -54t-60 -32.5t-70 -11t-67 11t-49.5 32.5t-27 54t-0.5 75.5q8 44 26.5 76.5t46 54.5t61.5 33t71 11zM772 710l-505 -710h-188l505 710h188zM186 545q-5 -28 4 -43t29 -15q21 0 36 15t20 43
q5 29 -5 44.5t-31 15.5q-20 0 -34 -15.5t-19 -44.5zM652 339q37 0 67 -11t49 -32.5t26.5 -54t-0.5 -76.5q-7 -43 -26 -76t-46 -55t-60.5 -33t-70.5 -11t-66.5 11t-49 33t-27 55t-0.5 76q8 44 27 76.5t46 54t60.5 32.5t70.5 11zM576 165q-9 -60 34 -60q20 0 35 15.5t20 44.5
t-4 44t-30 15q-44 0 -55 -59z" />
    <glyph glyph-name="ampersand" unicode="&#x26;" horiz-adv-x="697" 
d="M437 0l-48 78q-8 -8 -16.5 -14.5t-18.5 -13.5q-29 -26 -69 -41.5t-88 -15.5q-57 0 -98 17.5t-65 48t-32 71t0 85.5q8 42 25.5 77.5t43 62t56.5 44t65 24.5l-9 25q-7 21 -9.5 43.5t2.5 49.5q6 33 25 64.5t50.5 55.5t74.5 39t96 15q50 0 84.5 -11t57 -29.5t34.5 -43
t16 -51.5q5 -26 2.5 -54.5t-8.5 -54.5h-183q5 25 5 39q3 42 -34 42q-17 0 -27.5 -9.5t-12.5 -23.5t2 -26t15 -30l260 -463h-196zM305 219q5 29 -12 46t-46 17t-50 -16.5t-26 -45.5q-5 -30 11.5 -47t45.5 -17t50.5 17t26.5 46z" />
    <glyph glyph-name="quotesingle" unicode="'" horiz-adv-x="247" 
d="M223 802l-54 -228h-131l27 228h158z" />
    <glyph glyph-name="parenleft" unicode="(" horiz-adv-x="420" 
d="M20 402q17 99 53.5 187t87 162.5t111 135t126.5 105.5h190l-3 -18q-160 -117 -253 -257.5t-123 -314.5q-31 -174 12.5 -314.5t161.5 -257.5l-3 -18h-190q-50 45 -89.5 105t-63 134.5t-29.5 162.5t12 188z" />
    <glyph glyph-name="parenright" unicode=")" horiz-adv-x="423" 
d="M403 403q-18 -100 -54.5 -188t-86.5 -162.5t-110.5 -135t-126.5 -105.5h-191l3 18q161 117 254 257.5t123 314.5t-13 314.5t-162 257.5l3 18h190q50 -45 89.5 -105.5t63.5 -135t30 -162t-12 -186.5z" />
    <glyph glyph-name="asterisk" unicode="*" horiz-adv-x="545" 
d="M440 702l41 -111l-123 -40l110 -38l-87 -116l-78 87l4 -124h-128l49 124l-109 -88l-47 118l124 40l-109 36l82 112l83 -85l-7 125h131l-50 -125z" />
    <glyph glyph-name="plus" unicode="+" horiz-adv-x="556" 
d="M517 255h-161l-29 -165h-189l29 165h-160l31 180h161l29 165h189l-29 -165h161z" />
    <glyph glyph-name="comma" unicode="," horiz-adv-x="256" 
d="M206 119q16 -42 16 -96t-21 -102.5t-64.5 -82t-114.5 -33.5l12 71q26 0 41.5 11t22.5 48l2 11h-80l30 173h156z" />
    <glyph glyph-name="hyphen" unicode="-" horiz-adv-x="560" 
d="M541 428l-29 -163h-453l28 163h454z" />
    <glyph glyph-name="period" unicode="." horiz-adv-x="257" 
d="M244 192l-34 -192h-199l34 192h199z" />
    <glyph glyph-name="slash" unicode="/" horiz-adv-x="394" 
d="M529 953l-469 -1146h-189l470 1146h188z" />
    <glyph glyph-name="zero" unicode="0" horiz-adv-x="649" 
d="M37 362q14 77 41 142.5t70.5 113.5t103.5 75t138 27t128.5 -27t77 -75t31.5 -113.5t-9 -142.5q-13 -78 -41 -143.5t-71.5 -113.5t-103.5 -75t-138 -27t-128.5 27t-77 75t-30.5 113.5t9 143.5zM424 362q6 35 8.5 66t-3.5 54.5t-22.5 37.5t-48.5 14t-54 -14t-36 -37.5
t-23 -54.5t-15 -66t-8.5 -66.5t3.5 -55t23 -37.5t49 -14t53.5 14t35.5 37.5t23 55t15 66.5z" />
    <glyph glyph-name="one" unicode="1" horiz-adv-x="377" 
d="M41 523l32 185h312l-124 -708h-206l92 523h-106z" />
    <glyph glyph-name="two" unicode="2" horiz-adv-x="565" 
d="M2 156q65 42 127.5 86t112 87.5t82.5 84.5t40 78q10 68 -44 68q-29 0 -46.5 -21.5t-27.5 -77.5h-190q11 71 41 121t71 82t90 46.5t99 14.5q68 0 112 -18.5t68.5 -49t31 -71t-1.5 -84.5q-9 -51 -39 -99t-72.5 -91t-93 -79.5t-101.5 -64.5h254l-28 -159h-510z" />
    <glyph glyph-name="three" unicode="3" horiz-adv-x="578" 
d="M365 743q59 0 102 -16.5t69 -45t35.5 -67t1.5 -82.5q-7 -35 -22.5 -61.5t-35.5 -45.5t-43 -30t-44 -16l-1 -4q26 -10 47.5 -26.5t35 -41t18.5 -56.5t-3 -73q-14 -82 -83 -133.5t-185 -51.5q-126 0 -190.5 61.5t-51.5 188.5h191q-8 -42 6 -64.5t56 -22.5q26 0 45 14.5
t23 38.5q8 39 -13 60.5t-77 21.5h-34l28 159h34q14 0 30.5 2t31 8.5t26 20t15.5 36.5q5 32 -8.5 47.5t-36.5 15.5q-30 0 -48 -22.5t-24 -53.5h-191q23 116 99 177.5t197 61.5z" />
    <glyph glyph-name="four" unicode="4" horiz-adv-x="659" 
d="M6 120l29 164l386 434h212l-75 -428h78l-30 -170h-78l-21 -120h-198l20 120h-323zM411 493l-177 -203h141z" />
    <glyph glyph-name="five" unicode="5" horiz-adv-x="599" 
d="M581 555h-304l-20 -114q24 20 59.5 32.5t77.5 12.5q54 0 90.5 -19.5t56.5 -52.5t25 -76t-3 -90q-20 -117 -97 -183t-195 -66q-64 0 -112 17t-77 47.5t-40 72.5t-2 93h192q-2 -22 10.5 -41.5t48.5 -19.5q35 0 55.5 23.5t27.5 60.5q7 39 -9 59.5t-50 20.5q-27 0 -45.5 -13
t-25.5 -30h-191l77 439h481z" />
    <glyph glyph-name="six" unicode="6" horiz-adv-x="609" 
d="M406 511q0 34 -12.5 53t-45.5 19q-49 0 -74.5 -48.5t-40.5 -139.5q23 34 64 54t91 20q48 0 84.5 -15.5t60 -46t31 -75.5t-3.5 -104q-9 -53 -32.5 -96.5t-59.5 -74t-83 -47.5t-104 -17q-85 0 -137 29.5t-77.5 81.5t-27.5 121.5t12 149.5q17 94 44 163t67 114t93.5 66.5
t123.5 21.5q65 0 108 -19.5t67.5 -51.5t32.5 -73t3 -85h-184zM220 245q-8 -39 9.5 -61t56.5 -22q35 0 60 17t31 52q8 42 -10.5 64.5t-53.5 22.5q-33 0 -60 -18t-33 -55z" />
    <glyph glyph-name="seven" unicode="7" horiz-adv-x="497" 
d="M532 571l-349 -571h-202l347 547h-278l29 168h478z" />
    <glyph glyph-name="eight" unicode="8" horiz-adv-x="624" 
d="M96 560q6 35 28 69t59.5 61t89.5 43.5t118 16.5t112 -18.5t73 -48.5t36.5 -67.5t2.5 -75.5q-9 -51 -41 -86.5t-79 -56.5q111 -62 86 -201q-9 -52 -37 -91t-70.5 -65t-98 -39.5t-119.5 -13.5q-55 0 -102.5 15.5t-80 46t-47 75.5t-3.5 105q21 114 140 168q-42 22 -59.5 63
t-7.5 100zM284 518q-8 -37 8 -55t45 -18t50.5 17.5t29.5 53.5q5 35 -10.5 55t-44.5 20t-51 -19t-27 -54zM214 232q-7 -37 11.5 -60.5t59.5 -23.5t67 23t33 58q7 39 -13 61.5t-58 22.5t-65.5 -21.5t-34.5 -59.5z" />
    <glyph glyph-name="nine" unicode="9" horiz-adv-x="573" 
d="M209 222q0 -35 13.5 -53.5t45.5 -18.5q50 0 75 48.5t40 139.5q-23 -34 -64 -54t-91 -20q-48 0 -84.5 15.5t-60 46t-31 75.5t2.5 104q9 53 33.5 96.5t61.5 74t86.5 47.5t107.5 17q88 0 139 -29t74 -80.5t23 -121.5t-15 -151q-15 -86 -37.5 -153.5t-58.5 -114.5t-89.5 -72
t-130.5 -25q-64 0 -107.5 20.5t-70 53.5t-37 74t-8.5 81h183zM396 491q7 38 -10 59t-56 21q-35 0 -59.5 -19t-31.5 -59q-8 -38 10.5 -58t53.5 -20q33 0 59.5 19t33.5 57z" />
    <glyph glyph-name="colon" unicode=":" horiz-adv-x="305" 
d="M309 591l-34 -192h-199l34 192h199zM239 192l-34 -192h-199l34 192h199z" />
    <glyph glyph-name="semicolon" unicode=";" horiz-adv-x="396" 
d="M354 582l-34 -192h-199l34 192h199zM260 119q16 -42 16 -96t-21 -102.5t-64.5 -82t-114.5 -33.5l12 71q26 0 41.5 11t22.5 48l2 11h-80l30 173h156z" />
    <glyph glyph-name="less" unicode="&#x3c;" horiz-adv-x="483" 
d="M176 127l-154 218l231 219h245l-230 -219l154 -218h-246z" />
    <glyph glyph-name="equal" unicode="=" horiz-adv-x="618" 
d="M635 567l-31 -178h-574l31 178h574zM588 300l-31 -178h-573l31 178h573z" />
    <glyph glyph-name="greater" unicode="&#x3e;" horiz-adv-x="483" 
d="M61 564h245l154 -219l-230 -218h-246l230 218z" />
    <glyph glyph-name="question" unicode="?" horiz-adv-x="531" 
d="M337 765q53 0 94.5 -13.5t68.5 -40t37.5 -67t0.5 -94.5q-8 -46 -30.5 -83t-56.5 -62.5t-77 -39.5t-92 -15l-14 -81h-185l37 206h75q61 0 102 15t49 59q5 27 -8 42t-36 15q-29 0 -45.5 -17.5t-21.5 -43.5h-185q7 45 28.5 85t57.5 70t86.5 47.5t114.5 17.5zM262 192
l-34 -192h-198l33 192h199z" />
    <glyph glyph-name="at" unicode="@" horiz-adv-x="1312" 
d="M832 833q125 0 221.5 -30t158.5 -89.5t86 -148t4 -204.5q-14 -77 -53 -144.5t-93.5 -117t-119.5 -78t-130 -28.5q-72 0 -117 30.5t-48 97.5q-42 -60 -95 -94t-128 -34q-51 0 -88.5 20.5t-59 57t-24.5 88t15 114.5q18 64 55.5 117.5t88.5 92.5t113.5 60.5t129.5 21.5
q57 0 101.5 -15.5t72.5 -46t35 -77t-11 -108.5l-25 -81q-13 -42 -5 -57.5t34 -15.5q21 0 43.5 11t43.5 34.5t38 59.5t26 85q12 72 -2 130.5t-55 100.5t-108.5 65t-161.5 23q-116 0 -210 -35t-164 -95.5t-114.5 -141.5t-60.5 -173q-13 -77 -1 -141.5t53.5 -111t114.5 -71.5
t180 -24l-64 -159q-139 2 -237.5 38t-158 102t-78.5 159t1 208q26 146 102.5 259t185.5 190t241 116.5t268 39.5zM618 164q17 0 36.5 6t38 20.5t34 38t24.5 57.5q9 32 6 53t-13.5 34t-27 18t-33.5 5q-18 0 -37.5 -6t-38 -20.5t-34 -37.5t-24.5 -57q-9 -31 -5.5 -52.5
t14.5 -34.5t27 -18.5t33 -5.5z" />
    <glyph glyph-name="A" unicode="A" horiz-adv-x="752" 
d="M460 118h-251l-60 -118h-207l383 705h226l135 -705h-208zM436 266l-35 229l-117 -229h152z" />
    <glyph glyph-name="B" unicode="B" horiz-adv-x="669" 
d="M655 525q-12 -66 -53.5 -107t-95.5 -54q63 -15 90 -62.5t16 -108.5q-16 -91 -85 -142t-185 -51h-350l124 708h342q106 0 159.5 -46t37.5 -137zM363 425q73 0 84 62q12 64 -63 64h-98l-22 -126h99zM416 222q12 66 -65 66h-111l-23 -130h111q78 0 88 64z" />
    <glyph glyph-name="C" unicode="C" horiz-adv-x="755" 
d="M444 715q69 0 123 -19.5t91.5 -55t57.5 -85.5t21 -111h-208q-10 42 -41 65.5t-79 23.5q-66 0 -113.5 -48.5t-62.5 -129.5q-14 -82 16.5 -130.5t96.5 -48.5q48 0 87.5 24t65.5 66h207q-23 -61 -60.5 -111t-87 -85.5t-110.5 -55t-130 -19.5q-80 0 -139.5 26.5t-96.5 74.5
t-49.5 114t1.5 145t49.5 145t89 114t122.5 74.5t149 26.5z" />
    <glyph glyph-name="D" unicode="D" horiz-adv-x="738" 
d="M704 356q-13 -77 -50 -142t-93 -112.5t-128.5 -74.5t-158.5 -27h-282l124 708h282q86 0 149.5 -26t103 -72.5t53.5 -111.5t0 -142zM286 176q88 0 145.5 46t73.5 134q16 87 -26 133.5t-129 46.5h-67l-64 -360h67z" />
    <glyph glyph-name="E" unicode="E" horiz-adv-x="546" 
d="M286 551l-21 -117h230l-27 -149h-229l-22 -128h259l-28 -157h-456l124 708h456l-27 -157h-259z" />
    <glyph glyph-name="F" unicode="F" horiz-adv-x="562" 
d="M597 708l-28 -157h-283l-22 -126h211l-25 -148h-212l-49 -277h-197l124 708h481z" />
    <glyph glyph-name="G" unicode="G" horiz-adv-x="757" 
d="M452 714q69 0 121 -18.5t88 -51.5t55 -77.5t22 -96.5h-208q-10 28 -37 45.5t-71 17.5q-73 0 -123.5 -48.5t-65.5 -129.5q-32 -187 146 -187q49 0 91.5 23.5t73.5 71.5h-196l24 140h360l-34 -195q-23 -45 -56.5 -83.5t-79 -67.5t-104 -45.5t-130.5 -16.5q-82 0 -144 27
t-100 76t-51 116.5t1 148.5q14 77 50 141.5t90.5 111t125 72.5t152.5 26z" />
    <glyph glyph-name="H" unicode="H" horiz-adv-x="742" 
d="M749 708l-124 -708h-196l50 286h-240l-50 -286h-197l124 708h197l-46 -265h240l46 265h196z" />
    <glyph glyph-name="I" unicode="I" horiz-adv-x="306" 
d="M313 708l-124 -708h-197l124 708h197z" />
    <glyph glyph-name="J" unicode="J" horiz-adv-x="570" 
d="M582 708l-83 -470q-21 -122 -96 -183.5t-187 -61.5q-60 0 -106 16.5t-75 50t-40 83.5t1 116h195q-9 -49 4.5 -69t42.5 -20q26 0 42.5 16t22.5 52l83 470h196z" />
    <glyph glyph-name="K" unicode="K" horiz-adv-x="722" 
d="M440 362l209 -362h-237l-168 312l-55 -312h-197l124 708h197l-54 -306l279 306h235z" />
    <glyph glyph-name="L" unicode="L" horiz-adv-x="492" 
d="M215 149h221l-26 -149h-418l124 708h197z" />
    <glyph glyph-name="M" unicode="M" horiz-adv-x="932" 
d="M939 705l-123 -705h-196l70 399l-201 -399h-169l-60 398l-71 -398h-196l123 705h241l93 -457l250 457h239z" />
    <glyph glyph-name="N" unicode="N" horiz-adv-x="763" 
d="M646 0h-197l-191 395l-69 -395h-197l124 707h197l191 -400l69 400h197z" />
    <glyph glyph-name="O" unicode="O" 
d="M426 719q87 0 152.5 -29.5t106 -82t55 -126t-0.5 -160.5q-13 -72 -46 -132t-83 -103.5t-116 -68t-144 -24.5q-89 0 -155 29.5t-106.5 82t-54.5 126t2 160.5q13 72 46 132.5t83.5 104t116.5 67.5t144 24zM411 537q-72 0 -121 -46.5t-63 -125.5q-14 -86 21 -137.5
t117 -51.5q72 0 120.5 47t62.5 125q16 87 -20 138t-117 51z" />
    <glyph glyph-name="P" unicode="P" horiz-adv-x="634" 
d="M230 237l-41 -237h-197l124 708h294q66 0 112.5 -17.5t74 -49t36 -75t-0.5 -95.5q-9 -49 -33.5 -92t-63 -74.5t-91 -49.5t-117.5 -18h-97zM333 392q47 0 70.5 22t29.5 57t-9.5 56.5t-63.5 21.5h-74l-28 -157h75z" />
    <glyph glyph-name="Q" unicode="Q" 
d="M739 321q-16 -88 -61 -157.5t-115 -113.5l104 -169h-234l-56 113q-7 -1 -13.5 -1h-13.5q-89 0 -155 29.5t-106.5 82t-54.5 126t2 160.5q13 72 46 132.5t83.5 104t116.5 67.5t144 24q87 0 152.5 -29.5t106 -82t55 -126t-0.5 -160.5zM227 365q-14 -86 21 -137.5t117 -51.5
q72 0 120.5 47t62.5 125q16 87 -20 138t-117 51q-72 0 -121 -46.5t-63 -125.5z" />
    <glyph glyph-name="R" unicode="R" horiz-adv-x="653" 
d="M427 708q66 0 112.5 -17.5t74 -48.5t36.5 -72.5t1 -89.5q-13 -73 -62.5 -128t-133.5 -78l114 -274h-217l-98 261h-20l-45 -261h-197l124 708h311zM258 393h96q83 0 95 74q6 35 -10 55t-58 20h-96z" />
    <glyph glyph-name="S" unicode="S" horiz-adv-x="610" 
d="M553 177q-6 -38 -28 -71.5t-57 -58.5t-83 -39.5t-107 -14.5q-128 0 -197.5 60.5t-70.5 166.5h209q-4 -40 14.5 -56.5t47.5 -16.5q25 0 41 13t21 36q6 32 -16.5 51.5t-58 35.5t-77.5 33.5t-75.5 45.5t-51 72t-5.5 112q8 42 32 74.5t60 54t82 33t96 11.5q68 0 117.5 -16
t81.5 -44.5t48 -69t17 -89.5h-212q3 34 -12 49.5t-41 15.5q-21 0 -36.5 -11t-19.5 -35q-5 -30 17 -48t57.5 -33t76.5 -32t74.5 -45t50.5 -71.5t5 -112.5z" />
    <glyph glyph-name="T" unicode="T" horiz-adv-x="598" 
d="M649 708l-28 -157h-190l-97 -551h-196l96 551h-188l27 157h576z" />
    <glyph glyph-name="U" unicode="U" horiz-adv-x="708" 
d="M309 708l-71 -404q-11 -58 9 -91.5t76 -33.5t88 33.5t43 91.5l71 404h195l-70 -404q-14 -78 -48.5 -136t-83 -97t-108 -58.5t-124.5 -19.5t-116 19.5t-84 58.5t-45 97t1 136l71 404h196z" />
    <glyph glyph-name="V" unicode="V" horiz-adv-x="745" 
d="M275 708l71 -510l248 510h209l-366 -708h-253l-118 708h209z" />
    <glyph glyph-name="W" unicode="W" horiz-adv-x="1076" 
d="M1107 708l-290 -708h-244l-21 437l-174 -437h-244l-41 708h212l-7 -482l194 482h215l25 -482l163 482h212z" />
    <glyph glyph-name="X" unicode="X" horiz-adv-x="731" 
d="M484 350l181 -350h-233l-104 202l-153 -202h-225l294 364l-178 344h233l101 -195l148 195h225z" />
    <glyph glyph-name="Y" unicode="Y" horiz-adv-x="704" 
d="M762 708l-335 -483l-39 -225h-197l39 225l-164 483h225l77 -270l172 270h222z" />
    <glyph glyph-name="Z" unicode="Z" horiz-adv-x="612" 
d="M232 157h298l-28 -157h-516l26 149l364 402h-292l28 157h513l-26 -149z" />
    <glyph glyph-name="bracketleft" unicode="[" horiz-adv-x="494" 
d="M541 953l-28 -158h-162l-146 -831h162l-29 -158h-346l203 1147h346z" />
    <glyph glyph-name="backslash" unicode="\" horiz-adv-x="828" 
d="M332 -193l-52 1146h188l52 -1146h-188z" />
    <glyph glyph-name="bracketright" unicode="]" horiz-adv-x="491" 
d="M-49 -194l28 158h163l145 831h-162l29 158h346l-203 -1147h-346z" />
    <glyph glyph-name="asciicircum" unicode="^" horiz-adv-x="732" 
d="M174 164h-195l339 544h193l147 -544h-195l-87 320z" />
    <glyph glyph-name="underscore" unicode="_" horiz-adv-x="709" 
d="M659 -41l-33 -191h-647l33 191h647z" />
    <glyph glyph-name="grave" unicode="`" horiz-adv-x="317" 
d="M322 674l-37 -73l-173 72l44 100z" />
    <glyph glyph-name="a" unicode="a" horiz-adv-x="682" 
d="M306 568q65 0 105.5 -26t53.5 -70l16 89h196l-100 -561h-195l16 89q-29 -44 -76 -70t-108 -26q-53 0 -93.5 21t-65.5 60t-32.5 95.5t5.5 128.5q11 64 38 114t64.5 84.5t82.5 53t93 18.5zM350 396q-45 0 -79 -29.5t-44 -85.5q-10 -57 13.5 -86.5t68.5 -29.5q43 0 77.5 30
t44.5 86q10 55 -13.5 85t-67.5 30z" />
    <glyph glyph-name="b" unicode="b" horiz-adv-x="681" 
d="M3 0l130 740h197l-48 -268q29 44 75.5 70t108.5 26q50 0 89.5 -19.5t65 -56.5t34.5 -90t-3 -121t-40 -121.5t-66.5 -90.5t-85 -56.5t-96.5 -19.5q-61 0 -98.5 26t-50.5 70l-16 -89h-196zM330 165q44 0 78 29.5t44 86.5q11 56 -12.5 85.5t-68.5 29.5q-44 0 -78.5 -30
t-44.5 -85q-10 -56 14 -86t68 -30z" />
    <glyph glyph-name="c" unicode="c" horiz-adv-x="618" 
d="M353 568q56 0 101.5 -15.5t77.5 -45t49.5 -71.5t17.5 -96h-208q-3 28 -18.5 44t-45.5 16q-34 0 -62 -29t-39 -90q-11 -62 7.5 -90.5t52.5 -28.5q30 0 51 16t32 44h208q-19 -54 -50.5 -96.5t-72.5 -72t-90 -45t-103 -15.5q-63 0 -112 21t-80.5 60.5t-43 96t1.5 127.5
q11 63 40.5 113.5t73 85t97.5 53t115 18.5z" />
    <glyph glyph-name="d" unicode="d" horiz-adv-x="675" 
d="M705 740l-131 -740h-196l16 89q-28 -44 -75 -70t-108 -26q-50 0 -90 21t-65.5 60t-34.5 95.5t4 128.5q11 64 38 114t64.5 84.5t82.5 53t93 18.5q65 0 105 -26t53 -70l48 268h196zM347 396q-45 0 -79 -29.5t-44 -85.5q-10 -57 13.5 -86.5t68.5 -29.5q43 0 77.5 30t44.5 86
q10 55 -13.5 85t-67.5 30z" />
    <glyph glyph-name="e" unicode="e" horiz-adv-x="618" 
d="M359 568q63 0 112 -19.5t79.5 -55.5t42 -87.5t0.5 -114.5q-5 -25 -13 -46h-370q-3 -28 1 -46.5t13 -29t22.5 -15t29.5 -4.5q30 0 51 14.5t32 36.5h208q-16 -45 -45.5 -83t-69 -65.5t-89 -43.5t-105.5 -16q-62 0 -111 20.5t-80 58.5t-42 93.5t1 124.5q12 65 42 116.5
t74 87.5t99.5 55t117.5 19zM401 327q9 46 -13.5 66.5t-55.5 20.5q-38 0 -66 -21t-41 -66h176z" />
    <glyph glyph-name="f" unicode="f" horiz-adv-x="377" 
d="M403 619q-45 4 -68 -9t-33 -49h91l-29 -164h-92l-70 -397h-197l70 397h-63l28 164h64q21 118 106 177t223 48z" />
    <glyph glyph-name="g" unicode="g" horiz-adv-x="678" 
d="M214 -7q-50 0 -90 21t-65.5 60t-34.5 95.5t4 128.5q11 64 38 114t64.5 84.5t83 53t93.5 18.5q65 0 105.5 -26t52.5 -70l17 89h195l-98 -555q-10 -56 -34 -107t-64 -89.5t-96 -61.5t-129 -23q-131 0 -198.5 62t-68.5 166h193q5 -58 82 -58q20 0 39 5t35 18t27.5 34.5
t17.5 53.5l15 83q-28 -43 -75 -69.5t-109 -26.5zM350 396q-45 0 -78.5 -29.5t-44.5 -85.5q-10 -57 13.5 -86.5t68.5 -29.5q44 0 78.5 30t44.5 86q10 55 -14 85t-68 30z" />
    <glyph glyph-name="h" unicode="h" horiz-adv-x="686" 
d="M479 566q97 0 141 -64t24 -176l-57 -326h-196l53 301q9 50 -11.5 77t-63.5 27q-42 0 -72 -25t-41 -71l-54 -309h-197l130 740h197l-48 -272q32 43 81.5 70.5t113.5 27.5z" />
    <glyph glyph-name="i" unicode="i" horiz-adv-x="304" 
d="M114 716q8 43 44 72t90 29q53 0 78.5 -29t17.5 -72q-7 -42 -43 -70t-89 -28q-54 0 -79.5 28t-18.5 70zM300 561l-99 -561h-197l99 561h197z" />
    <glyph glyph-name="j" unicode="j" horiz-adv-x="305" 
d="M218 618q-53 0 -79 28t-19 70q8 43 44 72t90 29q53 0 78.5 -29t17.5 -72q-7 -42 -43 -70t-89 -28zM-97 -100h42q47 0 54 44l109 617h197l-109 -614q-10 -60 -33.5 -101.5t-56.5 -66.5t-74.5 -36t-88.5 -11h-69z" />
    <glyph glyph-name="k" unicode="k" horiz-adv-x="641" 
d="M413 286l165 -286h-226l-111 238l-42 -238h-197l131 740h196l-68 -389l190 210h230z" />
    <glyph glyph-name="l" unicode="l" horiz-adv-x="301" 
d="M332 740l-130 -740h-197l130 740h197z" />
    <glyph glyph-name="m" unicode="m" horiz-adv-x="1067" 
d="M842 566q107 0 154.5 -64t27.5 -176l-57 -326h-196l53 301q8 45 -13 70t-63 25t-71.5 -23.5t-38.5 -67.5l-54 -305h-196l54 301q8 45 -13.5 70t-63.5 25q-43 0 -73 -25t-38 -73v4l-53 -302h-196l98 561h197l-15 -85q29 39 76.5 64.5t107.5 25.5q63 0 106 -28t61 -80
q36 47 89.5 77.5t116.5 30.5z" />
    <glyph glyph-name="n" unicode="n" horiz-adv-x="687" 
d="M479 566q97 0 141 -64t24 -176l-57 -326h-196l53 301q8 50 -12.5 77t-63.5 27q-44 0 -74.5 -28t-39.5 -79v4l-53 -302h-196l98 561h197l-16 -93q32 43 81.5 70.5t113.5 27.5z" />
    <glyph glyph-name="o" unicode="o" horiz-adv-x="639" 
d="M365 568q64 0 115.5 -21t85.5 -60.5t47 -96t0 -127.5q-11 -63 -42 -113.5t-75.5 -85t-100.5 -53t-117 -18.5q-65 0 -117.5 21t-86.5 60.5t-47.5 96t-0.5 127.5q11 63 42.5 113.5t76.5 85t101.5 53t118.5 18.5zM340 398q-37 0 -70.5 -28t-44.5 -89q-10 -61 13.5 -89.5
t60.5 -28.5q38 0 71 28.5t44 89.5t-12.5 89t-61.5 28z" />
    <glyph glyph-name="p" unicode="p" horiz-adv-x="680" 
d="M467 568q50 0 89.5 -19.5t65 -56.5t34.5 -90t-3 -121t-39.5 -121.5t-66 -90.5t-85 -56.5t-96.5 -19.5q-62 0 -99 26t-50 70l-63 -357h-197l146 829h197l-16 -89q28 44 75 70t108 26zM331 165q45 0 79 29.5t44 86.5q10 56 -13.5 85.5t-68.5 29.5q-44 0 -78 -30t-44 -85
q-11 -56 13 -86t68 -30z" />
    <glyph glyph-name="q" unicode="q" horiz-adv-x="675" 
d="M675 561l-146 -829h-196l61 344q-36 -40 -76.5 -61t-90.5 -21q-58 0 -101 21.5t-69 61t-34.5 95t3.5 123.5q11 66 39.5 116.5t68.5 84.5t87.5 51.5t97.5 17.5q53 0 90 -16t59 -53l11 65h196zM348 395q-18 0 -37.5 -7t-36.5 -21t-30.5 -36.5t-18.5 -53.5
q-6 -31 -0.5 -52.5t18 -34.5t30 -19t35.5 -6q17 0 36.5 6.5t36.5 20.5t30.5 36t18.5 53t-0.5 52.5t-18 35t-29.5 20t-34 6.5z" />
    <glyph glyph-name="r" unicode="r" horiz-adv-x="451" 
d="M282 457q41 48 95 78.5t112 30.5l-37 -210h-56q-61 0 -101 -24t-51 -90l-43 -242h-196l98 561h197z" />
    <glyph glyph-name="s" unicode="s" horiz-adv-x="565" 
d="M292 568q63 0 110 -15t78.5 -41.5t48.5 -62.5t21 -78h-193q-2 31 -24.5 45.5t-57.5 14.5q-23 0 -38 -7t-18 -23q-3 -21 20.5 -32t60.5 -21t80 -22t77.5 -34.5t53.5 -58.5t8 -94q-6 -31 -24.5 -57.5t-49.5 -46t-74.5 -31t-99.5 -11.5q-57 0 -104 13t-81.5 38t-54.5 61.5
t-23 84.5h193q-2 -32 23.5 -46.5t62.5 -14.5q27 0 39.5 9t15.5 23q4 22 -19 33.5t-59.5 20.5t-79 20.5t-76.5 33t-53 57.5t-8 94q5 30 23 57t48.5 47.5t73.5 32t100 11.5z" />
    <glyph glyph-name="t" unicode="t" horiz-adv-x="424" 
d="M261 216q-5 -26 5 -37t37 -11h54l-31 -168h-80q-48 0 -86 11t-63 36.5t-34 68t2 104.5l32 177h-73l29 164h73l24 136h196l-24 -136h102l-29 -164h-102z" />
    <glyph glyph-name="u" unicode="u" horiz-adv-x="676" 
d="M671 561l-98 -561h-197l16 93q-32 -43 -81.5 -70.5t-113.5 -27.5q-97 0 -141 64.5t-24 176.5l57 325h196l-53 -301q-8 -49 12.5 -76t63.5 -27q44 0 74.5 27.5t39.5 79.5v-5l53 302h196z" />
    <glyph glyph-name="v" unicode="v" horiz-adv-x="625" 
d="M283 189l172 372h210l-293 -561h-244l-94 561h209z" />
    <glyph glyph-name="w" unicode="w" horiz-adv-x="873" 
d="M923 561l-238 -561h-221l-23 347l-148 -347h-221l-38 561h195l-5 -375l154 375h209l26 -378l128 378h182z" />
    <glyph glyph-name="x" unicode="x" horiz-adv-x="619" 
d="M415 274l152 -274h-220l-80 143l-107 -143h-216l239 294l-148 267h220l79 -142l107 142h217z" />
    <glyph glyph-name="y" unicode="y" horiz-adv-x="647" 
d="M247 561l65 -314l167 314h217l-501 -829h-216l189 292l-139 537h218z" />
    <glyph glyph-name="z" unicode="z" horiz-adv-x="504" 
d="M216 163h246l-29 -163h-461l27 155l270 243h-223l29 163h448l-28 -154z" />
    <glyph glyph-name="braceleft" unicode="{" horiz-adv-x="486" 
d="M223 371q53 -11 74 -43t11 -90q-9 -50 -25 -94t-26 -98q-9 -53 -5 -94.5t17.5 -72t35 -51t46.5 -31.5l-3 -14h-201q-13 6 -32.5 23.5t-36 49t-24 79t4.5 114.5q11 55 27.5 99t25.5 95q3 17 1 33.5t-11 30t-26 22.5t-44 10l11 66q29 2 49.5 10.5t34 22t20.5 30t10 33.5
q5 26 6 49t1.5 46t2 47.5t6.5 51.5q12 67 36.5 114.5t51.5 79t53 49t41 23.5h201l-3 -14q-29 -11 -57.5 -31.5t-53 -51t-43.5 -72t-28 -94.5q-4 -27 -6 -51t-2.5 -47t-2 -46t-5.5 -48q-11 -58 -42.5 -90t-89.5 -43v-2z" />
    <glyph glyph-name="bar" unicode="|" horiz-adv-x="253" 
d="M140 -137h-197l170 959h197z" />
    <glyph glyph-name="braceright" unicode="}" horiz-adv-x="466" 
d="M266 373q-54 11 -75.5 38t-13.5 78q9 49 25.5 93.5t26.5 98.5q9 50 5.5 93.5t-16.5 78t-33.5 59t-46.5 35.5l2 14h201q13 -6 32.5 -23.5t35.5 -49t23.5 -79t-4.5 -114.5q-5 -27 -12 -51.5t-14.5 -47.5t-14 -46t-11.5 -49q-3 -17 -1 -34.5t11 -31.5t26 -22.5t44 -7.5
l-11 -66q-27 2 -47.5 -6.5t-34.5 -23t-22 -32t-11 -34.5q-4 -25 -5.5 -48.5t-2 -46.5t-2 -47.5t-6.5 -51.5q-12 -67 -36 -114.5t-51.5 -79t-53 -49t-40.5 -23.5h-200l2 14q30 11 59 35.5t54.5 59t44 78.5t27.5 93q5 27 6.5 51t2.5 47.5t2.5 46.5t5.5 47q8 51 40 78t89 38v2z
" />
    <glyph glyph-name="asciitilde" unicode="~" horiz-adv-x="674" 
d="M260 435q35 0 61.5 -10.5t48.5 -23t41.5 -23t41.5 -10.5q26 0 43 16.5t28 52.5h148q-42 -128 -110.5 -185t-149.5 -57q-34 0 -60.5 10.5t-48 23t-41.5 23t-42 10.5q-27 0 -44 -16.5t-29 -52.5h-146q44 128 111.5 185t147.5 57z" />
    <glyph glyph-name="exclamdown" unicode="&#xa1;" horiz-adv-x="433" 
d="M134 377l36 192h211l-36 -192h-211zM22 -180l116 482h177l-65 -482h-228z" />
    <glyph glyph-name="cent" unicode="&#xa2;" horiz-adv-x="580" 
d="M319 357q-41 0 -69.5 -26.5t-36.5 -75.5t10 -75t60 -26q23 0 48 13t36 39h180q-12 -46 -36.5 -82.5t-58.5 -62.5t-74.5 -42t-83.5 -21l-15 -82h-82l15 82q-104 11 -155.5 77t-31.5 181q10 57 34.5 102t60.5 77.5t82 51.5t100 25l14 81h82l-14 -81q42 -5 77 -20.5
t59.5 -41.5t36.5 -62.5t7 -82.5h-180q-4 28 -23 40t-42 12z" />
    <glyph glyph-name="sterling" unicode="&#xa3;" horiz-adv-x="644" 
d="M463 530q2 32 -11 53t-47 21q-33 0 -53.5 -21.5t-27.5 -60.5q-5 -23 -2 -51t7 -59h172l-24 -131h-149q-8 -29 -28.5 -66.5t-61.5 -67.5h340l-28 -152h-532l-7 93q54 38 86 82.5t45 110.5h-108l23 131h80q-3 29 -3 63t7 70q9 52 34.5 92.5t63 68.5t85.5 43t102 15
q62 0 106 -17.5t70.5 -49t37 -74.5t4.5 -93h-181z" />
    <glyph glyph-name="currency" unicode="&#xa4;" horiz-adv-x="590" 
d="M496 491q15 -22 20.5 -50t-0.5 -62q-12 -67 -58 -111l42 -51l-85 -72l-53 65q-45 -15 -97 -15q-27 0 -51.5 4t-44.5 12l-78 -66l-58 72l63 53q-14 22 -18.5 49.5t1.5 59.5q12 65 56 109l-45 55l85 72l57 -69q47 14 97 14q49 0 89 -14l81 69l58 -72zM229 377
q-6 -37 11.5 -53t43.5 -16t49.5 16t29.5 53q8 38 -10 54.5t-44 16.5t-49.5 -16.5t-30.5 -54.5z" />
    <glyph glyph-name="yen" unicode="&#xa5;" horiz-adv-x="709" 
d="M578 439h89l-22 -128h-155l-31 -44h179l-24 -129h-199l-24 -138h-196l23 138h-200l23 129h178l-15 44h-156l22 128h90l-91 269h225l72 -300l177 300h222z" />
    <glyph glyph-name="brokenbar" unicode="&#xa6;" horiz-adv-x="402" 
d="M187 822h197l-74 -420h-197zM214 -137h-196l74 421h197z" />
    <glyph glyph-name="section" unicode="&#xa7;" horiz-adv-x="591" 
d="M386 522q5 35 -4.5 50t-29.5 15q-14 0 -24.5 -8t-13.5 -26q-3 -15 2.5 -28t20.5 -26.5t41.5 -29t65.5 -35.5q63 -33 98 -77t24 -106q-8 -45 -36.5 -82.5t-93.5 -63.5q29 -32 39 -69.5t3 -77.5t-28.5 -73.5t-55.5 -57.5t-80 -37.5t-103 -13.5q-55 0 -94.5 15.5t-64.5 42.5
t-35 64.5t-6 81.5h194q-5 -36 4.5 -50.5t29.5 -14.5q14 0 24.5 8t14.5 25q3 16 -3 29.5t-21.5 27t-41.5 29t-65 35.5q-63 32 -97.5 76.5t-23.5 105.5q8 45 37 84.5t92 62.5q-29 32 -39 69.5t-2 76.5q7 40 28 73.5t55 57.5t80.5 37.5t103.5 13.5q54 0 93.5 -15.5t64.5 -42.5
t35 -64.5t6 -81.5h-194zM357 251q5 28 -6.5 47.5t-41.5 19.5q-29 0 -48.5 -19t-24.5 -48t7 -47.5t41 -18.5t48.5 19t24.5 47z" />
    <glyph glyph-name="dieresis" unicode="&#xa8;" horiz-adv-x="405" 
d="M77 699q6 35 32 57.5t60 22.5t53 -22.5t13 -57.5q-7 -33 -33 -55.5t-61 -22.5q-33 0 -52 22.5t-12 55.5zM290 699q6 35 32.5 57.5t59.5 22.5q35 0 53.5 -22.5t12.5 -57.5q-6 -33 -32.5 -55.5t-60.5 -22.5t-52.5 22.5t-12.5 55.5z" />
    <glyph glyph-name="copyright" unicode="&#xa9;" 
d="M452 718q79 0 139 -26.5t98.5 -74.5t52 -114t-0.5 -146q-14 -79 -51 -145.5t-92 -114.5t-125 -75t-149 -27t-139 27t-98.5 75t-52.5 114.5t0 145.5q14 80 51.5 146t92.5 114t125 74.5t149 26.5zM442 659q-67 0 -125 -21.5t-102.5 -61t-74.5 -95.5t-42 -124t-2 -124
t40.5 -95.5t80.5 -61.5t117 -22t124.5 22t102.5 61.5t75 95.5t42 124t2 124t-41 95.5t-80.5 61t-116.5 21.5zM431 580q-49 0 -93 -15.5t-79 -44.5t-59 -70t-33 -93t0 -93.5t34 -70.5t63.5 -44.5t88.5 -15.5q39 0 76.5 12t70 35t57 56t38.5 74h-164q-9 -20 -25 -33.5
t-39 -13.5q-28 0 -42 22.5t-5 70.5q8 48 29.5 71t49.5 23q23 0 34.5 -13.5t13.5 -33.5h164q1 41 -12.5 74t-37.5 56t-57.5 35t-72.5 12z" />
    <glyph glyph-name="ordfeminine" unicode="&#xaa;" horiz-adv-x="458" 
d="M218 712q44 0 69 -15.5t38 -45.5l10 56h146l-62 -352h-146l10 56q-24 -30 -53.5 -45.5t-73.5 -15.5q-35 0 -63.5 11.5t-46.5 34.5t-24.5 56.5t1.5 77.5t26 77.5t44 57t58 35.5t67 12zM249 596q-26 0 -48.5 -17.5t-27.5 -49.5q-6 -32 10.5 -47t42.5 -15q28 0 50 16.5
t28 48.5q5 31 -11 47.5t-44 16.5z" />
    <glyph glyph-name="guillemotleft" unicode="&#xab;" horiz-adv-x="588" 
d="M95 120l-50 175l112 175h179l-114 -175l52 -175h-179zM336 120l-50 175l112 175h179l-113 -175l51 -175h-179z" />
    <glyph glyph-name="logicalnot" unicode="&#xac;" horiz-adv-x="783" 
d="M745 445l-49 -277h-196l23 129h-498l25 148h695z" />
    <glyph glyph-name="registered" unicode="&#xae;" horiz-adv-x="815" 
d="M472 718q83 0 147 -26.5t105 -74t56 -114t1 -146.5q-14 -79 -52.5 -145.5t-96 -114.5t-131 -75t-157.5 -27q-83 0 -147 27t-105 75t-56.5 114.5t-1.5 145.5q14 80 53 146.5t96.5 114t131 74t157.5 26.5zM718 357q12 69 0.5 125t-44.5 95t-86.5 60.5t-125.5 21.5
t-133.5 -21.5t-108.5 -60.5t-78.5 -95t-43.5 -125q-12 -68 -0.5 -123.5t44.5 -95.5t86.5 -61.5t125.5 -21.5t133.5 21.5t108.5 61.5t78.5 95.5t43.5 123.5zM472 574q43 0 71 -11t44 -29.5t20.5 -42t-0.5 -47.5q-7 -39 -34 -73t-78 -49l68 -171h-131l-61 161h-5l-28 -161
h-121l75 423h180zM379 387h48q27 0 39 11t15 28t-5.5 28t-35.5 11h-47z" />
    <glyph glyph-name="macron" unicode="&#xaf;" horiz-adv-x="443" 
d="M501 758l-23 -131h-416l23 131h416z" />
    <glyph glyph-name="degree" unicode="&#xb0;" horiz-adv-x="479" 
d="M272 712q97 0 147.5 -47.5t35.5 -133.5q-7 -42 -28 -76t-52.5 -58t-73 -37t-89.5 -13t-86.5 13t-63.5 37t-35 58t-3 76q8 43 29.5 76.5t53.5 57t74 35.5t91 12zM255 609q-25 0 -49 -18.5t-32 -60.5q-7 -41 12 -59.5t44 -18.5q23 0 44.5 18t29.5 60t-9 60.5t-40 18.5z" />
    <glyph glyph-name="plusminus" unicode="&#xb1;" horiz-adv-x="556" 
d="M379 350l-14 -76h161l-31 -179h-511l31 179h162l13 76h-161l31 178h161l18 103h189l-18 -103h161l-31 -178h-161z" />
    <glyph glyph-name="uni00B2" unicode="&#xb2;" horiz-adv-x="407" 
d="M263 716q42 0 69.5 -9.5t43 -25t20 -34.5t1.5 -38q-6 -38 -43 -65.5t-112 -56.5l-57 -23h179l-19 -112h-330l19 108l146 75q55 30 61 62q3 17 -15 17q-25 0 -34 -41h-145q16 62 72 102.5t144 40.5z" />
    <glyph glyph-name="uni00B3" unicode="&#xb3;" horiz-adv-x="390" 
d="M234 716q76 0 113 -29t29 -76q-12 -63 -87 -75l-1 -4q43 -11 58 -30.5t9 -51.5q-8 -49 -56.5 -75t-125.5 -26q-52 0 -85.5 9t-52 26t-25 40.5t-3.5 52.5h153q-2 -16 2.5 -21.5t15.5 -5.5t18 6t10 22q4 17 -4 24t-25 7h-34l8 50h27q33 0 39 32q2 11 -1.5 17.5t-14.5 6.5
q-24 0 -30 -33h-139q5 25 18 49t37 43t60 30.5t87 11.5z" />
    <glyph glyph-name="acute" unicode="&#xb4;" horiz-adv-x="278" 
d="M313 673l-200 -64l-19 68l187 94z" />
    <glyph glyph-name="uni00B5" unicode="&#xb5;" horiz-adv-x="691" 
d="M688 561l-99 -561h-197l15 86q-29 -39 -76 -65t-108 -26q-10 0 -21 3l-47 -266h-196l147 829h196l-53 -295q-8 -48 13 -74.5t65 -26.5q40 0 69.5 23t40.5 65l54 308h197z" />
    <glyph glyph-name="paragraph" unicode="&#xb6;" horiz-adv-x="742" 
d="M604 0h-158l98 558h-64l-98 -558h-156l47 269h-28q-64 0 -106 18.5t-65 49t-29.5 70t0.5 80.5t27 80.5t54.5 70t83 49t112.5 18.5h405z" />
    <glyph glyph-name="periodcentered" unicode="&#xb7;" horiz-adv-x="282" 
d="M261 405l-34 -192h-199l34 192h199z" />
    <glyph glyph-name="cedilla" unicode="&#xb8;" horiz-adv-x="331" 
d="M205 -35q20 0 41.5 -5.5t38.5 -19t26 -36.5t3 -57q-6 -33 -23 -55.5t-40.5 -36t-50 -19t-51.5 -5.5h-160l18 101h139q33 0 38 22q3 21 -30 21h-79l23 132h115z" />
    <glyph glyph-name="uni00B9" unicode="&#xb9;" horiz-adv-x="269" 
d="M34 591l20 113h210l-62 -352h-146l42 239h-64z" />
    <glyph glyph-name="ordmasculine" unicode="&#xba;" horiz-adv-x="445" 
d="M264 709q48 0 84.5 -13.5t59 -37.5t31.5 -57t2 -72t-27.5 -72t-52 -57.5t-72.5 -38.5t-90 -14q-48 0 -84.5 14t-59 38.5t-31 57.5t-1.5 72t27 72t51.5 57t72.5 37.5t90 13.5zM244 597q-26 0 -46 -16.5t-27 -51.5q-6 -35 8 -52.5t40 -17.5t46 17.5t27 52.5q6 35 -8 51.5
t-40 16.5z" />
    <glyph glyph-name="guillemotright" unicode="&#xbb;" horiz-adv-x="588" 
d="M134 295l-53 175h180l49 -175l-111 -175h-180zM375 295l-53 175h180l49 -175l-110 -175h-181z" />
    <glyph glyph-name="onequarter" unicode="&#xbc;" horiz-adv-x="853" 
d="M734 708l-507 -708h-193l508 708h192zM23 591l20 113h210l-62 -352h-146l42 239h-64zM776 60h-37l-10 -60h-147l10 60h-199l14 76l183 216h201l-38 -212h38zM635 257l-90 -113h70z" />
    <glyph glyph-name="onehalf" unicode="&#xbd;" horiz-adv-x="886" 
d="M749 710l-516 -710h-193l518 710h191zM115 591h-64l20 113h210l-62 -352h-146zM697 363q42 0 69.5 -9.5t43 -25t20 -34.5t1.5 -38q-6 -38 -43 -65.5t-112 -56.5l-57 -23h179l-19 -112h-330l19 108l146 75q55 30 61 62q3 17 -15 17q-25 0 -34 -41h-145q16 62 72 102.5
t144 40.5z" />
    <glyph glyph-name="threequarters" unicode="&#xbe;" horiz-adv-x="963" 
d="M263 716q76 0 113 -29t29 -76q-12 -63 -87 -75l-1 -4q43 -11 58 -30.5t9 -51.5q-8 -49 -56.5 -75t-125.5 -26q-52 0 -85.5 9t-52 26t-25 40.5t-3.5 52.5h153q-2 -16 2.5 -21.5t15.5 -5.5t18 6t10 22q4 17 -4 24t-25 7h-34l8 50h27q33 0 39 32q2 11 -1.5 17.5t-14.5 6.5
q-24 0 -30 -33h-139q5 25 18 49t37 43t60 30.5t87 11.5zM838 710l-493 -710h-191l491 710h193zM894 60h-37l-10 -60h-146l10 60h-200l13 76l167 216h218l-38 -212h38zM756 275l-93 -135h70z" />
    <glyph glyph-name="questiondown" unicode="&#xbf;" horiz-adv-x="529" 
d="M271 377l34 192h198l-33 -192h-199zM196 -196q-53 0 -94.5 13.5t-68.5 40t-37.5 67t-0.5 94.5q8 47 30.5 83.5t56.5 62t77 39.5t92 15l14 81h185l-37 -206h-75q-61 0 -102 -15t-49 -59q-5 -27 8 -42t36 -15q29 0 45.5 17.5t21.5 43.5h185q-7 -45 -28.5 -85t-57.5 -70
t-86 -47.5t-115 -17.5z" />
    <glyph glyph-name="Agrave" unicode="&#xc0;" horiz-adv-x="752" 
d="M546 748l-173 72l44 100l166 -99zM460 118h-251l-60 -118h-207l383 705h226l135 -705h-208zM436 266l-35 229l-117 -229h152z" />
    <glyph glyph-name="Aacute" unicode="&#xc1;" horiz-adv-x="752" 
d="M376 756l-19 68l187 94l32 -98zM460 118h-251l-60 -118h-207l383 705h226l135 -705h-208zM436 266l-35 229l-117 -229h152z" />
    <glyph glyph-name="Acircumflex" unicode="&#xc2;" horiz-adv-x="752" 
d="M340 749l-20 79l148 72l122 -72l-39 -79l-97 53zM460 118h-251l-60 -118h-207l383 705h226l135 -705h-208zM436 266l-35 229l-117 -229h152z" />
    <glyph glyph-name="Atilde" unicode="&#xc3;" horiz-adv-x="752" 
d="M388 798q-31 0 -45 -40h-80q26 74 62.5 104.5t84.5 30.5q20 0 35 -6t28 -13.5t24 -13.5t24 -6q32 0 45 40h81q-26 -74 -63 -104t-85 -30q-20 0 -35 6t-28 13t-24 13t-24 6zM460 118h-251l-60 -118h-207l383 705h226l135 -705h-208zM436 266l-35 229l-117 -229h152z" />
    <glyph glyph-name="Adieresis" unicode="&#xc4;" horiz-adv-x="752" 
d="M347 768q-33 0 -52 22.5t-12 55.5q6 35 32 57.5t60 22.5t53 -22.5t13 -57.5q-7 -33 -33 -55.5t-61 -22.5zM561 768q-34 0 -52.5 22.5t-12.5 55.5q6 35 32.5 57.5t59.5 22.5q35 0 53.5 -22.5t12.5 -57.5q-6 -33 -32.5 -55.5t-60.5 -22.5zM460 118h-251l-60 -118h-207
l383 705h226l135 -705h-208zM436 266l-35 229l-117 -229h152z" />
    <glyph glyph-name="Aring" unicode="&#xc5;" horiz-adv-x="752" 
d="M439 743q-53 0 -84 33.5t-20 93.5q5 29 19 52.5t34 40t45 25t51 8.5q53 0 84 -33.5t20 -92.5q-5 -30 -19 -53.5t-34 -40t-45 -25t-51 -8.5zM413 870q-5 -23 7 -37t33 -14t37 14t21 37q4 23 -8 36.5t-33 13.5t-37 -13.5t-20 -36.5zM460 118h-251l-60 -118h-207l383 705
h226l135 -705h-208zM436 266l-35 229l-117 -229h152z" />
    <glyph glyph-name="AE" unicode="&#xc6;" horiz-adv-x="967" 
d="M715 551l-20 -115h221l-26 -148h-221l-23 -131h251l-28 -157h-447l19 109h-216l-72 -109h-214l475 708h579l-27 -157h-251zM467 258l52 295l-195 -295h143z" />
    <glyph glyph-name="Ccedilla" unicode="&#xc7;" horiz-adv-x="755" 
d="M346 176q48 0 87.5 24t65.5 66h207q-40 -106 -121.5 -176.5t-193.5 -88.5l-7 -36q20 0 41.5 -5.5t38.5 -19t26 -36.5t3 -57q-6 -33 -23 -55.5t-40.5 -36t-50 -19t-51.5 -5.5h-160l18 101h139q33 0 38 22q3 21 -30 21h-79l21 122q-69 7 -120.5 36.5t-82.5 76.5t-41 109.5
t3 135.5q14 79 49.5 145t89 114t122.5 74.5t149 26.5q69 0 123 -19.5t91.5 -55t57.5 -85.5t21 -111h-208q-10 42 -41 65.5t-79 23.5q-66 0 -113.5 -48.5t-62.5 -129.5q-14 -82 16.5 -130.5t96.5 -48.5z" />
    <glyph glyph-name="Egrave" unicode="&#xc8;" horiz-adv-x="546" 
d="M498 821l-37 -73l-173 72l44 100zM286 551l-21 -117h230l-27 -149h-229l-22 -128h259l-28 -157h-456l124 708h456l-27 -157h-259z" />
    <glyph glyph-name="Eacute" unicode="&#xc9;" horiz-adv-x="546" 
d="M491 820l-200 -64l-19 68l187 94zM286 551l-21 -117h230l-27 -149h-229l-22 -128h259l-28 -157h-456l124 708h456l-27 -157h-259z" />
    <glyph glyph-name="Ecircumflex" unicode="&#xca;" horiz-adv-x="546" 
d="M369 802l-114 -53l-20 79l148 72l122 -72l-39 -79zM286 551l-21 -117h230l-27 -149h-229l-22 -128h259l-28 -157h-456l124 708h456l-27 -157h-259z" />
    <glyph glyph-name="Edieresis" unicode="&#xcb;" horiz-adv-x="546" 
d="M181 846q6 35 32 57.5t60 22.5t53 -22.5t13 -57.5q-7 -33 -33 -55.5t-61 -22.5q-33 0 -52 22.5t-12 55.5zM394 846q6 35 32.5 57.5t59.5 22.5q35 0 53.5 -22.5t12.5 -57.5q-6 -33 -32.5 -55.5t-60.5 -22.5t-52.5 22.5t-12.5 55.5zM286 551l-21 -117h230l-27 -149h-229
l-22 -128h259l-28 -157h-456l124 708h456l-27 -157h-259z" />
    <glyph glyph-name="Igrave" unicode="&#xcc;" horiz-adv-x="306" 
d="M377 821l-37 -73l-173 72l44 100zM313 708l-124 -708h-197l124 708h197z" />
    <glyph glyph-name="Iacute" unicode="&#xcd;" horiz-adv-x="306" 
d="M370 820l-200 -64l-19 68l187 94zM313 708l-124 -708h-197l124 708h197z" />
    <glyph glyph-name="Icircumflex" unicode="&#xce;" horiz-adv-x="306" 
d="M248 802l-114 -53l-20 79l148 72l122 -72l-39 -79zM313 708l-124 -708h-197l124 708h197z" />
    <glyph glyph-name="Idieresis" unicode="&#xcf;" horiz-adv-x="306" 
d="M61 846q6 35 32 57.5t60 22.5t53 -22.5t13 -57.5q-7 -33 -33 -55.5t-61 -22.5q-33 0 -52 22.5t-12 55.5zM274 846q6 35 32.5 57.5t59.5 22.5q35 0 53.5 -22.5t12.5 -57.5q-6 -33 -32.5 -55.5t-60.5 -22.5t-52.5 22.5t-12.5 55.5zM313 708l-124 -708h-197l124 708h197z
" />
    <glyph glyph-name="Eth" unicode="&#xd0;" horiz-adv-x="743" 
d="M403 708q86 0 149.5 -26t103 -72.5t53.5 -111.5t0 -142q-13 -77 -50 -142t-93 -112.5t-128.5 -74.5t-158.5 -27h-282l49 277h-58l27 157h58l48 274h282zM510 356q16 87 -26 133.5t-129 46.5h-67l-18 -102h143l-27 -157h-144l-18 -101h67q88 0 145.5 46t73.5 134z" />
    <glyph glyph-name="Ntilde" unicode="&#xd1;" horiz-adv-x="763" 
d="M433 893q20 0 35 -6t28 -13.5t24 -13.5t24 -6q32 0 45 40h81q-26 -74 -63 -104t-85 -30q-20 0 -35 6t-28 13t-24 13t-24 6q-31 0 -45 -40h-80q26 74 62.5 104.5t84.5 30.5zM646 0h-197l-191 395l-69 -395h-197l124 707h197l191 -400l69 400h197z" />
    <glyph glyph-name="Ograve" unicode="&#xd2;" 
d="M584 821l-37 -73l-173 72l44 100zM426 719q87 0 152.5 -29.5t106 -82t55 -126t-0.5 -160.5q-13 -72 -46 -132t-83 -103.5t-116 -68t-144 -24.5q-89 0 -155 29.5t-106.5 82t-54.5 126t2 160.5q13 72 46 132.5t83.5 104t116.5 67.5t144 24zM411 537q-72 0 -121 -46.5
t-63 -125.5q-14 -86 21 -137.5t117 -51.5q72 0 120.5 47t62.5 125q16 87 -20 138t-117 51z" />
    <glyph glyph-name="Oacute" unicode="&#xd3;" 
d="M577 820l-200 -64l-19 68l187 94zM426 719q87 0 152.5 -29.5t106 -82t55 -126t-0.5 -160.5q-13 -72 -46 -132t-83 -103.5t-116 -68t-144 -24.5q-89 0 -155 29.5t-106.5 82t-54.5 126t2 160.5q13 72 46 132.5t83.5 104t116.5 67.5t144 24zM411 537q-72 0 -121 -46.5
t-63 -125.5q-14 -86 21 -137.5t117 -51.5q72 0 120.5 47t62.5 125q16 87 -20 138t-117 51z" />
    <glyph glyph-name="Ocircumflex" unicode="&#xd4;" 
d="M455 802l-114 -53l-20 79l148 72l122 -72l-39 -79zM426 719q87 0 152.5 -29.5t106 -82t55 -126t-0.5 -160.5q-13 -72 -46 -132t-83 -103.5t-116 -68t-144 -24.5q-89 0 -155 29.5t-106.5 82t-54.5 126t2 160.5q13 72 46 132.5t83.5 104t116.5 67.5t144 24zM411 537
q-72 0 -121 -46.5t-63 -125.5q-14 -86 21 -137.5t117 -51.5q72 0 120.5 47t62.5 125q16 87 -20 138t-117 51z" />
    <glyph glyph-name="Otilde" unicode="&#xd5;" 
d="M411 893q20 0 35 -6t28 -13.5t24 -13.5t24 -6q32 0 45 40h81q-26 -74 -63 -104t-85 -30q-20 0 -35 6t-28 13t-24 13t-24 6q-31 0 -45 -40h-80q26 74 62.5 104.5t84.5 30.5zM426 719q87 0 152.5 -29.5t106 -82t55 -126t-0.5 -160.5q-13 -72 -46 -132t-83 -103.5t-116 -68
t-144 -24.5q-89 0 -155 29.5t-106.5 82t-54.5 126t2 160.5q13 72 46 132.5t83.5 104t116.5 67.5t144 24zM411 537q-72 0 -121 -46.5t-63 -125.5q-14 -86 21 -137.5t117 -51.5q72 0 120.5 47t62.5 125q16 87 -20 138t-117 51z" />
    <glyph glyph-name="Odieresis" unicode="&#xd6;" 
d="M288 846q6 35 32 57.5t60 22.5t53 -22.5t13 -57.5q-7 -33 -33 -55.5t-61 -22.5q-33 0 -52 22.5t-12 55.5zM501 846q6 35 32.5 57.5t59.5 22.5q35 0 53.5 -22.5t12.5 -57.5q-6 -33 -32.5 -55.5t-60.5 -22.5t-52.5 22.5t-12.5 55.5zM426 719q87 0 152.5 -29.5t106 -82
t55 -126t-0.5 -160.5q-13 -72 -46 -132t-83 -103.5t-116 -68t-144 -24.5q-89 0 -155 29.5t-106.5 82t-54.5 126t2 160.5q13 72 46 132.5t83.5 104t116.5 67.5t144 24zM411 537q-72 0 -121 -46.5t-63 -125.5q-14 -86 21 -137.5t117 -51.5q72 0 120.5 47t62.5 125
q16 87 -20 138t-117 51z" />
    <glyph glyph-name="multiply" unicode="&#xd7;" horiz-adv-x="567" 
d="M419 354l111 -134l-153 -129l-110 133l-154 -132l-105 126l155 133l-105 128l153 128l104 -126l146 126l106 -126z" />
    <glyph glyph-name="Oslash" unicode="&#xd8;" horiz-adv-x="789" 
d="M696 589q34 -52 45 -119.5t-3 -148.5q-13 -72 -46 -132t-83 -103.5t-116 -68t-144 -24.5q-69 0 -124 18t-96 50l-64 -60h-105l121 112q-37 53 -49 123t3 155q13 72 46 132.5t83.5 104t116.5 67.5t144 24q72 0 128 -20t98 -56l73 68h103zM226 365q-11 -67 7 -110l272 253
q-35 29 -95 29q-72 0 -121 -46.5t-63 -125.5zM547 348q10 57 -2 100l-268 -249q34 -23 87 -23q72 0 120.5 47t62.5 125z" />
    <glyph glyph-name="Ugrave" unicode="&#xd9;" horiz-adv-x="708" 
d="M579 821l-37 -73l-173 72l44 100zM309 708l-71 -404q-11 -58 9 -91.5t76 -33.5t88 33.5t43 91.5l71 404h195l-70 -404q-14 -78 -48.5 -136t-83 -97t-108 -58.5t-124.5 -19.5t-116 19.5t-84 58.5t-45 97t1 136l71 404h196z" />
    <glyph glyph-name="Uacute" unicode="&#xda;" horiz-adv-x="708" 
d="M572 820l-200 -64l-19 68l187 94zM309 708l-71 -404q-11 -58 9 -91.5t76 -33.5t88 33.5t43 91.5l71 404h195l-70 -404q-14 -78 -48.5 -136t-83 -97t-108 -58.5t-124.5 -19.5t-116 19.5t-84 58.5t-45 97t1 136l71 404h196z" />
    <glyph glyph-name="Ucircumflex" unicode="&#xdb;" horiz-adv-x="708" 
d="M450 802l-114 -53l-20 79l148 72l122 -72l-39 -79zM309 708l-71 -404q-11 -58 9 -91.5t76 -33.5t88 33.5t43 91.5l71 404h195l-70 -404q-14 -78 -48.5 -136t-83 -97t-108 -58.5t-124.5 -19.5t-116 19.5t-84 58.5t-45 97t1 136l71 404h196z" />
    <glyph glyph-name="Udieresis" unicode="&#xdc;" horiz-adv-x="708" 
d="M253 846q6 35 32 57.5t60 22.5t53 -22.5t13 -57.5q-7 -33 -33 -55.5t-61 -22.5q-33 0 -52 22.5t-12 55.5zM466 846q6 35 32.5 57.5t59.5 22.5q35 0 53.5 -22.5t12.5 -57.5q-6 -33 -32.5 -55.5t-60.5 -22.5t-52.5 22.5t-12.5 55.5zM309 708l-71 -404q-11 -58 9 -91.5
t76 -33.5t88 33.5t43 91.5l71 404h195l-70 -404q-14 -78 -48.5 -136t-83 -97t-108 -58.5t-124.5 -19.5t-116 19.5t-84 58.5t-45 97t1 136l71 404h196z" />
    <glyph glyph-name="Yacute" unicode="&#xdd;" horiz-adv-x="704" 
d="M369 756l-19 68l187 94l32 -98zM762 708l-335 -483l-39 -225h-197l39 225l-164 483h225l77 -270l172 270h222z" />
    <glyph glyph-name="Thorn" unicode="&#xde;" horiz-adv-x="634" 
d="M212 129l-23 -129h-197l124 708h195l-21 -125h98q66 0 112.5 -17t74 -47t36.5 -72t0 -92q-8 -48 -32 -89t-62 -71.5t-90.5 -48t-117.5 -17.5h-97zM313 276q47 0 70 22t29 57q7 35 -8.5 56.5t-63.5 21.5h-75l-27 -157h75z" />
    <glyph glyph-name="germandbls" unicode="&#xdf;" horiz-adv-x="741" 
d="M584 410q75 -45 106 -104t15 -144q-6 -35 -24 -66t-47 -54t-68 -36t-88 -13q-109 0 -165.5 59t-46.5 160h160q-2 -26 10 -37t32 -11q22 0 33.5 11.5t14.5 27.5q4 23 -7 37t-42 36l-133 91l14 66l17 9q41 24 46 62q5 28 -8.5 46t-45.5 18q-34 0 -57 -19.5t-30 -58.5
l-85 -490h-197l89 497q21 121 104.5 187t223.5 66q63 0 108 -15.5t72 -41t36.5 -58.5t3.5 -68q-6 -36 -33 -66t-72 -52z" />
    <glyph glyph-name="agrave" unicode="&#xe0;" horiz-adv-x="682" 
d="M540 674l-37 -73l-173 72l44 100zM306 568q65 0 105.5 -26t53.5 -70l16 89h196l-100 -561h-195l16 89q-29 -44 -76 -70t-108 -26q-53 0 -93.5 21t-65.5 60t-32.5 95.5t5.5 128.5q11 64 38 114t64.5 84.5t82.5 53t93 18.5zM350 396q-45 0 -79 -29.5t-44 -85.5
q-10 -57 13.5 -86.5t68.5 -29.5q43 0 77.5 30t44.5 86q10 55 -13.5 85t-67.5 30z" />
    <glyph glyph-name="aacute" unicode="&#xe1;" horiz-adv-x="682" 
d="M533 673l-200 -64l-19 68l187 94zM306 568q65 0 105.5 -26t53.5 -70l16 89h196l-100 -561h-195l16 89q-29 -44 -76 -70t-108 -26q-53 0 -93.5 21t-65.5 60t-32.5 95.5t5.5 128.5q11 64 38 114t64.5 84.5t82.5 53t93 18.5zM350 396q-45 0 -79 -29.5t-44 -85.5
q-10 -57 13.5 -86.5t68.5 -29.5q43 0 77.5 30t44.5 86q10 55 -13.5 85t-67.5 30z" />
    <glyph glyph-name="acircumflex" unicode="&#xe2;" horiz-adv-x="682" 
d="M411 655l-114 -53l-20 79l148 72l122 -72l-39 -79zM306 568q65 0 105.5 -26t53.5 -70l16 89h196l-100 -561h-195l16 89q-29 -44 -76 -70t-108 -26q-53 0 -93.5 21t-65.5 60t-32.5 95.5t5.5 128.5q11 64 38 114t64.5 84.5t82.5 53t93 18.5zM350 396q-45 0 -79 -29.5
t-44 -85.5q-10 -57 13.5 -86.5t68.5 -29.5q43 0 77.5 30t44.5 86q10 55 -13.5 85t-67.5 30z" />
    <glyph glyph-name="atilde" unicode="&#xe3;" horiz-adv-x="682" 
d="M367 746q20 0 35 -6t28 -13.5t24 -13.5t24 -6q32 0 45 40h81q-26 -74 -63 -104t-85 -30q-20 0 -35 6t-28 13t-24 13t-24 6q-31 0 -45 -40h-80q26 74 62.5 104.5t84.5 30.5zM306 568q65 0 105.5 -26t53.5 -70l16 89h196l-100 -561h-195l16 89q-29 -44 -76 -70t-108 -26
q-53 0 -93.5 21t-65.5 60t-32.5 95.5t5.5 128.5q11 64 38 114t64.5 84.5t82.5 53t93 18.5zM350 396q-45 0 -79 -29.5t-44 -85.5q-10 -57 13.5 -86.5t68.5 -29.5q43 0 77.5 30t44.5 86q10 55 -13.5 85t-67.5 30z" />
    <glyph glyph-name="adieresis" unicode="&#xe4;" horiz-adv-x="680" 
d="M210 699q6 35 32 57.5t60 22.5t53 -22.5t13 -57.5q-7 -33 -33 -55.5t-61 -22.5q-33 0 -52 22.5t-12 55.5zM423 699q6 35 32.5 57.5t59.5 22.5q35 0 53.5 -22.5t12.5 -57.5q-6 -33 -32.5 -55.5t-60.5 -22.5t-52.5 22.5t-12.5 55.5zM306 568q65 0 105.5 -26t53.5 -70l16 89
h196l-100 -561h-195l16 89q-29 -44 -76 -70t-108 -26q-53 0 -93.5 21t-65.5 60t-32.5 95.5t5.5 128.5q11 64 38 114t64.5 84.5t82.5 53t93 18.5zM350 396q-45 0 -79 -29.5t-44 -85.5q-10 -57 13.5 -86.5t68.5 -29.5q43 0 77.5 30t44.5 86q10 55 -13.5 85t-67.5 30z" />
    <glyph glyph-name="aring" unicode="&#xe5;" horiz-adv-x="680" 
d="M394 849q53 0 84 -33.5t20 -92.5q-5 -30 -19 -53.5t-34 -40t-45 -25t-51 -8.5q-53 0 -84 33.5t-20 93.5q5 29 19 52.5t34 40t45 25t51 8.5zM380 773q-21 0 -37 -13.5t-20 -36.5q-5 -23 7 -37t33 -14t37 14t21 37q4 23 -8 36.5t-33 13.5zM306 568q65 0 105.5 -26t53.5 -70
l16 89h196l-100 -561h-195l16 89q-29 -44 -76 -70t-108 -26q-53 0 -93.5 21t-65.5 60t-32.5 95.5t5.5 128.5q11 64 38 114t64.5 84.5t82.5 53t93 18.5zM350 396q-45 0 -79 -29.5t-44 -85.5q-10 -57 13.5 -86.5t68.5 -29.5q43 0 77.5 30t44.5 86q10 55 -13.5 85t-67.5 30z
" />
    <glyph glyph-name="ae" unicode="&#xe6;" horiz-adv-x="1067" 
d="M851 568q53 0 93.5 -19.5t66 -55.5t33.5 -87.5t-3 -114.5q-5 -25 -13 -46h-403q-4 -55 20.5 -76t62.5 -21q37 0 61.5 14t36.5 39h208q-16 -45 -43 -83t-61 -65.5t-75 -43.5t-86 -16q-64 0 -104.5 25.5t-53.5 70.5l-16 -89h-196l16 89q-28 -44 -75 -70t-109 -26
q-50 0 -89.5 19.5t-65 56.5t-34.5 90.5t3 121.5t39.5 121t66 90t85 56.5t96.5 19.5q62 0 99.5 -26t50.5 -70l16 89h196l-16 -89q29 46 78 71t115 25zM848 327q5 23 -0.5 39t-18 27t-30.5 16t-39 5q-38 0 -71 -18.5t-49 -68.5h208zM429 281q10 55 -14 85t-68 30
q-45 0 -78.5 -29.5t-44.5 -85.5q-10 -57 13.5 -86.5t68.5 -29.5q44 0 78.5 30t44.5 86z" />
    <glyph glyph-name="ccedilla" unicode="&#xe7;" horiz-adv-x="612" 
d="M286 162q30 0 51 16t32 44h208q-33 -94 -101 -152t-158 -72l-6 -33q20 0 41.5 -5.5t38.5 -19t26 -36.5t3 -57q-6 -33 -23 -55.5t-40.5 -36t-50 -19t-51.5 -5.5h-160l18 101h139q33 0 38 22q3 21 -30 21h-79l21 123q-49 9 -87 33.5t-61.5 63t-31 89.5t3.5 114t40.5 113.5
t73 85t97.5 53t115 18.5q56 0 101.5 -15.5t77.5 -45t49.5 -71.5t17.5 -96h-208q-3 28 -18.5 44t-45.5 16q-34 0 -62 -29t-39 -90q-11 -62 7.5 -90.5t52.5 -28.5z" />
    <glyph glyph-name="egrave" unicode="&#xe8;" horiz-adv-x="618" 
d="M471 601l-173 72l44 100l166 -99zM359 568q63 0 112 -19.5t79.5 -55.5t42 -87.5t0.5 -114.5q-5 -25 -13 -46h-370q-3 -28 1 -46.5t13 -29t22.5 -15t29.5 -4.5q30 0 51 14.5t32 36.5h208q-16 -45 -45.5 -83t-69 -65.5t-89 -43.5t-105.5 -16q-62 0 -111 20.5t-80 58.5
t-42 93.5t1 124.5q12 65 42 116.5t74 87.5t99.5 55t117.5 19zM401 327q9 46 -13.5 66.5t-55.5 20.5q-38 0 -66 -21t-41 -66h176z" />
    <glyph glyph-name="eacute" unicode="&#xe9;" horiz-adv-x="618" 
d="M301 609l-19 68l187 94l32 -98zM359 568q63 0 112 -19.5t79.5 -55.5t42 -87.5t0.5 -114.5q-5 -25 -13 -46h-370q-3 -28 1 -46.5t13 -29t22.5 -15t29.5 -4.5q30 0 51 14.5t32 36.5h208q-16 -45 -45.5 -83t-69 -65.5t-89 -43.5t-105.5 -16q-62 0 -111 20.5t-80 58.5
t-42 93.5t1 124.5q12 65 42 116.5t74 87.5t99.5 55t117.5 19zM401 327q9 46 -13.5 66.5t-55.5 20.5q-38 0 -66 -21t-41 -66h176z" />
    <glyph glyph-name="ecircumflex" unicode="&#xea;" horiz-adv-x="618" 
d="M265 602l-20 79l148 72l122 -72l-39 -79l-97 53zM359 568q63 0 112 -19.5t79.5 -55.5t42 -87.5t0.5 -114.5q-5 -25 -13 -46h-370q-3 -28 1 -46.5t13 -29t22.5 -15t29.5 -4.5q30 0 51 14.5t32 36.5h208q-16 -45 -45.5 -83t-69 -65.5t-89 -43.5t-105.5 -16q-62 0 -111 20.5
t-80 58.5t-42 93.5t1 124.5q12 65 42 116.5t74 87.5t99.5 55t117.5 19zM401 327q9 46 -13.5 66.5t-55.5 20.5q-38 0 -66 -21t-41 -66h176z" />
    <glyph glyph-name="edieresis" unicode="&#xeb;" horiz-adv-x="616" 
d="M249 621q-33 0 -52 22.5t-12 55.5q6 35 32 57.5t60 22.5t53 -22.5t13 -57.5q-7 -33 -33 -55.5t-61 -22.5zM463 621q-34 0 -52.5 22.5t-12.5 55.5q6 35 32.5 57.5t59.5 22.5q35 0 53.5 -22.5t12.5 -57.5q-6 -33 -32.5 -55.5t-60.5 -22.5zM359 568q63 0 112 -19.5
t79.5 -55.5t42 -87.5t0.5 -114.5q-5 -25 -13 -46h-370q-3 -28 1 -46.5t13 -29t22.5 -15t29.5 -4.5q30 0 51 14.5t32 36.5h208q-16 -45 -45.5 -83t-69 -65.5t-89 -43.5t-105.5 -16q-62 0 -111 20.5t-80 58.5t-42 93.5t1 124.5q12 65 42 116.5t74 87.5t99.5 55t117.5 19z
M401 327q9 46 -13.5 66.5t-55.5 20.5q-38 0 -66 -21t-41 -66h176z" />
    <glyph glyph-name="igrave" unicode="&#xec;" horiz-adv-x="297" 
d="M347 674l-37 -73l-173 72l44 100zM296 561l-99 -561h-197l100 561h196z" />
    <glyph glyph-name="iacute" unicode="&#xed;" horiz-adv-x="297" 
d="M340 673l-200 -64l-19 68l187 94zM296 561l-99 -561h-197l100 561h196z" />
    <glyph glyph-name="icircumflex" unicode="&#xee;" horiz-adv-x="297" 
d="M218 655l-114 -53l-20 79l148 72l122 -72l-39 -79zM296 561l-99 -561h-197l100 561h196z" />
    <glyph glyph-name="idieresis" unicode="&#xef;" horiz-adv-x="306" 
d="M59 699q6 35 32 57.5t60 22.5t53 -22.5t13 -57.5q-7 -33 -33 -55.5t-61 -22.5q-33 0 -52 22.5t-12 55.5zM272 699q6 35 32.5 57.5t59.5 22.5q35 0 53.5 -22.5t12.5 -57.5q-6 -33 -32.5 -55.5t-60.5 -22.5t-52.5 22.5t-12.5 55.5zM296 561l-99 -561h-197l100 561h196z" />
    <glyph glyph-name="eth" unicode="&#xf0;" horiz-adv-x="635" 
d="M558 661q42 -75 59.5 -163t0.5 -182q-14 -79 -47.5 -139t-80.5 -100.5t-103.5 -61.5t-116.5 -21q-61 0 -112.5 20.5t-86 58t-49.5 91t-3 120.5q12 66 42.5 118.5t74.5 88.5t98 55.5t113 19.5q26 0 50.5 -7.5t44.5 -24.5q-11 45 -30 86l-101 -29l12 65l61 17
q-25 39 -53 67h172l21 -27l82 23l-11 -65zM411 281q6 32 1.5 54t-15.5 35.5t-26.5 20t-32.5 6.5q-18 0 -36.5 -6.5t-35 -20t-29 -35t-18.5 -52.5q-6 -32 -0.5 -54.5t18 -37t29.5 -21t34 -6.5q35 0 67.5 27t43.5 90z" />
    <glyph glyph-name="ntilde" unicode="&#xf1;" horiz-adv-x="687" 
d="M348 651q-31 0 -45 -40h-80q26 74 62.5 104.5t84.5 30.5q20 0 35 -6t28 -13.5t24 -13.5t24 -6q32 0 45 40h81q-26 -74 -63 -104t-85 -30q-20 0 -35 6t-28 13t-24 13t-24 6zM479 566q97 0 141 -64t24 -176l-57 -326h-196l53 301q8 50 -12.5 77t-63.5 27q-44 0 -74.5 -28
t-39.5 -79v4l-53 -302h-196l98 561h197l-16 -93q32 43 81.5 70.5t113.5 27.5z" />
    <glyph glyph-name="ograve" unicode="&#xf2;" horiz-adv-x="639" 
d="M518 674l-37 -73l-173 72l44 100zM365 568q64 0 115.5 -21t85.5 -60.5t47 -96t0 -127.5q-11 -63 -42 -113.5t-75.5 -85t-100.5 -53t-117 -18.5q-65 0 -117.5 21t-86.5 60.5t-47.5 96t-0.5 127.5q11 63 42.5 113.5t76.5 85t101.5 53t118.5 18.5zM340 398q-37 0 -70.5 -28
t-44.5 -89q-10 -61 13.5 -89.5t60.5 -28.5q38 0 71 28.5t44 89.5t-12.5 89t-61.5 28z" />
    <glyph glyph-name="oacute" unicode="&#xf3;" horiz-adv-x="639" 
d="M511 673l-200 -64l-19 68l187 94zM365 568q64 0 115.5 -21t85.5 -60.5t47 -96t0 -127.5q-11 -63 -42 -113.5t-75.5 -85t-100.5 -53t-117 -18.5q-65 0 -117.5 21t-86.5 60.5t-47.5 96t-0.5 127.5q11 63 42.5 113.5t76.5 85t101.5 53t118.5 18.5zM340 398q-37 0 -70.5 -28
t-44.5 -89q-10 -61 13.5 -89.5t60.5 -28.5q38 0 71 28.5t44 89.5t-12.5 89t-61.5 28z" />
    <glyph glyph-name="ocircumflex" unicode="&#xf4;" horiz-adv-x="639" 
d="M389 655l-114 -53l-20 79l148 72l122 -72l-39 -79zM365 568q64 0 115.5 -21t85.5 -60.5t47 -96t0 -127.5q-11 -63 -42 -113.5t-75.5 -85t-100.5 -53t-117 -18.5q-65 0 -117.5 21t-86.5 60.5t-47.5 96t-0.5 127.5q11 63 42.5 113.5t76.5 85t101.5 53t118.5 18.5zM340 398
q-37 0 -70.5 -28t-44.5 -89q-10 -61 13.5 -89.5t60.5 -28.5q38 0 71 28.5t44 89.5t-12.5 89t-61.5 28z" />
    <glyph glyph-name="otilde" unicode="&#xf5;" horiz-adv-x="639" 
d="M345 746q20 0 35 -6t28 -13.5t24 -13.5t24 -6q32 0 45 40h81q-26 -74 -63 -104t-85 -30q-20 0 -35 6t-28 13t-24 13t-24 6q-31 0 -45 -40h-80q26 74 62.5 104.5t84.5 30.5zM365 568q64 0 115.5 -21t85.5 -60.5t47 -96t0 -127.5q-11 -63 -42 -113.5t-75.5 -85t-100.5 -53
t-117 -18.5q-65 0 -117.5 21t-86.5 60.5t-47.5 96t-0.5 127.5q11 63 42.5 113.5t76.5 85t101.5 53t118.5 18.5zM340 398q-37 0 -70.5 -28t-44.5 -89q-10 -61 13.5 -89.5t60.5 -28.5q38 0 71 28.5t44 89.5t-12.5 89t-61.5 28z" />
    <glyph glyph-name="odieresis" unicode="&#xf6;" horiz-adv-x="638" 
d="M204 699q6 35 32 57.5t60 22.5t53 -22.5t13 -57.5q-7 -33 -33 -55.5t-61 -22.5q-33 0 -52 22.5t-12 55.5zM417 699q6 35 32.5 57.5t59.5 22.5q35 0 53.5 -22.5t12.5 -57.5q-6 -33 -32.5 -55.5t-60.5 -22.5t-52.5 22.5t-12.5 55.5zM365 568q64 0 115.5 -21t85.5 -60.5
t47 -96t0 -127.5q-11 -63 -42 -113.5t-75.5 -85t-100.5 -53t-117 -18.5q-65 0 -117.5 21t-86.5 60.5t-47.5 96t-0.5 127.5q11 63 42.5 113.5t76.5 85t101.5 53t118.5 18.5zM340 398q-37 0 -70.5 -28t-44.5 -89q-10 -61 13.5 -89.5t60.5 -28.5q38 0 71 28.5t44 89.5t-12.5 89
t-61.5 28z" />
    <glyph glyph-name="divide" unicode="&#xf7;" horiz-adv-x="556" 
d="M434 673l-34 -191h-199l34 191h199zM549 435l-31 -179h-511l31 179h511zM352 210l-34 -192h-198l33 192h199z" />
    <glyph glyph-name="oslash" unicode="&#xf8;" horiz-adv-x="624" 
d="M571 473q28 -39 38 -91.5t-2 -118.5q-11 -63 -42 -113.5t-75.5 -85t-100.5 -53t-117 -18.5q-103 0 -171 51l-48 -44h-93l97 88q-29 39 -39 91.5t2 118.5q11 63 42.5 113.5t76.5 85t101.5 53t118.5 18.5q51 0 93 -13t75 -37l47 43h93zM219 281q-5 -27 -2 -46l164 149
q-18 14 -47 14q-37 0 -70.5 -28t-44.5 -89zM408 281q5 27 2 45l-163 -149q19 -14 46 -14q38 0 71 28.5t44 89.5z" />
    <glyph glyph-name="ugrave" unicode="&#xf9;" horiz-adv-x="676" 
d="M500 601l-173 72l44 100l166 -99zM671 561l-98 -561h-197l16 93q-32 -43 -81.5 -70.5t-113.5 -27.5q-97 0 -141 64.5t-24 176.5l57 325h196l-53 -301q-8 -49 12.5 -76t63.5 -27q44 0 74.5 27.5t39.5 79.5v-5l53 302h196z" />
    <glyph glyph-name="uacute" unicode="&#xfa;" horiz-adv-x="676" 
d="M330 609l-19 68l187 94l32 -98zM671 561l-98 -561h-197l16 93q-32 -43 -81.5 -70.5t-113.5 -27.5q-97 0 -141 64.5t-24 176.5l57 325h196l-53 -301q-8 -49 12.5 -76t63.5 -27q44 0 74.5 27.5t39.5 79.5v-5l53 302h196z" />
    <glyph glyph-name="ucircumflex" unicode="&#xfb;" horiz-adv-x="676" 
d="M294 602l-20 79l148 72l122 -72l-39 -79l-97 53zM671 561l-98 -561h-197l16 93q-32 -43 -81.5 -70.5t-113.5 -27.5q-97 0 -141 64.5t-24 176.5l57 325h196l-53 -301q-8 -49 12.5 -76t63.5 -27q44 0 74.5 27.5t39.5 79.5v-5l53 302h196z" />
    <glyph glyph-name="udieresis" unicode="&#xfc;" horiz-adv-x="685" 
d="M288 621q-33 0 -52 22.5t-12 55.5q6 35 32 57.5t60 22.5t53 -22.5t13 -57.5q-7 -33 -33 -55.5t-61 -22.5zM502 621q-34 0 -52.5 22.5t-12.5 55.5q6 35 32.5 57.5t59.5 22.5q35 0 53.5 -22.5t12.5 -57.5q-6 -33 -32.5 -55.5t-60.5 -22.5zM671 561l-98 -561h-197l16 93
q-32 -43 -81.5 -70.5t-113.5 -27.5q-97 0 -141 64.5t-24 176.5l57 325h196l-53 -301q-8 -49 12.5 -76t63.5 -27q44 0 74.5 27.5t39.5 79.5v-5l53 302h196z" />
    <glyph glyph-name="yacute" unicode="&#xfd;" horiz-adv-x="647" 
d="M516 673l-200 -64l-19 68l187 94zM247 561l65 -314l167 314h217l-501 -829h-216l189 292l-139 537h218z" />
    <glyph glyph-name="thorn" unicode="&#xfe;" horiz-adv-x="678" 
d="M453 565q54 0 96 -21t68.5 -59t36 -91t-0.5 -117q-11 -70 -39 -123.5t-66 -88.5t-84.5 -53t-94.5 -18q-113 0 -155 82l-61 -344h-196l177 1008h197l-43 -244q33 36 73.5 52.5t91.5 16.5zM332 165q18 0 37 6t36 19t29.5 34.5t18.5 52.5q5 31 0 53.5t-17 36.5t-28.5 21
t-34.5 7t-37.5 -6.5t-36.5 -20t-30 -35t-19 -52.5q-5 -31 0.5 -53t17.5 -36t29 -20.5t35 -6.5z" />
    <glyph glyph-name="ydieresis" unicode="&#xff;" horiz-adv-x="655" 
d="M205 699q6 35 32 57.5t60 22.5t53 -22.5t13 -57.5q-7 -33 -33 -55.5t-61 -22.5q-33 0 -52 22.5t-12 55.5zM418 699q6 35 32.5 57.5t59.5 22.5q35 0 53.5 -22.5t12.5 -57.5q-6 -33 -32.5 -55.5t-60.5 -22.5t-52.5 22.5t-12.5 55.5zM247 561l65 -314l167 314h217l-501 -829
h-216l189 292l-139 537h218z" />
    <glyph glyph-name="Amacron" unicode="&#x100;" horiz-adv-x="752" 
d="M666 774h-416l23 131h416zM551 705l135 -705h-208l-18 118h-251l-60 -118h-207l383 705h226zM436 266l-35 229l-117 -229h152z" />
    <glyph glyph-name="amacron" unicode="&#x101;" horiz-adv-x="680" 
d="M600 758l-23 -131h-416l23 131h416zM306 568q65 0 105.5 -26t53.5 -70l16 89h196l-100 -561h-195l16 89q-29 -44 -76 -70t-108 -26q-53 0 -93.5 21t-65.5 60t-32.5 95.5t5.5 128.5q11 64 38 114t64.5 84.5t82.5 53t93 18.5zM350 396q-45 0 -79 -29.5t-44 -85.5
q-10 -57 13.5 -86.5t68.5 -29.5q43 0 77.5 30t44.5 86q10 55 -13.5 85t-67.5 30z" />
    <glyph glyph-name="Abreve" unicode="&#x102;" horiz-adv-x="752" 
d="M429 749q-64 0 -100 40.5t-22 119.5l2 13h76q-4 -26 9.5 -41t54.5 -15q42 0 61 15t23 41h77l-3 -13q-14 -80 -63 -120t-115 -40zM460 118h-251l-60 -118h-207l383 705h226l135 -705h-208zM436 266l-35 229l-117 -229h152z" />
    <glyph glyph-name="abreve" unicode="&#x103;" horiz-adv-x="682" 
d="M386 602q-64 0 -100 40.5t-22 119.5l2 13h76q-4 -26 9.5 -41t54.5 -15q42 0 61 15t23 41h77l-3 -13q-14 -80 -63 -120t-115 -40zM306 568q65 0 105.5 -26t53.5 -70l16 89h196l-100 -561h-195l16 89q-29 -44 -76 -70t-108 -26q-53 0 -93.5 21t-65.5 60t-32.5 95.5
t5.5 128.5q11 64 38 114t64.5 84.5t82.5 53t93 18.5zM350 396q-45 0 -79 -29.5t-44 -85.5q-10 -57 13.5 -86.5t68.5 -29.5q43 0 77.5 30t44.5 86q10 55 -13.5 85t-67.5 30z" />
    <glyph glyph-name="Aogonek" unicode="&#x104;" horiz-adv-x="752" 
d="M723 -114l-18 -101h-156q-25 0 -50 6t-43.5 19.5t-27.5 36t-3 56.5q5 31 22.5 55.5t49.5 42.5l-19 117h-251l-60 -118h-207l384 705h226l131 -692l-14 -81h-91q-16 0 -26.5 -6t-12.5 -17t6 -17t24 -6h136zM455 266l-36 229l-117 -229h153z" />
    <glyph glyph-name="aogonek" unicode="&#x105;" horiz-adv-x="680" 
d="M441 -89q-2 -11 6 -18t24 -7h136l-18 -101h-156q-25 0 -50 6t-43.5 20t-27.5 37t-3 57q7 38 27.5 62t46.5 37l15 85q-29 -44 -76 -70t-108 -26q-53 0 -93.5 21t-65.5 60t-32.5 95.5t5.5 128.5q11 64 38 114t64.5 84.5t82.5 53t93 18.5q65 0 105.5 -26t53.5 -70l16 89h196
l-96 -539h6l-16 -90h-91q-16 0 -26.5 -5t-12.5 -16zM309 165q43 0 77.5 30t44.5 86q10 55 -13.5 85t-67.5 30q-45 0 -79 -29.5t-44 -85.5q-10 -57 13.5 -86.5t68.5 -29.5z" />
    <glyph glyph-name="Cacute" unicode="&#x106;" horiz-adv-x="755" 
d="M595 820l-200 -64l-19 68l187 94zM444 715q69 0 123 -19.5t91.5 -55t57.5 -85.5t21 -111h-208q-10 42 -41 65.5t-79 23.5q-66 0 -113.5 -48.5t-62.5 -129.5q-14 -82 16.5 -130.5t96.5 -48.5q48 0 87.5 24t65.5 66h207q-23 -61 -60.5 -111t-87 -85.5t-110.5 -55
t-130 -19.5q-80 0 -139.5 26.5t-96.5 74.5t-49.5 114t1.5 145t49.5 145t89 114t122.5 74.5t149 26.5z" />
    <glyph glyph-name="cacute" unicode="&#x107;" horiz-adv-x="618" 
d="M501 673l-200 -64l-19 68l187 94zM353 568q56 0 101.5 -15.5t77.5 -45t49.5 -71.5t17.5 -96h-208q-3 28 -18.5 44t-45.5 16q-34 0 -62 -29t-39 -90q-11 -62 7.5 -90.5t52.5 -28.5q30 0 51 16t32 44h208q-19 -54 -50.5 -96.5t-72.5 -72t-90 -45t-103 -15.5q-63 0 -112 21
t-80.5 60.5t-43 96t1.5 127.5q11 63 40.5 113.5t73 85t97.5 53t115 18.5z" />
    <glyph glyph-name="Cdotaccent" unicode="&#x10a;" horiz-adv-x="755" 
d="M392 846q6 35 32.5 57.5t59.5 22.5q34 0 53 -22.5t13 -57.5q-7 -33 -33 -55.5t-61 -22.5q-33 0 -52 22.5t-12 55.5zM444 715q69 0 123 -19.5t91.5 -55t57.5 -85.5t21 -111h-208q-10 42 -41 65.5t-79 23.5q-66 0 -113.5 -48.5t-62.5 -129.5q-14 -82 16.5 -130.5
t96.5 -48.5q48 0 87.5 24t65.5 66h207q-23 -61 -60.5 -111t-87 -85.5t-110.5 -55t-130 -19.5q-80 0 -139.5 26.5t-96.5 74.5t-49.5 114t1.5 145t49.5 145t89 114t122.5 74.5t149 26.5z" />
    <glyph glyph-name="cdotaccent" unicode="&#x10b;" horiz-adv-x="612" 
d="M287 699q6 35 32.5 57.5t59.5 22.5q34 0 53 -22.5t13 -57.5q-7 -33 -33 -55.5t-61 -22.5q-33 0 -52 22.5t-12 55.5zM353 568q56 0 101.5 -15.5t77.5 -45t49.5 -71.5t17.5 -96h-208q-3 28 -18.5 44t-45.5 16q-34 0 -62 -29t-39 -90q-11 -62 7.5 -90.5t52.5 -28.5
q30 0 51 16t32 44h208q-19 -54 -50.5 -96.5t-72.5 -72t-90 -45t-103 -15.5q-63 0 -112 21t-80.5 60.5t-43 96t1.5 127.5q11 63 40.5 113.5t73 85t97.5 53t115 18.5z" />
    <glyph glyph-name="Ccaron" unicode="&#x10c;" horiz-adv-x="754" 
d="M626 827l-175 -85l-146 85l22 128l146 -87l175 87zM444 715q69 0 123 -19.5t91.5 -55t57.5 -85.5t21 -111h-208q-10 42 -41 65.5t-79 23.5q-66 0 -113.5 -48.5t-62.5 -129.5q-14 -82 16.5 -130.5t96.5 -48.5q48 0 87.5 24t65.5 66h207q-23 -61 -60.5 -111t-87 -85.5
t-110.5 -55t-130 -19.5q-80 0 -139.5 26.5t-96.5 74.5t-49.5 114t1.5 145t49.5 145t89 114t122.5 74.5t149 26.5z" />
    <glyph glyph-name="ccaron" unicode="&#x10d;" horiz-adv-x="612" 
d="M521 680l-175 -85l-146 85l22 128l146 -87l175 87zM353 568q56 0 101.5 -15.5t77.5 -45t49.5 -71.5t17.5 -96h-208q-3 28 -18.5 44t-45.5 16q-34 0 -62 -29t-39 -90q-11 -62 7.5 -90.5t52.5 -28.5q30 0 51 16t32 44h208q-19 -54 -50.5 -96.5t-72.5 -72t-90 -45
t-103 -15.5q-63 0 -112 21t-80.5 60.5t-43 96t1.5 127.5q11 63 40.5 113.5t73 85t97.5 53t115 18.5z" />
    <glyph glyph-name="Dcaron" unicode="&#x10e;" horiz-adv-x="738" 
d="M618 827l-175 -85l-146 85l22 128l146 -87l175 87zM704 356q-13 -77 -50 -142t-93 -112.5t-128.5 -74.5t-158.5 -27h-282l124 708h282q86 0 149.5 -26t103 -72.5t53.5 -111.5t0 -142zM286 176q88 0 145.5 46t73.5 134q16 87 -26 133.5t-129 46.5h-67l-64 -360h67z" />
    <glyph glyph-name="dcaron" unicode="&#x10f;" horiz-adv-x="833" 
d="M714 740l-131 -740h-196l16 89q-28 -44 -75 -70t-108 -26q-50 0 -90 21t-65.5 60t-34.5 95.5t4 128.5q11 64 38 114t64.5 84.5t82.5 53t93 18.5q65 0 105 -26t53 -70l48 268h196zM881 740q6 -33 6 -65t-5 -61q-6 -35 -20.5 -65t-37.5 -52t-54 -34.5t-70 -12.5l13 71
q53 0 66 71l2 14h-67l23 134h144zM356 396q-45 0 -79 -29.5t-44 -85.5q-10 -57 13.5 -86.5t68.5 -29.5q43 0 77.5 30t44.5 86q10 55 -13.5 85t-67.5 30z" />
    <glyph glyph-name="Dcroat" unicode="&#x110;" horiz-adv-x="743" 
d="M403 708q86 0 149.5 -26t103 -72.5t53.5 -111.5t0 -142q-13 -77 -50 -142t-93 -112.5t-128.5 -74.5t-158.5 -27h-282l49 277h-58l27 157h58l48 274h282zM510 356q16 87 -26 133.5t-129 46.5h-67l-18 -102h143l-27 -157h-144l-18 -101h67q88 0 145.5 46t73.5 134z" />
    <glyph glyph-name="dcroat" unicode="&#x111;" horiz-adv-x="677" 
d="M726 599h-37l-106 -599h-196l16 89q-28 -44 -75 -70t-108 -26q-50 0 -90 21t-65.5 60t-34.5 95.5t4 128.5q11 64 38 114t64.5 84.5t82.5 53t93 18.5q65 0 105 -26t53 -70l23 127h-106l16 87h105l10 54h196l-10 -54h37zM437 281q10 55 -13.5 85t-67.5 30q-45 0 -79 -29.5
t-44 -85.5q-10 -57 13.5 -86.5t68.5 -29.5q43 0 77.5 30t44.5 86z" />
    <glyph glyph-name="Emacron" unicode="&#x112;" horiz-adv-x="546" 
d="M588 905l-23 -131h-416l23 131h416zM286 551l-21 -117h230l-27 -149h-229l-22 -128h259l-28 -157h-456l124 708h456l-27 -157h-259z" />
    <glyph glyph-name="emacron" unicode="&#x113;" horiz-adv-x="616" 
d="M569 627h-416l23 131h416zM359 568q63 0 112 -19.5t79.5 -55.5t42 -87.5t0.5 -114.5q-5 -25 -13 -46h-370q-3 -28 1 -46.5t13 -29t22.5 -15t29.5 -4.5q30 0 51 14.5t32 36.5h208q-16 -45 -45.5 -83t-69 -65.5t-89 -43.5t-105.5 -16q-62 0 -111 20.5t-80 58.5t-42 93.5
t1 124.5q12 65 42 116.5t74 87.5t99.5 55t117.5 19zM401 327q9 46 -13.5 66.5t-55.5 20.5q-38 0 -66 -21t-41 -66h176z" />
    <glyph glyph-name="Ebreve" unicode="&#x114;" horiz-adv-x="546" 
d="M344 749q-64 0 -100 40.5t-22 119.5l2 13h76q-4 -26 9.5 -41t54.5 -15q42 0 61 15t23 41h77l-3 -13q-14 -80 -63 -120t-115 -40zM286 551l-21 -117h230l-27 -149h-229l-22 -128h259l-28 -157h-456l124 708h456l-27 -157h-259z" />
    <glyph glyph-name="ebreve" unicode="&#x115;" horiz-adv-x="618" 
d="M354 602q-64 0 -100 40.5t-22 119.5l2 13h76q-4 -26 9.5 -41t54.5 -15q42 0 61 15t23 41h77l-3 -13q-14 -80 -63 -120t-115 -40zM359 568q63 0 112 -19.5t79.5 -55.5t42 -87.5t0.5 -114.5q-5 -25 -13 -46h-370q-3 -28 1 -46.5t13 -29t22.5 -15t29.5 -4.5q30 0 51 14.5
t32 36.5h208q-16 -45 -45.5 -83t-69 -65.5t-89 -43.5t-105.5 -16q-62 0 -111 20.5t-80 58.5t-42 93.5t1 124.5q12 65 42 116.5t74 87.5t99.5 55t117.5 19zM401 327q9 46 -13.5 66.5t-55.5 20.5q-38 0 -66 -21t-41 -66h176z" />
    <glyph glyph-name="Edotaccent" unicode="&#x116;" horiz-adv-x="546" 
d="M288 846q6 35 32.5 57.5t59.5 22.5q34 0 53 -22.5t13 -57.5q-7 -33 -33 -55.5t-61 -22.5q-33 0 -52 22.5t-12 55.5zM286 551l-21 -117h230l-27 -149h-229l-22 -128h259l-28 -157h-456l124 708h456l-27 -157h-259z" />
    <glyph glyph-name="edotaccent" unicode="&#x117;" horiz-adv-x="616" 
d="M356 621q-33 0 -52 22.5t-12 55.5q6 35 32.5 57.5t59.5 22.5q34 0 53 -22.5t13 -57.5q-7 -33 -33 -55.5t-61 -22.5zM359 568q63 0 112 -19.5t79.5 -55.5t42 -87.5t0.5 -114.5q-5 -25 -13 -46h-370q-3 -28 1 -46.5t13 -29t22.5 -15t29.5 -4.5q30 0 51 14.5t32 36.5h208
q-16 -45 -45.5 -83t-69 -65.5t-89 -43.5t-105.5 -16q-62 0 -111 20.5t-80 58.5t-42 93.5t1 124.5q12 65 42 116.5t74 87.5t99.5 55t117.5 19zM401 327q9 46 -13.5 66.5t-55.5 20.5q-38 0 -66 -21t-41 -66h176z" />
    <glyph glyph-name="Eogonek" unicode="&#x118;" horiz-adv-x="546" 
d="M286 551l-21 -117h230l-27 -149h-229l-22 -128h259l-28 -157h-4v-2h-91q-16 0 -26.5 -5t-12.5 -16t6 -18t24 -7h136l-18 -101h-156q-25 0 -50 6t-43.5 20t-27.5 37t-3 57q2 8 4 15l4 14h-198l124 708h456l-27 -157h-259z" />
    <glyph glyph-name="eogonek" unicode="&#x119;" horiz-adv-x="618" 
d="M372 568q63 0 112 -19.5t80 -55.5t42.5 -87.5t-0.5 -114.5q-2 -12 -5 -23.5t-7 -22.5h-371q-3 -27 1.5 -45t14.5 -29.5t23 -16t28 -4.5q31 0 51 14.5t31 36.5h208q-27 -73 -89 -127t-144 -72q-10 -2 -16.5 -6.5t-8.5 -14.5q-2 -11 7 -18t32 -7h117l-17 -101h-146
q-26 0 -51 6t-43.5 20t-27.5 36.5t-3 56.5l5 29q-91 21 -134 93t-23 185q12 67 42 120.5t74 90.5t99.5 56.5t118.5 19.5zM414 327q9 46 -13.5 66.5t-55.5 20.5q-37 0 -65.5 -21t-41.5 -66h176z" />
    <glyph glyph-name="Ecaron" unicode="&#x11a;" horiz-adv-x="546" 
d="M521 827l-175 -85l-146 85l22 128l146 -87l175 87zM286 551l-21 -117h230l-27 -149h-229l-22 -128h259l-28 -157h-456l124 708h456l-27 -157h-259z" />
    <glyph glyph-name="ecaron" unicode="&#x11b;" horiz-adv-x="617" 
d="M351 595l-146 85l22 128l146 -87l175 87l-22 -128zM359 568q63 0 112 -19.5t79.5 -55.5t42 -87.5t0.5 -114.5q-5 -25 -13 -46h-370q-3 -28 1 -46.5t13 -29t22.5 -15t29.5 -4.5q30 0 51 14.5t32 36.5h208q-16 -45 -45.5 -83t-69 -65.5t-89 -43.5t-105.5 -16
q-62 0 -111 20.5t-80 58.5t-42 93.5t1 124.5q12 65 42 116.5t74 87.5t99.5 55t117.5 19zM401 327q9 46 -13.5 66.5t-55.5 20.5q-38 0 -66 -21t-41 -66h176z" />
    <glyph glyph-name="Gbreve" unicode="&#x11e;" horiz-adv-x="757" 
d="M449 749q-64 0 -100 40.5t-22 119.5l2 13h76q-4 -26 9.5 -41t54.5 -15q42 0 61 15t23 41h77l-3 -13q-14 -80 -63 -120t-115 -40zM452 714q69 0 121 -18.5t88 -51.5t55 -77.5t22 -96.5h-208q-10 28 -37 45.5t-71 17.5q-73 0 -123.5 -48.5t-65.5 -129.5q-32 -187 146 -187
q49 0 91.5 23.5t73.5 71.5h-196l24 140h360l-34 -195q-23 -45 -56.5 -83.5t-79 -67.5t-104 -45.5t-130.5 -16.5q-82 0 -144 27t-100 76t-51 116.5t1 148.5q14 77 50 141.5t90.5 111t125 72.5t152.5 26z" />
    <glyph glyph-name="gbreve" unicode="&#x11f;" horiz-adv-x="678" 
d="M384 602q-64 0 -100 40.5t-22 119.5l2 13h76q-4 -26 9.5 -41t54.5 -15q42 0 61 15t23 41h77l-3 -13q-14 -80 -63 -120t-115 -40zM214 -7q-50 0 -90 21t-65.5 60t-34.5 95.5t4 128.5q11 64 38 114t64.5 84.5t83 53t93.5 18.5q65 0 105.5 -26t52.5 -70l17 89h195l-98 -555
q-10 -56 -34 -107t-64 -89.5t-96 -61.5t-129 -23q-131 0 -198.5 62t-68.5 166h193q5 -58 82 -58q20 0 39 5t35 18t27.5 34.5t17.5 53.5l15 83q-28 -43 -75 -69.5t-109 -26.5zM350 396q-45 0 -78.5 -29.5t-44.5 -85.5q-10 -57 13.5 -86.5t68.5 -29.5q44 0 78.5 30t44.5 86
q10 55 -14 85t-68 30z" />
    <glyph glyph-name="Gdotaccent" unicode="&#x120;" horiz-adv-x="757" 
d="M385 846q6 35 32.5 57.5t59.5 22.5q34 0 53 -22.5t13 -57.5q-7 -33 -33 -55.5t-61 -22.5q-33 0 -52 22.5t-12 55.5zM452 714q69 0 121 -18.5t88 -51.5t55 -77.5t22 -96.5h-208q-10 28 -37 45.5t-71 17.5q-73 0 -123.5 -48.5t-65.5 -129.5q-32 -187 146 -187
q49 0 91.5 23.5t73.5 71.5h-196l24 140h360l-34 -195q-23 -45 -56.5 -83.5t-79 -67.5t-104 -45.5t-130.5 -16.5q-82 0 -144 27t-100 76t-51 116.5t1 148.5q14 77 50 141.5t90.5 111t125 72.5t152.5 26z" />
    <glyph glyph-name="gdotaccent" unicode="&#x121;" horiz-adv-x="679" 
d="M336 699q6 35 32.5 57.5t59.5 22.5q34 0 53 -22.5t13 -57.5q-7 -33 -33 -55.5t-61 -22.5q-33 0 -52 22.5t-12 55.5zM214 -7q-50 0 -90 21t-65.5 60t-34.5 95.5t4 128.5q11 64 38 114t64.5 84.5t83 53t93.5 18.5q65 0 105.5 -26t52.5 -70l17 89h195l-98 -555
q-10 -56 -34 -107t-64 -89.5t-96 -61.5t-129 -23q-131 0 -198.5 62t-68.5 166h193q5 -58 82 -58q20 0 39 5t35 18t27.5 34.5t17.5 53.5l15 83q-28 -43 -75 -69.5t-109 -26.5zM350 396q-45 0 -78.5 -29.5t-44.5 -85.5q-10 -57 13.5 -86.5t68.5 -29.5q44 0 78.5 30t44.5 86
q10 55 -14 85t-68 30z" />
    <glyph glyph-name="Gcommaaccent" unicode="&#x122;" horiz-adv-x="761" 
d="M451 714q69 0 121 -18.5t88 -51.5t55 -77.5t22 -96.5h-208q-10 28 -37 45.5t-71 17.5q-73 0 -123.5 -48.5t-65.5 -129.5q-32 -187 146 -187q49 0 91.5 23.5t73.5 71.5h-196l24 140h360l-34 -195q-23 -45 -56.5 -83.5t-79 -67.5t-104 -45.5t-130.5 -16.5q-82 0 -144 27
t-100 76t-51 116.5t1 148.5q14 77 50 141.5t90.5 111t125 72.5t152.5 26zM410 -38q6 -32 6.5 -62.5t-4.5 -59.5q-6 -35 -21 -65t-37.5 -52.5t-53.5 -35t-70 -12.5l12 71q26 0 42.5 17t24.5 55l2 11h-67l23 133h143z" />
    <glyph glyph-name="gcommaaccent" unicode="&#x123;" horiz-adv-x="678" 
d="M343 598q-7 34 -6 66t6 61q6 35 20.5 64.5t37 52t53.5 35t70 12.5l-13 -71q-53 0 -66 -71l-2 -13h67l-24 -136h-143zM198 -7q-50 0 -90 21t-65.5 60t-34.5 95.5t4 128.5q11 64 38 114t64.5 84.5t83 53t93.5 18.5q65 0 105.5 -26t52.5 -70l17 89h195l-98 -555
q-10 -56 -34 -107t-64 -89.5t-96 -61.5t-129 -23q-131 0 -198.5 62t-68.5 166h193q5 -58 82 -58q20 0 39 5t35 18t27.5 34.5t17.5 53.5l15 83q-28 -43 -75 -69.5t-109 -26.5zM334 396q-45 0 -78.5 -29.5t-44.5 -85.5q-10 -57 13.5 -86.5t68.5 -29.5q44 0 78.5 30t44.5 86
q10 55 -14 85t-68 30z" />
    <glyph glyph-name="Itilde" unicode="&#x128;" horiz-adv-x="306" 
d="M204 893q20 0 35 -6t28 -13.5t24 -13.5t24 -6q32 0 45 40h81q-26 -74 -63 -104t-85 -30q-20 0 -35 6t-28 13t-24 13t-24 6q-31 0 -45 -40h-80q26 74 62.5 104.5t84.5 30.5zM313 708l-124 -708h-197l124 708h197z" />
    <glyph glyph-name="itilde" unicode="&#x129;" horiz-adv-x="297" 
d="M174 746q20 0 35 -6t28 -13.5t24 -13.5t24 -6q32 0 45 40h81q-26 -74 -63 -104t-85 -30q-20 0 -35 6t-28 13t-24 13t-24 6q-31 0 -45 -40h-80q26 74 62.5 104.5t84.5 30.5zM296 561l-99 -561h-197l100 561h196z" />
    <glyph glyph-name="Imacron" unicode="&#x12a;" horiz-adv-x="306" 
d="M468 905l-23 -131h-416l23 131h416zM313 708l-124 -708h-197l124 708h197z" />
    <glyph glyph-name="imacron" unicode="&#x12b;" horiz-adv-x="314" 
d="M448 758l-23 -131h-416l23 131h416zM296 561l-99 -561h-197l100 561h196z" />
    <glyph glyph-name="Ibreve" unicode="&#x12c;" horiz-adv-x="306" 
d="M223 749q-64 0 -100 40.5t-22 119.5l2 13h76q-4 -26 9.5 -41t54.5 -15q42 0 61 15t23 41h77l-3 -13q-14 -80 -63 -120t-115 -40zM313 708l-124 -708h-197l124 708h197z" />
    <glyph glyph-name="ibreve" unicode="&#x12d;" horiz-adv-x="297" 
d="M193 602q-64 0 -100 40.5t-22 119.5l2 13h76q-4 -26 9.5 -41t54.5 -15q42 0 61 15t23 41h77l-3 -13q-14 -80 -63 -120t-115 -40zM296 561l-99 -561h-197l100 561h196z" />
    <glyph glyph-name="Iogonek" unicode="&#x12e;" horiz-adv-x="305" 
d="M47 -89q-2 -11 6 -18t24 -7h136l-18 -101h-156q-25 0 -50 6t-43.5 20t-27.5 37t-3 57q8 40 29.5 64t48.5 37l123 702h197l-120 -686l-16 -90h-91q-16 0 -26.5 -5t-12.5 -16z" />
    <glyph glyph-name="iogonek" unicode="&#x12f;" horiz-adv-x="297" 
d="M248 817q53 0 78.5 -29t17.5 -72q-7 -42 -43 -70t-89 -28q-54 0 -79.5 28t-18.5 70q8 43 44 72t90 29zM96 -68q-16 0 -26.5 -5t-12.5 -16t6 -18t24 -7h136l-18 -101h-156q-25 0 -50 6t-43.5 20t-27.5 37t-3 57q8 41 30.5 65.5t49.5 36.5l98 554h197l-99 -561h-2l-12 -68
h-91z" />
    <glyph glyph-name="Idotaccent" unicode="&#x130;" horiz-adv-x="306" 
d="M167 846q6 35 32.5 57.5t59.5 22.5q34 0 53 -22.5t13 -57.5q-7 -33 -33 -55.5t-61 -22.5q-33 0 -52 22.5t-12 55.5zM313 708l-124 -708h-197l124 708h197z" />
    <glyph glyph-name="dotlessi" unicode="&#x131;" horiz-adv-x="297" 
d="M296 561l-99 -561h-197l100 561h196z" />
    <glyph glyph-name="Kcommaaccent" unicode="&#x136;" horiz-adv-x="716" 
d="M437 362l209 -362h-237l-168 312l-55 -312h-197l124 708h197l-54 -306l279 306h235zM409 -38q6 -32 5.5 -62.5t-5.5 -59.5q-6 -35 -20.5 -65t-37 -52.5t-53 -35t-69.5 -12.5l12 71q26 0 43 17t23 55l2 11h-67l24 133h143z" />
    <glyph glyph-name="kcommaaccent" unicode="&#x137;" horiz-adv-x="641" 
d="M410 286l165 -286h-226l-111 238l-42 -238h-197l131 740h196l-68 -389l190 210h230zM333 -38q7 -32 6.5 -62.5t-5.5 -59.5q-6 -35 -20.5 -65t-37 -52.5t-53.5 -35t-70 -12.5l13 71q26 0 42.5 17t23.5 55l2 11h-67l23 133h143z" />
    <glyph glyph-name="Lacute" unicode="&#x139;" horiz-adv-x="492" 
d="M463 820l-200 -64l-19 68l187 94zM215 149h221l-26 -149h-418l124 708h197z" />
    <glyph glyph-name="lacute" unicode="&#x13a;" horiz-adv-x="301" 
d="M319 665l-117 -665h-197l130 740h114l62 31l10 -31h11l-4 -22l15 -45z" />
    <glyph glyph-name="Lcommaaccent" unicode="&#x13b;" horiz-adv-x="497" 
d="M212 149h221l-26 -149h-418l124 708h197zM311 -38q7 -32 7 -62.5t-5 -59.5q-6 -35 -20.5 -65t-37 -52.5t-53.5 -35t-70 -12.5l12 71q26 0 42.5 17t24.5 55l2 11h-67l22 133h143z" />
    <glyph glyph-name="lcommaaccent" unicode="&#x13c;" horiz-adv-x="305" 
d="M336 740l-130 -740h-197l130 740h197zM184 -38q7 -32 6 -62.5t-6 -59.5q-6 -35 -20.5 -65t-37 -52.5t-53 -35t-69.5 -12.5l12 71q26 0 43 17t23 55l2 11h-66l23 133h143z" />
    <glyph glyph-name="Lcaron" unicode="&#x13d;" horiz-adv-x="554" 
d="M212 149h221l-26 -149h-418l124 708h197zM557 708q7 -33 6.5 -65t-6.5 -61q-6 -35 -20.5 -65t-37 -52.5t-53 -35t-69.5 -12.5l12 72q26 0 43 17t23 53l3 14h-68l24 135h143z" />
    <glyph glyph-name="lcaron" unicode="&#x13e;" horiz-adv-x="458" 
d="M327 740l-130 -740h-197l130 740h197zM516 740q6 -33 5.5 -65t-5.5 -61q-6 -35 -20.5 -65t-37 -52t-53.5 -34.5t-70 -12.5l13 71q53 0 66 71l2 14h-68l24 134h144z" />
    <glyph glyph-name="Ldot" unicode="&#x13f;" horiz-adv-x="492" 
d="M215 149h221l-26 -149h-418l124 708h197zM304 353q6 35 32.5 57.5t59.5 22.5q34 0 53 -22.5t13 -57.5q-7 -33 -33 -55.5t-61 -22.5q-33 0 -52 22.5t-12 55.5z" />
    <glyph glyph-name="ldot" unicode="&#x140;" horiz-adv-x="436" 
d="M332 740l-130 -740h-197l130 740h197zM303 369q6 35 32.5 57.5t59.5 22.5q34 0 53 -22.5t13 -57.5q-7 -33 -33 -55.5t-61 -22.5q-33 0 -52 22.5t-12 55.5z" />
    <glyph glyph-name="Lslash" unicode="&#x141;" horiz-adv-x="508" 
d="M452 149l-26 -149h-418l44 250l-63 -18l34 192l62 17l47 267h197l-37 -208l91 25l-34 -191l-90 -26l-28 -159h221z" />
    <glyph glyph-name="lslash" unicode="&#x142;" horiz-adv-x="308" 
d="M329 345l-72 -20l-57 -325h-196l47 266l-71 -20l33 192l71 20l50 282h197l-40 -224l71 20z" />
    <glyph glyph-name="Nacute" unicode="&#x143;" horiz-adv-x="763" 
d="M599 820l-200 -64l-19 68l187 94zM646 0h-197l-191 395l-69 -395h-197l124 707h197l191 -400l69 400h197z" />
    <glyph glyph-name="nacute" unicode="&#x144;" horiz-adv-x="687" 
d="M336 609l-19 68l187 94l32 -98zM479 566q97 0 141 -64t24 -176l-57 -326h-196l53 301q8 50 -12.5 77t-63.5 27q-44 0 -74.5 -28t-39.5 -79v4l-53 -302h-196l98 561h197l-16 -93q32 43 81.5 70.5t113.5 27.5z" />
    <glyph glyph-name="Ncommaaccent" unicode="&#x145;" horiz-adv-x="764" 
d="M645 0h-197l-191 395l-69 -395h-197l124 707h197l191 -400l69 400h197zM425 -38q7 -32 6.5 -62.5t-5.5 -59.5q-6 -35 -20.5 -65t-37 -52.5t-53.5 -35t-70 -12.5l12 71q26 0 43 17t23 55l2 11h-67l24 133h143z" />
    <glyph glyph-name="ncommaaccent" unicode="&#x146;" horiz-adv-x="687" 
d="M479 566q97 0 141 -64t24 -176l-57 -326h-196l53 301q8 50 -12.5 77t-63.5 27q-44 0 -74.5 -28t-39.5 -79v4l-53 -302h-196l98 561h197l-16 -93q32 43 81.5 70.5t113.5 27.5zM398 -38q7 -32 6.5 -62.5t-5.5 -59.5q-6 -35 -21 -65t-37.5 -52.5t-53 -35t-69.5 -12.5l13 71
q25 0 42 17t24 55l2 11h-67l23 133h143z" />
    <glyph glyph-name="Ncaron" unicode="&#x147;" horiz-adv-x="763" 
d="M620 827l-175 -85l-146 85l22 128l146 -87l175 87zM646 0h-197l-191 395l-69 -395h-197l124 707h197l191 -400l69 400h197z" />
    <glyph glyph-name="ncaron" unicode="&#x148;" horiz-adv-x="688" 
d="M394 595l-146 85l22 128l146 -87l175 87l-22 -128zM479 566q97 0 141 -64t24 -176l-57 -326h-196l53 301q8 50 -12.5 77t-63.5 27q-44 0 -74.5 -28t-39.5 -79v4l-53 -302h-196l98 561h197l-16 -93q32 43 81.5 70.5t113.5 27.5z" />
    <glyph glyph-name="Omacron" unicode="&#x14c;" 
d="M701 905l-23 -131h-416l23 131h416zM426 719q87 0 152.5 -29.5t106 -82t55 -126t-0.5 -160.5q-13 -72 -46 -132t-83 -103.5t-116 -68t-144 -24.5q-89 0 -155 29.5t-106.5 82t-54.5 126t2 160.5q13 72 46 132.5t83.5 104t116.5 67.5t144 24zM411 537q-72 0 -121 -46.5
t-63 -125.5q-14 -86 21 -137.5t117 -51.5q72 0 120.5 47t62.5 125q16 87 -20 138t-117 51z" />
    <glyph glyph-name="omacron" unicode="&#x14d;" horiz-adv-x="638" 
d="M610 758l-23 -131h-416l23 131h416zM365 568q64 0 115.5 -21t85.5 -60.5t47 -96t0 -127.5q-11 -63 -42 -113.5t-75.5 -85t-100.5 -53t-117 -18.5q-65 0 -117.5 21t-86.5 60.5t-47.5 96t-0.5 127.5q11 63 42.5 113.5t76.5 85t101.5 53t118.5 18.5zM340 398
q-37 0 -70.5 -28t-44.5 -89q-10 -61 13.5 -89.5t60.5 -28.5q38 0 71 28.5t44 89.5t-12.5 89t-61.5 28z" />
    <glyph glyph-name="Obreve" unicode="&#x14e;" 
d="M430 749q-64 0 -100 40.5t-22 119.5l2 13h76q-4 -26 9.5 -41t54.5 -15q42 0 61 15t23 41h77l-3 -13q-14 -80 -63 -120t-115 -40zM426 719q87 0 152.5 -29.5t106 -82t55 -126t-0.5 -160.5q-13 -72 -46 -132t-83 -103.5t-116 -68t-144 -24.5q-89 0 -155 29.5t-106.5 82
t-54.5 126t2 160.5q13 72 46 132.5t83.5 104t116.5 67.5t144 24zM411 537q-72 0 -121 -46.5t-63 -125.5q-14 -86 21 -137.5t117 -51.5q72 0 120.5 47t62.5 125q16 87 -20 138t-117 51z" />
    <glyph glyph-name="obreve" unicode="&#x14f;" horiz-adv-x="639" 
d="M364 602q-64 0 -100 40.5t-22 119.5l2 13h76q-4 -26 9.5 -41t54.5 -15q42 0 61 15t23 41h77l-3 -13q-14 -80 -63 -120t-115 -40zM365 568q64 0 115.5 -21t85.5 -60.5t47 -96t0 -127.5q-11 -63 -42 -113.5t-75.5 -85t-100.5 -53t-117 -18.5q-65 0 -117.5 21t-86.5 60.5
t-47.5 96t-0.5 127.5q11 63 42.5 113.5t76.5 85t101.5 53t118.5 18.5zM340 398q-37 0 -70.5 -28t-44.5 -89q-10 -61 13.5 -89.5t60.5 -28.5q38 0 71 28.5t44 89.5t-12.5 89t-61.5 28z" />
    <glyph glyph-name="Ohungarumlaut" unicode="&#x150;" 
d="M394 748h-119l119 227h150zM601 748h-119l141 227h150zM426 719q87 0 152.5 -29.5t106 -82t55 -126t-0.5 -160.5q-13 -72 -46 -132t-83 -103.5t-116 -68t-144 -24.5q-89 0 -155 29.5t-106.5 82t-54.5 126t2 160.5q13 72 46 132.5t83.5 104t116.5 67.5t144 24zM411 537
q-72 0 -121 -46.5t-63 -125.5q-14 -86 21 -137.5t117 -51.5q72 0 120.5 47t62.5 125q16 87 -20 138t-117 51z" />
    <glyph glyph-name="ohungarumlaut" unicode="&#x151;" horiz-adv-x="638" 
d="M321 601h-119l119 227h150zM528 601h-119l141 227h150zM365 568q64 0 115.5 -21t85.5 -60.5t47 -96t0 -127.5q-11 -63 -42 -113.5t-75.5 -85t-100.5 -53t-117 -18.5q-65 0 -117.5 21t-86.5 60.5t-47.5 96t-0.5 127.5q11 63 42.5 113.5t76.5 85t101.5 53t118.5 18.5z
M340 398q-37 0 -70.5 -28t-44.5 -89q-10 -61 13.5 -89.5t60.5 -28.5q38 0 71 28.5t44 89.5t-12.5 89t-61.5 28z" />
    <glyph glyph-name="OE" unicode="&#x152;" horiz-adv-x="1057" 
d="M775 434h229l-25 -149h-230l-23 -128h260l-28 -157h-456l12 62q-39 -35 -91.5 -53.5t-106.5 -20.5q-75 0 -134 28.5t-96.5 79t-51.5 121t1 154.5q14 77 48 140.5t86 110t120 72t148 25.5q57 0 105 -19t74 -55l11 63h456l-27 -157h-260zM364 170q75 0 126 49.5t66 134.5
t-19 134t-109 49t-125 -47t-64 -128q-15 -88 18 -140t107 -52z" />
    <glyph glyph-name="oe" unicode="&#x153;" horiz-adv-x="1006" 
d="M747 568q63 0 112 -19.5t79.5 -55.5t42 -87.5t0.5 -114.5q-5 -25 -13 -46h-370q-3 -28 1 -46.5t13 -29t22.5 -15t29.5 -4.5q30 0 51 14.5t32 36.5h208q-16 -45 -46.5 -83t-71 -65.5t-89.5 -43.5t-102 -16q-60 0 -104.5 19t-73.5 54q-42 -35 -95.5 -54t-113.5 -19
q-63 0 -113 19.5t-83 57t-46 91t-1 120.5t44 120.5t77.5 90.5t103 56.5t120.5 19.5q59 0 105.5 -19t76.5 -54q42 35 93.5 54t110.5 19zM789 327q9 46 -13.5 66.5t-55.5 20.5q-38 0 -66 -21t-41 -66h176zM404 281q11 61 -12.5 89t-60.5 28q-38 0 -71 -28t-44 -89t12.5 -89.5
t60.5 -28.5q38 0 71 28.5t44 89.5z" />
    <glyph glyph-name="Racute" unicode="&#x154;" horiz-adv-x="653" 
d="M344 756l-19 68l187 94l32 -98zM427 708q66 0 112.5 -17.5t74 -48.5t36.5 -72.5t1 -89.5q-13 -73 -62.5 -128t-133.5 -78l114 -274h-217l-98 261h-20l-45 -261h-197l124 708h311zM258 393h96q83 0 95 74q6 35 -10 55t-58 20h-96z" />
    <glyph glyph-name="racute" unicode="&#x155;" horiz-adv-x="451" 
d="M218 609l-19 68l187 94l32 -98zM282 457q41 48 95 78.5t112 30.5l-37 -210h-56q-61 0 -101 -24t-51 -90l-43 -242h-196l98 561h197z" />
    <glyph glyph-name="Rcommaaccent" unicode="&#x156;" horiz-adv-x="680" 
d="M398 708q66 0 112.5 -17.5t74 -48.5t36.5 -72.5t1 -89.5q-13 -73 -62.5 -128t-133.5 -78l114 -274h-217l-98 261h-20l-45 -261h-197l124 708h311zM229 393h96q83 0 95 74q6 35 -10 55t-58 20h-96zM368 -38q7 -32 7 -62.5t-5 -59.5q-6 -35 -21 -65t-37.5 -52.5t-53.5 -35
t-70 -12.5l13 71q26 0 42.5 17t23.5 55l2 11h-67l24 133h142z" />
    <glyph glyph-name="rcommaaccent" unicode="&#x157;" horiz-adv-x="450" 
d="M275 457q41 48 95 78.5t112 30.5l-37 -210h-56q-61 0 -101 -24t-51 -90l-43 -242h-196l98 561h197zM193 -38q7 -32 6.5 -62.5t-6.5 -59.5q-6 -35 -20.5 -65t-37 -52.5t-53 -35t-69.5 -12.5l12 71q26 0 43 17t24 55l1 11h-66l23 133h143z" />
    <glyph glyph-name="Rcaron" unicode="&#x158;" horiz-adv-x="653" 
d="M406 742l-146 85l22 128l146 -87l175 87l-22 -128zM427 708q66 0 112.5 -17.5t74 -48.5t36.5 -72.5t1 -89.5q-13 -73 -62.5 -128t-133.5 -78l114 -274h-217l-98 261h-20l-45 -261h-197l124 708h311zM258 393h96q83 0 95 74q6 35 -10 55t-58 20h-96z" />
    <glyph glyph-name="rcaron" unicode="&#x159;" horiz-adv-x="451" 
d="M296 595l-146 85l22 128l146 -87l175 87l-22 -128zM282 457q41 48 95 78.5t112 30.5l-37 -210h-56q-61 0 -101 -24t-51 -90l-43 -242h-196l98 561h197z" />
    <glyph glyph-name="Sacute" unicode="&#x15a;" horiz-adv-x="610" 
d="M523 820l-200 -64l-19 68l187 94zM553 177q-6 -38 -28 -71.5t-57 -58.5t-83 -39.5t-107 -14.5q-128 0 -197.5 60.5t-70.5 166.5h209q-4 -40 14.5 -56.5t47.5 -16.5q25 0 41 13t21 36q6 32 -16.5 51.5t-58 35.5t-77.5 33.5t-75.5 45.5t-51 72t-5.5 112q8 42 32 74.5t60 54
t82 33t96 11.5q68 0 117.5 -16t81.5 -44.5t48 -69t17 -89.5h-212q3 34 -12 49.5t-41 15.5q-21 0 -36.5 -11t-19.5 -35q-5 -30 17 -48t57.5 -33t76.5 -32t74.5 -45t50.5 -71.5t5 -112.5z" />
    <glyph glyph-name="sacute" unicode="&#x15b;" horiz-adv-x="565" 
d="M475 673l-200 -64l-19 68l187 94zM292 568q63 0 110 -15t78.5 -41.5t48.5 -62.5t21 -78h-193q-2 31 -24.5 45.5t-57.5 14.5q-23 0 -38 -7t-18 -23q-3 -21 20.5 -32t60.5 -21t80 -22t77.5 -34.5t53.5 -58.5t8 -94q-6 -31 -24.5 -57.5t-49.5 -46t-74.5 -31t-99.5 -11.5
q-57 0 -104 13t-81.5 38t-54.5 61.5t-23 84.5h193q-2 -32 23.5 -46.5t62.5 -14.5q27 0 39.5 9t15.5 23q4 22 -19 33.5t-59.5 20.5t-79 20.5t-76.5 33t-53 57.5t-8 94q5 30 23 57t48.5 47.5t73.5 32t100 11.5z" />
    <glyph glyph-name="Scedilla" unicode="&#x15e;" horiz-adv-x="611" 
d="M272 519q-5 -30 17 -48t57.5 -33t76.5 -32t74.5 -45t50.5 -71.5t5 -112.5q-6 -33 -23.5 -63t-45.5 -54t-66.5 -41t-86.5 -23l-6 -31q20 0 41.5 -5.5t38.5 -19t26 -36.5t3 -57q-6 -33 -23 -55.5t-40.5 -36t-50 -19t-51.5 -5.5h-160l18 101h139q33 0 38 22q3 21 -30 21h-79
l21 122q-99 14 -152 72t-54 151h209q-4 -40 14.5 -56.5t47.5 -16.5q25 0 41 13t21 36q6 32 -16.5 51.5t-58 35.5t-77.5 33.5t-75.5 45.5t-51 72t-5.5 112q8 42 32 74.5t60 54t82 33t96 11.5q68 0 117.5 -16t81.5 -44.5t48 -69t17 -89.5h-212q3 34 -12 49.5t-41 15.5
q-21 0 -36.5 -11t-19.5 -35z" />
    <glyph glyph-name="scedilla" unicode="&#x15f;" horiz-adv-x="575" 
d="M219 401q-3 -21 20.5 -32t60.5 -21t80 -22t77.5 -34.5t53.5 -58.5t8 -94q-10 -51 -53.5 -89t-122.5 -51l-6 -34q20 0 41.5 -5.5t38.5 -19t26 -36.5t3 -57q-6 -33 -23 -55.5t-40.5 -36t-50 -19t-51.5 -5.5h-160l18 101h139q33 0 38 22q3 21 -30 21h-79l21 120
q-97 9 -156 58.5t-64 136.5h193q-2 -32 23.5 -46.5t62.5 -14.5q27 0 39.5 9t15.5 23q4 22 -19 33.5t-59.5 20.5t-79 20.5t-76.5 33t-53 57.5t-8 94q5 30 23 57t48.5 47.5t73.5 32t100 11.5q63 0 110 -15t78.5 -41.5t48.5 -62.5t21 -78h-193q-2 31 -24.5 45.5t-57.5 14.5
q-23 0 -38 -7t-18 -23z" />
    <glyph glyph-name="Scaron" unicode="&#x160;" horiz-adv-x="611" 
d="M545 827l-175 -85l-146 85l22 128l146 -87l175 87zM553 177q-6 -38 -28 -71.5t-57 -58.5t-83 -39.5t-107 -14.5q-128 0 -197.5 60.5t-70.5 166.5h209q-4 -40 14.5 -56.5t47.5 -16.5q25 0 41 13t21 36q6 32 -16.5 51.5t-58 35.5t-77.5 33.5t-75.5 45.5t-51 72t-5.5 112
q8 42 32 74.5t60 54t82 33t96 11.5q68 0 117.5 -16t81.5 -44.5t48 -69t17 -89.5h-212q3 34 -12 49.5t-41 15.5q-21 0 -36.5 -11t-19.5 -35q-5 -30 17 -48t57.5 -33t76.5 -32t74.5 -45t50.5 -71.5t5 -112.5z" />
    <glyph glyph-name="scaron" unicode="&#x161;" horiz-adv-x="575" 
d="M509 680l-175 -85l-146 85l22 128l146 -87l175 87zM292 568q63 0 110 -15t78.5 -41.5t48.5 -62.5t21 -78h-193q-2 31 -24.5 45.5t-57.5 14.5q-23 0 -38 -7t-18 -23q-3 -21 20.5 -32t60.5 -21t80 -22t77.5 -34.5t53.5 -58.5t8 -94q-6 -31 -24.5 -57.5t-49.5 -46t-74.5 -31
t-99.5 -11.5q-57 0 -104 13t-81.5 38t-54.5 61.5t-23 84.5h193q-2 -32 23.5 -46.5t62.5 -14.5q27 0 39.5 9t15.5 23q4 22 -19 33.5t-59.5 20.5t-79 20.5t-76.5 33t-53 57.5t-8 94q5 30 23 57t48.5 47.5t73.5 32t100 11.5z" />
    <glyph glyph-name="uni0162" unicode="&#x162;" horiz-adv-x="598" 
d="M649 708l-28 -157h-190l-97 -548q28 -20 38.5 -43t4.5 -55q-6 -33 -23 -55.5t-40.5 -36t-50 -19.5t-51.5 -6h-155l18 101h138q17 0 24.5 6t9.5 16t-3.5 15.5t-22.5 5.5h-96l109 619h-188l27 157h576z" />
    <glyph glyph-name="uni0163" unicode="&#x163;" horiz-adv-x="424" 
d="M265 216q-5 -26 5 -37t37 -11h53l-30 -168h-70l-6 -35q20 0 42 -5.5t39 -19t26 -36t3 -55.5q-6 -34 -23.5 -56.5t-40.5 -36t-50 -19.5t-52 -6h-159l18 101h138q35 0 38 23q5 20 -30 20h-79l25 141q-50 20 -72.5 68t-7.5 136l31 177h-72l29 164h72l24 136h197l-24 -136
h102l-29 -164h-102z" />
    <glyph glyph-name="Tcaron" unicode="&#x164;" horiz-adv-x="598" 
d="M538 827l-175 -85l-146 85l22 128l146 -87l175 87zM649 708l-28 -157h-190l-97 -551h-196l96 551h-188l27 157h576z" />
    <glyph glyph-name="tcaron" unicode="&#x165;" horiz-adv-x="415" 
d="M534 871q6 -33 7 -60.5t-4 -56.5q-12 -64 -56 -105.5t-123 -41.5l13 72q53 0 60 39l4 19h-68l24 134h143zM315 561h102l-29 -164h-102l-32 -181q-5 -26 5 -37t37 -11h54l-31 -168h-80q-48 0 -86 11t-63 36.5t-34 68t2 104.5l32 177h-73l29 164h73l24 136h196z" />
    <glyph glyph-name="Utilde" unicode="&#x168;" horiz-adv-x="708" 
d="M406 893q20 0 35 -6t28 -13.5t24 -13.5t24 -6q32 0 45 40h81q-26 -74 -63 -104t-85 -30q-20 0 -35 6t-28 13t-24 13t-24 6q-31 0 -45 -40h-80q26 74 62.5 104.5t84.5 30.5zM309 708l-71 -404q-11 -58 9 -91.5t76 -33.5t88 33.5t43 91.5l71 404h195l-70 -404
q-14 -78 -48.5 -136t-83 -97t-108 -58.5t-124.5 -19.5t-116 19.5t-84 58.5t-45 97t1 136l71 404h196z" />
    <glyph glyph-name="utilde" unicode="&#x169;" horiz-adv-x="676" 
d="M342 651q-31 0 -45 -40h-80q26 74 62.5 104.5t84.5 30.5q20 0 35 -6t28 -13.5t24 -13.5t24 -6q32 0 45 40h81q-26 -74 -63 -104t-85 -30q-20 0 -35 6t-28 13t-24 13t-24 6zM671 561l-98 -561h-197l16 93q-32 -43 -81.5 -70.5t-113.5 -27.5q-97 0 -141 64.5t-24 176.5
l57 325h196l-53 -301q-8 -49 12.5 -76t63.5 -27q44 0 74.5 27.5t39.5 79.5v-5l53 302h196z" />
    <glyph glyph-name="Umacron" unicode="&#x16a;" horiz-adv-x="708" 
d="M660 905l-23 -131h-416l23 131h416zM309 708l-71 -404q-11 -58 9 -91.5t76 -33.5t88 33.5t43 91.5l71 404h195l-70 -404q-14 -78 -48.5 -136t-83 -97t-108 -58.5t-124.5 -19.5t-116 19.5t-84 58.5t-45 97t1 136l71 404h196z" />
    <glyph glyph-name="umacron" unicode="&#x16b;" horiz-adv-x="685" 
d="M608 627h-416l23 131h416zM671 561l-98 -561h-197l16 93q-32 -43 -81.5 -70.5t-113.5 -27.5q-97 0 -141 64.5t-24 176.5l57 325h196l-53 -301q-8 -49 12.5 -76t63.5 -27q44 0 74.5 27.5t39.5 79.5v-5l53 302h196z" />
    <glyph glyph-name="Ubreve" unicode="&#x16c;" horiz-adv-x="708" 
d="M425 749q-64 0 -100 40.5t-22 119.5l2 13h76q-4 -26 9.5 -41t54.5 -15q42 0 61 15t23 41h77l-3 -13q-14 -80 -63 -120t-115 -40zM309 708l-71 -404q-11 -58 9 -91.5t76 -33.5t88 33.5t43 91.5l71 404h195l-70 -404q-14 -78 -48.5 -136t-83 -97t-108 -58.5t-124.5 -19.5
t-116 19.5t-84 58.5t-45 97t1 136l71 404h196z" />
    <glyph glyph-name="ubreve" unicode="&#x16d;" horiz-adv-x="676" 
d="M383 602q-64 0 -100 40.5t-22 119.5l2 13h76q-4 -26 9.5 -41t54.5 -15q42 0 61 15t23 41h77l-3 -13q-14 -80 -63 -120t-115 -40zM671 561l-98 -561h-197l16 93q-32 -43 -81.5 -70.5t-113.5 -27.5q-97 0 -141 64.5t-24 176.5l57 325h196l-53 -301q-8 -49 12.5 -76
t63.5 -27q44 0 74.5 27.5t39.5 79.5v-5l53 302h196z" />
    <glyph glyph-name="Uring" unicode="&#x16e;" horiz-adv-x="708" 
d="M455 996q53 0 84 -33.5t20 -92.5q-5 -30 -19 -53.5t-34 -40t-45 -25t-51 -8.5q-53 0 -84 33.5t-20 93.5q5 29 19 52.5t34 40t45 25t51 8.5zM441 920q-21 0 -37 -13.5t-20 -36.5q-5 -23 7 -37t33 -14t37 14t21 37q4 23 -8 36.5t-33 13.5zM309 708l-71 -404
q-11 -58 9 -91.5t76 -33.5t88 33.5t43 91.5l71 404h195l-70 -404q-14 -78 -48.5 -136t-83 -97t-108 -58.5t-124.5 -19.5t-116 19.5t-84 58.5t-45 97t1 136l71 404h196z" />
    <glyph glyph-name="uring" unicode="&#x16f;" horiz-adv-x="685" 
d="M380 596q-53 0 -84 33.5t-20 93.5q5 29 19 52.5t34 40t45 25t51 8.5q53 0 84 -33.5t20 -92.5q-5 -30 -19 -53.5t-34 -40t-45 -25t-51 -8.5zM354 723q-5 -23 7 -37t33 -14t37 14t21 37q4 23 -8 36.5t-33 13.5t-37 -13.5t-20 -36.5zM671 561l-98 -561h-197l16 93
q-32 -43 -81.5 -70.5t-113.5 -27.5q-97 0 -141 64.5t-24 176.5l57 325h196l-53 -301q-8 -49 12.5 -76t63.5 -27q44 0 74.5 27.5t39.5 79.5v-5l53 302h196z" />
    <glyph glyph-name="Uhungarumlaut" unicode="&#x170;" horiz-adv-x="708" 
d="M308 748h-119l119 227h150zM515 748h-119l141 227h150zM309 708l-71 -404q-11 -58 9 -91.5t76 -33.5t88 33.5t43 91.5l71 404h195l-70 -404q-14 -78 -48.5 -136t-83 -97t-108 -58.5t-124.5 -19.5t-116 19.5t-84 58.5t-45 97t1 136l71 404h196z" />
    <glyph glyph-name="uhungarumlaut" unicode="&#x171;" horiz-adv-x="685" 
d="M279 601h-119l119 227h150zM367 601l141 227h150l-172 -227h-119zM671 561l-98 -561h-197l16 93q-32 -43 -81.5 -70.5t-113.5 -27.5q-97 0 -141 64.5t-24 176.5l57 325h196l-53 -301q-8 -49 12.5 -76t63.5 -27q44 0 74.5 27.5t39.5 79.5v-5l53 302h196z" />
    <glyph glyph-name="Uogonek" unicode="&#x172;" horiz-adv-x="708" 
d="M310 708l-72 -404q-10 -58 9.5 -91.5t75.5 -33.5q55 0 87.5 32.5t43.5 92.5l71 404h196l-72 -404q-11 -64 -38 -114.5t-63.5 -87.5t-79 -60.5t-84.5 -33.5q-25 -6 -34 -13t-11 -18q-5 -22 32 -22h125l-18 -101h-163q-23 0 -45 7.5t-37.5 22.5t-23.5 38.5t-2 55.5
q2 13 10 22q-45 11 -82 35t-61.5 62t-33.5 89.5t2 117.5l72 404h196z" />
    <glyph glyph-name="uogonek" unicode="&#x173;" horiz-adv-x="685" 
d="M430 -89q-2 -11 6 -18t24 -7h136l-18 -101h-156q-25 0 -50 6t-43.5 20t-27.5 37t-3 57q8 41 30 65t49 37l15 86q-32 -43 -81.5 -70.5t-113.5 -27.5q-97 0 -141 64.5t-24 176.5l57 325h196l-53 -301q-8 -49 12.5 -76t63.5 -27q44 0 74.5 27.5t39.5 79.5v-5l53 302h196
l-98 -561h-1l-12 -68h-91q-16 0 -26.5 -5t-12.5 -16z" />
    <glyph glyph-name="Wcircumflex" unicode="&#x174;" horiz-adv-x="1076" 
d="M519 749l-20 79l148 72l122 -72l-39 -79l-97 53zM1107 708l-290 -708h-244l-21 437l-174 -437h-244l-41 708h212l-7 -482l194 482h215l25 -482l163 482h212z" />
    <glyph glyph-name="wcircumflex" unicode="&#x175;" horiz-adv-x="873" 
d="M393 602l-20 79l148 72l122 -72l-39 -79l-97 53zM923 561l-238 -561h-221l-23 347l-148 -347h-221l-38 561h195l-5 -375l154 375h209l26 -378l128 378h182z" />
    <glyph glyph-name="Ycircumflex" unicode="&#x176;" horiz-adv-x="704" 
d="M333 749l-20 79l148 72l122 -72l-39 -79l-97 53zM762 708l-335 -483l-39 -225h-197l39 225l-164 483h225l77 -270l172 270h222z" />
    <glyph glyph-name="ycircumflex" unicode="&#x177;" horiz-adv-x="647" 
d="M394 655l-114 -53l-20 79l148 72l122 -72l-39 -79zM247 561l65 -314l167 314h217l-501 -829h-216l189 292l-139 537h218z" />
    <glyph glyph-name="Ydieresis" unicode="&#x178;" horiz-adv-x="704" 
d="M315 768q-33 0 -52 22.5t-12 55.5q6 35 32 57.5t60 22.5t53 -22.5t13 -57.5q-7 -33 -33 -55.5t-61 -22.5zM529 768q-34 0 -52.5 22.5t-12.5 55.5q6 35 32.5 57.5t59.5 22.5q35 0 53.5 -22.5t12.5 -57.5q-6 -33 -32.5 -55.5t-60.5 -22.5zM762 708l-335 -483l-39 -225h-197
l39 225l-164 483h225l77 -270l172 270h222z" />
    <glyph glyph-name="Zacute" unicode="&#x179;" horiz-adv-x="612" 
d="M523 820l-200 -64l-19 68l187 94zM232 157h298l-28 -157h-516l26 149l364 402h-292l28 157h513l-26 -149z" />
    <glyph glyph-name="zacute" unicode="&#x17a;" horiz-adv-x="504" 
d="M444 673l-200 -64l-19 68l187 94zM216 163h246l-29 -163h-461l27 155l270 243h-223l29 163h448l-28 -154z" />
    <glyph glyph-name="Zdotaccent" unicode="&#x17b;" horiz-adv-x="611" 
d="M311 846q6 35 32.5 57.5t59.5 22.5q34 0 53 -22.5t13 -57.5q-7 -33 -33 -55.5t-61 -22.5q-33 0 -52 22.5t-12 55.5zM232 157h298l-28 -157h-516l26 149l364 402h-292l28 157h513l-26 -149z" />
    <glyph glyph-name="zdotaccent" unicode="&#x17c;" horiz-adv-x="504" 
d="M225 699q6 35 32.5 57.5t59.5 22.5q34 0 53 -22.5t13 -57.5q-7 -33 -33 -55.5t-61 -22.5q-33 0 -52 22.5t-12 55.5zM216 163h246l-29 -163h-461l27 155l270 243h-223l29 163h448l-28 -154z" />
    <glyph glyph-name="Zcaron" unicode="&#x17d;" horiz-adv-x="612" 
d="M545 827l-175 -85l-146 85l22 128l146 -87l175 87zM232 157h298l-28 -157h-516l26 149l364 402h-292l28 157h513l-26 -149z" />
    <glyph glyph-name="zcaron" unicode="&#x17e;" horiz-adv-x="505" 
d="M477 680l-175 -85l-146 85l22 128l146 -87l175 87zM216 163h246l-29 -163h-461l27 155l270 243h-223l29 163h448l-28 -154z" />
    <glyph glyph-name="florin" unicode="&#x192;" horiz-adv-x="339" 
d="M422 620q-32 0 -52 -10t-28 -36l-4 -13h75l-46 -164h-75l-137 -487q-16 -59 -44.5 -97t-65 -60.5t-80.5 -31.5t-91 -9h-33l45 168h37q26 0 35 30l138 487h-47l46 164h47l4 13q32 112 110.5 163t211.5 51z" />
    <glyph glyph-name="Ohorn" unicode="&#x1a0;" 
d="M774 812q-11 -64 -40 -110t-67 -75q51 -54 70 -131.5t2 -174.5q-13 -72 -46 -132t-83 -103.5t-116 -68t-144 -24.5q-89 0 -155 29.5t-106.5 82t-54.5 126t2 160.5q13 72 46 132.5t83.5 104t116.5 67.5t144 24q50 0 97 -11q47 2 77 23.5t41 80.5h133zM548 348
q16 87 -20 138t-117 51q-72 0 -121 -46.5t-63 -125.5q-14 -86 21 -137.5t117 -51.5q72 0 120.5 47t62.5 125z" />
    <glyph glyph-name="ohorn" unicode="&#x1a1;" horiz-adv-x="639" 
d="M676 665q-11 -64 -39 -109.5t-66 -74.5q31 -39 42.5 -94t-0.5 -124q-11 -63 -42 -113.5t-75.5 -85t-100.5 -53t-117 -18.5q-65 0 -117.5 21t-86.5 60.5t-47.5 96t-0.5 127.5q11 63 42.5 113.5t76.5 85t101.5 53t118.5 18.5q39 0 68 -7q43 3 71.5 25.5t38.5 78.5h133z
M414 281q11 61 -12.5 89t-61.5 28q-37 0 -70.5 -28t-44.5 -89q-10 -61 13.5 -89.5t60.5 -28.5q38 0 71 28.5t44 89.5z" />
    <glyph glyph-name="Uhorn" unicode="&#x1af;" horiz-adv-x="708" 
d="M852 812q-14 -82 -55.5 -134t-95.5 -79l-51 -295q-14 -78 -48.5 -136t-83 -97t-108 -58.5t-124.5 -19.5t-116 19.5t-84 58.5t-45 97t1 136l71 404h196l-71 -404q-11 -58 9 -91.5t76 -33.5t88 33.5t43 91.5l71 404h70q49 0 81 22t43 82h133z" />
    <glyph glyph-name="uhorn" unicode="&#x1b0;" horiz-adv-x="676" 
d="M804 665q-14 -83 -56 -135t-96 -78l-79 -452h-197l16 93q-32 -43 -81.5 -70.5t-113.5 -27.5q-97 0 -141 64.5t-24 176.5l57 325h196l-53 -301q-8 -49 12.5 -76t63.5 -27q44 0 74.5 27.5t39.5 79.5v-5l53 302h72q49 0 81 22t43 82h133z" />
    <glyph glyph-name="AEacute" unicode="&#x1fc;" horiz-adv-x="967" 
d="M653 756l-19 68l187 94l32 -98zM715 551l-20 -115h221l-26 -148h-221l-23 -131h251l-28 -157h-447l19 109h-216l-72 -109h-214l475 708h579l-27 -157h-251zM467 258l52 295l-195 -295h143z" />
    <glyph glyph-name="aeacute" unicode="&#x1fd;" horiz-adv-x="1064" 
d="M522 609l-19 68l187 94l32 -98zM851 568q53 0 93.5 -19.5t66 -55.5t33.5 -87.5t-3 -114.5q-5 -25 -13 -46h-403q-4 -55 20.5 -76t62.5 -21q37 0 61.5 14t36.5 39h208q-16 -45 -43 -83t-61 -65.5t-75 -43.5t-86 -16q-64 0 -104.5 25.5t-53.5 70.5l-16 -89h-196l16 89
q-28 -44 -75 -70t-109 -26q-50 0 -89.5 19.5t-65 56.5t-34.5 90.5t3 121.5t39.5 121t66 90t85 56.5t96.5 19.5q62 0 99.5 -26t50.5 -70l16 89h196l-16 -89q29 46 78 71t115 25zM848 327q5 23 -0.5 39t-18 27t-30.5 16t-39 5q-38 0 -71 -18.5t-49 -68.5h208zM429 281
q10 55 -14 85t-68 30q-45 0 -78.5 -29.5t-44.5 -85.5q-10 -57 13.5 -86.5t68.5 -29.5q44 0 78.5 30t44.5 86z" />
    <glyph glyph-name="Scommaaccent" unicode="&#x218;" horiz-adv-x="615" 
d="M557 177q-6 -38 -28 -71.5t-57 -58.5t-83 -39.5t-107 -14.5q-128 0 -197.5 60.5t-70.5 166.5h209q-4 -40 14.5 -56.5t47.5 -16.5q25 0 41 13t21 36q6 32 -16.5 51.5t-58 35.5t-77.5 33.5t-75.5 45.5t-51 72t-5.5 112q8 42 32 74.5t60 54t82 33t96 11.5q68 0 117.5 -16
t81.5 -44.5t48 -69t17 -89.5h-212q3 34 -12 49.5t-41 15.5q-21 0 -36.5 -11t-19.5 -35q-5 -30 17 -48t57.5 -33t76.5 -32t74.5 -45t51 -71.5t4.5 -112.5zM363 -38q7 -32 7 -62.5t-5 -59.5q-6 -35 -21 -65t-37.5 -52.5t-53.5 -35t-70 -12.5l13 71q26 0 42.5 17t23.5 55l2 11
h-67l23 133h143z" />
    <glyph glyph-name="scommaaccent" unicode="&#x219;" horiz-adv-x="575" 
d="M301 568q63 0 110 -15t78.5 -41.5t48.5 -62.5t21 -78h-193q-2 31 -24.5 45.5t-57.5 14.5q-23 0 -38 -7t-18 -23q-3 -21 20.5 -32t60.5 -21t80 -22t77.5 -34.5t53.5 -58.5t8 -94q-6 -31 -24.5 -57.5t-49.5 -46t-74.5 -31t-99.5 -11.5q-57 0 -104 13t-81.5 38t-54.5 61.5
t-23 84.5h193q-2 -32 23.5 -46.5t62.5 -14.5q27 0 39.5 9t15.5 23q4 22 -19 33.5t-59.5 20.5t-79 20.5t-76.5 33t-53 57.5t-8 94q5 30 23 57t48.5 47.5t73.5 32t100 11.5zM324 -38q6 -32 6 -62.5t-5 -59.5q-6 -35 -21 -65t-37.5 -52.5t-53 -35t-69.5 -12.5l13 71q25 0 42 17
t24 55l2 11h-67l23 133h143z" />
    <glyph glyph-name="uni021A" unicode="&#x21a;" horiz-adv-x="598" 
d="M646 708l-28 -157h-190l-97 -551h-196l96 551h-188l27 157h576zM300 -38q7 -32 6.5 -62.5t-5.5 -59.5q-6 -35 -21 -65t-37.5 -52.5t-53 -35t-69.5 -12.5l13 71q25 0 42 17t24 55l1 11h-66l23 133h143z" />
    <glyph glyph-name="uni021B" unicode="&#x21b;" horiz-adv-x="424" 
d="M270 216q-5 -26 5 -37t37 -11h54l-31 -168h-80q-48 0 -86 11t-63 36.5t-34 68t2 104.5l32 177h-73l29 164h73l24 136h196l-24 -136h102l-29 -164h-102zM289 -38q6 -32 6.5 -62.5t-4.5 -59.5q-6 -35 -21 -65t-37.5 -52.5t-53.5 -35t-70 -12.5l13 71q26 0 42.5 17t23.5 55
l2 11h-67l24 133h142z" />
    <glyph glyph-name="circumflex" unicode="&#x2c6;" horiz-adv-x="348" 
d="M235 676l-114 -53l-20 79l148 72l122 -72l-39 -79z" />
    <glyph glyph-name="caron" unicode="&#x2c7;" horiz-adv-x="348" 
d="M391 680l-175 -85l-146 85l22 128l146 -87l175 87z" />
    <glyph glyph-name="breve" unicode="&#x2d8;" horiz-adv-x="385" 
d="M240 602q-64 0 -100 40.5t-22 119.5l2 13h76q-4 -26 9.5 -41t54.5 -15q42 0 61 15t23 41h77l-3 -13q-14 -80 -63 -120t-115 -40z" />
    <glyph glyph-name="dotaccent" unicode="&#x2d9;" horiz-adv-x="187" 
d="M75 699q6 35 32.5 57.5t59.5 22.5q34 0 53 -22.5t13 -57.5q-7 -33 -33 -55.5t-61 -22.5q-33 0 -52 22.5t-12 55.5z" />
    <glyph glyph-name="ring" unicode="&#x2da;" horiz-adv-x="280" 
d="M223 849q53 0 84 -33.5t20 -92.5q-5 -30 -19 -53.5t-34 -40t-45 -25t-51 -8.5q-53 0 -84 33.5t-20 93.5q5 29 19 52.5t34 40t45 25t51 8.5zM209 773q-21 0 -37 -13.5t-20 -36.5q-5 -23 7 -37t33 -14t37 14t21 37q4 23 -8 36.5t-33 13.5z" />
    <glyph glyph-name="ogonek" unicode="&#x2db;" horiz-adv-x="311" 
d="M283 17l-16 -90h-91q-16 0 -26.5 -5t-12.5 -16t6 -18t24 -7h136l-18 -101h-156q-25 0 -50 6t-43.5 20t-27.5 37t-3 57q6 33 22.5 55.5t38.5 36t45.5 19.5t42.5 6h129z" />
    <glyph glyph-name="tilde" unicode="&#x2dc;" horiz-adv-x="440" 
d="M235 746q20 0 35 -6t28 -13.5t24 -13.5t24 -6q32 0 45 40h81q-26 -74 -63 -104t-85 -30q-20 0 -35 6t-28 13t-24 13t-24 6q-31 0 -45 -40h-80q26 74 62.5 104.5t84.5 30.5z" />
    <glyph glyph-name="hungarumlaut" unicode="&#x2dd;" horiz-adv-x="484" 
d="M172 601h-119l119 227h150zM379 601h-119l141 227h150z" />
    <glyph glyph-name="gravecomb" unicode="&#x300;" horiz-adv-x="0" 
d="M5 674l-37 -73l-173 72l44 100z" />
    <glyph glyph-name="acutecomb" unicode="&#x301;" horiz-adv-x="0" 
d="M35 673l-200 -64l-19 68l187 94z" />
    <glyph glyph-name="uni0302" unicode="&#x302;" horiz-adv-x="0" 
d="M-113 676l-114 -53l-20 79l148 72l122 -72l-39 -79z" />
    <glyph glyph-name="tildecomb" unicode="&#x303;" horiz-adv-x="0" 
d="M-205 746q20 0 35 -6t28 -13.5t24 -13.5t24 -6q32 0 45 40h81q-26 -74 -63 -104t-85 -30q-20 0 -35 6t-28 13t-24 13t-24 6q-31 0 -45 -40h-80q26 74 62.5 104.5t84.5 30.5z" />
    <glyph glyph-name="uni0306" unicode="&#x306;" horiz-adv-x="0" 
d="M-145 602q-65 0 -100.5 40.5t-21.5 119.5l2 13h76q-4 -26 9.5 -41t54.5 -15q42 0 61 15t23 41h77l-3 -13q-14 -80 -63 -120t-115 -40z" />
    <glyph glyph-name="hookabovecomb" unicode="&#x309;" horiz-adv-x="0" 
d="M-265 777q56 0 75 -29.5t12 -71.5q-3 -19 -12.5 -34.5t-23.5 -29.5t-31.5 -29t-36.5 -32l-45 44q35 29 48 48t16 33q2 14 -4.5 17.5t-15.5 3.5q-11 0 -19 -6t-16 -29l-79 9q6 20 14.5 39t23.5 34t37.5 24t56.5 9z" />
    <glyph glyph-name="uni031B" unicode="&#x31b;" horiz-adv-x="0" 
d="M-382 561q49 0 81 22t43 82h133q-12 -66 -41.5 -112t-69 -75.5t-84.5 -43t-87 -13.5z" />
    <glyph glyph-name="dotbelowcomb" unicode="&#x323;" horiz-adv-x="0" 
d="M-247 -147q5 32 29.5 53t55.5 21t48.5 -21t11.5 -53q-6 -30 -30 -50.5t-56 -20.5q-31 0 -48 20.5t-11 50.5z" />
    <glyph glyph-name="pi" unicode="&#x3c0;" horiz-adv-x="710" 
d="M747 561l-27 -147h-68l-72 -414h-197l73 414h-152l-72 -414h-197l73 414h-68l27 147h680z" />
    <glyph glyph-name="Wgrave" unicode="&#x1e80;" horiz-adv-x="1076" 
d="M725 748l-173 72l44 100l166 -99zM1107 708l-290 -708h-244l-21 437l-174 -437h-244l-41 708h212l-7 -482l194 482h215l25 -482l163 482h212z" />
    <glyph glyph-name="wgrave" unicode="&#x1e81;" horiz-adv-x="873" 
d="M599 601l-173 72l44 100l166 -99zM923 561l-238 -561h-221l-23 347l-148 -347h-221l-38 561h195l-5 -375l154 375h209l26 -378l128 378h182z" />
    <glyph glyph-name="Wacute" unicode="&#x1e82;" horiz-adv-x="1076" 
d="M555 756l-19 68l187 94l32 -98zM1107 708l-290 -708h-244l-21 437l-174 -437h-244l-41 708h212l-7 -482l194 482h215l25 -482l163 482h212z" />
    <glyph glyph-name="wacute" unicode="&#x1e83;" horiz-adv-x="873" 
d="M429 609l-19 68l187 94l32 -98zM923 561l-238 -561h-221l-23 347l-148 -347h-221l-38 561h195l-5 -375l154 375h209l26 -378l128 378h182z" />
    <glyph glyph-name="Wdieresis" unicode="&#x1e84;" horiz-adv-x="1076" 
d="M501 768q-33 0 -52 22.5t-12 55.5q6 35 32 57.5t60 22.5t53 -22.5t13 -57.5q-7 -33 -33 -55.5t-61 -22.5zM715 768q-34 0 -52.5 22.5t-12.5 55.5q6 35 32.5 57.5t59.5 22.5q35 0 53.5 -22.5t12.5 -57.5q-6 -33 -32.5 -55.5t-60.5 -22.5zM1107 708l-290 -708h-244l-21 437
l-174 -437h-244l-41 708h212l-7 -482l194 482h215l25 -482l163 482h212z" />
    <glyph glyph-name="wdieresis" unicode="&#x1e85;" horiz-adv-x="891" 
d="M394 621q-33 0 -52 22.5t-12 55.5q6 35 32 57.5t60 22.5t53 -22.5t13 -57.5q-7 -33 -33 -55.5t-61 -22.5zM608 621q-34 0 -52.5 22.5t-12.5 55.5q6 35 32.5 57.5t59.5 22.5q35 0 53.5 -22.5t12.5 -57.5q-6 -33 -32.5 -55.5t-60.5 -22.5zM923 561l-238 -561h-221l-23 347
l-148 -347h-221l-38 561h195l-5 -375l154 375h209l26 -378l128 378h182z" />
    <glyph glyph-name="uni1EA0" unicode="&#x1ea0;" horiz-adv-x="752" 
d="M478 0l-18 118h-251l-60 -118h-207l383 705h226l135 -705h-208zM436 266l-35 229l-117 -229h152zM315 -73q31 0 48.5 -21t11.5 -53q-6 -30 -30 -50.5t-56 -20.5q-31 0 -48 20.5t-11 50.5q5 32 29.5 53t55.5 21z" />
    <glyph glyph-name="uni1EA1" unicode="&#x1ea1;" horiz-adv-x="682" 
d="M306 568q65 0 105.5 -26t53.5 -70l16 89h196l-100 -561h-195l16 89q-29 -44 -76 -70t-108 -26q-53 0 -93.5 21t-65.5 60t-32.5 95.5t5.5 128.5q11 64 38 114t64.5 84.5t82.5 53t93 18.5zM350 396q-45 0 -79 -29.5t-44 -85.5q-10 -57 13.5 -86.5t68.5 -29.5q43 0 77.5 30
t44.5 86q10 55 -13.5 85t-67.5 30zM195 -147q5 32 29.5 53t55.5 21t48.5 -21t11.5 -53q-6 -30 -30 -50.5t-56 -20.5q-31 0 -48 20.5t-11 50.5z" />
    <glyph glyph-name="uni1EA2" unicode="&#x1ea2;" horiz-adv-x="752" 
d="M457 901q-11 0 -19 -6t-16 -29l-79 9q6 20 14.5 39t23.5 34t37.5 24t56.5 9q56 0 75.5 -29.5t11.5 -71.5q-3 -19 -12.5 -34.5t-23.5 -29.5t-31.5 -29t-36.5 -32l-45 44q35 29 48 48t16 33q2 14 -4.5 17.5t-15.5 3.5zM460 118h-251l-60 -118h-207l383 705h226l135 -705
h-208zM436 266l-35 229l-117 -229h152z" />
    <glyph glyph-name="uni1EA3" unicode="&#x1ea3;" horiz-adv-x="682" 
d="M432 834q56 0 75.5 -29.5t11.5 -71.5q-3 -19 -12.5 -34.5t-23.5 -29.5t-31.5 -29t-36.5 -32l-45 44q35 29 48 48t16 33q2 14 -4.5 17.5t-15.5 3.5q-11 0 -19 -6t-16 -29l-79 9q6 20 14.5 39t23.5 34t37.5 24t56.5 9zM306 568q65 0 105.5 -26t53.5 -70l16 89h196
l-100 -561h-195l16 89q-29 -44 -76 -70t-108 -26q-53 0 -93.5 21t-65.5 60t-32.5 95.5t5.5 128.5q11 64 38 114t64.5 84.5t82.5 53t93 18.5zM350 396q-45 0 -79 -29.5t-44 -85.5q-10 -57 13.5 -86.5t68.5 -29.5q43 0 77.5 30t44.5 86q10 55 -13.5 85t-67.5 30z" />
    <glyph glyph-name="uni1EA4" unicode="&#x1ea4;" horiz-adv-x="752" 
d="M402 896l-17 62l172 87l29 -91zM347 745l-18 73l136 66l112 -66l-35 -73l-90 49zM460 118h-251l-60 -118h-207l383 705h226l135 -705h-208zM436 266l-35 229l-117 -229h152z" />
    <glyph glyph-name="uni1EA5" unicode="&#x1ea5;" horiz-adv-x="682" 
d="M543 807l-184 -58l-17 62l172 87zM409 647l-105 -49l-18 73l136 66l112 -66l-35 -73zM306 568q65 0 105.5 -26t53.5 -70l16 89h196l-100 -561h-195l16 89q-29 -44 -76 -70t-108 -26q-53 0 -93.5 21t-65.5 60t-32.5 95.5t5.5 128.5q11 64 38 114t64.5 84.5t82.5 53
t93 18.5zM350 396q-45 0 -79 -29.5t-44 -85.5q-10 -57 13.5 -86.5t68.5 -29.5q43 0 77.5 30t44.5 86q10 55 -13.5 85t-67.5 30z" />
    <glyph glyph-name="uni1EA6" unicode="&#x1ea6;" horiz-adv-x="752" 
d="M562 887l-159 66l41 93l152 -92zM347 745l-18 73l136 66l112 -66l-35 -73l-90 49zM460 118h-251l-60 -118h-207l383 705h226l135 -705h-208zM436 266l-35 229l-117 -229h152z" />
    <glyph glyph-name="uni1EA7" unicode="&#x1ea7;" horiz-adv-x="682" 
d="M553 807l-34 -67l-159 66l41 93zM409 647l-105 -49l-18 73l136 66l112 -66l-35 -73zM306 568q65 0 105.5 -26t53.5 -70l16 89h196l-100 -561h-195l16 89q-29 -44 -76 -70t-108 -26q-53 0 -93.5 21t-65.5 60t-32.5 95.5t5.5 128.5q11 64 38 114t64.5 84.5t82.5 53t93 18.5
zM350 396q-45 0 -79 -29.5t-44 -85.5q-10 -57 13.5 -86.5t68.5 -29.5q43 0 77.5 30t44.5 86q10 55 -13.5 85t-67.5 30z" />
    <glyph glyph-name="uni1EA8" unicode="&#x1ea8;" horiz-adv-x="752" 
d="M615 1063q52 0 70 -27t10 -66q-6 -34 -33 -58.5t-62 -56.5l-42 41q32 26 44.5 43.5t14.5 30.5t-4 16.5t-14 3.5q-10 0 -17.5 -6t-14.5 -27l-73 9q5 18 13 35.5t22 31t34.5 22t51.5 8.5zM347 745l-18 73l136 66l112 -66l-35 -73l-90 49zM551 705l135 -705h-208l-18 118
h-251l-60 -118h-207l383 705h226zM436 266l-35 229l-117 -229h152z" />
    <glyph glyph-name="uni1EA9" unicode="&#x1ea9;" horiz-adv-x="682" 
d="M572 916q52 0 70 -27t10 -66q-6 -34 -33 -58.5t-62 -56.5l-42 41q32 26 44.5 43.5t14.5 30.5t-4 16.5t-14 3.5q-10 0 -17.5 -6t-14.5 -27l-73 9q5 18 13 35.5t22 31t34.5 22t51.5 8.5zM409 647l-105 -49l-18 73l136 66l112 -66l-35 -73zM306 568q65 0 105.5 -26t53.5 -70
l16 89h196l-100 -561h-195l16 89q-29 -44 -76 -70t-108 -26q-53 0 -93.5 21t-65.5 60t-32.5 95.5t5.5 128.5q11 64 38 114t64.5 84.5t82.5 53t93 18.5zM350 396q-45 0 -79 -29.5t-44 -85.5q-10 -57 13.5 -86.5t68.5 -29.5q43 0 77.5 30t44.5 86q10 55 -13.5 85t-67.5 30z
" />
    <glyph glyph-name="uni1EAA" unicode="&#x1eaa;" horiz-adv-x="752" 
d="M441 923q-25 0 -36 -31h-62q20 58 48.5 82t66.5 24q16 0 27.5 -5t21.5 -10.5t19 -10.5t19 -5q25 0 35 31h63q-20 -57 -49 -80.5t-67 -23.5q-16 0 -27.5 4.5t-21.5 10t-18.5 10t-18.5 4.5zM347 745l-18 73l136 66l112 -66l-35 -73l-90 49zM460 118h-251l-60 -118h-207
l383 705h226l135 -705h-208zM436 266l-35 229l-117 -229h152z" />
    <glyph glyph-name="uni1EAB" unicode="&#x1eab;" horiz-adv-x="682" 
d="M415 851q16 0 27.5 -5t21.5 -10.5t19 -10.5t19 -5q25 0 35 31h63q-20 -57 -49 -80.5t-67 -23.5q-16 0 -27.5 4.5t-21.5 10t-18.5 10t-18.5 4.5q-25 0 -36 -31h-62q20 58 48.5 82t66.5 24zM409 647l-105 -49l-18 73l136 66l112 -66l-35 -73zM306 568q65 0 105.5 -26
t53.5 -70l16 89h196l-100 -561h-195l16 89q-29 -44 -76 -70t-108 -26q-53 0 -93.5 21t-65.5 60t-32.5 95.5t5.5 128.5q11 64 38 114t64.5 84.5t82.5 53t93 18.5zM350 396q-45 0 -79 -29.5t-44 -85.5q-10 -57 13.5 -86.5t68.5 -29.5q43 0 77.5 30t44.5 86q10 55 -13.5 85
t-67.5 30z" />
    <glyph glyph-name="uni1EAC" unicode="&#x1eac;" horiz-adv-x="752" 
d="M340 749l-20 79l148 72l122 -72l-39 -79l-97 53zM478 0l-18 118h-251l-60 -118h-207l383 705h226l135 -705h-208zM436 266l-35 229l-117 -229h152zM315 -73q31 0 48.5 -21t11.5 -53q-6 -30 -30 -50.5t-56 -20.5q-31 0 -48 20.5t-11 50.5q5 32 29.5 53t55.5 21z" />
    <glyph glyph-name="uni1EAD" unicode="&#x1ead;" horiz-adv-x="682" 
d="M411 655l-114 -53l-20 79l148 72l122 -72l-39 -79zM306 568q65 0 105.5 -26t53.5 -70l16 89h196l-100 -561h-195l16 89q-29 -44 -76 -70t-108 -26q-53 0 -93.5 21t-65.5 60t-32.5 95.5t5.5 128.5q11 64 38 114t64.5 84.5t82.5 53t93 18.5zM350 396q-45 0 -79 -29.5
t-44 -85.5q-10 -57 13.5 -86.5t68.5 -29.5q43 0 77.5 30t44.5 86q10 55 -13.5 85t-67.5 30zM195 -147q5 32 29.5 53t55.5 21t48.5 -21t11.5 -53q-6 -30 -30 -50.5t-56 -20.5q-31 0 -48 20.5t-11 50.5z" />
    <glyph glyph-name="uni1EAE" unicode="&#x1eae;" horiz-adv-x="752" 
d="M415 950l-17 62l172 87l29 -91zM429 746q-59 0 -92 37t-20 110l1 12h70q-3 -24 9.5 -37.5t49.5 -13.5q38 0 56 13.5t22 37.5h71l-3 -12q-13 -73 -58.5 -110t-105.5 -37zM460 118h-251l-60 -118h-207l383 705h226l135 -705h-208zM436 266l-35 229l-117 -229h152z" />
    <glyph glyph-name="uni1EAF" unicode="&#x1eaf;" horiz-adv-x="682" 
d="M556 861l-184 -58l-17 62l172 87zM386 599q-59 0 -92 37t-20 110l1 12h70q-3 -24 9.5 -37.5t49.5 -13.5q38 0 56 13.5t22 37.5h71l-3 -12q-13 -73 -58.5 -110t-105.5 -37zM306 568q65 0 105.5 -26t53.5 -70l16 89h196l-100 -561h-195l16 89q-29 -44 -76 -70t-108 -26
q-53 0 -93.5 21t-65.5 60t-32.5 95.5t5.5 128.5q11 64 38 114t64.5 84.5t82.5 53t93 18.5zM350 396q-45 0 -79 -29.5t-44 -85.5q-10 -57 13.5 -86.5t68.5 -29.5q43 0 77.5 30t44.5 86q10 55 -13.5 85t-67.5 30z" />
    <glyph glyph-name="uni1EB0" unicode="&#x1eb0;" horiz-adv-x="752" 
d="M571 942l-159 66l41 93l152 -92zM429 746q-59 0 -92 37t-20 110l1 12h70q-3 -24 9.5 -37.5t49.5 -13.5q38 0 56 13.5t22 37.5h71l-3 -12q-13 -73 -58.5 -110t-105.5 -37zM460 118h-251l-60 -118h-207l383 705h226l135 -705h-208zM436 266l-35 229l-117 -229h152z" />
    <glyph glyph-name="uni1EB1" unicode="&#x1eb1;" horiz-adv-x="682" 
d="M562 862l-34 -67l-159 66l41 93zM386 599q-59 0 -92 37t-20 110l1 12h70q-3 -24 9.5 -37.5t49.5 -13.5q38 0 56 13.5t22 37.5h71l-3 -12q-13 -73 -58.5 -110t-105.5 -37zM306 568q65 0 105.5 -26t53.5 -70l16 89h196l-100 -561h-195l16 89q-29 -44 -76 -70t-108 -26
q-53 0 -93.5 21t-65.5 60t-32.5 95.5t5.5 128.5q11 64 38 114t64.5 84.5t82.5 53t93 18.5zM350 396q-45 0 -79 -29.5t-44 -85.5q-10 -57 13.5 -86.5t68.5 -29.5q43 0 77.5 30t44.5 86q10 55 -13.5 85t-67.5 30z" />
    <glyph glyph-name="uni1EB2" unicode="&#x1eb2;" horiz-adv-x="752" 
d="M490 1083q-10 0 -17.5 -6t-14.5 -27l-73 9q5 18 13 35.5t22 31t34.5 22t51.5 8.5q52 0 70 -27t10 -66q-6 -34 -33 -58.5t-62 -56.5l-42 41q32 26 44.5 43.5t14.5 30.5t-4 16.5t-14 3.5zM429 746q-59 0 -92 37t-20 110l1 12h70q-3 -24 9.5 -37.5t49.5 -13.5q38 0 56 13.5
t22 37.5h71l-3 -12q-13 -73 -58.5 -110t-105.5 -37zM460 118h-251l-60 -118h-207l383 705h226l135 -705h-208zM436 266l-35 229l-117 -229h152z" />
    <glyph glyph-name="uni1EB3" unicode="&#x1eb3;" horiz-adv-x="682" 
d="M463 1009q52 0 70 -27t10 -66q-6 -34 -33 -58.5t-62 -56.5l-42 41q32 26 44.5 43.5t14.5 30.5t-4 16.5t-14 3.5q-10 0 -17.5 -6t-14.5 -27l-73 9q5 18 13 35.5t22 31t34.5 22t51.5 8.5zM386 599q-59 0 -92 37t-20 110l1 12h70q-3 -24 9.5 -37.5t49.5 -13.5q38 0 56 13.5
t22 37.5h71l-3 -12q-13 -73 -58.5 -110t-105.5 -37zM306 568q65 0 105.5 -26t53.5 -70l16 89h196l-100 -561h-195l16 89q-29 -44 -76 -70t-108 -26q-53 0 -93.5 21t-65.5 60t-32.5 95.5t5.5 128.5q11 64 38 114t64.5 84.5t82.5 53t93 18.5zM350 396q-45 0 -79 -29.5
t-44 -85.5q-10 -57 13.5 -86.5t68.5 -29.5q43 0 77.5 30t44.5 86q10 55 -13.5 85t-67.5 30z" />
    <glyph glyph-name="uni1EB4" unicode="&#x1eb4;" horiz-adv-x="752" 
d="M426 988q-28 0 -41 -37h-74q23 69 56.5 97t78.5 28q19 0 33 -5.5t25.5 -12.5t21.5 -12.5t22 -5.5q30 0 42 37h74q-23 -69 -57 -96.5t-79 -27.5q-18 0 -32 5.5t-25.5 12t-22 12t-22.5 5.5zM388 905q-3 -24 9.5 -37.5t49.5 -13.5q38 0 56 13.5t22 37.5h71l-3 -12
q-13 -73 -58.5 -110t-105.5 -37q-59 0 -92 37t-20 110l1 12h70zM460 118h-251l-60 -118h-207l383 705h226l135 -705h-208zM436 266l-35 229l-117 -229h152z" />
    <glyph glyph-name="uni1EB5" unicode="&#x1eb5;" horiz-adv-x="682" 
d="M403 929q19 0 33 -5.5t25.5 -12.5t21.5 -12.5t22 -5.5q30 0 42 37h74q-23 -69 -57 -96.5t-79 -27.5q-18 0 -32 5.5t-25.5 12t-22 12t-22.5 5.5q-28 0 -41 -37h-74q23 69 56.5 97t78.5 28zM386 599q-59 0 -92 37t-20 110l1 12h70q-3 -24 9.5 -37.5t49.5 -13.5
q38 0 56 13.5t22 37.5h71l-3 -12q-13 -73 -58.5 -110t-105.5 -37zM306 568q65 0 105.5 -26t53.5 -70l16 89h196l-100 -561h-195l16 89q-29 -44 -76 -70t-108 -26q-53 0 -93.5 21t-65.5 60t-32.5 95.5t5.5 128.5q11 64 38 114t64.5 84.5t82.5 53t93 18.5zM350 396
q-45 0 -79 -29.5t-44 -85.5q-10 -57 13.5 -86.5t68.5 -29.5q43 0 77.5 30t44.5 86q10 55 -13.5 85t-67.5 30z" />
    <glyph glyph-name="uni1EB6" unicode="&#x1eb6;" horiz-adv-x="752" 
d="M429 749q-64 0 -100 40.5t-22 119.5l2 13h76q-4 -26 9.5 -41t54.5 -15q42 0 61 15t23 41h77l-3 -13q-14 -80 -63 -120t-115 -40zM478 0l-18 118h-251l-60 -118h-207l383 705h226l135 -705h-208zM436 266l-35 229l-117 -229h152zM315 -73q31 0 48.5 -21t11.5 -53
q-6 -30 -30 -50.5t-56 -20.5q-31 0 -48 20.5t-11 50.5q5 32 29.5 53t55.5 21z" />
    <glyph glyph-name="uni1EB7" unicode="&#x1eb7;" horiz-adv-x="682" 
d="M386 602q-64 0 -100 40.5t-22 119.5l2 13h76q-4 -26 9.5 -41t54.5 -15q42 0 61 15t23 41h77l-3 -13q-14 -80 -63 -120t-115 -40zM306 568q65 0 105.5 -26t53.5 -70l16 89h196l-100 -561h-195l16 89q-29 -44 -76 -70t-108 -26q-53 0 -93.5 21t-65.5 60t-32.5 95.5
t5.5 128.5q11 64 38 114t64.5 84.5t82.5 53t93 18.5zM350 396q-45 0 -79 -29.5t-44 -85.5q-10 -57 13.5 -86.5t68.5 -29.5q43 0 77.5 30t44.5 86q10 55 -13.5 85t-67.5 30zM195 -147q5 32 29.5 53t55.5 21t48.5 -21t11.5 -53q-6 -30 -30 -50.5t-56 -20.5q-31 0 -48 20.5
t-11 50.5z" />
    <glyph glyph-name="uni1EB8" unicode="&#x1eb8;" horiz-adv-x="546" 
d="M286 551l-21 -117h230l-27 -149h-229l-22 -128h259l-28 -157h-456l124 708h456l-27 -157h-259zM127 -147q5 32 29.5 53t55.5 21t48.5 -21t11.5 -53q-6 -30 -30 -50.5t-56 -20.5q-31 0 -48 20.5t-11 50.5z" />
    <glyph glyph-name="uni1EB9" unicode="&#x1eb9;" horiz-adv-x="618" 
d="M359 568q63 0 112 -19.5t79.5 -55.5t42 -87.5t0.5 -114.5q-5 -25 -13 -46h-370q-3 -28 1 -46.5t13 -29t22.5 -15t29.5 -4.5q30 0 51 14.5t32 36.5h208q-16 -45 -45.5 -83t-69 -65.5t-89 -43.5t-105.5 -16q-62 0 -111 20.5t-80 58.5t-42 93.5t1 124.5q12 65 42 116.5
t74 87.5t99.5 55t117.5 19zM401 327q9 46 -13.5 66.5t-55.5 20.5q-38 0 -66 -21t-41 -66h176zM248 -73q31 0 48.5 -21t11.5 -53q-6 -30 -30 -50.5t-56 -20.5q-31 0 -48 20.5t-11 50.5q5 32 29.5 53t55.5 21z" />
    <glyph glyph-name="uni1EBA" unicode="&#x1eba;" horiz-adv-x="546" 
d="M390 981q56 0 75.5 -29.5t11.5 -71.5q-3 -19 -12.5 -34.5t-23.5 -29.5t-31.5 -29t-36.5 -32l-45 44q35 29 48 48t16 33q2 14 -4.5 17.5t-15.5 3.5q-11 0 -19 -6t-16 -29l-79 9q6 20 14.5 39t23.5 34t37.5 24t56.5 9zM286 551l-21 -117h230l-27 -149h-229l-22 -128h259
l-28 -157h-456l124 708h456l-27 -157h-259z" />
    <glyph glyph-name="uni1EBB" unicode="&#x1ebb;" horiz-adv-x="618" 
d="M382 754q-11 0 -19 -6t-16 -29l-79 9q6 20 14.5 39t23.5 34t37.5 24t56.5 9q56 0 75.5 -29.5t11.5 -71.5q-3 -19 -12.5 -34.5t-23.5 -29.5t-31.5 -29t-36.5 -32l-45 44q35 29 48 48t16 33q2 14 -4.5 17.5t-15.5 3.5zM359 568q63 0 112 -19.5t79.5 -55.5t42 -87.5
t0.5 -114.5q-5 -25 -13 -46h-370q-3 -28 1 -46.5t13 -29t22.5 -15t29.5 -4.5q30 0 51 14.5t32 36.5h208q-16 -45 -45.5 -83t-69 -65.5t-89 -43.5t-105.5 -16q-62 0 -111 20.5t-80 58.5t-42 93.5t1 124.5q12 65 42 116.5t74 87.5t99.5 55t117.5 19zM401 327q9 46 -13.5 66.5
t-55.5 20.5q-38 0 -66 -21t-41 -66h176z" />
    <glyph glyph-name="uni1EBC" unicode="&#x1ebc;" horiz-adv-x="546" 
d="M325 893q20 0 35 -6t28 -13.5t24 -13.5t24 -6q32 0 45 40h81q-26 -74 -63 -104t-85 -30q-20 0 -35 6t-28 13t-24 13t-24 6q-31 0 -45 -40h-80q26 74 62.5 104.5t84.5 30.5zM286 551l-21 -117h230l-27 -149h-229l-22 -128h259l-28 -157h-456l124 708h456l-27 -157h-259z
" />
    <glyph glyph-name="uni1EBD" unicode="&#x1ebd;" horiz-adv-x="618" 
d="M313 651q-31 0 -45 -40h-80q26 74 62.5 104.5t84.5 30.5q20 0 35 -6t28 -13.5t24 -13.5t24 -6q32 0 45 40h81q-26 -74 -63 -104t-85 -30q-20 0 -35 6t-28 13t-24 13t-24 6zM359 568q63 0 112 -19.5t79.5 -55.5t42 -87.5t0.5 -114.5q-5 -25 -13 -46h-370q-3 -28 1 -46.5
t13 -29t22.5 -15t29.5 -4.5q30 0 51 14.5t32 36.5h208q-16 -45 -45.5 -83t-69 -65.5t-89 -43.5t-105.5 -16q-62 0 -111 20.5t-80 58.5t-42 93.5t1 124.5q12 65 42 116.5t74 87.5t99.5 55t117.5 19zM401 327q9 46 -13.5 66.5t-55.5 20.5q-38 0 -66 -21t-41 -66h176z" />
    <glyph glyph-name="uni1EBE" unicode="&#x1ebe;" horiz-adv-x="546" 
d="M501 954l-184 -58l-17 62l172 87zM367 794l-105 -49l-18 73l136 66l112 -66l-35 -73zM286 551l-21 -117h230l-27 -149h-229l-22 -128h259l-28 -157h-456l124 708h456l-27 -157h-259z" />
    <glyph glyph-name="uni1EBF" unicode="&#x1ebf;" horiz-adv-x="618" 
d="M327 749l-17 62l172 87l29 -91zM272 598l-18 73l136 66l112 -66l-35 -73l-90 49zM359 568q63 0 112 -19.5t79.5 -55.5t42 -87.5t0.5 -114.5q-5 -25 -13 -46h-370q-3 -28 1 -46.5t13 -29t22.5 -15t29.5 -4.5q30 0 51 14.5t32 36.5h208q-16 -45 -45.5 -83t-69 -65.5
t-89 -43.5t-105.5 -16q-62 0 -111 20.5t-80 58.5t-42 93.5t1 124.5q12 65 42 116.5t74 87.5t99.5 55t117.5 19zM401 327q9 46 -13.5 66.5t-55.5 20.5q-38 0 -66 -21t-41 -66h176z" />
    <glyph glyph-name="uni1EC0" unicode="&#x1ec0;" horiz-adv-x="546" 
d="M511 954l-34 -67l-159 66l41 93zM367 794l-105 -49l-18 73l136 66l112 -66l-35 -73zM286 551l-21 -117h230l-27 -149h-229l-22 -128h259l-28 -157h-456l124 708h456l-27 -157h-259z" />
    <glyph glyph-name="uni1EC1" unicode="&#x1ec1;" horiz-adv-x="618" 
d="M487 740l-159 66l41 93l152 -92zM272 598l-18 73l136 66l112 -66l-35 -73l-90 49zM359 568q63 0 112 -19.5t79.5 -55.5t42 -87.5t0.5 -114.5q-5 -25 -13 -46h-370q-3 -28 1 -46.5t13 -29t22.5 -15t29.5 -4.5q30 0 51 14.5t32 36.5h208q-16 -45 -45.5 -83t-69 -65.5
t-89 -43.5t-105.5 -16q-62 0 -111 20.5t-80 58.5t-42 93.5t1 124.5q12 65 42 116.5t74 87.5t99.5 55t117.5 19zM401 327q9 46 -13.5 66.5t-55.5 20.5q-38 0 -66 -21t-41 -66h176z" />
    <glyph glyph-name="uni1EC2" unicode="&#x1ec2;" horiz-adv-x="546" 
d="M530 1063q52 0 70 -27t10 -66q-6 -34 -33 -58.5t-62 -56.5l-42 41q32 26 44.5 43.5t14.5 30.5t-4 16.5t-14 3.5q-10 0 -17.5 -6t-14.5 -27l-73 9q5 18 13 35.5t22 31t34.5 22t51.5 8.5zM367 794l-105 -49l-18 73l136 66l112 -66l-35 -73zM286 551l-21 -117h230l-27 -149
h-229l-22 -128h259l-28 -157h-456l124 708h456l-27 -157h-259z" />
    <glyph glyph-name="uni1EC3" unicode="&#x1ec3;" horiz-adv-x="618" 
d="M540 916q52 0 70 -27t10 -66q-6 -34 -33 -58.5t-62 -56.5l-42 41q32 26 44.5 43.5t14.5 30.5t-4 16.5t-14 3.5q-10 0 -17.5 -6t-14.5 -27l-73 9q5 18 13 35.5t22 31t34.5 22t51.5 8.5zM272 598l-18 73l136 66l112 -66l-35 -73l-90 49zM359 568q63 0 112 -19.5t79.5 -55.5
t42 -87.5t0.5 -114.5q-5 -25 -13 -46h-370q-3 -28 1 -46.5t13 -29t22.5 -15t29.5 -4.5q30 0 51 14.5t32 36.5h208q-16 -45 -45.5 -83t-69 -65.5t-89 -43.5t-105.5 -16q-62 0 -111 20.5t-80 58.5t-42 93.5t1 124.5q12 65 42 116.5t74 87.5t99.5 55t117.5 19zM401 327
q9 46 -13.5 66.5t-55.5 20.5q-38 0 -66 -21t-41 -66h176z" />
    <glyph glyph-name="uni1EC4" unicode="&#x1ec4;" horiz-adv-x="546" 
d="M373 998q16 0 27.5 -5t21.5 -10.5t19 -10.5t19 -5q25 0 35 31h63q-20 -57 -49 -80.5t-67 -23.5q-16 0 -27.5 4.5t-21.5 10t-18.5 10t-18.5 4.5q-25 0 -36 -31h-62q20 58 48.5 82t66.5 24zM367 794l-105 -49l-18 73l136 66l112 -66l-35 -73zM286 551l-21 -117h230
l-27 -149h-229l-22 -128h259l-28 -157h-456l124 708h456l-27 -157h-259z" />
    <glyph glyph-name="uni1EC5" unicode="&#x1ec5;" horiz-adv-x="618" 
d="M366 776q-25 0 -36 -31h-62q20 58 48.5 82t66.5 24q16 0 27.5 -5t21.5 -10.5t19 -10.5t19 -5q25 0 35 31h63q-20 -57 -49 -80.5t-67 -23.5q-16 0 -27.5 4.5t-21.5 10t-18.5 10t-18.5 4.5zM272 598l-18 73l136 66l112 -66l-35 -73l-90 49zM359 568q63 0 112 -19.5
t79.5 -55.5t42 -87.5t0.5 -114.5q-5 -25 -13 -46h-370q-3 -28 1 -46.5t13 -29t22.5 -15t29.5 -4.5q30 0 51 14.5t32 36.5h208q-16 -45 -45.5 -83t-69 -65.5t-89 -43.5t-105.5 -16q-62 0 -111 20.5t-80 58.5t-42 93.5t1 124.5q12 65 42 116.5t74 87.5t99.5 55t117.5 19z
M401 327q9 46 -13.5 66.5t-55.5 20.5q-38 0 -66 -21t-41 -66h176z" />
    <glyph glyph-name="uni1EC6" unicode="&#x1ec6;" horiz-adv-x="546" 
d="M369 802l-114 -53l-20 79l148 72l122 -72l-39 -79zM286 551l-21 -117h230l-27 -149h-229l-22 -128h259l-28 -157h-456l124 708h456l-27 -157h-259zM127 -147q5 32 29.5 53t55.5 21t48.5 -21t11.5 -53q-6 -30 -30 -50.5t-56 -20.5q-31 0 -48 20.5t-11 50.5z" />
    <glyph glyph-name="uni1EC7" unicode="&#x1ec7;" horiz-adv-x="618" 
d="M265 602l-20 79l148 72l122 -72l-39 -79l-97 53zM359 568q63 0 112 -19.5t79.5 -55.5t42 -87.5t0.5 -114.5q-5 -25 -13 -46h-370q-3 -28 1 -46.5t13 -29t22.5 -15t29.5 -4.5q30 0 51 14.5t32 36.5h208q-16 -45 -45.5 -83t-69 -65.5t-89 -43.5t-105.5 -16q-62 0 -111 20.5
t-80 58.5t-42 93.5t1 124.5q12 65 42 116.5t74 87.5t99.5 55t117.5 19zM401 327q9 46 -13.5 66.5t-55.5 20.5q-38 0 -66 -21t-41 -66h176zM248 -73q31 0 48.5 -21t11.5 -53q-6 -30 -30 -50.5t-56 -20.5q-31 0 -48 20.5t-11 50.5q5 32 29.5 53t55.5 21z" />
    <glyph glyph-name="uni1EC8" unicode="&#x1ec8;" horiz-adv-x="306" 
d="M269 981q56 0 75.5 -29.5t11.5 -71.5q-3 -19 -12.5 -34.5t-23.5 -29.5t-31.5 -29t-36.5 -32l-45 44q35 29 48 48t16 33q2 14 -4.5 17.5t-15.5 3.5q-11 0 -19 -6t-16 -29l-79 9q6 20 14.5 39t23.5 34t37.5 24t56.5 9zM313 708l-124 -708h-197l124 708h197z" />
    <glyph glyph-name="uni1EC9" unicode="&#x1ec9;" horiz-adv-x="297" 
d="M239 834q56 0 75.5 -29.5t11.5 -71.5q-3 -19 -12.5 -34.5t-23.5 -29.5t-31.5 -29t-36.5 -32l-45 44q35 29 48 48t16 33q2 14 -4.5 17.5t-15.5 3.5q-11 0 -19 -6t-16 -29l-79 9q6 20 14.5 39t23.5 34t37.5 24t56.5 9zM296 561l-99 -561h-197l100 561h196z" />
    <glyph glyph-name="uni1ECA" unicode="&#x1eca;" horiz-adv-x="306" 
d="M313 708l-124 -708h-197l124 708h197zM6 -147q5 32 29.5 53t55.5 21t48.5 -21t11.5 -53q-6 -30 -30 -50.5t-56 -20.5q-31 0 -48 20.5t-11 50.5z" />
    <glyph glyph-name="uni1ECB" unicode="&#x1ecb;" horiz-adv-x="304" 
d="M114 716q8 43 44 72t90 29q53 0 78.5 -29t17.5 -72q-7 -42 -43 -70t-89 -28q-54 0 -79.5 28t-18.5 70zM300 561l-99 -561h-197l99 561h197zM5 -147q5 32 29.5 53t55.5 21t48.5 -21t11.5 -53q-6 -30 -30 -50.5t-56 -20.5q-31 0 -48 20.5t-11 50.5z" />
    <glyph glyph-name="uni1ECC" unicode="&#x1ecc;" 
d="M426 719q87 0 152.5 -29.5t106 -82t55 -126t-0.5 -160.5q-13 -72 -46 -132t-83 -103.5t-116 -68t-144 -24.5q-89 0 -155 29.5t-106.5 82t-54.5 126t2 160.5q13 72 46 132.5t83.5 104t116.5 67.5t144 24zM411 537q-72 0 -121 -46.5t-63 -125.5q-14 -86 21 -137.5
t117 -51.5q72 0 120.5 47t62.5 125q16 87 -20 138t-117 51zM241 -147q5 32 29.5 53t55.5 21t48.5 -21t11.5 -53q-6 -30 -30 -50.5t-56 -20.5q-31 0 -48 20.5t-11 50.5z" />
    <glyph glyph-name="uni1ECD" unicode="&#x1ecd;" horiz-adv-x="639" 
d="M365 568q64 0 115.5 -21t85.5 -60.5t47 -96t0 -127.5q-11 -63 -42 -113.5t-75.5 -85t-100.5 -53t-117 -18.5q-65 0 -117.5 21t-86.5 60.5t-47.5 96t-0.5 127.5q11 63 42.5 113.5t76.5 85t101.5 53t118.5 18.5zM340 398q-37 0 -70.5 -28t-44.5 -89q-10 -61 13.5 -89.5
t60.5 -28.5q38 0 71 28.5t44 89.5t-12.5 89t-61.5 28zM173 -147q5 32 29.5 53t55.5 21t48.5 -21t11.5 -53q-6 -30 -30 -50.5t-56 -20.5q-31 0 -48 20.5t-11 50.5z" />
    <glyph glyph-name="uni1ECE" unicode="&#x1ece;" 
d="M476 981q56 0 75.5 -29.5t11.5 -71.5q-3 -19 -12.5 -34.5t-23.5 -29.5t-31.5 -29t-36.5 -32l-45 44q35 29 48 48t16 33q2 14 -4.5 17.5t-15.5 3.5q-11 0 -19 -6t-16 -29l-79 9q6 20 14.5 39t23.5 34t37.5 24t56.5 9zM426 719q87 0 152.5 -29.5t106 -82t55 -126
t-0.5 -160.5q-13 -72 -46 -132t-83 -103.5t-116 -68t-144 -24.5q-89 0 -155 29.5t-106.5 82t-54.5 126t2 160.5q13 72 46 132.5t83.5 104t116.5 67.5t144 24zM411 537q-72 0 -121 -46.5t-63 -125.5q-14 -86 21 -137.5t117 -51.5q72 0 120.5 47t62.5 125q16 87 -20 138
t-117 51z" />
    <glyph glyph-name="uni1ECF" unicode="&#x1ecf;" horiz-adv-x="639" 
d="M410 834q56 0 75.5 -29.5t11.5 -71.5q-3 -19 -12.5 -34.5t-23.5 -29.5t-31.5 -29t-36.5 -32l-45 44q35 29 48 48t16 33q2 14 -4.5 17.5t-15.5 3.5q-11 0 -19 -6t-16 -29l-79 9q6 20 14.5 39t23.5 34t37.5 24t56.5 9zM365 568q64 0 115.5 -21t85.5 -60.5t47 -96t0 -127.5
q-11 -63 -42 -113.5t-75.5 -85t-100.5 -53t-117 -18.5q-65 0 -117.5 21t-86.5 60.5t-47.5 96t-0.5 127.5q11 63 42.5 113.5t76.5 85t101.5 53t118.5 18.5zM340 398q-37 0 -70.5 -28t-44.5 -89q-10 -61 13.5 -89.5t60.5 -28.5q38 0 71 28.5t44 89.5t-12.5 89t-61.5 28z" />
    <glyph glyph-name="uni1ED0" unicode="&#x1ed0;" 
d="M587 954l-184 -58l-17 62l172 87zM453 794l-105 -49l-18 73l136 66l112 -66l-35 -73zM426 719q87 0 152.5 -29.5t106 -82t55 -126t-0.5 -160.5q-13 -72 -46 -132t-83 -103.5t-116 -68t-144 -24.5q-89 0 -155 29.5t-106.5 82t-54.5 126t2 160.5q13 72 46 132.5t83.5 104
t116.5 67.5t144 24zM411 537q-72 0 -121 -46.5t-63 -125.5q-14 -86 21 -137.5t117 -51.5q72 0 120.5 47t62.5 125q16 87 -20 138t-117 51z" />
    <glyph glyph-name="uni1ED1" unicode="&#x1ed1;" horiz-adv-x="639" 
d="M521 807l-184 -58l-17 62l172 87zM387 647l-105 -49l-18 73l136 66l112 -66l-35 -73zM365 568q64 0 115.5 -21t85.5 -60.5t47 -96t0 -127.5q-11 -63 -42 -113.5t-75.5 -85t-100.5 -53t-117 -18.5q-65 0 -117.5 21t-86.5 60.5t-47.5 96t-0.5 127.5q11 63 42.5 113.5
t76.5 85t101.5 53t118.5 18.5zM340 398q-37 0 -70.5 -28t-44.5 -89q-10 -61 13.5 -89.5t60.5 -28.5q38 0 71 28.5t44 89.5t-12.5 89t-61.5 28z" />
    <glyph glyph-name="uni1ED2" unicode="&#x1ed2;" 
d="M597 954l-34 -67l-159 66l41 93zM453 794l-105 -49l-18 73l136 66l112 -66l-35 -73zM426 719q87 0 152.5 -29.5t106 -82t55 -126t-0.5 -160.5q-13 -72 -46 -132t-83 -103.5t-116 -68t-144 -24.5q-89 0 -155 29.5t-106.5 82t-54.5 126t2 160.5q13 72 46 132.5t83.5 104
t116.5 67.5t144 24zM411 537q-72 0 -121 -46.5t-63 -125.5q-14 -86 21 -137.5t117 -51.5q72 0 120.5 47t62.5 125q16 87 -20 138t-117 51z" />
    <glyph glyph-name="uni1ED3" unicode="&#x1ed3;" horiz-adv-x="639" 
d="M531 807l-34 -67l-159 66l41 93zM387 647l-105 -49l-18 73l136 66l112 -66l-35 -73zM365 568q64 0 115.5 -21t85.5 -60.5t47 -96t0 -127.5q-11 -63 -42 -113.5t-75.5 -85t-100.5 -53t-117 -18.5q-65 0 -117.5 21t-86.5 60.5t-47.5 96t-0.5 127.5q11 63 42.5 113.5
t76.5 85t101.5 53t118.5 18.5zM340 398q-37 0 -70.5 -28t-44.5 -89q-10 -61 13.5 -89.5t60.5 -28.5q38 0 71 28.5t44 89.5t-12.5 89t-61.5 28z" />
    <glyph glyph-name="uni1ED4" unicode="&#x1ed4;" 
d="M616 1063q52 0 70 -27t10 -66q-6 -34 -33 -58.5t-62 -56.5l-42 41q32 26 44.5 43.5t14.5 30.5t-4 16.5t-14 3.5q-10 0 -17.5 -6t-14.5 -27l-73 9q5 18 13 35.5t22 31t34.5 22t51.5 8.5zM453 794l-105 -49l-18 73l136 66l112 -66l-35 -73zM426 719q87 0 152.5 -29.5
t106 -82t55 -126t-0.5 -160.5q-13 -72 -46 -132t-83 -103.5t-116 -68t-144 -24.5q-89 0 -155 29.5t-106.5 82t-54.5 126t2 160.5q13 72 46 132.5t83.5 104t116.5 67.5t144 24zM411 537q-72 0 -121 -46.5t-63 -125.5q-14 -86 21 -137.5t117 -51.5q72 0 120.5 47t62.5 125
q16 87 -20 138t-117 51z" />
    <glyph glyph-name="uni1ED5" unicode="&#x1ed5;" horiz-adv-x="639" 
d="M550 916q52 0 70 -27t10 -66q-6 -34 -33 -58.5t-62 -56.5l-42 41q32 26 44.5 43.5t14.5 30.5t-4 16.5t-14 3.5q-10 0 -17.5 -6t-14.5 -27l-73 9q5 18 13 35.5t22 31t34.5 22t51.5 8.5zM387 647l-105 -49l-18 73l136 66l112 -66l-35 -73zM365 568q64 0 115.5 -21
t85.5 -60.5t47 -96t0 -127.5q-11 -63 -42 -113.5t-75.5 -85t-100.5 -53t-117 -18.5q-65 0 -117.5 21t-86.5 60.5t-47.5 96t-0.5 127.5q11 63 42.5 113.5t76.5 85t101.5 53t118.5 18.5zM340 398q-37 0 -70.5 -28t-44.5 -89q-10 -61 13.5 -89.5t60.5 -28.5q38 0 71 28.5
t44 89.5t-12.5 89t-61.5 28z" />
    <glyph glyph-name="uni1ED6" unicode="&#x1ed6;" 
d="M459 998q16 0 27.5 -5t21.5 -10.5t19 -10.5t19 -5q25 0 35 31h63q-20 -57 -49 -80.5t-67 -23.5q-16 0 -27.5 4.5t-21.5 10t-18.5 10t-18.5 4.5q-25 0 -36 -31h-62q20 58 48.5 82t66.5 24zM453 794l-105 -49l-18 73l136 66l112 -66l-35 -73zM426 719q87 0 152.5 -29.5
t106 -82t55 -126t-0.5 -160.5q-13 -72 -46 -132t-83 -103.5t-116 -68t-144 -24.5q-89 0 -155 29.5t-106.5 82t-54.5 126t2 160.5q13 72 46 132.5t83.5 104t116.5 67.5t144 24zM411 537q-72 0 -121 -46.5t-63 -125.5q-14 -86 21 -137.5t117 -51.5q72 0 120.5 47t62.5 125
q16 87 -20 138t-117 51z" />
    <glyph glyph-name="uni1ED7" unicode="&#x1ed7;" horiz-adv-x="639" 
d="M393 851q16 0 27.5 -5t21.5 -10.5t19 -10.5t19 -5q25 0 35 31h63q-20 -57 -49 -80.5t-67 -23.5q-16 0 -27.5 4.5t-21.5 10t-18.5 10t-18.5 4.5q-25 0 -36 -31h-62q20 58 48.5 82t66.5 24zM387 647l-105 -49l-18 73l136 66l112 -66l-35 -73zM365 568q64 0 115.5 -21
t85.5 -60.5t47 -96t0 -127.5q-11 -63 -42 -113.5t-75.5 -85t-100.5 -53t-117 -18.5q-65 0 -117.5 21t-86.5 60.5t-47.5 96t-0.5 127.5q11 63 42.5 113.5t76.5 85t101.5 53t118.5 18.5zM340 398q-37 0 -70.5 -28t-44.5 -89q-10 -61 13.5 -89.5t60.5 -28.5q38 0 71 28.5
t44 89.5t-12.5 89t-61.5 28z" />
    <glyph glyph-name="uni1ED8" unicode="&#x1ed8;" 
d="M455 802l-114 -53l-20 79l148 72l122 -72l-39 -79zM426 719q87 0 152.5 -29.5t106 -82t55 -126t-0.5 -160.5q-13 -72 -46 -132t-83 -103.5t-116 -68t-144 -24.5q-89 0 -155 29.5t-106.5 82t-54.5 126t2 160.5q13 72 46 132.5t83.5 104t116.5 67.5t144 24zM411 537
q-72 0 -121 -46.5t-63 -125.5q-14 -86 21 -137.5t117 -51.5q72 0 120.5 47t62.5 125q16 87 -20 138t-117 51zM241 -147q5 32 29.5 53t55.5 21t48.5 -21t11.5 -53q-6 -30 -30 -50.5t-56 -20.5q-31 0 -48 20.5t-11 50.5z" />
    <glyph glyph-name="uni1ED9" unicode="&#x1ed9;" horiz-adv-x="639" 
d="M389 655l-114 -53l-20 79l148 72l122 -72l-39 -79zM365 568q64 0 115.5 -21t85.5 -60.5t47 -96t0 -127.5q-11 -63 -42 -113.5t-75.5 -85t-100.5 -53t-117 -18.5q-65 0 -117.5 21t-86.5 60.5t-47.5 96t-0.5 127.5q11 63 42.5 113.5t76.5 85t101.5 53t118.5 18.5zM340 398
q-37 0 -70.5 -28t-44.5 -89q-10 -61 13.5 -89.5t60.5 -28.5q38 0 71 28.5t44 89.5t-12.5 89t-61.5 28zM173 -147q5 32 29.5 53t55.5 21t48.5 -21t11.5 -53q-6 -30 -30 -50.5t-56 -20.5q-31 0 -48 20.5t-11 50.5z" />
    <glyph glyph-name="uni1EDA" unicode="&#x1eda;" 
d="M377 756l-19 68l187 94l32 -98zM774 812q-11 -64 -40 -110t-67 -75q51 -54 70 -131.5t2 -174.5q-13 -72 -46 -132t-83 -103.5t-116 -68t-144 -24.5q-89 0 -155 29.5t-106.5 82t-54.5 126t2 160.5q13 72 46 132.5t83.5 104t116.5 67.5t144 24q50 0 97 -11q47 2 77 23.5
t41 80.5h133zM548 348q16 87 -20 138t-117 51q-72 0 -121 -46.5t-63 -125.5q-14 -86 21 -137.5t117 -51.5q72 0 120.5 47t62.5 125z" />
    <glyph glyph-name="uni1EDB" unicode="&#x1edb;" horiz-adv-x="639" 
d="M311 609l-19 68l187 94l32 -98zM676 665q-11 -64 -39 -109.5t-66 -74.5q31 -39 42.5 -94t-0.5 -124q-11 -63 -42 -113.5t-75.5 -85t-100.5 -53t-117 -18.5q-65 0 -117.5 21t-86.5 60.5t-47.5 96t-0.5 127.5q11 63 42.5 113.5t76.5 85t101.5 53t118.5 18.5q39 0 68 -7
q43 3 71.5 25.5t38.5 78.5h133zM414 281q11 61 -12.5 89t-61.5 28q-37 0 -70.5 -28t-44.5 -89q-10 -61 13.5 -89.5t60.5 -28.5q38 0 71 28.5t44 89.5z" />
    <glyph glyph-name="uni1EDC" unicode="&#x1edc;" 
d="M547 748l-173 72l44 100l166 -99zM774 812q-11 -64 -40 -110t-67 -75q51 -54 70 -131.5t2 -174.5q-13 -72 -46 -132t-83 -103.5t-116 -68t-144 -24.5q-89 0 -155 29.5t-106.5 82t-54.5 126t2 160.5q13 72 46 132.5t83.5 104t116.5 67.5t144 24q50 0 97 -11q47 2 77 23.5
t41 80.5h133zM548 348q16 87 -20 138t-117 51q-72 0 -121 -46.5t-63 -125.5q-14 -86 21 -137.5t117 -51.5q72 0 120.5 47t62.5 125z" />
    <glyph glyph-name="uni1EDD" unicode="&#x1edd;" horiz-adv-x="639" 
d="M481 601l-173 72l44 100l166 -99zM676 665q-11 -64 -39 -109.5t-66 -74.5q31 -39 42.5 -94t-0.5 -124q-11 -63 -42 -113.5t-75.5 -85t-100.5 -53t-117 -18.5q-65 0 -117.5 21t-86.5 60.5t-47.5 96t-0.5 127.5q11 63 42.5 113.5t76.5 85t101.5 53t118.5 18.5q39 0 68 -7
q43 3 71.5 25.5t38.5 78.5h133zM414 281q11 61 -12.5 89t-61.5 28q-37 0 -70.5 -28t-44.5 -89q-10 -61 13.5 -89.5t60.5 -28.5q38 0 71 28.5t44 89.5z" />
    <glyph glyph-name="uni1EDE" unicode="&#x1ede;" 
d="M458 901q-11 0 -19 -6t-16 -29l-79 9q6 20 14.5 39t23.5 34t37.5 24t56.5 9q56 0 75.5 -29.5t11.5 -71.5q-3 -19 -12.5 -34.5t-23.5 -29.5t-31.5 -29t-36.5 -32l-45 44q35 29 48 48t16 33q2 14 -4.5 17.5t-15.5 3.5zM774 812q-11 -64 -40 -110t-67 -75q51 -54 70 -131.5
t2 -174.5q-13 -72 -46 -132t-83 -103.5t-116 -68t-144 -24.5q-89 0 -155 29.5t-106.5 82t-54.5 126t2 160.5q13 72 46 132.5t83.5 104t116.5 67.5t144 24q50 0 97 -11q47 2 77 23.5t41 80.5h133zM548 348q16 87 -20 138t-117 51q-72 0 -121 -46.5t-63 -125.5
q-14 -86 21 -137.5t117 -51.5q72 0 120.5 47t62.5 125z" />
    <glyph glyph-name="uni1EDF" unicode="&#x1edf;" horiz-adv-x="639" 
d="M392 754q-11 0 -19 -6t-16 -29l-79 9q6 20 14.5 39t23.5 34t37.5 24t56.5 9q56 0 75.5 -29.5t11.5 -71.5q-3 -19 -12.5 -34.5t-23.5 -29.5t-31.5 -29t-36.5 -32l-45 44q35 29 48 48t16 33q2 14 -4.5 17.5t-15.5 3.5zM676 665q-11 -64 -39 -109.5t-66 -74.5
q31 -39 42.5 -94t-0.5 -124q-11 -63 -42 -113.5t-75.5 -85t-100.5 -53t-117 -18.5q-65 0 -117.5 21t-86.5 60.5t-47.5 96t-0.5 127.5q11 63 42.5 113.5t76.5 85t101.5 53t118.5 18.5q39 0 68 -7q43 3 71.5 25.5t38.5 78.5h133zM414 281q11 61 -12.5 89t-61.5 28
q-37 0 -70.5 -28t-44.5 -89q-10 -61 13.5 -89.5t60.5 -28.5q38 0 71 28.5t44 89.5z" />
    <glyph glyph-name="uni1EE0" unicode="&#x1ee0;" 
d="M368 836q-31 0 -45 -40h-80q26 74 62.5 104.5t84.5 30.5q20 0 35 -6t28 -13.5t24 -13.5t24 -6q32 0 45 40h81q-26 -74 -63 -104t-85 -30q-20 0 -35 6t-28 13t-24 13t-24 6zM774 812q-11 -64 -40 -110t-67 -75q51 -54 70 -131.5t2 -174.5q-13 -72 -46 -132t-83 -103.5
t-116 -68t-144 -24.5q-89 0 -155 29.5t-106.5 82t-54.5 126t2 160.5q13 72 46 132.5t83.5 104t116.5 67.5t144 24q50 0 97 -11q47 2 77 23.5t41 80.5h133zM548 348q16 87 -20 138t-117 51q-72 0 -121 -46.5t-63 -125.5q-14 -86 21 -137.5t117 -51.5q72 0 120.5 47t62.5 125z
" />
    <glyph glyph-name="uni1EE1" unicode="&#x1ee1;" horiz-adv-x="639" 
d="M291 669q-31 0 -45 -40h-80q26 74 62.5 104.5t84.5 30.5q20 0 35 -6t28 -13.5t24 -13.5t24 -6q32 0 45 40h81q-26 -74 -63 -104t-85 -30q-20 0 -35 6t-28 13t-24 13t-24 6zM676 665q-11 -64 -39 -109.5t-66 -74.5q31 -39 42.5 -94t-0.5 -124q-11 -63 -42 -113.5
t-75.5 -85t-100.5 -53t-117 -18.5q-65 0 -117.5 21t-86.5 60.5t-47.5 96t-0.5 127.5q11 63 42.5 113.5t76.5 85t101.5 53t118.5 18.5q39 0 68 -7q43 3 71.5 25.5t38.5 78.5h133zM414 281q11 61 -12.5 89t-61.5 28q-37 0 -70.5 -28t-44.5 -89q-10 -61 13.5 -89.5t60.5 -28.5
q38 0 71 28.5t44 89.5z" />
    <glyph glyph-name="uni1EE2" unicode="&#x1ee2;" 
d="M774 812q-11 -64 -40 -110t-67 -75q51 -54 70 -131.5t2 -174.5q-13 -72 -46 -132t-83 -103.5t-116 -68t-144 -24.5q-89 0 -155 29.5t-106.5 82t-54.5 126t2 160.5q13 72 46 132.5t83.5 104t116.5 67.5t144 24q50 0 97 -11q47 2 77 23.5t41 80.5h133zM548 348
q16 87 -20 138t-117 51q-72 0 -121 -46.5t-63 -125.5q-14 -86 21 -137.5t117 -51.5q72 0 120.5 47t62.5 125zM326 -73q31 0 48.5 -21t11.5 -53q-6 -30 -30 -50.5t-56 -20.5q-31 0 -48 20.5t-11 50.5q5 32 29.5 53t55.5 21z" />
    <glyph glyph-name="uni1EE3" unicode="&#x1ee3;" horiz-adv-x="639" 
d="M676 665q-11 -64 -39 -109.5t-66 -74.5q31 -39 42.5 -94t-0.5 -124q-11 -63 -42 -113.5t-75.5 -85t-100.5 -53t-117 -18.5q-65 0 -117.5 21t-86.5 60.5t-47.5 96t-0.5 127.5q11 63 42.5 113.5t76.5 85t101.5 53t118.5 18.5q39 0 68 -7q43 3 71.5 25.5t38.5 78.5h133z
M414 281q11 61 -12.5 89t-61.5 28q-37 0 -70.5 -28t-44.5 -89q-10 -61 13.5 -89.5t60.5 -28.5q38 0 71 28.5t44 89.5zM258 -73q31 0 48.5 -21t11.5 -53q-6 -30 -30 -50.5t-56 -20.5q-31 0 -48 20.5t-11 50.5q5 32 29.5 53t55.5 21z" />
    <glyph glyph-name="uni1EE4" unicode="&#x1ee4;" horiz-adv-x="708" 
d="M309 708l-71 -404q-11 -58 9 -91.5t76 -33.5t88 33.5t43 91.5l71 404h195l-70 -404q-14 -78 -48.5 -136t-83 -97t-108 -58.5t-124.5 -19.5t-116 19.5t-84 58.5t-45 97t1 136l71 404h196zM190 -147q5 32 29.5 53t55.5 21t48.5 -21t11.5 -53q-6 -30 -30 -50.5t-56 -20.5
q-31 0 -48 20.5t-11 50.5z" />
    <glyph glyph-name="uni1EE5" unicode="&#x1ee5;" horiz-adv-x="676" 
d="M671 561l-98 -561h-197l16 93q-32 -43 -81.5 -70.5t-113.5 -27.5q-97 0 -141 64.5t-24 176.5l57 325h196l-53 -301q-8 -49 12.5 -76t63.5 -27q44 0 74.5 27.5t39.5 79.5v-5l53 302h196zM277 -73q31 0 48.5 -21t11.5 -53q-6 -30 -30 -50.5t-56 -20.5q-31 0 -48 20.5
t-11 50.5q5 32 29.5 53t55.5 21z" />
    <glyph glyph-name="uni1EE6" unicode="&#x1ee6;" horiz-adv-x="708" 
d="M471 981q56 0 75.5 -29.5t11.5 -71.5q-3 -19 -12.5 -34.5t-23.5 -29.5t-31.5 -29t-36.5 -32l-45 44q35 29 48 48t16 33q2 14 -4.5 17.5t-15.5 3.5q-11 0 -19 -6t-16 -29l-79 9q6 20 14.5 39t23.5 34t37.5 24t56.5 9zM309 708l-71 -404q-11 -58 9 -91.5t76 -33.5t88 33.5
t43 91.5l71 404h195l-70 -404q-14 -78 -48.5 -136t-83 -97t-108 -58.5t-124.5 -19.5t-116 19.5t-84 58.5t-45 97t1 136l71 404h196z" />
    <glyph glyph-name="uni1EE7" unicode="&#x1ee7;" horiz-adv-x="676" 
d="M411 754q-11 0 -19 -6t-16 -29l-79 9q6 20 14.5 39t23.5 34t37.5 24t56.5 9q56 0 75.5 -29.5t11.5 -71.5q-3 -19 -12.5 -34.5t-23.5 -29.5t-31.5 -29t-36.5 -32l-45 44q35 29 48 48t16 33q2 14 -4.5 17.5t-15.5 3.5zM671 561l-98 -561h-197l16 93q-32 -43 -81.5 -70.5
t-113.5 -27.5q-97 0 -141 64.5t-24 176.5l57 325h196l-53 -301q-8 -49 12.5 -76t63.5 -27q44 0 74.5 27.5t39.5 79.5v-5l53 302h196z" />
    <glyph glyph-name="uni1EE8" unicode="&#x1ee8;" horiz-adv-x="708" 
d="M372 756l-19 68l187 94l32 -98zM852 812q-14 -82 -55.5 -134t-95.5 -79l-51 -295q-14 -78 -48.5 -136t-83 -97t-108 -58.5t-124.5 -19.5t-116 19.5t-84 58.5t-45 97t1 136l71 404h196l-71 -404q-11 -58 9 -91.5t76 -33.5t88 33.5t43 91.5l71 404h70q49 0 81 22t43 82h133
z" />
    <glyph glyph-name="uni1EE9" unicode="&#x1ee9;" horiz-adv-x="676" 
d="M330 609l-19 68l187 94l32 -98zM804 665q-14 -83 -56 -135t-96 -78l-79 -452h-197l16 93q-32 -43 -81.5 -70.5t-113.5 -27.5q-97 0 -141 64.5t-24 176.5l57 325h196l-53 -301q-8 -49 12.5 -76t63.5 -27q44 0 74.5 27.5t39.5 79.5v-5l53 302h72q49 0 81 22t43 82h133z" />
    <glyph glyph-name="uni1EEA" unicode="&#x1eea;" horiz-adv-x="708" 
d="M542 748l-173 72l44 100l166 -99zM852 812q-14 -82 -55.5 -134t-95.5 -79l-51 -295q-14 -78 -48.5 -136t-83 -97t-108 -58.5t-124.5 -19.5t-116 19.5t-84 58.5t-45 97t1 136l71 404h196l-71 -404q-11 -58 9 -91.5t76 -33.5t88 33.5t43 91.5l71 404h70q49 0 81 22t43 82
h133z" />
    <glyph glyph-name="uni1EEB" unicode="&#x1eeb;" horiz-adv-x="676" 
d="M500 601l-173 72l44 100l166 -99zM804 665q-14 -83 -56 -135t-96 -78l-79 -452h-197l16 93q-32 -43 -81.5 -70.5t-113.5 -27.5q-97 0 -141 64.5t-24 176.5l57 325h196l-53 -301q-8 -49 12.5 -76t63.5 -27q44 0 74.5 27.5t39.5 79.5v-5l53 302h72q49 0 81 22t43 82h133z
" />
    <glyph glyph-name="uni1EEC" unicode="&#x1eec;" horiz-adv-x="708" 
d="M453 901q-11 0 -19 -6t-16 -29l-79 9q6 20 14.5 39t23.5 34t37.5 24t56.5 9q56 0 75.5 -29.5t11.5 -71.5q-3 -19 -12.5 -34.5t-23.5 -29.5t-31.5 -29t-36.5 -32l-45 44q35 29 48 48t16 33q2 14 -4.5 17.5t-15.5 3.5zM852 812q-14 -82 -55.5 -134t-95.5 -79l-51 -295
q-14 -78 -48.5 -136t-83 -97t-108 -58.5t-124.5 -19.5t-116 19.5t-84 58.5t-45 97t1 136l71 404h196l-71 -404q-11 -58 9 -91.5t76 -33.5t88 33.5t43 91.5l71 404h70q49 0 81 22t43 82h133z" />
    <glyph glyph-name="uni1EED" unicode="&#x1eed;" horiz-adv-x="676" 
d="M411 754q-11 0 -19 -6t-16 -29l-79 9q6 20 14.5 39t23.5 34t37.5 24t56.5 9q56 0 75.5 -29.5t11.5 -71.5q-3 -19 -12.5 -34.5t-23.5 -29.5t-31.5 -29t-36.5 -32l-45 44q35 29 48 48t16 33q2 14 -4.5 17.5t-15.5 3.5zM804 665q-14 -83 -56 -135t-96 -78l-79 -452h-197
l16 93q-32 -43 -81.5 -70.5t-113.5 -27.5q-97 0 -141 64.5t-24 176.5l57 325h196l-53 -301q-8 -49 12.5 -76t63.5 -27q44 0 74.5 27.5t39.5 79.5v-5l53 302h72q49 0 81 22t43 82h133z" />
    <glyph glyph-name="uni1EEE" unicode="&#x1eee;" horiz-adv-x="708" 
d="M384 798q-31 0 -45 -40h-80q26 74 62.5 104.5t84.5 30.5q20 0 35 -6t28 -13.5t24 -13.5t24 -6q32 0 45 40h81q-26 -74 -63 -104t-85 -30q-20 0 -35 6t-28 13t-24 13t-24 6zM852 812q-14 -82 -55.5 -134t-95.5 -79l-51 -295q-14 -78 -48.5 -136t-83 -97t-108 -58.5
t-124.5 -19.5t-116 19.5t-84 58.5t-45 97t1 136l71 404h196l-71 -404q-11 -58 9 -91.5t76 -33.5t88 33.5t43 91.5l71 404h70q49 0 81 22t43 82h133z" />
    <glyph glyph-name="uni1EEF" unicode="&#x1eef;" horiz-adv-x="676" 
d="M342 651q-31 0 -45 -40h-80q26 74 62.5 104.5t84.5 30.5q20 0 35 -6t28 -13.5t24 -13.5t24 -6q32 0 45 40h81q-26 -74 -63 -104t-85 -30q-20 0 -35 6t-28 13t-24 13t-24 6zM804 665q-14 -83 -56 -135t-96 -78l-79 -452h-197l16 93q-32 -43 -81.5 -70.5t-113.5 -27.5
q-97 0 -141 64.5t-24 176.5l57 325h196l-53 -301q-8 -49 12.5 -76t63.5 -27q44 0 74.5 27.5t39.5 79.5v-5l53 302h72q49 0 81 22t43 82h133z" />
    <glyph glyph-name="uni1EF0" unicode="&#x1ef0;" horiz-adv-x="708" 
d="M852 812q-14 -82 -55.5 -134t-95.5 -79l-51 -295q-14 -78 -48.5 -136t-83 -97t-108 -58.5t-124.5 -19.5t-116 19.5t-84 58.5t-45 97t1 136l71 404h196l-71 -404q-11 -58 9 -91.5t76 -33.5t88 33.5t43 91.5l71 404h70q49 0 81 22t43 82h133zM275 -73q31 0 48.5 -21
t11.5 -53q-6 -30 -30 -50.5t-56 -20.5q-31 0 -48 20.5t-11 50.5q5 32 29.5 53t55.5 21z" />
    <glyph glyph-name="uni1EF1" unicode="&#x1ef1;" horiz-adv-x="676" 
d="M804 665q-14 -83 -56 -135t-96 -78l-79 -452h-197l16 93q-32 -43 -81.5 -70.5t-113.5 -27.5q-97 0 -141 64.5t-24 176.5l57 325h196l-53 -301q-8 -49 12.5 -76t63.5 -27q44 0 74.5 27.5t39.5 79.5v-5l53 302h72q49 0 81 22t43 82h133zM277 -73q31 0 48.5 -21t11.5 -53
q-6 -30 -30 -50.5t-56 -20.5q-31 0 -48 20.5t-11 50.5q5 32 29.5 53t55.5 21z" />
    <glyph glyph-name="Ygrave" unicode="&#x1ef2;" horiz-adv-x="704" 
d="M539 748l-173 72l44 100l166 -99zM762 708l-335 -483l-39 -225h-197l39 225l-164 483h225l77 -270l172 270h222z" />
    <glyph glyph-name="ygrave" unicode="&#x1ef3;" horiz-adv-x="647" 
d="M523 674l-37 -73l-173 72l44 100zM247 561l65 -314l167 314h217l-501 -829h-216l189 292l-139 537h218z" />
    <glyph glyph-name="uni1EF4" unicode="&#x1ef4;" horiz-adv-x="704" 
d="M762 708l-335 -483l-39 -225h-197l39 225l-164 483h225l77 -270l172 270h222zM290 -73q31 0 48.5 -21t11.5 -53q-6 -30 -30 -50.5t-56 -20.5q-31 0 -48 20.5t-11 50.5q5 32 29.5 53t55.5 21z" />
    <glyph glyph-name="uni1EF5" unicode="&#x1ef5;" horiz-adv-x="647" 
d="M247 561l65 -314l167 314h217l-501 -829h-216l189 292l-139 537h218zM358 -147q5 32 29.5 53t55.5 21t48.5 -21t11.5 -53q-6 -30 -30 -50.5t-56 -20.5q-31 0 -48 20.5t-11 50.5z" />
    <glyph glyph-name="uni1EF6" unicode="&#x1ef6;" horiz-adv-x="704" 
d="M450 901q-11 0 -19 -6t-16 -29l-79 9q6 20 14.5 39t23.5 34t37.5 24t56.5 9q56 0 75.5 -29.5t11.5 -71.5q-3 -19 -12.5 -34.5t-23.5 -29.5t-31.5 -29t-36.5 -32l-45 44q35 29 48 48t16 33q2 14 -4.5 17.5t-15.5 3.5zM762 708l-335 -483l-39 -225h-197l39 225l-164 483
h225l77 -270l172 270h222z" />
    <glyph glyph-name="uni1EF7" unicode="&#x1ef7;" horiz-adv-x="647" 
d="M415 834q56 0 75.5 -29.5t11.5 -71.5q-3 -19 -12.5 -34.5t-23.5 -29.5t-31.5 -29t-36.5 -32l-45 44q35 29 48 48t16 33q2 14 -4.5 17.5t-15.5 3.5q-11 0 -19 -6t-16 -29l-79 9q6 20 14.5 39t23.5 34t37.5 24t56.5 9zM247 561l65 -314l167 314h217l-501 -829h-216l189 292
l-139 537h218z" />
    <glyph glyph-name="uni1EF8" unicode="&#x1ef8;" horiz-adv-x="704" 
d="M381 798q-31 0 -45 -40h-80q26 74 62.5 104.5t84.5 30.5q20 0 35 -6t28 -13.5t24 -13.5t24 -6q32 0 45 40h81q-26 -74 -63 -104t-85 -30q-20 0 -35 6t-28 13t-24 13t-24 6zM762 708l-335 -483l-39 -225h-197l39 225l-164 483h225l77 -270l172 270h222z" />
    <glyph glyph-name="uni1EF9" unicode="&#x1ef9;" horiz-adv-x="647" 
d="M350 746q20 0 35 -6t28 -13.5t24 -13.5t24 -6q32 0 45 40h81q-26 -74 -63 -104t-85 -30q-20 0 -35 6t-28 13t-24 13t-24 6q-31 0 -45 -40h-80q26 74 62.5 104.5t84.5 30.5zM247 561l65 -314l167 314h217l-501 -829h-216l189 292l-139 537h218z" />
    <glyph glyph-name="endash" unicode="&#x2013;" horiz-adv-x="670" 
d="M631 428l-28 -163h-564l28 163h564z" />
    <glyph glyph-name="emdash" unicode="&#x2014;" horiz-adv-x="915" 
d="M876 428l-29 -163h-808l28 163h809z" />
    <glyph glyph-name="quoteleft" unicode="&#x2018;" horiz-adv-x="261" 
d="M46 569q-7 33 -7 65t5 61q6 35 20.5 64.5t37 52t53.5 35t70 12.5l-11 -71q-54 0 -67 -71l-2 -13h68l-24 -135h-143z" />
    <glyph glyph-name="quoteright" unicode="&#x2019;" horiz-adv-x="261" 
d="M216 859q7 -33 6.5 -65t-5.5 -61q-6 -35 -20.5 -65t-37 -52t-53 -34.5t-69.5 -12.5l12 71q26 0 43 17t23 54l3 14h-68l23 134h143z" />
    <glyph glyph-name="quotesinglbase" unicode="&#x201a;" horiz-adv-x="259" 
d="M186 119q16 -42 16 -96t-21 -102.5t-64.5 -82t-114.5 -33.5l12 71q26 0 41.5 11t22.5 48l2 11h-80l30 173h156z" />
    <glyph glyph-name="quotedblleft" unicode="&#x201c;" horiz-adv-x="469" 
d="M46 569q-7 33 -7 65t5 61q6 35 20.5 64.5t37 52t53.5 35t70 12.5l-11 -71q-54 0 -67 -71l-2 -13h68l-24 -135h-143zM252 569q-6 33 -5.5 65t5.5 61q6 35 20.5 64.5t37 52t53 35t69.5 12.5l-12 -71q-53 0 -67 -71l-1 -13h68l-24 -135h-144z" />
    <glyph glyph-name="quotedblright" unicode="&#x201d;" horiz-adv-x="469" 
d="M216 859q7 -33 6.5 -65t-5.5 -61q-6 -35 -20.5 -65t-37 -52t-53 -34.5t-69.5 -12.5l12 71q26 0 43 17t23 54l3 14h-68l23 134h143zM423 859q7 -33 7 -65t-5 -61q-6 -35 -20.5 -65t-37 -52t-54 -34.5t-70.5 -12.5l13 71q54 0 66 71l2 14h-67l23 134h143z" />
    <glyph glyph-name="quotedblbase" unicode="&#x201e;" horiz-adv-x="469" 
d="M176 134q7 -33 6.5 -65t-5.5 -61q-6 -35 -20.5 -65t-37 -52t-53 -34.5t-69.5 -12.5l12 71q26 0 43 17t23 54l3 14h-68l23 134h143zM383 134q7 -33 7 -65t-5 -61q-6 -35 -20.5 -65t-37 -52t-54 -34.5t-70.5 -12.5l13 71q54 0 66 71l2 14h-67l23 134h143z" />
    <glyph glyph-name="dagger" unicode="&#x2020;" horiz-adv-x="681" 
d="M659 413l-211 14l-103 -695h-197l142 695l-215 -14l26 148l210 -13l24 244h197l-62 -244l215 13z" />
    <glyph glyph-name="daggerdbl" unicode="&#x2021;" horiz-adv-x="680" 
d="M448 427l-58 -330l216 14l-26 -149l-212 14l-24 -244h-197l63 244l-215 -14l26 149l210 -14l59 330l-216 -14l26 148l211 -13l24 244h196l-61 -244l215 13l-26 -148z" />
    <glyph glyph-name="bullet" unicode="&#x2022;" horiz-adv-x="501" 
d="M91 333q6 34 23.5 63t43 50.5t57 34t64.5 12.5q34 0 61 -12.5t44.5 -34t24.5 -50.5t1 -63q-6 -33 -23.5 -62t-43 -50.5t-56.5 -33.5t-65 -12q-33 0 -60 12t-45 33.5t-25 50.5t-1 62z" />
    <glyph glyph-name="ellipsis" unicode="&#x2026;" horiz-adv-x="756" 
d="M225 192l-34 -192h-199l34 192h199zM475 192l-34 -192h-199l34 192h199zM725 192l-34 -192h-199l34 192h199z" />
    <glyph glyph-name="perthousand" unicode="&#x2030;" horiz-adv-x="1227" 
d="M261 720q37 0 66.5 -11t49 -33t27 -54.5t-0.5 -76.5q-8 -43 -27 -75.5t-46 -54t-60 -32.5t-70 -11t-67 11t-49.5 32.5t-27 54t-0.5 75.5q8 44 26.5 76.5t46 54.5t61.5 33t71 11zM772 710l-505 -710h-188l505 710h188zM186 545q-5 -28 4 -43t29 -15q21 0 36 15t20 43
q5 29 -5 44.5t-31 15.5q-20 0 -34 -15.5t-19 -44.5zM652 339q37 0 67 -11t49 -32.5t26.5 -54t-0.5 -76.5q-7 -43 -26 -76t-46 -55t-60.5 -33t-70.5 -11t-66.5 11t-49 33t-27 55t-0.5 76q8 44 27 76.5t46 54t60.5 32.5t70.5 11zM1029 339q37 0 66.5 -11t49 -32.5t27 -54
t-0.5 -76.5q-7 -43 -26 -76t-46 -55t-60.5 -33t-70.5 -11t-67 11t-49.5 33t-27 55t-0.5 76q8 44 27 76.5t46 54t61 32.5t71 11zM576 165q-9 -60 34 -60q20 0 35 15.5t20 44.5t-4 44t-30 15q-44 0 -55 -59zM953 165q-9 -60 33 -60q21 0 36 15.5t20 44.5t-4 44t-30 15
q-44 0 -55 -59z" />
    <glyph glyph-name="guilsinglleft" unicode="&#x2039;" horiz-adv-x="355" 
d="M95 120l-50 175l112 175h179l-114 -175l52 -175h-179z" />
    <glyph glyph-name="guilsinglright" unicode="&#x203a;" horiz-adv-x="355" 
d="M134 295l-53 175h180l49 -175l-111 -175h-180z" />
    <glyph glyph-name="fraction" unicode="&#x2044;" horiz-adv-x="512" 
d="M601 710l-505 -710h-189l505 710h189z" />
    <glyph glyph-name="uni20A8" unicode="&#x20a8;" horiz-adv-x="1199" 
d="M652 480q-14 -73 -63 -128t-133 -78l113 -274h-217l-97 261h-20l-46 -261h-197l125 708h311q66 0 112.5 -17.5t74 -48.5t36.5 -72.5t1 -89.5zM842 388q-3 -19 20 -28.5t59.5 -17t78.5 -16.5t76.5 -27t54 -49t10.5 -82q-6 -37 -26.5 -69t-53.5 -55.5t-77.5 -37
t-99.5 -13.5q-119 0 -183.5 50.5t-62.5 146.5h192q-2 -27 21.5 -39.5t55.5 -12.5q29 0 42 9.5t16 24.5q4 21 -19.5 31t-59.5 17t-78 15.5t-76 26.5t-53 49.5t-10 83.5q6 36 27 67.5t54.5 55t79.5 37t103 13.5q62 0 106.5 -15t73.5 -41.5t43 -62.5t15 -78h-193
q-1 26 -21.5 38.5t-51.5 12.5q-26 0 -43 -8.5t-20 -25.5zM259 393h96q81 0 95 74q6 35 -10 55t-58 20h-97z" />
    <glyph glyph-name="Euro" unicode="&#x20ac;" horiz-adv-x="796" 
d="M387 176q48 0 87.5 24t64.5 66h208q-23 -61 -60.5 -111t-87 -85.5t-110.5 -55t-130 -19.5q-65 0 -117 18t-89 50.5t-58 78.5t-26 103h-73l16 89h60l3 21q1 5 2 10.5t2 10.5h-59l15 90h73q24 56 61.5 102t86 78.5t106.5 50.5t123 18q69 0 123 -19.5t91.5 -55t57.5 -85.5
t21 -111h-208q-10 42 -41 65.5t-79 23.5q-39 0 -72 -17.5t-57 -49.5h150l-15 -90h-177q-2 -5 -3 -10.5t-2 -10.5l-3 -21h177l-16 -89h-152q14 -33 41 -51t66 -18z" />
    <glyph glyph-name="uni20B9" unicode="&#x20b9;" horiz-adv-x="589" 
d="M541 578l-9 -49h72l-20 -111h-76q-13 -39 -37 -72.5t-59.5 -57.5t-82.5 -38t-107 -14l-6 -33q-5 -30 3 -48t36 -18q27 0 41 17t21 54h181q-11 -48 -33 -88.5t-54.5 -69t-75.5 -44.5t-97 -16q-115 0 -168.5 58t-30.5 187l22 127q70 0 117 1.5t76.5 7.5t45.5 17t24 30h-260
l20 111h264l9 49h-264l22 130h520l-22 -130h-72z" />
    <glyph glyph-name="uni20BA" unicode="&#x20ba;" horiz-adv-x="813" 
d="M816 469q-22 -125 -58 -214.5t-92 -147.5t-134.5 -85t-183.5 -27q-63 0 -131 8t-143 22l40 224l-119 -18l21 115l118 18l8 48l-118 -19l19 112l119 20l33 186h200l-27 -153l125 21l-20 -115l-125 -20l-9 -48l130 20l-21 -116l-129 -20l-17 -94q38 -7 77 -7
q66 0 107.5 24.5t67.5 65t39.5 92.5t23.5 108h199z" />
    <glyph glyph-name="uni20BD" unicode="&#x20bd;" horiz-adv-x="694" 
d="M470 708q66 0 112.5 -16t74.5 -45.5t37.5 -69.5t0.5 -88q-8 -48 -32 -88.5t-62 -69t-90.5 -44.5t-117.5 -16h-97l-9 -53h134l-26 -147h-134l-12 -71h-197l12 71h-97l26 147h97l9 53h-97l27 149h97l50 288h294zM496 490q5 29 -10 49.5t-54 20.5h-85l-24 -140h85
q39 0 61 19t27 51z" />
    <glyph glyph-name="uni2113" unicode="&#x2113;" horiz-adv-x="301" 
d="M332 740l-130 -740h-197l130 740h197z" />
    <glyph glyph-name="trademark" unicode="&#x2122;" horiz-adv-x="915" 
d="M375 708l-21 -114h-88l-41 -237h-138l42 237h-89l21 114h314zM915 708l-63 -351h-125l29 184l-109 -184h-93l-41 200l-35 -200h-119l62 351h187l29 -181l107 181h171z" />
    <glyph glyph-name="uni2126" unicode="&#x2126;" horiz-adv-x="791" 
d="M761 383q-12 -71 -42.5 -130.5t-93.5 -104.5h92l-25 -148h-269l27 153q39 42 67 89.5t39 112.5q16 88 -18.5 135t-110.5 47q-75 0 -126.5 -47t-67.5 -135q-11 -65 0.5 -112.5t36.5 -89.5l-27 -153h-268l25 148h92q-46 45 -55.5 104.5t2.5 130.5q14 80 53 142.5
t95.5 105.5t126 65.5t145.5 22.5q75 0 137 -22.5t103.5 -65.5t58.5 -105.5t3 -142.5z" />
    <glyph glyph-name="estimated" unicode="&#x212e;" horiz-adv-x="744" 
d="M317 -7q-75 0 -135 23t-99 67t-54 108.5t0 146.5q14 80 48.5 149.5t87 120.5t121 80t150.5 29t141 -27.5t94 -73.5t47 -106t0 -124l-11 -64h-474l-31 -180q59 -37 135 -37q72 0 134.5 26.5t121.5 77.5l52 -75q-76 -69 -156.5 -105t-171.5 -36zM545 580q-23 16 -56.5 23
t-71.5 7q-43 0 -76.5 -9.5t-62.5 -25.5l-28 -157h266z" />
    <glyph glyph-name="partialdiff" unicode="&#x2202;" horiz-adv-x="628" 
d="M336 560q32 0 61 -11t42 -44q-2 29 -9 52t-23 39.5t-41.5 25t-63.5 8.5q-14 0 -28 -1t-30 -3l17 96q74 18 131 18q134 0 186.5 -89.5t24.5 -247.5q-17 -96 -51.5 -172t-84 -129t-113.5 -81t-139 -28q-50 0 -92.5 16t-71 49t-40 83t0.5 117q13 70 44 126t74.5 95t96 60
t109.5 21zM328 397q-48 0 -76.5 -39t-39.5 -99q-9 -52 7.5 -73.5t43.5 -21.5q47 0 75 41t40 109q8 45 -8 64t-42 19z" />
    <glyph glyph-name="uni2206" unicode="&#x2206;" horiz-adv-x="753" 
d="M519 708l178 -559l-27 -149h-713l27 149l376 559h159zM187 149h307l-94 336z" />
    <glyph glyph-name="product" unicode="&#x220f;" horiz-adv-x="750" 
d="M796 710l-26 -147h-68l-99 -563h-197l99 563h-187l-100 -563h-196l99 563h-68l27 147h716z" />
    <glyph glyph-name="summation" unicode="&#x2211;" horiz-adv-x="561" 
d="M568 559h-293l196 -140l-25 -148l-265 -172h306l-27 -149h-487l41 229l253 161l-201 139l41 229h487z" />
    <glyph glyph-name="minus" unicode="&#x2212;" horiz-adv-x="498" 
d="M499 428l-29 -163h-453l28 163h454z" />
    <glyph glyph-name="radical" unicode="&#x221a;" horiz-adv-x="975" 
d="M1033 916l-707 -957h-92l-108 281l-97 -51l-39 90l290 154l96 -255l546 738h111z" />
    <glyph glyph-name="infinity" unicode="&#x221e;" horiz-adv-x="811" 
d="M626 528q91 -1 132.5 -47.5t26.5 -132.5q-8 -42 -28.5 -75.5t-50 -57t-65.5 -35.5t-74 -12q-70 0 -113.5 25t-72.5 59q-38 -38 -87 -61.5t-106 -22.5q-90 0 -131 47t-26 132q8 43 28.5 76.5t49.5 57t65 35.5t74 12q37 0 65 -7.5t49 -20t37 -29.5t29 -35q38 41 88.5 66.5
t109.5 25.5zM225 295q23 0 48 10.5t48 33.5q-17 26 -34.5 44t-42.5 18q-23 0 -39.5 -14t-21.5 -40q-5 -25 7 -38.5t35 -13.5zM633 348q4 26 -8 39.5t-35 13.5q-26 0 -54.5 -13t-52.5 -42q16 -23 36 -37t51 -14q23 0 40.5 14t22.5 39z" />
    <glyph glyph-name="integral" unicode="&#x222b;" horiz-adv-x="302" 
d="M169 753q16 59 44.5 97t65 60t80 31t89.5 9h15l-47 -168h-18q-23 0 -33 -29l-234 -843q-16 -59 -44 -97t-65 -60.5t-80.5 -31.5t-89.5 -9h-15l46 168h19q14 0 21 8t12 22z" />
    <glyph glyph-name="approxequal" unicode="&#x2248;" horiz-adv-x="673" 
d="M287 599q35 0 61.5 -10.5t48.5 -23t41.5 -23t41.5 -10.5q26 0 43 16.5t28 52.5h148q-42 -128 -110.5 -185t-149.5 -57q-34 0 -60.5 10.5t-48 23t-41.5 23t-42 10.5q-27 0 -44 -16.5t-29 -52.5h-146q44 128 111.5 185t147.5 57zM241 336q35 0 61.5 -10.5t48.5 -23
t41.5 -23t41.5 -10.5q26 0 43 16.5t28 52.5h148q-42 -128 -110.5 -185t-149.5 -57q-34 0 -60.5 10.5t-48 23t-41.5 23t-42 10.5q-27 0 -44 -16.5t-29 -52.5h-146q44 128 111.5 185t147.5 57z" />
    <glyph glyph-name="notequal" unicode="&#x2260;" horiz-adv-x="618" 
d="M554 567h81l-31 -178h-207l-79 -89h270l-31 -178h-396l-89 -101h-97l89 101h-80l31 178h207l78 89h-270l31 178h397l90 102h96z" />
    <glyph glyph-name="lessequal" unicode="&#x2264;" horiz-adv-x="480" 
d="M285 381l160 -182h-242l-161 182l225 183h241zM22 121h409l-26 -152h-410z" />
    <glyph glyph-name="greaterequal" unicode="&#x2265;" horiz-adv-x="480" 
d="M12 199l223 181l-160 184h242l160 -183l-224 -182h-241zM-3 121h410l-27 -152h-410z" />
    <glyph glyph-name="lozenge" unicode="&#x25ca;" horiz-adv-x="569" 
d="M553 354l-316 -269l-222 269l318 269zM202 354l68 -83l98 83l-68 83z" />
    <glyph glyph-name="fi" unicode="&#xfb01;" horiz-adv-x="685" 
d="M417 619q-40 4 -60.5 -9t-29.5 -49h338l-98 -561h-197l69 397h-141l-70 -397h-196l69 397h-63l29 164h63q21 118 102.5 177t213.5 48zM608 791q53 0 79.5 -27t18.5 -69t-43.5 -68.5t-88.5 -26.5q-54 0 -80 26.5t-18 68.5t43 69t89 27z" />
    <glyph glyph-name="fl" unicode="&#xfb02;" horiz-adv-x="678" 
d="M364 397h-92l-70 -397h-197l70 397h-63l28 164h64q21 118 106 177t223 48l-30 -167q-45 4 -68 -9t-33 -49h91zM709 740l-130 -740h-197l130 740h197z" />
    <glyph glyph-name="uni03020300" horiz-adv-x="0" 
d="M34 845l-34 -67l-159 66l41 93zM-110 685l-105 -49l-18 73l136 66l112 -66l-35 -73z" />
    <glyph glyph-name="uni03020301" horiz-adv-x="0" 
d="M42 842l-184 -58l-17 62l172 87zM-92 682l-105 -49l-18 73l136 66l112 -66l-35 -73z" />
    <glyph glyph-name="uni03020303" horiz-adv-x="0" 
d="M-102 890q16 0 27.5 -5t21.5 -10.5t19 -10.5t19 -5q25 0 35 31h63q-20 -57 -49 -80.5t-67 -23.5q-16 0 -27.5 4.5t-21.5 10t-18.5 10t-18.5 4.5q-25 0 -36 -31h-62q20 58 48.5 82t66.5 24zM-108 686l-105 -49l-18 73l136 66l112 -66l-35 -73z" />
    <glyph glyph-name="uni03020309" horiz-adv-x="0" 
d="M63 951q52 0 70 -27t10 -66q-6 -34 -33 -58.5t-62 -56.5l-42 41q32 26 44.5 43.5t14.5 30.5t-4 16.5t-14 3.5q-10 0 -17.5 -6t-14.5 -27l-73 9q5 18 13 35.5t22 31t34.5 22t51.5 8.5zM-100 682l-105 -49l-18 73l136 66l112 -66l-35 -73z" />
    <glyph glyph-name="uni03060300" horiz-adv-x="0" 
d="M36 883l-34 -67l-159 66l41 93zM-140 620q-59 0 -92.5 37t-19.5 110l1 12h70q-3 -24 9.5 -37.5t49.5 -13.5q38 0 56 13.5t22 37.5h71l-3 -12q-13 -73 -58.5 -110t-105.5 -37z" />
    <glyph glyph-name="uni03060301" horiz-adv-x="0" 
d="M31 882l-184 -58l-17 62l172 87zM-139 620q-59 0 -92.5 37t-19.5 110l1 12h70q-3 -24 9.5 -37.5t49.5 -13.5q38 0 56 13.5t22 37.5h71l-3 -12q-13 -73 -58.5 -110t-105.5 -37z" />
    <glyph glyph-name="uni03060303" horiz-adv-x="0" 
d="M-122 949q19 0 33 -5.5t25.5 -12.5t21.5 -12.5t22 -5.5q30 0 42 37h74q-23 -69 -57 -96.5t-79 -27.5q-18 0 -32 5.5t-25.5 12t-22 12t-22.5 5.5q-28 0 -41 -37h-74q23 69 56.5 97t78.5 28zM-139 619q-59 0 -92.5 37t-19.5 110l1 12h70q-3 -24 9.5 -37.5t49.5 -13.5
q38 0 56 13.5t22 37.5h71l-3 -12q-13 -73 -58.5 -110t-105.5 -37z" />
    <glyph glyph-name="uni03060309" horiz-adv-x="0" 
d="M-66 1027q52 0 70 -27t10 -66q-6 -34 -33 -58.5t-62 -56.5l-42 41q32 26 44.5 43.5t14.5 30.5t-4 16.5t-14 3.5q-10 0 -17.5 -6t-14.5 -27l-73 9q5 18 13 35.5t22 31t34.5 22t51.5 8.5zM-143 617q-59 0 -92.5 37t-19.5 110l1 12h70q-3 -24 9.5 -37.5t49.5 -13.5
q38 0 56 13.5t22 37.5h71l-3 -12q-13 -73 -58.5 -110t-105.5 -37z" />
  </font>
</defs>
</svg>
