<?xml version="1.0" standalone="no"?>
<!DOCTYPE svg PUBLIC "-//W3C//DTD SVG 1.1//EN" "http://www.w3.org/Graphics/SVG/1.1/DTD/svg11.dtd" >
<svg xmlns="http://www.w3.org/2000/svg" xmlns:xlink="http://www.w3.org/1999/xlink" version="1.1">
<metadata>
Created by FontForge 20170731 at Tue Dec 12 17:12:31 2017
 By Aleksey,,,
</metadata>
<defs>
<font id="PoppinsVN-300" horiz-adv-x="644" >
  <font-face 
    font-family="PoppinsVN 300"
    font-weight="400"
    font-stretch="normal"
    units-per-em="1000"
    panose-1="0 0 5 0 0 0 0 0 0 0"
    ascent="800"
    descent="-200"
    x-height="546"
    cap-height="705"
    bbox="-307 -267 1065 1063"
    underline-thickness="50"
    underline-position="-150"
    unicode-range="U+000D-FB02"
  />
<missing-glyph horiz-adv-x="499" 
d="M409 -258h-316v998h316v-998zM168 673v-33h65v-37h-66v-33h165v33h-66v37h66v33h-164zM167 544v-103h165v34h-66v69h-99zM233 475h-33v35h33v-35zM167 414v-33h66v-37h-66v-33h99v70h66v33h-165zM299 354v-66h-132v-34h165v100h-33zM233 232v-56h33v23h33v-47h-99v80h-33
v-113h165v113h-99zM167 59v-112h165v112h-165zM299 -20h-99v46h99v-46zM167 -76v-33h70l-70 -47v-33h165v33h-101l69 47h32v33h-165z" />
    <glyph glyph-name=".notdef" horiz-adv-x="499" 
d="M409 -258h-316v998h316v-998zM168 673v-33h65v-37h-66v-33h165v33h-66v37h66v33h-164zM167 544v-103h165v34h-66v69h-99zM233 475h-33v35h33v-35zM167 414v-33h66v-37h-66v-33h99v70h66v33h-165zM299 354v-66h-132v-34h165v100h-33zM233 232v-56h33v23h33v-47h-99v80h-33
v-113h165v113h-99zM167 59v-112h165v112h-165zM299 -20h-99v46h99v-46zM167 -76v-33h70l-70 -47v-33h165v33h-101l69 47h32v33h-165z" />
    <glyph glyph-name=".null" horiz-adv-x="0" 
 />
    <glyph glyph-name=".null" horiz-adv-x="0" 
 />
    <glyph glyph-name="nonmarkingreturn" unicode="&#xd;" horiz-adv-x="250" 
 />
    <glyph glyph-name="space" unicode=" " horiz-adv-x="260" 
 />
    <glyph glyph-name="exclam" unicode="!" horiz-adv-x="277" 
d="M179 717l-11 -521h-56l-11 521h78zM188 90v-90h-93v90h93z" />
    <glyph glyph-name="quotedbl" unicode="&#x22;" horiz-adv-x="270" 
d="M108 796l-8 -193h-49l-10 193h67zM228 796l-8 -193h-49l-10 193h67z" />
    <glyph glyph-name="numbersign" unicode="#" horiz-adv-x="791" 
d="M597 454l-37 -173h144v-64h-158l-46 -217h-67l46 217h-223l-46 -217h-66l46 217h-157v64h171l37 173h-154v64h168l47 222h66l-47 -222h223l47 222h67l-47 -222h147v-64h-161zM530 454h-223l-37 -173h223z" />
    <glyph glyph-name="dollar" unicode="$" horiz-adv-x="568" 
d="M297 387q39 -12 78.5 -25.5t70.5 -36t50.5 -57.5t19.5 -89q0 -34 -12 -67.5t-38 -59.5t-66.5 -42.5t-97.5 -16.5h-5v-80h-27v81q-46 4 -84.5 20.5t-66 42t-44.5 58t-20 69.5h74q2 -19 11.5 -41t27 -40.5t43 -32.5t59.5 -19v280q-39 12 -78 25t-69.5 35t-50 55.5
t-19.5 86.5q0 39 15 72t42.5 57t67.5 37.5t90 13.5h2v87h27v-88q47 -4 83 -19t61 -38.5t40 -52.5t20 -60h-75q-3 17 -12.5 35.5t-25 34.5t-38.5 28t-53 16v-269zM127 536q0 -32 11.5 -54.5t31 -38.5t45.5 -27.5t55 -20.5v263h-2q-64 0 -102.5 -31t-38.5 -91zM300 49
q71 0 106.5 38t35.5 91q0 33 -11.5 56.5t-31.5 40t-46.5 27.5t-55.5 20v-273h3z" />
    <glyph glyph-name="percent" unicode="%" horiz-adv-x="621" 
d="M176 714q30 0 55.5 -10t44.5 -28.5t29.5 -45t10.5 -58.5t-10.5 -58.5t-29.5 -45t-44.5 -28.5t-55.5 -10q-61 0 -101 38.5t-40 103.5t40 103.5t101 38.5zM551 706l-411 -706h-70l410 706h71zM86 572q0 -43 24.5 -69.5t64.5 -26.5t65 26.5t25 69.5q0 42 -25 69t-65 27
t-64.5 -27t-24.5 -69zM446 276q30 0 55.5 -10t44.5 -28.5t29.5 -45t10.5 -58.5t-10.5 -58.5t-29.5 -45t-44.5 -29t-55.5 -10.5t-55.5 10.5t-44.5 29t-29.5 45t-10.5 58.5t10.5 58.5t29.5 45t44.5 28.5t55.5 10zM357 134q0 -43 24.5 -70t64.5 -27q39 0 64 27t25 70
q0 42 -25 69t-64 27q-40 0 -64.5 -27t-24.5 -69z" />
    <glyph glyph-name="ampersand" unicode="&#x26;" horiz-adv-x="679" 
d="M598 0l-174 191q3 -17 -2 -46q-4 -33 -18.5 -61t-38 -48.5t-54.5 -31.5t-67 -11q-44 0 -82 14.5t-66 41.5t-44 65t-16 86t14.5 85t39 62t57 38t68.5 13q19 0 39 -5q-5 6 -10 11.5t-10 11.5q-26 29 -45 61.5t-19 81.5q0 29 11 56.5t32.5 49t54 34.5t75.5 13q46 0 79 -13
t54.5 -35t32.5 -50t14 -57q5 -24 3 -50h-67q1 16 0 29q0 55 -30.5 86t-84.5 31q-52 0 -79.5 -30.5t-27.5 -69.5q0 -38 15 -63.5t38 -51.5l382 -438h-74zM244 54q61 0 99.5 38.5t38.5 98.5q0 33 -13.5 60.5t-35 48t-49 31.5t-55.5 11q-55 0 -92.5 -34.5t-37.5 -105.5
q0 -36 12 -63.5t32 -46t46 -28.5t55 -10z" />
    <glyph glyph-name="quotesingle" unicode="'" horiz-adv-x="156" 
d="M114 796l-11 -193h-49l-13 193h73z" />
    <glyph glyph-name="parenleft" unicode="(" horiz-adv-x="375" 
d="M49 403q0 101 20 189t55.5 162t83.5 133t103 102h68v-8q-135 -109 -198.5 -255t-63.5 -323t63.5 -323.5t198.5 -255.5v-7h-68q-55 43 -103 102t-83.5 132.5t-55.5 161.5t-20 190z" />
    <glyph glyph-name="parenright" unicode=")" horiz-adv-x="376" 
d="M327 403q0 -102 -20 -190t-55.5 -161.5t-83 -132.5t-103.5 -102h-69v7q136 109 199.5 255.5t63.5 323.5t-63.5 323t-199.5 255v8h69q56 -43 103.5 -102t83 -132.5t55.5 -161.5t20 -190z" />
    <glyph glyph-name="asterisk" unicode="*" horiz-adv-x="462" 
d="M378 667l36 -64l-149 -57l149 -56l-36 -64l-124 92l19 -158h-73l16 158l-127 -95l-38 66l147 57l-146 58l37 65l126 -93l-16 156h73l-18 -156z" />
    <glyph glyph-name="plus" unicode="+" horiz-adv-x="580" 
d="M545 338h-221v-223h-69v223h-220v64h220v223h69v-223h221v-64z" />
    <glyph glyph-name="comma" unicode="," horiz-adv-x="159" 
d="M115 56q10 -36 10 -67.5t-10 -55t-30 -37t-52 -13.5v33q25 0 35.5 13.5t10.5 41.5v8h-45v77h81z" />
    <glyph glyph-name="hyphen" unicode="-" horiz-adv-x="477" 
d="M369 400v-59h-390v59h390z" />
    <glyph glyph-name="period" unicode="." horiz-adv-x="154" 
d="M123 90v-90h-93v90h93z" />
    <glyph glyph-name="slash" unicode="/" horiz-adv-x="369" 
d="M357 940l-275 -1107h-68l274 1107h69z" />
    <glyph glyph-name="zero" unicode="0" horiz-adv-x="607" 
d="M61 356q0 77 10.5 142.5t38 113.5t74.5 75t120 27q72 0 119 -27t74.5 -75t38.5 -113.5t11 -142.5t-11 -143t-38.5 -114t-74.5 -75.5t-119 -27.5q-73 0 -120 27.5t-74.5 75.5t-38 114t-10.5 143zM477 356q0 62 -6.5 115.5t-25 92.5t-52.5 61.5t-89 22.5t-89.5 -22.5
t-53 -61.5t-25 -92.5t-6.5 -115.5t6.5 -116t25 -93.5t53 -62t89.5 -22.5t89 22.5t52.5 62t25 93.5t6.5 116z" />
    <glyph glyph-name="one" unicode="1" horiz-adv-x="269" 
d="M14 640v65h179v-705h-73v640h-106z" />
    <glyph glyph-name="two" unicode="2" horiz-adv-x="567" 
d="M45 53q82 54 153 112t123 116t82 116t30 112q0 29 -7 55.5t-24 46.5t-44.5 32t-68.5 12q-40 0 -70 -13.5t-50 -37.5t-31 -57t-13 -72h-69q8 117 72 178.5t166 61.5q45 0 83.5 -12t66.5 -37t44 -62.5t16 -88.5q0 -66 -34.5 -132.5t-87.5 -126.5t-116 -110t-121 -85h379
v-58h-479v50z" />
    <glyph glyph-name="three" unicode="3" horiz-adv-x="585" 
d="M299 720q51 0 90.5 -14t66 -38.5t40 -57.5t13.5 -71q0 -31 -9 -59t-28 -50.5t-49 -37.5t-72 -19v-6q36 -9 67.5 -23.5t54.5 -36t36 -51t13 -69.5t-13.5 -75.5t-41 -62t-69 -41.5t-97.5 -15q-106 0 -172.5 54.5t-79.5 162.5h69q11 -67 56 -111.5t125 -44.5q78 0 116 39.5
t38 97.5q0 73 -56.5 110t-159.5 37h-22v59h22q203 0 203 135q0 58 -37 93.5t-106 35.5q-31 0 -59 -8.5t-50.5 -26.5t-37.5 -46t-20 -67h-69q8 97 69 152t169 55z" />
    <glyph glyph-name="four" unicode="4" horiz-adv-x="607" 
d="M28 170v58l372 480h75v-476h110v-62h-110v-170h-71v170h-376zM409 621l-306 -389h306v389z" />
    <glyph glyph-name="five" unicode="5" horiz-adv-x="609" 
d="M523 649h-374v-261q26 35 75.5 57.5t109.5 22.5t102.5 -19t69.5 -50.5t39.5 -72.5t12.5 -86q0 -50 -14 -94.5t-43 -78t-74 -53t-107 -19.5q-104 0 -169 55.5t-75 152.5h69q13 -71 58.5 -108.5t112.5 -37.5q45 0 77.5 14t53.5 38.5t31.5 58.5t10.5 73q0 79 -43.5 124.5
t-126.5 45.5q-58 0 -101 -24t-66 -66h-68v390h439v-62z" />
    <glyph glyph-name="six" unicode="6" horiz-adv-x="619" 
d="M470 519q-9 67 -46 105t-106 38q-48 0 -84.5 -18.5t-61 -59t-35.5 -104.5t-7 -155q7 33 26 59.5t46 45t61.5 28.5t72.5 10q108 0 167.5 -63t59.5 -177q0 -46 -13.5 -89t-42 -75t-73 -51.5t-106.5 -19.5q-82 0 -133.5 29t-80 77.5t-38.5 112t-10 132.5q0 89 13.5 158.5
t44 118t79.5 74t119 25.5q51 0 89 -15.5t64.5 -42.5t42 -63.5t19.5 -79.5h-67zM138 244q0 -36 10.5 -70t33 -60.5t58.5 -43t86 -16.5q76 0 123 45.5t47 129.5q0 91 -47 137t-127 46q-33 0 -65.5 -10t-59 -31t-43 -52.5t-16.5 -74.5z" />
    <glyph glyph-name="seven" unicode="7" horiz-adv-x="505" 
d="M472 653l-271 -653h-74l274 646h-388v61h459v-54z" />
    <glyph glyph-name="eight" unicode="8" horiz-adv-x="620" 
d="M72 537q0 39 15.5 73t46 58.5t75 39t101.5 14.5q58 0 102.5 -14.5t74.5 -39t45.5 -58.5t15.5 -73q0 -58 -32 -102t-104 -63q73 -17 114 -64t41 -119q0 -49 -18 -88.5t-52 -66.5t-81 -41.5t-106 -14.5q-58 0 -105.5 14.5t-81 41.5t-52 66.5t-18.5 88.5q0 72 41 119t114 64
q-72 19 -104 63t-32 102zM142 528q0 -66 45.5 -101t122.5 -35t122.5 35t45.5 101q0 67 -46.5 101.5t-121.5 34.5t-121.5 -34.5t-46.5 -101.5zM122 192q0 -75 51.5 -115t136.5 -40t136.5 40t51.5 115q0 40 -15 68.5t-40.5 46.5t-60 26.5t-72.5 8.5t-72 -8.5t-60 -26.5
t-41 -46.5t-15 -68.5z" />
    <glyph glyph-name="nine" unicode="9" horiz-adv-x="610" 
d="M145 194q10 -67 47 -105.5t106 -38.5q48 0 84.5 18.5t60.5 59t35 104.5t8 155q-7 -33 -26 -59.5t-46 -45t-61.5 -28.5t-73.5 -10q-107 0 -166.5 63.5t-59.5 177.5q0 47 13.5 89t42 74.5t72.5 51.5t106 19q83 0 134 -28.5t80 -76.5t39 -111t10 -132q0 -87 -13 -157
t-42.5 -119.5t-77.5 -76t-119 -26.5q-51 0 -90 15.5t-66 42.5t-42.5 64t-20.5 80h66zM477 468q0 36 -10.5 70t-33 60.5t-58 43t-86.5 16.5q-76 0 -123 -45t-47 -129q0 -91 47.5 -137.5t126.5 -46.5q33 0 66 10t59 31t42.5 52.5t16.5 74.5z" />
    <glyph glyph-name="colon" unicode=":" horiz-adv-x="168" 
d="M131 528v-90h-92v90h92zM131 90v-90h-92v90h92z" />
    <glyph glyph-name="semicolon" unicode=";" horiz-adv-x="213" 
d="M166 527v-90h-93v90h93zM155 56q10 -36 10 -67.5t-10 -55t-30 -37t-52 -13.5v33q25 0 35.5 13.5t10.5 41.5v8h-45v77h81z" />
    <glyph glyph-name="less" unicode="&#x3c;" horiz-adv-x="410" 
d="M287 139l-252 231l252 233h88l-252 -233l252 -231h-88z" />
    <glyph glyph-name="equal" unicode="=" horiz-adv-x="580" 
d="M545 504v-64h-510v64h510zM545 301v-64h-510v64h510z" />
    <glyph glyph-name="greater" unicode="&#x3e;" horiz-adv-x="410" 
d="M35 603h88l252 -233l-252 -231h-88l252 231z" />
    <glyph glyph-name="question" unicode="?" horiz-adv-x="496" 
d="M250 727q48 0 86.5 -13.5t66.5 -39.5t43 -63t15 -84q0 -57 -18 -97.5t-51 -66.5t-78.5 -38t-101.5 -13v-126h-67v175h33q40 0 78.5 6t68.5 24t48.5 50.5t18.5 85.5q0 66 -39 103.5t-105 37.5q-69 0 -111 -38t-42 -101h-67q-1 45 15.5 81.5t46 62.5t70.5 40t90 14zM225 90
v-90h-92v90h92z" />
    <glyph glyph-name="at" unicode="@" horiz-adv-x="1106" 
d="M599 780q114 0 200.5 -32.5t145 -91.5t88.5 -141.5t30 -181.5q0 -74 -18.5 -137t-50 -109t-73.5 -72t-89 -26q-27 0 -49.5 7t-38 23t-22 43.5t-0.5 67.5q-35 -65 -89 -103t-132 -38q-49 0 -89.5 18.5t-69 52.5t-43.5 81.5t-13 104.5q2 68 25 125t62 98t90.5 64.5
t111.5 23.5q64 0 111 -22.5t75.5 -60.5t39 -88.5t1.5 -107.5l-24 -144q-8 -49 9 -66t49 -17q31 0 59.5 19t50 55t34 88t12.5 118q0 87 -26 158.5t-76.5 123t-125.5 80t-174 28.5q-113 0 -201 -38t-148 -104t-91.5 -155.5t-31.5 -191.5q0 -107 30.5 -186t87.5 -131.5t138 -79
t181 -27.5l-13 -59q-114 2 -205.5 33t-155.5 91.5t-98.5 150t-34.5 208.5q0 114 38.5 213.5t110 174t173.5 117.5t229 43zM736 307q1 41 -9 75t-31 59t-54 39t-77 14q-45 0 -83.5 -18t-66.5 -51t-44 -78.5t-17 -99.5q-1 -42 10 -78t33 -62t53 -41t71 -15q44 0 82.5 18t68 51
t46.5 80.5t18 106.5z" />
    <glyph glyph-name="A" unicode="A" 
d="M483 172h-321l-64 -172h-75l260 689h79l260 -689h-76zM462 228l-139 380l-141 -380h280z" />
    <glyph glyph-name="B" unicode="B" horiz-adv-x="591" 
d="M399 365q66 -13 107 -61t41 -114q0 -41 -14 -75.5t-42 -60t-70.5 -40t-99.5 -14.5h-245v705h242q110 0 161.5 -49t51.5 -126q0 -36 -10.5 -64.5t-28.5 -48.5t-42 -33t-51 -19zM147 390h162q75 0 113 34.5t38 94.5q0 57 -36.5 92t-118.5 35h-158v-256zM309 60
q80 0 123.5 36t43.5 102q0 64 -44.5 101.5t-124.5 37.5h-160v-277h162z" />
    <glyph glyph-name="C" unicode="C" horiz-adv-x="765" 
d="M386 712q131 0 212.5 -63.5t114.5 -167.5h-74q-27 73 -90.5 119.5t-163.5 46.5q-55 0 -102.5 -20.5t-82.5 -58.5t-55 -92.5t-20 -123.5q0 -68 20 -122.5t55 -92.5t82.5 -58.5t102.5 -20.5q100 0 163.5 47t90.5 119h74q-33 -104 -114.5 -167.5t-212.5 -63.5
q-74 0 -135 26.5t-105 74t-68.5 113.5t-24.5 145q0 80 24.5 146t68.5 113.5t105 74t135 26.5z" />
    <glyph glyph-name="D" unicode="D" horiz-adv-x="712" 
d="M660 353q0 -81 -24 -146.5t-71.5 -111.5t-116.5 -70.5t-159 -24.5h-213v705h213q90 0 159 -24.5t116.5 -70t71.5 -110.5t24 -147zM284 63q151 0 228 77.5t77 212.5t-77 212.5t-228 77.5h-137v-580h137z" />
    <glyph glyph-name="E" unicode="E" horiz-adv-x="498" 
d="M147 648v-266h275v-55h-275v-269h305v-58h-376v705h376v-57h-305z" />
    <glyph glyph-name="F" unicode="F" horiz-adv-x="496" 
d="M459 705v-57h-312v-269h270v-55h-270v-324h-71v705h383z" />
    <glyph glyph-name="G" unicode="G" horiz-adv-x="782" 
d="M394 711q61 0 112.5 -16t92 -45t69 -70.5t43.5 -91.5h-73q-13 34 -36 63t-54 50.5t-70 33.5t-84 12q-57 0 -106 -20.5t-85.5 -58.5t-57 -92.5t-20.5 -123.5q0 -70 21 -125t57.5 -93t87 -58.5t110.5 -20.5q53 0 99.5 18t82.5 52t59 83t27 111h-293v53h354v-62
q-5 -67 -31 -125t-69.5 -100.5t-103 -67t-131.5 -24.5q-76 0 -139 26.5t-108 74t-70 113.5t-25 145t25 145t70 113.5t107.5 74t138.5 26.5z" />
    <glyph glyph-name="H" unicode="H" horiz-adv-x="676" 
d="M599 705v-705h-70v334h-382v-334h-71v705h71v-313h382v313h70z" />
    <glyph glyph-name="I" unicode="I" horiz-adv-x="223" 
d="M147 705v-705h-71v705h71z" />
    <glyph glyph-name="J" unicode="J" horiz-adv-x="467" 
d="M396 705v-535q0 -79 -46.5 -128t-131.5 -49q-91 0 -142 54t-51 151h70q0 -30 6.5 -55.5t21 -44.5t37 -30t55.5 -11q32 0 53 10t34 26t18 36t5 41v535h71z" />
    <glyph glyph-name="K" unicode="K" horiz-adv-x="559" 
d="M209 354l333 -354h-87l-308 331v-331h-71v705h71v-331l308 331h87z" />
    <glyph glyph-name="L" unicode="L" horiz-adv-x="423" 
d="M147 56h256v-56h-327v705h71v-649z" />
    <glyph glyph-name="M" unicode="M" horiz-adv-x="836" 
d="M759 690v-690h-70v578l-239 -578h-63l-240 576v-576h-71v690h83l260 -603l258 603h82z" />
    <glyph glyph-name="N" unicode="N" horiz-adv-x="680" 
d="M604 0h-71l-386 589v-589h-71v704h71l386 -590v590h71v-704z" />
    <glyph glyph-name="O" unicode="O" horiz-adv-x="791" 
d="M396 713q74 0 137 -26.5t108.5 -74.5t71.5 -114t26 -145t-26 -145.5t-71.5 -114.5t-108.5 -74.5t-137 -26.5t-137 26.5t-108.5 74.5t-71.5 114.5t-26 145.5t26 145t71.5 114t108.5 74.5t137 26.5zM396 648q-58 0 -107.5 -20.5t-86 -58.5t-57 -92.5t-20.5 -123.5
t20.5 -123.5t57 -92.5t86 -58.5t107.5 -20.5q57 0 106.5 20.5t86 58.5t57.5 92.5t21 123.5t-21 123.5t-57.5 92.5t-86 58.5t-106.5 20.5z" />
    <glyph glyph-name="P" unicode="P" horiz-adv-x="558" 
d="M147 294v-294h-71v705h211q62 0 106.5 -15t73.5 -42t42.5 -65t13.5 -84q0 -98 -60 -151.5t-176 -53.5h-140zM281 354q95 0 133 39.5t38 105.5q0 68 -38 107.5t-133 39.5h-134v-292h134z" />
    <glyph glyph-name="Q" unicode="Q" horiz-adv-x="791" 
d="M660 -141l-158 148q-49 -15 -106 -15q-74 0 -137 26.5t-108.5 74.5t-71.5 114.5t-26 145.5t26 145t71.5 114t108.5 74.5t137 26.5t137 -26.5t108.5 -74.5t71.5 -114t26 -145q0 -111 -48.5 -194t-129.5 -127l191 -173h-92zM125 353q0 -69 20.5 -123.5t57 -92.5t86 -58.5
t107.5 -20.5q57 0 106.5 20.5t86 58.5t57.5 92.5t21 123.5t-21 123.5t-57.5 92.5t-86 58.5t-106.5 20.5q-58 0 -107.5 -20.5t-86 -58.5t-57 -92.5t-20.5 -123.5z" />
    <glyph glyph-name="R" unicode="R" horiz-adv-x="569" 
d="M454 0l-193 294h-114v-294h-71v705h216q62 0 106.5 -15.5t73.5 -43t42.5 -65.5t13.5 -83q0 -88 -49 -140t-144 -62l199 -296h-80zM147 347h140q93 0 131.5 40.5t38.5 106.5q0 68 -38.5 109t-131.5 41h-140v-297z" />
    <glyph glyph-name="S" unicode="S" horiz-adv-x="558" 
d="M506 179q0 -34 -12 -67.5t-37.5 -59.5t-65 -42.5t-94.5 -16.5q-52 0 -95 15t-74.5 40.5t-50 60.5t-22.5 75h74q3 -21 13.5 -45t30.5 -43.5t50 -32.5t71 -13q70 0 104 37.5t34 89.5q0 53 -28 82.5t-70 47.5t-91.5 31.5t-91.5 35t-70 58.5t-28 101q0 39 14 72t41 57
t66 37.5t89 13.5q53 0 93 -14t68.5 -38t45 -55t21.5 -64h-75q-4 18 -14.5 38.5t-29 37.5t-45.5 28t-64 11q-61 0 -98.5 -31t-37.5 -90q0 -51 28 -79t70 -45.5t91.5 -31t91.5 -36t70 -60.5t28 -105z" />
    <glyph glyph-name="T" unicode="T" horiz-adv-x="507" 
d="M489 705v-57h-201v-648h-70v648h-200v57h471z" />
    <glyph glyph-name="U" unicode="U" horiz-adv-x="652" 
d="M142 705v-427q0 -59 13.5 -100.5t38 -68t58.5 -38.5t75 -12t74.5 12t57.5 38.5t37.5 68t13.5 100.5v427h70v-427q0 -74 -19 -128t-52.5 -89t-80 -51.5t-102.5 -16.5q-55 0 -102 16.5t-80.5 51.5t-52.5 89t-19 128v427h70z" />
    <glyph glyph-name="V" unicode="V" horiz-adv-x="655" 
d="M100 705l227 -623l229 623h77l-262 -705h-87l-261 705h77z" />
    <glyph glyph-name="W" unicode="W" horiz-adv-x="953" 
d="M919 705l-182 -705h-84l-176 604l-177 -604h-84l-182 705h78l147 -618l178 618h79l178 -619l148 619h77z" />
    <glyph glyph-name="X" unicode="X" horiz-adv-x="566" 
d="M461 0l-184 297l-171 -297h-81l213 359l-215 346h83l181 -291l171 291h81l-214 -353l219 -352h-83z" />
    <glyph glyph-name="Y" unicode="Y" horiz-adv-x="571" 
d="M549 705l-227 -430v-275h-71v275l-228 430h81l182 -355l182 355h81z" />
    <glyph glyph-name="Z" unicode="Z" horiz-adv-x="523" 
d="M117 59h367v-59h-445v56l359 590h-349v59h428v-57z" />
    <glyph glyph-name="bracketleft" unicode="[" horiz-adv-x="298" 
d="M254 940v-58h-99v-990h99v-58h-166v1106h166z" />
    <glyph glyph-name="backslash" unicode="\" horiz-adv-x="575" 
d="M398 -167l-325 1107h70l324 -1107h-69z" />
    <glyph glyph-name="bracketright" unicode="]" horiz-adv-x="297" 
d="M44 -166v58h99v990h-99v58h166v-1106h-166z" />
    <glyph glyph-name="asciicircum" unicode="^" horiz-adv-x="604" 
d="M106 171h-70l234 519h64l233 -519h-70l-194 434z" />
    <glyph glyph-name="underscore" unicode="_" horiz-adv-x="591" 
d="M551 -33v-68h-509v68h509z" />
    <glyph glyph-name="grave" unicode="`" horiz-adv-x="281" 
d="M241 622l-16 -30l-152 98l22 39z" />
    <glyph glyph-name="a" unicode="a" horiz-adv-x="673" 
d="M306 553q86 0 143.5 -44t78.5 -113v150h69v-546h-69v150q-21 -69 -78.5 -113t-143.5 -44q-56 0 -103 19.5t-81 55.5t-53 88t-19 117q0 66 19 118t53 88t81 55t103 19zM324 491q-46 0 -83.5 -15t-64 -43t-41 -68.5t-14.5 -91.5t14.5 -91.5t41 -68.5t64 -43t83.5 -15
q44 0 81.5 15.5t64.5 44t42.5 69t15.5 89.5q0 50 -15.5 90t-42.5 68.5t-64.5 44t-81.5 15.5z" />
    <glyph glyph-name="b" unicode="b" horiz-adv-x="673" 
d="M368 553q56 0 103 -19t80.5 -55t52.5 -88t19 -118q0 -65 -19 -117t-52.5 -88t-80.5 -55.5t-103 -19.5q-87 0 -144 44t-78 113v-150h-70v740h70v-344q21 69 78 113t144 44zM349 491q-44 0 -81 -15.5t-64 -44t-42.5 -68.5t-15.5 -90q0 -49 15.5 -89.5t42.5 -69t64 -44
t81 -15.5q93 0 148 57.5t55 160.5t-55 160.5t-148 57.5z" />
    <glyph glyph-name="c" unicode="c" horiz-adv-x="623" 
d="M317 553q53 0 96.5 -14.5t76.5 -41t54.5 -63.5t28.5 -82h-73q-11 66 -61 103t-123 37q-38 0 -73.5 -13t-62.5 -40t-43 -68t-16 -98t16 -98t43 -68t62.5 -40t73.5 -13q73 0 123 37t61 103h73q-7 -45 -28.5 -82t-54.5 -63.5t-76.5 -41t-96.5 -14.5q-58 0 -107 19t-84.5 55
t-55.5 88t-20 118t20 118t55.5 88t84.5 55t107 19z" />
    <glyph glyph-name="d" unicode="d" horiz-adv-x="673" 
d="M306 553q86 0 143.5 -44t77.5 -113v344h70v-740h-70v150q-20 -69 -77.5 -113t-143.5 -44q-56 0 -103 19.5t-81 55.5t-53 88t-19 117q0 66 19 118t53 88t81 55t103 19zM324 491q-46 0 -83.5 -15t-64 -43t-41 -68.5t-14.5 -91.5t14.5 -91.5t41 -68.5t64 -43t83.5 -15
q44 0 81.5 15.5t64.5 44t42.5 69t15.5 89.5q0 50 -15.5 90t-42.5 68.5t-64.5 44t-81.5 15.5z" />
    <glyph glyph-name="e" unicode="e" horiz-adv-x="625" 
d="M314 51q74 0 123.5 37t60.5 100h74q-7 -42 -28 -78t-54 -62t-76.5 -40.5t-96.5 -14.5q-58 0 -107 19t-84.5 55t-55.5 88t-20 118t20 118t55.5 88t84.5 55t107 19q62 0 110 -20t81 -54t50 -78.5t17 -92.5q0 -17 -1 -27.5t-3 -23.5h-452q1 -54 18 -93t44 -64t61.5 -37
t71.5 -12zM317 496q-38 0 -73 -12t-62.5 -36.5t-44 -63t-18.5 -91.5h386q3 53 -12 91.5t-42 63.5t-62 36.5t-72 11.5z" />
    <glyph glyph-name="f" unicode="f" horiz-adv-x="335" 
d="M306 691q-78 2 -107.5 -28t-29.5 -95v-22h137v-62h-137v-484h-70v484h-81v62h81v27q0 91 48.5 137.5t158.5 42.5v-62z" />
    <glyph glyph-name="g" unicode="g" horiz-adv-x="673" 
d="M306 553q86 0 143.5 -44t78.5 -113v150h69v-559q0 -58 -18.5 -105t-52 -80t-79.5 -51t-101 -18q-111 0 -178 52.5t-87 138.5h70q17 -58 65 -94t126 -36q39 0 72.5 12.5t59 37.5t40 60.5t14.5 82.5v163q-21 -69 -78.5 -113t-143.5 -44q-56 0 -103 19.5t-81 55.5t-53 88
t-19 117q0 66 19 118t53 88t81 55t103 19zM324 491q-46 0 -83.5 -15t-64 -43t-41 -68.5t-14.5 -91.5t14.5 -91.5t41 -68.5t64 -43t83.5 -15q44 0 81.5 15.5t64.5 44t42.5 69t15.5 89.5q0 50 -15.5 90t-42.5 68.5t-64.5 44t-81.5 15.5z" />
    <glyph glyph-name="h" unicode="h" horiz-adv-x="635" 
d="M349 556q45 0 84.5 -14.5t68 -44t45 -74t16.5 -105.5v-318h-69v313q0 91 -46 137.5t-122 46.5q-79 0 -129 -51t-50 -156v-290h-71v740h71v-328q22 73 78 108.5t124 35.5z" />
    <glyph glyph-name="i" unicode="i" horiz-adv-x="223" 
d="M60 708q0 22 14.5 35t37.5 13t37 -13t14 -35q0 -21 -14 -34t-37 -13t-37.5 13t-14.5 34zM147 546v-546h-71v546h71z" />
    <glyph glyph-name="j" unicode="j" horiz-adv-x="230" 
d="M119 661q-23 0 -37.5 13t-14.5 34q0 22 14.5 35t37.5 13t37 -13t14 -35q0 -21 -14 -34t-37 -13zM-27 -196h38q37 0 55 16t18 60v666h70v-670q0 -134 -136 -134h-45v62z" />
    <glyph glyph-name="k" unicode="k" horiz-adv-x="465" 
d="M368 0l-221 250v-250h-71v740h71v-434l217 240h87l-251 -270l258 -276h-90z" />
    <glyph glyph-name="l" unicode="l" horiz-adv-x="223" 
d="M147 740v-740h-71v740h71z" />
    <glyph glyph-name="m" unicode="m" horiz-adv-x="1021" 
d="M739 556q45 0 83.5 -14.5t67 -44t44.5 -74t16 -105.5v-318h-70v313q0 91 -43.5 136.5t-115.5 45.5q-76 0 -124.5 -50.5t-48.5 -154.5v-290h-69v313q0 91 -43.5 136.5t-115.5 45.5q-76 0 -124.5 -50.5t-48.5 -154.5v-290h-71v546h71v-130q21 72 74.5 106t119.5 34
q69 0 122.5 -36.5t73.5 -113.5q23 75 79 112.5t123 37.5z" />
    <glyph glyph-name="n" unicode="n" horiz-adv-x="635" 
d="M349 556q45 0 84.5 -14.5t68 -44t45 -74t16.5 -105.5v-318h-69v313q0 91 -46 137.5t-122 46.5q-79 0 -129 -51t-50 -156v-290h-71v546h71v-134q22 73 78 108.5t124 35.5z" />
    <glyph glyph-name="o" unicode="o" 
d="M323 553q58 0 107.5 -19t86 -55t57 -88t20.5 -118t-20.5 -118t-57 -88t-86 -55t-107.5 -19t-108 19t-86.5 55t-57.5 88t-21 118t21 118t57.5 88t86.5 55t108 19zM323 492q-39 0 -75 -13t-64.5 -40t-45.5 -68t-17 -98t17 -98t45.5 -67.5t64.5 -39.5t75 -13q38 0 74 13
t64 39.5t45 67.5t17 98t-17 98t-45 68t-64 40t-74 13z" />
    <glyph glyph-name="p" unicode="p" horiz-adv-x="673" 
d="M368 553q56 0 103 -19t80.5 -55t52.5 -88t19 -118q0 -65 -19 -117t-52.5 -88t-80.5 -55.5t-103 -19.5q-87 0 -144 44t-78 113v-408h-70v804h70v-150q21 69 78 113t144 44zM349 491q-44 0 -81 -15.5t-64 -44t-42.5 -68.5t-15.5 -90q0 -49 15.5 -89.5t42.5 -69t64 -44
t81 -15.5q93 0 148 57.5t55 160.5t-55 160.5t-148 57.5z" />
    <glyph glyph-name="q" unicode="q" horiz-adv-x="673" 
d="M310 552q83 0 139 -41t79 -108v143h69v-804h-69v404q-23 -68 -79 -110.5t-139 -42.5q-56 0 -104 19.5t-82.5 56t-54 88t-19.5 115.5q0 65 19.5 116.5t54 88t82.5 56t104 19.5zM324 491q-45 0 -82 -14.5t-64 -42.5t-42 -69t-15 -93t15 -92.5t42 -68t64 -42t82 -14.5
q43 0 80 15t64.5 43.5t43.5 68.5t16 91t-16 91t-43.5 68.5t-64.5 43.5t-80 15z" />
    <glyph glyph-name="r" unicode="r" horiz-adv-x="370" 
d="M147 433q24 58 76 90.5t130 32.5v-76h-23q-34 0 -67 -8.5t-59 -29.5t-41.5 -56t-15.5 -87v-299h-71v546h71v-113z" />
    <glyph glyph-name="s" unicode="s" horiz-adv-x="507" 
d="M241 553q91 0 144.5 -48t64.5 -126h-67q-3 25 -13.5 47t-28.5 38.5t-43.5 26.5t-58.5 10q-55 0 -85 -26.5t-30 -70.5q0 -38 24.5 -58t61.5 -31.5t79.5 -20.5t79.5 -25.5t61.5 -45.5t24.5 -82q0 -65 -48 -106.5t-129 -41.5q-95 0 -154.5 46.5t-70.5 127.5h68
q5 -51 45 -86.5t113 -35.5q54 0 82 27.5t28 69.5q0 40 -24.5 60.5t-61 33t-79.5 21t-79.5 24t-61 44t-24.5 79.5q0 67 48.5 108t133.5 41z" />
    <glyph glyph-name="t" unicode="t" horiz-adv-x="363" 
d="M324 62v-62h-65q-76 0 -116.5 36.5t-40.5 127.5v321h-83v61h83v138h71v-138h150v-61h-150v-322q0 -59 21.5 -80t73.5 -21h56z" />
    <glyph glyph-name="u" unicode="u" horiz-adv-x="624" 
d="M547 546v-546h-70v135q-22 -73 -78 -109t-124 -36q-45 0 -84.5 14.5t-68.5 44t-45.5 74t-16.5 105.5v318h70v-312q0 -92 46 -138.5t122 -46.5q79 0 129 51t50 156v290h70z" />
    <glyph glyph-name="v" unicode="v" horiz-adv-x="554" 
d="M278 79l183 467h76l-220 -546h-80l-220 546h76z" />
    <glyph glyph-name="w" unicode="w" horiz-adv-x="828" 
d="M814 546l-161 -546h-74l-164 464l-166 -464h-73l-161 546h71l130 -473l164 473h72l165 -473l129 473h68z" />
    <glyph glyph-name="x" unicode="x" horiz-adv-x="479" 
d="M384 0l-150 223l-139 -223h-77l178 281l-178 265h80l146 -217l137 217h77l-177 -273l183 -273h-80z" />
    <glyph glyph-name="y" unicode="y" horiz-adv-x="547" 
d="M91 546l190 -455l175 455h78l-321 -804h-80l110 264l-230 540h78z" />
    <glyph glyph-name="z" unicode="z" horiz-adv-x="435" 
d="M104 60h303v-60h-379v57l290 430h-282v59h361v-57z" />
    <glyph glyph-name="braceleft" unicode="{" horiz-adv-x="348" 
d="M101 371q62 -13 89.5 -56t27.5 -98q0 -25 -3.5 -47.5t-8 -45.5t-8.5 -49.5t-4 -60.5q0 -44 11.5 -80.5t29.5 -64.5t39.5 -48t42.5 -31v-7h-67q-12 7 -32.5 24t-40.5 46t-34.5 70.5t-14.5 95.5q0 30 4 56t8.5 50t8.5 47t4 46q0 17 -3 37t-14.5 38.5t-33 35t-58.5 25.5v36
q38 10 59.5 26t32.5 35t14 38.5t3 36.5q0 23 -4 46t-8.5 47t-8.5 50t-4 56q0 54 14.5 95.5t34.5 70.5t40.5 46t32.5 24h67v-7q-21 -11 -42.5 -31t-39.5 -48t-29.5 -64.5t-11.5 -80.5q0 -34 4 -60.5t8.5 -49.5t8 -44.5t3.5 -47.5q0 -56 -27 -98.5t-90 -56.5v-2z" />
    <glyph glyph-name="bar" unicode="|" horiz-adv-x="208" 
d="M139 -101h-70v892h70v-892z" />
    <glyph glyph-name="braceright" unicode="}" horiz-adv-x="350" 
d="M255 373q-62 14 -89.5 55t-27.5 95q0 26 4 47.5t8.5 44.5t8 49.5t3.5 60.5q0 43 -11.5 80t-29.5 66.5t-39.5 50.5t-42.5 32v7h67q12 -7 32.5 -24t40.5 -46t34.5 -70.5t14.5 -95.5q0 -30 -4 -56t-8.5 -50t-8.5 -47t-4 -46q0 -17 3.5 -37t14.5 -39t32.5 -35t58.5 -25v-36
q-37 -9 -58.5 -25t-32.5 -35t-14.5 -39t-3.5 -37q0 -23 4 -46t8.5 -47t8.5 -50t4 -56q0 -54 -14.5 -95.5t-34.5 -70.5t-40.5 -46t-32.5 -24h-67v7q21 11 42.5 32t39.5 50.5t29.5 66.5t11.5 80q0 34 -3.5 60.5t-8 49.5t-8.5 45.5t-4 47.5q0 53 27.5 94.5t89.5 54.5v2z" />
    <glyph glyph-name="asciitilde" unicode="~" horiz-adv-x="487" 
d="M161 387q27 0 49 -10.5t41.5 -23t38.5 -23t41 -10.5q26 0 42.5 19t21.5 48h57q-11 -65 -43 -98.5t-83 -33.5q-27 0 -49 10.5t-41.5 23t-38.5 23t-41 10.5q-27 0 -43.5 -19t-21.5 -48h-56q11 65 43 98.5t83 33.5z" />
    <glyph glyph-name="exclamdown" unicode="&#xa1;" horiz-adv-x="284" 
d="M95 556h93v-90h-93v90zM112 360h56l11 -521h-78z" />
    <glyph glyph-name="cent" unicode="&#xa2;" horiz-adv-x="586" 
d="M300 73q66 0 112.5 36.5t57.5 101.5h66q-11 -86 -71 -139t-152 -57v-106h-38v107q-50 4 -91.5 22.5t-71 50t-46 76.5t-16.5 101t16.5 100.5t46 76.5t71 50t91.5 22v100h38v-99q92 -4 152 -56.5t71 -138.5h-66q-11 66 -57.5 102t-112.5 36q-36 0 -69 -11.5t-58 -35.5
t-40 -60.5t-15 -85.5t15 -85.5t40 -60.5t58 -35.5t69 -11.5z" />
    <glyph glyph-name="sterling" unicode="&#xa3;" horiz-adv-x="575" 
d="M245 232q0 -48 -18.5 -91t-60.5 -85h366v-58h-433l-10 41q20 21 36.5 41.5t28.5 43t18.5 48.5t6.5 57q0 22 -4.5 43t-11.5 43h-118v49h101q-14 37 -25 77.5t-11 88.5q0 43 14.5 79t41.5 62t65 40.5t84 14.5q50 0 89.5 -16t67 -43t44 -64t20.5 -79h-66q-3 31 -15.5 57
t-32 45.5t-46 30.5t-59.5 11q-28 0 -53 -8.5t-44 -26.5t-30.5 -45t-11.5 -64q0 -42 12 -81.5t26 -78.5h187v-49h-171q6 -20 9.5 -41t3.5 -42z" />
    <glyph glyph-name="currency" unicode="&#xa4;" horiz-adv-x="527" 
d="M434 378q0 -34 -10 -62.5t-27 -50.5l59 -58l-30 -30l-58 58q-46 -33 -104 -33q-63 0 -106 34l-58 -59l-31 30l59 59q-16 22 -25 50t-9 62q0 66 36 113l-61 59l31 30l60 -60q44 32 104 32q58 0 102 -32l60 60l30 -30l-60 -59q18 -22 28 -50t10 -63zM264 247q22 0 42 8.5
t35.5 25t25 41t9.5 55.5t-9 55t-24.5 40.5t-36 25.5t-42.5 9q-48 0 -80 -34t-32 -96q0 -63 32 -96.5t80 -33.5z" />
    <glyph glyph-name="yen" unicode="&#xa5;" horiz-adv-x="605" 
d="M392 373h148v-50h-175l-25 -48v-35h200v-51h-200v-189h-70v189h-200v51h200v35l-26 48h-174v50h148l-177 332h82l182 -364l182 364h80z" />
    <glyph glyph-name="brokenbar" unicode="&#xa6;" horiz-adv-x="251" 
d="M90 791h71v-370h-71v370zM161 -101h-71v372h71v-372z" />
    <glyph glyph-name="section" unicode="&#xa7;" horiz-adv-x="573" 
d="M360 125q28 -10 52.5 -24t43 -32.5t29.5 -41t11 -51.5q0 -63 -49 -104t-140 -41q-95 0 -153.5 47t-68.5 130h69q3 -24 13 -47t28 -40t46 -27.5t67 -10.5q51 0 84 21.5t33 68.5q0 44 -37 72.5t-128 55.5q-43 12 -81.5 27.5t-67 36.5t-45 50.5t-16.5 70.5q0 27 10 53.5
t30.5 48.5t52 37.5t73.5 21.5q-28 11 -53 25t-44 32.5t-30.5 41.5t-11.5 52q0 63 50 103t143 40q94 0 151 -47t68 -130h-70q-2 22 -11.5 44.5t-27.5 40.5t-45.5 29t-65.5 11q-53 0 -87 -21.5t-34 -66.5q0 -44 37.5 -73.5t128.5 -56.5q43 -12 81 -27.5t66.5 -36.5t45 -50.5
t16.5 -70.5q0 -27 -10 -53t-30 -47.5t-51 -37.5t-72 -23zM125 286q0 -55 42.5 -89.5t121.5 -34.5q39 0 69 10t50.5 27.5t30.5 40t10 46.5q0 55 -42.5 89.5t-121.5 34.5q-39 0 -69 -10t-50.5 -27t-30.5 -39.5t-10 -47.5z" />
    <glyph glyph-name="dieresis" unicode="&#xa8;" horiz-adv-x="344" 
d="M50 669q0 19 12.5 31.5t31.5 12.5q18 0 31 -12.5t13 -31.5q0 -18 -13 -31t-31 -13q-19 0 -31.5 13t-12.5 31zM207 669q0 19 12.5 31.5t30.5 12.5q19 0 31.5 -12.5t12.5 -31.5q0 -18 -12.5 -31t-31.5 -13q-18 0 -30.5 13t-12.5 31z" />
    <glyph glyph-name="copyright" unicode="&#xa9;" horiz-adv-x="795" 
d="M398 707q77 0 140.5 -26t109 -73t70.5 -111.5t25 -142.5t-25 -143t-70.5 -112t-109 -73t-140.5 -26t-140.5 26t-109 73t-70.5 112t-25 143t25 142.5t70.5 111.5t109 73t140.5 26zM398 677q-72 0 -130 -24t-98.5 -67t-62.5 -102.5t-22 -129.5t22 -129.5t62.5 -103
t98.5 -67.5t130 -24t130 24t98.5 67.5t62 103t21.5 129.5t-21.5 129.5t-62 102.5t-98.5 67t-130 24zM401 587q-44 0 -83.5 -15t-69 -44.5t-47 -73t-17.5 -100.5t17.5 -100.5t47 -73.5t69 -45t83.5 -15q36 0 69 10.5t60.5 31t47.5 50.5t29 69h-62q-17 -54 -57 -82t-89 -28
q-31 0 -59 11.5t-50 34t-35 57t-13 79.5q0 46 13 80t35 57t50 34.5t59 11.5q49 0 89 -28t57 -82h62q-9 39 -29 69t-47.5 50.5t-60.5 31t-69 10.5z" />
    <glyph glyph-name="ordfeminine" unicode="&#xaa;" horiz-adv-x="445" 
d="M198 710q55 0 90 -25.5t50 -69.5v89h56v-350h-56v89q-15 -44 -50 -69.5t-90 -25.5q-73 0 -118 49t-45 132q0 41 12 74.5t33.5 57t51.5 36.5t66 13zM212 664q-51 0 -85.5 -36.5t-34.5 -99.5t34.5 -98.5t85.5 -35.5q56 0 91 36t35 99t-35 99t-91 36z" />
    <glyph glyph-name="guillemotleft" unicode="&#xab;" horiz-adv-x="435" 
d="M145 120l-100 175l100 175h70l-101 -175l101 -175h-70zM317 120l-99 175l99 175h71l-102 -175l102 -175h-71z" />
    <glyph glyph-name="logicalnot" unicode="&#xac;" horiz-adv-x="730" 
d="M680 430v-200h-69v144h-561v56h630z" />
    <glyph glyph-name="registered" unicode="&#xae;" horiz-adv-x="795" 
d="M398 707q77 0 140.5 -25t109 -71.5t70.5 -111.5t25 -145q0 -78 -25 -143t-70.5 -112t-109 -73.5t-140.5 -26.5t-140.5 26.5t-109 73.5t-70.5 112t-25 143q0 80 25 145t70.5 111.5t109 71.5t140.5 25zM398 36q72 0 130 23t98.5 65t62 100.5t21.5 129.5q0 74 -21.5 133.5
t-62 102t-98.5 65.5t-130 23t-130 -23t-98.5 -65.5t-62.5 -102t-22 -133.5q0 -71 22 -129.5t62.5 -100.5t98.5 -65t130 -23zM571 466q0 -54 -33 -87.5t-98 -38.5l131 -197h-54l-128 196h-76v-196h-48v448h152q81 0 117.5 -35.5t36.5 -89.5zM413 374q60 0 84 24t24 63
q0 41 -24 63.5t-84 22.5h-100v-173h100z" />
    <glyph glyph-name="macron" unicode="&#xaf;" horiz-adv-x="405" 
d="M372 700v-50h-339v50h339z" />
    <glyph glyph-name="degree" unicode="&#xb0;" horiz-adv-x="391" 
d="M196 697q75 0 121 -47t46 -127t-45.5 -128t-120.5 -48q-76 0 -122.5 48t-46.5 128t46 127t122 47zM196 655q-49 0 -79.5 -34t-30.5 -99q0 -64 31 -98t80 -34q48 0 78.5 34t30.5 98q0 65 -30.5 99t-79.5 34z" />
    <glyph glyph-name="plusminus" unicode="&#xb1;" horiz-adv-x="580" 
d="M545 443v-64h-221v-219h-69v219h-220v64h220v191h69v-191h221zM35 156h510v-64h-510v64z" />
    <glyph glyph-name="uni00B2" unicode="&#xb2;" horiz-adv-x="331" 
d="M294 397v-45h-252v38l119 102q27 24 47.5 50.5t20.5 63.5q0 32 -18 47t-42 15q-65 0 -73 -77h-56q2 24 11 45.5t25.5 38t41 26t56.5 9.5q55 0 84.5 -28t29.5 -72q0 -45 -27 -78t-75 -68l-84 -67h192z" />
    <glyph glyph-name="uni00B3" unicode="&#xb3;" horiz-adv-x="327" 
d="M169 710q54 0 87.5 -27t33.5 -72q0 -30 -17 -51.5t-52 -29.5v-3q34 -9 53 -30t19 -55q0 -38 -31.5 -66t-94.5 -28q-65 0 -96.5 26.5t-37.5 79.5h58q5 -38 24.5 -51.5t48.5 -13.5q34 0 52.5 16t18.5 45q0 32 -22 48t-55 16h-53v27h53q33 0 53 16.5t20 47.5q0 28 -18 45
t-49 17q-33 0 -51 -16t-23 -42h-54q3 20 11.5 38t24.5 32t40 22.5t57 8.5z" />
    <glyph glyph-name="acute" unicode="&#xb4;" horiz-adv-x="270" 
d="M210 685l-162 -87l-16 28l159 99z" />
    <glyph glyph-name="uni00B5" unicode="&#xb5;" horiz-adv-x="652" 
d="M570 546v-546h-71v130q-21 -71 -73.5 -105.5t-117.5 -34.5q-46 0 -89.5 20.5t-66.5 74.5v-343h-69v804h69v-282q0 -54 13 -94t36.5 -66t56 -39t71.5 -13q75 0 122.5 50.5t47.5 153.5v290h71z" />
    <glyph glyph-name="paragraph" unicode="&#xb6;" horiz-adv-x="561" 
d="M479 0h-59v635h-96v-635h-59v289h-8q-61 0 -105.5 15.5t-73.5 42.5t-43 63.5t-14 78.5q0 43 14.5 80t43.5 64t73.5 42t104.5 15h222v-690z" />
    <glyph glyph-name="periodcentered" unicode="&#xb7;" horiz-adv-x="162" 
d="M127 390v-90h-93v90h93z" />
    <glyph glyph-name="cedilla" unicode="&#xb8;" horiz-adv-x="273" 
d="M113 -74q56 3 91.5 -19t35.5 -70q0 -47 -32.5 -71t-84.5 -24h-90v43h82q41 0 57 15t16 38q0 21 -16 35.5t-57 14.5h-49v119h47v-81z" />
    <glyph glyph-name="uni00B9" unicode="&#xb9;" horiz-adv-x="187" 
d="M35 659v45h113v-352h-56v307h-57z" />
    <glyph glyph-name="ordmasculine" unicode="&#xba;" horiz-adv-x="427" 
d="M214 709q40 0 73 -13.5t56.5 -37.5t36.5 -57.5t13 -73.5t-13 -73.5t-36.5 -58t-56.5 -38t-73 -13.5q-39 0 -72 13.5t-57 38t-37 58t-13 73.5t13 73.5t37 57.5t57 37.5t72 13.5zM214 663q-51 0 -86.5 -35t-35.5 -101q0 -67 35.5 -101.5t86.5 -34.5t86.5 34.5t35.5 101.5
q0 66 -35.5 101t-86.5 35z" />
    <glyph glyph-name="guillemotright" unicode="&#xbb;" horiz-adv-x="435" 
d="M153 295l-103 175h72l98 -175l-98 -175h-72zM325 295l-102 175h71l99 -175l-99 -175h-71z" />
    <glyph glyph-name="onequarter" unicode="&#xbc;" horiz-adv-x="604" 
d="M497 705l-357 -705h-70l358 705h69zM56 659v45h113v-352h-56v307h-57zM568 72h-50v-72h-56v72h-180v34l168 248h68v-245h50v-37zM464 294l-125 -184h125v184z" />
    <glyph glyph-name="onehalf" unicode="&#xbd;" horiz-adv-x="677" 
d="M487 706l-360 -706h-69l360 706h69zM116 659h-57v45h113v-352h-56v307zM627 44v-45h-252v38l119 102q27 24 47.5 50.5t20.5 63.5q0 32 -18 47t-42 15q-65 0 -73 -77h-56q2 24 11 45.5t25.5 38t41 26t56.5 9.5q55 0 84.5 -28t29.5 -72q0 -45 -27 -78t-75 -68l-84 -67h192z
" />
    <glyph glyph-name="threequarters" unicode="&#xbe;" horiz-adv-x="655" 
d="M195 710q54 0 87.5 -27t33.5 -72q0 -30 -17 -51.5t-52 -29.5v-3q34 -9 53 -30t19 -55q0 -38 -31.5 -66t-94.5 -28q-65 0 -96.5 26.5t-37.5 79.5h58q5 -38 24.5 -51.5t48.5 -13.5q34 0 52.5 16t18.5 45q0 32 -22 48t-55 16h-53v27h53q33 0 53 16.5t20 47.5q0 28 -18 45
t-49 17q-33 0 -51 -16t-23 -42h-54q3 20 11.5 38t24.5 32t40 22.5t57 8.5zM568 706l-353 -706h-69l353 706h69zM621 72h-50v-72h-56v72h-180v34l163 248h73v-245h50v-37zM518 299l-126 -190h126v190z" />
    <glyph glyph-name="questiondown" unicode="&#xbf;" horiz-adv-x="481" 
d="M280 456v90h92v-90h-92zM255 -181q-48 0 -86.5 13.5t-66.5 39.5t-43 63t-15 84q0 57 18 97.5t51 66.5t79 38t101 13v126h67v-175h-33q-40 0 -78.5 -6t-68.5 -24t-48.5 -50.5t-18.5 -85.5q0 -66 39 -103.5t105 -37.5q69 0 111 38t42 101h67q1 -45 -15.5 -81.5t-46 -62.5
t-70.5 -40t-90 -14z" />
    <glyph glyph-name="Agrave" unicode="&#xc0;" 
d="M405 751l-152 98l22 39l146 -107zM483 172h-321l-64 -172h-75l260 689h79l260 -689h-76zM462 228l-139 380l-141 -380h280z" />
    <glyph glyph-name="Aacute" unicode="&#xc1;" 
d="M259 757l-16 28l159 99l19 -40zM483 172h-321l-64 -172h-75l260 689h79l260 -689h-76zM462 228l-139 380l-141 -380h280z" />
    <glyph glyph-name="Acircumflex" unicode="&#xc2;" 
d="M213 758l-17 31l127 78l126 -78l-16 -32l-110 66zM483 172h-321l-64 -172h-75l260 689h79l260 -689h-76zM462 228l-139 380l-141 -380h280z" />
    <glyph glyph-name="Atilde" unicode="&#xc3;" 
d="M266 811q-35 0 -41 -46h-36q6 43 26 64.5t52 21.5q19 0 33 -7.5t26 -16t24 -16t28 -7.5t27.5 11t14.5 34h36q-5 -41 -26.5 -63t-53.5 -22q-19 0 -33.5 7.5t-26.5 16t-23.5 16t-26.5 7.5zM483 172h-321l-64 -172h-75l260 689h79l260 -689h-76zM462 228l-139 380l-141 -380
h280z" />
    <glyph glyph-name="Adieresis" unicode="&#xc4;" 
d="M244 784q-19 0 -31.5 13t-12.5 31q0 19 12.5 31.5t31.5 12.5q18 0 31 -12.5t13 -31.5q0 -18 -13 -31t-31 -13zM400 784q-18 0 -30.5 13t-12.5 31q0 19 12.5 31.5t30.5 12.5q19 0 31.5 -12.5t12.5 -31.5q0 -18 -12.5 -31t-31.5 -13zM483 172h-321l-64 -172h-75l260 689h79
l260 -689h-76zM462 228l-139 380l-141 -380h280z" />
    <glyph glyph-name="Aring" unicode="&#xc5;" 
d="M322 769q-42 0 -71 26.5t-29 73.5q0 48 29 74.5t71 26.5t71.5 -26.5t29.5 -74.5q0 -47 -29.5 -73.5t-71.5 -26.5zM322 935q-27 0 -45.5 -17.5t-18.5 -48.5t18.5 -48.5t45.5 -17.5q28 0 46 17.5t18 48.5t-18 48.5t-46 17.5zM483 172h-321l-64 -172h-75l260 689h79
l260 -689h-76zM462 228l-139 380l-141 -380h280z" />
    <glyph glyph-name="AE" unicode="&#xc6;" horiz-adv-x="874" 
d="M525 648v-265h273v-56h-273v-269h303v-58h-373v170h-271l-99 -170h-77l409 705h411v-57h-303zM455 225v410l-239 -410h239z" />
    <glyph glyph-name="Ccedilla" unicode="&#xc7;" horiz-adv-x="765" 
d="M385 58q100 0 163.5 47t90.5 119h74q-31 -100 -107.5 -162.5t-198.5 -68.5v-67q56 3 91.5 -19t35.5 -70q0 -47 -32.5 -71t-84.5 -24h-90v43h82q41 0 57 15t16 38q0 21 -16 35.5t-57 14.5h-49v106q-69 4 -125.5 32.5t-97 75.5t-62.5 111t-22 139q0 80 24.5 146t68.5 113.5
t105 74t135 26.5q131 0 212.5 -63.5t114.5 -167.5h-74q-27 73 -90.5 119.5t-163.5 46.5q-55 0 -102.5 -20.5t-82.5 -58.5t-55 -92.5t-20 -123.5q0 -68 20 -122.5t55 -92.5t82.5 -58.5t102.5 -20.5z" />
    <glyph glyph-name="Egrave" unicode="&#xc8;" horiz-adv-x="498" 
d="M348 781l-16 -30l-152 98l22 39zM147 648v-266h275v-55h-275v-269h305v-58h-376v705h376v-57h-305z" />
    <glyph glyph-name="Eacute" unicode="&#xc9;" horiz-adv-x="498" 
d="M348 844l-162 -87l-16 28l159 99zM147 648v-266h275v-55h-275v-269h305v-58h-376v705h376v-57h-305z" />
    <glyph glyph-name="Ecircumflex" unicode="&#xca;" horiz-adv-x="498" 
d="M250 823l-110 -65l-17 31l127 78l126 -78l-16 -32zM147 648v-266h275v-55h-275v-269h305v-58h-376v705h376v-57h-305z" />
    <glyph glyph-name="Edieresis" unicode="&#xcb;" horiz-adv-x="498" 
d="M143 828q0 19 12.5 31.5t31.5 12.5q18 0 31 -12.5t13 -31.5q0 -18 -13 -31t-31 -13q-19 0 -31.5 13t-12.5 31zM300 828q0 19 12.5 31.5t30.5 12.5q19 0 31.5 -12.5t12.5 -31.5q0 -18 -12.5 -31t-31.5 -13q-18 0 -30.5 13t-12.5 31zM147 648v-266h275v-55h-275v-269h305
v-58h-376v705h376v-57h-305z" />
    <glyph glyph-name="Igrave" unicode="&#xcc;" horiz-adv-x="223" 
d="M210 781l-16 -30l-152 98l22 39zM147 705v-705h-71v705h71z" />
    <glyph glyph-name="Iacute" unicode="&#xcd;" horiz-adv-x="223" 
d="M210 844l-162 -87l-16 28l159 99zM147 705v-705h-71v705h71z" />
    <glyph glyph-name="Icircumflex" unicode="&#xce;" horiz-adv-x="223" 
d="M112 823l-110 -65l-17 31l127 78l126 -78l-16 -32zM147 705v-705h-71v705h71z" />
    <glyph glyph-name="Idieresis" unicode="&#xcf;" horiz-adv-x="223" 
d="M-10 828q0 19 12.5 31.5t31.5 12.5q18 0 31 -12.5t13 -31.5q0 -18 -13 -31t-31 -13q-19 0 -31.5 13t-12.5 31zM147 828q0 19 12.5 31.5t30.5 12.5q19 0 31.5 -12.5t12.5 -31.5q0 -18 -12.5 -31t-31.5 -13q-18 0 -30.5 13t-12.5 31zM147 705v-705h-71v705h71z" />
    <glyph glyph-name="Eth" unicode="&#xd0;" horiz-adv-x="742" 
d="M319 705q90 0 159 -24.5t116.5 -70t71.5 -110.5t24 -147q0 -81 -24 -146.5t-71.5 -111.5t-116.5 -70.5t-159 -24.5h-213v324h-98v58h98v323h213zM314 63q151 0 228 77.5t77 212.5t-77 212.5t-228 77.5h-137v-261h207v-58h-207v-261h137z" />
    <glyph glyph-name="Ntilde" unicode="&#xd1;" horiz-adv-x="680" 
d="M285 851q19 0 33 -7.5t26 -16t24 -16t28 -7.5t27.5 11t14.5 34h36q-5 -41 -26.5 -63t-53.5 -22q-19 0 -33.5 7.5t-26.5 16t-23.5 16t-26.5 7.5q-35 0 -41 -46h-36q6 43 26 64.5t52 21.5zM604 0h-71l-386 589v-589h-71v704h71l386 -590v590h71v-704z" />
    <glyph glyph-name="Ograve" unicode="&#xd2;" horiz-adv-x="791" 
d="M494 781l-16 -30l-152 98l22 39zM396 713q74 0 137 -26.5t108.5 -74.5t71.5 -114t26 -145t-26 -145.5t-71.5 -114.5t-108.5 -74.5t-137 -26.5t-137 26.5t-108.5 74.5t-71.5 114.5t-26 145.5t26 145t71.5 114t108.5 74.5t137 26.5zM396 648q-58 0 -107.5 -20.5t-86 -58.5
t-57 -92.5t-20.5 -123.5t20.5 -123.5t57 -92.5t86 -58.5t107.5 -20.5q57 0 106.5 20.5t86 58.5t57.5 92.5t21 123.5t-21 123.5t-57.5 92.5t-86 58.5t-106.5 20.5z" />
    <glyph glyph-name="Oacute" unicode="&#xd3;" horiz-adv-x="791" 
d="M494 844l-162 -87l-16 28l159 99zM396 713q74 0 137 -26.5t108.5 -74.5t71.5 -114t26 -145t-26 -145.5t-71.5 -114.5t-108.5 -74.5t-137 -26.5t-137 26.5t-108.5 74.5t-71.5 114.5t-26 145.5t26 145t71.5 114t108.5 74.5t137 26.5zM396 648q-58 0 -107.5 -20.5t-86 -58.5
t-57 -92.5t-20.5 -123.5t20.5 -123.5t57 -92.5t86 -58.5t107.5 -20.5q57 0 106.5 20.5t86 58.5t57.5 92.5t21 123.5t-21 123.5t-57.5 92.5t-86 58.5t-106.5 20.5z" />
    <glyph glyph-name="Ocircumflex" unicode="&#xd4;" horiz-adv-x="791" 
d="M396 823l-110 -65l-17 31l127 78l126 -78l-16 -32zM396 713q74 0 137 -26.5t108.5 -74.5t71.5 -114t26 -145t-26 -145.5t-71.5 -114.5t-108.5 -74.5t-137 -26.5t-137 26.5t-108.5 74.5t-71.5 114.5t-26 145.5t26 145t71.5 114t108.5 74.5t137 26.5zM396 648
q-58 0 -107.5 -20.5t-86 -58.5t-57 -92.5t-20.5 -123.5t20.5 -123.5t57 -92.5t86 -58.5t107.5 -20.5q57 0 106.5 20.5t86 58.5t57.5 92.5t21 123.5t-21 123.5t-57.5 92.5t-86 58.5t-106.5 20.5z" />
    <glyph glyph-name="Otilde" unicode="&#xd5;" horiz-adv-x="791" 
d="M340 851q19 0 33 -7.5t26 -16t24 -16t28 -7.5t27.5 11t14.5 34h36q-5 -41 -26.5 -63t-53.5 -22q-19 0 -33.5 7.5t-26.5 16t-23.5 16t-26.5 7.5q-35 0 -41 -46h-36q6 43 26 64.5t52 21.5zM396 713q74 0 137 -26.5t108.5 -74.5t71.5 -114t26 -145t-26 -145.5t-71.5 -114.5
t-108.5 -74.5t-137 -26.5t-137 26.5t-108.5 74.5t-71.5 114.5t-26 145.5t26 145t71.5 114t108.5 74.5t137 26.5zM396 648q-58 0 -107.5 -20.5t-86 -58.5t-57 -92.5t-20.5 -123.5t20.5 -123.5t57 -92.5t86 -58.5t107.5 -20.5q57 0 106.5 20.5t86 58.5t57.5 92.5t21 123.5
t-21 123.5t-57.5 92.5t-86 58.5t-106.5 20.5z" />
    <glyph glyph-name="Odieresis" unicode="&#xd6;" horiz-adv-x="791" 
d="M274 828q0 19 12.5 31.5t31.5 12.5q18 0 31 -12.5t13 -31.5q0 -18 -13 -31t-31 -13q-19 0 -31.5 13t-12.5 31zM431 828q0 19 12.5 31.5t30.5 12.5q19 0 31.5 -12.5t12.5 -31.5q0 -18 -12.5 -31t-31.5 -13q-18 0 -30.5 13t-12.5 31zM396 713q74 0 137 -26.5t108.5 -74.5
t71.5 -114t26 -145t-26 -145.5t-71.5 -114.5t-108.5 -74.5t-137 -26.5t-137 26.5t-108.5 74.5t-71.5 114.5t-26 145.5t26 145t71.5 114t108.5 74.5t137 26.5zM396 648q-58 0 -107.5 -20.5t-86 -58.5t-57 -92.5t-20.5 -123.5t20.5 -123.5t57 -92.5t86 -58.5t107.5 -20.5
q57 0 106.5 20.5t86 58.5t57.5 92.5t21 123.5t-21 123.5t-57.5 92.5t-86 58.5t-106.5 20.5z" />
    <glyph glyph-name="multiply" unicode="&#xd7;" horiz-adv-x="497" 
d="M415 158l-168 168l-166 -167l-45 46l166 166l-166 166l47 47l166 -166l164 165l46 -45l-165 -165l168 -168z" />
    <glyph glyph-name="Oslash" unicode="&#xd8;" horiz-adv-x="791" 
d="M649 604q42 -48 66 -111.5t24 -139.5q0 -79 -26 -145.5t-71.5 -114.5t-108.5 -74.5t-137 -26.5q-68 0 -125.5 22t-102.5 62l-70 -76h-48l93 102q-43 48 -66.5 111.5t-23.5 139.5q0 79 26 145t71.5 114t108.5 74.5t137 26.5q67 0 125 -22t103 -62l70 77h47zM125 353
q0 -63 17 -113t47 -88l389 427q-35 34 -81.5 51.5t-100.5 17.5q-58 0 -107.5 -20.5t-86 -58.5t-57 -92.5t-20.5 -123.5zM667 353q0 63 -17 113t-48 88l-389 -427q74 -69 183 -69q57 0 106.5 20.5t86 58.5t57.5 92.5t21 123.5z" />
    <glyph glyph-name="Ugrave" unicode="&#xd9;" horiz-adv-x="652" 
d="M424 781l-16 -30l-152 98l22 39zM142 705v-427q0 -59 13.5 -100.5t38 -68t58.5 -38.5t75 -12t74.5 12t57.5 38.5t37.5 68t13.5 100.5v427h70v-427q0 -74 -19 -128t-52.5 -89t-80 -51.5t-102.5 -16.5q-55 0 -102 16.5t-80.5 51.5t-52.5 89t-19 128v427h70z" />
    <glyph glyph-name="Uacute" unicode="&#xda;" horiz-adv-x="652" 
d="M424 844l-162 -87l-16 28l159 99zM142 705v-427q0 -59 13.5 -100.5t38 -68t58.5 -38.5t75 -12t74.5 12t57.5 38.5t37.5 68t13.5 100.5v427h70v-427q0 -74 -19 -128t-52.5 -89t-80 -51.5t-102.5 -16.5q-55 0 -102 16.5t-80.5 51.5t-52.5 89t-19 128v427h70z" />
    <glyph glyph-name="Ucircumflex" unicode="&#xdb;" horiz-adv-x="652" 
d="M326 823l-110 -65l-17 31l127 78l126 -78l-16 -32zM142 705v-427q0 -59 13.5 -100.5t38 -68t58.5 -38.5t75 -12t74.5 12t57.5 38.5t37.5 68t13.5 100.5v427h70v-427q0 -74 -19 -128t-52.5 -89t-80 -51.5t-102.5 -16.5q-55 0 -102 16.5t-80.5 51.5t-52.5 89t-19 128v427
h70z" />
    <glyph glyph-name="Udieresis" unicode="&#xdc;" horiz-adv-x="652" 
d="M204 828q0 19 12.5 31.5t31.5 12.5q18 0 31 -12.5t13 -31.5q0 -18 -13 -31t-31 -13q-19 0 -31.5 13t-12.5 31zM361 828q0 19 12.5 31.5t30.5 12.5q19 0 31.5 -12.5t12.5 -31.5q0 -18 -12.5 -31t-31.5 -13q-18 0 -30.5 13t-12.5 31zM142 705v-427q0 -59 13.5 -100.5
t38 -68t58.5 -38.5t75 -12t74.5 12t57.5 38.5t37.5 68t13.5 100.5v427h70v-427q0 -74 -19 -128t-52.5 -89t-80 -51.5t-102.5 -16.5q-55 0 -102 16.5t-80.5 51.5t-52.5 89t-19 128v427h70z" />
    <glyph glyph-name="Yacute" unicode="&#xdd;" horiz-adv-x="571" 
d="M222 757l-16 28l159 99l19 -40zM549 705l-227 -430v-275h-71v275l-228 430h81l182 -355l182 355h81z" />
    <glyph glyph-name="Thorn" unicode="&#xde;" horiz-adv-x="558" 
d="M147 151v-151h-71v705h70v-148h141q62 0 106.5 -14.5t73.5 -41.5t42.5 -64.5t13.5 -83.5q0 -97 -60 -149.5t-176 -52.5h-140zM281 208q95 0 133 39.5t38 105.5q0 68 -38 107.5t-133 39.5h-134v-292h134z" />
    <glyph glyph-name="germandbls" unicode="&#xdf;" horiz-adv-x="634" 
d="M468 363q72 -45 103 -92.5t31 -112.5q0 -36 -13.5 -67t-37.5 -53.5t-58 -35.5t-75 -13q-88 0 -138.5 49t-51.5 138h60q2 -54 31.5 -89.5t92.5 -35.5q32 0 55 10t37.5 26t21.5 36t7 40q0 41 -20 75.5t-76 71.5l-159 101v34l36 19q36 18 52.5 43t16.5 62q0 52 -31 84.5
t-82 32.5q-58 0 -91 -33.5t-33 -92.5l1 -560h-71v548q0 100 53.5 151t147.5 51q39 0 71.5 -11.5t56.5 -32.5t37 -50.5t13 -65.5q0 -47 -24 -82t-78 -59l-12 -5z" />
    <glyph glyph-name="agrave" unicode="&#xe0;" horiz-adv-x="673" 
d="M435 622l-16 -30l-152 98l22 39zM306 553q86 0 143.5 -44t78.5 -113v150h69v-546h-69v150q-21 -69 -78.5 -113t-143.5 -44q-56 0 -103 19.5t-81 55.5t-53 88t-19 117q0 66 19 118t53 88t81 55t103 19zM324 491q-46 0 -83.5 -15t-64 -43t-41 -68.5t-14.5 -91.5t14.5 -91.5
t41 -68.5t64 -43t83.5 -15q44 0 81.5 15.5t64.5 44t42.5 69t15.5 89.5q0 50 -15.5 90t-42.5 68.5t-64.5 44t-81.5 15.5z" />
    <glyph glyph-name="aacute" unicode="&#xe1;" horiz-adv-x="673" 
d="M435 685l-162 -87l-16 28l159 99zM306 553q86 0 143.5 -44t78.5 -113v150h69v-546h-69v150q-21 -69 -78.5 -113t-143.5 -44q-56 0 -103 19.5t-81 55.5t-53 88t-19 117q0 66 19 118t53 88t81 55t103 19zM324 491q-46 0 -83.5 -15t-64 -43t-41 -68.5t-14.5 -91.5
t14.5 -91.5t41 -68.5t64 -43t83.5 -15q44 0 81.5 15.5t64.5 44t42.5 69t15.5 89.5q0 50 -15.5 90t-42.5 68.5t-64.5 44t-81.5 15.5z" />
    <glyph glyph-name="acircumflex" unicode="&#xe2;" horiz-adv-x="673" 
d="M337 664l-110 -65l-17 31l127 78l126 -78l-16 -32zM306 553q86 0 143.5 -44t78.5 -113v150h69v-546h-69v150q-21 -69 -78.5 -113t-143.5 -44q-56 0 -103 19.5t-81 55.5t-53 88t-19 117q0 66 19 118t53 88t81 55t103 19zM324 491q-46 0 -83.5 -15t-64 -43t-41 -68.5
t-14.5 -91.5t14.5 -91.5t41 -68.5t64 -43t83.5 -15q44 0 81.5 15.5t64.5 44t42.5 69t15.5 89.5q0 50 -15.5 90t-42.5 68.5t-64.5 44t-81.5 15.5z" />
    <glyph glyph-name="atilde" unicode="&#xe3;" horiz-adv-x="673" 
d="M281 692q19 0 33 -7.5t26 -16t24 -16t28 -7.5t27.5 11t14.5 34h36q-5 -41 -26.5 -63t-53.5 -22q-19 0 -33.5 7.5t-26.5 16t-23.5 16t-26.5 7.5q-35 0 -41 -46h-36q6 43 26 64.5t52 21.5zM306 553q86 0 143.5 -44t78.5 -113v150h69v-546h-69v150q-21 -69 -78.5 -113
t-143.5 -44q-56 0 -103 19.5t-81 55.5t-53 88t-19 117q0 66 19 118t53 88t81 55t103 19zM324 491q-46 0 -83.5 -15t-64 -43t-41 -68.5t-14.5 -91.5t14.5 -91.5t41 -68.5t64 -43t83.5 -15q44 0 81.5 15.5t64.5 44t42.5 69t15.5 89.5q0 50 -15.5 90t-42.5 68.5t-64.5 44
t-81.5 15.5z" />
    <glyph glyph-name="adieresis" unicode="&#xe4;" horiz-adv-x="673" 
d="M202 669q0 19 12.5 31.5t31.5 12.5q18 0 31 -12.5t13 -31.5q0 -18 -13 -31t-31 -13q-19 0 -31.5 13t-12.5 31zM359 669q0 19 12.5 31.5t30.5 12.5q19 0 31.5 -12.5t12.5 -31.5q0 -18 -12.5 -31t-31.5 -13q-18 0 -30.5 13t-12.5 31zM306 553q86 0 143.5 -44t78.5 -113v150
h69v-546h-69v150q-21 -69 -78.5 -113t-143.5 -44q-56 0 -103 19.5t-81 55.5t-53 88t-19 117q0 66 19 118t53 88t81 55t103 19zM324 491q-46 0 -83.5 -15t-64 -43t-41 -68.5t-14.5 -91.5t14.5 -91.5t41 -68.5t64 -43t83.5 -15q44 0 81.5 15.5t64.5 44t42.5 69t15.5 89.5
q0 50 -15.5 90t-42.5 68.5t-64.5 44t-81.5 15.5z" />
    <glyph glyph-name="aring" unicode="&#xe5;" horiz-adv-x="673" 
d="M324 811q42 0 71.5 -26.5t29.5 -74.5q0 -47 -29.5 -73.5t-71.5 -26.5t-71 26.5t-29 73.5q0 48 29 74.5t71 26.5zM324 776q-27 0 -45.5 -17.5t-18.5 -48.5t18.5 -48.5t45.5 -17.5q28 0 46 17.5t18 48.5t-18 48.5t-46 17.5zM306 553q86 0 143.5 -44t78.5 -113v150h69v-546
h-69v150q-21 -69 -78.5 -113t-143.5 -44q-56 0 -103 19.5t-81 55.5t-53 88t-19 117q0 66 19 118t53 88t81 55t103 19zM324 491q-46 0 -83.5 -15t-64 -43t-41 -68.5t-14.5 -91.5t14.5 -91.5t41 -68.5t64 -43t83.5 -15q44 0 81.5 15.5t64.5 44t42.5 69t15.5 89.5
q0 50 -15.5 90t-42.5 68.5t-64.5 44t-81.5 15.5z" />
    <glyph glyph-name="ae" unicode="&#xe6;" horiz-adv-x="1115" 
d="M800 50q75 0 126 36.5t62 101.5h74q-7 -42 -27 -78t-51 -62t-72.5 -40.5t-92.5 -14.5q-79 0 -140 39.5t-82 118.5v-151h-69v150q-21 -69 -78.5 -113t-143.5 -44q-56 0 -103 19.5t-81 55.5t-53 88t-19 117q0 66 19 118t53 88t81 55t103 19q86 0 143.5 -44t78.5 -113v150
h69v-150q11 39 32 68t50 49t65 30t75 10q60 0 105.5 -20t77 -54t47.5 -78.5t16 -92.5q0 -17 -1 -27.5t-3 -23.5h-462q2 -54 19.5 -93.5t45 -64.5t63 -37t73.5 -12zM801 496q-37 0 -73 -11.5t-64 -36.5t-45.5 -63t-19.5 -92h396q3 53 -12.5 91.5t-43 63t-64 36.5t-74.5 12z
M324 55q44 0 81.5 15.5t64.5 44t42.5 69t15.5 89.5q0 50 -15.5 90t-42.5 68.5t-64.5 44t-81.5 15.5q-46 0 -83.5 -15t-64 -43t-41 -68.5t-14.5 -91.5t14.5 -91.5t41 -68.5t64 -43t83.5 -15z" />
    <glyph glyph-name="ccedilla" unicode="&#xe7;" horiz-adv-x="623" 
d="M316 54q73 0 123 37t61 103h73q-7 -44 -27.5 -80.5t-52.5 -63t-74 -41.5t-93 -16v-67q56 3 91.5 -19t35.5 -70q0 -47 -32.5 -71t-84.5 -24h-90v43h82q41 0 57 15t16 38q0 21 -16 35.5t-57 14.5h-49v107q-51 6 -93 27.5t-72 57.5t-47 84.5t-17 108.5q0 66 20 118t55.5 88
t84.5 55t107 19q53 0 96.5 -14.5t76.5 -41t54.5 -63.5t28.5 -82h-73q-11 66 -61 103t-123 37q-38 0 -73.5 -13t-62.5 -40t-43 -68t-16 -98t16 -98t43 -68t62.5 -40t73.5 -13z" />
    <glyph glyph-name="egrave" unicode="&#xe8;" horiz-adv-x="625" 
d="M395 592l-152 98l22 39l146 -107zM314 51q74 0 123.5 37t60.5 100h74q-7 -42 -28 -78t-54 -62t-76.5 -40.5t-96.5 -14.5q-58 0 -107 19t-84.5 55t-55.5 88t-20 118t20 118t55.5 88t84.5 55t107 19q62 0 110 -20t81 -54t50 -78.5t17 -92.5q0 -17 -1 -27.5t-3 -23.5h-452
q1 -54 18 -93t44 -64t61.5 -37t71.5 -12zM317 496q-38 0 -73 -12t-62.5 -36.5t-44 -63t-18.5 -91.5h386q3 53 -12 91.5t-42 63.5t-62 36.5t-72 11.5z" />
    <glyph glyph-name="eacute" unicode="&#xe9;" horiz-adv-x="625" 
d="M249 598l-16 28l159 99l19 -40zM314 51q74 0 123.5 37t60.5 100h74q-7 -42 -28 -78t-54 -62t-76.5 -40.5t-96.5 -14.5q-58 0 -107 19t-84.5 55t-55.5 88t-20 118t20 118t55.5 88t84.5 55t107 19q62 0 110 -20t81 -54t50 -78.5t17 -92.5q0 -17 -1 -27.5t-3 -23.5h-452
q1 -54 18 -93t44 -64t61.5 -37t71.5 -12zM317 496q-38 0 -73 -12t-62.5 -36.5t-44 -63t-18.5 -91.5h386q3 53 -12 91.5t-42 63.5t-62 36.5t-72 11.5z" />
    <glyph glyph-name="ecircumflex" unicode="&#xea;" horiz-adv-x="625" 
d="M203 599l-17 31l127 78l126 -78l-16 -32l-110 66zM314 51q74 0 123.5 37t60.5 100h74q-7 -42 -28 -78t-54 -62t-76.5 -40.5t-96.5 -14.5q-58 0 -107 19t-84.5 55t-55.5 88t-20 118t20 118t55.5 88t84.5 55t107 19q62 0 110 -20t81 -54t50 -78.5t17 -92.5q0 -17 -1 -27.5
t-3 -23.5h-452q1 -54 18 -93t44 -64t61.5 -37t71.5 -12zM317 496q-38 0 -73 -12t-62.5 -36.5t-44 -63t-18.5 -91.5h386q3 53 -12 91.5t-42 63.5t-62 36.5t-72 11.5z" />
    <glyph glyph-name="edieresis" unicode="&#xeb;" horiz-adv-x="625" 
d="M235 625q-19 0 -31.5 13t-12.5 31q0 19 12.5 31.5t31.5 12.5q18 0 31 -12.5t13 -31.5q0 -18 -13 -31t-31 -13zM391 625q-18 0 -30.5 13t-12.5 31q0 19 12.5 31.5t30.5 12.5q19 0 31.5 -12.5t12.5 -31.5q0 -18 -12.5 -31t-31.5 -13zM314 51q74 0 123.5 37t60.5 100h74
q-7 -42 -28 -78t-54 -62t-76.5 -40.5t-96.5 -14.5q-58 0 -107 19t-84.5 55t-55.5 88t-20 118t20 118t55.5 88t84.5 55t107 19q62 0 110 -20t81 -54t50 -78.5t17 -92.5q0 -17 -1 -27.5t-3 -23.5h-452q1 -54 18 -93t44 -64t61.5 -37t71.5 -12zM317 496q-38 0 -73 -12
t-62.5 -36.5t-44 -63t-18.5 -91.5h386q3 53 -12 91.5t-42 63.5t-62 36.5t-72 11.5z" />
    <glyph glyph-name="igrave" unicode="&#xec;" horiz-adv-x="236" 
d="M216 622l-16 -30l-152 98l22 39zM153 546v-546h-70v546h70z" />
    <glyph glyph-name="iacute" unicode="&#xed;" horiz-adv-x="236" 
d="M216 685l-162 -87l-16 28l159 99zM153 546v-546h-70v546h70z" />
    <glyph glyph-name="icircumflex" unicode="&#xee;" horiz-adv-x="236" 
d="M118 664l-110 -65l-17 31l127 78l126 -78l-16 -32zM153 546v-546h-70v546h70z" />
    <glyph glyph-name="idieresis" unicode="&#xef;" horiz-adv-x="236" 
d="M-4 669q0 19 12.5 31.5t31.5 12.5q18 0 31 -12.5t13 -31.5q0 -18 -13 -31t-31 -13q-19 0 -31.5 13t-12.5 31zM153 669q0 19 12.5 31.5t30.5 12.5q19 0 31.5 -12.5t12.5 -31.5q0 -18 -12.5 -31t-31.5 -13q-18 0 -30.5 13t-12.5 31zM153 546v-546h-70v546h70z" />
    <glyph glyph-name="eth" unicode="&#xf0;" horiz-adv-x="645" 
d="M444 671q76 -79 113.5 -168t37.5 -193q0 -79 -20.5 -138.5t-56.5 -99.5t-85.5 -59.5t-108.5 -19.5q-61 0 -111.5 21t-86.5 59.5t-56 92.5t-20 120q0 61 19.5 111t54.5 85t84.5 54.5t109.5 19.5q33 0 65 -9t59 -27.5t48 -47.5t33 -69q-14 72 -42.5 132.5t-83.5 119.5
l-142 -49v32l118 41q-15 15 -32.5 30t-37.5 31h65q14 -11 27 -22.5t25 -22.5l130 45v-32zM324 55q42 0 78 14t63 42t42.5 68.5t15.5 93.5q0 55 -16 96.5t-43.5 69.5t-64 42t-76.5 14q-42 0 -79 -13.5t-64 -40t-42.5 -66t-15.5 -90.5q0 -55 15.5 -98t42.5 -72.5t64 -44.5
t80 -15z" />
    <glyph glyph-name="ntilde" unicode="&#xf1;" horiz-adv-x="635" 
d="M261 652q-35 0 -41 -46h-36q6 43 26 64.5t52 21.5q19 0 33 -7.5t26 -16t24 -16t28 -7.5t27.5 11t14.5 34h36q-5 -41 -26.5 -63t-53.5 -22q-19 0 -33.5 7.5t-26.5 16t-23.5 16t-26.5 7.5zM349 556q45 0 84.5 -14.5t68 -44t45 -74t16.5 -105.5v-318h-69v313q0 91 -46 137.5
t-122 46.5q-79 0 -129 -51t-50 -156v-290h-71v546h71v-134q22 73 78 108.5t124 35.5z" />
    <glyph glyph-name="ograve" unicode="&#xf2;" 
d="M421 622l-16 -30l-152 98l22 39zM323 553q58 0 107.5 -19t86 -55t57 -88t20.5 -118t-20.5 -118t-57 -88t-86 -55t-107.5 -19t-108 19t-86.5 55t-57.5 88t-21 118t21 118t57.5 88t86.5 55t108 19zM323 492q-39 0 -75 -13t-64.5 -40t-45.5 -68t-17 -98t17 -98t45.5 -67.5
t64.5 -39.5t75 -13q38 0 74 13t64 39.5t45 67.5t17 98t-17 98t-45 68t-64 40t-74 13z" />
    <glyph glyph-name="oacute" unicode="&#xf3;" 
d="M421 685l-162 -87l-16 28l159 99zM323 553q58 0 107.5 -19t86 -55t57 -88t20.5 -118t-20.5 -118t-57 -88t-86 -55t-107.5 -19t-108 19t-86.5 55t-57.5 88t-21 118t21 118t57.5 88t86.5 55t108 19zM323 492q-39 0 -75 -13t-64.5 -40t-45.5 -68t-17 -98t17 -98t45.5 -67.5
t64.5 -39.5t75 -13q38 0 74 13t64 39.5t45 67.5t17 98t-17 98t-45 68t-64 40t-74 13z" />
    <glyph glyph-name="ocircumflex" unicode="&#xf4;" 
d="M323 664l-110 -65l-17 31l127 78l126 -78l-16 -32zM323 553q58 0 107.5 -19t86 -55t57 -88t20.5 -118t-20.5 -118t-57 -88t-86 -55t-107.5 -19t-108 19t-86.5 55t-57.5 88t-21 118t21 118t57.5 88t86.5 55t108 19zM323 492q-39 0 -75 -13t-64.5 -40t-45.5 -68t-17 -98
t17 -98t45.5 -67.5t64.5 -39.5t75 -13q38 0 74 13t64 39.5t45 67.5t17 98t-17 98t-45 68t-64 40t-74 13z" />
    <glyph glyph-name="otilde" unicode="&#xf5;" 
d="M267 692q19 0 33 -7.5t26 -16t24 -16t28 -7.5t27.5 11t14.5 34h36q-5 -41 -26.5 -63t-53.5 -22q-19 0 -33.5 7.5t-26.5 16t-23.5 16t-26.5 7.5q-35 0 -41 -46h-36q6 43 26 64.5t52 21.5zM323 553q58 0 107.5 -19t86 -55t57 -88t20.5 -118t-20.5 -118t-57 -88t-86 -55
t-107.5 -19t-108 19t-86.5 55t-57.5 88t-21 118t21 118t57.5 88t86.5 55t108 19zM323 492q-39 0 -75 -13t-64.5 -40t-45.5 -68t-17 -98t17 -98t45.5 -67.5t64.5 -39.5t75 -13q38 0 74 13t64 39.5t45 67.5t17 98t-17 98t-45 68t-64 40t-74 13z" />
    <glyph glyph-name="odieresis" unicode="&#xf6;" 
d="M201 669q0 19 12.5 31.5t31.5 12.5q18 0 31 -12.5t13 -31.5q0 -18 -13 -31t-31 -13q-19 0 -31.5 13t-12.5 31zM358 669q0 19 12.5 31.5t30.5 12.5q19 0 31.5 -12.5t12.5 -31.5q0 -18 -12.5 -31t-31.5 -13q-18 0 -30.5 13t-12.5 31zM323 553q58 0 107.5 -19t86 -55t57 -88
t20.5 -118t-20.5 -118t-57 -88t-86 -55t-107.5 -19t-108 19t-86.5 55t-57.5 88t-21 118t21 118t57.5 88t86.5 55t108 19zM323 492q-39 0 -75 -13t-64.5 -40t-45.5 -68t-17 -98t17 -98t45.5 -67.5t64.5 -39.5t75 -13q38 0 74 13t64 39.5t45 67.5t17 98t-17 98t-45 68t-64 40
t-74 13z" />
    <glyph glyph-name="divide" unicode="&#xf7;" horiz-adv-x="580" 
d="M336 634v-90h-92v90h92zM545 402v-64h-510v64h510zM336 199v-90h-92v90h92z" />
    <glyph glyph-name="oslash" unicode="&#xf8;" horiz-adv-x="641" 
d="M523 471q32 -36 50.5 -85.5t18.5 -112.5q0 -66 -20.5 -118t-57 -88t-86 -55t-107.5 -19q-105 0 -179 60l-48 -53h-42l68 74q-34 36 -53 86t-19 113q0 66 21 118t57.5 88t86.5 55t108 19q107 0 179 -61l49 54h42zM119 273q0 -48 12.5 -85t33.5 -63l290 318
q-28 25 -62.5 37t-71.5 12q-39 0 -75 -13t-64.5 -40t-45.5 -68t-17 -98zM321 55q38 0 74 13t64 39.5t45 67.5t17 98q0 48 -12 84.5t-33 62.5l-289 -318q28 -24 62.5 -35.5t71.5 -11.5z" />
    <glyph glyph-name="ugrave" unicode="&#xf9;" horiz-adv-x="624" 
d="M394 592l-152 98l22 39l146 -107zM547 546v-546h-70v135q-22 -73 -78 -109t-124 -36q-45 0 -84.5 14.5t-68.5 44t-45.5 74t-16.5 105.5v318h70v-312q0 -92 46 -138.5t122 -46.5q79 0 129 51t50 156v290h70z" />
    <glyph glyph-name="uacute" unicode="&#xfa;" horiz-adv-x="624" 
d="M248 598l-16 28l159 99l19 -40zM547 546v-546h-70v135q-22 -73 -78 -109t-124 -36q-45 0 -84.5 14.5t-68.5 44t-45.5 74t-16.5 105.5v318h70v-312q0 -92 46 -138.5t122 -46.5q79 0 129 51t50 156v290h70z" />
    <glyph glyph-name="ucircumflex" unicode="&#xfb;" horiz-adv-x="624" 
d="M202 599l-17 31l127 78l126 -78l-16 -32l-110 66zM547 546v-546h-70v135q-22 -73 -78 -109t-124 -36q-45 0 -84.5 14.5t-68.5 44t-45.5 74t-16.5 105.5v318h70v-312q0 -92 46 -138.5t122 -46.5q79 0 129 51t50 156v290h70z" />
    <glyph glyph-name="udieresis" unicode="&#xfc;" horiz-adv-x="624" 
d="M226 625q-19 0 -31.5 13t-12.5 31q0 19 12.5 31.5t31.5 12.5q18 0 31 -12.5t13 -31.5q0 -18 -13 -31t-31 -13zM382 625q-18 0 -30.5 13t-12.5 31q0 19 12.5 31.5t30.5 12.5q19 0 31.5 -12.5t12.5 -31.5q0 -18 -12.5 -31t-31.5 -13zM547 546v-546h-70v135
q-22 -73 -78 -109t-124 -36q-45 0 -84.5 14.5t-68.5 44t-45.5 74t-16.5 105.5v318h70v-312q0 -92 46 -138.5t122 -46.5q79 0 129 51t50 156v290h70z" />
    <glyph glyph-name="yacute" unicode="&#xfd;" horiz-adv-x="547" 
d="M372 685l-162 -87l-16 28l159 99zM91 546l190 -455l175 455h78l-321 -804h-80l110 264l-230 540h78z" />
    <glyph glyph-name="thorn" unicode="&#xfe;" horiz-adv-x="673" 
d="M364 552q56 0 103.5 -19.5t82 -56t54 -88t19.5 -116.5q0 -64 -19.5 -115.5t-54 -88t-82 -56t-103.5 -19.5q-84 0 -139.5 42.5t-78.5 110.5v-404h-70v998h70v-337q23 67 78.5 108t139.5 41zM350 491q-43 0 -80.5 -15t-65 -43.5t-43 -68.5t-15.5 -91t15.5 -91t43 -68.5
t65 -43.5t80.5 -15q45 0 82 14.5t63.5 42t41.5 68t15 92.5t-15 93t-41.5 69t-63.5 42.5t-82 14.5z" />
    <glyph glyph-name="ydieresis" unicode="&#xff;" horiz-adv-x="547" 
d="M152 669q0 19 12.5 31.5t31.5 12.5q18 0 31 -12.5t13 -31.5q0 -18 -13 -31t-31 -13q-19 0 -31.5 13t-12.5 31zM309 669q0 19 12.5 31.5t30.5 12.5q19 0 31.5 -12.5t12.5 -31.5q0 -18 -12.5 -31t-31.5 -13q-18 0 -30.5 13t-12.5 31zM91 546l190 -455l175 455h78l-321 -804
h-80l110 264l-230 540h78z" />
    <glyph glyph-name="Amacron" unicode="&#x100;" 
d="M492 809h-339v50h339v-50zM483 172h-321l-64 -172h-75l260 689h79l260 -689h-76zM462 228l-139 380l-141 -380h280z" />
    <glyph glyph-name="amacron" unicode="&#x101;" horiz-adv-x="673" 
d="M494 700v-50h-339v50h339zM306 553q86 0 143.5 -44t78.5 -113v150h69v-546h-69v150q-21 -69 -78.5 -113t-143.5 -44q-56 0 -103 19.5t-81 55.5t-53 88t-19 117q0 66 19 118t53 88t81 55t103 19zM324 491q-46 0 -83.5 -15t-64 -43t-41 -68.5t-14.5 -91.5t14.5 -91.5
t41 -68.5t64 -43t83.5 -15q44 0 81.5 15.5t64.5 44t42.5 69t15.5 89.5q0 50 -15.5 90t-42.5 68.5t-64.5 44t-81.5 15.5z" />
    <glyph glyph-name="Abreve" unicode="&#x102;" 
d="M323 771q-32 0 -56 10t-39.5 26.5t-23.5 38t-8 45.5v7h36q0 -38 23 -59.5t68 -21.5t68 21.5t23 59.5h36v-7q0 -24 -7.5 -45.5t-23.5 -38t-40 -26.5t-56 -10zM483 172h-321l-64 -172h-75l260 689h79l260 -689h-76zM462 228l-139 380l-141 -380h280z" />
    <glyph glyph-name="abreve" unicode="&#x103;" horiz-adv-x="673" 
d="M337 612q-32 0 -56 10t-39.5 26.5t-23.5 38t-8 45.5v7h36q0 -38 23 -59.5t68 -21.5t68 21.5t23 59.5h36v-7q0 -24 -7.5 -45.5t-23.5 -38t-40 -26.5t-56 -10zM306 553q86 0 143.5 -44t78.5 -113v150h69v-546h-69v150q-21 -69 -78.5 -113t-143.5 -44q-56 0 -103 19.5
t-81 55.5t-53 88t-19 117q0 66 19 118t53 88t81 55t103 19zM324 491q-46 0 -83.5 -15t-64 -43t-41 -68.5t-14.5 -91.5t14.5 -91.5t41 -68.5t64 -43t83.5 -15q44 0 81.5 15.5t64.5 44t42.5 69t15.5 89.5q0 50 -15.5 90t-42.5 68.5t-64.5 44t-81.5 15.5z" />
    <glyph glyph-name="Aogonek" unicode="&#x104;" 
d="M661 -154v-43h-93q-56 0 -89.5 26.5t-33.5 74.5q0 37 23.5 63.5t77.5 34.5l-63 170h-322l-63 -172h-75l260 689h79l258 -685v-38h-46q-36 0 -57 -15.5t-21 -44.5t21 -44.5t57 -15.5h87zM463 228l-141 380l-140 -380h281z" />
    <glyph glyph-name="aogonek" unicode="&#x105;" horiz-adv-x="673" 
d="M639 -152v-43h-93q-57 0 -90.5 26.5t-33.5 74.5q0 45 29 71.5t77 30.5v142q-21 -69 -78.5 -113t-143.5 -44q-56 0 -103 19.5t-81 55.5t-53 88t-19 117q0 66 19 118t53 88t81 55t103 19q86 0 143.5 -44t78.5 -113v150h69v-538h1v-40h-46q-37 0 -57.5 -15.5t-20.5 -44.5
t20.5 -44.5t57.5 -15.5h87zM324 55q44 0 81.5 15.5t64.5 44t42.5 69t15.5 89.5q0 50 -15.5 90t-42.5 68.5t-64.5 44t-81.5 15.5q-46 0 -83.5 -15t-64 -43t-41 -68.5t-14.5 -91.5t14.5 -91.5t41 -68.5t64 -43t83.5 -15z" />
    <glyph glyph-name="Cacute" unicode="&#x106;" horiz-adv-x="765" 
d="M481 844l-162 -87l-16 28l159 99zM386 712q131 0 212.5 -63.5t114.5 -167.5h-74q-27 73 -90.5 119.5t-163.5 46.5q-55 0 -102.5 -20.5t-82.5 -58.5t-55 -92.5t-20 -123.5q0 -68 20 -122.5t55 -92.5t82.5 -58.5t102.5 -20.5q100 0 163.5 47t90.5 119h74
q-33 -104 -114.5 -167.5t-212.5 -63.5q-74 0 -135 26.5t-105 74t-68.5 113.5t-24.5 145q0 80 24.5 146t68.5 113.5t105 74t135 26.5z" />
    <glyph glyph-name="cacute" unicode="&#x107;" horiz-adv-x="623" 
d="M410 685l-162 -87l-16 28l159 99zM317 553q53 0 96.5 -14.5t76.5 -41t54.5 -63.5t28.5 -82h-73q-11 66 -61 103t-123 37q-38 0 -73.5 -13t-62.5 -40t-43 -68t-16 -98t16 -98t43 -68t62.5 -40t73.5 -13q73 0 123 37t61 103h73q-7 -45 -28.5 -82t-54.5 -63.5t-76.5 -41
t-96.5 -14.5q-58 0 -107 19t-84.5 55t-55.5 88t-20 118t20 118t55.5 88t84.5 55t107 19z" />
    <glyph glyph-name="Cdotaccent" unicode="&#x10a;" horiz-adv-x="765" 
d="M338 828q0 19 13 31.5t31 12.5t31 -12.5t13 -31.5q0 -18 -13 -31t-31 -13t-31 13t-13 31zM386 712q131 0 212.5 -63.5t114.5 -167.5h-74q-27 73 -90.5 119.5t-163.5 46.5q-55 0 -102.5 -20.5t-82.5 -58.5t-55 -92.5t-20 -123.5q0 -68 20 -122.5t55 -92.5t82.5 -58.5
t102.5 -20.5q100 0 163.5 47t90.5 119h74q-33 -104 -114.5 -167.5t-212.5 -63.5q-74 0 -135 26.5t-105 74t-68.5 113.5t-24.5 145q0 80 24.5 146t68.5 113.5t105 74t135 26.5z" />
    <glyph glyph-name="cdotaccent" unicode="&#x10b;" horiz-adv-x="623" 
d="M268 669q0 19 13 31.5t31 12.5t31 -12.5t13 -31.5q0 -18 -13 -31t-31 -13t-31 13t-13 31zM317 553q53 0 96.5 -14.5t76.5 -41t54.5 -63.5t28.5 -82h-73q-11 66 -61 103t-123 37q-38 0 -73.5 -13t-62.5 -40t-43 -68t-16 -98t16 -98t43 -68t62.5 -40t73.5 -13q73 0 123 37
t61 103h73q-7 -45 -28.5 -82t-54.5 -63.5t-76.5 -41t-96.5 -14.5q-58 0 -107 19t-84.5 55t-55.5 88t-20 118t20 118t55.5 88t84.5 55t107 19z" />
    <glyph glyph-name="Ccaron" unicode="&#x10c;" horiz-adv-x="765" 
d="M517 852l-134 -82l-134 82v51l134 -83l134 83v-51zM386 712q131 0 212.5 -63.5t114.5 -167.5h-74q-27 73 -90.5 119.5t-163.5 46.5q-55 0 -102.5 -20.5t-82.5 -58.5t-55 -92.5t-20 -123.5q0 -68 20 -122.5t55 -92.5t82.5 -58.5t102.5 -20.5q100 0 163.5 47t90.5 119h74
q-33 -104 -114.5 -167.5t-212.5 -63.5q-74 0 -135 26.5t-105 74t-68.5 113.5t-24.5 145q0 80 24.5 146t68.5 113.5t105 74t135 26.5z" />
    <glyph glyph-name="ccaron" unicode="&#x10d;" horiz-adv-x="623" 
d="M447 693l-134 -82l-134 82v51l134 -83l134 83v-51zM317 553q53 0 96.5 -14.5t76.5 -41t54.5 -63.5t28.5 -82h-73q-11 66 -61 103t-123 37q-38 0 -73.5 -13t-62.5 -40t-43 -68t-16 -98t16 -98t43 -68t62.5 -40t73.5 -13q73 0 123 37t61 103h73q-7 -45 -28.5 -82
t-54.5 -63.5t-76.5 -41t-96.5 -14.5q-58 0 -107 19t-84.5 55t-55.5 88t-20 118t20 118t55.5 88t84.5 55t107 19z" />
    <glyph glyph-name="Dcaron" unicode="&#x10e;" horiz-adv-x="712" 
d="M503 852l-134 -82l-134 82v51l134 -83l134 83v-51zM660 353q0 -81 -24 -146.5t-71.5 -111.5t-116.5 -70.5t-159 -24.5h-213v705h213q90 0 159 -24.5t116.5 -70t71.5 -110.5t24 -147zM284 63q151 0 228 77.5t77 212.5t-77 212.5t-228 77.5h-137v-580h137z" />
    <glyph glyph-name="dcaron" unicode="&#x10f;" horiz-adv-x="724" 
d="M306 553q86 0 143.5 -44t77.5 -113v344h70v-740h-70v150q-20 -69 -77.5 -113t-143.5 -44q-56 0 -103 19.5t-81 55.5t-53 88t-19 117q0 66 19 118t53 88t81 55t103 19zM735 740q10 -47 10 -85q0 -54 -23.5 -78.5t-68.5 -24.5v35q26 0 37 13t11 39v25h-47v76h81zM324 491
q-46 0 -83.5 -15t-64 -43t-41 -68.5t-14.5 -91.5t14.5 -91.5t41 -68.5t64 -43t83.5 -15q44 0 81.5 15.5t64.5 44t42.5 69t15.5 89.5q0 50 -15.5 90t-42.5 68.5t-64.5 44t-81.5 15.5z" />
    <glyph glyph-name="Dcroat" unicode="&#x110;" horiz-adv-x="742" 
d="M319 705q90 0 159 -24.5t116.5 -70t71.5 -110.5t24 -147q0 -81 -24 -146.5t-71.5 -111.5t-116.5 -70.5t-159 -24.5h-213v324h-98v58h98v323h213zM314 63q151 0 228 77.5t77 212.5t-77 212.5t-228 77.5h-137v-261h207v-58h-207v-261h137z" />
    <glyph glyph-name="dcroat" unicode="&#x111;" horiz-adv-x="674" 
d="M657 606h-60v-606h-70v150q-20 -69 -77.5 -113t-143.5 -44q-56 0 -103 19.5t-81 55.5t-53 88t-19 117q0 66 19 118t53 88t81 55t103 19q86 0 143.5 -44t77.5 -113v210h-176v37h176v97h70v-97h60v-37zM324 55q44 0 81.5 15.5t64.5 44t42.5 69t15.5 89.5q0 50 -15.5 90
t-42.5 68.5t-64.5 44t-81.5 15.5q-46 0 -83.5 -15t-64 -43t-41 -68.5t-14.5 -91.5t14.5 -91.5t41 -68.5t64 -43t83.5 -15z" />
    <glyph glyph-name="Emacron" unicode="&#x112;" horiz-adv-x="498" 
d="M435 859v-50h-339v50h339zM147 648v-266h275v-55h-275v-269h305v-58h-376v705h376v-57h-305z" />
    <glyph glyph-name="emacron" unicode="&#x113;" horiz-adv-x="625" 
d="M483 650h-339v50h339v-50zM314 51q74 0 123.5 37t60.5 100h74q-7 -42 -28 -78t-54 -62t-76.5 -40.5t-96.5 -14.5q-58 0 -107 19t-84.5 55t-55.5 88t-20 118t20 118t55.5 88t84.5 55t107 19q62 0 110 -20t81 -54t50 -78.5t17 -92.5q0 -17 -1 -27.5t-3 -23.5h-452
q1 -54 18 -93t44 -64t61.5 -37t71.5 -12zM317 496q-38 0 -73 -12t-62.5 -36.5t-44 -63t-18.5 -91.5h386q3 53 -12 91.5t-42 63.5t-62 36.5t-72 11.5z" />
    <glyph glyph-name="Ebreve" unicode="&#x114;" horiz-adv-x="498" 
d="M250 771q-32 0 -56 10t-39.5 26.5t-23.5 38t-8 45.5v7h36q0 -38 23 -59.5t68 -21.5t68 21.5t23 59.5h36v-7q0 -24 -7.5 -45.5t-23.5 -38t-40 -26.5t-56 -10zM147 648v-266h275v-55h-275v-269h305v-58h-376v705h376v-57h-305z" />
    <glyph glyph-name="ebreve" unicode="&#x115;" horiz-adv-x="625" 
d="M313 612q-32 0 -56 10t-39.5 26.5t-23.5 38t-8 45.5v7h36q0 -38 23 -59.5t68 -21.5t68 21.5t23 59.5h36v-7q0 -24 -7.5 -45.5t-23.5 -38t-40 -26.5t-56 -10zM314 51q74 0 123.5 37t60.5 100h74q-7 -42 -28 -78t-54 -62t-76.5 -40.5t-96.5 -14.5q-58 0 -107 19t-84.5 55
t-55.5 88t-20 118t20 118t55.5 88t84.5 55t107 19q62 0 110 -20t81 -54t50 -78.5t17 -92.5q0 -17 -1 -27.5t-3 -23.5h-452q1 -54 18 -93t44 -64t61.5 -37t71.5 -12zM317 496q-38 0 -73 -12t-62.5 -36.5t-44 -63t-18.5 -91.5h386q3 53 -12 91.5t-42 63.5t-62 36.5t-72 11.5z
" />
    <glyph glyph-name="Edotaccent" unicode="&#x116;" horiz-adv-x="498" 
d="M221 828q0 19 13 31.5t31 12.5t31 -12.5t13 -31.5q0 -18 -13 -31t-31 -13t-31 13t-13 31zM147 648v-266h275v-55h-275v-269h305v-58h-376v705h376v-57h-305z" />
    <glyph glyph-name="edotaccent" unicode="&#x117;" horiz-adv-x="625" 
d="M313 625q-18 0 -31 13t-13 31q0 19 13 31.5t31 12.5t31 -12.5t13 -31.5q0 -18 -13 -31t-31 -13zM314 51q74 0 123.5 37t60.5 100h74q-7 -42 -28 -78t-54 -62t-76.5 -40.5t-96.5 -14.5q-58 0 -107 19t-84.5 55t-55.5 88t-20 118t20 118t55.5 88t84.5 55t107 19
q62 0 110 -20t81 -54t50 -78.5t17 -92.5q0 -17 -1 -27.5t-3 -23.5h-452q1 -54 18 -93t44 -64t61.5 -37t71.5 -12zM317 496q-38 0 -73 -12t-62.5 -36.5t-44 -63t-18.5 -91.5h386q3 53 -12 91.5t-42 63.5t-62 36.5t-72 11.5z" />
    <glyph glyph-name="Eogonek" unicode="&#x118;" horiz-adv-x="498" 
d="M483 -134v-43h-93q-57 0 -90.5 26.5t-33.5 74.5q0 25 9 43.5t25 32.5h-224v705h376v-57h-305v-266h275v-55h-275v-269h305v-58h-10v-14h-46q-37 0 -57.5 -15.5t-20.5 -44.5t20.5 -44.5t57.5 -15.5h87z" />
    <glyph glyph-name="eogonek" unicode="&#x119;" horiz-adv-x="625" 
d="M315 51q73 0 122.5 37t60.5 100h74q-13 -75 -67.5 -127t-140.5 -64q-23 -3 -23 -25q0 -23 21 -38.5t59 -15.5h82v-43h-90q-57 0 -90.5 27t-33.5 75v19q-52 4 -96 24.5t-76 56t-49.5 85t-17.5 111.5q0 66 20 118t55.5 88t84.5 55t107 19q62 0 110 -20t81 -54t50 -78.5
t17 -92.5q0 -17 -1 -27.5t-3 -23.5h-452q1 -54 18 -93t44.5 -64t62 -37t71.5 -12zM317 496q-38 0 -73 -12t-62.5 -36.5t-44 -63t-18.5 -91.5h386q3 53 -12 91.5t-42 63.5t-62 36.5t-72 11.5z" />
    <glyph glyph-name="Ecaron" unicode="&#x11a;" horiz-adv-x="498" 
d="M399 852l-134 -82l-134 82v51l134 -83l134 83v-51zM147 648v-266h275v-55h-275v-269h305v-58h-376v705h376v-57h-305z" />
    <glyph glyph-name="ecaron" unicode="&#x11b;" horiz-adv-x="625" 
d="M314 611l-134 82v51l134 -83l134 83v-51zM314 51q74 0 123.5 37t60.5 100h74q-7 -42 -28 -78t-54 -62t-76.5 -40.5t-96.5 -14.5q-58 0 -107 19t-84.5 55t-55.5 88t-20 118t20 118t55.5 88t84.5 55t107 19q62 0 110 -20t81 -54t50 -78.5t17 -92.5q0 -17 -1 -27.5t-3 -23.5
h-452q1 -54 18 -93t44 -64t61.5 -37t71.5 -12zM317 496q-38 0 -73 -12t-62.5 -36.5t-44 -63t-18.5 -91.5h386q3 53 -12 91.5t-42 63.5t-62 36.5t-72 11.5z" />
    <glyph glyph-name="Gbreve" unicode="&#x11e;" horiz-adv-x="782" 
d="M391 771q-32 0 -56 10t-39.5 26.5t-23.5 38t-8 45.5v7h36q0 -38 23 -59.5t68 -21.5t68 21.5t23 59.5h36v-7q0 -24 -7.5 -45.5t-23.5 -38t-40 -26.5t-56 -10zM394 711q61 0 112.5 -16t92 -45t69 -70.5t43.5 -91.5h-73q-13 34 -36 63t-54 50.5t-70 33.5t-84 12
q-57 0 -106 -20.5t-85.5 -58.5t-57 -92.5t-20.5 -123.5q0 -70 21 -125t57.5 -93t87 -58.5t110.5 -20.5q53 0 99.5 18t82.5 52t59 83t27 111h-293v53h354v-62q-5 -67 -31 -125t-69.5 -100.5t-103 -67t-131.5 -24.5q-76 0 -139 26.5t-108 74t-70 113.5t-25 145t25 145
t70 113.5t107.5 74t138.5 26.5z" />
    <glyph glyph-name="gbreve" unicode="&#x11f;" horiz-adv-x="673" 
d="M337 612q-32 0 -56 10t-39.5 26.5t-23.5 38t-8 45.5v7h36q0 -38 23 -59.5t68 -21.5t68 21.5t23 59.5h36v-7q0 -24 -7.5 -45.5t-23.5 -38t-40 -26.5t-56 -10zM306 553q86 0 143.5 -44t78.5 -113v150h69v-559q0 -58 -18.5 -105t-52 -80t-79.5 -51t-101 -18
q-111 0 -178 52.5t-87 138.5h70q17 -58 65 -94t126 -36q39 0 72.5 12.5t59 37.5t40 60.5t14.5 82.5v163q-21 -69 -78.5 -113t-143.5 -44q-56 0 -103 19.5t-81 55.5t-53 88t-19 117q0 66 19 118t53 88t81 55t103 19zM324 491q-46 0 -83.5 -15t-64 -43t-41 -68.5t-14.5 -91.5
t14.5 -91.5t41 -68.5t64 -43t83.5 -15q44 0 81.5 15.5t64.5 44t42.5 69t15.5 89.5q0 50 -15.5 90t-42.5 68.5t-64.5 44t-81.5 15.5z" />
    <glyph glyph-name="Gdotaccent" unicode="&#x120;" horiz-adv-x="782" 
d="M347 828q0 19 13 31.5t31 12.5t31 -12.5t13 -31.5q0 -18 -13 -31t-31 -13t-31 13t-13 31zM394 711q61 0 112.5 -16t92 -45t69 -70.5t43.5 -91.5h-73q-13 34 -36 63t-54 50.5t-70 33.5t-84 12q-57 0 -106 -20.5t-85.5 -58.5t-57 -92.5t-20.5 -123.5q0 -70 21 -125
t57.5 -93t87 -58.5t110.5 -20.5q53 0 99.5 18t82.5 52t59 83t27 111h-293v53h354v-62q-5 -67 -31 -125t-69.5 -100.5t-103 -67t-131.5 -24.5q-76 0 -139 26.5t-108 74t-70 113.5t-25 145t25 145t70 113.5t107.5 74t138.5 26.5z" />
    <glyph glyph-name="gdotaccent" unicode="&#x121;" horiz-adv-x="673" 
d="M280 669q0 19 13 31.5t31 12.5t31 -12.5t13 -31.5q0 -18 -13 -31t-31 -13t-31 13t-13 31zM306 553q86 0 143.5 -44t78.5 -113v150h69v-559q0 -58 -18.5 -105t-52 -80t-79.5 -51t-101 -18q-111 0 -178 52.5t-87 138.5h70q17 -58 65 -94t126 -36q39 0 72.5 12.5t59 37.5
t40 60.5t14.5 82.5v163q-21 -69 -78.5 -113t-143.5 -44q-56 0 -103 19.5t-81 55.5t-53 88t-19 117q0 66 19 118t53 88t81 55t103 19zM324 491q-46 0 -83.5 -15t-64 -43t-41 -68.5t-14.5 -91.5t14.5 -91.5t41 -68.5t64 -43t83.5 -15q44 0 81.5 15.5t64.5 44t42.5 69
t15.5 89.5q0 50 -15.5 90t-42.5 68.5t-64.5 44t-81.5 15.5z" />
    <glyph glyph-name="Gcommaaccent" unicode="&#x122;" horiz-adv-x="783" 
d="M394 711q61 0 112.5 -16t92 -45t69 -70.5t43.5 -91.5h-73q-13 34 -36 63t-54 50.5t-70 33.5t-84 12q-57 0 -106 -20.5t-85.5 -58.5t-57 -92.5t-20.5 -123.5q0 -70 21 -125t57.5 -93t87 -58.5t110.5 -20.5q53 0 99.5 18t82.5 52t59 83t27 111h-293v53h354v-62
q-5 -67 -31 -125t-69.5 -100.5t-103 -67t-131.5 -24.5q-76 0 -139 26.5t-108 74t-70 113.5t-25 145t25 145t70 113.5t107.5 74t138.5 26.5zM435 -53q8 -30 8 -57q0 -58 -24 -83.5t-66 -25.5v33q24 0 35 15.5t11 44.5v8h-42v65h78z" />
    <glyph glyph-name="gcommaaccent" unicode="&#x123;" horiz-adv-x="673" 
d="M291 595q-5 25 -7 46t-2 39q0 54 23.5 78.5t67.5 24.5v-35q-26 0 -36.5 -13t-10.5 -39v-25h46v-76h-81zM306 553q86 0 143.5 -44t78.5 -113v150h69v-559q0 -58 -18.5 -105t-52 -80t-79.5 -51t-101 -18q-111 0 -178 52.5t-87 138.5h70q17 -58 65 -94t126 -36
q39 0 72.5 12.5t59 37.5t40 60.5t14.5 82.5v163q-21 -69 -78.5 -113t-143.5 -44q-56 0 -103 19.5t-81 55.5t-53 88t-19 117q0 66 19 118t53 88t81 55t103 19zM324 491q-46 0 -83.5 -15t-64 -43t-41 -68.5t-14.5 -91.5t14.5 -91.5t41 -68.5t64 -43t83.5 -15q44 0 81.5 15.5
t64.5 44t42.5 69t15.5 89.5q0 50 -15.5 90t-42.5 68.5t-64.5 44t-81.5 15.5z" />
    <glyph glyph-name="Itilde" unicode="&#x128;" horiz-adv-x="223" 
d="M56 851q19 0 33 -7.5t26 -16t24 -16t28 -7.5t27.5 11t14.5 34h36q-5 -41 -26.5 -63t-53.5 -22q-19 0 -33.5 7.5t-26.5 16t-23.5 16t-26.5 7.5q-35 0 -41 -46h-36q6 43 26 64.5t52 21.5zM147 705v-705h-71v705h71z" />
    <glyph glyph-name="itilde" unicode="&#x129;" horiz-adv-x="236" 
d="M62 692q19 0 33 -7.5t26 -16t24 -16t28 -7.5t27.5 11t14.5 34h36q-5 -41 -26.5 -63t-53.5 -22q-19 0 -33.5 7.5t-26.5 16t-23.5 16t-26.5 7.5q-35 0 -41 -46h-36q6 43 26 64.5t52 21.5zM153 546v-546h-70v546h70z" />
    <glyph glyph-name="Imacron" unicode="&#x12a;" horiz-adv-x="223" 
d="M282 859v-50h-339v50h339zM147 705v-705h-71v705h71z" />
    <glyph glyph-name="imacron" unicode="&#x12b;" horiz-adv-x="236" 
d="M288 700v-50h-339v50h339zM153 546v-546h-70v546h70z" />
    <glyph glyph-name="Ibreve" unicode="&#x12c;" horiz-adv-x="223" 
d="M112 771q-32 0 -56 10t-39.5 26.5t-23.5 38t-8 45.5v7h36q0 -38 23 -59.5t68 -21.5t68 21.5t23 59.5h36v-7q0 -24 -7.5 -45.5t-23.5 -38t-40 -26.5t-56 -10zM147 705v-705h-71v705h71z" />
    <glyph glyph-name="ibreve" unicode="&#x12d;" horiz-adv-x="236" 
d="M118 612q-32 0 -56 10t-39.5 26.5t-23.5 38t-8 45.5v7h36q0 -38 23 -59.5t68 -21.5t68 21.5t23 59.5h36v-7q0 -24 -7.5 -45.5t-23.5 -38t-40 -26.5t-56 -10zM153 546v-546h-70v546h70z" />
    <glyph glyph-name="Iogonek" unicode="&#x12e;" horiz-adv-x="223" 
d="M188 -152v-43h-93q-57 0 -90.5 26.5t-33.5 74.5q0 45 29 71.5t76 29.5v698h71v-737h-46q-37 0 -57.5 -15.5t-20.5 -44.5t20.5 -44.5t57.5 -15.5h87z" />
    <glyph glyph-name="iogonek" unicode="&#x12f;" horiz-adv-x="223" 
d="M112 661q-23 0 -37.5 13t-14.5 34q0 22 14.5 35t37.5 13t37 -13t14 -35q0 -21 -14 -34t-37 -13zM188 -152v-43h-93q-57 0 -90.5 26.5t-33.5 74.5q0 45 29 71.5t76 29.5v539h71v-578h-46q-37 0 -57.5 -15.5t-20.5 -44.5t20.5 -44.5t57.5 -15.5h87z" />
    <glyph glyph-name="Idotaccent" unicode="&#x130;" horiz-adv-x="223" 
d="M68 828q0 19 13 31.5t31 12.5t31 -12.5t13 -31.5q0 -18 -13 -31t-31 -13t-31 13t-13 31zM147 705v-705h-71v705h71z" />
    <glyph glyph-name="dotlessi" unicode="&#x131;" horiz-adv-x="236" 
d="M153 546v-546h-70v546h70z" />
    <glyph glyph-name="Kcommaaccent" unicode="&#x136;" horiz-adv-x="570" 
d="M209 354l333 -354h-87l-308 331v-331h-71v705h71v-331l308 331h87zM320 -53q8 -30 8 -57q0 -58 -24 -83.5t-66 -25.5v33q24 0 35 15.5t11 44.5v8h-41v65h77z" />
    <glyph glyph-name="kcommaaccent" unicode="&#x137;" horiz-adv-x="465" 
d="M458 0h-90l-221 250v-250h-71v740h71v-434l217 240h87l-251 -270zM276 -53q4 -14 5.5 -29t1.5 -28q0 -58 -23.5 -83.5t-65.5 -25.5v33q24 0 35 15.5t11 44.5v8h-42v65h78z" />
    <glyph glyph-name="Lacute" unicode="&#x139;" horiz-adv-x="423" 
d="M310 844l-162 -87l-16 28l159 99zM147 56h256v-56h-327v705h71v-649z" />
    <glyph glyph-name="lacute" unicode="&#x13a;" horiz-adv-x="223" 
d="M147 651v-651h-71v613l-28 -15l-16 28l44 27v87h71v-42l44 27l19 -40z" />
    <glyph glyph-name="Lcommaaccent" unicode="&#x13b;" horiz-adv-x="424" 
d="M147 56h256v-56h-327v705h71v-649zM285 -53q8 -30 8 -57q0 -58 -24 -83.5t-66 -25.5v33q25 0 35.5 15.5t10.5 44.5v8h-41v65h77z" />
    <glyph glyph-name="lcommaaccent" unicode="&#x13c;" horiz-adv-x="223" 
d="M147 740v-740h-71v740h71zM149 -53q5 -14 6.5 -29t1.5 -28q0 -58 -24 -83.5t-66 -25.5v33q25 0 35.5 15.5t10.5 44.5v8h-41v65h77z" />
    <glyph glyph-name="Lcaron" unicode="&#x13d;" horiz-adv-x="441" 
d="M147 56h256v-56h-327v705h71v-649zM347 705q10 -47 10 -85q0 -54 -23.5 -78.5t-68.5 -24.5v35q26 0 37 13t11 39v25h-47v76h81z" />
    <glyph glyph-name="lcaron" unicode="&#x13e;" horiz-adv-x="272" 
d="M147 740v-740h-71v740h71zM284 740q5 -25 7 -46t2 -39q0 -54 -23.5 -78.5t-67.5 -24.5v35q26 0 36.5 13t10.5 39v25h-46v76h81z" />
    <glyph glyph-name="Ldot" unicode="&#x13f;" horiz-adv-x="423" 
d="M147 56h256v-56h-327v705h71v-649zM315 352q0 19 13 31.5t31 12.5t31 -12.5t13 -31.5q0 -18 -13 -31t-31 -13t-31 13t-13 31z" />
    <glyph glyph-name="ldot" unicode="&#x140;" horiz-adv-x="241" 
d="M147 740v-740h-71v740h71zM188 370q0 19 13 31.5t31 12.5t31 -12.5t13 -31.5q0 -18 -13 -31t-31 -13t-31 13t-13 31z" />
    <glyph glyph-name="Lslash" unicode="&#x141;" horiz-adv-x="442" 
d="M422 56v-56h-327v324l-85 -35v71l85 35v310h71v-280l139 57v-71l-139 -57v-298h256z" />
    <glyph glyph-name="lslash" unicode="&#x142;" horiz-adv-x="251" 
d="M241 478l-80 -37v-441h-71v409l-80 -37v68l80 37v263h71v-231l80 37v-68z" />
    <glyph glyph-name="Nacute" unicode="&#x143;" horiz-adv-x="680" 
d="M439 844l-162 -87l-16 28l159 99zM604 0h-71l-386 589v-589h-71v704h71l386 -590v590h71v-704z" />
    <glyph glyph-name="nacute" unicode="&#x144;" horiz-adv-x="635" 
d="M254 598l-16 28l159 99l19 -40zM349 556q45 0 84.5 -14.5t68 -44t45 -74t16.5 -105.5v-318h-69v313q0 91 -46 137.5t-122 46.5q-79 0 -129 -51t-50 -156v-290h-71v546h71v-134q22 73 78 108.5t124 35.5z" />
    <glyph glyph-name="Ncommaaccent" unicode="&#x145;" horiz-adv-x="693" 
d="M604 0h-71l-386 589v-589h-71v704h71l386 -590v590h71v-704zM384 -53q8 -30 8 -57q0 -58 -24 -83.5t-66 -25.5v33q24 0 35 15.5t11 44.5v8h-42v65h78z" />
    <glyph glyph-name="ncommaaccent" unicode="&#x146;" horiz-adv-x="635" 
d="M349 556q45 0 84.5 -14.5t68 -44t45 -74t16.5 -105.5v-318h-69v313q0 91 -46 137.5t-122 46.5q-79 0 -129 -51t-50 -156v-290h-71v546h71v-134q22 73 78 108.5t124 35.5zM366 -53q8 -30 8 -57q0 -58 -24 -83.5t-66 -25.5v33q24 0 35 15.5t11 44.5v8h-41v65h77z" />
    <glyph glyph-name="Ncaron" unicode="&#x147;" horiz-adv-x="680" 
d="M475 852l-134 -82l-134 82v51l134 -83l134 83v-51zM604 0h-71l-386 589v-589h-71v704h71l386 -590v590h71v-704z" />
    <glyph glyph-name="ncaron" unicode="&#x148;" horiz-adv-x="635" 
d="M320 611l-134 82v51l134 -83l134 83v-51zM349 556q45 0 84.5 -14.5t68 -44t45 -74t16.5 -105.5v-318h-69v313q0 91 -46 137.5t-122 46.5q-79 0 -129 -51t-50 -156v-290h-71v546h71v-134q22 73 78 108.5t124 35.5z" />
    <glyph glyph-name="Omacron" unicode="&#x14c;" horiz-adv-x="791" 
d="M566 859v-50h-339v50h339zM396 713q74 0 137 -26.5t108.5 -74.5t71.5 -114t26 -145t-26 -145.5t-71.5 -114.5t-108.5 -74.5t-137 -26.5t-137 26.5t-108.5 74.5t-71.5 114.5t-26 145.5t26 145t71.5 114t108.5 74.5t137 26.5zM396 648q-58 0 -107.5 -20.5t-86 -58.5
t-57 -92.5t-20.5 -123.5t20.5 -123.5t57 -92.5t86 -58.5t107.5 -20.5q57 0 106.5 20.5t86 58.5t57.5 92.5t21 123.5t-21 123.5t-57.5 92.5t-86 58.5t-106.5 20.5z" />
    <glyph glyph-name="omacron" unicode="&#x14d;" 
d="M492 700v-50h-339v50h339zM323 553q58 0 107.5 -19t86 -55t57 -88t20.5 -118t-20.5 -118t-57 -88t-86 -55t-107.5 -19t-108 19t-86.5 55t-57.5 88t-21 118t21 118t57.5 88t86.5 55t108 19zM323 492q-39 0 -75 -13t-64.5 -40t-45.5 -68t-17 -98t17 -98t45.5 -67.5
t64.5 -39.5t75 -13q38 0 74 13t64 39.5t45 67.5t17 98t-17 98t-45 68t-64 40t-74 13z" />
    <glyph glyph-name="Obreve" unicode="&#x14e;" horiz-adv-x="791" 
d="M396 771q-32 0 -56 10t-39.5 26.5t-23.5 38t-8 45.5v7h36q0 -38 23 -59.5t68 -21.5t68 21.5t23 59.5h36v-7q0 -24 -7.5 -45.5t-23.5 -38t-40 -26.5t-56 -10zM396 713q74 0 137 -26.5t108.5 -74.5t71.5 -114t26 -145t-26 -145.5t-71.5 -114.5t-108.5 -74.5t-137 -26.5
t-137 26.5t-108.5 74.5t-71.5 114.5t-26 145.5t26 145t71.5 114t108.5 74.5t137 26.5zM396 648q-58 0 -107.5 -20.5t-86 -58.5t-57 -92.5t-20.5 -123.5t20.5 -123.5t57 -92.5t86 -58.5t107.5 -20.5q57 0 106.5 20.5t86 58.5t57.5 92.5t21 123.5t-21 123.5t-57.5 92.5
t-86 58.5t-106.5 20.5z" />
    <glyph glyph-name="obreve" unicode="&#x14f;" 
d="M323 612q-32 0 -56 10t-39.5 26.5t-23.5 38t-8 45.5v7h36q0 -38 23 -59.5t68 -21.5t68 21.5t23 59.5h36v-7q0 -24 -7.5 -45.5t-23.5 -38t-40 -26.5t-56 -10zM323 553q58 0 107.5 -19t86 -55t57 -88t20.5 -118t-20.5 -118t-57 -88t-86 -55t-107.5 -19t-108 19t-86.5 55
t-57.5 88t-21 118t21 118t57.5 88t86.5 55t108 19zM323 492q-39 0 -75 -13t-64.5 -40t-45.5 -68t-17 -98t17 -98t45.5 -67.5t64.5 -39.5t75 -13q38 0 74 13t64 39.5t45 67.5t17 98t-17 98t-45 68t-64 40t-74 13z" />
    <glyph glyph-name="Ohungarumlaut" unicode="&#x150;" horiz-adv-x="791" 
d="M345 760h-48l65 139h59zM484 760h-48l75 139h59zM396 713q74 0 137 -26.5t108.5 -74.5t71.5 -114t26 -145t-26 -145.5t-71.5 -114.5t-108.5 -74.5t-137 -26.5t-137 26.5t-108.5 74.5t-71.5 114.5t-26 145.5t26 145t71.5 114t108.5 74.5t137 26.5zM396 648
q-58 0 -107.5 -20.5t-86 -58.5t-57 -92.5t-20.5 -123.5t20.5 -123.5t57 -92.5t86 -58.5t107.5 -20.5q57 0 106.5 20.5t86 58.5t57.5 92.5t21 123.5t-21 123.5t-57.5 92.5t-86 58.5t-106.5 20.5z" />
    <glyph glyph-name="ohungarumlaut" unicode="&#x151;" 
d="M274 601h-48l65 139h59zM413 601h-48l75 139h59zM323 553q58 0 107.5 -19t86 -55t57 -88t20.5 -118t-20.5 -118t-57 -88t-86 -55t-107.5 -19t-108 19t-86.5 55t-57.5 88t-21 118t21 118t57.5 88t86.5 55t108 19zM323 492q-39 0 -75 -13t-64.5 -40t-45.5 -68t-17 -98
t17 -98t45.5 -67.5t64.5 -39.5t75 -13q38 0 74 13t64 39.5t45 67.5t17 98t-17 98t-45 68t-64 40t-74 13z" />
    <glyph glyph-name="OE" unicode="&#x152;" horiz-adv-x="1092" 
d="M740 382h276v-55h-276v-269h306v-58h-376v189q-13 -45 -39.5 -81.5t-63.5 -62t-81.5 -40t-93.5 -14.5q-74 0 -136.5 26.5t-107.5 74.5t-70 114.5t-25 145.5q0 80 25 146t70 114t107.5 74.5t136.5 26.5q49 0 93.5 -14t81.5 -40t63.5 -63t39.5 -82v191h376v-57h-306v-266z
M396 56q57 0 106.5 20.5t86 58.5t57.5 93t21 124t-21 123.5t-57.5 93t-86 59t-106.5 20.5q-58 0 -107.5 -20.5t-86 -59t-57 -93t-20.5 -123.5t20.5 -124t57 -93t86 -58.5t107.5 -20.5z" />
    <glyph glyph-name="oe" unicode="&#x153;" horiz-adv-x="1107" 
d="M790 51q73 0 123 37t61 100h73q-7 -42 -28 -78t-54 -62t-76.5 -40.5t-96.5 -14.5q-84 0 -145.5 41.5t-87.5 116.5q-27 -75 -89.5 -116.5t-146.5 -41.5q-58 0 -108 19t-86.5 55t-57.5 88t-21 118t21 118t57.5 88t86.5 55t108 19q84 0 146.5 -41t89.5 -117q26 76 87.5 117
t145.5 41q62 0 110 -20t81 -54t50 -78.5t17 -92.5q0 -17 -1 -27.5t-3 -23.5h-452q1 -54 18 -93t44 -64t62 -37t72 -12zM792 496q-38 0 -73 -12t-62.5 -36.5t-44 -63t-18.5 -91.5h387q3 53 -12.5 91.5t-42.5 63.5t-62 36.5t-72 11.5zM323 55q38 0 74 13t64 39.5t45 67.5
t17 98t-17 98t-45 68t-64 40t-74 13q-39 0 -75 -13t-64.5 -40t-45.5 -68t-17 -98t17 -98t45.5 -67.5t64.5 -39.5t75 -13z" />
    <glyph glyph-name="Racute" unicode="&#x154;" horiz-adv-x="569" 
d="M221 757l-16 28l159 99l19 -40zM454 0l-193 294h-114v-294h-71v705h216q62 0 106.5 -15.5t73.5 -43t42.5 -65.5t13.5 -83q0 -88 -49 -140t-144 -62l199 -296h-80zM147 347h140q93 0 131.5 40.5t38.5 106.5q0 68 -38.5 109t-131.5 41h-140v-297z" />
    <glyph glyph-name="racute" unicode="&#x155;" horiz-adv-x="370" 
d="M121 598l-16 28l159 99l19 -40zM147 433q24 58 76 90.5t130 32.5v-76h-23q-34 0 -67 -8.5t-59 -29.5t-41.5 -56t-15.5 -87v-299h-71v546h71v-113z" />
    <glyph glyph-name="Rcommaaccent" unicode="&#x156;" horiz-adv-x="577" 
d="M534 0h-80l-193 294h-114v-294h-71v705h216q62 0 106.5 -15.5t73.5 -43t42.5 -65.5t13.5 -83q0 -88 -49 -140t-144 -62zM147 347h140q93 0 131.5 40.5t38.5 106.5q0 68 -38.5 109t-131.5 41h-140v-297zM323 -53q8 -30 8 -57q0 -58 -24 -83.5t-66 -25.5v33q24 0 35 15.5
t11 44.5v8h-42v65h78z" />
    <glyph glyph-name="rcommaaccent" unicode="&#x157;" horiz-adv-x="370" 
d="M147 433q24 58 76 90.5t130 32.5v-76h-23q-34 0 -67 -8.5t-59 -29.5t-41.5 -56t-15.5 -87v-299h-71v546h71v-113zM148 -53q4 -14 5.5 -29t1.5 -28q0 -58 -23.5 -83.5t-65.5 -25.5v33q24 0 35 15.5t11 44.5v8h-42v65h78z" />
    <glyph glyph-name="Rcaron" unicode="&#x158;" horiz-adv-x="569" 
d="M306 770l-134 82v51l134 -83l134 83v-51zM454 0l-193 294h-114v-294h-71v705h216q62 0 106.5 -15.5t73.5 -43t42.5 -65.5t13.5 -83q0 -88 -49 -140t-144 -62l199 -296h-80zM147 347h140q93 0 131.5 40.5t38.5 106.5q0 68 -38.5 109t-131.5 41h-140v-297z" />
    <glyph glyph-name="rcaron" unicode="&#x159;" horiz-adv-x="370" 
d="M215 611l-134 82v51l134 -83l134 83v-51zM147 433q24 58 76 90.5t130 32.5v-76h-23q-34 0 -67 -8.5t-59 -29.5t-41.5 -56t-15.5 -87v-299h-71v546h71v-113z" />
    <glyph glyph-name="Sacute" unicode="&#x15a;" horiz-adv-x="558" 
d="M377 844l-162 -87l-16 28l159 99zM506 179q0 -34 -12 -67.5t-37.5 -59.5t-65 -42.5t-94.5 -16.5q-52 0 -95 15t-74.5 40.5t-50 60.5t-22.5 75h74q3 -21 13.5 -45t30.5 -43.5t50 -32.5t71 -13q70 0 104 37.5t34 89.5q0 53 -28 82.5t-70 47.5t-91.5 31.5t-91.5 35t-70 58.5
t-28 101q0 39 14 72t41 57t66 37.5t89 13.5q53 0 93 -14t68.5 -38t45 -55t21.5 -64h-75q-4 18 -14.5 38.5t-29 37.5t-45.5 28t-64 11q-61 0 -98.5 -31t-37.5 -90q0 -51 28 -79t70 -45.5t91.5 -31t91.5 -36t70 -60.5t28 -105z" />
    <glyph glyph-name="sacute" unicode="&#x15b;" horiz-adv-x="507" 
d="M352 685l-162 -87l-16 28l159 99zM241 553q91 0 144.5 -48t64.5 -126h-67q-3 25 -13.5 47t-28.5 38.5t-43.5 26.5t-58.5 10q-55 0 -85 -26.5t-30 -70.5q0 -38 24.5 -58t61.5 -31.5t79.5 -20.5t79.5 -25.5t61.5 -45.5t24.5 -82q0 -65 -48 -106.5t-129 -41.5
q-95 0 -154.5 46.5t-70.5 127.5h68q5 -51 45 -86.5t113 -35.5q54 0 82 27.5t28 69.5q0 40 -24.5 60.5t-61 33t-79.5 21t-79.5 24t-61 44t-24.5 79.5q0 67 48.5 108t133.5 41z" />
    <glyph glyph-name="Scedilla" unicode="&#x15e;" horiz-adv-x="558" 
d="M506 179q0 -33 -11.5 -66t-35.5 -59t-62 -43t-91 -18v-67q56 3 91.5 -19t35.5 -70q0 -47 -32.5 -71t-84.5 -24h-90v43h82q41 0 57 15t16 38q0 21 -16 35.5t-57 14.5h-49v107q-44 5 -80.5 21.5t-62.5 41.5t-42 57.5t-19 68.5h74q3 -21 13.5 -45t30.5 -43.5t50 -32.5
t71 -13q70 0 104 37.5t34 89.5q0 53 -28 82.5t-70 47.5t-91.5 31.5t-91.5 35t-70 58.5t-28 101q0 39 14 72t41 57t66 37.5t89 13.5q53 0 93 -14t68.5 -38t45 -55t21.5 -64h-75q-4 18 -14.5 38.5t-29 37.5t-45.5 28t-64 11q-61 0 -98.5 -31t-37.5 -90q0 -51 28 -79t70 -45.5
t91.5 -31t91.5 -36t70 -60.5t28 -105z" />
    <glyph glyph-name="scedilla" unicode="&#x15f;" horiz-adv-x="507" 
d="M455 141q0 -65 -48 -106.5t-129 -41.5v-67q56 3 91.5 -19t35.5 -70q0 -47 -32.5 -71t-84.5 -24h-90v43h82q41 0 57 15t16 38q0 21 -16 35.5t-57 14.5h-49v108q-75 11 -122 55.5t-56 115.5h68q5 -51 45 -86.5t113 -35.5q54 0 82 27.5t28 69.5q0 40 -24.5 60.5t-61 33
t-79.5 21t-79.5 24t-61 44t-24.5 79.5q0 67 48.5 108t133.5 41q91 0 144.5 -48t64.5 -126h-67q-3 25 -13.5 47t-28.5 38.5t-43.5 26.5t-58.5 10q-55 0 -85 -26.5t-30 -70.5q0 -38 24.5 -58t61.5 -31.5t79.5 -20.5t79.5 -25.5t61.5 -45.5t24.5 -82z" />
    <glyph glyph-name="Scaron" unicode="&#x160;" horiz-adv-x="558" 
d="M414 852l-134 -82l-134 82v51l134 -83l134 83v-51zM506 179q0 -34 -12 -67.5t-37.5 -59.5t-65 -42.5t-94.5 -16.5q-52 0 -95 15t-74.5 40.5t-50 60.5t-22.5 75h74q3 -21 13.5 -45t30.5 -43.5t50 -32.5t71 -13q70 0 104 37.5t34 89.5q0 53 -28 82.5t-70 47.5t-91.5 31.5
t-91.5 35t-70 58.5t-28 101q0 39 14 72t41 57t66 37.5t89 13.5q53 0 93 -14t68.5 -38t45 -55t21.5 -64h-75q-4 18 -14.5 38.5t-29 37.5t-45.5 28t-64 11q-61 0 -98.5 -31t-37.5 -90q0 -51 28 -79t70 -45.5t91.5 -31t91.5 -36t70 -60.5t28 -105z" />
    <glyph glyph-name="scaron" unicode="&#x161;" horiz-adv-x="507" 
d="M389 693l-134 -82l-134 82v51l134 -83l134 83v-51zM241 553q91 0 144.5 -48t64.5 -126h-67q-3 25 -13.5 47t-28.5 38.5t-43.5 26.5t-58.5 10q-55 0 -85 -26.5t-30 -70.5q0 -38 24.5 -58t61.5 -31.5t79.5 -20.5t79.5 -25.5t61.5 -45.5t24.5 -82q0 -65 -48 -106.5
t-129 -41.5q-95 0 -154.5 46.5t-70.5 127.5h68q5 -51 45 -86.5t113 -35.5q54 0 82 27.5t28 69.5q0 40 -24.5 60.5t-61 33t-79.5 21t-79.5 24t-61 44t-24.5 79.5q0 67 48.5 108t133.5 41z" />
    <glyph glyph-name="uni0162" unicode="&#x162;" horiz-adv-x="507" 
d="M288 648v-645q58 -5 83 -28t25 -59q0 -46 -32.5 -70.5t-84.5 -24.5h-90v44h83q41 0 56.5 14.5t15.5 38.5q0 20 -15.5 35t-56.5 15h-54v680h-200v57h471v-57h-201z" />
    <glyph glyph-name="uni0163" unicode="&#x163;" horiz-adv-x="363" 
d="M245 -74q57 3 92 -19t35 -70q0 -47 -32 -71t-85 -24h-90v43h82q42 0 58 15t16 38q0 21 -16 35.5t-58 14.5h-49v119q-48 12 -72 48.5t-24 108.5v321h-83v61h83v138h71v-138h150v-61h-150v-322q0 -59 21.5 -80t73.5 -21h56v-62h-65h-14v-74z" />
    <glyph glyph-name="Tcaron" unicode="&#x164;" horiz-adv-x="507" 
d="M388 852l-134 -82l-134 82v51l134 -83l134 83v-51zM489 705v-57h-201v-648h-70v648h-200v57h471z" />
    <glyph glyph-name="tcaron" unicode="&#x165;" horiz-adv-x="363" 
d="M327 695q0 -52 -23.5 -75t-68.5 -23v35q26 0 37 11t11 32v26h-47v77h81q10 -49 10 -83zM173 163q0 -59 21.5 -80t73.5 -21h56v-62h-65q-76 0 -116.5 36.5t-40.5 127.5v321h-83v61h83v138h71v-138h150v-61h-150v-322z" />
    <glyph glyph-name="Utilde" unicode="&#x168;" horiz-adv-x="652" 
d="M270 851q19 0 33 -7.5t26 -16t24 -16t28 -7.5t27.5 11t14.5 34h36q-5 -41 -26.5 -63t-53.5 -22q-19 0 -33.5 7.5t-26.5 16t-23.5 16t-26.5 7.5q-35 0 -41 -46h-36q6 43 26 64.5t52 21.5zM142 705v-427q0 -59 13.5 -100.5t38 -68t58.5 -38.5t75 -12t74.5 12t57.5 38.5
t37.5 68t13.5 100.5v427h70v-427q0 -74 -19 -128t-52.5 -89t-80 -51.5t-102.5 -16.5q-55 0 -102 16.5t-80.5 51.5t-52.5 89t-19 128v427h70z" />
    <glyph glyph-name="utilde" unicode="&#x169;" horiz-adv-x="624" 
d="M255 652q-35 0 -41 -46h-36q6 43 26 64.5t52 21.5q19 0 33 -7.5t26 -16t24 -16t28 -7.5t27.5 11t14.5 34h36q-5 -41 -26.5 -63t-53.5 -22q-19 0 -33.5 7.5t-26.5 16t-23.5 16t-26.5 7.5zM547 546v-546h-70v135q-22 -73 -78 -109t-124 -36q-45 0 -84.5 14.5t-68.5 44
t-45.5 74t-16.5 105.5v318h70v-312q0 -92 46 -138.5t122 -46.5q79 0 129 51t50 156v290h70z" />
    <glyph glyph-name="Umacron" unicode="&#x16a;" horiz-adv-x="652" 
d="M496 859v-50h-339v50h339zM142 705v-427q0 -59 13.5 -100.5t38 -68t58.5 -38.5t75 -12t74.5 12t57.5 38.5t37.5 68t13.5 100.5v427h70v-427q0 -74 -19 -128t-52.5 -89t-80 -51.5t-102.5 -16.5q-55 0 -102 16.5t-80.5 51.5t-52.5 89t-19 128v427h70z" />
    <glyph glyph-name="umacron" unicode="&#x16b;" horiz-adv-x="624" 
d="M474 650h-339v50h339v-50zM547 546v-546h-70v135q-22 -73 -78 -109t-124 -36q-45 0 -84.5 14.5t-68.5 44t-45.5 74t-16.5 105.5v318h70v-312q0 -92 46 -138.5t122 -46.5q79 0 129 51t50 156v290h70z" />
    <glyph glyph-name="Ubreve" unicode="&#x16c;" horiz-adv-x="652" 
d="M326 771q-32 0 -56 10t-39.5 26.5t-23.5 38t-8 45.5v7h36q0 -38 23 -59.5t68 -21.5t68 21.5t23 59.5h36v-7q0 -24 -7.5 -45.5t-23.5 -38t-40 -26.5t-56 -10zM142 705v-427q0 -59 13.5 -100.5t38 -68t58.5 -38.5t75 -12t74.5 12t57.5 38.5t37.5 68t13.5 100.5v427h70v-427
q0 -74 -19 -128t-52.5 -89t-80 -51.5t-102.5 -16.5q-55 0 -102 16.5t-80.5 51.5t-52.5 89t-19 128v427h70z" />
    <glyph glyph-name="ubreve" unicode="&#x16d;" horiz-adv-x="624" 
d="M312 612q-32 0 -56 10t-39.5 26.5t-23.5 38t-8 45.5v7h36q0 -38 23 -59.5t68 -21.5t68 21.5t23 59.5h36v-7q0 -24 -7.5 -45.5t-23.5 -38t-40 -26.5t-56 -10zM547 546v-546h-70v135q-22 -73 -78 -109t-124 -36q-45 0 -84.5 14.5t-68.5 44t-45.5 74t-16.5 105.5v318h70
v-312q0 -92 46 -138.5t122 -46.5q79 0 129 51t50 156v290h70z" />
    <glyph glyph-name="Uring" unicode="&#x16e;" horiz-adv-x="652" 
d="M325 970q42 0 71.5 -26.5t29.5 -74.5q0 -47 -29.5 -73.5t-71.5 -26.5t-71 26.5t-29 73.5q0 48 29 74.5t71 26.5zM325 935q-27 0 -45.5 -17.5t-18.5 -48.5t18.5 -48.5t45.5 -17.5q28 0 46 17.5t18 48.5t-18 48.5t-46 17.5zM142 705v-427q0 -59 13.5 -100.5t38 -68
t58.5 -38.5t75 -12t74.5 12t57.5 38.5t37.5 68t13.5 100.5v427h70v-427q0 -74 -19 -128t-52.5 -89t-80 -51.5t-102.5 -16.5q-55 0 -102 16.5t-80.5 51.5t-52.5 89t-19 128v427h70z" />
    <glyph glyph-name="uring" unicode="&#x16f;" horiz-adv-x="624" 
d="M303 610q-42 0 -71 26.5t-29 73.5q0 48 29 74.5t71 26.5t71.5 -26.5t29.5 -74.5q0 -47 -29.5 -73.5t-71.5 -26.5zM303 776q-27 0 -45.5 -17.5t-18.5 -48.5t18.5 -48.5t45.5 -17.5q28 0 46 17.5t18 48.5t-18 48.5t-46 17.5zM547 546v-546h-70v135q-22 -73 -78 -109
t-124 -36q-45 0 -84.5 14.5t-68.5 44t-45.5 74t-16.5 105.5v318h70v-312q0 -92 46 -138.5t122 -46.5q79 0 129 51t50 156v290h70z" />
    <glyph glyph-name="Uhungarumlaut" unicode="&#x170;" horiz-adv-x="652" 
d="M260 760h-48l65 139h59zM399 760h-48l75 139h59zM142 705v-427q0 -59 13.5 -100.5t38 -68t58.5 -38.5t75 -12t74.5 12t57.5 38.5t37.5 68t13.5 100.5v427h70v-427q0 -74 -19 -128t-52.5 -89t-80 -51.5t-102.5 -16.5q-55 0 -102 16.5t-80.5 51.5t-52.5 89t-19 128v427h70z
" />
    <glyph glyph-name="uhungarumlaut" unicode="&#x171;" horiz-adv-x="624" 
d="M238 601h-48l65 139h59zM377 601h-48l75 139h59zM547 546v-546h-70v135q-22 -73 -78 -109t-124 -36q-45 0 -84.5 14.5t-68.5 44t-45.5 74t-16.5 105.5v318h70v-312q0 -92 46 -138.5t122 -46.5q79 0 129 51t50 156v290h70z" />
    <glyph glyph-name="Uogonek" unicode="&#x172;" horiz-adv-x="664" 
d="M370 -168q-55 0 -87.5 28t-32.5 75q0 20 11 37.5t29 23.5q-44 7 -83 27.5t-67.5 55t-45 84t-16.5 115.5v427h70v-427q0 -59 13.5 -100.5t38 -68t59 -38.5t75.5 -12q37 0 70 10t58 35t39.5 67.5t14.5 106.5v427h70v-427q0 -69 -16.5 -119t-45 -84.5t-68 -53t-85.5 -24.5
q-34 -4 -51.5 -20t-17.5 -42q0 -29 20.5 -44.5t58.5 -15.5h84v-43h-95z" />
    <glyph glyph-name="uogonek" unicode="&#x173;" horiz-adv-x="624" 
d="M589 -152v-43h-93q-57 0 -90.5 26.5t-33.5 74.5q0 45 29 71.5t76 29.5v128q-22 -73 -78 -109t-124 -36q-45 0 -84.5 14.5t-68.5 44t-45.5 74t-16.5 105.5v318h70v-312q0 -92 46 -138.5t122 -46.5q79 0 129 51t50 156v290h70v-538h1v-40h-46q-37 0 -57.5 -15.5
t-20.5 -44.5t20.5 -44.5t57.5 -15.5h87z" />
    <glyph glyph-name="Wcircumflex" unicode="&#x174;" horiz-adv-x="953" 
d="M367 758l-17 31l127 78l126 -78l-16 -32l-110 66zM919 705l-182 -705h-84l-176 604l-177 -604h-84l-182 705h78l147 -618l178 618h79l178 -619l148 619h77z" />
    <glyph glyph-name="wcircumflex" unicode="&#x175;" horiz-adv-x="828" 
d="M305 599l-17 31l127 78l126 -78l-16 -32l-110 66zM814 546l-161 -546h-74l-164 464l-166 -464h-73l-161 546h71l130 -473l164 473h72l165 -473l129 473h68z" />
    <glyph glyph-name="Ycircumflex" unicode="&#x176;" horiz-adv-x="571" 
d="M176 758l-17 31l127 78l126 -78l-16 -32l-110 66zM549 705l-227 -430v-275h-71v275l-228 430h81l182 -355l182 355h81z" />
    <glyph glyph-name="ycircumflex" unicode="&#x177;" horiz-adv-x="547" 
d="M274 664l-110 -65l-17 31l127 78l126 -78l-16 -32zM91 546l190 -455l175 455h78l-321 -804h-80l110 264l-230 540h78z" />
    <glyph glyph-name="Ydieresis" unicode="&#x178;" horiz-adv-x="571" 
d="M208 784q-19 0 -31.5 13t-12.5 31q0 19 12.5 31.5t31.5 12.5q18 0 31 -12.5t13 -31.5q0 -18 -13 -31t-31 -13zM364 784q-18 0 -30.5 13t-12.5 31q0 19 12.5 31.5t30.5 12.5q19 0 31.5 -12.5t12.5 -31.5q0 -18 -12.5 -31t-31.5 -13zM549 705l-227 -430v-275h-71v275
l-228 430h81l182 -355l182 355h81z" />
    <glyph glyph-name="Zacute" unicode="&#x179;" horiz-adv-x="523" 
d="M360 844l-162 -87l-16 28l159 99zM117 59h367v-59h-445v56l359 590h-349v59h428v-57z" />
    <glyph glyph-name="zacute" unicode="&#x17a;" horiz-adv-x="435" 
d="M316 685l-162 -87l-16 28l159 99zM104 60h303v-60h-379v57l290 430h-282v59h361v-57z" />
    <glyph glyph-name="Zdotaccent" unicode="&#x17b;" horiz-adv-x="523" 
d="M217 828q0 19 13 31.5t31 12.5t31 -12.5t13 -31.5q0 -18 -13 -31t-31 -13t-31 13t-13 31zM117 59h367v-59h-445v56l359 590h-349v59h428v-57z" />
    <glyph glyph-name="zdotaccent" unicode="&#x17c;" horiz-adv-x="435" 
d="M173 669q0 19 13 31.5t31 12.5t31 -12.5t13 -31.5q0 -18 -13 -31t-31 -13t-31 13t-13 31zM104 60h303v-60h-379v57l290 430h-282v59h361v-57z" />
    <glyph glyph-name="Zcaron" unicode="&#x17d;" horiz-adv-x="523" 
d="M396 852l-134 -82l-134 82v51l134 -83l134 83v-51zM117 59h367v-59h-445v56l359 590h-349v59h428v-57z" />
    <glyph glyph-name="zcaron" unicode="&#x17e;" horiz-adv-x="435" 
d="M352 693l-134 -82l-134 82v51l134 -83l134 83v-51zM104 60h303v-60h-379v57l290 430h-282v59h361v-57z" />
    <glyph glyph-name="florin" unicode="&#x192;" horiz-adv-x="333" 
d="M345 702q-62 0 -96 -24.5t-40 -78.5l-6 -53h133l-6 -60h-133l-56 -536q-8 -67 -42.5 -98.5t-104.5 -31.5h-30l5 61h30q33 0 49.5 13.5t21.5 55.5l58 536h-75l4 60h77l6 53q8 88 61.5 126t148.5 38z" />
    <glyph glyph-name="Ohorn" unicode="&#x1a0;" horiz-adv-x="791" 
d="M555 676q85 -43 134.5 -127t49.5 -196q0 -79 -26 -145.5t-71.5 -114.5t-108.5 -74.5t-137 -26.5t-137 26.5t-108.5 74.5t-71.5 114.5t-26 145.5t26 145t71.5 114t108.5 74.5t137 26.5q38 0 76 -8q45 2 72.5 28t27.5 88h53q0 -55 -19 -90.5t-51 -54.5zM396 58
q57 0 106.5 20.5t86 58.5t57.5 92.5t21 123.5t-21 123.5t-57.5 92.5t-86 58.5t-106.5 20.5q-58 0 -107.5 -20.5t-86 -58.5t-57 -92.5t-20.5 -123.5t20.5 -123.5t57 -92.5t86 -58.5t107.5 -20.5z" />
    <glyph glyph-name="ohorn" unicode="&#x1a1;" 
d="M472 514q57 -35 89.5 -95.5t32.5 -145.5q0 -66 -20.5 -118t-57 -88t-86 -55t-107.5 -19t-108 19t-86.5 55t-57.5 88t-21 118t21 118t57.5 88t86.5 55t108 19q17 0 34 -1.5t33 -5.5q46 1 75 27t29 89h53q0 -57 -21 -93.5t-54 -54.5zM323 55q38 0 74 13t64 39.5t45 67.5
t17 98t-17 98t-45 68t-64 40t-74 13q-39 0 -75 -13t-64.5 -40t-45.5 -68t-17 -98t17 -98t45.5 -67.5t64.5 -39.5t75 -13z" />
    <glyph glyph-name="Uhorn" unicode="&#x1af;" horiz-adv-x="652" 
d="M697 821q0 -73 -34 -113t-83 -51v-379q0 -74 -19 -128t-52.5 -89t-80 -51.5t-102.5 -16.5q-55 0 -102 16.5t-80.5 51.5t-52.5 89t-19 128v427h70v-427q0 -59 13.5 -100.5t38 -68t58.5 -38.5t75 -12t74.5 12t57.5 38.5t37.5 68t13.5 100.5v427h27q48 0 77.5 26t29.5 90h53
z" />
    <glyph glyph-name="uhorn" unicode="&#x1b0;" horiz-adv-x="624" 
d="M672 662q0 -76 -36.5 -116t-88.5 -50v-496h-70v135q-22 -73 -78 -109t-124 -36q-45 0 -84.5 14.5t-68.5 44t-45.5 74t-16.5 105.5v318h70v-312q0 -92 46 -138.5t122 -46.5q79 0 129 51t50 156v290h35q48 0 77.5 26t29.5 90h53z" />
    <glyph glyph-name="AEacute" unicode="&#x1fc;" horiz-adv-x="874" 
d="M444 757l-16 28l159 99l19 -40zM525 648v-265h273v-56h-273v-269h303v-58h-373v170h-271l-99 -170h-77l409 705h411v-57h-303zM455 225v410l-239 -410h239z" />
    <glyph glyph-name="aeacute" unicode="&#x1fd;" horiz-adv-x="1115" 
d="M538 598l-16 28l159 99l19 -40zM800 50q75 0 126 36.5t62 101.5h74q-7 -42 -27 -78t-51 -62t-72.5 -40.5t-92.5 -14.5q-79 0 -140 39.5t-82 118.5v-151h-69v150q-21 -69 -78.5 -113t-143.5 -44q-56 0 -103 19.5t-81 55.5t-53 88t-19 117q0 66 19 118t53 88t81 55t103 19
q86 0 143.5 -44t78.5 -113v150h69v-150q11 39 32 68t50 49t65 30t75 10q60 0 105.5 -20t77 -54t47.5 -78.5t16 -92.5q0 -17 -1 -27.5t-3 -23.5h-462q2 -54 19.5 -93.5t45 -64.5t63 -37t73.5 -12zM801 496q-37 0 -73 -11.5t-64 -36.5t-45.5 -63t-19.5 -92h396
q3 53 -12.5 91.5t-43 63t-64 36.5t-74.5 12zM324 55q44 0 81.5 15.5t64.5 44t42.5 69t15.5 89.5q0 50 -15.5 90t-42.5 68.5t-64.5 44t-81.5 15.5q-46 0 -83.5 -15t-64 -43t-41 -68.5t-14.5 -91.5t14.5 -91.5t41 -68.5t64 -43t83.5 -15z" />
    <glyph glyph-name="Scommaaccent" unicode="&#x218;" horiz-adv-x="573" 
d="M506 179q0 -34 -12 -67.5t-37.5 -59.5t-65 -42.5t-94.5 -16.5q-52 0 -95 15t-74.5 40.5t-50 60.5t-22.5 75h74q3 -21 13.5 -45t30.5 -43.5t50 -32.5t71 -13q70 0 104 37.5t34 89.5q0 53 -28 82.5t-70 47.5t-91.5 31.5t-91.5 35t-70 58.5t-28 101q0 39 14 72t41 57
t66 37.5t89 13.5q53 0 93 -14t68.5 -38t45 -55t21.5 -64h-75q-4 18 -14.5 38.5t-29 37.5t-45.5 28t-64 11q-61 0 -98.5 -31t-37.5 -90q0 -51 28 -79t70 -45.5t91.5 -31t91.5 -36t70 -60.5t28 -105zM343 -53q5 -14 6.5 -29t1.5 -28q0 -58 -24 -83.5t-66 -25.5v33
q25 0 35.5 15.5t10.5 44.5v8h-41v65h77z" />
    <glyph glyph-name="scommaaccent" unicode="&#x219;" horiz-adv-x="507" 
d="M241 553q91 0 144.5 -48t64.5 -126h-67q-3 25 -13.5 47t-28.5 38.5t-43.5 26.5t-58.5 10q-55 0 -85 -26.5t-30 -70.5q0 -38 24.5 -58t61.5 -31.5t79.5 -20.5t79.5 -25.5t61.5 -45.5t24.5 -82q0 -65 -48 -106.5t-129 -41.5q-95 0 -154.5 46.5t-70.5 127.5h68
q5 -51 45 -86.5t113 -35.5q54 0 82 27.5t28 69.5q0 40 -24.5 60.5t-61 33t-79.5 21t-79.5 24t-61 44t-24.5 79.5q0 67 48.5 108t133.5 41zM307 -53q8 -30 8 -57q0 -58 -24 -83.5t-66 -25.5v33q25 0 35.5 15.5t10.5 44.5v8h-41v65h77z" />
    <glyph glyph-name="uni021A" unicode="&#x21a;" horiz-adv-x="507" 
d="M489 705v-57h-201v-648h-70v648h-200v57h471zM290 -53q8 -30 8 -57q0 -58 -24 -83.5t-66 -25.5v33q24 0 35 15.5t11 44.5v8h-41v65h77z" />
    <glyph glyph-name="uni021B" unicode="&#x21b;" horiz-adv-x="363" 
d="M324 62v-62h-65q-76 0 -116.5 36.5t-40.5 127.5v321h-83v61h83v138h71v-138h150v-61h-150v-322q0 -59 21.5 -80t73.5 -21h56zM247 -53q8 -30 8 -57q0 -58 -24 -83.5t-66 -25.5v33q25 0 35.5 15.5t10.5 44.5v8h-41v65h77z" />
    <glyph glyph-name="circumflex" unicode="&#x2c6;" horiz-adv-x="333" 
d="M167 692l-110 -65l-17 31l127 78l126 -78l-16 -32z" />
    <glyph glyph-name="caron" unicode="&#x2c7;" horiz-adv-x="333" 
d="M301 693l-134 -82l-134 82v51l134 -83l134 83v-51z" />
    <glyph glyph-name="breve" unicode="&#x2d8;" horiz-adv-x="336" 
d="M168 612q-32 0 -56 10t-39.5 26.5t-23.5 38t-8 45.5v7h36q0 -38 23 -59.5t68 -21.5t68 21.5t23 59.5h36v-7q0 -24 -7.5 -45.5t-23.5 -38t-40 -26.5t-56 -10z" />
    <glyph glyph-name="dotaccent" unicode="&#x2d9;" horiz-adv-x="164" 
d="M38 669q0 19 13 31.5t31 12.5t31 -12.5t13 -31.5q0 -18 -13 -31t-31 -13t-31 13t-13 31z" />
    <glyph glyph-name="ring" unicode="&#x2da;" horiz-adv-x="266" 
d="M133 811q42 0 71.5 -26.5t29.5 -74.5q0 -47 -29.5 -73.5t-71.5 -26.5t-71 26.5t-29 73.5q0 48 29 74.5t71 26.5zM133 776q-27 0 -45.5 -17.5t-18.5 -48.5t18.5 -48.5t45.5 -17.5q28 0 46 17.5t18 48.5t-18 48.5t-46 17.5z" />
    <glyph glyph-name="ogonek" unicode="&#x2db;" horiz-adv-x="277" 
d="M206 -21v-40h-46q-37 0 -57.5 -15.5t-20.5 -44.5t20.5 -44.5t57.5 -15.5h87v-43h-93q-57 0 -90.5 26.5t-33.5 74.5t33 75t86 27h57z" />
    <glyph glyph-name="tilde" unicode="&#x2dc;" horiz-adv-x="347" 
d="M118 692q19 0 33 -7.5t26 -16t24 -16t28 -7.5t27.5 11t14.5 34h36q-5 -41 -26.5 -63t-53.5 -22q-19 0 -33.5 7.5t-26.5 16t-23.5 16t-26.5 7.5q-35 0 -41 -46h-36q6 43 26 64.5t52 21.5z" />
    <glyph glyph-name="hungarumlaut" unicode="&#x2dd;" horiz-adv-x="338" 
d="M81 601h-48l65 139h59zM220 601h-48l75 139h59z" />
    <glyph glyph-name="gravecomb" unicode="&#x300;" horiz-adv-x="0" 
d="M-40 622l-16 -30l-152 98l22 39z" />
    <glyph glyph-name="acutecomb" unicode="&#x301;" horiz-adv-x="0" 
d="M-60 685l-162 -87l-16 28l159 99z" />
    <glyph glyph-name="uni0302" unicode="&#x302;" horiz-adv-x="0" 
d="M-166 692l-110 -65l-17 31l127 78l126 -78l-16 -32z" />
    <glyph glyph-name="tildecomb" unicode="&#x303;" horiz-adv-x="0" 
d="M-229 692q19 0 32.5 -7.5t25.5 -16t24.5 -16t28.5 -7.5t27.5 11t14.5 34h36q-5 -41 -26.5 -63t-53.5 -22q-20 0 -34 7.5t-26 16t-23.5 16t-26.5 7.5q-35 0 -41 -46h-36q6 43 26 64.5t52 21.5z" />
    <glyph glyph-name="uni0306" unicode="&#x306;" horiz-adv-x="0" 
d="M-168 612q-32 0 -56 10t-39.5 26.5t-23.5 38t-8 45.5v7h36q0 -38 23 -59.5t68 -21.5t68 21.5t23 59.5h36v-7q0 -24 -8 -45.5t-23.5 -38t-39.5 -26.5t-56 -10z" />
    <glyph glyph-name="hookabovecomb" unicode="&#x309;" horiz-adv-x="0" 
d="M-192 742q42 0 61 -20.5t19 -56.5q0 -29 -19 -49.5t-50 -51.5l-24 22q23 23 39 41t16 38q0 23 -10.5 32t-32.5 9q-24 0 -32 -12t-12 -35l-36 2q1 14 4.5 28t12 26t24 19.5t40.5 7.5z" />
    <glyph glyph-name="uni031B" unicode="&#x31b;" horiz-adv-x="0" 
d="M-168 546q48 0 77.5 26t29.5 90h53q0 -45 -13 -77t-35.5 -52.5t-51.5 -30t-60 -9.5v53z" />
    <glyph glyph-name="dotbelowcomb" unicode="&#x323;" horiz-adv-x="0" 
d="M-126 -120q0 19 13 31.5t31 12.5t31 -12.5t13 -31.5q0 -18 -13 -31t-31 -13t-31 13t-13 31z" />
    <glyph glyph-name="pi" unicode="&#x3c0;" horiz-adv-x="718" 
d="M668 546v-55h-82v-491h-70v491h-313v-491h-70v491h-82v55h617z" />
    <glyph glyph-name="Wgrave" unicode="&#x1e80;" horiz-adv-x="953" 
d="M559 751l-152 98l22 39l146 -107zM919 705l-182 -705h-84l-176 604l-177 -604h-84l-182 705h78l147 -618l178 618h79l178 -619l148 619h77z" />
    <glyph glyph-name="wgrave" unicode="&#x1e81;" horiz-adv-x="828" 
d="M497 592l-152 98l22 39l146 -107zM814 546l-161 -546h-74l-164 464l-166 -464h-73l-161 546h71l130 -473l164 473h72l165 -473l129 473h68z" />
    <glyph glyph-name="Wacute" unicode="&#x1e82;" horiz-adv-x="953" 
d="M413 757l-16 28l159 99l19 -40zM919 705l-182 -705h-84l-176 604l-177 -604h-84l-182 705h78l147 -618l178 618h79l178 -619l148 619h77z" />
    <glyph glyph-name="wacute" unicode="&#x1e83;" horiz-adv-x="828" 
d="M351 598l-16 28l159 99l19 -40zM814 546l-161 -546h-74l-164 464l-166 -464h-73l-161 546h71l130 -473l164 473h72l165 -473l129 473h68z" />
    <glyph glyph-name="Wdieresis" unicode="&#x1e84;" horiz-adv-x="953" 
d="M399 784q-19 0 -31.5 13t-12.5 31q0 19 12.5 31.5t31.5 12.5q18 0 31 -12.5t13 -31.5q0 -18 -13 -31t-31 -13zM555 784q-18 0 -30.5 13t-12.5 31q0 19 12.5 31.5t30.5 12.5q19 0 31.5 -12.5t12.5 -31.5q0 -18 -12.5 -31t-31.5 -13zM919 705l-182 -705h-84l-176 604
l-177 -604h-84l-182 705h78l147 -618l178 618h79l178 -619l148 619h77z" />
    <glyph glyph-name="wdieresis" unicode="&#x1e85;" horiz-adv-x="828" 
d="M337 625q-19 0 -31.5 13t-12.5 31q0 19 12.5 31.5t31.5 12.5q18 0 31 -12.5t13 -31.5q0 -18 -13 -31t-31 -13zM493 625q-18 0 -30.5 13t-12.5 31q0 19 12.5 31.5t30.5 12.5q19 0 31.5 -12.5t12.5 -31.5q0 -18 -12.5 -31t-31.5 -13zM814 546l-161 -546h-74l-164 464
l-166 -464h-73l-161 546h71l130 -473l164 473h72l165 -473l129 473h68z" />
    <glyph glyph-name="uni1EA0" unicode="&#x1ea0;" 
d="M546 0l-63 172h-321l-64 -172h-75l260 689h79l260 -689h-76zM462 228l-139 380l-141 -380h280zM323 -76q18 0 31 -12.5t13 -31.5q0 -18 -13 -31t-31 -13t-31 13t-13 31q0 19 13 31.5t31 12.5z" />
    <glyph glyph-name="uni1EA1" unicode="&#x1ea1;" horiz-adv-x="673" 
d="M306 553q86 0 143.5 -44t78.5 -113v150h69v-546h-69v150q-21 -69 -78.5 -113t-143.5 -44q-56 0 -103 19.5t-81 55.5t-53 88t-19 117q0 66 19 118t53 88t81 55t103 19zM324 491q-46 0 -83.5 -15t-64 -43t-41 -68.5t-14.5 -91.5t14.5 -91.5t41 -68.5t64 -43t83.5 -15
q44 0 81.5 15.5t64.5 44t42.5 69t15.5 89.5q0 50 -15.5 90t-42.5 68.5t-64.5 44t-81.5 15.5zM293 -120q0 19 13 31.5t31 12.5t31 -12.5t13 -31.5q0 -18 -13 -31t-31 -13t-31 13t-13 31z" />
    <glyph glyph-name="uni1EA2" unicode="&#x1ea2;" 
d="M319 910q-24 0 -32 -12t-12 -35l-36 2q2 14 5 28t11.5 26t24 19.5t40.5 7.5q42 0 61 -20.5t19 -56.5q0 -29 -19 -49.5t-50 -51.5l-24 22q23 23 39 41t16 38q0 23 -10.5 32t-32.5 9zM483 172h-321l-64 -172h-75l260 689h79l260 -689h-76zM462 228l-139 380l-141 -380h280z
" />
    <glyph glyph-name="uni1EA3" unicode="&#x1ea3;" horiz-adv-x="673" 
d="M334 787q42 0 61 -20.5t19 -56.5q0 -29 -19 -49.5t-50 -51.5l-24 22q23 23 39 41t16 38q0 23 -10.5 32t-32.5 9q-24 0 -32 -12t-12 -35l-36 2q2 14 5 28t11.5 26t24 19.5t40.5 7.5zM306 553q86 0 143.5 -44t78.5 -113v150h69v-546h-69v150q-21 -69 -78.5 -113t-143.5 -44
q-56 0 -103 19.5t-81 55.5t-53 88t-19 117q0 66 19 118t53 88t81 55t103 19zM324 491q-46 0 -83.5 -15t-64 -43t-41 -68.5t-14.5 -91.5t14.5 -91.5t41 -68.5t64 -43t83.5 -15q44 0 81.5 15.5t64.5 44t42.5 69t15.5 89.5q0 50 -15.5 90t-42.5 68.5t-64.5 44t-81.5 15.5z" />
    <glyph glyph-name="uni1EA4" unicode="&#x1ea4;" 
d="M262 867l-16 28l156 97l18 -40zM216 757l-17 30l124 76l123 -76l-15 -31l-108 64zM483 172h-321l-64 -172h-75l260 689h79l260 -689h-76zM462 228l-139 380l-141 -380h280z" />
    <glyph glyph-name="uni1EA5" unicode="&#x1ea5;" horiz-adv-x="673" 
d="M434 793l-158 -85l-16 28l156 97zM337 661l-107 -63l-17 30l124 76l123 -76l-15 -31zM306 553q86 0 143.5 -44t78.5 -113v150h69v-546h-69v150q-21 -69 -78.5 -113t-143.5 -44q-56 0 -103 19.5t-81 55.5t-53 88t-19 117q0 66 19 118t53 88t81 55t103 19zM324 491
q-46 0 -83.5 -15t-64 -43t-41 -68.5t-14.5 -91.5t14.5 -91.5t41 -68.5t64 -43t83.5 -15q44 0 81.5 15.5t64.5 44t42.5 69t15.5 89.5q0 50 -15.5 90t-42.5 68.5t-64.5 44t-81.5 15.5z" />
    <glyph glyph-name="uni1EA6" unicode="&#x1ea6;" 
d="M447 848l-149 95l22 38l143 -104zM216 757l-17 30l124 76l123 -76l-15 -31l-108 64zM483 172h-321l-64 -172h-75l260 689h79l260 -689h-76zM462 228l-139 380l-141 -380h280z" />
    <glyph glyph-name="uni1EA7" unicode="&#x1ea7;" horiz-adv-x="673" 
d="M477 718l-16 -29l-149 95l22 38zM337 661l-107 -63l-17 30l124 76l123 -76l-15 -31zM306 553q86 0 143.5 -44t78.5 -113v150h69v-546h-69v150q-21 -69 -78.5 -113t-143.5 -44q-56 0 -103 19.5t-81 55.5t-53 88t-19 117q0 66 19 118t53 88t81 55t103 19zM324 491
q-46 0 -83.5 -15t-64 -43t-41 -68.5t-14.5 -91.5t14.5 -91.5t41 -68.5t64 -43t83.5 -15q44 0 81.5 15.5t64.5 44t42.5 69t15.5 89.5q0 50 -15.5 90t-42.5 68.5t-64.5 44t-81.5 15.5z" />
    <glyph glyph-name="uni1EA8" unicode="&#x1ea8;" 
d="M466 949q-23 0 -31 -12t-12 -34l-35 2q2 13 5 27t11.5 25.5t23 19t39.5 7.5q41 0 59.5 -20t18.5 -55q0 -28 -18.5 -48.5t-48.5 -50.5l-24 22q23 23 38.5 40t15.5 37q0 23 -10.5 31.5t-31.5 8.5zM216 757l-17 30l124 76l123 -76l-15 -31l-108 64zM483 172h-321l-64 -172
h-75l260 689h79l260 -689h-76zM462 228l-139 380l-141 -380h280z" />
    <glyph glyph-name="uni1EA9" unicode="&#x1ea9;" horiz-adv-x="673" 
d="M481 825q41 0 59.5 -20t18.5 -55q0 -28 -18.5 -48.5t-48.5 -50.5l-24 22q23 23 38.5 40t15.5 37q0 23 -10.5 31.5t-31.5 8.5q-23 0 -31 -12t-12 -34l-35 2q2 13 5 27t11.5 25.5t23 19t39.5 7.5zM337 661l-107 -63l-17 30l124 76l123 -76l-15 -31zM306 553q86 0 143.5 -44
t78.5 -113v150h69v-546h-69v150q-21 -69 -78.5 -113t-143.5 -44q-56 0 -103 19.5t-81 55.5t-53 88t-19 117q0 66 19 118t53 88t81 55t103 19zM324 491q-46 0 -83.5 -15t-64 -43t-41 -68.5t-14.5 -91.5t14.5 -91.5t41 -68.5t64 -43t83.5 -15q44 0 81.5 15.5t64.5 44t42.5 69
t15.5 89.5q0 50 -15.5 90t-42.5 68.5t-64.5 44t-81.5 15.5z" />
    <glyph glyph-name="uni1EAA" unicode="&#x1eaa;" 
d="M287 918q-33 0 -39 -43h-33q11 81 73 81q18 0 30.5 -7t24 -15t23 -15t26.5 -7q14 0 25 10.5t14 31.5h34q-5 -38 -25 -59t-50 -21q-18 0 -31.5 7t-25 15t-22 15t-24.5 7zM216 757l-17 30l124 76l123 -76l-15 -31l-108 64zM483 172h-321l-64 -172h-75l260 689h79l260 -689
h-76zM462 228l-139 380l-141 -380h280z" />
    <glyph glyph-name="uni1EAB" unicode="&#x1eab;" horiz-adv-x="673" 
d="M302 797q18 0 30.5 -7t24 -15t23 -15t26.5 -7q14 0 25 10.5t14 31.5h34q-5 -38 -25 -59t-50 -21q-18 0 -31.5 7t-25 15t-22 15t-24.5 7q-33 0 -39 -43h-33q11 81 73 81zM337 661l-107 -63l-17 30l124 76l123 -76l-15 -31zM306 553q86 0 143.5 -44t78.5 -113v150h69v-546
h-69v150q-21 -69 -78.5 -113t-143.5 -44q-56 0 -103 19.5t-81 55.5t-53 88t-19 117q0 66 19 118t53 88t81 55t103 19zM324 491q-46 0 -83.5 -15t-64 -43t-41 -68.5t-14.5 -91.5t14.5 -91.5t41 -68.5t64 -43t83.5 -15q44 0 81.5 15.5t64.5 44t42.5 69t15.5 89.5
q0 50 -15.5 90t-42.5 68.5t-64.5 44t-81.5 15.5z" />
    <glyph glyph-name="uni1EAC" unicode="&#x1eac;" 
d="M213 758l-17 31l127 78l126 -78l-16 -32l-110 66zM546 0l-63 172h-321l-64 -172h-75l260 689h79l260 -689h-76zM462 228l-139 380l-141 -380h280zM323 -76q18 0 31 -12.5t13 -31.5q0 -18 -13 -31t-31 -13t-31 13t-13 31q0 19 13 31.5t31 12.5z" />
    <glyph glyph-name="uni1EAD" unicode="&#x1ead;" horiz-adv-x="673" 
d="M337 664l-110 -65l-17 31l127 78l126 -78l-16 -32zM306 553q86 0 143.5 -44t78.5 -113v150h69v-546h-69v150q-21 -69 -78.5 -113t-143.5 -44q-56 0 -103 19.5t-81 55.5t-53 88t-19 117q0 66 19 118t53 88t81 55t103 19zM324 491q-46 0 -83.5 -15t-64 -43t-41 -68.5
t-14.5 -91.5t14.5 -91.5t41 -68.5t64 -43t83.5 -15q44 0 81.5 15.5t64.5 44t42.5 69t15.5 89.5q0 50 -15.5 90t-42.5 68.5t-64.5 44t-81.5 15.5zM293 -120q0 19 13 31.5t31 12.5t31 -12.5t13 -31.5q0 -18 -13 -31t-31 -13t-31 13t-13 31z" />
    <glyph glyph-name="uni1EAE" unicode="&#x1eae;" 
d="M312 915l-16 28l156 97l18 -40zM323 769q-31 0 -54.5 9.5t-39 25.5t-23 37.5t-7.5 44.5v7h35q0 -38 22.5 -58.5t66.5 -20.5q45 0 67 20.5t22 58.5h35v-7q0 -23 -7.5 -44.5t-23 -37.5t-38.5 -25.5t-55 -9.5zM483 172h-321l-64 -172h-75l260 689h79l260 -689h-76zM462 228
l-139 380l-141 -380h280z" />
    <glyph glyph-name="uni1EAF" unicode="&#x1eaf;" horiz-adv-x="673" 
d="M484 841l-158 -85l-16 28l156 97zM337 610q-31 0 -54.5 9.5t-39 25.5t-23 37.5t-7.5 44.5v7h35q0 -38 22.5 -58.5t66.5 -20.5q45 0 67 20.5t22 58.5h35v-7q0 -23 -7.5 -44.5t-23 -37.5t-38.5 -25.5t-55 -9.5zM306 553q86 0 143.5 -44t78.5 -113v150h69v-546h-69v150
q-21 -69 -78.5 -113t-143.5 -44q-56 0 -103 19.5t-81 55.5t-53 88t-19 117q0 66 19 118t53 88t81 55t103 19zM324 491q-46 0 -83.5 -15t-64 -43t-41 -68.5t-14.5 -91.5t14.5 -91.5t41 -68.5t64 -43t83.5 -15q44 0 81.5 15.5t64.5 44t42.5 69t15.5 89.5q0 50 -15.5 90
t-42.5 68.5t-64.5 44t-81.5 15.5z" />
    <glyph glyph-name="uni1EB0" unicode="&#x1eb0;" 
d="M346 903l-149 95l22 38l143 -104zM234 893q0 -38 22.5 -58.5t66.5 -20.5q45 0 67 20.5t22 58.5h35v-7q0 -23 -7.5 -44.5t-23 -37.5t-38.5 -25.5t-55 -9.5q-31 0 -54.5 9.5t-39 25.5t-23 37.5t-7.5 44.5v7h35zM483 172h-321l-64 -172h-75l260 689h79l260 -689h-76z
M462 228l-139 380l-141 -380h280z" />
    <glyph glyph-name="uni1EB1" unicode="&#x1eb1;" horiz-adv-x="673" 
d="M376 773l-16 -29l-149 95l22 38zM337 610q-31 0 -54.5 9.5t-39 25.5t-23 37.5t-7.5 44.5v7h35q0 -38 22.5 -58.5t66.5 -20.5q45 0 67 20.5t22 58.5h35v-7q0 -23 -7.5 -44.5t-23 -37.5t-38.5 -25.5t-55 -9.5zM306 553q86 0 143.5 -44t78.5 -113v150h69v-546h-69v150
q-21 -69 -78.5 -113t-143.5 -44q-56 0 -103 19.5t-81 55.5t-53 88t-19 117q0 66 19 118t53 88t81 55t103 19zM324 491q-46 0 -83.5 -15t-64 -43t-41 -68.5t-14.5 -91.5t14.5 -91.5t41 -68.5t64 -43t83.5 -15q44 0 81.5 15.5t64.5 44t42.5 69t15.5 89.5q0 50 -15.5 90
t-42.5 68.5t-64.5 44t-81.5 15.5z" />
    <glyph glyph-name="uni1EB2" unicode="&#x1eb2;" 
d="M314 1028q-23 0 -31 -12t-12 -34l-35 2q2 13 5 27t11.5 25.5t23 19t39.5 7.5q41 0 59.5 -20t18.5 -55q0 -28 -18.5 -48.5t-48.5 -50.5l-24 22q23 23 38.5 40t15.5 37q0 23 -10.5 31.5t-31.5 8.5zM323 769q-31 0 -54.5 9.5t-39 25.5t-23 37.5t-7.5 44.5v7h35
q0 -38 22.5 -58.5t66.5 -20.5q45 0 67 20.5t22 58.5h35v-7q0 -23 -7.5 -44.5t-23 -37.5t-38.5 -25.5t-55 -9.5zM483 172h-321l-64 -172h-75l260 689h79l260 -689h-76zM462 228l-139 380l-141 -380h280z" />
    <glyph glyph-name="uni1EB3" unicode="&#x1eb3;" horiz-adv-x="673" 
d="M329 904q41 0 59.5 -20t18.5 -55q0 -28 -18.5 -48.5t-48.5 -50.5l-24 22q23 23 38.5 40t15.5 37q0 23 -10.5 31.5t-31.5 8.5q-23 0 -31 -12t-12 -34l-35 2q2 13 5 27t11.5 25.5t23 19t39.5 7.5zM337 610q-31 0 -54.5 9.5t-39 25.5t-23 37.5t-7.5 44.5v7h35
q0 -38 22.5 -58.5t66.5 -20.5q45 0 67 20.5t22 58.5h35v-7q0 -23 -7.5 -44.5t-23 -37.5t-38.5 -25.5t-55 -9.5zM306 553q86 0 143.5 -44t78.5 -113v150h69v-546h-69v150q-21 -69 -78.5 -113t-143.5 -44q-56 0 -103 19.5t-81 55.5t-53 88t-19 117q0 66 19 118t53 88t81 55
t103 19zM324 491q-46 0 -83.5 -15t-64 -43t-41 -68.5t-14.5 -91.5t14.5 -91.5t41 -68.5t64 -43t83.5 -15q44 0 81.5 15.5t64.5 44t42.5 69t15.5 89.5q0 50 -15.5 90t-42.5 68.5t-64.5 44t-81.5 15.5z" />
    <glyph glyph-name="uni1EB4" unicode="&#x1eb4;" 
d="M273 970q-34 0 -40 -45h-35q12 84 76 84q19 0 32.5 -7t25 -16t23.5 -16t28 -7q15 0 26.5 11t14.5 33h35q-5 -39 -25.5 -61t-52.5 -22q-19 0 -33 7t-26 16t-23.5 16t-25.5 7zM323 814q45 0 67 20.5t22 58.5h35v-7q0 -23 -7.5 -44.5t-23 -37.5t-38.5 -25.5t-55 -9.5
q-31 0 -54.5 9.5t-39 25.5t-23 37.5t-7.5 44.5v7h35q0 -38 22.5 -58.5t66.5 -20.5zM483 172h-321l-64 -172h-75l260 689h79l260 -689h-76zM462 228l-139 380l-141 -380h280z" />
    <glyph glyph-name="uni1EB5" unicode="&#x1eb5;" horiz-adv-x="673" 
d="M288 850q19 0 32.5 -7t25 -16t23.5 -16t28 -7q15 0 26.5 11t14.5 33h35q-5 -39 -25.5 -61t-52.5 -22q-19 0 -33 7t-26 16t-23.5 16t-25.5 7q-34 0 -40 -45h-35q12 84 76 84zM337 610q-31 0 -54.5 9.5t-39 25.5t-23 37.5t-7.5 44.5v7h35q0 -38 22.5 -58.5t66.5 -20.5
q45 0 67 20.5t22 58.5h35v-7q0 -23 -7.5 -44.5t-23 -37.5t-38.5 -25.5t-55 -9.5zM306 553q86 0 143.5 -44t78.5 -113v150h69v-546h-69v150q-21 -69 -78.5 -113t-143.5 -44q-56 0 -103 19.5t-81 55.5t-53 88t-19 117q0 66 19 118t53 88t81 55t103 19zM324 491
q-46 0 -83.5 -15t-64 -43t-41 -68.5t-14.5 -91.5t14.5 -91.5t41 -68.5t64 -43t83.5 -15q44 0 81.5 15.5t64.5 44t42.5 69t15.5 89.5q0 50 -15.5 90t-42.5 68.5t-64.5 44t-81.5 15.5z" />
    <glyph glyph-name="uni1EB6" unicode="&#x1eb6;" 
d="M323 771q-32 0 -56 10t-39.5 26.5t-23.5 38t-8 45.5v7h36q0 -38 23 -59.5t68 -21.5t68 21.5t23 59.5h36v-7q0 -24 -7.5 -45.5t-23.5 -38t-40 -26.5t-56 -10zM546 0l-63 172h-321l-64 -172h-75l260 689h79l260 -689h-76zM462 228l-139 380l-141 -380h280zM323 -76
q18 0 31 -12.5t13 -31.5q0 -18 -13 -31t-31 -13t-31 13t-13 31q0 19 13 31.5t31 12.5z" />
    <glyph glyph-name="uni1EB7" unicode="&#x1eb7;" horiz-adv-x="673" 
d="M337 612q-32 0 -56 10t-39.5 26.5t-23.5 38t-8 45.5v7h36q0 -38 23 -59.5t68 -21.5t68 21.5t23 59.5h36v-7q0 -24 -7.5 -45.5t-23.5 -38t-40 -26.5t-56 -10zM306 553q86 0 143.5 -44t78.5 -113v150h69v-546h-69v150q-21 -69 -78.5 -113t-143.5 -44q-56 0 -103 19.5
t-81 55.5t-53 88t-19 117q0 66 19 118t53 88t81 55t103 19zM324 491q-46 0 -83.5 -15t-64 -43t-41 -68.5t-14.5 -91.5t14.5 -91.5t41 -68.5t64 -43t83.5 -15q44 0 81.5 15.5t64.5 44t42.5 69t15.5 89.5q0 50 -15.5 90t-42.5 68.5t-64.5 44t-81.5 15.5zM293 -120
q0 19 13 31.5t31 12.5t31 -12.5t13 -31.5q0 -18 -13 -31t-31 -13t-31 13t-13 31z" />
    <glyph glyph-name="uni1EB8" unicode="&#x1eb8;" horiz-adv-x="498" 
d="M147 648v-266h275v-55h-275v-269h305v-58h-376v705h376v-57h-305zM206 -120q0 19 13 31.5t31 12.5t31 -12.5t13 -31.5q0 -18 -13 -31t-31 -13t-31 13t-13 31z" />
    <glyph glyph-name="uni1EB9" unicode="&#x1eb9;" horiz-adv-x="625" 
d="M314 51q74 0 123.5 37t60.5 100h74q-7 -42 -28 -78t-54 -62t-76.5 -40.5t-96.5 -14.5q-58 0 -107 19t-84.5 55t-55.5 88t-20 118t20 118t55.5 88t84.5 55t107 19q62 0 110 -20t81 -54t50 -78.5t17 -92.5q0 -17 -1 -27.5t-3 -23.5h-452q1 -54 18 -93t44 -64t61.5 -37
t71.5 -12zM317 496q-38 0 -73 -12t-62.5 -36.5t-44 -63t-18.5 -91.5h386q3 53 -12 91.5t-42 63.5t-62 36.5t-72 11.5zM313 -76q18 0 31 -12.5t13 -31.5q0 -18 -13 -31t-31 -13t-31 13t-13 31q0 19 13 31.5t31 12.5z" />
    <glyph glyph-name="uni1EBA" unicode="&#x1eba;" horiz-adv-x="498" 
d="M247 946q42 0 61 -20.5t19 -56.5q0 -29 -19 -49.5t-50 -51.5l-24 22q23 23 39 41t16 38q0 23 -10.5 32t-32.5 9q-24 0 -32 -12t-12 -35l-36 2q2 14 5 28t11.5 26t24 19.5t40.5 7.5zM147 648v-266h275v-55h-275v-269h305v-58h-376v705h376v-57h-305z" />
    <glyph glyph-name="uni1EBB" unicode="&#x1ebb;" horiz-adv-x="625" 
d="M309 751q-24 0 -32 -12t-12 -35l-36 2q2 14 5 28t11.5 26t24 19.5t40.5 7.5q42 0 61 -20.5t19 -56.5q0 -29 -19 -49.5t-50 -51.5l-24 22q23 23 39 41t16 38q0 23 -10.5 32t-32.5 9zM314 51q74 0 123.5 37t60.5 100h74q-7 -42 -28 -78t-54 -62t-76.5 -40.5t-96.5 -14.5
q-58 0 -107 19t-84.5 55t-55.5 88t-20 118t20 118t55.5 88t84.5 55t107 19q62 0 110 -20t81 -54t50 -78.5t17 -92.5q0 -17 -1 -27.5t-3 -23.5h-452q1 -54 18 -93t44 -64t61.5 -37t71.5 -12zM317 496q-38 0 -73 -12t-62.5 -36.5t-44 -63t-18.5 -91.5h386q3 53 -12 91.5
t-42 63.5t-62 36.5t-72 11.5z" />
    <glyph glyph-name="uni1EBC" unicode="&#x1ebc;" horiz-adv-x="498" 
d="M194 851q19 0 33 -7.5t26 -16t24 -16t28 -7.5t27.5 11t14.5 34h36q-5 -41 -26.5 -63t-53.5 -22q-19 0 -33.5 7.5t-26.5 16t-23.5 16t-26.5 7.5q-35 0 -41 -46h-36q6 43 26 64.5t52 21.5zM147 648v-266h275v-55h-275v-269h305v-58h-376v705h376v-57h-305z" />
    <glyph glyph-name="uni1EBD" unicode="&#x1ebd;" horiz-adv-x="625" 
d="M256 652q-35 0 -41 -46h-36q6 43 26 64.5t52 21.5q19 0 33 -7.5t26 -16t24 -16t28 -7.5t27.5 11t14.5 34h36q-5 -41 -26.5 -63t-53.5 -22q-19 0 -33.5 7.5t-26.5 16t-23.5 16t-26.5 7.5zM314 51q74 0 123.5 37t60.5 100h74q-7 -42 -28 -78t-54 -62t-76.5 -40.5
t-96.5 -14.5q-58 0 -107 19t-84.5 55t-55.5 88t-20 118t20 118t55.5 88t84.5 55t107 19q62 0 110 -20t81 -54t50 -78.5t17 -92.5q0 -17 -1 -27.5t-3 -23.5h-452q1 -54 18 -93t44 -64t61.5 -37t71.5 -12zM317 496q-38 0 -73 -12t-62.5 -36.5t-44 -63t-18.5 -91.5h386
q3 53 -12 91.5t-42 63.5t-62 36.5t-72 11.5z" />
    <glyph glyph-name="uni1EBE" unicode="&#x1ebe;" horiz-adv-x="498" 
d="M347 952l-158 -85l-16 28l156 97zM250 820l-107 -63l-17 30l124 76l123 -76l-15 -31zM147 648v-266h275v-55h-275v-269h305v-58h-376v705h376v-57h-305z" />
    <glyph glyph-name="uni1EBF" unicode="&#x1ebf;" horiz-adv-x="625" 
d="M252 708l-16 28l156 97l18 -40zM206 598l-17 30l124 76l123 -76l-15 -31l-108 64zM314 51q74 0 123.5 37t60.5 100h74q-7 -42 -28 -78t-54 -62t-76.5 -40.5t-96.5 -14.5q-58 0 -107 19t-84.5 55t-55.5 88t-20 118t20 118t55.5 88t84.5 55t107 19q62 0 110 -20t81 -54
t50 -78.5t17 -92.5q0 -17 -1 -27.5t-3 -23.5h-452q1 -54 18 -93t44 -64t61.5 -37t71.5 -12zM317 496q-38 0 -73 -12t-62.5 -36.5t-44 -63t-18.5 -91.5h386q3 53 -12 91.5t-42 63.5t-62 36.5t-72 11.5z" />
    <glyph glyph-name="uni1EC0" unicode="&#x1ec0;" horiz-adv-x="498" 
d="M390 877l-16 -29l-149 95l22 38zM250 820l-107 -63l-17 30l124 76l123 -76l-15 -31zM147 648v-266h275v-55h-275v-269h305v-58h-376v705h376v-57h-305z" />
    <glyph glyph-name="uni1EC1" unicode="&#x1ec1;" horiz-adv-x="625" 
d="M437 689l-149 95l22 38l143 -104zM206 598l-17 30l124 76l123 -76l-15 -31l-108 64zM314 51q74 0 123.5 37t60.5 100h74q-7 -42 -28 -78t-54 -62t-76.5 -40.5t-96.5 -14.5q-58 0 -107 19t-84.5 55t-55.5 88t-20 118t20 118t55.5 88t84.5 55t107 19q62 0 110 -20t81 -54
t50 -78.5t17 -92.5q0 -17 -1 -27.5t-3 -23.5h-452q1 -54 18 -93t44 -64t61.5 -37t71.5 -12zM317 496q-38 0 -73 -12t-62.5 -36.5t-44 -63t-18.5 -91.5h386q3 53 -12 91.5t-42 63.5t-62 36.5t-72 11.5z" />
    <glyph glyph-name="uni1EC2" unicode="&#x1ec2;" horiz-adv-x="498" 
d="M394 984q41 0 59.5 -20t18.5 -55q0 -28 -18.5 -48.5t-48.5 -50.5l-24 22q23 23 38.5 40t15.5 37q0 23 -10.5 31.5t-31.5 8.5q-23 0 -31 -12t-12 -34l-35 2q2 13 5 27t11.5 25.5t23 19t39.5 7.5zM250 820l-107 -63l-17 30l124 76l123 -76l-15 -31zM147 648v-266h275v-55
h-275v-269h305v-58h-376v705h376v-57h-305z" />
    <glyph glyph-name="uni1EC3" unicode="&#x1ec3;" horiz-adv-x="625" 
d="M456 790q-23 0 -31 -12t-12 -34l-35 2q2 13 5 27t11.5 25.5t23 19t39.5 7.5q41 0 59.5 -20t18.5 -55q0 -28 -18.5 -48.5t-48.5 -50.5l-24 22q23 23 38.5 40t15.5 37q0 23 -10.5 31.5t-31.5 8.5zM206 598l-17 30l124 76l123 -76l-15 -31l-108 64zM314 51q74 0 123.5 37
t60.5 100h74q-7 -42 -28 -78t-54 -62t-76.5 -40.5t-96.5 -14.5q-58 0 -107 19t-84.5 55t-55.5 88t-20 118t20 118t55.5 88t84.5 55t107 19q62 0 110 -20t81 -54t50 -78.5t17 -92.5q0 -17 -1 -27.5t-3 -23.5h-452q1 -54 18 -93t44 -64t61.5 -37t71.5 -12zM317 496
q-38 0 -73 -12t-62.5 -36.5t-44 -63t-18.5 -91.5h386q3 53 -12 91.5t-42 63.5t-62 36.5t-72 11.5z" />
    <glyph glyph-name="uni1EC4" unicode="&#x1ec4;" horiz-adv-x="498" 
d="M215 956q18 0 30.5 -7t24 -15t23 -15t26.5 -7q14 0 25 10.5t14 31.5h34q-5 -38 -25 -59t-50 -21q-18 0 -31.5 7t-25 15t-22 15t-24.5 7q-33 0 -39 -43h-33q11 81 73 81zM250 820l-107 -63l-17 30l124 76l123 -76l-15 -31zM147 648v-266h275v-55h-275v-269h305v-58h-376
v705h376v-57h-305z" />
    <glyph glyph-name="uni1EC5" unicode="&#x1ec5;" horiz-adv-x="625" 
d="M277 759q-33 0 -39 -43h-33q11 81 73 81q18 0 30.5 -7t24 -15t23 -15t26.5 -7q14 0 25 10.5t14 31.5h34q-5 -38 -25 -59t-50 -21q-18 0 -31.5 7t-25 15t-22 15t-24.5 7zM206 598l-17 30l124 76l123 -76l-15 -31l-108 64zM314 51q74 0 123.5 37t60.5 100h74
q-7 -42 -28 -78t-54 -62t-76.5 -40.5t-96.5 -14.5q-58 0 -107 19t-84.5 55t-55.5 88t-20 118t20 118t55.5 88t84.5 55t107 19q62 0 110 -20t81 -54t50 -78.5t17 -92.5q0 -17 -1 -27.5t-3 -23.5h-452q1 -54 18 -93t44 -64t61.5 -37t71.5 -12zM317 496q-38 0 -73 -12
t-62.5 -36.5t-44 -63t-18.5 -91.5h386q3 53 -12 91.5t-42 63.5t-62 36.5t-72 11.5z" />
    <glyph glyph-name="uni1EC6" unicode="&#x1ec6;" horiz-adv-x="498" 
d="M250 823l-110 -65l-17 31l127 78l126 -78l-16 -32zM147 648v-266h275v-55h-275v-269h305v-58h-376v705h376v-57h-305zM206 -120q0 19 13 31.5t31 12.5t31 -12.5t13 -31.5q0 -18 -13 -31t-31 -13t-31 13t-13 31z" />
    <glyph glyph-name="uni1EC7" unicode="&#x1ec7;" horiz-adv-x="625" 
d="M203 599l-17 31l127 78l126 -78l-16 -32l-110 66zM314 51q74 0 123.5 37t60.5 100h74q-7 -42 -28 -78t-54 -62t-76.5 -40.5t-96.5 -14.5q-58 0 -107 19t-84.5 55t-55.5 88t-20 118t20 118t55.5 88t84.5 55t107 19q62 0 110 -20t81 -54t50 -78.5t17 -92.5q0 -17 -1 -27.5
t-3 -23.5h-452q1 -54 18 -93t44 -64t61.5 -37t71.5 -12zM317 496q-38 0 -73 -12t-62.5 -36.5t-44 -63t-18.5 -91.5h386q3 53 -12 91.5t-42 63.5t-62 36.5t-72 11.5zM313 -76q18 0 31 -12.5t13 -31.5q0 -18 -13 -31t-31 -13t-31 13t-13 31q0 19 13 31.5t31 12.5z" />
    <glyph glyph-name="uni1EC8" unicode="&#x1ec8;" horiz-adv-x="223" 
d="M109 946q42 0 61 -20.5t19 -56.5q0 -29 -19 -49.5t-50 -51.5l-24 22q23 23 39 41t16 38q0 23 -10.5 32t-32.5 9q-24 0 -32 -12t-12 -35l-36 2q2 14 5 28t11.5 26t24 19.5t40.5 7.5zM147 705v-705h-71v705h71z" />
    <glyph glyph-name="uni1EC9" unicode="&#x1ec9;" horiz-adv-x="236" 
d="M115 787q42 0 61 -20.5t19 -56.5q0 -29 -19 -49.5t-50 -51.5l-24 22q23 23 39 41t16 38q0 23 -10.5 32t-32.5 9q-24 0 -32 -12t-12 -35l-36 2q2 14 5 28t11.5 26t24 19.5t40.5 7.5zM153 546v-546h-70v546h70z" />
    <glyph glyph-name="uni1ECA" unicode="&#x1eca;" horiz-adv-x="223" 
d="M147 705v-705h-71v705h71zM68 -120q0 19 13 31.5t31 12.5t31 -12.5t13 -31.5q0 -18 -13 -31t-31 -13t-31 13t-13 31z" />
    <glyph glyph-name="uni1ECB" unicode="&#x1ecb;" horiz-adv-x="223" 
d="M60 708q0 22 14.5 35t37.5 13t37 -13t14 -35q0 -21 -14 -34t-37 -13t-37.5 13t-14.5 34zM147 546v-546h-71v546h71zM68 -120q0 19 13 31.5t31 12.5t31 -12.5t13 -31.5q0 -18 -13 -31t-31 -13t-31 13t-13 31z" />
    <glyph glyph-name="uni1ECC" unicode="&#x1ecc;" horiz-adv-x="791" 
d="M396 713q74 0 137 -26.5t108.5 -74.5t71.5 -114t26 -145t-26 -145.5t-71.5 -114.5t-108.5 -74.5t-137 -26.5t-137 26.5t-108.5 74.5t-71.5 114.5t-26 145.5t26 145t71.5 114t108.5 74.5t137 26.5zM396 648q-58 0 -107.5 -20.5t-86 -58.5t-57 -92.5t-20.5 -123.5
t20.5 -123.5t57 -92.5t86 -58.5t107.5 -20.5q57 0 106.5 20.5t86 58.5t57.5 92.5t21 123.5t-21 123.5t-57.5 92.5t-86 58.5t-106.5 20.5zM352 -120q0 19 13 31.5t31 12.5t31 -12.5t13 -31.5q0 -18 -13 -31t-31 -13t-31 13t-13 31z" />
    <glyph glyph-name="uni1ECD" unicode="&#x1ecd;" 
d="M323 553q58 0 107.5 -19t86 -55t57 -88t20.5 -118t-20.5 -118t-57 -88t-86 -55t-107.5 -19t-108 19t-86.5 55t-57.5 88t-21 118t21 118t57.5 88t86.5 55t108 19zM323 492q-39 0 -75 -13t-64.5 -40t-45.5 -68t-17 -98t17 -98t45.5 -67.5t64.5 -39.5t75 -13q38 0 74 13
t64 39.5t45 67.5t17 98t-17 98t-45 68t-64 40t-74 13zM279 -120q0 19 13 31.5t31 12.5t31 -12.5t13 -31.5q0 -18 -13 -31t-31 -13t-31 13t-13 31z" />
    <glyph glyph-name="uni1ECE" unicode="&#x1ece;" horiz-adv-x="791" 
d="M393 946q42 0 61 -20.5t19 -56.5q0 -29 -19 -49.5t-50 -51.5l-24 22q23 23 39 41t16 38q0 23 -10.5 32t-32.5 9q-24 0 -32 -12t-12 -35l-36 2q2 14 5 28t11.5 26t24 19.5t40.5 7.5zM396 713q74 0 137 -26.5t108.5 -74.5t71.5 -114t26 -145t-26 -145.5t-71.5 -114.5
t-108.5 -74.5t-137 -26.5t-137 26.5t-108.5 74.5t-71.5 114.5t-26 145.5t26 145t71.5 114t108.5 74.5t137 26.5zM396 648q-58 0 -107.5 -20.5t-86 -58.5t-57 -92.5t-20.5 -123.5t20.5 -123.5t57 -92.5t86 -58.5t107.5 -20.5q57 0 106.5 20.5t86 58.5t57.5 92.5t21 123.5
t-21 123.5t-57.5 92.5t-86 58.5t-106.5 20.5z" />
    <glyph glyph-name="uni1ECF" unicode="&#x1ecf;" 
d="M320 787q42 0 61 -20.5t19 -56.5q0 -29 -19 -49.5t-50 -51.5l-24 22q23 23 39 41t16 38q0 23 -10.5 32t-32.5 9q-24 0 -32 -12t-12 -35l-36 2q2 14 5 28t11.5 26t24 19.5t40.5 7.5zM323 553q58 0 107.5 -19t86 -55t57 -88t20.5 -118t-20.5 -118t-57 -88t-86 -55
t-107.5 -19t-108 19t-86.5 55t-57.5 88t-21 118t21 118t57.5 88t86.5 55t108 19zM323 492q-39 0 -75 -13t-64.5 -40t-45.5 -68t-17 -98t17 -98t45.5 -67.5t64.5 -39.5t75 -13q38 0 74 13t64 39.5t45 67.5t17 98t-17 98t-45 68t-64 40t-74 13z" />
    <glyph glyph-name="uni1ED0" unicode="&#x1ed0;" horiz-adv-x="791" 
d="M493 952l-158 -85l-16 28l156 97zM396 820l-107 -63l-17 30l124 76l123 -76l-15 -31zM396 713q74 0 137 -26.5t108.5 -74.5t71.5 -114t26 -145t-26 -145.5t-71.5 -114.5t-108.5 -74.5t-137 -26.5t-137 26.5t-108.5 74.5t-71.5 114.5t-26 145.5t26 145t71.5 114
t108.5 74.5t137 26.5zM396 648q-58 0 -107.5 -20.5t-86 -58.5t-57 -92.5t-20.5 -123.5t20.5 -123.5t57 -92.5t86 -58.5t107.5 -20.5q57 0 106.5 20.5t86 58.5t57.5 92.5t21 123.5t-21 123.5t-57.5 92.5t-86 58.5t-106.5 20.5z" />
    <glyph glyph-name="uni1ED1" unicode="&#x1ed1;" 
d="M420 793l-158 -85l-16 28l156 97zM323 661l-107 -63l-17 30l124 76l123 -76l-15 -31zM323 553q58 0 107.5 -19t86 -55t57 -88t20.5 -118t-20.5 -118t-57 -88t-86 -55t-107.5 -19t-108 19t-86.5 55t-57.5 88t-21 118t21 118t57.5 88t86.5 55t108 19zM323 492
q-39 0 -75 -13t-64.5 -40t-45.5 -68t-17 -98t17 -98t45.5 -67.5t64.5 -39.5t75 -13q38 0 74 13t64 39.5t45 67.5t17 98t-17 98t-45 68t-64 40t-74 13z" />
    <glyph glyph-name="uni1ED2" unicode="&#x1ed2;" horiz-adv-x="791" 
d="M536 877l-16 -29l-149 95l22 38zM396 820l-107 -63l-17 30l124 76l123 -76l-15 -31zM396 713q74 0 137 -26.5t108.5 -74.5t71.5 -114t26 -145t-26 -145.5t-71.5 -114.5t-108.5 -74.5t-137 -26.5t-137 26.5t-108.5 74.5t-71.5 114.5t-26 145.5t26 145t71.5 114t108.5 74.5
t137 26.5zM396 648q-58 0 -107.5 -20.5t-86 -58.5t-57 -92.5t-20.5 -123.5t20.5 -123.5t57 -92.5t86 -58.5t107.5 -20.5q57 0 106.5 20.5t86 58.5t57.5 92.5t21 123.5t-21 123.5t-57.5 92.5t-86 58.5t-106.5 20.5z" />
    <glyph glyph-name="uni1ED3" unicode="&#x1ed3;" 
d="M463 718l-16 -29l-149 95l22 38zM323 661l-107 -63l-17 30l124 76l123 -76l-15 -31zM323 553q58 0 107.5 -19t86 -55t57 -88t20.5 -118t-20.5 -118t-57 -88t-86 -55t-107.5 -19t-108 19t-86.5 55t-57.5 88t-21 118t21 118t57.5 88t86.5 55t108 19zM323 492q-39 0 -75 -13
t-64.5 -40t-45.5 -68t-17 -98t17 -98t45.5 -67.5t64.5 -39.5t75 -13q38 0 74 13t64 39.5t45 67.5t17 98t-17 98t-45 68t-64 40t-74 13z" />
    <glyph glyph-name="uni1ED4" unicode="&#x1ed4;" horiz-adv-x="791" 
d="M540 984q41 0 59.5 -20t18.5 -55q0 -28 -18.5 -48.5t-48.5 -50.5l-24 22q23 23 38.5 40t15.5 37q0 23 -10.5 31.5t-31.5 8.5q-23 0 -31 -12t-12 -34l-35 2q2 13 5 27t11.5 25.5t23 19t39.5 7.5zM396 820l-107 -63l-17 30l124 76l123 -76l-15 -31zM396 713q74 0 137 -26.5
t108.5 -74.5t71.5 -114t26 -145t-26 -145.5t-71.5 -114.5t-108.5 -74.5t-137 -26.5t-137 26.5t-108.5 74.5t-71.5 114.5t-26 145.5t26 145t71.5 114t108.5 74.5t137 26.5zM396 648q-58 0 -107.5 -20.5t-86 -58.5t-57 -92.5t-20.5 -123.5t20.5 -123.5t57 -92.5t86 -58.5
t107.5 -20.5q57 0 106.5 20.5t86 58.5t57.5 92.5t21 123.5t-21 123.5t-57.5 92.5t-86 58.5t-106.5 20.5z" />
    <glyph glyph-name="uni1ED5" unicode="&#x1ed5;" 
d="M467 825q41 0 59.5 -20t18.5 -55q0 -28 -18.5 -48.5t-48.5 -50.5l-24 22q23 23 38.5 40t15.5 37q0 23 -10.5 31.5t-31.5 8.5q-23 0 -31 -12t-12 -34l-35 2q2 13 5 27t11.5 25.5t23 19t39.5 7.5zM323 661l-107 -63l-17 30l124 76l123 -76l-15 -31zM323 553q58 0 107.5 -19
t86 -55t57 -88t20.5 -118t-20.5 -118t-57 -88t-86 -55t-107.5 -19t-108 19t-86.5 55t-57.5 88t-21 118t21 118t57.5 88t86.5 55t108 19zM323 492q-39 0 -75 -13t-64.5 -40t-45.5 -68t-17 -98t17 -98t45.5 -67.5t64.5 -39.5t75 -13q38 0 74 13t64 39.5t45 67.5t17 98t-17 98
t-45 68t-64 40t-74 13z" />
    <glyph glyph-name="uni1ED6" unicode="&#x1ed6;" horiz-adv-x="791" 
d="M361 956q18 0 30.5 -7t24 -15t23 -15t26.5 -7q14 0 25 10.5t14 31.5h34q-5 -38 -25 -59t-50 -21q-18 0 -31.5 7t-25 15t-22 15t-24.5 7q-33 0 -39 -43h-33q11 81 73 81zM396 820l-107 -63l-17 30l124 76l123 -76l-15 -31zM396 713q74 0 137 -26.5t108.5 -74.5t71.5 -114
t26 -145t-26 -145.5t-71.5 -114.5t-108.5 -74.5t-137 -26.5t-137 26.5t-108.5 74.5t-71.5 114.5t-26 145.5t26 145t71.5 114t108.5 74.5t137 26.5zM396 648q-58 0 -107.5 -20.5t-86 -58.5t-57 -92.5t-20.5 -123.5t20.5 -123.5t57 -92.5t86 -58.5t107.5 -20.5
q57 0 106.5 20.5t86 58.5t57.5 92.5t21 123.5t-21 123.5t-57.5 92.5t-86 58.5t-106.5 20.5z" />
    <glyph glyph-name="uni1ED7" unicode="&#x1ed7;" 
d="M288 797q18 0 30.5 -7t24 -15t23 -15t26.5 -7q14 0 25 10.5t14 31.5h34q-5 -38 -25 -59t-50 -21q-18 0 -31.5 7t-25 15t-22 15t-24.5 7q-33 0 -39 -43h-33q11 81 73 81zM323 661l-107 -63l-17 30l124 76l123 -76l-15 -31zM323 553q58 0 107.5 -19t86 -55t57 -88
t20.5 -118t-20.5 -118t-57 -88t-86 -55t-107.5 -19t-108 19t-86.5 55t-57.5 88t-21 118t21 118t57.5 88t86.5 55t108 19zM323 492q-39 0 -75 -13t-64.5 -40t-45.5 -68t-17 -98t17 -98t45.5 -67.5t64.5 -39.5t75 -13q38 0 74 13t64 39.5t45 67.5t17 98t-17 98t-45 68t-64 40
t-74 13z" />
    <glyph glyph-name="uni1ED8" unicode="&#x1ed8;" horiz-adv-x="791" 
d="M396 823l-110 -65l-17 31l127 78l126 -78l-16 -32zM396 713q74 0 137 -26.5t108.5 -74.5t71.5 -114t26 -145t-26 -145.5t-71.5 -114.5t-108.5 -74.5t-137 -26.5t-137 26.5t-108.5 74.5t-71.5 114.5t-26 145.5t26 145t71.5 114t108.5 74.5t137 26.5zM396 648
q-58 0 -107.5 -20.5t-86 -58.5t-57 -92.5t-20.5 -123.5t20.5 -123.5t57 -92.5t86 -58.5t107.5 -20.5q57 0 106.5 20.5t86 58.5t57.5 92.5t21 123.5t-21 123.5t-57.5 92.5t-86 58.5t-106.5 20.5zM352 -120q0 19 13 31.5t31 12.5t31 -12.5t13 -31.5q0 -18 -13 -31t-31 -13
t-31 13t-13 31z" />
    <glyph glyph-name="uni1ED9" unicode="&#x1ed9;" 
d="M323 664l-110 -65l-17 31l127 78l126 -78l-16 -32zM323 553q58 0 107.5 -19t86 -55t57 -88t20.5 -118t-20.5 -118t-57 -88t-86 -55t-107.5 -19t-108 19t-86.5 55t-57.5 88t-21 118t21 118t57.5 88t86.5 55t108 19zM323 492q-39 0 -75 -13t-64.5 -40t-45.5 -68t-17 -98
t17 -98t45.5 -67.5t64.5 -39.5t75 -13q38 0 74 13t64 39.5t45 67.5t17 98t-17 98t-45 68t-64 40t-74 13zM279 -120q0 19 13 31.5t31 12.5t31 -12.5t13 -31.5q0 -18 -13 -31t-31 -13t-31 13t-13 31z" />
    <glyph glyph-name="uni1EDA" unicode="&#x1eda;" horiz-adv-x="791" 
d="M332 757l-16 28l159 99l19 -40zM555 676q85 -43 134.5 -127t49.5 -196q0 -79 -26 -145.5t-71.5 -114.5t-108.5 -74.5t-137 -26.5t-137 26.5t-108.5 74.5t-71.5 114.5t-26 145.5t26 145t71.5 114t108.5 74.5t137 26.5q38 0 76 -8q45 2 72.5 28t27.5 88h53q0 -55 -19 -90.5
t-51 -54.5zM396 58q57 0 106.5 20.5t86 58.5t57.5 92.5t21 123.5t-21 123.5t-57.5 92.5t-86 58.5t-106.5 20.5q-58 0 -107.5 -20.5t-86 -58.5t-57 -92.5t-20.5 -123.5t20.5 -123.5t57 -92.5t86 -58.5t107.5 -20.5z" />
    <glyph glyph-name="uni1EDB" unicode="&#x1edb;" 
d="M259 598l-16 28l159 99l19 -40zM472 514q57 -35 89.5 -95.5t32.5 -145.5q0 -66 -20.5 -118t-57 -88t-86 -55t-107.5 -19t-108 19t-86.5 55t-57.5 88t-21 118t21 118t57.5 88t86.5 55t108 19q17 0 34 -1.5t33 -5.5q46 1 75 27t29 89h53q0 -57 -21 -93.5t-54 -54.5zM323 55
q38 0 74 13t64 39.5t45 67.5t17 98t-17 98t-45 68t-64 40t-74 13q-39 0 -75 -13t-64.5 -40t-45.5 -68t-17 -98t17 -98t45.5 -67.5t64.5 -39.5t75 -13z" />
    <glyph glyph-name="uni1EDC" unicode="&#x1edc;" horiz-adv-x="791" 
d="M446 768l-152 98l22 39l146 -107zM555 676q85 -43 134.5 -127t49.5 -196q0 -79 -26 -145.5t-71.5 -114.5t-108.5 -74.5t-137 -26.5t-137 26.5t-108.5 74.5t-71.5 114.5t-26 145.5t26 145t71.5 114t108.5 74.5t137 26.5q38 0 76 -8q45 2 72.5 28t27.5 88h53
q0 -55 -19 -90.5t-51 -54.5zM396 58q57 0 106.5 20.5t86 58.5t57.5 92.5t21 123.5t-21 123.5t-57.5 92.5t-86 58.5t-106.5 20.5q-58 0 -107.5 -20.5t-86 -58.5t-57 -92.5t-20.5 -123.5t20.5 -123.5t57 -92.5t86 -58.5t107.5 -20.5z" />
    <glyph glyph-name="uni1EDD" unicode="&#x1edd;" 
d="M405 592l-152 98l22 39l146 -107zM472 514q57 -35 89.5 -95.5t32.5 -145.5q0 -66 -20.5 -118t-57 -88t-86 -55t-107.5 -19t-108 19t-86.5 55t-57.5 88t-21 118t21 118t57.5 88t86.5 55t108 19q17 0 34 -1.5t33 -5.5q46 1 75 27t29 89h53q0 -57 -21 -93.5t-54 -54.5z
M323 55q38 0 74 13t64 39.5t45 67.5t17 98t-17 98t-45 68t-64 40t-74 13q-39 0 -75 -13t-64.5 -40t-45.5 -68t-17 -98t17 -98t45.5 -67.5t64.5 -39.5t75 -13z" />
    <glyph glyph-name="uni1EDE" unicode="&#x1ede;" horiz-adv-x="791" 
d="M392 910q-24 0 -32 -12t-12 -35l-36 2q2 14 5 28t11.5 26t24 19.5t40.5 7.5q42 0 61 -20.5t19 -56.5q0 -29 -19 -49.5t-50 -51.5l-24 22q23 23 39 41t16 38q0 23 -10.5 32t-32.5 9zM555 676q85 -43 134.5 -127t49.5 -196q0 -79 -26 -145.5t-71.5 -114.5t-108.5 -74.5
t-137 -26.5t-137 26.5t-108.5 74.5t-71.5 114.5t-26 145.5t26 145t71.5 114t108.5 74.5t137 26.5q38 0 76 -8q45 2 72.5 28t27.5 88h53q0 -55 -19 -90.5t-51 -54.5zM396 58q57 0 106.5 20.5t86 58.5t57.5 92.5t21 123.5t-21 123.5t-57.5 92.5t-86 58.5t-106.5 20.5
q-58 0 -107.5 -20.5t-86 -58.5t-57 -92.5t-20.5 -123.5t20.5 -123.5t57 -92.5t86 -58.5t107.5 -20.5z" />
    <glyph glyph-name="uni1EDF" unicode="&#x1edf;" 
d="M319 751q-24 0 -32 -12t-12 -35l-36 2q2 14 5 28t11.5 26t24 19.5t40.5 7.5q42 0 61 -20.5t19 -56.5q0 -29 -19 -49.5t-50 -51.5l-24 22q23 23 39 41t16 38q0 23 -10.5 32t-32.5 9zM472 514q57 -35 89.5 -95.5t32.5 -145.5q0 -66 -20.5 -118t-57 -88t-86 -55t-107.5 -19
t-108 19t-86.5 55t-57.5 88t-21 118t21 118t57.5 88t86.5 55t108 19q17 0 34 -1.5t33 -5.5q46 1 75 27t29 89h53q0 -57 -21 -93.5t-54 -54.5zM323 55q38 0 74 13t64 39.5t45 67.5t17 98t-17 98t-45 68t-64 40t-74 13q-39 0 -75 -13t-64.5 -40t-45.5 -68t-17 -98t17 -98
t45.5 -67.5t64.5 -39.5t75 -13z" />
    <glyph glyph-name="uni1EE0" unicode="&#x1ee0;" horiz-adv-x="791" 
d="M339 855q-35 0 -41 -46h-36q6 43 26 64.5t52 21.5q19 0 33 -7.5t26 -16t24 -16t28 -7.5t27.5 11t14.5 34h36q-5 -41 -26.5 -63t-53.5 -22q-19 0 -33.5 7.5t-26.5 16t-23.5 16t-26.5 7.5zM555 676q85 -43 134.5 -127t49.5 -196q0 -79 -26 -145.5t-71.5 -114.5
t-108.5 -74.5t-137 -26.5t-137 26.5t-108.5 74.5t-71.5 114.5t-26 145.5t26 145t71.5 114t108.5 74.5t137 26.5q38 0 76 -8q45 2 72.5 28t27.5 88h53q0 -55 -19 -90.5t-51 -54.5zM396 58q57 0 106.5 20.5t86 58.5t57.5 92.5t21 123.5t-21 123.5t-57.5 92.5t-86 58.5
t-106.5 20.5q-58 0 -107.5 -20.5t-86 -58.5t-57 -92.5t-20.5 -123.5t20.5 -123.5t57 -92.5t86 -58.5t107.5 -20.5z" />
    <glyph glyph-name="uni1EE1" unicode="&#x1ee1;" 
d="M266 689q-35 0 -41 -46h-36q6 43 26 64.5t52 21.5q19 0 33 -7.5t26 -16t24 -16t28 -7.5t27.5 11t14.5 34h36q-5 -41 -26.5 -63t-53.5 -22q-19 0 -33.5 7.5t-26.5 16t-23.5 16t-26.5 7.5zM472 514q57 -35 89.5 -95.5t32.5 -145.5q0 -66 -20.5 -118t-57 -88t-86 -55
t-107.5 -19t-108 19t-86.5 55t-57.5 88t-21 118t21 118t57.5 88t86.5 55t108 19q17 0 34 -1.5t33 -5.5q46 1 75 27t29 89h53q0 -57 -21 -93.5t-54 -54.5zM323 55q38 0 74 13t64 39.5t45 67.5t17 98t-17 98t-45 68t-64 40t-74 13q-39 0 -75 -13t-64.5 -40t-45.5 -68t-17 -98
t17 -98t45.5 -67.5t64.5 -39.5t75 -13z" />
    <glyph glyph-name="uni1EE2" unicode="&#x1ee2;" horiz-adv-x="791" 
d="M555 676q85 -43 134.5 -127t49.5 -196q0 -79 -26 -145.5t-71.5 -114.5t-108.5 -74.5t-137 -26.5t-137 26.5t-108.5 74.5t-71.5 114.5t-26 145.5t26 145t71.5 114t108.5 74.5t137 26.5q38 0 76 -8q45 2 72.5 28t27.5 88h53q0 -55 -19 -90.5t-51 -54.5zM396 58
q57 0 106.5 20.5t86 58.5t57.5 92.5t21 123.5t-21 123.5t-57.5 92.5t-86 58.5t-106.5 20.5q-58 0 -107.5 -20.5t-86 -58.5t-57 -92.5t-20.5 -123.5t20.5 -123.5t57 -92.5t86 -58.5t107.5 -20.5zM396 -76q18 0 31 -12.5t13 -31.5q0 -18 -13 -31t-31 -13t-31 13t-13 31
q0 19 13 31.5t31 12.5z" />
    <glyph glyph-name="uni1EE3" unicode="&#x1ee3;" 
d="M472 514q57 -35 89.5 -95.5t32.5 -145.5q0 -66 -20.5 -118t-57 -88t-86 -55t-107.5 -19t-108 19t-86.5 55t-57.5 88t-21 118t21 118t57.5 88t86.5 55t108 19q17 0 34 -1.5t33 -5.5q46 1 75 27t29 89h53q0 -57 -21 -93.5t-54 -54.5zM323 55q38 0 74 13t64 39.5t45 67.5
t17 98t-17 98t-45 68t-64 40t-74 13q-39 0 -75 -13t-64.5 -40t-45.5 -68t-17 -98t17 -98t45.5 -67.5t64.5 -39.5t75 -13zM323 -76q18 0 31 -12.5t13 -31.5q0 -18 -13 -31t-31 -13t-31 13t-13 31q0 19 13 31.5t31 12.5z" />
    <glyph glyph-name="uni1EE4" unicode="&#x1ee4;" horiz-adv-x="652" 
d="M142 705v-427q0 -59 13.5 -100.5t38 -68t58.5 -38.5t75 -12t74.5 12t57.5 38.5t37.5 68t13.5 100.5v427h70v-427q0 -74 -19 -128t-52.5 -89t-80 -51.5t-102.5 -16.5q-55 0 -102 16.5t-80.5 51.5t-52.5 89t-19 128v427h70zM282 -120q0 19 13 31.5t31 12.5t31 -12.5
t13 -31.5q0 -18 -13 -31t-31 -13t-31 13t-13 31z" />
    <glyph glyph-name="uni1EE5" unicode="&#x1ee5;" horiz-adv-x="624" 
d="M547 546v-546h-70v135q-22 -73 -78 -109t-124 -36q-45 0 -84.5 14.5t-68.5 44t-45.5 74t-16.5 105.5v318h70v-312q0 -92 46 -138.5t122 -46.5q79 0 129 51t50 156v290h70zM312 -76q18 0 31 -12.5t13 -31.5q0 -18 -13 -31t-31 -13t-31 13t-13 31q0 19 13 31.5t31 12.5z
" />
    <glyph glyph-name="uni1EE6" unicode="&#x1ee6;" horiz-adv-x="652" 
d="M323 946q42 0 61 -20.5t19 -56.5q0 -29 -19 -49.5t-50 -51.5l-24 22q23 23 39 41t16 38q0 23 -10.5 32t-32.5 9q-24 0 -32 -12t-12 -35l-36 2q2 14 5 28t11.5 26t24 19.5t40.5 7.5zM142 705v-427q0 -59 13.5 -100.5t38 -68t58.5 -38.5t75 -12t74.5 12t57.5 38.5t37.5 68
t13.5 100.5v427h70v-427q0 -74 -19 -128t-52.5 -89t-80 -51.5t-102.5 -16.5q-55 0 -102 16.5t-80.5 51.5t-52.5 89t-19 128v427h70z" />
    <glyph glyph-name="uni1EE7" unicode="&#x1ee7;" horiz-adv-x="624" 
d="M308 751q-24 0 -32 -12t-12 -35l-36 2q2 14 5 28t11.5 26t24 19.5t40.5 7.5q42 0 61 -20.5t19 -56.5q0 -29 -19 -49.5t-50 -51.5l-24 22q23 23 39 41t16 38q0 23 -10.5 32t-32.5 9zM547 546v-546h-70v135q-22 -73 -78 -109t-124 -36q-45 0 -84.5 14.5t-68.5 44t-45.5 74
t-16.5 105.5v318h70v-312q0 -92 46 -138.5t122 -46.5q79 0 129 51t50 156v290h70z" />
    <glyph glyph-name="uni1EE8" unicode="&#x1ee8;" horiz-adv-x="652" 
d="M262 757l-16 28l159 99l19 -40zM697 821q0 -73 -34 -113t-83 -51v-379q0 -74 -19 -128t-52.5 -89t-80 -51.5t-102.5 -16.5q-55 0 -102 16.5t-80.5 51.5t-52.5 89t-19 128v427h70v-427q0 -59 13.5 -100.5t38 -68t58.5 -38.5t75 -12t74.5 12t57.5 38.5t37.5 68t13.5 100.5
v427h27q48 0 77.5 26t29.5 90h53z" />
    <glyph glyph-name="uni1EE9" unicode="&#x1ee9;" horiz-adv-x="624" 
d="M248 598l-16 28l159 99l19 -40zM672 662q0 -76 -36.5 -116t-88.5 -50v-496h-70v135q-22 -73 -78 -109t-124 -36q-45 0 -84.5 14.5t-68.5 44t-45.5 74t-16.5 105.5v318h70v-312q0 -92 46 -138.5t122 -46.5q79 0 129 51t50 156v290h35q48 0 77.5 26t29.5 90h53z" />
    <glyph glyph-name="uni1EEA" unicode="&#x1eea;" horiz-adv-x="652" 
d="M408 751l-152 98l22 39l146 -107zM697 821q0 -73 -34 -113t-83 -51v-379q0 -74 -19 -128t-52.5 -89t-80 -51.5t-102.5 -16.5q-55 0 -102 16.5t-80.5 51.5t-52.5 89t-19 128v427h70v-427q0 -59 13.5 -100.5t38 -68t58.5 -38.5t75 -12t74.5 12t57.5 38.5t37.5 68
t13.5 100.5v427h27q48 0 77.5 26t29.5 90h53z" />
    <glyph glyph-name="uni1EEB" unicode="&#x1eeb;" horiz-adv-x="624" 
d="M394 592l-152 98l22 39l146 -107zM672 662q0 -76 -36.5 -116t-88.5 -50v-496h-70v135q-22 -73 -78 -109t-124 -36q-45 0 -84.5 14.5t-68.5 44t-45.5 74t-16.5 105.5v318h70v-312q0 -92 46 -138.5t122 -46.5q79 0 129 51t50 156v290h35q48 0 77.5 26t29.5 90h53z" />
    <glyph glyph-name="uni1EEC" unicode="&#x1eec;" horiz-adv-x="652" 
d="M322 910q-24 0 -32 -12t-12 -35l-36 2q2 14 5 28t11.5 26t24 19.5t40.5 7.5q42 0 61 -20.5t19 -56.5q0 -29 -19 -49.5t-50 -51.5l-24 22q23 23 39 41t16 38q0 23 -10.5 32t-32.5 9zM697 821q0 -73 -34 -113t-83 -51v-379q0 -74 -19 -128t-52.5 -89t-80 -51.5
t-102.5 -16.5q-55 0 -102 16.5t-80.5 51.5t-52.5 89t-19 128v427h70v-427q0 -59 13.5 -100.5t38 -68t58.5 -38.5t75 -12t74.5 12t57.5 38.5t37.5 68t13.5 100.5v427h27q48 0 77.5 26t29.5 90h53z" />
    <glyph glyph-name="uni1EED" unicode="&#x1eed;" horiz-adv-x="624" 
d="M308 751q-24 0 -32 -12t-12 -35l-36 2q2 14 5 28t11.5 26t24 19.5t40.5 7.5q42 0 61 -20.5t19 -56.5q0 -29 -19 -49.5t-50 -51.5l-24 22q23 23 39 41t16 38q0 23 -10.5 32t-32.5 9zM672 662q0 -76 -36.5 -116t-88.5 -50v-496h-70v135q-22 -73 -78 -109t-124 -36
q-45 0 -84.5 14.5t-68.5 44t-45.5 74t-16.5 105.5v318h70v-312q0 -92 46 -138.5t122 -46.5q79 0 129 51t50 156v290h35q48 0 77.5 26t29.5 90h53z" />
    <glyph glyph-name="uni1EEE" unicode="&#x1eee;" horiz-adv-x="652" 
d="M269 811q-35 0 -41 -46h-36q6 43 26 64.5t52 21.5q19 0 33 -7.5t26 -16t24 -16t28 -7.5t27.5 11t14.5 34h36q-5 -41 -26.5 -63t-53.5 -22q-19 0 -33.5 7.5t-26.5 16t-23.5 16t-26.5 7.5zM697 821q0 -73 -34 -113t-83 -51v-379q0 -74 -19 -128t-52.5 -89t-80 -51.5
t-102.5 -16.5q-55 0 -102 16.5t-80.5 51.5t-52.5 89t-19 128v427h70v-427q0 -59 13.5 -100.5t38 -68t58.5 -38.5t75 -12t74.5 12t57.5 38.5t37.5 68t13.5 100.5v427h27q48 0 77.5 26t29.5 90h53z" />
    <glyph glyph-name="uni1EEF" unicode="&#x1eef;" horiz-adv-x="624" 
d="M255 652q-35 0 -41 -46h-36q6 43 26 64.5t52 21.5q19 0 33 -7.5t26 -16t24 -16t28 -7.5t27.5 11t14.5 34h36q-5 -41 -26.5 -63t-53.5 -22q-19 0 -33.5 7.5t-26.5 16t-23.5 16t-26.5 7.5zM672 662q0 -76 -36.5 -116t-88.5 -50v-496h-70v135q-22 -73 -78 -109t-124 -36
q-45 0 -84.5 14.5t-68.5 44t-45.5 74t-16.5 105.5v318h70v-312q0 -92 46 -138.5t122 -46.5q79 0 129 51t50 156v290h35q48 0 77.5 26t29.5 90h53z" />
    <glyph glyph-name="uni1EF0" unicode="&#x1ef0;" horiz-adv-x="652" 
d="M697 821q0 -73 -34 -113t-83 -51v-379q0 -74 -19 -128t-52.5 -89t-80 -51.5t-102.5 -16.5q-55 0 -102 16.5t-80.5 51.5t-52.5 89t-19 128v427h70v-427q0 -59 13.5 -100.5t38 -68t58.5 -38.5t75 -12t74.5 12t57.5 38.5t37.5 68t13.5 100.5v427h27q48 0 77.5 26t29.5 90h53
zM326 -76q18 0 31 -12.5t13 -31.5q0 -18 -13 -31t-31 -13t-31 13t-13 31q0 19 13 31.5t31 12.5z" />
    <glyph glyph-name="uni1EF1" unicode="&#x1ef1;" horiz-adv-x="624" 
d="M672 662q0 -76 -36.5 -116t-88.5 -50v-496h-70v135q-22 -73 -78 -109t-124 -36q-45 0 -84.5 14.5t-68.5 44t-45.5 74t-16.5 105.5v318h70v-312q0 -92 46 -138.5t122 -46.5q79 0 129 51t50 156v290h35q48 0 77.5 26t29.5 90h53zM312 -76q18 0 31 -12.5t13 -31.5
q0 -18 -13 -31t-31 -13t-31 13t-13 31q0 19 13 31.5t31 12.5z" />
    <glyph glyph-name="Ygrave" unicode="&#x1ef2;" horiz-adv-x="571" 
d="M368 751l-152 98l22 39l146 -107zM549 705l-227 -430v-275h-71v275l-228 430h81l182 -355l182 355h81z" />
    <glyph glyph-name="ygrave" unicode="&#x1ef3;" horiz-adv-x="547" 
d="M372 622l-16 -30l-152 98l22 39zM91 546l190 -455l175 455h78l-321 -804h-80l110 264l-230 540h78z" />
    <glyph glyph-name="uni1EF4" unicode="&#x1ef4;" horiz-adv-x="571" 
d="M251 275l-228 430h81l182 -355l182 355h81l-227 -430v-275h-71v275zM286 -76q18 0 31 -12.5t13 -31.5q0 -18 -13 -31t-31 -13t-31 13t-13 31q0 19 13 31.5t31 12.5z" />
    <glyph glyph-name="uni1EF5" unicode="&#x1ef5;" horiz-adv-x="547" 
d="M91 546l190 -455l175 455h78l-321 -804h-80l110 264l-230 540h78zM356 -120q0 19 13 31.5t31 12.5t31 -12.5t13 -31.5q0 -18 -13 -31t-31 -13t-31 13t-13 31z" />
    <glyph glyph-name="uni1EF6" unicode="&#x1ef6;" horiz-adv-x="571" 
d="M282 910q-24 0 -32 -12t-12 -35l-36 2q2 14 5 28t11.5 26t24 19.5t40.5 7.5q42 0 61 -20.5t19 -56.5q0 -29 -19 -49.5t-50 -51.5l-24 22q23 23 39 41t16 38q0 23 -10.5 32t-32.5 9zM549 705l-227 -430v-275h-71v275l-228 430h81l182 -355l182 355h81z" />
    <glyph glyph-name="uni1EF7" unicode="&#x1ef7;" horiz-adv-x="547" 
d="M271 787q42 0 61 -20.5t19 -56.5q0 -29 -19 -49.5t-50 -51.5l-24 22q23 23 39 41t16 38q0 23 -10.5 32t-32.5 9q-24 0 -32 -12t-12 -35l-36 2q2 14 5 28t11.5 26t24 19.5t40.5 7.5zM91 546l190 -455l175 455h78l-321 -804h-80l110 264l-230 540h78z" />
    <glyph glyph-name="uni1EF8" unicode="&#x1ef8;" horiz-adv-x="571" 
d="M229 811q-35 0 -41 -46h-36q6 43 26 64.5t52 21.5q19 0 33 -7.5t26 -16t24 -16t28 -7.5t27.5 11t14.5 34h36q-5 -41 -26.5 -63t-53.5 -22q-19 0 -33.5 7.5t-26.5 16t-23.5 16t-26.5 7.5zM549 705l-227 -430v-275h-71v275l-228 430h81l182 -355l182 355h81z" />
    <glyph glyph-name="uni1EF9" unicode="&#x1ef9;" horiz-adv-x="547" 
d="M218 692q19 0 33 -7.5t26 -16t24 -16t28 -7.5t27.5 11t14.5 34h36q-5 -41 -26.5 -63t-53.5 -22q-19 0 -33.5 7.5t-26.5 16t-23.5 16t-26.5 7.5q-35 0 -41 -46h-36q6 43 26 64.5t52 21.5zM91 546l190 -455l175 455h78l-321 -804h-80l110 264l-230 540h78z" />
    <glyph glyph-name="endash" unicode="&#x2013;" horiz-adv-x="607" 
d="M563 400v-59h-519v59h519z" />
    <glyph glyph-name="emdash" unicode="&#x2014;" horiz-adv-x="807" 
d="M763 400v-59h-719v59h719z" />
    <glyph glyph-name="quoteleft" unicode="&#x2018;" horiz-adv-x="162" 
d="M45 586q-10 49 -10 86q0 54 23.5 78t68.5 24v-34q-26 0 -37 -13.5t-11 -39.5v-24h47v-77h-81z" />
    <glyph glyph-name="quoteright" unicode="&#x2019;" horiz-adv-x="162" 
d="M118 774q9 -49 9 -85q0 -54 -23.5 -78.5t-67.5 -24.5v35q26 0 36.5 13t10.5 39v25h-46v76h81z" />
    <glyph glyph-name="quotesinglbase" unicode="&#x201a;" horiz-adv-x="173" 
d="M115 56q10 -36 10 -67.5t-10 -55t-30 -37t-52 -13.5v33q25 0 35.5 13.5t10.5 41.5v8h-45v77h81z" />
    <glyph glyph-name="quotedblleft" unicode="&#x201c;" horiz-adv-x="283" 
d="M45 586q-10 49 -10 86q0 54 23.5 78t68.5 24v-34q-26 0 -37 -13.5t-11 -39.5v-24h47v-77h-81zM165 586q-5 26 -7 47t-2 39q0 54 23.5 78t67.5 24v-34q-26 0 -36.5 -13.5t-10.5 -39.5v-24h46v-77h-81z" />
    <glyph glyph-name="quotedblright" unicode="&#x201d;" horiz-adv-x="283" 
d="M118 774q9 -49 9 -85q0 -54 -23.5 -78.5t-67.5 -24.5v35q26 0 36.5 13t10.5 39v25h-46v76h81zM238 774q10 -47 10 -85q0 -54 -23.5 -78.5t-68.5 -24.5v35q26 0 37 13t11 39v25h-47v76h81z" />
    <glyph glyph-name="quotedblbase" unicode="&#x201e;" horiz-adv-x="283" 
d="M118 76q9 -49 9 -85q0 -54 -23.5 -78.5t-67.5 -24.5v35q26 0 36.5 13t10.5 39v25h-46v76h81zM238 76q10 -47 10 -85q0 -54 -23.5 -78.5t-68.5 -24.5v35q26 0 37 13t11 39v25h-47v76h81z" />
    <glyph glyph-name="dagger" unicode="&#x2020;" horiz-adv-x="501" 
d="M466 490l-188 6l7 -754h-69l6 754l-187 -6v56l187 -6l-6 239h69l-7 -239l188 6v-56z" />
    <glyph glyph-name="daggerdbl" unicode="&#x2021;" horiz-adv-x="502" 
d="M279 496v-470l188 7v-58l-188 6l6 -239h-69l7 239l-188 -6v58l188 -7v470l-188 -6v56l188 -6l-7 239h69l-6 -239l188 6v-56z" />
    <glyph glyph-name="bullet" unicode="&#x2022;" horiz-adv-x="326" 
d="M48 333q0 24 9 45.5t24.5 37.5t36.5 25t45 9t45.5 -9t37 -25t24.5 -37.5t9 -45.5t-9 -45t-24.5 -36t-37 -24t-45.5 -9t-45 9t-36.5 24t-24.5 36t-9 45z" />
    <glyph glyph-name="ellipsis" unicode="&#x2026;" horiz-adv-x="509" 
d="M123 90v-90h-93v90h93zM301 90v-90h-93v90h93zM478 90v-90h-93v90h93z" />
    <glyph glyph-name="perthousand" unicode="&#x2030;" horiz-adv-x="943" 
d="M176 714q30 0 55.5 -10t44.5 -28.5t29.5 -45t10.5 -58.5t-10.5 -58.5t-29.5 -45t-44.5 -28.5t-55.5 -10q-61 0 -101 38.5t-40 103.5t40 103.5t101 38.5zM551 706l-411 -706h-70l410 706h71zM86 572q0 -43 24.5 -69.5t64.5 -26.5t65 26.5t25 69.5q0 42 -25 69t-65 27
t-64.5 -27t-24.5 -69zM446 276q30 0 55.5 -10t44.5 -28.5t29.5 -45t10.5 -58.5t-10.5 -58.5t-29.5 -45t-44.5 -29t-55.5 -10.5t-55.5 10.5t-44.5 29t-29.5 45t-10.5 58.5t10.5 58.5t29.5 45t44.5 28.5t55.5 10zM768 276q30 0 55.5 -10t44.5 -28.5t29.5 -45t10.5 -58.5
t-10.5 -58.5t-29.5 -45t-44.5 -29t-55.5 -10.5t-56 10.5t-45 29t-29.5 45t-10.5 58.5q0 65 40 103.5t101 38.5zM357 134q0 -43 24.5 -70t64.5 -27q39 0 64 27t25 70q0 42 -25 69t-64 27q-40 0 -64.5 -27t-24.5 -69zM679 134q0 -43 24.5 -70t63.5 -27q40 0 65 27t25 70
q0 42 -25 69t-65 27q-39 0 -63.5 -27t-24.5 -69z" />
    <glyph glyph-name="guilsinglleft" unicode="&#x2039;" horiz-adv-x="265" 
d="M145 120l-100 175l100 175h70l-101 -175l101 -175h-70z" />
    <glyph glyph-name="guilsinglright" unicode="&#x203a;" horiz-adv-x="265" 
d="M153 295l-103 175h72l98 -175l-98 -175h-72z" />
    <glyph glyph-name="fraction" unicode="&#x2044;" horiz-adv-x="294" 
d="M385 706l-411 -706h-71l411 706h71z" />
    <glyph glyph-name="uni20A8" unicode="&#x20a8;" horiz-adv-x="1050" 
d="M528 498q0 -88 -49 -140t-144 -62l199 -296h-80l-193 294h-114v-294h-71v705h216q62 0 106.5 -15.5t73.5 -43t42.5 -65.5t13.5 -83zM147 347h140q93 0 131.5 40.5t38.5 106.5q0 68 -38.5 109t-131.5 41h-140v-297zM662 402q0 -38 25 -57.5t62.5 -30.5t81.5 -20t81.5 -25
t62.5 -45t25 -81q0 -32 -12.5 -59.5t-35.5 -47.5t-55.5 -31.5t-73.5 -11.5q-96 0 -156.5 46.5t-71.5 127.5h70q5 -50 45 -85t113 -35q55 0 83.5 27.5t28.5 69.5q0 40 -25 60t-62.5 32t-81 20.5t-81 24.5t-62.5 44t-25 79q0 66 49.5 107.5t134.5 41.5q94 0 148 -48t65 -126
h-69q-3 24 -13.5 46t-28.5 38.5t-44 26t-59 9.5q-56 0 -87.5 -26.5t-31.5 -70.5z" />
    <glyph glyph-name="Euro" unicode="&#x20ac;" horiz-adv-x="825" 
d="M445 58q100 0 163.5 47t90.5 119h74q-32 -104 -114 -167.5t-213 -63.5q-61 0 -114 18.5t-94.5 52.5t-70.5 81.5t-43 105.5h-105v38h98q-2 15 -3 30.5t-1 32.5q0 26 3 51h-97v38h103q12 61 40.5 111t70.5 85.5t96 55t117 19.5q131 0 213 -63.5t114 -167.5h-74
q-27 73 -90.5 119.5t-163.5 46.5q-45 0 -85.5 -14t-73 -40.5t-56 -64.5t-35.5 -87h261v-38h-268q-3 -24 -3 -51q0 -17 1.5 -32.5t3.5 -30.5h266v-38h-258q26 -92 92.5 -142.5t154.5 -50.5z" />
    <glyph glyph-name="uni20B9" unicode="&#x20b9;" horiz-adv-x="650" 
d="M453 526v-3h141v-44h-143q-4 -51 -21 -85.5t-50.5 -55.5t-86 -30.5t-129.5 -9.5v-101q0 -72 32 -112t100 -40q63 0 94.5 37t31.5 109h66q-2 -97 -51 -149t-139 -52q-100 0 -150 55.5t-50 156.5v145q85 0 139.5 5t86 19.5t45 40t16.5 67.5h-329v44h331v3v129h-331v50h538
v-50h-141v-129z" />
    <glyph glyph-name="uni20BA" unicode="&#x20ba;" horiz-adv-x="782" 
d="M730 406q0 -208 -85 -317t-274 -109q-68 0 -148 17v255l-172 -43v47l172 43v120l-172 -45v46l172 45v241h71v-222l192 50v-47l-192 -50v-120l193 49v-47l-193 -49v-217q20 -4 39 -5.5t38 -1.5q76 0 130.5 24t89.5 70t51.5 113t16.5 153h71z" />
    <glyph glyph-name="uni20BD" unicode="&#x20bd;" horiz-adv-x="618" 
d="M207 304v-114h234v-55h-234v-135h-71v135h-85v55h85v114h-85v58h85v343h211q62 0 106.5 -14.5t73.5 -41t42.5 -63.5t13.5 -82q0 -98 -60 -149t-176 -51h-140zM207 362h137q92 0 130 39t38 103q0 67 -38 106t-130 39h-137v-287z" />
    <glyph glyph-name="uni2113" unicode="&#x2113;" horiz-adv-x="223" 
d="M147 740v-740h-71v740h71z" />
    <glyph glyph-name="trademark" unicode="&#x2122;" horiz-adv-x="754" 
d="M30 705h254v-47h-99v-304h-54v304h-101v47zM716 705v-351h-50l-2 269l-120 -269h-41l-121 275v-275h-48v351h67l124 -288l128 288h63z" />
    <glyph glyph-name="uni2126" unicode="&#x2126;" horiz-adv-x="793" 
d="M748 361q0 -105 -46 -187t-136 -119h167v-55h-276v60q48 9 88 33.5t69.5 62t45.5 87.5t16 110q0 67 -21.5 121.5t-59 93.5t-88.5 60t-110 21q-61 0 -112.5 -21.5t-89 -60.5t-58.5 -93.5t-21 -120.5q0 -60 16.5 -110t46 -87.5t69.5 -62t88 -33.5v-60h-276v55h167
q-45 18 -78.5 48.5t-56.5 70.5t-34.5 87.5t-11.5 99.5q0 80 27.5 145t74.5 111t111.5 71t137.5 25t137 -25t111.5 -71t75 -111t27.5 -145z" />
    <glyph glyph-name="estimated" unicode="&#x212e;" horiz-adv-x="764" 
d="M391 -7q-73 0 -135.5 22t-108 65t-71 106t-25.5 144q0 77 21.5 143.5t63.5 116.5t104 78.5t142 28.5t142 -27t104.5 -72t64.5 -103t22 -120v-61h-544v-165q40 -52 91.5 -78.5t128.5 -26.5q39 0 72.5 9t65 26t61.5 41.5t61 55.5l35 -38q-62 -66 -134.5 -105.5
t-160.5 -39.5zM583 550q-32 46 -83.5 71.5t-117.5 25.5t-120.5 -26t-90.5 -82v-167h412v178z" />
    <glyph glyph-name="partialdiff" unicode="&#x2202;" horiz-adv-x="558" 
d="M299 554q27 0 53 -7t47 -25t36 -49.5t19 -80.5q0 65 -7.5 121t-28 96.5t-56 63.5t-90.5 23q-19 0 -38 -3t-39 -8v42q51 13 97 13q107 0 166.5 -77.5t59.5 -247.5q0 -98 -20 -176.5t-57 -134t-90 -85.5t-118 -30q-39 0 -74.5 14t-61.5 42t-41.5 70.5t-15.5 100.5
q0 66 17.5 127t50.5 108t81 75t110 28zM305 495q-44 0 -80 -21.5t-61.5 -59t-39 -88.5t-13.5 -110q0 -43 10.5 -74t27.5 -50.5t40.5 -29t48.5 -9.5q47 0 83.5 22.5t62 60t39 88t13.5 105.5q0 88 -35 127t-96 39z" />
    <glyph glyph-name="uni2206" unicode="&#x2206;" horiz-adv-x="667" 
d="M363 690l284 -634v-56h-627v56l284 634h59zM92 56h483l-243 554z" />
    <glyph glyph-name="product" unicode="&#x220f;" horiz-adv-x="737" 
d="M685 706v-55h-81v-651h-71v651h-330v-651h-70v651h-82v55h634z" />
    <glyph glyph-name="summation" unicode="&#x2211;" horiz-adv-x="436" 
d="M434 635h-335l269 -294v-56l-270 -304h336v-55h-394v80l264 304l-264 301v79h394v-55z" />
    <glyph glyph-name="minus" unicode="&#x2212;" horiz-adv-x="460" 
d="M425 400v-59h-390v59h390z" />
    <glyph glyph-name="radical" unicode="&#x221a;" horiz-adv-x="750" 
d="M728 860l-480 -905h-30l-118 209l-62 -35l-23 38l123 70l111 -196l433 819h46z" />
    <glyph glyph-name="infinity" unicode="&#x221e;" horiz-adv-x="643" 
d="M501 490q68 0 107.5 -37t39.5 -105q0 -34 -11.5 -60.5t-31.5 -45t-47 -28t-58 -9.5t-56 8.5t-45.5 23t-38 33.5t-32.5 39q-24 -41 -64 -72.5t-98 -31.5q-67 0 -106.5 37.5t-39.5 104.5q0 34 11.5 60.5t31 45t47 28t58.5 9.5t55.5 -9t44.5 -24.5t37 -35t32 -40.5
q11 21 27 41t36.5 35t45.5 24t55 9zM170 256q40 0 72.5 24.5t56.5 66.5q-27 38 -56 66t-70 28q-45 0 -70.5 -26t-25.5 -68q0 -41 24 -66t69 -25zM494 254q46 0 71 26t25 68t-23.5 67t-69.5 25q-42 0 -75 -26.5t-58 -70.5q26 -36 55.5 -62.5t74.5 -26.5z" />
    <glyph glyph-name="integral" unicode="&#x222b;" horiz-adv-x="254" 
d="M144 790q7 65 41 93.5t93 28.5h22l-6 -61h-21q-25 0 -40 -13t-20 -48l-93 -840q-7 -67 -37.5 -98.5t-93.5 -31.5h-25l6 61h25q30 0 40.5 14t15.5 55z" />
    <glyph glyph-name="approxequal" unicode="&#x2248;" horiz-adv-x="487" 
d="M161 551q27 0 49 -10.5t41.5 -23t38.5 -23t41 -10.5q26 0 42.5 19t21.5 48h57q-11 -65 -43 -98.5t-83 -33.5q-27 0 -49 10.5t-41.5 23t-38.5 23t-41 10.5q-27 0 -43.5 -19t-21.5 -48h-56q11 65 43 98.5t83 33.5zM161 351q27 0 49 -10.5t41.5 -23t38.5 -23t41 -10.5
q26 0 42.5 19t21.5 48h57q-11 -65 -43 -98.5t-83 -33.5q-27 0 -49 10.5t-41.5 23t-38.5 23t-41 10.5q-27 0 -43.5 -19t-21.5 -48h-56q11 65 43 98.5t83 33.5z" />
    <glyph glyph-name="notequal" unicode="&#x2260;" horiz-adv-x="580" 
d="M365 440l-105 -139h285v-64h-333l-80 -107h-44l80 107h-133v64h181l104 139h-285v64h333l80 107h45l-80 -107h132v-64h-180z" />
    <glyph glyph-name="lessequal" unicode="&#x2264;" horiz-adv-x="417" 
d="M289 216l-254 193l254 194h89l-251 -194l251 -193h-89zM382 171v-56h-338v56h338z" />
    <glyph glyph-name="greaterequal" unicode="&#x2265;" horiz-adv-x="417" 
d="M40 216l250 193l-250 194h89l253 -194l-253 -193h-89zM35 171h339v-56h-339v56z" />
    <glyph glyph-name="lozenge" unicode="&#x25ca;" horiz-adv-x="551" 
d="M511 349l-236 -235l-235 235l237 236zM121 349l154 -156l157 156l-155 157z" />
    <glyph glyph-name="fi" unicode="&#xfb01;" horiz-adv-x="549" 
d="M169 546h305v-546h-71v484h-234v-484h-70v484h-80v62h80v27q0 90 47.5 136.5t156.5 43.5v-62q-76 1 -105 -28.5t-29 -94.5v-22zM439 749q23 0 37.5 -13t14.5 -34t-14.5 -33.5t-37.5 -12.5t-37 12.5t-14 33.5t14 34t37 13z" />
    <glyph glyph-name="fl" unicode="&#xfb02;" horiz-adv-x="558" 
d="M99 573q0 91 48.5 137.5t158.5 42.5v-62q-78 2 -107.5 -28t-29.5 -95v-22h137v-62h-137v-484h-70v484h-81v62h81v27zM482 740v-740h-71v740h71z" />
    <glyph glyph-name="uni03020300" horiz-adv-x="0" 
d="M-25 750l-16 -29l-149 95l22 38zM-165 693l-107 -63l-17 30l124 76l123 -76l-15 -31z" />
    <glyph glyph-name="uni03020301" horiz-adv-x="0" 
d="M-64 825l-158 -85l-16 28l156 97zM-161 693l-107 -63l-17 30l124 76l123 -76l-15 -31z" />
    <glyph glyph-name="uni03020303" horiz-adv-x="0" 
d="M-200 830q18 0 30.5 -7t23.5 -15t23 -15t27 -7q14 0 25 10.5t14 31.5h34q-5 -38 -25 -59t-50 -21q-18 0 -31.5 7t-25 15t-22.5 15t-24 7q-33 0 -39 -43h-33q10 81 73 81zM-165 694l-107 -63l-17 30l124 76l123 -76l-15 -31z" />
    <glyph glyph-name="uni03020309" horiz-adv-x="0" 
d="M-19 857q41 0 59.5 -20t18.5 -55q0 -28 -18.5 -48.5t-48.5 -50.5l-24 22q23 23 38.5 40t15.5 37q0 23 -10.5 31.5t-31.5 8.5q-23 0 -31 -12t-12 -34l-35 2q1 13 4.5 27t11.5 25.5t23 19t40 7.5zM-163 693l-107 -63l-17 30l124 76l123 -76l-15 -31z" />
    <glyph glyph-name="uni03060300" horiz-adv-x="0" 
d="M-129 779l-16 -29l-149 95l22 38zM-168 616q-31 0 -54.5 9.5t-39 25.5t-23 37.5t-7.5 44.5v7h35q0 -38 22.5 -58.5t66.5 -20.5q45 0 67 20.5t22 58.5h35v-7q0 -23 -7.5 -44.5t-23 -37.5t-39 -25.5t-54.5 -9.5z" />
    <glyph glyph-name="uni03060301" horiz-adv-x="0" 
d="M-19 848l-158 -85l-16 28l156 97zM-166 617q-31 0 -54.5 9.5t-39 25.5t-23 37.5t-7.5 44.5v7h35q0 -38 22.5 -58.5t66.5 -20.5q45 0 67 20.5t22 58.5h35v-7q0 -23 -7.5 -44.5t-23 -37.5t-39 -25.5t-54.5 -9.5z" />
    <glyph glyph-name="uni03060303" horiz-adv-x="0" 
d="M-216 857q19 0 32.5 -7t25 -16t23.5 -16t28 -7q15 0 26.5 11t14.5 33h35q-5 -39 -25.5 -61t-52.5 -22q-19 0 -33 7t-26 16t-23.5 16t-25.5 7q-34 0 -40 -45h-35q12 84 76 84zM-167 617q-31 0 -54.5 9.5t-39 25.5t-23 37.5t-7.5 44.5v7h35q0 -38 22.5 -58.5t66.5 -20.5
q45 0 67 20.5t22 58.5h35v-7q0 -23 -7.5 -44.5t-23 -37.5t-39 -25.5t-54.5 -9.5z" />
    <glyph glyph-name="uni03060309" horiz-adv-x="0" 
d="M-176 910q41 0 59.5 -20t18.5 -55q0 -28 -18.5 -48.5t-48.5 -50.5l-24 22q23 23 38.5 40t15.5 37q0 23 -10.5 31.5t-31.5 8.5q-23 0 -31 -12t-12 -34l-35 2q1 13 4.5 27t11.5 25.5t23 19t40 7.5zM-168 616q-31 0 -54.5 9.5t-39 25.5t-23 37.5t-7.5 44.5v7h35
q0 -38 22.5 -58.5t66.5 -20.5q45 0 67 20.5t22 58.5h35v-7q0 -23 -7.5 -44.5t-23 -37.5t-39 -25.5t-54.5 -9.5z" />
  </font>
</defs>
</svg>
