<?xml version="1.0" encoding="utf-8"?>
<!-- Generator: Adobe Illustrator 19.1.0, SVG Export Plug-In . SVG Version: 6.00 Build 0)  -->
<svg version="1.1" id="Ebene_1" xmlns="http://www.w3.org/2000/svg" xmlns:xlink="http://www.w3.org/1999/xlink" x="0px" y="0px"
	 viewBox="0 0 170 26" style="enable-background:new 0 0 170 26;" xml:space="preserve" width="170px" height="26px">
<style type="text/css">
	.st0{fill:#F7991C;}
	.st1{fill:#2D2D2D;}
</style>
<g>
	<path class="st0" d="M95.4,15.9c0.2,0.2,0.2,0.4,0.2,0.5c0,0.3-0.1,0.6-0.4,0.9c-1.2,1.4-2.4,2.1-3.7,2.1c-0.4,0-0.7-0.1-1-0.4
		c-0.2-0.3-0.4-0.6-0.4-1.1c0-0.3,0.1-0.9,0.3-1.7c0.2-0.8,0.6-2.4,1.2-4.8c0.1-0.4,0.2-0.8,0.3-1.2c0.1-0.4,0.1-0.8,0.1-1
		c0-0.5-0.2-0.8-0.6-0.8c-0.6,0-1.3,0.4-2.1,1.2c-0.8,0.8-1.6,1.9-2.4,3.3s-1.3,2.7-1.5,4l-0.3,1.8c-0.1,0.3-0.3,0.5-0.8,0.5h-1.5
		l1.9-7.7c0.3-1,0.4-1.8,0.4-2.4c0-0.5-0.2-0.7-0.6-0.7c-0.6,0-1.3,0.4-2.1,1.2c-0.8,0.8-1.6,1.9-2.4,3.3c-0.8,1.4-1.3,2.7-1.5,4
		l-0.3,1.8c-0.1,0.3-0.3,0.5-0.8,0.5h-1.5l1.5-6.4c0.5-2,0.8-3.5,0.9-4.6c-0.2,0-0.8,0-1.6,0h-1l0.1-0.5c0-0.3,0.1-0.5,0.2-0.6
		c0.1-0.1,0.4-0.2,0.8-0.3C77,6.9,77.4,6.8,78,6.7c0.5-0.1,1-0.1,1.3-0.1c0.4,0,0.6,0.1,0.8,0.2c0.2,0.2,0.2,0.4,0.2,0.8
		c0,0.5-0.3,1.8-0.8,3.8c0.8-1.5,1.8-2.7,2.9-3.5s2.1-1.3,3.1-1.3c0.5,0,1,0.2,1.3,0.5c0.3,0.4,0.4,0.9,0.4,1.5
		c0,0.6-0.1,1.4-0.4,2.4c0.9-1.4,1.8-2.5,2.9-3.3c1-0.8,2-1.2,2.9-1.2c0.6,0,1.1,0.2,1.4,0.6c0.3,0.4,0.5,0.9,0.5,1.6
		c0,0.8-0.2,1.7-0.5,2.8c-0.6,2.2-1,3.6-1.2,4.3c-0.2,0.7-0.3,1.1-0.3,1.3c0,0.2,0.1,0.3,0.2,0.3c0.1,0,0.5-0.2,1.1-0.6
		c0.6-0.4,1-0.8,1.3-1.2L95.4,15.9z"/>
	<path class="st0" d="M109.7,15.9c0.2,0.2,0.2,0.4,0.2,0.5c0,0.3-0.1,0.6-0.4,0.9c-0.5,0.6-1,1.1-1.6,1.5c-0.6,0.4-1.1,0.6-1.6,0.6
		c-0.8,0-1.3-0.6-1.3-1.9c0-0.4,0.1-1.2,0.2-2.3c-0.8,1.3-1.6,2.3-2.6,3.1c-1,0.7-1.9,1.1-2.8,1.1c-0.9,0-1.5-0.3-2-0.9
		c-0.5-0.6-0.7-1.5-0.7-2.7c0-1.6,0.3-3,0.9-4.5c0.6-1.4,1.4-2.6,2.5-3.5c1.1-0.9,2.2-1.4,3.5-1.4c0.5,0,1,0.1,1.5,0.3
		s0.9,0.6,1.4,1.1l0.2-0.4c0.1-0.3,0.3-0.5,0.5-0.6c0.2-0.1,0.5-0.2,0.9-0.2h1c-0.3,0.7-0.8,1.9-1.2,3.4c-0.3,1-0.6,2.2-0.9,3.5
		c-0.1,0.5-0.2,1.1-0.3,1.7c-0.1,0.6-0.1,1.1-0.1,1.4c0,0.5,0.1,0.7,0.3,0.7c0.1,0,0.4-0.2,0.8-0.5c0.4-0.3,0.9-0.8,1.4-1.3
		L109.7,15.9z M106.3,9.7c-0.4-0.5-0.8-0.8-1.2-1.1c-0.4-0.3-0.8-0.4-1.1-0.4c-0.7,0-1.4,0.3-2.1,1c-0.7,0.6-1.3,1.5-1.8,2.6
		s-0.7,2.2-0.7,3.4c0,0.8,0.1,1.4,0.3,1.8c0.2,0.3,0.5,0.5,1,0.5c0.5,0,1.1-0.3,1.8-1c0.7-0.6,1.4-1.5,2.1-2.5c0.7-1,1.1-2,1.3-3
		L106.3,9.7z"/>
	<path class="st0" d="M123.8,7.2c-0.1,0.5-0.3,0.9-0.5,1.1c-0.3,0.2-0.6,0.3-1.1,0.3c-0.4,0-0.9-0.1-1.4-0.4c0.2,0.5,0.3,1,0.3,1.6
		c0,1.1-0.4,2.2-1.1,3c-0.7,0.9-1.7,1.6-3,2.1c-0.9,0.4-1.6,0.6-1.8,0.8c-0.3,0.2-0.4,0.3-0.4,0.5c0,0.2,0.1,0.3,0.2,0.5
		c0.2,0.1,0.4,0.3,0.8,0.5c0.4,0.2,1,0.5,1.7,0.8c1.2,0.5,2,1,2.4,1.5s0.7,1,0.7,1.6c0,0.8-0.3,1.5-0.9,2.1
		c-0.6,0.6-1.4,1.1-2.4,1.5c-1.1,0.4-2.3,0.6-3.6,0.6c-1.7,0-3-0.3-4-1c-1-0.6-1.5-1.5-1.5-2.5c0-0.8,0.4-1.6,1.1-2.2
		c0.8-0.6,1.9-1.2,3.6-1.6c-0.3-0.3-0.5-0.6-0.5-1c0-0.8,0.7-1.5,2-2c-0.8-0.2-1.3-0.5-1.8-1c-0.4-0.5-0.6-1.2-0.6-2
		c0-0.9,0.2-1.8,0.7-2.6c0.5-0.8,1.2-1.5,2.1-2c0.9-0.5,1.8-0.8,2.9-0.8c0.4,0,0.8,0,1.2,0.1c0.4,0.1,0.8,0.1,1.2,0.2
		c0.4,0.1,0.7,0.1,1.1,0.1c0.5,0,1.4-0.1,2.6-0.2L123.8,7.2z M114.4,18.8c-1.3,0.4-2.3,0.8-2.9,1.2c-0.6,0.4-0.9,0.9-0.9,1.4
		c0,0.6,0.3,1.1,1,1.5s1.5,0.6,2.6,0.6c1.2,0,2.2-0.2,3-0.6c0.8-0.4,1.2-0.9,1.2-1.4c0-0.3-0.2-0.7-0.5-0.9c-0.3-0.3-0.9-0.6-1.7-1
		L114.4,18.8z M115.9,13.6c0.5,0,1-0.2,1.5-0.5c0.5-0.3,0.9-0.8,1.2-1.4c0.3-0.6,0.5-1.2,0.5-1.9c0-0.6-0.1-1.1-0.4-1.4
		c-0.3-0.3-0.7-0.5-1.2-0.5c-0.5,0-1,0.2-1.5,0.5c-0.5,0.3-0.9,0.8-1.2,1.3c-0.3,0.6-0.5,1.2-0.5,1.8c0,0.6,0.1,1.1,0.4,1.5
		C114.9,13.4,115.3,13.6,115.9,13.6z"/>
	<path class="st0" d="M135.7,15.9c0.2,0.2,0.2,0.4,0.2,0.5c0,0.3-0.1,0.6-0.4,0.9c-0.5,0.6-1,1.1-1.6,1.5c-0.6,0.4-1.1,0.6-1.6,0.6
		c-0.8,0-1.3-0.6-1.3-1.9c0-0.4,0.1-1.2,0.2-2.3c-0.8,1.3-1.6,2.3-2.6,3.1c-1,0.7-1.9,1.1-2.8,1.1c-0.9,0-1.5-0.3-2-0.9
		c-0.5-0.6-0.7-1.5-0.7-2.7c0-1.6,0.3-3,0.9-4.5c0.6-1.4,1.4-2.6,2.5-3.5c1.1-0.9,2.2-1.4,3.5-1.4c0.5,0,1,0.1,1.5,0.3
		s0.9,0.6,1.4,1.1l0.2-0.4c0.1-0.3,0.3-0.5,0.5-0.6c0.2-0.1,0.5-0.2,0.9-0.2h1c-0.3,0.7-0.8,1.9-1.2,3.4c-0.3,1-0.6,2.2-0.9,3.5
		c-0.1,0.5-0.2,1.1-0.3,1.7c-0.1,0.6-0.1,1.1-0.1,1.4c0,0.5,0.1,0.7,0.3,0.7c0.1,0,0.4-0.2,0.8-0.5c0.4-0.3,0.9-0.8,1.4-1.3
		L135.7,15.9z M132.3,9.7c-0.4-0.5-0.8-0.8-1.2-1.1c-0.4-0.3-0.8-0.4-1.1-0.4c-0.7,0-1.4,0.3-2.1,1c-0.7,0.6-1.3,1.5-1.8,2.6
		s-0.7,2.2-0.7,3.4c0,0.8,0.1,1.4,0.3,1.8c0.2,0.3,0.5,0.5,1,0.5c0.5,0,1.1-0.3,1.8-1c0.7-0.6,1.4-1.5,2.1-2.5c0.7-1,1.1-2,1.3-3
		L132.3,9.7z"/>
	<path class="st0" d="M146.2,15.9c0.3,0.1,0.5,0.3,0.6,0.5c0.1,0.2,0.2,0.5,0.2,0.9c0,0.7-0.3,1.2-0.8,1.7c-0.5,0.4-1.3,0.6-2.2,0.6
		c-0.8,0-1.7-0.1-2.7-0.4c-1-0.3-1.9-0.7-2.7-1.2l-0.6,1.4c-0.1,0-0.2,0-0.2,0c-0.1,0-0.2,0-0.3,0c-0.8,0-1.2-0.4-1.2-1.2v-0.4
		l7.7-8.1c-1.6-0.6-2.8-0.9-3.7-0.9c-0.2,0-0.4,0-0.7,0l-0.9,1.9l-0.6,0c-0.3,0-0.5-0.3-0.5-0.9c0-1,0.2-1.7,0.7-2.3
		c0.5-0.6,1.1-0.8,1.9-0.8c0.6,0,1.4,0.2,2.3,0.5c0.9,0.3,1.7,0.8,2.6,1.4l0.9-1.8c0,0,0.2,0,0.3,0c0.9,0,1.3,0.4,1.3,1.1v0.4
		l-8,8.5c1.7,0.5,3.3,0.7,4.6,0.7c0.8,0,1.3-0.5,1.5-1.6L146.2,15.9z"/>
	<path class="st0" d="M154.4,15.9c0.2,0.2,0.2,0.4,0.2,0.5c0,0.2-0.1,0.6-0.4,0.9c-0.5,0.6-1.1,1.1-1.8,1.5
		c-0.7,0.4-1.3,0.6-1.9,0.6c-0.9,0-1.3-0.5-1.3-1.5c0-0.3,0.1-0.8,0.2-1.4s0.5-1.9,1.1-3.8l1.3-4.5c-0.2,0-0.8,0-1.6,0h-1l0.1-0.5
		c0.1-0.3,0.2-0.5,0.3-0.6c0.1-0.1,0.4-0.2,0.8-0.3c0.3-0.1,0.8-0.2,1.4-0.3c0.6-0.1,1-0.1,1.3-0.1c0.7,0,1,0.3,1,0.9
		c0,0.6-0.2,1.7-0.6,3.3c-0.8,2.8-1.3,4.6-1.4,5.2c-0.2,0.6-0.2,1-0.2,1.1c0,0.2,0,0.3,0.1,0.3c0.1,0,0.5-0.2,1-0.6
		c0.5-0.4,1-0.8,1.3-1.2L154.4,15.9z M153.4,3.8c-0.4,0-0.7-0.1-0.9-0.3c-0.2-0.2-0.3-0.5-0.3-0.9c0-0.6,0.2-1.1,0.6-1.6
		c0.4-0.4,0.9-0.6,1.5-0.6c0.4,0,0.7,0.1,0.9,0.3c0.2,0.2,0.3,0.5,0.3,0.9c0,0.6-0.2,1.1-0.6,1.6C154.5,3.6,154,3.8,153.4,3.8z"/>
	<path class="st0" d="M169.6,15.9c0.2,0.2,0.2,0.4,0.2,0.5c0,0.3-0.1,0.6-0.4,0.9c-1.2,1.4-2.4,2.1-3.7,2.1c-0.4,0-0.7-0.1-1-0.4
		c-0.2-0.3-0.4-0.6-0.4-1.1c0-0.3,0.1-0.9,0.3-1.7c0.2-0.8,0.6-2.4,1.2-4.8c0.2-0.9,0.4-1.6,0.4-2.1c0-0.6-0.2-0.9-0.6-0.9
		c-0.6,0-1.4,0.4-2.3,1.2c-0.9,0.8-1.7,1.9-2.5,3.3c-0.8,1.4-1.3,2.8-1.6,4.2l-0.3,1.7c-0.1,0.3-0.3,0.5-0.8,0.5h-1.5l1.5-6.4
		c0.5-2,0.8-3.5,0.9-4.6c-0.2,0-0.8,0-1.6,0h-1l0.1-0.5c0-0.3,0.1-0.5,0.2-0.6c0.1-0.1,0.4-0.2,0.8-0.3c0.4-0.1,0.9-0.2,1.4-0.3
		c0.5-0.1,1-0.1,1.3-0.1c0.4,0,0.6,0.1,0.8,0.2c0.2,0.2,0.2,0.4,0.2,0.8c0,0.5-0.3,1.8-0.8,3.8c0.8-1.5,1.8-2.7,2.9-3.5
		s2.1-1.3,3.1-1.3c1.4,0,2.1,0.7,2.1,2.1c0,0.8-0.2,1.7-0.5,2.9c-0.6,2.2-1,3.6-1.1,4.2c-0.2,0.7-0.2,1.1-0.2,1.3
		c0,0.2,0.1,0.3,0.2,0.3c0.1,0,0.5-0.2,1.1-0.6c0.6-0.4,1-0.8,1.3-1.2L169.6,15.9z"/>
</g>
<g>
	<path class="st1" d="M12.4,14.7V6.6h2.6v8c0,1.9,1.6,2.4,2.5,2.4c2,0,2.7-1.2,2.7-1.9V6.6h2.6v12.5h-1.5l-1-1.4
		c-0.7,0.9-1.9,1.7-3.7,1.7C14.2,19.4,12.4,17.7,12.4,14.7z"/>
</g>
<g>
	<path class="st1" d="M42.5,2.2v17H44l1-1.4c0.7,0.9,1.9,1.7,3.6,1.7c2.3,0,4.3-1.4,4.3-4.6v-3.9c0-3.2-2-4.6-4.4-4.6
		c-1.7,0-2.8,0.8-3.4,1.5V2.2H42.5z M47.8,17c-1.6,0-2.8-0.8-2.8-2.5l0,0v-3.4c0-1.4,1.1-2.4,2.8-2.4c1.2,0,2.5,0.9,2.5,2.4v3.5
		C50.3,16.1,49.1,17,47.8,17z"/>
</g>
<g>
	<path class="st1" d="M32.6,2.2v5.7c-0.6-0.7-1.7-1.5-3.4-1.5c-2.4,0-4.4,1.4-4.4,4.6v3.9c0,3.2,2,4.6,4.3,4.6
		c1.7,0,2.9-0.8,3.6-1.7l1,1.4h1.5v-17H32.6z M27.3,14.7v-3.5c0-1.5,1.2-2.4,2.5-2.4c1.7,0,2.8,1,2.8,2.4v3.4l0,0
		c0,1.7-1.1,2.5-2.8,2.5C28.5,17,27.3,16.2,27.3,14.7z"/>
</g>
<g>
	<path class="st1" d="M54.7,2.2h2.6v17h-2.6V2.2z"/>
</g>
<g>
	<g>
		<rect x="37.5" y="6.6" class="st1" width="2.6" height="12.5"/>
	</g>
	<g>
		<circle class="st1" cx="38.8" cy="3.6" r="1.5"/>
	</g>
</g>
<g>
	<g>
		<path class="st1" d="M64.6,17c-1.8,0-2.7-0.9-2.7-2.2v-1h7.8V11c0-2.9-2-4.6-5.1-4.6c-3.2,0-5.3,1.8-5.3,4.6v3.8
			c0,2.9,2.1,4.6,5.3,4.6c2.4,0,4.2-1,4.9-2.7l-1.9-1.2C66.9,16.6,66,17,64.6,17z M61.9,11c0-1.3,0.9-2.2,2.6-2.2
			c1.7,0,2.6,0.9,2.6,2.2v0.8h-5.2V11z"/>
	</g>
</g>
<g>
	<path class="st1" d="M5.6,6.4C3,6.4,1.4,7.4,0.7,9l2.1,1.3c0.9-1.4,1.7-1.5,2.8-1.5c1.6,0,2.4,0.8,2.4,2v1l-2.2,0
		c-1.6,0-5.6,0.6-5.6,4c0,2.5,1.9,3.7,4.1,3.7c1.8,0,3.1-0.8,3.8-1.7l1,1.4h1.5v-8.6C10.6,8.1,9,6.4,5.6,6.4z M7.9,15.2
		c0,0.2,0,0.4-0.3,0.8C7.3,16.5,6.2,17,5,17c-1.3,0-2.2-0.5-2.2-1.6c0-1.5,2.4-1.8,3.9-1.9h1.1V15.2z"/>
</g>
</svg>
