<?xml version="1.0" encoding="UTF-8"?>
<svg width="82px" height="24px" viewBox="0 0 82 24" version="1.1" xmlns="http://www.w3.org/2000/svg" xmlns:xlink="http://www.w3.org/1999/xlink">
    <!-- Generator: Sketch 44 (41411) - http://www.bohemiancoding.com/sketch -->
    <title>Logo, white+mark</title>
    <desc>Created with Sketch.</desc>
    <defs>
        <polygon id="path-1" points="0.0750826816 15.6923077 9.42193743 15.6923077 9.42193743 0.116584615 0.0750826816 0.116584615 0.0750826816 15.6923077"></polygon>
        <polygon id="path-3" points="0 23.7692308 81.9356369 23.7692308 81.9356369 0.144 0 0.144"></polygon>
    </defs>
    <g id="Symbols" stroke="none" stroke-width="1" fill="none" fill-rule="evenodd">
        <g id="Desktop/Footer" transform="translate(-459.000000, -223.000000)">
            <g id="Footer-Copy">
                <g id="Logo,-white+mark" transform="translate(459.000000, 223.000000)">
                    <g id="Page-1">
                        <polygon id="Fill-1" fill="#F9991C" points="69.8158307 13.2738692 57.6960933 5.64394615 57.6960933 7.70471538 69.8158307 15.3351 81.9357972 7.70471538 81.9357972 5.64394615"></polygon>
                        <g id="Group-21" transform="translate(0.000000, 0.086769)">
                            <path d="M69.8122575,3.6471 C72.5425369,3.6471 74.9473358,5.05017692 76.3550788,7.17948462 L76.3537045,7.17948462 L74.5691737,8.3031 C71.8863078,4.70240769 66.9768441,4.07886923 63.5756765,6.91917692 C63.4760397,7.00248462 63.3796095,7.0881 63.2845536,7.17533077 L63.2733302,7.17417692 C64.6817603,5.04786923 67.0844978,3.6471 69.8122575,3.6471 Z" id="Fill-2" fill="#F9991C"></path>
                            <path d="M69.8122575,7.1502 C68.3335089,7.1502 67.0267771,7.88889231 66.233805,9.01966154 C66.8746877,8.56643077 67.6163525,8.30589231 68.4081793,8.30589231 C69.7105592,8.30589231 70.8794028,9.00812308 71.6815369,10.1215846 L73.4028497,9.03766154 L73.4037659,9.03766154 C72.6123972,7.89673846 71.2990229,7.1502 69.8122575,7.1502" id="Fill-4" fill="#F9991C"></path>
                            <path d="M61.6203659,4.0731 C66.6104553,0.0932538462 73.6723045,1.15963846 77.4333101,6.44425385 L77.4582765,6.48302308 L79.305338,5.32363846 L79.305338,5.32386923 C77.2823659,2.20502308 73.7861425,0.144023077 69.8123492,0.144023077 C65.893986,0.144023077 62.3652374,2.18471538 60.3237123,5.31694615 C60.6986676,4.9191 61.1847123,4.42063846 61.6203659,4.0731" id="Fill-6" fill="#F9991C"></path>
                            <path d="M11.0278318,19.4897308 L11.0278318,12.2124231 L13.3996475,12.2124231 L13.3996475,19.4011154 C13.3996475,21.1464231 14.8314408,21.5968846 15.6741168,21.5968846 C17.4694128,21.5968846 18.0569268,20.5307308 18.0569268,19.9217308 L18.0569268,12.2124231 L20.4287425,12.2124231 L20.4287425,23.5085769 L19.0487145,23.5085769 L18.1430497,22.2485769 C17.4964408,23.0306538 16.4398318,23.7596538 14.8657983,23.7596538 C12.6018654,23.7596538 11.0278318,22.2268846 11.0278318,19.4897308" id="Fill-8" fill="#FFFFFF"></path>
                            <path d="M42.7732156,21.5889692 C41.3072939,21.5889692 40.2456458,20.8765846 40.2825229,19.3484308 L40.2820648,19.3482 L40.2820648,16.2526615 C40.2820648,15.0198923 41.2360592,14.1159692 42.7942883,14.1159692 C43.8889196,14.1159692 44.9975229,14.9197385 44.9975229,16.2667385 L44.9975229,19.4382 C44.9975229,20.7852 43.8889196,21.5889692 42.7732156,21.5889692 L42.7732156,21.5889692 Z M37.9661374,8.18566154 L37.9661374,23.5006615 L39.3134112,23.5006615 L40.1764726,22.2406615 C40.8079642,23.0227385 41.881752,23.7612 43.439752,23.7612 C45.5236514,23.7612 47.3129922,22.4578154 47.3129922,19.6119692 L47.3129922,16.0929692 C47.3129922,13.2471231 45.544724,11.9437385 43.3554615,11.9437385 C41.8396067,11.9437385 40.8079642,12.6388154 40.2820648,13.3124308 L40.2820648,8.18566154 L37.9661374,8.18566154 Z" id="Fill-10" fill="#FFFFFF"></path>
                            <g id="Group-14" transform="translate(21.988827, 8.076923)">
                                <mask id="mask-2" fill="white">
                                    <use xlink:href="#path-1"></use>
                                </mask>
                                <g id="Clip-13"></g>
                                <path d="M2.39055196,11.3693538 L2.39055196,8.19789231 C2.39055196,6.85089231 3.49915531,6.04712308 4.59378659,6.04712308 C6.15201564,6.04712308 7.10601006,6.95104615 7.10601006,8.18381538 L7.10601006,11.2793538 L7.10555196,11.2793538 C7.14242905,12.8075077 6.08078101,13.5201231 4.61485922,13.5201231 C3.49915531,13.5201231 2.39055196,12.7161231 2.39055196,11.3693538 L2.39055196,11.3693538 Z M7.10601006,0.116584615 L7.10601006,5.24335385 C6.57988156,4.56996923 5.54846816,3.87489231 4.03261341,3.87489231 C1.84335084,3.87489231 0.0750826816,5.17827692 0.0750826816,8.02412308 L0.0750826816,11.5431231 C0.0750826816,14.3889692 1.86442346,15.6923538 3.94832291,15.6923538 C5.50632291,15.6923538 6.57988156,14.9538923 7.21160223,14.1715846 L8.07466369,15.4315846 L9.42193743,15.4315846 L9.42193743,0.116584615 L7.10601006,0.116584615 Z" id="Fill-12" fill="#FFFFFF" mask="url(#mask-2)"></path>
                            </g>
                            <mask id="mask-4" fill="white">
                                <use xlink:href="#path-3"></use>
                            </mask>
                            <g id="Clip-16"></g>
                            <polygon id="Fill-15" fill="#FFFFFF" mask="url(#mask-4)" points="48.9223911 23.5084615 51.2942067 23.5084615 51.2942067 8.19346154 48.9223911 8.19346154"></polygon>
                            <polygon id="Fill-17" fill="#FFFFFF" mask="url(#mask-4)" points="33.5338771 23.5086923 35.9056927 23.5086923 35.9056927 12.2125385 33.5338771 12.2125385"></polygon>
                            <path d="M34.7197849,10.8510923 C35.4648855,10.8510923 36.0688911,10.2425538 36.0688911,9.49186154 C36.0688911,8.74116923 35.4648855,8.13263077 34.7197849,8.13263077 C33.9746844,8.13263077 33.3706788,8.74116923 33.3706788,9.49186154 C33.3706788,10.2425538 33.9746844,10.8510923 34.7197849,10.8510923" id="Fill-18" fill="#FFFFFF" mask="url(#mask-4)"></path>
                            <path d="M55.4058883,16.1009308 C55.4058883,14.9279308 56.2034413,14.1239308 57.7341844,14.1239308 C59.2651564,14.1239308 60.0629385,14.9279308 60.0629385,16.1009308 L60.0629385,16.8177 L55.4058883,16.8177 L55.4058883,16.1009308 Z M57.8205363,21.5969308 C56.2034413,21.5969308 55.4058883,20.7497769 55.4058883,19.5765462 L55.4058883,18.6426231 L62.4347542,18.6426231 L62.4347542,16.1009308 C62.4347542,13.4941615 60.6234246,11.9517 57.8205363,11.9517 C54.9097654,11.9517 53.0340726,13.5809308 53.0340726,16.1443154 L53.0340726,19.6199308 C53.0340726,22.2269308 54.9097654,23.7691615 57.8205363,23.7691615 C60.0024693,23.7691615 61.5677989,22.8843923 62.2240279,21.3717 L60.5029441,20.3007 C59.8913799,21.1663154 59.0434358,21.5969308 57.8205363,21.5969308 L57.8205363,21.5969308 Z" id="Fill-19" fill="#FFFFFF" mask="url(#mask-4)"></path>
                            <path d="M7.03026313,19.8915462 C7.01193911,20.0639308 7.00850335,20.2829308 6.76868771,20.5843154 C6.40678827,21.1021615 5.50364302,21.5969308 4.42962626,21.5969308 C3.30819609,21.5969308 2.48911229,21.1409308 2.48911229,20.1848538 C2.48911229,18.8304692 4.67058715,18.5362385 6.00938603,18.4831615 L7.03026313,18.4831615 L7.03026313,19.8915462 Z M4.91704525,11.9517 C2.6162352,11.9517 1.12443073,12.8863154 0.544475419,14.2923923 L2.39772123,15.4543154 C3.17191117,14.2130077 3.91151453,14.1239308 4.91704525,14.1239308 C6.36166536,14.1239308 7.03026313,14.8192385 7.03026313,15.9271615 L7.03026313,16.8100846 L5.04187765,16.8130846 C3.59153128,16.8130846 2.29050279e-05,17.3099308 2.29050279e-05,20.4456231 C2.29050279e-05,22.6614692 1.66132458,23.7691615 3.6881905,23.7691615 C5.28375475,23.7691615 6.46977709,23.0307 7.11638603,22.2486231 L8.02205084,23.5086231 L9.40207877,23.5086231 L9.40207877,15.7750846 C9.40207877,13.5592385 7.93569888,11.9517 4.91704525,11.9517 L4.91704525,11.9517 Z" id="Fill-20" fill="#FFFFFF" mask="url(#mask-4)"></path>
                        </g>
                    </g>
                </g>
            </g>
        </g>
    </g>
</svg>