<svg id="check" xmlns="http://www.w3.org/2000/svg" xmlns:xlink="http://www.w3.org/1999/xlink" width="24" height="24" viewBox="0 0 24 24">
  <defs>
    <clipPath id="clip-path">
      <path id="Shape" d="M1.707,6.293A1,1,0,0,0,.293,7.707l5,5a1,1,0,0,0,1.414,0l11-11A1,1,0,0,0,16.293.293L6,10.586Z" transform="translate(3 6)"/>
    </clipPath>
  </defs>
  <g id="Group_14" data-name="Group 14">
    <path id="Shape-2" data-name="Shape" d="M1.707,6.293A1,1,0,0,0,.293,7.707l5,5a1,1,0,0,0,1.414,0l11-11A1,1,0,0,0,16.293.293L6,10.586Z" transform="translate(3 6)"/>
    <g id="Mask_Group_14" data-name="Mask Group 14" clip-path="url(#clip-path)">
      <g id="COLOR_black" data-name="COLOR/ black">
        <rect id="Rectangle" width="24" height="24" fill="#6174eb"/>
      </g>
    </g>
  </g>
</svg>
