<?xml version="1.0" encoding="utf-8"?>
<svg version="1.1" xmlns="http://www.w3.org/2000/svg" xmlns:xlink="http://www.w3.org/1999/xlink" height="30" width="30">
  <defs>
    <path id="path-1" opacity="1" fill-rule="evenodd" d="M16.335071563720703,3.313408374786377 L24.335071563720703,7.313408374786377 C25.35455894470215,7.820003032684326 25.999467849731445,8.859992027282715 26.000072479248047,9.998939514160156 L26.000072479248047,19.529470443725586 C25.999467849731445,20.667884826660156 25.35455894470215,21.707874298095703 24.3372859954834,22.21336555480957 L16.337574005126953,26.21322250366211 C15.492520332336426,26.63608741760254 14.497624397277832,26.63608741760254 13.65285873413086,26.21336555480957 L5.650096893310547,22.211978912353516 C4.631585597991943,21.69878387451172 3.992159843444824,20.652450561523438 4.000072479248047,19.518938064575195 L4.000072956085205,9.998408317565918 C4.00067663192749,8.859992027282715 4.645586013793945,7.820003032684326 5.662858963012695,7.314511775970459 L9.468998908996582,5.411443710327148 C9.52310848236084,5.377608299255371 9.580211639404297,5.349104881286621 9.639432907104492,5.326226234436035 L13.665072441101074,3.313408374786377 C14.506021499633789,2.8955304622650146 15.494123458862305,2.8955304622650146 16.335071563720703,3.313408374786377 L10.005070686340332,7.379472255706787 L7.241137504577637,8.76143741607666 L15.000072479248047,12.640905380249023 L17.76400375366211,11.258939743041992 L10.005070686340332,7.379472255706787 L20.000072479248047,10.140905380249023 L12.24113941192627,6.261438846588135 L14.557286262512207,5.103365898132324 C14.835084915161133,4.965327739715576 15.164036750793457,4.965177059173584 15.444154739379883,5.104013919830322 L22.759004592895508,8.761439323425293 L20.000072479248047,10.140905380249023 L20.43825340270996,12.157881736755371 C20.444766998291016,12.154712677001953 20.45124626159668,12.151473045349121 20.457693099975586,12.148161888122559 L24.000072479248047,10.376972198486328 L24.000072479248047,19.52893829345703 C23.99987030029297,19.907878875732422 23.784900665283203,20.25454330444336 23.445072174072266,20.42340850830078 L16.000072479248047,24.145904541015625 L16.000072479248047,14.376973152160645 L20.43825340270996,12.157881736755371 L6.0000715255737305,10.376972198486328 L14.000072479248047,14.376972198486328 L14.000072479248047,24.15090560913086 L6.547286033630371,20.424510955810547 C6.210544586181641,20.254833221435547 5.997402667999268,19.906055450439453 6.0000481605529785,19.525897979736328 L6.0000715255737305,10.376972198486328 L16.335071563720703,3.313408374786377Z"/>
    <mask id="mask-2" maskUnits="userSpaceOnUse" maskContentUnits="userSpaceOnUse">
      <rect opacity="1" x="0" y="0" width="30" height="30" fill="Black"/>
      <use xlink:href="#path-1" fill="White"/>
    </mask>
    <rect id="rect-3" opacity="1" x="0" y="0" width="30" height="30" rx="0" ry="0"/>
  </defs>
  <g opacity="1">
    <g opacity="1">
      <use xlink:href="#path-1" fill="rgb(0,0,0)" fill-opacity="1"/>
    </g>
    <g mask="url(#mask-2)">
      <g opacity="1">
        <g opacity="1">
          <use xlink:href="#rect-3" fill="rgb(95,156,250)" fill-opacity="1"/>
        </g>
      </g>
    </g>
  </g>
</svg>