<?xml version="1.0" encoding="utf-8"?>
<!-- Generator: Adobe Illustrator 19.0.0, SVG Export Plug-In . SVG Version: 6.00 Build 0)  -->
<svg version="1.1" id="Layer_1" xmlns="http://www.w3.org/2000/svg" xmlns:xlink="http://www.w3.org/1999/xlink" x="0px" y="0px"
	 viewBox="-158 364.7 293.2 65.3" style="enable-background:new -158 364.7 293.2 65.3;" xml:space="preserve">
<style type="text/css">
	.st0{fill:#FFFFFF;}
</style>
<g id="Layer_1_1_">
</g>
<g id="Isolation_Mode">
	<g>
		<path class="st0" d="M-71.7,384.8c-1.2-1.3-2.8-2.3-4.5-3c-1.8-0.7-3.8-1.1-6-1.1c-3.1,0-6,0.5-8.7,1.4c-2.7,1-5.2,2.4-7.4,4.4
			l2,3.4c0.3,0.5,0.8,1,1.3,1.4s1.2,0.6,1.9,0.6c0.9,0,1.6-0.1,2.2-0.4c0.6-0.3,1.2-0.6,1.9-1c0.7-0.4,1.4-0.7,2.2-1
			c0.8-0.3,1.9-0.4,3.2-0.4c1.6,0,2.9,0.5,3.8,1.4c0.9,1,1.3,2.5,1.3,4.7v1.6c-4.2,0.1-7.7,0.5-10.5,1.3c-2.8,0.8-5,1.7-6.6,2.8
			c-1.6,1.1-2.8,2.4-3.4,3.7c-0.7,1.4-1,2.7-1,4c0,1.7,0.3,3.1,0.8,4.4c0.5,1.3,1.3,2.3,2.2,3.2c1,0.9,2.1,1.5,3.5,1.9
			s2.9,0.7,4.6,0.7c1.3,0,2.4-0.1,3.4-0.3c1-0.2,2-0.5,2.9-0.9s1.8-0.9,2.6-1.5c0.9-0.6,1.7-1.3,2.7-2.1l0.8,2
			c0.4,0.9,0.8,1.5,1.3,1.8c0.5,0.3,1.3,0.4,2.4,0.4h5v-23c0-2.1-0.3-4.1-1-5.8C-69.5,387.6-70.5,386.1-71.7,384.8z M-78.6,408.4
			c-1.1,1.1-2.2,1.9-3.2,2.4c-1.1,0.5-2.3,0.7-3.7,0.7c-1.3,0-2.3-0.3-3-0.8s-1-1.4-1-2.6c0-0.6,0.2-1.2,0.5-1.8
			c0.3-0.5,0.9-1,1.7-1.5c0.8-0.4,2-0.8,3.4-1.1c1.4-0.3,3.2-0.5,5.4-0.6v5.3C-78.5,408.4-78.6,408.4-78.6,408.4z"/>
		<path class="st0" d="M-31.9,384.8c-1.1-1.2-2.4-2.2-3.9-2.9c-1.6-0.7-3.3-1-5.3-1c-1.2,0-2.3,0.1-3.3,0.3s-1.9,0.5-2.8,0.9
			s-1.7,0.9-2.4,1.4c-0.8,0.6-1.5,1.2-2.2,1.8l-0.6-2.1c-0.4-1.2-1.3-1.8-2.7-1.8h-6.8v36.8h11V392c1-0.9,2-1.6,3.1-2.1
			s2.2-0.8,3.4-0.8c1.6,0,2.8,0.5,3.7,1.5c0.8,1,1.2,2.4,1.2,4.2v23.4h11v-23.4c0-2-0.3-3.9-0.8-5.6C-30,387.5-30.8,386-31.9,384.8z
			"/>
		<rect x="-117.2" y="365.1" class="st0" width="11" height="53.2"/>
		<path class="st0" d="M-126.7,385.7c-1.2-1.6-2.6-2.8-4.2-3.7c-1.6-0.9-3.4-1.3-5.3-1.3c-2.5,0-4.7,0.5-6.5,1.5s-3.5,2.2-4.9,3.8
			l-0.9-2.7c-0.4-1.2-1.3-1.8-2.7-1.8h-6.8V430h11v-14.2c1.1,0.9,2.2,1.7,3.5,2.2s2.9,0.8,4.8,0.8c2.3,0,4.5-0.5,6.4-1.5
			c1.9-1,3.6-2.3,5-4c1.4-1.7,2.5-3.8,3.2-6.1c0.8-2.3,1.2-4.9,1.2-7.7c0-3-0.3-5.6-1-7.9C-124.6,389.3-125.5,387.3-126.7,385.7z
			 M-134.8,404.7c-0.4,1.4-0.8,2.6-1.5,3.5c-0.6,0.9-1.4,1.5-2.2,1.9c-0.9,0.4-1.8,0.6-2.8,0.6c-1.1,0-2.1-0.2-3.1-0.6
			s-1.9-1-2.7-1.9v-15.6c0.9-1.1,1.9-2,3-2.6c1-0.6,2.4-0.9,4-0.9c0.9,0,1.7,0.2,2.4,0.5c0.7,0.4,1.3,0.9,1.8,1.8
			c0.5,0.8,0.9,1.9,1.2,3.2c0.3,1.3,0.4,3,0.4,4.9C-134.3,401.6-134.4,403.3-134.8,404.7z"/>
		<rect x="124.2" y="364.7" class="st0" width="11" height="53.2"/>
		<rect x="107.3" y="364.7" class="st0" width="11" height="53.2"/>
		<path class="st0" d="M2.3,399.3c-0.8-0.7-1.7-1.4-2.7-1.9s-2.1-1-3.1-1.3c-1.1-0.4-2.1-0.7-3.1-1c-1-0.3-1.9-0.6-2.7-1
			c-0.8-0.3-1.4-0.7-1.9-1.2c-0.5-0.4-0.7-1-0.7-1.7c0-0.9,0.4-1.7,1.1-2.2c0.7-0.5,1.8-0.8,3.2-0.8c1,0,1.8,0.1,2.6,0.3
			c0.8,0.2,1.4,0.5,2,0.7c0.6,0.3,1.2,0.5,1.7,0.7c0.5,0.2,1,0.3,1.6,0.3c0.5,0,0.9-0.1,1.2-0.3c0.3-0.2,0.6-0.5,0.9-1l2.5-3.9
			c-0.7-0.7-1.5-1.3-2.4-1.9s-1.9-1.1-3-1.5s-2.3-0.8-3.5-1c-0.8-0.1-1.5-0.2-2.3-0.3v-2.9h-6.5v3.4c-0.5,0.1-1,0.2-1.5,0.3
			c-1.8,0.6-3.3,1.5-4.5,2.5c-1.2,1.1-2.1,2.3-2.7,3.7c-0.6,1.4-0.9,2.9-0.9,4.5c0,1.7,0.2,3.1,0.7,4.3c0.5,1.2,1.1,2.2,2,3
			c0.8,0.8,1.7,1.5,2.8,2c1,0.5,2.1,1,3.1,1.4c1.1,0.4,2.1,0.7,3.1,1c1,0.3,1.9,0.6,2.8,1c0.8,0.3,1.5,0.8,2,1.2
			c0.5,0.5,0.7,1.1,0.7,1.8c0,0.4-0.1,0.8-0.2,1.2c-0.2,0.4-0.4,0.7-0.8,1c-0.4,0.3-0.8,0.6-1.4,0.7c-0.6,0.2-1.3,0.3-2.2,0.3
			c-1.2,0-2.2-0.1-3-0.4c-0.8-0.3-1.5-0.6-2.1-0.9c-0.6-0.3-1.1-0.6-1.6-0.9c-0.5-0.3-1.1-0.4-1.7-0.4c-0.7,0-1.2,0.1-1.7,0.4
			c-0.4,0.3-0.8,0.6-1.1,1.1l-2.6,4c0.7,0.6,1.6,1.2,2.6,1.8c1,0.6,2.1,1,3.2,1.4c1.2,0.4,2.4,0.7,3.6,1c0.5,0.1,0.9,0.1,1.4,0.2v3
			h6.5v-3.2c0.9-0.1,1.8-0.3,2.6-0.6c1.9-0.6,3.6-1.5,4.9-2.6c1.3-1.1,2.3-2.4,3-4c0.7-1.5,1-3.2,1-5c0-1.5-0.2-2.8-0.7-3.8
			C3.7,401,3.1,400.1,2.3,399.3z"/>
		<path class="st0" d="M55.6,381.6c-0.5,0.4-0.9,0.8-1.1,1.4l-3.9,16.4c-0.3,1.3-0.6,2.5-0.9,3.7c-0.3,1.2-0.5,2.4-0.7,3.6
			c-0.3-1.2-0.6-2.4-0.9-3.6c-0.3-1.2-0.7-2.4-1-3.7l-4.4-16.5c-0.2-0.5-0.6-1-1.1-1.4c-0.5-0.4-1.2-0.6-2-0.6h-4.9
			c-0.7,0-1.3,0.2-1.8,0.6c-0.5,0.4-0.9,0.8-1.1,1.4l-4.6,16.5c-0.4,1.3-0.8,2.5-1.1,3.6c-0.3,1.2-0.7,2.3-1,3.5
			c-0.2-1.2-0.4-2.4-0.6-3.5c-0.2-1.2-0.5-2.4-0.8-3.6L20,382.9c-0.2-0.5-0.6-1-1.1-1.4c-0.5-0.4-1.2-0.6-2-0.6H8.1l11.4,36.8H28
			c1.2,0,2-0.6,2.3-1.8l5.3-18.3c0.3-0.8,0.5-1.7,0.7-2.5c0.2-0.8,0.4-1.7,0.6-2.5c0.2,0.8,0.3,1.6,0.6,2.5c0.2,0.8,0.4,1.6,0.7,2.5
			l5.3,18.4c0.2,0.7,0.4,1.1,0.8,1.4c0.3,0.3,0.7,0.4,1.2,0.4h8.9L65.8,381h-8.4C56.8,381,56.1,381.2,55.6,381.6z"/>
		<path class="st0" d="M97.2,384.9c-1.5-1.4-3.2-2.5-5.2-3.3c-2-0.8-4.3-1.1-6.7-1.1c-2.8,0-5.3,0.5-7.6,1.5c-2.2,1-4.1,2.3-5.7,3.9
			c-1.6,1.6-2.8,3.6-3.6,5.8s-1.3,4.5-1.3,7c0,3.3,0.5,6.1,1.5,8.6s2.3,4.5,4,6.2c1.7,1.7,3.7,2.9,5.9,3.7c2.3,0.8,4.7,1.3,7.3,1.3
			c1.3,0,2.6-0.1,4-0.3s2.8-0.5,4.2-1s2.7-1.1,4-1.9c1.3-0.8,2.5-1.9,3.7-3.2l-3.2-3.9c-0.5-0.6-1.1-1-2-1c-0.7,0-1.3,0.2-1.9,0.5
			s-1.3,0.7-2,1c-0.7,0.4-1.5,0.7-2.5,1c-0.9,0.3-2,0.5-3.3,0.5c-2.4,0-4.3-0.7-5.9-2.1c-1.5-1.4-2.5-3.6-2.8-6.7h21.2
			c0.5,0,0.9-0.1,1.2-0.2c0.3-0.1,0.6-0.3,0.8-0.6c0.2-0.3,0.3-0.7,0.4-1.2s0.1-1.2,0.1-2c0-2.7-0.4-5-1.2-7.1
			C99.8,388.1,98.7,386.3,97.2,384.9z M78.3,395c0.4-2.2,1.2-4,2.3-5.2c1.2-1.2,2.8-1.8,4.9-1.8c1.2,0,2.2,0.2,3,0.6s1.5,0.9,2,1.6
			c0.5,0.6,0.9,1.4,1.1,2.2c0.2,0.8,0.3,1.7,0.3,2.6C91.9,395,78.3,395,78.3,395z"/>
	</g>
</g>
</svg>
