<svg xmlns="http://www.w3.org/2000/svg" width="10.028" height="18.548" viewBox="0 0 10.028 18.548">
  <g id="facebook-logo" transform="translate(-22.077)">
    <path id="Path_19" data-name="Path 19" d="M31.728,0,29.322,0a4.224,4.224,0,0,0-4.449,4.565v2.1H22.455a.378.378,0,0,0-.378.378V10.1a.378.378,0,0,0,.378.378h2.418V18.17a.378.378,0,0,0,.378.378h3.155a.378.378,0,0,0,.378-.378V10.475h2.828a.378.378,0,0,0,.378-.378V7.048a.378.378,0,0,0-.378-.378H28.785V4.885c0-.858.2-1.293,1.321-1.293h1.62a.378.378,0,0,0,.378-.378V.382A.378.378,0,0,0,31.728,0Z" fill="#fff"/>
  </g>
</svg>
