<svg id="Engineer" xmlns="http://www.w3.org/2000/svg" width="54.783" height="54.782" viewBox="0 0 54.783 54.782">
  <path id="Path_123" data-name="Path 123" d="M56.02,23.926l-5.675-.946a21.837,21.837,0,0,0-1.6-3.87l3.344-4.683a.913.913,0,0,0-.1-1.176L45.532,6.794a.913.913,0,0,0-1.176-.1l-4.683,3.344a21.837,21.837,0,0,0-3.87-1.6l-.946-5.675a.913.913,0,0,0-.9-.762h-9.13a.913.913,0,0,0-.9.762L22.98,8.438a21.836,21.836,0,0,0-3.87,1.6L14.427,6.7a.913.913,0,0,0-1.176.1L6.794,13.251a.913.913,0,0,0-.1,1.176l3.344,4.683a21.836,21.836,0,0,0-1.6,3.87l-5.675.946a.913.913,0,0,0-.762.9v9.13a.913.913,0,0,0,.762.9l5.675.946a21.837,21.837,0,0,0,1.6,3.87L6.7,44.356a.913.913,0,0,0,.1,1.176l6.456,6.456a.913.913,0,0,0,1.176.1L19.11,48.74a21.836,21.836,0,0,0,3.87,1.6l.946,5.675a.913.913,0,0,0,.9.762h9.13a.913.913,0,0,0,.9-.762l.946-5.675a21.837,21.837,0,0,0,3.87-1.6l4.683,3.344a.913.913,0,0,0,1.176-.1l6.456-6.456a.913.913,0,0,0,.1-1.176L48.74,39.673a21.837,21.837,0,0,0,1.6-3.87l5.675-.946a.913.913,0,0,0,.762-.9v-9.13A.913.913,0,0,0,56.02,23.926Zm-1.064,9.257-5.478.913a.913.913,0,0,0-.73.657,19.971,19.971,0,0,1-1.879,4.531.913.913,0,0,0,.051.982l3.229,4.521-5.361,5.361-4.52-3.228a.913.913,0,0,0-.982-.051,19.952,19.952,0,0,1-4.532,1.877.913.913,0,0,0-.657.73l-.913,5.478H25.6l-.913-5.478a.913.913,0,0,0-.657-.73A19.952,19.952,0,0,1,19.5,46.869a.913.913,0,0,0-.982.051l-4.52,3.229-5.361-5.36,3.228-4.521a.913.913,0,0,0,.051-.982,19.97,19.97,0,0,1-1.877-4.531A.913.913,0,0,0,9.3,34.1l-5.478-.913V25.6L9.3,24.686a.913.913,0,0,0,.73-.657A19.97,19.97,0,0,1,11.914,19.5a.913.913,0,0,0-.051-.982L8.633,13.995l5.361-5.361,4.521,3.228a.913.913,0,0,0,.982.051,19.97,19.97,0,0,1,4.531-1.877.913.913,0,0,0,.657-.73L25.6,3.826h7.584L34.1,9.3a.913.913,0,0,0,.657.73,19.97,19.97,0,0,1,4.531,1.879.913.913,0,0,0,.982-.051l4.521-3.229L50.149,14l-3.228,4.52a.913.913,0,0,0-.051.982,19.97,19.97,0,0,1,1.877,4.531.913.913,0,0,0,.73.657l5.478.913Z" transform="translate(-2 -2)" fill="#bac6ca"/>
  <path id="Path_124" data-name="Path 124" d="M30.348,13A17.348,17.348,0,1,0,47.7,30.348,17.348,17.348,0,0,0,30.348,13Zm.913,7.4a4.58,4.58,0,0,1,3.561,3.561H31.261Zm-1.826,3.561H25.874A4.58,4.58,0,0,1,29.435,20.4ZM24.87,25.783H35.826a.913.913,0,1,1,0,1.826H24.87a.913.913,0,1,1,0-1.826Zm.913,3.652h9.13v2.739a2.739,2.739,0,0,1-2.739,2.739H28.522a2.739,2.739,0,0,1-2.739-2.739ZM36.739,44.476a15.247,15.247,0,0,1-1.826.706V36.907a2.739,2.739,0,0,1,1.826,2.571Zm-9.13-7.737h5.478v1.826H27.609Zm-1.826.168v8.275a15.248,15.248,0,0,1-1.826-.706v-5a2.739,2.739,0,0,1,1.826-2.571Zm1.826,8.706V40.391h5.478v5.222a14.75,14.75,0,0,1-5.478,0ZM38.565,43.5V39.478a4.559,4.559,0,0,0-3-4.272,4.532,4.532,0,0,0,1.178-3.032V29.267a2.723,2.723,0,0,0-.049-5.158,6.391,6.391,0,0,0-12.684,0,2.723,2.723,0,0,0-.049,5.158v2.907a4.532,4.532,0,0,0,1.178,3.032,4.559,4.559,0,0,0-3,4.272V43.5a15.522,15.522,0,1,1,16.435,0Z" transform="translate(-2.957 -2.957)" fill="#bac6ca"/>
</svg>
