<svg id="implement" xmlns="http://www.w3.org/2000/svg" width="59" height="59" viewBox="0 0 59 59">
  <path id="Path_125" data-name="Path 125" d="M4.917,136.183h44.25a.983.983,0,0,0,.983-.983V109.633H48.183v24.583H4.917a2.95,2.95,0,1,1,0-5.9H6.883a.983.983,0,0,0,.983-.983v-29.5H23.6V95.867H7.867V88.983A.983.983,0,0,0,6.883,88H4.917A4.922,4.922,0,0,0,0,92.917v38.35A4.922,4.922,0,0,0,4.917,136.183ZM1.967,96.85V92.917a2.95,2.95,0,0,1,2.95-2.95H5.9V126.35H4.917a4.9,4.9,0,0,0-2.95.983Zm0,0" transform="translate(0 -77.183)" fill="#bac6ca"/>
  <path id="Path_126" data-name="Path 126" d="M92.783,192h-11.8a.983.983,0,0,0-.983.983v7.867a.983.983,0,0,0,.983.983h11.8a.983.983,0,0,0,.983-.983V197.9H97.7v-1.967H93.767v-2.95A.983.983,0,0,0,92.783,192Zm-.983,7.867H81.967v-5.9H91.8Zm0,0" transform="translate(-70.167 -168.4)" fill="#bac6ca"/>
  <path id="Path_127" data-name="Path 127" d="M102.617,303.733h11.8a.983.983,0,0,0,.983-.983v-7.867a.983.983,0,0,0-.983-.983H109.5V288h-1.967v5.9h-4.917a.983.983,0,0,0-.983.983v2.95H93.767v-2.95a.983.983,0,0,0-.983-.983h-11.8a.983.983,0,0,0-.983.983v7.867a.983.983,0,0,0,.983.983h11.8a.983.983,0,0,0,.983-.983V299.8h7.867v2.95A.983.983,0,0,0,102.617,303.733Zm.983-7.867h9.833v5.9H103.6Zm-11.8,5.9H81.967v-5.9H91.8Zm0,0" transform="translate(-70.167 -252.6)" fill="#bac6ca"/>
  <path id="Path_128" data-name="Path 128" d="M280.85,64a8.85,8.85,0,1,0,8.85,8.85A8.85,8.85,0,0,0,280.85,64Zm0,15.733a6.883,6.883,0,1,1,6.883-6.883A6.883,6.883,0,0,1,280.85,79.733Zm0,0" transform="translate(-238.567 -56.133)" fill="#bac6ca"/>
  <path id="Path_129" data-name="Path 129" d="M240.45,20.65a.983.983,0,0,0,.983-.983v-5.9a.983.983,0,0,0-.983-.983h-3.582a13.026,13.026,0,0,0-.778-1.878l2.537-2.528a.983.983,0,0,0,0-1.392l-4.175-4.179a.982.982,0,0,0-1.391,0l-2.533,2.537a13.081,13.081,0,0,0-1.878-.778V.983A.983.983,0,0,0,227.666,0h-5.9a.983.983,0,0,0-.983.983V4.566a13.082,13.082,0,0,0-1.878.778l-2.529-2.537a.982.982,0,0,0-1.391,0l-4.18,4.176a.983.983,0,0,0,0,1.392l2.537,2.528a13,13,0,0,0-.777,1.881h-3.582a.983.983,0,0,0-.983.983v5.9a.983.983,0,0,0,.983.983h3.582a13.026,13.026,0,0,0,.778,1.878l-2.537,2.528a.983.983,0,0,0,0,1.393l4.175,4.169a.984.984,0,0,0,1.391,0L218.9,28.09a13.15,13.15,0,0,0,1.882.778V32.45a.983.983,0,0,0,.983.983h5.9a.983.983,0,0,0,.983-.983V28.868a13.093,13.093,0,0,0,1.879-.778l2.529,2.528a.984.984,0,0,0,1.39,0l4.179-4.17a.983.983,0,0,0,0-1.393l-2.537-2.528a13.015,13.015,0,0,0,.778-1.877Zm-5.267-1.234a11.245,11.245,0,0,1-1.159,2.793.983.983,0,0,0,.156,1.192l2.36,2.352-2.786,2.78L231.4,26.179a.984.984,0,0,0-1.191-.155,11.2,11.2,0,0,1-2.793,1.158.984.984,0,0,0-.736.951v3.334H222.75V28.133a.983.983,0,0,0-.733-.951,11.2,11.2,0,0,1-2.793-1.158.984.984,0,0,0-1.191.155l-2.353,2.353-2.786-2.779,2.36-2.352a.983.983,0,0,0,.156-1.192,11.247,11.247,0,0,1-1.159-2.793.983.983,0,0,0-.951-.733h-3.334V14.75H213.3a.983.983,0,0,0,.95-.733,11.248,11.248,0,0,1,1.159-2.793.983.983,0,0,0-.156-1.192l-2.36-2.353,2.787-2.787,2.353,2.36a.983.983,0,0,0,1.192.156,11.2,11.2,0,0,1,2.793-1.158.984.984,0,0,0,.732-.95V1.967h3.933V5.3a.983.983,0,0,0,.733.951,11.2,11.2,0,0,1,2.793,1.158.983.983,0,0,0,1.194-.156l2.353-2.36,2.787,2.787-2.36,2.353a.982.982,0,0,0-.155,1.192,11.261,11.261,0,0,1,1.158,2.793.983.983,0,0,0,.947.732h3.334v3.933h-3.334a.983.983,0,0,0-.95.733Zm0,0" transform="translate(-182.433 0)" fill="#bac6ca"/>
  <path id="Path_130" data-name="Path 130" d="M315.933,104a3.933,3.933,0,1,0,3.933,3.933A3.934,3.934,0,0,0,315.933,104Zm0,5.9a1.967,1.967,0,1,1,1.967-1.967A1.967,1.967,0,0,1,315.933,109.9Zm0,0" transform="translate(-273.65 -91.217)" fill="#bac6ca"/>
</svg>
