<svg id="manufacture" xmlns="http://www.w3.org/2000/svg" width="56.609" height="56.609" viewBox="0 0 56.609 56.609">
  <g id="Group_29" data-name="Group 29" transform="translate(0 0)">
    <g id="Group_28" data-name="Group 28" transform="translate(0 0)">
      <path id="Path_120" data-name="Path 120" d="M4.021,41.314l2.83-13.209a.942.942,0,0,1,.694-.717l7.294-1.824,3.313-3.312V7.518a4.7,4.7,0,1,1,7.576-5.569l27.4,1.826h0a5.651,5.651,0,0,1,3.711,9.865v30.7h2.831a.943.943,0,0,1,.943.942h0V55.664a.943.943,0,0,1-.942.943H46.456a.943.943,0,0,1-.943-.942h0V45.286a.943.943,0,0,1,.942-.943h2.831V13.965L25.7,8.723V22.252l3.269,3.268,7.226.9a.944.944,0,0,1,.808.751l2.83,14.152a.943.943,0,0,1-.5,1.029l-5.661,2.83A.944.944,0,0,1,32.368,44l1.7-4.385-2.515-6.838-7.943-3.531H20.239L12.3,32.778,9.781,39.616,11.484,44a.944.944,0,0,1-1.3,1.186l-5.661-2.83A.943.943,0,0,1,4.021,41.314Zm54.7,13.407V48.526L54.78,54.721Zm-11.322,0h3.942L47.4,48.526Zm.775-8.491,4.885,7.678,4.885-7.678Zm6.772-1.887V14.764a5.555,5.555,0,0,1-3.774,0V44.343ZM53.061,13.208a3.774,3.774,0,1,0-3.774-3.774A3.774,3.774,0,0,0,53.061,13.208ZM47.886,11.72A5.635,5.635,0,0,1,49.1,5.4L26.56,3.9a4.685,4.685,0,0,1,.083.82,4.656,4.656,0,0,1-.549,2.161ZM21.926,1.886a2.83,2.83,0,1,0,2.83,2.83A2.83,2.83,0,0,0,21.926,1.886ZM20.039,9.034V21.7h3.774V9.034A4.652,4.652,0,0,1,20.039,9.034ZM8.84,42.4l-.948-2.438a.945.945,0,0,1-.006-.667l2.776-7.548a.944.944,0,0,1,.5-.537l8.491-3.774a.95.95,0,0,1,.383-.081h3.774a.946.946,0,0,1,.383.081l8.491,3.774a.943.943,0,0,1,.5.537L35.966,39.3a.945.945,0,0,1-.006.667L35.012,42.4l2.829-1.414L35.287,28.212l-6.873-.86a.942.942,0,0,1-.55-.269l-3.5-3.5h-4.88l-3.5,3.5a.945.945,0,0,1-.439.248L8.574,29.076,6.019,41Z" transform="translate(-4 0.001)" fill="#bac6ca"/>
    </g>
  </g>
  <g id="Group_31" data-name="Group 31" transform="translate(46.565 7.931)">
    <g id="Group_30" data-name="Group 30" transform="translate(0 0)">
      <ellipse id="Ellipse_7" data-name="Ellipse 7" cx="2.283" cy="1.826" rx="2.283" ry="1.826" fill="#bac6ca"/>
    </g>
  </g>
  <g id="Group_33" data-name="Group 33" transform="translate(8.547 32.078)">
    <g id="Group_32" data-name="Group 32">
      <path id="Path_121" data-name="Path 121" d="M253.034,279.608l1.132-.5c.039-.135.079-.268.123-.4l-.631-1.088a.944.944,0,0,1-.007-.933,9.677,9.677,0,0,1,1.233-1.724.938.938,0,0,1,.915-.291l1.189.272c.1-.077.2-.153.307-.226l.116-1.265a.946.946,0,0,1,.639-.808l1.786-.6a.944.944,0,0,1,1.015.278l.838.971h.328l.836-.97a.943.943,0,0,1,1.015-.279l1.786.6a.945.945,0,0,1,.639.808l.116,1.265c.1.074.206.149.306.226l1.189-.272a.94.94,0,0,1,.915.291,9.745,9.745,0,0,1,1.233,1.723.946.946,0,0,1-.007.934l-.631,1.088c.044.13.085.263.123.4l1.131.5a.943.943,0,0,1,.563.863v1.922a.943.943,0,0,1-.563.863l-1.131.5c-.039.135-.079.268-.123.4l.631,1.088a.944.944,0,0,1-.049,1.023l-1.113,1.555a.939.939,0,0,1-.978.37l-1.188-.272c-.1.077-.2.153-.307.226l-.116,1.265a.945.945,0,0,1-.638.808l-1.786.6a.943.943,0,0,1-1.015-.278l-.838-.971h-.328l-.836.97a.945.945,0,0,1-1.015.279l-1.786-.6a.945.945,0,0,1-.639-.808l-.116-1.265c-.1-.074-.206-.149-.306-.226l-1.189.272a.938.938,0,0,1-.915-.291,9.7,9.7,0,0,1-1.232-1.723.944.944,0,0,1,.006-.934l.631-1.088c-.044-.13-.085-.263-.124-.4l-1.131-.5a.942.942,0,0,1-.563-.863v-1.922A.942.942,0,0,1,253.034,279.608Zm2.313,2.606a.94.94,0,0,1,.539.654,6.368,6.368,0,0,0,.315,1.012.943.943,0,0,1-.055.834l-.575.991q.173.264.37.517l1.078-.247a.935.935,0,0,1,.835.211,6.223,6.223,0,0,0,.837.619.945.945,0,0,1,.442.715l.1,1.1.6.2.7-.817a.944.944,0,0,1,.715-.328h1.192a.944.944,0,0,1,.714.327l.706.818.6-.2.1-1.1a.946.946,0,0,1,.443-.716,6.135,6.135,0,0,0,.836-.618.936.936,0,0,1,.835-.211l1.029.236.393-.549-.55-.948a.943.943,0,0,1-.055-.834,6.376,6.376,0,0,0,.315-1.012.941.941,0,0,1,.539-.654l.989-.436v-.693l-.989-.436a.94.94,0,0,1-.539-.654,6.373,6.373,0,0,0-.315-1.012.943.943,0,0,1,.055-.834l.575-.991q-.173-.264-.369-.517l-1.078.247a.938.938,0,0,1-.835-.211,6.228,6.228,0,0,0-.837-.619.944.944,0,0,1-.442-.715l-.1-1.1-.6-.2-.7.817a.944.944,0,0,1-.715.328h-1.192a.944.944,0,0,1-.714-.327l-.706-.818-.6.2-.1,1.1a.945.945,0,0,1-.443.716,6.135,6.135,0,0,0-.836.618.938.938,0,0,1-.835.211l-1.078-.247q-.2.253-.37.517l.575.991a.943.943,0,0,1,.055.834,6.38,6.38,0,0,0-.315,1.012.941.941,0,0,1-.539.654l-.989.436v.693Z" transform="translate(-252.471 -271.997)" fill="#bac6ca"/>
    </g>
  </g>
  <g id="Group_35" data-name="Group 35" transform="translate(13.209 36.796)">
    <g id="Group_34" data-name="Group 34">
      <path id="Path_122" data-name="Path 122" d="M296.717,312A4.717,4.717,0,1,1,292,316.717,4.717,4.717,0,0,1,296.717,312Zm0,7.548a2.83,2.83,0,1,0-2.83-2.83A2.83,2.83,0,0,0,296.717,319.548Z" transform="translate(-292 -312)" fill="#bac6ca"/>
    </g>
  </g>
</svg>
