<svg xmlns="http://www.w3.org/2000/svg" width="16.418" height="16.418" viewBox="0 0 16.418 16.418">
  <g id="instagram_1_" data-name="instagram (1)" transform="translate(0.001)">
    <path id="Path_21" data-name="Path 21" d="M11.973,0H4.443A4.449,4.449,0,0,0,0,4.444v7.53a4.449,4.449,0,0,0,4.444,4.444h7.53a4.449,4.449,0,0,0,4.444-4.444V4.444A4.449,4.449,0,0,0,11.973,0ZM8.208,12.7A4.489,4.489,0,1,1,12.7,8.209,4.494,4.494,0,0,1,8.208,12.7Zm4.6-7.92a1.327,1.327,0,1,1,1.327-1.326A1.328,1.328,0,0,1,12.8,4.778Zm0,0" fill="#fff"/>
    <path id="Path_22" data-name="Path 22" d="M149.547,146.02a3.527,3.527,0,1,0,3.527,3.527A3.531,3.531,0,0,0,149.547,146.02Zm0,0" transform="translate(-141.339 -141.338)" fill="#fff"/>
    <path id="Path_23" data-name="Path 23" d="M388.356,96.3a.364.364,0,1,0,.364.364A.364.364,0,0,0,388.356,96.3Zm0,0" transform="translate(-375.552 -93.213)" fill="#fff"/>
  </g>
</svg>
