<svg xmlns="http://www.w3.org/2000/svg" width="17.993" height="17.953" viewBox="0 0 17.993 17.953">
  <g id="XMLID_801_" transform="translate(0 -0.341)">
    <path id="XMLID_802_" d="M8.829,99.73H5.217a.29.29,0,0,0-.29.29v11.6a.29.29,0,0,0,.29.29H8.829a.29.29,0,0,0,.29-.29v-11.6A.29.29,0,0,0,8.829,99.73Z" transform="translate(-4.641 -93.62)" fill="#fff"/>
    <path id="XMLID_803_" d="M2.384.341A2.381,2.381,0,1,0,4.765,2.722,2.385,2.385,0,0,0,2.384.341Z" transform="translate(0 0)" fill="#fff"/>
    <path id="XMLID_804_" d="M113.389,94.761a4.242,4.242,0,0,0-3.174,1.332V95.34a.29.29,0,0,0-.29-.29h-3.459a.29.29,0,0,0-.29.29v11.6a.29.29,0,0,0,.29.29h3.6a.29.29,0,0,0,.29-.29V101.2c0-1.935.526-2.688,1.874-2.688,1.469,0,1.586,1.208,1.586,2.788v5.642a.29.29,0,0,0,.29.29h3.606a.29.29,0,0,0,.29-.29v-6.365C118.006,97.7,117.458,94.761,113.389,94.761Z" transform="translate(-100.013 -88.94)" fill="#fff"/>
  </g>
</svg>
