<svg xmlns="http://www.w3.org/2000/svg" width="17.703" height="14.384" viewBox="0 0 17.703 14.384">
  <g id="twitter" transform="translate(0 -48)">
    <g id="Group_9" data-name="Group 9" transform="translate(0 48)">
      <path id="Path_20" data-name="Path 20" d="M17.7,49.7a7.567,7.567,0,0,1-2.091.573,3.609,3.609,0,0,0,1.6-2.006,7.253,7.253,0,0,1-2.3.879A3.629,3.629,0,0,0,8.629,51.63a3.737,3.737,0,0,0,.084.828,10.273,10.273,0,0,1-7.481-3.8,3.63,3.63,0,0,0,1.115,4.851,3.584,3.584,0,0,1-1.64-.447v.04a3.646,3.646,0,0,0,2.908,3.566,3.622,3.622,0,0,1-.952.12,3.209,3.209,0,0,1-.687-.062,3.664,3.664,0,0,0,3.391,2.528,7.292,7.292,0,0,1-4.5,1.548A6.8,6.8,0,0,1,0,60.755a10.218,10.218,0,0,0,5.568,1.629A10.259,10.259,0,0,0,15.9,52.056c0-.16-.006-.315-.013-.469A7.24,7.24,0,0,0,17.7,49.7Z" transform="translate(0 -48)" fill="#fff"/>
    </g>
  </g>
</svg>
