<svg xmlns="http://www.w3.org/2000/svg" width="18.081" height="12.725" viewBox="0 0 18.081 12.725">
  <g id="XMLID_822_" transform="translate(0 -45.917)">
    <path id="XMLID_823_" d="M17.377,47.009c-.653-.776-1.858-1.092-4.159-1.092H4.864c-2.354,0-3.579.337-4.23,1.163C0,47.885,0,49.072,0,50.714v3.13c0,3.182.752,4.8,4.864,4.8h8.354c2,0,3.1-.279,3.817-.964.734-.7,1.047-1.849,1.047-3.833v-3.13C18.081,48.982,18.032,47.789,17.377,47.009Zm-5.768,5.7L7.815,54.694a.583.583,0,0,1-.853-.517V50.225a.583.583,0,0,1,.852-.518l3.793,1.97a.583.583,0,0,1,0,1.035Z" fill="#fff"/>
  </g>
</svg>
