<?xml version="1.0" encoding="UTF-8"?>
<svg width="134px" height="127px" viewBox="0 0 134 127" version="1.1" xmlns="http://www.w3.org/2000/svg" xmlns:xlink="http://www.w3.org/1999/xlink">
    <!-- Generator: Sketch 52.3 (67297) - http://www.bohemiancoding.com/sketch -->
    <title>undraw_no_data_qbuo</title>
    <desc>Created with Sketch.</desc>
    <defs>
        <linearGradient x1="49.9988159%" y1="100%" x2="49.9988159%" y2="0%" id="linearGradient-1">
            <stop stop-color="#808080" stop-opacity="0.25" offset="0%"></stop>
            <stop stop-color="#808080" stop-opacity="0.12" offset="54%"></stop>
            <stop stop-color="#808080" stop-opacity="0.1" offset="100%"></stop>
        </linearGradient>
        <linearGradient x1="50%" y1="100%" x2="50%" y2="0%" id="linearGradient-2">
            <stop stop-color="#808080" stop-opacity="0.25" offset="0%"></stop>
            <stop stop-color="#808080" stop-opacity="0.12" offset="54%"></stop>
            <stop stop-color="#808080" stop-opacity="0.1" offset="100%"></stop>
        </linearGradient>
        <linearGradient x1="60.7608548%" y1="98.8803643%" x2="39.2987348%" y2="1.02948481%" id="linearGradient-3">
            <stop stop-color="#808080" stop-opacity="0.25" offset="0%"></stop>
            <stop stop-color="#808080" stop-opacity="0.12" offset="54%"></stop>
            <stop stop-color="#808080" stop-opacity="0.1" offset="100%"></stop>
        </linearGradient>
        <linearGradient x1="50%" y1="99.9144422%" x2="50%" y2="-0.0855578371%" id="linearGradient-4">
            <stop stop-color="#808080" stop-opacity="0.25" offset="0%"></stop>
            <stop stop-color="#808080" stop-opacity="0.12" offset="54%"></stop>
            <stop stop-color="#808080" stop-opacity="0.1" offset="100%"></stop>
        </linearGradient>
    </defs>
    <g id="Workspace" stroke="none" stroke-width="1" fill="none" fill-rule="evenodd">
        <g id="Workspace_Requester_Empty_state" transform="translate(-763.000000, -237.000000)">
            <g id="Other-active-requests" transform="translate(340.000000, 140.000000)">
                <g id="undraw_no_data_qbuo" transform="translate(423.000000, 97.000000)">
                    <polygon id="Rectangle" fill="#E0E0E0" transform="translate(56.489714, 62.579641) rotate(-12.110000) translate(-56.489714, -62.579641) " points="20.7939026 13.4503694 92.1107714 13.5044731 92.1855253 111.708912 20.8686565 111.654808"></polygon>
                    <g id="Group" opacity="0.5" transform="translate(13.000000, 9.000000)" fill="url(#linearGradient-1)">
                        <polygon id="Rectangle" transform="translate(43.517989, 53.474708) rotate(-12.110000) translate(-43.517989, -53.474708) " points="9.23984981 6.17234759 77.7731246 6.18899625 77.7961276 100.777068 9.26285276 100.76042"></polygon>
                    </g>
                    <polygon id="Rectangle" fill="#FAFAFA" transform="translate(56.416178, 62.238340) rotate(-12.110000) translate(-56.416178, -62.238340) " points="22.8047202 15.8185814 89.957005 15.8695258 90.0276363 108.658099 22.8753515 108.607155"></polygon>
                    <polygon id="Rectangle" fill="url(#linearGradient-2)" transform="translate(46.734444, 16.864227) rotate(-12.110000) translate(-46.734444, -16.864227) " points="30.0746787 12.8303511 63.3880868 12.8556239 63.3942088 20.8981027 30.0808007 20.8728298"></polygon>
                    <path d="M44.5365197,5.09669007 C42.1082399,5.60692833 40.5718526,7.99163705 41.1060426,10.4225909 C41.6402327,12.8535448 44.0401484,14.4135482 46.4637008,13.9033099 C48.8872532,13.3930717 50.4283679,11.0083629 49.8941778,8.57740907 C49.3599878,6.14645519 46.9647994,4.58645182 44.5365197,5.09669007 Z M46.0603007,12.048879 C45.0105966,12.2937735 43.9137518,11.8931994 43.2849084,11.0352895 C42.656065,10.1773797 42.6201719,9.03259752 43.1940865,8.1385995 C43.7680011,7.24460148 44.8376888,6.77902155 45.9007619,6.96052318 C46.963835,7.14202482 47.809065,7.93454436 48.0394826,8.96586841 C48.1966839,9.63157041 48.0762399,10.3311105 47.7047999,10.9097099 C47.3333599,11.4883092 46.7415456,11.8982678 46.0603007,12.048879 Z" id="Shape" fill="url(#linearGradient-3)" fill-rule="nonzero"></path>
                    <polygon id="Rectangle" fill="#93BFEB" transform="translate(46.624464, 16.353696) rotate(-12.110000) translate(-46.624464, -16.353696) " points="30.3156908 12.4973621 62.927386 12.5221027 62.9332381 20.2100292 30.3215429 20.1852887"></polygon>
                    <path d="M44.5558485,5.10021013 C42.126478,5.62168938 40.5797463,8.01398169 41.1010783,10.4436195 C41.6224103,12.8732572 44.0143994,14.4202389 46.4438105,13.8989482 C48.8732215,13.3776575 50.4201387,10.9854852 49.8989953,8.55580701 C49.6487075,7.38891365 48.9451379,6.36926475 47.9430856,5.72120307 C46.9410333,5.07314138 45.7225942,4.84976105 44.5558485,5.10021013 Z M46.044262,12.0436239 C45.0173342,12.2639968 43.9587921,11.8439716 43.3622701,10.9794205 C42.7657482,10.1148694 42.7487323,8.97606703 43.3191576,8.09407595 C43.8895828,7.21208486 44.9351031,6.76061456 45.9681565,6.95020108 C47.00121,7.1397876 47.818335,7.93309157 48.0384784,8.96016823 C48.3390231,10.3623564 47.446247,11.7427659 46.044262,12.0436239 Z" id="Shape" fill="#93BFEB" fill-rule="nonzero"></path>
                    <rect id="Rectangle" fill="#E0E0E0" x="42" y="19" width="71" height="98"></rect>
                    <g id="Group" opacity="0.5" transform="translate(43.000000, 21.000000)" fill="url(#linearGradient-1)">
                        <rect id="Rectangle" x="0.0456737589" y="0.0195205479" width="68.8776596" height="94.904024"></rect>
                    </g>
                    <rect id="Rectangle" fill="#FFFFFF" x="44" y="21" width="67" height="93"></rect>
                    <rect id="Rectangle" fill="url(#linearGradient-2)" x="61" y="17" width="33" height="8"></rect>
                    <path d="M77.5,9 C75.0150666,9 73,11.238193 73,14 C73,16.761807 75.0150666,19 77.5,19 C79.9849334,19 82,16.761807 82,14 C82,11.238193 79.9849334,9 77.5,9 Z M77.5,16.8850103 C76.4194179,16.9128403 75.4308902,16.2278494 74.9994791,15.152298 C74.568068,14.0767466 74.7796749,12.8247955 75.5347473,11.9854369 C76.2898197,11.1460782 77.4380096,10.8864428 78.4391405,11.3286785 C79.4402713,11.7709141 80.0950006,12.8269642 80.0953048,14 C80.1058235,15.5691704 78.9458365,16.8525245 77.5,16.871321 L77.5,16.8850103 Z" id="Shape" fill="url(#linearGradient-4)" fill-rule="nonzero"></path>
                    <rect id="Rectangle" fill="#93BFEB" x="61" y="17" width="33" height="8"></rect>
                    <path d="M77.5000658,10 C75.6800123,10 74.039173,11.0963738 73.3426686,12.777884 C72.6461643,14.4593941 73.0311596,16.3948961 74.3181318,17.6818682 C75.6051039,18.9688404 77.5406059,19.3538357 79.222116,18.6573314 C80.9036262,17.960827 82,16.3199877 82,14.4999342 C82,12.0146892 79.9853108,10 77.5000658,10 Z M77.5000658,17.0971036 C76.0669494,17.0953211 74.9061241,15.9330491 74.9061267,14.4999316 C74.9061293,13.0668141 76.0669587,11.9045462 77.5000751,11.9027689 C78.9331915,11.9009916 80.0969002,13.0603766 80.1004574,14.4934896 C80.1000305,15.1825812 79.82577,15.8432562 79.3380555,16.3300641 C78.850341,16.8168721 78.189157,17.0899029 77.5000658,17.0890478 L77.5000658,17.0971036 Z" id="Shape" fill="#93BFEB" fill-rule="nonzero"></path>
                    <g id="Group" opacity="0.5" transform="translate(1.000000, 120.000000)" fill="#00A19C">
                        <rect id="Rectangle" x="1.68545455" y="0.00909090909" width="1" height="3.87818182"></rect>
                        <polygon id="Rectangle" transform="translate(2.028182, 1.949091) rotate(90.000000) translate(-2.028182, -1.949091) " points="1.68636364 0.01 2.37 0.01 2.37 3.88818182 1.68636364 3.88818182"></polygon>
                    </g>
                    <g id="Group" opacity="0.5" transform="translate(72.000000, 0.000000)" fill="#00A19C">
                        <rect id="Rectangle" x="1.65043478" y="0" width="1" height="3.87818182"></rect>
                        <polygon id="Rectangle" transform="translate(1.978261, 1.938182) rotate(90.000000) translate(-1.978261, -1.938182) " points="1.63644269 0.0833992095 2.32007905 0.0833992095 2.32007905 3.79296443 1.63644269 3.79296443"></polygon>
                    </g>
                    <path d="M125.755203,125.525033 C125.371329,125.357928 125.173698,124.9296 125.295677,124.529095 C125.305187,124.499503 125.311188,124.468897 125.313557,124.437905 C125.324512,124.256076 125.215057,124.088538 125.044144,124.025527 C124.87323,123.962515 124.681217,124.018909 124.571522,124.164335 C124.552928,124.189243 124.537325,124.216249 124.525033,124.244797 C124.357928,124.628671 123.9296,124.826302 123.529095,124.704323 C123.499503,124.694813 123.468897,124.688812 123.437905,124.686443 C123.256076,124.675488 123.088538,124.784943 123.025527,124.955856 C122.962515,125.12677 123.018909,125.318783 123.164335,125.428478 C123.189243,125.447072 123.216249,125.462675 123.244797,125.474967 C123.628671,125.642072 123.826302,126.0704 123.704323,126.470905 C123.694813,126.500497 123.688812,126.531103 123.686443,126.562095 C123.675488,126.743924 123.784943,126.911462 123.955856,126.974473 C124.12677,127.037485 124.318783,126.981091 124.428478,126.835665 C124.447072,126.810757 124.462675,126.783751 124.474967,126.755203 C124.642072,126.371329 125.0704,126.173698 125.470905,126.295677 C125.500497,126.305187 125.531103,126.311188 125.562095,126.313557 C125.743924,126.324512 125.911462,126.215057 125.974473,126.044144 C126.037485,125.87323 125.981091,125.681217 125.835665,125.571522 C125.810757,125.552928 125.783751,125.537325 125.755203,125.525033 Z" id="Path" fill="#4D8AF0" opacity="0.5"></path>
                    <path d="M22.7552029,92.5250325 C22.3713289,92.3579283 22.1736981,91.9296001 22.295677,91.5290952 C22.3051869,91.4995035 22.3111881,91.4688971 22.3135574,91.4379053 C22.3245124,91.256076 22.2150573,91.0885385 22.0441438,91.025527 C21.8732302,90.9625154 21.6812173,91.0189094 21.5715215,91.1643354 C21.5529284,91.1892433 21.5373252,91.2162489 21.5250325,91.2447971 C21.3579283,91.6286711 20.9296001,91.8263019 20.5290952,91.704323 C20.4995035,91.6948131 20.4688971,91.6888119 20.4379053,91.6864426 C20.256076,91.6754876 20.0885385,91.7849427 20.025527,91.9558562 C19.9625154,92.1267698 20.0189094,92.3187827 20.1643354,92.4284785 C20.1892433,92.4470716 20.2162489,92.4626748 20.2447971,92.4749675 C20.6286711,92.6420717 20.8263019,93.0703999 20.704323,93.4709048 C20.6948131,93.5004965 20.6888119,93.5311029 20.6864426,93.5620947 C20.6754876,93.743924 20.7849427,93.9114615 20.9558562,93.974473 C21.1267698,94.0374846 21.3187827,93.9810906 21.4284785,93.8356646 C21.4470716,93.8107567 21.4626748,93.7837511 21.4749675,93.7552029 C21.6420717,93.3713289 22.0703999,93.1736981 22.4709048,93.295677 C22.5004965,93.3051869 22.5311029,93.3111881 22.5620947,93.3135574 C22.743924,93.3245124 22.9114615,93.2150573 22.974473,93.0441438 C23.0374846,92.8732302 22.9810906,92.6812173 22.8356646,92.5715215 C22.8107567,92.5529284 22.7837511,92.5373252 22.7552029,92.5250325 Z" id="Path" fill="#FDD835" opacity="0.5"></path>
                    <path d="M108.755203,11.5250325 C108.371329,11.3579283 108.173698,10.9296001 108.295677,10.5290952 C108.305187,10.4995035 108.311188,10.4688971 108.313557,10.4379053 C108.324512,10.256076 108.215057,10.0885385 108.044144,10.025527 C107.87323,9.96251545 107.681217,10.0189094 107.571522,10.1643354 C107.552928,10.1892433 107.537325,10.2162489 107.525033,10.2447971 C107.357928,10.6286711 106.9296,10.8263019 106.529095,10.704323 C106.499503,10.6948131 106.468897,10.6888119 106.437905,10.6864426 C106.256076,10.6754876 106.088538,10.7849427 106.025527,10.9558562 C105.962515,11.1267698 106.018909,11.3187827 106.164335,11.4284785 C106.189243,11.4470716 106.216249,11.4626748 106.244797,11.4749675 C106.628671,11.6420717 106.826302,12.0703999 106.704323,12.4709048 C106.694813,12.5004965 106.688812,12.5311029 106.686443,12.5620947 C106.675488,12.743924 106.784943,12.9114615 106.955856,12.974473 C107.12677,13.0374846 107.318783,12.9810906 107.428478,12.8356646 C107.447072,12.8107567 107.462675,12.7837511 107.474967,12.7552029 C107.642072,12.3713289 108.0704,12.1736981 108.470905,12.295677 C108.500497,12.3051869 108.531103,12.3111881 108.562095,12.3135574 C108.743924,12.3245124 108.911462,12.2150573 108.974473,12.0441438 C109.037485,11.8732302 108.981091,11.6812173 108.835665,11.5715215 C108.810757,11.5529284 108.783751,11.5373252 108.755203,11.5250325 Z" id="Path" fill="#FDD835" opacity="0.5"></path>
                    <circle id="Oval" fill="#F55F44" opacity="0.5" cx="133" cy="51" r="1"></circle>
                    <circle id="Oval" fill="#F55F44" opacity="0.5" cx="38" cy="121" r="1"></circle>
                    <circle id="Oval" fill="#F55F44" opacity="0.5" cx="120" cy="78" r="1"></circle>
                    <circle id="Oval" fill="#4D8AF0" opacity="0.5" cx="14" cy="16" r="1"></circle>
                    <circle id="Oval" fill="#00A19C" opacity="0.5" cx="1" cy="49" r="1"></circle>
                </g>
            </g>
        </g>
    </g>
</svg>