<?xml version="1.0" standalone="no"?>
<!DOCTYPE svg PUBLIC "-//W3C//DTD SVG 20010904//EN"
 "http://www.w3.org/TR/2001/REC-SVG-20010904/DTD/svg10.dtd">
<svg version="1.0" xmlns="http://www.w3.org/2000/svg"
 width="157.000000pt" height="124.000000pt" viewBox="0 0 157.000000 124.000000"
 preserveAspectRatio="xMidYMid meet">
<metadata>
Created by potrace 1.15, written by Peter Selinger 2001-2017
</metadata>
<g transform="translate(0.000000,124.000000) scale(0.100000,-0.100000)"
fill="#000000" stroke="none">
<path d="M0 620 l0 -620 785 0 785 0 0 620 0 620 -785 0 -785 0 0 -620z m895
505 c163 -34 328 -153 392 -282 25 -51 28 -69 28 -153 0 -86 -3 -101 -31 -160
-52 -106 -163 -224 -290 -306 -224 -145 -481 -131 -643 34 -228 234 -192 598
77 775 146 96 301 127 467 92z"/>
</g>
</svg>
