<?xml version="1.0" encoding="UTF-8"?>
<svg width="17px" height="15px" viewBox="0 0 17 15" version="1.1" xmlns="http://www.w3.org/2000/svg" xmlns:xlink="http://www.w3.org/1999/xlink">
    <!-- Generator: Sketch 63.1 (92452) - https://sketch.com -->
    <title>Combined Shape</title>
    <desc>Created with Sketch.</desc>
    <g id="Page-1" stroke="none" stroke-width="1" fill="none" fill-rule="evenodd">
        <g id="04_Reset-Password" transform="translate(-396.000000, -546.000000)" fill="#363D45" fill-rule="nonzero">
            <g id="Password-Copy" transform="translate(120.000000, 531.000000)">
                <path d="M290.883883,16.1161165 C291.339495,16.5717282 291.369869,17.2915486 290.975006,17.7823881 L290.883883,17.8838835 L279.883883,28.8838835 C279.395728,29.3720388 278.604272,29.3720388 278.116117,28.8838835 C277.660505,28.4282718 277.630131,27.7084514 278.024994,27.2176119 L278.116117,27.1161165 L289.116117,16.1161165 C289.604272,15.6279612 290.395728,15.6279612 290.883883,16.1161165 Z M293,22.5 C293,22.5 290.499774,28 284.5,28 C283.753717,28 283.060922,27.9134789 282.419939,27.7621403 L284.195191,25.9867312 C284.29557,25.9951719 284.397229,25.9994764 284.5,25.9994764 C286.449927,25.9994764 287.999548,24.4498866 287.999548,22.5 C287.999548,22.3972311 287.995244,22.2955742 287.986803,22.1951975 L290.532824,19.6489108 C292.094734,21.0567676 293,22.5 293,22.5 Z M284.5,17 C285.20861,17 285.885713,17.108286 286.526201,17.2944695 L284.805806,19.0133528 C284.705103,19.0048566 284.603111,19.0005236 284.5,19.0005236 C282.550073,19.0005236 281.000452,20.5501134 281.000452,22.5 C281.000452,22.6031092 281.004785,22.705099 281.013281,22.8057996 L278.298915,25.5190468 C276.723471,24.060486 276,22.5 276,22.5 C276,22.5 279.500508,17 284.5,17 Z" id="Combined-Shape"></path>
            </g>
        </g>
    </g>
</svg>