<?xml version="1.0" encoding="UTF-8"?>
<svg width="40px" height="40px" viewBox="0 0 40 40" version="1.1" xmlns="http://www.w3.org/2000/svg" xmlns:xlink="http://www.w3.org/1999/xlink">
    <!-- Generator: Sketch 63.1 (92452) - https://sketch.com -->
    <title>Shape</title>
    <desc>Created with Sketch.</desc>
    <g id="Page-1" stroke="none" stroke-width="1" fill="none" fill-rule="evenodd">
        <g id="13_Create-Timesheet---Type---Inactive" transform="translate(-280.000000, -558.000000)" fill="#17569E" fill-rule="nonzero">
            <g id="Group-2" transform="translate(145.000000, 528.000000)">
                <path d="M173.61349,37.4985735 C173.328826,37.4508525 172.997939,37.4985735 172.761335,37.7335133 L168.265845,42.2451084 L164.432092,40.9768096 L163.249068,37.4527133 L167.886899,32.8952578 C168.123504,32.6603181 168.171563,32.3776386 168.123504,32.0490988 C168.075445,31.7664381 167.886899,31.5314795 167.602216,31.3920193 C165.994062,30.7349398 164.574433,30.5 163.249068,30.5 C160.078944,30.5 157.097346,31.6746988 154.873735,33.8827566 C152.650124,36.0908145 151.372743,39.0035036 151.372743,42.1056482 C151.372743,43.1390072 151.515075,44.1723663 151.797893,45.1598651 L136.561023,60.3830217 C134.479659,62.4497398 134.479659,65.8801422 136.561023,67.9490217 C137.649783,69.0301205 139.021334,69.5 140.394777,69.5 C141.766327,69.5 143.13977,68.9823807 144.22853,67.9490217 L159.182894,53.0998892 C160.46018,53.5697687 161.833623,53.8047084 163.205174,53.8047084 L163.253233,53.8047084 C166.377172,53.8047084 169.404955,52.6300096 171.628566,50.4219518 C174.798691,47.1805349 175.887451,42.340494 174.231218,38.1115783 C174.133249,37.733471 173.896645,37.593959 173.613821,37.4985265 L173.61349,37.4985735 Z M142.287501,65.6913446 C141.246818,66.7247036 139.636771,66.7247036 138.690352,65.6913446 C137.64967,64.6579855 137.64967,63.0592675 138.690352,62.1195084 C139.731034,61.1797494 141.341082,61.0861494 142.287501,62.1195084 C143.233919,63.1070072 143.280152,64.7515855 142.287501,65.6913446 Z" id="Shape"></path>
            </g>
        </g>
    </g>
</svg>