<?xml version="1.0" encoding="UTF-8"?>
<svg width="16px" height="11px" viewBox="0 0 16 11" version="1.1" xmlns="http://www.w3.org/2000/svg" xmlns:xlink="http://www.w3.org/1999/xlink">
    <!-- Generator: Sketch 63.1 (92452) - https://sketch.com -->
    <title>Shape</title>
    <desc>Created with Sketch.</desc>
    <g id="Page-1" stroke="none" stroke-width="1" fill="none" fill-rule="evenodd">
        <g id="06_Sign-Up" transform="translate(-133.000000, -569.000000)" fill="#16569E" fill-rule="nonzero" stroke="#16569E" stroke-width="0.5">
            <g id="Password" transform="translate(120.000000, 552.000000)">
                <path d="M14.6222222,18 C14.2855844,18 14,18.284881 14,18.6206897 L14,26.3793103 C14,26.715119 14.2855844,27 14.6222222,27 L27.3777778,27 C27.7144156,27 28,26.715119 28,26.3793103 L28,18.6206897 C28,18.284881 27.7144156,18 27.3777778,18 L14.6222222,18 Z M15.8520756,18.9310345 L26.1479867,18.9310345 L21.0000311,22.8443276 L15.8520756,18.9310345 Z M14.9333333,19.4013931 L20.7181333,23.7996 C20.8846244,23.9256776 21.1155311,23.9256776 21.2820222,23.7996 L27.0668222,19.4013931 L27.0668222,26.0689966 L14.9334889,26.0689966 L14.9333333,19.4013931 Z" id="Shape"></path>
            </g>
        </g>
    </g>
</svg>