<?xml version="1.0" encoding="UTF-8"?>
<svg width="46px" height="36px" viewBox="0 0 46 36" version="1.1" xmlns="http://www.w3.org/2000/svg" xmlns:xlink="http://www.w3.org/1999/xlink">
    <!-- Generator: Sketch 63.1 (92452) - https://sketch.com -->
    <title>Path</title>
    <desc>Created with Sketch.</desc>
    <g id="Page-1" stroke="none" stroke-width="1" fill="none" fill-rule="evenodd">
        <g id="13_Create-Timesheet---Type---Inactive" transform="translate(-1118.000000, -560.000000)" fill="#17569E" fill-rule="nonzero">
            <g id="Group-6" transform="translate(985.000000, 528.000000)">
                <path d="M171.169481,47.6947623 C171.717183,47.6947623 172.264885,47.4832494 172.685935,47.0602237 L178.368425,41.3493763 C179.210525,40.5033249 179.210525,39.1499809 178.368425,38.3039295 L172.727198,32.6345386 C171.885098,31.7884871 170.538074,31.7884871 169.695975,32.6345386 C168.853875,33.4805901 168.853875,34.833934 169.695975,35.6799855 L171.674573,37.667868 L165.105351,37.6695203 C163.210626,37.6695203 161.442553,38.5998385 160.347065,40.1646953 L156.009829,46.2571119 L151.715541,40.1646953 C150.620137,38.5998385 148.852064,37.6695203 146.957255,37.6695203 L135.148029,37.6695203 C133.968752,37.6695203 133,38.6428179 133,39.8276284 C133,41.0107891 133.968752,41.9840867 135.148029,41.9840867 L146.915992,41.9840867 C147.420915,41.9840867 147.884744,42.238562 148.179142,42.6186253 L153.358478,50.0215756 L148.179142,57.3813773 C147.884735,57.804403 147.420915,58.0159159 146.915992,58.0159159 L135.148029,58.0159159 C133.968752,58.0159159 133,58.9892135 133,60.1740239 C133,61.3588344 133.968752,62.332132 135.148029,62.332132 L146.915992,62.332132 C148.810717,62.332132 150.57879,61.4018138 151.674278,59.836957 L155.968567,53.7030839 L160.262855,59.836957 C161.358259,61.4018138 163.126332,62.332132 165.021141,62.332132 L171.631204,62.332132 L169.652606,64.3200145 C168.810506,65.166066 168.810506,66.5194099 169.652606,67.3654614 C170.073656,67.7884871 170.621358,68 171.16906,68 C171.716762,68 172.264464,67.7884871 172.685514,67.3654614 L178.368004,61.7387961 C179.210104,60.8927447 179.210104,59.5394007 178.368004,58.6933493 L172.726776,52.9825019 C171.884677,52.1364504 170.537653,52.1364504 169.695554,52.9825019 C168.853454,53.8285534 168.853454,55.1818973 169.695554,56.0279487 L171.631415,58.0588107 L165.10514,58.0588107 C164.600217,58.0588107 164.136389,57.8043353 163.84199,57.4242721 L158.662655,50.0213218 L163.84199,42.6615201 C164.136397,42.2384943 164.600217,42.0269815 165.10514,42.0269815 L171.631415,42.0269815 L169.652817,44.014864 C168.810717,44.817936 168.810717,46.2142594 169.652817,47.0603108 C170.074077,47.4832494 170.621779,47.6947623 171.169481,47.6947623 Z" id="Path"></path>
            </g>
        </g>
    </g>
</svg>