<?xml version="1.0" encoding="UTF-8"?>
<svg width="14px" height="15px" viewBox="0 0 14 15" version="1.1" xmlns="http://www.w3.org/2000/svg" xmlns:xlink="http://www.w3.org/1999/xlink">
    <!-- Generator: Sketch 63.1 (92452) - https://sketch.com -->
    <title>Combined Shape</title>
    <desc>Created with Sketch.</desc>
    <g id="Page-1" stroke="none" stroke-width="1" fill="none" fill-rule="evenodd">
        <g id="01_Log-In" transform="translate(-134.000000, -524.000000)" fill="#16569E" fill-rule="nonzero" stroke="#16569E" stroke-width="0.5">
            <g id="Payroll" transform="translate(120.000000, 509.000000)">
                <path d="M21.0207424,22.9666667 C24.3240997,22.9666667 27,25.6470243 27,28.9974379 C27,29.6675207 25.9544643,29.6675207 25.9544643,28.9974379 C25.9544643,26.2333067 23.7382205,24.0133713 21.0208355,24.0133713 C18.2613008,24.0133713 16.0450571,26.2333067 16.0450571,28.9974379 C16.0455357,29.6675207 15,29.6675207 15,28.9974379 C15,25.6470243 17.6759003,22.9666667 21.0207424,22.9666667 Z M21,15.5 C22.7452984,15.5 24.2,16.9547016 24.2,18.7 C24.2,20.4870576 22.7452984,21.9 21,21.9 C19.2129424,21.9 17.8,20.4871898 17.8,18.7 C17.8,16.9547016 19.2128102,15.5 21,15.5 Z M21,16.5391311 C19.7946512,16.5391311 18.8390915,17.5364501 18.8390915,18.7000396 C18.8390915,19.9053884 19.7951138,20.8609482 21,20.8609482 C22.1635367,20.8609482 23.1195457,19.9049259 23.1195457,18.7000396 C23.1195457,17.536503 22.1635234,16.5391311 21,16.5391311 Z" id="Combined-Shape"></path>
            </g>
        </g>
    </g>
</svg>