<?xml version="1.0" encoding="UTF-8"?>
<svg width="12px" height="15px" viewBox="0 0 12 15" version="1.1" xmlns="http://www.w3.org/2000/svg" xmlns:xlink="http://www.w3.org/1999/xlink">
    <!-- Generator: Sketch 63.1 (92452) - https://sketch.com -->
    <title>Shape</title>
    <desc>Created with Sketch.</desc>
    <g id="Page-1" stroke="none" stroke-width="1" fill="none" fill-rule="evenodd">
        <g id="01_Log-In" transform="translate(-135.000000, -610.000000)" fill="#16569E" fill-rule="nonzero" stroke="#16569E" stroke-width="0.75">
            <g id="Password" transform="translate(120.000000, 595.000000)">
                <path d="M18.4594621,20.6548966 L23.5410006,20.6548966 L23.5410006,18.5926966 C23.5410006,17.3447226 22.4052625,16.3139166 21.0001542,16.3139166 C19.6252159,16.3139166 18.4593079,17.3447786 18.4593079,18.5926966 L18.4594621,20.6548966 Z M24.4376157,20.68224 C25.5733538,20.7095834 26.5,21.57747 26.5,22.63566 L26.5,27.54658 C26.5,28.63158 25.5432147,29.5 24.3478462,29.5 L17.6521538,29.5 C16.4567699,29.5 15.5,28.631566 15.5,27.54658 L15.5,22.63566 C15.5,21.577456 16.4266616,20.70954 17.5924617,20.68224 L17.5924617,18.59316 C17.5924617,16.88362 19.1168153,15.5 21.0003085,15.5 C22.8838017,15.5 24.4376157,16.91092 24.4376157,18.59316 L24.4376157,20.68224 Z M24.3478416,21.469194 L17.6521492,21.469194 C16.9646877,21.469194 16.3965179,21.984898 16.3965179,22.635674 L16.3965179,27.546594 C16.3965179,28.197916 16.9646877,28.713074 17.6521492,28.713074 L24.3478416,28.713074 C25.0654267,28.713074 25.632995,28.19737 25.632995,27.546594 L25.632995,22.635674 C25.632995,21.984352 25.0648251,21.469194 24.3478416,21.469194 Z" id="Shape"></path>
            </g>
        </g>
    </g>
</svg>