<?xml version="1.0" encoding="UTF-8"?>
<svg width="23px" height="18px" viewBox="0 0 23 18" version="1.1" xmlns="http://www.w3.org/2000/svg" xmlns:xlink="http://www.w3.org/1999/xlink">
    <!-- Generator: Sketch 63.1 (92452) - https://sketch.com -->
    <title>Path 2</title>
    <desc>Created with Sketch.</desc>
    <g id="Page-1" stroke="none" stroke-width="1" fill="none" fill-rule="evenodd">
        <g id="02_Forgot-Password" transform="translate(-120.000000, -252.000000)" fill="#16569E" fill-rule="nonzero">
            <g id="Path-2" transform="translate(120.000000, 252.000000)">
                <path d="M8.94453928,0 C8.43695706,0 7.95285421,0.207228383 7.58963433,0.572437906 L0.563514473,7.66118225 C-0.188971509,8.41780192 -0.188971509,9.6360779 0.570337678,10.3685313 L7.58912094,17.4500272 C7.94672898,17.809601 8.42766052,18 8.94453928,18 C9.46142746,18 9.9423579,17.8096046 10.2994518,17.4505367 C10.6627227,17.0852698 10.8688853,16.5983459 10.8688853,16.0877563 L10.8616845,15.9224827 C10.8234827,15.4840248 10.6349026,15.0665726 10.3348047,14.7380855 L6.50649231,10.8882857 L21.0985106,10.8889789 C22.1533282,10.8889789 23,10.037655 23,8.97673521 L22.9952509,8.83959574 C22.9259829,7.84339652 22.1074666,7.06449152 21.0985106,7.06449152 L6.50649231,7.06371429 L10.2994467,3.25110505 C11.0524436,2.49397082 11.0524436,1.27569484 10.2931344,0.543241473 C9.94234957,0.190398953 9.46141804,0 8.94453928,0 Z" id="Path"></path>
            </g>
        </g>
    </g>
</svg>