<?xml version="1.0" encoding="UTF-8"?>
<svg width="12px" height="19px" viewBox="0 0 12 19" version="1.1" xmlns="http://www.w3.org/2000/svg" xmlns:xlink="http://www.w3.org/1999/xlink">
    <!-- Generator: Sketch 63.1 (92452) - https://sketch.com -->
    <title>Combined Shape</title>
    <desc>Created with Sketch.</desc>
    <g id="Page-1" stroke="none" stroke-width="1" fill="none" fill-rule="evenodd">
        <g id="07_Create-Profile" transform="translate(-135.000000, -630.000000)" fill="#16569E" fill-rule="nonzero" stroke="#16569E" stroke-width="0.5">
            <g id="Password" transform="translate(120.000000, 617.000000)">
                <path d="M23.7266618,14 C24.9799739,14 26,14.9966419 26,16.2227698 L26,16.2227698 L26,28.7779812 C26,30.0026635 24.9799547,31 23.7274298,31 L23.7274298,31 L18.2725702,31 C17.0200261,31 16,30.0026447 16,28.7779812 L16,28.7779812 L16,16.2220188 C16,14.9973365 17.0200453,14 18.2725702,14 L18.2725702,14 Z M23.7274298,14.8888263 L18.2725702,14.8888263 C17.5202949,14.8888263 16.9082793,15.4872282 16.9082793,16.2227698 L16.9082793,16.2227698 L16.9082793,28.7772302 C16.9082793,29.5127718 17.5202949,30.1111737 18.2725702,30.1111737 L18.2725702,30.1111737 L23.7266618,30.1111737 C24.4789371,30.1111737 25.0909527,29.5127718 25.0909527,28.7772302 L25.0909527,28.7772302 L25.0917207,16.2227698 C25.0917207,15.4872282 24.4797051,14.8888263 23.7274298,14.8888263 L23.7274298,14.8888263 Z M21.9085673,28.4016309 C21.9085673,29.5867014 20.0905111,29.5867014 20.0905111,28.4016309 C20.0905111,27.2172926 21.9085673,27.2172926 21.9085673,28.4016309 Z M21.9085673,15.8963568 C22.1598249,15.8963568 22.3630813,16.0950919 22.3630813,16.3407606 C22.3630813,16.5864292 22.1598249,16.7851643 21.9085673,16.7851643 L21.9085673,16.7851643 L20.0897623,16.7851643 C19.8385047,16.7851643 19.6352483,16.5864292 19.6352483,16.3407606 C19.6352483,16.0950919 19.8385047,15.8963568 20.0897623,15.8963568 L20.0897623,15.8963568 Z" id="Combined-Shape"></path>
            </g>
        </g>
    </g>
</svg>