<?xml version="1.0" encoding="UTF-8"?>
<svg width="18px" height="18px" viewBox="0 0 18 18" version="1.1" xmlns="http://www.w3.org/2000/svg" xmlns:xlink="http://www.w3.org/1999/xlink">
    <!-- Generator: Sketch 63.1 (92452) - https://sketch.com -->
    <title>Shape</title>
    <desc>Created with Sketch.</desc>
    <g id="Page-1" stroke="none" stroke-width="1" fill="none" fill-rule="evenodd">
        <g id="18_Create-Timesheet---Questions---Notes---Inactive" transform="translate(-61.000000, -276.000000)" fill="#FFFFFF" fill-rule="nonzero" stroke="#FFFFFF">
            <g id="Group-2-Copy-2" transform="translate(40.000000, 265.000000)">
                <path d="M30,28 C27.87808,28 25.8432,27.15688 24.3432,25.6568 C22.8432,24.15672 22,22.12176 22,20 C22,17.87824 22.84312,15.8432 24.3432,14.3432 C25.84328,12.8432 27.87824,12 30,12 C32.12176,12 34.1568,12.84312 35.6568,14.3432 C37.1568,15.84328 38,17.87824 38,20 C38,22.12176 37.15688,24.1568 35.6568,25.6568 C34.15672,27.1568 32.12176,28 30,28 Z M30,13.33312 C28.23184,13.33312 26.53632,14.035616 25.28624,15.28624 C24.035616,16.53624 23.33312,18.23184 23.33312,20 C23.33312,21.76816 24.035616,23.46368 25.28624,24.71376 C26.53624,25.964384 28.23184,26.66688 30,26.66688 C31.76816,26.66688 33.46368,25.964384 34.71376,24.71376 C35.964384,23.46376 36.66688,21.76816 36.66688,20 C36.66688,18.23184 35.964384,16.53632 34.71376,15.28624 C33.46376,14.035616 31.76816,13.33312 30,13.33312 L30,13.33312 Z M31.48688,22.46624 L29.53376,20.50688 L29.5331349,20.507505 C29.3956341,20.3718794 29.3225109,20.184385 29.3331349,19.991249 L29.3331349,16.666929 C29.3331349,16.298801 29.6318869,16.000049 30.0000149,16.000049 C30.3681429,16.000049 30.6668949,16.298801 30.6668949,16.666929 L30.6668949,19.687569 L32.4668949,21.487569 C32.7368949,21.758193 32.7368949,22.196945 32.4662698,22.466945 C32.1956458,22.737569 31.7568938,22.737569 31.4868938,22.466945 L31.48688,22.46624 Z" id="Shape"></path>
            </g>
        </g>
    </g>
</svg>