<?xml version="1.0" encoding="UTF-8"?>
<svg width="22px" height="22px" viewBox="0 0 22 22" version="1.1" xmlns="http://www.w3.org/2000/svg" xmlns:xlink="http://www.w3.org/1999/xlink">
    <!-- Generator: Sketch 63.1 (92452) - https://sketch.com -->
    <title>Path</title>
    <desc>Created with Sketch.</desc>
    <g id="Page-1" stroke="none" stroke-width="1" fill="none" fill-rule="evenodd">
        <g id="12_Dashboard" transform="translate(-110.000000, -190.000000)" fill="#FFFFFF" fill-rule="nonzero" stroke="#FFFFFF">
            <g id="Group-2" transform="translate(40.000000, 120.000000)">
                <g id="Group" transform="translate(41.000000, 41.000000)">
                    <path d="M40,30 C38.9771481,30 38.1481481,30.829 38.1481481,31.8518519 L38.1481481,38.1481481 L31.8518519,38.1481481 C30.829,38.1481481 30,38.9771481 30,40 C30,41.0228519 30.829,41.8518519 31.8518519,41.8518519 L38.1481481,41.8518519 L38.1481481,48.1481481 C38.1481481,49.171 38.9771481,50 40,50 C41.0228519,50 41.8518519,49.171 41.8518519,48.1481481 L41.8518519,41.8518519 L48.1481481,41.8518519 C49.171,41.8518519 50,41.0228519 50,40 C50,38.9771481 49.171,38.1481481 48.1481481,38.1481481 L41.8518519,38.1481481 L41.8518519,31.8518519 C41.8518519,30.829 41.0228519,30 40,30 Z" id="Path"></path>
                </g>
            </g>
        </g>
    </g>
</svg>