<svg xmlns="http://www.w3.org/2000/svg" data-name="Layer 1" viewBox="0 0 64 64"><path fill="#ededed" d="M39.124,2.5H14a4,4,0,0,0-4,4v50a4,4,0,0,0,4,4H50a4,4,0,0,0,4-4V17.376Z"/><path fill="#c6c6c6" d="M53.707,17.083,39.417,2.793A1,1,0,0,0,37.71,3.5V14.79a4,4,0,0,0,4,4H53a1,1,0,0,0,.707-1.707Z"/><path fill="#ff089b" d="M53,43.393H30.086l-2.4-2.745a2,2,0,0,0-1.505-.684H11a2,2,0,0,0-2,2V56.5a5.006,5.006,0,0,0,5,5H50a5.006,5.006,0,0,0,5-5V45.393A2,2,0,0,0,53,43.393Z"/><path fill="#c6c6c6" d="M26.023 33.849a1 1 0 0 1-.5-.134L18.745 29.8a1.5 1.5 0 0 1 0-2.6l6.778-3.914a1 1 0 0 1 1 1.733L20.492 28.5l6.032 3.483a1 1 0 0 1-.5 1.866zM37.977 33.849a1 1 0 0 1-.5-1.866L43.508 28.5l-6.032-3.482a1 1 0 0 1 1-1.733L45.255 27.2a1.5 1.5 0 0 1 0 2.6l-6.779 3.914A1 1 0 0 1 37.977 33.849zm6.279-4.917h0zM28.731 37.572a1 1 0 0 1-.923-1.382l6.667-16.143a1 1 0 0 1 1.849.764L29.656 36.953A1 1 0 0 1 28.731 37.572zM16.911 12.327a1.211 1.211 0 0 1-.671-.171 1.282 1.282 0 0 1-.417-.443 1.875 1.875 0 0 1-.214-.608 3.879 3.879 0 0 1 0-1.348 1.89 1.89 0 0 1 .214-.612A1.276 1.276 0 0 1 16.24 8.7a1.395 1.395 0 0 1 1.342 0A1.276 1.276 0 0 1 18 9.145a1.912 1.912 0 0 1 .213.612 3.867 3.867 0 0 1 .06.672 2.457 2.457 0 0 1-.338 1.386A1.148 1.148 0 0 1 16.911 12.327zm0-3.149a.471.471 0 0 0-.457.313 2.3 2.3 0 0 0-.149.938 2.289 2.289 0 0 0 .149.94.491.491 0 0 0 .914 0 2.306 2.306 0 0 0 .149-.94 2.322 2.322 0 0 0-.149-.938A.471.471 0 0 0 16.911 9.178zM19.225 11.662h.557V9.3h-.641V8.771a2.468 2.468 0 0 0 .432-.052.786.786 0 0 0 .383-.2h.571v3.14h.561v.616H19.225zM23.279 12.327a1.211 1.211 0 0 1-.671-.171 1.282 1.282 0 0 1-.417-.443 1.875 1.875 0 0 1-.214-.608 3.879 3.879 0 0 1 0-1.348 1.89 1.89 0 0 1 .214-.612 1.276 1.276 0 0 1 .417-.441 1.395 1.395 0 0 1 1.342 0 1.276 1.276 0 0 1 .417.441 1.912 1.912 0 0 1 .213.612 3.867 3.867 0 0 1 .06.672 2.457 2.457 0 0 1-.338 1.386A1.148 1.148 0 0 1 23.279 12.327zm0-3.149a.471.471 0 0 0-.457.313 2.3 2.3 0 0 0-.149.938 2.289 2.289 0 0 0 .149.94.491.491 0 0 0 .914 0 2.306 2.306 0 0 0 .149-.94 2.322 2.322 0 0 0-.149-.938A.471.471 0 0 0 23.279 9.178zM26.81 12.327a1.2 1.2 0 0 1-.67-.171 1.275 1.275 0 0 1-.418-.443 1.874 1.874 0 0 1-.213-.608 3.816 3.816 0 0 1 0-1.348 1.889 1.889 0 0 1 .213-.612A1.269 1.269 0 0 1 26.14 8.7a1.393 1.393 0 0 1 1.341 0 1.276 1.276 0 0 1 .417.441 1.889 1.889 0 0 1 .213.612 3.867 3.867 0 0 1 .06.672 2.449 2.449 0 0 1-.338 1.386A1.148 1.148 0 0 1 26.81 12.327zm0-3.149a.471.471 0 0 0-.457.313 2.322 2.322 0 0 0-.149.938 2.306 2.306 0 0 0 .149.94.491.491 0 0 0 .914 0 2.306 2.306 0 0 0 .149-.94 2.322 2.322 0 0 0-.149-.938A.471.471 0 0 0 26.81 9.178zM29.125 11.662h.556V9.3H29.04V8.771a2.456 2.456 0 0 0 .432-.052.786.786 0 0 0 .383-.2h.571v3.14h.561v.616H29.125zM32.03 11.662h.557V9.3h-.641V8.771a2.468 2.468 0 0 0 .432-.052.791.791 0 0 0 .383-.2h.571v3.14h.561v.616H32.03z"/></svg>