<?xml version="1.0" encoding="utf-8"?>
<!-- Generator: Adobe Illustrator 16.0.0, SVG Export Plug-In . SVG Version: 6.00 Build 0)  -->
<!DOCTYPE svg PUBLIC "-//W3C//DTD SVG 1.1//EN" "http://www.w3.org/Graphics/SVG/1.1/DTD/svg11.dtd" [
	<!ENTITY ns_flows "http://ns.adobe.com/Flows/1.0/">
	<!ENTITY ns_extend "http://ns.adobe.com/Extensibility/1.0/">
	<!ENTITY ns_ai "http://ns.adobe.com/AdobeIllustrator/10.0/">
	<!ENTITY ns_graphs "http://ns.adobe.com/Graphs/1.0/">
]>
<svg version="1.1" id="Layer_1" xmlns:x="&ns_extend;" xmlns:i="&ns_ai;" xmlns:graph="&ns_graphs;"
	 xmlns="http://www.w3.org/2000/svg" xmlns:xlink="http://www.w3.org/1999/xlink" xmlns:a="http://ns.adobe.com/AdobeSVGViewerExtensions/3.0/"
	 x="0px" y="0px" width="91px" height="71px" viewBox="0 0 91 71" enable-background="new 0 0 91 71" xml:space="preserve">
<g>
	<g>
		<g>
			<g>
				<g>
					<path fill="#FFFFFF" stroke="#FFFFFF" stroke-width="2.8346" stroke-miterlimit="10" d="M22.06,47.292l0.001,1.812l2.98-0.003
						l-0.002-1.811c0-0.815-0.118-1.394-0.352-1.728c-0.232-0.337-0.618-0.507-1.16-0.506c-0.521,0-0.896,0.172-1.125,0.515
						C22.172,45.914,22.059,46.489,22.06,47.292L22.06,47.292z M21.5,47.174c-0.001-0.464,0.024-0.849,0.074-1.156
						c0.05-0.307,0.131-0.567,0.242-0.779c0.173-0.323,0.413-0.578,0.716-0.765c0.304-0.187,0.636-0.278,0.995-0.279
						c0.385,0,0.731,0.091,1.038,0.272c0.308,0.184,0.55,0.438,0.727,0.768c0.109,0.207,0.189,0.466,0.24,0.773
						c0.053,0.308,0.08,0.697,0.08,1.163l0.002,2.773l-4.113,0.004L21.5,47.174L21.5,47.174z M25.607,42.056l-4.112,0.003
						l-0.004-4.853h0.553l0.003,4.009l1.145-0.001l-0.002-2.451l0.545-0.001l0.001,2.45l1.307-0.001l-0.003-4.046h0.563
						L25.607,42.056L25.607,42.056z M22.047,30.901l0.003,3.492l2.979-0.002l-0.003-3.493l-1.031,0.001l0.144-0.844l0.486-0.001
						c0.379,0,0.637,0.081,0.772,0.241c0.134,0.164,0.201,0.474,0.202,0.932l0.002,2.82c0,0.457-0.066,0.77-0.204,0.936
						c-0.135,0.164-0.391,0.248-0.769,0.248l-2.167,0.002c-0.375,0-0.632-0.083-0.768-0.247c-0.137-0.165-0.205-0.478-0.205-0.935
						l-0.003-2.822c-0.001-0.457,0.067-0.768,0.202-0.931c0.134-0.161,0.39-0.243,0.769-0.243h0.389l0.13,0.844L22.047,30.901
						L22.047,30.901z M25.024,27.071l-0.003-4.17l-2.979,0.002l0.002,4.17L25.024,27.071L25.024,27.071z M22.457,27.912
						c-0.374,0.001-0.629-0.081-0.767-0.245c-0.137-0.164-0.207-0.477-0.207-0.938l-0.002-3.483
						c-0.001-0.454,0.067-0.763,0.204-0.927c0.135-0.165,0.391-0.246,0.769-0.246l2.165-0.002c0.38,0,0.637,0.08,0.772,0.244
						c0.134,0.164,0.202,0.475,0.202,0.928l0.002,3.484c0,0.459-0.069,0.772-0.205,0.937c-0.138,0.164-0.393,0.246-0.767,0.246
						L22.457,27.912L22.457,27.912z M22.008,15.786l0.001,2.889l1.444-0.002l-0.002-2.887c0-0.21-0.03-0.354-0.094-0.43
						c-0.061-0.076-0.17-0.113-0.327-0.113h-0.599c-0.157,0-0.266,0.039-0.33,0.117C22.039,15.439,22.008,15.58,22.008,15.786
						L22.008,15.786z M25.589,19.517l-4.111,0.002l-0.004-4.061c0-0.377,0.063-0.65,0.188-0.816
						c0.126-0.167,0.329-0.251,0.608-0.251l0.919-0.001c0.276,0,0.479,0.083,0.604,0.25c0.127,0.166,0.189,0.439,0.189,0.816
						l0.001,0.739l1.601-2.304l0.001,1.25l-1.601,2.049l0.001,1.482l1.603-0.002V19.517z"/>
					<path fill="#FFFFFF" stroke="#FFFFFF" stroke-width="2.8346" stroke-miterlimit="10" d="M21.448,50.002l-0.003-2.828
						c0-0.465,0.025-0.856,0.075-1.166c0.052-0.311,0.135-0.579,0.249-0.794c0.176-0.331,0.424-0.596,0.735-0.787
						c0.311-0.191,0.655-0.287,1.023-0.287c0.395,0,0.751,0.094,1.065,0.28c0.316,0.188,0.568,0.453,0.748,0.789
						c0.11,0.21,0.194,0.476,0.247,0.789c0.052,0.311,0.08,0.705,0.08,1.173l0.002,2.828L21.448,50.002z M23.53,44.247
						c-0.352,0.002-0.677,0.092-0.97,0.271c-0.293,0.182-0.528,0.434-0.696,0.745c-0.107,0.207-0.187,0.462-0.237,0.763
						c-0.05,0.304-0.074,0.689-0.074,1.147l0.002,2.72l4.004-0.002l-0.002-2.721c-0.001-0.463-0.027-0.85-0.078-1.153
						c-0.051-0.304-0.131-0.559-0.236-0.757c-0.17-0.318-0.408-0.569-0.706-0.748C24.24,44.337,23.901,44.247,23.53,44.247z
						 M22.007,49.158l-0.001-1.866c-0.001-0.824,0.114-1.396,0.351-1.751c0.239-0.358,0.633-0.54,1.17-0.54h0.002
						c0.555,0,0.96,0.179,1.202,0.529c0.24,0.344,0.362,0.936,0.362,1.76l0.001,1.866L22.007,49.158z M23.53,45.057l-0.002,0.055
						c-0.499,0-0.862,0.164-1.08,0.49c-0.221,0.331-0.334,0.899-0.334,1.69l0.001,1.757l2.871-0.002l-0.001-1.757
						c-0.001-0.801-0.116-1.373-0.343-1.697c-0.22-0.32-0.595-0.481-1.112-0.481V45.057z M21.441,42.114l-0.004-4.962l0.661-0.001
						l0.002,4.009h1.037l-0.002-2.451l0.653-0.001l0.002,2.451l1.198-0.001l-0.004-4.046l0.673-0.001l0.003,4.999L21.441,42.114z
						 M21.546,37.261l0.003,4.745l4.004-0.005l-0.004-4.782l-0.455,0.002l0.002,4.046l-1.416,0.001l-0.001-2.451l-0.436,0.002
						l0.002,2.449l-1.254,0.001l-0.003-4.009L21.546,37.261z M22.462,35.288H22.46c-0.391,0-0.663-0.09-0.808-0.268
						c-0.146-0.177-0.218-0.494-0.218-0.969l-0.002-2.822c0-0.474,0.069-0.79,0.214-0.965c0.146-0.174,0.419-0.262,0.812-0.263
						l0.436-0.001l0.146,0.953l-0.938,0.001l0.002,3.385l2.871-0.003l-0.002-3.384l-1.041,0.001l0.161-0.953h0.532
						c0.394,0,0.667,0.087,0.813,0.26c0.145,0.176,0.214,0.491,0.215,0.967l0.001,2.82c0,0.477-0.07,0.793-0.216,0.971
						c-0.145,0.177-0.417,0.268-0.81,0.268L22.462,35.288z M22.8,30.11h-0.342c-0.358,0-0.603,0.076-0.728,0.224
						c-0.125,0.151-0.188,0.454-0.188,0.896l0.002,2.822c0,0.443,0.065,0.746,0.193,0.9c0.125,0.15,0.368,0.227,0.724,0.227v0.055
						l0.001-0.055l2.167-0.002c0.358,0,0.603-0.076,0.727-0.227c0.127-0.156,0.192-0.458,0.191-0.902l-0.002-2.82
						c0-0.443-0.064-0.744-0.189-0.896c-0.125-0.146-0.37-0.223-0.728-0.223h-0.443l-0.124,0.736h1.021l0.002,3.602l-3.087,0.002
						l-0.003-3.602l0.921-0.001L22.8,30.11z M22.457,27.966h-0.003c-0.394,0-0.657-0.086-0.806-0.265
						c-0.147-0.175-0.219-0.493-0.219-0.972l-0.003-3.483c0-0.471,0.07-0.786,0.216-0.962c0.147-0.179,0.412-0.266,0.811-0.266
						l2.165-0.002c0.402,0,0.667,0.088,0.814,0.265c0.145,0.177,0.214,0.491,0.214,0.962l0.002,3.484
						c0,0.477-0.07,0.795-0.217,0.971c-0.149,0.18-0.414,0.266-0.809,0.267L22.457,27.966z M24.622,22.126l-2.168,0.002
						c-0.359,0-0.604,0.076-0.727,0.227c-0.127,0.152-0.192,0.453-0.191,0.892l0.002,3.483c0,0.445,0.065,0.749,0.194,0.902
						c0.125,0.149,0.368,0.226,0.722,0.226v0.055l0.003-0.055l2.167-0.001c0.356,0,0.599-0.077,0.725-0.228
						c0.128-0.154,0.193-0.457,0.193-0.901l-0.003-3.484c0-0.438-0.064-0.738-0.189-0.893
						C25.225,22.201,24.981,22.126,24.622,22.126z M21.989,27.128l-0.002-4.279l3.087-0.003l0.004,4.279L21.989,27.128z
						 M22.095,22.957l0.003,4.062l2.871-0.003l-0.003-4.061L22.095,22.957z M21.423,19.574l-0.002-4.116
						c0-0.389,0.066-0.675,0.199-0.85c0.136-0.18,0.355-0.271,0.652-0.271l0.919-0.001c0.294,0,0.513,0.092,0.648,0.271
						c0.132,0.174,0.199,0.461,0.199,0.85l0.001,0.566l1.502-2.162l0.1,0.031l0.001,1.27l-1.602,2.048l0.001,1.409l1.603-0.001
						v0.953L21.423,19.574z M23.192,14.444l-0.921,0.001c-0.264,0-0.449,0.075-0.565,0.229c-0.117,0.154-0.177,0.418-0.176,0.783
						l0.003,4.008l4.003-0.004l0-0.735l-1.603,0.001l-0.001-1.555l1.601-2.051l-0.001-1.057l-1.501,2.161l-0.099-0.031l-0.001-0.739
						c0-0.365-0.06-0.629-0.178-0.783C23.636,14.519,23.453,14.444,23.192,14.444z M21.956,18.729l-0.002-2.943
						c0-0.221,0.035-0.371,0.107-0.461c0.076-0.091,0.2-0.137,0.372-0.137l0.599-0.001c0.173,0,0.297,0.046,0.37,0.134
						c0.071,0.087,0.105,0.238,0.105,0.465l0.002,2.941L21.956,18.729z M23.031,15.297l-0.599,0.001
						c-0.138,0-0.235,0.032-0.287,0.098c-0.055,0.067-0.083,0.199-0.083,0.391l0.002,2.834l1.335-0.002l-0.001-2.832
						c0-0.197-0.028-0.33-0.082-0.395C23.265,15.328,23.17,15.297,23.031,15.297L23.031,15.297z"/>
				</g>
				<g>
					<path fill="#FFFFFF" stroke="#FFFFFF" stroke-width="2.8346" stroke-miterlimit="10" d="M53.563,11.313L35.99,48.803
						l-3.928,0.011l-0.029-38.666l39.001-0.03l-3.563-4.636L19.659,5.519l-0.012,4.639l7.436-0.006l0.064,39.662
						c0.14,1.938,0.825,2.758,2.946,3.123l8.806-0.018l-0.02-4.11l2.434-0.007l5.27-11.599l20.063,0.014
						c-0.442,6.32-2.583,9.372-4.249,12.004l2.839,3.895C77.466,38.081,70.221,17.273,53.563,11.313z M48.934,32.44l6.954-14.969
						c3.591,1.971,9.201,7.303,10.444,14.955L48.934,32.44z"/>
				</g>
			</g>
			<g>
				<g>
					
						<path fill-rule="evenodd" clip-rule="evenodd" fill="#FFFFFF" stroke="#FFFFFF" stroke-width="2.8346" stroke-miterlimit="10" d="
						M3.775,65.439l-0.004-5.945L2.5,59.495l-0.001-1.314l3.831-0.003l0.001,1.314l-1.29,0.001l0.004,5.945L3.775,65.439
						L3.775,65.439z M7.063,65.438l-0.005-7.261l1.291-0.001L8.35,61.08l2.466-0.002l-0.002-2.903l1.27-0.002l0.006,7.26
						l-1.271,0.001l-0.001-3.04l-2.468,0.002l0.003,3.04L7.063,65.438L7.063,65.438z M13.455,65.432l-0.006-7.26l1.29-0.001
						l0.005,7.26L13.455,65.432L13.455,65.432z M16.164,65.43l-0.006-7.26l4.97-0.004l0.001,1.314l-3.68,0.004l0.001,1.667
						l3.681-0.003l0.001,1.295l-3.681,0.003l0.002,1.668l3.68-0.003l0.002,1.314L16.164,65.43L16.164,65.43z M16.7,57.522
						l1.194-1.354l0.99-0.002L20.1,57.52l-1.215,0.001l-0.504-0.628l-0.579,0.63H16.7L16.7,57.522z M22.815,65.425l-0.005-7.26
						l1.439-0.002l2.881,5.296l-0.004-5.297l1.29-0.002l0.005,7.26l-1.427,0.005l-2.894-5.278l0.004,5.277L22.815,65.425
						L22.815,65.425z M31.877,65.418l2.873-7.263l0.99-0.001l2.92,7.259l-1.419,0.001l-0.749-1.884l-2.448,0.002l-0.764,1.885
						L31.877,65.418L31.877,65.418z M34.509,62.237l1.477-0.001l-0.73-2.198L34.509,62.237L34.509,62.237z M33.61,57.509
						l1.194-1.354l0.991-0.001l1.215,1.353l-1.215,0.001l-0.505-0.627l-0.58,0.628L33.61,57.509L33.61,57.509z M38.989,55.503
						l-0.935-0.627l-1.4,1.474l0.485,0.294L38.989,55.503L38.989,55.503z M39.726,65.411l-0.005-7.26h1.439l2.881,5.295
						l-0.004-5.298l1.29-0.001l0.006,7.259l-1.427,0.005l-2.893-5.278l0.003,5.277L39.726,65.411L39.726,65.411z M49.349,65.403
						l-0.006-7.259l3.513-0.003l0.002,1.315l-2.225,0.002l0.001,1.666l2.131-0.001l0.001,1.295l-2.131,0.002l0.003,2.981
						L49.349,65.403L49.349,65.403z M53.78,60.51l0.867-0.001l0.004,3.054c0,0.237,0.056,0.458,0.164,0.66
						c0.076,0.124,0.187,0.223,0.331,0.298s0.299,0.112,0.462,0.112c0.122-0.001,0.25-0.041,0.385-0.122
						c0.135-0.082,0.242-0.181,0.323-0.299c0.082-0.116,0.143-0.224,0.18-0.324c0.037-0.099,0.057-0.208,0.057-0.327l-0.003-3.053
						l0.869-0.001l0.002,3.053c0,0.283-0.022,0.515-0.068,0.695c-0.063,0.242-0.178,0.454-0.347,0.638
						c-0.167,0.183-0.376,0.332-0.625,0.45c-0.25,0.116-0.506,0.176-0.771,0.176c-0.256,0-0.507-0.055-0.753-0.161
						c-0.245-0.108-0.456-0.253-0.633-0.436c-0.176-0.185-0.299-0.396-0.365-0.639c-0.051-0.185-0.076-0.425-0.077-0.721
						L53.78,60.51L53.78,60.51z M58.341,65.396l-0.003-4.89l1.346-0.001c0.273-0.001,0.502,0.02,0.684,0.063
						c0.183,0.04,0.357,0.133,0.525,0.276c0.168,0.143,0.301,0.324,0.397,0.542s0.146,0.439,0.146,0.663
						c0,0.186-0.035,0.377-0.104,0.575c-0.069,0.199-0.159,0.361-0.271,0.486c-0.11,0.127-0.235,0.228-0.376,0.305
						c-0.142,0.077-0.293,0.133-0.457,0.169l1.261,1.81l-1.058,0.001l-1.222-1.876v1.877H58.341L58.341,65.396z M59.208,62.833
						l0.466-0.002c0.193,0,0.339-0.016,0.438-0.05c0.098-0.032,0.184-0.083,0.255-0.148c0.143-0.149,0.214-0.327,0.214-0.528
						c0-0.234-0.085-0.419-0.252-0.557c-0.147-0.104-0.324-0.157-0.529-0.156h-0.593L59.208,62.833L59.208,62.833z M62.055,65.394
						l-0.004-4.89l0.97-0.001l1.941,3.567l-0.003-3.569l0.868-0.001l0.004,4.892l-0.96,0.002l-1.95-3.556l0.003,3.556H62.055
						L62.055,65.394z M66.712,65.391L66.708,60.5l0.869-0.001l0.004,4.891L66.712,65.391L66.712,65.391z M69.016,65.389
						l-0.003-4.004h-0.855v-0.887l2.58-0.001v0.885l-0.868,0.002l0.002,4.004L69.016,65.389L69.016,65.389z M71.329,60.497
						l0.868-0.001l0.002,3.053c0,0.238,0.055,0.459,0.165,0.66c0.075,0.124,0.186,0.224,0.33,0.298
						c0.145,0.075,0.3,0.112,0.462,0.112c0.122,0,0.249-0.041,0.384-0.122c0.135-0.082,0.243-0.182,0.325-0.299
						c0.082-0.116,0.142-0.225,0.179-0.324c0.037-0.099,0.057-0.207,0.056-0.327l-0.001-3.053l0.867-0.001l0.003,3.054
						c0,0.282-0.023,0.513-0.069,0.694c-0.063,0.242-0.178,0.455-0.345,0.638c-0.169,0.183-0.376,0.333-0.626,0.451
						c-0.249,0.116-0.507,0.175-0.771,0.176c-0.256,0-0.506-0.056-0.752-0.162c-0.245-0.108-0.457-0.253-0.633-0.437
						c-0.176-0.183-0.299-0.395-0.366-0.638c-0.05-0.184-0.075-0.425-0.075-0.72L71.329,60.497L71.329,60.497z M75.889,65.383
						l-0.004-4.89l1.348-0.002c0.271,0,0.5,0.021,0.683,0.063c0.182,0.041,0.357,0.133,0.525,0.276s0.301,0.324,0.397,0.542
						c0.096,0.218,0.145,0.439,0.145,0.664c0,0.184-0.034,0.377-0.104,0.574c-0.068,0.198-0.158,0.36-0.271,0.487
						c-0.11,0.125-0.235,0.227-0.377,0.305c-0.141,0.075-0.292,0.133-0.456,0.168l1.26,1.81l-1.057,0.001l-1.223-1.876l0.002,1.877
						H75.889L75.889,65.383z M76.755,62.819l0.466-0.001c0.193,0,0.34-0.018,0.438-0.05c0.1-0.033,0.184-0.083,0.255-0.149
						c0.143-0.15,0.214-0.327,0.214-0.529c0-0.233-0.083-0.418-0.252-0.555c-0.146-0.105-0.323-0.158-0.529-0.158h-0.592
						L76.755,62.819L76.755,62.819z M79.603,65.381l-0.004-4.891l3.348-0.003l0.001,0.886l-2.479,0.001l0.001,1.125l2.479-0.003
						l0.001,0.873l-2.479,0.002l0.001,1.124l2.479-0.002v0.885L79.603,65.381z"/>
				</g>
				<g>
					
						<path fill-rule="evenodd" clip-rule="evenodd" fill="#FFFFFF" stroke="#FFFFFF" stroke-width="2.8346" stroke-miterlimit="10" d="
						M85.629,59.512c-0.791,0-1.472-0.273-2.039-0.822c-0.566-0.547-0.851-1.229-0.851-2.045c-0.001-0.811,0.28-1.488,0.845-2.035
						c0.563-0.547,1.243-0.82,2.042-0.821c0.787,0,1.463,0.272,2.027,0.818c0.565,0.546,0.848,1.224,0.848,2.034
						c0.002,0.815-0.279,1.497-0.841,2.046C87.1,59.236,86.422,59.511,85.629,59.512L85.629,59.512z M83.311,56.645
						c0,0.684,0.224,1.253,0.67,1.705c0.447,0.453,0.996,0.68,1.648,0.679s1.199-0.227,1.641-0.681
						c0.44-0.453,0.661-1.022,0.66-1.707c-0.001-0.674-0.222-1.238-0.664-1.689c-0.441-0.454-0.987-0.68-1.64-0.679
						c-0.652,0-1.201,0.227-1.648,0.681C83.532,55.406,83.31,55.971,83.311,56.645L83.311,56.645z M85.026,56.87l0.572-0.001
						l0.869,1.422l0.561-0.003l-0.934-1.45c0.256-0.03,0.459-0.119,0.613-0.268c0.152-0.149,0.229-0.361,0.229-0.638
						c0-0.327-0.095-0.565-0.283-0.714c-0.188-0.148-0.479-0.223-0.876-0.223l-1.249,0.001l0.002,3.293l0.497-0.001L85.026,56.87
						L85.026,56.87z M85.026,56.447l0.601-0.001c0.337,0,0.554-0.045,0.651-0.133s0.146-0.226,0.146-0.411s-0.066-0.314-0.2-0.381
						c-0.132-0.067-0.308-0.103-0.522-0.103l-0.677,0.001L85.026,56.447z"/>
				</g>
			</g>
		</g>
	</g>
	<g>
		<g>
			<g>
				<g>
					<path fill="#C92027" d="M22.06,47.292l0.001,1.812l2.98-0.003l-0.002-1.811c0-0.815-0.118-1.394-0.352-1.728
						c-0.232-0.337-0.618-0.507-1.16-0.506c-0.521,0-0.896,0.172-1.125,0.515C22.172,45.914,22.059,46.489,22.06,47.292
						L22.06,47.292z M21.5,47.174c-0.001-0.464,0.024-0.849,0.074-1.156c0.05-0.307,0.131-0.567,0.242-0.779
						c0.173-0.323,0.413-0.578,0.716-0.765c0.304-0.187,0.636-0.278,0.995-0.279c0.385,0,0.731,0.091,1.038,0.272
						c0.308,0.184,0.55,0.438,0.727,0.768c0.109,0.207,0.189,0.466,0.24,0.773c0.053,0.308,0.08,0.697,0.08,1.163l0.002,2.773
						l-4.113,0.004L21.5,47.174L21.5,47.174z M25.607,42.056l-4.112,0.003l-0.004-4.853h0.553l0.003,4.009l1.145-0.001l-0.002-2.451
						l0.545-0.001l0.001,2.45l1.307-0.001l-0.003-4.046h0.563L25.607,42.056L25.607,42.056z M22.047,30.901l0.003,3.492l2.979-0.002
						l-0.003-3.493l-1.031,0.001l0.144-0.844l0.486-0.001c0.379,0,0.637,0.081,0.772,0.241c0.134,0.164,0.201,0.474,0.202,0.932
						l0.002,2.82c0,0.457-0.066,0.77-0.204,0.936c-0.135,0.164-0.391,0.248-0.769,0.248l-2.167,0.002
						c-0.375,0-0.632-0.083-0.768-0.247c-0.137-0.165-0.205-0.478-0.205-0.935l-0.003-2.822c-0.001-0.457,0.067-0.768,0.202-0.931
						c0.134-0.161,0.39-0.243,0.769-0.243h0.389l0.13,0.844L22.047,30.901L22.047,30.901z M25.024,27.071l-0.003-4.17l-2.979,0.002
						l0.002,4.17L25.024,27.071L25.024,27.071z M22.457,27.912c-0.374,0.001-0.629-0.081-0.767-0.245
						c-0.137-0.164-0.207-0.477-0.207-0.938l-0.002-3.483c-0.001-0.454,0.067-0.763,0.204-0.927
						c0.135-0.165,0.391-0.246,0.769-0.246l2.165-0.002c0.38,0,0.637,0.08,0.772,0.244c0.134,0.164,0.202,0.475,0.202,0.928
						l0.002,3.484c0,0.459-0.069,0.772-0.205,0.937c-0.138,0.164-0.393,0.246-0.767,0.246L22.457,27.912L22.457,27.912z
						 M22.008,15.786l0.001,2.889l1.444-0.002l-0.002-2.887c0-0.21-0.03-0.354-0.094-0.43c-0.061-0.076-0.17-0.113-0.327-0.113
						h-0.599c-0.157,0-0.266,0.039-0.33,0.117C22.039,15.439,22.008,15.58,22.008,15.786L22.008,15.786z M25.589,19.517
						l-4.111,0.002l-0.004-4.061c0-0.377,0.063-0.65,0.188-0.816c0.126-0.167,0.329-0.251,0.608-0.251l0.919-0.001
						c0.276,0,0.479,0.083,0.604,0.25c0.127,0.166,0.189,0.439,0.189,0.816l0.001,0.739l1.601-2.304l0.001,1.25l-1.601,2.049
						l0.001,1.482l1.603-0.002V19.517z"/>
					<path fill="#C92027" d="M21.448,50.002l-0.003-2.828c0-0.465,0.025-0.856,0.075-1.166c0.052-0.311,0.135-0.579,0.249-0.794
						c0.176-0.331,0.424-0.596,0.735-0.787c0.311-0.191,0.655-0.287,1.023-0.287c0.395,0,0.751,0.094,1.065,0.28
						c0.316,0.188,0.568,0.453,0.748,0.789c0.11,0.21,0.194,0.476,0.247,0.789c0.052,0.311,0.08,0.705,0.08,1.173l0.002,2.828
						L21.448,50.002z M23.53,44.247c-0.352,0.002-0.677,0.092-0.97,0.271c-0.293,0.182-0.528,0.434-0.696,0.745
						c-0.107,0.207-0.187,0.462-0.237,0.763c-0.05,0.304-0.074,0.689-0.074,1.147l0.002,2.72l4.004-0.002l-0.002-2.721
						c-0.001-0.463-0.027-0.85-0.078-1.153c-0.051-0.304-0.131-0.559-0.236-0.757c-0.17-0.318-0.408-0.569-0.706-0.748
						C24.24,44.337,23.901,44.247,23.53,44.247z M22.007,49.158l-0.001-1.866c-0.001-0.824,0.114-1.396,0.351-1.751
						c0.239-0.358,0.633-0.54,1.17-0.54h0.002c0.555,0,0.96,0.179,1.202,0.529c0.24,0.344,0.362,0.936,0.362,1.76l0.001,1.866
						L22.007,49.158z M23.53,45.057l-0.002,0.055c-0.499,0-0.862,0.164-1.08,0.49c-0.221,0.331-0.334,0.899-0.334,1.69l0.001,1.757
						l2.871-0.002l-0.001-1.757c-0.001-0.801-0.116-1.373-0.343-1.697c-0.22-0.32-0.595-0.481-1.112-0.481V45.057z M21.441,42.114
						l-0.004-4.962l0.661-0.001l0.002,4.009h1.037l-0.002-2.451l0.653-0.001l0.002,2.451l1.198-0.001l-0.004-4.046l0.673-0.001
						l0.003,4.999L21.441,42.114z M21.546,37.261l0.003,4.745l4.004-0.005l-0.004-4.782l-0.455,0.002l0.002,4.046l-1.416,0.001
						l-0.001-2.451l-0.436,0.002l0.002,2.449l-1.254,0.001l-0.003-4.009L21.546,37.261z M22.462,35.288H22.46
						c-0.391,0-0.663-0.09-0.808-0.268c-0.146-0.177-0.218-0.494-0.218-0.969l-0.002-2.822c0-0.474,0.069-0.79,0.214-0.965
						c0.146-0.174,0.419-0.262,0.812-0.263l0.436-0.001l0.146,0.953l-0.938,0.001l0.002,3.385l2.871-0.003l-0.002-3.384
						l-1.041,0.001l0.161-0.953h0.532c0.394,0,0.667,0.087,0.813,0.26c0.145,0.176,0.214,0.491,0.215,0.967l0.001,2.82
						c0,0.477-0.07,0.793-0.216,0.971c-0.145,0.177-0.417,0.268-0.81,0.268L22.462,35.288z M22.8,30.11h-0.342
						c-0.358,0-0.603,0.076-0.728,0.224c-0.125,0.151-0.188,0.454-0.188,0.896l0.002,2.822c0,0.443,0.065,0.746,0.193,0.9
						c0.125,0.15,0.368,0.227,0.724,0.227v0.055l0.001-0.055l2.167-0.002c0.358,0,0.603-0.076,0.727-0.227
						c0.127-0.156,0.192-0.458,0.191-0.902l-0.002-2.82c0-0.443-0.064-0.744-0.189-0.896c-0.125-0.146-0.37-0.223-0.728-0.223
						h-0.443l-0.124,0.736h1.021l0.002,3.602l-3.087,0.002l-0.003-3.602l0.921-0.001L22.8,30.11z M22.457,27.966h-0.003
						c-0.394,0-0.657-0.086-0.806-0.265c-0.147-0.175-0.219-0.493-0.219-0.972l-0.003-3.483c0-0.471,0.07-0.786,0.216-0.962
						c0.147-0.179,0.412-0.266,0.811-0.266l2.165-0.002c0.402,0,0.667,0.088,0.814,0.265c0.145,0.177,0.214,0.491,0.214,0.962
						l0.002,3.484c0,0.477-0.07,0.795-0.217,0.971c-0.149,0.18-0.414,0.266-0.809,0.267L22.457,27.966z M24.622,22.126l-2.168,0.002
						c-0.359,0-0.604,0.076-0.727,0.227c-0.127,0.152-0.192,0.453-0.191,0.892l0.002,3.483c0,0.445,0.065,0.749,0.194,0.902
						c0.125,0.149,0.368,0.226,0.722,0.226v0.055l0.003-0.055l2.167-0.001c0.356,0,0.599-0.077,0.725-0.228
						c0.128-0.154,0.193-0.457,0.193-0.901l-0.003-3.484c0-0.438-0.064-0.738-0.189-0.893
						C25.225,22.201,24.981,22.126,24.622,22.126z M21.989,27.128l-0.002-4.279l3.087-0.003l0.004,4.279L21.989,27.128z
						 M22.095,22.957l0.003,4.062l2.871-0.003l-0.003-4.061L22.095,22.957z M21.423,19.574l-0.002-4.116
						c0-0.389,0.066-0.675,0.199-0.85c0.136-0.18,0.355-0.271,0.652-0.271l0.919-0.001c0.294,0,0.513,0.092,0.648,0.271
						c0.132,0.174,0.199,0.461,0.199,0.85l0.001,0.566l1.502-2.162l0.1,0.031l0.001,1.27l-1.602,2.048l0.001,1.409l1.603-0.001
						v0.953L21.423,19.574z M23.192,14.444l-0.921,0.001c-0.264,0-0.449,0.075-0.565,0.229c-0.117,0.154-0.177,0.418-0.176,0.783
						l0.003,4.008l4.003-0.004l0-0.735l-1.603,0.001l-0.001-1.555l1.601-2.051l-0.001-1.057l-1.501,2.161l-0.099-0.031l-0.001-0.739
						c0-0.365-0.06-0.629-0.178-0.783C23.636,14.519,23.453,14.444,23.192,14.444z M21.956,18.729l-0.002-2.943
						c0-0.221,0.035-0.371,0.107-0.461c0.076-0.091,0.2-0.137,0.372-0.137l0.599-0.001c0.173,0,0.297,0.046,0.37,0.134
						c0.071,0.087,0.105,0.238,0.105,0.465l0.002,2.941L21.956,18.729z M23.031,15.297l-0.599,0.001
						c-0.138,0-0.235,0.032-0.287,0.098c-0.055,0.067-0.083,0.199-0.083,0.391l0.002,2.834l1.335-0.002l-0.001-2.832
						c0-0.197-0.028-0.33-0.082-0.395C23.265,15.328,23.17,15.297,23.031,15.297L23.031,15.297z"/>
				</g>
				<g>
					<path fill="#C92027" d="M53.563,11.313L35.99,48.803l-3.928,0.011l-0.029-38.666l39.001-0.03l-3.563-4.636L19.659,5.519
						l-0.012,4.639l7.436-0.006l0.064,39.662c0.14,1.938,0.825,2.758,2.946,3.123l8.806-0.018l-0.02-4.11l2.434-0.007l5.27-11.599
						l20.063,0.014c-0.442,6.32-2.583,9.372-4.249,12.004l2.839,3.895C77.466,38.081,70.221,17.273,53.563,11.313z M48.934,32.44
						l6.954-14.969c3.591,1.971,9.201,7.303,10.444,14.955L48.934,32.44z"/>
				</g>
			</g>
			<g>
				<g>
					<path fill-rule="evenodd" clip-rule="evenodd" fill="#C92027" d="M3.775,65.439l-0.004-5.945L2.5,59.495l-0.001-1.314
						l3.831-0.003l0.001,1.314l-1.29,0.001l0.004,5.945L3.775,65.439L3.775,65.439z M7.063,65.438l-0.005-7.261l1.291-0.001
						L8.35,61.08l2.466-0.002l-0.002-2.903l1.27-0.002l0.006,7.26l-1.271,0.001l-0.001-3.04l-2.468,0.002l0.003,3.04L7.063,65.438
						L7.063,65.438z M13.455,65.432l-0.006-7.26l1.29-0.001l0.005,7.26L13.455,65.432L13.455,65.432z M16.164,65.43l-0.006-7.26
						l4.97-0.004l0.001,1.314l-3.68,0.004l0.001,1.667l3.681-0.003l0.001,1.295l-3.681,0.003l0.002,1.668l3.68-0.003l0.002,1.314
						L16.164,65.43L16.164,65.43z M16.7,57.522l1.194-1.354l0.99-0.002L20.1,57.52l-1.215,0.001l-0.504-0.628l-0.579,0.63H16.7
						L16.7,57.522z M22.815,65.425l-0.005-7.26l1.439-0.002l2.881,5.296l-0.004-5.297l1.29-0.002l0.005,7.26l-1.427,0.005
						l-2.894-5.278l0.004,5.277L22.815,65.425L22.815,65.425z M31.877,65.418l2.873-7.263l0.99-0.001l2.92,7.259l-1.419,0.001
						l-0.749-1.884l-2.448,0.002l-0.764,1.885L31.877,65.418L31.877,65.418z M34.509,62.237l1.477-0.001l-0.73-2.198L34.509,62.237
						L34.509,62.237z M33.61,57.509l1.194-1.354l0.991-0.001l1.215,1.353l-1.215,0.001l-0.505-0.627l-0.58,0.628L33.61,57.509
						L33.61,57.509z M38.989,55.503l-0.935-0.627l-1.4,1.474l0.485,0.294L38.989,55.503L38.989,55.503z M39.726,65.411l-0.005-7.26
						h1.439l2.881,5.295l-0.004-5.298l1.29-0.001l0.006,7.259l-1.427,0.005l-2.893-5.278l0.003,5.277L39.726,65.411L39.726,65.411z
						 M49.349,65.403l-0.006-7.259l3.513-0.003l0.002,1.315l-2.225,0.002l0.001,1.666l2.131-0.001l0.001,1.295l-2.131,0.002
						l0.003,2.981L49.349,65.403L49.349,65.403z M53.78,60.51l0.867-0.001l0.004,3.054c0,0.237,0.056,0.458,0.164,0.66
						c0.076,0.124,0.187,0.223,0.331,0.298s0.299,0.112,0.462,0.112c0.122-0.001,0.25-0.041,0.385-0.122
						c0.135-0.082,0.242-0.181,0.323-0.299c0.082-0.116,0.143-0.224,0.18-0.324c0.037-0.099,0.057-0.208,0.057-0.327l-0.003-3.053
						l0.869-0.001l0.002,3.053c0,0.283-0.022,0.515-0.068,0.695c-0.063,0.242-0.178,0.454-0.347,0.638
						c-0.167,0.183-0.376,0.332-0.625,0.45c-0.25,0.116-0.506,0.176-0.771,0.176c-0.256,0-0.507-0.055-0.753-0.161
						c-0.245-0.108-0.456-0.253-0.633-0.436c-0.176-0.185-0.299-0.396-0.365-0.639c-0.051-0.185-0.076-0.425-0.077-0.721
						L53.78,60.51L53.78,60.51z M58.341,65.396l-0.003-4.89l1.346-0.001c0.273-0.001,0.502,0.02,0.684,0.063
						c0.183,0.04,0.357,0.133,0.525,0.276c0.168,0.143,0.301,0.324,0.397,0.542s0.146,0.439,0.146,0.663
						c0,0.186-0.035,0.377-0.104,0.575c-0.069,0.199-0.159,0.361-0.271,0.486c-0.11,0.127-0.235,0.228-0.376,0.305
						c-0.142,0.077-0.293,0.133-0.457,0.169l1.261,1.81l-1.058,0.001l-1.222-1.876v1.877H58.341L58.341,65.396z M59.208,62.833
						l0.466-0.002c0.193,0,0.339-0.016,0.438-0.05c0.098-0.032,0.184-0.083,0.255-0.148c0.143-0.149,0.214-0.327,0.214-0.528
						c0-0.234-0.085-0.419-0.252-0.557c-0.147-0.104-0.324-0.157-0.529-0.156h-0.593L59.208,62.833L59.208,62.833z M62.055,65.394
						l-0.004-4.89l0.97-0.001l1.941,3.567l-0.003-3.569l0.868-0.001l0.004,4.892l-0.96,0.002l-1.95-3.556l0.003,3.556H62.055
						L62.055,65.394z M66.712,65.391L66.708,60.5l0.869-0.001l0.004,4.891L66.712,65.391L66.712,65.391z M69.016,65.389
						l-0.003-4.004h-0.855v-0.887l2.58-0.001v0.885l-0.868,0.002l0.002,4.004L69.016,65.389L69.016,65.389z M71.329,60.497
						l0.868-0.001l0.002,3.053c0,0.238,0.055,0.459,0.165,0.66c0.075,0.124,0.186,0.224,0.33,0.298
						c0.145,0.075,0.3,0.112,0.462,0.112c0.122,0,0.249-0.041,0.384-0.122c0.135-0.082,0.243-0.182,0.325-0.299
						c0.082-0.116,0.142-0.225,0.179-0.324c0.037-0.099,0.057-0.207,0.056-0.327l-0.001-3.053l0.867-0.001l0.003,3.054
						c0,0.282-0.023,0.513-0.069,0.694c-0.063,0.242-0.178,0.455-0.345,0.638c-0.169,0.183-0.376,0.333-0.626,0.451
						c-0.249,0.116-0.507,0.175-0.771,0.176c-0.256,0-0.506-0.056-0.752-0.162c-0.245-0.108-0.457-0.253-0.633-0.437
						c-0.176-0.183-0.299-0.395-0.366-0.638c-0.05-0.184-0.075-0.425-0.075-0.72L71.329,60.497L71.329,60.497z M75.889,65.383
						l-0.004-4.89l1.348-0.002c0.271,0,0.5,0.021,0.683,0.063c0.182,0.041,0.357,0.133,0.525,0.276s0.301,0.324,0.397,0.542
						c0.096,0.218,0.145,0.439,0.145,0.664c0,0.184-0.034,0.377-0.104,0.574c-0.068,0.198-0.158,0.36-0.271,0.487
						c-0.11,0.125-0.235,0.227-0.377,0.305c-0.141,0.075-0.292,0.133-0.456,0.168l1.26,1.81l-1.057,0.001l-1.223-1.876l0.002,1.877
						H75.889L75.889,65.383z M76.755,62.819l0.466-0.001c0.193,0,0.34-0.018,0.438-0.05c0.1-0.033,0.184-0.083,0.255-0.149
						c0.143-0.15,0.214-0.327,0.214-0.529c0-0.233-0.083-0.418-0.252-0.555c-0.146-0.105-0.323-0.158-0.529-0.158h-0.592
						L76.755,62.819L76.755,62.819z M79.603,65.381l-0.004-4.891l3.348-0.003l0.001,0.886l-2.479,0.001l0.001,1.125l2.479-0.003
						l0.001,0.873l-2.479,0.002l0.001,1.124l2.479-0.002v0.885L79.603,65.381z"/>
				</g>
				<g>
					<path fill-rule="evenodd" clip-rule="evenodd" fill="#C92027" d="M85.629,59.512c-0.791,0-1.472-0.273-2.039-0.822
						c-0.566-0.547-0.851-1.229-0.851-2.045c-0.001-0.811,0.28-1.488,0.845-2.035c0.563-0.547,1.243-0.82,2.042-0.821
						c0.787,0,1.463,0.272,2.027,0.818c0.565,0.546,0.848,1.224,0.848,2.034c0.002,0.815-0.279,1.497-0.841,2.046
						C87.1,59.236,86.422,59.511,85.629,59.512L85.629,59.512z M83.311,56.645c0,0.684,0.224,1.253,0.67,1.705
						c0.447,0.453,0.996,0.68,1.648,0.679s1.199-0.227,1.641-0.681c0.44-0.453,0.661-1.022,0.66-1.707
						c-0.001-0.674-0.222-1.238-0.664-1.689c-0.441-0.454-0.987-0.68-1.64-0.679c-0.652,0-1.201,0.227-1.648,0.681
						C83.532,55.406,83.31,55.971,83.311,56.645L83.311,56.645z M85.026,56.87l0.572-0.001l0.869,1.422l0.561-0.003l-0.934-1.45
						c0.256-0.03,0.459-0.119,0.613-0.268c0.152-0.149,0.229-0.361,0.229-0.638c0-0.327-0.095-0.565-0.283-0.714
						c-0.188-0.148-0.479-0.223-0.876-0.223l-1.249,0.001l0.002,3.293l0.497-0.001L85.026,56.87L85.026,56.87z M85.026,56.447
						l0.601-0.001c0.337,0,0.554-0.045,0.651-0.133s0.146-0.226,0.146-0.411s-0.066-0.314-0.2-0.381
						c-0.132-0.067-0.308-0.103-0.522-0.103l-0.677,0.001L85.026,56.447z"/>
				</g>
			</g>
		</g>
	</g>
</g>
</svg>
