<?xml version="1.0" standalone="no"?>
<!DOCTYPE svg PUBLIC "-//W3C//DTD SVG 1.1//EN" "http://www.w3.org/Graphics/SVG/1.1/DTD/svg11.dtd" >
<svg>
<metadata>
Created by FontForge 20120731 at Thu Jun 13 06:16:09 2019
 By Apache
(c) Sun Life Assurance Company of Canada. All rights reserved. Designed and digitized by Nick Cooke, G-Type 2018.
</metadata>
<defs>
<font id="SunLifeSerif-Regular" horiz-adv-x="600" >
  <font-face 
    font-family="Sun Life Serif Regular"
    font-weight="400"
    font-stretch="normal"
    units-per-em="1000"
    panose-1="2 0 5 5 0 0 0 2 0 4"
    ascent="800"
    descent="-200"
    x-height="505"
    cap-height="703"
    bbox="-151.35 -286.546 1150 1026"
    underline-thickness="50"
    underline-position="-50"
    unicode-range="U+000D-FB04"
  />
<missing-glyph horiz-adv-x="610" 
d="M50 703h510v-703h-510v703zM304 307l-184 -254h368zM120 650l184 -254l184 254h-368zM272 351l-169 233v-465zM338 351l169 -232v465z" />
    <glyph glyph-name="fi" unicode="fi" horiz-adv-x="647" 
d="M31 451v32c0 6 5 11 11 12l73 6v44c0 126 31 229 180 229c34 0 68 -6 96 -16c6 -2 9 -8 7 -14l-15 -49c-2 -6 -8 -9 -13 -7c-22 8 -46 14 -70 14c-64 0 -91 -38 -91 -146v-51h96c7 0 11 -4 11 -11v-43c0 -7 -4 -11 -11 -11h-96v-382l86 -7c6 0 11 -5 11 -12v-28
c0 -7 -5 -11 -11 -11h-266c-7 0 -11 4 -11 11v28c0 7 4 12 11 12l86 7v382h-73c-6 0 -11 4 -11 11zM341 11v28c0 7 4 12 11 12l86 7v388l-82 7c-6 1 -11 6 -11 13v28c0 7 5 11 11 11h165c6 0 11 -4 11 -11v-436l86 -7c6 0 11 -5 11 -12v-28c0 -7 -5 -11 -11 -11h-266
c-7 0 -11 4 -11 11zM422 718c0 31 25 56 56 56s56 -25 56 -56s-25 -56 -56 -56s-56 25 -56 56z" />
    <glyph glyph-name="fl" unicode="fl" horiz-adv-x="647" 
d="M532 753v-695l86 -7c6 0 11 -5 11 -12v-28c0 -7 -5 -11 -11 -11h-266c-7 0 -11 4 -11 11v28c0 7 4 12 11 12l86 7v623c-34 12 -74 22 -117 22c-78 0 -112 -38 -112 -147v-51h135c7 0 11 -4 11 -11v-43c0 -7 -4 -11 -11 -11h-135v-382l86 -7c6 0 11 -5 11 -12v-28
c0 -7 -5 -11 -11 -11h-266c-7 0 -11 4 -11 11v28c0 7 4 12 11 12l86 7v382h-73c-6 0 -11 4 -11 11v32c0 6 5 11 11 12l73 6v44c0 126 33 229 205 229c39 0 83 -7 117 -19l84 8c6 1 11 -4 11 -10z" />
    <glyph glyph-name=".notdef" horiz-adv-x="610" 
d="M50 703h510v-703h-510v703zM304 307l-184 -254h368zM120 650l184 -254l184 254h-368zM272 351l-169 233v-465zM338 351l169 -232v465z" />
    <glyph glyph-name="A" unicode="A" horiz-adv-x="771" 
d="M226 663v29c0 6 4 11 11 11h186c7 0 13 -4 16 -10c73 -185 164 -422 241 -633l67 -8c6 -1 11 -6 11 -13v-28c0 -7 -5 -11 -11 -11h-241c-7 0 -11 4 -11 11v28c0 7 4 12 11 13l66 8c-15 40 -41 119 -53 151h-287c-2 -8 -54 -144 -56 -151l68 -8c6 -1 11 -6 11 -13v-28
c0 -7 -5 -11 -11 -11h-220c-7 0 -11 4 -11 11v28c0 7 4 12 11 13l66 8c70 187 157 413 227 584l-80 7c-7 0 -11 5 -11 12zM255 279h240c-25 71 -53 142 -79 212c-11 33 -25 75 -36 116h-5c-9 -42 -25 -83 -38 -118c-3 -11 -78 -199 -82 -210z" />
    <glyph glyph-name="AE" unicode="&#xc6;" horiz-adv-x="1046" 
d="M13 11v28c0 7 4 12 11 13l66 8c123 186 272 410 391 584l-75 7c-6 0 -11 5 -11 12v29c0 6 5 11 11 11h580c6 0 11 -5 11 -11l5 -153c0 -7 -5 -11 -11 -11h-30c-7 0 -12 4 -13 11l-18 98h-290v-245h198l12 82c1 7 6 11 13 11h27c7 0 11 -4 11 -11v-230
c0 -6 -4 -11 -11 -11h-27c-7 0 -12 4 -13 11l-12 82h-198v-260h299l22 108c2 7 7 11 14 11h30c6 0 11 -4 10 -11l-10 -163c-1 -7 -5 -11 -12 -11h-544c-7 0 -11 4 -11 11v28c0 7 4 12 11 12l91 7v153h-262c-5 -9 -93 -142 -98 -151l67 -8c7 -1 11 -6 11 -13v-28
c0 -7 -4 -11 -11 -11h-223c-7 0 -11 4 -11 11zM540 279v328h-5c-22 -42 -48 -83 -72 -118c-38 -54 -100 -149 -142 -210h219z" />
    <glyph glyph-name="Aacute" unicode="&#xc1;" horiz-adv-x="771" 
d="M226 663v29c0 6 4 11 11 11h186c7 0 13 -4 16 -10c73 -185 164 -422 241 -633l67 -8c6 -1 11 -6 11 -13v-28c0 -7 -5 -11 -11 -11h-241c-7 0 -11 4 -11 11v28c0 7 4 12 11 13l66 8c-15 40 -41 119 -53 151h-287c-2 -8 -54 -144 -56 -151l68 -8c6 -1 11 -6 11 -13v-28
c0 -7 -5 -11 -11 -11h-220c-7 0 -11 4 -11 11v28c0 7 4 12 11 13l66 8c70 187 157 413 227 584l-80 7c-7 0 -11 5 -11 12zM255 279h240c-25 71 -53 142 -79 212c-11 33 -25 75 -36 116h-5c-9 -42 -25 -83 -38 -118c-3 -11 -78 -199 -82 -210zM411 968h77c7 0 8 -4 3 -9
c-62 -63 -120 -124 -173 -182c-3 -5 -11 -8 -18 -8h-34c-7 0 -9 3 -5 9c41 60 87 124 132 181c4 5 11 9 18 9z" />
    <glyph glyph-name="Abreve" unicode="&#x102;" horiz-adv-x="771" 
d="M226 663v29c0 6 4 11 11 11h186c7 0 13 -4 16 -10c73 -185 164 -422 241 -633l67 -8c6 -1 11 -6 11 -13v-28c0 -7 -5 -11 -11 -11h-241c-7 0 -11 4 -11 11v28c0 7 4 12 11 13l66 8c-15 40 -41 119 -53 151h-287c-2 -8 -54 -144 -56 -151l68 -8c6 -1 11 -6 11 -13v-28
c0 -7 -5 -11 -11 -11h-220c-7 0 -11 4 -11 11v28c0 7 4 12 11 13l66 8c70 187 157 413 227 584l-80 7c-7 0 -11 5 -11 12zM255 279h240c-25 71 -53 142 -79 212c-11 33 -25 75 -36 116h-5c-9 -42 -25 -83 -38 -118c-3 -11 -78 -199 -82 -210zM221 923l23 17c5 4 10 2 13 -4
c27 -62 67 -85 120 -85s93 23 120 85c3 6 8 8 13 4l23 -17c5 -4 8 -11 5 -17c-28 -91 -91 -126 -161 -126s-133 35 -162 126c-2 6 1 13 6 17z" />
    <glyph glyph-name="Acircumflex" unicode="&#xc2;" horiz-adv-x="771" 
d="M226 663v29c0 6 4 11 11 11h186c7 0 13 -4 16 -10c73 -185 164 -422 241 -633l67 -8c6 -1 11 -6 11 -13v-28c0 -7 -5 -11 -11 -11h-241c-7 0 -11 4 -11 11v28c0 7 4 12 11 13l66 8c-15 40 -41 119 -53 151h-287c-2 -8 -54 -144 -56 -151l68 -8c6 -1 11 -6 11 -13v-28
c0 -7 -5 -11 -11 -11h-220c-7 0 -11 4 -11 11v28c0 7 4 12 11 13l66 8c70 187 157 413 227 584l-80 7c-7 0 -11 5 -11 12zM255 279h240c-25 71 -53 142 -79 212c-11 33 -25 75 -36 116h-5c-9 -42 -25 -83 -38 -118c-3 -11 -78 -199 -82 -210zM358 968h41c6 0 13 -4 18 -9
c45 -57 90 -121 131 -181c4 -6 2 -9 -4 -9h-35c-6 0 -14 3 -19 8c-25 30 -83 86 -112 116c-39 -40 -78 -79 -112 -116c-4 -5 -12 -8 -19 -8h-34c-7 0 -9 3 -5 9c42 60 87 124 132 181c4 5 11 9 18 9z" />
    <glyph glyph-name="Adieresis" unicode="&#xc4;" horiz-adv-x="771" 
d="M226 663v29c0 6 4 11 11 11h186c7 0 13 -4 16 -10c73 -185 164 -422 241 -633l67 -8c6 -1 11 -6 11 -13v-28c0 -7 -5 -11 -11 -11h-241c-7 0 -11 4 -11 11v28c0 7 4 12 11 13l66 8c-15 40 -41 119 -53 151h-287c-2 -8 -54 -144 -56 -151l68 -8c6 -1 11 -6 11 -13v-28
c0 -7 -5 -11 -11 -11h-220c-7 0 -11 4 -11 11v28c0 7 4 12 11 13l66 8c70 187 157 413 227 584l-80 7c-7 0 -11 5 -11 12zM255 279h240c-25 71 -53 142 -79 212c-11 33 -25 75 -36 116h-5c-9 -42 -25 -83 -38 -118c-3 -11 -78 -199 -82 -210zM231 853c0 30 24 54 55 54
c30 0 54 -24 54 -54s-24 -54 -54 -54c-31 0 -55 24 -55 54zM417 853c0 30 24 54 54 54s55 -24 55 -54s-25 -54 -55 -54s-54 24 -54 54z" />
    <glyph glyph-name="Agrave" unicode="&#xc0;" horiz-adv-x="771" 
d="M226 663v29c0 6 4 11 11 11h186c7 0 13 -4 16 -10c73 -185 164 -422 241 -633l67 -8c6 -1 11 -6 11 -13v-28c0 -7 -5 -11 -11 -11h-241c-7 0 -11 4 -11 11v28c0 7 4 12 11 13l66 8c-15 40 -41 119 -53 151h-287c-2 -8 -54 -144 -56 -151l68 -8c6 -1 11 -6 11 -13v-28
c0 -7 -5 -11 -11 -11h-220c-7 0 -11 4 -11 11v28c0 7 4 12 11 13l66 8c70 187 157 413 227 584l-80 7c-7 0 -11 5 -11 12zM255 279h240c-25 71 -53 142 -79 212c-11 33 -25 75 -36 116h-5c-9 -42 -25 -83 -38 -118c-3 -11 -78 -199 -82 -210zM266 968h78c6 0 13 -4 17 -9
c45 -57 91 -121 132 -181c4 -6 2 -9 -5 -9h-34c-7 0 -14 3 -18 8c-52 58 -111 119 -173 182c-5 5 -3 9 3 9z" />
    <glyph glyph-name="Amacron" unicode="&#x100;" horiz-adv-x="771" 
d="M226 663v29c0 6 4 11 11 11h186c7 0 13 -4 16 -10c73 -185 164 -422 241 -633l67 -8c6 -1 11 -6 11 -13v-28c0 -7 -5 -11 -11 -11h-241c-7 0 -11 4 -11 11v28c0 7 4 12 11 13l66 8c-15 40 -41 119 -53 151h-287c-2 -8 -54 -144 -56 -151l68 -8c6 -1 11 -6 11 -13v-28
c0 -7 -5 -11 -11 -11h-220c-7 0 -11 4 -11 11v28c0 7 4 12 11 13l66 8c70 187 157 413 227 584l-80 7c-7 0 -11 5 -11 12zM255 279h240c-25 71 -53 142 -79 212c-11 33 -25 75 -36 116h-5c-9 -42 -25 -83 -38 -118c-3 -11 -78 -199 -82 -210zM253 820v54c0 7 4 11 11 11h227
c6 0 11 -4 11 -11v-54c0 -7 -5 -11 -11 -11h-227c-7 0 -11 4 -11 11z" />
    <glyph glyph-name="Aogonek" unicode="&#x104;" horiz-adv-x="771" 
d="M722 -193c-20 -9 -43 -14 -66 -14c-70 0 -111 27 -111 82s50 99 142 125h-181c-7 0 -11 4 -11 11v28c0 7 4 12 11 13l66 8c-15 40 -41 119 -53 151h-287c-2 -8 -54 -144 -56 -151l68 -8c6 -1 11 -6 11 -13v-28c0 -7 -5 -11 -11 -11h-220c-7 0 -11 4 -11 11v28
c0 7 4 12 11 13l66 8c70 187 157 413 227 584l-80 7c-7 0 -11 5 -11 12v29c0 6 4 11 11 11h186c7 0 13 -4 16 -10c73 -185 164 -422 241 -633l67 -8c6 -1 11 -6 11 -13v-28c0 -7 -5 -11 -10 -11c-82 -26 -120 -66 -120 -106c0 -28 17 -41 49 -41c15 0 28 3 44 8
c6 2 10 -1 10 -7v-31c0 -7 -3 -14 -9 -16zM255 279h240c-25 71 -53 142 -79 212c-11 33 -25 75 -36 116h-5c-9 -42 -25 -83 -38 -118c-3 -11 -78 -199 -82 -210z" />
    <glyph glyph-name="Aring" unicode="&#xc5;" horiz-adv-x="771" 
d="M226 663v29c0 6 4 11 11 11h186c7 0 13 -4 16 -10c73 -185 164 -422 241 -633l67 -8c6 -1 11 -6 11 -13v-28c0 -7 -5 -11 -11 -11h-241c-7 0 -11 4 -11 11v28c0 7 4 12 11 13l66 8c-15 40 -41 119 -53 151h-287c-2 -8 -54 -144 -56 -151l68 -8c6 -1 11 -6 11 -13v-28
c0 -7 -5 -11 -11 -11h-220c-7 0 -11 4 -11 11v28c0 7 4 12 11 13l66 8c70 187 157 413 227 584l-80 7c-7 0 -11 5 -11 12zM255 279h240c-25 71 -53 142 -79 212c-11 33 -25 75 -36 116h-5c-9 -42 -25 -83 -38 -118c-3 -11 -78 -199 -82 -210zM263 888c0 63 47 114 115 114
s115 -51 115 -114s-47 -114 -115 -114s-115 51 -115 114zM319 888c0 -32 25 -59 59 -59s59 27 59 59c0 31 -25 59 -59 59s-59 -28 -59 -59z" />
    <glyph glyph-name="Atilde" unicode="&#xc3;" horiz-adv-x="771" 
d="M226 663v29c0 6 4 11 11 11h186c7 0 13 -4 16 -10c73 -185 164 -422 241 -633l67 -8c6 -1 11 -6 11 -13v-28c0 -7 -5 -11 -11 -11h-241c-7 0 -11 4 -11 11v28c0 7 4 12 11 13l66 8c-15 40 -41 119 -53 151h-287c-2 -8 -54 -144 -56 -151l68 -8c6 -1 11 -6 11 -13v-28
c0 -7 -5 -11 -11 -11h-220c-7 0 -11 4 -11 11v28c0 7 4 12 11 13l66 8c70 187 157 413 227 584l-80 7c-7 0 -11 5 -11 12zM255 279h240c-25 71 -53 142 -79 212c-11 33 -25 75 -36 116h-5c-9 -42 -25 -83 -38 -118c-3 -11 -78 -199 -82 -210zM245 810l-17 13
c-6 4 -8 11 -6 17c19 61 53 89 92 89c29 0 54 -16 77 -32c20 -15 41 -30 61 -30c21 0 36 15 45 38c3 6 7 7 12 4l17 -13c6 -5 8 -11 6 -18c-19 -60 -53 -89 -92 -89c-29 0 -53 17 -76 33c-20 14 -42 30 -62 30s-35 -15 -45 -39c-2 -6 -7 -7 -12 -3z" />
    <glyph glyph-name="B" unicode="B" horiz-adv-x="695" 
d="M24 11v28c0 7 5 12 11 12l91 7v586l-91 7c-6 1 -11 6 -11 12v29c0 6 5 11 11 11h303c173 0 262 -55 262 -177c0 -86 -46 -130 -106 -154c84 -23 145 -69 145 -177c0 -131 -102 -195 -297 -195h-307c-6 0 -11 4 -11 11zM226 338v-272h129c128 0 184 47 184 133
c0 89 -61 139 -161 139h-152zM226 637v-233h137c69 0 139 26 139 114c0 81 -58 119 -161 119h-115z" />
    <glyph glyph-name="C" unicode="C" horiz-adv-x="669" 
d="M590 652l-15 -158c-1 -7 -6 -11 -12 -11h-32c-6 0 -11 4 -12 11l-18 123c-33 14 -72 21 -118 21c-147 0 -226 -110 -226 -287c0 -176 86 -285 229 -285c70 0 136 24 181 56c5 4 10 2 13 -4l19 -52c3 -6 1 -13 -4 -17c-50 -34 -139 -59 -225 -59c-220 0 -314 161 -314 361
c0 197 94 362 330 362c82 0 143 -18 196 -45c5 -3 9 -9 8 -16z" />
    <glyph glyph-name="CR" unicode="&#xd;" horiz-adv-x="308" 
 />
    <glyph glyph-name="Cacute" unicode="&#x106;" horiz-adv-x="669" 
d="M590 652l-15 -158c-1 -7 -6 -11 -12 -11h-32c-6 0 -11 4 -12 11l-18 123c-33 14 -72 21 -118 21c-147 0 -226 -110 -226 -287c0 -176 86 -285 229 -285c70 0 136 24 181 56c5 4 10 2 13 -4l19 -52c3 -6 1 -13 -4 -17c-50 -34 -139 -59 -225 -59c-220 0 -314 161 -314 361
c0 197 94 362 330 362c82 0 143 -18 196 -45c5 -3 9 -9 8 -16zM402 968h77c7 0 8 -4 3 -9c-62 -63 -120 -124 -173 -182c-3 -5 -11 -8 -18 -8h-34c-7 0 -9 3 -5 9c41 60 87 124 132 181c4 5 11 9 18 9z" />
    <glyph glyph-name="Ccaron" unicode="&#x10c;" horiz-adv-x="669" 
d="M590 652l-15 -158c-1 -7 -6 -11 -12 -11h-32c-6 0 -11 4 -12 11l-18 123c-33 14 -72 21 -118 21c-147 0 -226 -110 -226 -287c0 -176 86 -285 229 -285c70 0 136 24 181 56c5 4 10 2 13 -4l19 -52c3 -6 1 -13 -4 -17c-50 -34 -139 -59 -225 -59c-220 0 -314 161 -314 361
c0 197 94 362 330 362c82 0 143 -18 196 -45c5 -3 9 -9 8 -16zM391 769h-41c-7 0 -14 3 -18 9c-45 57 -90 120 -132 181c-4 5 -2 9 5 9h34c7 0 15 -4 19 -8c34 -37 73 -77 112 -117c29 30 87 87 112 116c5 5 13 9 19 9h35c6 0 8 -4 4 -9c-41 -61 -86 -124 -131 -181
c-5 -6 -12 -9 -18 -9z" />
    <glyph glyph-name="Ccedilla" unicode="&#xc7;" horiz-adv-x="669" 
d="M327 -61l30 52c-211 6 -301 164 -301 360c0 197 94 362 330 362c82 0 143 -18 196 -45c5 -3 9 -9 8 -16l-15 -158c-1 -7 -6 -11 -12 -11h-32c-6 0 -11 4 -12 11l-18 123c-33 14 -72 21 -118 21c-147 0 -226 -110 -226 -287c0 -176 86 -285 229 -285c70 0 136 24 181 56
c5 4 10 2 13 -4l19 -52c3 -6 1 -13 -4 -17c-46 -32 -125 -55 -204 -58l-9 -30c61 -9 94 -32 94 -81c0 -48 -40 -81 -121 -81c-23 0 -44 2 -61 6c-6 2 -9 7 -7 13l11 33c2 6 7 10 14 8c14 -4 26 -5 41 -5c29 0 46 11 46 30c0 23 -23 38 -66 44c-7 1 -9 5 -6 11z" />
    <glyph glyph-name="D" unicode="D" horiz-adv-x="738" 
d="M24 11v28c0 7 5 12 11 12l91 7v585l-91 8c-6 1 -11 6 -11 12v29c0 6 5 11 11 11h284c258 0 363 -125 363 -352c0 -226 -105 -351 -363 -351h-284c-6 0 -11 4 -11 11zM320 637h-94v-571h94c170 0 262 82 262 286s-92 285 -262 285z" />
    <glyph glyph-name="Dcaron" unicode="&#x10e;" horiz-adv-x="738" 
d="M24 11v28c0 7 5 12 11 12l91 7v585l-91 8c-6 1 -11 6 -11 12v29c0 6 5 11 11 11h284c258 0 363 -125 363 -352c0 -226 -105 -351 -363 -351h-284c-6 0 -11 4 -11 11zM320 637h-94v-571h94c170 0 262 82 262 286s-92 285 -262 285zM326 769h-41c-7 0 -14 3 -18 9
c-45 57 -90 120 -132 181c-4 5 -2 9 5 9h34c7 0 15 -4 19 -8c34 -37 73 -77 112 -117c29 30 87 87 112 116c5 5 13 9 19 9h35c6 0 8 -4 4 -9c-41 -61 -86 -124 -131 -181c-5 -6 -12 -9 -18 -9z" />
    <glyph glyph-name="Dcroat" unicode="&#x110;" horiz-adv-x="736" 
d="M22 11v28c0 7 5 12 11 12l91 7v263h-91c-7 0 -11 4 -11 11v37c0 7 4 11 11 11h91v263l-91 8c-6 1 -11 6 -11 12v29c0 6 5 11 11 11h284c258 0 363 -125 363 -352c0 -226 -105 -351 -363 -351h-284c-6 0 -11 4 -11 11zM318 637h-94v-257h105c6 0 11 -4 11 -11v-37
c0 -7 -5 -11 -11 -11h-105v-255h94c170 0 262 82 262 286s-92 285 -262 285z" />
    <glyph glyph-name="Delta" unicode="&#x2206;" horiz-adv-x="605" 
d="M560 0h-515c-7 0 -11 4 -11 11v40c0 7 1 15 3 22c62 221 140 432 226 630c3 6 9 10 16 10h47c7 0 13 -4 16 -10c86 -198 164 -409 226 -630c2 -7 3 -15 3 -22v-40c0 -7 -4 -11 -11 -11zM127 78h351c-45 161 -104 331 -176 503c-71 -172 -130 -342 -175 -503z" />
    <glyph glyph-name="E" unicode="E" horiz-adv-x="632" 
d="M24 11v28c0 7 5 12 11 12l91 7v585l-91 8c-6 1 -11 6 -11 12v29c0 6 5 11 11 11h537c7 0 11 -5 11 -11l5 -153c0 -7 -4 -11 -11 -11h-30c-6 0 -12 4 -13 11l-18 98h-290v-245h199l11 82c2 7 6 11 13 11h28c6 0 11 -4 11 -11v-230c0 -6 -5 -11 -11 -11h-28
c-7 0 -11 4 -13 11l-11 82h-199v-260h299l23 108c1 7 6 11 13 11h30c6 0 11 -4 10 -11l-9 -163c-1 -7 -6 -11 -12 -11h-545c-6 0 -11 4 -11 11z" />
    <glyph glyph-name="Eacute" unicode="&#xc9;" horiz-adv-x="632" 
d="M24 11v28c0 7 5 12 11 12l91 7v585l-91 8c-6 1 -11 6 -11 12v29c0 6 5 11 11 11h537c7 0 11 -5 11 -11l5 -153c0 -7 -4 -11 -11 -11h-30c-6 0 -12 4 -13 11l-18 98h-290v-245h199l11 82c2 7 6 11 13 11h28c6 0 11 -4 11 -11v-230c0 -6 -5 -11 -11 -11h-28
c-7 0 -11 4 -13 11l-11 82h-199v-260h299l23 108c1 7 6 11 13 11h30c6 0 11 -4 10 -11l-9 -163c-1 -7 -6 -11 -12 -11h-545c-6 0 -11 4 -11 11zM373 965h77c7 0 8 -4 3 -9c-62 -63 -120 -124 -173 -182c-3 -5 -11 -8 -18 -8h-34c-7 0 -9 3 -5 9c41 60 87 124 132 181
c4 5 11 9 18 9z" />
    <glyph glyph-name="Ecaron" unicode="&#x11a;" horiz-adv-x="632" 
d="M24 11v28c0 7 5 12 11 12l91 7v585l-91 8c-6 1 -11 6 -11 12v29c0 6 5 11 11 11h537c7 0 11 -5 11 -11l5 -153c0 -7 -4 -11 -11 -11h-30c-6 0 -12 4 -13 11l-18 98h-290v-245h199l11 82c2 7 6 11 13 11h28c6 0 11 -4 11 -11v-230c0 -6 -5 -11 -11 -11h-28
c-7 0 -11 4 -13 11l-11 82h-199v-260h299l23 108c1 7 6 11 13 11h30c6 0 11 -4 10 -11l-9 -163c-1 -7 -6 -11 -12 -11h-545c-6 0 -11 4 -11 11zM353 769h-41c-7 0 -14 3 -18 9c-45 57 -90 120 -132 181c-4 5 -2 9 5 9h34c7 0 15 -4 19 -8c34 -37 73 -77 112 -117
c29 30 87 87 112 116c5 5 13 9 19 9h35c6 0 8 -4 4 -9c-41 -61 -86 -124 -131 -181c-5 -6 -12 -9 -18 -9z" />
    <glyph glyph-name="Ecircumflex" unicode="&#xca;" horiz-adv-x="632" 
d="M24 11v28c0 7 5 12 11 12l91 7v585l-91 8c-6 1 -11 6 -11 12v29c0 6 5 11 11 11h537c7 0 11 -5 11 -11l5 -153c0 -7 -4 -11 -11 -11h-30c-6 0 -12 4 -13 11l-18 98h-290v-245h199l11 82c2 7 6 11 13 11h28c6 0 11 -4 11 -11v-230c0 -6 -5 -11 -11 -11h-28
c-7 0 -11 4 -13 11l-11 82h-199v-260h299l23 108c1 7 6 11 13 11h30c6 0 11 -4 10 -11l-9 -163c-1 -7 -6 -11 -12 -11h-545c-6 0 -11 4 -11 11zM310 968h41c6 0 13 -4 18 -9c45 -57 90 -121 131 -181c4 -6 2 -9 -4 -9h-35c-6 0 -14 3 -19 8c-25 30 -83 86 -112 116
c-39 -40 -78 -79 -112 -116c-4 -5 -12 -8 -19 -8h-34c-7 0 -9 3 -5 9c42 60 87 124 132 181c4 5 11 9 18 9z" />
    <glyph glyph-name="Edieresis" unicode="&#xcb;" horiz-adv-x="632" 
d="M24 11v28c0 7 5 12 11 12l91 7v585l-91 8c-6 1 -11 6 -11 12v29c0 6 5 11 11 11h537c7 0 11 -5 11 -11l5 -153c0 -7 -4 -11 -11 -11h-30c-6 0 -12 4 -13 11l-18 98h-290v-245h199l11 82c2 7 6 11 13 11h28c6 0 11 -4 11 -11v-230c0 -6 -5 -11 -11 -11h-28
c-7 0 -11 4 -13 11l-11 82h-199v-260h299l23 108c1 7 6 11 13 11h30c6 0 11 -4 10 -11l-9 -163c-1 -7 -6 -11 -12 -11h-545c-6 0 -11 4 -11 11zM170 856c0 30 24 54 55 54c30 0 54 -24 54 -54s-24 -54 -54 -54c-31 0 -55 24 -55 54zM356 856c0 30 24 54 54 54s55 -24 55 -54
s-25 -54 -55 -54s-54 24 -54 54z" />
    <glyph glyph-name="Edotaccent" unicode="&#x116;" horiz-adv-x="632" 
d="M24 11v28c0 7 5 12 11 12l91 7v585l-91 8c-6 1 -11 6 -11 12v29c0 6 5 11 11 11h537c7 0 11 -5 11 -11l5 -153c0 -7 -4 -11 -11 -11h-30c-6 0 -12 4 -13 11l-18 98h-290v-245h199l11 82c2 7 6 11 13 11h28c6 0 11 -4 11 -11v-230c0 -6 -5 -11 -11 -11h-28
c-7 0 -11 4 -13 11l-11 82h-199v-260h299l23 108c1 7 6 11 13 11h30c6 0 11 -4 10 -11l-9 -163c-1 -7 -6 -11 -12 -11h-545c-6 0 -11 4 -11 11zM278 857c0 30 25 54 55 54c31 0 55 -24 55 -54c0 -31 -24 -55 -55 -55c-30 0 -55 24 -55 55z" />
    <glyph glyph-name="Egrave" unicode="&#xc8;" horiz-adv-x="632" 
d="M24 11v28c0 7 5 12 11 12l91 7v585l-91 8c-6 1 -11 6 -11 12v29c0 6 5 11 11 11h537c7 0 11 -5 11 -11l5 -153c0 -7 -4 -11 -11 -11h-30c-6 0 -12 4 -13 11l-18 98h-290v-245h199l11 82c2 7 6 11 13 11h28c6 0 11 -4 11 -11v-230c0 -6 -5 -11 -11 -11h-28
c-7 0 -11 4 -13 11l-11 82h-199v-260h299l23 108c1 7 6 11 13 11h30c6 0 11 -4 10 -11l-9 -163c-1 -7 -6 -11 -12 -11h-545c-6 0 -11 4 -11 11zM196 968h78c6 0 13 -4 17 -9c45 -57 91 -121 132 -181c4 -6 2 -9 -5 -9h-34c-7 0 -14 3 -18 8c-52 58 -111 119 -173 182
c-5 5 -3 9 3 9z" />
    <glyph glyph-name="Emacron" unicode="&#x112;" horiz-adv-x="632" 
d="M24 11v28c0 7 5 12 11 12l91 7v585l-91 8c-6 1 -11 6 -11 12v29c0 6 5 11 11 11h537c7 0 11 -5 11 -11l5 -153c0 -7 -4 -11 -11 -11h-30c-6 0 -12 4 -13 11l-18 98h-290v-245h199l11 82c2 7 6 11 13 11h28c6 0 11 -4 11 -11v-230c0 -6 -5 -11 -11 -11h-28
c-7 0 -11 4 -13 11l-11 82h-199v-260h299l23 108c1 7 6 11 13 11h30c6 0 11 -4 10 -11l-9 -163c-1 -7 -6 -11 -12 -11h-545c-6 0 -11 4 -11 11zM206 820v54c0 7 4 11 11 11h227c6 0 11 -4 11 -11v-54c0 -7 -5 -11 -11 -11h-227c-7 0 -11 4 -11 11z" />
    <glyph glyph-name="Eogonek" unicode="&#x118;" horiz-adv-x="632" 
d="M554 -193c-20 -9 -43 -14 -66 -14c-70 0 -111 27 -111 82s50 99 142 125h-484c-6 0 -11 4 -11 11v28c0 7 5 12 11 12l91 7v585l-91 8c-6 1 -11 6 -11 12v29c0 6 5 11 11 11h537c7 0 11 -5 11 -11l5 -153c0 -7 -4 -11 -11 -11h-30c-6 0 -12 4 -13 11l-18 98h-290v-245h199
l11 82c2 7 6 11 13 11h28c6 0 11 -4 11 -11v-230c0 -6 -5 -11 -11 -11h-28c-7 0 -11 4 -13 11l-11 82h-199v-260h299l23 108c1 7 6 11 13 11h30c6 0 11 -4 10 -11l-9 -163c-1 -7 -6 -11 -12 -11c-82 -26 -120 -66 -120 -106c0 -28 17 -41 49 -41c15 0 28 3 44 8
c6 2 10 -1 10 -7v-31c0 -7 -3 -14 -9 -16z" />
    <glyph glyph-name="Eth" unicode="&#xd0;" horiz-adv-x="736" 
d="M22 11v28c0 7 5 12 11 12l91 7v263h-91c-7 0 -11 4 -11 11v37c0 7 4 11 11 11h91v263l-91 8c-6 1 -11 6 -11 12v29c0 6 5 11 11 11h284c258 0 363 -125 363 -352c0 -226 -105 -351 -363 -351h-284c-6 0 -11 4 -11 11zM318 637h-94v-257h105c6 0 11 -4 11 -11v-37
c0 -7 -5 -11 -11 -11h-105v-255h94c170 0 262 82 262 286s-92 285 -262 285z" />
    <glyph glyph-name="Euro" unicode="&#x20ac;" 
d="M28 248v46c0 6 4 11 11 11h55c-1 15 -1 30 -1 46s0 31 1 47h-55c-7 0 -11 4 -11 11v46c0 6 4 11 11 11h64c28 151 118 247 284 247c77 0 129 -19 172 -44c6 -3 8 -10 6 -16l-16 -62c-2 -7 -7 -9 -12 -5c-50 33 -97 46 -149 46c-103 0 -168 -56 -192 -166h290
c6 0 10 -4 8 -11l-13 -46c-2 -7 -8 -11 -14 -11h-281c-1 -15 -1 -31 -1 -47s0 -32 1 -46h256c7 0 10 -5 8 -11l-12 -47c-2 -6 -8 -10 -15 -10h-227c24 -111 89 -166 186 -166c58 0 114 19 159 51c5 4 10 2 13 -3l21 -54c3 -6 1 -13 -4 -17c-51 -38 -129 -58 -200 -58
c-164 0 -245 96 -270 247h-62c-7 0 -11 4 -11 11z" />
    <glyph glyph-name="F" unicode="F" horiz-adv-x="611" 
d="M24 11v28c0 7 5 12 11 12l91 7v585l-91 8c-6 1 -11 6 -11 12v29c0 6 5 11 11 11h526c7 0 11 -5 11 -11l5 -153c0 -7 -4 -11 -11 -11h-30c-7 0 -12 4 -13 11l-18 98h-279v-260h195l11 82c1 6 6 11 13 11h30c6 0 11 -5 11 -11v-230c0 -7 -5 -11 -11 -11h-30
c-7 0 -12 4 -13 11l-11 82h-195v-252l104 -8c7 -1 11 -5 11 -12v-28c0 -7 -4 -11 -11 -11h-295c-6 0 -11 4 -11 11z" />
    <glyph glyph-name="G" unicode="G" horiz-adv-x="691" 
d="M599 652l-15 -158c-1 -7 -6 -11 -12 -11h-32c-6 0 -11 4 -12 11l-18 123c-32 14 -69 21 -115 21c-155 0 -238 -98 -238 -287c0 -197 90 -285 225 -285c54 0 99 7 141 24v169h-135c-7 0 -11 4 -11 11v51c0 7 4 11 11 11h218c7 0 11 -4 11 -11v-310c0 -7 -4 -11 -11 -11
h-19c-6 0 -13 4 -15 9l-11 22c-54 -27 -123 -41 -199 -41c-217 0 -306 160 -306 361c0 206 106 362 334 362c83 0 147 -18 201 -45c5 -3 9 -9 8 -16z" />
    <glyph glyph-name="Gbreve" unicode="&#x11e;" horiz-adv-x="667" 
d="M599 652l-15 -158c-1 -7 -6 -11 -12 -11h-32c-6 0 -11 4 -12 11l-18 123c-32 14 -69 21 -115 21c-155 0 -238 -98 -238 -287c0 -197 90 -285 225 -285c54 0 99 7 141 24v169h-135c-7 0 -11 4 -11 11v51c0 7 4 11 11 11h218c7 0 11 -4 11 -11v-310c0 -7 -4 -11 -11 -11
h-19c-6 0 -13 4 -15 9l-11 22c-54 -27 -123 -41 -199 -41c-217 0 -306 160 -306 361c0 206 106 362 334 362c83 0 147 -18 201 -45c5 -3 9 -9 8 -16zM214 923l23 17c5 4 10 2 13 -4c27 -62 67 -85 120 -85s93 23 120 85c3 6 8 8 13 4l23 -17c5 -4 8 -11 5 -17
c-28 -91 -91 -126 -161 -126s-133 35 -162 126c-2 6 1 13 6 17z" />
    <glyph glyph-name="H" unicode="H" horiz-adv-x="813" 
d="M24 11v28c0 7 5 12 11 12l91 8v585l-91 7c-6 1 -11 6 -11 12v29c0 6 5 11 11 11h282c6 0 11 -5 11 -11v-29c0 -6 -5 -11 -11 -12l-91 -7v-254h361v254l-91 7c-7 1 -11 6 -11 12v29c0 6 4 11 11 11h282c6 0 11 -5 11 -11v-29c0 -6 -5 -11 -11 -12l-91 -7v-585l91 -8
c6 0 11 -5 11 -12v-28c0 -7 -5 -11 -11 -11h-282c-7 0 -11 4 -11 11v28c0 7 4 12 11 12l91 8v265h-361v-265l91 -8c6 0 11 -5 11 -12v-28c0 -7 -5 -11 -11 -11h-282c-6 0 -11 4 -11 11z" />
    <glyph glyph-name="I" unicode="I" horiz-adv-x="352" 
d="M24 11v28c0 7 5 12 11 12l91 8v585l-91 7c-6 1 -11 6 -11 12v29c0 6 5 11 11 11h282c6 0 11 -5 11 -11v-29c0 -6 -5 -11 -11 -12l-91 -7v-585l91 -8c6 0 11 -5 11 -12v-28c0 -7 -5 -11 -11 -11h-282c-6 0 -11 4 -11 11z" />
    <glyph glyph-name="Iacute" unicode="&#xcd;" horiz-adv-x="352" 
d="M24 11v28c0 7 5 12 11 12l91 8v585l-91 7c-6 1 -11 6 -11 12v29c0 6 5 11 11 11h282c6 0 11 -5 11 -11v-29c0 -6 -5 -11 -11 -12l-91 -7v-585l91 -8c6 0 11 -5 11 -12v-28c0 -7 -5 -11 -11 -11h-282c-6 0 -11 4 -11 11zM210 968h77c7 0 8 -4 3 -9
c-62 -63 -120 -124 -173 -182c-3 -5 -11 -8 -18 -8h-34c-7 0 -9 3 -5 9c41 60 87 124 132 181c4 5 11 9 18 9z" />
    <glyph glyph-name="Icircumflex" unicode="&#xce;" horiz-adv-x="352" 
d="M24 11v28c0 7 5 12 11 12l91 8v585l-91 7c-6 1 -11 6 -11 12v29c0 6 5 11 11 11h282c6 0 11 -5 11 -11v-29c0 -6 -5 -11 -11 -12l-91 -7v-585l91 -8c6 0 11 -5 11 -12v-28c0 -7 -5 -11 -11 -11h-282c-6 0 -11 4 -11 11zM156 968h41c6 0 13 -4 18 -9
c45 -57 90 -121 131 -181c4 -6 2 -9 -4 -9h-35c-6 0 -14 3 -19 8c-25 30 -83 86 -112 116c-39 -40 -78 -79 -112 -116c-4 -5 -12 -8 -19 -8h-34c-7 0 -9 3 -5 9c42 60 87 124 132 181c4 5 11 9 18 9z" />
    <glyph glyph-name="Idieresis" unicode="&#xcf;" horiz-adv-x="352" 
d="M24 11v28c0 7 5 12 11 12l91 8v585l-91 7c-6 1 -11 6 -11 12v29c0 6 5 11 11 11h282c6 0 11 -5 11 -11v-29c0 -6 -5 -11 -11 -12l-91 -7v-585l91 -8c6 0 11 -5 11 -12v-28c0 -7 -5 -11 -11 -11h-282c-6 0 -11 4 -11 11zM29 856c0 30 24 54 55 54c30 0 54 -24 54 -54
s-24 -54 -54 -54c-31 0 -55 24 -55 54zM215 856c0 30 24 54 54 54s55 -24 55 -54s-25 -54 -55 -54s-54 24 -54 54z" />
    <glyph glyph-name="Idotaccent" unicode="&#x130;" horiz-adv-x="352" 
d="M24 11v28c0 7 5 12 11 12l91 8v585l-91 7c-6 1 -11 6 -11 12v29c0 6 5 11 11 11h282c6 0 11 -5 11 -11v-29c0 -6 -5 -11 -11 -12l-91 -7v-585l91 -8c6 0 11 -5 11 -12v-28c0 -7 -5 -11 -11 -11h-282c-6 0 -11 4 -11 11zM121 857c0 30 25 54 55 54c31 0 55 -24 55 -54
c0 -31 -24 -55 -55 -55c-30 0 -55 24 -55 55z" />
    <glyph glyph-name="Igrave" unicode="&#xcc;" horiz-adv-x="352" 
d="M24 11v28c0 7 5 12 11 12l91 8v585l-91 7c-6 1 -11 6 -11 12v29c0 6 5 11 11 11h282c6 0 11 -5 11 -11v-29c0 -6 -5 -11 -11 -12l-91 -7v-585l91 -8c6 0 11 -5 11 -12v-28c0 -7 -5 -11 -11 -11h-282c-6 0 -11 4 -11 11zM66 968h78c6 0 13 -4 17 -9
c45 -57 91 -121 132 -181c4 -6 2 -9 -5 -9h-34c-7 0 -14 3 -18 8c-52 58 -111 119 -173 182c-5 5 -3 9 3 9z" />
    <glyph glyph-name="Imacron" unicode="&#x12a;" horiz-adv-x="352" 
d="M24 11v28c0 7 5 12 11 12l91 8v585l-91 7c-6 1 -11 6 -11 12v29c0 6 5 11 11 11h282c6 0 11 -5 11 -11v-29c0 -6 -5 -11 -11 -12l-91 -7v-585l91 -8c6 0 11 -5 11 -12v-28c0 -7 -5 -11 -11 -11h-282c-6 0 -11 4 -11 11zM52 820v54c0 7 4 11 11 11h227c6 0 11 -4 11 -11
v-54c0 -7 -5 -11 -11 -11h-227c-7 0 -11 4 -11 11z" />
    <glyph glyph-name="Iogonek" unicode="&#x12e;" horiz-adv-x="352" 
d="M192 -193c-20 -9 -43 -14 -66 -14c-70 0 -111 27 -111 82s50 99 142 125h-122c-6 0 -11 4 -11 11v28c0 7 5 12 11 12l91 8v585l-91 7c-6 1 -11 6 -11 12v29c0 6 5 11 11 11h282c6 0 11 -5 11 -11v-29c0 -6 -5 -11 -11 -12l-91 -7v-585l91 -8c6 0 11 -5 11 -12v-28
c0 -7 -5 -11 -11 -11h-99c-82 -26 -120 -66 -120 -106c0 -28 17 -41 49 -41c15 0 28 3 44 8c6 2 10 -1 10 -7v-31c0 -7 -3 -14 -9 -16z" />
    <glyph glyph-name="J" unicode="J" horiz-adv-x="361" 
d="M34 703h293c6 0 11 -5 11 -11v-29c0 -6 -5 -11 -11 -12l-91 -7v-557c0 -191 -94 -270 -246 -273c-6 0 -11 5 -12 11l-6 53c-1 6 8 11 17 11c92 6 147 51 147 187v568l-102 7c-6 1 -11 6 -11 12v29c0 6 5 11 11 11z" />
    <glyph glyph-name="K" unicode="K" horiz-adv-x="712" 
d="M35 703h288c6 0 11 -5 11 -11v-29c0 -6 -5 -11 -11 -12l-97 -7v-259c95 81 196 174 278 259l-66 7c-7 1 -11 6 -11 12v29c0 6 4 11 11 11h233c6 0 11 -5 11 -11v-29c0 -6 -5 -11 -11 -12l-64 -8c-77 -77 -193 -186 -284 -264c99 -98 230 -234 302 -319l66 -9
c6 0 11 -5 11 -12v-28c0 -7 -5 -11 -11 -11h-245c-7 0 -11 4 -11 11v28c0 7 4 12 11 12l57 7c-76 85 -188 203 -277 292v-291l97 -8c6 0 11 -5 11 -12v-28c0 -7 -5 -11 -11 -11h-288c-6 0 -11 4 -11 11v28c0 7 5 12 11 12l91 7v586l-91 7c-6 1 -11 6 -11 12v29
c0 6 5 11 11 11z" />
    <glyph glyph-name="L" unicode="L" horiz-adv-x="610" 
d="M24 11v28c0 7 5 12 11 12l91 7v585l-91 8c-6 1 -11 6 -11 12v29c0 6 5 11 11 11h295c7 0 11 -5 11 -11v-29c0 -6 -4 -11 -11 -12l-104 -8v-577h286l22 108c1 7 7 11 13 11h30c7 0 11 -4 10 -11l-9 -163c-1 -7 -6 -11 -12 -11h-531c-6 0 -11 4 -11 11z" />
    <glyph glyph-name="Lacute" unicode="&#x139;" horiz-adv-x="611" 
d="M24 11v28c0 7 5 12 11 12l91 7v585l-91 8c-6 1 -11 6 -11 12v29c0 6 5 11 11 11h295c7 0 11 -5 11 -11v-29c0 -6 -4 -11 -11 -12l-104 -8v-577h286l22 108c1 7 7 11 13 11h30c7 0 11 -4 10 -11l-9 -163c-1 -7 -6 -11 -12 -11h-531c-6 0 -11 4 -11 11zM210 968h77
c7 0 8 -4 3 -9c-62 -63 -120 -124 -173 -182c-3 -5 -11 -8 -18 -8h-34c-7 0 -9 3 -5 9c41 60 87 124 132 181c4 5 11 9 18 9z" />
    <glyph glyph-name="Lcaron" unicode="&#x13d;" horiz-adv-x="613" 
d="M24 11v28c0 7 5 12 11 12l91 7v585l-91 8c-6 1 -11 6 -11 12v29c0 6 5 11 11 11h295c7 0 11 -5 11 -11v-29c0 -6 -4 -11 -11 -12l-104 -8v-577h286l22 108c1 7 7 11 13 11h30c7 0 11 -4 10 -11l-9 -163c-1 -7 -6 -11 -12 -11h-531c-6 0 -11 4 -11 11zM474 489l-15 9
c-6 3 -6 8 -1 12c25 19 41 40 41 66c0 32 -34 44 -34 78c0 27 19 48 48 48c37 0 55 -27 55 -60c0 -60 -29 -114 -76 -152c-5 -4 -12 -5 -18 -1z" />
    <glyph glyph-name="Lslash" unicode="&#x141;" horiz-adv-x="610" 
d="M23 11v28c0 7 5 12 11 12l91 7v190l-92 -64c-6 -4 -9 -2 -9 4v50c0 6 3 13 9 17l92 64v324l-91 8c-6 1 -11 6 -11 12v29c0 6 5 11 11 11h295c7 0 11 -5 11 -11v-29c0 -6 -4 -11 -11 -12l-104 -8v-255l111 78c6 4 9 2 9 -5v-49c0 -7 -3 -13 -9 -18l-111 -77v-251h286
l22 108c1 7 7 11 13 11h30c7 0 11 -4 10 -11l-9 -163c-1 -7 -6 -11 -12 -11h-531c-6 0 -11 4 -11 11z" />
    <glyph glyph-name="M" unicode="M" horiz-adv-x="1012" 
d="M24 11v28c0 7 5 12 11 12l91 8c15 188 36 399 56 585l-85 7c-6 1 -11 6 -11 12v29c0 6 5 11 11 11h160c7 0 13 -4 16 -10c65 -149 137 -310 199 -454c7 -19 18 -44 25 -73h4c7 29 18 57 27 78c62 147 131 305 196 449c2 6 9 10 15 10h176c6 0 11 -5 11 -11v-29
c0 -6 -5 -11 -11 -12l-85 -7c19 -179 40 -393 56 -585l91 -8c6 0 11 -5 11 -12v-28c0 -7 -5 -11 -11 -11h-286c-6 0 -11 4 -11 11v28c0 7 5 12 11 12l97 7c-9 117 -18 249 -29 375c-4 34 -6 79 -8 120h-6c-14 -42 -32 -86 -47 -119c-53 -118 -117 -271 -168 -390
c-2 -6 -8 -10 -15 -10h-36c-6 0 -13 4 -15 10c-45 108 -111 261 -167 390c-14 32 -32 79 -46 117h-6c0 -38 -5 -84 -8 -118c-9 -116 -21 -252 -30 -375l97 -7c6 0 11 -5 11 -12v-28c0 -7 -5 -11 -11 -11h-269c-6 0 -11 4 -11 11z" />
    <glyph glyph-name="N" unicode="N" horiz-adv-x="771" 
d="M24 11v28c0 7 5 12 11 12l91 7v585l-91 8c-6 1 -11 6 -11 12v29c0 6 5 11 11 11h163c7 0 14 -4 17 -9c90 -141 202 -308 301 -453c14 -21 35 -49 49 -75h5c-2 27 -3 58 -3 90v388l-105 7c-6 1 -11 6 -11 12v29c0 6 5 11 11 11h274c6 0 11 -5 11 -11v-29
c0 -6 -5 -11 -11 -12l-91 -7v-633c0 -7 -5 -11 -11 -11h-62c-6 0 -13 3 -16 9c-90 141 -202 308 -301 453c-15 20 -36 49 -49 74h-5c2 -26 3 -57 3 -89v-388l104 -8c7 -1 11 -5 11 -12v-28c0 -7 -4 -11 -11 -11h-273c-6 0 -11 4 -11 11z" />
    <glyph glyph-name="NULL" horiz-adv-x="0" 
 />
    <glyph glyph-name="NULL" horiz-adv-x="0" 
 />
    <glyph glyph-name="Nacute" unicode="&#x143;" horiz-adv-x="771" 
d="M24 11v28c0 7 5 12 11 12l91 7v585l-91 8c-6 1 -11 6 -11 12v29c0 6 5 11 11 11h163c7 0 14 -4 17 -9c90 -141 202 -308 301 -453c14 -21 35 -49 49 -75h5c-2 27 -3 58 -3 90v388l-105 7c-6 1 -11 6 -11 12v29c0 6 5 11 11 11h274c6 0 11 -5 11 -11v-29
c0 -6 -5 -11 -11 -12l-91 -7v-633c0 -7 -5 -11 -11 -11h-62c-6 0 -13 3 -16 9c-90 141 -202 308 -301 453c-15 20 -36 49 -49 74h-5c2 -26 3 -57 3 -89v-388l104 -8c7 -1 11 -5 11 -12v-28c0 -7 -4 -11 -11 -11h-273c-6 0 -11 4 -11 11zM431 968h77c7 0 8 -4 3 -9
c-62 -63 -120 -124 -173 -182c-3 -5 -11 -8 -18 -8h-34c-7 0 -9 3 -5 9c41 60 87 124 132 181c4 5 11 9 18 9z" />
    <glyph glyph-name="Ncaron" unicode="&#x147;" horiz-adv-x="771" 
d="M24 11v28c0 7 5 12 11 12l91 7v585l-91 8c-6 1 -11 6 -11 12v29c0 6 5 11 11 11h163c7 0 14 -4 17 -9c90 -141 202 -308 301 -453c14 -21 35 -49 49 -75h5c-2 27 -3 58 -3 90v388l-105 7c-6 1 -11 6 -11 12v29c0 6 5 11 11 11h274c6 0 11 -5 11 -11v-29
c0 -6 -5 -11 -11 -12l-91 -7v-633c0 -7 -5 -11 -11 -11h-62c-6 0 -13 3 -16 9c-90 141 -202 308 -301 453c-15 20 -36 49 -49 74h-5c2 -26 3 -57 3 -89v-388l104 -8c7 -1 11 -5 11 -12v-28c0 -7 -4 -11 -11 -11h-273c-6 0 -11 4 -11 11zM418 769h-41c-7 0 -14 3 -18 9
c-45 57 -90 120 -132 181c-4 5 -2 9 5 9h34c7 0 15 -4 19 -8c34 -37 73 -77 112 -117c29 30 87 87 112 116c5 5 13 9 19 9h35c6 0 8 -4 4 -9c-41 -61 -86 -124 -131 -181c-5 -6 -12 -9 -18 -9z" />
    <glyph glyph-name="Ntilde" unicode="&#xd1;" horiz-adv-x="771" 
d="M24 11v28c0 7 5 12 11 12l91 7v585l-91 8c-6 1 -11 6 -11 12v29c0 6 5 11 11 11h163c7 0 14 -4 17 -9c90 -141 202 -308 301 -453c14 -21 35 -49 49 -75h5c-2 27 -3 58 -3 90v388l-105 7c-6 1 -11 6 -11 12v29c0 6 5 11 11 11h274c6 0 11 -5 11 -11v-29
c0 -6 -5 -11 -11 -12l-91 -7v-633c0 -7 -5 -11 -11 -11h-62c-6 0 -13 3 -16 9c-90 141 -202 308 -301 453c-15 20 -36 49 -49 74h-5c2 -26 3 -57 3 -89v-388l104 -8c7 -1 11 -5 11 -12v-28c0 -7 -4 -11 -11 -11h-273c-6 0 -11 4 -11 11zM265 807l-17 13c-6 4 -8 11 -6 17
c19 61 53 89 92 89c29 0 54 -16 77 -32c20 -15 41 -30 61 -30c21 0 36 15 45 38c3 6 7 7 12 4l17 -13c6 -5 8 -11 6 -18c-19 -60 -53 -89 -92 -89c-29 0 -53 17 -76 33c-20 14 -42 30 -62 30s-35 -15 -45 -39c-2 -6 -7 -7 -12 -3z" />
    <glyph glyph-name="O" unicode="O" horiz-adv-x="702" 
d="M156 351c0 -175 56 -289 195 -289s194 114 194 289s-55 290 -194 290s-195 -115 -195 -290zM646 351c0 -201 -80 -361 -295 -361c-216 0 -295 160 -295 361c0 200 79 362 295 362c215 0 295 -162 295 -362z" />
    <glyph glyph-name="OE" unicode="&#x152;" horiz-adv-x="981" 
d="M928 0h-532c-250 0 -340 158 -340 351s90 352 340 352h525c6 0 11 -5 11 -11l5 -153c0 -7 -5 -11 -11 -11h-30c-7 0 -12 4 -14 11l-18 98h-290v-245h199l12 82c1 7 6 11 12 11h28c7 0 11 -4 11 -11v-230c0 -6 -4 -11 -11 -11h-28c-6 0 -11 4 -12 11l-12 82h-199v-260h300
l22 108c1 7 7 11 13 11h30c7 0 11 -4 10 -11l-9 -163c-1 -7 -5 -11 -12 -11zM475 637h-65c-197 0 -254 -127 -254 -286s57 -285 254 -285h65v571z" />
    <glyph glyph-name="Oacute" unicode="&#xd3;" horiz-adv-x="702" 
d="M156 351c0 -175 56 -289 195 -289s194 114 194 289s-55 290 -194 290s-195 -115 -195 -290zM646 351c0 -201 -80 -361 -295 -361c-216 0 -295 160 -295 361c0 200 79 362 295 362c215 0 295 -162 295 -362zM384 968h77c7 0 8 -4 3 -9c-62 -63 -120 -124 -173 -182
c-3 -5 -11 -8 -18 -8h-34c-7 0 -9 3 -5 9c41 60 87 124 132 181c4 5 11 9 18 9z" />
    <glyph glyph-name="Ocircumflex" unicode="&#xd4;" horiz-adv-x="702" 
d="M156 351c0 -175 56 -289 195 -289s194 114 194 289s-55 290 -194 290s-195 -115 -195 -290zM646 351c0 -201 -80 -361 -295 -361c-216 0 -295 160 -295 361c0 200 79 362 295 362c215 0 295 -162 295 -362zM330 968h41c6 0 13 -4 18 -9c45 -57 90 -121 131 -181
c4 -6 2 -9 -4 -9h-35c-6 0 -14 3 -19 8c-25 30 -83 86 -112 116c-39 -40 -78 -79 -112 -116c-4 -5 -12 -8 -19 -8h-34c-7 0 -9 3 -5 9c42 60 87 124 132 181c4 5 11 9 18 9z" />
    <glyph glyph-name="Odieresis" unicode="&#xd6;" horiz-adv-x="702" 
d="M156 351c0 -175 56 -289 195 -289s194 114 194 289s-55 290 -194 290s-195 -115 -195 -290zM646 351c0 -201 -80 -361 -295 -361c-216 0 -295 160 -295 361c0 200 79 362 295 362c215 0 295 -162 295 -362zM203 853c0 30 24 54 55 54c30 0 54 -24 54 -54s-24 -54 -54 -54
c-31 0 -55 24 -55 54zM389 853c0 30 24 54 54 54s55 -24 55 -54s-25 -54 -55 -54s-54 24 -54 54z" />
    <glyph glyph-name="Ograve" unicode="&#xd2;" horiz-adv-x="702" 
d="M156 351c0 -175 56 -289 195 -289s194 114 194 289s-55 290 -194 290s-195 -115 -195 -290zM646 351c0 -201 -80 -361 -295 -361c-216 0 -295 160 -295 361c0 200 79 362 295 362c215 0 295 -162 295 -362zM240 968h78c6 0 13 -4 17 -9c45 -57 91 -121 132 -181
c4 -6 2 -9 -5 -9h-34c-7 0 -14 3 -18 8c-52 58 -111 119 -173 182c-5 5 -3 9 3 9z" />
    <glyph glyph-name="Ohungarumlaut" unicode="&#x150;" horiz-adv-x="702" 
d="M156 351c0 -175 56 -289 195 -289s194 114 194 289s-55 290 -194 290s-195 -115 -195 -290zM646 351c0 -201 -80 -361 -295 -361c-216 0 -295 160 -295 361c0 200 79 362 295 362c215 0 295 -162 295 -362zM337 965h73c6 0 8 -4 4 -9c-46 -63 -90 -124 -127 -181
c-3 -6 -10 -9 -17 -9h-34c-7 0 -9 4 -7 10c28 60 60 122 92 179c3 6 10 10 16 10zM516 965h73c6 0 8 -4 4 -9c-46 -63 -90 -124 -127 -181c-3 -6 -10 -9 -17 -9h-34c-7 0 -9 4 -7 10c28 60 60 122 92 179c3 6 10 10 16 10z" />
    <glyph glyph-name="Omacron" unicode="&#x14c;" horiz-adv-x="702" 
d="M156 351c0 -175 56 -289 195 -289s194 114 194 289s-55 290 -194 290s-195 -115 -195 -290zM646 351c0 -201 -80 -361 -295 -361c-216 0 -295 160 -295 361c0 200 79 362 295 362c215 0 295 -162 295 -362zM226 820v54c0 7 4 11 11 11h227c6 0 11 -4 11 -11v-54
c0 -7 -5 -11 -11 -11h-227c-7 0 -11 4 -11 11z" />
    <glyph glyph-name="Omega" unicode="&#x2126;" horiz-adv-x="700" 
d="M56 11v28c0 7 5 11 11 12l142 11v5c-96 55 -153 160 -153 312c0 190 99 334 294 334s294 -144 294 -334c0 -152 -57 -257 -153 -312v-5l142 -11c6 -1 11 -5 11 -12v-28c0 -7 -5 -11 -11 -11h-220c-6 0 -11 4 -11 11v45c0 7 3 14 9 18c83 61 134 150 134 294
c0 161 -63 273 -195 273s-195 -112 -195 -273c0 -144 52 -233 134 -294c6 -4 9 -11 9 -18v-45c0 -7 -5 -11 -11 -11h-220c-6 0 -11 4 -11 11z" />
    <glyph glyph-name="Otilde" unicode="&#xd5;" horiz-adv-x="702" 
d="M156 351c0 -175 56 -289 195 -289s194 114 194 289s-55 290 -194 290s-195 -115 -195 -290zM646 351c0 -201 -80 -361 -295 -361c-216 0 -295 160 -295 361c0 200 79 362 295 362c215 0 295 -162 295 -362zM219 810l-17 13c-6 4 -8 11 -6 17c19 61 53 89 92 89
c29 0 54 -16 77 -32c20 -15 41 -30 61 -30c21 0 36 15 45 38c3 6 7 7 12 4l17 -13c6 -5 8 -11 6 -18c-19 -60 -53 -89 -92 -89c-29 0 -53 17 -76 33c-20 14 -42 30 -62 30s-35 -15 -45 -39c-2 -6 -7 -7 -12 -3z" />
    <glyph glyph-name="P" unicode="P" horiz-adv-x="644" 
d="M24 11v28c0 7 5 12 11 12l91 8v584l-91 8c-6 1 -11 6 -11 12v29c0 6 5 11 11 11h312c181 0 258 -75 258 -204c0 -126 -92 -204 -273 -204h-106v-236l104 -8c7 -1 11 -5 11 -12v-28c0 -7 -4 -11 -11 -11h-295c-6 0 -11 4 -11 11zM226 637v-276h109c112 0 170 51 170 137
c0 87 -51 139 -164 139h-115z" />
    <glyph glyph-name="Q" unicode="Q" horiz-adv-x="702" 
d="M646 351c0 -145 -42 -268 -145 -326c64 -36 152 -80 202 -104c6 -3 8 -8 4 -14l-38 -61c-3 -6 -10 -7 -15 -4c-67 38 -174 117 -233 155c-21 -4 -45 -7 -70 -7c-216 0 -295 160 -295 361c0 200 79 362 295 362c215 0 295 -162 295 -362zM156 351c0 -175 56 -289 195 -289
s194 114 194 289s-55 290 -194 290s-195 -115 -195 -290z" />
    <glyph glyph-name="R" unicode="R" horiz-adv-x="684" 
d="M24 11v28c0 7 5 12 11 12l91 7v586l-91 7c-6 1 -11 6 -11 12v29c0 6 5 11 11 11h291c165 0 272 -48 272 -194c0 -100 -63 -160 -162 -186c26 -11 50 -32 70 -64c30 -49 57 -115 98 -203l62 -4c6 -1 11 -6 11 -13v-28c0 -7 -5 -11 -11 -11h-142c-7 0 -13 4 -15 10
c-37 98 -66 176 -99 228c-25 39 -50 64 -110 64h-74v-243l97 -8c6 0 11 -5 11 -12v-28c0 -7 -5 -11 -11 -11h-288c-6 0 -11 4 -11 11zM226 637v-269h104c103 0 167 44 167 138c0 93 -66 131 -171 131h-100z" />
    <glyph glyph-name="Racute" unicode="&#x154;" horiz-adv-x="684" 
d="M24 11v28c0 7 5 12 11 12l91 7v586l-91 7c-6 1 -11 6 -11 12v29c0 6 5 11 11 11h291c165 0 272 -48 272 -194c0 -100 -63 -160 -162 -186c26 -11 50 -32 70 -64c30 -49 57 -115 98 -203l62 -4c6 -1 11 -6 11 -13v-28c0 -7 -5 -11 -11 -11h-142c-7 0 -13 4 -15 10
c-37 98 -66 176 -99 228c-25 39 -50 64 -110 64h-74v-243l97 -8c6 0 11 -5 11 -12v-28c0 -7 -5 -11 -11 -11h-288c-6 0 -11 4 -11 11zM226 637v-269h104c103 0 167 44 167 138c0 93 -66 131 -171 131h-100zM348 968h77c7 0 8 -4 3 -9c-62 -63 -120 -124 -173 -182
c-3 -5 -11 -8 -18 -8h-34c-7 0 -9 3 -5 9c41 60 87 124 132 181c4 5 11 9 18 9z" />
    <glyph glyph-name="Rcaron" unicode="&#x158;" horiz-adv-x="684" 
d="M24 11v28c0 7 5 12 11 12l91 7v586l-91 7c-6 1 -11 6 -11 12v29c0 6 5 11 11 11h291c165 0 272 -48 272 -194c0 -100 -63 -160 -162 -186c26 -11 50 -32 70 -64c30 -49 57 -115 98 -203l62 -4c6 -1 11 -6 11 -13v-28c0 -7 -5 -11 -11 -11h-142c-7 0 -13 4 -15 10
c-37 98 -66 176 -99 228c-25 39 -50 64 -110 64h-74v-243l97 -8c6 0 11 -5 11 -12v-28c0 -7 -5 -11 -11 -11h-288c-6 0 -11 4 -11 11zM226 637v-269h104c103 0 167 44 167 138c0 93 -66 131 -171 131h-100zM326 769h-41c-7 0 -14 3 -18 9c-45 57 -90 120 -132 181
c-4 5 -2 9 5 9h34c7 0 15 -4 19 -8c34 -37 73 -77 112 -117c29 30 87 87 112 116c5 5 13 9 19 9h35c6 0 8 -4 4 -9c-41 -61 -86 -124 -131 -181c-5 -6 -12 -9 -18 -9z" />
    <glyph glyph-name="S" unicode="S" horiz-adv-x="607" 
d="M54 45l11 148c1 6 6 11 12 11h31c7 0 12 -5 13 -11l9 -108c47 -17 93 -26 149 -26c118 0 177 45 177 127c0 184 -389 70 -389 335c0 130 111 192 256 192c79 0 149 -15 197 -34c5 -3 10 -9 9 -16l-12 -148c-1 -7 -6 -11 -12 -11h-31c-7 0 -11 4 -13 11l-11 109
c-36 12 -77 20 -122 20c-99 0 -167 -40 -167 -114c0 -182 389 -74 389 -331c0 -124 -86 -209 -279 -209c-83 0 -150 12 -209 39c-5 2 -9 9 -8 16z" />
    <glyph glyph-name="Sacute" unicode="&#x15a;" horiz-adv-x="607" 
d="M54 45l11 148c1 6 6 11 12 11h31c7 0 12 -5 13 -11l9 -108c47 -17 93 -26 149 -26c118 0 177 45 177 127c0 184 -389 70 -389 335c0 130 111 192 256 192c79 0 149 -15 197 -34c5 -3 10 -9 9 -16l-12 -148c-1 -7 -6 -11 -12 -11h-31c-7 0 -11 4 -13 11l-11 109
c-36 12 -77 20 -122 20c-99 0 -167 -40 -167 -114c0 -182 389 -74 389 -331c0 -124 -86 -209 -279 -209c-83 0 -150 12 -209 39c-5 2 -9 9 -8 16zM366 968h77c7 0 8 -4 3 -9c-62 -63 -120 -124 -173 -182c-3 -5 -11 -8 -18 -8h-34c-7 0 -9 3 -5 9c41 60 87 124 132 181
c4 5 11 9 18 9z" />
    <glyph glyph-name="Scaron" unicode="&#x160;" horiz-adv-x="607" 
d="M54 45l11 148c1 6 6 11 12 11h31c7 0 12 -5 13 -11l9 -108c47 -17 93 -26 149 -26c118 0 177 45 177 127c0 184 -389 70 -389 335c0 130 111 192 256 192c79 0 149 -15 197 -34c5 -3 10 -9 9 -16l-12 -148c-1 -7 -6 -11 -12 -11h-31c-7 0 -11 4 -13 11l-11 109
c-36 12 -77 20 -122 20c-99 0 -167 -40 -167 -114c0 -182 389 -74 389 -331c0 -124 -86 -209 -279 -209c-83 0 -150 12 -209 39c-5 2 -9 9 -8 16zM343 769h-41c-7 0 -14 3 -18 9c-45 57 -90 120 -132 181c-4 5 -2 9 5 9h34c7 0 15 -4 19 -8c34 -37 73 -77 112 -117
c29 30 87 87 112 116c5 5 13 9 19 9h35c6 0 8 -4 4 -9c-41 -61 -86 -124 -131 -181c-5 -6 -12 -9 -18 -9z" />
    <glyph glyph-name="Scedilla" unicode="&#x15e;" horiz-adv-x="607" 
d="M241 -61l30 51c-83 0 -150 12 -209 39c-5 2 -9 9 -8 16l11 148c1 6 6 11 12 11h31c7 0 12 -5 13 -11l9 -108c47 -17 93 -26 149 -26c118 0 177 45 177 127c0 184 -389 70 -389 335c0 130 111 192 256 192c79 0 149 -15 197 -34c5 -3 10 -9 9 -16l-12 -148
c-1 -7 -6 -11 -12 -11h-31c-7 0 -11 4 -13 11l-11 109c-36 12 -77 20 -122 20c-99 0 -167 -40 -167 -114c0 -182 389 -74 389 -331c0 -117 -76 -199 -245 -208l-9 -30c61 -9 94 -32 94 -81c0 -48 -40 -81 -121 -81c-23 0 -44 2 -61 6c-6 2 -9 7 -7 13l11 33c2 6 7 10 14 8
c14 -4 26 -5 41 -5c29 0 46 11 46 30c0 23 -23 38 -66 44c-7 1 -9 5 -6 11z" />
    <glyph glyph-name="T" unicode="T" horiz-adv-x="652" 
d="M36 703h580c6 0 11 -5 11 -11l5 -167c0 -7 -5 -11 -11 -11h-30c-7 0 -12 4 -14 11l-19 112h-182v-578l104 -8c6 -1 11 -5 11 -12v-28c0 -7 -5 -11 -11 -11h-308c-7 0 -11 4 -11 11v28c0 7 4 11 11 12l104 8v578h-183l-19 -112c-1 -7 -7 -11 -13 -11h-30
c-7 0 -11 4 -11 11l5 167c0 6 4 11 11 11z" />
    <glyph glyph-name="Tcaron" unicode="&#x164;" horiz-adv-x="652" 
d="M36 703h580c6 0 11 -5 11 -11l5 -167c0 -7 -5 -11 -11 -11h-30c-7 0 -12 4 -14 11l-19 112h-182v-578l104 -8c6 -1 11 -5 11 -12v-28c0 -7 -5 -11 -11 -11h-308c-7 0 -11 4 -11 11v28c0 7 4 11 11 12l104 8v578h-183l-19 -112c-1 -7 -7 -11 -13 -11h-30
c-7 0 -11 4 -11 11l5 167c0 6 4 11 11 11zM346 769h-41c-7 0 -14 3 -18 9c-45 57 -90 120 -132 181c-4 5 -2 9 5 9h34c7 0 15 -4 19 -8c34 -37 73 -77 112 -117c29 30 87 87 112 116c5 5 13 9 19 9h35c6 0 8 -4 4 -9c-41 -61 -86 -124 -131 -181c-5 -6 -12 -9 -18 -9z" />
    <glyph glyph-name="Thorn" unicode="&#xde;" horiz-adv-x="644" 
d="M24 11v28c0 7 5 12 11 12l91 8v585l-91 7c-6 1 -11 6 -11 12v29c0 6 5 11 11 11h282c6 0 11 -5 11 -11v-29c0 -6 -5 -11 -11 -12l-91 -7v-80h121c181 0 259 -74 259 -201c0 -124 -93 -201 -274 -201h-106v-103l104 -8c7 -1 11 -5 11 -12v-28c0 -7 -4 -11 -11 -11h-295
c-6 0 -11 4 -11 11zM226 501v-276h109c112 0 170 52 170 137c0 87 -51 139 -164 139h-115z" />
    <glyph glyph-name="U" unicode="U" horiz-adv-x="718" 
d="M24 703h233c6 0 11 -5 11 -11v-29c0 -6 -5 -11 -11 -12l-67 -8v-353c0 -164 56 -223 179 -223s178 59 178 223v353l-68 8c-6 1 -11 6 -11 12v29c0 6 5 11 11 11h215c6 0 11 -4 11 -10v-29c0 -6 -5 -12 -11 -12l-67 -9v-345c0 -225 -85 -308 -267 -308
c-183 0 -270 83 -270 308v345l-66 8c-7 1 -11 6 -11 12v29c0 6 4 11 11 11z" />
    <glyph glyph-name="Uacute" unicode="&#xda;" horiz-adv-x="718" 
d="M24 703h233c6 0 11 -5 11 -11v-29c0 -6 -5 -11 -11 -12l-67 -8v-353c0 -164 56 -223 179 -223s178 59 178 223v353l-68 8c-6 1 -11 6 -11 12v29c0 6 5 11 11 11h215c6 0 11 -4 11 -10v-29c0 -6 -5 -12 -11 -12l-67 -9v-345c0 -225 -85 -308 -267 -308
c-183 0 -270 83 -270 308v345l-66 8c-7 1 -11 6 -11 12v29c0 6 4 11 11 11zM392 968h77c7 0 8 -4 3 -9c-62 -63 -120 -124 -173 -182c-3 -5 -11 -8 -18 -8h-34c-7 0 -9 3 -5 9c41 60 87 124 132 181c4 5 11 9 18 9z" />
    <glyph glyph-name="Ucircumflex" unicode="&#xdb;" horiz-adv-x="718" 
d="M24 703h233c6 0 11 -5 11 -11v-29c0 -6 -5 -11 -11 -12l-67 -8v-353c0 -164 56 -223 179 -223s178 59 178 223v353l-68 8c-6 1 -11 6 -11 12v29c0 6 5 11 11 11h215c6 0 11 -4 11 -10v-29c0 -6 -5 -12 -11 -12l-67 -9v-345c0 -225 -85 -308 -267 -308
c-183 0 -270 83 -270 308v345l-66 8c-7 1 -11 6 -11 12v29c0 6 4 11 11 11zM338 968h41c6 0 13 -4 18 -9c45 -57 90 -121 131 -181c4 -6 2 -9 -4 -9h-35c-6 0 -14 3 -19 8c-25 30 -83 86 -112 116c-39 -40 -78 -79 -112 -116c-4 -5 -12 -8 -19 -8h-34c-7 0 -9 3 -5 9
c42 60 87 124 132 181c4 5 11 9 18 9z" />
    <glyph glyph-name="Udieresis" unicode="&#xdc;" horiz-adv-x="718" 
d="M24 703h233c6 0 11 -5 11 -11v-29c0 -6 -5 -11 -11 -12l-67 -8v-353c0 -164 56 -223 179 -223s178 59 178 223v353l-68 8c-6 1 -11 6 -11 12v29c0 6 5 11 11 11h215c6 0 11 -4 11 -10v-29c0 -6 -5 -12 -11 -12l-67 -9v-345c0 -225 -85 -308 -267 -308
c-183 0 -270 83 -270 308v345l-66 8c-7 1 -11 6 -11 12v29c0 6 4 11 11 11zM211 853c0 30 24 54 55 54c30 0 54 -24 54 -54s-24 -54 -54 -54c-31 0 -55 24 -55 54zM397 853c0 30 24 54 54 54s55 -24 55 -54s-25 -54 -55 -54s-54 24 -54 54z" />
    <glyph glyph-name="Ugrave" unicode="&#xd9;" horiz-adv-x="718" 
d="M24 703h233c6 0 11 -5 11 -11v-29c0 -6 -5 -11 -11 -12l-67 -8v-353c0 -164 56 -223 179 -223s178 59 178 223v353l-68 8c-6 1 -11 6 -11 12v29c0 6 5 11 11 11h215c6 0 11 -4 11 -10v-29c0 -6 -5 -12 -11 -12l-67 -9v-345c0 -225 -85 -308 -267 -308
c-183 0 -270 83 -270 308v345l-66 8c-7 1 -11 6 -11 12v29c0 6 4 11 11 11zM248 968h78c6 0 13 -4 17 -9c45 -57 91 -121 132 -181c4 -6 2 -9 -5 -9h-34c-7 0 -14 3 -18 8c-52 58 -111 119 -173 182c-5 5 -3 9 3 9z" />
    <glyph glyph-name="Uhungarumlaut" unicode="&#x170;" horiz-adv-x="718" 
d="M24 703h233c6 0 11 -5 11 -11v-29c0 -6 -5 -11 -11 -12l-67 -8v-353c0 -164 56 -223 179 -223s178 59 178 223v353l-68 8c-6 1 -11 6 -11 12v29c0 6 5 11 11 11h215c6 0 11 -4 11 -10v-29c0 -6 -5 -12 -11 -12l-67 -9v-345c0 -225 -85 -308 -267 -308
c-183 0 -270 83 -270 308v345l-66 8c-7 1 -11 6 -11 12v29c0 6 4 11 11 11zM354 965h73c6 0 8 -4 4 -9c-46 -63 -90 -124 -127 -181c-3 -6 -10 -9 -17 -9h-34c-7 0 -9 4 -7 10c28 60 60 122 92 179c3 6 10 10 16 10zM533 965h73c6 0 8 -4 4 -9c-46 -63 -90 -124 -127 -181
c-3 -6 -10 -9 -17 -9h-34c-7 0 -9 4 -7 10c28 60 60 122 92 179c3 6 10 10 16 10z" />
    <glyph glyph-name="Umacron" unicode="&#x16a;" horiz-adv-x="718" 
d="M24 703h233c6 0 11 -5 11 -11v-29c0 -6 -5 -11 -11 -12l-67 -8v-353c0 -164 56 -223 179 -223s178 59 178 223v353l-68 8c-6 1 -11 6 -11 12v29c0 6 5 11 11 11h215c6 0 11 -4 11 -10v-29c0 -6 -5 -12 -11 -12l-67 -9v-345c0 -225 -85 -308 -267 -308
c-183 0 -270 83 -270 308v345l-66 8c-7 1 -11 6 -11 12v29c0 6 4 11 11 11zM234 820v54c0 7 4 11 11 11h227c6 0 11 -4 11 -11v-54c0 -7 -5 -11 -11 -11h-227c-7 0 -11 4 -11 11z" />
    <glyph glyph-name="Uogonek" unicode="&#x172;" horiz-adv-x="718" 
d="M434 -191c-20 -9 -43 -14 -66 -14c-70 0 -111 27 -111 82c0 47 37 87 105 113h-2c-183 0 -270 83 -270 308v345l-66 8c-7 1 -11 6 -11 12v29c0 6 4 11 11 11h233c6 0 11 -5 11 -11v-29c0 -6 -5 -11 -11 -12l-67 -8v-353c0 -164 56 -223 179 -223s178 59 178 223v353
l-68 8c-6 1 -11 6 -11 12v29c0 6 5 11 11 11h215c6 0 11 -4 11 -10v-29c0 -6 -5 -12 -11 -12l-67 -9v-345c0 -184 -57 -273 -176 -299c-76 -26 -111 -64 -111 -103c0 -28 17 -41 49 -41c15 0 28 3 44 8c6 2 10 -1 10 -7v-31c0 -7 -3 -14 -9 -16z" />
    <glyph glyph-name="Uring" unicode="&#x16e;" horiz-adv-x="718" 
d="M24 703h233c6 0 11 -5 11 -11v-29c0 -6 -5 -11 -11 -12l-67 -8v-353c0 -164 56 -223 179 -223s178 59 178 223v353l-68 8c-6 1 -11 6 -11 12v29c0 6 5 11 11 11h215c6 0 11 -4 11 -10v-29c0 -6 -5 -12 -11 -12l-67 -9v-345c0 -225 -85 -308 -267 -308
c-183 0 -270 83 -270 308v345l-66 8c-7 1 -11 6 -11 12v29c0 6 4 11 11 11zM246 888c0 63 47 114 115 114s115 -51 115 -114s-47 -114 -115 -114s-115 51 -115 114zM302 888c0 -32 25 -59 59 -59s59 27 59 59c0 31 -25 59 -59 59s-59 -28 -59 -59z" />
    <glyph glyph-name="V" unicode="V" horiz-adv-x="771" 
d="M24 703h241c6 0 11 -5 11 -11v-29c0 -6 -5 -11 -11 -12l-67 -8c59 -167 103 -291 156 -431c13 -33 26 -75 36 -117h6c11 42 24 84 37 117c55 140 100 264 162 431l-68 8c-7 1 -11 6 -11 12v29c0 6 4 11 11 11h220c6 0 11 -5 11 -11v-29c0 -6 -5 -12 -11 -12l-67 -9
c-78 -204 -177 -461 -249 -637c-2 -6 -9 -10 -15 -10h-67c-6 0 -12 4 -15 10c-73 186 -166 427 -244 638l-66 8c-7 1 -11 6 -11 12v29c0 6 4 11 11 11z" />
    <glyph glyph-name="W" unicode="W" horiz-adv-x="1106" 
d="M24 703h238c7 0 11 -5 11 -11v-29c0 -6 -4 -11 -11 -12l-66 -8c46 -167 80 -291 123 -431c9 -33 20 -75 27 -117h5c9 42 19 84 29 117c43 140 79 264 128 431l-68 8c-7 1 -11 6 -11 12v29c0 6 4 11 11 11h247c6 0 11 -5 11 -11v-29c0 -6 -5 -11 -11 -12l-67 -8
c47 -167 80 -291 123 -431c10 -33 20 -75 28 -117h4c9 42 20 84 30 117c43 140 78 264 127 431l-68 8c-6 1 -11 6 -11 12v29c0 6 5 11 11 11h218c6 0 11 -5 11 -11v-29c0 -6 -5 -12 -11 -12l-67 -9c-60 -203 -139 -461 -196 -636c-2 -7 -8 -11 -14 -11h-83
c-6 0 -12 4 -14 11c-40 132 -84 279 -126 422c-10 34 -20 74 -27 115h-5c-7 -41 -17 -81 -28 -115c-44 -144 -89 -294 -129 -422c-2 -7 -8 -11 -14 -11h-81c-6 0 -12 4 -14 11c-57 185 -134 427 -194 637l-66 8c-7 1 -11 6 -11 12v29c0 6 4 11 11 11z" />
    <glyph glyph-name="Wcircumflex" unicode="&#x174;" horiz-adv-x="1106" 
d="M24 703h238c7 0 11 -5 11 -11v-29c0 -6 -4 -11 -11 -12l-66 -8c46 -167 80 -291 123 -431c9 -33 20 -75 27 -117h5c9 42 19 84 29 117c43 140 79 264 128 431l-68 8c-7 1 -11 6 -11 12v29c0 6 4 11 11 11h247c6 0 11 -5 11 -11v-29c0 -6 -5 -11 -11 -12l-67 -8
c47 -167 80 -291 123 -431c10 -33 20 -75 28 -117h4c9 42 20 84 30 117c43 140 78 264 127 431l-68 8c-6 1 -11 6 -11 12v29c0 6 5 11 11 11h218c6 0 11 -5 11 -11v-29c0 -6 -5 -12 -11 -12l-67 -9c-60 -203 -139 -461 -196 -636c-2 -7 -8 -11 -14 -11h-83
c-6 0 -12 4 -14 11c-40 132 -84 279 -126 422c-10 34 -20 74 -27 115h-5c-7 -41 -17 -81 -28 -115c-44 -144 -89 -294 -129 -422c-2 -7 -8 -11 -14 -11h-81c-6 0 -12 4 -14 11c-57 185 -134 427 -194 637l-66 8c-7 1 -11 6 -11 12v29c0 6 4 11 11 11zM541 968h41
c6 0 13 -4 18 -9c45 -57 90 -121 131 -181c4 -6 2 -9 -4 -9h-35c-6 0 -14 3 -19 8c-25 30 -83 86 -112 116c-39 -40 -78 -79 -112 -116c-4 -5 -12 -8 -19 -8h-34c-7 0 -9 3 -5 9c42 60 87 124 132 181c4 5 11 9 18 9z" />
    <glyph glyph-name="X" unicode="X" horiz-adv-x="745" 
d="M50 703h238c7 0 11 -5 11 -11v-29c0 -6 -4 -11 -11 -12l-61 -8c38 -54 80 -113 122 -170c12 -16 23 -33 32 -53h5c11 20 22 38 34 53c41 58 84 117 123 171l-62 7c-6 1 -11 6 -11 12v29c0 6 5 11 11 11h214c6 0 11 -5 11 -11v-29c0 -6 -5 -12 -11 -12l-60 -8
c-60 -79 -141 -183 -212 -274c78 -103 167 -222 231 -310l61 -7c7 -1 11 -6 11 -13v-28c0 -7 -4 -11 -11 -11h-233c-7 0 -11 4 -11 11v28c0 7 4 12 11 13l55 6c-43 63 -93 131 -141 196c-13 19 -22 33 -32 53h-5c-10 -20 -19 -35 -33 -53l-145 -196l63 -6c7 -1 11 -6 11 -13
v-28c0 -7 -4 -11 -11 -11h-214c-7 0 -11 4 -11 11v28c0 7 4 12 11 13l61 7c62 83 154 200 232 299c-73 95 -156 204 -215 286l-58 7c-6 1 -11 6 -11 12v29c0 6 5 11 11 11z" />
    <glyph glyph-name="Y" unicode="Y" horiz-adv-x="745" 
d="M24 703h242c6 0 11 -5 11 -11v-29c0 -6 -5 -11 -11 -12l-66 -8c35 -60 76 -126 112 -182c22 -34 42 -68 66 -113h6c23 45 46 81 69 115c38 56 81 123 117 180l-68 8c-6 1 -11 6 -11 12v29c0 6 5 11 11 11h219c7 0 11 -5 11 -11v-29c0 -6 -4 -12 -11 -12l-66 -9
c-71 -111 -162 -246 -238 -353v-230l105 -8c6 -1 11 -5 11 -12v-28c0 -7 -5 -11 -11 -11h-309c-6 0 -11 4 -11 11v28c0 7 5 11 11 12l105 8v225c-78 115 -160 243 -229 359l-65 8c-7 1 -11 6 -11 12v29c0 6 4 11 11 11z" />
    <glyph glyph-name="Yacute" unicode="&#xdd;" horiz-adv-x="745" 
d="M24 703h242c6 0 11 -5 11 -11v-29c0 -6 -5 -11 -11 -12l-66 -8c35 -60 76 -126 112 -182c22 -34 42 -68 66 -113h6c23 45 46 81 69 115c38 56 81 123 117 180l-68 8c-6 1 -11 6 -11 12v29c0 6 5 11 11 11h219c7 0 11 -5 11 -11v-29c0 -6 -4 -12 -11 -12l-66 -9
c-71 -111 -162 -246 -238 -353v-230l105 -8c6 -1 11 -5 11 -12v-28c0 -7 -5 -11 -11 -11h-309c-6 0 -11 4 -11 11v28c0 7 5 11 11 12l105 8v225c-78 115 -160 243 -229 359l-65 8c-7 1 -11 6 -11 12v29c0 6 4 11 11 11zM414 968h77c7 0 8 -4 3 -9
c-62 -63 -120 -124 -173 -182c-3 -5 -11 -8 -18 -8h-34c-7 0 -9 3 -5 9c41 60 87 124 132 181c4 5 11 9 18 9z" />
    <glyph glyph-name="Ycircumflex" unicode="&#x176;" horiz-adv-x="745" 
d="M24 703h242c6 0 11 -5 11 -11v-29c0 -6 -5 -11 -11 -12l-66 -8c35 -60 76 -126 112 -182c22 -34 42 -68 66 -113h6c23 45 46 81 69 115c38 56 81 123 117 180l-68 8c-6 1 -11 6 -11 12v29c0 6 5 11 11 11h219c7 0 11 -5 11 -11v-29c0 -6 -4 -12 -11 -12l-66 -9
c-71 -111 -162 -246 -238 -353v-230l105 -8c6 -1 11 -5 11 -12v-28c0 -7 -5 -11 -11 -11h-309c-6 0 -11 4 -11 11v28c0 7 5 11 11 12l105 8v225c-78 115 -160 243 -229 359l-65 8c-7 1 -11 6 -11 12v29c0 6 4 11 11 11zM361 968h41c6 0 13 -4 18 -9c45 -57 90 -121 131 -181
c4 -6 2 -9 -4 -9h-35c-6 0 -14 3 -19 8c-25 30 -83 86 -112 116c-39 -40 -78 -79 -112 -116c-4 -5 -12 -8 -19 -8h-34c-7 0 -9 3 -5 9c42 60 87 124 132 181c4 5 11 9 18 9z" />
    <glyph glyph-name="Ydieresis" unicode="&#x178;" horiz-adv-x="745" 
d="M24 703h242c6 0 11 -5 11 -11v-29c0 -6 -5 -11 -11 -12l-66 -8c35 -60 76 -126 112 -182c22 -34 42 -68 66 -113h6c23 45 46 81 69 115c38 56 81 123 117 180l-68 8c-6 1 -11 6 -11 12v29c0 6 5 11 11 11h219c7 0 11 -5 11 -11v-29c0 -6 -4 -12 -11 -12l-66 -9
c-71 -111 -162 -246 -238 -353v-230l105 -8c6 -1 11 -5 11 -12v-28c0 -7 -5 -11 -11 -11h-309c-6 0 -11 4 -11 11v28c0 7 5 11 11 12l105 8v225c-78 115 -160 243 -229 359l-65 8c-7 1 -11 6 -11 12v29c0 6 4 11 11 11zM232 856c0 30 24 54 55 54c30 0 54 -24 54 -54
s-24 -54 -54 -54c-31 0 -55 24 -55 54zM418 856c0 30 24 54 54 54s55 -24 55 -54s-25 -54 -55 -54s-54 24 -54 54z" />
    <glyph glyph-name="Z" unicode="Z" horiz-adv-x="624" 
d="M63 703h495c6 0 12 -5 13 -11l4 -31c1 -6 -1 -14 -4 -19c-34 -41 -75 -92 -105 -136l-210 -302c-34 -50 -73 -99 -106 -142l168 4h190l22 108c1 7 7 11 13 11h30c7 0 11 -4 10 -11l-9 -163c-1 -7 -5 -11 -12 -11h-509c-6 0 -12 4 -13 11l-4 31c-1 6 1 14 5 19
c35 42 88 109 121 159l190 279c39 58 73 99 106 141l-173 -3h-157l-9 -112c-1 -7 -5 -11 -12 -11h-30c-6 0 -11 4 -12 11l-12 167c-1 6 4 11 10 11z" />
    <glyph glyph-name="Zacute" unicode="&#x179;" horiz-adv-x="624" 
d="M63 703h495c6 0 12 -5 13 -11l4 -31c1 -6 -1 -14 -4 -19c-34 -41 -75 -92 -105 -136l-210 -302c-34 -50 -73 -99 -106 -142l168 4h190l22 108c1 7 7 11 13 11h30c7 0 11 -4 10 -11l-9 -163c-1 -7 -5 -11 -12 -11h-509c-6 0 -12 4 -13 11l-4 31c-1 6 1 14 5 19
c35 42 88 109 121 159l190 279c39 58 73 99 106 141l-173 -3h-157l-9 -112c-1 -7 -5 -11 -12 -11h-30c-6 0 -11 4 -12 11l-12 167c-1 6 4 11 10 11zM364 968h77c7 0 8 -4 3 -9c-62 -63 -120 -124 -173 -182c-3 -5 -11 -8 -18 -8h-34c-7 0 -9 3 -5 9c41 60 87 124 132 181
c4 5 11 9 18 9z" />
    <glyph glyph-name="Zcaron" unicode="&#x17d;" horiz-adv-x="624" 
d="M63 703h495c6 0 12 -5 13 -11l4 -31c1 -6 -1 -14 -4 -19c-34 -41 -75 -92 -105 -136l-210 -302c-34 -50 -73 -99 -106 -142l168 4h190l22 108c1 7 7 11 13 11h30c7 0 11 -4 10 -11l-9 -163c-1 -7 -5 -11 -12 -11h-509c-6 0 -12 4 -13 11l-4 31c-1 6 1 14 5 19
c35 42 88 109 121 159l190 279c39 58 73 99 106 141l-173 -3h-157l-9 -112c-1 -7 -5 -11 -12 -11h-30c-6 0 -11 4 -12 11l-12 167c-1 6 4 11 10 11zM329 769h-41c-7 0 -14 3 -18 9c-45 57 -90 120 -132 181c-4 5 -2 9 5 9h34c7 0 15 -4 19 -8c34 -37 73 -77 112 -117
c29 30 87 87 112 116c5 5 13 9 19 9h35c6 0 8 -4 4 -9c-41 -61 -86 -124 -131 -181c-5 -6 -12 -9 -18 -9z" />
    <glyph glyph-name="Zdotaccent" unicode="&#x17b;" horiz-adv-x="624" 
d="M63 703h495c6 0 12 -5 13 -11l4 -31c1 -6 -1 -14 -4 -19c-34 -41 -75 -92 -105 -136l-210 -302c-34 -50 -73 -99 -106 -142l168 4h190l22 108c1 7 7 11 13 11h30c7 0 11 -4 10 -11l-9 -163c-1 -7 -5 -11 -12 -11h-509c-6 0 -12 4 -13 11l-4 31c-1 6 1 14 5 19
c35 42 88 109 121 159l190 279c39 58 73 99 106 141l-173 -3h-157l-9 -112c-1 -7 -5 -11 -12 -11h-30c-6 0 -11 4 -12 11l-12 167c-1 6 4 11 10 11zM262 857c0 30 25 54 55 54c31 0 55 -24 55 -54c0 -31 -24 -55 -55 -55c-30 0 -55 24 -55 55z" />
    <glyph glyph-name="a" unicode="a" horiz-adv-x="559" 
d="M76 403l-18 46c-2 5 -1 12 6 15c55 31 121 51 203 51c149 0 191 -62 191 -202v-161c0 -36 1 -68 7 -95l65 -5c6 -1 11 -6 11 -13v-28c0 -7 -5 -11 -11 -11h-124c-6 0 -13 4 -15 10c-5 11 -9 22 -12 33c-36 -31 -91 -53 -163 -53c-94 0 -173 44 -173 150
c0 98 73 149 215 149c34 0 73 -3 108 -7v38c0 86 -28 126 -114 126c-60 0 -114 -19 -162 -47c-7 -3 -12 -1 -14 4zM244 54c46 0 92 19 122 47v122c-36 5 -69 8 -95 8c-95 0 -135 -34 -135 -88c0 -60 45 -89 108 -89z" />
    <glyph glyph-name="aacute" unicode="&#xe1;" horiz-adv-x="559" 
d="M76 403l-18 46c-2 5 -1 12 6 15c55 31 121 51 203 51c149 0 191 -62 191 -202v-161c0 -36 1 -68 7 -95l65 -5c6 -1 11 -6 11 -13v-28c0 -7 -5 -11 -11 -11h-124c-6 0 -13 4 -15 10c-5 11 -9 22 -12 33c-36 -31 -91 -53 -163 -53c-94 0 -173 44 -173 150
c0 98 73 149 215 149c34 0 73 -3 108 -7v38c0 86 -28 126 -114 126c-60 0 -114 -19 -162 -47c-7 -3 -12 -1 -14 4zM244 54c46 0 92 19 122 47v122c-36 5 -69 8 -95 8c-95 0 -135 -34 -135 -88c0 -60 45 -89 108 -89zM302 773h77c7 0 8 -4 3 -9c-62 -63 -120 -124 -173 -182
c-3 -5 -11 -8 -18 -8h-34c-7 0 -9 3 -5 9c41 60 87 124 132 181c4 5 11 9 18 9z" />
    <glyph glyph-name="abreve" unicode="&#x103;" horiz-adv-x="559" 
d="M76 403l-18 46c-2 5 -1 12 6 15c55 31 121 51 203 51c149 0 191 -62 191 -202v-161c0 -36 1 -68 7 -95l65 -5c6 -1 11 -6 11 -13v-28c0 -7 -5 -11 -11 -11h-124c-6 0 -13 4 -15 10c-5 11 -9 22 -12 33c-36 -31 -91 -53 -163 -53c-94 0 -173 44 -173 150
c0 98 73 149 215 149c34 0 73 -3 108 -7v38c0 86 -28 126 -114 126c-60 0 -114 -19 -162 -47c-7 -3 -12 -1 -14 4zM244 54c46 0 92 19 122 47v122c-36 5 -69 8 -95 8c-95 0 -135 -34 -135 -88c0 -60 45 -89 108 -89zM109 730l23 17c5 4 10 2 13 -4c27 -62 67 -85 120 -85
s93 23 120 85c3 6 8 8 13 4l23 -17c5 -4 8 -11 5 -17c-28 -91 -91 -126 -161 -126s-133 35 -162 126c-2 6 1 13 6 17z" />
    <glyph glyph-name="acircumflex" unicode="&#xe2;" horiz-adv-x="559" 
d="M76 403l-18 46c-2 5 -1 12 6 15c55 31 121 51 203 51c149 0 191 -62 191 -202v-161c0 -36 1 -68 7 -95l65 -5c6 -1 11 -6 11 -13v-28c0 -7 -5 -11 -11 -11h-124c-6 0 -13 4 -15 10c-5 11 -9 22 -12 33c-36 -31 -91 -53 -163 -53c-94 0 -173 44 -173 150
c0 98 73 149 215 149c34 0 73 -3 108 -7v38c0 86 -28 126 -114 126c-60 0 -114 -19 -162 -47c-7 -3 -12 -1 -14 4zM244 54c46 0 92 19 122 47v122c-36 5 -69 8 -95 8c-95 0 -135 -34 -135 -88c0 -60 45 -89 108 -89zM244 773h41c6 0 13 -4 18 -9c45 -57 90 -121 131 -181
c4 -6 2 -9 -4 -9h-35c-6 0 -14 3 -19 8c-25 30 -83 86 -112 116c-39 -40 -78 -79 -112 -116c-4 -5 -12 -8 -19 -8h-34c-7 0 -9 3 -5 9c42 60 87 124 132 181c4 5 11 9 18 9z" />
    <glyph glyph-name="acute" unicode="&#xb4;" horiz-adv-x="506" 
d="M289 773h77c7 0 8 -4 3 -9c-62 -63 -120 -124 -173 -182c-3 -5 -11 -8 -18 -8h-34c-7 0 -9 3 -5 9c41 60 87 124 132 181c4 5 11 9 18 9z" />
    <glyph glyph-name="adieresis" unicode="&#xe4;" horiz-adv-x="559" 
d="M76 403l-18 46c-2 5 -1 12 6 15c55 31 121 51 203 51c149 0 191 -62 191 -202v-161c0 -36 1 -68 7 -95l65 -5c6 -1 11 -6 11 -13v-28c0 -7 -5 -11 -11 -11h-124c-6 0 -13 4 -15 10c-5 11 -9 22 -12 33c-36 -31 -91 -53 -163 -53c-94 0 -173 44 -173 150
c0 98 73 149 215 149c34 0 73 -3 108 -7v38c0 86 -28 126 -114 126c-60 0 -114 -19 -162 -47c-7 -3 -12 -1 -14 4zM244 54c46 0 92 19 122 47v122c-36 5 -69 8 -95 8c-95 0 -135 -34 -135 -88c0 -60 45 -89 108 -89zM115 661c0 30 24 54 55 54c30 0 54 -24 54 -54
s-24 -54 -54 -54c-31 0 -55 24 -55 54zM301 661c0 30 24 54 54 54s55 -24 55 -54s-25 -54 -55 -54s-54 24 -54 54z" />
    <glyph glyph-name="ae" unicode="&#xe6;" horiz-adv-x="889" 
d="M76 403l-18 46c-2 5 -1 12 6 15c55 31 121 51 203 51c89 0 139 -23 165 -72c39 44 97 72 174 72c165 0 220 -105 220 -241v-31c-1 -6 -5 -11 -12 -11h-352c8 -107 62 -172 162 -172c50 0 101 12 145 40c6 4 11 2 14 -4l19 -44c3 -6 2 -13 -4 -16
c-43 -29 -116 -46 -185 -46c-95 0 -158 33 -198 88c-46 -53 -105 -88 -199 -88s-173 44 -173 150c0 129 126 155 323 147v33c0 86 -28 126 -114 126c-60 0 -114 -19 -162 -47c-7 -3 -12 -1 -14 4zM244 54c55 0 111 26 143 74c-12 30 -19 66 -21 103
c-162 4 -230 -14 -230 -87c0 -61 45 -90 108 -90zM606 446c-74 0 -134 -45 -144 -155h274c-2 82 -33 155 -130 155z" />
    <glyph glyph-name="agrave" unicode="&#xe0;" horiz-adv-x="559" 
d="M76 403l-18 46c-2 5 -1 12 6 15c55 31 121 51 203 51c149 0 191 -62 191 -202v-161c0 -36 1 -68 7 -95l65 -5c6 -1 11 -6 11 -13v-28c0 -7 -5 -11 -11 -11h-124c-6 0 -13 4 -15 10c-5 11 -9 22 -12 33c-36 -31 -91 -53 -163 -53c-94 0 -173 44 -173 150
c0 98 73 149 215 149c34 0 73 -3 108 -7v38c0 86 -28 126 -114 126c-60 0 -114 -19 -162 -47c-7 -3 -12 -1 -14 4zM244 54c46 0 92 19 122 47v122c-36 5 -69 8 -95 8c-95 0 -135 -34 -135 -88c0 -60 45 -89 108 -89zM146 773h78c6 0 13 -4 17 -9c45 -57 91 -121 132 -181
c4 -6 2 -9 -5 -9h-34c-7 0 -14 3 -18 8c-52 58 -111 119 -173 182c-5 5 -3 9 3 9z" />
    <glyph glyph-name="amacron" unicode="&#x101;" horiz-adv-x="559" 
d="M76 403l-18 46c-2 5 -1 12 6 15c55 31 121 51 203 51c149 0 191 -62 191 -202v-161c0 -36 1 -68 7 -95l65 -5c6 -1 11 -6 11 -13v-28c0 -7 -5 -11 -11 -11h-124c-6 0 -13 4 -15 10c-5 11 -9 22 -12 33c-36 -31 -91 -53 -163 -53c-94 0 -173 44 -173 150
c0 98 73 149 215 149c34 0 73 -3 108 -7v38c0 86 -28 126 -114 126c-60 0 -114 -19 -162 -47c-7 -3 -12 -1 -14 4zM244 54c46 0 92 19 122 47v122c-36 5 -69 8 -95 8c-95 0 -135 -34 -135 -88c0 -60 45 -89 108 -89zM139 626v54c0 7 4 11 11 11h227c6 0 11 -4 11 -11v-54
c0 -7 -5 -11 -11 -11h-227c-7 0 -11 4 -11 11z" />
    <glyph glyph-name="ampersand" unicode="&#x26;" horiz-adv-x="681" 
d="M663 0h-117c-7 0 -15 3 -18 9l-50 58c-52 -47 -124 -77 -214 -77c-142 0 -230 76 -230 199c0 111 82 160 167 201l-2 2c-42 50 -78 105 -78 166c0 109 92 155 177 155c112 0 171 -64 171 -150c0 -98 -67 -149 -141 -190l149 -174c22 50 30 108 26 161c-1 7 3 11 10 11h65
c6 0 11 -5 12 -11c6 -77 -13 -160 -56 -228l64 -75l65 -5c6 -1 11 -6 11 -13v-28c0 -7 -5 -11 -11 -11zM269 64c69 0 121 24 158 62l-178 207c-66 -34 -121 -72 -122 -139c0 -80 58 -130 142 -130zM213 557c0 -41 33 -88 67 -129c59 31 106 67 106 130c0 40 -24 84 -83 84
c-43 0 -90 -25 -90 -85z" />
    <glyph glyph-name="aogonek" unicode="&#x105;" horiz-adv-x="559" 
d="M504 -193c-20 -9 -43 -14 -66 -14c-70 0 -111 27 -111 82s50 99 142 125h-63c-6 0 -13 4 -15 10c-5 11 -9 22 -12 33c-36 -31 -91 -53 -163 -53c-94 0 -173 44 -173 150c0 98 73 149 215 149c34 0 73 -3 108 -7v38c0 86 -28 126 -114 126c-60 0 -114 -19 -162 -47
c-7 -3 -12 -1 -14 4l-18 46c-2 5 -1 12 6 15c55 31 121 51 203 51c149 0 191 -62 191 -202v-161c0 -36 1 -68 7 -95l65 -5c6 -1 11 -6 11 -13v-28c0 -7 -5 -11 -11 -11c-82 -26 -120 -66 -120 -106c0 -28 17 -41 49 -41c15 0 28 3 44 8c6 2 10 -1 10 -7v-31
c0 -7 -3 -14 -9 -16zM244 54c46 0 92 19 122 47v122c-36 5 -69 8 -95 8c-95 0 -135 -34 -135 -88c0 -60 45 -89 108 -89z" />
    <glyph glyph-name="apple" unicode="&#xf8ff;" horiz-adv-x="644" 
d="M323 697c178 0 240 -164 222 -321c8 4 16 9 25 9c10 0 17 -9 20 -15c4 -9 4 -19 2 -42c-2 -15 -10 -31 -17 -49c-1 -12 -12 -21 -14 -29c-6 -13 -13 -19 -21 -25c-6 -98 -50 -160 -114 -201c-35 -29 -69 -42 -103 -42c-37 0 -60 12 -91 31c-32 12 -67 45 -83 74
c-19 37 -37 88 -41 133c-10 8 -18 22 -27 36c-11 13 -17 38 -22 56c-4 13 -9 27 -9 42c0 18 7 38 21 38c9 0 18 -5 28 -10c-18 180 74 315 224 315zM465 555v32l-31 3c-40 5 -62 -11 -64 -44c-18 7 -37 11 -57 11c-72 0 -117 -45 -117 -114c0 -51 21 -88 58 -104
c-12 -11 -17 -22 -17 -34c0 -68 175 -63 175 -120c0 -35 -35 -61 -89 -61c-57 0 -91 28 -91 61v5l-31 -15c0 -64 71 -86 122 -86c54 0 130 27 130 96c0 43 -34 63 -73 78c-40 16 -84 24 -103 37v30c11 -2 23 -4 36 -4c69 0 115 45 115 117c0 35 -11 64 -32 84
c2 25 22 28 31 28h38zM388 443c0 -48 -27 -82 -75 -82c-51 0 -77 32 -77 82c0 47 27 79 77 79c49 0 75 -31 75 -79zM349 182c0 6 -3 10 -11 10h-13v-30h9v9h2c10 0 13 4 13 11zM357 192v-30h21v7h-12v4h11v8h-11v4h12v7h-21zM319 192h-10l-4 -10l-4 10h-12l11 -18v-12h9v12z
M258 192v-7h9v-23h9v23h9v7h-27zM341 182c0 -3 -2 -5 -6 -5h-1v9h1c4 0 6 -1 6 -4z" />
    <glyph glyph-name="approxequal" unicode="&#x2248;" horiz-adv-x="675" 
d="M124 378l-30 44c-4 5 -4 12 0 18c35 43 79 66 131 66c45 0 77 -13 113 -32c44 -23 76 -41 111 -41c37 0 65 16 89 55c4 5 9 5 12 0l30 -44c4 -5 4 -12 0 -18c-35 -43 -79 -66 -131 -66c-45 0 -77 13 -113 32c-44 23 -76 41 -111 41c-37 0 -65 -16 -89 -55
c-4 -5 -9 -5 -12 0zM124 119l-30 43c-4 6 -4 13 0 18c35 43 79 67 131 67c45 0 77 -13 113 -33c44 -23 76 -41 111 -41c37 0 65 17 89 55c4 6 9 6 12 0l30 -43c4 -6 4 -13 0 -18c-35 -43 -79 -67 -131 -67c-45 0 -77 13 -113 33c-44 23 -76 41 -111 41
c-37 0 -65 -17 -89 -55c-4 -6 -9 -6 -12 0z" />
    <glyph glyph-name="aring" unicode="&#xe5;" horiz-adv-x="559" 
d="M76 403l-18 46c-2 5 -1 12 6 15c55 31 121 51 203 51c149 0 191 -62 191 -202v-161c0 -36 1 -68 7 -95l65 -5c6 -1 11 -6 11 -13v-28c0 -7 -5 -11 -11 -11h-124c-6 0 -13 4 -15 10c-5 11 -9 22 -12 33c-36 -31 -91 -53 -163 -53c-94 0 -173 44 -173 150
c0 98 73 149 215 149c34 0 73 -3 108 -7v38c0 86 -28 126 -114 126c-60 0 -114 -19 -162 -47c-7 -3 -12 -1 -14 4zM244 54c46 0 92 19 122 47v122c-36 5 -69 8 -95 8c-95 0 -135 -34 -135 -88c0 -60 45 -89 108 -89zM148 696c0 63 47 114 115 114s115 -51 115 -114
s-47 -114 -115 -114s-115 51 -115 114zM204 696c0 -32 25 -59 59 -59s59 27 59 59c0 31 -25 59 -59 59s-59 -28 -59 -59z" />
    <glyph glyph-name="asciicircum" unicode="^" horiz-adv-x="598" 
d="M270 681h57c7 0 13 -4 16 -10c39 -77 144 -313 200 -452c3 -6 0 -11 -6 -14l-66 -20c-6 -3 -11 0 -14 6c-44 116 -104 260 -158 380c-55 -120 -115 -264 -158 -380c-3 -6 -8 -9 -14 -6l-66 20c-6 3 -9 8 -6 14c55 139 160 375 199 452c3 6 10 10 16 10z" />
    <glyph glyph-name="asciitilde" unicode="~" horiz-adv-x="668" 
d="M139 222h-54c-6 0 -11 5 -11 11c4 87 52 147 137 147c43 0 77 -14 120 -34c41 -20 79 -41 114 -41c41 0 64 22 69 67c1 7 6 11 12 11h54c7 0 11 -4 11 -11c-3 -87 -51 -147 -136 -147c-43 0 -78 14 -120 35c-41 20 -79 40 -114 40c-42 0 -65 -22 -70 -67
c-1 -7 -5 -11 -12 -11z" />
    <glyph glyph-name="asterisk" unicode="*" horiz-adv-x="544" 
d="M101 611l15 44c2 6 7 9 13 7l113 -41l-4 121c0 6 4 11 11 11h47c6 0 11 -5 10 -11l-5 -121l114 40c6 3 11 0 13 -6l15 -44c3 -6 0 -11 -7 -13l-116 -35l73 -94c5 -6 3 -11 -2 -16l-38 -26c-5 -4 -11 -3 -15 3l-66 99l-67 -99c-4 -5 -10 -7 -15 -2l-38 26c-5 4 -6 9 -2 15
l74 94l-116 35c-7 2 -10 7 -7 13z" />
    <glyph glyph-name="at" unicode="@" horiz-adv-x="887" 
d="M643 -31c-46 -14 -116 -24 -174 -24c-270 0 -413 148 -413 372c0 196 139 396 407 396c226 0 369 -119 369 -306c0 -174 -115 -273 -230 -273c-58 0 -86 26 -94 64c-26 -37 -66 -64 -124 -64c-83 0 -131 63 -131 138c0 135 101 246 244 246c55 0 101 -8 140 -25
c6 -3 9 -9 7 -16l-49 -172c-6 -22 -9 -40 -9 -52c0 -24 9 -41 38 -41c62 0 132 67 132 193c0 141 -107 240 -296 240c-217 0 -327 -164 -327 -328c0 -185 121 -307 339 -307c58 0 116 9 155 20c7 2 13 -1 14 -8l10 -39c1 -7 -2 -12 -8 -14zM407 208c68 0 87 45 100 90
l41 143c-14 4 -29 7 -51 7c-89 0 -161 -69 -158 -165c1 -44 27 -75 68 -75z" />
    <glyph glyph-name="atilde" unicode="&#xe3;" horiz-adv-x="559" 
d="M76 403l-18 46c-2 5 -1 12 6 15c55 31 121 51 203 51c149 0 191 -62 191 -202v-161c0 -36 1 -68 7 -95l65 -5c6 -1 11 -6 11 -13v-28c0 -7 -5 -11 -11 -11h-124c-6 0 -13 4 -15 10c-5 11 -9 22 -12 33c-36 -31 -91 -53 -163 -53c-94 0 -173 44 -173 150
c0 98 73 149 215 149c34 0 73 -3 108 -7v38c0 86 -28 126 -114 126c-60 0 -114 -19 -162 -47c-7 -3 -12 -1 -14 4zM244 54c46 0 92 19 122 47v122c-36 5 -69 8 -95 8c-95 0 -135 -34 -135 -88c0 -60 45 -89 108 -89zM132 615l-17 13c-6 4 -8 11 -6 17c19 61 53 89 92 89
c29 0 54 -16 77 -32c20 -15 41 -30 61 -30c21 0 36 15 45 38c3 6 7 7 12 4l17 -13c6 -5 8 -11 6 -18c-19 -60 -53 -89 -92 -89c-29 0 -53 17 -76 33c-20 14 -42 30 -62 30s-35 -15 -45 -39c-2 -6 -7 -7 -12 -3z" />
    <glyph glyph-name="b" unicode="b" horiz-adv-x="604" 
d="M15 724v29c0 6 4 11 11 11h169c6 0 11 -5 11 -11v-282c43 29 89 44 138 44c150 0 208 -99 208 -257c0 -194 -104 -268 -252 -268c-79 0 -138 12 -178 33c-7 3 -10 10 -10 16v667l-86 6c-7 1 -11 6 -11 12zM206 403v-327c29 -12 57 -18 95 -18c96 0 156 49 156 194
c0 122 -36 191 -136 191c-42 0 -82 -16 -115 -40z" />
    <glyph glyph-name="backslash" unicode="\" horiz-adv-x="462" 
d="M111 739l317 -775c3 -6 0 -10 -6 -10h-56c-7 0 -13 4 -15 10l-318 775c-2 6 0 10 7 10h56c6 0 13 -4 15 -10z" />
    <glyph glyph-name="bar" unicode="|" horiz-adv-x="270" 
d="M88 -181v990c0 6 5 11 11 11h71c7 0 11 -5 11 -11v-990c0 -7 -4 -11 -11 -11h-71c-6 0 -11 4 -11 11z" />
    <glyph glyph-name="braceleft" unicode="{" horiz-adv-x="337" 
d="M293 778v-56c0 -7 -4 -11 -11 -11h-6c-49 0 -72 -29 -72 -89s20 -122 20 -186c0 -76 -39 -106 -86 -121v-3c47 -16 86 -46 86 -121c0 -65 -20 -126 -20 -187c0 -59 23 -88 72 -88h6c7 0 11 -5 11 -11v-56c0 -7 -4 -11 -11 -11h-29c-93 0 -146 61 -146 154
c0 65 21 129 21 192c0 82 -50 94 -79 94h-8c-7 0 -11 4 -11 11v49c0 7 4 11 11 11h8c29 0 79 12 79 94c0 63 -21 127 -21 191c0 94 53 155 146 155h29c7 0 11 -5 11 -11z" />
    <glyph glyph-name="braceright" unicode="}" horiz-adv-x="337" 
d="M44 722v56c0 6 4 11 11 11h29c93 0 146 -61 146 -155c0 -64 -21 -128 -21 -191c0 -82 50 -94 79 -94h8c7 0 11 -4 11 -11v-49c0 -7 -4 -11 -11 -11h-8c-29 0 -79 -12 -79 -94c0 -63 21 -127 21 -192c0 -93 -53 -154 -146 -154h-29c-7 0 -11 4 -11 11v56c0 6 4 11 11 11h6
c49 0 72 29 72 88c0 61 -20 122 -20 187c0 75 39 105 86 121v3c-47 15 -86 45 -86 121c0 64 20 126 20 186s-23 89 -72 89h-6c-7 0 -11 4 -11 11z" />
    <glyph glyph-name="bracketleft" unicode="[" horiz-adv-x="324" 
d="M65 -151v929c0 6 5 11 11 11h200c6 0 11 -5 11 -11v-56c0 -7 -5 -11 -11 -11h-112v-795h112c6 0 11 -5 11 -11v-56c0 -7 -5 -11 -11 -11h-200c-6 0 -11 4 -11 11z" />
    <glyph glyph-name="bracketright" unicode="]" horiz-adv-x="324" 
d="M259 778v-929c0 -7 -5 -11 -11 -11h-200c-6 0 -11 4 -11 11v56c0 6 5 11 11 11h112v795h-112c-6 0 -11 4 -11 11v56c0 6 5 11 11 11h200c6 0 11 -5 11 -11z" />
    <glyph glyph-name="breve" unicode="&#x2d8;" horiz-adv-x="514" 
d="M102 730l23 17c5 4 10 2 13 -4c27 -62 67 -85 120 -85s93 23 120 85c3 6 8 8 13 4l23 -17c5 -4 8 -11 5 -17c-28 -91 -91 -126 -161 -126s-133 35 -162 126c-2 6 1 13 6 17z" />
    <glyph glyph-name="brokenbar" unicode="&#xa6;" horiz-adv-x="270" 
d="M88 398v411c0 6 5 11 11 11h71c7 0 11 -5 11 -11v-411c0 -7 -4 -11 -11 -11h-71c-6 0 -11 4 -11 11zM88 -181v411c0 6 5 11 11 11h71c7 0 11 -5 11 -11v-411c0 -7 -4 -11 -11 -11h-71c-6 0 -11 4 -11 11z" />
    <glyph glyph-name="bullet" unicode="&#x2022;" horiz-adv-x="535" 
d="M83 342c0 102 78 173 173 173s173 -70 173 -173s-78 -173 -173 -173s-173 71 -173 173z" />
    <glyph glyph-name="c" unicode="c" horiz-adv-x="535" 
d="M460 92l18 -44c2 -6 1 -13 -5 -16c-40 -25 -108 -42 -175 -42c-173 0 -246 114 -246 262c0 146 74 263 260 263c63 0 110 -12 151 -31c6 -3 10 -9 9 -16l-15 -132c-1 -7 -6 -11 -12 -11h-30c-7 0 -12 4 -13 11l-11 98c-23 8 -49 11 -77 11c-108 0 -167 -72 -167 -193
c0 -98 49 -191 168 -191c51 0 98 14 132 34c5 5 11 3 13 -3z" />
    <glyph glyph-name="cacute" unicode="&#x107;" horiz-adv-x="535" 
d="M460 92l18 -44c2 -6 1 -13 -5 -16c-40 -25 -108 -42 -175 -42c-173 0 -246 114 -246 262c0 146 74 263 260 263c63 0 110 -12 151 -31c6 -3 10 -9 9 -16l-15 -132c-1 -7 -6 -11 -12 -11h-30c-7 0 -12 4 -13 11l-11 98c-23 8 -49 11 -77 11c-108 0 -167 -72 -167 -193
c0 -98 49 -191 168 -191c51 0 98 14 132 34c5 5 11 3 13 -3zM334 773h77c7 0 8 -4 3 -9c-62 -63 -120 -124 -173 -182c-3 -5 -11 -8 -18 -8h-34c-7 0 -9 3 -5 9c41 60 87 124 132 181c4 5 11 9 18 9z" />
    <glyph glyph-name="caron" unicode="&#x2c7;" horiz-adv-x="514" 
d="M278 574h-41c-7 0 -14 3 -18 9c-45 57 -90 120 -132 181c-4 5 -2 9 5 9h34c7 0 15 -4 19 -8c34 -37 73 -77 112 -117c29 30 87 87 112 116c5 5 13 9 19 9h35c6 0 8 -4 4 -9c-41 -61 -86 -124 -131 -181c-5 -6 -12 -9 -18 -9z" />
    <glyph glyph-name="ccaron" unicode="&#x10d;" horiz-adv-x="535" 
d="M460 92l18 -44c2 -6 1 -13 -5 -16c-40 -25 -108 -42 -175 -42c-173 0 -246 114 -246 262c0 146 74 263 260 263c63 0 110 -12 151 -31c6 -3 10 -9 9 -16l-15 -132c-1 -7 -6 -11 -12 -11h-30c-7 0 -12 4 -13 11l-11 98c-23 8 -49 11 -77 11c-108 0 -167 -72 -167 -193
c0 -98 49 -191 168 -191c51 0 98 14 132 34c5 5 11 3 13 -3zM316 574h-41c-7 0 -14 3 -18 9c-45 57 -90 120 -132 181c-4 5 -2 9 5 9h34c7 0 15 -4 19 -8c34 -37 73 -77 112 -117c29 30 87 87 112 116c5 5 13 9 19 9h35c6 0 8 -4 4 -9c-41 -61 -86 -124 -131 -181
c-5 -6 -12 -9 -18 -9z" />
    <glyph glyph-name="ccedilla" unicode="&#xe7;" horiz-adv-x="535" 
d="M260 -61l30 51c-168 4 -238 116 -238 262s74 263 260 263c63 0 110 -12 151 -31c6 -3 10 -9 9 -16l-15 -132c-1 -7 -6 -11 -12 -11h-30c-7 0 -12 4 -13 11l-11 98c-23 8 -49 11 -77 11c-108 0 -167 -72 -167 -193c0 -98 49 -191 168 -191c51 0 98 14 132 34
c5 5 11 3 13 -3l18 -44c2 -6 1 -13 -5 -16c-35 -22 -91 -37 -149 -41l-9 -30c61 -9 94 -32 94 -81c0 -48 -40 -81 -121 -81c-23 0 -44 2 -61 6c-6 2 -9 7 -7 13l11 33c2 6 7 10 14 8c14 -4 26 -5 41 -5c29 0 46 11 46 30c0 23 -23 38 -66 44c-7 1 -9 5 -6 11z" />
    <glyph glyph-name="cedilla" unicode="&#xb8;" horiz-adv-x="506" 
d="M209 -61l36 61h31l-12 -39c61 -9 94 -32 94 -81c0 -48 -40 -81 -121 -81c-23 0 -44 2 -61 6c-6 2 -9 7 -7 13l11 33c2 6 7 10 14 8c14 -4 26 -5 41 -5c29 0 46 11 46 30c0 23 -23 38 -66 44c-7 1 -9 5 -6 11z" />
    <glyph glyph-name="cent" unicode="&#xa2;" 
d="M302 -19v110c-147 15 -209 123 -209 260c0 132 60 239 209 259v113c0 6 4 11 11 11h54c7 0 11 -5 11 -11v-110c51 -3 90 -14 126 -30c6 -3 10 -9 9 -16l-15 -132c-1 -7 -6 -11 -12 -11h-30c-7 0 -12 4 -13 11l-11 98c-23 8 -49 11 -77 11c-108 0 -167 -72 -167 -193
c0 -98 49 -191 168 -191c51 0 98 14 132 34c5 5 11 3 13 -3l18 -44c2 -6 1 -13 -5 -16c-32 -20 -83 -35 -136 -40v-110c0 -7 -4 -11 -11 -11h-54c-7 0 -11 4 -11 11z" />
    <glyph glyph-name="circumflex" unicode="&#x2c6;" horiz-adv-x="514" 
d="M237 773h41c6 0 13 -4 18 -9c45 -57 90 -121 131 -181c4 -6 2 -9 -4 -9h-35c-6 0 -14 3 -19 8c-25 30 -83 86 -112 116c-39 -40 -78 -79 -112 -116c-4 -5 -12 -8 -19 -8h-34c-7 0 -9 3 -5 9c42 60 87 124 132 181c4 5 11 9 18 9z" />
    <glyph glyph-name="colon" unicode=":" horiz-adv-x="254" 
d="M72 460c0 31 24 55 55 55s56 -24 56 -55s-25 -55 -56 -55s-55 24 -55 55zM72 45c0 31 24 55 55 55s56 -24 56 -55s-25 -55 -56 -55s-55 24 -55 55z" />
    <glyph glyph-name="comma" unicode="," horiz-adv-x="258" 
d="M84 -134l-18 11c-6 3 -6 8 -1 12c28 22 44 44 44 73c0 35 -36 47 -36 85c0 30 20 53 52 53c40 0 59 -29 59 -67c0 -65 -31 -124 -83 -166c-5 -4 -12 -5 -17 -1z" />
    <glyph glyph-name="commaaccent" unicode="&#xf6c3;" horiz-adv-x="308" 
d="M129 -284l-15 9c-6 3 -6 8 -1 12c25 19 41 40 41 66c0 32 -34 44 -34 78c0 27 19 48 48 48c37 0 55 -27 55 -60c0 -60 -29 -114 -76 -152c-5 -4 -12 -5 -18 -1z" />
    <glyph glyph-name="copyright" unicode="&#xa9;" horiz-adv-x="881" 
d="M67 351c0 210 151 362 367 362s368 -152 368 -362s-153 -361 -368 -361s-367 151 -367 361zM133 351c0 -173 124 -298 301 -298c176 0 302 125 302 298s-125 298 -302 298c-178 0 -301 -125 -301 -298zM573 228l14 -34c2 -4 1 -9 -4 -12c-30 -19 -82 -32 -132 -32
c-131 0 -187 87 -187 199c0 111 56 200 197 200c48 0 84 -9 115 -24c4 -2 7 -7 7 -12l-12 -100c-1 -5 -4 -8 -9 -8h-23c-5 0 -9 3 -9 8l-9 74c-17 6 -37 9 -58 9c-82 0 -127 -55 -127 -147c0 -74 37 -145 128 -145c38 0 74 11 100 26c3 4 8 2 9 -2z" />
    <glyph glyph-name="currency" unicode="&#xa4;" horiz-adv-x="588" 
d="M201 444c-25 -25 -38 -59 -38 -92c0 -34 13 -68 39 -94c25 -24 59 -37 93 -37c33 0 66 13 92 37c25 26 38 61 38 95c0 33 -12 66 -37 91c-27 25 -60 38 -93 38c-34 0 -69 -13 -94 -38zM89 109l-38 37c-4 4 -4 11 0 15l79 80c-24 33 -35 72 -35 110c0 39 11 78 35 111
l-79 79c-4 4 -4 11 0 15l38 38c5 5 11 5 16 0l78 -78c33 23 71 35 111 35c38 0 77 -12 110 -36l80 79c5 5 11 5 16 0l37 -38c4 -4 4 -11 0 -15l-78 -79c23 -33 35 -72 35 -111c0 -38 -12 -78 -35 -111l78 -79c4 -4 4 -11 0 -15l-37 -37c-5 -5 -11 -5 -16 0l-80 78
c-33 -24 -72 -34 -110 -34c-40 0 -78 10 -111 34l-78 -78c-5 -5 -11 -5 -16 0z" />
    <glyph glyph-name="d" unicode="d" horiz-adv-x="593" 
d="M312 764h170c6 0 11 -5 11 -11v-601c0 -36 0 -68 6 -95l65 -5c6 -1 11 -6 11 -13v-28c0 -7 -5 -11 -11 -11h-123c-7 0 -13 4 -16 10c-5 10 -8 21 -11 31c-38 -29 -87 -51 -144 -51c-130 0 -218 78 -218 264c0 159 70 261 225 261c48 0 88 -13 121 -32v221l-86 8
c-6 1 -11 6 -11 12v29c0 6 5 11 11 11zM399 104v307c-30 19 -65 31 -104 31c-100 0 -148 -62 -148 -188c0 -143 58 -191 141 -191c44 0 83 18 111 41z" />
    <glyph glyph-name="dagger" unicode="&#x2020;" horiz-adv-x="610" 
d="M74 495l190 -7l-6 204c0 6 4 11 11 11h72c7 0 11 -5 11 -11l-7 -204l191 7c6 0 11 -5 11 -11v-69c0 -7 -5 -11 -11 -11l-191 6l7 -475c0 -7 -4 -11 -11 -11h-72c-7 0 -11 4 -11 11l7 475l-191 -6c-6 0 -11 4 -11 11v69c0 6 5 11 11 11z" />
    <glyph glyph-name="daggerdbl" unicode="&#x2021;" horiz-adv-x="610" 
d="M63 130v70c0 6 5 11 11 10l191 -5v217l-191 -6c-6 0 -11 5 -11 11v69c0 7 5 11 11 11l190 -7l-6 192c0 6 4 11 11 11h72c7 0 11 -5 11 -11l-7 -192l191 7c6 0 11 -4 11 -11v-69c0 -6 -5 -11 -11 -11l-191 6v-217l191 5c6 1 11 -4 11 -10v-70c0 -6 -5 -11 -11 -10l-191 6
l7 -191c0 -7 -4 -11 -11 -11h-72c-7 0 -11 4 -11 11l6 191l-190 -6c-6 -1 -11 4 -11 10z" />
    <glyph glyph-name="dcaron" unicode="&#x10f;" horiz-adv-x="719" 
d="M312 764h170c6 0 11 -5 11 -11v-601c0 -36 0 -68 6 -95l65 -5c6 -1 11 -6 11 -13v-28c0 -7 -5 -11 -11 -11h-123c-7 0 -13 4 -16 10c-5 10 -8 21 -11 31c-38 -29 -87 -51 -144 -51c-130 0 -218 78 -218 264c0 159 70 261 225 261c48 0 88 -13 121 -32v221l-86 8
c-6 1 -11 6 -11 12v29c0 6 5 11 11 11zM399 104v307c-30 19 -65 31 -104 31c-100 0 -148 -62 -148 -188c0 -143 58 -191 141 -191c44 0 83 18 111 41zM615 550l-15 9c-6 3 -6 8 -1 12c25 19 41 40 41 66c0 32 -34 44 -34 78c0 27 19 48 48 48c37 0 55 -27 55 -60
c0 -60 -29 -114 -76 -152c-5 -4 -12 -5 -18 -1z" />
    <glyph glyph-name="dcroat" unicode="&#x111;" horiz-adv-x="568" 
d="M312 764h170c6 0 11 -5 11 -11v-115h64c7 0 11 -4 11 -11v-37c0 -7 -4 -11 -11 -11h-64v-427c0 -36 0 -68 6 -95l65 -5c6 -1 11 -6 11 -13v-28c0 -7 -5 -11 -11 -11h-123c-7 0 -13 4 -16 10c-5 10 -8 21 -11 31c-38 -29 -87 -51 -144 -51c-130 0 -218 78 -218 264
c0 159 70 261 225 261c48 0 88 -13 121 -32v96h-113c-7 0 -11 4 -11 11v37c0 7 4 11 11 11h113v66l-86 8c-6 1 -11 6 -11 12v29c0 6 5 11 11 11zM399 104v307c-30 19 -65 31 -104 31c-100 0 -148 -62 -148 -188c0 -143 58 -191 141 -191c44 0 83 18 111 41z" />
    <glyph glyph-name="degree" unicode="&#xb0;" horiz-adv-x="466" 
d="M391 552c0 -93 -69 -159 -163 -159c-97 0 -166 65 -166 159s69 161 166 161c94 0 163 -66 163 -161zM319 552c0 57 -38 95 -91 95c-55 0 -94 -39 -94 -95s38 -94 94 -94c52 0 91 39 91 94z" />
    <glyph glyph-name="dieresis" unicode="&#xa8;" horiz-adv-x="541" 
d="M123 661c0 30 24 54 55 54c30 0 54 -24 54 -54s-24 -54 -54 -54c-31 0 -55 24 -55 54zM309 661c0 30 24 54 54 54s55 -24 55 -54s-25 -54 -55 -54s-54 24 -54 54z" />
    <glyph glyph-name="divide" unicode="&#xf7;" 
d="M247 513c0 29 23 52 53 52c29 0 52 -23 52 -52s-23 -53 -52 -53c-30 0 -53 24 -53 53zM247 95c0 28 23 52 53 52c29 0 52 -24 52 -52c0 -30 -23 -53 -52 -53c-30 0 -53 23 -53 53zM41 275v58c0 6 5 11 11 11h495c7 0 11 -5 11 -11v-58c0 -7 -4 -11 -11 -11h-495
c-6 0 -11 4 -11 11z" />
    <glyph glyph-name="dollar" unicode="$" 
d="M74 65l10 138c1 6 6 10 11 10h29c6 0 11 -4 12 -10l8 -101c43 -16 85 -24 136 -24c108 0 162 42 162 119c0 171 -356 65 -356 312c0 107 79 164 188 176v117c0 6 4 11 11 11h54c6 0 11 -5 11 -11v-115c60 -3 113 -16 150 -30c5 -3 10 -9 9 -15l-11 -138
c-1 -7 -6 -11 -11 -11h-29c-6 0 -10 4 -12 11l-10 101c-33 12 -70 19 -111 19c-91 0 -153 -37 -153 -106c0 -170 356 -69 356 -309c0 -98 -56 -169 -178 -189v-119c0 -7 -5 -11 -11 -11h-54c-7 0 -11 4 -11 11v113h-1c-76 0 -137 11 -191 36c-5 2 -9 8 -8 15z" />
    <glyph glyph-name="dotaccent" unicode="&#x2d9;" horiz-adv-x="465" 
d="M177 662c0 30 25 54 55 54c31 0 55 -24 55 -54c0 -31 -24 -55 -55 -55c-30 0 -55 24 -55 55z" />
    <glyph glyph-name="dotlessi" unicode="&#x131;" horiz-adv-x="325" 
d="M18 11v28c0 7 5 12 11 12l86 7v388l-86 7c-6 1 -11 6 -11 13v28c0 7 5 11 11 11h170c6 0 11 -4 11 -11v-436l86 -7c6 0 11 -5 11 -12v-28c0 -7 -5 -11 -11 -11h-267c-6 0 -11 4 -11 11z" />
    <glyph glyph-name="e" unicode="e" horiz-adv-x="576" 
d="M469 96l20 -44c3 -6 1 -13 -4 -16c-44 -29 -117 -46 -186 -46c-172 0 -247 115 -247 261s79 264 241 264c164 0 220 -105 220 -241v-31c-1 -6 -6 -11 -12 -11h-352c8 -107 61 -172 162 -172c50 0 101 12 144 40c6 4 11 2 14 -4zM293 446c-73 0 -133 -44 -143 -150h272
c-2 78 -34 150 -129 150z" />
    <glyph glyph-name="eacute" unicode="&#xe9;" horiz-adv-x="576" 
d="M469 96l20 -44c3 -6 1 -13 -4 -16c-44 -29 -117 -46 -186 -46c-172 0 -247 115 -247 261s79 264 241 264c164 0 220 -105 220 -241v-31c-1 -6 -6 -11 -12 -11h-352c8 -107 61 -172 162 -172c50 0 101 12 144 40c6 4 11 2 14 -4zM293 446c-73 0 -133 -44 -143 -150h272
c-2 78 -34 150 -129 150zM323 773h77c7 0 8 -4 3 -9c-62 -63 -120 -124 -173 -182c-3 -5 -11 -8 -18 -8h-34c-7 0 -9 3 -5 9c41 60 87 124 132 181c4 5 11 9 18 9z" />
    <glyph glyph-name="ecaron" unicode="&#x11b;" horiz-adv-x="576" 
d="M469 96l20 -44c3 -6 1 -13 -4 -16c-44 -29 -117 -46 -186 -46c-172 0 -247 115 -247 261s79 264 241 264c164 0 220 -105 220 -241v-31c-1 -6 -6 -11 -12 -11h-352c8 -107 61 -172 162 -172c50 0 101 12 144 40c6 4 11 2 14 -4zM293 446c-73 0 -133 -44 -143 -150h272
c-2 78 -34 150 -129 150zM316 574h-41c-7 0 -14 3 -18 9c-45 57 -90 120 -132 181c-4 5 -2 9 5 9h34c7 0 15 -4 19 -8c34 -37 73 -77 112 -117c29 30 87 87 112 116c5 5 13 9 19 9h35c6 0 8 -4 4 -9c-41 -61 -86 -124 -131 -181c-5 -6 -12 -9 -18 -9z" />
    <glyph glyph-name="ecircumflex" unicode="&#xea;" horiz-adv-x="576" 
d="M469 96l20 -44c3 -6 1 -13 -4 -16c-44 -29 -117 -46 -186 -46c-172 0 -247 115 -247 261s79 264 241 264c164 0 220 -105 220 -241v-31c-1 -6 -6 -11 -12 -11h-352c8 -107 61 -172 162 -172c50 0 101 12 144 40c6 4 11 2 14 -4zM293 446c-73 0 -133 -44 -143 -150h272
c-2 78 -34 150 -129 150zM276 773h41c6 0 13 -4 18 -9c45 -57 90 -121 131 -181c4 -6 2 -9 -4 -9h-35c-6 0 -14 3 -19 8c-25 30 -83 86 -112 116c-39 -40 -78 -79 -112 -116c-4 -5 -12 -8 -19 -8h-34c-7 0 -9 3 -5 9c42 60 87 124 132 181c4 5 11 9 18 9z" />
    <glyph glyph-name="edieresis" unicode="&#xeb;" horiz-adv-x="576" 
d="M469 96l20 -44c3 -6 1 -13 -4 -16c-44 -29 -117 -46 -186 -46c-172 0 -247 115 -247 261s79 264 241 264c164 0 220 -105 220 -241v-31c-1 -6 -6 -11 -12 -11h-352c8 -107 61 -172 162 -172c50 0 101 12 144 40c6 4 11 2 14 -4zM293 446c-73 0 -133 -44 -143 -150h272
c-2 78 -34 150 -129 150zM147 661c0 30 24 54 55 54c30 0 54 -24 54 -54s-24 -54 -54 -54c-31 0 -55 24 -55 54zM333 661c0 30 24 54 54 54s55 -24 55 -54s-25 -54 -55 -54s-54 24 -54 54z" />
    <glyph glyph-name="edotaccent" unicode="&#x117;" horiz-adv-x="576" 
d="M469 96l20 -44c3 -6 1 -13 -4 -16c-44 -29 -117 -46 -186 -46c-172 0 -247 115 -247 261s79 264 241 264c164 0 220 -105 220 -241v-31c-1 -6 -6 -11 -12 -11h-352c8 -107 61 -172 162 -172c50 0 101 12 144 40c6 4 11 2 14 -4zM293 446c-73 0 -133 -44 -143 -150h272
c-2 78 -34 150 -129 150zM240 662c0 30 25 54 55 54c31 0 55 -24 55 -54c0 -31 -24 -55 -55 -55c-30 0 -55 24 -55 55z" />
    <glyph glyph-name="egrave" unicode="&#xe8;" horiz-adv-x="576" 
d="M469 96l20 -44c3 -6 1 -13 -4 -16c-44 -29 -117 -46 -186 -46c-172 0 -247 115 -247 261s79 264 241 264c164 0 220 -105 220 -241v-31c-1 -6 -6 -11 -12 -11h-352c8 -107 61 -172 162 -172c50 0 101 12 144 40c6 4 11 2 14 -4zM293 446c-73 0 -133 -44 -143 -150h272
c-2 78 -34 150 -129 150zM170 773h78c6 0 13 -4 17 -9c45 -57 91 -121 132 -181c4 -6 2 -9 -5 -9h-34c-7 0 -14 3 -18 8c-52 58 -111 119 -173 182c-5 5 -3 9 3 9z" />
    <glyph glyph-name="eight" unicode="8" 
d="M40 179c0 97 80 151 166 184c-73 34 -134 81 -134 176c0 108 89 174 227 174c146 0 227 -68 227 -172c0 -82 -60 -131 -134 -164c87 -35 167 -84 167 -195c0 -131 -124 -192 -262 -192c-136 0 -257 50 -257 189zM464 183c0 87 -92 117 -187 152
c-74 -32 -142 -79 -142 -153c0 -86 69 -120 164 -120c101 0 165 42 165 121zM164 538c0 -73 72 -103 155 -133c71 32 116 73 116 132c0 70 -51 105 -136 105c-84 0 -135 -35 -135 -104z" />
    <glyph glyph-name="ellipsis" unicode="&#x2026;" horiz-adv-x="795" 
d="M70 48c0 32 26 58 59 58c32 0 59 -26 59 -58s-27 -58 -59 -58c-33 0 -59 26 -59 58zM339 48c0 32 26 58 58 58c33 0 59 -26 59 -58s-26 -58 -59 -58c-32 0 -58 26 -58 58zM608 48c0 32 26 58 57 58c33 0 59 -26 59 -58s-26 -58 -59 -58c-31 0 -57 26 -57 58z" />
    <glyph glyph-name="emacron" unicode="&#x113;" horiz-adv-x="576" 
d="M469 96l20 -44c3 -6 1 -13 -4 -16c-44 -29 -117 -46 -186 -46c-172 0 -247 115 -247 261s79 264 241 264c164 0 220 -105 220 -241v-31c-1 -6 -6 -11 -12 -11h-352c8 -107 61 -172 162 -172c50 0 101 12 144 40c6 4 11 2 14 -4zM293 446c-73 0 -133 -44 -143 -150h272
c-2 78 -34 150 -129 150zM169 626v54c0 7 4 11 11 11h227c6 0 11 -4 11 -11v-54c0 -7 -5 -11 -11 -11h-227c-7 0 -11 4 -11 11z" />
    <glyph glyph-name="emdash" unicode="&#x2014;" horiz-adv-x="1194" 
d="M43 255v49c0 6 5 11 11 11h1085c7 0 11 -5 11 -11v-49c0 -6 -4 -11 -11 -11h-1085c-6 0 -11 5 -11 11z" />
    <glyph glyph-name="endash" unicode="&#x2013;" horiz-adv-x="640" 
d="M43 255v49c0 6 5 11 11 11h532c6 0 11 -5 11 -11v-49c0 -6 -5 -11 -11 -11h-532c-6 0 -11 5 -11 11z" />
    <glyph glyph-name="eogonek" unicode="&#x119;" horiz-adv-x="576" 
d="M469 96l20 -44c3 -6 1 -13 -4 -16c-5 -4 -11 -7 -17 -10c-56 -32 -88 -68 -88 -102c0 -24 14 -35 42 -35c16 0 31 4 47 12v-59c-21 -8 -45 -12 -69 -12c-71 0 -105 29 -105 74c0 37 24 66 67 91c-21 -3 -42 -5 -63 -5c-172 0 -247 115 -247 261s79 264 241 264
c164 0 220 -105 220 -241v-31c-1 -6 -6 -11 -12 -11h-352c8 -107 61 -172 162 -172c50 0 101 12 144 40c6 4 11 2 14 -4zM293 446c-73 0 -133 -44 -143 -150h272c-2 78 -34 150 -129 150z" />
    <glyph glyph-name="equal" unicode="=" 
d="M41 404v58c0 6 5 11 11 11h495c7 0 11 -5 11 -11v-58c0 -7 -4 -11 -11 -11h-495c-6 0 -11 4 -11 11zM41 146v58c0 6 5 11 11 11h495c7 0 11 -5 11 -11v-58c0 -7 -4 -11 -11 -11h-495c-6 0 -11 4 -11 11z" />
    <glyph glyph-name="eth" unicode="&#xf0;" horiz-adv-x="592" 
d="M166 476l-2 43c0 7 4 14 9 18l87 57c-35 19 -73 35 -114 46c-7 2 -9 8 -7 13l23 51c3 5 9 9 16 7c60 -16 113 -38 159 -65l96 64c5 4 9 1 9 -5l1 -43c0 -7 -3 -13 -9 -17l-49 -33c99 -78 154 -191 154 -338c0 -149 -81 -284 -244 -284c-152 0 -243 98 -243 234
c0 121 87 216 220 216c54 0 112 -17 156 -48c-22 70 -63 127 -118 170l-135 -90c-6 -4 -9 -2 -9 4zM445 273c0 11 -1 21 -1 32c-42 43 -100 70 -156 70c-91 0 -141 -63 -141 -151c0 -98 56 -167 150 -167c105 0 148 103 148 216z" />
    <glyph glyph-name="exclam" unicode="!" horiz-adv-x="310" 
d="M127 45c0 31 24 55 55 55s55 -24 55 -55s-24 -55 -55 -55s-55 24 -55 55zM154 214l-22 488c0 6 5 11 11 11h78c6 0 11 -5 11 -11l-22 -488c0 -6 -5 -11 -11 -11h-34c-6 0 -11 5 -11 11z" />
    <glyph glyph-name="exclamdown" unicode="&#xa1;" horiz-adv-x="298" 
d="M74 460c0 31 24 55 55 55s55 -24 55 -55s-24 -55 -55 -55s-55 24 -55 55zM79 -197l22 488c0 6 5 11 11 11h34c6 0 11 -5 11 -11l22 -488c0 -6 -5 -11 -11 -11h-78c-6 0 -11 5 -11 11z" />
    <glyph glyph-name="f" unicode="f" horiz-adv-x="364" 
d="M18 11v28c0 7 4 12 11 12l86 7v382h-73c-6 0 -11 4 -11 11v32c0 6 5 11 11 12l73 6v44c0 126 32 229 190 229c37 0 71 -6 102 -16c6 -2 9 -8 7 -15l-13 -47c-2 -7 -8 -10 -14 -8c-24 8 -51 14 -77 14c-70 0 -101 -38 -101 -145v-52h135c7 0 11 -4 11 -11v-43
c0 -7 -4 -11 -11 -11h-135v-382l99 -7c6 -1 11 -5 11 -12v-28c0 -7 -5 -11 -11 -11h-279c-7 0 -11 4 -11 11z" />
    <glyph glyph-name="ff" unicode="&#xfb00;" horiz-adv-x="686" 
d="M18 11v28c0 7 4 12 11 12l86 7v382h-73c-6 0 -11 4 -11 11v32c0 6 5 11 11 12l73 6v44c0 126 32 229 190 229c37 0 71 -6 102 -16c6 -2 9 -8 7 -15l-13 -47c-2 -7 -8 -10 -14 -8c-24 8 -51 14 -77 14c-70 0 -101 -38 -101 -145v-52h100c7 0 11 -4 11 -11v-43
c0 -7 -4 -11 -11 -11h-100v-382l86 -7c7 -1 11 -5 11 -12v-28c0 -7 -4 -11 -11 -11h-266c-7 0 -11 4 -11 11zM340 11v28c0 7 4 12 11 12l86 7v382h-73c-6 0 -11 4 -11 11v32c0 6 5 11 11 12l73 6v44c0 126 32 229 190 229c37 0 71 -6 102 -16c6 -2 9 -8 7 -15l-13 -47
c-2 -7 -8 -10 -14 -8c-24 8 -51 14 -77 14c-70 0 -101 -38 -101 -145v-52h135c7 0 11 -4 11 -11v-43c0 -7 -4 -11 -11 -11h-135v-382l99 -7c6 -1 11 -5 11 -12v-28c0 -7 -5 -11 -11 -11h-279c-7 0 -11 4 -11 11z" />
    <glyph glyph-name="ffi" unicode="&#xfb03;" horiz-adv-x="970" 
d="M18 11v28c0 7 4 12 11 12l86 7v382h-73c-6 0 -11 4 -11 11v32c0 6 5 11 11 12l73 6v44c0 126 32 229 190 229c37 0 71 -6 102 -16c6 -2 9 -8 7 -15l-13 -47c-2 -7 -8 -10 -14 -8c-24 8 -51 14 -77 14c-70 0 -101 -38 -101 -145v-52h100c7 0 11 -4 11 -11v-43
c0 -7 -4 -11 -11 -11h-100v-382l86 -7c7 -1 11 -5 11 -12v-28c0 -7 -4 -11 -11 -11h-266c-7 0 -11 4 -11 11zM353 451v32c0 6 5 11 11 12l73 6v44c0 126 31 229 180 229c34 0 68 -6 96 -16c6 -2 9 -8 7 -14l-15 -49c-2 -6 -8 -9 -13 -7c-22 8 -46 14 -70 14
c-64 0 -91 -38 -91 -146v-51h96c7 0 11 -4 11 -11v-43c0 -7 -4 -11 -11 -11h-96v-382l86 -7c6 0 11 -5 11 -12v-28c0 -7 -5 -11 -11 -11h-266c-7 0 -11 4 -11 11v28c0 7 4 12 11 12l86 7v382h-73c-6 0 -11 4 -11 11zM663 11v28c0 7 4 12 11 12l86 7v388l-82 7
c-6 1 -11 6 -11 13v28c0 7 5 11 11 11h165c6 0 11 -4 11 -11v-436l86 -7c6 0 11 -5 11 -12v-28c0 -7 -5 -11 -11 -11h-266c-7 0 -11 4 -11 11zM744 718c0 31 25 56 56 56s56 -25 56 -56s-25 -56 -56 -56s-56 25 -56 56z" />
    <glyph glyph-name="ffl" unicode="&#xfb04;" horiz-adv-x="970" 
d="M18 11v28c0 7 4 12 11 12l86 7v382h-73c-6 0 -11 4 -11 11v32c0 6 5 11 11 12l73 6v44c0 126 32 229 190 229c37 0 71 -6 102 -16c6 -2 9 -8 7 -15l-13 -47c-2 -7 -8 -10 -14 -8c-24 8 -51 14 -77 14c-70 0 -101 -38 -101 -145v-52h100c7 0 11 -4 11 -11v-43
c0 -7 -4 -11 -11 -11h-100v-382l86 -7c7 -1 11 -5 11 -12v-28c0 -7 -4 -11 -11 -11h-266c-7 0 -11 4 -11 11zM854 753v-695l86 -7c6 0 11 -5 11 -12v-28c0 -7 -5 -11 -11 -11h-266c-7 0 -11 4 -11 11v28c0 7 4 12 11 12l86 7v623c-34 12 -74 22 -117 22
c-78 0 -112 -38 -112 -147v-51h135c7 0 11 -4 11 -11v-43c0 -7 -4 -11 -11 -11h-135v-382l86 -7c6 0 11 -5 11 -12v-28c0 -7 -5 -11 -11 -11h-266c-7 0 -11 4 -11 11v28c0 7 4 12 11 12l86 7v382h-73c-6 0 -11 4 -11 11v32c0 6 5 11 11 12l73 6v44c0 126 33 229 205 229
c39 0 83 -7 117 -19l84 8c6 1 11 -4 11 -10z" />
    <glyph glyph-name="five" unicode="5" 
d="M53 48l13 137c1 6 5 11 12 11h31c7 0 12 -5 12 -11l13 -96c37 -17 83 -26 128 -26c111 0 174 60 174 152c0 94 -59 144 -155 144c-51 0 -92 -13 -130 -35c-7 -3 -15 -4 -21 -3l-32 9c-6 1 -11 7 -10 13l23 349c1 6 6 11 12 11h398c6 0 11 -5 10 -11l-8 -160
c0 -7 -4 -11 -11 -11h-32c-7 0 -12 4 -13 11l-10 99h-265l-14 -228c37 15 80 26 129 26c138 0 226 -75 226 -211c0 -131 -95 -228 -272 -228c-74 0 -149 18 -199 42c-6 3 -10 9 -9 16z" />
    <glyph glyph-name="florin" unicode="&#x192;" horiz-adv-x="400" 
d="M1 -187l-26 48c-3 5 -1 12 5 14c70 32 112 72 122 157l46 402h-68c-6 0 -11 5 -10 11l6 49c1 7 5 11 12 11h68l5 40c14 126 59 229 217 229c37 0 71 -6 99 -16c6 -2 9 -8 6 -14l-23 -60c-3 -6 -8 -9 -14 -7c-23 8 -48 14 -74 14c-70 0 -104 -38 -116 -145l-5 -41h135
c6 0 11 -4 10 -11l-6 -49c-1 -6 -5 -11 -12 -11h-135l-48 -408c-15 -126 -78 -176 -179 -219c-6 -2 -12 -1 -15 6z" />
    <glyph glyph-name="four" unicode="4" 
d="M242 11v28c0 7 5 12 11 12l91 8v134h-295c-7 0 -11 4 -11 11v51c0 7 2 14 6 20l308 419c4 6 11 9 18 9h58c7 0 11 -5 11 -11v-426h113c6 0 11 -4 11 -11v-51c0 -7 -5 -11 -11 -11h-113v-134l91 -8c7 0 11 -5 11 -12v-28c0 -7 -4 -11 -11 -11h-277c-6 0 -11 4 -11 11z
M124 266h220v301z" />
    <glyph glyph-name="fraction" unicode="&#x2044;" horiz-adv-x="132" 
d="M-150 0l372 703c4 6 10 10 17 10h57c7 0 9 -4 6 -10l-372 -703c-4 -6 -10 -10 -17 -10h-57c-7 0 -9 4 -6 10z" />
    <glyph glyph-name="g" unicode="g" horiz-adv-x="541" 
d="M513 510v-54c0 -7 -4 -11 -11 -10l-94 9c40 -30 61 -75 61 -135c0 -110 -86 -183 -211 -183c-15 0 -29 1 -42 2c-10 -13 -17 -28 -17 -42c0 -85 334 11 334 -191c0 -120 -122 -174 -275 -174c-148 0 -225 59 -225 147c0 61 46 105 112 123c-22 14 -35 35 -35 66
c0 33 21 59 59 81c-81 26 -123 91 -123 176c0 108 61 190 212 190c25 0 47 -3 66 -9l178 14c7 1 11 -4 11 -10zM131 327c0 -79 52 -124 127 -124s126 40 126 124c0 78 -49 124 -127 124c-93 0 -126 -54 -126 -124zM439 -107c0 83 -153 63 -251 91c-38 -18 -69 -46 -69 -89
c0 -55 43 -97 149 -97c109 0 171 33 171 95z" />
    <glyph glyph-name="gbreve" unicode="&#x11f;" horiz-adv-x="541" 
d="M513 510v-54c0 -7 -4 -11 -11 -10l-94 9c40 -30 61 -75 61 -135c0 -110 -86 -183 -211 -183c-15 0 -29 1 -42 2c-10 -13 -17 -28 -17 -42c0 -85 334 11 334 -191c0 -120 -122 -174 -275 -174c-148 0 -225 59 -225 147c0 61 46 105 112 123c-22 14 -35 35 -35 66
c0 33 21 59 59 81c-81 26 -123 91 -123 176c0 108 61 190 212 190c25 0 47 -3 66 -9l178 14c7 1 11 -4 11 -10zM131 327c0 -79 52 -124 127 -124s126 40 126 124c0 78 -49 124 -127 124c-93 0 -126 -54 -126 -124zM439 -107c0 83 -153 63 -251 91c-38 -18 -69 -46 -69 -89
c0 -55 43 -97 149 -97c109 0 171 33 171 95zM100 730l23 17c5 4 10 2 13 -4c27 -62 67 -85 120 -85s93 23 120 85c3 6 8 8 13 4l23 -17c5 -4 8 -11 5 -17c-28 -91 -91 -126 -161 -126s-133 35 -162 126c-2 6 1 13 6 17z" />
    <glyph glyph-name="germandbls" unicode="&#xdf;" horiz-adv-x="650" 
d="M18 11v28c0 7 5 12 11 12l86 7v441c0 172 66 265 217 265c136 0 207 -85 199 -228c-1 -7 -5 -12 -12 -14c-70 -12 -115 -42 -115 -98c0 -111 206 -83 206 -254c0 -118 -88 -180 -214 -180c-43 0 -89 7 -123 21c-6 2 -9 8 -7 15l12 51c2 6 7 9 13 6c32 -13 71 -22 103 -22
c84 0 122 39 122 102c0 117 -204 97 -204 250c0 77 55 118 130 142c2 79 -37 137 -111 137c-82 0 -121 -57 -121 -187v-494c0 -7 -5 -11 -11 -11h-170c-6 0 -11 4 -11 11z" />
    <glyph glyph-name="grave" unicode="`" horiz-adv-x="506" 
d="M140 773h78c6 0 13 -4 17 -9c45 -57 91 -121 132 -181c4 -6 2 -9 -5 -9h-34c-7 0 -14 3 -18 8c-52 58 -111 119 -173 182c-5 5 -3 9 3 9z" />
    <glyph glyph-name="greater" unicode="&#x3e;" 
d="M558 322v-43c0 -6 -4 -13 -10 -15l-497 -251c-5 -2 -10 0 -10 7v76c0 6 5 13 10 15l385 189l-385 190c-5 2 -10 9 -10 15v76c0 7 5 9 10 7l497 -251c6 -2 10 -9 10 -15z" />
    <glyph glyph-name="greaterequal" unicode="&#x2265;" 
d="M41 11v58c0 6 5 11 11 11h495c7 0 11 -5 11 -11v-58c0 -7 -4 -11 -11 -11h-495c-6 0 -11 4 -11 11zM558 423v-42c0 -6 -4 -13 -10 -15l-497 -245c-5 -2 -10 0 -10 7v74c0 6 5 13 10 15l385 185l-385 185c-5 2 -10 9 -10 15v75c0 6 5 8 10 6l497 -245c6 -2 10 -9 10 -15z
" />
    <glyph glyph-name="guillemotleft" unicode="&#xab;" horiz-adv-x="520" 
d="M49 261l162 185c4 6 11 7 16 2l48 -34c5 -4 5 -10 1 -15l-127 -146l127 -146c4 -6 4 -11 -1 -16l-48 -34c-5 -4 -12 -3 -16 2l-162 185c-5 5 -5 12 0 17zM253 261l162 185c4 6 11 7 16 2l48 -34c5 -4 5 -10 1 -15l-127 -146l127 -146c4 -6 4 -11 -1 -16l-48 -34
c-5 -4 -12 -3 -16 2l-162 185c-5 5 -5 12 0 17z" />
    <glyph glyph-name="guillemotright" unicode="&#xbb;" horiz-adv-x="520" 
d="M104 446l163 -185c4 -5 4 -12 0 -17l-163 -185c-4 -5 -10 -6 -16 -2l-47 34c-6 5 -6 10 -2 16l128 146l-128 146c-4 5 -4 11 2 15l47 34c6 5 12 4 16 -2zM308 446l163 -185c4 -5 4 -12 0 -17l-163 -185c-4 -5 -10 -6 -16 -2l-47 34c-6 5 -6 10 -2 16l128 146l-128 146
c-4 5 -4 11 2 15l47 34c6 5 12 4 16 -2z" />
    <glyph glyph-name="guilsinglleft" unicode="&#x2039;" horiz-adv-x="316" 
d="M49 261l162 185c4 6 11 7 16 2l48 -34c5 -4 5 -10 1 -15l-127 -146l127 -146c4 -6 4 -11 -1 -16l-48 -34c-5 -4 -12 -3 -16 2l-162 185c-5 5 -5 12 0 17z" />
    <glyph glyph-name="guilsinglright" unicode="&#x203a;" horiz-adv-x="316" 
d="M104 446l163 -185c4 -5 4 -12 0 -17l-163 -185c-4 -5 -10 -6 -16 -2l-47 34c-6 5 -6 10 -2 16l128 146l-128 146c-4 5 -4 11 2 15l47 34c6 5 12 4 16 -2z" />
    <glyph glyph-name="h" unicode="h" horiz-adv-x="680" 
d="M18 11v28c0 7 5 12 11 12l86 7v648l-86 6c-6 1 -11 6 -11 12v29c0 6 5 11 11 11h170c6 0 11 -5 11 -11v-298c50 33 110 60 179 60c131 0 176 -80 176 -229v-228l86 -7c6 0 11 -5 11 -12v-28c0 -7 -5 -11 -11 -11h-170c-6 0 -11 4 -11 11v264c0 115 -31 160 -110 160
c-55 0 -110 -22 -150 -50v-327l86 -7c6 0 11 -5 11 -12v-28c0 -7 -5 -11 -11 -11h-267c-6 0 -11 4 -11 11z" />
    <glyph glyph-name="hungarumlaut" unicode="&#x2dd;" horiz-adv-x="516" 
d="M181 773h73c6 0 8 -4 4 -9c-46 -63 -90 -124 -127 -181c-3 -6 -10 -9 -17 -9h-34c-7 0 -9 4 -7 10c28 60 60 122 92 179c3 6 10 10 16 10zM360 773h73c6 0 8 -4 4 -9c-46 -63 -90 -124 -127 -181c-3 -6 -10 -9 -17 -9h-34c-7 0 -9 4 -7 10c28 60 60 122 92 179
c3 6 10 10 16 10z" />
    <glyph glyph-name="hyphen" unicode="-" horiz-adv-x="511" 
d="M85 257v52c0 6 5 11 11 11h319c7 0 11 -5 11 -11v-52c0 -6 -4 -11 -11 -11h-319c-6 0 -11 5 -11 11z" />
    <glyph glyph-name="i" unicode="i" horiz-adv-x="325" 
d="M18 11v28c0 7 5 12 11 12l86 7v388l-86 7c-6 1 -11 6 -11 13v28c0 7 5 11 11 11h170c6 0 11 -4 11 -11v-436l86 -7c6 0 11 -5 11 -12v-28c0 -7 -5 -11 -11 -11h-267c-6 0 -11 4 -11 11zM107 718c0 31 25 56 56 56s56 -25 56 -56s-25 -56 -56 -56s-56 25 -56 56z" />
    <glyph glyph-name="iacute" unicode="&#xed;" horiz-adv-x="325" 
d="M153 773h77c7 0 8 -4 3 -9c-62 -63 -120 -124 -173 -182c-3 -5 -11 -8 -18 -8h-34c-7 0 -9 3 -5 9c41 60 87 124 132 181c4 5 11 9 18 9zM18 11v28c0 7 5 12 11 12l86 7v388l-86 7c-6 1 -11 6 -11 13v28c0 7 5 11 11 11h170c6 0 11 -4 11 -11v-436l86 -7
c6 0 11 -5 11 -12v-28c0 -7 -5 -11 -11 -11h-267c-6 0 -11 4 -11 11z" />
    <glyph glyph-name="icircumflex" unicode="&#xee;" horiz-adv-x="325" 
d="M18 11v28c0 7 5 12 11 12l86 7v388l-86 7c-6 1 -11 6 -11 13v28c0 7 5 11 11 11h170c6 0 11 -4 11 -11v-436l86 -7c6 0 11 -5 11 -12v-28c0 -7 -5 -11 -11 -11h-267c-6 0 -11 4 -11 11zM142 773h41c6 0 13 -4 18 -9c45 -57 90 -121 131 -181c4 -6 2 -9 -4 -9h-35
c-6 0 -14 3 -19 8c-25 30 -83 86 -112 116c-39 -40 -78 -79 -112 -116c-4 -5 -12 -8 -19 -8h-34c-7 0 -9 3 -5 9c42 60 87 124 132 181c4 5 11 9 18 9z" />
    <glyph glyph-name="idieresis" unicode="&#xef;" horiz-adv-x="325" 
d="M15 661c0 30 24 54 55 54c30 0 54 -24 54 -54s-24 -54 -54 -54c-31 0 -55 24 -55 54zM201 661c0 30 24 54 54 54s55 -24 55 -54s-25 -54 -55 -54s-54 24 -54 54zM18 11v28c0 7 5 12 11 12l86 7v388l-86 7c-6 1 -11 6 -11 13v28c0 7 5 11 11 11h170c6 0 11 -4 11 -11v-436
l86 -7c6 0 11 -5 11 -12v-28c0 -7 -5 -11 -11 -11h-267c-6 0 -11 4 -11 11z" />
    <glyph glyph-name="igrave" unicode="&#xec;" horiz-adv-x="325" 
d="M4 773h78c6 0 13 -4 17 -9c45 -57 91 -121 132 -181c4 -6 2 -9 -5 -9h-34c-7 0 -14 3 -18 8c-52 58 -111 119 -173 182c-5 5 -3 9 3 9zM18 11v28c0 7 5 12 11 12l86 7v388l-86 7c-6 1 -11 6 -11 13v28c0 7 5 11 11 11h170c6 0 11 -4 11 -11v-436l86 -7c6 0 11 -5 11 -12
v-28c0 -7 -5 -11 -11 -11h-267c-6 0 -11 4 -11 11z" />
    <glyph glyph-name="imacron" unicode="&#x12b;" horiz-adv-x="325" 
d="M-5 626v54c0 7 4 11 11 11h227c6 0 11 -4 11 -11v-54c0 -7 -5 -11 -11 -11h-227c-7 0 -11 4 -11 11zM18 11v28c0 7 5 12 11 12l86 7v388l-86 7c-6 1 -11 6 -11 13v28c0 7 5 11 11 11h170c6 0 11 -4 11 -11v-436l86 -7c6 0 11 -5 11 -12v-28c0 -7 -5 -11 -11 -11h-267
c-6 0 -11 4 -11 11z" />
    <glyph glyph-name="infinity" unicode="&#x221e;" horiz-adv-x="819" 
d="M410 376c51 54 113 114 194 114c96 0 165 -66 165 -164s-66 -162 -161 -162c-84 0 -145 60 -198 112c-53 -52 -116 -112 -200 -112c-94 0 -161 64 -161 162s71 164 167 164c80 0 141 -60 194 -114zM214 236c49 0 99 43 145 90c-49 50 -96 92 -144 92
c-52 0 -90 -39 -90 -92c0 -52 38 -90 89 -90zM605 236c51 0 88 38 88 90c0 53 -38 92 -89 92c-49 0 -94 -42 -145 -92c47 -47 96 -90 146 -90z" />
    <glyph glyph-name="integral" unicode="&#x222b;" horiz-adv-x="363" 
d="M17 -132v54c0 7 5 9 10 8c11 -3 23 -5 36 -5c80 0 80 112 80 165c0 161 -10 305 -10 476c0 110 21 241 151 241c17 0 37 -2 52 -8c5 -3 9 -9 9 -16v-54c0 -7 -4 -9 -10 -8c-10 3 -22 5 -35 5c-80 0 -81 -112 -81 -165c0 -161 11 -305 11 -476c0 -110 -21 -241 -151 -241
c-17 0 -37 2 -52 8c-5 3 -10 9 -10 16z" />
    <glyph glyph-name="iogonek" unicode="&#x12f;" horiz-adv-x="325" 
d="M223 -193c-20 -9 -43 -14 -66 -14c-70 0 -111 27 -111 82s50 99 142 125h-159c-6 0 -11 4 -11 11v28c0 7 5 12 11 12l86 7v388l-86 7c-6 1 -11 6 -11 13v28c0 7 5 11 11 11h170c6 0 11 -4 11 -11v-436l86 -7c6 0 11 -5 11 -12v-28c0 -7 -5 -11 -11 -11h-47
c-82 -26 -120 -66 -120 -106c0 -28 17 -41 49 -41c15 0 28 3 44 8c6 2 10 -1 10 -7v-31c0 -7 -3 -14 -9 -16zM107 718c0 31 25 56 56 56s56 -25 56 -56s-25 -56 -56 -56s-56 25 -56 56z" />
    <glyph glyph-name="j" unicode="j" horiz-adv-x="317" 
d="M29 505h169c7 0 11 -4 11 -11v-476c0 -181 -85 -265 -228 -269c-6 0 -11 4 -12 11l-6 49c-1 6 3 11 9 11c86 3 143 49 143 186v440l-86 7c-7 1 -11 6 -11 13v28c0 7 4 11 11 11zM106 718c0 31 25 56 56 56c32 0 56 -25 56 -56s-24 -56 -56 -56c-31 0 -56 25 -56 56z" />
    <glyph glyph-name="k" unicode="k" horiz-adv-x="626" 
d="M599 494v-28c0 -7 -4 -12 -11 -13l-60 -5c-78 -61 -153 -121 -222 -177c74 -67 174 -160 238 -215l58 -5c6 0 11 -5 11 -12v-28c0 -7 -5 -11 -11 -11h-118c-7 0 -14 3 -19 8c-61 62 -168 163 -255 238v-188l86 -7c6 0 11 -5 11 -12v-28c0 -7 -5 -11 -11 -11h-267
c-6 0 -11 4 -11 11v28c0 7 5 12 11 12l86 7v646l-86 8c-6 1 -11 6 -11 12v29c0 6 5 11 11 11h170c6 0 11 -5 11 -11v-476c73 55 147 113 210 170l-62 7c-6 0 -11 5 -11 12v28c0 7 5 11 11 11h230c7 0 11 -4 11 -11z" />
    <glyph glyph-name="l" unicode="l" horiz-adv-x="325" 
d="M18 11v28c0 7 5 12 11 12l86 7v646l-86 8c-6 1 -11 6 -11 12v29c0 6 5 11 11 11h170c6 0 11 -5 11 -11v-695l86 -7c6 0 11 -5 11 -12v-28c0 -7 -5 -11 -11 -11h-267c-6 0 -11 4 -11 11z" />
    <glyph glyph-name="lacute" unicode="&#x13a;" horiz-adv-x="325" 
d="M18 11v28c0 7 5 12 11 12l86 7v646l-86 8c-6 1 -11 6 -11 12v29c0 6 5 11 11 11h170c6 0 11 -5 11 -11v-695l86 -7c6 0 11 -5 11 -12v-28c0 -7 -5 -11 -11 -11h-267c-6 0 -11 4 -11 11zM154 1026h77c7 0 8 -4 3 -9c-62 -63 -120 -124 -173 -182c-3 -5 -11 -8 -18 -8h-34
c-7 0 -9 3 -5 9c41 60 87 124 132 181c4 5 11 9 18 9z" />
    <glyph glyph-name="lcaron" unicode="&#x13e;" horiz-adv-x="430" 
d="M18 11v28c0 7 5 12 11 12l86 7v646l-86 8c-6 1 -11 6 -11 12v29c0 6 5 11 11 11h170c6 0 11 -5 11 -11v-695l86 -7c6 0 11 -5 11 -12v-28c0 -7 -5 -11 -11 -11h-267c-6 0 -11 4 -11 11zM326 550l-15 9c-6 3 -6 8 -1 12c25 19 41 40 41 66c0 32 -34 44 -34 78
c0 27 19 48 48 48c37 0 55 -27 55 -60c0 -60 -29 -114 -76 -152c-5 -4 -12 -5 -18 -1z" />
    <glyph glyph-name="less" unicode="&#x3c;" 
d="M42 279v43c0 6 4 13 10 15l497 251c5 2 10 0 10 -7v-76c0 -6 -5 -13 -10 -15l-385 -190l385 -189c5 -2 10 -9 10 -15v-76c0 -7 -5 -9 -10 -7l-497 251c-6 2 -10 9 -10 15z" />
    <glyph glyph-name="lessequal" unicode="&#x2264;" 
d="M41 11v58c0 6 5 11 11 11h495c7 0 11 -5 11 -11v-58c0 -7 -4 -11 -11 -11h-495c-6 0 -11 4 -11 11zM42 381v42c0 6 4 13 10 15l497 245c5 2 10 0 10 -6v-75c0 -6 -5 -13 -10 -15l-385 -185l385 -185c5 -2 10 -9 10 -15v-74c0 -7 -5 -9 -10 -7l-497 245c-6 2 -10 9 -10 15
z" />
    <glyph glyph-name="logicalnot" unicode="&#xac;" horiz-adv-x="622" 
d="M56 326v56c0 7 4 11 11 11h487c7 0 11 -4 11 -11v-246c0 -6 -4 -11 -11 -11h-55c-6 0 -11 5 -11 11v179h-421c-7 0 -11 4 -11 11z" />
    <glyph glyph-name="lozenge" unicode="&#x25ca;" horiz-adv-x="631" 
d="M60 330v26c0 7 2 15 5 20l217 349c4 5 10 9 17 9h33c6 0 13 -4 16 -9l218 -349c3 -5 5 -13 5 -20v-26c0 -7 -2 -15 -5 -20l-218 -349c-3 -6 -10 -9 -16 -9h-33c-7 0 -13 3 -17 9l-217 349c-3 5 -5 13 -5 20zM487 343l-172 284l-172 -284l172 -285z" />
    <glyph glyph-name="lslash" unicode="&#x142;" horiz-adv-x="325" 
d="M18 11v28c0 7 5 12 11 12l86 7v249l-88 -60c-5 -4 -9 -2 -9 4v45c0 6 4 13 9 17l88 60v331l-86 8c-6 1 -11 6 -11 12v29c0 6 5 11 11 11h170c6 0 11 -5 11 -11v-314l88 61c5 4 9 2 9 -5v-44c0 -7 -4 -13 -9 -18l-88 -61v-314l86 -7c6 0 11 -5 11 -12v-28
c0 -7 -5 -11 -11 -11h-267c-6 0 -11 4 -11 11z" />
    <glyph glyph-name="m" unicode="m" horiz-adv-x="999" 
d="M18 11v28c0 7 5 12 11 12l86 7v295c0 36 -1 68 -7 94l-79 7c-6 0 -11 5 -11 12v28c0 7 5 11 11 11h138c7 0 13 -4 16 -10c6 -16 11 -32 15 -48c49 36 110 68 181 68s116 -25 141 -74c52 37 119 74 196 74c124 0 167 -76 167 -225v-232l86 -7c7 0 11 -5 11 -12v-28
c0 -7 -4 -11 -11 -11h-169c-7 0 -11 4 -11 11v271c0 115 -29 155 -102 155c-54 0 -107 -24 -148 -52c5 -26 7 -57 7 -91v-236l86 -7c7 0 11 -5 11 -12v-28c0 -7 -4 -11 -11 -11h-169c-6 0 -11 4 -11 11v272c0 114 -29 154 -103 154c-51 0 -103 -22 -139 -49v-330l86 -7
c6 0 11 -5 11 -12v-28c0 -7 -5 -11 -11 -11h-267c-6 0 -11 4 -11 11z" />
    <glyph glyph-name="macron" unicode="&#xaf;" horiz-adv-x="508" 
d="M130 626v54c0 7 4 11 11 11h227c6 0 11 -4 11 -11v-54c0 -7 -5 -11 -11 -11h-227c-7 0 -11 4 -11 11z" />
    <glyph glyph-name="minus" unicode="&#x2212;" 
d="M41 275v58c0 6 5 11 11 11h495c7 0 11 -5 11 -11v-58c0 -7 -4 -11 -11 -11h-495c-6 0 -11 4 -11 11z" />
    <glyph glyph-name="mu" unicode="&#xb5;" horiz-adv-x="580" 
d="M73 -221v715c0 7 5 11 11 11h73c6 0 11 -4 11 -11v-262c0 -114 28 -159 107 -159c60 0 112 24 153 56v365c0 7 5 11 11 11h73c6 0 11 -4 11 -11v-344c0 -49 6 -80 31 -111c4 -5 4 -11 -2 -14l-43 -27c-6 -3 -14 -4 -20 -2c-19 10 -38 31 -49 63
c-53 -36 -117 -69 -192 -69c-34 0 -60 6 -81 16v-227c0 -6 -5 -11 -11 -11h-72c-6 0 -11 5 -11 11z" />
    <glyph glyph-name="multiply" unicode="&#xd7;" 
d="M539 106l-41 -41c-5 -4 -11 -4 -16 0l-182 182l-182 -182c-5 -4 -11 -4 -16 0l-41 41c-4 5 -4 11 0 16l182 182l-182 182c-4 5 -4 11 0 16l41 41c5 4 11 4 16 0l182 -182l182 182c5 4 11 4 16 0l41 -41c4 -5 4 -11 0 -16l-182 -182l182 -182c4 -5 4 -11 0 -16z" />
    <glyph glyph-name="n" unicode="n" horiz-adv-x="680" 
d="M18 11v28c0 7 5 12 11 12l86 7v295c0 36 -1 68 -7 94l-79 7c-6 0 -11 5 -11 12v28c0 7 5 11 11 11h138c7 0 13 -4 16 -10c6 -16 12 -32 15 -48c53 36 117 68 191 68c131 0 176 -80 176 -229v-228l86 -7c6 0 11 -5 11 -12v-28c0 -7 -5 -11 -11 -11h-170c-6 0 -11 4 -11 11
v267c0 114 -31 159 -110 159c-55 0 -110 -22 -150 -50v-329l86 -7c6 0 11 -5 11 -12v-28c0 -7 -5 -11 -11 -11h-267c-6 0 -11 4 -11 11z" />
    <glyph glyph-name="nacute" unicode="&#x144;" horiz-adv-x="680" 
d="M18 11v28c0 7 5 12 11 12l86 7v295c0 36 -1 68 -7 94l-79 7c-6 0 -11 5 -11 12v28c0 7 5 11 11 11h138c7 0 13 -4 16 -10c6 -16 12 -32 15 -48c53 36 117 68 191 68c131 0 176 -80 176 -229v-228l86 -7c6 0 11 -5 11 -12v-28c0 -7 -5 -11 -11 -11h-170c-6 0 -11 4 -11 11
v267c0 114 -31 159 -110 159c-55 0 -110 -22 -150 -50v-329l86 -7c6 0 11 -5 11 -12v-28c0 -7 -5 -11 -11 -11h-267c-6 0 -11 4 -11 11zM349 773h77c7 0 8 -4 3 -9c-62 -63 -120 -124 -173 -182c-3 -5 -11 -8 -18 -8h-34c-7 0 -9 3 -5 9c41 60 87 124 132 181c4 5 11 9 18 9
z" />
    <glyph glyph-name="nbspace" unicode="&#xa0;" 
 />
    <glyph glyph-name="ncaron" unicode="&#x148;" horiz-adv-x="680" 
d="M18 11v28c0 7 5 12 11 12l86 7v295c0 36 -1 68 -7 94l-79 7c-6 0 -11 5 -11 12v28c0 7 5 11 11 11h138c7 0 13 -4 16 -10c6 -16 12 -32 15 -48c53 36 117 68 191 68c131 0 176 -80 176 -229v-228l86 -7c6 0 11 -5 11 -12v-28c0 -7 -5 -11 -11 -11h-170c-6 0 -11 4 -11 11
v267c0 114 -31 159 -110 159c-55 0 -110 -22 -150 -50v-329l86 -7c6 0 11 -5 11 -12v-28c0 -7 -5 -11 -11 -11h-267c-6 0 -11 4 -11 11zM365 574h-41c-7 0 -14 3 -18 9c-45 57 -90 120 -132 181c-4 5 -2 9 5 9h34c7 0 15 -4 19 -8c34 -37 73 -77 112 -117
c29 30 87 87 112 116c5 5 13 9 19 9h35c6 0 8 -4 4 -9c-41 -61 -86 -124 -131 -181c-5 -6 -12 -9 -18 -9z" />
    <glyph glyph-name="nine" unicode="9" 
d="M110 2l-4 56c0 6 5 11 11 10c175 -7 297 106 326 261c-47 -37 -105 -61 -173 -61c-141 0 -218 87 -218 211c0 152 107 234 238 234c173 0 256 -126 256 -298c0 -229 -154 -432 -424 -424c-7 0 -11 4 -12 11zM291 340c58 0 114 27 159 69c-2 155 -64 232 -162 232
c-81 0 -140 -54 -140 -158c0 -80 48 -143 143 -143z" />
    <glyph glyph-name="notequal" unicode="&#x2260;" 
d="M41 404v58c0 6 5 11 11 11h313l52 82c4 6 10 9 17 9h61c7 0 9 -3 5 -9l-52 -82h99c7 0 11 -5 11 -11v-58c0 -7 -4 -11 -11 -11h-149l-113 -178h262c7 0 11 -5 11 -11v-58c0 -7 -4 -11 -11 -11h-312l-52 -82c-4 -6 -11 -9 -17 -9h-62c-6 0 -8 3 -4 9l52 82h-100
c-6 0 -11 4 -11 11v58c0 6 5 11 11 11h150l113 178h-263c-6 0 -11 4 -11 11z" />
    <glyph glyph-name="ntilde" unicode="&#xf1;" horiz-adv-x="680" 
d="M18 11v28c0 7 5 12 11 12l86 7v295c0 36 -1 68 -7 94l-79 7c-6 0 -11 5 -11 12v28c0 7 5 11 11 11h138c7 0 13 -4 16 -10c6 -16 12 -32 15 -48c53 36 117 68 191 68c131 0 176 -80 176 -229v-228l86 -7c6 0 11 -5 11 -12v-28c0 -7 -5 -11 -11 -11h-170c-6 0 -11 4 -11 11
v267c0 114 -31 159 -110 159c-55 0 -110 -22 -150 -50v-329l86 -7c6 0 11 -5 11 -12v-28c0 -7 -5 -11 -11 -11h-267c-6 0 -11 4 -11 11zM218 615l-17 13c-6 4 -8 11 -6 17c19 61 53 89 92 89c29 0 54 -16 77 -32c20 -15 41 -30 61 -30c21 0 36 15 45 38c3 6 7 7 12 4l17 -13
c6 -5 8 -11 6 -18c-19 -60 -53 -89 -92 -89c-29 0 -53 17 -76 33c-20 14 -42 30 -62 30s-35 -15 -45 -39c-2 -6 -7 -7 -12 -3z" />
    <glyph glyph-name="numbersign" unicode="#" horiz-adv-x="696" 
d="M201 0h-55c-7 0 -10 4 -9 11l29 187h-116c-6 0 -11 4 -11 11v48c0 7 5 11 11 11h127l26 166h-117c-7 0 -11 5 -11 11v49c0 7 4 11 11 11h128l30 187c1 6 7 11 13 11h56c6 0 10 -5 9 -11l-30 -187h161l30 187c1 6 7 11 13 11h56c7 0 10 -5 9 -11l-30 -187h116
c7 0 11 -4 11 -11v-49c0 -6 -4 -11 -11 -11h-127l-26 -166h118c6 0 11 -4 11 -11v-48c0 -7 -5 -11 -11 -11h-129l-29 -187c-1 -7 -7 -11 -13 -11h-56c-7 0 -10 4 -9 11l29 187h-162l-29 -187c-1 -7 -6 -11 -13 -11zM281 434l-27 -166h162l26 166h-161z" />
    <glyph glyph-name="o" unicode="o" horiz-adv-x="593" 
d="M541 252c0 -148 -68 -262 -245 -262s-244 114 -244 262s67 263 244 263s245 -115 245 -263zM147 252c0 -117 42 -194 149 -194s149 77 149 194c0 118 -42 195 -149 195s-149 -77 -149 -195z" />
    <glyph glyph-name="oacute" unicode="&#xf3;" horiz-adv-x="593" 
d="M541 252c0 -148 -68 -262 -245 -262s-244 114 -244 262s67 263 244 263s245 -115 245 -263zM147 252c0 -117 42 -194 149 -194s149 77 149 194c0 118 -42 195 -149 195s-149 -77 -149 -195zM326 773h77c7 0 8 -4 3 -9c-62 -63 -120 -124 -173 -182c-3 -5 -11 -8 -18 -8
h-34c-7 0 -9 3 -5 9c41 60 87 124 132 181c4 5 11 9 18 9z" />
    <glyph glyph-name="ocircumflex" unicode="&#xf4;" horiz-adv-x="593" 
d="M541 252c0 -148 -68 -262 -245 -262s-244 114 -244 262s67 263 244 263s245 -115 245 -263zM147 252c0 -117 42 -194 149 -194s149 77 149 194c0 118 -42 195 -149 195s-149 -77 -149 -195zM276 773h41c6 0 13 -4 18 -9c45 -57 90 -121 131 -181c4 -6 2 -9 -4 -9h-35
c-6 0 -14 3 -19 8c-25 30 -83 86 -112 116c-39 -40 -78 -79 -112 -116c-4 -5 -12 -8 -19 -8h-34c-7 0 -9 3 -5 9c42 60 87 124 132 181c4 5 11 9 18 9z" />
    <glyph glyph-name="odieresis" unicode="&#xf6;" horiz-adv-x="593" 
d="M541 252c0 -148 -68 -262 -245 -262s-244 114 -244 262s67 263 244 263s245 -115 245 -263zM147 252c0 -117 42 -194 149 -194s149 77 149 194c0 118 -42 195 -149 195s-149 -77 -149 -195zM148 661c0 30 24 54 55 54c30 0 54 -24 54 -54s-24 -54 -54 -54
c-31 0 -55 24 -55 54zM334 661c0 30 24 54 54 54s55 -24 55 -54s-25 -54 -55 -54s-54 24 -54 54z" />
    <glyph glyph-name="oe" unicode="&#x153;" horiz-adv-x="969" 
d="M863 96l19 -44c3 -6 2 -13 -4 -16c-43 -29 -116 -46 -186 -46c-99 0 -163 40 -198 101c-34 -61 -96 -101 -198 -101c-177 0 -244 114 -244 262s67 263 244 263c103 0 165 -41 198 -104c35 63 98 104 192 104c165 0 220 -105 220 -241v-31c-1 -6 -6 -11 -12 -11h-352
c8 -107 61 -172 162 -172c50 0 101 12 145 40c5 4 11 2 14 -4zM147 252c0 -117 42 -194 149 -194s149 77 149 194c0 118 -42 195 -149 195s-149 -77 -149 -195zM686 446c-73 0 -133 -44 -143 -150h273c-3 78 -35 150 -130 150z" />
    <glyph glyph-name="ogonek" unicode="&#x2db;" horiz-adv-x="505" 
d="M335 -193c-20 -9 -43 -14 -66 -14c-70 0 -111 27 -111 82c0 61 62 109 174 133l29 -8c-82 -26 -120 -66 -120 -106c0 -28 17 -41 49 -41c15 0 28 3 44 8c6 2 10 -1 10 -7v-31c0 -7 -3 -14 -9 -16z" />
    <glyph glyph-name="ograve" unicode="&#xf2;" horiz-adv-x="593" 
d="M541 252c0 -148 -68 -262 -245 -262s-244 114 -244 262s67 263 244 263s245 -115 245 -263zM147 252c0 -117 42 -194 149 -194s149 77 149 194c0 118 -42 195 -149 195s-149 -77 -149 -195zM182 773h78c6 0 13 -4 17 -9c45 -57 91 -121 132 -181c4 -6 2 -9 -5 -9h-34
c-7 0 -14 3 -18 8c-52 58 -111 119 -173 182c-5 5 -3 9 3 9z" />
    <glyph glyph-name="ohungarumlaut" unicode="&#x151;" horiz-adv-x="593" 
d="M541 252c0 -148 -68 -262 -245 -262s-244 114 -244 262s67 263 244 263s245 -115 245 -263zM147 252c0 -117 42 -194 149 -194s149 77 149 194c0 118 -42 195 -149 195s-149 -77 -149 -195zM282 773h73c6 0 8 -4 4 -9c-46 -63 -90 -124 -127 -181c-3 -6 -10 -9 -17 -9
h-34c-7 0 -9 4 -7 10c28 60 60 122 92 179c3 6 10 10 16 10zM461 773h73c6 0 8 -4 4 -9c-46 -63 -90 -124 -127 -181c-3 -6 -10 -9 -17 -9h-34c-7 0 -9 4 -7 10c28 60 60 122 92 179c3 6 10 10 16 10z" />
    <glyph glyph-name="omacron" unicode="&#x14d;" horiz-adv-x="593" 
d="M541 252c0 -148 -68 -262 -245 -262s-244 114 -244 262s67 263 244 263s245 -115 245 -263zM147 252c0 -117 42 -194 149 -194s149 77 149 194c0 118 -42 195 -149 195s-149 -77 -149 -195zM172 626v54c0 7 4 11 11 11h227c6 0 11 -4 11 -11v-54c0 -7 -5 -11 -11 -11
h-227c-7 0 -11 4 -11 11z" />
    <glyph glyph-name="one" unicode="1" 
d="M109 11v28c0 7 4 11 11 12l138 8v574h-138c-7 0 -11 4 -11 11v28c0 7 4 11 11 13l163 21c7 2 16 2 22 2h42c6 0 11 -5 11 -11v-638l123 -8c6 -1 11 -5 11 -12v-28c0 -7 -5 -11 -11 -11h-361c-7 0 -11 4 -11 11z" />
    <glyph glyph-name="onehalf" unicode="&#xbd;" horiz-adv-x="907" 
d="M548 273l-9 89c-1 7 2 14 8 18c40 27 90 45 149 45c100 0 145 -51 145 -124c0 -105 -99 -154 -195 -243h144l17 63c2 7 8 11 14 11h21c7 0 11 -4 10 -11l-7 -110c-1 -7 -5 -11 -12 -11h-276c-7 0 -11 4 -11 11v15c0 6 3 14 6 20c81 97 213 152 213 250
c0 40 -23 70 -78 70c-32 0 -60 -8 -85 -22l-9 -71c0 -7 -6 -11 -12 -11h-21c-7 0 -12 4 -12 11zM261 7l287 696c2 6 9 10 15 10h59c6 0 9 -4 6 -10l-287 -696c-3 -5 -9 -10 -16 -10h-58c-6 0 -9 5 -6 10zM48 299v23c0 7 4 11 11 12l96 7v304h-96c-7 0 -11 4 -11 11v24
c0 6 4 11 11 12l115 16c7 1 16 1 22 1h26c7 0 11 -4 11 -11v-357l86 -7c6 -1 11 -5 11 -12v-23c0 -7 -5 -11 -11 -11h-260c-7 0 -11 4 -11 11z" />
    <glyph glyph-name="onequarter" unicode="&#xbc;" horiz-adv-x="848" 
d="M48 299v23c0 7 4 11 11 12l96 7v304h-96c-7 0 -11 4 -11 11v24c0 6 4 11 11 12l115 16c7 1 16 1 22 1h26c7 0 11 -4 11 -11v-357l86 -7c6 -1 11 -5 11 -12v-23c0 -7 -5 -11 -11 -11h-260c-7 0 -11 4 -11 11zM575 11v23c0 7 4 11 11 12l50 6v61h-169c-7 0 -11 4 -11 11v24
c0 7 2 15 6 20l180 243c5 6 12 9 18 9h42c6 0 11 -5 11 -11v-244h61c6 0 11 -5 11 -11v-30c0 -7 -5 -11 -11 -11h-61v-61l51 -6c6 -1 11 -5 11 -12v-23c0 -7 -5 -11 -11 -11h-178c-7 0 -11 4 -11 11zM261 7l287 696c2 6 9 10 15 10h59c6 0 9 -4 6 -10l-287 -696
c-3 -5 -9 -10 -16 -10h-58c-6 0 -9 5 -6 10zM525 165h111v152z" />
    <glyph glyph-name="onesuperior" unicode="&#xb9;" horiz-adv-x="394" 
d="M54 299v23c0 7 4 11 11 12l97 7v304h-97c-7 0 -11 4 -11 11v24c0 6 4 11 11 12l115 16c7 1 16 1 22 1h27c6 0 11 -4 11 -11v-357l85 -7c6 -1 11 -5 11 -12v-23c0 -7 -5 -11 -11 -11h-260c-7 0 -11 4 -11 11z" />
    <glyph glyph-name="ordfeminine" unicode="&#xaa;" horiz-adv-x="390" 
d="M72 566l-11 33c-3 6 0 12 5 15c37 21 81 34 136 34c100 0 129 -43 129 -137v-111c0 -30 3 -51 20 -73c4 -4 3 -10 -2 -13l-26 -15c-6 -3 -14 -4 -20 -1c-10 6 -20 16 -26 30c-25 -22 -62 -37 -111 -37c-63 0 -116 31 -116 103c0 67 49 103 145 103c19 0 45 -3 70 -6v23
c0 55 -19 79 -74 79c-38 0 -74 -12 -105 -31c-6 -4 -11 -2 -14 4zM184 341c31 0 61 12 81 31v73c-24 4 -46 6 -62 6c-63 0 -89 -22 -89 -55c0 -37 29 -55 70 -55z" />
    <glyph glyph-name="ordmasculine" unicode="&#xba;" horiz-adv-x="437" 
d="M384 469c0 -100 -46 -178 -166 -178c-119 0 -166 78 -166 178c0 101 47 179 166 179c120 0 166 -78 166 -179zM122 469c0 -74 25 -123 96 -123c70 0 97 49 97 123c0 76 -27 124 -97 124c-71 0 -96 -48 -96 -124z" />
    <glyph glyph-name="oslash" unicode="&#xf8;" horiz-adv-x="593" 
d="M147 -31l20 48c-82 43 -115 130 -115 235c0 148 67 263 244 263c28 0 53 -3 75 -8l14 32c2 4 7 7 12 7h42c5 0 7 -3 5 -7l-22 -51c84 -43 119 -131 119 -236c0 -148 -68 -262 -245 -262c-29 0 -55 3 -79 9l-12 -30c-2 -5 -6 -8 -11 -8h-43c-4 0 -6 3 -4 8zM445 252
c0 72 -16 130 -53 163l-147 -350c15 -5 32 -7 51 -7c107 0 149 77 149 194zM147 252c0 -71 15 -127 51 -160l146 349c-14 4 -31 6 -48 6c-107 0 -149 -77 -149 -195z" />
    <glyph glyph-name="otilde" unicode="&#xf5;" horiz-adv-x="593" 
d="M541 252c0 -148 -68 -262 -245 -262s-244 114 -244 262s67 263 244 263s245 -115 245 -263zM147 252c0 -117 42 -194 149 -194s149 77 149 194c0 118 -42 195 -149 195s-149 -77 -149 -195zM164 615l-17 13c-6 4 -8 11 -6 17c19 61 53 89 92 89c29 0 54 -16 77 -32
c20 -15 41 -30 61 -30c21 0 36 15 45 38c3 6 7 7 12 4l17 -13c6 -5 8 -11 6 -18c-19 -60 -53 -89 -92 -89c-29 0 -53 17 -76 33c-20 14 -42 30 -62 30s-35 -15 -45 -39c-2 -6 -7 -7 -12 -3z" />
    <glyph glyph-name="p" unicode="p" horiz-adv-x="608" 
d="M18 -239v28c0 7 5 12 11 12l86 7v545c0 36 -1 68 -7 94l-79 7c-6 0 -11 5 -11 12v28c0 7 5 11 11 11h138c7 0 13 -4 16 -10c5 -12 9 -24 12 -37c39 32 90 57 151 57c133 0 210 -82 210 -263c0 -160 -75 -262 -230 -262c-46 0 -84 11 -116 28v-210l86 -7c6 0 11 -5 11 -12
v-28c0 -7 -5 -11 -11 -11h-267c-6 0 -11 4 -11 11zM209 400v-310c30 -18 65 -28 104 -28c100 0 148 62 148 189c0 142 -53 191 -140 191c-44 0 -84 -18 -112 -42z" />
    <glyph glyph-name="paragraph" unicode="&#xb6;" horiz-adv-x="698" 
d="M167 -135v28c0 7 4 12 11 12l91 8v409c-122 2 -215 85 -215 189c0 132 109 192 255 192h338c7 0 11 -5 11 -11v-29c0 -6 -4 -11 -11 -12l-91 -7v-731l91 -8c7 0 11 -5 11 -12v-28c0 -7 -4 -11 -11 -11h-469c-7 0 -11 4 -11 11zM358 644v-731h109v731h-109z" />
    <glyph glyph-name="parenleft" unicode="(" horiz-adv-x="338" 
d="M250 791l46 -30c6 -5 7 -10 3 -16c-78 -118 -136 -277 -136 -432s58 -314 136 -432c4 -6 3 -12 -3 -16l-46 -30c-6 -4 -13 -3 -16 2c-111 131 -169 313 -169 476s58 345 169 476c3 5 10 6 16 2z" />
    <glyph glyph-name="parenright" unicode=")" horiz-adv-x="338" 
d="M42 761l46 30c6 4 13 3 16 -2c111 -131 169 -313 169 -476s-58 -345 -169 -476c-3 -5 -10 -6 -16 -2l-46 30c-6 4 -7 10 -3 16c78 118 136 277 136 432s-58 314 -136 432c-4 6 -3 11 3 16z" />
    <glyph glyph-name="partialdiff" unicode="&#x2202;" horiz-adv-x="561" 
d="M118 606l-27 45c-3 6 -2 13 4 16c39 26 95 46 156 46c143 0 257 -122 257 -346c0 -247 -122 -377 -263 -377c-129 0 -192 100 -192 205c0 135 89 239 207 239c66 0 119 -31 158 -71v1c0 181 -83 272 -173 272c-44 0 -78 -12 -112 -33c-6 -4 -12 -3 -15 3zM252 57
c84 0 143 89 160 221c-29 47 -78 88 -138 88c-70 0 -130 -72 -130 -169c0 -75 38 -140 108 -140z" />
    <glyph glyph-name="percent" unicode="%" horiz-adv-x="773" 
d="M440 176c0 54 11 101 36 134c24 33 62 52 115 52c54 0 92 -19 116 -52s36 -80 36 -134c0 -53 -12 -100 -36 -134c-24 -32 -62 -52 -116 -52c-53 0 -91 20 -115 52c-25 34 -36 81 -36 134zM510 176c0 -36 6 -68 19 -89c14 -23 32 -38 62 -38s50 15 63 38
c13 21 20 53 20 89c0 37 -7 68 -20 90s-33 36 -63 36s-48 -14 -62 -36s-19 -53 -19 -90zM30 527c0 53 11 100 35 134c24 32 62 52 116 52s91 -20 116 -52c24 -34 35 -81 35 -134c0 -54 -12 -101 -35 -134c-25 -33 -62 -52 -116 -52s-91 20 -116 52c-23 34 -35 80 -35 134z
M99 527c0 -37 6 -68 19 -90c14 -22 33 -37 63 -37s49 15 62 37c14 22 20 53 20 90c0 36 -6 68 -20 89c-13 23 -32 37 -62 37s-49 -14 -63 -37c-13 -21 -19 -53 -19 -89zM189 -36l317 775c2 6 9 10 15 10h56c7 0 9 -4 7 -10l-318 -775c-2 -6 -8 -10 -15 -10h-56
c-6 0 -9 4 -6 10z" />
    <glyph glyph-name="period" unicode="." horiz-adv-x="254" 
d="M72 45c0 31 24 55 55 55s56 -24 56 -55s-25 -55 -56 -55s-55 24 -55 55z" />
    <glyph glyph-name="periodcentered" unicode="&#xb7;" horiz-adv-x="258" 
d="M76 262c0 31 25 55 56 55s55 -24 55 -55s-24 -55 -55 -55s-56 24 -56 55z" />
    <glyph glyph-name="perthousand" unicode="&#x2030;" horiz-adv-x="1133" 
d="M800 176c0 54 11 101 36 134c24 33 62 52 115 52c54 0 93 -19 116 -52c25 -33 36 -80 36 -134c0 -53 -11 -100 -36 -134c-23 -32 -62 -52 -116 -52c-53 0 -91 20 -115 52c-25 34 -36 81 -36 134zM870 176c0 -36 6 -68 19 -89c15 -23 32 -38 62 -38c31 0 50 15 63 38
c13 21 20 53 20 89c0 37 -7 68 -20 90s-32 36 -63 36c-30 0 -48 -14 -62 -36c-13 -22 -19 -53 -19 -90zM440 176c0 54 11 101 36 134c24 33 62 52 115 52c54 0 92 -19 116 -52s36 -80 36 -134c0 -53 -12 -100 -36 -134c-24 -32 -62 -52 -116 -52c-53 0 -91 20 -115 52
c-25 34 -36 81 -36 134zM510 176c0 -36 6 -68 19 -89c14 -23 32 -38 62 -38s50 15 63 38c13 21 20 53 20 89c0 37 -7 68 -20 90s-33 36 -63 36s-48 -14 -62 -36s-19 -53 -19 -90zM30 527c0 53 11 100 35 134c24 32 62 52 116 52s91 -20 116 -52c24 -34 35 -81 35 -134
c0 -54 -12 -101 -35 -134c-25 -33 -62 -52 -116 -52s-91 20 -116 52c-23 34 -35 80 -35 134zM99 527c0 -37 6 -68 19 -90c14 -22 33 -37 63 -37s49 15 62 37c14 22 20 53 20 90c0 36 -6 68 -20 89c-13 23 -32 37 -62 37s-49 -14 -63 -37c-13 -21 -19 -53 -19 -89zM189 -36
l317 775c2 6 9 10 15 10h56c7 0 9 -4 7 -10l-318 -775c-2 -6 -8 -10 -15 -10h-56c-6 0 -9 4 -6 10z" />
    <glyph glyph-name="pi" unicode="&#x3c0;" horiz-adv-x="646" 
d="M626 494v-52c0 -6 -5 -11 -11 -11h-89v-280c0 -50 4 -107 16 -141c2 -7 0 -10 -7 -10h-74c-7 0 -13 4 -15 10c-10 31 -14 81 -14 127v294h-203c-5 -136 -25 -294 -57 -420c-1 -7 -7 -11 -13 -11h-73c-7 0 -10 4 -8 11c35 130 54 291 57 420c-42 0 -79 -6 -107 -16
c-5 -2 -10 0 -10 7v52c0 7 5 13 10 15c26 9 59 16 105 16h482c6 0 11 -4 11 -11z" />
    <glyph glyph-name="plus" unicode="+" 
d="M329 45h-58c-7 0 -11 5 -11 11v208h-208c-6 0 -11 4 -11 11v58c0 6 5 11 11 11h208v207c0 7 4 11 11 11h58c6 0 11 -4 11 -11v-207h207c7 0 11 -5 11 -11v-58c0 -7 -4 -11 -11 -11h-207v-208c0 -6 -5 -11 -11 -11z" />
    <glyph glyph-name="plusminus" unicode="&#xb1;" 
d="M329 158h-58c-7 0 -11 5 -11 11v208h-208c-6 0 -11 4 -11 11v58c0 6 5 11 11 11h208v207c0 7 4 11 11 11h58c6 0 11 -4 11 -11v-207h207c7 0 11 -5 11 -11v-58c0 -7 -4 -11 -11 -11h-207v-208c0 -6 -5 -11 -11 -11zM41 11v58c0 6 5 11 11 11h495c7 0 11 -5 11 -11v-58
c0 -7 -4 -11 -11 -11h-495c-6 0 -11 4 -11 11z" />
    <glyph glyph-name="product" unicode="&#x220f;" horiz-adv-x="688" 
d="M89 703h509c7 0 11 -5 11 -11v-788c0 -7 -4 -11 -11 -11h-77c-7 0 -11 4 -11 11v711h-332v-711c0 -7 -5 -11 -11 -11h-78c-6 0 -11 4 -11 11v788c0 6 5 11 11 11z" />
    <glyph glyph-name="q" unicode="q" horiz-adv-x="613" 
d="M301 -239v28c0 7 5 12 11 12l86 7v210c-32 -17 -73 -28 -119 -28c-155 0 -227 102 -227 262c0 184 86 263 218 263c57 0 105 -22 144 -52c3 11 6 21 11 32c3 6 9 10 16 10h138c6 0 11 -4 11 -11v-28c0 -7 -5 -12 -11 -12l-79 -7c-6 -26 -7 -58 -7 -94v-545l86 -7
c6 0 11 -5 11 -12v-28c0 -7 -5 -11 -11 -11h-267c-6 0 -11 4 -11 11zM399 89v311c-28 24 -68 42 -112 42c-87 0 -140 -49 -140 -191c0 -127 48 -189 148 -189c39 0 74 9 104 27z" />
    <glyph glyph-name="question" unicode="?" horiz-adv-x="536" 
d="M108 533l-13 126c0 7 4 13 9 16c48 24 104 38 175 38c115 0 190 -60 190 -171c0 -91 -59 -134 -112 -174c-51 -38 -100 -73 -97 -154c1 -7 -3 -11 -10 -11h-33c-7 0 -12 4 -15 10c-7 21 -11 39 -11 56c0 61 41 99 89 136c52 40 98 73 98 133c0 62 -43 100 -111 100
c-33 0 -62 -6 -91 -17l-13 -88c0 -7 -6 -11 -12 -11h-31c-7 0 -12 4 -12 11zM176 45c0 31 24 55 54 55c31 0 56 -24 56 -55s-25 -55 -56 -55c-30 0 -54 24 -54 55z" />
    <glyph glyph-name="questiondown" unicode="&#xbf;" horiz-adv-x="507" 
d="M426 -28l13 -126c0 -7 -4 -13 -9 -16c-48 -24 -104 -38 -175 -38c-115 0 -190 60 -190 171c0 91 59 134 112 174c51 38 100 73 97 154c-1 7 3 11 10 11h33c7 0 12 -4 15 -10c7 -21 11 -39 11 -56c0 -61 -41 -99 -89 -136c-52 -40 -98 -73 -98 -133
c0 -62 43 -100 111 -100c33 0 62 6 91 17l13 88c0 7 6 11 12 11h31c7 0 12 -4 12 -11zM358 460c0 -31 -24 -55 -54 -55c-31 0 -56 24 -56 55s25 55 56 55c30 0 54 -24 54 -55z" />
    <glyph glyph-name="quotedbl" unicode="&#x22;" horiz-adv-x="403" 
d="M81 508l-10 194c-1 6 4 11 10 11h70c6 0 11 -5 10 -11l-10 -194c0 -6 -5 -11 -11 -11h-48c-6 0 -11 5 -11 11zM252 508l-10 194c-1 6 4 11 10 11h70c6 0 11 -5 10 -11l-10 -194c0 -6 -5 -11 -11 -11h-48c-6 0 -11 5 -11 11z" />
    <glyph glyph-name="quotedblbase" unicode="&#x201e;" horiz-adv-x="464" 
d="M100 -127l-18 10c-5 4 -5 9 0 13c27 20 44 42 44 70c0 34 -37 46 -37 83c0 28 21 51 52 51c40 0 59 -29 59 -65c0 -63 -31 -120 -81 -160c-6 -5 -13 -6 -19 -2zM279 -127l-18 10c-5 4 -5 9 0 13c27 20 44 42 44 70c0 34 -37 46 -37 83c0 28 21 51 52 51
c40 0 59 -29 59 -65c0 -63 -31 -120 -81 -160c-6 -5 -13 -6 -19 -2z" />
    <glyph glyph-name="quotedblleft" unicode="&#x201c;" horiz-adv-x="464" 
d="M183 758l18 -10c6 -4 6 -9 1 -13c-28 -20 -44 -42 -44 -70c0 -34 36 -46 36 -83c0 -28 -20 -51 -52 -51c-39 0 -58 29 -58 65c0 63 31 120 81 160c6 5 13 6 18 2zM362 758l18 -10c6 -4 6 -9 1 -13c-28 -20 -44 -42 -44 -70c0 -34 36 -46 36 -83c0 -28 -20 -51 -52 -51
c-39 0 -58 29 -58 65c0 63 31 120 81 160c6 5 13 6 18 2z" />
    <glyph glyph-name="quotedblright" unicode="&#x201d;" horiz-adv-x="464" 
d="M100 538l-18 10c-5 3 -5 8 0 12c27 20 44 42 44 70c0 34 -37 46 -37 83c0 29 21 51 52 51c40 0 59 -28 59 -64c0 -64 -31 -121 -81 -161c-6 -4 -13 -5 -19 -1zM279 538l-18 10c-5 3 -5 8 0 12c27 20 44 42 44 70c0 34 -37 46 -37 83c0 29 21 51 52 51c40 0 59 -28 59 -64
c0 -64 -31 -121 -81 -161c-6 -4 -13 -5 -19 -1z" />
    <glyph glyph-name="quoteleft" unicode="&#x2018;" horiz-adv-x="284" 
d="M183 758l18 -10c6 -4 6 -9 1 -13c-28 -20 -44 -42 -44 -70c0 -34 36 -46 36 -83c0 -28 -20 -51 -52 -51c-39 0 -58 29 -58 65c0 63 31 120 81 160c6 5 13 6 18 2z" />
    <glyph glyph-name="quoteright" unicode="&#x2019;" horiz-adv-x="284" 
d="M100 538l-18 10c-5 3 -5 8 0 12c27 20 44 42 44 70c0 34 -37 46 -37 83c0 29 21 51 52 51c40 0 59 -28 59 -64c0 -64 -31 -121 -81 -161c-6 -4 -13 -5 -19 -1z" />
    <glyph glyph-name="quotesinglbase" unicode="&#x201a;" horiz-adv-x="284" 
d="M100 -127l-18 10c-5 4 -5 9 0 13c27 20 44 42 44 70c0 34 -37 46 -37 83c0 28 21 51 52 51c40 0 59 -29 59 -65c0 -63 -31 -120 -81 -160c-6 -5 -13 -6 -19 -2z" />
    <glyph glyph-name="quotesingle" unicode="'" horiz-adv-x="232" 
d="M81 508l-10 194c-1 6 4 11 10 11h70c6 0 11 -5 10 -11l-10 -194c0 -6 -5 -11 -11 -11h-48c-6 0 -11 5 -11 11z" />
    <glyph glyph-name="r" unicode="r" horiz-adv-x="432" 
d="M18 11v28c0 7 5 12 11 12l86 7v295c0 36 -1 68 -7 94l-79 7c-6 0 -11 5 -11 12v28c0 7 5 11 11 11h138c7 0 13 -4 16 -10c7 -19 14 -41 19 -61c25 42 66 81 140 81c25 0 46 -4 61 -7c6 -2 9 -8 8 -14l-13 -65c-2 -6 -7 -9 -14 -8c-15 5 -33 7 -53 7
c-52 0 -92 -19 -121 -55v-314l86 -8c6 0 11 -5 11 -12v-28c0 -7 -5 -11 -11 -11h-267c-6 0 -11 4 -11 11z" />
    <glyph glyph-name="racute" unicode="&#x155;" horiz-adv-x="432" 
d="M18 11v28c0 7 5 12 11 12l86 7v295c0 36 -1 68 -7 94l-79 7c-6 0 -11 5 -11 12v28c0 7 5 11 11 11h138c7 0 13 -4 16 -10c7 -19 14 -41 19 -61c25 42 66 81 140 81c25 0 46 -4 61 -7c6 -2 9 -8 8 -14l-13 -65c-2 -6 -7 -9 -14 -8c-15 5 -33 7 -53 7
c-52 0 -92 -19 -121 -55v-314l86 -8c6 0 11 -5 11 -12v-28c0 -7 -5 -11 -11 -11h-267c-6 0 -11 4 -11 11zM248 773h77c7 0 8 -4 3 -9c-62 -63 -120 -124 -173 -182c-3 -5 -11 -8 -18 -8h-34c-7 0 -9 3 -5 9c41 60 87 124 132 181c4 5 11 9 18 9z" />
    <glyph glyph-name="radical" unicode="&#x221a;" horiz-adv-x="636" 
d="M38 223l-21 50c-2 6 0 12 6 15l217 84c6 3 11 0 13 -6l116 -324l186 774c2 7 7 11 14 11h64c7 0 10 -4 9 -11l-227 -908c-1 -7 -7 -11 -13 -11h-61c-6 0 -12 4 -14 10l-133 366l-142 -56c-6 -3 -12 0 -14 6z" />
    <glyph glyph-name="rcaron" unicode="&#x159;" horiz-adv-x="432" 
d="M18 11v28c0 7 5 12 11 12l86 7v295c0 36 -1 68 -7 94l-79 7c-6 0 -11 5 -11 12v28c0 7 5 11 11 11h138c7 0 13 -4 16 -10c7 -19 14 -41 19 -61c25 42 66 81 140 81c25 0 46 -4 61 -7c6 -2 9 -8 8 -14l-13 -65c-2 -6 -7 -9 -14 -8c-15 5 -33 7 -53 7
c-52 0 -92 -19 -121 -55v-314l86 -8c6 0 11 -5 11 -12v-28c0 -7 -5 -11 -11 -11h-267c-6 0 -11 4 -11 11zM229 574h-41c-7 0 -14 3 -18 9c-45 57 -90 120 -132 181c-4 5 -2 9 5 9h34c7 0 15 -4 19 -8c34 -37 73 -77 112 -117c29 30 87 87 112 116c5 5 13 9 19 9h35
c6 0 8 -4 4 -9c-41 -61 -86 -124 -131 -181c-5 -6 -12 -9 -18 -9z" />
    <glyph glyph-name="registered" unicode="&#xae;" horiz-adv-x="499" 
d="M441 578c0 -105 -82 -183 -192 -183s-192 78 -192 183c0 106 82 186 192 186s192 -80 192 -186zM396 578c0 84 -64 148 -147 148c-81 0 -144 -64 -144 -148c0 -82 63 -145 144 -145c83 0 147 63 147 145zM170 498v166c0 6 4 12 11 13c18 3 37 4 57 4c54 0 88 -17 88 -60
c0 -22 -12 -40 -36 -51c15 -18 38 -47 53 -68c4 -6 2 -10 -4 -11l-29 -5c-6 -1 -13 1 -17 7c-16 22 -34 48 -50 68h-5h-20v-63c0 -7 -4 -11 -11 -11h-26c-7 0 -11 4 -11 11zM218 644v-46c10 -1 14 -1 24 -1c24 0 36 9 36 24c0 16 -11 25 -37 25c-7 0 -13 0 -23 -2z" />
    <glyph glyph-name="ring" unicode="&#x2da;" horiz-adv-x="448" 
d="M109 696c0 63 47 114 115 114s115 -51 115 -114s-47 -114 -115 -114s-115 51 -115 114zM165 696c0 -32 25 -59 59 -59s59 27 59 59c0 31 -25 59 -59 59s-59 -28 -59 -59z" />
    <glyph glyph-name="s" unicode="s" horiz-adv-x="470" 
d="M38 36l11 115c1 6 5 11 12 11h30c6 0 11 -4 13 -11l12 -84c32 -10 65 -14 98 -14c79 0 119 27 119 81c0 124 -286 44 -286 239c0 91 78 142 198 142c60 0 113 -11 150 -26c6 -2 10 -9 9 -15l-10 -116c-1 -6 -6 -11 -12 -11h-30c-7 0 -12 5 -13 11l-13 85
c-25 5 -55 9 -79 9c-68 0 -112 -25 -112 -73c0 -119 287 -46 287 -234c0 -94 -72 -155 -212 -155c-61 0 -115 9 -163 30c-5 2 -10 9 -9 16z" />
    <glyph glyph-name="sacute" unicode="&#x15b;" horiz-adv-x="470" 
d="M38 36l11 115c1 6 5 11 12 11h30c6 0 11 -4 13 -11l12 -84c32 -10 65 -14 98 -14c79 0 119 27 119 81c0 124 -286 44 -286 239c0 91 78 142 198 142c60 0 113 -11 150 -26c6 -2 10 -9 9 -15l-10 -116c-1 -6 -6 -11 -12 -11h-30c-7 0 -12 5 -13 11l-13 85
c-25 5 -55 9 -79 9c-68 0 -112 -25 -112 -73c0 -119 287 -46 287 -234c0 -94 -72 -155 -212 -155c-61 0 -115 9 -163 30c-5 2 -10 9 -9 16zM283 773h77c7 0 8 -4 3 -9c-62 -63 -120 -124 -173 -182c-3 -5 -11 -8 -18 -8h-34c-7 0 -9 3 -5 9c41 60 87 124 132 181
c4 5 11 9 18 9z" />
    <glyph glyph-name="scaron" unicode="&#x161;" horiz-adv-x="470" 
d="M38 36l11 115c1 6 5 11 12 11h30c6 0 11 -4 13 -11l12 -84c32 -10 65 -14 98 -14c79 0 119 27 119 81c0 124 -286 44 -286 239c0 91 78 142 198 142c60 0 113 -11 150 -26c6 -2 10 -9 9 -15l-10 -116c-1 -6 -6 -11 -12 -11h-30c-7 0 -12 5 -13 11l-13 85
c-25 5 -55 9 -79 9c-68 0 -112 -25 -112 -73c0 -119 287 -46 287 -234c0 -94 -72 -155 -212 -155c-61 0 -115 9 -163 30c-5 2 -10 9 -9 16zM261 574h-41c-7 0 -14 3 -18 9c-45 57 -90 120 -132 181c-4 5 -2 9 5 9h34c7 0 15 -4 19 -8c34 -37 73 -77 112 -117
c29 30 87 87 112 116c5 5 13 9 19 9h35c6 0 8 -4 4 -9c-41 -61 -86 -124 -131 -181c-5 -6 -12 -9 -18 -9z" />
    <glyph glyph-name="scedilla" unicode="&#x15f;" horiz-adv-x="470" 
d="M173 -61l30 51c-58 1 -110 10 -156 30c-5 2 -10 9 -9 16l11 115c1 6 5 11 12 11h30c6 0 11 -4 13 -11l12 -84c32 -10 65 -14 98 -14c79 0 119 27 119 81c0 124 -286 44 -286 239c0 91 78 142 198 142c60 0 113 -11 150 -26c6 -2 10 -9 9 -15l-10 -116
c-1 -6 -6 -11 -12 -11h-30c-7 0 -12 5 -13 11l-13 85c-25 5 -55 9 -79 9c-68 0 -112 -25 -112 -73c0 -119 287 -46 287 -234c0 -88 -63 -146 -185 -154l-9 -30c61 -9 94 -32 94 -81c0 -48 -40 -81 -121 -81c-23 0 -44 2 -61 6c-6 2 -9 7 -7 13l11 33c2 6 7 10 14 8
c14 -4 26 -5 41 -5c29 0 46 11 46 30c0 23 -23 38 -66 44c-7 1 -9 5 -6 11z" />
    <glyph glyph-name="section" unicode="&#xa7;" horiz-adv-x="550" 
d="M456 672l-16 -51c-2 -7 -7 -9 -13 -7c-36 15 -81 25 -128 25c-65 0 -109 -22 -109 -68c0 -126 287 -65 287 -254c0 -56 -32 -101 -75 -133c31 -25 52 -59 52 -112c0 -92 -67 -158 -215 -158c-60 0 -114 9 -161 30c-6 2 -9 9 -7 15l16 55c2 6 7 8 13 6
c47 -22 90 -33 145 -33c79 0 117 27 117 79c0 127 -287 66 -287 255c0 55 30 100 73 132c-30 25 -50 59 -50 113c0 102 92 147 201 147c59 0 113 -12 150 -26c6 -2 9 -9 7 -15zM167 330c0 -66 84 -79 161 -107c35 20 57 48 57 85c0 67 -85 77 -163 106
c-35 -21 -55 -49 -55 -84z" />
    <glyph glyph-name="semicolon" unicode=";" horiz-adv-x="259" 
d="M74 460c0 31 24 55 55 55c30 0 55 -24 55 -55s-25 -55 -55 -55c-31 0 -55 24 -55 55zM84 -134l-18 11c-6 3 -6 8 -1 12c28 22 44 44 44 73c0 35 -36 47 -36 85c0 30 20 53 52 53c40 0 59 -29 59 -67c0 -65 -31 -124 -83 -166c-5 -4 -12 -5 -17 -1z" />
    <glyph glyph-name="seven" unicode="7" 
d="M77 703h439c6 0 12 -4 13 -11l7 -30c2 -7 1 -15 -2 -21l-282 -631c-2 -6 -9 -10 -15 -10h-90c-6 0 -9 4 -6 10l309 621h-309l-11 -103c-1 -6 -6 -11 -12 -11h-33c-6 0 -11 5 -11 11l-8 164c0 6 4 11 11 11z" />
    <glyph glyph-name="six" unicode="6" 
d="M488 701l4 -56c1 -6 -4 -11 -10 -10c-177 7 -298 -106 -327 -262c47 36 106 62 173 62c142 0 219 -88 219 -211c0 -153 -108 -234 -238 -234c-173 0 -256 126 -256 298c0 228 154 432 424 424c7 0 11 -5 11 -11zM308 363c-58 0 -116 -28 -159 -69
c1 -156 63 -232 161 -232c82 0 141 54 141 158c0 80 -49 143 -143 143z" />
    <glyph glyph-name="slash" unicode="/" horiz-adv-x="404" 
d="M4 -36l317 775c2 6 9 10 15 10h56c7 0 9 -4 7 -10l-318 -775c-2 -6 -8 -10 -15 -10h-56c-6 0 -9 4 -6 10z" />
    <glyph glyph-name="space" unicode=" " horiz-adv-x="308" 
 />
    <glyph glyph-name="sterling" unicode="&#xa3;" 
d="M447 343v-44c0 -6 -5 -11 -11 -11h-175v-9c0 -70 -10 -142 -45 -213h261l23 103c1 7 7 11 13 11h30c7 0 11 -4 10 -11l-9 -158c-1 -7 -6 -11 -12 -11h-485c-7 0 -11 4 -11 11v28c0 7 4 12 11 13l77 8c36 61 45 132 45 202v26h-76c-6 0 -11 5 -11 11v44c0 7 5 11 11 11h72
c-3 52 -8 104 -8 147c0 146 61 212 207 212c73 0 135 -15 178 -31c6 -2 10 -8 9 -15l-12 -150c-1 -6 -5 -11 -12 -11h-31c-6 0 -11 5 -12 11l-12 107c-33 10 -70 16 -100 16c-89 0 -122 -40 -122 -148c0 -41 4 -90 8 -138h178c6 0 11 -4 11 -11z" />
    <glyph glyph-name="summation" unicode="&#x2211;" horiz-adv-x="617" 
d="M566 -47v-65c0 -7 -5 -11 -11 -11h-485c-7 0 -11 4 -11 11v54c0 7 3 15 8 19l307 328l-307 330c-5 4 -8 12 -8 18v55c0 6 4 11 11 11h485c6 0 11 -5 11 -11v-65c0 -6 -5 -11 -11 -11h-363l269 -287c5 -5 8 -12 8 -19v-42c0 -7 -3 -15 -8 -19l-267 -285h361
c6 0 11 -5 11 -11z" />
    <glyph glyph-name="t" unicode="t" horiz-adv-x="377" 
d="M-2 451v32c0 6 4 11 11 12l78 6v158c0 6 4 11 11 11h72c6 0 11 -5 11 -11v-154h150c7 0 11 -4 11 -11v-43c0 -7 -4 -11 -11 -11h-150v-252c0 -90 26 -126 89 -126c24 0 47 4 68 12c6 3 11 0 11 -6l7 -48c1 -7 -3 -13 -9 -15c-28 -9 -60 -15 -92 -15
c-139 0 -168 82 -168 200v250h-78c-7 0 -11 4 -11 11z" />
    <glyph glyph-name="tcaron" unicode="&#x165;" horiz-adv-x="403" 
d="M-2 451v32c0 6 4 11 11 12l78 6v158c0 6 4 11 11 11h72c6 0 11 -5 11 -11v-154h150c7 0 11 -4 11 -11v-43c0 -7 -4 -11 -11 -11h-150v-252c0 -90 26 -126 89 -126c24 0 47 4 68 12c6 3 11 0 11 -6l7 -48c1 -7 -3 -13 -9 -15c-28 -9 -60 -15 -92 -15
c-139 0 -168 82 -168 200v250h-78c-7 0 -11 4 -11 11zM289 563l-15 9c-6 3 -6 8 -1 12c25 19 41 40 41 66c0 32 -34 44 -34 78c0 27 19 48 48 48c37 0 55 -27 55 -60c0 -60 -29 -114 -76 -152c-5 -4 -12 -5 -18 -1z" />
    <glyph glyph-name="thorn" unicode="&#xfe;" horiz-adv-x="608" 
d="M18 -239v28c0 7 5 12 11 12l86 7v896l-86 8c-6 1 -11 6 -11 12v29c0 6 5 11 11 11h169c7 0 11 -5 11 -11v-285c37 27 83 47 137 47c133 0 210 -82 210 -263c0 -160 -75 -262 -230 -262c-46 0 -84 11 -116 28v-210l86 -7c6 0 11 -5 11 -12v-28c0 -7 -5 -11 -11 -11h-267
c-6 0 -11 4 -11 11zM209 400v-310c30 -18 65 -28 104 -28c100 0 148 62 148 189c0 142 -53 191 -140 191c-44 0 -84 -18 -112 -42z" />
    <glyph glyph-name="three" unicode="3" 
d="M63 41l14 141c1 6 6 11 12 11h31c7 0 12 -5 13 -11l12 -99c33 -13 73 -20 112 -20c113 0 170 58 170 137c0 83 -52 129 -170 129h-59c-7 0 -11 5 -11 11v50c0 6 4 11 11 11h52c106 0 168 43 168 124c0 65 -45 114 -142 114c-39 0 -81 -8 -115 -21l-12 -98
c0 -7 -6 -11 -12 -11h-32c-6 0 -11 4 -12 11l-13 138c0 6 4 13 9 15c51 23 126 40 200 40c148 -1 221 -76 221 -178c0 -80 -44 -142 -128 -170c95 -21 143 -81 143 -173c0 -108 -89 -202 -266 -202c-73 0 -138 14 -187 36c-6 2 -10 9 -9 15z" />
    <glyph glyph-name="threequarters" unicode="&#xbe;" horiz-adv-x="845" 
d="M571 11v23c0 7 5 11 11 12l51 6v61h-170c-6 0 -11 4 -11 11v24c0 7 2 15 7 20l180 243c4 6 11 9 18 9h41c7 0 11 -5 11 -11v-244h61c7 0 11 -5 11 -11v-30c0 -7 -4 -11 -11 -11h-61v-61l51 -6c7 -1 11 -5 11 -12v-23c0 -7 -4 -11 -11 -11h-178c-6 0 -11 4 -11 11zM53 322
l9 84c1 6 5 11 12 11h21c6 0 12 -5 12 -11l7 -56c21 -7 42 -10 62 -10c60 0 92 29 92 71s-29 67 -91 67h-40c-6 0 -11 5 -11 11v31c0 7 5 11 11 11h37c58 0 91 22 91 64c0 37 -24 60 -76 60c-21 0 -43 -4 -64 -13l-8 -59c0 -7 -6 -11 -12 -11h-21c-6 0 -11 4 -12 11l-8 81
c-1 7 2 13 8 17c38 22 84 32 125 32c97 0 139 -48 139 -111c0 -43 -25 -76 -71 -96c53 -17 80 -51 80 -101c0 -66 -56 -123 -164 -123c-41 0 -86 8 -119 24c-6 3 -10 10 -9 16zM257 7l287 696c3 6 9 10 16 10h58c7 0 9 -4 7 -10l-288 -696c-2 -5 -9 -10 -15 -10h-58
c-7 0 -9 5 -7 10zM521 165h112v152z" />
    <glyph glyph-name="threesuperior" unicode="&#xb3;" horiz-adv-x="396" 
d="M53 322l8 84c1 6 6 11 12 11h21c7 0 12 -5 12 -11l7 -55c21 -8 42 -11 62 -11c61 0 92 29 92 71s-29 67 -91 67h-39c-7 0 -11 5 -11 11v31c0 7 4 11 11 11h37c57 0 90 22 90 64c0 37 -23 60 -75 60c-22 0 -43 -4 -64 -12l-8 -60c-1 -7 -6 -11 -13 -11h-20
c-7 0 -12 4 -12 11l-9 81c0 7 3 13 8 17c38 22 84 32 125 32c98 0 139 -48 139 -111c0 -43 -24 -76 -71 -96c53 -17 81 -51 81 -101c0 -66 -57 -123 -165 -123c-41 0 -85 8 -119 24c-5 3 -9 10 -8 16z" />
    <glyph glyph-name="tilde" unicode="&#x2dc;" horiz-adv-x="515" 
d="M126 615l-17 13c-6 4 -8 11 -6 17c19 61 53 89 92 89c29 0 54 -16 77 -32c20 -15 41 -30 61 -30c21 0 36 15 45 38c3 6 7 7 12 4l17 -13c6 -5 8 -11 6 -18c-19 -60 -53 -89 -92 -89c-29 0 -53 17 -76 33c-20 14 -42 30 -62 30s-35 -15 -45 -39c-2 -6 -7 -7 -12 -3z" />
    <glyph glyph-name="trademark" unicode="&#x2122;" horiz-adv-x="760" 
d="M689 382l-46 -2c-7 -1 -11 3 -12 10c-3 45 -6 107 -8 152c-1 12 -2 35 -1 49h-4l-19 -49c-20 -43 -40 -94 -58 -134c-2 -5 -9 -10 -15 -10h-24c-7 0 -13 5 -15 10l-58 135l-17 48h-3l-2 -48c-3 -44 -6 -106 -8 -153c-1 -7 -5 -11 -12 -10l-43 2c-6 1 -11 6 -10 12
c7 89 19 208 29 298c1 6 5 11 12 11h38c7 0 13 -4 16 -10c25 -54 52 -117 75 -168c4 -8 8 -21 11 -33h2c3 12 8 26 11 35c21 50 48 110 73 166c3 6 9 10 16 10h41c7 0 12 -5 13 -11c9 -84 20 -203 28 -298c1 -6 -4 -11 -10 -12zM57 703h253c6 0 11 -5 11 -11v-38
c0 -6 -5 -11 -11 -11h-93v-249c0 -6 -4 -11 -11 -11h-46c-6 0 -11 5 -11 11v249h-92c-6 0 -11 5 -11 11v38c0 6 5 11 11 11z" />
    <glyph glyph-name="two" unicode="2" 
d="M62 11v32c0 7 3 15 7 20c138 174 363 272 363 442c0 77 -42 134 -142 134c-44 0 -91 -8 -129 -22l-14 -116c-1 -6 -5 -11 -12 -11h-31c-7 0 -11 5 -12 11l-13 152c-1 6 3 13 9 16c53 25 131 44 210 44c157 0 231 -83 231 -203c0 -184 -164 -244 -356 -439h294l24 103
c2 7 7 11 14 11h32c7 0 11 -4 10 -11l-9 -163c-1 -7 -6 -11 -12 -11h-453c-6 0 -11 4 -11 11z" />
    <glyph glyph-name="twosuperior" unicode="&#xb2;" horiz-adv-x="413" 
d="M61 299v15c0 6 3 14 7 20c81 97 212 152 212 250c0 40 -23 70 -78 70c-32 0 -60 -8 -84 -21l-9 -72c-1 -7 -6 -11 -13 -11h-21c-6 0 -11 4 -12 11l-9 89c-1 7 3 14 8 18c40 27 91 45 149 45c101 0 145 -51 145 -124c0 -105 -98 -154 -195 -243h144l18 63c2 7 7 11 14 11
h21c6 0 11 -4 10 -11l-7 -110c-1 -7 -6 -11 -12 -11h-277c-6 0 -11 4 -11 11z" />
    <glyph glyph-name="u" unicode="u" horiz-adv-x="658" 
d="M21 505h163c6 0 11 -4 11 -11v-267c0 -114 28 -159 107 -159c60 0 112 24 153 56v322l-86 7c-6 1 -11 6 -11 13v28c0 7 5 11 11 11h170c6 0 11 -4 11 -11v-342c0 -36 0 -68 6 -95l72 -6c7 0 11 -5 11 -12v-28c0 -7 -4 -11 -11 -11h-130c-7 0 -13 4 -16 10
c-7 16 -12 32 -15 48c-52 -35 -117 -68 -192 -68c-131 0 -175 82 -175 231v225l-79 7c-7 1 -11 6 -11 13v28c0 7 4 11 11 11z" />
    <glyph glyph-name="uacute" unicode="&#xfa;" horiz-adv-x="658" 
d="M21 505h163c6 0 11 -4 11 -11v-267c0 -114 28 -159 107 -159c60 0 112 24 153 56v322l-86 7c-6 1 -11 6 -11 13v28c0 7 5 11 11 11h170c6 0 11 -4 11 -11v-342c0 -36 0 -68 6 -95l72 -6c7 0 11 -5 11 -12v-28c0 -7 -4 -11 -11 -11h-130c-7 0 -13 4 -16 10
c-7 16 -12 32 -15 48c-52 -35 -117 -68 -192 -68c-131 0 -175 82 -175 231v225l-79 7c-7 1 -11 6 -11 13v28c0 7 4 11 11 11zM362 773h77c7 0 8 -4 3 -9c-62 -63 -120 -124 -173 -182c-3 -5 -11 -8 -18 -8h-34c-7 0 -9 3 -5 9c41 60 87 124 132 181c4 5 11 9 18 9z" />
    <glyph glyph-name="ucircumflex" unicode="&#xfb;" horiz-adv-x="658" 
d="M21 505h163c6 0 11 -4 11 -11v-267c0 -114 28 -159 107 -159c60 0 112 24 153 56v322l-86 7c-6 1 -11 6 -11 13v28c0 7 5 11 11 11h170c6 0 11 -4 11 -11v-342c0 -36 0 -68 6 -95l72 -6c7 0 11 -5 11 -12v-28c0 -7 -4 -11 -11 -11h-130c-7 0 -13 4 -16 10
c-7 16 -12 32 -15 48c-52 -35 -117 -68 -192 -68c-131 0 -175 82 -175 231v225l-79 7c-7 1 -11 6 -11 13v28c0 7 4 11 11 11zM308 773h41c6 0 13 -4 18 -9c45 -57 90 -121 131 -181c4 -6 2 -9 -4 -9h-35c-6 0 -14 3 -19 8c-25 30 -83 86 -112 116c-39 -40 -78 -79 -112 -116
c-4 -5 -12 -8 -19 -8h-34c-7 0 -9 3 -5 9c42 60 87 124 132 181c4 5 11 9 18 9z" />
    <glyph glyph-name="udieresis" unicode="&#xfc;" horiz-adv-x="658" 
d="M21 505h163c6 0 11 -4 11 -11v-267c0 -114 28 -159 107 -159c60 0 112 24 153 56v322l-86 7c-6 1 -11 6 -11 13v28c0 7 5 11 11 11h170c6 0 11 -4 11 -11v-342c0 -36 0 -68 6 -95l72 -6c7 0 11 -5 11 -12v-28c0 -7 -4 -11 -11 -11h-130c-7 0 -13 4 -16 10
c-7 16 -12 32 -15 48c-52 -35 -117 -68 -192 -68c-131 0 -175 82 -175 231v225l-79 7c-7 1 -11 6 -11 13v28c0 7 4 11 11 11zM181 661c0 30 24 54 55 54c30 0 54 -24 54 -54s-24 -54 -54 -54c-31 0 -55 24 -55 54zM367 661c0 30 24 54 54 54s55 -24 55 -54s-25 -54 -55 -54
s-54 24 -54 54z" />
    <glyph glyph-name="ugrave" unicode="&#xf9;" horiz-adv-x="658" 
d="M21 505h163c6 0 11 -4 11 -11v-267c0 -114 28 -159 107 -159c60 0 112 24 153 56v322l-86 7c-6 1 -11 6 -11 13v28c0 7 5 11 11 11h170c6 0 11 -4 11 -11v-342c0 -36 0 -68 6 -95l72 -6c7 0 11 -5 11 -12v-28c0 -7 -4 -11 -11 -11h-130c-7 0 -13 4 -16 10
c-7 16 -12 32 -15 48c-52 -35 -117 -68 -192 -68c-131 0 -175 82 -175 231v225l-79 7c-7 1 -11 6 -11 13v28c0 7 4 11 11 11zM218 773h78c6 0 13 -4 17 -9c45 -57 91 -121 132 -181c4 -6 2 -9 -5 -9h-34c-7 0 -14 3 -18 8c-52 58 -111 119 -173 182c-5 5 -3 9 3 9z" />
    <glyph glyph-name="uhungarumlaut" unicode="&#x171;" horiz-adv-x="658" 
d="M21 505h163c6 0 11 -4 11 -11v-267c0 -114 28 -159 107 -159c60 0 112 24 153 56v322l-86 7c-6 1 -11 6 -11 13v28c0 7 5 11 11 11h170c6 0 11 -4 11 -11v-342c0 -36 0 -68 6 -95l72 -6c7 0 11 -5 11 -12v-28c0 -7 -4 -11 -11 -11h-130c-7 0 -13 4 -16 10
c-7 16 -12 32 -15 48c-52 -35 -117 -68 -192 -68c-131 0 -175 82 -175 231v225l-79 7c-7 1 -11 6 -11 13v28c0 7 4 11 11 11zM290 773h73c6 0 8 -4 4 -9c-46 -63 -90 -124 -127 -181c-3 -6 -10 -9 -17 -9h-34c-7 0 -9 4 -7 10c28 60 60 122 92 179c3 6 10 10 16 10zM469 773
h73c6 0 8 -4 4 -9c-46 -63 -90 -124 -127 -181c-3 -6 -10 -9 -17 -9h-34c-7 0 -9 4 -7 10c28 60 60 122 92 179c3 6 10 10 16 10z" />
    <glyph glyph-name="umacron" unicode="&#x16b;" horiz-adv-x="658" 
d="M21 505h163c6 0 11 -4 11 -11v-267c0 -114 28 -159 107 -159c60 0 112 24 153 56v322l-86 7c-6 1 -11 6 -11 13v28c0 7 5 11 11 11h170c6 0 11 -4 11 -11v-342c0 -36 0 -68 6 -95l72 -6c7 0 11 -5 11 -12v-28c0 -7 -4 -11 -11 -11h-130c-7 0 -13 4 -16 10
c-7 16 -12 32 -15 48c-52 -35 -117 -68 -192 -68c-131 0 -175 82 -175 231v225l-79 7c-7 1 -11 6 -11 13v28c0 7 4 11 11 11zM183 626v54c0 7 4 11 11 11h227c6 0 11 -4 11 -11v-54c0 -7 -5 -11 -11 -11h-227c-7 0 -11 4 -11 11z" />
    <glyph glyph-name="underscore" unicode="_" horiz-adv-x="520" 
d="M-11 -165v51c0 7 4 11 11 11h520c7 0 11 -4 11 -11v-51c0 -7 -4 -11 -11 -11h-520c-7 0 -11 4 -11 11z" />
    <glyph glyph-name="uni00AD" unicode="&#xad;" horiz-adv-x="511" 
d="M85 257v52c0 6 5 11 11 11h319c7 0 11 -5 11 -11v-52c0 -6 -4 -11 -11 -11h-319c-6 0 -11 5 -11 11z" />
    <glyph glyph-name="uni0122" unicode="&#x122;" horiz-adv-x="667" 
d="M599 652l-15 -158c-1 -7 -6 -11 -12 -11h-32c-6 0 -11 4 -12 11l-18 123c-32 14 -69 21 -115 21c-155 0 -238 -98 -238 -287c0 -197 90 -285 225 -285c54 0 99 7 141 24v169h-135c-7 0 -11 4 -11 11v51c0 7 4 11 11 11h218c7 0 11 -4 11 -11v-310c0 -7 -4 -11 -11 -11
h-19c-6 0 -13 4 -15 9l-11 22c-54 -27 -123 -41 -199 -41c-217 0 -306 160 -306 361c0 206 106 362 334 362c83 0 147 -18 201 -45c5 -3 9 -9 8 -16zM337 -284l-15 9c-6 3 -6 8 -1 12c25 19 41 40 41 66c0 32 -34 44 -34 78c0 27 19 48 48 48c37 0 55 -27 55 -60
c0 -60 -29 -114 -76 -152c-5 -4 -12 -5 -18 -1z" />
    <glyph glyph-name="uni0123" unicode="&#x123;" horiz-adv-x="541" 
d="M513 510v-54c0 -7 -4 -11 -11 -10l-94 9c40 -30 61 -75 61 -135c0 -110 -86 -183 -211 -183c-15 0 -29 1 -42 2c-10 -13 -17 -28 -17 -42c0 -85 334 11 334 -191c0 -120 -122 -174 -275 -174c-148 0 -225 59 -225 147c0 61 46 105 112 123c-22 14 -35 35 -35 66
c0 33 21 59 59 81c-81 26 -123 91 -123 176c0 108 61 190 212 190c25 0 47 -3 66 -9l178 14c7 1 11 -4 11 -10zM131 327c0 -79 52 -124 127 -124s126 40 126 124c0 78 -49 124 -127 124c-93 0 -126 -54 -126 -124zM439 -107c0 83 -153 63 -251 91c-38 -18 -69 -46 -69 -89
c0 -55 43 -97 149 -97c109 0 171 33 171 95zM292 804l15 -9c6 -3 6 -8 1 -12c-25 -19 -41 -40 -41 -66c0 -32 34 -44 34 -78c0 -27 -19 -48 -48 -48c-37 0 -55 27 -55 60c0 60 29 114 76 152c5 4 12 5 18 1z" />
    <glyph glyph-name="uni0136" unicode="&#x136;" horiz-adv-x="712" 
d="M35 703h288c6 0 11 -5 11 -11v-29c0 -6 -5 -11 -11 -12l-97 -7v-259c95 81 196 174 278 259l-66 7c-7 1 -11 6 -11 12v29c0 6 4 11 11 11h233c6 0 11 -5 11 -11v-29c0 -6 -5 -11 -11 -12l-64 -8c-77 -77 -193 -186 -284 -264c99 -98 230 -234 302 -319l66 -9
c6 0 11 -5 11 -12v-28c0 -7 -5 -11 -11 -11h-245c-7 0 -11 4 -11 11v28c0 7 4 12 11 12l57 7c-76 85 -188 203 -277 292v-291l97 -8c6 0 11 -5 11 -12v-28c0 -7 -5 -11 -11 -11h-288c-6 0 -11 4 -11 11v28c0 7 5 12 11 12l91 7v586l-91 7c-6 1 -11 6 -11 12v29
c0 6 5 11 11 11zM308 -284l-15 9c-6 3 -6 8 -1 12c25 19 41 40 41 66c0 32 -34 44 -34 78c0 27 19 48 48 48c37 0 55 -27 55 -60c0 -60 -29 -114 -76 -152c-5 -4 -12 -5 -18 -1z" />
    <glyph glyph-name="uni0137" unicode="&#x137;" horiz-adv-x="626" 
d="M599 494v-28c0 -7 -4 -12 -11 -13l-60 -5c-78 -61 -153 -121 -222 -177c74 -67 174 -160 238 -215l58 -5c6 0 11 -5 11 -12v-28c0 -7 -5 -11 -11 -11h-118c-7 0 -14 3 -19 8c-61 62 -168 163 -255 238v-188l86 -7c6 0 11 -5 11 -12v-28c0 -7 -5 -11 -11 -11h-267
c-6 0 -11 4 -11 11v28c0 7 5 12 11 12l86 7v646l-86 8c-6 1 -11 6 -11 12v29c0 6 5 11 11 11h170c6 0 11 -5 11 -11v-476c73 55 147 113 210 170l-62 7c-6 0 -11 5 -11 12v28c0 7 5 11 11 11h230c7 0 11 -4 11 -11zM289 -284l-15 9c-6 3 -6 8 -1 12c25 19 41 40 41 66
c0 32 -34 44 -34 78c0 27 19 48 48 48c37 0 55 -27 55 -60c0 -60 -29 -114 -76 -152c-5 -4 -12 -5 -18 -1z" />
    <glyph glyph-name="uni013B" unicode="&#x13b;" horiz-adv-x="611" 
d="M24 11v28c0 7 5 12 11 12l91 7v585l-91 8c-6 1 -11 6 -11 12v29c0 6 5 11 11 11h295c7 0 11 -5 11 -11v-29c0 -6 -4 -11 -11 -12l-104 -8v-577h286l22 108c1 7 7 11 13 11h30c7 0 11 -4 10 -11l-9 -163c-1 -7 -6 -11 -12 -11h-531c-6 0 -11 4 -11 11zM272 -284l-15 9
c-6 3 -6 8 -1 12c25 19 41 40 41 66c0 32 -34 44 -34 78c0 27 19 48 48 48c37 0 55 -27 55 -60c0 -60 -29 -114 -76 -152c-5 -4 -12 -5 -18 -1z" />
    <glyph glyph-name="uni013C" unicode="&#x13c;" horiz-adv-x="325" 
d="M18 11v28c0 7 5 12 11 12l86 7v646l-86 8c-6 1 -11 6 -11 12v29c0 6 5 11 11 11h170c6 0 11 -5 11 -11v-695l86 -7c6 0 11 -5 11 -12v-28c0 -7 -5 -11 -11 -11h-267c-6 0 -11 4 -11 11zM120 -284l-15 9c-6 3 -6 8 -1 12c25 19 41 40 41 66c0 32 -34 44 -34 78
c0 27 19 48 48 48c37 0 55 -27 55 -60c0 -60 -29 -114 -76 -152c-5 -4 -12 -5 -18 -1z" />
    <glyph glyph-name="uni0145" unicode="&#x145;" horiz-adv-x="771" 
d="M24 11v28c0 7 5 12 11 12l91 7v585l-91 8c-6 1 -11 6 -11 12v29c0 6 5 11 11 11h163c7 0 14 -4 17 -9c90 -141 202 -308 301 -453c14 -21 35 -49 49 -75h5c-2 27 -3 58 -3 90v388l-105 7c-6 1 -11 6 -11 12v29c0 6 5 11 11 11h274c6 0 11 -5 11 -11v-29
c0 -6 -5 -11 -11 -12l-91 -7v-633c0 -7 -5 -11 -11 -11h-62c-6 0 -13 3 -16 9c-90 141 -202 308 -301 453c-15 20 -36 49 -49 74h-5c2 -26 3 -57 3 -89v-388l104 -8c7 -1 11 -5 11 -12v-28c0 -7 -4 -11 -11 -11h-273c-6 0 -11 4 -11 11zM376 -284l-15 9c-6 3 -6 8 -1 12
c25 19 41 40 41 66c0 32 -34 44 -34 78c0 27 19 48 48 48c37 0 55 -27 55 -60c0 -60 -29 -114 -76 -152c-5 -4 -12 -5 -18 -1z" />
    <glyph glyph-name="uni0146" unicode="&#x146;" horiz-adv-x="680" 
d="M18 11v28c0 7 5 12 11 12l86 7v295c0 36 -1 68 -7 94l-79 7c-6 0 -11 5 -11 12v28c0 7 5 11 11 11h138c7 0 13 -4 16 -10c6 -16 12 -32 15 -48c53 36 117 68 191 68c131 0 176 -80 176 -229v-228l86 -7c6 0 11 -5 11 -12v-28c0 -7 -5 -11 -11 -11h-170c-6 0 -11 4 -11 11
v267c0 114 -31 159 -110 159c-55 0 -110 -22 -150 -50v-329l86 -7c6 0 11 -5 11 -12v-28c0 -7 -5 -11 -11 -11h-267c-6 0 -11 4 -11 11zM322 -284l-15 9c-6 3 -6 8 -1 12c25 19 41 40 41 66c0 32 -34 44 -34 78c0 27 19 48 48 48c37 0 55 -27 55 -60
c0 -60 -29 -114 -76 -152c-5 -4 -12 -5 -18 -1z" />
    <glyph glyph-name="uni0156" unicode="&#x156;" horiz-adv-x="684" 
d="M24 11v28c0 7 5 12 11 12l91 7v586l-91 7c-6 1 -11 6 -11 12v29c0 6 5 11 11 11h291c165 0 272 -48 272 -194c0 -100 -63 -160 -162 -186c26 -11 50 -32 70 -64c30 -49 57 -115 98 -203l62 -4c6 -1 11 -6 11 -13v-28c0 -7 -5 -11 -11 -11h-142c-7 0 -13 4 -15 10
c-37 98 -66 176 -99 228c-25 39 -50 64 -110 64h-74v-243l97 -8c6 0 11 -5 11 -12v-28c0 -7 -5 -11 -11 -11h-288c-6 0 -11 4 -11 11zM226 637v-269h104c103 0 167 44 167 138c0 93 -66 131 -171 131h-100zM320 -284l-15 9c-6 3 -6 8 -1 12c25 19 41 40 41 66
c0 32 -34 44 -34 78c0 27 19 48 48 48c37 0 55 -27 55 -60c0 -60 -29 -114 -76 -152c-5 -4 -12 -5 -18 -1z" />
    <glyph glyph-name="uni0157" unicode="&#x157;" horiz-adv-x="432" 
d="M18 11v28c0 7 5 12 11 12l86 7v295c0 36 -1 68 -7 94l-79 7c-6 0 -11 5 -11 12v28c0 7 5 11 11 11h138c7 0 13 -4 16 -10c7 -19 14 -41 19 -61c25 42 66 81 140 81c25 0 46 -4 61 -7c6 -2 9 -8 8 -14l-13 -65c-2 -6 -7 -9 -14 -8c-15 5 -33 7 -53 7
c-52 0 -92 -19 -121 -55v-314l86 -8c6 0 11 -5 11 -12v-28c0 -7 -5 -11 -11 -11h-267c-6 0 -11 4 -11 11zM123 -284l-15 9c-6 3 -6 8 -1 12c25 19 41 40 41 66c0 32 -34 44 -34 78c0 27 19 48 48 48c37 0 55 -27 55 -60c0 -60 -29 -114 -76 -152c-5 -4 -12 -5 -18 -1z" />
    <glyph glyph-name="uni0162" unicode="&#x162;" horiz-adv-x="652" 
d="M36 703h580c6 0 11 -5 11 -11l5 -167c0 -7 -5 -11 -11 -11h-30c-7 0 -12 4 -14 11l-19 112h-182v-578l104 -8c6 -1 11 -5 11 -12v-28c0 -7 -5 -11 -11 -11h-308c-7 0 -11 4 -11 11v28c0 7 4 11 11 12l104 8v578h-183l-19 -112c-1 -7 -7 -11 -13 -11h-30
c-7 0 -11 4 -11 11l5 167c0 6 4 11 11 11zM283 -284l-15 9c-6 3 -6 8 -1 12c25 19 41 40 41 66c0 32 -34 44 -34 78c0 27 19 48 48 48c37 0 55 -27 55 -60c0 -60 -29 -114 -76 -152c-5 -4 -12 -5 -18 -1z" />
    <glyph glyph-name="uni0163" unicode="&#x163;" horiz-adv-x="377" 
d="M-2 451v32c0 6 4 11 11 12l78 6v158c0 6 4 11 11 11h72c6 0 11 -5 11 -11v-154h150c7 0 11 -4 11 -11v-43c0 -7 -4 -11 -11 -11h-150v-252c0 -90 26 -126 89 -126c24 0 47 4 68 12c6 3 11 0 11 -6l7 -48c1 -7 -3 -13 -9 -15c-28 -9 -60 -15 -92 -15
c-139 0 -168 82 -168 200v250h-78c-7 0 -11 4 -11 11zM199 -284l-15 9c-6 3 -6 8 -1 12c25 19 41 40 41 66c0 32 -34 44 -34 78c0 27 19 48 48 48c37 0 55 -27 55 -60c0 -60 -29 -114 -76 -152c-5 -4 -12 -5 -18 -1z" />
    <glyph glyph-name="uni0218" unicode="&#x218;" horiz-adv-x="607" 
d="M54 45l11 148c1 6 6 11 12 11h31c7 0 12 -5 13 -11l9 -108c47 -17 93 -26 149 -26c118 0 177 45 177 127c0 184 -389 70 -389 335c0 130 111 192 256 192c79 0 149 -15 197 -34c5 -3 10 -9 9 -16l-12 -148c-1 -7 -6 -11 -12 -11h-31c-7 0 -11 4 -13 11l-11 109
c-36 12 -77 20 -122 20c-99 0 -167 -40 -167 -114c0 -182 389 -74 389 -331c0 -124 -86 -209 -279 -209c-83 0 -150 12 -209 39c-5 2 -9 9 -8 16zM252 -284l-15 9c-6 3 -6 8 -1 12c25 19 41 40 41 66c0 32 -34 44 -34 78c0 27 19 48 48 48c37 0 55 -27 55 -60
c0 -60 -29 -114 -76 -152c-5 -4 -12 -5 -18 -1z" />
    <glyph glyph-name="uni0219" unicode="&#x219;" horiz-adv-x="470" 
d="M38 36l11 115c1 6 5 11 12 11h30c6 0 11 -4 13 -11l12 -84c32 -10 65 -14 98 -14c79 0 119 27 119 81c0 124 -286 44 -286 239c0 91 78 142 198 142c60 0 113 -11 150 -26c6 -2 10 -9 9 -15l-10 -116c-1 -6 -6 -11 -12 -11h-30c-7 0 -12 5 -13 11l-13 85
c-25 5 -55 9 -79 9c-68 0 -112 -25 -112 -73c0 -119 287 -46 287 -234c0 -94 -72 -155 -212 -155c-61 0 -115 9 -163 30c-5 2 -10 9 -9 16zM178 -284l-15 9c-6 3 -6 8 -1 12c25 19 41 40 41 66c0 32 -34 44 -34 78c0 27 19 48 48 48c37 0 55 -27 55 -60
c0 -60 -29 -114 -76 -152c-5 -4 -12 -5 -18 -1z" />
    <glyph glyph-name="uni021A" unicode="&#x21a;" horiz-adv-x="652" 
d="M36 703h580c6 0 11 -5 11 -11l5 -167c0 -7 -5 -11 -11 -11h-30c-7 0 -12 4 -14 11l-19 112h-182v-578l104 -8c6 -1 11 -5 11 -12v-28c0 -7 -5 -11 -11 -11h-308c-7 0 -11 4 -11 11v28c0 7 4 11 11 12l104 8v578h-183l-19 -112c-1 -7 -7 -11 -13 -11h-30
c-7 0 -11 4 -11 11l5 167c0 6 4 11 11 11zM283 -284l-15 9c-6 3 -6 8 -1 12c25 19 41 40 41 66c0 32 -34 44 -34 78c0 27 19 48 48 48c37 0 55 -27 55 -60c0 -60 -29 -114 -76 -152c-5 -4 -12 -5 -18 -1z" />
    <glyph glyph-name="uni021B" unicode="&#x21b;" horiz-adv-x="377" 
d="M-2 451v32c0 6 4 11 11 12l78 6v158c0 6 4 11 11 11h72c6 0 11 -5 11 -11v-154h150c7 0 11 -4 11 -11v-43c0 -7 -4 -11 -11 -11h-150v-252c0 -90 26 -126 89 -126c24 0 47 4 68 12c6 3 11 0 11 -6l7 -48c1 -7 -3 -13 -9 -15c-28 -9 -60 -15 -92 -15
c-139 0 -168 82 -168 200v250h-78c-7 0 -11 4 -11 11zM199 -284l-15 9c-6 3 -6 8 -1 12c25 19 41 40 41 66c0 32 -34 44 -34 78c0 27 19 48 48 48c37 0 55 -27 55 -60c0 -60 -29 -114 -76 -152c-5 -4 -12 -5 -18 -1z" />
    <glyph glyph-name="uni03A9" unicode="&#x3a9;" horiz-adv-x="704" 
d="M57 11v28c0 7 5 11 11 12l142 11v5c-96 55 -153 160 -153 312c0 190 99 334 294 334s294 -144 294 -334c0 -152 -57 -257 -153 -312v-5l142 -11c6 -1 11 -5 11 -12v-28c0 -7 -5 -11 -11 -11h-220c-6 0 -11 4 -11 11v45c0 7 3 14 9 18c83 61 134 150 134 294
c0 161 -63 273 -195 273s-195 -112 -195 -273c0 -144 52 -233 134 -294c6 -4 9 -11 9 -18v-45c0 -7 -5 -11 -11 -11h-220c-6 0 -11 4 -11 11z" />
    <glyph glyph-name="uniF639" unicode="&#xf639;" horiz-adv-x="607" 
d="M42 351c0 104 19 196 63 261c41 63 105 101 198 101s158 -38 199 -101c44 -65 62 -157 62 -261s-18 -195 -62 -260c-41 -63 -106 -101 -199 -101s-157 38 -198 101c-44 65 -63 156 -63 260zM141 351c0 -82 12 -153 38 -205s66 -84 124 -84c59 0 98 32 125 84
c26 52 38 123 38 205s-12 154 -38 206c-27 52 -66 84 -125 84c-58 0 -98 -32 -124 -84s-38 -124 -38 -206z" />
    <glyph glyph-name="uniF63A" unicode="&#xf63a;" horiz-adv-x="551" 
d="M30 11v32c0 7 3 15 7 20c138 174 363 272 363 442c0 77 -42 134 -142 134c-44 0 -91 -8 -129 -22l-14 -116c-1 -6 -5 -11 -12 -11h-31c-7 0 -11 5 -12 11l-13 152c-1 6 3 13 9 16c53 25 131 44 210 44c157 0 231 -83 231 -203c0 -184 -164 -244 -356 -439h294l24 103
c2 7 7 11 14 11h32c7 0 11 -4 10 -11l-9 -163c-1 -7 -6 -11 -12 -11h-453c-6 0 -11 4 -11 11z" />
    <glyph glyph-name="uniF63B" unicode="&#xf63b;" horiz-adv-x="520" 
d="M22 41l14 141c1 6 6 11 12 11h31c7 0 12 -5 13 -11l12 -99c33 -13 73 -20 112 -20c113 0 170 58 170 137c0 83 -52 129 -170 129h-59c-7 0 -11 5 -11 11v50c0 6 4 11 11 11h52c106 0 168 43 168 124c0 65 -45 114 -142 114c-39 0 -81 -8 -115 -21l-12 -98
c0 -7 -6 -11 -12 -11h-32c-6 0 -11 4 -12 11l-13 138c0 6 4 13 9 15c51 23 126 40 200 40c148 -1 221 -76 221 -178c0 -80 -44 -142 -128 -170c95 -21 143 -81 143 -173c0 -108 -89 -202 -266 -202c-73 0 -138 14 -187 36c-6 2 -10 9 -9 15z" />
    <glyph glyph-name="uniF63C" unicode="&#xf63c;" horiz-adv-x="577" 
d="M232 11v28c0 7 5 12 11 12l91 8v134h-295c-7 0 -11 4 -11 11v51c0 7 2 14 6 20l308 419c4 6 11 9 18 9h58c7 0 11 -5 11 -11v-426h113c6 0 11 -4 11 -11v-51c0 -7 -5 -11 -11 -11h-113v-134l91 -8c7 0 11 -5 11 -12v-28c0 -7 -4 -11 -11 -11h-277c-6 0 -11 4 -11 11z
M114 266h220v301z" />
    <glyph glyph-name="uniF63D" unicode="&#xf63d;" horiz-adv-x="548" 
d="M31 48l13 137c1 6 5 11 12 11h31c7 0 12 -5 12 -11l13 -96c37 -17 83 -26 128 -26c111 0 174 60 174 152c0 94 -59 144 -155 144c-51 0 -92 -13 -130 -35c-7 -3 -15 -4 -21 -3l-32 9c-6 1 -11 7 -10 13l23 349c1 6 6 11 12 11h398c6 0 11 -5 10 -11l-8 -160
c0 -7 -4 -11 -11 -11h-32c-7 0 -12 4 -13 11l-10 99h-265l-14 -228c37 15 80 26 129 26c138 0 226 -75 226 -211c0 -131 -95 -228 -272 -228c-74 0 -149 18 -199 42c-6 3 -10 9 -9 16z" />
    <glyph glyph-name="uniF63E" unicode="&#xf63e;" horiz-adv-x="579" 
d="M478 701l4 -56c1 -6 -4 -11 -10 -10c-177 7 -298 -106 -327 -262c47 36 106 62 173 62c142 0 219 -88 219 -211c0 -153 -108 -234 -238 -234c-173 0 -256 126 -256 298c0 228 154 432 424 424c7 0 11 -5 11 -11zM298 363c-58 0 -116 -28 -159 -69
c1 -156 63 -232 161 -232c82 0 141 54 141 158c0 80 -49 143 -143 143z" />
    <glyph glyph-name="uniF63F" unicode="&#xf63f;" horiz-adv-x="484" 
d="M26 703h439c6 0 12 -4 13 -11l7 -30c2 -7 1 -15 -2 -21l-282 -631c-2 -6 -9 -10 -15 -10h-90c-6 0 -9 4 -6 10l309 621h-309l-11 -103c-1 -6 -6 -11 -12 -11h-33c-6 0 -11 5 -11 11l-8 164c0 6 4 11 11 11z" />
    <glyph glyph-name="uniF640" unicode="&#xf640;" horiz-adv-x="604" 
d="M42 179c0 97 80 151 166 184c-73 34 -134 81 -134 176c0 108 89 174 227 174c146 0 227 -68 227 -172c0 -82 -60 -131 -134 -164c87 -35 167 -84 167 -195c0 -131 -124 -192 -262 -192c-136 0 -257 50 -257 189zM466 183c0 87 -92 117 -187 152
c-74 -32 -142 -79 -142 -153c0 -86 69 -120 164 -120c101 0 165 42 165 121zM166 538c0 -73 72 -103 155 -133c71 32 116 73 116 132c0 70 -51 105 -136 105c-84 0 -135 -35 -135 -104z" />
    <glyph glyph-name="uniF641" unicode="&#xf641;" horiz-adv-x="579" 
d="M101 2l-4 56c0 6 5 11 11 10c175 -7 297 106 326 261c-47 -37 -105 -61 -173 -61c-141 0 -218 87 -218 211c0 152 107 234 238 234c173 0 256 -126 256 -298c0 -229 -154 -432 -424 -424c-7 0 -11 4 -12 11zM282 340c58 0 114 27 159 69c-2 155 -64 232 -162 232
c-81 0 -140 -54 -140 -158c0 -80 48 -143 143 -143z" />
    <glyph glyph-name="uniF6DC" unicode="&#xf6dc;" horiz-adv-x="408" 
d="M13 11v28c0 7 4 11 11 12l138 8v574h-138c-7 0 -11 4 -11 11v28c0 7 4 11 11 13l163 21c7 2 16 2 22 2h42c6 0 11 -5 11 -11v-638l123 -8c6 -1 11 -5 11 -12v-28c0 -7 -5 -11 -11 -11h-361c-7 0 -11 4 -11 11z" />
    <glyph glyph-name="uogonek" unicode="&#x173;" horiz-adv-x="658" 
d="M602 -193c-20 -9 -43 -14 -66 -14c-70 0 -111 27 -111 82s50 99 142 125h-69c-7 0 -13 4 -16 10c-7 16 -12 32 -15 48c-52 -35 -117 -68 -192 -68c-131 0 -175 82 -175 231v225l-79 7c-7 1 -11 6 -11 13v28c0 7 4 11 11 11h163c6 0 11 -4 11 -11v-267
c0 -114 28 -159 107 -159c60 0 112 24 153 56v322l-86 7c-6 1 -11 6 -11 13v28c0 7 5 11 11 11h170c6 0 11 -4 11 -11v-342c0 -36 0 -68 6 -95l72 -6c7 0 11 -5 11 -12v-28c0 -7 -4 -11 -11 -11c-82 -26 -120 -66 -120 -106c0 -28 17 -41 49 -41c15 0 28 3 44 8
c6 2 10 -1 10 -7v-31c0 -7 -3 -14 -9 -16z" />
    <glyph glyph-name="uring" unicode="&#x16f;" horiz-adv-x="658" 
d="M21 505h163c6 0 11 -4 11 -11v-267c0 -114 28 -159 107 -159c60 0 112 24 153 56v322l-86 7c-6 1 -11 6 -11 13v28c0 7 5 11 11 11h170c6 0 11 -4 11 -11v-342c0 -36 0 -68 6 -95l72 -6c7 0 11 -5 11 -12v-28c0 -7 -4 -11 -11 -11h-130c-7 0 -13 4 -16 10
c-7 16 -12 32 -15 48c-52 -35 -117 -68 -192 -68c-131 0 -175 82 -175 231v225l-79 7c-7 1 -11 6 -11 13v28c0 7 4 11 11 11zM191 696c0 63 47 114 115 114s115 -51 115 -114s-47 -114 -115 -114s-115 51 -115 114zM247 696c0 -32 25 -59 59 -59s59 27 59 59
c0 31 -25 59 -59 59s-59 -28 -59 -59z" />
    <glyph glyph-name="v" unicode="v" horiz-adv-x="661" 
d="M21 505h249c7 0 11 -4 11 -11v-28c0 -7 -4 -12 -11 -12l-76 -7c31 -82 67 -168 103 -252c13 -29 24 -58 40 -103h6c16 45 27 74 40 103c35 83 71 171 102 252l-76 7c-7 0 -11 5 -11 12v28c0 7 4 11 11 11h231c6 0 11 -4 11 -11v-28c0 -7 -5 -12 -11 -13l-69 -6
c-60 -147 -159 -368 -197 -442c-3 -6 -10 -10 -17 -10h-52c-6 0 -13 4 -16 10c-39 74 -138 295 -199 442l-69 6c-7 1 -11 6 -11 13v28c0 7 4 11 11 11z" />
    <glyph glyph-name="w" unicode="w" horiz-adv-x="949" 
d="M21 505h229c6 0 11 -4 11 -11v-28c0 -7 -5 -12 -11 -13l-65 -5c33 -110 62 -198 93 -293c9 -29 16 -55 23 -90h4c9 35 16 61 26 90c32 99 59 184 95 293l-65 5c-6 1 -11 6 -11 13v28c0 7 5 11 11 11h243c6 0 11 -4 11 -11v-28c0 -7 -5 -12 -11 -13l-64 -5
c34 -109 60 -196 92 -293c9 -29 17 -55 25 -90h4c7 35 16 61 25 90c31 97 59 184 93 293l-64 5c-7 1 -11 6 -11 13v28c0 7 4 11 11 11h213c7 0 11 -4 11 -11v-28c0 -7 -4 -12 -11 -12l-65 -6c-45 -142 -109 -321 -154 -443c-2 -6 -8 -10 -14 -10h-87c-6 0 -12 4 -14 10
l-97 294c-8 22 -15 51 -21 79h-3c-6 -28 -14 -57 -22 -79c-34 -99 -68 -204 -99 -294c-3 -6 -8 -10 -15 -10h-85c-7 0 -12 4 -15 10c-45 128 -103 298 -149 443l-67 6c-7 0 -11 5 -11 12v28c0 7 4 11 11 11z" />
    <glyph glyph-name="wcircumflex" unicode="&#x175;" horiz-adv-x="949" 
d="M21 505h229c6 0 11 -4 11 -11v-28c0 -7 -5 -12 -11 -13l-65 -5c33 -110 62 -198 93 -293c9 -29 16 -55 23 -90h4c9 35 16 61 26 90c32 99 59 184 95 293l-65 5c-6 1 -11 6 -11 13v28c0 7 5 11 11 11h243c6 0 11 -4 11 -11v-28c0 -7 -5 -12 -11 -13l-64 -5
c34 -109 60 -196 92 -293c9 -29 17 -55 25 -90h4c7 35 16 61 25 90c31 97 59 184 93 293l-64 5c-7 1 -11 6 -11 13v28c0 7 4 11 11 11h213c7 0 11 -4 11 -11v-28c0 -7 -4 -12 -11 -12l-65 -6c-45 -142 -109 -321 -154 -443c-2 -6 -8 -10 -14 -10h-87c-6 0 -12 4 -14 10
l-97 294c-8 22 -15 51 -21 79h-3c-6 -28 -14 -57 -22 -79c-34 -99 -68 -204 -99 -294c-3 -6 -8 -10 -15 -10h-85c-7 0 -12 4 -15 10c-45 128 -103 298 -149 443l-67 6c-7 0 -11 5 -11 12v28c0 7 4 11 11 11zM461 773h41c6 0 13 -4 18 -9c45 -57 90 -121 131 -181
c4 -6 2 -9 -4 -9h-35c-6 0 -14 3 -19 8c-25 30 -83 86 -112 116c-39 -40 -78 -79 -112 -116c-4 -5 -12 -8 -19 -8h-34c-7 0 -9 3 -5 9c42 60 87 124 132 181c4 5 11 9 18 9z" />
    <glyph glyph-name="x" unicode="x" horiz-adv-x="604" 
d="M30 505h233c7 0 11 -4 11 -11v-28c0 -7 -4 -12 -11 -13l-55 -6c24 -31 49 -64 75 -96c8 -11 19 -30 27 -47h6c8 17 21 36 30 47l76 96l-56 6c-6 1 -11 6 -11 13v28c0 7 5 11 11 11h206c6 0 11 -4 11 -11v-28c0 -7 -5 -12 -11 -12l-62 -8c-46 -55 -103 -121 -157 -184
c56 -69 121 -144 168 -203l62 -7c7 -1 11 -6 11 -13v-28c0 -7 -4 -11 -11 -11h-233c-6 0 -11 4 -11 11v28c0 7 5 12 11 13l56 6l-82 104c-9 11 -22 31 -31 50h-6c-9 -19 -22 -38 -33 -50l-83 -104l56 -6c6 -1 11 -6 11 -13v-28c0 -7 -5 -11 -11 -11h-206c-7 0 -11 4 -11 11
v28c0 7 4 12 11 12l62 8c47 57 111 130 167 196c-55 65 -113 135 -157 191l-63 7c-6 1 -11 6 -11 13v28c0 7 5 11 11 11z" />
    <glyph glyph-name="y" unicode="y" horiz-adv-x="661" 
d="M21 505h249c6 0 11 -4 11 -11v-28c0 -7 -5 -12 -11 -12l-77 -7c32 -82 68 -175 101 -257c12 -30 24 -60 39 -105h6c16 45 29 75 41 105c34 80 72 173 106 257l-77 7c-6 0 -11 5 -11 12v28c0 7 5 11 11 11h231c6 0 11 -4 11 -11v-28c0 -7 -5 -12 -11 -13l-69 -6
c-64 -154 -168 -387 -203 -452c-63 -120 -119 -197 -179 -256c-5 -4 -11 -5 -17 -1l-48 43c-6 5 -6 10 0 14c61 49 124 120 164 194c-46 94 -142 322 -198 458l-69 6c-7 1 -11 6 -11 13v28c0 7 4 11 11 11z" />
    <glyph glyph-name="yacute" unicode="&#xfd;" horiz-adv-x="661" 
d="M21 505h249c6 0 11 -4 11 -11v-28c0 -7 -5 -12 -11 -12l-77 -7c32 -82 68 -175 101 -257c12 -30 24 -60 39 -105h6c16 45 29 75 41 105c34 80 72 173 106 257l-77 7c-6 0 -11 5 -11 12v28c0 7 5 11 11 11h231c6 0 11 -4 11 -11v-28c0 -7 -5 -12 -11 -13l-69 -6
c-64 -154 -168 -387 -203 -452c-63 -120 -119 -197 -179 -256c-5 -4 -11 -5 -17 -1l-48 43c-6 5 -6 10 0 14c61 49 124 120 164 194c-46 94 -142 322 -198 458l-69 6c-7 1 -11 6 -11 13v28c0 7 4 11 11 11zM369 773h77c7 0 8 -4 3 -9c-62 -63 -120 -124 -173 -182
c-3 -5 -11 -8 -18 -8h-34c-7 0 -9 3 -5 9c41 60 87 124 132 181c4 5 11 9 18 9z" />
    <glyph glyph-name="ycircumflex" unicode="&#x177;" horiz-adv-x="661" 
d="M21 505h249c6 0 11 -4 11 -11v-28c0 -7 -5 -12 -11 -12l-77 -7c32 -82 68 -175 101 -257c12 -30 24 -60 39 -105h6c16 45 29 75 41 105c34 80 72 173 106 257l-77 7c-6 0 -11 5 -11 12v28c0 7 5 11 11 11h231c6 0 11 -4 11 -11v-28c0 -7 -5 -12 -11 -13l-69 -6
c-64 -154 -168 -387 -203 -452c-63 -120 -119 -197 -179 -256c-5 -4 -11 -5 -17 -1l-48 43c-6 5 -6 10 0 14c61 49 124 120 164 194c-46 94 -142 322 -198 458l-69 6c-7 1 -11 6 -11 13v28c0 7 4 11 11 11zM315 773h41c6 0 13 -4 18 -9c45 -57 90 -121 131 -181
c4 -6 2 -9 -4 -9h-35c-6 0 -14 3 -19 8c-25 30 -83 86 -112 116c-39 -40 -78 -79 -112 -116c-4 -5 -12 -8 -19 -8h-34c-7 0 -9 3 -5 9c42 60 87 124 132 181c4 5 11 9 18 9z" />
    <glyph glyph-name="ydieresis" unicode="&#xff;" horiz-adv-x="661" 
d="M21 505h249c6 0 11 -4 11 -11v-28c0 -7 -5 -12 -11 -12l-77 -7c32 -82 68 -175 101 -257c12 -30 24 -60 39 -105h6c16 45 29 75 41 105c34 80 72 173 106 257l-77 7c-6 0 -11 5 -11 12v28c0 7 5 11 11 11h231c6 0 11 -4 11 -11v-28c0 -7 -5 -12 -11 -13l-69 -6
c-64 -154 -168 -387 -203 -452c-63 -120 -119 -197 -179 -256c-5 -4 -11 -5 -17 -1l-48 43c-6 5 -6 10 0 14c61 49 124 120 164 194c-46 94 -142 322 -198 458l-69 6c-7 1 -11 6 -11 13v28c0 7 4 11 11 11zM188 661c0 30 24 54 55 54c30 0 54 -24 54 -54s-24 -54 -54 -54
c-31 0 -55 24 -55 54zM374 661c0 30 24 54 54 54s55 -24 55 -54s-25 -54 -55 -54s-54 24 -54 54z" />
    <glyph glyph-name="yen" unicode="&#xa5;" 
d="M62 347v47c0 7 5 11 11 11h104c-51 93 -102 192 -145 276c-3 6 -1 11 6 12l75 14c6 1 13 -2 16 -8c33 -68 74 -149 112 -218c19 -33 36 -68 57 -113h5c21 45 40 81 61 116c39 68 84 152 119 215c3 7 9 9 16 7l63 -15c6 -2 9 -7 6 -13c-44 -80 -100 -181 -154 -273h102
c7 0 11 -4 11 -11v-47c0 -6 -4 -11 -11 -11h-142l-29 -47v-55h171c7 0 11 -4 11 -11v-47c0 -6 -4 -11 -11 -11h-171v-154c0 -7 -5 -11 -11 -11h-78c-7 0 -11 4 -11 11v154h-172c-6 0 -11 5 -11 11v47c0 7 5 11 11 11h172v51c-10 16 -20 33 -30 51h-142c-6 0 -11 5 -11 11z
" />
    <glyph glyph-name="z" unicode="z" horiz-adv-x="481" 
d="M40 505h392c7 0 12 -4 13 -11l5 -26c1 -7 -1 -14 -6 -19c-23 -27 -52 -61 -73 -90l-154 -203c-25 -33 -52 -66 -76 -95l130 4h112l21 85c1 6 7 11 13 11h29c6 0 11 -5 10 -11l-8 -139c-1 -7 -5 -11 -12 -11h-392c-7 0 -12 4 -13 11l-5 26c-1 7 1 14 6 19
c25 29 62 72 85 106l144 189c27 38 52 66 76 94l-128 -5h-110l-9 -85c-1 -6 -6 -11 -13 -11h-30c-6 0 -11 5 -11 11l-6 139c-1 7 4 11 10 11z" />
    <glyph glyph-name="zacute" unicode="&#x17a;" horiz-adv-x="481" 
d="M40 505h392c7 0 12 -4 13 -11l5 -26c1 -7 -1 -14 -6 -19c-23 -27 -52 -61 -73 -90l-154 -203c-25 -33 -52 -66 -76 -95l130 4h112l21 85c1 6 7 11 13 11h29c6 0 11 -5 10 -11l-8 -139c-1 -7 -5 -11 -12 -11h-392c-7 0 -12 4 -13 11l-5 26c-1 7 1 14 6 19
c25 29 62 72 85 106l144 189c27 38 52 66 76 94l-128 -5h-110l-9 -85c-1 -6 -6 -11 -13 -11h-30c-6 0 -11 5 -11 11l-6 139c-1 7 4 11 10 11zM308 773h77c7 0 8 -4 3 -9c-62 -63 -120 -124 -173 -182c-3 -5 -11 -8 -18 -8h-34c-7 0 -9 3 -5 9c41 60 87 124 132 181
c4 5 11 9 18 9z" />
    <glyph glyph-name="zcaron" unicode="&#x17e;" horiz-adv-x="481" 
d="M40 505h392c7 0 12 -4 13 -11l5 -26c1 -7 -1 -14 -6 -19c-23 -27 -52 -61 -73 -90l-154 -203c-25 -33 -52 -66 -76 -95l130 4h112l21 85c1 6 7 11 13 11h29c6 0 11 -5 10 -11l-8 -139c-1 -7 -5 -11 -12 -11h-392c-7 0 -12 4 -13 11l-5 26c-1 7 1 14 6 19
c25 29 62 72 85 106l144 189c27 38 52 66 76 94l-128 -5h-110l-9 -85c-1 -6 -6 -11 -13 -11h-30c-6 0 -11 5 -11 11l-6 139c-1 7 4 11 10 11zM267 574h-41c-7 0 -14 3 -18 9c-45 57 -90 120 -132 181c-4 5 -2 9 5 9h34c7 0 15 -4 19 -8c34 -37 73 -77 112 -117
c29 30 87 87 112 116c5 5 13 9 19 9h35c6 0 8 -4 4 -9c-41 -61 -86 -124 -131 -181c-5 -6 -12 -9 -18 -9z" />
    <glyph glyph-name="zdotaccent" unicode="&#x17c;" horiz-adv-x="481" 
d="M40 505h392c7 0 12 -4 13 -11l5 -26c1 -7 -1 -14 -6 -19c-23 -27 -52 -61 -73 -90l-154 -203c-25 -33 -52 -66 -76 -95l130 4h112l21 85c1 6 7 11 13 11h29c6 0 11 -5 10 -11l-8 -139c-1 -7 -5 -11 -12 -11h-392c-7 0 -12 4 -13 11l-5 26c-1 7 1 14 6 19
c25 29 62 72 85 106l144 189c27 38 52 66 76 94l-128 -5h-110l-9 -85c-1 -6 -6 -11 -13 -11h-30c-6 0 -11 5 -11 11l-6 139c-1 7 4 11 10 11zM187 662c0 30 25 54 55 54c31 0 55 -24 55 -54c0 -31 -24 -55 -55 -55c-30 0 -55 24 -55 55z" />
    <glyph glyph-name="zero" unicode="0" 
d="M39 351c0 104 19 196 63 261c41 63 105 101 198 101s158 -38 199 -101c44 -65 62 -157 62 -261s-18 -195 -62 -260c-41 -63 -106 -101 -199 -101s-157 38 -198 101c-44 65 -63 156 -63 260zM138 351c0 -82 12 -153 38 -205s66 -84 124 -84c59 0 98 32 125 84
c26 52 38 123 38 205s-12 154 -38 206c-27 52 -66 84 -125 84c-58 0 -98 -32 -124 -84s-38 -124 -38 -206z" />
    <glyph glyph-name="Oslash" unicode="&#xd8;" horiz-adv-x="702" 
d="M153 -36l29 72c-90 61 -126 179 -126 315c0 200 79 362 295 362c38 0 72 -5 102 -15l17 41c2 6 9 10 15 10h56c7 0 9 -4 7 -10l-30 -73c91 -62 128 -180 128 -315c0 -201 -80 -361 -295 -361c-39 0 -74 5 -104 15l-17 -41c-2 -6 -8 -10 -15 -10h-56c-6 0 -9 4 -6 10z
M545 351c0 101 -18 182 -61 233l-208 -508c21 -9 46 -14 75 -14c139 0 194 114 194 289zM156 351c0 -101 18 -182 60 -232l208 508c-21 9 -45 14 -73 14c-139 0 -195 -115 -195 -290z" />
    </font>
</defs>
</svg>
