<?xml version="1.0" encoding="UTF-8"?>
<!DOCTYPE svg PUBLIC "-//W3C//DTD SVG 1.1//EN" "http://www.w3.org/Graphics/SVG/1.1/DTD/svg11.dtd">
<!-- Creator: CorelDRAW 2018 (64-Bit Evaluation Version) -->
<svg xmlns="http://www.w3.org/2000/svg" xml:space="preserve" width="423px" height="100px" version="1.1" style="shape-rendering:geometricPrecision; text-rendering:geometricPrecision; image-rendering:optimizeQuality; fill-rule:evenodd; clip-rule:evenodd"
viewBox="0 0 7.79 1.84"
 xmlns:xlink="http://www.w3.org/1999/xlink">
 <defs>
  <style type="text/css">
   <![CDATA[
    .fil1 {fill:#00C3B7}
    .fil0 {fill:#FEFEFE;fill-rule:nonzero}
   ]]>
  </style>
 </defs>
 <g id="Layer_x0020_1">
  <metadata id="CorelCorpID_0Corel-Layer"/>
  <path class="fil0" d="M0.79 0.49c-0.08,-0.08 -0.18,-0.12 -0.31,-0.12 -0.13,0 -0.24,0.05 -0.34,0.15 -0.09,0.1 -0.14,0.23 -0.14,0.37 0,0.15 0.05,0.28 0.14,0.38 0.1,0.1 0.21,0.15 0.34,0.15 0.13,0 0.23,-0.04 0.31,-0.12 0,-0.01 0,-0.01 0.01,-0.01 0,0.01 0.01,0.01 0.01,0.01l0 0.08c0,0 0,0.01 0.01,0.01l0.23 0c0.01,0 0.01,-0.01 0.01,-0.01l0 -1.37c0,0 0,-0.01 -0.01,-0.01l-0.23 0c-0.01,0 -0.01,0.01 -0.01,0.01l0 0.47c0,0.01 -0.01,0.01 -0.01,0.01 -0.01,0 -0.01,0 -0.01,0zm-0.46 0.61c-0.05,-0.06 -0.07,-0.13 -0.07,-0.21 0,-0.08 0.02,-0.15 0.07,-0.2 0.06,-0.05 0.12,-0.08 0.2,-0.08 0.08,0 0.15,0.03 0.2,0.08 0.05,0.05 0.08,0.12 0.08,0.2 0,0.08 -0.03,0.15 -0.08,0.21 -0.05,0.05 -0.12,0.07 -0.2,0.07 -0.08,0 -0.14,-0.02 -0.2,-0.07zm1.62 -0.17c0,0.17 -0.08,0.25 -0.22,0.25 -0.12,0 -0.19,-0.07 -0.19,-0.21l0 -0.56c0,-0.01 -0.01,-0.01 -0.02,-0.01l-0.23 0c0,0 -0.01,0 -0.01,0.01l0 0.6c0,0.13 0.04,0.22 0.11,0.3 0.07,0.07 0.16,0.11 0.27,0.11 0.12,0 0.21,-0.04 0.27,-0.11 0,-0.01 0.01,-0.01 0.01,-0.01 0.01,0 0.01,0.01 0.01,0.01l0 0.07c0,0 0.01,0.01 0.01,0.01l0.24 0c0,0 0.01,-0.01 0.01,-0.01l0 -0.97c0,-0.01 -0.01,-0.01 -0.01,-0.01l-0.24 0c0,0 -0.01,0 -0.01,0.01l0 0.52zm1.04 -0.56c-0.12,0 -0.21,0.04 -0.27,0.11 0,0 -0.01,0.01 -0.01,0 -0.01,0 -0.01,0 -0.01,-0.01l0 -0.46c0,0 -0.01,-0.01 -0.01,-0.01l-0.24 0c0,0 -0.01,0.01 -0.01,0.01l0 1.37c0,0 0.01,0.01 0.01,0.01l0.24 0c0,0 0.01,-0.01 0.01,-0.01l0 -0.53c0,-0.16 0.08,-0.24 0.22,-0.24 0.12,0 0.19,0.07 0.19,0.2l0 0.57c0,0 0.01,0.01 0.01,0.01l0.24 0c0,0 0.01,-0.01 0.01,-0.01l0 -0.6c0,-0.13 -0.04,-0.23 -0.11,-0.3 -0.07,-0.07 -0.16,-0.11 -0.27,-0.11zm1.07 1.47c0.09,0 0.16,-0.07 0.16,-0.15 0,-0.08 -0.07,-0.16 -0.16,-0.16 -0.09,0 -0.16,0.08 -0.16,0.16 0,0.08 0.07,0.15 0.16,0.15zm0.37 -0.57c0.1,-0.1 0.16,-0.23 0.16,-0.38 0,-0.14 -0.06,-0.27 -0.16,-0.37 -0.1,-0.1 -0.22,-0.15 -0.37,-0.15 -0.15,0 -0.27,0.05 -0.37,0.15 -0.1,0.1 -0.15,0.23 -0.15,0.37 0,0.15 0.05,0.28 0.15,0.38 0.1,0.1 0.22,0.15 0.37,0.15 0.15,0 0.27,-0.05 0.37,-0.15zm-0.56 -0.18c-0.05,-0.05 -0.08,-0.12 -0.08,-0.2 0,-0.08 0.03,-0.14 0.08,-0.19 0.05,-0.05 0.11,-0.08 0.19,-0.08 0.08,0 0.14,0.03 0.19,0.08 0.05,0.05 0.08,0.11 0.08,0.19 0,0.08 -0.03,0.15 -0.08,0.2 -0.05,0.05 -0.11,0.08 -0.19,0.08 -0.08,0 -0.14,-0.03 -0.19,-0.08zm1.37 0.33c0.19,0 0.35,-0.1 0.44,-0.25 0,0 0,-0.01 0,-0.01 0,0 0,0 0,-0.01l-0.2 -0.11c-0.01,0 -0.01,0 -0.01,0 -0.01,0 -0.01,0 -0.01,0 -0.04,0.08 -0.12,0.12 -0.22,0.12 -0.08,0 -0.14,-0.02 -0.19,-0.07 -0.05,-0.05 -0.08,-0.12 -0.08,-0.2 0,-0.16 0.11,-0.27 0.27,-0.27 0.09,0 0.18,0.05 0.22,0.12 0,0.01 0,0.01 0.01,0.01 0,0 0,0 0,0l0.2 -0.12c0.01,0 0.01,-0.01 0.01,-0.01 -0.08,-0.16 -0.25,-0.25 -0.44,-0.25 -0.15,0 -0.27,0.05 -0.38,0.15 -0.1,0.1 -0.14,0.22 -0.14,0.37 0,0.15 0.04,0.28 0.14,0.38 0.11,0.1 0.23,0.15 0.38,0.15zm0.8 -0.05c0.06,-0.07 0.06,-0.18 0,-0.24 -0.07,-0.07 -0.18,-0.07 -0.24,0 -0.07,0.06 -0.07,0.17 0,0.24 0.06,0.06 0.17,0.06 0.24,0zm0.39 -1.06c0.09,0 0.16,-0.07 0.16,-0.15 0,-0.09 -0.07,-0.16 -0.16,-0.16 -0.09,0 -0.16,0.07 -0.16,0.16 0,0.08 0.07,0.15 0.16,0.15zm0.13 1.07l0 -0.97c0,-0.01 -0.01,-0.01 -0.01,-0.01l-0.24 0c0,0 -0.01,0 -0.01,0.01l0 0.97c0,0 0.01,0.01 0.01,0.01l0.24 0c0,0 0.01,-0.01 0.01,-0.01zm1.08 -0.11c0.1,-0.1 0.15,-0.23 0.15,-0.38 0,-0.14 -0.05,-0.27 -0.15,-0.37 -0.1,-0.1 -0.23,-0.15 -0.38,-0.15 -0.14,0 -0.27,0.05 -0.37,0.15 -0.1,0.1 -0.15,0.23 -0.15,0.37 0,0.15 0.05,0.28 0.15,0.38 0.1,0.1 0.23,0.15 0.37,0.15 0.15,0 0.28,-0.05 0.38,-0.15zm-0.57 -0.18c-0.05,-0.05 -0.07,-0.12 -0.07,-0.2 0,-0.08 0.02,-0.14 0.07,-0.19 0.05,-0.05 0.12,-0.08 0.19,-0.08 0.08,0 0.15,0.03 0.2,0.08 0.05,0.05 0.07,0.11 0.07,0.19 0,0.08 -0.02,0.15 -0.07,0.2 -0.05,0.05 -0.12,0.08 -0.2,0.08 -0.07,0 -0.14,-0.03 -0.19,-0.08z"/>
  <path class="fil1" d="M4.06 1.53c-0.09,0 -0.16,0.08 -0.16,0.16 0,0.08 0.07,0.15 0.16,0.15 0.09,0 0.16,-0.07 0.16,-0.15 0,-0.08 -0.07,-0.16 -0.16,-0.16z"/>
 </g>
</svg>
