<svg xmlns="http://www.w3.org/2000/svg" width="63" height="60" viewBox="0 0 63 60">
    <defs>
        <filter id="prefix__a">
            <feColorMatrix in="SourceGraphic" values="0 0 0 0 0.956863 0 0 0 0 0.474510 0 0 0 0 0.125490 0 0 0 1.000000 0"/>
        </filter>
    </defs>
    <g fill="none" fill-rule="evenodd" filter="url(#prefix__a)" transform="translate(-994 -666)">
        <g fill="#262626">
            <path d="M47.622 57.4h-2.98c-3.354-2.137-3.738-6.036-3.446-8.971.035-.367-.085-.73-.33-1.003-.248-.271-.598-.426-.966-.426h-1.386v2.6h.004c-.068 3.136.72 5.795 2.287 7.8H20.61c1.568-2.005 2.355-4.664 2.287-7.8h.004V47h-1.385c-.369 0-.719.155-.966.426-.246.273-.366.636-.33 1.003.291 2.935-.093 6.834-3.447 8.971h-2.98c-.72 0-1.301.581-1.301 1.3 0 .719.582 1.3 1.301 1.3H47.622c.72 0 1.301-.581 1.301-1.3 0-.719-.581-1.3-1.3-1.3" transform="translate(994 666)"/>
            <path d="M58.822 47.5H3.632c-.568 0-1.03-.444-1.03-.99V10h57.25v36.51c0 .546-.461.99-1.03.99m-55.19-45h55.19c.569 0 1.03.444 1.03.99V7.5H2.603V3.49c0-.546.462-.99 1.03-.99M58.823 0H3.632C1.63 0 0 1.566 0 3.49v43.02C0 48.434 1.63 50 3.633 50h55.19c2.002 0 3.632-1.566 3.632-3.49V3.49c0-1.924-1.63-3.49-3.633-3.49" transform="translate(994 666)"/>
            <path d="M9.368 4.5c0 .83-.7 1.5-1.561 1.5-.862 0-1.561-.67-1.561-1.5S6.945 3 7.806 3c.863 0 1.562.67 1.562 1.5M14.573 4.5c0 .83-.7 1.5-1.561 1.5-.862 0-1.562-.67-1.562-1.5s.7-1.5 1.562-1.5c.861 0 1.56.67 1.56 1.5M19.777 4.5c0 .83-.699 1.5-1.56 1.5-.863 0-1.562-.67-1.562-1.5s.7-1.5 1.561-1.5c.862 0 1.561.67 1.561 1.5M16.886 38h-9.31c-.736 0-1.33-.571-1.33-1.278V16.278c0-.707.594-1.278 1.33-1.278h21.28c.736 0 1.33.571 1.33 1.278v8.944c0 .707-.594 1.278-1.33 1.278-.735 0-1.33-.571-1.33-1.278v-7.666H8.907v17.888h7.98c.736 0 1.33.572 1.33 1.278 0 .707-.594 1.278-1.33 1.278" transform="translate(994 666)"/>
            <path d="M25.9 35.904c.335 0 .657.127.893.356l5.004 4.808 1.584-1.521-5.006-4.808c-.237-.227-.37-.535-.37-.858 0-.323.133-.632.37-.859l1.702-1.635-8.467-1.627 1.694 8.134 1.702-1.634c.236-.229.557-.356.893-.356M31.797 44c-.336 0-.657-.128-.894-.356L25.9 38.835l-2.477 2.38c-.33.317-.813.435-1.26.304-.447-.129-.782-.485-.873-.924L18.761 28.45c-.083-.398.047-.81.345-1.096.299-.288.727-.41 1.142-.332l12.64 2.429c.458.087.828.409.962.838.134.428.014.893-.316 1.21l-2.478 2.38 5.006 4.808c.238.227.37.536.37.859 0 .323-.132.631-.37.858l-3.371 3.24c-.237.227-.558.355-.894.355M54.909 18H36.692c-.72 0-1.3-.67-1.3-1.5s.58-1.5 1.3-1.5H54.91c.72 0 1.3.67 1.3 1.5s-.58 1.5-1.3 1.5M54.909 24H36.692c-.72 0-1.3-.67-1.3-1.5s.58-1.5 1.3-1.5H54.91c.72 0 1.3.67 1.3 1.5s-.58 1.5-1.3 1.5M54.909 30H36.692c-.72 0-1.3-.67-1.3-1.5s.58-1.5 1.3-1.5H54.91c.72 0 1.3.67 1.3 1.5s-.58 1.5-1.3 1.5M54.857 36H44.03c-.748 0-1.353-.67-1.353-1.5s.605-1.5 1.353-1.5h10.826c.748 0 1.353.67 1.353 1.5s-.605 1.5-1.353 1.5" transform="translate(994 666)"/>
        </g>
    </g>
</svg>
