<svg xmlns="http://www.w3.org/2000/svg" width="87" height="62" viewBox="0 0 87 62">
    <defs>
        <filter id="prefix__a">
            <feColorMatrix in="SourceGraphic" values="0 0 0 0 0.956863 0 0 0 0 0.474510 0 0 0 0 0.125490 0 0 0 1.000000 0"/>
        </filter>
    </defs>
    <g fill="none" fill-rule="evenodd" filter="url(#prefix__a)" transform="translate(-122 -666)">
        <g fill="#000" fill-rule="nonzero">
            <path d="M82.312 30.4H70.53l-6.629-4.472v-7.447c2.873-1.913 4.757-5.087 4.757-8.675 0-3.343-1.687-6.526-4.515-8.514-.564-.396-1.301-.456-1.925-.155-.62.298-1.005.896-1.005 1.559v4.687c0 .63-.537 1.142-1.198 1.142H55.32c-.66 0-1.197-.512-1.197-1.142V2.56c0-.653-.377-1.247-.984-1.55-.61-.303-1.341-.258-1.908.12-3.006 2-4.782 5.28-4.75 8.772.027 2.824 1.188 5.462 3.27 7.43.463.437.962.828 1.488 1.176v3.876h-12.61c-1.8 0-3.568.588-4.979 1.655L25.245 30.4h-2.569c-1.727 0-3.449.217-5.117.643L5.126 34.219c-2.501.63-4.248 2.794-4.248 5.261v8.243c0 1.666 1.421 3.02 3.167 3.02h9.549c.76 3.097 3.678 5.41 7.153 5.41 3.475 0 6.392-2.313 7.153-5.41h18.803c-.136.648-.211 1.314-.22 1.992-.048 3.457 1.684 6.723 4.632 8.74.565.385 1.299.437 1.915.136.614-.301.995-.897.995-1.555v-5.098c0-.63.537-1.142 1.197-1.142h4.696c.66 0 1.197.512 1.197 1.142v5.098c0 .66.383 1.257.999 1.56.265.13.552.194.838.194.372 0 .74-.11 1.056-.324 1.957-1.333 3.382-3.223 4.108-5.353 3.234-.226 5.892-2.455 6.613-5.39h8.338c1.746 0 3.167-1.354 3.167-3.02V34.14c0-2.062-1.76-3.74-3.922-3.74zm-3.028 8.982c-.663 0-1.203-.515-1.203-1.148 0-.632.54-1.147 1.203-1.147h4.454v2.295h-4.454zM66.208 30.4h-2.307v-1.557l2.307 1.557zM48.978 9.88c-.021-2.278.95-4.44 2.65-5.993v3.496c0 1.942 1.656 3.522 3.692 3.522h4.695c2.037 0 3.694-1.58 3.694-3.522V4.077c1.555 1.52 2.454 3.582 2.454 5.729 0 4.519-3.855 8.195-8.593 8.195-4.776 0-8.55-3.567-8.593-8.12zm-.723 14.884h2.984V30.4h-2.984v-5.636zm-27.508 29.01c-2.675 0-4.852-2.077-4.852-4.628 0-2.552 2.177-4.627 4.852-4.627 2.675 0 4.851 2.075 4.851 4.627 0 2.551-2.176 4.627-4.851 4.627zm7.82-5.41h-.52c-.41-3.497-3.527-6.226-7.3-6.226-3.775 0-6.892 2.729-7.301 6.225h-.52v-.145c0-4.112 3.508-7.458 7.82-7.458s7.82 3.346 7.82 7.458v.145zm2.496 0v-.146c0-5.424-4.628-9.838-10.316-9.838-5.689 0-10.316 4.414-10.316 9.838v.145H4.045c-.37 0-.67-.287-.67-.64v-4.682c.407.63 1.055 1.05 1.855 1.197.209.038.423.057.644.057.665 0 1.384-.172 2.146-.515 2.316-1.042 3.51-2.944 2.778-4.424-.733-1.48-3.031-1.81-5.346-.769-1.022.46-1.691 1.044-2.078 1.661v-.768c0-1.388.983-2.605 2.394-2.96l12.436-3.178c1.458-.373 2.963-.562 4.472-.562h8.318c.69 0 1.248-.533 1.248-1.19 0-.657-.559-1.19-1.248-1.19H29.26l5.943-4.497c.97-.735 2.188-1.14 3.427-1.14h7.13V30.4h-9.025c-.689 0-1.248.533-1.248 1.19 0 .657.559 1.19 1.248 1.19h14.505v11.39c-1.634 1.074-2.902 2.523-3.718 4.193H31.063zM6.516 40.74c.646-.29 1.205-.38 1.585-.38.16 0 .288.016.378.04-.131.273-.607.815-1.524 1.227-.717.323-1.116.299-1.254.273-.154-.028-.195-.086-.226-.15-.127-.256.31-.681 1.041-1.01zm57.095 17.962v-3.744c0-1.942-1.657-3.522-3.693-3.522h-4.696c-2.036 0-3.693 1.58-3.693 3.522v3.745c-1.646-1.555-2.582-3.695-2.551-5.936.04-2.878 1.59-5.468 4.15-6.927.34-.193.567-.542.601-.917.003-.029.004-.058.005-.086l.001-.019V19.74c1.21.42 2.503.641 3.835.641 1.347 0 2.64-.231 3.835-.653v23.225c-1.012-.356-2.094-.576-3.223-.635-.69-.03-1.277.467-1.314 1.124-.038.656.49 1.217 1.178 1.253 4.551.236 8.117 3.83 8.117 8.183 0 2.198-.935 4.296-2.552 5.824zm4.718-8.392c-.231-.885-.582-1.726-1.032-2.508.09-.016.185-.026.279-.026.792 0 1.436.615 1.436 1.37 0 .492-.274.923-.683 1.164zm.297 3.353c.021-.26.033-.523.033-.786l-.003-.126c1.644-.45 2.852-1.895 2.852-3.605 0-2.068-1.764-3.75-3.932-3.75-.627 0-1.23.14-1.772.401-.214-.226-.437-.443-.67-.65.733-.41 1.568-.629 2.442-.629 2.675 0 4.852 2.076 4.852 4.628 0 2.208-1.63 4.058-3.802 4.517zm6.77-5.3h-.52c-.408-3.496-3.526-6.225-7.3-6.225-1.315 0-2.571.328-3.675.938v-1.442c1.127-.573 2.384-.874 3.675-.874 4.312 0 7.82 3.346 7.82 7.458v.145zm7.67 0h-5.174v-.145c0-5.424-4.628-9.838-10.316-9.838-1.267 0-2.51.22-3.675.644V32.78h18.411c.786 0 1.426.61 1.426 1.36v.566h-4.453c-2.04 0-3.7 1.583-3.7 3.528 0 1.946 1.66 3.528 3.7 3.528h4.453v5.961c0 .353-.301.64-.671.64z" transform="matrix(-1 0 0 1 209 666)"/>
            <path d="M44.337 36.81h-2.602c-.72 0-1.302.448-1.302 1s.583 1 1.302 1h2.602c.719 0 1.3-.448 1.3-1 .002-.552-.581-1-1.3-1zM20.656 45.81c-2.296 0-4.164 1.794-4.164 4s1.868 4 4.164 4c2.295 0 4.163-1.794 4.163-4s-1.868-4-4.163-4zm0 5.461c-.839 0-1.52-.656-1.52-1.461s.681-1.461 1.52-1.461c.838 0 1.52.656 1.52 1.46 0 .806-.682 1.462-1.52 1.462z" transform="matrix(-1 0 0 1 209 666)"/>
        </g>
    </g>
</svg>
