<svg xmlns="http://www.w3.org/2000/svg" xmlns:xlink="http://www.w3.org/1999/xlink" width="63" height="64" viewBox="0 0 63 64">
    <defs>
        <filter id="prefix__a">
            <feColorMatrix in="SourceGraphic" values="0 0 0 0 0.956863 0 0 0 0 0.474510 0 0 0 0 0.125490 0 0 0 1.000000 0"/>
        </filter>
        <path id="prefix__b" d="M0 64L62.455 64 62.455 4 0 4z"/>
    </defs>
    <g fill="none" fill-rule="evenodd" filter="url(#prefix__a)" transform="translate(-565 -666)">
        <g transform="translate(565 666)">
            <path fill="#262626" d="M61.154 19H1.301C.581 19 0 18.33 0 17.5S.582 16 1.301 16h59.853c.72 0 1.301.67 1.301 1.5s-.581 1.5-1.3 1.5"/>
            <path fill="#262626" d="M24.722 57.5v-15c0-.691-.582-1.25-1.301-1.25H13.01c-.719 0-1.3.559-1.3 1.25v15H7.806V26.2c2.147-.152 4.027-1.214 5.205-2.809 1.273 1.724 3.355 2.859 5.718 2.859h.273c2.457 0 4.614-1.223 5.868-3.063 1.393 1.852 3.65 3.063 6.204 3.063h.305c2.553 0 4.812-1.211 6.204-3.063 1.254 1.84 3.411 3.063 5.868 3.063h.273c2.363 0 4.445-1.135 5.719-2.859 1.177 1.595 3.059 2.657 5.204 2.809v31.3H24.722zm-10.41 0h7.808V43.75h-7.807V57.5zM2.603 19.506v-1.652L12.438 2.5h5.183l-5.825 14.551c-.031.077-.026.155-.04.234-.014.073-.046.139-.046.215v2.006c0 2.341-1.98 4.244-4.417 4.244H7.02c-2.437 0-4.418-1.902-4.418-4.244zm36.433-.61V17.5c0-.034-.019-.061-.021-.095-.003-.033.01-.063.005-.095L36.647 2.5h5.397l6.099 15.234v1.772c0 2.341-1.98 4.244-4.418 4.244h-.273c-2.437 0-4.417-1.902-4.417-4.244v-.61zm-13.012-1.301L28.441 2.5h5.575l2.416 15.095v1.301c0 2.677-2.266 4.854-5.052 4.854h-.305c-2.785 0-5.052-2.177-5.052-4.854v-1.301zm-11.71.139L20.41 2.5h5.396l-2.37 14.81c-.006.033.006.063.003.095-.002.034-.02.061-.02.095v2.006c0 2.341-1.98 4.244-4.417 4.244h-.273c-2.437 0-4.417-1.902-4.417-4.244v-1.772zm41.123 6.016h-.274c-2.437 0-4.417-1.902-4.417-4.244V17.5c0-.078-.031-.144-.046-.216-.014-.078-.01-.156-.04-.233L44.832 2.5h5.186l9.835 15.354v1.652c0 2.341-1.98 4.244-4.417 4.244zm7.02-4.244V17.5c0-.032-.018-.06-.02-.091-.007-.083-.026-.16-.051-.241-.023-.084-.05-.163-.09-.238-.015-.027-.017-.059-.032-.085L51.853.595c-.027-.042-.068-.065-.1-.102-.056-.068-.112-.13-.18-.185-.064-.054-.132-.096-.205-.134-.07-.039-.14-.07-.217-.096-.089-.027-.175-.042-.267-.052-.048-.003-.09-.026-.14-.026H11.71c-.05 0-.09.022-.139.026-.092.01-.18.025-.268.053-.077.025-.144.056-.215.093-.074.04-.141.082-.21.137-.065.055-.121.115-.176.182-.031.038-.073.061-.1.104L.192 16.845c-.016.026-.016.058-.03.085-.042.075-.068.154-.092.236-.023.081-.044.16-.05.243-.003.031-.02.059-.02.091v2.006c0 3.113 2.217 5.713 5.205 6.486V57.5H1.3C.581 57.5 0 58.059 0 58.75S.582 60 1.301 60h59.853c.72 0 1.301-.559 1.301-1.25s-.581-1.25-1.3-1.25H57.25V25.992c2.988-.773 5.204-3.373 5.204-6.486z"/>
            <mask id="prefix__c" fill="#fff">
                <use xlink:href="#prefix__b"/>
            </mask>
            <path fill="#262626" d="M30.765 52.524h18.62V31.476h-18.62v21.048zM50.716 29H29.435c-.736 0-1.33.553-1.33 1.238v23.524c0 .685.594 1.238 1.33 1.238h21.281c.735 0 1.33-.553 1.33-1.238V30.238c0-.685-.595-1.238-1.33-1.238zM14.157 36.5h8.119v-5h-8.12v5zm9.472-7.5H12.803c-.748 0-1.353.559-1.353 1.25v7.5c0 .691.605 1.25 1.353 1.25H23.63c.748 0 1.353-.559 1.353-1.25v-7.5c0-.691-.605-1.25-1.353-1.25z" mask="url(#prefix__c)"/>
            <path fill="#262626" d="M41.845 50h3.747c.691 0 1.25-.536 1.25-1.2v-3.6c0-.664-.559-1.2-1.25-1.2-.69 0-1.249.536-1.249 1.2v2.4h-2.498c-.69 0-1.25.536-1.25 1.2 0 .664.56 1.2 1.25 1.2" mask="url(#prefix__c)"/>
        </g>
    </g>
</svg>
