<svg xmlns="http://www.w3.org/2000/svg" width="20" height="24" viewBox="0 0 20 24">
  <path id="pin" d="M10,24h0a57.278,57.278,0,0,1-5-4.928,30.783,30.783,0,0,1-3.437-4.554A9.265,9.265,0,0,1,0,10a10,10,0,1,1,20,0,9.265,9.265,0,0,1-1.562,4.518A30.783,30.783,0,0,1,15,19.071,57.279,57.279,0,0,1,10,24ZM10,2a8.009,8.009,0,0,0-8,8c0,2.282,2.175,5.152,4,7.157A43.631,43.631,0,0,0,10,21a43.533,43.533,0,0,0,4-3.843c1.825-2.005,4-4.874,4-7.157A8.009,8.009,0,0,0,10,2Zm0,12a4,4,0,1,1,4-4A4,4,0,0,1,10,14Zm0-6a2,2,0,1,0,2,2A2,2,0,0,0,10,8Z" transform="translate(0 0)" fill="#5d5d5d"/>
</svg>
