<svg xmlns="http://www.w3.org/2000/svg" xmlns:xlink="http://www.w3.org/1999/xlink" width="84" height="84" viewBox="0 0 84 84">
  <defs>
    <filter id="Oval" x="0" y="0" width="84" height="84" filterUnits="userSpaceOnUse">
      <feOffset dy="2" input="SourceAlpha"/>
      <feGaussianBlur stdDeviation="2" result="blur"/>
      <feFlood flood-opacity="0.2"/>
      <feComposite operator="in" in2="blur"/>
      <feComposite in="SourceGraphic"/>
    </filter>
  </defs>
  <g id="Group_2" data-name="Group 2" transform="translate(6 4)">
    <g transform="matrix(1, 0, 0, 1, -6, -4)" filter="url(#Oval)">
      <circle id="Oval-2" data-name="Oval" cx="36" cy="36" r="36" transform="translate(6 4)" fill="#f47920"/>
    </g>
    <path id="Path" d="M30,3.4V17.971a3.38,3.38,0,0,1-3.361,3.4L15,21.417,8.182,29V21.417H3.361A3.38,3.38,0,0,1,0,18.02V3.447A3.38,3.38,0,0,1,3.361.049L26.639,0A3.38,3.38,0,0,1,30,3.4Z" transform="translate(15 28)" fill="#fff"/>
    <path id="Path-2" data-name="Path" d="M26.639.048,3.361,0A3.38,3.38,0,0,0,0,3.4v4.22l17.094-.036a3.38,3.38,0,0,1,3.361,3.4V23.692L25.227,29V21.417h1.412A3.38,3.38,0,0,0,30,18.02V3.447A3.38,3.38,0,0,0,26.639.048Z" transform="translate(26 19)" fill="#fff" opacity="0.8"/>
  </g>
</svg>
