<svg id="accept_copy" data-name="accept copy" xmlns="http://www.w3.org/2000/svg" width="42.001" height="42.001" viewBox="0 0 42.001 42.001">
  <g id="accept" transform="translate(0 0)">
    <path id="accept-2" data-name="accept" d="M21,42A21,21,0,0,1,6.151,6.151a21,21,0,1,1,29.7,29.7A20.864,20.864,0,0,1,21,42ZM19.215,29.72h0c.05,0,.1.007.152.007a1.574,1.574,0,0,0,1.108-.461,1.424,1.424,0,0,0,.384-.684L29.522,13.21a1.831,1.831,0,0,0-.63-2.481,1.756,1.756,0,0,0-.879-.236,1.734,1.734,0,0,0-.47.065,1.757,1.757,0,0,0-1.066.846l-7.8,13.838-3.816-3.823a1.575,1.575,0,0,0-2.222,2.224l4.936,4.931a1.6,1.6,0,0,0,1.533,1.15Q19.159,29.724,19.215,29.72Z" fill="#b9b9b9"/>
  </g>
</svg>
