<svg xmlns="http://www.w3.org/2000/svg" width="22" height="24" viewBox="0 0 22 24">
  <g id="Path" transform="translate(2 2)" fill="none" stroke-linejoin="round" stroke-miterlimit="10">
    <path d="M18,18.35V19a.954.954,0,0,1-.9,1H15.3C6.85,20,0,12.389,0,3V1A.954.954,0,0,1,.9,0H4.5a.954.954,0,0,1,.9,1V5a2.894,2.894,0,0,1-.63,1.7L2.844,8.84a14.392,14.392,0,0,0,7.2,8l1.908-2.12a2.338,2.338,0,0,1,1.53-.71H17.1a.955.955,0,0,1,.891,1v3.35Z" stroke="none"/>
    <path d="M 17.10000038146973 20 C 17.59705924987793 20 18 19.55228042602539 18 19 L 18 18.35000038146973 L 17.99099922180176 18.36000061035156 L 17.99099922180176 15.01000022888184 C 17.99102020263672 14.4616003036499 17.59354019165039 14.01548004150391 17.10000038146973 14.01000022888184 L 13.48200035095215 14.01000022888184 C 12.98700046539307 14.01000022888184 12.3120002746582 14.31999969482422 11.95199966430664 14.72000026702881 L 10.04399967193604 16.84000015258789 C 6.803999900817871 15.31999969482422 4.211999893188477 12.4399995803833 2.844000101089478 8.840000152587891 L 4.769999980926514 6.699999809265137 C 5.120999813079834 6.309999942779541 5.400000095367432 5.559999942779541 5.400000095367432 5 L 5.400000095367432 1 C 5.400000095367432 0.4477199912071228 4.99705982208252 0 4.5 0 L 0.8999999761581421 0 C 0.4029400050640106 0 0 0.4477199912071228 0 1 L 0 3 C 0 12.38883972167969 6.850039958953857 20 15.30000019073486 20 L 17.10000038146973 20 M 17.10000038146973 22 L 15.30000019073486 22 C 12.93820953369141 22 10.6483097076416 21.48661994934082 8.493880271911621 20.47413063049316 C 6.42933988571167 19.50387954711914 4.579140186309814 18.11926078796387 2.994679927825928 16.35873985290527 C -0.2261900007724762 12.77999973297119 -2 8.03577995300293 -2 3 L -2 1 C -2 -0.6542099714279175 -0.6990699768066406 -2 0.8999999761581421 -2 L 4.5 -2 C 6.099070072174072 -2 7.400000095367432 -0.6542099714279175 7.400000095367432 1 L 7.400000095367432 5 C 7.400000095367432 6.057179927825928 6.940499782562256 7.278029918670654 6.256589889526367 8.037929534912109 L 5.18683910369873 9.226542472839355 C 6.214539051055908 11.34568691253662 7.76380443572998 13.12431144714355 9.619292259216309 14.32220077514648 L 10.46541023254395 13.38206958770752 C 11.20401954650879 12.5613899230957 12.41629981994629 12.01000022888184 13.48200035095215 12.01000022888184 L 17.10000038146973 12.01000022888184 C 17.10740089416504 12.01000022888184 17.11479949951172 12.01004028320313 17.1222095489502 12.0101203918457 C 18.70412063598633 12.02768993377686 19.99106025695801 13.373459815979 19.99099922180176 15.01006984710693 L 19.99099922180176 18.1600227355957 C 19.99696159362793 18.22272491455078 20 18.28611373901367 20 18.35000038146973 L 20 19 C 20 20.65420913696289 18.69906997680664 22 17.10000038146973 22 Z" stroke="none" fill="#5d5d5d"/>
  </g>
</svg>
