<svg xmlns="http://www.w3.org/2000/svg" width="24" height="22" viewBox="0 0 24 22">
    <defs>
        <filter id="prefix__a">
            <feColorMatrix in="SourceGraphic" values="0 0 0 0 0.956863 0 0 0 0 0.474510 0 0 0 0 0.125490 0 0 0 1.000000 0"/>
        </filter>
    </defs>
    <g fill="none" fill-rule="evenodd" filter="url(#prefix__a)" transform="translate(-835 -3904)">
        <path fill="#006EFF" d="M848.935 3925.03v-3.95c0-.536.43-.97.958-.97 1.888 0 2.914-1.96 3.057-5.83h-3.057c-.529 0-.958-.434-.958-.97v-8.34c0-.536.43-.97.958-.97h8.15c.529 0 .957.434.957.97v8.34c0 1.855-.184 3.557-.548 5.06-.373 1.54-.945 2.888-1.7 4.004-.778 1.148-1.75 2.048-2.89 2.675-1.149.631-2.484.951-3.969.951-.529 0-.958-.434-.958-.97zm-12.977-4.92c-.529 0-.958.435-.958.97v3.95c0 .536.43.97.958.97 1.484 0 2.82-.32 3.967-.951 1.141-.627 2.114-1.527 2.891-2.675.756-1.116 1.328-2.463 1.7-4.004.364-1.504.549-3.206.549-5.06v-8.34c0-.536-.43-.97-.958-.97h-8.149c-.529 0-.958.434-.958.97v8.34c0 .536.43.97.958.97h3.013c-.14 3.87-1.152 5.83-3.013 5.83z"/>
    </g>
</svg>
