<svg id="Lager_1" data-name="Lager 1" xmlns="http://www.w3.org/2000/svg" viewBox="0 0 1786.52 330.84"><defs><style>.cls-1{fill:#f89e5d;}.cls-2{fill:#f47920;}.cls-3{fill:#231f20;}</style></defs><title>logo</title><path class="cls-1" d="M175.31,141.45V59.95l73-42.28-9.73,18.17s58.27,32.34,66.1,41.47c9.49,11.08,9,33.29-8.81,52.55-20.18,21.84-41,31-43.33,29.93C244.27,156,188.64,125,188.64,125Z" transform="translate(-14.78 -17.67)"/><path class="cls-2" d="M65.78,280.5S245.59,181.28,282,157.3c35.93-23.7,38.41-50.74,38.41-50.74v136.9s.67,7.35-7.68,13.58c-5.43,4.1-145.59,85.51-145.59,85.51Z" transform="translate(-14.78 -17.67)"/><path class="cls-1" d="M83.85,169.85l74,43L54.16,271.44s-32.4-13.85-32.55-35.19C21.36,198,83.85,169.85,83.85,169.85Z" transform="translate(-14.78 -17.67)"/><path class="cls-2" d="M14.78,91.76s.58-5.61,6.79-12.23c5.72-6.08,68.57-43.86,68.57-43.86L80.88,18.12l73,41.5v81.31l-14-15.09S86.82,152,53.77,173.11c-40,25.54-38.94,52.3-38.94,52.3Z" transform="translate(-14.78 -17.67)"/><path class="cls-3" d="M453.54,242.08H417V65.85h36.58Z" transform="translate(-14.78 -17.67)"/><path class="cls-3" d="M585.41,119.23q12.8,10.58,12.8,35.09v87.75H563.3V162.81q0-10.28-2.73-15.78-5-10-19-10-17.21,0-23.62,14.71-3.32,7.77-3.32,19.85v70.54H480.57V112h33v19q6.55-10,12.38-14.47,10.47-7.89,26.55-7.89Q572.61,108.65,585.41,119.23Z" transform="translate(-14.78 -17.67)"/><path class="cls-3" d="M611.6,137.23V113h18.17V76.61h33.71V113h21.16v24.27H663.49v68.86q0,8,2,10T678,218q1.55,0,3.29-.06t3.41-.18v25.46l-16.14.6q-24.15.83-33-8.37-5.74-5.86-5.74-18.05V137.23Z" transform="translate(-14.78 -17.67)"/><path class="cls-3" d="M791.45,114.4A53,53,0,0,1,814,133.68a64,64,0,0,1,10.38,26.94q1.38,9,1.12,25.86H730.56q.79,19.61,13.63,27.5,7.81,4.9,18.79,4.9,11.64,0,18.92-6a28.65,28.65,0,0,0,7-9H823.7q-1.38,11.6-12.63,23.55-17.51,19-49,19a71,71,0,0,1-45.9-16q-19.89-16-19.89-52.17,0-33.86,18-51.93t46.6-18.07A74.2,74.2,0,0,1,791.45,114.4Zm-51,29.43q-7.22,7.45-9.08,20.17h58.7q-.93-13.57-9.08-20.59t-20.21-7Q747.7,136.39,740.48,143.83Z" transform="translate(-14.78 -17.67)"/><path class="cls-3" d="M915.1,108.71q.66.06,2.93.18V143.8q-3.23-.36-5.74-.48t-4.06-.12q-20.56,0-27.62,13.39-3.94,7.53-3.95,23.19v62.29H842.35V111.76h32.52v22.72q7.89-13,13.75-17.81,9.56-8,24.87-8Q914.44,108.65,915.1,108.71Z" transform="translate(-14.78 -17.67)"/><path class="cls-3" d="M1043.07,119.23q12.8,10.58,12.8,35.09v87.75H1021V162.81q0-10.28-2.73-15.78-5-10-19-10-17.21,0-23.62,14.71-3.32,7.77-3.32,19.85v70.54H938.23V112h33v19q6.54-10,12.38-14.47,10.48-7.89,26.55-7.89Q1030.28,108.65,1043.07,119.23Z" transform="translate(-14.78 -17.67)"/><path class="cls-3" d="M1139.17,162.81q9.51-1.19,13.61-3,7.35-3.11,7.35-9.68,0-8-5.64-11.06t-16.54-3q-12.24,0-17.33,6-3.64,4.42-4.85,12h-32.88q1.08-17.09,9.61-28.1,13.57-17.22,46.59-17.22,21.49,0,38.18,8.49t16.69,32V209q0,6.22.24,15.06.36,6.7,2,9.09a12.19,12.19,0,0,0,5,3.95v5h-37.06a37.78,37.78,0,0,1-2.15-7.41q-.6-3.47-1-7.89a70.35,70.35,0,0,1-16.36,13,49.43,49.43,0,0,1-25,6.34q-17.8,0-29.4-10.1t-11.6-28.63q0-24,18.67-34.79,10.24-5.86,30.11-8.37Zm20.83,15.9a37.69,37.69,0,0,1-6.61,3.29,55.91,55.91,0,0,1-9.15,2.33l-7.76,1.43q-10.91,1.91-15.66,4.66-8.05,4.66-8,14.47,0,8.73,4.92,12.61a18.68,18.68,0,0,0,12,3.89,35.62,35.62,0,0,0,20.58-6.46q9.41-6.46,9.77-23.55Z" transform="translate(-14.78 -17.67)"/><path class="cls-3" d="M1258.52,242.08h-34.07V65.85h34.07Z" transform="translate(-14.78 -17.67)"/><path class="cls-3" d="M1306.44,84.26q21.29-21.76,54.17-21.76,44,0,64.34,29.17,11.24,16.38,12.06,32.88H1400.2q-3.51-12.67-9-19.13-9.84-11.48-29.16-11.48-19.68,0-31,16.2T1319.62,156q0,29.65,12,44.42t30.46,14.76q18.94,0,28.89-12.67,5.49-6.81,9.12-20.44h36.58q-4.73,28.81-24.19,46.87T1362.62,247q-37.61,0-59.14-24.39T1282,155.4Q1282,109.25,1306.44,84.26Z" transform="translate(-14.78 -17.67)"/><path class="cls-3" d="M1510.4,162.81q9.51-1.19,13.61-3,7.35-3.11,7.35-9.68,0-8-5.64-11.06t-16.54-3q-12.24,0-17.33,6-3.64,4.42-4.85,12h-32.88q1.08-17.09,9.61-28.1,13.57-17.22,46.59-17.22,21.49,0,38.18,8.49t16.69,32V209q0,6.22.24,15.06.36,6.7,2,9.09a12.19,12.19,0,0,0,5,3.95v5h-37.06a37.78,37.78,0,0,1-2.15-7.41q-.6-3.47-1-7.89a70.35,70.35,0,0,1-16.36,13,49.43,49.43,0,0,1-25,6.34q-17.8,0-29.4-10.1t-11.6-28.63q0-24,18.67-34.79,10.24-5.86,30.11-8.37Zm20.83,15.9a37.69,37.69,0,0,1-6.61,3.29,55.91,55.91,0,0,1-9.15,2.33l-7.76,1.43q-10.91,1.91-15.66,4.66-8.05,4.66-8,14.47,0,8.73,4.92,12.61a18.68,18.68,0,0,0,12,3.89,35.62,35.62,0,0,0,20.58-6.46q9.41-6.46,9.77-23.55Z" transform="translate(-14.78 -17.67)"/><path class="cls-3" d="M1667.35,108.71q.65.06,2.93.18V143.8q-3.23-.36-5.74-.48t-4.07-.12q-20.56,0-27.62,13.39-3.94,7.53-3.95,23.19v62.29H1594.6V111.76h32.52v22.72q7.89-13,13.75-17.81,9.56-8,24.87-8Q1666.69,108.65,1667.35,108.71Z" transform="translate(-14.78 -17.67)"/><path class="cls-3" d="M1716.66,200.47q1.08,9.09,4.69,12.91,6.37,6.81,23.54,6.81,10.09,0,16-3t5.95-9a9.67,9.67,0,0,0-4.79-8.73q-4.79-3-35.65-10.28-22.21-5.5-31.3-13.75T1686.06,152q0-18.05,14.2-31t40-13q24.44,0,39.84,9.74t17.67,33.65h-34.07q-.72-6.57-3.72-10.4-5.64-6.93-19.18-6.93-11.15,0-15.88,3.47t-4.74,8.13a8.89,8.89,0,0,0,5,8.49q5,2.75,35.58,9.44,20.36,4.78,30.52,14.47t10,24.51q0,19.37-14.44,31.62t-44.62,12.25q-30.79,0-45.46-13t-14.67-33.06Z" transform="translate(-14.78 -17.67)"/><path class="cls-3" d="M418.21,282.31h21.35q8.73,0,12.42,5.18a11.91,11.91,0,0,1,2.17,7.06,11.12,11.12,0,0,1-2.66,7.67,13,13,0,0,1-4,2.89,16.78,16.78,0,0,1,5.68,3.26q3.33,3.23,3.33,8.91a13.72,13.72,0,0,1-3,8.64q-4.5,5.78-14.31,5.78h-21Zm18.85,20.88a15.29,15.29,0,0,0,6.66-1.18q3.74-1.85,3.74-6.66t-4-6.52a18,18,0,0,0-6.66-.94H424.76v15.3ZM439.32,326q6.21,0,8.86-3.56a8.92,8.92,0,0,0,1.66-5.45,7.25,7.25,0,0,0-4.85-7.33,18.54,18.54,0,0,0-6.82-1H424.76V326Z" transform="translate(-14.78 -17.67)"/><path class="cls-3" d="M488.48,296.69a13.64,13.64,0,0,1,5.45,4.66,16.13,16.13,0,0,1,2.41,6.35,41.83,41.83,0,0,1,.53,7.93H470.68a15.56,15.56,0,0,0,2.57,8.82q2.4,3.32,7.44,3.32a9.56,9.56,0,0,0,7.51-3.14,10.71,10.71,0,0,0,2.22-4.22h6a12.54,12.54,0,0,1-1.56,4.42,15.9,15.9,0,0,1-3,4,14,14,0,0,1-6.77,3.63,20.43,20.43,0,0,1-4.9.54,15,15,0,0,1-11.33-4.89q-4.64-4.89-4.64-13.7t4.68-14.09a15.39,15.39,0,0,1,12.23-5.41A16.24,16.24,0,0,1,488.48,296.69Zm2.17,14.14a15.79,15.79,0,0,0-1.7-6.29q-2.47-4.37-8.23-4.37a9.09,9.09,0,0,0-6.93,3,11.42,11.42,0,0,0-3,7.65Z" transform="translate(-14.78 -17.67)"/><path class="cls-3" d="M527.31,297.14a16.59,16.59,0,0,1,3.48,3.43V296h5.58v32.74q0,6.86-2,10.83-3.75,7.33-14.17,7.33a17.35,17.35,0,0,1-9.75-2.61q-4-2.61-4.42-8.15h6.15a6.85,6.85,0,0,0,1.74,3.73q2,2,6.42,2,6.92,0,9.06-4.91,1.27-2.89,1.17-10.32a11.84,11.84,0,0,1-4.35,4.1A15.56,15.56,0,0,1,509.27,328q-4.37-4.15-4.37-13.73,0-9,4.4-14.12a13.6,13.6,0,0,1,10.63-5.08A13,13,0,0,1,527.31,297.14Zm.74,6.49a8.77,8.77,0,0,0-7-3.23,8.63,8.63,0,0,0-8.7,6,23.57,23.57,0,0,0-1.24,8.37q0,6.08,2.46,9.26a7.92,7.92,0,0,0,6.61,3.18,9.27,9.27,0,0,0,9.13-5.88,19.07,19.07,0,0,0,1.47-7.77Q530.79,306.86,528,303.63Z" transform="translate(-14.78 -17.67)"/><path class="cls-3" d="M585,282.31v5.88H568.41v43.5h-6.76V288.2H545v-5.88Z" transform="translate(-14.78 -17.67)"/><path class="cls-3" d="M607.75,296.69a13.64,13.64,0,0,1,5.45,4.66,16.13,16.13,0,0,1,2.41,6.35,41.83,41.83,0,0,1,.53,7.93H590a15.56,15.56,0,0,0,2.57,8.82q2.4,3.32,7.44,3.32a9.56,9.56,0,0,0,7.51-3.14,10.71,10.71,0,0,0,2.22-4.22h6a12.54,12.54,0,0,1-1.56,4.42,15.9,15.9,0,0,1-3,4,14,14,0,0,1-6.77,3.63,20.43,20.43,0,0,1-4.9.54,15,15,0,0,1-11.33-4.89q-4.64-4.89-4.64-13.7t4.68-14.09a15.39,15.39,0,0,1,12.23-5.41A16.24,16.24,0,0,1,607.75,296.69Zm2.17,14.14a15.79,15.79,0,0,0-1.7-6.29q-2.47-4.37-8.23-4.37a9.09,9.09,0,0,0-6.93,3,11.42,11.42,0,0,0-3,7.65Z" transform="translate(-14.78 -17.67)"/><path class="cls-3" d="M630.16,320.4A8.68,8.68,0,0,0,631.7,325Q634,328,639.8,328a12.13,12.13,0,0,0,6-1.46,4.84,4.84,0,0,0,2.61-4.52,3.86,3.86,0,0,0-2.08-3.53,25.15,25.15,0,0,0-5.26-1.71l-4.89-1.21a24.05,24.05,0,0,1-6.9-2.55,7.61,7.61,0,0,1-4-6.79,10.32,10.32,0,0,1,3.73-8.27q3.73-3.16,10-3.16,8.24,0,11.89,4.77a10.28,10.28,0,0,1,2.22,6.52H647.5a6.85,6.85,0,0,0-1.48-3.71q-2.13-2.37-7.4-2.37a9,9,0,0,0-5.32,1.31,4.06,4.06,0,0,0-1.81,3.45,4.23,4.23,0,0,0,2.37,3.75,14.42,14.42,0,0,0,4,1.48l4.08,1q6.64,1.58,8.91,3.06,3.53,2.32,3.53,7.29a11.05,11.05,0,0,1-3.69,8.3q-3.69,3.5-11.25,3.5-8.14,0-11.52-3.65a13.7,13.7,0,0,1-3.62-9Z" transform="translate(-14.78 -17.67)"/><path class="cls-3" d="M665,285.64h6.12v10.05h5.75v4.94h-5.75v23.5a2.54,2.54,0,0,0,1.28,2.52,5.42,5.42,0,0,0,2.35.37l.94,0q.5,0,1.18-.11v4.81a13.48,13.48,0,0,1-2.17.44,20.79,20.79,0,0,1-2.44.13q-4.24,0-5.75-2.17a9.64,9.64,0,0,1-1.51-5.63V300.64h-4.87v-4.94H665Z" transform="translate(-14.78 -17.67)"/><path class="cls-3" d="M726.25,348.51h-5.08V278.25h5.08Z" transform="translate(-14.78 -17.67)"/><path class="cls-3" d="M770.94,282.31h22.45a22,22,0,0,1,9.14,1.65q6.83,3.16,6.83,11.67a12.15,12.15,0,0,1-7,11.8,10.1,10.1,0,0,1,4.35,3.09q1.46,1.92,1.63,6.22l.24,6.62a20.34,20.34,0,0,0,.47,4.2,4.13,4.13,0,0,0,2.15,3v1.11H803a6.14,6.14,0,0,1-.54-1.65,31.56,31.56,0,0,1-.34-3.9l-.4-8.24q-.23-4.84-3.49-6.49a14.08,14.08,0,0,0-5.85-.91h-14.8V331.7h-6.69Zm21.73,22.63a12.34,12.34,0,0,0,7.24-1.88q2.67-1.88,2.67-6.79,0-5.28-3.73-7.19a11.88,11.88,0,0,0-5.33-1H777.63v16.88Z" transform="translate(-14.78 -17.67)"/><path class="cls-3" d="M844,296.69a13.64,13.64,0,0,1,5.45,4.66,16.13,16.13,0,0,1,2.41,6.35,41.83,41.83,0,0,1,.53,7.93H826.24a15.56,15.56,0,0,0,2.57,8.82q2.4,3.32,7.44,3.32a9.56,9.56,0,0,0,7.51-3.14A10.71,10.71,0,0,0,846,320.4h6a12.54,12.54,0,0,1-1.56,4.42,15.9,15.9,0,0,1-3,4,14,14,0,0,1-6.77,3.63,20.43,20.43,0,0,1-4.9.54,15,15,0,0,1-11.33-4.89q-4.64-4.89-4.64-13.7t4.68-14.09a15.39,15.39,0,0,1,12.23-5.41A16.24,16.24,0,0,1,844,296.69Zm2.17,14.14a15.79,15.79,0,0,0-1.7-6.29q-2.47-4.37-8.23-4.37a9.09,9.09,0,0,0-6.93,3,11.42,11.42,0,0,0-3,7.65Z" transform="translate(-14.78 -17.67)"/><path class="cls-3" d="M862.84,295.69h6v5.11a20.1,20.1,0,0,1,3.9-3.87,11.74,11.74,0,0,1,6.79-2.05,10.69,10.69,0,0,1,6.93,2.12,11.08,11.08,0,0,1,2.69,3.56,13.08,13.08,0,0,1,4.74-4.29,13.22,13.22,0,0,1,6.12-1.4q7.26,0,9.88,5.25a17.14,17.14,0,0,1,1.41,7.6v24H905v-25q0-3.6-1.8-4.94a7.12,7.12,0,0,0-4.39-1.34,8.71,8.71,0,0,0-6.14,2.39q-2.57,2.39-2.57,8V331.7H884V308.2a12.21,12.21,0,0,0-.87-5.35q-1.38-2.52-5.14-2.52A8.88,8.88,0,0,0,871.7,303q-2.81,2.66-2.81,9.61v19.1h-6.05Z" transform="translate(-14.78 -17.67)"/><path class="cls-3" d="M942.25,309.91a3.29,3.29,0,0,0,2.79-1.75,5.36,5.36,0,0,0,.4-2.33,4.94,4.94,0,0,0-2.2-4.51,11.73,11.73,0,0,0-6.29-1.4q-4.73,0-6.71,2.57a8.5,8.5,0,0,0-1.44,4.22h-5.65q.17-6.68,4.31-9.29a17.66,17.66,0,0,1,9.62-2.61q6.35,0,10.31,2.42a8.21,8.21,0,0,1,3.93,7.53v20.74a2.65,2.65,0,0,0,.39,1.51,1.87,1.87,0,0,0,1.63.57,9,9,0,0,0,.91-.05q.51,0,1.08-.15v4.47a16.82,16.82,0,0,1-2.15.5,15.89,15.89,0,0,1-2,.1,5,5,0,0,1-4.54-2.22,8.56,8.56,0,0,1-1-3.33,15.4,15.4,0,0,1-5.31,4.2,16.44,16.44,0,0,1-7.63,1.78,11.36,11.36,0,0,1-8.19-3,10.09,10.09,0,0,1-3.18-7.61,9.79,9.79,0,0,1,3.13-7.76,14.88,14.88,0,0,1,8.2-3.39Zm-12.74,16.35a7.12,7.12,0,0,0,4.54,1.51,13.82,13.82,0,0,0,6.19-1.48,8.31,8.31,0,0,0,5-8V313.4a10.31,10.31,0,0,1-2.85,1.18,24,24,0,0,1-3.42.67l-3.66.47a14.14,14.14,0,0,0-4.94,1.38,5.35,5.35,0,0,0-2.81,5A5,5,0,0,0,929.51,326.26Z" transform="translate(-14.78 -17.67)"/><path class="cls-3" d="M964.17,295.69h5.75v6.22a13.75,13.75,0,0,1,3.46-4.42,9,9,0,0,1,6.35-2.61l.57,0,1.38.13v6.39a9.26,9.26,0,0,0-1-.13c-.3,0-.63,0-1,0a8.63,8.63,0,0,0-7,2.94,10.27,10.27,0,0,0-2.45,6.77V331.7h-6.05Z" transform="translate(-14.78 -17.67)"/><path class="cls-3" d="M989.54,282.31h5.82V311l15.52-15.29h7.73l-13.84,13.39,14.62,22.62h-7.73l-11.33-18.32-5,4.81V331.7h-5.82Z" transform="translate(-14.78 -17.67)"/><path class="cls-3" d="M1049.1,296.69a13.65,13.65,0,0,1,5.45,4.66,16.14,16.14,0,0,1,2.41,6.35,41.82,41.82,0,0,1,.54,7.93h-26.19a15.56,15.56,0,0,0,2.57,8.82q2.4,3.32,7.44,3.32a9.56,9.56,0,0,0,7.51-3.14,10.71,10.71,0,0,0,2.22-4.22h6a12.55,12.55,0,0,1-1.56,4.42,15.91,15.91,0,0,1-3,4,14,14,0,0,1-6.77,3.63,20.44,20.44,0,0,1-4.9.54,15,15,0,0,1-11.33-4.89q-4.64-4.89-4.64-13.7t4.68-14.09a15.39,15.39,0,0,1,12.23-5.41A16.24,16.24,0,0,1,1049.1,296.69Zm2.17,14.14a15.8,15.8,0,0,0-1.7-6.29q-2.47-4.37-8.23-4.37a9.09,9.09,0,0,0-6.93,3,11.41,11.41,0,0,0-3,7.65Z" transform="translate(-14.78 -17.67)"/><path class="cls-3" d="M1069.11,285.64h6.12v10.05H1081v4.94h-5.75v23.5a2.54,2.54,0,0,0,1.28,2.52,5.42,5.42,0,0,0,2.35.37l.94,0q.5,0,1.18-.11v4.81a13.5,13.5,0,0,1-2.17.44,20.8,20.8,0,0,1-2.44.13q-4.23,0-5.75-2.17a9.63,9.63,0,0,1-1.51-5.63V300.64h-4.87v-4.94h4.87Z" transform="translate(-14.78 -17.67)"/><path class="cls-3" d="M1089.79,282.31h6.15v6.86h-6.15Zm0,13.55h6.15V331.7h-6.15Z" transform="translate(-14.78 -17.67)"/><path class="cls-3" d="M1107.84,295.69h5.75v5.11a16.12,16.12,0,0,1,5.41-4.54,14.44,14.44,0,0,1,6.35-1.38q7.66,0,10.35,5.35,1.48,2.93,1.48,8.37v23.1H1131V309a12.28,12.28,0,0,0-1-5.31q-1.61-3.36-5.85-3.36a11.91,11.91,0,0,0-3.53.44,9.09,9.09,0,0,0-4.37,3,8.92,8.92,0,0,0-2,3.68,24.84,24.84,0,0,0-.45,5.43V331.7h-6.05Z" transform="translate(-14.78 -17.67)"/><path class="cls-3" d="M1168.9,297.14a16.57,16.57,0,0,1,3.48,3.43V296H1178v32.74q0,6.86-2,10.83-3.75,7.33-14.17,7.33a17.35,17.35,0,0,1-9.75-2.61q-4-2.61-4.42-8.15h6.15a6.86,6.86,0,0,0,1.74,3.73q2,2,6.42,2,6.92,0,9.06-4.91,1.27-2.89,1.17-10.32a11.85,11.85,0,0,1-4.35,4.1,15.56,15.56,0,0,1-16.93-2.81q-4.37-4.15-4.37-13.73,0-9,4.4-14.12a13.6,13.6,0,0,1,10.63-5.08A13,13,0,0,1,1168.9,297.14Zm.74,6.49a8.77,8.77,0,0,0-7-3.23,8.63,8.63,0,0,0-8.7,6,23.57,23.57,0,0,0-1.24,8.37q0,6.08,2.46,9.26a7.92,7.92,0,0,0,6.61,3.18,9.27,9.27,0,0,0,9.13-5.88,19.06,19.06,0,0,0,1.47-7.77Q1172.38,306.86,1169.64,303.63Z" transform="translate(-14.78 -17.67)"/><path class="cls-3" d="M1231.92,348.51h-5.08V278.25h5.08Z" transform="translate(-14.78 -17.67)"/><path class="cls-3" d="M1272.25,282.15h6.05v18.42a17.43,17.43,0,0,1,3.87-3.83,13,13,0,0,1,7.29-1.92q7.83,0,10.62,5.48a18.68,18.68,0,0,1,1.51,8.3v23.1h-6.22V309a12.69,12.69,0,0,0-1-5.82q-1.65-3-6.19-3a10.31,10.31,0,0,0-6.83,2.59q-3.06,2.59-3.06,9.78v19.1h-6.05Z" transform="translate(-14.78 -17.67)"/><path class="cls-3" d="M1332.59,309.91a3.29,3.29,0,0,0,2.79-1.75,5.36,5.36,0,0,0,.4-2.33,4.94,4.94,0,0,0-2.2-4.51,11.73,11.73,0,0,0-6.29-1.4q-4.73,0-6.71,2.57a8.49,8.49,0,0,0-1.44,4.22h-5.65q.17-6.68,4.31-9.29a17.66,17.66,0,0,1,9.62-2.61q6.35,0,10.31,2.42a8.21,8.21,0,0,1,3.93,7.53v20.74a2.65,2.65,0,0,0,.39,1.51,1.87,1.87,0,0,0,1.63.57,9,9,0,0,0,.91-.05q.5,0,1.08-.15v4.47a16.84,16.84,0,0,1-2.15.5,15.91,15.91,0,0,1-2,.1,5,5,0,0,1-4.54-2.22,8.57,8.57,0,0,1-1-3.33,15.39,15.39,0,0,1-5.31,4.2,16.43,16.43,0,0,1-7.63,1.78,11.36,11.36,0,0,1-8.19-3,10.09,10.09,0,0,1-3.18-7.61,9.79,9.79,0,0,1,3.13-7.76,14.88,14.88,0,0,1,8.2-3.39Zm-12.74,16.35a7.12,7.12,0,0,0,4.54,1.51,13.82,13.82,0,0,0,6.19-1.48,8.31,8.31,0,0,0,5-8V313.4a10.33,10.33,0,0,1-2.85,1.18,23.94,23.94,0,0,1-3.42.67l-3.66.47a14.14,14.14,0,0,0-4.95,1.38,5.35,5.35,0,0,0-2.81,5A5,5,0,0,0,1319.85,326.26Z" transform="translate(-14.78 -17.67)"/><path class="cls-3" d="M1354.34,295.69h5.75v5.11a16.12,16.12,0,0,1,5.41-4.54,14.44,14.44,0,0,1,6.35-1.38q7.66,0,10.35,5.35,1.48,2.93,1.48,8.37v23.1h-6.15V309a12.28,12.28,0,0,0-1-5.31q-1.61-3.36-5.85-3.36a11.91,11.91,0,0,0-3.53.44,9.09,9.09,0,0,0-4.37,3,8.92,8.92,0,0,0-2,3.68,24.84,24.84,0,0,0-.45,5.43V331.7h-6.05Z" transform="translate(-14.78 -17.67)"/><path class="cls-3" d="M1415.17,296.8a16.27,16.27,0,0,1,3.65,3.53V282.15h5.82V331.7h-5.45v-5a13.06,13.06,0,0,1-5,4.81,14.24,14.24,0,0,1-6.6,1.48,13.34,13.34,0,0,1-10.38-5.06q-4.39-5.06-4.39-13.46a23.31,23.31,0,0,1,4-13.63,13.09,13.09,0,0,1,11.44-5.77A12.73,12.73,0,0,1,1415.17,296.8Zm-13.51,27q2.44,3.9,7.83,3.9a8.23,8.23,0,0,0,6.87-3.61q2.69-3.61,2.69-10.37t-2.78-10.1a8.64,8.64,0,0,0-6.86-3.28,9,9,0,0,0-7.37,3.5q-2.83,3.5-2.83,10.29A17.92,17.92,0,0,0,1401.66,323.8Z" transform="translate(-14.78 -17.67)"/><path class="cls-3" d="M1436.6,282.31h6.05V331.7h-6.05Z" transform="translate(-14.78 -17.67)"/><path class="cls-3" d="M1473.78,309.91a3.29,3.29,0,0,0,2.79-1.75,5.36,5.36,0,0,0,.4-2.33,4.94,4.94,0,0,0-2.2-4.51,11.73,11.73,0,0,0-6.29-1.4q-4.73,0-6.71,2.57a8.49,8.49,0,0,0-1.44,4.22h-5.65q.17-6.68,4.31-9.29a17.66,17.66,0,0,1,9.62-2.61q6.35,0,10.31,2.42a8.21,8.21,0,0,1,3.93,7.53v20.74a2.65,2.65,0,0,0,.39,1.51,1.87,1.87,0,0,0,1.63.57,9,9,0,0,0,.91-.05q.5,0,1.08-.15v4.47a16.84,16.84,0,0,1-2.15.5,15.91,15.91,0,0,1-2,.1,5,5,0,0,1-4.54-2.22,8.57,8.57,0,0,1-1-3.33,15.39,15.39,0,0,1-5.31,4.2,16.43,16.43,0,0,1-7.63,1.78,11.36,11.36,0,0,1-8.19-3,10.09,10.09,0,0,1-3.18-7.61,9.79,9.79,0,0,1,3.13-7.76,14.88,14.88,0,0,1,8.2-3.39ZM1461,326.26a7.12,7.12,0,0,0,4.54,1.51,13.82,13.82,0,0,0,6.19-1.48,8.31,8.31,0,0,0,5-8V313.4a10.33,10.33,0,0,1-2.85,1.18,23.94,23.94,0,0,1-3.42.67l-3.66.47a14.14,14.14,0,0,0-4.95,1.38,5.35,5.35,0,0,0-2.81,5A5,5,0,0,0,1461,326.26Z" transform="translate(-14.78 -17.67)"/><path class="cls-3" d="M1495.69,295.69h5.75v6.22a13.75,13.75,0,0,1,3.46-4.42,9,9,0,0,1,6.35-2.61l.57,0,1.38.13v6.39a9.26,9.26,0,0,0-1-.13c-.3,0-.63,0-1,0a8.63,8.63,0,0,0-7,2.94,10.27,10.27,0,0,0-2.45,6.77V331.7h-6.05Z" transform="translate(-14.78 -17.67)"/><path class="cls-3" d="M1520.7,282.15h5.88v17.92a13.25,13.25,0,0,1,10.77-5.31,14.11,14.11,0,0,1,11,4.62q4.2,4.62,4.2,13.63,0,8.54-4.15,14.19a13.48,13.48,0,0,1-11.51,5.65,11.82,11.82,0,0,1-7-2,16.74,16.74,0,0,1-3.61-3.76v4.61h-5.58Zm23.14,41.45q2.45-3.9,2.45-10.29a16.84,16.84,0,0,0-2.45-9.41,8.06,8.06,0,0,0-7.2-3.73,10.06,10.06,0,0,0-7.27,3.06q-3.12,3.06-3.12,10.08a22.23,22.23,0,0,0,1.28,8.24q2.4,6,8.94,6A8.12,8.12,0,0,0,1543.84,323.6Z" transform="translate(-14.78 -17.67)"/><path class="cls-3" d="M1568.3,295.69v23.9a10.3,10.3,0,0,0,.85,4.5q1.57,3.23,5.86,3.23a8.29,8.29,0,0,0,8.38-5.65,23,23,0,0,0,1.21-8.3V295.69h6.05v36h-5.72l.07-5.31a12.17,12.17,0,0,1-2.87,3.46,12.48,12.48,0,0,1-8.25,2.82q-7.56,0-10.29-5.14a15.55,15.55,0,0,1-1.49-7.36V295.69Z" transform="translate(-14.78 -17.67)"/><path class="cls-3" d="M1623.08,296.8a16.27,16.27,0,0,1,3.65,3.53V282.15h5.82V331.7h-5.45v-5a13.06,13.06,0,0,1-5,4.81,14.24,14.24,0,0,1-6.6,1.48,13.34,13.34,0,0,1-10.38-5.06q-4.39-5.06-4.39-13.46a23.31,23.31,0,0,1,4-13.63,13.09,13.09,0,0,1,11.44-5.77A12.73,12.73,0,0,1,1623.08,296.8Zm-13.51,27q2.44,3.9,7.83,3.9a8.23,8.23,0,0,0,6.87-3.61q2.69-3.61,2.69-10.37t-2.78-10.1a8.64,8.64,0,0,0-6.86-3.28,9,9,0,0,0-7.37,3.5q-2.83,3.5-2.83,10.29A17.92,17.92,0,0,0,1609.57,323.8Z" transform="translate(-14.78 -17.67)"/><path class="cls-3" d="M1666.58,296.69a13.65,13.65,0,0,1,5.45,4.66,16.14,16.14,0,0,1,2.41,6.35,41.82,41.82,0,0,1,.54,7.93h-26.19a15.56,15.56,0,0,0,2.57,8.82q2.4,3.32,7.44,3.32a9.56,9.56,0,0,0,7.51-3.14,10.71,10.71,0,0,0,2.22-4.22h6a12.55,12.55,0,0,1-1.56,4.42,15.91,15.91,0,0,1-3,4,14,14,0,0,1-6.77,3.63,20.44,20.44,0,0,1-4.9.54,15,15,0,0,1-11.33-4.89q-4.64-4.89-4.64-13.7T1647,300.3a15.39,15.39,0,0,1,12.23-5.41A16.24,16.24,0,0,1,1666.58,296.69Zm2.17,14.14a15.8,15.8,0,0,0-1.7-6.29q-2.47-4.37-8.23-4.37a9.09,9.09,0,0,0-6.93,3,11.41,11.41,0,0,0-3,7.65Z" transform="translate(-14.78 -17.67)"/><path class="cls-3" d="M1686.6,285.64h6.12v10.05h5.75v4.94h-5.75v23.5a2.54,2.54,0,0,0,1.28,2.52,5.42,5.42,0,0,0,2.35.37l.94,0q.5,0,1.18-.11v4.81a13.5,13.5,0,0,1-2.17.44,20.8,20.8,0,0,1-2.44.13q-4.23,0-5.75-2.17a9.63,9.63,0,0,1-1.51-5.63V300.64h-4.87v-4.94h4.87Z" transform="translate(-14.78 -17.67)"/><path class="cls-3" d="M1708.72,324.37h7v7.33h-7Z" transform="translate(-14.78 -17.67)"/><path class="cls-3" d="M1732.75,320.4a8.67,8.67,0,0,0,1.54,4.64q2.33,2.92,8.1,2.92a12.13,12.13,0,0,0,6-1.46A4.84,4.84,0,0,0,1751,322a3.86,3.86,0,0,0-2.08-3.53,25.16,25.16,0,0,0-5.26-1.71l-4.89-1.21a24.06,24.06,0,0,1-6.9-2.55,7.61,7.61,0,0,1-4-6.79,10.32,10.32,0,0,1,3.73-8.27q3.73-3.16,10-3.16,8.25,0,11.89,4.77a10.27,10.27,0,0,1,2.21,6.52h-5.71a6.86,6.86,0,0,0-1.48-3.71q-2.13-2.37-7.4-2.37a9,9,0,0,0-5.32,1.31,4.06,4.06,0,0,0-1.81,3.45,4.23,4.23,0,0,0,2.37,3.75,14.42,14.42,0,0,0,4,1.48l4.08,1q6.64,1.58,8.91,3.06,3.53,2.32,3.53,7.29a11.05,11.05,0,0,1-3.69,8.3q-3.69,3.5-11.25,3.5-8.13,0-11.52-3.65a13.7,13.7,0,0,1-3.62-9Z" transform="translate(-14.78 -17.67)"/><path class="cls-3" d="M1788.57,296.69a13.65,13.65,0,0,1,5.45,4.66,16.14,16.14,0,0,1,2.41,6.35,41.82,41.82,0,0,1,.54,7.93h-26.19a15.56,15.56,0,0,0,2.57,8.82q2.4,3.32,7.44,3.32a9.56,9.56,0,0,0,7.51-3.14,10.71,10.71,0,0,0,2.22-4.22h6a12.55,12.55,0,0,1-1.56,4.42,15.91,15.91,0,0,1-3,4,14,14,0,0,1-6.77,3.63,20.44,20.44,0,0,1-4.9.54,15,15,0,0,1-11.33-4.89q-4.64-4.89-4.64-13.7T1769,300.3a15.39,15.39,0,0,1,12.23-5.41A16.24,16.24,0,0,1,1788.57,296.69Zm2.17,14.14a15.8,15.8,0,0,0-1.7-6.29q-2.47-4.37-8.23-4.37a9.09,9.09,0,0,0-6.93,3,11.41,11.41,0,0,0-3,7.65Z" transform="translate(-14.78 -17.67)"/></svg>