<svg xmlns="http://www.w3.org/2000/svg" width="252.123" height="46.596" viewBox="0 0 252.123 46.596">
  <g id="InternalCars_logo_forweb" data-name="InternalCars logo_forweb" transform="translate(0)">
    <path id="Path" d="M0,17.4V5.946L10.173,0,8.822,2.558s8.125,4.54,9.212,5.833c1.324,1.56,1.254,4.681-1.226,7.393-2.815,3.064-5.714,4.357-6.034,4.2C9.616,19.454,1.867,15.1,1.867,15.1Z" transform="translate(22.222)" fill="#f89e5d"/>
    <path id="Path-2" data-name="Path" d="M0,24.562s25.108-14.011,30.191-17.4C35.2,3.814,35.554,0,35.554,0V19.336a2.315,2.315,0,0,1-1.075,1.921c-.754.579-20.332,12.076-20.332,12.076Z" transform="translate(7.778 12.222)" fill="#f47920"/>
    <path id="Path-3" data-name="Path" d="M9.142,0,20,6.119,4.784,14.444S.029,12.466,0,9.435C-.029,4,9.142,0,9.142,0Z" transform="translate(1.111 21.111)" fill="#f89e5d"/>
    <path id="Path-4" data-name="Path" d="M0,10.271a3.252,3.252,0,0,1,.978-1.7c.82-.85,9.863-6.118,9.863-6.118L9.5,0,20,5.783v11.33l-2.013-2.1S10.352,18.646,5.593,21.6C-.158,25.154,0,28.889,0,28.889Z" fill="#f47920"/>
    <g id="Group" transform="translate(56.681 6.735)">
      <path id="Path-5" data-name="Path" d="M5.168,24.209H0V0H5.168Z" transform="translate(0 0.467)"/>
      <path id="Path-6" data-name="Path" d="M14.8,1.456C16,2.432,16.6,4.039,16.6,6.279V18.342H11.677V7.447A4.938,4.938,0,0,0,11.3,5.276,2.723,2.723,0,0,0,8.613,3.9a3.327,3.327,0,0,0-3.332,2.02,6.859,6.859,0,0,0-.466,2.72v9.686H0V.467H4.659V3.078A8.231,8.231,0,0,1,6.41,1.085,6.128,6.128,0,0,1,10.152,0,7.293,7.293,0,0,1,14.8,1.456Z" transform="translate(8.98 6.334)"/>
      <path id="Path-7" data-name="Path" d="M0,8.312V4.987H2.57V0H7.328V4.987h2.993V8.326H7.328v9.467a2.158,2.158,0,0,0,.282,1.374,3.249,3.249,0,0,0,1.751.275c.141,0,.3,0,.466-.014s.325-.014.48-.027v3.5l-2.273.082q-3.41.124-4.659-1.154a3.38,3.38,0,0,1-.8-2.487V8.326H0Z" transform="translate(27.477 1.951)"/>
      <path id="Shape" d="M2.81,16.79Q-.007,14.585,0,9.618,0,4.961,2.542,2.487A9.036,9.036,0,0,1,9.121,0a10.656,10.656,0,0,1,4.321.838A7.413,7.413,0,0,1,16.619,3.49a8.722,8.722,0,0,1,1.468,3.7,22.062,22.062,0,0,1,.155,3.558H4.843a4.272,4.272,0,0,0,1.92,3.779,4.968,4.968,0,0,0,2.655.673,4.106,4.106,0,0,0,2.668-.824,3.985,3.985,0,0,0,.989-1.237h4.913a5.82,5.82,0,0,1-1.779,3.243,9.06,9.06,0,0,1-6.918,2.61A10.216,10.216,0,0,1,2.81,16.79Z" transform="translate(39.436 6.293)"/>
      <path id="Path-8" data-name="Path" d="M10.265,0c.056,0,.2.014.409.027v4.8c-.311-.027-.579-.055-.8-.069s-.424-.014-.579-.014c-1.934,0-3.233.618-3.9,1.841a7.071,7.071,0,0,0-.551,3.188v8.56H0V.426H4.589V3.545A10.086,10.086,0,0,1,6.523,1.1,5.432,5.432,0,0,1,10.039,0Z" transform="translate(60.065 6.348)"/>
      <path id="Path-9" data-name="Path" d="M14.8,1.456C16,2.432,16.6,4.039,16.6,6.279V18.342H11.677V7.447A4.938,4.938,0,0,0,11.3,5.276,2.723,2.723,0,0,0,8.613,3.9a3.327,3.327,0,0,0-3.332,2.02,6.859,6.859,0,0,0-.466,2.72v9.686H0V.467H4.659V3.078A8.231,8.231,0,0,1,6.41,1.085,6.128,6.128,0,0,1,10.152,0,7.293,7.293,0,0,1,14.8,1.456Z" transform="translate(73.605 6.334)"/>
      <path id="Shape-2" data-name="Shape" d="M1.638,17.49A4.88,4.88,0,0,1,0,13.561,5.065,5.065,0,0,1,2.64,8.78,12.12,12.12,0,0,1,6.89,7.625l1.681-.192a7.773,7.773,0,0,0,1.92-.412,1.411,1.411,0,0,0,1.031-1.333,1.6,1.6,0,0,0-.791-1.525A5.024,5.024,0,0,0,8.4,3.751a3.1,3.1,0,0,0-2.443.824,3.32,3.32,0,0,0-.677,1.649H.621A6.688,6.688,0,0,1,1.977,2.363C3.247.783,5.45,0,8.556,0A11.936,11.936,0,0,1,13.95,1.168c1.567.783,2.358,2.239,2.358,4.4v8.216c0,.563.014,1.264.028,2.074a2.516,2.516,0,0,0,.283,1.251,1.664,1.664,0,0,0,.706.536v.687H12.086a5.458,5.458,0,0,1-.31-1.017c-.057-.316-.1-.673-.142-1.086a9.8,9.8,0,0,1-2.315,1.787,7.166,7.166,0,0,1-3.53.865A6.2,6.2,0,0,1,1.638,17.49Z" transform="translate(93.401 6.348)"/>
      <path id="Path-10" data-name="Path" d="M4.815,24.209H0V0H4.815Z" transform="translate(114.001 0.467)"/>
      <path id="Path-11" data-name="Path" d="M3.445,3A10.392,10.392,0,0,1,11.1,0c4.137,0,7.173,1.333,9.079,4.012a8.646,8.646,0,0,1,1.708,4.52h-5.2a6.7,6.7,0,0,0-1.271-2.624A5.193,5.193,0,0,0,11.3,4.328,5.1,5.1,0,0,0,6.919,6.554a10.614,10.614,0,0,0-1.61,6.293q0,4.081,1.694,6.1A5.376,5.376,0,0,0,11.31,20.98a4.918,4.918,0,0,0,4.081-1.745,7.443,7.443,0,0,0,1.285-2.8h5.168a10.869,10.869,0,0,1-3.417,6.444,10.145,10.145,0,0,1-7.046,2.487,10.66,10.66,0,0,1-8.345-3.352C1,19.771,0,16.694,0,12.778Q-.021,6.409,3.445,3Z" transform="translate(122.148 0)"/>
      <path id="Shape-3" data-name="Shape" d="M1.638,17.49A4.88,4.88,0,0,1,0,13.561,5.065,5.065,0,0,1,2.64,8.78,12.12,12.12,0,0,1,6.89,7.625l1.666-.192a7.783,7.783,0,0,0,1.921-.412,1.41,1.41,0,0,0,1.03-1.333,1.6,1.6,0,0,0-.79-1.525,5.024,5.024,0,0,0-2.33-.412,3.094,3.094,0,0,0-2.443.824,3.311,3.311,0,0,0-.677,1.649H.621A6.688,6.688,0,0,1,1.977,2.363C3.247.783,5.45,0,8.556,0A11.936,11.936,0,0,1,13.95,1.168c1.567.783,2.358,2.239,2.358,4.4v8.216c0,.563.014,1.264.028,2.074a2.516,2.516,0,0,0,.283,1.251,1.664,1.664,0,0,0,.706.536v.687H12.086a5.458,5.458,0,0,1-.31-1.017c-.057-.316-.1-.673-.142-1.086a9.8,9.8,0,0,1-2.315,1.787,7.166,7.166,0,0,1-3.53.865A6.2,6.2,0,0,1,1.638,17.49Z" transform="translate(145.827 6.348)"/>
      <path id="Path-12" data-name="Path" d="M10.265,0c.056,0,.2.014.409.027v4.8c-.311-.027-.579-.055-.8-.069s-.424-.014-.579-.014c-1.934,0-3.233.618-3.9,1.841a7.071,7.071,0,0,0-.551,3.188v8.56H0V.426H4.589V3.545A10.086,10.086,0,0,1,6.523,1.1,5.432,5.432,0,0,1,10.039,0Z" transform="translate(166.286 6.348)"/>
      <path id="Path-13" data-name="Path" d="M4.9,12.7a3.008,3.008,0,0,0,.664,1.772,4.581,4.581,0,0,0,3.318.934,5.153,5.153,0,0,0,2.259-.412,1.361,1.361,0,0,0,.155-2.432,28.639,28.639,0,0,0-5.027-1.415A10.708,10.708,0,0,1,1.85,9.26,4.007,4.007,0,0,1,.565,6.045a5.492,5.492,0,0,1,2-4.259A8.259,8.259,0,0,1,8.218,0a10.546,10.546,0,0,1,5.62,1.333,5.677,5.677,0,0,1,2.5,4.63H11.522A2.755,2.755,0,0,0,11,4.534a3.387,3.387,0,0,0-2.711-.948,4.028,4.028,0,0,0-2.245.481A1.336,1.336,0,0,0,5.38,5.18a1.236,1.236,0,0,0,.706,1.168,31.434,31.434,0,0,0,5.027,1.292,9.262,9.262,0,0,1,4.306,1.992A4.435,4.435,0,0,1,16.83,13,5.366,5.366,0,0,1,14.8,17.339c-1.355,1.113-3.459,1.69-6.3,1.69-2.895,0-5.041-.591-6.424-1.786A5.722,5.722,0,0,1,0,12.7Z" transform="translate(178.612 6.265)"/>
    </g>
    <g id="Group-2" data-name="Group" transform="translate(56.709 36.695)">
      <path id="Shape-4" data-name="Shape" d="M0,6.972V0H3.014A1.973,1.973,0,0,1,4.761.732a1.722,1.722,0,0,1,.31,1A1.567,1.567,0,0,1,4.69,2.817a1.649,1.649,0,0,1-.563.408,2.37,2.37,0,0,1,.8.465A1.679,1.679,0,0,1,5.4,4.944a1.893,1.893,0,0,1-.423,1.211,2.385,2.385,0,0,1-2.014.817Z" transform="translate(0 0.577)"/>
      <path id="Shape-5" data-name="Shape" d="M.648,4.676A2.688,2.688,0,0,1,0,2.746,2.937,2.937,0,0,1,.662.761,2.165,2.165,0,0,1,2.38,0,2.292,2.292,0,0,1,3.437.254,1.86,1.86,0,0,1,4.2.915a2.229,2.229,0,0,1,.338.9A5.445,5.445,0,0,1,4.606,2.93H.916a2.15,2.15,0,0,0,.366,1.239,1.207,1.207,0,0,0,1.042.465A1.349,1.349,0,0,0,3.38,4.2a1.485,1.485,0,0,0,.31-.591h.845a1.84,1.84,0,0,1-.225.619,2.264,2.264,0,0,1-.423.564A1.918,1.918,0,0,1,2.93,5.3a2.621,2.621,0,0,1-.69.07A2.082,2.082,0,0,1,.648,4.676Z" transform="translate(6.465 2.352)"/>
      <path id="Shape-6" data-name="Shape" d="M.775,6.958A1.441,1.441,0,0,1,.155,5.8h.873a1,1,0,0,0,.24.521,1.279,1.279,0,0,0,.9.282,1.255,1.255,0,0,0,1.282-.691,4.272,4.272,0,0,0,.169-1.45A1.725,1.725,0,0,1,3,5.042a2.006,2.006,0,0,1-.944.183A2,2,0,0,1,.62,4.634,2.577,2.577,0,0,1,0,2.7,2.964,2.964,0,0,1,.62.718,1.9,1.9,0,0,1,2.113,0,2.391,2.391,0,0,1,3.155.324,2.594,2.594,0,0,1,3.648.8V.169h.789V4.775A3.444,3.444,0,0,1,4.155,6.3a2.024,2.024,0,0,1-2,1.028A2.521,2.521,0,0,1,.775,6.958Z" transform="translate(12.212 2.338)"/>
      <path id="Path-14" data-name="Path" d="M5.634,0V.831H3.3V6.958H2.338V.831H0V0Z" transform="translate(17.874 0.577)"/>
      <path id="Shape-7" data-name="Shape" d="M.648,4.676A2.688,2.688,0,0,1,0,2.746,2.937,2.937,0,0,1,.662.761,2.165,2.165,0,0,1,2.38,0,2.334,2.334,0,0,1,3.437.254,1.86,1.86,0,0,1,4.2.915a2.229,2.229,0,0,1,.338.9A5.445,5.445,0,0,1,4.606,2.93H.916a2.15,2.15,0,0,0,.366,1.239,1.207,1.207,0,0,0,1.042.465A1.349,1.349,0,0,0,3.38,4.2a1.485,1.485,0,0,0,.31-.591h.845a1.84,1.84,0,0,1-.225.619,2.264,2.264,0,0,1-.423.564A1.918,1.918,0,0,1,2.93,5.3a2.621,2.621,0,0,1-.69.07A2.082,2.082,0,0,1,.648,4.676Z" transform="translate(23.268 2.352)"/>
      <path id="Path-15" data-name="Path" d="M.845,3.634a1.255,1.255,0,0,0,.211.648A1.421,1.421,0,0,0,2.2,4.69a1.637,1.637,0,0,0,.845-.211.7.7,0,0,0,.366-.634.542.542,0,0,0-.3-.493,3.037,3.037,0,0,0-.747-.239l-.69-.169A3.347,3.347,0,0,1,.7,2.577,1.084,1.084,0,0,1,.141,1.62,1.452,1.452,0,0,1,.662.451,2.112,2.112,0,0,1,2.07,0,1.966,1.966,0,0,1,3.747.676a1.413,1.413,0,0,1,.31.915h-.8a.9.9,0,0,0-.211-.521A1.342,1.342,0,0,0,2,.732a1.245,1.245,0,0,0-.747.183A.577.577,0,0,0,1,1.408a.609.609,0,0,0,.338.535,1.817,1.817,0,0,0,.563.211l.577.141a4.641,4.641,0,0,1,1.254.437,1.121,1.121,0,0,1,.493,1.028A1.533,1.533,0,0,1,3.7,4.93a2.252,2.252,0,0,1-1.578.493,2.145,2.145,0,0,1-1.62-.507A1.9,1.9,0,0,1,0,3.648H.845Z" transform="translate(29.015 2.31)"/>
      <path id="Path-16" data-name="Path" d="M.676,0h.859V1.423h.8v.69h-.8v3.31a.337.337,0,0,0,.183.352.92.92,0,0,0,.338.056h.127c.042,0,.1-.014.169-.014v.676a2.021,2.021,0,0,1-.31.056,2.714,2.714,0,0,1-.338.014.9.9,0,0,1-.8-.31A1.34,1.34,0,0,1,.69,5.465V2.113H0v-.69H.69V0Z" transform="translate(34.085 1.042)"/>
      <path id="Path-17" data-name="Path" d="M.718,9.9H0V0H.718Z" transform="translate(42.677 0)"/>
      <path id="Shape-8" data-name="Shape" d="M.014,6.958V0H3.155A3.075,3.075,0,0,1,4.437.225,1.637,1.637,0,0,1,5.4,1.873,1.882,1.882,0,0,1,5.141,2.9a1.75,1.75,0,0,1-.718.634,1.486,1.486,0,0,1,.619.437,1.544,1.544,0,0,1,.226.873l.028.93a2.6,2.6,0,0,0,.07.591.54.54,0,0,0,.31.423v.155H4.521a.861.861,0,0,1-.07-.226q-.021-.147-.042-.549L4.352,5.014A.993.993,0,0,0,3.859,4.1a1.96,1.96,0,0,0-.817-.127H.958V6.958ZM0,0H.014Z" transform="translate(49.692 0.577)"/>
      <path id="Shape-9" data-name="Shape" d="M.648,4.676A2.688,2.688,0,0,1,0,2.746,2.937,2.937,0,0,1,.662.761,2.165,2.165,0,0,1,2.38,0,2.334,2.334,0,0,1,3.437.254,1.86,1.86,0,0,1,4.2.915a2.229,2.229,0,0,1,.338.9A5.445,5.445,0,0,1,4.606,2.93H.916a2.15,2.15,0,0,0,.366,1.239,1.207,1.207,0,0,0,1.042.465A1.349,1.349,0,0,0,3.38,4.2a1.485,1.485,0,0,0,.31-.591h.845a1.84,1.84,0,0,1-.225.619,2.264,2.264,0,0,1-.423.564A1.918,1.918,0,0,1,2.93,5.3a2.621,2.621,0,0,1-.69.07A2.082,2.082,0,0,1,.648,4.676Z" transform="translate(56.551 2.352)"/>
      <path id="Path-18" data-name="Path" d="M0,.127H.845V.845A2.506,2.506,0,0,1,1.394.3,1.64,1.64,0,0,1,2.352,0a1.483,1.483,0,0,1,.972.3A1.491,1.491,0,0,1,3.7.8,1.8,1.8,0,0,1,4.366.2,1.927,1.927,0,0,1,5.226,0,1.42,1.42,0,0,1,6.62.732a2.5,2.5,0,0,1,.2,1.07v3.38H5.93V1.662a.808.808,0,0,0-.254-.69,1.009,1.009,0,0,0-.62-.183,1.2,1.2,0,0,0-.859.338,1.481,1.481,0,0,0-.366,1.127V5.2H2.958V1.887a1.654,1.654,0,0,0-.127-.746A.733.733,0,0,0,2.113.789a1.209,1.209,0,0,0-.873.38A1.825,1.825,0,0,0,.845,2.521v2.69H0Z" transform="translate(62.636 2.338)"/>
      <path id="Shape-10" data-name="Shape" d="M.451,4.93A1.436,1.436,0,0,1,0,3.859a1.4,1.4,0,0,1,.437-1.1,2.1,2.1,0,0,1,1.155-.479l1.352-.169a.5.5,0,0,0,.394-.24.67.67,0,0,0,.056-.324A.677.677,0,0,0,3.085.915,1.736,1.736,0,0,0,2.2.718a1.111,1.111,0,0,0-.943.367,1.217,1.217,0,0,0-.2.591H.268A1.492,1.492,0,0,1,.873.366,2.41,2.41,0,0,1,2.225,0,2.768,2.768,0,0,1,3.676.338a1.15,1.15,0,0,1,.549,1.056V4.31a.341.341,0,0,0,.057.211.259.259,0,0,0,.225.085.394.394,0,0,0,.127-.014.739.739,0,0,0,.155-.029V5.2a2.268,2.268,0,0,1-.31.071,1.631,1.631,0,0,1-.282.014.678.678,0,0,1-.634-.31,1.219,1.219,0,0,1-.14-.465,2.177,2.177,0,0,1-.747.592,2.305,2.305,0,0,1-1.07.253A1.624,1.624,0,0,1,.451,4.93Z" transform="translate(70.875 2.352)"/>
      <path id="Path-19" data-name="Path" d="M0,.113H.8V.986A1.86,1.86,0,0,1,1.3.366,1.292,1.292,0,0,1,2.2,0h.085c.042,0,.1.014.2.014v.9A.528.528,0,0,0,2.338.9H2.2a1.234,1.234,0,0,0-.986.408,1.487,1.487,0,0,0-.352.958V5.183H0Z" transform="translate(76.904 2.352)"/>
      <path id="Path-20" data-name="Path" d="M0,0H.817V4.042L3,1.887H4.085L2.141,3.775,4.2,6.958H3.113L1.521,4.38l-.7.676v1.9H0Z" transform="translate(80.481 0.577)"/>
      <path id="Shape-11" data-name="Shape" d="M.648,4.676A2.688,2.688,0,0,1,0,2.746,2.937,2.937,0,0,1,.662.761,2.165,2.165,0,0,1,2.38,0,2.292,2.292,0,0,1,3.437.254,1.86,1.86,0,0,1,4.2.915a2.229,2.229,0,0,1,.338.9A5.445,5.445,0,0,1,4.606,2.93H.916a2.15,2.15,0,0,0,.366,1.239,1.207,1.207,0,0,0,1.042.465A1.349,1.349,0,0,0,3.38,4.2a1.485,1.485,0,0,0,.31-.591h.845a1.84,1.84,0,0,1-.225.619,2.264,2.264,0,0,1-.423.564A1.918,1.918,0,0,1,2.93,5.3a2.621,2.621,0,0,1-.69.07A2.082,2.082,0,0,1,.648,4.676Z" transform="translate(85.425 2.352)"/>
      <path id="Path-21" data-name="Path" d="M.676,0h.859V1.423h.8v.69h-.8v3.31a.337.337,0,0,0,.183.352.92.92,0,0,0,.338.056h.127c.042,0,.1-.014.169-.014v.676a2.021,2.021,0,0,1-.31.056,2.714,2.714,0,0,1-.338.014.9.9,0,0,1-.8-.31A1.34,1.34,0,0,1,.69,5.465V2.113H0v-.69H.69V0Z" transform="translate(91.003 1.042)"/>
      <path id="Shape-12" data-name="Shape" d="M0,6.958V1.915H1.111V6.958ZM0,.972V0H1.111V.972Z" transform="translate(94.594 0.577)"/>
      <path id="Path-22" data-name="Path" d="M.014.113h.8V.831A2.228,2.228,0,0,1,1.578.2a2.067,2.067,0,0,1,.9-.2A1.5,1.5,0,0,1,3.944.746,2.653,2.653,0,0,1,4.155,1.93V5.183H3.282v-3.2a1.6,1.6,0,0,0-.141-.746A.841.841,0,0,0,2.324.761a1.636,1.636,0,0,0-.493.056,1.293,1.293,0,0,0-.62.423,1.267,1.267,0,0,0-.282.521,3.479,3.479,0,0,0-.07.761V5.183H0V.113Z" transform="translate(97.13 2.352)"/>
      <path id="Shape-13" data-name="Shape" d="M.775,6.958A1.441,1.441,0,0,1,.155,5.8h.873a1,1,0,0,0,.24.521,1.279,1.279,0,0,0,.9.282,1.255,1.255,0,0,0,1.282-.691,4.272,4.272,0,0,0,.169-1.45A1.725,1.725,0,0,1,3,5.042a2.006,2.006,0,0,1-.944.183A2,2,0,0,1,.62,4.634,2.577,2.577,0,0,1,0,2.7,2.964,2.964,0,0,1,.62.718,1.9,1.9,0,0,1,2.113,0,2.391,2.391,0,0,1,3.155.324,2.594,2.594,0,0,1,3.648.8V.169h.789V4.775A3.444,3.444,0,0,1,4.155,6.3a2.024,2.024,0,0,1-2,1.028A2.521,2.521,0,0,1,.775,6.958Z" transform="translate(102.58 2.338)"/>
      <path id="Path-23" data-name="Path" d="M.718,9.9H0V0H.718Z" transform="translate(113.891 0)"/>
      <path id="Path-24" data-name="Path" d="M0,0H.859V2.592a2.131,2.131,0,0,1,.549-.535,1.8,1.8,0,0,1,1.028-.268,1.5,1.5,0,0,1,1.493.775,2.668,2.668,0,0,1,.211,1.169V6.986H3.268v-3.2a1.734,1.734,0,0,0-.141-.817.911.911,0,0,0-.873-.423,1.455,1.455,0,0,0-.958.366A1.773,1.773,0,0,0,.859,4.3v2.69H0Z" transform="translate(120.299 0.549)"/>
      <path id="Shape-14" data-name="Shape" d="M.451,4.93A1.436,1.436,0,0,1,0,3.859a1.4,1.4,0,0,1,.437-1.1,2.1,2.1,0,0,1,1.155-.479l1.352-.169a.5.5,0,0,0,.394-.24.67.67,0,0,0,.056-.324A.677.677,0,0,0,3.085.915,1.736,1.736,0,0,0,2.2.718a1.111,1.111,0,0,0-.943.367,1.217,1.217,0,0,0-.2.591H.268A1.46,1.46,0,0,1,.873.366,2.441,2.441,0,0,1,2.225,0,2.768,2.768,0,0,1,3.676.338a1.15,1.15,0,0,1,.549,1.056V4.31a.341.341,0,0,0,.057.211.259.259,0,0,0,.225.085.394.394,0,0,0,.127-.014.739.739,0,0,0,.155-.029V5.2a2.268,2.268,0,0,1-.31.071,1.631,1.631,0,0,1-.282.014.678.678,0,0,1-.634-.31,1.219,1.219,0,0,1-.14-.465,2.177,2.177,0,0,1-.747.592,2.305,2.305,0,0,1-1.07.253A1.624,1.624,0,0,1,.451,4.93Z" transform="translate(125.849 2.352)"/>
      <path id="Path-25" data-name="Path" d="M.014.113h.8V.831A2.228,2.228,0,0,1,1.578.2a2.067,2.067,0,0,1,.9-.2A1.5,1.5,0,0,1,3.944.746,2.653,2.653,0,0,1,4.155,1.93V5.183H3.282v-3.2a1.6,1.6,0,0,0-.141-.746A.841.841,0,0,0,2.324.761a1.636,1.636,0,0,0-.493.056,1.293,1.293,0,0,0-.62.423,1.267,1.267,0,0,0-.282.521,3.479,3.479,0,0,0-.07.761V5.183H0V.113Z" transform="translate(131.849 2.352)"/>
      <path id="Shape-15" data-name="Shape" d="M.62,6.451A2.832,2.832,0,0,1,0,4.549,3.237,3.237,0,0,1,.563,2.634a1.87,1.87,0,0,1,1.606-.817,1.915,1.915,0,0,1,.972.253,2.328,2.328,0,0,1,.521.493V0h.817V6.986H3.718v-.7a1.884,1.884,0,0,1-.7.676,1.961,1.961,0,0,1-.929.211A1.871,1.871,0,0,1,.62,6.451Z" transform="translate(137.286 0.549)"/>
      <path id="Path-26" data-name="Path" d="M0,0H.859V6.958H0Z" transform="translate(143.441 0.577)"/>
      <path id="Shape-16" data-name="Shape" d="M.451,4.93A1.436,1.436,0,0,1,0,3.859a1.4,1.4,0,0,1,.437-1.1,2.1,2.1,0,0,1,1.155-.479l1.352-.169a.5.5,0,0,0,.394-.24.67.67,0,0,0,.056-.324A.677.677,0,0,0,3.085.915,1.736,1.736,0,0,0,2.2.718a1.111,1.111,0,0,0-.943.367,1.217,1.217,0,0,0-.2.591H.268A1.46,1.46,0,0,1,.873.366,2.441,2.441,0,0,1,2.225,0,2.768,2.768,0,0,1,3.676.338a1.15,1.15,0,0,1,.549,1.056V4.31a.341.341,0,0,0,.057.211.259.259,0,0,0,.225.085.394.394,0,0,0,.127-.014.739.739,0,0,0,.155-.029V5.2a2.268,2.268,0,0,1-.31.071,1.631,1.631,0,0,1-.282.014.678.678,0,0,1-.634-.31,1.219,1.219,0,0,1-.14-.465,2.177,2.177,0,0,1-.747.592,2.305,2.305,0,0,1-1.07.253A1.624,1.624,0,0,1,.451,4.93Z" transform="translate(145.737 2.352)"/>
      <path id="Path-27" data-name="Path" d="M0,.113H.8V.986A1.86,1.86,0,0,1,1.3.366,1.292,1.292,0,0,1,2.2,0h.085c.042,0,.1.014.2.014v.9A.528.528,0,0,0,2.338.9H2.2a1.234,1.234,0,0,0-.986.408,1.487,1.487,0,0,0-.352.958V5.183H0V.113Z" transform="translate(151.765 2.352)"/>
      <path id="Shape-17" data-name="Shape" d="M1.3,6.831A2.362,2.362,0,0,1,.789,6.3v.648H0V0H.831V2.521a2.013,2.013,0,0,1,.676-.563,1.864,1.864,0,0,1,.845-.2,1.994,1.994,0,0,1,1.55.647,2.764,2.764,0,0,1,.591,1.916,3.272,3.272,0,0,1-.591,2,1.888,1.888,0,0,1-1.62.789A1.727,1.727,0,0,1,1.3,6.831Z" transform="translate(155.286 0.549)"/>
      <path id="Path-28" data-name="Path" d="M.845,0V3.366A1.411,1.411,0,0,0,.972,4a.817.817,0,0,0,.831.451,1.178,1.178,0,0,0,1.183-.789,3.259,3.259,0,0,0,.169-1.169V0h.859V5.07h-.8l.014-.746a1.72,1.72,0,0,1-1.563.887A1.5,1.5,0,0,1,.211,4.493,2.17,2.17,0,0,1,0,3.451V0H.845Z" transform="translate(161.146 2.465)"/>
      <path id="Shape-18" data-name="Shape" d="M.62,6.451A2.832,2.832,0,0,1,0,4.549,3.237,3.237,0,0,1,.563,2.634a1.87,1.87,0,0,1,1.606-.817,1.877,1.877,0,0,1,.972.253,2.328,2.328,0,0,1,.521.493V0h.817V6.986H3.718v-.7a1.884,1.884,0,0,1-.7.676,1.961,1.961,0,0,1-.929.211A1.871,1.871,0,0,1,.62,6.451Z" transform="translate(166.568 0.549)"/>
      <path id="Shape-19" data-name="Shape" d="M.648,4.676A2.688,2.688,0,0,1,0,2.746,2.937,2.937,0,0,1,.662.761,2.165,2.165,0,0,1,2.38,0,2.292,2.292,0,0,1,3.437.254,1.86,1.86,0,0,1,4.2.915a2.229,2.229,0,0,1,.338.9A5.445,5.445,0,0,1,4.606,2.93H.916a2.15,2.15,0,0,0,.366,1.239,1.207,1.207,0,0,0,1.042.465A1.349,1.349,0,0,0,3.38,4.2a1.485,1.485,0,0,0,.31-.591h.845a1.84,1.84,0,0,1-.225.619,2.264,2.264,0,0,1-.423.564A1.918,1.918,0,0,1,2.93,5.3a2.621,2.621,0,0,1-.69.07A2.082,2.082,0,0,1,.648,4.676Z" transform="translate(172.399 2.352)"/>
      <path id="Path-29" data-name="Path" d="M.676,0h.859V1.423h.8v.69h-.8v3.31a.337.337,0,0,0,.183.352.92.92,0,0,0,.338.056h.127c.042,0,.1-.014.169-.014v.676a2.021,2.021,0,0,1-.31.056,2.714,2.714,0,0,1-.338.014.9.9,0,0,1-.8-.31A1.34,1.34,0,0,1,.69,5.465V2.113H0v-.69H.69V0Z" transform="translate(177.977 1.042)"/>
      <path id="Path-30" data-name="Path" d="M0,0H.986V1.028H0Z" transform="translate(181.766 6.507)"/>
      <path id="Path-31" data-name="Path" d="M.845,3.634a1.255,1.255,0,0,0,.211.648A1.421,1.421,0,0,0,2.2,4.69a1.637,1.637,0,0,0,.845-.211.7.7,0,0,0,.366-.634.542.542,0,0,0-.3-.493,3.037,3.037,0,0,0-.747-.239l-.69-.169A3.347,3.347,0,0,1,.7,2.577,1.084,1.084,0,0,1,.141,1.62,1.452,1.452,0,0,1,.662.451,2.112,2.112,0,0,1,2.07,0,1.966,1.966,0,0,1,3.747.676a1.413,1.413,0,0,1,.31.915h-.8a.9.9,0,0,0-.211-.521A1.342,1.342,0,0,0,2,.732a1.245,1.245,0,0,0-.747.183A.577.577,0,0,0,1,1.408a.609.609,0,0,0,.338.535,1.817,1.817,0,0,0,.563.211l.577.141a4.641,4.641,0,0,1,1.254.437,1.121,1.121,0,0,1,.493,1.028A1.533,1.533,0,0,1,3.7,4.93a2.252,2.252,0,0,1-1.578.493,2.145,2.145,0,0,1-1.62-.507A1.9,1.9,0,0,1,0,3.648H.845Z" transform="translate(184.315 2.31)"/>
      <path id="Shape-20" data-name="Shape" d="M.648,4.676A2.688,2.688,0,0,1,0,2.746,2.937,2.937,0,0,1,.662.761,2.165,2.165,0,0,1,2.38,0,2.292,2.292,0,0,1,3.437.254,1.86,1.86,0,0,1,4.2.915a2.229,2.229,0,0,1,.338.9A5.445,5.445,0,0,1,4.606,2.93H.916a2.15,2.15,0,0,0,.366,1.239,1.207,1.207,0,0,0,1.042.465A1.349,1.349,0,0,0,3.38,4.2a1.485,1.485,0,0,0,.31-.591h.845a1.84,1.84,0,0,1-.225.619,2.264,2.264,0,0,1-.423.564A1.918,1.918,0,0,1,2.93,5.3a2.621,2.621,0,0,1-.69.07A2.082,2.082,0,0,1,.648,4.676Z" transform="translate(189.583 2.352)"/>
    </g>
  </g>
</svg>
