<svg width="208" height="45" viewBox="0 0 208 45" fill="none" xmlns="http://www.w3.org/2000/svg">
<path d="M78.0491 30.6427C73.7948 30.6427 71.727 32.6895 71.727 36.9003C71.727 39.0989 72.2355 40.7244 73.2388 41.7322L73.2392 41.7326C74.2307 42.7286 75.8148 43.2339 77.9472 43.2339C78.5548 43.2339 79.22 43.1754 79.925 43.061C80.5992 42.9514 81.1418 42.789 81.5379 42.578C81.7486 42.4672 81.9973 42.2979 81.9973 42.119C81.9973 42.1149 81.9941 42.0126 81.859 41.6973C81.7624 41.4712 81.6361 41.2662 81.4843 41.0897C81.406 40.9988 81.348 40.9631 81.3196 40.9521C81.2842 40.9631 81.2108 40.989 81.0817 41.0491C80.619 41.2423 80.1527 41.3973 79.6774 41.5171C79.1855 41.6412 78.6035 41.7042 77.9472 41.7042C76.1168 41.7042 73.9353 40.8738 73.9353 36.919C73.9353 35.3739 74.2539 34.2354 74.9089 33.4375C75.5883 32.6104 76.6241 32.1915 77.9874 32.1915C78.5958 32.1915 79.1307 32.2398 79.5772 32.336C80.0151 32.431 80.395 32.541 80.7063 32.6647C80.8516 32.7216 80.9433 32.7561 81.0014 32.7768C81.0375 32.7528 81.0947 32.7082 81.1747 32.625C81.3541 32.4383 81.5103 32.2191 81.6406 31.9744C81.7948 31.6826 81.8127 31.5421 81.8131 31.4938C81.8131 31.4942 81.8127 31.4942 81.8127 31.4942C81.8082 31.4942 81.7575 31.4151 81.5375 31.2982C81.1893 31.1095 80.6848 30.9532 80.0346 30.8319C79.3625 30.7064 78.6944 30.6427 78.0491 30.6427ZM77.9472 44.1812C75.5157 44.1812 73.6783 43.5728 72.4847 42.3734L72.4851 42.3738C71.302 41.1859 70.7021 39.3445 70.7021 36.9003C70.7021 32.1197 73.1739 29.695 78.0491 29.695C78.7622 29.695 79.4989 29.7653 80.2375 29.9032C81.0095 30.0473 81.6033 30.2357 82.053 30.4788C82.5729 30.7564 82.8383 31.0977 82.8383 31.4926C82.8383 31.7443 82.7482 32.0381 82.5615 32.3908C82.3906 32.7126 82.182 33.0028 81.9422 33.2533C81.626 33.5828 81.3159 33.7435 80.9957 33.7435C80.8715 33.7435 80.7538 33.7135 80.3029 33.5353C80.046 33.4335 79.7237 33.3405 79.3442 33.2585C78.9745 33.179 78.5179 33.1388 77.9874 33.1388C76.9476 33.1388 76.2073 33.4237 75.7255 34.0098C75.2182 34.6287 74.9605 35.6073 74.9605 36.919C74.9605 40.3591 76.6647 40.7565 77.9472 40.7565C78.5122 40.7565 79.0037 40.7049 79.4079 40.603C79.8309 40.4967 80.246 40.3587 80.6414 40.1935C80.9328 40.0584 81.1296 40.0004 81.3025 40.0004C81.5554 40.0004 81.9312 40.0872 82.2871 40.5008C82.5014 40.7504 82.6784 41.0357 82.8127 41.349C82.9556 41.6843 83.0226 41.929 83.0226 42.119C83.0226 42.6279 82.695 43.0585 82.0481 43.3999C81.5497 43.6653 80.8942 43.8654 80.1024 43.9945C79.3389 44.1178 78.6141 44.1812 77.9472 44.1812Z" fill="#A41E22"/>
<path d="M85.0713 43.0415L85.0721 43.0419L85.0713 43.0415ZM85.0713 43.0415C85.0746 43.0435 85.1342 43.0825 85.3335 43.0825H92.0863C92.12 43.0825 92.1334 43.078 92.1334 43.078C92.1261 43.0715 92.1877 42.9563 92.1877 42.6109V42.0244C92.1877 41.7147 92.1378 41.5901 92.1192 41.5532C92.1114 41.5528 92.1013 41.5528 92.0863 41.5528H87.1534V30.8875C87.1546 30.8749 87.0304 30.7564 86.4383 30.7564H85.743C85.1505 30.7564 85.0263 30.8749 85.0251 30.8757L85.0275 42.7996C85.0275 42.9839 85.0693 43.0387 85.0713 43.0415ZM92.0863 44.0298H85.3335C84.907 44.0298 84.5754 43.9226 84.3469 43.7112C84.1184 43.5005 84.0027 43.1937 84.0027 42.7996V30.8875C84.0027 30.4849 84.2287 29.8091 85.743 29.8091H86.4383C87.9526 29.8091 88.1786 30.4849 88.1786 30.8875V40.6051H92.0863C92.4865 40.6051 92.8108 40.7691 92.9995 41.067C93.1432 41.2955 93.2126 41.6084 93.2126 42.0244V42.6109C93.2126 43.0269 93.1432 43.3394 92.9999 43.5671C92.8108 43.8658 92.4865 44.0298 92.0863 44.0298Z" fill="#A41E22"/>
<path d="M99.6462 37.9203H101.304L100.49 35.5708L99.6462 37.9203ZM100.017 33.6872C100.018 33.6868 100.018 33.6863 100.018 33.6863H100.961L101.355 34.8597L102.708 38.868H98.2265L99.6207 34.8337L100.018 33.6863L100.017 33.6872ZM101.726 30.8327C101.726 30.8331 101.726 30.8335 101.726 30.8339L101.726 30.8327ZM104.183 43.0253C104.223 43.0484 104.384 43.1199 104.851 43.1199H105.75C106.017 43.1199 106.169 43.0959 106.249 43.0756C106.243 43.0468 106.234 43.0131 106.222 42.9742L101.733 30.8534C101.693 30.8303 101.527 30.7564 101.044 30.7564H99.9803C99.4782 30.7564 99.3215 30.8388 99.2891 30.8603L94.797 42.9908C94.7893 43.0176 94.782 43.0407 94.7763 43.0618C94.8867 43.0886 95.0969 43.1199 95.4784 43.1199H96.297C96.6668 43.1199 96.7536 43.0444 96.754 43.044L97.6855 40.416H103.258L104.183 43.0253ZM105.75 44.0671H104.851C104.511 44.0671 103.478 44.0671 103.218 43.3459L102.514 41.3637H98.4282L97.7257 43.3443C97.606 43.6755 97.2618 44.0671 96.297 44.0671H95.4784C95.0433 44.0671 93.7178 44.0672 93.7178 43.1779C93.7178 43.0923 93.7352 42.9794 93.8192 42.7075L98.3292 30.5259C98.6235 29.8091 99.645 29.8091 99.9803 29.8091H101.044C101.389 29.8091 102.436 29.8091 102.697 30.5295L107.197 42.6844C107.258 42.8703 107.287 43.031 107.287 43.1779C107.287 43.5838 107.02 44.0671 105.75 44.0671Z" fill="#A41E22"/>
<path d="M109.451 40.8283H109.451H109.451ZM109.531 40.8567C109.498 40.8807 109.448 40.9208 109.381 40.9874C109.208 41.1567 109.056 41.3568 108.928 41.5824C108.784 41.8377 108.762 41.981 108.762 42.0435C108.762 42.0443 108.777 42.1612 109.11 42.3698C109.481 42.621 109.994 42.8244 110.652 42.9843C111.329 43.1499 112.138 43.2339 113.058 43.2339C113.788 43.2339 114.477 43.1064 115.106 42.8564C115.714 42.6141 116.199 42.2318 116.59 41.6871C116.975 41.1514 117.17 40.4379 117.17 39.5665C117.17 38.87 117.016 38.299 116.711 37.8688C116.395 37.4211 116.02 37.0765 115.598 36.8439C115.13 36.585 114.511 36.3054 113.76 36.0135C113.213 35.7932 112.796 35.6129 112.513 35.4762C112.179 35.3146 111.892 35.0995 111.659 34.8374C111.392 34.5378 111.256 34.1628 111.256 33.7236C111.256 33.4326 111.361 33.0053 111.861 32.6217C112.239 32.3319 112.831 32.1915 113.672 32.1915C114.256 32.1915 114.827 32.2759 115.369 32.4428C115.502 32.4882 115.643 32.5418 115.809 32.6083C115.86 32.629 115.897 32.642 115.924 32.651C115.949 32.6323 115.988 32.5986 116.042 32.5402C116.186 32.3811 116.311 32.1887 116.413 31.9679C116.538 31.7 116.557 31.5551 116.557 31.4926C116.555 31.4926 116.525 31.411 116.317 31.2702C116.049 31.0949 115.654 30.9439 115.153 30.8266C114.63 30.7048 114.036 30.6427 113.386 30.6427C112.609 30.6427 111.874 30.7681 111.201 31.0157C110.549 31.2556 110.036 31.6184 109.634 32.1233C109.24 32.6177 109.048 33.2277 109.048 33.9883C109.048 34.9059 109.258 35.6105 109.671 36.0825C110.111 36.585 110.732 37.0152 111.519 37.3614L112.444 37.7328C113.255 38.0356 113.843 38.3103 114.229 38.5685C114.708 38.8907 114.962 39.353 114.962 39.9066C114.962 40.7451 114.514 41.1542 114.138 41.3499C113.687 41.5848 113.145 41.7042 112.526 41.7042C111.994 41.7042 111.517 41.638 111.11 41.5077C110.736 41.388 110.316 41.2208 109.862 41.011C109.696 40.9277 109.592 40.8819 109.531 40.8567ZM113.058 44.1812C112.05 44.1812 111.153 44.0866 110.39 43.9003C109.596 43.7071 108.985 43.4595 108.519 43.1438C108.005 42.8223 107.737 42.4489 107.737 42.0435C107.737 41.7736 107.83 41.4789 108.021 41.1429C108.192 40.8409 108.398 40.5702 108.633 40.3388C108.83 40.1448 109.136 39.8871 109.518 39.8871C109.679 39.8871 109.864 39.9334 110.336 40.1716C110.735 40.3551 111.113 40.5061 111.446 40.6128C111.745 40.7082 112.108 40.7565 112.526 40.7565C112.966 40.7565 113.339 40.679 113.635 40.5247C113.776 40.4513 113.937 40.3149 113.937 39.9066C113.937 39.6554 113.841 39.4792 113.627 39.3351C113.314 39.1265 112.783 38.881 112.048 38.6062L111.094 38.2235C110.152 37.8091 109.411 37.2916 108.874 36.6779C108.309 36.0334 108.023 35.1287 108.023 33.9883C108.023 33.0321 108.287 32.2155 108.809 31.5616C109.32 30.9187 109.998 30.439 110.822 30.1354C111.617 29.8436 112.479 29.695 113.386 29.695C114.121 29.695 114.799 29.7669 115.404 29.9085C116.029 30.0546 116.538 30.2535 116.915 30.5011C117.359 30.8002 117.581 31.1322 117.581 31.4926C117.581 31.7361 117.508 32.0133 117.356 32.3409C117.214 32.6473 117.036 32.9192 116.827 33.149C116.545 33.4603 116.256 33.6112 115.943 33.6112C115.798 33.6112 115.63 33.5698 115.401 33.4773C115.254 33.4184 115.13 33.371 115.027 33.3352C114.608 33.207 114.146 33.1388 113.672 33.1388C112.907 33.1388 112.619 33.2715 112.515 33.3507C112.306 33.5118 112.281 33.6408 112.281 33.7236C112.281 33.94 112.337 34.1076 112.451 34.2358C112.599 34.4023 112.775 34.5334 112.989 34.6373C113.25 34.7639 113.645 34.9339 114.163 35.1425C114.953 35.4498 115.614 35.7489 116.124 36.0306C116.681 36.3378 117.167 36.7814 117.569 37.35C117.984 37.9369 118.196 38.6825 118.196 39.5665C118.196 40.6274 117.943 41.5167 117.445 42.2103C116.948 42.9031 116.297 43.4132 115.512 43.7266C114.755 44.0281 113.929 44.1812 113.058 44.1812Z" fill="#A41E22"/>
<path d="M120.024 40.8283H120.024H120.024ZM120.104 40.8567C120.071 40.8807 120.021 40.9208 119.953 40.9874C119.782 41.1567 119.629 41.3568 119.501 41.5824C119.357 41.8377 119.335 41.981 119.335 42.0435C119.335 42.0443 119.35 42.1612 119.683 42.3698C120.054 42.621 120.567 42.8244 121.224 42.9843C121.901 43.1499 122.712 43.2339 123.631 43.2339C124.361 43.2339 125.05 43.1064 125.679 42.8564C126.287 42.6141 126.772 42.2318 127.163 41.6871C127.548 41.1514 127.743 40.4379 127.743 39.5665C127.743 38.87 127.588 38.299 127.284 37.8688C126.967 37.4211 126.593 37.0765 126.171 36.8439C125.703 36.585 125.084 36.3054 124.333 36.0135C123.786 35.7932 123.368 35.6129 123.085 35.4762C122.752 35.3146 122.465 35.0995 122.232 34.8374C121.965 34.5378 121.829 34.1628 121.829 33.7236C121.829 33.4326 121.934 33.0053 122.434 32.6217C122.812 32.3319 123.404 32.1915 124.245 32.1915C124.829 32.1915 125.4 32.2759 125.942 32.4428C126.075 32.4882 126.215 32.5418 126.382 32.6083C126.433 32.629 126.47 32.642 126.497 32.651C126.522 32.6323 126.562 32.5986 126.615 32.5402C126.758 32.3811 126.884 32.1887 126.987 31.9679C127.11 31.7 127.129 31.5551 127.129 31.4926C127.128 31.4926 127.099 31.411 126.889 31.2702C126.621 31.0949 126.228 30.9439 125.726 30.8266C125.203 30.7048 124.608 30.6427 123.958 30.6427C123.182 30.6427 122.447 30.7681 121.774 31.0157C121.122 31.2556 120.61 31.6184 120.207 32.1233C119.813 32.6177 119.621 33.2277 119.621 33.9883C119.621 34.9059 119.831 35.6105 120.244 36.0825C120.683 36.585 121.305 37.0152 122.092 37.3614L123.016 37.7328C123.828 38.0356 124.416 38.3103 124.801 38.5685C125.282 38.8907 125.535 39.353 125.535 39.9066C125.535 40.7451 125.087 41.1542 124.711 41.3499C124.26 41.5848 123.718 41.7042 123.099 41.7042C122.566 41.7042 122.09 41.638 121.683 41.5077C121.308 41.388 120.888 41.2208 120.434 41.011C120.269 40.9277 120.166 40.8819 120.104 40.8567ZM123.631 44.1812C122.623 44.1812 121.725 44.0866 120.963 43.9003C120.17 43.7071 119.558 43.4595 119.092 43.1438C118.578 42.8223 118.31 42.4489 118.31 42.0435C118.31 41.7736 118.402 41.4789 118.593 41.1429C118.765 40.8409 118.971 40.5702 119.206 40.3388C119.403 40.1448 119.709 39.8871 120.091 39.8871C120.252 39.8871 120.437 39.9334 120.91 40.1716C121.307 40.3551 121.686 40.5061 122.019 40.6128C122.317 40.7082 122.681 40.7565 123.099 40.7565C123.54 40.7565 123.913 40.679 124.208 40.5247C124.348 40.4513 124.51 40.3149 124.51 39.9066C124.51 39.6554 124.414 39.4792 124.2 39.3351C123.887 39.1265 123.356 38.881 122.621 38.6062L121.667 38.2235C120.725 37.8091 119.984 37.2916 119.447 36.6779C118.882 36.0334 118.596 35.1287 118.596 33.9883C118.596 33.0321 118.86 32.2155 119.381 31.5616C119.894 30.9187 120.571 30.439 121.395 30.1354C122.19 29.8436 123.052 29.695 123.958 29.695C124.693 29.695 125.372 29.7669 125.977 29.9085C126.602 30.0546 127.11 30.2535 127.488 30.5011C127.932 30.8002 128.155 31.1322 128.155 31.4926C128.155 31.7361 128.081 32.0133 127.929 32.3409C127.787 32.6473 127.609 32.9192 127.4 33.149C127.118 33.4603 126.828 33.6112 126.516 33.6112C126.37 33.6112 126.203 33.5698 125.974 33.4773C125.827 33.4184 125.702 33.371 125.6 33.3352C125.181 33.207 124.719 33.1388 124.245 33.1388C123.48 33.1388 123.192 33.2715 123.089 33.3507C122.879 33.5118 122.854 33.6408 122.854 33.7236C122.854 33.94 122.91 34.1076 123.024 34.2358C123.172 34.4023 123.348 34.5334 123.562 34.6373C123.823 34.7639 124.218 34.9339 124.736 35.1425C125.525 35.4498 126.187 35.7489 126.697 36.0306C127.254 36.3378 127.739 36.7814 128.142 37.35C128.558 37.9369 128.768 38.6825 128.768 39.5665C128.768 40.6274 128.515 41.5167 128.017 42.2103C127.521 42.9031 126.87 43.4132 126.085 43.7266C125.327 44.0281 124.502 44.1812 123.631 44.1812Z" fill="#A41E22"/>
<path d="M133.679 35.3869H135.11C135.39 35.3869 135.621 35.2855 135.838 35.0671C136.064 34.8406 136.173 34.5679 136.173 34.2343C136.173 33.9254 136.08 33.703 135.881 33.535C135.67 33.3576 135.371 33.2711 134.967 33.2711H133.679V35.3869ZM135.11 36.3342H132.654V32.3239H134.967C135.628 32.3239 136.168 32.4955 136.571 32.8348C136.987 33.1855 137.199 33.6563 137.199 34.2343C137.199 34.809 136.995 35.3049 136.593 35.7084C136.179 36.1236 135.681 36.3342 135.11 36.3342ZM130.53 43.0082H130.533H130.53ZM138.123 43.0176C138.133 43.0176 138.28 43.1199 138.835 43.1199H139.674C140.02 43.1199 140.224 43.0927 140.337 43.0671C140.333 43.0545 140.327 43.0407 140.321 43.0261L138.523 38.8729C138.363 38.5113 138.158 38.1752 137.914 37.8761C137.636 37.5368 137.44 37.4329 137.347 37.4016C137.347 37.4016 137.101 37.299 137.043 37.232C136.923 37.0924 136.931 36.7486 137.037 36.5992C137.089 36.527 137.347 36.4373 137.347 36.4373C137.996 36.2153 138.493 35.8861 138.867 35.432C139.23 34.9896 139.406 34.4802 139.406 33.8751C139.406 32.5524 138.932 30.7937 134.824 30.7937H130.834C130.63 30.7937 130.572 30.8347 130.572 30.8351C130.572 30.8351 130.528 30.8879 130.528 31.0766V42.9888C130.528 43.0009 130.529 43.0066 130.53 43.0078C130.533 43.0078 130.666 43.1199 131.243 43.1199H131.939C132.531 43.1199 132.656 43.0017 132.656 43.0009L132.654 37.9017H133.965C134.692 37.9017 135.22 38.0125 135.577 38.2414C135.916 38.4581 136.213 38.8023 136.487 39.293L136.507 39.3315L138.123 43.0184C138.122 43.0176 138.123 43.0176 138.123 43.0176ZM139.674 44.0671H138.835C138.503 44.0671 137.494 44.0671 137.177 43.3833L135.565 39.7082C135.33 39.2926 135.125 39.1046 134.992 39.0198C134.892 38.9561 134.627 38.8489 133.965 38.8489H133.679V42.9888C133.679 43.3914 133.453 44.0671 131.939 44.0671H131.243C129.729 44.0671 129.503 43.3914 129.503 42.9888V31.0766C129.503 30.683 129.619 30.3761 129.848 30.1651C130.076 29.9536 130.408 29.8465 130.834 29.8465H134.824C139.459 29.8465 140.432 32.0373 140.432 33.8751C140.432 34.6831 140.18 35.3999 139.683 36.005C139.353 36.4064 138.942 36.7397 138.455 37.0002C138.548 37.0907 138.64 37.1918 138.732 37.3046C139.031 37.6703 139.28 38.0786 139.473 38.5182L141.275 42.6803C141.372 42.9137 141.414 43.0768 141.414 43.2156C141.414 43.4031 141.331 43.7453 140.771 43.9348C140.506 44.0241 140.147 44.0671 139.674 44.0671Z" fill="#A41E22"/>
<path d="M148.37 33.1388C147.445 33.1388 146.768 33.4298 146.3 34.0293C145.8 34.6685 145.547 35.647 145.547 36.9381C145.547 38.2304 145.801 39.2126 146.301 39.8579C146.769 40.463 147.445 40.7565 148.37 40.7565C149.293 40.7565 149.966 40.4634 150.428 39.8603V39.8599C150.922 39.2142 151.172 38.2316 151.172 36.9381C151.172 35.6462 150.922 34.6669 150.428 34.0268C149.967 33.429 149.294 33.1388 148.37 33.1388ZM148.37 41.7042C147.109 41.7042 146.132 41.2683 145.467 40.4094C144.84 39.6002 144.522 38.4325 144.522 36.9381C144.522 35.4441 144.841 34.2789 145.468 33.4749C146.134 32.6229 147.11 32.1915 148.37 32.1915C149.631 32.1915 150.605 32.6238 151.263 33.4773C151.883 34.2809 152.198 35.4449 152.198 36.9381C152.198 38.4313 151.884 39.5981 151.265 40.407C150.606 41.2679 149.632 41.7042 148.37 41.7042ZM148.37 30.6427C146.39 30.6427 144.921 31.1631 143.881 32.2341C142.841 33.3056 142.314 34.8877 142.314 36.9381C142.314 38.9885 142.841 40.571 143.881 41.6421C144.921 42.7131 146.389 43.2339 148.37 43.2339C150.35 43.2339 151.815 42.7131 152.847 41.6429C153.881 40.5718 154.405 38.9893 154.405 36.9381C154.405 34.8873 153.881 33.3044 152.847 32.2333C151.814 31.1631 150.349 30.6427 148.37 30.6427ZM148.37 44.1812C146.114 44.1812 144.347 43.5395 143.118 42.2744C141.905 41.0247 141.289 39.2296 141.289 36.9381C141.289 34.647 141.905 32.8519 143.118 31.6018C144.347 30.3367 146.114 29.695 148.37 29.695C150.627 29.695 152.39 30.3371 153.612 31.6026C154.819 32.8531 155.431 34.6478 155.431 36.9381C155.431 39.2288 154.819 41.0235 153.612 42.2736C152.391 43.5395 150.627 44.1812 148.37 44.1812Z" fill="#A41E22"/>
<path d="M163.328 33.1388C162.403 33.1388 161.726 33.4298 161.258 34.0293C160.759 34.6685 160.506 35.647 160.506 36.9381C160.506 38.2304 160.759 39.2126 161.259 39.8579C161.727 40.463 162.404 40.7565 163.328 40.7565C164.251 40.7565 164.924 40.4634 165.386 39.8603V39.8599C165.88 39.2142 166.13 38.2316 166.13 36.9381C166.13 35.6462 165.88 34.6669 165.387 34.0268C164.925 33.429 164.252 33.1388 163.328 33.1388ZM163.328 41.7042C162.066 41.7042 161.09 41.2683 160.425 40.4094C159.798 39.6002 159.48 38.4325 159.48 36.9381C159.48 35.4441 159.798 34.2789 160.426 33.4749C161.091 32.6229 162.068 32.1915 163.328 32.1915C164.589 32.1915 165.563 32.6238 166.222 33.4773C166.841 34.2809 167.155 35.4449 167.155 36.9381C167.155 38.4313 166.842 39.5981 166.223 40.407C165.565 41.2679 164.59 41.7042 163.328 41.7042ZM163.328 30.6427C161.348 30.6427 159.88 31.1631 158.839 32.2341C157.8 33.3056 157.272 34.8877 157.272 36.9381C157.272 38.9885 157.8 40.571 158.839 41.6421C159.88 42.7131 161.348 43.2339 163.328 43.2339C165.308 43.2339 166.772 42.7131 167.806 41.6429C168.839 40.5718 169.364 38.9893 169.364 36.9381C169.364 34.8873 168.839 33.3044 167.806 32.2333C166.772 31.1631 165.308 30.6427 163.328 30.6427ZM163.328 44.1812C161.072 44.1812 159.305 43.5395 158.076 42.2744C156.862 41.0247 156.247 39.2296 156.247 36.9381C156.247 34.647 156.862 32.8519 158.076 31.6018C159.305 30.3367 161.072 29.695 163.328 29.695C165.585 29.695 167.349 30.3371 168.571 31.6026C169.777 32.8531 170.389 34.6478 170.389 36.9381C170.389 39.2288 169.777 41.0235 168.571 42.2736C167.349 43.5395 165.585 44.1812 163.328 44.1812Z" fill="#A41E22"/>
<path d="M183.239 34.5931L184.008 33.289C184.037 33.2395 184.114 33.2602 184.114 33.3178L184.099 42.9656C184.099 42.9847 184.107 43.0026 184.124 43.0135C184.184 43.0517 184.363 43.1199 184.813 43.1199H185.407C185.853 43.1199 186.033 43.0529 186.096 43.0192C186.115 43.0095 186.125 42.9908 186.125 42.9697L186.122 30.911C186.122 30.8916 186.113 30.8741 186.097 30.8631C186.037 30.825 185.857 30.7564 185.407 30.7564H184.343C183.891 30.7564 183.609 30.8457 183.502 31.0231L179.865 36.9324L179.482 37.6013C179.461 37.6382 179.409 37.6395 179.385 37.6037L178.765 36.6301L175.363 31.0251C175.255 30.8457 174.972 30.7564 174.521 30.7564H173.437C172.99 30.7564 172.81 30.8234 172.747 30.8571C172.729 30.8672 172.718 30.8859 172.718 30.907L172.721 42.9656C172.721 42.9847 172.73 43.0026 172.747 43.0135C172.806 43.0517 172.986 43.1199 173.437 43.1199H174.03C174.476 43.1199 174.657 43.0529 174.719 43.0192C174.737 43.0095 174.748 42.9908 174.748 42.9697L174.745 34.7907L174.75 33.4242C174.751 33.3397 174.863 33.3101 174.905 33.3832L175.793 34.9202C175.912 35.1292 176.058 35.3683 176.231 35.6382L178.736 39.7784C178.802 39.8539 178.904 39.9245 179.125 39.9245H179.719C179.939 39.9245 180.041 39.8539 180.107 39.778L182.606 35.6479C182.784 35.3687 182.931 35.1292 183.051 34.9202L183.239 34.5931ZM185.407 44.0671H184.813C183.3 44.0671 183.073 43.3914 183.073 42.9888V37.0205C183.073 36.9633 182.998 36.9422 182.968 36.9913L180.95 40.3202C180.661 40.6814 180.236 40.8718 179.719 40.8718H179.125C178.607 40.8718 178.181 40.6814 177.893 40.3198L177.859 40.2703L175.875 36.9921C175.846 36.943 175.77 36.9637 175.77 37.0213V42.9888C175.77 43.3914 175.544 44.0671 174.03 44.0671H173.437C171.922 44.0671 171.696 43.3914 171.696 42.9888V30.8875C171.696 30.4849 171.922 29.8091 173.437 29.8091H174.521C175.373 29.8091 175.957 30.0628 176.258 30.5628L179.355 35.6666C179.378 35.7027 179.43 35.7031 179.452 35.667L182.609 30.5579C182.907 30.0628 183.491 29.8091 184.343 29.8091H185.407C186.921 29.8091 187.147 30.4849 187.147 30.8875V42.9888C187.147 43.3914 186.921 44.0671 185.407 44.0671Z" fill="#A41E22"/>
<path d="M195.878 6.06486C194.925 6.06486 194.178 6.81126 194.178 7.76463V22.545C194.178 23.498 194.925 24.2448 195.878 24.2448H206.517C207.334 24.2448 208 23.5909 208 22.7885C208 21.9699 207.334 21.3043 206.517 21.3043H197.936H197.552V20.9203V16.9408V16.5565H197.936H205.163C205.981 16.5565 206.646 15.9034 206.646 15.1002C206.646 14.2824 205.981 13.6168 205.163 13.6168H197.936H197.552V13.2328V9.38849V9.00415H197.936H206.381C207.2 9.00415 207.865 8.35069 207.865 7.54789C207.865 6.73007 207.2 6.06486 206.381 6.06486H195.878Z" fill="#A41E22"/>
<path d="M173.881 24.4071C173.135 24.4071 172.58 24.002 172.23 23.2025L170.859 19.995H162.014L160.588 23.3413C160.295 24.0179 159.723 24.4071 159.02 24.4071C158.158 24.4071 157.482 23.7196 157.482 22.8421C157.482 22.601 157.587 22.3356 157.691 22.1075L164.297 7.18952C164.588 6.54094 165.186 5.76657 166.382 5.76657H166.626C167.57 5.76657 168.262 6.24589 168.684 7.19074L175.289 22.1046C175.416 22.3851 175.473 22.5945 175.473 22.7881C175.473 23.696 174.773 24.4071 173.881 24.4071ZM163.232 17.0816H169.641L166.437 9.4514L163.232 17.0816Z" fill="#A41E22"/>
<path d="M72.4643 5.90251C71.5109 5.90251 70.7642 6.6489 70.7642 7.60187V22.5446C70.7642 23.498 71.5109 24.2448 72.4643 24.2448H82.2631C83.1101 24.2448 83.7733 23.5807 83.7733 22.7341C83.7733 21.8871 83.1101 21.2231 82.2631 21.2231H74.5484H74.1637V20.8391V7.60187C74.1637 6.6489 73.4169 5.90251 72.4643 5.90251Z" fill="#A41E22"/>
<path d="M131.494 5.73969C126.139 5.73969 121.944 9.87504 121.944 15.1545V15.2085C121.944 20.7197 125.882 24.569 131.521 24.569C133.802 24.569 135.965 23.9508 137.952 22.7312C138.838 22.2044 139.231 21.488 139.231 20.406V15.8043C139.231 14.8509 138.484 14.1041 137.53 14.1041H132.766C131.979 14.1041 131.337 14.745 131.337 15.5332C131.337 16.3194 131.964 16.9355 132.766 16.9355H135.582H135.966V17.3198V20.0273V20.2242L135.806 20.3399C134.704 21.1305 133.27 21.5481 131.657 21.5481C128.108 21.5481 125.533 18.8593 125.533 15.1545V15.1001C125.533 11.6345 128.147 8.81451 131.359 8.81451C133.073 8.81451 134.379 9.22485 135.723 10.1855C135.983 10.3743 136.287 10.5468 136.773 10.5468C137.695 10.5468 138.446 9.79672 138.446 8.87419C138.446 8.10913 137.95 7.66227 137.736 7.5056C135.965 6.26974 134.096 5.73969 131.494 5.73969Z" fill="#A41E22"/>
<path d="M101.129 24.4071C100.384 24.4071 99.8286 24.002 99.4784 23.2025L98.1078 19.995H89.2623L87.8366 23.3413C87.5431 24.0179 86.9713 24.4071 86.2683 24.4071C85.4058 24.4071 84.7305 23.7196 84.7305 22.8421C84.7305 22.6006 84.8364 22.3356 84.9399 22.1079L91.5461 7.18952C91.8363 6.54094 92.4342 5.76657 93.6315 5.76657H93.8746C94.8174 5.76657 95.5102 6.2463 95.9331 7.19074L102.537 22.1046C102.665 22.3859 102.722 22.5953 102.722 22.7881C102.722 23.696 102.022 24.4071 101.129 24.4071ZM90.4812 17.0816H96.8894L93.6859 9.4514L90.4812 17.0816Z" fill="#A41E22"/>
<path d="M184.773 5.73969C179.417 5.73969 175.222 9.87504 175.222 15.1545V15.2085C175.222 20.7197 179.161 24.569 184.799 24.569C187.08 24.569 189.243 23.9508 191.231 22.7312C192.116 22.2044 192.509 21.488 192.509 20.406V15.8043C192.509 14.8509 191.762 14.1041 190.809 14.1041H186.045C185.257 14.1041 184.615 14.745 184.615 15.5332C184.615 16.3194 185.244 16.9355 186.045 16.9355H188.86H189.245V17.3198V20.0273V20.2242L189.084 20.3399C187.983 21.1305 186.548 21.5481 184.935 21.5481C181.387 21.5481 178.812 18.8593 178.812 15.1545V15.1001C178.812 11.6345 181.425 8.81451 184.637 8.81451C186.351 8.81451 187.657 9.22485 189.002 10.1855C189.262 10.3743 189.565 10.5468 190.051 10.5468C190.974 10.5468 191.724 9.79672 191.724 8.87419C191.724 8.10913 191.228 7.66227 191.015 7.5056C189.245 6.26974 187.376 5.73969 184.773 5.73969Z" fill="#A41E22"/>
<path d="M142.993 5.9021C142.039 5.9021 141.292 6.64889 141.292 7.60186V16.5077C141.292 21.6886 144.069 24.5422 149.11 24.5422C154.221 24.5422 157.036 21.6411 157.036 16.3722V7.60186C157.036 6.64889 156.289 5.9021 155.336 5.9021C154.383 5.9021 153.636 6.64889 153.636 7.60186V16.5349C153.636 19.669 152.006 21.4666 149.164 21.4666C146.322 21.4666 144.692 19.6199 144.692 16.3998V7.60186C144.692 6.64889 143.946 5.9021 142.993 5.9021Z" fill="#A41E22"/>
<path d="M105.831 5.9565C104.878 5.9565 104.131 6.7033 104.131 7.65668V22.7337C104.131 23.6567 104.881 24.4071 105.804 24.4071C106.726 24.4071 107.476 23.6567 107.476 22.7337V12.5831V11.445L108.167 12.3497L116.504 23.2857C117.015 23.9432 117.506 24.3523 118.364 24.3523H118.499C119.452 24.3523 120.199 23.6055 120.199 22.6529V7.57469C120.199 6.65257 119.449 5.90252 118.526 5.90252C117.604 5.90252 116.853 6.65257 116.853 7.57469V17.3467V18.4859L116.163 17.5796L108.124 7.02271C107.612 6.36562 107.122 5.9565 106.264 5.9565H105.831Z" fill="#A41E22"/>
<path d="M39.334 29.5688H51.592C52.6135 29.5688 53.4135 28.7831 53.4135 27.7802C53.4135 26.7757 52.5965 25.9587 51.592 25.9587H43.721H42.7234L43.5132 25.3495L47.1904 22.5108C51.2255 19.3869 52.9938 17.6413 52.9938 14.038V13.9739C52.9938 9.94773 50.0756 7.34654 45.5604 7.34654C42.5201 7.34654 40.3978 8.30438 38.4626 10.5504C38.1566 10.9129 37.9642 11.4222 37.9642 11.8768C37.9642 12.9523 38.8072 13.7949 39.8824 13.7949C40.7002 13.7949 41.1807 13.3371 41.3082 13.1963C42.4681 11.9474 43.5782 11.1174 45.2369 11.1174C47.2861 11.1174 48.6097 12.4036 48.6097 14.3932C48.6097 16.4424 47.5934 17.7342 44.5161 20.2453L38.1627 25.3336C37.3887 25.9587 36.9971 26.7055 36.9971 27.5541C36.9971 28.7782 37.9143 29.5688 39.334 29.5688Z" fill="#A41E22"/>
<path d="M21.1227 14.0676C22.1118 14.0676 22.9166 13.2766 22.9166 12.3045C22.9166 11.315 22.1118 10.5102 21.1227 10.5102H9.21338C8.07006 10.5102 7.17432 11.4063 7.17432 12.55V29.3082C7.17432 30.4523 8.07006 31.3477 9.21338 31.3477H21.7599C22.7494 31.3477 23.5542 30.5566 23.5542 29.5846C23.5542 28.5947 22.7494 27.7903 21.7599 27.7903H11.2224V22.6305H18.5308C19.5203 22.6305 20.3247 21.8399 20.3247 20.8674C20.3247 19.8783 19.5203 19.0735 18.5308 19.0735H11.2224V14.0676H21.1227Z" fill="#A41E22"/>
<path d="M29.75 34.5959H22.4993L18.9971 38.8315L15.4961 34.5959H6.71925C5.12136 34.5959 3.43211 32.9278 3.43211 31.351V10.5042C3.43211 8.89209 5.12136 7.18705 6.71925 7.18705H27.1354C27.9581 5.94917 28.9026 4.79894 29.9526 3.75506H6.66121C2.91922 3.75506 0 6.52833 0 10.3836V31.3376C0 35.1336 2.91289 38.0271 6.7367 38.0271H13.2606L18.7742 44.3496L24.2879 38.0271H34.111C32.5014 37.0656 31.0403 35.9084 29.75 34.5959Z" fill="#A41E22"/>
<path d="M48.7972 34.6823L45.3668 38.8315L41.9373 34.6823C34.8687 33.1112 29.5661 26.7956 29.5661 19.2603C29.5661 10.5476 36.6541 3.45919 45.3672 3.45919C54.0803 3.45919 61.1687 10.5476 61.1687 19.2603C61.1687 26.7956 55.8657 33.1112 48.7972 34.6823ZM45.3672 2.64344e-06C34.7299 2.64344e-06 26.1069 8.62299 26.1069 19.2603C26.1069 27.8415 31.72 35.1085 39.4737 37.5985L45.3672 44.3496L51.2709 37.5952C59.0193 35.102 64.6271 27.8374 64.6271 19.2603C64.6271 8.62299 56.0041 2.64344e-06 45.3672 2.64344e-06Z" fill="#A41E22"/>
</svg>
