<svg width="208" height="45" viewBox="0 0 208 45" fill="none" xmlns="http://www.w3.org/2000/svg">
<path d="M76.0271 44.7106C72.6948 44.7106 70.678 43.5619 70.678 42.5016C70.678 41.7947 71.6426 40.2926 72.4318 40.2926C72.6948 40.2926 72.8702 40.3809 73.221 40.5577C73.7471 40.8227 74.4486 41.1762 75.4132 41.1762C76.8163 41.1762 76.8163 40.5577 76.8163 40.2926C76.8163 39.7624 76.1147 39.409 74.8871 38.9672C74.5363 38.8788 74.2733 38.7021 73.9225 38.6137C72.4318 37.9068 70.8534 36.9349 70.8534 34.284C70.8534 31.0147 73.7471 29.9543 76.2024 29.9543C78.5701 29.9543 80.4115 30.7496 80.4115 31.8099C80.4115 32.4285 79.71 33.9306 78.7454 33.9306C78.5701 33.9306 78.3947 33.8422 78.2193 33.7539C77.8685 33.6655 77.3424 33.4004 76.4655 33.4004C75.9394 33.4004 75.0625 33.4888 75.0625 34.019C75.0625 34.7258 75.6763 34.9909 76.9039 35.4327L76.7286 35.8745L76.9039 35.4327C78.5701 36.1396 80.9377 37.0232 80.9377 39.9391C81.2007 43.4736 78.5701 44.7106 76.0271 44.7106ZM72.5195 41.3529C72.2564 41.5296 71.7303 42.2365 71.7303 42.59C71.8179 42.8551 73.0456 43.827 76.0271 43.827C76.9916 43.827 80.1485 43.5619 80.1485 40.1159C80.1485 37.8185 78.3947 37.1999 76.7286 36.4931L76.9039 36.0513L76.7286 36.4931C75.5886 36.0513 74.1856 35.5211 74.1856 34.1957C74.1856 33.8422 74.361 32.6052 76.6409 32.6052C77.6932 32.6052 78.3947 32.8703 78.7454 33.047C78.8331 33.047 78.8331 33.1353 78.9208 33.1353C79.1839 32.9586 79.5346 32.2517 79.5346 31.9867C79.447 31.8099 78.3947 31.103 76.3778 31.103C74.2733 31.103 71.9933 31.9866 71.9933 34.5491C71.9933 36.4931 72.9579 37.2883 74.4486 37.9952C74.7994 38.1719 75.0625 38.2603 75.4132 38.3486C76.6409 38.8788 77.9562 39.3206 77.9562 40.5577C77.9562 41.7064 77.0793 42.4132 75.5009 42.4132C74.2733 42.4132 73.3087 41.9714 72.7825 41.7064C72.6948 41.4413 72.6072 41.3529 72.5195 41.3529Z" fill="#F4C12B"/>
<path d="M88.7421 44.7106C83.8315 44.7106 81.4639 42.3249 81.4639 37.2883C81.4639 32.4285 83.9192 29.9543 88.8298 29.9543C90.4082 29.9543 93.6527 30.3962 93.6527 31.8099C93.6527 32.5168 92.6881 34.1073 91.8112 34.1073C91.6359 34.1073 91.4605 34.019 91.2851 33.9306C90.8467 33.7539 90.1451 33.4888 88.8298 33.4888C87.4268 33.4888 85.7607 33.9306 85.7607 37.3767C85.7607 40.9111 87.5145 41.2646 88.7421 41.2646C90.0575 41.2646 90.9343 40.9111 91.4605 40.646C91.7236 40.5577 91.8989 40.4693 92.162 40.4693C93.302 40.4693 93.9158 42.1482 93.9158 42.59C93.8281 44.3572 90.1451 44.7106 88.7421 44.7106ZM88.8298 30.9263C84.533 30.9263 82.5161 33.047 82.5161 37.2883C82.5161 41.7947 84.4453 43.7387 88.7421 43.7387C90.759 43.7387 92.7758 43.1201 92.7758 42.59C92.7758 42.3249 92.3374 41.5296 92.0743 41.4413C91.9866 41.4413 91.8989 41.5296 91.8112 41.5296C91.2851 41.7947 90.2328 42.2365 88.7421 42.2365C86.9006 42.2365 84.7084 41.3529 84.7084 37.3767C84.7084 34.1957 86.1114 32.6052 88.7421 32.6052C90.3205 32.6052 91.1974 32.9586 91.6359 33.1353C91.7236 33.1353 91.7236 33.1353 91.7236 33.2237C91.9866 33.047 92.5128 32.2517 92.5128 31.8983C92.5128 31.4565 90.6713 30.9263 88.8298 30.9263Z" fill="#F4C12B"/>
<path d="M106.192 44.6223H105.491C104.088 44.6223 103.737 44.0038 103.737 43.562V39.0556H99.2648V43.6503C99.2648 44.1805 99.0017 44.7107 97.511 44.7107H96.8095C95.4064 44.7107 95.0557 44.0922 95.0557 43.6503V31.1914C95.0557 30.6613 95.4064 30.1311 96.8095 30.1311H97.511C99.0017 30.1311 99.2648 30.7496 99.2648 31.1914V35.4328H103.825V31.1914C103.825 30.6613 104.175 30.1311 105.578 30.1311H106.28C107.771 30.1311 108.034 30.7496 108.034 31.1914V43.562C107.946 44.0038 107.595 44.6223 106.192 44.6223ZM98.1248 37.9952H104.702V43.4736C104.702 43.4736 104.789 43.6503 105.403 43.6503H106.105C106.718 43.6503 106.806 43.562 106.806 43.562V31.1914C106.806 31.1914 106.718 31.1031 106.105 31.1031H105.403C104.789 31.1031 104.702 31.1914 104.702 31.1914V36.4931H98.1248V31.2798C98.1248 31.2798 98.0371 31.1914 97.4233 31.1914H96.7218C96.1079 31.1914 96.0202 31.2798 96.0202 31.2798V43.6503C96.0202 43.6503 96.1079 43.8271 96.7218 43.8271H97.4233C98.0371 43.8271 98.1248 43.7387 98.1248 43.7387V37.9952Z" fill="#F4C12B"/>
<path d="M116.364 44.7107C111.892 44.7107 109.261 42.0599 109.261 37.2884C109.261 32.5169 111.892 29.8661 116.364 29.8661C120.837 29.8661 123.467 32.6053 123.467 37.2884C123.467 41.9715 120.837 44.7107 116.364 44.7107ZM116.364 30.9264C112.418 30.9264 110.314 33.1354 110.314 37.3768C110.314 41.6181 112.418 43.8271 116.364 43.8271C120.31 43.8271 122.415 41.6181 122.415 37.3768C122.415 33.1354 120.31 30.9264 116.364 30.9264ZM116.364 42.1483C114.961 42.1483 112.506 41.5297 112.506 37.2884C112.506 33.0471 114.961 32.4286 116.364 32.4286C117.767 32.4286 120.223 33.0471 120.223 37.2884C120.223 41.5297 117.767 42.1483 116.364 42.1483ZM116.364 33.4889C114.523 33.4889 113.558 34.8143 113.558 37.3768C113.558 39.9392 114.523 41.2647 116.364 41.2647C118.206 41.2647 119.17 39.9392 119.17 37.3768C119.17 34.7259 118.206 33.4889 116.364 33.4889Z" fill="#F4C12B"/>
<path d="M131.359 44.7107C126.887 44.7107 124.256 42.0599 124.256 37.2884C124.256 32.5169 126.887 29.8661 131.359 29.8661C135.831 29.8661 138.462 32.6053 138.462 37.2884C138.462 41.9715 135.919 44.7107 131.359 44.7107ZM131.359 30.9264C127.413 30.9264 125.309 33.1354 125.309 37.3768C125.309 41.6181 127.413 43.8271 131.359 43.8271C135.305 43.8271 137.41 41.6181 137.41 37.3768C137.41 33.1354 135.305 30.9264 131.359 30.9264ZM131.359 42.1483C129.956 42.1483 127.501 41.5297 127.501 37.2884C127.501 33.0471 129.956 32.4286 131.359 32.4286C132.762 32.4286 135.218 33.0471 135.218 37.2884C135.218 41.5297 132.762 42.1483 131.359 42.1483ZM131.359 33.4889C129.518 33.4889 128.553 34.8143 128.553 37.3768C128.553 39.9392 129.518 41.2647 131.359 41.2647C133.201 41.2647 134.165 39.9392 134.165 37.3768C134.165 34.7259 133.201 33.4889 131.359 33.4889Z" fill="#F4C12B"/>
<path d="M148.02 44.534H141.093C140.216 44.534 139.777 44.0922 139.777 43.2969V31.1914C139.777 30.6613 140.128 30.1311 141.531 30.1311H142.233C143.723 30.1311 143.986 30.7496 143.986 31.1914V41.0879H148.02C148.546 41.0879 149.16 41.353 149.16 42.5017V43.1202C149.16 44.2689 148.546 44.534 148.02 44.534ZM141.531 31.0147C140.917 31.0147 140.83 31.1031 140.83 31.1031V43.2969C140.83 43.562 140.83 43.562 141.18 43.562H148.108C148.108 43.562 148.108 43.562 148.196 43.562C148.196 43.562 148.283 43.4736 148.283 43.1202V42.5017C148.283 42.1482 148.196 42.0598 148.196 42.0598H143.11V31.1914C143.11 31.1914 143.022 31.1031 142.408 31.1031H141.531V31.0147Z" fill="#F4C12B"/>
<path d="M195.899 6.09692C194.934 6.09692 194.233 6.89217 194.233 7.77578V22.7088C194.233 23.6808 195.022 24.3877 195.899 24.3877H206.509C207.298 24.3877 208 23.7691 208 22.8855C208 22.0903 207.298 21.3834 206.509 21.3834H197.916H197.565V21.0299V17.0537V16.7002H197.916H205.106C205.895 16.7002 206.597 16.0817 206.597 15.1981C206.597 14.4029 205.895 13.696 205.106 13.696H197.916H197.565V13.3425V9.45464V9.1012H197.916H206.334C207.123 9.1012 207.825 8.48267 207.825 7.59906C207.825 6.80381 207.123 6.09692 206.334 6.09692H195.899Z" fill="#F4C12B"/>
<path d="M163.278 17.2305H169.68L166.523 9.54307L163.278 17.2305ZM173.889 24.6528C173.187 24.6528 172.573 24.211 172.223 23.4158L170.82 20.1464H161.963L160.56 23.5041C160.297 24.211 159.683 24.5644 158.981 24.5644C158.105 24.5644 157.491 23.8576 157.491 22.9739C157.491 22.7089 157.578 22.4438 157.666 22.2671L164.243 7.24568C164.506 6.62716 165.12 5.83191 166.347 5.83191H166.61C167.575 5.83191 168.277 6.36207 168.715 7.24568L175.292 22.2671C175.467 22.5321 175.467 22.7972 175.467 22.9739C175.467 23.8576 174.766 24.6528 173.889 24.6528Z" fill="#F4C12B"/>
<path d="M72.4317 5.92004C71.4671 5.92004 70.7656 6.71529 70.7656 7.5989V22.6203C70.7656 23.5922 71.5548 24.2991 72.4317 24.2991H82.253C83.1299 24.2991 83.7437 23.5922 83.7437 22.797C83.7437 21.9134 83.0422 21.2949 82.253 21.2949H74.5363H74.1855V20.9414V7.5989C74.1855 6.71529 73.3963 5.92004 72.4317 5.92004Z" fill="#F4C12B"/>
<path d="M131.534 5.83191C126.185 5.83191 121.976 9.98488 121.976 15.2865V15.3749C121.976 20.9416 125.922 24.8295 131.534 24.8295C133.814 24.8295 136.007 24.211 137.936 22.974C138.813 22.4438 139.251 21.7369 139.251 20.6766V16.0818C139.251 15.1098 138.55 14.4029 137.585 14.4029H132.85C132.061 14.4029 131.447 15.0215 131.447 15.8167C131.447 16.612 132.061 17.2305 132.85 17.2305H135.656H136.007V17.5839V20.3231V20.4998L135.831 20.5882C134.691 21.3835 133.288 21.8253 131.71 21.8253C128.202 21.8253 125.572 19.0861 125.572 15.3749V15.2865C125.572 11.8405 128.202 8.92455 131.359 8.92455C133.113 8.92455 134.341 9.36635 135.744 10.3383C136.007 10.515 136.27 10.6918 136.796 10.6918C137.76 10.6918 138.462 9.89652 138.462 9.01291C138.462 8.21766 137.936 7.77585 137.76 7.59913C136.007 6.36208 134.077 5.83191 131.534 5.83191Z" fill="#F4C12B"/>
<path d="M90.4958 17.2305H96.8971L93.7403 9.54307L90.4958 17.2305ZM101.106 24.6528C100.405 24.6528 99.7909 24.211 99.4401 23.4158L98.0371 20.1464H89.1804L87.7774 23.5041C87.5143 24.211 86.9005 24.5644 86.199 24.5644C85.3221 24.5644 84.7083 23.8576 84.7083 22.9739C84.7083 22.7089 84.7959 22.4438 84.8836 22.2671L91.4604 7.24568C91.7234 6.62716 92.3373 5.83191 93.5649 5.83191H93.828C94.7926 5.83191 95.4941 6.36207 95.9325 7.24568L102.509 22.2671C102.685 22.5321 102.685 22.7972 102.685 22.9739C102.685 23.8576 101.983 24.6528 101.106 24.6528Z" fill="#F4C12B"/>
<path d="M184.762 5.83191C179.413 5.83191 175.204 9.98488 175.204 15.2865V15.3749C175.204 20.9416 179.15 24.8295 184.762 24.8295C187.042 24.8295 189.234 24.211 191.164 22.974C192.041 22.4438 192.479 21.7369 192.479 20.6766V16.0818C192.479 15.1098 191.778 14.4029 190.813 14.4029H186.078C185.288 14.4029 184.675 15.0215 184.675 15.8167C184.675 16.612 185.288 17.2305 186.078 17.2305H188.884H189.234V17.5839V20.3231V20.4998L189.059 20.5882C187.919 21.3835 186.516 21.8253 184.938 21.8253C181.43 21.8253 178.799 19.0861 178.799 15.3749V15.2865C178.799 11.8405 181.43 8.92455 184.587 8.92455C186.341 8.92455 187.568 9.36635 188.971 10.3383C189.234 10.515 189.498 10.6918 190.024 10.6918C190.988 10.6918 191.69 9.89652 191.69 9.01291C191.69 8.21766 191.164 7.77585 190.988 7.59913C189.234 6.36208 187.393 5.83191 184.762 5.83191Z" fill="#F4C12B"/>
<path d="M143.022 5.92004C142.057 5.92004 141.356 6.71529 141.356 7.5989V16.6117C141.356 21.825 144.162 24.7409 149.16 24.7409C154.246 24.7409 157.052 21.825 157.052 16.5234V7.68726C157.052 6.71529 156.351 6.00841 155.386 6.00841C154.421 6.00841 153.72 6.80365 153.72 7.68726V16.7001C153.72 19.8811 152.054 21.6483 149.248 21.6483C146.442 21.6483 144.776 19.7927 144.776 16.5234V7.68726C144.688 6.71529 143.986 5.92004 143.022 5.92004Z" fill="#F4C12B"/>
<path d="M105.841 6.00854C104.877 6.00854 104.175 6.80379 104.175 7.6874V22.8855C104.175 23.8575 104.965 24.5644 105.841 24.5644C106.806 24.5644 107.508 23.7691 107.508 22.8855V12.724V11.5753L108.209 12.4589L116.54 23.504C117.066 24.2109 117.504 24.5644 118.381 24.5644H118.556C119.521 24.5644 120.223 23.8575 120.223 22.8855V7.6874C120.223 6.80379 119.433 6.00854 118.556 6.00854C117.68 6.00854 116.89 6.80379 116.89 7.6874V17.4955V18.6442L116.189 17.7606L108.121 7.15724C107.595 6.53871 107.157 6.09691 106.28 6.09691H105.841V6.00854Z" fill="#F4C12B"/>
<path d="M39.3726 29.7776H51.6492C52.7014 29.7776 53.4907 28.9823 53.4907 28.0103C53.4907 27.0384 52.7014 26.1548 51.6492 26.1548H43.7571H42.7925L43.5817 25.5362L47.2647 22.7087C51.2984 19.5277 53.0522 17.8488 53.0522 14.1377V14.0493C53.0522 9.98469 50.1584 7.33386 45.5986 7.33386C42.5294 7.33386 40.4249 8.30583 38.4957 10.6032C38.2326 10.9567 37.9696 11.4868 37.9696 11.9286C37.9696 12.989 38.8465 13.8726 39.8988 13.8726C40.688 13.8726 41.2141 13.4308 41.3018 13.2541C42.4418 12.017 43.5817 11.1334 45.2478 11.1334C47.2647 11.1334 48.6677 12.4588 48.6677 14.4027C48.6677 16.435 47.6154 17.7605 44.5463 20.3229L38.2326 25.4479C37.4434 26.0664 37.0927 26.8616 37.0927 27.6569C37.005 28.9823 37.8819 29.7776 39.3726 29.7776Z" fill="#F4C12B"/>
<path d="M21.1332 14.2262C22.0978 14.2262 22.9747 13.431 22.9747 12.459C22.9747 11.487 22.1855 10.6918 21.2209 10.6918H9.20741C8.06745 10.6918 7.19055 11.5754 7.19055 12.7241V29.601C7.19055 30.7497 8.06745 31.6333 9.20741 31.6333H21.747C22.7116 31.6333 23.5885 30.8381 23.5885 29.8661C23.5885 28.8941 22.7993 28.0989 21.8347 28.0989H11.2243V22.8856H18.5025C19.4671 22.8856 20.344 22.0903 20.344 21.1184C20.344 20.1464 19.5548 19.3512 18.5902 19.3512H11.2243V14.3146H21.1332V14.2262Z" fill="#F4C12B"/>
<path d="M29.7268 34.9024H22.4486L18.941 39.1437L15.4334 34.9024H6.75211C5.17369 34.9024 3.50759 33.2235 3.50759 31.633V10.6031C3.50759 9.01262 5.17369 7.2454 6.8398 7.2454H27.2715C28.0607 6.00834 29.0253 4.85965 30.0776 3.79932H6.66442C2.89376 3.79932 0 6.62687 0 10.5148V31.633C0 35.4326 2.89376 38.3485 6.75211 38.3485H13.2411L18.7656 44.7105L24.29 38.3485H34.1113C32.5329 37.3765 31.0422 36.2278 29.7268 34.9024Z" fill="#F4C12B"/>
<path d="M45.3356 0C34.7251 0 26.0438 8.65938 26.0438 19.4394C26.0438 28.0988 31.656 35.4328 39.3727 37.9069L45.2479 44.7107L51.1231 37.9069C58.8398 35.4328 64.4519 28.0988 64.4519 19.4394C64.6273 8.74774 56.0337 0 45.3356 0ZM48.8431 34.991L45.4233 39.1439L42.0034 34.991C34.9005 33.4005 29.6391 27.0385 29.6391 19.4394C29.6391 10.6917 36.742 3.53444 45.4233 3.53444C54.1045 3.53444 61.2074 10.6917 61.2074 19.4394C61.2074 27.0385 55.8583 33.4005 48.8431 34.991Z" fill="#F4C12B"/>
</svg>
